<?xml version="1.0" encoding="UTF-8" standalone="no"?>
<svg
   xmlns:dc="http://purl.org/dc/elements/1.1/"
   xmlns:cc="http://creativecommons.org/ns#"
   xmlns:rdf="http://www.w3.org/1999/02/22-rdf-syntax-ns#"
   xmlns:svg="http://www.w3.org/2000/svg"
   xmlns="http://www.w3.org/2000/svg"
   viewBox="0 0 601.00134 601.00159"
   height="601.00159"
   width="601.00134"
   xml:space="preserve"
   version="1.1"
   id="svg4657"><metadata
     id="metadata4663"><rdf:RDF><cc:Work
         rdf:about=""><dc:format>image/svg+xml</dc:format><dc:type
           rdf:resource="http://purl.org/dc/dcmitype/StillImage" /><dc:title></dc:title></cc:Work></rdf:RDF></metadata><defs
     id="defs4661" /><g
     transform="matrix(1.25,0,0,-1.25,0,601.00159)"
     id="g4665"><g
       id="g4667"><path
         id="path4669"
         style="fill:#ffffff;fill-opacity:1;fill-rule:nonzero;stroke:none"
         d="m 451.602,480.403 c 28.863,0.015 28.796,-28.805 28.796,-28.805 l 0,-422.398 c 0,0 0.067,-28.825 -28.796,-28.797 l -422.403,0 C 0.152,0.372 0.398,29.2 0.398,29.2 l 0,422.398 c 0,0 -0.234,28.899 28.801,28.805 l 422.403,0 z" /><path
         id="path4671"
         style="fill:#154889;fill-opacity:1;fill-rule:nonzero;stroke:none"
         d="m 451.602,470.801 c 10.597,0 19.199,-8.593 19.199,-19.199 l 0,-422.402 C 470.801,18.59 462.199,10 451.602,10 L 29.199,10 C 18.598,10 10,18.59 10,29.2 l 0,422.402 c 0,10.606 8.598,19.199 19.199,19.199 l 422.403,0 z" /><path
         id="path4673"
         style="fill:#000000;fill-opacity:1;fill-rule:nonzero;stroke:none"
         d="m 451.602,480.801 c 14.566,0.008 21.941,-7.316 25.582,-14.617 3.64,-7.301 3.617,-14.59 3.617,-14.59 l 0,-422.394 c 0,0 0.019,-7.289 -3.617,-14.586 C 473.543,7.313 466.168,-0.011 451.602,0 L 29.199,0 C 14.543,-0.015 7.164,7.313 3.547,14.614 -0.066,21.911 0,29.196 0,29.2 l 0,422.398 c 0,0.004 -0.062,7.309 3.555,14.613 3.617,7.305 10.996,14.637 25.644,14.59 l 422.403,0 z m 0,-0.398 -422.403,0 C 0.164,480.497 0.398,451.598 0.398,451.598 l 0,-422.398 c 0,0 -0.246,-28.828 28.801,-28.797 l 422.403,0 C 480.465,0.375 480.398,29.2 480.398,29.2 l 0,422.398 c 0,0 0.067,28.82 -28.796,28.805 z" /><path
         id="path4675"
         style="fill:#ffffff;fill-opacity:1;fill-rule:nonzero;stroke:none"
         d="m 97.301,40.079 0,28.617 57.246,0 0,42.926 57.23,0 0,42.925 57.243,0 0,42.926 57.234,0 0,42.934 57.246,0 0,42.922 57.234,0 0,-14.309 -42.925,0 0,-42.922 -57.247,0 0,-42.926 -57.234,0 0,-42.925 -57.242,0 0,-42.934 -57.231,0 0,-42.926 -57.234,0 0,-14.308" /><path
         id="path4677"
         style="fill:#ffffff;fill-opacity:1;fill-rule:nonzero;stroke:none"
         d="m 208.203,401.399 c 0,-13.84 -11.207,-25.043 -25.039,-25.043 -13.828,0 -25.047,11.203 -25.047,25.043 0,13.824 11.219,25.027 25.047,25.027 13.832,0 25.039,-11.203 25.039,-25.027 z m -35.777,-135.945 0,28.457 -16.973,-10.446 c -10.09,-6.215 -23.312,-3.062 -29.523,7.028 l 46.496,28.617 0,25.043 c 0,13.824 11.219,25.039 25.047,25.039 8.683,0 16.738,-4.496 21.304,-11.883 l 42.914,-69.469 c 6.231,-10.082 3.118,-23.308 -6.98,-29.55 l -32.199,52.132 0,-44.968 -50.086,0 z m 0,-7.164 50.086,0 8.308,-44.426 20.321,-20.321 c 9.765,-9.789 9.765,-25.632 0,-35.414 l -40.129,40.129 c -1.84,1.832 -3.137,4.129 -3.766,6.653 l -9.773,39.07 0,-103.734 c 0,-13.832 -11.211,-25.043 -25.047,-25.043" /></g></g></svg>