<?xml version="1.0" encoding="UTF-8" standalone="no"?>
<svg
   xmlns:dc="http://purl.org/dc/elements/1.1/"
   xmlns:cc="http://creativecommons.org/ns#"
   xmlns:rdf="http://www.w3.org/1999/02/22-rdf-syntax-ns#"
   xmlns:svg="http://www.w3.org/2000/svg"
   xmlns="http://www.w3.org/2000/svg"
   viewBox="0 0 421.02505 630.72418"
   height="630.72418"
   width="421.02505"
   xml:space="preserve"
   version="1.1"
   id="svg5609"><metadata
     id="metadata5615"><rdf:RDF><cc:Work
         rdf:about=""><dc:format>image/svg+xml</dc:format><dc:type
           rdf:resource="http://purl.org/dc/dcmitype/StillImage" /><dc:title></dc:title></cc:Work></rdf:RDF></metadata><defs
     id="defs5613" /><g
     transform="matrix(1.25,0,0,-1.25,0,630.72418)"
     id="g5617"><g
       id="g5619"><path
         id="path5621"
         style="fill:#ffffff;fill-opacity:1;fill-rule:evenodd;stroke:none"
         d="m 23.035,0.4 291.195,0 c 22.301,0 22.192,18.187 22.192,18.187 l 0,467.641 c 0,0 0.144,17.949 -19.176,17.949 l -297.039,0 c 0,0 -19.766,0.328 -19.809,-19.742 l 0,-464.051 C 0.398,0.353 23.035,0.4 23.035,0.4 Z" /><path
         id="path5623"
         style="fill:#154889;fill-opacity:1;fill-rule:evenodd;stroke:none"
         d="m 19.648,9.306 297.622,0 c 0,0 10.828,0.027 10.828,10.953 l 0,464.926 c 0,0 -0.008,10.73 -11.981,10.73 l -295.312,0 c 0,0 -11.895,0 -11.895,-10.726 l 0,-465.614 C 8.949,9.197 19.648,9.306 19.648,9.306 Z" /><path
         id="path5625"
         style="fill:#ffffff;fill-opacity:1;fill-rule:evenodd;stroke:none"
         d="m 39.133,148.907 67.355,0.032 -0.097,-13.246 -25.711,-0.032 -0.032,-81.566 -15.07,0 0,81.613 -26.41,-0.066 -0.035,13.265 z" /><path
         id="path5627"
         style="fill:#ffffff;fill-opacity:1;fill-rule:evenodd;stroke:none"
         d="m 147.379,149.103 -12.203,-0.074 -34.676,-95.055 16.027,0.094 7.422,20.843 34.848,0.075 7.851,-21.746 15.84,0 -35.109,95.863 z m -5.848,-21.313 12.824,-39.441 -26.32,-0.074 13.496,39.515 z" /><path
         id="path5629"
         style="fill:#ffffff;fill-opacity:1;fill-rule:evenodd;stroke:none"
         d="m 191.18,149.087 27.824,-46.16 -29.551,-48.91 17.902,0 19.727,34.676 19.746,-34.676 17.688,0 -29.18,48.695 27.887,46.16 -18.121,0 -17.903,-32.14 -18.332,32.14 -17.687,0.215 z" /><path
         id="path5631"
         style="fill:#ffffff;fill-opacity:1;fill-rule:evenodd;stroke:none"
         d="m 277.309,54.126 -0.028,94.797 15.004,0 -0.023,-94.824 -14.953,0.027 z" /><path
         id="path5633"
         style="fill:#000000;fill-opacity:1;fill-rule:evenodd;stroke:none"
         d="m 20.207,504.579 c -0.008,0 -5.023,0.086 -10.062,-2.386 C 5.098,499.716 0.02,494.603 0,484.439 L 0,20.384 C 0,10.22 5.805,5.048 11.555,2.513 c 5.75,-2.531 11.48,-2.512 11.48,-2.512 l 291.195,0 c 11.258,0 16.977,4.637 19.801,9.285 2.821,4.649 2.789,9.297 2.789,9.297 l 0,467.645 c 0,0.004 0.039,4.578 -2.39,9.164 -2.43,4.586 -7.399,9.187 -17.184,9.187 l -297.039,0 z m 0,-0.402 297.039,0 c 19.32,0 19.176,-17.949 19.176,-17.949 l 0,-467.645 c 0,0 0.109,-18.183 -22.192,-18.183 l -291.195,0 c 0,0 -22.637,-0.047 -22.637,19.98 l 0,464.055 c 0.043,20.07 19.809,19.742 19.809,19.742 z" /><path
         id="path5635"
         style="fill:#c1121c;fill-opacity:1;fill-rule:nonzero;stroke:none"
         d="m 168.43,449.072 c -69.461,0 -126.149,-56.688 -126.149,-126.153 0,-69.461 56.688,-126.148 126.149,-126.148 69.465,0 126.152,56.687 126.152,126.148 0,69.465 -56.687,126.153 -126.152,126.153 z m 0,-34.973 c 20.55,0 39.453,-6.707 54.66,-18.067 l -54.66,-54.656 -54.657,54.656 c 15.204,11.36 34.11,18.067 54.657,18.067 z m 73.113,-36.52 c 11.359,-15.203 18.066,-34.109 18.066,-54.66 0,-20.547 -6.707,-39.449 -18.066,-54.656 l -54.656,54.656 54.656,54.66 z m -146.223,0 54.657,-54.66 -54.657,-54.656 c -11.359,15.207 -18.066,34.109 -18.066,54.656 0,20.551 6.707,39.453 18.066,54.66 z m 73.11,-73.113 54.66,-54.656 c -15.203,-11.36 -34.11,-18.067 -54.66,-18.067 -20.547,0 -39.453,6.707 -54.657,18.067 l 54.657,54.656 z" /><path
         id="path5637"
         style="fill:#000000;fill-opacity:1;fill-rule:nonzero;stroke:none"
         d="m 50.672,440.435 0,-0.016 -0.012,0 0.012,0.016 z" /><path
         id="path5639"
         style="fill:#000000;fill-opacity:1;fill-rule:nonzero;stroke:none"
         d="m 50.66,440.435 0.012,0 0,-0.012 -0.012,0 0,0.012 z" /><path
         id="path5641"
         style="fill:#000000;fill-opacity:1;fill-rule:nonzero;stroke:none"
         d="m 50.66,440.419 0,0.016 0.012,-0.016 -0.012,0 z m 0.012,0 -0.012,0.016 0,-0.016 0.012,0 z" /><path
         id="path5643"
         style="fill:#000000;fill-opacity:1;fill-rule:nonzero;stroke:none"
         d="m 50.688,440.419 -0.028,0 0.012,0 0,0.016 0.016,-0.016 z" /><path
         id="path5645"
         style="fill:#000000;fill-opacity:1;fill-rule:nonzero;stroke:none"
         d="m 50.66,440.419 0,0.016 0,-0.016 0.012,0.016 -0.012,-0.016 z" /><path
         id="path5647"
         style="fill:#000000;fill-opacity:1;fill-rule:nonzero;stroke:none"
         d="m 50.66,440.435 0.012,0 0,-0.012 -0.012,0 0,0.012 z" /><path
         id="path5649"
         style="fill:#000000;fill-opacity:1;fill-rule:nonzero;stroke:none"
         d="m 50.688,440.435 0,-0.028 -0.028,0 0.028,0.028 z" /><path
         id="path5651"
         style="fill:#000000;fill-opacity:1;fill-rule:nonzero;stroke:none"
         d="m 50.66,440.435 0.027,0 0,-0.027 -0.027,0 0,0.027 z" /><path
         id="path5653"
         style="fill:#000000;fill-opacity:1;fill-rule:nonzero;stroke:none"
         d="m 50.66,440.407 0,0.028 0.028,-0.028 -0.028,0 z m 0.028,0 -0.028,0.028 0,-0.028 0.028,0 z" /><path
         id="path5655"
         style="fill:#000000;fill-opacity:1;fill-rule:nonzero;stroke:none"
         d="m 50.688,440.407 -0.028,0 0.012,0 0,0.028 0.016,-0.028 z" /><path
         id="path5657"
         style="fill:#000000;fill-opacity:1;fill-rule:nonzero;stroke:none"
         d="m 50.66,440.407 0,0.028 0,-0.028 0.028,0.028 -0.028,-0.028 z" /><path
         id="path5659"
         style="fill:#000000;fill-opacity:1;fill-rule:nonzero;stroke:none"
         d="m 50.66,440.435 0.027,0 0,-0.027 -0.027,0 0,0.027 z" /><path
         id="path5661"
         style="fill:#000000;fill-opacity:1;fill-rule:nonzero;stroke:none"
         d="m 50.688,440.435 0,-0.028 -0.028,0 0.028,0.028 z" /><path
         id="path5663"
         style="fill:#000000;fill-opacity:1;fill-rule:nonzero;stroke:none"
         d="m 50.66,440.435 0.027,0 0,-0.027 -0.027,0 0,0.027 z" /><path
         id="path5665"
         style="fill:#000000;fill-opacity:1;fill-rule:nonzero;stroke:none"
         d="m 50.66,440.407 0,0.028 0.028,-0.028 -0.028,0 z m 0.028,0 -0.028,0.028 0,-0.028 0.028,0 z" /><path
         id="path5667"
         style="fill:#000000;fill-opacity:1;fill-rule:nonzero;stroke:none"
         d="m 50.688,440.407 -0.028,0 0.012,0 0,0.028 0.016,-0.028 z" /><path
         id="path5669"
         style="fill:#000000;fill-opacity:1;fill-rule:nonzero;stroke:none"
         d="m 50.66,440.407 0,0.028 0,-0.028 0.028,0.028 -0.028,-0.028 z" /><path
         id="path5671"
         style="fill:#000000;fill-opacity:1;fill-rule:nonzero;stroke:none"
         d="m 50.66,440.435 0.027,0 0,-0.027 -0.027,0 0,0.027 z" /><path
         id="path5673"
         style="fill:#000000;fill-opacity:1;fill-rule:nonzero;stroke:none"
         d="m 50.688,440.435 0,-0.028 -0.028,0 0.028,0.028 z" /><path
         id="path5675"
         style="fill:#000000;fill-opacity:1;fill-rule:nonzero;stroke:none"
         d="m 50.66,440.435 0.027,0 0,-0.027 -0.027,0 0,0.027 z" /><path
         id="path5677"
         style="fill:#000000;fill-opacity:1;fill-rule:nonzero;stroke:none"
         d="m 50.66,440.407 0,0.028 0.028,-0.028 -0.028,0 z m 0.028,0 -0.028,0.028 0,-0.028 0.028,0 z" /><path
         id="path5679"
         style="fill:#000000;fill-opacity:1;fill-rule:nonzero;stroke:none"
         d="m 50.688,440.407 -0.028,0 0.012,0 0,0.028 0.016,-0.028 z" /><path
         id="path5681"
         style="fill:#000000;fill-opacity:1;fill-rule:nonzero;stroke:none"
         d="m 50.66,440.407 0,0.028 0,-0.028 0.028,0.028 -0.028,-0.028 z" /><path
         id="path5683"
         style="fill:#000000;fill-opacity:1;fill-rule:nonzero;stroke:none"
         d="m 50.66,440.435 0.027,0 0,-0.027 -0.027,0 0,0.027 z" /></g></g></svg>