<?xml version="1.0" encoding="UTF-8" standalone="no"?>
<!-- Created with Inkscape (http://www.inkscape.org/) -->
<svg
   xmlns:svg="http://www.w3.org/2000/svg"
   xmlns="http://www.w3.org/2000/svg"
   version="1.0"
   width="2200"
   height="1800"
   id="svg2">
  <defs
     id="defs4" />
  <g
     id="layer1" />
  <path
     d="M 254.3482,1800 L 573.1076,2.5367825 L 1120.5121,2.4921813 L 1314.063,1269.3404 C 1326.043,1303.977 1359.8102,1373.6555 1465.9157,1370.325 L 2012.9284,1369.1041 L 2093.1707,1637.1457 L 1529.1516,1636.935 C 1441.4152,1641.7933 1396.8145,1710.9682 1390.3854,1757.282 L 1391.6063,1800 L 254.3482,1800 z "
     style="fill:#999;fill-opacity:1;fill-rule:evenodd;stroke:none;stroke-width:1px;stroke-linecap:butt;stroke-linejoin:miter;stroke-opacity:1"
     id="path25130" />
  <path
     d="M 503.37878,2.7128712 L 89.950848,1800 L 264.34121,1800.1209 L 575.16958,2.8864736 L 503.37878,2.7128712 z "
     style="fill:white;fill-opacity:1;fill-rule:evenodd;stroke:none;stroke-width:2;stroke-linecap:butt;stroke-linejoin:miter;stroke-miterlimit:4;stroke-dasharray:none;stroke-opacity:1"
     id="path15303" />
  <path
     d="M 553.54368,2.7128712 C 552.96707,2.7128712 552.39046,2.7128712 553.54368,2.7128712 z "
     style="fill:none;fill-opacity:0.75;fill-rule:evenodd;stroke:black;stroke-width:1px;stroke-linecap:butt;stroke-linejoin:miter;stroke-opacity:1"
     id="path17075" />
  <path
     d="M 502.75257,2.0534749 L 88.884433,1800"
     style="fill:none;fill-opacity:0.75;fill-rule:evenodd;stroke:black;stroke-width:2;stroke-linecap:butt;stroke-linejoin:miter;stroke-miterlimit:4;stroke-dasharray:none;stroke-opacity:1"
     id="path18849" />
  <path
     d="M 239.80068,1800.1222 L 554.05527,2.2206906"
     style="fill:none;fill-opacity:0.75;fill-rule:evenodd;stroke:black;stroke-width:2;stroke-linecap:butt;stroke-linejoin:miter;stroke-miterlimit:4;stroke-dasharray:none;stroke-opacity:1"
     id="path18851" />
  <path
     d="M 574.23496,2.3482668 L 264.61509,1801.4852"
     style="fill:none;fill-opacity:0.75;fill-rule:evenodd;stroke:black;stroke-width:2;stroke-linecap:butt;stroke-linejoin:miter;stroke-miterlimit:4;stroke-dasharray:none;stroke-opacity:1"
     id="path18853" />
  <path
     d="M 1390.5668,1800.1168 C 1390.5668,1800.1168 1390.6057,1751.3902 1390.6057,1751.3902 C 1406.8513,1696.4434 1441.0181,1653.8401 1518.486,1637.6668 L 2092.0149,1637.9553 L 2126.6998,1756.1224 L 1590.1801,1756.1224 C 1565.7034,1758.5758 1541.6384,1762.0672 1531.2311,1800 L 1390.5668,1800.1168 z "
     style="fill:white;fill-opacity:1;fill-rule:evenodd;stroke:none;stroke-width:1px;stroke-linecap:butt;stroke-linejoin:miter;stroke-opacity:1"
     id="path19742" />
  <path
     d="M 1390.7618,1800 C 1390.7618,1800 1390.4632,1754.8256 1390.4632,1754.8256 C 1395.2114,1705.9176 1450.1345,1642.7873 1525.6892,1635.8483 L 2092.8477,1636.4683"
     style="fill:none;fill-opacity:0.75;fill-rule:evenodd;stroke:black;stroke-width:2;stroke-linecap:butt;stroke-linejoin:miter;stroke-miterlimit:4;stroke-dasharray:none;stroke-opacity:1"
     id="path19744" />
  <path
     d="M 1411.3635,1800 L 1411.6927,1747.0408 C 1410.4157,1729.8431 1441.1108,1654.4024 1516.6195,1636.6738"
     style="fill:none;fill-opacity:0.75;fill-rule:evenodd;stroke:black;stroke-width:2;stroke-linecap:butt;stroke-linejoin:miter;stroke-miterlimit:4;stroke-dasharray:none;stroke-opacity:1"
     id="path20631" />
  <path
     d="M 1532.012,1800 C 1531.0833,1790.0072 1541.2637,1756.1193 1591.0572,1755.7161 L 2126.6102,1756.2606"
     style="fill:none;fill-opacity:0.75;fill-rule:evenodd;stroke:black;stroke-width:2;stroke-linecap:butt;stroke-linejoin:miter;stroke-miterlimit:4;stroke-dasharray:none;stroke-opacity:1"
     id="path21518" />
  <path
     d="M 1120.3919,2.331704 L 1203.5439,2.331704 L 1430.8386,1171.2135 C 1435.5667,1187.6969 1469.9567,1226.5756 1510.9507,1227.1056 L 1979.4602,1226.1741 L 2013.0483,1348.2053 L 2013.9799,1369.6306 L 1443.8801,1370.5621 C 1381.7003,1363.3455 1334.7392,1329.344 1310.6705,1255.0517 L 1120.3919,2.331704 z "
     style="fill:white;fill-opacity:1;fill-rule:evenodd;stroke:none;stroke-width:1px;stroke-linecap:butt;stroke-linejoin:miter;stroke-opacity:1"
     id="path22405" />
  <path
     d="M 2014.1595,1369.7023 L 1441.155,1369.7023 C 1367.5261,1368.863 1325.7113,1306.9289 1313.8797,1268.9943 L 1119.9176,2.5396679"
     style="fill:none;fill-opacity:0.75;fill-rule:evenodd;stroke:black;stroke-width:2;stroke-linecap:butt;stroke-linejoin:miter;stroke-miterlimit:4;stroke-dasharray:none;stroke-opacity:1"
     id="path22409" />
  <path
     d="M 2011.4912,1345.531 L 1454.5124,1345.9251 C 1392.7182,1345.6859 1342.0343,1307.0207 1330.2756,1244.7838 L 1138.9988,2.8494203"
     style="fill:none;fill-opacity:0.75;fill-rule:evenodd;stroke:black;stroke-width:2;stroke-linecap:butt;stroke-linejoin:miter;stroke-miterlimit:4;stroke-dasharray:none;stroke-opacity:1"
     id="path23296" />
  <path
     d="M 1978.4718,1225.7373 L 1505.334,1225.451 C 1476.632,1225.451 1435.8437,1190.1126 1429.6733,1170.2817 L 1204.2672,2.4118"
     style="fill:none;fill-opacity:0.75;fill-rule:evenodd;stroke:black;stroke-width:2;stroke-linecap:butt;stroke-linejoin:miter;stroke-miterlimit:4;stroke-dasharray:none;stroke-opacity:1"
     id="path24183" />
  <path
     d="M 845.64103,2.4067219 L 765.39772,695.72861 C 780.55191,812.83253 898.47321,889.22972 950.57459,971.64215 L 966.62325,1189.5336 L 992.54801,1189.5336 L 889.46622,2.4118 L 845.64103,2.4067219 z "
     style="fill:white;fill-opacity:1;fill-rule:evenodd;stroke:black;stroke-width:1px;stroke-linecap:butt;stroke-linejoin:miter;stroke-opacity:1"
     id="path25070" />
  <path
     d="M 856.66071,2.4561111 L 848.83177,87.759117 L 882.52695,55.019829 L 879.4203,2.4118 L 856.66071,2.4561111 z "
     style="fill:#999;fill-opacity:1;fill-rule:evenodd;stroke:black;stroke-width:1px;stroke-linecap:butt;stroke-linejoin:miter;stroke-opacity:1"
     id="path25072" />
  <path
     d="M 844.29128,120.49841 L 841.66258,151.80386 L 887.06743,109.02771 L 884.91668,83.457605 L 844.29128,120.49841 z "
     style="fill:#999;fill-opacity:1;fill-rule:evenodd;stroke:black;stroke-width:1px;stroke-linecap:butt;stroke-linejoin:miter;stroke-opacity:1"
     id="path25074" />
  <path
     d="M 829.95291,250.73864 L 827.56318,283.23896 L 894.95354,216.80449 L 892.80278,191.47336 L 829.95291,250.73864 z "
     style="fill:#999;fill-opacity:1;fill-rule:evenodd;stroke:black;stroke-width:1px;stroke-linecap:butt;stroke-linejoin:miter;stroke-opacity:1"
     id="path25076" />
  <path
     d="M 823.02269,318.129 L 819.91605,348.9565 L 898.77711,271.52928 L 897.34327,246.91507 L 823.02269,318.129 z "
     style="fill:#999;fill-opacity:1;fill-rule:evenodd;stroke:black;stroke-width:1px;stroke-linecap:butt;stroke-linejoin:miter;stroke-opacity:1"
     id="path25078" />
  <path
     d="M 815.85351,383.12963 L 812.50789,414.43508 L 903.31759,328.16586 L 901.64478,301.16192 L 815.85351,383.12963 z "
     style="fill:#999;fill-opacity:1;fill-rule:evenodd;stroke:black;stroke-width:1px;stroke-linecap:butt;stroke-linejoin:miter;stroke-opacity:1"
     id="path25080" />
  <path
     d="M 808.44535,446.69642 L 806.05562,479.91366 L 907.14116,382.89066 L 905.22937,354.93083 L 808.44535,446.69642 z "
     style="fill:#999;fill-opacity:1;fill-rule:evenodd;stroke:black;stroke-width:1px;stroke-linecap:butt;stroke-linejoin:miter;stroke-opacity:1"
     id="path25082" />
  <path
     d="M 801.75411,513.36987 L 799.60335,543.71942 L 911.2037,436.42059 L 909.53089,410.37254 L 801.75411,513.36987 z "
     style="fill:#999;fill-opacity:1;fill-rule:evenodd;stroke:black;stroke-width:1px;stroke-linecap:butt;stroke-linejoin:miter;stroke-opacity:1"
     id="path25084" />
  <path
     d="M 795.06286,577.65358 L 792.19519,611.10978 L 915.74418,491.38436 L 913.11548,464.14145 L 795.06286,577.65358 z "
     style="fill:#999;fill-opacity:1;fill-rule:evenodd;stroke:black;stroke-width:1px;stroke-linecap:butt;stroke-linejoin:miter;stroke-opacity:1"
     id="path25086" />
  <path
     d="M 786.45984,645.04394 L 784.54806,675.63247 L 919.32878,544.67532 L 917.41699,520.06111 L 786.45984,645.04394 z "
     style="fill:#999;fill-opacity:1;fill-rule:evenodd;stroke:black;stroke-width:1px;stroke-linecap:butt;stroke-linejoin:miter;stroke-opacity:1"
     id="path25088" />
  <path
     d="M 782.87525,706.45997 L 790.28341,730.83521 L 923.39132,599.87806 L 921.47953,575.26385 L 782.87525,706.45997 z "
     style="fill:#999;fill-opacity:1;fill-rule:evenodd;stroke:black;stroke-width:1px;stroke-linecap:butt;stroke-linejoin:miter;stroke-opacity:1"
     id="path25090" />
  <path
     d="M 798.16951,751.38688 L 808.20637,769.7878 L 927.9318,655.0808 L 925.78104,629.74967 L 798.16951,751.38688 z "
     style="fill:#999;fill-opacity:1;fill-rule:evenodd;stroke:black;stroke-width:1px;stroke-linecap:butt;stroke-linejoin:miter;stroke-opacity:1"
     id="path25092" />
  <path
     d="M 819.91605,788.90563 L 832.10366,805.63373 L 931.51639,710.28354 L 929.84358,683.2796 L 819.91605,788.90563 z "
     style="fill:#999;fill-opacity:1;fill-rule:evenodd;stroke:black;stroke-width:1px;stroke-linecap:butt;stroke-linejoin:miter;stroke-opacity:1"
     id="path25094" />
  <path
     d="M 846.20307,823.79567 L 860.06349,838.85097 L 936.05688,764.05245 L 934.1451,737.04851 L 846.20307,823.79567 z "
     style="fill:#999;fill-opacity:1;fill-rule:evenodd;stroke:black;stroke-width:1px;stroke-linecap:butt;stroke-linejoin:miter;stroke-opacity:1"
     id="path25096" />
  <path
     d="M 873.68495,854.14523 L 888.2623,869.20052 L 940.35839,818.06032 L 937.72969,791.53433 L 873.68495,854.14523 z "
     style="fill:#999;fill-opacity:1;fill-rule:evenodd;stroke:black;stroke-width:1px;stroke-linecap:butt;stroke-linejoin:miter;stroke-opacity:1"
     id="path25098" />
  <path
     d="M 903.31759,884.97274 L 916.22213,899.55008 L 944.18196,872.0682 L 942.0312,846.02015 L 903.31759,884.97274 z "
     style="fill:#999;fill-opacity:1;fill-rule:evenodd;stroke:black;stroke-width:1px;stroke-linecap:butt;stroke-linejoin:miter;stroke-opacity:1"
     id="path25100" />
  <path
     d="M 930.08256,914.60538 C 937.76931,925.41241 949.39343,933.59452 950.15628,949.01748 L 946.09374,897.39933 L 930.08256,914.60538 z "
     style="fill:#999;fill-opacity:1;fill-rule:evenodd;stroke:black;stroke-width:1px;stroke-linecap:butt;stroke-linejoin:miter;stroke-opacity:1"
     id="path25102" />
  <path
     d="M 837.05271,186.33159 L 835.03815,219.23619 L 890.77451,165.85015 L 888.75994,137.31045 L 837.05271,186.33159 z "
     style="fill:#999;fill-opacity:1;fill-rule:evenodd;stroke:black;stroke-width:1px;stroke-linecap:butt;stroke-linejoin:miter;stroke-opacity:1"
     id="path25104" />
  <path
     d="M 968.26314,1204.0986 L 979.28701,1335.7726 L 1005.928,1335.7726 L 993.9855,1203.7924 L 968.26314,1204.0986 z "
     style="fill:white;fill-opacity:1;fill-rule:evenodd;stroke:black;stroke-width:1px;stroke-linecap:butt;stroke-linejoin:miter;stroke-opacity:1"
     id="path25106" />
  <path
     d="M 979.28701,1350.4711 L 990.31088,1489.8006 L 1019.0954,1490.1068 L 1005.6218,1350.4711 L 979.28701,1350.4711 z "
     style="fill:white;fill-opacity:1;fill-rule:evenodd;stroke:black;stroke-width:1px;stroke-linecap:butt;stroke-linejoin:miter;stroke-opacity:1"
     id="path25108" />
  <path
     d="M 991.22954,1506.9488 L 1003.1721,1649.6467 L 1032.8753,1649.3405 L 1020.0141,1506.9488 L 991.22954,1506.9488 z "
     style="fill:white;fill-opacity:1;fill-rule:evenodd;stroke:black;stroke-width:1px;stroke-linecap:butt;stroke-linejoin:miter;stroke-opacity:1"
     id="path25110" />
  <path
     d="M 1003.7845,1663.7327 L 1014.3144,1800.5431 L 1045.9191,1800.3603 L 1033.7939,1663.4265 L 1003.7845,1663.7327 z "
     style="fill:white;fill-opacity:1;fill-rule:evenodd;stroke:black;stroke-width:1px;stroke-linecap:butt;stroke-linejoin:miter;stroke-opacity:1"
     id="path25112" />
  <path
     d="M 646.73364,1661.5892 L 676.9343,1661.5389 L 662.26939,1800.1317 L 631.42271,1800.1485 L 646.73364,1661.5892 z "
     style="fill:white;fill-opacity:1;fill-rule:evenodd;stroke:black;stroke-width:1px;stroke-linecap:butt;stroke-linejoin:miter;stroke-opacity:1"
     id="path25114" />
  <path
     d="M 647.56468,1647.2449 L 678.99277,1646.8795 L 693.97592,1505.4531 L 665.10594,1505.4531 L 647.56468,1647.2449 z "
     style="fill:white;fill-opacity:1;fill-rule:evenodd;stroke:black;stroke-width:1px;stroke-linecap:butt;stroke-linejoin:miter;stroke-opacity:1"
     id="path25116" />
  <path
     d="M 668.02948,1487.5464 L 694.34136,1487.5464 L 710.78629,1349.7744 L 683.01264,1349.7744 L 668.02948,1487.5464 z "
     style="fill:white;fill-opacity:1;fill-rule:evenodd;stroke:black;stroke-width:1px;stroke-linecap:butt;stroke-linejoin:miter;stroke-opacity:1"
     id="path25118" />
  <path
     d="M 684.10897,1334.4258 L 700.55389,1203.5973 L 726.50033,1203.9628 L 712.97895,1334.4258 L 684.10897,1334.4258 z "
     style="fill:white;fill-opacity:1;fill-rule:evenodd;stroke:black;stroke-width:1px;stroke-linecap:butt;stroke-linejoin:miter;stroke-opacity:1"
     id="path25122" />
  <path
     d="M 700.91934,1187.5178 L 728.32755,1187.5178 L 743.3107,1046.8223 L 718.46059,1047.9187 L 700.91934,1187.5178 z "
     style="fill:white;fill-opacity:1;fill-rule:evenodd;stroke:black;stroke-width:1px;stroke-linecap:butt;stroke-linejoin:miter;stroke-opacity:1"
     id="path25124" />
  <path
     d="M 719.92236,1031.4737 L 746.96513,1031.8392 L 760.48652,891.1437 L 736.73273,891.1437 L 719.92236,1031.4737 z "
     style="fill:white;fill-opacity:1;fill-rule:evenodd;stroke:black;stroke-width:1px;stroke-linecap:butt;stroke-linejoin:miter;stroke-opacity:1"
     id="path25126" />
  <path
     d="M 738.92539,872.50611 L 763.04462,872.50611 L 771.81524,774.202 C 763.48919,762.65809 759.56552,750.73737 755.00487,737.29227 L 738.92539,872.50611 z "
     style="fill:white;fill-opacity:1;fill-rule:evenodd;stroke:black;stroke-width:1px;stroke-linecap:butt;stroke-linejoin:miter;stroke-opacity:1"
     id="path25128" />
</svg>
