<?xml version="1.0" encoding="UTF-8" standalone="no"?>
<svg
   xmlns:dc="http://purl.org/dc/elements/1.1/"
   xmlns:cc="http://creativecommons.org/ns#"
   xmlns:rdf="http://www.w3.org/1999/02/22-rdf-syntax-ns#"
   xmlns:svg="http://www.w3.org/2000/svg"
   xmlns="http://www.w3.org/2000/svg"
   viewBox="0 0 600.00006 600"
   height="600"
   width="600.00006"
   xml:space="preserve"
   version="1.1"
   id="svg6296"><metadata
     id="metadata6302"><rdf:RDF><cc:Work
         rdf:about=""><dc:format>image/svg+xml</dc:format><dc:type
           rdf:resource="http://purl.org/dc/dcmitype/StillImage" /><dc:title></dc:title></cc:Work></rdf:RDF></metadata><defs
     id="defs6300" /><g
     transform="matrix(1.25,0,0,-1.25,0,600)"
     id="g6304"><g
       id="g6306"><path
         id="path6308"
         style="fill:#ffffff;fill-opacity:1;fill-rule:nonzero;stroke:none"
         d="m 30.445,479.762 c -30.273,0 -30.207,-30.141 -30.207,-30.141 l 0,-419.242 c 0,0 -0.066,-30.137 30.207,-30.137 l 419.11,0 c 30.273,0 30.203,30.137 30.203,30.137 l 0,419.242 c 0,0 0.07,30.141 -30.203,30.141 l -419.11,0 z" /><path
         id="path6310"
         style="fill:#808080;fill-opacity:1;fill-rule:nonzero;stroke:none"
         d="m 383.332,287.852 c 0,-79.528 -64.473,-144 -144,-144 -79.531,0 -144,64.472 -144,144 0,79.527 64.469,144 144,144 79.527,0 144,-64.473 144,-144 z" /><path
         id="path6312"
         style="fill:#000000;fill-opacity:1;fill-rule:nonzero;stroke:none"
         d="M 30.445,480 C 15.23,480 7.57,472.391 3.777,464.797 -0.02,457.203 0,449.617 0,449.617 L 0,30.379 c 0,0 -0.02,-7.582 3.777,-15.176 C 7.57,7.613 15.23,0 30.445,0 l 419.11,0 c 15.215,0 22.875,7.613 26.668,15.203 3.797,7.594 3.777,15.18 3.777,15.18 l 0,419.234 c 0,0.004 0.02,7.586 -3.777,15.18 C 472.43,472.387 464.77,480 449.555,480 l -419.11,0 z m 0,-0.238 419.11,0 c 30.273,0 30.203,-30.141 30.203,-30.141 l 0,-419.242 c 0,0 0.07,-30.137 -30.203,-30.137 l -419.11,0 C 0.172,0.242 0.238,30.379 0.238,30.379 l 0,419.242 c 0,0 -0.066,30.141 30.207,30.141 z" /><path
         id="path6314"
         style="fill:#8a8a8a;fill-opacity:1;fill-rule:nonzero;stroke:none"
         d="m 307.93,48.859 0,67.27 43.261,0 0,-9.602 -33.039,0 0,-19.226 28.235,0 0,-9.008 -28.235,0 0,-19.82 33.039,0 0,-9.614 -43.261,0 z m -66.059,0 0,67.27 9.613,0 30.637,-48.043 0,48.043 10.203,0 0,-67.27 -9.613,0 -30.621,48.055 0,-48.055 -10.219,0 z m -51.039,23.43 c 0,-7.625 6.172,-13.816 13.801,-13.816 7.637,0 13.812,6.191 13.812,13.816 l 0,20.426 c 0,7.613 -6.175,13.812 -13.812,13.812 -7.629,0 -13.801,-6.199 -13.801,-13.812 l 0,-20.426 z m -10.219,0 0,20.426 c 0,13.269 10.762,24.019 24.02,24.019 13.269,0 24.031,-10.75 24.031,-24.019 l 0,-20.426 c 0,-13.269 -10.762,-24.019 -24.031,-24.019 -13.258,0 -24.02,10.75 -24.02,24.019 z m -52.851,-23.43 0,8.418 30.633,49.844 -29.434,0 0,9.008 42.047,0 0,-7.797 -30.629,-49.859 30.629,0 0,-9.614" /><path
         id="path6316"
         style="fill:#ffffff;fill-opacity:1;fill-rule:nonzero;stroke:none"
         d="m 292.598,294.379 c 0,8.398 -6.813,15.219 -15.219,15.219 -8.406,0 -15.219,-6.821 -15.219,-15.219 0,-8.406 6.813,-15.227 15.219,-15.227 8.406,0 15.219,6.821 15.219,15.227 z m -73.914,89.137 c 0,-9.602 -7.793,-17.395 -17.399,-17.395 -9.601,0 -17.394,7.793 -17.394,17.395 0,9.601 7.793,17.386 17.394,17.386 9.606,0 17.399,-7.785 17.399,-17.386 z m -34.793,-88.719 3.054,3 c 0.832,0.824 1.297,1.933 1.297,3.101 l 0,32.614 c 0,1.195 -0.972,2.168 -2.176,2.168 -1.195,0 -2.175,-0.973 -2.175,-2.168 l 0,-38.715 z m -26.09,-50.422 c 2.504,16.648 9.726,32.234 20.824,44.898 -5.004,5.586 -7.777,12.821 -7.777,20.325 l 0,17.386 c 0,16.813 13.625,30.442 30.437,30.442 11.352,0 21.754,-6.317 27,-16.387 l 18.07,-34.703 c 2.61,-5.035 1.688,-11.18 -2.308,-15.203 l 17.957,-15.067 c 6.082,-5.113 14.301,-6.867 21.945,-4.683 l 3.219,0.922 c 3.324,0.941 6.898,-0.168 9.098,-2.844 l 22.117,-26.879 c 3.762,-4.57 3.18,-11.312 -1.32,-15.16 l -20.114,23.473 6.52,-32.618 -8.336,-1.226 5.008,-31.613 c 0.476,-2.969 -1.559,-5.75 -4.52,-6.223 -2.891,-0.449 -5.625,1.461 -6.183,4.328 l -6.172,31.746 -7.047,-1.043 -3.215,-34.512 c -0.274,-2.988 -2.922,-5.187 -5.914,-4.91 -2.91,0.274 -5.086,2.805 -4.914,5.727 l 4.332,74.695 -30.961,29.274 c -2.879,4.039 -2.664,9.515 0.523,13.316 l -19.277,37.035 c -0.332,0.629 -1.117,0.887 -1.754,0.551 -0.437,-0.223 -0.707,-0.676 -0.707,-1.156 l 0,-33.368 c 0,-1.168 0.465,-2.277 1.297,-3.101 l 3.859,-3.801 c 13.582,-13.363 22.453,-30.781 25.282,-49.621 l -86.969,0 z m 45.66,-4.352 13.047,0 0,-58.695 c 0,-3.605 -2.922,-6.527 -6.528,-6.527 -3.597,0 -6.519,2.922 -6.519,6.527 l 0,58.695 z m -17.395,0 13.043,0 0,-45.652 c 0,-3.601 -2.918,-6.523 -6.515,-6.523 -3.606,0 -6.528,2.922 -6.528,6.523" /><path
         id="path6318"
         style="fill:#000000;fill-opacity:1;fill-rule:nonzero;stroke:none"
         d="m 464.449,465.945 c -3.191,3.039 -7.914,5.274 -14.894,5.266 -140.067,-0.117 -264.512,-0.035 -419.106,0 C 8.789,471.242 8.871,449.617 8.871,449.617 l 0,-419.238 c 0,0 -0.082,-21.625 21.578,-21.59 154.594,0.031 279.039,0.117 419.106,0 21.66,-0.035 21.574,21.59 21.574,21.59 l 0,419.238 c 0,0 0.035,9.317 -6.059,15.707 -0.199,0.211 -0.406,0.418 -0.621,0.621 z m -8.64,-9.007 L 23.023,24.152 c -1.25,1.407 -2.156,3.399 -2.164,6.227 l 0,1.781 427.059,427.059 c 0.539,0 1.102,0 1.637,0.004 0,0 3.484,-0.149 6.254,-2.285 z m 3.32,-6.852 c 0.008,-0.152 0.012,-0.309 0.012,-0.469 l 0,-9.695 L 39.996,20.785 c -2.933,-0.004 -6.644,-0.008 -9.547,-0.008 0,0 -0.222,0.012 -0.574,0.055 l 429.254,429.254 z m -21.395,9.121 -416.875,-416.875 0,10.172 406.692,406.691 c 3.387,0.004 6.773,0.008 10.183,0.012 z m 21.407,-29.453 0,-10.176 L 60.355,20.793 C 57.074,20.789 53.418,20.789 50.176,20.789 L 459.141,429.754 Z M 417.363,459.18 20.859,62.676 l 0,386.941 c 0.024,9.223 9.59,9.606 9.59,9.606 114.742,-0.051 257.149,-0.188 386.914,-0.043 z m 41.778,-49.774 0,-379.027 c -0.024,-9.219 -9.586,-9.602 -9.586,-9.602 -124.246,0.192 -261.856,0.082 -379.024,0.02 l 388.61,388.609 z" /></g></g></svg>