<?xml version="1.0" encoding="UTF-8" standalone="no"?>
<svg
   xmlns:dc="http://purl.org/dc/elements/1.1/"
   xmlns:cc="http://creativecommons.org/ns#"
   xmlns:rdf="http://www.w3.org/1999/02/22-rdf-syntax-ns#"
   xmlns:svg="http://www.w3.org/2000/svg"
   xmlns="http://www.w3.org/2000/svg"
   viewBox="0 0 600.995 600.995"
   height="600.995"
   width="600.995"
   xml:space="preserve"
   version="1.1"
   id="svg3984"><metadata
     id="metadata3990"><rdf:RDF><cc:Work
         rdf:about=""><dc:format>image/svg+xml</dc:format><dc:type
           rdf:resource="http://purl.org/dc/dcmitype/StillImage" /><dc:title></dc:title></cc:Work></rdf:RDF></metadata><defs
     id="defs3988" /><g
     transform="matrix(1.25,0,0,-1.25,0,600.99499)"
     id="g3992"><g
       id="g3994"><path
         id="path3996"
         style="fill:#ffffff;fill-opacity:1;fill-rule:nonzero;stroke:none"
         d="m 480.398,240.398 c 0,-132.551 -107.449,-240 -240,-240 -132.55,0 -240,107.449 -240,240 0,132.55 107.45,240 240,240 132.551,0 240,-107.45 240,-240 z" /><path
         id="path3998"
         style="fill:#000000;fill-opacity:1;fill-rule:nonzero;stroke:none"
         d="M 240.398,480.796 C 107.633,480.796 0,373.163 0,240.398 0,107.632 107.633,-0.001 240.398,-0.001 c 132.766,0 240.399,107.633 240.399,240.399 0,132.765 -107.633,240.398 -240.399,240.398 z m 0,-0.398 c 132.551,0 240,-107.45 240,-240 0,-132.551 -107.449,-240 -240,-240 -132.55,0 -240,107.449 -240,240 0,132.55 107.45,240 240,240 z" /><path
         id="path4000"
         style="fill:#c1121c;fill-opacity:1;fill-rule:nonzero;stroke:none"
         d="m 240.398,472.398 c -127.746,0 -232,-104.254 -232,-232 0,-127.747 104.254,-232 232,-232 127.747,0 232,104.253 232,232 0,127.746 -104.253,232 -232,232 z m 0,-64.321 c 92.989,0 167.68,-74.691 167.68,-167.679 0,-92.989 -74.691,-167.68 -167.68,-167.68 -92.988,0 -167.679,74.691 -167.679,167.68 0,92.988 74.691,167.679 167.679,167.679 z" /><path
         id="path4002"
         style="fill:#000000;fill-opacity:1;fill-rule:nonzero;stroke:none"
         d="m 23.832,456.511 0,-0.024 -0.023,0 0.023,0.024 z" /><path
         id="path4004"
         style="fill:#000000;fill-opacity:1;fill-rule:nonzero;stroke:none"
         d="m 23.809,456.511 0.023,0 0,-0.023 -0.023,0 0,0.023 z" /><path
         id="path4006"
         style="fill:#000000;fill-opacity:1;fill-rule:nonzero;stroke:none"
         d="m 23.809,456.487 0,0.024 0.023,-0.024 -0.023,0 z m 0.023,0 -0.023,0.024 0,-0.024 0.023,0 z" /><path
         id="path4008"
         style="fill:#000000;fill-opacity:1;fill-rule:nonzero;stroke:none"
         d="m 23.859,456.487 -0.05,0 0.023,0 0,0.024 0.027,-0.024 z" /><path
         id="path4010"
         style="fill:#000000;fill-opacity:1;fill-rule:nonzero;stroke:none"
         d="m 23.809,456.487 0,0.024 0,-0.024 0.023,0.024 -0.023,-0.024 z" /><path
         id="path4012"
         style="fill:#000000;fill-opacity:1;fill-rule:nonzero;stroke:none"
         d="m 23.809,456.511 0.023,0 0,-0.023 -0.023,0 0,0.023 z" /><path
         id="path4014"
         style="fill:#000000;fill-opacity:1;fill-rule:nonzero;stroke:none"
         d="m 23.859,456.511 0,-0.047 -0.05,0 0.05,0.047 z" /><path
         id="path4016"
         style="fill:#000000;fill-opacity:1;fill-rule:nonzero;stroke:none"
         d="m 23.809,456.511 0.051,0 0,-0.047 -0.051,0 0,0.047 z" /><path
         id="path4018"
         style="fill:#000000;fill-opacity:1;fill-rule:nonzero;stroke:none"
         d="m 23.809,456.464 0,0.047 0.05,-0.047 -0.05,0 z m 0.05,0 -0.05,0.047 0,-0.047 0.05,0 z" /><path
         id="path4020"
         style="fill:#000000;fill-opacity:1;fill-rule:nonzero;stroke:none"
         d="m 23.859,456.464 -0.05,0 0.023,0 0,0.047 0.027,-0.047 z" /><path
         id="path4022"
         style="fill:#000000;fill-opacity:1;fill-rule:nonzero;stroke:none"
         d="m 23.809,456.464 0,0.047 0,-0.047 0.05,0.047 -0.05,-0.047 z" /><path
         id="path4024"
         style="fill:#000000;fill-opacity:1;fill-rule:nonzero;stroke:none"
         d="m 23.809,456.511 0.051,0 0,-0.047 -0.051,0 0,0.047 z" /><path
         id="path4026"
         style="fill:#000000;fill-opacity:1;fill-rule:nonzero;stroke:none"
         d="m 23.859,456.511 0,-0.047 -0.05,0 0.05,0.047 z" /><path
         id="path4028"
         style="fill:#000000;fill-opacity:1;fill-rule:nonzero;stroke:none"
         d="m 23.809,456.511 0.051,0 0,-0.047 -0.051,0 0,0.047 z" /><path
         id="path4030"
         style="fill:#000000;fill-opacity:1;fill-rule:nonzero;stroke:none"
         d="m 23.809,456.464 0,0.047 0.05,-0.047 -0.05,0 z m 0.05,0 -0.05,0.047 0,-0.047 0.05,0 z" /><path
         id="path4032"
         style="fill:#000000;fill-opacity:1;fill-rule:nonzero;stroke:none"
         d="m 23.859,456.464 -0.05,0 0.023,0 0,0.047 0.027,-0.047 z" /><path
         id="path4034"
         style="fill:#000000;fill-opacity:1;fill-rule:nonzero;stroke:none"
         d="m 23.809,456.464 0,0.047 0,-0.047 0.05,0.047 -0.05,-0.047 z" /><path
         id="path4036"
         style="fill:#000000;fill-opacity:1;fill-rule:nonzero;stroke:none"
         d="m 23.809,456.511 0.051,0 0,-0.047 -0.051,0 0,0.047 z" /><path
         id="path4038"
         style="fill:#000000;fill-opacity:1;fill-rule:nonzero;stroke:none"
         d="m 23.859,456.511 0,-0.047 -0.05,0 0.05,0.047 z" /><path
         id="path4040"
         style="fill:#000000;fill-opacity:1;fill-rule:nonzero;stroke:none"
         d="m 23.809,456.511 0.051,0 0,-0.047 -0.051,0 0,0.047 z" /><path
         id="path4042"
         style="fill:#000000;fill-opacity:1;fill-rule:nonzero;stroke:none"
         d="m 23.809,456.464 0,0.047 0.05,-0.047 -0.05,0 z m 0.05,0 -0.05,0.047 0,-0.047 0.05,0 z" /><path
         id="path4044"
         style="fill:#000000;fill-opacity:1;fill-rule:nonzero;stroke:none"
         d="m 23.859,456.464 -0.05,0 0.023,0 0,0.047 0.027,-0.047 z" /><path
         id="path4046"
         style="fill:#000000;fill-opacity:1;fill-rule:nonzero;stroke:none"
         d="m 23.809,456.464 0,0.047 0,-0.047 0.05,0.047 -0.05,-0.047 z" /><path
         id="path4048"
         style="fill:#000000;fill-opacity:1;fill-rule:nonzero;stroke:none"
         d="m 23.809,456.511 0.051,0 0,-0.047 -0.051,0 0,0.047 z" /><path
         id="path4050"
         style="fill:#000000;fill-opacity:1;fill-rule:nonzero;stroke:none"
         d="m 323.844,225.929 c 0,-11.52 -9.356,-20.875 -20.875,-20.875 -11.524,0 -20.875,9.355 -20.875,20.875 0,11.535 9.351,20.875 20.875,20.875 11.519,0 20.875,-9.34 20.875,-20.875 z m -161.012,0 c 0,-11.52 -9.344,-20.875 -20.875,-20.875 -11.523,0 -20.863,9.355 -20.863,20.875 0,11.535 9.34,20.875 20.863,20.875 11.531,0 20.875,-9.34 20.875,-20.875 z m 199.781,26.836 -172.949,0 0,83.488 172.949,0 0,-83.488 z m -17.894,-26.836 -14.903,0 c 0,8.105 -3.671,15.773 -9.984,20.875 l 42.781,0 0,-14.914 -17.894,-5.961 z m -166.989,89.449 0,-68.574 108.36,0 c -6.285,-5.102 -9.957,-12.77 -9.957,-20.875 l -107.344,0 c 0,14.816 -12.004,26.836 -26.832,26.836 -14.82,0 -26.836,-12.02 -26.836,-26.836 l -2.98,0 c -3.297,0 -5.961,2.668 -5.961,5.961 l 0,32.941 c 0,2.86 0.508,5.707 1.511,8.383 l 13.161,35.074 c 0.824,2.207 2.871,3.719 5.207,3.856" /><path
         id="path4052"
         style="fill:#ffffff;fill-opacity:1;fill-rule:nonzero;stroke:none"
         d="m 156.871,275.116 -39.594,-4.652 c -1.636,-0.191 -3.125,0.984 -3.308,2.617 -0.059,0.473 0,0.945 0.168,1.395 l 9.984,26.652 c 0.426,1.105 1.442,1.855 2.617,1.926 l 30.133,1.89" /><path
         id="path4054"
         style="fill:#000000;fill-opacity:1;fill-rule:nonzero;stroke:none"
         d="m 118.195,162.991 28.051,28.035 15.578,0 -21.808,-21.808 42.285,0 0,-12.453 -42.285,0 21.808,-21.821 -15.578,0" /><path
         id="path4056"
         style="fill:#000000;fill-opacity:1;fill-rule:nonzero;stroke:none"
         d="m 374.617,162.991 -28.047,-28.047 -15.578,0 21.821,21.821 -42.297,0 0,12.453 42.297,0 -21.821,21.808 15.578,0" /><path
         id="path4058"
         style="fill:#000000;fill-opacity:1;fill-rule:nonzero;stroke:none"
         d="m 253.188,138.952 0,34.336 6.867,0 0,-3.875 c 4.023,4.977 11.316,5.754 16.297,1.731 0.773,-0.629 1.464,-1.344 2.058,-2.157 4.496,5.512 12.613,6.325 18.125,1.829 2.992,-2.446 4.727,-6.106 4.727,-9.969 l 0,-21.895 -6.871,0 0,21.035 c 0,3.789 -3.078,6.856 -6.871,6.856 -3.79,0 -6.868,-3.067 -6.868,-6.856 l 0,-21.035 -6.859,0 0,21.035 c 0,3.789 -3.09,6.856 -6.879,6.856 -3.793,0 -6.859,-3.067 -6.859,-6.856 l 0,-21.035 -6.867,0 z m -29.868,13.305 c 0,-3.793 3.078,-6.871 6.871,-6.871 3.793,0 6.872,3.078 6.872,6.871 l 0,21.469 c 0,3.789 -3.079,6.855 -6.872,6.855 -3.793,0 -6.871,-3.066 -6.871,-6.855 l 0,-21.469 z m -6.867,0 0,21.469 c 0,7.582 6.152,13.726 13.738,13.726 7.586,0 13.739,-6.144 13.739,-13.726 l 0,-21.469 c 0,-7.586 -6.153,-13.738 -13.739,-13.738 -7.586,0 -13.738,6.152 -13.738,13.738 z m -24.898,22.328 0,7.293 6.871,5.148 6.867,0 0,-48.074 -6.867,0 0,40.781" /></g></g></svg>