<?xml version="1.0" encoding="UTF-8" standalone="no"?>
<svg xmlns="http://www.w3.org/2000/svg" xmlns:xlink="http://www.w3.org/1999/xlink" xml:space="preserve" width="600.99628" height="600.99628">
  <defs>
    <path id="a" d="M23.809 456.512h.051v-.047h-.051v.047z"/>
    <path id="b" d="M23.809 456.465v.047l.05-.047h-.05zm.05 0-.05.047v-.047h.05z"/>
    <path id="c" d="M23.859 456.465h-.05.023v.047l.027-.047z"/>
    <path id="d" d="M23.809 456.465v.047-.047l.05.047-.05-.047z"/>
    <path id="e" d="M23.859 456.512v-.047h-.05l.05.047z"/>
  </defs>
  <g transform="matrix(1.25 0 0 -1.25 0 600.99628)">
    <path fill="#fff" d="M480.398 240.399c0-132.551-107.449-240-240-240-132.55 0-240 107.449-240 240 0 132.55 107.45 240 240 240 132.551 0 240-107.45 240-240z"/>
    <path fill="#c1121c" d="M240.402 472.402c-127.75 0-232-104.25-232-232s104.25-232 232-232c127.746 0 232 104.25 232 232s-104.254 232-232 232zm-208-196h416v-72h-416v72z"/>
    <path d="M240.398 480.797C107.633 480.797 0 373.164 0 240.399 0 107.633 107.633 0 240.398 0c132.766 0 240.399 107.633 240.399 240.399 0 132.765-107.633 240.398-240.399 240.398zm0-.398c132.551 0 240-107.45 240-240 0-132.551-107.449-240-240-240-132.55 0-240 107.449-240 240 0 132.55 107.45 240 240 240zM23.832 456.512v-.024h-.023l.023.024z"/>
    <path d="M23.809 456.512h.023v-.023h-.023v.023z"/>
    <path d="M23.809 456.488v.024l.023-.024h-.023zm.023 0-.023.024v-.024h.023z"/>
    <path d="M23.859 456.488h-.05.023v.024l.027-.024z"/>
    <path d="M23.809 456.488v.024-.024l.023.024-.023-.024z"/>
    <path d="M23.809 456.512h.023v-.023h-.023v.023zm.05 0v-.047h-.05l.05.047z"/>
    <use xlink:href="#a"/>
    <use xlink:href="#b"/>
    <use xlink:href="#c"/>
    <use xlink:href="#d"/>
    <use xlink:href="#a"/>
    <use xlink:href="#e"/>
    <use xlink:href="#a"/>
    <use xlink:href="#b"/>
    <use xlink:href="#c"/>
    <use xlink:href="#d"/>
    <use xlink:href="#a"/>
    <use xlink:href="#e"/>
    <use xlink:href="#a"/>
    <use xlink:href="#b"/>
    <use xlink:href="#c"/>
    <use xlink:href="#d"/>
    <use xlink:href="#a"/>
  </g>
</svg>