<?xml version="1.0" encoding="UTF-8" standalone="no"?>
<svg
   xmlns:dc="http://purl.org/dc/elements/1.1/"
   xmlns:cc="http://creativecommons.org/ns#"
   xmlns:rdf="http://www.w3.org/1999/02/22-rdf-syntax-ns#"
   xmlns:svg="http://www.w3.org/2000/svg"
   xmlns="http://www.w3.org/2000/svg"
   viewBox="0 0 600 330"
   height="330"
   width="600"
   xml:space="preserve"
   version="1.1"
   id="svg5758"><metadata
     id="metadata5764"><rdf:RDF><cc:Work
         rdf:about=""><dc:format>image/svg+xml</dc:format><dc:type
           rdf:resource="http://purl.org/dc/dcmitype/StillImage" /><dc:title></dc:title></cc:Work></rdf:RDF></metadata><defs
     id="defs5762"><clipPath
       id="clipPath5776"
       clipPathUnits="userSpaceOnUse"><path
         id="path5778"
         d="M 0,0 480,0 480,264 0,264 0,0 Z" /></clipPath></defs><g
     transform="matrix(1.25,0,0,-1.25,0,330)"
     id="g5766"><g
       id="g5768"><g
         id="g5770"><g
           id="g5772"><g
             clip-path="url(#clipPath5776)"
             id="g5774"><g
               id="g5780"><path
                 id="path5782"
                 style="fill:#ffffff;fill-opacity:1;fill-rule:nonzero;stroke:none"
                 d="m 31.996,263.758 c -17.512,0 -31.754,-14.25 -31.754,-31.766 l 0,-199.996 C 0.242,14.484 14.484,0.242 31.996,0.242 l 416.008,0 c 17.512,0 31.754,14.242 31.754,31.754 l 0,199.996 c 0,17.516 -14.242,31.766 -31.754,31.766" /><path
                 id="path5784"
                 style="fill:#000000;fill-opacity:1;fill-rule:nonzero;stroke:none"
                 d="M 31.996,0.469 C 14.613,0.469 0.48,14.613 0.48,31.996 l 0,199.996 c 0,17.383 14.133,31.528 31.516,31.528 l 416.008,0 c 17.383,0 31.516,-14.145 31.516,-31.528 l 0,-199.996 c 0,-17.383 -14.133,-31.527 -31.516,-31.527 l -416.008,0 z M 448.004,264 31.996,264 C 14.32,264 0,249.672 0,231.992 L 0,31.996 C 0,14.328 14.32,0 31.996,0 L 448.004,0 C 465.672,0 480,14.328 480,31.996 l 0,199.996 C 480,249.672 465.672,264 448.004,264" /></g></g></g></g><path
         id="path5786"
         style="fill:#000000;fill-opacity:1;fill-rule:nonzero;stroke:none"
         d="m 31.996,19.996 416.008,0 c 6.629,0 12,5.371 12,12 l 0,199.996 c 0,6.629 -5.371,12 -12,12 l -416.008,0 c -6.629,0 -12,-5.371 -12,-12 l 0,-199.996 c 0,-6.629 5.371,-12 12,-12 z m 0,-12 c -13.258,0 -24,10.742 -24,24 l 0,199.996 c 0,13.258 10.742,24 24,24 l 416.008,0 c 13.258,0 24,-10.742 24,-24 l 0,-199.996 c 0,-13.258 -10.742,-24 -24,-24" /><path
         id="path5788"
         style="fill:#000000;fill-opacity:1;fill-rule:nonzero;stroke:none"
         d="m 371.398,146.395 0,48 9.606,0 0,-5.415 c 5.621,6.958 15.828,8.04 22.773,2.418 0.008,-0.007 0.02,-0.007 0.035,-0.007 l -6.824,-8.422 c -3.961,3.531 -10.031,3.172 -13.554,-0.789 -1.563,-1.75 -2.43,-4.028 -2.43,-6.379 l 0,-29.403 -9.602,0 -0.004,-0.003 z m -52.793,0 0,67.199 43.2,0 0,-9.594 -33.004,0 0,-19.801 28.203,0 0,-9 -28.203,0 0,-28.804 -10.196,0 z m -25.203,-7.196 0,16.801 9.594,0 0,-9.605 -9.594,-7.196 z m -39.597,26.395 c 0,-5.633 4.562,-10.196 10.195,-10.196 5.633,0 10.207,4.563 10.207,10.196 l 0,9.605 c 0,5.633 -4.574,10.196 -10.207,10.196 -5.633,0 -10.195,-4.563 -10.195,-10.196 l 0,-9.605 z m -9.606,0 0,9.605 c 0,10.938 8.871,19.797 19.801,19.797 10.938,0 19.801,-8.859 19.801,-19.797 l 0,-9.605 c 0,-10.93 -8.863,-19.801 -19.801,-19.801 -10.93,0 -19.801,8.871 -19.801,19.801 z M 194.406,156 l 13.793,0 c 7.625,0 13.805,6.18 13.805,13.793 l 0,20.402 c 0,7.625 -6.18,13.805 -13.805,13.805 l -13.793,0 0,-48 z m -10.207,-9.605 0,67.199 24,0 c 13.258,0 24,-10.742 24,-24 l 0,-19.199 c 0,-13.258 -10.742,-24 -24,-24 l -24,0 z m -25.203,-7.196 0,16.801 9.606,0 0,-9.605 -9.606,-7.196 z m -12,64.801 -9.594,0 0,9.594 9.594,0 0,-9.594 z m 0,-57.605 -9.594,0 0,48 9.594,0 0,-48 z M 86.395,156 l 13.804,0 c 7.625,0 13.805,6.18 13.805,13.793 l 0,20.402 c 0,7.625 -6.18,13.805 -13.805,13.805 l -13.804,0 0,-48 z m -10.196,-9.605 0,67.199 24,0 c 13.258,0 24,-10.742 24,-24 l 0,-19.199 c 0,-13.258 -10.742,-24 -24,-24" /><path
         id="path5790"
         style="fill:#000000;fill-opacity:1;fill-rule:nonzero;stroke:none"
         d="m 360.602,97.793 c -4.965,2.648 -11.149,0.777 -13.793,-4.199 l 0,24 -9.606,0 0,-67.199 9.606,0 0,34.195 c 0,2.66 2.144,4.805 4.789,4.805 2.66,0 4.804,-2.145 4.804,-4.805 l 0,-34.195 9.602,0 0,38.398 c 0,3.773 -2.078,7.23 -5.402,9 z m -64.2,-38.395 c -5.964,0 -10.797,4.836 -10.797,10.797 0,5.973 4.833,10.797 10.797,10.797 5.961,0 10.797,-4.824 10.797,-10.797 0,-5.961 -4.836,-10.797 -10.797,-10.797 z m 0,49.192 c 5.305,0 9.602,-4.285 9.602,-9.594 0,-5.305 -4.297,-9.601 -9.602,-9.601 -5.297,0 -9.593,4.296 -9.593,9.601 0,5.309 4.296,9.594 9.593,9.594 z m 12.59,-23.242 c 4.18,3.3 6.606,8.324 6.606,13.648 0,10.602 -8.586,19.199 -19.196,19.199 -10.601,0 -19.199,-8.597 -19.199,-19.199 0,-5.324 2.43,-10.348 6.606,-13.648 C 278.91,81.855 276,76.211 276,70.195 c 0,-11.265 9.133,-20.402 20.402,-20.402 11.266,0 20.399,9.137 20.399,20.402 0,6.016 -2.91,11.66 -7.809,15.153 z m -67.789,25.047 0,-10.196 9.606,7.199 0,-57.003 9.593,0 0,67.199 -9.593,0 -9.606,-7.199 z M 201.605,72 l 28.801,0 0,9.594 -28.801,0 0,-9.594 z m -24,-2.996 c 0,-5.305 -4.3,-9.606 -9.605,-9.606 -5.305,0 -9.594,4.301 -9.594,9.606 l 0,2.996 c 0,5.305 4.289,9.594 9.594,9.594 5.305,0 9.605,-4.289 9.605,-9.594 l 0,-2.996 z m -11.945,19.82 14.34,28.77 -10.797,0 -18.398,-37.063 C 149.492,77.875 148.801,74.965 148.801,72 l 0,-2.996 c 0,-10.613 8.597,-19.211 19.199,-19.211 10.602,0 19.199,8.598 19.199,19.211 l 0,5.391 c 0,2.046 -0.394,4.058 -1.172,5.941 -3.281,7.965 -12.406,11.769 -20.367,8.488 z m -51.656,21.571 0,-10.196 9.594,7.199 0,-57.003 9.605,0 0,67.199 -9.605,0" /></g></g></svg>