<?xml version="1.0" encoding="UTF-8" standalone="no"?>
<svg
   xmlns:dc="http://purl.org/dc/elements/1.1/"
   xmlns:cc="http://creativecommons.org/ns#"
   xmlns:rdf="http://www.w3.org/1999/02/22-rdf-syntax-ns#"
   xmlns:svg="http://www.w3.org/2000/svg"
   xmlns="http://www.w3.org/2000/svg"
   viewBox="0 0 601 450.99997"
   height="450.99997"
   width="601"
   xml:space="preserve"
   version="1.1"
   id="svg22651"><metadata
     id="metadata22657"><rdf:RDF><cc:Work
         rdf:about=""><dc:format>image/svg+xml</dc:format><dc:type
           rdf:resource="http://purl.org/dc/dcmitype/StillImage" /><dc:title></dc:title></cc:Work></rdf:RDF></metadata><defs
     id="defs22655"><clipPath
       id="clipPath22675"
       clipPathUnits="userSpaceOnUse"><path
         id="path22677"
         d="m 66,56 349,0 0,249 -349,0 0,-249 z" /></clipPath></defs><g
     transform="matrix(1.25,0,0,-1.25,0,450.99998)"
     id="g22659"><g
       id="g22661"><path
         id="path22663"
         style="fill:#ffffff;fill-opacity:1;fill-rule:nonzero;stroke:none"
         d="m 32.184,360.402 c -17.52,0 -31.786,-14.266 -31.786,-31.797 l 0,-296.414 C 0.398,14.663 14.664,0.402 32.184,0.402 l 416.418,0 c 17.535,0 31.796,14.261 31.796,31.789 l 0,296.414 c 0,17.531 -14.261,31.797 -31.796,31.797 l -416.418,0 z" /><path
         id="path22665"
         style="fill:#000000;fill-opacity:1;fill-rule:nonzero;stroke:none"
         d="m 32.184,352.632 c -13.262,0 -24.016,-10.758 -24.016,-24.027 l 0,-296.414 C 8.168,18.925 18.922,8.163 32.184,8.163 l 416.418,0 c 13.265,0 24.027,10.762 24.027,24.028 l 0,296.414 c 0,13.269 -10.762,24.027 -24.027,24.027 l -416.418,0 z m 0,-12.02 416.418,0 c 6.636,0 12.015,-5.375 12.015,-12.007 l 0,-296.414 c 0,-6.641 -5.379,-12.008 -12.015,-12.008 l -416.418,0 c -6.622,0 -12.008,5.367 -12.008,12.008 l 0,296.414 c 0,6.632 5.386,12.007 12.008,12.007 z" /><path
         id="path22667"
         style="fill:#000000;fill-opacity:1;fill-rule:nonzero;stroke:none"
         d="M 32.184,360.8 C 14.445,360.8 0,346.355 0,328.605 L 0,32.191 C 0,14.448 14.445,-0.001 32.184,-0.001 l 416.418,0 c 17.75,0 32.199,14.449 32.199,32.192 l 0,296.414 c 0,17.75 -14.449,32.195 -32.199,32.195 l -416.418,0 z m 0,-0.398 416.418,0 c 17.535,0 31.796,-14.266 31.796,-31.797 l 0,-296.414 c 0,-17.524 -14.261,-31.789 -31.796,-31.789 l -416.418,0 c -17.52,0 -31.786,14.265 -31.786,31.789 l 0,296.414 c 0,17.531 14.266,31.797 31.786,31.797 z" /><g
         transform="translate(0,-0.200012)"
         id="g22669"><g
           id="g22671"><g
             clip-path="url(#clipPath22675)"
             id="g22673"><g
               id="g22679"><path
                 id="path22681"
                 style="fill:#000000;fill-opacity:1;fill-rule:nonzero;stroke:none"
                 d="m 100.801,242.668 0,61.801 8.816,0 0,-52.969 17.613,0 0,-8.832 -26.429,0 z" /><path
                 id="path22683"
                 style="fill:#000000;fill-opacity:1;fill-rule:nonzero;stroke:none"
                 d="m 158.07,242.668 -8.8,0 0,4.41 c -2.434,-4.57 -8.118,-6.293 -12.68,-3.855 -3.043,1.621 -4.953,4.816 -4.953,8.277 l 0,6.613 c 0,6.106 4.941,11.039 11.015,11.039 l 6.618,0 0,4.965 c 0,2.438 -1.985,4.422 -4.418,4.422 -2.43,0 -4.399,-1.984 -4.399,-4.422 l -8.816,0 c 0,7.313 5.918,13.238 13.215,13.238 7.3,0 13.218,-5.925 13.218,-13.238 l 0,-31.449 z m -8.8,19.316 -4.418,0 c -2.43,0 -4.399,-1.988 -4.399,-4.425 l 0,-2.204 c 0,-2.437 1.969,-4.41 4.399,-4.41 2.433,0 4.418,1.973 4.418,4.41 l 0,6.629 z" /><path
                 id="path22685"
                 style="fill:#000000;fill-opacity:1;fill-rule:nonzero;stroke:none"
                 d="m 166.883,242.668 0,44.133 8.812,0 0,-4.406 c 2.434,4.566 8.102,6.304 12.664,3.867 3.047,-1.637 4.953,-4.817 4.953,-8.278 l 0,-35.316 -8.816,0 0,31.449 c 0,2.438 -1.965,4.422 -4.398,4.422 -2.434,0 -4.403,-1.984 -4.403,-4.422 l 0,-31.449 -8.812,0 z" /><path
                 id="path22687"
                 style="fill:#000000;fill-opacity:1;fill-rule:nonzero;stroke:none"
                 d="m 227.457,242.668 -8.816,0 0,4.41 c -2.434,-4.57 -8.102,-6.293 -12.661,-3.855 -3.046,1.621 -4.957,4.816 -4.957,8.277 l 0,26.484 c 0,5.184 4.2,9.371 9.356,9.371 3.469,0 6.644,-1.91 8.262,-4.96 l 0,22.074 8.816,0 0,-61.801 z m -8.816,12.687 0,18.762 c 0,2.438 -1.965,4.422 -4.399,4.422 -2.433,0 -4.402,-1.984 -4.402,-4.422 l 0,-18.762 c 0,-2.437 1.969,-4.41 4.402,-4.41 2.434,0 4.399,1.973 4.399,4.41" /><path
                 id="path22689"
                 style="fill:#000000;fill-opacity:1;fill-rule:nonzero;stroke:none"
                 d="m 243.426,242.668 -10.461,44.133 9.355,0 5.508,-27.578 4.953,27.578 6.617,0 4.954,-27.578 5.507,27.578 9.356,0 -10.465,-44.133 -7.707,0 -4.953,26.484 -4.957,-26.484 -7.707,0 z" /><path
                 id="path22691"
                 style="fill:#000000;fill-opacity:1;fill-rule:nonzero;stroke:none"
                 d="m 284.73,286.805 8.817,0 0,-44.133 -8.817,0 0,44.133 z m 0,17.652 8.817,0 0,-8.832 -8.817,0 0,8.832 z" /><path
                 id="path22693"
                 style="fill:#000000;fill-opacity:1;fill-rule:nonzero;stroke:none"
                 d="m 302.348,242.668 0,44.133 8.816,0 0,-4.977 c 2.813,3.504 7.066,5.531 11.555,5.531 l 0,-9.269 c -4.621,1.535 -9.602,-0.992 -11.117,-5.621 -0.293,-0.891 -0.438,-1.824 -0.438,-2.758 l 0,-27.039 -8.816,0 z" /><path
                 id="path22695"
                 style="fill:#000000;fill-opacity:1;fill-rule:nonzero;stroke:none"
                 d="m 345.852,242.668 -4.399,0 c -5.48,0 -9.926,4.453 -9.926,9.93 l 0,27.035 -4.398,0 0,7.168 4.398,0 0,13.242 8.817,0 0,-13.242 5.508,0 0,-7.168 -5.508,0 0,-25.926 c 0,-1.519 1.238,-2.762 2.754,-2.762 l 2.754,0 0,-8.277 z" /><path
                 id="path22697"
                 style="fill:#000000;fill-opacity:1;fill-rule:nonzero;stroke:none"
                 d="m 353.566,271.359 26.434,0 0,-8.832 -26.434,0 0,8.832 z" /><path
                 id="path22699"
                 style="fill:#000000;fill-opacity:1;fill-rule:nonzero;stroke:none"
                 d="m 71.062,162.668 8.262,0 c 0,-2.746 2.215,-4.965 4.957,-4.965 2.739,0 4.953,2.219 4.953,4.965 0,1.973 -1.152,3.738 -2.945,4.539 l -7.137,2.613 c -6.398,2.832 -9.285,10.336 -6.457,16.746 2.844,6.411 10.317,9.301 16.715,6.454 4.574,-2.028 7.531,-6.571 7.531,-11.59 l -8.261,0 c 0,2.437 -1.965,4.406 -4.399,4.406 -2.433,0 -4.402,-1.969 -4.402,-4.406 0,-1.754 1.019,-3.328 2.625,-4.047 l 7.125,-2.613 c 6.672,-2.961 9.687,-10.79 6.73,-17.473 -2.957,-6.688 -10.754,-9.695 -17.425,-6.731 -4.797,2.118 -7.872,6.86 -7.872,12.102" /><path
                 id="path22701"
                 style="fill:#000000;fill-opacity:1;fill-rule:nonzero;stroke:none"
                 d="m 129.434,163.219 0,-0.555 c 0,-7.316 -5.914,-13.242 -13.215,-13.242 -7.301,0 -13.219,5.926 -13.219,13.242 l 0,18.762 c 0,7.312 5.918,13.238 13.219,13.238 7.301,0 13.215,-5.926 13.215,-13.238 l 0,-0.559 -8.817,0 0,0.559 c 0,2.437 -1.965,4.406 -4.398,4.406 -2.434,0 -4.403,-1.969 -4.403,-4.406 l 0,-18.762 c 0,-2.437 1.969,-4.41 4.403,-4.41 2.433,0 4.398,1.973 4.398,4.41 l 0,0.555 8.817,0 z" /><path
                 id="path22703"
                 style="fill:#000000;fill-opacity:1;fill-rule:nonzero;stroke:none"
                 d="m 134.941,149.977 0,61.8 8.817,0 0,-22.074 c 2.433,4.567 8.101,6.305 12.664,3.867 3.043,-1.636 4.953,-4.816 4.953,-8.277 l 0,-35.316 -8.816,0 0,31.449 c 0,2.437 -1.969,4.406 -4.399,4.406 -2.433,0 -4.402,-1.969 -4.402,-4.406 l 0,-31.449 -8.817,0 z" /><path
                 id="path22705"
                 style="fill:#000000;fill-opacity:1;fill-rule:nonzero;stroke:none"
                 d="m 195.516,149.977 -8.817,0 0,4.41 c -2.433,-4.571 -8.101,-6.293 -12.66,-3.856 -3.047,1.621 -4.957,4.805 -4.957,8.278 l 0,6.613 c 0,6.105 4.926,11.039 11.016,11.039 l 6.601,0 0,4.965 c 0,2.437 -1.965,4.406 -4.398,4.406 -2.434,0 -4.403,-1.969 -4.403,-4.406 l -8.816,0 c 0,7.312 5.918,13.238 13.219,13.238 7.297,0 13.215,-5.926 13.215,-13.238 l 0,-31.449 z m -8.817,19.316 -4.398,0 c -2.434,0 -4.403,-1.988 -4.403,-4.426 l 0,-2.203 c 0,-2.437 1.969,-4.41 4.403,-4.41 2.433,0 4.398,1.973 4.398,4.41 l 0,6.629 z" /><path
                 id="path22707"
                 style="fill:#000000;fill-opacity:1;fill-rule:nonzero;stroke:none"
                 d="m 205.43,149.977 0,36.964 -4.403,0 0,7.168 4.403,0 0,6.629 c 0,6.09 4.925,11.039 11.015,11.039 l 4.403,0 0,-8.277 -3.848,0 c -1.531,0 -2.754,-1.242 -2.754,-2.762 l 0,-6.629 6.602,0 0,-7.168 -6.602,0 0,-36.964 -8.816,0 z" /><path
                 id="path22709"
                 style="fill:#000000;fill-opacity:1;fill-rule:nonzero;stroke:none"
                 d="m 243.977,149.977 -4.403,0 c -5.476,0 -9.906,4.453 -9.906,9.929 l 0,27.035 -4.418,0 0,7.168 4.418,0 0,13.243 8.801,0 0,-13.243 5.508,0 0,-7.168 -5.508,0 0,-25.925 c 0,-1.52 1.238,-2.762 2.754,-2.762 l 2.754,0 0,-8.277 z" /><path
                 id="path22711"
                 style="fill:#000000;fill-opacity:1;fill-rule:nonzero;stroke:none"
                 d="m 263.801,149.977 -3.309,0 c -5.476,0 -9.906,4.453 -9.906,9.929 l 0,51.871 8.816,0 0,-50.761 c 0,-1.52 1.223,-2.762 2.754,-2.762 l 1.645,0 0,-8.277 z" /><path
                 id="path22713"
                 style="fill:#000000;fill-opacity:1;fill-rule:nonzero;stroke:none"
                 d="m 271.516,194.113 8.812,0 0,-44.133 -8.812,0 0,44.133 z m 0,17.653 8.812,0 0,-8.832 -8.812,0 0,8.832 z" /><path
                 id="path22715"
                 style="fill:#000000;fill-opacity:1;fill-rule:nonzero;stroke:none"
                 d="m 315.566,163.219 0,-0.555 c 0,-7.316 -5.914,-13.242 -13.214,-13.242 -7.301,0 -13.219,5.926 -13.219,13.242 l 0,18.762 c 0,7.312 5.918,13.238 13.219,13.238 7.3,0 13.214,-5.926 13.214,-13.238 l 0,-0.559 -8.816,0 0,0.559 c 0,2.437 -1.965,4.406 -4.398,4.406 -2.434,0 -4.403,-1.969 -4.403,-4.406 l 0,-18.762 c 0,-2.437 1.969,-4.41 4.403,-4.41 2.433,0 4.398,1.973 4.398,4.41 l 0,0.555 8.816,0 z" /><path
                 id="path22717"
                 style="fill:#000000;fill-opacity:1;fill-rule:nonzero;stroke:none"
                 d="m 321.07,149.977 0,61.8 8.817,0 0,-22.074 c 2.433,4.567 8.101,6.305 12.66,3.867 3.047,-1.636 4.957,-4.816 4.957,-8.277 l 0,-35.316 -8.816,0 0,31.449 c 0,2.437 -1.969,4.406 -4.403,4.406 -2.433,0 -4.398,-1.969 -4.398,-4.406 l 0,-31.449 -8.817,0 z" /><path
                 id="path22719"
                 style="fill:#000000;fill-opacity:1;fill-rule:nonzero;stroke:none"
                 d="m 381.648,162.668 c 0,-7.313 -5.918,-13.242 -13.218,-13.242 -7.301,0 -13.215,5.929 -13.215,13.242 l 0,18.762 c 0,7.312 5.914,13.242 13.215,13.242 7.3,0 13.218,-5.93 13.218,-13.242 l 0,-12.688 -17.617,0 0,-6.074 c 0,-2.438 1.965,-4.41 4.399,-4.41 2.433,0 4.402,1.972 4.402,4.41 l 8.816,0 z m -17.617,13.242 8.801,0 0,5.52 c 0,2.437 -1.969,4.406 -4.402,4.406 -2.434,0 -4.399,-1.969 -4.399,-4.406 l 0,-5.52 z" /><path
                 id="path22721"
                 style="fill:#000000;fill-opacity:1;fill-rule:nonzero;stroke:none"
                 d="m 389.355,149.977 0,44.132 8.817,0 0,-4.976 c 2.812,3.504 7.066,5.531 11.555,5.531 l 0,-9.269 c -4.618,1.535 -9.602,-0.993 -11.118,-5.622 -0.293,-0.89 -0.437,-1.824 -0.437,-2.757 l 0,-27.039 -8.817,0 z" /><path
                 id="path22723"
                 style="fill:#000000;fill-opacity:1;fill-rule:nonzero;stroke:none"
                 d="m 79.324,57.285 -12.664,61.801 9.356,0 7.168,-43.039 7.156,43.039 9.355,0 -12.664,-61.801 -7.707,0 z" /><path
                 id="path22725"
                 style="fill:#000000;fill-opacity:1;fill-rule:nonzero;stroke:none"
                 d="m 128.332,69.977 c 0,-7.317 -5.914,-13.243 -13.215,-13.243 -7.301,0 -13.215,5.926 -13.215,13.243 l 0,18.757 c 0,7.317 5.914,13.243 13.215,13.243 7.301,0 13.215,-5.926 13.215,-13.243 l 0,-12.687 -17.613,0 0,-6.07 c 0,-2.442 1.965,-4.411 4.398,-4.411 2.434,0 4.403,1.969 4.403,4.411 l 8.812,0 z m -17.613,13.242 8.801,0 0,5.515 c 0,2.438 -1.969,4.411 -4.403,4.411 -2.433,0 -4.398,-1.973 -4.398,-4.411 l 0,-5.515 z" /><path
                 id="path22727"
                 style="fill:#000000;fill-opacity:1;fill-rule:nonzero;stroke:none"
                 d="m 136.043,57.285 0,44.133 8.816,0 0,-4.977 c 2.813,3.504 7.067,5.532 11.555,5.532 l 0,-9.27 c -4.617,1.535 -9.602,-0.992 -11.117,-5.621 -0.293,-0.891 -0.438,-1.824 -0.438,-2.758 l 0,-27.039 -8.816,0 z" /><path
                 id="path22729"
                 style="fill:#000000;fill-opacity:1;fill-rule:nonzero;stroke:none"
                 d="m 161.926,57.285 0,61.801 8.816,0 0,-36.969 11.016,19.301 8.801,0 -10.461,-17.648 12.66,-26.485 -9.906,0 -7.711,18.762 -4.399,-6.629 0,-12.133 -8.816,0 z" /><path
                 id="path22731"
                 style="fill:#000000;fill-opacity:1;fill-rule:nonzero;stroke:none"
                 d="m 222.5,69.977 c 0,-7.317 -5.918,-13.243 -13.219,-13.243 -7.301,0 -13.215,5.926 -13.215,13.243 l 0,18.757 c 0,7.317 5.914,13.243 13.215,13.243 7.301,0 13.219,-5.926 13.219,-13.243 l 0,-12.687 -17.617,0 0,-6.07 c 0,-2.442 1.965,-4.411 4.398,-4.411 2.434,0 4.403,1.969 4.403,4.411 l 8.816,0 z m -17.617,13.242 8.801,0 0,5.515 c 0,2.438 -1.969,4.411 -4.403,4.411 -2.433,0 -4.398,-1.973 -4.398,-4.411 l 0,-5.515 z" /><path
                 id="path22733"
                 style="fill:#000000;fill-opacity:1;fill-rule:nonzero;stroke:none"
                 d="m 230.211,57.285 0,61.801 8.816,0 0,-22.074 c 2.434,4.566 8.102,6.304 12.661,3.867 3.046,-1.637 4.953,-4.817 4.953,-8.277 l 0,-35.317 -8.813,0 0,31.449 c 0,2.438 -1.969,4.407 -4.402,4.407 -2.434,0 -4.399,-1.969 -4.399,-4.407 l 0,-31.449 -8.816,0 z" /><path
                 id="path22735"
                 style="fill:#000000;fill-opacity:1;fill-rule:nonzero;stroke:none"
                 d="m 265.453,57.285 0,44.133 8.817,0 0,-4.977 c 2.812,3.504 7.066,5.532 11.554,5.532 l 0,-9.27 c -4.621,1.535 -9.601,-0.992 -11.117,-5.621 -0.293,-0.891 -0.437,-1.824 -0.437,-2.758 l 0,-27.039 -8.817,0 z" /><path
                 id="path22737"
                 style="fill:#000000;fill-opacity:1;fill-rule:nonzero;stroke:none"
                 d="m 325.477,57.285 0,36.965 -4.399,0 0,7.168 4.399,0 0,6.629 c 0,6.09 4.925,11.039 11.015,11.039 l 4.403,0 0,-8.277 -3.848,0 c -1.527,0 -2.754,-1.243 -2.754,-2.762 l 0,-6.629 6.602,0 0,-7.168 -6.602,0 0,-36.965 -8.816,0 z" /><path
                 id="path22739"
                 style="fill:#000000;fill-opacity:1;fill-rule:nonzero;stroke:none"
                 d="m 347.504,57.285 0,44.133 8.816,0 0,-4.977 c 2.813,3.504 7.067,5.532 11.555,5.532 l 0,-9.27 c -4.617,1.535 -9.602,-0.992 -11.117,-5.621 -0.289,-0.891 -0.438,-1.824 -0.438,-2.758 l 0,-27.039 -8.816,0 z" /><path
                 id="path22741"
                 style="fill:#000000;fill-opacity:1;fill-rule:nonzero;stroke:none"
                 d="m 397.613,69.977 c 0,-7.317 -5.914,-13.243 -13.215,-13.243 -7.3,0 -13.218,5.926 -13.218,13.243 l 0,18.757 c 0,7.317 5.918,13.243 13.218,13.243 7.301,0 13.215,-5.926 13.215,-13.243 l 0,-12.687 -17.617,0 0,-6.07 c 0,-2.442 1.969,-4.411 4.402,-4.411 2.434,0 4.399,1.969 4.399,4.411 l 8.816,0 z m -17.617,13.242 8.801,0 0,5.515 c 0,2.438 -1.965,4.411 -4.399,4.411 -2.433,0 -4.402,-1.973 -4.402,-4.411 l 0,-5.515 z" /><path
                 id="path22743"
                 style="fill:#000000;fill-opacity:1;fill-rule:nonzero;stroke:none"
                 d="m 405.324,101.422 8.817,0 0,-44.133 -8.817,0 0,44.133 z m 0,17.652 8.817,0 0,-8.832 -8.817,0 0,8.832 z" /></g></g></g></g></g></g></svg>