<?xml version="1.0" encoding="UTF-8" standalone="no"?>
<svg
   xmlns:dc="http://purl.org/dc/elements/1.1/"
   xmlns:cc="http://creativecommons.org/ns#"
   xmlns:rdf="http://www.w3.org/1999/02/22-rdf-syntax-ns#"
   xmlns:svg="http://www.w3.org/2000/svg"
   xmlns="http://www.w3.org/2000/svg"
   viewBox="0 0 600.995 600.995"
   height="600.995"
   width="600.995"
   xml:space="preserve"
   version="1.1"
   id="svg6189"><metadata
     id="metadata6195"><rdf:RDF><cc:Work
         rdf:about=""><dc:format>image/svg+xml</dc:format><dc:type
           rdf:resource="http://purl.org/dc/dcmitype/StillImage" /><dc:title></dc:title></cc:Work></rdf:RDF></metadata><defs
     id="defs6193" /><g
     transform="matrix(1.25,0,0,-1.25,0,600.99499)"
     id="g6197"><g
       id="g6199"><path
         id="path6201"
         style="fill:#ffffff;fill-opacity:1;fill-rule:nonzero;stroke:none"
         d="m 480.398,240.398 c 0,-132.551 -107.449,-240 -240,-240 -132.55,0 -240,107.449 -240,240 0,132.55 107.45,240 240,240 132.551,0 240,-107.45 240,-240 z" /><path
         id="path6203"
         style="fill:#000000;fill-opacity:1;fill-rule:nonzero;stroke:none"
         d="M 240.398,480.796 C 107.633,480.796 0,373.163 0,240.398 0,107.632 107.633,-0.001 240.398,-0.001 c 132.766,0 240.399,107.633 240.399,240.399 0,132.765 -107.633,240.398 -240.399,240.398 z m 0,-0.398 c 132.551,0 240,-107.45 240,-240 0,-132.551 -107.449,-240 -240,-240 -132.55,0 -240,107.449 -240,240 0,132.55 107.45,240 240,240 z" /><path
         id="path6205"
         style="fill:#c1121c;fill-opacity:1;fill-rule:nonzero;stroke:none"
         d="m 240.398,472.398 c -127.746,0 -232,-104.254 -232,-232 0,-127.747 104.254,-232 232,-232 127.747,0 232,104.253 232,232 0,127.746 -104.253,232 -232,232 z m 0,-64.321 c 92.989,0 167.68,-74.691 167.68,-167.679 0,-92.989 -74.691,-167.68 -167.68,-167.68 -92.988,0 -167.679,74.691 -167.679,167.68 0,92.988 74.691,167.679 167.679,167.679 z" /><path
         id="path6207"
         style="fill:#c1121c;fill-opacity:1;fill-rule:nonzero;stroke:none"
         d="m 123.008,291.675 c -3.199,0 -6.07,-1.891 -7.356,-4.809 L 102.98,257.73 c -0.898,-2.047 -2.023,-4 -3.367,-5.805 l -1.925,-2.555 c -1.25,-1.672 -1.93,-3.695 -1.93,-5.769 l 0,-20.836 c 0,-4.422 3.586,-8.008 8.008,-8.008 l 118.609,0 c 4.422,0 8.012,3.586 8.012,8.008 l 0,20.836 c 0,2.074 -0.68,4.097 -1.926,5.769 l -1.93,2.555 c -1.343,1.805 -2.469,3.758 -3.367,5.805 l -12.672,29.136 c -1.273,2.918 -4.168,4.809 -7.355,4.809 l -80.129,0 z m 1.937,-8.008 76.254,0 c 1.274,0 2.438,-0.75 2.946,-1.926 l 11.011,-25.32 -104.168,0 11.012,25.32 c 0.512,1.176 1.66,1.926 2.945,1.926 z" /><path
         id="path6209"
         style="fill:#c1121c;fill-opacity:1;fill-rule:nonzero;stroke:none"
         d="m 203.137,211.546 19.242,0 0,-17.629 c 0,-2.652 -2.16,-4.809 -4.813,-4.809 l -9.617,0 c -2.656,0 -4.812,2.157 -4.812,4.809 l 0,17.629 z m -99.367,0 19.238,0 0,-17.629 c 0,-2.652 -2.156,-4.809 -4.809,-4.809 l -9.621,0 c -2.652,0 -4.808,2.157 -4.808,4.809" /><path
         id="path6211"
         style="fill:#000000;fill-opacity:1;fill-rule:nonzero;stroke:none"
         d="m 277.66,291.675 c -3.187,0 -6.07,-1.891 -7.344,-4.809 L 257.633,257.73 c -0.899,-2.047 -2.024,-4 -3.367,-5.805 l -1.93,-2.555 c -1.246,-1.672 -1.914,-3.695 -1.914,-5.769 l 0,-20.836 c 0,-4.422 3.578,-8.008 8.012,-8.008 l 118.597,0 c 4.422,0 8.008,3.586 8.008,8.008 l 0,20.836 c 0,2.074 -0.668,4.097 -1.93,5.769 l -1.914,2.555 c -1.343,1.805 -2.48,3.758 -3.379,5.805 l -12.671,29.136 c -1.274,2.918 -4.157,4.809 -7.344,4.809 l -80.141,0 z m 1.938,-8.008 76.265,0 c 1.274,0 2.422,-0.75 2.934,-1.926 l 11.023,-25.32 -104.179,0 11.011,25.32 c 0.524,1.176 1.676,1.926 2.946,1.926 z" /><path
         id="path6213"
         style="fill:#000000;fill-opacity:1;fill-rule:nonzero;stroke:none"
         d="m 357.801,211.546 19.226,0 0,-17.629 c 0,-2.652 -2.156,-4.809 -4.808,-4.809 l -9.617,0 c -2.657,0 -4.801,2.157 -4.801,4.809 l 0,17.629 z m -99.367,0 19.226,0 0,-17.629 c 0,-2.652 -2.156,-4.809 -4.812,-4.809 l -9.606,0 c -2.652,0 -4.808,2.157 -4.808,4.809" /></g></g></svg>