<?xml version="1.0" encoding="UTF-8" standalone="no"?>
<svg
   xmlns:dc="http://purl.org/dc/elements/1.1/"
   xmlns:cc="http://creativecommons.org/ns#"
   xmlns:rdf="http://www.w3.org/1999/02/22-rdf-syntax-ns#"
   xmlns:svg="http://www.w3.org/2000/svg"
   xmlns="http://www.w3.org/2000/svg"
   viewBox="0 0 992.94 650.98962"
   height="650.98962"
   width="992.94"
   xml:space="preserve"
   id="svg664"
   version="1.1"><metadata
     id="metadata670"><rdf:RDF><cc:Work
         rdf:about=""><dc:format>image/svg+xml</dc:format><dc:type
           rdf:resource="http://purl.org/dc/dcmitype/StillImage" /><dc:title></dc:title></cc:Work></rdf:RDF></metadata><defs
     id="defs668" /><g
     transform="matrix(1.3333333,0,0,-1.3333333,0,650.98962)"
     id="g672"><g
       id="g674"><path
         id="path676"
         style="fill:#ffffff;fill-opacity:1;fill-rule:evenodd;stroke:none"
         d="m 15.262,488.242 h 714.179 c 8.395,0 15.262,-6.871 15.262,-15.277 V 15.637 c 0,-8.403 -6.867,-15.262 -15.262,-15.262 H 15.262 C 6.871,0.375 0,7.234 0,15.637 v 457.328 c 0,8.406 6.871,15.277 15.262,15.277" /><path
         id="path678"
         style="fill:#154889;fill-opacity:1;fill-rule:evenodd;stroke:none"
         d="m 15.262,476.777 h 714.179 c 2.102,0 3.813,-1.711 3.813,-3.812 V 15.262 c 0,-2.102 -1.711,-3.824 -3.813,-3.824 H 15.262 c -2.102,0 -3.824,1.722 -3.824,3.824 v 457.703 c 0,2.101 1.722,3.812 3.824,3.812" /><path
         id="path680"
         style="fill:#000000;fill-opacity:1;fill-rule:nonzero;stroke:none"
         d="M 15.25,0.738 C 7.246,0.738 0.738,7.246 0.738,15.262 v 457.703 c 0,8 6.508,14.523 14.512,14.523 h 714.191 c 7.993,0 14.508,-6.523 14.508,-14.523 V 15.262 c 0,-8.016 -6.515,-14.524 -14.508,-14.524 z M 729.441,488.227 H 15.25 C 6.859,488.227 0,481.355 0,472.965 V 15.262 C 0,6.855 6.859,0 15.25,0 h 714.191 c 8.395,0 15.262,6.855 15.262,15.262 v 457.703 c 0,8.39 -6.867,15.262 -15.262,15.262" /><path
         id="path682"
         style="fill:#008754;fill-opacity:1;fill-rule:evenodd;stroke:none"
         d="m 404.785,437.719 h 122.469 c 6.723,0 12.242,-5.508 12.242,-12.258 v -63.035 c 0,-6.735 -5.519,-12.258 -12.242,-12.258 H 404.785 c -6.722,0 -12.246,5.523 -12.246,12.258 v 63.035 c 0,6.75 5.524,12.258 12.246,12.258" /><path
         id="path684"
         style="fill:#ffffff;fill-opacity:1;fill-rule:evenodd;stroke:none"
         d="m 404.785,437.719 h 122.469 c 6.723,0 12.242,-5.508 12.242,-12.258 v -63.035 c 0,-6.735 -5.519,-12.258 -12.242,-12.258 H 404.785 c -6.722,0 -12.246,5.523 -12.246,12.258 v 63.035 c 0,6.75 5.524,12.258 12.246,12.258 z m 0,-5.254 h 122.469 c 3.84,0 6.988,-3.149 6.988,-7.004 v -63.035 c 0,-3.852 -3.148,-7.004 -6.988,-7.004 H 404.785 c -3.844,0 -6.992,3.152 -6.992,7.004 v 63.035 c 0,3.855 3.148,7.004 6.992,7.004" /><g
         transform="matrix(1,0,0,-1,0,488.24222)"
         id="g686"><path
           id="path688"
           style="fill:#ffffff;fill-opacity:1;fill-rule:nonzero;stroke:#000000;stroke-width:0.182935;stroke-linecap:butt;stroke-linejoin:miter;stroke-miterlimit:4;stroke-dasharray:none;stroke-opacity:1"
           d="m 211.16,51.281 h 134.789 c 3.102,0 5.598,2.496 5.598,5.598 v 76.25 c 0,3.101 -2.496,5.598 -5.598,5.598 H 211.16 c -3.101,0 -5.597,-2.497 -5.597,-5.598 v -76.25 c 0,-3.102 2.496,-5.598 5.597,-5.598 z" /></g><path
         id="path690"
         style="fill:#154889;fill-opacity:1;fill-rule:nonzero;stroke:none"
         d="m 210.5,421.047 c 0,0.976 0.73,1.707 2.195,2.195 l 64.395,10.172 c 1.023,0.117 1.832,0.106 2.926,0 l 64.394,-10.172 c 1.465,-0.488 2.195,-1.219 2.195,-2.195 v -55.609 c 0,-0.977 -0.73,-1.711 -2.195,-2.196 L 280.016,353.07 c 0,-0.05 -0.489,-0.074 -1.465,-0.074 -21.922,3.051 -43.934,6.781 -65.852,10.246 -1.465,0.485 -2.195,1.219 -2.195,2.196" /><g
         transform="matrix(1,0,0,-1,0,488.24222)"
         id="g692"><path
           id="path694"
           style="fill:#ffffff;fill-opacity:1;fill-rule:nonzero;stroke:#000000;stroke-width:0.1575;stroke-linecap:butt;stroke-linejoin:miter;stroke-miterlimit:4;stroke-dasharray:none;stroke-opacity:1"
           d="m 63.012,373.477 h 114.492 c 3.101,0 5.598,2.496 5.598,5.593 v 64.094 c 0,3.102 -2.497,5.598 -5.598,5.598 H 63.012 c -3.102,0 -5.598,-2.496 -5.598,-5.598 V 379.07 c 0,-3.097 2.496,-5.593 5.598,-5.593 z" /></g><path
         id="path696"
         style="fill:#154889;fill-opacity:1;fill-rule:nonzero;stroke:none"
         d="m 61.664,77.129 v 23.937 c 0,0.84 0.629,1.469 1.891,1.891 l 55.441,8.758 c 0,0.039 0.418,0.062 1.258,0.062 0.84,0 1.262,-0.023 1.262,-0.062 l 55.441,-8.758 c 1.258,-0.422 1.891,-1.051 1.891,-1.891 V 53.188 c 0,-0.84 -0.633,-1.469 -1.891,-1.891 l -55.441,-8.758 c 0,-0.039 -0.422,-0.062 -1.262,-0.062 -0.84,0 -1.258,0.023 -1.258,0.062 l -55.441,8.754 c -1.262,0.418 -1.891,1.047 -1.891,1.887" /><g
         transform="matrix(1,0,0,-1,0,488.24222)"
         id="g698"><path
           id="path700"
           style="fill:none;stroke:#ffffff;stroke-width:8.39562321;stroke-linecap:butt;stroke-linejoin:miter;stroke-miterlimit:4;stroke-dasharray:none;stroke-opacity:1"
           d="m 49.68,347.352 645.343,0.171" /></g><path
         id="path702"
         style="fill:#ffffff;fill-opacity:1;fill-rule:nonzero;stroke:none"
         d="m 57.336,263.074 v 57.821 h 8.769 V 291.09 c 8.094,9.621 16.047,19.871 23.969,29.805 h 10.438 l -18.532,-22.821 20.477,-35 H 92.059 L 76.266,291.328 66.105,280.691 v -17.617 z" /><path
         id="path704"
         style="fill:#ffffff;fill-opacity:1;fill-rule:nonzero;stroke:none"
         d="m 122.852,304.738 c -11.86,-0.078 -17.231,-9.133 -16.985,-21.031 0.067,-11.582 3.821,-20.613 16.985,-21.113 11.945,0.078 17.195,9.172 16.945,21.113 -0.031,10.898 -3.563,20.496 -16.945,21.031 z m 0,-8.293 c 6.043,-0.058 8.656,-5.297 8.691,-11.867 -0.023,-6.683 -0.629,-13.305 -8.691,-13.73 -6.403,0.246 -9.106,6.703 -8.692,12.859 0.012,6.367 1.215,12.676 8.692,12.738 z" /><path
         id="path706"
         style="fill:#ffffff;fill-opacity:1;fill-rule:nonzero;stroke:none"
         d="m 125.594,319.426 h 8.77 v -8.77 h -8.77 z" /><path
         id="path708"
         style="fill:#ffffff;fill-opacity:1;fill-rule:nonzero;stroke:none"
         d="m 111.301,319.426 h 8.773 v -8.77 h -8.773 z" /><path
         id="path710"
         style="fill:#ffffff;fill-opacity:1;fill-rule:nonzero;stroke:none"
         d="m 148.527,273.031 v 47.86 h 8.297 v -47.184 c 0.629,-3.422 3.149,-2.859 5.91,-2.859 v -7.778 c -7.355,-0.453 -13.929,4.203 -14.207,9.961 z" /><path
         id="path712"
         style="fill:#ffffff;fill-opacity:1;fill-rule:nonzero;stroke:none"
         d="m 169.484,263.074 v 41.196 h 8.293 v -4.407 c 9.625,9.422 24.203,1.196 24.606,-9.406 v -27.383 h -8.293 v 24.528 c 0.191,13.562 -16.227,11.586 -16.313,0 v -24.528 z" /><path
         id="path714"
         style="fill:#ffffff;fill-opacity:1;fill-rule:nonzero;stroke:none"
         d="m 57.336,175.637 v 57.82 c 13.953,-0.027 30.48,2.262 37.859,-9.723 6.664,-14.898 4.516,-40.945 -7.242,-45.339 -9.519,-4.489 -19.805,-2.758 -30.617,-2.758 z m 8.769,49.527 v -41.273 c 7.469,-0.02 16.907,-0.957 21.231,5.039 3.305,6.883 2.855,26.566 -0.395,31.39 -6.039,6.364 -12.527,4.844 -20.836,4.844 z m 39.766,-28.891 c -0.246,11.903 5.125,20.954 16.984,21.032 12.036,0.004 17.719,-11.477 16.946,-21.032 0.25,-11.941 -5.004,-21.031 -16.946,-21.113 -13.531,0.496 -16.953,10.137 -16.984,21.113 z m 25.676,-0.078 c 0.367,6.496 -2.047,12.731 -8.692,12.817 -7.851,-0.305 -8.679,-7.035 -8.691,-12.739 -0.402,-6.558 2,-12.773 8.691,-12.859 7.829,0.324 8.68,7.086 8.692,12.781 z m 16.984,-20.558 v 41.191 h 8.293 v -4.402 c 6.649,5.137 13.856,5.277 18.723,1.707 l -5.231,-7.145 c -7.308,3.731 -13.414,0.852 -13.492,-6.586 v -24.765 z m 32.063,41.191 v 12.504 h 8.297 v -12.504 h 6.031 v -6.348 h -6.031 v -23.968 c 0.531,-3.684 3.089,-3.098 6.031,-3.098 v -7.777 c -8.254,0.179 -14.231,1.496 -14.328,10.121 v 24.722 h -4.125 v 6.348 z m 22.543,-41.191 v 41.191 h 8.293 v -4.402 h 0.16 c 2.617,3.254 6.191,4.879 10.715,4.879 4.863,0.093 8.601,-2.301 11.629,-5.356 3.254,3.571 7.589,5.356 13.015,5.356 7.574,0.011 13.606,-5.946 13.731,-14.285 v -27.383 h -8.293 v 24.527 c -0.098,13.277 -16,9.984 -16.352,0 v -24.527 h -8.254 v 24.527 c -0.097,13.547 -16.535,11.332 -16.351,0 v -24.527 z m 68.73,41.191 h 8.297 v -24.562 c 0.348,-12.672 15.957,-10.086 16.309,0 v 24.562 h 8.297 v -41.191 h -8.297 v 4.367 c -6.371,-4.524 -15.035,-6.973 -20.141,-1.211 -5.766,5.145 -4.121,26.367 -4.461,38.035 z m 43.656,-41.191 v 41.191 h 8.293 v -4.402 c 3.829,3.156 6.844,4.824 10.875,4.879 7.004,0.203 13.637,-6.789 13.731,-14.285 v -27.383 h -8.297 v 24.527 c -0.344,12.754 -15.957,11.316 -16.309,0 v -24.527 z m 68.254,0 v 4.285 c -2.882,-3.172 -6.425,-4.762 -10.632,-4.762 -13.415,0.621 -13.957,11.414 -13.969,21.113 -0.297,7.915 0.554,15.61 7.418,19.504 1.828,1.02 4.008,1.528 6.551,1.528 4.277,-0.055 7.851,-2.266 10.632,-4.879 v 21.031 h 8.297 v -57.816 z m -16.308,20.636 c 0.199,-6.968 0.926,-12.761 8.215,-12.859 7.961,0.688 8.062,6.633 8.093,12.859 0.133,5.911 -1.922,13.391 -8.441,13.532 -7.559,-1.055 -7.84,-7.641 -7.867,-13.532 z" /><path
         id="path716"
         style="fill:#ffffff;fill-opacity:1;fill-rule:nonzero;stroke:none"
         d="m 494.512,262.945 v 49.051 l -8.215,-5.992 v 8.769 l 8.215,5.993 h 8.297 v -57.817 z m 50.918,41.196 c -0.043,5.136 -3.469,8.695 -8.242,8.785 -5.297,-0.137 -7.985,-4.453 -8.032,-8.785 v -24.567 c 0.008,-5.281 3.672,-8.875 8.559,-8.785 5.355,0.254 6.988,3.281 7.73,8.867 z m -24.567,0.476 c 0.649,10.039 6.586,16.043 16.051,16.528 10.496,-0.481 16.695,-7.243 16.809,-16.528 1.062,-18.578 2.937,-41.691 -16.274,-42.015 -21.211,0.312 -16.738,30.539 -16.586,42.015 z m 56.633,16.149 h 9.246 L 574.559,296.32 h 0.156 c 1.297,0.504 2.765,0.754 4.406,0.754 9.973,-0.746 13.734,-7.988 13.809,-16.109 -0.59,-11.336 -6.266,-18.356 -17.063,-18.496 -10.304,0.914 -16.008,8.66 -16.113,17.582 0.375,8.859 10.055,23.707 17.738,40.715 z m -7.027,-33.356 c -5.371,-6.441 -0.453,-16.543 5.875,-16.687 5.558,0.261 8.25,5.152 8.293,9.527 0.215,8.762 -9.258,11.473 -14.168,7.16 z" /><path
         id="path718"
         style="fill:#ffffff;fill-opacity:1;fill-rule:nonzero;stroke:none"
         d="m 518.441,174.656 v 7.782 l 22.618,28.292 c 2.847,3.477 2.476,8.254 -0.039,11.372 -5.813,5.695 -13.711,1.179 -14.286,-5.774 h -8.296 c 0.027,4.684 1.628,8.629 4.804,11.844 11.555,10.211 27.985,2.375 28.176,-11.766 0,-3.914 -1.152,-7.301 -3.453,-10.16 l -18.613,-23.332 h 22.066 v -8.258 z m 37.422,8.574 v 7.817 l 19.364,41.433 h 9.25 L 564.91,191.047 h 15.082 v 16.668 h 8.293 v -16.668 h 4.645 v -7.817 h -4.645 v -8.574 h -8.293 v 8.574 z" /><path
         id="path720"
         style="fill:#ffffff;fill-opacity:1;fill-rule:nonzero;stroke:none"
         d="m 506.535,49.098 v 49.05 l -8.215,-5.992 v 8.77 l 8.215,5.992 h 8.293 V 49.102 Z m 43.93,57.82 h 9.246 L 547.527,82.469 c 12.399,2.097 18.278,-7.36 18.375,-15.356 -0.593,-11.336 -6.265,-18.355 -17.062,-18.492 -10.305,0.91 -16.008,8.66 -16.113,17.578 0.503,11.957 9.753,23.606 17.738,40.719 z m -7.024,-33.355 c -1.613,-1.551 -2.421,-3.938 -2.421,-7.165 0,-6.351 2.765,-9.523 8.296,-9.523 5.559,0.258 8.25,5.152 8.293,9.523 -0.066,8.457 -8.445,12.5 -14.168,7.165 z m 41.192,-24.465 v 49.047 l -8.215,-5.993 v 8.774 l 8.215,5.992 h 8.297 v -57.82 z" /><path
         id="path722"
         style="fill:#ffffff;fill-opacity:1;fill-rule:nonzero;stroke:none"
         d="m 613.254,261.961 v 43.109 h 6.184 v -26.836 l 11.925,14.438 h 7.395 l -10.59,-12.012 12.039,-18.699 h -7.75 l -8.168,14.352 -4.851,-5.536 v -8.816 z m 31.836,0 v 30.711 h 6.183 v -3.281 h 0.122 c 1.953,2.425 4.613,3.636 7.988,3.636 3.625,0.071 6.41,-1.714 8.668,-3.992 2.426,2.66 5.66,3.992 9.707,3.992 6.133,-0.336 10.172,-5.445 10.234,-10.652 v -20.414 h -6.183 v 18.285 c -1.278,9.5 -11.926,7.445 -12.188,0 v -18.285 h -6.156 v 18.285 c -1.277,9.5 -11.926,7.445 -12.192,0 v -18.285 z" /><path
         id="path724"
         style="fill:#ffffff;fill-opacity:1;fill-rule:nonzero;stroke:none"
         d="m 278.52,368.883 v 41.945 l -7.028,-5.125 v 7.5 l 7.028,5.125 h 7.093 v -49.445 z" /><path
         id="path726"
         style="fill:#ffffff;fill-opacity:1;fill-rule:nonzero;stroke:none"
         d="m 409.949,368.883 v 50.125 h 32.063 v -7.192 h -24.461 v -14.277 h 20.847 v -6.777 h -20.847 v -14.723 h 24.461 v -7.156 z" /><path
         id="path728"
         style="fill:#ffffff;fill-opacity:1;fill-rule:nonzero;stroke:none"
         d="m 469.848,391.629 v 6.172 c 5.351,0.156 9.89,1.234 9.965,6.945 -0.196,4.094 -3.5,7.027 -7.145,7.078 -3.602,-0.152 -6.125,-2.883 -6.742,-5.906 h -7.012 c 0.961,7.187 6.852,12.824 13.484,12.918 8.364,-0.547 14.317,-6.184 14.426,-13.957 -0.019,-4.258 -2.07,-8.02 -5.234,-10.098 3.75,-2.531 5.734,-6.547 5.773,-10.703 -0.593,-9.262 -6.414,-14.855 -14.828,-14.961 -7.664,0.266 -12.801,6.106 -13.89,12.547 h 7.011 c 1.274,-3.445 4.055,-5.539 7.282,-5.57 4.519,0.195 7.367,3.914 7.414,7.75 -0.043,6.371 -5.821,7.785 -10.504,7.785 z m 24.425,12.715 v 14.054 h 27.813 v -7.011 L 505.543,369.52 h -7.848 l 16.571,41.867 h -12.981 v -7.043 z" /><path
         id="path730"
         style="fill:#ffffff;fill-opacity:1;fill-rule:nonzero;stroke:none"
         d="m 91.164,61.578 v 5.977 l 14.805,31.668 h 7.066 L 98.082,67.555 h 11.527 v 12.738 h 6.34 V 67.555 h 3.551 v -5.977 h -3.551 v -6.555 h -6.34 v 6.555 z m 29.852,0 v 5.977 l 14.804,31.668 h 7.067 L 127.93,67.555 h 11.531 v 12.738 h 6.34 V 67.555 h 3.547 v -5.977 h -3.547 v -6.555 h -6.34 v 6.555 z" /><path
         id="path732"
         style="fill:#ffffff;fill-opacity:1;fill-rule:nonzero;stroke:none"
         d="m 222.613,47.91 v 57.82 h 8.77 V 75.926 h 0.199 l 23.77,29.804 h 10.437 l -18.531,-22.82 20.476,-35 H 257.336 L 241.543,76.164 231.383,65.531 V 47.91 Z m 72.184,0 v 3.653 h -0.199 c -1.664,-2.75 -5.051,-4.125 -10.157,-4.125 -8.339,0.414 -14.418,4.558 -14.527,12.578 0.504,13.32 16.285,12.234 24.883,12.183 v 4.285 c -0.567,6.926 -13.477,6.399 -16.27,2.145 l -6.507,4.918 c 6.66,7.191 18.628,7.687 26.269,3.058 3.176,-1.984 4.762,-5.515 4.762,-10.597 V 47.91 Z m 0,17.465 c -5.234,-0.051 -16.93,1.262 -17.106,-4.961 0.301,-4.226 4.829,-5.18 7.821,-5.199 8.551,-0.067 9.297,2.633 9.285,10.16 z m 14.445,-10.598 5.793,5.715 c 3.602,-3.519 7.926,-5.277 12.981,-5.277 3.636,0.008 8.261,0.781 8.132,5.277 -0.246,5.774 -14.418,2.582 -20.832,8.094 -2.25,1.984 -3.375,4.75 -3.375,8.297 0.598,12.851 16.215,14.254 24.606,11.172 2.566,-1.02 4.867,-2.375 6.906,-4.071 l -5.121,-6.031 c -4.09,3.43 -18.363,6.152 -18.098,-1.152 0.246,-6.664 15.481,-4.192 20.098,-8.504 3.566,-1.957 4.109,-4.945 4.109,-8.203 -0.128,-8.297 -9.308,-12.59 -17.062,-12.656 -7.477,-0.075 -13.649,3.25 -18.137,7.339 z m 39.051,0 5.793,5.715 c 4.43,-4.617 20.965,-8.762 21.113,0 0.004,6.836 -14.418,2.582 -20.836,8.094 -2.246,1.984 -3.371,4.75 -3.371,8.297 0,4.18 1.469,7.34 4.403,9.484 6.335,3.754 13.675,4.207 20.199,1.688 2.566,-1.02 4.871,-2.375 6.906,-4.071 l -5.117,-6.031 c -4.09,3.43 -17.985,7.106 -18.098,-1.148 0.625,-8.219 15.715,-1.383 21.43,-8.317 1.851,-2.34 2.777,-5.136 2.777,-8.394 -0.894,-9.633 -9.308,-12.59 -17.062,-12.656 -6.856,0 -12.899,2.445 -18.137,7.339 z m 75.52,10.598 h -25.637 c 0.355,-11.102 12.379,-12.57 18.851,-6.191 l 5.993,-5.121 c -3.946,-4.493 -9.45,-6.59 -14.879,-6.629 -13.036,-0.168 -18.157,9.836 -18.258,20.914 -0.219,11.718 5.449,21.062 16.984,21.234 14.231,0.356 16.946,-11.535 16.946,-24.211 z m -25.637,6.824 h 17.383 c -0.258,5.367 -2.418,9.5 -8.692,9.563 -5.703,-0.168 -8.527,-4.961 -8.691,-9.563 z m 34.367,-14.328 v 47.859 h 8.297 V 58.547 c 0.629,-3.422 3.148,-2.856 5.91,-2.856 V 47.91 c -6.48,-0.371 -14.008,2.465 -14.207,9.961 z" /><path
         id="path734"
         style="fill:#ffffff;fill-opacity:1;fill-rule:nonzero;stroke:none"
         d="M 612.977,174.391 V 217.5 h 6.183 v -26.836 l 11.922,14.438 h 7.398 L 627.887,193.09 639.93,174.391 h -7.754 l -8.164,14.347 -4.852,-5.531 v -8.816 z m 31.836,0 v 30.711 h 6.183 v -3.286 c 2.551,2.207 5.418,3.602 8.106,3.641 3.625,0.066 6.414,-1.719 8.668,-3.996 2.429,2.664 5.664,3.996 9.707,3.996 6.136,-0.34 10.171,-5.445 10.238,-10.652 v -20.414 h -6.184 v 18.285 c -1.277,9.496 -11.929,7.445 -12.191,0 v -18.285 h -6.156 v 18.285 c -1.278,9.496 -11.926,7.445 -12.188,0 v -18.285 z" /><path
         id="path736"
         style="fill:#ffffff;fill-opacity:1;fill-rule:nonzero;stroke:none"
         d="m 614.148,49.094 v 43.109 h 6.184 V 65.367 l 11.926,14.438 h 7.398 L 629.063,67.793 641.105,49.094 h -7.753 l -8.164,14.351 -4.856,-5.535 v -8.816 z m 31.84,0 v 30.711 h 6.184 V 76.52 c 2.547,2.207 5.418,3.605 8.105,3.64 3.625,0.067 6.414,-1.719 8.668,-3.992 2.426,2.66 5.664,3.992 9.707,3.992 6.137,-0.336 10.172,-5.445 10.239,-10.652 V 49.094 h -6.184 v 18.285 c -1.277,9.496 -11.93,7.445 -12.191,0 V 49.094 h -6.157 v 18.285 c -1.277,9.496 -11.925,7.445 -12.191,0 V 49.094 Z" /></g></g></svg>