<?xml version="1.0" encoding="UTF-8" standalone="no"?>
<svg
   xmlns:dc="http://purl.org/dc/elements/1.1/"
   xmlns:cc="http://creativecommons.org/ns#"
   xmlns:rdf="http://www.w3.org/1999/02/22-rdf-syntax-ns#"
   xmlns:svg="http://www.w3.org/2000/svg"
   xmlns="http://www.w3.org/2000/svg"
   viewBox="0 0 600 450.00342"
   height="450.00342"
   width="600"
   xml:space="preserve"
   version="1.1"
   id="svg5480"><metadata
     id="metadata5486"><rdf:RDF><cc:Work
         rdf:about=""><dc:format>image/svg+xml</dc:format><dc:type
           rdf:resource="http://purl.org/dc/dcmitype/StillImage" /><dc:title></dc:title></cc:Work></rdf:RDF></metadata><defs
     id="defs5484"><clipPath
       id="clipPath5500"
       clipPathUnits="userSpaceOnUse"><path
         id="path5502"
         d="M 0,0 480,0 480,361 0,361 0,0 Z" /></clipPath></defs><g
     transform="matrix(1.25,0,0,-1.25,0,450.00343)"
     id="g5488"><g
       id="g5490" /><g
       id="g5492"><g
         transform="translate(0,-0.997253)"
         id="g5494"><g
           id="g5496"><g
             clip-path="url(#clipPath5500)"
             id="g5498"><g
               id="g5504"><path
                 id="path5506"
                 style="fill:#ffffff;fill-opacity:1;fill-rule:nonzero;stroke:none"
                 d="m 31.996,360.758 c -17.504,0 -31.754,-14.25 -31.754,-31.754 l 0,-296.008 C 0.242,15.48 14.492,1.238 31.996,1.238 l 416.008,0 c 17.516,0 31.766,14.242 31.766,31.758 l 0,296.008 c 0,17.504 -14.25,31.754 -31.766,31.754" /><path
                 id="path5508"
                 style="fill:#000000;fill-opacity:1;fill-rule:nonzero;stroke:none"
                 d="m 31.996,1.469 c -17.383,0 -31.523,14.14 -31.523,31.527 l 0,295.996 c 0,17.383 14.14,31.535 31.523,31.535 l 416.008,0 c 17.383,0 31.523,-14.152 31.523,-31.535 l 0,-295.996 c 0,-17.387 -14.14,-31.527 -31.523,-31.527 l -416.008,0 z M 448.004,361 31.996,361 C 14.328,361 0,346.672 0,328.992 L 0,32.996 c 0,-17.684 14.328,-32 31.996,-32 l 416.008,0 c 17.668,0 31.996,14.316 31.996,32 l 0,295.996 C 480,346.672 465.672,361 448.004,361" /></g></g></g></g><path
         id="path5510"
         style="fill:#000000;fill-opacity:1;fill-rule:nonzero;stroke:none"
         d="m 31.996,7.995 c -13.25,0 -23.992,10.754 -23.992,24.004 l 0,296.004 c 0,13.25 10.742,23.996 23.992,23.996 l 416.008,0 c 13.25,0 24.004,-10.746 24.004,-23.996 l 0,-296.004 c 0,-13.25 -10.754,-24.004 -24.004,-24.004" /><path
         id="path5512"
         style="fill:#ffffff;fill-opacity:1;fill-rule:nonzero;stroke:none"
         d="M 31.996,20.003 C 25.379,20.003 20,25.366 20,31.999 l 0,296.004 c 0,6.633 5.379,12 11.996,12 l 416.008,0 c 6.629,0 12.004,-5.367 12.004,-12 l 0,-296.004 c 0,-6.633 -5.375,-11.996 -12.004,-11.996" /><path
         id="path5514"
         style="fill:#000000;fill-opacity:1;fill-rule:nonzero;stroke:none"
         d="m 360.609,97.796 c -4.972,2.652 -11.164,0.781 -13.8,-4.2 l 0,24.004 -9.602,0 0,-67.195 9.602,0 0,34.195 c 0,2.653 2.144,4.797 4.793,4.797 2.648,0 4.804,-2.144 4.804,-4.797 l 0,-34.195 9.602,0 0,38.399 c 0,3.757 -2.078,7.222 -5.399,8.992 z M 296.402,59.397 c -5.961,0 -10.797,4.84 -10.797,10.801 0,5.969 4.836,10.797 10.797,10.797 5.961,0 10.797,-4.828 10.797,-10.797 0,-5.961 -4.836,-10.801 -10.797,-10.801 z m 0,49.207 c 5.301,0 9.602,-4.297 9.602,-9.609 0,-5.301 -4.301,-9.598 -9.602,-9.598 -5.3,0 -9.597,4.297 -9.597,9.598 0,5.312 4.297,9.609 9.597,9.609 z m 12.59,-23.254 c 4.18,3.297 6.61,8.332 6.61,13.645 0,10.609 -8.586,19.211 -19.2,19.211 -10.597,0 -19.199,-8.602 -19.199,-19.211 0,-5.313 2.43,-10.348 6.609,-13.645 -4.894,-3.496 -7.808,-9.14 -7.808,-15.152 0,-11.262 9.129,-20.398 20.398,-20.398 11.27,0 20.399,9.136 20.399,20.398 0,6.012 -2.914,11.656 -7.809,15.152 z m -67.789,25.047 0,-10.191 9.602,7.191 0,-56.992 9.597,0 0,67.195 -9.597,0 -9.602,-7.203 z m -39.594,-38.398 28.797,0 0,9.601 -28.797,0 0,-9.601 z m -24.004,-3 c 0,-5.301 -4.3,-9.602 -9.601,-9.602 -5.301,0 -9.598,4.301 -9.598,9.602 l 0,3 c 0,5.301 4.297,9.601 9.598,9.601 5.301,0 9.601,-4.3 9.601,-9.601 l 0,-3 z M 165.664,88.823 180,117.6 l -10.797,0 -18.394,-37.066 c -1.321,-2.652 -2.012,-5.574 -2.012,-8.535 l 0,-3 c 0,-10.602 8.598,-19.199 19.207,-19.199 10.601,0 19.199,8.597 19.199,19.199 l 0,5.398 c 0,2.047 -0.394,4.059 -1.176,5.949 -3.277,7.961 -12.402,11.766 -20.363,8.477 z m -51.66,21.574 0,-10.191 9.601,7.191 0,-56.992 9.598,0 0,67.195 -9.598,0 -9.601,-7.203 z m 292.711,78.61 c -4.985,2.648 -11.164,0.769 -13.801,-4.211 l 0,24.004 -9.602,0 0,-67.196 9.602,0 0,34.196 c 0,2.652 2.145,4.796 4.793,4.796 2.648,0 4.805,-2.144 4.805,-4.796 l 0,-34.196 9.601,0 0,38.399 c 0,3.758 -2.078,7.222 -5.398,9.004 z m -63.008,7.39 c 0,3.539 2.871,6.41 6.398,6.41 3.543,0 6.403,-2.871 6.403,-6.41 l 0,-19.992 c 0,-3.539 -2.86,-6.398 -6.403,-6.398 -3.527,0 -6.398,2.859 -6.398,6.398 l 0,19.992 z m 6.398,-32.789 c 7.071,0 12.801,5.727 12.801,12.797 l 0,19.992 c 0,7.071 -5.73,12.809 -12.801,12.809 -7.07,0 -12.796,-5.738 -12.796,-12.809 l 0,-19.992 c 0,-7.07 5.726,-12.797 12.796,-12.797 z m -25.949,23.641 c 2.981,2.097 4.75,5.508 4.75,9.148 0,6.606 -5.023,12.125 -11.601,12.742 -7.035,0.672 -13.282,-4.496 -13.942,-11.535 l 6.453,0 c 0.575,3.016 3.211,5.203 6.293,5.203 3.528,0 6.399,-2.871 6.399,-6.41 0,-3.531 -2.871,-6.39 -6.399,-6.39 l -2.804,0 0,-5.606 2.804,0 c 3.746,0 6.793,-3.047 6.793,-6.797 l 0,-0.804 c 0,-3.145 -2.156,-5.871 -5.199,-6.606 -3.652,-0.883 -7.312,1.352 -8.203,5 l -6.5,0 c 0.812,-6.605 6.434,-11.59 13.109,-11.59 7.289,0 13.192,5.907 13.192,13.196 l 0,0.804 c 0,3.871 -1.922,7.489 -5.145,9.645 z m -46.359,-45.645 9.613,0 0,67.196 -9.613,0 -9.598,-7.204 0,-10.191 9.598,7.191 0,-56.992 z m -36,0 9.609,0 0,67.196 -9.609,0 -9.598,-7.204 0,-10.191 9.598,7.191 0,-56.992 z m -20.395,31.196 -28.8,0 0,-9.602 28.8,0 0,9.602 z M 159,196.397 c 0,3.539 2.871,6.41 6.398,6.41 3.543,0 6.399,-2.871 6.399,-6.41 l 0,-19.992 c 0,-3.539 -2.856,-6.398 -6.399,-6.398 -3.527,0 -6.398,2.859 -6.398,6.398 l 0,19.992 z m -6.398,0 0,-19.992 c 0,-7.07 5.726,-12.797 12.796,-12.797 7.071,0 12.801,5.727 12.801,12.797 l 0,19.992 c 0,7.071 -5.73,12.809 -12.801,12.809 -7.07,0 -12.796,-5.738 -12.796,-12.809 z m -13.153,-9.148 c 2.981,2.097 4.75,5.508 4.75,9.148 0,6.606 -5.023,12.125 -11.601,12.742 -7.036,0.672 -13.282,-4.496 -13.942,-11.535 l 6.453,0 c 0.586,3.016 3.223,5.203 6.289,5.203 3.543,0 6.403,-2.871 6.403,-6.41 0,-3.531 -2.86,-6.39 -6.403,-6.39 l -2.8,0 0,-5.606 2.8,0 c 3.762,0 6.797,-3.047 6.797,-6.797 l 0,-0.804 c 0,-3.145 -2.144,-5.871 -5.191,-6.606 -3.649,-0.883 -7.32,1.352 -8.211,5 l -6.5,0 c 0.812,-6.605 6.434,-11.59 13.105,-11.59 7.293,0 13.196,5.907 13.196,13.196 l 0,0.804 c 0,3.871 -1.922,7.489 -5.145,9.645 z M 88.297,150.596 c -5.961,0 -10.797,4.84 -10.797,10.801 0,5.969 4.836,10.809 10.797,10.809 5.969,0 10.797,-4.84 10.797,-10.809 0,-5.961 -4.828,-10.801 -10.797,-10.801 z m 0,49.208 c 5.301,0 9.598,-4.297 9.598,-9.598 0,-5.313 -4.297,-9.61 -9.598,-9.61 -5.301,0 -9.602,4.297 -9.602,9.61 0,5.301 4.301,9.598 9.602,9.598 z m 12.59,-23.254 c 4.179,3.296 6.609,8.332 6.609,13.656 0,10.598 -8.59,19.199 -19.199,19.199 -10.602,0 -19.199,-8.601 -19.199,-19.199 0,-5.324 2.441,-10.36 6.609,-13.656 -4.906,-3.489 -7.809,-9.141 -7.809,-15.153 0,-11.261 9.137,-20.398 20.399,-20.398 11.269,0 20.398,9.137 20.398,20.398 0,6.012 -2.906,11.664 -7.808,15.153 z m 320.011,94.617 -10.195,0.648 c -2.098,0.133 -3.879,1.617 -4.363,3.66 -0.617,2.586 0.969,5.18 3.551,5.797 6.058,1.449 12.457,0.035 17.328,-3.859 l 5.984,7.5 c -7.18,5.738 -16.617,7.84 -25.555,5.695 -6.16,-1.484 -10.621,-6.797 -11.019,-13.109 -0.496,-7.938 5.543,-14.778 13.48,-15.274 l 10.196,-0.636 c 1.879,-0.11 3.527,-1.328 4.187,-3.102 0.938,-2.484 -0.316,-5.254 -2.804,-6.18 -7.387,-2.769 -15.711,-0.976 -21.309,4.586 l -6.774,-6.804 c 8.258,-8.215 20.551,-10.864 31.45,-6.774 5.32,1.989 8.961,6.926 9.324,12.59 0.492,7.938 -5.543,14.766 -13.481,15.262 z M 372,261.007 c 0,-5.309 -4.289,-9.61 -9.602,-9.61 -5.296,0 -9.597,4.301 -9.597,9.61 l 0,10.797 c 0,5.3 4.301,9.601 9.597,9.601 5.313,0 9.602,-4.301 9.602,-9.601 l 0,-10.797 z m 0,23.98 c -3.078,3.805 -7.707,6.016 -12.59,6.016 -8.953,0 -16.211,-7.258 -16.211,-16.207 l 0,-16.789 c 0,-4.895 2.223,-9.536 6.028,-12.602 6.961,-5.629 17.152,-4.543 22.773,2.418 l 0,-6.027 c 0,-3.637 -2.047,-6.957 -5.301,-8.586 -5.144,-2.574 -11.402,-1.219 -15.031,3.242 l -7.445,-6.047 c 6.465,-7.961 17.593,-10.367 26.765,-5.773 6.508,3.246 10.621,9.898 10.621,17.164 l 0,48.601 -9.609,0 0,-5.41 z m -51.594,-27.586 c 0,-3.308 -2.695,-6.004 -6.004,-6.004 l -7.797,0 c -3.32,0 -6.003,2.696 -6.003,6.004 0,3.32 2.683,6.004 6.003,6.004 l 13.801,0 0,-6.004 z m -2.812,33.371 c -4.5,0.793 -9.086,0.793 -13.582,0 -4.004,-0.691 -7.555,-3 -9.828,-6.367 l 7.586,-6.004 c 0.757,1.539 2.21,2.629 3.902,2.914 3.398,0.594 6.871,0.594 10.258,0 2.586,-0.449 4.476,-2.691 4.476,-5.308 l 0,-4.805 -14.402,0 c -7.953,0 -14.395,-6.445 -14.395,-14.395 0,-7.961 6.442,-14.406 14.395,-14.406 l 6.004,0 c 3.484,0 6.707,1.891 8.398,4.949 l 0,-4.949 9.602,0 0,33.606 c 0,7.277 -5.246,13.511 -12.414,14.765 z m -41.59,-48.371 5.996,0 0,8.996 -4.203,0 c -1.649,0 -2.988,1.352 -2.988,3 l 0,28.207 7.191,0 0,7.793 -7.191,0 0,14.407 -9.602,0 0,-14.407 -4.805,0 0,-7.793 4.805,0 0,-29.402 c 0,-5.961 4.828,-10.801 10.797,-10.801 z m -54,13.801 7.797,8.402 12.601,-22.203 11.996,0 -18.593,29.403 16.195,18.593 -11.402,0 -18.594,-22.793 0,41.992 -9.598,0 0,-67.195 9.598,0 0,13.801 z m -16.801,31.184 c -0.008,0 -0.008,0.007 -0.015,0.007 -6.961,5.633 -17.157,4.555 -22.786,-2.406 l 0,5.41 -9.597,0 0,-47.996 9.597,0 0,29.403 c 0,2.351 0.868,4.617 2.43,6.375 3.531,3.96 9.59,4.324 13.559,0.792 l 6.816,8.415 -0.004,0 z m -65.402,-5.981 c 5.629,0 10.203,-4.574 10.203,-10.203 l -20.406,0 c 0,5.629 4.574,10.203 10.203,10.203 z m -7.356,-38.187 c 9.149,-3.664 19.617,-1.09 26.039,6.386 l -7.293,6.246 c -3.738,-4.355 -9.839,-5.851 -15.171,-3.718 -3.883,1.55 -6.422,5.3 -6.422,9.468 l 0,1.2 30.007,0 0,8.402 c 0,10.937 -8.863,19.801 -19.804,19.801 -10.942,0 -19.805,-8.864 -19.805,-19.801 l 0,-9.602 c 0,-8.093 4.938,-15.382 12.449,-18.382 z m -38.847,13.589 -10.801,33.59 -7.199,0 -10.801,-33.59 -8.992,33.59 -10.207,0 15,-47.996 8.402,0 10.203,33.606 10.203,-33.606 8.391,0 15,47.996 -10.195,0" /></g></g></svg>