<?xml version="1.0" encoding="UTF-8" standalone="no"?>
<svg
   xmlns:dc="http://purl.org/dc/elements/1.1/"
   xmlns:cc="http://creativecommons.org/ns#"
   xmlns:rdf="http://www.w3.org/1999/02/22-rdf-syntax-ns#"
   xmlns:svg="http://www.w3.org/2000/svg"
   xmlns="http://www.w3.org/2000/svg"
   viewBox="0 0 600 450"
   height="450"
   width="600"
   xml:space="preserve"
   version="1.1"
   id="svg6109"><metadata
     id="metadata6115"><rdf:RDF><cc:Work
         rdf:about=""><dc:format>image/svg+xml</dc:format><dc:type
           rdf:resource="http://purl.org/dc/dcmitype/StillImage" /><dc:title></dc:title></cc:Work></rdf:RDF></metadata><defs
     id="defs6113"><clipPath
       id="clipPath6127"
       clipPathUnits="userSpaceOnUse"><path
         id="path6129"
         d="M 0,0 480,0 480,360 0,360 0,0 Z" /></clipPath></defs><g
     transform="matrix(1.25,0,0,-1.25,0,450)"
     id="g6117"><g
       id="g6119"><g
         id="g6121"><g
           id="g6123"><g
             clip-path="url(#clipPath6127)"
             id="g6125"><g
               id="g6131"><path
                 id="path6133"
                 style="fill:#ffffff;fill-opacity:1;fill-rule:nonzero;stroke:none"
                 d="m 31.996,359.758 c -17.504,0 -31.754,-14.242 -31.754,-31.754 l 0,-296.008 c 0,-17.512 14.25,-31.754 31.754,-31.754 l 416.008,0 c 17.512,0 31.754,14.242 31.754,31.754 l 0,296.008 c 0,17.512 -14.242,31.754 -31.754,31.754" /><path
                 id="path6135"
                 style="fill:#000000;fill-opacity:1;fill-rule:nonzero;stroke:none"
                 d="M 31.996,0.469 C 14.613,0.469 0.48,14.613 0.48,31.996 l 0,295.996 c 0,17.383 14.133,31.528 31.516,31.528 l 416.008,0 c 17.383,0 31.516,-14.145 31.516,-31.528 l 0,-295.996 c 0,-17.383 -14.133,-31.527 -31.516,-31.527 l -416.008,0 z M 448.004,360 31.996,360 C 14.32,360 0,345.672 0,327.992 L 0,31.996 C 0,14.32 14.32,0 31.996,0 L 448.004,0 C 465.672,0 480,14.32 480,31.996 l 0,295.996 C 480,345.672 465.672,360 448.004,360" /></g></g></g></g><path
         id="path6137"
         style="fill:#000000;fill-opacity:1;fill-rule:nonzero;stroke:none"
         d="m 31.996,7.996 c -13.258,0 -24,10.742 -24,24 l 0,296.008 c 0,13.246 10.742,24 24,24 l 416.008,0 c 13.258,0 24,-10.754 24,-24 l 0,-296.008 c 0,-13.258 -10.742,-24 -24,-24" /><path
         id="path6139"
         style="fill:#ffffff;fill-opacity:1;fill-rule:nonzero;stroke:none"
         d="m 31.996,19.996 c -6.617,0 -12,5.371 -12,12 l 0,296.008 c 0,6.629 5.383,12 12,12 l 416.008,0 c 6.629,0 12,-5.371 12,-12 l 0,-296.008 c 0,-6.629 -5.371,-12 -12,-12" /><path
         id="path6141"
         style="fill:#000000;fill-opacity:1;fill-rule:nonzero;stroke:none"
         d="m 124.09,265.805 9.222,0 -4.617,24.59 -4.605,-24.59 z m -14.59,-23.41 15.008,67.21 8.39,0 15.008,-67.21 -10.207,0 -2.703,14.406 -12.59,0 -2.703,-14.406" /><path
         id="path6143"
         style="fill:#000000;fill-opacity:1;fill-rule:nonzero;stroke:none"
         d="m 155.102,242.395 0,48 9.593,0 0,-4.79 c 2.66,4.965 8.84,6.848 13.805,4.2 3.328,-1.782 5.406,-5.239 5.406,-9.004 l 0,-38.406 -9.605,0 0,34.207 c 0,2.648 -2.145,4.8 -4.801,4.8 -2.648,0 -4.805,-2.152 -4.805,-4.8 l 0,-34.207" /><path
         id="path6145"
         style="fill:#000000;fill-opacity:1;fill-rule:nonzero;stroke:none"
         d="m 207.906,242.395 -3.601,0 c -5.973,0 -10.805,4.835 -10.805,10.808 l 0,56.402 9.602,0 0,-55.21 c 0,-1.653 1.347,-2.997 3,-2.997 l 1.804,0" /><path
         id="path6147"
         style="fill:#000000;fill-opacity:1;fill-rule:nonzero;stroke:none"
         d="m 225.898,300 -9.601,0 0,9.605 9.601,0 0,-9.605 z m -9.601,-57.605 0,48 9.601,0 0,-48" /><path
         id="path6149"
         style="fill:#000000;fill-opacity:1;fill-rule:nonzero;stroke:none"
         d="m 245.098,270.598 9.605,0 0,6.004 c 0,2.648 -2.144,4.8 -4.805,4.8 -2.644,0 -4.8,-2.152 -4.8,-4.8 l 0,-6.004 z m 19.207,-14.399 c 0,-7.953 -6.453,-14.394 -14.407,-14.394 -7.953,0 -14.394,6.441 -14.394,14.394 l 0,20.403 c 0,7.953 6.441,14.394 14.394,14.394 7.954,0 14.407,-6.441 14.407,-14.394 l 0,-13.805 -19.207,0 0,-6.598 c 0,-2.644 2.156,-4.801 4.8,-4.801 2.661,0 4.805,2.157 4.805,4.801" /><path
         id="path6151"
         style="fill:#000000;fill-opacity:1;fill-rule:nonzero;stroke:none"
         d="m 291.906,256.199 0,20.403 c 0,2.648 -2.156,4.8 -4.804,4.8 -2.645,0 -4.801,-2.152 -4.801,-4.8 l 0,-20.403 c 0,-2.644 2.156,-4.801 4.801,-4.801 2.648,0 4.804,2.157 4.804,4.801 z m -9.605,-19.195 c 0,-2.649 2.156,-4.805 4.801,-4.805 2.648,0 4.804,2.156 4.804,4.805 l 0,10.195 c -2.66,-4.969 -8.828,-6.847 -13.804,-4.203 -3.329,1.774 -5.395,5.242 -5.395,9.004 l 0,28.801 c 0,5.637 4.563,10.195 10.195,10.195 3.762,0 7.231,-2.078 9.004,-5.391 l 0,4.79 9.594,0 0,-53.391 c 0,-7.953 -6.445,-14.406 -14.398,-14.406 -7.95,0 -14.395,6.453 -14.395,14.406" /><path
         id="path6153"
         style="fill:#000000;fill-opacity:1;fill-rule:nonzero;stroke:none"
         d="m 320.707,270.598 9.594,0 0,6.004 c 0,2.648 -2.145,4.8 -4.801,4.8 -2.648,0 -4.793,-2.152 -4.793,-4.8 l 0,-6.004 z m 19.199,-14.399 c 0,-7.953 -6.445,-14.394 -14.406,-14.394 -7.953,0 -14.398,6.441 -14.398,14.394 l 0,20.403 c 0,7.953 6.445,14.394 14.398,14.394 7.961,0 14.406,-6.441 14.406,-14.394 l 0,-13.805 -19.199,0 0,-6.598 c 0,-2.644 2.145,-4.801 4.793,-4.801 2.656,0 4.801,2.157 4.801,4.801" /><path
         id="path6155"
         style="fill:#000000;fill-opacity:1;fill-rule:nonzero;stroke:none"
         d="m 348.305,242.395 0,48 9.593,0 0,-5.415 c 3.075,3.809 7.715,6.016 12.602,6.016 l 0,-10.074 c -5.031,1.652 -10.457,-1.082 -12.117,-6.125 -0.321,-0.961 -0.485,-1.981 -0.485,-2.996 l 0,-29.406" /><path
         id="path6157"
         style="fill:#000000;fill-opacity:1;fill-rule:nonzero;stroke:none"
         d="m 62.668,160.199 c 0,-2.644 2.144,-4.801 4.805,-4.801 2.644,0 4.789,2.157 4.789,4.801 l 0,20.403 c 0,2.648 -2.145,4.8 -4.789,4.8 -2.661,0 -4.805,-2.152 -4.805,-4.8 l 0,-20.403 z m -9.602,0 0,20.403 c 0,7.953 6.454,14.394 14.407,14.394 7.953,0 14.394,-6.441 14.394,-14.394 l 0,-20.403 c 0,-7.953 -6.441,-14.394 -14.394,-14.394 -7.953,0 -14.407,6.441 -14.407,14.394" /><path
         id="path6159"
         style="fill:#000000;fill-opacity:1;fill-rule:nonzero;stroke:none"
         d="m 109.465,160.199 0,20.403 c 0,2.648 -2.145,4.8 -4.801,4.8 -2.648,0 -4.801,-2.152 -4.801,-4.8 l 0,-20.403 c 0,-2.644 2.153,-4.801 4.801,-4.801 2.656,0 4.801,2.157 4.801,4.801 z m 9.605,-13.804 -9.605,0 0,4.804 c -2.645,-4.969 -8.828,-6.847 -13.805,-4.203 -3.312,1.774 -5.39,5.242 -5.39,9.004 l 0,28.801 c 0,5.637 4.558,10.195 10.195,10.195 3.773,0 7.23,-2.078 9,-5.402 l 0,24.011 9.605,0" /><path
         id="path6161"
         style="fill:#000000;fill-opacity:1;fill-rule:nonzero;stroke:none"
         d="m 138.27,174.598 9.601,0 0,6.004 c 0,2.648 -2.152,4.8 -4.801,4.8 -2.66,0 -4.8,-2.152 -4.8,-4.8 l 0,-6.004 z m 19.195,-14.399 c 0,-7.953 -6.442,-14.394 -14.395,-14.394 -7.953,0 -14.406,6.441 -14.406,14.394 l 0,20.403 c 0,7.953 6.453,14.394 14.406,14.394 7.953,0 14.395,-6.441 14.395,-14.394 l 0,-13.805 -19.195,0 0,-6.598 c 0,-2.644 2.14,-4.801 4.8,-4.801 2.649,0 4.801,2.157 4.801,4.801" /><path
         id="path6163"
         style="fill:#000000;fill-opacity:1;fill-rule:nonzero;stroke:none"
         d="m 165.867,146.395 0,48 9.606,0 0,-5.415 c 3.074,3.809 7.699,6.016 12.601,6.016 l 0,-10.074 c -5.043,1.652 -10.469,-1.082 -12.121,-6.125 -0.316,-0.961 -0.48,-1.981 -0.48,-2.996 l 0,-29.406" /><path
         id="path6165"
         style="fill:#000000;fill-opacity:1;fill-rule:nonzero;stroke:none"
         d="m 230.734,204.602 0,-22.797 6.004,0 c 3.645,0 6.598,2.953 6.598,6.597 l 0,9.602 c 0,3.644 -2.953,6.598 -6.598,6.598 l -6.004,0 z m -9.605,-58.207 0,67.21 15.609,0 c 8.61,0 15.602,-6.992 15.602,-15.601 l 0,-9.602 c 0,-8.621 -6.992,-15.601 -15.602,-15.601 l -6.004,0 0,-26.406" /><path
         id="path6167"
         style="fill:#000000;fill-opacity:1;fill-rule:nonzero;stroke:none"
         d="m 276.34,167.398 -4.805,0 c -2.644,0 -4.801,-2.144 -4.801,-4.8 l 0,-2.399 c 0,-2.644 2.157,-4.801 4.801,-4.801 2.649,0 4.805,2.157 4.805,4.801 l 0,7.199 z m 9.594,-21.003 -9.594,0 0,4.804 c -2.66,-4.969 -8.84,-6.847 -13.805,-4.203 -3.328,1.774 -5.406,5.242 -5.406,9.004 l 0,7.199 c 0,6.629 5.383,12 12,12 l 7.211,0 0,5.403 c 0,2.648 -2.156,4.8 -4.805,4.8 -2.644,0 -4.801,-2.152 -4.801,-4.8 l -9.605,0 c 0,7.953 6.457,14.394 14.406,14.394 7.953,0 14.399,-6.441 14.399,-14.394" /><path
         id="path6169"
         style="fill:#000000;fill-opacity:1;fill-rule:nonzero;stroke:none"
         d="m 295.535,146.395 0,48 9.594,0 0,-5.415 c 3.086,3.809 7.715,6.016 12.601,6.016 l 0,-10.074 c -5.031,1.652 -10.457,-1.082 -12.109,-6.125 -0.328,-0.961 -0.492,-1.981 -0.492,-2.996 l 0,-29.406" /><path
         id="path6171"
         style="fill:#000000;fill-opacity:1;fill-rule:nonzero;stroke:none"
         d="m 323.738,146.395 0,67.21 9.606,0 0,-40.203 11.988,20.993 9.602,0 -11.399,-19.196 13.797,-28.804 -10.797,0 -8.402,20.402 -4.789,-7.199 0,-13.203" /><path
         id="path6173"
         style="fill:#000000;fill-opacity:1;fill-rule:nonzero;stroke:none"
         d="m 370.535,174.598 9.602,0 0,6.004 c 0,2.648 -2.153,4.8 -4.801,4.8 -2.648,0 -4.801,-2.152 -4.801,-4.8 l 0,-6.004 z m 19.195,-14.399 c 0,-7.953 -6.441,-14.394 -14.394,-14.394 -7.953,0 -14.395,6.441 -14.395,14.394 l 0,20.403 c 0,7.953 6.442,14.394 14.395,14.394 7.953,0 14.394,-6.441 14.394,-14.394 l 0,-13.805 -19.195,0 0,-6.598 c 0,-2.644 2.153,-4.801 4.801,-4.801 2.648,0 4.801,2.157 4.801,4.801" /><path
         id="path6175"
         style="fill:#000000;fill-opacity:1;fill-rule:nonzero;stroke:none"
         d="m 398.133,146.395 0,48 9.605,0 0,-4.801 c 2.645,4.976 8.828,6.859 13.793,4.199 3.324,-1.762 5.403,-5.227 5.403,-8.992 l 0,-38.406 -9.602,0 0,34.207 c 0,2.648 -2.144,4.8 -4.793,4.8 -2.656,0 -4.801,-2.152 -4.801,-4.8 l 0,-34.207" /><path
         id="path6177"
         style="fill:#000000;fill-opacity:1;fill-rule:nonzero;stroke:none"
         d="m 177.605,50.395 0,40.203 -4.804,0 0,7.797 4.804,0 0,7.21 c 0,6.618 5.372,11.989 12,11.989 l 7.196,0 0,-8.992 -6.594,0 c -1.664,0 -3.008,-1.344 -3.008,-2.997 l 0,-7.21 9.602,0 0,-7.797 -9.602,0 0,-40.203" /><path
         id="path6179"
         style="fill:#000000;fill-opacity:1;fill-rule:nonzero;stroke:none"
         d="m 207.598,50.395 0,48 9.605,0 0,-5.415 c 5.621,6.958 15.817,8.04 22.785,2.418 l 0.012,-0.011 -6.816,-8.41 c -3.957,3.519 -10.032,3.171 -13.551,-0.801 -1.567,-1.75 -2.43,-4.024 -2.43,-6.375 l 0,-29.406" /><path
         id="path6181"
         style="fill:#000000;fill-opacity:1;fill-rule:nonzero;stroke:none"
         d="m 254.395,79.199 20.414,0 c 0,5.633 -4.575,10.203 -10.207,10.203 -5.633,0 -10.207,-4.57 -10.207,-10.203 z m 30.007,-8.402 -30.007,0 0,-1.192 c 0,-4.179 2.55,-7.933 6.421,-9.472 5.329,-2.133 11.43,-0.649 15.172,3.719 l 7.285,-6.258 c -6.41,-7.473 -16.878,-10.043 -26.023,-6.379 -7.516,3.008 -12.449,10.285 -12.449,18.39 l 0,9.594 c 0,10.938 8.863,19.797 19.801,19.797 10.937,0 19.8,-8.859 19.8,-19.797" /><path
         id="path6183"
         style="fill:#000000;fill-opacity:1;fill-rule:nonzero;stroke:none"
         d="m 307.199,108 -9.594,0 0,9.594 9.594,0 0,-9.594 z m -9.594,-57.605 0,48 9.594,0 0,-48" /></g></g></svg>