<?xml version="1.0" encoding="UTF-8" standalone="no"?>
<svg
   xmlns:dc="http://purl.org/dc/elements/1.1/"
   xmlns:cc="http://creativecommons.org/ns#"
   xmlns:rdf="http://www.w3.org/1999/02/22-rdf-syntax-ns#"
   xmlns:svg="http://www.w3.org/2000/svg"
   xmlns="http://www.w3.org/2000/svg"
   viewBox="0 0 1703.6259 1802.0387"
   height="1802.0387"
   width="1703.6259"
   xml:space="preserve"
   id="svg4639"
   version="1.1"><metadata
     id="metadata4645"><rdf:RDF><cc:Work
         rdf:about=""><dc:format>image/svg+xml</dc:format><dc:type
           rdf:resource="http://purl.org/dc/dcmitype/StillImage" /><dc:title></dc:title></cc:Work></rdf:RDF></metadata><defs
     id="defs4643" /><g
     transform="matrix(1.3333333,0,0,-1.3333333,0,1802.0387)"
     id="g4647"><g
       id="g4649"><path
         id="path4651"
         style="fill:#999999;fill-opacity:1;fill-rule:evenodd;stroke:none"
         d="M 132.523,1.939 411.238,1350.037 866.48,1350.068 1145.195,1.939 Z" /><path
         id="path4653"
         style="fill:#ffffff;fill-opacity:1;fill-rule:evenodd;stroke:none"
         d="M 357.625,1349.904 0.727,1.939 132.523,1.845 411.238,1349.771 Z" /><g
         transform="matrix(1,0,0,-1,0,1351.5291)"
         id="g4655"><path
           id="path4657"
           style="fill:none;stroke:#000000;stroke-width:0.75;stroke-linecap:butt;stroke-linejoin:miter;stroke-miterlimit:4;stroke-dasharray:none;stroke-opacity:1"
           d="m 421.219,1.625 c -0.434,0 -0.864,0 0,0 z" /></g><g
         transform="matrix(1,0,0,-1,0,1351.5291)"
         id="g4659"><path
           id="path4661"
           style="fill:none;stroke:#000000;stroke-width:1.5;stroke-linecap:butt;stroke-linejoin:miter;stroke-miterlimit:4;stroke-dasharray:none;stroke-opacity:1"
           d="M 357.625,1.133 0.727,1349.59" /></g><g
         transform="matrix(1,0,0,-1,0,1351.5291)"
         id="g4663"><path
           id="path4665"
           style="fill:none;stroke:#000000;stroke-width:1.5;stroke-linecap:butt;stroke-linejoin:miter;stroke-miterlimit:4;stroke-dasharray:none;stroke-opacity:1"
           d="M 113.91,1349.684 396.102,1.258" /></g><g
         transform="matrix(1,0,0,-1,0,1351.5291)"
         id="g4667"><path
           id="path4669"
           style="fill:none;stroke:#000000;stroke-width:1.5;stroke-linecap:butt;stroke-linejoin:miter;stroke-miterlimit:4;stroke-dasharray:none;stroke-opacity:1"
           d="M 411.238,1.352 132.523,1350.703" /></g><g
         transform="matrix(1,0,0,-1,0,1351.5291)"
         id="g4671"><path
           id="path4673"
           style="fill:none;stroke:#000000;stroke-width:0.75;stroke-linecap:butt;stroke-linejoin:miter;stroke-miterlimit:4;stroke-dasharray:none;stroke-opacity:1"
           d="m 861.379,0.375 c 0.434,0 0.867,0 0,0 z" /></g><path
         id="path4675"
         style="fill:#ffffff;fill-opacity:1;fill-rule:nonzero;stroke:none"
         d="m 613.59,103.814 h 40.387 L 655.051,0.002 h -42.363 z" /><path
         id="path4677"
         style="fill:#ffffff;fill-opacity:1;fill-rule:nonzero;stroke:none"
         d="m 621.738,1300.135 h 0.25 l -1.293,-188.621 h 26.348 l -1.297,188.621 h 0.25 z" /><path
         id="path4679"
         style="fill:#ffffff;fill-opacity:1;fill-rule:nonzero;stroke:none"
         d="m 619.059,873.072 -3.067,-446.414 h 35.754 l -3.066,446.414 z" /><path
         id="path4681"
         style="fill:#ffffff;fill-opacity:1;fill-rule:evenodd;stroke:none"
         d="M 920.094,1349.904 1276.996,1.939 1145.195,1.845 866.48,1349.771 Z" /><g
         transform="rotate(180,0,675.76453)"
         id="g4683"><path
           id="path4685"
           style="fill:none;stroke:#000000;stroke-width:0.75;stroke-linecap:butt;stroke-linejoin:miter;stroke-miterlimit:4;stroke-dasharray:none;stroke-opacity:1"
           d="m -856.5,1.625 c -0.434,0 -0.863,0 0,0 z" /></g><g
         transform="rotate(180,0,675.76453)"
         id="g4687"><path
           id="path4689"
           style="fill:none;stroke:#000000;stroke-width:1.5;stroke-linecap:butt;stroke-linejoin:miter;stroke-miterlimit:4;stroke-dasharray:none;stroke-opacity:1"
           d="M -920.094,1.133 -1276.996,1349.59" /></g><g
         transform="rotate(180,0,675.76453)"
         id="g4691"><path
           id="path4693"
           style="fill:none;stroke:#000000;stroke-width:1.5;stroke-linecap:butt;stroke-linejoin:miter;stroke-miterlimit:4;stroke-dasharray:none;stroke-opacity:1"
           d="M -1163.809,1349.684 -881.617,1.258" /></g><g
         transform="rotate(180,0,675.76453)"
         id="g4695"><path
           id="path4697"
           style="fill:none;stroke:#000000;stroke-width:1.5;stroke-linecap:butt;stroke-linejoin:miter;stroke-miterlimit:4;stroke-dasharray:none;stroke-opacity:1"
           d="m -866.48,1.352 -278.715,1349.355" /></g><path
         id="path4699"
         style="fill:#ffffff;fill-opacity:1;fill-rule:nonzero;stroke:none"
         d="m 597.324,1154.314 -135.785,-61.699 v -76.543 L 359.109,913.638 V 779.771 l 102.43,162.063 v -74.68 z" /><path
         id="path4701"
         style="fill:#ffffff;fill-opacity:1;fill-rule:nonzero;stroke:none"
         d="M 562.824,579.814 404.082,517.779 v -88.016 l -142.355,-136.355 -21,-222.16 163.355,252.609 V 223.349 Z" /></g></g></svg>