<?xml version="1.0" encoding="UTF-8" standalone="no"?>
<!-- Created with Inkscape (http://www.inkscape.org/) -->

<svg
   xmlns:dc="http://purl.org/dc/elements/1.1/"
   xmlns:cc="http://creativecommons.org/ns#"
   xmlns:rdf="http://www.w3.org/1999/02/22-rdf-syntax-ns#"
   xmlns:svg="http://www.w3.org/2000/svg"
   xmlns="http://www.w3.org/2000/svg"
   xmlns:sodipodi="http://sodipodi.sourceforge.net/DTD/sodipodi-0.dtd"
   xmlns:inkscape="http://www.inkscape.org/namespaces/inkscape"
   width="600"
   height="600"
   id="svg1980"
   sodipodi:version="0.32"
   inkscape:version="0.92.1 r15371"
   version="1.0"
   sodipodi:docname="278-57.svg">
  <defs
     id="defs1982" />
  <sodipodi:namedview
     id="base"
     pagecolor="#ffffff"
     bordercolor="#666666"
     borderopacity="1.0"
     inkscape:pageopacity="0.0"
     inkscape:pageshadow="2"
     inkscape:zoom="0.98994949"
     inkscape:cx="203.3983"
     inkscape:cy="148.50728"
     inkscape:document-units="px"
     inkscape:current-layer="g3771"
     width="600px"
     height="600px"
     inkscape:window-width="1665"
     inkscape:window-height="1395"
     inkscape:window-x="74"
     inkscape:window-y="0"
     showgrid="false"
     inkscape:window-maximized="0" />
  <metadata
     id="metadata1985">
    <rdf:RDF>
      <cc:Work
         rdf:about="">
        <dc:format>image/svg+xml</dc:format>
        <dc:type
           rdf:resource="http://purl.org/dc/dcmitype/StillImage" />
        <dc:title></dc:title>
      </cc:Work>
    </rdf:RDF>
  </metadata>
  <g
     inkscape:label="Ebene 1"
     inkscape:groupmode="layer"
     id="layer1">
    <g
       id="g3771"
       transform="translate(1.374794,11.86118)">
      <path
         style="fill:#fffefe;fill-rule:evenodd;stroke:black;stroke-opacity:1"
         id="path10"
         d="M 590.68796,288.07677 C 589.79109,140.65833 481.40336,16.725056 334.97912,-1.4206743 C 168.02447,-22.771464 18.137934,102.18382 7.1044943,269.72247 C -3.0251357,438.0815 130.10614,579.29842 298.68765,580.07708 C 460.66439,579.04118 589.56862,450.10913 590.68796,288.07677" />
      <path
         id="path14"
         d="M 590.68796,288.07677 L 589.85367,269.72247 M 589.85367,269.72247 L 585.26509,233.431 M 585.26509,233.431 L 576.08794,197.97383 M 576.08794,197.97383 L 562.73935,163.76808 M 562.73935,163.76808 L 545.21934,131.64804 M 545.21934,131.64804 L 523.52789,102.03086 M 523.52789,102.03086 L 498.49929,75.333696 M 498.49929,75.333696 L 470.13355,51.973666 M 470.13355,51.973666 L 439.26494,32.367936 M 439.26494,32.367936 L 406.31062,16.516486 M 406.31062,16.516486 L 371.27059,5.2536157 M 371.27059,5.2536157 L 334.97912,-1.4206743 M 334.97912,-1.4206743 L 298.68765,-3.9235343 M 298.68765,-3.9235343 L 261.97904,-1.4206743 M 261.97904,-1.4206743 L 226.10472,5.2536157 M 226.10472,5.2536157 L 191.06468,16.516486 M 191.06468,16.516486 L 158.11036,32.367936 M 158.11036,32.367936 L 127.24176,51.973666 M 127.24176,51.973666 L 98.876024,75.333696 M 98.876024,75.333696 L 73.847424,102.03086 M 73.847424,102.03086 L 52.155974,131.64804 M 52.155974,131.64804 L 34.635944,163.76808 M 34.635944,163.76808 L 20.870224,197.97383 M 20.870224,197.97383 L 11.693064,233.431 M 11.693064,233.431 L 7.1044943,269.72247 M 7.1044943,269.72247 L 7.1044943,306.43108 M 7.1044943,306.43108 L 11.693064,342.72254 M 11.693064,342.72254 L 20.870224,378.17972 M 20.870224,378.17972 L 34.635944,412.38548 M 34.635944,412.38548 L 52.155974,444.50551 M 52.155974,444.50551 L 73.847424,474.12268 M 73.847424,474.12268 L 98.876024,500.81985 M 98.876024,500.81985 L 127.24176,524.17988 M 127.24176,524.17988 L 158.11036,543.78561 M 158.11036,543.78561 L 191.06468,559.21992 M 191.06468,559.21992 L 226.10472,570.89993 M 226.10472,570.89993 L 261.97904,577.57422 M 261.97904,577.57422 L 298.68765,580.07708 M 298.68765,580.07708 L 334.97912,577.57422 M 334.97912,577.57422 L 371.27059,570.89993 M 371.27059,570.89993 L 406.31062,559.21992 M 406.31062,559.21992 L 439.26494,543.78561 M 439.26494,543.78561 L 470.13355,524.17988 M 470.13355,524.17988 L 498.49929,500.81985 M 498.49929,500.81985 L 523.52789,474.12268 M 523.52789,474.12268 L 545.21934,444.50551 M 545.21934,444.50551 L 562.73935,412.38548 M 562.73935,412.38548 L 576.08794,378.17972 M 576.08794,378.17972 L 585.26509,342.72254 M 585.26509,342.72254 L 589.85367,306.43108 M 589.85367,306.43108 L 590.68796,288.07677" />
      <path
         style="fill:black;fill-rule:evenodd;stroke:none"
         id="path16"
         d="M 580.67652,288.07677 C 581.13537,146.35929 474.68736,25.756216 334.14483,8.1736257 C 172.97457,-12.600114 26.890994,108.39925 17.115934,270.55676 C 6.7082043,432.19283 136.41891,570.80259 298.68765,570.06564 C 454.10134,570.66354 581.00328,443.31666 580.67652,288.07677" />
      <path
         id="path28"
         style="fill:#fffefe;fill-rule:evenodd;stroke:none"
         d="M 522.27646,141.24234 C 676.18843,388.64307 399.2609,665.57755 151.85321,511.66558 L 522.27646,141.24234 m -7.50858,-11.26287 -3.33715,-4.17144 -2.92001,-4.17142 -376.26325,376.26324 4.17144,2.92 4.17143,3.33715 374.17754,-374.17753 m -15.43431,-18.77145 -6.67429,-7.50858 -378.34897,378.34897 7.50858,6.67429 377.51468,-377.51468 m -23.77717,-24.194314 3.7543,3.75428 3.75429,3.33715 -378.34897,378.348984 -3.33715,-3.7543 -3.754276,-3.75429 L 475.5564,87.013706 m -18.77144,-15.01716 4.17144,3.33715 3.75428,2.92 -375.846106,375.846104 -2.92,-3.75428 -3.33715,-4.17144 L 456.78496,71.996546 m -11.26287,-7.50858 C 197.85021,-89.451814 -78.840936,187.23933 75.098854,434.91121 L 445.52209,64.487966" />
      <path
         style="fill:#999999;fill-rule:evenodd;stroke:none"
         d="M 393.55469 153.82617 C 391.68373 153.82621 389.84252 153.8978 388.01562 154.00195 L 311.78516 230.23242 C 311.67022 232.31508 311.60739 234.43321 311.60742 236.59375 L 311.60742 244.59375 L 401.94336 154.25781 C 399.17267 153.98051 396.37868 153.82624 393.55469 153.82617 z M 123.94922 156.28516 L 123.94922 239.05273 L 164.92188 239.05273 L 164.92188 197.25977 L 241.13281 197.25977 L 185.3457 337.90039 L 261.40625 261.83984 L 287.02344 197.25977 L 287.02344 156.28516 L 123.94922 156.28516 z M 418.22461 157.58203 L 379.34961 196.45703 C 383.90218 195.35926 388.63553 194.80118 393.55469 194.80078 C 394.23465 194.80084 394.90433 194.81491 395.57031 194.83594 L 428.75391 161.65234 C 425.29118 160.04833 421.78238 158.69168 418.22461 157.58203 z M 364.66406 158.58203 C 354.60948 162.12143 345.38671 167.62428 337.01172 175.13281 C 326.96677 183.88174 319.89955 194.64912 315.8125 207.43359 L 364.66406 158.58203 z M 441.06641 168.52734 L 411.56836 198.02539 C 414.65722 199.55142 417.52052 201.41515 420.15625 203.62109 L 449.2832 174.49414 C 446.57719 172.33484 443.83752 170.348 441.06641 168.52734 z M 458.95312 184.42969 L 428.5293 214.85352 C 429.56821 216.50493 430.48099 218.28176 431.25 220.20312 C 431.73203 221.97114 432.13435 223.73976 432.47461 225.50781 L 464.76953 193.21289 C 463.05405 190.11412 461.11417 187.18685 458.95312 184.42969 z M 470.39258 206.36133 L 433.70898 243.04492 L 433.70898 360.33398 C 433.7085 367.43632 432.88845 373.71825 431.25 379.18164 C 430.15689 381.91294 428.7908 384.37112 427.15234 386.55664 C 425.51293 388.74134 424.14683 390.92581 423.05469 393.11133 C 420.32265 395.29603 417.86446 397.20872 415.67969 398.84766 C 413.49397 399.94001 411.58184 400.75759 409.94336 401.30664 C 406.11872 403.49134 400.6563 404.58398 393.55469 404.58398 C 386.4522 404.58398 380.71578 403.49134 376.3457 401.30664 C 373.06741 400.76006 368.96912 398.02815 364.05273 393.11133 C 361.86707 390.37923 359.95494 387.92103 358.31641 385.73633 C 357.22338 383.55081 356.4053 381.36635 355.85938 379.18164 C 353.67372 372.6259 352.57967 366.34315 352.58008 360.33398 L 352.58008 324.17383 L 311.63086 365.125 C 312.10269 391.27551 320.56181 410.98591 337.01172 424.25195 C 353.94699 438.45579 372.79441 445.55859 393.55469 445.55859 C 413.76778 445.55859 432.61518 438.45579 450.09766 424.25195 C 466.4865 409.50152 474.68112 389.014 474.68164 362.79102 L 474.68164 236.59375 C 474.68142 225.42019 473.24805 215.34577 470.39258 206.36133 z M 355.95898 219.84766 L 311.60742 264.19922 L 311.60742 278.79883 L 352.58984 237.81445 C 352.64312 232.46186 353.72877 226.59415 355.85938 220.20312 C 355.88897 220.08467 355.92778 219.96611 355.95898 219.84766 z M 352.58008 257.01367 L 311.60742 297.98633 L 311.60742 312.16992 L 352.58008 271.19727 L 352.58008 257.01367 z M 352.58008 290.80273 L 311.60742 331.77734 L 311.60742 346.375 L 352.58008 305.40234 L 352.58008 290.80273 z M 249.06445 292.95312 L 173.00391 369.01367 L 163.67969 392.52148 L 239.74023 316.46094 L 249.06445 292.95312 z M 226.84961 348.95703 L 150.79102 425.01562 L 143.61719 443.09961 L 147.30469 443.09961 L 217.25195 373.1543 L 226.84961 348.95703 z M 204.63477 404.96094 L 166.49609 443.09961 L 180.67773 443.09961 L 195.31055 428.4668 L 204.63477 404.96094 z "
         transform="translate(-1.374794,-11.86118)"
         id="path28-0" />
    </g>
  </g>
</svg>
