<?xml version="1.0" encoding="UTF-8" standalone="no"?>
<!-- Created with Inkscape (http://www.inkscape.org/) -->
<svg
   xmlns:svg="http://www.w3.org/2000/svg"
   xmlns="http://www.w3.org/2000/svg"
   version="1.0"
   width="2200"
   height="1800"
   id="svg2">
  <defs
     id="defs4" />
  <path
     d="M 436.2582,339.69343 L 436.34966,352.65263 L 945.69863,352.65263 L 954.92503,338.738 L 436.2582,339.69343 z "
     style="fill:white;fill-opacity:1;fill-rule:evenodd;stroke:black;stroke-width:2;stroke-linecap:butt;stroke-linejoin:miter;stroke-miterlimit:4;stroke-dasharray:none;stroke-opacity:1"
     id="path14402" />
  <path
     d="M 2187.7015,371.21763 L 2187.61,381.48284 L 1799.8827,381.84445 C 1787.6342,381.84445 1786.0162,386.93186 1784.8029,391.45984 L 1603.168,1784.1106 L 1774.6259,391.02121 L 1782.992,372.74863 L 2187.7015,371.21763 z "
     style="fill:white;fill-opacity:1;fill-rule:evenodd;stroke:black;stroke-width:2;stroke-linecap:butt;stroke-linejoin:miter;stroke-miterlimit:4;stroke-dasharray:none;stroke-opacity:1"
     id="path15289" />
  <g
     id="layer1">
    <path
       d="M 455.65629,315.93698 L 607.18143,152.86518 L 1112.6733,156.41249 L 1154.0586,139.26715 L 1236.7834,16.069072 L 1789.4352,16.069072 L 1779.5678,142.81446 C 1783.5137,153.02211 1791.3985,159.46997 1806.7638,158.77736 L 2188.7029,157.03797 L 2188.7218,335.08705 L 1778.3853,334.96048 C 1758.096,336.22985 1739.7199,341.85845 1732.2703,365.11263 L 1507.6543,1797.3482 L 88.398656,1797.6506 L 993.00144,366.6406 C 1014.771,326.56558 977.56775,333.26601 968.41595,315.45027 L 455.65629,315.93698 z "
       style="fill:#999;fill-opacity:1;fill-rule:evenodd;stroke:none;stroke-width:1px;stroke-linecap:butt;stroke-linejoin:miter;stroke-opacity:1"
       id="path12616" />
    <path
       d="M 11.243302,1783.5648 L 87.319311,1783.5648 L 998.66656,342.68779 C 1002.9452,333.08002 984.16681,315.2496 963.2411,315.10634 L 458.2913,315.31308 L 438.53966,337.24799 L 954.52122,339.18294 L 11.243302,1783.5648 z "
       style="fill:white;fill-opacity:1;fill-rule:evenodd;stroke:black;stroke-width:3;stroke-linecap:butt;stroke-linejoin:miter;stroke-miterlimit:4;stroke-dasharray:none;stroke-opacity:1"
       id="path1882" />
    <path
       d="M 88.553385,1783.0329 L 89.474888,1793.1694 L 989.78143,371.65208 C 995.62988,359.5787 1002.5003,349.71312 999.6381,339.83091 L 88.553385,1783.0329 z "
       style="fill:none;fill-opacity:0.75;fill-rule:evenodd;stroke:black;stroke-width:3;stroke-linecap:butt;stroke-linejoin:miter;stroke-miterlimit:4;stroke-dasharray:none;stroke-opacity:1"
       id="path5492" />
    <path
       d="M 621.43331,131.88114 L 607.54792,145.24277 L 607.54792,153.13555 L 1097.3408,156.54874 C 1132.8077,156.99802 1147.2742,146.39126 1156.2183,133.50971 L 1236.4283,15.754633 L 1236.4283,7.2216563 L 1215.8238,7.2216563 L 1143.0265,113.236 C 1134.2787,127.14953 1111.8402,135.03508 1097.7578,134.62243 L 621.43331,131.88114 z "
       style="fill:white;fill-opacity:1;fill-rule:evenodd;stroke:black;stroke-width:2;stroke-linecap:butt;stroke-linejoin:miter;stroke-miterlimit:4;stroke-dasharray:none;stroke-opacity:1"
       id="path7265" />
    <path
       d="M 607.35829,145.63884 L 1098.7663,147.0192 C 1124.3612,147.5148 1140.0107,142.36897 1150.5298,130.45489 L 1236.1122,6.9126873"
       style="fill:none;fill-opacity:0.75;fill-rule:evenodd;stroke:black;stroke-width:1px;stroke-linecap:butt;stroke-linejoin:miter;stroke-opacity:1"
       id="path9037" />
    <path
       d="M 1332.2018,399.28494 L 1090.5024,949.29398 L 1121.9043,949.29398 L 1356.9427,399.28494 L 1332.2018,399.28494 z "
       style="fill:white;fill-opacity:1;fill-rule:evenodd;stroke:black;stroke-width:1px;stroke-linecap:butt;stroke-linejoin:miter;stroke-opacity:1"
       id="path9039" />
    <path
       d="M 1538.5965,398.69428 L 1365.7173,948.7033 L 1397.1192,948.7033 L 1563.3374,398.69428 L 1538.5965,398.69428 z "
       style="fill:white;fill-opacity:1;fill-rule:evenodd;stroke:black;stroke-width:1px;stroke-linecap:butt;stroke-linejoin:miter;stroke-opacity:1"
       id="path9041" />
    <path
       d="M 976.44777,1183.0489 L 1021.4646,1183.6565 L 1070.9093,1064.7989 L 1028.9458,1064.7989 L 976.44777,1183.0489 z "
       style="fill:white;fill-opacity:1;fill-rule:evenodd;stroke:black;stroke-width:1px;stroke-linecap:butt;stroke-linejoin:miter;stroke-opacity:1"
       id="path9043" />
    <path
       d="M 1287.1019,1183.8146 L 1333.6378,1184.1184 L 1371.5373,1065.8684 L 1332.9158,1066.4761 L 1287.1019,1183.8146 z "
       style="fill:white;fill-opacity:1;fill-rule:evenodd;stroke:black;stroke-width:1px;stroke-linecap:butt;stroke-linejoin:miter;stroke-opacity:1"
       id="path9045" />
    <path
       d="M 862.84243,1438.4339 L 912.72038,1438.1301 L 969.45684,1303.7775 L 922.63219,1304.0813 L 862.84243,1438.4339 z "
       style="fill:white;fill-opacity:1;fill-rule:evenodd;stroke:black;stroke-width:1px;stroke-linecap:butt;stroke-linejoin:miter;stroke-opacity:1"
       id="path9047" />
    <path
       d="M 746.11162,1698.4482 L 801.45837,1698.4482 L 862.75216,1554.0695 L 808.33196,1554.3734 L 746.11162,1698.4482 z "
       style="fill:white;fill-opacity:1;fill-rule:evenodd;stroke:black;stroke-width:1px;stroke-linecap:butt;stroke-linejoin:miter;stroke-opacity:1"
       id="path9049" />
    <path
       d="M 1128.6446,1698.7153 L 1183.9913,1699.0192 L 1228.271,1554.0328 L 1174.7623,1554.0328 L 1128.6446,1698.7153 z "
       style="fill:white;fill-opacity:1;fill-rule:evenodd;stroke:black;stroke-width:1px;stroke-linecap:butt;stroke-linejoin:miter;stroke-opacity:1"
       id="path9051" />
    <path
       d="M 1211.7486,1439.22 L 1261.3227,1438.9162 L 1303.1719,1302.2873 L 1256.4606,1302.5911 L 1211.7486,1439.22 z "
       style="fill:white;fill-opacity:1;fill-rule:evenodd;stroke:black;stroke-width:1px;stroke-linecap:butt;stroke-linejoin:miter;stroke-opacity:1"
       id="path9053" />
    <path
       d="M 1302.6319,711.69004 L 1333.2493,711.69004 L 1411.1845,494.58473 C 1414.4519,477.56932 1422.713,459.12712 1398.1953,450.0503 L 1413.9679,413.86608 L 1368.5057,461.18391 L 1371.2891,522.41874 L 1385.2061,484.37892 C 1395.2352,486.80334 1394.2901,494.25093 1392.6285,500.15153 L 1302.6319,711.69004 z "
       style="fill:white;fill-opacity:1;fill-rule:evenodd;stroke:black;stroke-width:1px;stroke-linecap:butt;stroke-linejoin:miter;stroke-opacity:1"
       id="path9055" />
    <path
       d="M 990.14513,1553.9716 L 1035.1951,1553.9716 L 1149.8677,1234.5261 C 1154.6753,1209.4899 1166.8306,1182.3544 1130.7556,1168.9987 L 1153.9632,1115.7578 L 1087.0708,1185.3805 L 1091.1662,1275.4807 L 1111.6435,1219.5095 C 1126.4002,1223.0767 1125.0096,1234.035 1122.5647,1242.717 L 990.14513,1553.9716 z "
       style="fill:white;fill-opacity:1;fill-rule:evenodd;stroke:black;stroke-width:1.471385px;stroke-linecap:butt;stroke-linejoin:miter;stroke-opacity:1"
       id="path9057" />
    <path
       d="M 1388.8291,1553.2537 L 1344.5155,1553.2537 L 1435.157,1232.9871 L 1410.986,1232.9871 L 1473.4279,1118.1745 L 1485.5134,1233.9942 L 1460.3352,1233.9942 L 1451.2711,1273.2722 C 1468.6805,1258.1129 1483.946,1260.8201 1499.6132,1260.1795 L 1508.6773,1206.8018 L 1531.8413,1286.3649 L 1485.5134,1352.8353 L 1493.5704,1296.4361 C 1465.7404,1293.6806 1449.2582,1300.6041 1442.2069,1315.5716 L 1388.8291,1553.2537 z "
       style="fill:white;fill-opacity:1;fill-rule:evenodd;stroke:black;stroke-width:1px;stroke-linecap:butt;stroke-linejoin:miter;stroke-opacity:1"
       id="path9059" />
    <path
       d="M 1574.2408,712.05357 L 1543.7349,712.05357 L 1606.1334,491.579 L 1589.4938,491.579 L 1632.4794,412.54091 L 1640.7992,492.2723 L 1623.4663,492.2723 L 1617.2265,519.31164 C 1629.2113,508.87584 1639.7202,510.7395 1650.5056,510.2985 L 1656.7454,473.55279 L 1672.6918,528.32478 L 1640.7992,574.08364 L 1646.3457,535.25789 C 1627.1873,533.36098 1615.8408,538.12718 1610.9866,548.43095 L 1574.2408,712.05357 z "
       style="fill:white;fill-opacity:1;fill-rule:evenodd;stroke:black;stroke-width:0.68840951px;stroke-linecap:butt;stroke-linejoin:miter;stroke-opacity:1"
       id="path9061" />
    <path
       d="M 1508.0779,1782.8383 L 1732.3495,363.29095 C 1741.3233,340.01268 1763.0405,335.84951 1786.8096,334.76424 L 2187.1667,334.72998 L 2187.2009,371.6536 L 1802.0856,372.58999 C 1787.1093,372.58999 1778.0483,377.2697 1775.0001,393.33669 L 1603.0437,1783.1334 L 1508.0779,1782.8383 z "
       style="fill:white;fill-opacity:1;fill-rule:evenodd;stroke:black;stroke-width:3;stroke-linecap:butt;stroke-linejoin:miter;stroke-miterlimit:4;stroke-dasharray:none;stroke-opacity:1"
       id="path9063" />
    <path
       d="M 2187.7304,157.69914 L 2187.7304,133.38403 L 1815.7424,133.44615 C 1805.5948,133.19217 1802.1169,131.35062 1803.018,122.72418 L 1810.0893,17.154471 L 1789.1796,17.00187 L 1780.0729,139.13642 C 1779.7787,144.05533 1783.811,157.62196 1798.2234,157.68398 L 2187.7304,157.69914 z "
       style="fill:white;fill-opacity:1;fill-rule:evenodd;stroke:black;stroke-width:2;stroke-linecap:butt;stroke-linejoin:miter;stroke-miterlimit:4;stroke-dasharray:none;stroke-opacity:1"
       id="path9950" />
    <path
       d="M 2187.8106,147.32735 L 1806.761,147.32735 C 1784.6763,147.18358 1782.9698,141.68993 1780.4321,133.5155"
       style="fill:none;fill-opacity:0.75;fill-rule:evenodd;stroke:black;stroke-width:2;stroke-linecap:butt;stroke-linejoin:miter;stroke-miterlimit:4;stroke-dasharray:none;stroke-opacity:1"
       id="path11728" />
    <path
       d="M 1507.7665,1797.3251 L 1507.7665,1782.6961"
       style="fill:none;fill-opacity:0.75;fill-rule:evenodd;stroke:black;stroke-width:3;stroke-linecap:butt;stroke-linejoin:miter;stroke-miterlimit:4;stroke-dasharray:none;stroke-opacity:1"
       id="path12630" />
  </g>
</svg>
