<?xml version="1.0" encoding="UTF-8" standalone="no"?>
<svg
   xmlns:dc="http://purl.org/dc/elements/1.1/"
   xmlns:cc="http://creativecommons.org/ns#"
   xmlns:rdf="http://www.w3.org/1999/02/22-rdf-syntax-ns#"
   xmlns:svg="http://www.w3.org/2000/svg"
   xmlns="http://www.w3.org/2000/svg"
   viewBox="0 0 651 651"
   height="651"
   width="651"
   xml:space="preserve"
   version="1.1"
   id="svg5217"><metadata
     id="metadata5223"><rdf:RDF><cc:Work
         rdf:about=""><dc:format>image/svg+xml</dc:format><dc:type
           rdf:resource="http://purl.org/dc/dcmitype/StillImage" /><dc:title></dc:title></cc:Work></rdf:RDF></metadata><defs
     id="defs5221" /><g
     transform="matrix(1.25,0,0,-1.25,0,650.99999)"
     id="g5225"><g
       id="g5227"><path
         id="path5229"
         style="fill:#ffffff;fill-opacity:1;fill-rule:nonzero;stroke:none"
         d="m 47.98,520.398 c -26.246,0 -47.578,-21.336 -47.578,-47.578 l 0,-424.848 C 0.402,21.737 21.734,0.398 47.98,0.398 l 424.836,0 c 26.235,0 47.586,21.339 47.586,47.574 l 0,424.848 c 0,26.242 -21.351,47.578 -47.586,47.578 l -424.836,0 z" /><path
         id="path5231"
         style="fill:#154889;fill-opacity:1;fill-rule:nonzero;stroke:none"
         d="m 47.98,19.913 c -15.492,0 -28.058,12.563 -28.058,28.059 l 0,424.848 c 0,15.503 12.566,28.07 28.058,28.07 l 424.836,0 c 15.496,0 28.059,-12.567 28.059,-28.07 l 0,-424.848 c 0,-15.496 -12.563,-28.059 -28.059,-28.059" /><path
         id="path5233"
         style="fill:#ffffff;fill-opacity:1;fill-rule:nonzero;stroke:none"
         d="m 260.398,484.847 c -123.949,0 -224.441,-100.488 -224.441,-224.453 0,-123.949 100.492,-224.438 224.441,-224.438 123.961,0 224.438,100.489 224.438,224.438 0,123.965 -100.477,224.453 -224.438,224.453 z m 0,-24.055 c 110.676,0 200.387,-89.719 200.387,-200.398 0,-110.676 -89.711,-200.387 -200.387,-200.387 -110.679,0 -200.386,89.711 -200.386,200.387 0,110.679 89.707,200.398 200.386,200.398 z M 177.301,376.64 c -18.641,-0.285 -37.016,-8.594 -49.571,-24.293 -9.164,-11.473 -14.164,-25.719 -14.164,-40.395 l 32.352,0 c 0,17.856 14.477,32.336 32.348,32.336 17.867,0 32.347,-14.48 32.347,-32.336 0,-7.312 -2.465,-14.406 -7.023,-20.129 l -90.024,-113.316 0,-30.324 129.399,0 0,32.344 -86.93,0 72.766,91.015 c 22.312,27.914 17.785,68.621 -10.125,90.93 -12.215,9.762 -26.875,14.39 -41.375,14.168 z m 165.363,-4.02 -61.996,-124.898 c -4.434,-8.942 -6.746,-18.781 -6.746,-28.766 l 0,-10.105 c 0,-35.739 28.961,-64.699 64.703,-64.699 35.734,0 64.691,28.96 64.691,64.699 l 0,18.195 c 0,29.027 -23.539,52.566 -52.566,52.566 -6.863,0 -13.668,-1.351 -20.02,-3.964 l 48.329,96.972 -36.395,0 z m -4.039,-121.312 c 17.852,0 32.344,-14.481 32.344,-32.352 l 0,-10.105 c 0,-17.871 -14.492,-32.356 -32.344,-32.356 -17.859,0 -32.355,14.485 -32.355,32.356 l 0,10.105 c 0,17.871 14.496,32.352 32.355,32.352 z" /><path
         id="path5235"
         style="fill:#000000;fill-opacity:1;fill-rule:nonzero;stroke:none"
         d="M 47.977,520.8 C 21.52,520.8 0,499.28 0,472.82 L 0,47.972 C 0,21.519 21.52,-0.001 47.977,-0.001 l 424.839,0 c 26.454,0 47.985,21.52 47.985,47.973 l 0,424.848 c 0,26.46 -21.531,47.98 -47.985,47.98 l -424.839,0 z m 0,-0.398 424.839,0 c 26.235,0 47.582,-21.34 47.582,-47.582 l 0,-424.848 c 0,-26.235 -21.347,-47.57 -47.582,-47.57 l -424.839,0 c -26.243,0 -47.579,21.335 -47.579,47.57 l 0,424.848 c 0,26.242 21.336,47.582 47.579,47.582 z" /></g></g></svg>