<?xml version="1.0" encoding="UTF-8" standalone="no"?>
<svg
   xmlns:dc="http://purl.org/dc/elements/1.1/"
   xmlns:cc="http://creativecommons.org/ns#"
   xmlns:rdf="http://www.w3.org/1999/02/22-rdf-syntax-ns#"
   xmlns:svg="http://www.w3.org/2000/svg"
   xmlns="http://www.w3.org/2000/svg"
   viewBox="0 0 600.99628 600.99628"
   height="600.99628"
   width="600.99628"
   xml:space="preserve"
   version="1.1"
   id="svg8759"><metadata
     id="metadata8765"><rdf:RDF><cc:Work
         rdf:about=""><dc:format>image/svg+xml</dc:format><dc:type
           rdf:resource="http://purl.org/dc/dcmitype/StillImage" /><dc:title></dc:title></cc:Work></rdf:RDF></metadata><defs
     id="defs8763" /><g
     transform="matrix(1.25,0,0,-1.25,0,600.99628)"
     id="g8767"><g
       id="g8769"><path
         id="path8771"
         style="fill:#ffffff;fill-opacity:1;fill-rule:nonzero;stroke:none"
         d="m 480.398,240.399 c 0,-132.551 -107.449,-240 -240,-240 -132.55,0 -240,107.449 -240,240 0,132.55 107.45,240 240,240 132.551,0 240,-107.45 240,-240 z" /><path
         id="path8773"
         style="fill:#000000;fill-opacity:1;fill-rule:nonzero;stroke:none"
         d="M 240.398,480.797 C 107.633,480.797 0,373.164 0,240.399 0,107.633 107.633,0 240.398,0 c 132.766,0 240.399,107.633 240.399,240.399 0,132.765 -107.633,240.398 -240.399,240.398 z m 0,-0.398 c 132.551,0 240,-107.45 240,-240 0,-132.551 -107.449,-240 -240,-240 -132.55,0 -240,107.449 -240,240 0,132.55 107.45,240 240,240 z" /><path
         id="path8775"
         style="fill:#c1121c;fill-opacity:1;fill-rule:nonzero;stroke:none"
         d="m 240.398,472.399 c -127.746,0 -232,-104.254 -232,-232 0,-127.747 104.254,-232 232,-232 127.747,0 232,104.253 232,232 0,127.746 -104.253,232 -232,232 z m 0,-64.321 c 92.989,0 167.68,-74.691 167.68,-167.679 0,-92.989 -74.691,-167.68 -167.68,-167.68 -92.988,0 -167.679,74.691 -167.679,167.68 0,92.988 74.691,167.679 167.679,167.679 z" /><path
         id="path8777"
         style="fill:#000000;fill-opacity:1;fill-rule:nonzero;stroke:none"
         d="m 23.832,456.512 0,-0.024 -0.023,0 0.023,0.024 z" /><path
         id="path8779"
         style="fill:#000000;fill-opacity:1;fill-rule:nonzero;stroke:none"
         d="m 23.809,456.512 0.023,0 0,-0.023 -0.023,0 0,0.023 z" /><path
         id="path8781"
         style="fill:#000000;fill-opacity:1;fill-rule:nonzero;stroke:none"
         d="m 23.809,456.488 0,0.024 0.023,-0.024 -0.023,0 z m 0.023,0 -0.023,0.024 0,-0.024 0.023,0 z" /><path
         id="path8783"
         style="fill:#000000;fill-opacity:1;fill-rule:nonzero;stroke:none"
         d="m 23.859,456.488 -0.05,0 0.023,0 0,0.024 0.027,-0.024 z" /><path
         id="path8785"
         style="fill:#000000;fill-opacity:1;fill-rule:nonzero;stroke:none"
         d="m 23.809,456.488 0,0.024 0,-0.024 0.023,0.024 -0.023,-0.024 z" /><path
         id="path8787"
         style="fill:#000000;fill-opacity:1;fill-rule:nonzero;stroke:none"
         d="m 23.809,456.512 0.023,0 0,-0.023 -0.023,0 0,0.023 z" /><path
         id="path8789"
         style="fill:#000000;fill-opacity:1;fill-rule:nonzero;stroke:none"
         d="m 23.859,456.512 0,-0.047 -0.05,0 0.05,0.047 z" /><path
         id="path8791"
         style="fill:#000000;fill-opacity:1;fill-rule:nonzero;stroke:none"
         d="m 23.809,456.512 0.051,0 0,-0.047 -0.051,0 0,0.047 z" /><path
         id="path8793"
         style="fill:#000000;fill-opacity:1;fill-rule:nonzero;stroke:none"
         d="m 23.809,456.465 0,0.047 0.05,-0.047 -0.05,0 z m 0.05,0 -0.05,0.047 0,-0.047 0.05,0 z" /><path
         id="path8795"
         style="fill:#000000;fill-opacity:1;fill-rule:nonzero;stroke:none"
         d="m 23.859,456.465 -0.05,0 0.023,0 0,0.047 0.027,-0.047 z" /><path
         id="path8797"
         style="fill:#000000;fill-opacity:1;fill-rule:nonzero;stroke:none"
         d="m 23.809,456.465 0,0.047 0,-0.047 0.05,0.047 -0.05,-0.047 z" /><path
         id="path8799"
         style="fill:#000000;fill-opacity:1;fill-rule:nonzero;stroke:none"
         d="m 23.809,456.512 0.051,0 0,-0.047 -0.051,0 0,0.047 z" /><path
         id="path8801"
         style="fill:#000000;fill-opacity:1;fill-rule:nonzero;stroke:none"
         d="m 23.859,456.512 0,-0.047 -0.05,0 0.05,0.047 z" /><path
         id="path8803"
         style="fill:#000000;fill-opacity:1;fill-rule:nonzero;stroke:none"
         d="m 23.809,456.512 0.051,0 0,-0.047 -0.051,0 0,0.047 z" /><path
         id="path8805"
         style="fill:#000000;fill-opacity:1;fill-rule:nonzero;stroke:none"
         d="m 23.809,456.465 0,0.047 0.05,-0.047 -0.05,0 z m 0.05,0 -0.05,0.047 0,-0.047 0.05,0 z" /><path
         id="path8807"
         style="fill:#000000;fill-opacity:1;fill-rule:nonzero;stroke:none"
         d="m 23.859,456.465 -0.05,0 0.023,0 0,0.047 0.027,-0.047 z" /><path
         id="path8809"
         style="fill:#000000;fill-opacity:1;fill-rule:nonzero;stroke:none"
         d="m 23.809,456.465 0,0.047 0,-0.047 0.05,0.047 -0.05,-0.047 z" /><path
         id="path8811"
         style="fill:#000000;fill-opacity:1;fill-rule:nonzero;stroke:none"
         d="m 23.809,456.512 0.051,0 0,-0.047 -0.051,0 0,0.047 z" /><path
         id="path8813"
         style="fill:#000000;fill-opacity:1;fill-rule:nonzero;stroke:none"
         d="m 23.859,456.512 0,-0.047 -0.05,0 0.05,0.047 z" /><path
         id="path8815"
         style="fill:#000000;fill-opacity:1;fill-rule:nonzero;stroke:none"
         d="m 23.809,456.512 0.051,0 0,-0.047 -0.051,0 0,0.047 z" /><path
         id="path8817"
         style="fill:#000000;fill-opacity:1;fill-rule:nonzero;stroke:none"
         d="m 23.809,456.465 0,0.047 0.05,-0.047 -0.05,0 z m 0.05,0 -0.05,0.047 0,-0.047 0.05,0 z" /><path
         id="path8819"
         style="fill:#000000;fill-opacity:1;fill-rule:nonzero;stroke:none"
         d="m 23.859,456.465 -0.05,0 0.023,0 0,0.047 0.027,-0.047 z" /><path
         id="path8821"
         style="fill:#000000;fill-opacity:1;fill-rule:nonzero;stroke:none"
         d="m 23.809,456.465 0,0.047 0,-0.047 0.05,0.047 -0.05,-0.047 z" /><path
         id="path8823"
         style="fill:#000000;fill-opacity:1;fill-rule:nonzero;stroke:none"
         d="m 23.809,456.512 0.051,0 0,-0.047 -0.051,0 0,0.047 z" /><path
         id="path8825"
         style="fill:#c1121c;fill-opacity:1;fill-rule:nonzero;stroke:none"
         d="m 112.586,203.277 0,104.895 c 0,6.238 5.066,11.305 11.305,11.305 l 93.589,0 c 6.243,0 11.305,-5.067 11.305,-11.305 l 0,-104.895 -116.199,0 z M 215.871,161.32 c -1.781,0 -3.223,1.442 -3.223,3.223 l 0,32.289 c 0,1.77 1.442,3.223 3.223,3.223 l 9.691,0 c 1.782,0 3.223,-1.453 3.223,-3.223 l 0,-32.289 c 0,-1.781 -1.441,-3.223 -3.223,-3.223 l -9.691,0 z m -80.687,0 c -1.782,0 -3.223,1.442 -3.223,3.223 l 0,32.289 c 0,1.77 1.441,3.223 3.223,3.223 l 9.679,0 c 1.782,0 3.235,-1.453 3.235,-3.223 l 0,-8.883 c 0,-1.777 1.441,-3.222 3.222,-3.222 l 6.129,0 c 1.66,0 3.262,0.633 4.461,1.781 l 2.094,2 c 1.805,1.723 4.191,2.68 6.676,2.68 2.496,0 4.882,-0.957 6.687,-2.68 l 2.098,-2 c 1.199,-1.148 2.797,-1.781 4.457,-1.781 l 6.129,0 c 1.781,0 3.238,1.445 3.238,3.222 l 0,8.883 c 0,1.77 1.441,3.223 3.223,3.223 l 9.679,0 c 1.782,0 3.223,-1.453 3.223,-3.223 l 0,-32.289 c 0,-1.781 -1.441,-3.223 -3.223,-3.223 l -9.679,0 c -1.782,0 -3.223,1.442 -3.223,3.223 l 0,8.883 c 0,1.781 -1.457,3.234 -3.238,3.234 l -6.129,0 c -1.66,0 -3.258,-0.656 -4.457,-1.793 l -2.098,-2 c -1.805,-1.707 -4.191,-2.664 -6.687,-2.664 -2.485,0 -4.871,0.957 -6.676,2.664 l -2.094,2 c -1.199,1.137 -2.801,1.793 -4.461,1.793 l -6.129,0 c -1.781,0 -3.222,-1.453 -3.222,-3.234 l 0,-8.883 c 0,-1.781 -1.453,-3.223 -3.235,-3.223 l -9.679,0 z m -19.364,0 c -1.777,0 -3.234,1.442 -3.234,3.223 l 0,32.289 c 0,1.77 1.457,3.223 3.234,3.223 l 9.684,0 c 1.777,0 3.223,-1.453 3.223,-3.223 l 0,-32.289 c 0,-1.781 -1.446,-3.223 -3.223,-3.223" /><path
         id="path8827"
         style="fill:#000000;fill-opacity:1;fill-rule:nonzero;stroke:none"
         d="m 248.812,213.211 c 0,1.988 0.641,3.914 1.84,5.5 l 1.832,2.449 c 1.27,1.707 2.348,3.563 3.211,5.524 l 12.078,27.73 c 1.211,2.789 3.961,4.594 6.989,4.594 l 76.316,0 c 3.039,0 5.789,-1.805 7,-4.594 l 12.07,-27.73 c 0.86,-1.961 1.938,-3.817 3.223,-5.524 l 1.828,-2.449 c 1.188,-1.586 1.828,-3.512 1.828,-5.5 l 0,-19.844 c 0,-4.203 -3.414,-7.621 -7.632,-7.621 l -112.95,0 c -4.203,0 -7.633,3.418 -7.633,7.621" /><path
         id="path8829"
         style="fill:#ffffff;fill-opacity:1;fill-rule:nonzero;stroke:none"
         d="m 263.312,225.438 10.493,24.097 c 0.496,1.114 1.59,1.84 2.812,1.84 l 72.617,0 c 1.227,0 2.317,-0.726 2.801,-1.84 l 10.492,-24.097" /><path
         id="path8831"
         style="fill:#000000;fill-opacity:1;fill-rule:nonzero;stroke:none"
         d="m 351.078,182.692 18.317,0 0,-16.79 c 0,-2.535 -2.047,-4.582 -4.579,-4.582 l -9.16,0 c -2.519,0 -4.578,2.047 -4.578,4.582 l 0,16.79 z m -94.633,0 18.317,0 0,-16.79 c 0,-2.535 -2.047,-4.582 -4.567,-4.582 l -9.16,0 c -2.543,0 -4.59,2.047 -4.59,4.582" /></g></g></svg>