<?xml version="1.0" encoding="UTF-8" standalone="no"?>
<svg
   xmlns:dc="http://purl.org/dc/elements/1.1/"
   xmlns:cc="http://creativecommons.org/ns#"
   xmlns:rdf="http://www.w3.org/1999/02/22-rdf-syntax-ns#"
   xmlns:svg="http://www.w3.org/2000/svg"
   xmlns="http://www.w3.org/2000/svg"
   viewBox="0 0 601.00012 601.00031"
   height="601.00031"
   width="601.00012"
   xml:space="preserve"
   version="1.1"
   id="svg3981"><metadata
     id="metadata3987"><rdf:RDF><cc:Work
         rdf:about=""><dc:format>image/svg+xml</dc:format><dc:type
           rdf:resource="http://purl.org/dc/dcmitype/StillImage" /><dc:title></dc:title></cc:Work></rdf:RDF></metadata><defs
     id="defs3985"><clipPath
       id="clipPath4003"
       clipPathUnits="userSpaceOnUse"><path
         id="path4005"
         d="m 1.602,524.765 533.195,0 0,-802.059 -533.195,0 0,802.059 z" /></clipPath><clipPath
       id="clipPath4011"
       clipPathUnits="userSpaceOnUse"><path
         id="path4013"
         d="M 0,0 481,0 481,481 0,481 0,0 Z" /></clipPath></defs><g
     transform="matrix(1.25,0,0,-1.25,0,601.00029)"
     id="g3989"><g
       id="g3991"><path
         id="path3993"
         style="fill:#ffffff;fill-opacity:1;fill-rule:nonzero;stroke:none"
         d="M 29.199,480.402 C 0.336,480.417 0.398,451.597 0.398,451.597 l 0,-422.398 c 0,0 -0.062,-28.825 28.801,-28.797 l 422.403,0 c 29.05,-0.031 28.796,28.797 28.796,28.797 l 0,422.398 c 0,0 0.239,28.899 -28.796,28.805 l -422.403,0 z" /><path
         id="path3995"
         style="fill:#154889;fill-opacity:1;fill-rule:nonzero;stroke:none"
         d="M 29.199,470.8 C 18.598,470.8 10,462.203 10,451.601 L 10,29.199 c 0,-10.61 8.598,-19.2 19.199,-19.2 l 422.403,0 c 10.601,0 19.199,8.59 19.199,19.2 l 0,422.402 c 0,10.602 -8.598,19.199 -19.199,19.199 l -422.403,0 z m 48.801,-68 324.801,0 0,-324.801 -324.801,0 0,324.801 z" /><path
         id="path3997"
         style="fill:#000000;fill-opacity:1;fill-rule:nonzero;stroke:none"
         d="M 29.199,480.8 C 14.633,480.808 7.258,473.484 3.617,466.183 -0.023,458.882 0,451.593 0,451.593 L 0,29.199 c 0,0 -0.02,-7.289 3.617,-14.586 C 7.258,7.312 14.633,-0.012 29.199,-0.001 l 422.403,0 c 14.656,-0.015 22.035,7.313 25.652,14.614 3.613,7.297 3.547,14.582 3.547,14.586 l 0,422.398 c 0,0.004 0.062,7.309 -3.555,14.613 -3.617,7.309 -10.996,14.637 -25.644,14.59 l -422.403,0 z m 0,-0.398 422.403,0 c 29.035,0.094 28.796,-28.805 28.796,-28.805 l 0,-422.398 c 0,0 0.254,-28.828 -28.796,-28.797 l -422.403,0 C 0.336,0.374 0.398,29.199 0.398,29.199 l 0,422.398 c 0,0 -0.062,28.82 28.801,28.805 z" /></g><g
       id="g3999"><g
         clip-path="url(#clipPath4003)"
         id="g4001"><g
           transform="translate(0,-0.199768)"
           id="g4007"><g
             id="g4009" /><g
             id="g4015"><g
               id="g4017"
               clip-path="url(#clipPath4011)"><g
                 id="g4019"><path
                   id="path4021"
                   style="fill:#000000;fill-opacity:1;fill-rule:evenodd;stroke:none"
                   d="m 211.832,113.234 115.789,0 0,17.368 11.578,0 0,225.789 c 0,6.394 -5.183,11.574 -11.578,11.574 l -115.789,0 c -6.394,0 -11.582,-5.18 -11.582,-11.574 l 0,-11.578 -5.785,0 c -4.676,0 -8.895,-2.813 -10.688,-7.125 l -6.683,-16.036 c 0,-37.058 -9.36,-73.515 -27.215,-105.992 L 124.93,170.281 c -3.758,-6.836 -5.731,-14.511 -5.731,-22.308 0,-12.414 6.621,-23.883 17.367,-30.086 10.747,-6.203 23.993,-6.203 34.739,0 10.746,6.203 17.367,17.672 17.367,30.086 l 0,141.84 11.578,0 0,-159.211 11.582,0 0,-17.368 z" /><path
                   id="path4023"
                   style="fill:#ffffff;fill-opacity:1;fill-rule:evenodd;stroke:none"
                   d="m 177.094,249.344 c -4.461,-13.586 -10.18,-26.731 -17.071,-39.262 l -24.949,-45.379 c -2.82,-5.125 -4.293,-10.883 -4.293,-16.73 0,-8.274 4.414,-15.918 11.578,-20.059 7.161,-4.133 15.993,-4.133 23.153,0 7.168,4.141 11.582,11.785 11.582,20.059 l 0,101.371 z m 57.898,20.203 69.469,0 c 6.394,0 11.582,5.187 11.582,11.582 l 0,52.105 c 0,6.395 -5.188,11.579 -11.582,11.579 l -69.469,0 c -6.394,0 -11.582,-5.184 -11.582,-11.579 l 0,-52.105 c 0,-6.395 5.188,-11.582 11.582,-11.582 z" /></g></g></g></g></g></g></g></svg>