<?xml version="1.0" encoding="UTF-8" standalone="no"?>
<!-- Created with Inkscape (http://www.inkscape.org/) -->

<svg
   xmlns:dc="http://purl.org/dc/elements/1.1/"
   xmlns:cc="http://creativecommons.org/ns#"
   xmlns:rdf="http://www.w3.org/1999/02/22-rdf-syntax-ns#"
   xmlns:svg="http://www.w3.org/2000/svg"
   xmlns="http://www.w3.org/2000/svg"
   version="1.1"
   width="858"
   height="390"
   viewBox="-31.5 -10 858 390"
   id="svg2"
   xml:space="preserve"><metadata
   id="metadata134"><rdf:RDF><cc:Work
       rdf:about=""><dc:format>image/svg+xml</dc:format><dc:type
         rdf:resource="http://purl.org/dc/dcmitype/StillImage" /><dc:title></dc:title></cc:Work></rdf:RDF></metadata><defs
   id="defs132" />
<g
   id="Tafel">
	<rect
   width="615.49701"
   height="136.28999"
   x="37.474998"
   y="92.752998"
   id="rect4543"
   style="fill:#f4f4f4" />
	
		<rect
   width="615.49701"
   height="136.28999"
   x="37.474998"
   y="92.752998"
   id="rect4543_2_"
   style="fill:none;stroke:#000000;stroke-width:1.5;stroke-linecap:round;stroke-linejoin:round" />
	<path
   d="m 553.952,218.769 -2.852,4.939 h -5.704 l -2.852,-4.939 2.852,-4.939 h 5.704 l 2.852,4.939 z"
   id="path5470"
   style="fill:#c1c1c1;stroke:#000000;stroke-width:0.83289999;stroke-linejoin:round" />
	<path
   d="m 553.952,102.754 -2.852,4.94 h -5.704 l -2.852,-4.94 2.852,-4.939 h 5.704 l 2.852,4.939 z"
   id="path5472"
   style="fill:#c1c1c1;stroke:#000000;stroke-width:0.83289999;stroke-linejoin:round" />
	<path
   d="m 149.11,102.754 -2.852,4.94 h -5.704 l -2.852,-4.94 2.852,-4.939 h 5.704 l 2.852,4.939 z"
   id="path5476"
   style="fill:#c1c1c1;stroke:#000000;stroke-width:0.83289999;stroke-linejoin:round" />
	<path
   d="m 149.402,219.035 -2.852,4.939 h -5.704 l -2.852,-4.939 2.852,-4.939 h 5.704 l 2.852,4.939 z"
   id="path5478"
   style="fill:#c1c1c1;stroke:#000000;stroke-width:0.83289999;stroke-linejoin:round" />
</g>
<g
   id="Pfosten">
	<linearGradient
   x1="718.73853"
   y1="191.80569"
   x2="791.44171"
   y2="191.80569"
   id="rect5530_4_"
   gradientUnits="userSpaceOnUse">
		<stop
   id="stop12"
   style="stop-color:#868686;stop-opacity:1"
   offset="0" />
		<stop
   id="stop14"
   style="stop-color:#939393;stop-opacity:1"
   offset="0.0299" />
		<stop
   id="stop16"
   style="stop-color:#bababa;stop-opacity:1"
   offset="0.1279" />
		<stop
   id="stop18"
   style="stop-color:#d8d8d8;stop-opacity:1"
   offset="0.2251" />
		<stop
   id="stop20"
   style="stop-color:#eeeeee;stop-opacity:1"
   offset="0.3202" />
		<stop
   id="stop22"
   style="stop-color:#fbfbfb;stop-opacity:1"
   offset="0.412" />
		<stop
   id="stop24"
   style="stop-color:#ffffff;stop-opacity:1"
   offset="0.49689999" />
		<stop
   id="stop26"
   style="stop-color:#fbfbfb;stop-opacity:1"
   offset="0.58560002" />
		<stop
   id="stop28"
   style="stop-color:#f1f1f1;stop-opacity:1"
   offset="0.66399997" />
		<stop
   id="stop30"
   style="stop-color:#dfdfdf;stop-opacity:1"
   offset="0.73860002" />
		<stop
   id="stop32"
   style="stop-color:#c5c5c5;stop-opacity:1"
   offset="0.8107" />
		<stop
   id="stop34"
   style="stop-color:#a4a4a4;stop-opacity:1"
   offset="0.88120002" />
		<stop
   id="stop36"
   style="stop-color:#7d7d7d;stop-opacity:1"
   offset="0.94950002" />
		<stop
   id="stop38"
   style="stop-color:#5a5a5a;stop-opacity:1"
   offset="1" />
	</linearGradient>
	<path
   d="m 718.739,19.398 h 72.703 v 339.557 c -12.052,2.251 -23.765,10.612 -36.531,0 -12.057,-11.298 -24.114,-4.383 -36.172,0 V 19.398 z"
   id="rect5530"
   style="fill:url(#rect5530_4_)" />
	<path
   d="m 717.057,13.464 c 24.342,-3.34 51.063,-3.791 76.066,0 V 56.99 H 717.057 V 13.464 z"
   id="rect5542"
   style="fill:#1a1a1a" />
	<path
   d="M 718.739,358.955 V 19.398 h 72.703 v 339.557"
   id="rect5530_2_"
   style="fill:none;stroke:#000000;stroke-width:1.5;stroke-linecap:round" />
</g>
<g
   id="Text">
	<path
   d="m 94.307,167.575 v -10.261 h 25.43 v 14.581 c 0,7.102 -2.471,13.107 -7.413,18.017 -4.941,4.91 -10.98,7.364 -18.115,7.364 -5.629,0 -10.351,-1.351 -14.163,-4.05 -3.812,-2.7 -6.554,-5.622 -8.223,-8.764 -1.179,-2.094 -1.997,-4.385 -2.455,-6.873 -0.458,-2.487 -0.688,-8.035 -0.688,-16.642 0,-8.608 0.229,-14.155 0.688,-16.643 0.459,-2.488 1.276,-4.778 2.455,-6.873 1.669,-3.109 4.41,-6.039 8.223,-8.788 3.813,-2.749 8.534,-4.124 14.163,-4.124 6.775,0 12.38,2.086 16.814,6.259 4.435,4.173 7.209,9.156 8.321,14.949 h -11.438 c -0.884,-2.749 -2.528,-5.154 -4.934,-7.216 -2.406,-2.062 -5.327,-3.093 -8.764,-3.093 -2.553,0 -4.762,0.523 -6.627,1.571 -1.866,1.047 -3.339,2.258 -4.419,3.633 -1.407,1.833 -2.364,3.846 -2.872,6.039 -0.507,2.193 -0.761,6.955 -0.761,14.286 0,7.364 0.254,12.142 0.761,14.335 0.508,2.193 1.465,4.173 2.872,5.94 1.08,1.44 2.553,2.675 4.419,3.707 1.865,1.031 4.074,1.546 6.627,1.546 4.124,0 7.602,-1.408 10.433,-4.222 2.831,-2.814 4.246,-6.48 4.246,-10.997 v -3.682 h -14.58 z m 34.659,3.584 c 0,-5.466 0.426,-9.541 1.276,-12.225 0.852,-2.684 2.259,-5.105 4.223,-7.266 1.407,-1.538 3.346,-3.011 5.817,-4.418 2.471,-1.407 5.703,-2.111 9.695,-2.111 3.928,0 7.135,0.704 9.623,2.111 2.487,1.408 4.435,2.88 5.842,4.418 1.964,2.16 3.371,4.582 4.222,7.266 0.851,2.684 1.276,6.759 1.276,12.225 0,5.563 -0.426,9.688 -1.276,12.371 -0.85,2.683 -2.258,5.106 -4.222,7.266 -1.407,1.571 -3.354,3.044 -5.842,4.419 -2.488,1.374 -5.695,2.062 -9.623,2.062 -3.992,0 -7.225,-0.688 -9.695,-2.062 -2.472,-1.375 -4.41,-2.848 -5.817,-4.419 -1.964,-2.159 -3.371,-4.582 -4.223,-7.266 -0.85,-2.683 -1.276,-6.807 -1.276,-12.371 l 0,0 z m 31.764,0.098 c 0,-3.699 -0.188,-6.3 -0.564,-7.806 -0.377,-1.505 -1.023,-2.945 -1.939,-4.32 -1.8,-2.488 -4.55,-3.731 -8.248,-3.731 -3.764,0 -6.513,1.244 -8.247,3.731 -0.982,1.375 -1.645,2.814 -1.988,4.32 -0.344,1.506 -0.516,4.075 -0.516,7.708 0,3.731 0.172,6.357 0.516,7.879 0.344,1.522 1.006,2.954 1.988,4.296 1.734,2.487 4.483,3.731 8.247,3.731 3.698,0 6.448,-1.244 8.248,-3.731 0.916,-1.342 1.562,-2.766 1.939,-4.271 0.375,-1.505 0.564,-4.107 0.564,-7.806 l 0,0 z m 60.482,3.829 h -31.714 c 0,4.189 1.137,7.331 3.412,9.426 2.274,2.095 5.179,3.142 8.714,3.142 4.222,0 7.953,-1.637 11.193,-4.909 l 7.412,6.333 c -2.52,2.945 -5.359,5.049 -8.518,6.309 -3.159,1.26 -6.455,1.89 -9.892,1.89 -5.237,0 -10.31,-1.694 -15.219,-5.081 -4.909,-3.388 -7.364,-10.318 -7.364,-20.791 0,-9.917 2.267,-16.773 6.8,-20.57 4.532,-3.796 9.27,-5.695 14.212,-5.695 5.597,0 10.489,1.939 14.679,5.817 4.189,3.878 6.284,9.107 6.284,15.686 v 8.443 z m -31.714,-8.443 H 211 c -0.163,-3.83 -1.243,-6.759 -3.239,-8.788 -1.997,-2.029 -4.501,-3.043 -7.512,-3.043 -3.044,0 -5.572,1.015 -7.585,3.043 -2.012,2.029 -3.068,4.958 -3.166,8.788 l 0,0 z m 43.104,-20.914 v -15.464 h 10.26 v 15.464 h 7.463 v 7.855 h -7.463 v 29.652 c 0,2.553 1.211,3.829 3.634,3.829 h 3.829 v 9.623 h -5.352 c -3.567,0 -6.521,-1.08 -8.861,-3.24 -2.34,-2.16 -3.51,-5.253 -3.51,-9.279 v -30.585 h -5.105 v -7.855 h 5.105 z m 27.296,50.959 v -71.529 h 10.26 v 26.02 h 0.196 c 3.175,-4.026 7.594,-6.039 13.256,-6.039 3.96,0 7.781,1.505 11.463,4.517 3.682,3.012 5.522,7.396 5.522,13.157 v 33.875 h -10.26 v -30.34 c 0,-3.437 -0.958,-6.12 -2.872,-8.051 -1.915,-1.931 -4.296,-2.896 -7.144,-2.896 -2.945,0 -5.375,0.966 -7.29,2.896 -1.914,1.931 -2.872,4.615 -2.872,8.051 v 30.34 h -10.259 z m 93.472,-21.602 h -31.714 c 0,4.189 1.137,7.331 3.412,9.426 2.274,2.095 5.179,3.142 8.714,3.142 4.222,0 7.953,-1.637 11.193,-4.909 l 7.413,6.333 c -2.521,2.945 -5.359,5.049 -8.519,6.309 -3.158,1.26 -6.455,1.89 -9.892,1.89 -5.236,0 -10.31,-1.694 -15.219,-5.081 -4.909,-3.388 -7.364,-10.318 -7.364,-20.791 0,-9.917 2.267,-16.773 6.8,-20.57 4.532,-3.796 9.271,-5.695 14.212,-5.695 5.597,0 10.489,1.939 14.679,5.817 4.189,3.878 6.284,9.107 6.284,15.686 v 8.443 z m -31.714,-8.443 h 21.503 c -0.164,-3.83 -1.244,-6.759 -3.24,-8.788 -1.997,-2.029 -4.501,-3.043 -7.512,-3.043 -3.044,0 -5.572,1.015 -7.585,3.043 -2.012,2.029 -3.068,4.958 -3.166,8.788 l 0,0 z m 36.869,21.551 7.168,-7.069 c 4.451,4.353 9.802,6.529 16.054,6.529 2.912,0 5.318,-0.548 7.217,-1.645 1.897,-1.097 2.847,-2.725 2.847,-4.885 0,-2.979 -2.078,-4.647 -6.234,-5.008 l -9.033,-0.834 c -4.222,-0.327 -7.724,-1.718 -10.506,-4.173 -2.782,-2.455 -4.173,-5.875 -4.173,-10.26 0,-5.171 1.816,-9.083 5.449,-11.733 3.633,-2.65 8.149,-3.977 13.55,-3.977 4.451,0 8.264,0.63 11.438,1.89 3.174,1.26 6.021,2.938 8.541,5.032 l -6.332,7.462 c -2.029,-1.375 -4.124,-2.504 -6.284,-3.387 -2.159,-0.884 -4.614,-1.326 -7.363,-1.326 -3.273,0 -5.548,0.581 -6.824,1.743 -1.276,1.162 -1.914,2.626 -1.914,4.394 0,1.113 0.474,2.144 1.423,3.093 0.949,0.949 2.717,1.522 5.303,1.718 l 8.443,0.589 c 5.269,0.36 9.049,1.988 11.339,4.885 2.29,2.897 3.436,6.358 3.436,10.383 0,5.007 -2.045,8.87 -6.136,11.585 -4.09,2.717 -9.081,4.075 -14.973,4.075 -8.477,0.001 -15.956,-3.026 -22.436,-9.081 l 0,0 z m 54.541,-42.465 v -15.464 h 10.26 v 15.464 h 7.462 v 7.855 h -7.462 v 29.652 c 0,2.553 1.211,3.829 3.633,3.829 h 3.829 v 9.623 h -5.351 c -3.567,0 -6.521,-1.08 -8.861,-3.24 -2.34,-2.16 -3.51,-5.253 -3.51,-9.279 v -30.585 h -5.105 v -7.855 h 5.105 z m 27.295,50.959 v -50.959 h 10.261 v 5.45 h 0.196 c 3.175,-4.026 7.593,-6.039 13.255,-6.039 3.731,0 7.282,1.309 10.653,3.927 l -7.413,8.837 c -2.226,-1.669 -4.483,-2.503 -6.774,-2.504 -2.521,0 -4.803,0.843 -6.849,2.528 -2.046,1.686 -3.068,4.394 -3.068,8.125 v 30.634 h -10.261 z m 65.834,0 v -4.517 h -0.245 c -2.062,3.403 -6.252,5.105 -12.568,5.105 -5.694,0 -10.113,-1.481 -13.255,-4.442 -3.142,-2.963 -4.713,-6.669 -4.713,-11.12 0,-4.025 1.391,-7.544 4.173,-10.555 2.782,-3.011 6.922,-4.517 12.421,-4.517 h 14.188 v -5.302 c 0,-4.353 -3.485,-6.529 -10.457,-6.529 -4.844,0 -8.067,1.292 -9.671,3.878 l -8.052,-6.088 c 3.567,-4.975 9.295,-7.462 17.183,-7.462 6.284,0 11.39,1.228 15.317,3.682 3.927,2.454 5.891,6.824 5.891,13.108 v 34.758 h -10.212 z m 0,-17.871 v -3.731 h -12.273 c -5.924,0 -8.886,2.045 -8.886,6.137 0,1.734 0.745,3.24 2.233,4.516 1.489,1.277 3.969,1.915 7.438,1.915 4.254,0 7.232,-0.475 8.935,-1.424 1.703,-0.949 2.553,-3.419 2.553,-7.413 l 0,0 z m 42.612,-20.913 v -9.622 h 6.137 c 3.601,0 5.4,-1.98 5.4,-5.94 0,-2.618 -0.523,-4.435 -1.571,-5.449 -1.865,-1.505 -4.827,-2.209 -8.886,-2.111 -3.73,0.098 -6.324,0.679 -7.781,1.743 -1.456,1.063 -2.233,2.626 -2.331,4.688 v 55.475 h -10.261 v -55.475 c 0,-5.597 2.021,-9.778 6.062,-12.543 4.041,-2.765 9.156,-4.148 15.342,-4.148 5.826,0 10.563,1.546 14.213,4.64 3.648,3.093 5.474,7.208 5.474,12.347 0,5.531 -2.438,9.328 -7.315,11.39 4.877,1.964 7.315,5.678 7.315,11.144 v 18.213 c 0,3.993 -1.301,7.396 -3.903,10.211 -2.602,2.814 -6.014,4.223 -10.235,4.223 h -6.333 v -9.623 h 3.584 c 4.418,0 6.627,-1.784 6.627,-5.351 v -17.87 c 0,-3.96 -1.865,-5.94 -5.597,-5.94 h -5.941 z m 74.376,17.182 h -31.714 c 0,4.189 1.138,7.331 3.412,9.426 2.274,2.095 5.179,3.142 8.714,3.142 4.222,0 7.953,-1.637 11.193,-4.909 l 7.413,6.333 c -2.521,2.945 -5.359,5.049 -8.518,6.309 -3.159,1.26 -6.456,1.89 -9.893,1.89 -5.236,0 -10.31,-1.694 -15.219,-5.081 -4.909,-3.388 -7.364,-10.318 -7.364,-20.791 0,-9.917 2.267,-16.773 6.8,-20.57 4.533,-3.797 9.271,-5.695 14.212,-5.695 5.597,0 10.49,1.939 14.68,5.817 4.188,3.878 6.283,9.107 6.283,15.686 v 8.443 z m -31.714,-8.443 h 21.503 c -0.164,-3.83 -1.244,-6.759 -3.24,-8.788 -1.996,-2.029 -4.5,-3.043 -7.512,-3.043 -3.043,0 -5.571,1.015 -7.584,3.043 -2.014,2.029 -3.068,4.958 -3.167,8.788 l 0,0 z"
   id="text2766" />
</g>
<g
   id="Flanschen">
	
		<rect
   width="16.927999"
   height="18.791"
   x="134.978"
   y="73.709"
   id="rect5434"
   style="fill:#b3b3b3;stroke:#000000;stroke-width:1.5;stroke-linecap:round" />
	
		<rect
   width="16.927999"
   height="18.790001"
   x="134.978"
   y="229.23599"
   id="rect5436"
   style="fill:#b3b3b3;stroke:#000000;stroke-width:1.5;stroke-linecap:round" />
	
		<rect
   width="16.927999"
   height="18.791"
   x="539.56403"
   y="229.258"
   id="rect5442"
   style="fill:#b3b3b3;stroke:#000000;stroke-width:1.5;stroke-linecap:round" />
	
		<rect
   width="16.927999"
   height="18.791"
   x="539.62701"
   y="73.583"
   id="rect5444"
   style="fill:#b3b3b3;stroke:#000000;stroke-width:1.5;stroke-linecap:round" />
</g>
<g
   id="Ringe">
	<path
   d="M 682.87,92.854 H 795.011 V 121.95 H 682.87 V 92.854 z"
   id="path6436"
   style="fill:#b3b3b3;stroke:#000000;stroke-width:1.5;stroke-linecap:round" />
	<path
   d="m 682.87,199.55 h 112.141 v 29.096 H 682.87 V 199.55 z"
   id="path6438"
   style="fill:#b3b3b3;stroke:#000000;stroke-width:1.5;stroke-linecap:round" />
	<path
   d="m 708.19,214.812 -2.852,4.939 h -5.704 l -2.852,-4.939 2.852,-4.939 h 5.704 l 2.852,4.939 z"
   id="path8214"
   style="fill:#c1c1c1;stroke:#000000;stroke-width:0.83289999;stroke-linejoin:round" />
	<path
   d="m 708.305,107.068 -2.852,4.939 h -5.704 l -2.852,-4.939 2.852,-4.939 h 5.704 l 2.852,4.939 z"
   id="path8216"
   style="fill:#c1c1c1;stroke:#000000;stroke-width:0.83289999;stroke-linejoin:round" />
	<linearGradient
   x1="715.05878"
   y1="107.4014"
   x2="795.12128"
   y2="107.4014"
   id="rect5530_5_"
   gradientUnits="userSpaceOnUse">
		<stop
   id="stop56"
   style="stop-color:#868686;stop-opacity:1"
   offset="0" />
		<stop
   id="stop58"
   style="stop-color:#939393;stop-opacity:1"
   offset="0.0299" />
		<stop
   id="stop60"
   style="stop-color:#bababa;stop-opacity:1"
   offset="0.1279" />
		<stop
   id="stop62"
   style="stop-color:#d8d8d8;stop-opacity:1"
   offset="0.2251" />
		<stop
   id="stop64"
   style="stop-color:#eeeeee;stop-opacity:1"
   offset="0.3202" />
		<stop
   id="stop66"
   style="stop-color:#fbfbfb;stop-opacity:1"
   offset="0.412" />
		<stop
   id="stop68"
   style="stop-color:#ffffff;stop-opacity:1"
   offset="0.49689999" />
		<stop
   id="stop70"
   style="stop-color:#fbfbfb;stop-opacity:1"
   offset="0.58560002" />
		<stop
   id="stop72"
   style="stop-color:#f1f1f1;stop-opacity:1"
   offset="0.66399997" />
		<stop
   id="stop74"
   style="stop-color:#dfdfdf;stop-opacity:1"
   offset="0.73860002" />
		<stop
   id="stop76"
   style="stop-color:#c5c5c5;stop-opacity:1"
   offset="0.8107" />
		<stop
   id="stop78"
   style="stop-color:#a4a4a4;stop-opacity:1"
   offset="0.88120002" />
		<stop
   id="stop80"
   style="stop-color:#7d7d7d;stop-opacity:1"
   offset="0.94950002" />
		<stop
   id="stop82"
   style="stop-color:#5a5a5a;stop-opacity:1"
   offset="1" />
	</linearGradient>
	<path
   d="M 715.059,121.949 V 92.854 h 80.062 v 29.096 h -80.062 z"
   id="rect5530_3_"
   style="fill:url(#rect5530_5_);stroke:#000000;stroke-width:1.5" />
	<linearGradient
   x1="715.05878"
   y1="214.0977"
   x2="795.12128"
   y2="214.0977"
   id="rect5530_6_"
   gradientUnits="userSpaceOnUse">
		<stop
   id="stop86"
   style="stop-color:#868686;stop-opacity:1"
   offset="0" />
		<stop
   id="stop88"
   style="stop-color:#939393;stop-opacity:1"
   offset="0.0299" />
		<stop
   id="stop90"
   style="stop-color:#bababa;stop-opacity:1"
   offset="0.1279" />
		<stop
   id="stop92"
   style="stop-color:#d8d8d8;stop-opacity:1"
   offset="0.2251" />
		<stop
   id="stop94"
   style="stop-color:#eeeeee;stop-opacity:1"
   offset="0.3202" />
		<stop
   id="stop96"
   style="stop-color:#fbfbfb;stop-opacity:1"
   offset="0.412" />
		<stop
   id="stop98"
   style="stop-color:#ffffff;stop-opacity:1"
   offset="0.49689999" />
		<stop
   id="stop100"
   style="stop-color:#fbfbfb;stop-opacity:1"
   offset="0.58560002" />
		<stop
   id="stop102"
   style="stop-color:#f1f1f1;stop-opacity:1"
   offset="0.66399997" />
		<stop
   id="stop104"
   style="stop-color:#dfdfdf;stop-opacity:1"
   offset="0.73860002" />
		<stop
   id="stop106"
   style="stop-color:#c5c5c5;stop-opacity:1"
   offset="0.8107" />
		<stop
   id="stop108"
   style="stop-color:#a4a4a4;stop-opacity:1"
   offset="0.88120002" />
		<stop
   id="stop110"
   style="stop-color:#7d7d7d;stop-opacity:1"
   offset="0.94950002" />
		<stop
   id="stop112"
   style="stop-color:#5a5a5a;stop-opacity:1"
   offset="1" />
	</linearGradient>
	<path
   d="M 715.059,228.646 V 199.55 h 80.062 v 29.097 h -80.062 z"
   id="rect5530_1_"
   style="fill:url(#rect5530_6_);stroke:#000000;stroke-width:1.5" />
</g>
<g
   id="Rahmen">
	<path
   d="M 648.5,260.92 H 42.366 C 16.214,260.92 4.508,243.535 4.508,226.307 L 4.308,95.505 c 0,-17.243 11.698,-34.627 37.831,-34.627 h 606.589 c 26.133,0 37.83,17.384 37.83,34.613 l -0.199,130.831 c 0,17.213 -11.706,34.598 -37.859,34.598 z M 42.138,79.877 c -16.996,0 -18.831,10.918 -18.831,15.613 l 0.2,130.802 c 0,4.709 1.837,15.628 18.858,15.628 H 648.5 c 17.021,0 18.858,-10.919 18.858,-15.613 l 0.199,-130.831 c 0,-4.68 -1.835,-15.598 -18.83,-15.598 H 42.138 z"
   id="path116"
   style="fill:#7a7a7a;stroke:#000000;stroke-width:1.5;stroke-linecap:round" />
	<path
   d="m 42.138,70.127 c -21.073,0 -28.581,13.109 -28.581,25.377 l 0.2,130.787 c 0,12.276 7.516,25.378 28.608,25.378 H 648.5 c 21.093,0 28.608,-13.095 28.608,-25.349 l 0.199,-130.845 c 0,-12.247 -7.508,-25.349 -28.58,-25.349 H 42.138 z"
   id="path118"
   style="fill:none;stroke:#999999;stroke-width:15;stroke-miterlimit:10" />
	<path
   d="m 42.138,70.127 c -21.073,0 -28.581,13.109 -28.581,25.377 l 0.2,130.787 c 0,12.276 7.516,25.378 28.608,25.378 H 648.5 c 21.093,0 28.608,-13.095 28.608,-25.349 l 0.199,-130.845 c 0,-12.247 -7.508,-25.349 -28.58,-25.349 H 42.138 z"
   id="path120"
   style="fill:none;stroke:#afafaf;stroke-width:13;stroke-miterlimit:10" />
	<path
   d="m 42.138,70.127 c -21.073,0 -28.581,13.109 -28.581,25.377 l 0.2,130.787 c 0,12.276 7.516,25.378 28.608,25.378 H 648.5 c 21.093,0 28.608,-13.095 28.608,-25.349 l 0.199,-130.845 c 0,-12.247 -7.508,-25.349 -28.58,-25.349 H 42.138 z"
   id="path122"
   style="fill:none;stroke:#b7b7b7;stroke-width:11;stroke-miterlimit:10" />
	<path
   d="m 42.138,70.127 c -21.073,0 -28.581,13.109 -28.581,25.377 l 0.2,130.787 c 0,12.276 7.516,25.378 28.608,25.378 H 648.5 c 21.093,0 28.608,-13.095 28.608,-25.349 l 0.199,-130.845 c 0,-12.247 -7.508,-25.349 -28.58,-25.349 H 42.138 z"
   id="path124"
   style="fill:none;stroke:#cccccc;stroke-width:9;stroke-miterlimit:10" />
	<path
   d="m 42.138,70.127 c -21.073,0 -28.581,13.109 -28.581,25.377 l 0.2,130.787 c 0,12.276 7.516,25.378 28.608,25.378 H 648.5 c 21.093,0 28.608,-13.095 28.608,-25.349 l 0.199,-130.845 c 0,-12.247 -7.508,-25.349 -28.58,-25.349 H 42.138 z"
   id="path126"
   style="fill:none;stroke:#e2e2e2;stroke-width:6;stroke-miterlimit:10" />
	<path
   d="m 42.138,70.127 c -21.073,0 -28.581,13.109 -28.581,25.377 l 0.2,130.787 c 0,12.276 7.516,25.378 28.608,25.378 H 648.5 c 21.093,0 28.608,-13.095 28.608,-25.349 l 0.199,-130.845 c 0,-12.247 -7.508,-25.349 -28.58,-25.349 H 42.138 z"
   id="path128"
   style="fill:none;stroke:#efefef;stroke-width:3;stroke-miterlimit:10" />
</g>
</svg>