<?xml version="1.0" encoding="UTF-8" standalone="no"?>
<svg
   xmlns:dc="http://purl.org/dc/elements/1.1/"
   xmlns:cc="http://creativecommons.org/ns#"
   xmlns:rdf="http://www.w3.org/1999/02/22-rdf-syntax-ns#"
   xmlns:svg="http://www.w3.org/2000/svg"
   xmlns="http://www.w3.org/2000/svg"
   viewBox="0 0 601 450.99997"
   height="450.99997"
   width="601"
   xml:space="preserve"
   version="1.1"
   id="svg4773"><metadata
     id="metadata4779"><rdf:RDF><cc:Work
         rdf:about=""><dc:format>image/svg+xml</dc:format><dc:type
           rdf:resource="http://purl.org/dc/dcmitype/StillImage" /><dc:title></dc:title></cc:Work></rdf:RDF></metadata><defs
     id="defs4777" /><g
     transform="matrix(1.25,0,0,-1.25,0,450.99998)"
     id="g4781"><g
       id="g4783"><path
         id="path4785"
         style="fill:#ffffff;fill-opacity:1;fill-rule:nonzero;stroke:none"
         d="m 32.184,360.402 c -17.52,0 -31.786,-14.266 -31.786,-31.797 l 0,-296.414 C 0.398,14.663 14.664,0.402 32.184,0.402 l 416.418,0 c 17.535,0 31.796,14.261 31.796,31.789 l 0,296.414 c 0,17.531 -14.261,31.797 -31.796,31.797 l -416.418,0 z" /><path
         id="path4787"
         style="fill:#000000;fill-opacity:1;fill-rule:nonzero;stroke:none"
         d="m 32.184,352.632 c -13.262,0 -24.016,-10.758 -24.016,-24.027 l 0,-296.414 C 8.168,18.925 18.922,8.163 32.184,8.163 l 416.418,0 c 13.265,0 24.027,10.762 24.027,24.028 l 0,296.414 c 0,13.269 -10.762,24.027 -24.027,24.027 l -416.418,0 z m 0,-12.02 416.418,0 c 6.636,0 12.015,-5.375 12.015,-12.007 l 0,-296.414 c 0,-6.641 -5.379,-12.008 -12.015,-12.008 l -416.418,0 c -6.621,0 -12.008,5.367 -12.008,12.008 l 0,296.414 c 0,6.632 5.387,12.007 12.008,12.007 z" /><path
         id="path4789"
         style="fill:#000000;fill-opacity:1;fill-rule:nonzero;stroke:none"
         d="M 32.184,360.8 C 14.445,360.8 0,346.355 0,328.605 L 0,32.191 C 0,14.448 14.445,-0.001 32.184,-0.001 l 416.418,0 c 17.75,0 32.199,14.449 32.199,32.192 l 0,296.414 c 0,17.75 -14.449,32.195 -32.199,32.195 l -416.418,0 z m 0,-0.398 416.418,0 c 17.535,0 31.796,-14.266 31.796,-31.797 l 0,-296.414 c 0,-17.524 -14.261,-31.789 -31.796,-31.789 l -416.418,0 c -17.52,0 -31.786,14.265 -31.786,31.789 l 0,296.414 c 0,17.531 14.266,31.797 31.786,31.797 z" /><path
         id="path4791"
         style="fill:#000000;fill-opacity:1;fill-rule:nonzero;stroke:none"
         d="m 186.703,56.948 0,38.254 -4.574,0 0,6.969 4.574,0 0,5.969 c 0,4.211 1.16,7.312 3.485,9.301 2.324,1.992 5.257,2.984 8.8,2.984 l 5.879,0 0,-8.539 -5.14,0 c -2.641,0 -3.965,-1.246 -3.965,-3.746 l 0,-5.969 9.105,0 0,-6.969 -9.105,0 0,-38.254 -9.059,0 z m 23.309,0 0,45.223 9.105,0 0,-4.836 0.172,0 c 2.816,3.574 6.738,5.36 11.766,5.36 3.308,0 6.461,-1.161 9.453,-3.485 l -6.578,-7.844 c -1.977,1.481 -3.981,2.223 -6.012,2.223 -2.238,0 -4.266,-0.746 -6.078,-2.242 -1.817,-1.496 -2.723,-3.902 -2.723,-7.211 l 0,-27.188 -9.105,0 z m 69.707,19.172 -28.145,0 c 0,-3.718 1.008,-6.508 3.028,-8.367 2.019,-1.859 4.593,-2.789 7.734,-2.789 3.746,0 7.055,1.453 9.93,4.359 l 6.582,-5.621 c -2.239,-2.613 -4.758,-4.48 -7.563,-5.597 -2.801,-1.121 -5.726,-1.68 -8.777,-1.68 -4.649,0 -9.149,1.504 -13.504,4.512 -4.359,3.004 -6.535,9.156 -6.535,18.449 0,8.801 2.011,14.887 6.031,18.254 4.023,3.371 8.227,5.055 12.613,5.055 4.969,0 9.309,-1.723 13.028,-5.165 3.718,-3.441 5.578,-8.082 5.578,-13.918 l 0,-7.492 z m -28.145,7.492 19.082,0 c -0.144,3.399 -1.105,5.997 -2.875,7.797 -1.773,1.801 -3.996,2.703 -6.668,2.703 -2.699,0 -4.945,-0.902 -6.73,-2.703 -1.785,-1.8 -2.723,-4.398 -2.809,-7.797 z m 37.989,-26.664 0,45.223 9.105,0 0,-45.223 -9.105,0 z m 0,54.372 0,9.105 9.105,0 0,-9.105 -9.105,0 z" /><path
         id="path4793"
         style="fill:#000000;fill-opacity:1;fill-rule:nonzero;stroke:none"
         d="m 66.738,240.898 0,63.476 9.629,0 0,-32.719 0.219,0 26.098,32.719 11.457,0 -20.348,-25.051 22.484,-38.425 -11.418,0 -17.339,31.019 -11.153,-11.676 0,-19.343 -9.629,0 z m 55.508,0 0,45.222 9.106,0 0,-4.836 0.171,0 c 2.817,3.571 6.739,5.36 11.762,5.36 3.313,0 6.465,-1.164 9.457,-3.489 l -6.578,-7.839 c -1.976,1.48 -3.98,2.222 -6.016,2.222 -2.234,0 -4.261,-0.75 -6.074,-2.246 -1.816,-1.496 -2.722,-3.898 -2.722,-7.211 l 0,-27.183 -9.106,0 z m 58.422,0 0,4.007 -0.219,0 c -1.828,-3.019 -5.547,-4.531 -11.152,-4.531 -5.055,0 -8.977,1.313 -11.762,3.942 -2.789,2.629 -4.183,5.918 -4.183,9.867 0,3.574 1.234,6.695 3.703,9.367 2.468,2.672 6.14,4.012 11.023,4.012 l 12.59,0 0,4.703 c 0,3.863 -3.094,5.793 -9.281,5.793 -4.297,0 -7.16,-1.145 -8.582,-3.442 l -7.145,5.403 c 3.164,4.414 8.25,6.625 15.25,6.625 5.574,0 10.106,-1.09 13.59,-3.27 3.488,-2.179 5.23,-6.054 5.23,-11.633 l 0,-30.843 -9.062,0 z m 0,15.859 0,3.309 -10.891,0 c -5.257,0 -7.886,-1.817 -7.886,-5.446 0,-1.539 0.66,-2.875 1.98,-4.008 1.324,-1.132 3.524,-1.699 6.602,-1.699 3.777,0 6.418,0.422 7.929,1.262 1.512,0.844 2.266,3.035 2.266,6.582 z m 20.867,-15.859 0,45.222 9.106,0 0,-4.836 0.175,0 c 2.817,3.571 6.739,5.36 11.762,5.36 3.516,0 6.906,-1.336 10.176,-4.008 3.266,-2.676 4.898,-6.566 4.898,-11.68 l 0,-30.058 -9.105,0 0,26.922 c 0,3.05 -0.848,5.433 -2.547,7.148 -1.699,1.711 -3.812,2.57 -6.34,2.57 -2.613,0 -4.769,-0.859 -6.469,-2.57 -1.699,-1.715 -2.55,-4.098 -2.55,-7.148 l 0,-26.922 -9.106,0 z m 47.926,0 0,63.476 9.105,0 0,-39.515 0.172,0 17.383,21.261 10.895,0 -15.598,-17.687 17.73,-27.535 -11.414,0 -12.023,21.129 -7.145,-8.149 0,-12.98 -9.105,0 z m 81.383,19.168 -28.145,0 c 0,-3.719 1.008,-6.504 3.028,-8.364 2.019,-1.859 4.597,-2.789 7.734,-2.789 3.746,0 7.059,1.453 9.934,4.356 l 6.578,-5.617 c -2.239,-2.618 -4.758,-4.481 -7.559,-5.602 -2.805,-1.117 -5.73,-1.676 -8.781,-1.676 -4.645,0 -9.149,1.504 -13.504,4.508 -4.356,3.008 -6.535,9.156 -6.535,18.453 0,8.801 2.011,14.883 6.035,18.254 4.019,3.367 8.226,5.055 12.609,5.055 4.969,0 9.313,-1.723 13.028,-5.164 3.718,-3.442 5.578,-8.082 5.578,-13.918 l 0,-7.496 z m -28.145,7.496 19.082,0 c -0.144,3.394 -1.105,5.996 -2.875,7.797 -1.773,1.8 -3.992,2.699 -6.668,2.699 -2.699,0 -4.941,-0.899 -6.73,-2.699 -1.785,-1.801 -2.723,-4.403 -2.809,-7.797 z m 37.731,-26.664 0,45.222 9.105,0 0,-4.836 0.172,0 c 2.816,3.571 6.738,5.36 11.766,5.36 3.511,0 6.902,-1.336 10.172,-4.008 3.265,-2.676 4.902,-6.566 4.902,-11.68 l 0,-30.058 -9.106,0 0,26.922 c 0,3.05 -0.851,5.433 -2.55,7.148 -1.7,1.711 -3.813,2.57 -6.34,2.57 -2.613,0 -4.77,-0.859 -6.469,-2.57 -1.699,-1.715 -2.547,-4.098 -2.547,-7.148 l 0,-26.922 -9.105,0 z m 46.746,20.129 0,9.105 26.879,0 0,-9.105 -26.879,0 z" /><path
         id="path4795"
         style="fill:#000000;fill-opacity:1;fill-rule:nonzero;stroke:none"
         d="m 53.992,149.37 0,39.676 -4.742,0 0,7.231 4.742,0 0,6.191 c 0,4.367 1.207,7.586 3.617,9.648 2.411,2.063 5.454,3.094 9.129,3.094 l 6.098,0 0,-8.855 -5.332,0 c -2.738,0 -4.109,-1.297 -4.109,-3.887 l 0,-6.191 9.441,0 0,-7.231 -9.441,0 0,-39.676 -9.403,0 z m 48.805,0 0,4.16 -0.227,0 c -1.894,-3.132 -5.754,-4.699 -11.566,-4.699 -5.242,0 -9.309,1.364 -12.199,4.09 -2.895,2.723 -4.34,6.137 -4.34,10.234 0,3.704 1.281,6.942 3.84,9.715 2.562,2.77 6.371,4.157 11.433,4.157 l 13.059,0 0,4.882 c 0,4.004 -3.207,6.008 -9.625,6.008 -4.457,0 -7.426,-1.187 -8.902,-3.57 l -7.411,5.605 c 3.286,4.578 8.555,6.868 15.817,6.868 5.785,0 10.484,-1.129 14.097,-3.387 3.618,-2.262 5.426,-6.281 5.426,-12.067 l 0,-31.996 -9.402,0 z m 0,16.45 0,3.433 -11.297,0 c -5.453,0 -8.18,-1.883 -8.18,-5.648 0,-1.594 0.688,-2.981 2.059,-4.157 1.371,-1.175 3.652,-1.761 6.844,-1.761 3.918,0 6.66,0.437 8.226,1.308 1.567,0.875 2.348,3.149 2.348,6.825 z m 21.648,-16.45 0,65.84 9.442,0 0,-23.949 0.183,0 c 2.922,3.707 6.989,5.559 12.2,5.559 3.644,0 7.164,-1.387 10.55,-4.157 3.391,-2.773 5.086,-6.808 5.086,-12.109 l 0,-31.184 -9.445,0 0,27.93 c 0,3.16 -0.883,5.633 -2.645,7.41 -1.761,1.777 -3.953,2.664 -6.574,2.664 -2.711,0 -4.949,-0.887 -6.711,-2.664 -1.761,-1.777 -2.644,-4.25 -2.644,-7.41 l 0,-27.93 -9.442,0 z m 49.707,0 0,46.907 9.442,0 0,-5.016 0.183,0 c 2.922,3.707 6.989,5.559 12.2,5.559 3.433,0 6.703,-1.204 9.808,-3.614 l -6.824,-8.136 c -2.051,1.539 -4.129,2.304 -6.238,2.304 -2.321,0 -4.418,-0.773 -6.301,-2.324 -1.887,-1.555 -2.828,-4.047 -2.828,-7.48 l 0,-28.2 -9.442,0 z m 32.895,0 0,7.457 23.5,31.09 -22.188,0 0,8.36 33.664,0 0,-7.5 -23.496,-30.547 23.496,0 0,-8.86 -34.976,0 z m 80.437,19.883 -29.191,0 c 0,-3.855 1.047,-6.746 3.141,-8.676 2.093,-1.925 4.765,-2.89 8.019,-2.89 3.887,0 7.32,1.508 10.305,4.519 l 6.824,-5.828 c -2.32,-2.715 -4.934,-4.648 -7.84,-5.808 -2.91,-1.161 -5.945,-1.739 -9.105,-1.739 -4.821,0 -9.492,1.559 -14.012,4.676 -4.516,3.117 -6.777,9.496 -6.777,19.137 0,9.129 2.086,15.441 6.257,18.933 4.176,3.496 8.536,5.243 13.083,5.243 5.152,0 9.656,-1.786 13.511,-5.356 3.86,-3.57 5.785,-8.383 5.785,-14.437 l 0,-7.774 z m -29.191,7.774 19.793,0 c -0.152,3.527 -1.145,6.222 -2.984,8.089 -1.836,1.868 -4.141,2.801 -6.914,2.801 -2.801,0 -5.129,-0.933 -6.981,-2.801 -1.852,-1.867 -2.824,-4.562 -2.914,-8.089 z m 39.133,-11.93 0,31.18 9.445,0 0,-27.969 c 0,-3.196 0.879,-5.672 2.645,-7.434 1.761,-1.765 3.996,-2.644 6.711,-2.644 2.621,0 4.812,0.879 6.574,2.644 1.762,1.762 2.64,4.238 2.644,7.434 l 0,27.969 9.442,0 0,-46.907 -9.442,0 0,4.973 -0.183,0 c -2.922,-3.676 -6.957,-5.512 -12.11,-5.512 -3.707,0 -7.254,1.375 -10.64,4.133 -3.391,2.758 -5.086,6.801 -5.086,12.133 z m 76.054,-15.68 0,4.836 c -3.285,-3.617 -7.32,-5.422 -12.113,-5.422 -3.07,0 -5.64,0.61 -7.703,1.828 -2.062,1.219 -3.621,2.508 -4.676,3.864 -1.355,1.75 -2.285,3.601 -2.781,5.558 -0.496,1.957 -0.746,6.192 -0.746,12.699 0,6.508 0.25,10.739 0.746,12.7 0.496,1.957 1.426,3.824 2.781,5.601 1.055,1.324 2.614,2.614 4.676,3.864 2.063,1.25 4.633,1.875 7.703,1.875 4.582,0 8.617,-1.852 12.113,-5.559 l 0,5.016 9.442,0 0,-45.821 c 0,-7.051 -2.055,-12.246 -6.168,-15.59 -4.109,-3.343 -8.832,-5.015 -14.164,-5.015 -3.016,0 -5.965,0.722 -8.86,2.168 -2.89,1.445 -5.375,3.343 -7.453,5.695 l 7.321,5.828 c 1.144,-1.144 2.507,-2.137 4.09,-2.98 1.578,-0.844 3.273,-1.266 5.082,-1.266 3.132,0 5.699,0.871 7.703,2.621 2.004,1.746 3.007,4.246 3.007,7.5 z m -18.574,23.363 c 0,-3.765 0.098,-6.265 0.293,-7.503 0.196,-1.235 0.715,-2.379 1.559,-3.434 0.633,-0.844 1.566,-1.656 2.805,-2.438 1.234,-0.785 2.8,-1.175 4.699,-1.175 1.836,0 3.367,0.39 4.586,1.175 1.218,0.782 2.16,1.594 2.824,2.438 0.812,1.055 1.316,2.199 1.512,3.434 0.199,1.238 0.296,3.738 0.296,7.503 0,3.766 -0.097,6.266 -0.296,7.5 -0.196,1.235 -0.7,2.395 -1.512,3.481 -0.664,0.812 -1.606,1.617 -2.824,2.418 -1.219,0.797 -2.75,1.195 -4.586,1.195 -1.899,0 -3.465,-0.398 -4.699,-1.195 -1.239,-0.801 -2.172,-1.606 -2.805,-2.418 -0.844,-1.086 -1.363,-2.246 -1.559,-3.481 -0.195,-1.234 -0.293,-3.734 -0.293,-7.5 z m 76.641,-3.527 -29.192,0 c 0,-3.855 1.047,-6.746 3.141,-8.676 2.094,-1.925 4.766,-2.89 8.02,-2.89 3.886,0 7.32,1.508 10.304,4.519 l 6.825,-5.828 c -2.321,-2.715 -4.934,-4.648 -7.844,-5.808 -2.906,-1.161 -5.942,-1.739 -9.106,-1.739 -4.816,0 -9.488,1.559 -14.007,4.676 -4.52,3.117 -6.778,9.496 -6.778,19.137 0,9.129 2.086,15.441 6.258,18.933 4.172,3.496 8.535,5.243 13.082,5.243 5.152,0 9.656,-1.786 13.512,-5.356 3.855,-3.57 5.785,-8.383 5.785,-14.437 l 0,-7.774 z m -29.192,7.774 19.793,0 c -0.152,3.527 -1.144,6.222 -2.984,8.089 -1.836,1.868 -4.141,2.801 -6.914,2.801 -2.801,0 -5.129,-0.933 -6.98,-2.801 -1.852,-1.867 -2.825,-4.562 -2.915,-8.089 z" /></g></g></svg>