<?xml version="1.0" encoding="UTF-8" standalone="no"?>
<svg
   xmlns:dc="http://purl.org/dc/elements/1.1/"
   xmlns:cc="http://creativecommons.org/ns#"
   xmlns:rdf="http://www.w3.org/1999/02/22-rdf-syntax-ns#"
   xmlns:svg="http://www.w3.org/2000/svg"
   xmlns="http://www.w3.org/2000/svg"
   viewBox="0 0 600 450.00342"
   height="450.00342"
   width="600"
   xml:space="preserve"
   version="1.1"
   id="svg4811"><metadata
     id="metadata4817"><rdf:RDF><cc:Work
         rdf:about=""><dc:format>image/svg+xml</dc:format><dc:type
           rdf:resource="http://purl.org/dc/dcmitype/StillImage" /><dc:title></dc:title></cc:Work></rdf:RDF></metadata><defs
     id="defs4815" /><g
     transform="matrix(1.25,0,0,-1.25,0,450.00343)"
     id="g4819"><g
       id="g4821"><path
         id="path4823"
         style="fill:#ffffff;fill-opacity:1;fill-rule:nonzero;stroke:none"
         d="m 31.996,359.761 c -17.504,0 -31.754,-14.239 -31.754,-31.754 l 0,-296.008 c 0,-17.508 14.25,-31.758 31.754,-31.758 l 416.008,0 c 17.516,0 31.766,14.25 31.766,31.758 l 0,296.008 c 0,17.515 -14.25,31.754 -31.766,31.754" /><path
         id="path4825"
         style="fill:#000000;fill-opacity:1;fill-rule:nonzero;stroke:none"
         d="M 31.996,0.471 C 14.613,0.471 0.473,14.612 0.473,31.999 l 0,296.008 c 0,17.382 14.14,31.511 31.523,31.511 l 416.008,0 c 17.383,0 31.523,-14.129 31.523,-31.511 l 0,-296.008 c 0,-17.387 -14.14,-31.528 -31.523,-31.528 l -416.008,0 z m 416.008,359.532 -416.008,0 C 14.328,360.003 0,345.675 0,328.007 L 0,31.999 c 0,-17.672 14.328,-32 31.996,-32 l 416.008,0 c 17.668,0 31.996,14.328 31.996,32 l 0,296.008 c 0,17.668 -14.328,31.996 -31.996,31.996" /><path
         id="path4827"
         style="fill:#000000;fill-opacity:1;fill-rule:nonzero;stroke:none"
         d="m 31.996,7.995 c -13.25,0 -23.992,10.754 -23.992,24.004 l 0,296.008 c 0,13.257 10.742,24.004 23.992,24.004 l 416.008,0 c 13.25,0 24.004,-10.747 24.004,-24.004 l 0,-296.008 c 0,-13.25 -10.754,-24.004 -24.004,-24.004" /><path
         id="path4829"
         style="fill:#ffffff;fill-opacity:1;fill-rule:nonzero;stroke:none"
         d="M 31.996,20.003 C 25.379,20.003 20,25.366 20,31.999 l 0,296.008 c 0,6.629 5.379,11.996 11.996,11.996 l 416.008,0 c 6.629,0 12.004,-5.367 12.004,-11.996 l 0,-296.008 c 0,-6.633 -5.375,-11.996 -12.004,-11.996" /><path
         id="path4831"
         style="fill:#000000;fill-opacity:1;fill-rule:nonzero;stroke:none"
         d="m 307.199,111.323 -9.597,0 0,9.598 9.597,0 0,-9.598 z m 0,-57.598 -9.597,0 0,47.996 9.597,0 0,-47.996 z m -52.801,28.797 20.411,0 c 0,5.633 -4.575,10.196 -10.207,10.196 -5.629,0 -10.204,-4.563 -10.204,-10.196 z m 30.008,-8.398 -30.008,0 0,-1.199 c 0,-4.18 2.54,-7.918 6.422,-9.481 5.332,-2.133 11.438,-0.637 15.176,3.738 l 7.289,-6.265 c -6.422,-7.477 -16.89,-10.028 -26.027,-6.379 -7.531,3.004 -12.457,10.293 -12.457,18.387 l 0,9.597 c 0,10.93 8.863,19.805 19.801,19.805 10.941,0 19.804,-8.875 19.804,-19.805 l 0,-8.398 z m -76.804,-20.399 0,47.996 9.597,0 0,-5.41 c 5.629,6.95 15.824,8.039 22.785,2.41 0.008,0 0.008,-0.011 0.028,-0.011 L 233.18,90.3 c -3.957,3.519 -10.028,3.168 -13.547,-0.793 -1.559,-1.758 -2.43,-4.024 -2.43,-6.387 l 0,-29.395 -9.601,0 z m -29.997,0 0,40.2 -4.804,0 0,7.796 4.804,0 0,7.204 c 0,6.629 5.364,11.996 11.997,11.996 l 7.203,0 0,-8.996 -6.598,0 c -1.66,0 -3.004,-1.34 -3.004,-3 l 0,-7.204 9.602,0 0,-7.796 -9.602,0 0,-40.2" /><path
         id="path4833"
         style="fill:#000000;fill-opacity:1;fill-rule:nonzero;stroke:none"
         d="m 77.312,286.046 c -1.914,0 -3.464,-1.551 -3.464,-3.453 l 0,-6.93 c 0,-1.637 1.156,-3.055 2.761,-3.383 0.164,-0.035 0.317,-0.082 0.473,-0.133 1.793,-0.648 2.727,-2.629 2.09,-4.433 L 61.215,217.432 c -0.805,-2.234 -1.211,-4.597 -1.211,-6.984 l 0,-35.176 c 0,-3.812 3.101,-6.914 6.918,-6.914 l 41.539,0 c 0,17.207 13.957,31.149 31.164,31.149 17.195,0 31.152,-13.942 31.152,-31.149 l 128.078,0 c 0,17.207 13.942,31.149 31.153,31.149 17.207,0 31.148,-13.942 31.148,-31.149 l 44.996,0 c 7.653,0 13.856,6.199 13.856,13.844 l 0,38.625 c 0,1.937 -0.278,3.863 -0.805,5.711 l -14.129,49.469 c -1.703,5.945 -7.136,10.039 -13.316,10.039 l -314.446,0 z m 14.04,-13.844 27.843,0 c 2.871,0 5.188,-2.32 5.188,-5.191 l 0,-38.079 c 0,-2.871 -2.317,-5.191 -5.188,-5.191 l -41.445,0 c -2.867,0 -5.188,2.32 -5.188,5.191 0,0.594 0.098,1.188 0.305,1.75 l 13.594,38.079 c 0.734,2.066 2.691,3.441 4.891,3.441 z m 47.226,0 25.512,0 c 2.308,0 4.355,-1.539 4.992,-3.762 l 10.875,-38.078 c 0.793,-2.758 -0.801,-5.629 -3.562,-6.422 -0.473,-0.133 -0.946,-0.199 -1.43,-0.199 l -36.387,0 c -2.867,0 -5.187,2.32 -5.187,5.191 l 0,38.079 c 0,2.871 2.32,5.191 5.187,5.191 z m 45.305,0 34.89,0 c 2.321,0 4.364,-1.539 5.004,-3.762 l 10.871,-38.078 c 0.793,-2.758 -0.8,-5.629 -3.562,-6.422 -0.461,-0.133 -0.941,-0.199 -1.426,-0.199 l -34.89,0 c -2.321,0 -4.368,1.543 -4.993,3.762 l -10.886,38.078 c -0.782,2.762 0.812,5.633 3.574,6.422 0.461,0.133 0.933,0.199 1.418,0.199 z m 54.695,0 34.899,0 c 2.308,0 4.343,-1.539 4.98,-3.762 l 10.887,-38.078 c 0.781,-2.758 -0.813,-5.629 -3.563,-6.422 -0.461,-0.133 -0.945,-0.199 -1.429,-0.199 l -34.899,0 c -2.312,0 -4.344,1.543 -4.984,3.762 l -10.883,38.078 c -0.781,2.762 0.812,5.633 3.57,6.422 0.465,0.133 0.938,0.199 1.422,0.199 z m 54.692,0 34.89,0 c 2.32,0 4.363,-1.539 4.992,-3.762 l 10.887,-38.078 c 0.781,-2.758 -0.816,-5.629 -3.562,-6.422 -0.465,-0.133 -0.957,-0.199 -1.43,-0.199 l -34.891,0 c -2.32,0 -4.367,1.543 -5.004,3.762 l -10.875,38.078 c -0.793,2.762 0.805,5.633 3.575,6.422 0.46,0.133 0.933,0.199 1.418,0.199 z m 54.691,0 34.891,0 c 2.32,0 4.363,-1.539 5.003,-3.762 l 10.875,-38.078 c 0.79,-2.758 -0.804,-5.629 -3.574,-6.422 -0.461,-0.133 -0.933,-0.199 -1.418,-0.199 l -34.89,0 c -2.332,0 -4.364,1.543 -5.004,3.762 l -10.875,38.078 c -0.781,2.762 0.816,5.633 3.574,6.422 0.461,0.133 0.934,0.199 1.418,0.199 z M 139.625,192.593 c -13.395,0 -24.234,-10.856 -24.234,-24.235 0,-13.383 10.839,-24.234 24.234,-24.234 13.383,0 24.223,10.851 24.223,24.234 0,13.379 -10.84,24.235 -24.223,24.235 z m 190.383,0 c -13.383,0 -24.235,-10.856 -24.235,-24.235 0,-13.383 10.852,-24.234 24.235,-24.234 13.379,0 24.222,10.851 24.222,24.234 0,13.379 -10.843,24.235 -24.222,24.235 z" /></g></g></svg>