<?xml version="1.0" encoding="UTF-8" standalone="no"?>
<svg
   xmlns:dc="http://purl.org/dc/elements/1.1/"
   xmlns:cc="http://creativecommons.org/ns#"
   xmlns:rdf="http://www.w3.org/1999/02/22-rdf-syntax-ns#"
   xmlns:svg="http://www.w3.org/2000/svg"
   xmlns="http://www.w3.org/2000/svg"
   viewBox="0 0 421.00125 232.0025"
   height="232.0025"
   width="421.00125"
   xml:space="preserve"
   version="1.1"
   id="svg3797"><metadata
     id="metadata3803"><rdf:RDF><cc:Work
         rdf:about=""><dc:format>image/svg+xml</dc:format><dc:type
           rdf:resource="http://purl.org/dc/dcmitype/StillImage" /><dc:title></dc:title></cc:Work></rdf:RDF></metadata><defs
     id="defs3801" /><g
     transform="matrix(1.25,0,0,-1.25,0,232.00251)"
     id="g3805"><g
       id="g3807"><path
         id="path3809"
         style="fill:#ffffff;fill-opacity:1;fill-rule:nonzero;stroke:none"
         d="m 22.652,185.204 c -12.273,0 -22.254,-9.954 -22.254,-22.184 l 0,-140.445 c 0,-12.227 9.981,-22.172 22.254,-22.172 l 291.496,0 c 12.274,0 22.25,9.945 22.25,22.172 l 0,140.445 c 0,12.23 -9.976,22.184 -22.25,22.184 l -291.496,0 z" /><path
         id="path3811"
         style="fill:#000000;fill-opacity:1;fill-rule:nonzero;stroke:none"
         d="M 22.652,185.602 C 10.164,185.602 0,175.465 0,163.02 L 0,22.575 C 0,10.129 10.164,0 22.652,0 l 291.496,0 c 12.489,0 22.653,10.129 22.653,22.575 l 0,140.445 c 0,12.445 -10.164,22.582 -22.653,22.582 l -291.496,0 z m 0,-0.398 291.496,0 c 12.274,0 22.25,-9.954 22.25,-22.184 l 0,-140.445 c 0,-12.227 -9.976,-22.172 -22.25,-22.172 l -291.496,0 c -12.273,0 -22.254,9.945 -22.254,22.172 l 0,140.445 c 0,12.23 9.981,22.184 22.254,22.184 z" /><path
         id="path3813"
         style="fill:#000000;fill-opacity:1;fill-rule:nonzero;stroke:none"
         d="m 22.645,14.118 291.496,0 c 4.644,0 8.41,3.75 8.41,8.379 l 0,140.605 c 0,4.629 -3.766,8.379 -8.41,8.379 l -291.496,0 c -4.649,0 -8.411,-3.75 -8.411,-8.379 l 0,-140.605 c 0,-4.629 3.762,-8.379 8.411,-8.379 z m 0.398,-7.981 c -9.289,0 -16.816,7.5 -16.816,16.758 l 0,139.805 c 0,9.257 7.527,16.757 16.816,16.757 l 290.777,0 c 9.289,0 16.817,-7.5 16.817,-16.757 l 0,-139.805 c 0,-9.258 -7.528,-16.758 -16.817,-16.758" /><path
         id="path3815"
         style="fill:#000000;fill-opacity:1;fill-rule:nonzero;stroke:none"
         d="m 50.977,143.02 0,-12.832 9.699,0 c 2.402,0 4.203,0.668 5.402,2.004 1.203,1.336 1.801,2.902 1.801,4.703 0,2.148 -0.715,3.754 -2.149,4.82 -1.199,0.871 -2.757,1.305 -4.675,1.305 l -10.078,0 z m -6.418,-36.609 0,42.3 16.554,0 c 3.621,0 6.485,-0.929 8.598,-2.785 1.18,-1.027 2.184,-2.316 3.004,-3.863 0.824,-1.547 1.234,-3.27 1.234,-5.168 0,-2.73 -0.73,-5.145 -2.191,-7.242 -1.461,-2.102 -3.473,-3.586 -6.028,-4.457 l 9.817,-18.785 -7.609,0 -8.743,18.058 -8.218,0 0,-18.058 -6.418,0 z m 51.55,0 0,2.671 -0.144,0 c -1.219,-2.011 -3.699,-3.019 -7.434,-3.019 -3.371,0 -5.984,0.875 -7.843,2.629 -1.86,1.75 -2.79,3.941 -2.79,6.574 0,2.383 0.825,4.461 2.469,6.242 1.649,1.782 4.098,2.672 7.352,2.672 l 8.39,0 0,3.133 c 0,2.574 -2.058,3.863 -6.183,3.863 -2.867,0 -4.774,-0.765 -5.723,-2.293 l -4.762,3.598 c 2.11,2.945 5.497,4.414 10.164,4.414 3.719,0 6.739,-0.727 9.063,-2.176 2.324,-1.453 3.484,-4.035 3.484,-7.754 l 0,-20.554 -6.043,0 z m 0,10.57 0,2.203 -7.257,0 c -3.508,0 -5.258,-1.207 -5.258,-3.629 0,-1.023 0.441,-1.914 1.32,-2.668 0.883,-0.758 2.348,-1.133 4.402,-1.133 2.516,0 4.278,0.282 5.286,0.84 1.007,0.563 1.507,2.024 1.507,4.387 z m 31.922,-10.57 0,3.136 c -2.109,-2.324 -4.707,-3.484 -7.785,-3.484 -1.859,0 -3.457,0.363 -4.793,1.09 -1.336,0.726 -2.43,1.66 -3.281,2.801 -0.852,1.062 -1.422,2.328 -1.711,3.789 -0.293,1.461 -0.438,4.05 -0.438,7.765 0,3.676 0.145,6.239 0.438,7.68 0.289,1.441 0.859,2.703 1.711,3.789 0.851,1.121 1.945,2.055 3.281,2.801 1.336,0.746 2.934,1.117 4.793,1.117 1.551,0 2.953,-0.328 4.211,-0.988 1.262,-0.657 2.449,-1.52 3.574,-2.582 l 0,15.386 6.071,0 0,-42.3 -6.071,0 z m -5.926,24.418 c -2.863,0 -4.582,-0.977 -5.156,-2.934 -0.57,-1.953 -0.855,-4.082 -0.855,-6.387 0,-2.359 0.285,-4.519 0.855,-6.472 0.574,-1.957 2.293,-2.934 5.156,-2.934 2.809,0 4.497,1.016 5.071,3.047 0.57,2.035 0.855,4.152 0.855,6.359 0,2.149 -0.285,4.239 -0.855,6.27 -0.574,2.035 -2.262,3.051 -5.071,3.051 z m 19.782,-24.418 0,25.492 -3.051,0 0,4.644 3.051,0 0,3.977 c 0,2.808 0.773,4.871 2.32,6.199 1.551,1.324 3.508,1.988 5.867,1.988 l 3.922,0 0,-5.691 -3.426,0 c -1.761,0 -2.644,-0.832 -2.644,-2.496 l 0,-3.977 6.07,0 0,-4.644 -6.07,0 0,-25.492 -6.039,0 z m 31.367,0 0,2.671 -0.145,0 c -1.222,-2.011 -3.699,-3.019 -7.437,-3.019 -3.367,0 -5.981,0.875 -7.84,2.629 -1.859,1.75 -2.789,3.941 -2.789,6.574 0,2.383 0.824,4.461 2.469,6.242 1.644,1.782 4.093,2.672 7.347,2.672 l 8.395,0 0,3.133 c 0,2.574 -2.063,3.863 -6.188,3.863 -2.867,0 -4.773,-0.765 -5.722,-2.293 l -4.762,3.598 c 2.109,2.945 5.5,4.414 10.164,4.414 3.719,0 6.738,-0.727 9.063,-2.176 2.324,-1.453 3.484,-4.035 3.484,-7.754 l 0,-20.554 -6.039,0 z m 0,10.57 0,2.203 -7.262,0 c -3.504,0 -5.258,-1.207 -5.258,-3.629 0,-1.023 0.442,-1.914 1.325,-2.668 0.879,-0.758 2.347,-1.133 4.398,-1.133 2.516,0 4.277,0.282 5.285,0.84 1.008,0.563 1.512,2.024 1.512,4.387 z m 13.91,-10.57 0,42.3 6.07,0 0,-15.386 0.118,0 c 1.878,2.379 4.492,3.57 7.843,3.57 2.344,0 4.602,-0.891 6.782,-2.672 2.179,-1.781 3.265,-4.371 3.265,-7.781 l 0,-20.031 -6.07,0 0,17.941 c 0,2.035 -0.567,3.621 -1.699,4.762 -1.133,1.144 -2.539,1.715 -4.223,1.715 -1.746,0 -3.184,-0.571 -4.316,-1.715 -1.133,-1.141 -1.7,-2.727 -1.7,-4.762 l 0,-17.941 -6.07,0 z m 31.949,0 0,30.136 6.071,0 0,-3.222 0.117,0 c 1.879,2.379 4.492,3.57 7.844,3.57 2.207,0 4.308,-0.773 6.3,-2.32 l -4.386,-5.227 c -1.317,0.984 -2.653,1.481 -4.008,1.481 -1.489,0 -2.84,-0.5 -4.051,-1.497 -1.211,-0.996 -1.816,-2.597 -1.816,-4.804 l 0,-18.117 -6.071,0 z m 46.473,12.773 -18.762,0 c 0,-2.477 0.672,-4.332 2.016,-5.574 1.348,-1.238 3.066,-1.856 5.156,-1.856 2.5,0 4.707,0.965 6.625,2.903 l 4.383,-3.746 c -1.488,-1.743 -3.168,-2.985 -5.039,-3.731 -1.867,-0.746 -3.82,-1.117 -5.852,-1.117 -3.097,0 -6.097,1 -9.004,3.004 -2.902,2.004 -4.355,6.101 -4.355,12.297 0,5.863 1.34,9.918 4.023,12.164 2.68,2.246 5.485,3.367 8.407,3.367 3.312,0 6.207,-1.145 8.683,-3.441 2.481,-2.293 3.719,-5.383 3.719,-9.274 l 0,-4.996 z m -18.762,4.996 12.719,0 c -0.094,2.262 -0.734,3.996 -1.914,5.195 -1.184,1.2 -2.664,1.801 -4.445,1.801 -1.801,0 -3.297,-0.601 -4.489,-1.801 -1.191,-1.199 -1.812,-2.933 -1.871,-5.195 z m 25.153,-17.769 0,30.136 6.07,0 0,-3.222 0.117,0 c 1.875,2.379 4.492,3.57 7.84,3.57 2.207,0 4.308,-0.773 6.305,-2.32 l -4.387,-5.227 c -1.317,0.984 -2.652,1.481 -4.008,1.481 -1.492,0 -2.844,-0.5 -4.055,-1.497 -1.207,-0.996 -1.812,-2.597 -1.812,-4.804 l 0,-18.117 -6.07,0 z" /><path
         id="path3817"
         style="fill:#000000;fill-opacity:1;fill-rule:nonzero;stroke:none"
         d="m 68.215,49.426 0,2.668 -0.145,0 c -1.222,-2.012 -3.699,-3.019 -7.437,-3.019 -3.367,0 -5.985,0.879 -7.84,2.629 -1.859,1.75 -2.789,3.945 -2.789,6.574 0,2.383 0.82,4.461 2.469,6.242 1.644,1.781 4.093,2.672 7.347,2.672 l 8.395,0 0,3.137 c 0,2.574 -2.063,3.859 -6.188,3.859 -2.867,0 -4.773,-0.762 -5.722,-2.293 l -4.762,3.602 c 2.109,2.941 5.5,4.41 10.164,4.41 3.719,0 6.738,-0.723 9.063,-2.176 2.324,-1.453 3.484,-4.035 3.484,-7.75 l 0,-20.555 -6.039,0 z m 0,10.567 0,2.207 -7.262,0 c -3.504,0 -5.258,-1.211 -5.258,-3.629 0,-1.028 0.442,-1.918 1.321,-2.672 0.882,-0.754 2.347,-1.133 4.402,-1.133 2.516,0 4.277,0.281 5.285,0.844 1.008,0.558 1.512,2.019 1.512,4.383 z m 13.91,-10.567 0,42.297 6.07,0 0,-15.387 c 1.125,1.067 2.309,1.926 3.559,2.586 1.25,0.657 2.656,0.985 4.226,0.985 1.84,0 3.426,-0.371 4.762,-1.117 1.336,-0.743 2.442,-1.68 3.313,-2.801 0.832,-1.082 1.398,-2.348 1.699,-3.789 0.301,-1.442 0.449,-4 0.449,-7.68 0,-3.715 -0.148,-6.305 -0.449,-7.766 -0.301,-1.461 -0.867,-2.722 -1.699,-3.789 -0.871,-1.14 -1.977,-2.074 -3.313,-2.8 -1.336,-0.727 -2.922,-1.09 -4.762,-1.09 -3.097,0 -5.691,1.164 -7.785,3.484 l 0,-3.133 -6.07,0 z M 94.152,73.84 c -2.847,0 -4.55,-1.015 -5.113,-3.047 -0.562,-2.035 -0.844,-4.125 -0.844,-6.273 0,-2.207 0.282,-4.324 0.844,-6.355 0.563,-2.036 2.266,-3.051 5.113,-3.051 2.844,0 4.555,0.976 5.125,2.933 0.571,1.953 0.856,4.114 0.856,6.473 0,2.305 -0.285,4.434 -0.856,6.387 -0.57,1.957 -2.281,2.933 -5.125,2.933 z m 15.536,-19.394 4.242,4.183 c 2.632,-2.574 5.8,-3.863 9.496,-3.863 1.726,0 3.148,0.324 4.269,0.973 1.125,0.648 1.688,1.613 1.688,2.89 0,1.758 -1.231,2.746 -3.692,2.961 l -5.343,0.492 c -2.496,0.196 -4.571,1.016 -6.215,2.469 -1.645,1.449 -2.469,3.473 -2.469,6.067 0,3.058 1.074,5.371 3.223,6.937 2.152,1.57 4.824,2.352 8.019,2.352 2.633,0 4.887,-0.371 6.766,-1.117 1.879,-0.743 3.562,-1.735 5.055,-2.977 l -3.747,-4.41 c -1.203,0.812 -2.441,1.48 -3.718,2.004 -1.278,0.519 -2.731,0.781 -4.356,0.781 -1.937,0 -3.285,-0.344 -4.039,-1.031 -0.754,-0.684 -1.133,-1.551 -1.133,-2.598 0,-0.656 0.282,-1.266 0.844,-1.828 0.559,-0.563 1.606,-0.899 3.137,-1.016 l 4.996,-0.347 c 3.117,-0.215 5.351,-1.176 6.707,-2.891 1.355,-1.711 2.035,-3.758 2.035,-6.141 0,-2.961 -1.211,-5.246 -3.633,-6.851 -2.418,-1.606 -5.371,-2.41 -8.859,-2.41 -5.012,0 -9.438,1.793 -13.273,5.371 z m 32.269,25.113 0,9.145 6.07,0 0,-9.145 4.414,0 0,-4.644 -4.414,0 0,-17.536 c 0,-1.507 0.719,-2.265 2.149,-2.265 l 2.265,0 0,-5.688 -3.164,0 c -2.109,0 -3.859,0.637 -5.242,1.914 -1.387,1.278 -2.078,3.106 -2.078,5.489 l 0,18.086 -3.019,0 0,4.644 3.019,0 z m 39.5,-17.359 -18.762,0 c 0,-2.477 0.672,-4.336 2.02,-5.575 1.344,-1.238 3.062,-1.859 5.156,-1.859 2.496,0 4.703,0.969 6.621,2.902 l 4.387,-3.742 c -1.492,-1.742 -3.172,-2.988 -5.039,-3.73 -1.871,-0.746 -3.82,-1.121 -5.856,-1.121 -3.097,0 -6.097,1.004 -9.004,3.007 -2.902,2 -4.355,6.102 -4.355,12.293 0,5.864 1.34,9.922 4.023,12.165 2.68,2.246 5.485,3.367 8.407,3.367 3.312,0 6.207,-1.145 8.687,-3.438 2.477,-2.293 3.715,-5.387 3.715,-9.277 l 0,-4.992 z m -18.762,4.992 12.723,0 c -0.098,2.265 -0.738,3.996 -1.918,5.195 -1.18,1.203 -2.664,1.801 -4.445,1.801 -1.801,0 -3.293,-0.598 -4.485,-1.801 -1.191,-1.199 -1.816,-2.93 -1.875,-5.195 z m 25.328,-17.766 0,30.133 6.071,0 0,-30.133 -6.071,0 z m 0,36.231 0,6.066 6.071,0 0,-6.066 -6.071,0 z m 31.047,-36.203 0,3.105 c -2.109,-2.32 -4.703,-3.484 -7.781,-3.484 -1.977,0 -3.629,0.394 -4.953,1.175 -1.328,0.786 -2.328,1.614 -3.008,2.485 -0.871,1.121 -1.465,2.312 -1.785,3.57 -0.32,1.258 -0.481,3.977 -0.481,8.156 0,4.184 0.161,6.903 0.481,8.161 0.32,1.257 0.914,2.457 1.785,3.601 0.68,0.852 1.68,1.676 3.008,2.481 1.324,0.804 2.976,1.203 4.953,1.203 2.941,0 5.535,-1.188 7.781,-3.571 l 0,3.223 6.071,0 0,-29.437 c 0,-4.532 -1.321,-7.868 -3.965,-10.016 -2.641,-2.149 -5.676,-3.223 -9.106,-3.223 -1.933,0 -3.832,0.465 -5.691,1.395 -1.859,0.926 -3.457,2.148 -4.793,3.656 l 4.707,3.746 c 0.734,-0.734 1.609,-1.375 2.629,-1.918 1.016,-0.539 2.105,-0.812 3.266,-0.812 2.015,0 3.664,0.562 4.953,1.683 1.285,1.125 1.929,2.731 1.929,4.821 z m -11.937,15.007 c 0,-2.418 0.062,-4.023 0.191,-4.816 0.125,-0.793 0.457,-1.531 1,-2.207 0.406,-0.543 1.008,-1.066 1.801,-1.566 0.793,-0.504 1.801,-0.758 3.02,-0.758 1.183,0 2.164,0.254 2.949,0.758 0.785,0.5 1.39,1.023 1.816,1.566 0.524,0.676 0.848,1.414 0.973,2.207 0.125,0.793 0.187,2.398 0.187,4.816 0,2.422 -0.062,4.028 -0.187,4.821 -0.125,0.793 -0.449,1.539 -0.973,2.234 -0.426,0.524 -1.031,1.043 -1.816,1.555 -0.785,0.511 -1.766,0.769 -2.949,0.769 -1.219,0 -2.227,-0.258 -3.02,-0.769 -0.793,-0.512 -1.395,-1.031 -1.801,-1.555 -0.543,-0.695 -0.875,-1.441 -1,-2.234 -0.129,-0.793 -0.191,-2.399 -0.191,-4.821 z m 49.262,-2.261 -18.766,0 c 0,-2.477 0.676,-4.336 2.019,-5.575 1.348,-1.238 3.067,-1.859 5.157,-1.859 2.496,0 4.703,0.969 6.621,2.902 l 4.386,-3.742 c -1.492,-1.742 -3.171,-2.988 -5.039,-3.73 -1.867,-0.746 -3.82,-1.121 -5.851,-1.121 -3.098,0 -6.102,1.004 -9.004,3.007 -2.906,2 -4.359,6.102 -4.359,12.293 0,5.864 1.343,9.922 4.023,12.165 2.684,2.246 5.484,3.367 8.41,3.367 3.309,0 6.203,-1.145 8.684,-3.438 2.476,-2.293 3.719,-5.387 3.719,-9.277 l 0,-4.992 z m -18.766,4.992 12.723,0 c -0.098,2.265 -0.735,3.996 -1.918,5.195 -1.18,1.203 -2.661,1.801 -4.442,1.801 -1.801,0 -3.297,-0.598 -4.488,-1.801 -1.192,-1.199 -1.816,-2.93 -1.875,-5.195 z m 25.152,-17.766 0,30.133 6.071,0 0,-3.223 0.117,0 c 1.879,2.383 4.492,3.571 7.843,3.571 2.344,0 4.602,-0.891 6.782,-2.668 2.179,-1.782 3.265,-4.375 3.265,-7.782 l 0,-20.031 -6.07,0 0,17.942 c 0,2.031 -0.566,3.617 -1.699,4.761 -1.133,1.141 -2.539,1.711 -4.223,1.711 -1.746,0 -3.183,-0.57 -4.316,-1.711 -1.133,-1.144 -1.699,-2.73 -1.699,-4.761 l 0,-17.942 -6.071,0 z" /></g></g></svg>