<?xml version="1.0" encoding="UTF-8" standalone="no"?>
<svg
   xmlns:dc="http://purl.org/dc/elements/1.1/"
   xmlns:cc="http://creativecommons.org/ns#"
   xmlns:rdf="http://www.w3.org/1999/02/22-rdf-syntax-ns#"
   xmlns:svg="http://www.w3.org/2000/svg"
   xmlns="http://www.w3.org/2000/svg"
   viewBox="0 0 600.99805 331.00781"
   height="331.00781"
   width="600.99805"
   xml:space="preserve"
   version="1.1"
   id="svg12264"><metadata
     id="metadata12270"><rdf:RDF><cc:Work
         rdf:about=""><dc:format>image/svg+xml</dc:format><dc:type
           rdf:resource="http://purl.org/dc/dcmitype/StillImage" /><dc:title></dc:title></cc:Work></rdf:RDF></metadata><defs
     id="defs12268" /><g
     transform="matrix(1.25,0,0,-1.25,0,331.0078)"
     id="g12272"><g
       id="g12274"><path
         id="path12276"
         style="fill:#ffffff;fill-opacity:1;fill-rule:nonzero;stroke:none"
         d="m 32.402,0.404 c -17.672,0 -32,14.379 -32,32.109 l 0,199.77 c 0,17.73 14.328,32.121 32,32.121 l 416.004,0 c 17.672,0 31.996,-14.391 31.996,-32.121 l 0,-199.77 c 0,-17.73 -14.324,-32.109 -31.996,-32.109 l -416.004,0 z" /><path
         id="path12278"
         style="fill:#000000;fill-opacity:1;fill-rule:nonzero;stroke:none"
         d="m 32.402,8.435 c -13.261,0 -24,10.774 -24,24.082 l 0,199.766 c 0,13.308 10.739,24.082 24,24.082 l 416.004,0 c 13.246,0 24,-10.774 24,-24.082 l 0,-199.766 c 0,-13.308 -10.754,-24.082 -24,-24.082 l -416.004,0 z" /><path
         id="path12280"
         style="fill:#ffffff;fill-opacity:1;fill-rule:nonzero;stroke:none"
         d="m 32.402,20.474 c -6.632,0 -12.007,5.395 -12.007,12.051 l 0,199.766 c 0,6.64 5.375,12.035 12.007,12.035 l 416.004,0 c 6.633,0 11.992,-5.395 11.992,-12.035 l 0,-199.766 c 0,-6.656 -5.359,-12.051 -11.992,-12.051 l -416.004,0 z" /><path
         id="path12282"
         style="fill:#000000;fill-opacity:1;fill-rule:nonzero;stroke:none"
         d="m 86.141,180.662 0,47.574 11.004,0 c 6.078,0 11.003,-4.945 11.003,-11.043 l 0,-3.816 c 0,-3.258 -1.847,-6.227 -4.769,-7.657 2.922,-1.414 4.769,-4.386 4.769,-7.644 l 0,-6.371 c 0,-6.102 -4.925,-11.043 -11.003,-11.043 l -11.004,0 z m 6.777,6.8 4.227,0 c 2.578,0 4.656,2.086 4.656,4.672 l 0,5.942 c 0,2.586 -2.078,4.672 -4.656,4.672 l -4.227,0 0,-15.286 z m 0,21.243 4.227,0 c 2.578,0 4.656,2.086 4.656,4.672 l 0,3.816 c 0,2.586 -2.078,4.672 -4.656,4.672 l -4.227,0 0,-13.16 z m 41.484,-18.27 c 0,-5.629 -4.558,-10.203 -10.164,-10.203 -5.609,0 -10.152,4.574 -10.152,10.203 l 0,14.442 c 0,5.628 4.543,10.199 10.152,10.199 5.606,0 10.164,-4.571 10.164,-10.199 l 0,-9.77 -13.554,0 0,-4.672 c 0,-1.875 1.523,-3.402 3.39,-3.402 1.879,0 3.387,1.527 3.387,3.402 l 6.777,0 z m -13.554,10.199 6.777,0 0,4.243 c 0,1.871 -1.508,3.402 -3.387,3.402 -1.867,0 -3.39,-1.531 -3.39,-3.402 l 0,-4.243 z m 31.336,-19.972 -3.391,0 c -4.215,0 -7.617,3.429 -7.617,7.644 l 0,20.813 -3.387,0 0,5.531 3.387,0 0,10.184 6.765,0 0,-10.184 4.243,0 0,-5.531 -4.243,0 0,-19.957 c 0,-1.172 0.954,-2.129 2.121,-2.129 l 2.122,0 0,-6.371 z m 5.921,0 0,33.988 6.774,0 0,-3.844 c 2.164,2.699 5.441,4.27 8.887,4.27 l 0,-7.141 c -3.547,1.172 -7.375,-0.773 -8.543,-4.328 -0.227,-0.687 -0.344,-1.402 -0.344,-2.129 l 0,-20.816 -6.774,0 z m 19.047,33.988 6.778,0 0,-33.988 -6.778,0 0,33.988 z m 0,13.586 6.778,0 0,-6.801 -6.778,0 0,6.801 z m 33.868,-37.801 c 0,-5.629 -4.543,-10.203 -10.165,-10.203 -5.609,0 -10.152,4.574 -10.152,10.203 l 0,14.442 c 0,5.628 4.543,10.199 10.152,10.199 5.622,0 10.165,-4.571 10.165,-10.199 l 0,-9.77 -13.54,0 0,-4.672 c 0,-1.875 1.512,-3.402 3.375,-3.402 1.879,0 3.387,1.527 3.387,3.402 l 6.778,0 z m -13.54,10.199 6.762,0 0,4.243 c 0,1.871 -1.508,3.402 -3.387,3.402 -1.863,0 -3.375,-1.531 -3.375,-3.402 l 0,-4.243 z m 19.461,-19.972 0,47.574 6.778,0 0,-16.988 c 1.879,3.515 6.234,4.859 9.738,2.972 2.348,-1.258 3.813,-3.699 3.813,-6.371 l 0,-20.387 c 0,-3.988 -3.231,-7.23 -7.204,-7.23 -2.648,0 -5.093,1.473 -6.347,3.828 l 0,-3.398 -6.778,0 z m 6.778,9.773 c 0,-1.875 1.523,-3.402 3.386,-3.402 1.879,0 3.391,1.527 3.391,3.402 l 0,14.442 c 0,1.871 -1.512,3.402 -3.391,3.402 -1.863,0 -3.386,-1.531 -3.386,-3.402 l 0,-14.442 z m 17.781,0 6.348,0 c 0,-2.117 1.711,-3.832 3.816,-3.832 2.106,0 3.801,1.715 3.801,3.832 0,1.512 -0.883,2.883 -2.262,3.5 l -5.484,2.012 c -4.926,2.187 -7.129,7.957 -4.969,12.887 2.18,4.929 7.93,7.156 12.855,4.972 3.52,-1.558 5.797,-5.07 5.797,-8.929 l -6.351,0 c 0,1.871 -1.524,3.402 -3.387,3.402 -1.879,0 -3.387,-1.531 -3.387,-3.402 0,-1.344 0.782,-2.571 2.004,-3.114 l 5.496,-2.015 c 5.125,-2.27 7.446,-8.301 5.168,-13.442 -2.261,-5.16 -8.269,-7.472 -13.394,-5.203 -3.676,1.645 -6.051,5.301 -6.051,9.332 m 27.09,12.313 20.316,0 0,-6.801 -20.316,0 0,6.801 z m 67.734,-22.086 -6.773,0 0,3.398 c -1.867,-3.512 -6.223,-4.855 -9.739,-2.969 -2.335,1.243 -3.8,3.7 -3.8,6.371 l 0,27.188 6.761,0 0,-24.215 c 0,-1.875 1.524,-3.402 3.387,-3.402 1.879,0 3.391,1.527 3.391,3.402 l 0,24.215 6.773,0 0,-33.988 z m 6.778,0 0,33.988 6.777,0 0,-3.402 c 1.863,3.515 6.223,4.859 9.738,2.972 2.332,-1.258 3.801,-3.699 3.801,-6.371 l 0,-27.187 -6.777,0 0,24.215 c 0,1.871 -1.508,3.402 -3.387,3.402 -1.867,0 -3.375,-1.531 -3.375,-3.402 l 0,-24.215 -6.777,0 z m 46.566,0 -6.777,0 0,3.398 c -1.864,-3.512 -6.235,-4.855 -9.735,-2.969 -2.351,1.243 -3.816,3.7 -3.816,6.371 l 0,20.387 c 0,3.985 3.23,7.227 7.203,7.227 2.66,0 5.098,-1.469 6.348,-3.828 l 0,16.988 6.777,0 0,-47.574 z m -6.777,9.773 0,14.442 c 0,1.871 -1.524,3.402 -3.387,3.402 -1.863,0 -3.387,-1.531 -3.387,-3.402 l 0,-14.442 c 0,-1.875 1.524,-3.402 3.387,-3.402 1.863,0 3.387,1.527 3.387,3.402" /><path
         id="path12284"
         style="fill:#000000;fill-opacity:1;fill-rule:nonzero;stroke:none"
         d="m 46.137,113.255 -9.739,47.586 7.204,0 5.496,-33.144 5.507,33.144 7.192,0 -9.738,-47.586 -5.922,0 z m 37.683,9.77 c 0,-5.629 -4.558,-10.199 -10.164,-10.199 -5.609,0 -10.168,4.57 -10.168,10.199 l 0,14.445 c 0,5.629 4.559,10.2 10.168,10.2 5.606,0 10.164,-4.571 10.164,-10.2 l 0,-9.773 -13.554,0 0,-4.672 c 0,-1.871 1.507,-3.398 3.39,-3.398 1.864,0 3.387,1.527 3.387,3.398 l 6.777,0 z m -13.554,10.203 6.777,0 0,4.242 c 0,1.871 -1.523,3.399 -3.387,3.399 -1.883,0 -3.39,-1.528 -3.39,-3.399 l 0,-4.242 z m 19.476,-19.973 0,33.985 6.774,0 0,-3.84 c 2.164,2.699 5.441,4.27 8.886,4.27 l 0,-7.141 c -3.547,1.168 -7.375,-0.774 -8.558,-4.332 -0.211,-0.684 -0.328,-1.399 -0.328,-2.129 l 0,-20.813 -6.774,0 z m 18.192,9.77 6.363,0 c 0,-2.113 1.695,-3.828 3.801,-3.828 2.109,0 3.816,1.715 3.816,3.828 0,1.516 -0.894,2.887 -2.262,3.5 l -5.496,2.016 c -4.91,2.187 -7.133,7.957 -4.953,12.886 2.176,4.942 7.93,7.157 12.84,4.973 3.531,-1.559 5.793,-5.059 5.793,-8.93 l -6.348,0 c 0,1.871 -1.508,3.399 -3.39,3.399 -1.864,0 -3.387,-1.528 -3.387,-3.399 0,-1.343 0.797,-2.558 2.023,-3.101 l 5.481,-2.028 c 5.137,-2.273 7.445,-8.3 5.18,-13.445 -2.278,-5.141 -8.286,-7.469 -13.411,-5.199 -3.672,1.644 -6.05,5.301 -6.05,9.328 m 24.558,0 0,14.445 c 0,5.629 4.555,10.2 10.164,10.2 5.61,0 10.164,-4.571 10.164,-10.2 l 0,-14.445 c 0,-5.629 -4.554,-10.199 -10.164,-10.199 -5.609,0 -10.164,4.57 -10.164,10.199 m 6.778,0 c 0,-1.871 1.507,-3.398 3.386,-3.398 1.867,0 3.387,1.527 3.387,3.398 l 0,14.445 c 0,1.871 -1.52,3.399 -3.387,3.399 -1.879,0 -3.386,-1.528 -3.386,-3.399 l 0,-14.445 z m 20.312,-9.77 0,33.985 6.777,0 0,-3.84 c 2.164,2.699 5.438,4.27 8.899,4.27 l 0,-7.141 c -3.559,1.168 -7.391,-0.774 -8.555,-4.332 -0.23,-0.684 -0.344,-1.399 -0.344,-2.129 l 0,-20.813 -6.777,0 z m 25.824,-3.828 c 0,-1.871 1.524,-3.386 3.391,-3.386 1.863,0 3.387,1.515 3.387,3.386 l 0,7.227 c -1.864,-3.512 -6.235,-4.856 -9.739,-2.969 -2.347,1.254 -3.812,3.699 -3.812,6.371 l 0,20.387 c 0,3.984 3.23,7.227 7.203,7.227 2.66,0 5.094,-1.469 6.348,-3.829 l 0,3.399 6.777,0 0,-37.813 c 0,-5.629 -4.555,-10.187 -10.164,-10.187 -5.609,0 -10.164,4.558 -10.164,10.187 l 6.773,0 z m 6.778,13.598 0,14.445 c 0,1.871 -1.524,3.399 -3.387,3.399 -1.867,0 -3.391,-1.528 -3.391,-3.399 l 0,-14.445 c 0,-1.871 1.524,-3.398 3.391,-3.398 1.863,0 3.387,1.527 3.387,3.398 m 33.867,-9.77 -6.778,0 0,3.399 c -1.863,-3.512 -6.234,-4.856 -9.734,-2.969 -2.351,1.254 -3.816,3.699 -3.816,6.371 l 0,27.184 6.777,0 0,-24.215 c 0,-1.871 1.523,-3.398 3.387,-3.398 1.879,0 3.386,1.527 3.386,3.398 l 0,24.215 6.778,0 0,-33.985 z m 6.777,0 0,33.985 6.762,0 0,-3.399 c 1.879,3.516 6.234,4.86 9.738,2.973 2.348,-1.258 3.817,-3.699 3.817,-6.371 l 0,-27.188 -6.778,0 0,24.215 c 0,1.871 -1.508,3.399 -3.39,3.399 -1.864,0 -3.387,-1.528 -3.387,-3.399 l 0,-24.215 -6.762,0 z m 33.012,-3.828 c 0,-1.871 1.523,-3.386 3.39,-3.386 1.864,0 3.387,1.515 3.387,3.386 l 0,7.227 c -1.879,-3.512 -6.234,-4.856 -9.738,-2.969 -2.348,1.254 -3.813,3.699 -3.813,6.371 l 0,20.387 c 0,3.984 3.231,7.227 7.204,7.227 2.648,0 5.093,-1.469 6.347,-3.829 l 0,3.399 6.778,0 0,-37.813 c 0,-5.629 -4.555,-10.187 -10.165,-10.187 -5.609,0 -10.164,4.558 -10.164,10.187 l 6.774,0 z m 6.777,13.598 0,14.445 c 0,1.871 -1.523,3.399 -3.387,3.399 -1.867,0 -3.39,-1.528 -3.39,-3.399 l 0,-14.445 c 0,-1.871 1.523,-3.398 3.39,-3.398 1.864,0 3.387,1.527 3.387,3.398 m 11.844,0 6.351,0 c 0,-2.113 1.708,-3.828 3.813,-3.828 2.109,0 3.816,1.715 3.816,3.828 0,1.516 -0.894,2.887 -2.277,3.5 l -5.48,2.016 c -4.911,2.187 -7.133,7.957 -4.954,12.886 2.176,4.942 7.93,7.157 12.84,4.973 3.516,-1.559 5.793,-5.059 5.793,-8.93 l -6.347,0 c 0,1.871 -1.508,3.399 -3.391,3.399 -1.863,0 -3.387,-1.528 -3.387,-3.399 0,-1.343 0.797,-2.558 2.024,-3.101 l 5.48,-2.028 c 5.137,-2.273 7.446,-8.3 5.18,-13.445 -2.277,-5.141 -8.285,-7.469 -13.41,-5.199 -3.672,1.644 -6.051,5.301 -6.051,9.328 m 44.875,-9.77 -6.766,0 0,3.399 c -1.879,-3.512 -6.234,-4.856 -9.734,-2.969 -2.352,1.254 -3.816,3.699 -3.816,6.371 l 0,20.387 c 0,3.984 3.218,7.227 7.203,7.227 2.648,0 5.097,-1.469 6.347,-3.829 l 0,17 6.766,0 0,-47.586 z m -6.766,9.77 0,14.445 c 0,1.871 -1.519,3.399 -3.386,3.399 -1.879,0 -3.387,-1.528 -3.387,-3.399 l 0,-14.445 c 0,-1.871 1.508,-3.398 3.387,-3.398 1.867,0 3.386,1.527 3.386,3.398 m 14.395,24.215 6.777,0 0,-33.985 -6.777,0 0,33.985 z m 0,13.601 6.777,0 0,-6.8 -6.777,0 0,6.8 z m 33.867,-37.816 c 0,-5.629 -4.555,-10.199 -10.164,-10.199 -5.609,0 -10.164,4.57 -10.164,10.199 l 0,14.445 c 0,5.629 4.555,10.2 10.164,10.2 5.609,0 10.164,-4.571 10.164,-10.2 l 0,-9.773 -13.551,0 0,-4.672 c 0,-1.871 1.524,-3.398 3.387,-3.398 1.863,0 3.387,1.527 3.387,3.398 l 6.777,0 z m -13.551,10.203 6.774,0 0,4.242 c 0,1.871 -1.524,3.399 -3.387,3.399 -1.863,0 -3.387,-1.528 -3.387,-3.399 l 0,-4.242 z m 19.473,-19.973 0,33.985 6.777,0 0,-3.399 c 1.864,3.516 6.223,4.86 9.739,2.973 2.332,-1.258 3.8,-3.699 3.8,-6.371 l 0,-27.188 -6.777,0 0,24.215 c 0,1.871 -1.508,3.399 -3.375,3.399 -1.879,0 -3.387,-1.528 -3.387,-3.399 l 0,-24.215 -6.777,0 z m 25.398,9.77 6.348,0 c 0,-2.113 1.711,-3.828 3.816,-3.828 2.106,0 3.801,1.715 3.801,3.828 0,1.516 -0.883,2.887 -2.262,3.5 l -5.48,2.016 c -4.926,2.187 -7.148,7.957 -4.969,12.886 2.176,4.942 7.93,7.157 12.856,4.973 3.515,-1.559 5.793,-5.059 5.793,-8.93 l -6.352,0 c 0,1.871 -1.523,3.399 -3.387,3.399 -1.878,0 -3.386,-1.528 -3.386,-3.399 0,-1.343 0.781,-2.558 2.008,-3.101 l 5.492,-2.028 c 5.125,-2.273 7.445,-8.3 5.168,-13.445 -2.262,-5.141 -8.27,-7.469 -13.395,-5.199 -3.687,1.644 -6.051,5.301 -6.051,9.328 m 37.254,-9.77 -3.386,0 c -4.215,0 -7.618,3.43 -7.618,7.641 l 0,20.816 -3.386,0 0,5.528 3.386,0 0,10.203 6.762,0 0,-10.203 4.242,0 0,-5.528 -4.242,0 0,-19.957 c 0,-1.171 0.957,-2.128 2.121,-2.128 l 2.121,0 0,-6.372 z" /><path
         id="path12286"
         style="fill:#000000;fill-opacity:1;fill-rule:nonzero;stroke:none"
         d="m 195.832,37.162 0,28.824 -3.434,0 0,5.601 3.434,0 0,5.168 c 0,4.747 3.836,8.61 8.582,8.61 l 5.133,0 0,-6.453 -4.703,0 c -1.196,0 -2.149,-0.973 -2.149,-2.157 l 0,-5.168 6.852,0 0,-5.601 -6.852,0 0,-28.824 -6.863,0 z m 21.445,0 0,34.425 6.864,0 0,-3.894 c 4.007,4.996 11.304,5.777 16.281,1.738 l 0.012,0 -4.872,-6.035 c -2.843,2.52 -7.167,2.274 -9.691,-0.578 -1.125,-1.258 -1.73,-2.879 -1.73,-4.574 l 0,-21.082 -6.864,0 z m 54.883,14.629 -21.441,0 0,-0.856 c 0,-2.992 1.816,-5.687 4.586,-6.801 3.804,-1.519 8.175,-0.449 10.843,2.68 l 5.204,-4.488 c -4.586,-5.367 -12.055,-7.207 -18.602,-4.574 -5.363,2.156 -8.898,7.367 -8.898,13.183 l 0,6.891 c 0,7.828 6.347,14.195 14.164,14.195 7.812,0 14.144,-6.367 14.144,-14.195 l 0,-6.035 z m -21.441,6.035 14.578,0 c 0,4.035 -3.258,7.308 -7.281,7.308 -4.024,0 -7.297,-3.273 -7.297,-7.308 m 30.871,13.761 6.867,0 0,-34.425 -6.867,0 0,34.425 z m 0,13.778 6.867,0 0,-6.891 -6.867,0 0,6.891 z" /><path
         id="path12288"
         style="fill:#000000;fill-opacity:1;fill-rule:nonzero;stroke:none"
         d="M 32.398,264.806 C 14.516,264.806 0,250.24 0,232.291 L 0,32.513 C 0,14.564 14.516,0.002 32.398,0.002 l 416,0 c 17.887,0 32.399,14.562 32.399,32.511 l 0,199.778 c 0,17.949 -14.512,32.515 -32.399,32.515 l -416,0 z m 0,-0.402 416.008,0 c 17.672,0 32,-14.391 32,-32.121 l 0,-199.77 c 0,-17.73 -14.328,-32.105 -32,-32.105 l -416.008,0 C 14.73,0.408 0.406,14.783 0.406,32.513 l 0,199.77 c 0,17.73 14.324,32.121 31.992,32.121 z" /></g></g></svg>