<?xml version="1.0" encoding="UTF-8" standalone="no"?>
<svg
   xmlns:dc="http://purl.org/dc/elements/1.1/"
   xmlns:cc="http://creativecommons.org/ns#"
   xmlns:rdf="http://www.w3.org/1999/02/22-rdf-syntax-ns#"
   xmlns:svg="http://www.w3.org/2000/svg"
   xmlns="http://www.w3.org/2000/svg"
   viewBox="0 0 600 450.00342"
   height="450.00342"
   width="600"
   xml:space="preserve"
   version="1.1"
   id="svg5342"><metadata
     id="metadata5348"><rdf:RDF><cc:Work
         rdf:about=""><dc:format>image/svg+xml</dc:format><dc:type
           rdf:resource="http://purl.org/dc/dcmitype/StillImage" /><dc:title></dc:title></cc:Work></rdf:RDF></metadata><defs
     id="defs5346"><clipPath
       id="clipPath5362"
       clipPathUnits="userSpaceOnUse"><path
         id="path5364"
         d="M 0,0 480,0 480,361 0,361 0,0 Z" /></clipPath></defs><g
     transform="matrix(1.25,0,0,-1.25,0,450.00343)"
     id="g5350"><g
       id="g5352" /><g
       id="g5354"><g
         transform="translate(0,-0.997253)"
         id="g5356"><g
           id="g5358"><g
             clip-path="url(#clipPath5362)"
             id="g5360"><g
               id="g5366"><path
                 id="path5368"
                 style="fill:#ffffff;fill-opacity:1;fill-rule:nonzero;stroke:none"
                 d="m 31.996,360.77 c -17.504,0 -31.754,-14.25 -31.754,-31.758 l 0,-296.004 C 0.242,15.488 14.492,1.25 31.996,1.25 l 416.008,0 c 17.516,0 31.766,14.238 31.766,31.758 l 0,296.004 c 0,17.508 -14.25,31.758 -31.766,31.758" /><path
                 id="path5370"
                 style="fill:#000000;fill-opacity:1;fill-rule:nonzero;stroke:none"
                 d="M 31.996,1.48 C 14.613,1.48 0.473,15.621 0.473,33.008 l 0,295.996 c 0,17.383 14.14,31.535 31.523,31.535 l 416.008,0 c 17.383,0 31.523,-14.152 31.523,-31.535 l 0,-295.996 c 0,-17.387 -14.14,-31.528 -31.523,-31.528 l -416.008,0 z m 416.008,359.532 -416.008,0 C 14.328,361.012 0,346.684 0,329.004 L 0,33.008 C 0,15.324 14.328,0.996 31.996,0.996 l 416.008,0 C 465.672,0.996 480,15.324 480,33.008 l 0,295.996 c 0,17.68 -14.328,32.008 -31.996,32.008" /></g></g></g></g><path
         id="path5372"
         style="fill:#000000;fill-opacity:1;fill-rule:nonzero;stroke:none"
         d="m 31.996,8.007 c -13.25,0 -23.992,10.754 -23.992,24.004 l 0,296.003 c 0,13.25 10.742,23.997 23.992,23.997 l 416.008,0 c 13.25,0 24.004,-10.747 24.004,-23.997 l 0,-296.003 c 0,-13.25 -10.754,-24.004 -24.004,-24.004" /><path
         id="path5374"
         style="fill:#ffffff;fill-opacity:1;fill-rule:nonzero;stroke:none"
         d="m 31.996,20.011 c -6.617,0 -11.996,5.367 -11.996,12 l 0,296.003 c 0,6.633 5.379,11.997 11.996,11.997 l 416.008,0 c 6.629,0 12.004,-5.364 12.004,-11.997 l 0,-296.003 c 0,-6.633 -5.375,-12 -12.004,-12" /><path
         id="path5376"
         style="fill:#000000;fill-opacity:1;fill-rule:nonzero;stroke:none"
         d="m 307.199,116.018 -9.597,0 0,9.598 9.597,0 0,-9.598 z m 0,-57.609 -9.597,0 0,47.996 9.597,0 0,-47.996 z m -52.801,28.801 20.411,0 c 0,5.64 -4.575,10.203 -10.207,10.203 -5.629,0 -10.204,-4.563 -10.204,-10.203 z m 30.008,-8.403 -30.008,0 0,-1.199 c 0,-4.168 2.54,-7.918 6.422,-9.469 5.332,-2.132 11.438,-0.632 15.176,3.719 l 7.289,-6.246 c -6.422,-7.476 -16.89,-10.051 -26.027,-6.391 -7.531,3.016 -12.457,10.293 -12.457,18.387 l 0,9.602 c 0,10.937 8.863,19.801 19.801,19.801 10.941,0 19.804,-8.864 19.804,-19.801 l 0,-8.403 z m -76.804,-20.398 0,47.996 9.597,0 0,-5.41 c 5.629,6.961 15.824,8.039 22.785,2.422 l 0.016,0 -6.828,-8.414 c -3.957,3.531 -10.027,3.179 -13.547,-0.789 -1.563,-1.762 -2.43,-4.028 -2.43,-6.379 l 0,-29.403 -9.597,0 0.004,-0.023 z m -29.997,0 0,40.203 -4.804,0 0,7.793 4.804,0 0,7.203 c 0,6.633 5.364,12.008 11.997,12.008 l 7.203,0 0,-9.004 -6.598,0 c -1.66,0 -3.004,-1.344 -3.004,-3.004 l 0,-7.203 9.602,0 0,-7.793 -9.602,0 0,-40.203" /><path
         id="path5378"
         style="fill:#000000;fill-opacity:1;fill-rule:nonzero;stroke:none"
         d="m 336,316.811 0,-86.769 c -18.344,22.094 -51.133,25.117 -73.223,6.773 -11.898,-9.883 -18.769,-24.539 -18.769,-40 l -43.028,0 c -11.05,13.789 -31.183,16.02 -44.984,4.981 -1.836,-1.473 -3.508,-3.145 -4.98,-4.981 l -7.016,0 -7.906,50.766 c -0.68,4.367 2.308,8.457 6.676,9.137 0.406,0.089 0.824,0.089 1.23,0.089 l 100.008,0 7.762,46.633 c 1.289,7.719 7.96,13.371 15.781,13.371" /><path
         id="path5380"
         style="fill:#ffffff;fill-opacity:1;fill-rule:nonzero;stroke:none"
         d="m 316.008,304.815 0,-48.008 -62.004,0 7.445,44.664 c 0.317,1.926 1.989,3.344 3.934,3.344" /><path
         id="path5382"
         style="fill:#000000;fill-opacity:1;fill-rule:nonzero;stroke:none"
         d="m 344.004,196.815 c 0,-26.511 -21.484,-47.996 -47.996,-47.996 -26.524,0 -48.008,21.485 -48.008,47.996 0,26.508 21.484,47.996 48.008,47.996 26.512,0 47.996,-21.488 47.996,-47.996" /><path
         id="path5384"
         style="fill:#ffffff;fill-opacity:1;fill-rule:nonzero;stroke:none"
         d="m 320,196.815 c 0,-13.261 -10.742,-24.004 -23.992,-24.004 -13.25,0 -24.004,10.743 -24.004,24.004 0,13.25 10.754,23.992 24.004,23.992 13.25,0 23.992,-10.742 23.992,-23.992" /><path
         id="path5386"
         style="fill:#000000;fill-opacity:1;fill-rule:nonzero;stroke:none"
         d="m 204.004,176.811 c 0,-15.457 -12.535,-27.992 -28.004,-27.992 -15.461,0 -27.996,12.535 -27.996,27.992 0,15.461 12.535,27.996 27.996,27.996 15.469,0 28.004,-12.535 28.004,-27.996" /><path
         id="path5388"
         style="fill:#ffffff;fill-opacity:1;fill-rule:nonzero;stroke:none"
         d="m 190.008,176.811 c 0,-7.726 -6.27,-13.996 -14.008,-13.996 -7.73,0 -14,6.27 -14,13.996 0,7.731 6.27,14 14,14 7.738,0 14.008,-6.269 14.008,-14" /></g></g></svg>