<?xml version="1.0" encoding="UTF-8" standalone="no"?>
<svg
   xmlns:dc="http://purl.org/dc/elements/1.1/"
   xmlns:cc="http://creativecommons.org/ns#"
   xmlns:rdf="http://www.w3.org/1999/02/22-rdf-syntax-ns#"
   xmlns:svg="http://www.w3.org/2000/svg"
   xmlns="http://www.w3.org/2000/svg"
   viewBox="0 0 421.01364 232.01756"
   height="232.01756"
   width="421.01364"
   xml:space="preserve"
   id="svg10263"
   version="1.1"><metadata
     id="metadata10269"><rdf:RDF><cc:Work
         rdf:about=""><dc:format>image/svg+xml</dc:format><dc:type
           rdf:resource="http://purl.org/dc/dcmitype/StillImage" /><dc:title></dc:title></cc:Work></rdf:RDF></metadata><defs
     id="defs10267"><clipPath
       id="clipPath10283"
       clipPathUnits="userSpaceOnUse"><path
         id="path10281"
         d="M 0,0 H 316 V 175 H 0 Z" /></clipPath><clipPath
       id="clipPath10299"
       clipPathUnits="userSpaceOnUse"><path
         id="path10297"
         d="M 5,6 H 311 V 170 H 5 Z" /></clipPath><clipPath
       id="clipPath10317"
       clipPathUnits="userSpaceOnUse"><path
         id="path10315"
         d="m 128,42 h 60 v 92 h -60 z" /></clipPath></defs><g
     transform="matrix(1.3333333,0,0,-1.3333333,0,232.01756)"
     id="g10271"><g
       id="g10273"><g
         transform="translate(0,-0.986832)"
         id="g10275"><g
           id="g10277"><g
             clip-path="url(#clipPath10283)"
             id="g10279"><g
               id="g10285"><path
                 id="path10287"
                 style="fill:#ffffff;fill-opacity:1;fill-rule:evenodd;stroke:none"
                 d="M 21.375,1.367 C 9.781,1.367 0.379,10.77 0.379,22.363 v 131.258 c 0,11.594 9.402,21.004 20.996,21.004 h 273.008 c 11.597,0 20.996,-9.41 20.996,-21.004 V 22.363 c 0,-11.593 -9.399,-20.996 -20.996,-20.996 z" /><path
                 id="path10289"
                 style="fill:#000000;fill-opacity:1;fill-rule:evenodd;stroke:none"
                 d="M 21.375,175 C 9.578,175 0,165.422 0,153.625 V 22.363 C 0,10.563 9.578,0.988 21.375,0.988 h 273.008 c 11.801,0 21.379,9.575 21.379,21.375 v 131.262 c 0,11.797 -9.578,21.375 -21.379,21.375 z m 0,-0.375 h 273.008 c 11.597,0 20.996,-9.41 20.996,-21.004 V 22.363 C 315.379,10.77 305.98,1.371 294.383,1.371 H 21.375 C 9.781,1.371 0.379,10.77 0.379,22.363 v 131.258 c 0,11.594 9.402,21.004 20.996,21.004 z" /></g></g></g></g><g
         transform="translate(0,-0.986832)"
         id="g10291"><g
           id="g10293"><g
             clip-path="url(#clipPath10299)"
             id="g10295"><g
               id="g10301"><path
                 id="path10303"
                 style="fill:#000000;fill-opacity:1;fill-rule:evenodd;stroke:none"
                 d="m 21.375,6.617 c -8.699,0 -15.746,7.055 -15.746,15.746 v 131.258 c 0,8.699 7.047,15.754 15.746,15.754 h 273.008 c 8.695,0 15.75,-7.055 15.75,-15.754 V 22.363 c 0,-8.691 -7.055,-15.746 -15.75,-15.746 z" /><path
                 id="path10305"
                 style="fill:#ffffff;fill-opacity:1;fill-rule:evenodd;stroke:none"
                 d="m 21.375,14.492 c -4.344,0 -7.871,3.528 -7.871,7.875 v 131.254 c 0,4.348 3.527,7.875 7.871,7.875 h 273.008 c 4.347,0 7.875,-3.527 7.875,-7.875 V 22.367 c 0,-4.347 -3.528,-7.875 -7.875,-7.875 z" /></g></g></g></g></g><g
       id="g10307"><g
         transform="translate(0,-0.986832)"
         id="g10309"><g
           id="g10311"><g
             clip-path="url(#clipPath10317)"
             id="g10313"><g
               id="g10319"><path
                 id="path10321"
                 style="fill:#000000;fill-opacity:1;fill-rule:nonzero;stroke:none"
                 d="M 142.344,82.445 V 55.402 h 45.058 V 42.059 h -59.043 v 91.875 h 59.043 V 121.063 H 142.344 V 94.777 h 38.41 V 82.445 Z" /></g></g></g></g></g></g></svg>