<?xml version="1.0" encoding="UTF-8" standalone="no"?>
<svg
   xmlns:dc="http://purl.org/dc/elements/1.1/"
   xmlns:cc="http://creativecommons.org/ns#"
   xmlns:rdf="http://www.w3.org/1999/02/22-rdf-syntax-ns#"
   xmlns:svg="http://www.w3.org/2000/svg"
   xmlns="http://www.w3.org/2000/svg"
   viewBox="0 0 601 450.99997"
   height="450.99997"
   width="601"
   xml:space="preserve"
   version="1.1"
   id="svg7210"><metadata
     id="metadata7216"><rdf:RDF><cc:Work
         rdf:about=""><dc:format>image/svg+xml</dc:format><dc:type
           rdf:resource="http://purl.org/dc/dcmitype/StillImage" /><dc:title></dc:title></cc:Work></rdf:RDF></metadata><defs
     id="defs7214" /><g
     transform="matrix(1.25,0,0,-1.25,0,450.99998)"
     id="g7218"><g
       id="g7220"><path
         id="path7222"
         style="fill:#ffffff;fill-opacity:1;fill-rule:nonzero;stroke:none"
         d="m 32.184,360.402 c -17.52,0 -31.786,-14.266 -31.786,-31.797 l 0,-296.414 C 0.398,14.663 14.664,0.402 32.184,0.402 l 416.418,0 c 17.535,0 31.796,14.261 31.796,31.789 l 0,296.414 c 0,17.531 -14.261,31.797 -31.796,31.797 l -416.418,0 z" /><path
         id="path7224"
         style="fill:#000000;fill-opacity:1;fill-rule:nonzero;stroke:none"
         d="m 32.184,352.632 c -13.262,0 -24.016,-10.758 -24.016,-24.027 l 0,-296.414 C 8.168,18.925 18.922,8.163 32.184,8.163 l 416.418,0 c 13.265,0 24.027,10.762 24.027,24.028 l 0,296.414 c 0,13.269 -10.762,24.027 -24.027,24.027 l -416.418,0 z m 0,-12.02 416.418,0 c 6.636,0 12.015,-5.375 12.015,-12.007 l 0,-296.414 c 0,-6.641 -5.379,-12.008 -12.015,-12.008 l -416.418,0 c -6.621,0 -12.008,5.367 -12.008,12.008 l 0,296.414 c 0,6.632 5.387,12.007 12.008,12.007 z" /><path
         id="path7226"
         style="fill:#000000;fill-opacity:1;fill-rule:nonzero;stroke:none"
         d="M 32.184,360.8 C 14.445,360.8 0,346.355 0,328.605 L 0,32.191 C 0,14.448 14.445,-0.001 32.184,-0.001 l 416.418,0 c 17.75,0 32.199,14.449 32.199,32.192 l 0,296.414 c 0,17.75 -14.449,32.195 -32.199,32.195 l -416.418,0 z m 0,-0.398 416.418,0 c 17.535,0 31.796,-14.266 31.796,-31.797 l 0,-296.414 c 0,-17.524 -14.261,-31.789 -31.796,-31.789 l -416.418,0 c -17.52,0 -31.786,14.265 -31.786,31.789 l 0,296.414 c 0,17.531 14.266,31.797 31.786,31.797 z" /><path
         id="path7228"
         style="fill:#000000;fill-opacity:1;fill-rule:nonzero;stroke:none"
         d="m 396.445,103.241 c -4.984,2.657 -11.175,0.774 -13.832,-4.207 l 0,4.805 -9.621,0 0,-48.105 9.621,0 0,34.273 c 0,2.656 2.149,4.816 4.805,4.816 2.656,0 4.816,-2.16 4.816,-4.816 l 0,-34.273 9.621,0 0,38.484 c 0,3.777 -2.082,7.238 -5.41,9.023 z m -41.492,-19.242 -9.621,0 0,6.008 c 0,2.656 2.148,4.816 4.805,4.816 2.656,0 4.816,-2.16 4.816,-4.816 l 0,-6.008 z m -4.816,20.446 c -7.969,0 -14.426,-6.469 -14.426,-14.438 l 0,-20.441 c 0,-7.969 6.457,-14.438 14.426,-14.438 7.968,0 14.437,6.469 14.437,14.438 l -9.621,0 c 0,-2.657 -2.16,-4.805 -4.816,-4.805 -2.657,0 -4.805,2.148 -4.805,4.805 l 0,6.609 19.242,0 0,13.832 c 0,7.969 -6.469,14.438 -14.437,14.438 z M 316.461,69.566 c 0,-2.657 -2.152,-4.805 -4.805,-4.805 -2.656,0 -4.816,2.148 -4.816,4.805 l 0,20.441 c 0,2.656 2.16,4.816 4.816,4.816 2.653,0 4.805,-2.16 4.805,-4.816 l 0,-20.441 z m 0,29.468 c -1.777,3.328 -5.234,5.411 -9.016,5.411 -5.644,0 -10.226,-4.575 -10.226,-10.227 l 0,-28.863 c 0,-3.77 2.082,-7.239 5.41,-9.016 4.992,-2.664 11.187,-0.781 13.832,4.211 l 0,-10.227 c 0,-2.656 -2.152,-4.816 -4.805,-4.816 -2.656,0 -4.816,2.16 -4.816,4.816 l -9.621,0 c 0,-7.98 6.469,-14.437 14.437,-14.437 7.965,0 14.434,6.457 14.434,14.437 l 0,53.516 -9.629,0 0,-4.805 z M 279.18,69.566 c 0,-2.657 -2.153,-4.805 -4.805,-4.805 -2.668,0 -4.816,2.148 -4.816,4.805 l 0,2.402 c 0,2.656 2.148,4.816 4.816,4.816 l 4.805,0 0,-7.218 z m -4.805,34.879 c -7.969,0 -14.437,-6.469 -14.437,-14.438 l 9.621,0 c 0,2.656 2.148,4.816 4.816,4.816 2.652,0 4.805,-2.16 4.805,-4.816 l 0,-5.41 -7.207,0 c -6.649,0 -12.035,-5.379 -12.035,-12.024 l 0,-7.218 c 0,-3.77 2.082,-7.239 5.41,-9.016 4.98,-2.664 11.175,-0.781 13.832,4.211 l 0,-4.816 9.617,0 0,34.273 c 0,7.969 -6.457,14.438 -14.422,14.438 z m -26.461,13.828 -9.621,0 0,-14.434 -4.816,0 0,-7.816 4.816,0 0,-29.465 c 0,-5.973 4.84,-10.824 10.82,-10.824 l 4.805,0 0,9.027 -2.996,0 c -1.664,0 -3.008,1.344 -3.008,2.996 l 0,28.266 6.004,0 0,7.816 -6.004,0 0,14.434 z m -31.871,-14.434 -9.621,0 0,-48.105 9.621,0 0,29.468 c 0,1.016 0.164,2.039 0.484,3.008 1.653,5.047 7.098,7.793 12.145,6.129 l 0,10.106 c -4.902,0 -9.555,-2.227 -12.629,-6.04 l 0,5.434 z m -27.66,-19.84 -9.621,0 0,6.008 c 0,2.656 2.148,4.816 4.804,4.816 2.657,0 4.817,-2.16 4.817,-4.816 l 0,-6.008 z m -4.817,20.446 c -7.968,0 -14.425,-6.469 -14.425,-14.438 l 0,-20.441 c 0,-7.969 6.457,-14.438 14.425,-14.438 7.969,0 14.438,6.469 14.438,14.438 l -9.621,0 c 0,-2.657 -2.16,-4.805 -4.817,-4.805 -2.656,0 -4.804,2.148 -4.804,4.805 l 0,6.609 19.242,0 0,13.832 c 0,7.969 -6.469,14.438 -14.438,14.438 z m -33.675,9.023 9.617,0 0,9.621 -9.617,0 0,-9.621 z m 0,-57.734 9.617,0 0,48.105 -9.617,0 0,-48.105 z m -18.032,28.265 -9.629,0 0,6.008 c 0,2.656 2.157,4.816 4.813,4.816 2.656,0 4.816,-2.16 4.816,-4.816 l 0,-6.008 z m -4.816,20.446 c -7.965,0 -14.434,-6.469 -14.434,-14.438 l 0,-20.441 c 0,-7.969 6.469,-14.438 14.434,-14.438 7.969,0 14.437,6.469 14.437,14.438 l -9.621,0 c 0,-2.657 -2.16,-4.805 -4.816,-4.805 -2.656,0 -4.813,2.148 -4.813,4.805 l 0,6.609 19.25,0 0,13.832 c 0,7.969 -6.468,14.438 -14.437,14.438 z m -48.102,-48.711 9.622,0 0,28.863 16.839,0 0,9.023 -16.839,0 0,20.446 19.242,0 0,9.023 -28.864,0 0,-67.355 z m 355.391,105.234 c 0,-2.656 -2.148,-4.809 -4.816,-4.809 -2.657,0 -4.817,2.153 -4.817,4.809 l 0,20.441 c 0,2.668 2.16,4.817 4.817,4.817 2.668,0 4.816,-2.149 4.816,-4.817 l 0,-20.441 z m 0,53.523 0,-24.058 c -1.785,3.328 -5.246,5.414 -9.027,5.414 -5.641,0 -10.227,-4.574 -10.227,-10.219 l 0,-28.871 c 0,-3.77 2.094,-7.242 5.422,-9.016 4.98,-2.656 11.164,-0.769 13.832,4.211 l 0,-4.816 9.621,0 0,67.355 -9.621,0 z M 401.25,194.644 c -4.984,2.656 -11.176,0.769 -13.832,-4.211 l 0,4.804 -9.621,0 0,-48.101 9.621,0 0,34.273 c 0,2.668 2.16,4.817 4.816,4.817 2.657,0 4.805,-2.149 4.805,-4.817 l 0,-34.273 9.621,0 0,38.492 c 0,3.77 -2.082,7.242 -5.41,9.016 z m -42.695,-33.676 c 0,-2.656 -2.16,-4.809 -4.805,-4.809 -2.652,0 -4.812,2.153 -4.812,4.809 l 0,34.269 -9.622,0 0,-38.48 c 0,-3.77 2.082,-7.242 5.411,-9.016 4.98,-2.656 11.175,-0.769 13.828,4.211 l 0,-4.816 9.621,0 0,48.101 -9.621,0 0,-34.269 z m -39.684,17.441 -28.859,0 0,-9.617 28.859,0 0,9.617 z m -68.555,16.828 0,-48.101 9.622,0 0,34.273 c 0,2.668 2.148,4.817 4.816,4.817 2.644,0 4.805,-2.149 4.805,-4.817 l 0,-34.273 9.621,0 0,38.492 c 0,3.77 -2.086,7.242 -5.414,9.016 -4.981,2.656 -11.172,0.769 -13.828,-4.211 l 0,4.804 -9.622,0 z m -9.621,-48.101 0,38.492 c 0,3.77 -2.082,7.242 -5.41,9.016 -4.98,2.656 -11.176,0.769 -13.832,-4.211 l 0,4.804 -9.621,0 0,-48.101 9.621,0 0,34.273 c 0,2.668 2.149,4.817 4.805,4.817 2.668,0 4.816,-2.149 4.816,-4.817 l 0,-34.273 9.621,0 z m -48.101,13.832 c 0,-2.656 -2.16,-4.809 -4.817,-4.809 -2.656,0 -4.804,2.153 -4.804,4.809 l 0,20.441 c 0,2.668 2.148,4.817 4.804,4.817 2.657,0 4.817,-2.149 4.817,-4.817 l 0,-20.441 z m -4.817,34.879 c -7.968,0 -14.425,-6.461 -14.425,-14.438 l 0,-20.441 c 0,-7.969 6.457,-14.426 14.425,-14.426 7.969,0 14.438,6.457 14.438,14.426 l 0,20.441 c 0,7.977 -6.469,14.438 -14.438,14.438 z m -37.886,19.238 c -8.961,0 -16.235,-7.273 -16.235,-16.23 l 0,-4.211 c 0,-6.614 4.012,-12.563 10.141,-15.055 l 8.582,-3.469 c 2.492,-1.015 4.133,-3.441 4.133,-6.129 l 0,-7.218 c 0,-3.657 -2.965,-6.614 -6.621,-6.614 l -0.598,0 c -3.656,0 -6.609,2.957 -6.609,6.614 l 0,3.605 -9.633,0 0,-3.605 c 0,-8.969 7.273,-16.231 16.242,-16.231 l 0.598,0 c 8.968,0 16.242,7.262 16.242,16.231 l 0,7.218 c 0,6.614 -4.012,12.563 -10.149,15.043 l -8.574,3.481 c -2.504,1.004 -4.133,3.441 -4.133,6.129 l 0,4.211 c 0,3.644 2.965,6.609 6.614,6.609 3.656,0 6.621,-2.965 6.621,-6.609 l 0,-3.618 9.621,0 0,3.618 c 0,8.957 -7.274,16.23 -16.242,16.23 z M 84.949,181.409 c 0,2.668 2.156,4.817 4.813,4.817 2.656,0 4.804,-2.149 4.804,-4.817 l 0,-34.273 9.622,0 0,38.492 c 0,3.77 -2.071,7.242 -5.411,9.016 -4.98,2.656 -11.175,0.769 -13.828,-4.211 l 0,4.804 -9.621,0 0,-48.101 9.621,0 0,34.273 z M 56.086,160.968 c 0,-2.656 -2.16,-4.809 -4.816,-4.809 -2.657,0 -4.805,2.153 -4.805,4.809 l 0,2.41 c 0,2.645 2.148,4.805 4.805,4.805 l 4.816,0 0,-7.215 z m -4.816,34.879 c -7.969,0 -14.426,-6.461 -14.426,-14.438 l 9.621,0 c 0,2.668 2.148,4.817 4.805,4.817 2.656,0 4.816,-2.149 4.816,-4.817 l 0,-5.41 -7.219,0 c -6.644,0 -12.023,-5.379 -12.023,-12.023 l 0,-7.219 c 0,-3.77 2.082,-7.242 5.41,-9.016 4.98,-2.656 11.176,-0.769 13.832,4.211 l 0,-4.816 9.621,0 0,34.273 c 0,7.977 -6.457,14.438 -14.437,14.438 z m 285.335,76.973 c 0,2.656 2.161,4.804 4.817,4.804 2.652,0 4.805,-2.148 4.805,-4.804 l 0,-34.282 9.628,0 0,38.492 c 0,3.77 -2.093,7.243 -5.41,9.016 -4.992,2.656 -11.175,0.77 -13.84,-4.211 l 0,24.059 -9.621,0 0,-67.356 9.621,0 0,34.282 z m -30.062,-24.661 -25.855,0 21.644,27.075 c 2.723,3.406 4.211,7.648 4.211,12.011 0,10.637 -8.621,19.242 -19.242,19.242 -10.625,0 -19.242,-8.605 -19.242,-19.242 l 9.621,0 c 0,2.184 0.738,4.289 2.093,5.985 3.305,4.168 9.344,4.859 13.512,1.554 4.153,-3.304 4.848,-9.355 1.551,-13.523 l -26.777,-33.699 0,-9.024 38.484,0 0,9.621 z m -50.508,0 -25.863,0 21.644,27.075 c 2.731,3.406 4.219,7.648 4.219,12.011 0,10.637 -8.617,19.242 -19.25,19.242 -10.625,0 -19.242,-8.605 -19.242,-19.242 l 9.621,0 c 0,2.184 0.738,4.289 2.094,5.985 3.305,4.168 9.355,4.859 13.508,1.554 4.168,-3.304 4.863,-9.355 1.554,-13.523 l -26.777,-33.699 0,-9.024 38.492,0 0,9.621 z m -49.316,21.653 -28.86,0 0,-9.621 28.86,0 0,9.621 z m -72.16,-9.621 c 0,5.312 4.308,9.621 9.621,9.621 5.312,0 9.621,-4.309 9.621,-9.621 l 0,-3.008 c 0,-5.313 -4.309,-9.621 -9.621,-9.621 -5.313,0 -9.621,4.308 -9.621,9.621 l 0,3.008 z m 9.621,-22.25 c 10.625,0 19.242,8.609 19.242,19.242 l 0,5.41 c 0,2.039 -0.399,4.066 -1.18,5.953 -3.285,7.988 -12.429,11.789 -20.41,8.508 l 14.371,28.84 -10.82,0 -18.438,-37.149 c -1.324,-2.656 -2.004,-5.59 -2.004,-8.554 l 0,-3.008 c 0,-10.633 8.618,-19.242 19.239,-19.242" /></g></g></svg>