<?xml version="1.0" encoding="utf-8"?>
<!-- Generator: Adobe Illustrator 15.0.0, SVG Export Plug-In . SVG Version: 6.00 Build 0)  -->
<!DOCTYPE svg PUBLIC "-//W3C//DTD SVG 1.1//EN" "http://www.w3.org/Graphics/SVG/1.1/DTD/svg11.dtd">
<svg version="1.1" id="Ebene_1" xmlns="http://www.w3.org/2000/svg" xmlns:xlink="http://www.w3.org/1999/xlink" x="0px" y="0px"
	 width="1700.777px" height="1275.583px" viewBox="0 0 1700.777 1275.583" enable-background="new 0 0 1700.777 1275.583"
	 xml:space="preserve">
<g>
	<path fill="#FFFFFF" d="M113.385,1274.333c-61.832,0-112.135-50.304-112.135-112.135V113.386C1.25,51.554,51.553,1.25,113.385,1.25
		h1474.007c61.832,0,112.135,50.304,112.135,112.136v1048.812c0,61.831-50.304,112.135-112.135,112.135H113.385z"/>
	<path d="M1587.392,2.5c29.618,0,57.464,11.534,78.408,32.478c20.943,20.943,32.478,48.79,32.478,78.408v1048.812
		c0,29.618-11.534,57.464-32.478,78.407c-20.944,20.943-48.79,32.478-78.408,32.478H113.385c-29.619,0-57.464-11.534-78.408-32.478
		S2.5,1191.816,2.5,1162.198V113.386c0-29.619,11.534-57.465,32.477-78.408S83.766,2.5,113.385,2.5H1587.392 M1587.392,0H113.385
		C50.764,0,0,50.765,0,113.386v1048.812c0,62.621,50.764,113.385,113.385,113.385h1474.007c62.62,0,113.385-50.764,113.385-113.385
		V113.386C1700.777,50.765,1650.012,0,1587.392,0L1587.392,0z"/>
</g>
<path d="M113.385,1247.237c-46.966,0-85.039-38.073-85.039-85.039V113.386c0-46.966,38.073-85.039,85.039-85.039h1474.007
	c46.965,0,85.038,38.073,85.038,85.039v1048.812c0,46.966-38.073,85.039-85.038,85.039H113.385z"/>
<path fill="#FFFFFF" d="M113.385,1204.717c-23.483,0-42.519-19.036-42.519-42.519V113.386c0-23.483,19.036-42.52,42.519-42.52
	h1474.007c23.482,0,42.519,19.037,42.519,42.52v1048.812c0,23.483-19.037,42.519-42.519,42.519H113.385z"/>
<path d="M629.287,1071.49V929.05H612.28v-27.638h17.007V875.9c0-23.482,19.037-42.519,42.52-42.519h25.511v31.89h-23.385
	c-5.871,0-10.63,4.759-10.63,10.629v25.512h34.015v27.638h-34.015v142.44H629.287z M735.586,1071.49V901.412h34.015v19.196
	c10.898-13.485,27.308-21.322,44.646-21.322c13.159,0,25.918,4.521,36.141,12.807l-24.16,29.811
	c-6.228-5.541-14.275-8.602-22.611-8.602c-18.786,0-34.016,15.229-34.016,34.015v104.173H735.586z M1007.71,999.207H901.412v4.252
	c0,14.778,8.997,28.068,22.719,33.556l0,0c5.621,2.249,11.62,3.404,17.674,3.404c13.882,0,27.072-6.061,36.113-16.595l25.812,22.154
	c-15.504,18.063-38.121,28.457-61.925,28.457c-10.382,0-20.668-1.981-30.308-5.837l0,0c-26.635-10.654-44.101-36.452-44.101-65.139
	v-34.016c0-38.746,31.41-70.157,70.157-70.157c38.747,0,70.157,31.411,70.157,70.157V999.207z M901.412,969.443h72.283
	c0-19.96-16.181-36.141-36.142-36.141C917.593,933.302,901.412,949.483,901.412,969.443z M1054.482,1071.49V901.412h34.015v170.078
	H1054.482z M1054.482,867.397v-34.016h34.015v34.016H1054.482z"/>
<path d="M826.294,416.691c0,117.414-95.183,212.597-212.597,212.597c-117.414,0-212.597-95.183-212.597-212.597
	s95.183-212.597,212.597-212.597C731.111,204.094,826.294,299.277,826.294,416.691z"/>
<path fill="#FFED00" d="M817.79,416.691c0,112.717-91.376,204.093-204.093,204.093c-112.718,0-204.093-91.376-204.093-204.093
	c0-112.718,91.375-204.093,204.093-204.093C726.414,212.598,817.79,303.973,817.79,416.691z"/>
<path fill="#FFFFFF" d="M454.249,532.911V426.612h318.896v106.299H454.249z"/>
<path d="M1299.677,416.691c0,117.414-95.183,212.597-212.597,212.597s-212.597-95.183-212.597-212.597
	s95.183-212.597,212.597-212.597S1299.677,299.277,1299.677,416.691z"/>
<path fill="#008C49" d="M1291.173,416.691c0,112.717-91.376,204.093-204.093,204.093c-112.718,0-204.093-91.376-204.093-204.093
	c0-112.718,91.375-204.093,204.093-204.093C1199.797,212.598,1291.173,303.973,1291.173,416.691z"/>
<path fill="#FFFFFF" d="M927.632,532.911V426.612h318.896v106.299H927.632z"/>
</svg>
