<?xml version="1.0" encoding="UTF-8" standalone="no"?>
<svg
   xmlns:dc="http://purl.org/dc/elements/1.1/"
   xmlns:cc="http://creativecommons.org/ns#"
   xmlns:rdf="http://www.w3.org/1999/02/22-rdf-syntax-ns#"
   xmlns:svg="http://www.w3.org/2000/svg"
   xmlns="http://www.w3.org/2000/svg"
   viewBox="0 0 600 330"
   height="330"
   width="600"
   xml:space="preserve"
   id="svg8527"
   version="1.1"><metadata
     id="metadata8533"><rdf:RDF><cc:Work
         rdf:about=""><dc:format>image/svg+xml</dc:format><dc:type
           rdf:resource="http://purl.org/dc/dcmitype/StillImage" /><dc:title></dc:title></cc:Work></rdf:RDF></metadata><defs
     id="defs8531"><clipPath
       id="clipPath8549"
       clipPathUnits="userSpaceOnUse"><path
         id="path8547"
         d="M 0,0 H 450 V 248 H 0 Z" /></clipPath></defs><g
     transform="matrix(1.3333333,0,0,-1.3333333,0,330)"
     id="g8535"><g
       id="g8537" /><g
       id="g8539"><g
         transform="translate(0,-0.5)"
         id="g8541"><g
           id="g8543"><g
             clip-path="url(#clipPath8549)"
             id="g8545"><g
               id="g8551"><path
                 id="path8553"
                 style="fill:#ffffff;fill-opacity:1;fill-rule:nonzero;stroke:none"
                 d="M 29.996,247.773 C 13.578,247.773 0.227,234.41 0.227,217.992 V 30.496 C 0.227,14.078 13.578,0.727 29.996,0.727 h 390.008 c 16.418,0 29.769,13.351 29.769,29.769 v 187.496 c 0,16.418 -13.351,29.781 -29.769,29.781" /><path
                 id="path8555"
                 style="fill:#000000;fill-opacity:1;fill-rule:nonzero;stroke:none"
                 d="M 29.996,0.941 C 13.699,0.941 0.453,14.199 0.453,30.496 v 187.496 c 0,16.297 13.246,29.555 29.543,29.555 h 390.008 c 16.297,0 29.543,-13.258 29.543,-29.555 V 30.496 c 0,-16.297 -13.246,-29.555 -29.543,-29.555 z M 420.004,248 H 29.996 C 13.426,248 0,234.566 0,217.992 V 30.496 C 0,13.934 13.426,0.5 29.996,0.5 H 420.004 C 436.566,0.5 450,13.934 450,30.496 V 217.992 C 450,234.566 436.566,248 420.004,248" /></g></g></g></g><path
         id="path8557"
         style="fill:#000000;fill-opacity:1;fill-rule:nonzero;stroke:none"
         d="m 29.996,18.746 h 390.008 c 6.215,0 11.25,5.035 11.25,11.25 v 187.496 c 0,6.215 -5.035,11.25 -11.25,11.25 H 29.996 c -6.215,0 -11.25,-5.035 -11.25,-11.25 V 29.996 c 0,-6.215 5.035,-11.25 11.25,-11.25 z m 0,-11.25 c -12.43,0 -22.5,10.07 -22.5,22.5 v 187.496 c 0,12.43 10.07,22.5 22.5,22.5 h 390.008 c 12.43,0 22.5,-10.07 22.5,-22.5 V 29.996 c 0,-12.43 -10.07,-22.5 -22.5,-22.5" /><path
         id="path8559"
         style="fill:#000000;fill-opacity:1;fill-rule:nonzero;stroke:none"
         d="m 193.465,58.547 c 0,-10.582 -8.582,-19.176 -19.176,-19.176 -10.586,0 -19.18,8.594 -19.18,19.176 0,10.594 8.594,19.176 19.18,19.176 10.594,0 19.176,-8.582 19.176,-19.176" /><path
         id="path8561"
         style="fill:#000000;fill-opacity:1;fill-rule:nonzero;stroke:none"
         d="m 285.516,139.094 -24.129,-20.02 c -5.332,-4.429 -13.16,-4.062 -18.059,0.84 l 42.527,42.527 c 8.86,-3.742 19.004,-2.796 27.032,2.512 l 28.379,-6.297 c 1.117,-0.23 2.078,-0.992 2.593,-2.031 l 14.52,-29.043 c -6.633,-3.312 -14.695,-0.637 -17.996,6 l -6.922,13.176 h -13.438 l 11.508,-46.024 25.946,-1.961 c 6.996,-0.523 12.41,-6.355 12.41,-13.382 h -43.965 c -1.293,0 -2.481,0.648 -3.199,1.703 l -6.532,9.804 -13.414,-3.835 V 52.781 c 0,-7.179 -5.664,-13.097 -12.832,-13.414" /><path
         id="path8563"
         style="fill:#000000;fill-opacity:1;fill-rule:nonzero;stroke:none"
         d="m 316.191,188.941 c 0,-10.582 -8.586,-19.175 -19.168,-19.175 -10.593,0 -19.179,8.593 -19.179,19.175 0,10.594 8.586,19.18 19.179,19.18 10.582,0 19.168,-8.586 19.168,-19.18" /></g></g></svg>