<?xml version="1.0" encoding="UTF-8" standalone="no"?>
<svg
   xmlns:dc="http://purl.org/dc/elements/1.1/"
   xmlns:cc="http://creativecommons.org/ns#"
   xmlns:rdf="http://www.w3.org/1999/02/22-rdf-syntax-ns#"
   xmlns:svg="http://www.w3.org/2000/svg"
   xmlns="http://www.w3.org/2000/svg"
   viewBox="0 0 600.99805 331.00781"
   height="331.00781"
   width="600.99805"
   xml:space="preserve"
   version="1.1"
   id="svg14325"><metadata
     id="metadata14331"><rdf:RDF><cc:Work
         rdf:about=""><dc:format>image/svg+xml</dc:format><dc:type
           rdf:resource="http://purl.org/dc/dcmitype/StillImage" /><dc:title></dc:title></cc:Work></rdf:RDF></metadata><defs
     id="defs14329" /><g
     transform="matrix(1.25,0,0,-1.25,0,331.0078)"
     id="g14333"><g
       id="g14335"><path
         id="path14337"
         style="fill:#ffffff;fill-opacity:1;fill-rule:nonzero;stroke:none"
         d="m 32.402,0.404 c -17.672,0 -32,14.379 -32,32.109 l 0,199.77 c 0,17.73 14.328,32.121 32,32.121 l 416.004,0 c 17.672,0 31.996,-14.391 31.996,-32.121 l 0,-199.77 c 0,-17.73 -14.324,-32.109 -31.996,-32.109 l -416.004,0 z" /><path
         id="path14339"
         style="fill:#000000;fill-opacity:1;fill-rule:nonzero;stroke:none"
         d="m 32.402,8.435 c -13.261,0 -24,10.774 -24,24.082 l 0,199.766 c 0,13.308 10.739,24.082 24,24.082 l 416.004,0 c 13.246,0 24,-10.774 24,-24.082 l 0,-199.766 c 0,-13.308 -10.754,-24.082 -24,-24.082 l -416.004,0 z" /><path
         id="path14341"
         style="fill:#ffffff;fill-opacity:1;fill-rule:nonzero;stroke:none"
         d="m 32.402,20.474 c -6.632,0 -12.007,5.395 -12.007,12.051 l 0,199.766 c 0,6.64 5.375,12.035 12.007,12.035 l 416.004,0 c 6.633,0 11.992,-5.395 11.992,-12.035 l 0,-199.766 c 0,-6.656 -5.359,-12.051 -11.992,-12.051 l -416.004,0 z" /><path
         id="path14343"
         style="fill:#000000;fill-opacity:1;fill-rule:nonzero;stroke:none"
         d="m 147.285,181.982 c -4.18,3.32 -6.617,8.375 -6.617,13.711 0,10.664 8.613,19.293 19.223,19.293 10.629,0 19.226,-8.629 19.226,-19.293 0,-5.336 -2.437,-10.391 -6.617,-13.711 4.906,-3.504 7.816,-9.172 7.816,-15.227 0,-11.32 -9.14,-20.492 -20.425,-20.492 -11.282,0 -20.422,9.172 -20.422,20.492 0,6.055 2.91,11.723 7.816,15.227 m 1.797,-15.227 c 0,-5.98 4.836,-10.847 10.809,-10.847 5.976,0 10.812,4.867 10.812,10.847 0,5.997 -4.836,10.864 -10.812,10.864 -5.973,0 -10.809,-4.867 -10.809,-10.864 m 1.199,28.938 c 0,-5.324 4.305,-9.645 9.61,-9.645 5.308,0 9.613,4.321 9.613,9.645 0,5.34 -4.305,9.648 -9.613,9.648 -5.305,0 -9.61,-4.308 -9.61,-9.648 m 44.453,-17.473 28.84,0 0,-9.648 -28.84,0 0,9.648 z m 39.653,18.692 0,10.246 9.613,7.226 9.609,0 0,-67.519 -9.609,0 0,57.273 -9.613,-7.226 z m 36.054,0 0,10.246 9.614,7.226 9.613,0 0,-67.519 -9.613,0 0,57.273 -9.614,-7.226 z m 42.047,-50.047 0,67.519 9.614,0 0,-24.113 c 2.664,4.992 8.839,6.883 13.82,4.219 3.336,-1.774 5.402,-5.25 5.402,-9.043 l 0,-38.582 -9.597,0 0,34.359 c 0,2.676 -2.153,4.824 -4.821,4.824 -2.652,0 -4.804,-2.148 -4.804,-4.824 l 0,-34.359 -9.614,0 z" /><path
         id="path14345"
         style="fill:#000000;fill-opacity:1;fill-rule:nonzero;stroke:none"
         d="m 114.23,100.447 0,10.25 9.614,7.238 9.613,0 0,-67.519 -9.613,0 0,57.257 -9.614,-7.226 z m 87.715,-18.692 28.84,0 0,-9.644 -28.84,0 0,9.644 z m 39.649,18.692 0,10.25 9.613,7.238 9.613,0 0,-67.519 -9.613,0 0,57.257 -9.613,-7.226 z M 284.27,85.521 c -4.18,3.32 -6.618,8.371 -6.618,13.727 0,10.644 8.598,19.289 19.223,19.289 10.613,0 19.227,-8.645 19.227,-19.289 0,-5.356 -2.438,-10.407 -6.618,-13.727 4.907,-3.508 7.817,-9.172 7.817,-15.215 0,-11.32 -9.145,-20.492 -20.426,-20.492 -11.281,0 -20.422,9.172 -20.422,20.492 0,6.043 2.91,11.707 7.817,15.215 m 1.781,-15.215 c 0,-5.996 4.851,-10.859 10.824,-10.859 5.977,0 10.813,4.863 10.813,10.859 0,6 -4.836,10.852 -10.813,10.852 -5.973,0 -10.824,-4.852 -10.824,-10.852 m 1.211,28.942 c 0,-5.34 4.293,-9.649 9.613,-9.649 5.309,0 9.613,4.309 9.613,9.649 0,5.32 -4.304,9.644 -9.613,9.644 -5.32,0 -9.613,-4.324 -9.613,-9.644 m 50.461,-48.832 0,67.519 9.613,0 0,-24.113 c 2.652,4.98 8.844,6.883 13.82,4.207 3.324,-1.774 5.406,-5.25 5.406,-9.031 l 0,-38.582 -9.613,0 0,34.359 c 0,2.664 -2.152,4.824 -4.804,4.824 -2.653,0 -4.809,-2.16 -4.809,-4.824 l 0,-34.359 -9.613,0 z" /><path
         id="path14347"
         style="fill:#000000;fill-opacity:1;fill-rule:nonzero;stroke:none"
         d="M 32.398,264.806 C 14.516,264.806 0,250.24 0,232.291 L 0,32.513 C 0,14.564 14.516,0.002 32.398,0.002 l 416,0 c 17.887,0 32.399,14.562 32.399,32.511 l 0,199.778 c 0,17.949 -14.512,32.515 -32.399,32.515 l -416,0 z m 0,-0.402 416.008,0 c 17.672,0 32,-14.391 32,-32.121 l 0,-199.77 c 0,-17.73 -14.328,-32.105 -32,-32.105 l -416.008,0 C 14.73,0.408 0.406,14.783 0.406,32.513 l 0,199.77 c 0,17.73 14.324,32.121 31.992,32.121 z" /><path
         id="path14349"
         style="fill:#000000;fill-opacity:1;fill-rule:nonzero;stroke:none"
         d="m 169.727,118.537 10.91,0 -14.36,-28.809 0.192,0 c 0.703,0.317 1.535,0.543 2.492,0.668 0.957,0.129 1.848,0.191 2.68,0.191 2.168,0 4.211,-0.382 6.125,-1.148 1.976,-0.699 3.699,-1.816 5.168,-3.348 1.531,-1.531 2.742,-3.511 3.636,-5.937 0.895,-2.359 1.34,-5.199 1.34,-8.516 0,-3.894 -0.574,-7.242 -1.722,-10.051 -1.149,-2.746 -2.68,-5.011 -4.594,-6.796 -1.852,-1.723 -3.989,-3 -6.414,-3.829 -2.36,-0.765 -4.817,-1.148 -7.368,-1.148 -2.363,0 -4.691,0.477 -6.988,1.434 -2.234,0.957 -4.246,2.332 -6.031,4.117 -1.785,1.785 -3.223,3.957 -4.309,6.508 -1.082,2.617 -1.625,5.519 -1.625,8.711 0,4.148 0.86,7.945 2.582,11.39 l 18.286,36.563 z m -1.34,-36.563 c -2.684,0 -4.981,-0.926 -6.895,-2.777 -1.914,-1.785 -2.871,-4.594 -2.871,-8.422 0,-3.828 0.863,-6.668 2.586,-8.52 1.785,-1.785 4.18,-2.679 7.18,-2.679 1.148,0 2.297,0.191 3.445,0.574 1.148,0.449 2.168,1.117 3.063,2.012 0.957,0.894 1.722,2.043 2.296,3.445 0.637,1.402 0.957,3.125 0.957,5.168 0,3.828 -0.957,6.637 -2.871,8.422 -1.914,1.851 -4.211,2.777 -6.89,2.777 z" /></g></g></svg>