<?xml version="1.0" encoding="UTF-8" standalone="no"?>
<!DOCTYPE svg PUBLIC "-//W3C//DTD SVG 1.1//EN" "http://www.w3.org/Graphics/SVG/1.1/DTD/svg11.dtd">
<svg width="800px" height="800px" version="1.1" xmlns="http://www.w3.org/2000/svg" xmlns:xlink="http://www.w3.org/1999/xlink" xml:space="preserve" xmlns:serif="http://www.serif.com/" style="fill-rule:evenodd;clip-rule:evenodd;stroke-linejoin:round;stroke-miterlimit:2;">
    <g id="g6353">
        <g id="g7057">
            <path id="path7059" d="M240.517,799.409C218.476,799.409 200.605,781.538 200.605,759.483L200.605,240.517C200.605,218.476 218.476,200.605 240.517,200.605L759.483,200.605C781.537,200.605 799.409,218.476 799.409,240.517L799.409,759.483C799.409,781.538 781.537,799.409 759.483,799.409" style="fill:#fff;fill-rule:nonzero;"/>
            <path id="path7061" d="M391.739,484.009L415.415,484.009C418.632,497.31 432.046,505.489 445.346,502.256C456.475,499.565 464.306,489.614 464.306,478.169L464.306,475.254C464.306,461.553 453.212,450.459 439.511,450.459L429.306,450.459L429.306,430.049L439.511,430.049C452.392,430.049 462.841,419.6 462.841,406.704C462.841,393.824 452.392,383.374 439.511,383.374C428.31,383.374 418.691,391.343 416.591,402.334L393.051,402.334C395.469,376.675 418.222,357.838 443.881,360.244C467.861,362.51 486.186,382.631 486.186,406.704C486.186,419.99 479.712,432.451 468.857,440.103C480.591,447.949 487.636,461.133 487.636,475.254L487.636,478.169C487.636,504.736 466.094,526.294 439.511,526.294C415.185,526.294 394.682,508.15 391.739,484.009" style="fill:#8a8a8a;fill-rule:nonzero;"/>
            <path id="path7063" d="M534.293,479.624C534.293,492.52 544.741,502.949 557.636,502.949C570.517,502.949 580.966,492.52 580.966,479.624L580.966,406.704C580.966,393.824 570.517,383.374 557.636,383.374C544.741,383.374 534.293,393.824 534.293,406.704L534.293,479.624ZM510.966,479.624L510.966,406.704C510.966,380.938 531.86,360.044 557.636,360.044C583.418,360.044 604.311,380.937 604.311,406.704L604.311,479.624C604.311,505.4 583.418,526.294 557.636,526.294C531.86,526.294 510.966,505.4 510.966,479.624" style="fill:#8a8a8a;fill-rule:nonzero;"/>
            <path id="path7065" d="M240.517,200C218.174,200 200,218.174 200,240.517L200,759.483C200,781.826 218.174,800 240.517,800L759.483,800C781.826,800 800,781.826 800,759.483L800,240.517C800,218.174 781.826,200 759.483,200L240.517,200ZM240.517,200.605L759.483,200.605C781.537,200.605 799.409,218.471 799.409,240.517L799.409,759.483C799.409,781.543 781.537,799.409 759.483,799.409L240.517,799.409C218.476,799.409 200.605,781.543 200.605,759.483L200.605,240.517C200.605,218.471 218.476,200.605 240.517,200.605Z" style="fill-rule:nonzero;"/>
            <path id="path7067" d="M240.005,210.01C223.432,210.01 210.01,223.433 210.01,240.005L210.01,759.995C210.01,776.583 223.432,790.01 240.005,790.01L759.995,790.01C776.578,790.01 790.005,776.583 790.005,759.995L790.005,240.005C790.005,223.433 776.577,210.01 759.995,210.01L240.005,210.01ZM240.005,225.005L708.184,225.005L225.005,708.184L225.005,240.005C225.005,231.719 231.719,225.005 240.005,225.005ZM723.027,225.01L737.876,225.01L225.005,737.876L225.005,723.048L723.027,225.01ZM752.739,225.01L759.995,225.01C762.139,225.01 764.273,225.474 766.225,226.352L226.352,766.24C225.459,764.273 225.005,762.144 225.005,759.995L225.005,752.739L752.739,225.01ZM773.648,233.779C774.541,235.742 775.01,237.861 775.01,240.005L775.01,247.28L247.275,775.01L240.005,775.01C237.861,775.01 235.727,774.556 233.775,773.648L773.648,233.779ZM775.01,262.124L775.01,276.987L276.972,775.01L262.124,775.01L775.01,262.124ZM775.01,291.816L775.01,759.995C775.01,768.296 768.281,775.01 759.995,775.01L291.816,775.01L775.01,291.816Z" style="fill-rule:nonzero;"/>
            <path id="path7069" d="M585.494,746.841L585.494,662.841L639.511,662.841L639.511,674.829L598.252,674.829L598.252,698.838L633.511,698.838L633.511,710.088L598.252,710.088L598.252,734.839L639.511,734.839L639.511,746.841L585.494,746.841ZM503.002,746.841L503.002,662.841L515.005,662.841L553.256,722.833L553.256,662.841L566.001,662.841L566.001,746.841L553.999,746.841L515.761,686.836L515.761,746.841L503.003,746.841ZM439.257,717.588C439.257,727.11 446.967,734.839 456.494,734.839C466.035,734.839 473.745,727.11 473.745,717.588L473.745,692.08C473.745,682.574 466.035,674.829 456.494,674.829C446.967,674.829 439.257,682.574 439.257,692.08L439.257,717.588ZM426.499,717.588L426.499,692.08C426.499,675.527 439.941,662.085 456.494,662.085C473.066,662.085 486.504,675.528 486.504,692.08L486.504,717.588C486.504,734.155 473.066,747.583 456.494,747.583C439.941,747.583 426.499,734.155 426.499,717.588ZM377.89,674.088L389.14,662.841L374.292,662.841L363.042,674.088L377.89,674.088ZM360.502,746.841L360.502,736.333L398.755,674.088L392.739,674.088L403.985,662.841L414.506,662.841L414.506,672.578L376.26,734.839L414.506,734.839L414.506,746.841" style="fill:#8a8a8a;fill-rule:nonzero;"/>
            <path id="path7071" d="M375.864,587.016C373.217,584.721 370.635,582.364 368.11,579.941L403.471,544.565C406.011,546.983 408.642,549.298 411.362,551.534L375.864,587.016ZM643.853,319.034L608.364,354.516C606.142,351.811 603.814,349.18 601.396,346.64L636.757,311.279C639.194,313.789 641.552,316.386 643.852,319.034ZM392.646,599.931C389.731,597.935 386.855,595.85 384.042,593.686L419.8,557.93C422.749,559.985 425.756,561.904 428.842,563.735L392.646,599.931ZM656.763,335.815L620.581,372.011C618.755,368.926 616.816,365.917 614.761,362.984L650.517,327.212C652.681,330.025 654.765,332.895 656.762,335.815ZM411.167,611.119C407.949,609.424 404.79,607.641 401.675,605.753L438.501,568.935C441.875,570.6 445.307,572.11 448.799,573.471L411.167,611.119ZM667.949,354.321L630.303,391.983C628.926,388.476 627.418,385.044 625.766,381.67L662.583,344.859C664.458,347.954 666.255,351.119 667.949,354.321ZM431.562,620.415C428.042,619.058 424.546,617.588 421.119,616.015L459.854,577.295C463.75,578.463 467.695,579.458 471.704,580.274L431.562,620.415ZM677.246,374.731L637.11,414.872C636.299,410.884 635.293,406.919 634.111,403.018L672.846,364.288C674.419,367.715 675.889,371.211 677.246,374.731ZM629.257,303.931C552.364,232.525 432.139,236.997 360.747,313.906C293.091,386.798 293.091,499.541 360.747,572.426L396.138,537.051C344.297,479.688 348.77,391.153 406.133,339.306C459.444,291.123 540.571,291.123 593.881,339.306L629.257,303.931ZM681.104,385.722C712.837,485.737 657.471,592.554 557.461,624.273C520.069,636.142 479.931,636.142 442.554,624.273L484.511,582.315C561.363,590.874 630.591,535.507 639.131,458.657C640.292,448.364 640.292,437.974 639.131,427.695" style="fill:#8a8a8a;fill-rule:nonzero;"/>
        </g>
        <g id="g6355">
            <path id="path6369" d="M40.517,599.41C18.476,599.41 0.605,581.539 0.605,559.483L0.605,40.517C0.605,18.477 18.476,0.606 40.517,0.606L559.483,0.606C581.537,0.606 599.409,18.478 599.409,40.517L599.409,559.483C599.409,581.539 581.537,599.41 559.483,599.41" style="fill:#fff;fill-rule:nonzero;"/>
            <path id="path6371" d="M40.517,0C18.174,0 -0,18.189 -0,40.517L-0,559.483C-0,581.826 18.174,600.015 40.517,600.015L559.483,600.015C581.826,600.015 600,581.826 600,559.483L600,40.517C600,18.189 581.826,0 559.483,0L40.517,0ZM40.517,0.606L559.483,0.606C581.537,0.606 599.409,18.478 599.409,40.517L599.409,559.483C599.409,581.539 581.537,599.41 559.483,599.41L40.517,599.41C18.471,599.41 0.605,581.539 0.605,559.483L0.605,40.517C0.605,18.477 18.471,0.606 40.517,0.606Z" style="fill-rule:nonzero;"/>
            <path id="path6373" d="M40.517,10.586C23.994,10.586 10.581,23.995 10.581,40.517L10.581,559.483C10.581,576.021 23.994,589.434 40.517,589.434L559.483,589.434C576.02,589.434 589.419,576.021 589.419,559.483L589.419,40.517C589.419,23.995 576.02,10.586 559.483,10.586L40.517,10.586ZM40.517,25.553L559.483,25.553C567.749,25.553 574.449,32.266 574.449,40.517L574.449,559.483C574.449,567.75 567.749,574.464 559.483,574.464L40.517,574.464C32.246,574.464 25.551,567.75 25.551,559.483L25.551,40.517C25.551,32.266 32.246,25.553 40.517,25.553Z" style="fill-rule:nonzero;"/>
            <path id="path6375" d="M300.01,53.174C195.069,53.174 110.005,138.232 110.005,243.174C110.005,348.101 195.069,433.174 300.01,433.174C404.931,433.174 490.01,348.101 490.01,243.174C490.01,138.232 404.931,53.174 300.01,53.174ZM300.01,103.174C377.324,103.174 440.01,165.855 440.01,243.174C440.01,320.494 377.324,383.179 300.01,383.179C222.69,383.179 160.005,320.494 160.005,243.174C160.005,165.855 222.69,103.174 300.01,103.174Z" style="fill:#c1121c;fill-rule:nonzero;"/>
            <path id="path6377" d="M192.436,284.014L216.114,284.014C219.331,297.315 232.744,305.494 246.045,302.261C257.172,299.571 265.005,289.62 265.005,278.174L265.005,275.259C265.005,261.558 253.911,250.464 240.21,250.464L230.005,250.464L230.005,230.054L240.21,230.054C253.091,230.054 263.54,219.605 263.54,206.709C263.54,193.829 253.091,183.379 240.21,183.379C229.009,183.379 219.39,191.348 217.29,202.339L193.75,202.339C196.167,176.68 218.921,157.843 244.58,160.25C268.56,162.515 286.885,182.638 286.885,206.709C286.885,219.995 280.41,232.456 269.556,240.108C281.289,247.955 288.335,261.138 288.335,275.259L288.335,278.174C288.335,304.741 266.792,326.299 240.21,326.299C215.884,326.299 195.381,308.155 192.436,284.014" style="fill-rule:nonzero;"/>
            <path id="path6379" d="M334.99,279.629C334.99,292.525 345.44,302.955 358.335,302.955C371.216,302.955 381.665,292.525 381.665,279.629L381.665,206.709C381.665,193.829 371.216,183.379 358.335,183.379C345.44,183.379 334.99,193.829 334.99,206.709L334.99,279.629ZM311.665,279.629L311.665,206.709C311.665,180.942 332.559,160.049 358.335,160.049C384.116,160.049 405.01,180.942 405.01,206.709L405.01,279.629C405.01,305.405 384.116,326.299 358.335,326.299C332.559,326.299 311.665,305.405 311.665,279.629" style="fill-rule:nonzero;"/>
            <path id="path6381" d="M385.489,546.841L385.489,462.842L439.511,462.842L439.511,474.83L398.253,474.83L398.253,498.839L433.506,498.839L433.506,510.089L398.253,510.089L398.253,534.839L439.511,534.839L439.511,546.841L385.489,546.841ZM302.998,546.841L302.998,462.842L315.005,462.842L353.256,522.833L353.256,462.842L366.001,462.842L366.001,546.841L353.999,546.841L315.761,486.836L315.761,546.841L302.998,546.841ZM239.258,517.589C239.258,527.11 246.967,534.839 256.494,534.839C266.035,534.839 273.745,527.11 273.745,517.589L273.745,492.08C273.745,482.569 266.035,474.83 256.494,474.83C246.967,474.83 239.258,482.569 239.258,492.08L239.258,517.589ZM226.499,517.589L226.499,492.08C226.499,475.522 239.936,462.085 256.494,462.085C273.066,462.085 286.504,475.522 286.504,492.08L286.504,517.589C286.504,534.155 273.066,547.584 256.494,547.584C239.936,547.584 226.499,534.155 226.499,517.589ZM160.503,546.841L160.503,536.348L198.755,474.087L162.003,474.087L162.003,462.842L214.506,462.842L214.506,472.579L176.255,534.839L214.506,534.839L214.506,546.841" style="fill-rule:nonzero;"/>
        </g>
    </g>
</svg>
