<?xml version="1.0" encoding="UTF-8" standalone="no"?>
<!DOCTYPE svg PUBLIC "-//W3C//DTD SVG 1.1//EN" "http://www.w3.org/Graphics/SVG/1.1/DTD/svg11.dtd">
<svg width="602px" height="602px" version="1.1" xmlns="http://www.w3.org/2000/svg" xmlns:xlink="http://www.w3.org/1999/xlink" xml:space="preserve" xmlns:serif="http://www.serif.com/" style="fill-rule:evenodd;clip-rule:evenodd;stroke-linejoin:round;stroke-miterlimit:2;">
    <g id="_275" serif:id="275">
        <g id="sign">
            <path id="path7254" d="M513.53,88.55C552.628,127.646 576.968,169.795 591.284,223.208C605.6,276.67 605.6,325.351 591.284,378.814C576.973,432.226 552.608,474.4 513.486,513.52C474.39,552.618 432.236,576.963 378.799,591.299C325.366,605.591 276.655,605.61 223.223,591.275C169.805,576.958 127.656,552.618 88.56,513.52C49.439,474.4 25.074,432.226 10.738,378.789C-3.579,325.376 -3.579,276.645 10.738,223.233C25.074,169.8 49.414,127.646 88.515,88.55C127.631,49.429 169.81,25.064 223.218,10.748C276.655,-3.589 325.366,-3.569 378.804,10.723C432.236,25.064 474.409,49.424 513.53,88.55ZM513.179,88.901C474.111,49.834 432.036,25.523 378.673,11.206C325.308,-3.066 276.709,-3.091 223.35,11.23C170.005,25.528 127.935,49.834 88.867,88.901C49.824,127.949 25.533,170 11.216,223.359C-3.076,276.699 -3.076,325.318 11.221,378.658C25.538,432.021 49.849,474.096 88.916,513.164C127.959,552.208 170.015,576.494 223.35,590.791C276.714,605.108 325.308,605.083 378.673,590.815C432.036,576.499 474.087,552.213 513.135,513.169C552.203,474.101 576.509,432.026 590.801,378.681C605.098,325.298 605.098,276.724 590.801,223.34C576.514,170 552.221,127.944 513.179,88.901Z"/>
            <path id="path7256" d="M88.867,88.901C127.935,49.834 170.005,25.528 223.35,11.23C276.709,-3.091 325.308,-3.066 378.673,11.206C432.036,25.528 474.111,49.834 513.179,88.901C552.226,127.944 576.514,170 590.801,223.34C605.098,276.724 605.098,325.303 590.806,378.686C576.509,432.026 552.203,474.101 513.135,513.169C474.087,552.213 432.036,576.499 378.676,590.815C325.313,605.088 276.714,605.108 223.35,590.791C170.015,576.494 127.964,552.213 88.916,513.164C49.849,474.096 25.543,432.021 11.221,378.658C-3.076,325.318 -3.076,276.699 11.221,223.355C25.533,170 49.824,127.949 88.867,88.901Z" style="fill:#fff;"/>
            <path id="path7258" d="M98.794,98.779C136.006,61.568 176.128,38.379 226.988,24.785C277.841,11.143 324.209,11.143 375.044,24.761C425.899,38.355 466.045,61.563 503.281,98.799C540.498,136.015 563.633,176.138 577.251,226.968C590.869,277.851 590.869,324.17 577.256,375.049C563.633,425.884 540.474,466.03 503.261,503.243C466.02,540.479 425.899,563.668 375.044,577.261C324.209,590.879 277.841,590.879 226.983,577.236C176.128,563.643 136.03,540.479 98.814,503.266C61.578,466.025 38.369,425.884 24.78,375.029C11.158,324.194 11.158,277.828 24.78,226.993C38.369,176.138 61.558,136.015 98.794,98.779Z" style="fill:#174889;"/>
        </g>
        <path id="_80" serif:id="80" d="M124.35,311.503C116.734,326.734 112.927,343.523 112.927,361.861C112.927,375.685 115.181,388.238 119.695,399.525C124.49,410.806 130.84,420.54 138.737,428.727C146.924,436.906 155.951,443.116 165.827,447.346C175.984,451.578 186.277,453.69 196.717,453.69C208.569,453.69 219.709,451.86 230.149,448.188C240.589,444.521 250.04,438.736 258.502,430.839C266.966,422.941 273.598,412.924 278.395,400.797C283.19,388.378 285.586,373.849 285.586,357.206C285.586,329.559 278.676,308.678 264.852,294.573C251.305,280.467 234.239,273.416 213.642,273.416C204.896,273.416 197.282,274.682 190.79,277.223L189.95,277.223L253.424,149.843L205.179,149.843L124.35,311.503ZM199.259,311.503C211.953,311.503 222.252,315.735 230.149,324.197C238.33,332.66 242.42,344.931 242.42,361.013C242.42,377.656 238.046,390.073 229.302,398.253C220.838,406.434 210.823,410.524 199.259,410.524C185.712,410.524 175.137,406.434 167.516,398.253C159.9,389.791 156.093,377.38 156.093,361.013C156.093,344.931 160.042,332.66 167.939,324.197C176.119,315.735 186.56,311.503 199.259,311.503ZM444.903,364.398C444.903,378.786 441.096,390.073 433.475,398.253C425.859,406.434 415.56,410.524 402.584,410.524C389.608,410.524 379.31,406.434 371.694,398.253C364.074,390.073 360.265,378.786 360.265,364.398L360.265,236.593C360.265,222.211 364.074,210.923 371.694,202.744C379.31,194.557 389.608,190.467 402.584,190.467C415.56,190.467 425.859,194.557 433.475,202.744C441.096,210.923 444.903,222.211 444.903,236.593L444.903,364.398ZM317.1,366.94C317.1,380.481 319.359,392.61 323.873,403.332C328.67,414.054 335.014,423.223 342.917,430.839C351.096,438.46 360.265,444.239 370.424,448.188C380.581,451.86 391.297,453.69 402.584,453.69C413.871,453.69 424.589,451.86 434.746,448.188C445.187,444.239 454.354,438.6 462.253,431.262C470.156,423.648 476.359,414.479 480.872,403.757C485.669,392.752 488.069,380.481 488.069,366.94L488.069,234.057C488.069,220.517 485.809,208.381 481.296,197.665C476.782,186.942 470.438,177.774 462.253,170.159C454.072,162.537 444.903,156.893 434.746,153.228C424.589,149.278 413.871,147.301 402.584,147.301C391.297,147.301 380.44,149.278 369.999,153.228C359.842,156.893 350.815,162.537 342.917,170.159C335.014,177.491 328.67,186.66 323.873,197.665C319.359,208.381 317.1,220.517 317.1,234.057L317.1,366.94Z" style="fill:#fff;fill-rule:nonzero;"/>
    </g>
</svg>
