<?xml version="1.0" encoding="UTF-8" standalone="no"?>
<!DOCTYPE svg PUBLIC "-//W3C//DTD SVG 1.1//EN" "http://www.w3.org/Graphics/SVG/1.1/DTD/svg11.dtd">
<svg width="602px" height="602px" version="1.1" xmlns="http://www.w3.org/2000/svg" xmlns:xlink="http://www.w3.org/1999/xlink" xml:space="preserve" xmlns:serif="http://www.serif.com/" style="fill-rule:evenodd;clip-rule:evenodd;stroke-linejoin:round;stroke-miterlimit:2;">
    <g id="_279" serif:id="279">
        <g id="sign">
            <path id="path12310" d="M513.53,88.55C552.628,127.646 576.968,169.795 591.284,223.208C605.6,276.67 605.6,325.351 591.284,378.814C576.973,432.226 552.608,474.4 513.486,513.52C474.39,552.618 432.236,576.963 378.799,591.299C325.366,605.591 276.655,605.61 223.223,591.275C169.805,576.958 127.656,552.618 88.56,513.52C49.439,474.4 25.074,432.226 10.738,378.789C-3.579,325.376 -3.579,276.645 10.738,223.233C25.074,169.8 49.414,127.646 88.515,88.55C127.631,49.429 169.81,25.064 223.218,10.748C276.655,-3.589 325.366,-3.569 378.804,10.723C432.236,25.064 474.409,49.424 513.53,88.55ZM513.179,88.901C474.111,49.834 432.036,25.523 378.673,11.206C325.308,-3.066 276.709,-3.091 223.35,11.23C170.005,25.528 127.935,49.834 88.867,88.901C49.824,127.949 25.533,170 11.216,223.359C-3.076,276.699 -3.076,325.318 11.221,378.658C25.538,432.021 49.849,474.096 88.916,513.164C127.959,552.208 170.015,576.494 223.35,590.791C276.714,605.108 325.308,605.083 378.673,590.815C432.036,576.499 474.087,552.213 513.135,513.169C552.203,474.101 576.509,432.026 590.801,378.681C605.098,325.298 605.098,276.724 590.801,223.34C576.514,170 552.221,127.944 513.179,88.901Z"/>
            <path id="path12312" d="M88.867,88.901C127.935,49.834 170.005,25.528 223.35,11.23C276.709,-3.091 325.308,-3.066 378.673,11.206C432.036,25.528 474.111,49.834 513.179,88.901C552.226,127.944 576.514,170 590.801,223.34C605.098,276.724 605.098,325.303 590.806,378.686C576.509,432.026 552.203,474.101 513.135,513.169C474.087,552.213 432.036,576.499 378.676,590.815C325.313,605.088 276.714,605.108 223.35,590.791C170.015,576.494 127.964,552.213 88.916,513.164C49.849,474.096 25.543,432.021 11.221,378.658C-3.076,325.318 -3.076,276.699 11.221,223.355C25.533,170 49.824,127.949 88.867,88.901Z" style="fill:#fff;"/>
            <path id="path12314" d="M98.794,98.779C136.006,61.568 176.128,38.379 226.988,24.785C277.841,11.143 324.209,11.143 375.044,24.761C425.899,38.355 466.045,61.563 503.281,98.799C540.498,136.015 563.633,176.138 577.251,226.968C590.869,277.851 590.869,324.17 577.256,375.049C563.633,425.884 540.474,466.03 503.261,503.243C466.02,540.479 425.899,563.668 375.044,577.261C324.209,590.879 277.841,590.879 226.983,577.236C176.128,563.643 136.03,540.479 98.814,503.266C61.578,466.025 38.369,425.884 24.78,375.029C11.158,324.194 11.158,277.828 24.78,226.993C38.369,176.138 61.558,136.015 98.794,98.779Z" style="fill:#154889;"/>
        </g>
        <path id="_90" serif:id="90" d="M280.551,291.481L200.201,452.18L152.242,452.18L215.367,325.705L214.539,325.705C207.709,328.303 200.126,329.595 191.79,329.595C172.656,329.595 155.984,322.979 141.773,309.735C127.423,296.615 120.254,275.429 120.254,246.183C120.254,211.884 129.343,187.366 147.523,172.614C165.833,157.717 186.197,150.267 208.612,150.267C229.365,150.267 248.493,158.464 265.987,174.849C283.344,191.258 292.026,213.529 292.026,241.664C292.026,259.842 288.197,276.452 280.551,291.481ZM206.152,291.481C218.036,291.481 228.149,287.526 236.484,279.604C244.821,271.958 248.988,259.585 248.988,242.492C248.988,209.568 234.708,193.103 206.152,193.103C196.171,193.103 186.542,196.863 177.252,204.377C167.811,212.028 163.09,224.735 163.09,242.492C163.09,259.434 167.258,271.808 175.594,279.604C183.792,287.526 193.981,291.481 206.152,291.481ZM441.878,363.513L441.878,237.664C441.878,223.441 438.042,212.33 430.377,204.345C422.726,196.347 412.663,192.343 400.196,192.343C387.591,192.343 377.484,196.347 369.89,204.345C362.306,212.33 358.515,223.441 358.515,237.664L358.515,363.513C358.515,377.893 362.306,389.049 369.89,396.983C377.484,404.905 387.591,408.86 400.196,408.86C412.663,408.86 422.726,404.905 430.377,396.983C438.042,389.049 441.878,377.893 441.878,363.513ZM316.03,365.973L316.03,235.23C316.03,207.998 324.568,186.958 341.642,172.106C358.716,157.259 378.232,149.833 400.196,149.833C422.022,149.833 441.507,157.259 458.65,172.106C475.787,186.958 484.362,207.998 484.362,235.23L484.362,365.973C484.362,393.21 475.787,414.221 458.65,428.997C441.507,443.761 422.022,451.143 400.196,451.143C378.232,451.143 358.716,443.761 341.642,428.997C324.568,414.221 316.03,393.21 316.03,365.973Z" style="fill:#fff;fill-rule:nonzero;"/>
        <path id="path12320" d="M480.976,78.476L480.81,78.643L78.481,480.958C91.133,496.596 105.41,510.874 121.065,523.525L121.216,523.374L121.221,523.379L523.379,121.225L523.545,121.06C510.894,105.405 496.621,91.128 480.976,78.476Z" style="fill:#af151b;fill-rule:nonzero;"/>
    </g>
</svg>
