<?xml version="1.0" encoding="UTF-8" standalone="no"?>
<svg
   xmlns:dc="http://purl.org/dc/elements/1.1/"
   xmlns:cc="http://creativecommons.org/ns#"
   xmlns:rdf="http://www.w3.org/1999/02/22-rdf-syntax-ns#"
   xmlns:svg="http://www.w3.org/2000/svg"
   xmlns="http://www.w3.org/2000/svg"
   viewBox="0 0 602.02063 602.02252"
   height="602.02252"
   width="602.02063"
   xml:space="preserve"
   version="1.1"
   id="svg12298"><metadata
     id="metadata12304"><rdf:RDF><cc:Work
         rdf:about=""><dc:format>image/svg+xml</dc:format><dc:type
           rdf:resource="http://purl.org/dc/dcmitype/StillImage" /><dc:title></dc:title></cc:Work></rdf:RDF></metadata><defs
     id="defs12302" /><g
     transform="matrix(1.25,0,0,-1.25,0,602.02251)"
     id="g12306"><g
       id="g12308"><path
         id="path12310"
         style="fill:#000000;fill-opacity:1;fill-rule:evenodd;stroke:none"
         d="m 410.824,410.778 c 31.278,-31.277 50.75,-64.996 62.203,-107.726 11.453,-42.77 11.453,-81.715 0,-124.485 C 461.578,135.837 442.086,102.098 410.789,70.802 379.512,39.524 345.789,20.048 303.039,8.579 260.293,-2.855 221.324,-2.87 178.578,8.598 135.844,20.052 102.125,39.524 70.848,70.802 39.551,102.098 20.059,135.837 8.59,178.587 c -11.453,42.73 -11.453,81.715 0,124.445 11.469,42.746 30.941,76.469 62.222,107.746 31.293,31.297 65.036,50.789 107.762,62.242 42.75,11.469 81.719,11.453 124.469,0.02 42.746,-11.473 76.484,-30.961 107.781,-62.262 z m -0.281,-0.281 C 379.289,441.751 345.629,461.2 302.938,472.653 260.246,484.071 221.367,484.091 178.68,472.634 136.004,461.196 102.348,441.751 71.094,410.497 39.859,379.259 20.426,345.618 8.973,302.931 -2.461,260.259 -2.461,221.364 8.977,178.692 20.43,136.001 39.879,102.341 71.133,71.087 102.367,39.852 136.012,20.423 178.68,8.985 221.371,-2.468 260.246,-2.448 302.938,8.966 c 42.691,11.453 76.332,30.882 107.57,62.117 31.254,31.254 50.699,64.914 62.133,107.59 11.437,42.707 11.437,81.566 0,124.273 -11.43,42.672 -30.864,76.317 -62.098,107.551 z" /><path
         id="path12312"
         style="fill:#ffffff;fill-opacity:1;fill-rule:evenodd;stroke:none"
         d="m 71.094,410.497 c 31.254,31.254 64.91,50.699 107.586,62.137 42.687,11.457 81.566,11.437 124.258,0.019 42.691,-11.457 76.351,-30.902 107.605,-62.156 31.238,-31.234 50.668,-64.879 62.098,-107.551 11.437,-42.707 11.437,-81.57 0.004,-124.277 C 461.207,135.997 441.762,102.337 410.508,71.083 379.27,39.848 345.629,20.419 302.941,8.966 260.25,-2.452 221.371,-2.468 178.68,8.985 136.012,20.423 102.371,39.848 71.133,71.087 39.879,102.341 20.434,136.001 8.977,178.692 c -11.438,42.672 -11.438,81.567 0,124.242 11.449,42.684 30.882,76.325 62.117,107.563 z" /><path
         id="path12314"
         style="fill:#154889;fill-opacity:1;fill-rule:evenodd;stroke:none"
         d="m 79.035,402.595 c 29.77,29.769 61.867,48.32 102.555,59.195 40.683,10.914 77.777,10.914 118.445,0.019 40.684,-10.875 72.801,-29.441 102.59,-59.23 29.773,-29.773 48.281,-61.871 59.176,-102.535 10.894,-40.707 10.894,-77.762 0.004,-118.465 C 450.906,140.911 432.379,108.794 402.609,79.024 372.816,49.235 340.719,30.684 300.035,19.809 259.367,8.915 222.273,8.915 181.586,19.829 140.902,30.704 108.824,49.235 79.051,79.005 c -29.789,29.793 -48.356,61.906 -59.227,102.59 -10.898,40.668 -10.898,77.761 0,118.429 10.871,40.684 29.422,72.782 59.211,102.571 z" /><path
         id="path12316"
         style="fill:#ffffff;fill-opacity:1;fill-rule:nonzero;stroke:none"
         d="m 82.223,180.595 34.914,0 c 4.746,-19.61 24.504,-31.676 44.125,-26.918 16.398,3.968 27.949,18.656 27.949,35.523 l 0,4.297 c 0,20.195 -16.371,36.555 -36.551,36.555 l -15.051,0 0,30.109 15.051,0 c 18.992,0 34.402,15.398 34.402,34.391 0,19.007 -15.41,34.406 -34.402,34.406 -16.508,0 -30.707,-11.735 -33.801,-27.949 l -34.695,0 c 3.555,37.828 37.109,65.609 74.938,62.05 35.351,-3.324 62.355,-33.007 62.355,-68.507 0,-19.586 -9.527,-37.95 -25.535,-49.223 17.297,-11.566 27.683,-31.02 27.683,-51.832 l 0,-4.297 c 0,-39.187 -31.761,-70.945 -70.945,-70.945 -35.863,0 -66.082,26.746 -70.437,62.34" /><path
         id="path12318"
         style="fill:#ffffff;fill-opacity:1;fill-rule:nonzero;stroke:none"
         d="m 292.418,187.052 c 0,-19.004 15.387,-34.407 34.402,-34.407 18.996,0 34.395,15.403 34.395,34.407 l 0,107.5 c 0,19.007 -15.399,34.406 -34.395,34.406 -19.015,0 -34.402,-15.399 -34.402,-34.406 l 0,-107.5 z m -34.406,0 0,107.5 c 0,38 30.8,68.812 68.808,68.812 37.989,0 68.789,-30.812 68.789,-68.812 l 0,-107.5 c 0,-37.996 -30.8,-68.797 -68.789,-68.797 -38.008,0 -68.808,30.801 -68.808,68.797" /><path
         id="path12320"
         style="fill:#af151b;fill-opacity:1;fill-rule:nonzero;stroke:none"
         d="M 384.781,418.837 384.648,418.704 62.785,96.852 C 72.906,84.341 84.328,72.919 96.852,62.798 l 0.121,0.121 c 0,0 0.004,-0.004 0.004,-0.004 l 321.726,321.723 0.133,0.132 c -10.121,12.524 -21.539,23.946 -34.055,34.067 z" /></g></g></svg>