<svg xmlns="http://www.w3.org/2000/svg" xml:space="preserve" viewBox="0 0 900 1200" role="img" aria-labelledby="title">
  <title id="title">Verkehrszeichen 1b - 1b: Zum Parkplatz</title>
  <path fill="#24388d" fill-rule="evenodd" d="M10.014 1147.563c0 26.47 21.415 47.897 47.891 47.897h785.449c26.459 0 47.874-21.428 47.874-47.897V55.404c0-26.476-21.415-47.885-47.874-47.885H57.905c-26.476 0-47.891 21.409-47.891 47.885z" clip-rule="evenodd"/>
  <path fill="#24388d" fill-rule="evenodd" d="m891.383 1164.149-.842 5.201c-.528 3.515-2.166 6.718-4.02 9.738-3.659 6.043-9.293 10.81-15.77 13.482-3.274 1.359-6.766 1.949-10.208 2.479H41.215c-3.551 0-6.951-1.12-10.22-2.479-6.471-2.673-12.116-7.439-15.769-13.482-2.77-4.526-4.027-9.738-4.852-14.939L10.272 40.653c0-7.061 2.281-14.078 6.422-19.771 4.129-5.688 10.124-9.979 16.792-12.17 3.353-1.06 6.849-1.402 10.365-1.649l816.693.097c3.54 0 6.934 1.125 10.208 2.479 6.477 2.685 12.11 7.457 15.77 13.434 2.768 4.526 4.02 9.739 4.861 14.939l.098 1123.515a48 48 0 0 1-.098 2.622" clip-rule="evenodd"/>
  <path fill="#f2f3f4" fill-rule="evenodd" d="M700.903 346.367c0-81.745-21.138-141.294-63.702-178.274-42.275-37.285-105.136-55.373-188.85-55.373H250.907v743.536h114.85V591.998h84.533c39.224 0 74.252-4.442 105.117-13.904 30.898-8.618 56.479-22.268 78.737-42.54 21.137-20.066 38.085-45.646 49.762-76.51 11.7-30.863 16.997-68.968 16.997-112.677m-116.823 2.245c0 30.865-3.058 55.373-8.367 75.39-5.271 20.272-13.89 36.162-24.436 47.826-10.593 11.67-23.376 20.326-39.265 25.574-16.083 5.302-33.057 7.241-51.984 7.241h-94.271V198.662h94.271c39.2 0 68.98 11.973 91.249 34.223 22.21 23.377 32.803 61.475 32.803 115.727M553.396 958.479c-.289-1.035-.41-2.07-.41-3.165 0-6.97 5.634-12.627 12.628-12.627 2.227 0 4.395.588 6.308 1.696l161.025 93.062-161.025 93.062a12.45 12.45 0 0 1-6.308 1.697c-6.994 0-12.628-5.657-12.628-12.641 0-1.083.121-2.105.41-3.164l12.243-47.368H169.113v-63.172H565.64z" clip-rule="evenodd"/>
  <path fill="#24388d" fill-rule="evenodd" d="M10.014 1147.563c0 26.47 21.415 47.897 47.891 47.897h785.449c26.459 0 47.874-21.428 47.874-47.897V55.404c0-26.476-21.415-47.885-47.874-47.885H57.905c-26.476 0-47.891 21.409-47.891 47.885z" clip-rule="evenodd"/>
  <path fill="#009fe3" fill-rule="evenodd" d="m891.383 1164.149-.842 5.201c-.528 3.515-2.166 6.718-4.02 9.738-3.659 6.043-9.293 10.81-15.77 13.482-3.274 1.359-6.766 1.949-10.208 2.479H41.215c-3.551 0-6.951-1.12-10.22-2.479-6.471-2.673-12.116-7.439-15.769-13.482-2.77-4.526-4.027-9.738-4.852-14.939L10.272 40.653c0-7.061 2.281-14.078 6.422-19.771 4.129-5.688 10.124-9.979 16.792-12.17 3.353-1.06 6.849-1.402 10.365-1.649l816.693.097c3.54 0 6.934 1.125 10.208 2.479 6.477 2.685 12.11 7.457 15.77 13.434 2.768 4.526 4.02 9.739 4.861 14.939l.098 1123.515a48 48 0 0 1-.098 2.622" clip-rule="evenodd"/>
  <path fill="#fff" fill-rule="evenodd" d="M700.903 346.367c0-81.745-21.138-141.294-63.702-178.274-42.275-37.285-105.136-55.373-188.85-55.373H250.907v743.536h114.85V591.998h84.533c39.224 0 74.252-4.442 105.117-13.904 30.898-8.618 56.479-22.268 78.737-42.54 21.137-20.066 38.085-45.646 49.762-76.51 11.7-30.863 16.997-68.968 16.997-112.677m-116.823 2.245c0 30.865-3.058 55.373-8.367 75.39-5.271 20.272-13.89 36.162-24.436 47.826-10.593 11.67-23.376 20.326-39.265 25.574-16.083 5.302-33.057 7.241-51.984 7.241h-94.271V198.662h94.271c39.2 0 68.98 11.973 91.249 34.223 22.21 23.377 32.803 61.475 32.803 115.727M553.396 958.479c-.289-1.035-.41-2.07-.41-3.165 0-6.97 5.634-12.627 12.628-12.627 2.227 0 4.395.588 6.308 1.696l161.025 93.062-161.025 93.062a12.45 12.45 0 0 1-6.308 1.697c-6.994 0-12.628-5.657-12.628-12.641 0-1.083.121-2.105.41-3.164l12.243-47.368H169.113v-63.172H565.64z" clip-rule="evenodd"/>
</svg>
