<svg xmlns="http://www.w3.org/2000/svg" viewBox="0 0 687 601" role="img" aria-labelledby="title">
  <title id="title">Verkehrszeichen 14a - 14a: Achtung Falschfahrer</title>
  <path d="M327.112 14.377c9.6-16.66 25.323-16.66 34.931 0l320.503 555.75c9.608 16.659 1.747 30.295-17.462 30.295l-640.979.008c-19.21 0-27.079-13.628-17.47-30.287z" style="fill:#ee1c23;fill-rule:nonzero;stroke:none"/>
  <path d="m111.19 527.894 464.043-.008-232.03-402.355z" style="fill:#fff;fill-rule:nonzero;stroke:none"/>
  <path d="m387.413 269.724 19.472 24.97h8.205c4.786 0 8.675 2.624 8.675 5.86v32.483c0 3.236-3.889 5.86-8.675 5.86 0 0-2.398.227-6.307.585v10.392c0 2.692-3.225 4.882-7.215 4.882h-5.521c-3.99 0-7.226-2.19-7.226-4.882v-8.615c-36.221.044-44.705.008-89.827 0v8.615c0 2.692-3.235 4.882-7.226 4.882h-5.51c-3.99 0-7.226-2.19-7.226-4.882v-10.392c-3.909-.358-6.307-.585-6.307-.585-4.786 0-8.664-2.624-8.664-5.86v-32.483c0-3.236 3.878-5.86 8.664-5.86h8.205l19.472-24.97zm10.828 24.97-15.44-19.805h-77.786l-15.44 19.805z" style="fill:red;fill-rule:nonzero;stroke:none"/>
  <path d="m288.555 437.235 16.28 21.38h6.86c4 0 7.252 2.247 7.252 5.019v27.814c0 2.772-3.251 5.018-7.253 5.018 0 0-2.005.195-5.273.502v8.898c0 2.305-2.696 4.18-6.032 4.18h-4.615c-3.337 0-6.041-1.875-6.041-4.18v-7.377c-30.283.038-37.375.006-75.1 0v7.377c0 2.305-2.704 4.18-6.04 4.18h-4.608c-3.336 0-6.04-1.875-6.04-4.18v-8.898c-3.268-.307-5.273-.502-5.273-.502-4.002 0-7.244-2.246-7.244-5.018v-27.814c0-2.772 3.242-5.018 7.244-5.018h6.86l16.279-21.381zm9.053 21.38-12.91-16.958h-65.03l-12.91 16.959zM471.755 437.235l16.28 21.38h6.86c4 0 7.251 2.247 7.251 5.019v27.814c0 2.772-3.25 5.018-7.252 5.018 0 0-2.005.195-5.273.502v8.898c0 2.305-2.696 4.18-6.032 4.18h-4.616c-3.336 0-6.04-1.875-6.04-4.18v-7.377c-30.283.038-37.376.006-75.1 0v7.377c0 2.305-2.704 4.18-6.04 4.18h-4.608c-3.336 0-6.04-1.875-6.04-4.18v-8.898c-3.268-.307-5.273-.502-5.273-.502-4.002 0-7.244-2.246-7.244-5.018v-27.814c0-2.772 3.242-5.018 7.244-5.018h6.86l16.279-21.381zm9.053 21.38-12.91-16.958h-65.03l-12.91 16.959z" style="fill:#000;fill-rule:nonzero;stroke:none"/>
  <path d="M317.468 359.625h49.376v55.548h-49.376z" style="fill:red;fill-opacity:1;stroke:none"/>
  <path d="m341.807 438.26-68.996-48.621h138l.691.488z" style="fill:red;fill-opacity:1;stroke:none"/>
  <path d="M542.069 159.08a21.264 21.61 0 1 1-42.529 0 21.264 21.61 0 1 1 42.529 0" style="fill:#fff;fill-opacity:1;stroke:none" transform="matrix(.59775 0 0 .58821 -22.588 227.42)"/>
  <path d="M542.069 159.08a21.264 21.61 0 1 1-42.529 0 21.264 21.61 0 1 1 42.529 0" style="fill:#fff;fill-opacity:1;stroke:none" transform="matrix(.59775 0 0 .58821 87.522 227.42)"/>
</svg>
