<svg xmlns="http://www.w3.org/2000/svg" xmlns:xlink="http://www.w3.org/1999/xlink" xml:space="preserve" viewBox="0 0 784 1045" role="img" aria-labelledby="title">
  <title id="title">Verkehrszeichen 4a - 4a: Verkehrsfunk</title>
  <defs>
    <path id="a" d="M9 7.104h766v1031.064H9z"/>
  </defs>
  <clipPath id="b">
    <use xlink:href="#a" overflow="visible"/>
  </clipPath>
  <path fill="#0069b4" d="M126.506 584.28h530.976V118.058H126.506zm-82.912 449.54c-15.898 0-28.796-12.854-28.796-28.729V40.186c0-15.875 12.898-28.733 28.796-28.733h696.812c15.898 0 28.785 12.858 28.785 28.733v964.906c0 15.875-12.887 28.729-28.785 28.729z" clip-path="url(#b)"/>
  <path fill="#fff" d="M125.506 117.058h530.976V583.28H125.506z"/>
  <g fill="#010202">
    <path d="M163.81 181.9h17.207l.359.358v53.054h22.046v-53.054l.358-.358h17.207l.358.358v124.21l-.358.358H203.78l-.358-.358v-55.205h-22.046v55.205l-.359.358H163.81l-.358-.358v-124.21zM237.474 180.287h15.952l1.254 1.254v15.773l-1.254 1.434h-15.952l-1.255-1.434v-15.773zm0 36.206h15.952l1.254 1.254v87.825l-1.254 1.255h-15.952l-1.255-1.255v-87.825zM297.158 181.362l.179.359v35.309h10.754l.538.538v13.443l-.538.538h-10.754v74.741l-.358.538h-17.386l-.358-.538v-1.255l-.358-73.486h-8.245l-.538-.538v-13.443l.538-.538h8.245v-26.706q.176-.714 18.281-8.962M356.663 215.238h13.622l.717.717v18.64l-7.528-.896h-3.047q-15.056 0-15.056 11.83v60.582l-.717.717h-18.282l-.717-.717V217.21l.717-.896h18.282q.715.001.717 3.047 6.09-4.123 11.292-4.123M408.508 215.776h3.765q18.46.001 25.63 18.461 1.434 4.84 1.435 13.622v56.997l-.718.717h-18.281l-.717-.717v-7.349h-.359q-5.558 9.141-17.027 9.141h-2.509q-13.803 0-18.461-15.056l-.717-6.273v-5.556q0-20.789 15.056-27.064 8.421-2.688 17.386-2.688h6.632v-5.915q-.002-8.603-6.632-10.216h-4.123q-6.453.001-9.499 8.783h-17.744l-.717-.717q-.001-13.8 14.338-23.121 7.165-3.05 13.262-3.049m-8.961 62.911q-.002 9.68 8.424 11.113h2.688q6.808 0 8.244-8.604l.358-2.509v-14.876h-1.612q-13.266 0-17.028 9.141-1.075 3.227-1.074 5.735M490.21 181.362h16.131l1.255 1.255v121.88l-1.255 1.075H490.21q-1.256.002-1.255-4.66-6.815 5.915-15.056 5.915h-2.33q-17.387.001-17.386-22.225v-49.11q-.002-12.545 8.424-16.848 3.942-2.509 12.547-3.585 9.318 0 13.801 4.66v-37.102zm-18.104 63.091v32.979q0 11.471 9.142 11.471 7.706-2.15 7.707-9.679v-37.281q-1.974-7.706-7.707-7.707h-1.792q-7.35.002-7.35 10.217M525.158 180.287h15.952l1.255 1.254v15.773l-1.255 1.434h-15.952l-1.254-1.434v-15.773zm0 36.206h15.952l1.255 1.254v87.825l-1.255 1.255h-15.952l-1.254-1.255v-87.825zM584.664 216.493h3.764q13.8 0 23.122 11.65 3.941 6.99 3.942 17.207v32.262q0 19.18-13.263 25.451-6.991 3.764-15.952 3.764-16.849.001-25.451-13.084-3.227-6.273-3.227-14.877v-33.875q0-19.715 15.594-26.168 6.452-2.329 11.471-2.33m-7.887 26.885v36.206q0 6.633 6.273 8.782l3.227.538h.538q7.168 0 9.319-6.99l.18-3.406v-34.413q0-8.422-8.424-9.679l-1.613-.179q-9.501 1.076-9.5 9.141M346.942 395.548h4.66q19.177 0 27.423 22.942l.717 13.084v54.308q0 27.424-19.716 34.771l-8.424 1.255h-3.226q-21.69 0-28.857-24.197V423.15q-.001-19.358 22.225-26.885zm-20.791-16.31v-17.923h15.952v17.923zm11.65 45.167v68.647q1.433 10.577 10.575 10.575h1.972c6.928-1.193 10.396-4.24 10.396-9.141V423.15q0-6.81-9.141-9.32h-4.66q-7.353.002-9.142 10.575m20.074-45.167v-17.923h15.952v17.923zM421.322 396.624h2.868q11.648.001 20.612 12.188 3.764 6.454 3.764 15.952v25.272q0 5.738-4.84 8.245v.179q2.689 0 4.66 5.198l.18 3.764v26.347q-.001 21.152-19.178 27.244-2.69.897-5.915.896h-1.255q-14.7 0-22.941-15.056-2.152-5.016-2.151-9.5v-.717l.358-.359h16.489q.357.001.717 3.047 2.688 5.376 8.425 5.377 8.065-1.433 8.065-8.065v-27.603q-.001-1.97-2.51-2.509h-14.159l-.358-.358v-15.235l.358-.538h13.622q3.046-.177 3.047-2.509v-25.989q0-5.734-6.812-8.065h-1.971q-5.558 0-7.887 6.273-.18 2.151-.538 2.151h-16.489l-.358-.358v-1.076q0-11.649 12.009-20.433 6.811-3.763 12.188-3.763"/>
  </g>
  <g fill="#fff">
    <path d="M142.601 744.541h3.226c8.962 0 16.311 4.902 22.046 14.698q2.329 6.454 2.33 12.009v71.873q-.001 18.462-17.923 25.451-3.945 1.256-9.141 1.255-15.237.001-22.942-14.339-2.688-5.375-2.688-10.037v-1.613l.717-.717h16.49q.537 0 1.254 4.302 2.688 4.482 8.245 4.481 7.167 0 8.065-9.142v-22.046q-4.662 2.511-8.783 2.51-17.03 0-24.734-17.207-1.255-4.479-1.254-7.17v-29.215q0-17.027 18.282-24.018 3.403-1.074 6.81-1.075m-7.169 25.452v26.886q1.076 8.602 8.065 8.604h.359q7.527 0 8.424-9.142v-24.376q0-6.631-4.839-8.783l-2.688-.717h-1.792q-7.53 1.614-7.529 7.528M228.992 744.362l.538.538-20.612 71.873h17.565v-35.309q1.97-1.79 17.745-11.293h.717v46.602h8.065l.717.537v16.132l-.717.538h-8.065v35.488l-.717.537H227.02l-.538-.537V833.98h-35.13l-.538-.538V817.67q-.001-2.15 19.537-73.308zM269.499 844.376H283.3l.538.896v22.764l-14.518 24.196h-.358v-46.96zM347.465 744.362l.538.538-20.612 71.873h17.565v-35.309q1.97-1.79 17.745-11.293h.717v46.602h8.065l.717.537v16.132l-.717.538h-8.065v35.488l-.717.537h-17.207l-.538-.537V833.98h-35.13l-.538-.538V817.67q-.001-2.15 19.537-73.308zM503.758 869.827v-72.77l-18.82 47.318h-13.084l-18.819-47.318v72.77h-19.179V744.9h18.999l25.631 67.571 25.451-67.571h18.999v124.927zM539.963 744.9h17.206l.358.358v53.054h22.046v-53.054l.358-.358h17.207l.358.358v124.21l-.358.358h-17.207l-.358-.358v-55.205h-22.046v55.205l-.358.358h-17.206l-.358-.358v-124.21zM613.627 779.492h48.394l.538.538v14.159l-31.545 57.176h31.007l.538.539v17.385l-.538.538h-51.082l-.537-.538v-14.697q0-1.251 31.725-58.969h-28.499l-.537-.537V780.03z"/>
  </g>
</svg>
