<svg xmlns="http://www.w3.org/2000/svg" viewBox="0 0 1000 873.008" role="img" aria-labelledby="title">
  <title id="title">Verkehrszeichen 50.3 - 3: Kreuzung</title>
  <path d="M-311.866-784.121c14.04-24.299 37.02-24.299 51.06 0l468.5 810.584c14.04 24.298 2.55 44.188-25.53 44.188l-936.952.012c-28.079 0-39.582-19.877-25.53-44.175z" style="fill:#ee1c23;fill-rule:nonzero;stroke:none" transform="translate(786.314 802.345)"/>
  <path d="m-625.477-33.29 678.318-.013-339.177-586.852z" style="fill:#fff;fill-rule:nonzero;stroke:none" transform="translate(786.314 802.345)"/>
  <path d="m-158.133-129.412-80.985-80.912 80.985-80.912-47.204-47.168-80.999 80.912-80.998-80.912-47.217 47.168 80.998 80.912-80.998 80.912 47.217 47.168 80.998-80.912 80.999 80.912z" style="fill:#000;fill-rule:nonzero;stroke:none" transform="translate(786.314 802.345)"/>
</svg>
