<svg xmlns="http://www.w3.org/2000/svg" viewBox="0 0 380 1200" role="img" aria-labelledby="title">
  <title id="title">Verkehrszeichen 50.6c-2l - 6c: Bake links mit zwei Balken – Entfernung zum Bahnübergang ca. 160 m</title>
  <path d="M12.435 18.653H363.73v1162.694H12.435z" style="opacity:1;fill:#fff;fill-opacity:1;fill-rule:evenodd;stroke:#000;stroke-width:.25;stroke-linejoin:round;stroke-miterlimit:4;stroke-dasharray:none;stroke-opacity:1"/>
  <path d="M-425.4-408.966v-138.897l-333.04-187.274v138.885zM-425.4-126.581v-138.885L-758.44-452.74v138.884z" style="fill:#ee1c23;fill-rule:nonzero;stroke:none" transform="translate(782.036 1125.508)"/>
  <path d="M-409.58-1117.863c-4.854-4.923-11.314-7.645-18.182-7.645h-328.56c-14.178 0-25.714 11.716-25.714 26.106V48.386c0 6.982 2.677 13.538 7.531 18.46 4.854 4.936 11.315 7.646 18.183 7.646h328.56c6.868 0 13.328-2.71 18.183-7.645 4.865-4.923 7.543-11.48 7.543-18.461v-1147.788c0-6.97-2.678-13.527-7.543-18.461m-337.522 27.822h310.12V39.036h-310.12z" style="fill:#000;fill-rule:nonzero;stroke:none" transform="translate(782.036 1125.508)"/>
</svg>
