<svg xmlns="http://www.w3.org/2000/svg" viewBox="0 0 209.032 275.334" role="img" aria-labelledby="title">
  <title id="title">Verkehrszeichen 53.26a - 26a: Schulstraße</title>
  <defs>
    <clipPath id="a" clipPathUnits="userSpaceOnUse">
      <path d="M0 0h595.275v841.89H0Z"/>
    </clipPath>
  </defs>
  <g clip-path="url(#a)" transform="matrix(1.28592 0 0 -1.28592 -478.186 903.602)">
    <path d="M0 0a7.596 7.596 0 0 1-7.596-7.596v-198.922A7.596 7.596 0 0 1 0-214.114h147.362a7.596 7.596 0 0 1 7.596 7.596V-7.596A7.596 7.596 0 0 1 147.362 0z" style="fill:#fff;fill-opacity:1;fill-rule:nonzero;stroke:none" transform="translate(379.458 702.687)"/>
    <path d="M0 0a7.596 7.596 0 0 1-7.596-7.596v-188.763A7.596 7.596 0 0 1 0-203.955h137.203a7.595 7.595 0 0 1 7.595 7.596V-7.596c0 4.195-3.4 7.596-7.595 7.596z" style="fill:#3c63b8;fill-opacity:1;fill-rule:nonzero;stroke:none" transform="translate(384.538 697.607)"/>
    <path d="M0 0a9.6 9.6 0 0 0-1.388.515l-.809-1.536a8.6 8.6 0 0 1 1.781-.666q.924-.234 2.104-.234 1.157 0 2.024.3t1.434.815q.567.516.856 1.228.29.711.289 1.536 0 .975-.324 1.649-.324.675-.821 1.143a4.6 4.6 0 0 1-1.122.778q-.625.309-1.225.553-.464.187-.902.403a4.7 4.7 0 0 0-.787.478 2.2 2.2 0 0 0-.555.599 1.47 1.47 0 0 0-.208.787q0 .862.601 1.322.602.459 1.434.459.833 0 1.527-.197a11 11 0 0 0 1.411-.515l.763 1.499q-.232.112-.601.262-.37.15-.845.272a13 13 0 0 1-1.017.215 6.6 6.6 0 0 1-1.122.094 7 7 0 0 1-1.538-.178 4.6 4.6 0 0 1-1.457-.59 3.45 3.45 0 0 1-1.087-1.078q-.428-.665-.428-1.64 0-.861.289-1.442.288-.582.74-.994.451-.412 1.018-.684a25 25 0 0 1 1.145-.515q.508-.225.994-.45t.856-.524q.37-.3.601-.713.232-.412.232-.993 0-1.161-.66-1.658-.659-.497-1.63-.497A5.8 5.8 0 0 0 0 0m12.041-.244q-.324.103-.59.46-.266.355-.428 1.04-.162.683-.162 1.845T11 4.966t.382 1.068.589.478q.348.112.764.112.462 0 .867-.075t1.052-.337l.694 1.424q-.532.225-1.237.394a6.5 6.5 0 0 1-1.515.169q-2.059 0-3.065-1.209T8.525 3.101q0-1.574.312-2.558.313-.983.856-1.527t1.284-.74a6.2 6.2 0 0 1 1.596-.197q.81 0 1.503.169.694.169 1.272.412L14.654.047a9 9 0 0 0-1.052-.309 4.3 4.3 0 0 0-.89-.085q-.348 0-.671.103m7.942-1.489v6.315q0 .6.185 1.012.185.411.463.665.277.253.636.356t.705.103q.602 0 .96-.347.359-.346.359-1.339v-6.765h2.266v6.671q0 1.743-.798 2.502t-2.301.759q-1.527 0-2.475-1.144v4.329h-2.267V-1.733Zm8.671 9.744V1.34q0-1.63.729-2.446.728-.815 2.393-.815.81 0 1.481.328.67.328 1.11.965l.393-1.105h1.573v9.744h-2.267V1.64q0-1.125-.532-1.603-.532-.477-1.318-.477-.671 0-.983.403-.312.402-.312 1.471v6.577zm14.31-8.152a2.7 2.7 0 0 0-.648-.075q-.3 0-.439.15-.14.15-.139.6v10.85h-2.267v-11q0-1.199.659-1.705.66-.506 1.585-.506.416 0 .832.065.417.066.856.179zm7.082-1.611q.705.168 1.249.534.543.366.879.937t.335 1.377q0 .694-.266 1.171a2.9 2.9 0 0 1-.694.834 4.3 4.3 0 0 1-.948.6q-.521.243-1.006.45-.741.3-1.272.609-.532.309-.532.796t.393.787.994.3a5 5 0 0 0 1.157-.14 7.6 7.6 0 0 0 1.318-.478l.763 1.405q-.416.243-1.225.506t-2.059.263q-.578 0-1.214-.132a3.8 3.8 0 0 1-1.168-.44 2.65 2.65 0 0 1-.879-.825q-.347-.514-.347-1.302 0-.637.243-1.087t.624-.778.845-.543q.462-.216.925-.403.393-.169.751-.328.358-.16.636-.356.278-.197.44-.45.162-.252.162-.609 0-.656-.451-.965-.452-.309-1.215-.309a6.5 6.5 0 0 0-1.121.103 6 6 0 0 0-1.33.422l-.74-1.406q.462-.244 1.306-.478t2.024-.234q.717 0 1.423.169M56.163.703q0-1.143.671-1.884.67-.74 2.151-.74.601 0 1.168.113.566.112 1.145.318L60.72-.141a4.5 4.5 0 0 0-.683-.178 4 4 0 0 0-.589-.046q-.556 0-.787.299-.231.3-.231.844v5.734h2.498v1.499H58.43v2.062h-2.267V8.011h-1.457l-.208-1.499h1.665zM68.077 6.39q.324-.047.74-.197l.486 1.781q-.347.093-.648.159-.3.066-.763.066-.995 0-1.561-.497a3.5 3.5 0 0 1-.891-1.209l-.37 1.518h-1.573v-9.744h2.267v5.509q0 1.162.393 1.911t1.342.75q.254 0 .578-.047m7.471.178q.346-.056.578-.225.23-.168.347-.496.115-.328.115-.872v-.73h-1.225q-2.244 0-3.296-.722-1.053-.721-1.053-2.371 0-.88.243-1.461t.682-.947 1.041-.515 1.295-.15q1.065 0 1.677.375t.937.918l.393-1.105h1.55v6.821q0 1.592-.856 2.352-.855.759-3.007.759-.902 0-1.838-.169a12 12 0 0 1-1.608-.394l.578-1.424q.786.225 1.469.319.682.093 1.168.093.462 0 .81-.056m1.04-5.116q0-.28-.104-.609a1.8 1.8 0 0 0-.323-.599 1.8 1.8 0 0 0-.59-.46q-.37-.187-.902-.187-.741 0-1.041.412-.301.413-.301 1.256 0 .9.451 1.293t1.492.393h1.318zm13.76.919a3.5 3.5 0 0 1-.648.852 5 5 0 0 1-.844.647q-.463.28-.844.534a4.6 4.6 0 0 0-.648.506q-.266.253-.266.571 0 .507.335.815.336.31.729.628.393.32.729.778.335.46.335 1.265 0 1.293-.879 2.099t-2.614.806a5.5 5.5 0 0 1-1.468-.188 3.15 3.15 0 0 1-1.191-.609 3 3 0 0 1-.81-1.077q-.301-.657-.301-1.575V-1.733h2.267v10.1q0 .656.139 1.04.138.384.37.581t.509.253.532.056q.763 0 1.087-.412t.324-1.012-.359-.984a8 8 0 0 0-.775-.721 8 8 0 0 1-.775-.722q-.358-.384-.358-.983 0-.6.254-1.022.255-.422.625-.74.37-.319.809-.581a9 9 0 0 0 .81-.543 3.2 3.2 0 0 0 .624-.619q.255-.338.255-.824 0-.75-.313-1.087-.312-.337-.913-.337-.44 0-.786.065a6 6 0 0 0-.741.197l-.624-1.368q.462-.207 1.099-.337a6 6 0 0 1 1.237-.132q.694 0 1.307.16.612.16 1.064.524.45.366.717.956t.266 1.434q0 .674-.266 1.162m10.507.149v1.069a9 9 0 0 1-.196 1.967q-.197.862-.648 1.453-.451.59-1.191.89-.741.3-1.827.3-2.151 0-3.146-1.247-.994-1.246-.994-4.001 0-1.517.381-2.473.382-.956 1.006-1.49a3.3 3.3 0 0 1 1.434-.721 7.4 7.4 0 0 1 1.666-.188q.97 0 1.85.225.879.225 1.411.469L99.93.141q-1.318-.525-2.452-.525-.485 0-.902.065-.416.066-.728.356t-.509.872q-.197.58-.22 1.611zm-3.099 4.067q.324-.132.532-.45t.312-.89a9.5 9.5 0 0 0 .127-1.434h-3.585q.046.957.197 1.537.15.58.382.881.231.3.543.393t.682.094q.486 0 .81-.131" style="fill:#fff;fill-opacity:1;fill-rule:nonzero;stroke:none" transform="translate(403.825 513.122)"/>
    <path d="M0 0a9.6 9.6 0 0 0-1.388.515l-.809-1.536a8.6 8.6 0 0 1 1.781-.666q.924-.234 2.104-.234 1.157 0 2.024.3t1.434.815q.567.516.856 1.228.29.711.289 1.536 0 .975-.324 1.649-.324.675-.821 1.143a4.6 4.6 0 0 1-1.122.778q-.625.309-1.225.553-.464.187-.902.403a4.7 4.7 0 0 0-.787.478 2.2 2.2 0 0 0-.555.599 1.47 1.47 0 0 0-.208.787q0 .862.601 1.322.602.459 1.434.459.833 0 1.527-.197a11 11 0 0 0 1.411-.515l.763 1.499q-.232.112-.601.262-.37.15-.845.272a13 13 0 0 1-1.017.215 6.6 6.6 0 0 1-1.122.094 7 7 0 0 1-1.538-.178 4.6 4.6 0 0 1-1.457-.59 3.45 3.45 0 0 1-1.087-1.078q-.428-.665-.428-1.64 0-.861.289-1.442.288-.582.74-.994.451-.412 1.018-.684a25 25 0 0 1 1.145-.515q.508-.225.994-.45t.856-.524q.37-.3.601-.713.232-.412.232-.993 0-1.161-.66-1.658-.659-.497-1.63-.497A5.8 5.8 0 0 0 0 0Zm12.041-.244q-.324.103-.59.46-.266.355-.428 1.04-.162.683-.162 1.845T11 4.966t.382 1.068.589.478q.348.112.764.112.462 0 .867-.075t1.052-.337l.694 1.424q-.532.225-1.237.394a6.5 6.5 0 0 1-1.515.169q-2.059 0-3.065-1.209T8.525 3.101q0-1.574.312-2.558.313-.983.856-1.527t1.284-.74a6.2 6.2 0 0 1 1.596-.197q.81 0 1.503.169.694.169 1.272.412L14.654.047a9 9 0 0 0-1.052-.309 4.3 4.3 0 0 0-.89-.085q-.348 0-.671.103zm7.942-1.489v6.315q0 .6.185 1.012.185.411.463.665.277.253.636.356t.705.103q.602 0 .96-.347.359-.346.359-1.339v-6.765h2.266v6.671q0 1.743-.798 2.502t-2.301.759q-1.527 0-2.475-1.144v4.329h-2.267V-1.733Zm8.671 9.744V1.34q0-1.63.729-2.446.728-.815 2.393-.815.81 0 1.481.328.67.328 1.11.965l.393-1.105h1.573v9.744h-2.267V1.64q0-1.125-.532-1.603-.532-.477-1.318-.477-.671 0-.983.403-.312.402-.312 1.471v6.577zm14.31-8.152a2.7 2.7 0 0 0-.648-.075q-.3 0-.439.15-.14.15-.139.6v10.85h-2.267v-11q0-1.199.659-1.705.66-.506 1.585-.506.416 0 .832.065.417.066.856.179zm7.082-1.611q.705.168 1.249.534.543.366.879.937t.335 1.377q0 .694-.266 1.171a2.9 2.9 0 0 1-.694.834 4.3 4.3 0 0 1-.948.6q-.521.243-1.006.45-.741.3-1.272.609-.532.309-.532.796t.393.787.994.3a5 5 0 0 0 1.157-.14 7.6 7.6 0 0 0 1.318-.478l.763 1.405q-.416.243-1.225.506t-2.059.263q-.578 0-1.214-.132a3.8 3.8 0 0 1-1.168-.44 2.65 2.65 0 0 1-.879-.825q-.347-.514-.347-1.302 0-.637.243-1.087t.624-.778.845-.543q.462-.216.925-.403.393-.169.751-.328.358-.16.636-.356.278-.197.44-.45.162-.252.162-.609 0-.656-.451-.965-.452-.309-1.215-.309a6.5 6.5 0 0 0-1.121.103 6 6 0 0 0-1.33.422l-.74-1.406q.462-.244 1.306-.478t2.024-.234q.717 0 1.423.169zM56.163.703q0-1.143.671-1.884.67-.74 2.151-.74.601 0 1.168.113.566.112 1.145.318L60.72-.141a4.5 4.5 0 0 0-.683-.178 4 4 0 0 0-.589-.046q-.556 0-.787.299-.231.3-.231.844v5.734h2.498v1.499H58.43v2.062h-2.267V8.011h-1.457l-.208-1.499h1.665zM68.077 6.39q.324-.047.74-.197l.486 1.781q-.347.093-.648.159-.3.066-.763.066-.995 0-1.561-.497a3.5 3.5 0 0 1-.891-1.209l-.37 1.518h-1.573v-9.744h2.267v5.509q0 1.162.393 1.911t1.342.75q.254 0 .578-.047zm7.471.178q.346-.056.578-.225.23-.168.347-.496.115-.328.115-.872v-.73h-1.225q-2.244 0-3.296-.722-1.053-.721-1.053-2.371 0-.88.243-1.461t.682-.947 1.041-.515 1.295-.15q1.065 0 1.677.375t.937.918l.393-1.105h1.55v6.821q0 1.592-.856 2.352-.855.759-3.007.759-.902 0-1.838-.169a12 12 0 0 1-1.608-.394l.578-1.424q.786.225 1.469.319.682.093 1.168.093.462 0 .81-.056zm1.04-5.116q0-.28-.104-.609a1.8 1.8 0 0 0-.323-.599 1.8 1.8 0 0 0-.59-.46q-.37-.187-.902-.187-.741 0-1.041.412-.301.413-.301 1.256 0 .9.451 1.293t1.492.393h1.318zm13.76.919a3.5 3.5 0 0 1-.648.852 5 5 0 0 1-.844.647q-.463.28-.844.534a4.6 4.6 0 0 0-.648.506q-.266.253-.266.571 0 .507.335.815.336.31.729.628.393.32.729.778.335.46.335 1.265 0 1.293-.879 2.099t-2.614.806a5.5 5.5 0 0 1-1.468-.188 3.15 3.15 0 0 1-1.191-.609 3 3 0 0 1-.81-1.077q-.301-.657-.301-1.575V-1.733h2.267v10.1q0 .656.139 1.04.138.384.37.581t.509.253.532.056q.763 0 1.087-.412t.324-1.012-.359-.984a8 8 0 0 0-.775-.721 8 8 0 0 1-.775-.722q-.358-.384-.358-.983 0-.6.254-1.022.255-.422.625-.74.37-.319.809-.581a9 9 0 0 0 .81-.543 3.2 3.2 0 0 0 .624-.619q.255-.338.255-.824 0-.75-.313-1.087-.312-.337-.913-.337-.44 0-.786.065a6 6 0 0 0-.741.197l-.624-1.368q.462-.207 1.099-.337a6 6 0 0 1 1.237-.132q.694 0 1.307.16.612.16 1.064.524.45.366.717.956t.266 1.434q0 .674-.266 1.162zm10.507.149v1.069a9 9 0 0 1-.196 1.967q-.197.862-.648 1.453-.452.59-1.191.89-.741.3-1.827.3-2.151 0-3.146-1.247-.994-1.246-.994-4.001 0-1.517.381-2.473.382-.956 1.006-1.49a3.3 3.3 0 0 1 1.434-.721 7.4 7.4 0 0 1 1.666-.188q.97 0 1.85.225.879.225 1.411.469L99.93.141q-1.318-.525-2.452-.525-.485 0-.902.065-.416.066-.728.356t-.509.872q-.197.58-.22 1.611zm-3.099 4.067q.324-.132.532-.45t.312-.89a9.5 9.5 0 0 0 .127-1.434h-3.585q.046.957.197 1.537.15.58.382.881.231.3.543.393t.682.094q.486 0 .81-.131z" style="fill:none;stroke:#fff;stroke-width:.171;stroke-linecap:butt;stroke-linejoin:miter;stroke-miterlimit:5.104;stroke-dasharray:none;stroke-opacity:1" transform="translate(403.825 513.122)"/>
    <path d="M401.071 543.562h104.136v104.136H401.071Z" style="fill:#fff;fill-opacity:1;fill-rule:nonzero;stroke:none"/>
    <path d="M0 0h-15.736c1.156.283 2.395.805 3.636 1.467 0 0 .625.625 1.822.833s2.237 1.145 2.341 1.926-.988 2.55-1.665 3.278c-.676.729-5.048 4.279-5.724 5.933s-6.09 9.576-5.673 14.104 1.457 6.141 1.457 6.141 4.862-.559 6.527 1.927c.317.472.501 1.433.59 2.68h.316c.411.001 1.342.334 1.342.746l-.01.052.045-.01s.22.074.149 1.897-.598 4.109-.598 4.109l-.039.01c-.015.399-.562.719-.964.72h-.413c-.338 4.393-.939 8.562-1.148 8.875-.412.619-1.491 2.624-2.879 2.496.019.159.038.313.056.478.297 2.637-1.09 3.27-1.783 2.477-.678-.774-.693-2.108-.693-2.169-.322-.199-.706-.465-.706-.465s-.612 1.222-1.978 2.263c-.68.518-1.384.656-2.276 1.041-.652.281-.534 1.288-.534 1.288s3.635 2.961 2.594 7.477c0 0 1.808 1.592 1.808-2.432 0-.897-.276-2.242 0-3.546.414-1.961 4.133-1.877 4.133-1.877s-1.196.566-1.42 3.704c-.306 4.28-1.495 7.14-4.929 5.353l-.75.89s-3.049 1.724-5.547 1.62-4.892-.856-4.945-5.893c0 0 .424-1.095-.567-1.761-.727-.488-.359-1.001.047-1.176.29-.124-.178-.746-.178-.746s-.033-.379.26-.48l.197-.078c-.224-.034-.4-.397-.141-.67.252-.265.145-.489.145-.854 0-.364.578-1.116 2.181-.927 1.524.179 2.612.253 1.987-.748-.058-.093-.772-.491-.837-.595-.628-1.008-1.509-1.828-1.792-3.715-.133-.885-.266-4.008-.363-7.396l-5.647-.757.554-12.553 5.735.704c.442-.985 1.082-2 1.959-2.335 0 0 .052-2.331-1.406-5.921s-2.081-5.933-1.873-7.703c.208-1.769.156-2.498-.156-2.966-.313-.469-1.614-2.591-2.29-5.881-.677-3.29-1.301-6.453-1.353-6.87-.05-.397-1.759-1.398-3.318-1.217l.535.791.274.407s2.073 2.688.589 3.416c-1.485.729-2.739.617-3.707 1.223s-5.166 7.159-9.208 7.717c0 0 3.815 6.375 3.313 9.882-.347 2.42-.833 4.259-1.129 5.909 1.199-.987 3.202-1.786 4.035-1.326 1.195.66 5.462 9.168 5.071 11.004-.392 1.836-.809 1.084-.809 1.084l-.237.645 1.139-.937s.563 8.689-7.015 6.024c0 0-1.533.864-1.508 1.564s-2.128.581-1.644-.477c.484-1.059.928-1.4.928-1.4l-.62.077c-.178.482-.372.946-.547 1.222-.151.239-.837.817-1.197.755-.955-.167-.605.084-.605.084l.06 1.651s2.839 1.698 2.58 5.556c-.243 3.627-2.96 5.384-7.442 4.068-4.274-1.255-3.676-5.32-3.138-6.023.23-.3.441-.772.239-1.183-.359-.729-.668-1.016-.556-1.267.108-.24.27-.223.422-.269.378-.116.002-.64.179-.763.184-.127.344-.059.344-.059l-.045-.075s-.246-.336.179-.523c.372-.164.026-1.201.754-1.226.728-.026 2.011.147 2.011.147l-.101-.631s-1.195.08-2.812-1.49l-.028-.035c-.481-.318-.888-.698-1.045-1.162-.523-1.544-.903-3.498-1.126-3.918-.224-.42-1.251-3-2.214-3.736s-3.034-3.371-3.85-4.384-2.205-2.006-2.829-1.984-1.851-.809-1.927-1.495.394-.627.587-1.062c.194-.435 1.21-1.159 1.754-.49.544.67.976 1.123 1.288 1.113s.628.082 1.01.589c.383.508 4.066 3.087 4.983 3.992.494.489 1.372 1.63 2.167 2.771-.053-1.67.3-6.453.321-7.285.021-.874-1.381-3.742.07-3.948 1.451-.207 1.137-.26 1.137-.26s-1.733-4.886-1.665-5.93c.067-1.044.225-6.963.805-9.755.579-2.791 1.668-7.4-.906-8.04s-4.662-.774-4.945-1.441c-.186-.435.209-1.326 1.622-1.865h-11.694v-2.275H0Zm-48.66 48.053s-1.711 1.333-1.241 1.721c.469.389.868-1.238 1.25-1.461.383-.223-.009-.26-.009-.26m-1.354-9.087c.06 3.524.17 7.551.17 7.551s-.041.141-.108.362l.512-.122s.861-.124.708-.785c-.086-.367-.742-3.8-1.282-7.006m32.455 19.786c.037-.508.046-1.028.044-1.485a1.8 1.8 0 0 0-.754.511c.114.222.215.463.215.677 0 .534.396 1.684.495.297M-44.496 3.583C-44.751 2.25-45.697.501-45.697.501S-45.776.29-45.834 0h-9.937c-.034.843-.802 2.361-.788 4.12.016 1.926 1.411 6.096.252 8.688l.348 1.029s6.137-4.692 9.09-6.618 2.628-2.302 2.373-3.636m2.46-3.181q.42-.21.866-.402h-1.138zM-18.774 0h-13.039c.133.732.279 1.632.353 2.404.157 1.613 4.018 13.579 5.059 15.233s.625.988.625.988 4.933-9.444 7.535-10.912c2.602-1.469 2.186-2.134 2.186-2.134s1.717-.677.677-1.77-1.406-1.613-2.186-1.873C-18.302 1.69-20.066.524-18.774 0" style="fill:#231f20;fill-opacity:1;fill-rule:nonzero;stroke:none" transform="translate(491.44 557.126)"/>
  </g>
</svg>
