<svg xmlns="http://www.w3.org/2000/svg" xml:space="preserve" viewBox="0 0 960 960" role="img" aria-labelledby="title">
  <title id="title">Verkehrszeichen 52.7f-2[7.5] - 7f: Fahrverbot für Omnibusse mit mehr als ... Tonnen höchst­zu­lässigem Gesamtgewicht</title>
  <path fill="#ec1c24" fill-rule="evenodd" d="M478.674 2.633c264.343 0 478.686 214.351 478.686 478.687C957.36 745.645 743.018 960 478.674 960 214.343 960 0 745.645 0 481.32 0 216.984 214.343 2.633 478.674 2.633" clip-rule="evenodd"/>
  <path fill="#fff" fill-rule="evenodd" d="M478.674 124.838c-196.81 0-356.469 159.665-356.469 356.482 0 196.811 159.659 356.476 356.469 356.476 196.822 0 356.495-159.665 356.495-356.476 0-196.817-159.673-356.482-356.495-356.482" clip-rule="evenodd"/>
  <path fill="#231f20" fill-rule="evenodd" d="M662.027 384.446h54.525c3.668 0 7.045-2.218 8.852-5.311 2.164-3.7 1.426-7.349.211-11.28l-21.199-69.07c-2.73-8.867-8.141-14.076-17.957-14.076h-23.653c-6.24 0-11.426 4.009-11.426 10.494v78.517c0 5.931 4.683 10.726 10.647 10.726m-72.718 131.287c.079-21.655 17.942-39.209 39.287-39.209 21.295 0 39.396 17.824 39.396 39.42 0 21.578-18.022 39.262-39.396 39.262-21.569 0-39.287-17.744-39.287-39.473m-11.954-131.287h49.381c3.655 0 7.889-2 9.552-5.363.727-1.51 1.716-3.8 1.716-5.501v-78.015c0-6.703-4.948-10.858-11.426-10.858h-48.932c-6.703 0-11.201 4.795-11.201 11.444v77.204c0 5.943 4.789 11.089 10.91 11.089m-84.802-.205h49.155c6.334 0 11.716-4.077 11.716-10.817l-.079-78.789c0-7.321-5.725-10.184-12.204-10.184h-47.56c-6.2 0-11.371 3.728-11.371 10.382v78.385c0 5.647 4.379 11.023 10.343 11.023m-83.352.112h48.918c6.042 0 10.58-4.795 10.58-10.771v-78.405c0-6.544-4.881-10.778-11.187-10.778h-48.471c-6.016 0-11.213 3.522-11.213 10.046l.17 79.221c.001 6.394 4.949 10.629 11.203 10.687m-84.869.093h49.063c6.188 0 11.004-4.863 11.004-10.944v-78.404c0-6.664-4.948-10.402-11.202-10.402h-49.38c-6.187 0-10.501 4.386-10.501 10.533v78.109c0 6.167 4.894 11.108 11.016 11.108m-84.315-.093h48.654c6.042 0 11.293-4.597 11.293-10.771v-78.893c0-6.109-4.591-10.291-10.515-10.291h-46.055c-8.114 0-14.434 5.389-14.434 13.871v74.316c.001 6.306 4.46 11.768 11.057 11.768m475.388-93.57 32.64 106.995c2.005 6.688 3.218 14.076 3.707 21.061.224 2.369-.198 2.785-.198 4.459v79.546c0 2.812-1.147 5.238-3.457 6.914-2.23 1.503-4.524 1.714-7.099 1.714h-57.202c-1.953-13.654-5.978-25.072-16.044-35.218-21.398-21.55-57.413-21.55-78.893-.065-10.052 10.052-14.011 21.399-16.107 34.986H410.929c-1.887-13.871-6.123-25.218-16.254-35.421-21.425-21.571-57.494-21.493-78.918 0-10.119 10.15-13.985 22.011-15.871 35.652h-75.938c-6.464 0-8.865-5.97-8.865-11.729V299.688c0-7.704 2.665-15.739 8.206-21.267 5.146-5.105 12.626-7.495 19.737-7.495h472.828c3.351 0 5.647.945 7.019 4.038 1.372 2.937 1.148 6.834-1.213 9.255z" clip-rule="evenodd"/>
  <path fill="#231f20" fill-rule="evenodd" d="M315.98 515.733c.08-21.655 17.942-39.209 39.301-39.209 21.293 0 39.38 17.824 39.38 39.42 0 21.578-18.007 39.262-39.38 39.262-21.569 0-39.301-17.744-39.301-39.473M566.854 668.09v70.575c0 9.359 2.283 16.854 6.834 22.758 4.328 6.168 11.584 9.109 21.412 9.109 3.879 0 7.981-.461 11.848-1.393 3.839-.877 7.507-2.229 11.386-3.838l-5.673-16.598c-3.021 1.129-5.305 2.059-7.31 2.263-2.085.476-3.879.679-5.698.679-3.405 0-5.938-1.133-7.297-3.621-1.596-2.538-2.268-5.943-2.268-10.244v-69.69h24.577v-18.212h-24.577v-25.047h-23.234v25.047h-14.326l-2.085 18.212zm-69.222-14.115h36.623v-15.172h-54.948v65.304h13.72c3.72-1.497 6.833-2.23 9.262-2.23 5.329 0 9.419 1.861 12.559 5.746 3.168 3.873 4.618 10.548 4.618 20.331 0 4.809-.528 8.897-1.45 12.004-.924 3.365-2.429 5.943-4.09 7.956-1.65 2.085-3.682 3.371-6.109 4.097-2.388.93-5.171 1.299-7.956 1.299-2.743 0-6.107-.567-9.788-1.504-3.879-.93-7.032-2.229-9.472-3.522l-5.62 14.274c1.081.733 2.572 1.452 4.538 2.23 1.861.883 3.879 1.648 6.319 2.176 2.376.773 4.815 1.3 7.56 1.814 2.572.567 5.173.766 7.744.766 4.816 0 9.474-.766 14.077-2.171 4.446-1.505 8.549-3.879 12.006-7.394 3.509-3.365 6.306-7.817 8.338-13.141 2.058-5.376 3.14-12.21 3.14-20.185 0-12.414-2.73-22.031-8.325-29.019-5.54-7.037-13.284-10.554-23.284-10.554-1.491 0-2.931.151-4.645.35-1.663.218-3.324.588-4.815.937v-34.392zm-60.647 103.773c0 3.312.792 5.745 2.427 7.408 1.465 1.648 2.598 2.58 3.535 3.106l-8.706 25.14h12.004l12.586-25.14c1.292-2.396 2.057-4.405 2.427-6.068.356-1.702.528-3.147.528-4.446 0-3.51-1.096-6.464-3.483-8.898-2.427-2.374-5.383-3.515-8.893-3.515-3.522 0-6.464 1.141-8.891 3.515-2.386 2.434-3.534 5.388-3.534 8.898m-52.507 10.515 47.046-161.954v-25.904h-91.388v22.963h65.978l-50.027 164.896z" clip-rule="evenodd"/>
</svg>
