<svg xmlns="http://www.w3.org/2000/svg" xml:space="preserve" viewBox="0 0 960 960" role="img" aria-labelledby="title">
  <title id="title">Verkehrszeichen 52.9a[2] - 9a: Fahrverbot für über ... Meter breite Fahrzeuge</title>
  <g fill-rule="evenodd" clip-rule="evenodd">
    <path fill="#e20613" d="M1.132 480.572c0-264.749 214.691-479.439 479.421-479.439C745.309 1.133 960 215.824 960 480.572 960 745.31 745.309 960 480.554 960 215.823 960 1.132 745.31 1.132 480.572"/>
    <path fill="#fff" d="M123.528 480.572c0 197.111 159.92 357.032 357.025 357.032 197.13 0 357.05-159.921 357.05-357.032 0-197.123-159.92-357.044-357.05-357.044-197.104 0-357.025 159.921-357.025 357.044"/>
    <path fill="#1d1d1b" d="m142.528 366.594 87.473 113.821-87.498 113.72c-11.034-32.809-17.43-67.757-18.393-104.048-.107-3.244-.054-6.442-.054-9.719 0-3.291-.027-6.613.054-9.877.976-36.218 7.399-71.14 18.418-103.897M819.582 366.594l-87.473 113.821 87.5 113.72c11.018-32.809 17.428-67.757 18.393-104.048.078-3.244.051-6.442.051-9.719 0-3.291.027-6.613-.051-9.877-.979-36.218-7.4-71.14-18.42-103.897M577.117 667.562h35.596V547.81c0-7.353.74-13.63 2.127-18.499 1.389-4.93 3.105-8.754 5.537-11.555 2.496-2.802 4.941-4.877 7.371-5.899 2.434-1.098 5.221-1.771 7.664-1.771 7.348 0 12.58 2.082 15.752 6.64 3.104 4.559 4.875 13.267 4.875 26.169v124.668h35.598V541.177c0-20.62-3.846-35.287-11.141-44.715-7.371-9.434-19.58-13.939-36.322-13.939-7.359 0-14.361 1.394-20.996 4.506-6.633 3.164-12.896 8.402-18.127 15.03-7.375-12.903-20.271-19.536-39.482-19.536-7.32 0-14.311 1.704-20.943 4.869-6.648 3.171-12.223 8.391-16.795 15.347l-4.492-16.742h-25.145v181.565h35.596v-117.32c0-8.021.729-14.655 2.074-19.887 1.402-5.24 3.172-9.071 5.602-12.236 2.484-3.164 4.918-5.239 7.363-6.262 2.43-1.098 5.23-1.771 7.676-1.771 7.346 0 12.58 2.082 15.684 6.64 3.172 4.559 4.93 13.267 4.93 26.169v124.667zM350.718 341.205c6.264 0 12.024.568 17.759 2.127 5.245 1.56 9.963 4.195 14.166 7.822 3.673 4.209 6.832 10.016 9.433 16.794 2.115 7.36 3.146 16.735 3.146 27.775 0 14.151-3.146 29.849-8.907 46.075-5.735 16.259-14.139 34.037-24.618 52.384-10.98 18.333-23.571 38.239-38.754 59.222-15.182 20.938-32.478 42.965-50.832 65.962v48.195h179.187v-47.098H330.767c16.794-20.983 32.479-41.404 46.642-61.304 14.139-19.893 26.732-39.283 37.712-58.654 10.476-19.378 18.867-37.725 25.131-56.078 5.76-17.818 8.919-35.59 8.919-52.9 0-16.788-2.577-31.455-7.308-43.473-4.704-12.083-11.547-22.026-19.95-29.848-8.854-7.875-18.857-13.637-30.366-17.303-12.024-3.687-24.615-5.24-38.754-5.24-8.403 0-16.793 1.031-24.617 3.152-8.403 2.088-16.278 4.724-23.571 7.835-7.374 3.152-14.139 6.831-19.913 10.458a148 148 0 0 0-15.738 12.084l23.045 36.679c9.435-7.359 19.398-13.107 29.334-17.818 9.948-4.721 19.37-6.848 29.385-6.848"/>
  </g>
</svg>
