<svg xmlns="http://www.w3.org/2000/svg" viewBox="0 0 1000 873.02" role="img" aria-labelledby="title">
  <title id="title">Verkehrszeichen 50.15 - 15: Vorankündigung eines Lichtzeichens Hinweis: Es ist nur dann anzubringen, wenn mit einer Lichtsignalanlage üblicherweise nicht gerechnet werden muss oder wenn eine solche Anlage schlecht wahrnehmba</title>
  <path d="M783.84-286.98c14.052-24.31 37.032-24.31 51.072 0l468.49 810.586c14.051 24.299 2.561 44.176-25.53 44.176l-936.943.024c-28.091 0-39.582-19.877-25.53-44.175z" style="fill:#ee1c23;fill-rule:nonzero;stroke:none" transform="translate(-309.4 305.213)"/>
  <path d="m470.24 463.852 678.32-.024-339.178-586.841z" style="fill:#fff;fill-rule:nonzero;stroke:none" transform="translate(-309.4 305.213)"/>
  <path d="M809.382 156.805c31.293 0 56.65-25.345 56.65-56.602s-25.357-56.601-56.65-56.601-56.663 25.345-56.663 56.601c0 31.257 25.37 56.602 56.663 56.602" style="fill:#ee1c23;fill-rule:nonzero;stroke:none" transform="translate(-309.4 305.213)"/>
  <path d="M809.382 289.195c31.293 0 56.65-25.345 56.65-56.601 0-31.257-25.357-56.602-56.65-56.602s-56.663 25.345-56.663 56.602 25.37 56.601 56.663 56.601" style="fill:#fff100;fill-rule:nonzero;stroke:none" transform="translate(-309.4 305.213)"/>
  <path d="M809.382 421.586c31.293 0 56.65-25.345 56.65-56.602s-25.357-56.601-56.65-56.601-56.663 25.345-56.663 56.601c0 31.257 25.37 56.602 56.663 56.602" style="fill:#0b8f4b;fill-rule:nonzero;stroke:none" transform="translate(-309.4 305.213)"/>
</svg>
