<svg xmlns="http://www.w3.org/2000/svg" viewBox="0 0 690 690" role="img" aria-labelledby="title">
  <title id="title">Verkehrszeichen 52.7e - 7e: Fahrverbot für Kraftfahrzeuge mit gefährlichen Gütern</title>
  <path d="M315.342 222.026c0-190.535 154.463-345.005 345-345.005s345 154.47 345 345.005c0 190.524-154.463 344.995-345 344.995s-345-154.47-345-344.995" style="fill:#ee1c23;fill-rule:nonzero;stroke:none" transform="translate(-315.342 122.98)"/>
  <path d="M660.342 477.83c141.283 0 255.818-114.533 255.818-255.804C916.16 80.735 801.625-33.8 660.342-33.8S404.524 80.735 404.524 222.026c0 141.27 114.535 255.804 255.818 255.804" style="fill:#fff;fill-rule:nonzero;stroke:none" transform="translate(-315.342 122.98)"/>
  <path d="M586.59 220.91h146.867V74.047H586.59z" style="fill:#fff100;fill-rule:nonzero;stroke:none" transform="translate(-315.342 122.98)"/>
  <path d="M550.316 243.298 566.91 81.49s.577-12.701 7.476-19.082c9.068-8.401 25.095-8.87 25.095-8.87h119.074s16.027.469 25.095 8.87c6.889 6.38 7.476 19.082 7.476 19.082l16.594 161.807zm36.274-22.387h146.867V74.046H586.59zM784.075 307.672v-4.688c0-9.746-7.894-17.64-17.639-17.64h-5.166c-9.746 0-17.65 7.894-17.65 17.64v7.874h-12.134v10.89h-19.291v-2.34h-37.678c-3.693-5.315-9.546-8.77-16.146-8.77-6.61 0-12.463 3.455-16.156 8.77h-37.677v2.34h-19.292v-10.89H573.11v-7.874c0-9.746-7.903-17.64-17.649-17.64h-5.166c-9.745 0-17.64 7.894-17.64 17.64v4.688c-2.12 1.165-3.583 3.395-3.583 5.983v32.988c0 2.588 1.463 4.818 3.584 5.973v4.698c0 9.745 7.894 17.64 17.639 17.64h5.166c9.746 0 17.65-7.895 17.65-17.64v-7.874h12.134v-10.89h19.292v3.265s26.448 1.185 40.136 6.998c.01.01.01.01.02.01.05.06.11.1.169.16.199.189 4.639 5.743 13.508 5.653 8.71-.09 13.3-5.464 13.498-5.654.06-.06.12-.1.17-.159.01 0 .01 0 .02-.01 13.687-5.813 40.136-6.998 40.136-6.998v-3.265h19.291v10.89h12.135v7.874c0 9.745 7.903 17.64 17.649 17.64h5.166c9.745 0 17.64-7.895 17.64-17.64v-4.698c2.12-1.155 3.583-3.385 3.583-5.973v-32.988c0-2.588-1.463-4.818-3.584-5.983M531.412 279.064h254.744v-24.896H531.412z" style="fill:#000;fill-rule:nonzero;stroke:none" transform="translate(-315.342 122.98)"/>
  <path d="M586.59 220.91h146.867V74.047H586.59z" style="fill:#f6836c;fill-rule:nonzero;stroke:none" transform="translate(-315.342 122.98)"/>
</svg>
