<svg xmlns="http://www.w3.org/2000/svg" viewBox="0 0 470 310" role="img" aria-labelledby="title">
  <title id="title">Verkehrszeichen 54g - g: bei nasser Fahrbahn</title>
  <path d="M-306.105-237.69a19.85 19.85 0 0 0-14.1-5.821h-430.12c-10.995 0-19.94 8.918-19.94 19.882V46.602a19.72 19.72 0 0 0 5.839 14.061 19.86 19.86 0 0 0 14.1 5.826h430.12c5.323 0 10.331-2.07 14.101-5.826a19.72 19.72 0 0 0 5.84-14.06V-223.63a19.73 19.73 0 0 0-5.84-14.061" style="fill:#000;fill-rule:nonzero;stroke:none" transform="translate(770.266 243.511)"/>
  <path d="M-304.464 46.602c0 8.659-7.06 15.7-15.742 15.7h-430.12c-4.202 0-8.156-1.63-11.132-4.598a15.57 15.57 0 0 1-4.61-11.102v-270.231c0-4.191 1.637-8.135 4.61-11.102a15.68 15.68 0 0 1 11.132-4.598h430.12c4.202 0 8.157 1.635 11.133 4.598a15.59 15.59 0 0 1 4.61 11.102z" style="fill:#fff;fill-rule:nonzero;stroke:none" transform="translate(770.266 243.511)"/>
  <path d="m-646.842-62.892-15.197-7.104-35.49 75.451 15.197 7.104zM-612.852-64.279l-15.196-7.108-36.12 76.796 15.197 7.104zM-585.788-51.04l-15.196-7.103-29.81 63.368 15.201 7.108zM-559.576-35.763l-15.196-7.108-22.862 48.603 15.196 7.108zM-525.245-38.337l-15.197-7.108-24.125 51.29 15.196 7.108zM-484.786-53.278l-15.2-7.108-31.07 66.055 15.197 7.108zM-451.576-53.018l-15.2-7.108-31.07 66.055 15.197 7.108zM-418.748-52.045l-15.196-7.108-30.44 64.713 15.197 7.108zM-607.344-146.867l-15.197-7.104-35.489 75.451 15.197 7.104zM-573.572-147.785l-15.196-7.103-35.49 75.45 15.197 7.104zM-555.315-115.824l-11.179-15.645-29.44 62.584 15.196 7.108zM-527.714-103.503l-15.817-5.792-28.085 59.714 15.197 7.104zM-492.816-107.283l7.48-15.9-26.682 17.308-24.007 51.034 15.196 7.108zM-444.246-139.47l-15.197-7.103-35.489 75.45 15.197 7.104zM-411.036-139.206l-15.197-7.108-35.49 75.451 15.197 7.108zM-378.209-138.233l-15.196-7.108-35.49 75.45 15.197 7.108z" style="fill:#000;fill-rule:nonzero;stroke:none" transform="translate(770.266 243.511)"/>
  <path d="m-313.993-192.23-5.89-.004-18.932-.026s-7.645-.008-7.645-.004l1.709 6.752c-.147 1.525-1.222 4.065-9.017 4.065-2.77 0-7.46-.385-8.724-2.837-.214-1.341-.268-1.995-.28-2.158v-5.818h-30.264l-.184 5.742c-.021.675.033 1.731.218 4.966l.113 2 .004.117.013.113c.945 9.987.046 22.942-5.306 29.337-1.725 2.062-4.941 4.799-12.942 4.799-6.583 0-11.368-1.81-15.054-5.7-9.32-9.836-9.576-29.358-9.525-33.323.046-1.11.054-1.81.059-1.999l.046-5.955-5.974-.021-18.928-.071-5.617-.026-.34 5.591c-.017.273-.017.49-.017.767l-.008 1.262c-.53 11.6-5.571 68.07-53.05 68.07-13.097 0-23.1-3.86-30.586-11.798-18.294-19.412-16.35-57.207-16.33-57.572l.395-6.307-6.339.008-19.235.038-4.37.008-1.297 4.162c-2.321 7.435-10.02 24.735-31.346 24.735-9.42 0-15.843-3.172-19.638-9.698-3.186-5.486-3.505-11.63-3.526-13.386l-.076-5.863-5.881.004-18.933.026-4.962.008-.881 4.87c-.73 4.027-4.06 10.788-18.144 10.788-14.256 0-17.975-6.932-18.924-11.065l-1.054-4.601-4.739-.005-19.164-.02-6.364-.005.424 6.333c1.041 15.486 15.487 40.053 49.821 40.053 11.226 0 20.89-2.502 28.832-7.439 9.567 13.395 24.663 20.691 43.209 20.691 13.614 0 25.994-3.952 36.342-11.487 4.172 14.873 10.767 27.182 19.68 36.667C-559.178-93.151-541.32-85.9-519.529-85.9c31.83 0 56.043-15.335 70.492-44.454.139.15.273.318.416.47 9.638 10.213 22.253 15.388 37.5 15.388 15.297 0 27.962-5.494 36.63-15.892 4.82-5.78 8.283-12.95 10.39-21.336 3.241.637 6.692.968 10.332.968 12.707 0 22.832-3.81 30.095-11.32 9.134-9.447 9.756-20.972 9.73-24.278z" style="fill:#fff;fill-rule:nonzero;stroke:none" transform="translate(770.266 243.511)"/>
  <path d="m-319.89-186.304-18.93-.021.047.18c-.004 3.969-1.96 10.628-14.995 10.628-9.58 0-13.203-3.587-14.466-7.074-.487-2.8-.487-3.734-.487-3.734h-18.555c-.017.557.13 2.963.327 6.446.87 9.195.626 24.986-6.662 33.691-3.904 4.669-9.63 6.936-17.51 6.936-8.219 0-14.558-2.477-19.377-7.56-10.738-11.337-11.221-31.974-11.145-37.54.046-1.093.054-1.755.054-1.902l-18.928-.071c-.013.197.004.478-.013 1.823-.533 11.986-5.869 73.841-58.998 73.841-14.83 0-26.253-4.472-34.918-13.667-20.192-21.42-17.959-61.603-17.934-61.997l-19.23.033c-2.166 6.936-11.07 28.906-37.026 28.906-27.328 0-29.054-24.099-29.113-28.94l-18.932.022c-.74 4.078-4.555 15.67-23.996 15.67-19.264 0-23.722-11.316-24.721-15.674l-19.164-.017c.785 11.722 12.317 34.517 43.885 34.517 14 0 23.811-4.287 30.49-10.08 8.03 15.046 22.728 23.332 41.551 23.332 17.87 0 30.85-7.204 39.86-16.408 2.837 14.367 8.672 30.875 20.502 43.465 12.266 13.05 28.668 19.668 48.746 19.668 31.9 0 55.564-16.743 68.44-48.422.243-.596.474-1.19.704-1.782 1.726 2.854 3.74 5.587 6.096 8.085 8.471 8.977 19.63 13.524 33.168 13.524 13.47 0 24.558-4.757 32.055-13.755 6.083-7.292 9.08-16.336 10.428-24.936 4.34 1.613 9.307 2.426 14.869 2.426 11.032 0 19.713-3.193 25.813-9.5 7.695-7.96 8.08-17.85 8.064-20.113" style="fill:#000;fill-rule:nonzero;stroke:none" transform="translate(770.266 243.511)"/>
</svg>
