<svg xmlns="http://www.w3.org/2000/svg" xml:space="preserve" viewBox="0 0 960 960" role="img" aria-labelledby="title">
  <title id="title">Verkehrszeichen 52.12 - 12: Halt Zoll</title>
  <path fill="#ec1c24" fill-rule="evenodd" d="M479.741 3.827c263.258 0 476.746 213.488 476.746 476.748 0 263.258-213.488 476.746-476.746 476.746C216.481 957.321 3 743.833 3 480.575 3 217.315 216.481 3.827 479.741 3.827" clip-rule="evenodd"/>
  <path fill="#f1f2f2" fill-rule="evenodd" d="M479.741 125.537c-196.014 0-355.031 159.024-355.031 355.038 0 196.012 159.017 355.036 355.031 355.036 196.013 0 355.037-159.024 355.037-355.036 0-196.014-159.024-355.038-355.037-355.038" clip-rule="evenodd" style="fill:#fff;fill-opacity:1"/>
  <path fill="#231f20" fill-rule="evenodd" d="M479.333 530.95H214.792c-23.105.158-41.834-17.987-42.144-40.941-.191-23.047 18.046-41.981 41.041-42.321h533.279c22.704.59 40.731 19.274 40.627 41.926-.092 22.456-18.079 40.733-40.481 41.337zM673.072 689.831h57.104V675.09h-38.34v-40.614h34.017v-14.781h-34.017v-36.647h38.34V568.32h-57.104zm-48.93 0h24.309V568.319h-16.542v94.09l-26.542-94.09h-23.955v121.512h16.479V596.45zm-56.998 0-26.91-121.512h-24.307l-26.542 121.512h18.907l5.059-27.565h29.314l5.189 27.565zm-51.217-42.375 11.997-64.039 11.955 64.039zm-39.74 7.99v-87.127h-18.539v86.825c0 7.777-1.401 13.178-4.028 16.488-2.633 3.299-6.439 4.993-11.123 4.993-4.696 0-8.303-1.536-10.924-4.848-2.641-3.285-3.969-8.856-3.969-16.634v-86.825h-18.448v87.127c0 5.217.709 10.104 2.11 14.426 1.386 4.337 3.448 8.147 6.233 11.286 2.787 3.298 6.242 5.718 10.414 7.635 4.165 1.854 9.065 2.733 14.584 2.733 5.56 0 10.452-.88 14.572-2.733 4.187-1.917 7.68-4.337 10.615-7.635 2.78-3.139 4.842-6.949 6.446-11.286 1.38-4.321 2.057-9.208 2.057-14.425m-123.096 36.08c12.673 0 21.902-5.005 27.462-15.202 5.353-10.104 8.14-25.858 8.14-47.262 0-21.326-2.787-37-8.14-47.197-5.56-10.248-14.789-15.294-27.462-15.294s-21.851 5.046-27.257 15.294c-5.571 10.197-8.343 25.871-8.343 47.197 0 21.403 2.772 37.157 8.343 47.262 5.406 10.197 14.584 15.202 27.257 15.202m0-14.704c-2.937 0-5.571-.709-7.628-2.259-2.259-1.394-4.026-4.021-5.414-7.622-1.34-3.665-2.423-8.499-3.094-14.583-.709-6.084-1.019-13.914-1.019-23.296 0-9.368.309-17.214 1.019-23.23.671-6.084 1.754-11.129 3.094-14.796 1.388-3.652 3.154-6.083 5.414-7.619 2.057-1.394 4.691-2.116 7.628-2.116 2.982 0 5.564.723 7.831 2.116 2.055 1.536 3.803 3.967 5.202 7.619 1.394 3.667 2.425 8.712 3.134 14.796.676 6.017 1.038 13.862 1.038 23.23 0 9.382-.362 17.212-1.038 23.296-.709 6.084-1.741 10.918-3.134 14.583-1.399 3.602-3.147 6.229-5.202 7.622-2.267 1.55-4.849 2.259-7.831 2.259m-53.281-48.273c0-13.547-1.24-24.32-3.461-32.296-2.253-7.792-5.406-13.875-9.211-18.041-3.974-4.178-8.507-6.963-13.553-8.198-5.006-1.182-10.412-1.694-15.767-1.694H233.49v121.512h26.022c5.045 0 9.887-.671 14.788-1.919 4.691-1.182 9.013-3.967 12.836-8.304 3.805-4.361 6.958-10.446 9.211-18.591 2.222-8.135 3.463-18.909 3.463-32.469m-19.118 0c0 9.749-.513 17.529-1.549 23.6-1.236 6.082-2.57 10.983-4.534 14.282-1.912 3.441-3.968 5.716-6.393 6.897-2.417 1.235-5.044 1.762-7.627 1.762h-8.343v-92.043h8.501c2.425 0 4.848.37 7.267 1.235 2.477.881 4.539 2.943 6.45 6.084 1.892 3.102 3.292 7.636 4.528 13.718 1.188 6.084 1.7 14.217 1.7 24.465M729.283 415.679v-21.508h-64.726V253.619H639.58v162.06zm-112.789 0v-21.508H551.77V253.619h-24.991v162.06zm-123.207-81.122c0-16.424-2.116-31.022-5.973-43.228-3.92-12.522-10.164-22.206-18.5-29.158-8.304-6.923-18.972-10.419-32.107-10.616-19.426.197-33.753 7.41-42.773 21.943-9.265 14.334-13.652 34.688-13.652 61.058 0 25.201 4.388 45.305 13.652 60.349 9.021 15.005 23.348 22.573 42.773 23.033 19.631-.209 33.959-7.581 42.979-22.364 9.265-14.53 13.601-34.883 13.601-61.017m-24.676 0c0 23.349-2.785 39.983-8.357 49.68-5.519 9.735-13.4 14.322-23.546 14.125-10.195.197-18.038-4.39-23.597-14.125-5.572-9.697-8.356-26.331-8.356-49.68 0-23.336 2.785-39.774 8.356-49.456 5.559-9.487 13.402-14.125 23.597-13.915 10.146-.21 18.027 4.428 23.546 13.915 5.572 9.682 8.357 26.12 8.357 49.456m-113.786-58.273v-22.665h-92.231v20.812h65.441l-70.742 118.61v22.638h95.477v-20.772h-67.707z" clip-rule="evenodd"/>
</svg>
