<svg xmlns="http://www.w3.org/2000/svg" viewBox="0 0 960 960" role="img" aria-labelledby="title">
  <title id="title">Verkehrszeichen 52.13c-b - 13c/b: Wechselseitiges Parkverbot (gerade Tage)</title>
  <path d="M794.17 478.854c216.402 0 391.834-175.434 391.834-391.834S1010.572-304.813 794.17-304.813 402.323-129.38 402.323 87.02 577.77 478.854 794.171 478.854" style="fill:#176fc1;fill-rule:nonzero;stroke:none" transform="translate(-315.391 392.98)"/>
  <path d="M675.325 369.29h90.053V-195.25h-90.053zM822.95 369.29h90.052V-195.25h-90.053z" style="fill:#fff;fill-rule:nonzero;stroke:none" transform="translate(-315.391 392.98)"/>
  <path d="M1275.391 87.02c0 265.096-214.904 480-480 480s-480-214.904-480-480 214.904-480 480-480 480 214.905 480 480m-480 355.921c82.48 0 158.387-28.059 218.731-75.148l-499.5-499.5C467.536-71.364 439.48 4.546 439.48 87.02c0 196.568 159.343 355.921 355.912 355.921m355.926-355.92c0-196.568-159.357-355.922-355.926-355.922-82.466 0-158.387 28.06-218.732 75.148l499.515 499.514c47.072-60.357 75.143-136.266 75.143-218.74" style="fill:#ee1c23;fill-rule:nonzero;stroke:none" transform="translate(-315.391 392.98)"/>
</svg>
