<svg xmlns="http://www.w3.org/2000/svg" viewBox="0 0 1000 873.025" role="img" aria-labelledby="title">
  <title id="title">Verkehrszeichen 50.11 - 11: Fußgängerübergang</title>
  <path d="M579.56-729.852c14.04-24.298 37.02-24.298 51.06 0L1099.123 80.75c14.04 24.299 2.55 44.176-25.53 44.176l-936.957.024c-28.08 0-39.57-19.877-25.53-44.187z" style="fill:#ee1c23;fill-rule:nonzero;stroke:none" transform="translate(-105.115 748.076)"/>
  <path d="m265.948 20.983 678.321-.013L605.09-565.872z" style="fill:#fff;fill-rule:nonzero;stroke:none" transform="translate(-105.115 748.076)"/>
  <path d="M691.655-113.206c-22.081-29.225-31.466-59.003-31.466-59.003-2.08-12.5-6.379-25-8.35-30.358 2.82.025 4.483.025 4.483.025s-1.822-8.818-9.002-29.225-10.862-35.838-8.658-42.18c2.204-6.343 1.305-19.865 1.305-19.865 12.969.554 21.602 16.552 21.602 16.552-.554 3.867.394 32.254 0 35.013-.394 2.758 2.758 3.313 2.758 3.313s.838.061 2.156.16c.258 3.51.53 9.827-.222 14.729-1.108 7.167-2.488 11.576 2.204 9.926 1.232-.43 1.983-.739 2.439-.948-.136.948-.542 3.288-1.601 5.628-1.38 3.042-1.663 4.852.542 6.072 2.216 1.219 10.332-1.528 12.697-12.956 2.364-11.441 2.414-14.582.492-17.611-1.293-2.032-2.672-2.956-2.955-3.929 1.736.086 3.177.148 3.978.148 3.583 0 1.625-3.904 1.071-9.692s-.653-35.358-.653-35.358 2.488 0-5.8-11.035c-8.276-11.022-36.146-35.838-47.735-42.734-4.076-2.426-7.204.542-10.222-1.675-5.234-3.842-11.28-3.867-11.28-3.867l-1.552-2.118c0-.555.542-.555 1.096-.555-.554-3.3-2.759-6.613-2.205-9.926.555-3.3 2.205-6.613 2.205-10.468 0-1.108 1.662 0 2.217-.554 1.096-2.759 1.65-7.168-.555-9.372-1.108-.554-3.362 1.786-4.174.85-2.574-2.931-1.343-11.33-6.318-11.885-9.385-.554-27.353-1.256-28.695-.554-1.355.714-.554 19.853-9.385 25.37-.554.554-2.216 1.65-1.108 2.204 2.204 1.109 5.517 0 7.18 1.663.554 1.096-1.109 2.746 1.096 3.855.554.554-.542 2.204-1.096 2.758-.554 2.205-1.109 5.518.554 7.168 1.096 1.65 4.963-.554 6.072 1.65 1.096 2.205 1.65 4.963 2.758 7.168.542 1.108 3.3 1.108 5.518 1.662 1.096.542.554 1.65.554 2.205-1.109 1.65-3.313 0-3.867.542 0 0-12.624 9.42-20.9 27.34-8.288 17.919-12.426 26.466-16.01 30.05-3.596 3.583-26.01 19.224-26.01 19.224s-5.074 4.938-3.485 9.212c-6.737 2.278-21.97 8.411-18.72 16.404 4.138 10.21 11.33 8.4 16.281 5.246 3.93-2.524 8.24-10.443 9.84-13.596 2.033 1.158 4.31 1.786 6.712 1.453 6.072-.825 29.533-23.424 29.533-23.424s8.559-8.005 16.835-12.414c0 0 6.145 45.26 7.29 52.144a627 627 0 0 1 1.959 12.574c-5.382 8.596-18.018 30.062-27.648 56.244-12.55 34.188-27.685 68.179-31.552 77.55 0 0 1.219.715 3.226 1.86-2.278 1.035-5.751 1.958-10.948 2.032-12.143.173-22.082.32-22.082.32s-2.758.198-3.583 2.402c-.838 2.205.825 4.101.825 4.101l21.626 11.921 13.694.518v5.517l15.863 3.374s2.044.727 2.598-2.032c.394-1.958 3.19-11.478 4.754-16.786 3.35 1.367 6.429 2.39 8.805 2.76 0 0 9.028-26.615 12.636-36.984 3.608-10.357 14.36-37.92 18.953-47.587 4.606-9.668 19.188-29.064 23.043-34.582a2 2 0 0 0 .16-.27c12.623 13.596 13.99 22.943 21.071 37.266 7.316 14.778 10.148 17.833 22.833 36.035 12.697 18.19 23.83 36.195 23.83 36.195a93 93 0 0 0 3.129-1.49c-1.91 6.354-6.232 19.47-9.964 22.377-4.963 3.855-7.5 5.025-7.512 6.613 0 1.589.825 2.29 2.759 2.118s21.798.444 21.798.444 8.288-8.276 9.939-15.173c0 0 3.005-2.475 4.384-1.65s.96.025.96.025l3.486-4.163s.258-5.37-1.675-8.128c0 0-1.441-7.894-6.182-13.646 5.948-4.63 8.817-8.03 8.817-8.03s2.624 3.067-19.446-26.157" style="fill:#000;fill-rule:nonzero;stroke:none" transform="translate(-105.115 748.076)"/>
  <path d="M459.83-15.336h20.308v-9.372H459.83zm284.363 0H764.5v-9.372h-20.308zm-40.616 0h20.308v-9.372h-20.308zm-40.629 0h20.308v-9.372h-20.308zm-40.629 0h20.309v-9.372h-20.309zm-40.616 0h20.308v-9.372h-20.308zm-40.628 0h20.308v-9.372h-20.308zm-40.617 0h20.308v-9.372h-20.308zm-3.633-91.811h18.843v-7.722h-18.843zm226.075 0h18.842v-7.722H722.9zm-37.686 0h18.843v-7.722h-18.843zm-37.673 0h18.843v-7.722h-18.843zm-37.672 0h18.842v-7.722H609.87zm-37.686 0h18.843v-7.722h-18.843zm-37.673 0h18.843v-7.722H534.51z" style="fill:#000;fill-rule:nonzero;stroke:none" transform="translate(-105.115 748.076)"/>
</svg>
