<svg xmlns="http://www.w3.org/2000/svg" fill="#231f20" viewBox="0 0 960 960" role="img" aria-labelledby="title">
  <title id="title">Verkehrszeichen 52.6d-3[10] - 6d: Fahrverbot für Kraftfahrzeuge mit Anhänger, wenn Länge des Anhängers … Meter überschreitet Als Dezimaltrennzeichen wird Punkt verwendet. Die Maßeinheit &quot;Meter&quot; wird nicht angegeben.</title>
  <path fill="#ee1c23" d="M0 480a480 480 0 1 1 960 0 480 480 0 0 1-960 0"/>
  <path fill="#fff" d="M480 836a356 356 0 1 0 0-712 356 356 0 0 0 0 712"/>
  <path d="M500.104 549.216a68.576 68.576 90 0 1 0-137.152 68.576 68.576 90 1 1 0 137.152"/>
  <path d="M339.4 257h317.248v222.256H580.4c-.744-43.72-36.4-78.944-80.296-78.944s-79.552 35.224-80.288 78.944h-171.84V462.64h11.08v8.304H339.4ZM611.384 675.888V622.44h56.393v-36.765l80.545 65.358-81.218 61.53.157-36.735zm-263.418 0-55.89-.06.158 36.735-81.22-61.53 80.547-65.358v36.765h56.405zm199.116 44.46h13.933v-46.871c0-2.851.264-5.34.832-7.263.514-1.901 1.188-3.407 2.18-4.496.924-1.091 1.901-1.923 2.839-2.331.977-.424 2.073-.681 2.998-.681 2.906 0 4.927.832 6.167 2.601 1.242 1.758 1.929 5.178 1.929 10.25v48.791h13.92v-49.465c0-8.076-1.492-13.82-4.358-17.499-2.893-3.678-7.647-5.495-14.237-5.495-2.84 0-5.587.569-8.174 1.817-2.589 1.242-5.073 3.255-7.106 5.844-2.893-5.019-7.923-7.661-15.478-7.661-2.84 0-5.586.722-8.188 1.909-2.574 1.24-4.755 3.315-6.576 6.056l-1.758-6.571h-9.839v71.065H530.1v-45.893c0-3.151.304-5.752.819-7.818.58-2.015 1.24-3.572 2.178-4.761.992-1.249 1.917-2.081 2.906-2.489.938-.424 2.021-.681 2.998-.681 2.853 0 4.927.832 6.167 2.601 1.19 1.758 1.916 5.178 1.916 10.25v48.791zm-48.219-71.066c0-13.212-.567-24.596-2.033-33.966-1.387-9.377-3.458-16.899-6.313-22.788-3.051-5.911-6.734-10.208-11.384-12.851-4.662-2.635-10.156-3.882-16.64-3.882-6.736 0-12.217 1.247-16.931 3.882-4.663 2.643-8.335 6.939-11.173 12.851-3.064 5.889-5.098 13.411-6.538 22.788-1.386 9.37-2.02 20.754-2.02 33.966 0 13.253.634 24.657 2.02 33.824 1.44 9.369 3.474 16.876 6.538 22.786 2.838 5.911 6.511 9.997 11.173 12.633 4.714 2.596 10.194 3.843 16.931 3.843 6.484 0 11.978-1.247 16.64-3.843 4.649-2.636 8.333-6.722 11.384-12.633 2.854-5.91 4.926-13.417 6.313-22.786 1.466-9.167 2.033-20.571 2.033-33.824m-20.971 0c0 12.024-.158 21.601-.793 28.956-.607 7.501-1.438 13.2-2.627 17.295-1.188 4.244-2.8 6.939-4.662 8.346-2.02 1.446-4.464 2.219-7.316 2.219-2.827 0-5.323-.772-7.133-2.635-2.033-1.611-3.67-4.669-4.872-8.968-1.242-4.244-2.074-10.142-2.656-17.499-.606-7.104-.818-16.475-.818-27.714 0-11.396.212-20.766.818-28.273.582-7.356 1.414-13.254 2.656-17.499 1.202-4.299 2.839-7.151 4.872-8.969 1.81-1.663 4.306-2.437 7.133-2.437 2.667 0 5.097.773 7.104 2.231 1.875 1.395 3.487 4.299 4.703 8.552 1.162 4.286 2.191 9.992 2.798 17.294.635 7.562.793 17.097.793 29.101m-90.94-47.8v118.865h20.761V577.869h-21.606l-30.916 25.217 12.216 14.442z"/>
</svg>
