<svg xmlns="http://www.w3.org/2000/svg" xml:space="preserve" viewBox="0 0 1000 873.008" role="img" aria-labelledby="title">
  <title id="title">Verkehrszeichen 50.7[10] - 7: Gefährliches Gefälle ACHTUNG: Das Vorzeichen bei incline=* bezieht sich auf die Zeichenrichtung der Linie in OSM. Positive Werte stehen für einen Anstieg in Zeichenrichtung, negative für ein Gefäll</title>
  <g fill-rule="evenodd" clip-rule="evenodd">
    <path fill="#e20613" d="M36.672 869.868c-11.923 0-23.083-2.558-28.695-12.775-4.406-8.182-3.831-17.935.708-25.906L475.742 19.361c5.502-9.648 14.381-17.503 25.807-17.359 10.146.116 19.041 6.282 24.09 14.957l467.145 812.366c4.295 7.507 7.815 19.241 2.635 28.342-4.761 8.325-14.126 12.245-23.503 12.245z"/>
    <path fill="#fff" d="m167.27 764.584 668.241.189L501.16 185.291z"/>
    <path fill="#1d1d1b" d="m167.507 763.887 667.406.21L334.029 474.97zM555.508 547.928c4.306-7.484 5.889-13.718 4.915-18.865-.952-5.147-4.484-9.41-10.258-12.742-5.734-3.333-11.187-4.219-16.151-2.469-4.922 1.727-9.555 6.188-13.861 13.661-4.295 7.395-5.851 13.717-4.921 18.865.974 5.136 4.534 9.365 10.269 12.687 5.768 3.344 11.192 4.273 16.142 2.524 4.969-1.738 9.569-6.266 13.865-13.661m-67.035-11.935 98.641-62.583-11.303-6.498-98.603 62.583zm43.071-1.904c2.275-3.941 4.489-6.81 6.588-8.669 1.893-1.826 4.328-1.938 7.002-.388 2.712 1.551 3.831 3.72 3.371 6.354-.692 2.68-2.087 6.001-4.379 9.953s-4.455 6.81-6.349 8.636c-2.131 1.859-4.566 1.981-7.29.421-2.663-1.54-3.78-3.709-3.094-6.433.514-2.589 1.859-5.911 4.151-9.874m12.549-58.654c4.295-7.483 5.841-13.705 4.91-18.863-.963-5.159-4.444-9.411-10.218-12.732-5.769-3.344-11.231-4.273-16.186-2.523-4.922 1.782-9.571 6.243-13.866 13.706-4.263 7.395-5.853 13.705-4.922 18.819.969 5.148 4.489 9.443 10.263 12.776 5.769 3.332 11.188 4.229 16.153 2.48 4.91-1.739 9.604-6.278 13.866-13.663m-23.941-13.827c2.286-3.996 4.423-6.853 6.555-8.713 1.887-1.826 4.372-1.903 7.035-.354 2.673 1.55 3.841 3.72 3.299 6.354-.653 2.668-2.048 5.956-4.34 9.941-2.28 3.963-4.456 6.831-6.382 8.613-2.064 1.86-4.534 2.004-7.214.465-2.673-1.55-3.829-3.809-3.138-6.432.466-2.645 1.905-5.921 4.185-9.874m-38.421 10.916c4.804-8.336 8.557-15.688 11.076-22.108 2.513-6.388 3.991-11.89 4.34-16.617.238-4.838-.499-8.868-2.514-12.194-1.976-3.366-5.003-6.155-9.061-8.525-4.263-2.441-8.176-3.669-12.084-3.669-3.875-.083-7.755 1.273-11.669 3.985-4.102 2.596-8.125 6.576-12.421 11.956-4.263 5.392-8.796 12.333-13.64 20.647-4.793 8.325-8.513 15.754-10.993 22.042-2.486 6.377-3.958 11.88-4.151 16.684-.338 4.728.465 8.636 2.452 12.012 1.971 3.321 5.032 6.111 9.25 8.559 4.102 2.357 7.976 3.553 11.89 3.642 3.908.022 7.661-1.206 11.768-3.809 3.925-2.667 7.943-6.697 12.206-12.033 4.224-5.283 8.758-12.247 13.551-20.572m-13.163-7.583c-4.34 7.539-7.949 13.462-10.999 17.879-3.139 4.507-5.702 7.827-7.977 9.953-2.325 2.247-4.295 3.299-5.967 3.521-1.776.166-3.636-.222-5.38-1.229-1.827-1.04-3.1-2.436-3.559-4.262-.67-1.783-.625-4.262.193-7.44.77-3.121 2.392-7.118 4.683-11.956 2.209-4.728 5.458-10.649 9.521-17.691 4.146-7.174 7.672-13.02 10.816-17.513 3.05-4.418 5.69-7.816 8.016-10.064 2.319-2.253 4.406-3.448 6.343-3.875 1.699-.354 3.56 0 5.386 1.041a9.44 9.44 0 0 1 3.637 3.997c.658 1.583.625 3.985-.155 7.129-.769 3.089-2.198 7.086-4.489 11.923-2.359 4.947-5.69 11.024-10.069 18.587m-43.226-65.108-43.176 74.784 13.047 7.551 51.784-89.642-13.556-7.821-28.662 4.633 2.402 13.529z"/>
  </g>
</svg>
