<svg xmlns="http://www.w3.org/2000/svg" viewBox="0 0 400 536.2" role="img" aria-labelledby="title">
  <title id="title">Verkehrszeichen 53.9a - 9a: Fußgängerzone Höchstgeschwindigkeit: Schrittgeschwindigkeit (implizit).</title>
  <g fill-rule="evenodd">
    <path fill="#fff" d="M15.978 4.573C10.701 5.726 6.456 9.527 4.756 14.619l-.603 1.806-.203 250.279c-.154 189.445-.141 250.732.055 252.142.844 6.068 5.209 10.978 11.107 12.491 2.093.538 365.951.471 368.687-.068 5.061-.995 9.773-5.574 10.936-10.626.555-2.412.622-503.187.068-505.193-1.421-5.143-5.453-9.145-10.781-10.701-1.791-.523-365.66-.697-368.044-.176m362.409 263.571c.096 135.619.124 246.711.063 246.872-.092.239-32.041.291-178.666.291H21.229V401.62c0-62.528.067-173.645.149-246.927l.149-133.241 178.343.056 178.342.056zM176.882 144.749c-49.121.033-83.2.139-83.319.258-.12.12-.135 50.104-.035 123.463l.166 123.262h85.499c47.025 0 94.776-.067 106.114-.149l20.615-.148V144.581l-22.961.056c-12.629.03-60.364.081-106.079.112m-23.818 8.666c10.237 2.161 13.455 9.853 8.833 21.11-2.043 4.973-2.09 5.139-2.138 7.515-.041 2.005-.006 2.213.377 2.286 2.326.444 11.504 3.594 13.627 4.677 3.898 1.989 6.933 6.516 11.043 16.472 2.779 6.729 6.114 13.68 7.918 16.5 2.194 3.429 1.987 6.969-.698 11.973a211 211 0 0 0-2.491 4.823l-2.996 6.033c-3.07 6.189-4.545 10.258-5.433 14.998l-.346 1.845 1.034 2.864 2.358 6.515c.729 2.008 1.279 3.724 1.224 3.814s-1.578.457-3.385.817l-3.284.656.14 2.905c.14 2.913.895 10.909 1.717 18.197.474 4.198 1.582 10.002 2.798 14.652.418 1.598.959 3.911 1.201 5.14 2.301 11.641 5.508 22.442 9.732 32.776.12.293-.371.733-2.241 2.012-3.689 2.521-3.482 2.279-2.416 2.823 1.006.514 3.278.972 7.457 1.503 4.242.54 7.598 2.747 7.598 4.996 0 .12-2.69 1.099-5.978 2.177-7.648 2.507-10.189 2.683-15.504 1.072-.287-.086-.397.107-.517.902-.083.557-.221 1.011-.305 1.01-.735-.01-8.856-.915-8.936-.995-.058-.058-.167-1.642-.243-3.521l-.137-3.415-1.655-.165c-2.074-.206-1.839.201-2.393-4.154a876 876 0 0 0-.963-7.301c-.269-1.966-.789-5.787-1.155-8.491-.707-5.232-2.296-15.388-3.217-20.559-.306-1.721-.86-4.926-1.23-7.123-.371-2.197-.933-4.963-1.249-6.145-1.179-4.408-3.505-12.661-3.627-12.868-.205-.349-2.886 18.913-3.154 22.672a876 876 0 0 0-.574 9.051c-.18 3.072-.528 8.653-.774 12.402-.245 3.749-.548 11.223-.672 16.609s-.274 9.872-.333 9.967-.874.305-1.811.465c-2.117.363-2.045.083-1.229 4.728.927 5.276 1.058 4.721-1.383 5.861l-2.067.966-.957-.771-.957-.772-2.542 2.371c-3.688 3.439-3.491 3.375-10.181 3.345-3.921-.017-5.824-.113-6.704-.34l-1.229-.316-.065-1.945c-.108-3.256 1.077-5.172 3.56-5.757 1.829-.43 2.59-.907 4.76-2.981l1.999-1.909-2.613-1.228c-1.437-.675-2.613-1.332-2.613-1.46s.396-2.27.88-4.761c2.704-13.915 4.019-28.344 4.036-44.307.005-4.301.109-8.475.231-9.273.122-.799.368-4.218.546-7.598s.439-7.855.58-9.944c.228-3.374.167-11.623-.087-11.877-.053-.054-1.09-.472-2.304-.929l-2.206-.831v-2.455c0-1.351.088-5.322.196-8.825l.195-6.368-1.784-2.011c-.981-1.107-3.082-3.186-4.668-4.622-3.228-2.922-4.86-4.66-13.866-14.762-3.183-3.571-4.269-6.319-3.573-9.037.83-3.239 6.945-14.824 12.657-23.982a223 223 0 0 0 1.823-2.969c1.855-3.11 4.314-5.809 6.552-7.19 1.3-.802 6.418-3.025 6.965-3.025.085 0 1.069-.423 2.186-.941 1.118-.517 2.836-1.157 3.819-1.421l1.788-.48-.022-1.987c-.035-3.28-.52-4.716-3.18-9.423-3.039-5.376-3.132-9.082-.365-14.591 2.592-5.161 7.687-7.139 14.62-5.675m99.34 22.91c5.853 1.79 9.573 6.736 10.387 13.812.133 1.151.539 3.427.904 5.057 1.654 7.397.454 11.545-3.804 13.147l-.779.293 1.002.581c.552.319 1.456.699 2.009.844 11.231 2.937 14.922 7.074 19.632 22.008 3.886 12.321 4.45 17.407 2.627 23.694-.426 1.471-1.14 3.932-1.587 5.468-.446 1.536-1.714 5.458-2.816 8.715-1.103 3.257-2.066 6.156-2.139 6.443-.105.409.081.746.865 1.564a35 35 0 0 1 1.873 2.161c1.464 1.871 5.015 6.142 6.85 8.239.954 1.089 1.734 2.072 1.734 2.183 0 .56-2.922 4.601-4.771 6.598l-1.273 1.375.676 1.851c.371 1.018.675 1.88.675 1.917 0 .152-4.091 2.105-6.48 3.093a73.5 73.5 0 0 1-12.067 3.781c-2.028.45-3.996.913-4.374 1.03s-.893.212-1.145.212c-1.348 0-1.128.66.846 2.541 4.061 3.869 6.117 11.242 5.169 18.532-1.311 10.07-.132 17.231 3.663 22.268 2.759 3.66 3.337 5.389 3.59 10.737.466 9.832-3.351 10.429-9.649 1.51-5.08-7.194-5.193-7.542-4.838-14.806.064-1.324-.033-1.855-.633-3.464-.39-1.044-1.695-4.765-2.899-8.268-1.204-3.502-2.716-7.726-3.36-9.385-3.315-8.543-4.037-11.621-3.683-15.68l.149-1.713-1.306-.153a28 28 0 0 1-2.201-.348c-1.452-.318-1.455-.311-.671 1.548 2.479 5.877 2.939 10.452 1.733 17.24-.864 4.863-1.252 9.563-1.255 15.195-.003 7.244.246 8.262 2.994 12.225 3.709 5.352 1.875 10.349-7.236 19.712-4.002 4.112-7.556 4.887-9.46 2.062-1.118-1.659-.924-3.574.8-7.887 4.596-11.499 4.673-12.43 2.022-24.398-.485-2.191-1.386-6.717-2.003-10.056-.616-3.339-1.516-7.881-1.999-10.094-.987-4.512-2.267-12.543-2.832-17.77l-.376-3.468-2.366-.758c-1.779-.569-6.99-2.706-7.325-3.003-.099-.088.911-6.154 1.614-9.695.757-3.81 2.351-10.006 3.643-14.156l1.808-5.81 1.155-3.711-1.718-2.881c-2.542-4.264-6.22-9.716-9.194-13.63-3.499-4.607-3.411-4.422-3.411-7.161-.001-2.572-.097-2.197 3.012-11.7 5.382-16.446 6.493-18.223 13.077-20.905 1.413-.576 3.022-1.274 3.575-1.552s2.313-1.036 3.911-1.686c3.504-1.425 3.296-1.251 2.346-1.969-4.707-3.558-5.279-4.862-4.925-11.239.591-10.662 1.742-13.962 5.987-17.156 4.684-3.525 9.503-4.585 14.247-3.134m-82.3 37.25c.552 5.966 3.758 19.292 4.636 19.271.066-.001 1.118-2.066 2.337-4.588 2.538-5.249 2.506-4.817.535-7.252-.547-.676-1.687-2.185-2.533-3.352-1.592-2.199-4.784-6.034-5.021-6.034-.075 0-.054.88.046 1.955m-40.624.838c-.255.369-1.791 2.799-3.412 5.4l-2.949 4.729 3.524 5.327 3.525 5.327.056-1.006c.032-.553-.019-5.38-.111-10.726l-.169-9.721zm136.856 22.626c-.923 5.966.189 16.898 2.336 22.961l.316.894.141-.894c.23-1.452.55-4.546.694-6.704.074-1.106.345-3.683.603-5.726.55-4.366.652-3.863-1.823-8.993-1.972-4.088-1.882-4.027-2.267-1.538m-37.783 1.739c-1.146 2.449-1.846 4.591-2.407 7.364l-.476 2.353 1.857 2.671c1.412 2.03 1.895 2.58 2.01 2.289.192-.482.185-11.766-.008-14.453l-.144-2.004z"/>
    <path fill="#1c4a98" d="M8.268 8.603c-.543.553-.936 1.006-.875 1.006s.556-.453 1.099-1.006.936-1.005.875-1.005-.556.452-1.099 1.005m385.183 3.573c.205.429.412.74.46.691.103-.102-.576-1.47-.729-1.47-.056 0 .065.35.269.779m1.685 5.254c0 .43.046.606.102.391a1.8 1.8 0 0 0 0-.782c-.056-.215-.102-.039-.102.391M21.378 154.693c-.082 73.282-.149 184.399-.149 246.927v113.687h178.555c146.625 0 178.574-.052 178.666-.291.061-.161.033-111.253-.063-246.872l-.175-246.58-178.342-.056-178.343-.056zM3.91 168.268c0 78.229.025 110.232.056 71.117.032-39.114.032-103.12 0-142.234-.031-39.115-.056-7.112-.056 71.117m302.012 99.74v123.427l-20.615.148c-11.338.082-59.089.149-106.114.149H93.694l-.166-123.262c-.1-73.359-.085-123.343.035-123.463.119-.119 34.198-.225 83.319-.258 45.715-.031 93.45-.082 106.079-.112l22.961-.056zM140.323 156.145l-.77.838.838-.77c.78-.717.941-.906.77-.906-.037 0-.414.377-.838.838m21.927 3.296c0 .123.144.475.32.782.175.308.319.459.319.336s-.144-.475-.319-.782-.32-.459-.32-.336m86.188 16.36c.278.053.681.051.894-.005.214-.056-.014-.1-.505-.097-.492.002-.667.048-.389.102m-106.61 4.869c.071.615.166 1.16.212 1.211.157.176.038-1.211-.152-1.769-.128-.377-.147-.195-.06.558m94.585.28-.771.838.838-.77c.461-.424.838-.801.838-.838 0-.171-.189-.01-.905.77m-76.787 1.508c.001.86.042 1.185.09.721a8.2 8.2 0 0 0-.002-1.564c-.049-.397-.089-.017-.088.843m-17.506 1.386c-.06.763-.028 1.305.072 1.206.099-.1.148-.724.108-1.387l-.072-1.205zm34.528 7.441c.48.492.923.894.985.894s-.281-.402-.761-.894c-.481-.492-.924-.894-.985-.894-.062 0 .281.402.761.894m-52.074 1.843-1.334 1.397 1.397-1.334c.768-.733 1.397-1.362 1.397-1.396 0-.165-.221.036-1.46 1.333m139.616 5.419c.003.492.049.667.102.389.054-.278.052-.68-.004-.894s-.1.014-.098.505m-82.275.671c0 .123.144.475.32.782.175.307.319.458.319.335s-.144-.475-.319-.782-.32-.458-.32-.335m52.722 6.48c.792.799 1.49 1.453 1.551 1.453.062 0-.536-.654-1.328-1.453-.791-.799-1.49-1.452-1.551-1.452s.536.653 1.328 1.452m-63.017 7.598c.417.43.808.782.87.782s-.229-.352-.646-.782-.809-.782-.87-.782c-.062 0 .229.352.646.782m17.588 2.452c.33.672.637 1.185.683 1.139.1-.1-1.027-2.362-1.177-2.362-.058 0 .164.55.494 1.223m84.535.006c.417.43.808.782.87.782s-.23-.352-.647-.782c-.416-.43-.808-.782-.869-.782-.062 0 .229.352.646.782m-99.665.559c.263.369.528.67.589.67.062 0-.103-.301-.365-.67-.263-.369-.528-.671-.589-.671-.062 0 .103.302.365.671m-3.747.447c0 .43.046.606.102.391a1.8 1.8 0 0 0 0-.782c-.056-.215-.102-.039-.102.391m-40.179 5.698c0 2.827.032 3.953.071 2.501s.039-3.763 0-5.139c-.04-1.376-.071-.189-.071 2.638m89.614-3.443c-.197.38-.318.731-.269.779s.255-.262.459-.691c.46-.963.301-1.037-.19-.088m-113.783 7.801c0 .553.043.779.096.502a3.1 3.1 0 0 0 0-1.005c-.053-.277-.096-.05-.096.503m71.716.116c-.268.551-.44 1.001-.382 1.001.151 0 1.054-1.815.953-1.916-.047-.047-.304.365-.571.915m38.415 1.026c-.137.395-.211.757-.163.805s.199-.236.337-.631.211-.758.163-.805-.199.236-.337.631m-39.873 1.885c-.525 1.101-.451 1.288.098.248.249-.473.414-.899.365-.947-.048-.049-.256.266-.463.699m-45.915 2.963c-.036 1.768-.112 2.268-.326 2.146-.222-.125-.223-.096-.004.14.458.494.526.151.45-2.27l-.072-2.319zm-18.594 3.507c.667.676 1.264 1.229 1.325 1.229.062 0-.434-.553-1.102-1.229-.667-.676-1.264-1.229-1.325-1.229-.062 0 .434.553 1.102 1.229m155.77 0c0 .123.144.475.319.782s.32.458.32.335-.144-.475-.32-.782c-.175-.307-.319-.458-.319-.335m-38.459 1.018c-.139.26-.203.522-.143.582s.194-.124.297-.41c.141-.388.221-.067.315 1.268l.127 1.788.041-1.719c.042-1.772-.195-2.334-.637-1.509m-39.509 1.003c-.375.821-.303.997.101.25.189-.349.302-.676.251-.728s-.21.164-.352.478m76.449.772c0 .553.043.779.096.503a3.1 3.1 0 0 0 0-1.006c-.053-.276-.096-.05-.096.503m3.448 1.223c.33.672.638 1.185.683 1.139.101-.1-1.026-2.362-1.177-2.362-.058 0 .165.55.494 1.223m-57.236-.425c-.082.328-.107.639-.054.691.053.053.163-.172.245-.499.082-.328.107-.639.054-.691-.053-.053-.163.172-.245.499m53.586 3.001c0 1.291.037 1.818.082 1.173s.045-1.701 0-2.346-.082-.117-.082 1.173m-77.92-1.219c-.525 1.101-.451 1.289.098.248.249-.472.414-.898.365-.947s-.256.267-.463.699m-70.328 1.051c.926.987 1.126 1.164 1.126.997 0-.036-.477-.514-1.061-1.062l-1.062-.996zm112.282 4.079c0 2.581.033 3.606.073 2.278s.039-3.44-.001-4.693-.072-.166-.072 2.415m-109.256-.782c.853.86 1.602 1.564 1.664 1.564s-.587-.704-1.441-1.564-1.602-1.565-1.664-1.565.587.704 1.441 1.565m145.424.67c0 .553.043.779.096.503a3.1 3.1 0 0 0 0-1.006c-.053-.276-.096-.05-.096.503m-141.961 2.57c.417.43.809.782.87.782.062 0-.229-.352-.646-.782s-.809-.782-.87-.782.229.352.646.782m161.17 2.123c0 .43.045.606.102.391a1.8 1.8 0 0 0 0-.782c-.057-.215-.102-.04-.102.391m-15.402 3.016c.001.738.043 1.013.093.611a6 6 0 0 0-.003-1.341c-.051-.336-.091-.007-.09.73m-53.924.112c.262.369.528.671.589.671s-.103-.302-.366-.671c-.262-.369-.527-.67-.589-.67s.103.301.366.67m-86.098.683c.157.202.302 1.282.344 2.57l.074 2.222.047-2.263c.039-1.925-.012-2.309-.345-2.57-.344-.27-.358-.265-.12.041m139.786 1.664c.002.491.048.666.101.388s.052-.68-.004-.894-.1.014-.097.506m-51.453.782c.262.368.527.67.589.67s-.103-.302-.366-.67-.528-.671-.589-.671c-.062 0 .103.302.366.671m51.225 1.117c0 .43.046.606.102.391a1.8 1.8 0 0 0 0-.782c-.056-.215-.102-.039-.102.391m-49.466 1.452c.12.246.383.649.583.894l.364.447-.22-.447a5.7 5.7 0 0 0-.583-.894l-.364-.446zm-89.956 3.464c0 .799.04 1.126.09.726s.05-1.053 0-1.452c-.05-.4-.09-.073-.09.726m-.231 5.698c.002.615.045.84.096.5s.05-.842-.003-1.117-.095.003-.093.617m94.034 5.496c-.151.504-.233.958-.183 1.008s.215-.321.366-.826.234-.958.184-1.008-.215.321-.367.826m-89.336 1.208c.001.738.043 1.013.093.611a6 6 0 0 0-.003-1.341c-.051-.336-.091-.007-.09.73m44.243 1.229c0 .676.042.953.094.615a5 5 0 0 0 0-1.229c-.052-.338-.094-.062-.094.614m99.822.517c0 .039.327.366.726.727l.726.656-.656-.726c-.612-.677-.796-.829-.796-.657m-143.829 3.618c0 1.229.038 1.703.083 1.053.045-.649.045-1.654-.001-2.234s-.083-.049-.082 1.181m-.23 5.251c0 .922.039 1.299.087.838a9.6 9.6 0 0 0 0-1.676c-.048-.461-.087-.084-.087.838m85.639 1.021c-.082.328-.106.639-.054.692.053.052.163-.173.246-.5s.106-.639.053-.691c-.052-.053-.163.172-.245.499m67.358.837c0 .038.327.365.727.726l.726.656-.657-.726c-.611-.677-.796-.829-.796-.656m-153.232 1.606c.002.614.045.839.097.499.051-.339.05-.842-.003-1.117s-.096.003-.094.618m45.579.67c.003.492.048.666.102.388s.051-.68-.005-.893c-.056-.214-.099.013-.097.505m-45.795 2.346c0 .799.041 1.126.09.727.05-.4.05-1.053 0-1.453-.049-.399-.09-.073-.09.726m46.019-.111c.002.491.048.666.101.388s.052-.68-.004-.894-.1.014-.097.506m-23.022 1.229c0 .43.046.606.103.391a1.8 1.8 0 0 0 0-.782c-.057-.215-.103-.039-.103.391m23.245.782c.003.491.048.666.102.388s.051-.68-.005-.894-.099.014-.097.506m-21.477.335c0 .184.086.536.192.782.121.282.192.323.192.112 0-.185-.087-.536-.192-.782-.121-.282-.192-.323-.192-.112m21.696 1.564c0 .43.046.606.102.391a1.8 1.8 0 0 0 0-.782c-.056-.215-.102-.039-.102.391m-46.684 1.118c0 .798.04 1.125.09.726.05-.4.05-1.053 0-1.453-.05-.399-.09-.072-.09.727m141.046 8.387c-.559.269-.578.3-.112.187.633-.155 1.345-.518 1.005-.513-.122.002-.525.149-.893.326m-47.658.998c0 .43.046.606.102.391a1.8 1.8 0 0 0 0-.782c-.056-.215-.102-.039-.102.391m.228 2.123c.002.492.048.666.102.388s.051-.68-.005-.893c-.056-.214-.1.013-.097.505m.219 1.899c0 .431.046.607.102.391a1.8 1.8 0 0 0 0-.782c-.056-.215-.102-.039-.102.391m32.685.671c.481.491.924.894.985.894s-.281-.403-.761-.894c-.48-.492-.923-.894-.985-.894s.281.402.761.894m-12.024.383c.308.057.525.294.586.639.084.477.093.468.069-.07-.022-.496-.137-.621-.586-.639-.458-.017-.47-.005-.069.07m-20.438.734c0 .43.046.606.103.391a1.8 1.8 0 0 0 0-.782c-.057-.215-.103-.039-.103.391m20.804 2.57c.001.86.041 1.185.09.721a8.4 8.4 0 0 0-.002-1.564c-.049-.397-.089-.017-.088.843m146.63 102.57c0 55.553.025 78.246.056 50.428.032-27.817.032-73.269 0-101.005-.031-27.736-.056-4.976-.056 50.577m-241.168-99.33c0 .553.044.779.097.503a3.2 3.2 0 0 0 0-1.006c-.053-.276-.097-.05-.097.503m94.744-.112c.003.492.049.667.102.389.054-.278.052-.68-.004-.894s-.1.014-.098.505m-1.978 5.028c0 1.782.034 2.512.077 1.62s.042-2.349 0-3.24-.077-.162-.077 1.62m-92.989-.894c0 .554.043.78.097.503a3.2 3.2 0 0 0 0-1.005c-.054-.277-.097-.051-.097.502m-20.988 1.788c0 1.045.038 1.472.085.95s.047-1.377 0-1.9-.085-.094-.085.95m20.773 1.453c.001.737.043 1.012.093.61a6 6 0 0 0-.003-1.341c-.051-.335-.091-.007-.09.731m92.948 2.011c.002.492.048.666.101.388s.052-.68-.004-.894-.1.014-.097.506m-93.172 1.117c.002.738.043 1.012.093.611a6 6 0 0 0-.002-1.341c-.051-.336-.092-.007-.091.73m-20.784.112c0 .676.042.952.093.614a5 5 0 0 0 0-1.229c-.051-.338-.093-.061-.093.615m-.227 3.017c.002.614.045.839.097.499.051-.339.05-.842-.003-1.117s-.095.003-.094.618m20.788.223c.001.738.043 1.012.093.611a6 6 0 0 0-.003-1.341c-.051-.336-.091-.007-.09.73m112.841 1.9c0 .553.043.779.096.502a3.1 3.1 0 0 0 0-1.005c-.053-.277-.096-.05-.096.503m-133.855.223c0 .553.043.779.097.503a3.2 3.2 0 0 0 0-1.006c-.054-.276-.097-.05-.097.503m-.233 2.458c0 .43.046.606.103.391a1.8 1.8 0 0 0 0-.782c-.057-.215-.103-.039-.103.391m133.881 1.341c0 1.045.039 1.472.086.95.047-.523.047-1.377 0-1.9s-.086-.095-.086.95m-20.584.223c0 .431.045.607.102.391a1.8 1.8 0 0 0 0-.782c-.057-.215-.102-.039-.102.391m10.701 1.118c-.004.184.131.637.3 1.005.395.863.401.462.008-.558-.166-.431-.304-.632-.308-.447m-10.91 1.564c0 .676.042.952.093.615a5 5 0 0 0 0-1.23c-.051-.338-.093-.061-.093.615m21.003.782c.001.615.045.84.096.5s.05-.843-.003-1.117c-.053-.275-.095.003-.093.617m-21.209 3.687c0 1.414.037 1.992.081 1.285s.044-1.863 0-2.57-.081-.128-.081 1.285m-92.3-.223c0 .922.04 1.299.088.838a10 10 0 0 0 0-1.676c-.048-.461-.088-.084-.088.838m92.5 4.693c0 .553.044.779.097.502a3.2 3.2 0 0 0 0-1.005c-.053-.277-.097-.051-.097.503m-76.21 1.117c0 .43.046.606.102.391a1.8 1.8 0 0 0 0-.782c-.056-.215-.102-.039-.102.391m-16.506 4.469c0 1.291.037 1.819.083 1.173.045-.645.045-1.701 0-2.346-.046-.645-.083-.117-.083 1.173m41.985-.069c.215.056.567.056.782 0 .215-.057.039-.103-.391-.103s-.606.046-.391.103m-23.296 2.206c.784.173 2.188.204 2.091.046-.059-.094-.628-.16-1.266-.146s-1.01.059-.825.1m102.398 3.673c0 .43.046.606.102.391a1.8 1.8 0 0 0 0-.782c-.056-.215-.102-.039-.102.391m-100.107 1.229c.002.492.048.667.101.389s.052-.681-.004-.894c-.056-.214-.1.014-.097.505m100.363 2.347c0 1.413.036 1.991.081 1.285.044-.707.044-1.864 0-2.57-.045-.707-.081-.129-.081 1.285m-143.772-1.788c.431.235.883.428 1.006.428s-.129-.193-.559-.428c-.43-.236-.882-.428-1.005-.428s.128.192.558.428m67.375 0c-.282.121-.323.192-.112.192.184 0 .536-.086.782-.192.282-.121.323-.192.112-.192-.185 0-.536.086-.782.192m66.257 1.341c.262.368.527.67.589.67s-.103-.302-.366-.67c-.262-.369-.527-.671-.589-.671s.103.302.366.671m-72.456.381c.278.054.68.052.894-.004s-.014-.1-.505-.098c-.492.003-.667.049-.389.102m-16.092.223c.277.054.729.054 1.006 0 .276-.053.05-.097-.503-.097s-.779.044-.503.097m2.237.224c.278.054.681.052.894-.004.214-.056-.013-.1-.505-.098s-.667.049-.389.102m-46.662 2.021-.77.838.838-.77c.78-.717.94-.906.77-.906-.038 0-.415.377-.838.838m142.857 1.173c0 .43.046.606.102.391a1.8 1.8 0 0 0 0-.782c-.056-.215-.102-.039-.102.391m-6.085 1.006c.667.676 1.264 1.229 1.325 1.229.062 0-.434-.553-1.102-1.229s-1.264-1.229-1.325-1.229c-.062 0 .434.553 1.102 1.229m-142.92 1.285-.656.726.726-.657c.4-.361.727-.687.727-.726 0-.172-.185-.02-.797.657m17.996 2.569-1.222 1.285 1.28-1.216 1.281-1.217.619.546.619.546-.542-.614c-.7-.795-.616-.822-2.035.67m5.817-.949c-.307.175-.458.319-.335.319s.475-.144.782-.319.458-.32.336-.32c-.123 0-.475.144-.783.32m-25.215 2.724c-.02 1.129.039 2.101.132 2.158.092.057.139-.565.106-1.383-.108-2.593-.201-2.897-.238-.775m119.063.907-1.222 1.285 1.285-1.222c1.194-1.134 1.387-1.348 1.221-1.348-.034 0-.613.578-1.284 1.285m-11.329.726c0 .553.044.779.097.503a3.2 3.2 0 0 0 0-1.006c-.053-.276-.097-.05-.097.503m-101.681 1.284c1.199.04 3.16.04 4.358 0s.218-.073-2.179-.073-3.377.033-2.179.073M8.035 527.43c.926.987 1.127 1.164 1.127.996 0-.035-.478-.513-1.061-1.061l-1.062-.996zm382.791.112-.77.838.838-.77c.461-.424.838-.801.838-.838 0-.171-.189-.01-.906.77m-373.221 4.243c.65.045 1.655.045 2.235-.001s.048-.083-1.181-.082c-1.229 0-1.703.038-1.054.083m196.1.003c30.952.031 81.533.031 112.403 0 30.87-.032 5.546-.057-56.276-.057-61.821 0-87.078.025-56.127.057"/>
    <path d="M14.637.326C7.545 2.157 2.158 7.491.349 14.474c-.615 2.37-.524 506.478.091 508.469 1.935 6.264 6.419 10.798 12.747 12.89l1.455.481 185.137-.056 185.137-.057 1.618-.6c.889-.33 1.842-.757 2.116-.95.275-.192.644-.349.82-.349 1.662 0 8.519-7.022 8.519-8.725 0-.191.099-.447.22-.568.33-.331 1.269-3.149 1.556-4.674.188-.994.237-66.38.188-252.849l-.065-251.508-.48-1.341c-1.489-4.16-2.828-6.43-5.216-8.846-1.33-1.345-4.616-3.78-5.101-3.78-.111 0-.851-.294-1.643-.653s-2.052-.812-2.8-1.006C382.78-.131 16.51-.157 14.637.326m370.224 4.523c4.835 1.846 7.893 4.786 9.604 9.231l.731 1.898.056 251.5c.056 248.227.051 251.52-.377 253.072-1.61 5.848-5.768 9.798-11.523 10.946-1.63.326-17.926.352-184.805.296l-183.016-.06-1.286-.491c-5.408-2.066-8.884-5.772-10.001-10.666l-.464-2.028.066-250.726.065-250.726.506-1.783C5.962 9.878 10.884 5.276 16.089 4.4c.308-.052 83.118-.083 184.023-.068l183.463.026zM146.788 153.163c-5.215 1.495-6.645 2.614-8.603 6.732-2.508 5.278-2.266 8.518 1.079 14.407 2.21 3.889 2.83 5.725 2.91 8.61l.061 2.191-2.035.589c-1.119.324-2.779.951-3.687 1.394-.909.443-2.357 1.029-3.217 1.302-6.395 2.028-9.059 4.296-13.512 11.5a532 532 0 0 1-2.618 4.207c-2.344 3.667-7.288 12.834-9.601 17.804-2.481 5.332-1.852 7.781 3.456 13.451a173 173 0 0 1 3.874 4.315c2.104 2.441 7.463 7.941 10.468 10.744a64 64 0 0 1 3.442 3.51l1.542 1.738-.262 6.417c-.144 3.53-.323 7.428-.397 8.663l-.134 2.246 2.451.94 2.452.939.147 3.519c.131 3.129-.091 10.05-.41 12.792-.065.553-.221 3.129-.347 5.724-.127 2.595-.376 5.813-.554 7.151-.238 1.789-.325 4.917-.329 11.818-.006 12.353-.206 15.618-1.695 27.709a249 249 0 0 1-2.679 16.84c-.494 2.526-.615 2.321 2.145 3.632 2.899 1.376 2.882 1.173.304 3.619-1.904 1.807-2.154 1.968-3.911 2.525-3.21 1.018-4.052 2.216-3.952 5.623l.064 2.17 1.564.29c1.073.198 3.214.269 6.816.225 6.319-.076 6.005.037 9.626-3.461l2.458-2.375.88.859.879.859 2.073-.972 2.113-.993c.065-.032-.557-4.062-1.019-6.606-.499-2.747-.612-2.541 1.634-2.998.975-.198 1.79-.384 1.812-.413.021-.029.152-4.779.291-10.555.252-10.493.328-12.118 1.158-24.917.244-3.748.547-8.474.675-10.502.267-4.25.925-10.144 1.546-13.855.481-2.879 1.027-6.768 1.249-8.9.188-1.797.444-2.733.622-2.273.21.542 1.604 5.409 2.688 9.385 1.238 4.541 1.981 7.911 2.609 11.844.265 1.659.818 4.877 1.228 7.151s.813 4.687.894 5.363.487 3.29.903 5.81a257 257 0 0 1 1.319 9.273c.31 2.581.809 6.302 1.11 8.269.3 1.966.697 4.869.883 6.451.397 3.393.218 3.13 2.219 3.269l1.603.112.185 3.463c.103 1.905.219 3.497.26 3.537s1.767.263 3.837.493c2.069.231 4.089.468 4.489.527l.726.108v-.991c0-.546.089-.992.199-.992.109 0 1.14.192 2.29.427 5.065 1.034 6.199.906 13.722-1.56 3.067-1.005 5.651-1.871 5.742-1.924.292-.168-.712-1.848-1.647-2.755-1.55-1.504-2.782-1.945-6.498-2.326-4.305-.441-8.076-1.473-7.686-2.103.057-.093 1.267-.954 2.689-1.913s2.642-1.835 2.712-1.947c.069-.112-.479-1.787-1.218-3.722-3.727-9.759-5.464-15.756-8.174-28.21a494 494 0 0 0-1.815-7.821c-1.985-8.271-2.871-14.905-4.144-31.031-.291-3.692-.426-3.421 1.888-3.811a92 92 0 0 0 3.215-.612l1.611-.341-.567-1.488c-4.269-11.219-4.332-11.486-3.551-15.046 1.086-4.951 1.863-6.937 6.149-15.716 1.14-2.335 2.859-5.704 3.82-7.486 3.286-6.094 3.629-9.204 1.414-12.849-1.71-2.816-7.023-13.62-7.023-14.283 0-.267-2.794-6.634-4.078-9.293-2.042-4.228-4.486-7.407-6.872-8.939-2.088-1.34-10.088-4.208-14.613-5.24l-.648-.148.131-2.308c.109-1.924.263-2.647.927-4.345l1.597-4.087c2.511-6.425 2.263-11.061-.837-15.649-2.192-3.244-10.421-5.955-14.517-4.78m99.638 22.731c-5.172.722-10.792 4.808-12.41 9.022-1.34 3.493-2.467 14.752-1.726 17.247.378 1.273 2.521 3.774 4.58 5.344 1.439 1.097 1.605.902-2.066 2.419-1.751.724-4.115 1.753-5.252 2.287-1.138.534-2.179.971-2.313.971-.748 0-4.224 1.995-5.24 3.008-1.927 1.922-3.977 6.526-7.023 15.779-.867 2.634-2.042 6.197-2.612 7.917-1.858 5.619-1.717 7.602.766 10.778 3.852 4.924 6.982 9.501 10.574 15.457l1.94 3.218-.62 1.922c-.639 1.979-2.156 6.927-3.329 10.86-1.269 4.256-2.701 10.524-3.481 15.244-.953 5.765-.958 5.286.054 5.708 4.866 2.028 6.386 2.608 7.483 2.853 1.506.337 1.269-.424 2.073 6.665.557 4.916 2.17 14.368 3.024 17.721.24.941.641 2.953.892 4.47.543 3.29 2.27 11.933 2.903 14.537.539 2.213 1.315 6.861 1.489 8.911.215 2.551-1.036 6.954-4.313 15.176-1.878 4.712-.902 7.941 2.484 8.222 2.189.181 3.864-.849 7.264-4.465 8.908-9.476 10.136-13.903 5.542-19.987-2.716-3.599-3.068-12.135-1.042-25.334 1.133-7.383.843-12.001-1.048-16.681-1.441-3.566-1.433-3.514-.494-3.305.4.09 1.516.276 2.482.416l1.755.253.059 3.904.059 3.904.948 2.793c.522 1.537 1.203 3.397 1.513 4.135 1.133 2.69 4.575 12.362 7.349 20.648.775 2.317.777 2.332.555 4.581-.444 4.504.124 6.71 2.626 10.19a593 593 0 0 1 3.014 4.245c6.137 8.732 9.999 5.965 8.305-5.951-.442-3.103-.862-4.067-3.014-6.903-4.069-5.365-5.294-12.225-3.9-21.837 1.088-7.502-.989-15.391-5.045-19.163-2.54-2.363-2.461-2.572 1.227-3.244 6.467-1.178 14.753-3.938 20.429-6.803 1.569-.792 1.567-.784.712-2.856l-.646-1.568.994-1.088c1.315-1.441 3.388-4.132 4.399-5.713l.813-1.272-1.619-1.857c-1.813-2.081-4.01-4.713-6.324-7.573a172 172 0 0 0-2.605-3.144l-1.055-1.226 1.297-3.672c1.979-5.602 5.249-16.282 5.948-19.426 1.139-5.122.102-11.825-3.508-22.681-4.745-14.272-7.862-17.602-19.638-20.975-2.295-.658-2.945-1.476-1.487-1.873 3.771-1.027 4.924-5.366 3.402-12.812-.312-1.527-.721-3.87-.908-5.207-1.138-8.116-5.906-13.473-12.562-14.115-.7-.068-1.525-.153-1.832-.188s-1.136.015-1.842.114m-75.265 36.676a53 53 0 0 1 4.106 5.133 69 69 0 0 0 2.19 2.905c.622.772 1.325 1.78 1.562 2.24l.431.838-2.259 4.637c-1.242 2.551-2.305 4.685-2.362 4.743-.711.717-4.246-12.765-4.658-17.759-.07-.86-.183-2.092-.25-2.737-.066-.645-.056-1.173.024-1.173.079 0 .626.528 1.216 1.173m-40.809 14.413c.07 4.578.042 8.324-.062 8.324-.234 0-7.162-10.415-7.162-10.766 0-.25.453-1.015 2.355-3.982.513-.799 1.461-2.308 2.108-3.352a127 127 0 0 1 1.765-2.776l.588-.877.141 2.553c.078 1.404.198 6.298.267 10.876m138.287 11.398c2.516 5.171 2.473 4.894 1.66 10.669-.19 1.352-.348 3.209-.351 4.125-.005 2.025-.636 7.419-.899 7.692-.429.443-2.007-6.045-2.821-11.593-.686-4.68-.311-14.42.555-14.412.079 0 .915 1.584 1.856 3.519m-38.794 4.412c.153 5.372-.012 11.294-.314 11.277-.147-.009-.418-.381-2.755-3.791l-1.303-1.899.543-2.346c.933-4.034 3.036-9.482 3.483-9.021.103.107.259 2.708.346 5.78"/>
  </g>
</svg>
