<svg xmlns="http://www.w3.org/2000/svg" viewBox="0 0 960 960" role="img" aria-labelledby="title">
  <title id="title">Verkehrszeichen 52.6d-1 - 6d: Fahrverbot für Kraftfahrzeuge mit Anhänger</title>
  <path d="M359.628 212.728c0-265.078 214.904-479.993 480-479.993s480 214.915 480 479.993c0 265.092-214.905 480.007-480 480.007s-480-214.915-480-480.007" style="fill:#ee1c23;fill-rule:nonzero;stroke:none" transform="translate(-359.628 267.265)"/>
  <path d="M839.628 568.644c196.567 0 355.907-159.351 355.907-355.916s-159.34-355.916-355.907-355.916c-196.568 0-355.922 159.351-355.922 355.916S643.06 568.644 839.628 568.644" style="fill:#fff;fill-rule:nonzero;stroke:none" transform="translate(-359.628 267.265)"/>
  <path d="M882.257 414.25c47.338 0 85.715-38.376 85.715-85.713s-38.377-85.714-85.715-85.714-85.715 38.377-85.715 85.714 38.377 85.714 85.715 85.714" style="fill:#000;fill-rule:nonzero;stroke:none" transform="translate(-359.628 267.265)"/>
  <path d="M681.382 42.81v273.609H580.945v-10.387h-13.85v20.774h214.794c.928-54.65 45.496-98.677 100.368-98.677s99.44 44.027 100.368 98.677h95.313V42.81z" style="fill:#000;fill-rule:nonzero;stroke:none" transform="translate(-359.628 267.265)"/>
</svg>
