<svg xmlns="http://www.w3.org/2000/svg" viewBox="0 0 967.373 960.623" role="img" aria-labelledby="title">
  <title id="title">Verkehrszeichen 53.27 - 27: Radweg ohne Benützungspflicht</title>
  <path d="M585.881 759.863c6.569 0 12.743-2.026 17.388-5.708 4.645-3.666 7.205-8.558 7.205-13.76v-921.69c0-5.201-2.56-10.09-7.205-13.76-4.645-3.678-10.819-5.706-17.388-5.706h-918.186c-13.565 0-24.593 8.733-24.593 19.466v921.69c0 5.202 2.548 10.094 7.205 13.76 4.645 3.682 10.82 5.708 17.388 5.708z" style="fill:#fff;fill-rule:nonzero;stroke:none;fill-opacity:1" transform="translate(356.898 200.76)"/>
  <path d="M-332.305 753.443c-4.402 0-8.538-1.361-11.654-3.827-3.116-2.458-4.83-5.732-4.83-9.222v-921.69c0-3.476 1.714-6.76 4.83-9.218 3.116-2.468 7.252-3.825 11.654-3.825H585.88c4.403 0 8.538 1.357 11.654 3.825 3.117 2.458 4.83 5.742 4.83 9.219v921.69c0 7.196-7.39 13.048-16.484 13.048z" style="fill:#176fc1;fill-rule:nonzero;stroke:none;fill-opacity:1" transform="translate(356.898 200.76)"/>
  <path d="M510.02 234.61c-31.08-31.078-72.414-48.204-116.37-48.204-21.051 0-41.18 4.023-59.703 11.264l-38.122-84.77 15.395-24.411c26.988 5.46 53.63 10.776 55.08 10.776 15.084 0 27.308-12.227 27.308-27.299S381.384 44.681 366.3 44.681l-112.557.1h-.014c-8.795 0-15.911 7.141-15.911 15.935 0 8.793 7.116 15.92 15.911 15.92v.157s16.715 3.42 37.26 7.601l-12.367 19.598H-11.26c7.518-22.515 12.469-37.4 12.469-37.4.086-.258.114-.517.172-.775.072-.274.157-.56.186-.834.043-.287.03-.56.03-.833.013-.287.042-.56.027-.833-.028-.274-.086-.547-.143-.82-.043-.259-.072-.531-.144-.776-.057-.272-.172-.516-.272-.761-.1-.259-.172-.517-.287-.761-.13-.23-.287-.446-.417-.676-.142-.23-.272-.474-.444-.703-.157-.202-.358-.389-.545-.59-.186-.2-.345-.416-.56-.604-.2-.186-.445-.33-.66-.488-.23-.173-.43-.345-.674-.489-.244-.143-.517-.243-.789-.358-.23-.115-.459-.245-.718-.345l-47.275-16.437 14.161-37.156L76.836 1.09l33.73 30.503c3.459 3.132 8.796 2.86 11.924-.604 3.128-3.447 2.855-8.793-.602-11.925l-36.186-32.73-2.453-2.213-3.3.044-123.032 1.365-5.74.057-24.448 64.152 8.221 2.86 47.606 16.566-42.828 128.492c-18.839-7.357-39.07-11.25-59.901-11.25-90.765 0-164.583 73.836-164.583 164.583 0 43.966 17.116 85.289 48.194 116.38 31.091 31.078 72.427 48.205 116.389 48.205 43.96 0 85.283-17.127 116.374-48.205 31.077-31.091 48.209-72.414 48.209-116.38S27.278 265.702-3.8 234.61a165.3 165.3 0 0 0-41.006-29.97c3.989-11.955 8.02-24.052 11.952-35.848L92.36 302.455c-8.637 10.633-13.832 24.152-13.832 38.894 0 16.509 6.428 32.026 18.107 43.707 11.68 11.68 27.203 18.104 43.718 18.104 2.467 0 4.907-.188 7.317-.475l3.085 13.764h-20.058v19.297h55.497V416.45h-25.553l-3.501-15.632a61.5 61.5 0 0 0 26.93-15.76c9.097-9.097 14.95-20.533 17.117-32.947l27.936 1.063c.56 43.147 17.576 83.622 48.15 114.196 31.078 31.078 72.414 48.205 116.377 48.205 43.956 0 85.291-17.127 116.37-48.205 31.09-31.091 48.214-72.414 48.214-116.38s-17.124-85.287-48.214-116.38zm-534.293 20.474c25.624 25.618 39.728 59.684 39.728 95.905 0 74.785-60.849 135.634-135.629 135.634-36.228 0-70.29-14.11-95.915-39.728-25.61-25.618-39.728-59.67-39.728-95.906 0-36.221 14.118-70.287 39.728-95.905 25.626-25.618 59.687-39.727 95.915-39.727 17.662 0 34.822 3.377 50.733 9.799l-29.8 89.396c-2.267 6.15-11.163 23.751-23.903 28.535a8.436 8.436 0 0 0-4.935 10.862c1.635 4.368 6.5 6.58 10.86 4.943 22.684-8.505 33.474-37.558 33.918-38.793.03-.087 13.244-39.698 29.198-87.587a136 136 0 0 1 29.83 22.572M318.55 204.61c-48.954 25.215-83.69 74.239-88.798 131.681l-27.878-1.063c-1.377-14.196-7.59-27.371-17.805-37.6-.976-.964-1.994-1.84-3.012-2.731L285.02 130.041zm11.852 26.336 49.955 111.093-121.68-4.641c3.086-31.093 16.672-59.929 39.069-82.314 9.771-9.77 20.776-17.86 32.656-24.138m-202.089 85.187L114.67 301.58a46.4 46.4 0 0 1 9.34-4.641zm5.05-21.58c2.296-.33 4.621-.56 6.988-.56 5.754 0 11.321 1.063 16.558 3.016l-16.974 26.897zm39.86 12.758c.2.188.415.36.601.546 7.36 7.356 11.938 16.71 13.358 26.825l-30.488-1.164zM-17.688 123.288h284.142l-101.696 161.25a61.8 61.8 0 0 0-24.406-5.014c-3.458 0-6.829.359-10.144.905l-6.873-30.747h21.839v-19.31H89.69v19.31h23.76l7.39 33.045a61.3 61.3 0 0 0-16.142 8.205l-131.483-140.36zm158.04 265.402c-12.64 0-24.535-4.928-33.473-13.864-8.953-8.952-13.875-20.833-13.875-33.477 0-10.316 3.315-20.087 9.37-28.204l33.2 35.445 8.91 39.885c-1.363.13-2.74.215-4.132.215m13.616-2.025-8.192-36.667 40.79 1.552c-3.715 16.767-16.298 30.216-32.598 35.115m239.681 99.957c-36.227 0-70.291-14.11-95.902-39.727-24.85-24.842-38.825-57.63-39.657-92.615l135.238 5.143 8.35-1.192-.32-10.704-55.545-123.492c15.08-5.675 31.22-8.678 47.836-8.678 36.228 0 70.291 14.11 95.91 39.727 25.61 25.618 39.72 59.684 39.72 95.905 0 74.785-60.833 135.634-135.63 135.634" style="fill:#fff;fill-rule:nonzero;stroke:none" transform="translate(356.898 200.76)"/>
</svg>
