<svg xmlns="http://www.w3.org/2000/svg" viewBox="0 0 960 960" role="img" aria-labelledby="title">
  <title id="title">Verkehrszeichen 52.7b - 7b: Fahrverbot für Lastkraftfahrzeuge mit Anhänger Hinweis: Dieses Zeichen zeigt an, dass das Fahren mit Lastkraftfahrzeugen mit Anhänger verboten ist.</title>
  <path d="M577.143 438.571a374.286 412.857 0 1 1-748.572 0 374.286 412.857 0 1 1 748.572 0" style="opacity:1;fill:#fff;fill-opacity:1;fill-rule:evenodd;stroke:none;stroke-width:.25;stroke-linejoin:round;stroke-miterlimit:4;stroke-dasharray:none;stroke-opacity:1" transform="matrix(1.229 0 0 1.11419 230.687 -8.65)"/>
  <path d="M1061.777-44.833H696.392V128.34h13.842v24.237H524.802c-5.88-14.223-19.874-24.237-36.212-24.237-21.65 0-39.195 17.534-39.195 39.18 0 17.16 11.054 31.702 26.407 37.006H410.66v8.656h651.118v-8.656h-84.2c15.353-5.304 26.407-19.846 26.407-37.006 0-21.646-17.544-39.18-39.18-39.18-21.65 0-39.181 17.534-39.181 39.18 0 17.16 11.04 31.702 26.407 37.006H758.54c11.484-3.393 19.861-14.016 19.861-26.59 0-6.538-2.274-12.535-6.047-17.271h24.466V128.34h264.957zm-319.02 249.36H501.363c15.354-5.305 26.407-19.847 26.407-37.007 0-2.742-.29-5.429-.832-8.018h183.296v1.163h18.71a27.55 27.55 0 0 0-6.047 17.27c0 12.575 8.377 23.198 19.86 26.591" style="fill:#000;fill-rule:nonzero;stroke:none" transform="translate(-315.391 392.98)"/>
  <path d="M571.708-44.833H438.37L415.846 128.34h155.862z" style="fill:#000;fill-rule:nonzero;stroke:none" transform="translate(-315.391 392.98)"/>
  <path d="M315.391 87.014c0-265.078 214.904-479.993 480-479.993s480 214.915 480 479.993c0 265.091-214.904 480.007-480 480.007s-480-214.916-480-480.007m480 355.916c196.569 0 355.912-159.351 355.912-355.916S991.96-268.89 795.391-268.89 439.465-109.55 439.465 87.014 598.822 442.93 795.391 442.93" style="fill:#ee1c23;fill-rule:nonzero;stroke:none" transform="translate(-315.391 392.98)"/>
</svg>
