<svg xmlns="http://www.w3.org/2000/svg" viewBox="0 0 960 960" role="img" aria-labelledby="title">
  <title id="title">Verkehrszeichen 52.6b - 6b: Fahrverbot für Motorräder</title>
  <path d="M679.628 575.63c0-265.088 214.904-480 480-480s480 214.912 480 480c0 265.089-214.905 480-480 480s-480-214.911-480-480" style="fill:#ee1c23;fill-rule:nonzero;stroke:none" transform="translate(-679.628 -95.63)"/>
  <path d="M1159.628 931.553c196.567 0 355.921-159.355 355.921-355.922 0-196.569-159.354-355.923-355.921-355.923-196.568 0-355.922 159.354-355.922 355.923 0 196.567 159.354 355.922 355.922 355.922" style="fill:#fff;fill-rule:nonzero;stroke:none" transform="translate(-679.628 -95.63)"/>
  <path d="M1441.606 635.034c-2.133-19.202-9.03-36.965-19.486-52.085l14.32-20.973-69.594-47.52-14.764 21.609c-7.756-1.66-15.802-2.573-24.057-2.573-5.706 0-11.315.443-16.813 1.245l-3.587-28.235 10.013-5.34c17.312 2.31 21.938 2.31 21.938 2.31 6.925-32.316-5.775-70.415-5.775-70.415s-49.79-1.08-74.622 55.24l-75.73-32.096c.097-.304.208-.65.263-.927 1.731-7.788 6.939-14.72 6.939-14.72 11.246-1.728 21.647 4.621 31.161-2.31-1.73-6.916 6.925-11.537 12.991-9.808 4.335-4.33-4.335-11.26 0-15.59 2.604-1.73 5.402-.872 5.485-1.73.859-8.66-.291-16.449-6.357-23.38 0 0-42.422-51.075-77.06 19.05 0 0-63.195-6.917-67.53 2.6 0 0 5.318 11.276-3.462 10.39-17.312-1.73-58.016 9.532-58.016 9.532v14.72s42.435-7.803 69.275-2.602l-.872 3.459s-48.682 29.273-61.479 40.7c-19.639 17.541-28.475 40.187-31.12 48.143a71 71 0 0 0-13.905-1.384c-54.096 0-100.437 51.947-122.361 121.214-.471 1.466 20.913-2.698 20.982-1.163a99 99 0 0 0 1.053 10.39H869.7v16.173h23.655c13.032 38.804 49.679 66.79 92.876 66.79 42.338 0 78.402-26.88 92.086-64.481h106.559s14.25.775 27.034-15.424c-1.177 11.329-2.728 25.344-3.947 33.893l32.422-8.134c16.093 32.095 49.29 54.146 87.64 54.146 54.097 0 97.958-43.868 97.958-97.96 0-4.315-.276-8.563-.817-12.726zm-295.122-110.492c2.036-12.908 13.656-28.983 18.573-35.319l41.66 18.98c-29.348 6.599-49.5 13.129-60.316 17.03.028-.221.056-.47.083-.691m-131.086 59.638c14.279 6.779 22.575 14.25 34.111 32.718l-42.656.207zm-103.942 70.526a76 76 0 0 1-.332-6.918c0-2.725 4.473-.83 4.764-3.472 4.017-37.684 31.744-65.227 67.17-66.375l-6.453 39.164h-7.617c-14.875 0-26.938 14.25-26.938 31.832 0 1.979.166 3.901.471 5.769zm74.775 68.174c-29.445 0-54.914-16.946-67.227-41.613h134.453c-12.313 24.667-37.782 41.613-67.226 41.613m235.637-117.382-13.725.304c3.435-17.25 15.595-53.911 58.03-79.089l2.437 23.435a114.55 114.55 0 0 0-46.742 55.35m106.157 117.382c-41.48 0-75.106-33.616-75.106-75.092 0-24.97 12.201-47.077 30.94-60.73l45.316 80.348 18.475-6.918-31.175-84.276-.319-2.588a76 76 0 0 1 11.87-.94c41.479 0 75.106 33.616 75.106 75.104 0 41.476-33.627 75.092-75.107 75.092" style="fill:#000;fill-rule:nonzero;stroke:none" transform="translate(-679.628 -95.63)"/>
</svg>
