<svg xmlns="http://www.w3.org/2000/svg" xml:space="preserve" viewBox="0 0 960 960" role="img" aria-labelledby="title">
  <title id="title">Verkehrszeichen 52.9d[2.4] - 9d: Fahrverbot für alle Fahrzeuge mit über ... Tonnen Achslast</title>
  <path fill="#ec1c24" fill-rule="evenodd" d="M481.553 3.133C745.758 3.133 960 217.375 960 481.58 960 745.758 745.758 960 481.553 960 217.375 960 3.133 745.758 3.133 481.58c0-264.205 214.242-478.447 478.42-478.447" clip-rule="evenodd"/>
  <path fill="#fff" fill-rule="evenodd" d="M481.553 125.272c-196.692 0-356.28 159.588-356.28 356.308 0 196.692 159.587 356.28 356.28 356.28 196.72 0 356.308-159.588 356.308-356.28-.001-196.72-159.589-356.308-356.308-356.308" clip-rule="evenodd"/>
  <path fill="#231f20" fill-rule="evenodd" d="m481.434 551.531-52.651-45.716h32.899v-80.09h39.398v80.09h32.98z" clip-rule="evenodd"/>
  <path fill="#231f20" fill-rule="evenodd" d="M438.027 604.84H334.861v-35.244c0-5.591-4.576-11.735-8.176-11.735h-6.104v-31.159c0-14.318-12.301-25.554-27.084-25.554h-1.015c-14.834 0-27.083 11.235-27.083 25.554v58.229h-.514c-7.159 0-12.763 16.322-12.763 36.247 0 19.911 5.604 36.261 12.763 36.261h.514v57.214c0 13.766 12.249 25.515 27.083 25.515h1.015c14.783 0 27.084-11.749 27.084-25.515v-31.198h2.545c5.577 0 11.735-6.091 11.735-11.735V636h103.167c6.145 17.894 23.008 30.63 42.934 30.63 19.87 0 37.236-12.736 43.393-30.63H630.66v35.72c0 5.645 5.59 11.235 10.721 11.735v31.198c0 13.766 12.249 25.515 27.084 25.515h1.014c14.781 0 27.032-11.749 27.032-25.515v-57.214h1.028c7.159 0 12.75-16.35 12.75-36.261 0-19.925-5.591-36.247-12.75-36.247h-1.028v-58.229c0-14.318-12.251-25.554-27.032-25.554h-1.014c-14.835 0-27.084 11.235-27.084 25.554v31.159h-2.545c-4.101 0-8.176 6.145-8.176 11.735v35.244H524.354c-6.156-17.351-23.522-30.116-43.393-30.116-19.925 0-36.789 12.765-42.934 30.116M617.143 359.651c0 10.905 2.545 19.5 7.859 25.54 5.34 6.053 13.713 9.204 25.091 9.204 4.393 0 9.047-.447 13.437-1.385 4.195-.671 8.585-2.016 12.766-3.889l-5.79-16.904c-3.032 1.133-5.828 1.872-8.371 2.32-2.534.422-5.117.687-7.648.687-5.131 0-8.796-1.135-10.653-3.732-2.123-2.334-3.06-5.788-3.06-10.443V294.71h31.553v-18.564h-31.553v-30.143h-23.63v30.143h-15.097v18.564h15.097v64.941zm-25.067-5.077v-19.752h-18.315v-32.674H552.4l-2.532 32.674h-41.786l59.166-105.328h-23.893L485.337 332.04v22.535h64.531v37.554h23.893v-37.554h18.315zM438.963 377.28c.249 4.722 1.331 8.07 3.416 10.442 1.804 2.334 3.651 3.878 4.944 4.406l-14.886 35.468h16.956l20.374-35.468c1.818-3.351 3.11-6.25 3.678-8.836.249-2.399.527-4.457.527-6.012 0-4.958-1.872-9.15-4.971-12.5-3.416-3.165-7.608-4.971-12.566-4.971-4.919 0-9.112 1.807-12.527 4.971-3.086 3.35-4.945 7.542-4.945 12.5m-89.216-165.771c9.257-.316 17.379 1.688 24.052 5.788 6.407 4.338 9.877 12.46 10.14 24.354-.263 11.893-4.614 22.019-13.028 30.459-8.438 8.371-18.01 16.798-28.705 25.237-11.01 8.374-20.584 18.553-29.009 30.394-8.135 11.893-12.46 27.306-13.028 46.452v17.934h112.198V366.31h-81.752c.265-13.028 4.603-24.025 13.028-32.728 8.135-8.993 17.696-17.404 28.707-25.54 10.759-8.108 20.319-17.683 28.704-28.125 8.111-10.708 12.5-24.052 13.068-40.585-.303-16.812-5.777-29.591-16.852-38.887-10.708-9.269-26.056-13.923-46.057-14.175-11.908.251-22.351 2.269-31.343 6.04-9.006 4.089-16.549 8.135-22.6 12.777l12.46 20.319c6.355-4.073 12.776-7.541 19.132-10.178 6.104-2.283 13.028-3.719 20.885-3.719" clip-rule="evenodd"/>
</svg>
