<svg xmlns="http://www.w3.org/2000/svg" viewBox="0 0 960 960" role="img" aria-labelledby="title">
  <title id="title">Verkehrszeichen 52.17a-d - 17a/d: Ende des Geh- und Radweges (getrennt geführter Weg)</title>
  <path d="M839.628-107.266c0-265.095 214.904-480 480-480s480 214.905 480 480-214.905 480-480 480-480-214.904-480-480" style="fill:#176fc1;fill-rule:nonzero;stroke:none" transform="translate(-839.628 587.265)"/>
  <path d="M1271.21-124.037c-16.066-16.066-37.436-24.916-60.163-24.916a84.6 84.6 0 0 0-30.843 5.817l-19.708-43.806 7.95-12.617c13.96 2.825 27.726 5.567 28.474 5.567 7.797 0 14.113-6.315 14.113-14.113 0-7.783-6.316-14.099-14.113-14.099l-58.182.056a8.23 8.23 0 0 0-8.227 8.227 8.22 8.22 0 0 0 8.227 8.226v.083s8.642 1.773 19.25 3.934l-6.384 10.138H1001.78c3.878-11.648 6.44-19.335 6.44-19.335.042-.138.055-.263.097-.401.028-.152.07-.291.097-.43.014-.152 0-.29.014-.443 0-.138.014-.277 0-.415 0-.139-.042-.291-.07-.43-.013-.138-.027-.276-.069-.401-.041-.139-.097-.263-.138-.402-.056-.124-.097-.263-.153-.388a3 3 0 0 0-.221-.346 3 3 0 0 0-.222-.36 3 3 0 0 0-.277-.305c-.097-.11-.18-.221-.29-.318-.111-.097-.236-.166-.347-.25s-.221-.18-.346-.249c-.125-.083-.277-.124-.402-.194-.124-.055-.249-.124-.374-.166l-24.43-8.503 7.312-19.21 58.903-.65 17.436 15.774a4.374 4.374 0 0 0 6.163-.319 4.36 4.36 0 0 0-.304-6.163l-18.697-16.91-1.274-1.15-1.704.014-63.597.707-2.964.041-12.631 33.156 4.238 1.482 24.61 8.56-22.145 66.408a85.1 85.1 0 0 0-30.954-5.817c-46.908 0-85.064 38.17-85.064 85.078 0 22.714 8.85 44.084 24.915 60.15 16.066 16.065 37.422 24.915 60.15 24.915 22.713 0 44.083-8.85 60.148-24.916 16.066-16.065 24.916-37.435 24.916-60.149 0-22.727-8.85-44.083-24.916-60.162a85.4 85.4 0 0 0-21.19-15.484c2.064-6.191 4.141-12.437 6.177-18.531l64.72 69.082c-4.46 5.498-7.147 12.492-7.147 20.11 0 8.53 3.324 16.55 9.349 22.588 6.038 6.039 14.057 9.363 22.602 9.363a31 31 0 0 0 3.781-.25l1.593 7.105h-10.36v9.986h28.669v-9.986h-13.199l-1.814-8.074a31.67 31.67 0 0 0 13.919-8.144c4.709-4.695 7.728-10.609 8.85-17.035l14.431.554c.29 22.298 9.1 43.225 24.888 59.027 16.08 16.066 37.435 24.916 60.149 24.916 22.727 0 44.097-8.85 60.162-24.916 16.066-16.065 24.916-37.435 24.916-60.149 0-22.727-8.85-44.083-24.916-60.162m-276.162 10.58c13.24 13.24 20.54 30.858 20.54 49.582 0 38.655-31.453 70.093-70.108 70.093-18.724 0-36.327-7.285-49.567-20.525s-20.54-30.843-20.54-49.568 7.3-36.341 20.54-49.581 30.843-20.525 49.567-20.525c9.141 0 18.005 1.745 26.218 5.055L956.297-82.71c-1.163 3.171-5.762 12.27-12.354 14.75a4.35 4.35 0 0 0-2.548 5.609 4.373 4.373 0 0 0 5.623 2.562c11.716-4.404 17.298-19.417 17.52-20.054.027-.042 6.841-20.525 15.095-45.275a70.6 70.6 0 0 1 15.415 11.662m177.192-26.078c-25.303 13.032-43.252 38.363-45.898 68.057l-14.403-.54c-.72-7.354-3.92-14.155-9.21-19.445-.499-.499-1.025-.956-1.551-1.413l53.736-85.203zm6.122 13.614 25.83 57.407-62.892-2.396c1.593-16.066 8.615-30.968 20.179-42.546a70.6 70.6 0 0 1 16.883-12.465m-104.454 44.028-7.036-7.52c1.51-.998 3.13-1.787 4.82-2.41zm2.617-11.149c1.191-.18 2.396-.305 3.615-.305 2.964 0 5.845.554 8.545 1.565l-8.766 13.905zm20.595 6.579c.11.11.221.193.318.29a24.27 24.27 0 0 1 6.897 13.864l-15.747-.61zm-98.665-95.106h146.861l-52.559 83.347a31.9 31.9 0 0 0-12.617-2.603c-1.787 0-3.532.193-5.249.47l-3.545-15.899h11.287v-9.972l-28.683 9.972h12.285l3.823 17.09a31.6 31.6 0 0 0-8.352 4.238l-67.96-72.544c1.648-4.93 3.227-9.68 4.71-14.099m81.685 137.18c-6.537 0-12.686-2.548-17.312-7.173-4.612-4.626-7.16-10.762-7.16-17.299a24.28 24.28 0 0 1 4.847-14.583l16.44 17.561.706.762 4.612 20.622c-.706.055-1.413.11-2.133.11m7.036-1.052-4.238-18.946 21.079.803c-1.911 8.656-8.42 15.609-16.841 18.143m123.87 51.66c-18.724 0-36.327-7.286-49.567-20.526-12.839-12.838-20.054-29.79-20.484-47.878l69.9 2.66 4.32-.61-.18-5.54-28.71-63.82a70.1 70.1 0 0 1 24.722-4.486c18.738 0 36.341 7.284 49.581 20.525s20.525 30.857 20.525 49.581c0 38.655-31.438 70.093-70.106 70.093M1704.883 15.456s0-21.162-5.291-43.21c-3.947-16.44-13.282-32.367-17.77-39.417-.525-1.33-1.329-2.604-2.506-3.78l-8.213-1.649c11.565-5.498 19.57-17.298 19.57-30.982 0-18.932-15.346-34.291-34.278-34.291-18.946 0-34.292 15.359-34.292 34.291 0 11.842 2.244 23.822 11.357 29.985 2.964 1.994 7.34 3.088 11.87 3.67l-6.58.734s.513 0-.401 2.022c-4.515 1.26-14.528 2.742-33.1-.263-18.171-2.922-24.64-15.193-26.952-23.101a28.6 28.6 0 0 0 4.03-4.515c5.872-8.24 2.355-19.985-5.29-25.276-2.66-1.842-4.668-3.975-6.163-5.955 3.033-5.484 4.404-9.916 4.404-9.916-6.468-18.226-22.34-64.664-22.34-64.664-4.113-39.375-4.113-88.749-4.113-88.749s1.066-8.49-10.581-15.871c-27.935-17.714-49.526-24.888-57.92-27.242l-.913-11.205c7.45-6.024 13.115-15.774 16.19-26.259.152-.54.29-1.08.43-1.62 7.838 1.205 13.655 1.953 15.76 1.953 8.822 0 7.936-7.05-3.532-13.227-3.365-1.8-6.273-3.157-9.334-4.265.872-4.903 3.088-17.395 4.487-24.376 1.773-8.822-8.808-11.024-17.63-8.822-8.823 2.202-20.276-3.088-25.124-6.177s-7.492-1.759-11.467 2.646c-3.255 3.614-9.155 20.802-11.19 26.923l-20.553-.914s-18.517 6.177-3.518 10.581c3.78 1.122 11.356 2.798 20.691 4.681a43 43 0 0 0-.803 4.252c-1.87 13.794 3.005 26.675 11.73 34.167l-2.035 7.95c-5.166 2.327-16.758 7.783-41.937 20.373-22.132 11.065-30.082 18.724-32.74 23.392l-.472-1.053c.014-.014-17.034 74.054-17.63 114.62-.582 40.551-.582 78.762-.582 78.762h9.75c-1.897 9.792-3.005 19.584-.941 29.39.595 4.112 4.113 8.808 8.24 9.985 5.277 1.177 5.277-.582 10.567-.582 0-1.177 8.587-4.75 8.823-5.29 1.759-4.114 3.531-10.582-2.355-18.808-3.213-4.515-4.113-5.886-5.872-11.177-.277-1.08-1.177-2.299-2.12-3.518h6.233s0-2.95 2.936-48.21c2.826-43.557 2.937-40.843 12.382-71.492l1.731 3.906c18.212 66.422 3.518 79.344-2.936 99.33-1.233 3.794-3.532 27.63 1.759 29.388 1.842.623 3.96 1.122 6.315 1.537-.65 14.46-.637 40.524 3.089 83.112 6.468 74.054 18.226 110.215 15.871 128.427 0 0-32.92-.872-24.693 19.694 8.226 20.581 27.048 29.985 27.048 29.985l4.695-.596 2.354 5.886 9.986 5.873s8.24 2.936 12.936-3.532c4.708-6.454 3.531-11.163 3.531-11.163l3.518-15.276s0-67.018-7.631-105.811c-7.645-38.793-4.113-59.955-1.177-76.408 1.094-6.122 3.407-10.706 5.872-14.03 5.221 11.745 11.481 24.68 18.835 38.059 1.427 26.813 4.668 94.897 2.327 122.915a173 173 0 0 0-.374 5.568l-7.853 5.9s-.886 9.694 1.76 11.453c2.644 1.773 3.53 8.822 3.53 8.822s8.823 8.809 15.873 20.276 21.162 10.581 26.452 8.823c5.29-1.773 4.404 5.29 3.518-12.354-.65-13.033-8.047-26.051-11.855-31.965 6.814-.817 12.7-1.98 13.628-3.587 2.05-3.587 1.856-101.49 1.786-126.489.36-.332.554-.485.554-.485s4.322-61.464-23.211-99.703c6.315-1.122 11.37-1.8 13.808-4.335 5.373-5.567 2.354-14.099 2.354-14.099s-1.703-2.174-8.227-22.34c-13.517-41.728 1.76-87.584 1.76-87.584s5.29 38.793 9.999 53.487c4.695 14.694 27.63 59.373 27.63 59.373a30 30 0 0 0 4.224-2.243c-.083 2.95-.277 6.107-.707 8.711-1.177 7.05-1.177 8.808 4.71 14.099a8.4 8.4 0 0 0 3.35 1.87c-.664 8.379-.318 24.694 9.571 40.164 4.972 7.77 22.88 13.946 37.034 17.755-27.062 34.222-53.778 53.667-53.778 53.667 0-.014 5.373 10.733 18.087 20.94-2.09 19.182-5.692 57.878-3.102 76.035 3.532 24.694 6.177 6.177 7.936 18.517.042.29.097.582.139.873-3.075-.444-5.956.152-8.144 1.952-5.304 4.39-4.446 14.182 1.925 21.883 6.37 7.686 15.83 10.373 21.134 5.983 1.427-1.191 2.396-2.784 2.95-4.598l.513.36s2.645-9.695.886-22.035c-1.676-11.675-4.127-28.087 10.526-76.062.374 12.465 1.662 27.256 5.332 34.61 7.063 14.113 11.468 14.113 16.758 22.049 3.726 5.581 3.075 15.511 2.368 20.913-7.603 5.996-11.052 12.866-9.417 16.12 5.595 11.205 14.459 5.111 23.489-1.19 5.913-4.128 9.708-9.695 10.54-14.64l.36-.041s13.212 3.532-6.178-26.453c-11.384-17.589-10.58-25.566-6.177-41.438 2.078-7.479 3.961-13.17 5.36-17.132 4.238-.817 8.6-1.842 13.157-3.144 0 0-7.936-20.29-5.29-43.21 1.038-8.989 4.113-21.218 7.465-32.783 13.35 6.731 16.12 22.95 13.697 31.024a296 296 0 0 1-5.027 15.179c-5.651 1.8-9.82 8.13-9.82 15.677 0 8.961 5.859 16.205 13.088 16.205 7.23 0 13.088-7.244 13.088-16.205 0-2.534-.485-4.93-1.33-7.077 12.146-9.639 13.808-22.893 13.808-22.893M1312.703-577.446v940.361a6.927 6.927 0 0 0 6.925 6.925 6.927 6.927 0 0 0 6.925-6.925v-940.361c0-3.837-3.103-6.939-6.925-6.939-3.823 0-6.925 3.102-6.925 6.939" style="fill:#fff;fill-rule:nonzero;stroke:none" transform="translate(-839.628 587.265)"/>
  <path d="M943.292 190.654a482.5 482.5 0 0 0 78.361 78.43l674.324-674.366a482.8 482.8 0 0 0-78.416-78.333z" style="fill:#ee1c23;fill-rule:nonzero;stroke:none" transform="translate(-839.628 587.265)"/>
</svg>
