<svg xmlns="http://www.w3.org/2000/svg" viewBox="0 0 960 960" role="img" aria-labelledby="title">
  <title id="title">Verkehrszeichen 52.8a - 8a: Fahrverbot für Fahrräder und Motorfahrräder</title>
  <path d="M1308.2-855.836c-265.096 0-480 214.915-480 480.006 0 265.078 214.904 479.994 480 479.994s480-214.916 480-479.994c0-265.091-214.905-480.006-480-480.006" style="fill:#ee1c23;fill-rule:nonzero;stroke:none" transform="translate(-828.2 855.837)"/>
  <path d="M1308.2-731.746c191.803 0 348.15 151.735 355.602 341.707h-711.22c7.452-189.972 163.8-341.707 355.617-341.707M1308.2-19.927c-191.818 0-348.166-151.734-355.617-341.707h711.219c-7.451 189.973-163.8 341.707-355.603 341.707" style="fill:#fff;fill-rule:nonzero;stroke:none" transform="translate(-828.2 855.837)"/>
  <path d="M1483.646-210.786c-13.836-13.836-32.242-21.467-51.811-21.467-3.615 0-7.16.291-10.637.804l-17.672-39.651 4.03-6.274c1.676.235 2.895.415 3.49.499a13.6 13.6 0 0 0 6.593 1.661c11.8-.013 13.808-3.476 13.836-13.821.013-7.645-6.191-13.836-13.836-13.836-1.648 0-3.213.305-4.681.845l-.07-.097c-25.58 8.794-48.736 8.31-48.736 8.31-3.601 0-6.51 2.908-6.51 6.495 0 3.6 2.909 6.51 6.51 6.51 7.298-.485 19.361.553 29.485 1.689l-55.426 86.268-.706-.139c-15.345 7.673-33.752.776-33.752.776s-9.971 3.06-23.004-28.377c-15.816-38.156-29.14-44.485-46.008-50.62-5.983-2.174-12.534-3.753-18.6-4.487l3.545-14.64c.222-.9.056-1.855-.443-2.658a3.37 3.37 0 0 0-2.216-1.524l-15.65-3.268v-14.764l46.147-17.74 21.716 14.61c3.463 2.3 8.545-.124 9.944-1.426 1.76-1.648 4.252-8.171 1.565-10.082l-7.95-5.388-19.652-6.121c-.886-.471-5.678 1.025-6.606 1.385l-49.859 19.181a3.45 3.45 0 0 0-2.216 3.213v19.943a3.45 3.45 0 0 0 2.756 3.38l14.916 3.102-2.991 12.312c-5.319-.028-9.778.873-12.479 2.88-2.299-8.129-12.354-15.081-20.705-15.248l-.692 34.693c7.104.139 15.594-3.351 19.583-9.071.61 1.537 1.44 3.074 2.41 4.543l-5.942 25.649c-9.958-1.496-20.206-1.025-30.109 1.648a73 73 0 0 0-23.697 11.3l3.006 4.17c-14.764 10.65-24.486 26.41-27.395 44.373-2.908 17.977 1.344 35.995 11.994 50.758s26.411 24.5 44.388 27.408c17.963 2.909 29.846 2.188 50.745-12.007 22.866-15.525 27.38-41.798 27.38-41.798l5.042.983c4.058-22.062-1.399-41.45-12.852-57.322-8.546-11.855-20.027-20.345-32.713-25.303l3.407-10.373 93.595 73.97c-.221 1.066-.637 1.301-.65 2.437 0 .221-.471 2.562-.471 3.254 0 6.371 1.87 11.232 5.553 14.445 5.263 4.598 12.354 4.1 13.698 3.961l44.374 1.773c3.213 10.567 9.002 20.248 17.021 28.28 12.88 12.867 29.984 19.958 48.197 19.958 18.198 0 35.316-7.091 48.182-19.957 12.867-12.867 19.958-29.984 19.958-48.183h5.138c0-19.583-7.617-37.975-21.467-51.824m-335.715 5.429c11.482-8.282 25.4-11.814 39.389-10.04l-11.759 50.826-45.69-18.766c3.948-8.71 10.097-16.273 18.06-22.02m64.927 90.007c-24.818 17.908-59.567 12.27-77.474-12.533-8.67-12.022-12.133-26.702-9.778-41.34a57.4 57.4 0 0 1 2.174-8.754l46.466 19.085-.748 3.213c-.014.083-.014.166-.028.263a2.6 2.6 0 0 0-.055.47c-.014.14-.014.292-.014.444s.014.29.041.443c.014.153.042.305.07.443.041.139.069.277.124.416.042.152.097.277.153.415.069.139.124.263.194.402.083.125.152.25.235.36.083.125.18.25.277.36a7 7 0 0 0 .305.319q.145.146.332.29c.11.097.236.18.374.264.11.083.235.152.374.221.138.083.29.139.443.194.07.042.139.083.222.11l.207.042c.07.014.125.056.194.07.083.014.167.014.25.027.166.028.318.056.484.056.139.014.291.014.443.014s.291-.014.444-.028l.443-.083c.138-.042.277-.07.415-.125.153-.041.277-.097.416-.152.138-.07.263-.125.402-.194.124-.083.249-.152.36-.235.124-.084.249-.18.36-.277s.207-.194.318-.305q.146-.145.291-.333c.097-.11.18-.235.263-.36.083-.124.153-.249.222-.387.07-.139.138-.291.194-.43.027-.083.083-.152.11-.235l1.538-4.695h51.922a56 56 0 0 1-.65 6.412c-2.37 14.625-10.291 27.464-22.313 36.133m12.534-77.473c6.26 8.683 9.792 18.738 10.401 29.167h-49.997l15.761-48.003c9.473 3.892 17.7 10.332 23.835 18.836m206.443-21.633c14.819 0 28.751 5.775 39.236 16.26 9.168 9.167 14.736 20.995 15.982 33.736l-30.206.623c-1.288-6.689-6.73-11.91-13.545-12.866l-9.64-21.203c.79-1.62.901-3.546.112-5.318l-4.972-11.149a55 55 0 0 1 3.033-.083m-9.626 16.384c1.011 2.243 3.172 3.6 5.485 3.711l7.922 17.45-56.188-.36c2.7-7.783 7.16-14.93 13.157-20.926 6.62-6.634 14.625-11.356 23.35-13.96zm-13.545-30.4c-20.899 6.98-37.657 23.129-45.427 43.667a73 73 0 0 0-2.326 7.424l-17.52-.111 51.95-80.88zm-86.81 83.055c-.04 0-2.326.277-5.026-.318.941.18 1.925.29 2.936.304l2.146.014zm.804 0 42.422.263c.11.485.221.97.332 1.44zm109.177 41.95c-14.833 0-28.766-5.775-39.25-16.26-5.443-5.442-9.612-11.827-12.354-18.779l37.699 1.51a2.316 2.316 0 0 0 2.396-2.216c.041-1.274-.942-2.34-2.203-2.382l-39.512-1.593c-.18-.623-.36-1.246-.527-1.884l62.85.402c8.407.055 15.345-6.357 16.12-14.57l30.248-.623c0 .305.014.596.014.9 0 30.594-24.888 55.495-55.481 55.495M1480.544-552.7c-14.21-14.21-33.1-22.035-53.21-22.035a74.9 74.9 0 0 0-27.298 5.152l-17.423-38.764 7.036-11.15c12.34 2.494 24.514 4.917 25.192 4.917 6.883 0 12.479-5.595 12.479-12.478 0-6.897-5.596-12.478-12.479-12.478l-51.479.055a7.27 7.27 0 0 0-7.27 7.271c0 4.03 3.254 7.285 7.27 7.285v.07s7.645 1.564 17.035 3.475l-5.65 8.96h-132.541c3.434-10.29 5.706-17.09 5.706-17.09.027-.124.041-.249.083-.36.028-.124.055-.263.083-.387.014-.125 0-.25.014-.374 0-.139.014-.263 0-.388 0-.125-.042-.25-.056-.374-.027-.11-.041-.235-.069-.36-.028-.11-.083-.221-.125-.346-.041-.11-.083-.236-.138-.346-.055-.097-.125-.208-.18-.305-.07-.11-.125-.222-.208-.319-.069-.097-.166-.18-.25-.277-.082-.083-.151-.193-.248-.277-.097-.083-.208-.138-.305-.221-.11-.07-.208-.153-.319-.222-.11-.069-.235-.11-.346-.166-.11-.042-.221-.11-.332-.152l-21.62-7.52 6.482-16.994 52.102-.568 15.429 13.947a3.87 3.87 0 0 0 5.457-.277 3.87 3.87 0 0 0-.277-5.457l-16.55-14.957-1.122-1.011-1.51.014-56.243.623-2.632.028-11.176 29.333 25.524 8.877-19.583 58.75c-8.614-3.366-17.866-5.139-27.395-5.139-41.493 0-75.245 33.751-75.245 75.244 0 20.11 7.826 39 22.035 53.21 14.224 14.223 33.115 22.048 53.21 22.048 20.11 0 39.001-7.825 53.21-22.049 14.21-14.209 22.05-33.1 22.05-53.209 0-20.095-7.84-38.986-22.05-53.21-5.595-5.58-11.91-10.179-18.738-13.697 1.814-5.47 3.657-10.996 5.457-16.397l57.254 61.117c-3.947 4.861-6.329 11.052-6.329 17.783 0 7.548 2.95 14.653 8.282 19.985 5.346 5.332 12.437 8.282 19.985 8.282 1.136 0 2.244-.084 3.352-.222l1.399 6.288h-9.155v8.822h25.359v-8.822h-11.676l-1.606-7.147a28 28 0 0 0 12.312-7.201c4.169-4.155 6.842-9.39 7.839-15.069l12.77.485c.249 19.736 8.032 38.238 22.006 52.212 14.21 14.224 33.115 22.049 53.21 22.049 20.11 0 39.001-7.825 53.21-22.049 14.21-14.209 22.05-33.1 22.05-53.209 0-20.095-7.84-38.986-22.05-53.21m-244.294 9.362c11.717 11.716 18.171 27.283 18.171 43.847 0 34.194-27.824 62.018-62.019 62.018-16.564 0-32.13-6.454-43.847-18.157-11.717-11.716-18.157-27.297-18.157-43.861s6.44-32.13 18.157-43.847 27.283-18.157 43.847-18.157c8.089 0 15.928 1.537 23.199 4.474l-13.628 40.87c-1.025 2.81-5.097 10.871-10.928 13.045a3.864 3.864 0 0 0-2.257 4.972 3.864 3.864 0 0 0 4.972 2.258c10.373-3.878 15.304-17.174 15.511-17.728l13.351-40.052a62.2 62.2 0 0 1 13.628 10.318M1393-566.411c-22.38 11.522-38.266 33.945-40.593 60.203l-12.755-.485c-.624-6.495-3.463-12.52-8.144-17.187-.443-.443-.914-.845-1.371-1.26l47.532-75.369zm5.416 12.035 22.851 50.8-55.634-2.12c1.4-14.223 7.618-27.408 17.853-37.642a62.5 62.5 0 0 1 14.93-11.038m-92.391 38.958-6.246-6.661a21 21 0 0 1 4.28-2.12zm2.313-9.874a22 22 0 0 1 3.185-.25c2.632 0 5.18.485 7.576 1.371l-7.756 12.299zm18.212 5.83c.097.097.194.166.29.25a21.56 21.56 0 0 1 6.095 12.27l-13.933-.54zm-87.28-84.135h129.909l-46.493 73.734a28.2 28.2 0 0 0-11.163-2.299c-1.579 0-3.116.166-4.64.416l-3.143-14.057h9.985v-8.836h-25.358v8.836h10.858l3.379 15.11a28.5 28.5 0 0 0-7.382 3.739l-60.107-64.165c1.454-4.376 2.853-8.559 4.155-12.478m72.253 121.349a21.52 21.52 0 0 1-15.304-6.343 21.52 21.52 0 0 1-6.343-15.304c0-4.709 1.524-9.182 4.28-12.894l14.556 15.525.623.679 4.085 18.24c-.623.055-1.26.097-1.897.097m6.232-.928-3.753-16.758 18.656.706c-1.704 7.659-7.451 13.808-14.903 16.052m109.578 45.703c-16.564 0-32.13-6.454-43.847-18.157-11.357-11.356-17.756-26.355-18.13-42.351l61.839 2.354 3.822-.554-.166-4.889-25.386-56.464a62.1 62.1 0 0 1 21.869-3.96c16.564 0 32.144 6.44 43.847 18.156 11.717 11.716 18.171 27.283 18.171 43.847 0 34.194-27.824 62.018-62.019 62.018" style="fill:#000;fill-rule:nonzero;stroke:none" transform="translate(-828.2 855.837)"/>
</svg>
