<svg xmlns="http://www.w3.org/2000/svg" viewBox="0 0 397.906 397.907" role="img" aria-labelledby="title">
  <title id="title">Verkehrszeichen 52.14a - 14a: Reitverbot</title>
  <path d="M-452.738 457.406c0-109.877 89.075-198.957 198.954-198.957 109.878 0 198.952 89.08 198.952 198.957 0 109.87-89.074 198.95-198.952 198.95-109.879 0-198.954-89.08-198.954-198.95" style="fill:#ee1c23;fill-rule:nonzero;stroke:none" transform="translate(452.738 -258.45)"/>
  <path d="M-253.784 604.922c81.474 0 147.524-66.048 147.524-147.516 0-81.48-66.05-147.529-147.524-147.529s-147.525 66.05-147.525 147.529c0 81.468 66.05 147.516 147.525 147.516" style="fill:#fff;fill-rule:nonzero;stroke:none" transform="translate(452.738 -258.45)"/>
  <path d="M-161.276 486.02c2.856 1.782 7.14 7.496 7.14 7.496-.718-6.069-5.003-11.07-5.003-11.07-5.71-4.281-3.569-5.354-8.206-18.205-4.644-12.851 2.497-17.492-12.14-26.77-6.033-3.827-12.364-4.464-15.96-4.46a33 33 0 0 0-.46-.541c-8.842-9.945-29.019-8.13-43.48-7.133-1.872-3.982-5.482-11.685-7.034-15.178-2.142-4.818 0-11.065.713-14.101.713-3.032 1.607-3.569 1.965-13.565.337-9.498-8.666-13.354-9.56-13.713l.632-.206-1.784-2.86-2.201 1.01c1.05-2.673 1.214-5.908.776-7.792-1.333-5.701-4.285-9.815-10.071-8.501-2.935.671-5.031 3.184-5.811 6.385l-.005-.025v-.537s-.359 4.105-3.037 5.355c0 0-1.425 2.142 0 2.323l2.974-1.68q.056.271.126.548c.923 3.7 3.315 6.546 6.144 7.767l-2.104.861.793 1.584c-.127.004-.4.165-.97.735-1.248 1.25-6.427 9.996-7.853 12.674-1.43 2.677-.535 2.14-3.036 4.818-2.075 2.226-13.137 11.96-16.827 15.195-17.206-16.056-20.091-15.427-27.083-17.872-5.95-2.082-10.412-.199-11.733.49-4.04-1.795-5.402-3.704-5.402-3.704s-.683 2.399-.75 4.405c-.566-.3-1.101-.638-1.57-1.014-2.677-2.141-5.355-1.964-5.355-1.964s-1.249 0-.178 1.25 1.51 2.682 3.75 3.75c2.538 1.213 2.703 2.34 2.543 3.886-2.092 2.45-3.969 5.245-4.332 7.716 0 0-.354 14.814-.89 18.742 0 0-1.606 9.637-2.5 11.778 0 0-1.784 1.61.535 3.392 0 0 2.32 1.25 4.82 3.927 0 0 .895.537 2.679-.714 0 0-.894 1.25 1.784 1.073 2.678-.181 4.643-.714 4.997-3.75.085-.705.278-1.558.54-2.483 3.547-2.255 7.663-3.598 11.775-4.836.434-.135.873-.249 1.307-.359 1.105 3.569 2.648 7.18 4.407 10.533 3.926 7.5 3.568 11.782 4.285 17.851.628 5.368.43 17.15 8.278 21.534-2.357 4.903-8.038 16.213-13.158 22.611 0 0-2.619 1.19-1.43 6.191l-.712 2.378c-1.451 4.831-7.52 18.278-9.658 20.896 0 0-1.83 1.795.076 2.986l-.653 2.06s-3.458 3.666-1.03 9.912l7.195-3.188.633-.33s-.654-3.17-.92-4.881c-.236-1.487 1.502-.798-.64-1.99-1.042-.578 0-1.904 0-1.904 2.066-.82 1.189-3.096 1.189-3.096 3.568-9.519 6.663-19.988 9.518-21.656 2.86-1.664 2.864-3.556 2.864-3.556s-.464-.152.223-1.216c.688-1.06 8.506-8.721 10.923-10.905.008.055 1.738-1.66 2.965-3.851 1.27-2.268 2.04-5.013 2.05-4.954.02.097.982.849.982.849-.531.861-.713 3.146-1.83 4.819-1.531 2.297-3.999 3.97-3.986 4.02.865 3.987 2.737 9.371 6.216 16.64 0 0-.535 2.322 1.013 3.39 0 0 9.995 13.806 11.9 17.611 1.903 3.81.713 3.332 2.62 3.573l2.855 2.855.637.828 1.594.756s.514 5.017 6.827 7.26l2.29-7.527.165-.696c.005 0-2.826-1.58-4.293-2.496-1.282-.794.375-1.656-1.928-.815-1.117.41-1.96.785-1.96.785l-1.548-1.25s3.926-1.368-3.927-8.032-8.092-13.328-8.092-13.328c1.43-2.619-1.19-4.046-1.19-4.046.987-4.468-.476-15.466-1.189-16.897-.713-1.428 0-1.905.477-3.092 1.273-3.184 1.235-6.254.746-8.775 8.072.249 15.507-.017 21.816-.74 1.514.9 3.37 1.876 5.28 2.615 4.643 1.782 2.5-2.86 2.5-2.86s5.357 1.073 8.924 1.428c2.046.207 1.864-2.753 1.337-5.321 4.669-1.094 5.803-.389 5.803-.389-.346 2.167 1.56 4.147 1.417 5.968-1.033 13.172 2.746 17.703 3.58 20.212.954 2.855.713 9.996.713 9.996-3.091 7.378-9.754 18.797-10.707 21.656-.953 2.855.236 3.569.236 3.569l-1.426 1.664c-4.044 1.668-6.426 9.282-6.426 9.282l10.47-1.427c3.573-7.855-.476-7.137-.476-7.137l1.43-1.668c3.808-.237 4.044-2.855 4.044-2.855 1.666-13.806 12.855-26.657 13.567-29.035.713-2.381-.476-2.381-.953-3.572-.477-1.187-.477-4.996-.477-4.996-1.901-15.233 7.617-19.752 9.523-21.42 1.902-1.664.477-3.332.477-3.332-2.383-3.569-3.096-9.756-3.096-9.756l1.666-1.786s3.926 19.279 16.063 27.847c0 0 12.856 14.634 17.494 23.202 4.637 8.57 1.784 3.928 2.856 8.57 1.069 4.64 3.861 14.396 6.069 19.274 2.26 5 9.4 10.71 9.4 10.71l4.047-8.328s-.953-2.619-5.238-1.668l.478-2.142s-1.19 1.191-3.569-1.663c0 0-.953 2.377-.347-.917.612-3.29-1.796-4.797-1.796-4.797-4.525-7.615-5.238-16.66-5.238-16.66.478-.714.478-2.379.478-2.379-.542-3.69-.953-8.327-4.3-13.797-4.579-7.496-7.125-15.832-7.125-15.832.637-8.273 2.409-32.156-5.31-46.346 11.373.87 13.76 9.74 12.095 12.075-1.788 2.5-2.14 8.568 0 10.71 2.137 2.14.356 4.64 2.856 10.71 2.497 6.068 9.214 13.949 9.214 13.949-.636-.427 2.357 2.466 1.14.33-4.285-7.497-8.929-19.634-8.929-19.634 4.284 5.355 7.463 14.472 9.281 18.383 2.32 5 3.393 6.428 6.246 8.928 2.859 2.496 5.18 5.887 5.18 5.887.359-2.855-1.429-5.71-3.213-7.496s-2.497-4.996-2.497-4.996zm-175.683-94.84c-.064-.021-.127-.038-.186-.059l.359-.101c-.06.055-.118.105-.173.16m11.644 37.008c-2.497.891-4.998 1.963-6.959 3.746-.13.084-.257.16-.384.24 1.354-3.716 3.062-7.378 3.062-7.378s5.128-2.322 6.908-7.753c.637-1.943 1.122-6.17.41.612-.3 2.847.028 6.04.805 9.338a40 40 0 0 0-3.842 1.195m48.848-7.952a57 57 0 0 1-5.575-3.058c7.659-3.868 12.597-8.801 12.597-8.801-1.565 3.522-4.37 7.973-7.022 11.859" style="fill:#000;fill-rule:nonzero;stroke:none" transform="translate(452.738 -258.45)"/>
</svg>
