<svg xmlns="http://www.w3.org/2000/svg" xml:space="preserve" viewBox="0 0 960 960" role="img" aria-labelledby="title">
  <title id="title">Verkehrszeichen 52.7f-3[10] - 7f: Fahrverbot für Omnibusse über ... Meter Gesamtlänge</title>
  <path fill="#e72129" fill-rule="evenodd" d="M479.173 1.634c264.621 0 479.202 214.573 479.202 479.186 0 264.6-214.581 479.18-479.202 479.18C214.579 960 0 745.42 0 480.819 0 216.207 214.579 1.634 479.173 1.634" clip-rule="evenodd"/>
  <path fill="#f1f2f2" fill-rule="evenodd" d="M479.173 123.966c-197.002 0-356.841 159.833-356.841 356.854 0 197.016 159.839 356.849 356.841 356.849 197.03 0 356.869-159.833 356.869-356.849 0-197.021-159.839-356.854-356.869-356.854" clip-rule="evenodd" style="fill:#fff;fill-opacity:1"/>
  <path fill="#231f20" fill-rule="evenodd" d="M660.777 380.919h54.569c3.684 0 7.065-2.211 8.874-5.309 2.153-3.711 1.427-7.356.198-11.291l-21.21-69.151c-2.746-8.867-8.148-14.091-17.986-14.091h-23.668c-6.245 0-11.437 4.016-11.437 10.513v78.598c.001 5.938 4.677 10.731 10.66 10.731m-72.808 131.425c.079-21.678 17.962-39.243 39.343-39.243 21.316 0 39.422 17.837 39.422 39.461 0 21.594-18.026 39.296-39.422 39.296-21.594-.001-39.343-17.756-39.343-39.514m-11.952-131.425h49.433c3.657 0 7.897-1.995 9.563-5.361.712-1.52 1.717-3.804 1.717-5.508v-78.097c0-6.709-4.966-10.876-11.45-10.876h-48.982c-6.696 0-11.2 4.801-11.2 11.458v77.284c-.002 5.949 4.791 11.1 10.919 11.1m-84.891-.198h49.206c6.326 0 11.728-4.081 11.728-10.829l-.092-78.87c0-7.33-5.731-10.195-12.203-10.195h-47.622c-6.195 0-11.385 3.724-11.385 10.394v78.466c0 5.652 4.385 11.034 10.368 11.034m-83.454.106h48.983c6.049 0 10.58-4.8 10.58-10.776v-78.487c0-6.549-4.887-10.796-11.2-10.796h-48.507c-6.035 0-11.226 3.533-11.226 10.064l.159 79.299c0 6.397 4.953 10.643 11.211 10.696m-84.957.092h49.128c6.194 0 11.002-4.867 11.002-10.947v-78.494c0-6.668-4.953-10.413-11.212-10.413h-49.419c-6.207 0-10.512 4.398-10.512 10.553v78.189c-.001 6.166 4.885 11.112 11.013 11.112m-84.389-.092h48.692c6.063 0 11.306-4.596 11.306-10.776v-78.976c0-6.114-4.596-10.308-10.526-10.308h-46.091c-8.135 0-14.448 5.395-14.448 13.894v74.386c-.001 6.319 4.463 11.78 11.067 11.78m475.871-93.662 32.674 107.105c2.02 6.696 3.235 14.092 3.724 21.085.21 2.363-.211 2.787-.211 4.464v79.627c0 2.807-1.137 5.244-3.461 6.922-2.231 1.504-4.529 1.716-7.104 1.716h-57.265c-1.942-13.676-5.97-25.1-16.046-35.255-21.421-21.573-57.476-21.573-78.988-.072-10.051 10.064-14.012 21.421-16.113 35.031H409.403c-1.875-13.887-6.127-25.251-16.271-35.459-21.447-21.593-57.553-21.514-79.001 0-10.116 10.157-13.999 22.029-15.875 35.691h-76.03c-6.458 0-8.861-5.977-8.861-11.742V296.081c0-7.712 2.655-15.756 8.201-21.289 5.163-5.112 12.638-7.509 19.77-7.509h473.309c3.368 0 5.666.945 7.041 4.049 1.358 2.931 1.147 6.84-1.229 9.264z" clip-rule="evenodd"/>
  <path fill="#231f20" fill-rule="evenodd" d="M314.369 512.344c.079-21.678 17.96-39.243 39.329-39.243 21.315 0 39.434 17.837 39.434 39.461 0 21.594-18.04 39.296-39.434 39.296-21.593-.001-39.329-17.756-39.329-39.514M611.384 675.888V622.44h56.393v-36.765l80.545 65.358-81.218 61.53.157-36.735zM347.966 675.888l-55.89-.06.158 36.735-81.22-61.53 80.547-65.358v36.765h56.405zM547.082 720.348h13.933v-46.871c0-2.851.264-5.34.832-7.263.514-1.901 1.188-3.407 2.18-4.496.924-1.091 1.901-1.923 2.839-2.331.977-.424 2.073-.681 2.998-.681 2.906 0 4.927.832 6.167 2.601 1.242 1.758 1.929 5.178 1.929 10.25v48.791h13.92v-49.465c0-8.076-1.492-13.82-4.358-17.499-2.893-3.678-7.647-5.495-14.237-5.495-2.84 0-5.587.569-8.174 1.817-2.589 1.242-5.073 3.255-7.106 5.844-2.893-5.019-7.923-7.661-15.478-7.661-2.84 0-5.586.722-8.188 1.909-2.574 1.24-4.755 3.315-6.576 6.056l-1.758-6.571h-9.839v71.065H530.1v-45.893c0-3.151.304-5.752.819-7.818.58-2.015 1.24-3.572 2.178-4.761.992-1.249 1.917-2.081 2.906-2.489.938-.424 2.021-.681 2.998-.681 2.853 0 4.927.832 6.167 2.601 1.19 1.758 1.916 5.178 1.916 10.25v48.791zm-48.219-71.066c0-13.212-.567-24.596-2.033-33.966-1.387-9.377-3.458-16.899-6.313-22.788-3.051-5.911-6.734-10.208-11.384-12.851-4.662-2.635-10.156-3.882-16.64-3.882-6.736 0-12.217 1.247-16.931 3.882-4.663 2.643-8.335 6.939-11.173 12.851-3.064 5.889-5.098 13.411-6.538 22.788-1.386 9.37-2.02 20.754-2.02 33.966 0 13.253.634 24.657 2.02 33.824 1.44 9.369 3.474 16.876 6.538 22.786 2.838 5.911 6.511 9.997 11.173 12.633 4.714 2.596 10.194 3.843 16.931 3.843 6.484 0 11.978-1.247 16.64-3.843 4.649-2.636 8.333-6.722 11.384-12.633 2.854-5.91 4.926-13.417 6.313-22.786 1.466-9.167 2.033-20.571 2.033-33.824m-20.971 0c0 12.024-.158 21.601-.793 28.956-.607 7.501-1.438 13.2-2.627 17.295-1.188 4.244-2.8 6.939-4.662 8.346-2.02 1.446-4.464 2.219-7.316 2.219-2.827 0-5.323-.772-7.133-2.635-2.033-1.611-3.67-4.669-4.872-8.968-1.242-4.244-2.074-10.142-2.656-17.499-.606-7.104-.818-16.475-.818-27.714 0-11.396.212-20.766.818-28.273.582-7.356 1.414-13.254 2.656-17.499 1.202-4.299 2.839-7.151 4.872-8.969 1.81-1.663 4.306-2.437 7.133-2.437 2.667 0 5.097.773 7.104 2.231 1.875 1.395 3.487 4.299 4.703 8.552 1.162 4.286 2.191 9.992 2.798 17.294.635 7.562.793 17.097.793 29.101m-90.94-47.8v118.865h20.761V577.869h-21.606l-30.916 25.217 12.216 14.442z" clip-rule="evenodd"/>
</svg>
