<svg xmlns="http://www.w3.org/2000/svg" xml:space="preserve" viewBox="0 0 900 1200" role="img" aria-labelledby="title">
  <title id="title">Verkehrszeichen 53.1a - 1a: Parken Siehe: DE:Tag:amenity=parking</title>
  <g fill-rule="evenodd" clip-rule="evenodd">
    <path fill="#24388d" d="M11.893 1143.197c0 26.34 21.303 47.648 47.648 47.648h781.56c26.327 0 47.636-21.309 47.636-47.648V56.444c0-26.345-21.309-47.653-47.636-47.653H59.541c-26.345 0-47.648 21.309-47.648 47.653z"/>
    <path fill="#24388d" d="m888.892 1159.692-.814 5.174c-.539 3.497-2.18 6.685-4.024 9.702-3.629 6-9.246 10.756-15.692 13.416-3.232 1.34-6.731 1.938-10.155 2.467H42.945c-3.544 0-6.929-1.127-10.167-2.467-6.44-2.66-12.05-7.416-15.686-13.416-2.755-4.505-4.023-9.702-4.845-14.876L12.151 41.766c0-7.032 2.27-14.008 6.389-19.68 4.121-5.654 10.067-9.918 16.708-12.104 3.332-1.054 6.827-1.395 10.315-1.641l812.641.096c3.521 0 6.923 1.12 10.155 2.468 6.446 2.671 12.063 7.42 15.692 13.367 2.755 4.504 4.024 9.69 4.839 14.865L889 1157.08c0 .874-.06 1.749-.108 2.612"/>
    <path fill="#f2f3f4" d="M733.287 441.232c0-93.967-24.23-162.408-73.029-204.917-48.437-42.856-120.473-63.631-216.433-63.631H217.522v854.618h131.631V723.556h96.894c44.941 0 85.092-5.104 120.485-15.979 35.419-9.904 64.716-25.583 90.229-48.893 24.219-23.069 43.67-52.457 57.039-87.941 13.414-35.485 19.487-79.27 19.487-129.511m-133.899 2.576c0 35.484-3.497 63.644-9.582 86.653-6.061 23.302-15.931 41.568-28.027 54.973-12.123 13.419-26.783 23.367-44.989 29.398-18.447 6.086-37.887 8.325-59.597 8.325h-108.04v-351.7h108.04c44.947 0 79.097 13.745 104.586 39.33 25.463 26.88 37.609 70.676 37.609 133.021"/>
    <path fill="#24388d" d="M11.893 1143.197c0 26.34 21.303 47.648 47.648 47.648h781.56c26.327 0 47.636-21.309 47.636-47.648V56.444c0-26.345-21.309-47.653-47.636-47.653H59.541c-26.345 0-47.648 21.309-47.648 47.653z"/>
    <path fill="#009fe3" d="m888.892 1159.692-.814 5.174c-.539 3.497-2.18 6.685-4.024 9.702-3.629 6-9.246 10.756-15.692 13.416-3.232 1.34-6.731 1.938-10.155 2.467H42.945c-3.544 0-6.929-1.127-10.167-2.467-6.44-2.66-12.05-7.416-15.686-13.416-2.755-4.505-4.023-9.702-4.845-14.876L12.151 41.766c0-7.032 2.27-14.008 6.389-19.68 4.121-5.654 10.067-9.918 16.708-12.104 3.332-1.054 6.827-1.395 10.315-1.641l812.641.096c3.521 0 6.923 1.12 10.155 2.468 6.446 2.671 12.063 7.42 15.692 13.367 2.755 4.504 4.024 9.69 4.839 14.865L889 1157.08c0 .874-.06 1.749-.108 2.612"/>
    <path fill="#fff" d="M733.287 441.232c0-93.967-24.23-162.408-73.029-204.917-48.437-42.856-120.473-63.631-216.433-63.631H217.522v854.618h131.631V723.556h96.894c44.941 0 85.092-5.104 120.485-15.979 35.419-9.904 64.716-25.583 90.229-48.893 24.219-23.069 43.67-52.457 57.039-87.941 13.414-35.485 19.487-79.27 19.487-129.511m-133.899 2.576c0 35.484-3.497 63.644-9.582 86.653-6.061 23.302-15.931 41.568-28.027 54.973-12.123 13.419-26.783 23.367-44.989 29.398-18.447 6.086-37.887 8.325-59.597 8.325h-108.04v-351.7h108.04c44.947 0 79.097 13.745 104.586 39.33 25.463 26.88 37.609 70.676 37.609 133.021"/>
  </g>
</svg>
