<svg xmlns="http://www.w3.org/2000/svg" viewBox="0 0 960 1200" role="img" aria-labelledby="title">
  <title id="title">Verkehrszeichen 52.13d - 13d: Beginn einer Kurzparkzone</title>
  <path d="M1532.82 884.581c13.233 0 25.68-4.812 35.035-13.56 9.356-8.734 14.503-20.358 14.503-32.718V-269.14c0-12.36-5.147-23.984-14.503-32.719-9.356-8.747-21.802-13.56-35.036-13.56H671.91c-27.322 0-49.552 20.76-49.552 46.28V838.302c0 12.36 5.16 23.984 14.516 32.719 9.356 8.747 21.803 13.56 35.036 13.56z" style="fill:#000;fill-rule:nonzero;stroke:none" transform="translate(-622.358 315.418)"/>
  <path d="M671.91 874.273c-10.294 0-19.953-3.742-27.225-10.54-7.272-6.8-11.274-15.831-11.274-25.43V-269.14c0-9.599 4.002-18.63 11.274-25.43 7.272-6.798 16.931-10.54 27.225-10.54h860.91c10.28 0 19.953 3.742 27.225 10.54 7.272 6.8 11.274 15.831 11.274 25.43V838.303c0 19.83-17.263 35.97-38.5 35.97z" style="fill:#fff;fill-rule:nonzero;stroke:none" transform="translate(-622.358 315.418)"/>
  <path d="M1100.274-194.541c-211.29 0-382.592 160.047-382.592 357.471s171.301 357.471 382.592 357.471c211.305 0 382.606-160.047 382.606-357.471s-171.301-357.471-382.606-357.471" style="fill:#ee1c23;fill-rule:nonzero;stroke:none" transform="translate(-622.358 315.418)"/>
  <path d="M816.58 162.93c0-61.426 22.368-117.961 59.901-162.899l398.144 372c-48.103 35.066-108.612 55.954-174.35 55.954-156.675 0-283.696-118.67-283.696-265.055M1324.081 325.829l-398.144-372c48.103-35.066 108.612-55.967 174.337-55.967 156.688 0 283.709 118.67 283.709 265.068 0 61.413-22.369 117.949-59.902 162.899" style="fill:#176fc1;fill-rule:nonzero;stroke:none" transform="translate(-622.358 315.418)"/>
  <path d="M1076.14 734.804h-.345c-4.665 5.974-8.473 8.373-16.932 8.373-8.127 0-19.015-3.703-19.015-21.79 0-18.734 5.52-28.978 27.778-30.204a79 79 0 0 1 8.514-.039v-5.6c0-5.495-2.25-9.688-8.818-9.688-4.485 0-8.983 2.902-10.018 8.23h-17.11c.51-7.263 3.283-13.404 7.947-17.765 4.664-4.36 11.233-6.941 19.181-6.941 14.696 0 26.44 8.722 26.44 25.842v56.988h-17.622zm0-30.745c-1.905-.323-3.409.013-4.968.168-7.63.735-13.703 5.212-13.703 13.934 0 6.296 3.464 10.489 9.163 10.489 5.879 0 9.508-3.87 9.508-10.49zM1476.078 708.162v10.024c0 5.161 3.284 8.064 8.638 8.064 6.748 0 8.307-3.56 8.652-7.109h17.621c0 6.774-2.594 11.96-7.093 16.321-4.664 4.516-11.053 7.264-19.18 7.264-10.708 0-18.836-4.684-22.976-11.793-2.428-4.193-3.284-10.011-3.284-16.63v-26.965c0-6.618.856-12.424 3.284-16.63 4.14-7.096 12.268-11.78 22.976-11.78 16.255 0 26.273 11.135 26.273 25.507v23.727zm0-14.037h17.29v-9.367c0-6.141-3.284-9.367-8.652-9.367-5.354 0-8.638 3.226-8.638 9.367zM1171.312 627.254h17.635v68.793h.345l21.25-35.687h17.636l-20.906 33.261 25.225 48.602h-19.181l-15.897-35.364-8.472 12.437v22.927h-17.635zM1385.9 659.741h17.622v4.013h.345c6.113-5.703 6.058-5.703 14.186-5.703 8.817 0 20.56 6.05 20.56 20.746v62.806h-17.635v-56.665c0-5.986-3.105-9.689-8.638-9.689-6.569 0-8.818 4.026-8.818 11.302v55.052h-17.621zM1314.297 687.712c0-6.618.856-12.437 3.285-16.63 4.14-7.11 12.86-11.792 23.582-11.792 10.708 0 19.43 4.683 23.583 11.779 2.415 4.206 3.284 10.012 3.284 16.63v26.978c0 6.619-.87 12.425-3.284 16.63-4.154 7.097-12.875 11.78-23.583 11.78-10.722 0-19.443-4.683-23.582-11.78-2.429-4.205-3.285-10.011-3.285-16.63zm17.622 29.546c0 6.128 3.877 9.366 9.245 9.366 5.354 0 9.232-3.238 9.232-9.366v-32.139c0-6.128-3.878-9.367-9.232-9.367-5.368 0-9.245 3.239-9.245 9.367zM968.742 660.244h17.635v5.2c4.485-4.684 7.948-6.167 16.766-6.167 7.079 0 12.267 2.412 15.372 7.74 2.083 3.562 2.939 8.568 2.939 17.612v31.158c0 11.792-.51 16.475-2.76 19.856-2.939 4.36-9.231 7.25-17.704 7.25-6.913 0-10.46.465-14.268-4.864h-.345v37.184h-17.635zm35.09 26.643c0-6.619-2.594-11.148-8.638-11.148-5.367 0-8.817 4.206-8.817 10.18v31.803c0 5.174 3.808 8.89 8.817 8.89 6.734 0 8.639-4.53 8.639-9.69zM843.06 660.283h17.635l-.014 3.135c7.259-5.973 13.15-4.103 23.348-4.103v17.43a15 15 0 0 0-5.368-.967c-7.423 0-17.98-1.226-17.98 12.18l.014 54.187H843.06zM819.808 742.132h-17.635l.014-5.122h-.345c-3.891 4.155-4.995 5.51-13.109 5.51-6.458 0-21.733-7.135-21.65-23.908l.013-58.355h17.621v56.678c0 5.974 3.12 9.69 8.639 9.69 6.568 0 8.817-4.039 8.817-11.303v-55.065h17.635zM896.849 728.056l31.503-53.142h-28.66v-14.528l48.71-.013v13.083l-31.503 52.175h31.489l.014 16.617h-51.553zM688.483 626.635h17.635v52.472h.345l25.75-52.472h17.634l-24.024 46.008 28.509 68.947h-18.656l-20.05-51.013-9.508 16.63v34.383h-17.635zM1113.149 659.896h17.621v3.135c7.245-5.973 13.137-4.116 23.334-4.116v17.444a14.9 14.9 0 0 0-5.354-.968c-7.437 0-17.98-1.226-17.98 12.18v54.187h-17.621zM1245.771 728.018l31.504-53.143-28.661.013v-14.54h48.71v13.082l-31.503 52.175 31.504-.013v16.618l-51.554.013z" style="fill:#000;fill-rule:nonzero;stroke:none" transform="translate(-622.358 315.418)"/>
</svg>
