<svg xmlns="http://www.w3.org/2000/svg" viewBox="0 0 1000 874.943" role="img" aria-labelledby="title">
  <title id="title">Verkehrszeichen 50.11a - 11a: Radfahrerüberfahrt</title>
  <path d="M783.931-288.873c14.046-24.351 37.028-24.351 51.073 0l468.496 812.37c14.033 24.352 2.555 44.285-25.536 44.285l-936.955.025c-28.08 0-39.57-19.934-25.524-44.285z" style="fill:#ee1c23;fill-rule:nonzero;stroke:none" transform="translate(-309.49 307.136)"/>
  <path d="m470.321 463.611 678.318-.012-339.171-588.144z" style="fill:#fff;fill-rule:nonzero;stroke:none" transform="translate(-309.49 307.136)"/>
  <path d="M973.129 288.805c-13.108-13.133-30.535-20.353-49.086-20.353a69 69 0 0 0-25.463 4.863l-17.748-37.546a458 458 0 0 0 3.209-5.542l14.132-.666c3.024-.148 5.369-2.728 5.233-5.764a5.524 5.524 0 0 0-5.764-5.246l-1.58.075c7.838-6.48.803-19.49-1.468-24.402-2.753-5.973-13.91-25.302-23.723-43.544s-20.5-36.842-35.176-49.234c-14.662-12.392-34.435-16.922-34.435-16.922-3.666 0-6.418-5.517-7.344-9.182-1.827-6.43-1.827-13.775-6.418-20.193-5.492-7.343-14.663-11.021-23.833-9.182l-5.505 2.752c-8.245 7.344-18.452 22.834-16.502 24.784s2.752 0 4.591.913c2.753 2.765 3.666 6.43 6.419 9.183 2.74 3.678.765 11.355 3.999 11.429 1.839.05 2.184.284 4.245-3.16.914 1.827 2.062 2.864 3.666 4.123 2.185 1.036 1.062 1.407 1.605 1.728 1.641.938 1.382 3.098 2.752 3.789 4.591.913 9.405-3.222 13.07-1.383 2.753 1.84 6.419-.913 8.245 1.84.926 3.665 2.753 7.343 1.84 10.096 0 0-2.642-3.37-.445 1.184-2.987 5.53-4.74 15.984-7.01 24.167-2.926 10.528-2.234 22.525-1.901 29.424-6.122 2.679-13.7 7.43-21.29 13.614-5.481 4.48-10.22 9.097-13.886 13.392l-.013-.013-5.282 5.567c-1.753.271-11.034 1.987-14.873 8.38-1.296 2.173-2.48 5.801-.703 10.714l.271.765 7.023 7.023-2.185 7.578c-4.295-9.257-16.798-8.825-16.798-8.825l.803 21.526s-.346 5.566 3.789 5.566c3.715 0 6.307-1.74 8.133-4.135l-7.121 24.698a69.3 69.3 0 0 0-23.932-4.234c-38.287 0-69.427 31.177-69.427 69.5 0 18.564 7.22 36.016 20.34 49.148 13.108 13.12 30.536 20.353 49.087 20.353 18.538 0 35.966-7.233 49.073-20.353 13.12-13.132 20.34-30.584 20.34-49.147s-7.22-36.016-20.34-49.148a69.7 69.7 0 0 0-16.687-12.355l4.728-16.366 56.454 50.69a17 17 0 0 0-1.814 2.32c-.617 1.235-.617 4.284 0 4.284 3.209 1.16 6.344 1.012 9.417.21l3.234 2.912a24.67 24.67 0 0 0-3.592 12.861c0 6.628 2.58 12.861 7.258 17.551 4.69 4.69 10.91 7.27 17.538 7.27 6.616 0 12.849-2.58 17.526-7.27.1-.099.186-.197.284-.296.1.062.21.136.309.197-1.247 1.815-3.333 4.42-6.74 8.184-11.613 12.86-7.503 14.625-4.146 16.156 3.37 1.53 13.453-5.74 15.897-8.8s6.838-6.221 6.838-6.221-.26-2.357 2.184-3.58c.975-.48 1.938-.296 2.765.112 3.16 11.392 9.183 21.846 17.76 30.436 13.12 13.12 30.548 20.353 49.087 20.353 18.55 0 35.978-7.233 49.086-20.353 13.12-13.132 20.34-30.584 20.34-49.147s-7.22-36.016-20.34-49.148m-233.865 6.492c11.38 11.392 17.65 26.536 17.65 42.656 0 33.263-27.03 60.317-60.244 60.317-16.095 0-31.227-6.27-42.606-17.662s-17.65-26.548-17.65-42.655c0-16.12 6.27-31.264 17.65-42.656s26.511-17.674 42.606-17.674a60.2 60.2 0 0 1 21.377 3.912l-5.764 20.02-19.896 34.077c-1.284 2.185-.543 4.999 1.641 6.283 2.185 1.283 4.987.543 6.27-1.654l20.193-34.572c.185-.333.333-.678.444-1.049l5.517-19.13a60.5 60.5 0 0 1 12.812 9.787m177.386 37.73-52.394-2.369c1.592-13.354 7.541-25.71 17.193-35.361a60.2 60.2 0 0 1 12.762-9.763zM774.143 196.052c10.652-8.701 20.39-9.022 24.673-21.87 3.58-5.752 4-11.035 6.714-20.81.494-1.778 3.888-7.467 4.283-9.183 3.123 4.628 4.357 5.492 8.862 11.479 23.846 31.67 26.586 41.31 26.586 41.31s-.988 5.875-6.171 7.405c-5.197 1.53-10.775 3.641-16.453 6.258-11.01 5.097-20.254 11.195-26.215 16.86h-53.258l3.888-13.441 1.876.876 7.11-6.788c5.48-2.79 11.786-6.937 18.105-12.096m-40.791 19.217c-.519-1.913-.087-3.024.32-3.702 1.087-1.815 3.555-3.074 5.814-3.876-.062.494-.062.95-.013 1.382a4.35 4.35 0 0 0-1.061 1.84l-2.11 7.306zm64.612 90.1-61.255-54.985-.111-.074 3.419-11.886c.333.062.654.099 1 .099h48.221c-.11 1 .013 1.937.395 2.764.568 1.21-.259 5.06 1.235 5.715.123 6.69 3.122 12.07 5.208 20.908 3.27 13.898 8.158 25.524 12.651 31.128-3.16 2.814-7.06 4.443-10.763 6.331m24.315 47.31c-5.159 0-9.997-2.013-13.65-5.654a19.22 19.22 0 0 1-5.641-13.663c0-3.234.79-6.344 2.27-9.109l13.96 12.528a4.5 4.5 0 0 0 2.851 1.16l5.814.272c2.604 3.752 5.369 6.763 7.812 8.973-3.468 3.394-8.195 5.492-13.416 5.492m-10.898-35.251a18.4 18.4 0 0 1 4.27-2.197c1.086 2.703 2.247 6.27 3.407 9.072zm27.807-72.228c-7.48 12.12-14.317 26.08-17.588 36.546-.172-4.135-.802-8.8-2-13.935-1.678-7.097-3.875-19.674-6.121-25.092 6.838-1.308 12.984-.864 21.032-4.196h9.837c-2.346 2.863-4.444 5.517-5.16 6.677m15.885 85.04-2.851-.124-4.27-7.776c-.556-4.06-2.617-9.281-3.679-13.762-1.172-4.986 2.271-6.763-2.06-16.896 6.726-8.566 12.169-14.392 20.475-26.771 4.431-6.616 8.714-13.429 12.491-19.65l15.12 31.992c-19.131 10.701-32.708 30.202-35.226 52.987m68.97 68.031c-16.082 0-31.214-6.27-42.594-17.662-7.467-7.48-12.713-16.563-15.453-26.474l.05-.025c0-.012 1.839-1.84-.605-6.122a24 24 0 0 0-1.025-1.592 58 58 0 0 1-.567-6.566l59.996 2.703a4.59 4.59 0 0 0 4.024-2.037 4.59 4.59 0 0 0 .321-4.505l-25.697-54.38a60.1 60.1 0 0 1 21.55-3.987c16.094 0 31.226 6.282 42.606 17.674s17.65 26.536 17.65 42.656c0 33.263-27.03 60.317-60.256 60.317" style="fill:#000;fill-rule:nonzero;stroke:none" transform="translate(-309.49 307.136)"/>
  <path d="M662.617 432.163h36.867v-16.527h-36.867zm50.11 0h36.867v-16.527h-36.867zm50.098 0h36.867v-16.527h-36.867zm50.099 0h36.867v-16.527h-36.867zm50.098 0h36.867v-16.527h-36.867zm50.11 0H950v-16.527h-36.867zm50.098 0h36.867v-16.527H963.23zm50.098 0h36.867v-16.527h-36.867zm-400.81 0h36.868v-16.527h-36.867zm-50.097 0h36.867v-16.527H562.42zm108.009-69.994h24.931v-14.231H670.43zm42.359 0h24.932v-14.231h-24.932zm42.36 0h24.931v-14.231h-24.932zm42.359 0h24.932v-14.231h-24.932zm42.36 0h24.931v-14.231h-24.932zm42.359 0h24.931v-14.231h-24.931zm42.359 0h24.932v-14.231h-24.932zm42.36 0h24.931v-14.231h-24.932zm-338.876 0h24.932v-14.231H628.07zm-42.36 0h24.933v-14.231H585.71zm423.595 0h24.932v-14.231h-24.932z" style="fill:#000;fill-rule:nonzero;stroke:none" transform="translate(-309.49 307.136)"/>
</svg>
