<svg xmlns="http://www.w3.org/2000/svg" viewBox="0 0 690 690" role="img" aria-labelledby="title">
  <title id="title">Verkehrszeichen 52.7a-1 - 7a: Fahrverbot für Lastkraftfahrzeuge</title>
  <path d="M-794.658-252.227c0-190.532 154.463-345 345-345s345 154.468 345 345-154.463 345-345 345-345-154.467-345-345" style="fill:#ee1c23;fill-rule:nonzero;stroke:none" transform="translate(794.658 597.226)"/>
  <path d="M-449.658 3.593c141.283 0 255.818-114.536 255.818-255.82 0-141.283-114.535-255.819-255.818-255.819s-255.818 114.536-255.818 255.82c0 141.283 114.535 255.819 255.818 255.819" style="fill:#fff;fill-rule:nonzero;stroke:none" transform="translate(794.658 597.226)"/>
  <path d="M-268.05-351.172h-243.325c-6.8 0-15.141 5.509-15.141 12.32l-.06.259h-43.58c-1.035 0-10.273.129-16.654 4.922-6.291 4.723-8.68 11.474-8.929 12.23.02-.08-8.342 23.545-12.274 34.662h-8.322c-6.808 0-12.323 5.518-12.323 12.32v66.3h-7.516c-4.2 0-7.605 3.401-7.605 7.607a7.61 7.61 0 0 0 7.605 7.607h20.387c.259 20.185 16.664 36.492 36.91 36.492 20.258 0 36.663-16.307 36.922-36.492h173.226c.26 20.185 16.664 36.492 36.921 36.492 20.258 0 36.662-16.307 36.921-36.492h26.837zm-316.39 33.609c.03-.1 1.453-4.037 4.797-6.543 2.718-2.038 7.904-2.536 9.507-2.546h40.574l-9.945 39.873h-55.824z" style="fill:#000;fill-rule:nonzero;stroke:none" transform="translate(794.658 597.226)"/>
</svg>
