<svg xmlns="http://www.w3.org/2000/svg" viewBox="0 0 1200 600" role="img" aria-labelledby="title">
  <title id="title">Verkehrszeichen 53.25 - 25: Fahrstreifen für Omnibusse</title>
  <path d="M1458.487 564.861c7.208 0 13.988-2.788 19.094-7.855 5.096-5.068 7.905-11.807 7.905-18.97V-8.314c0-7.163-2.809-13.901-7.905-18.97-5.106-5.067-11.886-7.855-19.094-7.855H312.485c-14.89 0-26.999 12.037-26.999 26.826v546.349c0 7.163 2.809 13.902 7.905 18.97 5.106 5.067 11.886 7.855 19.094 7.855z" style="fill:#000;fill-rule:nonzero;stroke:none" transform="translate(-285.486 35.139)"/>
  <path d="M312.485 559.323c-5.72 0-11.105-2.216-15.15-6.231-4.037-4.025-6.269-9.37-6.269-15.056V-8.314c0-5.686 2.232-11.03 6.269-15.046 4.045-4.025 9.43-6.24 15.15-6.24h1146.002c5.72 0 11.105 2.215 15.15 6.24 4.046 4.016 6.269 9.36 6.269 15.047v546.349c0 11.742-9.607 21.287-21.419 21.287z" style="fill:#fff;fill-rule:nonzero;stroke:none" transform="translate(-285.486 35.139)"/>
  <path d="M1205.026 499.431c130.623 0 236.516-105.234 236.516-235.04 0-129.808-105.893-235.042-236.516-235.042-130.632 0-236.525 105.234-236.525 235.041s105.893 235.041 236.525 235.041" style="fill:#176fc1;fill-rule:nonzero;stroke:none" transform="translate(-285.486 35.139)"/>
  <path d="M1308.362 368.47c15.15 0 27.436-12.212 27.436-27.268 0-15.065-12.286-27.269-27.436-27.269-15.16 0-27.446 12.204-27.446 27.269 0 15.056 12.286 27.269 27.446 27.269M1102.992 369.32c15.15 0 27.436-12.204 27.436-27.269 0-15.056-12.286-27.268-27.436-27.268-15.16 0-27.445 12.212-27.445 27.268 0 15.065 12.286 27.269 27.445 27.269" style="fill:#fff;fill-rule:nonzero;stroke:none" transform="translate(-285.486 35.139)"/>
  <path d="M1398.556 323.774c2.65-2.483 4.315-5.991 4.315-9.896v-33.306c0-7.541-2.139-21.305-2.827-21.434l-25.064-85.48c4.138-.803 7.273-4.43 7.273-8.788 0-4.957-4.037-8.972-9.022-8.972h-351.867c-.782 0-1.535.13-2.251.323-2.697.37-8.594 1.606-12.574 5.446-5.32 5.123-8.203 16.053-8.203 16.053v127.573l-.177.148s-.641 8.326 2.902 12.813c1.748 2.206 4.669 4.181 7.19 5.621-4.13.831-7.227 4.45-7.227 8.788 0 4.948 4.036 8.964 9.021 8.964h58.945c.233-18.472 15.355-33.39 34.002-33.39s33.77 14.918 34.002 33.39h137.356c0-.148-.018-.287-.018-.425 0-18.674 15.234-33.813 34.03-33.813 18.786 0 34.02 15.139 34.02 33.813 0 .138-.018.277-.018.425h55.355c4.985 0 9.021-4.016 9.021-8.964 0-4.67-3.599-8.465-8.184-8.89m-337.238-85.895h-50.092V184.31c.093-1.375 1.042-10.477 10.138-10.477h39.954zm12.89-64.045h48.975v64.045h-48.975zm61.865 0h51.552v64.045h-51.552zm64.442 0h50.436v64.045h-50.436zm63.335 0h50.092v64.045h-50.092zm62.982 64.045v-64.045h34.774l18.777 64.045z" style="fill:#fff;fill-rule:nonzero;stroke:none" transform="translate(-285.486 35.139)"/>
  <path d="M385.241 68.415h30.989v-78.538H385.24zM385.241 225.49h30.989v-78.537H385.24zM385.241 382.557h30.989V304.02H385.24zM385.241 539.633h30.989v-78.538H385.24zM886.574 68.415h30.989v-78.538h-30.989zM886.574 225.49h30.989v-78.537h-30.989zM886.574 382.557h30.989V304.02h-30.989zM886.574 539.633h30.989v-78.538h-30.989zM609.35 502.625v-310.8l-39.88 11.567-.008-.019c-1.619.536-3.32.896-5.125.896-8.993 0-16.275-7.238-16.275-16.173 0-4.237 1.664-8.05 4.343-10.93l100.378-148.38 100.378 148.38c2.679 2.88 4.343 6.693 4.343 10.93 0 8.935-7.282 16.173-16.275 16.173-1.804 0-3.506-.36-5.125-.896l-.009.019-39.88-11.567v310.8z" style="fill:#000;fill-rule:nonzero;stroke:none" transform="translate(-285.486 35.139)"/>
</svg>
