<svg xmlns="http://www.w3.org/2000/svg" viewBox="0 0 470 230" role="img" aria-labelledby="title">
  <title id="title">Verkehrszeichen 54c[100] - c: Ankündigung des Zeichens Halt</title>
  <path d="M464.156 5.79C460.39 2.056 455.384 0 450.056 0H19.943C8.947 0 0 8.865 0 19.764v190.472c0 5.279 2.072 10.242 5.839 13.973C9.606 227.945 14.615 230 19.942 230h430.115c5.327 0 10.332-2.055 14.1-5.79 3.766-3.732 5.843-8.695 5.843-13.974V19.764c0-5.279-2.077-10.242-5.844-13.973" style="fill:#000;fill-rule:nonzero;stroke:none"/>
  <path d="M465.8 210.236c0 8.603-7.06 15.604-15.743 15.604H19.942c-4.207 0-8.159-1.622-11.133-4.572-2.974-2.945-4.614-6.864-4.614-11.032V19.764c0-4.168 1.64-8.087 4.614-11.032 2.974-2.95 6.926-4.572 11.133-4.572h430.115c4.207 0 8.16 1.623 11.133 4.572a15.42 15.42 0 0 1 4.61 11.032z" style="fill:#fff;fill-rule:nonzero;stroke:none"/>
  <path d="M219.076 25.21H167.67v12.734h19.28v76.411H199.8V37.944h19.276zM229.316 54.143c0-16.178 13.235-29.29 29.557-29.29 16.327 0 29.557 13.112 29.557 29.29v33.11c0 16.178-13.23 29.29-29.557 29.29-16.322 0-29.557-13.112-29.557-29.29zm12.853 33.11c0 9.143 7.48 16.557 16.704 16.557 9.229 0 16.708-7.414 16.708-16.557v-33.11c0-9.144-7.48-16.557-16.708-16.557-9.225 0-16.704 7.413-16.704 16.557zM336.84 25.21h-28.756v89.145h12.853V82.52h15.903c15.97 0 28.916-12.83 28.916-28.655S352.81 25.21 336.84 25.21m0 44.575h-15.903V37.944h15.903c8.872 0 16.062 7.13 16.062 15.92s-7.19 15.92-16.062 15.92M99.541 91.875c1.066 13.545 13.596 24.198 28.865 24.198 15.97 0 28.916-11.69 28.916-26.108s-12.945-26.108-28.916-26.108c-8.872 0-16.062-5.987-16.062-13.37 0-7.385 7.19-13.371 16.062-13.371 7.518 0 13.873 4.38 15.622 10.188h13.063c-1.761-12.9-13.923-22.922-28.685-22.922-15.97 0-28.915 11.686-28.915 26.104 0 14.419 12.945 26.109 28.915 26.109 8.873 0 16.063 5.986 16.063 13.37s-7.19 13.37-16.063 13.37c-8.096 0-14.795-4.987-15.903-11.473zM184.816 135.734c-10.676 0-19.33 8.574-19.33 19.153v30.65c0 10.58 8.654 19.153 19.33 19.153s19.33-8.573 19.33-19.152v-30.651c0-10.58-8.654-19.153-19.33-19.153m9.665 49.804c0 5.287-4.33 9.576-9.665 9.576-5.336 0-9.665-4.289-9.665-9.576v-30.651c0-5.288 4.329-9.577 9.665-9.577s9.665 4.29 9.665 9.577zM314.972 155.153a19.34 19.34 0 0 0-14.498 6.494 19.36 19.36 0 0 0-14.498-6.494c-3.356 0-6.711 1.269-9.665 3.361v-2.404h-9.665V204h9.665v-29.69c0-5.292 4.325-9.58 9.665-9.58 5.336 0 9.666 4.288 9.666 9.58V204h9.665v-29.69c0-5.292 4.325-9.58 9.665-9.58 5.336 0 9.66 4.288 9.66 9.58V204h9.666v-29.69c0-10.58-8.654-19.157-19.326-19.157M144.356 136.957l-10.63 11.095v13.807l10.63-11.037V204h9.665v-67.043zM234.471 135.734c-10.672 0-19.326 8.574-19.326 19.153v30.65c0 10.58 8.654 19.153 19.326 19.153 10.676 0 19.33-8.573 19.33-19.152v-30.651c0-10.58-8.654-19.153-19.33-19.153m9.665 49.804c0 5.287-4.325 9.576-9.665 9.576-5.336 0-9.66-4.289-9.66-9.576v-30.651c0-5.288 4.324-9.577 9.66-9.577 5.34 0 9.665 4.29 9.665 9.577z" style="fill:#000;fill-rule:nonzero;stroke:none"/>
</svg>
