<svg xmlns="http://www.w3.org/2000/svg" xml:space="preserve" viewBox="0 0 960 960" role="img" aria-labelledby="title">
  <title id="title">Verkehrszeichen 52.14b - 14b: Verbot für Fußgänger</title>
  <path fill="#ec1c24" fill-rule="evenodd" d="M481.562 3.134C745.756 3.134 960 217.38 960 481.562 960 745.768 745.756 960 481.562 960 217.38 960 3.134 745.768 3.134 481.562 3.134 217.38 217.38 3.134 481.562 3.134" clip-rule="evenodd"/>
  <path fill="#fff" fill-rule="evenodd" d="M481.562 125.275c-196.708 0-356.286 159.591-356.286 356.287 0 196.72 159.577 356.284 356.286 356.284 196.708 0 356.298-159.564 356.298-356.284-.001-196.696-159.59-356.287-356.298-356.287" clip-rule="evenodd"/>
  <path fill="#231f20" fill-rule="evenodd" d="m383.787 717.206-5.354 11.366a227 227 0 0 1-4.945 9.469 188 188 0 0 1-3.572 6.211 138 138 0 0 1-11.262-2.48 159 159 0 0 1-13.199-3.85l1.861-7.451-20.267 2.151c-7.807-3.18-15.337-6.95-22.576-11.21a167 167 0 0 1-18.196-12.236l5.947-8.254a35.2 35.2 0 0 0 7.464 2.677c2.293.607 4.682.988 7.095 1.056 2.702.145 5.392-.343 8.096-.634 4.127-.422 8.253-1.134 12.394-1.741 3.311-.302 6.659-.724 10.021-1.251a154 154 0 0 0 9.639-1.648l-5.721-5.354c2.187-5.155 4.442-10.313 6.855-15.441 4.298-8.03 8.4-16.166 12.355-24.42 2.043-4.26 4.035-8.597 5.999-12.936 4.141-9.165 7.663-18.618 11.025-28.099 2.043-5.737 4.758-11.235 7.133-16.893 2.334-5.458 4.932-10.812 7.016-16.415 1.094-3.061 2.016-6.186 3.112-9.323 2.122-6.093 4.151-12.235 6.646-18.224 2.742-6.751 6.026-13.318 9.269-19.858 5.419-10.786 11.143-21.4 17.247-31.844a644 644 0 0 1 11.907-19.595l.065-.302-6.012-40.509c-2.955-16.586-5.169-33.308-6.711-50.106a574 574 0 0 1-1.477-19.105l.145-.16a143 143 0 0 1-3.942 4.339c-2.492 2.598-5.169 5.011-7.767 7.451a346 346 0 0 1-7.715 7.095c-3.665 3.283-7.422 6.328-11.129 9.494l-9.783 8.371c-2.334 1.953-4.682 3.958-7.016 5.83-3.507 2.821-7.081 5.433-10.628 8.096-2.557 1.899-5.09 3.811-7.527 5.775-1.926 1.542-3.812 3.047-5.658 4.603l-7.041-3.033-17.38 10.337 3.283 6.738c-2.334 2.519-5.049 4.641-8.017 6.224-3.468 1.847-7.198 3.284-11.129 3.39-2.927.104-5.868-.106-8.544-1.333-1.912-.816-3.572-2.163-5.117-3.534-2.082-1.727-4.337-3.428-5.365-5.987-.753-1.766-.924-3.691-.856-5.604.038-2.794.71-5.577 2.293-7.924 1.662-2.492 4.524-3.691 6.975-5.313 4.219-2.756 8.849-4.774 13.569-6.673 3.229-1.279 6.855-1.7 9.981-3.428.593-.329 1.306-.528 1.847-1.094.686-.713.975-1.662 1.042-2.666l.196-3.52 49.026-39.44 4.733-9.796c3.099-6.382 6.04-12.818 9.35-19.107 3.469-6.592 7.239-13.066 11.037-19.514 3.85-6.528 7.095-13.49 11.945-19.372 3.125-3.811 6.594-7.345 10.405-10.509a186 186 0 0 1 11.643-7.951 173 173 0 0 1 5.723-3.428l-1.2-5.209c-.832.199-1.662.264-2.453.305-.909.079-1.807.185-2.636-.041-.634-.145-1.241-.381-1.728-.792-.528-.408-.846-1.015-1.175-1.581-.765-1.624-1.478-3.245-2.109-4.932-.949-2.295-1.727-4.668-2.44-7.094l-7.965.911 1.477-15.337-3.613-1.621.185-8.438-15.19.079 14.505-14.926c.343-3.798.871-7.609 1.622-11.42a336 336 0 0 0 1.504-6.632 235 235 0 0 0 1.924-10.811 162 162 0 0 1 20.307-2.415c4.075-.158 8.175-.183 12.329-.158 5.459.133 10.958.383 16.456.871l1.847 6.567 1.358 5.802 2.375 7.081 10.1.223a87 87 0 0 1 1.2 6.752c.236 1.833.381 3.653.501 5.459l-9.008 3.243a94 94 0 0 1-.078 8.414c-.065 1.08.145 2.161-.264 3.15-.487.713-.977 1.371-1.557 1.964a11 11 0 0 1-1.648 1.463l3.27 21.969c5.816 2.492 11.725 4.627 17.789 6.486 5.051 1.583 10.245 2.704 15.375 4.037 2.94.871 5.987 1.344 8.847 2.53 1.809.778 3.588 1.635 5.288 2.704 1.991 1.319 3.691 2.981 5.498 4.51 2.492 2.228 4.644 4.839 7.228 6.948 1.66 1.384 3.428 2.625 5.169 3.956 2.307 1.727 4.682 3.351 6.935 5.117a810 810 0 0 1 24.869 25.555 805 805 0 0 1 21.467 24.301c.146 1.438.317 2.861.421 4.26.251 4.179-.274 8.398-.274 12.5-.027 5.049.236 10.101.381 15.111.119 5.024.343 9.995.422 14.965 0 3.284-.186 6.554 0 9.799l2.097 16.126 1.583 10.958-6.963 2.334a95 95 0 0 1 3.283 12.473c.674 3.771 1.728 7.516 1.346 11.314-.329 2.94-1.452 5.696-2.439 8.452-1.662 4.483-3.283 9.007-6.251 12.726-2.571 3.164-5.512 6.026-9.111 7.832-1.792.909-3.481 2.571-5.552 2.043-1.317-.302-2.451-1.055-3.164-2.189-.908-1.316-.713-2.938-.606-4.483.119-1.659.99-3.136 1.478-4.747.473-1.739 1.172-3.441 1.463-5.272.487-1.926.566-3.958.145-5.908-.367-1.594-1.001-3.139-1.912-4.497a8.41 8.41 0 0 1-2.675 7.385c-.753.686-1.385 1.885-2.48 1.556-.713-.199-1.066-.871-1.409-1.477-.963-1.518-.291-3.349-.291-5.09-.079-2.783 0-5.579.448-8.36.449-2.862 1.502-5.658 2.267-8.479 1.004-2.677 1.728-5.512 2.189-8.374.37-2.717.515-5.459.395-8.215l-8.359-1.501c.384-5.433.634-10.893.767-16.39.145-8.362-.04-16.774-.66-25.174a270 270 0 0 0-3.863-29.774 230 230 0 0 0-14.703-9.375 232 232 0 0 0-17.628-9.165l-1.741 59.404 29.206 85.221-7.277 4.075a441 441 0 0 0 3.955 21.929c1.662 8.068 3.586 16.02 5.656 23.931 1.702 6.711 3.495 13.411 5.538 20.003 1.173 3.877 2.269 7.767 3.732 11.539 1.094 2.928 2.334 5.787 3.651 8.624 2.151 4.826 4.629 9.453 7.162 14.056a253 253 0 0 0 11.615 19.41c4.878 7.527 10.207 14.807 15.85 21.769l9.045 12.592c3.574 5.658 7.279 11.263 11.036 16.814 4.075 6.051 8.178 12.052 12.448 17.971l-6.039 6.516-6.632 7.119a65 65 0 0 1 3.85 7.16l2.823 8.096 4.284 11.868-7.636 11.907-7.66-1.912a107 107 0 0 1-4.021 12.394 96 96 0 0 1-6.079 12.476c-2.359.408-4.693.71-7.027.975-5.236.606-10.522.938-15.759.976l-20.463.158.079-8.676a43 43 0 0 0 3.401-.567 36.7 36.7 0 0 0 7.028-1.807 36.5 36.5 0 0 0 5.327-2.359l13.859-35.154-10.101.329c-1.319-2.438-2.625-4.864-3.996-7.277-2.56-4.404-5.459-8.585-8.058-12.962-1.515-2.479-2.899-5.076-4.403-7.568-1.886-2.981-4.035-5.737-5.882-8.743-2.451-4.442-4.904-8.9-7.41-13.292a841 841 0 0 0-9.097-15.19l-7.952-11.92-1.991-3.534-4.866-8.438c-1.924-3.39-3.877-6.776-5.762-10.245-3.243-5.895-6.211-11.961-9.375-17.907-5.617-10.311-11.947-20.227-17.445-30.591l-11.156-21.967-5.233-10.59a883 883 0 0 0-13.042 18.62c-6.21 9.149-12.593 18.156-18.118 27.69-4.298 7.343-8.294 14.808-11.88 22.454a420 420 0 0 0-8.729 20.835 334 334 0 0 0-4.72 12.856l-5.525 12.435a272 272 0 0 1-2.821 7.305c-1.98 4.787-4.497 9.336-6.382 14.135-1.809 4.549-3.152 9.191-4.747 13.792l-4.301 13.003a262 262 0 0 0-6.67 20.596c-1.003 3.627-1.953 7.212-2.77 10.825-2.426-.343-4.799-.79-7.133-1.437-2.341-.562-4.595-1.313-6.785-2.184" clip-rule="evenodd"/>
</svg>
