<svg xmlns="http://www.w3.org/2000/svg" viewBox="0 0 1000 873.516" role="img" aria-labelledby="title">
  <title id="title">Verkehrszeichen 50.6a - 6a: Bahnübergang mit Schranken Hinweis: Dieses Zeichen kündigt einen durch Schranken gesicherten Eisenbahnübergang an.</title>
  <path d="M-300.152-773.181c14.06-24.325 37.053-24.325 51.1 0L219.718 37.866c14.048 24.312 2.55 44.2-25.557 44.2l-937.475.025c-28.107 0-39.604-19.888-25.544-44.2z" style="fill:#ee1c23;fill-rule:nonzero;stroke:none" transform="translate(774.861 791.425)"/>
  <path d="m-613.93-21.922 678.705-.025-339.37-587.174z" style="fill:#fff;fill-rule:nonzero;stroke:none" transform="translate(774.861 791.425)"/>
  <path d="M-105.005-113.206h-21.109v-95.437h20.665v-20.541h-20.665v-27.467s-5.717-18.804-13.875-18.804c-8.157 0-13.875 18.804-13.875 18.804v27.467h-39.555v-27.467s-5.717-18.804-13.875-18.804c-8.157 0-13.875 18.804-13.875 18.804v27.467h-39.554v-27.467s-5.718-18.804-13.875-18.804-13.875 18.804-13.875 18.804v27.467h-39.555v-27.467s-5.718-18.804-13.875-18.804-13.875 18.804-13.875 18.804v27.467h-39.555v-27.467s-5.718-18.804-13.875-18.804-13.875 18.804-13.875 18.804v27.467h-21.564v20.541h21.564v95.437h-21.12v20.53h21.12v46.282h27.75v-46.283h39.555v46.283h27.75v-46.283h39.555v46.283h27.75v-46.283h39.554v46.283h27.75v-46.283h39.555v46.283h27.75v-46.283h21.109zm-290.328-95.437h39.555v95.437h-39.555zm67.305 0h39.555v95.437h-39.555zm67.305 0h39.554v95.437h-39.554zm67.304 0h39.555v95.437h-39.555z" style="fill:#000;fill-rule:nonzero;stroke:none" transform="translate(774.861 791.425)"/>
</svg>
