<svg xmlns="http://www.w3.org/2000/svg" viewBox="0 0 960 960" role="img" aria-labelledby="title">
  <title id="title">Verkehrszeichen 52.4d - 4d: Ende des Überholverbotes für Lastkraftfahrzeuge</title>
  <path d="M765.389 55.63c0-265.102 214.903-480 480-480s480 214.898 480 480c0 265.088-214.904 480-480 480s-480-214.912-480-480" style="fill:#000;fill-rule:nonzero;stroke:none" transform="translate(-765.389 424.37)"/>
  <path d="M1245.389 519.306c256.081 0 463.675-207.608 463.675-463.676 0-256.082-207.594-463.676-463.675-463.676-256.068 0-463.676 207.594-463.676 463.676 0 256.068 207.608 463.676 463.676 463.676" style="fill:#fff;fill-rule:nonzero;stroke:none" transform="translate(-765.389 424.37)"/>
  <path d="m1520.346-40.683 34.396 65.283h14.493c8.46 0 15.312 6.848 15.312 15.314v84.928c0 8.466-6.852 15.314-15.312 15.314 0 0-4.244.595-11.137 1.535v27.17c0 7.042-5.714 12.755-12.76 12.755h-9.75c-7.045 0-12.76-5.713-12.76-12.755V146.34c-29.846 3.79-65.545 7.927-79.345 7.982-13.814.055-49.513-4.192-79.36-7.982v22.521c0 7.042-5.714 12.755-12.76 12.755h-9.75c-7.045 0-12.76-5.713-12.76-12.755v-27.17c-6.892-.94-11.136-1.535-11.136-1.535-8.46 0-15.312-6.848-15.312-15.314V39.914c0-8.466 6.851-15.314 15.312-15.314h14.493l34.396-65.283zm19.126 65.283-27.281-51.78h-137.43L1347.48 24.6zM1181.674-150.055H942.208l-32.649 32.635v257.77h31.525v28.511c0 7.042 5.714 12.755 12.76 12.755h9.75c7.045 0 12.76-5.713 12.76-12.755V140.35h45.768c1.803 9.753 18.932 17.403 39.818 17.403 20.901 0 38.03-7.65 39.819-17.403h45.768v28.511c0 7.042 5.715 12.755 12.76 12.755h9.75c7.046 0 12.76-5.713 12.76-12.755V140.35h31.525v-257.77zM875.33 204.816h745.9v-18.012h-745.9z" style="fill:#999;fill-rule:nonzero;stroke:none" transform="translate(-765.389 424.37)"/>
  <path d="m970.667 440.092 659.204-659.193-109.747-109.745L860.92 330.346z" style="fill:#000;fill-rule:nonzero;stroke:none" transform="translate(-765.389 424.37)"/>
</svg>
