<svg xmlns="http://www.w3.org/2000/svg" viewBox="0 0 960 960" role="img" aria-labelledby="title">
  <title id="title">Verkehrszeichen 53.26 - 26: Fahrradstraße Siehe: DE:Key:bicycle_road</title>
  <path d="M63.154 1.874h837.44c33.867 0 61.28 27.413 61.28 61.28v837.44c0 33.848-27.413 61.28-61.28 61.28H63.155c-33.867 0-61.28-27.432-61.28-61.28V63.155c0-33.867 27.413-61.28 61.28-61.28" style="fill:#fff;fill-opacity:1;fill-rule:nonzero;stroke:none;stroke-width:3.76294;stroke-linecap:butt;stroke-linejoin:miter;stroke-miterlimit:22.926;stroke-dasharray:none;stroke-opacity:1" transform="translate(-1.874 -1.874)"/>
  <path d="M481.855 63.154c197.423 0 357.46 160.037 357.46 357.46 0 197.403-160.037 357.403-357.46 357.403s-357.422-160-357.422-357.403c0-197.423 160-357.46 357.422-357.46" style="fill:#fff;fill-opacity:1;fill-rule:nonzero;stroke:none;stroke-width:18.8147" transform="translate(-1.874 -1.874)"/>
  <path d="M122.89 821.084v33.415h28.448v12.399H122.89v43.913h-15.164V808.685h46.83v12.399m42.163 53.246h-8.316c-4.384 0-7.507 1.015-9.407 3.066-1.9 2.032-2.841 5.4-2.841 10.066 0 4.384.62 7.639 1.881 9.765 1.28 2.145 3.462 3.217 6.566 3.217q3.36 0 5.701-1.467a11.9 11.9 0 0 0 3.725-3.575c.922-1.393 1.6-2.954 2.032-4.666.433-1.694.659-3.274.659-4.742zm-11.665-28.599c-2.05 0-4.497.245-7.375.734-2.86.49-5.965 1.317-9.257 2.483l-3.65-11.1c2.822-1.167 6.19-2.183 10.14-3.048 3.933-.885 7.809-1.317 11.59-1.317 9.05 0 15.372 1.957 18.966 5.908 3.612 3.932 5.4 10.047 5.4 18.306v53.114h-9.765l-2.484-8.617c-1.373 2.822-3.33 5.212-5.908 7.15-2.577 1.937-6.114 2.916-10.573 2.916-2.935 0-5.645-.395-8.185-1.186a15.3 15.3 0 0 1-6.566-3.988c-1.844-1.9-3.274-4.365-4.29-7.376-1.035-3.01-1.543-6.81-1.543-11.382 0-8.561 2.22-14.714 6.642-18.458 4.421-3.744 11.364-5.606 20.79-5.606h7.733v-5.682c0-2.823-.245-5.1-.734-6.793-.489-1.712-1.204-2.991-2.182-3.875-.979-.866-2.183-1.45-3.65-1.75-1.45-.282-3.161-.433-5.1-.433m44.648 65.08V808.685h14.3v33.697c3.988-5.926 9.18-8.9 15.615-8.9 6.322 0 11.158 1.976 14.507 5.909 3.349 3.95 5.042 10.442 5.042 19.473v51.947h-14.3V858.15c0-5.155-.752-8.636-2.276-10.442-1.505-1.788-3.518-2.69-6.04-2.69q-2.2 0-4.458.79c-1.506.545-2.842 1.467-4.008 2.784-1.185 1.317-2.145 3.03-2.916 5.174-.772 2.145-1.167 4.76-1.167 7.883v49.163m79.06-63.613c-3.99 0-6.811 1.938-8.467 5.832s-2.484 8.862-2.484 14.883v42.897H297.81v-75.86h9.934l2.333 11.815c1.355-3.707 3.236-6.83 5.607-9.407 2.39-2.578 5.682-3.876 9.859-3.876 1.938 0 3.537.17 4.817.508 1.26.338 2.615.752 4.082 1.242l-3.066 13.866c-1.75-.79-3.312-1.298-4.666-1.543-1.374-.244-2.578-.357-3.65-.357m47.996 0c-3.989 0-6.811 1.938-8.467 5.832s-2.483 8.862-2.483 14.883v42.897h-14.28v-75.86h9.915l2.333 11.815c1.354-3.707 3.236-6.83 5.606-9.407 2.39-2.578 5.682-3.876 9.86-3.876 1.937 0 3.555.17 4.816.508s2.615.752 4.083 1.242l-3.067 13.866c-1.75-.79-3.312-1.298-4.666-1.543-1.374-.244-2.578-.357-3.65-.357m53.847 27.131h-8.316c-4.384 0-7.507 1.015-9.407 3.066-1.9 2.032-2.841 5.4-2.841 10.066 0 4.384.62 7.639 1.881 9.765 1.28 2.145 3.462 3.217 6.567 3.217q3.358 0 5.7-1.467a11.9 11.9 0 0 0 3.726-3.575c.922-1.393 1.599-2.954 2.032-4.666.433-1.694.658-3.274.658-4.742zm-11.665-28.599c-2.05 0-4.497.245-7.375.734-2.86.49-5.964 1.317-9.257 2.483l-3.65-11.1c2.822-1.167 6.19-2.183 10.141-3.048 3.932-.885 7.808-1.317 11.59-1.317 9.05 0 15.371 1.957 18.965 5.908 3.613 3.932 5.4 10.047 5.4 18.306v53.114h-9.765l-2.483-8.617a19.5 19.5 0 0 1-5.908 7.15c-2.578 1.937-6.115 2.916-10.574 2.916-2.935 0-5.645-.395-8.184-1.186a15.3 15.3 0 0 1-6.567-3.988c-1.844-1.9-3.274-4.365-4.29-7.376-1.034-3.01-1.542-6.81-1.542-11.382 0-8.561 2.22-14.714 6.641-18.458 4.422-3.744 11.364-5.606 20.79-5.606h7.733v-5.682c0-2.823-.244-5.1-.734-6.793-.489-1.712-1.204-2.991-2.182-3.875-.978-.866-2.183-1.45-3.65-1.75-1.468-.282-3.16-.433-5.099-.433m66.812 54.713c1.843 0 3.48-.414 4.89-1.242a10.8 10.8 0 0 0 3.5-3.273c.922-1.374 1.6-2.917 2.032-4.685.452-1.75.659-3.5.659-5.25v-39.53c-3.105-.77-5.833-1.166-8.166-1.166-2.728 0-4.967.527-6.716 1.6s-3.124 2.803-4.159 5.174c-1.016 2.39-1.712 5.55-2.107 9.482-.395 3.951-.583 8.73-.583 14.375 0 4.873.188 8.88.583 12.041s.997 5.663 1.825 7.507c.828 1.863 1.92 3.142 3.274 3.876 1.373.734 3.03 1.091 4.967 1.091m-25.23-25.964c0-7.394.583-13.697 1.75-18.89 1.166-5.212 2.86-9.464 5.098-12.775 2.24-3.312 4.91-5.682 8.015-7.15 3.123-1.467 6.68-2.182 10.668-2.182 1.938 0 3.8.244 5.607.715a32 32 0 0 1 5.174 1.9v-27.413h14.167v102.126h-9.783l-2.484-8.316c-1.449 2.803-3.556 5.155-6.265 6.999-2.728 1.844-6.416 2.766-11.1 2.766q-4.657 0-8.524-1.75c-2.577-1.166-4.798-3.18-6.641-6.058-1.844-2.86-3.255-6.736-4.234-11.59-.978-4.873-1.448-10.988-1.448-18.382m85.494 37.78c-4.968 0-9.22-.602-12.776-1.825-3.537-1.223-6.284-2.446-8.24-3.726l4.666-10.93c3.123 1.655 5.926 2.746 8.39 3.273 2.484.546 4.855.809 7.075.809 3.218 0 5.776-.81 7.677-2.408 1.881-1.6 2.84-4.102 2.84-7.507 0-1.863-.338-3.444-1.034-4.742-.677-1.317-1.6-2.483-2.766-3.518q-1.75-1.524-4.007-2.766a442 442 0 0 0-4.742-2.559 103 103 0 0 1-5.832-3.123 23.3 23.3 0 0 1-5.325-4.233c-1.618-1.712-2.916-3.726-3.95-6.059q-1.525-3.5-1.525-8.466c0-4.083.734-7.45 2.183-10.141 1.467-2.672 3.311-4.817 5.55-6.416a21.7 21.7 0 0 1 7.356-3.424c2.691-.678 5.231-1.016 7.677-1.016q7.875 0 12.982 2.032c3.405 1.373 5.983 2.671 7.733 3.95l-4.817 10.932c-3.123-1.75-5.889-2.991-8.316-3.725-2.427-.715-4.873-1.091-7.3-1.091-2.521 0-4.61.79-6.265 2.333-1.656 1.561-2.484 3.612-2.484 6.133s1.11 4.59 3.35 6.209c2.238 1.6 4.91 3.18 8.033 4.741a140 140 0 0 1 6.34 3.5 27.9 27.9 0 0 1 5.984 4.666c1.806 1.844 3.255 4.007 4.384 6.49 1.11 2.484 1.674 5.514 1.674 9.126 0 4.177-.715 7.752-2.126 10.724q-2.117 4.43-5.531 7.282c-2.296 1.9-4.911 3.273-7.884 4.139-2.973.884-5.964 1.336-8.974 1.336m43.913-65.663h-10.499l1.317-11.666h9.182v-16.048h14.3v16.048h15.747v11.666h-15.748v44.647c0 2.822.49 5.005 1.449 6.566.978 1.562 2.634 2.333 4.967 2.333 1.26 0 2.502-.131 3.725-.376 1.223-.226 2.653-.696 4.309-1.374l3.631 10.499c-2.427 1.072-4.835 1.9-7.206 2.465-2.39.602-4.854.903-7.375.903-6.228 0-10.744-1.938-13.566-5.776s-4.233-8.73-4.233-14.657m68.41-44.628c-3.989 0-6.81 1.938-8.466 5.832s-2.484 8.862-2.484 14.883v42.897h-14.3v-75.86h9.935l2.333 11.815c1.355-3.707 3.236-6.83 5.607-9.407 2.39-2.578 5.682-3.876 9.859-3.876 1.938 0 3.537.17 4.816.508 1.26.338 2.615.752 4.083 1.242l-3.067 13.866c-1.75-.79-3.311-1.298-4.666-1.543-1.373-.244-2.577-.357-3.65-.357m53.848 27.131h-8.316c-4.384 0-7.507 1.015-9.408 3.066-1.9 2.032-2.84 5.4-2.84 10.066 0 4.384.62 7.639 1.88 9.765 1.28 2.145 3.463 3.217 6.567 3.217q3.36 0 5.7-1.467a11.9 11.9 0 0 0 3.726-3.575c.922-1.393 1.6-2.954 2.032-4.666.433-1.694.659-3.274.659-4.742zm-11.665-28.599c-2.051 0-4.497.245-7.376.734-2.86.49-5.964 1.317-9.257 2.483l-3.65-11.1c2.823-1.167 6.19-2.183 10.142-3.048 3.932-.885 7.808-1.317 11.59-1.317 9.05 0 15.37 1.957 18.965 5.908 3.612 3.932 5.4 10.047 5.4 18.306v53.114h-9.765l-2.484-8.617c-1.373 2.822-3.33 5.212-5.908 7.15-2.577 1.937-6.115 2.916-10.574 2.916-2.935 0-5.644-.395-8.184-1.186a15.3 15.3 0 0 1-6.566-3.988c-1.844-1.9-3.274-4.365-4.29-7.376-1.035-3.01-1.543-6.81-1.543-11.382 0-8.561 2.22-14.714 6.642-18.458 4.421-3.744 11.364-5.606 20.79-5.606h7.733v-5.682c0-2.823-.245-5.1-.734-6.793-.49-1.712-1.204-2.991-2.183-3.875-.978-.866-2.182-1.45-3.65-1.75-1.448-.282-3.16-.433-5.098-.433m99.059 42.183c0 4.383-.565 8.09-1.675 11.157-1.129 3.067-2.634 5.55-4.534 7.45a16.5 16.5 0 0 1-6.698 4.083q-3.867 1.242-8.24 1.242c-2.54 0-5.137-.339-7.809-1.035-2.672-.677-4.986-1.543-6.943-2.615l3.952-10.65c1.655.678 3.198 1.186 4.666 1.525 1.467.338 3.104.508 4.967.508 2.52 0 4.44-.866 5.757-2.615q1.975-2.625 1.975-8.467c0-2.521-.545-4.666-1.618-6.416a22.7 22.7 0 0 0-3.932-4.816 55 55 0 0 0-5.099-4.234 36.6 36.6 0 0 1-5.117-4.515c-1.562-1.656-2.86-3.575-3.932-5.776-1.073-2.183-1.619-4.836-1.619-7.94 0-3.123.772-5.663 2.277-7.658a53.6 53.6 0 0 1 4.873-5.625 53.5 53.5 0 0 0 4.892-5.607q2.258-2.991 2.258-7.677c0-3.104-.678-5.738-2.032-7.864-1.374-2.145-3.65-3.217-6.868-3.217-1.072 0-2.182.15-3.349.432q-1.75.452-3.217 1.976c-.96 1.016-1.75 2.54-2.333 4.515-.583 1.995-.866 4.704-.866 8.11v78.626h-14.299v-79.06c0-4.778.64-8.86 1.9-12.266 1.261-3.406 2.954-6.19 5.1-8.392q3.217-3.274 7.506-4.741c2.879-.96 5.965-1.449 9.276-1.449q10.95 0 16.482 6.266c3.706 4.176 5.55 9.633 5.55 16.35 0 4.176-.715 7.45-2.126 9.84s-2.935 4.402-4.59 6.058a98 98 0 0 0-4.592 4.892c-1.41 1.599-2.126 3.706-2.126 6.34q0 2.483 1.694 4.46c1.11 1.298 2.464 2.615 4.082 3.932a151 151 0 0 0 5.325 4.158c1.938 1.448 3.706 3.142 5.325 5.023 1.599 1.9 2.953 4.12 4.082 6.642 1.11 2.54 1.675 5.55 1.675 9.05m37.498-42.917c-1.562 0-2.992.245-4.309.734-1.317.49-2.446 1.505-3.424 3.067-.979 1.543-1.769 3.838-2.409 6.848q-.96 4.516-1.241 11.967h22.615c-.095-4.478-.357-8.204-.809-11.157-.433-2.973-1.091-5.287-1.957-6.943-.884-1.656-1.994-2.822-3.368-3.5-1.354-.677-3.048-1.016-5.098-1.016m-11.534 32.681c.113 5.344.565 9.54 1.393 12.55q1.241 4.515 3.217 6.773c1.298 1.505 2.84 2.446 4.59 2.785s3.65.508 5.683.508c4.779 0 9.934-1.374 15.465-4.083l4.234 10.649c-2.24 1.26-5.193 2.484-8.9 3.65-3.687 1.167-7.582 1.75-11.665 1.75-3.593 0-7.112-.49-10.517-1.468-3.387-.978-6.416-2.84-9.031-5.606-2.634-2.785-4.742-6.642-6.36-11.61-1.599-4.966-2.408-11.382-2.408-19.247 0-14.299 2.107-24.684 6.284-31.157s10.8-9.708 19.83-9.708c4.573 0 8.43.79 11.534 2.333 3.105 1.562 5.626 3.876 7.507 6.943 1.9 3.066 3.274 6.83 4.102 11.307s1.223 9.577 1.223 15.315v8.316" style="fill:#000;fill-opacity:1;fill-rule:nonzero;stroke:none;stroke-width:18.8147" transform="translate(-1.874 -1.874)"/>
  <path d="M1042 230.03C1042 33.41 1201.409-126 1398.046-126c196.64 0 356.045 159.41 356.045 356.03 0 196.63-159.405 356.042-356.045 356.042-196.637 0-356.046-159.411-356.046-356.041" style="fill:#009fe3;fill-opacity:1;fill-rule:nonzero;stroke:none;stroke-width:.741752" transform="translate(-923.526 187.773)scale(1.00392)"/>
  <path d="M1664.293 207.388c-22.253-22.25-51.85-34.513-83.322-34.513-15.073 0-29.485 2.88-42.748 8.065l-27.295-60.695 11.022-17.478c19.324 3.91 38.4 7.716 39.438 7.716 10.8 0 19.553-8.755 19.553-19.546s-8.753-19.536-19.553-19.536l-80.591.072h-.01c-6.298 0-11.393 5.113-11.393 11.409s5.095 11.398 11.393 11.398v.113s11.968 2.449 26.679 5.442l-8.856 14.032h-207.558a26706 26706 0 0 0 8.928-26.777c.062-.186.082-.371.123-.556.05-.196.113-.401.133-.597.03-.205.021-.401.021-.596.01-.206.03-.402.02-.597-.02-.195-.062-.391-.102-.586-.031-.186-.052-.38-.103-.556-.041-.195-.123-.37-.195-.545-.072-.186-.123-.37-.206-.545-.093-.165-.205-.32-.298-.484-.102-.165-.195-.34-.318-.504-.113-.144-.257-.278-.39-.422-.134-.143-.247-.298-.4-.432-.145-.134-.32-.237-.473-.35-.165-.123-.309-.246-.483-.35-.175-.102-.37-.174-.565-.256-.165-.082-.33-.175-.514-.247l-33.85-11.769 10.14-26.603 81.61-.905 24.151 21.84a6.04 6.04 0 0 0 8.537-.432c2.24-2.469 2.044-6.296-.431-8.539l-25.909-23.434-1.756-1.585-2.364.032-88.091.977-4.11.041-17.505 45.932 5.886 2.048 34.086 11.86-30.665 92c-13.489-5.267-27.974-8.055-42.89-8.055-64.988 0-117.843 52.866-117.843 117.84 0 31.479 12.255 61.065 34.507 83.326 22.262 22.252 51.86 34.514 83.336 34.514 31.477 0 61.063-12.262 83.325-34.514 22.252-22.26 34.518-51.847 34.518-83.326s-12.266-61.065-34.518-83.327a118.3 118.3 0 0 0-29.36-21.459c2.856-8.559 5.742-17.22 8.557-25.666l89.654 95.702c-6.184 7.613-9.904 17.292-9.904 27.847 0 11.82 4.603 22.93 12.965 31.294 8.363 8.363 19.478 12.962 31.302 12.962 1.767 0 3.514-.134 5.24-.34l2.208 9.855h-14.362V351.4h39.737v-13.817h-18.296l-2.507-11.192a44.05 44.05 0 0 0 19.283-11.285 43.87 43.87 0 0 0 12.255-23.589l20.002.762c.401 30.892 12.585 59.871 34.477 81.762 22.251 22.252 51.848 34.514 83.327 34.514 31.473 0 61.069-12.262 83.322-34.514 22.26-22.26 34.521-51.847 34.521-83.326s-12.26-61.065-34.521-83.327zm-382.559 14.66c18.348 18.342 28.446 42.733 28.446 68.667 0 53.545-43.568 97.112-97.112 97.112-25.94 0-50.327-10.103-68.676-28.445-18.337-18.342-28.446-42.722-28.446-68.667 0-25.934 10.11-50.325 28.446-68.667 18.349-18.342 42.737-28.444 68.676-28.444 12.647 0 24.933 2.417 36.326 7.015l-21.338 64.007c-1.623 4.403-7.992 17.006-17.114 20.43a6.04 6.04 0 0 0-3.534 7.778 6.04 6.04 0 0 0 7.777 3.539c16.241-6.09 23.967-26.891 24.285-27.775.02-.063 9.483-28.424 20.906-62.712a97.3 97.3 0 0 1 21.358 16.162m245.466-36.14c-35.052 18.055-59.923 53.155-63.58 94.283l-19.961-.76c-.986-10.165-5.434-19.599-12.749-26.922-.699-.69-1.428-1.318-2.157-1.956l74.439-118.035zm8.486 18.857 35.768 79.541-87.124-3.323c2.21-22.262 11.938-42.908 27.974-58.935a97.5 97.5 0 0 1 23.382-17.283m-144.698 60.993-9.77-10.42a33.2 33.2 0 0 1 6.688-3.323zm3.616-15.451c1.644-.237 3.309-.401 5.004-.401 4.12 0 8.106.76 11.855 2.16l-12.154 19.258zm28.54 9.135c.143.134.297.257.43.39 5.271 5.268 8.548 11.965 9.565 19.207l-21.83-.834zm-136.695-131.76h203.449l-72.816 115.455a44.3 44.3 0 0 0-17.474-3.59c-2.476 0-4.89.256-7.264.647l-4.92-22.014h15.636v-13.826h-39.727v13.826h17.012l5.291 23.66a43.9 43.9 0 0 0-11.557 5.875l-94.143-100.497c2.281-6.84 4.47-13.404 6.513-19.535zm113.159 190.026c-9.05 0-17.567-3.528-23.967-9.926-6.41-6.41-9.935-14.917-9.935-23.97 0-7.386 2.374-14.381 6.709-20.194l23.772 25.379 6.38 28.557a31 31 0 0 1-2.96.154zm9.749-1.45-5.866-26.253 29.207 1.111c-2.661 12.005-11.67 21.635-23.341 25.142m171.614 71.569c-25.94 0-50.33-10.103-68.667-28.445-17.793-17.787-27.8-41.262-28.395-66.311l96.832 3.682 5.979-.853-.23-7.664-39.77-88.419a97.1 97.1 0 0 1 34.25-6.213c25.94 0 50.33 10.102 68.673 28.444 18.337 18.342 28.44 42.733 28.44 68.667 0 53.545-43.557 97.112-97.112 97.112" style="fill:#fff;fill-rule:nonzero;stroke:none;stroke-width:.741752" transform="translate(-923.526 187.773)scale(1.00392)"/>
  <path d="M900.595 1.874H63.154c-33.867 0-61.28 27.413-61.28 61.28v837.44c0 33.848 27.413 61.28 61.28 61.28h837.44c33.867 0 61.28-27.432 61.28-61.28V63.155c0-33.867-27.413-61.28-61.28-61.28m40.847 898.72c0 22.56-18.269 40.847-40.846 40.847H63.154c-22.578 0-40.847-18.288-40.847-40.846V63.154c0-22.578 18.269-40.847 40.847-40.847h837.44c22.578 0 40.847 18.269 40.847 40.847" style="fill:#918f90;fill-opacity:1;fill-rule:nonzero;stroke:none;stroke-width:18.8147" transform="translate(-1.874 -1.874)"/>
</svg>
