<svg xmlns="http://www.w3.org/2000/svg" viewBox="0 0 1000 874.933" role="img" aria-labelledby="title">
  <title id="title">Verkehrszeichen 50.10 - 10: Schleudergefahr</title>
  <path d="M405.365-708.863c14.046-24.352 37.016-24.352 51.061 0l468.498 812.372c14.045 24.352 2.554 44.285-25.525 44.285l-936.957.012c-28.08 0-39.57-19.92-25.537-44.273z" style="fill:#ee1c23;fill-rule:nonzero;stroke:none" transform="translate(69.082 727.127)"/>
  <path d="m91.755 43.623 678.32-.012-339.173-588.146z" style="fill:#fff;fill-rule:nonzero;stroke:none" transform="translate(69.082 727.127)"/>
  <path d="m451.675-152.475-5.518 9.282c-4.468 7.504-2.011 17.205 5.48 21.685 7.492 4.468 17.194 2.012 21.662-5.492l5.727-9.627c9.651 3.518 20.747-.185 26.19-9.356l25.772-43.273c5.245-8.8 3.567-19.785-3.395-26.696l10.862-18.23c9.64-16.206 4.32-37.25-11.861-46.902l-93.52-55.813c-16.18-9.664-37.188-4.332-46.84 11.861l-10.848 18.243c-9.38-2.84-19.835.913-25.08 9.713l-25.76 43.273c-5.455 9.158-3.43 20.686 4.247 27.524l-5.74 9.627c-4.455 7.504-2.012 17.205 5.493 21.686 7.492 4.468 17.193 2.012 21.66-5.493l5.518-9.281zm55.085-76.685 10.516-17.662a9.48 9.48 0 0 0 1.05-7.22 9.43 9.43 0 0 0-4.345-5.838l-93.52-55.813a9.4 9.4 0 0 0-7.208-1.05 9.39 9.39 0 0 0-5.838 4.345L396.9-294.735z" style="fill:#000;fill-rule:evenodd;stroke:none" transform="translate(69.082 727.127)"/>
  <path d="M329.879-169.89s-90.915-3.468-92.458 30.474c-1.53 33.941 48.16 43.198 129.83 57.084 81.671 13.885 215.723 35.484 214.193 63.255-1.543 27.77-43.15 21.6-57.023 16.97 0 0-3.801 2.457-.382 6.555 4.073 4.887 17.724 11.392 51.233 8.874 61.639-4.628 46.236-50.913 23.118-63.255S482.815-79.247 401.144-91.59c-81.658-12.343-129.436-15.095-129.436-47.827 0-16.971 50.852-24.686 57.023-24.686 6.159 0 1.148-5.788 1.148-5.788" style="fill:#000;fill-rule:nonzero;stroke:none" transform="translate(69.082 727.127)"/>
  <path d="M429.396-126.05s-76.017-8.738-106.318 12.861c-38.09 27.141-25.166 39.09-7.196 51.432 17.983 12.342 51.37 16.452 48.284 31.362-3.085 14.922-30.3 15.428-73.45 0-13.478-4.814-5.135 5.147-5.135 5.147S319.017 4.78 379.064-8.796c31.843-7.195 20.55-39.595-12.33-49.876-16.478-5.159-49.309-22.118-29.277-37.027 20.032-14.922 56.504-26.228 89.372-25.722 0 0 10.787-2.567 2.567-4.629" style="fill:#000;fill-rule:nonzero;stroke:none" transform="translate(69.082 727.127)"/>
</svg>
