<svg xmlns="http://www.w3.org/2000/svg" viewBox="0 0 470 310" role="img" aria-labelledby="title">
  <title id="title">Verkehrszeichen 54i - i: Zugmaschinen, Motorkarren, selbst­fahrende Arbeits­maschinen und vierrädrige Leicht­kraftfahrzeuge dürfen überholt werden</title>
  <path d="M-340.39-226.261a19.85 19.85 0 0 0-14.102-5.821h-430.12c-10.994 0-19.94 8.918-19.94 19.882V58.03a19.72 19.72 0 0 0 5.84 14.061 19.85 19.85 0 0 0 14.1 5.826h430.12c5.323 0 10.332-2.07 14.101-5.826a19.72 19.72 0 0 0 5.84-14.06V-212.2a19.73 19.73 0 0 0-5.84-14.061" style="fill:#000;fill-rule:nonzero;stroke:none" transform="translate(804.551 232.082)"/>
  <path d="M-338.75 58.031c0 8.659-7.06 15.7-15.742 15.7h-430.12c-4.201 0-8.156-1.63-11.132-4.598a15.57 15.57 0 0 1-4.61-11.102V-212.2c0-4.191 1.638-8.135 4.61-11.102a15.68 15.68 0 0 1 11.133-4.598h430.12c4.202 0 8.156 1.635 11.132 4.598a15.59 15.59 0 0 1 4.61 11.102z" style="fill:#fff;fill-rule:nonzero;stroke:none" transform="translate(804.551 232.082)"/>
  <path d="M-516.049-68.394a64.9 64.9 0 0 1 15.28 1.831c1.012-6.835 1.608-13.985-1.813-20.465l-.353-1.047c-1.049-3.487-5.998-5.587-5.595-8.018.352-2.091-.559-5.8 0-7.845 2.623-9.59-.084-14.212-.084-14.212 1.133-3.051-.088-4.178-.613-5.49-.185-.457-2.448-1.048-3.85-1.048-2.447.352-3.845 1.048-6.292 2.096-1.05.347-2.758 1.035-4.198 1.39-2.796.7-2.708 1.179-4.807 2.226-1.398.696-2.535 3.093-1.834 3.793 1.049 1.392 4.105 0 4.894.26 0 .348.962-.088.349 1.132-.886 1.764-3.934 2.573-3.673 6.06.7.348 1.314.394 2.01.394 0 0 .5 3.076 1.314 4.618 2.708 5.143 5.945 3.487 5.945 3.487 1.398 1.048.348 6.974-.349 10.46-.7 2.792-3.497 5.231-5.247 7.323-3.149 3.139-4.895 5.578-7.695 9.065-1.045 1.395-1.746 3.139-2.095 4.534-.294.8-.495 1.606-.655 2.41a64.7 64.7 0 0 1 19.361-2.954m-61.57 64.357c0-33.91 27.567-61.399 61.57-61.399 34.008 0 61.575 27.49 61.575 61.399 0 33.905-27.567 61.394-61.575 61.394-34.003 0-61.57-27.49-61.57-61.394m61.57 33.285c18.437 0 33.386-14.904 33.386-33.285 0-18.386-14.949-33.29-33.386-33.29-18.433 0-33.382 14.904-33.382 33.29 0 18.381 14.95 33.285 33.382 33.285m95.994-18.118h-31.732a65.7 65.7 0 0 0 1.763-15.167h29.97zm-95.995-2.594c6.969 0 12.615-5.629 12.615-12.573 0-6.95-5.646-12.578-12.615-12.578-6.964 0-12.61 5.629-12.61 12.578 0 6.944 5.646 12.573 12.61 12.573m-175.503 24.04c0-14.711 11.956-26.63 26.708-26.63 14.747 0 26.703 11.919 26.703 26.63 0 14.705-11.956 26.625-26.703 26.625-14.752 0-26.708-11.92-26.708-26.626m26.708 19.227c10.65 0 19.285-8.608 19.285-19.228 0-10.624-8.635-19.232-19.285-19.232-10.655 0-19.29 8.608-19.29 19.232 0 10.62 8.635 19.228 19.29 19.228m0-9.86c5.188 0 9.395-4.196 9.395-9.368 0-5.176-4.207-9.37-9.395-9.37-5.189 0-9.4 4.194-9.4 9.37 0 5.172 4.211 9.367 9.4 9.367m196.034-91.971-.029-97.844h-96.515v79.5h-99.49v-25.628h-15.037v25.628h-20.306l-6.624 6.102 2.284 37.048c-3.699-2.624-8.228-3.051-8.228-3.051v24.06s5.47-.372 9.298-3.65l1.171 19.006h17.711a29.11 29.11 0 0 1 19.73-7.665 29.12 29.12 0 0 1 19.73 7.665h67.785c-.386-1.617-1.008-3.583-1.272-5.243-.013-.109-2.704.11-2.72.005a66.4 66.4 0 0 1-.748-9.941c0-22.36 11.18-42.116 28.27-54.014l-.013-77.27h72.384v75.25c4.622 2.841 8.85 6.19 12.62 10.042M-544.973-188.17c0-7.22-5.868-13.075-13.114-13.075-7.241 0-13.114 5.855-13.114 13.076v7.845c0 7.222 5.873 13.08 13.114 13.08 7.246 0 13.114-5.858 13.114-13.08zm-13.114 14.384c-3.619 0-6.557-2.925-6.557-6.538v-7.845c0-3.613 2.938-6.538 6.557-6.538 3.623 0 6.557 2.925 6.557 6.538v7.845c0 3.613-2.934 6.538-6.557 6.538M-591.36-201.387c-2.28 0-4.554.867-6.557 2.296v-1.643h-6.557v32.694h6.557v-20.267c0-3.613 2.935-6.538 6.557-6.538 3.619 0 6.558 2.925 6.558 6.538v20.267h6.557v-20.267c0-7.226-5.873-13.08-13.115-13.08M-721.172-167.386c2.28 0 4.555-.867 6.557-2.297v1.643h6.561l-.004-32.694h-6.557v20.272c0 3.609-2.934 6.538-6.557 6.538-3.619 0-6.557-2.93-6.557-6.538v-20.268h-6.558v20.268c0 7.221 5.873 13.076 13.115 13.076M-504.614-201.387a13.1 13.1 0 0 0-9.835 4.434 13.1 13.1 0 0 0-9.836-4.434c-2.28 0-4.555.867-6.557 2.296v-1.643h-6.558v32.694h6.558v-20.267c0-3.613 2.934-6.538 6.557-6.538 3.618 0 6.557 2.925 6.557 6.538v20.267h6.557v-20.267c0-3.613 2.935-6.538 6.557-6.538s6.557 2.925 6.557 6.538v20.267h6.558v-20.267c0-7.226-5.873-13.08-13.115-13.08M-623.243-201.258c-7.246 0-13.118 5.855-13.118 13.076v7.846c0 7.221 5.872 13.076 13.118 13.076 5.63 0 10.428-3.537 12.287-8.504l-7.598-.004a6.55 6.55 0 0 1-4.689 1.97c-3.623 0-6.561-2.925-6.561-6.538v-.654h19.675v-7.192c0-7.22-5.872-13.076-13.114-13.076m6.557 13.73h-13.118v-.654c0-3.612 2.938-6.538 6.561-6.538 3.619 0 6.557 2.926 6.557 6.538zM-650.966-200.734v1.103a13.1 13.1 0 0 0-6.557-1.756c-7.246 0-13.115 5.854-13.115 13.08v7.191c0 7.221 5.87 13.076 13.115 13.076 2.388 0 4.626-.64 6.557-1.756v1.756c0 3.613-2.939 7.192-6.557 7.192-2.7 0-5.038-1.597-6.045-3.923h-6.843c1.2 5.99 6.528 10.461 12.888 10.461 7.241 0 13.114-6.509 13.114-13.73v-32.694zm-6.557 26.156c-3.623 0-6.557-2.93-6.557-6.538v-7.191c0-3.613 2.934-6.538 6.557-6.538 3.618 0 6.557 2.925 6.557 6.538v7.191c0 3.609-2.939 6.538-6.557 6.538M-695.645-175.814c1.13 1.186 3.262 1.961 5.705 1.961 3.623 0 6.558-1.756 6.558-3.922s-2.935-3.923-6.558-3.923c-6.88 0-12.459-4.392-12.459-9.807s5.579-9.807 12.46-9.807c6.292 0 11.498 3.726 12.337 8.5l-6.935-.01c-.91-1.147-2.989-1.952-5.403-1.952-3.257 0-5.902 1.463-5.902 3.269s2.645 3.269 5.902 3.269c7.242 0 13.115 4.685 13.115 10.46 0 5.78-5.873 10.461-13.115 10.461-6.435 0-11.821-3.62-12.933-8.499zM-754.743-201.387c-5.865 0-10.873 3.86-12.548 9.157h7.305c1.196-1.572 3.11-2.615 5.243-2.615 3.623 0 6.557 2.925 6.557 6.538-1.503.93-9.836.653-9.836.653-5.793 0-10.49 4.028-10.49 9.807 0 5.776 4.697 10.461 10.49 10.461 0 0 6.503.696 9.836-2.921v2.267h6.557v-20.267c0-7.226-5.868-13.08-13.114-13.08m6.557 23.54c-1.368 5.218-9.836 3.923-9.836 3.923-1.809 0-3.933-1.63-3.933-3.923 0-2.204 2.124-3.922 3.933-3.922 0 0 9.127.247 9.836-1.308zM-384.053-201.387c-2.28 0-4.555.867-6.562 2.296v-1.643h-6.557v32.694h6.557v-20.267c0-3.613 2.939-6.538 6.562-6.538 3.618 0 6.557 2.925 6.557 6.538v20.267h6.557v-20.267c0-7.226-5.873-13.08-13.114-13.08M-450.41-201.387a13.1 13.1 0 0 0-9.836 4.434 13.1 13.1 0 0 0-9.836-4.434c-2.279 0-4.554.867-6.557 2.296v-1.643h-6.557v32.694h6.557v-20.267c0-3.613 2.935-6.538 6.557-6.538 3.62 0 6.558 2.925 6.558 6.538v20.267h6.557v-20.267c0-3.613 2.934-6.538 6.557-6.538s6.557 2.925 6.557 6.538v20.267h6.557v-20.267c0-7.226-5.873-13.08-13.114-13.08M-417.85-201.396c-7.242 0-13.115 5.855-13.115 13.076v7.846c0 7.225 5.873 13.08 13.114 13.08a13.12 13.12 0 0 0 12.292-8.504l-7.599-.008a6.54 6.54 0 0 1-4.693 1.974c-3.619 0-6.557-2.93-6.557-6.542v-.654h19.671v-7.192c0-7.221-5.868-13.076-13.114-13.076m6.556 13.73h-13.114v-.654c0-3.608 2.938-6.538 6.557-6.538 3.623 0 6.557 2.93 6.557 6.538z" style="fill:#000;fill-rule:nonzero;stroke:none" transform="translate(804.551 232.082)"/>
</svg>
