<svg xmlns="http://www.w3.org/2000/svg" viewBox="0 0 1000 874.932" role="img" aria-labelledby="title">
  <title id="title">Verkehrszeichen 50.13b - 13b: Achtung Wildwechsel</title>
  <path d="M1582.508-120.291c14.034-24.352 37.015-24.352 51.061 0l468.497 812.371c14.046 24.352 2.555 44.285-25.524 44.285l-936.957.012c-28.08 0-39.57-19.92-25.537-44.272z" style="fill:#ee1c23;fill-rule:nonzero;stroke:none" transform="translate(-1108.061 138.555)"/>
  <path d="m1268.897 632.194 678.32-.012-339.172-588.145z" style="fill:#fff;fill-rule:nonzero;stroke:none" transform="translate(-1108.061 138.555)"/>
  <path d="m1863.695 594.254-6.653-.482-.469-3.32-7.134-.963c-5.22-8.553-11.873-18.538-11.873-18.538-2.37-.481-4.48.543-5.22-1.9-4.753-15.7-19.477-37.102-20.91-39.485-1.418-2.37-2.369-2.37-2.369-2.37-13.774 2.852-27.548-5.233-34.201-15.699-7.307-11.49-7.603-22.352-8.072-39.953-.37-13.589-8.097-17.81-11.602-19.032 2.333.53 6.122 1.086 8.27.013 2.85-1.432.48-2.852.48-2.852-3.8-2.863-16.155-12.848-16.155-12.848-19.946-8.739-25.97-17.095-48.445-15.687-7.603.469-9.504 7.134-27.08 2.37-17.13-4.63-64.6-1.901-64.6-1.901-7.121 0-9.504-2.852-9.504-2.852s-9.022-7.134-14.255-12.836c-5.221-5.714-5.69-4.764-5.69-4.764s-5.073-1.69-7.134-5.233c-8.541-14.737-21.846-32.807-25.648-38.521-3.801-5.702-3.801-15.218-3.801-15.218s.222-4.555-1.556-9.134c5.542.383 13.972.889 16.762.58 4.27-.481 6.17-1.432 6.17-1.432s3.321-4.282 5.222-9.034c1.9-4.764-9.973-2.382-9.973-2.382s0 3.801-6.171 3.801c-4.049 0-10.96 1.642-15.243 2.765.654-6.468-1.864-12.269-1.864-12.269s8.553-9.516 12.355-17.6c1.777-3.79 4.912-11.33 8.282-19.316 2.221-1.975 5.924-4.32 12.145-6.838 17.575-7.134 14.724-11.898 14.724-11.898s-1.9 2.32-9.503 2.863c-5.024.358-8.418.432-9.776-1.592 1.148-2.518 2.21-4.752 3.123-6.504 5.233-9.985 9.504-12.355 9.504-12.355s-2.37-.95-3.802.469c-1.42 1.432-13.774 16.65-23.747 38.52-3.85 8.443-6.986 13.837-9.614 17.688-2.815 1-5.592.395-5.592.395-.95-11.898-1.42-12.367-2.37-24.266-.073-.938-.95.95-1.419.95-4.283 11.418-4.283 22.365-.481 34.251.148.457.37.827.617 1.173-.05.086-.099.172-.136.247-3 5.615-6.862 9.17-9.072 12.515-1.431.148-2.332.333-2.332.333s-1.432 3.333-11.874 2.851c-8.664-.395-13.774 8.085-16.625 8.566-2.851.469-14.725 5.233-14.725 5.233s-3.332-.481-4.283 3.32c-.95 3.814 4.752 4.283 4.752 4.283-3.32 7.134 9.973 7.134 9.973 7.134-3.32 3.802 12.824 2.382 12.824 2.382s-.47 2.37 8.084 2.851c8.541.47 15.675 12.368 15.675 12.368.47 5.233 9.492 21.87 9.492 21.87 6.183 24.266 2.048 38.163 4.282 59.454.334 3.185.95 6.135 1.815 8.875-12.49 2.703-23.858-.395-29.844-.79-7.122-.47-11.874 1.431-11.874 1.431-5.22 2.851-12.355 3.32-12.355 3.32-7.121-.95-9.491 6.184-9.491 6.184s-1.432 0 11.392 17.131c12.824 17.12 27.08 32.807 27.08 32.807 3.32 7.134 14.724 9.997 14.724 9.997.95 3.32 9.022 6.172 9.022 6.172l1.432 2.863 16.144-.95-3.32-4.765-.95-5.233h-9.504c3.332-4.752-6.653-2.37-6.653-2.37-4.27-2.382-19.945-16.65-23.265-25.215-3.333-8.554-9.985-20.44-9.985-20.44s6.183-2.863 19.957 2.37c15.367 5.838 34.46 5.16 44.619 4.21 24.623 9.552 57.195 5.22 66.057-.408 14.255-9.035 31.831-4.27 31.831-4.27 2.37 10.935 12.824 9.034 12.824 9.034s4.653-3.184 7.603-3.802c9.022-1.913 23.747 8.085 23.747 8.085 19.476 19.97 47.506 31.387 78.375 38.99 30.88 7.615 34.2 21.402 38.002 26.635s5.703 6.184 5.703 6.184.469-2.852 4.27 6.664c3.802 9.504 9.504 20.452 9.504 20.452 4.752 6.653 8.553 3.801 8.553 3.801l5.221 2.37 8.072.482z" style="fill:#000;fill-rule:nonzero;stroke:none" transform="translate(-1108.061 138.555)"/>
</svg>
