<svg xmlns="http://www.w3.org/2000/svg" viewBox="0 0 1000 873.024" role="img" aria-labelledby="title">
  <title id="title">Verkehrszeichen 50.8a - 8a: Fahrbahnverengung (beidseitig)</title>
  <path d="M-320.44-789.84c14.04-24.31 37.02-24.31 51.072-.012L199.123 20.749c14.04 24.299 2.55 44.176-25.53 44.176l-936.957.024c-28.08 0-39.57-19.877-25.53-44.175z" style="fill:#ee1c23;fill-rule:nonzero;stroke:none" transform="translate(794.885 808.074)"/>
  <path d="m-634.052-39.005 678.321-.025-339.179-586.842z" style="fill:#fff;fill-rule:nonzero;stroke:none" transform="translate(794.885 808.074)"/>
  <path d="M-368.162-437.545v122.17s-4.372 10.467-18.24 22.02c-13.866 11.539-20.8 32.635-20.8 32.635v174.67h61.639v-168.561s2.303-21.047 16.182-32.587c13.867-11.552 16.688-22.07 16.688-22.07v-128.277zM-221.522-437.545v122.17s4.372 10.467 18.239 22.02c13.867 11.539 20.8 32.635 20.8 32.635v174.67h-61.638v-168.561s-2.315-21.047-16.182-32.587c-13.868-11.552-16.688-22.07-16.688-22.07v-128.277z" style="fill:#000;fill-rule:nonzero;stroke:none" transform="translate(794.885 808.074)"/>
</svg>
