<svg xmlns="http://www.w3.org/2000/svg" viewBox="0 0 1000 873.019" role="img" aria-labelledby="title">
  <title id="title">Verkehrszeichen 50.10a - 10a: Seitenwind</title>
  <path d="M-320.444-792.703c14.04-24.298 37.02-24.298 51.072 0L199.116 17.893c14.051 24.298 2.561 44.175-25.53 44.175l-936.939.024c-28.09 0-39.581-19.877-25.542-44.187z" style="fill:#ee1c23;fill-rule:nonzero;stroke:none" transform="translate(794.885 810.927)"/>
  <path d="m-634.054-41.874 678.329-.012-339.177-586.838z" style="fill:#fff;fill-rule:nonzero;stroke:none" transform="translate(794.885 810.927)"/>
  <path d="M-92.093-234.067c-.603-1.933-1.638-3.005-2.561-3.62l-191.96-175.236a10 10 0 0 0-.837-.763l-.406-.37-.05.062c-.418-.308-.812-.628-1.268-.874-3.202-1.688-6.946-1.688-11.072-.308l-.012-.062-117.685 45.456 28.731 122.735.087-.025c.037.16.061.357.11.53 1.257 4.027 3.387 6.872 6.355 8.436 1.429.75 3.005 1.17 4.692 1.268l251.43 59.434c1.035.419 2.5.677 4.434.074 7.253-2.23 16.084-14.852 21.44-24.976 5.346-10.123 10.814-24.52 8.572-31.76M-410.567-365.89l89.975-34.865c-14.372 14.323-29.84 36.884-42.13 60.123-13.375 25.272-22.476 49.816-25.973 68.634z" style="fill:#000;fill-rule:nonzero;stroke:none" transform="translate(794.885 810.927)"/>
  <path d="m-376.971-242.934-2.599-.616-.012.074c-.062-.024-.135-.037-.197-.074-1.466-.776-2.599-2.389-3.338-4.815-4.655-15.062 5.973-51.823 25.838-89.397 19.877-37.562 44.286-67.057 59.36-71.7 2.426-.751 4.397-.739 5.862.037.234.123.431.308.653.468l.702.64c.813.887 1.49 2.106 1.995 3.707 4.643 15.074-5.973 51.836-25.85 89.397-23.769 44.939-50.419 72.304-62.414 72.279M-234.458-356.752l48.966 44.741c.776 11.65-5.715 33.042-17.648 55.616-11.921 22.537-25.936 39.927-36.01 45.875l-64.483-15.259c16.44-9.396 32.093-31.589 46.564-59.076 14.47-27.5 24.187-53.067 22.61-71.897M-141.551-187.441l-46.725-11.047c7.611-3.645 18.818-17.204 28.289-35.099 9.483-17.943 14.372-34.877 13.066-43.19l35.518 32.451s.788 10.431-10.099 31.023c-10.8 20.419-20.05 25.862-20.05 25.862" style="fill:#fff;fill-rule:nonzero;stroke:none" transform="translate(794.885 810.927)"/>
  <path d="M-417.944-63.45h11.428v-306.344h-11.428z" style="fill:#000;fill-rule:nonzero;stroke:none" transform="translate(794.885 810.927)"/>
</svg>
