<svg xmlns="http://www.w3.org/2000/svg" viewBox="0 0 960 960" role="img" aria-labelledby="title">
  <title id="title">Verkehrszeichen 52.8b - 8b: Fahrverbot für Motorfahrräder</title>
  <path d="M-31.8 289.877c0-265.095 214.904-480 480-480s480 214.905 480 480-214.905 480-480 480-480-214.904-480-480" style="fill:#ee1c23;fill-rule:nonzero;stroke:none" transform="translate(31.8 190.123)"/>
  <path d="M448.2 645.799c196.567 0 355.92-159.354 355.92-355.922 0-196.567-159.353-355.921-355.92-355.921-196.555 0-355.908 159.354-355.908 355.921 0 196.568 159.353 355.922 355.907 355.922" style="fill:#fff;fill-rule:nonzero;stroke:none" transform="translate(31.8 190.123)"/>
  <path d="M709.597 279.753c-20.83-20.83-48.543-32.31-78.001-32.31-5.443 0-10.775.442-16.01 1.204l-26.606-59.678 6.067-9.445c2.52.346 4.362.609 5.249.747 2.95 1.607 6.343 2.507 9.944 2.507 17.741-.041 20.774-5.235 20.816-20.816.027-11.495-9.321-20.816-20.816-20.816-2.493 0-4.848.457-7.064 1.247l-.083-.125c-38.53 13.24-73.389 12.492-73.389 12.492-5.401 0-9.792 4.39-9.792 9.806 0 5.401 4.39 9.792 9.792 9.792 10.997-.748 29.154.817 44.402 2.534l-83.444 129.854-1.066-.194c-23.088 11.55-50.8 1.164-50.8 1.164s-15.014 4.612-34.639-42.713c-23.807-57.434-43.861-66.962-69.262-76.2-9.002-3.269-18.849-5.65-28.003-6.773l5.345-22.02a5.16 5.16 0 0 0-.664-4.003 5.13 5.13 0 0 0-3.324-2.3l-23.572-4.916v-22.228l69.483-26.716 32.685 21.993c5.194 3.462 12.867-.18 14.958-2.147 2.645-2.465 6.398-12.284 2.354-15.165l-11.952-8.102-29.596-9.224c-1.344-.72-8.532 1.537-9.958 2.091l-75.038 28.863a5.16 5.16 0 0 0-3.323 4.847v30.012a5.18 5.18 0 0 0 4.127 5.083l22.464 4.681-4.501 18.531c-8.02-.041-14.722 1.302-18.794 4.335-3.463-12.243-18.586-22.713-31.176-22.963l-1.025 52.241c10.692.208 23.462-5.055 29.472-13.67.914 2.327 2.175 4.64 3.629 6.842l-8.933 38.627c-15-2.271-30.442-1.551-45.33 2.465-12.492 3.38-24.583 9.016-35.676 17.021l4.528 6.274c-22.228 16.038-36.881 39.762-41.258 66.81-4.376 27.05 2.05 54.18 18.074 76.41 16.024 22.214 39.749 36.867 66.81 41.243 27.049 4.377 44.943 3.296 76.395-18.073 34.416-23.365 41.203-62.92 41.203-62.92l7.603 1.483c6.108-33.212-2.105-62.393-19.348-86.297-12.866-17.839-30.136-30.622-49.249-38.073l5.124-15.622 140.906 111.35c-.346 1.593-.955 1.953-.97 3.657 0 .346-.72 3.864-.72 4.903 0 9.584 2.812 16.91 8.366 21.757 7.922 6.911 18.586 6.177 20.608 5.956l66.81 2.673c4.834 15.913 13.532 30.483 25.622 42.573 19.376 19.376 45.136 30.04 72.545 30.04 27.394 0 53.155-10.664 72.53-30.04 19.376-19.375 30.054-45.135 30.054-72.544h7.742c0-29.472-11.482-57.171-32.325-78.015m-505.387 8.185c17.299-12.478 38.253-17.783 59.305-15.123l-17.7 76.519-68.777-28.253c5.941-13.102 15.193-24.5 27.172-33.143m97.751 135.491c-37.352 26.952-89.676 18.476-116.628-18.877-13.046-18.101-18.281-40.191-14.708-62.212a85.5 85.5 0 0 1 3.255-13.199l69.954 28.738-1.122 4.847c-.027.125-.027.25-.041.374a6 6 0 0 0-.097.707c-.014.235-.014.457-.014.678.014.222.028.443.055.679.028.221.07.443.125.65.042.222.097.43.166.638q.105.332.25.623c.083.208.18.402.29.596.111.194.222.374.36.554.125.18.25.36.402.526.139.18.291.332.457.485.153.152.319.304.499.443.18.152.36.277.554.401.194.125.374.236.581.333.208.11.43.208.651.29.125.056.222.125.347.153.11.042.207.042.304.07.111.027.194.082.305.11.125.028.25.014.374.042.25.041.485.069.72.097q.332.02.665 0a5.6 5.6 0 0 0 1.343-.167c.208-.041.416-.11.637-.18.208-.069.416-.152.624-.235l.581-.291c.194-.11.374-.235.554-.36.194-.125.36-.263.54-.402.167-.152.319-.29.485-.457.153-.152.291-.318.43-.498.152-.18.276-.36.401-.554s.236-.374.333-.582c.11-.208.207-.43.29-.65.056-.126.125-.236.167-.361l2.312-7.063h78.168c-.153 3.213-.457 6.426-.984 9.653-3.559 22.02-15.497 41.341-33.585 54.401m18.877-116.614c9.418 13.047 14.736 28.198 15.636 43.904h-75.259l23.739-72.268c14.251 5.845 26.646 15.554 35.884 28.364m310.758-32.588c22.311 0 43.294 8.698 59.068 24.473 13.808 13.821 22.187 31.618 24.057 50.814l-45.482.928c-1.939-10.083-10.124-17.922-20.387-19.376l-14.5-31.91c1.177-2.45 1.357-5.345.166-8.018l-7.479-16.772a83 83 0 0 1 4.557-.139m-14.473 24.666c1.51 3.394 4.764 5.43 8.24 5.596l11.939 26.259-84.608-.54c4.086-11.717 10.79-22.465 19.833-31.508 9.958-9.958 22.007-17.09 35.15-20.996zm-20.4-45.759c-31.467 10.512-56.687 34.818-68.376 65.744a108 108 0 0 0-3.518 11.163l-26.37-.166 78.21-121.752zM466.036 378.17c-.055 0-3.49.415-7.575-.485a24.5 24.5 0 0 0 4.432.457l3.227.014zm1.205 0 63.875.401c.152.72.318 1.44.485 2.16zm164.354 63.14c-22.312 0-43.294-8.698-59.069-24.472-8.199-8.2-14.473-17.81-18.614-28.281l56.756 2.271a3.46 3.46 0 0 0 3.6-3.324 3.445 3.445 0 0 0-3.323-3.587l-59.47-2.382a109 109 0 0 1-.79-2.84l94.607.596c12.659.084 23.101-9.57 24.278-21.937l45.524-.928c.014.457.028.9.028 1.343 0 46.064-37.463 83.541-83.527 83.541" style="fill:#000;fill-rule:nonzero;stroke:none" transform="translate(31.8 190.123)"/>
</svg>
