<svg xmlns="http://www.w3.org/2000/svg" xml:space="preserve" viewBox="0 0 1000 873.008" role="img" aria-labelledby="title">
  <title id="title">Verkehrszeichen 50.7a[10] - 7a: Starke Steigung ACHTUNG: Das Vorzeichen bei incline=* bezieht sich auf die Zeichenrichtung der Linie in OSM. Positive Werte stehen für einen Anstieg in Zeichenrichtung, negative für ein Gefälle in</title>
  <path fill="#e20613" fill-rule="evenodd" d="M33.409 872.969c-11.988 0-23.208-2.571-28.852-12.846-4.43-8.226-3.84-18.032.712-26.047L474.881 17.829C480.402 8.123 489.329.231 500.817.375c10.196.111 19.146 6.323 24.222 15.039l469.689 816.793c4.319 7.547 7.915 19.347 2.649 28.496-4.797 8.37-14.203 12.311-23.631 12.311z" clip-rule="evenodd"/>
  <path fill="#fff" fill-rule="evenodd" d="m165.536 767.112 671.888.189-336.173-582.638z" clip-rule="evenodd"/>
  <path fill="#1d1d1b" fill-rule="evenodd" d="m835.81 766.411-671.065.211 503.63-290.702zM622.024 437.374c-4.319-7.514-8.949-12.022-13.937-13.78-4.986-1.748-10.475-.813-16.273 2.526-5.766 3.317-9.306 7.636-10.285 12.823-.936 5.165.623 11.442 4.942 18.945 4.296 7.446 8.994 11.999 13.947 13.758 4.976 1.748 10.475.769 16.24-2.538 5.811-3.35 9.351-7.636 10.318-12.812.97-5.175-.655-11.487-4.952-18.922m-44.079 52.372-4.898-117.345-11.376 6.567 4.954 117.322zm19.981-38.47c-2.293-3.974-3.662-7.324-4.241-10.085-.623-2.571.501-4.741 3.184-6.311 2.727-1.592 5.187-1.469 7.257.278 1.981 1.948 4.163 4.831 6.457 8.793 2.293 3.985 3.695 7.324 4.318 9.896.557 2.772-.579 4.954-3.317 6.546-2.671 1.547-5.12 1.436-7.124-.546-2.016-1.714-4.231-4.597-6.534-8.571m-44.781-40.406c-4.33-7.525-9.005-12-13.936-13.758-4.998-1.748-10.441-.846-16.241 2.505-5.81 3.328-9.35 7.625-10.318 12.801-.935 5.187.612 11.454 4.932 18.967 4.341 7.424 9.016 11.989 13.958 13.747 4.987 1.759 10.475.847 16.273-2.493 5.8-3.361 9.295-7.636 10.274-12.823.935-5.166-.623-11.522-4.942-18.946m-24.077 13.892c-2.327-4.018-3.729-7.324-4.274-10.085-.624-2.571.545-4.742 3.228-6.311 2.694-1.547 5.188-1.48 7.169.312 2.025 1.915 4.163 4.797 6.5 8.805 2.305 3.974 3.707 7.28 4.297 9.851.579 2.727-.557 4.976-3.25 6.545-2.672 1.547-5.21 1.402-7.146-.512-2.071-1.76-4.208-4.631-6.524-8.605m-9.762 38.937c-4.864-8.371-9.383-15.339-13.702-20.749-4.318-5.409-8.348-9.472-12.311-12.155-4.085-2.604-7.948-4.007-11.877-3.929-3.929.033-7.858 1.235-11.944 3.618-4.296 2.46-7.324 5.265-9.328 8.649-1.981 3.351-2.75 7.402-2.36 12.188.189 4.864 1.636 10.352 4.163 16.819 2.571 6.423 6.3 13.858 11.142 22.229 4.82 8.371 9.417 15.372 13.613 20.682 4.341 5.365 8.382 9.417 12.478 11.988 3.963 2.683 7.736 3.93 11.677 3.896 3.896-.045 7.87-1.292 12.11-3.74 4.119-2.382 7.124-5.188 9.15-8.526 1.981-3.396 2.805-7.291 2.604-12.145-.345-4.764-1.825-10.285-4.363-16.675-2.448-6.345-6.232-13.78-11.052-22.15m-13.246 7.635c4.397 7.592 7.759 13.691 10.052 18.566 2.338 4.987 3.94 8.905 4.631 11.955.79 3.161.712 5.41.089 6.969-.746 1.636-2.037 3.038-3.784 4.096-1.826 1.047-3.696 1.425-5.488.924-1.87-.301-4.052-1.592-6.378-3.896-2.338-2.26-4.998-5.677-8.059-10.118-3.017-4.286-6.545-10.085-10.641-17.164-4.163-7.214-7.48-13.246-9.818-18.233-2.293-4.864-3.929-8.883-4.742-12.021-.779-3.161-.746-5.577-.167-7.48.545-1.669 1.803-3.116 3.617-4.163 1.647-.935 3.518-1.291 5.31-1.168 1.703.233 3.774 1.48 6.111 3.739 2.337 2.216 5.053 5.477 8.137 9.874 3.104 4.563 6.733 10.529 11.13 18.12m-78.419 4.898 43.411 75.225 13.124-7.592-52.016-90.129-13.636 7.87-10.352 27.271 12.968 4.675z" clip-rule="evenodd"/>
</svg>
