<svg xmlns="http://www.w3.org/2000/svg" viewBox="0 0 960 960" role="img" aria-labelledby="title">
  <title id="title">Verkehrszeichen 52.6c - 6c: Fahrverbot für alle Kraftfahrzeuge</title>
  <path d="M1062.534-438.694c-265.097 0-480 214.904-480 480s214.903 480 480 480 480-214.905 480-480-214.904-480-480-480" style="fill:#ee1c23;fill-rule:nonzero;stroke:none" transform="translate(-582.534 438.694)"/>
  <path d="M832.594 526.53H127.406C150.74 703.478 301.52 835.784 480 835.921c178.48-.137 329.261-132.443 352.594-309.393" style="fill:#fff;fill-opacity:1;stroke:none;stroke-width:119.988;stroke-linecap:round;stroke-opacity:1"/>
  <path d="M1234.486 276.39c-1.278-11.502-5.42-22.135-11.671-31.198l8.578-12.56-41.686-28.453-8.833 12.943a68.8 68.8 0 0 0-14.406-1.544c-3.426 0-6.788.255-10.073.753l-2.148-16.914 5.996-3.204c10.367 1.392 13.128 1.392 13.128 1.392 4.154-19.365-3.452-42.175-3.452-42.175s-29.822-.639-44.689 33.073l-45.354-19.21c.051-.192.128-.396.154-.562 1.048-4.66 4.154-8.808 4.154-8.808 6.737-1.047 12.962 2.757 18.663-1.391-1.035-4.149 4.155-6.906 7.785-5.872 2.595-2.592-2.595-6.74 0-9.331 1.547-1.047 3.234-.524 3.285-1.047.511-5.183-.179-9.842-3.81-13.99 0 0-25.399-30.598-46.146 11.399 0 0-37.863-4.149-40.445 1.557 0 0 3.183 6.753-2.084 6.23-10.366-1.048-34.743 5.705-34.743 5.705v8.808s25.412-4.66 41.493-1.557l-.524 2.08s-29.158 17.526-36.815 24.368c-11.76 10.506-17.052 24.075-18.65 28.836a42.6 42.6 0 0 0-8.31-.83c-32.404 0-60.156 31.108-73.297 72.594-.28.881 12.528-1.608 12.566-.689.102 2.106.32 4.174.64 6.216h-11.825v9.689h14.176c7.798 23.245 29.746 39.992 55.619 39.992 25.361 0 46.952-16.083 55.145-38.613h63.826s8.526.472 16.183-9.23c-.703 6.779-1.624 15.178-2.365 20.297l19.43-4.876c9.626 19.223 29.516 32.422 52.487 32.422 32.392 0 58.66-26.257 58.66-58.667a60 60 0 0 0-.485-7.62zm-176.75-66.173c1.227-7.736 8.181-17.36 11.121-21.152l24.953 11.374c-17.577 3.944-29.644 7.863-36.125 10.199.026-.14.026-.281.051-.421zm-78.513 35.716c8.552 4.059 13.525 8.54 20.44 19.594l-25.553.127zm-62.24 42.239a44 44 0 0 1-.204-4.149c0-1.621 2.684-.485 2.85-2.068 2.403-22.581 19.009-39.06 40.228-39.762l-3.86 23.461h-4.564c-8.91 0-16.132 8.54-16.132 19.058 0 1.187.102 2.336.281 3.46zm44.779 40.834c-17.64 0-32.89-10.148-40.266-24.93h80.532c-7.376 14.782-22.638 24.93-40.266 24.93m141.11-70.296-8.206.179c2.058-10.327 9.332-32.295 34.757-47.37l1.444 14.028a68.77 68.77 0 0 0-27.994 33.163m63.596 70.296c-24.85 0-44.983-20.143-44.983-44.983 0-14.948 7.299-28.185 18.522-36.367l27.151 48.123 11.057-4.148-18.663-50.472-.204-1.545a45 45 0 0 1 7.12-.562c24.837 0 44.97 20.13 44.97 44.971s-20.133 44.983-44.97 44.983" style="display:inline;fill:#000;fill-rule:nonzero;stroke:none;stroke-width:.921676" transform="translate(-582.534 438.694)"/>
  <path d="M480 124.078c-178.48.137-329.261 132.443-352.594 309.393h705.365C809.431 256.454 658.55 124.126 480 124.078" style="fill:#fff;fill-opacity:1;stroke:none;stroke-width:119.988;stroke-linecap:round;stroke-opacity:1"/>
  <path d="M1000.083-284.92c-32.307 0-58.584 26.281-58.584 58.583v77.978c-5.223 1.103-11.226.927-16.3 5.068-6.853 5.565-8.509 21.186-8.509 21.186v25.78h22.32v12.933h-1.549a4.765 4.765 0 1 0 0 9.53h1.549v24.505c0 7.971 6.46 14.438 14.443 14.438 7.97 0 14.443-6.467 14.443-14.438v-24.505h189.818v24.505c0 7.971 6.474 14.438 14.443 14.438 7.983 0 14.444-6.467 14.444-14.438v-24.505h1.548a4.765 4.765 0 1 0 0-9.53h-1.548v-12.932h22.32v-25.781s-1.657-15.621-8.509-21.186c-5.075-4.14-11.078-3.965-16.3-5.068v-77.978c0-32.302-26.277-58.582-58.585-58.582zm0 28.593h125.444c8.01 0 15.548 3.118 21.215 8.777 5.654 5.673 8.777 13.201 8.777 21.213v47.693c-4.227-2.11-8.965-3.321-13.986-3.321-8.427 0-16.342 3.28-22.291 9.236-1.199 1.196-2.263 2.5-3.246 3.844v-20.7l-47.828-24.56v-7.205h-10.726v7.206l-47.828 24.558v20.701c-.982-1.344-2.047-2.648-3.245-3.844-5.95-5.955-13.865-9.236-22.291-9.236-5.021 0-9.76 1.21-13.987 3.321v-47.693c0-8.012 3.124-15.54 8.777-21.213 5.668-5.66 13.206-8.777 21.215-8.777m-16 82.536c12.896 0 23.35 10.454 23.35 23.35 0 12.894-10.454 23.348-23.35 23.348-12.894 0-23.347-10.454-23.347-23.349s10.453-23.348 23.347-23.349m157.444 0c12.895.001 23.347 10.454 23.347 23.35 0 12.894-10.452 23.347-23.347 23.348s-23.349-10.454-23.349-23.349 10.454-23.35 23.35-23.349m-131.913 41.792v26.01c-3.526-4.234-8.279-9.746-13.542-15.284a31.6 31.6 0 0 0 10.297-6.881c1.198-1.197 2.263-2.5 3.245-3.845m106.382 0c.983 1.344 2.047 2.648 3.245 3.845a31.6 31.6 0 0 0 10.298 6.88c-5.264 5.539-10.016 11.051-13.543 15.286zm-89.448 31.804h72.514v17.017h-72.514zm-58.652 3.87h34.232l7.486 8.04v4.851l-41.718.042zm155.586 0h34.232v12.933l-41.718-.042v-4.85z" style="fill:#000;fill-rule:nonzero;stroke:none;stroke-width:.970587;stroke-opacity:1" transform="translate(-582.534 438.694)"/>
</svg>
