<svg xmlns="http://www.w3.org/2000/svg" viewBox="0 0 1000 873.008" role="img" aria-labelledby="title">
  <title id="title">Verkehrszeichen 50.10b - 10b: Steinschlag</title>
  <path d="M-331.878-775.55c14.052-24.298 37.032-24.298 51.072 0L187.695 35.035c14.04 24.298 2.55 44.187-25.542 44.187l-936.94.013c-28.08 0-39.582-19.877-25.53-44.176z" style="fill:#ee1c23;fill-rule:nonzero;stroke:none" transform="translate(806.314 793.774)"/>
  <path d="m-645.476-24.72 678.318-.012-339.178-586.851z" style="fill:#fff;fill-rule:nonzero;stroke:none" transform="translate(806.314 793.774)"/>
  <path d="M-323.245-159.326v4.1c-3.079 4.102-9.249 6.158-11.293 10.26-3.091 7.192-4.113 15.394-11.305 19.507-7.193 3.079-16.441 10.259-14.385 19.495-9.236 8.215-19.52 15.394-28.756 23.609-3.091 2.044-5.912 8.719-7.968 11.798h-174.89v22.488l559.51-.013-258.954-448.045c-10.862 19.68-26.281 37.119-36.552 56.626.677-1.28 11.305 0 16.44 3.08 5.136 4.1 7.193 9.236 9.25 15.393 2.056 10.259 4.1 19.495 2.056 29.754-3.09 10.271-7.192 19.508-16.44 25.665-5.136 3.08-10.272 3.08-13.35 6.158-3.092 4.101-6.17 8.202-8.227 12.315-2.057 5.124-1.022 10.26-1.022 15.395 0 10.258-1.035 21.552 0 31.81 1.022 2.057 3.078 4.101 4.1 6.158 7.193 16.416-4.1 35.924 6.17 50.284-3.078 14.372-3.078 27.71-3.078 42.081 0 2.057-2.057 3.079-3.091 4.101-1.023 6.158 0 12.316-2.045 17.451-1.034 4.101-3.09 7.18-5.135 11.293 0 3.079-1.035 6.158-1.035 9.237-1.022 1.022-1.022 2.044-3.079 2.044" style="fill:#000;fill-rule:nonzero;stroke:none" transform="translate(806.314 793.774)"/>
  <path d="M-348.417-405.375c1.551 4.618 6.946 3.079 8.485 5.382 1.54 2.315 1.54 6.158.763 9.236-.763 1.54-3.078 1.54-4.618 1.54.764 6.933-3.079 17.71 3.08 20.788 7.708 3.843 17.72-1.54 26.194-5.394 2.315-1.54 5.394-1.54 7.71-2.303 3.078-2.315 6.157-4.618 9.236-6.933 1.552-1.54.776-4.619 1.552-6.158 3.078-10 .763-20.013-3.092-30.013-2.303-4.618-5.394-8.473-9.236-10.776-5.394-3.854-14.643-3.854-19.261.764-3.855 3.079-7.71 5.394-11.565 8.473-2.302 2.303-2.302 6.158-3.854 8.46-1.54 1.54-3.08 3.855-6.158 3.08zM-427.765-346.113c7.697-23.092 37.746-30.789 59.323-21.552 1.54.776 2.315 4.618 2.315 6.933.764 7.697 5.382 15.394 2.303 23.092-.763 3.842-2.303 7.697-4.618 10.776-1.54.763-2.315 3.078-3.855 3.842-4.618 2.315-9.249 4.618-13.867 7.697-.776 1.54-1.54 3.855-3.079 3.855-5.394 0-10.788.763-16.182-.776-3.855-.764-10.013 0-11.552-2.303-3.091-4.618.764-12.315-2.315-18.473-1.54-2.315-4.619-2.315-6.17-3.855-.764-2.303 0-4.618 0-6.921-1.54 0-.764-2.315-2.303-2.315M-410.82-289.155c2.612-1.958 4.619-4.618 6.934-5.382 3.855-1.54 5.394-4.618 9.25-5.394-.777-.763 1.539-1.54.763-2.303h17.721c5.395 10.776 3.855 22.316 2.316 33.092 0 2.315-1.54 6.157-3.08 8.473-3.09 5.381-11.563 1.539-15.406 5.381-.775 0-3.09.776-3.09 2.316-6.934 0-13.868 3.079-20.801 0-.764-.776-2.316-3.08-3.08-4.619-.775-8.473-.775-16.933-.775-25.406 3.855 0 6.17-3.843 9.249-6.158M-457.815-275.3c-3.054.431-6.933-.764-10.012.776-4.63 2.303-10.025 3.842-13.104 8.46-2.315 4.619-6.933 8.473-8.473 13.855-2.315 10.776-1.54 20.789 0 31.565 0 3.842 2.303 5.381 5.394 7.697 11.552 5.381 24.656 5.381 36.208 9.236 10.788 3.843 22.34 2.303 33.128 1.54 6.17 0 13.104-3.855 14.643-10.776 0-3.855 1.54-8.473-2.315-9.237-5.394-1.54-10.013 0-15.407-.776-3.079-.763-6.933-3.079-10.012-4.618-4.63-1.54-4.63-7.697-6.934-12.315-3.854-9.237-3.854-19.237-5.394-29.25-.776-1.539-1.54-3.842-2.315-3.842-5.394-.776-10.013-3.079-15.407-2.315M-504.81-152.91c-3.116-.628-6.934-.776-10.025 0-4.618 2.303-7.697 6.921-10.788 10.776-2.303 3.079-3.843 6.921-5.382 10-1.552 7.697-3.855 14.63-1.552 22.328 0 1.54 2.316 3.079 3.855 3.842 2.315 1.54 3.855 6.158 6.934 6.158 9.248 2.315 18.497.776 26.194 5.394 3.855 2.303 6.17 4.618 10.025 5.382 10.776 2.315 21.564 3.855 32.353 0 3.078-.764 5.394-3.843 8.473-5.382 3.09-2.315 4.63-6.158 6.17-9.237 2.315-6.933.763-13.854.763-20.788-6.933-3.079-14.63-3.079-21.564-5.382-3.855-1.54-8.473-3.079-13.104-5.394-3.079-1.54-5.394-4.618-7.697-7.697-3.855-3.079-9.249-3.842-13.88-3.079 0-1.54-2.302-.763-1.539-2.303-3.842 0-5.394-3.854-9.236-4.618" style="fill:#000;fill-rule:nonzero;stroke:none" transform="translate(806.314 793.774)"/>
</svg>
