<svg xmlns="http://www.w3.org/2000/svg" viewBox="0 0 960 960" role="img" aria-labelledby="title">
  <title id="title">Verkehrszeichen 52.5 - 5: Wartepflicht bei Gegenverkehr</title>
  <path d="M756.77 87.02c0-265.095 214.915-480 479.993-480 265.092 0 480.007 214.905 480.007 480s-214.915 480-480.007 480c-265.078 0-479.993-214.904-479.993-480" style="fill:#ee1c23;fill-rule:nonzero;stroke:none" transform="translate(-756.77 392.98)"/>
  <path d="M1236.763 442.941c196.565 0 355.916-159.353 355.916-355.92 0-196.568-159.351-355.922-355.916-355.922-196.55 0-355.902 159.354-355.902 355.921 0 196.568 159.351 355.921 355.902 355.921" style="fill:#fff;fill-rule:nonzero;stroke:none" transform="translate(-756.77 392.98)"/>
  <path d="M1166.851 226.306v-377.222h-96.115v377.222h-43.431l91.336 102.168 91.642-102.168z" style="fill:#000;fill-rule:nonzero;stroke:none" transform="translate(-756.77 392.98)"/>
  <path d="M1297.88-62.805v377.222h96.102V-62.805h43.432l-91.337-102.169-91.642 102.169z" style="fill:#ee1c23;fill-rule:nonzero;stroke:none" transform="translate(-756.77 392.98)"/>
</svg>
