<svg xmlns="http://www.w3.org/2000/svg" viewBox="0 0 470 230" role="img" aria-labelledby="title">
  <title id="title">Verkehrszeichen 54a[100] - a: Gibt die Entfernung bis zu der Straßenstelle an, auf die sich das betreffende Straßenverkehrszeichen bezieht.</title>
  <path d="M1104.7 13.92C1095.73 4.94 1083.81 0 1071.13 0H47.47C21.3 0 0 21.31 0 47.509v457.852c0 12.69 4.94 24.62 13.91 33.59 8.96 8.98 20.88 13.919 33.56 13.919h1023.66c12.68 0 24.6-4.94 33.57-13.92 8.96-8.97 13.9-20.9 13.9-33.59V47.51c0-12.69-4.94-24.62-13.9-33.59" style="fill:#000;fill-opacity:1;fill-rule:nonzero;stroke:none" transform="scale(.42017 .41601)"/>
  <path d="M1108.61 505.36c0 20.68-16.81 37.51-37.48 37.51H47.47c-10.01 0-19.42-3.9-26.5-10.99-7.08-7.08-10.98-16.5-10.98-26.52V47.51c0-10.02 3.9-19.44 10.98-26.52C28.05 13.9 37.46 10 47.47 10h1023.66c10.02 0 19.43 3.9 26.5 10.99 7.08 7.08 10.98 16.5 10.98 26.52z" style="fill:#fff;fill-opacity:1;fill-rule:nonzero;stroke:none" transform="scale(.42017 .41601)"/>
  <path d="M722.007 193.816h52.21v26.49h1.03c10.749-17.3 25.079-29.73 49.138-29.73 22.52 0 37.36 14.05 46.58 27.57 12.79-15.14 26.609-27.57 54.248-27.57 26.11 0 56.82 17.84 56.82 67.03v210.276h-52.21V278.145c0-20-9.21-32.43-25.59-32.43-19.449 0-26.109 13.51-26.109 37.84v184.327h-52.209V278.145c0-20-9.21-32.43-25.59-32.43-19.449 0-26.109 13.51-26.109 37.84v184.327h-52.209zM175.437 154.467l-52.19 49.89-.02-69.6 52.2-48.009h52.209v381.134h-52.21zM289.305 164.177c0-51.36 36.35-82.709 77.808-82.709 41.46 0 77.799 31.35 77.799 82.709v225.946c0 51.349-36.34 82.708-77.799 82.708s-77.808-31.359-77.808-82.708zm52.219 225.946c0 15.68 10.74 27.57 25.59 27.57 14.84 0 25.589-11.89 25.589-27.57V164.177c0-15.68-10.75-27.57-25.59-27.57-14.85 0-25.59 11.89-25.59 27.57zM505.63 164.227c0-51.36 36.34-82.709 77.81-82.709 41.459 0 77.798 31.35 77.798 82.709v225.946c0 51.349-36.34 82.698-77.798 82.698-41.47 0-77.81-31.349-77.81-82.698zm52.21 225.946c0 15.68 10.75 27.57 25.6 27.57 14.84 0 25.59-11.89 25.59-27.57V164.227c0-15.68-10.75-27.57-25.59-27.57-14.85 0-25.6 11.89-25.6 27.57z" style="fill:#000;fill-rule:nonzero;stroke:none" transform="scale(.42017 .41601)"/>
</svg>
