<svg xmlns="http://www.w3.org/2000/svg" viewBox="0 0 1000 873.016" role="img" aria-labelledby="title">
  <title id="title">Verkehrszeichen 50.16 - 16: Andere Gefahren</title>
  <path d="M1153.842-629.834c14.04-24.31 37.02-24.31 51.072 0L1673.4 180.75c14.052 24.298 2.562 44.175-25.53 44.175l-936.938.024c-28.091 0-39.581-19.877-25.542-44.175z" style="fill:#ee1c23;fill-rule:nonzero;stroke:none" transform="translate(-679.4 648.066)"/>
  <path d="m840.232 120.996 678.316-.025-339.176-586.838z" style="fill:#fff;fill-rule:nonzero;stroke:none" transform="translate(-679.4 648.066)"/>
  <path d="M1179.372 84.838c25.283 0 45.763-20.468 45.763-45.715 0-25.246-20.48-45.714-45.763-45.714-25.271 0-45.764 20.468-45.764 45.714 0 25.247 20.493 45.715 45.764 45.715m0-119.04c16.946 0 30.886-12.882 32.524-29.385h.037l13.289-216.663-.197-.05c.036-.75.11-1.502.11-2.266 0-25.246-20.48-45.714-45.763-45.714-25.271 0-45.764 20.468-45.764 45.714 0 .764.086 1.515.123 2.266l-.197.05 13.288 216.663h.037c1.638 16.503 15.567 29.385 32.513 29.385" style="fill:#000;fill-rule:nonzero;stroke:none" transform="translate(-679.4 648.066)"/>
</svg>
