<svg xmlns="http://www.w3.org/2000/svg" viewBox="0 0 380 1199.999" role="img" aria-labelledby="title">
  <title id="title">Verkehrszeichen 50.6c-3r - 6c: Bake rechts mit drei Balken – Entfernung zum Bahnübergang ca. 240 m</title>
  <path d="M118.256-1106.721h361.638V105.181H118.256z" style="opacity:1;fill:#fff;fill-opacity:1;fill-rule:evenodd;stroke:#000;stroke-width:.25;stroke-linejoin:round;stroke-miterlimit:4;stroke-dasharray:none;stroke-opacity:1" transform="matrix(-.94484 0 0 .96045 471.454 1083.07)"/>
  <path d="M-474.248-601.798v-144.607l352.48-194.99v144.607zM-474.248-307.78v-144.607l352.48-194.99v144.607zM-474.248-13.762v-144.607l352.48-194.99v144.607z" style="fill:#ee1c23;fill-rule:nonzero;stroke:none" transform="matrix(.94484 0 0 .96045 471.454 1083.07)"/>
  <path d="M-490.997-1119.71c5.148-5.135 11.983-7.956 19.25-7.956h347.737c15.013 0 27.217 12.193 27.217 27.18V94.565c0 7.266-2.832 14.09-7.968 19.225-5.148 5.135-11.983 7.955-19.249 7.955h-347.738c-7.266 0-14.1-2.82-19.249-7.955-5.147-5.136-7.98-11.959-7.98-19.225v-1195.05c0-7.265 2.833-14.088 7.98-19.224m357.221 28.966h-328.218V84.836h328.218z" style="fill:#000;fill-rule:nonzero;stroke:none" transform="matrix(.94484 0 0 .96045 471.454 1083.07)"/>
</svg>
