<svg xmlns="http://www.w3.org/2000/svg" viewBox="0 0 960 960" role="img" aria-labelledby="title">
  <title id="title">Verkehrszeichen 52.19a[30] - 19a: Ende der vorgeschriebenen Mindestgeschwindigkeit</title>
  <path d="M591.056-130.123c0-265.095 214.905-480 480-480s480 214.905 480 480-214.904 480-480 480-480-214.904-480-480" style="fill:#176fc1;fill-rule:nonzero;stroke:none" transform="translate(-591.056 610.123)"/>
  <path d="M1113.34 43.87c0 65.841 53.376 119.231 119.23 119.231 65.842 0 119.232-53.39 119.232-119.23v-344.51c0-65.841-53.39-119.231-119.231-119.231-65.855 0-119.232 53.39-119.232 119.23zm158.965 0c0 21.952-17.783 39.735-39.735 39.735s-39.748-17.783-39.748-39.735v-344.51c0-21.95 17.797-39.748 39.749-39.748 21.951 0 39.734 17.797 39.734 39.749zM1028.815-120.303c-4.612-7.687-17.561-12.645-17.561-12.645s9.03-4.141 15.22-10.775c9.557-10.235 8.282-22.02 8.282-22.02V-300.64c0-65.841-53.376-119.231-119.23-119.231-65.842 0-119.232 53.39-119.232 119.23h79.497c0-21.95 17.782-39.748 39.734-39.748s39.749 17.797 39.749 39.749v118.192h-.153c0 7.313-5.927 13.255-13.24 13.255v.013h-66.464v74.317h66.99c7.064.291 12.714 6.067 12.714 13.2h.153V43.87c0 21.952-17.797 39.735-39.749 39.735s-39.734-17.783-39.734-39.735h-79.497c0 65.841 53.39 119.231 119.231 119.231 65.855 0 119.231-53.39 119.231-119.23V-94.156s1.095-14.445-5.941-26.148" style="fill:#fff;fill-rule:nonzero;stroke:none" transform="translate(-591.056 610.123)"/>
  <path d="M694.72 167.796a482.4 482.4 0 0 0 78.348 78.43l674.338-674.365a482.8 482.8 0 0 0-78.417-78.333z" style="fill:#ee1c23;fill-rule:nonzero;stroke:none" transform="translate(-591.056 610.123)"/>
</svg>
