<svg xmlns="http://www.w3.org/2000/svg" viewBox="0 0 960 960" role="img" aria-labelledby="title">
  <title id="title">Verkehrszeichen 52.6a - 6a: Fahrverbot für alle Kraftfahrzeuge außer einspurigen Motorrädern</title>
  <path d="M302.485 72.734c0-265.095 214.904-480 480-480s480 214.905 480 480-214.905 480-480 480-480-214.904-480-480" style="fill:#ee1c23;fill-rule:nonzero;stroke:none" transform="translate(-302.485 407.265)"/>
  <path d="M782.485 428.656c196.567 0 355.921-159.354 355.921-355.922 0-196.567-159.354-355.92-355.921-355.92-196.568 0-355.921 159.353-355.921 355.92 0 196.568 159.353 355.922 355.92 355.922" style="fill:#fff;fill-rule:nonzero;stroke:none" transform="translate(-302.485 407.265)"/>
  <path d="M1030.476 176.704V132.98s-2.811-26.48-14.431-35.926c-8.6-7.008-18.78-6.73-27.644-8.586V-43.796c0-54.775-44.568-99.343-99.343-99.343l-212.786-.07c-54.775 0-99.343 44.568-99.343 99.344v132.25c-8.864 1.87-19.043 1.592-27.644 8.6-11.62 9.446-14.431 35.926-14.431 35.926v43.723h37.85v21.938h-2.645a8.074 8.074 0 0 0-8.074 8.074c0 4.474 3.615 8.089 8.074 8.089h2.646v41.562c0 13.518 10.969 24.486 24.486 24.486 13.53 0 24.486-10.968 24.486-24.486v-41.562l321.976.069v41.563c0 13.53 10.955 24.486 24.486 24.486 13.517 0 24.486-10.955 24.486-24.486v-41.563h2.645a8.074 8.074 0 0 0 8.075-8.074c0-4.474-3.615-8.089-8.075-8.089h-2.645v-21.937zm-338.041 21.868h-70.758v-21.938h58.071l12.687 13.642zm0-38.322c-5.97-7.188-14.03-16.536-22.963-25.926a53.5 53.5 0 0 0 17.464-11.662c2.05-2.036 3.837-4.238 5.499-6.537zm0-106.67c-1.662-2.285-3.449-4.487-5.499-6.523-10.096-10.096-23.516-15.664-37.795-15.664-8.532 0-16.564 2.064-23.725 5.637v-80.895c0-13.587 5.29-26.356 14.903-35.968 9.597-9.598 22.367-14.888 35.953-14.888l212.786.069c13.586 0 26.355 5.29 35.967 14.888 9.598 9.612 14.888 22.381 14.888 35.968v80.895c-7.16-3.573-15.193-5.623-23.724-5.623-14.279 0-27.713 5.554-37.81 15.65-2.021 2.036-3.822 4.239-5.484 6.524V18.54l-81.117-41.645V-35.32h-18.185v12.118l-81.158 41.674zm185.945 69.152c5.096 5.082 11.024 9.016 17.478 11.661-8.933 9.39-16.994 18.738-22.963 25.926v-44.11c1.662 2.285 3.463 4.487 5.485 6.523m65.273 75.91-70.758-.07v-8.227l12.7-13.641h58.058zm-222.854-28.503h123.386V199H720.799z" style="fill:#000;fill-rule:nonzero;stroke:none" transform="translate(-302.485 407.265)"/>
  <path d="M621.137 112.857c-7.479-7.479-11.592-17.423-11.592-28.004s4.113-20.525 11.592-28.004 17.423-11.592 28.004-11.592c10.58 0 20.525 4.113 28.004 11.592 7.478 7.479 11.606 17.423 11.606 28.004 0 21.84-17.77 39.61-39.61 39.61-10.581 0-20.525-4.127-28.004-11.606M944.193 112.926c-7.479 7.493-17.423 11.606-28.004 11.606-21.84 0-39.61-17.769-39.61-39.61 0-10.567 4.127-20.511 11.606-28.004 7.479-7.479 17.423-11.592 28.004-11.592s20.525 4.113 28.004 11.592c7.479 7.493 11.592 17.437 11.592 28.004 0 10.581-4.113 20.525-11.592 28.004" style="fill:#fff;fill-rule:nonzero;stroke:none" transform="translate(-302.485 407.265)"/>
</svg>
