<svg xmlns="http://www.w3.org/2000/svg" viewBox="0 0 1001.631 875.286" role="img" aria-labelledby="title">
  <title id="title">Verkehrszeichen 50.2c - 2c: Gefährliche Kurven (Doppelkurve rechts beginnend)</title>
  <path d="M-298.336-789.207c14.064-24.362 37.08-24.362 51.155 0l469.254 812.7c14.064 24.361 2.556 44.302-25.571 44.302l-938.483.013c-28.128 0-39.636-19.93-25.572-44.29z" style="fill:#ee1c23;fill-rule:nonzero;stroke:none" transform="translate(773.555 807.478)"/>
  <path d="m-612.456-36.418 679.42-.012-339.729-588.382z" style="fill:#fff;fill-rule:nonzero;stroke:none" transform="translate(773.555 807.478)"/>
  <path d="M-302.825-289.79c-9.026-7.136-20.422-11.408-32.832-11.408-29.226 0-52.933 23.707-52.933 52.933v171.297l32.523-26.288 32.461 26.288.062-147.318 57.465 45.526c9.15 7.556 20.88 12.088 33.672 12.088 29.239 0 52.934-23.695 52.934-52.934V-352.49l-32.462-28.127-32.523 28.127v109.053z" style="fill:#000;fill-rule:nonzero;stroke:none" transform="translate(773.555 807.478)"/>
</svg>
