<svg xmlns="http://www.w3.org/2000/svg" viewBox="0 0 960 960" role="img" aria-labelledby="title">
  <title id="title">Verkehrszeichen 52.19[30] - 19: Vorgeschriebene Mindestgeschwindigkeit</title>
  <path d="M676.77-344.401c0-265.092 214.905-480.007 480-480.007s480 214.915 480 480.007-214.904 479.993-480 479.993-480-214.901-480-479.993" style="fill:#176fc1;fill-rule:nonzero;stroke:none" transform="translate(-676.77 824.408)"/>
  <path d="M1199.053-170.425c0 65.854 53.377 119.23 119.232 119.23 65.84 0 119.231-53.376 119.231-119.23v-344.49c0-65.854-53.39-119.23-119.231-119.23-65.855 0-119.232 53.376-119.232 119.23zm158.98 0c0 21.952-17.797 39.748-39.748 39.748-21.952 0-39.749-17.796-39.749-39.748v-344.49c0-21.951 17.797-39.748 39.749-39.748 21.951 0 39.748 17.797 39.748 39.748zM1114.53-334.596c-4.613-7.686-17.562-12.63-17.562-12.63s9.03-4.141 15.22-10.789c9.557-10.235 8.283-22.02 8.283-22.02v-134.88c0-65.854-53.377-119.23-119.232-119.23-65.84 0-119.231 53.376-119.231 119.23h79.497c0-21.951 17.783-39.748 39.734-39.748 21.952 0 39.749 17.797 39.749 39.748v118.19l-.153.001c0 7.312-5.927 13.24-13.24 13.24v.028h-66.464v74.316h66.99c7.064.277 12.714 6.052 12.714 13.184h.153v125.531c0 21.952-17.797 39.748-39.749 39.748-21.951 0-39.734-17.796-39.734-39.748h-79.497c0 65.854 53.39 119.23 119.231 119.23 65.855 0 119.232-53.376 119.232-119.23v-138.009s1.094-14.445-5.942-26.162" style="fill:#fff;fill-rule:nonzero;stroke:none" transform="translate(-676.77 824.408)"/>
</svg>
