<svg xmlns="http://www.w3.org/2000/svg" viewBox="0 0 960 960" role="img" aria-labelledby="title">
  <title id="title">Verkehrszeichen 52.8c - 8c: Fahrverbot für Fahrräder</title>
  <path d="M591.017 315.592c0-265.096 214.912-480 480-480s480 214.904 480 480-214.912 480-480 480-480-214.905-480-480" style="fill:#ee1c23;fill-rule:nonzero;stroke:none" transform="translate(-591.017 164.408)"/>
  <path d="M1071.017 671.513c196.568 0 355.923-159.354 355.923-355.921 0-196.568-159.355-355.922-355.923-355.922S715.095 119.024 715.095 315.592c0 196.567 159.354 355.92 355.922 355.92" style="fill:#fff;fill-rule:nonzero;stroke:none" transform="translate(-591.017 164.408)"/>
  <path d="M1336.714 289.194c-22.328-22.311-51.988-34.61-83.544-34.61-15.12 0-29.563 2.895-42.858 8.088l-27.363-60.855 11.04-17.52c19.38 3.92 38.5 7.728 39.55 7.728 10.819 0 19.59-8.766 19.59-19.583 0-10.83-8.771-19.597-19.59-19.597l-80.804.083c-6.322 0-11.44 5.11-11.44 11.426s5.118 11.426 11.44 11.426v.124s11.994 2.452 26.741 5.457l-8.881 14.057H962.503c5.395-16.162 8.95-26.84 8.95-26.84.07-.18.084-.374.125-.554.055-.208.11-.402.138-.61.028-.193.014-.387.014-.595.014-.194.028-.388.014-.582-.014-.207-.055-.401-.097-.595-.027-.194-.041-.374-.097-.568a8 8 0 0 0-.193-.54c-.07-.18-.125-.374-.222-.54-.083-.18-.193-.333-.29-.499s-.194-.332-.318-.498c-.11-.153-.25-.277-.388-.43-.138-.138-.249-.29-.4-.43-.153-.124-.319-.235-.485-.345a3 3 0 0 0-.484-.347c-.166-.11-.36-.18-.554-.263-.18-.083-.332-.18-.525-.249l-33.935-11.8 10.168-26.674 81.814-.914 24.224 21.91a6.05 6.05 0 0 0 8.55-.43 6.044 6.044 0 0 0-.43-8.559l-25.966-23.502-1.757-1.593-2.38.028-88.316.983-4.123.041-17.555 46.064 5.907 2.05 34.17 11.883-30.739 92.238a118.2 118.2 0 0 0-43.01-8.074c-65.145 0-118.143 53.003-118.143 118.151 0 31.563 12.285 61.23 34.6 83.541 22.327 22.312 51.988 34.61 83.543 34.61s61.23-12.298 83.544-34.61 34.599-51.978 34.599-83.54c0-31.564-12.285-61.23-34.6-83.542a118.4 118.4 0 0 0-29.438-21.522c2.864-8.587 5.769-17.257 8.59-25.733l89.88 95.95c-6.197 7.632-9.932 17.34-9.932 27.921 0 11.856 4.62 22.99 13.004 31.384 8.383 8.379 19.52 12.99 31.375 12.99 1.771 0 3.528-.138 5.257-.332l2.214 9.875h-14.388v13.85h39.829v-13.85h-18.344l-2.518-11.218a44.2 44.2 0 0 0 19.34-11.315c6.53-6.537 10.735-14.75 12.285-23.656l20.045.762c.401 30.968 12.63 60.038 34.571 81.976 22.315 22.312 51.989 34.61 83.544 34.61 31.556 0 61.216-12.298 83.544-34.61 22.314-22.312 34.599-51.978 34.599-83.54 0-31.564-12.285-61.23-34.599-83.542M953.165 303.89c18.385 18.392 28.512 42.837 28.512 68.846 0 53.695-43.674 97.363-97.364 97.363-26.008 0-50.453-10.124-68.838-28.516-18.4-18.393-28.526-42.837-28.526-68.847s10.126-50.454 28.526-68.846c18.385-18.393 42.83-28.517 68.838-28.517 12.686 0 24.998 2.424 36.425 7.036l-21.387 64.165c-1.633 4.418-8.01 17.063-17.168 20.484a6.07 6.07 0 0 0-3.542 7.811c1.176 3.13 4.676 4.723 7.802 3.545 16.283-6.107 24.03-26.965 24.348-27.851.028-.056 9.504-28.503 20.959-62.877a98.4 98.4 0 0 1 21.415 16.204m246.094-36.23c-35.139 18.1-60.068 53.292-63.747 94.523l-20.004-.762c-.996-10.193-5.451-19.653-12.783-26.993-.692-.692-1.439-1.316-2.172-1.967l74.635-118.345zm8.508 18.904 35.858 79.746-87.335-3.324c2.2-22.326 11.953-43.03 28.028-59.096a97.2 97.2 0 0 1 23.449-17.326m-145.078 61.146-9.78-10.443a33 33 0 0 1 6.709-3.338zm3.639-15.484c1.646-.235 3.32-.402 5.007-.402 4.137 0 8.135.762 11.884 2.16l-12.174 19.307zm28.608 9.155c.139.138.29.249.443.401 5.27 5.263 8.563 11.98 9.573 19.237l-21.885-.83zm-137.04-132.098h203.97l-73.003 115.755a44.2 44.2 0 0 0-17.528-3.6c-2.476 0-4.897.248-7.276.65l-4.939-22.076h15.688v-13.864h-39.828v13.864h17.043l5.312 23.724a43.8 43.8 0 0 0-11.592 5.886l-94.376-100.756a30231 30231 0 0 1 6.53-19.583m113.44 190.515c-9.076 0-17.611-3.531-24.03-9.958-6.42-6.412-9.96-14.957-9.96-24.029 0-7.395 2.392-14.417 6.736-20.234l22.84 24.375.983 1.053 6.405 28.64c-.982.084-1.965.153-2.975.153m9.78-1.454-5.893-26.314 29.286 1.108c-2.656 12.035-11.703 21.688-23.393 25.206m172.054 71.755c-26.008 0-50.466-10.124-68.852-28.516-17.832-17.825-27.862-41.37-28.457-66.492l97.074 3.697 6.004-.858-.249-7.673-39.87-88.651c10.832-4.086 22.425-6.233 34.35-6.233 26.008 0 50.453 10.124 68.838 28.517 18.4 18.392 28.526 42.837 28.526 68.846 0 53.695-43.674 97.363-97.364 97.363" style="fill:#000;fill-rule:nonzero;stroke:none" transform="translate(-591.017 164.408)"/>
</svg>
