<svg xmlns="http://www.w3.org/2000/svg" xml:space="preserve" viewBox="0 0 960 960" role="img" aria-labelledby="title">
  <title id="title">Verkehrszeichen 52.7a-2[5.5] - 7a: Fahrverbot für Last­kraftfahrzeuge bzw. Anhänger mit mehr als ... Tonnen höchst­zu­lässigem Gesamtgewicht Als Dezimaltrennzeichen wird Punkt verwendet. Die Maßeinheit &quot;Tonnen&quot; wird nicht angegeben</title>
  <path fill="#ec1c24" fill-rule="evenodd" d="M479.863-.062c264.725 0 479.386 214.74 479.386 479.537C959.249 744.261 744.588 959 479.863 959 215.144 959 .484 744.261.484 479.475.484 214.678 215.144-.062 479.863-.062" clip-rule="evenodd"/>
  <path fill="#fff" fill-rule="evenodd" d="M479.863 122.379c-197.092 0-356.998 159.925-356.998 357.096 0 197.161 159.906 357.099 356.998 357.099 197.099 0 357.011-159.938 357.011-357.099 0-197.171-159.912-357.096-357.011-357.096" clip-rule="evenodd"/>
  <path fill="#231f20" fill-rule="evenodd" d="M308.249 296.569c-8.856 0-16.617 5.904-18.901 14.516l-10.164 38.185h75.65l13.994-52.701zm316.688 236.175c-19.787-5.969-34.369-24.315-34.369-46.031 0-1.4.172-2.905.212-4.306H345.707c.105 1.4.158 2.905.158 4.306 0 21.716-14.455 40.063-34.261 46.031zm27.695-.674h97.306v12.627H194.533V532.07h89.974c-19.819-5.969-34.315-24.33-34.315-46.018 0-1.426.079-2.879.146-4.307H221.08c-5.87 0-10.684-4.834-10.684-10.723 0-5.865 4.735-10.712 10.684-10.712h9.749l4.861-82.802c.93-15.863 12.092-27.684 30.199-27.684l12.198-45.899c3.467-12.746 16.669-18.425 29.111-18.425h64.436c3.647-14.794 17.865-17.211 30.228-17.211h325.662v213.457h-40.695c.079 1.428.157 2.881.157 4.307 0 21.687-14.502 40.049-34.354 46.017M574.282 657.641v70.705c0 9.377 2.284 16.894 6.842 22.797 4.346 6.168 11.662 9.126 21.45 9.126 3.883 0 7.977-.462 11.86-1.398 3.897-.886 7.515-2.234 11.399-3.845l-5.68-16.63c-2.972 1.137-5.244 2.062-7.33 2.286-2.021.448-3.872.66-5.693.66-3.422 0-5.905-1.137-7.304-3.619-1.546-2.549-2.286-5.969-2.286-10.274v-69.808h24.673V639.4H597.54v-25.097h-23.259V639.4h-14.358l-2.008 18.24zm-69.276-14.159h36.691v-15.178h-55.033v65.408h13.692c3.725-1.493 6.881-2.218 9.258-2.218 5.402 0 9.483 1.861 12.589 5.744 3.169 3.896 4.676 10.58 4.676 20.368 0 4.819-.583 8.915-1.507 12.019-.938 3.368-2.378 5.971-4.094 7.99-1.652 2.073-3.686 3.381-6.116 4.097-2.391.924-5.191 1.294-7.925 1.294-2.802 0-6.116-.569-9.848-1.507-3.882-.924-7.046-2.231-9.431-3.526l-5.744 14.305c1.083.739 2.582 1.452 4.614 2.231 1.863.885 3.878 1.652 6.314 2.18 2.377.768 4.814 1.295 7.607 1.811 2.603.567 5.179.779 7.781.779 4.819 0 9.429-.779 14.04-2.18 4.45-1.507 8.546-3.885 12.072-7.411 3.512-3.367 6.26-7.818 8.346-13.168 2.022-5.388 3.158-12.218 3.158-20.195 0-12.455-2.801-22.097-8.347-29.085-5.589-7.053-13.367-10.579-23.365-10.579-1.455 0-2.959.172-4.597.37-1.665.198-3.382.566-4.834.924v-34.473zm-60.732 103.989c0 3.314.732 5.744 2.397 7.409 1.497 1.651 2.582 2.577 3.512 3.104l-8.691 25.188h12.06l12.593-25.188c1.295-2.392 2.015-4.399 2.384-6.063.363-1.703.562-3.171.562-4.451 0-3.526-1.137-6.474-3.514-8.93-2.43-2.378-5.389-3.513-8.916-3.513-3.52 0-6.479 1.135-8.856 3.513-2.435 2.457-3.531 5.404-3.531 8.931m-68.378-156.835h53.624v-22.243h-80.424v95.629h20.063c5.384-2.181 9.993-3.264 13.513-3.264 7.885 0 13.836 2.748 18.393 8.389 4.609 5.706 6.788 15.44 6.788 29.811 0 7.039-.824 13.01-2.178 17.619-1.334 4.874-3.514 8.651-5.951 11.663-2.43 2.944-5.396 4.86-8.908 5.956-3.534 1.349-7.616 1.862-11.663 1.862-4.042 0-8.916-.779-14.351-2.166-5.707-1.36-10.262-3.224-13.784-5.138l-8.4 20.844c1.611 1.069 3.791 2.165 6.735 3.247 2.696 1.361 5.714 2.444 9.227 3.277 3.534 1.083 7.046 1.862 11.088 2.642 3.791.818 7.562 1.083 11.406 1.083 7.046 0 13.782-1.083 20.571-3.211 6.466-2.126 12.43-5.652 17.554-10.83 5.184-4.872 9.226-11.346 12.23-19.231 2.959-7.817 4.609-17.883 4.609-29.493 0-18.135-4.087-32.241-12.223-42.543-8.077-10.264-19.476-15.453-34.098-15.453-2.166 0-4.345.315-6.774.567-2.437.264-4.888.779-7.046 1.359z" clip-rule="evenodd"/>
</svg>
