<svg xmlns="http://www.w3.org/2000/svg" viewBox="0 0 960 960" role="img" aria-labelledby="title">
  <title id="title">Verkehrszeichen 52.4b - 4b: Ende des Überholverbotes</title>
  <path d="M-866.46-795.426c0-265.081 214.916-480 479.994-480 265.091 0 480.007 214.919 480.007 480 0 265.096-214.916 480-480.007 480-265.078 0-479.993-214.904-479.993-480" style="fill:#000;fill-rule:nonzero;stroke:none" transform="translate(866.46 1275.426)"/>
  <path d="M-386.466-331.74c256.075 0 463.678-207.606 463.678-463.686s-207.603-463.67-463.678-463.67c-256.062 0-463.665 207.591-463.665 463.67S-642.528-331.74-386.466-331.74" style="fill:#fff;fill-rule:nonzero;stroke:none" transform="translate(866.46 1275.426)"/>
  <path d="M-73.816-834.772v-43.17c0-27.45-22.325-49.775-49.76-49.775l-123.967.152c-27.435 0-49.775 22.326-49.775 49.776v43.183c-15.968 7.825-27.574 31.397-27.574 59.262 0 29.278 12.825 53.765 30.053 60.288v27.754c0 10.817 8.767 19.598 19.597 19.598 10.817 0 19.583-8.781 19.583-19.598v-25.995h45.634c2.936 10.802 12.728 18.738 24.39 18.738 11.66 0 21.452-7.936 24.388-18.738h45.786v25.843c0 10.817 8.767 19.583 19.583 19.583 10.817 0 19.597-8.766 19.597-19.583v-27.769c17.229-6.523 30.053-30.995 30.053-60.273 0-27.865-11.605-51.438-27.588-59.276m-27.699-2.77h-168.09v-40.247c0-5.886 2.3-11.44 6.468-15.595 4.168-4.169 9.708-6.468 15.594-6.468l123.966-.152c5.886 0 11.426 2.285 15.595 6.454 4.168 4.169 6.467 9.708 6.467 15.608zM-473.662-834.606v-43.183c0-27.45-22.325-49.776-49.761-49.776l-123.966.166c-27.436 0-49.775 22.326-49.775 49.776v43.17c-15.968 7.824-27.574 31.41-27.574 59.275 0 29.279 12.824 53.75 30.053 60.274v27.755c0 10.83 8.767 19.597 19.597 19.597 10.816 0 19.583-8.767 19.583-19.597v-25.996h45.648c2.922 10.803 12.713 18.752 24.375 18.752 11.66 0 21.452-7.95 24.388-18.752h45.787v25.843c0 10.817 8.766 19.598 19.583 19.598 10.83 0 19.597-8.781 19.597-19.598v-27.754c17.228-6.523 30.053-31.01 30.053-60.288 0-27.865-11.606-51.437-27.588-59.262m-27.699-2.77h-168.09v-40.247c0-5.9 2.299-11.44 6.467-15.609 4.169-4.168 9.709-6.467 15.595-6.467l123.966-.153c5.886 0 11.426 2.3 15.594 6.468a21.9 21.9 0 0 1 6.468 15.595z" style="fill:#999;fill-rule:nonzero;stroke:none" transform="translate(866.46 1275.426)"/>
  <path d="M-726.539-645.919h682.32v-21.938h-682.32z" style="fill:#999;fill-rule:nonzero;stroke:none" transform="translate(866.46 1275.426)"/>
  <path d="m-661.183-410.946 659.19-659.2-109.742-109.745-659.191 659.2z" style="fill:#000;fill-rule:nonzero;stroke:none" transform="translate(866.46 1275.426)"/>
</svg>
