<svg xmlns="http://www.w3.org/2000/svg" viewBox="0 0 960 960" role="img" aria-labelledby="title">
  <title id="title">Verkehrszeichen 52.7f-1 - 7f: Fahrverbot für Omnibusse</title>
  <path d="M315.303 86.979c0-265.093 214.912-480.007 480-480.007 265.102 0 480 214.914 480 480.007 0 265.092-214.898 479.993-480 479.993-265.088 0-480-214.9-480-479.993" style="fill:#ee1c23;fill-rule:nonzero;stroke:none" transform="translate(-315.303 393.028)"/>
  <path d="M795.303 442.885c196.568 0 355.922-159.34 355.922-355.906S991.871-268.942 795.303-268.942 439.394-109.587 439.394 86.978s159.341 355.907 355.909 355.907" style="fill:#fff;fill-rule:nonzero;stroke:none" transform="translate(-315.303 393.028)"/>
  <path d="M937.088 229.247c21.65 0 39.192-17.544 39.192-39.18s-17.542-39.18-39.192-39.18c-21.636 0-39.178 17.544-39.178 39.18s17.542 39.18 39.178 39.18M661.182 230.412c21.636 0 39.178-17.544 39.178-39.194 0-21.636-17.542-39.18-39.178-39.18-21.65 0-39.192 17.544-39.192 39.18 0 21.65 17.542 39.194 39.192 39.194" style="fill:#000;fill-rule:nonzero;stroke:none" transform="translate(-315.303 393.028)"/>
  <path d="M1058.274 166.517c3.556-3.37 5.81-8.113 5.81-13.397v-45.019c0-10.207-2.89-28.806-3.804-28.972l-33.686-115.57c5.576-1.097 9.781-5.992 9.781-11.887 0-6.698-5.423-12.121-12.119-12.121h-472.75c-1.052 0-2.048.18-3.03.43-3.625.5-11.538 2.163-16.891 7.364-7.139 6.92-11.026 21.705-11.026 21.705v172.462l-.222.208s-.871 11.261 3.888 17.322c2.352 2.996 6.28 5.659 9.656 7.6-5.534 1.124-9.712 6.02-9.712 11.886 0 6.685 5.437 12.122 12.133 12.122h79.186c.318-24.979 20.64-45.144 45.694-45.144 25.053 0 45.362 20.165 45.68 45.144h184.546c0-.195-.028-.389-.028-.583 0-25.242 20.461-45.712 45.708-45.712s45.722 20.47 45.722 45.712c0 .194-.028.388-.028.583h74.372c6.696 0 12.119-5.437 12.119-12.122 0-6.31-4.829-11.442-10.999-12.01M605.182 50.378h-67.303v-72.424c.125-1.844 1.411-14.16 13.627-14.16h53.676zm17.32-86.584h65.808v86.584h-65.808zm83.129 0h69.267v86.584H705.63zm86.573 0h67.773v86.584h-67.773zm85.093 0H944.6v86.584h-67.303zm84.623 86.584v-86.584h46.718l25.22 86.584z" style="fill:#000;fill-rule:nonzero;stroke:none" transform="translate(-315.303 393.028)"/>
</svg>
