<svg xmlns="http://www.w3.org/2000/svg" viewBox="0 0 630 470" role="img" aria-labelledby="title">
  <title id="title">Verkehrszeichen 53.18 - 18: Internationaler Hauptverkehrsweg</title>
  <path d="M32.368 465.508c-15.397 0-27.876-14.169-27.876-31.65V36.142c0-17.48 12.48-31.65 27.876-31.65h565.258c15.402 0 27.882 14.17 27.882 31.65v397.716c0 17.481-12.48 31.65-27.882 31.65z" style="fill:#fff;stroke:#0b8f4b;stroke-width:8.98453045;stroke-linecap:butt;stroke-linejoin:miter;stroke-miterlimit:4;fill-opacity:1"/>
  <path d="M30.137 33.548h569.695v402.77H30.137z" style="fill:#0b8f4b;fill-rule:nonzero;stroke:none"/>
  <path d="M269.978 116.447V69.055H82.158v331.73h187.82V353.4H123.892v-94.784h125.216V211.23H123.892v-94.783zM544.65 281.078c0-52.346-37.375-94.777-83.476-94.777-15.215 0-29.22 4.737-41.74 17.45l.005-88.535h116.865V67.824H377.7v189.561h41.74c7.22-14.141 26.3-23.692 41.735-23.699 23.048 0 41.735 21.22 41.735 47.392v28.437c0 26.173-18.687 47.385-41.735 47.385-21.613 0-39.602-18.751-41.735-42.648H377.7c2.076 50.248 38.707 90.04 83.475 90.04 46.101 0 83.475-42.438 83.475-94.777z" style="fill:#fff;fill-rule:nonzero;stroke:none"/>
</svg>
