<svg xmlns="http://www.w3.org/2000/svg" xml:space="preserve" viewBox="0 0 960 960" role="img" aria-labelledby="title">
  <title id="title">Verkehrszeichen 53.2a - 2a: Kennzeichnung eines Schutzweges Siehe: DE:Tag:footway=crossing</title>
  <path fill="#009fe3" d="M36.635 960C16.408 960 0 943.593 0 923.364V36.62C0 16.39 16.41-.001 36.635-.001h886.73C943.591-.001 960 16.39 960 36.619v886.745C960 943.593 943.591 960 923.365 960z"/>
  <path fill="#fff" d="m37.123 850.197 885.783-.044L480 83.11z"/>
  <path d="M244.475 829.865h33.292V814.49h-33.292zm466.063 0h33.291V814.49h-33.29zm-66.583 0h33.292V814.49h-33.292zm-66.582 0h33.291V814.49h-33.29zm-66.582 0h33.291V814.49h-33.29zm-66.569 0h33.292V814.49h-33.292zm-66.582 0h33.291V814.49h-33.29zm-66.582 0h33.291V814.49h-33.29zm-5.933-150.598h30.88v-12.66h-30.88zm370.494 0h30.88v-12.66h-30.88zm-61.744 0h30.88v-12.66h-30.88zm-61.759 0h30.88v-12.66h-30.88zm-61.744 0h30.88v-12.66h-30.88zm-61.744 0h30.88v-12.66h-30.88zm-61.759 0h30.88v-12.66h-30.88z"/>
  <path d="M624.41 669.308c-36.177-47.938-51.55-96.775-51.55-96.775-3.418-20.508-10.46-41.017-13.687-49.811 4.616.044 7.354.059 7.354.059s-3.004-14.474-14.767-47.937c-11.763-33.48-17.8-58.797-14.189-69.2 3.625-10.401 2.131-32.577 2.131-32.577 21.262.9 35.407 27.148 35.407 27.148-.902 6.33.65 52.91 0 57.439-.637 4.529 4.527 5.43 4.527 5.43s1.376.104 3.536.25c.415 5.755.873 16.128-.37 24.169-1.805 11.759-4.068 18.988 3.626 16.273 2.012-.708 3.255-1.194 3.98-1.55-.208 1.55-.874 5.387-2.635 9.237-2.249 4.987-2.707 7.953.903 9.959 3.625 1.992 16.941-2.493 20.817-21.261 3.877-18.753 3.951-23.917.784-28.89-2.115-3.32-4.364-4.854-4.823-6.447 2.841.162 5.193.25 6.511.25 5.874 0 2.663-6.402 1.76-15.904s-1.064-58-1.064-58 4.068 0-9.499-18.09c-13.568-18.088-59.259-58.795-78.257-70.097-6.673-3.984-11.793.885-16.734-2.745-8.597-6.3-18.495-6.344-18.495-6.344l-2.56-3.482c0-.9.917-.9 1.82-.9-.903-5.43-4.528-10.86-3.626-16.29.903-5.43 3.625-10.858 3.625-17.188 0-1.8 2.708 0 3.61-.9 1.82-4.515 2.723-11.76-.902-15.374-1.805-.915-5.504 2.92-6.836 1.402-4.217-4.825-2.204-18.591-10.343-19.491-15.388-.915-44.847-2.066-47.05-.915-2.206 1.166-.904 32.563-15.375 41.608-.902.915-3.625 2.715-1.805 3.629 3.61 1.8 9.041 0 11.748 2.715.918 1.8-1.805 4.515 1.82 6.33.902.9-.902 3.615-1.82 4.515-.902 3.629-1.805 9.044.918 11.759 1.805 2.715 8.138-.9 9.942 2.715 1.806 3.615 2.723 8.145 4.527 11.759.903 1.815 5.431 1.815 9.041 2.715 1.805.9.902 2.715.902 3.615-1.806 2.715-5.415 0-6.333.915 0-.015-20.685 15.433-34.253 44.839-13.567 29.39-20.359 43.393-26.233 49.28-5.889 5.872-42.627 31.544-42.627 31.544s-8.33 8.1-5.712 15.109c-11.038 3.747-35.999 13.795-30.687 26.912 6.791 16.73 18.584 13.78 26.691 8.587 6.437-4.116 13.51-17.13 16.128-22.28 3.314 1.89 7.058 2.922 11.01 2.392 9.941-1.357 48.396-38.45 48.396-38.45s14.012-13.117 27.58-20.347c0 0 10.076 74.229 11.955 85.53a911 911 0 0 1 3.211 20.628c-8.818 14.105-29.533 49.295-45.306 92.26-20.58 56.082-45.395 111.839-51.727 127.213 0 0 2.012 1.18 5.297 3.04-3.729 1.696-9.426 3.216-17.948 3.334-19.9.28-36.19.53-36.19.53s-4.528.326-5.875 3.955c-1.36 3.615 1.346 6.729 1.346 6.729l35.451 19.535 22.446.87v9.044l26.012 5.519s3.33 1.21 4.231-3.32c.651-3.23 5.237-18.841 7.813-27.531 5.475 2.228 10.52 3.91 14.411 4.529 0 0 14.811-43.673 20.73-60.67 5.902-16.997 23.524-62.22 31.056-78.066 7.546-15.846 31.441-47.687 37.774-56.73.09-.147.178-.295.252-.442 20.685 22.309 22.934 37.623 34.534 61.127 11.984 24.242 16.615 29.259 37.434 59.106 20.804 29.849 39.047 59.387 39.047 59.387a206 206 0 0 0 5.135-2.45c-3.152 10.418-10.225 31.945-16.335 36.696-8.153 6.344-12.296 8.247-12.31 10.858 0 2.612 1.346 3.763 4.512 3.482s35.732.708 35.732.708 13.568-13.56 16.275-24.876c0 0 4.928-4.058 7.191-2.7 2.25 1.357 1.583.03 1.583.03l5.711-6.817s.415-8.823-2.752-13.338c0 0-2.367-12.94-10.12-22.397 9.735-7.568 14.44-13.16 14.44-13.16s4.313 5.014-31.878-42.922"/>
</svg>
