<svg xmlns="http://www.w3.org/2000/svg" viewBox="0 0 960 960" role="img" aria-labelledby="title">
  <title id="title">Verkehrszeichen 52.18 - 18: Unterführung</title>
  <path d="M253.962-367.266c0-265.095 214.904-480 480-480s480 214.905 480 480-214.903 480-480 480-480-214.904-480-480" style="fill:#176fc1;fill-rule:nonzero;stroke:none" transform="translate(-253.962 847.265)"/>
  <path d="M1099.666-294.527H1000.1l12.288 53.335H886.094l12.288 53.334h-50.165c1.97-1.634 5.77-4.889 7.85-7.395 0 0-1.498-6.108 7.517-5.762l10.388-8.088-2.316-5.775s-.569-4.612-6.92-8.075c-3.551-1.938-4.397-5.498-4.453-8.268l11.956-7.894s5.187-2.895-.583-9.238c-5.77-6.357-36.365-53.68-57.724-72.738 0 0 15.811-53.058 16.754-95.382 4.48-.222 7.767-.582 9.445-1.08 13.537-4.017 9.709-4.197 8.433-24.75-1.262-20.553-2.996-29.209-9.917-56.922-6.934-27.699 3.579-66.035 3.579-66.035s25.047 15.013 33.133 36.951c8.072 21.938 7.268 84.51 7.268 84.51 0-.013 1.123 2.895 7.78 3.698-1.262 11.232-2.4 34.334 8.377 41.66 14.438 9.82 24.133 6.468 26.56-.568 2.358-6.842 1.151-16.744-13.855-17.894-7.226-.554-5.52-16.951-4.522-23.682 9.32-.457 12.996-.291 12.996-.291s-.042-71.243-6.172-94.358c-5.187-19.625-11.54-25.982-11.54-25.982s-30.595-70.425-70.996-89.468a75.7 75.7 0 0 0-28.543-7.16c13.467-7.936 23.19-30.4 23.19-56.908 0-1.22-.028-2.355-.07-3.463h16.962a6.36 6.36 0 0 0 6.352-6.357 6.347 6.347 0 0 0-6.352-6.343H824.75c-.25-8.185-.776-23.212-1.58-32.907-1.096-13.226-11.54-8.088-16.158-5.775 8.058-4.03-16.727 4.612-24.244-.582-16.74-11.536-20.207 8.089-20.207 8.089l-3.412 31.175h-28.335a6.347 6.347 0 0 0-6.352 6.343 6.36 6.36 0 0 0 6.352 6.357h27.336a135 135 0 0 0-.055 3.463c0 26.258 9.542 48.529 22.815 56.672-9.75-.997-26.435-1.412-35.09 5.665-12.704 10.387-38.098 40.399-45.019 60.024-6.935 19.639-24.243 54.263-38.099 70.425-13.855 16.163-50.803 50.8-50.803 50.8s-12.343 3.81-4.271 10.734c.929.803 2.01 1.648 3.148 2.52-6.255 4.308-13.48 11.537-15.034 22.534-2.843 20.179-2.316 24.819 1.733 28.281 4.036 3.462 5.77-2.88 6.352-9.806.528-6.384 9.39-22.519 22.51-30.455a348 348 0 0 0 7.282 4.474s6.088-1.08 11.4-5.346 45.727-48.931 57.28-63.93c11.54-15.013 29.098-43.28 29.098-43.28s-2.08 34.638-17.087 73.887-22.746 54.263-22.746 54.263-1.733 3.684 7.503 5.997c1.29.319 4.758.706 9.723 1.122-8.474 20.013-29.375 71.187-31.664 94.468 0 0-1.15 31.743.583 37.519 1.734 5.775 8.654 91.781 8.086 107.944-.583 16.162-1.165 12.118 7.503 10.969l6.879-.942-.527 5.553s-2.08 3.81-11.553 10.388c-9.459 6.592-18.474 17.326-18.474 17.326l.541 2.423h-12.08l12.288 53.335H544.079l12.288 53.335h-95.698v20.788h114.935l-12.289-53.348H689.61l-12.288-53.335h126.293l-12.288-53.335h126.293l-12.288-53.335h126.293l-12.288-53.335h80.33zM784.377-134.523h-90.996l22.995-5.886c.014 0 0-9.238 6.935-2.894l12.704-2.3 1.151-5.775s3.468-6.357-4.05-10.969v-12.478c7.947-1.122 13.856-1.953 13.856-1.953s10.388 0 5.783-10.387c-3.44-7.728-15.2-34.43-16.643-53.709-2.413-32.297-15.131-56.27-16.837-61.742 0 0 28.862-45.025 32.315-61.187 1.734-8.088 5.645-14.002 9.112-17.908 1.429 26.37 3.232 56.66 4.175 62.933 0 0 2.885 13.282 9.223 22.52 6.352 9.223 52.537 74.455 52.537 74.455l2.676 1.205c-2.15 4.46-5.09 9.57-8.446 12.645-6.06 5.553-20.069 15.082-24.646 20.095H772.09z" style="fill:#fff;fill-rule:nonzero;stroke:none" transform="translate(-253.962 847.265)"/>
</svg>
