<svg xmlns="http://www.w3.org/2000/svg" viewBox="0 0 1000 873.008" role="img" aria-labelledby="title">
  <title id="title">Verkehrszeichen 50.13a - 13a: Achtung Tiere</title>
  <path d="M642.42-724.122c14.04-24.298 37.02-24.298 51.06 0l468.5 810.585c14.04 24.299 2.55 44.188-25.541 44.188l-936.94.012c-28.08 0-39.582-19.877-25.53-44.175z" style="fill:#ee1c23;fill-rule:nonzero;stroke:none" transform="translate(-167.972 742.345)"/>
  <path d="m328.81 26.71 678.317-.013L667.95-560.155z" style="fill:#fff;fill-rule:nonzero;stroke:none" transform="translate(-167.972 742.345)"/>
  <path d="M844.65-65.484c-5.06-10.997-4.285-28.633-2.302-39.162 0 0 15.8-85.543-17.796-105.075-18.227-14.261-41.072-15.517-57.636-12.057-19.864 4.138-39.581 6.503-61.921 8.214-4.286.333-15.801 1.528-27.008 1.983-24.372.985-27.34-3.953-37.217-5.59-17.673-2.944-63.24 0-63.24 0l.062.098c-4.618-1.17-7.007-3.129-12.143-4.496-5.899-1.564-10.788-4.593-12.734-7.02-3.51-4.384-5.702-11.403-17.13-8.768-4.212.973-8.313 4.705-11.811 9.027-1.81-.812-3.83-1.896-5.751-3.325-4.25-3.177-14.495.444-14.495.444s5.27 3.066 6.588 6.576c1.01 2.672 1.761 6.108 5.752 8.374-.284.493-.53.961-.752 1.392-.21-.012-.406-.025-.603-.025-4.63 0-8.387 3.892-8.387 8.683 0 .43.037.85.099 1.256-4.25 2.77-3.572 4.446-3.572 4.446s2.636.443 0 3.51c-2.635 3.078-7.032 11.847-7.032 11.847l-1.749.443c-.702.862-2.229 2.907-3.805 5.062-.05-.012-.099-.012-.148-.012-1.884 0-3.411 1.662-3.411 3.719 0 .345.037.665.11.973-.91 1.244-1.527 2.106-1.527 2.106-1.317 3.066 1.318 4.384 1.318 4.384l1.749 4.828c2.635 3.94 8.78 3.94 8.78 3.94.888 2.193 8.35 3.08 11.43 2.636 2.844-.406 5.246-1.465 7.13-2.635h10.431s3.079 0 9.224 8.337c7.611 10.32 35.136 67.784 35.136 67.784 4.113 7.574 10.296 11.564 17.365 13.263.653 2.266 1.465 4.779 2.389 7.143 3.62 9.212 2.635 32.242 2.635 34.877s-.652 3.621-.652 3.621c-2.02 4.914-5.099 9.68-6.86 12.23-1.17.196-1.983.652-2.217 1.366-.16.518 0 1.109.431 1.725l-1.588 4.544-.973-.456s.332.665-2.303 6.589c-2.636 5.924 4.286 4.926 4.286 4.926s4.938.333 11.194.333c5.64 0 2.993-3.732 2.414-4.483-.135-1.921-.148-4.766.591-6.958.764-.247 1.28-.64 1.453-1.183.16-.48.025-1.034-.344-1.6 1.046-2.932 2.536-8.584 1.157-14.077 0 0 1.65-2.956 1.65-6.577 0 0 7.242-12.18 13.178-38.497l.948-5.16.985-.26c-.505 9.484-.184 26.06.37 29.114.653 3.621-3.3 11.183-3.3 11.183s1.317 1.97-2.304 6.909c-2.216 3.03-3.448 6.182-4.064 8.165-.714.246-1.207.628-1.379 1.157-.16.493-.012 1.047.357 1.626l-1.823 2.87v.049c.025.21-.012 1.367-1.97 6.54C599.685 1.314 605.56.33 605.56.33c0-.013 4.2.32 9.52.32s1.958-4.606 1.958-4.606l-.234-.123c.468-1.441 1.404-3.695 3.08-5.58.492-.245.837-.578.972-.997 0 0 4.101-7.45 2.45-12.389-1.637-4.926.666-8.547 1.651-11.515.985-2.955 2.488-12.746 6.921-22.697 1.946-4.372 4.594-14.446 4.803-22.352 3.165-1.318 5.53-2.328 6.724-2.66 7.242-1.97 2.636-1.97 20.42.665 23.522 3.473 51.687 3.522 68.239 3.14 1.835 4.076 4.593 8.498 8.707 12.512a7 7 0 0 0-.333 2.106c0 3.609 2.71 6.515 6.06 6.515 1.526 0 2.918-.616 3.99-1.613a49 49 0 0 0 5.234 2.352c-.062.53-.111 1.072-.111 1.638 0 3.855 1.675 6.983 3.731 6.983 1.958 0 3.56-2.833 3.707-6.429a68 68 0 0 0 8.744 1.38c.517 3.337 2.562 5.837 5 5.837 2.365 0 4.347-2.328 4.939-5.493a97 97 0 0 0 5.234-.234l-.173.69s.431 3.953.875 8.338c.443 4.396-3.51 15.357-3.51 15.357s-4.397-.431-2.205 5.27c1.614 4.188 1.33 4.582 1.072 4.508l-.185-.123c-9.224-.443-9.668 15.357-9.668 15.357l14.052-.443 3.08-10.086s2.635-4.385 0-8.338c0 0 6.428-13.436 9.039-22.672 3.312 7.537 4.569 14.778 4.569 14.778L794.7-13.611c-8.35 13.608-5.271 20.185-5.271 20.185l12.29-.875c0-5.27 3.08-7.463 3.08-7.463v-3.94c4.384 1.748 1.317-10.53 1.317-10.53.874-3.08 10.973-32.033 10.973-32.033 3.079-3.953.443-6.145.443-6.145s-3.953-17.106-6.145-29.397c-2.204-12.278 5.924-26.096 5.924-26.096 2.832-7.07 6.33-17.636 9.446-29.15 10.973 16.625 10.973 35.726 10.973 35.726s-1.97 19.742-5.271 30.936c-3.289 11.183 2.968 25.333 4.938 31.257 1.983 5.924.998 13.485.998 13.485s.972 1.749 2.303-.32c1.133-1.761 2.463-7.13 4.285-9.544 3.941-5.271 5.259-15.801-.332-27.969" style="fill:#000;fill-rule:nonzero;stroke:none" transform="translate(-167.972 742.345)"/>
</svg>
