<svg xmlns="http://www.w3.org/2000/svg" viewBox="0 0 2548.167 1974.814" role="img" aria-labelledby="title">
  <title id="title">Verkehrszeichen 54l - l: nur für den Fahr­streifen, der links an der Trennungs­einrichtung vorbeiführt</title>
  <path d="M-261.63 1165.208c-20.44-32.026-47.59-49.705-76.45-49.705h-2331.947c-59.61 0-108.113 76.142-108.113 169.714V2920.64c0 45.335 11.245 87.95 31.662 119.975 20.44 32.061 47.592 49.701 76.45 49.701H-338.08c28.86 0 56.01-17.64 76.45-49.7 20.418-32.025 31.657-74.64 31.657-119.976V1285.217c0-45.335-11.239-87.948-31.657-120.009" style="fill:#000;fill-rule:nonzero;stroke:none" transform="translate(2778.14 -1115.503)"/>
  <path d="M-252.733 2920.642c0 73.888-38.277 133.965-85.347 133.965h-2331.947c-22.787 0-44.224-13.92-60.36-39.217-16.112-25.332-24.993-58.968-24.993-94.748V1285.217c0-35.779 8.88-69.454 24.994-94.748 16.135-25.295 37.572-39.256 60.359-39.256H-338.08c22.781 0 44.224 13.96 60.359 39.256 16.113 25.294 24.988 58.97 24.988 94.748z" style="fill:#fff;fill-rule:nonzero;stroke:none" transform="translate(2778.14 -1115.503)"/>
  <path d="m-1807.82 2592.338-583.183 177.29 334.42-509.634c5.13-9.665 23.622-24.96 23.622-24.96l80.084 128.559 1266.692-943.274 75.7 94.42-1267.5 948.892 100.793 113.057s-19.897 13.44-30.627 15.65" style="fill:#000;fill-rule:nonzero;stroke:none" transform="translate(2778.14 -1115.503)"/>
</svg>
