<svg xmlns="http://www.w3.org/2000/svg" xml:space="preserve" viewBox="0 0 960 960" role="img" aria-labelledby="title">
  <title id="title">Verkehrszeichen 53.2c - 2c: Kennzeichnung eines Schutzweges und einer Radfahrerüberfahrt</title>
  <path fill="#009fe3" d="M36.639 960c-20.226 0-36.64-16.402-36.64-36.63V36.616C0 16.388 16.414 0 36.64 0h886.723C943.58 0 960 16.388 960 36.617V923.37C960 943.6 943.58 960 923.36 960z"/>
  <path fill="#fff" d="m37.11 850.194 885.79-.044L480 83.105z"/>
  <path d="M613.608 374.108c-10.354-10.36-24.131-16.06-38.777-16.06a54.5 54.5 0 0 0-20.115 3.835l-14.02-29.627c.926-1.59 1.777-3.056 2.533-4.365l11.154-.53a4.355 4.355 0 0 0 4.143-4.547 4.343 4.343 0 0 0-4.545-4.133l-1.256.058c6.199-5.119.633-15.38-1.154-19.257-2.182-4.713-10.998-19.969-18.75-34.356-7.752-14.395-16.2-29.07-27.79-38.845-11.585-9.78-27.202-13.359-27.202-13.359-2.897 0-5.078-4.349-5.801-7.239-1.446-5.068-1.446-10.866-5.072-15.935-4.34-5.798-11.586-8.688-18.833-7.248l-4.345 2.18c-6.52 5.788-14.578 18.013-13.037 19.554s2.169 0 3.62.721c2.176 2.178 2.898 5.07 5.067 7.248 2.18 2.898.61 8.953 3.16 9.02 1.459.033 1.733.215 3.364-2.502.724 1.45 1.63 2.261 2.898 3.255 1.715.82.835 1.11 1.267 1.358 1.283.745 1.087 2.451 2.169 2.99 3.62.721 7.433-2.535 10.33-1.085 2.169 1.45 5.067-.729 6.514 1.45.723 2.898 2.169 5.79 1.45 7.967 0 0-2.084-2.659-.357.936-2.35 4.365-3.733 12.606-5.532 19.066-2.31 8.3-1.771 17.774-1.497 23.216-4.843 2.112-10.83 5.856-16.826 10.743-4.333 3.536-8.071 7.181-10.975 10.56v-.01l-4.182 4.398c-1.38.215-8.71 1.566-11.742 6.601-1.032 1.723-1.968 4.58-.561 8.457l.213.605 5.549 5.55-1.727 5.971c-3.391-7.305-13.268-6.957-13.268-6.957l.628 16.98s-.264 4.39 2.999 4.39c2.932 0 4.982-1.376 6.424-3.265l-5.622 19.488a55 55 0 0 0-18.912-3.338c-30.245 0-54.846 24.6-54.846 54.831 0 14.652 5.706 28.425 16.064 38.78 10.358 10.352 24.13 16.06 38.78 16.06 14.647 0 28.419-5.708 38.777-16.06 10.364-10.355 16.064-24.128 16.064-38.78 0-14.644-5.7-28.417-16.064-38.77a54.8 54.8 0 0 0-13.184-9.75l3.728-12.912 44.6 39.987c-.51.555-.992 1.16-1.43 1.84-.481.967-.481 3.377 0 3.377 2.54.912 5.012.796 7.444.166l2.55 2.294a19.5 19.5 0 0 0-2.842 10.146 19.45 19.45 0 0 0 5.74 13.85 19.46 19.46 0 0 0 13.856 5.74c5.229 0 10.15-2.039 13.844-5.74.084-.076.146-.158.225-.233.084.05.174.108.246.157-.992 1.425-2.64 3.48-5.33 6.461-9.176 10.138-5.924 11.537-3.273 12.747 2.658 1.201 10.633-4.539 12.56-6.949 1.937-2.419 5.405-4.912 5.405-4.912s-.201-1.855 1.727-2.824c.773-.38 1.535-.223 2.18.091 2.494 8.986 7.266 17.236 14.035 24.011 10.359 10.354 24.13 16.061 38.78 16.061 14.647 0 28.425-5.707 38.778-16.06 10.357-10.354 16.064-24.128 16.064-38.779 0-14.644-5.707-28.417-16.064-38.77v.001zm-184.761 5.12c8.99 8.985 13.945 20.946 13.945 33.651 0 26.248-21.355 47.6-47.6 47.6-12.717 0-24.667-4.953-33.663-13.939-8.984-8.995-13.934-20.947-13.934-33.66 0-12.706 4.949-24.666 13.934-33.653 8.996-8.987 20.946-13.939 33.664-13.939a47.5 47.5 0 0 1 16.895 3.09l-4.558 15.786-15.722 26.893a3.61 3.61 0 0 0 1.3 4.953 3.61 3.61 0 0 0 4.949-1.3l15.958-27.283q.22-.385.348-.82l4.366-15.099a48 48 0 0 1 10.118 7.72m140.138 29.767-41.398-1.864c1.266-10.535 5.969-20.284 13.592-27.904a47.8 47.8 0 0 1 10.084-7.703zm-112.578-108.07c8.413-6.859 16.104-7.124 19.483-17.262 2.83-4.539 3.172-8.705 5.313-16.416.393-1.399 3.066-5.889 3.38-7.247 2.466 3.653 3.448 4.34 7.007 9.061 18.834 24.988 21.002 32.591 21.002 32.591s-.78 4.63-4.881 5.848c-4.104 1.21-8.51 2.866-12.998 4.937-8.695 4.025-15.998 8.83-20.711 13.302h-42.066l3.055-10.61 1.49.695 5.622-5.35c4.322-2.203 9.31-5.483 14.304-9.55m-32.23 15.164c-.408-1.516-.066-2.385.253-2.923.857-1.425 2.803-2.427 4.59-3.064a4.5 4.5 0 0 0-.011 1.093 3.5 3.5 0 0 0-.841 1.458l-1.664 5.764zm51.04 71.09-48.394-43.385c-.022-.025-.056-.04-.078-.066l2.695-9.367c.258.042.52.075.79.075h38.099c-.084.786.01 1.524.313 2.178.448.96-.207 3.992.97 4.514.106 5.268 2.467 9.525 4.114 16.5 2.596 10.965 6.45 20.134 10.004 24.548-2.497 2.228-5.58 3.512-8.512 5.002m19.215 37.321a15.14 15.14 0 0 1-10.785-4.465 15.16 15.16 0 0 1-4.461-10.775c0-2.55.623-5.002 1.794-7.19l11.03 9.89a3.65 3.65 0 0 0 2.255.92l4.596.207c2.063 2.957 4.242 5.333 6.172 7.09-2.743 2.666-6.481 4.323-10.601 4.323m-8.603-27.813a14.7 14.7 0 0 1 3.369-1.73c.852 2.136 1.77 4.952 2.689 7.155zm21.967-56.992c-5.914 9.566-11.318 20.582-13.896 28.84-.14-3.264-.627-6.94-1.586-10.99-1.328-5.6-3.061-15.53-4.832-19.797 5.398-1.035 10.252-.687 16.615-3.313h7.768c-1.851 2.253-3.515 4.357-4.07 5.26m12.537 67.104-2.242-.099-3.38-6.129c-.437-3.206-2.062-7.33-2.897-10.867-.93-3.934 1.789-5.333-1.631-13.326 5.309-6.767 9.613-11.355 16.17-21.129 3.504-5.21 6.889-10.593 9.87-15.504l11.94 25.245c-15.111 8.448-25.834 23.83-27.83 41.81m54.498 53.68c-12.711 0-24.662-4.953-33.652-13.94-5.896-5.896-10.05-13.069-12.207-20.888l.039-.025s1.45-1.449-.477-4.829c-.225-.389-.51-.812-.813-1.25a47 47 0 0 1-.45-5.177l47.403 2.128a3.63 3.63 0 0 0 3.178-1.607 3.65 3.65 0 0 0 .258-3.562l-20.307-42.903a47.5 47.5 0 0 1 17.027-3.139c12.719 0 24.668 4.953 33.66 13.94 8.996 8.986 13.945 20.946 13.945 33.651 0 26.248-21.354 47.6-47.604 47.6M275.087 800.462h51.96v-23.259h-51.96zm70.62 0h51.96v-23.259h-51.96zm70.62 0h51.96v-23.259h-51.96zm70.62 0h51.96v-23.259h-51.96zm70.62 0h51.959v-23.259h-51.96zm70.6 0h51.96v-23.259h-51.96zm70.62 0h51.96v-23.259h-51.96zm70.62 0h51.96v-23.259h-51.96zm-564.94 0h51.96v-23.259h-51.96zm-70.61 0h51.96v-23.259h-51.96zM350.023 613.897h25.064v-16.636h-25.064zm42.569 0h25.064v-16.636h-25.064zm42.585 0h25.057v-16.636h-25.057zm42.569 0h25.057v-16.636h-25.057zm42.57 0h25.058v-16.636h-25.057zm42.577 0h25.064v-16.636h-25.064zm42.57 0h25.065v-16.636h-25.064zm42.57 0h25.065v-16.636h-25.064zm-340.58 0h25.063v-16.636h-25.063zm-42.584 0h25.064v-16.636h-25.064zm425.74 0h25.058v-16.636H690.61z"/>
  <path d="M393.986 363.34h16.079v-12.308h-16.08zm27.308 0h16.079v-12.308h-16.08zm27.319 0h16.074v-12.308h-16.074zm27.308 0h16.074v-12.308H475.92zm27.308 0h16.074v-12.308h-16.074zm27.315 0h16.078v-12.308h-16.078zm27.308 0h16.078v-12.308h-16.078zm27.309 0h16.08v-12.308h-16.08zm-218.484 0h16.078v-12.308h-16.078zm-27.318 0h16.079v-12.308h-16.08zm273.116 0h16.074v-12.308h-16.074zM569.186 708.131c-18.252-24.183-26.006-48.819-26.006-48.819-1.725-10.346-5.277-20.692-6.904-25.128 2.328.021 3.709.03 3.709.03s-1.516-7.302-7.45-24.184c-5.933-16.888-8.978-29.66-7.157-34.908 1.828-5.247 1.074-16.435 1.074-16.435 10.727.454 17.863 13.695 17.863 13.695-.457 3.193.328 26.691 0 28.977-.322 2.285 2.283 2.74 2.283 2.74s.695.051 1.783.125c.209 2.903.44 8.136-.186 12.192-.91 5.932-2.053 9.58 1.828 8.21 1.016-.357 1.643-.604 2.008-.78-.104.78-.44 2.715-1.328 4.658-1.135 2.516-1.365 4.012.455 5.023 1.828 1.005 8.547-1.257 10.502-10.726 1.957-9.46 1.994-12.065.396-14.573-1.068-1.675-2.203-2.448-2.434-3.253 1.434.082 2.619.127 3.283.127 2.965 0 1.344-3.23.889-8.023-.455-4.794-.537-29.26-.537-29.26s2.053 0-4.793-9.125c-6.844-9.125-29.893-29.66-39.477-35.363-3.367-2.009-5.95.447-8.443-1.384-4.336-3.179-9.33-3.2-9.33-3.2l-1.291-1.758c0-.454.463-.454.918-.454-.455-2.738-2.283-5.478-1.828-8.217s1.828-5.479 1.828-8.67c0-.909 1.367 0 1.822-.455.918-2.277 1.373-5.933-.455-7.757-.912-.46-2.777 1.475-3.45.708-2.126-2.435-1.11-9.379-5.216-9.833-7.764-.46-22.625-1.042-23.737-.46-1.112.587-.455 16.426-7.755 20.988-.455.462-1.83 1.37-.911 1.831 1.82.908 4.562 0 5.927 1.37.463.908-.91 2.277.918 3.192.456.454-.455 1.824-.918 2.278-.455 1.831-.91 4.563.463 5.933.91 1.37 4.105-.455 5.017 1.37.91 1.822 1.373 4.107 2.283 5.931.456.915 2.739.915 4.56 1.37.912.453.456 1.37.456 1.823-.91 1.37-2.731 0-3.194.461 0-.01-10.435 7.786-17.28 22.62-6.844 14.827-10.27 21.891-13.233 24.86-2.971 2.963-21.504 15.914-21.504 15.914s-4.202 4.086-2.881 7.621c-5.57 1.891-18.161 6.96-15.481 13.576 3.426 8.441 9.375 6.952 13.466 4.332 3.247-2.076 6.814-8.64 8.136-11.238 1.672.952 3.56 1.473 5.554 1.205 5.016-.685 24.415-19.396 24.415-19.396s7.068-6.617 13.913-10.265c0 0 5.083 37.446 6.03 43.148a454 454 0 0 1 1.62 10.405c-4.448 7.116-14.898 24.867-22.854 46.542-10.383 28.292-22.9 56.42-26.095 64.175 0 0 1.015.596 2.672 1.533-1.881.856-4.755 1.623-9.054 1.683-10.04.142-18.258.27-18.258.27s-2.284.162-2.963 1.993c-.688 1.824.679 3.395.679 3.395l17.884 9.854 11.324.44v4.562l13.122 2.784s1.679.61 2.134-1.675c.329-1.63 2.643-9.505 3.94-13.89 2.763 1.124 5.309 1.973 7.272 2.285 0 0 7.472-22.03 10.457-30.605 2.979-8.575 11.869-31.389 15.668-39.383 3.807-7.994 15.86-24.057 19.057-28.619.043-.074.088-.148.127-.223 10.434 11.254 11.568 18.98 17.42 30.837 6.047 12.23 8.383 14.76 18.885 29.817 10.494 15.058 19.697 29.96 19.697 29.96a103 103 0 0 0 2.592-1.237c-1.59 5.255-5.158 16.115-8.24 18.512-4.113 3.2-6.203 4.16-6.211 5.478 0 1.317.68 1.898 2.275 1.757 1.598-.142 18.027.357 18.027.357s6.844-6.84 8.21-12.549c0 0 2.485-2.047 3.628-1.362 1.135.685.799.015.799.015l2.88-3.438s.21-4.452-1.388-6.729c0 0-1.193-6.527-5.105-11.299 4.912-3.818 7.285-6.64 7.285-6.64s2.17 2.535-16.086-21.649"/>
</svg>
