<svg xmlns="http://www.w3.org/2000/svg" viewBox="0 0 1000 874.935" role="img" aria-labelledby="title">
  <title id="title">Verkehrszeichen 50.3a - 3a: Kreuzung mit Kreisverkehr</title>
  <path d="M-248.93-800.283c14.046-24.364 37.027-24.364 51.073 0L270.636 12.082c14.046 24.352 2.555 44.272-25.524 44.272l-936.95.025c-28.09 0-39.581-19.92-25.536-44.272z" style="fill:#ee1c23;fill-rule:nonzero;stroke:none" transform="translate(723.369 818.556)"/>
  <path d="m-562.526-47.803 678.314-.025-339.181-588.128z" style="fill:#fff;fill-rule:nonzero;stroke:none" transform="translate(723.369 818.556)"/>
  <path d="m-59.942-152.567-31.695-70.302-66.908 31.312 28.98 11.466c-18.539 32.695-53.579 54.8-93.827 54.8-17.18 0-33.436-4.023-47.864-11.182l-20.958 38.299c20.65 10.565 44.05 16.526 68.822 16.526 58.688 0 109.563-33.423 134.705-82.286zm-175.373-262.795-44.963 62.638 60.54 42.347-4.58-30.856c37.558-.284 74.203 19.044 94.32 53.949 8.603 14.897 13.244 31.004 14.256 47.086l43.618-.975c-1.197-23.18-7.738-46.445-20.13-67.933-29.338-50.875-83.682-78.288-138.519-75.659zm-139.617 283.444 76.67 7.664 6.357-73.671-24.4 19.402c-19.02-32.436-20.625-73.87-.507-108.761 8.603-14.898 20.205-26.981 33.608-35.905l-22.648-37.323c-19.464 12.626-36.311 29.93-48.703 51.418-29.338 50.876-25.87 111.7 3.826 157.934z" style="fill:#000;fill-rule:nonzero;stroke:none" transform="translate(723.369 818.556)"/>
</svg>
