<svg xmlns="http://www.w3.org/2000/svg" viewBox="0 0 690 690" role="img" aria-labelledby="title">
  <title id="title">Verkehrszeichen 52.17a-c - 17a/c: Ende des Geh- und Radweges (gemein­sam geführter Weg)</title>
  <path d="M468.199-226.546c0-190.534 154.47-345.005 344.995-345.005 190.534 0 345.005 154.47 345.005 345.005 0 190.525-154.47 344.995-345.005 344.995-190.525 0-344.995-154.47-344.995-344.995" style="fill:#176fc1;fill-rule:nonzero;stroke:none" transform="translate(-468.199 571.55)"/>
  <path d="M971.576-427.144c-13.558-13.558-31.585-21.024-50.767-21.024a71.4 71.4 0 0 0-26.04 4.908l-16.634-36.98 6.71-10.651c11.775 2.389 23.402 4.698 24.039 4.698 6.57 0 11.905-5.325 11.905-11.905s-5.335-11.906-11.905-11.906l-49.114.05a6.94 6.94 0 0 0-6.948 6.948 6.94 6.94 0 0 0 6.948 6.938v.07s7.286 1.503 16.255 3.325l-5.395 8.55H744.16c3.276-9.824 5.446-16.314 5.446-16.314.03-.12.04-.23.07-.349.03-.12.07-.239.08-.358.019-.12.01-.25.01-.369.009-.119.019-.238.009-.358s-.04-.239-.06-.358c-.02-.11-.03-.23-.06-.339-.03-.12-.08-.219-.119-.338-.04-.11-.08-.22-.13-.329-.05-.1-.119-.199-.178-.288-.06-.11-.12-.21-.19-.309a3 3 0 0 0-.239-.259c-.08-.09-.149-.179-.248-.268-.08-.07-.19-.14-.289-.21-.1-.07-.19-.149-.289-.209-.11-.07-.229-.109-.338-.159s-.21-.11-.319-.15l-20.625-7.176 6.182-16.206 49.721-.557 14.713 13.309a3.682 3.682 0 1 0 4.947-5.455l-15.788-14.285-1.075-.965-1.443.02-53.673.597-2.509.02-10.66 27.991 24.357 8.471-18.684 56.063a71.7 71.7 0 0 0-26.14-4.908c-39.588 0-71.8 32.212-71.8 71.8 0 19.182 7.466 37.21 21.033 50.777 13.558 13.558 31.595 21.024 50.767 21.024 19.182 0 37.21-7.466 50.777-21.024 13.558-13.567 21.023-31.595 21.023-50.776s-7.465-37.21-21.023-50.777a72.3 72.3 0 0 0-17.888-13.07 9598 9598 0 0 1 5.216-15.648l54.62 58.322c-3.764 4.639-6.033 10.541-6.033 16.962 0 7.207 2.807 13.976 7.904 19.072 5.096 5.097 11.865 7.904 19.072 7.904 1.075 0 2.14-.09 3.185-.21l1.344 6.003h-8.74v8.422h24.21v-8.422h-11.15l-1.533-6.818a26.9 26.9 0 0 0 11.756-6.879 26.76 26.76 0 0 0 7.466-14.374l12.184.468c.239 18.824 7.675 36.483 21.004 49.821 13.567 13.558 31.594 21.024 50.776 21.024s31.296-12.97 44.854-26.538c13.568-13.558 26.946-26.08 26.946-45.262s-7.465-37.21-21.033-50.777m-233.09 8.939c11.17 11.168 17.331 26.03 17.331 41.838 0 32.63-26.548 59.178-59.178 59.178-15.807 0-30.659-6.162-41.838-17.34-11.178-11.17-17.33-26.031-17.33-41.838s6.152-30.67 17.33-41.838c11.179-11.179 26.03-17.33 41.838-17.33 7.715 0 15.19 1.473 22.138 4.27l-13 39c-.995 2.678-4.867 10.363-10.432 12.453a3.676 3.676 0 0 0-2.15 4.739c.707 1.9 2.837 2.866 4.738 2.16 9.895-3.713 14.603-16.395 14.802-16.933.01-.03 5.774-17.32 12.732-38.204a59.6 59.6 0 0 1 13.02 9.845m149.564-22.02c-21.362 11-36.512 32.382-38.742 57.447l-12.164-.458a26.8 26.8 0 0 0-7.765-16.414c-.428-.419-.876-.797-1.324-1.195l45.362-71.92zm5.166 11.488 21.8 48.467-53.086-2.03c1.334-13.558 7.266-26.14 17.041-35.905a59 59 0 0 1 14.245-10.532m-88.165 37.16-5.953-6.351a20.8 20.8 0 0 1 4.082-2.021zm2.21-9.407c.995-.15 2.01-.25 3.046-.25 2.498 0 4.937.469 7.217 1.315l-7.396 11.736zm17.38 5.564c.09.08.18.15.269.239a20.48 20.48 0 0 1 5.823 11.696l-13.299-.507zm-83.287-80.291h123.96l-44.366 70.357a26.75 26.75 0 0 0-10.641-2.19c-1.513 0-2.986.15-4.43.388l-2.996-13.408h9.526v-8.422l-24.209 8.422h10.363l3.225 14.413a26.8 26.8 0 0 0-7.038 3.584l-57.356-61.239c1.384-4.17 2.717-8.162 3.962-11.905m68.953 115.788c-5.525 0-10.71-2.15-14.613-6.042-3.902-3.902-6.042-9.098-6.042-14.613 0-4.5 1.443-8.76 4.081-12.304l13.886 14.822.598.647 3.892 17.4c-.598.05-1.195.09-1.802.09m5.943-.876-3.584-15.996 17.798.676c-1.612 7.317-7.107 13.18-14.214 15.32m104.56 43.61c-15.808 0-30.67-6.162-41.839-17.34-10.84-10.83-16.942-25.135-17.3-40.405l58.999 2.25 3.643-.528-.15-4.668-24.228-53.873a59.2 59.2 0 0 1 20.874-3.783c15.808 0 30.67 6.152 41.838 17.33 11.179 11.17 17.34 26.031 17.34 41.839 0 32.63-26.548 59.178-59.178 59.178" style="fill:#fff;fill-rule:nonzero;stroke:none" transform="translate(-468.199 571.55)"/>
  <path d="M957.083-19.149s0-14.294-3.574-29.186c-2.658-11.099-8.969-21.86-12.005-26.617a7.4 7.4 0 0 0-1.692-2.558l-5.545-1.105c7.815-3.723 13.23-11.697 13.23-20.934 0-12.781-10.373-23.154-23.164-23.154S901.17-112.33 901.17-99.549c0 8.003 1.514 16.086 7.675 20.257 2.001 1.344 4.967 2.08 8.013 2.478l-4.44.498s.35 0-.268 1.364c-3.056.846-9.815 1.841-22.357-.18-12.274-1.97-16.644-10.262-18.197-15.608a19.5 19.5 0 0 0 2.718-3.046c3.962-5.564 1.583-13.498-3.574-17.071a18.2 18.2 0 0 1-4.17-4.022c2.06-3.703 2.976-6.699 2.976-6.699-4.37-12.303-15.09-43.67-15.09-43.67-2.778-26.597-2.778-59.954-2.778-59.954s.727-5.724-7.147-10.71c-18.864-11.966-33.447-16.813-39.11-18.406l-.618-7.565c5.027-4.072 8.85-10.651 10.93-17.729.11-.368.2-.737.289-1.105 5.295.816 9.227 1.324 10.65 1.324 5.953 0 5.356-4.758-2.388-8.929-2.27-1.224-4.24-2.14-6.301-2.887.587-3.314 2.08-11.756 3.026-16.464 1.194-5.963-5.953-7.446-11.906-5.963-5.952 1.493-13.697-2.08-16.972-4.16-3.275-2.09-5.066-1.195-7.744 1.781-2.19 2.44-6.182 14.056-7.555 18.187l-13.886-.617s-12.503 4.17-2.38 7.147c2.559.746 7.675 1.881 13.976 3.155a30 30 0 0 0-.537 2.877c-1.264 9.317 2.02 18.017 7.923 23.074l-1.383 5.375c-3.484 1.563-11.308 5.256-28.32 13.757-14.952 7.476-20.317 12.642-22.119 15.798l-.308-.717s-11.507 50.03-11.915 77.424c-.389 27.384-.389 53.196-.389 53.196h6.58c-1.274 6.62-2.02 13.229-.627 19.849.398 2.777 2.777 5.952 5.554 6.749 3.574.796 3.574-.399 7.148-.399 0-.796 5.803-3.205 5.952-3.573 1.195-2.777 2.39-7.147-1.582-12.702-2.18-3.046-2.778-3.972-3.972-7.545-.18-.737-.797-1.553-1.434-2.38h4.211s0-1.99 1.99-32.56c1.912-29.415 1.982-27.583 8.353-48.288l1.174 2.638c12.304 44.864 2.38 53.594-1.99 67.092-.827 2.558-2.38 18.664 1.194 19.849 1.244.418 2.677.756 4.26 1.035-.438 9.765-.418 27.374 2.09 56.132 4.37 50.03 12.314 74.448 10.721 86.751 0 0-22.228-.597-16.673 13.3 5.554 13.895 18.266 20.246 18.266 20.246l3.175-.398 1.583 3.972 6.75 3.972s5.564 1.98 8.739-2.38c3.175-4.37 2.38-7.545 2.38-7.545l2.378-10.322s0-45.262-5.156-71.462c-5.166-26.2-2.777-40.494-.796-51.613.736-4.13 2.299-7.227 3.971-9.476a339 339 0 0 0 12.722 25.711c.965 18.107 3.145 64.096 1.573 83.02-.12 1.373-.2 2.617-.26 3.762l-5.305 3.982s-.597 6.55 1.195 7.734c1.781 1.194 2.379 5.963 2.379 5.963s5.962 5.952 10.72 13.697c4.769 7.734 14.295 7.137 17.868 5.952 3.574-1.194 2.977 3.574 2.38-8.341-.439-8.8-5.436-17.6-8.004-21.591 4.6-.558 8.57-1.334 9.198-2.429 1.384-2.419 1.254-68.545 1.204-85.428.24-.219.379-.318.379-.318s2.916-41.52-15.678-67.35c4.27-.757 7.684-1.215 9.327-2.927 3.623-3.763 1.593-9.526 1.593-9.526s-1.145-1.474-5.565-15.091c-9.128-28.18 1.195-59.148 1.195-59.148s3.573 26.2 6.749 36.124 18.664 40.095 18.664 40.095a19 19 0 0 0 2.847-1.513c-.05 2.001-.18 4.131-.468 5.883-.796 4.768-.796 5.953 3.175 9.527a5.7 5.7 0 0 0 2.27 1.264c-.458 5.654-.22 16.673 6.46 27.125 3.365 5.246 15.46 9.417 25.015 11.995C875.09-25.14 857.042-12 857.042-12s3.624 7.256 12.214 14.145c-1.403 12.95-3.842 39.09-2.09 51.364 2.379 16.673 4.16 4.16 5.355 12.502.03.2.06.388.1.587-2.08-.298-4.032.1-5.505 1.324-3.584 2.957-2.996 9.576 1.304 14.773s10.69 7.007 14.274 4.04c.966-.805 1.613-1.87 1.991-3.105l.339.25s1.791-6.55.597-14.893c-1.125-7.883-2.777-18.962 7.117-51.373.259 8.43 1.125 18.415 3.604 23.382 4.768 9.526 7.744 9.526 11.318 14.892 2.508 3.762 2.08 10.472 1.602 14.125-5.146 4.051-7.465 8.69-6.37 10.88 3.782 7.575 9.765 3.464 15.877-.797 3.981-2.787 6.55-6.55 7.107-9.884l.239-.03s8.939 2.38-4.161-17.868c-7.695-11.885-7.147-17.27-4.17-27.991 1.403-5.057 2.667-8.9 3.623-11.567a105 105 0 0 0 8.879-2.13s-5.356-13.697-3.574-29.176c.707-6.072 2.777-14.334 5.037-22.149 9.029 4.55 10.89 15.5 9.257 20.954a188 188 0 0 1-3.404 10.253c-3.812 1.214-6.63 5.495-6.63 10.591 0 6.043 3.962 10.95 8.84 10.95 4.887 0 8.85-4.907 8.85-10.95a13.1 13.1 0 0 0-.897-4.778c8.203-6.52 9.318-15.469 9.318-15.469" style="fill:#fff;fill-rule:nonzero;stroke:none" transform="translate(-468.199 571.55)"/>
  <path d="M542.706-12.42a347.2 347.2 0 0 0 56.322 56.372l484.663-484.694a347 347 0 0 0-56.361-56.311z" style="fill:#ee1c23;fill-rule:nonzero;stroke:none" transform="translate(-468.199 571.55)"/>
</svg>
