<svg xmlns="http://www.w3.org/2000/svg" viewBox="0 0 1000 873.017" role="img" aria-labelledby="title">
  <title id="title">Verkehrszeichen 50.8b - 8b: Fahrbahnverengung (linksseitig)</title>
  <path d="M-291.872-775.548c14.04-24.31 37.02-24.31 51.071-.012L227.687 35.035c14.052 24.298 2.562 44.175-25.53 44.175l-936.938.025c-28.091 0-39.582-19.877-25.542-44.175z" style="fill:#ee1c23;fill-rule:nonzero;stroke:none" transform="translate(766.314 793.782)"/>
  <path d="m-605.482-24.719 678.328-.024-339.176-586.838z" style="fill:#fff;fill-rule:nonzero;stroke:none" transform="translate(766.314 793.782)"/>
  <path d="M-348.116-407.861v122.168s-4.372 10.468-18.24 22.02c-13.867 11.54-20.8 32.635-20.8 32.635v174.669h61.638v-168.56s2.315-21.047 16.183-32.586c13.867-11.552 16.687-22.07 16.687-22.07V-407.86zM-242.377-56.37h57.525v-351.504h-57.525z" style="fill:#000;fill-rule:nonzero;stroke:none" transform="translate(766.314 793.782)"/>
</svg>
