<svg xmlns="http://www.w3.org/2000/svg" viewBox="0 0 960 960" role="img" aria-labelledby="title">
  <title id="title">Verkehrszeichen 52.7d - 7d: Fahrverbot für Tankkraftfahrzeuge</title>
  <path d="M315.303 87.02c0-265.095 214.912-480 480-480 265.102 0 480 214.905 480 480s-214.898 480-480 480c-265.088 0-480-214.904-480-480" style="fill:#ee1c23;fill-rule:nonzero;stroke:none" transform="translate(-315.303 392.98)"/>
  <path d="M795.303 442.941c196.568 0 355.922-159.353 355.922-355.92 0-196.568-159.354-355.922-355.922-355.922S439.394-109.547 439.394 87.02c0 196.568 159.341 355.921 355.909 355.921" style="fill:#fff;fill-rule:nonzero;stroke:none" transform="translate(-315.303 392.98)"/>
  <path d="M795.22 93.474c113.619 0 205.726-54.097 205.726-120.81 0-66.728-92.107-120.824-205.726-120.824-113.605 0-205.712 54.096-205.712 120.824 0 66.714 92.107 120.81 205.712 120.81" style="fill:#000;fill-rule:nonzero;stroke:none" transform="translate(-315.303 392.98)"/>
  <path d="M995.523 87.671h-74.939l-35.07 35.067H704.94l-35.07-35.067h-74.938v19.057h67.053l35.07 35.067H893.4l35.07-35.067h67.053zM795.22 277.3c14.664 0 27.142-10.54 32.04-25.33h11.551v-3.463h25.109v-3.463h34.087v55.413c0 10.816 8.77 19.597 19.589 19.597s19.589-8.78 19.589-19.597V237.69h17.97v62.767c0 10.816 8.771 19.597 19.59 19.597s19.588-8.78 19.588-19.597V163.65c0-10.816-8.77-19.583-19.589-19.583s-19.589 8.767-19.589 19.583v62.78h-17.97v-62.78c0-10.816-8.77-19.583-19.589-19.583s-19.589 8.767-19.589 19.583v53.681h-73.75c-6.072-11.038-16.78-18.392-29.037-18.392-12.243 0-22.965 7.354-29.024 18.392h-73.75v-53.68c0-10.817-8.77-19.584-19.588-19.584-10.832 0-19.59 8.767-19.59 19.583v62.78h-17.97v-62.78c0-10.816-8.77-19.583-19.589-19.583s-19.589 8.767-19.589 19.583v136.807c0 10.816 8.771 19.597 19.59 19.597s19.588-8.78 19.588-19.597V237.69h17.97v62.767c0 10.816 8.758 19.597 19.59 19.597 10.818 0 19.589-8.78 19.589-19.597v-55.413h34.087v3.463h25.109v3.462h11.537c4.911 14.791 17.39 25.331 32.04 25.331" style="fill:#000;fill-rule:nonzero;stroke:none" transform="translate(-315.303 392.98)"/>
</svg>
