<svg xmlns="http://www.w3.org/2000/svg" viewBox="0 0 960.001 1200.003" role="img" aria-labelledby="title">
  <title id="title">Verkehrszeichen 6a - Als Punkt/Fläche / mit amenity=taxi</title>
  <path d="M384.194 110.733c-20.226 0-36.635-15.094-36.635-33.726V-1055.54c0-18.63 16.409-33.73 36.635-33.73h886.726c20.23 0 36.64 15.1 36.64 33.73V77.007c0 18.632-16.41 33.726-36.64 33.726z" style="fill:#176fc1;fill-rule:nonzero;stroke:none" transform="translate(-347.559 1089.27)"/>
  <path d="M489.72-178.223h675.69v-622.102H489.72z" style="fill:#fff;fill-rule:nonzero;stroke:none" transform="translate(-347.559 1089.27)"/>
  <g style="font-size:298.49157715px;font-style:normal;font-variant:normal;font-weight:400;font-stretch:normal;text-align:start;line-height:100%;writing-mode:lr-tb;text-anchor:start;fill:#000;fill-opacity:1;stroke:none;font-family:Transport Heavy;-inkscape-font-specification:&quot;Transport Heavy,&quot;">
    <path d="M718.53 511.284h200.694v52.76H851.89V724.95h-66.024V564.044H718.53zM999.386 620.303l-56.696-5.976q3.206-14.865 9.255-23.392 6.048-8.526 17.417-14.794 8.161-4.518 22.445-6.996 14.283-2.477 30.898-2.477 26.672 0 42.85 2.988t26.963 12.461q7.58 6.56 11.952 18.583t4.372 22.955v68.356q0 10.931 1.385 17.125 1.384 6.194 6.048 15.814H1060.6q-3.353-5.976-4.373-9.11t-2.04-9.837q-11.66 11.221-23.174 16.032-15.74 6.413-36.583 6.413-27.692 0-42.048-12.826-14.356-12.825-14.356-31.627 0-17.635 10.348-29.004t38.186-16.907q33.376-6.705 43.287-9.4 9.91-2.697 20.988-7.07 0-10.93-4.519-15.303-4.518-4.372-15.886-4.372-14.575 0-21.862 4.664-5.685 3.644-9.182 13.7m51.449 31.19q-12.243 4.372-25.506 7.725-18.073 4.81-22.883 9.473-4.955 4.81-4.955 10.931 0 6.996 4.882 11.441t14.357 4.446q9.91 0 18.437-4.81 8.526-4.809 12.097-11.733 3.57-6.923 3.57-18zM1131.288 570.166h70.396l24.631 43.141 28.567-43.141h65.44l-52.76 73.748 56.55 81.036h-69.23l-28.567-49.846-33.668 49.846h-64.275l56.26-81.036zM1346.266 511.284h59.319v40.372h-59.32zm0 58.882h59.319V724.95h-59.32z" style="font-weight:900;font-family:Arial Black;-inkscape-font-specification:Arial Black Heavy" transform="matrix(.75185 0 0 1.33006 -331.006 -231.623)"/>
  </g>
</svg>
