<svg xmlns="http://www.w3.org/2000/svg" viewBox="0 0 750 1150" role="img" aria-labelledby="title">
  <title id="title">Verkehrszeichen 6d - Als Punkt mit railway=level_crossing (bei Kreuzungen mit Straßen) railway=crossing (bei Übergängen für Fußgänger)</title>
  <path d="M713.92 1150c9.636 0 18.698-3.763 25.513-10.624 6.815-6.835 10.567-15.949 10.567-25.639V36.263c0-9.69-3.752-18.79-10.567-25.639C732.618 3.776 723.556 0 713.921 0H36.08C16.183 0 0 16.27 0 36.263v1077.474c0 9.69 3.753 18.804 10.568 25.639 6.815 6.86 15.876 10.624 25.512 10.624z" style="fill:#000;fill-rule:nonzero;stroke:none"/>
  <path d="M36.08 1141.04c-7.25 0-14.077-2.842-19.208-8-5.13-5.159-7.95-12.006-7.95-19.303V36.263c0-7.283 2.82-14.144 7.95-19.303 5.13-5.145 11.959-7.987 19.208-7.987h677.84c7.25 0 14.065 2.842 19.196 7.987a27.21 27.21 0 0 1 7.963 19.303v1077.474c0 15.053-12.188 27.303-27.158 27.303z" style="fill:#fff;fill-rule:nonzero;stroke:none"/>
  <path d="M678.288 132.468 644.557 31.616l-100.454 33.64L375 406.146 205.897 65.255 105.444 31.616 71.7 132.468l219.527 442.539L71.7 1017.545l33.476 100.954 100.721-33.741L375 743.866l169.103 340.892 100.722 33.741 33.463-100.954L458.76 575.007z" style="fill:#ee1c23;fill-rule:nonzero;stroke:none"/>
  <path d="m623.141 159.195-67.092-33.6L375 490.577 193.952 125.595l-67.105 33.6 206.267 415.811-206.267 415.8 67.105 33.612L375 659.436l181.049 364.982 67.092-33.613-206.254-415.798z" style="fill:#fff;fill-rule:nonzero;stroke:none"/>
</svg>
