<svg xmlns="http://www.w3.org/2000/svg" viewBox="0 0 960 1200" role="img" aria-labelledby="title">
  <title id="title">Verkehrszeichen 8c - Als Linie mit motorroad=yes maxspeed=100 source:maxspeed=AT:trunk oder maxspeed:type=AT:trunk</title>
  <path d="M935.595 1200c6.518 0 12.645-2.533 17.255-7.128 4.61-4.583 7.15-10.691 7.15-17.188V24.316c0-6.497-2.54-12.605-7.15-17.188C948.24 2.532 942.113 0 935.595 0H24.404C10.945 0 0 10.91 0 24.316v1151.368c0 6.497 2.53 12.605 7.15 17.188 4.61 4.595 10.737 7.128 17.256 7.128z" style="fill:#000;fill-rule:nonzero;stroke:none"/>
  <path d="M24.406 1191.979a16.27 16.27 0 0 1-11.565-4.779 16.12 16.12 0 0 1-4.794-11.516V24.316A16.14 16.14 0 0 1 12.841 12.8 16.27 16.27 0 0 1 24.406 8.02h911.189a16.27 16.27 0 0 1 11.564 4.779 16.14 16.14 0 0 1 4.794 11.516v1151.368c0 8.984-7.334 16.295-16.358 16.295z" style="fill:#fff;fill-rule:nonzero;stroke:none"/>
  <path d="M37.58 1162.322h884.725v-1125H37.58z" style="fill:#176fc1;fill-rule:nonzero;stroke:none"/>
  <path d="M802.956 742.666v34.389h-49.144v38.205c0 28.35-23.072 51.325-51.524 51.325s-51.513-22.975-51.513-51.325v-38.205H290.774v38.205c0 28.35-23.072 51.325-51.524 51.325s-51.513-22.975-51.513-51.325v-38.205h-49.144v-34.389zM803.91 591.76c-7.15-22.173-35.544-40.312-65.261-53.846l-60.25-175.989-2.367-2.36c-5.748-5.719-50.41-34.275-205.257-34.275-154.86 0-199.52 28.556-205.269 34.275l-2.356 2.36-60.25 175.99c-29.716 13.533-58.11 31.672-65.273 53.846-15.714 48.747 0 133.235 0 133.235h666.284s15.726-84.488 0-133.235M470.775 487.186c-100.669 1.432-170.643 17.189-203.728 27.215-7.645 2.315-17.75 5.478-28.947 9.443l49.697-145.153c9.702-5.672 59.64-24.752 182.978-24.752 123.326 0 173.275 19.08 182.978 24.752l49.684 145.153c-11.196-3.965-21.301-7.128-28.946-9.443-33.073-10.026-103.06-25.783-203.716-27.215M160.48 608.95c0-24.615 20.026-44.565 44.741-44.565 24.705 0 44.742 19.95 44.742 44.565 0 24.625-20.037 44.576-44.742 44.576-24.715 0-44.741-19.95-44.741-44.576m575.846 44.576c-24.716 0-44.742-19.95-44.742-44.576 0-24.615 20.026-44.565 44.742-44.565 24.704 0 44.741 19.95 44.741 44.565 0 24.625-20.037 44.576-44.741 44.576M470.775 573.14c117.912 1.432 154.825 25.783 166.332 32.945 11.496 7.173 10.059 22.93 10.059 22.93v40.106H294.372v-40.107s-1.437-15.756 10.07-22.93c11.508-7.161 48.41-31.512 166.333-32.944" style="fill:#fff;fill-rule:nonzero;stroke:none"/>
</svg>
