<svg xmlns="http://www.w3.org/2000/svg" xml:space="preserve" viewBox="0 0 784 1172" role="img" aria-labelledby="title">
  <title id="title">Verkehrszeichen 9g - 9g: Tunnel</title>
  <g fill-rule="evenodd" clip-rule="evenodd">
    <path fill="#009fe3" d="M16.262 1137.852V35.165c0-16.938 13.701-30.626 30.634-30.626H745.38c16.926 0 30.62 13.688 30.62 30.626v1102.687c0 16.94-13.694 30.635-30.62 30.635H46.896c-16.933-.001-30.634-13.695-30.634-30.635"/>
    <path fill="#fff" d="M111.363 301.125h569.822v569.692H111.363z"/>
    <path d="m415.97 487.161 4.959-58.605h-51.552l5.015 58.916c7.063-1.222 14.35-1.902 21.761-1.902 6.719-.001 13.355.558 19.817 1.591m12.529 2.078a122.6 122.6 0 0 1 26.72 10.772l27.814-72.142H433.7zm-67.171 1.045L356 428.416h-49.334l27.424 73.394c8.536-4.868 17.656-8.792 27.238-11.526m-89.805 200.549v-38.737h-66.99v38.737zm-66.99 12.98v40.777h66.99v-40.777zm382.904-12.98v-38.737h-67.548v38.737zm-315.914-80.879c0-3.741.15-7.351.462-10.959h-67.452v40.779h66.99zm248.366 93.859v40.777h67.548v-40.777zm68.071-64.039v-40.779h-68.071c.328 3.608.498 7.218.498 10.959v29.82zM323.499 508.875l-28.044-74.943-41.647 41.607 50.519 50.457a125 125 0 0 1 19.172-17.121m214.567-34.358-42.13-42.127-28.906 74.906a123 123 0 0 1 20.45 17.802zm-261.191 99.045-72.342-40.609v53.065h69.293c.808-4.242 1.83-8.374 3.049-12.456m310.417 12.456V531.83l-72.422 40.462-2.15-3.766a121 121 0 0 1 4.739 17.492zm-291.241-50.167-51.387-51.394-35.654 35.701 72.72 40.78a122.6 122.6 0 0 1 14.321-25.087m199.645-.997a125.8 125.8 0 0 1 14.544 25.184l72.798-40.738-35.894-35.888zm1.263-119.337 103.746 103.717v238.795H191.993V519.234l103.748-103.717z"/>
    <path fill="#fff" d="M691.049 227.666h22.287v-79.962c0-12.438-2.614-21.623-7.656-27.322-5.237-5.663-12.892-8.525-23.171-8.525a34 34 0 0 0-14.181 3.086c-4.387 1.958-8.104 5.438-11.399 10.055l-3.049-10.923h-15.712v113.59h22.285v-73.412c0-4.807.646-8.725 1.738-12.025 1.095-3.256 2.406-5.88 4.144-7.837 1.735-1.993 3.73-3.299 5.687-4.168 1.97-.656 3.924-1.094 5.894-1.094q6.233 0 9.843 3.919c2.187 2.862 3.291 8.099 3.291 15.753v78.865zm-87.876-95.267c1.53 0 3.487.212 5.454.438 1.993.437 4.607 1.306 7.438 2.638l4.617-20.968c-2.225-.656-4.398-1.342-6.585-1.987-2.174-.437-4.81-.662-7.875-.662-5.868 0-10.692 1.531-14.41 4.606-3.731 3.044-6.562 6.969-8.518 11.586l-2.614-13.974h-28.847v16.362h13.1v80.848h-13.1v16.381h52.215v-16.381h-16.83v-48.508c0-9.185 1.303-16.585 3.731-22.065 2.394-5.446 6.318-8.314 12.224-8.314m-123.47 45.683h54.22V165.64c0-8.524-.679-16.192-1.773-22.973-1.312-6.755-3.477-12.442-6.318-17.023-2.843-4.606-6.781-7.874-11.349-10.269-4.839-2.424-10.718-3.518-17.498-3.518-13.754 0-23.599 4.831-29.941 14.449-6.318 9.831-9.625 25.323-9.625 46.734 0 11.792 1.313 21.416 3.743 28.852 2.395 7.432 5.443 13.105 9.587 17.274 3.951 4.131 8.519 6.969 13.794 8.5 4.991 1.518 10.256 2.174 15.708 2.174 6.345 0 12.24-.869 17.925-2.611 5.481-1.738 10.062-3.5 13.319-5.451l-6.538-16.186c-8.749 4.168-16.624 6.355-23.403 6.355-3.04 0-5.882-.225-8.265-.869-2.648-.438-4.835-1.755-6.804-4.143-1.942-2.212-3.694-5.475-4.789-10.056-1.118-4.604-1.774-10.698-1.993-18.797m16.843-48.952c2.829 0 5.443.438 7.438 1.532 1.967 1.081 3.705 2.819 5.017 5.25 1.299 2.399 2.174 5.887 2.831 10.28.658 4.563.898 10.049 1.116 16.799h-33.026c.22-7.412.864-13.317 1.993-17.894.875-4.61 1.958-7.879 3.489-10.267 1.299-2.431 3.049-3.961 5.007-4.605 2.002-.656 3.948-1.095 6.135-1.095m-135.458 98.536h15.72l1.531-5.888c2.418 2.394 5.038 4.356 8.305 5.888 3.053 1.518 6.786 2.174 11.112 2.174 12.879 0 22.504-5.012 29.285-15.067 6.562-10.049 9.843-26.203 9.843-48.489 0-11.136-.875-20.092-2.406-27.097-1.519-7.006-3.73-12.442-6.574-16.629-2.83-4.125-6.341-6.969-10.269-8.481-3.911-1.556-8.312-2.218-13.098-2.218-5.037 0-9.363.869-12.639 2.862-3.511 1.969-6.348 4.356-8.521 7.194V74.73h-22.289zm37.975-98.097c2.859 0 5.256.656 7.224 1.962s3.475 3.506 4.568 6.556c1.116 3.063 1.991 7.011 2.65 12.018.424 5.043.656 11.142.656 18.366 0 8.524-.232 15.718-.875 21.192-.659 5.662-1.773 10.055-3.309 13.318-1.53 3.274-3.691 5.698-6.098 7.005-2.636 1.531-5.687 2.175-9.37 2.175-4.378 0-8.086-1.306-11.134-3.706v-57.476c0-2.4.21-5.012.866-7.649.652-2.405 1.533-4.805 2.839-6.761 1.306-1.964 3.051-3.731 5.037-5.038 1.956-1.306 4.139-1.962 6.946-1.962m-105.516.656c2.862 0 5.255.213 7.442.644 2.176.438 3.944 1.312 5.473 2.612 1.308 1.349 2.39 3.299 3.053 5.705.643 2.612 1.08 6.129 1.08 10.262v8.537h-11.136c-14.2 0-24.459 2.825-31.258 8.299-6.774 5.674-10.263 14.843-10.263 27.735 0 6.78.87 12.443 2.4 17.06 1.518 4.569 3.944 8.087 6.781 10.912 2.843 2.837 6.098 5.013 10.055 6.106 3.918 1.087 8.312 1.743 13.098 1.743 6.138 0 11.154-1.093 14.886-3.706 3.694-2.406 6.757-5.451 8.937-9.186l3.069 10.718h15.509v-79.525c0-12.441-2.618-21.622-8.092-27.534-5.449-5.888-15.065-8.75-28.827-8.75-5.911 0-11.799.662-17.705 1.993-5.911 1.306-11.15 2.838-15.323 4.582l5.475 16.834c5.016-1.993 9.848-3.298 14.422-3.96 4.381-.644 8.085-1.081 10.924-1.081m10.057-48.739c0 3.729 1.33 7.005 3.942 9.393 2.406 2.649 5.674 3.961 9.404 3.961 3.701 0 6.975-1.312 9.623-3.961 2.388-2.388 3.696-5.663 3.696-9.393 0-3.707-1.308-6.969-3.696-9.618-2.648-2.389-5.922-3.694-9.623-3.694-3.73 0-6.999 1.305-9.404 3.694-2.612 2.649-3.942 5.912-3.942 9.618m-9.62 130.674c-5.013 0-8.498-1.519-10.486-4.787-1.969-3.299-2.842-8.093-2.842-14.662 0-6.78 1.312-11.792 4.174-15.067 2.61-3.073 7.187-4.604 13.761-4.604h12.004v18.578c0 2.176-.212 4.369-.873 6.792-.645 2.388-1.515 4.788-2.821 6.744-1.304 1.993-3.087 3.737-5.042 5.05-2.187 1.312-4.799 1.956-7.875 1.956M264.282 81.486c0 3.729 1.305 7.005 3.919 9.393 2.406 2.649 5.705 3.961 9.409 3.961s7.006-1.312 9.62-3.961c2.386-2.388 3.705-5.663 3.705-9.393 0-3.707-1.319-6.969-3.705-9.618-2.614-2.389-5.915-3.694-9.62-3.694s-7.003 1.305-9.409 3.694c-2.614 2.649-3.919 5.912-3.919 9.618m-34.977 50.913c1.518 0 3.486.212 5.444.438 1.986.437 4.609 1.306 7.435 2.638l4.607-20.968c-2.207-.656-4.38-1.342-6.558-1.987-2.179-.437-4.828-.662-7.878-.662-5.888 0-10.71 1.531-14.412 4.606-3.745 3.044-6.567 6.969-8.538 11.586l-2.605-13.974h-28.857v16.362h13.105v80.848h-13.105v16.381h52.237v-16.381h-16.847v-48.508c0-9.185 1.306-16.585 3.747-22.065 2.386-5.446 6.305-8.314 12.225-8.314m-70.162 89.816v-79.323h-36.696v16.612h15.067v50.257c-1.739.444-3.48.88-5.225 1.093-2.005.225-3.957.431-6.138.431-3.912 0-7.435-.869-10.71-2.607-3.263-1.531-5.906-4.604-8.085-8.96-2.4-4.181-4.145-10.055-5.227-17.711-1.312-7.436-1.962-17.054-1.962-28.847 0-11.798.65-21.628 2.174-29.508 1.306-7.833 3.27-14.192 5.658-18.987 2.442-4.813 5.491-8.299 9.187-10.262 3.523-1.993 7.442-3.086 11.585-3.086 4.167 0 8.087.438 11.36 1.306a107 107 0 0 1 11.363 4.618l7.648-17.06c-3.263-1.969-7.648-3.707-12.667-5.226-5-1.531-11.138-2.399-18.144-2.399-17.243 0-30.164 6.749-38.658 20.316-8.749 13.537-13.142 33.647-13.142 60.288 0 26.018 3.955 45.251 12.017 57.695 7.88 12.668 20.111 18.986 36.946 18.986 7.003 0 13.105-.656 18.591-2.174 5.228-1.533 10.264-3.276 15.058-5.452M677.598 1054.568h10.463v-35.202c0-2.15.208-3.974.621-5.407.4-1.47.898-2.601 1.652-3.402.715-.826 1.433-1.434 2.139-1.751.716-.302 1.531-.521 2.247-.521 2.178 0 3.706.62 4.642 1.956.888 1.35 1.422 3.901 1.422 7.691v36.637h10.451v-37.135c0-6.075-1.118-10.364-3.258-13.135-2.162-2.759-5.761-4.107-10.668-4.107-2.152 0-4.205.413-6.173 1.349-1.958.899-3.791 2.456-5.348 4.376-2.14-3.793-5.953-5.725-11.567-5.725-2.163 0-4.215.498-6.172 1.423-1.958.948-3.572 2.478-4.922 4.52l-1.324-4.908h-7.426v53.343h10.489v-34.485c0-2.333.193-4.302.606-5.856.437-1.519.924-2.637 1.627-3.572.731-.924 1.435-1.531 2.187-1.849.72-.302 1.534-.521 2.237-.521 2.163 0 3.72.62 4.616 1.956.937 1.35 1.458 3.901 1.458 7.691v36.634zm-91.666-25.129c0 4.484.727 8.385 1.967 11.593 1.287 3.354 2.917 6.148 5.323 8.238 2.212 2.248 5.02 3.924 8.216 5.055 3.206 1.046 6.719 1.604 10.485 1.604 7.665 0 13.947-2.164 18.845-6.502 4.739-4.337 7.11-11.045 7.11-19.988 0-3.475-.426-6.561-1.398-9.21-.973-2.648-2.091-4.886-3.646-6.962-1.506-1.958-3.209-3.768-5.151-5.299-1.933-1.555-3.901-2.953-5.856-4.313 1.118-.729 2.515-1.848 4.045-3.232 1.521-1.251 2.93-2.929 4.339-5.031 1.387-1.955 2.502-4.204 3.477-6.829.997-2.648 1.397-5.577 1.397-8.942 0-4.715-.694-8.652-1.957-11.86-1.409-3.087-3.208-5.589-5.297-7.4a20.3 20.3 0 0 0-7.413-3.766c-2.796-.693-5.565-1.118-8.493-1.118-2.955 0-5.725.425-8.375 1.118-2.792.717-5.307 1.968-7.41 3.766-2.235 1.812-4.034 4.313-5.322 7.4-1.362 3.208-2.067 7.146-2.067 12.03 0 2.758.269 5.285.997 7.521.681 2.37 1.509 4.447 2.627 6.282 1.117 1.932 2.367 3.607 3.898 5.164 1.398 1.543 2.808 2.929 4.339 4.169-1.531.971-3.062 2.089-4.752 3.487-1.799 1.408-3.354 3.086-4.75 5.176-1.531 2.077-2.65 4.605-3.609 7.521-1.012 2.952-1.569 6.452-1.569 10.328m37.412 0c0 2.235-.122 4.338-.561 6.173-.398 1.933-.958 3.609-1.795 5.006-.962 1.41-2.104 2.528-3.489 3.208-1.531.839-3.354 1.265-5.576 1.265-4.326 0-7.4-1.555-8.932-4.473-1.678-2.928-2.517-6.694-2.517-11.179 0-3.184.135-5.844.571-8.213.392-2.237.828-4.205 1.505-5.883.561-1.507 1.241-2.915 2.238-4.034.971-1.129 1.967-2.09 3.085-3.063 2.505 1.665 4.739 3.063 6.71 4.339 1.797 1.251 3.475 2.637 4.714 4.168 1.286 1.519 2.406 3.196 3.087 5.165.68 1.957.96 4.484.96 7.521m-20.91-49.527c0-4.06.678-7.413 1.93-9.916 1.276-2.503 3.793-3.742 7.56-3.742 1.808 0 3.485.267 4.727.948 1.252.679 2.235 1.53 2.938 2.794.706 1.251 1.119 2.662 1.4 4.337.277 1.642.424 3.488.424 5.579 0 5.029-.705 8.918-1.945 11.847-1.287 2.929-2.817 5.322-4.616 6.999-2.357-1.834-4.472-3.366-6.004-4.884-1.531-1.398-2.807-2.808-3.765-4.192a14 14 0 0 1-2.091-4.483c-.441-1.532-.558-3.344-.558-5.287m-32.654 52.055h8.932v-11.859h-8.932v-19.685h-11.727l-2.661 19.685h-17.326l28.91-63.235h-14.389l-28.069 61.838v13.257h30.874v22.602h14.388zm-73.744-58.908v81.51h14.241v-97.696h-14.788l-21.229 17.304 8.36 9.929zm-59.762-5.445c1.678 0 3.222.146 4.775.559 1.375.438 2.648 1.119 3.769 2.115.958 1.094 1.812 2.648 2.491 4.446.56 1.97.826 4.472.826 7.413 0 3.767-.826 7.923-2.359 12.296-1.518 4.314-3.765 9.042-6.56 13.938-2.942 4.886-6.294 10.171-10.343 15.772-4.045 5.578-8.638 11.458-13.534 17.582v12.832h47.741v-12.54h-32.09c4.46-5.613 8.663-11.032 12.419-16.344 3.778-5.297 7.132-10.462 10.049-15.626 2.782-5.165 5.029-10.049 6.707-14.934 1.53-4.764 2.358-9.49 2.358-14.096 0-4.496-.682-8.371-1.946-11.593-1.263-3.183-3.062-5.881-5.308-7.946-2.371-2.09-4.994-3.646-8.082-4.618-3.208-.972-6.587-1.396-10.354-1.396-2.235 0-4.471.279-6.549.839-2.248.558-4.339 1.239-6.293 2.09a40 40 0 0 0-5.285 2.794 40 40 0 0 0-4.204 3.208l6.172 9.77c2.477-1.955 5.15-3.487 7.799-4.739 2.651-1.263 5.166-1.822 7.801-1.822m-89.822 55.265h34.621v-7.924c0-5.455-.437-10.353-1.124-14.654-.844-4.338-2.235-7.982-4.04-10.912-1.817-2.915-4.332-5.006-7.253-6.561-3.089-1.531-6.861-2.236-11.174-2.236-8.81 0-15.067 3.075-19.114 9.234-4.083 6.259-6.169 16.187-6.169 29.844 0 7.533.841 13.694 2.372 18.434 1.556 4.751 3.511 8.361 6.168 11.046 2.484 2.648 5.44 4.447 8.767 5.419 3.212.959 6.567 1.361 10.053 1.361 4.049 0 7.815-.559 11.46-1.604 3.487-1.131 6.41-2.247 8.523-3.523l-4.192-10.304c-5.578 2.648-10.616 4.034-14.946 4.034-1.964 0-3.768-.146-5.287-.559-1.694-.268-3.085-1.119-4.332-2.675-1.281-1.36-2.4-3.475-3.085-6.403-.688-2.929-1.117-6.841-1.248-12.017m10.743-31.254c1.799 0 3.489.291 4.727.973 1.281.717 2.4 1.846 3.245 3.365.833 1.531 1.375 3.768 1.812 6.574.395 2.916.551 6.404.681 10.73h-21.076c.156-4.764.558-8.544 1.239-11.46.563-2.916 1.288-5.006 2.241-6.562.846-1.53 1.969-2.503 3.214-2.928 1.282-.401 2.526-.692 3.917-.692m-54.995 52.907v9.624c0 5.42-.96 9.064-2.801 11.13-1.969 2.103-5.013 3.086-9.333 3.086-1.967 0-4.332-.268-7.005-.705-2.775-.413-5.861-1.237-9.057-2.527l-3.36 11.058c2.672.949 5.723 1.921 9.489 2.917 3.761.85 7.406 1.24 10.888 1.24 8.815 0 15.225-2.236 19.265-6.685 4.052-4.604 6.009-11.567 6.009-21.191V981.99h-9.928l-1.244 4.205a19.1 19.1 0 0 0-5.165-4.047c-2.089-.997-4.607-1.556-7.256-1.556-3.918 0-7.404.705-10.612 1.956-3.208 1.397-5.852 3.487-7.964 6.452-2.091 2.916-3.775 6.684-4.886 11.301-1.245 4.593-1.812 10.17-1.812 16.721 0 6.307.567 11.471 1.556 15.784.979 4.338 2.37 7.692 4.174 10.341 1.804 2.637 3.911 4.446 6.569 5.565 2.525 1.118 5.449 1.677 8.643 1.677 3.216 0 6.017-.559 8.25-1.677 2.219-.96 4.049-2.37 5.58-4.18m-10.328-5.432c-3.773 0-6.297-1.677-7.692-5.176-1.531-3.365-2.212-8.518-2.212-15.493 0-9.211.844-15.894 2.649-20.231 1.683-4.205 5-6.283 9.892-6.283 2.65 0 5.165.961 7.692 2.929v32.918c0 2.966-.833 5.602-2.65 7.85-1.835 2.368-4.484 3.486-7.679 3.486m-54.045 15.468h14.261v-51.083c0-7.96-1.678-13.804-4.893-17.45-3.352-3.608-8.249-5.443-14.817-5.443-3.196 0-6.281.705-9.06 1.956-2.792 1.276-5.163 3.487-7.241 6.452l-1.962-7.011H204.06v72.579h14.223v-46.878c0-3.088.438-5.591 1.116-7.681.723-2.09 1.556-3.768 2.656-5.043a10.7 10.7 0 0 1 3.634-2.648c1.251-.402 2.521-.693 3.766-.693 2.649 0 4.768.851 6.283 2.527 1.408 1.811 2.089 5.151 2.089 10.013zm-76.905-62.25c1.804 0 3.33.157 4.727.425 1.404.292 2.521.851 3.482 1.7.852.803 1.554 2.079 1.971 3.609.437 1.678.703 3.925.703 6.55v5.456h-7.107c-9.102 0-15.633 1.811-19.966 5.285-4.332 3.646-6.569 9.502-6.569 17.742 0 4.337.56 7.946 1.531 10.888.993 2.927 2.523 5.176 4.335 6.975 1.795 1.821 3.91 3.208 6.402 3.864 2.527.715 5.328 1.117 8.397 1.117 3.898 0 7.107-.681 9.495-2.333 2.362-1.519 4.333-3.477 5.701-5.845l1.967 6.816h9.928v-50.791c0-7.972-1.677-13.828-5.176-17.583-3.482-3.768-9.641-5.603-18.43-5.603-3.759 0-7.525.438-11.323 1.264-3.768.851-7.092 1.812-9.775 2.929l3.517 10.741c3.207-1.25 6.259-2.089 9.223-2.49 2.758-.436 5.164-.716 6.967-.716m6.404-31.12c0 2.357.844 4.496 2.527 6.004 1.52 1.688 3.611 2.527 6.017 2.527 2.362 0 4.44-.839 6.118-2.527 1.531-1.508 2.375-3.646 2.375-6.004 0-2.369-.844-4.446-2.375-6.124-1.678-1.556-3.755-2.357-6.118-2.357-2.406 0-4.497.802-6.017 2.357-1.683 1.678-2.527 3.755-2.527 6.124m-6.131 83.467c-3.199 0-5.437-.959-6.681-3.074-1.283-2.09-1.842-5.176-1.842-9.344 0-4.313.846-7.522 2.65-9.648 1.677-1.932 4.6-2.929 8.808-2.929h7.674v11.859a16.8 16.8 0 0 1-.553 4.362c-.437 1.531-1.003 3.051-1.835 4.326a10.9 10.9 0 0 1-3.208 3.196c-1.391.851-3.049 1.252-5.013 1.252m-18.978-83.467c0 2.357.837 4.496 2.515 6.004 1.531 1.688 3.61 2.527 5.973 2.527 2.399 0 4.495-.839 6.172-2.527 1.518-1.508 2.364-3.646 2.364-6.004 0-2.369-.846-4.446-2.364-6.124-1.678-1.556-3.773-2.357-6.172-2.357-2.362 0-4.442.802-5.973 2.357-1.678 1.678-2.515 3.755-2.515 6.124m-57.525 93.37h46.066v-12.978H99.767v-84.719H84.692z"/>
  </g>
</svg>
