<svg xmlns="http://www.w3.org/2000/svg" viewBox="0 0 960 960" role="img" aria-labelledby="title">
  <title id="title">Verkehrszeichen FKV_1.9 - FKV_1.9</title>
  <path d="M315.342 87.02c0-265.081 214.904-480 480-480s480 214.919 480 480c0 265.096-214.905 480-480 480s-480-214.904-480-480" style="fill:#ee1c23;fill-rule:nonzero;stroke:none" transform="translate(-315.342 392.98)"/>
  <path d="M794.42 442.941c196.06 0 355-158.94 355-355 0-196.058-158.94-355-355-355-196.058 0-355 158.942-355 355 0 196.06 158.942 355 355 355" style="fill:#fff;fill-rule:nonzero;stroke:none" transform="translate(-315.342 392.98)"/>
  <path d="M177.463 437.797v-81.088h11.377v81.088zm5.577-34.13v-10.82h39.317v10.82zm0-36.14V356.71h45.452v10.819zm85.104 71.106q-8.589 0-15.002-3.68-6.414-3.737-9.983-10.485-3.513-6.748-3.513-15.727v-22.977q0-9.034 3.513-15.727 3.57-6.748 9.983-10.428 6.413-3.737 15.002-3.737 8.588 0 15.002 3.737 6.413 3.68 9.927 10.428 3.569 6.693 3.569 15.727v22.977q0 8.979-3.57 15.727-3.513 6.748-9.926 10.485-6.414 3.68-15.002 3.68m0-11.21q7.64 0 12.213-5.018 4.629-5.02 4.629-13.273v-23.758q0-8.31-4.629-13.273-4.573-5.02-12.213-5.02-7.585 0-12.214 5.02-4.628 4.963-4.628 13.273v23.758q0 8.253 4.628 13.273 4.63 5.019 12.214 5.019m50.75-23.924v-10.82h27.661q4.964 0 7.975-3.457 3.012-3.458 3.012-9.146t-3.012-9.146-7.975-3.458h-27.661v-10.82h27.215q7.083 0 12.38 2.957 5.299 2.9 8.199 8.142 2.955 5.242 2.955 12.325 0 7.027-2.955 12.325-2.956 5.242-8.254 8.198-5.242 2.9-12.325 2.9zm-4.964 34.298v-81.144h11.377v81.144zm45.62 0-18.572-36.808 11.321-2.565 20.746 39.373zm50.972.836q-5.911 0-11.154-1.115-5.186-1.115-9.76-3.346-4.517-2.23-8.476-5.577l7.083-8.7q4.628 4.015 10.205 6.023t12.102 2.008q8.812 0 13.664-3.29 4.851-3.291 4.851-9.203v-.055q0-4.63-2.453-7.083-2.454-2.454-6.47-3.625-3.96-1.227-8.7-2.008-4.573-.78-9.257-1.84-4.629-1.06-8.533-3.29-3.904-2.287-6.302-6.525-2.342-4.239-2.342-11.322v-.055q0-11.321 7.529-17.512 7.529-6.246 21.248-6.246 6.525 0 12.77 2.12 6.247 2.063 12.159 6.357l-6.47 9.035q-4.629-3.458-9.257-5.131-4.573-1.673-9.202-1.673-8.31 0-12.939 3.346-4.573 3.29-4.573 9.37v.055q0 4.573 2.677 6.971t6.971 3.57q4.35 1.115 9.314 2.118 4.461.893 8.923 2.175 4.461 1.227 8.086 3.625 3.681 2.343 5.856 6.47 2.23 4.127 2.23 10.763v.112q0 11.21-7.807 17.344t-21.973 6.134m57.721-.836v-74.452h11.377v74.452zm-22.921-70.27V356.71h57.22v10.819zm90.513 71.106q-5.911 0-11.154-1.115-5.186-1.115-9.76-3.346-4.516-2.23-8.476-5.577l7.083-8.7q4.628 4.015 10.205 6.023t12.102 2.008q8.812 0 13.664-3.29t4.852-9.203v-.055q0-4.63-2.454-7.083t-6.47-3.625q-3.96-1.227-8.7-2.008-4.573-.78-9.257-1.84-4.629-1.06-8.533-3.29-3.904-2.287-6.302-6.525-2.342-4.239-2.342-11.322v-.055q0-11.321 7.529-17.512 7.529-6.246 21.248-6.246 6.525 0 12.77 2.12 6.247 2.063 12.159 6.357l-6.47 9.035q-4.628-3.458-9.257-5.131-4.573-1.673-9.202-1.673-8.31 0-12.939 3.346-4.573 3.29-4.573 9.37v.055q0 4.573 2.677 6.971t6.971 3.57q4.35 1.115 9.314 2.118 4.461.893 8.923 2.175 4.461 1.227 8.086 3.625 3.681 2.343 5.856 6.47 2.23 4.127 2.23 10.763v.112q0 11.21-7.807 17.344t-21.973 6.134m57.721-.836v-74.452h11.377v74.452zm-22.92-70.27V356.71h57.218v10.819zM643.97 403.5v-10.82h27.662q4.963 0 7.975-3.457 3.011-3.458 3.011-9.146t-3.011-9.146-7.975-3.458H643.97v-10.82h27.216q7.082 0 12.38 2.957 5.298 2.9 8.198 8.142 2.956 5.242 2.956 12.325 0 7.027-2.956 12.325-2.955 5.242-8.253 8.198-5.243 2.9-12.325 2.9zm-4.963 34.298v-81.144h11.377v81.144zm45.619 0-18.571-36.808 11.321-2.565 20.746 39.373zm18.237 0 29.892-81.088h9.704l29.892 81.088h-12.27l-22.474-65.417-22.475 65.417zm13.774-17.79v-10.82h42.664v10.82zm87.892 18.626q-5.911 0-11.153-1.115-5.187-1.115-9.76-3.346-4.517-2.23-8.477-5.577l7.083-8.7q4.629 4.015 10.206 6.023 5.576 2.008 12.101 2.008 8.812 0 13.664-3.29t4.852-9.203v-.055q0-4.63-2.454-7.083t-6.47-3.625q-3.959-1.227-8.7-2.008-4.572-.78-9.257-1.84-4.629-1.06-8.533-3.29-3.903-2.287-6.301-6.525-2.343-4.239-2.343-11.322v-.055q0-11.321 7.529-17.512 7.529-6.246 21.248-6.246 6.525 0 12.771 2.12 6.246 2.063 12.158 6.357l-6.47 9.035q-4.628-3.458-9.257-5.131-4.573-1.673-9.202-1.673-8.31 0-12.938 3.346-4.573 3.29-4.573 9.37v.055q0 4.573 2.676 6.971t6.972 3.57q4.35 1.115 9.313 2.118 4.462.893 8.923 2.175 4.462 1.227 8.087 3.625 3.68 2.343 5.855 6.47 2.231 4.127 2.231 10.763v.112q0 11.21-7.808 17.344t-21.973 6.134m68.094 0q-5.911 0-11.153-1.115-5.187-1.115-9.76-3.346-4.517-2.23-8.477-5.577l7.083-8.7q4.629 4.015 10.206 6.023 5.576 2.008 12.101 2.008 8.812 0 13.664-3.29t4.852-9.203v-.055q0-4.63-2.454-7.083t-6.47-3.625q-3.959-1.227-8.7-2.008-4.572-.78-9.257-1.84-4.629-1.06-8.533-3.29-3.903-2.287-6.301-6.525-2.343-4.239-2.343-11.322v-.055q0-11.321 7.529-17.512 7.529-6.246 21.248-6.246 6.525 0 12.771 2.12 6.246 2.063 12.158 6.357l-6.47 9.035q-4.628-3.458-9.257-5.131-4.573-1.673-9.202-1.673-8.31 0-12.938 3.346-4.573 3.29-4.573 9.37v.055q0 4.573 2.676 6.971t6.972 3.57q4.35 1.115 9.313 2.118 4.462.893 8.923 2.175 4.462 1.227 8.087 3.625 3.68 2.343 5.855 6.47 2.231 4.127 2.231 10.763v.112q0 11.21-7.808 17.344t-21.973 6.134m44.839-.836v-81.088h11.377v81.088zm5.52 0v-10.82h46.568v10.82zm0-34.856v-10.819h40.433v10.82zm0-35.413v-10.82h46.568v10.82z" aria-label="FORSTSTRASSE" style="font-size:114.215px;font-family:Bahnschrift;-inkscape-font-specification:Bahnschrift;stroke-width:1.20829" transform="scale(.82761 1.2083)"/>
</svg>
