<svg xmlns="http://www.w3.org/2000/svg" viewBox="0 0 208.603 208.603" role="img" aria-labelledby="title">
  <title id="title">Verkehrszeichen WVO_F.1 - F.1: Beginn eines Treppelweges</title>
  <path d="M6.208 7.41h197.114v197.114H6.208z" style="fill:#00f;stroke-width:.264583" transform="translate(-.131 -.953)"/>
  <path d="M18.146 115.962V96.415h2.987v19.547ZM12.13 97.513v-2.84H27.15v2.84zm19.253 9.444v-2.84h7.263q1.303 0 2.093-.908t.79-2.401-.79-2.402-2.093-.907h-7.263v-2.84h7.145q1.86 0 3.25.775 1.392.762 2.153 2.138.776 1.376.776 3.236 0 1.845-.776 3.235-.776 1.377-2.167 2.153-1.376.761-3.236.761zm-1.303 9.005V94.658h2.987v21.304zm11.977 0-4.876-9.664 2.973-.673 5.446 10.337zm7.57 0v-21.29h2.987v21.29zm1.45 0v-2.84H63.3v2.84zm0-9.151v-2.84H61.69v2.84zm0-9.298v-2.84H63.3v2.84zm18.008 10.19v-2.84h6.809q1.464 0 2.342-1.01.894-1.01.894-2.65 0-1.67-.894-2.68-.878-1.01-2.342-1.01h-6.809v-2.84h6.706q1.933 0 3.368.82 1.435.805 2.225 2.27.806 1.463.806 3.44 0 1.962-.806 3.426-.79 1.464-2.225 2.27-1.435.805-3.368.805zm-1.537 8.259v-21.29h2.987v21.29zm19.913-8.258v-2.84h6.808q1.464 0 2.343-1.01.893-1.011.893-2.651 0-1.67-.893-2.68-.879-1.01-2.343-1.01H87.46v-2.84h6.705q1.933 0 3.368.82 1.435.805 2.226 2.27.805 1.463.805 3.44 0 1.962-.805 3.426-.791 1.464-2.226 2.27-1.435.805-3.368.805zm-1.538 8.258v-21.29h2.987v21.29zm18.375 0v-21.29h2.987v21.29zm1.45 0v-2.84h12.226v2.84zm0-9.151v-2.84h10.615v2.84zm0-9.298v-2.84h12.226v2.84zm16.472 18.449v-21.29h2.987v21.29zm1.493 0v-2.84h12.182v2.84zm19.342-4.598 4.363-16.691h2.05l4.363 16.691 3.763-16.691h3.104l-5.198 21.289h-3.045l-3.924-14.876-4.1 14.876h-3.045l-5.198-21.29h3.104zm20.864 4.598v-21.29h2.987v21.29zm1.45 0v-2.84h12.225v2.84zm0-9.151v-2.84h10.615v2.84zm0-9.298v-2.84h12.225v2.84zm23.646 6.984h7.38v3.72q0 2.4-.938 4.201-.922 1.787-2.591 2.782-1.67.981-3.924.981-2.27 0-3.968-.922-1.699-.937-2.636-2.62-.937-1.7-.937-3.954v-6.281q0-2.402.923-4.188.937-1.786 2.606-2.767 1.669-.996 3.924-.996 1.86 0 3.382.79 1.537.792 2.577 2.212t1.405 3.323h-3.235q-.41-1.654-1.596-2.533-1.186-.878-2.533-.878-1.992 0-3.192 1.39-1.2 1.377-1.2 3.647v6.28q0 2.08 1.23 3.34 1.229 1.244 3.25 1.244 1.99 0 3.191-1.318t1.201-3.675v-.923h-4.32z" aria-label="TREPPELWEG" style="-inkscape-font-specification:Bahnschrift;fill:#fff;stroke-width:.264583" transform="translate(-.131 -.953)"/>
</svg>
