<svg xmlns="http://www.w3.org/2000/svg" xml:space="preserve" viewBox="0 0 95.796 83.713" role="img" aria-labelledby="title">
  <title id="title">Verkehrszeichen A1c - Series of curves, first one to the left (about 150m after the sign) It is possible to have multiple curves to the left and none to the right</title>
  <path fill="#ed1c24" d="M4.184 83.664c-1-.16-1.959-.639-2.718-1.396-1.479-1.515-1.839-3.706-1.08-5.581L43.6 2.271C44.479.876 46.038 0 47.836 0c1.719 0 2.479.836 3.398 2.111l43.612 73.182c1.52 1.993 1.159 5.143-.68 6.976q-1.558 1.555-3.598 1.436"/>
  <path fill="none" d="M4.184 83.664c-1-.16-1.959-.639-2.718-1.396-1.479-1.515-1.839-3.706-1.08-5.581L43.6 2.271C44.479.876 46.038 0 47.836 0c1.719 0 2.479.836 3.398 2.111l43.612 73.182c1.52 1.993 1.159 5.143-.68 6.976q-1.558 1.555-3.598 1.436"/>
  <path fill="#fff" fill-rule="evenodd" d="m14.658 72.901 33.259-57.436 33.259 57.436z" clip-rule="evenodd"/>
  <path fill="none" d="m14.658 72.901 33.259-57.436 33.259 57.436z"/>
  <path fill="#120c0e" d="M36.003 50.7V39.58l3.398-2.233 3.358 2.233V50.7c0 .598.479 1.116 1.12 1.116.24 0 .479-.08.64-.199l8.395-4.862c1.16-.679 2.438-1.037 3.877-1.037 4.279 0 7.796 3.507 7.796 7.813v15.625l-3.358-1.993-3.357 1.993V53.569c0-.597-.48-1.115-1.08-1.115-.199 0-.399.04-.599.159l-8.395 4.822a7.7 7.7 0 0 1-3.958 1.077c-4.319.001-7.837-3.506-7.837-7.812"/>
  <path fill="none" stroke="#120c0e" stroke-miterlimit="3.863" stroke-width=".2" d="M36.003 50.7V39.58l3.398-2.233 3.358 2.233V50.7c0 .598.479 1.116 1.12 1.116.24 0 .479-.08.64-.199l8.395-4.862c1.16-.679 2.438-1.037 3.877-1.037 4.279 0 7.796 3.507 7.796 7.813v15.625l-3.358-1.993-3.357 1.993V53.569c0-.597-.48-1.115-1.08-1.115-.199 0-.398.04-.599.159l-8.395 4.822a7.7 7.7 0 0 1-3.958 1.077c-4.319.001-7.837-3.506-7.837-7.812z"/>
</svg>
