<svg xmlns="http://www.w3.org/2000/svg" xml:space="preserve" viewBox="0 0 95.816 83.722" role="img" aria-labelledby="title">
  <title id="title">Verkehrszeichen A21 - Pedestrian crossing (about 150m after the sign)</title>
  <path fill="#ed1c24" d="M52.208 2.271C51.329.876 49.77 0 47.97 0c-1.719 0-2.479.836-3.399 2.113L.95 75.31c-1.519 1.992-1.16 5.143.68 6.977 1.04 1.037 2.239 1.436 3.598 1.436h86.324c1 0 2.039-.679 2.798-1.436 1.48-1.516 1.84-3.707 1.079-5.582z"/>
  <path fill="none" d="M52.208 2.271C51.329.876 49.77 0 47.97 0c-1.719 0-2.479.836-3.399 2.113L.95 75.31c-1.519 1.992-1.16 5.143.68 6.977 1.04 1.037 2.239 1.436 3.598 1.436h86.324c1 0 2.039-.679 2.799-1.436 1.479-1.516 1.839-3.707 1.078-5.582z"/>
  <path fill="#fff" fill-rule="evenodd" d="M81.155 72.917 47.93 15.468 14.704 72.917z" clip-rule="evenodd"/>
  <path fill="none" d="M81.155 72.917 47.93 15.468 14.704 72.917z"/>
  <path fill="#120c0e" d="m37.094 48.877-1.6-1.116 5.199-3.31 2.759-5.342 2.639-1.037.04-1.195c-.281 0-.401-.08-.68-.08-.959-.558-.68-4.784-.68-4.784.201-.2.6-.718.8-.718.719-.2 2.438-.16 2.798.2.041.159.521.318.401 1.116v4.864l3.678 1.315 3.479 4.583 1.079 7.137-1.599.799-.96-5.861-2.999-3.269-.279 8.013 6.678 15.389-3.84 1.914-.199-.838.92-1.514-6.198-10.964-7.517 13.556-4.078-1.993.64-.957 1.399.199 6.237-14.313-.719-7.097-1.799 2.871z"/>
  <path fill="none" d="m37.094 48.876-1.6-1.115 5.199-3.31 2.759-5.342 2.639-1.037.04-1.195c-.281 0-.401-.08-.68-.08-.959-.558-.68-4.784-.68-4.784.201-.2.6-.718.8-.718.719-.2 2.438-.16 2.798.2.041.159.521.318.401 1.116v4.864l3.678 1.315 3.479 4.583 1.079 7.137-1.599.799-.96-5.861-2.999-3.269-.279 8.013 6.678 15.389-3.84 1.914-.199-.838.92-1.514-6.198-10.964-7.517 13.556-4.078-1.993.64-.957 1.399.199 6.237-14.313-.719-7.097-1.799 2.871z"/>
  <path fill="#120c0e" fill-rule="evenodd" d="m65.603 70.844.519-.997h2.279l-.56.997z" clip-rule="evenodd"/>
  <path fill="none" d="m65.603 70.844.519-.997h2.279l-.56.997z"/>
  <path fill="#120c0e" fill-rule="evenodd" d="m66.923 60.598.519-.997h2.28l-.561.997z" clip-rule="evenodd"/>
  <path fill="none" d="m66.923 60.598.519-.997h2.28l-.561.997z"/>
  <path fill="#120c0e" fill-rule="evenodd" d="m62.165 60.598.52-.997h2.277l-.56.997z" clip-rule="evenodd"/>
  <path fill="none" d="m62.165 60.598.52-.997h2.277l-.56.997z"/>
  <path fill="#120c0e" fill-rule="evenodd" d="m57.525 60.598.521-.997h2.279l-.56.997z" clip-rule="evenodd"/>
  <path fill="none" d="m57.525 60.598.521-.997h2.279l-.56.997z"/>
  <path fill="#120c0e" fill-rule="evenodd" d="m56.126 70.844.52-.997h2.28l-.56.997z" clip-rule="evenodd"/>
  <path fill="none" d="m56.126 70.844.52-.997h2.28l-.56.997z"/>
  <path fill="#120c0e" fill-rule="evenodd" d="m60.964 70.844.52-.997h2.28l-.56.997z" clip-rule="evenodd"/>
  <path fill="none" d="m60.965 70.844.519-.997h2.28l-.56.997z"/>
  <path fill="#120c0e" fill-rule="evenodd" d="m52.768 60.598.52-.997h2.279l-.56.997z" clip-rule="evenodd"/>
  <path fill="none" d="m52.768 60.598.52-.997h2.279l-.56.997z"/>
  <path fill="#120c0e" fill-rule="evenodd" d="m48.05 60.598.52-.997h2.279l-.56.997z" clip-rule="evenodd"/>
  <path fill="none" d="m48.05 60.598.52-.997h2.279l-.56.997z"/>
  <path fill="#120c0e" fill-rule="evenodd" d="m43.332 60.598.52-.997h2.279l-.56.997z" clip-rule="evenodd"/>
  <path fill="none" d="m43.332 60.598.52-.997h2.279l-.56.997z"/>
  <path fill="#120c0e" fill-rule="evenodd" d="m42.052 70.844.52-.997h2.279l-.559.997z" clip-rule="evenodd"/>
  <path fill="none" d="m42.052 70.844.52-.997h2.279l-.559.997z"/>
  <path fill="#120c0e" fill-rule="evenodd" d="m46.77 70.844.52-.997h2.279l-.56.997z" clip-rule="evenodd"/>
  <path fill="none" d="m46.77 70.844.52-.997h2.279l-.56.997z"/>
  <path fill="#120c0e" fill-rule="evenodd" d="m51.448 70.844.521-.997h2.278l-.56.997z" clip-rule="evenodd"/>
  <path fill="none" d="m51.448 70.844.521-.997h2.278l-.56.997z"/>
  <path fill="#120c0e" fill-rule="evenodd" d="m38.693 60.598.521-.997h2.278l-.559.997z" clip-rule="evenodd"/>
  <path fill="none" d="m38.693 60.598.521-.997h2.279l-.56.997z"/>
  <path fill="#120c0e" fill-rule="evenodd" d="m37.334 70.844.52-.997h2.279l-.559.997z" clip-rule="evenodd"/>
  <path fill="none" d="m37.334 70.844.52-.997h2.279l-.559.997z"/>
  <path fill="#120c0e" fill-rule="evenodd" d="m33.696 60.598.52-.997h2.279l-.559.997z" clip-rule="evenodd"/>
  <path fill="none" d="m33.696 60.598.52-.997h2.279l-.559.997z"/>
  <path fill="#120c0e" fill-rule="evenodd" d="m28.979 60.598.519-.997h2.278l-.559.997z" clip-rule="evenodd"/>
  <path fill="none" d="m28.979 60.598.519-.997h2.278l-.559.997z"/>
  <path fill="#120c0e" fill-rule="evenodd" d="m32.457 70.844.519-.997h2.279l-.559.997z" clip-rule="evenodd"/>
  <path fill="none" d="m32.457 70.844.519-.997h2.279l-.559.997z"/>
  <path fill="#120c0e" fill-rule="evenodd" d="m27.779 70.844.519-.997h2.28l-.56.997z" clip-rule="evenodd"/>
  <path fill="none" d="m27.779 70.844.519-.997h2.28l-.56.997z"/>
  <path fill="#120c0e" fill-rule="evenodd" d="m24.1 60.598.52-.997h2.279l-.56.997z" clip-rule="evenodd"/>
  <path fill="none" d="m24.1 60.598.52-.997h2.279l-.56.997z"/>
  <path fill="#120c0e" fill-rule="evenodd" d="m22.9 70.844.52-.997h2.28l-.56.997z" clip-rule="evenodd"/>
  <path fill="none" d="m22.9 70.844.52-.997h2.28l-.56.997z"/>
</svg>
