<svg xmlns="http://www.w3.org/2000/svg" xml:space="preserve" viewBox="0 0 95.797 83.704" role="img" aria-labelledby="title">
  <title id="title">Verkehrszeichen A17 - Loose chippings (about 150m after the sign)</title>
  <path fill="#ed1c24" d="M52.198 2.271C51.318.876 49.759 0 47.96 0c-1.719 0-2.479.837-3.398 2.111L.95 75.293c-1.519 1.993-1.16 5.142.68 6.976 1.039 1.036 2.238 1.436 3.597 1.436h86.305c1 0 2.039-.679 2.799-1.436 1.479-1.515 1.839-3.707 1.079-5.58z"/>
  <path fill="none" d="M52.198 2.271C51.318.876 49.759 0 47.96 0c-1.719 0-2.479.837-3.398 2.111L.95 75.293c-1.519 1.993-1.16 5.142.68 6.976 1.039 1.036 2.238 1.436 3.597 1.436h86.305c1 0 2.039-.679 2.799-1.436 1.479-1.515 1.839-3.707 1.079-5.58z"/>
  <path fill="#fff" fill-rule="evenodd" d="M81.14 72.901 47.92 15.464 14.702 72.901z" clip-rule="evenodd"/>
  <path fill="none" d="M81.14 72.901 47.92 15.464 14.702 72.901z"/>
  <path fill="#120c0e" d="m20.697 67.919 54.446-.119v-.718H41.564v-6.576h1.758c1.879-4.066 1.72-8.092 1.32-12.516-.28-.797-.28-1.196-1.2-2.073l-5.477-10.921-.839 1.116 4.598 8.928-9.435-.358-3.518 5.699h5.637v.678h-5.877l-1.639 2.551h11.273v.877H26.494l-1.479 2.352h9.594v.957H24.535l-1.559 2.551h14.671v6.696h-16.95z"/>
  <path fill="none" d="m20.697 67.919 54.446-.119v-.718H41.564v-6.576h1.758c1.879-4.066 1.72-8.092 1.32-12.516-.28-.797-.28-1.196-1.2-2.073l-5.477-10.921-.839 1.116 4.598 8.928-9.435-.358-3.518 5.699h5.637v.678h-5.877l-1.639 2.551h11.273v.877H26.494l-1.479 2.352h9.594v.957H24.535l-1.559 2.551h14.671v6.696h-16.95z"/>
  <path fill="#fff" fill-rule="evenodd" d="M39.565 51.656a2.249 2.249 0 0 1-1.959-3.388c.879-1.515 3.039-1.555 3.918 0a2.249 2.249 0 0 1-1.959 3.388" clip-rule="evenodd"/>
  <path fill="none" d="M39.565 51.656a2.249 2.249 0 0 1-1.959-3.388c.879-1.515 3.039-1.555 3.918 0a2.249 2.249 0 0 1-1.959 3.388"/>
  <path fill="#120c0e" d="m42.403 65.368 13.392-29.854 1.438.997z"/>
  <path fill="none" d="m42.403 65.368 13.392-29.854 1.438.997z"/>
  <path fill="#120c0e" d="m57.233 49.106.961 1.116-15.59 15.585z"/>
  <path fill="none" d="m57.233 49.106.961 1.116-15.59 15.585z"/>
  <path fill="#120c0e" d="m42.604 66.165 16.229-10.643.641.998z"/>
  <path fill="none" d="m42.604 66.165 16.229-10.643.641.998z"/>
  <path fill="#120c0e" d="m43.124 66.205 25.623-8.251.44 1.436z"/>
  <path fill="none" d="m43.124 66.205 25.623-8.251.44 1.436z"/>
  <path fill="#120c0e" d="M53.317 34.079v-.598c0-.479.839-.797.679-1.355.72 0 .761-.877 1.239-.877.16.119.36.239.521.358.079.199.399.358.279.559-.439.677-.399 1.195-.64 1.195-.279.398-.359.279-.52.718-.199.04-.439.08-.6.238a4.4 4.4 0 0 0-.72-.079c.082-.319.042-.398-.238-.159"/>
  <path fill="none" d="M53.317 34.079v-.599c0-.478.839-.796.679-1.354.72 0 .761-.877 1.239-.877.16.119.36.239.521.358.079.199.399.358.279.559-.439.677-.399 1.195-.64 1.195-.279.398-.359.279-.52.718-.199.04-.439.08-.6.238a4.4 4.4 0 0 0-.72-.079c.082-.319.042-.398-.238-.159"/>
  <path fill="#120c0e" d="M49.96 36.629c.158.12.359.28.518.399.24.159.281-.518.721-.159-.04-.2.24-.12.319-.24.08-.038.12-.238.24-.278.04-.358.28-.598-.04-1.036-.24 0-.6.12-.839.159-.601.199-.96.478-.919 1.155"/>
  <path fill="none" d="M49.96 36.629c.158.12.359.28.518.399.24.159.281-.518.721-.159-.04-.2.24-.12.319-.24.08-.038.12-.238.24-.278.04-.358.28-.598-.04-1.036-.24 0-.6.12-.839.159-.601.199-.96.478-.919 1.155"/>
  <path fill="#120c0e" d="M57.075 41.931c.158 0 .279 0 .398.08 0 .04.041.119.08.159.08-.04.121.04.16.04.08.199.32.12.44.239 0-.04.04-.119.079-.159.12 0 .16-.16.28-.199.16-.08.399 0 .56-.08.08-.159.32-.159.4-.318-.041-.24.199-.479.039-.719-.359-.238-.439-.757-.879-.876a.3.3 0 0 1-.08-.159c-.24-.239-.56.119-.84-.12a.3.3 0 0 0-.16.08.3.3 0 0 0-.08.159c-.479-.04-.08.718-.318.758-.399.039-.599.796-.079 1.115"/>
  <path fill="none" d="M57.075 41.931c.158 0 .279 0 .398.08 0 .04.041.119.08.159.08-.04.121.04.16.04.08.199.32.12.44.239 0-.04.04-.119.079-.159.12 0 .16-.16.28-.199.16-.08.399 0 .56-.08.08-.159.32-.159.4-.318-.041-.24.199-.479.039-.719-.359-.238-.439-.757-.879-.876a.3.3 0 0 1-.08-.159c-.24-.239-.56.119-.84-.12a.3.3 0 0 0-.16.08.3.3 0 0 0-.08.159c-.479-.04-.08.718-.318.758-.399.039-.599.796-.079 1.115"/>
  <path fill="#120c0e" d="M57.474 45.957c-.08.159-.119-.479-.08-.679.601-.597 1.28-.278 1.479-.597.08-.04.12.04.161.04.08.119.08.238.158.358.121.04.32.08.4.198-.08.08-.199.16-.24.28-.039 0-.08-.08-.16-.04-.078.08-.239.04-.279.199-.319-.119-.439.199-.68.279-.279.081-.679-.198-.759-.038"/>
  <path fill="none" d="M57.474 45.957c-.08.159-.119-.479-.08-.679.601-.597 1.28-.278 1.479-.597.08-.04.12.04.161.04.08.119.08.238.158.358.121.04.32.08.4.198-.08.08-.199.16-.24.28-.039 0-.08-.08-.16-.04-.078.08-.239.04-.279.199-.319-.119-.439.199-.68.279-.279.081-.679-.198-.759-.038"/>
  <path fill="#120c0e" d="M59.073 50.58v-.358c.08 0 .119-.08.199-.04.439-.198.561-.837.76-1.155h.2c.12.158.32.278.52.238-.04.08.04.12.04.16l.359.358c.04.12.04.2 0 .318a.3.3 0 0 0-.159.08c-.04.16-.12.359-.08.519-.24-.04-.359.199-.52.279-.36.04-.601-.239-.999-.04-.121-.12-.201-.239-.32-.359"/>
  <path fill="none" d="M59.073 50.58v-.358c.08 0 .119-.08.199-.04.439-.199.561-.837.76-1.155h.2c.12.158.32.278.52.238-.04.08.04.12.04.16l.359.358c.04.12.04.199 0 .318a.3.3 0 0 0-.159.08c-.04.16-.12.359-.08.519-.24-.04-.359.199-.52.279-.36.04-.601-.239-.999-.04-.121-.12-.201-.239-.32-.359"/>
  <path fill="#120c0e" d="M64.03 52.732c0-.278.119-.996-.16-1.116.279-.158.439-.478.76-.518h.2c-.04.079.04.119.04.159.08 0-.08 0 0 0 .159 0 .279.04.439.04.199.717 1.439.358 1.08.917 0 .12.039.279.039.398-.48.199-.88.279-1.279.558-.12.04-.279.08-.4.12-.119-.16-.199-.398-.398-.479-.122-.039-.202-.039-.321-.079"/>
  <path fill="none" d="M64.03 52.732c0-.278.119-.996-.16-1.116.279-.158.439-.478.76-.518h.2c-.04.079.04.119.04.159.08 0-.08 0 0 0 .159 0 .279.04.439.04.199.717 1.439.358 1.08.917 0 .12.039.279.039.398-.48.199-.88.279-1.279.558-.12.04-.279.08-.4.12-.119-.16-.199-.398-.398-.479-.122-.039-.202-.039-.321-.079"/>
  <path fill="#120c0e" d="M64.351 57.795c.238 0 .479-.039.679-.159 0 .04 0-.04 0 0 0 .159.439.398.52.159.28-.119.399-.438.72-.438.199-.159.16-.438.16-.678 0-.159-.24-.319-.359-.398-.16-.079-.64-.399-.561-.359-.239.12-.359.399-.639.438-.16.04-.281.08-.4.12-.16 0-.08.358-.24.319q-.12.238-.238.479c-.082.198.156.517.358.517"/>
  <path fill="none" d="M64.351 57.795c.238 0 .479-.039.679-.159 0 .04 0-.04 0 0 0 .159.439.398.52.159.28-.119.399-.438.72-.438.199-.159.16-.438.16-.678 0-.159-.24-.319-.359-.398-.16-.079-.64-.399-.561-.359-.239.12-.359.399-.639.438-.16.04-.281.08-.4.12-.16 0-.08.358-.24.319q-.12.238-.238.479c-.082.198.156.517.358.517"/>
  <path fill="#120c0e" d="M69.826 62.617c-.399.16-.839-.198-1.239-.039-.039-.039-.24-.239-.24-.359-.039 0 .04 0 0 0l-.279-.278v-.199c.04-.119.16-.199.24-.279h.199c.32-.318.6-.678.92-.956.359 0 .959.119.959.558.12.04.24.04.361.08-.121.079-.281.199-.401.278 0 .12-.04.2-.04.319l-.239.359c-.04.118-.08.278-.12.398-.081.04-.041.079-.121.118"/>
  <path fill="none" d="M69.826 62.617c-.399.16-.839-.198-1.239-.039-.039-.039-.24-.239-.24-.359-.039 0 .041 0 0 0l-.279-.278v-.199c.04-.119.16-.199.24-.279h.199c.32-.318.6-.678.92-.956.359 0 .959.119.959.558.12.04.24.04.361.08-.121.079-.281.199-.401.278 0 .12-.04.2-.04.319l-.239.359c-.04.118-.08.278-.12.398-.081.04-.041.079-.121.118"/>
</svg>
