<svg xmlns="http://www.w3.org/2000/svg" xml:space="preserve" viewBox="0 0 94.29 84.921" role="img" aria-labelledby="title">
  <title id="title">Verkehrszeichen A49 - Tram crossing (about 150m after the sign)</title>
  <path fill="#ed1c24" d="M6.592 84.885c-1.994.2-3.15-.44-4.506-1.924-2.432-2.403-2.791-6.011-.797-8.655L41.523 3.294c.12-.321-.279.361-.12.08.837-1.402 2.154-2.525 3.749-3.045 3.03-.962 6.02.241 7.576 2.885L93.52 75.227c.996 1.684.957 3.326.279 5.25-1.037 2.806-3.668 4.448-6.5 4.408z"/>
  <path fill="none" d="M6.592 84.885c-1.994.2-3.15-.441-4.506-1.924-2.432-2.403-2.791-6.011-.797-8.655L41.523 3.294c.12-.321-.279.361-.12.08.837-1.402 2.154-2.525 3.749-3.045 3.03-.962 6.02.24 7.576 2.885L93.52 75.227c.996 1.684.957 3.326.279 5.25-1.037 2.806-3.668 4.448-6.5 4.408z"/>
  <path fill="#fff" fill-rule="evenodd" d="m12.613 74.106 33.575-59.23 33.576 59.23z" clip-rule="evenodd"/>
  <path fill="none" stroke="#ed1c24" stroke-miterlimit="3.863" stroke-width=".28" d="m12.613 74.106 33.575-59.23 33.576 59.23z"/>
  <path fill="#120c0e" fill-rule="evenodd" d="M31.793 70.458c-.917 0-1.515-1.002-1.036-1.804a1.195 1.195 0 0 1 2.074 0c.477.803-.12 1.804-1.038 1.804" clip-rule="evenodd"/>
  <path fill="none" d="M31.793 70.458c-.917 0-1.515-1.002-1.036-1.804a1.195 1.195 0 0 1 2.074 0c.477.803-.12 1.804-1.038 1.804"/>
  <path fill="#120c0e" fill-rule="evenodd" d="M35.063 70.458c-.917 0-1.476-1.002-1.037-1.804a1.16 1.16 0 0 1 2.033 0c.439.803-.118 1.804-.996 1.804" clip-rule="evenodd"/>
  <path fill="none" d="M35.063 70.458c-.917 0-1.476-1.002-1.037-1.804a1.16 1.16 0 0 1 2.033 0c.44.803-.118 1.804-.996 1.804"/>
  <path fill="#120c0e" fill-rule="evenodd" d="M58.549 70.458c-.956 0-1.555-1.002-1.076-1.804a1.23 1.23 0 0 1 2.113 0c.478.803-.119 1.804-1.037 1.804" clip-rule="evenodd"/>
  <path fill="none" d="M58.549 70.458c-.956 0-1.555-1.002-1.076-1.804a1.23 1.23 0 0 1 2.113 0c.478.803-.119 1.804-1.037 1.804"/>
  <path fill="#120c0e" fill-rule="evenodd" d="M61.739 70.458c-.917 0-1.515-1.002-1.036-1.804a1.194 1.194 0 0 1 2.072 0c.479.803-.119 1.804-1.036 1.804" clip-rule="evenodd"/>
  <path fill="none" d="M61.739 70.458c-.917 0-1.515-1.002-1.036-1.804a1.194 1.194 0 0 1 2.072 0c.479.803-.119 1.804-1.036 1.804"/>
  <path fill="#120c0e" fill-rule="evenodd" d="M72.426 71.501H21.067v-1.122h51.359z" clip-rule="evenodd"/>
  <path fill="none" d="M72.426 71.501H21.067v-1.122h51.359z"/>
  <path fill="#120c0e" d="M22.742 69.256h6.499l1.037-1.682h6.22l.958 1.682h18.661l.877-1.642h6.221l.996 1.843h6.5v-.441h.518v-1.082h-.479v-4.849l-2.352-5.69h-5.742v-.642h-31.78v.362h-2.073l-1.316-.602h-2.274l-.398.602-2.273 5.93v4.529h-.479v1.161h.679z"/>
  <path fill="none" d="M22.742 69.256h6.499l1.037-1.682h6.221l.957 1.682h18.661l.877-1.642h6.221l.996 1.843h6.5v-.441h.518v-1.082h-.479v-4.849l-2.352-5.69h-5.742v-.642h-31.78v.362h-2.073l-1.316-.602h-2.274l-.398.602-2.273 5.93v4.529h-.479v1.161h.679z"/>
  <path fill="#fff" fill-rule="evenodd" d="M37.894 63.166h-7.656v-4.77h7.656z" clip-rule="evenodd"/>
  <path fill="none" d="M37.894 63.166h-7.656v-4.77h7.656z"/>
  <path fill="#fff" fill-rule="evenodd" d="M46.308 63.166h-7.696v-4.77h7.696z" clip-rule="evenodd"/>
  <path fill="none" d="M46.308 63.166h-7.696v-4.77h7.696z"/>
  <path fill="#fff" fill-rule="evenodd" d="M54.682 63.166h-7.735v-4.77h7.735z" clip-rule="evenodd"/>
  <path fill="none" d="M54.682 63.166h-7.735v-4.77h7.735z"/>
  <path fill="#fff" fill-rule="evenodd" d="M63.055 63.166H55.32v-4.77h7.735z" clip-rule="evenodd"/>
  <path fill="none" d="M63.055 63.166H55.32v-4.77h7.735z"/>
  <path fill="#fff" fill-rule="evenodd" d="M65.368 63.166h-1.156v-4.77h1.156z" clip-rule="evenodd"/>
  <path fill="none" d="M65.368 63.166h-1.156v-4.77h1.156z"/>
  <path fill="#fff" fill-rule="evenodd" d="M66.883 63.166h-1.116v-4.77h1.116z" clip-rule="evenodd"/>
  <path fill="none" d="M66.883 63.166h-1.116v-4.77h1.116z"/>
  <path fill="#fff" fill-rule="evenodd" d="M29.202 63.166h-1.157v-4.77h1.157z" clip-rule="evenodd"/>
  <path fill="none" d="M29.202 63.166h-1.157v-4.77h1.157z"/>
  <path fill="#fff" fill-rule="evenodd" d="M27.646 63.166H26.49v-4.77h1.156z" clip-rule="evenodd"/>
  <path fill="none" d="M27.646 63.166H26.49v-4.77h1.156z"/>
  <path fill="#fff" fill-rule="evenodd" d="m23.26 63.206 1.874-4.769h.878v4.769z" clip-rule="evenodd"/>
  <path fill="none" d="m23.26 63.206 1.874-4.769h.878v4.769z"/>
  <path fill="#fff" fill-rule="evenodd" d="m70.232 63.125-1.994-4.729H67.4v4.729z" clip-rule="evenodd"/>
  <path fill="none" d="m70.232 63.125-1.994-4.729H67.4v4.729zM39.888 53.066l-4.506-2.845m4.506 3.206-4.705-2.926m-.04 5.891-4.785-3.005m4.785 3.366-4.984-3.086m4.904 2.725 4.506-2.805m-4.506 3.166 4.705-2.885"/>
  <path fill="#120c0e" fill-rule="evenodd" d="M29.999 53.748c-.358 0-.558-.36-.398-.642.159-.28.598-.28.757 0 .159.281-.04.642-.359.642" clip-rule="evenodd"/>
  <path fill="none" d="M29.999 53.748c-.358 0-.558-.36-.398-.642.159-.28.598-.28.757 0 .159.281-.04.642-.359.642"/>
  <path fill="#120c0e" fill-rule="evenodd" d="M35.223 50.743c-.359 0-.599-.361-.399-.642.16-.281.599-.281.758 0 .199.28-.04.642-.359.642" clip-rule="evenodd"/>
  <path fill="none" d="M35.223 50.743c-.359 0-.599-.361-.399-.642.16-.281.599-.281.758 0 .199.28-.04.642-.359.642"/>
  <path fill="#120c0e" fill-rule="evenodd" d="M39.928 53.909c-.319 0-.479-.361-.359-.642a.411.411 0 0 1 .718 0c.159.28-.04.642-.359.642" clip-rule="evenodd"/>
  <path fill="none" d="M39.928 53.909c-.319 0-.479-.361-.359-.642a.411.411 0 0 1 .718 0c.159.28-.04.642-.359.642"/>
  <path fill="none" stroke="#000" stroke-miterlimit="3.863" stroke-width=".48" d="m30.118 53.467 4.985-3.086 4.745 2.926m-9.73.16 4.985 3.086 4.745-2.926"/>
</svg>
