<svg xmlns="http://www.w3.org/2000/svg" xml:space="preserve" viewBox="0 0 52.429 167.897" role="img" aria-labelledby="title">
  <title id="title">Verkehrszeichen A47 - Railway with two or more tracks crossing</title>
  <path fill="none" stroke="#000" stroke-miterlimit="3.863" stroke-width=".201" d="M29.678 167.777h-6.865V67.184h6.865z"/>
  <path fill="#ed1c24" fill-rule="evenodd" d="M29.678 167.797h-6.865v-54.556h6.865z" clip-rule="evenodd"/>
  <path fill="none" stroke="#ed1c24" stroke-miterlimit="3.863" stroke-width=".201" d="M29.678 167.797h-6.865v-54.556h6.865z"/>
  <path fill="#ed1c24" fill-rule="evenodd" d="M29.678 85.363h-6.865v-9.12h6.865z" clip-rule="evenodd"/>
  <path fill="none" stroke="#ed1c24" stroke-miterlimit="3.863" stroke-width=".201" d="M29.678 85.363h-6.865v-9.12h6.865z"/>
  <path fill="#ed1c24" fill-rule="evenodd" d="M29.678 103.781h-6.865v-9.119h6.865z" clip-rule="evenodd"/>
  <path fill="none" stroke="#ed1c24" stroke-miterlimit="3.863" stroke-width=".201" d="M29.678 103.781h-6.865v-9.119h6.865z"/>
  <path fill="#ed1c24" fill-rule="evenodd" d="M29.678 67.244h-6.865v-9.119h6.865z" clip-rule="evenodd"/>
  <path fill="none" stroke="#ed1c24" stroke-miterlimit="3.863" stroke-width=".201" d="M29.678 67.244h-6.865v-9.119h6.865z"/>
  <path fill="#fff" fill-rule="evenodd" d="M29.678 33.112h-6.865v-9.119h6.865z" clip-rule="evenodd"/>
  <path fill="none" stroke="#120c0e" stroke-miterlimit="3.863" stroke-width=".201" d="M29.678 33.112h-6.865v-9.119h6.865z"/>
  <path fill="#fff" fill-rule="evenodd" d="m19.53 26.037 6.584-6.574 6.585 6.574-6.585 6.553z" clip-rule="evenodd"/>
  <path fill="none" stroke="#120c0e" stroke-miterlimit="3.863" stroke-width=".201" d="m19.53 26.037 6.584-6.574 6.585 6.574-6.585 6.553z"/>
  <path fill="#fff" fill-rule="evenodd" d="m6.646 13.049 6.482-6.454 6.484 6.454-6.484 6.434z" clip-rule="evenodd"/>
  <path fill="none" stroke="#000" stroke-miterlimit="3.863" stroke-width=".201" d="m6.646 13.049 6.482-6.454 6.484 6.454-6.484 6.434z"/>
  <path fill="#ed1c24" fill-rule="evenodd" d="m13.148 19.523 6.484-6.454 6.482 6.454-6.482 6.433z" clip-rule="evenodd"/>
  <path fill="none" stroke="#ed1c24" stroke-miterlimit="3.863" stroke-width=".201" d="m13.148 19.523 6.484-6.454 6.482 6.454-6.482 6.433z"/>
  <path fill="#fff" fill-rule="evenodd" d="m45.825 13.028-6.483-6.453-6.442 6.414 6.463 6.454z" clip-rule="evenodd"/>
  <path fill="none" stroke="#000" stroke-miterlimit="3.863" stroke-width=".201" d="m45.825 13.028-6.483-6.453-6.442 6.414 6.463 6.454z"/>
  <path fill="#fff" fill-rule="evenodd" d="m32.658 64.979 6.482-6.454 6.484 6.454-6.484 6.434z" clip-rule="evenodd"/>
  <path fill="none" stroke="#000" stroke-miterlimit="3.863" stroke-width=".201" d="m32.658 64.979 6.482-6.454 6.484 6.454-6.484 6.434z"/>
  <path fill="#ed1c24" fill-rule="evenodd" d="m39.161 71.453 6.483-6.454 6.482 6.454-6.482 6.434z" clip-rule="evenodd"/>
  <path fill="none" stroke="#ed1c24" stroke-miterlimit="3.863" stroke-width=".201" d="m39.161 71.453 6.483-6.454 6.482 6.454-6.482 6.434z"/>
  <path fill="#fff" fill-rule="evenodd" d="m19.612 65.06-6.484-6.455-6.442 6.414 6.462 6.454z" clip-rule="evenodd"/>
  <path fill="none" stroke="#000" stroke-miterlimit="3.863" stroke-width=".201" d="m19.612 65.06-6.484-6.455-6.442 6.414 6.462 6.454z"/>
  <path fill="#fff" fill-rule="evenodd" d="m19.49 52.011 6.584-6.573 6.584 6.573-6.584 6.554z" clip-rule="evenodd"/>
  <path fill="none" stroke="#fff" stroke-miterlimit="3.863" stroke-width=".201" d="m19.49 52.011 6.584-6.573 6.584 6.573-6.584 6.554z"/>
  <path fill="#fff" fill-rule="evenodd" d="m6.605 39.025 6.483-6.455 6.483 6.455-6.483 6.433z" clip-rule="evenodd"/>
  <path fill="none" stroke="#000" stroke-miterlimit="3.863" stroke-width=".201" d="m6.605 39.024 6.483-6.454 6.483 6.454-6.483 6.434z"/>
  <path fill="#fff" fill-rule="evenodd" d="m45.785 39.003-6.483-6.453-6.443 6.414 6.463 6.454z" clip-rule="evenodd"/>
  <path fill="none" stroke="#000" stroke-miterlimit="3.863" stroke-width=".201" d="m45.785 39.003-6.483-6.453-6.443 6.414 6.463 6.454z"/>
  <path fill="#ed1c24" fill-rule="evenodd" d="M29.678 42.271h-6.865v-9.119h6.865z" clip-rule="evenodd"/>
  <path fill="none" stroke="#ed1c24" stroke-miterlimit="3.863" stroke-width=".201" d="M29.678 42.271h-6.865v-9.119h6.865z"/>
  <path fill="#ed1c24" fill-rule="evenodd" d="m.143 32.59 6.482-6.453 6.483 6.453-6.483 6.435z" clip-rule="evenodd"/>
  <path fill="none" stroke="#ed1c24" stroke-miterlimit="3.863" stroke-width=".201" d="m.143 32.59 6.482-6.453 6.483 6.453-6.483 6.434z"/>
  <path fill="#ed1c24" fill-rule="evenodd" d="m12.988 45.377 6.482-6.453 6.604 6.574-6.482 6.433z" clip-rule="evenodd"/>
  <path fill="none" stroke="#ed1c24" stroke-miterlimit="3.863" stroke-width=".201" d="m12.988 45.377 6.482-6.453 6.604 6.574-6.482 6.433z"/>
  <path fill="#ed1c24" fill-rule="evenodd" d="m39.462 45.277-6.482-6.433-6.624 6.594 6.482 6.434z" clip-rule="evenodd"/>
  <path fill="none" stroke="#ed1c24" stroke-miterlimit="3.863" stroke-width=".201" d="m39.462 45.277-6.482-6.433-6.624 6.594 6.482 6.434z"/>
  <path fill="#ed1c24" fill-rule="evenodd" d="m52.248 32.57-6.483-6.453-6.443 6.413 6.463 6.454z" clip-rule="evenodd"/>
  <path fill="none" stroke="#ed1c24" stroke-miterlimit="3.863" stroke-width=".201" d="m52.248 32.57-6.483-6.453-6.443 6.413 6.463 6.454z"/>
  <path fill="#ed1c24" fill-rule="evenodd" d="m13.229 71.413-6.483-6.454-6.563 6.534 6.483 6.453z" clip-rule="evenodd"/>
  <path fill="none" stroke="#ed1c24" stroke-miterlimit="3.863" stroke-width=".201" d="m13.229 71.413-6.483-6.454-6.563 6.534 6.483 6.453z"/>
  <path fill="#ed1c24" fill-rule="evenodd" d="m26.074 58.625-6.482-6.453-6.444 6.413 6.464 6.455z" clip-rule="evenodd"/>
  <path fill="none" stroke="#ed1c24" stroke-miterlimit="3.863" stroke-width=".201" d="m26.074 58.625-6.482-6.453-6.444 6.413 6.464 6.455z"/>
  <path fill="#ed1c24" fill-rule="evenodd" d="m26.194 58.545 6.484-6.453 6.483 6.453-6.483 6.434z" clip-rule="evenodd"/>
  <path fill="none" stroke="#ed1c24" stroke-miterlimit="3.863" stroke-width=".201" d="m26.194 58.545 6.484-6.453 6.483 6.453-6.483 6.434z"/>
  <path fill="#ed1c24" fill-rule="evenodd" d="M.183 6.615 6.666.162l6.482 6.453-6.482 6.434z" clip-rule="evenodd"/>
  <path fill="none" stroke="#ed1c24" stroke-miterlimit="3.863" stroke-width=".201" d="M.183 6.615 6.666.162l6.482 6.453-6.482 6.434z"/>
  <path fill="#ed1c24" fill-rule="evenodd" d="m39.624 19.182-6.483-6.434-6.906 6.875 6.483 6.434z" clip-rule="evenodd"/>
  <path fill="none" stroke="#ed1c24" stroke-miterlimit="3.863" stroke-width=".201" d="m39.624 19.182-6.483-6.434-6.906 6.875 6.483 6.434z"/>
  <path fill="#ed1c24" fill-rule="evenodd" d="M52.287 6.595 45.804.142l-6.441 6.413 6.462 6.453z" clip-rule="evenodd"/>
  <path fill="none" stroke="#ed1c24" stroke-miterlimit="3.863" stroke-width=".201" d="M52.287 6.595 45.804.142l-6.441 6.413 6.462 6.453z"/>
</svg>
