<svg xmlns="http://www.w3.org/2000/svg" xml:space="preserve" viewBox="0 0 95.797 83.703" role="img" aria-labelledby="title">
  <title id="title">Verkehrszeichen A13 - Bumpy road (about 150m after the sign)</title>
  <path fill="#ed1c24" d="M52.197 2.271C51.318.876 49.759 0 47.96 0c-1.72 0-2.479.836-3.398 2.112L.95 75.294c-1.52 1.992-1.16 5.142.68 6.975 1.04 1.036 2.238 1.435 3.597 1.435h86.306c1 0 2.039-.678 2.799-1.435 1.479-1.515 1.839-3.706 1.078-5.58z"/>
  <path fill="none" d="M52.197 2.271C51.318.876 49.759 0 47.96 0c-1.72 0-2.479.836-3.398 2.112L.95 75.294c-1.52 1.992-1.16 5.142.68 6.975 1.04 1.036 2.238 1.435 3.597 1.435h86.306c1 0 2.039-.678 2.799-1.435 1.479-1.515 1.839-3.706 1.078-5.58z"/>
  <path fill="#fff" fill-rule="evenodd" d="M81.14 72.902 47.92 15.465 14.701 72.902z" clip-rule="evenodd"/>
  <path fill="none" d="M81.14 72.902 47.92 15.465 14.701 72.902z"/>
  <path fill="#120c0e" d="M67.147 56.919c-.439-.438-.999-.957-1.278-1.515a6.82 6.82 0 0 0-6.396-4.425 6.76 6.76 0 0 0-6.315 4.265 5.63 5.63 0 0 1-5.078 3.149c-2.358 0-4.477-1.356-5.317-3.349-.959-2.591-3.397-4.504-6.315-4.504a6.765 6.765 0 0 0-6.316 4.265c-.361.758-.84 1.635-1.479 2.153v5.579h38.495z"/>
  <path fill="none" d="M67.147 56.919c-.439-.438-.999-.957-1.278-1.515a6.82 6.82 0 0 0-6.396-4.425 6.76 6.76 0 0 0-6.315 4.265 5.63 5.63 0 0 1-5.078 3.149c-2.358 0-4.477-1.356-5.317-3.349-.959-2.591-3.397-4.504-6.315-4.504a6.765 6.765 0 0 0-6.316 4.265c-.361.758-.84 1.635-1.479 2.153v5.579h38.495z"/>
</svg>
