<svg xmlns="http://www.w3.org/2000/svg" xml:space="preserve" viewBox="0 0 51.965 141.188" role="img" aria-labelledby="title">
  <title id="title">Verkehrszeichen A45 - Railway with single track crossing</title>
  <path fill="none" stroke="#000" stroke-miterlimit="3.863" stroke-width=".2" d="M29.716 141.068h-6.81V40.996h6.81z"/>
  <path fill="#ed1c24" fill-rule="evenodd" d="M29.716 141.088h-6.81V86.815h6.81z" clip-rule="evenodd"/>
  <path fill="none" stroke="#ed1c24" stroke-miterlimit="3.863" stroke-width=".2" d="M29.716 141.088h-6.81V86.815h6.81z"/>
  <path fill="#ed1c24" fill-rule="evenodd" d="M29.716 59.08h-6.81v-9.072h6.81z" clip-rule="evenodd"/>
  <path fill="none" stroke="#ed1c24" stroke-miterlimit="3.863" stroke-width=".2" d="M29.716 59.08h-6.81v-9.072h6.81z"/>
  <path fill="#ed1c24" fill-rule="evenodd" d="M29.716 77.404h-6.81v-9.072h6.81z" clip-rule="evenodd"/>
  <path fill="none" stroke="#ed1c24" stroke-miterlimit="3.863" stroke-width=".2" d="M29.716 77.404h-6.81v-9.072h6.81z"/>
  <path fill="#ed1c24" fill-rule="evenodd" d="M29.716 41.057h-6.81v-9.072h6.81z" clip-rule="evenodd"/>
  <path fill="none" stroke="#ed1c24" stroke-miterlimit="3.863" stroke-width=".2" d="M29.716 41.057h-6.81v-9.072h6.81z"/>
  <path fill="#fff" fill-rule="evenodd" d="m19.333 25.902 6.53-6.54 6.531 6.54-6.531 6.52z" clip-rule="evenodd"/>
  <path fill="none" stroke="#fff" stroke-miterlimit="3.863" stroke-width=".2" d="m19.333 25.902 6.53-6.54 6.531 6.54-6.531 6.52z"/>
  <path fill="#fff" fill-rule="evenodd" d="m6.552 12.982 6.431-6.419 6.43 6.419-6.43 6.4z" clip-rule="evenodd"/>
  <path fill="none" stroke="#000" stroke-miterlimit="3.863" stroke-width=".2" d="m6.552 12.982 6.431-6.419 6.43 6.419-6.43 6.4z"/>
  <path fill="#fff" fill-rule="evenodd" d="m32.394 38.803 6.43-6.421 6.429 6.421-6.429 6.4z" clip-rule="evenodd"/>
  <path fill="none" stroke="#000" stroke-miterlimit="3.863" stroke-width=".2" d="m32.394 38.803 6.43-6.421 6.429 6.421-6.429 6.4z"/>
  <path fill="#ed1c24" fill-rule="evenodd" d="m38.843 45.243 6.431-6.421 6.431 6.421-6.431 6.401z" clip-rule="evenodd"/>
  <path fill="none" stroke="#ed1c24" stroke-miterlimit="3.863" stroke-width=".2" d="m38.843 45.243 6.431-6.421 6.431 6.421-6.431 6.401z"/>
  <path fill="#fff" fill-rule="evenodd" d="m45.414 12.962-6.43-6.42-6.391 6.38 6.41 6.421z" clip-rule="evenodd"/>
  <path fill="none" stroke="#000" stroke-miterlimit="3.863" stroke-width=".2" d="m45.414 12.962-6.43-6.42-6.391 6.38 6.41 6.421z"/>
  <path fill="#fff" fill-rule="evenodd" d="m19.453 38.882-6.431-6.42-6.39 6.381 6.41 6.421z" clip-rule="evenodd"/>
  <path fill="none" stroke="#000" stroke-miterlimit="3.863" stroke-width=".2" d="m19.453 38.882-6.431-6.42-6.39 6.381 6.41 6.421z"/>
  <path fill="#ed1c24" fill-rule="evenodd" d="m39.222 19.123-6.43-6.399-6.65 6.638 6.431 6.402z" clip-rule="evenodd"/>
  <path fill="none" stroke="#ed1c24" stroke-miterlimit="3.863" stroke-width=".2" d="m39.222 19.123-6.43-6.399-6.65 6.638 6.431 6.402z"/>
  <path fill="#ed1c24" fill-rule="evenodd" d="M51.824 6.563 45.394.142l-6.391 6.38 6.411 6.42z" clip-rule="evenodd"/>
  <path fill="none" stroke="#ed1c24" stroke-miterlimit="3.863" stroke-width=".2" d="M51.824 6.563 45.394.142l-6.391 6.38 6.411 6.42z"/>
  <path fill="#ed1c24" fill-rule="evenodd" d="m12.843 19.243 6.43-6.4 6.59 6.579-6.43 6.421z" clip-rule="evenodd"/>
  <path fill="none" stroke="#ed1c24" stroke-miterlimit="3.863" stroke-width=".2" d="m12.843 19.243 6.43-6.4 6.59 6.579-6.43 6.421z"/>
  <path fill="#ed1c24" fill-rule="evenodd" d="M.142 6.582 6.572.161l6.43 6.421-6.43 6.4z" clip-rule="evenodd"/>
  <path fill="none" stroke="#ed1c24" stroke-miterlimit="3.863" stroke-width=".2" d="M.142 6.582 6.572.161l6.43 6.421-6.43 6.4z"/>
  <path fill="#ed1c24" fill-rule="evenodd" d="m25.863 32.482-6.43-6.419-6.391 6.379 6.411 6.42z" clip-rule="evenodd"/>
  <path fill="none" stroke="#ed1c24" stroke-miterlimit="3.863" stroke-width=".2" d="m25.863 32.482-6.43-6.419-6.391 6.379 6.411 6.42z"/>
  <path fill="#ed1c24" fill-rule="evenodd" d="m13.082 45.243-6.43-6.421-6.47 6.461 6.41 6.42z" clip-rule="evenodd"/>
  <path fill="none" stroke="#ed1c24" stroke-miterlimit="3.863" stroke-width=".2" d="m13.082 45.243-6.43-6.421-6.47 6.461 6.41 6.42z"/>
  <path fill="#ed1c24" fill-rule="evenodd" d="m25.983 32.402 6.43-6.42 6.43 6.42-6.43 6.401z" clip-rule="evenodd"/>
  <path fill="none" stroke="#ed1c24" stroke-miterlimit="3.863" stroke-width=".2" d="m25.983 32.402 6.43-6.42 6.43 6.42-6.43 6.401z"/>
</svg>
