<svg xmlns="http://www.w3.org/2000/svg" xml:space="preserve" viewBox="0 0 95.798 83.713" role="img" aria-labelledby="title">
  <title id="title">Verkehrszeichen A5 - Steep ascent (about 150m after the sign)</title>
  <path fill="#ed1c24" d="M52.198 2.272C51.319.877 49.759 0 47.961 0c-1.72 0-2.479.837-3.398 2.112L.95 75.294c-1.519 1.992-1.16 5.143.68 6.976q1.56 1.555 3.597 1.435l86.385-.039c1-.16 1.959-.639 2.72-1.396 1.479-1.515 1.839-3.706 1.079-5.581z"/>
  <path fill="none" d="M52.198 2.272C51.319.877 49.759 0 47.961 0c-1.72 0-2.479.837-3.398 2.112L.95 75.294c-1.519 1.992-1.16 5.143.68 6.976q1.56 1.555 3.597 1.435l86.385-.039c1-.16 1.959-.639 2.72-1.396 1.479-1.515 1.839-3.706 1.079-5.581z"/>
  <path fill="#fff" fill-rule="evenodd" d="M81.14 72.902 47.921 15.466 14.702 72.902z" clip-rule="evenodd"/>
  <path fill="none" d="M81.14 72.902 47.921 15.466 14.702 72.902z"/>
  <path fill="#120c0e" d="M64.71 44.284 15.021 72.783h65.878z"/>
  <path fill="none" d="M64.71 44.284 15.021 72.783h65.878z"/>
  <path fill-rule="evenodd" d="M57.155 45.917c-1.119 1.914-3.878 1.873-4.917-.039-1.12-1.914.319-4.266 2.519-4.226 2.158 0 3.517 2.392 2.398 4.265" clip-rule="evenodd"/>
  <path fill="none" stroke="#000" stroke-miterlimit="3.863" stroke-width=".2" d="M57.155 45.917c-1.119 1.914-3.878 1.873-4.917-.039-1.12-1.914.319-4.266 2.519-4.226 2.158 0 3.517 2.392 2.398 4.265z"/>
  <path fill="#120c0e" d="m31.17 51.101-.518-.838.199-2.591 1.479-.997 5.796 10.205-1.838 1.075-4.118-7.333z"/>
  <path fill="none" stroke="#120c0e" stroke-miterlimit="3.863" stroke-width=".2" d="m31.17 51.101-.518-.838.199-2.591 1.479-.997 5.796 10.205-1.838 1.075-4.118-7.333z"/>
  <path fill="#120c0e" d="M36.248 48.628c-.68-1.156-.68-2.431.08-3.667 1.04-1.833 3.518-2.472 5.397-1.354.559.279.999.637 1.359 1.275l2.238 3.985c.6 1.116.56 2.671-.12 3.747-1.119 1.834-3.518 2.471-5.476 1.396-.48-.399-1-.956-1.319-1.476z"/>
  <path fill="none" stroke="#120c0e" stroke-miterlimit="3.863" stroke-width=".2" d="M36.248 48.628c-.68-1.156-.68-2.431.08-3.667 1.04-1.833 3.518-2.472 5.397-1.354.559.279.999.637 1.359 1.275l2.238 3.985c.6 1.116.56 2.671-.12 3.747-1.119 1.834-3.517 2.471-5.476 1.396-.48-.399-1-.956-1.319-1.476z"/>
  <path fill="#120c0e" fill-rule="evenodd" d="M47.161 41.174c-1.119 1.913-3.877 1.874-4.916-.04-1.12-1.913.319-4.265 2.518-4.225 2.158.001 3.517 2.392 2.398 4.265" clip-rule="evenodd"/>
  <path fill="none" stroke="#120c0e" stroke-miterlimit="3.863" stroke-width=".2" d="M47.161 41.174c-1.119 1.913-3.877 1.874-4.916-.04-1.12-1.913.319-4.265 2.518-4.225 2.158.001 3.517 2.392 2.398 4.265z"/>
  <path fill="#fff" fill-rule="evenodd" d="M55.556 44.961a1.01 1.01 0 0 1-1.719 0 .998.998 0 0 1 .88-1.476c.759.041 1.198.838.839 1.476" clip-rule="evenodd"/>
  <path fill="none" stroke="#120c0e" stroke-miterlimit="3.863" stroke-width=".2" d="M55.556 44.961a1.01 1.01 0 0 1-1.719 0 .998.998 0 0 1 .88-1.476c.759.041 1.198.838.839 1.476z"/>
  <path fill="#fff" fill-rule="evenodd" d="M45.563 40.218a1.012 1.012 0 0 1-1.72 0 .997.997 0 0 1 .879-1.475c.76.04 1.2.838.841 1.475" clip-rule="evenodd"/>
  <path fill="none" stroke="#1a1a1a" stroke-miterlimit="3.863" stroke-width=".2" d="M45.563 40.218a1.012 1.012 0 0 1-1.72 0 .997.997 0 0 1 .879-1.475c.76.04 1.2.838.841 1.475z"/>
  <path fill="#120c0e" fill-rule="evenodd" d="m50.159 50.144-1.638.996-.041-13.752 1.679-.678z" clip-rule="evenodd"/>
  <path fill="none" d="m50.159 50.144-1.638.996-.041-13.752 1.679-.678z"/>
  <path fill="#fff" d="M40.445 51.856c.121.24.281.438.64.639.799.518 1.839.238 2.398-.719a1.59 1.59 0 0 0 .12-1.514l-2.519-4.624c-.16-.278-.279-.358-.64-.558-.839-.559-1.999-.279-2.438.638-.319.599-.399 1.235-.04 1.794z"/>
  <path fill="none" stroke="#120c0e" stroke-miterlimit="3.863" stroke-width=".2" d="M40.445 51.856c.121.24.281.438.64.639.799.518 1.839.238 2.398-.719a1.59 1.59 0 0 0 .12-1.514l-2.519-4.624c-.16-.278-.279-.358-.64-.558-.839-.559-1.999-.279-2.438.638-.319.599-.399 1.235-.04 1.794z"/>
</svg>
