<svg xmlns="http://www.w3.org/2000/svg" xml:space="preserve" viewBox="0 0 95.797 83.705" role="img" aria-labelledby="title">
  <title id="title">Verkehrszeichen A15 - Slippery road (about 150m after the sign)</title>
  <path fill="#ed1c24" d="M52.198 2.272C51.318.877 49.759 0 47.96 0c-1.719 0-2.479.837-3.397 2.112L.95 75.293c-1.519 1.993-1.16 5.143.68 6.976 1.04 1.037 2.238 1.436 3.597 1.436h86.305c1 0 2.039-.678 2.799-1.436 1.479-1.515 1.84-3.707 1.079-5.58z"/>
  <path fill="none" d="M52.198 2.272C51.318.877 49.759 0 47.96 0c-1.719 0-2.479.837-3.397 2.112L.95 75.293c-1.519 1.993-1.16 5.143.68 6.976 1.04 1.037 2.238 1.436 3.597 1.436h86.305c1 0 2.039-.678 2.799-1.436 1.479-1.515 1.84-3.707 1.079-5.58z"/>
  <path fill="#fff" fill-rule="evenodd" d="M81.14 72.902 47.92 15.466 14.702 72.902z" clip-rule="evenodd"/>
  <path fill="none" d="M81.14 72.902 47.92 15.466 14.702 72.902z"/>
  <path fill="#120c0e" d="m56.515 51.099-.72-.238-1.118 3.626-2.119-.677 1.119-3.668-14.87-4.424-1.2 3.747-2.198-.718 1.04-3.707-.8-.278c.2-2.233-.399-4.903 1-7.135.399-.479.6-.439.959-.678l5.437-6.178 15.23 4.543.919 7.853c.041.238.121.438.361.559.717 2.191-1.481 5.459-3.04 7.373"/>
  <path fill="none" d="m56.515 51.099-.72-.238-1.118 3.626-2.119-.677 1.119-3.668-14.87-4.424-1.2 3.747-2.198-.718 1.04-3.707-.8-.278c.2-2.233-.399-4.903 1-7.135.399-.479.6-.439.959-.678l5.437-6.178 15.23 4.543.919 7.853c.041.238.121.438.361.559.717 2.191-1.481 5.459-3.04 7.373"/>
  <path fill="#fff" d="m38.686 37.428 4.677-5.421 14.111 4.225.839 6.936c-6.634-3.07-11.432-4.505-19.627-5.74"/>
  <path fill="none" d="m38.686 37.428 4.677-5.421 14.111 4.225.839 6.936c-6.634-3.07-11.432-4.505-19.627-5.74"/>
  <path fill="#120c0e" d="m32.29 71.906 7.916-6.417a.76.76 0 0 0 .199-.519c0-.239-.04-.518-.239-.598l-8.355-3.946c-.52-.239-.839-.877-.839-1.515 0-.717.479-1.275 1.08-1.634l3.077-1.835h2.279l-4.558 2.832a.64.64 0 0 0-.239.518c0 .238.119.438.32.557l8.994 3.907a2.05 2.05 0 0 1 1.28 1.913c0 .559-.16 1.036-.52 1.435l-6.557 5.302z"/>
  <path fill="none" d="m32.29 71.906 7.916-6.417a.76.76 0 0 0 .199-.519c0-.239-.04-.518-.239-.598l-8.355-3.946c-.52-.239-.839-.877-.839-1.515 0-.717.479-1.275 1.08-1.634l3.077-1.835h2.279l-4.558 2.832a.64.64 0 0 0-.239.518c0 .238.119.438.32.557l8.994 3.906c.76.32 1.28 1.037 1.28 1.914 0 .559-.16 1.036-.52 1.435l-6.557 5.302z"/>
  <path fill="#120c0e" d="m52.317 71.945 6.596-6.377a.75.75 0 0 0 .201-.518c0-.239-.32-.479-.48-.598l-9.074-3.906c-.92-.398-1.159-.359-1.319-1.436-.12-.718.2-1.036.76-1.354l4.077-2.313h2.358l-4.438 2.552c-.159.08-.439.519-.439.718 0 .238.4.559.6.637l9.474 3.986a2.05 2.05 0 0 1 1.279 1.914c0 .558-.039 1.116-.398 1.515l-5.037 5.222z"/>
  <path fill="none" d="m52.317 71.945 6.596-6.377a.75.75 0 0 0 .201-.518c0-.239-.32-.479-.48-.598l-9.074-3.906c-.92-.398-1.159-.359-1.319-1.436-.12-.718.2-1.036.76-1.355l4.077-2.313h2.358l-4.438 2.552c-.159.08-.439.519-.439.718 0 .238.4.559.6.637l9.474 3.986a2.05 2.05 0 0 1 1.279 1.914c0 .558-.039 1.116-.398 1.515l-5.037 5.222z"/>
</svg>
