<svg xmlns="http://www.w3.org/2000/svg" xml:space="preserve" viewBox="0 0 95.797 83.713" role="img" aria-labelledby="title">
  <title id="title">Verkehrszeichen A7a - Road narrows (about 150m after the sign)</title>
  <path fill="#ed1c24" d="M52.198 2.271C51.318.876 49.759 0 47.96 0c-1.719 0-2.479.836-3.398 2.112L.95 75.294c-1.519 1.993-1.16 5.142.68 6.975q1.56 1.555 3.597 1.436l86.385-.04c1-.159 1.959-.638 2.719-1.396 1.479-1.515 1.84-3.706 1.079-5.58z"/>
  <path fill="none" d="M52.198 2.271C51.318.876 49.759 0 47.96 0c-1.719 0-2.479.836-3.398 2.112L.95 75.294c-1.519 1.993-1.16 5.142.68 6.975q1.56 1.555 3.597 1.436l86.385-.04c1-.159 1.959-.638 2.719-1.396 1.479-1.515 1.84-3.706 1.079-5.58z"/>
  <path fill="#fff" fill-rule="evenodd" d="M81.14 72.902 47.92 15.465 14.702 72.902z" clip-rule="evenodd"/>
  <path fill="none" d="M81.14 72.902 47.92 15.465 14.702 72.902z"/>
  <path fill="#ed1c24" d="M52.198 2.271C51.318.876 49.759 0 47.96 0c-1.719 0-2.479.836-3.398 2.112L.95 75.294c-1.519 1.993-1.16 5.142.68 6.975q1.56 1.555 3.597 1.436l86.385-.04c1-.159 1.959-.638 2.719-1.396 1.479-1.515 1.84-3.706 1.079-5.58z"/>
  <path fill="none" d="M52.198 2.271C51.318.876 49.759 0 47.96 0c-1.719 0-2.479.836-3.398 2.112L.95 75.294c-1.519 1.993-1.16 5.142.68 6.975q1.56 1.555 3.597 1.436l86.385-.04c1-.159 1.959-.638 2.719-1.396 1.479-1.515 1.84-3.706 1.079-5.58z"/>
  <path fill="#fff" fill-rule="evenodd" d="M81.14 72.902 47.92 15.465 14.702 72.902z" clip-rule="evenodd"/>
  <path fill="none" d="M81.14 72.902 47.92 15.465 14.702 72.902zM37.687 47.591l4.157 2.95"/>
  <path fill="#120c0e" d="m40.445 52.534 4.997-6.975V34.598h-5.116v9.367l-5.038 7.055v16.222h5.117V52.334z"/>
  <path fill="none" d="m40.445 52.534 4.997-6.975V34.598h-5.116v9.367l-5.038 7.055v16.221h5.117V52.334z"/>
  <path fill="#120c0e" d="m55.676 52.733-4.997-6.975V34.797h5.116v9.366l5.037 7.056v16.222h-5.116V52.534z"/>
  <path fill="none" d="m55.676 52.733-4.997-6.975V34.797h5.116v9.366l5.037 7.056v16.222h-5.116V52.534z"/>
</svg>
