<svg xmlns="http://www.w3.org/2000/svg" xml:space="preserve" viewBox="0 0 95.816 83.722" role="img" aria-labelledby="title">
  <title id="title">Verkehrszeichen A37 - Side wind (about 150m after the sign)</title>
  <path fill="#ed1c24" d="M52.208 2.272C51.328.877 49.769 0 47.97 0c-1.72 0-2.479.837-3.399 2.113L.95 75.31c-1.519 1.993-1.16 5.143.68 6.977 1.04 1.037 2.239 1.436 3.599 1.436h86.324c.999 0 2.039-.679 2.798-1.436 1.479-1.515 1.839-3.707 1.079-5.582z"/>
  <path fill="none" d="M52.208 2.272C51.328.877 49.769 0 47.97 0c-1.72 0-2.479.837-3.399 2.113L.95 75.31c-1.519 1.993-1.16 5.143.68 6.977 1.04 1.037 2.239 1.436 3.599 1.436h86.324c.999 0 2.039-.679 2.798-1.436 1.479-1.515 1.839-3.707 1.079-5.582z"/>
  <path fill="#fff" fill-rule="evenodd" d="M81.155 72.917 47.93 15.469 14.704 72.917z" clip-rule="evenodd"/>
  <path fill="none" d="M81.155 72.917 47.93 15.469 14.704 72.917z"/>
  <path fill="#120c0e" fill-rule="evenodd" d="M39.533 66.738h-.76V49.276h.76z" clip-rule="evenodd"/>
  <path fill="none" d="M39.533 66.738h-.76V49.276h.76z"/>
  <path fill="none" stroke="#120c0e" stroke-miterlimit="3.863" stroke-width=".2" d="m43.011 47.163-3.837 2.073 1.758 3.23"/>
  <path fill="#120c0e" fill-rule="evenodd" d="M58.685 57.808c-1.119 2.313-2.158.559-1.239-.877.839-1.236 2.079-.997 1.239.877" clip-rule="evenodd"/>
  <path fill="none" d="M58.685 57.808c-1.119 2.313-2.158.559-1.239-.877.839-1.236 2.079-.997 1.239.877"/>
  <path fill="#120c0e" d="m54.967 53.98 2.479 1.475c-1.759-.278-2.919 1.236-1.679 2.791l-2.679-.996c-.72-.678-.8-3.629 1.879-3.27"/>
  <path fill="none" d="m54.967 53.98 2.479 1.475c-1.759-.278-2.919 1.236-1.679 2.791l-2.679-.996c-.72-.678-.8-3.629 1.879-3.27"/>
  <path fill="#120c0e" d="m50.648 51.508 2.279 1.356c-1.04-.398-3.638 1.236-1.72 3.708l-2.479-.997c-1.958-2.152.082-4.585 1.92-4.067"/>
  <path fill="none" d="m50.648 51.508 2.279 1.356c-1.04-.398-3.638 1.236-1.72 3.708l-2.479-.997c-1.958-2.152.082-4.585 1.92-4.067"/>
  <path fill="none" stroke="#120c0e" stroke-miterlimit="3.863" stroke-width=".2" d="m58.685 56.252-15.673-9.089m14.513 11.682-16.593-6.379"/>
  <path fill="#120c0e" d="m43.571 53.582 2.839 1.075c-2.039-2.949.839-4.584 2.039-4.384l-2.599-1.595c-1.039-.119-4.118 1.595-2.279 4.904"/>
  <path fill="none" d="m43.571 53.582 2.839 1.075c-2.039-2.949.839-4.584 2.039-4.385l-2.599-1.594c-1.039-.119-4.118 1.594-2.279 4.904"/>
  <path fill="#120c0e" d="m40.932 52.466.281.04c-1.2-2.313 1.359-4.745 2.318-5.023l-.52-.319c-.598.158-3.518 2.989-2.079 5.302"/>
  <path fill="none" d="m40.932 52.466.281.04c-1.2-2.313 1.359-4.745 2.318-5.023l-.52-.319c-.598.158-3.518 2.989-2.079 5.302"/>
</svg>
