<svg xmlns="http://www.w3.org/2000/svg" xml:space="preserve" viewBox="0 0 95.797 83.705" role="img" aria-labelledby="title">
  <title id="title">Verkehrszeichen A19 - Falling rocks (about 150m after the sign)</title>
  <path fill="#ed1c24" d="M52.198 2.272C51.319.877 49.759 0 47.96 0c-1.719 0-2.479.838-3.397 2.113L.95 75.294c-1.519 1.993-1.16 5.142.68 6.977 1.04 1.035 2.238 1.434 3.598 1.434h86.306c.999 0 2.039-.678 2.8-1.434 1.479-1.516 1.838-3.708 1.078-5.582z"/>
  <path fill="none" d="M52.198 2.272C51.319.877 49.759 0 47.961 0c-1.72 0-2.479.837-3.398 2.113L.95 75.294c-1.519 1.993-1.16 5.142.68 6.977 1.04 1.035 2.238 1.434 3.598 1.434h86.306c.999 0 2.039-.678 2.8-1.434 1.479-1.516 1.838-3.708 1.078-5.582z"/>
  <path fill="#fff" fill-rule="evenodd" d="M81.139 72.903 47.92 15.465 14.702 72.903z" clip-rule="evenodd"/>
  <path fill="none" d="M81.139 72.903 47.92 15.465 14.702 72.903z"/>
  <path fill="#191c21" d="M80.821 72.983H44.282c5.756-6.538 4.398-9.008 6.236-13.673.32-2.191 2.559-3.984 4.357-6.934.16-1.037-1.559-3.189-1.639-5.78 0-.558-.279-1.036-.279-1.595-.279-1.793-1.479-5.102-1.799-6.497-.88-3.866.359.677 4.396-9.607z"/>
  <path fill="none" d="M80.821 72.983H44.282c5.756-6.538 4.398-9.008 6.236-13.673.32-2.191 2.559-3.984 4.357-6.935.16-1.036-1.559-3.188-1.639-5.779 0-.558-.279-1.036-.279-1.595-.279-1.793-1.479-5.102-1.799-6.497-.879-3.866.359.677 4.396-9.607z"/>
  <path fill="#120c0e" d="M35.449 71.906c.319.16.719-.039 1 .121.199-.041.399-.08.599-.08.2.239 1.519-1.953.12-2.432-.359 0-.719-.08-1.08-.04-.52-.12-.799-.479-1.199-.677-.68 0-1.319-.041-1.599.438-.48.638-.359.838-.359 1.594.238 1.076 1.677 1.795 2.518 1.076"/>
  <path fill="none" d="M35.449 71.906c.319.16.719-.039 1 .121.199-.041.399-.08.599-.08.2.239 1.519-1.953.12-2.432-.359 0-.719-.08-1.08-.04-.52-.12-.799-.479-1.199-.677-.68 0-1.319-.041-1.599.438-.48.638-.359.838-.359 1.594.238 1.076 1.677 1.795 2.518 1.076"/>
  <path fill="#120c0e" d="M43.124 68.598c-.76-.079-.6-.599-.64-.638.04-.318-.04-.159.08-.479.12-.08.08-.238.16-.358 0-.12-.2-.319-.16-.438-.319-.24-.16-.678-.12-.996.16-.439.68-.758 1.2-.599.04.12.319.239.359.359.199.159.399.239.64.198.159.121.319.2.479.319.359.359.04 1.196.04 1.794-.2.479-.6.598-.92.637-.439.479-.959.081-1.118.201"/>
  <path fill="none" d="M43.124 68.598c-.76-.08-.6-.599-.64-.638.04-.318-.04-.159.08-.479.12-.08.08-.238.16-.358 0-.12-.2-.319-.16-.438-.319-.24-.16-.678-.12-.996.16-.439.68-.758 1.2-.599.04.12.319.239.359.359.199.159.399.239.64.198.159.121.319.2.479.319.359.359.04 1.196.04 1.794-.2.479-.6.598-.92.637-.439.479-.959.081-1.118.201"/>
  <path fill="#120c0e" d="M37.327 64.213c.959.398 2.398.2 2.718-.04 0-.039.28-.158.319-.198.2-.319.32-.519.4-.917-.08-.279-.24-.479-.2-.758-.16-.318-.56-.518-.879-.559-.24-.198-.359-.278-.52-.518-.359-.119-.759-.238-1.16-.199-.879.359-.839 1.475-1.359 1.634 0 .2 0 .559.12.718.201-.039.521.559.561.837"/>
  <path fill="none" d="M37.327 64.213c.959.398 2.398.2 2.718-.04 0-.039.28-.158.319-.198.2-.319.32-.519.4-.917-.08-.279-.24-.479-.2-.758-.16-.318-.56-.518-.879-.559-.24-.198-.359-.278-.52-.518-.359-.119-.759-.238-1.16-.199-.879.359-.839 1.475-1.359 1.634 0 .2 0 .559.12.718.201-.039.521.559.561.837"/>
  <path fill="#120c0e" d="M41.564 57.996c-.12-.318.2-.559.239-.837.72-.718.92-.798.92-1.993.439-1.036 1.079-2.033 2.038-1.275.12.079.64.598 1.918.318.04.041.72.359.76.398.159.398.159 1.037.479 1.355.6 1.953 1.399 1.715.719 4.225.361.519-.479 1.117-.519 1.037-.16.598-.44.399-.52.718-.039.278-.759.04-.919-.279-.359-.159-.759-.039-1.119-.079-.479-.32-.88-.639-1.36-.918-.479-.358-1.079-.119-1.558-.557-.28-.559-.68-1.396-.879-1.715 0-.04-.08-.08-.04-.16-.078-.078-.119-.118-.159-.238"/>
  <path fill="none" d="M41.564 57.996c-.12-.318.2-.559.239-.837.72-.718.92-.798.92-1.993.439-1.036 1.079-2.033 2.038-1.275.12.079.64.598 1.918.318.04.041.72.359.76.398.159.398.159 1.037.479 1.355.6 1.953 1.399 1.715.719 4.225.361.519-.479 1.117-.519 1.037-.159.598-.44.399-.52.718-.039.278-.759.04-.919-.28-.359-.158-.759-.038-1.119-.078-.479-.32-.88-.639-1.36-.918-.479-.358-1.079-.119-1.558-.557-.28-.559-.68-1.396-.879-1.715 0-.04-.08-.08-.04-.16-.078-.078-.119-.118-.159-.238"/>
  <path fill="#120c0e" d="M37.607 51.778c-.36.358-.959.278-1 .837-.12.039-.199.16-.32.199 0 .877-.479 1.634-.319 2.512.799.557 2.398.158 2.758-.279.6-.359.16-2.591-.52-3.469-.08-.12-.479.24-.599.2"/>
  <path fill="none" d="M37.607 51.778c-.36.358-.959.278-1 .837-.12.039-.199.16-.32.199 0 .877-.479 1.634-.319 2.512.799.557 2.398.158 2.758-.279.6-.359.16-2.591-.52-3.469-.08-.12-.479.24-.599.2"/>
  <path fill="#120c0e" d="M40.166 45.042c.04-.519.64-.997.879-1.476.439-.916 1.999-1.474 2.718-1.156.88.4 1.2.08 1.479.24 1.76.957 2.039 2.432 1.439 4.465-1.279 1.154-.959 3.586-3.117 2.948-.879-.278-1.799-1.155-2.278-1.514-.56-.438-1.76-2.192-1.56-2.632.04-.119.359-.835.44-.875"/>
  <path fill="none" d="M40.166 45.042c.04-.519.64-.997.879-1.476.439-.916 1.999-1.474 2.718-1.156.88.4 1.2.08 1.479.24 1.76.957 2.039 2.432 1.439 4.465-1.279 1.154-.959 3.586-3.117 2.948-.879-.278-1.799-1.155-2.278-1.514-.56-.438-1.76-2.192-1.56-2.632.04-.119.359-.835.44-.875"/>
  <path fill="#120c0e" d="M47.121 39.062c-.079-.358.32-.199.88-.757.239-.2.558-.278.798-.518.121.04.24-.04.36-.04.04-.08.04-.08.12-.12.359 0 .56-.159.919.16.521.638.56 2.231.241 2.631-.801.398-.681.917-1.32.917-.439 0-1.359-.28-1.559-.718-.319-.08-.359-1.156-.439-1.555"/>
  <path fill="none" d="M47.121 39.062c-.079-.358.32-.199.88-.757.239-.2.558-.278.798-.518.121.04.24-.04.36-.04.04-.08.04-.08.12-.12.359 0 .56-.159.919.16.521.638.56 2.231.241 2.631-.801.398-.681.917-1.32.917-.439 0-1.359-.28-1.559-.718-.319-.08-.359-1.156-.439-1.555"/>
</svg>
