<svg xmlns="http://www.w3.org/2000/svg" xml:space="preserve" viewBox="0 0 95.798 83.705" role="img" aria-labelledby="title">
  <title id="title">Verkehrszeichen A29 - Cattle crossing (about 150m after the sign)</title>
  <path fill="#ed1c24" d="M52.198 2.272C51.319.877 49.759 0 47.961 0c-1.72 0-2.479.837-3.398 2.113L.95 75.294c-1.519 1.993-1.16 5.142.68 6.976 1.04 1.036 2.238 1.435 3.597 1.435h86.305c1 0 2.039-.677 2.8-1.435 1.479-1.516 1.839-3.707 1.079-5.58z"/>
  <path fill="none" d="M52.198 2.272C51.319.877 49.759 0 47.961 0c-1.72 0-2.479.837-3.398 2.113L.95 75.294c-1.519 1.993-1.16 5.142.68 6.976 1.04 1.036 2.238 1.435 3.597 1.435h86.305c1 0 2.039-.677 2.8-1.435 1.479-1.516 1.839-3.707 1.079-5.58z"/>
  <path fill="#fff" fill-rule="evenodd" d="M81.14 72.903 47.921 15.466 14.702 72.903z" clip-rule="evenodd"/>
  <path fill="none" d="M81.14 72.903 47.921 15.466 14.702 72.903z"/>
  <path fill="#120c0e" d="M43.723 67.403c-.479-.041 1.4-1.236.64-3.947-.279-.996-.239-1.395-.239-2.031-.201-.599-.72-.799-1.64-.838-.64-.04-.879-.957-1.519-1.674-1.56-1.754-.48-3.588-3.118-4.943-.04 0-1.24.599-1.32.559-.279-.199-1.239.12-1.319.318-.239 0-.48.24-.719-.158-.4-.08-.84-.439-1.399-.2-.12-.079-.24-.239-.36-.318 0-.28-.04-.519.12-.758.04-.04.12-.08.2-.08.359-.597.759-1.235 1.159-1.833 0-.318 0-.639.12-.917.04-.079.04-.079.12-.12 0-.398.36-.597.52-.916.04-.199.04-.359 0-.559a.3.3 0 0 0-.16-.078c-.201.118-.44.158-.6.398-.04 0-.239-.121-.319-.08v-.2c.16-.118.279-.278.399-.438.279-.318.959-.318 1.16-.637.079-.04.119.039.159.039.04-.119.16-.199.241-.279.239-.08.479-.08.719-.08.24.28.68.32 1 .398l.12.121c.16.039.359.079.52 0 .239-.319.839-.121.999-.639.12-.039.28.04.4.04.24.359.2.678-.12.996-.639 2.113 5.997-.118 9.833.759 1.239.277 3.118-.2 6.996-.439 1.76-.119 4.758.678 5.157 1.036.199.359.479.599.959 1.116.96.996.599 3.069.319 4.863-.08.479-.319 1.275-.359 1.753-.16 1.356.32 2.432-.04 2.87-.12.04-.16.119-.28.16-.039 0-.239-1.236-.319-1.195-.239-1.236.28-1.037.64-3.349.199-1.435.12-1.675-.04-3.269-.24-.119-.24-.718-.319-.957-.12-.318-.16-.119-.52-.877-.16.279.239.639.239.957.64.558.479 2.949.359 3.627-.119.797-.319 1.156-.639 1.873-.36.758-.12 1.156-.28 2.232-.16 1.116-.24 1.475-.16 2.83.041.758-.959 1.116-.999 4.186-.32-.16-.36.199-.36.438.16.198-1.318.597-1.759.159.12-.279.36-.519.64-.678.561-1.116.84-2.83.64-4.025-.44-.318-.239-.838-.36-1.275-.279-.438-.559-.559-.799-1.156-.399.279-1.318.559-.72 1.314-.119 0-.319-.078-.439-.078-.12-.24.04-.479-.159-.678-.041 0-.08-.08-.16-.041-.041.041-.121.041-.16.12-.041.159-.08.438-.16.599-.119 0-.279.039-.279-.24s-.08-.398-.08-.678c-.28-.358-.76-.837-.96-1.235-.04 0-.119-.12-.159-.04-.24.559-2.799.758-3.878.318-1.599-.158-2.319.758-4.437.519l-.161.159c-.279 1.197.241 3.229-.399 3.588-.239.917-.279 1.396-.319 2.87-.04 0-.399 0-.44.04 0 .318.041.518-.04.797-.483.08-.883-.08-1.363-.119"/>
  <path fill="none" d="M43.723 67.403c-.479-.041 1.4-1.236.64-3.947-.279-.996-.239-1.395-.239-2.031-.201-.599-.72-.799-1.64-.838-.64-.04-.879-.957-1.519-1.674-1.559-1.754-.48-3.588-3.118-4.943-.04 0-1.24.599-1.32.559-.279-.199-1.239.12-1.319.318-.239 0-.48.24-.719-.158-.4-.08-.84-.439-1.399-.2-.12-.079-.24-.239-.36-.318 0-.28-.04-.519.12-.758.04-.04.12-.08.2-.08.359-.597.759-1.235 1.159-1.833 0-.318 0-.639.12-.917.04-.079.04-.079.12-.12 0-.398.36-.597.52-.916.04-.199.04-.359 0-.559a.3.3 0 0 0-.16-.078c-.201.118-.44.158-.6.398-.04 0-.239-.121-.319-.08v-.2c.16-.118.279-.278.399-.438.279-.318.959-.318 1.16-.637.079-.04.119.039.159.039.04-.119.16-.199.241-.279.239-.08.479-.08.719-.08.24.28.68.32 1 .398l.12.12c.16.04.359.08.52 0 .239-.318.839-.12.999-.638.12-.039.28.04.4.04.24.359.2.678-.12.996-.639 2.113 5.997-.118 9.833.759 1.239.277 3.118-.2 6.996-.439 1.76-.119 4.758.678 5.157 1.036.199.359.479.599.959 1.116.96.996.599 3.069.319 4.863-.08.479-.319 1.275-.359 1.753-.16 1.356.32 2.432-.04 2.87-.12.04-.16.119-.28.16-.039 0-.239-1.236-.319-1.195-.239-1.236.28-1.037.64-3.349.199-1.435.12-1.675-.04-3.269-.24-.119-.24-.718-.319-.957-.12-.318-.16-.119-.52-.877-.16.279.239.639.239.957.64.558.479 2.949.359 3.627-.119.797-.319 1.156-.639 1.873-.36.758-.12 1.156-.28 2.232-.16 1.116-.24 1.475-.16 2.83.041.758-.959 1.116-.999 4.186-.32-.16-.36.199-.36.438.16.198-1.318.597-1.759.159.12-.279.36-.519.64-.678.561-1.116.84-2.83.64-4.025-.44-.318-.239-.838-.36-1.275-.279-.438-.559-.559-.799-1.156-.399.279-1.318.558-.72 1.314-.119 0-.319-.078-.439-.078-.12-.24.04-.479-.159-.679-.041 0-.08-.079-.16-.04-.041.04-.121.04-.16.12-.041.159-.08.438-.16.599-.119 0-.279.039-.279-.24s-.08-.398-.08-.678c-.28-.358-.76-.837-.96-1.235-.04 0-.119-.12-.159-.04-.24.559-2.799.758-3.878.318-1.599-.158-2.319.758-4.437.519l-.161.159c-.279 1.197.241 3.229-.399 3.588-.239.917-.279 1.396-.319 2.87-.04 0-.399 0-.44.04 0 .318.041.518-.04.797-.483.08-.883-.08-1.363-.119"/>
</svg>
