<svg xmlns="http://www.w3.org/2000/svg" xml:space="preserve" viewBox="0 0 95.797 83.713" role="img" aria-labelledby="title">
  <title id="title">Verkehrszeichen A1d - Series of curves, first one to the left (about 150m after the sign) It is possible to have multiple curves to the right and none to the left</title>
  <path fill="#ed1c24" d="M52.197 2.271C51.318.877 49.759 0 47.96 0c-1.72 0-2.479.837-3.398 2.113L.95 75.294c-1.52 1.992-1.16 5.142.68 6.976q1.56 1.555 3.597 1.435l86.386-.04c1-.158 1.959-.637 2.719-1.395 1.479-1.515 1.839-3.707 1.078-5.58z"/>
  <path fill="none" d="M52.197 2.271C51.318.877 49.759 0 47.96 0c-1.72 0-2.479.837-3.398 2.113L.95 75.294c-1.52 1.992-1.16 5.142.68 6.976q1.56 1.555 3.597 1.435l86.386-.04c1-.158 1.959-.637 2.719-1.395 1.479-1.515 1.839-3.707 1.078-5.58z"/>
  <path fill="#fff" fill-rule="evenodd" d="M81.14 72.903 47.92 15.466 14.701 72.903z" clip-rule="evenodd"/>
  <path fill="none" d="M81.14 72.903 47.92 15.466 14.701 72.903z"/>
  <path fill="#120c0e" d="M59.792 50.701V39.58l-3.397-2.232-3.358 2.232v11.121c0 .598-.479 1.115-1.118 1.115-.24 0-.479-.079-.64-.198l-8.396-4.863c-1.159-.678-2.438-1.036-3.877-1.036-4.277 0-7.795 3.508-7.795 7.813v15.624l3.358-1.993 3.359 1.993V53.571c0-.599.48-1.116 1.079-1.116.2 0 .399.04.6.159L48 57.438a7.73 7.73 0 0 0 3.957 1.075c4.317 0 7.835-3.507 7.835-7.812"/>
  <path fill="none" stroke="#120c0e" stroke-miterlimit="3.863" stroke-width=".2" d="M59.792 50.701V39.58l-3.397-2.232-3.358 2.232v11.121c0 .598-.479 1.115-1.118 1.115-.24 0-.479-.079-.64-.198l-8.396-4.863c-1.159-.678-2.438-1.036-3.877-1.036-4.277 0-7.795 3.508-7.795 7.813v15.624l3.358-1.993 3.359 1.993V53.571c0-.599.48-1.116 1.079-1.116.2 0 .399.04.6.159L48 57.438a7.73 7.73 0 0 0 3.957 1.075c4.317 0 7.835-3.507 7.835-7.812z"/>
</svg>
