<svg xmlns="http://www.w3.org/2000/svg" xml:space="preserve" viewBox="0 0 95.816 83.729" role="img" aria-labelledby="title">
  <title id="title">Verkehrszeichen A1b - Dangerous right curve (about 150m after the sign)</title>
  <path fill="#ed1c24" d="M43.608 2.271C44.488.876 46.047 0 47.846 0c1.72 0 2.479.836 3.399 2.113L94.867 75.31c1.52 1.992 1.159 5.143-.68 6.977q-1.559 1.555-3.598 1.436l-86.404-.042a4.97 4.97 0 0 1-2.719-1.395c-1.479-1.516-1.84-3.707-1.08-5.582z"/>
  <path fill="none" d="M43.608 2.271C44.488.876 46.048 0 47.846 0c1.72 0 2.479.836 3.399 2.113L94.867 75.31c1.52 1.992 1.159 5.143-.68 6.977q-1.559 1.555-3.598 1.436l-86.404-.042a4.97 4.97 0 0 1-2.719-1.395c-1.479-1.516-1.84-3.707-1.08-5.582z"/>
  <path fill="#fff" fill-rule="evenodd" d="m14.66 72.917 33.266-57.449 33.267 57.449z" clip-rule="evenodd"/>
  <path fill="none" d="m14.66 72.917 33.266-57.449 33.267 57.449z"/>
  <path fill="#120c0e" d="m54.524 40.066 2.918 3.069-1.319 3.748-4.518 1.275c-6.637 1.914-11.635 8.053-11.635 15.27v4.704l-3.518-2.233-3.399 2.233v-4.704c0-10.564 7.197-19.496 16.953-22.087z"/>
  <path fill="none" stroke="#120c0e" stroke-miterlimit="3.863" stroke-width=".2" d="m54.524 40.066 2.918 3.069-1.319 3.748-4.518 1.275c-6.637 1.914-11.635 8.053-11.635 15.27v4.704l-3.518-2.233-3.399 2.233v-4.704c0-10.564 7.198-19.496 16.953-22.087z"/>
</svg>
