<svg xmlns="http://www.w3.org/2000/svg" xml:space="preserve" viewBox="0 0 95.797 83.713" role="img" aria-labelledby="title">
  <title id="title">Verkehrszeichen A7b - Steep ascent (about 150m after the sign)</title>
  <path fill="#ed1c24" d="M52.197 2.271C51.318.876 49.759 0 47.96 0c-1.72 0-2.479.837-3.398 2.112L.95 75.294c-1.52 1.992-1.16 5.142.68 6.975q1.56 1.555 3.597 1.436l86.386-.04c1-.159 1.959-.638 2.719-1.396 1.479-1.515 1.839-3.706 1.078-5.58z"/>
  <path fill="none" d="M52.197 2.271C51.318.876 49.759 0 47.96 0c-1.72 0-2.479.837-3.398 2.112L.95 75.294c-1.52 1.992-1.16 5.142.68 6.975q1.56 1.555 3.597 1.436l86.386-.04c1-.159 1.959-.638 2.719-1.396 1.479-1.515 1.839-3.706 1.078-5.58z"/>
  <path fill="#fff" fill-rule="evenodd" d="M81.14 72.902 47.92 15.465 14.701 72.902z" clip-rule="evenodd"/>
  <path fill="none" d="M81.14 72.902 47.92 15.465 14.701 72.902z"/>
  <path fill="#ed1c24" d="M52.197 2.271C51.318.876 49.759 0 47.96 0c-1.72 0-2.479.837-3.398 2.112L.95 75.294c-1.52 1.992-1.16 5.142.68 6.975q1.56 1.555 3.597 1.436l86.386-.04c1-.159 1.959-.638 2.719-1.396 1.479-1.515 1.839-3.706 1.078-5.58z"/>
  <path fill="none" d="M52.197 2.271C51.318.876 49.759 0 47.96 0c-1.72 0-2.479.837-3.398 2.112L.95 75.294c-1.52 1.992-1.16 5.142.68 6.975q1.56 1.555 3.597 1.436l86.386-.04c1-.159 1.959-.638 2.719-1.396 1.479-1.515 1.839-3.706 1.078-5.58z"/>
  <path fill="#fff" fill-rule="evenodd" d="M81.14 72.902 47.92 15.465 14.701 72.902z" clip-rule="evenodd"/>
  <path fill="none" d="M81.14 72.902 47.92 15.465 14.701 72.902zM37.687 47.591l4.156 2.95"/>
  <path fill="#120c0e" d="m40.444 52.534 4.998-6.975V34.598h-5.117v9.367l-5.037 7.055v16.221h5.116V52.334z"/>
  <path fill="none" d="m40.444 52.534 4.998-6.975V34.598h-5.117v9.367l-5.037 7.055v16.221h5.116V52.334z"/>
  <path fill="#120c0e" d="M50.679 34.797h5.115l-.039 32.166h-5.037z"/>
  <path fill="none" d="M50.679 34.797h5.115l-.039 32.166h-5.037z"/>
</svg>
