<svg xmlns="http://www.w3.org/2000/svg" xml:space="preserve" viewBox="0 0 95.798 83.704" role="img" aria-labelledby="title">
  <title id="title">Verkehrszeichen A35 - Low flying aircraft (about 150m after the sign)</title>
  <path fill="#ed1c24" d="M52.198 2.272C51.319.877 49.759 0 47.961 0c-1.72 0-2.479.837-3.398 2.112L.95 75.294c-1.519 1.992-1.16 5.143.68 6.976 1.04 1.036 2.238 1.435 3.597 1.435h86.305c1 0 2.039-.678 2.8-1.435 1.479-1.515 1.839-3.706 1.079-5.581z"/>
  <path fill="none" d="M52.198 2.272C51.319.877 49.759 0 47.961 0c-1.72 0-2.479.837-3.398 2.112L.95 75.294c-1.519 1.992-1.16 5.143.68 6.976 1.04 1.036 2.238 1.435 3.597 1.435h86.305c1 0 2.039-.678 2.8-1.435 1.479-1.515 1.839-3.706 1.079-5.581z"/>
  <path fill="#fff" fill-rule="evenodd" d="M81.14 72.902 47.921 15.466 14.702 72.902z" clip-rule="evenodd"/>
  <path fill="none" d="M81.14 72.902 47.921 15.466 14.702 72.902z"/>
  <path fill="#120c0e" d="m49.2 65.011-6.836-13.633-5.476-1.156c-2.279-.637-2.799-1.115-3.797-2.071 1.239-.36 2.398-.479 3.797-.28l5.956 1.276 11.993-9.726 1.72.358-6.196 8.53-.481 2.391 7.835 1.834.8.279 2.598-2.75 1.359.358-.959 3.786.439.279-.641.039-.479 3.947-1.359-.199-1.318-3.628-.841-.12-7.915-1.633-.559 2.471 1.958 10.125z"/>
  <path fill="none" d="m49.2 65.011-6.836-13.633-5.476-1.156c-2.279-.637-2.799-1.115-3.797-2.071 1.239-.36 2.398-.479 3.797-.28l5.956 1.276 11.993-9.726 1.72.358-6.196 8.53-.481 2.391 7.835 1.834.8.279 2.598-2.75 1.359.358-.959 3.786.439.279-.641.039-.479 3.947-1.359-.199-1.318-3.628-.841-.12-7.915-1.633-.559 2.471 1.958 10.125z"/>
</svg>
