<svg xmlns="http://www.w3.org/2000/svg" xml:space="preserve" viewBox="0 0 95.797 83.713" role="img" aria-labelledby="title">
  <title id="title">Verkehrszeichen A7c - Steep ascent (about 150m after the sign)</title>
  <path fill="#ed1c24" d="M52.198 2.272C51.319.878 49.759 0 47.96 0c-1.719 0-2.479.838-3.397 2.113L.95 75.295c-1.519 1.993-1.16 5.141.68 6.975q1.559 1.555 3.598 1.436l86.386-.041a4.97 4.97 0 0 0 2.72-1.395c1.479-1.514 1.838-3.707 1.078-5.58z"/>
  <path fill="none" d="M52.198 2.272C51.319.878 49.759 0 47.961 0c-1.72 0-2.479.838-3.398 2.113L.95 75.295c-1.519 1.992-1.16 5.141.68 6.975q1.559 1.555 3.598 1.436l86.386-.041a4.97 4.97 0 0 0 2.72-1.395c1.479-1.514 1.838-3.707 1.078-5.58z"/>
  <path fill="#fff" fill-rule="evenodd" d="M81.139 72.903 47.92 15.466 14.702 72.903z" clip-rule="evenodd"/>
  <path fill="none" d="M81.139 72.903 47.92 15.465 14.702 72.903z"/>
  <path fill="#ed1c24" d="M52.198 2.272C51.319.878 49.759 0 47.96 0c-1.719 0-2.479.838-3.397 2.113L.95 75.295c-1.519 1.993-1.16 5.141.68 6.975q1.559 1.555 3.598 1.436l86.386-.041a4.97 4.97 0 0 0 2.72-1.395c1.479-1.514 1.838-3.707 1.078-5.58z"/>
  <path fill="none" d="M52.198 2.272C51.319.878 49.759 0 47.961 0c-1.72 0-2.479.838-3.398 2.113L.95 75.295c-1.519 1.992-1.16 5.141.68 6.975q1.559 1.555 3.598 1.436l86.386-.041a4.97 4.97 0 0 0 2.72-1.395c1.479-1.514 1.838-3.707 1.078-5.58z"/>
  <path fill="#fff" fill-rule="evenodd" d="M81.139 72.903 47.92 15.466 14.702 72.903z" clip-rule="evenodd"/>
  <path fill="none" d="M81.139 72.903 47.92 15.465 14.702 72.903z"/>
  <path fill="#120c0e" d="M45.442 34.598h-5.116v32.685h5.196z"/>
  <path fill="none" d="M45.442 34.598h-5.116v32.685h5.196z"/>
  <path fill="#120c0e" d="m55.676 52.734-4.998-6.975V34.797h5.117v9.368l5.038 7.055v16.221h-5.118V52.535z"/>
  <path fill="none" d="m55.676 52.734-4.998-6.975V34.797h5.117v9.368l5.038 7.055v16.221h-5.118V52.535z"/>
</svg>
