<svg xmlns="http://www.w3.org/2000/svg" xml:space="preserve" viewBox="0 0 83.608 73.819" role="img" aria-labelledby="title">
  <title id="title">Verkehrszeichen A50 - Queues are likely (mostly used on dynamic signs)</title>
  <path d="M89.86 101.444a1 1 0 0 1-.183-.298 2.6 2.6 0 0 1-.17-.52c-.109-.491-.26-1.49-.26-1.49l-.282-2.025-.005-1.124-.005-1.125h-4.762v.667s.023.428-.058.618a.73.73 0 0 1-.263.301c-.133.092-.3.127-.456.167-.154.039-.313.078-.471.07a1.9 1.9 0 0 1-.541-.13c-.1-.037-.2-.082-.289-.142-.084-.057-.18-.115-.227-.206-.216-.417-.235-1.383-.235-1.383l-.102-1.417-.002-1.654-.002-1.653h-4.725l-.085.595s.048.445-.085.595c-.193.22-.555.239-.848.232-.25-.006-.547-.046-.715-.232-.242-.267-.327-1.025-.327-1.025l-.128-1.091-.076-2.117s.073-1.434.251-2.117c.117-.447.24-.895.446-1.303.212-.418.434-.886.809-1.168.154-.116.343-.166.526-.216.192-.052.592-.084.592-.084l3.447-.004 3.108-.003s.25-.006.36.025c.205.057.342.179.526.308.184.128.378.29.518.465.182.226.37.779.37.779l.334.804h3.92s1.57-.032 2.89-.033c.365 0 .749-.007 1.029.033.231.034.454.117.672.2.22.084.435.164.59.34.126.144.223.503.223.503l.107.338s.04.114.098.157c.078.057.257.05.257.05h4.257s3.034-.095 4.546.003c.34.022 1.017.132 1.017.132s.631.195.885.396c.303.24.496.596.703.923.244.386.428.808.629 1.219.156.317.333.627.447.962.14.407.216.835.288 1.26.058.343.115 1.038.115 1.038l.036 2.666s.063 2.471-.013 3.704c-.032.536-.12 1.07-.226 1.596a6 6 0 0 1-.222.842c-.07.2-.124.418-.261.58-.11.131-.272.215-.428.288a1.6 1.6 0 0 1-.533.159 2.6 2.6 0 0 1-1.019-.124 1.3 1.3 0 0 1-.421-.235 1.1 1.1 0 0 1-.305-.367c-.117-.25-.12-.54-.148-.816-.028-.287-.015-.865-.015-.865l-6.152-.07-6.151-.072v.684c0 .228.006.463-.05.684-.047.187-.064.372-.166.536a1.2 1.2 0 0 1-.315.338c-.125.084-.292.08-.44.103q-.304.043-.61.046a3 3 0 0 1-.533-.025 1.8 1.8 0 0 1-.46-.124.7.7 0 0 1-.226-.148m11-4.862c.02-.127.03-.367-.098-.372-.546-.023-1.257-.016-1.885-.025-.574-.008-1.156-.025-1.72-.025-.12 0-.277.254-.273.422.004.16.149.387.281.388.641.005 1.251.012 1.877.008.526-.003 1.061.016 1.58-.024.146-.012.216-.227.239-.372zm6.876-1.695c-.003-.312.013-.655-.146-.923-.081-.138-.22-.28-.38-.293-.148-.012-.305.092-.396.21-.142.187-.124.455-.155.687-.025.19-.029.384-.026.575.003.212-.021.433.046.634.042.126.104.262.215.335.118.078.285.119.418.071.139-.05.229-.199.29-.332.135-.296.137-.64.134-.964m-16.797-.18c.002-.296.013-.602-.074-.887-.035-.113-.204-.146-.323-.149a.46.46 0 0 0-.351.145c-.133.158-.114.38-.132.605-.02.27-.014.475-.007.767.003.129 0 .27.049.392a.44.44 0 0 0 .16.223c.1.061.233.074.347.051.09-.018.216-.053.236-.143.075-.339.093-.667.095-1.003m-1.699-2.21c.027-.164-.022-.178-.12-.227-.166-.082-.42-.054-.679-.054s-.673-.016-.823.008c-.097.016-.158.118-.176.207-.023.11.015.292.097.322.125.047.496.053.739.054.375.004.666.014.808-.065.107-.06.14-.164.154-.245zm-6.37-1.34s.029-.518-.083-.711c-.044-.076-.081-.09-.147-.088a.22.22 0 0 0-.189.123c-.093.21-.11.677-.11.677s-.024.466.046.642a.25.25 0 0 0 .218.152c.089-.001.204-.071.218-.158.035-.234.046-.636.046-.636m23.765-.202s.038-.456.019-.683c-.023-.264-.097-.521-.158-.78-.065-.278-.125-.56-.223-.828-.099-.267-.2-.54-.365-.77-.13-.182-.311-.322-.481-.466-.157-.134-.307-.288-.495-.371-.216-.095-.46-.11-.694-.132-1.693-.16-5.103 0-5.103 0s-2.402-.019-4.33-.012c-.485.002-.939.005-1.318.012a1.8 1.8 0 0 0-.654.143c-.219.09-.45.242-.622.391-.256.223-.35.542-.493.841-.142.3-.262.59-.36.907-.11.356-.124.735-.176 1.103-.038.27-.1.81-.1.81s.003.148.064.22c.07.083.186.077.186.077l6.784.077 7.11.08.662-.01s.397.003.615-.074c.135-.048.111-.3.132-.535zm-25.128-2.76c-.051-.052-2.123-.118-2.223-.048-.123.094-.152.295-.011.394.105.024 2.056.106 2.169.079.154-.037.118-.121.122-.205-.002-.077 0-.164-.057-.22m9.331-.448c.097-.22.318-.656.318-.656.056-.107.264-.32.353-.403.124-.116.217-.182.372-.252.115-.052.23-.107.348-.152.131-.051.263-.104.4-.135.122-.028.248-.04.373-.047.108-.007.216 0 .324 0h.655c.088 0 .169.031.23-.03.052-.051.035-.196.035-.196s.01-.194-.076-.302c-.085-.11-.28-.239-.389-.321s-.346-.12-.517-.157-.528-.024-.528-.024h-3.649s-2.06.006-3.51-.006a4 4 0 0 0-.742.064c-.21.043-.298.1-.476.195a1.3 1.3 0 0 0-.435.336c-.206.25-.324.424-.449.722a6.4 6.4 0 0 0-.341 1.054c-.044.219-.058.661-.058.661s.003.598.124.637c.147.049.358.043.687.049 1.09.021 2.802-.007 2.802-.007l3.228-.035s.28-.01.386-.087c.283-.207.35-.553.535-.908zm-15.166-.87c-.048-.068-.12-.14-.211-.137-.09.003-.18.083-.207.183-.047.325-.057.816.008.916.03.047.104.127.192.13.083.005.21-.063.227-.15.026-.313.048-.594-.001-.904 0 0-.001-.027-.008-.037m9.314-2.483s-.009-.099-.02-.147a5 5 0 0 0-.08-.245l-.163-.336s-.115-.22-.18-.325c-.051-.087-.098-.179-.165-.253a1.3 1.3 0 0 0-.274-.218 1.2 1.2 0 0 0-.312-.153c-.082-.022-.256-.018-.256-.018l-3.24-.004-2.665.073s-.668.002-.917.128c-.187.094-.246.242-.35.379-.143.189-.264.39-.373.607a3.2 3.2 0 0 0-.237.716c-.057.24-.016.739-.016.739l3.597-.008s2.45.011 3.667-.008c.136-.002.244-.122.357-.2.072-.049.132-.114.202-.166.086-.064.174-.127.267-.18q.16-.09.33-.157.19-.075.389-.128c.144-.04.263-.045.439-.096" style="fill:#000;stroke-width:.264583" transform="translate(-47.364 -40.317)"/>
  <path d="M49.925 113.666a8 8 0 0 1-1.134-.713c-.356-.26-.62-.705-.818-1.098s-.388-.764-.49-1.192c-.09-.382-.105-.867-.105-1.26 0-.392.135-.795.272-1.166.059-.158.203-.44.203-.44l1.354-2.361c12.92-21.095 24.966-41.806 36.08-60.958l1.506-2.594s.469-.503.76-.679c.28-.169.607-.276.925-.349.313-.07.75-.085.96-.06.209.023.167-.029.628.07 0 0 .69.09 1.009.217.354.142.687.348.975.597.171.148.29.347.434.522.101.123.301.372.301.372 13.222 22.906 23.951 41.536 35.707 61.913l1.129 1.939s.896 1.228 1.128 1.939c.115.351.264.736.302 1.103.038.368-.004.74-.073 1.104-.082.438-.244.91-.449 1.306-.204.396-.478.739-.776 1.071-.24.268-.576.48-.875.68-.3.199-.602.33-.946.433-.37.112-.751.082-1.138.082H51.818c-.222 0-.506-.017-.725-.058-.431-.082-.775-.222-1.168-.42m68.253-8.976c.03-.094-.199-.393-.199-.393l-6.785-11.811c-8.279-14.348-14.215-24.834-21.718-37.717 0 0-.07-.195-.246-.201-.16-.005-.272.17-.272.17-10.794 18.79-18.713 32.553-28.58 49.749 0 0-.006.157.027.225.075.15.191.172.191.172h57.383s.152-.044.2-.194" style="fill:#e40613;fill-opacity:1;stroke-width:.264583" transform="translate(-47.364 -40.317)"/>
</svg>
