<svg xmlns="http://www.w3.org/2000/svg" xml:space="preserve" viewBox="0 0 95.797 83.705" role="img" aria-labelledby="title">
  <title id="title">Verkehrszeichen A33 - Traffic lights (about 150m after the sign)</title>
  <path fill="#ed1c24" d="M52.198 2.272C51.319.877 49.759 0 47.96 0c-1.719 0-2.479.838-3.397 2.113L.95 75.294c-1.519 1.993-1.16 5.142.68 6.977 1.04 1.035 2.238 1.434 3.598 1.434h86.306c.999 0 2.039-.678 2.8-1.434 1.479-1.516 1.838-3.708 1.078-5.582z"/>
  <path fill="none" d="M52.198 2.272C51.319.877 49.759 0 47.961 0c-1.72 0-2.479.837-3.398 2.113L.95 75.294c-1.519 1.993-1.16 5.142.68 6.977 1.04 1.035 2.238 1.434 3.598 1.434h86.306c.999 0 2.039-.678 2.8-1.434 1.479-1.516 1.838-3.708 1.078-5.582z"/>
  <path fill="#fff" fill-rule="evenodd" d="M81.139 72.903 47.92 15.465 14.702 72.903z" clip-rule="evenodd"/>
  <path fill="none" d="M81.139 72.903 47.92 15.465 14.702 72.903z"/>
  <path fill="#ed1c24" fill-rule="evenodd" d="M47.96 39.62c-5.276 0-8.555-5.66-5.917-10.204 2.638-4.503 9.195-4.503 11.793 0 2.639 4.544-.638 10.204-5.876 10.204" clip-rule="evenodd"/>
  <path fill="none" d="M47.961 39.62c-5.277 0-8.556-5.66-5.917-10.204 2.638-4.503 9.195-4.503 11.793 0 2.638 4.544-.639 10.204-5.876 10.204"/>
  <path fill="#ffcb04" fill-rule="evenodd" d="M47.96 55.085c-5.276 0-8.555-5.659-5.917-10.203 2.638-4.504 9.195-4.504 11.793 0 2.639 4.544-.638 10.203-5.876 10.203" clip-rule="evenodd"/>
  <path fill="none" d="M47.961 55.085c-5.277 0-8.556-5.659-5.917-10.203 2.638-4.504 9.195-4.504 11.793 0 2.638 4.544-.639 10.203-5.876 10.203"/>
  <path fill="#00a650" fill-rule="evenodd" d="M47.96 70.431c-5.276 0-8.555-5.659-5.917-10.203 2.638-4.504 9.195-4.504 11.793 0 2.639 4.544-.638 10.203-5.876 10.203" clip-rule="evenodd"/>
  <path fill="none" d="M47.961 70.431c-5.277 0-8.556-5.659-5.917-10.203 2.638-4.504 9.195-4.504 11.793 0 2.638 4.544-.639 10.203-5.876 10.203"/>
</svg>
