<svg xmlns="http://www.w3.org/2000/svg" xml:space="preserve" viewBox="0 0 45.322 68.137" role="img" aria-labelledby="title">
  <title id="title">Verkehrszeichen B21 - Narrow passage, priority over traffic from opposite side</title>
  <path fill="#0071b3" d="M5.313 0h34.755c2.896 0 5.254 2.363 5.254 5.287V62.91c0 2.903-2.357 5.227-5.254 5.227H5.272A5.27 5.27 0 0 1 0 62.87L.02 5.287A5.29 5.29 0 0 1 5.313 0"/>
  <path fill="none" d="M5.313 0h34.755c2.896 0 5.254 2.363 5.254 5.287V62.91c0 2.903-2.357 5.227-5.254 5.227H5.272A5.27 5.27 0 0 1 0 62.87L.02 5.287A5.29 5.29 0 0 1 5.313 0"/>
  <path fill="#00aeef" fill-rule="evenodd" d="M38.61 9.994c-2.637 0-4.273-2.845-2.955-5.128 1.317-2.263 4.594-2.263 5.891 0 1.318 2.283-.319 5.128-2.936 5.128" clip-rule="evenodd"/>
  <path fill="none" d="M38.61 9.994c-2.637 0-4.273-2.845-2.955-5.128 1.317-2.263 4.594-2.263 5.891 0 1.318 2.283-.319 5.128-2.936 5.128"/>
  <path fill="#fff" d="M43.624 62.97c0 1.903-1.538 3.445-3.396 3.445H5.113c-1.877 0-3.396-1.542-3.396-3.445V5.146c0-1.882 1.518-3.444 3.396-3.444h35.115c1.857 0 3.396 1.542 3.396 3.465z"/>
  <path fill="none" d="M43.624 62.97c0 1.903-1.538 3.445-3.396 3.445H5.113c-1.877 0-3.396-1.542-3.396-3.445V5.146c0-1.882 1.518-3.444 3.396-3.444h35.115c1.857 0 3.396 1.542 3.396 3.465z"/>
  <path fill="#0071b3" d="M41.965 62.99c0 .961-.799 1.723-1.737 1.723H5.113a1.705 1.705 0 0 1-1.698-1.723V5.127c0-.941.759-1.723 1.698-1.723h35.155c.938 0 1.697.761 1.697 1.723z"/>
  <path fill="none" d="M41.965 62.99c0 .961-.799 1.723-1.737 1.723H5.113a1.705 1.705 0 0 1-1.698-1.723V5.127c0-.941.759-1.723 1.698-1.723h35.155c.938 0 1.697.761 1.697 1.723z"/>
  <path fill="#fff" fill-rule="evenodd" d="M33.756 53.837V25.656h4.535L31.499 14.14l-6.791 11.516h4.514l.02 28.181z" clip-rule="evenodd"/>
  <path fill="none" stroke="#fff" stroke-linecap="round" stroke-linejoin="round" stroke-miterlimit="3.863" stroke-width=".04" d="M33.756 53.837V25.656h4.535L31.499 14.14l-6.791 11.516h4.514l.02 28.181z"/>
  <path fill="#ed1c24" fill-rule="evenodd" d="M16.499 14v28.18h4.534l-6.792 11.516L7.45 42.18h4.514V13.96z" clip-rule="evenodd"/>
  <path fill="none" stroke="#ed1c24" stroke-linecap="round" stroke-linejoin="round" stroke-miterlimit="3.863" stroke-width=".04" d="M16.499 14v28.18h4.534l-6.792 11.516L7.45 42.18h4.514V13.96z"/>
</svg>
