<svg xmlns="http://www.w3.org/2000/svg" xml:space="preserve" viewBox="0 0 100.274 100.274" role="img" aria-labelledby="title">
  <title id="title">Verkehrszeichen B13 - B11 sign ahead at given distance</title>
  <path fill="#fff" d="M44.881 2.773c2.898-2.898 7.614-2.898 10.512 0l42.108 42.108c2.897 2.898 2.897 7.614 0 10.512L55.393 97.501c-2.897 2.897-7.614 2.897-10.512 0L2.773 55.393c-2.898-2.898-2.898-7.614 0-10.512z"/>
  <path fill="none" stroke="#000" stroke-miterlimit="3.863" stroke-width="1.199" d="M44.881 2.773c2.898-2.898 7.614-2.898 10.512 0l42.108 42.108c2.897 2.898 2.897 7.614 0 10.512L55.393 97.501c-2.897 2.897-7.614 2.897-10.512 0L2.773 55.393c-2.898-2.898-2.898-7.614 0-10.512z"/>
  <path fill="#ffcb04" fill-rule="evenodd" d="m13.885 50.157 36.252-36.252L86.39 50.157 50.137 86.39z" clip-rule="evenodd"/>
  <path fill="none" stroke="#120c0e" stroke-miterlimit="3.863" stroke-width="1.998" d="m13.885 50.157 36.252-36.252L86.39 50.157 50.137 86.39z"/>
  <path fill="#120c0e" d="m82.593 29.712-52.88 52.88-12.03-12.03 52.88-52.88z"/>
  <path fill="none" stroke="#120c0e" stroke-miterlimit="3.863" stroke-width=".399996" d="m82.593 29.712-52.88 52.88-12.03-12.03 52.88-52.88z"/>
</svg>
