<svg xmlns="http://www.w3.org/2000/svg" xml:space="preserve" viewBox="0 0 95.816 83.73" role="img" aria-labelledby="title">
  <title id="title">Verkehrszeichen B23 - Cyclists can cross the traffic lights to go straight on when the traffic lights are red or amber, if they give way. In rare cases, [https://wiki.openstreetmap.org/wiki/File:Traffic_light_with_B22_and_B23.jpeg B22 and B23 can occur together]</title>
  <defs>
    <clipPath id="a" clipPathUnits="userSpaceOnUse">
      <path d="M2562 672.668h3v-108h-3z"/>
    </clipPath>
  </defs>
  <path d="M-242.617 319.617c.704-1.117 1.951-1.818 3.39-1.818 1.376 0 1.985.67 2.72 1.69l34.897 58.557c1.216 1.594.927 4.114-.544 5.582q-1.248 1.243-2.879 1.148l-69.122-.032a3.98 3.98 0 0 1-2.175-1.116 4.14 4.14 0 0 1-.864-4.466z" style="fill:#ed1c24" transform="matrix(1.25 0 0 -1.25 346.88 480.978)"/>
  <path d="M-242.617 319.617c.704-1.117 1.951-1.818 3.39-1.818 1.376 0 1.985.67 2.72 1.69l34.897 58.557c1.216 1.594.927 4.114-.544 5.582q-1.248 1.244-2.879 1.148l-69.122-.032a3.98 3.98 0 0 1-2.175-1.116 4.14 4.14 0 0 1-.864-4.466z" style="fill:none;stroke:#ed1c24;stroke-width:0;stroke-miterlimit:3.86299992" transform="matrix(1.25 0 0 -1.25 346.88 480.978)"/>
  <path d="M81.192 10.892H14.66l33.266 57.369z" clip-rule="evenodd" style="fill:#fff;fill-rule:evenodd"/>
  <path d="M81.192 10.892H14.66l33.266 57.369z" style="fill:none;stroke:#ed1c24;stroke-width:0;stroke-miterlimit:3.86299992"/>
  <path d="M-231.264 357.698c-1.343.123-2.52.695-3.466 1.684-.998 1.044-1.537 2.276-1.609 3.68-.034.66.113 1.246.514 2.064.58 1.178 1.438 2.19 2.295 2.705.106.064.314.156.462.205.522.172.626.262.62.533-.005.266-.336.823-.74 1.244-.129.135-.161.152-.289.152-.17 0-.315-.077-.958-.505-2.04-1.362-6.412-4.732-6.605-5.092-.056-.105-.029-.43.05-.583.03-.062.127-.21.213-.327.318-.435.414-.738.386-1.222-.032-.557-.207-.907-.634-1.266-.518-.436-.65-.456-1.375-.209-.273.093-.509.153-.599.153-.245 0-.415-.142-.831-.693-.823-1.092-1.747-1.784-2.93-2.196-.609-.213-.95-.265-1.73-.265-.732 0-.93.026-1.499.197-1.925.58-3.452 2.401-3.72 4.437-.304 2.31 1.013 4.629 3.157 5.559.65.281 1.198.392 2.062.416.768.02 1.33-.05 1.89-.237.702-.235 1.193-.549 1.992-1.273.523-.474.928-.768 1.037-.752.057.008.068.03.062.131-.022.39-.545 1.79-1.274 3.413-.396.883-.455.999-.674 1.33-.243.368-.396.48-.778.57-.35.082-.52.16-.618.286-.164.209-.006.371.435.444.392.066 3.633.066 3.99 0 .303-.055.422-.113.465-.226.053-.14-.02-.27-.197-.348-.123-.054-.286-.074-.895-.11-.41-.024-.801-.06-.872-.08-.117-.034-.126-.045-.108-.132.106-.533 2.276-5.45 2.404-5.45.153 0 .833.394 1.842 1.067.916.61 1.725 1.191 4.07 2.92l1.838 1.354 1.85.022c2.384.029 2.557.05 2.815.343.15.17.325.57.374.855a.86.86 0 0 1-.021.427c-.073.296-.288.735-.425.871-.25.247-.441.285-1.86.366-1.212.07-1.531.1-1.921.184-.231.05-.334.111-.294.176.036.059.461.131 1.004.17.698.052 2.41.023 2.705-.045.343-.078.558-.208.783-.472.51-.598.723-1.247.6-1.83a1.88 1.88 0 0 0-.561-1.008 2.3 2.3 0 0 0-.998-.607c-.333-.111-.625-.153-1.386-.197-.72-.043-.907-.12-.906-.381.001-.18.082-.347.322-.664.526-.696.975-.973 1.874-1.156.726-.148 1.171-.326 1.785-.71 1.755-1.102 2.625-2.729 2.55-4.768a5.2 5.2 0 0 0-.533-2.185c-.296-.612-.677-1.082-1.25-1.546-1.202-.972-2.724-1.53-3.89-1.423" style="fill:#ffed45;fill-opacity:1;fill-rule:evenodd;stroke:#000;stroke-width:.31999999;stroke-linecap:round;stroke-linejoin:round;stroke-miterlimit:4;stroke-opacity:1;stroke-dasharray:none;stroke-dashoffset:0" transform="matrix(1.25 0 0 -1.25 346.88 480.978)"/>
  <path d="m-241.07 349.144-2.18.066 4.03 2.378 4.228-2.444h-2.18l-.099-8.225h-3.865l.067 8.225z" style="fill:#ffed45;fill-opacity:1;stroke:#000;stroke-width:.31999999;stroke-linecap:butt;stroke-linejoin:miter;stroke-miterlimit:4;stroke-opacity:1;stroke-dasharray:none" transform="matrix(1.25 0 0 -1.25 346.88 480.978)"/>
</svg>
