<svg xmlns="http://www.w3.org/2000/svg" xml:space="preserve" viewBox="0 0 95.816 83.729" role="img" aria-labelledby="title">
  <title id="title">Verkehrszeichen B1+M1 - Give way, only applies to cyclists</title>
  <path fill="#ed1c24" d="M43.608 81.457c.88 1.396 2.439 2.272 4.238 2.272 1.719 0 2.48-.838 3.399-2.112L94.867 8.42c1.52-1.993 1.158-5.143-.68-6.977Q92.627-.111 90.588.008L4.185.048a4.97 4.97 0 0 0-2.719 1.395C-.013 2.958-.373 5.15.386 7.025z"/>
  <path fill="none" d="M43.608 81.457c.88 1.396 2.439 2.272 4.238 2.272 1.719 0 2.48-.838 3.399-2.112L94.867 8.42c1.52-1.993 1.158-5.143-.68-6.977Q92.627-.112 90.588.008L4.185.048a4.97 4.97 0 0 0-2.719 1.395C-.013 2.958-.373 5.15.386 7.025z"/>
  <path fill="#fff" fill-rule="evenodd" d="m14.66 10.892 33.266 57.369 33.266-57.369z" clip-rule="evenodd"/>
  <path fill="none" d="m14.66 10.892 33.266 57.369 33.266-57.369z"/>
</svg>
