<svg xmlns="http://www.w3.org/2000/svg" xml:space="preserve" viewBox="0 0 79.403 79.271" role="img" aria-labelledby="title">
  <title id="title">Verkehrszeichen C17 - No entry for drivers of hand-carts</title>
  <path fill="#ed1c24" fill-rule="evenodd" d="M39.721 0c30.504 0 49.576 33.023 34.303 59.45-15.232 26.427-53.374 26.427-68.646 0S9.176 0 39.721 0" clip-rule="evenodd"/>
  <path fill="none" d="M39.721 0c30.504 0 49.576 33.023 34.303 59.45-15.232 26.427-53.374 26.427-68.646 0S9.176 0 39.721 0"/>
  <path fill="#fff" fill-rule="evenodd" d="M39.681 68.286c-22.069 0-35.862-23.868-24.828-42.979 11.035-19.11 38.662-19.15 49.696 0 11.034 19.111-2.759 42.979-24.868 42.979" clip-rule="evenodd"/>
  <path fill="none" d="M39.681 68.286c-22.069 0-35.862-23.868-24.828-42.979 11.035-19.11 38.662-19.15 49.696 0 11.034 19.111-2.759 42.979-24.868 42.979"/>
  <path d="m35.683 41.539.96-.719c.239.08.559.199.799.119.36-.039 1.36-.159 2.039-.399l13.954-4.918c-.08.4.799.68.959.32-.039.2.24.28.16.479.08.08-.08-.04 0 0l1.76-.36c-.041.48.16 1.559.6 1.999.279.28.158.56.158.919-.078.04-.078.12-.118.16l-1.72 3.639c-.2.679-.16 1.479 0 2.158l.92 3.519c.16.12.08.679-.2.64-.44.08-.88 0-1.239.359-.16.28-.4.48-.199.76.838 0 1.758-.119 2.358-.52l.08.359.999-.52v.04l-.08-.56-.16-.119c-.12-.12.52-.12.48-.28-.36-1.44-.961-4.318-.881-4.758.16-.959.84-1.319 1.24-2.079l2.239 7.876q-.66.18-1.2.6c.08.12.04.24.12.36.479.08 1-.04 1.399-.16l1.039-.32.041.2.76-.479-.28-.44.399-.239-2.358-7.597c.24-3.958-.44-3.158-.2-4.118.4-1.519-.08-1.839-.439-3.278-.961-3.678-2.52-3.039-2.76-3.558-.279-.64-.318-.2-.519-.32-.04-.64-.2-1.24-.601-1.679-.399-.08-.84-.04-1.238 0-.28.159-.6.439-.92.519-.12.24-.16.52-.08.76.08.08-.12-.04 0 0 .04.44.48-.2.32 1.599.359-.24.64.2.68.52.158-.2.359-.28.599-.32.08.24.08.44.08.68.08.08.2.16.28.24-.6.839-.12 1.599.08 2.358.04.16-.04-.16 0 0-1.039.28-1.6-.359-2.239.12L40.481 39.7c-.2.08-1.919.76-2.279.72s-.24-.08-.4-.12l.28-.2-.24-.72-1.039.32-.88-2.838c-.2-.6-.76-.92-1.559-.72l-2.479.6c-.24-.84-.84-.92-1.479-.76L13.214 40.82l1 4.517 4.038-.239c.2 2.959 2.718 5.357 5.797 5.357 1.639 0 3.198-.72 4.238-1.919.559.2 1.199.28 1.839.28 3.158 0 5.757-2.6 5.757-5.758a6.3 6.3 0 0 0-.2-1.519"/>
  <path fill="none" stroke="#000" stroke-miterlimit="3.863" stroke-width=".2" d="m35.683 41.539.96-.719c.239.08.559.199.799.119.36-.039 1.36-.159 2.039-.399l13.954-4.918c-.08.4.799.68.959.32-.039.2.24.28.16.479.08.08-.08-.04 0 0l1.76-.36c-.041.48.16 1.559.6 1.999.279.28.158.56.158.919-.078.04-.078.12-.118.16l-1.72 3.639c-.2.679-.16 1.479 0 2.158l.92 3.519c.16.12.08.679-.2.64-.44.08-.88 0-1.239.359-.16.28-.4.48-.199.76.838 0 1.758-.119 2.358-.52l.08.359.999-.52v.04l-.08-.56-.16-.119c-.12-.12.52-.12.48-.28-.36-1.44-.961-4.318-.881-4.758.16-.959.84-1.319 1.24-2.079l2.239 7.876q-.66.18-1.2.6c.08.12.04.24.12.36.479.08 1-.04 1.399-.16l1.039-.32.041.2.76-.479-.28-.44.399-.239-2.358-7.597c.24-3.958-.44-3.158-.2-4.118.4-1.519-.08-1.839-.439-3.278-.961-3.678-2.52-3.039-2.76-3.558-.279-.64-.318-.2-.519-.32-.04-.64-.2-1.24-.601-1.679-.399-.08-.84-.04-1.238 0-.28.159-.6.439-.92.519-.12.24-.16.52-.08.76.08.08-.12-.04 0 0 .04.44.48-.2.32 1.599.359-.24.64.2.68.52.158-.2.359-.28.599-.32.08.24.08.44.08.68.08.08.2.16.28.24-.6.839-.12 1.599.08 2.358.04.16-.04-.16 0 0-1.039.28-1.6-.359-2.239.12L40.481 39.7c-.2.08-1.919.76-2.279.72s-.24-.08-.4-.12l.28-.2-.24-.72-1.039.32-.88-2.838c-.2-.6-.76-.92-1.559-.72l-2.479.6c-.24-.84-.84-.92-1.479-.76L13.214 40.82l1 4.517 4.038-.239c.2 2.959 2.718 5.357 5.797 5.357 1.639 0 3.198-.72 4.238-1.919.559.2 1.199.28 1.839.28 3.158 0 5.757-2.6 5.757-5.758a6.3 6.3 0 0 0-.2-1.519z"/>
  <path fill="#fff" d="M24.609 49.096c-.2.039-.4.039-.6.039-.6 0-1.12-.119-1.599-.279l.959-2.318c.28.08.56.12.8.12z"/>
  <path fill="none" d="M24.609 49.096c-.2.039-.4.039-.6.039-.6 0-1.12-.119-1.599-.279l.959-2.318c.28.08.56.12.8.12z"/>
  <path fill="#fff" d="m32.005 43.338 2.359-.559c-.04-.4-.12-.8-.24-1.16l-1.359.32-.8.48c.04.2.08.36.08.559v.16z"/>
  <path fill="none" stroke="#000" stroke-miterlimit="3.863" stroke-width=".2" d="m32.005 43.338 2.359-.559c-.04-.4-.12-.8-.24-1.16l-1.359.32-.8.48c.04.2.08.36.08.559v.16z"/>
  <path fill="#fff" d="M33.804 45.457c.44-.679.56-1.359.56-2.238l-2.359.479c-.08.16-.12.319-.24.479z"/>
  <path fill="none" stroke="#000" stroke-miterlimit="3.863" stroke-width=".2" d="M33.804 45.457c.44-.679.56-1.359.56-2.238l-2.359.479c-.08.16-.12.319-.24.479z"/>
  <path fill="#fff" d="m32.245 46.896-1.16-2.198c.16-.08.28-.2.4-.32l1.959 1.439c-.32.4-.719.8-1.199 1.079"/>
  <path fill="none" stroke="#000" stroke-miterlimit="3.863" stroke-width=".2" d="m32.245 46.896-1.16-2.198c.16-.08.28-.2.4-.32l1.959 1.439c-.32.4-.719.8-1.199 1.079z"/>
  <path fill="#fff" d="M30.246 45.018c.24 0 .32 0 .559-.08l1.12 2.119c-.52.239-1.08.359-1.679.399z"/>
  <path fill="none" stroke="#000" stroke-miterlimit="3.863" stroke-width=".2" d="M30.246 45.018c.24 0 .32 0 .559-.08l1.12 2.119c-.52.239-1.08.359-1.679.399z"/>
  <path fill="#fff" d="M29.806 45.098v2.358c-.24-.04-.4-.08-.68-.12.4-.639.6-1.44.68-2.238"/>
  <path fill="none" stroke="#000" stroke-miterlimit="3.863" stroke-width=".2" d="M29.806 45.098v2.358c-.24-.04-.4-.08-.68-.12.4-.639.6-1.44.68-2.238z"/>
  <path fill="#fff" d="M27.247 46.377c.16.2.36.32.56.48.2-.4.36-.801.44-1.2l-1.08.64z"/>
  <path fill="none" stroke="#000" stroke-miterlimit="3.863" stroke-width=".2" d="M27.247 46.377c.16.2.36.32.56.48.2-.4.36-.801.44-1.2l-1.08.64z"/>
  <path fill="#fff" d="M25.928 44.298c.04.16.08.32.08.44.08.24.16.398.28.599l2.119-1.159a1.35 1.35 0 0 1-.24-.6z"/>
  <path fill="none" stroke="#000" stroke-miterlimit="3.863" stroke-width=".2" d="M25.928 44.298c.04.16.08.32.08.44.08.24.16.398.28.599l2.119-1.159a1.35 1.35 0 0 1-.24-.6z"/>
  <path fill="#fff" d="m20.171 46.777 1.959-1.48a1.6 1.6 0 0 1-.12-.599l-2.359.28c0 .639.24 1.239.52 1.799"/>
  <path fill="none" stroke="#000" stroke-miterlimit="3.863" stroke-width=".2" d="m20.171 46.777 1.959-1.48a1.6 1.6 0 0 1-.12-.599l-2.359.28c0 .639.24 1.239.52 1.799z"/>
  <path fill="#fff" d="M22.889 46.217a2.4 2.4 0 0 1-.559-.52l-1.919 1.559c.439.521.879.92 1.439 1.24z"/>
  <path fill="none" stroke="#000" stroke-miterlimit="3.863" stroke-width=".2" d="M22.889 46.217a2.4 2.4 0 0 1-.559-.52l-1.919 1.559c.439.521.879.92 1.439 1.24z"/>
  <path fill="#fff" d="M25.208 46.137c-.2.16-.28.32-.519.44l.519 2.278c.64-.159 1.24-.52 1.719-.959-.719-.44-1.279-1.039-1.719-1.759"/>
  <path fill="none" stroke="#000" stroke-miterlimit="3.863" stroke-width=".2" d="M25.208 46.137c-.2.16-.28.32-.519.44l.519 2.278c.64-.159 1.24-.52 1.719-.959-.719-.44-1.279-1.039-1.719-1.759z"/>
</svg>
