<svg xmlns="http://www.w3.org/2000/svg" xml:space="preserve" viewBox="0 0 79.92 79.82" role="img" aria-labelledby="title">
  <title id="title">Verkehrszeichen C41 - End of overtaking prohibition from sign C39</title>
  <path fill="#fff" d="M39.959 79.692c-30.611 0-49.751-33.136-34.446-59.664s53.586-26.528 68.891 0-3.835 59.664-34.445 59.664"/>
  <path fill="#ccc" d="M30.295 58.618h3.772v-4.83h1.902l-.031-29.989c0-1.06-1.029-1.964-2.214-1.964H9.94c-1.216 0-2.213.904-2.213 1.839v30.021l1.683.031v4.894h3.928l.031-4.925h16.895z"/>
  <path fill="none" stroke="#ccc" stroke-miterlimit="3.863" stroke-width=".156" d="M30.295 58.618h3.772v-4.83h1.902l-.031-29.989c0-1.06-1.029-1.964-2.214-1.964H9.94c-1.216 0-2.213.904-2.213 1.839v30.021l1.683.031v4.894h3.928l.031-4.925h16.895z"/>
  <path fill="none" d="M6.011 58.9H40.02m.001.249H74.03"/>
  <path fill="#ccc" d="M9.908 58.464h34.29V54.35h-.779c-1.809-2.775-1.402-5.519-1.402-9.603 0-.873.623-.873.779-1.153.188-.188.375-.093.467-.188l3.742-9.445h21.07l4.396 9.384c.188.062.313 0 .498.125.188.247.748.247.748 1.184 0 4.021.313 6.577-1.59 9.352h-1.152v4.459h2.93v.748H6.011l-.03-.748h3.927z"/>
  <path fill="none" stroke="#ccc" stroke-miterlimit="3.863" stroke-width=".156" d="M9.908 58.464h34.29V54.35h-.779c-1.809-2.775-1.402-5.519-1.402-9.603 0-.873.623-.873.779-1.153.188-.188.375-.093.467-.188l3.742-9.445h21.07l4.396 9.384c.188.062.313 0 .498.125.188.247.748.247.748 1.184 0 4.021.313 6.577-1.59 9.352h-1.152v4.459h2.93v.748H6.011l-.03-.748h3.927z"/>
  <path fill="#fff" d="M71.599 43.096c-4.209-.563-9.602-.406-13.436-.53-3.896.124-9.259-.032-13.498.53l3.18-8.168h19.606z"/>
  <path fill="none" stroke="#ccc" stroke-miterlimit="3.863" stroke-width=".156" d="M71.599 43.096c-4.209-.563-9.602-.406-13.436-.53-3.896.124-9.259-.032-13.498.53l3.18-8.168h19.606z"/>
  <path fill="#fff" d="M67.548 58.557H47.659V54.38h19.889z"/>
  <path fill="none" stroke="#ccc" stroke-miterlimit="3.863" stroke-width=".156" d="M67.548 58.557H47.659V54.38h19.889z"/>
  <path fill="#120c0e" d="M61.312 6.312c2.432 1.434 7.949 5.393 10.256 9.508L17.389 72.865c-4.987-4.177-7.17-6.265-9.32-9.009z"/>
  <path fill="none" d="M61.312 6.312c2.432 1.434 7.949 5.393 10.256 9.508L17.389 72.865c-4.987-4.177-7.17-6.265-9.32-9.009z"/>
</svg>
