<svg xmlns="http://www.w3.org/2000/svg" xml:space="preserve" viewBox="0 0 79.404 79.309" role="img" aria-labelledby="title">
  <title id="title">Verkehrszeichen C49 - End of prohibition imposed by sign C48</title>
  <path fill="none" d="M15.953 71.431A39.53 39.53 0 0 1 7.92 47.518c0-21.893 17.76-39.653 39.654-39.653a39.43 39.43 0 0 1 23.897 8.017m-8.483-7.955a39.55 39.55 0 0 1 7.924 23.789c0 21.878-17.76 39.638-39.638 39.638-8.484 0-16.347-2.657-22.795-7.195"/>
  <path fill="#fff" fill-rule="evenodd" d="M39.695 79.309c-30.517 0-49.582-33.05-34.324-59.48s53.406-26.446 68.664 0c15.257 26.43-3.823 59.48-34.34 59.48" clip-rule="evenodd"/>
  <path fill="none" d="M39.695 79.309c-30.517 0-49.582-33.05-34.324-59.48s53.406-26.446 68.664 0c15.257 26.43-3.823 59.48-34.34 59.48"/>
  <path fill="#fff" d="M46.299 53.996v-8.545h1.118v4.336l1.353-2.006h1.289l-1.817 2.952 1.925 3.263h-1.32l-1.351-2.158v2.158z"/>
  <path fill="none" d="M46.299 53.996v-8.545h1.118v4.336l1.353-2.006h1.289l-1.817 2.952 1.925 3.263h-1.32l-1.351-2.158v2.158z"/>
  <path fill="#fff" d="M56.477 53.889v-4.506c0-.404-.342-.84-.762-.84-.482 0-.839.436-.839.84v4.613h-1.025v-4.582a.796.796 0 0 0-.793-.793c-.466 0-.822.357-.822.793v4.582h-1.119v-6.261h1.119v.248c.264-.248.651-.45 1.086-.45.498 0 1.104.279 1.399.809.233-.42.698-.731 1.274-.731.886 0 1.537.731 1.537 1.585v4.693z"/>
  <path fill="none" d="M56.477 53.889v-4.506c0-.404-.342-.84-.762-.84-.482 0-.839.436-.839.84v4.613h-1.025v-4.582a.796.796 0 0 0-.793-.793c-.466 0-.822.357-.822.793v4.582h-1.119v-6.261h1.119v.248c.264-.248.651-.45 1.086-.45.498 0 1.104.279 1.399.809.233-.42.698-.731 1.274-.731.886 0 1.537.731 1.537 1.585v4.693z"/>
  <path fill="#b3b3b3" fill-rule="evenodd" d="M23.194 20.684c-.062-2.813-.886-4.335-3.823-4.335-3.838 0-3.713 3.216-3.713 6.821 0 3.589-.125 6.805 3.713 6.805 2.937 0 3.761-1.507 3.823-4.319h-2.253c-.156 1.041.015 2.564-1.57 2.564-1.351 0-1.46-1.508-1.46-2.564v-4.972c0-1.057.109-2.58 1.46-2.58 1.585 0 1.414 1.523 1.57 2.58z" clip-rule="evenodd"/>
  <path fill="none" d="M23.194 20.684c-.062-2.813-.886-4.335-3.823-4.335-3.838 0-3.713 3.216-3.713 6.821 0 3.589-.125 6.805 3.713 6.805 2.937 0 3.761-1.507 3.823-4.319h-2.253c-.156 1.041.015 2.564-1.57 2.564-1.351 0-1.46-1.508-1.46-2.564v-4.972c0-1.057.109-2.58 1.46-2.58 1.585 0 1.414 1.523 1.57 2.58z"/>
  <path fill="#b3b3b3" fill-rule="evenodd" d="M27.327 18.726v3.309h1.694c1.6 0 1.6-3.309 0-3.309zm-2.253-2.099v13.068h2.253v-5.951h1.694c.776 0 1.398.839 1.398 1.678v2.424c0 .637.093 1.274.342 1.849h2.253v-.249c-.187-.233-.342-1.181-.342-1.6V25.05c0-.964-.777-1.725-1.942-2.16.963-.264 1.74-.948 1.74-2.502 0-2.501-1.585-3.76-3.449-3.76h-3.947z" clip-rule="evenodd"/>
  <path fill="none" d="M27.327 18.726v3.309h1.694c1.6 0 1.6-3.309 0-3.309zm-2.253-2.099v13.068h2.253v-5.951h1.694c.776 0 1.398.839 1.398 1.678v2.424c0 .637.093 1.274.342 1.849h2.253v-.249c-.187-.233-.342-1.181-.342-1.6V25.05c0-.964-.777-1.725-1.942-2.16.963-.264 1.74-.948 1.74-2.502 0-2.501-1.585-3.76-3.449-3.76h-3.947z"/>
  <path fill="#b3b3b3" fill-rule="evenodd" d="M34.723 16.627v7.754c0 3.651.622 5.593 3.729 5.593 3.092 0 3.729-1.942 3.729-5.593v-7.754h-2.253v9.028c0 2.16-.543 2.564-1.476 2.564s-1.476-.404-1.476-2.564v-9.028z" clip-rule="evenodd"/>
  <path fill="none" d="M34.723 16.627v7.754c0 3.651.622 5.593 3.729 5.593 3.092 0 3.729-1.942 3.729-5.593v-7.754h-2.253v9.028c0 2.16-.543 2.564-1.476 2.564s-1.476-.404-1.476-2.564v-9.028z"/>
  <path fill="#b3b3b3" fill-rule="evenodd" d="M46.315 16.627h-2.253v13.068h2.253z" clip-rule="evenodd"/>
  <path fill="none" d="M46.315 16.627h-2.253v13.068h2.253z"/>
  <path fill="#b3b3b3" fill-rule="evenodd" d="M55.451 20.622v-1.057c0-2.191-1.802-3.232-3.744-3.232-1.818 0-3.418 1.259-3.418 3.232 0 1.336.186 2.284 1.289 3.108l2.797 2.065c.684.497.947.979.947 1.818 0 1.088-.543 1.569-1.49 1.569-.855 0-1.307-.885-1.307-1.678v-1.336h-2.33v1.15c0 2.393 1.383 3.729 3.637 3.729 2.641 0 3.869-1.181 3.869-3.884 0-1.616-.373-2.285-1.633-3.217l-2.424-1.787c-.637-.466-1.088-.652-1.088-1.662 0-.793.482-1.212 1.212-1.212.776 0 1.414.559 1.414 1.46v.933z" clip-rule="evenodd"/>
  <path fill="none" d="M55.451 20.622v-1.057c0-2.191-1.802-3.232-3.744-3.232-1.818 0-3.418 1.259-3.418 3.232 0 1.336.186 2.284 1.289 3.108l2.797 2.065c.684.497.947.979.947 1.818 0 1.088-.543 1.569-1.49 1.569-.855 0-1.307-.885-1.307-1.678v-1.336h-2.33v1.15c0 2.393 1.383 3.729 3.637 3.729 2.641 0 3.869-1.181 3.869-3.884 0-1.616-.373-2.285-1.633-3.217l-2.424-1.787c-.637-.466-1.088-.652-1.088-1.662 0-.793.482-1.212 1.212-1.212.776 0 1.414.559 1.414 1.46v.933z"/>
  <path fill="#b3b3b3" fill-rule="evenodd" d="M57.58 16.627v13.068h6.449v-2.082h-4.196v-3.714h3.807v-2.082h-3.807v-3.091h4.196v-2.099z" clip-rule="evenodd"/>
  <path fill="none" d="M57.58 16.627v13.068h6.449v-2.082h-4.196v-3.714h3.807v-2.082h-3.807v-3.091h4.196v-2.099z"/>
  <path fill="#b3b3b3" fill-rule="evenodd" d="M15.44 39.5c-.062-2.813-.885-4.335-3.822-4.335-3.838 0-3.714 3.216-3.714 6.806 0 3.605-.124 6.806 3.714 6.806 2.937 0 3.76-1.508 3.822-4.319h-2.253c-.155 1.057.016 2.578-1.569 2.578-1.352 0-1.461-1.521-1.461-2.578V39.5c0-1.072.109-2.58 1.461-2.58 1.585 0 1.414 1.523 1.569 2.58z" clip-rule="evenodd"/>
  <path fill="none" d="M15.44 39.5c-.062-2.813-.885-4.335-3.822-4.335-3.838 0-3.714 3.216-3.714 6.806 0 3.605-.124 6.806 3.714 6.806 2.937 0 3.76-1.508 3.822-4.319h-2.253c-.155 1.057.016 2.578-1.569 2.578-1.352 0-1.461-1.521-1.461-2.578V39.5c0-1.072.109-2.58 1.461-2.58 1.585 0 1.414 1.523 1.569 2.58z"/>
  <path fill="#b3b3b3" fill-rule="evenodd" d="M21.034 47.035c-1.243 0-1.461-.869-1.461-2.578V39.5c0-1.709.218-2.58 1.461-2.58 1.259 0 1.476.871 1.476 2.58v4.957c0 1.709-.217 2.578-1.476 2.578m0 1.741c-3.014 0-3.714-1.522-3.714-6.806 0-5.268.7-6.806 3.714-6.806 3.03 0 3.729 1.539 3.729 6.806 0 5.284-.699 6.806-3.729 6.806" clip-rule="evenodd"/>
  <path fill="none" d="M21.034 47.035c-1.243 0-1.461-.869-1.461-2.578V39.5c0-1.709.218-2.58 1.461-2.58 1.259 0 1.476.871 1.476 2.58v4.957c0 1.709-.217 2.578-1.476 2.578m0 1.741c-3.014 0-3.714-1.522-3.714-6.806 0-5.268.7-6.806 3.714-6.806 3.03 0 3.729 1.539 3.729 6.806 0 5.284-.699 6.806-3.729 6.806"/>
  <path fill="#b3b3b3" fill-rule="evenodd" d="M26.643 35.444v13.052h2.253v-9.151l3.465 9.151h2.564V35.444h-2.253v8.966l-3.387-8.966z" clip-rule="evenodd"/>
  <path fill="none" d="M26.643 35.444v13.052h2.253v-9.151l3.465 9.151h2.564V35.444h-2.253v8.966l-3.387-8.966z"/>
  <path fill="#b3b3b3" fill-rule="evenodd" d="M36.805 35.444v2.099h2.626v10.953h2.253V37.543h2.642v-2.099z" clip-rule="evenodd"/>
  <path fill="none" d="M36.805 35.444v2.099h2.626v10.953h2.253V37.543h2.642v-2.099z"/>
  <path fill="#b3b3b3" fill-rule="evenodd" d="M48.458 37.543v3.309h1.693c1.602 0 1.602-3.309 0-3.309zm-2.251-2.099v13.052h2.252v-5.951h1.693c.777 0 1.399.84 1.399 1.679v2.424c0 .638.093 1.274.342 1.849h2.253v-.248c-.188-.217-.342-1.182-.342-1.601v-2.797c0-.963-.777-1.709-1.941-2.144.963-.265 1.739-.965 1.739-2.518 0-2.486-1.585-3.745-3.45-3.745z" clip-rule="evenodd"/>
  <path fill="none" d="M48.458 37.543v3.309h1.693c1.602 0 1.602-3.309 0-3.309zm-2.251-2.099v13.052h2.252v-5.951h1.693c.777 0 1.399.84 1.399 1.679v2.424c0 .638.093 1.274.342 1.849h2.253v-.248c-.188-.217-.342-1.182-.342-1.601v-2.797c0-.963-.777-1.709-1.941-2.144.963-.265 1.739-.965 1.739-2.518 0-2.486-1.585-3.745-3.45-3.745z"/>
  <path fill="#b3b3b3" fill-rule="evenodd" d="M59.57 47.035c-1.244 0-1.462-.869-1.462-2.578V39.5c0-1.709.218-2.58 1.462-2.58 1.258 0 1.475.871 1.475 2.58v4.957c-.001 1.709-.217 2.578-1.475 2.578m0 1.741c-3.016 0-3.715-1.522-3.715-6.806 0-5.268.699-6.806 3.715-6.806 3.029 0 3.729 1.539 3.729 6.806-.001 5.284-.7 6.806-3.729 6.806" clip-rule="evenodd"/>
  <path fill="none" d="M59.57 47.035c-1.244 0-1.462-.869-1.462-2.578V39.5c0-1.709.218-2.58 1.462-2.58 1.258 0 1.475.871 1.475 2.58v4.957c-.001 1.709-.217 2.578-1.475 2.578m0 1.741c-3.016 0-3.715-1.522-3.715-6.806 0-5.268.699-6.806 3.715-6.806 3.029 0 3.729 1.539 3.729 6.806-.001 5.284-.7 6.806-3.729 6.806"/>
  <path fill="#b3b3b3" fill-rule="evenodd" d="M65.178 35.444v13.052h6.588v-2.082h-4.335v-10.97z" clip-rule="evenodd"/>
  <path fill="none" d="M65.178 35.444v13.052h6.588v-2.082h-4.335v-10.97z"/>
  <path fill="#120c0e" d="M7.267 62.264 62.164 7.149c1.508 1.134 3.31 2.393 5.189 4.288.855.871 3.311 3.481 4.118 4.444.87 1.073.093.498.651 1.259L17.226 72.13c-2.098-.67-5.143-3.963-6.977-5.813-1.661-1.676-1.801-2.5-2.982-4.053"/>
  <path fill="none" d="M7.267 62.264 62.164 7.149c1.508 1.134 3.31 2.393 5.189 4.288.855.871 3.311 3.481 4.118 4.444.87 1.073.093.498.651 1.259L17.226 72.13c-2.098-.67-5.143-3.963-6.977-5.813-1.661-1.676-1.801-2.5-2.982-4.053"/>
</svg>
