<svg xmlns="http://www.w3.org/2000/svg" xml:space="preserve" viewBox="0 0 79.403 79.271" role="img" aria-labelledby="title">
  <title id="title">Verkehrszeichen C13 - No entry for drivers of carriages</title>
  <path fill="#ed1c24" fill-rule="evenodd" d="M39.721 0c30.504 0 49.576 33.023 34.303 59.45-15.232 26.427-53.374 26.427-68.646 0S9.176 0 39.721 0" clip-rule="evenodd"/>
  <path fill="none" d="M39.721 0c30.504 0 49.576 33.023 34.303 59.45-15.232 26.427-53.374 26.427-68.646 0S9.176 0 39.721 0"/>
  <path fill="#fff" fill-rule="evenodd" d="M39.681 68.286c-22.069 0-35.862-23.868-24.828-42.979 11.035-19.11 38.662-19.15 49.696 0 11.034 19.111-2.759 42.979-24.868 42.979" clip-rule="evenodd"/>
  <path fill="none" d="M39.681 68.286c-22.069 0-35.862-23.868-24.828-42.979 11.035-19.11 38.662-19.15 49.696 0 11.034 19.111-2.759 42.979-24.868 42.979"/>
  <path d="M54.034 45.457c-.32 1.72 1.398 3.799 3.479 3.799 1.959 0 3.518-1.76 3.518-3.719 0-.08 0 .08 0 0h4.158v-8.195c-.279-.32-.76-.36-1.16-.4-.039-.359-.479-.52-.639-.839-.52-.2-.439.2-1.439-.44-.36 0-.721 0-1.039-.16-.439-.199-.881-.959-1.439-.799-.201-.12-.4-.319-.64-.319-.16.079.08.04-.521.279-.08.04-.24.04-.319.12-.841-.56-1.159-.52-2.039-.2-.08-.08-.36-.04-.4-.199-.599-.24-1.159-.16-1.759.119-.641-.119-1.119-.52-1.839-.239-.12.12-.36.12-.479.239h-.201l-.119-.119h-.799c-.08.04-.08.04-.121.119-.119.04-.239-.04-.359-.04-.561-.119-1.199-.239-1.52-.079-.279.159-1.359.438-1.679.679-.159.16-.52.479-.6.479-1.08.88-2.8 1.439-4.198 1.08-.04-.04.439-.359.4-.399.24-.92-.12-1.64-.08-2.68 0-.479-.12-.919-.561-1.238-.199-.16-.16-.32-.399-.4-.08 0 .159-.52.159-.439 0 .079 0 .039 0 0 .24-.44-.08-.48-.039-.76.08-.04.119-.399.16-.399.039-.08-.08-.24 0-.28-.28-.04-.879-.2-1.279-.04-.04.08.04-.08 0 0-.08.16-.24.2-.44.24-.24-.08-.28.16-.32.2.8.239.44-.04.52.239.04.08 0 .119 0 .199-.12.08-.2.24-.32.32.08.04.2.04.28.08-.16.04 0 .359-.08.439.12.16.24.04.44.08.08.16.321.44.04.641-.36.239-.76 1.879-1.28 2.198-.679.399-.359.08-.839.56-.48-.08-.36-.2-.6-.12-.12.16-.24.24-.2.439.24.24.24.24.96.12.16.2.479.32.719.16.08.28.16.92-.319.88-1.16.159-1.8 1.56-2.839 3.158.4.24.08.36-.16.36-.32 0-.36-.36-.6-.44-.16 0-.36.12-.479.24l.479.52v2.559h2.719v.56h-2.519l-.919-.24c-.16-2.638-.36-3.197-2.039-4.317-.36-.239-2.679-1.079-6.637-.279-2.519.52-5.677-.52-6.277-2.438-.2-.36-.68-.96-1.119-1.12-.44 0-.72-.24-1.16-.32-.08-.279-.24-.199-.36-.479-.08 0-.359-.44-.439-.4.08.4.04.959-.12 1.319-.08.079-.2.159-.24.319-.24 0-.36.44-.52.561.4 1.318-1.559 2.678-1.439 3.397.12.08.08.32.2.4-.04.04-.04-.04 0 0 .16.12.24-.08.559.439.12-.04.2-.04.32-.079.04-.28.28-.4.56-.561.28-.2.64-.32.8-.6.239-.399.519-.879.919-.959.28.16.6.599.72.999.479.479.44 2.238.919 2.879.36.439.32 1.238 1.08 1.238l-.96 2.76.12 2.039c0 .08.04.12.04.159-.12.04-.16.2-.28.2-.08.12 0 .28-.04.399h.76v-.359l.36-.16-.36-.359-.04-.96 1.479-2.318c.44 1.159 2.359 3.078 3.598 3.678l.72.04-.28-.84-.48.04c-.119 0-.239-.04-.359-.08-.84-.839-1.8-2.639-1.28-3.918 1.719.72 5.677-.6 5.797-.36.24.44.44 1.88.44 2.279 0 .68-.6 3.039-.799 2.759-.16.2-.68.4-.48.72h.839l.32-.479h-.2l1.839-3.878 1.44 1.399.519 2.398.36.56.52-.72c-.16-.119-.28-.279-.4-.479-.36-.88-.28-1.639-.28-2.359 0-.799-.519-1.119-.719-1.959l1.159.24.32 1.959h.76l-.12-1.639.839.319h2.639c-1.16.24-2.079 1.159-2.079 2.399 0 1.359 1.119 2.478 2.519 2.478a2.49 2.49 0 0 0 2.478-2.478c0-1.12-.719-2.079-1.719-2.399h2.159v-.84h-2.239v-.56h2.799v2.398h12.113z"/>
  <path fill="none" stroke="#000" stroke-miterlimit="3.863" stroke-width=".2" d="M54.034 45.457c-.32 1.72 1.398 3.799 3.479 3.799 1.959 0 3.518-1.76 3.518-3.719 0-.08 0 .08 0 0h4.158v-8.195c-.279-.32-.76-.36-1.16-.4-.039-.359-.479-.52-.639-.839-.52-.2-.439.2-1.439-.44-.36 0-.721 0-1.039-.16-.439-.199-.881-.959-1.439-.799-.201-.12-.4-.319-.64-.319-.16.079.08.04-.521.279-.08.04-.24.04-.319.12-.841-.56-1.159-.52-2.039-.2-.08-.08-.36-.04-.4-.199-.599-.24-1.159-.16-1.759.119-.641-.119-1.119-.52-1.839-.239-.12.12-.36.12-.479.239h-.201l-.119-.119h-.799c-.08.04-.08.04-.121.119-.119.04-.239-.04-.359-.04-.561-.119-1.199-.239-1.52-.079-.279.159-1.359.438-1.679.679-.159.16-.52.479-.6.479-1.08.88-2.8 1.439-4.198 1.08-.04-.04.439-.359.4-.399.24-.92-.12-1.64-.08-2.68 0-.479-.12-.919-.561-1.238-.199-.16-.16-.32-.399-.4-.08 0 .159-.52.159-.439 0 .079 0 .039 0 0 .24-.44-.08-.48-.039-.76.08-.04.119-.399.16-.399.039-.08-.08-.24 0-.28-.28-.04-.879-.2-1.279-.04-.04.08.04-.08 0 0-.08.16-.24.2-.44.24-.24-.08-.28.16-.32.2.8.239.44-.04.52.239.04.08 0 .119 0 .199-.12.08-.2.24-.32.32.08.04.2.04.28.08-.16.04 0 .359-.08.439.12.16.24.04.44.08.08.16.321.44.04.641-.36.239-.76 1.879-1.28 2.198-.679.399-.359.08-.839.56-.48-.08-.36-.2-.6-.12-.12.16-.24.24-.2.439.24.24.24.24.96.12.16.2.479.32.719.16.08.28.16.92-.319.88-1.16.159-1.8 1.56-2.839 3.158.4.24.08.36-.16.36-.32 0-.36-.36-.6-.44-.16 0-.36.12-.479.24l.479.52v2.559h2.719v.56h-2.519l-.919-.24c-.16-2.638-.36-3.197-2.039-4.317-.36-.239-2.679-1.079-6.637-.279-2.519.52-5.677-.52-6.277-2.438-.2-.36-.68-.96-1.119-1.12-.44 0-.72-.24-1.16-.32-.08-.279-.24-.199-.36-.479-.08 0-.359-.44-.439-.4.08.4.04.959-.12 1.319-.08.079-.2.159-.24.319-.24 0-.36.44-.52.561.4 1.318-1.559 2.678-1.439 3.397.12.08.08.32.2.4-.04.04-.04-.04 0 0 .16.12.24-.08.559.439.12-.04.2-.04.32-.079.04-.28.28-.4.56-.561.28-.2.64-.32.8-.6.239-.399.519-.879.919-.959.28.16.6.599.72.999.479.479.44 2.238.919 2.879.36.439.32 1.238 1.08 1.238l-.96 2.76.12 2.039c0 .08.04.12.04.159-.12.04-.16.2-.28.2-.08.12 0 .28-.04.399h.76v-.359l.36-.16-.36-.359-.04-.96 1.479-2.318c.44 1.159 2.359 3.078 3.598 3.678l.72.04-.28-.84-.48.04c-.119 0-.239-.04-.359-.08-.84-.839-1.8-2.639-1.28-3.918 1.719.72 5.677-.6 5.797-.36.24.44.44 1.88.44 2.279 0 .68-.6 3.039-.799 2.759-.16.2-.68.4-.48.72h.839l.32-.479h-.2l1.839-3.878 1.44 1.399.519 2.398.36.56.52-.72c-.16-.119-.28-.279-.4-.479-.36-.88-.28-1.639-.28-2.359 0-.799-.519-1.119-.719-1.959l1.159.24.32 1.959h.76l-.12-1.639.839.319h2.639c-1.16.24-2.079 1.159-2.079 2.399 0 1.359 1.119 2.478 2.519 2.478a2.49 2.49 0 0 0 2.478-2.478c0-1.12-.719-2.079-1.719-2.399h2.159v-.84h-2.239v-.56h2.799v2.398h12.113z"/>
  <path fill="#fff" d="M32.525 40.021c.24-.24.519.12.639.12.48.679.56 1.238.48 3.078l-1.119-.28c-.36-.719-.24-2.04 0-2.918"/>
  <path fill="none" stroke="#000" stroke-miterlimit="3.863" stroke-width=".2" d="M32.525 40.021c.24-.24.519.12.639.12.48.679.56 1.238.48 3.078l-1.119-.28c-.36-.719-.24-2.04 0-2.918z"/>
  <path fill="#fff" d="m35.923 40.62-.4.08v1.439h3.598V38.98h-.439c-.76.32-.96.96-1.4 1.52l-.559-.119-.56.719-.24-.2z"/>
  <path fill="none" stroke="#000" stroke-miterlimit="3.863" stroke-width=".2" d="m35.923 40.62-.4.08v1.439h3.598V38.98h-.439c-.76.32-.96.96-1.4 1.52l-.559-.119-.56.719-.24-.2z"/>
  <path d="M38.122 35.582c-.28.44-.12.601-.12.88.12.2.36.359.56.2.08-.24.2-.439.04-.68-.12-.12-.32-.32-.48-.4"/>
  <path fill="none" d="M38.122 35.582c-.28.44-.12.601-.12.88.12.2.36.359.56.2.08-.24.2-.439.04-.68-.12-.12-.32-.32-.48-.4"/>
  <path fill="#fff" d="M38.162 35.902v.52c0 .12.2.2.36.12v-.399c-.16-.08-.16-.201-.36-.241"/>
  <path fill="none" d="M38.162 35.902v.52c0 .12.2.2.36.12v-.399c-.16-.08-.16-.201-.36-.241"/>
  <path d="m18.292 39.301.2.279c-1.12.32-2.199.4-3.039.48l.4-.24c.839-.2 1.639-.2 2.439-.519"/>
  <path fill="none" stroke="#000" stroke-miterlimit="3.863" stroke-width=".2" d="m18.292 39.301.2.279c-1.12.32-2.199.4-3.039.48l.4-.24c.839-.2 1.639-.2 2.439-.519z"/>
  <path d="M37.722 35.022c-4.798 1.52-10.595 3.719-15.352 3.519.04-.159.24.16.28.16.119.04.359.12.599.08.2-.04 1.28-.12 1.32-.08.919.239 8.156-1.479 12.873-3.199 0-.159.28-.319.28-.48"/>
  <path fill="none" stroke="#000" stroke-miterlimit="3.863" stroke-width=".2" d="M37.722 35.022c-4.798 1.52-10.595 3.719-15.352 3.519.04-.159.24.16.28.16.119.04.359.12.599.08.2-.04 1.28-.12 1.32-.08.919.239 8.156-1.479 12.873-3.199 0-.159.28-.319.28-.48z"/>
</svg>
