<svg xmlns="http://www.w3.org/2000/svg" xml:space="preserve" viewBox="0 0 78.828 79.091" role="img" aria-labelledby="title">
  <title id="title">Verkehrszeichen C31 - No turn allowed in the direction inicated by the arrow at the next intersection</title>
  <path fill="#ed1c24" fill-rule="evenodd" d="M39.4 79.091c-30.293 0-49.223-32.94-34.06-59.313 15.131-26.371 53.021-26.371 68.152 0C88.654 46.15 69.695 79.091 39.4 79.091" clip-rule="evenodd"/>
  <path fill="none" d="M39.4 79.091c-30.293 0-49.223-32.94-34.06-59.313 15.131-26.371 53.021-26.371 68.152 0C88.654 46.15 69.695 79.091 39.4 79.091"/>
  <path fill="#fff" fill-rule="evenodd" d="M39.4 67.656c-15.471 0-28.07-12.581-28.07-28.106 0-15.557 12.599-28.138 28.07-28.138S67.47 23.993 67.47 39.55c0 15.525-12.599 28.106-28.07 28.106" clip-rule="evenodd"/>
  <path fill="none" d="M39.4 67.656c-15.471 0-28.07-12.581-28.07-28.106 0-15.557 12.599-28.138 28.07-28.138S67.47 23.993 67.47 39.55c0 15.525-12.599 28.106-28.07 28.106"/>
  <path fill="#120c0e" d="m53.142 61.645-3.057-2.852-2.749 2.604V39.209c0-4.37-3.644-7.53-7.967-7.53H29.086v8.46l-11.61-11.218 11.61-11.497v8.553h10.562c7.441 0 13.494 6.073 13.494 13.573z"/>
  <path fill="none" stroke="#120c0e" stroke-miterlimit="3.863" stroke-width=".155" d="m53.142 61.645-3.057-2.852-2.749 2.604V39.209c0-4.37-3.644-7.53-7.967-7.53H29.086v8.46l-11.61-11.218 11.61-11.497v8.553h10.562c7.441 0 13.494 6.073 13.494 13.573z"/>
  <path fill="#ed1c24" d="M22.015 17.454c-1.481 1.147-2.933 2.603-4.076 3.874l39.217 40.038c1.329-1.24 2.409-2.201 3.922-3.874z"/>
  <path fill="none" stroke="#ed1c24" stroke-miterlimit="3.863" stroke-width=".155" d="M22.015 17.454c-1.481 1.147-2.933 2.603-4.076 3.874l39.217 40.038c1.329-1.24 2.409-2.201 3.922-3.874z"/>
</svg>
