<svg xmlns="http://www.w3.org/2000/svg" xml:space="preserve" viewBox="0 0 79.387 79.292" role="img" aria-labelledby="title">
  <title id="title">Verkehrszeichen C19 - No entry for pedestrians</title>
  <path fill="#ed1c24" fill-rule="evenodd" d="M39.687 79.292C9.176 79.292-9.885 46.25 5.37 19.825s53.395-26.441 68.648 0c15.256 26.425-3.822 59.467-34.331 59.467" clip-rule="evenodd"/>
  <path fill="none" d="M39.687 79.292C9.176 79.292-9.885 46.25 5.37 19.825s53.395-26.441 68.648 0c15.256 26.425-3.822 59.467-34.331 59.467"/>
  <path fill="#fff" fill-rule="evenodd" d="M39.687 67.936c-21.796 0-35.404-23.582-24.514-42.457 10.89-18.874 38.139-18.874 49.028 0 10.89 18.875-2.734 42.457-24.514 42.457" clip-rule="evenodd"/>
  <path fill="none" d="M39.687 67.936c-21.796 0-35.404-23.582-24.514-42.457 10.89-18.874 38.139-18.874 49.028 0 10.89 18.875-2.734 42.457-24.514 42.457"/>
  <path d="M43.026 41.325c.047-.357-.232-.87.265-.917.28-.016.171-.217.217-.403.017-.171-.155-.296.202-.296.451 0-.046-3.387.156-4.815.062-1.197-.016-2.237-.202-3.403-.171-1.211.155-1.91-.793-3.433l-1.367-2.408c-.124-.217-.03-.388-.45-.854-.248-.311-.279-.311-.186-.839-.047-.606.388-.637.512-1.771-.078-.621-.637-1.647-1.553-1.833-.964-.171-1.756 0-2.362.513-.326.885-.171 1.118-.202 1.522-.046.373-.419.777-.466 1.196-.015.187.435.373.544.606.155.388-.078.932.016 1.258.015.094.186.094.202.202.636-.202.932-.062 1.211.14-.45.653-.901 1.057-1.211 1.958-.513 1.537-.637 2.299-.793 4.241-.466.637-1.165 1.196-1.569 1.522-.14.078-.559.357-1.056.808-.404.404-.839.963-1.274 1.351-.28.249-.637.156-.854.373-.358.404-.249.605-.28.963-.109.9.233.762.528.793.357.046.606-.14.544-.389-.124-.606.233-.233.435-.326.078-.031.233.093.419.217.156.125.684-.217 1.088-.527.419-.326.839-.59.916-.606.171-.031.42-.372.482-.233.202.451-.016 1.414-.202 2.362-.109.714-.093 1.46-.202 1.771-.078.248.062.56.419.498.358-.063.404.186.389.651l-.218 1.461-.823 2.361-.451 1.739-.621 2.998-.264 1.569-.497 1.025-.528.108-.218.42-.994.155-.917-.155-.466.389.156.404.885.543.87.342 1.258.156.109.449h1.026l.201-.248h.296l.528-.994.124-.42.062-.574.202-.467.373-.248 1.212-2.719.046-.574.575-.746 1.088-2.129.279-.621.389.793.528 1.041 1.104 1.414.404.713.092 1.119.248 1.088.28.947-.28.342.156.652-.605.637-.793.203-.311.387.467.295h2.051l1.07-.34 1.01-.42.078.342 1.258-.467-.139-.746-.793-1.381-.046-.576-1.491-5.328-.668-2.051-.203-.652z"/>
  <path fill="none" d="M43.026 41.325c.047-.357-.232-.87.265-.917.28-.016.171-.217.217-.403.017-.171-.155-.296.202-.296.451 0-.046-3.387.156-4.815.062-1.197-.016-2.237-.202-3.403-.171-1.211.155-1.91-.793-3.433l-1.367-2.408c-.124-.217-.03-.388-.45-.854-.248-.311-.279-.311-.186-.839-.047-.606.388-.637.512-1.771-.078-.621-.637-1.647-1.553-1.833-.964-.171-1.756 0-2.362.513-.326.885-.171 1.118-.202 1.522-.046.373-.419.777-.466 1.196-.015.187.435.373.544.606.155.388-.078.932.016 1.258.015.094.186.094.202.202.636-.202.932-.062 1.211.14-.45.653-.901 1.057-1.211 1.958-.513 1.537-.637 2.299-.793 4.241-.466.637-1.165 1.196-1.569 1.522-.14.078-.559.357-1.056.808-.404.404-.839.963-1.274 1.351-.28.249-.637.156-.854.373-.358.404-.249.605-.28.963-.109.9.233.762.528.793.357.046.606-.14.544-.389-.124-.606.233-.233.435-.326.078-.031.233.093.419.217.156.125.684-.217 1.088-.527.419-.326.839-.59.916-.606.171-.031.42-.372.482-.233.202.451-.016 1.414-.202 2.362-.109.714-.093 1.46-.202 1.771-.078.248.062.56.419.498.358-.063.404.186.389.651l-.218 1.461-.823 2.361-.451 1.739-.621 2.998-.264 1.569-.497 1.025-.528.108-.218.42-.994.155-.917-.155-.466.389.156.404.885.543.87.342 1.258.156.109.449h1.026l.201-.248h.296l.528-.994.124-.42.062-.574.202-.467.373-.248 1.212-2.719.046-.574.575-.746 1.088-2.129.279-.621.389.793.528 1.041 1.104 1.414.404.713.092 1.119.248 1.088.28.947-.28.342.156.652-.605.637-.793.203-.311.387.467.295h2.051l1.07-.34 1.01-.42.078.342 1.258-.467-.139-.746-.793-1.381-.046-.576-1.491-5.328-.668-2.051-.203-.652z"/>
</svg>
