<svg xmlns="http://www.w3.org/2000/svg" xml:space="preserve" viewBox="0 0 79.194 79.177" role="img" aria-labelledby="title">
  <title id="title">Verkehrszeichen C35 - No overtaking of carriages and vehicles with more than two wheels until the next intersection</title>
  <path fill="#ed1c24" fill-rule="evenodd" d="M39.597 79.177c-30.431 0-49.458-32.972-34.242-59.375C20.57-6.6 58.625-6.6 73.84 19.802s-3.812 59.375-34.243 59.375" clip-rule="evenodd"/>
  <path fill="none" d="M39.597 79.177c-30.431 0-49.458-32.972-34.242-59.375C20.57-6.6 58.625-6.6 73.84 19.802s-3.812 59.375-34.243 59.375"/>
  <path fill="#fff" fill-rule="evenodd" d="M39.597 68.146c-22.002 0-35.73-23.801-24.729-42.828 10.97-19.027 38.488-19.058 49.458 0C75.327 44.345 61.6 68.146 39.597 68.146" clip-rule="evenodd"/>
  <path fill="none" d="M39.597 68.146c-22.002 0-35.73-23.801-24.729-42.828 10.97-19.027 38.488-19.058 49.458 0C75.327 44.345 61.6 68.146 39.597 68.146"/>
  <path fill="#1a1d21" d="M64.45 50.047h.683v.589H13.814v-.589h28.541V46.64h-.621c-1.518-2.264-1.177-4.557-1.177-7.902 0-.744.496-.744.651-.961.154-.155.309-.094.371-.155l3.099-7.809h17.386l3.656 7.748c.155.062.248 0 .403.092.155.218.619.218.619.992 0 3.315.248 5.424-1.332 7.717h-.96z"/>
  <path fill="none" stroke="#1a1d21" stroke-miterlimit="3.863" stroke-width=".155" d="M64.45 50.047h.683v.589H13.814v-.589h28.541V46.64h-.621c-1.518-2.264-1.177-4.557-1.177-7.902 0-.744.496-.744.651-.961.154-.155.309-.094.371-.155l3.099-7.809h17.386l3.656 7.748c.155.062.248 0 .403.092.155.218.619.218.619.992 0 3.315.248 5.424-1.332 7.717h-.96z"/>
  <path fill="#fff" d="M61.63 50.108H45.236V46.7H61.63z"/>
  <path fill="none" stroke="#120c0e" stroke-miterlimit="3.863" stroke-width=".155" d="M61.63 50.108H45.236V46.7H61.63z"/>
  <path fill="#fff" d="M64.977 37.373c-3.471-.496-7.901-.341-11.063-.465-3.254.124-7.654-.031-11.156.465l2.604-6.756h16.207z"/>
  <path fill="none" stroke="#120c0e" stroke-miterlimit="3.863" stroke-width=".155" d="M64.977 37.373c-3.471-.496-7.901-.341-11.063-.465-3.254.124-7.654-.031-11.156.465l2.604-6.756h16.207z"/>
  <path fill="#ed1c24" d="M14.712 49.892h2.851v-3.438h16.394v3.438h2.882v-3.687h.961c1.58-2.293 1.301-4.401 1.301-7.716 0-.775-.464-.775-.619-.992-.155-.094-.248-.031-.403-.094l-3.626-7.747H17.037l-3.098 7.809c-.062.063-.217 0-.341.155-.155.217-.682.217-.682.961 0 3.347-.31 5.64 1.177 7.901h.62z"/>
  <path fill="none" stroke="#ed1c24" stroke-miterlimit="3.863" stroke-width=".155" d="M14.712 49.892h2.851v-3.438h16.394v3.438h2.882v-3.687h.961c1.58-2.293 1.301-4.401 1.301-7.716 0-.775-.464-.775-.619-.992-.155-.094-.248-.031-.403-.094l-3.626-7.747H17.037l-3.098 7.809c-.062.063-.217 0-.341.155-.155.217-.682.217-.682.961 0 3.347-.31 5.64 1.177 7.901h.62z"/>
  <path fill="#fff" d="M36.901 37.342c-3.44-.495-7.902-.341-11.063-.465-3.223.124-7.654-.03-11.156.465l2.634-6.756h16.176z"/>
  <path fill="none" stroke="#ef402b" stroke-miterlimit="3.863" stroke-width=".155" d="M36.901 37.342c-3.44-.495-7.902-.341-11.063-.465-3.223.124-7.654-.03-11.156.465l2.634-6.756h16.176z"/>
</svg>
