<svg xmlns="http://www.w3.org/2000/svg" xml:space="preserve" viewBox="0 0 79.403 79.271" role="img" aria-labelledby="title">
  <title id="title">Verkehrszeichen C11 - No entry for drivers of &apos;rijwielen&apos;/&apos;cycles&apos;. (For example bicycles, tricycles ...)</title>
  <path fill="#ed1c24" fill-rule="evenodd" d="M39.721 0c30.504 0 49.576 33.023 34.303 59.45-15.232 26.427-53.374 26.427-68.646 0S9.176 0 39.721 0" clip-rule="evenodd"/>
  <path fill="none" d="M39.721 0c30.504 0 49.576 33.023 34.303 59.45-15.232 26.427-53.374 26.427-68.646 0S9.176 0 39.721 0"/>
  <path fill="#fff" fill-rule="evenodd" d="M39.681 68.286c-22.069 0-35.862-23.868-24.828-42.979 11.035-19.11 38.662-19.15 49.696 0 11.034 19.111-2.759 42.979-24.868 42.979" clip-rule="evenodd"/>
  <path fill="none" d="M39.681 68.286c-22.069 0-35.862-23.868-24.828-42.979 11.035-19.11 38.662-19.15 49.696 0 11.034 19.111-2.759 42.979-24.868 42.979"/>
  <path d="m29.286 32.344 10.035 8.915c-.4.44-.599 1.04-.599 1.64 0 1.279 1.039 2.398 2.318 2.558v2.959h-.398v.521h1.278v-.521h-.36v-2.919c1.2-.08 2.119-1.039 2.319-2.159h1.399c.199 4.878 4.197 8.756 9.076 8.756a9.11 9.11 0 0 0 9.114-9.116c0-4.997-4.077-9.075-9.114-9.075-1.52 0-2.959.36-4.199 1.039l-2.559-4.677.6-1.24c.201-.399.721-.279 1.039-.599.041-.2.041-.36.041-.56-.16-.08-.24-.28-.439-.28h-3.359c-.08.08-.199.04-.279.04l-.12.12c-.04.16-.08.4 0 .56.04.04.12.08.159.08h1.72c.2-.04.36.04.56.08.041.08.041.08.121.12-.041.12.079.279.039.399l-.359.8H29.886l.48-2.079c.4-.12.719.16 1.519-.2.32 0 1.039-.4 1.959-.08.16-.08-.08-.16.04-.28-.08-.04.12-.24.08-.32-.52-.159-1.679-.239-2.239.08-.56.32-1.319.12-1.799.16l-1.719 7.397c-1-.4-2.119-.6-3.239-.6-5.037 0-9.115 4.078-9.115 9.075a9.11 9.11 0 0 0 9.115 9.116c4.998 0 9.076-4.078 9.076-9.116 0-3.678-2.199-6.796-5.317-8.235z"/>
  <path fill="none" stroke="#000" stroke-miterlimit="3.863" stroke-width=".2" d="m29.286 32.344 10.035 8.915c-.4.44-.599 1.04-.599 1.64 0 1.279 1.039 2.398 2.318 2.558v2.959h-.398v.521h1.278v-.521h-.36v-2.919c1.2-.08 2.119-1.039 2.319-2.159h1.399c.199 4.878 4.197 8.756 9.076 8.756a9.11 9.11 0 0 0 9.114-9.116c0-4.997-4.077-9.075-9.114-9.075-1.52 0-2.959.36-4.199 1.039l-2.559-4.677.6-1.24c.201-.399.721-.279 1.039-.599.041-.2.041-.36.041-.56-.16-.08-.24-.28-.439-.28h-3.359c-.08.08-.199.04-.279.04l-.12.12c-.04.16-.08.4 0 .56.04.04.12.08.159.08h1.72c.2-.04.36.04.56.08.041.08.041.08.121.12-.041.12.079.279.039.399l-.359.8H29.886l.48-2.079c.4-.12.719.16 1.519-.2.32 0 1.039-.4 1.959-.08.16-.08-.08-.16.04-.28-.08-.04.12-.24.08-.32-.52-.159-1.679-.239-2.239.08-.56.32-1.319.12-1.799.16l-1.719 7.397c-1-.4-2.119-.6-3.239-.6-5.037 0-9.115 4.078-9.115 9.075a9.11 9.11 0 0 0 9.115 9.116c4.998 0 9.076-4.078 9.076-9.116 0-3.678-2.199-6.796-5.317-8.235z"/>
  <path fill="none" stroke="#000" stroke-miterlimit="3.863" stroke-width=".2" d="M23.489 33.263c.52-.08 1-.16 1.479-.16 5.398 0 9.796 4.438 9.796 9.875 0 .32 0 .601-.04.92"/>
  <path fill-rule="evenodd" d="M62.271 52.534H17.012v-.641H62.27z" clip-rule="evenodd"/>
  <path fill="none" stroke="#000" stroke-miterlimit="3.863" stroke-width=".2" d="M62.271 52.534H17.012v-.641H62.27z"/>
  <path fill="#fff" d="M25.688 41.859c-.2-.16-.48-.12-.76-.12-.719 0-1.359.6-1.359 1.319 0 .721.64 1.32 1.359 1.32.6 0 1.16-.4 1.32-.96h6.876c-.28 4.317-3.838 7.716-8.196 7.716-4.597 0-8.276-3.678-8.276-8.235 0-4.558 3.679-8.236 8.276-8.236a8 8 0 0 1 3.079.599l-.52 2.239c-.32 1.28-.759 2.799-1.799 4.358"/>
  <path fill="none" stroke="#000" stroke-miterlimit="3.863" stroke-width=".2" d="M25.688 41.859c-.2-.16-.48-.12-.76-.12-.719 0-1.359.6-1.359 1.319 0 .721.64 1.32 1.359 1.32.6 0 1.16-.4 1.32-.96h6.876c-.28 4.317-3.838 7.716-8.196 7.716-4.597 0-8.276-3.678-8.276-8.235 0-4.558 3.679-8.236 8.276-8.236a8 8 0 0 1 3.079.599l-.52 2.239c-.32 1.28-.759 2.799-1.799 4.358z"/>
  <path fill="#fff" d="m28.567 35.502-.6 2.359c-.28 1.159-1.16 3.438-1.919 4.358.12.16.2.36.24.56h6.876c-.08-3.239-1.919-5.957-4.597-7.277"/>
  <path fill="none" stroke="#000" stroke-miterlimit="3.863" stroke-width=".2" d="m28.567 35.502-.6 2.359c-.28 1.159-1.16 3.438-1.919 4.358.12.16.2.36.24.56h6.876c-.08-3.239-1.919-5.957-4.597-7.277z"/>
  <path fill="#fff" d="m29.446 31.784.24-1.439h17.311L42.2 40.46c-.2-.08-.36-.24-.68-.16v-2.879h.399v-.52H40.6v.52h.4v2.919c-.479.08-.879.28-1.239.56z"/>
  <path fill="none" stroke="#000" stroke-miterlimit="3.863" stroke-width=".2" d="m29.446 31.784.24-1.439h17.311L42.2 40.46c-.2-.08-.36-.24-.68-.16v-2.879h.399v-.52H40.6v.52h.4v2.919c-.479.08-.879.28-1.239.56z"/>
  <path fill="#fff" d="m56.153 42.059 5.477-2.999c.641 1.16 1 2.519 1 3.917a8.223 8.223 0 0 1-8.236 8.236 8.23 8.23 0 0 1-8.235-7.876h6.437c.16.84.92 1.479 1.799 1.479 1 0 1.879-.84 1.879-1.84 0-.318-.08-.599-.199-.838z"/>
  <path fill="none" stroke="#000" stroke-miterlimit="3.863" stroke-width=".2" d="m56.153 42.059 5.477-2.999c.641 1.16 1 2.519 1 3.917a8.223 8.223 0 0 1-8.236 8.236 8.23 8.23 0 0 1-8.235-7.876h6.437c.16.84.92 1.479 1.799 1.479 1 0 1.879-.84 1.879-1.84 0-.318-.08-.599-.199-.838z"/>
  <path fill="#fff" d="m55.833 41.739 5.557-3.038a8.23 8.23 0 0 0-7.035-3.958c-1.32 0-2.6.319-3.719.879l3.118 5.637c.2-.08.44-.12.681-.12.519 0 .998.24 1.398.6"/>
  <path fill="none" stroke="#000" stroke-miterlimit="3.863" stroke-width=".2" d="m55.833 41.739 5.557-3.038a8.23 8.23 0 0 0-7.035-3.958c-1.32 0-2.6.319-3.719.879l3.118 5.637c.2-.08.44-.12.681-.12.519 0 .998.24 1.398.6z"/>
  <path fill="#fff" d="m50.196 35.982 3.117 5.637c-.319.28-.559.68-.639 1.12h-6.557a8.2 8.2 0 0 1 3.958-6.797z"/>
  <path fill="none" stroke="#000" stroke-miterlimit="3.863" stroke-width=".2" d="m50.196 35.982 3.117 5.637c-.319.28-.559.68-.639 1.12h-6.557a8.2 8.2 0 0 1 3.958-6.797z"/>
  <path fill="#fff" d="M47.317 30.825 42.8 40.74c.68.439 1.159 1.199 1.199 2.039h1.359a9.05 9.05 0 0 1 4.397-7.557z"/>
  <path fill="none" stroke="#000" stroke-miterlimit="3.863" stroke-width=".2" d="M47.317 30.825 42.8 40.74c.68.439 1.159 1.199 1.199 2.039h1.359a9.05 9.05 0 0 1 4.397-7.557z"/>
  <path fill="none" stroke="#000" stroke-miterlimit="3.863" stroke-width=".2" d="M44.759 44.458c-.08-.48-.119-.96-.119-1.48 0-5.437 4.396-9.875 9.834-9.875 4.039 0 7.477 2.439 8.995 5.917"/>
</svg>
