<svg xmlns="http://www.w3.org/2000/svg" xml:space="preserve" viewBox="0 0 79.429 79.325" role="img" aria-labelledby="title">
  <title id="title">Verkehrszeichen C7 - No entry for drivers motorcycles</title>
  <path fill="#ed1c24" fill-rule="evenodd" d="M39.71 0c30.525 0 49.616 33.043 34.343 59.49-15.252 26.446-53.414 26.446-68.687 0C-9.885 33.043 9.185 0 39.71 0" clip-rule="evenodd"/>
  <path fill="none" d="M39.71 0c30.525 0 49.616 33.043 34.343 59.49-15.252 26.446-53.414 26.446-68.687 0C-9.885 33.043 9.185 0 39.71 0"/>
  <path fill="#fff" fill-rule="evenodd" d="M39.69 68.306c-22.049 0-35.842-23.868-24.808-42.979 11.035-19.11 38.601-19.11 49.636 0 11.034 19.111-2.759 42.979-24.828 42.979" clip-rule="evenodd"/>
  <path fill="none" d="M39.69 68.306c-22.049 0-35.842-23.868-24.808-42.979 11.035-19.11 38.601-19.11 49.636 0 11.034 19.111-2.759 42.979-24.828 42.979"/>
  <path d="M47.326 43.418c.04.859-.459 2.019-1.299 2.039l-1.438.06c-.381.08-.98.12-1.261.7-.559 1.199-.14 2.419-1.739 2.718-.738.141-4.058.24-4.638-.778-.04-.021-.06-.021-.119-.021-.62-.64-.78-1.319-1.26-2.039-.7-1-2.139-1.12-2.139-2.779 0-4.258-3.438-7.695-7.676-7.695-4.258 0-7.736 3.357-7.736 7.616h-.46c0-4.478 3.638-8.097 8.096-8.097H19.44l1.22 1.759-.54.421-1.659-2.18h-.72.02-.02v-.739h11.414v-1.199h.8v1.199h.16v1.739h1.099c-.08-.92.06-2.539.18-3.478.16-1.101.48-2.319 1-3.299.26-.5.979-1.699 1.499-2.159.2-.2.6-.539 1.039-.839.32-.24.84-.261.98-.641.08-.22.02-.52-.16-.739-.16-.08-.22-.399-.26-.619-.18-.641-.14-1.341 0-2.3.02-.119-.3.04-.3-.079 0-.44.5-1.141.64-1.399 1.039-1.32 2.439-1.4 3.678-.74 1.1.58 1.739 2.02 1.32 3.139-.079.06-.1.239-.18.38-.24.42-.06.859-.08 1.398-.18 0-.28-.04-.44.04-.2.2-.08.3-.1.62 0 .26-.94-.06-1.06.28-.179.42.12 1.999.22 2.639l2.439 2.458 1.039.34c1.18.38 2.438-.239 3.738-.16.619.021.999-.06 1.419.04l.5.301 2.56-.341.299.78 1.26-.8h.999v2.159h-1.22l-.879-.52 1.18 2.898c.34-.14.42-.16.959-.24.14-.02-.12-1.159.14-1.179.261-.021 3.638-.04 3.638-.021.141.8-.16 1.339.08 1.439 1.34.56 2.1 1 2.979 1.859l-.181.279a7.45 7.45 0 0 0-5.196-2.099c-4.138 0-7.617 3.259-7.617 7.396z"/>
  <path fill="none" stroke="#000" stroke-miterlimit="3.863" stroke-width=".2" d="M47.326 43.418c.04.859-.459 2.019-1.299 2.039l-1.438.06c-.381.08-.98.12-1.261.7-.559 1.199-.14 2.419-1.739 2.718-.738.141-4.058.24-4.638-.778-.04-.021-.06-.021-.119-.021-.62-.64-.78-1.319-1.26-2.039-.7-1-2.139-1.12-2.139-2.779 0-4.258-3.438-7.695-7.676-7.695-4.258 0-7.736 3.357-7.736 7.616h-.46c0-4.478 3.638-8.097 8.096-8.097H19.44l1.22 1.759-.54.421-1.659-2.18h-.72.02-.02v-.739h11.414v-1.199h.8v1.199h.16v1.739h1.099c-.08-.92.06-2.539.18-3.478.16-1.101.48-2.319 1-3.299.26-.5.979-1.699 1.499-2.159.2-.2.6-.539 1.039-.839.32-.24.84-.261.98-.641.08-.22.02-.52-.16-.739-.16-.08-.22-.399-.26-.619-.18-.641-.14-1.341 0-2.3.02-.119-.3.04-.3-.079 0-.44.5-1.141.64-1.399 1.039-1.32 2.439-1.4 3.678-.74 1.1.58 1.739 2.02 1.32 3.139-.079.06-.1.239-.18.38-.24.42-.06.859-.08 1.398-.18 0-.28-.04-.44.04-.2.2-.08.3-.1.62 0 .26-.94-.06-1.06.28-.179.42.12 1.999.22 2.639l2.439 2.458 1.039.34c1.18.38 2.438-.239 3.738-.16.619.021.999-.06 1.419.04l.5.301 2.56-.341.299.78 1.26-.8h.999v2.159h-1.22l-.879-.52 1.18 2.898c.34-.14.42-.16.959-.24.14-.02-.12-1.159.14-1.179.261-.021 3.638-.04 3.638-.021.141.8-.16 1.339.08 1.439 1.34.56 2.1 1 2.979 1.859l-.181.279a7.45 7.45 0 0 0-5.196-2.099c-4.138 0-7.617 3.259-7.617 7.396z"/>
  <path fill-rule="evenodd" d="M62.399 50.974H17.042v-.619H62.4z" clip-rule="evenodd"/>
  <path fill="none" stroke="#000" stroke-miterlimit="3.863" stroke-width=".2" d="M62.399 50.974H17.042v-.619H62.4z"/>
  <path fill-rule="evenodd" d="M54.943 50.314c-5.478 0-8.896-5.937-6.157-10.694s9.596-4.778 12.333 0c2.739 4.758-.679 10.694-6.176 10.694" clip-rule="evenodd"/>
  <path fill="none" stroke="#000" stroke-miterlimit="3.863" stroke-width=".2" d="M54.943 50.314c-5.478 0-8.896-5.937-6.157-10.694s9.596-4.778 12.333 0c2.739 4.758-.679 10.694-6.176 10.694z"/>
  <path fill-rule="evenodd" d="M25.757 50.314c-5.497 0-8.936-5.937-6.177-10.694 2.739-4.758 9.615-4.778 12.354 0 2.759 4.758-.68 10.694-6.177 10.694" clip-rule="evenodd"/>
  <path fill="none" stroke="#000" stroke-miterlimit="3.863" stroke-width=".2" d="M25.757 50.314c-5.497 0-8.936-5.937-6.177-10.694 2.739-4.758 9.615-4.778 12.354 0 2.759 4.758-.68 10.694-6.177 10.694z"/>
  <path fill="#fff" fill-rule="evenodd" d="M25.857 48.275c-3.878 0-6.297-4.197-4.358-7.556s6.777-3.358 8.716 0-.48 7.556-4.358 7.556" clip-rule="evenodd"/>
  <path fill="none" stroke="#000" stroke-miterlimit="3.863" stroke-width=".2" d="M25.857 48.275c-3.878 0-6.297-4.197-4.358-7.556s6.777-3.358 8.716 0-.48 7.556-4.358 7.556z"/>
  <path fill="#fff" fill-rule="evenodd" d="M54.943 48.275c-3.899 0-6.317-4.197-4.378-7.556s6.796-3.358 8.734 0c1.94 3.359-.478 7.556-4.356 7.556" clip-rule="evenodd"/>
  <path fill="none" stroke="#000" stroke-miterlimit="3.863" stroke-width=".2" d="M54.943 48.275c-3.899 0-6.317-4.197-4.378-7.556s6.796-3.358 8.734 0c1.94 3.359-.478 7.556-4.356 7.556z"/>
  <path fill-rule="evenodd" d="M53.183 43.317h-5.597v-.679h5.597z" clip-rule="evenodd"/>
  <path fill="none" stroke="#000" stroke-miterlimit="3.863" stroke-width=".2" d="M53.183 43.317h-5.597v-.679h5.597z"/>
  <path fill-rule="evenodd" d="M30.914 43.438h-3.278v-.479h3.278z" clip-rule="evenodd"/>
  <path fill="none" stroke="#000" stroke-miterlimit="3.863" stroke-width=".2" d="M30.914 43.438h-3.278v-.479h3.278z"/>
  <path fill-rule="evenodd" d="M25.857 45.117c-1.439 0-2.319-1.56-1.619-2.799a1.86 1.86 0 0 1 3.238 0c.7 1.24-.18 2.799-1.619 2.799" clip-rule="evenodd"/>
  <path fill="none" stroke="#000" stroke-miterlimit="3.863" stroke-width=".2" d="M25.857 45.117c-1.439 0-2.319-1.56-1.619-2.799a1.86 1.86 0 0 1 3.238 0c.7 1.24-.18 2.799-1.619 2.799z"/>
  <path fill-rule="evenodd" d="m27.096 41.858-.399-.299 2.019-2.499.399.32z" clip-rule="evenodd"/>
  <path fill="none" stroke="#000" stroke-miterlimit="3.863" stroke-width=".2" d="m27.096 41.858-.399-.299 2.019-2.499.399.32z"/>
  <path fill-rule="evenodd" d="m52.724 38.721.66-.281 1.199 2.939-.68.28z" clip-rule="evenodd"/>
  <path fill="none" stroke="#000" stroke-miterlimit="3.863" stroke-width=".2" d="m52.724 38.721.66-.281 1.199 2.939-.68.28z"/>
  <path fill-rule="evenodd" d="m57.161 38.721.62.379-1.699 2.859-.62-.38z" clip-rule="evenodd"/>
  <path fill="none" stroke="#000" stroke-miterlimit="3.863" stroke-width=".2" d="m57.161 38.721.62.379-1.699 2.859-.62-.38z"/>
  <path fill-rule="evenodd" d="M54.943 45.117c-1.44 0-2.339-1.56-1.62-2.799a1.843 1.843 0 0 1 3.219 0c.719 1.24-.18 2.799-1.599 2.799" clip-rule="evenodd"/>
  <path fill="none" stroke="#000" stroke-miterlimit="3.863" stroke-width=".2" d="M54.943 45.117c-1.44 0-2.339-1.56-1.62-2.799a1.843 1.843 0 0 1 3.219 0c.719 1.24-.18 2.799-1.599 2.799z"/>
  <path fill-rule="evenodd" d="m58.861 37.081-.479-.299.199-.301.481.301z" clip-rule="evenodd"/>
  <path fill="none" stroke="#000" stroke-miterlimit="3.863" stroke-width=".2" d="m58.861 37.081-.479-.299.199-.301.481.301z"/>
  <path fill-rule="evenodd" d="m52.464 36.362-.52.24-.14-.34.52-.22z" clip-rule="evenodd"/>
  <path fill="none" stroke="#000" stroke-miterlimit="3.863" stroke-width=".2" d="m52.464 36.362-.52.24-.14-.34.52-.22z"/>
  <path fill-rule="evenodd" d="m30.415 37.921-.42-.36.32-.38.42.36z" clip-rule="evenodd"/>
  <path fill="none" stroke="#000" stroke-miterlimit="3.863" stroke-width=".2" d="m30.415 37.921-.42-.36.32-.38.42.36z"/>
  <path fill="none" d="m39.23 31.563 2.219 1.6"/>
  <path fill="#fff" d="m41.729 33.203 2.339-.221 4.258-.818 1.819-.32.919 2.219c-.699.2-1.239.261-1.88.36-.238-.021-.639-.12-.818-.22-.939-.54-1.04-.34-1.619-.44l-.64.14-3.718 1.64c-.521.24-3.199.26-3.778-.18.559-.899.679-2.698.619-3.799z"/>
  <path fill="none" stroke="#000" stroke-miterlimit="3.863" stroke-width=".2" d="m41.729 33.203 2.339-.221 4.258-.818 1.819-.32.919 2.219c-.699.2-1.239.261-1.88.36-.238-.021-.639-.12-.818-.22-.939-.54-1.04-.34-1.619-.44l-.64.14-3.718 1.64c-.521.24-3.199.26-3.778-.18.559-.899.679-2.698.619-3.799z"/>
  <path fill-rule="evenodd" d="m24.479 42.039-2.16-2.339.419-.38 2.139 2.339z" clip-rule="evenodd"/>
  <path fill="none" stroke="#000" stroke-miterlimit="3.863" stroke-width=".2" d="m24.479 42.039-2.16-2.339.419-.38 2.139 2.339z"/>
  <path fill-rule="evenodd" d="m20.799 38.161-.339-.48.519-.38.36.46z" clip-rule="evenodd"/>
  <path fill="none" stroke="#000" stroke-miterlimit="3.863" stroke-width=".2" d="m20.799 38.161-.339-.48.519-.38.36.46z"/>
</svg>
