<svg xmlns="http://www.w3.org/2000/svg" xml:space="preserve" viewBox="0 0 79.403 79.271" role="img" aria-labelledby="title">
  <title id="title">Verkehrszeichen C15 - No entry for horse riders</title>
  <path fill="#ed1c24" fill-rule="evenodd" d="M39.721 0c30.504 0 49.576 33.023 34.303 59.45-15.232 26.427-53.374 26.427-68.646 0S9.176 0 39.721 0" clip-rule="evenodd"/>
  <path fill="none" d="M39.721 0c30.504 0 49.576 33.023 34.303 59.45-15.232 26.427-53.374 26.427-68.646 0S9.176 0 39.721 0"/>
  <path fill="#fff" fill-rule="evenodd" d="M39.681 68.286c-22.069 0-35.862-23.868-24.828-42.979 11.035-19.11 38.662-19.15 49.696 0 11.034 19.111-2.759 42.979-24.868 42.979" clip-rule="evenodd"/>
  <path fill="none" d="M39.681 68.286c-22.069 0-35.862-23.868-24.828-42.979 11.035-19.11 38.662-19.15 49.696 0 11.034 19.111-2.759 42.979-24.868 42.979"/>
  <path d="M19.451 33.383c.16 0 1.239.801 1.399.841 5.878 3.998 1.999 6.597 6.157 10.435l-4.517 4.797c0 .04-.08.08-.04.16-.36.521-.44 1.16-.36 1.799.08.04.919 2.879 1.479 3.56-.04.158.04.358.12.479 0 .04.04.12.08.16-.24.36-.36.8-.32 1.2.2.2.44.398.64.679l1.039-.559-.12-.801c-.08-.479-.319-.52-.559-.88 0-.08-.4-.759-.4-.839-.2-.2-.28-1.24-.4-1.519-.44-1.08.04-.4-.44-1.4.12-.16.12-.719.36-.639 2.079-1.48 4.158-2.919 6.277-4.398.68 1.079 1.959 2.519 2.399 4.198.36 1.479 3.358 4.877 3.798 6.037.2.479-.36 1.199-.36 1.759h1.479l-.12-1.08.36-.12-.799-1.159c-.68-1.039-.72-.84-1.32-1.959-.36-.72-.639-1.438-.759-2.118-.04-.12-.8-3.998-.44-5.837l.959-.681c1.48 0 2.719.12 4.238-.12 1.08-.16 3-.319 3.798-.879 1.839-.56 2.439-1.359 2.959-1.52.08 0-.04.04 0 0 0 0 .04.92 1.398 3.119.561 1.238 1.959 2.519.881 3.798-.44.56-2.439 2.759-2.64 3.237 0 .16-.12.36-.239.48 0 .08-.08.12-.041.24-.199.12-.319.319-.439.52.04.44-.318.64-.04 1.079.28.16.2.68.28.92l1.039-.92-.359-.36.359-.198-.199-.48c-.08-.16.08-.359.12-.52.52-.84 1.198-1.399 1.879-2.039 1.039-.959 2.039-1.799 2.918-2.839.399-.72.2-1.6.28-2.438.08.12.08.2.08.359.119.12.24.319.24.479.719.8 1.719 1.72 2.719 2.279.56.32.799.36 1.238.68.521.08 1.16 1.039 1 1.64l.24 4.478c.08.12.08.28.08.44-.561.318-.68.919-.6 1.599h1.358l-.079-1.24.239-.08c.16-.04-.36-2.478-.16-3.518.24-3.038.761-1.839.28-3.558-.32-1.08-.999-.841-1.52-1.8-.359 0-1.959-2.799-2.358-4.038-.32-.96-.4-3.878-.12-4.638.4-1.119.12-2.639-.359-3.438.159-.12.439 0 .6-.04.119.08.199.159.359.159 1.959 1.359 1.439 3.479 2.279 5.397l.12.12c-.04.08.04.12.04.2.158.64.759 1.039 1.398.919.521-.359 1.119-.759 1.64-.64l-2.958-5.677c-.52-.76-1.08-1-1.44-1.32-.879-.319-1.319-.239-2.198-.279-1.959-.12-2.08-1.56-4.039-1.64-3.357-.119-3.397-.119-5.196 0-.28 0-1.359.36-1.24.16l.04-.279-1.238.039.479-1.118-.36-.28-1.479 1.479c0-.839-.16-1.118-.36-1.679-.4-.479-.48-.88-.8-1.239-.2-1.279-.599-5.438-3.798-6.236l-.04-.48-.36.12v-.6l.36.04-.24-.999.52-1.12c-.959-.08-2.799-1.159-3.358 0-.4 0-.6.12-.92.16l.84.319h.08l.04.721-.36.919h.36v.68c0 .2-.04.439.2.439.319-.159.679 0 1.039-.039l.44.239c.28 1.199-.72.64.28 2.998 0 .44-.44 1.159-.84 1.64-.6.84-.679.8-2.119 2.039-.719.079-1.039.399-1.119 1.119.2.2.32.399.6.52.159.04.279-.04.439-.04.4-.16.24-.799.32-.879.04-.04.12-.08.16-.08.16.2.32.36.48.52.6-.04.959-.68 2.199-1.399.04-.439.799-.399.759-.839 0-.16.08.239.2.319-.08.839.32 1.56-.24 2.358l-1.039 1.479h-1.319c-.76 0-1.72-.119-1.959-.479-1.64-.96-2.439-1.279-3.799-2.239-3.198-2.279-6.556-2.959-7.596-2.959-.44 0-.879-.358-1.159-.599v-.2c-.16-.4-.64-.68-.6-1.16l-.28.92-.719-.88c-.04.04-.08.12-.08.2.239.479 0 1.08.08 1.6-.08.04-.08.119-.12.159 0 .32-.16.64-.32.88.12.8-.8 1.199-.52 2.039-.12 1-.4 1.479-.76 2.399-.279.68-.319 1.238-.24 2.199.04.399.52.679.96.759.12 0 .16-.16.28-.2.08.12.12.24.24.36.32 0 .36.119.599-.12-.04-.279.28-.479.28-.76 1.601-1.798 1.601-1.638 2.44-2.958"/>
  <path fill="none" stroke="#000" stroke-miterlimit="3.863" stroke-width=".2" d="M19.451 33.383c.16 0 1.239.801 1.399.841 5.878 3.998 1.999 6.597 6.157 10.435l-4.517 4.797c0 .04-.08.08-.04.16-.36.521-.44 1.16-.36 1.799.08.04.919 2.879 1.479 3.56-.04.158.04.358.12.479 0 .04.04.12.08.16-.24.36-.36.8-.32 1.2.2.2.44.398.64.679l1.039-.559-.12-.801c-.08-.479-.319-.52-.559-.88 0-.08-.4-.759-.4-.839-.2-.2-.28-1.24-.4-1.519-.44-1.08.04-.4-.44-1.4.12-.16.12-.719.36-.639 2.079-1.48 4.158-2.919 6.277-4.398.68 1.079 1.959 2.519 2.399 4.198.36 1.479 3.358 4.877 3.798 6.037.2.479-.36 1.199-.36 1.759h1.479l-.12-1.08.36-.12-.799-1.159c-.68-1.039-.72-.84-1.32-1.959-.36-.72-.639-1.438-.759-2.118-.04-.12-.8-3.998-.44-5.837l.959-.681c1.48 0 2.719.12 4.238-.12 1.08-.16 3-.319 3.798-.879 1.839-.56 2.439-1.359 2.959-1.52.08 0-.04.04 0 0 0 0 .04.92 1.398 3.119.561 1.238 1.959 2.519.881 3.798-.44.56-2.439 2.759-2.64 3.237 0 .16-.12.36-.239.48 0 .08-.08.12-.041.24-.199.12-.319.319-.439.52.04.44-.318.64-.04 1.079.28.16.2.68.28.92l1.039-.92-.359-.36.359-.198-.199-.48c-.08-.16.08-.359.12-.52.52-.84 1.198-1.399 1.879-2.039 1.039-.959 2.039-1.799 2.918-2.839.399-.72.2-1.6.28-2.438.08.12.08.2.08.359.119.12.24.319.24.479.719.8 1.719 1.72 2.719 2.279.56.32.799.36 1.238.68.521.08 1.16 1.039 1 1.64l.24 4.478c.08.12.08.28.08.44-.561.318-.68.919-.6 1.599h1.358l-.079-1.24.239-.08c.16-.04-.36-2.478-.16-3.518.24-3.038.761-1.839.28-3.558-.32-1.08-.999-.841-1.52-1.8-.359 0-1.959-2.799-2.358-4.038-.32-.96-.4-3.878-.12-4.638.4-1.119.12-2.639-.359-3.438.159-.12.439 0 .6-.04.119.08.199.159.359.159 1.959 1.359 1.439 3.479 2.279 5.397l.12.12c-.04.08.04.12.04.2.158.64.759 1.039 1.398.919.521-.359 1.119-.759 1.64-.64l-2.958-5.677c-.52-.76-1.08-1-1.44-1.32-.879-.319-1.319-.239-2.198-.279-1.959-.12-2.08-1.56-4.039-1.64-3.357-.119-3.397-.119-5.196 0-.28 0-1.359.36-1.24.16l.04-.279-1.238.039.479-1.118-.36-.28-1.479 1.479c0-.839-.16-1.118-.36-1.679-.4-.479-.48-.88-.8-1.239-.2-1.279-.599-5.438-3.798-6.236l-.04-.48-.36.12v-.6l.36.04-.24-.999.52-1.12c-.959-.08-2.799-1.159-3.358 0-.4 0-.6.12-.92.16l.84.319h.08l.04.721-.36.919h.36v.68c0 .2-.04.439.2.439.319-.159.679 0 1.039-.039l.44.239c.28 1.199-.72.64.28 2.998 0 .44-.44 1.159-.84 1.64-.6.84-.679.8-2.119 2.039-.719.079-1.039.399-1.119 1.119.2.2.32.399.6.52.159.04.279-.04.439-.04.4-.16.24-.799.32-.879.04-.04.12-.08.16-.08.16.2.32.36.48.52.6-.04.959-.68 2.199-1.399.04-.439.799-.399.759-.839 0-.16.08.239.2.319-.08.839.32 1.56-.24 2.358l-1.039 1.479h-1.319c-.76 0-1.72-.119-1.959-.479-1.64-.96-2.439-1.279-3.799-2.239-3.198-2.279-6.556-2.959-7.596-2.959-.44 0-.879-.358-1.159-.599v-.2c-.16-.4-.64-.68-.6-1.16l-.28.92-.719-.88c-.04.04-.08.12-.08.2.239.479 0 1.08.08 1.6-.08.04-.08.119-.12.159 0 .32-.16.64-.32.88.12.8-.8 1.199-.52 2.039-.12 1-.4 1.479-.76 2.399-.279.68-.319 1.238-.24 2.199.04.399.52.679.96.759.12 0 .16-.16.28-.2.08.12.12.24.24.36.32 0 .36.119.599-.12-.04-.279.28-.479.28-.76 1.601-1.798 1.601-1.638 2.44-2.958z"/>
  <path d="M31.445 32.624c.56.479 1.28 1.799-.24 1.56-.04 0-.4-.521-.479-.48-.24-.24.04-.479.04-.72 0-.12.159.12.199.24-.12.439.32.8.76.72.04-.08-.08.04 0 0 0-.12.28.04.08-.48-.08-.199-.56-.319-.6-.52z"/>
  <path fill="none" stroke="#000" stroke-miterlimit="3.863" stroke-width=".2" d="M31.445 32.624c.56.479 1.28 1.799-.24 1.56-.04 0-.4-.521-.479-.48-.24-.24.04-.479.04-.72 0-.12.159.12.199.24-.12.439.32.8.76.72.04-.08-.08.04 0 0 0-.12.28.04.08-.48-.08-.199-.56-.319-.6-.52z"/>
  <path d="m17.012 36.342-.04.48c1.24-.4 3.479-.76 5.078-1.56l-.32-.32c-1.599.8-3.478 1-4.718 1.4"/>
  <path fill="none" stroke="#000" stroke-miterlimit="3.863" stroke-width=".2" d="m17.012 36.342-.04.48c1.24-.4 3.479-.76 5.078-1.56l-.32-.32c-1.599.8-3.478 1-4.718 1.4z"/>
  <path d="m30.166 32.464.24.319-1.4.2-.399-.279z"/>
  <path fill="none" stroke="#000" stroke-miterlimit="3.863" stroke-width=".2" d="m30.166 32.464.24.319-1.4.2-.399-.279z"/>
</svg>
