<svg xmlns="http://www.w3.org/2000/svg" xml:space="preserve" viewBox="0 0 78.859 78.741" role="img" aria-labelledby="title">
  <title id="title">Verkehrszeichen C23 - No entry for drivers of motor vehicles and combination vehicles designed and constructed for the transport of goods.</title>
  <path fill="#ed1c24" fill-rule="evenodd" d="M39.428 0c30.324 0 49.253 32.795 34.091 59.043-15.131 26.249-53.021 26.28-68.184 0C-9.827 32.795 9.134 0 39.428 0" clip-rule="evenodd"/>
  <path fill="none" d="M39.428 0c30.324 0 49.253 32.795 34.091 59.043-15.131 26.249-53.021 26.28-68.184 0C-9.827 32.795 9.134 0 39.428 0"/>
  <path fill="#fff" fill-rule="evenodd" d="M39.428 67.813c-21.925 0-35.605-23.717-24.643-42.676 10.932-18.961 38.354-18.992 49.285 0 10.963 18.96-2.717 42.676-24.642 42.676" clip-rule="evenodd"/>
  <path fill="none" d="M39.428 67.813c-21.925 0-35.605-23.717-24.643-42.676 10.932-18.961 38.354-18.992 49.285 0 10.963 18.96-2.717 42.676-24.642 42.676"/>
  <path fill-rule="evenodd" d="M62.65 47.155H17.349v-.803H62.65z" clip-rule="evenodd"/>
  <path fill="none" d="M62.65 47.155H17.349v-.803H62.65z"/>
  <path d="m28.156 44.128 17.54.031c.186 1.234 1.327 2.162 2.594 2.162s2.347-.958 2.595-2.162h3.459V30.603h-21c-.586 0-1.019.432-1.019 1.05h-4.601c-.062-.062-.154-.062-.278-.062-.463 0-.864.247-1.112.648l-2.007 3.768c-.339.432-.463.123-1.081.803-.432.525-.802 1.204-.895 1.791l-.803 4.477h-.926v1.05h2.347c.216 1.235 1.327 2.193 2.593 2.193 1.296 0 2.409-.958 2.594-2.193"/>
  <path fill="none" stroke="#000" stroke-miterlimit="3.863" stroke-width=".154" d="m28.156 44.128 17.54.031c.186 1.234 1.327 2.162 2.594 2.162s2.347-.958 2.595-2.162h3.459V30.603h-21c-.586 0-1.019.432-1.019 1.05h-4.601c-.062-.062-.154-.062-.278-.062-.463 0-.864.247-1.112.648l-2.007 3.768c-.339.432-.463.123-1.081.803-.432.525-.802 1.204-.895 1.791l-.803 4.477h-.926v1.05h2.347c.216 1.235 1.327 2.193 2.593 2.193 1.296 0 2.409-.958 2.594-2.193z"/>
  <path fill="#fff" d="M27.724 32.239h4.231v3.891l-7.01-.061 1.698-3.212c.216-.185.247-.587.402-.618.37-.123.432 0 .679 0"/>
  <path fill="none" stroke="#000" stroke-miterlimit="3.863" stroke-width=".154" d="M27.724 32.239h4.231v3.891l-7.01-.061 1.698-3.212c.216-.185.247-.587.402-.618.37-.123.432 0 .679 0z"/>
</svg>
