<svg xmlns="http://www.w3.org/2000/svg" xml:space="preserve" viewBox="0 0 78.916 78.899" role="img" aria-labelledby="title">
  <title id="title">Verkehrszeichen C24c - No entry for drivers of vehicles transporting polluting substances</title>
  <path fill="#ed1c24" fill-rule="evenodd" d="M39.458 78.899c-30.325 0-49.285-32.857-34.123-59.167s53.083-26.31 68.245 0-3.798 59.167-34.122 59.167" clip-rule="evenodd"/>
  <path fill="none" d="M39.458 78.899c-30.325 0-49.285-32.857-34.123-59.167s53.083-26.31 68.245 0-3.798 59.167-34.122 59.167"/>
  <path fill="#fff" fill-rule="evenodd" d="M39.458 67.535c-21.647 0-35.142-23.406-24.334-42.121 10.808-18.713 37.859-18.744 48.667 0 10.81 18.715-2.717 42.121-24.333 42.121" clip-rule="evenodd"/>
  <path fill="none" d="M39.458 67.535c-21.647 0-35.142-23.406-24.334-42.121 10.808-18.713 37.859-18.744 48.667 0 10.81 18.715-2.717 42.121-24.333 42.121"/>
  <path fill="#120c0e" d="M39.458 42.121c1.019-.031 2.069 1.143 3.087 1.143h7.258v-1.143h.308V40.67c0-.834.587-1.451 1.452-1.451.863 0 1.482.617 1.482 1.451.092.987-.154 1.729.4 2.594.186 1.451-.586 1.976-.4 3.49.153.801-.619 1.481-1.482 1.481-.865 0-1.452-.618-1.452-1.481l-.03-1.453h-.371v-1.172h-7.195c-1.174 0-1.729 1.512-3.056 1.234-1.266.277-1.791-1.234-2.965-1.234h-7.226v1.203h-.339v1.422c-.031.863-.649 1.481-1.452 1.481-.864 0-1.637-.618-1.513-1.481.216-1.453-.587-2.009-.371-3.429.525-.927.247-1.668.371-2.594 0-.896.649-1.513 1.513-1.513.803 0 1.452.617 1.452 1.513v1.42h.277v1.112h7.288c.988 0 1.977-1.174 2.965-1.112v-.03z"/>
  <path fill="none" stroke="#120c0e" stroke-miterlimit="3.863" stroke-width=".154" d="M39.458 42.121c1.019-.031 2.069 1.143 3.087 1.143h7.258v-1.143h.308V40.67c0-.834.587-1.451 1.452-1.451.863 0 1.482.617 1.482 1.451.092.987-.154 1.729.4 2.594.186 1.451-.586 1.976-.4 3.49.153.801-.619 1.481-1.482 1.481-.865 0-1.452-.618-1.452-1.481l-.03-1.453h-.371v-1.172h-7.195c-1.174 0-1.729 1.512-3.056 1.234-1.266.277-1.791-1.234-2.965-1.234h-7.226v1.203h-.339v1.422c-.031.863-.649 1.481-1.452 1.481-.864 0-1.637-.618-1.513-1.481.216-1.453-.587-2.009-.371-3.429.525-.927.247-1.668.371-2.594 0-.896.649-1.513 1.513-1.513.803 0 1.452.617 1.452 1.513v1.42h.277v1.112h7.288c.988 0 1.977-1.174 2.965-1.112v-.03z"/>
  <path fill="#ffcb04" fill-rule="evenodd" d="M53.478 38.26H25.562v-1.049h27.916z" clip-rule="evenodd"/>
  <path fill="none" d="M53.478 38.26H25.562v-1.049h27.916z"/>
  <path fill="#ffcb04" fill-rule="evenodd" d="M54.867 27.391c0 13.093-30.664 13.093-30.664 0 0-13.125 30.664-13.125 30.664 0" clip-rule="evenodd"/>
  <path fill="none" stroke="#2e3092" stroke-miterlimit="3.863" stroke-width="1.544" d="M18.984 53.424a10.41 10.41 0 0 0 8.214-.031 10.66 10.66 0 0 1 8.214.031 10.42 10.42 0 0 0 8.216-.031 10.66 10.66 0 0 1 8.213.031 10.68 10.68 0 0 0 8.215-.031M18.984 50.52a10.4 10.4 0 0 0 8.214-.03 10.67 10.67 0 0 1 8.214.03 10.4 10.4 0 0 0 8.216-.03 10.67 10.67 0 0 1 8.213.03 10.67 10.67 0 0 0 8.215-.03"/>
</svg>
