<svg xmlns="http://www.w3.org/2000/svg" xml:space="preserve" viewBox="0 0 77.626 77.526" role="img" aria-labelledby="title">
  <title id="title">Verkehrszeichen C24b - No entry for drivers of vehicles transporting inflammable or explosive substances</title>
  <path fill="#ed1c24" fill-rule="evenodd" d="M38.809 0c29.832 0 48.49 32.294 33.563 58.141-14.906 25.847-52.201 25.847-67.127 0C-9.661 32.294 8.977 0 38.809 0" clip-rule="evenodd"/>
  <path fill="none" d="M38.809 0c29.832 0 48.49 32.294 33.563 58.141-14.906 25.847-52.201 25.847-67.127 0C-9.661 32.294 8.977 0 38.809 0"/>
  <path fill="#fff" fill-rule="evenodd" d="M38.789 66.757c-21.548 0-35.029-23.328-24.244-42.004 10.784-18.677 37.725-18.677 48.509 0 10.784 18.676-2.695 42.004-24.265 42.004" clip-rule="evenodd"/>
  <path fill="none" d="M38.789 66.757c-21.548 0-35.029-23.328-24.244-42.004 10.784-18.677 37.725-18.677 48.509 0 10.784 18.676-2.695 42.004-24.265 42.004"/>
  <path fill="#ffcb04" fill-rule="evenodd" d="m21.636 41.281 7.561-5.275-4.318.391 3.849-2.677-4.825-2.735 5.392 1.407L18.51 22.213l10.296 5.373-4.005-7.991 6.701 3.458-.742-3.887 3.048 3.575 2.598-4.318.352 4.279 2.09-8.206.978 7.366 3.125-5.178.293 6.174 6.681-5.529-.312 8.518 3.244-1.661-2.697 3.615 5.744 1.66-5.119 1.661 12.543 3.927-13.09 1.445 6.31 6.642-8.381-2.5 3.263 7.033-8.655-4.102-.527 4.102-2.814-5.373-3.087 5.412-.332-5.705-5.333 6.448 1.328-5.959-6.662 1.894 4.982-3.691z" clip-rule="evenodd"/>
  <path fill="none" stroke="#ffcb04" stroke-miterlimit="3.863" stroke-width="1.172" d="m21.636 41.281 7.561-5.275-4.318.391 3.849-2.677-4.825-2.735 5.392 1.407L18.51 22.213l10.296 5.373-4.005-7.991 6.701 3.458-.742-3.887 3.048 3.575 2.598-4.318.352 4.279 2.09-8.206.978 7.366 3.125-5.178.293 6.174 6.681-5.529-.312 8.518 3.244-1.661-2.697 3.615 5.744 1.66-5.119 1.661 12.543 3.927-13.09 1.445 6.31 6.642-8.381-2.5 3.263 7.033-8.655-4.102-.527 4.102-2.814-5.373-3.087 5.412-.332-5.705-5.333 6.448 1.328-5.959-6.662 1.894 4.982-3.691z"/>
  <path fill="#120c0e" fill-rule="evenodd" d="M48.441 31.923H28.142l-4.943 9.202-.293.273-.43.43-.429.586-.196.156-.078.312-.078.332v3.654l.039 1.563.313 1.621.234.781.391.667.527.427.625.198v4.727h3.146v-4.494h22.643v4.494h3.184v-4.727l.625-.198.568-.427.351-.667.235-.781.312-1.621.039-1.563v-3.654l-.079-.332-.272-.468-.431-.586-.43-.43-.293-.273z" clip-rule="evenodd"/>
  <path fill="none" d="M48.441 31.923H28.142l-4.943 9.202-.293.273-.43.43-.429.586-.196.156-.078.312-.078.332v3.654l.039 1.563.313 1.621.234.781.391.667.527.427.625.198v4.727h3.146v-4.494h22.643v4.494h3.184v-4.727l.625-.198.568-.427.351-.667.235-.781.312-1.621.039-1.563v-3.654l-.079-.332-.272-.468-.431-.586-.43-.43-.293-.273z"/>
  <path fill="#fff" fill-rule="evenodd" d="m50.726 47.923-.762-.117-.625-.469-.39-.546-.157-.391-.039-.333.039-.429.157-.39.39-.665.625-.391.352-.117.41-.039.391.039.352.117.625.391.431.665.116.819-.116.724-.431.546-.625.469zM25.934 47.962l-.547-.078-.469-.195-.39-.352-.313-.39-.195-.43-.039-.45.039-.547.195-.509.352-.428.391-.274.468-.195.508-.078.489.078.43.195.429.274.313.428.234.509.079.547-.079.45-.234.43-.274.39-.39.352-.508.195zM39.865 32.822h7.951l4.043 8.264-3.301-.43-3.38-.352-3.458-.195-3.38-.039-3.438.039-3.458.195-3.38.352-3.302.43 4.044-8.264z" clip-rule="evenodd"/>
  <path fill="#120c0e" d="M21.695 56.226h33.232v1.094H21.695z"/>
  <path fill="none" d="M54.927 56.226H21.695v1.094h33.232z"/>
  <path fill="#fff" d="M29.49 48.08h17.563v.469H29.49z"/>
  <path fill="none" d="M47.053 48.08H29.49v.469h17.563z"/>
  <path fill="#fff" d="M30.545 46.146h15.493v.488H30.545z"/>
  <path fill="none" d="M46.037 46.146H30.544v.488h15.492z"/>
  <path fill="#fff" d="M31.131 49.896h14.28v.469h-14.28z"/>
  <path fill="none" d="M45.412 49.897h-14.28v.469h14.28z"/>
  <path fill-rule="evenodd" d="m39.297 24.909.039 1.505.275-.938-.099 1.153.196-.333-.097.762.547-.859-.314 1.074.275-.195-.196.586.391-.274-.273.645.683-.137-.626.801.392.352-.41.332.527.86-.664-.254.116.41-.194-.117.429 1.485-.468-.958.039.508-.215-.488.039.606-.177-.45.117 1.387-.371-1.309-.078.958-.116-.919-.216 1.485-.02-1.231-.175.547.019-.722-.43 1.25.215-1.563-.234.313.156-.782-.41.508.293-1.075-.664.137.508-.723-.411-.097.411-.391-.411-.332.489-.235-.235-.605.293.176-.078-.332.196.117-.293-1.27.468.801-.097-1.211.273.84.02-1.466.215 1.153.058-.742.098.644z" clip-rule="evenodd"/>
  <path fill="none" stroke="#000" stroke-miterlimit="3.863" stroke-width="1.172" d="m39.297 24.909.039 1.505.275-.938-.099 1.153.196-.333-.097.762.547-.859-.314 1.074.275-.195-.196.586.391-.274-.273.645.683-.137-.626.801.392.352-.41.332.527.86-.664-.254.116.41-.194-.117.429 1.485-.468-.958.039.508-.215-.488.039.606-.177-.45.117 1.387-.371-1.309-.078.958-.116-.919-.216 1.485-.02-1.231-.175.547.019-.722-.43 1.25.215-1.563-.234.313.156-.782-.41.508.293-1.075-.664.137.508-.723-.411-.097.411-.391-.411-.332.489-.235-.235-.605.293.176-.078-.332.196.117-.293-1.27.468.801-.097-1.211.273.84.02-1.466.215 1.153.058-.742.098.644z"/>
  <path fill="#ffcb04" fill-rule="evenodd" d="M39.297 28.074v.723l.098-.449-.038.547.059-.156-.021.351.177-.41-.099.508.099-.078-.078.273.135-.137-.096.313.233-.059-.215.372.138.175-.138.157.176.41-.215-.137.039.215-.078-.058.156.703-.174-.45.018.235-.078-.235.021.294-.059-.215.038.664-.116-.625-.039.449-.039-.43-.06.704-.018-.587-.059.254.018-.332-.156.586.078-.742-.078.156.039-.371-.117.235.098-.508-.235.058.176-.332-.137-.058.137-.176-.137-.157.157-.117-.079-.293.098.078-.019-.156.058.059-.097-.606.156.391-.02-.586.078.41.02-.703.06.547.018-.352.039.313z" clip-rule="evenodd"/>
  <path fill="none" d="M39.297 28.074v.723l.098-.449-.038.547.059-.156-.021.351.177-.41-.099.508.099-.078-.078.273.135-.137-.096.313.233-.059-.215.372.138.175-.138.157.176.41-.215-.137.039.215-.078-.058.156.703-.174-.45.018.235-.078-.235.021.294-.059-.215.038.664-.116-.625-.039.449-.039-.43-.06.704-.018-.587-.059.254.018-.332-.156.586.078-.742-.078.156.039-.371-.117.235.098-.508-.235.058.176-.332-.137-.058.137-.176-.137-.157.157-.117-.079-.293.098.078-.019-.156.058.059-.097-.606.156.391-.02-.586.078.41.02-.703.06.547.018-.352.039.313z"/>
  <path d="M45.451 25.613c-.272.547-.703.762-.78 1.504.155-.039.332-.059.487-.098.373-.351.49-1.817.293-1.406"/>
  <path fill="none" d="M45.451 25.613c-.272.547-.703.762-.78 1.504.155-.039.332-.059.487-.098.373-.351.49-1.817.293-1.406"/>
  <path d="M46.35 28.778c-.606.019-1.094.429-1.327.859.194.098.428.156.663.117.392-.332.88-.449 1.406-.488.04-.195.021-.41.06-.606-.293-.019-.625-.215-.802.118"/>
  <path fill="none" d="M46.35 28.778c-.606.019-1.094.429-1.327.859.194.098.428.156.663.117.392-.332.88-.449 1.406-.488.04-.195.021-.41.06-.606-.293-.019-.625-.215-.802.118"/>
  <path d="M27.302 27.586c.918.371 1.465 1.426 2.266 2.032-.117.019-.234.019-.371.058-.684.039-1.856-1.348-2.52-1.66a1.5 1.5 0 0 0-.313.078c-.254-.254-.215-.704 0-.977.332-.078.664.352.938.469"/>
  <path fill="none" d="M27.302 27.586c.918.371 1.465 1.426 2.266 2.032-.117.019-.234.019-.371.058-.684.039-1.856-1.348-2.52-1.66a1.5 1.5 0 0 0-.313.078c-.254-.254-.215-.704 0-.977.332-.078.664.352.938.469"/>
  <path d="M33.182 26.589c-.644-.214-.898-1.035-1.602-1.074-.097.293-.136.586-.234.879a.9.9 0 0 1 .117.293c.45.117 1.231.078 1.719-.098"/>
  <path fill="none" stroke="#000" stroke-miterlimit="3.863" stroke-width="1.172" d="M33.182 26.589c-.644-.214-.898-1.035-1.602-1.074-.097.293-.136.586-.234.879a.9.9 0 0 1 .117.293c.45.117 1.231.078 1.719-.098z"/>
  <path d="M27.556 22.428c.137.45.449.762.801 1.036v-.372c-.156-.273-.547-.468-.801-.664"/>
  <path fill="none" stroke="#000" stroke-miterlimit="3.863" stroke-width="1.172" d="M27.556 22.428c.137.45.449.762.801 1.036v-.372c-.156-.273-.547-.468-.801-.664z"/>
  <path d="M34.159 29.559c-.371-.254-.957-.254-1.328 0-.02.117-.059.234-.078.352.273-.196 1.367.273 1.406-.352"/>
  <path fill="none" d="M34.159 29.559c-.371-.254-.957-.254-1.328 0-.02.117-.059.234-.078.352.273-.196 1.367.273 1.406-.352"/>
  <path d="M35.996 22.428c.136.313.39.547.586.821.254-.02.488-.059.742-.078-.019-.118-.058-.254-.078-.372-.273-.429-.899-.449-1.094-.957-.039.137-.215.469-.156.586"/>
  <path fill="none" stroke="#000" stroke-miterlimit="3.863" stroke-width="1.172" d="M35.996 22.428c.136.313.39.547.586.821.254-.02.488-.059.742-.078-.019-.118-.058-.254-.078-.372-.273-.429-.899-.449-1.094-.957-.039.137-.215.469-.156.586z"/>
  <path d="M41.642 21.549c-.039.606-.059 1.27-.352 1.836h.352c-.215-.664.313-1.289 0-1.836"/>
  <path fill="none" stroke="#000" stroke-miterlimit="3.863" stroke-width="1.172" d="M41.642 21.549c-.039.606-.059 1.27-.352 1.836h.352c-.215-.664.313-1.289 0-1.836z"/>
  <path d="M52.445 33.994c.646-.078 1.192.312 1.721.625.078-.039.156-.078.234-.098.02-.078.059-.156.098-.234-.039-.098-.059-.195-.098-.293-.763-.098-.899-1.016-1.72-.977-.254.234.019.742-.235.977"/>
  <path fill="none" stroke="#000" stroke-miterlimit="3.863" stroke-width="1.172" d="M52.445 33.994c.646-.078 1.192.312 1.721.625.078-.039.156-.078.234-.098.02-.078.059-.156.098-.234-.039-.098-.059-.195-.098-.293-.763-.098-.899-1.016-1.72-.977-.254.234.019.742-.235.977z"/>
  <path d="M51.351 29.031c-.742-.058-1.367.333-1.992.665.098.078.195.136.293.215.605-.039 1.231-.02 1.836-.059.078-.078.138-.176.215-.234.039-.235.098-.547-.352-.587"/>
  <path fill="none" stroke="#000" stroke-miterlimit="3.863" stroke-width="1.172" d="M51.351 29.031c-.742-.058-1.367.333-1.992.665.098.078.195.136.293.215.605-.039 1.231-.02 1.836-.059.078-.078.138-.176.215-.234.039-.235.098-.547-.352-.587z"/>
  <path d="M46.859 22.213c.137.45.448.762.801 1.036v-.371c-.157-.274-.547-.469-.801-.665"/>
  <path fill="none" stroke="#000" stroke-miterlimit="3.863" stroke-width="1.172" d="M46.859 22.213c.137.45.448.762.801 1.036v-.371c-.157-.274-.547-.469-.801-.665z"/>
</svg>
