<svg xmlns="http://www.w3.org/2000/svg" xml:space="preserve" viewBox="0 0 78.917 78.901" role="img" aria-labelledby="title">
  <title id="title">Verkehrszeichen C39 - No overtaking of carriages or vehicles with more than two wheels by drivers of vehicles or combination vehicles used for goods transport with maximum allowed mass over 3500kg until the next intersection</title>
  <path fill="#ed1c24" fill-rule="evenodd" d="M39.458 78.901c-30.325 0-49.285-32.857-34.123-59.168s53.083-26.311 68.246 0c15.163 26.31-3.798 59.168-34.123 59.168" clip-rule="evenodd"/>
  <path fill="none" d="M39.458 78.901c-30.325 0-49.285-32.857-34.123-59.168s53.083-26.311 68.246 0c15.163 26.31-3.798 59.168-34.123 59.168"/>
  <path fill="#fff" fill-rule="evenodd" d="M39.458 67.908c-21.925 0-35.605-23.718-24.643-42.678 10.932-18.961 38.354-18.991 49.286 0 10.963 18.96-2.717 42.678-24.643 42.678" clip-rule="evenodd"/>
  <path fill="none" d="M39.458 67.908c-21.925 0-35.605-23.718-24.643-42.678 10.932-18.961 38.354-18.991 49.286 0 10.963 18.96-2.717 42.678-24.643 42.678"/>
  <path fill="#120c0e" d="M18.397 55.741h23.747V52.9h-.525c-1.266-1.915-.987-3.829-.987-6.641 0-.617.433-.617.556-.802.124-.124.247-.063.309-.124l2.595-6.547h14.606l3.057 6.484c.124.063.216 0 .34.094.124.185.525.185.525.834 0 2.778.216 4.539-1.112 6.454h-.803v3.088h.556v.524H17.935v-.524z"/>
  <path fill="none" stroke="#120c0e" stroke-miterlimit="3.863" stroke-width=".154" d="M18.397 55.741h23.747V52.9h-.525c-1.266-1.915-.987-3.829-.987-6.641 0-.617.433-.617.556-.802.124-.124.247-.063.309-.124l2.595-6.547h14.606l3.057 6.484c.124.063.216 0 .34.094.124.185.525.185.525.834 0 2.778.216 4.539-1.112 6.454h-.803v3.088h.556v.524H17.935v-.524z"/>
  <path fill="#fff" d="M61.137 45.118c-2.902-.402-6.64-.278-9.295-.371-2.718.093-6.423-.031-9.357.371l2.192-5.651h13.589z"/>
  <path fill="none" stroke="#120c0e" stroke-miterlimit="3.863" stroke-width=".154" d="M61.137 45.118c-2.902-.402-6.64-.278-9.295-.371-2.718.093-6.423-.031-9.357.371l2.192-5.651h13.589z"/>
  <path fill="#fff" d="M58.327 55.801H44.554v-2.872h13.773z"/>
  <path fill="none" stroke="#120c0e" stroke-miterlimit="3.863" stroke-width=".154" d="M58.327 55.801H44.554v-2.872h13.773z"/>
  <path fill="#ed1c24" d="M34.394 55.554h2.903v-4.199h1.451l-.03-25.909c0-.957-.803-1.729-1.73-1.729H18.831c-.958 0-1.73.771-1.73 1.636v25.909l1.297.031v4.261h3.057l-.03-4.292h12.938z"/>
  <path fill="none" stroke="#ed1c24" stroke-miterlimit="3.863" stroke-width=".154" d="M34.394 55.554h2.903v-4.199h1.451l-.03-25.909c0-.957-.803-1.729-1.73-1.729H18.831c-.958 0-1.73.771-1.73 1.636v25.909l1.297.031v4.261h3.057l-.03-4.292h12.938z"/>
</svg>
