<svg xmlns="http://www.w3.org/2000/svg" xml:space="preserve" viewBox="0 0 79.891 79.783" role="img" aria-labelledby="title">
  <title id="title">Verkehrszeichen C3 - No entry, in both directions, for all drivers.</title>
  <path fill="#ed1c24" fill-rule="evenodd" d="M39.953 0c30.7 0 49.89 33.234 34.532 59.837-15.342 26.587-53.722 26.602-69.08 0C-9.954 33.234 9.252 0 39.953 0" clip-rule="evenodd"/>
  <path fill="none" d="M39.953 0c30.7 0 49.89 33.234 34.532 59.837-15.342 26.587-53.722 26.602-69.08 0C-9.954 33.234 9.252 0 39.953 0"/>
  <path fill="#fff" fill-rule="evenodd" d="M39.937 68.704c-22.192 0-36.064-24.022-24.96-43.228 11.088-19.221 38.833-19.221 49.921 0 11.088 19.206-2.785 43.228-24.961 43.228" clip-rule="evenodd"/>
  <path fill="none" d="M39.937 68.704c-22.192 0-36.064-24.022-24.96-43.228 11.088-19.221 38.833-19.221 49.921 0 11.088 19.206-2.785 43.228-24.961 43.228"/>
</svg>
