<svg xmlns="http://www.w3.org/2000/svg" xml:space="preserve" viewBox="0 0 79.311 79.583" role="img" aria-labelledby="title">
  <title id="title">Verkehrszeichen C29 - No entry for drivers of vehicles which are higher than indicated (including the cargo)</title>
  <path fill="#ed1c24" fill-rule="evenodd" d="M39.642 79.583c-30.479 0-49.524-33.146-34.269-59.682 15.224-26.536 53.346-26.536 68.571 0 15.254 26.537-3.822 59.682-34.302 59.682" clip-rule="evenodd"/>
  <path fill="none" d="M39.643 79.583c-30.479 0-49.525-33.146-34.27-59.682 15.224-26.536 53.346-26.536 68.571 0 15.254 26.537-3.822 59.682-34.301 59.682"/>
  <path fill="#fff" fill-rule="evenodd" d="M39.642 68.109c-21.749 0-35.326-23.604-24.452-42.469 10.875-18.865 38.06-18.865 48.935 0s-2.703 42.469-24.483 42.469" clip-rule="evenodd"/>
  <path fill="none" d="M39.643 68.109c-21.749 0-35.327-23.604-24.452-42.47 10.875-18.865 38.06-18.865 48.935 0s-2.704 42.47-24.483 42.47"/>
  <path fill="#120c0e" d="M29.825 13.26c3.044-1.091 6.275-1.777 9.663-1.777 3.511 0 6.804.655 9.88 1.808l-9.756 9.792z"/>
  <path fill="none" stroke="#120c0e" stroke-miterlimit="3.863" stroke-width=".156" d="M29.825 13.26c3.044-1.091 6.275-1.777 9.663-1.777 3.511 0 6.804.655 9.88 1.808l-9.756 9.792z"/>
  <path fill="#120c0e" d="m29.856 66.175 9.786-9.821 9.788 9.821a28.8 28.8 0 0 1-9.912 1.746c-3.417 0-6.586-.623-9.662-1.746"/>
  <path fill="none" stroke="#120c0e" stroke-miterlimit="3.863" stroke-width=".156" d="m29.856 66.175 9.787-9.821 9.788 9.821a28.8 28.8 0 0 1-9.912 1.746c-3.418 0-6.587-.623-9.663-1.746z"/>
  <path fill="#120c0e" d="M49.46 27.916v7.266l-1.337-.063v-6.797c0-.624-.496-1.091-1.086-1.091-.56 0-1.057.467-1.057 1.091v6.891h-1.46v-6.891c0-.561-.496-1.06-1.086-1.06-.561 0-1.027.499-1.027 1.06v6.922h-1.521v-9.136h1.553v.25c.373-.281.809-.499 1.307-.499.9 0 1.584.53 1.863 1.278.311-.717.994-1.185 1.834-1.185 1.116-.001 2.017.841 2.017 1.964"/>
  <path fill="none" stroke="#120c0e" stroke-miterlimit="3.863" stroke-width=".156" d="M49.46 27.916v7.266l-1.337-.063v-6.797c0-.624-.496-1.091-1.086-1.091-.56 0-1.057.467-1.057 1.091v6.891h-1.46v-6.891c0-.561-.496-1.06-1.086-1.06-.561 0-1.027.499-1.027 1.06v6.922h-1.521v-9.136h1.553v.25c.373-.281.809-.499 1.307-.499.9 0 1.584.53 1.863 1.278.311-.717.994-1.185 1.834-1.185 1.116-.001 2.017.841 2.017 1.964z"/>
  <path fill="#120c0e" d="M42.75 46.126c.372-.157.715-.249 1.118-.249a2.907 2.907 0 0 1 2.89 2.898v1.902c0 1.622-1.335 2.932-2.89 2.932a2.944 2.944 0 0 1-2.921-2.932c0-.156 0-.28.063-.406h1.553v.406c0 .717.559 1.278 1.273 1.278s1.273-.562 1.273-1.278v-2.244c0-.718-.527-1.248-1.242-1.248-.434 0-.838.25-1.057.561h-1.77v-5.644h5.467v1.528H42.75z"/>
  <path fill="none" stroke="#120c0e" stroke-miterlimit="3.863" stroke-width=".156" d="M42.75 46.125c.372-.156.715-.248 1.118-.248a2.907 2.907 0 0 1 2.89 2.898v1.902c0 1.622-1.335 2.932-2.89 2.932a2.944 2.944 0 0 1-2.921-2.932c0-.156 0-.28.063-.406h1.553v.406c0 .717.559 1.278 1.273 1.278s1.273-.562 1.273-1.278v-2.245c0-.717-.527-1.247-1.242-1.247-.434 0-.838.25-1.057.561h-1.77v-5.644h5.467v1.528H42.75z"/>
  <path fill="#120c0e" d="M54.213 44.785v5.987c0 1.59-1.273 2.931-2.857 2.931-1.615 0-2.92-1.341-2.92-2.931v-5.987c0-1.59 1.305-2.868 2.92-2.868a2.855 2.855 0 0 1 2.857 2.868"/>
  <path fill="none" stroke="#120c0e" stroke-miterlimit="3.863" stroke-width=".156" d="M54.213 44.785v5.987c0 1.59-1.273 2.931-2.857 2.931-1.615 0-2.92-1.341-2.92-2.931v-5.987c0-1.59 1.305-2.868 2.92-2.868a2.855 2.855 0 0 1 2.857 2.868z"/>
  <path fill="#fff" d="M52.661 44.847v5.987c0 .686-.591 1.31-1.273 1.31-.715 0-1.306-.624-1.306-1.31v-5.987c0-.749.591-1.341 1.306-1.341.682 0 1.273.592 1.273 1.341"/>
  <path fill="none" stroke="#120c0e" stroke-miterlimit="3.863" stroke-width=".156" d="M52.661 44.847v5.987c0 .686-.591 1.31-1.273 1.31-.715 0-1.306-.624-1.306-1.31v-5.987c0-.749.591-1.341 1.306-1.341.682 0 1.273.592 1.273 1.341z"/>
  <path fill="#120c0e" d="M24.512 45.721h3.822v1.715c0 1.559 1.274 2.836 2.92 2.836a2.84 2.84 0 0 0 2.828-2.836v-3.492c0-1.623-.84-2.869-3.107-2.839l-1.491-.03v-3.431h1.647c1.553 0 2.796-1.247 2.796-2.837v-2.526c0-1.559-1.274-2.838-2.765-2.838a2.85 2.85 0 0 0-2.859 2.838l.032 1.122h-3.542v-.966c0-3.524 2.828-6.361 6.37-6.361s6.37 2.837 6.37 6.361v2.213a6.42 6.42 0 0 1-1.834 4.522c1.43 1.248 2.362 3.056 2.362 5.176v2.246c0 3.742-3.014 6.734-6.773 6.734s-6.586-2.992-6.742-6.734z"/>
  <path fill="none" stroke="#120c0e" stroke-miterlimit="3.863" stroke-width=".156" d="M24.512 45.72h3.822v1.716c0 1.559 1.274 2.836 2.92 2.836a2.84 2.84 0 0 0 2.828-2.836v-3.492c0-1.623-.84-2.869-3.107-2.839l-1.491-.03v-3.431h1.647c1.553 0 2.796-1.247 2.796-2.837v-2.526c0-1.559-1.274-2.838-2.765-2.838a2.85 2.85 0 0 0-2.859 2.838l.032 1.122h-3.542v-.966c0-3.524 2.828-6.361 6.37-6.361s6.37 2.837 6.37 6.361v2.213a6.42 6.42 0 0 1-1.834 4.522c1.43 1.248 2.362 3.056 2.362 5.176v2.246c0 3.742-3.014 6.734-6.773 6.734s-6.586-2.992-6.742-6.734z"/>
</svg>
