<svg xmlns="http://www.w3.org/2000/svg" xml:space="preserve" viewBox="0 0 79.138 79.031" role="img" aria-labelledby="title">
  <title id="title">Verkehrszeichen C22 - No entry for drivers of coaches (fr: autocars) (this sign doesn&apos;t prohibit buses used as public transport)</title>
  <path fill="#ed1c24" fill-rule="evenodd" d="M39.576 0c30.411 0 49.42 32.921 34.208 59.273-15.199 26.336-53.217 26.353-68.43 0C-9.86 32.921 9.165 0 39.576 0" clip-rule="evenodd"/>
  <path fill="none" d="M39.576 0c30.411 0 49.42 32.921 34.208 59.273-15.199 26.336-53.217 26.353-68.43 0C-9.86 32.921 9.165 0 39.576 0"/>
  <path fill="#fff" fill-rule="evenodd" d="M39.544 68.042c-21.968 0-35.694-23.78-24.71-42.82 10.984-19.024 38.453-19.024 49.436 0 10.984 19.04-2.743 42.82-24.726 42.82" clip-rule="evenodd"/>
  <path fill="none" d="M39.544 68.042c-21.968 0-35.694-23.78-24.71-42.82 10.984-19.024 38.453-19.024 49.436 0 10.984 19.04-2.743 42.82-24.726 42.82"/>
  <path fill-rule="evenodd" d="M25.771 36.825v-5.36h-6.305l-2.308 5.36zm.945 0h6.274v-5.36h-6.274zm7.221 0h6.259v-5.36h-6.259zm7.204 0h6.274v-5.36h-6.274zm7.218 0h6.26v-5.36h-6.26zm13.2 0-.65-5.36h-5.345v5.36zm1.224.729-.837-7.003H18.615l-3.005 6.972v7.05h5.484c0-2.341 1.735-4.245 3.873-4.245s3.873 1.904 3.873 4.245h19.427c0-2.341 1.735-4.245 3.873-4.245s3.873 1.904 3.873 4.245h7.297v-1.768h-.526z" clip-rule="evenodd"/>
  <path fill="none" d="M25.771 36.825v-5.36h-6.305l-2.308 5.36zm.945 0h6.274v-5.36h-6.274zm7.221 0h6.259v-5.36h-6.259zm7.204 0h6.274v-5.36h-6.274zm7.218 0h6.26v-5.36h-6.26zm13.2 0-.65-5.36h-5.345v5.36zm1.224.729-.837-7.003H18.615l-3.005 6.972v7.05h5.484c0-2.341 1.735-4.245 3.873-4.245s3.873 1.904 3.873 4.245h19.427c0-2.341 1.735-4.245 3.873-4.245s3.873 1.904 3.873 4.245h7.297v-1.768h-.526z"/>
  <path fill-rule="evenodd" d="M52.14 48.32c-2.634 0-4.291-3.13-2.974-5.623 1.315-2.511 4.631-2.494 5.949 0 1.316 2.493-.342 5.623-2.975 5.623" clip-rule="evenodd"/>
  <path fill="none" d="M52.14 48.32c-2.634 0-4.291-3.13-2.974-5.623 1.315-2.511 4.631-2.494 5.949 0 1.316 2.493-.342 5.623-2.975 5.623"/>
  <path fill-rule="evenodd" d="M24.966 48.32c-2.634 0-4.292-3.13-2.975-5.623 1.317-2.511 4.617-2.494 5.949 0 1.317 2.493-.339 5.623-2.974 5.623" clip-rule="evenodd"/>
  <path fill="none" d="M24.966 48.32c-2.634 0-4.292-3.13-2.975-5.623 1.317-2.511 4.617-2.494 5.949 0 1.317 2.493-.339 5.623-2.974 5.623"/>
  <path fill="none" d="M52.14 46.569c-1.41 0-2.277-1.657-1.58-3.005.696-1.333 2.463-1.316 3.16 0 .713 1.348-.171 3.005-1.58 3.005m-27.174 0c-1.41 0-2.293-1.657-1.58-3.005.697-1.333 2.463-1.316 3.16 0 .714 1.348-.186 3.005-1.58 3.005"/>
  <path fill-rule="evenodd" d="M63.34 49.87H15.579v-2.076H63.34z" clip-rule="evenodd"/>
  <path fill="none" d="M63.34 49.87H15.579v-2.076H63.34z"/>
</svg>
