<svg xmlns="http://www.w3.org/2000/svg" xml:space="preserve" viewBox="0 0 79.403 79.365" role="img" aria-labelledby="title">
  <title id="title">Verkehrszeichen C27 - No entry for drivers of vehicles which are wider than indicated (including the cargo)</title>
  <path fill="#ed1c24" fill-rule="evenodd" d="M39.682 79.365c-30.505 0-49.575-33.063-34.303-59.529 15.233-26.427 53.374-26.467 68.646 0s-3.798 59.529-34.343 59.529" clip-rule="evenodd"/>
  <path fill="none" d="M39.682 79.365c-30.505 0-49.575-33.063-34.303-59.529 15.233-26.427 53.374-26.467 68.646 0s-3.798 59.529-34.343 59.529"/>
  <path fill="#fff" fill-rule="evenodd" d="M39.682 67.931c-21.749 0-35.382-23.548-24.468-42.379 10.875-18.831 38.102-18.831 48.977 0s-2.72 42.379-24.509 42.379" clip-rule="evenodd"/>
  <path fill="none" d="M39.682 67.931c-21.749 0-35.382-23.548-24.468-42.379 10.875-18.831 38.102-18.831 48.977 0s-2.72 42.379-24.509 42.379"/>
  <path fill="#120c0e" d="M13.015 49.581c-1.079-3.038-1.759-6.277-1.759-9.675 0-3.519.64-6.797 1.799-9.875l9.755 9.755z"/>
  <path fill="none" stroke="#120c0e" stroke-miterlimit="3.863" stroke-width=".2" d="M13.015 49.581c-1.079-3.038-1.759-6.277-1.759-9.675 0-3.519.64-6.797 1.799-9.875l9.755 9.755z"/>
  <path fill="#120c0e" d="m66.149 49.581-9.795-9.795 9.795-9.795a28.9 28.9 0 0 1 1.759 9.916c0 3.436-.64 6.595-1.759 9.674"/>
  <path fill="none" stroke="#120c0e" stroke-miterlimit="3.863" stroke-width=".2" d="m66.149 49.581-9.795-9.795 9.795-9.795a28.9 28.9 0 0 1 1.759 9.916c0 3.436-.64 6.595-1.759 9.674z"/>
  <path fill="#120c0e" d="M29.167 49.781h9.436l.04 3.357H25.168v-4.557l8.476-14.433c.36-.48.56-1.04.56-1.719 0-1.559-1.24-2.839-2.799-2.839a2.85 2.85 0 0 0-2.838 2.839c0 .2-.08.399-.04.599H24.49c-.04-.159 0-.359 0-.519 0-3.838 3.078-6.957 6.916-6.957s6.917 3.119 6.917 6.957c0 1.039-.28 1.959-.72 2.838z"/>
  <path fill="none" stroke="#120c0e" stroke-miterlimit="3.863" stroke-width=".2" d="M29.167 49.781h9.436l.04 3.357H25.168v-4.557l8.476-14.433c.36-.48.56-1.04.56-1.719 0-1.559-1.24-2.839-2.799-2.839a2.85 2.85 0 0 0-2.838 2.839c0 .2-.08.399-.04.599H24.49c-.04-.159 0-.359 0-.519 0-3.838 3.078-6.957 6.916-6.957s6.917 3.119 6.917 6.957c0 1.039-.28 1.959-.72 2.838z"/>
  <path fill="#120c0e" d="M49.516 27.832v7.236l-1.358-.04v-6.796c0-.6-.479-1.08-1.08-1.08-.56 0-1.039.48-1.039 1.08v6.876H44.56v-6.876c0-.56-.479-1.04-1.08-1.04-.56 0-1.039.48-1.039 1.04v6.916h-1.519v-9.115h1.56v.24c.359-.28.799-.48 1.318-.48.881 0 1.559.52 1.84 1.279.319-.719 1-1.199 1.838-1.199 1.12 0 2.038.839 2.038 1.959"/>
  <path fill="none" stroke="#120c0e" stroke-miterlimit="3.863" stroke-width=".2" d="M49.516 27.832v7.236l-1.358-.04v-6.796c0-.6-.479-1.08-1.08-1.08-.56 0-1.039.48-1.039 1.08v6.876H44.56v-6.876c0-.56-.479-1.04-1.08-1.04-.56 0-1.039.48-1.039 1.04v6.916h-1.519v-9.115h1.56v.24c.359-.28.799-.48 1.318-.48.881 0 1.559.52 1.84 1.279.319-.719 1-1.199 1.838-1.199 1.12 0 2.038.839 2.038 1.959z"/>
  <path fill="#120c0e" d="M42.8 45.982c.359-.16.72-.24 1.119-.24a2.89 2.89 0 0 1 2.879 2.88v1.919c0 1.599-1.319 2.918-2.879 2.918A2.935 2.935 0 0 1 41 50.541c0-.16 0-.28.04-.4h1.56v.4c0 .719.56 1.279 1.279 1.279.721 0 1.279-.561 1.279-1.279v-2.239c0-.72-.52-1.239-1.239-1.239-.44 0-.84.239-1.079.56h-1.76v-5.638h5.479v1.52H42.8z"/>
  <path fill="none" stroke="#120c0e" stroke-miterlimit="3.863" stroke-width=".2" d="M42.8 45.982c.359-.16.72-.24 1.119-.24a2.89 2.89 0 0 1 2.879 2.88v1.919c0 1.599-1.319 2.918-2.879 2.918A2.935 2.935 0 0 1 41 50.541c0-.16 0-.28.04-.4h1.56v.4c0 .719.56 1.279 1.279 1.279.721 0 1.279-.561 1.279-1.279v-2.239c0-.72-.52-1.239-1.239-1.239-.44 0-.84.239-1.079.56h-1.76v-5.638h5.479v1.52H42.8z"/>
  <path fill="#120c0e" d="M54.274 44.664v5.957c0 1.599-1.278 2.918-2.879 2.918a2.934 2.934 0 0 1-2.918-2.918v-5.957c0-1.6 1.319-2.879 2.918-2.879a2.866 2.866 0 0 1 2.879 2.879"/>
  <path fill="none" stroke="#120c0e" stroke-miterlimit="3.863" stroke-width=".2" d="M54.274 44.664v5.957c0 1.599-1.278 2.918-2.879 2.918a2.934 2.934 0 0 1-2.918-2.918v-5.957c0-1.6 1.319-2.879 2.918-2.879a2.866 2.866 0 0 1 2.879 2.879z"/>
  <path fill="#fff" d="M52.715 44.704v5.997c0 .679-.6 1.279-1.279 1.279-.72 0-1.319-.601-1.319-1.279v-5.997c0-.72.6-1.32 1.319-1.32.68-.001 1.279.6 1.279 1.32"/>
  <path fill="none" stroke="#120c0e" stroke-miterlimit="3.863" stroke-width=".2" d="M52.715 44.704v5.997c0 .679-.6 1.279-1.279 1.279-.72 0-1.319-.601-1.319-1.279v-5.997c0-.72.6-1.32 1.319-1.32.68-.001 1.279.6 1.279 1.32z"/>
</svg>
