<svg xmlns="http://www.w3.org/2000/svg" viewBox="0 0 106.806 168.035" role="img" aria-labelledby="title">
  <title id="title">Verkehrszeichen D4 - Mandatory for vehicles with dangerous goods to follow the direction indicated by the arrow</title>
  <g transform="translate(73.754 -486.423)">
    <rect width="105.606" height="166.835" x="-73.154" y="487.023" rx="4.788" ry="5.986" style="fill:#fff;fill-opacity:1;stroke:#000;stroke-width:1.20000005;stroke-linecap:butt;stroke-linejoin:round;stroke-miterlimit:3.86299992;stroke-opacity:1;stroke-dasharray:none;stroke-dashoffset:0"/>
    <path d="M222.653 619.172c-30.525 0-49.595-33.06-34.333-59.496 15.263-26.438 53.42-26.453 68.683 0 15.262 26.437-3.824 59.496-34.35 59.496" clip-rule="evenodd" style="fill:#0071b3;fill-rule:evenodd" transform="matrix(.7096 0 0 .7104 -178.648 205.51)"/>
    <path stroke-miterlimit="3.863" d="M222.653 619.172c-30.525 0-49.595-33.06-34.333-59.496 15.263-26.438 53.42-26.453 68.683 0 15.262 26.437-3.824 59.496-34.35 59.496z" style="fill:none;stroke:#0071b3;stroke-width:.21830875;stroke-miterlimit:3.86299992" transform="matrix(.7096 0 0 .7104 -178.648 205.51)"/>
    <path d="M222.653 617.182c-29.002 0-47.124-31.41-32.623-56.527 14.485-25.117 50.746-25.117 65.247 0 14.501 25.116-3.622 56.527-32.624 56.527" clip-rule="evenodd" style="fill:#fff;fill-rule:evenodd" transform="matrix(.7096 0 0 .7104 -178.648 205.51)"/>
    <path stroke-miterlimit="3.863" d="M222.653 617.182c-29.002 0-47.124-31.41-32.623-56.527 14.485-25.117 50.746-25.117 65.247 0 14.501 25.116-3.622 56.527-32.624 56.527z" style="fill:none;stroke:#fff;stroke-width:.21830875;stroke-miterlimit:3.86299992" transform="matrix(.7096 0 0 .7104 -178.648 205.51)"/>
    <path d="M222.653 614.758c-27.137 0-44.093-29.392-30.525-52.892 13.57-23.5 47.482-23.5 61.05 0s-3.388 52.892-30.525 52.892" clip-rule="evenodd" style="fill:#0071b3;fill-rule:evenodd" transform="matrix(.7096 0 0 .7104 -178.648 205.51)"/>
    <path stroke-miterlimit="3.863" d="M222.653 614.758c-27.137 0-44.093-29.392-30.525-52.892 13.57-23.5 47.482-23.5 61.05 0s-3.388 52.892-30.525 52.892z" style="fill:none;stroke:#0071b3;stroke-width:.21830875;stroke-miterlimit:3.86299992" transform="matrix(.7096 0 0 .7104 -178.648 205.51)"/>
    <path d="M32.727 36.076v35.358h14.097l-.109-.046V36.076h21.246L39.768 7.929 11.574 36.076z" style="fill:#fff" transform="matrix(.7096 0 0 .7104 -48.882 588.958)"/>
    <path d="M46.715 71.388V36.076h21.246L39.768 7.929 11.574 36.076h21.153v35.358h14.097z" style="fill:none;stroke:#fff;stroke-width:0;stroke-miterlimit:3.86299992" transform="matrix(.7096 0 0 .7104 -48.882 588.958)"/>
    <path d="M-21.016 540.794c1.557-.04 3.16 1.467 4.714 1.467h11.078v-1.467h.473v-1.863c0-1.07.893-1.862 2.214-1.862s2.263.793 2.263 1.862c.14 1.268-.236 2.222.611 3.331.283 1.864-.893 2.538-.611 4.481.232 1.03-.944 1.902-2.263 1.902-1.32 0-2.214-.794-2.214-1.902l-.049-1.863h-.564v-1.508h-10.982c-1.792 0-2.641 1.943-4.668 1.587-1.933.356-2.733-1.587-4.524-1.587h-11.03v1.547h-.52v1.824c-.047 1.11-.988 1.902-2.215 1.902-1.32 0-2.498-.794-2.31-1.902.33-1.863-.894-2.577-.564-4.401.8-1.188.376-2.141.564-3.33 0-1.15.99-1.943 2.31-1.943 1.227 0 2.216.793 2.216 1.943v1.823h.424v1.427h11.125c1.508 0 3.016-1.507 4.524-1.427v-.04z" style="fill:#120c0e"/>
    <path stroke-miterlimit="3.863" d="M-21.016 540.794c1.557-.04 3.16 1.467 4.714 1.467h11.078v-1.467h.473v-1.863c0-1.07.893-1.862 2.214-1.862s2.263.793 2.263 1.862c.14 1.268-.236 2.222.611 3.331.283 1.864-.893 2.538-.611 4.481.232 1.03-.944 1.902-2.263 1.902-1.32 0-2.214-.794-2.214-1.902l-.049-1.863h-.564v-1.508h-10.982c-1.792 0-2.641 1.943-4.668 1.587-1.933.356-2.733-1.587-4.524-1.587h-11.03v1.547h-.52v1.824c-.047 1.11-.988 1.902-2.215 1.902-1.32 0-2.498-.794-2.31-1.902.33-1.863-.894-2.577-.564-4.401.8-1.188.376-2.141.564-3.33 0-1.15.99-1.943 2.31-1.943 1.227 0 2.216.793 2.216 1.943v1.823h.424v1.427h11.125c1.508 0 3.016-1.507 4.524-1.427v-.04z" style="fill:none;stroke:#120c0e;stroke-width:.15000002;stroke-miterlimit:3.86299992"/>
    <path d="M-.32 532.112H-41.8v-34.848H-.32z" clip-rule="evenodd" style="fill:#ffcb04;fill-rule:evenodd"/>
    <path stroke-miterlimit="3.863" d="M-.32 532.112H-41.8v-34.848H-.32z" style="fill:none;stroke:#000;stroke-width:.99899995;stroke-miterlimit:3.86299992;stroke-opacity:1;stroke-dasharray:none"/>
    <path d="M.242 535.798h-42.611v-1.348H.243z" clip-rule="evenodd" style="fill:#120c0e;fill-rule:evenodd"/>
    <path d="M.242 535.798h-42.611v-1.348H.243z" style="fill:none;stroke:#120c0e;stroke-width:0;stroke-miterlimit:3.86299992"/>
    <rect width="44.562" height="23.834" x="-43.242" y="558.524" rx="4.788" ry="5.986" style="fill:#fff;fill-opacity:1;stroke:#000;stroke-width:1.39999998;stroke-miterlimit:4;stroke-opacity:1;stroke-dasharray:none"/>
    <text xml:space="preserve" x="-29.29" y="578.274" style="font-size:23.72115898px;font-style:normal;font-variant:normal;font-weight:400;font-stretch:normal;text-align:start;line-height:100%;writing-mode:lr-tb;text-anchor:start;fill:#000;fill-opacity:1;stroke:none;font-family:Transport Heavy;-inkscape-font-specification:&quot;Transport Heavy,&quot;" transform="scale(.99944 1.00056)"><tspan x="-29.29" y="578.274" style="font-weight:700;stroke:none;font-family:Arial;-inkscape-font-specification:Arial Bold">B</tspan></text>
  </g>
</svg>
