<svg xmlns="http://www.w3.org/2000/svg" xml:space="preserve" viewBox="0 0 80.077 79.982" role="img" aria-labelledby="title">
  <title id="title">Verkehrszeichen D9 - Part of the road reserved for pedestrians, cyclists and mofas (also mandatory to use it)</title>
  <path fill="#0071b3" fill-rule="evenodd" d="M40.031 79.904c-30.716 0-49.905-33.266-34.547-59.868s53.753-26.619 69.111 0c15.358 26.602-3.847 59.868-34.564 59.868" clip-rule="evenodd"/>
  <path fill="none" stroke="#0071b3" stroke-miterlimit="3.863" stroke-width=".156" d="M40.031 79.904c-30.716 0-49.905-33.266-34.547-59.868s53.753-26.619 69.111 0c15.358 26.602-3.847 59.868-34.564 59.868z"/>
  <path fill="#fff" fill-rule="evenodd" d="M40.031 77.902c-29.183 0-47.419-31.607-32.827-56.881 14.576-25.274 51.063-25.274 65.655 0 14.591 25.273-3.644 56.881-32.828 56.881" clip-rule="evenodd"/>
  <path fill="none" stroke="#fff" stroke-miterlimit="3.863" stroke-width=".156" d="M40.031 77.902c-29.183 0-47.419-31.607-32.827-56.881 14.576-25.274 51.063-25.274 65.655 0 14.591 25.273-3.644 56.881-32.828 56.881z"/>
  <path fill="#0071b3" fill-rule="evenodd" d="M40.031 75.462c-27.306 0-44.369-29.574-30.716-53.221 13.654-23.647 47.778-23.647 61.433 0 13.653 23.647-3.41 53.221-30.717 53.221" clip-rule="evenodd"/>
  <path fill="none" stroke="#0071b3" stroke-miterlimit="3.863" stroke-width=".156" d="M40.031 75.462c-27.306 0-44.369-29.574-30.716-53.221 13.654-23.647 47.778-23.647 61.433 0 13.653 23.647-3.41 53.221-30.717 53.221z"/>
  <path fill="#fff" d="m60.598 38.787-4.566-7.1c-.656-.813-2.033-1.752-3.128-1.626v-1.22a2.27 2.27 0 0 0 1.313-2.096c0-1.22-.969-2.283-2.283-2.283-1.221 0-2.252 1.063-2.252 2.283 0 1.032.656 1.845 1.595 2.158v1.064c-1.282 0-4.379.844-4.379 4.003v6.663c0 .532.438.97.97.97a.954.954 0 0 0 .969-.97v-6.162c0-.25.188-.375.438-.375s.376.125.376.375v17.735c0 .563.469 1.031 1.063 1.031.533 0 .938-.469.938-1.031v-9.571c0-.376.282-.626.657-.626s.595.25.595.626v11.792c0 .531.47 1.063 1.063 1.063.531 0 .97-.531.97-1.063V33.845l3.784 5.943c.313.531.75.47 1.127.344.312 1.22.531 1.939 1.376 1.971l2.627.156-1.876 6.068h1.438v4.441c0 .282.313.563.657.563.376 0 .657-.28.657-.563v-4.504h.845v3.628c0 .313.281.626.656.626.376 0 .688-.313.688-.626v-3.565h1.377l-1.314-5.004 1.689 1.877c.219.125.438.125.563 0 .188-.157.251-.313.094-.627l-2.283-2.596c-.469-.501-.75-.813-1.377-.939-.156-.155-.093-.344-.062-.53.563-.25.876-.845.876-1.47 0-.907-.657-1.627-1.533-1.627-.97 0-1.689.72-1.689 1.627 0 .719.47 1.313 1.189 1.531.031.219.063.563-.219.688h-2.189c-.375 0-.563-.062-.813-.345-.22-.405-.501-.969-.501-1.25 0-.219-.063-.188-.156-.281.092-.156.155-.281.03-.594"/>
  <path fill="none" d="m60.598 38.787-4.566-7.1c-.656-.813-2.033-1.752-3.128-1.626v-1.22a2.27 2.27 0 0 0 1.313-2.096c0-1.22-.969-2.283-2.283-2.283-1.221 0-2.252 1.063-2.252 2.283 0 1.032.656 1.845 1.595 2.158v1.064c-1.282 0-4.379.844-4.379 4.003v6.663c0 .532.438.97.97.97a.954.954 0 0 0 .969-.97v-6.162c0-.25.188-.375.438-.375s.376.125.376.375v17.735c0 .563.469 1.031 1.063 1.031.533 0 .938-.469.938-1.031v-9.571c0-.376.282-.626.657-.626s.595.25.595.626v11.792c0 .531.47 1.063 1.063 1.063.531 0 .97-.531.97-1.063V33.845l3.784 5.943c.313.531.75.47 1.127.344.312 1.22.531 1.939 1.376 1.971l2.627.156-1.876 6.068h1.438v4.441c0 .282.313.563.657.563.376 0 .657-.28.657-.563v-4.504h.845v3.628c0 .313.281.626.656.626.376 0 .688-.313.688-.626v-3.565h1.377l-1.314-5.004 1.689 1.877c.219.125.438.125.563 0 .188-.157.251-.313.094-.627l-2.283-2.596c-.469-.501-.75-.813-1.377-.939-.156-.155-.093-.344-.062-.53.563-.25.876-.845.876-1.47 0-.907-.657-1.627-1.533-1.627-.97 0-1.689.72-1.689 1.627 0 .719.47 1.313 1.189 1.531.031.219.063.563-.219.688h-2.189c-.375 0-.563-.062-.813-.345-.22-.405-.501-.969-.501-1.25 0-.219-.063-.188-.156-.281.092-.156.155-.281.03-.594"/>
  <path fill="#fff" fill-rule="evenodd" d="M40.846 77.152h-1.611V2.816h1.611z" clip-rule="evenodd"/>
  <path fill="none" stroke="#fff" stroke-miterlimit="3.863" stroke-width=".156" d="M40.846 77.152h-1.611V2.816h1.611z"/>
  <path fill="#fff" d="m15.258 35.347 6.538 5.88a1.66 1.66 0 0 0-.407 1.063c0 .845.719 1.564 1.501 1.658v1.939h-.25v.344h.813v-.344h-.219V43.98c.782-.031 1.408-.656 1.502-1.408h.938c.125 3.223 2.721 5.693 5.881 5.693 3.315 0 5.974-2.659 5.974-5.943 0-3.252-2.659-5.912-5.974-5.912-.97 0-1.877.219-2.69.688l-1.689-3.065.406-.844c.125-.219.438-.126.657-.345.031-.156.031-.25.031-.375-.093-.094-.125-.188-.281-.188h-2.19c-.031.032-.125 0-.187 0 0 .032-.063.063-.094.063a.9.9 0 0 0 0 .407.24.24 0 0 0 .125.062h1.126c.125-.031.219.031.375.031 0 .032 0 .032.063.063-.031.125.062.219 0 .25l-.219.532H15.634l.312-1.345c.282-.063.47.125 1.001-.094.188 0 .688-.25 1.251-.062.126-.094-.031-.126.032-.157-.063-.031.094-.219.062-.25-.312-.094-1.094-.156-1.439.031-.375.219-.844.094-1.188.125l-1.126 4.849a5.8 5.8 0 0 0-2.096-.407A5.94 5.94 0 0 0 6.5 42.321a5.94 5.94 0 0 0 5.943 5.943c3.222 0 5.912-2.659 5.912-5.943 0-2.408-1.47-4.441-3.503-5.379z"/>
  <path fill="none" stroke="#fff" stroke-miterlimit="3.863" stroke-width=".156" d="M11.474 36.004c.345-.032.626-.126.97-.126 3.503 0 6.381 2.908 6.381 6.443 0 .219 0 .438-.031.627"/>
  <path fill="#0071b3" d="M12.913 41.603c-.156-.094-.312-.063-.469-.063-.5 0-.907.406-.907.845 0 .5.407.844.907.844.344 0 .72-.219.813-.594h4.505c-.188 2.846-2.503 5.036-5.318 5.036-3.003 0-5.411-2.409-5.411-5.381a5.393 5.393 0 0 1 5.411-5.411c.688 0 1.314.188 2.002.407l-.375 1.47c-.219.845-.47 1.814-1.158 2.847"/>
  <path fill="#0071b3" d="m14.79 37.474-.375 1.532c-.188.688-.782 2.221-1.251 2.815 0 .125.093.281.125.406h4.473c-.033-2.126-1.22-3.909-2.972-4.753"/>
  <path fill="none" d="m14.79 37.474-.375 1.532c-.188.688-.782 2.221-1.251 2.815 0 .125.093.281.125.406h4.473c-.033-2.126-1.22-3.909-2.972-4.753"/>
  <path fill="#0071b3" d="m15.353 35.034.188-.938H26.8l-3.128 6.599c-.156-.062-.25-.125-.469-.125v-1.875h.25v-.345h-.813v.345h.25v1.907c-.484.047-.563.187-.782.406zM32.775 41.728l3.565-1.971c.407.813.657 1.689.657 2.564a5.41 5.41 0 0 1-5.411 5.411 5.3 5.3 0 0 1-5.318-5.161h4.161c.062.563.594 1.002 1.157 1.002.688 0 1.251-.563 1.251-1.252 0-.219-.031-.375-.094-.531"/>
  <path fill="#0071b3" d="m32.557 41.541 3.597-2.002c-.97-1.533-2.597-2.565-4.598-2.565-.814 0-1.658.188-2.378.532l2.034 3.722c.093-.062.281-.094.375-.094.374-.001.718.157.97.407M28.865 37.755l2.033 3.691c-.188.219-.407.469-.438.75h-4.223c.031-1.877 1.064-3.535 2.565-4.473"/>
  <path fill="#0071b3" d="m26.988 34.408-2.909 6.444c.375.313.719.813.751 1.376h.907c.062-2.096 1.157-3.941 2.846-4.973z"/>
  <path fill="none" stroke="#fff" stroke-miterlimit="3.863" stroke-width=".156" d="M25.331 43.324a5.2 5.2 0 0 1-.094-1.002c0-3.535 2.909-6.443 6.412-6.443 2.659 0 4.88 1.627 5.881 3.816"/>
</svg>
