<svg xmlns="http://www.w3.org/2000/svg" xml:space="preserve" viewBox="0 0 78.259 78.164" role="img" aria-labelledby="title">
  <title id="title">Verkehrszeichen D5 - Roundabout</title>
  <path fill="#0071b3" fill-rule="evenodd" d="M39.123 78.088c-30.018 0-48.772-32.509-33.763-58.507s52.532-26.014 67.541 0c15.009 25.998-3.76 58.507-33.778 58.507" clip-rule="evenodd"/>
  <path fill="none" stroke="#0071b3" stroke-miterlimit="3.863" stroke-width=".153" d="M39.123 78.088c-30.018 0-48.772-32.509-33.763-58.507s52.532-26.014 67.541 0c15.009 25.998-3.76 58.507-33.778 58.507z"/>
  <path fill="#fff" fill-rule="evenodd" d="M39.123 76.132c-28.52 0-46.341-30.889-32.081-55.588 14.244-24.699 49.901-24.699 64.161 0 14.261 24.699-3.56 55.588-32.08 55.588" clip-rule="evenodd"/>
  <path fill="none" stroke="#fff" stroke-miterlimit="3.863" stroke-width=".153" d="M39.123 76.132c-28.52 0-46.341-30.889-32.081-55.588 14.244-24.699 49.901-24.699 64.161 0 14.261 24.699-3.56 55.588-32.08 55.588z"/>
  <path fill="#0071b3" fill-rule="evenodd" d="M39.123 73.748c-26.686 0-43.361-28.903-30.018-52.012s46.693-23.11 60.036 0-3.332 52.012-30.018 52.012" clip-rule="evenodd"/>
  <path fill="none" stroke="#0071b3" stroke-miterlimit="3.863" stroke-width=".153" d="M39.123 73.748c-26.686 0-43.361-28.903-30.018-52.012s46.693-23.11 60.036 0-3.332 52.012-30.018 52.012z"/>
  <path fill="#fff" d="m15.601 43.897-4.891.918 7.978 6.587 6.572-9.323-5.945 1.115a19.6 19.6 0 0 1-.367-3.82c0-8.941 5.762-16.522 13.756-19.274l-1.529-3.591c-9.399 3.332-16.124 12.319-16.124 22.865 0 1.527.137 3.011.412 4.463z"/>
  <path fill="none" d="m15.601 43.897-4.891.918 7.978 6.587 6.572-9.323-5.945 1.115a19.6 19.6 0 0 1-.367-3.82c0-8.941 5.762-16.522 13.756-19.274l-1.529-3.591c-9.399 3.332-16.124 12.319-16.124 22.865 0 1.527.137 3.011.412 4.463z"/>
  <path fill="#fff" d="m63.104 43.806-3.806-.886c.198-1.147.306-2.323.306-3.53 0-8.82-5.594-16.324-13.435-19.167l-1.927 5.38-4.569-10.439 9.828-4.234-2.003 5.579c9.354 3.362 16.049 12.334 16.049 22.85 0 1.514-.139 2.98-.396 4.418z"/>
  <path fill="none" d="m63.104 43.806-3.806-.886c.198-1.147.306-2.323.306-3.53 0-8.82-5.594-16.324-13.435-19.167l-1.927 5.38-4.569-10.439 9.828-4.234-2.003 5.579c9.354 3.362 16.049 12.334 16.049 22.85 0 1.514-.139 2.98-.396 4.418z"/>
  <path fill="#fff" d="m55.568 57.822 3.424 3.865L60.49 51.6l-11.371-1.039 3.606 4.065a20.27 20.27 0 0 1-13.45 5.075 20.26 20.26 0 0 1-13.007-4.693l-2.415 3.072c4.203 3.438 9.568 5.518 15.422 5.518a24.14 24.14 0 0 0 16.063-6.083z"/>
  <path fill="none" d="m55.568 57.822 3.424 3.865L60.49 51.6l-11.371-1.039 3.606 4.065a20.27 20.27 0 0 1-13.45 5.075 20.26 20.26 0 0 1-13.007-4.693l-2.415 3.072c4.203 3.438 9.568 5.518 15.422 5.518a24.14 24.14 0 0 0 16.063-6.083z"/>
</svg>
