<svg xmlns="http://www.w3.org/2000/svg" xml:space="preserve" viewBox="0 0 79.52 79.392" role="img" aria-labelledby="title">
  <title id="title">Verkehrszeichen D7 - Mandatory cycleway (cyclists and mofas must use it. Pedestrians are allowed to use it if there is no sidewalk or verge. Mopeds are allowed to use it where speed limit is below 50 km/h. Mopeds must use it where speed limit is above 50 km/h. Speed pedelecs follow the same rules as mopeds. Other road users cannot use it)</title>
  <path fill="#0071b3" fill-rule="evenodd" d="M39.742 79.218C9.33 79.218-9.69 46.297 5.533 19.926c15.224-26.336 53.23-26.336 68.453 0 15.225 26.371-3.797 59.292-34.244 59.292" clip-rule="evenodd"/>
  <path fill="none" stroke="#0071b3" stroke-miterlimit="3.863" stroke-width=".348" d="M39.742 79.218C9.33 79.218-9.69 46.297 5.533 19.926c15.224-26.336 53.23-26.336 68.453 0 15.225 26.371-3.797 59.292-34.244 59.292z"/>
  <path fill="#fff" fill-rule="evenodd" d="M39.742 77.231c-28.914 0-46.994-31.283-32.537-56.33 14.457-25.048 50.617-25.048 65.039 0 14.458 25.047-3.588 56.33-32.502 56.33" clip-rule="evenodd"/>
  <path fill="none" stroke="#fff" stroke-miterlimit="3.863" stroke-width=".348" d="M39.742 77.231c-28.914 0-46.994-31.283-32.537-56.33 14.457-25.048 50.617-25.048 65.039 0 14.458 25.047-3.588 56.33-32.502 56.33z"/>
  <path fill="#0071b3" fill-rule="evenodd" d="M39.742 74.827c-27.033 0-43.928-29.262-30.412-52.707 13.517-23.41 47.343-23.41 60.859 0 13.518 23.445-3.378 52.707-30.447 52.707" clip-rule="evenodd"/>
  <path fill="none" stroke="#0071b3" stroke-miterlimit="3.863" stroke-width=".348" d="M39.742 74.827c-27.033 0-43.928-29.262-30.412-52.707 13.517-23.41 47.343-23.41 60.859 0 13.518 23.445-3.378 52.707-30.447 52.707z"/>
  <path fill="#fff" d="m29.396 32.433 9.998 8.883c-.383.453-.627 1.01-.627 1.637 0 1.289 1.08 2.404 2.299 2.508v2.962h-.383v.558h1.289v-.558h-.382V45.53c1.219-.07 2.125-1.045 2.299-2.125h1.428c.174 4.842 4.146 8.709 9.023 8.709 5.016 0 9.092-4.076 9.092-9.057 0-5.018-4.076-9.093-9.092-9.093a8.6 8.6 0 0 0-4.182 1.079l-2.543-4.702.627-1.22c.176-.383.697-.278 1.012-.592.033-.209.033-.349.033-.558-.174-.104-.209-.278-.451-.278H45.49c-.035.104-.174.069-.277.069-.035.035-.07.069-.105.069a.86.86 0 0 0 0 .593.27.27 0 0 0 .174.069h1.707c.174-.035.35.035.523.105l.139.068c-.035.141.105.314.035.419l-.348.801h-17.35l.488-2.056c.383-.139.697.14 1.498-.209.313 0 1.045-.418 1.951-.104.174-.07-.07-.14.034-.244-.104-.07.14-.244.105-.313-.557-.175-1.707-.278-2.23.069-.557.313-1.323.104-1.811.14l-1.707 7.386a8.9 8.9 0 0 0-3.24-.628c-4.981 0-9.057 4.076-9.057 9.058 0 5.017 4.076 9.057 9.057 9.057s9.058-4.04 9.058-9.057c0-3.658-2.195-6.758-5.295-8.221z"/>
  <path fill="none" stroke="#fff" stroke-miterlimit="3.863" stroke-width=".348" d="m29.396 32.433 9.998 8.883c-.383.453-.627 1.01-.627 1.637 0 1.289 1.08 2.404 2.299 2.508v2.962h-.383v.558h1.289v-.558h-.382V45.53c1.219-.07 2.125-1.045 2.299-2.125h1.428c.174 4.842 4.146 8.709 9.023 8.709 5.016 0 9.092-4.076 9.092-9.057 0-5.018-4.076-9.093-9.092-9.093a8.6 8.6 0 0 0-4.182 1.079l-2.543-4.702.627-1.22c.176-.383.697-.278 1.012-.592.033-.209.033-.349.033-.558-.174-.104-.209-.278-.451-.278H45.49c-.035.104-.174.069-.277.069-.035.035-.07.069-.105.069a.86.86 0 0 0 0 .593.27.27 0 0 0 .174.069h1.707c.174-.035.35.035.523.105l.139.068c-.035.141.105.314.035.419l-.348.801h-17.35l.488-2.056c.383-.139.697.14 1.498-.209.313 0 1.045-.418 1.951-.104.174-.07-.07-.14.034-.244-.104-.07.14-.244.105-.313-.557-.175-1.707-.278-2.23.069-.557.313-1.323.104-1.811.14l-1.707 7.386a8.9 8.9 0 0 0-3.24-.628c-4.981 0-9.057 4.076-9.057 9.058 0 5.017 4.076 9.057 9.057 9.057s9.058-4.04 9.058-9.057c0-3.658-2.195-6.758-5.295-8.221z"/>
  <path fill="none" stroke="#fff" stroke-miterlimit="3.863" stroke-width=".418" d="M23.613 33.372c.523-.104 1.01-.174 1.463-.174 5.4 0 9.754 4.424 9.754 9.859 0 .277 0 .557-.034.87"/>
  <path fill="#fff" fill-rule="evenodd" d="M62.213 52.532H17.169v-.662h45.043z" clip-rule="evenodd"/>
  <path fill="none" stroke="#fff" stroke-miterlimit="3.863" stroke-width=".348" d="M62.213 52.532H17.169v-.662h45.043z"/>
  <path fill="#0071b3" d="M25.843 41.907c-.244-.139-.488-.104-.767-.104-.766 0-1.358.593-1.358 1.289 0 .731.592 1.323 1.358 1.323.592 0 1.15-.418 1.289-.939h6.828a8.134 8.134 0 0 1-8.117 7.664c-4.598 0-8.256-3.693-8.256-8.188 0-4.563 3.658-8.221 8.256-8.221a7.8 7.8 0 0 1 3.066.627l-.558 2.194c-.313 1.29-.73 2.788-1.741 4.355"/>
  <path fill="none" d="M25.843 41.907c-.244-.139-.488-.104-.767-.104-.766 0-1.358.593-1.358 1.289 0 .731.592 1.323 1.358 1.323.592 0 1.15-.418 1.289-.939h6.828a8.134 8.134 0 0 1-8.117 7.664c-4.598 0-8.256-3.693-8.256-8.188 0-4.563 3.658-8.221 8.256-8.221a7.8 7.8 0 0 1 3.066.627l-.558 2.194c-.313 1.29-.73 2.788-1.741 4.355"/>
  <path fill="#0071b3" d="m29.048 35.776-.732 2.473c-.348 1.15-1.184 3.658-1.916 4.564.07.174-.035-.174 0 0h6.863c-.105-3.205-1.568-5.712-4.215-7.037"/>
  <path fill="none" d="m29.048 35.776-.732 2.473c-.348 1.15-1.184 3.658-1.916 4.564.07.174-.035-.174 0 0h6.863c-.105-3.205-1.568-5.712-4.215-7.037"/>
  <path fill="#0071b3" d="m29.535 31.874.279-1.428h17.209L42.32 40.653c-.209-.07-.348-.349-.662-.279v-2.646h.559v-.802h-2.195v.802h.592v2.717c-.487.104-.557.035-.906.348z"/>
  <path fill="none" d="m29.535 31.874.279-1.428h17.209L42.32 40.653c-.209-.07-.348-.349-.662-.279v-2.646h.559v-.802h-2.195v.802h.592v2.717c-.487.104-.557.035-.906.348z"/>
  <path fill="#0071b3" d="M61.828 39.469c.662 1.149.768 2.16.768 3.589 0 4.493-3.658 8.15-8.221 8.15-4.426 0-7.979-3.273-8.152-7.629h6.479c.141.836.871 1.498 1.742 1.498 1.01 0 1.848-1.08 1.848-2.02 0-.384-.314-.384-.279-.384 1.95-1.079 3.866-2.124 5.815-3.204"/>
  <path fill="none" stroke="#0071b3" stroke-miterlimit="3.863" stroke-width=".348" d="M61.828 39.469c.662 1.149.768 2.16.768 3.589 0 4.493-3.658 8.15-8.221 8.15-4.426 0-7.979-3.273-8.152-7.629h6.479c.141.836.871 1.498 1.742 1.498 1.01 0 1.848-1.08 1.848-2.02 0-.384-.314-.384-.279-.384 1.95-1.079 3.866-2.124 5.815-3.204z"/>
  <path fill="#0071b3" d="m55.838 41.803 5.504-3.065a8.17 8.17 0 0 0-7.002-3.902c-1.289 0-2.578.279-3.693.871l3.1 5.609c.176-.07.453-.14.662-.14.523 0 1.011.278 1.429.627"/>
  <path fill="none" d="m55.838 41.803 5.504-3.065a8.17 8.17 0 0 0-7.002-3.902c-1.289 0-2.578.279-3.693.871l3.1 5.609c.176-.07.453-.14.662-.14.523 0 1.011.278 1.429.627"/>
  <path fill="#0071b3" d="m49.984 36.09 3.205 5.782c-.313.279-.453.453-.521.906h-6.516c.106-2.891 1.534-5.295 3.832-6.688"/>
  <path fill="none" d="m49.984 36.09 3.205 5.782c-.313.279-.453.453-.521.906h-6.516c.106-2.891 1.534-5.295 3.832-6.688"/>
  <path fill="#0071b3" d="m47.547 31.353-4.6 9.754c.559.209 1.08.871 1.115 1.707l1.01-.035c.105-3.17 1.707-6.027 4.25-7.56z"/>
  <path fill="none" d="m47.547 31.353-4.6 9.754c.559.209 1.08.871 1.115 1.707l1.01-.035c.105-3.17 1.707-6.027 4.25-7.56z"/>
  <path fill="none" stroke="#fff" stroke-miterlimit="3.863" stroke-width=".418" d="M44.795 44.485a6.8 6.8 0 0 1-.141-1.428c0-5.436 4.424-9.859 9.824-9.859 4.006 0 7.42 2.404 8.953 5.853"/>
</svg>
