<svg xmlns="http://www.w3.org/2000/svg" xml:space="preserve" viewBox="0 0 79.58 79.484" role="img" aria-labelledby="title">
  <title id="title">Verkehrszeichen D11 - Mandatory footway (pedestrians must use it, no other road user allowed)</title>
  <path fill="#0071b3" fill-rule="evenodd" d="M39.783 79.407c-30.525 0-49.595-33.059-34.333-59.496s53.419-26.452 68.683 0c15.262 26.438-3.824 59.496-34.35 59.496" clip-rule="evenodd"/>
  <path fill="none" stroke="#0071b3" stroke-miterlimit="3.863" stroke-width=".155" d="M39.783 79.407c-30.525 0-49.595-33.059-34.333-59.496s53.419-26.452 68.683 0c15.262 26.438-3.824 59.496-34.35 59.496z"/>
  <path fill="#fff" fill-rule="evenodd" d="M39.783 77.418c-29.002 0-47.124-31.411-32.623-56.527 14.485-25.117 50.746-25.117 65.247 0 14.501 25.116-3.622 56.527-32.624 56.527" clip-rule="evenodd"/>
  <path fill="none" stroke="#fff" stroke-miterlimit="3.863" stroke-width=".155" d="M39.783 77.418c-29.002 0-47.124-31.411-32.623-56.527 14.485-25.117 50.746-25.117 65.247 0 14.501 25.116-3.622 56.527-32.624 56.527z"/>
  <path fill="#0071b3" fill-rule="evenodd" d="M39.783 74.993c-27.137 0-44.093-29.391-30.525-52.891s47.482-23.5 61.05 0-3.388 52.891-30.525 52.891" clip-rule="evenodd"/>
  <path fill="none" stroke="#0071b3" stroke-miterlimit="3.863" stroke-width=".155" d="M39.783 74.993c-27.137 0-44.093-29.391-30.525-52.891s47.482-23.5 61.05 0-3.388 52.891-30.525 52.891z"/>
  <path fill="#fff" d="m43.219 38.033-6.435-10.087c-.933-1.149-2.891-2.486-4.492-2.269v-1.772c1.15-.527 1.912-1.601 1.912-2.969 0-1.74-1.43-3.248-3.249-3.248-1.772 0-3.201 1.508-3.201 3.248 0 1.461.932 2.612 2.269 3.063v1.508c-1.819 0-6.217 1.197-6.217 5.688v9.466c0 .746.621 1.367 1.383 1.367.793 0 1.414-.621 1.414-1.367v-8.72c0-.342.218-.575.575-.575.358 0 .544.233.544.575v25.148a1.47 1.47 0 0 0 1.461 1.461c.793 0 1.415-.668 1.415-1.461V43.488c0-.527.357-.886.886-.886.544 0 .855.358.855.886v16.755c0 .746.668 1.509 1.46 1.509.809 0 1.43-.763 1.43-1.509V31.009l5.332 8.438c.481.763 1.057.622 1.632.498.498 1.679.762 2.797 1.959 2.797l3.683.219-2.658 8.626h2.131v6.295c0 .403.403.808.886.808a.83.83 0 0 0 .839-.808v-6.389h1.243v5.145c0 .451.403.902.979.902.498 0 .886-.451.886-.902v-5.051h2.006l-1.865-7.165 2.486 2.72a.63.63 0 0 0 .763 0c.217-.233.356-.451.077-.886l-3.187-3.699c-.715-.7-1.118-1.197-1.958-1.321-.264-.232-.187-.498-.093-.762.808-.404 1.29-1.15 1.29-2.083a2.3 2.3 0 0 0-2.316-2.315c-1.274 0-2.3.979-2.3 2.315 0 1.011.668 1.866 1.647 2.176.031.312.078.746-.28.98h-3.155c-.527 0-.746-.095-1.103-.498-.312-.575-.716-1.321-.716-1.772 0-.31-.125-.264-.264-.403.185-.219.263-.405.046-.841"/>
  <path fill="none" stroke="#fff" stroke-miterlimit="3.863" stroke-width=".155" d="m43.219 38.033-6.435-10.087c-.933-1.149-2.891-2.486-4.492-2.269v-1.772c1.15-.527 1.912-1.601 1.912-2.969 0-1.74-1.43-3.248-3.249-3.248-1.772 0-3.201 1.508-3.201 3.248 0 1.461.932 2.612 2.269 3.063v1.508c-1.819 0-6.217 1.197-6.217 5.688v9.466c0 .746.621 1.367 1.383 1.367.793 0 1.414-.621 1.414-1.367v-8.72c0-.342.218-.575.575-.575.358 0 .544.233.544.575v25.148a1.47 1.47 0 0 0 1.461 1.461c.793 0 1.415-.668 1.415-1.461V43.488c0-.527.357-.886.886-.886.544 0 .855.358.855.886v16.755c0 .746.668 1.509 1.46 1.509.809 0 1.43-.763 1.43-1.509V31.009l5.332 8.438c.481.763 1.057.622 1.632.498.498 1.679.762 2.797 1.959 2.797l3.683.219-2.658 8.626h2.131v6.295c0 .403.403.808.886.808a.83.83 0 0 0 .839-.808v-6.389h1.243v5.145c0 .451.403.902.979.902.498 0 .886-.451.886-.902v-5.051h2.006l-1.865-7.165 2.486 2.72a.63.63 0 0 0 .763 0c.217-.233.356-.451.077-.886l-3.187-3.699c-.715-.7-1.118-1.197-1.958-1.321-.264-.232-.187-.498-.093-.762.808-.404 1.29-1.15 1.29-2.083a2.3 2.3 0 0 0-2.316-2.315c-1.274 0-2.3.979-2.3 2.315 0 1.011.668 1.866 1.647 2.176.031.312.078.746-.28.98h-3.155c-.527 0-.746-.095-1.103-.498-.312-.575-.716-1.321-.716-1.772 0-.31-.125-.264-.264-.403.185-.219.263-.405.046-.841z"/>
</svg>
