<svg xmlns="http://www.w3.org/2000/svg" xml:space="preserve" fill-rule="evenodd" stroke-linejoin="round" stroke-width="28.222" preserveAspectRatio="xMidYMid" viewBox="84565 30500 1670 2502" role="img" aria-labelledby="title">
  <title id="title">Verkehrszeichen E9b - Parking exclusively for motorcycles, motorcars and minibuses</title>
  <g class="Page">
    <g class="com.sun.star.drawing.PolyPolygonShape">
      <path fill="none" d="M84565 30500h1670v2502h-1670z" class="BoundingBox"/>
      <path fill="#00f" d="M84566 30687v2135l1 9 1 9 2 9 2 10 2 8 3 9 3 9 4 8 4 8 5 8 4 8 6 8 6 7 5 7 7 7 6 6 7 6 8 6 7 5 8 5 8 4 8 4 9 4 8 4 9 2 9 3 9 2 9 2 9 1h9l9 1h1294l9-1h9l9-1 9-2 9-2 9-3 9-2 8-4 9-4 8-4 8-4 8-5 7-5 8-6 6-6 7-6 7-7 6-7 5-7 5-8 5-8 5-8 4-8 4-8 3-9 3-9 2-8 2-10 2-9 1-9 1-9v-2144l-1-9-1-9-2-10-2-9-2-8-3-9-3-9-4-8-4-8-5-8-5-8-5-8-5-7-6-7-7-7-7-6-6-6-8-6-7-5-8-5-8-4-8-4-9-4-8-4-9-2-9-3-9-2-9-2-9-1h-1330l-9 1-9 2-9 2-9 3-9 2-8 4-9 4-8 4-8 4-8 5-7 5-8 6-7 6-6 6-7 7-5 7-6 7-6 8-4 8-5 8-4 8-4 8-3 9-3 9-2 8-2 9-2 10-1 9-1 9z"/>
    </g>
    <g class="com.sun.star.drawing.PolyPolygonShape">
      <path fill="none" d="M84981 32124h838v669h-838z" class="BoundingBox"/>
      <path fill="#fff" d="m85643 32155 101 216-43-5-42-4-43-3-43-3-43-2-43-2-44-1h-87l-43 1-43 2-43 2-43 3-43 3-42 4-43 5 101-216zm138 505 7-18 5-19 6-19 4-20 5-19 3-19 4-20 2-20 1-73-1-9-2-10-3-10-4-9-2-4-3-3-3-3-3-2-4-3-4-1-4-2h-4l-118-253h-526l-118 253h-4l-4 2-4 1-4 3-3 2-3 3-3 3-2 4-4 9-3 10-2 10-1 9 1 73 2 20 4 20 3 19 5 19 4 20 6 19 5 19 7 18h28v132h80v-132h546v132h80v-132z"/>
    </g>
    <g class="com.sun.star.drawing.PolyPolygonShape">
      <path fill="none" d="M84971 30708h859v1252h-859z" class="BoundingBox"/>
      <path fill="#fff" d="M85200 31208h275l12-1 12-2 12-3 12-4 11-5 10-6 10-8 9-8 9-9 7-10 6-10 5-11 5-12 3-12 1-12 1-12v-42l-1-12-1-12-3-12-5-12-5-11-6-10-7-10-9-9-9-8-10-8-10-6-11-5-12-5-12-2-12-2-12-1h-275zm-229 751h229v-543h312l16-1 17-2 16-3 16-4 16-4 15-5 15-6 15-7 15-7 14-8 14-9 13-9 13-10 13-11 12-11 11-12 11-13 10-13 9-13 9-14 8-14 7-15 7-15 6-15 5-15 4-16 4-16 3-16 2-16 1-17v-74l-1-17-2-16-3-16-4-16-4-16-5-15-6-15-7-15-7-15-8-14-9-14-9-13-10-13-11-13-11-12-12-11-13-11-13-10-13-9-14-9-14-8-15-7-15-7-15-6-15-5-16-4-16-4-16-3-17-2-16-1h-541z"/>
    </g>
  </g>
</svg>
