<svg xmlns="http://www.w3.org/2000/svg" xml:space="preserve" fill-rule="evenodd" stroke-linejoin="round" stroke-width="28.222" preserveAspectRatio="xMidYMid" viewBox="97866 30500 1669 2502" role="img" aria-labelledby="title">
  <title id="title">Verkehrszeichen E9h - Parking exclusively for motorhomes</title>
  <g class="Page">
    <g class="com.sun.star.drawing.PolyPolygonShape">
      <path fill="none" d="M97866 30500h1669v2502h-1669z" class="BoundingBox"/>
      <path fill="#00f" d="M97866 30687v2135l1 9 1 10 2 9 2 9 2 8 3 9 3 9 4 8 4 8 5 8 4 8 6 8 5 7 6 7 7 7 6 6 7 6 8 6 7 5 8 5 8 4 8 5 9 3 8 4 9 2 9 3 9 2 9 2 9 1h9l9 1h1294l9-1h9l9-1 9-2 9-2 9-3 9-2 8-4 9-3 8-5 8-4 8-5 7-5 8-6 6-6 7-6 7-7 6-7 5-7 5-8 5-8 5-8 4-8 4-8 3-9 3-9 2-8 2-9 2-9 1-10 1-9v-2144l-1-9-1-9-2-9-2-9-2-9-3-9-3-9-4-8-4-8-5-8-5-8-5-8-5-7-6-7-7-7-7-6-6-6-8-6-7-5-8-5-8-4-8-4-9-4-8-3-9-3-9-3-9-2-9-1-9-2h-1330l-9 2-9 1-9 2-9 3-9 3-8 3-9 4-8 4-8 4-8 5-7 5-8 6-7 6-6 6-7 7-6 7-5 7-6 8-4 8-5 8-4 8-4 8-3 9-3 9-2 9-2 9-2 9-1 9-1 9z"/>
    </g>
    <g class="com.sun.star.drawing.PolyPolygonShape">
      <path fill="none" d="M98081 32154h1240v524h-1240z" class="BoundingBox"/>
      <path fill="#fff" d="M99101 32314h-203v113h203zm-815-52h168v-83h-168zm62 102-89 129h195v-129zm262 294h187v-344h-187zm-517 19h117l3-10 3-9 4-10 5-8 5-9 7-8 7-7 7-6 8-6 9-6 9-4 9-4 9-3 10-2 10-1 10-1 10 1 10 1 10 2 10 3 9 4 9 4 8 6 8 6 8 6 7 7 6 8 7 9 4 8 4 10 4 9 2 10h452l2-10 3-9 4-10 5-8 6-9 6-8 7-7 7-6 9-6 8-6 9-4 9-4 10-3 10-2 10-1 10-1 10 1 10 1 9 2 10 3 9 4 9 4 9 6 8 6 7 6 7 7 6 8 6 9 5 8 4 10 3 9 3 10h80l117-56v-439h-336l-61-28h-748l-76 71-6 7-5 8-3 9-3 8-1 9v9l1 9 2 9 2 5 3 4 4 4 4 3 5 2 4 2 5 1h343v27h-118l-104 151-139 42z"/>
    </g>
    <g class="com.sun.star.drawing.PolyPolygonShape">
      <path fill="none" d="M98271 30708h859v1252h-859z" class="BoundingBox"/>
      <path fill="#fff" d="M98500 31208h274l12-1 12-2 12-3 12-4 11-5 10-6 10-7 9-9 9-9 7-10 6-10 5-11 4-12 4-12 1-12 1-12v-42l-1-12-1-12-4-12-4-12-5-11-6-10-7-10-9-9-9-8-10-8-10-6-11-5-12-5-12-2-12-2-12-1h-274zm-229 751h229v-543h311l16-1 17-2 16-3 16-4 16-4 15-5 15-6 15-7 15-7 14-8 14-9 14-9 13-10 13-11 12-11 11-12 11-13 10-13 9-13 9-14 8-14 7-15 7-15 6-15 5-15 4-16 4-16 3-16 2-16 1-17v-74l-1-16-2-17-3-16-4-16-4-16-5-15-6-15-7-15-7-15-8-14-9-14-9-13-10-13-11-13-11-12-12-11-13-11-13-10-14-9-14-9-14-8-15-7-15-7-15-6-15-5-16-4-16-4-16-3-17-2-16-1h-540z"/>
    </g>
    <g class="com.sun.star.drawing.PolyPolygonShape">
      <path fill="none" d="M98233 32608h186v185h-186z" class="BoundingBox"/>
      <path fill="#fff" d="m98418 32701-1-9-1-9-2-9-3-9-4-9-5-7-5-8-6-6-7-6-7-6-8-4-9-4-8-3-9-2-9-2h-18l-9 2-8 2-9 3-8 4-8 4-7 6-7 6-6 6-5 8-5 7-4 9-3 9-2 9-1 9-1 9 1 9 1 8 2 9 3 9 4 8 5 8 5 7 6 6 7 6 7 6 8 4 8 4 9 3 8 2 9 2h18l9-2 9-2 8-3 9-4 8-4 7-6 7-6 6-6 5-7 5-8 4-8 3-9 2-9 1-8z"/>
    </g>
    <g class="com.sun.star.drawing.PolyPolygonShape">
      <path fill="none" d="M98915 32608h185v185h-185z" class="BoundingBox"/>
      <path fill="#fff" d="M99099 32701v-9l-1-9-4-9-3-10-4-8-4-7-5-8-7-6-6-6-7-6-8-4-8-4-9-3-8-2-9-2h-18l-9 2-9 2-8 3-9 4-7 4-8 6-6 6-6 6-6 8-4 7-4 8-3 10-2 9-1 9-1 9 1 9 1 8 2 9 3 9 4 8 4 8 6 7 6 6 6 6 8 6 7 4 9 4 8 3 9 2 9 2h18l9-2 8-2 9-3 8-4 8-4 7-6 6-6 7-6 5-7 4-8 4-8 3-9 4-9 1-8z"/>
    </g>
  </g>
</svg>
