<svg xmlns="http://www.w3.org/2000/svg" xml:space="preserve" fill-rule="evenodd" stroke-linejoin="round" stroke-width="28.222" preserveAspectRatio="xMidYMid" viewBox="77915 30500 1670 2502" role="img" aria-labelledby="title">
  <title id="title">Verkehrszeichen E9a - Parking allowed</title>
  <g class="Page">
    <g class="com.sun.star.drawing.PolyPolygonShape">
      <path fill="none" d="M77915 30500h1670v2502h-1670z" class="BoundingBox"/>
      <path fill="#00f" d="M77916 30687v2135l1 9 1 10 2 9 2 9 2 8 3 9 3 9 4 8 4 8 5 8 5 8 5 8 6 7 6 7 6 7 7 6 7 6 7 6 8 5 7 5 8 4 9 5 8 3 8 4 9 2 9 3 9 2 9 2 9 1h10l9 1h1293l9-1h9l9-1 9-2 9-2 9-3 9-2 9-4 8-3 8-5 8-4 8-5 7-5 8-6 7-6 6-6 7-7 6-7 5-7 6-8 5-8 4-8 4-8 4-8 3-9 3-9 3-8 2-9 1-9 1-10 1-9v-2144l-1-9-1-9-1-10-2-9-3-8-3-9-3-9-4-8-4-8-4-8-5-8-6-8-5-7-6-7-7-7-6-6-7-6-8-6-7-5-8-5-8-4-8-4-8-4-9-3-9-3-9-3-9-2-9-1-9-2h-1330l-9 2-9 1-9 2-9 3-9 3-8 3-8 4-9 4-8 4-7 5-8 5-7 6-7 6-7 6-6 7-6 7-6 7-5 8-5 8-5 8-4 8-4 8-3 9-3 9-2 8-2 9-2 10-1 9-1 9z"/>
    </g>
    <g class="com.sun.star.drawing.PolyPolygonShape">
      <path fill="none" d="M78178 30915h1145v1670h-1145z" class="BoundingBox"/>
      <path fill="#fff" d="M78485 31583h373l8-1 8-1 8-1 8-2 8-2 8-3 8-3 7-3 8-4 7-4 7-4 6-5 7-5 6-5 6-6 6-6 5-6 5-7 5-6 4-7 4-7 4-8 3-7 3-8 3-7 2-8 2-8 1-8 1-9v-8l1-8v-55l-1-9v-8l-1-8-1-8-2-8-2-8-3-7-3-8-3-8-4-7-4-7-4-7-5-7-5-6-5-6-6-6-6-6-6-5-7-5-6-5-7-4-7-4-8-4-7-3-8-3-8-3-8-2-8-2-8-1-8-1-8-1h-373zm-307 1001h307v-723h393l22-1 21-2 22-2 22-4 21-5 21-6 21-6 20-8 20-9 19-10 19-11 19-11 18-13 17-13 16-15 16-15 15-15 14-17 14-17 12-18 12-18 11-19 10-20 9-20 7-20 7-21 6-21 5-21 4-22 2-21 2-22v-99l-2-22-2-22-4-21-5-21-6-21-7-21-7-20-9-20-10-20-11-19-12-18-12-18-14-17-14-17-15-16-16-15-16-14-17-13-18-13-19-12-19-10-19-10-20-9-20-8-21-7-21-6-21-4-22-4-22-3-21-1-22-1h-700z"/>
    </g>
  </g>
</svg>
