<svg xmlns="http://www.w3.org/2000/svg" xml:space="preserve" fill-rule="evenodd" stroke-linejoin="round" stroke-width="28.222" preserveAspectRatio="xMidYMid" viewBox="93466 30500 1669 2502" role="img" aria-labelledby="title">
  <title id="title">Verkehrszeichen E9f - Parking mandatory partly on pavement or verge</title>
  <g class="Page">
    <g class="com.sun.star.drawing.PolyPolygonShape">
      <path fill="none" d="M93466 30500h1669v2502h-1669z" class="BoundingBox"/>
      <path fill="#00f" d="M93466 30687v2135l1 9 1 10 2 9 2 9 2 8 3 9 3 9 4 8 4 8 5 8 5 8 5 8 5 7 6 7 7 7 6 6 7 6 8 6 7 5 8 5 8 4 8 5 9 3 8 4 9 2 9 3 9 2 9 2 9 1h9l9 1h1294l9-1h9l9-1 9-2 9-2 9-3 9-2 8-4 9-3 8-5 8-4 8-5 7-5 8-6 6-6 7-6 7-7 5-7 6-7 5-8 5-8 5-8 4-8 4-8 3-9 3-9 2-8 2-9 2-9 1-10 1-9v-2144l-1-9-1-9-2-10-2-9-2-8-3-9-3-9-4-8-4-8-5-8-5-8-5-8-6-7-5-7-7-7-7-6-6-6-8-6-7-5-8-5-8-4-8-4-9-4-8-3-9-3-9-3-9-2-9-1-9-2h-1330l-9 2-9 1-9 2-9 3-9 3-8 3-9 4-8 4-8 4-8 5-7 5-8 6-7 6-6 6-7 7-6 7-5 7-5 8-5 8-5 8-4 8-4 8-3 9-3 9-2 8-2 9-2 10-1 9-1 9z"/>
    </g>
    <g class="com.sun.star.drawing.PolyPolygonShape">
      <path fill="none" d="M93871 30708h859v1252h-859z" class="BoundingBox"/>
      <path fill="#fff" d="M94100 31208h274l12-1 12-2 12-3 12-4 11-5 10-6 10-8 9-8 9-9 7-10 6-10 5-11 5-12 3-12 1-12 1-12v-42l-1-12-1-12-3-12-5-12-5-11-6-10-7-10-9-9-9-8-10-8-10-6-11-5-12-5-12-2-12-2-12-1h-274zm-229 751h229v-543h311l16-1 17-2 16-3 16-4 16-4 15-5 15-6 15-7 15-7 14-8 14-9 13-9 13-10 13-11 11-11 12-12 11-13 10-13 9-13 9-14 8-14 7-15 8-15 6-15 5-15 4-16 4-16 3-16 2-16 1-17v-74l-1-16-2-17-3-16-4-16-4-16-5-15-6-15-8-15-7-15-8-14-9-14-9-13-10-13-11-13-12-12-11-11-13-11-13-10-13-9-14-9-14-8-15-7-15-7-15-6-15-5-16-4-16-4-16-3-17-2-16-1h-540z"/>
    </g>
    <g class="com.sun.star.drawing.PolyPolygonShape">
      <path fill="none" d="M93549 32691h1504v102h-1504z" class="BoundingBox"/>
      <path fill="#fff" d="M95051 32792h-1502v-38h702l109-63h691z"/>
    </g>
    <g class="com.sun.star.drawing.PolyPolygonShape">
      <path fill="none" d="M93776 32356h1039v399h-1039z" class="BoundingBox"/>
      <path fill="#fff" d="m94809 32650-2-7-1-7-1-7v-21l1-8 2-7 2-8 1-9 2-9 1-9v-37l-1-9-1-9-1-9-2-8-2-9-3-9-3-9-3-8-2-6-1-5-1-6-1-6-1-5v-26l-1-8-2-7-3-8-5-4-6-4-5-3-7-3-6-2-7-1-7-1h-6l-7 1-7 1-6 3-6 2-6 4-6 4-5 5-4 5-1 4-1 4-1 5v13l1 5 1 4 3 51-15 1 3 46-291 20-5-1h-6l-5-2-5-2-5-2-5-3-4-3-5-4-6-5-6-4-7-4-7-3-8-2-7-2-8-1h-8l-8 1-8 2-7 3-7 3-7 4-6 5-6 5-6 6-3 4-4 4-5 3-4 3-5 3-5 2-6 1-5 1-290 19-3-46-16 1-4-51 1-4v-9l-1-5v-4l-2-5-1-4-2-4-5-5-6-3-6-4-6-2-6-2-8-2h-14l-6 1-7 1-6 2-6 3-6 4-6 4-5 4-4 5-2 8-1 8v8l1 8 1 5 1 6v6l1 6-1 6v5l-1 6-1 6-2 9-2 9-1 9-1 9-1 9v27l1 9 1 9 2 9 2 9 2 9 2 8 3 9 3 9 2 6 2 7 2 7 1 7 1 7v8l-1 7v10l1 3v3l2 3 1 3 2 2 2 3 3 2 4 3 5 3 6 3 5 2 6 2 6 2h13l6-2 5-1 6-2 6-2 5-3 5-3 4-4 5-4 2-3 3-4 2-4 1-4v-9l-1-5-1-4-4-55 16-1-3-47 290-19h6l5 1 5 1 6 2 5 2 4 3 5 3 4 4 6 5 6 5 7 3 8 4 7 2 8 1 8 1h8l7-1 8-2 8-2 7-3 7-5 6-4 6-6 5-5 4-5 4-3 4-4 5-3 5-2 5-2 5-2 5-1 291-19 3 47 16-1 3 55-1 4v5l1 4 1 5 1 4 3 4 3 3 3 3 5 4 5 3 5 2 6 2 5 2 6 1h12l6-1 5-1 6-1 6-3 5-2 5-4 4-3 5-4 2-3 2-2 1-3 1-3 1-3 1-4v-6"/>
    </g>
  </g>
</svg>
