<svg xmlns="http://www.w3.org/2000/svg" xml:space="preserve" fill-rule="evenodd" stroke-linejoin="round" stroke-width="28.222" preserveAspectRatio="xMidYMid" viewBox="100065 30500 1670 2502" role="img" aria-labelledby="title">
  <title id="title">Verkehrszeichen E9i - Parking exclusively for motorcycles</title>
  <g class="Page">
    <g class="com.sun.star.drawing.PolyPolygonShape">
      <path fill="none" d="M100065 30500h1670v2502h-1670z" class="BoundingBox"/>
      <path fill="#00f" d="M100253 33001h1294l9-1h9l9-1 9-2 9-2 9-3 9-2 8-4 9-3 8-5 8-4 8-5 7-5 8-6 6-6 7-6 7-7 6-7 5-7 5-8 5-8 5-8 4-8 4-8 3-9 3-9 2-8 2-9 2-9 1-10 1-9v-2144l-1-9-1-9-2-9-2-9-2-9-3-9-3-9-4-8-4-8-5-8-5-8-5-8-5-7-6-7-7-7-7-6-6-6-8-6-7-5-8-5-8-4-8-4-9-4-8-3-9-3-9-3-9-2-9-1-9-2h-1330l-9 2-9 1-9 2-9 3-9 3-8 3-9 4-8 4-8 4-8 5-7 5-7 6-8 6-6 6-7 7-5 7-6 7-5 8-5 8-5 8-4 8-4 8-3 9-3 9-2 9-2 9-2 9-1 9-1 9v2144l1 9 1 10 2 9 2 9 2 8 3 9 3 9 4 8 4 8 5 8 5 8 5 8 6 7 5 7 7 7 6 6 8 6 7 6 7 5 8 5 8 4 8 5 9 3 8 4 9 2 9 3 9 2 9 2 9 1h9z"/>
    </g>
    <g class="com.sun.star.drawing.PolyPolygonShape">
      <path fill="none" d="M100364 32104h1073v753h-1073z" class="BoundingBox"/>
      <path fill="#fff" d="m100807 32755 4 8 5 6 5 7 5 6 9 7 9 6 10 5 10 4 11 2 11 1 10 1 11-2 26-1 4-1h4l4-1 4-1 3-2 4-2 3-2 3-3 3-2 2-3 3-3 2-4 2-3 1-4 1-4 1-4 6-20 1-6 3-5 4-4 4-4 5-3 5-2 6-1h33l5-2 5-2 4-2 4-3 3-3 3-3 3-4 2-4 2-5 2-4 1-5v-10h13l2 14 2 14 3 13 5 13 6 13 6 12 8 11 8 11 10 10 10 9 11 9 11 7 12 7 13 5 14 5 13 3h-612l13-4 12-4 13-6 11-7 11-8 10-8 10-10 9-10 8-10 7-12 6-12 5-12 4-13 4-13 2-13 1-14h12v8l1 7 2 7 4 7 4 5 6 6 6 4 6 3h3l2 1 3 1 2 2 2 2 2 2 1 2 1 3zm300-303 7 2 8 1h15l7-1 7-2 7-2 7-4-19-51-169 35-7 2-8 1h-9l-7-1-8-3-8-3-6-5-6-5-34-24 1 11v22l-2 12-2 11-3 10-3 11-4 10 7 3 7 3 7 2 8 2 8 1 7 1h16l7-1 8-1 8-2 7-2 7-2 7-3 7-3 7-4 38-22 5-2 4-2 5-2 5-2 6-1 5-1 5-1h11l5 1 5 1 5 1 5 2 5 2 5 2zm-30 207 1-13 1-12 3-13 3-12 4-12 5-12 6-12 7-11 7-10 8-10 9-9 10-9 9-8 11-7 11-6 11-6 5 13-10 5-10 6-10 7-9 7-9 8-8 8-7 9-7 10-6 10-5 11-5 11-4 11-3 11-2 12-1 11-1 12zm-536-16-3 4-2 4-2 4-1 5-1 4v10l1 4 1 5 2 4 2 4 3 3 3 4 4 3 4 2 4 2 4 2 4 1 5 1h5l4-1 5-1 4-1 4-2 4-3 4-3 3-3 3-4 2-4 2-4 1-4 1-5h82l-1 8-1 7-1 7-2 7-3 7-2 7-3 7-4 6-4 7-4 6-5 5-5 6-5 5-6 5-6 4-6 4-6 4-7 3-7 3-7 2-7 2-7 2-7 1-8 1h-15l-7-1-7-1-7-2-8-2-7-2-6-3-7-3-6-4-7-4-5-4-6-5-5-5-5-6-5-5-4-6-4-7-4-6-3-7-3-7-2-7-2-7-2-7-1-7v-22l1-8 1-7 2-7 2-7 2-7 3-7 3-7 4-6 4-6 5-6 5-5 5-7zm101-74-53 64v-1l-4-1-5-2h-4l-5-1-5 1-5 1-4 1-5 3-53-64h1l7-5 9-5 8-4 9-3 9-3 10-2 9-1 10-1 9 1 10 1 9 2 9 2 9 3 9 4 8 5zm37-44-7 9-11-8-12-7-13-5-12-5-13-4-13-2-14-2h-27l-13 2-14 3-13 4-12 5-12 6-12 6-11 8-7-8 12-8 12-7 13-7 14-5 14-4 14-3 14-2 15-1h14l15 2 14 2 14 4 13 5 14 6 12 8zm-127-51h-134l34 41 11-9 12-7 12-6 12-6 13-4 13-4 14-3zm139 61 7 6 6 6 6 6 5 7 5 7 5 8 5 8 4 8 3 8 3 8 3 9 3 8 2 9 1 8 2 9v9h-13v-8l-1-8-2-8-2-8-2-8-2-8-3-7-4-8-3-7-4-8-5-7-4-6-6-7-5-6-5-6-6-5zm-89 107 3 4 2 4 2 4 2 5h81l-1-11-2-11-4-11-4-10-6-10-6-10-7-8-8-9zm731-76 6 5 6 5 5 5 4 7 5 6 4 6 4 7 3 7 3 7 2 7 2 7 1 7 1 8 1 7v15l-1 8-1 7-2 7-2 7-3 7-3 7-3 7-4 6-5 7-4 5-5 6-5 5-6 5-6 5-6 4-7 4-7 3-6 3-7 3-8 2-7 2-7 1-8 1h-15l-7-1-8-1-7-2-7-2-7-2-8-3-7-3-6-4-7-4-6-4-5-5-6-5-5-6-5-6-4-6-4-6-4-7-3-7-2-6-3-8-2-7-1-7-1-8h82l2 5 2 4 3 4 3 4 3 3 4 3 4 2 4 2 5 2h4l5 1h5l5-1 4-2 5-1 4-3 4-2 3-3 3-4 3-4 2-4 2-5 1-4 1-5v-5l-1-4v-5l-2-4-2-5-2-4-3-4-3-3zm-99 64-4 3-3 3-2 3-2 4-2 3-2 5-1 4v4h-82l1-8 1-8 2-9 2-7 2-8 4-8 3-7 5-7 4-7 5-6 6-7 6-6 6-5 7-5 7-5 7-3zm-9-85 28 77 5-1 5 1h5l5 2 48-67-6-3-5-3-6-2-6-2-6-2-6-2-6-1-6-1h-6l-7-1h-6l-6 1h-6l-6 1-6 2zm130-36-8 11-8-4-8-5-8-3-8-4-9-2-8-3-9-2-9-1-9-1h-27l-9 1-9 2-9 2-9 2-5-13 10-2 10-2 10-2 9-1 10-1h10l10 1h10l9 2 10 2 9 3 10 3 9 3 9 4 9 5zm81 346v-25h-140l12-3 11-3 11-5 11-6 11-6 10-6 9-8 9-8 8-9 8-10 6-10 7-10 5-11 5-11 3-12 3-11 2-12 2-12v-12l-1-12-1-12-2-12-3-12-4-11-5-11-5-11-7-12-7-9-7-10-9-8-9-9-9-7 8-11 7 6 7 6 9-9-8-8-9-6-9-7-9-5-10-6-10-4-10-4-10-4v-33h-91v27l-13 3-14 4-22-60 9 3 7 2 7 1h19l3-2 1-2 1-3 2-10 1-10v-10l-1-9-1-2v-1l-1-2-1-1-2-1h-11l-6 2-5 2-6 3-12 9-11 11-9-24-56 12-12-13-3-1-3-1h-11l-10 1-11 1-10 2-12 4-12 2-12 1h-12l-12-1-12-2-11-3-12-4-7-4-7-4-7-5-6-5-6-5-6-6-5-6-5-6-5-7-4-7-4-7-4-7-3-8-3-8-2-7-2-8 1-8v-3l1-3 2-3 2-2 2-2 3-2 3-1h16v-22l15 1v-21l-1-7 2-4 2-5 1-5 2-5 4-5-1-7-1-7-1-6-2-7-3-6-3-6-4-5-4-5-5-5-5-4-6-4-6-3-6-2-6-2-7-2h-20l-6 2-7 2-6 2-6 3-6 4-5 4-5 5-4 5-4 5-3 6-3 6-2 7-1 6-1 7 5 1-2 7-2 8v8l1 8 1 7 2 8 3 7 4 7 3 8 2 8 1 3v4l-1 2-1 2-1 2-2 2-2 1h-6l-5 2-5 2-4 2-12 10-11 11-10 12-9 13-8 13-7 14-5 14-5 15-4 16-4 17-3 16-2 16-2 17-1 16v34h-21v-42h-12v-26h-13v26h-269v15h15l43 51-7 6-7 8-6 8-6 7-6 9-5 8-5 9-4 10-4 10-3 9-3 10-2 10-2 9-2 10v10l-1 10h17v-9l1-9 1-9 2-9 2-9 3-8 3-9 3-9 4-8 4-9 5-8 5-7 6-7 5-7 7-7 6-7 7 8-8 8-7 9-7 9-6 9-6 10-5 11-4 10-4 11-2 10-2 11-2 11v23l1 11 2 11 2 11 3 11 4 10 4 10 6 10 6 10 6 9 7 9 8 8 8 7 9 7 9 7 9 6 10 5 10 4 11 4 10 3h-166v25z"/>
    </g>
    <g class="com.sun.star.drawing.PolyPolygonShape">
      <path fill="none" d="M100471 30708h859v1252h-859z" class="BoundingBox"/>
      <path fill="#fff" d="M100701 31208h274l12-1 12-2 12-3 12-4 11-5 10-6 10-7 9-9 8-9 8-10 6-10 5-11 5-12 3-12 1-12 1-12v-42l-1-12-1-12-3-12-5-12-5-11-6-10-8-10-8-9-9-8-10-8-10-6-11-5-12-5-12-2-12-2-12-1h-274zm-230 751h230v-543h311l16-1 17-2 16-3 16-4 16-4 15-5 15-6 15-7 15-7 14-8 14-9 13-9 13-10 13-11 12-11 11-12 11-13 10-13 9-13 9-14 8-14 7-15 7-15 6-15 5-15 4-16 4-16 3-16 2-16 1-17v-74l-1-16-2-17-3-16-4-16-4-16-5-15-6-15-7-15-7-15-8-14-9-14-9-13-10-13-11-13-11-12-12-11-13-11-13-10-13-9-14-9-14-8-15-7-15-7-15-6-15-5-16-4-16-4-16-3-17-2-16-1h-541z"/>
    </g>
  </g>
</svg>
