<svg xmlns="http://www.w3.org/2000/svg" xml:space="preserve" viewBox="0 0 102.417 102.535" role="img" aria-labelledby="title">
  <title id="title">Verkehrszeichen F11 - End of &quot;autoweg&quot;/&quot;route pour automobiles&quot;</title>
  <path fill="#0071b3" d="M7.673.1h87.11c4.166.04 7.533 3.406 7.533 7.573v87.312c0 4.087-3.367 7.451-7.453 7.451H7.633C3.465 102.436.1 99.072.1 95.024V7.673A7.524 7.524 0 0 1 7.633.14z"/>
  <path fill="none" stroke="#0071b3" stroke-miterlimit="3.863" stroke-width=".2" d="M7.673.1h87.11c4.166.04 7.533 3.406 7.533 7.573v87.312c0 4.087-3.367 7.451-7.453 7.451H7.633C3.465 102.436.1 99.072.1 95.024V7.673A7.524 7.524 0 0 1 7.633.14z"/>
  <path fill="#fff" d="m7.633 1.943 87.15.08c3.084 0 5.688 2.524 5.688 5.649v87.351c0 3.086-2.604 5.649-5.688 5.649l-87.591-.16c-2.925 0-5.169-2.364-5.169-5.249l-.12-87.63c0-3.085 2.564-5.69 5.73-5.69"/>
  <path fill="none" stroke="#fff" stroke-miterlimit="3.863" stroke-width=".2" d="m7.633 1.943 87.15.08c3.084 0 5.688 2.524 5.688 5.649v87.351c0 3.086-2.604 5.649-5.688 5.649l-87.591-.16c-2.925 0-5.169-2.364-5.169-5.249l-.12-87.63c0-3.085 2.564-5.69 5.73-5.69z"/>
  <path fill="#0071b3" d="m7.633 3.666 87.15.041c2.162 0 3.965 1.803 3.965 3.966v87.351c0 2.163-1.803 3.968-3.965 3.968H7.633c-2.164 0-3.967-1.805-3.967-3.968V7.633c0-2.163 1.803-3.967 3.967-3.967"/>
  <path fill="none" stroke="#0071b3" stroke-miterlimit="3.863" stroke-width=".2" d="m7.633 3.666 87.15.041c2.162 0 3.965 1.803 3.965 3.966v87.351c0 2.163-1.803 3.968-3.965 3.968H7.633c-2.164 0-3.967-1.805-3.967-3.968V7.633c0-2.163 1.803-3.967 3.967-3.967z"/>
  <path fill="#fff" d="M85.286 50.187c1.162 4.688.201 11.18-1.922 17.431h-2.365v8.814h4.088v1.242H17.049v-1.242h4.207v-8.774h-2.284c-1.803-6.291-2.124-11.861-1.723-17.471.12-2.725 1.523-3.526 2.645-4.447l9.095-20.876h44.637l9.056 20.796c.24.399.561.359.881.681.963.84 1.242 1.922 1.723 3.846"/>
  <path fill="none" d="M85.286 50.187c1.162 4.688.201 11.18-1.922 17.431h-2.365v8.814h4.088v1.242H17.049v-1.242h4.207v-8.774h-2.284c-1.803-6.291-2.124-11.861-1.723-17.471.12-2.725 1.523-3.526 2.645-4.447l9.095-20.876h44.637l9.056 20.796c.24.399.561.359.881.681.963.84 1.242 1.922 1.723 3.846"/>
  <path fill="#0071b3" d="m21.897 45.659 8.134-18.953h42.113l8.414 19.033c-19.674-1.924-38.987-2.324-58.661-.08"/>
  <path fill="none" d="m21.897 45.659 8.134-18.953h42.113l8.414 19.033c-19.674-1.924-38.987-2.324-58.661-.08"/>
  <path fill="#0071b3" fill-rule="evenodd" d="M23.86 56.517c-2.844 0-4.607-3.045-3.205-5.488s4.969-2.444 6.371 0-.361 5.488-3.166 5.488" clip-rule="evenodd"/>
  <path fill="none" d="M23.86 56.517c-2.844 0-4.607-3.045-3.205-5.488s4.969-2.444 6.371 0-.361 5.488-3.166 5.488"/>
  <path fill="#0071b3" fill-rule="evenodd" d="M78.354 56.517c-2.845 0-4.607-3.045-3.205-5.488s4.969-2.444 6.371 0-.361 5.488-3.166 5.488" clip-rule="evenodd"/>
  <path fill="none" d="M78.354 56.517c-2.845 0-4.607-3.045-3.205-5.488s4.969-2.444 6.371 0-.361 5.488-3.166 5.488"/>
  <path fill="#0071b3" fill-rule="evenodd" d="M69.178 55.396H33.196v-1.362h35.982z" clip-rule="evenodd"/>
  <path fill="none" d="M69.178 55.396H33.196v-1.362h35.982z"/>
  <path fill="#0071b3" fill-rule="evenodd" d="M76.231 59.643H26.185V58.28h50.046z" clip-rule="evenodd"/>
  <path fill="none" d="M76.231 59.643H26.185V58.28h50.046z"/>
  <path fill="#0071b3" fill-rule="evenodd" d="M69.178 64.331H33.196v-1.362h35.982z" clip-rule="evenodd"/>
  <path fill="none" d="M69.178 64.331H33.196v-1.362h35.982z"/>
  <path fill="#0071b3" fill-rule="evenodd" d="M73.786 76.672H28.388v-9.136h45.397v9.136z" clip-rule="evenodd"/>
  <path fill="none" d="M73.786 76.672H28.388v-9.136h45.397v9.136z"/>
  <path fill="#ed1c24" fill-rule="evenodd" d="M3.546 95.344v-5.97L89.333 3.626h5.65c2.604.201 3.848 2.084 3.848 3.847v5.771L13.122 99.071h-5.77c-1.362 0-3.406-.923-3.806-3.727" clip-rule="evenodd"/>
  <path fill="none" d="M3.546 95.344v-5.97L89.333 3.626h5.65c2.604.201 3.848 2.084 3.848 3.847v5.771L13.122 99.071h-5.77c-1.362 0-3.406-.923-3.806-3.727"/>
</svg>
