<svg xmlns="http://www.w3.org/2000/svg" viewBox="0 0 68.599 68.599" role="img" aria-labelledby="title">
  <title id="title">Verkehrszeichen F52 - Emergency exit in tunnels</title>
  <path d="M69.593 572.305h58.274l1.041.116.925.231.925.578.694.578.578.694.462.925.347.925.116 1.04v58.39l-.116.926-.347.925-.462.925-.578.693-.694.694-.925.347-.925.347-.925.115H69.477l-.925-.115-1.04-.347-.81-.347-.693-.694-.694-.693-.463-.925-.23-.81-.116-1.04v-58.39l.115-1.041.231-.925.463-.925.694-.694.693-.578.81-.462 1.04-.347.925-.116" style="fill:#0f0;fill-opacity:1;fill-rule:nonzero;stroke:none" transform="translate(-64.43 -572.23)"/>
  <path d="M69.593 572.305h58.274l1.041.116.925.347.81.462.809.694.578.694.462.809.232.925.115 1.04v58.39l-.115.926-.232.925-.462.809-.578.81-.81.577-.809.463-.925.231-.925.116H69.477l-.925-.116-1.04-.231-.81-.463-.693-.578-.578-.809-.463-.81-.347-.809-.115-1.04v-58.39l.115-1.041.347-.925.463-.81.578-.693.693-.694.81-.462 1.04-.232.925-.115v-.116l-.925.116-1.04.231-.81.463-.693.693-.694.694-.463.925-.23.925-.116 1.04v58.39l.115 1.041.231.925.463.81.694.809.693.578.81.463 1.04.23.925.116h58.506l.925-.115.925-.231.925-.463.81-.578.577-.81.463-.924.231-.925.116-.925v-58.39l-.116-1.041-.231-.925-.463-.925-.693-.694-.694-.693-.81-.463-1.04-.231-1.04-.116z" style="fill:#0f0;fill-opacity:1;fill-rule:nonzero;stroke:none" transform="translate(-64.43 -572.23)"/>
  <path d="M69.593 572.305h58.274l1.041.116.925.347.81.462.809.694.578.694.462.809.232.925.115 1.04v58.39l-.115.926-.232.925-.462.809-.578.81-.81.577-.809.463-.925.231-.925.116H69.477l-.925-.116-1.04-.231-.81-.463-.693-.578-.578-.809-.463-.81-.347-.809-.115-1.04v-58.39l.115-1.041.347-.925.463-.81.578-.693.693-.694.81-.462 1.04-.232.925-.115v-.116l-.925.116-1.04.231-.81.463-.693.693-.694.694-.463.925-.23.925-.116 1.04v58.39l.115 1.041.231.925.463.81.694.809.693.578.81.463 1.04.23.925.116h58.506l.925-.115.925-.231.925-.463.81-.578.577-.81.463-.924.231-.925.116-.925v-58.39l-.116-1.041-.231-.925-.463-.925-.693-.694-.694-.693-.81-.463-1.04-.231-1.04-.116z" style="fill:none;stroke:#0f0;stroke-width:.14999999;stroke-linecap:butt;stroke-linejoin:miter;stroke-miterlimit:10;stroke-opacity:1;stroke-dasharray:none" transform="translate(-64.43 -572.23)"/>
  <path d="M69.477 573.577h58.39l.81.116.693.23 1.157.81.81 1.157.23.693.116.81v58.39l-.116.809-.23.694-.81 1.156-1.157.81-.693.23-.81.116-58.62-.115-.695-.116-.693-.231-1.041-.694-.462-.578-.232-.578-.347-1.388-.115-58.621.115-.694.232-.693.809-1.157.578-.578.694-.231.694-.347z" style="fill:#fff;fill-opacity:1;fill-rule:nonzero;stroke:none" transform="translate(-64.43 -572.23)"/>
  <path d="M68.784 573.577v.116l.693-.116h58.39l.81.116.578.23 1.272.81.81 1.157.23.693.116.81v58.39l-.116.809-.23.578-.81 1.272-1.272.81-.578.23h-.81l-58.62-.115h-.695l-.578-.231-1.156-.694-.462-.578-.232-.578-.347-1.388v-59.315l.347-.693.81-1.157.462-.462.694-.347.694-.231.693-.116h58.39l-58.39-.116zl-.694.231-.694.347-.578.463-.81 1.271-.23.694-.116.694.115 58.621.232 1.388.347.693.346.463 1.157.81.693.115.694.116 58.621.115.81-.115.693-.232 1.272-.809.81-1.156.231-.694v-60.009l-.231-.693-.81-1.157-1.272-.925-.693-.231h-.81l-58.39-.116z" style="fill:#fff;fill-opacity:1;fill-rule:nonzero;stroke:none" transform="translate(-64.43 -572.23)"/>
  <path d="M68.784 573.577v.116l.693-.116h58.39l.81.116.578.23 1.272.81.81 1.157.23.693.116.81v58.39l-.116.809-.23.578-.81 1.272-1.272.81-.578.23h-.81l-58.62-.115h-.695l-.578-.231-1.156-.694-.462-.578-.232-.578-.347-1.388v-59.315l.347-.693.81-1.157.462-.462.694-.347.694-.231.693-.116h58.39l-58.39-.116-.693.116-.694.231-.694.347-.578.463-.81 1.272-.23.693-.116.694.115 58.621.232 1.388.347.693.346.463 1.157.81.693.115.694.116 58.621.115.81-.115.693-.232 1.272-.809.81-1.156.231-.694v-60.009l-.231-.693-.81-1.157-1.272-.925-.693-.231h-.81l-58.39-.116z" style="fill:none;stroke:#fff;stroke-width:.14999999;stroke-linecap:butt;stroke-linejoin:miter;stroke-miterlimit:10;stroke-opacity:1;stroke-dasharray:none" transform="translate(-64.43 -572.23)"/>
  <path d="M69.477 574.733h58.968l.463.232.925.578.578.809.116 1.04v58.39l-.116 1.041-.578.81-.925.578-1.04.231h-58.39l-.926-.231-.925-.578-.578-.81-.115-.462v-59.547l.115-.462.578-.925.925-.578.463-.116z" style="fill:#0f0;fill-opacity:1;fill-rule:nonzero;stroke:none" transform="translate(-64.43 -572.23)"/>
  <path d="M69.015 574.733h58.852l.578.116.463.116.81.578.577.809.232 1.04v58.39l-.232 1.041-.578.81-.809.578-1.04.231h-58.39l-.926-.231-.809-.578-.578-.81-.231-.462v-59.547l.23-.462.579-.81.81-.577zh58.852l-58.39-.115zl-.578.116-.81.578-.578.81-.115.577-.116.463v58.506l.116.578.115.462.578.925.81.578 1.04.116h58.39l1.157-.116.809-.578.578-.925.231-1.04v-58.39l-.23-1.041-.579-.925-.81-.578-.577-.116h-.579l-58.39-.115z" style="fill:#0f0;fill-opacity:1;fill-rule:nonzero;stroke:none" transform="translate(-64.43 -572.23)"/>
  <path d="M69.015 574.733h58.852l.578.116.463.116.81.578.577.809.232 1.04v58.39l-.232 1.041-.578.81-.809.578-1.04.231h-58.39l-.926-.231-.809-.578-.578-.81-.231-.462v-59.546l.23-.463.579-.81.81-.577.462-.232h58.852l-58.39-.115-.462.115-.578.116-.81.578-.578.81-.115.578-.116.462v58.506l.116.578.115.462.578.925.81.578 1.04.116h58.39l1.157-.116.809-.578.578-.925.231-1.04v-58.39l-.23-1.041-.579-.925-.81-.578-.577-.116h-.579l-58.39-.115z" style="fill:none;stroke:#0f0;stroke-width:.14999999;stroke-linecap:butt;stroke-linejoin:miter;stroke-miterlimit:10;stroke-opacity:1;stroke-dasharray:none" transform="translate(-64.43 -572.23)"/>
  <path d="m104.28 592.308-.925-.116-.81-.23-.693-.348-.694-.578-.462-.578-.463-.81-.231-.693-.116-.925.116-.81.231-.809.463-.81.462-.577.694-.578.694-.347.81-.231.924-.116.81.116.809.23.694.348.693.578.463.578.462.81.232.809.115.809-.115.925-.232.694-.462.81-.463.577-.693.578-.694.347-.81.231z" style="fill:#fff;fill-opacity:1;fill-rule:evenodd;stroke:none" transform="translate(-64.43 -572.23)"/>
  <path d="M104.396 592.886h15.03l3.816 6.938.232.809-.116.81-.347.693-.578.463-.81.346h-.809l-.693-.346-.579-.694-2.428-4.74h-4.393l2.659 6.127.578 1.503 1.388 10.522 7.63-.115.348.115.809.347.578.463.347.693v.81l-.116.693-.462.694-.578.463-.925.115-9.135-.115-.578-.116-.462-.231-.925-.694-.81-1.04-.578-1.272-1.503-5.897-4.162 7.4-2.775 10.059-.116.462-.462.694-.578.463-.81.115-.693-.115-.694-.232-.578-.462-.347-.578v-.694l2.197-10.29.347-1.157.346-.925 4.857-9.48-3.585-5.782-3.815 3.816-.81.809-.578.347-.81.115-3.93.116-.925-.231-.81-.463-.347-.693-.115-.81.115-.81.347-.693.81-.578.925-.231h3.815z" style="fill:#fff;fill-opacity:1;fill-rule:nonzero;stroke:none" transform="translate(-64.43 -572.23)"/>
  <path d="M104.396 592.886h15.03l3.816 6.938.232.809-.116.81-.347.693-.578.463-.81.346h-.809l-.693-.346-.579-.694-2.428-4.74h-4.393l2.659 6.127.578 1.503 1.388 10.522 7.63-.115.348.115.809.347.578.463.347.693v.81l-.116.693-.462.694-.578.463-.925.115-9.135-.115-.578-.116-.462-.231-.925-.694-.81-1.04-.578-1.272-1.503-5.897-4.162 7.4-2.775 10.059-.116.462-.462.694-.578.463-.81.115-.693-.115-.694-.232-.578-.462-.347-.578v-.694l2.197-10.29.347-1.157.346-.925 4.857-9.48-3.585-5.782-3.815 3.816-.81.809-.578.347-.81.115-3.93.116-.925-.231-.81-.463-.347-.693-.115-.81.115-.81.347-.693.81-.578.925-.231h3.815z" style="fill:none;stroke:#fff;stroke-width:.14999999;stroke-linecap:butt;stroke-linejoin:miter;stroke-miterlimit:10;stroke-opacity:1;stroke-dasharray:none" transform="translate(-64.43 -572.23)"/>
  <path d="M70.402 632.198h17.113v-51.221H70.402z" style="fill:#fff;fill-opacity:1;fill-rule:evenodd;stroke:none" transform="translate(-64.43 -572.23)"/>
  <path d="M70.402 632.198h17.113v-51.221H70.402z" style="fill:none;stroke:#fff;stroke-width:.14999999;stroke-linecap:butt;stroke-linejoin:miter;stroke-miterlimit:10;stroke-opacity:1;stroke-dasharray:none" transform="translate(-64.43 -572.23)"/>
</svg>
