<svg xmlns="http://www.w3.org/2000/svg" xml:space="preserve" viewBox="0 0 152.647 132.505" role="img" aria-labelledby="title">
  <title id="title">Verkehrszeichen F89 - Announces rules or dangers on specific lanes only</title>
  <path fill="#0071b3" d="M.02 5.224C.02 2.153.978 0 4.048 0h143.574c3.41 0 5.025 1.814 5.025 5.224v91.567c0 3.331-1.695 4.946-5.025 4.946H4.048c-2.971 0-4.028-1.935-4.028-4.946z"/>
  <path fill="none" d="M.02 5.224C.02 2.153.978 0 4.048 0h143.574c3.41 0 5.025 1.814 5.025 5.224v91.567c0 3.331-1.695 4.946-5.025 4.946H4.048c-2.971 0-4.028-1.935-4.028-4.946z"/>
  <path fill="#0071b3" d="M2.752 6.101c0-2.233 1.017-3.39 3.231-3.39h140.183c2.394 0 3.769.978 3.769 3.39v89.335c0 2.491-1.117 3.589-3.569 3.589H5.983c-2.274 0-3.231-1.296-3.231-3.589z"/>
  <path fill="none" stroke="#fff" stroke-miterlimit="3.863" stroke-width="1.595" d="M2.752 6.101c0-2.233 1.017-3.39 3.231-3.39h140.183c2.394 0 3.769.978 3.769 3.39v89.335c0 2.491-1.117 3.589-3.569 3.589H5.983c-2.274 0-3.231-1.296-3.231-3.589z"/>
  <path fill="#0071b3" d="M147.562 132.505H5.105c-2.811 0-5.105-2.272-5.105-5.085v-18.065a5.08 5.08 0 0 1 5.085-5.086l142.377-.02c2.813 0 5.186 2.333 5.186 5.145v18.026a5.08 5.08 0 0 1-5.086 5.085"/>
  <path fill="none" d="M147.562 132.505H5.105c-2.811 0-5.105-2.272-5.105-5.085v-18.065a5.08 5.08 0 0 1 5.085-5.086l142.377-.02c2.813 0 5.186 2.333 5.186 5.145v18.026a5.08 5.08 0 0 1-5.086 5.085"/>
  <path fill="#fff" fill-rule="evenodd" d="M44.069 111.647v2.433h3.929v12.423h3.39v-17.986h-2.772c-.339 2.752-2.293 3.11-4.547 3.13" clip-rule="evenodd"/>
  <path fill="none" d="M44.069 111.647v2.433h3.929v12.423h3.39v-17.986h-2.772c-.339 2.752-2.293 3.11-4.547 3.13"/>
  <path fill="#fff" fill-rule="evenodd" d="m55.835 108.517-1.157 9.851 3.33.259c.818-1.954 4.547-1.834 4.547 1.975 0 4.905-5.006 4.068-5.006.957l-3.37.26c.12 3.051 2.593 5.205 5.763 5.205 3.729 0 6.102-2.613 6.102-6.701 0-5.543-5.424-6.999-7.876-5.244l.418-3.529h6.74v-3.031h-9.491z" clip-rule="evenodd"/>
  <path fill="none" d="m55.835 108.517-1.157 9.851 3.33.259c.818-1.954 4.547-1.834 4.547 1.975 0 4.905-5.006 4.068-5.006.957l-3.37.26c.12 3.051 2.593 5.205 5.763 5.205 3.729 0 6.102-2.613 6.102-6.701 0-5.543-5.424-6.999-7.876-5.244l.418-3.529h6.74v-3.031h-9.491z"/>
  <path fill="#fff" fill-rule="evenodd" d="M74.579 123.791c-1.396 0-2.433-.977-2.433-4.826v-2.891c0-3.849 1.037-4.826 2.433-4.826 1.416 0 2.453.978 2.453 4.826v2.891c0 3.849-1.037 4.826-2.453 4.826m0 2.853c-3.948 0-5.743-2.613-5.743-9.134 0-6.501 1.795-9.133 5.743-9.133 3.968 0 5.764 2.632 5.764 9.133 0 6.52-1.796 9.134-5.764 9.134" clip-rule="evenodd"/>
  <path fill="none" d="M74.579 123.791c-1.396 0-2.433-.977-2.433-4.826v-2.891c0-3.849 1.037-4.826 2.433-4.826 1.416 0 2.453.978 2.453 4.826v2.891c0 3.849-1.037 4.826-2.453 4.826m0 2.853c-3.948 0-5.743-2.613-5.743-9.134 0-6.501 1.795-9.133 5.743-9.133 3.968 0 5.764 2.632 5.764 9.133 0 6.52-1.796 9.134-5.764 9.134"/>
  <path fill="#fff" fill-rule="evenodd" d="M88.876 123.791c-1.396 0-2.432-.977-2.432-4.826v-2.891c0-3.849 1.035-4.826 2.432-4.826 1.416 0 2.453.978 2.453 4.826v2.891c0 3.849-1.037 4.826-2.453 4.826m0 2.853c-3.947 0-5.742-2.613-5.742-9.134 0-6.501 1.795-9.133 5.742-9.133 3.969 0 5.764 2.632 5.764 9.133 0 6.52-1.795 9.134-5.764 9.134" clip-rule="evenodd"/>
  <path fill="none" d="M88.876 123.791c-1.396 0-2.432-.977-2.432-4.826v-2.891c0-3.849 1.035-4.826 2.432-4.826 1.416 0 2.453.978 2.453 4.826v2.891c0 3.849-1.037 4.826-2.453 4.826m0 2.853c-3.947 0-5.742-2.613-5.742-9.134 0-6.501 1.795-9.133 5.742-9.133 3.969 0 5.764 2.632 5.764 9.133 0 6.52-1.795 9.134-5.764 9.134"/>
  <path fill="#fff" fill-rule="evenodd" d="M97.431 113.98v12.522h3.151v-7.019c0-3.111 1.935-3.311 2.791-2.911.618.299 1.017.957 1.017 2.232v7.697h3.172v-7.019c0-3.111 1.914-3.311 2.771-2.911.618.299 1.016.957 1.016 2.232v7.697h3.172v-8.714c0-4.566-5.125-5.424-7.398-2.293-1.436-2.652-5.225-2.453-6.68.119v-1.635h-3.012z" clip-rule="evenodd"/>
  <path fill="none" d="M97.431 113.98v12.522h3.151v-7.019c0-3.111 1.935-3.311 2.791-2.911.618.299 1.017.957 1.017 2.232v7.697h3.172v-7.019c0-3.111 1.914-3.311 2.771-2.911.618.299 1.016.957 1.016 2.232v7.697h3.172v-8.714c0-4.566-5.125-5.424-7.398-2.293-1.436-2.652-5.225-2.453-6.68.119v-1.635h-3.012z"/>
  <path fill="#fff" d="M20.918 20.479h5.663V93.98h-5.663z"/>
  <path fill="#fff" fill-rule="evenodd" d="M32.245 21.894h-16.97L23.77 7.737z" clip-rule="evenodd"/>
  <path fill="#fff" d="M67.639 20.479h5.663V93.98h-5.663z"/>
  <path fill="#fff" fill-rule="evenodd" d="M79.026 21.894h-16.97l8.495-14.157z" clip-rule="evenodd"/>
  <path fill="#fff" d="M117.95 20.479h5.663V93.98h-5.663z"/>
  <path fill="#fff" fill-rule="evenodd" d="M129.336 21.894h-16.97l8.495-14.157z" clip-rule="evenodd"/>
  <path fill="#ed1c24" fill-rule="evenodd" d="M120.423 70.849c-13.062 0-21.236-14.138-14.697-25.444 6.541-11.326 22.853-11.326 29.394 0 6.52 11.306-1.637 25.444-14.697 25.444" clip-rule="evenodd"/>
  <path fill="none" d="M120.423 70.849c-13.062 0-21.236-14.138-14.697-25.444 6.541-11.326 22.853-11.326 29.394 0 6.52 11.306-1.637 25.444-14.697 25.444"/>
  <path fill="#fff" fill-rule="evenodd" d="M120.423 65.983c-9.313 0-15.135-10.09-10.488-18.146 4.666-8.076 16.311-8.076 20.977 0 4.646 8.056-1.177 18.146-10.489 18.146" clip-rule="evenodd"/>
  <path fill="none" d="M120.423 65.983c-9.313 0-15.135-10.09-10.488-18.146 4.666-8.076 16.311-8.076 20.977 0 4.646 8.056-1.177 18.146-10.489 18.146"/>
  <path fill="#ed1c24" fill-rule="evenodd" d="M70.232 70.849c-13.061 0-21.237-14.138-14.697-25.444 6.541-11.326 22.853-11.326 29.394 0 6.52 11.306-1.636 25.444-14.697 25.444" clip-rule="evenodd"/>
  <path fill="none" d="M70.232 70.849c-13.061 0-21.237-14.138-14.697-25.444 6.541-11.326 22.853-11.326 29.394 0 6.52 11.306-1.636 25.444-14.697 25.444"/>
  <path fill="#fff" fill-rule="evenodd" d="M70.232 65.983c-9.313 0-15.135-10.09-10.489-18.146 4.666-8.076 16.311-8.076 20.979 0 4.645 8.056-1.178 18.146-10.49 18.146" clip-rule="evenodd"/>
  <path fill="none" d="M70.232 65.983c-9.313 0-15.135-10.09-10.489-18.146 4.666-8.076 16.311-8.076 20.979 0 4.645 8.056-1.178 18.146-10.49 18.146"/>
  <path fill="#120c0e" fill-rule="evenodd" d="M111.229 47.578v2.213h5.942c-2.452 2.892-3.948 6.541-4.267 10.389h2.492c.22-3.988 1.755-7.756 4.348-10.667v-1.934h-8.515z" clip-rule="evenodd"/>
  <path fill="none" d="M111.229 47.578v2.213h5.942c-2.452 2.892-3.948 6.541-4.267 10.389h2.492c.22-3.988 1.755-7.756 4.348-10.667v-1.934h-8.515z"/>
  <path fill="#120c0e" fill-rule="evenodd" d="M125.767 58.266c-.977 0-1.715-.698-1.715-3.39v-2.014c0-2.692.738-3.39 1.715-3.39s1.715.698 1.715 3.39v2.014c-.001 2.692-.738 3.39-1.715 3.39m0 1.994c-2.771 0-4.027-1.834-4.027-6.381 0-4.566 1.256-6.401 4.027-6.401s4.028 1.835 4.028 6.401c0 4.547-1.257 6.381-4.028 6.381" clip-rule="evenodd"/>
  <path fill="none" d="M125.767 58.266c-.977 0-1.715-.698-1.715-3.39v-2.014c0-2.692.738-3.39 1.715-3.39s1.715.698 1.715 3.39v2.014c-.001 2.692-.738 3.39-1.715 3.39m0 1.994c-2.771 0-4.027-1.834-4.027-6.381 0-4.566 1.256-6.401 4.027-6.401s4.028 1.835 4.028 6.401c0 4.547-1.257 6.381-4.028 6.381"/>
  <path fill="#120c0e" fill-rule="evenodd" d="M65.107 53.939c-1.177 0-1.735-.937-1.735-2.293 0-1.336.558-2.273 1.735-2.273 1.176 0 1.755.937 1.755 2.273 0 1.356-.579 2.293-1.755 2.293m1.815 1.077c-2.134 1.994-5.843 1.136-5.843-3.45 0-2.293 1.156-4.307 3.789-4.307 3.13 0 4.466 2.413 4.466 6.62s-1.336 6.602-4.466 6.602c-1.935 0-3.47-.997-3.61-3.292h2.294c.199.858.658 1.316 1.495 1.316 1.496 0 1.934-2.213 1.875-3.489" clip-rule="evenodd"/>
  <path fill="none" d="M65.107 53.939c-1.177 0-1.735-.937-1.735-2.293 0-1.336.558-2.273 1.735-2.273 1.176 0 1.755.937 1.755 2.273 0 1.356-.579 2.293-1.755 2.293m1.815 1.077c-2.134 1.994-5.843 1.136-5.843-3.45 0-2.293 1.156-4.307 3.789-4.307 3.13 0 4.466 2.413 4.466 6.62s-1.336 6.602-4.466 6.602c-1.935 0-3.47-.997-3.61-3.292h2.294c.199.858.658 1.316 1.495 1.316 1.496 0 1.934-2.213 1.875-3.489"/>
  <path fill="#120c0e" fill-rule="evenodd" d="M75.356 58.266c-.977 0-1.714-.698-1.714-3.39v-2.014c0-2.692.737-3.39 1.714-3.39.978 0 1.715.698 1.715 3.39v2.014c0 2.692-.737 3.39-1.715 3.39m0 1.994c-2.771 0-4.028-1.834-4.028-6.381 0-4.566 1.257-6.401 4.028-6.401s4.03 1.835 4.03 6.401c0 4.547-1.258 6.381-4.03 6.381" clip-rule="evenodd"/>
  <path fill="none" d="M75.356 58.266c-.977 0-1.714-.698-1.714-3.39v-2.014c0-2.692.737-3.39 1.714-3.39.978 0 1.715.698 1.715 3.39v2.014c0 2.692-.737 3.39-1.715 3.39m0 1.994c-2.771 0-4.028-1.834-4.028-6.381 0-4.566 1.257-6.401 4.028-6.401s4.03 1.835 4.03 6.401c0 4.547-1.258 6.381-4.03 6.381"/>
</svg>
