<svg xmlns="http://www.w3.org/2000/svg" xml:space="preserve" viewBox="0 0 68.137 124.535" role="img" aria-labelledby="title">
  <title id="title">Verkehrszeichen F105 - End of pedestrian area</title>
  <path fill="#fff" d="M62.973 124.436H5.185c-2.792 0-5.065-2.273-5.065-5.104V5.164A5.07 5.07 0 0 1 5.185.1h57.788a5.07 5.07 0 0 1 5.064 5.064v114.088c0 2.791-2.273 5.184-5.064 5.184"/>
  <path fill="none" stroke="#120c0e" stroke-miterlimit="3.863" stroke-width=".199" d="M62.973 124.436H5.185c-2.792 0-5.065-2.273-5.065-5.104V5.164A5.07 5.07 0 0 1 5.185.1h57.788a5.07 5.07 0 0 1 5.064 5.064v114.088c0 2.791-2.273 5.184-5.064 5.184z"/>
  <path fill="#bfbfbf" d="M37.209 16.568h1.994v-6.46l3.39 6.46h2.593V6l-2.075.041.039 6.5L39.721 6h-2.512z"/>
  <path fill="none" d="M37.209 16.568h1.994v-6.46l3.39 6.46h2.593V6l-2.075.041.039 6.5L39.721 6h-2.512z"/>
  <path fill="#bfbfbf" d="M49.053 16.568h7.26v-1.953h-4.986l.039-2.633h3.271v-1.794h-3.31V7.955h4.864V6.121h-7.138z"/>
  <path fill="none" d="M49.053 16.568h7.26v-1.953h-4.986l.039-2.633h3.271v-1.794h-3.31V7.955h4.864V6.121h-7.138z"/>
  <path fill="#bfbfbf" d="m17.827 7.955-4.666 7.098-.04 1.594h7.458v-1.753l-4.706-.04 4.825-6.779-.039-1.874h-7.338v1.794z"/>
  <path fill="none" d="m17.827 7.955-4.666 7.098-.04 1.594h7.458v-1.753l-4.706-.04 4.825-6.779-.039-1.874h-7.338v1.794z"/>
  <path fill="#bfbfbf" d="M28.834 5.603c-3.23 0-4.626 2.592-4.626 5.662 0 3.071 1.396 5.663 4.626 5.663s4.626-2.592 4.626-5.663-1.396-5.662-4.626-5.662"/>
  <path fill="none" d="M28.834 5.603c-3.23 0-4.626 2.592-4.626 5.662 0 3.071 1.396 5.663 4.626 5.663s4.626-2.592 4.626-5.663-1.396-5.662-4.626-5.662"/>
  <path fill="#fff" d="M28.834 7.955c1.755 0 2.193 1.954 2.193 3.31s-.438 3.31-2.193 3.31-2.154-1.954-2.154-3.31.399-3.31 2.154-3.31"/>
  <path fill="none" d="M28.834 7.955c1.755 0 2.193 1.954 2.193 3.31s-.438 3.31-2.193 3.31-2.154-1.954-2.154-3.31.399-3.31 2.154-3.31"/>
  <path fill="#fff" d="m26.68 104.217 7.139 6.381c-.279.279-.439.718-.439 1.197 0 .916.758 1.715 1.636 1.793v2.074h-.279v.399h.918v-.399h-.24v-2.074c.838 0 1.557-.717 1.675-1.514h.997c.12 3.469 2.951 6.26 6.421 6.26 3.589 0 6.54-2.91 6.54-6.539 0-3.59-2.951-6.5-6.54-6.5-1.077 0-2.034.279-2.95.797l-1.836-3.35.399-.877c.2-.279.56-.16.758-.438.04-.16.04-.239.04-.399-.12-.08-.16-.238-.318-.238h-2.394c-.04.08-.12.039-.199.039l-.079.08a.8.8 0 0 0 0 .438c0 .04.079.04.118.04h1.237c.119 0 .238.04.359.04.039.04.039.04.119.079-.041.16.039.24 0 .32l-.24.557H27.119l.319-1.475c.279-.119.479.119 1.117-.119.199 0 .718-.319 1.356-.08.08-.041-.04-.08.04-.199-.08-.04.04-.16.04-.24-.319-.079-1.197-.159-1.556.08-.399.238-.957.08-1.316.12l-1.196 5.264c-.718-.239-1.516-.438-2.313-.438a6.5 6.5 0 0 0-6.501 6.5c0 3.629 2.911 6.5 6.501 6.5 3.549 0 6.42-2.871 6.42-6.5 0-2.633-1.555-4.825-3.788-5.902z"/>
  <path fill="none" stroke="#bfbfbf" stroke-miterlimit="3.863" stroke-width=".199" d="m26.68 104.217 7.139 6.381c-.279.279-.439.718-.439 1.197 0 .916.758 1.715 1.636 1.793v2.074h-.279v.399h.918v-.399h-.24v-2.074c.838 0 1.557-.717 1.675-1.514h.997c.12 3.469 2.951 6.26 6.421 6.26 3.589 0 6.54-2.91 6.54-6.539 0-3.59-2.951-6.5-6.54-6.5-1.077 0-2.034.279-2.95.797l-1.836-3.35.399-.877c.2-.279.56-.16.758-.438.04-.16.04-.239.04-.399-.12-.08-.16-.238-.318-.238h-2.394c-.04.08-.12.039-.199.039l-.079.08a.8.8 0 0 0 0 .438c0 .04.079.04.118.04h1.237c.119 0 .238.04.359.04.039.04.039.04.119.079-.041.16.039.24 0 .32l-.24.557H27.119l.319-1.475c.279-.119.479.119 1.117-.119.199 0 .718-.319 1.356-.08.08-.041-.04-.08.04-.199-.08-.04.04-.16.04-.24-.319-.079-1.197-.159-1.556.08-.399.238-.957.08-1.316.12l-1.196 5.264c-.718-.239-1.516-.438-2.313-.438a6.5 6.5 0 0 0-6.501 6.5c0 3.629 2.911 6.5 6.501 6.5 3.549 0 6.42-2.871 6.42-6.5 0-2.633-1.555-4.825-3.788-5.902z"/>
  <path fill="none" stroke="#bfbfbf" stroke-miterlimit="3.863" stroke-width=".199" d="M22.573 104.896c.319-.08.718-.159 1.037-.159 3.828 0 6.939 3.23 6.939 7.059v.678"/>
  <path fill="#fff" fill-rule="evenodd" d="M50.17 118.653H17.907v-.519H50.17z" clip-rule="evenodd"/>
  <path fill="none" stroke="#bfbfbf" stroke-miterlimit="3.863" stroke-width=".199" d="M50.17 118.653H17.907v-.519H50.17zM37.688 112.871a9 9 0 0 1-.08-1.076c0-3.828 3.15-7.059 6.979-7.059 2.911 0 5.304 1.754 6.46 4.227m-11.526-5.821-3.229 7.058c.478.359.837.877.837 1.475h1.037c.04-2.272 1.236-4.307 3.111-5.422zm2.036 3.668 2.232 4.028c-.199.199-.438.478-.479.797h-4.666c.08-2.073 1.196-3.828 2.871-4.865zm4.027 4.108 3.948-2.154c-1.077-1.715-2.871-2.831-5.025-2.831-.877 0-1.795.198-2.592.638l2.233 4.027c.08-.039.238-.079.398-.079.399 0 .8.119 1.038.399zm.239.238 3.868-2.154c.479.838.718 1.836.718 2.793a5.89 5.89 0 0 1-5.902 5.901c-3.11 0-5.663-2.473-5.821-5.622h4.586c.08.637.638 1.036 1.235 1.036.798 0 1.396-.559 1.396-1.315 0-.239-.079-.399-.159-.599zm-19.063-7.338.24-.997h12.323L35.893 110c-.16-.041-.278-.16-.519-.119v-2.034h.28v-.359h-.918v.359h.279v2.073c-.32.08-.599.199-.877.438zm-.598 2.672-.399 1.715c-.239.758-.837 2.393-1.396 3.031.08.159.12.319.16.438h4.905c-.08-2.273-1.356-4.266-3.27-5.184zm-2.034 4.506c-.159-.119-.359-.078-.518-.078-.559 0-1.037.438-1.037.916 0 .559.478.957 1.037.957.399 0 .797-.239.877-.678h4.905a5.785 5.785 0 0 1-5.782 5.504c-3.31 0-5.903-2.633-5.903-5.822 0-3.311 2.593-5.982 5.903-5.982.718 0 1.435.2 2.193.479l-.399 1.636c-.239.916-.518 1.953-1.276 3.068z"/>
  <path fill="#bfbfbf" fill-rule="evenodd" d="M6.98 71.998v6.141h2.552v-.997H7.857v-1.715h1.515v-.997H7.857v-1.475h1.675v-.957z" clip-rule="evenodd"/>
  <path fill="none" d="M6.98 71.998v6.141h2.552v-.997H7.857v-1.715h1.515v-.997H7.857v-1.475h1.675v-.957z"/>
  <path fill="#bfbfbf" fill-rule="evenodd" d="m10.21 73.553.917 2.232-.917 2.354h.957l.399-1.397.439 1.397h.957l-.918-2.354.918-2.232h-.957l-.439 1.355-.399-1.355z" clip-rule="evenodd"/>
  <path fill="none" d="m10.21 73.553.917 2.232-.917 2.354h.957l.399-1.397.439 1.397h.957l-.918-2.354.918-2.232h-.957l-.439 1.355-.399-1.355z"/>
  <path fill="#bfbfbf" fill-rule="evenodd" d="M15.953 75.147c0-.957-.16-1.755-1.077-1.755h-.16c-.997 0-1.076.918-1.076 1.954v.957c0 1.036.079 1.954 1.076 1.954h.16c.957 0 1.077-.877 1.077-1.875h-.838c0 .759-.04 1.078-.319 1.078s-.319-.319-.319-1.078v-1.076c0-.797.04-1.116.319-1.116s.319.319.319 1.116h.838z" clip-rule="evenodd"/>
  <path fill="none" d="M15.953 75.147c0-.957-.16-1.755-1.077-1.755h-.16c-.997 0-1.076.918-1.076 1.954v.957c0 1.036.079 1.954 1.076 1.954h.16c.957 0 1.077-.877 1.077-1.875h-.838c0 .759-.04 1.078-.319 1.078s-.319-.319-.319-1.078v-1.076c0-.797.04-1.116.319-1.116s.319.319.319 1.116h.838z"/>
  <path fill="#bfbfbf" fill-rule="evenodd" d="M17.468 75.228v-.319c0-.957.838-.957.838 0v.319zm-.837 1.076v-.957c0-1.476.398-1.954 1.236-1.954.877 0 1.276.479 1.276 1.954v.638h-1.675v.838c0 .479.08.639.399.639.359 0 .439-.16.439-.639v-.199h.837c0 1.116-.279 1.635-1.276 1.635-.957-.001-1.236-.52-1.236-1.955" clip-rule="evenodd"/>
  <path fill="none" d="M17.468 75.228v-.319c0-.957.838-.957.838 0v.319zm-.837 1.076v-.957c0-1.476.398-1.954 1.236-1.954.877 0 1.276.479 1.276 1.954v.638h-1.675v.838c0 .479.08.639.399.639.359 0 .439-.16.439-.639v-.199h.837c0 1.116-.279 1.635-1.276 1.635-.957-.001-1.236-.52-1.236-1.955"/>
  <path fill="#bfbfbf" fill-rule="evenodd" d="M20.698 76.344c0 .996.12 1.156.399 1.156.319 0 .399-.16.399-1.156v-.957c0-.997-.08-1.156-.399-1.156-.279 0-.399.159-.399 1.156zm-.837 3.389v-6.181h.837v.279c.16-.239.399-.399.639-.399.997 0 1.076.917 1.076 1.954v.957c0 1.076-.079 1.953-1.076 1.953-.24 0-.479-.158-.639-.358v1.795z" clip-rule="evenodd"/>
  <path fill="none" d="M20.698 76.344c0 .996.12 1.156.399 1.156.319 0 .399-.16.399-1.156v-.957c0-.997-.08-1.156-.399-1.156-.279 0-.399.159-.399 1.156zm-.837 3.389v-6.181h.837v.279c.16-.239.399-.399.639-.399.997 0 1.076.917 1.076 1.954v.957c0 1.076-.079 1.953-1.076 1.953-.24 0-.479-.158-.639-.358v1.795z"/>
  <path fill="#bfbfbf" fill-rule="evenodd" d="M23.45 71.998v1.555h-.359v.797h.359v2.752c0 1.156.319 1.037 1.197 1.037v-.799c-.16 0-.359.08-.359-.238V74.35h.359v-.797h-.359v-1.555z" clip-rule="evenodd"/>
  <path fill="none" d="M23.45 71.998v1.555h-.359v.797h.359v2.752c0 1.156.319 1.037 1.197 1.037v-.799c-.16 0-.359.08-.359-.238V74.35h.359v-.797h-.359v-1.555z"/>
  <path fill="#bfbfbf" fill-rule="evenodd" d="M26.162 75.228v-.319c0-.957.838-.957.838 0v.319zm-.837 1.076v-.957c0-1.476.398-1.954 1.236-1.954.877 0 1.276.479 1.276 1.954v.638h-1.675v.838c0 .479.08.639.399.639.359 0 .439-.16.439-.639v-.199h.837c0 1.116-.279 1.635-1.276 1.635-.957-.001-1.236-.52-1.236-1.955" clip-rule="evenodd"/>
  <path fill="none" d="M26.162 75.228v-.319c0-.957.838-.957.838 0v.319zm-.837 1.076v-.957c0-1.476.398-1.954 1.236-1.954.877 0 1.276.479 1.276 1.954v.638h-1.675v.838c0 .479.08.639.399.639.359 0 .439-.16.439-.639v-.199h.837c0 1.116-.279 1.635-1.276 1.635-.957-.001-1.236-.52-1.236-1.955"/>
  <path fill="#bfbfbf" fill-rule="evenodd" d="m26.202 72.715.678-1.156h.678l-.957 1.156z" clip-rule="evenodd"/>
  <path fill="none" d="m26.202 72.715.678-1.156h.678l-.957 1.156z"/>
  <path fill="#bfbfbf" fill-rule="evenodd" d="M32.742 75.147c0-.957-.159-1.755-1.076-1.755h-.16c-.997 0-1.077.918-1.077 1.954v.957c0 1.036.08 1.954 1.077 1.954h.16c.957 0 1.076-.877 1.076-1.875h-.837c0 .759-.04 1.078-.319 1.078s-.319-.319-.319-1.078v-1.076c0-.797.04-1.116.319-1.116s.319.319.319 1.116h.837z" clip-rule="evenodd"/>
  <path fill="none" d="M32.742 75.147c0-.957-.159-1.755-1.076-1.755h-.16c-.997 0-1.077.918-1.077 1.954v.957c0 1.036.08 1.954 1.077 1.954h.16c.957 0 1.076-.877 1.076-1.875h-.837c0 .759-.04 1.078-.319 1.078s-.319-.319-.319-1.078v-1.076c0-.797.04-1.116.319-1.116s.319.319.319 1.116h.837z"/>
  <path fill="#bfbfbf" fill-rule="evenodd" d="M33.42 71.998v6.141h.838v-3.111c0-.997.797-.997.797 0v3.111h.838V74.47c0-.638-.318-1.077-.838-1.077-.318 0-.558.16-.797.52v-1.914z" clip-rule="evenodd"/>
  <path fill="none" d="M33.42 71.998v6.141h.838v-3.111c0-.997.797-.997.797 0v3.111h.838V74.47c0-.638-.318-1.077-.838-1.077-.318 0-.558.16-.797.52v-1.914z"/>
  <path fill="#bfbfbf" fill-rule="evenodd" d="M38.246 75.746v.957c0 .398-.12.758-.439.758-.279 0-.398-.279-.398-.599-.001-.758.439-.717.837-1.116m.04 1.953c-.24.399-.479.559-.878.559-.598 0-.838-.717-.838-1.355 0-1.755 1.676-1.316 1.676-2.234 0-.357-.12-.478-.439-.478-.279 0-.398.159-.398.718h-.797c0-.918.359-1.476 1.236-1.476.758 0 1.235.278 1.235 1.315v2.793l.08.598h-.798z" clip-rule="evenodd"/>
  <path fill="none" d="M38.246 75.746v.957c0 .398-.12.758-.439.758-.279 0-.398-.279-.398-.599-.001-.758.439-.717.837-1.116m.04 1.953c-.24.399-.479.559-.878.559-.598 0-.838-.717-.838-1.355 0-1.755 1.676-1.316 1.676-2.234 0-.357-.12-.478-.439-.478-.279 0-.398.159-.398.718h-.797c0-.918.359-1.476 1.236-1.476.758 0 1.235.278 1.235 1.315v2.793l.08.598h-.798z"/>
  <path fill="#bfbfbf" fill-rule="evenodd" d="M39.841 78.139v-4.586h.839v.478c.158-.358.518-.638.836-.638v1.275c-.479 0-.836.121-.836.838v2.633z" clip-rule="evenodd"/>
  <path fill="none" d="M39.841 78.139v-4.586h.839v.478c.158-.358.518-.638.836-.638v1.275c-.479 0-.836.121-.836.838v2.633z"/>
  <path fill="#bfbfbf" fill-rule="evenodd" d="M43.51 74.23c-.318 0-.398.159-.398 1.156v.957c0 .996.08 1.156.398 1.156.279 0 .399-.16.399-1.156v-.957c0-.996-.12-1.156-.399-1.156m1.236-.677h-.837v.199c-.16-.159-.399-.319-.638-.319-.998 0-1.078.917-1.078 1.954v.957c0 1.076.08 1.953 1.078 1.953a.83.83 0 0 0 .638-.318c0 .838-.08 1.037-.438 1.037-.199 0-.32-.08-.32-.279h-.877c0 .797.199 1.077 1.197 1.077.957 0 1.275-.399 1.275-1.196z" clip-rule="evenodd"/>
  <path fill="none" d="M43.51 74.23c-.318 0-.398.159-.398 1.156v.957c0 .996.08 1.156.398 1.156.279 0 .399-.16.399-1.156v-.957c0-.996-.12-1.156-.399-1.156m1.236-.677h-.837v.199c-.16-.159-.399-.319-.638-.319-.998 0-1.078.917-1.078 1.954v.957c0 1.076.08 1.953 1.078 1.953a.83.83 0 0 0 .638-.318c0 .838-.08 1.037-.438 1.037-.199 0-.32-.08-.32-.279h-.877c0 .797.199 1.077 1.197 1.077.957 0 1.275-.399 1.275-1.196z"/>
  <path fill="#bfbfbf" fill-rule="evenodd" d="M46.262 75.228v-.319c0-.957.877-.957.877 0v.319zm-.838 1.076v-.957c0-1.476.439-1.954 1.276-1.954.878 0 1.276.479 1.276 1.954v.638h-1.715v.838c0 .479.08.639.438.639s.438-.16.438-.639v-.199h.838c0 1.116-.279 1.635-1.276 1.635s-1.275-.52-1.275-1.955" clip-rule="evenodd"/>
  <path fill="none" d="M46.262 75.228v-.319c0-.957.877-.957.877 0v.319zm-.838 1.076v-.957c0-1.476.439-1.954 1.276-1.954.878 0 1.276.479 1.276 1.954v.638h-1.715v.838c0 .479.08.639.438.639s.438-.16.438-.639v-.199h.838c0 1.116-.279 1.635-1.276 1.635s-1.275-.52-1.275-1.955"/>
  <path fill="#bfbfbf" fill-rule="evenodd" d="M48.655 78.139v-4.586h.837v.478c.16-.358.52-.638.838-.638s.717.2.797.638c.16-.358.52-.638.838-.638.559 0 .917.398.917 1.156v3.59h-.838v-3.23c0-.798-.837-.798-.837 0v3.23h-.838v-3.23c0-.798-.877-.798-.877 0v3.23z" clip-rule="evenodd"/>
  <path fill="none" d="M48.655 78.139v-4.586h.837v.478c.16-.358.52-.638.838-.638s.717.2.797.638c.16-.358.52-.638.838-.638.559 0 .917.398.917 1.156v3.59h-.838v-3.23c0-.798-.837-.798-.837 0v3.23h-.838v-3.23c0-.798-.877-.798-.877 0v3.23z"/>
  <path fill="#bfbfbf" fill-rule="evenodd" d="M54.396 75.228v-.319c0-.957.838-.957.838 0v.319zm-.835 1.076v-.957c0-1.476.398-1.954 1.235-1.954.878 0 1.276.479 1.276 1.954v.638h-1.676v.838c0 .479.08.639.399.639.359 0 .438-.16.438-.639v-.199h.838c0 1.116-.279 1.635-1.276 1.635-.956-.001-1.234-.52-1.234-1.955" clip-rule="evenodd"/>
  <path fill="none" d="M54.396 75.228v-.319c0-.957.838-.957.838 0v.319zm-.835 1.076v-.957c0-1.476.398-1.954 1.235-1.954.878 0 1.276.479 1.276 1.954v.638h-1.676v.838c0 .479.08.639.399.639.359 0 .438-.16.438-.639v-.199h.838c0 1.116-.279 1.635-1.276 1.635-.956-.001-1.234-.52-1.234-1.955"/>
  <path fill="#bfbfbf" fill-rule="evenodd" d="M56.75 78.139v-4.586h.838v.478c.159-.358.518-.638.837-.638.56 0 .918.398.918 1.156v3.59h-.838v-3.23c0-.798-.917-.798-.917 0v3.23z" clip-rule="evenodd"/>
  <path fill="none" d="M56.75 78.139v-4.586h.838v.478c.159-.358.518-.638.837-.638.56 0 .918.398.918 1.156v3.59h-.838v-3.23c0-.798-.917-.798-.917 0v3.23z"/>
  <path fill="#bfbfbf" fill-rule="evenodd" d="M60.379 71.998v1.555h-.357v.797h.357v2.752c0 1.156.32 1.037 1.197 1.037v-.799c-.16 0-.359.08-.359-.238V74.35h.359v-.797h-.359v-1.555z" clip-rule="evenodd"/>
  <path fill="none" d="M60.379 71.998v1.555h-.357v.797h.357v2.752c0 1.156.32 1.037 1.197 1.037v-.799c-.16 0-.359.08-.359-.238V74.35h.359v-.797h-.359v-1.555z"/>
  <path fill="#bfbfbf" fill-rule="evenodd" d="M12.682 83.602v-.318c0-.957.838-.957.838 0v.318zm-.837 1.115v-.956c0-1.476.399-1.994 1.236-1.994.878 0 1.276.519 1.276 1.994v.638h-1.675v.838c0 .479.08.639.399.639.359 0 .439-.16.439-.639v-.238h.837c0 1.155-.279 1.674-1.276 1.674-.957-.001-1.236-.56-1.236-1.956" clip-rule="evenodd"/>
  <path fill="none" d="M12.682 83.602v-.318c0-.957.838-.957.838 0v.318zm-.837 1.115v-.956c0-1.476.399-1.994 1.236-1.994.878 0 1.276.519 1.276 1.994v.638h-1.675v.838c0 .479.08.639.399.639.359 0 .439-.16.439-.639v-.238h.837c0 1.155-.279 1.674-1.276 1.674-.957-.001-1.236-.56-1.236-1.956"/>
  <path fill="#bfbfbf" fill-rule="evenodd" d="M15.354 80.371v1.596h-.358v.797h.358v2.712c0 1.196.319 1.077 1.197 1.077v-.799c-.16 0-.359.041-.359-.278v-2.712h.359v-.797h-.359v-1.596z" clip-rule="evenodd"/>
  <path fill="none" d="M15.354 80.371v1.596h-.358v.797h.358v2.712c0 1.196.319 1.077 1.197 1.077v-.799c-.16 0-.359.041-.359-.278v-2.712h.359v-.797h-.359v-1.596z"/>
  <path fill="#bfbfbf" fill-rule="evenodd" d="M20.858 83.761v.956c0 .998-.08 1.158-.399 1.158-.279 0-.399-.16-.399-1.158v-.956c0-.997.12-1.196.399-1.196.319-.001.399.199.399 1.196m.877-3.39v6.182h-.877v-.2c-.12.16-.359.319-.598.319-1.037 0-1.117-.918-1.117-1.955v-.956c0-1.076.08-1.994 1.117-1.994.239 0 .478.16.598.319v-1.715z" clip-rule="evenodd"/>
  <path fill="none" d="M20.858 83.761v.956c0 .998-.08 1.158-.399 1.158-.279 0-.399-.16-.399-1.158v-.956c0-.997.12-1.196.399-1.196.319-.001.399.199.399 1.196m.877-3.39v6.182h-.877v-.2c-.12.16-.359.319-.598.319-1.037 0-1.117-.918-1.117-1.955v-.956c0-1.076.08-1.994 1.117-1.994.239 0 .478.16.598.319v-1.715z"/>
  <path fill="#bfbfbf" fill-rule="evenodd" d="M23.251 83.602v-.318c0-.957.837-.957.837 0v.318zm-.838 1.115v-.956c0-1.476.399-1.994 1.237-1.994.877 0 1.276.519 1.276 1.994v.638h-1.675v.838c0 .479.08.639.399.639.359 0 .438-.16.438-.639v-.238h.838c0 1.155-.279 1.674-1.276 1.674-.958-.001-1.237-.56-1.237-1.956" clip-rule="evenodd"/>
  <path fill="none" d="M23.251 83.602v-.318c0-.957.837-.957.837 0v.318zm-.838 1.115v-.956c0-1.476.399-1.994 1.237-1.994.877 0 1.276.519 1.276 1.994v.638h-1.675v.838c0 .479.08.639.399.639.359 0 .438-.16.438-.639v-.238h.838c0 1.155-.279 1.674-1.276 1.674-.958-.001-1.237-.56-1.237-1.956"/>
  <path fill="#bfbfbf" fill-rule="evenodd" d="m23.291 81.09.678-1.157h.678l-.958 1.157z" clip-rule="evenodd"/>
  <path fill="none" d="m23.291 81.09.678-1.157h.678l-.958 1.157z"/>
  <path fill="#bfbfbf" fill-rule="evenodd" d="M27.917 83.521c0-.957-.16-1.755-1.077-1.755h-.16c-.997 0-1.076.918-1.076 1.994v.956c0 1.037.079 1.955 1.076 1.955h.16c.957 0 1.077-.877 1.077-1.914h-.838c0 .758-.04 1.117-.319 1.117s-.319-.359-.319-1.117v-1.076c0-.758.04-1.117.319-1.117s.319.359.319 1.117h.838z" clip-rule="evenodd"/>
  <path fill="none" d="M27.917 83.521c0-.957-.16-1.755-1.077-1.755h-.16c-.997 0-1.076.918-1.076 1.994v.956c0 1.037.079 1.955 1.076 1.955h.16c.957 0 1.077-.877 1.077-1.914h-.838c0 .758-.04 1.117-.319 1.117s-.319-.359-.319-1.117v-1.076c0-.758.04-1.117.319-1.117s.319.359.319 1.117h.838z"/>
  <path fill="#bfbfbf" fill-rule="evenodd" d="M28.595 80.371v6.182h.837v-3.151c0-.957.798-.957.798 0v3.151h.837v-3.67c0-.678-.319-1.116-.837-1.116-.319 0-.558.16-.798.519v-1.914h-.837z" clip-rule="evenodd"/>
  <path fill="none" d="M28.595 80.371v6.182h.837v-3.151c0-.957.798-.957.798 0v3.151h.837v-3.67c0-.678-.319-1.116-.837-1.116-.319 0-.558.16-.798.519v-1.914h-.837z"/>
  <path fill="#bfbfbf" fill-rule="evenodd" d="M33.42 84.119v.998c0 .358-.119.758-.438.758-.28 0-.399-.279-.399-.599 0-.757.438-.757.837-1.157m.04 1.994c-.239.399-.478.559-.877.559-.598 0-.838-.717-.838-1.396 0-1.715 1.675-1.315 1.675-2.194 0-.357-.119-.518-.438-.518-.28 0-.399.199-.399.758h-.798c0-.957.359-1.516 1.236-1.516.758 0 1.237.279 1.237 1.355v2.752l.08.639h-.798z" clip-rule="evenodd"/>
  <path fill="none" d="M33.42 84.119v.998c0 .358-.119.758-.438.758-.28 0-.399-.279-.399-.599 0-.757.438-.757.837-1.157m.04 1.994c-.239.399-.478.559-.877.559-.598 0-.838-.717-.838-1.396 0-1.715 1.675-1.315 1.675-2.194 0-.357-.119-.518-.438-.518-.28 0-.399.199-.399.758h-.798c0-.957.359-1.516 1.236-1.516.758 0 1.237.279 1.237 1.355v2.752l.08.639h-.798z"/>
  <path fill="#bfbfbf" fill-rule="evenodd" d="M35.016 86.553v-4.586h.838v.438c.16-.358.518-.639.836-.639v1.315c-.478 0-.836.08-.836.799v2.672z" clip-rule="evenodd"/>
  <path fill="none" d="M35.016 86.553v-4.586h.838v.438c.16-.358.518-.639.836-.639v1.315c-.478 0-.836.08-.836.799v2.672z"/>
  <path fill="#bfbfbf" fill-rule="evenodd" d="M38.686 82.645c-.32 0-.399.159-.399 1.156v.957c0 .996.079 1.156.399 1.156.278 0 .397-.16.397-1.156v-.957c0-.997-.119-1.156-.397-1.156m1.235-.678h-.838v.199a.83.83 0 0 0-.638-.319c-.997 0-1.077.878-1.077 1.954v.957c0 1.037.08 1.953 1.077 1.953.24 0 .479-.158.638-.318 0 .838-.079 1.037-.438 1.037-.199 0-.318-.08-.318-.279h-.878c0 .797.2 1.077 1.196 1.077.957 0 1.276-.399 1.276-1.197z" clip-rule="evenodd"/>
  <path fill="none" d="M38.686 82.645c-.32 0-.399.159-.399 1.156v.957c0 .996.079 1.156.399 1.156.278 0 .397-.16.397-1.156v-.957c0-.997-.119-1.156-.397-1.156m1.235-.678h-.838v.199a.83.83 0 0 0-.638-.319c-.997 0-1.077.878-1.077 1.954v.957c0 1.037.08 1.953 1.077 1.953.24 0 .479-.158.638-.318 0 .838-.079 1.037-.438 1.037-.199 0-.318-.08-.318-.279h-.878c0 .797.2 1.077 1.196 1.077.957 0 1.276-.399 1.276-1.197z"/>
  <path fill="#bfbfbf" fill-rule="evenodd" d="M41.436 83.602v-.318c0-.957.838-.957.838 0v.318zm-.836 1.115v-.956c0-1.476.398-1.994 1.235-1.994.877 0 1.276.519 1.276 1.994v.638h-1.676v.838c0 .479.08.639.399.639.358 0 .438-.16.438-.639v-.238h.838c0 1.155-.279 1.674-1.276 1.674-.956-.001-1.234-.56-1.234-1.956" clip-rule="evenodd"/>
  <path fill="none" d="M41.436 83.602v-.318c0-.957.838-.957.838 0v.318zm-.836 1.115v-.956c0-1.476.398-1.994 1.235-1.994.877 0 1.276.519 1.276 1.994v.638h-1.676v.838c0 .479.08.639.399.639.358 0 .438-.16.438-.639v-.238h.838c0 1.155-.279 1.674-1.276 1.674-.956-.001-1.234-.56-1.234-1.956"/>
  <path fill="#bfbfbf" fill-rule="evenodd" d="M43.789 86.553v-4.586h.838v.438c.159-.358.518-.639.837-.639s.759.2.839.639c.118-.358.478-.639.797-.639.598 0 .957.438.957 1.157v3.629h-.838v-3.27c0-.799-.838-.799-.838 0v3.27h-.837v-3.27c0-.799-.917-.799-.917 0v3.27z" clip-rule="evenodd"/>
  <path fill="none" d="M43.789 86.553v-4.586h.838v.438c.159-.358.518-.639.837-.639s.759.2.839.639c.118-.358.478-.639.797-.639.598 0 .957.438.957 1.157v3.629h-.838v-3.27c0-.799-.838-.799-.838 0v3.27h-.837v-3.27c0-.799-.917-.799-.917 0v3.27z"/>
  <path fill="#bfbfbf" fill-rule="evenodd" d="M49.572 83.602v-.318c0-.957.837-.957.837 0v.318zm-.838 1.115v-.956c0-1.476.398-1.994 1.236-1.994.877 0 1.276.519 1.276 1.994v.638h-1.675v.838c0 .479.08.639.398.639.359 0 .438-.16.438-.639v-.238h.838c0 1.155-.279 1.674-1.276 1.674-.955-.001-1.235-.56-1.235-1.956" clip-rule="evenodd"/>
  <path fill="none" d="M49.572 83.602v-.318c0-.957.837-.957.837 0v.318zm-.838 1.115v-.956c0-1.476.398-1.994 1.236-1.994.877 0 1.276.519 1.276 1.994v.638h-1.675v.838c0 .479.08.639.398.639.359 0 .438-.16.438-.639v-.238h.838c0 1.155-.279 1.674-1.276 1.674-.955-.001-1.235-.56-1.235-1.956"/>
  <path fill="#bfbfbf" fill-rule="evenodd" d="M51.925 86.553v-4.586h.837v.438c.16-.358.52-.639.838-.639.559 0 .918.438.918 1.157v3.629h-.838v-3.27c0-.799-.918-.799-.918 0v3.27z" clip-rule="evenodd"/>
  <path fill="none" d="M51.925 86.553v-4.586h.837v.438c.16-.358.52-.639.838-.639.559 0 .918.438.918 1.157v3.629h-.838v-3.27c0-.799-.918-.799-.918 0v3.27z"/>
  <path fill="#bfbfbf" fill-rule="evenodd" d="M55.555 80.371v1.596h-.359v.797h.359v2.712c0 1.196.318 1.077 1.195 1.077v-.799c-.159 0-.359.041-.359-.278v-2.712h.359v-.797h-.359v-1.596z" clip-rule="evenodd"/>
  <path fill="none" d="M55.555 80.371v1.596h-.359v.797h.359v2.712c0 1.196.318 1.077 1.195 1.077v-.799c-.159 0-.359.041-.359-.278v-2.712h.359v-.797h-.359v-1.596z"/>
  <path fill="#bfbfbf" fill-rule="evenodd" d="M22.254 92.135v.957c0 .996-.12 1.156-.399 1.156-.319 0-.399-.16-.399-1.156v-.957c0-.996.08-1.156.399-1.156.279 0 .399.16.399 1.156m.837-3.35v6.142h-.837v-.2c-.16.16-.399.32-.638.32-.997 0-1.077-.918-1.077-1.955v-.957c0-1.036.08-1.953 1.077-1.953.239 0 .478.158.638.318v-1.715z" clip-rule="evenodd"/>
  <path fill="none" d="M22.254 92.135v.957c0 .996-.12 1.156-.399 1.156-.319 0-.399-.16-.399-1.156v-.957c0-.996.08-1.156.399-1.156.279 0 .399.16.399 1.156m.837-3.35v6.142h-.837v-.2c-.16.16-.399.32-.638.32-.997 0-1.077-.918-1.077-1.955v-.957c0-1.036.08-1.953 1.077-1.953.239 0 .478.158.638.318v-1.715z"/>
  <path fill="#bfbfbf" fill-rule="evenodd" d="M24.607 92.016v-.319c0-.957.837-.957.837 0v.319zm-.838 1.076v-.957c0-1.475.399-1.953 1.237-1.953.877 0 1.276.479 1.276 1.953v.639h-1.675v.837c0 .478.079.638.399.638.358 0 .438-.16.438-.638v-.198h.838c0 1.115-.279 1.635-1.276 1.635-.958-.001-1.237-.521-1.237-1.956" clip-rule="evenodd"/>
  <path fill="none" d="M24.607 92.016v-.319c0-.957.837-.957.837 0v.319zm-.838 1.076v-.957c0-1.475.399-1.953 1.237-1.953.877 0 1.276.479 1.276 1.953v.639h-1.675v.837c0 .478.079.638.399.638.358 0 .438-.16.438-.638v-.198h.838c0 1.115-.279 1.635-1.276 1.635-.958-.001-1.237-.521-1.237-1.956"/>
  <path fill="#bfbfbf" fill-rule="evenodd" d="M36.292 92.533v.957c0 .399-.12.758-.438.758-.279 0-.399-.278-.399-.598-.001-.757.438-.717.837-1.117m.04 1.954c-.24.399-.479.56-.878.56-.599 0-.837-.719-.837-1.356 0-1.755 1.675-1.315 1.675-2.233 0-.358-.12-.479-.438-.479-.279 0-.399.16-.399.718h-.797c0-.917.358-1.476 1.235-1.476.758 0 1.236.279 1.236 1.316v2.791l.08.599h-.798z" clip-rule="evenodd"/>
  <path fill="none" d="M36.292 92.533v.957c0 .399-.12.758-.438.758-.279 0-.399-.278-.399-.598-.001-.757.438-.717.837-1.117m.04 1.954c-.24.399-.479.56-.878.56-.599 0-.837-.719-.837-1.356 0-1.755 1.675-1.315 1.675-2.233 0-.358-.12-.479-.438-.479-.279 0-.399.16-.399.718h-.797c0-.917.358-1.476 1.235-1.476.758 0 1.236.279 1.236 1.316v2.791l.08.599h-.798z"/>
  <path fill="#bfbfbf" fill-rule="evenodd" d="m36.092 89.504-.957-1.157h.678l.678 1.157z" clip-rule="evenodd"/>
  <path fill="none" d="m36.092 89.504-.957-1.157h.678l.678 1.157z"/>
  <path fill="#bfbfbf" fill-rule="evenodd" d="M45.544 88.785v6.142h.877v-3.111c0-.996.759-.996.759 0v3.111h.877v-3.669c0-.639-.32-1.076-.877-1.076-.279 0-.559.158-.759.518v-1.914h-.877z" clip-rule="evenodd"/>
  <path fill="none" d="M45.544 88.785v6.142h.877v-3.111c0-.996.759-.996.759 0v3.111h.877v-3.669c0-.639-.32-1.076-.877-1.076-.279 0-.559.158-.759.518v-1.914h-.877z"/>
  <path fill="none" stroke="#1a1a1a" stroke-miterlimit="3.863" stroke-width=".199" d="M51.087 66.853H17.109v-45.26h33.978z"/>
  <path fill="#bfbfbf" d="m36.73 42.887-4.945-8.055c-.718-.917-2.233-1.994-3.469-1.794v-1.436c.877-.438 1.475-1.276 1.475-2.392 0-1.356-1.116-2.592-2.512-2.592-1.356 0-2.473 1.236-2.473 2.592 0 1.196.758 2.113 1.755 2.472v1.196c-1.396 0-4.786.957-4.786 4.546v7.537c0 .598.479 1.117 1.077 1.117s1.077-.519 1.077-1.117v-6.938c0-.28.199-.479.438-.479.28 0 .439.199.439.479v20.058c0 .638.519 1.156 1.117 1.156S27 58.719 27 58.081V47.233c0-.439.279-.718.717-.718.399 0 .638.279.638.718v13.359c0 .598.519 1.196 1.117 1.196.638 0 1.117-.598 1.117-1.196V37.265l4.106 6.739c.359.598.799.518 1.238.399.398 1.356.598 2.233 1.515 2.233l2.832.159-2.034 6.899h1.635v5.025c0 .319.319.638.678.638s.678-.319.678-.638v-5.105h.918v4.108c0 .359.318.717.758.717.398 0 .678-.358.678-.717v-4.028h1.555l-1.436-5.702 1.915 2.153c.159.16.399.16.558 0 .199-.159.279-.359.08-.718l-2.473-2.951c-.518-.558-.837-.957-1.475-1.036-.2-.2-.16-.399-.08-.599.598-.319.996-.957.996-1.674 0-1.077-.838-1.835-1.795-1.835-.996 0-1.754.758-1.754 1.835a1.81 1.81 0 0 0 1.236 1.714c.04.28.08.598-.2.798h-2.392c-.439 0-.6-.08-.878-.399-.239-.439-.558-1.077-.558-1.396 0-.279-.08-.239-.201-.319.161-.2.202-.319.041-.678"/>
  <path fill="none" stroke="#bfbfbf" stroke-miterlimit="3.863" stroke-width=".199" d="m36.73 42.887-4.945-8.055c-.718-.917-2.233-1.994-3.469-1.794v-1.436c.877-.438 1.475-1.276 1.475-2.392 0-1.356-1.116-2.592-2.512-2.592-1.356 0-2.473 1.236-2.473 2.592 0 1.196.758 2.113 1.755 2.472v1.196c-1.396 0-4.786.957-4.786 4.546v7.537c0 .598.479 1.117 1.077 1.117s1.077-.519 1.077-1.117v-6.938c0-.28.199-.479.438-.479.28 0 .439.199.439.479v20.058c0 .638.519 1.156 1.117 1.156S27 58.719 27 58.081V47.233c0-.439.279-.718.717-.718.399 0 .638.279.638.718v13.359c0 .598.519 1.196 1.117 1.196.638 0 1.117-.598 1.117-1.196V37.265l4.106 6.739c.359.598.799.518 1.238.399.398 1.356.598 2.233 1.515 2.233l2.832.159-2.034 6.899h1.635v5.025c0 .319.319.638.678.638s.678-.319.678-.638v-5.105h.918v4.108c0 .359.318.717.758.717.398 0 .678-.358.678-.717v-4.028h1.555l-1.436-5.702 1.915 2.153c.159.16.399.16.558 0 .199-.159.279-.359.08-.718l-2.473-2.951c-.518-.558-.837-.957-1.475-1.036-.2-.2-.16-.399-.08-.599.598-.319.996-.957.996-1.674 0-1.077-.838-1.835-1.795-1.835-.996 0-1.754.758-1.754 1.835a1.81 1.81 0 0 0 1.236 1.714c.04.28.08.598-.2.798h-2.392c-.439 0-.6-.08-.878-.399-.239-.439-.558-1.077-.558-1.396 0-.279-.08-.239-.201-.319.161-.2.202-.319.041-.678z"/>
  <path d="M5.105 124.355 68.116 5.284c0-2.832-2.273-5.065-5.104-5.065L0 119.172c0 2.791 2.314 5.183 5.105 5.183"/>
  <path fill="none" d="M5.105 124.355 68.116 5.284c0-2.832-2.273-5.065-5.104-5.065L0 119.172c0 2.791 2.314 5.183 5.105 5.183"/>
</svg>
