<svg xmlns="http://www.w3.org/2000/svg" xml:space="preserve" viewBox="0 0 119.574 142.354" role="img" aria-labelledby="title">
  <title id="title">Verkehrszeichen F79 - Temporary road works sign indicating lane decrease</title>
  <path fill="#f89646" fill-rule="evenodd" d="M5.109 142.294c-4.007 0-5.049-3.127-5.049-5.895V6.073C.06 1.303 2.304.06 4.708.06h110.238c3.686 0 4.568 2.727 4.568 5.572v131.209c0 3.167-1.043 5.453-5.371 5.453z" clip-rule="evenodd"/>
  <path fill="none" stroke="#120c0e" stroke-miterlimit="3.863" stroke-width=".12" d="M5.109 142.294c-4.007 0-5.049-3.127-5.049-5.895V6.073C.06 1.303 2.304.06 4.708.06h110.238c3.686 0 4.568 2.727 4.568 5.572v131.209c0 3.167-1.043 5.453-5.371 5.453z"/>
  <path fill="none" stroke="#120c0e" stroke-miterlimit="3.863" stroke-width="1.002" d="M4.308 140.89c-1.363 0-2.806-1.202-2.806-3.327V4.952c0-1.925 1.283-3.368 2.886-3.368h110.799c1.603 0 2.805 1.443 2.805 3.368v132.531c0 1.885-1.202 3.407-2.805 3.407z"/>
  <path fill="#120c0e" d="M94.429 87.413 63.493 56.385v55.723h-5.649v-90.24h-5.37l8.455-14.191 8.496 14.191h-5.932v26.619l36.626 36.6v27.421l-5.69.04V87.252z"/>
  <path fill="none" stroke="#120c0e" stroke-miterlimit="3.863" stroke-width=".12" d="M94.429 87.413 63.493 56.385v55.723h-5.649v-90.24h-5.37l8.455-14.191 8.496 14.191h-5.932v26.619l36.626 36.6v27.421l-5.69.04V87.252z"/>
  <path fill="#120c0e" d="M24.744 21.868v90.2h-5.69v-90.2h-5.45L22.1 7.637l8.575 14.231z"/>
  <path fill="none" stroke="#120c0e" stroke-miterlimit="3.863" stroke-width=".12" d="M24.744 21.868v90.2h-5.69v-90.2h-5.45L22.1 7.637l8.575 14.231z"/>
  <path fill="#120c0e" d="M20.016 119.244h2.965v17.037h-2.965v-12.468h-1.603v-1.724z"/>
  <path fill="none" d="M20.016 119.244h2.965v17.037h-2.965v-12.468h-1.603v-1.724z"/>
  <path fill="#120c0e" d="M32.438 132.032c0 1.002 1.363 2.204 2.485 2.165 1.603-.041 2.885-1.243 2.885-2.808v-.801c0-1.564-1.282-2.807-2.885-2.807a2.75 2.75 0 0 0-2.405 1.403h-2.885v-9.821h9.778v2.766h-6.893v3.287a6 6 0 0 1 2.565-.562c3.366 0 6.091 2.727 6.091 6.054a6.09 6.09 0 0 1-6.091 6.094c-2.965 0-5.53-2.125-6.011-4.971z"/>
  <path fill="none" d="M32.438 132.032c0 1.002 1.363 2.204 2.485 2.165 1.603-.041 2.885-1.243 2.885-2.808v-.801c0-1.564-1.282-2.807-2.885-2.807a2.75 2.75 0 0 0-2.405 1.403h-2.885v-9.821h9.778v2.766h-6.893v3.287a6 6 0 0 1 2.565-.562c3.366 0 6.091 2.727 6.091 6.054a6.09 6.09 0 0 1-6.091 6.094c-2.965 0-5.53-2.125-6.011-4.971z"/>
  <path fill="#120c0e" d="M58.245 125.015v5.975c0 3.286-2.725 6.013-6.011 6.013-3.366 0-6.011-2.727-6.011-6.013v-5.813a5.98 5.98 0 0 1 6.011-6.014c3.286 0 6.011 2.686 6.011 6.014z"/>
  <path fill="none" d="M58.245 125.015v5.975c0 3.286-2.725 6.013-6.011 6.013-3.366 0-6.011-2.727-6.011-6.013v-5.813a5.98 5.98 0 0 1 6.011-6.014c3.286 0 6.011 2.686 6.011 6.014z"/>
  <path fill="#f89646" d="M54.958 124.736v6.613c0 1.484-1.202 2.727-2.725 2.727s-2.725-1.242-2.725-2.727v-6.534c0-1.523 1.202-2.726 2.725-2.726s2.725 1.202 2.725 2.726z"/>
  <path fill="none" d="M54.958 124.736v6.613c0 1.484-1.202 2.727-2.725 2.727s-2.725-1.242-2.725-2.727v-6.534c0-1.523 1.202-2.726 2.725-2.726s2.725 1.202 2.725 2.726z"/>
  <path fill="#120c0e" d="M75.595 125.176v5.973c0 3.287-2.645 6.014-6.01 6.014-3.287 0-6.012-2.727-6.012-6.014v-5.813c0-3.327 2.725-6.013 6.012-6.013a5.98 5.98 0 0 1 6.01 6.013z"/>
  <path fill="none" d="M75.595 125.176v5.973c0 3.287-2.645 6.014-6.01 6.014-3.287 0-6.012-2.727-6.012-6.014v-5.813c0-3.327 2.725-6.013 6.012-6.013a5.98 5.98 0 0 1 6.01 6.013z"/>
  <path fill="#f89646" d="M72.31 124.895v6.615a2.73 2.73 0 0 1-2.725 2.726 2.73 2.73 0 0 1-2.726-2.726v-6.535a2.704 2.704 0 0 1 2.726-2.726 2.704 2.704 0 0 1 2.725 2.726z"/>
  <path fill="none" d="M72.31 124.895v6.615a2.73 2.73 0 0 1-2.725 2.726 2.73 2.73 0 0 1-2.726-2.726v-6.535a2.704 2.704 0 0 1 2.726-2.726 2.704 2.704 0 0 1 2.725 2.726z"/>
  <path fill="#120c0e" d="M88.177 125.176c.643-.762 1.685-1.283 2.887-1.283 1.521 0 2.885.922 3.525 2.205.642-1.283 2.004-2.205 3.526-2.205 2.164 0 3.927 1.765 3.927 3.97v8.658h-2.724v-8.058c0-1.163-.962-2.125-2.084-2.125-1.202 0-2.164.962-2.164 2.125v8.058h-2.806v-8.178c0-1.163-.961-2.125-2.084-2.125-1.201 0-2.164.962-2.164 2.125v8.098h-2.885v-12.026h2.965v.762h.081z"/>
  <path fill="none" d="M88.177 125.176c.643-.762 1.685-1.283 2.887-1.283 1.521 0 2.885.922 3.525 2.205.642-1.283 2.004-2.205 3.526-2.205 2.164 0 3.927 1.765 3.927 3.97v8.658h-2.724v-8.058c0-1.163-.962-2.125-2.084-2.125-1.202 0-2.164.962-2.164 2.125v8.058h-2.806v-8.178c0-1.163-.961-2.125-2.084-2.125-1.201 0-2.164.962-2.164 2.125v8.098h-2.885v-12.026h2.965v.762h.081z"/>
  <path fill="none" stroke="#120c0e" stroke-miterlimit="3.863" stroke-width="1.202" d="M1.823 114.954h116.168"/>
  <path d="M115.907 3.508v69.714h-7.213L79.763 44.278V3.508z"/>
  <path fill="none" stroke="#000" stroke-miterlimit="3.863" stroke-width=".12" d="M115.907 3.508v69.714h-7.213L79.763 44.278V3.508z"/>
  <path fill="#f89646" d="M81.365 37.824v5.732l28.051 28.022h4.808v-.802z"/>
  <path fill="none" stroke="#120c0e" stroke-miterlimit="3.863" stroke-width=".12" d="M81.365 37.824v5.732l28.051 28.022h4.808v-.802z"/>
  <path fill="#f89646" d="M114.144 11.206V5.231h-5.85l5.93 6.015z"/>
  <path fill="none" stroke="#120c0e" stroke-miterlimit="3.863" stroke-width=".12" d="M114.144 11.206V5.231h-5.85l5.93 6.015z"/>
  <path fill="#f89646" d="M114.144 27.561v-5.693L97.554 5.191h-5.77z"/>
  <path fill="none" stroke="#120c0e" stroke-miterlimit="3.863" stroke-width=".12" d="M114.144 27.561v-5.693L97.554 5.191h-5.77z"/>
  <path fill="#f89646" d="M114.144 62.318 81.445 29.565v5.973l32.699 32.833z"/>
  <path fill="none" stroke="#120c0e" stroke-miterlimit="3.863" stroke-width=".12" d="M114.144 62.318 81.445 29.565v5.973l32.699 32.833z"/>
  <path fill="#f89646" d="m114.224 13.69-8.174-8.459h-6.09l14.184 14.192V13.69z"/>
  <path fill="none" stroke="#120c0e" stroke-miterlimit="3.863" stroke-width=".12" d="m114.224 13.69-8.174-8.459h-6.09l14.184 14.192V13.69z"/>
  <path fill="#f89646" d="M114.144 29.926 89.46 5.191h-5.689l30.453 30.428v-5.613z"/>
  <path fill="none" stroke="#120c0e" stroke-miterlimit="3.863" stroke-width=".12" d="M114.144 29.926 89.46 5.191h-5.689l30.453 30.428v-5.613z"/>
  <path fill="#f89646" d="M114.144 43.837v-5.773L81.445 5.272v5.812l32.779 32.753z"/>
  <path fill="none" stroke="#120c0e" stroke-miterlimit="3.863" stroke-width=".12" d="M114.144 43.837v-5.773L81.445 5.272v5.812l32.779 32.753z"/>
  <path fill="#f89646" d="M81.365 13.49v5.572l32.779 32.833v-5.653L81.365 13.369z"/>
  <path fill="none" stroke="#120c0e" stroke-miterlimit="3.863" stroke-width=".12" d="M81.365 13.49v5.572l32.779 32.833v-5.653L81.365 13.369z"/>
  <path fill="#f89646" d="M81.445 21.507v5.733l32.699 32.672v-5.493z"/>
  <path fill="none" stroke="#120c0e" stroke-miterlimit="3.863" stroke-width=".12" d="M81.445 21.507v5.733l32.699 32.672v-5.493z"/>
  <path fill="none" stroke="#000" stroke-miterlimit="3.863" stroke-width=".802" d="M5.349 114.914a3.764 3.764 0 0 1-3.766-3.769m-.081 7.657c0-2.125 1.683-3.809 3.767-3.809"/>
  <path fill="#120c0e" fill-rule="evenodd" d="M2.745 114.753H1.583v-1.202h1.162z" clip-rule="evenodd"/>
  <path fill="none" d="M2.745 114.753H1.583v-1.202h1.162z"/>
  <path fill="none" stroke="#120c0e" stroke-miterlimit="3.863" stroke-width=".802" d="M114.224 115.034a3.764 3.764 0 0 1 3.768 3.769"/>
  <path fill="none" stroke="#000" stroke-miterlimit="3.863" stroke-width=".802" d="M117.991 111.105a3.765 3.765 0 0 1-3.768 3.769"/>
  <path fill="#120c0e" fill-rule="evenodd" d="M117.871 114.874h-1.162v-1.203h1.162z" clip-rule="evenodd"/>
  <path fill="none" d="M117.871 114.874h-1.162v-1.203h1.162z"/>
  <path fill="#f89646" fill-rule="evenodd" d="M117.671 115.835h-.641v-.642h.641z" clip-rule="evenodd"/>
  <path fill="none" stroke="#000" stroke-miterlimit="3.863" stroke-width="1.002" d="M117.671 115.835h-.641v-.642h.641z"/>
  <path fill="#120c0e" fill-rule="evenodd" d="M2.825 116.356H1.823v-.842h1.001v.842z" clip-rule="evenodd"/>
  <path fill="none" stroke="#120c0e" stroke-miterlimit="3.863" stroke-width=".2" d="M2.825 116.356H1.823v-.842h1.001v.842z"/>
</svg>
