<svg xmlns="http://www.w3.org/2000/svg" xml:space="preserve" viewBox="0 0 136.659 91.559" role="img" aria-labelledby="title">
  <title id="title">Verkehrszeichen F50bis - Vehicles that turn right cross a bicycle and moped crossing</title>
  <path fill="#0071b3" d="M11.275 0h114.909c5.758 0 10.475 4.73 10.475 10.503v70.552c0 5.773-4.717 10.504-10.475 10.504H10.476C4.718 91.559 0 86.828 0 81.055V9.942C0 4.169 5.518 0 11.275 0"/>
  <path fill="none" d="M11.275 0h114.909c5.758 0 10.475 4.73 10.475 10.503v70.552c0 5.773-4.717 10.504-10.475 10.504H10.476C4.718 91.559 0 86.828 0 81.055V9.942C0 4.169 5.518 0 11.275 0"/>
  <path fill="#fff" d="M12.234 3.688h112.191c5.518 0 8.556 3.047 8.556 8.338v67.828c0 5.29-3.438 7.936-8.955 7.936H12.315c-5.518 0-8.557-3.206-8.557-8.498V11.064c0-5.211 3.039-7.376 8.476-7.376"/>
  <path fill="none" d="M12.234 3.688h112.191c5.518 0 8.556 3.047 8.556 8.338v67.828c0 5.29-3.438 7.936-8.955 7.936H12.315c-5.518 0-8.557-3.206-8.557-8.498V11.064c0-5.211 3.039-7.376 8.476-7.376"/>
  <path fill="#0071b3" d="M13.354 7.135h109.871c5.197 0 6.317 1.685 6.317 6.575v64.618c0 4.891-2.399 6.095-7.597 6.095H14.714c-5.198 0-7.597-1.604-7.597-6.415V12.187c0-4.811 1.119-5.052 6.237-5.052"/>
  <path fill="none" d="M13.354 7.135h109.871c5.197 0 6.317 1.685 6.317 6.575v64.618c0 4.891-2.399 6.095-7.597 6.095H14.714c-5.198 0-7.597-1.604-7.597-6.415V12.187c0-4.812 1.119-5.052 6.237-5.052"/>
  <path fill="#fff" d="M66.451 37.641v-8.538H54.736c-19.432 0-35.184 15.754-35.144 35.236l.04 13.067h-5.717V64.339c0-22.608 18.232-40.888 40.782-40.888h11.755v-8.538l11.315 11.385z"/>
  <path fill="none" d="M66.451 37.641v-8.538H54.736c-19.432 0-35.184 15.754-35.144 35.236l.04 13.067h-5.717V64.339c0-22.608 18.232-40.888 40.782-40.888h11.755v-8.538l11.315 11.385z"/>
  <path fill="#ed1c24" d="M93.838 19.162c-.6-.962-1.639-1.524-2.799-1.524-1.199 0-1.719.562-2.318 1.443L59.494 68.428c-1 1.323-.76 3.447.439 4.69.72.681 1.52.962 2.4.962h57.894c.64 0 1.318-.441 1.879-.962.96-1.003 1.199-2.485.68-3.769z"/>
  <path fill="none" d="M93.838 19.162c-.6-.962-1.639-1.524-2.799-1.524-1.199 0-1.719.562-2.318 1.443L59.494 68.428c-1 1.322-.76 3.447.439 4.69.72.681 1.52.962 2.4.962h57.894c.64 0 1.318-.441 1.879-.962.96-1.003 1.199-2.485.68-3.769z"/>
  <path fill="#fff" fill-rule="evenodd" d="M113.27 66.824 91 28.021 68.69 66.824z" clip-rule="evenodd"/>
  <path fill="none" d="M113.27 66.824 91 28.021 68.69 66.824z"/>
  <path fill="#120c0e" fill-rule="evenodd" d="M97.756 63.658c-3.078 0-4.997-3.367-3.479-6.053a3.98 3.98 0 0 1 6.957 0c1.52 2.686-.398 6.053-3.478 6.053" clip-rule="evenodd"/>
  <path fill="none" d="M97.756 63.658c-3.078 0-4.997-3.367-3.479-6.053a3.98 3.98 0 0 1 6.957 0c1.52 2.686-.398 6.053-3.478 6.053"/>
  <path fill="#fff" fill-rule="evenodd" d="M97.797 63.217c-2.799 0-4.559-3.047-3.159-5.451 1.399-2.445 4.878-2.445 6.277 0 1.4 2.404-.36 5.451-3.118 5.451" clip-rule="evenodd"/>
  <path fill="none" d="M97.797 63.217c-2.799 0-4.559-3.047-3.159-5.451 1.399-2.445 4.878-2.445 6.277 0 1.4 2.404-.36 5.451-3.118 5.451"/>
  <path fill="#120c0e" fill-rule="evenodd" d="M97.797 60.41c-.681 0-1.08-.682-.761-1.242.321-.521 1.159-.521 1.48 0a.826.826 0 0 1-.719 1.242" clip-rule="evenodd"/>
  <path fill="none" d="M97.797 60.41c-.681 0-1.08-.682-.761-1.242.321-.521 1.159-.521 1.48 0a.826.826 0 0 1-.719 1.242"/>
  <path fill="#120c0e" fill-rule="evenodd" d="M84.243 63.578c-3.078 0-4.998-3.367-3.479-6.055 1.56-2.686 5.398-2.686 6.957 0 1.52 2.688-.4 6.055-3.478 6.055" clip-rule="evenodd"/>
  <path fill="none" d="M84.243 63.578c-3.078 0-4.998-3.367-3.479-6.055 1.56-2.686 5.398-2.686 6.957 0 1.52 2.688-.4 6.055-3.478 6.055"/>
  <path fill="#fff" fill-rule="evenodd" d="M84.282 63.176c-2.798 0-4.558-3.045-3.157-5.451 1.399-2.445 4.878-2.445 6.276 0 1.399 2.406-.359 5.451-3.119 5.451" clip-rule="evenodd"/>
  <path fill="none" d="M84.282 63.176c-2.798 0-4.558-3.045-3.157-5.451 1.399-2.445 4.878-2.445 6.276 0 1.4 2.406-.359 5.451-3.119 5.451"/>
  <path fill="#120c0e" fill-rule="evenodd" d="M84.243 60.17c-.479 0-.799-.521-.56-.922a.64.64 0 0 1 1.12 0c.239.4-.08.922-.56.922" clip-rule="evenodd"/>
  <path fill="none" d="M84.243 60.17c-.479 0-.799-.521-.56-.922a.64.64 0 0 1 1.12 0c.239.4-.08.922-.56.922"/>
  <path fill="none" stroke="#120c0e" stroke-miterlimit="3.863" stroke-width=".2" d="M93.479 60.211v-.522c0-2.364 1.879-4.329 4.238-4.329 1.84 0 3.358 1.163 4.037 2.686M82.723 55.52c.439-.16.92-.281 1.52-.281 2.398 0 4.278 2.006 4.278 4.37 0 .08 0 .24-.04.321"/>
  <path fill="#120c0e" d="M92 44.897c.2.24.399.44.681.641.758.562 1.238 1.323 1.678 1.965.48.641 1.6 3.447 1.721 4.489-.082 0-.121.281-.161.32.12 0 .2.041.24.16 0 0-.079.041-.04.08-.039.041-.08.041-.121.08-.119 0-.318-.039-.398.041l-.32.682 2.319 5.532-.239.12-2.24-5.412-2.679 5.011c.161.16.521.481.44.882h4.157v.12h-4.157c.119.481-.44.962-.801 1.122v.281c.041.161.2.281.16.481h-.48l-.041.08h-.359l-.041-.16-.119.16-1.08-.08c0-.08 0-.2.121-.24.319 0 .6-.04.959-.282-.04-.039.039-.08.039-.119v-.16l-.679-.041-.159-2.484-3.52-3.648-.6 1.965c-.279.842-.639 1.844-.92 2.084-.479.722-.879.682-.719.842-.08-.08-.16-.08-.16-.16 0-.12.12-.08.359-.481.16-.24.84-1.081.96-1.724.12-.32.16-.521.2-.802l1.398-4.368c.28-.162.48.119.92.039-.039-.039.041 0 0 0 0-.08-.039-.201-.039-.24.359 0 .359-.722 1.359-.361.079-.04.159-.28.239-.28.079-.2.36-.16.44-.44.52-.321.998-.922 1.08-1.283-.121-.48-.162-.842-.321-1.363-.399-.841-.239-1.242-.239-1.803.239-.121.439-.402.398-.563 0-.08-.079-.08-.079-.08-.08 0-.16.04-.319.04-.08.16 0 .281-.24.281-.119 0-.119-.201-.119-.281 0 0-.041-.04-.08-.04a.085.085 0 0 1-.08-.08s-.04-.04-.08-.04c-.041 0-.081-.04-.081-.08 0-.08.081 0 0 0-.079-.04.081 0 0 0-.359.04-.239-.48-.319-.562-.04-.12-.24-.4-.32-.44-.079.04-.159-.04-.239-.04-.04-.161-.04-.441.2-.481-.04-.04 0-.08 0-.12.039 0 .08-.04.119-.04.48-1.002 1.399-1.163 2.119-.161.28 1.444.28 1.002.439 1.364-.039 0-.08.04-.08.04-.077-.043-.158-.003-.077.037"/>
  <path fill="none" d="M92 44.897c.2.24.399.44.681.641.758.562 1.238 1.323 1.678 1.965.48.641 1.6 3.447 1.721 4.489-.082 0-.121.281-.161.32.12 0 .2.041.24.16 0 0-.079.041-.04.08-.039.041-.08.041-.121.08-.119 0-.318-.039-.398.041l-.32.682 2.319 5.532-.239.12-2.24-5.412-2.679 5.011c.161.16.521.481.44.882h4.157v.12h-4.157c.119.481-.44.962-.801 1.122v.281c.041.161.2.281.16.481h-.48l-.041.08h-.359l-.041-.16-.119.16-1.08-.08c0-.08 0-.2.121-.24.319 0 .6-.04.959-.282-.04-.039.039-.08.039-.119v-.16l-.679-.041-.159-2.484-3.52-3.648-.6 1.965c-.279.842-.639 1.844-.92 2.084-.479.722-.879.682-.719.842-.08-.08-.16-.08-.16-.16 0-.12.12-.08.359-.481.16-.24.84-1.081.96-1.724.12-.32.16-.521.2-.802l1.398-4.368c.28-.162.48.119.92.039-.039-.039.041 0 0 0 0-.08-.039-.201-.039-.24.359 0 .359-.722 1.359-.361.079-.04.159-.28.239-.28.079-.2.36-.16.44-.44.52-.321.998-.922 1.08-1.283-.121-.48-.162-.842-.321-1.363-.399-.841-.239-1.242-.239-1.803.239-.121.439-.402.398-.563 0-.08-.079-.08-.079-.08-.08 0-.16.04-.319.04-.08.16 0 .281-.24.281-.119 0-.119-.201-.119-.281 0 0-.041-.04-.08-.04a.085.085 0 0 1-.08-.08s-.04-.04-.08-.04c-.041 0-.081-.04-.081-.08 0-.08.081 0 0 0-.079-.04.081 0 0 0-.359.04-.239-.48-.319-.562-.04-.12-.24-.4-.32-.44-.079.04-.159-.041-.239-.041-.04-.16-.04-.44.2-.48-.04-.04 0-.08 0-.12.039 0 .08-.04.119-.04.48-1.002 1.399-1.163 2.119-.161.28 1.444.28 1.002.439 1.364-.039 0-.08.04-.08.04-.077-.043-.158-.003-.077.037"/>
  <path fill="#fff" d="m92.2 58.446 2.719-4.931h-.4l-2 2.085c-.279.28-.398.721-.398 1.162z"/>
  <path fill="none" d="m92.2 58.445 2.719-4.93h-.4l-2 2.085c-.279.28-.398.721-.398 1.162z"/>
  <path fill="#fff" d="m86.961 54.238.28-.803h.96c-.2.16-.24.44-.16.722.12.04.12.241.24.241l2.119 2.766v.682z"/>
  <path fill="none" d="m86.961 54.237.28-.802h.96c-.2.16-.24.44-.16.722.12.04.12.241.24.241l2.119 2.766v.682z"/>
  <path fill="#fff" d="m90.281 54.479.319.4.719-.963z"/>
  <path fill="none" d="m90.281 54.479.319.4.719-.963z"/>
  <path fill="#fff" d="M94.758 53.275h.241l.319-.601z"/>
  <path fill="none" d="M94.758 53.275h.241l.319-.601z"/>
  <path fill="#fff" d="M87.282 53.235h1.119l3.639-1.685.199-.36.12-.08.04-.16.201-.24.039-.201-.121-.24.041-.4-.16.32-.68.722-.64.521-.52.4-.68.281c-.16-.402-.04-.121-.399-.121 0 .602-.32-.16-.32.08 0 .16.12 0 0 0-.16.041.08.24-.24.16.16.361-.639-.16-1.319-.16z"/>
  <path fill="none" d="M87.282 53.235h1.119l3.639-1.685.199-.36.12-.08.04-.16.201-.24.039-.201-.121-.24.041-.4-.16.32-.68.722-.64.521-.52.4-.68.281c-.16-.402-.04-.121-.399-.121 0 .602-.32-.16-.32.08 0 .16.12 0 0 0-.16.041.08.24-.24.16.16.361-.639-.16-1.319-.16z"/>
  <path fill="#120c0e" d="m98.276 59.168 2.64-1.523.16.121-2.719 1.642z"/>
  <path fill="none" d="m98.276 59.168 2.64-1.523.16.121-2.719 1.642z"/>
</svg>
