<svg xmlns="http://www.w3.org/2000/svg" viewBox="0 0 70.736 104.752" role="img" aria-labelledby="title">
  <title id="title">Verkehrszeichen F62 - Emergency telephone</title>
  <path d="M219.965 609.217h70.95l1.05.15 1.95.6 1.8.9 1.65 1.35 1.35 1.5.9 1.8.6 1.95.3 2.1v114.45l-.3 2.1-.6 1.8-.9 1.8-1.35 1.5-1.65 1.35-1.8.9-1.95.6-2.1.3h-70.05l-2.1-.3-1.95-.6-1.8-.9-1.65-1.35-1.35-1.5-.9-1.8-.3-.9-.3-1.05-.15-1.05v-116.4l.15-1.05.6-1.95 1.05-1.8 1.35-1.5 1.5-1.35 1.8-.9 1.05-.3.9-.3 1.2-.15z" style="fill:#007ce3;fill-opacity:1;fill-rule:nonzero;stroke:none" transform="translate(-161.928 -471.44)scale(.77397)"/>
  <path d="M219.965 609.217h70.95l1.05.15 1.95.6 1.8.9 1.65 1.35 1.35 1.5.9 1.8.6 1.95.3 2.1v114.45l-.3 2.1-.6 1.8-.9 1.8-1.35 1.5-1.65 1.35-1.8.9-1.95.6-2.1.3h-70.05l-2.1-.3-1.95-.6-1.8-.9-1.65-1.35-1.35-1.5-.9-1.8-.3-.9-.3-1.05-.15-1.05v-116.4l.15-1.05.6-1.95 1.05-1.8 1.35-1.5 1.5-1.35 1.8-.9 1.05-.3.9-.3 1.2-.15z" style="fill:#0071b3;fill-opacity:1;stroke:#007ce3;stroke-width:.19380669;stroke-linecap:butt;stroke-linejoin:miter;stroke-miterlimit:10;stroke-opacity:1;stroke-dasharray:none" transform="translate(-161.928 -471.44)scale(.77397)"/>
  <path d="m296.765 733.717-.15 1.5-.45 1.2-.6 1.2-.9 1.05-.9.75-1.2.6-1.2.45-1.35.15h-70.2l-1.35-.15-1.35-.45-1.2-.6-.9-.75-.9-1.05-.6-1.2-.45-1.2v-116.85l.45-1.35.6-1.2.9-.9.9-.9 1.2-.6 1.35-.45 1.35-.15h70.2l1.35.15 1.2.45 1.2.6.9.9.9.9.6 1.2.45 1.35.15 1.35z" style="fill:#fff;fill-opacity:1;fill-rule:nonzero;stroke:none" transform="translate(-161.928 -471.44)scale(.77397)"/>
  <path d="m296.765 733.717-.15 1.5-.45 1.2-.6 1.2-.9 1.05-.9.75-1.2.6-1.2.45-1.35.15h-70.2l-1.35-.15-1.35-.45-1.2-.6-.9-.75-.9-1.05-.6-1.2-.45-1.2v-116.85l.45-1.35.6-1.2.9-.9.9-.9 1.2-.6 1.35-.45 1.35-.15h70.2l1.35.15 1.2.45 1.2.6.9.9.9.9.6 1.2.45 1.35.15 1.35z" style="fill:none;stroke:#fff;stroke-width:.19380669;stroke-linecap:butt;stroke-linejoin:miter;stroke-miterlimit:10;stroke-opacity:1;stroke-dasharray:none" transform="translate(-161.928 -471.44)scale(.77397)"/>
  <path d="m293.765 734.467-.15.6-.15.75-.75 1.05-1.2.75-.6.15h-72.15l-.75-.15-1.05-.75-.45-.6-.3-.45-.3-1.35v-115.35l.3-1.35.75-1.05 1.05-.75 1.35-.3h70.95l1.35.3 1.05.75.75 1.05.15.6.15.75z" style="fill:#0071b3;fill-opacity:1;fill-rule:nonzero;stroke:none" transform="translate(-161.928 -471.44)scale(.77397)"/>
  <path d="m293.765 734.467-.15.6-.15.75-.75 1.05-1.2.75-.6.15h-72.15l-.75-.15-1.05-.75-.45-.6-.3-.45-.3-1.35v-115.35l.3-1.35.75-1.05 1.05-.75 1.35-.3h70.95l1.35.3 1.05.75.75 1.05.15.6.15.75z" style="fill:none;stroke:#007ce3;stroke-width:.19380669;stroke-linecap:butt;stroke-linejoin:miter;stroke-miterlimit:10;stroke-opacity:1;stroke-dasharray:none" transform="translate(-161.928 -471.44)scale(.77397)"/>
  <path d="M232.265 713.767h45.3v-73.95h-45.3z" style="fill:#fff;fill-opacity:1;fill-rule:evenodd;stroke:none" transform="translate(-161.928 -471.44)scale(.77397)"/>
  <path d="M232.265 713.767h45.3v-73.95h-45.3z" style="fill:none;stroke:#fff;stroke-width:.19380669;stroke-linecap:butt;stroke-linejoin:miter;stroke-miterlimit:10;stroke-opacity:1;stroke-dasharray:none" transform="translate(-161.928 -471.44)scale(.77397)"/>
  <path d="m246.215 670.567-.15 3.75-.45 7.2-.45 3.3-.75 3.3-.3 1.5-.3 1.5-.15 2.85 1.95-2.25-.3-.45 2.7-2.1.45.3.45-.45.6-.3.45-.15.6.3 8.4 11.25.3.45.3.6-.15.3-.15.45-1.5 1.35-.9.75-1.05.75-2.25 1.05v.15l.15.3v.3l-.75.3-.9.15-1.5.45v-.3l-.3-.3-1.2.45-1.65.3-1.5-.15-.9-.3.3 1.05.6.6.9.6 1.05.3.9.15 3.15-.75 3-.9 2.4-.45 2.7-.3h1.2l1.35.3 1.35.45 1.35.6.6.45.15.45-.3.3-.45.15-.3-.15-1.05-.6-1.05-.3-1.2-.3-1.35-.15h-1.35l-1.2.15-1.35.15-1.05.3-1.95.75-2.7.75-1.5.3h-1.5l-1.2-.15-1.05-.6-.9-.9-.6-.9-.3-.9v-1.05l-.9-.45-.6-.6-.6-.6-.45-.9-.75-1.8-.45-2.25-.45-4.95-.3-2.55-.45-2.25-.45-2.4-.3-2.85-.3-6-.15-7.35.15-4.5.3-4.05.45-3.45.45-2.85.9-4.2.45-2.1.3-1.2.6-1.05.45-.75.6-.75 1.05-1.05 1.05-.6 1.8-1.05 1.05-.45.9-.15h2.25l2.25.3.15-.6 3.15.45.3 1.35.15 1.95-.15 2.1-.3 2.4-1.05 4.5-.45 1.95-.75 1.35-1.65-.3-.9-.15-.9-.45-.15-.15v-.6l-1.05.6-.9.15-.75.15h-.75l-1.35-.45-1.2-.9-.15.75v1.05l.3 1.8.9 3.3.6 2.7z" style="fill:#000;fill-opacity:1;fill-rule:nonzero;stroke:none" transform="translate(-161.928 -471.44)scale(.77397)"/>
  <path d="m246.215 670.567-.15 3.75-.45 7.2-.45 3.3-.75 3.3-.3 1.5-.3 1.5-.15 2.85 1.95-2.25-.3-.45 2.7-2.1.45.3.45-.45.6-.3.45-.15.6.3 8.4 11.25.3.45.3.6-.15.3-.15.45-1.5 1.35-.9.75-1.05.75-2.25 1.05v.15l.15.3v.3l-.75.3-.9.15-1.5.45v-.3l-.3-.3-1.2.45-1.65.3-1.5-.15-.9-.3.3 1.05.6.6.9.6 1.05.3.9.15 3.15-.75 3-.9 2.4-.45 2.7-.3h1.2l1.35.3 1.35.45 1.35.6.6.45.15.45-.3.3-.45.15-.3-.15-1.05-.6-1.05-.3-1.2-.3-1.35-.15h-1.35l-1.2.15-1.35.15-1.05.3-1.95.75-2.7.75-1.5.3h-1.5l-1.2-.15-1.05-.6-.9-.9-.6-.9-.3-.9v-1.05l-.9-.45-.6-.6-.6-.6-.45-.9-.75-1.8-.45-2.25-.45-4.95-.3-2.55-.45-2.25-.45-2.4-.3-2.85-.3-6-.15-7.35.15-4.5.3-4.05.45-3.45.45-2.85.9-4.2.45-2.1.3-1.2.6-1.05.45-.75.6-.75 1.05-1.05 1.05-.6 1.8-1.05 1.05-.45.9-.15h2.25l2.25.3.15-.6 3.15.45.3 1.35.15 1.95-.15 2.1-.3 2.4-1.05 4.5-.45 1.95-.75 1.35-1.65-.3-.9-.15-.9-.45-.15-.15v-.6l-1.05.6-.9.15-.75.15h-.75l-1.35-.45-1.2-.9-.15.75v1.05l.3 1.8.9 3.3.6 2.7z" style="fill:none;stroke:#000;stroke-width:.19380669;stroke-linecap:butt;stroke-linejoin:miter;stroke-miterlimit:10;stroke-opacity:1;stroke-dasharray:none" transform="translate(-161.928 -471.44)scale(.77397)"/>
  <path d="m239.165 669.067.45-6.15.3-.9v-.15l.15.45v15l.3 3.6.3 7.05v.6l-.15-.6-.6-3.9-.6-5.4-.15-2.25-.15-1.8z" style="fill:#fff;fill-opacity:1;fill-rule:nonzero;stroke:none" transform="translate(-161.928 -471.44)scale(.77397)"/>
  <path d="m239.165 669.067.45-6.15.3-.9v-.15l.15.45v15l.3 3.6.3 7.05v.6l-.15-.6-.6-3.9-.6-5.4-.15-2.25-.15-1.8z" style="fill:none;stroke:#fff;stroke-width:.19380669;stroke-linecap:butt;stroke-linejoin:miter;stroke-miterlimit:10;stroke-opacity:1;stroke-dasharray:none" transform="translate(-161.928 -471.44)scale(.77397)"/>
  <path d="m244.565 695.017.6 1.5.75-.75-.6-1.35z" style="fill:#fff;fill-opacity:1;fill-rule:nonzero;stroke:none" transform="translate(-161.928 -471.44)scale(.77397)"/>
  <path d="m244.565 695.017.6 1.5.75-.75-.6-1.35z" style="fill:none;stroke:#fff;stroke-width:.19380669;stroke-linecap:butt;stroke-linejoin:miter;stroke-miterlimit:10;stroke-opacity:1;stroke-dasharray:none" transform="translate(-161.928 -471.44)scale(.77397)"/>
  <path d="m246.815 693.067-.6.45.75 1.8.45-.6z" style="fill:#fff;fill-opacity:1;fill-rule:nonzero;stroke:none" transform="translate(-161.928 -471.44)scale(.77397)"/>
  <path d="m246.815 693.067-.6.45.75 1.8.45-.6z" style="fill:none;stroke:#fff;stroke-width:.19380669;stroke-linecap:butt;stroke-linejoin:miter;stroke-miterlimit:10;stroke-opacity:1;stroke-dasharray:none" transform="translate(-161.928 -471.44)scale(.77397)"/>
  <path d="m245.915 703.417 2.55.45-.45-1.05z" style="fill:#fff;fill-opacity:1;fill-rule:nonzero;stroke:none" transform="translate(-161.928 -471.44)scale(.77397)"/>
  <path d="m245.915 703.417 2.55.45-.45-1.05z" style="fill:none;stroke:#fff;stroke-width:.19380669;stroke-linecap:butt;stroke-linejoin:miter;stroke-miterlimit:10;stroke-opacity:1;stroke-dasharray:none" transform="translate(-161.928 -471.44)scale(.77397)"/>
  <path d="m249.215 702.667.45.75 2.1-2.1z" style="fill:#fff;fill-opacity:1;fill-rule:nonzero;stroke:none" transform="translate(-161.928 -471.44)scale(.77397)"/>
  <path d="m249.215 702.667.45.75 2.1-2.1z" style="fill:none;stroke:#fff;stroke-width:.19380669;stroke-linecap:butt;stroke-linejoin:miter;stroke-miterlimit:10;stroke-opacity:1;stroke-dasharray:none" transform="translate(-161.928 -471.44)scale(.77397)"/>
  <path d="M261.965 653.917h1.65l.15.75.15.6.3.6.45.45 1.2.75 1.35.15 1.35-.15 1.2-.45.45-.3.45-.45.3-.6v-1.35l-.3-.45-.45-.45-.6-.3-1.35-.45-1.5-.3-1.65-.45-1.35-.6-.6-.6-.45-.6-.3-.75v-1.8l.3-.75.45-.75.6-.6.6-.6.9-.3.75-.15.9-.15 1.05.15 1.05.15.9.3.9.45.6.6.45.9.3.9.15 1.05h-1.8v-.75l-.15-.6-.45-.45-.45-.45-1.05-.45-1.5-.15h-.6l-.45.15-.9.6-.6.75-.15.9v.6l.3.45.45.3.6.3 1.35.45 1.5.3 1.65.45.75.3.6.45.6.6.3.6.3.9.15 1.05-.15 1.05-.3.9-.6.75-.75.6-.9.45-.9.15-1.95.3h-1.05l-1.05-.3-.9-.45-.75-.45-.6-.75-.6-.9-.15-.9z" style="fill:#000;fill-opacity:1;fill-rule:evenodd;stroke:none" transform="translate(-161.928 -471.44)scale(.77397)"/>
  <path d="M261.965 653.917h1.65l.15.75.15.6.3.6.45.45 1.2.75 1.35.15 1.35-.15 1.2-.45.45-.3.45-.45.3-.6v-1.35l-.3-.45-.45-.45-.6-.3-1.35-.45-1.5-.3-1.65-.45-1.35-.6-.6-.6-.45-.6-.3-.75v-1.8l.3-.75.45-.75.6-.6.6-.6.9-.3.75-.15.9-.15 1.05.15 1.05.15.9.3.9.45.6.6.45.9.3.9.15 1.05h-1.8v-.75l-.15-.6-.45-.45-.45-.45-1.05-.45-1.5-.15h-.6l-.45.15-.9.6-.6.75-.15.9v.6l.3.45.45.3.6.3 1.35.45 1.5.3 1.65.45.75.3.6.45.6.6.3.6.3.9.15 1.05-.15 1.05-.3.9-.6.75-.75.6-.9.45-.9.15-1.95.3h-1.05l-1.05-.3-.9-.45-.75-.45-.6-.75-.6-.9-.15-.9z" style="fill:none;stroke:#000;stroke-width:.19380669;stroke-linecap:butt;stroke-linejoin:miter;stroke-miterlimit:10;stroke-opacity:1;stroke-dasharray:none" transform="translate(-161.928 -471.44)scale(.77397)"/>
  <path d="m267.365 678.817-1.5-.15-1.35-.45-1.05-.6-1.05-.9-.75-1.05-.45-1.35-.3-1.5-.15-1.5.15-1.65.3-1.35.45-1.35.75-1.05 1.05-.9 1.05-.6 1.35-.45 1.5-.15 1.5.15 1.35.45 1.05.6.9.9.75 1.05.6 1.35.3 1.35.15 1.65-.15 1.5-.3 1.5-.6 1.35-.75 1.05-.9.9-1.05.6-1.35.45zm0-1.65-1.2-.15-.9-.3-.75-.6-.75-.75-.45-.9-.3-.9-.3-1.2v-2.25l.3-1.05.3-1.05.45-.75.75-.75.75-.6.9-.3 1.2-.15 1.2.15.9.3.75.6.75.75.45.75.3 1.05.3 1.05v2.25l-.3 1.2-.3.9-.45.9-.75.75-.75.6-.9.3z" style="fill:#000;fill-opacity:1;fill-rule:evenodd;stroke:none" transform="translate(-161.928 -471.44)scale(.77397)"/>
  <path d="m267.365 678.817-1.5-.15-1.35-.45-1.05-.6-1.05-.9-.75-1.05-.45-1.35-.3-1.5-.15-1.5.15-1.65.3-1.35.45-1.35.75-1.05 1.05-.9 1.05-.6 1.35-.45 1.5-.15 1.5.15 1.35.45 1.05.6.9.9.75 1.05.6 1.35.3 1.35.15 1.65-.15 1.5-.3 1.5-.6 1.35-.75 1.05-.9.9-1.05.6-1.35.45z" style="fill:none;stroke:#000;stroke-width:.19380669;stroke-linecap:butt;stroke-linejoin:miter;stroke-miterlimit:10;stroke-opacity:1;stroke-dasharray:none" transform="translate(-161.928 -471.44)scale(.77397)"/>
  <path d="m267.365 677.167-1.2-.15-.9-.3-.75-.6-.75-.75-.45-.9-.3-.9-.3-1.2v-2.25l.3-1.05.3-1.05.45-.75.75-.75.75-.6.9-.3 1.2-.15 1.2.15.9.3.75.6.75.75.45.75.3 1.05.3 1.05v2.25l-.3 1.2-.3.9-.45.9-.75.75-.75.6-.9.3z" style="fill:none;stroke:#000;stroke-width:.19380669;stroke-linecap:butt;stroke-linejoin:miter;stroke-miterlimit:10;stroke-opacity:1;stroke-dasharray:none" transform="translate(-161.928 -471.44)scale(.77397)"/>
  <path d="M261.965 693.367h1.65l.15.75.15.75.3.6.45.45 1.2.6 1.35.3 1.35-.15 1.2-.45.45-.45.45-.3.3-.6v-1.35l-.3-.45-.45-.45-.6-.3-1.35-.45-1.5-.45-1.65-.3-1.35-.75-.6-.45-.45-.6-.3-.75v-1.8l.3-.9.45-.75.6-.6.6-.45.9-.3.75-.3h1.95l1.05.15.9.3.9.6.6.6.45.75.3.9.15 1.2h-1.8v-.75l-.15-.6-.45-.6-.45-.3-1.05-.45-1.5-.15h-.6l-.45.15-.9.6-.6.75-.15.75v.6l.3.45.45.45.6.3 1.35.45 1.5.3 1.65.45.75.3.6.45.6.45.3.75.3.9.15.9-.15 1.2-.3.9-.6.75-.75.45-.9.45-.9.3-1.95.3-1.05-.15-1.05-.15-.9-.45-.75-.6-.6-.6-.6-.9-.15-1.05z" style="fill:#000;fill-opacity:1;fill-rule:evenodd;stroke:none" transform="translate(-161.928 -471.44)scale(.77397)"/>
  <path d="M261.965 693.367h1.65l.15.75.15.75.3.6.45.45 1.2.6 1.35.3 1.35-.15 1.2-.45.45-.45.45-.3.3-.6v-1.35l-.3-.45-.45-.45-.6-.3-1.35-.45-1.5-.45-1.65-.3-1.35-.75-.6-.45-.45-.6-.3-.75v-1.8l.3-.9.45-.75.6-.6.6-.45.9-.3.75-.3h1.95l1.05.15.9.3.9.6.6.6.45.75.3.9.15 1.2h-1.8v-.75l-.15-.6-.45-.6-.45-.3-1.05-.45-1.5-.15h-.6l-.45.15-.9.6-.6.75-.15.75v.6l.3.45.45.45.6.3 1.35.45 1.5.3 1.65.45.75.3.6.45.6.45.3.75.3.9.15.9-.15 1.2-.3.9-.6.75-.75.45-.9.45-.9.3-1.95.3-1.05-.15-1.05-.15-.9-.45-.75-.6-.6-.6-.6-.9-.15-1.05z" style="fill:none;stroke:#000;stroke-width:.19380669;stroke-linecap:butt;stroke-linejoin:miter;stroke-miterlimit:10;stroke-opacity:1;stroke-dasharray:none" transform="translate(-161.928 -471.44)scale(.77397)"/>
</svg>
