<svg xmlns="http://www.w3.org/2000/svg" xml:space="preserve" viewBox="490.426 308.424 170.576 102.163" role="img" aria-labelledby="title">
  <title id="title">Verkehrszeichen F1a - F1a</title>
  <path d="M498.102 408.648h155.305c3.166 0 5.692-2.559 5.692-5.717v-86.772c0-3.158-2.526-5.756-5.692-5.756H498.102c-3.167 0-5.691 2.558-5.691 5.716v86.813c-.001 3.158 2.525 5.716 5.691 5.716"/>
  <path fill="none" stroke="#000" stroke-miterlimit="3.863" stroke-width=".2" d="M498.102 408.648h155.305c3.166 0 5.692-2.559 5.692-5.717v-86.772c0-3.158-2.526-5.756-5.692-5.756H498.102c-3.167 0-5.691 2.558-5.691 5.716v86.813c-.001 3.158 2.525 5.716 5.691 5.716z"/>
  <path fill="#fff" d="M653.406 312.082H498.062c-2.204 0-3.969 1.878-3.969 4.077v86.813c0 2.198 1.725 3.957 3.929 3.957h155.464c2.205 0 3.89-1.719 3.89-3.918v-86.974a3.947 3.947 0 0 0-3.97-3.955"/>
  <path fill="none" stroke="#000" stroke-miterlimit="3.863" stroke-width=".2" d="M653.406 312.082H498.062c-2.204 0-3.969 1.878-3.969 4.077v86.813c0 2.199 1.725 3.958 3.929 3.958h155.464c2.205 0 3.89-1.719 3.89-3.918v-86.974a3.947 3.947 0 0 0-3.97-3.956z"/>
  <path fill="none" stroke="#000" stroke-miterlimit="3.863" stroke-width=".2" d="M660.902 402.892v-86.813c0-4.198-3.325-7.555-7.534-7.555H498.062c-4.209 0-7.536 3.438-7.536 7.635v86.772a7.535 7.535 0 0 0 7.576 7.556h155.305c4.209 0 7.495-3.398 7.495-7.595z"/>
  <path d="M501.071 376.584c0-15.003.135-27.282.299-27.286s3.834 1.273 8.156 2.84l7.858 2.848v5.323c0 3.611.141 5.324.438 5.324.241 0 5.792-1.463 12.335-3.25l11.896-3.249-.054-6.01c-.029-3.305-.164-9.593-.299-13.974l-.244-7.965 6.473-8.661c3.56-4.764 6.553-8.662 6.652-8.662s3.318 3.757 7.154 8.349l6.976 8.349v40.04l6.126-6.122 6.126-6.122 5.219 7.819 5.218 7.819h8.346v2.789h8.356v15.929h4.775l.012-9.259.012-9.259 12.807-6.77c7.044-3.724 15.633-8.26 19.087-10.08l6.279-3.309v49.826h-150v-27.277z"/>
</svg>
