<svg xmlns="http://www.w3.org/2000/svg" xml:space="preserve" viewBox="0 0 68.68 102.721" role="img" aria-labelledby="title">
  <title id="title">Verkehrszeichen F7 - End of motorway</title>
  <path fill="#0071b3" d="m68.601 94.887-.04-87.333A7.507 7.507 0 0 0 61.045.04L7.555 0C3.358 0 0 3.357 0 7.514v87.693c0 4.156 3.358 7.514 7.555 7.514h53.609a7.507 7.507 0 0 0 7.516-7.514z"/>
  <path fill="#fff" d="M2.079 7.714c0-3.118 2.518-5.636 5.676-5.636h53.25a5.63 5.63 0 0 1 5.638 5.636v87.294a5.63 5.63 0 0 1-5.638 5.635H7.675c-3.158 0-5.676-2.519-5.676-5.635V7.714"/>
  <path fill="#0071b3" d="M64.922 94.967V7.754c0-2.198-1.52-4.077-3.717-4.077H7.675a3.94 3.94 0 0 0-3.957 3.957v87.413a3.94 3.94 0 0 0 3.957 3.957h53.531c2.197 0 3.716-1.839 3.716-4.037"/>
  <path fill="#fff" d="m32.581 7.474-.56 26.02h-7.315l3.438-26.02z"/>
  <path fill="none" stroke="#fff" stroke-miterlimit="3.863" stroke-width=".2" d="m32.581 7.474-.56 26.02h-7.315l3.438-26.02z"/>
  <path fill="#fff" d="m17.27 95.526 13.512-.04.88-49.641h-8.116z"/>
  <path fill="none" stroke="#fff" stroke-miterlimit="3.863" stroke-width=".2" d="m17.27 95.526 13.512-.04.88-49.641h-8.116z"/>
  <path fill="#fff" d="m35.459 7.474.56 25.98h6.916l-2.998-25.98z"/>
  <path fill="none" stroke="#fff" stroke-miterlimit="3.863" stroke-width=".2" d="m35.459 7.474.56 25.98h6.916l-2.998-25.98z"/>
  <path fill="#fff" d="M51.57 95.526H38.338l-1.319-49.642h8.115z"/>
  <path fill="none" stroke="#fff" stroke-miterlimit="3.863" stroke-width=".2" d="M51.57 95.526H38.338l-1.319-49.642h8.115z"/>
  <path fill="#fff" d="M51.25 59.234h9.355l-2.079-16.587h3.558v-6.715H6.396v6.715h3.598L8.035 58.874h9.195l-1.479-16.427H53.29l-1.879 16.587z"/>
  <path fill="none" stroke="#fff" stroke-miterlimit="3.863" stroke-width=".2" d="M51.25 59.234h9.355l-2.079-16.587h3.558v-6.715H6.396v6.715h3.598L8.035 58.874h9.195l-1.479-16.427H53.29l-1.879 16.587z"/>
  <path fill="#ef382f" d="M7.316 98.964c-2.199 0-3.678-2.038-3.678-4.276v-7.115L58.726 3.717l2.119-.04c2.918-.04 4.077 2.238 4.077 3.757l-.079 6.755L8.835 98.964z"/>
  <path fill="none" stroke="#ef382f" stroke-miterlimit="3.863" stroke-width=".12" d="M7.316 98.964c-2.199 0-3.678-2.038-3.678-4.276v-7.115L58.726 3.717l2.119-.04c2.918-.04 4.077 2.238 4.077 3.757l-.079 6.755L8.835 98.964z"/>
</svg>
