<svg xmlns="http://www.w3.org/2000/svg" xml:space="preserve" viewBox="0 0 68.375 102.688" role="img" aria-labelledby="title">
  <title id="title">Verkehrszeichen F59 - Indicating parking</title>
  <path fill="#0071b3" d="M8.019 0h52.426c4.369 0 7.93 3.575 7.93 7.96v86.859c0 4.355-3.561 7.869-7.93 7.869H7.959C3.56 102.688 0 99.114 0 94.759L.03 7.96C.03 3.575 3.62 0 8.019 0"/>
  <path fill="none" d="M8.019 0h52.426c4.369 0 7.93 3.575 7.93 7.959v86.86c0 4.355-3.561 7.869-7.93 7.869H7.959C3.56 102.688 0 99.114 0 94.759l.03-86.8C.03 3.575 3.62 0 8.019 0"/>
  <path fill="#fff" fill-rule="evenodd" d="M58.081 15.498c-3.95 0-6.403-4.265-4.429-7.688 1.975-3.395 6.883-3.395 8.828 0 1.975 3.423-.479 7.688-4.399 7.688" clip-rule="evenodd"/>
  <path fill="none" d="M58.081 15.498c-3.95 0-6.403-4.265-4.429-7.688 1.975-3.395 6.883-3.395 8.828 0 1.975 3.423-.479 7.688-4.399 7.688"/>
  <path fill="#fff" d="M65.592 94.698c0 2.854-2.303 5.167-5.086 5.167H7.899c-2.813 0-5.086-2.313-5.086-5.167V7.99c0-2.823 2.274-5.167 5.086-5.167h52.607c2.783 0 5.086 2.313 5.086 5.196z"/>
  <path fill="none" d="M65.592 94.698c0 2.854-2.303 5.167-5.086 5.167H7.899c-2.813 0-5.086-2.313-5.086-5.167V7.99c0-2.823 2.274-5.167 5.086-5.167h52.607c2.783 0 5.086 2.313 5.086 5.196z"/>
  <path fill="#0071b3" d="M63.318 95.18c0 1.442-1.197 2.583-2.604 2.583H7.601c-1.406 0-2.544-1.141-2.544-2.583V7.539c0-1.412 1.138-2.583 2.544-2.583h53.173c1.407 0 2.545 1.141 2.545 2.583V95.18z"/>
  <path fill="none" d="M63.318 95.18c0 1.442-1.197 2.583-2.604 2.583H7.601c-1.406 0-2.544-1.141-2.544-2.583V7.539c0-1.412 1.138-2.583 2.544-2.583h53.173c1.407 0 2.545 1.141 2.545 2.583V95.18z"/>
  <path fill="#fff" d="M10.503 63.464c-.958 0-1.766-.752-1.766-1.683V14.086c0-.961.777-1.712 1.735-1.712l47.428.031c.929.03 1.735.69 1.735 1.651v47.695c0 .931-.717 1.713-1.646 1.713z"/>
  <path fill="none" d="M10.503 63.463c-.958 0-1.766-.751-1.766-1.682V14.086c0-.961.777-1.712 1.735-1.712l47.428.031c.929.03 1.735.69 1.735 1.651v47.695c0 .931-.717 1.712-1.646 1.712z"/>
  <path fill="#fff" d="M42.641 76.949H8.768v6.818h33.873v6.818l16.966-10.213-16.966-10.211z"/>
  <path fill="none" d="M42.641 76.949H8.768v6.818h33.873v6.818l16.966-10.213-16.966-10.211z"/>
  <path fill="#fff" d="M19.839 33.429v25.769H27.2l.12-1.081v-16.76l.09-.389h11.041l1.018-.181.868-.27 1.406-.601.479-.181 1.108-.75 1.166-.871.718-.721 1.018-1.081.868-1.532.449-.871.357-1.201.391-1.202.119-1.111.09-1.051.029-1.411-.119-1.202-.119-1.232-.359-1.081-.389-1.321-.629-1.201-.688-1.172-.898-.961-1.316-1.081-1.137-.721-.6-.3-.748-.361-1.765-.481-.569-.179h-19.36z"/>
  <path fill="none" d="M19.839 33.429v25.769H27.2l.12-1.081v-16.76l.09-.389h11.041l1.018-.181.868-.27 1.406-.601.479-.181 1.108-.75 1.166-.871.718-.721 1.018-1.081.868-1.532.449-.871.357-1.201.391-1.202.119-1.111.09-1.051.029-1.411-.119-1.202-.119-1.232-.359-1.081-.389-1.321-.629-1.201-.688-1.172-.898-.961-1.316-1.081-1.137-.721-.6-.3-.748-.361-1.765-.481-.569-.179h-19.36z"/>
  <path fill="#120c0e" d="M19.839 33.429v25.769H27.2l.12-1.081v-16.76l.09-.389h11.041l1.018-.181.868-.27 1.406-.601.479-.181 1.108-.75 1.166-.871.718-.721 1.018-1.081.868-1.532.449-.871.357-1.201.391-1.202.119-1.111.09-1.051.029-1.411-.119-1.202-.119-1.232-.359-1.081-.389-1.321-.629-1.201-.688-1.172-.898-.961-1.316-1.081-1.137-.721-.6-.3-.748-.361-1.765-.481-.569-.179h-19.36z"/>
  <path fill="none" d="M19.839 33.429v25.769H27.2l.12-1.081v-16.76l.09-.389h11.041l1.018-.181.868-.27 1.406-.601.479-.181 1.108-.75 1.166-.871.718-.721 1.018-1.081.868-1.532.449-.871.357-1.201.391-1.202.119-1.111.09-1.051.029-1.411-.119-1.202-.119-1.232-.359-1.081-.389-1.321-.629-1.201-.688-1.172-.898-.961-1.316-1.081-1.137-.721-.6-.3-.748-.361-1.765-.481-.569-.179h-19.36z"/>
  <path fill="#fff" d="m40.695 29.584-.358 1.202-.899 1.171-1.077.991-1.226.361h-9.456l-.089-1.202v-8.17l1.197-.119h7.361l1.197.119.897.271.36.09.986.871.449.511.3.42.358.72.09 1.203-.09 1.201z"/>
  <path fill="none" d="m40.695 29.584-.358 1.202-.899 1.171-1.077.991-1.226.361h-9.456l-.089-1.202v-8.17l1.197-.119h7.361l1.197.119.897.271.36.09.986.871.449.51.3.421.358.72.09 1.202-.09 1.202z"/>
</svg>
