<svg xmlns="http://www.w3.org/2000/svg" xml:space="preserve" viewBox="0 0 102.082 68.292" role="img" aria-labelledby="title">
  <title id="title">Verkehrszeichen F23b - A-road number sign (motorway)</title>
  <path fill="#fff" d="M.1 34.327V7.612C.1 3.435 3.457.06 7.454.06h86.933c4.116 0 7.474 3.375 7.474 7.552l.08 26.715.08 26.232c0 4.178-3.557 7.673-7.674 7.673H7.454C3.417 68.232.06 64.858.06 60.76V34.167z"/>
  <path fill="none" stroke="#120c0e" stroke-miterlimit="3.863" stroke-width=".12" d="M.1 34.327V7.612C.1 3.435 3.457.06 7.454.06h86.933c4.116 0 7.474 3.375 7.474 7.552l.08 26.715.08 26.232c0 4.178-3.557 7.673-7.674 7.673H7.454C3.417 68.232.06 64.858.06 60.76V34.167z"/>
  <path fill="#120c0e" d="m100.103 34.207.039 26.433c0 3.094-2.678 5.785-5.755 5.785H7.454c-3.038 0-5.516-2.691-5.516-5.785l.04-26.272V7.21c0-2.933 2.278-5.303 5.156-5.303h87.253c3.038 0 5.755 2.49 5.755 5.664v26.635z"/>
  <path fill="none" stroke="#120c0e" stroke-miterlimit="3.863" stroke-width=".2" d="m100.103 34.207.039 26.433c0 3.094-2.678 5.785-5.755 5.785H7.454c-3.038 0-5.516-2.691-5.516-5.785l.04-26.272V7.21c0-2.933 2.278-5.303 5.156-5.303h87.253c3.038 0 5.755 2.49 5.755 5.664v26.635z"/>
  <path fill="#fff" d="m98.464 34.167.039 26.433c0 2.169-1.918 4.057-4.036 4.057H7.534c-2.119 0-3.917-1.808-3.917-3.977V34.327l.04-26.715c0-2.169 1.798-3.977 3.917-3.977h86.973c2.119 0 3.838 1.848 3.838 4.017z"/>
  <path fill="none" stroke="#fff" stroke-miterlimit="3.863" stroke-width=".2" d="m98.464 34.167.039 26.433c0 2.169-1.918 4.057-4.036 4.057H7.534c-2.119 0-3.917-1.808-3.917-3.977V34.327l.04-26.715c0-2.169 1.798-3.977 3.917-3.977h86.973c2.119 0 3.838 1.848 3.838 4.017z"/>
  <path fill="#120c0e" d="M7.375 56.582h7.193l.999-5.383H26.2l1.039 4.94h7.074l-10.312-44.43h-6.915z"/>
  <path fill="none" stroke="#120c0e" stroke-miterlimit="3.863" stroke-width=".12" d="M7.375 56.582h7.193l.999-5.383H26.2l1.039 4.94h7.074l-10.312-44.43h-6.915z"/>
  <path fill="#fff" d="M16.846 45.375h8.075l-4.277-17.556z"/>
  <path fill="none" stroke="#000" stroke-miterlimit="3.863" stroke-width=".12" d="M16.846 45.375h8.075l-4.277-17.556z"/>
  <path fill="#120c0e" d="M45.984 27.175a11.54 11.54 0 0 1 4.996-1.124c6.275 0 11.391 5.062 11.391 11.288v8.355c0 6.228-5.116 11.249-11.391 11.249-6.355 0-11.471-5.021-11.471-11.249v-1.968h6.594v2.41c0 2.57 2.198 4.7 4.876 4.7 2.597 0 4.796-2.13 4.796-4.7v-9.802c0-2.651-2.158-4.781-4.756-4.781-1.878 0-3.517 1.045-4.277 2.572h-6.514V11.389h20.903v5.704H45.984z"/>
  <path fill="none" stroke="#120c0e" stroke-miterlimit="3.863" stroke-width=".12" d="M45.984 27.175a11.54 11.54 0 0 1 4.996-1.124c6.275 0 11.391 5.062 11.391 11.288v8.355c0 6.228-5.116 11.249-11.391 11.249-6.355 0-11.471-5.021-11.471-11.249v-1.968h6.594v2.41c0 2.57 2.198 4.7 4.876 4.7 2.597 0 4.796-2.13 4.796-4.7v-9.802c0-2.651-2.158-4.781-4.756-4.781-1.878 0-3.517 1.045-4.277 2.572h-6.514V11.389h20.903v5.704H45.984z"/>
  <path fill="#120c0e" d="M84.594 11.871h7.914v31.132h2.239v5.384h-2.119v8.074h-6.195v-7.794H69.566v-5.824z"/>
  <path fill="none" stroke="#120c0e" stroke-miterlimit="3.863" stroke-width=".12" d="M84.594 11.871h7.914v31.132h2.239v5.384h-2.119v8.074h-6.195v-7.794H69.566v-5.824z"/>
  <path fill="#fff" d="M86.553 23.842v19.001H77.28z"/>
  <path fill="none" stroke="#120c0e" stroke-miterlimit="3.863" stroke-width=".12" d="M86.553 23.842v19.001H77.28z"/>
</svg>
