<svg xmlns="http://www.w3.org/2000/svg" xml:space="preserve" viewBox="0 0 68.375 102.688" role="img" aria-labelledby="title">
  <title id="title">Verkehrszeichen F71 - Camp site</title>
  <path fill="#0071b3" d="M8.019 0h52.427c4.369 0 7.93 3.574 7.93 7.959v86.86c0 4.354-3.561 7.868-7.93 7.868H7.959C3.561 102.688 0 99.114 0 94.759l.03-86.8C.03 3.574 3.62 0 8.019 0"/>
  <path fill="none" d="M8.019 0h52.427c4.369 0 7.93 3.574 7.93 7.959v86.86c0 4.354-3.561 7.868-7.93 7.868H7.959C3.561 102.688 0 99.114 0 94.759l.03-86.8C.03 3.574 3.62 0 8.019 0"/>
  <path fill="#fff" fill-rule="evenodd" d="M58.081 15.498c-3.949 0-6.402-4.265-4.428-7.689 1.975-3.393 6.882-3.393 8.827 0 1.976 3.424-.48 7.689-4.399 7.689" clip-rule="evenodd"/>
  <path fill="none" d="M58.081 15.498c-3.949 0-6.402-4.265-4.428-7.689 1.975-3.393 6.882-3.393 8.827 0 1.976 3.424-.48 7.689-4.399 7.689"/>
  <path fill="#fff" d="M65.592 94.698c0 2.854-2.304 5.166-5.087 5.166H7.899c-2.813 0-5.087-2.313-5.087-5.166V7.989c0-2.823 2.274-5.166 5.087-5.166h52.606c2.783 0 5.087 2.313 5.087 5.196z"/>
  <path fill="none" d="M65.592 94.698c0 2.854-2.304 5.166-5.087 5.166H7.899c-2.813 0-5.087-2.313-5.087-5.166V7.989c0-2.823 2.274-5.166 5.087-5.166h52.606c2.783 0 5.087 2.313 5.087 5.196z"/>
  <path fill="#0071b3" d="M63.319 95.179c0 1.441-1.198 2.584-2.604 2.584H7.601c-1.407 0-2.544-1.143-2.544-2.584V7.539c0-1.412 1.138-2.583 2.544-2.583h53.173c1.406 0 2.545 1.142 2.545 2.583z"/>
  <path fill="none" d="M63.319 95.179c0 1.441-1.198 2.584-2.604 2.584H7.601c-1.407 0-2.544-1.143-2.544-2.584V7.539c0-1.412 1.138-2.583 2.544-2.583h53.173c1.406 0 2.545 1.142 2.545 2.583z"/>
  <path fill="#fff" fill-rule="evenodd" d="M58.83 76.077H9.605V26.67H58.83z" clip-rule="evenodd"/>
  <path fill="none" d="M58.83 76.077H9.605V26.67H58.83z"/>
  <path fill="#120c0e" d="M55.239 69.079H13.615v-4.204h3.89l14.334-20.244-7.871-10.752h5.028l5.147 7.509 5.116-7.509h4.548l-7.39 10.632 14.542 20.273h4.37v4.325z"/>
  <path fill="none" d="M55.239 69.079H13.615v-4.204h3.89l14.334-20.244-7.871-10.752h5.028l5.147 7.509 5.116-7.509h4.548l-7.39 10.632 14.542 20.273h4.37v4.325z"/>
  <path fill="#fff" d="M26.452 64.875h16.009L34.323 53.61z"/>
  <path fill="none" d="M26.452 64.875h16.009L34.323 53.61z"/>
</svg>
