<svg xmlns="http://www.w3.org/2000/svg" xml:space="preserve" viewBox="0 0 153.041 101.75" role="img" aria-labelledby="title">
  <title id="title">Verkehrszeichen F91 - Indicates rules or dangers on specific lanes only</title>
  <path fill="#0071b3" d="M0 5.225C0 2.154.959 0 4.038 0h143.963c3.42 0 5.039 1.814 5.039 5.225v91.579c0 3.33-1.719 4.945-5.039 4.945H4.038C1.059 101.75 0 99.815 0 96.804z"/>
  <path fill="none" d="M0 5.225C0 2.154.959 0 4.038 0h143.963c3.42 0 5.039 1.814 5.039 5.225v91.579c0 3.33-1.719 4.945-5.039 4.945H4.038C1.059 101.75 0 99.815 0 96.804z"/>
  <path fill="none" stroke="#fff" stroke-miterlimit="3.863" stroke-width="1.598" d="M2.738 6.103c0-2.234 1.021-3.391 3.239-3.391h140.565c2.399 0 3.779.977 3.779 3.391v89.345c0 2.493-1.12 3.589-3.58 3.589H5.978c-2.279 0-3.239-1.296-3.239-3.589V6.103z"/>
  <path fill="#fff" d="M73.62 19.78h5.678v73.51H73.62z"/>
  <path fill="#fff" fill-rule="evenodd" d="M85.037 21.196H68.021l8.518-14.16z" clip-rule="evenodd"/>
  <path fill="#fff" d="M124.067 19.78h5.679v73.51h-5.679z"/>
  <path fill="#fff" fill-rule="evenodd" d="M135.484 21.196h-17.016l8.518-14.16z" clip-rule="evenodd"/>
  <path fill="#ed1c24" fill-rule="evenodd" d="M126.546 70.161c-13.096 0-21.295-14.14-14.736-25.447 6.559-11.328 22.915-11.328 29.474 0 6.538 11.307-1.64 25.447-14.738 25.447" clip-rule="evenodd"/>
  <path fill="none" d="M126.546 70.161c-13.096 0-21.295-14.14-14.736-25.447 6.559-11.328 22.915-11.328 29.474 0 6.538 11.307-1.64 25.447-14.738 25.447"/>
  <path fill="#fff" fill-rule="evenodd" d="M126.546 65.294c-9.337 0-15.176-10.092-10.516-18.148 4.678-8.077 16.354-8.077 21.033 0 4.66 8.057-1.179 18.148-10.517 18.148" clip-rule="evenodd"/>
  <path fill="none" d="M126.546 65.294c-9.337 0-15.176-10.092-10.516-18.148 4.678-8.077 16.354-8.077 21.033 0 4.66 8.057-1.179 18.148-10.517 18.148"/>
  <path fill="#ed1c24" fill-rule="evenodd" d="M76.219 70.161c-13.096 0-21.294-14.14-14.736-25.447 6.559-11.328 22.915-11.328 29.473 0 6.538 11.307-1.64 25.447-14.737 25.447" clip-rule="evenodd"/>
  <path fill="none" d="M76.219 70.161c-13.096 0-21.294-14.14-14.736-25.447 6.559-11.328 22.915-11.328 29.473 0 6.538 11.307-1.64 25.447-14.737 25.447"/>
  <path fill="#fff" fill-rule="evenodd" d="M76.219 65.294c-9.337 0-15.175-10.092-10.517-18.148 4.678-8.077 16.355-8.077 21.035 0 4.659 8.057-1.179 18.148-10.518 18.148" clip-rule="evenodd"/>
  <path fill="none" d="M76.219 65.294c-9.337 0-15.175-10.092-10.517-18.148 4.678-8.077 16.355-8.077 21.035 0 4.659 8.057-1.179 18.148-10.518 18.148"/>
  <path fill="#120c0e" fill-rule="evenodd" d="M117.33 46.887v2.214h5.958c-2.46 2.891-3.958 6.541-4.278 10.391h2.499c.22-3.988 1.759-7.758 4.358-10.67v-1.934z" clip-rule="evenodd"/>
  <path fill="none" d="M117.33 46.887v2.214h5.958c-2.46 2.891-3.958 6.541-4.278 10.391h2.499c.22-3.989 1.759-7.758 4.358-10.67v-1.935z"/>
  <path fill="#120c0e" fill-rule="evenodd" d="M131.906 57.578c-.979 0-1.719-.699-1.719-3.391v-2.015c0-2.693.739-3.391 1.719-3.391s1.719.698 1.719 3.391v2.015c0 2.691-.739 3.391-1.719 3.391m0 1.994c-2.779 0-4.039-1.836-4.039-6.383 0-4.566 1.26-6.402 4.039-6.402s4.039 1.835 4.039 6.402c0 4.547-1.26 6.383-4.039 6.383" clip-rule="evenodd"/>
  <path fill="none" d="M131.906 57.578c-.979 0-1.719-.699-1.719-3.391v-2.016c0-2.692.739-3.39 1.719-3.39s1.719.698 1.719 3.39v2.016c0 2.691-.739 3.391-1.719 3.391m0 1.994c-2.779 0-4.039-1.836-4.039-6.383 0-4.566 1.26-6.402 4.039-6.402s4.039 1.835 4.039 6.402c0 4.547-1.26 6.383-4.039 6.383"/>
  <path fill="#120c0e" fill-rule="evenodd" d="M71.081 53.249c-1.179 0-1.739-.937-1.739-2.293 0-1.336.56-2.274 1.739-2.274 1.181 0 1.76.938 1.76 2.274 0 1.356-.58 2.293-1.76 2.293m1.82 1.077c-2.14 1.995-5.858 1.137-5.858-3.45 0-2.293 1.16-4.308 3.799-4.308 3.139 0 4.479 2.413 4.479 6.621s-1.34 6.602-4.479 6.602c-1.939 0-3.479-.997-3.62-3.291h2.3c.199.857.66 1.316 1.499 1.316 1.5 0 1.939-2.213 1.88-3.49" clip-rule="evenodd"/>
  <path fill="none" d="M71.081 53.249c-1.179 0-1.739-.937-1.739-2.293 0-1.336.56-2.274 1.739-2.274 1.181 0 1.761.938 1.761 2.274-.001 1.356-.581 2.293-1.761 2.293m1.82 1.077c-2.14 1.995-5.859 1.137-5.859-3.45 0-2.293 1.16-4.307 3.799-4.307 3.139 0 4.479 2.413 4.479 6.621s-1.34 6.602-4.479 6.602c-1.939 0-3.479-.997-3.62-3.291h2.3c.199.857.66 1.316 1.499 1.316 1.501-.001 1.94-2.214 1.881-3.491"/>
  <path fill="#120c0e" fill-rule="evenodd" d="M81.358 57.578c-.979 0-1.72-.699-1.72-3.391v-2.015c0-2.693.74-3.391 1.72-3.391s1.72.698 1.72 3.391v2.015c0 2.691-.74 3.391-1.72 3.391m0 1.994c-2.778 0-4.038-1.836-4.038-6.383 0-4.566 1.26-6.402 4.038-6.402 2.78 0 4.04 1.835 4.04 6.402 0 4.547-1.26 6.383-4.04 6.383" clip-rule="evenodd"/>
  <path fill="none" d="M81.358 57.578c-.979 0-1.72-.699-1.72-3.391v-2.016c0-2.692.74-3.39 1.72-3.39s1.72.698 1.72 3.39v2.016c0 2.691-.74 3.391-1.72 3.391m0 1.994c-2.778 0-4.038-1.836-4.038-6.383 0-4.566 1.26-6.402 4.038-6.402 2.78 0 4.04 1.835 4.04 6.402 0 4.547-1.26 6.383-4.04 6.383"/>
  <path fill="#fff" d="M26.772 19.781h5.678v73.511h-5.678z"/>
  <path fill="#fff" fill-rule="evenodd" d="M38.129 21.197H21.113l8.518-14.159z" clip-rule="evenodd"/>
</svg>
