<svg xmlns="http://www.w3.org/2000/svg" xml:space="preserve" viewBox="0 0 168.078 25.806" role="img" aria-labelledby="title">
  <title id="title">Verkehrszeichen F29 - Arrow indicating direction of a place (village, city...)</title>
  <path fill="#0071b3" d="M140.037 0H4.308A4.286 4.286 0 0 0 0 4.301v17.204a4.286 4.286 0 0 0 4.308 4.301h135.611c.957 0 1.874-.239 2.712-.678l23.373-9.637c1.195-.518 2.074-1.633 2.074-2.948 0-1.194-.639-2.27-1.596-2.747L143.628.636C142.551.039 141.314 0 140.037 0"/>
  <path fill="none" d="M140.037 0H4.308A4.286 4.286 0 0 0 0 4.301v17.204a4.286 4.286 0 0 0 4.308 4.301h135.611c.957 0 1.874-.239 2.712-.678l23.373-9.637c1.195-.518 2.074-1.633 2.074-2.948 0-1.194-.639-2.27-1.596-2.747L143.628.636C142.551.039 141.314 0 140.037 0"/>
  <path fill="#fff" d="M42.398 23.934v.717H4.148c-2.074 0-3.27-1.233-3.27-3.265V4.38a3.28 3.28 0 0 1 3.27-3.265h136.29c.678 0 1.795.278 2.353.478l22.815 9.12c.678.318 1.196 1.035 1.196 1.831 0 .836-.519 1.673-1.276 1.872l-23.015 9.559c-.558.279-1.675.677-2.353.677H52.489v-.756h87.548c.679 0 1.277-.2 1.836-.519l13.8-9.518c.358-.279.599-.717.599-1.275 0-.517-.24-.956-.559-1.234l-13.441-8.961c-.558-.319-1.156-.518-1.834-.518H4.228c-1.316 0-2.433 1.115-2.433 2.43v17.124c0 1.354 1.117 2.47 2.433 2.47h38.051z"/>
  <path fill="none" d="M42.398 23.934v.717H4.148c-2.074 0-3.27-1.233-3.27-3.265V4.38a3.28 3.28 0 0 1 3.27-3.265h136.29c.678 0 1.795.278 2.353.478l22.815 9.12c.678.318 1.196 1.035 1.196 1.831 0 .836-.519 1.673-1.276 1.872l-23.015 9.559c-.558.279-1.675.677-2.353.677H52.489v-.756h87.548c.679 0 1.277-.2 1.836-.519l13.8-9.518c.358-.279.599-.717.599-1.275 0-.517-.24-.956-.559-1.234l-13.441-8.961c-.558-.319-1.156-.518-1.834-.518H4.228c-1.316 0-2.433 1.115-2.433 2.43v17.124c0 1.354 1.117 2.47 2.433 2.47h38.051z"/>
  <path fill="#fff" d="M10.729 21.186V7.606h-3.47V4.858h10.53v2.748h-4.028v13.58z"/>
  <path fill="none" d="M10.729 21.186V7.606h-3.47V4.858h10.53v2.748h-4.028v13.58z"/>
  <path fill="#fff" d="M33.305 11.23c.598-.677 1.515-1.075 2.472-1.075 1.875 0 3.431 1.553 3.431 3.424v7.727h-2.394v-6.969c0-1.036-.757-1.793-1.715-1.793-1.037 0-1.794.757-1.794 1.793v6.889h-2.633V10.434h2.633z"/>
  <path fill="none" d="M33.305 11.23c.598-.677 1.515-1.075 2.472-1.075 1.875 0 3.431 1.553 3.431 3.424v7.727h-2.394v-6.969c0-1.036-.757-1.793-1.715-1.793-1.037 0-1.794.757-1.794 1.793v6.889h-2.633V10.434h2.633z"/>
  <path fill="#fff" d="M54.962 17.363c0 2.469 2.035 4.422 4.428 4.422 2.074 0 3.749-1.475 4.228-3.506h-2.553a1.91 1.91 0 0 1-1.795 1.235c-1.037 0-1.875-.836-1.875-1.912v-.756h6.223v-2.271c0-2.509-1.955-4.46-4.348-4.46-2.353 0-4.308 1.952-4.308 4.46z"/>
  <path fill="none" d="M54.962 17.363c0 2.469 2.035 4.422 4.428 4.422 2.074 0 3.749-1.475 4.228-3.506h-2.553a1.91 1.91 0 0 1-1.795 1.235c-1.037 0-1.875-.836-1.875-1.912v-.756h6.223v-2.271c0-2.509-1.955-4.46-4.348-4.46-2.353 0-4.308 1.952-4.308 4.46z"/>
  <path fill="#0071b3" d="M61.224 14.217c0-1.075-.837-1.951-1.874-1.951-1.077 0-1.915.876-1.915 1.951v.397h3.789v-.438z"/>
  <path fill="none" d="M61.224 14.217c0-1.075-.837-1.951-1.874-1.951-1.077 0-1.915.876-1.915 1.951v.397h3.789v-.438z"/>
  <path fill="#fff" d="M75.663 17.363c0 2.469 2.034 4.342 4.427 4.342 2.074 0 3.75-1.395 4.228-3.465h-2.513c-.279.836-.997 1.314-1.794 1.314-1.077 0-1.915-.916-1.915-1.952v-.756h6.222v-2.19c0-2.47-1.914-4.421-4.307-4.421s-4.348 1.951-4.348 4.421z"/>
  <path fill="none" d="M75.663 17.363c0 2.469 2.034 4.342 4.427 4.342 2.074 0 3.75-1.395 4.228-3.465h-2.513c-.279.836-.997 1.314-1.794 1.314-1.077 0-1.915-.916-1.915-1.952v-.756h6.222v-2.19c0-2.47-1.914-4.421-4.307-4.421s-4.348 1.951-4.348 4.421z"/>
  <path fill="#0071b3" d="M81.925 14.337c0-1.076-.838-1.992-1.875-1.992-1.077 0-1.874.916-1.874 1.992v.357h3.749v-.398z"/>
  <path fill="none" d="M81.925 14.337c0-1.076-.838-1.992-1.875-1.992-1.077 0-1.874.916-1.874 1.992v.357h3.749v-.398z"/>
  <path fill="#fff" d="M90.939 11.39a3.35 3.35 0 0 1 2.473-1.116c1.875 0 3.43 1.554 3.43 3.466v7.686h-2.393v-6.969c0-.996-.758-1.792-1.715-1.792-1.037 0-1.795.796-1.795 1.792v6.89h-2.633V10.553h2.633z"/>
  <path fill="none" d="M90.939 11.39a3.35 3.35 0 0 1 2.473-1.116c1.875 0 3.43 1.554 3.43 3.466v7.686h-2.393v-6.969c0-.996-.758-1.792-1.715-1.792-1.037 0-1.795.796-1.795 1.792v6.89h-2.633V10.553h2.633z"/>
  <path fill="#fff" d="M27.042 17.205c0 2.508-1.794 4.42-4.028 4.42-2.273 0-4.028-1.912-4.028-4.42v-2.789c0-2.468 1.755-4.419 4.028-4.419 2.234 0 4.028 1.951 4.028 4.419z"/>
  <path fill="none" d="M27.042 17.205c0 2.508-1.794 4.42-4.028 4.42-2.273 0-4.028-1.912-4.028-4.42v-2.789c0-2.468 1.755-4.419 4.028-4.419 2.234 0 4.028 1.951 4.028 4.419z"/>
  <path fill="#0071b3" d="M21.339 17.642v-3.584c0-.956.758-1.792 1.675-1.792s1.635.836 1.635 1.792v3.544c0 .956-.718 1.792-1.635 1.792s-1.675-.836-1.675-1.792z"/>
  <path fill="none" d="M21.339 17.642v-3.584c0-.956.758-1.792 1.675-1.792s1.635.836 1.635 1.792v3.544c0 .956-.718 1.792-1.635 1.792s-1.675-.836-1.675-1.792z"/>
  <path fill="#fff" d="M45.709 22.819c.319.478.798.757 1.396.757a1.77 1.77 0 0 0 1.755-1.752v-1.633a3.76 3.76 0 0 1-6.023-3.027v-3.146a3.759 3.759 0 0 1 6.023-3.027v-.796h2.393v11.509c0 2.07-1.675 3.744-3.709 3.744h-.519c-1.157 0-2.194-.559-2.911-1.395z"/>
  <path fill="none" d="M45.709 22.819c.319.478.798.757 1.396.757a1.77 1.77 0 0 0 1.755-1.752v-1.633a3.76 3.76 0 0 1-6.023-3.027v-3.146a3.759 3.759 0 0 1 6.023-3.027v-.796h2.393v11.509c0 2.07-1.675 3.744-3.709 3.744h-.519c-1.157 0-2.194-.559-2.911-1.395z"/>
  <path fill="#0071b3" d="M48.9 16.766c0 .956-.758 1.752-1.755 1.752-.957 0-1.715-.796-1.715-1.752v-2.47c0-.995.758-1.752 1.715-1.752.997 0 1.755.757 1.755 1.752z"/>
  <path fill="none" d="M48.9 16.766c0 .956-.758 1.752-1.755 1.752-.957 0-1.715-.796-1.715-1.752v-2.47c0-.995.758-1.752 1.715-1.752.997 0 1.755.757 1.755 1.752z"/>
  <path fill="#fff" d="M111.999 10.115h-3.071c.239-2.549 2.393-4.5 5.025-4.5 2.752 0 4.986 2.23 4.986 5.058 0 1.274-.52 2.429-1.277 3.345l-4.707 4.62h5.984v2.867h-10.291v-3.187l6.7-6.81c.319-.358.519-.757.519-1.274 0-1.036-.877-1.912-1.914-1.912-1.077 0-1.954.876-1.954 1.912z"/>
  <path fill="none" d="M111.999 10.115h-3.071c.239-2.549 2.393-4.5 5.025-4.5 2.752 0 4.986 2.23 4.986 5.058 0 1.274-.52 2.429-1.277 3.345l-4.707 4.62h5.984v2.867h-10.291v-3.187l6.7-6.81c.319-.358.519-.757.519-1.274 0-1.036-.877-1.912-1.914-1.912-1.077 0-1.954.876-1.954 1.912z"/>
  <path fill="#fff" d="M124.203 10.872v5.536c0 2.867 2.354 5.217 5.266 5.217 2.871 0 5.225-2.35 5.225-5.217v-5.417c0-2.907-2.354-5.257-5.225-5.257a5.257 5.257 0 0 0-5.266 5.257z"/>
  <path fill="none" d="M124.203 10.872v5.536c0 2.867 2.354 5.217 5.266 5.217 2.871 0 5.225-2.35 5.225-5.217v-5.417c0-2.907-2.354-5.257-5.225-5.257a5.257 5.257 0 0 0-5.266 5.257z"/>
  <path fill="#0071b3" d="M131.902 10.752v6.054c0 1.314-1.117 2.429-2.434 2.429-1.396 0-2.473-1.114-2.473-2.429v-6.014c0-1.394 1.076-2.469 2.473-2.469a2.45 2.45 0 0 1 2.434 2.469z"/>
  <path fill="none" d="M131.902 10.752v6.054c0 1.314-1.117 2.429-2.434 2.429-1.396 0-2.473-1.114-2.473-2.429v-6.014c0-1.394 1.076-2.469 2.473-2.469a2.45 2.45 0 0 1 2.434 2.469z"/>
  <path fill="#fff" d="M70.199 11.35a3.16 3.16 0 0 1 2.233-.916h1.516v2.15h-1.516c-1.316 0-2.313.996-2.313 2.31v6.372h-2.513V10.434h2.473v.876z"/>
  <path fill="none" d="M70.199 11.35a3.16 3.16 0 0 1 2.233-.916h1.516v2.15h-1.516c-1.316 0-2.313.996-2.313 2.31v6.372h-2.513V10.434h2.473v.876z"/>
</svg>
