<svg xmlns="http://www.w3.org/2000/svg" xml:space="preserve" viewBox="0 0 68.478 102.179" role="img" aria-labelledby="title">
  <title id="title">Verkehrszeichen F45 - No exit</title>
  <path fill="#0071b3" d="M8.028 0H60.54c4.377 0 7.938 3.543 7.938 7.929V94.34c0 4.354-3.561 7.839-7.938 7.839H7.968c-4.406 0-7.968-3.545-7.968-7.9l.031-86.35C.031 3.544 3.622 0 8.028 0"/>
  <path fill="none" d="M8.028 0H60.54c4.377 0 7.938 3.544 7.938 7.929V94.34c0 4.354-3.561 7.839-7.938 7.839H7.968c-4.406 0-7.968-3.545-7.968-7.9l.031-86.35C.031 3.544 3.622 0 8.028 0"/>
  <path fill="#00aeef" fill-rule="evenodd" d="M58.337 14.987c-3.984 0-6.459-4.265-4.467-7.688 1.992-3.394 6.941-3.394 8.903 0 1.992 3.424-.482 7.688-4.436 7.688" clip-rule="evenodd"/>
  <path fill="none" d="M58.337 14.987c-3.984 0-6.459-4.265-4.467-7.688 1.992-3.394 6.941-3.394 8.903 0 1.992 3.424-.482 7.688-4.436 7.688"/>
  <path fill="#fff" d="M65.912 94.43c0 2.853-2.322 5.165-5.13 5.165H7.727c-2.837 0-5.13-2.313-5.13-5.165V7.719c0-2.823 2.293-5.166 5.13-5.166h53.055c2.808 0 5.13 2.313 5.13 5.195z"/>
  <path fill="none" d="M65.912 94.43c0 2.853-2.322 5.165-5.13 5.165H7.727c-2.837 0-5.13-2.313-5.13-5.165V7.719c0-2.823 2.293-5.166 5.13-5.166h53.055c2.808 0 5.13 2.313 5.13 5.195z"/>
  <path fill="#0071b3" d="M63.376 94.459c0 1.441-1.206 2.583-2.625 2.583H7.696a2.564 2.564 0 0 1-2.565-2.583V7.689c0-1.412 1.146-2.583 2.565-2.583h53.116a2.563 2.563 0 0 1 2.564 2.583z"/>
  <path fill="none" d="M63.376 94.459c0 1.441-1.206 2.583-2.625 2.583H7.696a2.564 2.564 0 0 1-2.565-2.583V7.689c0-1.412 1.146-2.583 2.565-2.583h53.116a2.563 2.563 0 0 1 2.564 2.583z"/>
  <path fill="#fff" d="M39.686 68.088V86.71h-8.54V35.622h8.54z"/>
  <path fill="none" d="M39.686 68.088V86.71h-8.54V35.622h8.54z"/>
  <path fill="#ed1c24" fill-rule="evenodd" d="M45.722 35.531H25.17v-6.848h20.552z" clip-rule="evenodd"/>
  <path fill="none" d="M45.722 35.531H25.17v-6.848h20.552z"/>
</svg>
