<svg xmlns="http://www.w3.org/2000/svg" xml:space="preserve" viewBox="0 0 79.32 79.4" role="img" aria-labelledby="title">
  <title id="title">Verkehrszeichen F14 - Area where cyclists and drivers of mopeds can wait at an intersection with traffic lights</title>
  <path fill="#0071b3" d="M5.877 0h67.606c3.239.04 5.837 2.639 5.837 5.877v67.727a5.8 5.8 0 0 1-5.797 5.797H5.837C2.598 79.4 0 76.803 0 73.644V5.877A5.82 5.82 0 0 1 5.837.04z"/>
  <path fill="none" d="M5.877 0h67.606c3.239.04 5.837 2.639 5.837 5.877v67.727a5.8 5.8 0 0 1-5.797 5.797H5.837C2.598 79.4 0 76.803 0 73.644V5.877A5.82 5.82 0 0 1 5.837.04z"/>
  <path fill="#fff" d="m5.837 1.439 67.646.04c2.399 0 4.397 1.959 4.397 4.397v67.767c0 2.398-1.998 4.397-4.397 4.397l-67.966-.118c-2.279 0-4.038-1.84-4.038-4.078l-.08-68.007c0-2.399 1.999-4.398 4.438-4.398"/>
  <path fill="none" stroke="#fff" stroke-miterlimit="3.863" stroke-width=".2" d="m5.837 1.439 67.646.04c2.399 0 4.397 1.959 4.397 4.397v67.767c0 2.398-1.998 4.397-4.397 4.397l-67.966-.118c-2.279 0-4.038-1.84-4.038-4.078l-.08-68.007c0-2.399 1.999-4.398 4.438-4.398z"/>
  <path fill="#0071b3" d="m5.837 2.759 67.646.04c1.679 0 3.079 1.399 3.079 3.078v67.767c0 1.679-1.4 3.079-3.079 3.079H5.837c-1.679 0-3.079-1.4-3.079-3.079V5.837c0-1.679 1.4-3.078 3.079-3.078"/>
  <path fill="none" stroke="#0071b3" stroke-miterlimit="3.863" stroke-width=".2" d="m5.837 2.759 67.646.04c1.679 0 3.079 1.399 3.079 3.078v67.767c0 1.679-1.4 3.079-3.079 3.079H5.837c-1.679 0-3.079-1.4-3.079-3.079V5.837c0-1.679 1.4-3.078 3.079-3.078z"/>
  <path fill="#fff" d="M63.688 8.716h7.317v-.76l-8.116-.04v6.157l-25.988-.04v56.492h.88V36.462h19.23v3.759h.84v-6.598h-20.15V16.911h25.228v53.414h.799z"/>
  <path fill="none" d="M63.688 8.716h7.317v-.76l-8.116-.04v6.157l-25.988-.04v56.492h.88V36.462h19.23v3.759h.84v-6.598h-20.15V16.911h25.228v53.414h.799z"/>
  <path fill="#fff" fill-rule="evenodd" d="M57.931 52.895h-.84v-5.718h.84z" clip-rule="evenodd"/>
  <path fill="none" d="M57.931 52.895h-.84v-5.718h.84z"/>
  <path fill="#fff" fill-rule="evenodd" d="M57.851 65.487h-.84V59.77h.84z" clip-rule="evenodd"/>
  <path fill="none" d="M57.851 65.487h-.84V59.77h.84z"/>
  <path fill="#fff" fill-rule="evenodd" d="M62.569 52.774h-.839v-5.717h.839z" clip-rule="evenodd"/>
  <path fill="none" d="M62.569 52.774h-.839v-5.717h.839z"/>
  <path fill="#fff" fill-rule="evenodd" d="M62.569 65.487h-.839V59.77h.839z" clip-rule="evenodd"/>
  <path fill="none" d="M62.569 65.487h-.839V59.77h.839z"/>
  <path fill="#fff" fill-rule="evenodd" d="M62.609 40.341h-.84v-6.797h.84z" clip-rule="evenodd"/>
  <path fill="none" d="M62.609 40.341h-.84v-6.797h.84z"/>
  <path fill="#fff" d="M17.151 70.525h.8V7.916h-7.916v.76h7.116v61.97z"/>
  <path fill="none" d="M17.151 70.525h.8V7.916h-7.916v.76h7.116v61.97z"/>
  <path fill="#fff" d="m45.296 22.149 3.359 2.998c-.16.12-.24.36-.24.56 0 .4.36.801.799.841v.999h-.119v.159h.439v-.159h-.16v-.999c.44 0 .721-.32.801-.721h.439c.08 1.64 1.399 2.959 3.038 2.959 1.679 0 3.039-1.399 3.039-3.079 0-1.639-1.36-3.038-3.039-3.038-.521 0-.999.12-1.399.359l-.879-1.559.239-.44c.04-.12.2-.08.32-.16.04-.08.04-.119.04-.198-.08-.04-.08-.08-.16-.08h-1.199c-.039 0-.039 0-.039.04-.041.04-.041.119 0 .158 0 .04.039.04.039.04h.559c.08 0 .121.04.201.04 0 .04 0 .04.039.04-.039.04.041.08 0 .12l-.119.28h-5.797l.159-.719c.12 0 .24.08.521-.04.119 0 .32-.16.64-.04.04-.04-.04-.04 0-.12 0 0 .04-.04.04-.08-.2-.08-.561-.08-.72.04-.2.08-.44.04-.64.04l-.561 2.478a3.2 3.2 0 0 0-1.079-.199 3.037 3.037 0 0 0-3.038 3.038c0 1.68 1.359 3.079 3.038 3.079 1.64 0 3.039-1.399 3.039-3.079 0-1.238-.76-2.278-1.8-2.759z"/>
  <path fill="none" stroke="#fff" stroke-miterlimit="3.863" stroke-width=".2" d="m45.296 22.149 3.359 2.998c-.16.12-.24.36-.24.56 0 .4.36.801.799.841v.999h-.119v.159h.439v-.159h-.16v-.999c.44 0 .721-.32.801-.721h.439c.08 1.64 1.399 2.959 3.038 2.959 1.679 0 3.039-1.399 3.039-3.079 0-1.639-1.36-3.038-3.039-3.038-.521 0-.999.12-1.399.359l-.879-1.559.239-.44c.04-.12.2-.08.32-.16.04-.08.04-.119.04-.198-.08-.04-.08-.08-.16-.08h-1.199c-.039 0-.039 0-.039.04-.041.04-.041.119 0 .158 0 .04.039.04.039.04h.559c.08 0 .121.04.201.04 0 .04 0 .04.039.04-.039.04.041.08 0 .12l-.119.28h-5.797l.159-.719c.12 0 .24.08.521-.04.119 0 .32-.16.64-.04.04-.04-.04-.04 0-.12 0 0 .04-.04.04-.08-.2-.08-.561-.08-.72.04-.2.08-.44.04-.64.04l-.561 2.478a3.2 3.2 0 0 0-1.079-.199 3.037 3.037 0 0 0-3.038 3.038c0 1.68 1.359 3.079 3.038 3.079 1.64 0 3.039-1.399 3.039-3.079 0-1.238-.76-2.278-1.8-2.759z"/>
  <path fill="none" stroke="#fff" stroke-miterlimit="3.863" stroke-width=".2" d="M43.378 22.47c.16-.04.319-.08.479-.08 1.799 0 3.238 1.519 3.238 3.317v.32"/>
  <path fill="#fff" fill-rule="evenodd" d="M56.332 28.945H41.218v-.24h15.113z" clip-rule="evenodd"/>
  <path fill="none" stroke="#fff" stroke-miterlimit="3.863" stroke-width=".2" d="M56.332 28.945H41.218v-.24h15.113z"/>
  <path fill="#0071b3" d="M44.098 25.348c-.08-.08-.16-.04-.24-.04-.28 0-.479.2-.479.439 0 .24.199.44.479.44.16 0 .36-.12.44-.32h2.279a2.72 2.72 0 0 1-2.72 2.56c-1.519 0-2.759-1.2-2.759-2.72a2.765 2.765 0 0 1 2.759-2.759c.32 0 .681.08 1 .16l-.16.8c-.119.401-.239.919-.599 1.44"/>
  <path fill="none" stroke="#0071b3" stroke-miterlimit="3.863" stroke-width=".2" d="M44.098 25.348c-.08-.08-.16-.04-.24-.04-.28 0-.479.2-.479.439 0 .24.199.44.479.44.16 0 .36-.12.44-.32h2.279a2.72 2.72 0 0 1-2.72 2.56c-1.519 0-2.759-1.2-2.759-2.72a2.765 2.765 0 0 1 2.759-2.759c.32 0 .681.08 1 .16l-.16.8c-.119.401-.239.919-.599 1.44z"/>
  <path fill="#0071b3" d="m45.057 23.229-.199.76c-.12.4-.399 1.199-.64 1.479.039.04.08.119.08.199h2.279c.001-1.118-.64-1.999-1.52-2.438"/>
  <path fill="none" stroke="#fff" stroke-miterlimit="3.863" stroke-width=".2" d="m45.057 23.229-.199.76c-.12.4-.399 1.199-.64 1.479.039.04.08.119.08.199h2.279c.001-1.118-.64-1.999-1.52-2.438z"/>
  <path fill="#0071b3" d="m45.337 21.949.08-.479h5.797l-1.6 3.397c-.08-.04-.16-.079-.24-.04v-.959h.16v-.2h-.439v.2h.08v.959c-.16.04-.24.12-.399.2z"/>
  <path fill="none" stroke="#fff" stroke-miterlimit="3.863" stroke-width=".2" d="m45.337 21.949.08-.479h5.797l-1.6 3.397c-.08-.04-.16-.079-.24-.04v-.959h.16v-.2h-.439v.2h.08v.959c-.16.04-.24.12-.399.2z"/>
  <path fill="#0071b3" d="m54.253 25.388 1.838-.999c.201.399.32.879.32 1.318 0 1.52-1.24 2.8-2.759 2.8-1.479 0-2.679-1.2-2.719-2.68h2.119c.079.28.319.521.6.521.36 0 .64-.28.64-.641a.7.7 0 0 0-.08-.279z"/>
  <path fill="none" stroke="#fff" stroke-miterlimit="3.863" stroke-width=".2" d="m54.253 25.388 1.838-.999c.201.399.32.879.32 1.318 0 1.52-1.24 2.8-2.759 2.8-1.479 0-2.679-1.2-2.719-2.68h2.119c.079.28.319.521.6.521.36 0 .64-.28.64-.641a.7.7 0 0 0-.08-.279z"/>
  <path fill="#0071b3" d="m54.132 25.308 1.88-1.039c-.521-.76-1.359-1.32-2.359-1.32-.44 0-.879.12-1.239.32l1.039 1.879c.08-.04.12-.04.24-.04.16-.001.32.08.439.2"/>
  <path fill="none" stroke="#fff" stroke-miterlimit="3.863" stroke-width=".2" d="m54.132 25.308 1.88-1.039c-.521-.76-1.359-1.32-2.359-1.32-.44 0-.879.12-1.239.32l1.039 1.879c.08-.04.12-.04.24-.04.16-.001.32.08.439.2z"/>
  <path fill="#0071b3" d="m52.253 23.389 1.08 1.879c-.121.08-.201.24-.24.359h-2.198a2.84 2.84 0 0 1 1.319-2.278z"/>
  <path fill="none" stroke="#fff" stroke-miterlimit="3.863" stroke-width=".2" d="m52.253 23.389 1.08 1.879c-.121.08-.201.24-.24.359h-2.198a2.84 2.84 0 0 1 1.319-2.278z"/>
  <path fill="#0071b3" d="m51.294 21.63-1.479 3.317c.2.16.36.44.36.72h.479c.04-1.078.599-2.039 1.439-2.559z"/>
  <path fill="none" stroke="#fff" stroke-miterlimit="3.863" stroke-width=".2" d="m51.294 21.63-1.479 3.317c.2.16.36.44.36.72h.479c.04-1.078.599-2.039 1.439-2.559z"/>
  <path fill="none" stroke="#fff" stroke-miterlimit="3.863" stroke-width=".2" d="M50.455 26.228c-.039-.16-.039-.32-.039-.521 0-1.799 1.479-3.317 3.277-3.317 1.359 0 2.479.839 2.999 1.999"/>
</svg>
