<svg xmlns="http://www.w3.org/2000/svg" xml:space="preserve" viewBox="0 0 79.284 79.363" role="img" aria-labelledby="title">
  <title id="title">Verkehrszeichen F87 - Speed bump</title>
  <path fill="#0071b3" d="M5.959.1h67.405c3.229.04 5.82 2.631 5.82 5.859v67.525a5.784 5.784 0 0 1-5.781 5.779H5.919c-3.229 0-5.82-2.59-5.82-5.739V5.958A5.8 5.8 0 0 1 5.919.139z"/>
  <path fill="none" stroke="#0071b3" stroke-miterlimit="3.863" stroke-width=".199" d="M5.959.1h67.405c3.229.04 5.82 2.631 5.82 5.859v67.525a5.784 5.784 0 0 1-5.781 5.779H5.919c-3.229 0-5.82-2.59-5.82-5.739V5.958A5.8 5.8 0 0 1 5.919.139z"/>
  <path fill="#fff" d="m5.919 1.535 67.445.04c2.392 0 4.385 1.953 4.385 4.384v67.565c0 2.391-1.993 4.385-4.385 4.385L5.6 77.789c-2.272 0-4.026-1.834-4.026-4.066L1.496 5.918c0-2.39 1.992-4.383 4.423-4.383"/>
  <path fill="none" stroke="#fff" stroke-miterlimit="3.863" stroke-width=".199" d="m5.919 1.535 67.445.04c2.392 0 4.385 1.953 4.385 4.384v67.565c0 2.391-1.993 4.385-4.385 4.385L5.6 77.789c-2.272 0-4.026-1.834-4.026-4.066L1.496 5.918c0-2.39 1.992-4.383 4.423-4.383z"/>
  <path fill="#0071b3" d="m5.919 2.85 67.445.04c1.674 0 3.068 1.395 3.068 3.069v67.565c0 1.674-1.395 3.069-3.068 3.069H5.919c-1.674 0-3.069-1.396-3.069-3.069V5.918C2.851 4.245 4.246 2.85 5.919 2.85"/>
  <path fill="none" stroke="#0071b3" stroke-miterlimit="3.863" stroke-width=".199" d="m5.919 2.85 67.445.04c1.674 0 3.068 1.395 3.068 3.069v67.565c0 1.674-1.395 3.069-3.068 3.069H5.919c-1.674 0-3.069-1.396-3.069-3.069V5.918C2.851 4.245 4.246 2.85 5.919 2.85z"/>
  <path fill="#fff" fill-rule="evenodd" d="m8.55 66.628 31.093-53.853 31.091 53.853z" clip-rule="evenodd"/>
  <path fill="none" d="m8.55 66.628 31.093-53.853 31.091 53.853z"/>
  <path fill="#120c0e" d="m56.383 59.692 6.498-.04-.04 3.468H16.522v-3.468h6.458a9 9 0 0 0 7.254-3.667 11.84 11.84 0 0 1 9.447-4.664c3.867 0 7.294 1.834 9.448 4.704a9 9 0 0 0 7.254 3.667"/>
  <path fill="none" d="m56.383 59.692 6.498-.04-.04 3.468H16.522v-3.468h6.458a9 9 0 0 0 7.254-3.667 11.84 11.84 0 0 1 9.447-4.664c3.867 0 7.294 1.834 9.448 4.704a9 9 0 0 0 7.254 3.667"/>
</svg>
