<svg xmlns="http://www.w3.org/2000/svg" xml:space="preserve" viewBox="-.105 0 111.064 170.576" role="img" aria-labelledby="title">
  <title id="title">Verkehrszeichen F1b - F1b</title>
  <path d="M2.064 7.66v155.296c0 3.167 2.783 5.692 6.217 5.692h94.34c3.434 0 6.258-2.525 6.258-5.691V7.66c0-3.166-2.782-5.691-6.216-5.691H8.28c-3.433-.001-6.215 2.524-6.215 5.69"/>
  <path fill="none" stroke="#000" stroke-miterlimit="3.863" stroke-width=".208" d="M2.064 7.66v155.296c0 3.167 2.783 5.692 6.217 5.692h94.34c3.434 0 6.258-2.525 6.258-5.691V7.66c0-3.166-2.782-5.691-6.216-5.691H8.28c-3.433-.001-6.215 2.524-6.215 5.69z"/>
  <path fill="#fff" d="M107.01 162.957V7.62c0-2.206-2.042-3.97-4.433-3.97H8.192c-2.39 0-4.302 1.725-4.302 3.928v155.458c0 2.205 1.87 3.889 4.26 3.889h94.562c2.386-.001 4.299-1.764 4.299-3.97"/>
  <path fill="none" stroke="#000" stroke-miterlimit="3.863" stroke-width=".208" d="M107.01 162.957V7.62c0-2.204-2.042-3.97-4.433-3.97H8.194c-2.391 0-4.305 1.725-4.305 3.928v155.458c0 2.205 1.869 3.89 4.26 3.89h94.56c2.392-.002 4.302-1.765 4.302-3.97z"/>
  <path fill="none" stroke="#000" stroke-miterlimit="3.863" stroke-width=".208" d="M8.258 170.472h94.385c4.564 0 8.213-3.325 8.213-7.534V7.64c0-4.21-3.739-7.536-8.302-7.536H8.214C3.651.104 0 3.471 0 7.68v155.297c0 4.21 3.694 7.494 8.259 7.494z"/>
  <path d="M6.65 110.476c0-18.875.088-34.322.193-34.328.107-.004 2.484 1.602 5.285 3.574l5.092 3.582V90c0 4.544.092 6.698.283 6.698.156 0 3.754-1.84 7.992-4.088l7.709-4.088-.035-7.561c-.02-4.158-.107-12.07-.195-17.582l-.158-10.02 4.195-10.896c2.307-5.994 4.246-10.898 4.31-10.898s2.149 4.727 4.636 10.504l4.52 10.504v50.375l3.969-7.703 3.969-7.701 3.383 9.836 3.38 9.838h5.406v3.508h5.414v20.04h3.097l.007-11.647.008-11.648 8.297-8.518c4.564-4.686 10.13-10.393 12.367-12.682l4.068-4.162v62.686H6.652v-34.32z"/>
</svg>
