<svg xmlns="http://www.w3.org/2000/svg" viewBox="0 0 70.556 105.022" role="img" aria-labelledby="title">
  <title id="title">Verkehrszeichen F98 - &quot;Vluchthaven&quot;/&quot;Garage&quot;: where you can stop along the road in case of emergency</title>
  <path d="M8.349 618.759h54.798l.81.115 1.503.463 1.387.694 1.272 1.04 1.04 1.272.694 1.388.462 1.503.232 1.619v88.684l-.232 1.619-.462 1.503-.694 1.387-1.04 1.157-1.272 1.04-1.387.694-1.503.463-1.619.23H8.233l-1.619-.23-1.503-.463-1.387-.694-1.272-1.04-.924-1.157-.81-1.387-.23-.81-.232-.693-.116-.81v-90.303l.116-.81.462-1.502.81-1.388 1.04-1.272 1.156-1.04 1.387-.694.81-.231.809-.232.81-.115z" style="fill:#007ce3;fill-opacity:1;fill-rule:nonzero;stroke:none" transform="translate(-.065 -618.684)"/>
  <path d="M8.349 618.759h54.798l.81.115 1.503.463 1.387.694 1.272 1.04 1.04 1.272.694 1.388.462 1.503.232 1.619v88.684l-.232 1.619-.462 1.503-.694 1.387-1.04 1.157-1.272 1.04-1.387.694-1.503.463-1.619.23H8.233l-1.619-.23-1.503-.463-1.387-.694-1.272-1.04-.924-1.157-.81-1.387-.23-.81-.232-.693-.116-.81v-90.303l.116-.81.462-1.502.81-1.388 1.04-1.272 1.156-1.04 1.387-.694.81-.231.809-.232.81-.115z" style="fill:#0071b3;fill-opacity:1;stroke:#007ce3;stroke-width:.14999999;stroke-linecap:butt;stroke-linejoin:miter;stroke-miterlimit:10;stroke-opacity:1;stroke-dasharray:none" transform="translate(-.065 -618.684)"/>
  <path d="m67.656 715.421-.115 1.041-.347 1.04-.463.926-.578.693-.809.694-.925.463-.925.347-1.04.115H8.233l-1.04-.115-1.041-.347-.81-.463-.809-.694-.693-.693-.463-.925-.347-1.041v-90.65l.347-1.04.463-.81.693-.81.81-.693.809-.463 1.04-.231 1.04-.231h54.222l1.04.115.925.347.925.463.81.694.577.809.463.81.347 1.04.115 1.04z" style="fill:#fff;fill-opacity:1;fill-rule:nonzero;stroke:none" transform="translate(-.065 -618.684)"/>
  <path d="m67.656 715.421-.115 1.041-.347 1.04-.463.926-.578.693-.809.694-.925.463-.925.347-1.04.115H8.233l-1.04-.115-1.041-.347-.81-.463-.809-.694-.693-.693-.463-.925-.347-1.041v-90.65l.347-1.04.463-.81.693-.81.81-.693.809-.463 1.04-.231 1.04-.231h54.222l1.04.115.925.347.925.463.81.694.577.809.463.81.347 1.04.115 1.04z" style="fill:none;stroke:#fff;stroke-width:.14999999;stroke-linecap:butt;stroke-linejoin:miter;stroke-miterlimit:10;stroke-opacity:1;stroke-dasharray:none" transform="translate(-.065 -618.684)"/>
  <path d="m65.344 715.884-.116.578-.115.463-.578.925-.925.462-.463.231H7.424l-.578-.231-.81-.462-.23-.463-.348-.462-.115-1.041V626.39l.115-1.04.578-.81.81-.578 1.04-.231h54.8l1.04.23.809.579.578.81.115.578.116.462z" style="fill:#0071b3;fill-opacity:1;fill-rule:nonzero;stroke:none" transform="translate(-.065 -618.684)"/>
  <path d="m65.344 715.884-.116.578-.115.463-.578.925-.925.462-.463.231H7.424l-.578-.231-.81-.462-.23-.463-.348-.462-.115-1.041V626.39l.115-1.04.578-.81.81-.578 1.04-.231h54.8l1.04.23.809.579.578.81.115.578.116.462z" style="fill:none;stroke:#007ce3;stroke-width:.14999999;stroke-linecap:butt;stroke-linejoin:miter;stroke-miterlimit:10;stroke-opacity:1;stroke-dasharray:none" transform="translate(-.065 -618.684)"/>
  <path d="M59.91 634.484h-.693l-.81-.116-1.271-.578-1.04-.81-.81-1.04-.462-1.272-.116-.578-.116-.694.232-1.387.23-.694.232-.578.462-.694.463-.462 1.156-.81 1.156-.462 1.387-.231 1.272.23 1.272.463 1.04.81.925 1.156.578 1.272.116 1.387-.116 1.272-.578 1.272-.81 1.04-1.04.81-1.271.578-.694.116z" style="fill:#fff;fill-opacity:1;fill-rule:evenodd;stroke:none" transform="translate(-.065 -618.684)"/>
  <path d="M59.91 634.484h-.693l-.81-.116-1.271-.578-1.04-.81-.81-1.04-.462-1.272-.116-.578-.116-.694.232-1.387.23-.694.232-.578.462-.694.463-.462 1.156-.81 1.156-.462 1.387-.231 1.272.23 1.272.463 1.04.81.925 1.156.578 1.272.116 1.387-.116 1.272-.578 1.272-.81 1.04-1.04.81-1.271.578-.694.116z" style="fill:none;stroke:#fff;stroke-width:.14999999;stroke-linecap:butt;stroke-linejoin:miter;stroke-miterlimit:10;stroke-opacity:1;stroke-dasharray:none" transform="translate(-.065 -618.684)"/>
  <path d="M17.829 718.543h35.03v-94.812h-35.03z" style="fill:#fff;fill-opacity:1;fill-rule:evenodd;stroke:none" transform="translate(-.065 -618.684)"/>
  <path d="M35.448 641.627h1.156v-4.74h-1.156z" style="fill:#000;fill-opacity:1;fill-rule:nonzero;stroke:none" transform="translate(-.065 -618.684)"/>
  <path d="M35.448 641.627h1.156v-4.74h-1.156z" style="fill:none;stroke:#000;stroke-width:.14999999;stroke-linecap:butt;stroke-linejoin:miter;stroke-miterlimit:10;stroke-opacity:1;stroke-dasharray:none" transform="translate(-.065 -618.684)"/>
  <path d="M35.448 648.911h1.156v-4.856h-1.156z" style="fill:#000;fill-opacity:1;fill-rule:nonzero;stroke:none" transform="translate(-.065 -618.684)"/>
  <path d="M35.448 648.911h1.156v-4.856h-1.156z" style="fill:none;stroke:#000;stroke-width:.14999999;stroke-linecap:butt;stroke-linejoin:miter;stroke-miterlimit:10;stroke-opacity:1;stroke-dasharray:none" transform="translate(-.065 -618.684)"/>
  <path d="M35.448 656.08h1.156v-4.856h-1.156z" style="fill:#000;fill-opacity:1;fill-rule:nonzero;stroke:none" transform="translate(-.065 -618.684)"/>
  <path d="M35.448 656.08h1.156v-4.856h-1.156z" style="fill:none;stroke:#000;stroke-width:.14999999;stroke-linecap:butt;stroke-linejoin:miter;stroke-miterlimit:10;stroke-opacity:1;stroke-dasharray:none" transform="translate(-.065 -618.684)"/>
  <path d="M35.448 663.249h1.156v-4.74h-1.156z" style="fill:#000;fill-opacity:1;fill-rule:nonzero;stroke:none" transform="translate(-.065 -618.684)"/>
  <path d="M35.448 663.249h1.156v-4.74h-1.156z" style="fill:none;stroke:#000;stroke-width:.14999999;stroke-linecap:butt;stroke-linejoin:miter;stroke-miterlimit:10;stroke-opacity:1;stroke-dasharray:none" transform="translate(-.065 -618.684)"/>
  <path d="M35.448 670.418h1.156v-4.74h-1.156z" style="fill:#000;fill-opacity:1;fill-rule:nonzero;stroke:none" transform="translate(-.065 -618.684)"/>
  <path d="M35.448 670.418h1.156v-4.74h-1.156z" style="fill:none;stroke:#000;stroke-width:.14999999;stroke-linecap:butt;stroke-linejoin:miter;stroke-miterlimit:10;stroke-opacity:1;stroke-dasharray:none" transform="translate(-.065 -618.684)"/>
  <path d="M35.448 677.702h1.156v-4.856h-1.156z" style="fill:#000;fill-opacity:1;fill-rule:nonzero;stroke:none" transform="translate(-.065 -618.684)"/>
  <path d="M35.448 677.702h1.156v-4.856h-1.156z" style="fill:none;stroke:#000;stroke-width:.14999999;stroke-linecap:butt;stroke-linejoin:miter;stroke-miterlimit:10;stroke-opacity:1;stroke-dasharray:none" transform="translate(-.065 -618.684)"/>
  <path d="M35.448 684.87h1.156v-4.855h-1.156z" style="fill:#000;fill-opacity:1;fill-rule:nonzero;stroke:none" transform="translate(-.065 -618.684)"/>
  <path d="M35.448 684.87h1.156v-4.855h-1.156z" style="fill:none;stroke:#000;stroke-width:.14999999;stroke-linecap:butt;stroke-linejoin:miter;stroke-miterlimit:10;stroke-opacity:1;stroke-dasharray:none" transform="translate(-.065 -618.684)"/>
  <path d="M35.448 692.04h1.156v-4.741h-1.156z" style="fill:#000;fill-opacity:1;fill-rule:nonzero;stroke:none" transform="translate(-.065 -618.684)"/>
  <path d="M35.448 692.04h1.156v-4.741h-1.156z" style="fill:none;stroke:#000;stroke-width:.14999999;stroke-linecap:butt;stroke-linejoin:miter;stroke-miterlimit:10;stroke-opacity:1;stroke-dasharray:none" transform="translate(-.065 -618.684)"/>
  <path d="M35.448 699.208h1.156v-4.74h-1.156z" style="fill:#000;fill-opacity:1;fill-rule:nonzero;stroke:none" transform="translate(-.065 -618.684)"/>
  <path d="M35.448 699.208h1.156v-4.74h-1.156z" style="fill:none;stroke:#000;stroke-width:.14999999;stroke-linecap:butt;stroke-linejoin:miter;stroke-miterlimit:10;stroke-opacity:1;stroke-dasharray:none" transform="translate(-.065 -618.684)"/>
  <path d="M35.448 706.493h1.156v-4.856h-1.156z" style="fill:#000;fill-opacity:1;fill-rule:nonzero;stroke:none" transform="translate(-.065 -618.684)"/>
  <path d="M35.448 706.493h1.156v-4.856h-1.156z" style="fill:none;stroke:#000;stroke-width:.14999999;stroke-linecap:butt;stroke-linejoin:miter;stroke-miterlimit:10;stroke-opacity:1;stroke-dasharray:none" transform="translate(-.065 -618.684)"/>
  <path d="M39.91 657.724h1.272l.115.579.116.578.231.462.347.347.925.463 1.04.23 1.04-.115.926-.347.346-.347.347-.346.232-.347v-1.04l-.232-.463-.347-.347-.462-.232-1.04-.346-1.157-.232-1.271-.347-1.04-.462-.463-.463-.347-.462-.231-.578v-1.388l.231-.693.347-.579.462-.462.463-.347.693-.231.578-.231h1.503l.81.115.693.347.694.347.462.462.347.579.231.809.116.81h-1.272l-.115-.579-.116-.462-.347-.347-.347-.347-.809-.347-1.156-.116h-.462l-.347.116-.694.463-.462.578-.116.578v.578l.231.347.347.231.463.231 1.04.347 1.156.231 1.272.347.578.232.462.346.463.463.347.462.115.694.116.81-.116.809-.231.694-.462.578-.578.462-.694.347-.694.231-1.503.116h-.809l-.81-.231-.693-.231-.578-.463-.462-.578-.463-.578-.231-.81z" style="fill:#000;fill-opacity:1;fill-rule:evenodd;stroke:none" transform="translate(-.065 -618.684)"/>
  <path d="M39.91 657.724h1.272l.115.579.116.578.231.462.347.347.925.463 1.04.23 1.04-.115.926-.347.346-.347.347-.346.232-.347v-1.04l-.232-.463-.347-.347-.462-.232-1.04-.346-1.157-.232-1.271-.347-1.04-.462-.463-.463-.347-.462-.231-.578v-1.388l.231-.693.347-.579.462-.462.463-.347.693-.231.578-.231h1.503l.81.115.693.347.694.347.462.462.347.579.231.809.116.81h-1.272l-.115-.579-.116-.462-.347-.347-.347-.347-.809-.347-1.156-.116h-.462l-.347.116-.694.463-.462.578-.116.578v.578l.231.347.347.231.463.231 1.04.347 1.156.231 1.272.347.578.232.462.346.463.463.347.462.115.694.116.81-.116.809-.231.694-.462.578-.578.462-.694.347-.694.231-1.503.116h-.809l-.81-.231-.693-.231-.578-.463-.462-.578-.463-.578-.231-.81z" style="fill:none;stroke:#000;stroke-width:.14999999;stroke-linecap:butt;stroke-linejoin:miter;stroke-miterlimit:10;stroke-opacity:1;stroke-dasharray:none" transform="translate(-.065 -618.684)"/>
  <path d="m44.072 677.034-1.156-.116-1.04-.347-.81-.462-.81-.694-.577-.81-.347-1.04-.231-1.156-.116-1.156.116-1.272.23-1.04.348-1.042.578-.809.809-.694.81-.578 1.04-.231 1.156-.116 1.156.116 1.04.231.81.578.693.694.694.81.347 1.04.231 1.04.116 1.273-.116 1.156-.231 1.156-.347 1.04-.694.81-.693.694-.81.462-1.04.347zm0-1.272-.925-.116-.694-.23-.693-.463-.463-.579-.347-.578-.23-.809-.232-.925v-1.734l.231-.81.231-.81.347-.693.463-.578.693-.347.694-.231.925-.116.925.116.693.231.578.347.579.578.346.694.232.81.23.809v1.734l-.23.925-.232.81-.346.577-.579.579-.578.462-.693.231z" style="fill:#000;fill-opacity:1;fill-rule:evenodd;stroke:none" transform="translate(-.065 -618.684)"/>
  <path d="m44.072 677.034-1.156-.116-1.04-.347-.81-.462-.81-.694-.577-.81-.347-1.04-.231-1.156-.116-1.156.116-1.272.23-1.04.348-1.042.578-.809.809-.694.81-.578 1.04-.231 1.156-.116 1.156.116 1.04.231.81.578.693.694.694.81.347 1.04.231 1.04.116 1.273-.116 1.156-.231 1.156-.347 1.04-.694.81-.693.694-.81.462-1.04.347z" style="fill:none;stroke:#000;stroke-width:.14999999;stroke-linecap:butt;stroke-linejoin:miter;stroke-miterlimit:10;stroke-opacity:1;stroke-dasharray:none" transform="translate(-.065 -618.684)"/>
  <path d="m44.072 675.762-.925-.116-.694-.23-.693-.463-.463-.579-.347-.578-.23-.809-.232-.925v-1.734l.231-.81.231-.81.347-.693.463-.578.693-.347.694-.231.925-.116.925.116.693.231.578.347.579.578.346.694.232.81.23.809v1.734l-.23.925-.232.81-.346.577-.579.579-.578.462-.693.231z" style="fill:none;stroke:#000;stroke-width:.14999999;stroke-linecap:butt;stroke-linejoin:miter;stroke-miterlimit:10;stroke-opacity:1;stroke-dasharray:none" transform="translate(-.065 -618.684)"/>
  <path d="M39.91 688.365h1.272l.115.578.116.578.231.463.347.347.925.578 1.04.116 1.04-.116.926-.347.346-.231.347-.347.232-.463v-1.04l-.232-.463-.347-.231-.462-.347-1.04-.347-1.157-.231-1.271-.347-1.04-.462-.463-.347-.347-.463-.231-.578v-1.503l.231-.578.347-.578.462-.463.463-.462.693-.232.578-.115.694-.116.81.116.809.115.693.232.694.347.462.462.347.694.231.694.116.809h-1.272l-.115-.578-.116-.463-.347-.347-.347-.346-.809-.347-1.156-.116h-.462l-.347.116-.694.462-.462.578-.116.694v.463l.231.346.347.347.463.232 1.04.23 1.156.232 1.272.347.578.347.462.231.463.463.347.578.115.578.116.81-.116.924-.231.694-.462.578-.578.347-.694.347-.694.231-1.503.231-.809-.115-.81-.116-.693-.347-.578-.462-.462-.463-.463-.693-.231-.81z" style="fill:#000;fill-opacity:1;fill-rule:evenodd;stroke:none" transform="translate(-.065 -618.684)"/>
  <path d="M39.91 688.365h1.272l.115.578.116.578.231.463.347.347.925.578 1.04.116 1.04-.116.926-.347.346-.231.347-.347.232-.463v-1.04l-.232-.463-.347-.231-.462-.347-1.04-.347-1.157-.231-1.271-.347-1.04-.462-.463-.347-.347-.463-.231-.578v-1.503l.231-.578.347-.578.462-.463.463-.462.693-.232.578-.115.694-.116.81.116.809.115.693.232.694.347.462.462.347.694.231.694.116.809h-1.272l-.115-.578-.116-.463-.347-.347-.347-.346-.809-.347-1.156-.116h-.462l-.347.116-.694.462-.462.578-.116.694v.463l.231.346.347.347.463.232 1.04.23 1.156.232 1.272.347.578.347.462.231.463.463.347.578.115.578.116.81-.116.924-.231.694-.462.578-.578.347-.694.347-.694.231-1.503.231-.809-.115-.81-.116-.693-.347-.578-.462-.462-.463-.463-.694-.231-.809z" style="fill:none;stroke:#000;stroke-width:.14999999;stroke-linecap:butt;stroke-linejoin:miter;stroke-miterlimit:10;stroke-opacity:1;stroke-dasharray:none" transform="translate(-.065 -618.684)"/>
  <path d="m65.344 716.027-.116.58-.115.463-.578.811-.925.58-.463.115-.578.116-27.283-.116v-12.05l17.572-10.081V646.85L35.286 636.77v-13.094h27.4l1.04.232.809.579.578.811.115.464.116.579z" style="fill:#0071b3;fill-opacity:1;fill-rule:nonzero;stroke:none" transform="translate(-.065 -618.684)"/>
</svg>
