<svg xmlns="http://www.w3.org/2000/svg" xml:space="preserve" viewBox="0 0 101.961 79.401" role="img" aria-labelledby="title">
  <title id="title">Verkehrszeichen F18 - Traffic signs lose their meaning F17 (text) Replaced by F17(symbol) on 01/01/2027 wegcode.be Indicating lanes reserved for public transport vehicles</title>
  <path fill="#007dc5" d="M.1 7.836C.1 6.4.578 4.565 1.376 3.528 1.854 2.97 2.652 1.934 4.167.977 5.283.258 7.437.1 7.676.1h86.529c.717 0 3.03.08 5.264 2.073 1.754 1.516 2.393 3.908 2.393 5.345v64.605c0 1.355-.24 3.031-2.313 5.185-1.516 1.595-3.828 1.994-4.945 1.994H6.958c-1.037 0-2.632-.559-3.748-1.436C.578 75.872.1 73.24.1 71.884z"/>
  <path fill="none" stroke="#007dc5" stroke-miterlimit="3.863" stroke-width=".199" d="M.1 7.836C.1 6.4.578 4.565 1.376 3.528 1.854 2.97 2.652 1.934 4.167.977 5.283.258 7.437.1 7.676.1h86.529c.717 0 3.03.08 5.264 2.073 1.754 1.516 2.393 3.908 2.393 5.345v64.605c0 1.355-.24 3.031-2.313 5.185-1.516 1.595-3.828 1.994-4.945 1.994H6.958c-1.037 0-2.632-.559-3.748-1.436C.578 75.872.1 73.24.1 71.884z"/>
  <path fill="#fff" d="M2.014 7.597c0-1.356 1.036-3.351 1.674-3.988 1.516-1.516 3.589-1.675 3.988-1.675h86.608c1.037 0 2.951.479 3.987 1.595.559.718 1.755 2.473 1.755 3.829v65.005c0 1.276-1.196 2.792-1.675 3.43-1.355 1.355-3.35 1.595-3.748 1.595H7.437c-.479 0-2.552-.159-4.068-1.914-.638-.638-1.355-2.712-1.355-3.749z"/>
  <path fill="none" stroke="#fff" stroke-miterlimit="3.863" stroke-width=".199" d="M2.014 7.597c0-1.356 1.036-3.351 1.674-3.988 1.516-1.516 3.589-1.675 3.988-1.675h86.608c1.037 0 2.951.479 3.987 1.595.559.718 1.755 2.473 1.755 3.829v65.005c0 1.276-1.196 2.792-1.675 3.43-1.355 1.355-3.35 1.595-3.748 1.595H7.437c-.479 0-2.552-.159-4.068-1.914-.638-.638-1.355-2.712-1.355-3.749z"/>
  <path fill="#007dc5" d="M3.688 7.676c0-1.355.559-2.073 1.197-2.87.877-1.037 2.392-1.117 2.791-1.117h86.688c.957 0 1.834.238 2.871 1.355.558.639 1.036 1.596 1.036 2.871v63.729c0 1.116-.238 2.073-.797 2.632-1.276 1.276-2.553 1.436-2.871 1.436H7.596c-.399 0-1.435 0-2.632-1.037-.717-.638-1.276-1.515-1.276-2.472z"/>
  <path fill="none" stroke="#007dc5" stroke-miterlimit="3.863" stroke-width=".199" d="M3.688 7.676c0-1.355.559-2.073 1.197-2.87.877-1.037 2.392-1.117 2.791-1.117h86.688c.957 0 1.834.238 2.871 1.355.558.639 1.036 1.596 1.036 2.871v63.729c0 1.116-.238 2.073-.797 2.632-1.276 1.276-2.553 1.436-2.871 1.436H7.596c-.399 0-1.435 0-2.632-1.037-.717-.638-1.276-1.515-1.276-2.472z"/>
  <path fill="#fff" fill-rule="evenodd" d="M32.198 72.323h-3.469V6.641h3.469z" clip-rule="evenodd"/>
  <path fill="none" stroke="#fff" stroke-miterlimit="3.863" stroke-width=".199" d="M32.198 72.323h-3.469V6.641h3.469z"/>
  <path fill="#fff" fill-rule="evenodd" d="M73.271 72.323h-3.47V6.641h3.47z" clip-rule="evenodd"/>
  <path fill="none" stroke="#fff" stroke-miterlimit="3.863" stroke-width=".199" d="M73.271 72.323h-3.47V6.641h3.47z"/>
  <path fill="#fff" fill-rule="evenodd" d="M56.801 18.604V9.271H53.93V7.277h7.816v1.994h-2.871v9.333z" clip-rule="evenodd"/>
  <path fill="none" stroke="#fff" stroke-miterlimit="3.863" stroke-width=".199" d="M56.801 18.604V9.271H53.93V7.277h7.816v1.994h-2.871v9.333z"/>
  <path fill="#fff" d="m62.703 60.957.08 11.166h-1.994v-6.062l-1.914 6.062h-1.914l-2.074-6.221v6.221h-1.914V60.957l2.393.079 2.632 7.578 2.393-7.657z"/>
  <path fill="none" stroke="#fff" stroke-miterlimit="3.863" stroke-width=".199" d="m62.703 60.957.08 11.166h-1.994v-6.062l-1.914 6.062h-1.914l-2.074-6.221v6.221h-1.914V60.957l2.393.079 2.632 7.578 2.393-7.657z"/>
  <path fill="#fff" d="m59.274 31.285 2.632 4.866h-2.473l-2.553-4.706h-.957v4.786h-2.072V24.904h4.943c.319.08 2.553.559 2.633 3.19.001 1.038-.319 2.474-2.153 3.191"/>
  <path fill="none" stroke="#fff" stroke-miterlimit="3.863" stroke-width=".199" d="m59.274 31.285 2.632 4.866h-2.473l-2.553-4.706h-.957v4.786h-2.072V24.904h4.943c.319.08 2.553.559 2.633 3.19.001 1.038-.319 2.474-2.153 3.191z"/>
  <path fill="#007dc5" d="M58.317 29.531h-2.394v-2.712h2.394c.797.08 1.036.797 1.036 1.195v.239c.001.48-.239 1.118-1.036 1.278"/>
  <path fill="none" stroke="#007dc5" stroke-miterlimit="3.863" stroke-width=".199" d="M58.317 29.531h-2.394v-2.712h2.394c.797.08 1.036.797 1.036 1.195v.239c.001.48-.239 1.118-1.036 1.278z"/>
  <path fill="#fff" d="m58.875 43.09 3.35 11.087h-2.234l-.477-1.516h-3.43l-.398 1.516h-2.234l3.271-11.087z"/>
  <path fill="none" stroke="#fff" stroke-miterlimit="3.863" stroke-width=".199" d="m58.875 43.09 3.35 11.087h-2.234l-.477-1.516h-3.43l-.398 1.516h-2.234l3.271-11.087z"/>
  <path fill="#007dc5" d="M59.034 50.747h-2.391l1.195-3.908z"/>
  <path fill="none" stroke="#007dc5" stroke-miterlimit="3.863" stroke-width=".199" d="M59.034 50.747h-2.391l1.195-3.908z"/>
  <path fill="#fff" fill-rule="evenodd" d="M40.532 27.616V16.37h4.546c1.755 0 3.19 1.356 3.19 2.871 0 .718 0 1.835-1.276 2.473 1.276.798 1.196.798 1.436 2.474.319 1.834-1.356 3.429-3.19 3.429z" clip-rule="evenodd"/>
  <path fill="none" stroke="#fff" stroke-miterlimit="3.863" stroke-width=".199" d="M40.532 27.616V16.37h4.546c1.755 0 3.19 1.356 3.19 2.871 0 .718 0 1.835-1.276 2.473 1.276.798 1.196.798 1.436 2.474.319 1.834-1.356 3.429-3.19 3.429z"/>
  <path fill="#007dc5" fill-rule="evenodd" d="M42.526 25.941v-3.11h2.313c.957 0 1.515.398 1.515 1.595 0 1.117-.558 1.516-1.515 1.516h-2.313z" clip-rule="evenodd"/>
  <path fill="none" stroke="#fff" stroke-miterlimit="3.863" stroke-width=".199" d="M42.526 25.941v-3.11h2.313c.957 0 1.515.398 1.515 1.595 0 1.117-.558 1.516-1.515 1.516h-2.313z"/>
  <path fill="#007dc5" fill-rule="evenodd" d="M42.526 20.996v-2.712h1.914c.798 0 1.675.24 1.675 1.355 0 1.117-.877 1.356-1.675 1.356z" clip-rule="evenodd"/>
  <path fill="none" stroke="#fff" stroke-miterlimit="3.863" stroke-width=".199" d="M42.526 20.996v-2.712h1.914c.798 0 1.675.24 1.675 1.355 0 1.117-.877 1.356-1.675 1.356z"/>
  <path fill="#fff" fill-rule="evenodd" d="M44.601 46.44c-2.233 0-3.988-1.516-3.988-4.068v-7.258h1.994v7.178c0 1.835 1.037 2.313 1.914 2.393.797 0 1.834-.478 1.834-2.393v-7.178h1.994v7.258c0 2.553-1.596 4.068-3.748 4.068" clip-rule="evenodd"/>
  <path fill="none" stroke="#fff" stroke-miterlimit="3.863" stroke-width=".199" d="M44.601 46.44c-2.233 0-3.988-1.516-3.988-4.068v-7.258h1.994v7.178c0 1.835 1.037 2.313 1.914 2.393.797 0 1.834-.478 1.834-2.393v-7.178h1.994v7.258c0 2.553-1.596 4.068-3.748 4.068z"/>
  <path fill="#fff" fill-rule="evenodd" d="M40.772 61.515h1.993c0 1.596 1.436 1.356 1.675 1.356 1.675 0 1.675-.479 1.755-.878.159-.717-1.516-1.516-2.951-2.473-1.675-1.036-1.914-1.196-2.233-2.393-.479-1.994 1.595-3.589 3.27-3.589 1.993 0 3.668.718 3.668 3.031h-1.834c.08-.639-.399-.957-1.595-.957-.479 0-1.595 0-1.595.877.08 1.355 5.423 2.632 5.263 5.184-.159 2.234-1.515 3.111-3.588 3.191-2.074.001-3.828-.877-3.828-3.349" clip-rule="evenodd"/>
  <path fill="none" stroke="#fff" stroke-miterlimit="3.863" stroke-width=".199" d="M40.772 61.515h1.993c0 1.596 1.436 1.356 1.675 1.356 1.675 0 1.675-.479 1.755-.878.159-.717-1.516-1.516-2.951-2.473-1.675-1.036-1.914-1.196-2.233-2.393-.479-1.994 1.595-3.589 3.27-3.589 1.993 0 3.668.718 3.668 3.031h-1.834c.08-.639-.399-.957-1.595-.957-.479 0-1.595 0-1.595.877.08 1.355 5.423 2.632 5.263 5.184-.159 2.234-1.515 3.111-3.588 3.191-2.074.001-3.828-.877-3.828-3.349z"/>
  <path fill="#fff" fill-rule="evenodd" d="m15.89 56.091-5.344-11.007h3.27l.08-22.812 3.509-.079v22.891h3.748z" clip-rule="evenodd"/>
  <path fill="none" stroke="#fff" stroke-miterlimit="3.863" stroke-width=".199" d="m15.89 56.091-5.344-11.007h3.27l.08-22.812 3.509-.079v22.891h3.748z"/>
  <path fill="#fff" fill-rule="evenodd" d="m85.911 22.272-5.344 11.007h3.271l.079 22.812 3.509.08V33.279h3.748z" clip-rule="evenodd"/>
  <path fill="none" stroke="#fff" stroke-miterlimit="3.863" stroke-width=".199" d="m85.911 22.272-5.344 11.007h3.271l.079 22.812 3.509.08V33.279h3.748z"/>
</svg>
