<svg xmlns="http://www.w3.org/2000/svg" viewBox="0 0 69.501 103.848" role="img" aria-labelledby="title">
  <title id="title">Verkehrszeichen F56 - Fire extinguisher</title>
  <path d="M137.359 607.137h54.029l.806.115 1.498.461 1.382.691 1.267 1.037.922 1.153.806 1.382.461 1.498.115 1.613v87.798l-.115 1.613-.46 1.498-.807 1.382-.922 1.152-1.267.922-1.382.807-1.498.46-1.613.116H137.36l-1.728-.115-1.498-.461-1.382-.807-1.152-.922-1.037-1.267-.691-1.267-.23-.807-.231-.691-.115-.807v-89.41l.115-.807.46-1.498.807-1.382.922-1.153 1.267-1.037 1.382-.69.691-.231.807-.23.806-.116z" style="fill:#007ce3;fill-opacity:1;fill-rule:nonzero;stroke:none" transform="translate(-129.22 -607.062)"/>
  <path d="M137.359 607.137h54.029l.806.115 1.498.461 1.382.691 1.267 1.037.922 1.153.806 1.382.461 1.498.115 1.613v87.798l-.115 1.613-.46 1.498-.807 1.382-.922 1.152-1.267.922-1.382.807-1.498.46-1.613.116H137.36l-1.728-.115-1.498-.461-1.382-.807-1.152-.922-1.037-1.267-.691-1.267-.23-.807-.231-.691-.115-.807v-89.41l.115-.807.46-1.498.807-1.382.922-1.153 1.267-1.037 1.382-.69.691-.231.807-.23.806-.116z" style="fill:#0071b3;fill-opacity:1;stroke:#007ce3;stroke-width:.14999999;stroke-linecap:butt;stroke-linejoin:miter;stroke-miterlimit:10;stroke-opacity:1;stroke-dasharray:none" transform="translate(-129.22 -607.062)"/>
  <path d="m195.88 702.77-.115 1.036-.345 1.037-.461.807-.576.806-.807.692-.921.46-.922.346h-55.526l-.922-.345-.922-.461-.69-.692-.692-.806-.46-.807-.346-1.037-.116-1.037v-87.567l.116-1.037.345-1.037.461-.921.691-.692.691-.69.922-.462.922-.345 1.036-.116h53.453l1.037.116.922.345.921.461.807.691.576.692.46.921.346 1.037.115 1.037z" style="fill:#fff;fill-opacity:1;fill-rule:nonzero;stroke:none" transform="translate(-129.22 -607.062)"/>
  <path d="m195.88 702.77-.115 1.036-.345 1.037-.461.807-.576.806-.807.692-.921.46-.922.346h-55.526l-.922-.345-.922-.461-.69-.692-.692-.806-.46-.807-.346-1.037-.116-1.037v-87.567l.116-1.037.345-1.037.461-.921.691-.692.691-.69.922-.462.922-.345 1.036-.116h53.453l1.037.116.922.345.921.461.807.691.576.692.46.921.346 1.037.115 1.037z" style="fill:none;stroke:#fff;stroke-width:.14999999;stroke-linecap:butt;stroke-linejoin:miter;stroke-miterlimit:10;stroke-opacity:1;stroke-dasharray:none" transform="translate(-129.22 -607.062)"/>
  <path d="m193.576 703.23-.115.576-.115.461-.576.807-.922.576-.46.115-.461.115h-53.914l-.576-.115-.46-.115-.807-.576-.346-.346-.23-.46-.23-1.038v-88.488l.23-1.037.576-.807.806-.576 1.037-.23h53.914l1.037.23.806.576.576.807.115.46.115.577z" style="fill:#0071b3;fill-opacity:1;fill-rule:nonzero;stroke:none" transform="translate(-129.22 -607.062)"/>
  <path d="m193.576 703.23-.115.576-.115.461-.576.807-.922.576-.46.115-.461.115h-53.914l-.576-.115-.46-.115-.807-.576-.346-.346-.23-.46-.23-1.038v-88.488l.23-1.037.576-.807.806-.576 1.037-.23h53.914l1.037.23.806.576.576.807.115.46.115.577z" style="fill:none;stroke:#007ce3;stroke-width:.14999999;stroke-linecap:butt;stroke-linejoin:miter;stroke-miterlimit:10;stroke-opacity:1;stroke-dasharray:none" transform="translate(-129.22 -607.062)"/>
  <path d="M146.69 687.445h34.56v-56.918h-34.56z" style="fill:#fff;fill-opacity:1;fill-rule:evenodd;stroke:none" transform="translate(-129.22 -607.062)"/>
  <path d="M146.69 687.445h34.56v-56.918h-34.56z" style="fill:none;stroke:#fff;stroke-width:.14999999;stroke-linecap:butt;stroke-linejoin:miter;stroke-miterlimit:10;stroke-opacity:1;stroke-dasharray:none" transform="translate(-129.22 -607.062)"/>
  <path d="m157.864 682.606 14.055.115v-34.335l-.115-.922-.23-.922-.346-.922-.461-.806-.461-.807-.576-.576-.691-.576-.691-.46-.116-2.881h3.572l-.116-.692h4.032v-2.42h-4.032v-.69h-3.34v-1.268h-6.567v1.268l-2.995.115-.922.691-.921.807-1.498 1.497-1.152 1.729-.806 1.613-.576 1.613-.346 1.383-.23 1.267v1.037h1.612l.116-.922.115-.922.345-.806.346-.807.346-.691.576-.576 1.036-1.152 1.153-.922 1.267-.576 1.152-.461 1.152-.115h.23v2.88l-.576.346-.576.346-.576.576-.576.691-.576.807-.345 1.037-.346 1.036v1.268z" style="fill:#ed1c24;fill-opacity:1;fill-rule:nonzero;stroke:none" transform="translate(-129.22 -607.062)"/>
</svg>
