<svg xmlns="http://www.w3.org/2000/svg" xml:space="preserve" viewBox="0 0 101.952 68.347" role="img" aria-labelledby="title">
  <title id="title">Verkehrszeichen F23a - N-road number sign (national road)</title>
  <path fill="#0071b3" d="M8.412 0h85.724c4.296 0 7.816 3.531 7.816 7.841v52.666c0 4.31-3.521 7.84-7.816 7.84H7.814C3.52 68.347 0 64.816 0 60.507V7.421C0 3.112 4.117 0 8.412 0"/>
  <path fill="none" d="M8.412 0h85.724c4.296 0 7.816 3.531 7.816 7.841v52.666c0 4.31-3.521 7.84-7.816 7.84H7.814C3.52 68.347 0 64.816 0 60.507V7.421C0 3.112 4.117 0 8.412 0"/>
  <path fill="#fff" d="M9.127 2.754h83.697c4.116 0 6.383 2.273 6.383 6.224v50.631c0 3.951-2.565 5.926-6.681 5.926H9.187c-4.116 0-6.383-2.394-6.383-6.344V8.26c0-3.891 2.267-5.506 6.323-5.506"/>
  <path fill="none" d="M9.127 2.754h83.697c4.116 0 6.383 2.273 6.383 6.224v50.631c0 3.951-2.565 5.926-6.681 5.926H9.187c-4.116 0-6.383-2.394-6.383-6.344V8.26c0-3.891 2.267-5.506 6.323-5.506"/>
  <path fill="#0071b3" d="M9.962 5.327h81.966c3.878 0 4.713 1.257 4.713 4.908v48.236c0 3.651-1.789 4.549-5.667 4.549H10.977c-3.878 0-5.667-1.197-5.667-4.788V9.097c0-3.591.835-3.77 4.652-3.77"/>
  <path fill="none" d="M9.962 5.327h81.966c3.878 0 4.713 1.257 4.713 4.908v48.236c0 3.651-1.789 4.549-5.667 4.549H10.977c-3.878 0-5.667-1.197-5.667-4.788V9.097c0-3.591.835-3.77 4.652-3.77"/>
  <path fill="#fff" d="M22.073 55.061V24.538h4.533l7.159 19.331V24.538h3.698v30.283h-3.758l-8.113-20.827v21.067z"/>
  <path fill="none" d="M22.073 55.061V24.538h4.533l7.159 19.331V24.538h3.698v30.283h-3.758l-8.113-20.827v21.067z"/>
  <path fill="#fff" d="M59.835 22.623c-.18-5.267 4.295-9.456 9.604-9.456 5.25 0 9.545 4.309 9.545 9.636v3.351c0 2.933-1.312 5.626-3.4 7.362 2.566 1.795 4.176 4.848 4.176 8.199v3.53c0 5.686-4.652 10.354-10.26 10.354-5.727 0-10.381-4.669-10.381-10.354v-2.154h5.549l.238 2.813c.238 2.515 1.969 4.608 4.533 4.608s4.534-2.094 4.534-4.608v-4.667c0-2.574-1.969-4.608-4.534-4.608h-2.445v-5.687H69.5c2.207 0 3.996-1.795 3.996-3.949v-5.027c0-2.215-1.789-4.011-3.996-4.011s-4.295 1.557-4.295 3.771v2.454h-5.311z"/>
  <path fill="none" d="M59.835 22.623c-.18-5.267 4.295-9.456 9.604-9.456 5.25 0 9.545 4.309 9.545 9.636v3.351c0 2.933-1.312 5.626-3.4 7.362 2.566 1.795 4.176 4.848 4.176 8.199v3.53c0 5.686-4.652 10.354-10.26 10.354-5.727 0-10.381-4.669-10.381-10.354v-2.154h5.549l.238 2.813c.238 2.515 1.969 4.608 4.533 4.608s4.534-2.094 4.534-4.608v-4.667c0-2.574-1.969-4.608-4.534-4.608h-2.445v-5.687H69.5c2.207 0 3.996-1.795 3.996-3.949v-5.027c0-2.215-1.789-4.011-3.996-4.011s-4.295 1.557-4.295 3.771v2.454h-5.311z"/>
</svg>
