<svg xmlns="http://www.w3.org/2000/svg" xml:space="preserve" viewBox="0 0 68.375 102.687" role="img" aria-labelledby="title">
  <title id="title">Verkehrszeichen F73 - Caravan site</title>
  <path fill="#0071b3" d="M8.019 0h52.427c4.368 0 7.929 3.573 7.929 7.959v86.859c0 4.354-3.561 7.868-7.929 7.868H7.959C3.561 102.687 0 99.113 0 94.758L.03 7.959C.03 3.573 3.621 0 8.019 0"/>
  <path fill="none" d="M8.019 0h52.427c4.368 0 7.929 3.573 7.929 7.958v86.86c0 4.354-3.561 7.868-7.929 7.868H7.959C3.561 102.687 0 99.113 0 94.758l.03-86.8C.03 3.573 3.621 0 8.019 0"/>
  <path fill="#fff" fill-rule="evenodd" d="M58.081 15.497c-3.949 0-6.403-4.265-4.429-7.688 1.976-3.395 6.882-3.395 8.827 0 1.976 3.423-.478 7.688-4.398 7.688" clip-rule="evenodd"/>
  <path fill="none" d="M58.081 15.497c-3.949 0-6.403-4.265-4.429-7.688 1.976-3.395 6.882-3.395 8.827 0 1.976 3.423-.478 7.688-4.398 7.688"/>
  <path fill="#fff" d="M65.593 94.698c0 2.854-2.305 5.165-5.088 5.165H7.899c-2.813 0-5.086-2.312-5.086-5.165V7.988c0-2.823 2.273-5.165 5.086-5.165h52.605c2.783 0 5.088 2.313 5.088 5.195v86.68z"/>
  <path fill="none" d="M65.593 94.698c0 2.854-2.305 5.165-5.088 5.165H7.899c-2.813 0-5.086-2.312-5.086-5.165V7.988c0-2.823 2.273-5.165 5.086-5.165h52.605c2.783 0 5.088 2.313 5.088 5.195v86.68z"/>
  <path fill="#0071b3" d="M63.318 95.179c0 1.442-1.198 2.583-2.604 2.583H7.601c-1.406 0-2.544-1.141-2.544-2.583V7.539c0-1.412 1.138-2.583 2.544-2.583h53.173c1.406 0 2.544 1.141 2.544 2.583z"/>
  <path fill="none" d="M63.318 95.179c0 1.441-1.198 2.583-2.604 2.583H7.601c-1.406 0-2.544-1.142-2.544-2.583V7.539c0-1.412 1.138-2.583 2.544-2.583h53.173c1.406 0 2.544 1.141 2.544 2.583z"/>
  <path fill="#fff" fill-rule="evenodd" d="M58.829 76.077H9.605V26.67h49.224z" clip-rule="evenodd"/>
  <path fill="none" d="M58.829 76.077H9.605V26.67h49.224z"/>
  <path fill="#120c0e" d="M47.189 64.634v4.476h8.259v.689H13.167v-.87h8.319l.06-4.505-2.513.029c-1.826.03-6.314-2.072-6.135-6.637l.478-12.194c.3-7.659 5.896-10.152 11.402-11.443s11.221-1.893 16.907-.54c9.276 2.192 12.897 4.685 13.524 12.134l.3 3.604v8.349c-.001 4.775-3.682 7.148-8.32 6.908"/>
  <path fill="none" stroke="#120c0e" stroke-miterlimit="3.863" stroke-width=".18" d="M47.189 64.634v4.476h8.259v.689H13.167v-.87h8.319l.06-4.505-2.513.029c-1.826.03-6.314-2.072-6.135-6.637l.478-12.194c.3-7.659 5.896-10.152 11.402-11.443s11.221-1.893 16.907-.54c9.276 2.192 12.897 4.685 13.524 12.134l.3 3.604v8.349c-.001 4.775-3.682 7.148-8.32 6.908z"/>
  <path fill="#fff" d="M18.583 42.259c-.509-.12-1.167.27-1.167.87v4.506c-.06.63.358 1.231.958 1.231h5.176c.868 0 1.078-.481 1.078-1.111V43.22c0-.421-.599-1.052-.928-.961z"/>
  <path fill="none" stroke="#fff" stroke-miterlimit="3.863" stroke-width=".18" d="M18.583 42.259c-.509-.12-1.167.27-1.167.87v4.506c-.06.63.358 1.231.958 1.231h5.176c.868 0 1.078-.481 1.078-1.111V43.22c0-.421-.599-1.052-.928-.961z"/>
  <path fill="#fff" d="M28.397 42.259c-.509-.12-1.167.27-1.167.87v4.506c-.06.63.359 1.231.957 1.231h5.178c.867 0 1.077-.481 1.077-1.111V43.22c0-.421-.599-1.052-.929-.961z"/>
  <path fill="none" stroke="#fff" stroke-miterlimit="3.863" stroke-width=".18" d="M28.397 42.259c-.509-.12-1.167.27-1.167.87v4.506c-.06.63.359 1.231.957 1.231h5.178c.867 0 1.077-.481 1.077-1.111V43.22c0-.421-.599-1.052-.929-.961z"/>
  <path fill="#fff" d="M22.323 69.169v-4.686h7.331l1.407-3.273h6.374l1.646 3.184h7.24v4.775H22.263z"/>
  <path fill="none" stroke="#120c0e" stroke-miterlimit="3.863" stroke-width=".18" d="M22.323 69.169v-4.686h7.331l1.407-3.273h6.374l1.646 3.184h7.24v4.775H22.263z"/>
  <path fill="#120c0e" d="M30.103 64.874a4.216 4.216 0 0 0 4.219 4.205c2.304 0 4.189-1.893 4.189-4.205l-1.376-3.003H31.33z"/>
  <path fill="none" stroke="#120c0e" stroke-miterlimit="3.863" stroke-width=".18" d="M30.103 64.874a4.216 4.216 0 0 0 4.219 4.205c2.304 0 4.189-1.893 4.189-4.205l-1.376-3.003H31.33z"/>
  <path fill="#fff" d="M45.663 63.463c1.167-.181 1.347 0 1.586-1.412V40.276c.12-.872-.449-1.532-1.107-1.532h-6.134c-.629 0-1.317.541-1.317 1.142v22.075c-.029.991.359 1.502 1.048 1.502z"/>
  <path fill="none" stroke="#fff" stroke-miterlimit="3.863" stroke-width=".18" d="M45.663 63.463c1.167-.181 1.347 0 1.586-1.412V40.276c.12-.872-.449-1.532-1.107-1.532h-6.134c-.629 0-1.317.541-1.317 1.141v22.076c-.029.991.359 1.502 1.048 1.502z"/>
  <path fill="#120c0e" d="M45.334 62.981c1.017-.18 1.167 0 1.376-1.321V40.727c.12-.812-.389-1.441-.957-1.441h-5.386c-.539 0-1.138.51-1.138 1.111V61.57c-.03.931.329 1.411.928 1.411z"/>
  <path fill="none" stroke="#120c0e" stroke-miterlimit="3.863" stroke-width=".18" d="M45.334 62.981c1.017-.18 1.167 0 1.376-1.321V40.727c.12-.812-.389-1.441-.957-1.441h-5.386c-.539 0-1.138.51-1.138 1.111V61.57c-.03.931.329 1.411.928 1.411z"/>
</svg>
