<svg xmlns="http://www.w3.org/2000/svg" xml:space="preserve" viewBox="0 0 102.082 102.202" role="img" aria-labelledby="title">
  <title id="title">Verkehrszeichen F101c - End of road reserved for agriculture vehicles, speed pedelecs, pedestrians, bicycles and horses.</title>
  <path fill="#0071b3" d="M7.657.1h86.848a7.56 7.56 0 0 1 7.477 7.558v87.007c0 4.079-3.358 7.438-7.437 7.438H7.617C3.459 102.103.1 98.785.1 94.706V7.658A7.51 7.51 0 0 1 7.617.14z"/>
  <path fill="none" stroke="#0071b3" stroke-miterlimit="3.863" stroke-width=".2" d="M7.657.1h86.848a7.56 7.56 0 0 1 7.477 7.558v87.007c0 4.079-3.358 7.438-7.437 7.438H7.617C3.459 102.103.1 98.785.1 94.706V7.658A7.51 7.51 0 0 1 7.617.14z"/>
  <path fill="#fff" d="m7.577 1.94 86.928.04c3.079 0 5.638 2.559 5.638 5.678v87.047c0 3.079-2.559 5.639-5.638 5.639l-87.327-.12c-2.919 0-5.198-2.399-5.198-5.278L1.9 7.618C1.9 4.5 4.459 1.94 7.577 1.94"/>
  <path fill="#0071b3" d="m7.577 3.619 86.928.04c2.159 0 3.959 1.799 3.959 3.959v87.047c0 2.159-1.8 3.959-3.959 3.959H7.577c-2.159 0-3.958-1.8-3.958-3.959V7.578c0-2.16 1.799-3.959 3.958-3.959"/>
  <path fill="none" stroke="#0071b3" stroke-miterlimit="3.863" stroke-width=".2" d="m7.577 3.619 86.928.04c2.159 0 3.959 1.799 3.959 3.959v87.047c0 2.159-1.8 3.959-3.959 3.959H7.577c-2.159 0-3.958-1.8-3.958-3.959V7.578c0-2.16 1.799-3.959 3.958-3.959z"/>
  <path fill="#fff" d="m53.12 50.042-3.917-6.078c-.6-.72-1.759-1.519-2.719-1.399v-1.04c.68-.36 1.16-1 1.16-1.839 0-1.08-.84-1.96-1.96-1.96-1.079 0-1.919.88-1.919 1.96 0 .879.52 1.599 1.359 1.839v.96c-1.119 0-3.798.719-3.798 3.438v5.758c0 .479.36.84.84.84.439 0 .839-.36.839-.84v-5.318c0-.2.16-.36.36-.36s.4.16.4.36v15.314c0 .479.36.88.84.88.479 0 .879-.4.879-.88V53.36c0-.239.2-.519.52-.519.28 0 .48.279.48.519v10.237c0 .439.4.879.92.879.439 0 .879-.439.879-.879V45.803l3.239 5.158c.28.44.601.4.96.24.32 1.08.48 1.72 1.199 1.76l2.279.16-1.639 5.198h1.239v3.798c0 .32.279.521.56.521.319 0 .56-.2.56-.521v-3.878h.72v3.158c0 .28.28.52.6.52.281 0 .52-.239.52-.52v-3.078h1.24l-1.12-4.359 1.479 1.641c.121.12.32.12.48 0 .12-.12.2-.28.04-.521l-1.96-2.238c-.398-.44-.639-.721-1.159-.841-.2-.12-.12-.279-.08-.439.479-.2.8-.72.8-1.279 0-.8-.64-1.4-1.399-1.4-.8 0-1.439.6-1.439 1.4 0 .639.439 1.159 1.039 1.319 0 .2.04.52-.159.6h-1.92c-.32 0-.439-.04-.68-.28-.2-.319-.439-.84-.439-1.119 0-.16-.041-.12-.16-.199.117-.122.158-.242.037-.562M11.616 67.516c.12 0 1.12.72 1.239.76 5.319 3.599 1.8 5.958 5.558 9.396l-4.078 4.359s-.08.04-.04.12c-.32.479-.4 1.039-.32 1.639.08.04.84 2.56 1.32 3.199 0 .12.04.32.12.44 0 0 .04.079.08.119-.2.32-.32.72-.28 1.079.16.2.399.36.559.641l.96-.521-.12-.719c-.08-.44-.28-.48-.52-.8 0-.08-.36-.681-.36-.76-.16-.16-.239-1.119-.359-1.359-.4-.96.04-.36-.4-1.28.12-.12.12-.64.32-.56 1.879-1.319 3.758-2.64 5.677-3.958.6.959 1.76 2.278 2.16 3.798.32 1.32 2.999 4.359 3.398 5.438.2.4-.319 1.08-.319 1.561h1.359l-.12-.96.32-.12-.72-1.039c-.6-.92-.64-.76-1.199-1.76a8 8 0 0 1-.68-1.919c-.04-.12-.72-3.6-.4-5.238l.88-.64c1.319 0 2.439.12 3.798-.08 1-.16 2.719-.32 3.439-.8 1.639-.52 2.199-1.239 2.639-1.359.08 0 0 .04 0 0 0 0 .04.8 1.28 2.799.519 1.12 1.759 2.279.799 3.399-.4.519-2.199 2.519-2.399 2.919a.64.64 0 0 1-.2.438c0 .08-.08.12-.04.24-.16.08-.28.28-.4.44.04.399-.28.6-.04 1 .28.119.2.6.28.799l.92-.799-.32-.36.32-.16-.2-.439c-.04-.12.08-.32.12-.48.48-.719 1.08-1.239 1.679-1.799.96-.88 1.84-1.639 2.639-2.56.36-.68.2-1.439.28-2.198.04.08.04.16.04.319.12.08.24.28.24.439.64.72 1.52 1.52 2.439 2.04.52.28.72.32 1.12.599.48.08 1.039.96.88 1.48l.239 4.038c.08.12.08.239.08.399-.519.28-.639.84-.559 1.44h1.239l-.08-1.12.2-.08c.16-.04-.32-2.239-.12-3.159.2-2.719.68-1.639.24-3.198-.28-.96-.92-.76-1.359-1.64-.32 0-1.76-2.519-2.12-3.638-.32-.84-.36-3.479-.12-4.159.36-1 .12-2.399-.319-3.119.119-.08.399 0 .519 0 .12.04.2.12.32.12 1.8 1.24 1.32 3.119 2.079 4.878l.08.08c0 .08.04.12.04.2.16.56.72.92 1.28.84.48-.32 1-.68 1.479-.6l-2.679-5.118c-.479-.681-.959-.88-1.279-1.159-.8-.32-1.2-.24-1.999-.28-1.76-.08-1.88-1.399-3.639-1.479-2.999-.08-3.039-.08-4.678 0-.24 0-1.2.319-1.12.159l.04-.239-1.12.04.44-1.039-.32-.24-1.319 1.319c0-.761-.16-.999-.32-1.479-.36-.439-.44-.8-.72-1.12-.2-1.159-.559-4.918-3.438-5.638l-.04-.44-.32.12v-.519h.32l-.2-.88.44-1c-.84-.08-2.52-1.039-2.999 0-.36 0-.56.08-.84.12l.76.319h.08l.04.641-.32.8h.32v.639c0 .16-.04.4.16.4.279-.16.639 0 .959-.04l.4.2c.24 1.079-.68.6.24 2.719 0 .399-.4 1.04-.76 1.479-.56.76-.6.72-1.919 1.84-.64.039-.92.359-1 .998.16.16.28.36.52.44.16.04.28 0 .4 0 .36-.16.24-.719.32-.799.04-.04.08-.08.12-.08.16.16.28.32.44.479.559-.04.879-.639 1.999-1.278 0-.4.72-.36.68-.76 0-.12.04.239.16.279-.08.76.28 1.44-.2 2.159l-.96 1.32h-1.16c-.679 0-1.559-.12-1.799-.44-1.439-.88-2.159-1.16-3.399-1.999-2.878-2.079-5.917-2.679-6.837-2.679-.4 0-.8-.32-1.04-.521v-.199c-.16-.36-.599-.601-.559-1.04l-.24.84-.64-.8c-.04.04-.08.08-.08.159.2.44 0 1 .08 1.44-.08.04-.08.12-.12.16 0 .28-.16.56-.28.799.12.72-.72 1.08-.48 1.84-.12.879-.36 1.319-.679 2.159-.24.6-.28 1.12-.2 1.959.04.36.439.64.839.68.12 0 .16-.12.28-.16.04.12.08.2.2.32.28 0 .32.12.52-.12 0-.239.28-.439.28-.68 1.439-1.596 1.439-1.477 2.199-2.676"/>
  <path fill="#fff" d="M22.412 66.835c.48.44 1.159 1.641-.24 1.4-.04 0-.36-.44-.4-.4-.24-.239 0-.439 0-.68 0-.08.16.12.2.24-.12.399.28.72.68.64.04-.08-.08.04 0 0 0-.12.24.04.08-.439-.08-.16-.52-.28-.56-.44zM9.417 70.194l-.04.44c1.119-.36 3.119-.681 4.558-1.399l-.28-.28c-1.439.719-3.119.879-4.238 1.239M21.252 66.715l.2.28-1.239.16-.36-.24zM64.077 72.514l9.037 8.037a2.2 2.2 0 0 0-.561 1.479c0 1.159.96 2.159 2.079 2.279v2.679h-.359v.48h1.159v-.48h-.32V84.35c1.08-.04 1.92-.92 2.079-1.919h1.28c.16 4.397 3.759 7.877 8.156 7.877 4.559 0 8.238-3.68 8.238-8.197 0-4.519-3.68-8.197-8.238-8.197-1.359 0-2.639.32-3.758.959l-2.319-4.237.56-1.12c.16-.359.641-.239.92-.52.041-.2.041-.319.041-.52-.16-.08-.201-.24-.4-.24h-3.039c-.04.08-.16.04-.24.04-.04.04-.08.08-.12.08-.04.16-.04.359 0 .52.04.04.12.08.16.08h1.56c.159-.04.319.04.479.08.04.04.04.04.12.08-.04.12.08.28.04.359l-.32.72H64.596l.439-1.839c.36-.12.641.12 1.36-.2.279 0 .959-.36 1.759-.08.16-.08-.039-.12.041-.24-.08-.04.119-.199.079-.279-.479-.16-1.52-.24-1.999.08-.52.279-1.199.079-1.64.119l-1.56 6.679a7.7 7.7 0 0 0-2.918-.561c-4.519 0-8.197 3.679-8.197 8.197s3.679 8.197 8.197 8.197 8.196-3.68 8.196-8.197c0-3.319-1.999-6.118-4.798-7.438z"/>
  <path fill="none" stroke="#fff" stroke-miterlimit="3.863" stroke-width=".2" d="M58.838 73.354c.479-.08.92-.16 1.32-.16 4.877 0 8.836 3.999 8.836 8.917 0 .28 0 .52-.039.799"/>
  <path fill="#fff" fill-rule="evenodd" d="M93.786 90.707H53v-.6h40.785v.6z" clip-rule="evenodd"/>
  <path fill="none" stroke="#fff" stroke-miterlimit="3.863" stroke-width=".2" d="M93.786 90.707H53v-.6h40.785v.6z"/>
  <path fill="#0071b3" d="M60.838 81.07c-.2-.12-.44-.08-.68-.08-.681 0-1.24.521-1.24 1.16 0 .679.56 1.199 1.24 1.199.52 0 1.039-.36 1.158-.839h6.198a7.36 7.36 0 0 1-7.356 6.917c-4.16 0-7.478-3.319-7.478-7.397 0-4.119 3.317-7.437 7.478-7.437a7.2 7.2 0 0 1 2.758.559l-.479 2c-.28 1.16-.68 2.519-1.599 3.918"/>
  <path fill="#0071b3" d="m63.437 75.353-.56 2.119c-.24 1.04-1.041 3.118-1.721 3.919.08.16.16.359.2.52h6.198c-.079-2.92-1.718-5.358-4.117-6.558M64.196 71.994l.24-1.28H80.03l-4.318 9.117c-.199-.08-.359-.239-.639-.16v-2.599h.359v-.439h-1.159v.439h.359v2.639c-.439.08-.8.24-1.119.52zM88.267 81.271l4.919-2.719c.6 1.04.919 2.278.919 3.559 0 4.078-3.319 7.397-7.437 7.397-4 0-7.237-3.119-7.397-7.077h5.798c.12.759.799 1.318 1.6 1.318.92 0 1.719-.76 1.719-1.639 0-.32-.08-.56-.2-.76z"/>
  <path fill="none" stroke="#0071b3" stroke-miterlimit="3.863" stroke-width=".2" d="m88.267 81.271 4.919-2.719c.6 1.04.919 2.278.919 3.559 0 4.078-3.319 7.397-7.437 7.397-4 0-7.237-3.119-7.397-7.077h5.798c.12.759.799 1.318 1.6 1.318.92 0 1.719-.76 1.719-1.639 0-.32-.08-.56-.2-.76z"/>
  <path fill="#0071b3" d="m87.987 80.99 5-2.759c-1.32-2.119-3.64-3.559-6.359-3.559a7.24 7.24 0 0 0-3.318.8l2.799 5.078c.16-.08.4-.12.6-.12.479.001.918.24 1.278.56"/>
  <path fill="none" stroke="#0071b3" stroke-miterlimit="3.863" stroke-width=".2" d="m87.987 80.99 5-2.759c-1.32-2.119-3.64-3.559-6.359-3.559a7.24 7.24 0 0 0-3.318.8l2.799 5.078c.16-.08.4-.12.6-.12.479.001.918.24 1.278.56z"/>
  <path fill="#0071b3" d="m82.909 75.792 2.799 5.078a1.84 1.84 0 0 0-.599 1h-5.878c.08-2.599 1.479-4.838 3.559-6.118z"/>
  <path fill="none" stroke="#0071b3" stroke-miterlimit="3.863" stroke-width=".2" d="m82.909 75.792 2.799 5.078a1.84 1.84 0 0 0-.599 1h-5.878c.08-2.599 1.479-4.838 3.559-6.118z"/>
  <path fill="#0071b3" d="m80.31 71.154-4.078 8.917c.601.399 1.039 1.079 1.079 1.839h1.24c.08-2.879 1.599-5.397 3.958-6.798z"/>
  <path fill="none" stroke="#fff" stroke-miterlimit="3.863" stroke-width=".2" d="M77.991 83.43a7.4 7.4 0 0 1-.119-1.319c0-4.918 3.998-8.917 8.877-8.917 3.639 0 6.717 2.199 8.117 5.318"/>
  <path fill="#120c0e" fill-rule="evenodd" d="M59.838 31.169c-1.999 0-3.68-1.68-3.68-3.639s1.681-3.639 3.68-3.639c1.919 0 3.559 1.68 3.559 3.639s-1.64 3.639-3.559 3.639m0 2.879c-3.639 0-6.559-2.919-6.559-6.518s2.92-6.517 6.559-6.517c3.559 0 6.478 2.918 6.478 6.517s-2.919 6.518-6.478 6.518" clip-rule="evenodd"/>
  <path fill="none" stroke="#000" stroke-linecap="round" stroke-linejoin="round" stroke-miterlimit="3.863" stroke-width=".08" d="M59.838 31.169c-1.999 0-3.68-1.68-3.68-3.639s1.681-3.639 3.68-3.639c1.919 0 3.559 1.68 3.559 3.639s-1.64 3.639-3.559 3.639m0 2.879c-3.639 0-6.559-2.919-6.559-6.518s2.92-6.517 6.559-6.517c3.559 0 6.478 2.918 6.478 6.517s-2.919 6.518-6.478 6.518"/>
  <path fill="#120c0e" fill-rule="evenodd" d="M38.126 32.608c-1.04 0-1.799-.799-1.799-1.799 0-.96.759-1.759 1.799-1.759.92 0 1.759.799 1.759 1.759 0 1-.839 1.799-1.759 1.799m0 1.44a3.226 3.226 0 0 1-3.239-3.239c0-1.759 1.44-3.199 3.239-3.199a3.21 3.21 0 0 1 3.199 3.199c0 1.799-1.44 3.239-3.199 3.239" clip-rule="evenodd"/>
  <path fill="none" stroke="#000" stroke-linecap="round" stroke-linejoin="round" stroke-miterlimit="3.863" stroke-width=".08" d="M38.126 32.608c-1.04 0-1.799-.799-1.799-1.799 0-.96.759-1.759 1.799-1.759.92 0 1.759.799 1.759 1.759 0 1-.839 1.799-1.759 1.799m0 1.44a3.226 3.226 0 0 1-3.239-3.239c0-1.759 1.44-3.199 3.239-3.199a3.21 3.21 0 0 1 3.199 3.199c0 1.799-1.44 3.239-3.199 3.239"/>
  <path fill="#fff" fill-rule="evenodd" d="M53.36 28.37a6.53 6.53 0 0 0 4.199 5.278c2.279.84 4.798.32 6.598-1.24 1.799-1.639 2.519-4.078 2-6.437l.838-1.08c.32-.4.08-.64-.239-.44l-.96.52c-.239-.48-.52-1-.84-1.399l.681-1.92c.12-.28-.24-.36-.32-.12l-.6 1.72-1.279-3.799c-.239-.76-.36-.88-.92-.88l-1.999-7.117h1.479V9.817h-1.959l-.08-.24H48.362v.8c0 .479.4.879.88.879h.2l-.6 7.397-6.118.6V8.377h-.519v10.916l-7.718.72.28 1.679.44-.08 1.28 5.518h1.559v.52a3.17 3.17 0 0 0-3.159 2.879c-.12 1.599.96 3.159 2.599 3.439a3.13 3.13 0 0 0 3.679-2.199c.52-1.6-.28-3.279-1.799-3.919l.16-.72h5.158l.599.56h2.04l.639-.56h.52l1.32.64v2.199h1.599l.561-1.879z" clip-rule="evenodd"/>
  <path fill="none" stroke="#fff" stroke-linecap="round" stroke-linejoin="round" stroke-miterlimit="3.863" stroke-width=".2" d="M53.36 28.37a6.53 6.53 0 0 0 4.199 5.278c2.279.84 4.798.32 6.598-1.24 1.799-1.639 2.519-4.078 2-6.437l.838-1.08c.32-.4.08-.64-.239-.44l-.96.52c-.239-.48-.52-1-.84-1.399l.681-1.92c.12-.28-.24-.36-.32-.12l-.6 1.72-1.279-3.799c-.239-.76-.36-.88-.92-.88l-1.999-7.117h1.479V9.817h-1.959l-.08-.24H48.362v.8c0 .479.4.879.88.879h.2l-.6 7.397-6.118.6V8.377h-.519v10.916l-7.718.72.28 1.679.44-.08 1.28 5.518h1.559v.52a3.17 3.17 0 0 0-3.159 2.879c-.12 1.599.96 3.159 2.599 3.439a3.13 3.13 0 0 0 3.679-2.199c.52-1.6-.28-3.279-1.799-3.919l.16-.72h5.158l.599.56h2.04l.639-.56h.52l1.32.64v2.199h1.599l.561-1.879z"/>
  <path fill="#0071b3" fill-rule="evenodd" d="M56.239 18.573h4.279l-1.48-7.317H54.84z" clip-rule="evenodd"/>
  <path fill="none" stroke="#0071b3" stroke-miterlimit="3.863" stroke-width=".2" d="M56.239 18.573h4.279l-1.48-7.317H54.84z"/>
  <path fill="#0071b3" fill-rule="evenodd" d="M55.161 18.573 54 11.256h-3.718l-.6 9.077h2.879z" clip-rule="evenodd"/>
  <path fill="none" stroke="#0071b3" stroke-miterlimit="3.863" stroke-width=".2" d="M55.161 18.573 54 11.256h-3.718l-.6 9.077h2.879z"/>
  <path fill="#0071b3" fill-rule="evenodd" d="M59.838 31.169c-1.999 0-3.68-1.68-3.68-3.639s1.681-3.639 3.68-3.639c1.959 0 3.599 1.68 3.599 3.639s-1.64 3.639-3.599 3.639" clip-rule="evenodd"/>
  <path fill="none" stroke="#0071b3" stroke-linecap="round" stroke-linejoin="round" stroke-miterlimit="3.863" stroke-width=".2" d="M59.838 31.169c-1.999 0-3.68-1.68-3.68-3.639s1.681-3.639 3.68-3.639c1.959 0 3.599 1.68 3.599 3.639s-1.64 3.639-3.599 3.639"/>
  <path fill="none" stroke="#001504" stroke-linecap="round" stroke-linejoin="round" stroke-miterlimit="3.863" stroke-width=".08" d="M49.642 11.256h-.2"/>
  <path fill="#0071b3" fill-rule="evenodd" d="M38.126 32.608c-1 0-1.759-.799-1.759-1.799 0-.96.759-1.759 1.759-1.759.96 0 1.759.799 1.759 1.759 0 1-.799 1.799-1.759 1.799" clip-rule="evenodd"/>
  <path fill="none" stroke="#0071b3" stroke-linecap="round" stroke-linejoin="round" stroke-miterlimit="3.863" stroke-width=".2" d="M38.126 32.608c-1 0-1.759-.799-1.759-1.799 0-.96.759-1.759 1.759-1.759.96 0 1.759.799 1.759 1.759 0 1-.799 1.799-1.759 1.799"/>
  <path fill="#0071b3" d="m64.716 23.252-.761-2.279-.799-.24c-.68-.16-.08-.68-1.32-.68h-4.317l-3.319 1.8-1.639 3.279-.6 2.959 1.359.24c-.359-2.959 1.239-5.718 3.959-6.838 2.719-1.159 5.877-.32 7.637 2.04z"/>
  <path fill="none" stroke="#0071b3" stroke-miterlimit="3.863" stroke-width=".2" d="m64.716 23.252-.761-2.279-.799-.24c-.68-.16-.08-.68-1.32-.68h-4.317l-3.319 1.8-1.639 3.279-.6 2.959 1.359.24c-.359-2.959 1.239-5.718 3.959-6.838 2.719-1.159 5.877-.32 7.637 2.04z"/>
  <path fill="#ed1c24" d="M4.779 97.824c-.72-.84-1.24-1.679-1.16-2.759l.16-2.759L91.987 3.779l3.519-.04c.759 0 1.719.72 2.198 1.16.32.319 1.039.959 1.039 2.679v3.318L11.656 98.983l-3.599-.08c-.839 0-2.759-.479-3.278-1.079"/>
</svg>
