<svg xmlns="http://www.w3.org/2000/svg" xml:space="preserve" viewBox="0 0 170.443 34.143" role="img" aria-labelledby="title">
  <title id="title">Verkehrszeichen F33c - Arrow indicating direction of a place (touristic location, sport centre...)</title>
  <path fill="#955436" d="M3.698 34.043C1.539 34.043.1 32.525.1 30.449V3.814A3.71 3.71 0 0 1 3.818.1h140.577c.759 0 1.398.199 1.959.559l22.029 12.859c1.2.599 1.96 2.116 1.96 3.554 0 1.638-1.08 2.995-2.519 3.555l-21.591 12.817c-.56.28-1.2.52-1.919.52z"/>
  <path fill="none" stroke="#955436" stroke-miterlimit="3.863" stroke-width=".2" d="M3.698 34.043C1.539 34.043.1 32.525.1 30.449V3.814A3.71 3.71 0 0 1 3.818.1h140.577c.759 0 1.398.199 1.959.559l22.029 12.859c1.2.599 1.96 2.116 1.96 3.554 0 1.638-1.08 2.995-2.519 3.555l-21.591 12.817c-.56.28-1.2.52-1.919.52z"/>
  <path fill="#662601" d="M26.448 11.082h.08l.04.119s0-.039 0 0c.12 0 .08.24 0 .32v.04h-.04v.08h-.08v.04l-.04.08c0 .039 0 .039-.08.039v.12c-.04 0-.04 0-.04.04h-.199v-.16c-.04-.159 0-.159 0-.359v-.12c0-.04.079-.12.119-.12l.12-.119z"/>
  <path fill="none" d="M26.448 11.082h.08l.04.119s0-.039 0 0c.12 0 .08.24 0 .32v.04h-.04v.08h-.08v.04l-.04.08c0 .039 0 .039-.08.039v.12c-.04 0-.04 0-.04.04h-.199v-.16c-.04-.159 0-.159 0-.359v-.12c0-.04.079-.12.119-.12l.12-.119z"/>
  <path fill="#662601" d="M24.809 13.278c0-.12.12-.16.24-.28.12-.278.12-.519.24-.638h.12v.119s.04 0 .04.12c-.04.12-.12.32-.12.438.08.08 0 .2.08.2 0 0 .04-.08.04 0 .08-.2.12-.318.2-.358.04-.12.12-.16.16-.16.08 0 .24.04.319.04 0 .12 0 .12.04.16v.198s0 .04-.04.12c0 0 0 .04-.079.04h-1.24z"/>
  <path fill="none" d="M24.809 13.278c0-.12.12-.16.24-.28.12-.278.12-.519.24-.638h.12v.119s.04 0 .04.12c-.04.12-.12.32-.12.438.08.08 0 .2.08.2 0 0 .04-.08.04 0 .08-.2.12-.318.2-.358.04-.12.12-.16.16-.16.08 0 .24.04.319.04 0 .12 0 .12.04.16v.198s0 .04-.04.12c0 0 0 .04-.079.04h-1.24z"/>
  <path fill="#662601" d="M24.168 13.318c0-.08.08-.08.08-.08.04 0 .12-.12.16-.16 0-.08.08-.08.12-.198.12-.28.12-.04.08-.36 0-.12-.08-.239-.08-.399-.12.04-.24.04-.36.16-.04.08-.16.08-.279.119-.08.08-.32 0-.36.08 0-.08 0-.08-.08-.08-.04.08-.04 0-.04 0h-.32c-.04 0-.04.08-.04.08-.08 0-.08.04-.12.04 0 0 0 .08-.08.08l.08-.08c-.08.08-.12.2-.12.2 0 .04-.08.12-.08.16 0 .118-.04.238-.04.318-.08.04-.08.04-.12.12z"/>
  <path fill="none" d="M24.168 13.318c0-.08.08-.08.08-.08.04 0 .12-.12.16-.16 0-.08.08-.08.12-.198.12-.28.12-.04.08-.36 0-.12-.08-.239-.08-.399-.12.04-.24.04-.36.16-.04.08-.16.08-.279.119-.08.08-.32 0-.36.08 0-.08 0-.08-.08-.08-.04.08-.04 0-.04 0h-.32c-.04 0-.04.08-.04.08-.08 0-.08.04-.12.04 0 0 0 .08-.08.08l.08-.08c-.08.08-.12.2-.12.2 0 .04-.08.12-.08.16 0 .118-.04.238-.04.318-.08.04-.08.04-.12.12z"/>
  <path fill="#662601" d="M21.09 12.32v-.16c.16-.12.36-.08.52.04l.719.08c0 .04-.04.08-.12.08-.04.199-.12.239-.04.439 0 .12.04.238-.2.438 0 0-.04 0-.04.04-.239 0-.319-.04-.559 0 .08-.12.08-.24.12-.28.12-.318-.039-.637-.4-.677"/>
  <path fill="none" d="M21.09 12.32v-.16c.16-.12.36-.08.52.04l.719.08c0 .04-.04.08-.12.08-.04.199-.12.239-.04.439 0 .12.04.238-.2.438 0 0-.04 0-.04.04-.239 0-.319-.04-.559 0 .08-.12.08-.24.12-.28.12-.318-.039-.637-.4-.677"/>
  <path fill="#fff" fill-rule="evenodd" d="M52.276 25.058 47.718 6.969h2.399l3.319 15.094 3.878-15.094h2.359l3.838 15.094L66.87 6.969h2.398l-4.557 18.089h-2.359l-3.879-14.935-3.838 14.935z" clip-rule="evenodd"/>
  <path fill="none" stroke="#fff" stroke-miterlimit="3.863" stroke-width=".28" d="M52.276 25.058 47.718 6.969h2.399l3.319 15.094 3.878-15.094h2.359l3.838 15.094L66.87 6.969h2.398l-4.557 18.089h-2.359l-3.879-14.935-3.838 14.935z"/>
  <path fill="#fff" fill-rule="evenodd" d="M79.104 20.865c0 1.758-2.439 2.837-3.798 2.837-1.28 0-2.399-1.079-2.239-2.517.36-2.716 4.438-1.558 6.037-2.835zm.16 2.717c-.96 1.317-2.759 1.996-4.678 1.996-2.119 0-3.558-1.678-3.558-3.913 0-3.395 2.998-4.113 5.597-4.273.6-.04 2.479-.2 2.479-1.078v-1.078c0-1.677-1.639-1.797-2.719-1.797-1.399 0-2.918.679-2.918 2.476h-1.84c0-2.796 2.359-4.232 4.718-4.232 2.519 0 4.758.639 4.758 3.474v7.028c0 .519.04 1.358.68 1.358h.679v1.517c-1.318.558-2.998.278-3.198-1.478" clip-rule="evenodd"/>
  <path fill="none" stroke="#fff" stroke-miterlimit="3.863" stroke-width=".28" d="M79.104 20.865c0 1.758-2.439 2.837-3.798 2.837-1.28 0-2.399-1.079-2.239-2.517.36-2.716 4.438-1.558 6.037-2.835zm.16 2.717c-.96 1.317-2.759 1.996-4.678 1.996-2.119 0-3.558-1.678-3.558-3.913 0-3.395 2.998-4.113 5.597-4.273.6-.04 2.479-.2 2.479-1.078v-1.078c0-1.677-1.639-1.797-2.719-1.797-1.399 0-2.918.679-2.918 2.476h-1.84c0-2.796 2.359-4.232 4.718-4.232 2.519 0 4.758.639 4.758 3.474v7.028c0 .519.04 1.358.68 1.358h.679v1.517c-1.318.558-2.998.278-3.198-1.478z"/>
  <path fill="#fff" fill-rule="evenodd" d="M90.54 25.058c-2.199.2-4.199-.119-4.199-2.995v-8.665h-1.919v-1.637h1.919V6.969H88.3v4.792h2.24v1.637H88.3v7.907c0 1.956.52 1.996 2.24 1.837z" clip-rule="evenodd"/>
  <path fill="none" stroke="#fff" stroke-miterlimit="3.863" stroke-width=".28" d="M90.54 25.058c-2.199.2-4.199-.119-4.199-2.995v-8.665h-1.919v-1.637h1.919V6.969H88.3v4.792h2.24v1.637H88.3v7.907c0 1.956.52 1.996 2.24 1.837z"/>
  <path fill="#fff" fill-rule="evenodd" d="M95.018 17.351c0-2.076 1.519-4.073 3.519-4.073 2.398 0 3.558 1.677 3.558 4.073zm-2.08 1.038c0-4.153 2.56-6.988 5.599-6.988 3.277 0 5.637 2.437 5.637 5.95v1.757h-9.155c0 2.276 1.079 4.554 3.519 4.554 1.358 0 2.998-.92 3.397-2.437h1.999c-.439 2.477-2.758 4.313-5.396 4.313-4 .001-5.6-3.275-5.6-7.149" clip-rule="evenodd"/>
  <path fill="none" stroke="#fff" stroke-miterlimit="3.863" stroke-width=".28" d="M95.018 17.351c0-2.076 1.519-4.073 3.519-4.073 2.398 0 3.558 1.677 3.558 4.073zm-2.08 1.038c0-4.153 2.56-6.988 5.599-6.988 3.277 0 5.637 2.437 5.637 5.95v1.757h-9.155c0 2.276 1.079 4.554 3.519 4.554 1.358 0 2.998-.92 3.397-2.437h1.999c-.439 2.477-2.758 4.313-5.396 4.313-4 .001-5.6-3.275-5.6-7.149z"/>
  <path fill="#fff" fill-rule="evenodd" d="M106.932 25.058V11.761h1.999v1.836c.801-1.637 2.479-2.476 4.158-2.076v2.276c-1.839-.439-4.158.679-4.158 2.955v8.306z" clip-rule="evenodd"/>
  <path fill="none" stroke="#fff" stroke-miterlimit="3.863" stroke-width=".28" d="M106.932 25.058V11.761h1.999v1.836c.801-1.637 2.479-2.476 4.158-2.076v2.276c-1.839-.439-4.158.679-4.158 2.955v8.306z"/>
  <path fill="#fff" fill-rule="evenodd" d="M117.808 25.058h-1.96V6.968h1.96z" clip-rule="evenodd"/>
  <path fill="none" stroke="#fff" stroke-miterlimit="3.863" stroke-width=".28" d="M117.808 25.058h-1.96V6.968h1.96z"/>
  <path fill="#fff" fill-rule="evenodd" d="M126.403 23.622c-2.76 0-3.799-2.517-3.799-5.152 0-2.595 1.039-5.111 3.799-5.111s3.798 2.517 3.798 5.111c0 2.635-1.039 5.152-3.798 5.152m0 1.956c-3.838 0-5.838-3.314-5.838-7.108s2-7.108 5.838-7.108 5.837 3.315 5.837 7.108-1.999 7.108-5.837 7.108" clip-rule="evenodd"/>
  <path fill="none" stroke="#fff" stroke-miterlimit="3.863" stroke-width=".28" d="M126.403 23.622c-2.76 0-3.799-2.517-3.799-5.152 0-2.595 1.039-5.111 3.799-5.111s3.798 2.517 3.798 5.111c0 2.635-1.039 5.152-3.798 5.152zm0 1.956c-3.838 0-5.838-3.314-5.838-7.108s2-7.108 5.838-7.108 5.837 3.315 5.837 7.108-1.999 7.108-5.837 7.108z"/>
  <path fill="#fff" fill-rule="evenodd" d="M140.837 23.622c-2.759 0-3.799-2.517-3.799-5.152 0-2.595 1.04-5.111 3.799-5.111s3.797 2.517 3.797 5.111c0 2.635-1.039 5.152-3.797 5.152m0 1.956c-3.839 0-5.838-3.314-5.838-7.108s1.999-7.108 5.838-7.108 5.838 3.315 5.838 7.108-2 7.108-5.838 7.108" clip-rule="evenodd"/>
  <path fill="none" stroke="#fff" stroke-miterlimit="3.863" stroke-width=".28" d="M140.837 23.622c-2.759 0-3.799-2.517-3.799-5.152 0-2.595 1.04-5.111 3.799-5.111s3.797 2.517 3.797 5.111c0 2.635-1.039 5.152-3.797 5.152zm0 1.956c-3.839 0-5.838-3.314-5.838-7.108s1.999-7.108 5.838-7.108 5.838 3.315 5.838 7.108-2 7.108-5.838 7.108z"/>
  <path fill="none" stroke="#fff" stroke-miterlimit="3.863" stroke-width=".4" d="M4.378 33.484c-1.999 0-3.439-1.437-3.439-3.474V4.173C.939 2.137 2.538.578 4.498.578h139.218c.68 0 1.318.2 1.918.56l21.831 12.459c1.159.599 1.919 2.037 1.919 3.475 0 1.558-1 2.875-2.439 3.435l-21.43 12.379c-.641.32-1.239.559-1.84.559z"/>
  <path fill="#fff" d="M4.338 31.128c-.64 0-1.2-.52-1.2-1.118V4.093c0-.64.56-1.278 1.2-1.278H42.8v28.313z"/>
  <path fill="none" stroke="#fff" stroke-miterlimit="3.863" stroke-width=".2" d="M4.338 31.128c-.64 0-1.2-.52-1.2-1.118V4.093c0-.64.56-1.278 1.2-1.278H42.8v28.313z"/>
  <path d="m8.696 26.336 10.715-10.862v-1.478c0-.079.04 0 .04 0 0-.079-.04-.119-.12-.199-.04-.04-.12-.279-.04-.479 0-.04.04-.12.04-.24 0-.04-.16-.04-.16-.158 0-.12-.08-.24.04-.36s.439-.239.599-.239c.12 0 .2.04.32-.08.04-.04 0-.16-.08-.24-.04-.039 0-.238 0-.278.08-.08 0-.12-.12-.24-.16-.08-.16-.24-.16-.319 0-.04.04-.04.04-.239 0-.12 0-.32.08-.359.04-.12-.08-.28 0-.4.04-.198.12-.438.24-.479.04-.08.08-.08.08-.12.08-.08.12-.199.24-.199h.16c.04.119.04.119.16.119.08 0 .2 0 .24.08.08.16.12.16.24.16s.12-.04.16-.04c.12.04.2.16.2.358 0 .04-.08.12.16.16v.24h.199c.12 0 .12 0 .12.08.12.079 0 .279.24.479.16.119.12.159.2.119.32 0 .56-.199.88-.199.16 0 .28.08.52.08.239.039.399.238.519.238.12.04.24.24.36.16.08 0 .08-.04.12-.04.12-.08.24-.12.48-.12.32.04.4.36.4.6 0 .359-.28.639-.44.959-.08.04-.12.16-.12.238 0 0-.08.04 0 .04.16.08.32.2.32.32s-.04.16-.08.239c-.08.04-.08.24-.08.28 0 .079.12 0 .12 0v1.438l10.835 10.981H8.696z"/>
  <path fill="none" stroke="#120c0e" stroke-miterlimit="3.863" stroke-width=".08" d="m8.696 26.336 10.715-10.862v-1.478c0-.079.04 0 .04 0 0-.079-.04-.119-.12-.199-.04-.04-.12-.279-.04-.479 0-.04.04-.12.04-.24 0-.04-.16-.04-.16-.158 0-.12-.08-.24.04-.36s.439-.239.599-.239c.12 0 .2.04.32-.08.04-.04 0-.16-.08-.24-.04-.039 0-.238 0-.278.08-.08 0-.12-.12-.24-.16-.08-.16-.24-.16-.319 0-.04.04-.04.04-.239 0-.12 0-.32.08-.359.04-.12-.08-.28 0-.4.04-.198.12-.438.24-.479.04-.08.08-.08.08-.12.08-.08.12-.199.24-.199h.16c.04.119.04.119.16.119.08 0 .2 0 .24.08.08.16.12.16.24.16s.12-.04.16-.04c.12.04.2.16.2.358 0 .04-.08.12.16.16v.24h.199c.12 0 .12 0 .12.08.12.079 0 .279.24.479.16.119.12.159.2.119.32 0 .56-.199.88-.199.16 0 .28.08.52.08.239.039.399.238.519.238.12.04.24.24.36.16.08 0 .08-.04.12-.04.12-.08.24-.12.48-.12.32.04.4.36.4.6 0 .359-.28.639-.44.959-.08.04-.12.16-.12.238 0 0-.08.04 0 .04.16.08.32.2.32.32s-.04.16-.08.239c-.08.04-.08.24-.08.28 0 .079.12 0 .12 0v1.438l10.835 10.981H8.696z"/>
  <path fill="#fff" d="M25.249 11.721h.08l.04.119s0-.04 0 0c.12 0 .08.239 0 .319v.04h-.04v.08h-.08v.04l-.04.079c0 .04 0 .04-.08.04v.12c-.04 0-.04 0-.04.04h-.2v-.16c-.04-.159 0-.159 0-.359v-.119c0-.04.08-.12.12-.12l.12-.119z"/>
  <path fill="none" d="M25.249 11.721h.08l.04.119s0-.04 0 0c.12 0 .08.239 0 .319v.04h-.04v.08h-.08v.04l-.04.079c0 .04 0 .04-.08.04v.12c-.04 0-.04 0-.04.04h-.2v-.16c-.04-.159 0-.159 0-.359v-.119c0-.04.08-.12.12-.12l.12-.119z"/>
  <path fill="#fff" d="M23.609 13.917c0-.12.12-.16.24-.28.119-.279.119-.52.239-.64h.12v.12s.04 0 .04.12c-.04.12-.12.32-.12.439.08.08 0 .2.08.2 0 0 .04-.08.04 0 .08-.2.12-.319.2-.359.04-.12.12-.16.16-.16.08 0 .24.04.32.04 0 .12 0 .12.04.16v.199s0 .04-.04.12c0 0 0 .04-.08.04h-1.239z"/>
  <path fill="none" d="M23.609 13.917c0-.12.12-.16.24-.28.119-.279.119-.52.239-.64h.12v.12s.04 0 .04.12c-.04.12-.12.32-.12.439.08.08 0 .2.08.2 0 0 .04-.08.04 0 .08-.2.12-.319.2-.359.04-.12.12-.16.16-.16.08 0 .24.04.32.04 0 .12 0 .12.04.16v.199s0 .04-.04.12c0 0 0 .04-.08.04h-1.239z"/>
  <path fill="#fff" d="M23.009 13.917c0-.08.08-.08.08-.08.04 0 .12-.12.16-.16 0-.08.08-.08.12-.199.12-.24.12-.04.08-.32 0-.12-.08-.238-.08-.398-.12.04-.24.04-.36.16-.04.078-.16.078-.28.118-.08.08-.32 0-.36.08 0-.08 0-.08-.08-.08-.04.08-.04 0-.04 0h-.32c-.04 0-.04.08-.04.08-.08 0-.08.04-.119.04 0 0 0 .08-.08.08l.08-.08c-.08.08-.12.2-.12.2 0 .04-.08.08-.08.12 0 .119-.04.239-.04.319-.08.04-.08.04-.12.12z"/>
  <path fill="none" d="M23.009 13.917c0-.08.08-.08.08-.08.04 0 .12-.12.16-.16 0-.08.08-.08.12-.199.12-.24.12-.04.08-.32 0-.12-.08-.238-.08-.398-.12.04-.24.04-.36.16-.04.078-.16.078-.28.118-.08.08-.32 0-.36.08 0-.08 0-.08-.08-.08-.04.08-.04 0-.04 0h-.32c-.04 0-.04.08-.04.08-.08 0-.08.04-.119.04 0 0 0 .08-.08.08l.08-.08c-.08.08-.12.2-.12.2 0 .04-.08.08-.08.12 0 .119-.04.239-.04.319-.08.04-.08.04-.12.12z"/>
  <path fill="#fff" d="M19.931 12.959v-.16c.16-.12.36-.08.52.04l.72.08c0 .04-.04.078-.12.078-.04.2-.12.24-.04.44 0 .12.04.239-.2.439 0 0-.04 0-.04.04-.24 0-.32-.04-.56 0 .08-.12.08-.24.12-.28.119-.318-.04-.638-.4-.677"/>
  <path fill="none" d="M19.931 12.959v-.16c.16-.12.36-.08.52.04l.72.08c0 .04-.04.078-.12.078-.04.2-.12.24-.04.44 0 .12.04.239-.2.439 0 0-.04 0-.04.04-.24 0-.32-.04-.56 0 .08-.12.08-.24.12-.28.119-.318-.04-.638-.4-.677"/>
</svg>
