<svg xmlns="http://www.w3.org/2000/svg" xml:space="preserve" viewBox="0 0 68.607 102.338" role="img" aria-labelledby="title">
  <title id="title">Verkehrszeichen F60 - Indicating roofed over parking</title>
  <path fill="#0071b3" d="M8.046 0H60.65c4.383 0 7.957 3.563 7.957 7.933v86.564c0 4.341-3.574 7.842-7.957 7.842H7.986C3.573 102.338 0 98.777 0 94.437L.03 7.933C.03 3.563 3.633 0 8.046 0"/>
  <path fill="none" d="M8.046 0H60.65c4.383 0 7.957 3.563 7.957 7.933v86.564c0 4.341-3.574 7.842-7.957 7.842H7.986C3.573 102.338 0 98.777 0 94.437L.03 7.933C.03 3.563 3.633 0 8.046 0"/>
  <path fill="#fff" fill-rule="evenodd" d="M58.277 15.445c-3.963 0-6.424-4.25-4.443-7.663 1.982-3.383 6.906-3.383 8.857 0 1.982 3.413-.481 7.663-4.414 7.663" clip-rule="evenodd"/>
  <path fill="none" d="M58.277 15.445c-3.963 0-6.424-4.25-4.443-7.662 1.982-3.383 6.906-3.383 8.857 0 1.982 3.412-.481 7.662-4.414 7.662"/>
  <path fill="#fff" d="M65.814 94.377c0 2.844-2.313 5.147-5.104 5.147H7.926c-2.822 0-5.104-2.304-5.104-5.147V7.962c0-2.813 2.282-5.149 5.104-5.149h52.783c2.792 0 5.104 2.306 5.104 5.179z"/>
  <path fill="none" d="M65.814 94.377c0 2.843-2.313 5.147-5.104 5.147H7.926c-2.822 0-5.104-2.305-5.104-5.147V7.962c0-2.813 2.282-5.149 5.104-5.149h52.783c2.792 0 5.104 2.306 5.104 5.179z"/>
  <path fill="#0071b3" d="M63.532 94.856c0 1.438-1.201 2.574-2.612 2.574H7.626a2.55 2.55 0 0 1-2.552-2.574V7.513c0-1.407 1.141-2.574 2.552-2.574H60.98a2.553 2.553 0 0 1 2.552 2.574z"/>
  <path fill="none" d="M63.532 94.856c0 1.438-1.201 2.574-2.612 2.574H7.626a2.55 2.55 0 0 1-2.552-2.574V7.513c0-1.407 1.141-2.574 2.552-2.574H60.98a2.553 2.553 0 0 1 2.552 2.574z"/>
  <path fill="#fff" d="M10.659 76.658c-.96 0-1.772-.749-1.772-1.677V27.449c0-.958.781-1.707 1.742-1.707l47.589.03c.932.03 1.741.689 1.741 1.646v47.533c0 .927-.72 1.706-1.65 1.706h-47.65z"/>
  <path fill="none" d="M10.659 76.658c-.96 0-1.772-.749-1.772-1.677V27.449c0-.958.781-1.707 1.742-1.707l47.589.03c.932.03 1.741.689 1.741 1.646v47.533c0 .927-.719 1.706-1.65 1.706h-47.65z"/>
  <path fill="#fff" d="M24.35 51.903v20.564h5.915l.089-.869V58.249l.091-.33h8.857l.811-.149.72-.21 1.112-.478.39-.15.901-.599.93-.688.571-.569.809-.868.722-1.227.359-.689.271-.958.33-.958.091-.868.059-.837.031-1.137-.09-.959-.091-.988-.3-.867-.301-1.049-.509-.957-.572-.927-.719-.779-1.05-.868-.902-.569-.481-.24-.6-.268-1.441-.39-.451-.15H24.35z"/>
  <path fill="none" d="M24.35 51.903v20.564h5.915l.089-.869V58.249l.091-.33h8.857l.811-.149.72-.21 1.112-.478.39-.15.901-.599.93-.688.571-.569.809-.868.722-1.227.359-.689.271-.958.33-.958.091-.868.059-.837.031-1.137-.09-.959-.091-.988-.3-.867-.301-1.049-.509-.957-.572-.927-.718-.779-1.051-.868-.902-.569-.481-.24-.6-.268-1.441-.39-.451-.15H24.35z"/>
  <path fill="#120c0e" d="M24.35 51.903v20.564h5.915l.089-.869V58.249l.091-.33h8.857l.811-.149.72-.21 1.112-.478.39-.15.901-.599.93-.688.571-.569.809-.868.722-1.227.359-.689.271-.958.33-.958.091-.868.059-.837.031-1.137-.09-.959-.091-.988-.3-.867-.301-1.049-.509-.957-.572-.927-.719-.779-1.05-.868-.902-.569-.481-.24-.6-.268-1.441-.39-.451-.15H24.35z"/>
  <path fill="none" d="M24.35 51.903v20.564h5.915l.089-.869V58.249l.091-.33h8.857l.811-.149.72-.21 1.112-.478.39-.15.901-.599.93-.688.571-.569.809-.868.722-1.227.359-.689.271-.958.33-.958.091-.868.059-.837.031-1.137-.09-.959-.091-.988-.3-.867-.301-1.049-.509-.957-.572-.927-.718-.779-1.051-.868-.902-.569-.481-.24-.6-.268-1.441-.39-.451-.15H24.35z"/>
  <path fill="#fff" d="m41.103 48.851-.27.957-.72.927-.871.809-.991.269h-7.596l-.09-.958v-6.524l.96-.09h5.916l.96.09.751.239.271.06.81.688.36.419.24.33.27.568.09.957-.09.959z"/>
  <path fill="none" d="m41.103 48.851-.27.957-.72.927-.871.809-.991.269h-7.596l-.09-.958v-6.524l.96-.09h5.916l.96.09.751.239.271.06.81.688.36.419.24.33.27.568.09.957-.09.959z"/>
  <path fill="#120c0e" d="m12.641 37.207 21.707-9.789 21.708 9.789-4.414 2.064-17.264-7.932-16.934 7.784z"/>
  <path fill="none" d="m12.641 37.207 21.707-9.789 21.708 9.789-4.414 2.064-17.264-7.932-16.934 7.784z"/>
  <path fill="#120c0e" fill-rule="evenodd" d="M56.357 47.024h-4.234v-9.668h4.234z" clip-rule="evenodd"/>
  <path fill="none" d="M56.357 47.024h-4.234v-9.668h4.234z"/>
  <path fill="#120c0e" fill-rule="evenodd" d="M16.964 47.024H12.55v-9.668h4.414z" clip-rule="evenodd"/>
  <path fill="none" d="M16.964 47.024H12.55v-9.668h4.414z"/>
</svg>
