<svg xmlns="http://www.w3.org/2000/svg" xmlns:xlink="http://www.w3.org/1999/xlink" xml:space="preserve" viewBox="0 0 120.503 142.67" role="img" aria-labelledby="title">
  <title id="title">Verkehrszeichen F83 - Temporary road works sign indicating crossing of median on dual carriageway</title>
  <path fill="#f89646" fill-rule="evenodd" d="M5.123 142.61c-4.018 0-5.062-3.134-5.062-5.906V5.645C.061.864 2.31.061 4.721.061h110.528c3.696 0 4.58 2.732 4.58 5.584v131.501c0 3.174-1.045 5.464-5.384 5.464z" clip-rule="evenodd"/>
  <path fill="none" stroke="#f89646" stroke-miterlimit="3.863" stroke-width=".121" d="M5.123 142.61c-4.018 0-5.062-3.134-5.062-5.906V5.645C.061.864 2.31.061 4.721.061h110.528c3.696 0 4.58 2.732 4.58 5.584v131.501c0 3.174-1.045 5.464-5.384 5.464z"/>
  <path fill="none" stroke="#120c0e" stroke-miterlimit="3.863" stroke-width="1.004" d="M4.319 141.204c-1.366 0-2.812-1.205-2.812-3.335V4.962c0-1.928 1.286-3.375 2.893-3.375h111.09c1.607 0 2.813 1.447 2.813 3.375v132.827c0 1.889-1.205 3.415-2.813 3.415z"/>
  <path fill="#120c0e" d="M20.069 119.507h2.973v17.076h-2.973v-12.496h-1.607v-1.726z"/>
  <path fill="none" d="M20.069 119.507h2.973v17.076h-2.973v-12.496h-1.607v-1.726z"/>
  <path fill="#120c0e" d="M32.524 132.325c0 1.004 1.366 2.21 2.491 2.169 1.607-.04 2.892-1.245 2.892-2.812v-.805c0-1.566-1.285-2.812-2.892-2.812a2.75 2.75 0 0 0-2.411 1.406h-2.893v-9.844h9.804v2.772h-6.911v3.294a6 6 0 0 1 2.571-.563c3.375 0 6.107 2.732 6.107 6.067a6.104 6.104 0 0 1-6.107 6.107c-2.973 0-5.544-2.13-6.026-4.982h3.375z"/>
  <path fill="none" d="M32.524 132.325c0 1.004 1.366 2.21 2.491 2.169 1.607-.04 2.892-1.245 2.892-2.812v-.805c0-1.566-1.285-2.812-2.892-2.812a2.75 2.75 0 0 0-2.411 1.406h-2.893v-9.844h9.804v2.772h-6.911v3.294a6 6 0 0 1 2.571-.563c3.375 0 6.107 2.732 6.107 6.067a6.104 6.104 0 0 1-6.107 6.107c-2.973 0-5.544-2.13-6.026-4.982h3.375z"/>
  <path fill="#120c0e" d="M58.398 125.293v5.986c0 3.295-2.732 6.027-6.027 6.027a6.02 6.02 0 0 1-6.026-6.027v-5.826a5.99 5.99 0 0 1 6.026-6.026c3.295 0 6.027 2.692 6.027 6.026z"/>
  <path fill="none" d="M58.398 125.293v5.986c0 3.295-2.732 6.027-6.027 6.027a6.02 6.02 0 0 1-6.026-6.027v-5.826a5.99 5.99 0 0 1 6.026-6.026c3.295 0 6.027 2.692 6.027 6.026z"/>
  <path fill="#f89646" d="M55.103 125.012v6.63a2.735 2.735 0 0 1-2.732 2.731 2.735 2.735 0 0 1-2.732-2.731v-6.55a2.71 2.71 0 0 1 2.732-2.731 2.71 2.71 0 0 1 2.732 2.731z"/>
  <path fill="none" d="M55.103 125.012v6.63a2.735 2.735 0 0 1-2.732 2.731 2.735 2.735 0 0 1-2.732-2.731v-6.55a2.71 2.71 0 0 1 2.732-2.731 2.71 2.71 0 0 1 2.732 2.731z"/>
  <path fill="#120c0e" d="M75.794 125.454v5.987a6.02 6.02 0 0 1-6.027 6.025c-3.295 0-6.026-2.731-6.026-6.025v-5.826c0-3.335 2.731-6.026 6.026-6.026a5.993 5.993 0 0 1 6.027 6.026z"/>
  <path fill="none" d="M75.794 125.454v5.987a6.02 6.02 0 0 1-6.027 6.025c-3.295 0-6.026-2.731-6.026-6.025v-5.826c0-3.335 2.731-6.026 6.026-6.026a5.993 5.993 0 0 1 6.027 6.026z"/>
  <path fill="#f89646" d="M72.5 125.172v6.63a2.735 2.735 0 0 1-2.732 2.732 2.735 2.735 0 0 1-2.731-2.732v-6.549a2.71 2.71 0 0 1 2.731-2.732 2.71 2.71 0 0 1 2.732 2.732z"/>
  <path fill="none" d="M72.5 125.172v6.63a2.735 2.735 0 0 1-2.732 2.732 2.735 2.735 0 0 1-2.731-2.732v-6.549a2.71 2.71 0 0 1 2.731-2.732 2.71 2.71 0 0 1 2.732 2.732z"/>
  <path fill="#120c0e" d="M88.41 125.454c.643-.763 1.688-1.285 2.893-1.285 1.527 0 2.894.924 3.537 2.21.642-1.286 2.008-2.21 3.534-2.21 2.171 0 3.938 1.769 3.938 3.978v8.679h-2.733v-8.076c0-1.165-.964-2.129-2.089-2.129-1.205 0-2.169.964-2.169 2.129v8.076h-2.813v-8.197c0-1.165-.963-2.129-2.088-2.129-1.205 0-2.17.964-2.17 2.129v8.116h-2.893v-12.053h2.973v.763h.08z"/>
  <path fill="none" d="M88.41 125.454c.643-.763 1.688-1.285 2.893-1.285 1.527 0 2.894.924 3.537 2.21.642-1.286 2.008-2.21 3.534-2.21 2.171 0 3.938 1.769 3.938 3.978v8.679h-2.733v-8.076c0-1.165-.964-2.129-2.089-2.129-1.205 0-2.169.964-2.169 2.129v8.076h-2.813v-8.197c0-1.165-.963-2.129-2.088-2.129-1.205 0-2.17.964-2.17 2.129v8.116h-2.893v-12.053h2.973v.763h.08z"/>
  <path fill="none" stroke="#120c0e" stroke-miterlimit="3.863" stroke-width="1.205" d="M1.828 115.208h116.474"/>
  <path fill="none" stroke="#120c0e" stroke-miterlimit="3.863" stroke-width="1.004" d="M1.507 119.066c0-2.129 1.687-3.817 3.777-3.817"/>
  <path fill="#120c0e" fill-rule="evenodd" d="M2.913 116.656H1.748v-1.165h1.165z" clip-rule="evenodd"/>
  <path fill="none" d="M2.913 116.656H1.748v-1.165h1.165z"/>
  <path fill="none" stroke="#120c0e" stroke-miterlimit="3.863" stroke-width="1.004" d="M5.364 115.168a3.77 3.77 0 0 1-3.777-3.776"/>
  <path fill="#120c0e" fill-rule="evenodd" d="M2.752 115.007H1.586v-1.165h1.166z" clip-rule="evenodd"/>
  <path fill="none" d="M2.752 115.007H1.586v-1.165h1.166z"/>
  <path fill="none" stroke="#120c0e" stroke-miterlimit="3.863" stroke-width="1.004" d="M118.302 111.352a3.77 3.77 0 0 1-3.777 3.776m0 .162a3.77 3.77 0 0 1 3.777 3.776"/>
  <path fill="#120c0e" fill-rule="evenodd" d="M118.181 115.128h-1.164v-1.205h1.164z" clip-rule="evenodd"/>
  <path fill="none" d="M118.181 115.128h-1.164v-1.205h1.164z"/>
  <path fill="#fff" d="M117.417 115.571h.804v.683h-.804z"/>
  <defs>
    <path id="a" d="M117.417 115.571h.805v.683h-.805z"/>
  </defs>
  <clipPath id="b">
    <use xlink:href="#a" overflow="visible"/>
  </clipPath>
  <g clip-path="url(#b)">
    <defs>
      <path id="c" d="M117.417 113.167h3.086v3.086h-3.086z"/>
    </defs>
  </g>
  <path fill="none" stroke="#120c0e" stroke-miterlimit="3.863" stroke-width="1.004" d="M118.222 116.253h-.805v-.683h.805z"/>
  <path fill="#120c0e" d="M30.676 23.283h7.553L27.06 4.681 15.89 23.283h7.313v12.616l66.814 66.814v9.563h7.433V99.701L30.635 32.886v-9.563z"/>
  <path fill="none" stroke="#120c0e" stroke-miterlimit="3.863" stroke-width=".522" d="M30.676 23.283h7.553L27.06 4.681 15.89 23.283h7.313v12.616l66.814 66.814v9.563h7.433V99.701L30.635 32.886v-9.563z"/>
  <path fill="#120c0e" d="M51.246 4.681v28.486c0 4.741 3.817 8.559 8.518 8.559a8.54 8.54 0 0 0 8.558-8.559V4.681z"/>
  <path fill="none" d="M51.246 4.681v28.486c0 4.741 3.817 8.559 8.518 8.559a8.54 8.54 0 0 0 8.558-8.559V4.681z"/>
  <path fill="#120c0e" d="M51.367 112.196v-11.451c0-4.7 3.817-8.477 8.558-8.477 4.7 0 8.517 3.776 8.517 8.477v11.371z"/>
  <path fill="none" d="M51.367 112.196v-11.451c0-4.7 3.817-8.477 8.558-8.477 4.7 0 8.517 3.776 8.517 8.477v11.371z"/>
</svg>
