<svg xmlns="http://www.w3.org/2000/svg" xml:space="preserve" viewBox="0 0 199.563 25.294" role="img" aria-labelledby="title">
  <title id="title">Verkehrszeichen F37 - Arrow indicating direction of a hotel, motel, youth hostel, camping terrain, restaurant...</title>
  <path fill="#fff200" d="M199.356 3.735v17.677a3.72 3.72 0 0 1-3.749 3.734H3.867a3.713 3.713 0 0 1-3.72-3.734V3.853A3.71 3.71 0 0 1 3.867.147h191.798c2.08 0 3.751 1.647 3.751 3.706z"/>
  <path fill="none" stroke="#fff200" stroke-miterlimit="3.863" stroke-width=".294" d="M199.356 3.735v17.677a3.72 3.72 0 0 1-3.749 3.734H3.867a3.713 3.713 0 0 1-3.72-3.734V3.853A3.707 3.707 0 0 1 3.867.147h191.798c2.08 0 3.751 1.647 3.751 3.706z"/>
  <path fill="#955436" d="M186.791 13.648v3.97l8.289-4.97-8.289-5.031v3.971h-8.35v2.06z"/>
  <path fill="none" stroke="#955436" stroke-miterlimit="3.863" stroke-width=".294" d="M186.791 13.648v3.97l8.289-4.971-8.289-5.03v3.971h-8.35v2.06z"/>
  <path fill="#955436" fill-rule="evenodd" d="m73.112 17.765 2.284-8.589h2.52c2.46 0 2.167 2.529 1.699 4.295-.469 1.765-1.523 4.294-3.984 4.294zm.351-10.941-3.544 13.294h5.507c3.368 0 5.946-3.117 6.883-6.646s.03-6.647-3.339-6.647h-5.507z" clip-rule="evenodd"/>
  <path fill="none" stroke="#955436" stroke-miterlimit="3.863" stroke-width=".294" d="m73.112 17.765 2.284-8.589h2.52c2.46 0 2.167 2.529 1.699 4.295-.469 1.765-1.523 4.294-3.984 4.294zm.351-10.941-3.544 13.294h5.507c3.368 0 5.946-3.117 6.883-6.646s.03-6.647-3.339-6.647h-5.507z"/>
  <path fill="#955436" fill-rule="evenodd" d="M90.774 14.5h-3.486c.234-.971 1.114-1.912 2.227-1.912 1.142 0 1.552.765 1.259 1.912m2.051 1.648.292-1.089c.673-2.5-.38-4.5-3.046-4.5-2.841 0-4.775 2.176-5.507 4.941-.731 2.736.03 4.912 2.871 4.912 2.314 0 4.013-1.323 5.068-3.059h-2.49c-.439.794-1.2 1.059-2.05 1.059-1.025 0-1.464-1.207-1.172-2.265h6.034z" clip-rule="evenodd"/>
  <path fill="none" stroke="#955436" stroke-miterlimit="3.863" stroke-width=".294" d="M90.774 14.5h-3.486c.234-.971 1.114-1.912 2.227-1.912 1.142 0 1.552.765 1.259 1.912zm2.051 1.648.292-1.089c.673-2.5-.38-4.5-3.046-4.5-2.841 0-4.775 2.177-5.507 4.941-.731 2.736.03 4.912 2.871 4.912 2.314 0 4.012-1.324 5.067-3.059h-2.49c-.439.794-1.2 1.059-2.05 1.059-1.025 0-1.464-1.207-1.172-2.265h6.035z"/>
  <path fill="#955436" fill-rule="evenodd" d="M107.441 14.265h3.104c1.582 0 1.846.765 1.582 1.765-.264 1.03-.937 1.795-2.519 1.795h-3.105zm.586-2.205.761-2.883h3.251c.85 0 1.465.471 1.201 1.441s-1.113 1.442-1.962 1.442zm-1.142-5.236-3.545 13.294h5.916c2.402 0 4.863-1.323 5.625-4.205.352-1.295-.029-2.412-1.143-2.941 1.055-.412 1.845-1.294 2.227-2.766.586-2.146-.762-3.382-3.164-3.382z" clip-rule="evenodd"/>
  <path fill="none" stroke="#955436" stroke-miterlimit="3.863" stroke-width=".294" d="M107.441 14.265h3.104c1.581 0 1.845.765 1.581 1.765-.264 1.03-.937 1.795-2.519 1.795h-3.105zm.586-2.205.761-2.883h3.251c.85 0 1.465.471 1.201 1.441s-1.113 1.442-1.962 1.442zm-1.142-5.236-3.545 13.294h5.916c2.402 0 4.863-1.323 5.625-4.205.352-1.295-.029-2.412-1.143-2.941 1.055-.412 1.845-1.294 2.227-2.766.586-2.146-.762-3.382-3.164-3.382z"/>
  <path fill="#955436" fill-rule="evenodd" d="m122.994 15.677-.146.617c-.41 1.442-1.347 2.206-2.637 2.206-.614 0-1.024-.323-.82-1.088.41-1.53 2.432-1.058 3.603-1.735m-.879 3.353c-.059.412-.088.707-.029 1.088h2.49l.088-.411c-.264-.206-.293-.529-.029-1.501l1.259-4.676c.675-2.589-1.347-2.941-2.958-2.941-2.051 0-4.012.912-4.54 2.941l-.058.235h2.225c.176-.823 1.026-1.265 1.846-1.265.527 0 1.318.235 1.172.824l-.146.469c-.352 1.384-5.33-.44-6.444 3.767-.556 2.058.557 2.823 1.963 2.823.994 0 2.282-.441 3.161-1.353" clip-rule="evenodd"/>
  <path fill="none" stroke="#955436" stroke-miterlimit="3.863" stroke-width=".294" d="m122.994 15.676-.146.618c-.41 1.442-1.347 2.206-2.637 2.206-.614 0-1.024-.323-.82-1.088.41-1.53 2.432-1.058 3.603-1.736zm-.879 3.354c-.059.412-.088.707-.029 1.088h2.49l.088-.411c-.264-.206-.293-.529-.029-1.501l1.259-4.676c.675-2.589-1.347-2.941-2.958-2.941-2.051 0-4.012.912-4.54 2.941l-.058.235h2.225c.176-.823 1.026-1.265 1.846-1.265.527 0 1.318.235 1.172.824l-.146.469c-.352 1.383-5.33-.44-6.444 3.767-.556 2.058.557 2.823 1.963 2.823.994 0 2.282-.441 3.161-1.353z"/>
  <path fill="#955436" fill-rule="evenodd" d="m131.605 12.441.41-1.588h-2.167l-2.461 9.265h2.313l1.318-4.97c.352-1.295 1.494-2.06 2.52-2.06h.82l.645-2.441h-.645c-1.2 0-2.136.853-2.753 1.794" clip-rule="evenodd"/>
  <path fill="none" stroke="#955436" stroke-miterlimit="3.863" stroke-width=".294" d="m131.605 12.441.41-1.588h-2.167l-2.461 9.265h2.313l1.318-4.97c.352-1.295 1.494-2.06 2.52-2.06h.82l.645-2.441h-.645c-1.2 0-2.136.853-2.753 1.794z"/>
  <path fill="#955436" fill-rule="evenodd" d="m139.514 12.441.41-1.588h-2.167l-2.46 9.265h2.313l1.318-4.97c.351-1.295 1.493-2.06 2.519-2.06h.82l.645-2.441h-.645c-1.201 0-2.137.853-2.753 1.794" clip-rule="evenodd"/>
  <path fill="none" stroke="#955436" stroke-miterlimit="3.863" stroke-width=".294" d="m139.514 12.441.41-1.588h-2.167l-2.46 9.265h2.313l1.318-4.97c.351-1.295 1.493-2.06 2.519-2.06h.82l.645-2.441h-.645c-1.201 0-2.137.853-2.753 1.794z"/>
  <path fill="#955436" fill-rule="evenodd" d="m145.666 10.853-2.461 9.265h2.461l2.461-9.265z" clip-rule="evenodd"/>
  <path fill="none" stroke="#955436" stroke-miterlimit="3.863" stroke-width=".294" d="m145.666 10.853-2.461 9.265h2.461l2.461-9.265z"/>
  <path fill="#955436" fill-rule="evenodd" d="m146.749 6.824-.645 2.383h2.461l.645-2.383z" clip-rule="evenodd"/>
  <path fill="none" stroke="#955436" stroke-miterlimit="3.863" stroke-width=".294" d="m146.749 6.824-.645 2.383h2.461l.645-2.383z"/>
  <path fill="#955436" fill-rule="evenodd" d="M155.977 14.5h-3.486c.234-.971 1.113-1.912 2.227-1.912 1.141 0 1.552.765 1.259 1.912m2.05 1.648.291-1.089c.674-2.5-.379-4.5-3.045-4.5-2.842 0-4.775 2.176-5.506 4.941-.733 2.736.028 4.912 2.869 4.912 2.314 0 4.013-1.323 5.067-3.059h-2.489c-.439.794-1.201 1.059-2.051 1.059-1.025 0-1.465-1.207-1.172-2.265h6.036z" clip-rule="evenodd"/>
  <path fill="none" stroke="#955436" stroke-miterlimit="3.863" stroke-width=".294" d="M155.977 14.5h-3.486c.234-.971 1.113-1.912 2.227-1.912 1.141 0 1.552.765 1.259 1.912zm2.05 1.648.291-1.089c.674-2.5-.379-4.5-3.045-4.5-2.842 0-4.775 2.177-5.506 4.941-.733 2.736.028 4.912 2.869 4.912 2.314 0 4.013-1.324 5.068-3.059h-2.49c-.439.794-1.201 1.059-2.051 1.059-1.025 0-1.465-1.207-1.172-2.265h6.036z"/>
  <path fill="#955436" fill-rule="evenodd" d="m163.973 12.441.41-1.588h-2.168l-2.46 9.265h2.313l1.318-4.97c.352-1.295 1.494-2.06 2.52-2.06h.819l.645-2.441h-.645c-1.2 0-2.137.853-2.752 1.794" clip-rule="evenodd"/>
  <path fill="none" stroke="#955436" stroke-miterlimit="3.863" stroke-width=".294" d="m163.973 12.441.41-1.588h-2.168l-2.46 9.265h2.313l1.318-4.97c.352-1.295 1.494-2.06 2.52-2.06h.819l.645-2.441h-.645c-1.2 0-2.137.853-2.752 1.794z"/>
  <path fill="#fff" d="M3.663 22.766a1.39 1.39 0 0 1-1.406-1.412V3.794C2.256 3 2.9 2.382 3.691 2.382H52.08v20.354H3.691z"/>
  <path fill="none" stroke="#fff" stroke-miterlimit="3.863" stroke-width=".294" d="M3.663 22.766a1.39 1.39 0 0 1-1.406-1.412V3.794C2.256 3 2.9 2.382 3.691 2.382H52.08v20.354H3.691z"/>
  <path fill="#120c0e" d="m31.108 9.383 2.694-2.824-.264-.294-2.636 2.559-.322-.324 2.549-2.617-.322-.354L30.2 8.147l-.322-.324 2.548-2.677-.293-.323-2.637 2.647-.351-.383 2.578-2.618-.264-.294-2.841 2.735c-.557.647-.585 1.265-.703 2.029a2 2 0 0 1-.556 1.147l-1.26 1.295-.586-.53c-.498-.412-1.083-1.206-1.083-1.912 0-1.441-.527-4.441-3.456-4.706-1.435-.117-2.665 1.176-2.578 2.617.117 2.088 2.138 3.353 3.75 3.588.82.119 2.343.677 2.578 1.177l.527.559-7.147 7.148c-.146.176-.264.382-.264.646 0 .471.381.854.849.854.264 0 .498-.088.645-.235l6.766-7.53 6.914 7.559c.146.148.38.236.644.236a.854.854 0 0 0 .851-.854c0-.264-.118-.471-.265-.646l-7.323-7.206 1.202-1.383c.351-.265.761-.56 1.259-.647.467-.057 1.198-.087 1.726-.733"/>
  <path fill="none" d="m31.108 9.383 2.694-2.824-.264-.295-2.636 2.56-.322-.324 2.549-2.617-.322-.354L30.2 8.147l-.322-.324 2.548-2.677-.293-.324-2.637 2.648-.351-.383 2.578-2.618-.264-.294-2.841 2.735c-.557.647-.586 1.265-.704 2.029a2 2 0 0 1-.556 1.147l-1.26 1.295-.586-.53c-.498-.412-1.083-1.206-1.083-1.912 0-1.441-.527-4.441-3.456-4.706-1.435-.117-2.665 1.176-2.578 2.617.117 2.088 2.138 3.353 3.75 3.588.82.118 2.343.677 2.578 1.177l.527.559-7.147 7.148c-.146.176-.264.382-.264.646 0 .471.381.854.849.854.264 0 .498-.088.645-.235l6.766-7.53 6.914 7.559c.146.148.38.236.644.236a.854.854 0 0 0 .851-.854c0-.264-.118-.471-.265-.646l-7.323-7.207 1.202-1.383c.351-.265.761-.559 1.259-.647.468-.056 1.199-.086 1.727-.732"/>
</svg>
