<svg xmlns="http://www.w3.org/2000/svg" xml:space="preserve" viewBox="0 0 143.779 38.545" role="img" aria-labelledby="title">
  <title id="title">Verkehrszeichen F33a - Arrow indicating direction of a place (airport, port, industrial area...)</title>
  <path fill="none" stroke="#000" stroke-miterlimit="3.863" stroke-width=".179" d="M5.452 38.455c-2.86 0-5.304-2.7-5.304-5.58"/>
  <path fill-rule="evenodd" d="M49.247 11.335h-3.754v-3.78h3.754z" clip-rule="evenodd"/>
  <path fill="none" stroke="#000" stroke-miterlimit="3.863" stroke-width=".179" d="M49.247 11.335h-3.754v-3.78h3.754z"/>
  <path fill-rule="evenodd" d="M49.247 31.255h-3.992V13.976h3.992z" clip-rule="evenodd"/>
  <path fill="none" stroke="#000" stroke-miterlimit="3.863" stroke-width=".179" d="M49.247 31.255h-3.992V13.976h3.992z"/>
  <path d="M59.436 15.354c.894-1.14 2.324-1.8 3.814-1.8 2.918 0 5.362 2.521 5.362 5.521v12.24h-3.694V20.154c0-1.56-1.132-2.819-2.741-2.819-1.608 0-2.741 1.26-2.741 2.819v11.041h-4.112v-17.22h4.112z"/>
  <path fill="none" stroke="#000" stroke-miterlimit="3.863" stroke-width=".179" d="M59.436 15.354c.894-1.14 2.324-1.8 3.814-1.8 2.919 0 5.362 2.521 5.362 5.521v12.24h-3.694V20.154c0-1.56-1.132-2.819-2.741-2.819-1.608 0-2.741 1.26-2.741 2.819v11.041h-4.112v-17.22h4.112z"/>
  <path d="M77.431 33.595c.476.78 1.251 1.2 2.203 1.2 1.49 0 2.742-1.26 2.742-2.76v-2.58c-1.014.721-2.264 1.2-3.516 1.2-3.336 0-5.959-2.7-5.959-6.061v-4.98c0-3.299 2.623-5.999 5.959-5.999 1.252 0 2.502.42 3.516 1.14v-1.2h3.754v18.301c0 3.24-2.682 5.939-5.84 5.939h-.774c-1.847 0-3.516-.84-4.588-2.22z"/>
  <path fill="none" stroke="#000" stroke-miterlimit="3.863" stroke-width=".179" d="M77.431 33.595c.476.78 1.251 1.2 2.203 1.2 1.49 0 2.742-1.26 2.742-2.76v-2.58c-1.014.721-2.264 1.2-3.516 1.2-3.336 0-5.959-2.7-5.959-6.061v-4.98c0-3.299 2.623-5.999 5.959-5.999 1.252 0 2.502.42 3.516 1.14v-1.2h3.754v18.301c0 3.24-2.682 5.939-5.84 5.939h-.773c-1.848 0-3.517-.84-4.589-2.22z"/>
  <path fill="#fff" d="M82.436 23.995c0 1.439-1.192 2.819-2.741 2.819s-2.681-1.38-2.681-2.819v-3.96c0-1.561 1.132-2.761 2.681-2.761s2.741 1.2 2.741 2.761z"/>
  <path fill="none" stroke="#fff" stroke-miterlimit="3.863" stroke-width=".179" d="M82.436 23.995c0 1.439-1.192 2.819-2.741 2.819s-2.681-1.38-2.681-2.819v-3.96c0-1.561 1.132-2.761 2.681-2.761s2.741 1.2 2.741 2.761z"/>
  <path d="m41.024 31.135-4.35.12-6.019-10.26h-2.264v10.2H24.28v-23.7h9.534c3.516 0 6.316 2.82 6.316 6.359 0 3.12-2.204 5.701-5.124 6.241z"/>
  <path fill="none" stroke="#000" stroke-miterlimit="3.863" stroke-width=".179" d="m41.024 31.135-4.35.12-6.018-10.26h-2.264v10.2H24.28v-23.7h9.534c3.516 0 6.316 2.82 6.316 6.359 0 3.12-2.205 5.701-5.125 6.241z"/>
  <path fill="#fff" d="M28.392 11.095h4.886c1.608 0 2.92 1.38 2.92 3.06 0 1.621-1.312 2.94-2.92 2.94h-4.886v-6.06z"/>
  <path fill="none" stroke="#fff" stroke-miterlimit="3.863" stroke-width=".179" d="M28.392 11.095h4.886c1.608 0 2.92 1.38 2.92 3.06 0 1.621-1.312 2.94-2.92 2.94h-4.886v-6.06z"/>
  <path fill="none" stroke="#000" stroke-miterlimit="3.863" stroke-width=".179" d="M5.511 38.455h97.064c1.43-.24 2.025-.24 3.337-.779l34.679-14.221c1.787-.72 3.098-2.46 3.098-4.44 0-1.799-.893-3.539-2.383-4.14L107.164 1.016a11.6 11.6 0 0 0-5.363-.9H5.273c-2.86 0-5.184 2.34-5.184 5.22v27.54"/>
  <path d="M3.306 32.216V6.115c0-1.62 1.251-2.88 2.86-2.88h96.351c1.012 0 1.728.12 2.502.66l20.14 13.32c.536.358.835 1.079.835 1.859 0 .84-.358 1.56-.895 1.92l-20.616 13.14c-.775.479-1.728.721-2.741.721H88.275v1.8h13.408c1.25.18 2.859-.54 3.693-.9l34.44-13.92c1.072-.42 1.906-1.56 1.906-2.82 0-1.199-.774-2.34-1.788-2.76l-34.022-13.92c-.834-.36-2.622-.961-3.694-.78H5.988c-2.443 0-4.41 1.98-4.41 4.439v26.521c0 2.34 2.146 4.499 4.588 4.499h66.855v-1.68H6.345c-1.609.001-3.039-1.499-3.039-3.118"/>
  <path fill="none" stroke="#000" stroke-miterlimit="3.863" stroke-width=".179" d="M3.306 32.216V6.115c0-1.62 1.251-2.88 2.86-2.88h96.351c1.012 0 1.728.12 2.502.66l20.14 13.32c.536.358.835 1.079.835 1.859 0 .84-.358 1.56-.895 1.92l-20.616 13.14c-.775.479-1.728.721-2.741.721H88.275v1.8h13.408c1.25.18 2.859-.54 3.693-.9l34.44-13.92c1.072-.42 1.906-1.56 1.906-2.82 0-1.199-.774-2.34-1.788-2.76l-34.022-13.92c-.834-.36-2.622-.961-3.694-.78H5.988c-2.443 0-4.41 1.98-4.41 4.439v26.521c0 2.34 2.146 4.499 4.588 4.499h66.855v-1.68H6.345c-1.609.001-3.039-1.499-3.039-3.118z"/>
</svg>
