<svg xmlns="http://www.w3.org/2000/svg" xml:space="preserve" viewBox="0 0 101.904 102.023" role="img" aria-labelledby="title">
  <title id="title">Verkehrszeichen F50 - Bicycle and moped crossing</title>
  <path fill="#0071b3" d="M7.635.1h86.674c4.147.04 7.496 3.389 7.496 7.535v86.874c0 4.066-3.349 7.415-7.416 7.415H7.595C3.449 101.924.1 98.575.1 94.549V7.635A7.487 7.487 0 0 1 7.595.14z"/>
  <path fill="none" stroke="#0071b3" stroke-miterlimit="3.863" stroke-width=".199" d="M7.635.1h86.674c4.147.04 7.496 3.389 7.496 7.535v86.874c0 4.066-3.349 7.415-7.416 7.415H7.595C3.449 101.924.1 98.575.1 94.549V7.635A7.487 7.487 0 0 1 7.595.14z"/>
  <path fill="#fff" d="m7.595 1.934 86.714.079c3.07 0 5.662 2.512 5.662 5.622v86.914c0 3.069-2.592 5.62-5.662 5.62l-87.153-.158c-2.91 0-5.143-2.354-5.143-5.223L1.894 7.595c0-3.071 2.551-5.661 5.701-5.661"/>
  <path fill="none" stroke="#fff" stroke-miterlimit="3.863" stroke-width=".199" d="m7.595 1.934 86.714.079c3.07 0 5.662 2.512 5.662 5.622v86.914c0 3.069-2.592 5.62-5.662 5.62l-87.153-.158c-2.91 0-5.143-2.354-5.143-5.223L1.894 7.595c0-3.071 2.551-5.661 5.701-5.661z"/>
  <path fill="#0071b3" d="m7.595 3.647 86.714.04c2.153 0 3.947 1.794 3.947 3.947v86.914c0 2.153-1.794 3.946-3.947 3.946H7.595c-2.153 0-3.947-1.793-3.947-3.946V7.595c0-2.154 1.794-3.948 3.947-3.948"/>
  <path fill="none" stroke="#0071b3" stroke-miterlimit="3.863" stroke-width=".199" d="m7.595 3.647 86.714.04c2.153 0 3.947 1.794 3.947 3.947v86.914c0 2.153-1.794 3.946-3.947 3.946H7.595c-2.153 0-3.947-1.793-3.947-3.946V7.595c0-2.154 1.794-3.948 3.947-3.948z"/>
  <path fill="#fff" fill-rule="evenodd" d="m9.947 84.421 39.55-68.533 39.59 68.533z" clip-rule="evenodd"/>
  <path fill="none" d="m9.947 84.421 39.55-68.533 39.59 68.533z"/>
  <path fill="none" stroke="#120c0e" stroke-miterlimit="3.863" stroke-width=".399" d="M55.358 71.942c-.041-.279-.041-.558-.041-.877 0-5.82 4.705-10.525 10.525-10.525 4.346 0 8.055 2.631 9.648 6.42"/>
  <path fill="#120c0e" d="m56.075 71.265-2.192-.04v-.757h2.192c.318-5.104 4.584-9.21 9.768-9.21 3.35 0 6.299 1.715 8.055 4.266l.558-.278.397.598-.558.318a9.65 9.65 0 0 1 1.315 4.864c0 5.382-4.386 9.769-9.768 9.769-5.262-.001-9.607-4.268-9.767-9.53"/>
  <path fill="none" d="m56.075 71.265-2.192-.04v-.757h2.192c.318-5.104 4.584-9.21 9.768-9.21 3.35 0 6.299 1.715 8.055 4.266l.558-.278.397.598-.558.318a9.65 9.65 0 0 1 1.315 4.864c0 5.382-4.386 9.769-9.768 9.769-5.262-.001-9.607-4.268-9.767-9.53"/>
  <path fill="#fff" d="M56.952 71.225c.16 4.745 4.106 8.692 8.931 8.692 4.903 0 8.892-3.987 8.892-8.892a9.03 9.03 0 0 0-1.156-4.425l-5.941 3.787c.04.199.08.398.08.638 0 1.037-.877 1.914-1.914 1.914a1.98 1.98 0 0 1-1.953-1.715z"/>
  <path fill="none" d="M56.952 71.225c.16 4.745 4.106 8.692 8.931 8.692 4.903 0 8.892-3.987 8.892-8.892a9.03 9.03 0 0 0-1.156-4.425l-5.941 3.787c.04.199.08.398.08.638 0 1.037-.877 1.914-1.914 1.914a1.98 1.98 0 0 1-1.953-1.715z"/>
  <path fill="#fff" d="M56.991 70.468h6.818c.279-.797.997-1.356 1.874-1.356.558 0 1.116.28 1.476.679l6.02-3.787a8.71 8.71 0 0 0-7.296-3.907c-4.945-.001-9.21 4.822-8.892 8.371"/>
  <path fill="none" d="M56.991 70.468h6.818c.279-.797.997-1.356 1.874-1.356.558 0 1.116.28 1.476.679l6.02-3.787a8.71 8.71 0 0 0-7.296-3.907c-4.945-.001-9.21 4.822-8.892 8.371"/>
  <path fill="#120c0e" d="M42.919 71.464c-.24 5.184-4.545 9.33-9.768 9.33-5.382 0-9.768-4.387-9.768-9.769s4.386-9.768 9.768-9.768c5.262 0 9.608 4.226 9.768 9.489h.558v.797h-.558z"/>
  <path fill="none" d="M42.919 71.464c-.24 5.184-4.545 9.33-9.768 9.33-5.382 0-9.768-4.387-9.768-9.769s4.386-9.768 9.768-9.768c5.262 0 9.608 4.226 9.768 9.489h.558v.797h-.558z"/>
  <path fill="none" stroke="#120c0e" stroke-miterlimit="3.863" stroke-width=".399" d="M28.925 61.417a10.5 10.5 0 0 1 4.226-.877c5.781 0 10.485 4.705 10.485 10.525 0 .359 0 .678-.04 1.037"/>
  <path fill="#fff" d="M42.042 70.747c-.2-4.785-4.147-8.691-8.931-8.691a8.915 8.915 0 0 0-8.931 8.93c0 4.904 3.987 8.891 8.931 8.891 4.744 0 8.612-3.707 8.891-8.371h-7.217c-.199.717-.877 1.234-1.674 1.234-.957 0-1.754-.797-1.754-1.754s.797-1.754 1.754-1.754c.877 0 1.595.678 1.754 1.516z"/>
  <path fill="none" d="M42.042 70.747c-.2-4.785-4.147-8.691-8.931-8.691a8.915 8.915 0 0 0-8.931 8.93c0 4.904 3.987 8.891 8.931 8.891 4.744 0 8.612-3.707 8.891-8.371h-7.217c-.199.717-.877 1.234-1.674 1.234-.957 0-1.754-.797-1.754-1.754s.797-1.754 1.754-1.754c.877 0 1.595.678 1.754 1.516z"/>
  <path fill="#120c0e" d="M52.088 73.976c.957-.518 2.034-.877 2.233-2.191.278-1.834-.758-2.354-1.236-3.19l6.339-11.681 5.741 13.275.678-.238-5.939-13.875 1.035-1.675c.2-.518.918-.198 1.236-.558-.04-.08.04-.12.04-.16-.119-.479-.599-.239-.638-.639-.319-2.63-1.436-6.538-2.95-9.168.438.079-5.582-7.655-6.778-8.094 0-.04-.08-.08-.04-.159.24-.08.439-.16.599-.479-.08-.079-.398-.159-.479-.239-.479-.319-.598-.797-.758-1.794-.119-.598-.677-1.236-.717-1.754-1.196-1.675-3.748.159-4.545 1.315.04.2-.399.16-.359.399-.478 1.037.757 1.635 1.116 2.432.16.359.04.877.279 1.196.12-.04.319-.08.439-.119 0 .398.558.318.718.637.119.24-.04.638.279.798.079-.04.119.04.159.04l.678-.718.558.279-.558.877c-.319 2.552-.16 5.343.997 8.133-.399.439-.479 1.635-1.236 1.715-.12.279-2.871 2.751-3.389 2.631-.439.238-.877 0-1.316.318-.478.319-.917.719-1.355 1.117-.12 0-.2.079-.319.079l-1.715-.04-3.548 10.766c-.757 3.269-2.312 5.022-3.548 6.537l.518.52c1.236-1.516 2.831-3.469 3.588-6.738l1.515-4.505 8.731 8.731.399 5.58c0 .121.12.201.199.281.319.078.638 0 .957.039.12.079.16.159.279.239v.199c-.478.718-1.674.198-2.551 1.315.04.717 1.914-.119 2.751.199.04.159.119.319.159.479.319.119.917.039 1.276.039.08-.158-.199-.278-.121-.438.201-.199.599-.08.838-.199.119-.16.08-.358.08-.559-.239-.238-.239-.596-.319-.955"/>
  <path fill="none" d="M52.088 73.976c.957-.518 2.034-.877 2.233-2.191.278-1.834-.758-2.354-1.236-3.19l6.339-11.681 5.741 13.275.678-.238-5.939-13.875 1.035-1.675c.2-.518.918-.198 1.236-.558-.04-.08.04-.12.04-.16-.119-.479-.599-.239-.638-.639-.319-2.63-1.436-6.538-2.95-9.168.438.079-5.582-7.655-6.778-8.094 0-.04-.08-.08-.04-.159.24-.08.439-.16.599-.479-.08-.079-.398-.159-.479-.239-.479-.319-.598-.797-.758-1.794-.119-.598-.677-1.236-.717-1.754-1.196-1.675-3.748.159-4.545 1.315.04.2-.399.16-.359.399-.478 1.037.757 1.635 1.116 2.432.16.359.04.877.279 1.196.12-.04.319-.08.439-.119 0 .398.558.318.718.637.119.24-.04.638.279.798.079-.04.119.04.159.04l.678-.718.558.279-.558.877c-.319 2.552-.16 5.343.997 8.133-.399.439-.479 1.635-1.236 1.715-.12.279-2.871 2.751-3.389 2.631-.439.238-.877 0-1.316.318-.478.319-.917.719-1.355 1.117-.12 0-.2.079-.319.079l-1.715-.04-3.548 10.766c-.757 3.269-2.312 5.022-3.548 6.537l.518.52c1.236-1.516 2.831-3.469 3.588-6.738l1.515-4.505 8.731 8.731.399 5.58c0 .121.12.201.199.281.319.078.638 0 .957.039.12.079.16.159.279.239v.199c-.478.718-1.674.198-2.551 1.315.04.717 1.914-.119 2.751.199.04.159.119.319.159.479.319.119.917.039 1.276.039.08-.158-.199-.278-.121-.438.201-.199.599-.08.838-.199.119-.16.08-.358.08-.559-.239-.238-.239-.596-.319-.955"/>
  <path fill="#fff" d="m47.982 66.44-8.054-8.052-.039-.36.438-1.474h1.954l-.12 1.076 5.622 7.256z"/>
  <path fill="none" d="m47.982 66.44-8.054-8.052-.039-.36.438-1.474h1.954l-.12 1.076 5.622 7.256z"/>
  <path fill="#fff" d="m49.975 57.55-1.355 1.874-.678-.837z"/>
  <path fill="none" d="m49.975 57.55-1.355 1.874-.678-.837z"/>
  <path fill="#fff" d="m58.786 56.872-6.1 11.283c-.718.159-.398-2.791-.519-4.146-.04-1.355.798-2.232 1.396-2.99l4.426-4.585h.718z"/>
  <path fill="none" d="m58.786 56.872-6.1 11.283c-.718.159-.398-2.791-.519-4.146-.04-1.355.798-2.232 1.396-2.99l4.426-4.585h.718z"/>
  <path fill="#fff" d="m59.384 55.755.798-1.275-.518-.08-1.157 1.355z"/>
  <path fill="none" d="m59.384 55.755.798-1.275-.518-.08-1.157 1.355z"/>
  <path fill="#fff" d="m40.646 55.796.798-2.551 2.392.198.837-.159.359.119 1.116-.716 1.356.039 5.462-4.306h.279l.119.917-1.355 2.312-8.732 4.186z"/>
  <path fill="none" d="m40.646 55.796.798-2.551 2.392.198.837-.159.359.119 1.116-.716 1.356.039 5.462-4.306h.279l.119.917-1.355 2.312-8.732 4.186z"/>
</svg>
