<svg xmlns="http://www.w3.org/2000/svg" xml:space="preserve" viewBox="0 0 63.716 95.599" role="img" aria-labelledby="title">
  <title id="title">Verkehrszeichen F95 - &quot;Noodstopstrook&quot;/&quot;Piste de détresse&quot;: emergency stop strip (where you can stop when brakes don&apos;t work during a descent)</title>
  <path fill="#0071b3" d="M3.272 95.599C1.349 95.599 0 95 0 93.076V3.147C0 1.011 1.136 0 3.272 0H60.62c2.084 0 3.097 1.062 3.097 3.147v89.929c0 1.86-1.212 2.522-3.097 2.522z"/>
  <path fill="none" d="M3.272 95.599C1.349 95.599 0 95 0 93.076V3.147C0 1.011 1.136 0 3.272 0H60.62c2.084 0 3.097 1.062 3.097 3.147v89.929c0 1.86-1.212 2.522-3.097 2.522z"/>
  <path fill="none" stroke="#fff" stroke-miterlimit="3.863" stroke-width=".999" d="M3.821 93.888c-1.398 0-2.123-.637-2.123-2.022V4.06c0-1.499.612-2.361 2.123-2.361H59.77c1.561 0 2.247.7 2.247 2.236v87.931c0 1.423-.811 2.022-2.247 2.022z"/>
  <path fill="#fff" d="M55.586 36.146V7.769c-.075-.038-17.121-.089-17.572-.025v28.477h5.434l.074 14.276c-.974-.35-15.897-27.29-26.425-42.466-.675.487-7.219 4.084-8.98 5.133.775 2.436 23.004 37.184 24.166 39.119 1.673 3.01 3.297 5.883 4.646 9.043l.861 2.161c.139.449.301.899.412 1.349l.925 3.223c.574 3.335 1.361 6.869 1.361 10.241v9.543c.187.05-.2 0 0 0h10.253c.05-.188 0 .188 0 0 0-17.087-.063-34.61-.063-51.696z"/>
  <path fill="none" d="M55.586 36.146V7.769c-.075-.038-17.121-.089-17.572-.025v28.477h5.434l.074 14.276c-.974-.35-15.897-27.29-26.425-42.466-.675.487-7.219 4.084-8.98 5.133.775 2.436 23.004 37.184 24.166 39.119 1.673 3.01 3.297 5.883 4.646 9.043l.861 2.161c.139.449.301.899.412 1.349l.925 3.223c.574 3.335 1.361 6.869 1.361 10.241v9.543c.187.05-.2 0 0 0h10.253c.05-.188 0 .188 0 0 0-17.087-.063-34.61-.063-51.696z"/>
  <path fill="#120c0e" fill-rule="evenodd" d="M46.469 15.538c-.986 0-1.586-1.05-1.099-1.886a1.254 1.254 0 0 1 2.185 0 1.253 1.253 0 0 1-1.086 1.886" clip-rule="evenodd"/>
  <path fill="none" stroke="#120c0e" stroke-miterlimit="3.863" stroke-width=".25" d="M46.469 15.538c-.986 0-1.586-1.05-1.099-1.886a1.254 1.254 0 0 1 2.185 0 1.253 1.253 0 0 1-1.086 1.886z"/>
  <path fill="#120c0e" fill-rule="evenodd" d="M42.46 11.841c-.974 0-1.573-1.062-1.086-1.898a1.245 1.245 0 0 1 2.173 0c.488.836-.113 1.898-1.087 1.898" clip-rule="evenodd"/>
  <path fill="none" stroke="#120c0e" stroke-miterlimit="3.863" stroke-width=".25" d="M42.46 11.841c-.974 0-1.573-1.062-1.086-1.898a1.245 1.245 0 0 1 2.173 0c.488.836-.113 1.898-1.087 1.898z"/>
  <path fill="#120c0e" fill-rule="evenodd" d="M50.479 11.841a1.265 1.265 0 0 1-1.1-1.898 1.256 1.256 0 0 1 2.186 0c.486.836-.112 1.898-1.086 1.898" clip-rule="evenodd"/>
  <path fill="none" stroke="#120c0e" stroke-miterlimit="3.863" stroke-width=".25" d="M50.479 11.841a1.265 1.265 0 0 1-1.1-1.898 1.256 1.256 0 0 1 2.186 0c.486.836-.112 1.898-1.086 1.898z"/>
  <path fill="#120c0e" fill-rule="evenodd" d="M42.46 33.411c-.974 0-1.573-1.063-1.086-1.911a1.245 1.245 0 0 1 2.173 0c.488.849-.113 1.911-1.087 1.911" clip-rule="evenodd"/>
  <path fill="none" stroke="#120c0e" stroke-miterlimit="3.863" stroke-width=".25" d="M42.46 33.411c-.974 0-1.573-1.063-1.086-1.911a1.245 1.245 0 0 1 2.173 0c.488.849-.113 1.911-1.087 1.911z"/>
  <path fill="#120c0e" fill-rule="evenodd" d="M50.479 33.411c-.987 0-1.586-1.063-1.1-1.911a1.256 1.256 0 0 1 2.186 0c.486.849-.112 1.911-1.086 1.911" clip-rule="evenodd"/>
  <path fill="none" stroke="#120c0e" stroke-miterlimit="3.863" stroke-width=".25" d="M50.479 33.411c-.987 0-1.586-1.063-1.1-1.911a1.256 1.256 0 0 1 2.186 0c.486.849-.112 1.911-1.086 1.911z"/>
  <path fill="#120c0e" fill-rule="evenodd" d="M46.469 29.976a1.264 1.264 0 0 1-1.099-1.897 1.254 1.254 0 0 1 2.185 0c.488.836-.111 1.897-1.086 1.897" clip-rule="evenodd"/>
  <path fill="none" stroke="#120c0e" stroke-miterlimit="3.863" stroke-width=".25" d="M46.469 29.976a1.264 1.264 0 0 1-1.099-1.897 1.254 1.254 0 0 1 2.185 0c.488.836-.111 1.897-1.086 1.897z"/>
  <path fill="#120c0e" fill-rule="evenodd" d="M46.469 22.632a1.255 1.255 0 0 1-1.099-1.886 1.255 1.255 0 0 1 2.185 0 1.253 1.253 0 0 1-1.086 1.886" clip-rule="evenodd"/>
  <path fill="none" stroke="#120c0e" stroke-miterlimit="3.863" stroke-width=".25" d="M46.469 22.632a1.255 1.255 0 0 1-1.099-1.886 1.255 1.255 0 0 1 2.185 0 1.253 1.253 0 0 1-1.086 1.886z"/>
  <path fill="#120c0e" fill-rule="evenodd" d="M50.479 18.997a1.265 1.265 0 0 1-1.1-1.898 1.256 1.256 0 0 1 2.186 0c.486.837-.112 1.898-1.086 1.898" clip-rule="evenodd"/>
  <path fill="none" stroke="#120c0e" stroke-miterlimit="3.863" stroke-width=".25" d="M50.479 18.997a1.265 1.265 0 0 1-1.1-1.898 1.256 1.256 0 0 1 2.186 0c.486.837-.112 1.898-1.086 1.898z"/>
  <path fill="#120c0e" fill-rule="evenodd" d="M50.479 25.967a1.265 1.265 0 0 1-1.1-1.899 1.256 1.256 0 0 1 2.186 0c.486.837-.112 1.899-1.086 1.899" clip-rule="evenodd"/>
  <path fill="none" stroke="#120c0e" stroke-miterlimit="3.863" stroke-width=".25" d="M50.479 25.967a1.265 1.265 0 0 1-1.1-1.899 1.256 1.256 0 0 1 2.186 0c.486.837-.112 1.899-1.086 1.899z"/>
  <path fill="#120c0e" fill-rule="evenodd" d="M42.46 25.967c-.974 0-1.573-1.062-1.086-1.899a1.245 1.245 0 0 1 2.173 0c.488.837-.113 1.899-1.087 1.899" clip-rule="evenodd"/>
  <path fill="none" stroke="#120c0e" stroke-miterlimit="3.863" stroke-width=".25" d="M42.46 25.967c-.974 0-1.573-1.062-1.086-1.899a1.245 1.245 0 0 1 2.173 0c.488.837-.113 1.899-1.087 1.899z"/>
  <path fill="#120c0e" fill-rule="evenodd" d="M42.46 18.997c-.974 0-1.573-1.062-1.086-1.898a1.245 1.245 0 0 1 2.173 0c.488.837-.113 1.898-1.087 1.898" clip-rule="evenodd"/>
  <path fill="none" stroke="#120c0e" stroke-miterlimit="3.863" stroke-width=".25" d="M42.46 18.997c-.974 0-1.573-1.062-1.086-1.898a1.245 1.245 0 0 1 2.173 0c.488.837-.113 1.898-1.087 1.898z"/>
  <path fill="#120c0e" fill-rule="evenodd" d="M38.102 13.002a1.269 1.269 0 1 1 0 2.536z" clip-rule="evenodd"/>
  <path fill="none" stroke="#120c0e" stroke-miterlimit="3.863" stroke-width=".25" d="M38.102 13.002a1.269 1.269 0 1 1 0 2.536z"/>
  <path fill="#120c0e" fill-rule="evenodd" d="M38.053 20.084c.698 0 1.26.575 1.26 1.273 0 .7-.562 1.274-1.26 1.274z" clip-rule="evenodd"/>
  <path fill="none" stroke="#120c0e" stroke-miterlimit="3.863" stroke-width=".25" d="M38.053 20.084c.698 0 1.26.575 1.26 1.273 0 .7-.562 1.274-1.26 1.274z"/>
  <path fill="#120c0e" fill-rule="evenodd" d="M38.09 27.428c.711 0 1.285.563 1.285 1.274 0 .699-.574 1.262-1.285 1.262z" clip-rule="evenodd"/>
  <path fill="none" stroke="#120c0e" stroke-miterlimit="3.863" stroke-width=".25" d="M38.09 27.428c.711 0 1.285.563 1.285 1.274 0 .699-.574 1.262-1.285 1.262z"/>
  <path fill="#120c0e" fill-rule="evenodd" d="M55.448 30.113a1.26 1.26 0 0 1-1.26-1.273c0-.7.562-1.262 1.26-1.262z" clip-rule="evenodd"/>
  <path fill="none" stroke="#120c0e" stroke-miterlimit="3.863" stroke-width=".25" d="M55.448 30.113a1.26 1.26 0 0 1-1.26-1.273c0-.7.562-1.262 1.26-1.262z"/>
  <path fill="#120c0e" fill-rule="evenodd" d="M55.487 15.525a1.268 1.268 0 1 1 0-2.535z" clip-rule="evenodd"/>
  <path fill="none" stroke="#120c0e" stroke-miterlimit="3.863" stroke-width=".25" d="M55.487 15.525a1.268 1.268 0 1 1 0-2.535z"/>
  <path fill="#120c0e" fill-rule="evenodd" d="M55.473 22.52a1.27 1.27 0 0 1-1.261-1.273c0-.7.562-1.274 1.261-1.274z" clip-rule="evenodd"/>
  <path fill="none" stroke="#120c0e" stroke-miterlimit="3.863" stroke-width=".25" d="M55.473 22.52a1.27 1.27 0 0 1-1.261-1.273c0-.7.562-1.274 1.261-1.274z"/>
</svg>
