<svg xmlns="http://www.w3.org/2000/svg" xml:space="preserve" viewBox="0 0 170.142 102.427" role="img" aria-labelledby="title">
  <title id="title">Verkehrszeichen F3 - End of built-up area F3 is an old type of sign, no longer in use since 2015 Signs F3a and F3b may have the name of the built-up area on them</title>
  <path d="M7.658 100.485h154.907c3.158 0 5.678-2.564 5.678-5.73v-87c0-3.166-2.52-5.771-5.678-5.771H7.658c-3.159 0-5.678 2.565-5.678 5.731v87.04c0 3.165 2.519 5.73 5.678 5.73"/>
  <path fill="none" stroke="#000" stroke-miterlimit="3.863" stroke-width=".2" d="M7.658 100.485h154.907c3.158 0 5.678-2.564 5.678-5.73v-87c0-3.166-2.52-5.771-5.678-5.771H7.658c-3.159 0-5.678 2.565-5.678 5.731v87.04c0 3.165 2.519 5.73 5.678 5.73z"/>
  <path fill="#fff" d="M162.565 3.667H7.618c-2.2 0-3.959 1.884-3.959 4.088v87.04c0 2.204 1.719 3.967 3.919 3.967h155.067c2.199 0 3.879-1.723 3.879-3.927v-87.2a3.946 3.946 0 0 0-3.959-3.968"/>
  <path fill="none" stroke="#000" stroke-miterlimit="3.863" stroke-width=".2" d="M162.565 3.667H7.618c-2.2 0-3.959 1.884-3.959 4.088v87.04c0 2.204 1.719 3.967 3.919 3.967h155.067c2.199 0 3.879-1.723 3.879-3.927v-87.2a3.946 3.946 0 0 0-3.959-3.968z"/>
  <path fill="none" stroke="#000" stroke-miterlimit="3.863" stroke-width=".2" d="m33.369 75.438 4.158 7.454m132.515 11.822V7.674c0-4.208-3.318-7.574-7.517-7.574H7.618C3.419.1.1 3.546.1 7.754v87a7.533 7.533 0 0 0 7.558 7.573h154.907c4.198.001 7.477-3.405 7.477-7.613z"/>
  <path fill-rule="evenodd" d="M50.683 39.813v4.168h-1.679v3.808h1.879l.08 7.572c.04 2.767 2.199 3.768 4.158 3.768h1.84v-2.965c-1.64 0-2.519-.16-2.519-1.003l.08-7.372h2.839v-3.808h-3.119l.08-6.172z" clip-rule="evenodd"/>
  <path fill="none" stroke="#000" stroke-miterlimit="3.863" stroke-width=".2" d="M50.683 39.813v4.168h-1.679v3.808h1.879l.08 7.572c.04 2.767 2.199 3.768 4.158 3.768h1.84v-2.965c-1.64 0-2.519-.16-2.519-1.003l.08-7.372h2.839v-3.808h-3.119l.08-6.172z"/>
  <path fill-rule="evenodd" d="M110.623 44.061v20.598h3.599v-6.052c.879.722 1.279.922 2.479 1.042 2.279.241 5.558-.921 5.558-4.647v-2.846c0-2.404 1.16-8.256-4.679-8.655-1.599-.121-2.759.199-3.56 1.401v-.841z" clip-rule="evenodd"/>
  <path fill="none" stroke="#000" stroke-miterlimit="3.863" stroke-width=".2" d="M110.623 44.061v20.598h3.599v-6.052c.879.722 1.279.922 2.479 1.042 2.279.241 5.558-.921 5.558-4.647v-2.846c0-2.404 1.16-8.256-4.679-8.655-1.599-.121-2.759.199-3.56 1.401v-.841z"/>
  <path fill-rule="evenodd" d="m19.494 38.691-6.158 20.437h4.118l.88-3.004h5.878l.96 3.004h4.158l-5.758-20.437z" clip-rule="evenodd"/>
  <path fill="none" stroke="#000" stroke-miterlimit="3.863" stroke-width=".2" d="m19.494 38.691-6.158 20.437h4.118l.88-3.004h5.878l.96 3.004h4.158l-5.758-20.437z"/>
  <path fill="#fff" fill-rule="evenodd" d="m21.293 46.707 2.079 6.09h-4.078z" clip-rule="evenodd"/>
  <path fill="none" stroke="#000" stroke-miterlimit="3.863" stroke-width=".2" d="m21.293 46.707 2.079 6.09h-4.078z"/>
  <path fill-rule="evenodd" d="M33.729 44.261v14.867h3.399v-8.255c0-2.444.559-3.566 1.639-4.048 1.36-.762 3.359.28 3.359 3.326v8.937h3.359V48.91c0-5.73-6.518-6.571-8.357-3.566v-1.082z" clip-rule="evenodd"/>
  <path fill="none" stroke="#000" stroke-miterlimit="3.863" stroke-width=".2" d="M33.729 44.261v14.867h3.399v-8.255c0-2.444.559-3.566 1.639-4.048 1.36-.762 3.359.28 3.359 3.326v8.937h3.359V48.91c0-5.73-6.518-6.571-8.357-3.566v-1.082z"/>
  <path fill-rule="evenodd" d="m60.48 43.94 3.319 15.389h2.959l2.919-9.377 2.319 9.377h3.199l5.278-15.389h-3.719l-2.999 8.616-2.159-8.616h-3.279l-2.759 8.536-1.919-8.536z" clip-rule="evenodd"/>
  <path fill="none" stroke="#000" stroke-miterlimit="3.863" stroke-width=".2" d="m60.48 43.94 3.319 15.389h2.959l2.919-9.377 2.319 9.377h3.199l5.278-15.389h-3.719l-2.999 8.616-2.159-8.616h-3.279l-2.759 8.536-1.919-8.536z"/>
  <path fill-rule="evenodd" d="M102.825 45.503V43.86h-3.439v15.35h3.239v-8.136c.04-2.524.88-3.566 2.8-3.486l2.199.08V43.94h-1.68c-1.999 0-2.279.441-3.119 1.563" clip-rule="evenodd"/>
  <path fill="none" stroke="#000" stroke-miterlimit="3.863" stroke-width=".2" d="M102.825 45.503V43.86h-3.439v15.35h3.239v-8.136c.04-2.524.88-3.566 2.8-3.486l2.199.08V43.94h-1.68c-1.999 0-2.279.441-3.119 1.563z"/>
  <path fill-rule="evenodd" d="M141.692 43.94v15.188h3.398v-8.415c0-2.525.561-3.647 1.64-4.128 1.36-.802 3.358.28 3.358 3.366v9.137h3.359V48.709c0-5.852-6.518-6.732-8.357-3.646V43.94z" clip-rule="evenodd"/>
  <path fill="none" stroke="#000" stroke-miterlimit="3.863" stroke-width=".2" d="M141.692 43.94v15.188h3.398v-8.415c0-2.525.561-3.647 1.64-4.128 1.36-.802 3.358.28 3.358 3.366v9.137h3.359V48.709c0-5.852-6.518-6.732-8.357-3.646V43.94z"/>
  <path fill="#fff" fill-rule="evenodd" d="M114.062 51.274c0-2.324-.319-5.129 2.4-5.21 2.678-.08 2.479 2.886 2.479 5.21 0 2.444.359 5.33-2.479 5.33-2.441 0-2.4-2.886-2.4-5.33" clip-rule="evenodd"/>
  <path fill="none" stroke="#000" stroke-miterlimit="3.863" stroke-width=".2" d="M114.062 51.274c0-2.324-.319-5.129 2.4-5.21 2.678-.08 2.479 2.886 2.479 5.21 0 2.444.359 5.33-2.479 5.33-2.441 0-2.4-2.886-2.4-5.33z"/>
  <path fill-rule="evenodd" d="m94.589 52.877.079-2.565c.12-3.847-2.198-6.771-6.077-6.771-4.159 0-5.559 3.045-5.559 7.213 0 4.088.44 8.375 5.479 8.855 2.959.281 5.197-1.963 6.037-4.647h-3.599c-.319 1.162-1.399 1.683-2.519 1.683-1.56 0-2.16-2.084-2.16-3.767h8.319z" clip-rule="evenodd"/>
  <path fill="none" stroke="#000" stroke-miterlimit="3.863" stroke-width=".2" d="m94.589 52.877.079-2.565c.12-3.847-2.198-6.771-6.077-6.771-4.159 0-5.559 3.045-5.559 7.213 0 4.088.44 8.375 5.479 8.855 2.959.281 5.197-1.963 6.037-4.647h-3.599c-.319 1.162-1.399 1.683-2.519 1.683-1.56 0-2.16-2.084-2.16-3.767h8.319z"/>
  <path fill="#fff" fill-rule="evenodd" d="M91.109 49.551h-5.078c0-1.644.96-3.046 2.599-3.046 1.6 0 2.479 1.162 2.479 3.046" clip-rule="evenodd"/>
  <path fill="none" stroke="#000" stroke-miterlimit="3.863" stroke-width=".2" d="M91.109 49.551h-5.078c0-1.644.96-3.046 2.599-3.046 1.6 0 2.479 1.162 2.479 3.046z"/>
  <path fill-rule="evenodd" d="m137.533 52.917.08-2.565c.12-3.847-2.199-6.771-6.078-6.771-4.157 0-5.558 3.045-5.558 7.213 0 4.088.439 8.375 5.478 8.855 2.959.281 5.199-1.963 6.038-4.647h-3.598c-.32 1.162-1.4 1.683-2.52 1.683-1.56 0-2.16-2.084-2.16-3.767z" clip-rule="evenodd"/>
  <path fill="none" stroke="#000" stroke-miterlimit="3.863" stroke-width=".2" d="m137.533 52.917.08-2.565c.12-3.847-2.199-6.771-6.078-6.771-4.157 0-5.558 3.045-5.558 7.213 0 4.088.439 8.375 5.478 8.855 2.959.281 5.199-1.963 6.038-4.647h-3.598c-.32 1.162-1.4 1.683-2.52 1.683-1.56 0-2.16-2.084-2.16-3.767z"/>
  <path fill="#fff" fill-rule="evenodd" d="M134.056 49.591h-5.08c0-1.644.961-3.046 2.6-3.046 1.599 0 2.48 1.163 2.48 3.046" clip-rule="evenodd"/>
  <path fill="none" stroke="#000" stroke-miterlimit="3.863" stroke-width=".2" d="M134.056 49.591h-5.08c0-1.644.961-3.046 2.6-3.046 1.599 0 2.48 1.163 2.48 3.046z"/>
  <path fill="#ed1c24" d="M166.444 10.118V7.594c0-2.205-1.721-3.968-3.919-3.968h-2.199L3.619 92.269v2.525c0 2.204 1.719 3.967 3.919 3.967h2.199z"/>
  <path fill="none" d="M166.444 10.118V7.594c0-2.205-1.721-3.968-3.919-3.968h-2.199L3.619 92.269v2.525c0 2.204 1.719 3.967 3.919 3.967h2.199z"/>
</svg>
