<svg xmlns="http://www.w3.org/2000/svg" xml:space="preserve" viewBox="0 0 170.746 154.378" role="img" aria-labelledby="title">
  <title id="title">Verkehrszeichen F25 - Sign showing possible directions</title>
  <path fill="#0071b3" d="M.028 4.506C.028 1.914 1.903 0 4.495 0h161.624c2.553 0 4.627 2.073 4.627 4.666v145.086a4.63 4.63 0 0 1-4.627 4.626H4.655a4.604 4.604 0 0 1-4.627-4.626zc-.08.08.04-.04 0 0"/>
  <path fill="none" d="M.028 4.506C.028 1.914 1.903 0 4.495 0h161.624c2.553 0 4.627 2.073 4.627 4.666v145.086a4.63 4.63 0 0 1-4.627 4.626H4.655a4.604 4.604 0 0 1-4.627-4.626zc-.08.08.04-.04 0 0"/>
  <path fill="#fff" d="M1.145 4.586c0-1.914 1.516-3.47 3.51-3.47H165.88c1.914 0 3.709 1.396 3.709 3.31v145.526c0 1.834-1.556 3.389-3.51 3.389H4.655c-1.955 0-3.51-1.555-3.51-3.469z"/>
  <path fill="none" d="M1.145 4.586c0-1.914 1.516-3.47 3.51-3.47H165.88c1.914 0 3.709 1.396 3.709 3.31v145.526c0 1.834-1.556 3.389-3.51 3.389H4.655c-1.955 0-3.51-1.555-3.51-3.469z"/>
  <path fill="#0071b3" d="M2.182 4.586c0-1.315 1.117-2.433 2.473-2.433H166.08c1.355 0 2.473 1.117 2.473 2.433v145.206c0 1.316-1.117 2.433-2.473 2.433H4.655c-1.316 0-2.433-1.116-2.433-2.433z"/>
  <path fill="none" d="M2.182 4.586c0-1.315 1.117-2.433 2.473-2.433H166.08c1.355 0 2.473 1.117 2.473 2.433v145.206c0 1.316-1.117 2.433-2.473 2.433H4.655c-1.316 0-2.433-1.116-2.433-2.433z"/>
  <path fill="#0071b3" d="M62.93 96.871h25.688c1.237 0 2.274.917 2.274 2.072v14.198c0 1.196-1.037 2.114-2.274 2.114H62.811c-1.236 0-2.313-.918-2.313-2.114V98.864c0-1.156 1.315-1.993 2.432-1.993"/>
  <path fill="none" d="M62.93 96.871h25.688c1.237 0 2.274.917 2.274 2.072v14.198c0 1.196-1.037 2.114-2.274 2.114H62.811c-1.236 0-2.313-.918-2.313-2.114V98.864c0-1.156 1.315-1.993 2.432-1.993"/>
  <path fill="#fff" fill-rule="evenodd" d="M45.459 15.434h1.995c.159-1.596-.798-3.988-3.829-3.988-4.268 0-3.869 3.39-3.869 6.7s-.359 6.421 3.869 6.421c3.031 0 4.268-2.871 4.028-4.228h-1.994c-.2.997-.319 2.233-2.034 2.233-1.516 0-1.795-1.157-1.795-2.233v-4.547c0-.957 0-2.192 1.476-2.353 1.994-.239 2.233 1.078 2.153 1.995" clip-rule="evenodd"/>
  <path fill="none" stroke="#fff" stroke-miterlimit="3.863" stroke-width=".12" d="M45.459 15.434h1.995c.159-1.596-.798-3.988-3.829-3.988-4.268 0-3.869 3.39-3.869 6.7s-.359 6.421 3.869 6.421c3.031 0 4.268-2.871 4.028-4.228h-1.994c-.2.997-.319 2.233-2.034 2.233-1.516 0-1.795-1.157-1.795-2.233v-4.547c0-.957 0-2.192 1.476-2.353 1.994-.239 2.233 1.078 2.153 1.995z"/>
  <path fill="#fff" fill-rule="evenodd" d="M50.565 12.044v12.522h2.074v-5.344c0-1.596 2.912-1.676 2.912 0v5.344h2.194v-5.543c0-1.277-.997-3.231-2.473-3.231-.878 0-1.955-.159-2.553.6v-4.348z" clip-rule="evenodd"/>
  <path fill="none" stroke="#fff" stroke-miterlimit="3.863" stroke-width=".12" d="M50.565 12.044v12.522h2.074v-5.344c0-1.596 2.912-1.676 2.912 0v5.344h2.194v-5.543c0-1.277-.997-3.231-2.473-3.231-.878 0-1.955-.159-2.553.6v-4.348z"/>
  <path fill="#fff" fill-rule="evenodd" d="M70.628 24.646v-8.694h2.034v.678c.32-.678 1.835-.838 2.553-.838v1.915c-1.117 0-2.592.039-2.592 1.156v5.783z" clip-rule="evenodd"/>
  <path fill="none" stroke="#fff" stroke-miterlimit="3.863" stroke-width=".12" d="M70.628 24.646v-8.694h2.034v.678c.32-.678 1.835-.838 2.553-.838v1.915c-1.117 0-2.592.039-2.592 1.156v5.783z"/>
  <path fill="#fff" fill-rule="evenodd" d="M79.724 12.083h-1.955v12.563h1.955z" clip-rule="evenodd"/>
  <path fill="none" stroke="#fff" stroke-miterlimit="3.863" stroke-width=".12" d="M79.724 12.083h-1.955v12.563h1.955z"/>
  <path fill="#fff" fill-rule="evenodd" d="M91.929 24.646v-8.694h2.073l-.04.678c.359-.678 1.795-.838 2.553-.838v1.915c-1.117 0-2.593.039-2.593 1.156v5.783z" clip-rule="evenodd"/>
  <path fill="none" stroke="#fff" stroke-miterlimit="3.863" stroke-width=".12" d="M91.929 24.646v-8.694h2.073l-.04.678c.359-.678 1.795-.838 2.553-.838v1.915c-1.117 0-2.593.039-2.593 1.156v5.783z"/>
  <path fill="#fff" fill-rule="evenodd" d="M82.355 21.216v-2.433c0-1.794.957-3.27 3.39-3.27 1.955-.08 3.311 1.315 3.311 3.47v1.355h-4.507v1.356c0 .917.399 1.116 1.196 1.156.52.16 1.197-.04 1.197-.519h2.033v.479c0 .918-1.475 1.915-3.15 1.835-1.913-.079-3.47-1.076-3.47-3.429" clip-rule="evenodd"/>
  <path fill="none" stroke="#fff" stroke-miterlimit="3.863" stroke-width=".12" d="M82.355 21.216v-2.433c0-1.794.957-3.27 3.39-3.27 1.955-.08 3.311 1.315 3.311 3.47v1.355h-4.507v1.356c0 .917.399 1.116 1.196 1.156.52.16 1.197-.04 1.197-.519h2.033v.479c0 .918-1.475 1.915-3.15 1.835-1.913-.079-3.47-1.076-3.47-3.429z"/>
  <path fill="#0071b3" fill-rule="evenodd" d="M84.549 18.943v-.479c0-1.635 2.353-1.635 2.353 0v.479z" clip-rule="evenodd"/>
  <path fill="none" stroke="#0071b3" stroke-miterlimit="3.863" stroke-width=".12" d="M84.549 18.943v-.479c0-1.635 2.353-1.635 2.353 0v.479z"/>
  <path fill="#fff" fill-rule="evenodd" d="M65.283 24.247c-.359.718-1.755.239-2.911.319-1.237.04-2.513-1.156-2.434-2.394.32-4.506 5.146-1.355 5.345-3.629.04-.877-.558-1.355-1.515-1.355-.838 0-1.596.2-1.596 1.315h-1.914c0-1.874.837-3.11 3.51-3.11 2.233 0 3.589 1.436 3.589 3.39l-.039 5.783h-1.995z" clip-rule="evenodd"/>
  <path fill="none" stroke="#fff" stroke-miterlimit="3.863" stroke-width=".12" d="M65.283 24.247c-.359.718-1.755.239-2.911.319-1.237.04-2.513-1.156-2.434-2.394.32-4.506 5.146-1.355 5.345-3.629.04-.877-.558-1.355-1.515-1.355-.838 0-1.596.2-1.596 1.315h-1.914c0-1.874.837-3.11 3.51-3.11 2.233 0 3.589 1.436 3.589 3.39l-.039 5.783h-1.995z"/>
  <path fill="#fff" fill-rule="evenodd" d="M102.099 15.633c-2.433 0-3.39 2.153-3.39 3.709v1.676c0 .638.478 3.629 3.31 3.629h.439c2.832 0 3.352-2.752 3.352-3.629v-1.676c0-1.516-.959-3.709-3.352-3.709z" clip-rule="evenodd"/>
  <path fill="none" stroke="#fff" stroke-miterlimit="3.863" stroke-width=".12" d="M102.099 15.633c-2.433 0-3.39 2.153-3.39 3.709v1.676c0 .638.478 3.629 3.31 3.629h.439c2.832 0 3.352-2.752 3.352-3.629v-1.676c0-1.516-.959-3.709-3.352-3.709z"/>
  <path fill="#0071b3" fill-rule="evenodd" d="M102.22 17.309c.758 0 1.516.638 1.516 1.993v1.835c0 1.436-.758 1.953-1.516 1.953-.799 0-1.477-.518-1.477-1.953v-1.835c.001-1.356.678-1.993 1.477-1.993" clip-rule="evenodd"/>
  <path fill="none" stroke="#0071b3" stroke-miterlimit="3.863" stroke-width=".12" d="M102.22 17.309c.758 0 1.516.638 1.516 1.993v1.834c0 1.437-.758 1.954-1.516 1.954-.799 0-1.477-.518-1.477-1.954v-1.834c.001-1.356.678-1.993 1.477-1.993z"/>
  <path fill="#fff" fill-rule="evenodd" d="M109.917 24.566h-1.875v-9.013h1.875z" clip-rule="evenodd"/>
  <path fill="none" stroke="#fff" stroke-miterlimit="3.863" stroke-width=".12" d="M109.917 24.566h-1.875v-9.014h1.875z"/>
  <path fill="#fff" fill-rule="evenodd" d="M108.042 12.083h1.835v1.516h-1.835z" clip-rule="evenodd"/>
  <path fill="none" stroke="#fff" stroke-miterlimit="3.863" stroke-width=".12" d="M108.042 12.083h1.835v1.516h-1.835z"/>
  <path fill="#fff" fill-rule="evenodd" d="M46.217 43.51V31.067h7.619v1.995h-5.504v3.031h3.629v2.112h-3.629v5.305z" clip-rule="evenodd"/>
  <path fill="none" stroke="#fff" stroke-miterlimit="3.863" stroke-width=".12" d="M46.217 43.51V31.067h7.619v1.995h-5.504v3.031h3.629v2.112h-3.629v5.305z"/>
  <path fill="#fff" fill-rule="evenodd" d="M76.691 34.297h-1.954v6.142c0 1.556-3.032 1.596-3.032.04v-6.182h-2.074v6.262c0 1.476 1.237 2.951 3.031 2.951.798 0 1.875-.319 2.115-1.037v.798h1.914z" clip-rule="evenodd"/>
  <path fill="none" stroke="#fff" stroke-miterlimit="3.863" stroke-width=".12" d="M76.691 34.297h-1.954v6.142c0 1.556-3.032 1.596-3.032.04v-6.182h-2.074v6.262c0 1.476 1.237 2.951 3.031 2.951.798 0 1.875-.319 2.115-1.037v.798h1.914z"/>
  <path fill="#fff" fill-rule="evenodd" d="M103.256 36.93c-.079-.239 0-.439-.079-.599-.359-1.715-1.836-2.272-3.231-2.272-1.595 0-3.231.957-3.231 2.232 0 1.716-.078 2.233 1.436 3.111.719.438 3.392.199 3.392 1.156 0 .638-.519.838-1.196.838-.559 0-1.914.159-1.914-.52v-.358h-1.996v.398c.201 1.676 1.277 2.593 3.511 2.593 2.073 0 3.63-1.276 3.63-2.673 0-.478.12-1.595-1.237-2.393-.678-.438-3.669-.398-3.669-1.395 0-.799.639-.799 1.117-.879.559-.078 1.355.16 1.396.52.08.119 0 .159 0 .239h2.071z" clip-rule="evenodd"/>
  <path fill="none" stroke="#fff" stroke-miterlimit="3.863" stroke-width=".12" d="M103.256 36.93c-.079-.239 0-.439-.079-.599-.359-1.715-1.836-2.272-3.231-2.272-1.595 0-3.231.957-3.231 2.232 0 1.715-.078 2.233 1.436 3.111.719.438 3.392.199 3.392 1.156 0 .638-.519.838-1.196.838-.559 0-1.914.159-1.914-.52v-.358h-1.996v.398c.201 1.676 1.277 2.593 3.511 2.593 2.073 0 3.63-1.276 3.63-2.673 0-.478.12-1.595-1.237-2.393-.678-.438-3.669-.398-3.669-1.395 0-.799.639-.799 1.117-.879.559-.078 1.355.16 1.396.52.08.119 0 .159 0 .239h2.071z"/>
  <path fill="#fff" fill-rule="evenodd" d="M57.745 30.987H55.83V43.51h1.915z" clip-rule="evenodd"/>
  <path fill="none" stroke="#fff" stroke-miterlimit="3.863" stroke-width=".12" d="M57.745 30.987H55.83V43.51h1.915z"/>
  <path fill="#fff" fill-rule="evenodd" d="M60.498 40.08v-2.433c0-1.835.997-3.271 3.39-3.311 1.955-.04 3.271 1.396 3.271 3.55v1.355h-4.547v1.276c0 .957.479 1.157 1.276 1.275.559.04 1.197-.039 1.197-.558h1.994v.519c0 .878-1.555 1.954-3.111 1.755-1.756-.117-3.47-1.035-3.47-3.428" clip-rule="evenodd"/>
  <path fill="none" stroke="#fff" stroke-miterlimit="3.863" stroke-width=".12" d="M60.498 40.08v-2.433c0-1.835.997-3.271 3.39-3.311 1.955-.04 3.271 1.396 3.271 3.55v1.355h-4.547v1.276c0 .957.479 1.157 1.276 1.275.559.04 1.197-.039 1.197-.558h1.994v.519c0 .878-1.555 1.954-3.111 1.755-1.756-.117-3.47-1.035-3.47-3.428z"/>
  <path fill="#fff" fill-rule="evenodd" d="M79.882 43.51v-8.694h2.074l-.04.718c.319-.718 1.795-.837 2.513-.837v1.874c-1.117 0-2.553.08-2.553 1.197v5.742z" clip-rule="evenodd"/>
  <path fill="none" stroke="#fff" stroke-miterlimit="3.863" stroke-width=".12" d="M79.882 43.51v-8.694h2.074l-.04.718c.319-.718 1.795-.837 2.513-.837v1.874c-1.117 0-2.553.08-2.553 1.197v5.742z"/>
  <path fill="#fff" fill-rule="evenodd" d="M93.962 34.297h-1.874v6.142c0 1.556-3.112 1.596-3.112.04v-6.182h-2.033v6.262c0 1.476.916 2.951 2.992 2.951.797 0 1.873-.319 2.153-1.037v.798h1.874z" clip-rule="evenodd"/>
  <path fill="none" stroke="#fff" stroke-miterlimit="3.863" stroke-width=".12" d="M93.962 34.297h-1.874v6.142c0 1.556-3.112 1.596-3.112.04v-6.182h-2.033v6.262c0 1.476.916 2.951 2.992 2.951.797 0 1.873-.319 2.153-1.037v.798h1.874z"/>
  <path fill="#fff" fill-rule="evenodd" d="M27.47 128.017c-.359.758-1.795.2-2.991.279-1.157.04-2.473-1.156-2.393-2.393.279-4.507 5.105-1.315 5.344-3.63.08-.877-.518-1.315-1.475-1.315-.878 0-1.596.2-1.596 1.315h-1.954c0-1.794.837-3.069 3.55-3.069 2.792 0 3.55 1.475 3.55 3.31v5.782H27.51z" clip-rule="evenodd"/>
  <path fill="none" stroke="#fff" stroke-miterlimit="3.863" stroke-width=".12" d="M27.47 128.017c-.359.758-1.795.2-2.991.279-1.157.04-2.473-1.156-2.393-2.393.279-4.507 5.105-1.315 5.344-3.63.08-.877-.518-1.315-1.475-1.315-.878 0-1.596.2-1.596 1.315h-1.954c0-1.794.837-3.069 3.55-3.069 2.792 0 3.55 1.475 3.55 3.31v5.782H27.51z"/>
  <path fill="#0071b3" fill-rule="evenodd" d="M27.43 124.667v1.596c0 .438-.718.398-1.834.438-.838 0-1.715-.199-1.636-.837.519-1.556 2.194-.439 3.47-1.197" clip-rule="evenodd"/>
  <path fill="none" stroke="#0071b3" stroke-miterlimit="3.863" stroke-width=".12" d="M27.43 124.667v1.596c0 .438-.718.398-1.834.438-.838 0-1.715-.199-1.636-.837.519-1.556 2.194-.439 3.47-1.197z"/>
  <path fill="#fff" fill-rule="evenodd" d="M57.306 128.376v-8.654h2.114l-.04.758c.279-.758 1.715-.878 2.473-.878v1.875c-1.037 0-2.513.04-2.513 1.156v5.743z" clip-rule="evenodd"/>
  <path fill="none" stroke="#fff" stroke-miterlimit="3.863" stroke-width=".12" d="M57.306 128.376v-8.654h2.114l-.04.758c.279-.758 1.715-.878 2.473-.878v1.875c-1.037 0-2.513.04-2.513 1.156v5.743z"/>
  <path fill="#fff" fill-rule="evenodd" d="M54.395 119.244H52.48v6.021c0 1.556-3.151 1.675-3.151.159v-6.181h-1.955v6.261c0 1.396 1.276 2.791 3.031 2.871.758.04 1.755-.319 2.075-1.037v.798h1.914v-8.892z" clip-rule="evenodd"/>
  <path fill="none" stroke="#fff" stroke-miterlimit="3.863" stroke-width=".12" d="M54.395 119.244H52.48v6.021c0 1.556-3.151 1.675-3.151.159v-6.181h-1.955v6.261c0 1.396 1.276 2.791 3.031 2.871.758.04 1.755-.319 2.075-1.037v.798h1.914v-8.892z"/>
  <path fill="#fff" fill-rule="evenodd" d="M10.239 116.173v12.482h2.393v-7.098l3.67 7.098h2.792v-12.442h-2.473v6.62l-3.709-6.66z" clip-rule="evenodd"/>
  <path fill="none" stroke="#fff" stroke-miterlimit="3.863" stroke-width=".12" d="M10.239 116.173v12.482h2.393v-7.098l3.67 7.098h2.792v-12.442h-2.473v6.62l-3.709-6.66z"/>
  <path fill="#fff" d="M38.918 120.719c-.519-.797-1.396-1.675-2.593-1.515-.837.079-1.835.278-2.154 1.037v-.759h-1.874v8.854h1.954v-5.822c0-2.034 3.151-1.755 3.151-.16v5.982h1.955v-5.982c0-1.754 3.111-1.675 3.111-.119v6.142h2.034v-6.221c0-1.437-1.077-3.031-3.071-2.911-.758 0-2.274.678-2.513 1.435z"/>
  <path fill="none" stroke="#fff" stroke-miterlimit="3.863" stroke-width=".12" d="M38.918 120.719c-.519-.797-1.396-1.675-2.593-1.515-.837.079-1.835.278-2.154 1.037v-.759h-1.874v8.854h1.954v-5.822c0-2.034 3.151-1.755 3.151-.16v5.982h1.955v-5.982c0-1.754 3.111-1.675 3.111-.119v6.142h2.034v-6.222c0-1.436-1.077-3.03-3.071-2.91-.758 0-2.274.678-2.513 1.435z"/>
  <path fill="#fff" fill-rule="evenodd" d="M22.484 136.99c-2.473 0-3.39 2.233-3.39 3.709v1.755c0 .638.399 3.629 3.271 3.629h.518c2.832 0 3.351-2.712 3.351-3.629v-1.755c0-1.476-.997-3.709-3.351-3.709z" clip-rule="evenodd"/>
  <path fill="none" stroke="#fff" stroke-miterlimit="3.863" stroke-width=".12" d="M22.484 136.99c-2.473 0-3.39 2.233-3.39 3.709v1.755c0 .638.399 3.629 3.271 3.629h.518c2.832 0 3.351-2.712 3.351-3.629v-1.755c0-1.476-.997-3.709-3.351-3.709z"/>
  <path fill="#0071b3" fill-rule="evenodd" d="M22.604 138.745c.718 0 1.556.598 1.556 1.875v1.994c0 1.355-.838 1.914-1.556 1.914-.798 0-1.436-.559-1.436-1.914v-1.994c0-1.277.638-1.875 1.436-1.875" clip-rule="evenodd"/>
  <path fill="none" stroke="#0071b3" stroke-miterlimit="3.863" stroke-width=".12" d="M22.604 138.745c.718 0 1.556.598 1.556 1.875v1.994c0 1.355-.838 1.914-1.556 1.914-.798 0-1.436-.559-1.436-1.914v-1.994c0-1.277.638-1.875 1.436-1.875z"/>
  <path fill="#fff" fill-rule="evenodd" d="M28.906 146.083h1.915v-6.181c0-1.517 3.151-1.676 3.151-.12v6.301h2.074v-6.381c0-1.436-1.197-3.031-3.071-2.871-.838.08-1.835.279-2.154 1.077v-.798h-1.915z" clip-rule="evenodd"/>
  <path fill="none" stroke="#fff" stroke-miterlimit="3.863" stroke-width=".12" d="M28.906 146.083h1.915v-6.181c0-1.517 3.151-1.676 3.151-.12v6.301h2.074v-6.381c0-1.436-1.197-3.031-3.071-2.871-.838.08-1.835.278-2.154 1.077v-.799h-1.915z"/>
  <path fill="#fff" fill-rule="evenodd" d="M48.172 142.653v-2.513c0-1.835.877-3.39 3.39-3.39 2.114 0 3.311 1.436 3.311 3.629v1.356h-4.627v1.396c0 .877.518 1.037 1.316 1.196.519.04 1.197-.119 1.197-.599h2.034v.479c0 .957-1.595 2.074-3.151 1.874-1.795-.157-3.47-1.075-3.47-3.428" clip-rule="evenodd"/>
  <path fill="none" stroke="#fff" stroke-miterlimit="3.863" stroke-width=".12" d="M48.172 142.653v-2.513c0-1.835.877-3.39 3.39-3.39 2.114 0 3.311 1.436 3.311 3.629v1.356h-4.627v1.396c0 .877.518 1.037 1.316 1.196.519.04 1.197-.119 1.197-.599h2.034v.479c0 .957-1.595 2.074-3.151 1.874-1.795-.157-3.47-1.075-3.47-3.428z"/>
  <path fill="#0071b3" fill-rule="evenodd" d="M50.246 140.34v-.558c0-1.596 2.473-1.596 2.473 0v.558z" clip-rule="evenodd"/>
  <path fill="none" stroke="#0071b3" stroke-miterlimit="3.863" stroke-width=".12" d="M50.246 140.34v-.558c0-1.596 2.473-1.596 2.473 0v.558z"/>
  <path fill="#fff" fill-rule="evenodd" d="M10.319 133.601v12.482h7.219v-1.954h-5.065v-10.528z" clip-rule="evenodd"/>
  <path fill="none" stroke="#fff" stroke-miterlimit="3.863" stroke-width=".12" d="M10.319 133.601v12.482h7.219v-1.954h-5.065v-10.528z"/>
  <path fill="#fff" fill-rule="evenodd" d="M38.758 136.751h6.701v2.074l-3.988 5.344h4.188v1.914h-7.02v-1.755l4.068-5.623h-3.949z" clip-rule="evenodd"/>
  <path fill="none" stroke="#fff" stroke-miterlimit="3.863" stroke-width=".12" d="M38.758 136.751h6.701v2.074l-3.988 5.344h4.188v1.914h-7.02v-1.755l4.068-5.623h-3.949z"/>
  <path fill="#fff" fill-rule="evenodd" d="m49.209 136.033 2.433-2.432h2.154l-2.433 2.432z" clip-rule="evenodd"/>
  <path fill="none" stroke="#fff" stroke-miterlimit="3.863" stroke-width=".12" d="m49.209 136.033 2.433-2.432h2.154l-2.433 2.432z"/>
  <path fill="#fff" fill-rule="evenodd" d="M57.386 142.653v-2.513c0-1.835.957-3.31 3.43-3.39 1.954 0 3.271 1.436 3.271 3.629v1.356H59.5v1.396c0 .877.478 1.037 1.316 1.196.479.04 1.157-.119 1.157-.599h2.074v.479c0 .957-1.636 2.074-3.191 1.874-1.754-.157-3.47-1.075-3.47-3.428" clip-rule="evenodd"/>
  <path fill="none" stroke="#fff" stroke-miterlimit="3.863" stroke-width=".12" d="M57.386 142.653v-2.513c0-1.835.957-3.31 3.43-3.39 1.954 0 3.271 1.436 3.271 3.629v1.356H59.5v1.396c0 .877.478 1.037 1.316 1.196.479.04 1.157-.119 1.157-.599h2.074v.479c0 .957-1.636 2.074-3.191 1.874-1.754-.157-3.47-1.075-3.47-3.428z"/>
  <path fill="#0071b3" fill-rule="evenodd" d="M59.5 140.34v-.558c0-1.596 2.433-1.596 2.433 0v.558z" clip-rule="evenodd"/>
  <path fill="none" stroke="#0071b3" stroke-miterlimit="3.863" stroke-width=".12" d="M59.5 140.34v-.558c0-1.596 2.433-1.596 2.433 0v.558z"/>
  <path fill="#fff" fill-rule="evenodd" d="M112.152 118.964h-1.955v6.102c0 1.596-3.111 1.676-3.111.12v-6.222h-1.994v6.262c0 1.476 1.037 2.951 3.031 2.951.758 0 1.795-.359 2.114-1.077v.798h1.915z" clip-rule="evenodd"/>
  <path fill="none" stroke="#fff" stroke-miterlimit="3.863" stroke-width=".12" d="M112.152 118.964h-1.955v6.102c0 1.596-3.111 1.676-3.111.12v-6.222h-1.994v6.262c0 1.476 1.037 2.951 3.031 2.951.758 0 1.795-.359 2.114-1.077v.798h1.915z"/>
  <path fill="#fff" fill-rule="evenodd" d="m97.712 128.177.039-8.694h2.075l-.04.719c.318-.719 1.795-.878 2.514-.878v1.875c-1.037 0-2.514.118-2.514 1.195v5.783z" clip-rule="evenodd"/>
  <path fill="none" stroke="#fff" stroke-miterlimit="3.863" stroke-width=".12" d="m97.712 128.177.039-8.694h2.075l-.04.719c.318-.719 1.795-.878 2.514-.878v1.875c-1.037 0-2.514.118-2.514 1.195v5.783z"/>
  <path fill="#fff" fill-rule="evenodd" d="M124.476 124.747v-2.474c0-1.794.998-3.229 3.391-3.27 1.955-.04 3.23 1.355 3.23 3.51v1.356h-4.506v1.355c0 .877.438 1.116 1.275 1.236.52.04 1.197-.08 1.197-.598h1.994v.518c0 .758-1.596 1.795-3.151 1.795-1.834.042-3.43-1.075-3.43-3.428" clip-rule="evenodd"/>
  <path fill="none" stroke="#fff" stroke-miterlimit="3.863" stroke-width=".12" d="M124.476 124.747v-2.474c0-1.794.998-3.229 3.391-3.27 1.955-.04 3.23 1.355 3.23 3.51v1.356h-4.506v1.355c0 .877.438 1.116 1.275 1.236.52.04 1.197-.08 1.197-.598h1.994v.518c0 .758-1.596 1.795-3.151 1.795-1.834.042-3.43-1.075-3.43-3.428z"/>
  <path fill="#0071b3" fill-rule="evenodd" d="M126.591 122.474v-.519c0-1.596 2.393-1.596 2.393 0v.519z" clip-rule="evenodd"/>
  <path fill="none" stroke="#0071b3" stroke-miterlimit="3.863" stroke-width=".12" d="M126.591 122.474v-.519c0-1.596 2.393-1.596 2.393 0v.519z"/>
  <path fill="#fff" fill-rule="evenodd" d="M143.982 124.747v-2.474c0-1.794.957-3.229 3.35-3.27 1.995-.04 3.312 1.355 3.312 3.51v1.356h-4.548v1.355c0 .877.438 1.116 1.236 1.236.559.04 1.197-.08 1.197-.598h1.994v.518c0 .878-1.555 1.954-3.071 1.795-1.755-.158-3.47-1.075-3.47-3.428" clip-rule="evenodd"/>
  <path fill="none" stroke="#fff" stroke-miterlimit="3.863" stroke-width=".12" d="M143.982 124.747v-2.474c0-1.794.957-3.229 3.35-3.27 1.995-.04 3.312 1.355 3.312 3.51v1.356h-4.548v1.355c0 .877.438 1.116 1.236 1.236.559.04 1.197-.08 1.197-.598h1.994v.518c0 .878-1.555 1.954-3.071 1.795-1.755-.158-3.47-1.075-3.47-3.428z"/>
  <path fill="#0071b3" fill-rule="evenodd" d="M146.095 122.474v-.519c0-1.596 2.394-1.596 2.394 0v.519z" clip-rule="evenodd"/>
  <path fill="none" stroke="#0071b3" stroke-miterlimit="3.863" stroke-width=".12" d="M146.095 122.474v-.519c0-1.596 2.394-1.596 2.394 0v.519z"/>
  <path fill="#fff" fill-rule="evenodd" d="M160.016 121.557c-.04-.16 0-.398-.04-.559-.359-1.754-1.874-2.233-3.27-2.233-1.597 0-2.832.917-3.232 2.193-.518 1.436-.079 2.233 1.477 3.07.678.479 3.35.24 3.35 1.197 0 .599-.558.797-1.156.797-.639 0-1.954.16-1.954-.478v-.319h-1.994v.359c.199 1.635 1.315 2.592 3.511 2.592 2.113 0 3.629-1.276 3.629-2.672 0-.479.119-1.635-1.197-2.394-.717-.438-3.709-.398-3.709-1.436 0-.757.638-.757 1.156-.877.52-.08 1.316.199 1.396.558v.2h2.033z" clip-rule="evenodd"/>
  <path fill="none" stroke="#fff" stroke-miterlimit="3.863" stroke-width=".12" d="M160.016 121.557c-.04-.16 0-.398-.04-.559-.359-1.754-1.874-2.233-3.27-2.233-1.597 0-2.832.917-3.232 2.193-.518 1.436-.079 2.233 1.477 3.07.678.479 3.35.24 3.35 1.197 0 .599-.558.797-1.156.797-.639 0-1.954.16-1.954-.478v-.319h-1.994v.359c.199 1.635 1.315 2.592 3.511 2.592 2.113 0 3.629-1.276 3.629-2.672 0-.479.119-1.635-1.197-2.394-.717-.438-3.709-.398-3.709-1.436 0-.757.638-.757 1.156-.877.52-.08 1.316.199 1.396.558v.2h2.033z"/>
  <path fill="#fff" fill-rule="evenodd" d="M136.244 115.613h-1.914v12.563h1.914z" clip-rule="evenodd"/>
  <path fill="none" stroke="#fff" stroke-miterlimit="3.863" stroke-width=".12" d="M136.244 115.613h-1.914v12.563h1.914z"/>
  <path fill="#fff" fill-rule="evenodd" d="M141.229 115.613h-1.915v12.563h1.915z" clip-rule="evenodd"/>
  <path fill="none" stroke="#fff" stroke-miterlimit="3.863" stroke-width=".12" d="M141.229 115.613h-1.915v12.563h1.915z"/>
  <path fill="#fff" fill-rule="evenodd" d="m114.345 119.244 2.633 4.466-2.752 4.467h2.193l1.596-2.592 1.636 2.592h2.272l-2.631-4.547 2.551-4.386h-2.154l-1.635 2.432-1.435-2.432z" clip-rule="evenodd"/>
  <path fill="none" stroke="#fff" stroke-miterlimit="3.863" stroke-width=".12" d="m114.345 119.244 2.633 4.466-2.752 4.467h2.193l1.596-2.592 1.636 2.592h2.272l-2.631-4.547 2.551-4.386h-2.154l-1.635 2.432-1.435-2.432z"/>
  <path fill="#fff" fill-rule="evenodd" d="M86.503 128.257v-12.483h5.505c1.716 0 2.991 1.236 2.991 3.311 0 1.476-.359 2.232-.917 2.792.358 0 1.276 1.196 1.276 2.751 0 2.672-1.276 3.63-3.51 3.63h-5.345z" clip-rule="evenodd"/>
  <path fill="none" stroke="#fff" stroke-miterlimit="3.863" stroke-width=".12" d="M86.503 128.257v-12.483h5.505c1.716 0 2.991 1.236 2.991 3.311 0 1.476-.359 2.232-.917 2.792.358 0 1.276 1.195 1.276 2.751 0 2.672-1.276 3.63-3.51 3.63h-5.345z"/>
  <path fill="#fff" fill-rule="evenodd" d="M140.232 142.095v-2.472c0-1.755.997-3.191 3.391-3.271 1.954 0 3.27 1.396 3.27 3.551v1.315h-4.547v1.396c0 .877.479 1.075 1.277 1.155.559.16 1.196-.04 1.196-.558h2.035v.518c0 .719-1.357 1.954-3.112 1.796-1.795-.12-3.51-1.077-3.51-3.43" clip-rule="evenodd"/>
  <path fill="none" stroke="#fff" stroke-miterlimit="3.863" stroke-width=".12" d="M140.232 142.095v-2.472c0-1.755.997-3.191 3.391-3.271 1.954 0 3.27 1.396 3.27 3.551v1.315h-4.547v1.396c0 .877.479 1.075 1.277 1.155.559.16 1.196-.04 1.196-.558h2.035v.518c0 .719-1.357 1.954-3.112 1.795-1.795-.119-3.51-1.076-3.51-3.429z"/>
  <path fill="#0071b3" fill-rule="evenodd" d="M142.345 139.822v-.479c0-1.595 2.434-1.595 2.434 0v.479z" clip-rule="evenodd"/>
  <path fill="none" stroke="#0071b3" stroke-miterlimit="3.863" stroke-width=".12" d="M142.345 139.822v-.479c0-1.595 2.434-1.595 2.434 0v.479z"/>
  <path fill="#fff" fill-rule="evenodd" d="M119.81 145.086c-.279.758-1.955.239-3.191.359-1.077.04-2.234-1.196-2.154-2.434.319-4.506 5.106-1.315 5.305-3.589.121-.917-.478-1.356-1.476-1.356-.877 0-1.555.2-1.555 1.316h-1.915c0-1.834.798-3.031 3.47-3.071 2.554-.079 3.591 1.396 3.591 3.312l-.041 5.822h-1.953z" clip-rule="evenodd"/>
  <path fill="none" stroke="#fff" stroke-miterlimit="3.863" stroke-width=".12" d="M119.81 145.086c-.279.758-1.955.239-3.191.359-1.077.04-2.234-1.196-2.154-2.434.319-4.506 5.106-1.315 5.305-3.589.121-.917-.478-1.356-1.476-1.356-.877 0-1.555.2-1.555 1.316h-1.915c0-1.834.798-3.031 3.47-3.071 2.554-.079 3.591 1.396 3.591 3.312l-.041 5.822h-1.953z"/>
  <path fill="#0071b3" fill-rule="evenodd" d="M119.73 141.815v1.596c0 .358-.639.358-1.715.358-.799.08-1.715-.278-1.635-.917.477-1.554 2.194-.238 3.35-1.037" clip-rule="evenodd"/>
  <path fill="none" stroke="#0071b3" stroke-miterlimit="3.863" stroke-width=".12" d="M119.73 141.815v1.596c0 .358-.639.358-1.715.358-.799.08-1.715-.278-1.635-.917.477-1.554 2.194-.238 3.35-1.037z"/>
  <path fill="#fff" fill-rule="evenodd" d="M133.531 145.525v-8.694h2.154v.718c.359-.718 1.795-.878 2.513-.878v1.915c-1.037 0-2.513.04-2.513 1.156v5.783z" clip-rule="evenodd"/>
  <path fill="none" stroke="#fff" stroke-miterlimit="3.863" stroke-width=".12" d="M133.531 145.524v-8.693h2.154v.718c.359-.718 1.795-.878 2.513-.878v1.915c-1.037 0-2.513.04-2.513 1.156v5.782z"/>
  <path fill="#fff" fill-rule="evenodd" d="m123.519 136.432 2.673 9.093h2.633l2.632-9.013h-2.235l-1.674 5.703-1.635-5.783z" clip-rule="evenodd"/>
  <path fill="none" stroke="#fff" stroke-miterlimit="3.863" stroke-width=".12" d="m123.519 136.432 2.673 9.092h2.633l2.632-9.012h-2.235l-1.674 5.703-1.635-5.783z"/>
  <path fill="#fff" fill-rule="evenodd" d="m99.468 132.962 2.631 12.523h2.394l2.035-8.495 1.755 8.495h2.312l2.713-12.523h-2.233l-1.556 7.578-1.914-7.458h-2.194l-1.875 7.458-1.795-7.578z" clip-rule="evenodd"/>
  <path fill="none" stroke="#fff" stroke-miterlimit="3.863" stroke-width=".12" d="m99.468 132.962 2.631 12.523h2.394l2.035-8.495 1.755 8.495h2.312l2.713-12.523h-2.233l-1.556 7.578-1.914-7.458h-2.194l-1.875 7.458-1.795-7.578z"/>
  <path fill="#fff" d="M73.621 56.392v9.491l3.509-.119v-9.372h5.105l-6.98-6.781-6.701 6.781z"/>
  <path fill="none" d="M73.621 56.392v9.491l3.509-.119v-9.372h5.105l-6.98-6.781-6.701 6.781z"/>
  <path fill="#fff" d="M150.483 96.631v-7.179l9.772 9.491-9.772 9.652v-7.178h-25.528v-4.786z"/>
  <path fill="none" d="M150.483 96.631v-7.179l9.772 9.491-9.772 9.652v-7.178h-25.528v-4.786z"/>
  <path fill="#fff" d="M20.171 101.895v7.019L9.96 99.184l10.211-9.493v7.18h15.436l.12 4.904H20.171z"/>
  <path fill="none" d="M20.171 101.895v7.019L9.96 99.184l10.211-9.493v7.18h15.436l.12 4.904H20.171z"/>
  <path fill="#fff" d="M77.449 145.604h-3.868v-43.829H58.503l-.04-4.826h15.118V82.553l3.429-.039v14.435h25.21v4.746H77.41z"/>
  <path fill="none" d="M77.449 145.604h-3.868v-43.829H58.503l-.04-4.826h15.118V82.553l3.429-.039v14.435h25.21v4.746H77.41z"/>
  <path fill="#fff" d="M62.851 65.764H87.9c1.236 0 1.875.558 1.875 1.675v13.679c0 .997-.877 1.556-1.916 1.556H62.851c-1.077 0-1.795-.639-1.795-1.715v-13.76c-.001-.958.717-1.435 1.795-1.435"/>
  <path fill="none" d="M62.851 65.764H87.9c1.236 0 1.875.558 1.875 1.675v13.679c0 .997-.877 1.556-1.916 1.556H62.851c-1.077 0-1.795-.639-1.795-1.715v-13.76c-.001-.958.717-1.435 1.795-1.435"/>
  <path fill="#0071b3" d="M63.129 66.481H87.66c1.077 0 1.237.358 1.237 1.316v13.001c0 .957-.359 1.195-1.557 1.195H63.369c-1.157 0-1.516-.318-1.516-1.235v-13.28c.001-.917.16-.997 1.276-.997"/>
  <path fill="none" d="M63.129 66.481H87.66c1.077 0 1.237.358 1.237 1.316v13.001c0 .957-.359 1.195-1.557 1.195H63.369c-1.157 0-1.516-.318-1.516-1.235v-13.28c.001-.917.16-.997 1.276-.997"/>
  <path fill="#fff" d="M65.603 79.961v-8.256h1.236l1.835 5.265v-5.265h1.118v8.216h-1.118l-2.194-5.663v5.703z"/>
  <path fill="none" d="M65.603 79.961v-8.256h1.236l1.835 5.265v-5.265h1.118v8.216h-1.118l-2.194-5.663v5.703z"/>
  <path fill="#fff" d="M74.896 72.344c0-.877.638-1.874 1.516-1.874.837 0 1.476.997 1.476 1.874 0 .438-.12.837-.439 1.157l-4.069 4.626v1.834h6.582v-1.914h-3.71l2.753-3.151c.598-.678.917-1.555.917-2.552 0-2.114-1.596-3.789-3.51-3.789-1.915 0-3.55 1.675-3.55 3.789z"/>
  <path fill="none" d="M74.896 72.344c0-.877.638-1.874 1.516-1.874.837 0 1.476.997 1.476 1.874 0 .438-.12.837-.439 1.157l-4.069 4.626v1.834h6.582v-1.914h-3.71l2.753-3.151c.598-.678.917-1.555.917-2.552 0-2.114-1.596-3.789-3.51-3.789-1.915 0-3.55 1.675-3.55 3.789z"/>
  <path fill="#fff" fill-rule="evenodd" d="M83.433 79.961v-8.017h-.759v-1.435l.759-1.874h1.795v11.326z" clip-rule="evenodd"/>
  <path fill="none" d="M83.433 79.961v-8.017h-.759v-1.435l.759-1.874h1.795v11.326z"/>
  <path fill="#fff" d="M37.003 90.849h20.104c.957 0 1.475.638 1.475 1.675v13.6c0 .957-.678 1.515-1.515 1.515H37.003c-.837 0-1.475-.678-1.475-1.715v-13.6c0-1.077.638-1.475 1.475-1.475"/>
  <path fill="none" d="M37.003 90.849h20.104c.957 0 1.475.638 1.475 1.675v13.6c0 .957-.678 1.515-1.515 1.515H37.003c-.837 0-1.475-.678-1.475-1.715v-13.6c0-1.077.638-1.475 1.475-1.475"/>
  <path fill="#0071b3" d="M37.243 91.565h19.664c.917 0 .997.359.997 1.277v12.881c0 .997-.319 1.236-1.236 1.236H37.522c-.917 0-1.316-.398-1.316-1.276v-13.08c0-.957.159-1.038 1.037-1.038"/>
  <path fill="none" d="M37.243 91.565h19.664c.917 0 .997.359.997 1.277v12.881c0 .997-.319 1.236-1.236 1.236H37.522c-.917 0-1.316-.398-1.316-1.276v-13.08c0-.957.159-1.038 1.037-1.038"/>
  <path fill="#fff" d="M39.915 104.887v-8.176h1.277l1.834 5.224v-5.224h1.037v8.136h-1.037l-2.193-5.584v5.624z"/>
  <path fill="none" d="M39.915 104.887v-8.176h1.277l1.834 5.224v-5.224h1.037v8.136h-1.037l-2.193-5.584v5.624z"/>
  <path fill="#fff" d="M51.642 93.56h1.994v7.897h.559v1.275h-.519v2.075h-1.594v-1.914h-4.269v-1.476z"/>
  <path fill="none" stroke="#fff" stroke-miterlimit="3.863" stroke-width=".12" d="M51.642 93.56h1.994v7.897h.559v1.275h-.519v2.075h-1.594v-1.914h-4.269v-1.476z"/>
  <path fill="#0071b3" d="M51.961 96.552v4.825h-2.313z"/>
  <path fill="none" stroke="#0071b3" stroke-miterlimit="3.863" stroke-width=".12" d="M51.961 96.552v4.825h-2.313z"/>
  <path fill="#fff" d="M103.416 90.928h20.064c.996 0 1.515.599 1.515 1.635v13.601c0 .917-.718 1.515-1.556 1.515h-20.023c-.917 0-1.475-.638-1.475-1.715v-13.6c0-1.038.558-1.436 1.475-1.436"/>
  <path fill="none" d="M103.416 90.928h20.064c.996 0 1.515.599 1.515 1.635v13.601c0 .917-.718 1.515-1.556 1.515h-20.023c-.917 0-1.475-.638-1.475-1.715v-13.6c0-1.038.558-1.436 1.475-1.436"/>
  <path fill="#0071b3" d="M103.656 91.605h19.664c.838 0 .957.359.957 1.276v12.882c0 .997-.279 1.236-1.236 1.236h-19.146c-.916 0-1.235-.399-1.235-1.276v-13.08c-.001-.957.117-1.038.996-1.038"/>
  <path fill="none" d="M103.656 91.605h19.664c.838 0 .957.359.957 1.276v12.882c0 .997-.279 1.236-1.236 1.236h-19.146c-.916 0-1.235-.399-1.235-1.276v-13.08c-.001-.957.117-1.038.996-1.038"/>
  <path fill="#fff" d="M106.328 104.966v-8.215h1.236l1.875 5.224v-5.224h.998v8.136h-.998l-2.193-5.584v5.663z"/>
  <path fill="none" d="M106.328 104.966v-8.215h1.236l1.875 5.224v-5.224h.998v8.136h-.998l-2.193-5.584v5.663z"/>
  <path fill="#fff" d="M118.015 93.64h1.994v7.857h.559v1.316h-.479v2.074h-1.635v-1.955h-4.228v-1.435z"/>
  <path fill="none" stroke="#fff" stroke-miterlimit="3.863" stroke-width=".12" d="M118.015 93.64h1.994v7.857h.559v1.316h-.479v2.074h-1.635v-1.955h-4.228v-1.435z"/>
  <path fill="#0071b3" d="M118.374 96.631v4.786h-2.314z"/>
  <path fill="none" stroke="#0071b3" stroke-miterlimit="3.863" stroke-width=".12" d="M118.374 96.631v4.786h-2.314z"/>
  <path fill="#0071b3" fill-rule="evenodd" d="M65.243 20.897v1.595c0 .359-.717.359-1.715.359-.758.16-1.675-.119-1.515-.759.438-1.554 2.074-.397 3.23-1.195" clip-rule="evenodd"/>
  <path fill="none" stroke="#0071b3" stroke-miterlimit="3.863" stroke-width=".12" d="M65.243 20.897v1.595c0 .359-.717.359-1.715.359-.758.16-1.675-.119-1.515-.759.438-1.554 2.074-.397 3.23-1.195z"/>
  <path fill="#0071b3" fill-rule="evenodd" d="M62.611 37.807v-.519c0-1.555 2.433-1.555 2.433 0v.519z" clip-rule="evenodd"/>
  <path fill="none" stroke="#0071b3" stroke-miterlimit="3.863" stroke-width=".12" d="M62.611 37.807v-.519c0-1.555 2.433-1.555 2.433 0v.519z"/>
  <path fill="#0071b3" fill-rule="evenodd" d="M88.898 117.928h2.711c.799 0 1.037.757 1.037 1.355 0 1.276-.678 1.596-1.275 1.596h-2.473z" clip-rule="evenodd"/>
  <path fill="none" stroke="#0071b3" stroke-miterlimit="3.863" stroke-width=".12" d="M88.898 117.928h2.711c.799 0 1.037.757 1.037 1.355 0 1.276-.678 1.596-1.275 1.596h-2.473z"/>
  <path fill="#0071b3" fill-rule="evenodd" d="M88.857 123.111h3.75c.238 0 .718.159.718 1.636 0 1.037-.08 1.755-1.117 1.755h-3.351z" clip-rule="evenodd"/>
  <path fill="none" stroke="#0071b3" stroke-miterlimit="3.863" stroke-width=".12" d="M88.857 123.111h3.75c.238 0 .718.159.718 1.636 0 1.037-.08 1.755-1.117 1.755h-3.351z"/>
</svg>
