<svg xmlns="http://www.w3.org/2000/svg" xml:space="preserve" viewBox="0 0 204.921 25.898" role="img" aria-labelledby="title">
  <title id="title">Verkehrszeichen F57 - Waterway</title>
  <path fill="#fff" d="M204.769 3.781v18.184a3.825 3.825 0 0 1-3.852 3.843H3.912A3.82 3.82 0 0 1 .09 21.965V3.903A3.81 3.81 0 0 1 3.912.09h197.065c2.137 0 3.853 1.693 3.853 3.813z"/>
  <path fill="none" stroke="#120c0e" stroke-miterlimit="3.863" stroke-width=".181" d="M204.769 3.781v18.184a3.825 3.825 0 0 1-3.852 3.843H3.912A3.82 3.82 0 0 1 .09 21.965V3.903A3.81 3.81 0 0 1 3.912.09h197.065c2.137 0 3.853 1.693 3.853 3.813z"/>
  <path fill="#0071b3" fill-rule="evenodd" d="m80.084 6.111-3.642 13.676h9.09l.631-2.361h-6.38l3.01-11.315z" clip-rule="evenodd"/>
  <path fill="none" stroke="#0071b3" stroke-miterlimit="3.863" stroke-width=".302" d="m80.084 6.111-3.641 13.676h9.089l.631-2.361h-6.38l3.01-11.315z"/>
  <path fill="#0071b3" fill-rule="evenodd" d="m95.222 15.217-.15.636c-.421 1.483-1.354 2.27-2.678 2.27-.663 0-1.054-.333-.843-1.119.421-1.574 2.497-1.09 3.671-1.787m-.873 3.45a2.8 2.8 0 0 0-.03 1.12h2.558l.09-.424c-.3-.212-.331-.545-.06-1.544l1.294-4.81c.692-2.663-1.385-3.025-3.039-3.025-2.077 0-4.093.938-4.635 3.025l-.061.242h2.288c.181-.848 1.053-1.302 1.866-1.302.571 0 1.353.243 1.204.848l-.15.484c-.361 1.421-5.448-.455-6.592 3.873-.571 2.117.573 2.903 2.017 2.903.993.001 2.318-.452 3.25-1.39" clip-rule="evenodd"/>
  <path fill="none" stroke="#0071b3" stroke-miterlimit="3.863" stroke-width=".302" d="m95.222 15.217-.15.636c-.421 1.483-1.354 2.27-2.678 2.27-.663 0-1.054-.333-.843-1.119.421-1.574 2.497-1.09 3.671-1.787zm-.873 3.45a2.8 2.8 0 0 0-.03 1.12h2.558l.09-.424c-.3-.212-.331-.545-.06-1.544l1.294-4.81c.692-2.663-1.385-3.025-3.039-3.025-2.077 0-4.093.938-4.635 3.025l-.061.242h2.288c.181-.848 1.053-1.302 1.866-1.302.571 0 1.353.243 1.204.848l-.15.484c-.361 1.421-5.448-.455-6.592 3.873-.571 2.117.573 2.903 2.017 2.903.993.001 2.318-.452 3.25-1.39z"/>
  <path fill="#0071b3" fill-rule="evenodd" d="m112.406 6.111-3.641 13.676h2.558l2.949-11.135-.482 11.135h2.529l5.417-11.135-2.95 11.135h2.559l3.642-13.676h-3.974l-5.116 10.438.482-10.438z" clip-rule="evenodd"/>
  <path fill="none" stroke="#0071b3" stroke-miterlimit="3.863" stroke-width=".302" d="m112.406 6.111-3.641 13.676h2.558l2.949-11.135-.482 11.135h2.529l5.417-11.135-2.95 11.135h2.559l3.642-13.676h-3.973l-5.117 10.438.482-10.438z"/>
  <path fill="#0071b3" fill-rule="evenodd" d="M131.849 14.007h-3.582c.24-.998 1.144-1.967 2.287-1.967 1.174.001 1.595.787 1.295 1.967m2.106 1.695.302-1.119c.691-2.571-.393-4.629-3.131-4.629-2.92 0-4.905 2.239-5.658 5.082-.752 2.814.031 5.054 2.95 5.054 2.376 0 4.123-1.361 5.206-3.147h-2.559c-.451.817-1.233 1.09-2.105 1.09-1.054 0-1.506-1.241-1.205-2.33h6.2z" clip-rule="evenodd"/>
  <path fill="none" stroke="#0071b3" stroke-miterlimit="3.863" stroke-width=".302" d="M131.849 14.007h-3.582c.24-.998 1.144-1.967 2.287-1.967 1.174.001 1.595.787 1.295 1.967zm2.106 1.695.302-1.119c.691-2.571-.393-4.629-3.131-4.629-2.92 0-4.905 2.239-5.658 5.082-.752 2.814.031 5.054 2.95 5.054 2.376 0 4.123-1.361 5.206-3.147h-2.559c-.451.817-1.233 1.09-2.105 1.09-1.054 0-1.506-1.241-1.205-2.33h6.2z"/>
  <path fill="#0071b3" fill-rule="evenodd" d="m138.259 10.256-1.716 6.474c-.511 1.937.302 3.328 2.137 3.328 1.265 0 2.317-.393 3.28-1.543l-.33 1.271h2.287l2.527-9.53h-2.377l-1.324 4.992c-.392 1.481-1.084 2.722-2.648 2.722-1.084 0-1.174-.907-.873-2.025l1.504-5.688h-2.467z" clip-rule="evenodd"/>
  <path fill="none" stroke="#0071b3" stroke-miterlimit="3.863" stroke-width=".302" d="m138.259 10.256-1.716 6.474c-.511 1.937.302 3.328 2.137 3.328 1.265 0 2.317-.393 3.28-1.543l-.33 1.271h2.287l2.527-9.53h-2.377l-1.324 4.992c-.392 1.481-1.084 2.722-2.648 2.722-1.084 0-1.174-.907-.873-2.026l1.504-5.688z"/>
  <path fill="#0071b3" fill-rule="evenodd" d="M156.647 13.1c.57-2.179-1.084-3.208-3.281-3.208-2.047 0-3.912 1.09-4.514 3.299-.934 3.479 4.966 2.39 4.544 3.933-.181.695-.752 1.06-1.896 1.06-.902 0-1.775-.394-1.476-1.482h-2.438c-.632 2.48 1.084 3.449 3.312 3.449 2.105 0 4.393-.817 5.055-3.328.964-3.662-5.176-2.36-4.725-4.085.15-.515.572-.999 1.686-.999.963 0 1.445.515 1.354 1.362z" clip-rule="evenodd"/>
  <path fill="none" stroke="#0071b3" stroke-miterlimit="3.863" stroke-width=".302" d="M156.647 13.1c.57-2.179-1.084-3.208-3.281-3.208-2.047 0-3.912 1.09-4.514 3.299-.934 3.479 4.966 2.39 4.544 3.933-.181.695-.752 1.06-1.896 1.06-.902 0-1.775-.394-1.476-1.482h-2.438c-.632 2.48 1.084 3.449 3.312 3.449 2.105 0 4.393-.817 5.055-3.328.964-3.662-5.176-2.36-4.725-4.085.15-.515.572-.999 1.686-.999.963 0 1.445.515 1.354 1.362z"/>
  <path fill="#0071b3" fill-rule="evenodd" d="M165.556 14.007h-3.582c.24-.998 1.145-1.967 2.287-1.967 1.174.001 1.595.787 1.295 1.967m2.105 1.695.302-1.119c.692-2.571-.392-4.629-3.13-4.629-2.919 0-4.906 2.239-5.658 5.082-.752 2.814.03 5.054 2.949 5.054 2.378 0 4.123-1.361 5.207-3.147h-2.559c-.451.817-1.234 1.09-2.106 1.09-1.054 0-1.505-1.241-1.204-2.33h6.199z" clip-rule="evenodd"/>
  <path fill="none" stroke="#0071b3" stroke-miterlimit="3.863" stroke-width=".302" d="M165.556 14.007h-3.582c.24-.998 1.145-1.967 2.287-1.967 1.174.001 1.595.787 1.295 1.967zm2.105 1.695.302-1.119c.692-2.571-.392-4.629-3.13-4.629-2.919 0-4.906 2.239-5.658 5.082-.752 2.814.03 5.054 2.949 5.054 2.378 0 4.123-1.361 5.207-3.147h-2.559c-.451.817-1.234 1.09-2.106 1.09-1.054 0-1.505-1.241-1.204-2.33h6.199z"/>
  <path fill="#0071b3" d="M11.797 11.285V8.5c1.836.999 2.679 1.241 4.303 1.241 2.679 0 4.454-1.301 7.103-1.301 2.558 0 4.846 1.361 7.524 1.361 2.83 0 5.447-1.361 8.216-1.361 1.686 0 2.979 1.301 4.604 1.451v2.452c-1.775-.213-2.769-1.06-4.604-1.362-2.588-.424-5.597 1.604-8.276 1.514-2.769-.092-5.086-1.302-7.524-1.362-2.106-.061-5.056 1.211-7.042 1.301-1.746.091-3.16-.604-4.304-1.149"/>
  <path fill="none" stroke="#0071b3" stroke-miterlimit="3.863" stroke-width=".181" d="M11.797 11.285V8.5c1.836.999 2.679 1.241 4.303 1.241 2.679 0 4.454-1.301 7.103-1.301 2.558 0 4.846 1.361 7.524 1.361 2.83 0 5.447-1.361 8.216-1.361 1.686 0 2.979 1.301 4.604 1.451v2.452c-1.775-.213-2.769-1.06-4.604-1.362-2.588-.424-5.597 1.604-8.276 1.514-2.769-.092-5.086-1.302-7.524-1.362-2.106-.061-5.056 1.211-7.042 1.301-1.746.091-3.16-.604-4.304-1.149z"/>
  <path fill="#0071b3" d="M11.797 16.216v-2.783c1.836.998 2.679 1.24 4.303 1.24 2.679 0 4.454-1.301 7.103-1.301 2.558 0 4.846 1.361 7.524 1.361 2.83 0 5.447-1.361 8.216-1.361 1.686 0 2.979 1.301 4.604 1.452v2.45c-1.775-.212-2.769-1.059-4.604-1.361-2.588-.424-5.597 1.604-8.276 1.513-2.769-.09-5.086-1.301-7.524-1.361-2.106-.061-5.056 1.21-7.042 1.301-1.746.091-3.16-.606-4.304-1.15"/>
  <path fill="none" stroke="#0071b3" stroke-miterlimit="3.863" stroke-width=".181" d="M11.797 16.216v-2.783c1.836.998 2.679 1.24 4.303 1.24 2.679 0 4.454-1.301 7.103-1.301 2.558 0 4.846 1.361 7.524 1.361 2.83 0 5.447-1.361 8.216-1.361 1.686 0 2.979 1.301 4.604 1.452v2.45c-1.775-.212-2.769-1.059-4.604-1.361-2.588-.424-5.597 1.604-8.276 1.513-2.769-.09-5.086-1.301-7.524-1.361-2.106-.061-5.056 1.21-7.042 1.301-1.746.091-3.16-.606-4.304-1.15z"/>
</svg>
