<svg xmlns="http://www.w3.org/2000/svg" xml:space="preserve" viewBox="0 0 68.606 102.339" role="img" aria-labelledby="title">
  <title id="title">Verkehrszeichen F51a - Underground pedestrian crossing</title>
  <path fill="#0071b3" d="M8.046 0h52.603c4.383 0 7.957 3.562 7.957 7.932v86.564c0 4.341-3.574 7.843-7.957 7.843H7.986C3.572 102.339 0 98.776 0 94.437L.03 7.932C.03 3.562 3.632 0 8.046 0"/>
  <path fill="none" d="M8.046 0h52.603c4.383 0 7.957 3.562 7.957 7.932v86.564c0 4.341-3.574 7.843-7.957 7.843H7.986C3.572 102.339 0 98.776 0 94.437L.03 7.932C.03 3.562 3.632 0 8.046 0"/>
  <path fill="#fff" fill-rule="evenodd" d="M58.277 15.445c-3.963 0-6.425-4.251-4.444-7.663 1.982-3.382 6.906-3.382 8.857 0 1.983 3.412-.48 7.663-4.413 7.663" clip-rule="evenodd"/>
  <path fill="none" d="M58.277 15.445c-3.963 0-6.425-4.251-4.444-7.663 1.982-3.382 6.906-3.382 8.857 0 1.983 3.412-.48 7.663-4.413 7.663"/>
  <path fill="#fff" d="M65.813 94.616c0 2.844-2.313 5.148-5.104 5.148H7.926c-2.822 0-5.104-2.305-5.104-5.148V8.201c0-2.813 2.281-5.147 5.104-5.147h52.783c2.792 0 5.104 2.304 5.104 5.178z"/>
  <path fill="none" d="M65.813 94.616c0 2.844-2.313 5.148-5.104 5.148H7.926c-2.822 0-5.104-2.305-5.104-5.148V8.201c0-2.813 2.281-5.147 5.104-5.147h52.783c2.792 0 5.104 2.304 5.104 5.178z"/>
  <path fill="#0071b3" d="M63.531 94.646c0 1.438-1.2 2.574-2.612 2.574H7.625a2.55 2.55 0 0 1-2.552-2.574V7.304c0-1.407 1.141-2.575 2.552-2.575h53.354a2.554 2.554 0 0 1 2.552 2.575z"/>
  <path fill="none" d="M63.531 94.646c0 1.438-1.2 2.574-2.612 2.574H7.625a2.55 2.55 0 0 1-2.552-2.574V7.304c0-1.407 1.141-2.575 2.552-2.575h53.354a2.554 2.554 0 0 1 2.552 2.575z"/>
  <path fill="#fff" d="M24.02 72.496v5.268l-13.963-8.471 13.963-8.501v5.718h34.738l.03 5.927H24.02z"/>
  <path fill="none" d="M24.02 72.496v5.268l-13.963-8.471 13.963-8.501v5.718h34.739l.029 5.927H24.02z"/>
  <path fill="#fff" d="m30.444 13.17 1.982.239.179.539-2.672 1.377-.479 6.167-4.023 5.298 1.651 1.377 4.684-4.76-.09 5.417h1.021l-1.291 5.328.631.629 1.021 10.565 1.201-.118c-.12.269-.271.478-.271.747-.66.958-1.74 1.707-2.941 1.287l-.09.629h3.031l.541-.629h.36l.091.539h.931c.12-.209.21-.509.451-.629.06-.239.119-.478.09-.747-.24-.45-.631-.869-.722-1.377l.722-.09-.451-5.957 2.942 3.203.571-.449.18.18-.841 1.557-1.562.27v.388h2.492l.541-1.196.57-.27.18.18.991-1.018-.091-.449-1.17-1.018.449-.27-5.164-6.046 2.582-5.419h.752l-1.021-8.919 1.2.838.991 6.137 2.402-.18-.931-7.244-4.233-5.059-2.463-.27-.57-.509-.029-.958 1.141-2.663 1.201-.181-.181-.448-1.11-.18V7.154l-3.963-.629-.72 1.557-1.682.629-.09.208 1.201.359v.72l-.541.927.36.359-.18.39.24.239-.06.509z"/>
  <path fill="none" d="m30.444 13.17 1.982.239.179.539-2.672 1.377-.479 6.167-4.023 5.298 1.651 1.377 4.684-4.76-.09 5.417h1.021l-1.291 5.328.631.629 1.021 10.565 1.201-.118c-.12.269-.271.478-.271.747-.66.958-1.74 1.707-2.941 1.287l-.09.629h3.031l.541-.629h.36l.091.539h.931c.12-.209.21-.509.451-.629.06-.239.119-.478.09-.747-.24-.45-.631-.869-.722-1.377l.722-.09-.451-5.957 2.942 3.203.571-.449.18.18-.841 1.557-1.562.27v.388h2.492l.541-1.196.57-.27.18.18.991-1.018-.091-.449-1.17-1.018.449-.27-5.164-6.046 2.582-5.419h.752l-1.021-8.919 1.2.838.991 6.137 2.402-.18-.931-7.244-4.233-5.059-2.463-.27-.57-.509-.029-.958 1.141-2.664 1.201-.18-.181-.448-1.11-.18V7.154l-3.963-.629-.72 1.557-1.682.629-.09.208 1.201.359v.72l-.541.927.36.359-.18.39.24.239-.06.509z"/>
  <path fill="#fff" d="M13.21 58.128h14.713v-3.441h6.575v-3.263h6.545v-3.442h6.395v-3.533h8.167v-3.561H44.256v3.382h-6.755v3.742h-6.516v3.322h-6.396v3.412H13.15v3.472z"/>
  <path fill="none" d="M13.21 58.128h14.713v-3.441h6.575v-3.263h6.545v-3.442h6.395v-3.533h8.167v-3.561H44.256v3.382h-6.755v3.742h-6.516v3.322h-6.396v3.412H13.15v3.472z"/>
  <path fill="#fff" fill-rule="evenodd" d="M44.256 84.23v8.021h2.013V87.73c0-1.975 1.2-2.154 1.74-1.855.391.179.601.599.601 1.438v4.938h2.042V87.73c0-1.975 1.23-2.154 1.771-1.855.391.179.69.599.69 1.438v4.938h2.041v-5.628c0-2.903-3.302-3.441-4.772-1.437-.902-1.706-3.334-1.557-4.264.06V84.23z" clip-rule="evenodd"/>
  <path fill="none" stroke="#fff" stroke-miterlimit="3.863" stroke-width=".18" d="M44.256 84.229v8.022h2.013V87.73c0-1.975 1.2-2.154 1.74-1.855.391.179.601.599.601 1.438v4.938h2.042V87.73c0-1.975 1.23-2.154 1.771-1.855.391.179.69.599.69 1.438v4.938h2.041v-5.628c0-2.903-3.302-3.441-4.772-1.437-.902-1.706-3.334-1.557-4.264.06v-1.018z"/>
  <path fill="#fff" d="M27.202 88.391a3.83 3.83 0 0 1-3.843 3.861c-2.191 0-3.903-1.707-3.903-3.861v-4.16c0-2.156 1.712-3.861 3.903-3.861a3.83 3.83 0 0 1 3.843 3.861z"/>
  <path fill="none" stroke="#fff" stroke-miterlimit="3.863" stroke-width=".18" d="M27.202 88.391a3.83 3.83 0 0 1-3.843 3.861c-2.191 0-3.903-1.707-3.903-3.861V84.23c0-2.155 1.712-3.86 3.903-3.86a3.83 3.83 0 0 1 3.843 3.86z"/>
  <path fill="#0071b3" d="M21.437 88.511V84.05c0-1.047.841-1.916 1.922-1.916 1.05 0 1.862.869 1.862 1.916v4.461a1.85 1.85 0 0 1-1.862 1.854c-1.081 0-1.922-.838-1.922-1.854"/>
  <path fill="none" stroke="#0071b3" stroke-miterlimit="3.863" stroke-width=".18" d="M21.437 88.511V84.05c0-1.047.841-1.916 1.922-1.916 1.05 0 1.862.869 1.862 1.916v4.461a1.85 1.85 0 0 1-1.862 1.854c-1.081 0-1.922-.838-1.922-1.854z"/>
  <path fill="#fff" d="M16.483 92.252V80.369h-1.922l-1.231 2.034v1.198h1.051v8.651z"/>
  <path fill="none" stroke="#fff" stroke-miterlimit="3.863" stroke-width=".18" d="M16.483 92.252V80.369h-1.922l-1.231 2.034v1.198h1.051v8.651z"/>
  <path fill="#fff" d="M37.86 88.391a3.83 3.83 0 0 1-3.843 3.861c-2.191 0-3.903-1.707-3.903-3.861v-4.16c0-2.156 1.711-3.861 3.903-3.861a3.83 3.83 0 0 1 3.843 3.861z"/>
  <path fill="none" stroke="#fff" stroke-miterlimit="3.863" stroke-width=".18" d="M37.86 88.391a3.83 3.83 0 0 1-3.843 3.861c-2.191 0-3.903-1.707-3.903-3.861V84.23c0-2.155 1.711-3.86 3.903-3.86a3.83 3.83 0 0 1 3.843 3.86z"/>
  <path fill="#0071b3" d="M32.096 88.511V84.05c0-1.047.84-1.916 1.921-1.916 1.052 0 1.862.869 1.862 1.916v4.461c0 1.017-.81 1.854-1.862 1.854-1.08 0-1.921-.838-1.921-1.854"/>
  <path fill="none" stroke="#0071b3" stroke-miterlimit="3.863" stroke-width=".18" d="M32.096 88.511V84.05c0-1.047.84-1.916 1.921-1.916 1.052 0 1.862.869 1.862 1.916v4.461c0 1.017-.81 1.854-1.862 1.854-1.08 0-1.921-.838-1.921-1.854z"/>
</svg>
