<svg xmlns="http://www.w3.org/2000/svg" xml:space="preserve" viewBox="0 0 68.375 102.687" role="img" aria-labelledby="title">
  <title id="title">Verkehrszeichen F75 - Youth hostel</title>
  <path fill="#0071b3" d="M8.019 0h52.426c4.369 0 7.93 3.573 7.93 7.958v86.86c0 4.354-3.561 7.868-7.93 7.868H7.959C3.56 102.687 0 99.114 0 94.759L.03 7.958C.03 3.573 3.62 0 8.019 0"/>
  <path fill="none" d="M8.019 0h52.426c4.369 0 7.93 3.573 7.93 7.958v86.86c0 4.354-3.561 7.868-7.93 7.868H7.959C3.56 102.687 0 99.114 0 94.759L.03 7.958C.03 3.573 3.62 0 8.019 0"/>
  <path fill="#fff" fill-rule="evenodd" d="M58.081 15.498c-3.95 0-6.403-4.265-4.429-7.689 1.975-3.393 6.883-3.393 8.828 0 1.975 3.424-.479 7.689-4.399 7.689" clip-rule="evenodd"/>
  <path fill="none" d="M58.081 15.498c-3.95 0-6.403-4.265-4.429-7.689 1.975-3.393 6.883-3.393 8.828 0 1.975 3.424-.479 7.689-4.399 7.689"/>
  <path fill="#fff" d="M65.592 94.699c0 2.854-2.303 5.166-5.086 5.166H7.899c-2.813 0-5.086-2.313-5.086-5.166V7.989c0-2.823 2.274-5.166 5.086-5.166h52.607c2.783 0 5.086 2.312 5.086 5.195z"/>
  <path fill="none" d="M65.592 94.699c0 2.854-2.303 5.166-5.086 5.166H7.899c-2.813 0-5.086-2.313-5.086-5.166V7.989c0-2.823 2.274-5.166 5.086-5.166h52.607c2.783 0 5.086 2.313 5.086 5.196z"/>
  <path fill="#0071b3" d="M63.318 95.179c0 1.441-1.197 2.582-2.604 2.582H7.601c-1.406 0-2.544-1.141-2.544-2.582V7.538c0-1.412 1.138-2.583 2.544-2.583h53.173c1.407 0 2.545 1.141 2.545 2.583v87.641z"/>
  <path fill="none" d="M63.318 95.179c0 1.441-1.197 2.582-2.604 2.582H7.601c-1.406 0-2.544-1.141-2.544-2.582V7.538c0-1.412 1.138-2.583 2.544-2.583h53.173c1.407 0 2.545 1.141 2.545 2.583v87.641z"/>
  <path fill="#fff" fill-rule="evenodd" d="M58.83 76.078H9.605V26.67H58.83z" clip-rule="evenodd"/>
  <path fill="none" d="M58.83 76.078H9.605V26.67H58.83z"/>
  <path fill="#120c0e" fill-rule="evenodd" d="m26.901 47.964 14.542-14.956 15.022 14.956z" clip-rule="evenodd"/>
  <path fill="none" d="m26.901 47.964 14.542-14.956 15.022 14.956z"/>
  <path fill="#120c0e" d="M28.637 48.806h25.914v19.822h1.765v.872H12.088v-.75h7.75v-6.128c-2.843-.12-5.506.661-7.78.9l3.98-8.47-1.916 1.291 4.459-12.794-1.017.661 2.663-10.992L23.04 44.06l-1.078-.661 4.549 12.915-1.706-1.201 3.711 8.26c-2.543-.42-5.058-.811-7.511-.751v6.007h7.631V48.746v.06z"/>
  <path fill="none" d="M28.637 48.806h25.914v19.822h1.765v.872H12.088v-.75h7.75v-6.128c-2.843-.12-5.506.661-7.78.9l3.98-8.47-1.916 1.291 4.459-12.794-1.017.661 2.663-10.992L23.04 44.06l-1.078-.661 4.549 12.915-1.706-1.201 3.711 8.259c-2.543-.419-5.058-.81-7.511-.75v6.007h7.631V48.746v.06z"/>
  <path fill="#fff" fill-rule="evenodd" d="M45.363 68.659h-7.689V56.615h7.689z" clip-rule="evenodd"/>
  <path fill="none" d="M45.363 68.659h-7.689V56.615h7.689z"/>
</svg>
