<svg xmlns="http://www.w3.org/2000/svg" xml:space="preserve" viewBox="0 0 68.375 102.687" role="img" aria-labelledby="title">
  <title id="title">Verkehrszeichen F69 - Place where you can drink something</title>
  <path fill="#0071b3" d="M8.019 0h52.426c4.369 0 7.93 3.573 7.93 7.958v86.86c0 4.354-3.561 7.868-7.93 7.868H7.959C3.56 102.687 0 99.114 0 94.759L.03 7.958C.03 3.573 3.62 0 8.019 0"/>
  <path fill="none" d="M8.019 0h52.426c4.369 0 7.93 3.573 7.93 7.958v86.86c0 4.354-3.561 7.868-7.93 7.868H7.959C3.56 102.687 0 99.114 0 94.759L.03 7.958C.03 3.573 3.62 0 8.019 0"/>
  <path fill="#fff" fill-rule="evenodd" d="M58.081 15.498c-3.95 0-6.403-4.265-4.429-7.689 1.975-3.393 6.883-3.393 8.828 0 1.975 3.424-.479 7.689-4.399 7.689" clip-rule="evenodd"/>
  <path fill="none" d="M58.081 15.498c-3.95 0-6.403-4.265-4.429-7.689 1.975-3.393 6.883-3.393 8.828 0 1.975 3.424-.479 7.689-4.399 7.689"/>
  <path fill="#fff" d="M65.592 94.699c0 2.854-2.303 5.166-5.086 5.166H7.899c-2.813 0-5.086-2.313-5.086-5.166V7.989c0-2.823 2.274-5.166 5.086-5.166h52.607c2.783 0 5.086 2.312 5.086 5.195z"/>
  <path fill="none" d="M65.592 94.699c0 2.854-2.303 5.166-5.086 5.166H7.899c-2.813 0-5.086-2.313-5.086-5.166V7.989c0-2.823 2.274-5.166 5.086-5.166h52.607c2.783 0 5.086 2.313 5.086 5.196z"/>
  <path fill="#0071b3" d="M63.318 95.179c0 1.441-1.197 2.582-2.604 2.582H7.601c-1.406 0-2.544-1.141-2.544-2.582V7.538c0-1.412 1.138-2.583 2.544-2.583h53.173c1.407 0 2.545 1.141 2.545 2.583v87.641z"/>
  <path fill="none" d="M63.318 95.179c0 1.441-1.197 2.582-2.604 2.582H7.601c-1.406 0-2.544-1.141-2.544-2.582V7.538c0-1.412 1.138-2.583 2.544-2.583h53.173c1.407 0 2.545 1.141 2.545 2.583v87.641z"/>
  <path fill="#fff" fill-rule="evenodd" d="M58.83 76.078H9.605V26.67H58.83z" clip-rule="evenodd"/>
  <path fill="none" d="M58.83 76.078H9.605V26.67H58.83z"/>
  <path fill="#120c0e" d="m24.657 61.451-12.389-.932c-.299 2.043 1.975 4.564 4.069 4.564h35.729c1.975 0 4.16-2.281 4.16-4.385l-12.119.632c.747-1.23 1.556-2.853 1.676-4.145 2.813-1.471 7.75-6.668 9.156-11.623.479-1.712-.809-3.784-2.693-3.814l-3.83-.06c.389-1.862.568-3.334.449-4.956H19.659c.36 7.298 1.137 17.18 4.998 24.719"/>
  <path fill="none" d="m24.657 61.451-12.389-.932c-.299 2.043 1.975 4.564 4.069 4.564h35.729c1.975 0 4.16-2.281 4.16-4.385l-12.119.632c.747-1.23 1.556-2.853 1.676-4.145 2.813-1.471 7.75-6.668 9.156-11.623.479-1.712-.809-3.784-2.693-3.814l-3.83-.06c.389-1.862.568-3.334.449-4.957H19.659c.36 7.299 1.137 17.181 4.998 24.72"/>
  <path fill="#fff" d="M46.5 54.962c1.228-3.904 1.676-8.199 1.916-11.684 3.262-.119 5.895-.75 4.996 2.554-.447 1.232-1.853 6.037-6.912 9.13"/>
  <path fill="none" d="M46.5 54.962c1.228-3.904 1.676-8.199 1.916-11.684 3.262-.119 5.895-.75 4.996 2.554-.447 1.232-1.853 6.037-6.912 9.13"/>
</svg>
