<svg xmlns="http://www.w3.org/2000/svg" xml:space="preserve" viewBox="0 0 170.577 102.162" role="img" aria-labelledby="title">
  <title id="title">Verkehrszeichen F1 - Start of built-up area F1 is an old type of sign, no longer in use since 2015 Signs F1a and F1b may have the name of the built-up area on them</title>
  <path d="M7.676 100.224H162.98c3.167 0 5.693-2.558 5.693-5.716V7.735c0-3.158-2.526-5.756-5.693-5.756H7.676c-3.167 0-5.692 2.558-5.692 5.716v86.813c0 3.158 2.526 5.716 5.692 5.716"/>
  <path fill="none" stroke="#000" stroke-miterlimit="3.863" stroke-width=".2" d="M7.676 100.224H162.98c3.167 0 5.693-2.558 5.693-5.716V7.735c0-3.158-2.526-5.756-5.693-5.756H7.676c-3.167 0-5.692 2.558-5.692 5.716v86.813c0 3.158 2.526 5.716 5.692 5.716z"/>
  <path fill="#fff" d="M162.98 3.658H7.636c-2.204 0-3.969 1.878-3.969 4.077v86.814c0 2.198 1.725 3.957 3.929 3.957H163.06c2.205 0 3.889-1.719 3.889-3.918V7.614a3.945 3.945 0 0 0-3.969-3.956"/>
  <path fill="none" stroke="#000" stroke-miterlimit="3.863" stroke-width=".2" d="M162.98 3.658H7.636c-2.204 0-3.969 1.878-3.969 4.077v86.813c0 2.199 1.725 3.958 3.929 3.958H163.06c2.205 0 3.889-1.719 3.889-3.918V7.614a3.945 3.945 0 0 0-3.969-3.956z"/>
  <path fill="none" stroke="#000" stroke-miterlimit="3.863" stroke-width=".2" d="M170.477 94.469V7.655c0-4.198-3.326-7.555-7.535-7.555H7.636C3.427.1.1 3.538.1 7.735v86.773a7.534 7.534 0 0 0 7.576 7.555H162.98c4.21 0 7.497-3.398 7.497-7.594z"/>
  <path fill-rule="evenodd" d="M50.812 39.71v4.157h-1.684v3.796h1.884l.08 7.555c.04 2.758 2.205 3.756 4.169 3.756h1.845v-2.957c-1.645 0-2.526-.16-2.526-.999l.08-7.355h2.846v-3.796H54.38l.08-6.156z" clip-rule="evenodd"/>
  <path fill="none" stroke="#000" stroke-miterlimit="3.863" stroke-width=".2" d="M50.812 39.71v4.157h-1.684v3.796h1.884l.08 7.555c.04 2.758 2.206 3.756 4.169 3.756h1.845v-2.957c-1.645 0-2.526-.16-2.526-.999l.08-7.355h2.846v-3.796H54.38l.08-6.156z"/>
  <path fill-rule="evenodd" d="M110.904 43.947V64.49h3.609v-6.035c.881.721 1.283.92 2.485 1.04 2.284.239 5.572-.919 5.572-4.638V52.02c0-2.397 1.161-8.233-4.69-8.633-1.604-.12-2.767.2-3.568 1.399v-.839z" clip-rule="evenodd"/>
  <path fill="none" stroke="#000" stroke-miterlimit="3.863" stroke-width=".2" d="M110.904 43.947V64.49h3.609v-6.035c.881.721 1.283.92 2.485 1.04 2.284.239 5.572-.919 5.572-4.638V52.02c0-2.397 1.161-8.233-4.69-8.633-1.604-.12-2.767.2-3.568 1.399v-.839z"/>
  <path fill-rule="evenodd" d="m19.543 38.591-6.174 20.384h4.129l.882-2.997h5.893l.962 2.997h4.17l-5.773-20.384z" clip-rule="evenodd"/>
  <path fill="none" stroke="#000" stroke-miterlimit="3.863" stroke-width=".2" d="m19.543 38.591-6.174 20.384h4.129l.882-2.997h5.893l.962 2.997h4.17l-5.773-20.384z"/>
  <path fill="#fff" fill-rule="evenodd" d="m21.347 46.585 2.085 6.075h-4.089z" clip-rule="evenodd"/>
  <path fill="none" stroke="#000" stroke-miterlimit="3.863" stroke-width=".2" d="m21.347 46.585 2.085 6.075h-4.089z"/>
  <path fill-rule="evenodd" d="M33.814 44.147v14.828h3.407v-8.232c0-2.438.562-3.558 1.645-4.037 1.363-.76 3.367.28 3.367 3.317v8.914H45.6V48.783c0-5.716-6.534-6.556-8.378-3.557v-1.079z" clip-rule="evenodd"/>
  <path fill="none" stroke="#000" stroke-miterlimit="3.863" stroke-width=".2" d="M33.814 44.147v14.828h3.407v-8.232c0-2.438.562-3.558 1.645-4.037 1.363-.76 3.367.279 3.367 3.317v8.914H45.6V48.783c0-5.716-6.534-6.556-8.378-3.557v-1.079z"/>
  <path fill-rule="evenodd" d="m60.634 43.826 3.327 15.35h2.967l2.926-9.354 2.325 9.354h3.208l5.292-15.35H76.95l-3.007 8.594-2.165-8.594h-3.287l-2.766 8.515-1.925-8.515z" clip-rule="evenodd"/>
  <path fill="none" stroke="#000" stroke-miterlimit="3.863" stroke-width=".2" d="m60.634 43.826 3.327 15.35h2.967l2.926-9.354 2.325 9.354h3.208l5.292-15.35H76.95l-3.007 8.594-2.165-8.594h-3.287l-2.766 8.515-1.925-8.515z"/>
  <path fill-rule="evenodd" d="M103.088 45.386v-1.639h-3.447v15.307h3.247v-8.113c.04-2.519.882-3.558 2.806-3.478l2.205.08v-3.718h-1.684c-2.005.001-2.285.442-3.127 1.561" clip-rule="evenodd"/>
  <path fill="none" stroke="#000" stroke-miterlimit="3.863" stroke-width=".2" d="M103.088 45.386v-1.638h-3.447v15.307h3.247v-8.113c.04-2.519.882-3.558 2.807-3.478l2.204.08v-3.718h-1.684c-2.005 0-2.285.441-3.127 1.56z"/>
  <path fill-rule="evenodd" d="M142.055 43.826v15.148h3.406v-8.393c0-2.518.562-3.637 1.645-4.117 1.363-.799 3.367.281 3.367 3.358v9.113h3.367V48.583c0-5.835-6.535-6.715-8.379-3.637v-1.12z" clip-rule="evenodd"/>
  <path fill="none" stroke="#000" stroke-miterlimit="3.863" stroke-width=".2" d="M142.055 43.826v15.148h3.406V50.58c0-2.517.562-3.636 1.645-4.117 1.363-.799 3.367.281 3.367 3.358v9.113h3.367V48.583c0-5.835-6.535-6.715-8.379-3.637v-1.12z"/>
  <path fill="#fff" fill-rule="evenodd" d="M114.354 51.142c0-2.319-.32-5.117 2.404-5.196 2.686-.08 2.485 2.877 2.485 5.196 0 2.438.362 5.315-2.485 5.315-2.445 0-2.404-2.877-2.404-5.315" clip-rule="evenodd"/>
  <path fill="none" stroke="#000" stroke-miterlimit="3.863" stroke-width=".2" d="M114.354 51.142c0-2.319-.32-5.117 2.404-5.196 2.686-.08 2.485 2.877 2.485 5.196 0 2.438.362 5.315-2.485 5.315-2.445 0-2.404-2.877-2.404-5.315z"/>
  <path fill-rule="evenodd" d="m94.83 52.74.08-2.559c.12-3.837-2.205-6.755-6.094-6.755-4.17 0-5.573 3.038-5.573 7.194 0 4.077.441 8.354 5.493 8.834 2.966.279 5.211-1.959 6.053-4.637h-3.607c-.32 1.159-1.403 1.68-2.525 1.68-1.564 0-2.165-2.08-2.165-3.758z" clip-rule="evenodd"/>
  <path fill="none" stroke="#000" stroke-miterlimit="3.863" stroke-width=".2" d="m94.83 52.74.08-2.559c.12-3.837-2.205-6.755-6.094-6.755-4.17 0-5.573 3.038-5.573 7.194 0 4.077.441 8.354 5.493 8.834 2.966.279 5.211-1.959 6.053-4.637h-3.607c-.32 1.159-1.403 1.68-2.525 1.68-1.564 0-2.165-2.08-2.165-3.758z"/>
  <path fill="#fff" fill-rule="evenodd" d="M91.342 49.423h-5.091c0-1.639.962-3.038 2.604-3.038 1.606 0 2.487 1.159 2.487 3.038" clip-rule="evenodd"/>
  <path fill="none" stroke="#000" stroke-miterlimit="3.863" stroke-width=".2" d="M91.342 49.423h-5.091c0-1.64.962-3.038 2.604-3.038 1.606 0 2.487 1.159 2.487 3.038z"/>
  <path fill-rule="evenodd" d="m137.885 52.78.08-2.559c.121-3.837-2.205-6.755-6.094-6.755-4.169 0-5.572 3.038-5.572 7.194 0 4.077.441 8.354 5.492 8.834 2.967.279 5.212-1.959 6.055-4.638h-3.609c-.32 1.16-1.402 1.68-2.525 1.68-1.563 0-2.164-2.078-2.164-3.757z" clip-rule="evenodd"/>
  <path fill="none" stroke="#000" stroke-miterlimit="3.863" stroke-width=".2" d="m137.885 52.78.08-2.559c.121-3.837-2.205-6.755-6.094-6.755-4.169 0-5.572 3.038-5.572 7.194 0 4.077.441 8.354 5.492 8.834 2.967.279 5.212-1.959 6.055-4.638h-3.609c-.32 1.16-1.402 1.68-2.525 1.68-1.563 0-2.164-2.078-2.164-3.757z"/>
  <path fill="#fff" fill-rule="evenodd" d="M134.396 49.463h-5.091c0-1.64.962-3.039 2.605-3.039 1.605 0 2.486 1.16 2.486 3.039" clip-rule="evenodd"/>
  <path fill="none" stroke="#000" stroke-miterlimit="3.863" stroke-width=".2" d="M134.396 49.463h-5.091c0-1.64.962-3.039 2.605-3.039 1.605 0 2.486 1.16 2.486 3.039z"/>
</svg>
