<svg xmlns="http://www.w3.org/2000/svg" xml:space="preserve" viewBox="0 0 68.375 102.688" role="img" aria-labelledby="title">
  <title id="title">Verkehrszeichen F65 - Hotel or motel</title>
  <path fill="#0071b3" d="M8.019 0h52.427c4.369 0 7.93 3.575 7.93 7.959v86.859c0 4.355-3.561 7.869-7.93 7.869H7.959C3.56 102.687 0 99.113 0 94.757L.03 7.959C.03 3.575 3.62 0 8.019 0"/>
  <path fill="none" d="M8.019 0h52.427c4.369 0 7.93 3.575 7.93 7.959v86.859c0 4.355-3.561 7.869-7.93 7.869H7.959C3.56 102.687 0 99.113 0 94.757L.03 7.959C.03 3.575 3.62 0 8.019 0"/>
  <path fill="#fff" fill-rule="evenodd" d="M58.081 15.498c-3.949 0-6.402-4.265-4.428-7.688 1.975-3.395 6.882-3.395 8.827 0 1.976 3.423-.48 7.688-4.399 7.688" clip-rule="evenodd"/>
  <path fill="none" d="M58.081 15.498c-3.949 0-6.402-4.265-4.428-7.688 1.975-3.395 6.882-3.395 8.827 0 1.976 3.423-.48 7.688-4.399 7.688"/>
  <path fill="#fff" d="M65.592 94.699c0 2.853-2.304 5.165-5.086 5.165H7.899c-2.813 0-5.086-2.313-5.086-5.165V7.989c0-2.823 2.273-5.166 5.086-5.166h52.607c2.782 0 5.086 2.312 5.086 5.195z"/>
  <path fill="none" d="M65.592 94.699c0 2.853-2.304 5.165-5.086 5.165H7.899c-2.813 0-5.086-2.313-5.086-5.165V7.989c0-2.823 2.273-5.166 5.086-5.166h52.607c2.782 0 5.086 2.312 5.086 5.195z"/>
  <path fill="#0071b3" d="M63.319 95.18c0 1.441-1.198 2.582-2.604 2.582H7.601c-1.407 0-2.544-1.141-2.544-2.582V7.539c0-1.412 1.138-2.583 2.544-2.583h53.173c1.406 0 2.545 1.141 2.545 2.583z"/>
  <path fill="none" d="M63.319 95.18c0 1.441-1.198 2.582-2.604 2.582H7.601c-1.407 0-2.544-1.141-2.544-2.582V7.539c0-1.412 1.138-2.583 2.544-2.583h53.173c1.406 0 2.545 1.141 2.545 2.583z"/>
  <path fill="#fff" fill-rule="evenodd" d="M58.831 76.077H9.605V26.67h49.226z" clip-rule="evenodd"/>
  <path fill="none" d="M58.831 76.077H9.605V26.67h49.226z"/>
  <path fill="#120c0e" d="M57.663 51.569v5.917l-.778.451-.927-.12v-.781l-11.432 6.938v1.143l-.809.569-.896-.331v-1.051L14.244 51.809v.451l-.927.209-.898-.449v-6.848c0-1.112.779-2.253 2.155-2.943l9.815-4.866c.718-.391 2.094.241 1.944 1.201v4.385c-1.974.511-8.229 2.373-9.276 3.604-.688 1.322-.808 2.252.21 3.273L43.508 61.12v-2.522c0-.721.658-2.553 2.096-3.544l9.156-5.227c1.317-.781 2.903.661 2.903 1.742"/>
  <path fill="none" stroke="#120c0e" stroke-miterlimit="3.863" stroke-width=".18" d="M57.663 51.569v5.917l-.778.451-.927-.12v-.781l-11.432 6.938v1.143l-.809.569-.896-.331v-1.051L14.244 51.809v.451l-.927.209-.898-.449v-6.848c0-1.112.779-2.253 2.155-2.943l9.815-4.866c.718-.391 2.094.241 1.944 1.201v4.385c-1.974.511-8.229 2.373-9.276 3.604-.688 1.322-.808 2.252.21 3.273L43.508 61.12v-2.522c0-.721.658-2.553 2.096-3.544l9.156-5.227c1.317-.781 2.903.661 2.903 1.742z"/>
  <path fill="none" stroke="#120c0e" stroke-miterlimit="3.863" stroke-width=".3" d="m50.719 52.02-24.387-9.071"/>
  <path fill="#fff" d="M16.637 49.556c-1.167-.089-2.603-1.921-1.915-3.333.658-1.352 1.854-1.742 2.783-2.253 3.171-1.801 5.267-2.102 7.092-2.703.808-.271.568-.961.209-1.081-2.064-.481-4.817.78-7.54 2.252-.659.361-2.275 1.082-3.172 2.524-.957 1.562.06 3.754 1.556 4.475.269.09 1.226.149.987.119"/>
  <path fill="none" stroke="#fff" stroke-miterlimit="3.863" stroke-width=".18" d="M16.637 49.556c-1.167-.089-2.603-1.921-1.915-3.333.658-1.352 1.854-1.742 2.783-2.253 3.171-1.801 5.267-2.102 7.092-2.703.808-.271.568-.961.209-1.081-2.064-.481-4.817.78-7.54 2.252-.659.361-2.275 1.082-3.172 2.524-.957 1.562.06 3.754 1.556 4.475.269.09 1.227.149.987.119z"/>
</svg>
