<svg xmlns="http://www.w3.org/2000/svg" xml:space="preserve" viewBox="0 0 68.606 102.34" role="img" aria-labelledby="title">
  <title id="title">Verkehrszeichen F63 - Fuel</title>
  <path fill="#0071b3" d="M8.046 0H60.65c4.383 0 7.956 3.563 7.956 7.933v86.565c0 4.34-3.573 7.842-7.956 7.842H7.986C3.572 102.34 0 98.777 0 94.438L.03 7.933C.03 3.563 3.632 0 8.046 0"/>
  <path fill="none" d="M8.046 0H60.65c4.383 0 7.956 3.563 7.956 7.933v86.565c0 4.34-3.573 7.842-7.956 7.842H7.986C3.572 102.34 0 98.777 0 94.438L.03 7.933C.03 3.563 3.632 0 8.046 0"/>
  <path fill="#fff" fill-rule="evenodd" d="M58.277 15.445c-3.963 0-6.425-4.25-4.444-7.662 1.982-3.383 6.906-3.383 8.858 0 1.982 3.412-.481 7.662-4.414 7.662" clip-rule="evenodd"/>
  <path fill="none" d="M58.277 15.445c-3.963 0-6.425-4.25-4.443-7.662 1.981-3.383 6.905-3.383 8.857 0 1.982 3.412-.481 7.662-4.414 7.662"/>
  <path fill="#fff" d="M65.813 94.378c0 2.843-2.313 5.147-5.104 5.147H7.926c-2.822 0-5.104-2.305-5.104-5.147V7.963c0-2.813 2.282-5.149 5.104-5.149H60.71c2.791 0 5.104 2.306 5.104 5.179v86.385z"/>
  <path fill="none" d="M65.813 94.378c0 2.843-2.313 5.147-5.104 5.147H7.926c-2.822 0-5.104-2.305-5.104-5.147V7.963c0-2.813 2.282-5.149 5.104-5.149H60.71c2.791 0 5.104 2.305 5.104 5.179v86.385z"/>
  <path fill="#0071b3" d="M63.532 94.857c0 1.437-1.201 2.574-2.613 2.574H7.625a2.553 2.553 0 0 1-2.552-2.574V7.514c0-1.407 1.141-2.574 2.552-2.574h53.354a2.553 2.553 0 0 1 2.553 2.574z"/>
  <path fill="none" d="M63.532 94.857c0 1.437-1.201 2.574-2.613 2.574H7.625a2.553 2.553 0 0 1-2.552-2.574V7.514c0-1.407 1.141-2.574 2.552-2.574h53.354a2.553 2.553 0 0 1 2.553 2.574z"/>
  <path fill="#fff" fill-rule="evenodd" d="M59.028 75.819H9.638V26.58h49.391z" clip-rule="evenodd"/>
  <path fill="none" d="M59.028 75.819H9.638V26.58h49.391z"/>
  <path fill="#120c0e" d="M42.574 37.745v28.137l9.218.06v5.119H16.904v-4.969h8.857V42.595h-1.652c.511 2.903.751 5.747.992 8.681.21 2.693.57 7.691-.511 10.686-.78 2.215-2.882 2.693-4.504 2.364-2.191-.448-3.122-2.784-3.212-4.698-.271-5.748.84-8.651 2.341-13.471l-.541-.089.661-3.293 2.461-2.305h4.233v-3.023c0-.928 1.141-1.886 1.682-1.886h2.102v-.898c0-.898.511-1.497 1.501-1.556h5.584c.781 0 1.441.808 1.441 1.407v.868h2.313c1.113-.001 1.922 1.196 1.922 2.363"/>
  <path fill="none" d="M42.574 37.745v28.137l9.218.06v5.119H16.904v-4.969h8.857V42.595h-1.652c.511 2.903.751 5.747.992 8.681.21 2.693.57 7.691-.511 10.686-.78 2.215-2.882 2.693-4.504 2.364-2.191-.448-3.122-2.784-3.212-4.698-.271-5.748.84-8.651 2.341-13.471l-.541-.089.661-3.293 2.461-2.305h4.233v-3.023c0-.928 1.141-1.886 1.682-1.886h2.102v-.898c0-.898.511-1.497 1.501-1.556h5.584c.781 0 1.441.808 1.441 1.407v.868h2.313c1.113-.001 1.922 1.196 1.922 2.363"/>
  <path fill="#fff" fill-rule="evenodd" d="M37.44 38.674h-6.395v-1.317h6.395z" clip-rule="evenodd"/>
  <path fill="none" stroke="#120c0e" stroke-miterlimit="3.863" stroke-width=".18" d="M37.44 38.674h-6.395v-1.317h6.395z"/>
  <path fill="#fff" fill-rule="evenodd" d="M37.53 43.852h-6.365V40.35h6.365z" clip-rule="evenodd"/>
  <path fill="none" stroke="#120c0e" stroke-miterlimit="3.863" stroke-width=".18" d="M37.53 43.852h-6.365V40.35h6.365z"/>
  <path fill="#fff" d="M23.028 42.654c.421 1.646.781 4.431.932 6.555.239 2.843.299 6.765.12 9.667-.09 1.289.089 3.533-2.463 4.251-2.041.569-3.663-1.467-3.663-3.202-.03-4.28.511-8.231 2.432-13.918h.872v-2.605l.54-.808z"/>
  <path fill="none" stroke="#120c0e" stroke-miterlimit="3.863" stroke-width=".18" d="M23.028 42.654c.421 1.646.781 4.431.932 6.555.239 2.843.299 6.765.12 9.667-.09 1.289.089 3.533-2.463 4.251-2.041.569-3.663-1.467-3.663-3.202-.03-4.28.511-8.231 2.432-13.918h.872v-2.605l.54-.808z"/>
</svg>
