<svg xmlns="http://www.w3.org/2000/svg" xml:space="preserve" viewBox="0 0 102.164 102.582" role="img" aria-labelledby="title">
  <title id="title">Verkehrszeichen F49 - Pedestrian crossing</title>
  <path fill="#0071b3" d="M7.654.1H94.55c4.156.04 7.514 3.407 7.514 7.576v87.351c0 4.089-3.357 7.456-7.434 7.456H7.614C3.457 102.483.1 99.116.1 95.067V7.676C.1 3.507 3.457.14 7.614.14z"/>
  <path fill="none" stroke="#0071b3" stroke-miterlimit="3.863" stroke-width=".2" d="M7.654.1H94.55c4.156.04 7.514 3.407 7.514 7.576v87.351c0 4.089-3.357 7.456-7.434 7.456H7.614C3.457 102.483.1 99.116.1 95.067V7.676C.1 3.507 3.457.14 7.614.14z"/>
  <path fill="#fff" d="m7.614 1.943 86.936.08c3.077 0 5.676 2.525 5.676 5.652v87.391c0 3.086-2.599 5.652-5.676 5.652l-87.375-.161c-2.917 0-5.156-2.365-5.156-5.251l-.121-87.67c0-3.087 2.559-5.693 5.716-5.693"/>
  <path fill="none" stroke="#fff" stroke-miterlimit="3.863" stroke-width=".2" d="m7.614 1.943 86.936.08c3.077 0 5.676 2.525 5.676 5.652v87.391c0 3.086-2.599 5.652-5.676 5.652l-87.375-.161c-2.917 0-5.156-2.365-5.156-5.251l-.121-87.67c0-3.087 2.559-5.693 5.716-5.693z"/>
  <path fill="#0071b3" d="m7.614 3.668 86.936.04c2.158 0 3.957 1.804 3.957 3.968v87.391c0 2.165-1.799 3.969-3.957 3.969H7.614c-2.158 0-3.957-1.804-3.957-3.969V7.636c0-2.164 1.8-3.968 3.957-3.968"/>
  <path fill="none" stroke="#0071b3" stroke-miterlimit="3.863" stroke-width=".2" d="m7.614 3.668 86.936.04c2.158 0 3.957 1.804 3.957 3.968v87.391c0 2.165-1.799 3.969-3.957 3.969H7.614c-2.158 0-3.957-1.804-3.957-3.969V7.636c0-2.164 1.8-3.968 3.957-3.968z"/>
  <path fill="#fff" fill-rule="evenodd" d="m9.973 84.885 39.651-68.91 39.69 68.91z" clip-rule="evenodd"/>
  <path fill="none" d="m9.973 84.885 39.651-68.91 39.69 68.91z"/>
  <path fill="#120c0e" fill-rule="evenodd" d="m20.605 81.356 1.04-1.763h3.996l-1.039 1.763z" clip-rule="evenodd"/>
  <path fill="none" d="m20.605 81.356 1.04-1.763h3.996l-1.039 1.763z"/>
  <path fill="#120c0e" fill-rule="evenodd" d="m27.36 81.356 1.038-1.763h3.998l-1.039 1.763z" clip-rule="evenodd"/>
  <path fill="none" d="m27.36 81.356 1.038-1.763h3.998l-1.039 1.763z"/>
  <path fill="#120c0e" fill-rule="evenodd" d="m34.155 81.316 1.038-1.763h3.998l-1.039 1.763z" clip-rule="evenodd"/>
  <path fill="none" d="m34.155 81.316 1.038-1.763h3.998l-1.039 1.763z"/>
  <path fill="#120c0e" fill-rule="evenodd" d="m40.91 81.316 1.039-1.763h3.997l-1.039 1.763z" clip-rule="evenodd"/>
  <path fill="none" d="m40.91 81.316 1.039-1.763h3.997l-1.039 1.763z"/>
  <path fill="#120c0e" fill-rule="evenodd" d="m47.705 81.316 1.039-1.763h3.997l-1.038 1.763z" clip-rule="evenodd"/>
  <path fill="none" d="m47.705 81.316 1.039-1.763h3.997l-1.038 1.763z"/>
  <path fill="#120c0e" fill-rule="evenodd" d="m54.5 81.316 1.039-1.763h3.997l-1.04 1.763z" clip-rule="evenodd"/>
  <path fill="none" d="m54.5 81.316 1.039-1.763h3.997l-1.04 1.763z"/>
  <path fill="#120c0e" fill-rule="evenodd" d="m61.254 81.316 1.039-1.763h3.998l-1.04 1.763z" clip-rule="evenodd"/>
  <path fill="none" d="m61.254 81.316 1.039-1.763h3.998l-1.04 1.763z"/>
  <path fill="#120c0e" fill-rule="evenodd" d="m68.049 81.276 1.039-1.763h3.997l-1.039 1.763z" clip-rule="evenodd"/>
  <path fill="none" d="m68.049 81.276 1.039-1.763h3.997l-1.039 1.763z"/>
  <path fill="#120c0e" fill-rule="evenodd" d="m74.804 81.276 1.039-1.763h3.998l-1.04 1.763z" clip-rule="evenodd"/>
  <path fill="none" d="m74.804 81.276 1.039-1.763h3.998l-1.04 1.763z"/>
  <path fill="#120c0e" fill-rule="evenodd" d="m81.639 81.236.999-1.723h3.598l.2.32-.84 1.403z" clip-rule="evenodd"/>
  <path fill="none" d="m81.639 81.236.999-1.723h3.598l.2.32-.84 1.403z"/>
  <path fill="#120c0e" fill-rule="evenodd" d="m22.483 66.403 1.04-1.763h3.997l-1.04 1.763z" clip-rule="evenodd"/>
  <path fill="none" d="m22.483 66.403 1.04-1.763h3.997l-1.04 1.763z"/>
  <path fill="#120c0e" fill-rule="evenodd" d="m29.278 66.403 1.04-1.763h3.997l-1.04 1.763z" clip-rule="evenodd"/>
  <path fill="none" d="m29.278 66.403 1.04-1.763h3.997l-1.04 1.763z"/>
  <path fill="#120c0e" fill-rule="evenodd" d="m36.073 66.443 1.04-1.763h3.997l-1.04 1.763z" clip-rule="evenodd"/>
  <path fill="none" d="m36.073 66.443 1.04-1.763h3.997l-1.04 1.763z"/>
  <path fill="#120c0e" fill-rule="evenodd" d="m49.743 66.443 1-1.723h1.678l1 1.723z" clip-rule="evenodd"/>
  <path fill="none" d="m49.743 66.443 1-1.723h1.678l1 1.723z"/>
  <path fill="#120c0e" fill-rule="evenodd" d="m58.857 66.443-.88-1.723h3.518l-.999 1.723z" clip-rule="evenodd"/>
  <path fill="none" d="m58.857 66.443-.88-1.723h3.518l-.999 1.723z"/>
  <path fill="#120c0e" fill-rule="evenodd" d="m63.292 66.483 1.041-1.763h3.997l-1.039 1.763z" clip-rule="evenodd"/>
  <path fill="none" d="m63.292 66.483 1.041-1.763h3.997l-1.039 1.763z"/>
  <path fill="#120c0e" fill-rule="evenodd" d="m70.088 66.523 1.039-1.762h3.998l-1.04 1.762z" clip-rule="evenodd"/>
  <path fill="none" d="m70.088 66.523 1.039-1.762h3.998l-1.04 1.762z"/>
  <path fill="#120c0e" fill-rule="evenodd" d="m76.923 66.483.84-1.602 1.038 1.602z" clip-rule="evenodd"/>
  <path fill="none" d="m76.923 66.483.84-1.602 1.038 1.602z"/>
  <path fill="#120c0e" d="m38.631 74.581 8.074-17.598-.919-8.659-1.878 2.847-7.194 3.889-2.079-1.644 6.635-4.249 3.397-7.217 3.119-.841.08-1.323c-.239-.04-.48-.32-.72-.36-.759-.642-1.04-5.212-.839-6.134.24-1.163 3.237-1.684 4.277-.842.639.04.399.642.679.762v6.975l4.197 1.323 5.236 6.174 1.559 9.461-2.398.48-1.559-7.296-3.398-3.728-.561 9.861 8.674 19.683-4.717 2.085-.679-.882 1.079-1.924-8.194-14.03-8.993 16.916-5.556-2.405.84-1.403z"/>
  <path fill="none" d="m38.631 74.581 8.074-17.598-.919-8.659-1.878 2.847-7.194 3.889-2.079-1.644 6.635-4.249 3.397-7.217 3.119-.841.08-1.323c-.239-.04-.48-.32-.72-.36-.759-.642-1.04-5.212-.839-6.134.24-1.163 3.237-1.684 4.277-.842.639.04.399.642.679.762v6.975l4.197 1.323 5.236 6.174 1.559 9.461-2.398.48-1.559-7.296-3.398-3.728-.561 9.861 8.674 19.683-4.717 2.085-.679-.882 1.079-1.924-8.194-14.03-8.993 16.916-5.556-2.405.84-1.403z"/>
  <path fill="#120c0e" fill-rule="evenodd" d="m13.81 81.356 1.04-1.763h3.996l-1.039 1.763z" clip-rule="evenodd"/>
  <path fill="none" d="m13.81 81.356 1.04-1.763h3.996l-1.039 1.763z"/>
</svg>
