<svg xmlns="http://www.w3.org/2000/svg" viewBox="0 0 401 401" role="img" aria-labelledby="title">
  <title id="title">Verkehrszeichen M9 - Placed under sign B1, B5 or B17 when bicycles can come from both directions at the intersection. (For example when crossing a two-way cycle lane when entering the intersection, or when bicycles are allowed to drive in both directions on a one-way road.)</title>
  <g style="stroke:none;fill-rule:evenodd">
    <path d="M45 0h310a45 45 0 0 1 45 45v310a45 45 0 0 1-45 45H45a45 45 0 0 1-45-45V45A45 45 0 0 1 45 0Z" style="fill:#fff;stroke:#000" transform="matrix(1 0 0 -1 0 400)"/>
    <path d="M227.422 269.343a43.81 43.81 0 1 1 82.269 22.821l-.001-.004 2.352 1.417a47 47 0 0 0 1.529-3.062l-.001-.005 1.494.684a48.19 48.19 0 0 1-64.172 23.773l-.002-.007-10.26 19.99 2.346 4.927a1.76 1.76 0 0 0 1.448.93l-.007-.005a4.33 4.33 0 0 1 2.15 1.076l-.006.008a2.38 2.38 0 0 1-1.49 4.024l.005-.002a65.6 65.6 0 0 1-20.349-.298h.002a2.16 2.16 0 0 1 .331-4.182v.012l11.16-.462a1.78 1.78 0 0 0 1.782-2.602l.008-.006-1.45-3.04h-84.21l2.358 9.04a29.5 29.5 0 0 1 9.932 1.058l.002-.006a14.9 14.9 0 0 0 6.496 0h-.003a2.28 2.28 0 0 1 1.07 4.003l.007.009a10.2 10.2 0 0 1-5.783.571l-.004-.002a49.2 49.2 0 0 0-14.396-.707l.001-.006-8.382-32.181a48.2 48.2 0 0 1-27.588.624v-.003l.434-1.579a46.55 46.55 0 0 0 26.74-.632l-.004-.009-.688-2.648a43.81 43.81 0 1 1 30.076-41.99l.002-.002 2.74.098a47 47 0 0 0-.456-6.205l-.004-.003 1.628-.226a48.19 48.19 0 0 1-29.266 51.243l-.002.003 1.77 6.77 48.278-43.955a13.14 13.14 0 0 1 9.26-20.372l.002-.003v-11.88h-3.56v-3.83h10.41v3.83h-3.56l-.007 11.883a13.14 13.14 0 0 1 11.357 11.12l.01-.003 1.818.003a48 48 0 0 1 .723-6.611l-.001-.002 1.615.292a46.6 46.6 0 0 0-.696 6.321l.001-.003Zm24.195 35.823a39.15 39.15 0 0 1-19.53-31.99l-.007-.006 30.276.008a9.04 9.04 0 0 0 3.092 5.064l.002-.002Zm-2.131 4.15a43.81 43.81 0 0 1-22.064-36.14l-.002-.006-2.74.007a46.55 46.55 0 0 0 23.552 38.578l-.002-.005Zm-2.004 3.9a48.19 48.19 0 0 1-24.444-40.04l.002-.006-1.83.006a13.14 13.14 0 0 1-5.686 9l.006.004 23.02 48.41Zm-113.514-38.852a6 6 0 0 0 .479-.99l.003-.004 33.653 1.18a39.43 39.43 0 0 1-23.074 32.65h.001l-5.254-20.174a27 27 0 0 0-5.803-12.658Zm41.252.436-2.736-.097a43.81 43.81 0 0 1-26.337 36.79l.003-.003.695 2.684a46.55 46.55 0 0 0 28.38-39.375Zm-44.186 2.054a6.02 6.02 0 1 1 3.547-7.31l-.001-.004 33.656 1.179a39.43 39.43 0 1 0-26.8 37.895l.004-.004-5.441-20.877a23.3 23.3 0 0 0-4.963-10.874Zm174.658 12.907a39.15 39.15 0 1 0-73.605-20.417l-.007-.004 30.276.002a9.04 9.04 0 1 1 17.394 4.825v-.007ZM203.01 300.01h10.41v-3.84h-3.56l-.008-11.873a13 13 0 0 0 2.21-.474l.008-.003 22.67 47.68h-83.38l-1.24-4.76 49.768-45.311a13.14 13.14 0 0 0 6.68 2.868l.002.003v11.87h-3.56Zm107.06-3.15-2.354-1.41a43.81 43.81 0 0 1-54.82 15.617l.004-.007-1.258 2.447a46.55 46.55 0 0 0 58.425-16.644Zm-55.043 10.058a39.15 39.15 0 0 0 48.691-13.871l.002.003-25.946-15.595a9.04 9.04 0 0 1-8.915 2.54l.001-.005ZM240 50v15H125v10h115v15l35-20ZM125 160l35 20v-15h115v-10H160v-15Z" style="fill:#000" transform="matrix(1 0 0 -1 0 400)"/>
  </g>
</svg>
