<svg xmlns="http://www.w3.org/2000/svg" viewBox="0 0 401 401" role="img" aria-labelledby="title">
  <title id="title">Verkehrszeichen M8 - Placed under sign B1, B5 or E9a when that sign only applies to bicycles and mopeds.</title>
  <g fill-rule="evenodd">
    <path fill="#fff" stroke="#000" d="M45 400h310a45 45 0 0 0 45-45V45a45 45 0 0 0-45-45H45A45 45 0 0 0 0 45v310a45 45 0 0 0 45 45Z"/>
    <path d="m177.13 283.93-7.518.167a11.77 11.77 0 0 1-8.164-3.053v-.003a27.42 27.42 0 0 1-8.542-15.378l-.006-.003-8.063 14.971a41.41 41.41 0 0 1 16.832 52.135l.001.004-2.42-1.087a38.76 38.76 0 1 1-49.06-51.772v-.001l.003-2.815a41.4 41.4 0 0 1 30.317 1.3v.005l16.423-35.656a7.1 7.1 0 0 1 3.012-3.065l.005.001 1.18-.764a8.7 8.7 0 0 0 1.797-1.57l.005-.003a1.91 1.91 0 0 0-1.552-3.16l-.002-.002a6.46 6.46 0 0 0-2.772.806l-.007-.001a44 44 0 0 1-4.275 2.084l.002-.001a13.2 13.2 0 0 1-2.797.831v.006a1.52 1.52 0 0 1-1.73-1.075l.001-.001-3.008-7.987a59 59 0 0 0 5.486-2.316l-.01-.006a14.3 14.3 0 0 1 5.714-1.412l.008.005a6.03 6.03 0 0 1 3.93 1.28l-.009.002a41 41 0 0 0 3.477 2.447h.002a10.5 10.5 0 0 0 3.874 1.469l.006-.002.001-14.153a3.45 3.45 0 0 1 .152-5.527h-.01a3.45 3.45 0 0 1 4.155.136v.004a10.3 10.3 0 0 1 2.253 2.537l-.001-.007h6.16v2.02h-9.75V230a16.2 16.2 0 0 1-.742 4.843h-.003a146 146 0 0 0-1.371 4.64l-.004-.003 1.077.748a.79.79 0 0 1 .258 1.01l.005.002-9.31 19.25 2.468 3.12a.97.97 0 0 0 1.138.294l-.006.006.576-.364a1.52 1.52 0 0 1 1.868.188v.004a4.3 4.3 0 0 1 .983 1.436l.004-.009a1.54 1.54 0 0 1-.013 1.22l.007.007a1.92 1.92 0 0 0 .064 1.688h.001l26.66 27.02h29.44a5.43 5.43 0 0 0 5.346-4.479l-.006-.001 8.97-37.64-23.96-7.38v-2.24l33.73-.01a3.8 3.8 0 0 1 3.108 5.987l-.008.002a9.7 9.7 0 0 1-1.621 1.782l.001-.001-3.818 3.081a3.6 3.6 0 0 0-1.131 1.594l-.001.005-2.24 10.52 56.908-.028a2.42 2.42 0 0 0 3.042 2.042v.006h4.34l.04 10.71h-2.08l11.05 29.7-2.807.006a38.78 38.78 0 0 1-72.922 24.835l-.001-.001H215.3v8.24h2.24v2.97h-7.34v-2.97h2.85l.007-7.41a35 35 0 0 0-7.576 1.51v.003a691 691 0 0 1-8.104 2.517l-.005-.002a16.04 16.04 0 0 1-12.272-1.228v-.008a9.17 9.17 0 0 1-3.885-4.038 34.77 34.77 0 0 1-2.786-22.52l-.005.008a210 210 0 0 1 5.224-19.792h.002Zm114.51 49.66h-44.03a33.17 33.17 0 1 0 27.136-49.815l-.006.005 2.655 25.137a8.07 8.07 0 0 1 2.227 15.338l-.002-.005 11.89-1.066a2 2 0 0 1 1.754 1.836h.006l.468 6.285a2.05 2.05 0 0 1-2.101 2.274Zm-48.51-15.6 25.152-.001a8.07 8.07 0 0 0 6.031 6.748l-.003-.007-29.5 2.661a33.2 33.2 0 0 1-1.682-9.403Zm29.31-7.25-2.844-26.316a34.31 34.31 0 0 0-27.318 31.293l.002-.007 26.207.005a8.35 8.35 0 0 1 3.947-4.972Zm-145.4-1.82 9.896-22.833a32.93 32.93 0 1 0 19.647 31.918l.007.005-25.046-.005a8.04 8.04 0 1 1-4.509-9.08Zm85.997 22.137a39.4 39.4 0 0 0-10.448 2.491l-.009.002 10.43-4.61ZM181.53 320.11l6.972 2.031a17.37 17.37 0 0 0 2.784 8.81l.002.005a12.16 12.16 0 0 0 4.187 3.952l.002.003a6.27 6.27 0 0 1-5.806-.174l.004-.004a20.5 20.5 0 0 1-6.699-6.03l-.004-.006a10.01 10.01 0 0 1-1.44-8.594Zm51.75-2.12 1.514-.002a42 42 0 0 0 .469 5.233l-.003-.001-1.98-.55Zm-101.69-3.3 25.004.001a32.93 32.93 0 0 0-15.746-26.564l.002.003-11.302 22.593a8.04 8.04 0 0 1 2.04 3.963Zm94.44 14.88-10.72 1.16v-3.12l10.53-3.68Zm9.82-32.59 7.1-27.65 4.48.004a22.2 22.2 0 0 0 5.151 8.649h-.001a3.44 3.44 0 0 0 2.483 1.057h.007l4.243-.003a41.5 41.5 0 0 0-24.473 35.637v-.004l-1.64.01-.004-13.21a.96.96 0 0 0 .744-.4l.009-.003a12.2 12.2 0 0 0 1.907-4.087Zm72.698-6.167a41.5 41.5 0 0 0-15.302-11.777l-.006.004h10.81Zm-81.126-165.156a43.81 43.81 0 1 0 82.269-22.821l-.001.004 2.352-1.417a47 47 0 0 1 1.529 3.062l-.001.005 1.494-.684a48.19 48.19 0 0 0-64.172-23.773l-.002.007-10.26-19.99 2.346-4.927a1.76 1.76 0 0 1 1.448-.93l-.007.005a4.33 4.33 0 0 0 2.15-1.076l-.006-.008a2.38 2.38 0 0 0-1.49-4.024l.005.002a65.6 65.6 0 0 0-20.349.298h.002a2.16 2.16 0 0 0 .331 4.182v-.012l11.16.462a1.78 1.78 0 0 1 1.782 2.602l.008.006-1.45 3.04h-84.21l2.358-9.04a29.5 29.5 0 0 0 9.932-1.058l.002.006a14.9 14.9 0 0 1 6.496 0h-.003a2.28 2.28 0 0 0 1.07-4.003l.007-.009a10.2 10.2 0 0 0-5.783-.571l-.004.002a49.2 49.2 0 0 1-14.396.707l.001.006-8.382 32.181a48.2 48.2 0 0 0-27.588-.624v.003l.434 1.579a46.55 46.55 0 0 1 26.74.632l-.004.009-.688 2.648a43.81 43.81 0 1 0 30.076 41.99l.002.002 2.74-.098a47 47 0 0 1-.456 6.205l-.004.003 1.628.226a48.19 48.19 0 0 0-29.266-51.243l-.002-.003 1.77-6.77 48.278 43.955a13.14 13.14 0 0 0 9.26 20.372l.002.003v11.88h-3.56v3.83h10.41v-3.83h-3.56l-.007-11.883a13.14 13.14 0 0 0 11.357-11.12l.01.003 1.818-.003a48 48 0 0 0 .723 6.611l-.001.002 1.615-.292a46.6 46.6 0 0 1-.696-6.321l.001.003Zm27.605-37.575a39.15 39.15 0 0 1 48.691 13.871l.002-.003-25.946 15.595a9.04 9.04 0 0 0-8.915-2.54l.001.005ZM310.07 98.14l-2.354 1.41a43.81 43.81 0 0 0-54.82-15.617l.004.007-1.258-2.447a46.55 46.55 0 0 1 58.425 16.644Zm-58.453-8.306a39.15 39.15 0 0 0-19.53 31.99l-.007.006 30.276-.008a9.04 9.04 0 0 1 3.092-5.064l.002.002Zm54.075 15.405a39.15 39.15 0 1 1-73.605 20.417l-.007.004 30.276-.002a9.04 9.04 0 1 0 17.394-4.825v.007Zm-174.658 12.907a6.02 6.02 0 1 0 3.547 7.31l-.001.004 33.656-1.179a39.43 39.43 0 1 1-26.8-37.895l.004.004-5.441 20.877a23.3 23.3 0 0 1-4.963 10.874ZM203.01 94.99h10.41v3.84h-3.56l-.008 11.873a13 13 0 0 1 2.21.474l.008.003 22.67-47.68h-83.38l-1.24 4.76 49.768 45.311a13.14 13.14 0 0 1 6.68-2.868l.002-.003V98.83h-3.56Zm-27.79 25.21-2.736.097a43.81 43.81 0 0 0-26.337-36.79l.003.003.695-2.684a46.55 46.55 0 0 1 28.38 39.375Zm-41.252.436a6 6 0 0 1 .479.99l.003.004 33.653-1.18a39.43 39.43 0 0 0-23.074-32.65h.001l-5.254 20.174a27 27 0 0 1-5.803 12.658Zm115.518-34.952a43.81 43.81 0 0 0-22.064 36.14l-.002.006-2.74-.007a46.55 46.55 0 0 1 23.552-38.578l-.002.005Zm-2.004-3.9a48.19 48.19 0 0 0-24.444 40.04l.002.006-1.83-.006a13.14 13.14 0 0 0-5.686-9l.006-.004 23.02-48.41Z"/>
  </g>
</svg>
