<svg xmlns="http://www.w3.org/2000/svg" viewBox="0 0 401 301" role="img" aria-labelledby="title">
  <title id="title">Verkehrszeichen M7 - (French text &quot;INTERDIT&quot;) Placed under sign D7 when mopeds class B are not allowed to drive on the cycleway.</title>
  <g style="stroke:none;fill-rule:evenodd">
    <path d="M45 0h310a45 45 0 0 1 45 45v210a45 45 0 0 1-45 45H45a45 45 0 0 1-45-45V45A45 45 0 0 1 45 0Z" style="fill:#fff;stroke:#000" transform="matrix(1 0 0 -1 0 300)"/>
    <path d="M288.52 15h27.64v7.5h-19.39v12h12.97V42h-12.97v10.5h19.39V60h-27.64ZM325.16 15h7.5v29.89L346.38 15h9.64v45h-7.5V30.11L334.81 60h-9.65ZM207.01 45.47V29.53a15.43 15.43 0 0 1 30.86 0h-.01l.01 15.94a15.43 15.43 0 0 1-30.86 0m8.25.75V28.78a7.18 7.18 0 0 1 14.36 0h-.01l.01 17.44a7.18 7.18 0 0 1-14.36 0M166.25 15h19.76a12 12 0 0 1 12 12v3a9 9 0 0 1-5.887 8.444 9 9 0 0 1 4.987 8.056V48a12 12 0 0 1-12 12h-18.86Zm8.25 7.5h10.76a4.5 4.5 0 0 1 4.5 4.5v3a4.5 4.5 0 0 1-4.5 4.5H174.5Zm0 19.5h9.86a4.5 4.5 0 0 1 4.5 4.5V48a4.5 4.5 0 0 1-4.5 4.5h-9.86ZM124.72 15h8.25v19.5h4.35l11.3-19.5h9.53l-11.525 19.893A12 12 0 0 1 155.58 46.5V48a12 12 0 0 1-12 12h-18.86Zm8.25 27h9.86a4.5 4.5 0 0 1 4.5 4.5V48a4.5 4.5 0 0 1-4.5 4.5h-9.86ZM57.16 15h9.64l13.18 45h-8.6l-9.4-32.11L52.58 60h-8.6ZM88.08 15h27.64v7.5H96.33v12h12.96V42H96.33v10.5h19.39V60H88.08ZM247.76 15h18.86a12 12 0 0 1 12 12v21a12 12 0 0 1-12 12h-18.86Zm8.25 7.5h9.86a4.5 4.5 0 0 1 4.5 4.5v21a4.5 4.5 0 0 1-4.5 4.5h-9.86ZM175.33 208.52l-7.769-.177a12.18 12.18 0 0 0-8.448 3.16l.004.01a28.36 28.36 0 0 0-8.836 15.905l-.001.002-8.343-15.481a42.84 42.84 0 0 0 17.413-53.936l-.01-.003-2.49 1.123a40.1 40.1 0 1 0-50.757 53.562l-.003-.005.006 2.917a42.84 42.84 0 0 0 31.364-1.346v-.011l16.99 36.885a7.36 7.36 0 0 0 3.113 3.168l.007-.003 1.214.803a9 9 0 0 1 1.86 1.624h-.007a1.97 1.97 0 0 1-1.6 3.26l.009.002a6.7 6.7 0 0 1-2.867-.833h-.005a45 45 0 0 0-4.423-2.158l-.006.01a13.7 13.7 0 0 0-2.894-.86l.008-.003a1.57 1.57 0 0 0-1.788 1.11l-.001-.005-3.12 8.27a61 61 0 0 1 5.675 2.395v-.005a14.8 14.8 0 0 0 5.91 1.461l-.002.005a6.24 6.24 0 0 0 4.067-1.326l-.005-.004a43 43 0 0 1 3.596-2.531l.007.007a10.8 10.8 0 0 1 4.007-1.519l-.005-.003.007 14.639a3.57 3.57 0 0 0 .157 5.72h-.01a3.57 3.57 0 0 0 4.3-.142v.004a10.7 10.7 0 0 0 2.332-2.626l-.006-.005h6.37v-2.08h-10.09l.01-15.19a16.7 16.7 0 0 0-.768-5.011l-.006.004a151 151 0 0 1-1.42-4.8l.004-.003 1.114-.764a.82.82 0 0 0 .267-1.047l-.001.001-9.63-19.92 2.547-3.235a1.01 1.01 0 0 1 1.184-.306l-.001.001.6.376a1.57 1.57 0 0 0 1.928-.194v-.002a4.4 4.4 0 0 0 1.018-1.486v.004a1.6 1.6 0 0 0-.013-1.267l-.002.006a1.99 1.99 0 0 1 .067-1.75l.002.003 27.58-27.95h30.46a5.61 5.61 0 0 1 5.523 4.627l-.003.003 9.29 38.94-24.79 7.63v2.32l34.89.01a3.93 3.93 0 0 0 3.214-6.191l-.006-.003a10 10 0 0 0-1.678-1.846l-3.943-3.188a3.73 3.73 0 0 1-1.17-1.646l-.007.004-2.32-10.89 58.878.018a2.5 2.5 0 0 1 3.143-2.109l-.001.001h4.49l.04-11.08h-2.15l11.43-30.73-2.917.004a40.11 40.11 0 0 0-75.423-25.687v-.007h-26.87v-8.52h2.32v-3.08h-7.59v3.08h2.95l.003 7.656a36.2 36.2 0 0 1-7.838-1.562l-.002-.002a715 715 0 0 0-8.383-2.603l-.008.007a16.6 16.6 0 0 0-12.693 1.27h-.002a9.5 9.5 0 0 0-4.02 4.18v.002a35.97 35.97 0 0 0-2.881 23.298l-.003.001a218 218 0 0 0 5.404 20.474l.003-.001Zm98.5-26.83-2.844 26.326a34.31 34.31 0 0 1-27.318-31.293l.002.007 26.207-.005a8.35 8.35 0 0 0 3.947 4.972Zm-37.75 13.33 7.34 28.6 4.647.005a23 23 0 0 1 5.326-8.945v-.007a3.56 3.56 0 0 1 2.57-1.093h-.003l4.389.008a42.93 42.93 0 0 1-25.317-36.865l.008-.003-1.7-.01-.003 13.67a.99.99 0 0 1 .768.413l.005-.004a12.7 12.7 0 0 1 1.973 4.226Zm57.71-37.87-45.546.006a34.31 34.31 0 1 1 28.07 51.527l.006-.003 2.734-26a8.35 8.35 0 0 0 2.304-15.87h.002l12.309 1.105a2.07 2.07 0 0 0 1.815-1.9l-.004-.005.487-6.508a2.12 2.12 0 0 0-2.173-2.351Zm-50.18 16.14 26.015.004a8.35 8.35 0 0 1 6.24-6.982l.005-.002-30.522-2.742a34.3 34.3 0 0 0-1.74 9.727Zm-18.05-12.02-10.73-1.16v3.12l10.53 3.68Zm-97.33 15.43 25.872.003a34.07 34.07 0 0 1-16.29 27.483l-.002-.006-11.688-23.37a8.3 8.3 0 0 0 2.111-4.102Zm-4.71 5.97 10.244 23.627a34.07 34.07 0 1 1 20.327-33.023l-.001-.004-25.903.003a8.32 8.32 0 1 0-4.665 9.397Zm109.9-9.38 1.564.005a43 43 0 0 1 .485-5.413l.011-.002-2.06.56Zm-20.945-13.523a40.8 40.8 0 0 1-10.81-2.577h.005l10.79 4.76ZM179.89 171.1l7.212-2.113a17.97 17.97 0 0 1 2.881-9.115l.002.003a12.6 12.6 0 0 1 4.332-4.088l.006-.006a6.49 6.49 0 0 0-6.01.18l-.006.007a21.2 21.2 0 0 0-6.93 6.239v-.006a10.36 10.36 0 0 0-1.491 8.894Zm131.39 30.306a42.9 42.9 0 0 1-15.83 12.183v-.009h11.19ZM184.12 75h19.76a12 12 0 0 1 12 12v3a9 9 0 0 1-5.887 8.444 9 9 0 0 1 4.987 8.056v1.5a12 12 0 0 1-12 12h-18.86Zm8.25 27h9.86a4.5 4.5 0 0 1 4.5 4.5v1.5a4.5 4.5 0 0 1-4.5 4.5h-9.86Zm0-19.5h10.76a4.5 4.5 0 0 1 4.5 4.5v3a4.5 4.5 0 0 1-4.5 4.5h-10.76Z" style="fill:#000" transform="matrix(1 0 0 -1 0 300)"/>
  </g>
</svg>
