<svg xmlns="http://www.w3.org/2000/svg" xml:space="preserve" viewBox="0 0 113.479 170.16" role="img" aria-labelledby="title">
  <title id="title">Verkehrszeichen ZF111/ - Traffic signs lose their meaning ZF111 with &quot;Zone&quot; validity or stating &quot;Fietsstraat&quot; Replaced by R17 on 01/01/2035 wegcode.be End of zone dedicated to bicycle traffic. This sign was removed from the Wegcode on 1 April 2023. The signs can still be kept untill 1 January 2032.</title>
  <path fill="none" d="M12.81 170.13h87.841l1.26-.061 1.26-.18c5.432-1.092 9.725-5.713 10.2-11.28l.06-1.26V12.81c.014-6.136-4.311-11.218-10.26-12.54l-1.26-.18-1.26-.06H12.81l-1.26.06C5.938.693 1.419 4.759.271 10.29L.09 11.55l-.06 1.26v144.54a12.8 12.8 0 0 0 1.5 6.06l.66 1.08.72.96c1.134 1.505 3.231 3.025 4.979 3.721l1.2.42 1.2.3 1.26.18z" clip-rule="evenodd"/>
  <path fill="#fff" fill-rule="evenodd" d="M14.91 155.07V46.65l.18-1.86.54-1.8c1.335-3.075 3.732-5.023 7.02-5.7l1.86-.18h65.88c3.846.022 7.443 2.223 8.82 5.88l.54 1.8.24 1.86v108.42l-.24 1.86c-.572 3.081-2.721 5.875-5.7 6.96l-1.8.6-1.86.181H24.51l-1.86-.181-1.799-.6-1.681-.84-1.44-1.2-1.199-1.44-.9-1.68-.54-1.8z" clip-rule="evenodd"/>
  <path fill="none" stroke="#b2b2b2" stroke-miterlimit="10" stroke-width=".25" d="M14.91 155.07V46.65l.18-1.86.54-1.8c1.335-3.075 3.732-5.023 7.02-5.7l1.86-.18h65.88c3.846.022 7.443 2.223 8.82 5.88l.54 1.8.24 1.86v108.42l-.24 1.86c-.572 3.081-2.721 5.875-5.7 6.96l-1.8.6-1.86.181H24.51l-1.86-.181-1.799-.6-1.681-.84-1.44-1.2-1.199-1.44-.9-1.68-.54-1.8z"/>
  <path fill="#fff" stroke="#000" stroke-linecap="round" stroke-linejoin="round" stroke-miterlimit="10" stroke-width=".06" d="M12.81 170.13h87.841l1.26-.061 1.26-.18c5.432-1.092 9.725-5.713 10.2-11.28l.06-1.26V12.81c.014-6.136-4.311-11.218-10.26-12.54l-1.26-.18-1.26-.06H12.81l-1.26.06C5.938.693 1.419 4.759.271 10.29L.09 11.55l-.06 1.26v144.54a12.8 12.8 0 0 0 1.5 6.06l.66 1.08.72.96c1.134 1.505 3.231 3.025 4.979 3.721l1.2.42 1.2.3 1.26.18z"/>
  <path fill="#b2b2b2" d="M17.959 155.392V46.388l.483-2.412 1.327-2.17 2.049-1.327 2.531-.482h66.2l2.412.482 2.17 1.327 1.326 2.17.483 2.412v109.004l-.483 2.412-1.326 2.051-2.17 1.445-2.412.484h-66.2l-2.531-.484-2.049-1.445-1.327-2.051zm3.377 1.207.723.965 1.086.723 1.205.242h66.2l1.207-.242 1.084-.723.724-.965.241-1.207V46.388l-.241-1.206-.724-1.085-1.084-.724-1.207-.241h-66.2l-1.205.241-1.086.724-.723 1.085-.24 1.206v109.004z"/>
  <path fill="#b2b2b2" d="M56.044 93.125h18.448l6.993 15.193 1.086 2.291.844 1.447 2.05 1.929.121.362.119 8.561-.24 2.533-2.171 6.631h-1.447v9.164h-6.149v-9.164h-39.31v9.164h-6.27v-9.164h-1.326l-2.171-6.631-.241-2.533.12-8.561.121-.362 2.05-1.929.844-1.447 1.085-2.291 6.995-15.193z"/>
  <path fill="none" stroke="#fff" stroke-linecap="round" stroke-linejoin="round" stroke-miterlimit="10" stroke-width=".121" d="M35.183 123.27h41.601v1.567H35.183zM41.814 127.49h28.337v1.568H41.814zM41.814 119.169h28.94v1.568h-28.94z"/>
  <path fill="#fff" fill-rule="evenodd" d="M35.183 123.27h41.601v1.567H35.183zM81.968 118.447l-.24-1.205-.725-.966-.965-.724-1.205-.24-1.206.24-1.084.724-.605.966-.24 1.205.24 1.206.605.964 1.084.722 1.206.243 1.205-.243.965-.722.725-.964z" clip-rule="evenodd"/>
  <path fill="none" stroke="#fff" stroke-linecap="round" stroke-linejoin="round" stroke-miterlimit="10" stroke-width=".121" d="m81.968 118.447-.24-1.205-.725-.966-.965-.724-1.205-.24-1.206.24-1.084.724-.605.966-.24 1.205.24 1.206.605.964 1.084.722 1.206.243 1.205-.243.965-.722.725-.964z"/>
  <path fill="#fff" d="m36.388 118.326-.242-1.205-.721-.965-.967-.725-1.205-.24-1.206.24-.964.725-.724.965-.241 1.205.241 1.205.724 1.086.964.603 1.206.24 1.205-.24.967-.603.721-1.086z"/>
  <path fill="#fff" fill-rule="evenodd" d="M56.767 95.536H40.609l-7.717 16.76 11.695-.964 11.817-.483h.723l11.817.483 11.697.964-7.717-16.76zM41.814 127.49h28.337v1.568H41.814zM41.814 119.169h28.94v1.568h-28.94z" clip-rule="evenodd"/>
  <path fill="#fff" fill-rule="evenodd" d="M61.711 138.221v-33.279l.24-.604.724-.361h1.447l.723.361.241.604v33.279h2.772v2.292h-6.147z" clip-rule="evenodd"/>
  <path fill="#b2b2b2" d="M61.711 138.221v-33.279l.24-.604.724-.361h1.447l.723.361.241.604v33.279h2.772v2.292h-6.147z"/>
  <path fill="#fff" fill-rule="evenodd" d="M54.354 122.788v-17.846l-.241-.604-.722-.361h-1.449l-.722.361-.241.604v17.846h-2.894v2.411h6.269z" clip-rule="evenodd"/>
  <path fill="#b2b2b2" d="M54.354 122.788v-17.846l-.241-.604-.722-.361h-1.449l-.722.361-.241.604v17.846h-2.894v2.411h6.269z"/>
  <path fill="#fff" fill-rule="evenodd" d="M57.972 100.238h6.392l-.723-2.894 1.688-10.249 4.461 15.796h-2.05v.242l-5.668-2.05h-8.079l-5.666 2.05v-.242h-2.051l4.463-15.796 1.566 10.249-.603 2.894zm-2.411-17.002-1.447.362-2.894.724-.481.241-.242.12-2.051 1.447-.36.482-4.462 15.676v.603h-2.896v2.051h7.599v-.241l6.149-2.291h3.135-.12l-.363 2.291v12.541h-.239v3.135l-.604 1.084v27.373l.362.844.964.362h.845l.965-.362.361-.844V121.46l-.604-1.084v-3.135h-.24V104.7l-.361-2.291h-.12 3.135l6.149 2.291v.241h7.597v-2.051h-2.894v-.603l-4.461-15.676-.361-.482-2.052-1.447-.36-.12-.363-.241-2.894-.724-1.446-.362 1.446-1.085 1.206-1.567.483-1.809-.122-1.929-.723-1.689-1.207-1.446-1.688-.964-1.93-.242-1.809.242-1.688.964-1.206 1.447-.724 1.689-.12 1.929.483 1.809 1.083 1.567z" clip-rule="evenodd"/>
  <path fill="#b2b2b2" d="M57.972 100.238h6.392l-.723-2.894 1.688-10.249 4.461 15.796h-2.05v.242l-5.668-2.05h-8.079l-5.666 2.05v-.242h-2.051l4.463-15.796 1.566 10.249-.603 2.894zm-2.411-17.002-1.447.362-2.894.724-.481.241-.242.12-2.051 1.447-.36.482-4.462 15.676v.603h-2.896v2.051h7.599v-.241l6.149-2.291h3.135-.12l-.363 2.291v12.541h-.239v3.135l-.604 1.084v27.373l.362.844.964.362h.845l.965-.362.361-.844V121.46l-.604-1.084v-3.135h-.24V104.7l-.361-2.291h-.12 3.135l6.149 2.291v.241h7.597v-2.051h-2.894v-.603l-4.461-15.676-.361-.482-2.052-1.447-.36-.12-.363-.241-2.894-.724-1.446-.362 1.446-1.085 1.206-1.567.483-1.809-.122-1.929-.723-1.689-1.207-1.446-1.688-.964-1.93-.242-1.809.242-1.688.964-1.206 1.447-.724 1.689-.12 1.929.483 1.809 1.083 1.567z"/>
  <g fill="#b2b2b2" fill-rule="evenodd" clip-rule="evenodd">
    <path d="M86.156 56.896h.778v3.619l.033.344.102.321.16.309.217.263.262.218.299.16.319.092.343.035h1.38v-1.34h-1.153l-.159-.023-.127-.092-.09-.126-.035-.161v-3.619h1.564v-1.341h-1.564v-2.68l-1.551.905v1.775h-.778zM81.055 62.257h.934l.31-.023.297-.092.273-.149.229-.206v.47h1.563v-4.204l-.044-.493-.138-.48-.219-.436-.295-.401-.366-.332-.422-.264-.458-.171-.49-.092h-.49l-.491.092-.457.183-.422.263-.364.333-.286.39-.229.447-.124.481h1.541l.113-.298.193-.241.253-.195.298-.103.306-.023.31.069.271.149.219.218.115.194.044.207-.01.218-.069.206-.114.183-.171.138-.194.08-.216.034h-1.198l-.378.034-.365.115-.331.172-.285.241-.239.298-.184.332-.104.355-.032.378.032.378.104.355.184.333.239.298.285.24.331.172.365.114zm.216-1.34h1.049l.298-.058.251-.171.171-.253.058-.297v-.985l-.204.24-.275.194-.309.115-.32.046h-.718l-.216.045-.196.125-.124.184-.047.229.047.229.124.183.196.126zM73.837 62.257h.938l.308-.023.297-.092.273-.149.24-.206v.47h1.553v-4.204l-.046-.493-.137-.48-.218-.436-.296-.401-.366-.332-.423-.264-.456-.171-.491-.092h-.49l-.479.092-.469.183-.41.263-.365.332-.297.39-.218.447-.137.481h1.541l.115-.298.193-.241.251-.195.297-.103.309-.023.309.069.273.149.228.218.103.194.047.207v.218l-.068.206-.126.183-.17.138-.195.08-.218.034h-1.199l-.375.034-.354.115-.332.172-.297.241-.24.298-.17.332-.115.355-.034.378.034.378.115.355.17.333.24.298.297.24.332.172.354.114zm.229-1.34h1.05l.298-.058.25-.171.171-.253.059-.297v-.985l-.218.24-.262.194-.309.115-.33.046h-.709l-.229.045-.193.125-.125.184-.045.229.045.229.125.183.193.126zM67.001 62.257h1.553v-3.792l.032-.31.092-.285.136-.276.195-.24.241-.195.262-.138.297-.091.307-.034h.778v-1.341h-.778l-.433.046-.411.127-.388.205-.33.287v-.665h-1.553zM61.612 56.896h.775v3.619l.034.344.092.321.16.309.218.263.261.218.309.16.319.092.343.035h1.381v-1.34h-1.163l-.15-.023-.126-.092-.091-.126-.034-.161v-3.619h1.564v-1.341H63.94v-2.68l-1.553.905v1.775h-.775zM56.234 60.321h-1.552l.068.527.207.48.33.413.434.31.388.171.4.126.422.069.411.034.423-.034.422-.069.4-.126.388-.171.467-.344.342-.47.195-.549.023-.573-.149-.562-.308-.492-.435-.39-.523-.229-1.839-.515-.137-.057-.102-.103-.069-.127-.034-.149.023-.149.056-.126.104-.114.137-.069.306-.069.31-.034.319.034.309.069.126.069.102.104.068.125.023.149h1.553l-.023-.321-.068-.309-.126-.287-.16-.274-.205-.241-.239-.206-.262-.161-.299-.126-.548-.137-.57-.046-.56.046-.548.137-.296.126-.275.173-.239.217-.205.241-.171.286-.115.298-.069.32-.01.321.034.321.08.321.136.286.183.275.217.24.264.195.272.16.309.103 1.826.516.194.114.091.207-.045.229-.16.161-.445.16-.468.057-.457-.057-.445-.16-.149-.15zM49.306 60.321H47.74l.08.527.206.48.331.413.434.31.388.171.399.126.411.069.423.034.423-.034.422-.069.4-.126.388-.171.469-.344.34-.47.196-.549.023-.573-.149-.562-.308-.492-.435-.39-.524-.229-1.839-.515-.137-.057-.103-.103-.068-.127-.033-.149.022-.149.058-.126.101-.114.138-.069.308-.069.308-.034.319.034.309.069.126.069.102.104.069.125.022.149h1.552l-.022-.321-.069-.309-.125-.287-.159-.274-.206-.241-.24-.206-.262-.161-.298-.126-.548-.137-.57-.046-.559.046-.547.137-.298.126-.275.173-.239.217-.206.241-.171.286-.112.298-.069.32-.012.321.033.321.08.321.139.286.181.275.218.24.251.195.284.16.309.103 1.827.516.193.114.091.207-.044.229-.161.161-.445.16-.468.057-.456-.057-.446-.16-.149-.15zM42.455 56.896h.776v3.619l.035.344.09.321.161.309.217.263.263.218.308.16.32.092.342.035h1.38v-1.34h-1.163l-.149-.023-.126-.092-.091-.126-.034-.161v-3.619h1.563v-1.341h-1.563v-2.68l-1.553.905v1.775h-.776zM35.525 58.11v1.662l.034.469.126.458.204.436.286.389.343.333.388.263.446.195.456.104.479.022.467-.057.459-.138.422-.229.376-.287.32-.355.252-.413.17-.447h-1.587l-.217.298-.308.195-.353.092-.365-.023-.343-.149-.263-.251-.183-.321-.058-.367v-.539h3.779v-1.34l-.046-.526-.147-.504-.25-.458-.333-.413-.41-.332-.456-.241-.504-.16-.525-.046-.513.046-.502.16-.468.241-.399.332-.333.413-.25.458-.148.504zm1.552-.286v.286h2.228v-.286l-.08-.424-.251-.355-.354-.251-.435-.081-.421.081-.356.251-.25.355zM32.203 53.15v1.34h1.336v-1.34zM32.09 62.257h1.563v-6.702H32.09zM24.852 62.257h1.724V58.19h2.682v-1.558h-2.682v-2.188h4.017v-1.569h-5.741z"/>
  </g>
  <g fill="#b2b2b2" fill-rule="evenodd" clip-rule="evenodd">
    <path d="M21.051 33.669h14.948v-3.625H25.604l9.956-14.541v-3.635H21.48v3.635h9.527l-9.956 14.541zM40.143 18.909v7.91l.011.18.01.19.01.18.021.18.029.18.03.18.03.19.04.18.039.17.05.18.051.18.06.17.06.18.061.17.069.17.07.169.08.17.079.16.08.16.09.16.09.16.1.16.101.15.1.16.11.14.109.149.12.14.109.14.13.14.12.14.13.13.129.129.141.12.13.12.14.12.149.12.14.11.15.11.149.1.16.1.149.1.16.09.159.09.17.08.16.08.169.08.17.07.17.07.17.06.18.06.17.06.18.05.17.05.18.04.18.04.18.03.18.03.189.02.18.02.18.02.19.01.18.01h.369l.18-.01.18-.01.189-.02.18-.02.181-.02.18-.03.18-.03.18-.04.18-.04.18-.05.18-.05.17-.06.18-.06.17-.06.169-.07.17-.07.16-.08.169-.08.16-.08.16-.09.159-.09.16-.1.149-.1.15-.1.149-.11.149-.11.141-.12.14-.12.14-.12.13-.12.14-.129.12-.13.13-.14.119-.14.12-.14.11-.14.119-.149.101-.14.109-.16.1-.15.09-.16.1-.16.08-.16.09-.16.08-.16.08-.17.069-.169.07-.17.06-.17.061-.18.06-.17.05-.18.04-.18.05-.17.04-.18.03-.19.029-.18.021-.18.02-.18.021-.18.01-.19.01-.18v-8.09l-.01-.189-.01-.18-.021-.18-.02-.189-.021-.18-.029-.18-.03-.18-.04-.18-.05-.18-.04-.18-.05-.17-.06-.18-.061-.17-.06-.169-.07-.17-.069-.17-.08-.17-.08-.169-.09-.16-.08-.16-.1-.16-.09-.16-.1-.15-.109-.15-.101-.15-.119-.149-.11-.14-.12-.14-.119-.14-.13-.13-.12-.13-.14-.13-.13-.13-.14-.12-.14-.12-.141-.11-.149-.11-.149-.11-.15-.1-.149-.1-.16-.1-.159-.09-.16-.09-.16-.09-.169-.08-.16-.07-.17-.08-.169-.06-.17-.07-.18-.06-.17-.05-.18-.05-.18-.05-.18-.04-.18-.04-.18-.04-.18-.02-.181-.03-.18-.02-.189-.02-.18-.01h-.18l-.189-.01-.18.01h-.18l-.19.01-.18.02-.18.02-.189.03-.18.02-.18.04-.18.04-.18.04-.17.05-.18.05-.17.05-.18.06-.17.07-.17.06-.17.08-.169.07-.16.08-.17.09-.159.09-.16.09-.149.1-.16.1-.149.1-.15.11-.14.11-.149.11-.14.12-.13.12-.141.13-.129.13-.13.13-.12.13-.13.14-.109.14-.12.14-.109.149-.11.15-.1.15-.101.15-.1.16-.09.16-.09.16-.08.16-.079.169-.08.17-.07.17-.069.17-.061.169-.06.17-.06.18-.051.17-.05.18-.039.18-.04.18-.03.18-.03.18-.029.18-.021.189-.01.18-.01.18-.011.189zm3.994-.36v8.619l.011.09.01.08.01.09.01.08.011.08.02.09.01.08.021.09.03.08.02.08.03.08.02.08.03.08.04.08.029.08.03.08.04.07.04.08.039.08.051.07.04.07.05.07.05.07.05.07.05.07.05.07.061.06.05.07.06.06.061.06.06.06.06.06.07.06.06.05.069.05.07.06.07.05.069.04.07.05.069.05.08.04.07.04.08.04.069.04.08.03.08.04.08.03.079.03.08.03.08.02.08.03.09.02.08.02.08.01.09.02.079.01.09.02.08.01h.09l.08.01h.34l.09-.01h.079l.09-.01.08-.02.09-.01.08-.02.09-.01.08-.02.08-.02.08-.03.09-.02.079-.03.08-.03.08-.03.069-.04.08-.03.08-.04.07-.04.08-.04.069-.04.08-.05.069-.05.07-.04.07-.05.069-.06.06-.05.07-.05.061-.06.06-.06.069-.06.061-.06.05-.06.06-.07.061-.06.05-.07.05-.07.05-.07.05-.07.05-.07.04-.07.04-.07.04-.08.04-.08.04-.07.04-.08.029-.08.03-.08.029-.08.03-.08.03-.08.02-.08.021-.08.02-.09.021-.08.01-.09.02-.08.011-.08.01-.09.01-.08v-.09l.01-.09v-8.619l-.01-.08v-.09l-.01-.09-.01-.08-.011-.09-.02-.08-.01-.08-.021-.09-.02-.08-.021-.08-.02-.09-.03-.08-.03-.08-.029-.08-.03-.08-.029-.08-.04-.07-.04-.08-.04-.08-.04-.07-.04-.07-.04-.08-.05-.07-.05-.07-.05-.07-.05-.07-.05-.06-.061-.07-.06-.06-.05-.07-.061-.06-.069-.06-.06-.05-.061-.06-.07-.06-.06-.05-.069-.05-.07-.05-.07-.05-.069-.05-.08-.04-.069-.04-.08-.05-.07-.04-.08-.03-.08-.04-.069-.03-.08-.03-.08-.03-.079-.03-.09-.03-.08-.02-.08-.02-.08-.02-.09-.02-.08-.02-.09-.01-.08-.01-.09-.01-.079-.01h-.09l-.08-.01h-.17l-.09.01h-.08l-.09.01-.08.01-.09.01-.079.01-.09.02-.08.02-.08.02-.09.02-.08.02-.08.03-.08.03-.079.03-.08.03-.08.03-.08.04-.069.03-.08.04-.07.05-.08.04-.069.04-.07.05-.069.05-.07.05-.07.05-.069.05-.06.06-.07.06-.06.05-.06.06-.061.06-.06.07-.05.06-.061.07-.05.06-.05.07-.05.07-.05.07-.05.07-.04.08-.051.07-.039.07-.04.08-.04.08-.03.07-.029.08-.04.08-.03.08-.02.08-.03.08-.02.09-.03.08-.021.08-.01.09-.02.08-.011.08-.01.09-.01.08-.01.09-.011.09v.17M59.884 33.669h3.635V19.188l6.65 14.481h4.663V11.868h-3.635v14.481l-6.639-14.481h-4.674zM80.284 33.669h13.39v-3.625h-9.396v-5.822h6.281v-3.635h-6.281v-5.084h9.396v-3.635h-13.39z"/>
  </g>
  <path fill="#fff" fill-rule="evenodd" d="m81.27 118.291-.24-1.202-.72-1.019-.96-.66-1.2-.241-1.2.241-1.02.66-.66 1.019-.24 1.202.24 1.199.66 1.02 1.02.659 1.2.241 1.2-.241.96-.659.72-1.02zM35.91 118.169l-.24-1.199-.66-.96-1.021-.719-1.199-.241-1.2.241-1.021.719-.659.96-.24 1.199.24 1.202.659 1.019 1.021.72 1.2.181 1.199-.181 1.021-.72.66-1.019z" clip-rule="evenodd"/>
  <path fill="none" stroke="#fff" stroke-linecap="round" stroke-linejoin="round" stroke-miterlimit="10" stroke-width=".06" d="m35.91 118.169-.24-1.199-.66-.96-1.021-.719-1.199-.241-1.2.241-1.021.719-.659.96-.24 1.199.24 1.202.659 1.019 1.021.72 1.2.181 1.199-.181 1.021-.72.66-1.019z"/>
  <path fill-rule="evenodd" d="M.03 154.77v2.58c.08 5.73 3.781 10.695 9.3 12.3l1.08.24 103.02-154.5v-2.58c-.081-5.731-3.782-10.695-9.3-12.3l-1.08-.24z" clip-rule="evenodd"/>
  <path fill="none" stroke="#000" stroke-linecap="round" stroke-linejoin="round" stroke-miterlimit="10" stroke-width=".06" d="M.03 154.77v2.58c.08 5.73 3.781 10.695 9.3 12.3l1.08.24 103.02-154.5v-2.58c-.081-5.731-3.782-10.695-9.3-12.3l-1.08-.24z"/>
</svg>
