<?xml version="1.0" encoding="UTF-8" standalone="no"?>
<svg
   xmlns:dc="http://purl.org/dc/elements/1.1/"
   xmlns:cc="http://creativecommons.org/ns#"
   xmlns:rdf="http://www.w3.org/1999/02/22-rdf-syntax-ns#"
   xmlns:svg="http://www.w3.org/2000/svg"
   xmlns="http://www.w3.org/2000/svg"
   viewBox="0 0 416.57376 1144.6716"
   height="1144.6716"
   width="416.57376"
   xml:space="preserve"
   version="1.1"
   id="svg5479"><metadata
     id="metadata5485"><rdf:RDF><cc:Work
         rdf:about=""><dc:format>image/svg+xml</dc:format><dc:type
           rdf:resource="http://purl.org/dc/dcmitype/StillImage" /><dc:title></dc:title></cc:Work></rdf:RDF></metadata><defs
     id="defs5483" /><g
     transform="matrix(1.25,0,0,-1.25,0,1144.6716)"
     id="g5487"><g
       id="g5489"><path
         id="path5491"
         style="fill:#656565;fill-opacity:1;fill-rule:nonzero;stroke:none"
         d="m 194.098,889.409 0,-2.39 3.539,0 0,2.39 -3.539,0 z m 7.14,0 0,-2.39 6.09,0 0,2.39 -6.09,0 z m 9.688,0 0,-2.39 6.09,0 0,2.39 -6.09,0 z m 9.687,0 0,-2.39 6.09,0 0,2.39 -6.09,0 z m 9.684,0 0,-2.39 6.086,0 0,2.39 -6.086,0 z m 9.687,0 0,-2.39 6.094,0 0,2.39 -6.094,0 z m 9.692,0 0,-2.39 6.082,0 0,2.39 -6.082,0 z m 9.687,0 0,-2.39 6.082,0 0,2.39 -6.082,0 z m 9.684,0 0,-2.39 6.055,0 0,2.39 -6.055,0 z m 9.68,0 0,-2.39 6.101,0 0,2.39 -6.101,0 z m 9.695,0 0,-2.39 6.055,0 0,2.39 -6.055,0 z m 9.676,0 0,-2.39 6.09,0 0,2.39 -6.09,0 z m 9.691,0 0,-2.39 6.09,0 0,2.39 -6.09,0 z m 9.688,0 0,-2.39 6.089,0 0,2.39 -6.089,0 z m 9.687,0 0,-2.39 6.094,0 0,2.39 -6.094,0 z" /><path
         id="path5493"
         style="fill:#656565;fill-opacity:1;fill-rule:nonzero;stroke:none"
         d="m 290.727,741.011 -6.102,0 0,2.386 6.102,0 0,-2.386 z m -9.727,0 -6.059,0 0,2.386 6.059,0 0,-2.386 z m -9.652,0 -6.086,0 0,2.386 6.086,0 0,-2.386 z m -9.688,0 -6.09,0 0,2.386 6.09,0 0,-2.386 z m -9.683,0 -6.094,0 0,2.386 6.094,0 0,-2.386 z m -9.692,0 -6.094,0 0,2.386 6.094,0 0,-2.386 z m -9.683,0 -6.09,0 0,2.386 6.09,0 0,-2.386 z m -9.684,0 -6.094,0 0,2.386 6.094,0 0,-2.386 z m -9.695,0 -6.086,0 0,2.386 6.086,0 0,-2.386 z m -9.688,0 -3.539,0 0,2.386 3.539,0 0,-2.386 z" /><path
         id="path5495"
         style="fill:#656565;fill-opacity:1;fill-rule:nonzero;stroke:none"
         d="m 290.727,542.608 -6.102,0 0,2.387 6.102,0 0,-2.387 z m -9.727,0 -6.059,0 0,2.387 6.059,0 0,-2.387 z m -9.652,0 -6.086,0 0,2.387 6.086,0 0,-2.387 z m -9.688,0 -6.09,0 0,2.387 6.09,0 0,-2.387 z m -9.683,0 -6.094,0 0,2.387 6.094,0 0,-2.387 z m -9.692,0 -6.094,0 0,2.387 6.094,0 0,-2.387 z m -9.683,0 -6.09,0 0,2.387 6.09,0 0,-2.387 z m -9.684,0 -6.094,0 0,2.387 6.094,0 0,-2.387 z m -9.695,0 -6.086,0 0,2.387 6.086,0 0,-2.387 z m -9.688,0 -3.539,0 0,2.387 3.539,0 0,-2.387 z" /><path
         id="path5497"
         style="fill:#656565;fill-opacity:1;fill-rule:nonzero;stroke:none"
         d="m 271.348,684.847 -6.086,0 0,2.386 6.086,0 0,-2.386 z m -9.688,0 -6.09,0 0,2.386 6.09,0 0,-2.386 z m -9.683,0 -6.094,0 0,2.386 6.094,0 0,-2.386 z m -9.692,0 -6.094,0 0,2.386 6.094,0 0,-2.386 z m -9.683,0 -6.09,0 0,2.386 6.09,0 0,-2.386 z m -9.684,0 -6.094,0 0,2.386 6.094,0 0,-2.386 z m -9.695,0 -6.086,0 0,2.386 6.086,0 0,-2.386 z m -9.688,0 -3.539,0 0,2.386 3.539,0 0,-2.386 z" /><path
         id="path5499"
         style="fill:#656565;fill-opacity:1;fill-rule:nonzero;stroke:none"
         d="m 57.352,889.409 0,-2.387 6.093,0 0,2.387 -6.093,0 z m 9.687,0 0,-2.387 6.09,0 0,2.387 -6.09,0 z m 9.68,0 0,-2.387 6.093,0 0,2.387 -6.093,0 z m 9.695,0 0,-2.387 6.09,0 0,2.387 -6.09,0 z m 9.688,0 0,-2.387 6.086,0 0,2.387 -6.086,0 z m 9.687,0 0,-2.387 6.086,0 0,2.387 -6.086,0 z m 9.68,0 0,-2.387 6.058,0 0,2.387 -6.058,0 z m 9.683,0 0,-2.387 6.102,0 0,2.387 -6.102,0 z m 9.692,0 0,-2.387 6.058,0 0,2.387 -6.058,0 z m 9.679,0 0,-2.387 6.094,0 0,2.387 -6.094,0 z m 9.692,0 0,-2.387 6.105,0 0,2.387 -6.105,0 z m 9.707,0 0,-2.387 6.058,0 0,2.387 -6.058,0 z" /><path
         id="path5501"
         style="fill:#656565;fill-opacity:1;fill-rule:nonzero;stroke:none"
         d="m 21.117,849.921 0,-2.391 6.082,0 0,2.391 -6.082,0 z m 9.68,0 0,-2.391 6.055,0 0,2.391 -6.055,0 z m 9.68,0 0,-2.391 6.101,0 0,2.391 -6.101,0 z m 9.695,0 0,-2.391 6.055,0 0,2.391 -6.055,0 z m 9.676,0 0,-2.391 6.093,0 0,2.391 -6.093,0 z m 9.691,0 0,-2.391 6.106,0 0,2.391 -6.106,0 z m 9.703,0 0,-2.391 6.063,0 0,2.391 -6.063,0 z m 9.676,0 0,-2.391 6.094,0 0,2.391 -6.094,0 z m 9.691,0 0,-2.391 6.106,0 0,2.391 -6.106,0 z m 9.707,0 0,-2.391 6.059,0 0,2.391 -6.059,0 z" /><path
         id="path5503"
         style="fill:#656565;fill-opacity:1;fill-rule:nonzero;stroke:none"
         d="m 54.973,685.054 6.089,0 0,2.386 -6.089,0 0,-2.386 z m 9.691,0 6.09,0 0,2.386 -6.09,0 0,-2.386 z m 9.684,0 6.086,0 0,2.386 -6.086,0 0,-2.386 z m 9.683,0 6.09,0 0,2.386 -6.09,0 0,-2.386 z m 9.692,0 6.086,0 0,2.386 -6.086,0 0,-2.386 z m 9.691,0 3.539,0 0,2.386 -3.539,0 0,-2.386 z" /><path
         id="path5505"
         style="fill:#656565;fill-opacity:1;fill-rule:nonzero;stroke:none"
         d="m 54.973,488.155 6.089,0 0,2.387 -6.089,0 0,-2.387 z m 9.691,0 6.09,0 0,2.387 -6.09,0 0,-2.387 z m 9.684,0 6.086,0 0,2.387 -6.086,0 0,-2.387 z m 9.683,0 6.09,0 0,2.387 -6.09,0 0,-2.387 z m 9.692,0 6.086,0 0,2.387 -6.086,0 0,-2.387 z m 9.691,0 3.539,0 0,2.387 -3.539,0 0,-2.387 z" /><path
         id="path5507"
         style="fill:#656565;fill-opacity:1;fill-rule:nonzero;stroke:none"
         d="m 86.027,576.866 c 0,0.852 0.418,1.278 1.25,1.278 0.84,0 1.262,-0.426 1.262,-1.278 l 0,-7.504 c 0,-0.828 -0.422,-1.246 -1.262,-1.246 -0.386,0 -0.707,0.145 -0.957,0.438 l -8.996,9.152 c -0.347,0.352 -0.715,0.629 -1.101,0.824 -0.387,0.203 -0.797,0.305 -1.227,0.305 -0.488,0 -0.871,-0.152 -1.141,-0.449 -0.273,-0.301 -0.41,-0.699 -0.41,-1.199 0,-0.309 0.055,-0.622 0.157,-0.938 0.105,-0.305 0.253,-0.605 0.437,-0.895 0.188,-0.285 0.402,-0.546 0.656,-0.789 0.243,-0.234 0.5,-0.429 0.778,-0.593 0.449,-0.266 0.675,-0.598 0.675,-0.996 0,-0.192 -0.035,-0.375 -0.109,-0.543 -0.078,-0.172 -0.176,-0.321 -0.289,-0.45 -0.113,-0.129 -0.238,-0.234 -0.375,-0.312 -0.148,-0.082 -0.285,-0.125 -0.414,-0.125 -0.25,0 -0.52,0.082 -0.813,0.242 -0.293,0.164 -0.578,0.367 -0.859,0.621 -0.293,0.25 -0.562,0.524 -0.812,0.82 -0.25,0.309 -0.461,0.598 -0.629,0.864 -0.61,0.984 -0.91,2.015 -0.91,3.09 0,0.574 0.097,1.113 0.3,1.613 0.196,0.5 0.477,0.941 0.836,1.32 0.356,0.379 0.785,0.68 1.289,0.899 0.492,0.226 1.035,0.339 1.633,0.339 0.352,0 0.707,-0.046 1.066,-0.132 0.36,-0.082 0.715,-0.203 1.083,-0.368 0.355,-0.16 0.703,-0.359 1.039,-0.589 0.332,-0.235 0.648,-0.5 0.949,-0.789 l 6.894,-7.032 0,4.422 z" /><path
         id="path5509"
         style="fill:#656565;fill-opacity:1;fill-rule:nonzero;stroke:none"
         d="m 70.938,593.804 c 0,0.84 0.421,1.258 1.261,1.258 0.832,0 1.246,-0.418 1.246,-1.258 l 0,-6.547 4.075,-1.09 c -0.204,0.621 -0.305,1.266 -0.305,1.926 0,0.613 0.113,1.179 0.34,1.699 0.226,0.523 0.543,0.977 0.945,1.355 0.395,0.387 0.863,0.688 1.395,0.899 0.535,0.219 1.117,0.328 1.746,0.328 0.613,0 1.207,-0.09 1.781,-0.266 0.574,-0.179 1.113,-0.425 1.625,-0.742 0.508,-0.316 0.976,-0.687 1.406,-1.113 0.43,-0.422 0.801,-0.879 1.113,-1.371 0.309,-0.492 0.547,-1.012 0.719,-1.551 0.168,-0.535 0.254,-1.066 0.254,-1.602 0,-0.484 -0.07,-0.949 -0.207,-1.394 -0.144,-0.434 -0.352,-0.832 -0.621,-1.188 -0.262,-0.347 -0.586,-0.648 -0.953,-0.91 -0.379,-0.258 -0.801,-0.449 -1.262,-0.578 -0.16,-0.043 -0.32,-0.062 -0.473,-0.062 -0.156,0 -0.3,0.027 -0.437,0.086 -0.137,0.062 -0.258,0.156 -0.363,0.277 -0.106,0.121 -0.184,0.266 -0.243,0.437 -0.062,0.176 -0.097,0.379 -0.097,0.606 0,0.516 0.312,0.871 0.933,1.066 0.414,0.114 0.719,0.317 0.922,0.606 0.192,0.293 0.289,0.644 0.289,1.054 0,0.309 -0.054,0.622 -0.168,0.946 -0.113,0.324 -0.269,0.633 -0.472,0.933 -0.203,0.309 -0.442,0.594 -0.715,0.864 -0.274,0.273 -0.57,0.511 -0.883,0.715 -0.328,0.199 -0.668,0.359 -1.035,0.484 -0.367,0.121 -0.742,0.18 -1.113,0.18 -0.575,0 -1.036,-0.149 -1.383,-0.45 -0.348,-0.297 -0.52,-0.734 -0.52,-1.308 0,-0.235 0.016,-0.457 0.047,-0.664 0.031,-0.211 0.094,-0.434 0.184,-0.668 0.082,-0.227 0.195,-0.481 0.351,-0.766 0.153,-0.281 0.352,-0.621 0.594,-1.016 0.082,-0.132 0.141,-0.25 0.18,-0.367 0.043,-0.109 0.062,-0.23 0.062,-0.359 0,-0.223 -0.031,-0.41 -0.097,-0.57 -0.063,-0.164 -0.149,-0.301 -0.254,-0.414 -0.106,-0.106 -0.223,-0.18 -0.352,-0.231 -0.129,-0.047 -0.265,-0.074 -0.398,-0.074 -0.075,-0.004 -0.153,-0.004 -0.231,0 -0.082,0.019 -0.168,0.039 -0.254,0.062 l -7.64,2.039 c -0.664,0.129 -0.992,0.543 -0.992,1.247 l 0,7.492 z" /><path
         id="path5511"
         style="fill:#656565;fill-opacity:1;fill-rule:nonzero;stroke:none"
         d="m 70.938,603.269 c 0,0.632 0.136,1.207 0.41,1.722 0.273,0.516 0.668,0.957 1.179,1.324 0.508,0.368 1.114,0.657 1.817,0.86 0.703,0.203 1.476,0.301 2.328,0.301 0.937,0 1.883,-0.114 2.836,-0.34 0.945,-0.215 1.859,-0.52 2.738,-0.907 0.875,-0.382 1.695,-0.839 2.461,-1.371 0.766,-0.523 1.434,-1.093 2,-1.711 0.566,-0.605 1.016,-1.242 1.348,-1.914 0.32,-0.671 0.484,-1.343 0.484,-2.023 0,-0.621 -0.133,-1.191 -0.402,-1.711 -0.274,-0.516 -0.66,-0.961 -1.164,-1.332 -0.5,-0.363 -1.102,-0.648 -1.805,-0.848 -0.711,-0.203 -1.504,-0.304 -2.375,-0.304 -0.922,0 -1.855,0.109 -2.801,0.328 -0.945,0.219 -1.855,0.515 -2.726,0.894 -0.883,0.383 -1.707,0.836 -2.473,1.36 -0.77,0.527 -1.441,1.093 -2.012,1.699 -0.578,0.613 -1.023,1.254 -1.347,1.926 -0.332,0.672 -0.496,1.355 -0.496,2.047 z m 2.558,0.328 c -0.035,-0.071 -0.051,-0.18 -0.051,-0.328 0,-0.418 0.137,-0.856 0.41,-1.309 0.27,-0.449 0.637,-0.891 1.106,-1.32 0.461,-0.422 1,-0.821 1.613,-1.2 0.614,-0.371 1.27,-0.703 1.961,-0.996 0.688,-0.281 1.399,-0.507 2.133,-0.675 0.73,-0.165 1.437,-0.243 2.125,-0.243 0.484,0 0.93,0.039 1.332,0.121 0.398,0.079 0.734,0.192 1.02,0.336 0.273,0.149 0.492,0.321 0.652,0.524 0.156,0.211 0.23,0.445 0.23,0.703 0,0.422 -0.132,0.852 -0.398,1.297 -0.274,0.445 -0.645,0.879 -1.102,1.297 -0.461,0.425 -1,0.832 -1.613,1.211 -0.617,0.382 -1.269,0.714 -1.965,1.007 -0.695,0.29 -1.406,0.516 -2.133,0.676 -0.738,0.172 -1.453,0.258 -2.144,0.258 -0.86,0 -1.57,-0.121 -2.133,-0.363 -0.566,-0.246 -0.914,-0.574 -1.043,-0.996 z" /><path
         id="path5513"
         style="fill:#656565;fill-opacity:1;fill-rule:nonzero;stroke:none"
         d="m 78.836,684.272 -5.133,-17.945 4.621,0.93 0,-50.641 1.024,0 0,50.641 4.617,-0.93 -5.129,17.945 z m -0.512,-125.293 0,-50.64 -4.621,0.93 5.133,-17.946 5.129,17.946 -4.617,-0.93 0,50.64 -1.024,0 z" /><path
         id="path5515"
         style="fill:#656565;fill-opacity:1;fill-rule:nonzero;stroke:none"
         d="m 203.629,90.034 0,-2.387 3.539,0 0,2.387 -3.539,0 z m 7.141,0 0,-2.387 6.089,0 0,2.387 -6.089,0 z m 9.687,0 0,-2.387 6.09,0 0,2.387 -6.09,0 z m 9.688,0 0,-2.387 6.089,0 0,2.387 -6.089,0 z m 9.679,0 0,-2.387 6.09,0 0,2.387 -6.09,0 z m 9.692,0 0,-2.387 6.093,0 0,2.387 -6.093,0 z m 9.687,0 0,-2.387 6.086,0 0,2.387 -6.086,0 z m 9.692,0 0,-2.387 6.082,0 0,2.387 -6.082,0 z m 9.679,0 0,-2.387 6.059,0 0,2.387 -6.059,0 z m 9.684,0 0,-2.387 6.101,0 0,2.387 -6.101,0 z m 9.691,0 0,-2.387 6.059,0 0,2.387 -6.059,0 z m 9.68,0 0,-2.387 6.09,0 0,2.387 -6.09,0 z m 9.691,0 0,-2.387 6.246,0 0,2.387 -6.246,0 z m 9.852,0 0,-2.387 6.086,0 0,2.387 -6.086,0 z" /><path
         id="path5517"
         style="fill:#ffffff;fill-opacity:1;fill-rule:nonzero;stroke:none"
         d="m 193.16,887.409 c 6.586,0 11.93,-5.371 11.93,-12 l 0,-797.601 -95.43,7.921 c 1.262,253.809 -1.773,506.129 0,759.938 0.008,1.5 0.856,2.934 2.297,3.609 l 60.434,37.375 c 0.199,0.145 0.414,0.274 0.644,0.383 0.531,0.25 1.09,0.363 1.645,0.367 l 0.035,0.008 18.445,0 z" /><path
         id="path5519"
         style="fill:#000000;fill-opacity:1;fill-rule:nonzero;stroke:none"
         d="m 174.477,889.413 -0.27,-0.066 0.453,0.054 c -0.812,-0.011 -1.664,-0.175 -2.472,-0.554 -0.356,-0.168 -0.68,-0.364 -0.969,-0.575 l 0.121,0.082 -60.434,-37.382 0.199,0.113 c -2.152,-1.008 -3.429,-3.164 -3.441,-5.41 -1.773,-253.828 1.262,-506.153 0,-759.938 l -0.012,-1.847 99.434,-8.25 0,799.769 c 0,7.703 -6.254,13.996 -13.93,13.996 l -18.679,0.008 z m 0.48,-4.004 18.199,0 c 5.5,0 9.934,-4.445 9.934,-10 l 0,-795.43 -91.43,7.59 c 1.238,253.207 -1.769,504.918 0,758.082 0.008,0.754 0.418,1.473 1.145,1.813 l 0.101,0.051 60.598,37.472 0.058,0.043 c 0.11,0.078 0.215,0.145 0.321,0.196 l 0.004,0 c 0.254,0.121 0.519,0.175 0.808,0.175 l 0.231,0 0.031,0.008 z" /><path
         id="path5521"
         style="fill:#000000;fill-opacity:1;fill-rule:evenodd;stroke:none"
         d="m 204.914,743.397 0,-200 -95.687,-55.242 c -0.196,66.559 -0.352,133.129 -0.305,199.824 l 95.992,55.418 z" /><path
         id="path5523"
         style="fill:#000000;fill-opacity:1;fill-rule:nonzero;stroke:none"
         d="m 144.387,0.784 c 0,-0.25 -0.075,-0.375 -0.215,-0.375 -0.57,0 -1.262,0.039 -2.098,0.086 -0.785,0.055 -1.441,0.074 -1.953,0.074 -0.539,0 -1.176,-0.019 -1.922,-0.074 -0.781,-0.047 -1.48,-0.086 -2.047,-0.086 -0.16,0 -0.23,0.125 -0.23,0.375 0,0.211 0.07,0.317 0.195,0.336 1.012,0.129 1.692,0.305 2.047,0.551 0.371,0.25 0.551,0.726 0.551,1.426 l 0,0.195 -0.531,12.461 -6.207,-15.535 c -0.036,-0.145 -0.165,-0.219 -0.36,-0.219 -0.195,0 -0.301,0.074 -0.336,0.219 L 125.43,15.147 124.508,3.292 c -0.02,-0.141 -0.02,-0.27 -0.02,-0.375 0,-0.586 0.196,-0.996 0.586,-1.246 0.395,-0.246 1.106,-0.422 2.117,-0.535 0.106,-0.016 0.18,-0.141 0.18,-0.352 0,-0.25 -0.074,-0.375 -0.23,-0.375 -0.45,0 -1.067,0.039 -1.832,0.086 -0.715,0.055 -1.282,0.074 -1.672,0.074 -0.426,0 -1.012,-0.019 -1.742,-0.074 -0.715,-0.047 -1.266,-0.086 -1.657,-0.086 -0.121,0 -0.176,0.121 -0.176,0.375 0,0.211 0.071,0.317 0.231,0.336 1.082,0.129 1.828,0.336 2.238,0.606 0.41,0.285 0.66,0.8 0.715,1.566 l 1.348,12.105 0,0.415 c 0,0.546 -0.196,0.957 -0.582,1.203 -0.391,0.25 -1.106,0.445 -2.153,0.57 -0.109,0 -0.175,0.125 -0.175,0.355 0,0.09 0.035,0.18 0.066,0.25 0.055,0.071 0.109,0.106 0.164,0.106 0.32,0 0.766,-0.016 1.344,-0.07 0.504,-0.055 0.879,-0.075 1.109,-0.075 0.281,0 0.727,0.02 1.278,0.075 0.57,0.054 1.015,0.07 1.335,0.07 l 5.512,-14.313 5.727,14.313 c 0.336,0 0.777,-0.016 1.347,-0.07 0.5,-0.055 0.891,-0.075 1.192,-0.075 0.355,0 0.781,0.02 1.297,0.075 0.519,0.054 0.976,0.07 1.351,0.07 0.141,0 0.231,-0.106 0.231,-0.356 0,-0.23 -0.071,-0.355 -0.211,-0.355 -1,-0.125 -1.688,-0.301 -2.063,-0.551 -0.355,-0.25 -0.535,-0.73 -0.535,-1.422 l 0,-0.215 0.59,-12.105 c 0.039,-0.59 0.121,-1.016 0.281,-1.246 0.16,-0.25 0.43,-0.445 0.821,-0.59 0.39,-0.141 0.941,-0.246 1.652,-0.336 0.14,-0.019 0.215,-0.125 0.215,-0.336 z" /><path
         id="path5525"
         style="fill:#000000;fill-opacity:1;fill-rule:nonzero;stroke:none"
         d="m 154.113,0.144 c -0.484,0 -0.906,0.105 -1.265,0.355 -0.356,0.23 -0.582,0.555 -0.731,0.945 -0.902,-0.945 -2.117,-1.406 -3.59,-1.406 -0.781,0 -1.402,0.231 -1.882,0.691 -0.497,0.5 -0.747,1.086 -0.747,1.797 0,1.762 2.079,3.18 6.258,4.266 l 0.071,2.012 0,0.066 c 0,0.609 -0.157,1.106 -0.465,1.461 -0.297,0.375 -0.692,0.551 -1.203,0.551 -0.5,0 -0.93,-0.125 -1.286,-0.371 -0.355,-0.235 -0.531,-0.535 -0.55,-0.91 0,-0.551 -0.141,-0.977 -0.426,-1.297 -0.285,-0.301 -0.641,-0.461 -1.106,-0.461 -0.281,0 -0.492,0.086 -0.671,0.246 -0.176,0.164 -0.25,0.39 -0.25,0.66 0,0.66 0.585,1.352 1.796,2.078 1.192,0.711 2.309,1.086 3.344,1.086 0.922,0 1.668,-0.262 2.238,-0.816 0.586,-0.551 0.875,-1.301 0.875,-2.227 l 0,-0.141 -0.179,-5.812 0,-0.09 c 0,-0.906 0.285,-1.351 0.871,-1.351 0.281,0 0.605,0.16 0.996,0.519 l 0.086,0.02 c 0.074,0 0.129,-0.055 0.199,-0.149 0.051,-0.086 0.09,-0.176 0.09,-0.281 0,-0.25 -0.27,-0.551 -0.785,-0.906 -0.516,-0.36 -1.082,-0.535 -1.688,-0.535 z m -1.996,5.781 c -2.488,-0.571 -3.746,-1.496 -3.746,-2.813 0,-1.211 0.481,-1.812 1.422,-1.812 0.441,0 0.887,0.105 1.332,0.32 0.441,0.246 0.746,0.516 0.906,0.852 l 0.086,3.453 z" /><path
         id="path5527"
         style="fill:#000000;fill-opacity:1;fill-rule:nonzero;stroke:none"
         d="m 169.633,5.585 c 0,-1.582 -0.391,-2.918 -1.153,-3.965 -0.769,-1.07 -1.691,-1.582 -2.757,-1.582 -0.661,0 -1.192,0.211 -1.602,0.652 -0.41,0.43 -0.621,1 -0.621,1.707 0,0.485 0.125,0.875 0.352,1.176 0.25,0.285 0.57,0.446 0.98,0.446 0.305,0 0.566,-0.11 0.781,-0.301 0.215,-0.215 0.336,-0.481 0.336,-0.781 0,-0.372 -0.195,-0.676 -0.551,-0.891 -0.261,-0.141 -0.41,-0.32 -0.41,-0.516 0,-0.445 0.215,-0.676 0.625,-0.676 0.961,0 1.446,1.583 1.446,4.731 0,1.652 -0.36,3.039 -1.071,4.144 -0.711,1.118 -1.636,1.668 -2.793,1.668 -0.14,0 -0.211,0.125 -0.211,0.356 0,0.25 0.071,0.375 0.211,0.375 0.852,0 1.532,0.285 2.028,0.887 0.5,0.586 0.746,1.39 0.746,2.382 0,1.852 -0.606,2.774 -1.828,2.774 -0.641,0 -1.211,-0.41 -1.727,-1.207 -0.512,-0.82 -0.766,-1.742 -0.766,-2.777 l 0,-10.895 c 0,-0.82 0.094,-1.371 0.27,-1.656 0.18,-0.266 0.531,-0.446 1.066,-0.516 0.141,-0.019 0.211,-0.125 0.211,-0.336 0,-0.25 -0.07,-0.375 -0.211,-0.375 -0.355,0 -0.746,0.039 -1.211,0.086 -0.496,0.055 -0.961,0.074 -1.386,0.074 -0.426,0 -0.922,-0.019 -1.492,-0.074 -0.5,-0.047 -0.926,-0.086 -1.282,-0.086 -0.14,0 -0.215,0.125 -0.215,0.375 0,0.211 0.071,0.317 0.215,0.336 0.727,0.109 1.192,0.27 1.407,0.535 0.21,0.25 0.32,0.797 0.32,1.637 l 0,6.148 c 0,0.25 -0.11,0.356 -0.32,0.356 l -1.297,0 c -0.18,0 -0.27,0.125 -0.27,0.34 0,0.23 0.09,0.355 0.231,0.394 1.101,0.242 1.652,0.477 1.652,0.707 0,2.258 0.484,4.125 1.461,5.617 0.957,1.493 2.223,2.243 3.773,2.243 1.063,0 1.95,-0.321 2.629,-0.977 0.707,-0.641 1.047,-1.441 1.047,-2.367 0,-1.703 -1.012,-2.984 -3.043,-3.84 1.297,-0.355 2.367,-1.141 3.188,-2.328 0.832,-1.191 1.242,-2.527 1.242,-4 z" /><path
         id="path5529"
         style="fill:#000000;fill-opacity:1;fill-rule:nonzero;stroke:none"
         d="m 181.832,7.714 c 0,-0.223 -0.164,-0.352 -0.465,-0.352 l -7.039,0 c -0.058,-0.461 -0.09,-0.945 -0.09,-1.437 0,-1.391 0.336,-2.438 0.981,-3.184 0.656,-0.746 1.597,-1.121 2.808,-1.121 0.606,0 1.223,0.176 1.828,0.496 0.625,0.321 1.122,0.746 1.493,1.242 l 0.074,0.036 c 0.07,0 0.14,-0.051 0.215,-0.157 0.066,-0.086 0.121,-0.195 0.121,-0.32 0,-0.176 -0.285,-0.57 -0.836,-1.137 -0.535,-0.57 -1.141,-0.996 -1.777,-1.297 -0.641,-0.304 -1.313,-0.445 -2.028,-0.445 -1.547,0 -2.847,0.566 -3.894,1.688 -1.047,1.136 -1.582,2.527 -1.582,4.175 0,1.672 0.519,3.098 1.547,4.27 1.031,1.156 2.347,1.742 3.929,1.742 1.332,0 2.457,-0.441 3.344,-1.316 0.906,-0.852 1.371,-1.813 1.371,-2.883 z m -2.348,1.14 c 0,0.641 -0.214,1.172 -0.664,1.602 -0.437,0.426 -1.008,0.641 -1.703,0.641 -0.656,0 -1.226,-0.285 -1.722,-0.836 -0.481,-0.551 -0.801,-1.282 -0.977,-2.188 l 3.574,0.106 c 0.547,0.019 0.922,0.074 1.153,0.164 0.23,0.086 0.339,0.265 0.339,0.511 z" /><path
         id="path5531"
         style="fill:#000000;fill-opacity:1;fill-rule:nonzero;stroke:none"
         d="m 194.277,16.323 c 0,-0.355 -0.144,-0.676 -0.41,-0.941 -0.25,-0.27 -0.57,-0.395 -0.926,-0.395 -0.371,0 -0.691,0.125 -0.961,0.395 -0.25,0.265 -0.386,0.586 -0.386,0.941 0,0.371 0.136,0.692 0.386,0.961 0.25,0.25 0.571,0.371 0.961,0.371 0.356,0 0.676,-0.121 0.926,-0.371 0.266,-0.269 0.41,-0.59 0.41,-0.961 z m 1.797,-15.539 c 0,-0.25 -0.074,-0.375 -0.195,-0.375 -0.359,0 -0.82,0.039 -1.356,0.086 -0.621,0.055 -1.136,0.074 -1.562,0.074 -0.43,0 -0.945,-0.019 -1.547,-0.074 -0.535,-0.047 -0.98,-0.086 -1.336,-0.086 -0.14,0 -0.215,0.125 -0.215,0.375 0,0.211 0.075,0.317 0.215,0.336 0.727,0.109 1.195,0.27 1.406,0.535 0.215,0.25 0.321,0.797 0.321,1.637 l 0,4.766 c 0,0.691 -0.09,1.136 -0.27,1.351 -0.176,0.207 -0.551,0.356 -1.152,0.422 -0.125,0 -0.195,0.109 -0.195,0.34 0,0.195 0.07,0.301 0.195,0.301 0.906,0.234 1.633,0.48 2.222,0.73 0.571,0.27 0.922,0.481 1.083,0.66 0.074,0.106 0.179,0.16 0.269,0.16 0.246,0 0.371,-0.074 0.371,-0.214 -0.144,-1.922 -0.211,-3.414 -0.211,-4.465 l 0,-4.051 c 0,-0.84 0.106,-1.387 0.301,-1.637 0.23,-0.265 0.711,-0.426 1.461,-0.535 0.121,-0.019 0.195,-0.125 0.195,-0.336 l 0,-0.004 0,0.004 z" /><path
         id="path5533"
         style="fill:#000000;fill-opacity:1;fill-rule:nonzero;stroke:none"
         d="m 210.363,0.784 c 0,-0.25 -0.066,-0.375 -0.211,-0.375 -0.336,0 -0.746,0.039 -1.242,0.086 -0.551,0.055 -1.051,0.074 -1.457,0.074 -0.43,0 -0.93,-0.019 -1.48,-0.074 -0.516,-0.047 -0.938,-0.086 -1.278,-0.086 -0.14,0 -0.215,0.125 -0.215,0.375 0,0.211 0.075,0.317 0.215,0.336 0.586,0.07 0.977,0.234 1.157,0.5 0.195,0.266 0.281,0.832 0.281,1.672 l 0,4.301 c 0,0.961 -0.192,1.668 -0.567,2.117 -0.375,0.445 -0.957,0.656 -1.742,0.656 -0.496,0 -0.941,-0.09 -1.336,-0.281 -0.371,-0.18 -0.777,-0.516 -1.207,-1 l 0,-5.793 c 0,-0.84 0.09,-1.406 0.27,-1.672 0.176,-0.266 0.566,-0.43 1.168,-0.5 0.129,-0.019 0.195,-0.125 0.195,-0.336 0,-0.25 -0.066,-0.375 -0.195,-0.375 -0.356,0 -0.778,0.039 -1.297,0.086 -0.551,0.055 -1.027,0.074 -1.457,0.074 -0.41,0 -0.887,-0.019 -1.438,-0.074 -0.519,-0.047 -0.941,-0.086 -1.281,-0.086 -0.144,0 -0.215,0.125 -0.215,0.375 0,0.211 0.071,0.317 0.215,0.336 0.731,0.109 1.207,0.27 1.422,0.535 0.215,0.266 0.32,0.817 0.32,1.637 l 0,4.766 c 0,0.691 -0.09,1.136 -0.265,1.351 -0.184,0.207 -0.571,0.356 -1.176,0.422 -0.145,0 -0.215,0.109 -0.215,0.34 0,0.195 0.07,0.301 0.215,0.301 0.851,0.218 1.551,0.461 2.121,0.711 0.566,0.289 0.922,0.5 1.062,0.679 0.086,0.106 0.176,0.16 0.282,0.16 0.25,0 0.359,-0.074 0.359,-0.214 l -0.09,-1.621 c 1.231,1.156 2.383,1.726 3.43,1.726 1.176,0 2.082,-0.336 2.742,-0.992 0.656,-0.68 0.992,-1.586 0.992,-2.703 l 0,-4.926 c 0,-0.84 0.09,-1.387 0.305,-1.637 0.215,-0.265 0.676,-0.426 1.402,-0.535 0.145,-0.019 0.211,-0.125 0.211,-0.336 l 0,-0.004 0,0.004 z" /><path
         id="path5535"
         style="fill:#000000;fill-opacity:1;fill-rule:nonzero;stroke:none"
         d="m 241.379,0.784 c 0,-0.25 -0.059,-0.375 -0.199,-0.375 -0.567,0 -1.282,0.039 -2.098,0.086 -0.781,0.055 -1.441,0.074 -1.977,0.074 -0.511,0 -1.156,-0.019 -1.902,-0.074 -0.797,-0.047 -1.476,-0.086 -2.043,-0.086 -0.156,0 -0.23,0.125 -0.23,0.375 0,0.211 0.054,0.317 0.191,0.336 1,0.129 1.691,0.305 2.047,0.551 0.375,0.25 0.551,0.726 0.551,1.426 l 0,0.195 -0.531,12.461 -6.208,-15.535 c -0.054,-0.145 -0.175,-0.219 -0.351,-0.219 -0.195,0 -0.32,0.074 -0.359,0.219 l -5.832,14.929 -0.926,-11.855 c -0.016,-0.141 -0.032,-0.27 -0.032,-0.375 0,-0.586 0.208,-0.996 0.602,-1.246 0.391,-0.246 1.086,-0.422 2.098,-0.535 0.125,-0.016 0.195,-0.141 0.195,-0.352 0,-0.25 -0.086,-0.375 -0.227,-0.375 -0.464,0 -1.07,0.039 -1.836,0.086 -0.726,0.055 -1.277,0.074 -1.667,0.074 -0.43,0 -1.016,-0.019 -1.762,-0.074 -0.711,-0.047 -1.246,-0.086 -1.637,-0.086 -0.121,0 -0.176,0.121 -0.176,0.375 0,0.211 0.067,0.317 0.231,0.336 1.066,0.129 1.812,0.336 2.238,0.606 0.41,0.285 0.656,0.8 0.711,1.566 l 1.336,12.105 c 0.016,0.161 0.016,0.286 0.016,0.415 0,0.546 -0.196,0.957 -0.586,1.203 -0.391,0.25 -1.121,0.445 -2.153,0.57 -0.121,0 -0.175,0.125 -0.175,0.355 0,0.09 0.015,0.18 0.07,0.25 0.054,0.071 0.105,0.106 0.16,0.106 0.316,0 0.766,-0.016 1.352,-0.07 0.496,-0.055 0.851,-0.075 1.082,-0.075 0.308,0 0.73,0.02 1.3,0.075 0.567,0.054 1.016,0.07 1.332,0.07 l 5.512,-14.313 5.707,14.313 c 0.336,0 0.801,-0.016 1.352,-0.07 0.515,-0.055 0.906,-0.075 1.191,-0.075 0.375,0 0.805,0.02 1.301,0.075 0.531,0.054 0.976,0.07 1.351,0.07 0.157,0 0.231,-0.106 0.231,-0.356 0,-0.23 -0.055,-0.355 -0.195,-0.355 -1.016,-0.125 -1.688,-0.301 -2.067,-0.551 -0.355,-0.25 -0.531,-0.73 -0.531,-1.422 l 0,-0.215 0.586,-12.105 c 0.019,-0.59 0.129,-1.016 0.266,-1.246 0.16,-0.25 0.441,-0.445 0.835,-0.59 0.372,-0.141 0.926,-0.246 1.657,-0.336 0.14,-0.019 0.195,-0.125 0.195,-0.336 l 0.004,0 z" /><path
         id="path5537"
         style="fill:#000000;fill-opacity:1;fill-rule:nonzero;stroke:none"
         d="m 246.977,16.323 c 0,-0.355 -0.145,-0.676 -0.411,-0.941 -0.246,-0.27 -0.57,-0.395 -0.941,-0.395 -0.355,0 -0.676,0.125 -0.941,0.395 -0.266,0.265 -0.395,0.586 -0.395,0.941 0,0.371 0.129,0.692 0.395,0.961 0.246,0.25 0.566,0.371 0.941,0.371 0.371,0 0.695,-0.121 0.941,-0.371 0.266,-0.269 0.411,-0.59 0.411,-0.961 z m 1.796,-15.539 c 0,-0.25 -0.074,-0.375 -0.214,-0.375 -0.356,0 -0.801,0.039 -1.352,0.086 -0.605,0.055 -1.137,0.074 -1.547,0.074 -0.43,0 -0.941,-0.019 -1.551,-0.074 -0.531,-0.047 -0.976,-0.086 -1.332,-0.086 -0.14,0 -0.215,0.125 -0.215,0.375 0,0.211 0.075,0.317 0.215,0.336 0.727,0.109 1.196,0.27 1.407,0.535 0.214,0.25 0.32,0.797 0.32,1.637 l 0,4.766 c 0,0.691 -0.086,1.136 -0.281,1.351 -0.164,0.207 -0.555,0.356 -1.137,0.422 -0.148,0 -0.199,0.109 -0.199,0.34 0,0.195 0.051,0.301 0.199,0.301 0.902,0.234 1.633,0.48 2.199,0.73 0.586,0.27 0.942,0.481 1.086,0.66 0.09,0.106 0.176,0.16 0.285,0.16 0.25,0 0.356,-0.074 0.356,-0.214 -0.125,-1.922 -0.196,-3.414 -0.196,-4.465 l 0,-4.051 c 0,-0.84 0.106,-1.387 0.301,-1.637 0.211,-0.265 0.695,-0.426 1.442,-0.535 0.14,-0.019 0.214,-0.125 0.214,-0.336 l 0,-0.004 0,0.004 z" /><path
         id="path5539"
         style="fill:#000000;fill-opacity:1;fill-rule:nonzero;stroke:none"
         d="m 255.668,0.8 c 0,-0.231 -0.066,-0.352 -0.211,-0.352 -0.34,0 -0.797,0.016 -1.352,0.051 -0.605,0.051 -1.136,0.07 -1.546,0.07 -0.407,0 -0.922,-0.019 -1.528,-0.07 -0.551,-0.035 -1,-0.051 -1.351,-0.051 -0.141,0 -0.215,0.121 -0.215,0.352 0,0.215 0.074,0.34 0.215,0.355 0.726,0.094 1.191,0.25 1.398,0.516 0.234,0.269 0.344,0.82 0.344,1.656 l 0,11.949 c 0,0.692 -0.09,1.141 -0.25,1.348 -0.18,0.211 -0.57,0.359 -1.192,0.426 -0.144,0.019 -0.199,0.129 -0.199,0.324 0,0.211 0.055,0.32 0.199,0.32 0.903,0.231 1.637,0.457 2.223,0.727 0.57,0.269 0.926,0.476 1.067,0.676 0.085,0.09 0.179,0.144 0.281,0.144 0.25,0 0.375,-0.074 0.375,-0.215 -0.141,-1.922 -0.211,-3.41 -0.211,-4.484 l 0,-11.215 c 0,-0.836 0.105,-1.387 0.32,-1.656 0.215,-0.266 0.692,-0.422 1.422,-0.516 0.145,-0.015 0.211,-0.14 0.211,-0.355 z" /><path
         id="path5541"
         style="fill:#000000;fill-opacity:1;fill-rule:nonzero;stroke:none"
         d="m 262.355,0.8 c 0,-0.231 -0.074,-0.352 -0.214,-0.352 -0.356,0 -0.801,0.016 -1.352,0.051 -0.617,0.051 -1.137,0.07 -1.547,0.07 -0.422,0 -0.926,-0.019 -1.531,-0.07 -0.551,-0.035 -1.012,-0.051 -1.344,-0.051 -0.148,0 -0.215,0.121 -0.215,0.352 0,0.215 0.067,0.34 0.215,0.355 0.727,0.094 1.184,0.25 1.399,0.516 0.234,0.269 0.336,0.82 0.336,1.656 l 0,11.949 c 0,0.692 -0.086,1.141 -0.262,1.348 -0.16,0.211 -0.551,0.359 -1.176,0.426 -0.141,0.019 -0.211,0.129 -0.211,0.324 0,0.211 0.07,0.32 0.211,0.32 0.906,0.231 1.633,0.457 2.203,0.727 0.59,0.269 0.945,0.476 1.09,0.676 0.086,0.09 0.176,0.144 0.281,0.144 0.25,0 0.356,-0.074 0.356,-0.215 -0.125,-1.922 -0.196,-3.41 -0.196,-4.484 l 0,-11.215 c 0,-0.836 0.11,-1.387 0.321,-1.656 0.215,-0.266 0.695,-0.422 1.422,-0.516 0.14,-0.015 0.214,-0.14 0.214,-0.355 z" /><path
         id="path5543"
         style="fill:#000000;fill-opacity:1;fill-rule:nonzero;stroke:none"
         d="m 267.512,16.323 c 0,-0.355 -0.125,-0.676 -0.391,-0.941 -0.269,-0.27 -0.57,-0.395 -0.941,-0.395 -0.375,0 -0.692,0.125 -0.961,0.395 -0.25,0.265 -0.371,0.586 -0.371,0.941 0,0.371 0.121,0.692 0.371,0.961 0.269,0.25 0.586,0.371 0.961,0.371 0.371,0 0.672,-0.121 0.941,-0.371 0.266,-0.269 0.391,-0.59 0.391,-0.961 z m 1.793,-15.539 c 0,-0.25 -0.051,-0.375 -0.196,-0.375 -0.355,0 -0.797,0.039 -1.347,0.086 -0.625,0.055 -1.137,0.074 -1.563,0.074 -0.429,0 -0.945,-0.019 -1.535,-0.074 -0.547,-0.047 -0.996,-0.086 -1.348,-0.086 -0.125,0 -0.195,0.125 -0.195,0.375 0,0.211 0.07,0.317 0.195,0.336 0.727,0.109 1.211,0.27 1.407,0.535 0.207,0.25 0.316,0.797 0.316,1.637 l 0,4.766 c 0,0.691 -0.09,1.136 -0.266,1.351 -0.179,0.207 -0.55,0.356 -1.136,0.422 -0.145,0 -0.215,0.109 -0.215,0.34 0,0.195 0.07,0.301 0.215,0.301 0.89,0.234 1.633,0.48 2.203,0.73 0.57,0.27 0.941,0.481 1.086,0.66 0.086,0.106 0.176,0.16 0.281,0.16 0.234,0 0.359,-0.074 0.359,-0.214 -0.144,-1.922 -0.214,-3.414 -0.214,-4.465 l 0,-4.051 c 0,-0.84 0.105,-1.387 0.32,-1.637 0.215,-0.265 0.691,-0.426 1.437,-0.535 0.145,-0.019 0.196,-0.125 0.196,-0.336 l 0,-0.004 0,0.004 z" /><path
         id="path5545"
         style="fill:#000000;fill-opacity:1;fill-rule:nonzero;stroke:none"
         d="m 290.785,0.784 c 0,-0.25 -0.074,-0.375 -0.215,-0.375 -0.336,0 -0.765,0.039 -1.258,0.086 -0.535,0.055 -1.035,0.074 -1.46,0.074 -0.43,0 -0.911,-0.019 -1.461,-0.074 -0.496,-0.047 -0.922,-0.086 -1.258,-0.086 -0.145,0 -0.215,0.125 -0.215,0.375 0,0.211 0.07,0.317 0.215,0.336 0.566,0.07 0.961,0.234 1.137,0.5 0.175,0.266 0.269,0.832 0.269,1.672 l 0,4.301 c 0,0.961 -0.184,1.668 -0.559,2.117 -0.371,0.445 -0.941,0.656 -1.718,0.656 -1.051,0 -1.903,-0.355 -2.582,-1.051 l 0,-6.023 c 0,-0.84 0.09,-1.406 0.289,-1.672 0.176,-0.266 0.57,-0.43 1.156,-0.5 0.141,-0.019 0.195,-0.125 0.195,-0.336 0,-0.25 -0.054,-0.375 -0.195,-0.375 -0.34,0 -0.75,0.039 -1.191,0.086 -0.504,0.055 -0.961,0.074 -1.375,0.074 -0.422,0 -0.903,-0.019 -1.403,-0.074 -0.441,-0.047 -0.851,-0.086 -1.187,-0.086 -0.149,0 -0.215,0.125 -0.215,0.375 0,0.211 0.066,0.317 0.215,0.336 0.586,0.07 0.976,0.234 1.156,0.5 0.195,0.266 0.281,0.832 0.281,1.672 l 0,4.301 c 0,0.961 -0.195,1.668 -0.57,2.117 -0.375,0.445 -0.961,0.656 -1.742,0.656 -0.496,0 -0.942,-0.09 -1.336,-0.281 -0.371,-0.18 -0.778,-0.516 -1.223,-1 l 0,-5.793 c 0,-0.84 0.086,-1.406 0.281,-1.672 0.18,-0.266 0.571,-0.43 1.157,-0.5 0.14,-0.019 0.215,-0.125 0.215,-0.336 0,-0.25 -0.075,-0.375 -0.215,-0.375 -0.336,0 -0.762,0.039 -1.278,0.086 -0.55,0.055 -1.05,0.074 -1.457,0.074 -0.426,0 -0.922,-0.019 -1.476,-0.074 -0.481,-0.047 -0.91,-0.086 -1.262,-0.086 -0.125,0 -0.199,0.125 -0.199,0.375 0,0.211 0.074,0.317 0.199,0.336 0.727,0.109 1.211,0.27 1.402,0.535 0.215,0.25 0.321,0.797 0.321,1.637 l 0,4.766 c 0,0.691 -0.09,1.136 -0.27,1.351 -0.176,0.207 -0.547,0.356 -1.137,0.422 -0.14,0 -0.207,0.109 -0.207,0.34 0,0.195 0.067,0.301 0.207,0.301 0.84,0.218 1.551,0.461 2.118,0.711 0.57,0.289 0.925,0.5 1.07,0.679 0.086,0.106 0.18,0.16 0.281,0.16 0.231,0 0.356,-0.074 0.356,-0.214 l -0.106,-1.621 c 1.242,1.156 2.379,1.726 3.449,1.726 1.637,0 2.739,-0.617 3.325,-1.887 1.296,1.27 2.574,1.887 3.824,1.887 1.172,0 2.078,-0.336 2.738,-0.992 0.656,-0.68 0.977,-1.586 0.977,-2.703 l 0,-4.926 c 0,-0.84 0.105,-1.387 0.324,-1.637 0.211,-0.265 0.672,-0.426 1.398,-0.535 0.141,-0.019 0.215,-0.125 0.215,-0.336 l 0,-0.004 0,0.004 z" /><path
         id="path5547"
         style="fill:#000000;fill-opacity:1;fill-rule:nonzero;stroke:none"
         d="m 301.984,7.714 c 0,-0.223 -0.156,-0.352 -0.457,-0.352 l -7.043,0 c -0.054,-0.461 -0.089,-0.945 -0.089,-1.437 0,-1.391 0.335,-2.438 0.976,-3.184 0.676,-0.746 1.602,-1.121 2.809,-1.121 0.605,0 1.23,0.176 1.832,0.496 0.621,0.321 1.121,0.746 1.496,1.242 l 0.066,0.036 c 0.074,0 0.145,-0.051 0.215,-0.157 0.094,-0.086 0.125,-0.195 0.125,-0.32 0,-0.176 -0.281,-0.57 -0.832,-1.137 -0.535,-0.57 -1.141,-0.996 -1.781,-1.297 -0.637,-0.304 -1.317,-0.445 -2.028,-0.445 -1.527,0 -2.824,0.566 -3.894,1.688 -1.047,1.136 -1.578,2.527 -1.578,4.175 0,1.672 0.511,3.098 1.547,4.27 1.027,1.156 2.343,1.742 3.925,1.742 1.336,0 2.457,-0.441 3.344,-1.316 0.922,-0.852 1.367,-1.813 1.367,-2.883 z m -2.328,1.14 c 0,0.641 -0.226,1.172 -0.672,1.602 -0.449,0.426 -1.015,0.641 -1.711,0.641 -0.66,0 -1.226,-0.285 -1.703,-0.836 -0.484,-0.551 -0.82,-1.282 -1,-2.188 l 3.594,0.106 c 0.531,0.019 0.906,0.074 1.137,0.164 0.23,0.086 0.355,0.265 0.355,0.511 z" /><path
         id="path5549"
         style="fill:#000000;fill-opacity:1;fill-rule:nonzero;stroke:none"
         d="m 311.836,10.651 c 0,-0.464 -0.106,-0.691 -0.34,-0.691 l -3.84,0.105 0,-6.168 c 0,-1.621 0.59,-2.421 1.727,-2.421 0.711,0 1.371,0.16 1.957,0.5 0.051,0 0.121,-0.055 0.18,-0.145 0.05,-0.09 0.082,-0.176 0.082,-0.285 0,-0.211 -0.317,-0.492 -0.957,-0.867 -0.641,-0.36 -1.348,-0.535 -2.149,-0.535 -0.98,0 -1.762,0.285 -2.351,0.871 -0.583,0.605 -0.868,1.402 -0.868,2.379 l 0,0.109 0.051,6.242 c 0,0.246 -0.105,0.375 -0.32,0.375 l -0.957,0 c -0.199,0 -0.285,0.106 -0.285,0.336 0,0.16 0.07,0.285 0.226,0.371 1.196,0.711 2.227,1.692 3.113,2.969 0.094,0.148 0.215,0.215 0.356,0.215 0.234,0 0.355,-0.067 0.355,-0.215 l -0.105,-2.453 3.785,0 c 0.234,0 0.34,-0.227 0.34,-0.692 z" /><path
         id="path5551"
         style="fill:#000000;fill-opacity:1;fill-rule:nonzero;stroke:none"
         d="m 323.484,7.714 c 0,-0.223 -0.148,-0.352 -0.464,-0.352 l -7.043,0 c -0.051,-0.461 -0.067,-0.945 -0.067,-1.437 0,-1.391 0.32,-2.438 0.973,-3.184 0.66,-0.746 1.586,-1.121 2.793,-1.121 0.621,0 1.226,0.176 1.851,0.496 0.606,0.321 1.102,0.746 1.493,1.242 l 0.054,0.036 c 0.086,0 0.16,-0.051 0.215,-0.157 0.086,-0.086 0.121,-0.195 0.121,-0.32 0,-0.176 -0.262,-0.57 -0.82,-1.137 -0.551,-0.57 -1.156,-0.996 -1.793,-1.297 -0.641,-0.304 -1.317,-0.445 -2.012,-0.445 -1.543,0 -2.844,0.566 -3.91,1.688 -1.047,1.136 -1.563,2.527 -1.563,4.175 0,1.672 0.5,3.098 1.528,4.27 1.051,1.156 2.348,1.742 3.945,1.742 1.32,0 2.442,-0.441 3.348,-1.316 0.902,-0.852 1.351,-1.813 1.351,-2.883 z m -2.332,1.14 c 0,0.641 -0.23,1.172 -0.672,1.602 -0.429,0.426 -1,0.641 -1.695,0.641 -0.672,0 -1.242,-0.285 -1.719,-0.836 -0.484,-0.551 -0.82,-1.282 -0.98,-2.188 l 3.574,0.106 c 0.531,0.019 0.926,0.074 1.137,0.164 0.234,0.086 0.355,0.265 0.355,0.511 z" /><path
         id="path5553"
         style="fill:#000000;fill-opacity:1;fill-rule:nonzero;stroke:none"
         d="m 326.949,4.999 c 0,-1.336 0,-2.242 -0.015,-3.098 0,-0.316 -0.184,-0.476 -0.571,-0.476 l -0.996,0 c -0.23,0 -0.285,-0.055 -0.285,-0.235 l 0,-0.441 c 0,-0.199 0.055,-0.25 0.141,-0.25 0.16,0 1.246,0.07 2.832,0.07 1.402,0 2.574,-0.07 2.734,-0.07 0.109,0 0.125,0.07 0.125,0.23 l 0,0.461 c 0,0.145 -0.016,0.235 -0.18,0.235 l -1.207,0 c -0.531,0 -0.726,0.246 -0.726,1.047 l 0,5.406 c 0,0.07 0.101,0.531 0.261,0.816 0.426,0.821 1.102,1.09 1.512,1.09 0.34,0 0.641,-0.074 0.856,-0.215 0.215,-0.09 0.461,-0.199 0.746,-0.199 0.461,0 1.082,0.516 1.082,1.262 0,0.59 -0.442,1.121 -1.313,1.121 -1.101,0 -2.312,-1.047 -3.097,-2.238 l -0.086,0 -0.141,1.777 c 0,0.16 -0.019,0.316 -0.176,0.316 -0.113,0 -0.199,-0.031 -0.359,-0.105 l -2.543,-1.316 c -0.16,-0.067 -0.211,-0.122 -0.211,-0.227 l 0,-0.164 c 0,-0.086 0.051,-0.125 0.211,-0.18 l 0.48,-0.246 c 0.727,-0.391 0.922,-0.641 0.922,-1.957 l 0,-2.414 0.004,0 z" /><path
         id="path5555"
         style="fill:#000000;fill-opacity:1;fill-rule:nonzero;stroke:none"
         d="m 61.469,86.241 -16.27,-24.804 2.676,-1.754 16.27,24.804 -2.676,1.754 z" /><path
         id="path5557"
         style="fill:#000000;fill-opacity:1;fill-rule:nonzero;stroke:none"
         d="M 69.887,84.874 53.609,60.077 56.285,58.319 72.559,83.12 69.887,84.874 Z" /><path
         id="path5559"
         style="fill:#000000;fill-opacity:1;fill-rule:nonzero;stroke:none"
         d="M 52.281,85.925 36.012,61.124 38.688,59.37 54.957,84.171 52.281,85.925 Z" /><path
         id="path5561"
         style="fill:#000000;fill-opacity:1;fill-rule:nonzero;stroke:none"
         d="M 34.434,86.722 18.164,61.925 20.84,60.167 37.109,84.968 34.434,86.722 Z" /><path
         id="path5563"
         style="fill:#000000;fill-opacity:1;fill-rule:nonzero;stroke:none"
         d="M 25.273,85.925 9,61.124 11.68,59.37 27.949,84.171 25.273,85.925 Z" /><path
         id="path5565"
         style="fill:#000000;fill-opacity:1;fill-rule:nonzero;stroke:none"
         d="M 16.27,85.925 0,61.124 2.68,59.37 18.945,84.171 16.27,85.925 Z" /><path
         id="path5567"
         style="fill:#000000;fill-opacity:1;fill-rule:evenodd;stroke:none"
         d="m 68.133,90.522 210.59,-16.246 -0.68,-7.972 -210.25,16.222 -54.781,0 0,7.996 55.121,0 z" /><path
         id="path5569"
         style="fill:#000000;fill-opacity:1;fill-rule:nonzero;stroke:none"
         d="m 182.039,76.804 2.523,-1.969 -18.214,-23.406 -2.528,1.965 18.219,23.41 z" /><path
         id="path5571"
         style="fill:#000000;fill-opacity:1;fill-rule:nonzero;stroke:none"
         d="m 173.066,77.53 2.528,-1.968 -18.223,-23.407 -2.527,1.965 18.222,23.41 z" /><path
         id="path5573"
         style="fill:#000000;fill-opacity:1;fill-rule:nonzero;stroke:none"
         d="m 164.09,78.257 2.527,-1.969 -18.219,-23.406 -2.523,1.965 18.215,23.41 z" /><path
         id="path5575"
         style="fill:#000000;fill-opacity:1;fill-rule:nonzero;stroke:none"
         d="m 146.148,79.706 2.528,-1.969 -18.219,-23.406 -2.531,1.965 18.222,23.41 z" /><path
         id="path5577"
         style="fill:#000000;fill-opacity:1;fill-rule:nonzero;stroke:none"
         d="m 137.18,80.433 2.523,-1.969 -18.223,-23.406 -2.523,1.964 18.223,23.411 z" /><path
         id="path5579"
         style="fill:#000000;fill-opacity:1;fill-rule:nonzero;stroke:none"
         d="m 128.203,81.159 2.524,-1.969 -18.215,-23.406 -2.528,1.965 18.219,23.41 z" /><path
         id="path5581"
         style="fill:#000000;fill-opacity:1;fill-rule:nonzero;stroke:none"
         d="m 108.465,82.757 2.523,-1.973 -18.218,-23.402 -2.528,1.965 18.223,23.41 z" /><path
         id="path5583"
         style="fill:#000000;fill-opacity:1;fill-rule:nonzero;stroke:none"
         d="m 99.488,83.479 2.524,-1.968 -18.215,-23.407 -2.524,1.965 18.215,23.41 z" /><path
         id="path5585"
         style="fill:#000000;fill-opacity:1;fill-rule:nonzero;stroke:none"
         d="M 90.52,84.206 93.043,82.237 74.828,58.831 72.301,60.796 90.52,84.206 Z" /><path
         id="path5587"
         style="fill:#000000;fill-opacity:1;fill-rule:nonzero;stroke:none"
         d="m 275.805,69.362 -16.426,-21.113 4.055,0 14.898,19.145 -2.527,1.968 z" /><path
         id="path5589"
         style="fill:#000000;fill-opacity:1;fill-rule:nonzero;stroke:none"
         d="m 251.055,57.964 -2.356,-2.496 2.723,-4.758 3.687,0 -4.054,7.254 z" /><path
         id="path5591"
         style="fill:#000000;fill-opacity:1;fill-rule:nonzero;stroke:none"
         d="m 256.082,64.444 7.273,-13.351 -2.21,-2.586 -7.165,13.109 2.102,2.828 z" /><path
         id="path5593"
         style="fill:#000000;fill-opacity:1;fill-rule:nonzero;stroke:none"
         d="m 261.125,70.925 7.559,-13.754 -2.512,-2.633 -7.406,13.563 2.324,2.796 0.031,0.028 0.004,0 z" /><path
         id="path5595"
         style="fill:#000000;fill-opacity:1;fill-rule:nonzero;stroke:none"
         d="m 257.859,70.808 -17.164,-22.055 4.051,0 15.637,20.094 -2.524,1.961 z" /><path
         id="path5597"
         style="fill:#000000;fill-opacity:1;fill-rule:nonzero;stroke:none"
         d="m 248.887,71.534 -16.203,-20.824 4.05,0 14.68,18.859 -2.527,1.965 z" /><path
         id="path5599"
         style="fill:#000000;fill-opacity:1;fill-rule:nonzero;stroke:none"
         d="m 239.918,72.261 -16.77,-21.551 4.051,0 15.239,19.586 -2.52,1.965 z" /><path
         id="path5601"
         style="fill:#000000;fill-opacity:1;fill-rule:nonzero;stroke:none"
         d="m 220.18,73.854 -18.024,-23.144 4.059,0 16.488,21.184 -2.523,1.96 z" /><path
         id="path5603"
         style="fill:#000000;fill-opacity:1;fill-rule:nonzero;stroke:none"
         d="m 211.203,74.581 -18.219,-23.402 0.602,-0.469 3.094,0 17.05,21.91 -2.527,1.961 z" /><path
         id="path5605"
         style="fill:#000000;fill-opacity:1;fill-rule:nonzero;stroke:none"
         d="m 202.234,75.308 -18.218,-23.411 1.527,-1.187 1.594,0 17.617,22.633 -2.52,1.965 z" /><path
         id="path5607"
         style="fill:#000000;fill-opacity:1;fill-rule:nonzero;stroke:none"
         d="m 223.168,73.526 8.328,-14.937 -2.793,-1.559 -8.328,14.934 2.793,1.562 z" /><path
         id="path5609"
         style="fill:#000000;fill-opacity:1;fill-rule:nonzero;stroke:none"
         d="m 218.023,67.284 8.329,-14.937 -2.801,-1.559 -8.324,14.934 2.796,1.562 z" /><path
         id="path5611"
         style="fill:#000000;fill-opacity:1;fill-rule:nonzero;stroke:none"
         d="m 212.977,60.929 6.707,-12.035 -2.793,-1.559 -6.707,12.035 2.793,1.559 z" /><path
         id="path5613"
         style="fill:#000000;fill-opacity:1;fill-rule:nonzero;stroke:none"
         d="m 186.141,75.55 8.328,-14.934 -2.793,-1.558 -8.328,14.933 2.793,1.559 z" /><path
         id="path5615"
         style="fill:#000000;fill-opacity:1;fill-rule:nonzero;stroke:none"
         d="m 180.66,70.237 8.32,-14.937 -2.792,-1.559 -8.325,14.934 2.797,1.562 z" /><path
         id="path5617"
         style="fill:#000000;fill-opacity:1;fill-rule:nonzero;stroke:none"
         d="m 175.359,63.964 6.707,-12.035 -2.793,-1.559 -6.711,12.035 2.797,1.559 z" /><path
         id="path5619"
         style="fill:#000000;fill-opacity:1;fill-rule:nonzero;stroke:none"
         d="m 149.031,79.601 8.328,-14.942 -2.8,-1.551 -8.329,14.934 2.801,1.559 z" /><path
         id="path5621"
         style="fill:#000000;fill-opacity:1;fill-rule:nonzero;stroke:none"
         d="m 143.543,74.288 8.328,-14.937 -2.793,-1.559 -8.328,14.934 2.793,1.562 z" /><path
         id="path5623"
         style="fill:#000000;fill-opacity:1;fill-rule:nonzero;stroke:none"
         d="m 138.246,68.011 6.711,-12.039 -2.793,-1.551 -6.371,11.359 2.453,2.231 z" /><path
         id="path5625"
         style="fill:#000000;fill-opacity:1;fill-rule:nonzero;stroke:none"
         d="m 111.836,81.796 8.324,-14.942 -2.797,-1.554 -8.328,14.937 2.801,1.559 z" /><path
         id="path5627"
         style="fill:#000000;fill-opacity:1;fill-rule:nonzero;stroke:none"
         d="m 106.348,76.479 8.328,-14.933 -2.793,-1.559 -8.328,14.934 2.793,1.558 z" /><path
         id="path5629"
         style="fill:#000000;fill-opacity:1;fill-rule:nonzero;stroke:none"
         d="m 101.051,70.202 6.707,-12.035 -2.793,-1.555 -6.371,11.364 2.457,2.226 z" /><path
         id="path5631"
         style="fill:#000000;fill-opacity:1;fill-rule:nonzero;stroke:none"
         d="m 74.176,85.167 8.328,-14.941 -2.801,-1.551 -8.328,14.933 2.801,1.559 z" /><path
         id="path5633"
         style="fill:#000000;fill-opacity:1;fill-rule:nonzero;stroke:none"
         d="m 68.688,79.854 8.328,-14.937 -2.793,-1.559 -8.328,14.938 2.793,1.558 z" /><path
         id="path5635"
         style="fill:#000000;fill-opacity:1;fill-rule:nonzero;stroke:none"
         d="m 63.391,73.577 6.711,-12.035 -2.793,-1.555 -6.371,11.36 2.453,2.23 z" /><path
         id="path5637"
         style="fill:#000000;fill-opacity:1;fill-rule:nonzero;stroke:none"
         d="m 37.402,86.226 9.36,-14.317 -2.684,-1.746 -9.359,14.313 2.683,1.75 z" /><path
         id="path5639"
         style="fill:#000000;fill-opacity:1;fill-rule:nonzero;stroke:none"
         d="m 32.25,80.206 9.355,-14.312 -2.675,-1.75 -9.356,14.312 2.676,1.75 z" /><path
         id="path5641"
         style="fill:#000000;fill-opacity:1;fill-rule:nonzero;stroke:none"
         d="m 27.406,73.573 8.36,-12.543 -2.676,-1.746 -7.977,11.895 2.293,2.394 z" /><path
         id="path5643"
         style="fill:#656565;fill-opacity:1;fill-rule:nonzero;stroke:none"
         d="m 231.621,639.233 0,27.789 4.621,-0.933 -5.129,17.945 -5.129,-17.945 4.618,0.933 0,-27.789 1.019,0 z" /><path
         id="path5645"
         style="fill:#656565;fill-opacity:1;fill-rule:nonzero;stroke:none"
         d="m 231.621,590.612 0,-27.789 4.621,0.934 -5.129,-17.949 -5.129,17.949 4.618,-0.934 0,27.789 1.019,0 z" /><path
         id="path5647"
         style="fill:#656565;fill-opacity:1;fill-rule:nonzero;stroke:none"
         d="m 239.199,601.144 c 0.633,-0.165 0.946,-0.524 0.946,-1.079 0,-0.464 -0.11,-0.82 -0.329,-1.062 -0.226,-0.234 -0.484,-0.352 -0.773,-0.352 -0.145,0 -0.309,0.024 -0.492,0.075 l -11.403,3.046 0.184,-0.207 c 0.106,-0.136 0.184,-0.281 0.242,-0.421 0.055,-0.149 0.082,-0.282 0.082,-0.411 0,-0.14 -0.039,-0.285 -0.121,-0.437 -0.086,-0.145 -0.195,-0.281 -0.324,-0.41 -0.129,-0.121 -0.273,-0.223 -0.434,-0.305 -0.164,-0.07 -0.324,-0.105 -0.484,-0.105 -0.34,0 -0.652,0.179 -0.941,0.543 l -2.504,3.168 c -0.188,0.234 -0.278,0.48 -0.278,0.75 0,0.214 0.032,0.406 0.098,0.566 0.062,0.16 0.152,0.297 0.262,0.41 0.105,0.113 0.222,0.191 0.351,0.242 0.129,0.055 0.266,0.082 0.41,0.082 0.145,0 0.301,-0.023 0.461,-0.07 l 15.047,-4.023 z" /><path
         id="path5649"
         style="fill:#656565;fill-opacity:1;fill-rule:nonzero;stroke:none"
         d="m 231.418,612.698 c -0.066,-0.242 -0.098,-0.48 -0.098,-0.715 0,-0.523 0.121,-1.05 0.364,-1.582 0.242,-0.531 0.562,-1.011 0.964,-1.437 0.399,-0.43 0.852,-0.781 1.368,-1.051 0.507,-0.269 1.035,-0.402 1.582,-0.402 0.629,0 1.121,0.195 1.476,0.582 0.344,0.386 0.52,0.898 0.52,1.535 0,0.488 -0.117,1 -0.352,1.523 -0.234,0.532 -0.547,1.016 -0.941,1.45 -0.395,0.433 -0.848,0.793 -1.356,1.078 -0.515,0.281 -1.058,0.422 -1.633,0.422 -0.488,0 -0.902,-0.125 -1.23,-0.375 -0.34,-0.243 -0.559,-0.586 -0.664,-1.028 z m -1.344,2.586 c 0.477,0.442 0.977,0.774 1.5,0.992 0.516,0.215 1.094,0.325 1.738,0.325 0.598,0 1.18,-0.09 1.743,-0.278 0.562,-0.183 1.101,-0.437 1.609,-0.761 0.496,-0.321 0.957,-0.704 1.375,-1.145 0.422,-0.445 0.785,-0.93 1.09,-1.453 0.305,-0.516 0.543,-1.055 0.715,-1.617 0.168,-0.567 0.254,-1.137 0.254,-1.719 0,-0.676 -0.114,-1.301 -0.34,-1.875 -0.235,-0.563 -0.547,-1.051 -0.946,-1.461 -0.398,-0.402 -0.874,-0.719 -1.425,-0.945 -0.555,-0.223 -1.153,-0.336 -1.789,-0.336 -0.61,0 -1.203,0.09 -1.774,0.265 -0.582,0.184 -1.121,0.446 -1.621,0.786 -0.508,0.335 -0.98,0.742 -1.418,1.21 -0.433,0.473 -0.808,1 -1.133,1.571 -0.566,-0.348 -1.199,-0.52 -1.91,-0.52 -0.676,0 -1.324,0.149 -1.945,0.446 -0.629,0.3 -1.188,0.695 -1.668,1.187 -0.484,0.496 -0.867,1.066 -1.149,1.703 -0.289,0.645 -0.437,1.309 -0.437,1.992 0,0.543 0.098,1.036 0.289,1.489 0.195,0.449 0.453,0.836 0.773,1.16 0.325,0.332 0.704,0.582 1.137,0.762 0.43,0.175 0.883,0.265 1.367,0.265 0.758,0 1.485,-0.187 2.176,-0.555 0.688,-0.363 1.281,-0.859 1.789,-1.488 z m -1.316,-3.722 c 0.031,0.097 0.047,0.238 0.047,0.421 0,0.293 -0.067,0.602 -0.203,0.934 -0.145,0.336 -0.34,0.645 -0.582,0.918 -0.25,0.273 -0.536,0.504 -0.856,0.687 -0.324,0.192 -0.676,0.29 -1.055,0.29 -0.336,0 -0.597,-0.102 -0.785,-0.313 -0.183,-0.203 -0.277,-0.484 -0.277,-0.848 0,-0.332 0.082,-0.664 0.242,-1.004 0.16,-0.335 0.371,-0.636 0.629,-0.906 0.246,-0.262 0.539,-0.488 0.867,-0.664 0.324,-0.168 0.641,-0.254 0.957,-0.254 0.297,0 0.531,0.071 0.703,0.207 0.16,0.137 0.266,0.317 0.313,0.532 z" /><path
         id="path5651"
         style="fill:#656565;fill-opacity:1;fill-rule:nonzero;stroke:none"
         d="m 222.543,626.999 c 0,0.625 0.137,1.199 0.414,1.715 0.273,0.515 0.664,0.953 1.172,1.316 0.508,0.375 1.109,0.66 1.812,0.86 0.704,0.203 1.477,0.3 2.321,0.3 0.937,0 1.879,-0.109 2.828,-0.336 0.945,-0.218 1.855,-0.519 2.734,-0.906 0.867,-0.379 1.688,-0.836 2.453,-1.367 0.766,-0.523 1.43,-1.09 1.993,-1.703 0.566,-0.606 1.011,-1.242 1.343,-1.91 0.321,-0.672 0.485,-1.344 0.485,-2.02 0,-0.621 -0.133,-1.187 -0.403,-1.703 -0.273,-0.516 -0.66,-0.961 -1.16,-1.328 -0.5,-0.367 -1.097,-0.645 -1.797,-0.848 -0.711,-0.203 -1.5,-0.304 -2.371,-0.304 -0.922,0 -1.851,0.109 -2.793,0.328 -0.945,0.215 -1.851,0.515 -2.719,0.894 -0.878,0.379 -1.703,0.828 -2.464,1.356 -0.77,0.519 -1.438,1.086 -2.008,1.691 -0.574,0.61 -1.02,1.254 -1.344,1.922 -0.328,0.668 -0.496,1.348 -0.496,2.043 z m 2.551,0.324 c -0.032,-0.07 -0.047,-0.179 -0.047,-0.324 0,-0.418 0.137,-0.855 0.41,-1.309 0.266,-0.449 0.633,-0.886 1.102,-1.316 0.457,-0.418 0.992,-0.816 1.609,-1.195 0.609,-0.371 1.262,-0.7 1.957,-0.992 0.684,-0.282 1.391,-0.508 2.125,-0.676 0.727,-0.164 1.43,-0.242 2.117,-0.242 0.485,0 0.926,0.039 1.328,0.121 0.395,0.082 0.735,0.191 1.016,0.339 0.273,0.145 0.492,0.317 0.652,0.52 0.153,0.207 0.231,0.441 0.231,0.699 0,0.418 -0.133,0.852 -0.399,1.293 -0.273,0.442 -0.64,0.875 -1.101,1.293 -0.457,0.43 -0.996,0.832 -1.606,1.211 -0.613,0.379 -1.265,0.711 -1.957,1.004 -0.695,0.289 -1.406,0.516 -2.133,0.676 -0.73,0.168 -1.445,0.254 -2.136,0.254 -0.856,0 -1.563,-0.121 -2.129,-0.364 -0.563,-0.242 -0.91,-0.57 -1.039,-0.992 z" /><path
         id="path5653"
         style="fill:#656565;fill-opacity:1;fill-rule:nonzero;stroke:none"
         d="m 281.027,801.429 c 0.629,-0.16 0.942,-0.52 0.942,-1.075 0,-0.468 -0.11,-0.824 -0.324,-1.066 -0.227,-0.234 -0.485,-0.348 -0.774,-0.348 -0.148,0 -0.312,0.024 -0.5,0.071 l -11.394,3.047 0.179,-0.204 c 0.106,-0.14 0.184,-0.277 0.242,-0.425 0.055,-0.145 0.086,-0.282 0.086,-0.41 0,-0.137 -0.043,-0.286 -0.121,-0.438 -0.09,-0.141 -0.199,-0.281 -0.328,-0.41 -0.129,-0.117 -0.273,-0.219 -0.433,-0.301 -0.164,-0.074 -0.325,-0.109 -0.485,-0.109 -0.34,0 -0.652,0.183 -0.945,0.543 l -2.5,3.168 c -0.188,0.234 -0.277,0.484 -0.277,0.75 0,0.218 0.031,0.406 0.093,0.566 0.067,0.16 0.153,0.301 0.27,0.41 0.105,0.117 0.219,0.196 0.347,0.246 0.129,0.055 0.266,0.082 0.411,0.082 0.148,0 0.3,-0.023 0.461,-0.07 l 15.05,-4.027 z" /><path
         id="path5655"
         style="fill:#656565;fill-opacity:1;fill-rule:nonzero;stroke:none"
         d="m 273.242,812.987 c -0.062,-0.246 -0.097,-0.48 -0.097,-0.715 0,-0.523 0.121,-1.054 0.363,-1.582 0.242,-0.535 0.562,-1.011 0.969,-1.441 0.39,-0.426 0.847,-0.777 1.363,-1.051 0.508,-0.265 1.035,-0.398 1.582,-0.398 0.633,0 1.121,0.191 1.476,0.578 0.348,0.387 0.52,0.898 0.52,1.539 0,0.492 -0.117,0.996 -0.348,1.523 -0.234,0.528 -0.55,1.012 -0.945,1.45 -0.395,0.433 -0.848,0.793 -1.352,1.074 -0.515,0.281 -1.062,0.422 -1.632,0.422 -0.493,0 -0.903,-0.125 -1.235,-0.375 -0.336,-0.239 -0.562,-0.582 -0.664,-1.024 z m -1.344,2.586 c 0.477,0.442 0.977,0.774 1.5,0.989 0.516,0.218 1.098,0.328 1.743,0.328 0.597,0 1.175,-0.094 1.738,-0.278 0.566,-0.187 1.101,-0.441 1.609,-0.761 0.5,-0.325 0.961,-0.707 1.379,-1.149 0.418,-0.445 0.781,-0.93 1.086,-1.449 0.309,-0.516 0.543,-1.059 0.715,-1.621 0.168,-0.567 0.254,-1.137 0.254,-1.715 0,-0.68 -0.113,-1.305 -0.34,-1.875 -0.234,-0.566 -0.547,-1.055 -0.941,-1.465 -0.407,-0.402 -0.879,-0.715 -1.426,-0.941 -0.559,-0.227 -1.153,-0.34 -1.793,-0.34 -0.61,0 -1.203,0.09 -1.774,0.266 -0.582,0.187 -1.121,0.449 -1.621,0.789 -0.507,0.336 -0.976,0.738 -1.414,1.207 -0.433,0.476 -0.812,1 -1.136,1.57 -0.563,-0.344 -1.2,-0.52 -1.911,-0.52 -0.675,0 -1.324,0.149 -1.945,0.45 -0.629,0.296 -1.183,0.691 -1.668,1.183 -0.484,0.5 -0.867,1.071 -1.148,1.703 -0.289,0.645 -0.434,1.309 -0.434,1.996 0,0.539 0.094,1.036 0.289,1.485 0.192,0.453 0.449,0.84 0.774,1.16 0.32,0.332 0.699,0.586 1.136,0.766 0.426,0.175 0.883,0.265 1.368,0.265 0.753,0 1.48,-0.187 2.171,-0.558 0.688,-0.364 1.286,-0.86 1.789,-1.485 z m -1.316,-3.722 c 0.031,0.093 0.047,0.238 0.047,0.421 0,0.29 -0.067,0.598 -0.203,0.93 -0.145,0.34 -0.34,0.645 -0.578,0.918 -0.254,0.274 -0.539,0.504 -0.86,0.688 -0.324,0.195 -0.676,0.293 -1.05,0.293 -0.34,0 -0.602,-0.106 -0.79,-0.317 -0.183,-0.199 -0.277,-0.48 -0.277,-0.844 0,-0.328 0.082,-0.664 0.242,-1.003 0.16,-0.336 0.371,-0.641 0.629,-0.907 0.25,-0.265 0.539,-0.488 0.871,-0.664 0.321,-0.172 0.641,-0.254 0.953,-0.254 0.297,0 0.532,0.067 0.704,0.203 0.16,0.137 0.265,0.317 0.312,0.536 z" /><path
         id="path5657"
         style="fill:#656565;fill-opacity:1;fill-rule:nonzero;stroke:none"
         d="m 264.371,827.284 c 0,0.629 0.137,1.203 0.41,1.719 0.274,0.516 0.664,0.953 1.172,1.316 0.508,0.371 1.113,0.657 1.813,0.86 0.699,0.199 1.472,0.3 2.32,0.3 0.934,0 1.879,-0.113 2.832,-0.335 0.941,-0.223 1.852,-0.524 2.73,-0.911 0.868,-0.379 1.688,-0.836 2.454,-1.363 0.765,-0.523 1.429,-1.094 1.996,-1.703 0.562,-0.609 1.011,-1.242 1.34,-1.91 0.32,-0.672 0.484,-1.344 0.484,-2.02 0,-0.621 -0.133,-1.191 -0.399,-1.707 -0.277,-0.515 -0.664,-0.957 -1.16,-1.328 -0.5,-0.363 -1.101,-0.644 -1.804,-0.848 -0.707,-0.199 -1.497,-0.3 -2.368,-0.3 -0.918,0 -1.847,0.109 -2.793,0.324 -0.941,0.219 -1.847,0.516 -2.718,0.898 -0.879,0.375 -1.703,0.828 -2.465,1.352 -0.766,0.523 -1.438,1.086 -2.008,1.691 -0.57,0.614 -1.019,1.254 -1.34,1.922 -0.332,0.668 -0.496,1.352 -0.496,2.043 z m 2.551,0.328 c -0.035,-0.074 -0.051,-0.183 -0.051,-0.328 0,-0.418 0.137,-0.855 0.41,-1.305 0.27,-0.453 0.633,-0.89 1.102,-1.316 0.461,-0.422 0.996,-0.82 1.605,-1.199 0.614,-0.371 1.266,-0.699 1.961,-0.988 0.684,-0.286 1.395,-0.508 2.125,-0.68 0.727,-0.16 1.434,-0.238 2.117,-0.238 0.485,0 0.926,0.039 1.329,0.117 0.394,0.082 0.734,0.195 1.015,0.34 0.277,0.144 0.492,0.32 0.653,0.519 0.152,0.211 0.23,0.445 0.23,0.703 0,0.418 -0.133,0.848 -0.398,1.293 -0.274,0.442 -0.641,0.875 -1.098,1.293 -0.461,0.426 -0.996,0.828 -1.61,1.207 -0.613,0.379 -1.265,0.715 -1.96,1.004 -0.692,0.289 -1.399,0.516 -2.125,0.676 -0.735,0.172 -1.446,0.254 -2.141,0.254 -0.852,0 -1.563,-0.117 -2.125,-0.363 -0.566,-0.239 -0.914,-0.571 -1.039,-0.989 z" /><path
         id="path5659"
         style="fill:#656565;fill-opacity:1;fill-rule:nonzero;stroke:none"
         d="m 272.941,886.21 -5.129,-17.945 4.622,0.929 0,-30.902 1.019,0 0,30.902 4.617,-0.929 -5.129,17.945 z m -0.507,-94.086 0,-30.898 -4.622,0.929 5.129,-17.945 5.129,17.945 -4.617,-0.929 0,30.898 -1.019,0 z" /><path
         id="path5661"
         style="fill:#656565;fill-opacity:1;fill-rule:nonzero;stroke:none"
         d="m 279.461,632.073 c 0,0.848 0.418,1.274 1.25,1.274 0.84,0 1.258,-0.426 1.258,-1.274 l 0,-7.504 c 0,-0.832 -0.418,-1.246 -1.258,-1.246 -0.391,0 -0.707,0.145 -0.957,0.434 l -8.996,9.152 c -0.348,0.356 -0.715,0.633 -1.102,0.824 -0.39,0.204 -0.797,0.301 -1.226,0.301 -0.492,0 -0.871,-0.148 -1.137,-0.445 -0.277,-0.301 -0.414,-0.699 -0.414,-1.203 0,-0.305 0.051,-0.617 0.156,-0.93 0.106,-0.309 0.25,-0.605 0.438,-0.898 0.187,-0.286 0.402,-0.547 0.652,-0.789 0.246,-0.235 0.504,-0.434 0.777,-0.594 0.453,-0.266 0.68,-0.598 0.68,-0.992 0,-0.196 -0.039,-0.379 -0.109,-0.547 -0.082,-0.168 -0.176,-0.321 -0.289,-0.449 -0.118,-0.129 -0.239,-0.231 -0.379,-0.317 -0.145,-0.078 -0.282,-0.117 -0.41,-0.117 -0.25,0 -0.524,0.078 -0.813,0.238 -0.289,0.164 -0.578,0.371 -0.863,0.621 -0.289,0.25 -0.559,0.524 -0.813,0.825 -0.25,0.308 -0.457,0.593 -0.629,0.859 -0.605,0.988 -0.906,2.016 -0.906,3.09 0,0.578 0.098,1.113 0.301,1.613 0.195,0.504 0.473,0.941 0.836,1.324 0.355,0.379 0.785,0.676 1.285,0.895 0.492,0.226 1.039,0.34 1.637,0.34 0.347,0 0.703,-0.043 1.066,-0.133 0.356,-0.082 0.715,-0.203 1.082,-0.363 0.356,-0.161 0.699,-0.36 1.039,-0.594 0.332,-0.235 0.649,-0.496 0.945,-0.789 l 6.899,-7.032 0,4.426 z" /><path
         id="path5663"
         style="fill:#656565;fill-opacity:1;fill-rule:nonzero;stroke:none"
         d="m 264.371,649.007 c 0,0.84 0.418,1.262 1.258,1.262 0.832,0 1.25,-0.422 1.25,-1.262 l 0,-6.543 4.074,-1.094 c -0.203,0.621 -0.305,1.266 -0.305,1.93 0,0.613 0.114,1.179 0.34,1.695 0.227,0.524 0.539,0.977 0.946,1.359 0.398,0.387 0.859,0.688 1.394,0.895 0.531,0.219 1.113,0.328 1.746,0.328 0.614,0 1.207,-0.09 1.781,-0.265 0.575,-0.18 1.118,-0.426 1.625,-0.743 0.508,-0.312 0.977,-0.687 1.407,-1.113 0.425,-0.422 0.801,-0.879 1.113,-1.371 0.309,-0.492 0.547,-1.008 0.715,-1.551 0.172,-0.531 0.254,-1.066 0.254,-1.597 0,-0.489 -0.067,-0.954 -0.203,-1.395 -0.149,-0.438 -0.352,-0.836 -0.618,-1.191 -0.269,-0.348 -0.589,-0.649 -0.96,-0.907 -0.379,-0.261 -0.801,-0.453 -1.262,-0.582 -0.16,-0.039 -0.317,-0.062 -0.469,-0.062 -0.156,0 -0.301,0.027 -0.437,0.086 -0.141,0.066 -0.262,0.156 -0.364,0.277 -0.105,0.121 -0.187,0.27 -0.242,0.438 -0.066,0.179 -0.098,0.378 -0.098,0.605 0,0.52 0.309,0.875 0.934,1.066 0.41,0.118 0.719,0.317 0.922,0.606 0.191,0.293 0.289,0.644 0.289,1.059 0,0.304 -0.055,0.621 -0.168,0.945 -0.117,0.32 -0.273,0.633 -0.473,0.93 -0.203,0.308 -0.441,0.597 -0.715,0.859 -0.277,0.277 -0.57,0.516 -0.886,0.719 -0.324,0.199 -0.668,0.363 -1.031,0.484 -0.372,0.121 -0.743,0.184 -1.114,0.184 -0.574,0 -1.035,-0.153 -1.383,-0.45 -0.347,-0.3 -0.519,-0.738 -0.519,-1.308 0,-0.238 0.016,-0.457 0.047,-0.668 0.031,-0.211 0.093,-0.434 0.183,-0.668 0.078,-0.227 0.196,-0.481 0.352,-0.762 0.152,-0.285 0.348,-0.621 0.59,-1.019 0.082,-0.129 0.144,-0.25 0.183,-0.364 0.043,-0.113 0.063,-0.234 0.063,-0.363 0,-0.219 -0.035,-0.41 -0.098,-0.57 -0.066,-0.16 -0.148,-0.301 -0.254,-0.41 -0.105,-0.106 -0.222,-0.184 -0.351,-0.231 -0.129,-0.051 -0.266,-0.074 -0.403,-0.074 -0.074,-0.008 -0.148,-0.008 -0.23,0 -0.078,0.016 -0.164,0.035 -0.254,0.058 l -7.637,2.04 c -0.664,0.128 -0.992,0.546 -0.992,1.246 l 0,7.492 z" /><path
         id="path5665"
         style="fill:#656565;fill-opacity:1;fill-rule:nonzero;stroke:none"
         d="m 264.371,658.476 c 0,0.628 0.137,1.203 0.41,1.718 0.278,0.52 0.668,0.961 1.176,1.321 0.508,0.375 1.117,0.66 1.82,0.863 0.7,0.203 1.477,0.305 2.325,0.305 0.937,0 1.882,-0.114 2.839,-0.34 0.946,-0.219 1.856,-0.524 2.739,-0.91 0.871,-0.379 1.691,-0.836 2.461,-1.371 0.765,-0.524 1.433,-1.094 2,-1.708 0.562,-0.605 1.015,-1.246 1.343,-1.917 0.325,-0.668 0.485,-1.344 0.485,-2.024 0,-0.621 -0.129,-1.191 -0.399,-1.707 -0.273,-0.519 -0.664,-0.961 -1.164,-1.336 -0.5,-0.363 -1.101,-0.644 -1.804,-0.848 -0.711,-0.203 -1.504,-0.3 -2.379,-0.3 -0.918,0 -1.852,0.105 -2.797,0.328 -0.946,0.215 -1.856,0.515 -2.731,0.894 -0.879,0.379 -1.703,0.832 -2.472,1.356 -0.766,0.527 -1.438,1.094 -2.012,1.699 -0.57,0.613 -1.02,1.258 -1.344,1.926 -0.332,0.672 -0.496,1.355 -0.496,2.051 z m 2.555,0.328 c -0.031,-0.075 -0.047,-0.184 -0.047,-0.328 0,-0.422 0.137,-0.856 0.414,-1.309 0.266,-0.453 0.633,-0.895 1.102,-1.324 0.46,-0.418 0.996,-0.817 1.613,-1.199 0.613,-0.372 1.265,-0.704 1.961,-0.993 0.687,-0.281 1.398,-0.507 2.133,-0.679 0.726,-0.16 1.437,-0.243 2.121,-0.243 0.488,0 0.933,0.04 1.336,0.122 0.394,0.082 0.734,0.195 1.019,0.339 0.274,0.145 0.492,0.317 0.652,0.52 0.153,0.211 0.231,0.445 0.231,0.703 0,0.422 -0.133,0.852 -0.399,1.297 -0.273,0.445 -0.644,0.875 -1.105,1.297 -0.461,0.43 -0.996,0.836 -1.609,1.215 -0.618,0.379 -1.27,0.715 -1.965,1.004 -0.695,0.293 -1.406,0.519 -2.133,0.679 -0.734,0.172 -1.453,0.254 -2.148,0.254 -0.856,0 -1.567,-0.121 -2.133,-0.363 -0.567,-0.242 -0.914,-0.574 -1.043,-0.992 z" /><path
         id="path5667"
         style="fill:#656565;fill-opacity:1;fill-rule:nonzero;stroke:none"
         d="m 272.984,740.198 5.129,-17.949 -4.621,0.934 0,-51.368 -1.019,0 0,51.368 -4.618,-0.934 5.129,17.949 z m 0.508,-126.011 0,-51.364 4.621,0.934 -5.129,-17.949 -5.129,17.949 4.618,-0.934 0,51.364 1.019,0 z" /><path
         id="path5669"
         style="fill:#656565;fill-opacity:1;fill-rule:nonzero;stroke:none"
         d="m 264.371,308.796 c 0,0.84 0.418,1.258 1.254,1.258 0.832,0 1.25,-0.418 1.25,-1.258 l 0,-6.527 4.059,-1.086 c -0.204,0.621 -0.305,1.261 -0.305,1.921 0,0.614 0.117,1.176 0.34,1.692 0.226,0.523 0.539,0.976 0.945,1.355 0.395,0.387 0.856,0.684 1.391,0.895 0.527,0.219 1.109,0.324 1.738,0.324 0.613,0 1.207,-0.086 1.777,-0.266 0.571,-0.175 1.114,-0.421 1.621,-0.738 0.504,-0.312 0.973,-0.683 1.403,-1.109 0.426,-0.418 0.797,-0.875 1.109,-1.367 0.309,-0.493 0.543,-1.008 0.715,-1.547 0.168,-0.531 0.254,-1.063 0.254,-1.594 0,-0.484 -0.067,-0.949 -0.207,-1.391 -0.145,-0.437 -0.348,-0.832 -0.613,-1.183 -0.27,-0.352 -0.586,-0.653 -0.957,-0.906 -0.379,-0.258 -0.797,-0.454 -1.258,-0.582 -0.16,-0.04 -0.317,-0.063 -0.469,-0.063 -0.156,0 -0.301,0.031 -0.438,0.086 -0.136,0.066 -0.257,0.156 -0.363,0.277 -0.101,0.121 -0.183,0.266 -0.242,0.438 -0.063,0.176 -0.094,0.375 -0.094,0.601 0,0.516 0.309,0.871 0.93,1.063 0.41,0.117 0.719,0.316 0.918,0.609 0.195,0.289 0.289,0.641 0.289,1.051 0,0.305 -0.055,0.621 -0.168,0.941 -0.113,0.321 -0.27,0.633 -0.469,0.93 -0.203,0.309 -0.441,0.594 -0.715,0.859 -0.273,0.274 -0.57,0.512 -0.882,0.715 -0.325,0.2 -0.668,0.36 -1.028,0.481 -0.371,0.121 -0.742,0.183 -1.113,0.183 -0.57,0 -1.031,-0.148 -1.375,-0.449 -0.352,-0.297 -0.523,-0.73 -0.523,-1.305 0,-0.234 0.015,-0.457 0.05,-0.664 0.032,-0.211 0.09,-0.433 0.18,-0.668 0.082,-0.222 0.199,-0.476 0.352,-0.757 0.152,-0.282 0.351,-0.621 0.589,-1.016 0.082,-0.129 0.145,-0.25 0.184,-0.363 0.039,-0.114 0.059,-0.235 0.059,-0.364 0,-0.218 -0.032,-0.406 -0.094,-0.57 -0.067,-0.16 -0.149,-0.297 -0.254,-0.41 -0.106,-0.105 -0.223,-0.18 -0.352,-0.227 -0.129,-0.05 -0.261,-0.074 -0.398,-0.074 -0.074,-0.008 -0.149,-0.008 -0.231,0 -0.078,0.016 -0.168,0.035 -0.253,0.059 l -7.618,2.035 c -0.66,0.129 -0.988,0.543 -0.988,1.242 l 0,7.469 z" /><path
         id="path5671"
         style="fill:#656565;fill-opacity:1;fill-rule:nonzero;stroke:none"
         d="m 268.457,315.472 c 0.637,-0.188 0.953,-0.539 0.953,-1.067 0,-0.465 -0.109,-0.82 -0.328,-1.062 -0.223,-0.242 -0.488,-0.364 -0.785,-0.364 -0.145,0 -0.305,0.024 -0.485,0.075 l -2.523,0.664 c -0.613,0.168 -0.918,0.57 -0.918,1.211 l 0,7.297 c 0,0.832 0.418,1.246 1.254,1.246 0.301,0 0.539,-0.075 0.727,-0.227 l 14.941,-8.766 c 0.453,-0.257 0.676,-0.582 0.676,-0.968 0,-0.192 -0.035,-0.375 -0.11,-0.543 -0.078,-0.172 -0.175,-0.324 -0.289,-0.461 -0.121,-0.129 -0.254,-0.227 -0.398,-0.301 -0.145,-0.07 -0.277,-0.109 -0.399,-0.109 -0.226,0 -0.472,0.078 -0.738,0.23 l -13.16,7.715 0,-4.148 1.582,-0.422 z" /><path
         id="path5673"
         style="fill:#656565;fill-opacity:1;fill-rule:nonzero;stroke:none"
         d="m 264.371,331.823 c 0,0.629 0.137,1.203 0.41,1.719 0.274,0.516 0.664,0.953 1.172,1.316 0.508,0.371 1.113,0.657 1.813,0.86 0.703,0.203 1.476,0.301 2.32,0.301 0.937,0 1.879,-0.114 2.832,-0.34 0.941,-0.215 1.852,-0.52 2.73,-0.907 0.868,-0.375 1.688,-0.832 2.454,-1.363 0.765,-0.523 1.429,-1.094 1.996,-1.707 0.562,-0.601 1.011,-1.238 1.34,-1.91 0.32,-0.668 0.484,-1.34 0.484,-2.016 0,-0.621 -0.133,-1.191 -0.399,-1.707 -0.277,-0.515 -0.664,-0.957 -1.16,-1.328 -0.5,-0.363 -1.101,-0.644 -1.801,-0.844 -0.71,-0.203 -1.5,-0.304 -2.371,-0.304 -0.918,0 -1.847,0.109 -2.793,0.328 -0.941,0.215 -1.847,0.516 -2.718,0.894 -0.879,0.375 -1.703,0.829 -2.465,1.352 -0.766,0.523 -1.438,1.09 -2.008,1.695 -0.57,0.61 -1.019,1.25 -1.34,1.922 -0.332,0.668 -0.496,1.348 -0.496,2.039 z m 2.551,0.328 c -0.035,-0.07 -0.047,-0.179 -0.047,-0.328 0,-0.418 0.133,-0.851 0.41,-1.304 0.266,-0.45 0.629,-0.891 1.098,-1.317 0.461,-0.422 0.996,-0.816 1.609,-1.199 0.61,-0.367 1.262,-0.699 1.957,-0.988 0.684,-0.282 1.395,-0.508 2.129,-0.676 0.723,-0.164 1.43,-0.242 2.113,-0.242 0.485,0 0.926,0.039 1.329,0.121 0.394,0.078 0.734,0.191 1.015,0.336 0.277,0.144 0.492,0.32 0.656,0.519 0.153,0.211 0.227,0.446 0.227,0.703 0,0.418 -0.133,0.848 -0.398,1.293 -0.274,0.442 -0.641,0.875 -1.098,1.293 -0.461,0.426 -0.996,0.832 -1.61,1.207 -0.613,0.383 -1.265,0.715 -1.957,1.004 -0.695,0.289 -1.402,0.516 -2.128,0.676 -0.731,0.172 -1.446,0.254 -2.141,0.254 -0.852,0 -1.563,-0.117 -2.125,-0.359 -0.566,-0.243 -0.91,-0.575 -1.039,-0.993 z" /><path
         id="path5675"
         style="fill:#656565;fill-opacity:1;fill-rule:nonzero;stroke:none"
         d="m 273.492,287.226 0,-179.364 4.621,0.93 -5.129,-17.945 -5.129,17.945 4.618,-0.93 0,179.364 1.019,0 z" /><path
         id="path5677"
         style="fill:#656565;fill-opacity:1;fill-rule:nonzero;stroke:none"
         d="m 273.492,345.421 0,179.363 4.621,-0.933 -5.129,17.945 -5.129,-17.945 4.618,0.933 0,-179.363 1.019,0 z" /><path
         id="path5679"
         style="fill:#656565;fill-opacity:1;fill-rule:nonzero;stroke:none"
         d="m 140.914,765.491 0,-6.058 2.387,0 0,6.058 -2.387,0 z m 0,-9.652 0,-6.082 2.387,0 0,6.082 -2.387,0 z m 0,-9.688 0,-6.086 2.387,0 0,6.086 -2.387,0 z m 0,-9.683 0,-6.09 2.387,0 0,6.09 -2.387,0 z m 0,-9.692 0,-6.093 2.387,0 0,6.093 -2.387,0 z m 0,-9.683 0,-6.086 2.387,0 0,6.086 -2.387,0 z m 0,-9.684 0,-6.094 2.387,0 0,6.094 -2.387,0 z m 0,-9.691 0,-6.09 2.387,0 0,6.09 -2.387,0 z m 0,-9.692 0,-3.539 2.387,0 0,3.539 -2.387,0 z" /><path
         id="path5681"
         style="fill:#656565;fill-opacity:1;fill-rule:nonzero;stroke:none"
         d="m 170.527,765.491 0,-6.058 2.387,0 0,6.058 -2.387,0 z m 0,-9.652 0,-6.082 2.387,0 0,6.082 -2.387,0 z m 0,-9.688 0,-6.086 2.387,0 0,6.086 -2.387,0 z m 0,-9.683 0,-6.09 2.387,0 0,6.09 -2.387,0 z m 0,-9.692 0,-6.093 2.387,0 0,6.093 -2.387,0 z m 0,-9.683 0,-6.086 2.387,0 0,6.086 -2.387,0 z m 0,-9.684 0,-6.094 2.387,0 0,6.094 -2.387,0 z m 0,-9.691 0,-6.09 2.387,0 0,6.09 -2.387,0 z m 0,-9.692 0,-3.539 2.387,0 0,3.539 -2.387,0 z" /><path
         id="path5683"
         style="fill:#656565;fill-opacity:1;fill-rule:nonzero;stroke:none"
         d="m 119.297,753.21 5.391,0 -0.934,4.625 16.348,-5.133 -16.348,-5.129 0.934,4.617 -5.391,0 0,1.02 z" /><path
         id="path5685"
         style="fill:#656565;fill-opacity:1;fill-rule:nonzero;stroke:none"
         d="m 194.527,753.21 -5.386,0 0.933,4.625 -16.347,-5.133 16.347,-5.129 -0.933,4.617 5.386,0 0,1.02 z" /><path
         id="path5687"
         style="fill:#656565;fill-opacity:1;fill-rule:nonzero;stroke:none"
         d="m 152.551,751.753 c 0.168,0.625 0.527,0.941 1.074,0.941 0.465,0 0.816,-0.113 1.051,-0.336 0.242,-0.222 0.359,-0.476 0.359,-0.773 0,-0.148 -0.023,-0.301 -0.07,-0.461 l -0.41,-1.605 c 0.675,-0.129 1.015,-0.536 1.015,-1.219 0,-0.836 -0.418,-1.254 -1.246,-1.254 l -0.422,0 -0.566,-2.188 c -0.16,-0.636 -0.516,-0.953 -1.063,-0.953 -0.468,0 -0.82,0.11 -1.062,0.328 -0.234,0.223 -0.352,0.485 -0.352,0.782 0,0.074 0.004,0.144 0.012,0.218 0.008,0.082 0.024,0.164 0.047,0.254 l 0.414,1.559 -5.797,0 c -0.215,0 -0.41,0.039 -0.578,0.117 -0.168,0.082 -0.316,0.184 -0.445,0.305 -0.121,0.121 -0.215,0.246 -0.282,0.386 -0.054,0.137 -0.082,0.27 -0.082,0.399 0.008,0.129 0.036,0.262 0.082,0.394 0.051,0.149 0.129,0.29 0.247,0.426 l 9.437,11.903 c 0.289,0.351 0.606,0.531 0.941,0.531 0.168,0 0.336,-0.039 0.497,-0.121 0.16,-0.082 0.304,-0.184 0.433,-0.313 0.129,-0.129 0.231,-0.273 0.313,-0.426 0.082,-0.144 0.121,-0.285 0.121,-0.421 0,-0.258 -0.106,-0.528 -0.324,-0.809 l -7.86,-9.863 3.938,0 0.578,2.199 z" /><path
         id="path5689"
         style="fill:#656565;fill-opacity:1;fill-rule:nonzero;stroke:none"
         d="m 165.492,761.444 c 0.625,0 1.199,-0.132 1.711,-0.41 0.516,-0.269 0.957,-0.66 1.32,-1.172 0.368,-0.504 0.653,-1.109 0.856,-1.808 0.199,-0.7 0.301,-1.473 0.301,-2.317 0,-0.933 -0.114,-1.875 -0.34,-2.828 -0.215,-0.937 -0.516,-1.847 -0.902,-2.726 -0.379,-0.868 -0.833,-1.688 -1.368,-2.45 -0.519,-0.765 -1.09,-1.429 -1.699,-1.992 -0.605,-0.562 -1.238,-1.012 -1.91,-1.34 -0.664,-0.324 -1.336,-0.484 -2.012,-0.484 -0.621,0 -1.191,0.133 -1.703,0.398 -0.516,0.274 -0.957,0.661 -1.328,1.161 -0.363,0.496 -0.645,1.097 -0.844,1.796 -0.203,0.711 -0.304,1.5 -0.304,2.368 0,0.918 0.109,1.847 0.328,2.789 0.214,0.941 0.515,1.847 0.89,2.715 0.379,0.878 0.828,1.699 1.352,2.464 0.523,0.762 1.09,1.43 1.691,2.004 0.614,0.571 1.25,1.016 1.922,1.34 0.664,0.328 1.348,0.492 2.039,0.492 z m 0.324,-2.547 c -0.07,0.032 -0.179,0.051 -0.324,0.051 -0.422,0 -0.851,-0.136 -1.304,-0.414 -0.45,-0.262 -0.891,-0.629 -1.317,-1.097 -0.418,-0.458 -0.816,-0.993 -1.195,-1.606 -0.371,-0.609 -0.699,-1.262 -0.988,-1.953 -0.282,-0.684 -0.508,-1.395 -0.676,-2.125 -0.16,-0.723 -0.242,-1.43 -0.242,-2.113 0,-0.481 0.039,-0.926 0.121,-1.328 0.078,-0.395 0.191,-0.731 0.336,-1.016 0.148,-0.27 0.32,-0.488 0.519,-0.652 0.211,-0.153 0.445,-0.227 0.703,-0.227 0.418,0 0.848,0.133 1.289,0.398 0.442,0.274 0.875,0.637 1.293,1.098 0.426,0.461 0.828,0.992 1.207,1.606 0.379,0.613 0.711,1.261 1,1.957 0.289,0.691 0.516,1.398 0.676,2.125 0.172,0.73 0.254,1.441 0.254,2.136 0,0.852 -0.121,1.563 -0.359,2.121 -0.243,0.567 -0.575,0.911 -0.993,1.039 z" /><path
         id="path5691"
         style="fill:#656565;fill-opacity:1;fill-rule:nonzero;stroke:none"
         d="m 86.027,756.241 c 0,0.848 0.418,1.274 1.25,1.274 0.84,0 1.262,-0.426 1.262,-1.274 l 0,-7.504 c 0,-0.832 -0.422,-1.246 -1.262,-1.246 -0.386,0 -0.707,0.145 -0.957,0.434 l -8.996,9.152 c -0.347,0.356 -0.715,0.633 -1.101,0.824 -0.387,0.203 -0.797,0.305 -1.227,0.305 -0.488,0 -0.871,-0.152 -1.141,-0.449 -0.273,-0.297 -0.41,-0.699 -0.41,-1.199 0,-0.309 0.055,-0.618 0.157,-0.934 0.105,-0.305 0.253,-0.605 0.437,-0.898 0.188,-0.282 0.402,-0.543 0.656,-0.786 0.243,-0.238 0.5,-0.433 0.778,-0.597 0.449,-0.266 0.675,-0.598 0.675,-0.992 0,-0.196 -0.035,-0.375 -0.109,-0.547 -0.078,-0.168 -0.176,-0.317 -0.289,-0.446 -0.113,-0.129 -0.238,-0.234 -0.375,-0.316 -0.148,-0.082 -0.285,-0.121 -0.414,-0.121 -0.25,0 -0.52,0.082 -0.813,0.242 -0.293,0.16 -0.578,0.367 -0.859,0.617 -0.293,0.25 -0.562,0.524 -0.812,0.824 -0.25,0.309 -0.461,0.594 -0.629,0.864 -0.61,0.984 -0.91,2.015 -0.91,3.09 0,0.574 0.097,1.109 0.3,1.613 0.196,0.5 0.477,0.941 0.836,1.32 0.356,0.379 0.785,0.68 1.289,0.895 0.492,0.226 1.035,0.34 1.633,0.34 0.352,0 0.707,-0.043 1.066,-0.133 0.36,-0.078 0.715,-0.203 1.083,-0.364 0.355,-0.16 0.703,-0.359 1.039,-0.593 0.332,-0.235 0.648,-0.496 0.949,-0.789 l 6.894,-7.028 0,4.422 z" /><path
         id="path5693"
         style="fill:#656565;fill-opacity:1;fill-rule:nonzero;stroke:none"
         d="m 70.938,769.163 c 0,0.629 0.136,1.207 0.41,1.723 0.273,0.515 0.668,0.957 1.179,1.32 0.508,0.371 1.114,0.66 1.817,0.863 0.703,0.2 1.476,0.301 2.328,0.301 0.937,0 1.883,-0.113 2.836,-0.34 0.945,-0.218 1.859,-0.519 2.738,-0.906 0.875,-0.383 1.695,-0.836 2.461,-1.371 0.766,-0.527 1.434,-1.094 2,-1.711 0.566,-0.605 1.016,-1.242 1.348,-1.914 0.32,-0.672 0.484,-1.348 0.484,-2.024 0,-0.625 -0.133,-1.191 -0.402,-1.71 -0.274,-0.516 -0.66,-0.961 -1.164,-1.332 -0.5,-0.364 -1.102,-0.649 -1.805,-0.848 -0.711,-0.203 -1.504,-0.305 -2.375,-0.305 -0.922,0 -1.855,0.11 -2.801,0.328 -0.945,0.219 -1.855,0.516 -2.726,0.899 -0.883,0.379 -1.707,0.832 -2.473,1.355 -0.77,0.528 -1.441,1.09 -2.012,1.696 -0.578,0.617 -1.023,1.257 -1.347,1.929 -0.332,0.668 -0.496,1.352 -0.496,2.047 z m 2.558,0.328 c -0.035,-0.074 -0.051,-0.183 -0.051,-0.328 0,-0.418 0.137,-0.855 0.41,-1.309 0.27,-0.453 0.637,-0.89 1.106,-1.32 0.461,-0.422 1,-0.82 1.613,-1.199 0.614,-0.375 1.27,-0.703 1.961,-0.996 0.688,-0.281 1.399,-0.508 2.133,-0.676 0.73,-0.164 1.437,-0.246 2.125,-0.246 0.484,0 0.93,0.043 1.332,0.121 0.398,0.082 0.734,0.195 1.02,0.34 0.273,0.144 0.492,0.32 0.652,0.523 0.156,0.207 0.23,0.442 0.23,0.703 0,0.418 -0.132,0.852 -0.398,1.297 -0.274,0.442 -0.645,0.875 -1.102,1.297 -0.461,0.426 -1,0.832 -1.613,1.211 -0.617,0.379 -1.269,0.715 -1.965,1.008 -0.695,0.289 -1.406,0.516 -2.133,0.68 -0.738,0.168 -1.453,0.254 -2.144,0.254 -0.86,0 -1.57,-0.122 -2.133,-0.368 -0.566,-0.238 -0.914,-0.57 -1.043,-0.992 z" /><path
         id="path5695"
         style="fill:#656565;fill-opacity:1;fill-rule:nonzero;stroke:none"
         d="m 70.938,783.272 c 0,0.633 0.136,1.207 0.41,1.723 0.273,0.52 0.668,0.957 1.179,1.32 0.508,0.375 1.114,0.661 1.817,0.864 0.703,0.199 1.476,0.3 2.328,0.3 0.937,0 1.883,-0.113 2.836,-0.339 0.945,-0.215 1.859,-0.52 2.738,-0.907 0.875,-0.379 1.695,-0.836 2.461,-1.371 0.766,-0.527 1.434,-1.093 2,-1.711 0.566,-0.605 1.016,-1.242 1.348,-1.914 0.32,-0.672 0.484,-1.347 0.484,-2.023 0,-0.625 -0.133,-1.192 -0.402,-1.711 -0.274,-0.516 -0.66,-0.961 -1.164,-1.332 -0.5,-0.363 -1.102,-0.649 -1.805,-0.848 -0.711,-0.203 -1.504,-0.304 -2.375,-0.304 -0.922,0 -1.855,0.109 -2.801,0.328 -0.945,0.218 -1.855,0.515 -2.726,0.898 -0.883,0.379 -1.707,0.832 -2.473,1.356 -0.77,0.527 -1.441,1.089 -2.012,1.699 -0.578,0.613 -1.023,1.254 -1.347,1.926 -0.332,0.668 -0.496,1.351 -0.496,2.046 z m 2.558,0.329 c -0.035,-0.071 -0.051,-0.18 -0.051,-0.329 0,-0.418 0.137,-0.855 0.41,-1.308 0.27,-0.453 0.637,-0.891 1.106,-1.32 0.461,-0.422 1,-0.821 1.613,-1.2 0.614,-0.371 1.27,-0.703 1.961,-0.996 0.688,-0.281 1.399,-0.508 2.133,-0.676 0.73,-0.164 1.437,-0.246 2.125,-0.246 0.484,0 0.93,0.043 1.332,0.121 0.398,0.082 0.734,0.196 1.02,0.34 0.273,0.145 0.492,0.321 0.652,0.524 0.156,0.207 0.23,0.445 0.23,0.703 0,0.418 -0.132,0.851 -0.398,1.297 -0.274,0.441 -0.645,0.875 -1.102,1.297 -0.461,0.429 -1,0.832 -1.613,1.211 -0.617,0.378 -1.269,0.714 -1.965,1.007 -0.695,0.289 -1.406,0.516 -2.133,0.68 -0.738,0.168 -1.453,0.254 -2.144,0.254 -0.86,0 -1.57,-0.121 -2.133,-0.363 -0.566,-0.243 -0.914,-0.575 -1.043,-0.996 z" /><path
         id="path5697"
         style="fill:#656565;fill-opacity:1;fill-rule:nonzero;stroke:none"
         d="m 78.836,846.718 -5.137,-17.946 4.625,0.934 0,-32.504 1.024,0 0,32.504 4.617,-0.934 -5.129,17.946 z" /><path
         id="path5699"
         style="fill:#656565;fill-opacity:1;fill-rule:nonzero;stroke:none"
         d="m 78.836,688.253 -5.137,17.945 4.625,-0.933 0,34.105 1.024,0 0,-34.105 4.617,0.933 -5.129,-17.945 z" /><path
         id="path5701"
         style="fill:#656565;fill-opacity:1;fill-rule:nonzero;stroke:none"
         d="m 78.836,890.222 -5.137,17.949 4.625,-0.934 0,8.5 1.024,0 0,-8.5 4.617,0.934 -5.129,-17.949 z" /><path
         id="path5703"
         style="fill:#656565;fill-opacity:1;fill-rule:nonzero;stroke:none"
         d="m 77.699,877.272 c 0.84,0 1.262,-0.421 1.262,-1.265 0,-0.828 -0.422,-1.246 -1.262,-1.246 l -6.543,0 -1.09,-4.071 c 0.622,0.2 1.266,0.301 1.926,0.301 0.613,0 1.18,-0.113 1.696,-0.34 0.527,-0.222 0.98,-0.539 1.359,-0.945 0.387,-0.394 0.687,-0.859 0.894,-1.391 0.223,-0.535 0.329,-1.117 0.329,-1.746 0,-0.617 -0.086,-1.207 -0.266,-1.785 -0.176,-0.57 -0.422,-1.113 -0.738,-1.621 -0.317,-0.512 -0.688,-0.976 -1.114,-1.406 -0.422,-0.43 -0.879,-0.801 -1.371,-1.117 -0.496,-0.305 -1.011,-0.543 -1.551,-0.715 -0.535,-0.168 -1.066,-0.254 -1.601,-0.254 -0.484,0 -0.949,0.07 -1.395,0.207 -0.437,0.144 -0.832,0.351 -1.187,0.617 -0.348,0.27 -0.649,0.586 -0.906,0.957 -0.262,0.383 -0.453,0.801 -0.582,1.262 -0.043,0.16 -0.063,0.32 -0.063,0.473 0,0.152 0.027,0.3 0.086,0.433 0.063,0.141 0.156,0.262 0.277,0.367 0.121,0.106 0.266,0.184 0.438,0.242 0.176,0.063 0.379,0.098 0.605,0.098 0.516,0 0.871,-0.312 1.067,-0.937 0.113,-0.411 0.312,-0.715 0.605,-0.918 0.293,-0.196 0.645,-0.293 1.055,-0.293 0.309,0 0.621,0.058 0.945,0.172 0.324,0.113 0.633,0.269 0.934,0.472 0.308,0.203 0.594,0.438 0.863,0.715 0.274,0.274 0.512,0.566 0.715,0.887 0.199,0.32 0.359,0.664 0.484,1.027 0.118,0.371 0.18,0.742 0.18,1.117 0,0.575 -0.148,1.035 -0.449,1.379 -0.297,0.348 -0.735,0.524 -1.309,0.524 -0.234,0 -0.457,-0.02 -0.664,-0.051 -0.215,-0.031 -0.433,-0.094 -0.668,-0.18 -0.226,-0.082 -0.48,-0.199 -0.765,-0.351 -0.282,-0.153 -0.622,-0.352 -1.016,-0.594 -0.133,-0.082 -0.25,-0.145 -0.367,-0.184 -0.11,-0.039 -0.231,-0.058 -0.36,-0.058 -0.222,0 -0.41,0.031 -0.57,0.097 -0.164,0.063 -0.301,0.149 -0.414,0.254 -0.106,0.102 -0.184,0.223 -0.23,0.352 -0.051,0.129 -0.075,0.262 -0.075,0.398 -0.004,0.074 -0.004,0.149 0,0.231 0.02,0.082 0.039,0.164 0.063,0.254 l 2.039,7.636 c 0.129,0.664 0.543,0.996 1.246,0.996 l 7.488,0 z" /><path
         id="path5705"
         style="fill:#656565;fill-opacity:1;fill-rule:nonzero;stroke:none"
         d="m 87.168,877.272 c 0.629,0 1.203,-0.14 1.719,-0.414 0.519,-0.273 0.961,-0.668 1.324,-1.175 0.371,-0.508 0.656,-1.114 0.859,-1.817 0.203,-0.707 0.305,-1.48 0.305,-2.328 0,-0.937 -0.117,-1.883 -0.34,-2.836 -0.219,-0.945 -0.523,-1.859 -0.91,-2.742 -0.379,-0.871 -0.836,-1.691 -1.371,-2.457 -0.524,-0.77 -1.094,-1.438 -1.707,-2 -0.606,-0.566 -1.246,-1.016 -1.914,-1.348 -0.672,-0.324 -1.348,-0.484 -2.024,-0.484 -0.625,0 -1.195,0.133 -1.711,0.402 -0.519,0.274 -0.96,0.66 -1.336,1.16 -0.363,0.504 -0.644,1.106 -0.847,1.809 -0.199,0.711 -0.301,1.5 -0.301,2.375 0,0.922 0.106,1.855 0.328,2.801 0.215,0.945 0.516,1.855 0.895,2.726 0.379,0.879 0.832,1.703 1.359,2.469 0.524,0.77 1.09,1.441 1.695,2.016 0.614,0.574 1.258,1.023 1.926,1.343 0.672,0.332 1.356,0.5 2.051,0.5 z m 0.324,-2.558 c -0.07,0.031 -0.18,0.047 -0.324,0.047 -0.422,0 -0.856,-0.137 -1.309,-0.41 -0.453,-0.27 -0.894,-0.637 -1.324,-1.102 -0.418,-0.461 -0.816,-1 -1.199,-1.617 -0.371,-0.613 -0.703,-1.266 -0.992,-1.961 -0.282,-0.688 -0.508,-1.399 -0.68,-2.133 -0.16,-0.726 -0.242,-1.434 -0.242,-2.121 0,-0.484 0.039,-0.93 0.121,-1.336 0.082,-0.394 0.195,-0.734 0.34,-1.016 0.144,-0.273 0.316,-0.492 0.519,-0.656 0.211,-0.152 0.446,-0.23 0.707,-0.23 0.418,0 0.852,0.136 1.297,0.402 0.442,0.273 0.875,0.641 1.297,1.102 0.426,0.461 0.828,1 1.211,1.613 0.379,0.613 0.715,1.269 1.004,1.961 0.293,0.695 0.516,1.406 0.68,2.137 0.168,0.734 0.254,1.449 0.254,2.144 0,0.856 -0.122,1.566 -0.364,2.133 -0.242,0.566 -0.574,0.91 -0.996,1.043 z" /><path
         id="path5707"
         style="fill:#656565;fill-opacity:1;fill-rule:nonzero;stroke:none"
         d="m 70.938,281.304 c 0,0.84 0.421,1.261 1.261,1.261 0.832,0 1.246,-0.421 1.246,-1.261 l 0,-6.543 4.075,-1.094 c -0.204,0.625 -0.305,1.266 -0.305,1.93 0,0.613 0.113,1.179 0.34,1.695 0.226,0.527 0.543,0.98 0.945,1.359 0.395,0.387 0.863,0.688 1.395,0.895 0.535,0.223 1.117,0.328 1.746,0.328 0.613,0 1.207,-0.086 1.781,-0.266 0.574,-0.179 1.113,-0.425 1.625,-0.738 0.508,-0.316 0.976,-0.687 1.406,-1.117 0.43,-0.422 0.801,-0.875 1.117,-1.367 0.305,-0.496 0.543,-1.012 0.715,-1.555 0.168,-0.531 0.254,-1.066 0.254,-1.598 0,-0.484 -0.07,-0.953 -0.207,-1.394 -0.144,-0.438 -0.352,-0.832 -0.621,-1.192 -0.262,-0.343 -0.586,-0.648 -0.953,-0.906 -0.379,-0.262 -0.801,-0.453 -1.262,-0.582 -0.16,-0.039 -0.32,-0.062 -0.473,-0.062 -0.156,0 -0.3,0.031 -0.437,0.086 -0.137,0.066 -0.258,0.16 -0.363,0.277 -0.106,0.121 -0.184,0.269 -0.243,0.437 -0.062,0.18 -0.097,0.383 -0.097,0.606 0,0.519 0.312,0.875 0.933,1.066 0.414,0.118 0.719,0.317 0.922,0.606 0.192,0.293 0.289,0.644 0.289,1.058 0,0.305 -0.054,0.621 -0.168,0.946 -0.113,0.324 -0.269,0.633 -0.472,0.933 -0.203,0.309 -0.442,0.594 -0.715,0.86 -0.274,0.273 -0.57,0.515 -0.883,0.715 -0.328,0.203 -0.668,0.363 -1.035,0.488 -0.367,0.117 -0.742,0.179 -1.113,0.179 -0.575,0 -1.036,-0.148 -1.383,-0.449 -0.348,-0.301 -0.52,-0.738 -0.52,-1.308 0,-0.235 0.016,-0.457 0.047,-0.668 0.031,-0.211 0.094,-0.434 0.184,-0.668 0.082,-0.227 0.195,-0.481 0.351,-0.762 0.153,-0.285 0.352,-0.621 0.594,-1.02 0.082,-0.128 0.141,-0.25 0.18,-0.363 0.043,-0.113 0.062,-0.234 0.062,-0.363 0,-0.219 -0.031,-0.406 -0.097,-0.57 -0.063,-0.161 -0.149,-0.301 -0.254,-0.411 -0.106,-0.105 -0.223,-0.183 -0.352,-0.23 -0.129,-0.051 -0.265,-0.074 -0.398,-0.074 -0.075,-0.008 -0.153,-0.008 -0.231,0 -0.082,0.019 -0.168,0.035 -0.254,0.062 l -7.64,2.035 c -0.664,0.129 -0.992,0.547 -0.992,1.25 l 0,7.489 z" /><path
         id="path5709"
         style="fill:#656565;fill-opacity:1;fill-rule:nonzero;stroke:none"
         d="m 70.938,290.772 c 0,0.629 0.136,1.204 0.41,1.723 0.273,0.516 0.668,0.957 1.179,1.32 0.508,0.372 1.114,0.657 1.817,0.86 0.703,0.203 1.476,0.304 2.328,0.304 0.937,0 1.883,-0.113 2.836,-0.339 0.945,-0.219 1.859,-0.524 2.738,-0.911 0.875,-0.378 1.695,-0.835 2.461,-1.371 0.766,-0.523 1.434,-1.093 2,-1.707 0.566,-0.605 1.016,-1.246 1.348,-1.914 0.32,-0.672 0.484,-1.347 0.484,-2.027 0,-0.621 -0.133,-1.191 -0.402,-1.707 -0.274,-0.52 -0.66,-0.961 -1.164,-1.336 -0.5,-0.363 -1.102,-0.645 -1.805,-0.848 -0.711,-0.199 -1.504,-0.3 -2.375,-0.3 -0.922,0 -1.855,0.105 -2.801,0.328 -0.945,0.215 -1.855,0.515 -2.726,0.894 -0.883,0.379 -1.707,0.832 -2.473,1.36 -0.77,0.523 -1.441,1.089 -2.012,1.695 -0.578,0.613 -1.023,1.258 -1.347,1.926 -0.332,0.672 -0.496,1.355 -0.496,2.05 z m 2.558,0.329 c -0.035,-0.075 -0.051,-0.184 -0.051,-0.329 0,-0.421 0.137,-0.855 0.41,-1.308 0.27,-0.453 0.637,-0.895 1.106,-1.324 0.461,-0.418 1,-0.817 1.613,-1.2 0.614,-0.371 1.27,-0.703 1.961,-0.992 0.688,-0.281 1.399,-0.508 2.133,-0.679 0.73,-0.161 1.437,-0.243 2.125,-0.243 0.484,0 0.93,0.039 1.332,0.121 0.398,0.082 0.734,0.196 1.02,0.34 0.273,0.145 0.492,0.321 0.652,0.52 0.156,0.211 0.23,0.445 0.23,0.703 0,0.422 -0.132,0.855 -0.398,1.297 -0.274,0.445 -0.645,0.879 -1.102,1.297 -0.461,0.429 -1,0.836 -1.613,1.215 -0.617,0.378 -1.269,0.714 -1.965,1.003 -0.695,0.293 -1.406,0.52 -2.133,0.68 -0.738,0.172 -1.453,0.254 -2.144,0.254 -0.86,0 -1.57,-0.121 -2.133,-0.359 -0.566,-0.246 -0.914,-0.578 -1.043,-0.996 z" /><path
         id="path5711"
         style="fill:#656565;fill-opacity:1;fill-rule:nonzero;stroke:none"
         d="m 70.938,304.882 c 0,0.633 0.136,1.203 0.41,1.722 0.273,0.516 0.668,0.958 1.179,1.321 0.508,0.371 1.114,0.66 1.817,0.859 0.703,0.203 1.476,0.305 2.328,0.305 0.937,0 1.883,-0.113 2.836,-0.34 0.945,-0.219 1.859,-0.52 2.738,-0.91 0.875,-0.379 1.695,-0.836 2.461,-1.367 0.766,-0.524 1.434,-1.098 2,-1.711 0.566,-0.606 1.016,-1.246 1.348,-1.914 0.32,-0.672 0.484,-1.344 0.484,-2.024 0,-0.621 -0.133,-1.195 -0.402,-1.711 -0.274,-0.515 -0.66,-0.961 -1.164,-1.332 -0.5,-0.363 -1.102,-0.648 -1.805,-0.851 -0.711,-0.2 -1.504,-0.301 -2.375,-0.301 -0.922,0 -1.855,0.109 -2.801,0.328 -0.945,0.219 -1.855,0.516 -2.726,0.895 -0.883,0.378 -1.707,0.832 -2.473,1.359 -0.77,0.523 -1.441,1.09 -2.012,1.695 -0.578,0.617 -1.023,1.258 -1.347,1.926 -0.332,0.676 -0.496,1.356 -0.496,2.051 z m 2.558,0.328 c -0.035,-0.07 -0.051,-0.18 -0.051,-0.328 0,-0.422 0.137,-0.856 0.41,-1.309 0.27,-0.453 0.637,-0.894 1.106,-1.32 0.461,-0.422 1,-0.82 1.613,-1.203 0.614,-0.367 1.27,-0.699 1.961,-0.992 0.688,-0.282 1.399,-0.508 2.133,-0.68 0.73,-0.16 1.437,-0.242 2.125,-0.242 0.484,0 0.93,0.039 1.332,0.125 0.398,0.078 0.734,0.191 1.02,0.336 0.273,0.148 0.492,0.32 0.652,0.523 0.156,0.211 0.23,0.445 0.23,0.703 0,0.418 -0.132,0.852 -0.398,1.297 -0.274,0.445 -0.645,0.875 -1.102,1.297 -0.461,0.426 -1,0.832 -1.613,1.211 -0.617,0.383 -1.269,0.715 -1.965,1.004 -0.695,0.293 -1.406,0.519 -2.133,0.68 -0.738,0.171 -1.453,0.253 -2.144,0.253 -0.86,0 -1.57,-0.121 -2.133,-0.359 -0.566,-0.246 -0.914,-0.578 -1.043,-0.996 z" /><path
         id="path5713"
         style="fill:#656565;fill-opacity:1;fill-rule:nonzero;stroke:none"
         d="m 78.863,487.343 -5.129,-17.946 4.618,0.93 0,-150.504 1.019,0 0,150.504 4.625,-0.93 -5.133,17.946 z m -0.511,-228.977 0,-150.508 -4.618,0.934 5.129,-17.945 5.133,17.945 -4.625,-0.934 0,150.508 -1.019,0 z" /><path
         id="path5715"
         style="fill:#656565;fill-opacity:1;fill-rule:nonzero;stroke:none"
         d="m 39.922,447.354 c -0.129,-0.027 -0.25,-0.039 -0.363,-0.039 -0.332,0 -0.606,0.118 -0.825,0.352 -0.218,0.234 -0.324,0.582 -0.324,1.043 0,0.582 0.336,0.945 1.016,1.09 0.203,0.051 0.355,0.203 0.461,0.461 0.097,0.258 0.144,0.554 0.144,0.886 0,0.356 -0.093,0.735 -0.277,1.141 -0.195,0.41 -0.469,0.82 -0.824,1.234 -0.356,0.415 -0.789,0.817 -1.297,1.211 -0.512,0.399 -1.082,0.766 -1.723,1.106 0.235,-0.738 0.352,-1.563 0.352,-2.473 0,-0.695 -0.094,-1.332 -0.289,-1.914 -0.203,-0.586 -0.489,-1.086 -0.864,-1.504 -0.379,-0.414 -0.836,-0.734 -1.371,-0.972 -0.539,-0.227 -1.148,-0.34 -1.828,-0.34 -0.547,0 -1.09,0.07 -1.625,0.207 -0.531,0.136 -1.035,0.32 -1.512,0.547 -0.48,0.234 -0.918,0.507 -1.324,0.824 -0.41,0.316 -0.769,0.656 -1.078,1.031 -0.953,1.16 -1.43,2.551 -1.43,4.168 0,0.688 0.114,1.301 0.34,1.844 0.227,0.551 0.555,1.012 0.992,1.394 0.43,0.387 0.957,0.684 1.59,0.883 0.629,0.211 1.348,0.317 2.157,0.317 0.582,0 1.207,-0.055 1.878,-0.161 0.668,-0.093 1.391,-0.246 2.161,-0.445 0.757,-0.211 1.496,-0.476 2.214,-0.801 0.711,-0.316 1.383,-0.679 2.012,-1.09 0.625,-0.414 1.195,-0.863 1.723,-1.347 0.527,-0.477 0.972,-0.981 1.347,-1.516 0.372,-0.531 0.661,-1.082 0.872,-1.648 0.211,-0.567 0.316,-1.133 0.316,-1.696 0,-0.476 -0.063,-0.933 -0.184,-1.371 -0.121,-0.429 -0.293,-0.808 -0.519,-1.14 -0.227,-0.332 -0.504,-0.61 -0.824,-0.836 -0.332,-0.215 -0.696,-0.367 -1.094,-0.446 z m -8.434,9.868 c -0.472,0.078 -0.961,0.121 -1.468,0.121 -0.872,0 -1.52,-0.149 -1.938,-0.438 -0.422,-0.285 -0.633,-0.781 -0.633,-1.492 0,-1.035 0.301,-1.906 0.899,-2.617 0.59,-0.711 1.449,-1.219 2.582,-1.527 0.152,-0.043 0.308,-0.075 0.461,-0.098 0.144,-0.016 0.3,-0.024 0.461,-0.024 0.621,0 1.093,0.176 1.418,0.532 0.324,0.355 0.484,0.875 0.484,1.554 0,0.418 -0.027,0.821 -0.086,1.211 -0.063,0.395 -0.176,0.762 -0.34,1.102 -0.168,0.351 -0.398,0.664 -0.691,0.945 -0.289,0.281 -0.66,0.524 -1.114,0.715 l -0.023,0 c 0,0.012 -0.004,0.012 -0.012,0.012 l 0,0.004 z" /><path
         id="path5717"
         style="fill:#656565;fill-opacity:1;fill-rule:nonzero;stroke:none"
         d="m 24.941,473.101 c 0,0.839 0.422,1.257 1.262,1.257 0.832,0 1.246,-0.418 1.246,-1.257 l 0,-6.547 4.074,-1.09 c -0.203,0.621 -0.304,1.265 -0.304,1.926 0,0.613 0.113,1.179 0.34,1.699 0.226,0.523 0.543,0.976 0.945,1.355 0.394,0.387 0.863,0.688 1.394,0.895 0.536,0.223 1.118,0.328 1.747,0.328 0.613,0 1.207,-0.086 1.781,-0.262 0.574,-0.179 1.113,-0.426 1.625,-0.742 0.508,-0.316 0.98,-0.687 1.406,-1.113 0.426,-0.422 0.801,-0.879 1.113,-1.371 0.309,-0.492 0.547,-1.012 0.715,-1.551 0.172,-0.535 0.258,-1.066 0.258,-1.602 0,-0.484 -0.07,-0.949 -0.207,-1.394 -0.145,-0.434 -0.352,-0.832 -0.617,-1.188 -0.266,-0.347 -0.586,-0.648 -0.957,-0.91 -0.383,-0.258 -0.801,-0.449 -1.262,-0.582 -0.164,-0.039 -0.32,-0.058 -0.477,-0.058 -0.152,0 -0.296,0.027 -0.433,0.085 -0.137,0.063 -0.258,0.157 -0.363,0.278 -0.106,0.121 -0.188,0.265 -0.243,0.437 -0.066,0.176 -0.097,0.379 -0.097,0.606 0,0.515 0.312,0.871 0.933,1.066 0.41,0.113 0.719,0.317 0.922,0.606 0.192,0.293 0.293,0.644 0.293,1.054 0,0.309 -0.058,0.621 -0.172,0.946 -0.113,0.324 -0.269,0.632 -0.472,0.933 -0.203,0.309 -0.442,0.594 -0.715,0.864 -0.274,0.273 -0.571,0.511 -0.887,0.714 -0.32,0.2 -0.668,0.36 -1.031,0.485 -0.371,0.121 -0.742,0.179 -1.113,0.179 -0.575,0 -1.036,-0.148 -1.383,-0.449 -0.348,-0.297 -0.524,-0.734 -0.524,-1.308 0,-0.235 0.02,-0.457 0.051,-0.664 0.035,-0.211 0.094,-0.434 0.184,-0.668 0.082,-0.227 0.195,-0.481 0.347,-0.766 0.157,-0.281 0.356,-0.621 0.598,-1.02 0.082,-0.128 0.141,-0.25 0.184,-0.363 0.039,-0.109 0.058,-0.23 0.058,-0.359 0,-0.223 -0.031,-0.41 -0.098,-0.574 -0.062,-0.161 -0.148,-0.297 -0.253,-0.411 -0.106,-0.105 -0.223,-0.179 -0.352,-0.23 -0.129,-0.047 -0.266,-0.074 -0.398,-0.074 -0.075,-0.004 -0.153,-0.004 -0.231,0 -0.082,0.019 -0.168,0.039 -0.254,0.062 l -7.64,2.035 c -0.664,0.133 -0.993,0.547 -0.993,1.25 l 0,7.493 z" /><path
         id="path5719"
         style="fill:#656565;fill-opacity:1;fill-rule:nonzero;stroke:none"
         d="m 24.941,482.565 c 0,0.633 0.137,1.204 0.411,1.723 0.273,0.516 0.668,0.957 1.175,1.324 0.512,0.367 1.118,0.657 1.821,0.86 0.703,0.199 1.476,0.3 2.328,0.3 0.937,0 1.883,-0.113 2.832,-0.339 0.949,-0.219 1.859,-0.52 2.742,-0.911 0.871,-0.378 1.695,-0.835 2.461,-1.367 0.769,-0.523 1.434,-1.097 2,-1.711 0.566,-0.605 1.016,-1.242 1.344,-1.914 0.324,-0.672 0.488,-1.343 0.488,-2.023 0,-0.621 -0.137,-1.195 -0.402,-1.711 -0.274,-0.516 -0.661,-0.961 -1.164,-1.332 -0.5,-0.363 -1.102,-0.649 -1.805,-0.848 -0.711,-0.203 -1.504,-0.304 -2.375,-0.304 -0.922,0 -1.856,0.109 -2.801,0.328 -0.945,0.218 -1.855,0.515 -2.726,0.894 -0.883,0.379 -1.708,0.832 -2.473,1.36 -0.77,0.523 -1.442,1.089 -2.012,1.699 -0.574,0.613 -1.023,1.254 -1.347,1.926 -0.333,0.671 -0.497,1.351 -0.497,2.046 z m 2.559,0.329 c -0.035,-0.071 -0.051,-0.18 -0.051,-0.329 0,-0.418 0.137,-0.855 0.414,-1.308 0.266,-0.449 0.633,-0.895 1.102,-1.32 0.461,-0.422 1,-0.821 1.613,-1.2 0.613,-0.371 1.27,-0.703 1.961,-0.996 0.688,-0.281 1.399,-0.508 2.137,-0.679 0.726,-0.161 1.433,-0.239 2.121,-0.239 0.484,0 0.93,0.039 1.332,0.121 0.398,0.078 0.734,0.192 1.019,0.336 0.274,0.149 0.493,0.321 0.657,0.524 0.152,0.211 0.226,0.445 0.226,0.703 0,0.418 -0.133,0.851 -0.398,1.297 -0.278,0.445 -0.641,0.879 -1.102,1.297 -0.461,0.425 -1,0.832 -1.617,1.211 -0.613,0.382 -1.266,0.714 -1.961,1.007 -0.695,0.289 -1.406,0.516 -2.133,0.676 -0.738,0.172 -1.453,0.258 -2.144,0.258 -0.86,0 -1.571,-0.121 -2.133,-0.363 -0.566,-0.246 -0.914,-0.575 -1.043,-0.996 z" /><path
         id="path5721"
         style="fill:#656565;fill-opacity:1;fill-rule:nonzero;stroke:none"
         d="m 34.062,846.718 -5.128,-17.946 4.617,0.934 0,-331.465 1.019,0 0,331.465 4.621,-0.934 -5.129,17.946 z m -0.511,-407.395 0,-331.465 -4.617,0.934 5.128,-17.945 5.129,17.945 -4.621,-0.934 0,331.465 -1.019,0 z" /><path
         id="path5723"
         style="fill:#656565;fill-opacity:1;fill-rule:nonzero;stroke:none"
         d="m 324.641,467.132 c 0.629,-0.16 0.945,-0.52 0.945,-1.074 0,-0.469 -0.109,-0.825 -0.328,-1.067 -0.227,-0.234 -0.485,-0.347 -0.774,-0.347 -0.144,0 -0.308,0.023 -0.496,0.07 l -11.398,3.047 0.183,-0.207 c 0.102,-0.137 0.184,-0.278 0.243,-0.422 0.054,-0.145 0.082,-0.281 0.082,-0.41 0,-0.137 -0.039,-0.285 -0.121,-0.438 -0.09,-0.144 -0.196,-0.281 -0.325,-0.41 -0.129,-0.121 -0.277,-0.223 -0.437,-0.301 -0.16,-0.074 -0.32,-0.109 -0.485,-0.109 -0.335,0 -0.652,0.183 -0.941,0.543 l -2.5,3.168 c -0.187,0.23 -0.281,0.484 -0.281,0.75 0,0.219 0.031,0.406 0.097,0.566 0.063,0.164 0.153,0.301 0.266,0.41 0.106,0.114 0.223,0.196 0.352,0.246 0.129,0.055 0.265,0.082 0.41,0.082 0.144,0 0.297,-0.023 0.457,-0.074 l 15.051,-4.023 z" /><path
         id="path5725"
         style="fill:#656565;fill-opacity:1;fill-rule:nonzero;stroke:none"
         d="m 307.984,480.077 c 0,0.629 0.137,1.203 0.411,1.719 0.277,0.516 0.667,0.953 1.171,1.316 0.508,0.371 1.114,0.657 1.817,0.856 0.699,0.203 1.472,0.304 2.32,0.304 0.934,0 1.875,-0.113 2.828,-0.339 0.942,-0.215 1.856,-0.52 2.731,-0.907 0.871,-0.379 1.687,-0.832 2.457,-1.363 0.761,-0.523 1.426,-1.094 1.992,-1.707 0.566,-0.605 1.012,-1.238 1.34,-1.91 0.324,-0.668 0.488,-1.34 0.488,-2.016 0,-0.621 -0.137,-1.191 -0.402,-1.707 -0.274,-0.515 -0.66,-0.957 -1.16,-1.328 -0.5,-0.363 -1.098,-0.644 -1.801,-0.848 -0.711,-0.199 -1.496,-0.3 -2.367,-0.3 -0.922,0 -1.852,0.109 -2.793,0.324 -0.946,0.219 -1.852,0.516 -2.723,0.894 -0.879,0.379 -1.699,0.832 -2.465,1.356 -0.766,0.523 -1.433,1.086 -2.008,1.691 -0.57,0.614 -1.015,1.254 -1.34,1.922 -0.332,0.668 -0.496,1.352 -0.496,2.043 z m 2.551,0.328 c -0.031,-0.074 -0.047,-0.183 -0.047,-0.328 0,-0.418 0.133,-0.855 0.41,-1.305 0.266,-0.453 0.633,-0.89 1.098,-1.316 0.461,-0.418 0.996,-0.82 1.609,-1.199 0.614,-0.371 1.266,-0.699 1.957,-0.992 0.688,-0.282 1.395,-0.504 2.129,-0.676 0.727,-0.16 1.43,-0.238 2.118,-0.238 0.48,0 0.925,0.035 1.328,0.117 0.394,0.082 0.734,0.195 1.015,0.34 0.274,0.144 0.493,0.32 0.653,0.519 0.152,0.211 0.23,0.445 0.23,0.703 0,0.418 -0.133,0.848 -0.402,1.293 -0.27,0.442 -0.637,0.875 -1.098,1.293 -0.461,0.426 -0.996,0.828 -1.609,1.207 -0.61,0.379 -1.262,0.715 -1.957,1.004 -0.692,0.293 -1.403,0.516 -2.129,0.68 -0.731,0.164 -1.445,0.25 -2.137,0.25 -0.855,0 -1.562,-0.121 -2.129,-0.363 -0.566,-0.243 -0.91,-0.571 -1.039,-0.989 z" /><path
         id="path5727"
         style="fill:#656565;fill-opacity:1;fill-rule:nonzero;stroke:none"
         d="m 307.984,494.147 c 0,0.629 0.137,1.204 0.411,1.719 0.277,0.516 0.667,0.953 1.171,1.317 0.508,0.371 1.114,0.656 1.817,0.855 0.699,0.203 1.472,0.305 2.32,0.305 0.934,0 1.875,-0.114 2.828,-0.336 0.942,-0.223 1.856,-0.524 2.731,-0.91 0.871,-0.379 1.687,-0.832 2.457,-1.364 0.761,-0.523 1.426,-1.093 1.992,-1.707 0.566,-0.605 1.012,-1.238 1.34,-1.906 0.324,-0.672 0.488,-1.344 0.488,-2.019 0,-0.622 -0.137,-1.192 -0.402,-1.707 -0.274,-0.516 -0.66,-0.957 -1.16,-1.329 -0.5,-0.363 -1.098,-0.644 -1.801,-0.847 -0.711,-0.199 -1.496,-0.301 -2.367,-0.301 -0.922,0 -1.852,0.109 -2.793,0.324 -0.946,0.219 -1.852,0.516 -2.723,0.895 -0.879,0.379 -1.699,0.832 -2.465,1.355 -0.766,0.524 -1.433,1.086 -2.008,1.692 -0.57,0.613 -1.015,1.254 -1.34,1.921 -0.332,0.668 -0.496,1.352 -0.496,2.043 z m 2.551,0.329 c -0.031,-0.075 -0.047,-0.184 -0.047,-0.329 0,-0.418 0.133,-0.855 0.41,-1.304 0.266,-0.453 0.633,-0.891 1.098,-1.317 0.461,-0.418 0.996,-0.82 1.609,-1.199 0.614,-0.371 1.266,-0.699 1.957,-0.992 0.688,-0.281 1.395,-0.504 2.129,-0.676 0.727,-0.16 1.43,-0.242 2.118,-0.242 0.48,0 0.925,0.043 1.328,0.121 0.394,0.082 0.734,0.195 1.015,0.34 0.274,0.144 0.493,0.32 0.653,0.519 0.152,0.211 0.23,0.446 0.23,0.704 0,0.418 -0.133,0.847 -0.402,1.293 -0.27,0.441 -0.637,0.875 -1.098,1.293 -0.461,0.425 -0.996,0.828 -1.609,1.207 -0.61,0.378 -1.262,0.714 -1.957,1.003 -0.692,0.29 -1.403,0.516 -2.129,0.68 -0.731,0.164 -1.445,0.25 -2.137,0.25 -0.855,0 -1.562,-0.117 -2.129,-0.363 -0.566,-0.242 -0.91,-0.57 -1.039,-0.988 z" /><path
         id="path5729"
         style="fill:#656565;fill-opacity:1;fill-rule:nonzero;stroke:none"
         d="m 307.984,508.218 c 0,0.629 0.137,1.203 0.411,1.719 0.277,0.515 0.667,0.953 1.171,1.316 0.508,0.371 1.114,0.656 1.817,0.859 0.699,0.2 1.472,0.301 2.32,0.301 0.934,0 1.875,-0.113 2.828,-0.336 0.942,-0.223 1.856,-0.523 2.731,-0.91 0.871,-0.379 1.687,-0.832 2.457,-1.363 0.761,-0.528 1.426,-1.094 1.992,-1.707 0.566,-0.606 1.012,-1.239 1.34,-1.91 0.324,-0.668 0.488,-1.34 0.488,-2.016 0,-0.621 -0.137,-1.192 -0.402,-1.707 -0.274,-0.516 -0.66,-0.957 -1.16,-1.328 -0.5,-0.364 -1.098,-0.645 -1.801,-0.848 -0.711,-0.199 -1.496,-0.301 -2.367,-0.301 -0.922,0 -1.852,0.11 -2.793,0.325 -0.946,0.218 -1.852,0.515 -2.723,0.898 -0.879,0.375 -1.699,0.828 -2.465,1.352 -0.766,0.523 -1.433,1.085 -2.008,1.691 -0.57,0.613 -1.015,1.254 -1.34,1.922 -0.332,0.668 -0.496,1.351 -0.496,2.043 z m 2.551,0.328 c -0.031,-0.074 -0.047,-0.184 -0.047,-0.328 0,-0.418 0.133,-0.856 0.41,-1.305 0.266,-0.453 0.633,-0.891 1.098,-1.316 0.461,-0.418 0.996,-0.821 1.609,-1.2 0.614,-0.371 1.266,-0.699 1.957,-0.988 0.688,-0.285 1.395,-0.512 2.129,-0.68 0.727,-0.16 1.43,-0.242 2.118,-0.242 0.48,0 0.925,0.043 1.328,0.121 0.394,0.082 0.734,0.196 1.015,0.34 0.274,0.145 0.493,0.321 0.653,0.52 0.152,0.211 0.23,0.445 0.23,0.703 0,0.418 -0.133,0.848 -0.402,1.293 -0.27,0.441 -0.637,0.871 -1.098,1.293 -0.461,0.426 -0.996,0.828 -1.609,1.207 -0.61,0.379 -1.262,0.715 -1.957,1.004 -0.692,0.289 -1.403,0.515 -2.129,0.679 -0.731,0.168 -1.445,0.25 -2.137,0.25 -0.855,0 -1.562,-0.117 -2.129,-0.363 -0.566,-0.238 -0.91,-0.57 -1.039,-0.988 z" /><path
         id="path5731"
         style="fill:#656565;fill-opacity:1;fill-rule:nonzero;stroke:none"
         d="m 317.262,886.21 -5.125,-17.945 4.617,0.929 0,-347.211 1.016,0 0,347.211 4.625,-0.929 -5.133,17.945 z m -0.508,-431.137 0,-347.215 -4.617,0.934 5.125,-17.945 5.133,17.945 -4.625,-0.934 0,347.215 -1.016,0 z" /><path
         id="path5733"
         style="fill:#656565;fill-opacity:1;fill-rule:nonzero;stroke:none"
         d="m 278.738,50.151 0,-2.386 6.086,0 0,2.386 -6.086,0 z m 9.688,0 0,-2.386 6.09,0 0,2.386 -6.09,0 z m 9.687,0 0,-2.386 6.086,0 0,2.386 -6.086,0 z m 9.68,0 0,-2.386 6.09,0 0,2.386 -6.09,0 z m 9.691,0 0,-2.386 6.09,0 0,2.386 -6.09,0 z m 9.688,0 0,-2.386 6.086,0 0,2.386 -6.086,0 z" /><path
         id="path5735"
         style="fill:#656565;fill-opacity:1;fill-rule:nonzero;stroke:none"
         d="m 315.898,77.698 c 0.844,0 1.262,-0.418 1.262,-1.261 0,-0.833 -0.418,-1.25 -1.262,-1.25 l -6.546,0 -1.09,-4.071 c 0.625,0.203 1.265,0.305 1.929,0.305 0.614,0 1.18,-0.113 1.696,-0.34 0.523,-0.227 0.976,-0.543 1.359,-0.945 0.387,-0.399 0.684,-0.86 0.895,-1.395 0.218,-0.535 0.328,-1.113 0.328,-1.746 0,-0.613 -0.086,-1.207 -0.266,-1.781 -0.18,-0.574 -0.426,-1.117 -0.738,-1.625 -0.317,-0.508 -0.688,-0.977 -1.117,-1.406 -0.422,-0.426 -0.879,-0.801 -1.371,-1.114 -0.493,-0.308 -1.008,-0.547 -1.551,-0.715 -0.531,-0.171 -1.067,-0.257 -1.598,-0.257 -0.488,0 -0.953,0.07 -1.398,0.207 -0.434,0.144 -0.832,0.351 -1.188,0.617 -0.344,0.269 -0.648,0.586 -0.906,0.961 -0.262,0.379 -0.453,0.797 -0.582,1.258 -0.043,0.164 -0.063,0.32 -0.063,0.472 0,0.157 0.028,0.301 0.086,0.438 0.063,0.137 0.157,0.258 0.282,0.363 0.117,0.106 0.265,0.188 0.433,0.242 0.18,0.067 0.383,0.098 0.606,0.098 0.519,0 0.875,-0.313 1.066,-0.934 0.113,-0.41 0.316,-0.718 0.609,-0.922 0.289,-0.195 0.641,-0.293 1.055,-0.293 0.305,0 0.621,0.059 0.942,0.172 0.324,0.114 0.636,0.274 0.937,0.473 0.305,0.203 0.59,0.441 0.859,0.715 0.274,0.277 0.512,0.57 0.715,0.887 0.203,0.32 0.364,0.668 0.485,1.027 0.121,0.375 0.183,0.746 0.183,1.117 0,0.574 -0.152,1.035 -0.449,1.383 -0.301,0.348 -0.734,0.519 -1.309,0.519 -0.234,0 -0.457,-0.015 -0.668,-0.046 -0.211,-0.032 -0.429,-0.094 -0.668,-0.184 -0.222,-0.078 -0.48,-0.195 -0.761,-0.352 -0.285,-0.152 -0.621,-0.351 -1.02,-0.593 -0.129,-0.082 -0.25,-0.141 -0.363,-0.184 -0.113,-0.039 -0.234,-0.059 -0.363,-0.059 -0.219,0 -0.407,0.032 -0.571,0.098 -0.16,0.063 -0.297,0.149 -0.414,0.254 -0.101,0.106 -0.179,0.223 -0.226,0.352 -0.051,0.129 -0.075,0.261 -0.075,0.398 -0.007,0.074 -0.007,0.152 0,0.231 0.016,0.082 0.036,0.167 0.059,0.257 l 2.039,7.637 c 0.129,0.66 0.543,0.992 1.25,0.992 l 7.488,0 z" /><path
         id="path5737"
         style="fill:#656565;fill-opacity:1;fill-rule:nonzero;stroke:none"
         d="m 325.367,77.698 c 0.629,0 1.203,-0.136 1.723,-0.41 0.515,-0.277 0.953,-0.668 1.32,-1.176 0.371,-0.511 0.66,-1.117 0.86,-1.82 0.203,-0.703 0.304,-1.477 0.304,-2.328 0,-0.938 -0.113,-1.883 -0.34,-2.836 -0.218,-0.945 -0.523,-1.856 -0.91,-2.738 -0.379,-0.871 -0.836,-1.696 -1.371,-2.461 -0.523,-0.77 -1.094,-1.434 -1.707,-2 -0.609,-0.567 -1.246,-1.016 -1.914,-1.344 -0.672,-0.324 -1.348,-0.488 -2.027,-0.488 -0.621,0 -1.192,0.136 -1.707,0.402 -0.52,0.273 -0.965,0.66 -1.332,1.16 -0.368,0.504 -0.649,1.106 -0.852,1.809 -0.203,0.711 -0.305,1.5 -0.305,2.375 0,0.922 0.114,1.855 0.329,2.801 0.218,0.945 0.519,1.855 0.898,2.726 0.379,0.883 0.832,1.707 1.359,2.473 0.524,0.769 1.09,1.441 1.696,2.011 0.617,0.575 1.257,1.024 1.925,1.348 0.672,0.332 1.356,0.496 2.051,0.496 z m 0.328,-2.558 c -0.074,0.035 -0.183,0.05 -0.328,0.05 -0.422,0 -0.859,-0.136 -1.308,-0.414 -0.454,-0.265 -0.895,-0.632 -1.325,-1.101 -0.418,-0.461 -0.82,-1 -1.199,-1.613 -0.371,-0.614 -0.703,-1.27 -0.992,-1.965 -0.285,-0.684 -0.512,-1.395 -0.68,-2.133 -0.164,-0.727 -0.242,-1.434 -0.242,-2.121 0,-0.485 0.039,-0.93 0.121,-1.332 0.082,-0.399 0.192,-0.739 0.34,-1.02 0.145,-0.273 0.32,-0.492 0.52,-0.656 0.21,-0.152 0.445,-0.231 0.703,-0.231 0.422,0 0.855,0.137 1.297,0.403 0.445,0.277 0.878,0.64 1.296,1.101 0.43,0.461 0.832,1 1.215,1.614 0.379,0.613 0.715,1.269 1.004,1.965 0.293,0.695 0.52,1.406 0.68,2.132 0.172,0.735 0.254,1.45 0.254,2.145 0,0.855 -0.121,1.57 -0.363,2.133 -0.243,0.566 -0.575,0.914 -0.993,1.043 z" /><path
         id="path5739"
         style="fill:#ffffff;fill-opacity:1;fill-rule:nonzero;stroke:none"
         d="m 140.914,687.233 32,0 0,-144 -32,0 0,144 z" /><path
         id="path5741"
         style="fill:#656565;fill-opacity:1;fill-rule:nonzero;stroke:none"
         d="m 316.762,26.272 0,5.391 -4.625,-0.934 5.133,16.348 5.128,-16.348 -4.617,0.934 0,-5.391 -1.019,0 z" /></g></g></svg>