<?xml version="1.0" encoding="UTF-8" standalone="no"?>
<svg
   id="svg6600"
   version="1.1"
   xml:space="preserve"
   width="901"
   height="901"
   viewBox="0 0 901 901"
   sodipodi:docname="Zeichen_206.svg"
   inkscape:version="1.1.2 (b8e25be833, 2022-02-05)"
   xmlns:inkscape="http://www.inkscape.org/namespaces/inkscape"
   xmlns:sodipodi="http://sodipodi.sourceforge.net/DTD/sodipodi-0.dtd"
   xmlns="http://www.w3.org/2000/svg"
   xmlns:svg="http://www.w3.org/2000/svg"
   xmlns:rdf="http://www.w3.org/1999/02/22-rdf-syntax-ns#"
   xmlns:cc="http://creativecommons.org/ns#"
   xmlns:dc="http://purl.org/dc/elements/1.1/"><sodipodi:namedview
     id="namedview11"
     pagecolor="#ffffff"
     bordercolor="#666666"
     borderopacity="1.0"
     inkscape:pageshadow="2"
     inkscape:pageopacity="0.0"
     inkscape:pagecheckerboard="0"
     showgrid="false"
     inkscape:object-paths="false"
     inkscape:snap-intersection-paths="false"
     inkscape:snap-smooth-nodes="false"
     inkscape:snap-bbox="false"
     inkscape:snap-bbox-edge-midpoints="false"
     inkscape:bbox-nodes="false"
     showguides="true"
     inkscape:guide-bbox="true"
     inkscape:snap-bbox-midpoints="false"
     inkscape:zoom="0.86459489"
     inkscape:cx="450.5"
     inkscape:cy="450.5"
     inkscape:window-width="1920"
     inkscape:window-height="1001"
     inkscape:window-x="-9"
     inkscape:window-y="-9"
     inkscape:window-maximized="1"
     inkscape:current-layer="svg6600" /><metadata
     id="metadata6606"><rdf:RDF><cc:Work
         rdf:about=""><dc:format>image/svg+xml</dc:format><dc:type
           rdf:resource="http://purl.org/dc/dcmitype/StillImage" /></cc:Work></rdf:RDF></metadata><defs
     id="defs6604" /><g
     id="g6608"
     transform="matrix(1.25,0,0,-1.25,0,900.99999)"><g
       id="g6610"><path
         d="m 225.20793,0.399992 c -8.91827,0 -17.46118,3.5390821 -23.76887,9.843954 L 10.24397,201.43905 C 3.93908,207.74392 0.4,216.28964 0.4,225.19662 v 270.40393 c 0,8.90978 3.53908,17.45269 9.84397,23.75755 l 191.19509,191.20641 c 6.30769,6.2964 14.8506,9.83548 23.76887,9.83548 h 270.39546 c 8.90697,0 17.46115,-3.53908 23.75757,-9.83548 L 710.56735,519.3581 c 6.2936,-6.30486 9.83266,-14.84777 9.83266,-23.75755 V 225.19662 c 0,-8.90698 -3.53906,-17.4527 -9.83266,-23.75757 L 519.36096,10.243946 C 513.06454,3.9390741 504.51036,0.399992 495.60339,0.399992 H 225.20793"
         style="display:inline;fill:#ffffff;fill-opacity:1;fill-rule:evenodd;stroke:#000000;stroke-width:0.8;stroke-linecap:butt;stroke-linejoin:miter;stroke-miterlimit:3;stroke-dasharray:none;stroke-opacity:1"
         id="path108"
         inkscape:label="path6612" /><path
         d="M 226.20133,36.403238 36.406064,226.19851 V 494.60995 L 226.20133,684.4052 H 494.60995 L 684.40523,494.60995 V 226.19851 L 494.60995,36.403238 H 226.20133"
         style="display:inline;fill:#c1121c;fill-opacity:1;fill-rule:evenodd;stroke:none;stroke-width:2.82224"
         id="path110"
         inkscape:label="path6614" /><path
         style="color:#000000;font-style:normal;font-variant:normal;font-weight:normal;font-stretch:normal;font-size:medium;line-height:normal;font-family:sans-serif;font-variant-ligatures:normal;font-variant-position:normal;font-variant-caps:normal;font-variant-numeric:normal;font-variant-alternates:normal;font-variant-east-asian:normal;font-feature-settings:normal;font-variation-settings:normal;text-indent:0;text-align:start;text-decoration:none;text-decoration-line:none;text-decoration-style:solid;text-decoration-color:#000000;letter-spacing:normal;word-spacing:normal;text-transform:none;writing-mode:lr-tb;direction:ltr;text-orientation:mixed;dominant-baseline:auto;baseline-shift:baseline;text-anchor:start;white-space:normal;shape-padding:0;shape-margin:0;inline-size:0;clip-rule:nonzero;display:inline;overflow:visible;visibility:visible;isolation:auto;mix-blend-mode:normal;color-interpolation:sRGB;color-interpolation-filters:linearRGB;solid-color:#000000;solid-opacity:1;vector-effect:none;fill:#ffffff;fill-opacity:1;fill-rule:evenodd;stroke:none;stroke-width:67.7581;stroke-linecap:butt;stroke-linejoin:miter;stroke-miterlimit:22.926;stroke-dasharray:none;stroke-dashoffset:0;stroke-opacity:1;paint-order:stroke fill markers;color-rendering:auto;image-rendering:auto;shape-rendering:auto;text-rendering:auto;enable-background:accumulate;stop-color:#000000"
         d="m 147.71944,489.65232 c 33.54757,0 60.79144,-27.44512 60.79144,-61.22484 V 414.7965 h -35.99515 v 13.63098 c 0,13.79798 -11.07569,24.96331 -24.79629,24.96331 -13.72062,0 -24.79694,-11.16533 -24.79694,-24.96331 0,-15.38204 -1.85744,-31.83912 15.53161,-39.02774 l 32.12871,-13.09758 c 22.88014,-9.31499 37.92806,-31.65789 37.92806,-56.62574 v -27.26255 c 0,-35.75072 -28.58858,-61.25776 -63.0249,-61.25776 -33.54758,0 -60.790795,27.47798 -60.790795,61.25776 v 13.59807 h 35.994505 v -13.59807 c 0,-32.8904 51.82604,-33.19998 51.82604,0 v 27.26255 c 0,10.12632 -6.1915,19.34266 -15.43102,23.13038 l -32.16223,13.09829 c -22.95754,9.19886 -37.994502,31.73459 -37.994502,56.62507 v 15.89732 c 0,33.77972 27.205182,61.22484 60.791462,61.22484 z m 274.56053,0 c 33.47021,0 60.725,-27.44512 60.725,-61.22484 V 292.41387 c 0,-33.81843 -27.25479,-61.25776 -60.725,-61.25776 -33.54761,0 -60.79151,27.43933 -60.79151,61.25776 v 136.01361 c 0,33.77972 27.2439,61.22484 60.79151,61.22484 z M 222.00834,487.38856 H 343.5912 v -33.9952 H 300.83068 V 233.52503 h -35.99471 v 219.86833 h -42.82763 z m 296.99109,0 h 58.55859 c 32.31063,0 58.55809,-26.41576 58.55809,-58.95852 v -36.26151 c 0,-32.46535 -26.24746,-58.89141 -58.55809,-58.89141 h -22.59698 v -99.75209 h -35.96161 z m -96.71946,-33.9952 c -13.72056,0 -24.79624,-11.16533 -24.79624,-24.96332 V 292.41643 c 0,-13.72056 11.07568,-24.89622 24.79624,-24.89622 13.52707,0 24.62986,11.17566 24.62986,24.89622 v 136.01361 c 0,13.79799 -11.10279,24.96332 -24.62986,24.96332 z m 132.68107,0 v -86.22107 h 22.59698 c 13.60467,0 24.69637,11.15955 24.69637,24.99624 v 36.26151 c 0,13.79799 -11.0917,24.96332 -24.69637,24.96332 z"
         id="path73928"
         sodipodi:nodetypes="ssccsssccssssccsssccssssssssssccccccccccssssccccsssssssccssssc"
         mask="none"
         inkscape:label="path6616" /></g></g></svg>
