<?xml version="1.0" encoding="UTF-8" standalone="no"?>
<svg
  xmlns:dc="http://purl.org/dc/elements/1.1/"
  xmlns:cc="http://creativecommons.org/ns#"
  xmlns:rdf="http://www.w3.org/1999/02/22-rdf-syntax-ns#"
  xmlns:svg="http://www.w3.org/2000/svg"
  xmlns="http://www.w3.org/2000/svg"
  viewBox="0 0 501 750.99805"
  height="750.99805"
  width="501"
  xml:space="preserve"
  id="svg4606"
  version="1.1"><metadata
     id="metadata4612"><rdf:RDF><cc:Work
         rdf:about=""><dc:format>image/svg+xml</dc:format><dc:type
           rdf:resource="http://purl.org/dc/dcmitype/StillImage" /><dc:title></dc:title></cc:Work></rdf:RDF></metadata><defs
     id="defs4610" /><g
     transform="matrix(1.3333333,0,0,-1.3333333,0,750.99805)"
     id="g4614"><g
       id="g4616"><path
         id="path4618"
         style="fill:#c1121c;fill-opacity:1;fill-rule:evenodd;stroke:none"
         d="M 354.348,562.874 H 19.449 C 10.734,562.241 0.855,553.19 0.375,542.792 V 20.229 C 0.375,10.87 8.387,0.366 20.656,0.374 L 355.07,0.6 c 11.235,0.008 20.039,9.664 20.039,20.094 l 0.266,522.273 c 0,11.328 -9.457,19.907 -21.027,19.907 z" /><path
         id="path4620"
         style="fill:#ffffff;fill-opacity:1;fill-rule:evenodd;stroke:none"
         d="M 366.605,4.428 C 366.512,4.362 366.441,4.276 366.348,4.209 365.285,3.459 364.145,2.811 362.941,2.276 361.738,1.741 360.473,1.323 359.156,1.038 357.84,0.752 356.477,0.6 355.07,0.6 L 195.355,0.491 0.375,198.147 v 176.082 z" /><path
         id="path4622"
         style="fill:#ffffff;fill-opacity:1;fill-rule:evenodd;stroke:none"
         d="M 196.129,562.874 375.348,378.897 V 202.815 L 19.023,562.874 Z" /><path
         id="path4624"
         style="fill:#000000;fill-opacity:1;fill-rule:evenodd;stroke:none"
         d="m 354.348,563.249 c 11.757,0 21.402,-8.747 21.402,-20.282 L 375.488,20.694 C 375.488,10.053 366.52,0.233 355.07,0.225 L 20.656,-0.001 C 8.172,-0.009 0,10.655 0,20.229 v 522.582 c 0.246,5.313 2.883,10.25 6.559,13.949 3.671,3.696 8.386,6.164 12.863,6.489 z m 0,-0.375 H 19.449 C 10.734,562.241 0.855,553.19 0.375,542.792 V 20.229 C 0.375,10.87 8.387,0.366 20.656,0.374 L 355.07,0.6 c 11.235,0.008 20.043,9.664 20.043,20.094 l 0.262,522.273 c 0,11.328 -9.453,19.907 -21.027,19.907 z" /></g></g></svg>
