<?xml version="1.0" encoding="UTF-8" standalone="no"?>
<svg
   xmlns:dc="http://purl.org/dc/elements/1.1/"
   xmlns:cc="http://creativecommons.org/ns#"
   xmlns:rdf="http://www.w3.org/1999/02/22-rdf-syntax-ns#"
   xmlns:svg="http://www.w3.org/2000/svg"
   xmlns="http://www.w3.org/2000/svg"
   version="1.1"
   id="svg29385"
   xml:space="preserve"
   width="1050"
   height="350"
   viewBox="0 0 1050 350"><metadata
     id="metadata29391"><rdf:RDF><cc:Work
         rdf:about=""><dc:format>image/svg+xml</dc:format><dc:type
           rdf:resource="http://purl.org/dc/dcmitype/StillImage" /><dc:title></dc:title></cc:Work></rdf:RDF></metadata><defs
     id="defs29389"><clipPath
       clipPathUnits="userSpaceOnUse"
       id="clipPath29409"><path
         d="M 0,0 H 788 V 263 H 0 Z"
         id="path29407" /></clipPath></defs><g
     id="g29393"
     transform="matrix(1.3333333,0,0,-1.3333333,0,350)"><g
       id="g29395"><path
         d="m 29.961,11.238 c -10.344,0 -18.738,8.407 -18.738,18.766 v 202.492 c 0,10.359 8.394,18.746 18.738,18.746 h 727.582 c 10.332,0 18.723,-8.387 18.723,-18.746 V 30.004 c 0,-10.359 -8.391,-18.766 -18.723,-18.766"
         style="fill:#008754;fill-opacity:1;fill-rule:nonzero;stroke:none"
         id="path29397" /></g><g
       id="g29399"><g
         id="g29401"
         transform="translate(0,-0.5)"><g
           id="g29403"><g
             id="g29405"
             clip-path="url(#clipPath29409)"><g
               id="g29411"><path
                 d="M 29.957,263 C 13.402,263 0,249.566 0,232.996 V 30.504 C 0,13.934 13.402,0.5 29.957,0.5 h 727.586 c 16.539,0 29.961,13.434 29.961,30.004 v 202.492 c 0,16.57 -13.422,30.004 -29.961,30.004 z m 0,-11.258 h 727.586 c 10.328,0 18.723,-8.387 18.723,-18.746 V 30.504 c 0,-10.359 -8.395,-18.766 -18.723,-18.766 H 29.957 c -10.34,0 -18.734,8.407 -18.734,18.766 v 202.492 c 0,10.359 8.394,18.746 18.734,18.746 z"
                 style="fill:#f0ca00;fill-opacity:1;fill-rule:nonzero;stroke:none"
                 id="path29413" /></g></g></g></g><path
         d="m 485.555,124.355 h 31.82 c 0,8.813 -7.121,15.93 -15.922,15.93 -8.781,0 -15.898,-7.117 -15.898,-15.93 z m 46.797,-13.113 h -46.797 v -1.879 c 0,-6.508 3.957,-12.355 10.008,-14.781 8.316,-3.328 17.839,-0.992 23.675,5.813 l 11.348,-9.77 c -10.008,-11.672 -26.324,-15.672 -40.59,-9.965 -11.734,4.699 -19.422,16.074 -19.422,28.703 v 14.992 c 0,17.086 13.84,30.922 30.879,30.922 17.074,0 30.899,-13.836 30.899,-30.922 z M 324.57,124.355 h 31.821 c 0,8.813 -7.118,15.93 -15.918,15.93 -8.782,0 -15.903,-7.117 -15.903,-15.93 z m 46.801,-13.113 H 324.57 v -1.879 c 0,-6.508 3.957,-12.355 9.996,-14.781 8.325,-3.328 17.852,-0.992 23.692,5.813 l 11.359,-9.77 c -10.008,-11.672 -26.34,-15.672 -40.601,-9.965 -11.735,4.699 -19.422,16.074 -19.422,28.703 v 14.992 c 0,17.086 13.82,30.922 30.879,30.922 17.07,0 30.898,-13.836 30.898,-30.922 z"
         style="fill:#f0ca00;fill-opacity:1;fill-rule:nonzero;stroke:none"
         id="path29415" /><path
         d="m 205.672,78.09 -23.844,106.305 h 15.645 l 16.25,-75.747 21.293,75.747 h 15.121 l 21.445,-75.747 16.25,75.747 h 15.492 L 279.48,78.09 H 264.359 L 242.578,154.563 220.797,78.09 Z"
         style="fill:#f0ca00;fill-opacity:1;fill-rule:nonzero;stroke:none"
         id="path29417" /><path
         d="m 442.969,100.867 c 0,-2.023 0.761,-3.797 2.281,-5.316 1.516,-1.52 3.34,-2.274 5.465,-2.274 h 7.594 V 78.09 h -7.594 c -3.141,0 -6.125,0.605 -8.961,1.824 -2.731,1.211 -5.16,2.828 -7.285,4.856 -2.028,2.027 -3.649,4.406 -4.864,7.136 -1.21,2.836 -1.824,5.824 -1.824,8.961 v 83.528 h 15.188 z"
         style="fill:#f0ca00;fill-opacity:1;fill-rule:nonzero;stroke:none"
         id="path29419" /><path
         d="m 594.117,135.492 c -1.414,1.52 -3.09,2.684 -5.012,3.492 -1.82,0.914 -3.847,1.371 -6.074,1.371 -4.152,0 -7.691,-1.421 -10.633,-4.257 -2.832,-2.832 -4.351,-6.274 -4.554,-10.325 V 78.09 h -15.188 v 75.933 h 15.188 v -2.582 c 2.226,1.317 4.609,2.329 7.136,3.036 2.536,0.707 5.215,1.062 8.051,1.062 4.555,0 8.758,-0.91 12.606,-2.734 3.843,-1.821 7.187,-4.301 10.023,-7.438 z"
         style="fill:#f0ca00;fill-opacity:1;fill-rule:nonzero;stroke:none"
         id="path29421" /><path
         d="m 391.035,78.957 v 75.117 H 406.16 V 78.957 Z m 0,90.313 v 15.125 H 406.16 V 169.27 Z"
         style="fill:#f0ca00;fill-opacity:1;fill-rule:nonzero;stroke:none"
         id="path29423" /></g></g></svg>