<?xml version="1.0" encoding="UTF-8" standalone="no"?>
<svg
   xmlns:dc="http://purl.org/dc/elements/1.1/"
   xmlns:cc="http://creativecommons.org/ns#"
   xmlns:rdf="http://www.w3.org/1999/02/22-rdf-syntax-ns#"
   xmlns:svg="http://www.w3.org/2000/svg"
   xmlns="http://www.w3.org/2000/svg"
   viewBox="0 0 600 330"
   height="330"
   width="600"
   xml:space="preserve"
   id="svg202"
   version="1.1"><metadata
     id="metadata208"><rdf:RDF><cc:Work
         rdf:about=""><dc:format>image/svg+xml</dc:format><dc:type
           rdf:resource="http://purl.org/dc/dcmitype/StillImage" /><dc:title></dc:title></cc:Work></rdf:RDF></metadata><defs
     id="defs206"><clipPath
       id="clipPath224"
       clipPathUnits="userSpaceOnUse"><path
         id="path222"
         d="M 0,0 H 450 V 248 H 0 Z" /></clipPath></defs><g
     transform="matrix(1.3333333,0,0,-1.3333333,0,330)"
     id="g210"><g
       id="g212" /><g
       id="g214"><g
         transform="translate(0,-0.5)"
         id="g216"><g
           id="g218"><g
             clip-path="url(#clipPath224)"
             id="g220"><g
               id="g226"><path
                 id="path228"
                 style="fill:#ffffff;fill-opacity:1;fill-rule:nonzero;stroke:none"
                 d="m 29.996,247.785 c -16.418,0 -29.769,-13.363 -29.769,-29.781 V 30.508 C 0.227,14.086 13.578,0.734 29.996,0.734 h 390.008 c 16.418,0 29.769,13.352 29.769,29.774 v 187.496 c 0,16.418 -13.351,29.781 -29.769,29.781" /><path
                 id="path230"
                 style="fill:#000000;fill-opacity:1;fill-rule:nonzero;stroke:none"
                 d="M 29.996,0.949 C 13.699,0.949 0.449,14.211 0.449,30.508 v 187.496 c 0,16.297 13.25,29.555 29.547,29.555 h 390.008 c 16.297,0 29.547,-13.258 29.547,-29.555 V 30.508 c 0,-16.297 -13.25,-29.559 -29.547,-29.559 z M 420.004,248.012 H 29.996 C 13.426,248.012 0,234.574 0,218.004 V 30.508 C 0,13.945 13.426,0.5 29.996,0.5 H 420.004 C 436.566,0.5 450,13.945 450,30.508 v 187.496 c 0,16.57 -13.434,30.008 -29.996,30.008" /></g></g></g></g><path
         id="path232"
         style="fill:#000000;fill-opacity:1;fill-rule:nonzero;stroke:none"
         d="m 29.996,18.758 h 390.008 c 6.215,0 11.25,5.035 11.25,11.25 v 187.496 c 0,6.215 -5.035,11.25 -11.25,11.25 H 29.996 c -6.215,0 -11.25,-5.035 -11.25,-11.25 V 30.008 c 0,-6.215 5.035,-11.25 11.25,-11.25 z m 0,-11.25 c -12.43,0 -22.5,10.07 -22.5,22.5 v 187.496 c 0,12.43 10.07,22.5 22.5,22.5 h 390.008 c 12.43,0 22.5,-10.07 22.5,-22.5 V 30.008 c 0,-12.43 -10.07,-22.5 -22.5,-22.5" /><path
         id="path234"
         style="fill:#000000;fill-opacity:1;fill-rule:nonzero;stroke:none"
         d="m 56.813,101.664 -14.059,45 h 9.559 l 8.437,-31.504 10.125,31.504 h 6.746 l 10.133,-31.504 8.434,31.504 h 9.562 l -14.059,-45 h -7.878 l -9.563,31.504 -9.559,-31.504" /><path
         id="path236"
         style="fill:#000000;fill-opacity:1;fill-rule:nonzero;stroke:none"
         d="m 121.504,128.664 h 19.125 c 0,5.285 -4.285,9.559 -9.566,9.559 -5.286,0 -9.559,-4.274 -9.559,-9.559 z m 28.121,-7.871 h -28.121 v -1.129 c 0,-3.906 2.379,-7.426 6.012,-8.875 5,-2.004 10.726,-0.601 14.234,3.492 l 6.828,-5.867 c -6.019,-7.004 -15.832,-9.418 -24.406,-5.98 -7.047,2.82 -11.672,9.64 -11.672,17.23 v 9 c 0,10.258 8.316,18.566 18.563,18.566 10.253,0 18.562,-8.308 18.562,-18.566" /><path
         id="path238"
         style="fill:#000000;fill-opacity:1;fill-rule:nonzero;stroke:none"
         d="m 162,101.664 v 45 h 8.996 v -5.074 c 5.277,6.519 14.84,7.535 21.359,2.265 0.012,-0.007 0.012,-0.007 0.02,-0.007 l -6.398,-7.899 c -3.715,3.317 -9.399,2.973 -12.707,-0.738 -1.469,-1.648 -2.278,-3.773 -2.278,-5.977 v -27.566" /><path
         id="path240"
         style="fill:#000000;fill-opacity:1;fill-rule:nonzero;stroke:none"
         d="m 199.125,101.664 v 63 h 9.004 v -39.371 l 17.434,21.371 h 10.687 l -15.187,-17.434 17.433,-27.566 h -11.242 l -11.813,20.82 -7.312,-7.879 v -12.941" /><path
         id="path242"
         style="fill:#000000;fill-opacity:1;fill-rule:nonzero;stroke:none"
         d="m 264.371,101.664 h -5.621 c -5.59,0 -10.121,4.535 -10.121,10.121 v 27.567 h -4.504 v 7.312 h 4.504 v 13.504 h 9.004 v -13.504 h 6.738 v -7.312 h -6.738 v -26.438 c 0,-1.547 1.25,-2.809 2.797,-2.809 h 3.941" /><path
         id="path244"
         style="fill:#000000;fill-opacity:1;fill-rule:nonzero;stroke:none"
         d="m 300.375,121.355 h -12.934 c -3.105,0 -5.628,-2.523 -5.628,-5.632 0,-3.106 2.523,-5.618 5.628,-5.618 h 7.313 c 3.113,0 5.621,2.512 5.621,5.618 z m 9.004,-19.691 h -9.004 v 4.649 c -1.586,-2.864 -4.605,-4.649 -7.875,-4.649 h -5.621 c -7.453,0 -13.496,6.051 -13.496,13.496 0,7.465 6.043,13.504 13.496,13.504 h 13.496 v 4.504 c 0,2.461 -1.762,4.566 -4.195,4.984 -3.168,0.555 -6.426,0.555 -9.617,0 -1.586,-0.277 -2.946,-1.293 -3.649,-2.738 l -7.121,5.633 c 2.137,3.156 5.469,5.308 9.223,5.965 4.214,0.738 8.511,0.738 12.726,0 6.727,-1.168 11.637,-7.012 11.637,-13.844" /><path
         id="path246"
         style="fill:#000000;fill-opacity:1;fill-rule:nonzero;stroke:none"
         d="m 348.75,119.102 v 10.128 c 0,4.965 -4.02,8.993 -9.004,8.993 -4.965,0 -8.996,-4.028 -8.996,-8.993 v -10.128 c 0,-4.969 4.031,-8.997 8.996,-8.997 4.984,0 9.004,4.028 9.004,8.997 z m 9.004,27.562 v -45.562 c 0,-6.821 -3.844,-13.047 -9.949,-16.098 -8.602,-4.301 -19.043,-2.047 -25.102,5.41 l 6.981,5.684 c 3.406,-4.196 9.261,-5.457 14.093,-3.047 3.047,1.527 4.973,4.644 4.973,8.051 v 5.636 c -5.27,-6.519 -14.828,-7.535 -21.359,-2.265 -3.563,2.894 -5.641,7.234 -5.641,11.816 v 15.754 c 0,8.387 6.797,15.187 15.195,15.187 4.575,0 8.922,-2.074 11.805,-5.64 v 5.074" /><path
         id="path248"
         style="fill:#000000;fill-opacity:1;fill-rule:nonzero;stroke:none"
         d="m 369.004,108.875 6.348,6.379 c 5.25,-5.223 13.054,-6.902 19.988,-4.301 2.316,0.875 3.496,3.469 2.625,5.789 -0.625,1.668 -2.164,2.809 -3.93,2.91 l -9.558,0.606 c -7.446,0.461 -13.102,6.867 -12.633,14.316 0.367,5.914 4.554,10.899 10.32,12.285 8.387,2.012 17.227,0.039 23.965,-5.332 l -5.609,-7.035 c -4.575,3.641 -10.575,4.973 -16.254,3.61 -2.422,-0.575 -3.907,-3.008 -3.325,-5.426 0.461,-1.918 2.122,-3.313 4.094,-3.438 l 9.559,-0.601 c 7.445,-0.461 13.105,-6.871 12.633,-14.305 -0.34,-5.312 -3.754,-9.941 -8.739,-11.809 -10.222,-3.832 -21.742,-1.347 -29.484,6.352" /></g></g></svg>