<svg xmlns="http://www.w3.org/2000/svg" viewBox="0 0 821.1 725.42" role="img" aria-labelledby="title">
  <title id="title">Verkehrszeichen A-21 - A-21: tramwaj</title>
  <path fill="#d40000" d="M363.78 27 7.32 644.42c-20.78 36 5.2 81 46.77 81h712.94c41.57 0 67.55-45 46.77-81L457.32 27c-20.78-36-72.75-36-93.53 0Z"/>
  <path fill="#febe0b" d="M33.3 659.42 389.77 42c9.24-16 32.33-16 41.57 0l356.47 617.42c9.24 16-2.31 36-20.78 36H54.08c-18.48 0-30.02-20-20.78-36"/>
  <path d="M253.05 331.67h315v11.25h-315zM635.55 455.42H429.84l48.21-56.25-67.5-56.25-67.5 56.25 48.21 56.25H185.55l-22.52 23.26V587.2l22.52 25.72h67.5c0 12.43 10.07 22.5 22.5 22.5s22.5-10.07 22.5-22.5h22.5c0 12.43 10.07 22.5 22.5 22.5s22.5-10.07 22.5-22.5h90c0 12.43 10.07 22.5 22.5 22.5s22.5-10.07 22.5-22.5h22.5c0 12.43 10.07 22.5 22.5 22.5s22.5-10.07 22.5-22.5h67.5l22.5-22.5v-112.5zm-274.93-56.25 49.93-41.61 49.93 41.61-49.93 41.61zM202.43 522.92h-16.88v-45h16.88zm22.5 0h-11.26v-45h11.26zm28.12 0h-16.88v-45h16.88zm78.75 0h-56.25v-45h56.25zm73.13 0h-61.88v-45h61.88zm73.12 0h-61.88v-45h61.88zm67.5 0H489.3v-45h56.25zm39.38 0h-16.88v-45h16.88zm22.5 0h-11.26v-45h11.26zm28.12 0h-16.88v-45h16.88z"/>
  <path d="M95.55 635.42h630v22.5h-630z"/>
</svg>
