<svg xmlns="http://www.w3.org/2000/svg" viewBox="0 0 821.1 725.42" role="img" aria-labelledby="title">
  <title id="title">Verkehrszeichen A-27 - A-27: nabrzeże lub brzeg rzeki</title>
  <path fill="#d40000" d="M363.78 27 7.32 644.42c-20.78 36 5.2 81 46.77 81h712.94c41.57 0 67.55-45 46.77-81L457.32 27c-20.78-36-72.75-36-93.53 0Z"/>
  <path fill="#febe0b" d="M33.3 659.42 389.77 42c9.24-16 32.33-16 41.57 0l356.47 617.42c9.24 16-2.31 36-20.78 36H54.08c-18.48 0-30.02-20-20.78-36"/>
  <path fill-rule="evenodd" d="M517.37 430.84v-64.27l-90-51.96-95.3 35.85-11.52 19.95 19.49 11.25c-6.21 10.77-2.53 24.53 8.24 30.74 10.76 6.21 24.52 2.53 30.73-8.24l116.74 67.4c-6.24 10.81-2.54 24.64 8.27 30.88s24.63 2.53 30.88-8.28l19.48 11.25 23.04-39.9zm-117.83-68.02 21.4-37.07 54.07 31.21-21.41 37.07zm60 34.64 21.41-37.07 27.85 16.08v49.43zM195.59 414.32 42.26 679.91h272.55l.12-265.59z"/>
  <path d="M332.02 600.32c25.17 14.41 56.73 11.08 78.35-8.25 25.56 22.86 64.22 22.86 89.78 0 25.56 22.86 64.22 22.86 89.78 0 25.56 22.86 64.22 22.86 89.78 0a67.36 67.36 0 0 0 44.89 17.15v-22.45c-16.56 0-32.55-6.1-44.89-17.15-25.56 22.86-64.22 22.86-89.78 0-25.56 22.86-64.22 22.86-89.78 0-25.56 22.86-64.22 22.86-89.78 0-21.62 19.33-53.18 22.66-78.35 8.25zM332.02 649.73c25.17 14.41 56.73 11.08 78.35-8.25 25.56 22.86 64.22 22.86 89.78 0 25.56 22.86 64.22 22.86 89.78 0 25.56 22.86 64.22 22.86 89.78 0 20.5 18.34 50.09 22.36 74.74 10.17V629.2c-24.65 12.19-54.24 8.17-74.74-10.17-25.56 22.86-64.22 22.86-89.78 0-25.56 22.86-64.22 22.86-89.78 0-25.56 22.86-64.22 22.86-89.78 0-21.62 19.33-53.18 22.66-78.35 8.25z"/>
</svg>
