<svg xmlns="http://www.w3.org/2000/svg" viewBox="0 0 821.1 725.42" role="img" aria-labelledby="title">
  <title id="title">Verkehrszeichen A-28 - A-28: sypka nawierzchnia</title>
  <path fill="#d40000" d="M363.78 27 7.32 644.42c-20.78 36 5.2 81 46.77 81h712.94c41.57 0 67.55-45 46.77-81L457.32 27c-20.78-36-72.75-36-93.53 0Z"/>
  <path fill="#febe0b" d="M33.3 659.42 389.77 42c9.24-16 32.33-16 41.57 0l356.47 617.42c9.24 16-2.31 36-20.78 36H54.08c-18.48 0-30.02-20-20.78-36"/>
  <path d="m301.8 432.92-16.87-101.25h-45.09l-19.48 33.75h47.69l11.25 67.5h-97.91l-64.68 112.02h186.96v22.44H103.75l-26.29 45.54h169.97v56.25h56.24v-56.25h16.88v-157.5zm-26.25 95.63c-15.53 0-28.12-12.6-28.12-28.13s12.59-28.13 28.12-28.13 28.12 12.6 28.12 28.13-12.59 28.13-28.12 28.13"/>
  <path stroke="#000" stroke-miterlimit="10" stroke-width=".75" d="m419.02 624.65 205.28-11.73-320.63 56.25 264.38-281.25-121.12 165.16 133.62-75.16-132.96 107.89 176.71-40.39z"/>
  <path d="M478.05 320.42h45v45h-45zM579.3 421.67h45v45h-45zM635.55 500.42h45v45h-45zM658.05 590.42h45v45h-45z"/>
</svg>
