<svg xmlns="http://www.w3.org/2000/svg" viewBox="0 0 821.1 725.42" role="img" aria-labelledby="title">
  <title id="title">Verkehrszeichen A-1 - A-1: niebezpieczny zakręt w prawo</title>
  <path fill="#d40000" d="M363.78 27 7.32 644.42c-20.78 36 5.2 81 46.77 81h712.94c41.57 0 67.55-45 46.77-81L457.32 27c-20.78-36-72.75-36-93.53 0Z"/>
  <path fill="#febe0b" d="M33.3 659.42 389.77 42c9.24-16 32.33-16 41.57 0l356.47 617.42c9.24 16-2.31 36-20.78 36H54.08c-18.48 0-30.02-20-20.78-36"/>
  <path d="m596.24 358.99-73.08 52.53c-113.75 11.24-202.61 107.2-202.61 223.9v45l-45-45-45 45v-45c0-163.39 124.4-297.73 283.65-313.45z"/>
</svg>
