<svg xmlns="http://www.w3.org/2000/svg" viewBox="0 0 821.1 725.42" role="img" aria-labelledby="title">
  <title id="title">Verkehrszeichen A-10 - A-10: przejazd kolejowy bez zapór</title>
  <path fill="#d40000" d="M363.78 27 7.32 644.42c-20.78 36 5.2 81 46.77 81h712.94c41.57 0 67.55-45 46.77-81L457.32 27c-20.78-36-72.75-36-93.53 0Z"/>
  <path fill="#febe0b" d="M33.3 659.42 389.77 42c9.24-16 32.33-16 41.57 0l356.47 617.42c9.24 16-2.31 36-20.78 36H54.08c-18.48 0-30.02-20-20.78-36"/>
  <path d="M567.28 318.88c-26.11 32.92-66.45 54.04-111.73 54.04-17.65 0-34.55-3.21-50.15-9.08-7.53 14.32-22.55 24.08-39.85 24.08-13.79 0-26.13-6.2-34.39-15.97-3.03 15.52-16.71 27.22-33.11 27.22-8.72 0-16.67-3.31-22.65-8.73-1.24 11.24-10.77 19.98-22.35 19.98-12.43 0-22.5-10.07-22.5-22.5s10.07-22.5 22.5-22.5c4.16 0 8.05 1.13 11.39 3.1-.09-1.02-.14-2.05-.14-3.1 0-18.64 15.11-33.75 33.75-33.75a33.6 33.6 0 0 1 22.58 8.67c1.33-23.65 20.94-42.42 44.92-42.42 9.98 0 19.2 3.25 26.67 8.75 27.31-28.5 65.75-46.25 108.33-46.25 13.94 0 27.43 1.9 40.23 5.46zM680.55 556.67v45H669.3v-11.25h-90c0 24.85-20.15 45-45 45s-45-20.15-45-45h-11.25c0 24.85-20.15 45-45 45s-45-20.15-45-45H376.8c0 24.85-20.15 45-45 45s-45-20.15-45-45h-11.25v22.5H219.3c0 12.43-10.07 22.5-22.5 22.5s-22.5-10.07-22.5-22.5 10.07-22.5 22.5-22.5h-45v11.25h-11.25v-45h11.25v11.25h33.75v-112.5h33.75v-45h33.75v45h67.5c0-12.43 10.07-22.5 22.5-22.5s22.5 10.07 22.5 22.5h67.5v-22.5h22.5v22.5h45v-45h112.5v22.5h-22.5v45h45v90h33.75v-11.25zM95.55 635.42h625v22.5h-625z"/>
</svg>
