<svg xmlns="http://www.w3.org/2000/svg" viewBox="0 0 262.277 262.277" role="img" aria-labelledby="title">
  <title id="title">Verkehrszeichen A-T-1 - AT-1: sygnalizacja świetlna</title>
  <path d="M245.529 399.662V652.7h253.037V399.662z" style="fill:#fff;stroke:#000;stroke-width:9.24019146;stroke-miterlimit:4;stroke-dasharray:none;stroke-opacity:1" transform="translate(-240.909 -395.042)"/>
  <path d="M381.562 442.205q-1.59-.008-3.24.035c-24.61 0-45.043 19.885-45.043 44.385 0 14.167 6.712 27.142 17.104 35.27 0 0 18.715 11.36 20.605 12.37 28.755 14.896 31.566 27.415 25.507 38.401-18.87 19.482-45.723 8.974-68.451 1.855l-9.822 26.208c18.878 6.743 37.3 9.43 59.173 9.43 26.765 0 48.477-21.626 48.477-48.27 0-16.099-7.95-30.366-20.132-39.136-13.205-7.221-26.702-15.168-39.935-22.78-2.792-1.879-6.897-9.68-5.532-17.18 1.368-7.498 7.552-11.949 10.995-12.806 15.162-2.266 30.662 1.385 45.133 5.739l7.896-27.1c-14.706-2.626-26.807-6.344-42.735-6.421" style="fill:#000;fill-opacity:1;stroke:none;stroke-width:7;stroke-miterlimit:4;stroke-dasharray:none;stroke-opacity:1" transform="translate(-240.909 -395.042)"/>
</svg>
