<svg xmlns="http://www.w3.org/2000/svg" viewBox="0 0 821.1 725.42" role="img" aria-labelledby="title">
  <title id="title">Verkehrszeichen A-11 - A-11: nierówna droga</title>
  <path fill="#d40000" d="M363.78 27 7.32 644.42c-20.78 36 5.2 81 46.77 81h712.94c41.57 0 67.55-45 46.77-81L457.32 27c-20.78-36-72.75-36-93.53 0Z"/>
  <path fill="#febe0b" d="M33.3 659.42 389.77 42c9.24-16 32.33-16 41.57 0l356.47 617.42c9.24 16-2.31 36-20.78 36H54.08c-18.48 0-30.02-20-20.78-36"/>
  <path d="M725.55 590.42v75h-630v-75h45c20.76 0 39.33-9.37 51.71-24.11q2.295-2.73 4.29-5.7l24.73-32.84.36-.47c12.31-16.33 31.88-26.88 53.91-26.88s41.97 10.76 54.27 27.35l24.73 32.84q1.995 2.97 4.29 5.7c12.38 14.74 30.95 24.11 51.71 24.11s39.33-9.37 51.71-24.11q2.295-2.73 4.29-5.7l24.73-32.84c12.3-16.59 32.03-27.35 54.27-27.35s41.6 10.55 53.91 26.88l.36.47 24.73 32.84q1.995 2.97 4.29 5.7c12.38 14.74 30.95 24.11 51.71 24.11z"/>
</svg>
