<svg xmlns="http://www.w3.org/2000/svg" viewBox="0 0 821.1 725.42" role="img" aria-labelledby="title">
  <title id="title">Verkehrszeichen A-32 - A-32: oszronienie jezdni</title>
  <path fill="#d40000" d="M363.78 27 7.32 644.42c-20.78 36 5.2 81 46.77 81h712.94c41.57 0 67.55-45 46.77-81L457.32 27c-20.78-36-72.75-36-93.53 0Z"/>
  <path fill="#febe0b" d="M33.3 659.42 389.77 42c9.24-16 32.33-16 41.57 0l356.47 617.42c9.24 16-2.31 36-20.78 36H54.08c-18.48 0-30.02-20-20.78-36"/>
  <path d="m540.03 517.18 32.03 18.5-11.25 19.48-32.03-18.49v22.82l-22.51 3.03.01-38.84-84.48-48.78v97.55l33.64 19.42-13.88 17.97-19.76-11.41v36.99h-22.5v-36.99l-19.76 11.41-13.88-17.97 33.64-19.42V474.9l-84.48 48.78.01 38.84-22.51-3.03v-22.82l-32.03 18.49-11.25-19.48 32.03-18.5-19.76-11.41 8.63-21 33.63 19.42 84.48-48.77-84.48-48.77-33.63 19.42-8.63-21 19.76-11.41-32.03-18.5 11.25-19.48 32.03 18.49v-22.82l22.51-3.03-.01 38.84 84.48 48.78v-97.55l-33.64-19.42L379.54 301l19.76 11.41v-36.99h22.5v36.99L441.56 301l13.88 17.97-33.64 19.42v97.55l84.48-48.78-.01-38.84 22.51 3.03v22.82l32.03-18.49 11.25 19.48-32.03 18.5 19.76 11.41-8.63 21-33.63-19.42-84.48 48.77 84.48 48.77 33.63-19.42 8.63 21z"/>
</svg>
