<svg xmlns="http://www.w3.org/2000/svg" viewBox="0 0 821.1 725.42" role="img" aria-labelledby="title">
  <title id="title">Verkehrszeichen A-31 - A-31: niebezpieczne pobocze</title>
  <path fill="#d40000" d="M363.78 27 7.32 644.42c-20.78 36 5.2 81 46.77 81h712.94c41.57 0 67.55-45 46.77-81L457.32 27c-20.78-36-72.75-36-93.53 0Z"/>
  <path fill="#febe0b" d="M33.3 659.42 389.77 42c9.24-16 32.33-16 41.57 0l356.47 617.42c9.24 16-2.31 36-20.78 36H54.08c-18.48 0-30.02-20-20.78-36"/>
  <path d="M365.55 601.67h56.25v33.75h-56.25zM140.55 567.92h225v33.75h-225zM444.3 601.67h56.25v33.75H444.3zM523.05 601.67h56.25v33.75h-56.25zM601.8 601.67h56.25v33.75H601.8z"/>
  <path d="m551.54 412.39-7.83-93.14-72.69-11.88-118.97-15.66-73.29-7.33-31.63 87.84-12.89 9.89-17.62 133.85 14.87 1.96-5.87 44.62 44.62 5.87 5.87-44.62 208.2 27.41-5.87 44.62 44.62 5.87 5.87-44.62 14.87 1.96 17.62-133.85-9.88-12.78Zm-276.3-40.03 18.24-58.12 228.28 30.05 2.58 60.86z"/>
</svg>
