<svg xmlns="http://www.w3.org/2000/svg" viewBox="0 0 821.1 725.42" role="img" aria-labelledby="title">
  <title id="title">Verkehrszeichen A-5 - A-5: skrzyżowanie dróg</title>
  <path fill="#d40000" d="M363.78 27 7.32 644.42c-20.78 36 5.2 81 46.77 81h712.94c41.57 0 67.55-45 46.77-81L457.32 27c-20.78-36-72.75-36-93.53 0Z"/>
  <path fill="#febe0b" d="M33.3 659.42 389.77 42c9.24-16 32.33-16 41.57 0l356.47 617.42c9.24 16-2.31 36-20.78 36H54.08c-18.48 0-30.02-20-20.78-36"/>
  <path d="M474.19 455.42 577.37 558.6l-63.64 63.64-103.18-103.18-103.18 103.18-63.64-63.64 103.18-103.18-103.18-103.18 63.64-63.64 103.18 103.18L513.73 288.6l63.64 63.64z"/>
</svg>
