<svg xmlns="http://www.w3.org/2000/svg" viewBox="0 0 821.1 725.42" role="img" aria-labelledby="title">
  <title id="title">Verkehrszeichen A-29 - A-29: sygnały świetlne</title>
  <path fill="#d40000" d="M363.78 27 7.32 644.42c-20.78 36 5.2 81 46.77 81h712.94c41.57 0 67.55-45 46.77-81L457.32 27c-20.78-36-72.75-36-93.53 0Z"/>
  <path fill="#febe0b" d="M33.3 659.42 389.77 42c9.24-16 32.33-16 41.57 0l356.47 617.42c9.24 16-2.31 36-20.78 36H54.08c-18.48 0-30.02-20-20.78-36"/>
  <circle cx="410.55" cy="252.92" r="67.5"/>
  <circle cx="410.55" cy="252.92" r="52.5" fill="#d40000"/>
  <circle cx="410.55" cy="410.42" r="67.5"/>
  <circle cx="410.55" cy="410.42" r="52.5" fill="#febe0b"/>
  <circle cx="410.55" cy="567.92" r="67.5"/>
  <circle cx="410.55" cy="567.92" r="52.5" fill="#009200"/>
</svg>
