<svg xmlns="http://www.w3.org/2000/svg" viewBox="0 0 821.1 725.42" role="img" aria-labelledby="title">
  <title id="title">Verkehrszeichen A-12c - A-12c: zwężenie jezdni lewostronne</title>
  <path fill="#d40000" d="m457.32 27 356.47 617.42c20.78 36-5.2 81-46.77 81H54.08c-41.57 0-67.55-45-46.77-81L363.78 27c20.78-36 72.75-36 93.53 0Z"/>
  <path fill="#febe0b" d="M33.3 659.42 389.77 42c9.24-16 32.33-16 41.57 0l356.47 617.42c9.24 16-2.31 36-20.78 36H54.08c-18.48 0-30.02-20-20.78-36"/>
  <path d="M410.55 230.42v162.96l-67.5 67.5v197.04h-67.5v-225l67.5-67.5v-135zM523.05 657.93h-67.5v-427.5h67.5z"/>
</svg>
