<svg xmlns="http://www.w3.org/2000/svg" viewBox="0 0 821.1 725.42" role="img" aria-labelledby="title">
  <title id="title">Verkehrszeichen A-33 - A-33: zator drogowy</title>
  <path fill="#d40000" d="M363.78 27 7.32 644.42c-20.78 36 5.2 81 46.77 81h712.94c41.57 0 67.55-45 46.77-81L457.32 27c-20.78-36-72.75-36-93.53 0Z"/>
  <path fill="#febe0b" d="M33.3 659.42 389.77 42c9.24-16 32.33-16 41.57 0l356.47 617.42c9.24 16-2.31 36-20.78 36H54.08c-18.48 0-30.02-20-20.78-36"/>
  <path d="m401.95 491.88-14.94-68.49-55.22-1.72h-90l-55.22 1.72-14.92 68.41-8.62 8.62v101.25h11.25v33.75h33.75v-33.75h157.5v33.75h33.75v-33.75h11.25V500.42l-8.6-8.54Zm-209.37-2.71 7.88-45h172.69l7.88 45H192.59Z"/>
  <path d="m492.74 445.61-13.59-62.26-50.19-1.57h-81.82l-50.19 1.57-6.72 30.82h17.24l2.09-11.93h156.98l7.16 40.91H399l9.81 44.97 9.24 9.18v48.12h41.59v30.68h30.68v-30.68h10.23v-92.05z"/>
  <path d="m583.52 387.3-12.23-56.04-45.17-1.41h-73.64l-45.17 1.41-9.38 43.02h16.17l4.56-26.02h141.28l6.45 36.82H487.2l12.4 56.77 8.45 8.4v26.87h45.68v27.62h27.62v-27.62h9.2v-82.84z"/>
</svg>
