<svg xmlns="http://www.w3.org/2000/svg" viewBox="0 0 821.1 725.42" role="img" aria-labelledby="title">
  <title id="title">Verkehrszeichen A-14 - A-14: roboty na drodze</title>
  <path fill="#d40000" d="M363.78 27 7.32 644.42c-20.78 36 5.2 81 46.77 81h712.94c41.57 0 67.55-45 46.77-81L457.32 27c-20.78-36-72.75-36-93.53 0Z"/>
  <path fill="#febe0b" d="M33.3 659.42 389.77 42c9.24-16 32.33-16 41.57 0l356.47 617.42c9.24 16-2.31 36-20.78 36H54.08c-18.48 0-30.02-20-20.78-36"/>
  <path d="M568.05 680.42 669.3 534.17l101.25 146.25zM551.76 517.48l-15.84 25.34-80.37-45.21V292.3l-45-28.13-76.15 15.86-60.7 12.65c-6.04 19.66-26.92 87.49-26.92 87.49l-16.7-9.4-9.55 11.84 12.83 7.22-2.94 3.64 10.46 5.88 21.76 12.24 2.21-4.05 10.02 5.63-44.32 267.25h85.5l-40.5-45 44.14-165.58 45.86 75.58v135h90l-45-45v-90l-35.22-70.43-3.68-7.37 50.15 28.21v5.29l33.75 18.99v-5.3l72.42 40.74-14.39 23.03 74.6 42.63 38.19-61.1zM285.23 401.79l-13.2-7.42 40.34-73.95h46.96zm136.57 76.84-62.12-34.95-7.98-15.95 70.1-62.31z"/>
  <circle cx="470.55" cy="252.92" r="30"/>
  <path d="m50.55 680.42 78.75-67.5 78.75 67.5z"/>
</svg>
