<svg xmlns="http://www.w3.org/2000/svg" viewBox="0 0 821.1 725.42" role="img" aria-labelledby="title">
  <title id="title">Verkehrszeichen A-26 - A-26: lotnisko</title>
  <path fill="#d40000" d="M363.78 27 7.32 644.42c-20.78 36 5.2 81 46.77 81h712.94c41.57 0 67.55-45 46.77-81L457.32 27c-20.78-36-72.75-36-93.53 0Z"/>
  <path fill="#febe0b" d="M33.3 659.42 389.77 42c9.24-16 32.33-16 41.57 0l356.47 617.42c9.24 16-2.31 36-20.78 36H54.08c-18.48 0-30.02-20-20.78-36"/>
  <path d="M607.43 500.42h-26.52l-37.85-58.87-76.26 13.87h-33.11l44.57 180h-29.71l-104-180h-91.5l-67.5-22.5 67.5-22.5h91.5l104-180h29.71l-44.57 180h33.11l76.15 13.85 37.59-58.85h26.76l-16.75 67.5z"/>
</svg>
