<svg xmlns="http://www.w3.org/2000/svg" viewBox="0 0 821.1 725.42" role="img" aria-labelledby="title">
  <title id="title">Verkehrszeichen A-24 - A-24: rowerzyści</title>
  <path fill="#d40000" d="M363.78 27 7.32 644.42c-20.78 36 5.2 81 46.77 81h712.94c41.57 0 67.55-45 46.77-81L457.32 27c-20.78-36-72.75-36-93.53 0Z"/>
  <path fill="#febe0b" d="M33.3 659.42 389.77 42c9.24-16 32.33-16 41.57 0l356.47 617.42c9.24 16-2.31 36-20.78 36H54.08c-18.48 0-30.02-20-20.78-36"/>
  <circle cx="410.55" cy="129.17" r="33.75"/>
  <path d="M577.31 462.7c-17.1 0-33.24 4.16-47.44 11.52l-14.93-24.12c6.12-21.44 27.29-95.6 29.32-102.68-12.65-29.54-38.39-89.6-50.91-118.8-9.22-16.62-31.9-57.95-40.85-74.04l-41.95 17.98c-24.05 45.23-62.57 117.66-86.59 162.88l.09.2h-2.9c-11.25 0-21.29 7.55-24.41 18.36l-32.01 110.83c-6.76-1.4-13.77-2.13-20.94-2.13-57.02 0-103.24 46.22-103.24 103.23s46.22 103.24 103.24 103.24 103.23-46.22 103.23-103.24c0-44.28-27.87-82.04-67.03-96.7l5.93-20.55 85.14 73.26-14.51 9.98c6.59-.7 14.57-1.56 23.22-2.49l26.1 22.46c-2.09 4.23-3.26 9-3.26 14.04 0 17.55 14.21 31.77 31.76 31.77 14.81 0 27.24-10.12 30.77-23.82h8.25c1.48 7.06 2.91 13.83 4.24 20.16-10.46 8.17-25.38 19.81-38.91 30.37l1.95 11.74c17.48-2.84 35.88-5.83 53.71-8.73 18.81 25.33 48.95 41.75 82.93 41.75 57.02 0 103.24-46.22 103.24-103.24S634.33 462.7 577.31 462.7M331.14 565.93c0 48.25-39.11 87.36-87.35 87.36s-87.36-39.11-87.36-87.36 39.11-87.35 87.36-87.35c5.64 0 11.16.53 16.5 1.57l-20.32 70.36c-6.93 1.71-12.07 7.97-12.07 15.42 0 8.78 7.11 15.89 15.89 15.89s15.88-7.11 15.88-15.89c0-4.27-1.69-8.14-4.44-10.99s20.34-70.39 20.34-70.39c32.52 12.7 55.57 44.35 55.57 81.38m-19.15-207.52c1.18-4.05 4.94-6.89 9.16-6.89h26.15l5.47-7.77c20.15-28.66 48.29-68.71 62.07-88.32l42.35 68.81c-28.44 22.47-65.05 51.43-94.8 74.93h-62.17zm154.31 32.45c-.17 1.02-.67 4.02-1.38 8.31h-12.74c5.38-3.17 10.28-6.05 14.12-8.31m-81.7 121.77-93.83-80.73 4.86-16.85h64.38c11.62 25.68 30.16 66.62 39.53 87.31zm51.5 21.59c-.57-.03-1.15-.05-1.73-.05-6.74 0-13 2.1-18.13 5.69l-14.81-12.75 38.22-4.09zm-26.18-110.2c4.11-2.41 9.42-5.54 15.24-8.97h37.12c-3.96 23.74-9.44 56.49-9.87 59.19.35 1.68.72 3.4 1.08 5.14l-7.71 24.33c-11.54-25.65-26.47-58.83-35.86-79.69m55.22 133.97c-2.05-7.96-7.11-14.72-13.9-18.98l8.89-28.05c3.26 15.46 6.66 31.61 9.91 47.03zm40.15-74.16c1.18-4.12 2.44-8.51 3.75-13.1l7.34 11.86c-3.48 2.55-6.79 5.31-9.92 8.26zm19.49 12.31 38.28 61.85h.51c-.09.15-.17.29-.24.43l-.27-.43h-45.41c-2.69-16.11-5.4-32.35-7.91-47.42a87.8 87.8 0 0 1 15.04-14.43m52.53 157.15c-25.72 0-48.84-11.12-64.83-28.81 5.4-.88 10.68-1.74 15.82-2.57-2.38-14.27-5.14-30.83-8.01-48.03h43.28c2.74 4.74 7.87 7.94 13.74 7.94 8.78 0 15.89-7.11 15.89-15.89s-7.11-15.88-15.89-15.88c-.15 0-.32 0-.48.02l-38.56-62.29c11.75-5.89 25.01-9.2 39.04-9.2 48.25 0 87.36 39.11 87.36 87.35s-39.11 87.36-87.36 87.36"/>
</svg>
