<svg xmlns="http://www.w3.org/2000/svg" viewBox="0 0 821.1 725.42" role="img" aria-labelledby="title">
  <title id="title">Verkehrszeichen A-22 - A-22: niebezpieczny zjazd</title>
  <path fill="#d40000" d="M363.78 27 7.32 644.42c-20.78 36 5.2 81 46.77 81h712.94c41.57 0 67.55-45 46.77-81L457.32 27c-20.78-36-72.75-36-93.53 0Z"/>
  <path fill="#febe0b" d="M33.3 659.42 389.77 42c9.24-16 32.33-16 41.57 0l356.47 617.42c9.24 16-2.31 36-20.78 36H54.08c-18.48 0-30.02-20-20.78-36"/>
  <path d="m43.92 677.01 183.2-317.3 81.73 47.19 155.51 89.78L776.7 677.01z"/>
  <path d="M477.73 425.32v-64.19l-89.89-51.89-95.17 35.8-11.5 19.93 19.46 11.23c-6.21 10.75-2.52 24.49 8.22 30.7 10.75 6.2 24.49 2.52 30.7-8.23l116.58 67.31c-6.2 10.75-2.52 24.49 8.23 30.7 10.75 6.2 24.49 2.52 30.69-8.23l19.64 11.34 23.01-39.85zm-117.68-67.94 21.37-37.02 54 31.17-21.37 37.02zm109.12 63-49.19-28.4 21.37-37.02 27.82 16.05z"/>
</svg>
