<svg xmlns="http://www.w3.org/2000/svg" viewBox="0 0 821.1 725.42" role="img" aria-labelledby="title">
  <title id="title">Verkehrszeichen A-23 - A-23: stromy podjazd</title>
  <path fill="#d40000" d="M363.78 27 7.32 644.42c-20.78 36 5.2 81 46.77 81h712.94c41.57 0 67.55-45 46.77-81L457.32 27c-20.78-36-72.75-36-93.53 0Z"/>
  <path fill="#febe0b" d="M33.3 659.42 389.77 42c9.24-16 32.33-16 41.57 0l356.47 617.42c9.24 16-2.31 36-20.78 36H54.08c-18.48 0-30.02-20-20.78-36"/>
  <path fill-rule="evenodd" d="m44.4 677.01 549.58-317.3 183.19 317.3z"/>
  <path d="m442.63 421.14-23-39.84-59.97 34.62-55.59-32.09-89.89 51.89-16.57 100.33 11.5 19.92 19.46-11.24c6.21 10.75 19.95 14.43 30.7 8.23 10.74-6.21 14.43-19.95 8.22-30.7l116.59-67.31c6.2 10.75 19.94 14.43 30.69 8.23 10.75-6.21 14.43-19.95 8.23-30.7zm-201.11 62.88-21.4-37.07 54.07-31.21 21.4 37.07zm60.01-34.64-21.4-37.07 27.85-16.08 42.8 24.71z"/>
</svg>
