<svg xmlns="http://www.w3.org/2000/svg" viewBox="0 0 800 800" role="img" aria-labelledby="title">
  <title id="title">Verkehrszeichen B-16 - B-16: zakaz wjazdu pojazdów wyższych, niż określono na znaku (tu: 3,5 m)</title>
  <circle cx="400" cy="400" r="400" fill="#d40000"/>
  <circle cx="400" cy="400" r="320" fill="#fff"/>
  <path d="M486.53 91.84 400 200 313.47 91.84C340.99 84.13 370.01 80 400 80s59.01 4.13 86.53 11.84M284.26 437.5c0 10.66-2.14 20.38-6.43 29.17-11.07 22.52-34.83 38.04-60.24 37.5-18.33 0-34.03-6.46-47.08-19.38-13.06-12.91-19.58-28.68-19.58-47.29h33.33c0 9.17 3.26 17.02 9.79 23.54 6.53 6.53 14.38 9.79 23.54 9.79 9.24.02 17.15-3.39 23.55-9.79 6.52-6.52 9.79-14.37 9.79-23.54s-3.27-17.01-9.79-23.54c-6.53-6.53-14.38-9.79-23.55-9.79-2.78 0-5.56.41-8.33 1.25v-27.5c2.77.83 5.55 1.25 8.33 1.25 6.94 0 12.85-2.43 17.71-7.3 4.86-4.85 7.29-10.76 7.29-17.7s-2.43-12.85-7.29-17.71-10.77-7.29-17.71-7.29-12.85 2.43-17.7 7.29c-4.87 4.86-7.3 10.77-7.3 17.71h-33.33c0-16.11 5.69-29.86 17.08-41.25s25.14-17.09 41.25-17.09 29.86 5.7 41.25 17.09 17.09 25.14 17.09 41.25c0 13.06-3.9 24.72-11.67 35 13.33 13.33 20 29.44 20 48.33M304.5 500v-26.67h26.67c0 11.33-2.95 21.78-8.83 31.33-5.89 9.55-13.72 16.88-23.5 22l5.67-26.67ZM394.83 366.67l-2.33 28c3.78-.89 7.55-1.33 11.33-1.33 14.67 0 27.22 5.22 37.67 15.67 10.44 10.45 15.67 23 15.67 37.67s-5.22 27.22-15.67 37.67-23 15.67-37.67 15.67c-2.67 0-5.45-.22-8.33-.67l-37.67-6 2-26.67 39.67 6.33c1.55.22 3 .33 4.33.33 7.33 0 13.61-2.55 18.83-7.67 5.22-5.11 7.83-11.44 7.83-19s-2.61-13.89-7.83-19-11.5-7.67-18.83-7.67h-40l6.67-80h80v26.67zM493 393.33h26.67v13.33c6.67-8.89 15.55-13.33 26.67-13.33 10.22 0 18.67 3.89 25.33 11.67 7.78-7.78 17.11-11.67 28-11.67S620.22 397.22 628 405s11.67 17.22 11.67 28.33V500H613v-63.33c0-4.67-1.61-8.61-4.83-11.83s-7.17-4.83-11.83-4.83-8.61 1.61-11.83 4.83-4.83 7.17-4.83 11.83V500h-26.67v-63.33c0-4.67-1.61-8.61-4.83-11.83s-7.17-4.83-11.83-4.83-8.61 1.61-11.83 4.83-4.83 7.17-4.83 11.83V500h-26.67V393.33ZM486.53 708.16C459.01 715.87 429.99 720 400 720s-59.01-4.13-86.53-11.84L400 600z"/>
</svg>
