<svg xmlns="http://www.w3.org/2000/svg" viewBox="0 0 800 800" role="img" aria-labelledby="title">
  <title id="title">Verkehrszeichen B-11 - B-11: zakaz wjazdu wózków rowerowych</title>
  <circle cx="400" cy="400" r="400" fill="#d40000"/>
  <circle cx="400" cy="400" r="320" fill="#fff"/>
  <path d="M340 240v80H120v95h20.68c-6.84 13.52-10.68 28.81-10.68 45 0 55.23 44.77 100 100 100s100-44.77 100-100c0-14.22-2.97-27.75-8.33-40H350V250h20v-10zM230 544c-46.32 0-84-37.68-84-84 0-14.47 3.68-28.1 10.14-40H220v22.69c-5.98 3.45-10 9.91-10 17.31 0 11.05 8.95 20 20 20 7.4 0 13.86-4.02 17.31-10h58.03c.44-3.27.66-6.61.66-10 0-6.92-.93-13.63-2.66-20H240v-20h63.86A83.6 83.6 0 0 1 314 460c0 46.32-37.68 84-84 84"/>
  <path d="M590 360c-17.54 0-34.02 4.51-48.35 12.45l-24.41-39.05 4-13.61L579.5 270H460v25.4l46.31 18.44L469.21 440H336.14c1.23 6.48 1.86 13.17 1.86 20 0 3.37-.15 6.71-.46 10H440c0 11.05 8.95 20 20 20 6.5 0 12.26-3.09 15.91-7.89l16.15-1.79C501.45 525.8 541.73 560 590 560c55.23 0 100-44.77 100-100s-44.77-100-100-100m-99.9 104.43-10.59 1.18-1.2.13.64-2.15 32.25-109.67 17.11 27.37C504.98 399.6 490 428.05 490 460c0 1.48.03 2.96.1 4.43M506 460c0-26.17 12.03-49.59 30.86-65.01l35.16 56.25c-.66 1.34-1.17 2.77-1.5 4.26l-64.47 7.16c-.04-.88-.05-1.77-.05-2.66m84 84c-39.95 0-73.48-28.03-81.94-65.46l65.42-7.27c3.6 5.27 9.65 8.73 16.52 8.73 11.05 0 20-8.95 20-20s-8.95-20-20-20c-1.95 0-3.84.28-5.63.81l-34.22-54.75C562.01 379.65 575.59 376 590 376c46.32 0 84 37.68 84 84s-37.68 84-84 84"/>
  <path d="M440 410h30v10h-30zM450 520h30v10h-30z"/>
</svg>
