<svg xmlns="http://www.w3.org/2000/svg" viewBox="0 0 800 800" role="img" aria-labelledby="title">
  <title id="title">Verkehrszeichen B-17 - B-17: zakaz wjazdu pojazdów dłuższych, niż określono na znaku (tu: 6 m)</title>
  <circle cx="400" cy="400" r="400" fill="#d40000"/>
  <circle cx="400" cy="400" r="320" fill="#fff"/>
  <path fill-rule="evenodd" d="M620 200H270l-20 20v20h-50.5L186 300l-36 20v70h-10v10h10v15h45c0 24.85 20.15 45 45 45s45-20.15 45-45h190c0 24.85 20.15 45 45 45s45-20.15 45-45h75V220zm-414.79 70H250v30h-50.93z"/>
  <path d="m130 560 110-30v60zM366.85 655.13c-11.56 11.56-25.44 17.33-41.67 17.33s-30.12-5.77-41.67-17.33c-11.56-11.55-17.33-25.44-17.33-41.67 0-10.81 2.7-20.77 8.11-29.87l56.42-95.51H365l-39.09 66.38c15.98.25 29.68 6.08 41.12 17.52s17.15 25.26 17.15 41.48-5.78 30.12-17.33 41.67m-20.83-62.69c-5.78-5.65-12.72-8.48-20.83-8.48s-15.06 2.83-20.83 8.48c-5.78 5.66-8.67 12.66-8.67 21.02s2.89 15.43 8.67 21.2c5.77 5.78 12.72 8.67 20.83 8.67s15.06-2.89 20.83-8.67c5.77-5.77 8.67-12.84 8.67-21.2s-2.89-15.36-8.67-21.02M416.17 579.13h23.33v11.67c5.83-7.77 13.61-11.67 23.33-11.67 8.94 0 16.33 3.4 22.17 10.21 6.8-6.8 14.97-10.21 24.5-10.21s17.98 3.4 24.79 10.21c6.8 6.81 10.21 15.07 10.21 24.79v58.33h-23.33v-55.42q0-6.12-4.23-10.35t-10.35-4.23c-6.12 0-7.54 1.41-10.35 4.23q-4.23 4.23-4.23 10.35v55.42h-23.33v-55.42q0-6.12-4.23-10.35t-10.35-4.23c-6.12 0-7.54 1.41-10.35 4.23q-4.23 4.23-4.23 10.35v55.42h-23.33v-93.33ZM670 560l-110-30v60z"/>
</svg>
