<svg xmlns="http://www.w3.org/2000/svg" viewBox="0 0 800 800" role="img" aria-labelledby="title">
  <title id="title">Verkehrszeichen B-13a - B-13a: zakaz wjazdu pojazdów z towarami niebezpiecznymi</title>
  <circle cx="400" cy="400" r="400" fill="#d40000"/>
  <circle cx="400" cy="400" r="320" fill="#fff"/>
  <path d="M280 160h240c22.08 0 40 17.92 40 40v253.33H240V200c0-22.08 17.92-40 40-40"/>
  <path fill="#ff9600" d="M552 200v245.33H248V200c0-17.66 14.34-32 32-32h240c17.66 0 32 14.34 32 32"/>
  <path d="M560 469.19v121.62c-6.29 2.07-13.01 3.19-20 3.19s-13.71-1.12-20-3.19V560h-6.67v-20h-96.02c-3.45 5.98-9.91 10-17.31 10s-13.86-4.02-17.31-10h-96.02v20H280v30.81c-6.29 2.07-13.01 3.19-20 3.19s-13.71-1.12-20-3.19V469.19c6.29-2.07 13.01-3.19 20-3.19s13.71 1.12 20 3.19V500h6.67v20h96.02c3.45-5.98 9.91-10 17.31-10s13.86 4.02 17.31 10h96.02v-20H520v-30.81c6.29-2.07 13.01-3.19 20-3.19s13.71 1.12 20 3.19"/>
</svg>
