<svg xmlns="http://www.w3.org/2000/svg" viewBox="0 0 800 800" role="img" aria-labelledby="title">
  <title id="title">Verkehrszeichen B-19 - B-19: zakaz wjazdu pojazdów o nacisku osi większym niż określono na znaku (tu: 10 t)</title>
  <circle cx="400" cy="400" r="400" fill="#d40000"/>
  <circle cx="400" cy="400" r="320" fill="#fff"/>
  <path d="M205.38 233.33c9.17 0 17.01-3.26 23.54-9.79 6.52-6.52 9.79-14.38 9.79-23.54h33.33v200h-33.33V266.67h-33.33v-33.33ZM322.96 300c0-18.61 3.89-39.17 11.67-61.67 4.17-11.39 11.25-20.62 21.25-27.71S377.13 200 389.63 200s23.75 3.54 33.75 10.62 17.08 16.32 21.25 27.71c7.77 22.5 11.67 43.06 11.67 61.67s-3.89 39.17-11.67 61.67c-4.17 11.39-11.25 20.62-21.25 27.71S402.13 400 389.63 400s-23.75-3.54-33.75-10.62-17.08-16.31-21.25-27.71c-7.78-22.5-11.67-43.05-11.67-61.67m33.33 0c0 16.95 2.77 33.48 8.33 49.58 1.67 5 4.79 9.1 9.38 12.29 4.58 3.2 9.79 4.79 15.62 4.79s11.04-1.59 15.63-4.79c4.58-3.19 7.71-7.29 9.38-12.29 5.55-16.11 8.33-32.64 8.33-49.58s-2.78-33.47-8.33-49.58c-1.67-5-4.79-9.09-9.38-12.29-4.58-3.19-9.79-4.79-15.63-4.79s-11.04 1.6-15.62 4.79c-4.58 3.2-7.71 7.29-9.38 12.29-5.56 16.11-8.33 32.64-8.33 49.58M533 266.67 559.67 240v53.33h20V320h-20v40c0 3.78 1.28 6.95 3.83 9.5 2.55 2.56 5.72 3.83 9.5 3.83h14L573 400c-11.11 0-20.56-3.89-28.33-11.67C536.89 380.55 533 371.11 533 360v-40h-20v-26.67h20v-26.67ZM620 490v60h-10v46.01c-7.87 2.59-16.27 3.99-25 3.99s-17.13-1.4-25-3.99V560h-10v-25H431.63c-5.62 11.82-17.67 20-31.63 20s-26.01-8.18-31.63-20H250v25h-10v36.01c-7.87 2.59-16.27 3.99-25 3.99s-17.13-1.4-25-3.99V550h-10v-60h10v-46.01c7.87-2.59 16.27-3.99 25-3.99s17.13 1.4 25 3.99V480h10v25h118.37c5.62-11.82 17.67-20 31.63-20s26.01 8.18 31.63 20H550v-25h10v-36.01c7.87-2.59 16.27-3.99 25-3.99s17.13 1.4 25 3.99V490z"/>
</svg>
