<svg xmlns="http://www.w3.org/2000/svg" viewBox="0 0 800 800" role="img" aria-labelledby="title">
  <title id="title">Verkehrszeichen B-9 - B-9: zakaz wjazdu rowerów</title>
  <circle cx="400" cy="400" r="400" fill="#d40000"/>
  <circle cx="400" cy="400" r="320" fill="#fff"/>
  <path d="M566.76 353.53c-17.11 0-33.24 4.16-47.44 11.52L480.91 303l9.16-28.88h36.98v-31.76h-95.29c-4.38 0-7.94 3.56-7.94 7.93 0 2.5 1.18 4.86 3.18 6.35l46.98 15.67-5.61 17.69H289.65l11.78-40.76c1.18-4.05 4.94-6.88 9.16-6.88h25.87v-15.88h-25.87c-11.25 0-21.29 7.55-24.41 18.36l-32.01 110.83c-6.76-1.4-13.76-2.13-20.94-2.13-57.02 0-103.24 46.22-103.24 103.24s46.22 103.24 103.24 103.24 103.24-46.22 103.24-103.24c0-44.28-27.87-82.05-67.03-96.71l5.93-20.55 119.95 103.21a31.66 31.66 0 0 0-3.26 14.05c0 17.55 14.21 31.76 31.76 31.76 14.81 0 27.24-10.12 30.76-23.82h9.24c4.06 53.31 48.59 95.29 102.93 95.29 57.02 0 103.24-46.22 103.24-103.24s-46.22-103.24-103.24-103.24ZM320.59 456.76c0 48.24-39.11 87.35-87.35 87.35s-87.35-39.11-87.35-87.35 39.11-87.35 87.35-87.35c5.65 0 11.17.53 16.51 1.56l-20.32 70.37c-6.93 1.71-12.07 7.97-12.07 15.42 0 8.77 7.11 15.88 15.88 15.88s15.88-7.11 15.88-15.88c0-4.27-1.68-8.15-4.44-11s20.34-70.39 20.34-70.39c32.53 12.71 55.57 44.36 55.57 81.39m231.92-7.94h.51c-.09.14-.17.29-.24.43zh-72.73c2.26-25.25 15.29-47.41 34.45-61.85zM423.82 425c-6.74 0-13 2.1-18.14 5.69L280.21 322.73l4.87-16.84h178.26l-37.79 119.17c-.57-.03-1.15-.05-1.73-.05Zm30.77 23.82c-2.05-7.97-7.11-14.72-13.9-18.98l33.9-106.9 31.24 50.47c-23.65 17.32-39.65 44.45-42 75.4h-9.24Zm112.17 95.3c-45.57 0-82.99-34.89-86.99-79.41h73.24c2.74 4.75 7.87 7.94 13.75 7.94 8.77 0 15.88-7.11 15.88-15.88s-7.11-15.88-15.88-15.88c-.16 0-.33 0-.48.02l-38.56-62.29c11.75-5.88 25.01-9.2 39.05-9.2 48.24 0 87.35 39.11 87.35 87.35s-39.11 87.35-87.35 87.35Z"/>
</svg>
