<svg xmlns="http://www.w3.org/2000/svg" viewBox="0 0 800 800" role="img" aria-labelledby="title">
  <title id="title">Verkehrszeichen B-13 - B-13: zakaz wjazdu pojazdów z towarami wybuchowymi lub łatwo zapalnymi</title>
  <circle cx="400" cy="400" r="400" fill="#d40000"/>
  <circle cx="400" cy="400" r="320" fill="#fff"/>
  <path d="M527.88 447.88 517.06 400l-6.02-26.67H288.96L282.94 400l-10.82 47.88-18.79 18.79V590h13.34v40h46.66v-40h173.34v40h46.66v-40h13.34V466.67zM301.02 400h197.96l9.04 50H291.98zm-14.35 100c11.04 0 20 8.95 20 20s-8.96 20-20 20-20-8.95-20-20 8.95-20 20-20m246.66 60H266.67v-10h266.66zm-20-20c-11.04 0-20-8.95-20-20s8.96-20 20-20 20 8.95 20 20-8.95 20-20 20"/>
  <path fill="#d40000" d="m589.01 328.35 44.55-124.32L461.9 311.31l-40.08-165.86-41.44 103.61L300 145.71v128.04l-136.97-42.8 67.64 142.38H138.1L165.72 400 240 471.72l13.33 12.88v-17.93l18.79-18.79L282.94 400l6.02-26.67h222.08l6.02 26.67 10.82 47.88 18.79 18.79V540L560 512.63 614.87 400l30.77-63.15z"/>
  <path fill="#ff9600" fill-rule="evenodd" d="M625.7 347.34 600.04 400 560 482.19v30.44L546.67 540v-73.33l-18.79-18.79L517.06 400l-6.02-26.67H288.96L282.94 400l-10.82 47.88-18.79 18.79v17.93L240 471.72v-18.53L184.91 400l-13.81-13.33h80.66l-63.6-133.9 125.17 39.12V184.57l70.79 91.02 34.56-86.38 34.6 143.21 154.77-96.73-37.07 103.44z"/>
</svg>
