<svg xmlns="http://www.w3.org/2000/svg" viewBox="0 0 500 500" role="img" aria-labelledby="title">
  <title id="title">Verkehrszeichen B-40 - B-40: koniec strefy ograniczonego postoju</title>
  <title>Znak B-40</title>
  <g transform="matrix(.87445 0 0 .88468 0 -478.048)">
    <rect width="571.786" height="565.175" y="540.362" rx="28.131" ry="28.131" style="fill:#000;fill-opacity:1;stroke:none"/>
    <rect width="550.881" height="543.031" x="10.576" y="551.6" rx="17.848" ry="17.848" style="fill:#fff;fill-opacity:1;stroke:none"/>
    <path d="M286.178 608.749c-47.344 0-91.134 14.976-126.784 40.372-.25.174-.504.345-.752.52-6.403 4.52-12.306 9.347-17.67 14.171-.348.31-.696.614-1.041.926-.868.79-1.738 1.584-2.574 2.371a217 217 0 0 0-19.637 20.909c-.277.333-.602.69-.867 1.012q-.597.735-1.186 1.475c-4.583 5.665-7.114 9.37-7.114 9.37l.057.057c-24.656 34.683-39.157 76.91-39.157 122.476 0 117.997 97.032 213.66 216.725 213.66 46.1 0 88.822-14.213 123.95-38.406.495-.333 1.009-.672 1.504-1.013l.491-.347c2.64-1.83 5.25-3.777 7.866-5.812a199 199 0 0 0 3.962-3.153c.027-.022.06-.036.087-.057q.465-.374.926-.752a213 213 0 0 0 3.036-2.573l.608-.52c.097-.086.191-.176.289-.261a216.2 216.2 0 0 0 29.238-30.742c.574-.734 1.147-1.464 1.706-2.198.359-.473.715-.941 1.07-1.417.683-.914 1.34-1.806 1.995-2.718.207-.287.403-.58.608-.868 24.803-34.746 39.388-77.108 39.388-122.822 0-117.998-97.032-213.66-216.724-213.66zm-.116 48.614c92.662 0 167.764 73.887 167.764 165.016 0 32.31-9.45 62.442-25.768 87.888l-231.04-227.773c25.809-15.926 56.331-25.131 89.044-25.131zm-142.198 77.39 230.693 227.8c-25.69 15.718-56.01 24.814-88.495 24.814-92.661 0-167.792-73.859-167.792-164.988 0-32.195 9.378-62.233 25.594-87.627z" style="fill:#a9a8a7;fill-opacity:1;stroke:#a9a8a7;stroke-width:5.22314644;stroke-miterlimit:4;stroke-opacity:1;stroke-dasharray:none"/>
    <path d="M571.786 566.946v23.37L51.402 1105.538h-23.81S0 1104.75 0 1076.544v-21.267l519.4-514.915h27.227c25.159 0 25.124 26.584 25.159 26.584" style="fill:#000;fill-opacity:1;stroke:none"/>
  </g>
</svg>
