<svg xmlns="http://www.w3.org/2000/svg" viewBox="0 0 800 800" role="img" aria-labelledby="title">
  <title id="title">Verkehrszeichen B-8 - B-8: zakaz wjazdu pojazdów zaprzęgowych</title>
  <defs>
    <clipPath id="a">
      <circle cx="400" cy="400" r="320" fill="none"/>
    </clipPath>
  </defs>
  <circle cx="400" cy="400" r="400" fill="#d40000"/>
  <circle cx="400" cy="400" r="320" fill="#fff"/>
  <g clip-path="url(#a)">
    <path d="M720 464.17c17.66 7.71 30 25.33 30 45.83 0 27.61-22.39 50-50 50s-50-22.39-50-50c0-15.68 7.22-29.68 18.53-38.85l-141.74-24.36 17.22 17.22L558 548l-18 12-25-80-65.5-50.5v59.38L410 540l-10 20h-30.08l55.04-80-7.8-50H305.33l14.38 107.81L310 560h-26.36l14.9-27.32-20.05-100.23L205 454.5v33.63l15 9.37V525l-40-30v-56.67l60-25-10-17.55-30-5.15v-11.88l30 4.69V370l-40.37-51.9-61.44 39.49-14.34-19.13 33.43-60.78 6.05-11.01L140 240l19.49 15.44h.01l48.34 10.75c22.61 13.72 59.59 36.17 82.32 49.98 22.92 2.86 46.14 3.33 69.84 3.33 30.28-.01 60.24-2.39 90-7.19l39 25.02 38.45-7.32 13.28 40.81L560 430l-50-30-15-40v55l11.67 11.67L680 453.75V440h-40V340h120v100h-40z"/>
  </g>
</svg>
