<svg xmlns="http://www.w3.org/2000/svg" viewBox="0 0 500 500" role="img" aria-labelledby="title">
  <title id="title">Verkehrszeichen B-3-4 - B-3/4: zakaz wjazdu pojazdów silnikowych</title>
  <g transform="translate(-104.17 -150.934)">
    <path d="M390.424 244.341a140.711 122.875 0 1 1-281.422 0 140.711 122.875 0 1 1 281.422 0" style="fill:#fff;fill-opacity:1;fill-rule:nonzero;stroke:none" transform="matrix(-1.74342 0 0 1.99637 789.525 -86.863)"/>
    <path d="M354.17 150.934c138.002 0 250 112.018 250 250.015 0 137.998-111.998 249.985-250 249.985s-250-111.987-250-249.985c0-137.997 111.997-250.015 250-250.015m0 48.897c-111.025 0-201.132 90.1-201.132 201.118s90.107 201.12 201.132 201.12c111.024 0 201.131-90.102 201.131-201.12 0-111.017-90.107-201.118-201.131-201.118" style="fill:#d40000;fill-opacity:1;fill-rule:nonzero;stroke:none"/>
    <rect width="467.76" height="24.567" x="120.315" y="-413.222" ry="0" style="fill:#d40000;fill-opacity:1;fill-rule:nonzero;stroke:none" transform="scale(1 -1)skewX(.004)"/>
    <path d="m-75.545 735.985 23.914-89.684 14.925-14.925V496.873H-51.63V452.01h-44.818v44.864h-209.249V452.01h-44.818v44.864h-14.967v134.503l14.967 14.925 23.914 89.684zm-11.957-14.925h-227.143l-11.957-59.79h251.057zm13.462-116.897c-12.374 0-22.41-10.013-22.41-22.388 0-12.374 10.036-22.432 22.41-22.432s22.409 10.058 22.409 22.432c0 12.375-10.035 22.388-22.409 22.388m-254.067 0c-12.374 0-22.409-10.013-22.409-22.388 0-12.374 10.035-22.432 22.41-22.432s22.408 10.058 22.408 22.432c0 12.375-10.034 22.388-22.409 22.388m276.476-68.324h-298.885v-14.97H-51.63z" style="fill:#000;fill-opacity:1;fill-rule:evenodd;stroke:none" transform="matrix(-.44683 0 0 -.41806 264.315 549.8)"/>
    <path d="M1137.502 523.336c-11.54 0-20.944 9.412-20.944 20.951 0 7.364 3.847 13.832 9.605 17.557l-2.527 5.346-8.739 4.335c-2.386 1.189-3.689 4.187-4.26 6.79l-16.972 77.233h-54.813v12.932l-38.782 12.86-12.855 51.657h12.855c0 28.499 23.138 51.657 51.636 51.657 19.096 0 35.771-10.077 44.704-25.504h86.734l28.165-51.945h7.8a57.7 57.7 0 0 0-6.067 25.792v25.792h13.433c8.932 15.427 25.607 25.865 44.703 25.865 28.498 0 51.636-23.158 51.636-51.657 0-16.88-8.115-31.903-20.655-41.325l3.828-5.13c-9.712-7.302-21.732-11.632-34.81-11.632-8.577 0-16.718 1.86-24.048 5.202l-11.772-18.134h15.888l2.167-25.792h-33.87l-1.517-5.852.506-3.902c.344-2.814-2-5.257-4.695-6.14l-7.366-2.385-34.376-17.483-33.148-29.694 1.083-5.708c10.329-1.268 18.344-10.065 18.344-20.735 0-11.54-9.332-20.951-20.871-20.951m14.01 95.438 11.05 5.78 34.23 7.225s7.052 3.424 8.812 3.973c1.479.462 4.694.073 4.694.073l1.95 2.095-36.398 1.95-17.838 13.438-17.766-6.068 4.189-12.644zm-99.806 75.643c11.371 0 21.612 4.953 28.671 12.788-9.57.182-19.125.283-28.67 0-14.431 0-26.144 11.361-26.144 25.792 0 14.43 11.713 26.153 26.143 26.153h28.671c-7.059 7.835-17.3 12.427-28.67 12.427-21.29 0-38.565-17.291-38.565-38.58 0-21.29 17.275-38.58 38.564-38.58m219.472 0c21.289 0 38.564 17.29 38.564 38.58s-17.275 38.58-38.564 38.58-38.565-17.291-38.565-38.58c0-12.069 5.54-22.838 14.227-29.91l7.8 9.609c-5.885 4.793-9.605 12.123-9.605 20.301 0 14.43 11.712 26.153 26.143 26.153 14.43 0 26.143-11.723 26.143-26.153s-11.713-26.153-26.143-26.153c-2.124 0-4.234.243-6.211.722l-7.005-10.765c4.124-1.506 8.572-2.384 13.216-2.384m-90.345 12.788h12.854l-12.854 19.362z" style="fill:#000;fill-opacity:1;fill-rule:evenodd;stroke:none" transform="matrix(.45449 0 0 .4543 -170.769 197.435)"/>
  </g>
</svg>
