<svg xmlns="http://www.w3.org/2000/svg" viewBox="0 0 800.02 800.03" role="img" aria-labelledby="title">
  <title id="title">Verkehrszeichen B-34 - B-34: koniec ograniczenia prędkości (tu: 50 km/h)</title>
  <circle cx="400.02" cy="400.02" r="400" fill="#fff"/>
  <g fill="#a8a8a8">
    <path d="m143.26 280-5.25 63c8.5-1.99 16.99-3 25.5-3 33 0 61.24 11.75 84.75 35.25 23.5 23.51 35.25 51.75 35.25 84.75s-11.75 61.25-35.25 84.75S196.51 580 163.51 580c-6 0-12.26-.49-18.75-1.5L60.01 565l4.5-60 89.25 14.25c3.49.5 6.75.75 9.75.75 16.5 0 30.62-5.74 42.38-17.25 11.74-11.5 17.62-25.75 17.62-42.75s-5.88-31.24-17.62-42.75c-11.75-11.5-25.88-17.25-42.38-17.25h-90l15-180h180v60zM500.01 400c0-33.49 7-70.5 21-111 7.5-20.5 20.25-37.12 38.25-49.88S597.51 220 620.01 220s42.75 6.38 60.75 19.12 30.75 29.38 38.25 49.88c13.99 40.5 21 77.51 21 111s-7.01 70.5-21 111c-7.5 20.51-20.25 37.12-38.25 49.88S642.51 580 620.01 580s-42.75-6.38-60.75-19.12-30.75-29.37-38.25-49.88q-21-60.75-21-111m60 0c0 30.5 4.99 60.26 15 89.25 3 9 8.62 16.38 16.88 22.12 8.25 5.75 17.62 8.62 28.12 8.62s19.88-2.87 28.12-8.62c8.25-5.74 13.88-13.12 16.88-22.12 10-28.99 15-58.75 15-89.25s-5-60.25-15-89.25c-3-9-8.62-16.37-16.88-22.12-8.25-5.74-17.62-8.62-28.12-8.62s-19.88 2.88-28.12 8.62c-8.25 5.75-13.88 13.12-16.88 22.12-10.01 29-15 58.76-15 89.25"/>
  </g>
  <path d="M0 400.02c-1.23 222.27 184.51 401.7 400 400 220.91 0 400-179.09 400-400C801.51 177.87 614.92-1.95 400.02.02 179.11.02 0 179.11 0 400.02m200.42 337.45C85.24 669.19 8.02 543.63 8.02 400.02c0-216.5 175.5-392 392-392 30.32 0 59.84 3.44 88.19 9.96zm199.6 54.55c-30.32 0-59.84-3.44-88.19-9.96L599.62 62.57c115.18 68.28 192.4 193.84 192.4 337.45 0 216.5-175.5 392-392 392"/>
</svg>
