<svg xmlns="http://www.w3.org/2000/svg" viewBox="0 0 800 800" role="img" aria-labelledby="title">
  <title id="title">Verkehrszeichen B-26 - B-26: zakaz wyprzedzania przez samochody ciężarowe</title>
  <circle cx="400" cy="400" r="400" fill="#d40000"/>
  <circle cx="400" cy="400" r="320" fill="#fff"/>
  <g fill-rule="evenodd">
    <path fill="#d40000" d="M380 240v280h-50v-50h-40c0 11.05-8.95 20-20 20s-20-8.95-20-20h-40v50h-50V240l20-20h180z"/>
    <path d="m652.36 392.41-13.28-60.88L590 330h-80l-49.08 1.53-13.26 60.81L440 400v90h10v30h30v-30h140v30h30v-30h10v-90zM466.25 390l7-40h153.5l7 40z"/>
  </g>
</svg>
