<svg xmlns="http://www.w3.org/2000/svg" viewBox="0 0 497.188 497.219" role="img" aria-labelledby="title">
  <title id="title">Verkehrszeichen B-32c - B-32c: sygnalizacja uszkodzona</title>
  <path d="M488.407 250.61a239.5 235 0 0 1-479 0 239.5 235 0 1 1 479 0" style="fill:#fff;fill-opacity:1;fill-rule:nonzero;stroke:none" transform="translate(-1.406 -1.39)"/>
  <path d="M250 1.39C112.774 1.39 1.406 112.787 1.406 250.017S112.774 498.609 250 498.609s248.594-111.363 248.594-248.593S387.226 1.39 250 1.39m0 48.626c110.4 0 200 89.6 200 200s-89.6 200-200 200-200-89.6-200-200 89.6-200 200-200" style="fill:#d40000;fill-opacity:1;fill-rule:nonzero;stroke:none" transform="translate(-1.406 -1.39)"/>
  <path d="M212.065 514.543h329.237c36.247 0 36.398 44.885 0 44.885H212.065c-39.097 0-42.492-44.885 0-44.885" style="fill:#000;fill-opacity:1;fill-rule:nonzero;stroke:none" transform="translate(-125 -287.904)"/>
  <path d="M468.95 585.389v37.062h9.219V599.01c.334-1.003 2.903-4.331 6.766-4.331 5.04 0 6.743 4.627 6.743 4.627l.156 23.146h9.212l.03-23.146c-.746-9.176-7.151-13.916-13.637-13.916-4.925 0-8.391 2.69-9.27 3.417v-3.417zM342.486 585.392c-10.277 0-18.618 8.3-18.618 18.53 0 10.228 8.341 18.53 18.618 18.53s18.618-8.302 18.618-18.53c0-10.23-8.34-18.53-18.618-18.53m.28 9.388c5.101 0 9.246 4.126 9.246 9.203 0 5.078-4.145 9.196-9.247 9.196-5.101 0-9.239-4.118-9.239-9.196s4.138-9.203 9.24-9.203M448.33 585.392c-10.277 0-18.618 8.3-18.618 18.53 0 10.228 8.341 18.53 18.618 18.53 10.278 0 18.618-8.302 18.618-18.53 0-10.23-8.34-18.53-18.618-18.53m.28 9.388c5.101 0 9.247 4.126 9.247 9.203 0 5.078-4.146 9.196-9.247 9.196-5.102 0-9.24-4.118-9.24-9.196s4.138-9.203 9.24-9.203M522.008 585.388c-10.23 0-18.532 8.301-18.532 18.528s8.302 18.528 18.532 18.528c4.001 0 7.704-1.278 10.734-3.436l.903 3.443h9.204l-2.401-9.047v-7.596q.094-.934.093-1.892 0-.959-.093-1.891v-16.628h-9.205v2.462a18.44 18.44 0 0 0-9.235-2.47m.278 9.388c4.353 0 8.003 3.031 8.957 7.094v4.216c-.954 4.061-4.604 7.086-8.957 7.086-5.078 0-9.196-4.117-9.196-9.194s4.118-9.202 9.196-9.202" style="fill:#000;fill-opacity:1;stroke:none" transform="translate(-114.434 -270.072)scale(.97665)"/>
  <g style="fill:#fff">
    <path d="M2773.116 2499.182v9.75h-1.648v-.431a3.278 3.278 0 0 1-4.907-2.843 3.278 3.278 0 0 1 4.907-2.841v-3.635zm-3.325 4.86c-.898 0-1.628.73-1.628 1.627a1.627 1.627 0 0 0 3.256 0c0-.897-.729-1.626-1.628-1.626" style="fill:#000;fill-opacity:1;stroke:none" transform="matrix(5.59207 0 0 5.58675 -15231.368 -13678.917)"/>
  </g>
  <g style="fill:#fff">
    <path d="M2741.97 2518.154c0 1.258.026 2.457 0 3.666a2.843 2.843 0 0 0 2.848 2.834c1.505 0 2.835-1.145 2.835-2.834v-3.666h-1.596c.01 1.237-.025 2.466 0 3.71a1.237 1.237 0 0 1-2.428.321l.031-4.03h-1.682z" style="fill:#000;fill-opacity:1;stroke:none" transform="matrix(5.58558 0 0 5.58026 -15230.58 -13750.38)"/>
  </g>
  <g style="fill:#000">
    <g style="fill:#000">
      <path d="M-343.311 228.029v1.686h2.33l-2.33 4.266v.836h4.626v-1.686h-2.351l2.351-4.38v-.722z" style="fill:#000;fill-opacity:1;stroke:none" transform="matrix(5.36175 0 0 5.33237 2120.133 -914.284)"/>
    </g>
  </g>
  <path d="M263.346 585.389v9.204h12.794l-12.794 23.295v4.563h25.4v-9.204h-12.91l12.91-23.92v-3.938z" style="fill:#000;fill-opacity:1;stroke:none" transform="translate(-114.434 -270.072)scale(.97665)"/>
  <g style="fill:#fff">
    <path d="M-255.464 221.98q-.104 0-.216.004c-.838 0-1.55.846-1.55 1.73.007 1.047.509 1.448 1.286 1.975.98.597 1.305.497 1.226 1.24-.333.814-1.833.332-2.602.096l-.407 1.266c.643.27 1.335.442 2.015.477 1.075 0 2.381-.378 2.381-2.034.07-.873-.558-1.412-1.043-1.73-.428-.375-1.422-.593-1.429-1.268.196-.697 1.203-.31 1.679-.152l.01-1.476a5.9 5.9 0 0 0-1.35-.128z" style="fill:#000;fill-opacity:1;stroke:none" transform="matrix(5.34536 0 0 5.332 1495.345 -881.946)"/>
  </g>
  <g style="fill:#000">
    <path d="M3932.148-1335.267v41.895h7.077v-10.65h2.166l8.463 10.65h7.793l-9.93-13.703 9.496-14.066h-7.794l-7.535 10.133h-2.659v-24.259z" style="fill:#000;fill-opacity:1;stroke:none" transform="translate(-4941.702 2019.462)scale(1.30018)"/>
  </g>
  <path d="M407.344 448.417v9.204h12.794l-12.794 23.295v4.563h25.401v-9.204h-12.91l12.91-23.92v-3.938zM300.95 448.417v37.062h9.219v-23.442c.334-1.003 2.903-4.331 6.766-4.331 5.04 0 6.743 4.627 6.743 4.627l.156 23.146h9.212l.03-23.146c-.746-9.176-7.151-13.916-13.637-13.916-4.925 0-8.391 2.69-9.27 3.417v-3.417z" style="fill:#000;fill-opacity:1;stroke:none" transform="translate(-118.434 -272.61)scale(.97665)"/>
  <path d="M272.625 454.907c-3.559 0-6.897.95-9.78 2.603v-.091c-5.445 3.1-9.274 8.715-9.902 15.26v3.802c.628 6.546 4.457 12.152 9.903 15.252v-.016a20 20 0 0 0 2.824 1.338c.197.074.4.145.6.213q.297.104.599.197.607.183 1.231.329c.208.048.415.097.624.139q.314.063.633.115c.212.036.426.062.64.09.192.025.381.055.575.074.29.03.585.049.878.066l.124.008c.038.002.076-.001.115 0 .287.013.579.024.87.025h.066c.329-.001.651-.01.977-.025h.032q.489-.025.97-.074h.032a19.593 19.593 0 0 0 8.137-2.726v2.816c-.613 5.824-4.286 8.682-9.828 9.564a9.74 9.74 0 0 1-6.002-2.06l-6.043 8.06q.945.698 1.97 1.282v-.017c.72.413 1.468.787 2.242 1.108a19 19 0 0 0 1.182.443c.2.069.397.135.6.198q.607.183 1.231.328.31.075.624.14.314.062.632.114c.213.036.426.062.64.091.193.024.382.054.576.073.29.03.585.049.878.066l.123.009c.038.002.077-.002.115 0 .288.012.58.024.87.025h.066c.33-.001.652-.008.977-.025h.033q.487-.026.97-.075h.032a19.664 19.664 0 0 0 8.99-3.267q.005.001.008 0c5.26-3.654 8.598-9.663 8.687-16.048l.214-39.404h-9.787v2.824a19.6 19.6 0 0 0-10.149-2.824zm.295 9.982c5.4 0 9.787 4.387 9.787 9.785 0 5.4-4.387 9.778-9.787 9.778s-9.779-4.379-9.779-9.778c0-5.398 4.38-9.785 9.78-9.785M457.232 454.905c-10.839 0-19.635 8.78-19.635 19.6s8.796 19.6 19.635 19.6c4.239 0 8.162-1.351 11.372-3.634l.957 3.643h9.752l-2.545-9.572v-8.036q.1-.988.098-2c0-.677-.03-1.343-.098-2.002v-17.592h-9.752v2.606a19.56 19.56 0 0 0-9.784-2.613m.294 9.93c4.612 0 8.479 3.207 9.49 7.506v4.46a9.75 9.75 0 0 1-9.49 7.497c-5.38 0-9.743-4.357-9.743-9.727 0-5.372 4.363-9.735 9.743-9.735M351.696 454.905c-10.839 0-19.635 8.78-19.635 19.6s8.796 19.6 19.635 19.6c4.239 0 8.162-1.351 11.372-3.634l.957 3.643h9.752l-2.545-9.572v-8.036q.1-.988.098-2c0-.677-.03-1.343-.098-2.002v-17.592h-9.752v2.606a19.56 19.56 0 0 0-9.784-2.613m.294 9.93c4.612 0 8.479 3.207 9.49 7.506v4.46a9.75 9.75 0 0 1-9.49 7.497c-5.38 0-9.743-4.357-9.743-9.727 0-5.372 4.363-9.735 9.743-9.735M548.22 454.905c-10.838 0-19.634 8.78-19.634 19.6s8.796 19.6 19.634 19.6c4.24 0 8.162-1.351 11.372-3.634l.957 3.643h9.752l-2.544-9.572v-8.036q.1-.988.098-2 .001-1.014-.098-2.002v-17.592h-9.752v2.606a19.56 19.56 0 0 0-9.785-2.613m.295 9.93c4.612 0 8.478 3.207 9.49 7.506v4.46a9.75 9.75 0 0 1-9.49 7.497c-5.38 0-9.744-4.357-9.744-9.727 0-5.372 4.363-9.735 9.744-9.735" style="fill:#000;fill-opacity:1;stroke:none" transform="translate(-98.168 -254.587)scale(.9231)"/>
  <g style="fill:#fff">
    <path d="m2748.932 2511.86.787 2.507-.401 1.234h.64l1.17-3.741h-.623l-.475 1.514-.475-1.514z" style="fill:#000;fill-opacity:1;stroke:none" transform="matrix(14.52731 0 0 14.51347 -39830.107 -36290.476)"/>
  </g>
  <path d="m2748.244 2510.612-.073.001a1 1 0 0 0-1.001.989 1 1 0 0 0 .38.785s.416.253.458.276c.64.332.703.611.568.856-.42.433-1.017.2-1.524.04l-.218.584c.42.15.83.21 1.317.21a1.074 1.074 0 0 0 .63-1.948c-.293-.16-.593-.337-.888-.506-.062-.042-.154-.216-.123-.383a.37.37 0 0 1 .245-.285c.337-.051.682.03 1.004.128l.176-.604c-.328-.058-.597-.142-.951-.143z" style="fill:#000;fill-opacity:1;stroke:none" transform="matrix(14.52731 0 0 14.51347 -39831.576 -36290.476)"/>
  <g style="fill:#fff">
    <path d="M2758.007 2518.154a3.255 3.255 0 0 0-3.258 3.25 3.255 3.255 0 0 0 3.258 3.25c.783 0 1.502-.275 2.064-.736l-.722-1.437a1.724 1.724 0 0 1-3.066-1.077c0-.948.772-1.72 1.724-1.72.488 0 .928.206 1.24.532l.593-1.499a3.25 3.25 0 0 0-1.833-.563" style="fill:#000;fill-opacity:1;stroke:none" transform="matrix(5.57403 0 0 5.56872 -15009.355 -13857.562)"/>
  </g>
  <g style="fill:#fff">
    <path d="M8112.362 961.98v51.257h51.256V961.98zm0 100.078v203.815c-3.667 32.95-17.087 46.377-51.262 51.258l24.41 48.82c45.156-14.643 78.108-51.262 78.108-100.078v-203.815z" style="fill:#000;fill-opacity:1;stroke:none" transform="translate(-1080.602 -25.404)scale(.17982)"/>
  </g>
  <g style="fill:#fff">
    <path d="M8621.914-1512.894v51.222h51.223v-51.222zm1.218 98.787v201.232h50.005v-201.232zM8540.892-1515.788h51.717v302.913h-51.717z" style="fill:#000;fill-opacity:1;stroke:none" transform="translate(-1285.04 419.637)scale(.17982)"/>
  </g>
</svg>
