<svg xmlns="http://www.w3.org/2000/svg" viewBox="0 0 500 500" role="img" aria-labelledby="title">
  <title id="title">Verkehrszeichen B-44 - B-44: koniec strefy ograniczonej prędkości (tu: 30 km/h)</title>
  <title>Znak B-44</title>
  <g transform="translate(1997.378 -1378.612)">
    <g transform="translate(-1997.378 1378.612)">
      <rect width="500" height="500" rx="24.699" ry="24.699" style="fill:#000;fill-opacity:1;stroke:none"/>
      <rect width="481.68" height="482.851" x="8.846" y="7.934" rx="19.226" ry="19.226" style="fill:#fff;fill-opacity:1;stroke:none"/>
    </g>
    <circle cx="250" cy="250" r="223" style="fill:none;stroke:#a9a8a7;stroke-width:52;stroke-opacity:1" transform="matrix(.75788 0 0 .75345 -1938.238 1439.126)"/>
    <g style="fill:#a9a8a7;fill-opacity:1">
      <g style="font-size:185.44577026px;font-style:normal;font-variant:normal;font-weight:700;font-stretch:normal;text-align:start;line-height:125%;writing-mode:lr-tb;text-anchor:start;fill:#a9a8a7;fill-opacity:1;stroke:none;font-family:Drogowskaz;-inkscape-font-specification:Drogowskaz Bold">
        <path d="M844.016 175.426a23.2 23.2 0 0 1 5.796-.731q9.846.249 16.388 6.792t6.792 16.389q-.249 9.846-6.792 16.388-6.542 6.543-16.388 6.792-9.846-.249-16.39-6.792-6.542-6.542-6.791-16.388H803.45q.498 19.797 13.584 32.837t32.778 13.524q19.692-.483 32.777-13.524t13.584-32.837q-.062-9.892-3.737-18.514t-10.217-15.106a40.2 40.2 0 0 0 6.011-11.29q2.121-6.161 2.148-13.042-.444-17.178-11.916-28.65-11.474-11.473-28.65-11.917-17.178.444-28.65 11.917-11.473 11.472-11.917 28.65h23.181q.191-7.362 5.107-12.28 4.916-4.916 12.279-5.106 7.36.191 12.278 5.107 4.917 4.916 5.107 12.279-.19 7.36-5.107 12.278-4.917 4.917-12.278 5.107-3.06-.014-5.796-.999zM947.994 171.797q.015-9.424 1.572-18.411a110 110 0 0 1 4.49-17.42q1.987-5.528 6.824-8.951t11.267-3.524q6.43.102 11.268 3.524t6.823 8.952a110 110 0 0 1 4.49 17.419q1.56 8.986 1.572 18.411-.014 9.424-1.571 18.411a110 110 0 0 1-4.491 17.42q-1.986 5.53-6.823 8.951-4.837 3.423-11.268 3.524-6.43-.1-11.267-3.524-4.838-3.422-6.823-8.951a110 110 0 0 1-4.491-17.42q-1.557-8.986-1.572-18.41m-24.153 0q.073 11.737 2.412 22.921a165 165 0 0 0 6.074 21.662q4.638 12.413 15.262 20.036 10.623 7.623 24.558 7.84 13.935-.217 24.56-7.84 10.62-7.622 15.259-20.036a165 165 0 0 0 6.074-21.662q2.34-11.184 2.412-22.92-.074-11.738-2.412-22.922a165 165 0 0 0-6.074-21.662q-4.639-12.412-15.26-20.035-10.623-7.623-24.559-7.841-13.935.218-24.558 7.84-10.624 7.624-15.262 20.036a165 165 0 0 0-6.074 21.662q-2.34 11.185-2.412 22.921" style="fill:#a9a8a7;fill-opacity:1" transform="matrix(1.17607 0 0 1.16105 -2816.002 1427.929)"/>
      </g>
    </g>
    <path d="M-1551.746 1386.043h26.169a19.184 19.184 0 0 1 19.225 19.226v24.39l-440.235 440.235h-23.212a19.184 19.184 0 0 1-19.226-19.225v-27.348z" style="fill:#000;fill-opacity:1;stroke:none"/>
  </g>
</svg>
