<svg xmlns="http://www.w3.org/2000/svg" viewBox="0 0 800 800" role="img" aria-labelledby="title">
  <title id="title">Verkehrszeichen B-12 - B-12: zakaz wjazdu z wózkami ręcznymi</title>
  <circle cx="400" cy="400" r="400" fill="#d40000"/>
  <circle cx="400" cy="400" r="320" fill="#fff"/>
  <path d="m650 371.6-20.66 2.07-.77-30.81-.88-35.17L560 240l-60.95-7.62-7.08 17.69-57.22 143.05-36.08 3.61-5.6-56.04L120 368l6.93 69.31L400 410l29.17-2.92-5.59 13.96 27.26-2.73 7.04-14.1 49.57-4.96L489.99 440l-19.05 97.99-30.95 4.51 60.52 17.5 6.83-27.32L525.49 460l19.56-48.42 53.65 122.61L559.99 560h50l29.99-12.63-12.7-32.23-48.47-123.02 25.01-2.5 1.49 13.25L630 400.4l-.33-13.37 20.32-2.03v-13.4Zm-136.53 13.65-48.51 4.85 41.26-82.51 14.84 59.97-7.58 17.69Zm63.37-6.33-13.2-88.01 31.96 25.57 6.74 59.89z"/>
  <circle cx="495" cy="201.67" r="26.67"/>
  <path d="M275 410c-44.18 0-80 35.82-80 80s35.82 80 80 80 80-35.82 80-80-35.82-80-80-80m63.8 75h-44.43a19.5 19.5 0 0 0-2.15-5.15l31.41-31.41c8.56 10 14.1 22.67 15.17 36.56m-53.65-12.22a19.5 19.5 0 0 0-5.15-2.15V426.2c13.89 1.07 26.56 6.61 36.56 15.17zM270 426.2v44.43c-1.83.47-3.56 1.2-5.15 2.15l-31.41-31.41c10-8.56 22.67-14.1 36.56-15.17m-43.63 22.24 31.41 31.41a19.5 19.5 0 0 0-2.15 5.15H211.2c1.07-13.89 6.61-26.56 15.17-36.56M211.2 495h44.43c.47 1.83 1.2 3.56 2.15 5.15l-31.41 31.41c-8.56-10-14.1-22.67-15.17-36.56m53.65 12.22c1.59.95 3.32 1.68 5.15 2.15v44.43c-13.89-1.07-26.56-6.61-36.56-15.17zM280 553.8v-44.43c1.83-.47 3.56-1.2 5.15-2.15l31.41 31.41c-10 8.56-22.67 14.1-36.56 15.17m43.63-22.24-31.41-31.41a19.5 19.5 0 0 0 2.15-5.15h44.43c-1.07 13.89-6.61 26.56-15.17 36.56"/>
</svg>
