<svg xmlns="http://www.w3.org/2000/svg" viewBox="0 0 902 902" role="img" aria-labelledby="title">
  <title id="title">Verkehrszeichen B-20 - B-20: bezwzględny nakaz zatrzymania się</title>
  <path fill="#fff" d="M637.4 1H264.6L1 264.6v372.8L264.6 901h372.8L901 637.4V264.6z"/>
  <path fill="none" stroke="#000" d="M264.4 901.5.5 637.6V264.4L264.4.5h373.2l263.9 263.9v373.2L637.6 901.5z"/>
  <path fill="#d40000" d="M277.03 871 31 624.97V277.03L277.03 31h347.94L871 277.03v347.94L624.97 871z"/>
  <g fill="#fff">
    <path d="M207.49 439.3 186.62 571c37.28 0 67.5-30.22 67.5-67.5 0-30-19.56-55.42-46.63-64.2l-29.81-10.01c-14.28-4.65-24.18-17.95-24.18-33.29 0-19.33 15.67-35 35-35h9.38c12.51 0 23.5 6.57 29.68 16.45l25.43-15.89c-11.64-18.48-32.33-30.72-55.11-30.56h-9.38c-35.9 0-65 29.1-65 65-.03 28.37 18.35 53.18 44.91 61.83l29.8 10c15.04 4.87 25.91 19 25.91 35.67 0 20.71-16.78 37.5-37.5 37.5H175c-12.71 0-23.94-6.32-30.72-15.99l-24.57 17.21C131.91 559.62 152.13 571 175 571h11.62ZM428 331v30h-52.75v210h-30V361H292.5v-30zM533.5 331c-37.83 0-68.5 30.67-68.5 68.5v103c0 37.83 30.67 68.5 68.5 68.5s68.5-30.67 68.5-68.5v-103c0-37.83-30.67-68.5-68.5-68.5m35 171.5c0 19.33-15.67 35-35 35s-35-15.67-35-35v-103c0-19.33 15.67-35 35-35s35 15.67 35 35zM728.5 331H661v240h30V468h37.5c37.83 0 68.5-30.67 68.5-68.5S766.33 331 728.5 331m0 106H691v-75h37.5c20.71 0 37.5 16.79 37.5 37.5S749.21 437 728.5 437"/>
  </g>
</svg>
