<svg xmlns="http://www.w3.org/2000/svg" viewBox="0 0 800.01 800.03" role="img" aria-labelledby="title">
  <title id="title">Verkehrszeichen B-30 - B-30: koniec zakazu używania sygnałów dźwiękowych</title>
  <circle cx="400.01" cy="400.02" r="400" fill="#fff"/>
  <path fill="#a8a8a8" d="M660.01 375.02c-16.78 0-31.15 10.34-37.08 25h-35.15c-9.09-40.08-44.93-70-87.77-70h-180c-65.65 0-125.39-25.3-170-66.69v173.38c44.61-41.39 104.35-66.69 170-66.69h180c21.38 0 39.9 12.19 49 30h-229c-30.38 0-55 24.62-55 55s24.62 55 55 55h180c46.33 0 84.48-35 89.45-80h33.47c5.93 14.66 20.3 25 37.08 25 22.09 0 40-17.91 40-40s-17.91-40-40-40m-160 105h-180c-13.81 0-25-11.19-25-25s11.19-25 25-25h234.77c-2.52 28.04-26.08 50-54.77 50"/>
  <path d="M0 400.02c-1.23 222.27 184.51 401.7 400 400 220.91 0 400-179.09 400-400C801.5 177.87 614.91-1.95 400.01.02 179.1.02 0 179.11 0 400.02m200.41 337.45C85.23 669.19 8.01 543.63 8.01 400.02c0-216.5 175.5-392 392-392 30.32 0 59.84 3.44 88.19 9.96zm199.6 54.55c-30.32 0-59.84-3.44-88.19-9.96L599.61 62.57c115.18 68.28 192.4 193.84 192.4 337.45 0 216.5-175.5 392-392 392"/>
</svg>
