<svg xmlns="http://www.w3.org/2000/svg" viewBox="0 0 800 800" role="img" aria-labelledby="title">
  <title id="title">Verkehrszeichen B-10 - B-10: zakaz wjazdu motorowerów</title>
  <circle cx="400" cy="400" r="400" fill="#d40000"/>
  <circle cx="400" cy="400" r="320" fill="#fff"/>
  <path d="M679.5 450c-5.52-54.95-54.55-95.02-109.5-89.5a100 100 0 0 0-41.51 13.79l-30.98-44.54 18.67 1.87 8.08-31.62H442.5l6.86 24.94 26.83 2.68L425 430h-25c-7.95 0-15.15-4.71-18.33-12l-18.53-51.61a60.03 60.03 0 0 0-48.64-39.21l-20.17-2.66 10.62-20.94-11.28-12.31 1.46-11.71 36.55 3.66.99-9.95-46.25-4.63-3.25 25.98 9.73 10.61-9.08 17.91L260 320v26.67h11.88l-11.16 22c-46.44-20.71-101.02-3.27-126.85 40.52l8.7 4.93c-25.34 42.77-11.21 97.97 31.55 123.31 42.77 25.34 97.97 11.21 123.31-31.55.59-1 1.16-2.01 1.72-3.03l8.7 4.93c25.99-47.79 9.01-107.59-38.21-134.59l8.68-17.12 89.68 84.4v20.86c-6.63 8.84-4.84 21.38 4 28 3.46 2.6 7.67 4 12 4h16V520h-8v13.33h24V520h-8v-26.67h88.4c18.41 46.17 70.76 68.68 116.93 50.27a90 90 0 0 0 56.11-73.6H688v-20zm-432.28-54.53-22.83 45a19.96 19.96 0 0 0-15.33 2.85l-35.56-35.57a70.02 70.02 0 0 1 73.72-12.28m34.59 97.55a70.2 70.2 0 0 1-9.48 13.57c-25.73 28.85-69.98 31.38-98.83 5.66-25.51-22.75-30.45-59.97-13.47-88.23 2.22-3.71 4.83-7.26 7.81-10.61l35.56 35.56c-6.09 9.22-3.55 21.62 5.66 27.71 9.22 6.1 21.62 3.56 27.71-5.65.56-.86 1.06-1.75 1.49-2.68a20 20 0 0 0 1.42-4.35h50.29a70 70 0 0 1-8.16 29.02m8.16-37.02h-50.29c-.87-4.27-3.1-8.13-6.37-11.01l1.87-3.69 20.95-41.31A70 70 0 0 1 289.97 456m190.53-6h-23.83l-18.29-10.97 49.72-99.46 29.45 42.33A99.97 99.97 0 0 0 480.5 450m30.13 0a70 70 0 0 1 24.02-43.4l30.18 43.4zm138.1 22.79a69.95 69.95 0 0 1-26.41 42.9c-30.75 23.42-74.68 17.48-98.1-13.28l52.84-19.96 9.92-3.74A20.03 20.03 0 0 0 599.51 464h50.29c-.17 2.97-.53 5.9-1.07 8.79M599.51 456c-2.21-10.82-12.78-17.81-23.6-15.6-.43.09-.87.2-1.29.31l-29.03-41.72a70 70 0 0 1 18.06-7.07c4.01-.96 8.11-1.57 12.26-1.81 30.19-1.72 57.01 15.95 68.31 42.2 3.15 7.31 5.1 15.28 5.58 23.69z"/>
</svg>
