<svg xmlns="http://www.w3.org/2000/svg" viewBox="0 0 800 800" role="img" aria-labelledby="title">
  <title id="title">Verkehrszeichen B-36 - B-36: zakaz zatrzymywania się</title>
  <circle cx="400" cy="400" r="400" fill="#d40000"/>
  <circle cx="400" cy="400" r="320" fill="#fff"/>
  <path fill="#039" d="M645.97 205.89 451.86 400l194.11 194.11c42.19-53.37 67.36-120.81 67.36-194.11s-25.17-140.74-67.36-194.11M400 86.67c-73.3 0-140.74 25.17-194.11 67.36L400 348.14l194.11-194.11C540.74 111.84 473.3 86.67 400 86.67m0 365.19L205.89 645.97c53.37 42.19 120.81 67.36 194.11 67.36s140.74-25.17 194.11-67.36zM154.03 205.89C111.84 259.26 86.67 326.7 86.67 400s25.17 140.74 67.36 194.11L348.14 400z"/>
  <path fill="none" stroke="#d40000" stroke-miterlimit="10" stroke-width="60" d="M654.56 654.56 145.44 145.44M654.56 145.44 145.44 654.56"/>
</svg>
