<svg xmlns="http://www.w3.org/2000/svg" viewBox="0 0 800 800" role="img" aria-labelledby="title">
  <title id="title">Verkehrszeichen B-32a - B-32a: kontrola graniczna</title>
  <circle cx="400" cy="400" r="400" fill="#d40000"/>
  <circle cx="400" cy="400" r="320" fill="#fff"/>
  <path d="M183.88 220h13.33v33l29-33h17.67l-31.17 35.5 31.17 44.5h-16.33l-23.83-34.17-6.5 7.5V300h-13.33v-80ZM257.42 293.33c-5.56-5.55-8.33-12.22-8.33-20s2.78-14.44 8.33-20 12.22-8.33 20-8.33 14.44 2.78 20 8.33c5.55 5.56 8.33 12.22 8.33 20s-2.78 14.45-8.33 20-12.22 8.33-20 8.33-14.45-2.78-20-8.33m9.41-30.58c-2.95 2.95-4.42 6.47-4.42 10.58s1.47 7.64 4.42 10.58c2.94 2.95 6.47 4.42 10.58 4.42s7.64-1.47 10.58-4.42 4.42-6.47 4.42-10.58-1.47-7.64-4.42-10.58-6.47-4.42-10.58-4.42-7.64 1.47-10.58 4.42M320.28 246.67h13.33v5.17c3.78-3.44 8.22-5.17 13.33-5.17 5.44 0 10.14 1.95 14.08 5.83 3.94 3.89 5.92 8.61 5.92 14.17V300h-13.33v-30c0-2.78-.97-5.14-2.92-7.08s-4.31-2.92-7.08-2.92-5.14.97-7.08 2.92c-1.95 1.95-2.92 4.31-2.92 7.08v30h-13.33zM388.15 233.33 401.48 220v26.67h10V260h-10v20c0 1.89.64 3.47 1.92 4.75s2.86 1.92 4.75 1.92h7l-7 13.33c-5.56 0-10.28-1.94-14.17-5.83s-5.83-8.61-5.83-14.17v-20h-10v-13.33h10v-13.33ZM426.18 246.67h13.33v2.83c4.22-1.89 8.67-2.83 13.33-2.83V260c-5.11 0-9.56 1.72-13.33 5.17V300h-13.33zM469.05 293.33c-5.56-5.55-8.33-12.22-8.33-20s2.78-14.44 8.33-20c5.55-5.55 12.22-8.33 20-8.33s14.44 2.78 20 8.33c5.55 5.56 8.33 12.22 8.33 20s-2.78 14.45-8.33 20c-5.56 5.56-12.22 8.33-20 8.33s-14.45-2.78-20-8.33m9.42-30.58c-2.95 2.95-4.42 6.47-4.42 10.58s1.47 7.64 4.42 10.58c2.94 2.95 6.47 4.42 10.58 4.42s7.64-1.47 10.58-4.42c2.94-2.94 4.42-6.47 4.42-10.58s-1.47-7.64-4.42-10.58-6.47-4.42-10.58-4.42-7.64 1.47-10.58 4.42M531.92 220h13.33v80h-13.33zM567.28 292.17c-5.22-5.22-7.83-11.5-7.83-18.83s2.61-13.61 7.83-18.83 11.5-7.83 18.83-7.83c4.78 0 9.22 1.22 13.33 3.67v-3.67h13.33v40l3.33 13.33h-13.33l-1.17-5c-4.67 3.33-9.83 5-15.5 5-7.33 0-13.61-2.61-18.83-7.83Zm9.42-28.42c-2.61 2.61-3.92 5.81-3.92 9.58s1.3 6.97 3.92 9.58c2.61 2.61 5.75 3.92 9.42 3.92s6.8-1.3 9.42-3.92 3.92-5.8 3.92-9.58-1.31-6.97-3.92-9.58-5.75-3.92-9.42-3.92-6.81 1.31-9.42 3.92M670 430H130c-16.57 0-30-13.43-30-30s13.43-30 30-30h540c16.57 0 30 13.43 30 30s-13.43 30-30 30M172.03 566.83c2.33 1.78 5 2.67 8 2.67 3.67 0 6.8-1.31 9.42-3.92 2.61-2.61 3.92-5.81 3.92-9.58v-3.67c-4.11 2.45-8.56 3.67-13.33 3.67-7.33 0-13.61-2.61-18.83-7.83s-7.83-11.5-7.83-18.83 2.61-13.61 7.83-18.83 11.5-7.83 18.83-7.83c4.78 0 9.22 1.22 13.33 3.67v-3.67h13.33v53.33c0 7.33-2.61 13.61-7.83 18.83s-11.5 7.83-18.83 7.83c-5.89 0-11.22-1.78-16-5.33l8-10.5Zm-1.41-47.08c-2.61 2.61-3.92 5.81-3.92 9.58s1.3 6.97 3.92 9.58c2.61 2.61 5.75 3.92 9.42 3.92s6.8-1.3 9.42-3.92c2.61-2.61 3.92-5.8 3.92-9.58s-1.31-6.97-3.92-9.58-5.75-3.92-9.42-3.92-6.81 1.31-9.42 3.92M224.57 502.67h13.33v2.83c4.22-1.89 8.67-2.83 13.33-2.83V516c-5.11 0-9.56 1.72-13.33 5.17V556h-13.33zM266.6 548.17c-5.22-5.22-7.83-11.5-7.83-18.83s2.61-13.61 7.83-18.83 11.5-7.83 18.83-7.83c4.78 0 9.22 1.22 13.33 3.67v-3.67h13.33v40l3.33 13.33h-13.33l-1.17-5c-4.67 3.33-9.83 5-15.5 5-7.33 0-13.61-2.61-18.83-7.83Zm9.42-28.42c-2.61 2.61-3.92 5.81-3.92 9.58s1.3 6.97 3.92 9.58c2.61 2.61 5.75 3.92 9.42 3.92s6.8-1.3 9.42-3.92c2.61-2.61 3.92-5.8 3.92-9.58s-1.31-6.97-3.92-9.58-5.75-3.92-9.42-3.92-6.81 1.31-9.42 3.92M329.97 502.67h13.33v5.17c3.78-3.44 8.22-5.17 13.33-5.17 5.44 0 10.14 1.95 14.08 5.83 3.94 3.89 5.92 8.61 5.92 14.17V556H363.3v-30c0-2.78-.97-5.14-2.92-7.08s-4.31-2.92-7.08-2.92-5.14.97-7.08 2.92c-1.95 1.95-2.92 4.31-2.92 7.08v30h-13.33zM394.5 476h13.33v13.33H394.5zm0 26.67h13.33V556H394.5zM468.2 551.5c-5.11 4.11-11 6.17-17.67 6.17-7.89 0-14.58-2.78-20.08-8.33s-8.25-12.22-8.25-20 2.75-14.44 8.25-20c5.5-5.55 12.19-8.33 20.08-8.33 5.89 0 11.22 1.67 16 5l-5.17 13c-2.89-3.11-6.5-4.67-10.83-4.67-4.11 0-7.64 1.45-10.58 4.33-2.95 2.89-4.42 6.45-4.42 10.67s1.47 7.78 4.42 10.67c2.94 2.89 6.47 4.33 10.58 4.33 4.67 0 8.5-1.78 11.5-5.33l6.17 12.5ZM514.57 542.67V556H477.9v-6.17L496.23 516H477.9v-13.33h36.67v6.17l-18.33 33.83zM529.1 502.67h13.33v5.17c3.78-3.44 8.22-5.17 13.33-5.17 5.44 0 10.14 1.95 14.08 5.83 3.94 3.89 5.92 8.61 5.92 14.17V556h-13.33v-30c0-2.78-.97-5.14-2.92-7.08s-4.31-2.92-7.08-2.92-5.14.97-7.08 2.92-2.92 4.31-2.92 7.08v30H529.1zM597.8 548.17c-5.22-5.22-7.83-11.5-7.83-18.83s2.61-13.61 7.83-18.83 11.5-7.83 18.83-7.83c4.78 0 9.22 1.22 13.33 3.67v-3.67h13.33v40l3.33 13.33h-13.33l-1.17-5c-4.67 3.33-9.83 5-15.5 5-7.33 0-13.61-2.61-18.83-7.83Zm9.42-28.42c-2.61 2.61-3.92 5.81-3.92 9.58s1.3 6.97 3.92 9.58c2.61 2.61 5.75 3.92 9.42 3.92s6.8-1.3 9.42-3.92 3.92-5.8 3.92-9.58-1.31-6.97-3.92-9.58-5.75-3.92-9.42-3.92-6.81 1.31-9.42 3.92"/>
</svg>
