<svg xmlns="http://www.w3.org/2000/svg" viewBox="0 0 800 800" role="img" aria-labelledby="title">
  <title id="title">Verkehrszeichen B-32 - B-32: stój – kontrola celna</title>
  <circle cx="400" cy="400" r="400" fill="#d40000"/>
  <circle cx="400" cy="400" r="320" fill="#fff"/>
  <path d="M354 305.33c-15.11 12-32.33 18-51.67 18-22.89 0-42.5-8.17-58.83-24.5s-24.5-36-24.5-59 8.17-42.61 24.5-58.83q24.495-24.33 58.83-24.33c19.55 0 36.89 6.11 52 18.33l-13 24c-10.89-10.44-23.89-15.67-39-15.67s-28.89 5.56-40 16.67-16.67 24.45-16.67 40 5.55 28.89 16.67 40c11.11 11.11 24.44 16.67 40 16.67s27.78-5.11 38.67-15.33l13 24ZM401 160h26.67v40l26.67-13.33v26.67l-26.67 13.33V320H401v-80l-26.67 13.33v-26.67L401 213.33zM484.33 306.67c-11.11-11.11-16.67-24.44-16.67-40s5.55-28.89 16.67-40c11.11-11.11 24.44-16.67 40-16.67s28.89 5.56 40 16.67 16.67 24.45 16.67 40-5.56 28.89-16.67 40-24.45 16.67-40 16.67-28.89-5.55-40-16.67m18.84-61.17c-5.89 5.89-8.83 12.95-8.83 21.17s2.94 15.28 8.83 21.17 12.94 8.83 21.17 8.83 15.28-2.94 21.17-8.83c5.88-5.89 8.83-12.94 8.83-21.17s-2.95-15.28-8.83-21.17c-5.89-5.89-12.95-8.83-21.17-8.83s-15.28 2.95-21.17 8.83M670 430H130c-16.57 0-30-13.43-30-30s13.43-30 30-30h540c16.57 0 30 13.43 30 30s-13.43 30-30 30M256 593.33h57.33V620H220v-13.33l57.33-120H220V460h93.33v13.33zM356.67 606.67c-11.11-11.11-16.67-24.44-16.67-40s5.55-28.88 16.67-40c11.11-11.11 24.44-16.67 40-16.67s28.89 5.56 40 16.67c11.11 11.12 16.67 24.45 16.67 40s-5.56 28.89-16.67 40-24.45 16.67-40 16.67-28.89-5.55-40-16.67m18.83-61.17c-5.89 5.89-8.83 12.95-8.83 21.17s2.94 15.28 8.83 21.17 12.94 8.83 21.17 8.83 15.28-2.94 21.17-8.83 8.83-12.94 8.83-21.17-2.95-15.28-8.83-21.17c-5.89-5.89-12.95-8.83-21.17-8.83s-15.28 2.95-21.17 8.83M486.67 460h26.67v160h-26.67zM553.33 460H580v160h-26.67z"/>
</svg>
