<svg xmlns="http://www.w3.org/2000/svg" viewBox="0 0 497.188 497.219" role="img" aria-labelledby="title">
  <title id="title">Verkehrszeichen B-32e - B-32e: kontrola drogowa</title>
  <path d="M489.814 246.87a241.306 240.149 0 1 1-482.611 0 241.306 240.149 0 1 1 482.611 0" style="fill:#fff;fill-opacity:1;fill-rule:nonzero;stroke:none" transform="translate(-1.406 -1.39)"/>
  <path d="M250 1.39C112.774 1.39 1.406 112.787 1.406 250.017S112.774 498.609 250 498.609s248.594-111.363 248.594-248.593S387.226 1.39 250 1.39m0 48.626c110.4 0 200 89.6 200 200s-89.6 200-200 200-200-89.6-200-200 89.6-200 200-200" style="fill:#d40000;fill-opacity:1;fill-rule:nonzero;stroke:none" transform="translate(-1.406 -1.39)"/>
  <g style="stroke:none;fill:#000">
    <path d="M212.065 514.543h329.237c36.247 0 36.398 44.885 0 44.885H212.065c-39.097 0-42.492-44.885 0-44.885" style="fill:#000;fill-opacity:1;fill-rule:nonzero;stroke:none" transform="translate(-125 -287.904)"/>
  </g>
  <g style="stroke:none;fill:#000">
    <path d="M460.958 435.435h9.942v58.814h-9.942zM377.42 435.31l-9.778 9.69v9.575h-7.588v9.788h7.588v12.696c-.136 9.374 4.963 16.685 14.767 17.064l4.963-9.73h-6.481c-1.322 0-3.47-2.576-3.47-3.951v-16.079h7.572v-9.788h-7.572zM232.93 435.31v58.813h9.938v-19.837l4.532-5.102 17.05 24.94h13.044l-23.469-32.394 23.47-26.42h-13.037l-21.59 24.297V435.31zM496.14 454.914c-10.839 0-19.635 8.78-19.635 19.6s8.796 19.6 19.635 19.6c4.239 0 8.161-1.35 11.372-3.634l.957 3.643h9.751l-2.544-9.571v-8.037q.1-.986.098-2c0-.677-.03-1.343-.098-2.001v-17.592h-9.752v2.605a19.56 19.56 0 0 0-9.784-2.613m.294 9.93c4.612 0 8.479 3.207 9.49 7.506v4.46a9.75 9.75 0 0 1-9.49 7.497c-5.38 0-9.744-4.356-9.744-9.727s4.364-9.735 9.744-9.735M402.683 456.736v-1.822h-9.747v39.21h9.747V468.71c2.354-2.842 6.108-4.272 9.764-4.128v-9.669c-4.337.14-7.8.553-9.764 1.822" style="fill:#000;fill-opacity:1;stroke:none" transform="translate(-125 -294.207)"/>
    <path d="M296.562 454.914c-10.874 0-19.698 8.783-19.698 19.605s8.824 19.604 19.698 19.604c10.873 0 19.698-8.782 19.698-19.604s-8.825-19.605-19.698-19.605m.295 9.933c5.398 0 9.784 4.365 9.784 9.737 0 5.373-4.386 9.729-9.784 9.729-5.397 0-9.775-4.356-9.775-9.729s4.378-9.737 9.775-9.737M436.137 454.914c-10.874 0-19.699 8.783-19.699 19.605s8.825 19.604 19.699 19.604c10.873 0 19.698-8.782 19.698-19.604s-8.825-19.605-19.698-19.605m.295 9.933c5.398 0 9.783 4.365 9.783 9.737 0 5.373-4.385 9.729-9.783 9.729s-9.775-4.356-9.775-9.729 4.377-9.737 9.775-9.737M321.253 454.92v39.213h9.753V469.33c.354-1.061 3.072-4.583 7.159-4.583 5.332 0 7.134 4.896 7.134 4.896l.165 24.489h9.747l.03-24.489c-.788-9.708-7.565-14.723-14.427-14.723-5.21 0-8.878 2.845-9.808 3.615v-3.615z" style="fill:#000;fill-opacity:1;stroke:none" transform="translate(-125 -294.207)"/>
  </g>
  <g style="stroke:none;fill:#000">
    <path d="M310.514 583.78c-10.873 0-19.698 8.784-19.698 19.606s8.825 19.604 19.698 19.604 19.698-8.782 19.698-19.604-8.825-19.605-19.698-19.605m.295 9.934c5.398 0 9.784 4.365 9.784 9.737s-4.386 9.729-9.784 9.729c-5.397 0-9.775-4.357-9.775-9.729s4.378-9.737 9.775-9.737M396.514 583.78c-10.874 0-19.699 8.784-19.699 19.606s8.825 19.604 19.699 19.604c10.873 0 19.698-8.782 19.698-19.604s-8.825-19.605-19.698-19.605m.295 9.934c5.398 0 9.783 4.365 9.783 9.737s-4.385 9.729-9.783 9.729-9.775-4.357-9.775-9.729 4.377-9.737 9.775-9.737" style="fill:#000;fill-opacity:1;stroke:none" transform="translate(-121 -285.143)"/>
    <g style="stroke:none;fill:#000">
      <path d="M776.557 1121.1v-.27h-1.441v5.8h1.44v-3.76c.349-.42.904-.631 1.444-.61v-1.43c-.641.02-1.153.082-1.443.27M808.158 1120.83c-1.6 0-2.9 1.298-2.9 2.899a2.901 2.901 0 0 0 4.58 2.362l.142.539h1.44l-.375-1.416v-1.19a3 3 0 0 0 0-.591v-2.603h-1.441v.386a2.9 2.9 0 0 0-1.446-.387m.044 1.468c.681 0 1.253.475 1.402 1.11v.66a1.441 1.441 0 0 1-2.842-.33c0-.794.645-1.44 1.44-1.44M787.503 1120.83c-.527 0-1.02.14-1.447.385v-.013a2.92 2.92 0 0 0-1.465 2.257v.563a2.92 2.92 0 0 0 1.465 2.256 3 3 0 0 0 .507.23l.088.029q.09.027.182.049c.031.01.062.014.093.02.03.01.062.013.093.018.032.01.063.01.095.013.028 0 .056.01.085.01.043 0 .087.01.13.01q.009.002.018 0h.305c.049 0 .096-.01.144-.01h.005q.145-.014.285-.044c.33-.068.64-.191.919-.36v.417c-.091.861-.634 1.284-1.454 1.414a1.44 1.44 0 0 1-.888-.304l-.894 1.192q.14.104.291.19a3 3 0 0 0 .507.23l.088.029q.09.027.183.049c.03.01.06.014.092.02.03.01.062.013.093.018.032.01.063.01.095.013.029 0 .056.01.085.01.043 0 .087.01.13.01q.009.002.018 0h.306c.048 0 .096-.01.143-.01h.005q.146-.014.285-.044c.38-.078.734-.23 1.045-.44h.001c.778-.54 1.272-1.43 1.285-2.374l.032-5.829h-1.448v.418a2.9 2.9 0 0 0-1.501-.418zm.043 1.477a1.448 1.448 0 1 1 0 2.892 1.448 1.448 0 0 1 0-2.892" style="fill:#000;fill-opacity:1;stroke:none" transform="matrix(6.759 0 0 6.76021 -5090.9 -7278.407)"/>
    </g>
    <g style="stroke:none;fill:#000">
      <g style="fill:#000;stroke:none">
        <path d="M2754.412 2498.163v10.769h-1.82v-.476a3.6 3.6 0 0 1-1.798.476c-2 0-3.622-1.62-3.622-3.616a3.62 3.62 0 0 1 5.42-3.138v-4.015zm-3.672 5.37c-.993 0-1.799.804-1.799 1.795s.806 1.794 1.799 1.794a1.795 1.795 0 1 0 0-3.59" style="fill:#000;fill-opacity:1;stroke:none" transform="matrix(5.50354 0 0 5.4983 -15015.916 -13457.007)"/>
      </g>
    </g>
    <g style="stroke:none;fill:#000">
      <g style="fill:#000;stroke:none">
        <path d="m-227.726 221.755 1.655 6.788h1.693l1.258-4.058 1.258 4.058h1.693l1.656-6.788h-1.693l-.91 3.732-1.158-3.732h-1.692l-1.158 3.732-.91-3.732z" style="fill:#000;fill-opacity:1;stroke:none" transform="matrix(5.79236 0 0 5.7779 1616.474 -982.652)"/>
      </g>
    </g>
  </g>
</svg>
