<svg xmlns="http://www.w3.org/2000/svg" viewBox="0 0 800.01 800.03" role="img" aria-labelledby="title">
  <title id="title">Verkehrszeichen B-28 - B-28: koniec zakazu wyprzedzania przez samochody ciężarowe</title>
  <circle cx="400.01" cy="400.02" r="400" fill="#fff"/>
  <g fill="#a8a8a8">
    <path fill-rule="evenodd" d="M300.01 220.02v280h-50v-50h-40c0 11.05-8.95 20-20 20s-20-8.95-20-20h-40v50h-50v-280l20-20h180z"/>
    <path d="m732.37 372.43-13.28-60.88-49.08-1.53h-80l-49.08 1.53-13.26 60.81-7.66 7.66v90h10v30h30v-30h140v30h30v-30h10v-90zm-186.11-2.41 7-40h153.5l7 40z"/>
  </g>
  <path d="M0 400.02c-1.23 222.27 184.51 401.7 400 400 220.91 0 400-179.09 400-400C801.5 177.87 614.91-1.95 400.01.02 179.1.02 0 179.11 0 400.02m200.41 337.45C85.23 669.19 8.01 543.63 8.01 400.02c0-216.5 175.5-392 392-392 30.32 0 59.84 3.44 88.19 9.96zm199.6 54.55c-30.32 0-59.84-3.44-88.19-9.96L599.61 62.57c115.18 68.28 192.4 193.84 192.4 337.45 0 216.5-175.5 392-392 392"/>
</svg>
