<svg xmlns="http://www.w3.org/2000/svg" viewBox="0 0 802 802" role="img" aria-labelledby="title">
  <title id="title">Verkehrszeichen C-12 - C-12: ruch okrężny</title>
  <circle cx="401" cy="401" r="400" fill="#fff"/>
  <circle cx="401" cy="401" r="400.5" fill="none" stroke="#000"/>
  <circle cx="401" cy="401" r="392" fill="#039"/>
  <g fill="#fff">
    <path d="M176.44 591.93c90.45 102.1 238.38 130.33 360.07 68.72l28.5 41.54a359.9 359.9 0 0 0 46.26-173.98l-161.17 6.53 29.06 42.36c-79.13 33.6-170.88 12.88-227.88-51.47l-74.85 66.31ZM412.95 143.29l86.24 136.32 22.15-46.35c68.67 51.72 96.59 141.54 69.37 223.09l94.85 31.67c43.2-129.38-6.32-271.61-120.53-346.19l21.72-45.46a360.04 360.04 0 0 0-173.81 46.93ZM51.23 380.45a360.04 360.04 0 0 0 127.54 127.06l74.93-142.84-51.21 3.99c10.46-85.33 74.28-154.43 158.51-171.62l-20-97.98c-133.64 27.28-232.06 141.28-239.55 277.47l-50.23 3.92Z"/>
  </g>
</svg>
