<svg xmlns="http://www.w3.org/2000/svg" viewBox="0 0 802 802" role="img" aria-labelledby="title">
  <title id="title">Verkehrszeichen C-16a - C-16a: koniec drogi dla pieszych</title>
  <circle cx="401" cy="401" r="400" fill="#fff"/>
  <circle cx="401" cy="401" r="400.5" fill="none" stroke="#000" stroke-miterlimit="1"/>
  <path fill="#039" d="M627.03 80.69 80.69 627.03C35.53 563.15 9 485.18 9 401 9 184.5 184.5 9 401 9c84.18 0 162.15 26.53 226.03 71.69m94.28 94.28L174.97 721.31C238.85 766.47 316.82 793 401 793c216.5 0 392-175.5 392-392 0-84.18-26.53-162.15-71.69-226.03"/>
  <g fill="#fff">
    <path fill-rule="evenodd" d="m226.39 437.9 14.39 1.08 1.36-9.9 23.13-78.09-6.57 89.33 3.52.26-17.68 200.41h34.47l34.63-197.89 50.37 167.89h31.82l15.29-34.24-17.78-7.62-29.73-182.95 15.17-86.68 83.03 125.32 7.33-5.7 37 21.39 27.3-9.22-23.55 94.19 9.47 2.13-26.81 107.26 23.82 2.13 34.65-102.68 44.25 78.66 13.24 1.16 11.46-25.79-11.92-1.49-26.44-68.23 14.5-58.01 25.72 50.05 20.12-7.82-47.73-95.47-43.2-7.02-43.67 19.11-30.31-16.67-85.16-151.4-40.86-32.91-27.61-1.38-63.19 27.08-19.2 76.8-14.61 116.9"/>
    <circle cx="341" cy="181" r="30"/>
    <circle cx="581" cy="376" r="25"/>
  </g>
  <path fill="red" d="M717.36 169.49 169.49 717.36a393.8 393.8 0 0 1-84.85-84.85L632.51 84.64a393.8 393.8 0 0 1 84.85 84.85"/>
</svg>
