<svg xmlns="http://www.w3.org/2000/svg" viewBox="0 0 802 802" role="img" aria-labelledby="title">
  <title id="title">Verkehrszeichen C-19 - C-19: koniec nakazu stosowania łańcuchów przeciwśniegowych</title>
  <circle cx="401" cy="401" r="400" fill="#fff"/>
  <circle cx="401" cy="401" r="400.5" fill="none" stroke="#000" stroke-miterlimit="1"/>
  <path fill="#039" d="M627.03 80.69 80.69 627.03C35.53 563.15 9 485.18 9 401 9 184.5 184.5 9 401 9c84.18 0 162.15 26.53 226.03 71.69m94.28 94.28L174.97 721.31C238.85 766.47 316.82 793 401 793c216.5 0 392-175.5 392-392 0-84.18-26.53-162.15-71.69-226.03"/>
  <path fill="#fff" fill-rule="evenodd" d="M321 713c-66.27 0-120-143.27-120-320S254.73 73 321 73h160c66.27 0 120 143.27 120 320s-53.73 320-120 320z"/>
  <path d="M481 105H321c-48.6 0-88 128.94-88 288s39.4 288 88 288h160c48.6 0 88-128.94 88-288s-39.4-288-88-288m79.69 263.24-14.06 10.54a16.05 16.05 0 0 0-8.28-5.27l-.58-13.34a16 16 0 0 0 11.29-15.43l10.95 4.25c.29 6.38.51 12.8.68 19.25M500.2 587.56l-4.41 5.51a15.94 15.94 0 0 0-10.79-4.19h-8c-4 0-7.85 1.49-10.79 4.19l-4.41-5.51a15.99 15.99 0 0 0 3.32-15.62l-2.46-7.62c-2.25-6.95-8.92-11.5-16.21-11.04l-4.28-20.42a16.01 16.01 0 0 0 9.93-16.93l-1.03-7.93a16.004 16.004 0 0 0-13.91-13.81l-3.17-29.78a15.976 15.976 0 0 0 11.3-16.03l-.37-7.99c-.33-7.29-5.56-13.43-12.7-14.93l-.56-12.96c7.08-1.82 12.02-8.2 12.02-15.5v-8c0-7.3-4.94-13.68-12.02-15.5l.56-12.96c7.14-1.5 12.37-7.64 12.7-14.93l.37-7.99c.34-7.3-4.31-13.9-11.3-16.03l3.17-29.78c7.24-.89 12.96-6.57 13.91-13.81l1.03-7.93c.94-7.25-3.14-14.21-9.93-16.93l4.28-20.42c7.29.46 13.96-4.09 16.21-11.04l2.46-7.62c1.76-5.43.49-11.38-3.32-15.62l4.41-5.51a15.94 15.94 0 0 0 10.79 4.19h8c4 0 7.85-1.49 10.79-4.19l4.41 5.51a15.99 15.99 0 0 0-3.32 15.62l2.46 7.62c2.25 6.95 8.92 11.5 16.21 11.04l4.28 20.42a16.01 16.01 0 0 0-9.93 16.93l1.03 7.93c.95 7.24 6.67 12.92 13.91 13.81l3.17 29.78a15.976 15.976 0 0 0-11.3 16.03l.37 7.99c.33 7.29 5.56 13.43 12.7 14.93l.56 12.96a16 16 0 0 0-12.02 15.5v8c0 7.3 4.94 13.68 12.02 15.5l-.56 12.96c-7.14 1.5-12.37 7.64-12.7 14.93l-.37 7.99c-.34 7.3 4.31 13.9 11.3 16.03l-3.17 29.78c-7.24.89-12.96 6.57-13.91 13.81l-1.03 7.93a16.01 16.01 0 0 0 9.93 16.93l-4.28 20.42c-7.29-.46-13.96 4.09-16.21 11.04l-2.46 7.62a15.99 15.99 0 0 0 3.32 15.62m-7.2 17.32c0 4.42-3.58 8-8 8h-8c-4.42 0-8-3.58-8-8s3.58-8 8-8h8c4.42 0 8 3.58 8 8M409.27 517h10.7l.4 3.06c.93 7.22 6.62 12.89 13.84 13.81l4.59 21.91a15.99 15.99 0 0 0-6.86 17.42l-10.84 5.42c-4.7-18.61-8.68-39.33-11.83-61.62m7.56 73.05-.82-2.87c.36.92.64 1.88.82 2.87m44.57-405.38-7.24 9.05c-8.26-2.28-16.85 2.35-19.48 10.5l-.28.86-11.22-5.6c5.08-18.59 10.87-34.64 17.2-47.7l23.57 20.08a16.01 16.01 0 0 0-2.55 12.81m-24.14 341.26a7.996 7.996 0 0 1-8.96-6.9l-1.03-7.93c-.57-4.38 2.52-8.4 6.9-8.97s8.39 2.52 8.96 6.9l1.04 7.94c.57 4.38-2.52 8.39-6.91 8.96m7.72 35.71c4.2-1.36 8.71.94 10.07 5.15l2.46 7.61c1.36 4.2-.94 8.71-5.15 10.07-4.2 1.36-8.71-.95-10.07-5.15l-2.46-7.61c-1.36-4.21.94-8.72 5.15-10.07m-23.66-112.16-.37-7.99c-.21-4.41 3.21-8.15 7.62-8.36 4.41-.2 8.16 3.21 8.36 7.63l.37 7.99c.2 4.41-3.21 8.15-7.63 8.36-4.41.2-8.15-3.21-8.35-7.63m6.36-44.48c-4.42 0-8-3.58-8-8v-8c0-4.42 3.58-8 8-8s8 3.58 8 8v8c0 4.42-3.58 8-8 8m-6.73-60.49.37-7.99c.2-4.42 3.94-7.83 8.35-7.63 4.42.21 7.83 3.95 7.63 8.36l-.37 7.99c-.2 4.42-3.95 7.83-8.36 7.63-4.41-.21-7.83-3.95-7.62-8.36m6.32-69.61 1.03-7.93a7.996 7.996 0 0 1 8.96-6.9c4.39.57 7.48 4.58 6.91 8.96l-1.04 7.94c-.57 4.38-4.58 7.47-8.96 6.9s-7.47-4.59-6.9-8.97m12.56-60.61 2.46-7.61c1.36-4.2 5.87-6.51 10.07-5.15a7.993 7.993 0 0 1 5.15 10.07l-2.46 7.61a7.993 7.993 0 0 1-10.07 5.15c-4.21-1.35-6.51-5.86-5.15-10.07m-7.89-1.49a15.99 15.99 0 0 0 6.86 17.42l-4.59 21.91c-7.22.92-12.91 6.59-13.84 13.81l-.4 3.06h-10.7c3.15-22.29 7.13-43.01 11.83-61.62zm-12.7 64.2a16 16 0 0 0 9.98 13.78l-3.24 30.45c-7.07 1.5-12.25 7.56-12.65 14.78l-10.9 4.23c1.2-21.81 3.13-43.03 5.76-63.24zm-6.3 67.74a16 16 0 0 0 11.29 15.43l-.58 13.34c-3.24.85-6.14 2.69-8.28 5.27l-14.06-10.54c.17-6.45.39-12.87.68-19.25zm-1.01 41.46c-.17.92-.25 1.86-.25 2.8v8c0 1.2.14 2.41.41 3.58l-10.95 8.96a970 970 0 0 1-.03-31.45zm3.95 21.61c2.09 2.27 4.79 3.9 7.77 4.68l.58 13.34a16 16 0 0 0-11.29 15.43l-10.95-4.25c-.26-5.75-.47-11.53-.63-17.32zm-2.55 42.18c.4 7.22 5.58 13.28 12.65 14.78l3.24 30.45a16 16 0 0 0-9.98 13.78h-11.05c-2.63-20.21-4.56-41.43-5.76-63.24zm21.07 130.93.28.86c2.63 8.15 11.22 12.78 19.48 10.5l7.24 9.05c-1.01 4.44-.08 9.1 2.55 12.81l-23.57 20.08c-6.33-13.06-12.12-29.11-17.2-47.7zm34.6-399.8c0-4.42 3.58-8 8-8h8c4.42 0 8 3.58 8 8s-3.58 8-8 8h-8c-4.42 0-8-3.58-8-8m58.83 102.75a7.996 7.996 0 0 1-8.96-6.9l-1.04-7.94c-.57-4.38 2.52-8.39 6.91-8.96a7.996 7.996 0 0 1 8.96 6.9l1.03 7.93c.57 4.38-2.52 8.4-6.9 8.97m12.85 52.65.37 7.99c.21 4.41-3.21 8.15-7.62 8.36-4.41.2-8.16-3.21-8.36-7.63l-.37-7.99c-.2-4.41 3.21-8.15 7.63-8.36 4.41-.2 8.15 3.21 8.35 7.63m-23.66-112.16a7.993 7.993 0 0 1-10.07-5.15l-2.46-7.61c-1.36-4.2.94-8.71 5.15-10.07 4.2-1.36 8.71.95 10.07 5.15l2.46 7.61c1.36 4.21-.94 8.72-5.15 10.07M504.49 574.4l2.46-7.61a7.993 7.993 0 0 1 10.07-5.15c4.21 1.35 6.51 5.86 5.15 10.07l-2.46 7.61c-1.36 4.2-5.87 6.51-10.07 5.15a7.993 7.993 0 0 1-5.15-10.07m13.34-57.43 1.04-7.94c.57-4.38 4.58-7.47 8.96-6.9s7.47 4.59 6.9 8.97l-1.03 7.93a7.996 7.996 0 0 1-8.96 6.9c-4.39-.57-7.48-4.58-6.91-8.96m14.5-59.86c-4.42-.21-7.83-3.95-7.63-8.36l.37-7.99c.2-4.42 3.95-7.83 8.36-7.63 4.41.21 7.83 3.95 7.62 8.36l-.37 7.99a7.995 7.995 0 0 1-8.35 7.63M526.32 397v-8c0-4.42 3.58-8 8-8s8 3.58 8 8v8c0 4.42-3.58 8-8 8s-8-3.58-8-8m33.25-56.76-10.9-4.23c-.4-7.22-5.58-13.28-12.65-14.78l-3.24-30.45a16 16 0 0 0 9.98-13.78h11.05c2.63 20.21 4.56 41.43 5.76 63.24M552.73 269h-10.7l-.4-3.06a15.98 15.98 0 0 0-13.84-13.81l-4.59-21.91c5.8-3.72 8.57-10.74 6.86-17.42l10.84-5.42c4.7 18.61 8.68 39.33 11.83 61.62m-13.91-69.52-11.22 5.6-.28-.86c-2.63-8.15-11.22-12.78-19.48-10.5l-7.24-9.05c1.01-4.44.08-9.1-2.55-12.81l23.57-20.08c6.33 13.06 12.12 29.11 17.2 47.7m-20.96-55-26.03 22.17a16 16 0 0 0-6.83-1.53h-8c-2.36 0-4.69.52-6.83 1.53l-26.02-22.16c-.09.15-.18.31-.26.46.08-.16.17-.32.25-.47h.01c11.36-20.65 24-31.48 36.85-31.48s25.47 10.8 36.86 31.48M321 113h139.4c-7.07 5.57-13.91 14-20.35 25.08.66-9.19-6.75-17.11-15.96-17.08h-8c-7.3 0-13.67 4.94-15.5 12h-17.01c-1.69-6.91-8.37-12.09-15.49-12h-8c-7.13-.09-13.81 5.08-15.5 12h-16.5c-1.69-6.92-8.37-12.09-15.5-12h-8c-.96 0-1.93.09-2.88.26 6.31-5.49 12.79-8.26 19.29-8.26m111.09 24v.11c-.06 4.37-3.63 7.89-8 7.89h-8c-4.42 0-8-3.58-8-8-.04-4.31 3.55-8.02 8-8h8c4.41 0 8 3.58 8 8m-56 0c0 4.42-3.59 8-8 8h-8c-4.42 0-8-3.58-8-8s3.58-8 8-8h8c4.32-.02 8.01 3.54 8 8m-71.5-8h8c4.42 0 8 3.58 8 8s-3.58 8-8 8h-8c-4.41 0-8-3.58-8-8s3.59-8 8-8m-16 8c0 8.84 7.17 16 16 16h8c7.3 0 13.67-4.94 15.5-12h16.5c1.83 7.06 8.2 12 15.5 12h8c7.29 0 13.66-4.94 15.49-12h16.76l.31.24c1.9 6.93 8.21 11.76 15.43 11.76h8c3.58 0 7.06-1.2 9.88-3.42-6.49 13.43-12.26 29.17-17.27 46.71 2.24-9.98-5.98-19.76-16.2-19.29h-8c-7.29 0-13.66 4.94-15.49 12h-17.01c-1.83-7.06-8.2-12-15.5-12h-8c-7.29 0-13.66 4.94-15.49 12h-16.51c-1.82-7.06-8.19-12-15.49-12h-8c-5.32 0-10.29 2.64-13.27 7.06 6.21-19.39 13.25-35.26 20.85-47.06Zm119.91 56c0 4.42-3.58 8-8 8h-8c-4.41 0-8-3.58-8-8s3.59-8 8-8h8c4.42 0 8 3.58 8 8m-56 0c0 4.42-3.58 8-8 8h-8c-4.41 0-8-3.58-8-8s3.59-8 8-8h8c4.42 0 8 3.58 8 8m-55.49 0c0 4.42-3.58 8-8 8h-8c-4.42 0-8-3.58-8-8s3.58-8 8-8h8c4.42 0 8 3.58 8 8m-47.69 75.65c3.98-28.12 9.29-53.69 15.69-75.65 0 8.84 7.17 16 16 16h8c7.3 0 13.67-4.94 15.49-12h16.51c1.83 7.06 8.2 12 15.49 12h8c7.3 0 13.67-4.94 15.5-12h17.01c1.83 7.06 8.2 12 15.49 12h8c7.04.26 13.3-4.2 15.59-10.54-6.37 22.71-11.48 48.32-15.25 75.69.72-9.4-7.04-17.49-16.46-17.15h-8c-7.3 0-13.67 4.94-15.5 12h-17.01c-1.83-7.06-8.2-12-15.49-12h-8c-7.3 0-13.67 4.94-15.5 12h-16.5c-1.83-7.06-8.2-12-15.5-12h-8c-7.73-.03-14.2 5.45-15.71 12.74zM392.38 273c0 4.42-3.59 8-8 8h-8c-4.42 0-8-3.58-8-8s3.58-8 8-8h8c4.41 0 8 3.58 8 8m-56 0c0 4.42-3.59 8-8 8h-8c-4.42 0-8-3.58-8-8s3.58-8 8-8h8c4.41 0 8 3.58 8 8m-55.5 0c0 4.42-3.58 8-8 8h-8c-4.41 0-8-3.58-8-8s3.59-8 8-8h8c4.42 0 8 3.58 8 8m-32.16 0c.06-.42.12-.84.17-1.26.05-.68.15-1.34.28-1.99-.09.66-.19 1.32-.28 1.99-.03.4-.05.8-.05 1.21-.03 8.84 7.12 16.02 15.95 16.05h8.09c7.3 0 13.67-4.94 15.5-12h16.5c1.83 7.06 8.2 12 15.5 12h8c7.29 0 13.66-4.94 15.49-12h17.01c1.83 7.06 8.2 12 15.5 12h8c7.88.24 14.61-5.26 16.16-12.72-3.3 24.43-5.54 50.22-6.68 76.58-.04-8.91-7.58-16.19-16.55-15.86h-8c-7.29 0-13.67 4.94-15.49 12H336.8c-1.82-7.06-8.19-12-15.49-12h-8c-7.29 0-13.67 4.94-15.49 12h-16.51c-1.82-7.06-8.19-12-15.49-12h-8c-8.36 0-15.23 6.41-15.94 14.59 1.16-27.24 3.46-53.71 6.84-78.59m136.59 80c0 4.42-3.58 8-8 8h-8c-4.42 0-8-3.58-8-8s3.58-8 8-8h8c4.42 0 8 3.58 8 8m-56 0c0 4.42-3.58 8-8 8h-8c-4.42 0-8-3.58-8-8s3.58-8 8-8h8c4.42 0 8 3.58 8 8m-55.49 0c0 4.42-3.58 8-8 8h-8c-4.42 0-8-3.58-8-8s3.58-8 8-8h8c4.42 0 8 3.58 8 8m-32 0c0 8.84 7.16 16 16 16h8c7.3 0 13.67-4.94 15.49-12h16.51c1.82 7.06 8.2 12 15.49 12h8c7.3 0 13.67-4.94 15.49-12h17.02c1.82 7.06 8.2 12 15.49 12h8c8.54.29 15.73-6.16 16.48-14.56a937 937 0 0 0-.03 76.82c-.84-8.18-8.04-14.58-16.45-14.26h-8c-7.29 0-13.67 4.94-15.49 12H336.8c-1.82-7.06-8.19-12-15.49-12h-8c-7.29 0-13.67 4.94-15.49 12h-16.51c-1.82-7.06-8.19-12-15.49-12h-8c-8.84 0-16 7.16-16 16a979 979 0 0 1 0-80m143.49 80c0 4.42-3.58 8-8 8h-8c-4.42 0-8-3.58-8-8s3.58-8 8-8h8c4.42 0 8 3.58 8 8m-56 0c0 4.42-3.58 8-8 8h-8c-4.42 0-8-3.58-8-8s3.58-8 8-8h8c4.42 0 8 3.58 8 8m-55.49 0c0 4.42-3.58 8-8 8h-8c-4.42 0-8-3.58-8-8s3.58-8 8-8h8c4.42 0 8 3.58 8 8m-31.94 1.41c.71 8.18 7.58 14.59 15.94 14.59h8c7.3 0 13.67-4.94 15.49-12h16.51c1.82 7.06 8.2 12 15.49 12h8c7.3 0 13.67-4.94 15.49-12h17.02c1.82 7.06 8.2 12 15.49 12h8c8.84.3 16.24-6.62 16.54-15.46 1.13 25.99 3.35 51.74 6.74 76.53-1.33-7.19-7.49-12.77-15.1-13.07-.43-.02-.85-.02-1.28 0h-8c-7.29 0-13.67 4.94-15.49 12H343.7c-1.82-7.06-8.19-12-15.49-12h-8c-7.29 0-13.67 4.94-15.49 12h-16.51c-1.82-7.06-8.19-12-15.49-12h-8c-8.84 0-16 7.16-16 16 .2 1.45.4 2.9.6 4.33-.39-1.38-.6-2.83-.6-4.33-3.38-24.88-5.68-51.35-6.84-78.59M392.21 513c0 4.42-3.58 8-8 8h-8c-4.42 0-8-3.58-8-8s3.58-8 8-8h8c4.42 0 8 3.58 8 8m-56 0c0 4.42-3.58 8-8 8h-8c-4.42 0-8-3.58-8-8s3.58-8 8-8h8c4.42 0 8 3.58 8 8m-55.49 0c0 4.42-3.58 8-8 8h-8c-4.42 0-8-3.58-8-8s3.58-8 8-8h8c4.42 0 8 3.58 8 8m-31.4 4.35c1.89 6.73 8.07 11.65 15.4 11.65h8c7.3 0 13.67-4.94 15.49-12h16.51c1.82 7.06 8.2 12 15.49 12h8c7.3 0 13.67-4.94 15.49-12h17.02c1.82 7.06 8.2 12 15.49 12h8c8.84.35 16.29-6.53 16.64-15.36.03-.72.01-1.42-.06-2.12 1.66 12.06 3.61 23.89 5.83 35.4 2.77 14.33 5.91 27.78 9.38 40.23-2.25-5.75-7.75-9.91-14.31-10.15-.2 0-.4-.01-.59-.01-.2 0-.4.01-.6.01h-8c-7.29 0-13.66 4.94-15.49 12H360c-1.83-7.06-8.2-12-15.5-12h-8c-7.29 0-13.66 4.94-15.49 12H304.5c-1.82-7.06-8.19-12-15.49-12h-8c-8.83 0-16 7.16-16 16-6.4-21.96-11.71-47.53-15.69-75.65M408.5 593c0 4.42-3.58 8-8 8h-8c-4.41 0-8-3.58-8-8s3.59-8 8-8h8c4.42 0 8 3.58 8 8m-56 0c0 4.42-3.58 8-8 8h-8c-4.41 0-8-3.58-8-8s3.59-8 8-8h8c4.42 0 8 3.58 8 8m-55.49 0c0 4.42-3.58 8-8 8h-8c-4.42 0-8-3.58-8-8s3.58-8 8-8h8c4.42 0 8 3.58 8 8m-8.42 56c-7.6-11.8-14.64-27.67-20.85-47.06 2.98 4.42 7.95 7.06 13.27 7.06h8c7.3 0 13.67-4.94 15.49-12h16.51c1.83 7.06 8.2 12 15.49 12h8c7.3 0 13.67-4.94 15.5-12h17.01c1.83 7.06 8.2 12 15.49 12h8c8.84.33 16.27-6.57 16.59-15.41.05-1.21-.04-2.39-.26-3.53 5.07 17.71 10.83 33.3 17.14 46.36-2.82-2.22-6.3-3.42-9.88-3.42h-8c-5 0-9.57 2.32-12.53 6.05-1.37 1.71-2.4 3.73-2.97 5.95h-17.01a15.8 15.8 0 0 0-1.69-4.07 15.97 15.97 0 0 0-13.8-7.93h-8c-7 0-13.14 4.54-15.25 11.13-.09.29-.17.58-.25.87h-16.5c-1.83-7.06-8.2-12-15.5-12h-8c-8.83 0-16 7.16-16 16m135.5 8h-8c-4.45.02-8.04-3.69-8-8 0-4.42 3.58-8 8-8h8c4.41 0 8.01 3.61 8 8 0 4.42-3.59 8-8 8m-48-8c.01 4.46-3.68 8.02-8 8h-8c-4.42 0-8-3.58-8-8 0-4.43 3.58-8 8-8h8c4.33-.02 8.01 3.54 8 8m-79.5 0c-.02-4.36 3.58-8.02 8-8h8c4.45-.02 8.04 3.68 8 8 0 4.42-3.58 8-8 8h-8c-4.41 0-8-3.58-8-8M321 673c-6.5 0-12.98-2.77-19.29-8.26.95.17 1.92.26 2.88.26h8c3.23 0 6.27-.97 8.82-2.66 3.22-2.12 5.66-5.4 6.68-9.34h16.5c.6 2.31 1.68 4.39 3.13 6.15 2.97 3.61 7.46 5.85 12.37 5.85h8c6.63 0 12.5-4.09 14.89-10.14q.345-.9.6-1.86h17.01c1.83 7.06 8.2 12 15.5 12h8c8.83 0 16-7.16 16-16 0-.36-.02-.72-.04-1.08 6.44 11.08 13.28 19.51 20.35 25.08zm160 0c-12.85 0-25.49-10.83-36.85-31.49h-.01c-.08-.14-.17-.3-.25-.46.08.15.17.31.26.46l26.02-22.16c2.14 1.01 4.47 1.53 6.83 1.53h8c2.36 0 4.69-.52 6.83-1.53l26.03 22.17C506.47 662.2 493.83 673 481 673m40.62-38.78-23.57-20.08c2.63-3.71 3.56-8.37 2.55-12.81l7.24-9.05c8.26 2.28 16.85-2.35 19.48-10.5l.28-.86 11.22 5.6c-5.08 18.59-10.87 34.64-17.2 47.7m19.28-55.6-10.84-5.42c1.71-6.68-1.06-13.7-6.86-17.42l4.59-21.91c7.22-.92 12.91-6.59 13.84-13.81l.4-3.06h10.7c-3.15 22.29-7.13 43.01-11.83 61.62M553.81 509h-11.05a16 16 0 0 0-9.98-13.78l3.24-30.45c7.07-1.5 12.25-7.56 12.65-14.78l10.9-4.23c-1.2 21.81-3.13 43.03-5.76 63.24m6.2-71.99-10.95 4.25c.06-7.07-4.53-13.35-11.29-15.43l.58-13.34c2.98-.78 5.68-2.41 7.77-4.68l14.52 11.88c-.16 5.79-.37 11.57-.63 17.32m-10.1-36.43c.27-1.17.41-2.38.41-3.58v-8c0-.94-.08-1.88-.25-2.8l10.82-8.11a970 970 0 0 1-.03 31.45z"/>
  <ellipse cx="481" cy="393" rx="26.67" ry="162.2"/>
  <path fill="red" d="M717.36 169.49 169.49 717.36a393.8 393.8 0 0 1-84.85-84.85L632.51 84.64a393.8 393.8 0 0 1 84.85 84.85"/>
</svg>
