<svg xmlns="http://www.w3.org/2000/svg" xml:space="preserve" style="fill-rule:evenodd;clip-rule:evenodd" viewBox="0 0 499 499" role="img" aria-labelledby="title">
  <title id="title">Verkehrszeichen C-13-16a - C-13a/16a: koniec drogi dla pieszych i rowerów</title>
  <path d="M628.571 549.505c0 140.438-104.893 254.286-234.285 254.286C264.893 803.791 160 689.943 160 549.505s104.893-254.286 234.286-254.286c129.392 0 234.285 113.848 234.285 254.286" style="fill:#039;fill-rule:nonzero" transform="matrix(1.06489 0 0 .98114 -170.383 -289.65)"/>
  <path d="m287.662 123.646-39.187 17.313-11.344 47.593-9.156 74.625 10.281 2.782 15.5-57.844-6.281 49.687 4.656 1-11 131.719h21.313l21.312-125.062 30.938 106.531h22l9.312-23.313-11.312-4.968-20-112.219 9.562-52.219 50.375 74.188 2.906-3.907 26.75 16.469 14.813-5.437-13.406 56.968 5.406 1.469-17.156 66.219 16.906 2.281 21.437-62.656 26.438 48.75 10.312-.313 6.813-18.312h-7.781l-16.25-41.906 8.281-33.094 15.031 28.875 14.844-5.438-30.594-60.968-28.031-4.219-26.844 12.25-20.227-12.639-51.585-92.58-24.657-19.969z" style="fill:#fff" transform="translate(23.21 -15.155)scale(.63177)"/>
  <path d="M320.368 102.166c.004 11.127-9.015 20.148-20.141 20.148s-20.145-9.021-20.141-20.148c-.004-11.126 9.015-20.148 20.141-20.148s20.145 9.022 20.141 20.148M467.25 223.212c.003 9.288-7.525 16.818-16.813 16.818s-16.815-7.53-16.812-16.818c-.003-9.287 7.525-16.817 16.812-16.817s16.816 7.53 16.813 16.817" style="fill:#fff;fill-rule:nonzero" transform="translate(23.21 -15.155)scale(.63177)"/>
  <path d="M235.406 400C146.672 401.125 75 473.501 75 562.5 75 652.2 147.8 725 237.5 725S400 652.2 400 562.5 327.2 400 237.5 400c-.701 0-1.395-.009-2.094 0m.313 25c.591-.007 1.188 0 1.781 0 75.9 0 137.5 61.6 137.5 137.5S313.4 700 237.5 700 100 638.4 100 562.5c0-75.307 60.636-136.548 135.719-137.5" style="fill:#fff;fill-rule:nonzero" transform="translate(107.416 223.174)scale(.28517)"/>
  <path d="M262.5 562.5c0 13.807-11.193 25-25 25s-25-11.193-25-25 11.193-25 25-25 25 11.193 25 25" style="fill:#fff;fill-rule:nonzero" transform="translate(107.416 223.174)scale(.28517)"/>
  <path d="M235.406 400C146.672 401.125 75 473.501 75 562.5 75 652.2 147.8 725 237.5 725S400 652.2 400 562.5 327.2 400 237.5 400c-.701 0-1.395-.009-2.094 0m.313 25c.591-.007 1.188 0 1.781 0 75.9 0 137.5 61.6 137.5 137.5S313.4 700 237.5 700 100 638.4 100 562.5c0-75.307 60.636-136.548 135.719-137.5" style="fill:#fff;fill-rule:nonzero" transform="translate(257.13 223.174)scale(.28517)"/>
  <path d="M262.5 562.5c0 13.807-11.193 25-25 25s-25-11.193-25-25 11.193-25 25-25 25 11.193 25 25" style="fill:#fff;fill-rule:nonzero" transform="translate(257.13 223.174)scale(.28517)"/>
  <path d="M268.75 280.071h112.5M268.75 280.071l50-156.25M150 155.071h155l76.25 125" style="fill:none;fill-rule:nonzero;stroke:#fff;stroke-width:12.5px" transform="translate(107.416 223.847)scale(.57034)"/>
  <path d="M118.75 280.071S164.188 120.86 165 118.821c3.444-8.646 4.585-11.57 15-13.75 1.521-.319 20 0 20 0" style="fill:none;fill-rule:nonzero;stroke:#fff;stroke-width:12.5px" transform="translate(107.416 223.847)scale(.57034)"/>
  <path d="M587.5 562.5c0 27.614-22.386 50-50 50s-50-22.386-50-50 22.386-50 50-50 50 22.386 50 50" style="fill:#fff;fill-rule:nonzero" transform="translate(107.416 223.174)scale(.28517)"/>
  <path d="M312.5 136.321H350v-25s-74.861-.697-81.25 0c-5.93.646-3.666 11.42 0 12.5 62.415 18.382 43.75 12.5 43.75 12.5" style="fill:#fff" transform="translate(107.416 223.847)scale(.57034)"/>
  <path d="M268.75 280.071 148 178.821" style="fill:none;fill-rule:nonzero;stroke:#fff;stroke-width:12.5px" transform="translate(107.416 223.847)scale(.57034)"/>
  <path d="M247.989-496.354h8V-8.868h-8z" style="fill:#fff" transform="rotate(90 0 -3.011)"/>
  <path d="M394.063 52.844 51.844 395.063a246.7 246.7 0 0 0 53.094 53.375l342.5-342.5a246.7 246.7 0 0 0-53.375-53.094Z" style="fill:red;fill-rule:nonzero;stroke:#fff;stroke-width:3px" transform="translate(-4.451 -4.125)scale(1.01714)"/>
</svg>
