<svg xmlns="http://www.w3.org/2000/svg" viewBox="0 0 498.978 498.978" role="img" aria-labelledby="title">
  <title id="title">Verkehrszeichen C-13-16 - C-13/16: droga dla pieszych i rowerów</title>
  <g transform="translate(-3.011 -3.011)">
    <path d="M628.571 549.505c0 140.438-104.893 254.286-234.285 254.286C264.893 803.79 160 689.943 160 549.505S264.893 295.22 394.286 295.22c129.392 0 234.285 113.848 234.285 254.286" style="fill:#039;fill-opacity:1;stroke:none" transform="matrix(1.0649 0 0 .98114 -167.372 -286.64)"/>
    <path d="m287.662 123.646-39.187 17.313-11.344 47.593-9.156 74.625 10.281 2.782 15.5-57.844-6.281 49.687 4.656 1-11 131.72h21.313l21.312-125.063 30.938 106.531h22l9.312-23.313-11.312-4.968-20-112.219 9.562-52.219 50.375 74.188 2.906-3.907 26.75 16.47 14.813-5.438-13.406 56.968 5.406 1.47-17.156 66.218 16.906 2.281 21.437-62.656 26.438 48.75 10.312-.313 6.813-18.312h-7.781l-16.25-41.906 8.28-33.094 15.032 28.875 14.844-5.438-30.594-60.968-28.031-4.219-26.844 12.25-20.227-12.64-51.585-92.579-24.657-19.969z" style="fill:#fff;fill-rule:evenodd;stroke:none" transform="translate(26.221 -12.144)scale(.63177)"/>
    <path d="M320.368 102.166c.004 11.127-9.015 20.148-20.14 20.148-11.127 0-20.146-9.021-20.142-20.148-.004-11.126 9.015-20.148 20.141-20.148s20.145 9.022 20.141 20.148M467.25 223.212c.003 9.288-7.525 16.818-16.813 16.818s-16.815-7.53-16.812-16.818c-.003-9.287 7.525-16.817 16.812-16.817s16.816 7.53 16.813 16.817" style="fill:#fff;fill-opacity:1;fill-rule:nonzero;stroke:none" transform="translate(26.221 -12.144)scale(.63177)"/>
    <g style="fill:#fff;fill-opacity:1;stroke:none">
      <path d="M235.406 400C146.672 401.125 75 473.5 75 562.5 75 652.2 147.8 725 237.5 725S400 652.2 400 562.5 327.2 400 237.5 400c-.7 0-1.395-.009-2.094 0m.313 25c.591-.007 1.188 0 1.781 0 75.9 0 137.5 61.6 137.5 137.5S313.4 700 237.5 700 100 638.4 100 562.5c0-75.307 60.636-136.548 135.719-137.5" style="fill:#fff;fill-opacity:1;fill-rule:nonzero;stroke:none" transform="translate(110.427 226.186)scale(.28517)"/>
      <path d="M262.5 562.5c0 13.807-11.193 25-25 25s-25-11.193-25-25 11.193-25 25-25 25 11.193 25 25" style="fill:#fff;fill-opacity:1;fill-rule:nonzero;stroke:none" transform="translate(110.427 226.186)scale(.28517)"/>
    </g>
    <g style="fill:#fff;fill-opacity:1;stroke:none">
      <path d="M235.406 400C146.672 401.125 75 473.5 75 562.5 75 652.2 147.8 725 237.5 725S400 652.2 400 562.5 327.2 400 237.5 400c-.7 0-1.395-.009-2.094 0m.313 25c.591-.007 1.188 0 1.781 0 75.9 0 137.5 61.6 137.5 137.5S313.4 700 237.5 700 100 638.4 100 562.5c0-75.307 60.636-136.548 135.719-137.5" style="fill:#fff;fill-opacity:1;fill-rule:nonzero;stroke:none" transform="translate(260.14 226.186)scale(.28517)"/>
      <path d="M262.5 562.5c0 13.807-11.193 25-25 25s-25-11.193-25-25 11.193-25 25-25 25 11.193 25 25" style="fill:#fff;fill-opacity:1;fill-rule:nonzero;stroke:none" transform="translate(260.14 226.186)scale(.28517)"/>
    </g>
    <path d="M268.75 280.07h112.5M268.75 280.07l50-156.25M150 155.07h155l76.25 125" style="fill:none;stroke:#fff;stroke-width:12.5;stroke-linecap:butt;stroke-linejoin:miter;stroke-miterlimit:4;stroke-opacity:1;stroke-dasharray:none" transform="translate(110.427 226.858)scale(.57034)"/>
    <path d="M118.75 280.07S164.188 120.86 165 118.82c3.444-8.645 4.585-11.57 15-13.75 1.521-.318 20 0 20 0" style="fill:none;stroke:#fff;stroke-width:12.5;stroke-linecap:butt;stroke-linejoin:miter;stroke-miterlimit:4;stroke-opacity:1;stroke-dasharray:none" transform="translate(110.427 226.858)scale(.57034)"/>
    <path d="M587.5 562.5c0 27.614-22.386 50-50 50s-50-22.386-50-50 22.386-50 50-50 50 22.386 50 50" style="fill:#fff;fill-opacity:1;fill-rule:nonzero;stroke:none" transform="translate(110.427 226.186)scale(.28517)"/>
    <path d="M312.5 136.32H350v-25s-74.861-.696-81.25 0c-5.93.647-3.666 11.421 0 12.5 62.415 18.383 43.75 12.5 43.75 12.5" style="fill:#fff;fill-opacity:1;fill-rule:evenodd;stroke:none" transform="translate(110.427 226.858)scale(.57034)"/>
    <path d="M268.75 280.07 148 178.82" style="fill:none;stroke:#fff;stroke-width:12.5;stroke-linecap:butt;stroke-linejoin:miter;stroke-miterlimit:4;stroke-opacity:1;stroke-dasharray:none" transform="translate(110.427 226.858)scale(.57034)"/>
    <rect width="8" height="487.486" x="247.989" y="-496.354" rx="0" ry="0" style="fill:#fff;fill-opacity:1" transform="rotate(90)"/>
  </g>
</svg>
