<svg xmlns="http://www.w3.org/2000/svg" viewBox="0 0 602 602" role="img" aria-labelledby="title">
  <title id="title">Verkehrszeichen D-35a - D-35a: schody ruchome w dół</title>
  <rect width="600" height="600" x="1" y="1" fill="#fff" rx="30" ry="30"/>
  <rect width="601" height="601" x=".5" y=".5" fill="none" stroke="#000" rx="30.5" ry="30.5"/>
  <rect width="588" height="588" x="7" y="7" fill="#039" rx="24" ry="24"/>
  <g fill="#fff">
    <circle cx="421" cy="91" r="20"/>
    <path d="m451.32 226.47-10.03 21.59L436 241v6.23l-44.71-28.17L391 217v-56l4.95-17.58 7.21-25.66 3.99-5.99 22.51 2.81L436 145v58.5z"/>
  </g>
  <path fill="#fff" d="M76.01 255.07C75.5 288.58 102.61 316 136 316h105c25.2 0 50.07 7.09 71.54 20.51L586 513.41v17.87L304.59 349.23C284.83 336.88 262.87 331 241.17 331H136c-41.42 0-75-33.58-75-75s33.58-75 75-75h142.5c25.9 0 51.27 7.03 73.37 20.32l.41.25L586 348.82v17.73L344.28 214.26l-.1-.06C325 202.65 302.53 196 278.5 196H136c-32.52.47-59.49 26.45-59.99 59.07"/>
</svg>
