<svg xmlns="http://www.w3.org/2000/svg" viewBox="0 0 134.294 167.728" role="img" aria-labelledby="title">
  <title id="title">Verkehrszeichen D-51 - D-51: automatyczna kontrola prędkości</title>
  <title>Znak D-51</title>
  <g transform="translate(-175.876 -8.742)">
    <rect width="133.5" height="166.934" x="176.273" y="9.139" rx="6.919" ry="6.919" style="opacity:1;fill:#fff;fill-opacity:1;stroke:#000;stroke-width:.79374999;stroke-linecap:round;stroke-linejoin:round;stroke-miterlimit:4;stroke-dasharray:none;stroke-dashoffset:0;stroke-opacity:1"/>
    <rect width="131.172" height="164.377" x="177.42" y="10.42" rx="6.163" ry="6.163" style="opacity:1;fill:#039;fill-opacity:1;stroke:none;stroke-width:.79374999;stroke-linecap:round;stroke-linejoin:round;stroke-miterlimit:4;stroke-dasharray:none;stroke-dashoffset:0;stroke-opacity:1"/>
    <path d="m257.099 107.993 1.52 1.136c2.437-6.634.037-13.065.037-13.065l-1.464 1.078c1.792 5.754-.093 10.85-.093 10.85zM261.83 111.528l1.563 1.168c4.21-12.072-.26-19.928-.26-19.928l-1.356.998s3.822 8.194.053 17.762zM266.434 114.968l1.413 1.056c6.639-14.866-.117-26.64-.117-26.64l-1.25.92c5.8 12.458-.046 24.664-.046 24.664z" style="opacity:1;fill:#fff;fill-opacity:1;stroke:#fff;stroke-width:.26458332px;stroke-linecap:butt;stroke-linejoin:miter;stroke-opacity:1"/>
    <path d="m270.973 118.36 1.338 1c9.057-16.197.132-33.445.132-33.445l-1.55 1.141s8.47 14.97.08 31.303z" style="opacity:1;fill:#fff;fill-opacity:1;stroke:#fff;stroke-width:.26458332px;stroke-linecap:butt;stroke-linejoin:miter;stroke-opacity:1"/>
    <path d="m275.34 121.623 1.531 1.144c11.513-21.408-.048-40.077-.048-40.077l-1.412 1.04c10.968 20.836-.07 37.893-.07 37.893z" style="opacity:1;fill:#fff;fill-opacity:1;stroke:#fff;stroke-width:.26458332px;stroke-linecap:butt;stroke-linejoin:miter;stroke-opacity:1"/>
    <path d="m279.922 125.047 1.338 1c14.073-25.49.168-46.747.168-46.747l-1.484 1.093c12.983 22.97-.022 44.654-.022 44.654z" style="opacity:1;fill:#fff;fill-opacity:1;stroke:#fff;stroke-width:.26458332px;stroke-linecap:butt;stroke-linejoin:miter;stroke-opacity:1"/>
    <path d="m284.493 128.462 1.285.96c16.32-27.647.267-53.52.267-53.52l-1.594 1.173c15.757 27.44.042 51.387.042 51.387z" style="opacity:1;fill:#fff;fill-opacity:1;stroke:#fff;stroke-width:.26458332px;stroke-linecap:butt;stroke-linejoin:miter;stroke-opacity:1"/>
    <g aria-label="Kontrola" style="font-style:normal;font-variant:normal;font-weight:400;font-stretch:normal;font-size:21.73999596px;line-height:207.5819397px;font-family:Drogowskaz;-inkscape-font-specification:Drogowskaz;letter-spacing:0;word-spacing:0;opacity:1;fill:#fff;fill-opacity:1;stroke:none;stroke-width:.54349989">
      <path d="M192.373 19.088h2.718v6.725l5.91-6.725h3.6l-6.351 7.235 6.352 9.07h-3.33l-4.857-6.964-1.324 1.529v5.435h-2.718zM207.252 34.034q-1.699-1.699-1.699-4.076 0-2.378 1.699-4.077 1.698-1.698 4.076-1.698t4.076 1.698q1.699 1.699 1.699 4.077 0 2.377-1.699 4.076-1.698 1.698-4.076 1.698t-4.076-1.698m1.902-6.216q-.883.883-.883 2.14 0 1.256.883 2.174.917.883 2.174.883t2.14-.883q.917-.918.917-2.174 0-1.257-.917-2.14-.883-.918-2.14-.918t-2.174.918M220.3 24.523h2.717v1.053q1.155-1.053 2.717-1.053 1.665 0 2.854 1.188 1.222 1.19 1.222 2.888v6.794h-2.717v-6.115q0-.849-.612-1.426-.577-.612-1.426-.612-.85 0-1.46.612-.578.577-.578 1.426v6.115h-2.718zM234.299 21.805l2.717-2.717v5.435h2.038v2.717h-2.038v4.076q0 .578.374.985.408.374.985.374h1.427l-1.427 2.718q-1.698 0-2.887-1.19-1.19-1.188-1.19-2.887V27.24h-2.037v-2.717h2.038zM242.494 24.523h2.717v.577q1.291-.577 2.718-.577v2.717q-1.563 0-2.718 1.053v7.1h-2.717zM251.331 34.034q-1.698-1.699-1.698-4.076 0-2.378 1.698-4.077 1.699-1.698 4.076-1.698 2.378 0 4.077 1.698 1.698 1.699 1.698 4.077 0 2.377-1.698 4.076-1.699 1.698-4.077 1.698-2.377 0-4.076-1.698m1.902-6.216q-.883.883-.883 2.14 0 1.256.883 2.174.918.883 2.174.883 1.257 0 2.14-.883.918-.918.918-2.174 0-1.257-.918-2.14-.883-.918-2.14-.918-1.256 0-2.174.918M264.312 19.088h2.717v16.305h-2.717zM271.955 33.796q-1.597-1.596-1.597-3.838t1.597-3.839 3.838-1.596q1.46 0 2.718.747v-.747h2.717v8.152l.68 2.718h-2.718l-.238-1.02q-1.426 1.02-3.159 1.02-2.242 0-3.838-1.597m1.902-5.775q-.781.782-.781 1.937t.78 1.97q.816.781 1.937.781t1.902-.781q.816-.815.816-1.97t-.816-1.937q-.78-.815-1.902-.815-1.12 0-1.936.815" style="font-style:normal;font-variant:normal;font-weight:400;font-stretch:normal;font-family:Drogowskaz;-inkscape-font-specification:Drogowskaz;fill:#fff;stroke-width:.54349989"/>
    </g>
    <g aria-label="prędkości" style="font-style:normal;font-variant:normal;font-weight:400;font-stretch:normal;font-size:21.73999596px;line-height:207.5819397px;font-family:Drogowskaz;-inkscape-font-specification:Drogowskaz;letter-spacing:0;word-spacing:0;opacity:1;fill:#fff;fill-opacity:1;stroke:none;stroke-width:.54349989">
      <path d="M195.805 49.336q-.781.781-.781 1.936t.781 1.97q.815.782 1.936.782t1.902-.781q.816-.816.816-1.97 0-1.156-.816-1.937-.78-.815-1.902-.815-1.12 0-1.936.815m-3.499-3.499h2.718v.748q1.257-.748 2.717-.748 2.242 0 3.839 1.597t1.596 3.838-1.596 3.839-3.839 1.596q-1.46 0-2.717-.747v6.182h-2.718zM206.488 45.837h2.718v.578q1.29-.578 2.717-.578v2.718q-1.562 0-2.717 1.053v7.1h-2.718zM223.477 60.41l-1.29 1.732q-1.36-1.019-1.36-2.717t1.36-2.718q-.408.544-.408 1.36 0 .814.475 1.46.476.645 1.223.883m-1.121-10.157q-.306-.883-1.12-1.46-.782-.578-1.767-.578t-1.8.578q-.782.577-1.088 1.46zm-5.775 2.038q.34.918 1.121 1.495.782.544 1.767.544l4.076-.34-1.359 2.717-1.834.272q-.544.068-.883.068-2.378 0-4.077-1.698-1.698-1.699-1.698-4.077 0-2.377 1.698-4.076 1.699-1.698 4.077-1.698 3.023 0 4.755 2.513v4.28zM228.407 55.11q-1.597-1.596-1.597-3.838t1.597-3.838 3.838-1.597q1.461 0 2.718.748v-6.183h2.717v16.305h-2.717v-.747q-1.257.747-2.718.747-2.242 0-3.838-1.596m1.902-5.774q-.781.781-.781 1.936t.781 1.97q.815.782 1.936.782t1.903-.781q.815-.816.815-1.97 0-1.156-.815-1.937-.782-.815-1.903-.815t-1.936.815M241.409 40.402h2.717v9.512h1.02l3.057-4.077h3.397l-4.077 5.435 4.077 5.435h-3.397l-3.057-4.076h-1.02v4.076h-2.717zM254.09 55.349q-1.699-1.699-1.699-4.077 0-2.377 1.699-4.076 1.698-1.698 4.076-1.698t4.076 1.698 1.699 4.076-1.699 4.077-4.076 1.698-4.076-1.698m1.902-6.217q-.883.883-.883 2.14t.883 2.174q.917.884 2.174.884t2.14-.884q.917-.917.917-2.174t-.917-2.14q-.883-.917-2.14-.917t-2.174.917M271.243 40.402h2.717l-4.076 4.077zm-1.359 5.435q1.325 0 2.378.272v2.446q-1.155-.34-2.378-.34-.272 0-.476.204t-.203.476q0 .407.34.577l2.071 1.257q.782.441 1.223 1.223.442.781.442 1.698 0 1.393-.985 2.412-.985.985-2.412.985-2.242 0-4.144-.781l.747-2.276q1.63.68 3.397.68.442 0 .713-.273.306-.305.306-.747 0-.611-.51-.883l-2.207-1.29q-1.427-.952-1.427-2.582 0-1.291.951-2.174.951-.884 2.174-.884M285.104 55.79q-1.563 1.257-3.601 1.257-2.412 0-4.11-1.698-1.665-1.699-1.665-4.077 0-2.411 1.665-4.076 1.698-1.698 4.11-1.698 1.8 0 3.26 1.019l-1.052 2.65q-.883-.952-2.208-.952-1.257 0-2.174.883-.883.884-.883 2.174 0 1.257.883 2.174.917.884 2.174.884 1.427 0 2.344-1.087zM288.005 45.837h2.717v10.87h-2.717zm0-5.435h2.717v2.718h-2.717z" style="font-style:normal;font-variant:normal;font-weight:400;font-stretch:normal;font-family:Drogowskaz;-inkscape-font-specification:Drogowskaz;fill:#fff;stroke-width:.54349989"/>
    </g>
    <g aria-label="Fotoradar" style="font-style:normal;font-variant:normal;font-weight:400;font-stretch:normal;font-size:21.73999596px;line-height:207.5819397px;font-family:Drogowskaz;-inkscape-font-specification:Drogowskaz;letter-spacing:0;word-spacing:0;opacity:1;fill:#fff;fill-opacity:1;stroke:none;stroke-width:.54349989">
      <path d="M195.024 152.546v4.076h4.755v2.718h-4.755v6.794h-2.718v-16.305h8.832v2.717zM204.062 164.775q-1.699-1.698-1.699-4.076t1.699-4.077 4.076-1.698 4.076 1.698q1.699 1.699 1.699 4.077t-1.699 4.076q-1.698 1.698-4.076 1.698t-4.076-1.698m1.902-6.216q-.883.883-.883 2.14t.883 2.174q.917.883 2.174.883t2.14-.883q.917-.917.917-2.174t-.917-2.14q-.883-.917-2.14-.917t-2.174.917M217.788 152.546l2.718-2.717v5.435h2.038v2.717h-2.038v4.076q0 .578.374.986.407.373.985.373h1.426l-1.426 2.718q-1.699 0-2.888-1.19-1.189-1.188-1.189-2.887v-4.076h-2.038v-2.717h2.038zM226.735 164.775q-1.698-1.698-1.698-4.076t1.698-4.077 4.076-1.698 4.077 1.698 1.698 4.077-1.698 4.076-4.077 1.698q-2.377 0-4.076-1.698m1.902-6.216q-.883.883-.883 2.14t.883 2.174q.918.883 2.174.883 1.257 0 2.14-.883.918-.917.918-2.174t-.918-2.14q-.883-.917-2.14-.917-1.256 0-2.174.917M239.649 155.264h2.717v.577q1.291-.577 2.718-.577v2.717q-1.563 0-2.718 1.053v7.1h-2.717zM248.25 164.537q-1.597-1.596-1.597-3.838t1.597-3.839 3.838-1.596q1.46 0 2.718.747v-.747h2.717v8.152l.68 2.718h-2.718l-.238-1.02q-1.426 1.02-3.159 1.02-2.242 0-3.838-1.597m1.902-5.774q-.781.78-.781 1.936t.78 1.97q.816.781 1.937.781t1.902-.781q.816-.815.816-1.97t-.816-1.937q-.78-.815-1.902-.815-1.12 0-1.936.816M262.298 164.537q-1.597-1.596-1.597-3.838t1.597-3.839 3.838-1.596q1.461 0 2.718.747v-6.182h2.717v16.305h-2.717v-.748q-1.257.748-2.718.748-2.242 0-3.838-1.597m1.902-5.774q-.781.78-.781 1.936t.781 1.97q.815.781 1.936.781t1.903-.781q.815-.815.815-1.97t-.815-1.937q-.782-.815-1.903-.815t-1.936.816M276.413 164.537q-1.596-1.596-1.596-3.838t1.596-3.839 3.839-1.596q1.46 0 2.717.747v-.747h2.718v8.152l.679 2.718h-2.718l-.237-1.02q-1.427 1.02-3.16 1.02-2.241 0-3.838-1.597m1.902-5.774q-.78.78-.78 1.936t.78 1.97q.816.781 1.937.781t1.902-.781q.815-.815.815-1.97t-.815-1.937q-.781-.815-1.902-.815t-1.937.816M289.545 155.264h2.718v.577q1.29-.577 2.717-.577v2.717q-1.562 0-2.717 1.053v7.1h-2.718z" style="font-style:normal;font-variant:normal;font-weight:400;font-stretch:normal;font-family:Drogowskaz;-inkscape-font-specification:Drogowskaz;fill:#fff;stroke-width:.54349989"/>
    </g>
    <rect width="3.475" height="5.345" x="196.777" y="79.576" rx="0" ry="0" style="opacity:1;fill:#fff;fill-opacity:1;stroke:#fff;stroke-width:.79400003;stroke-linecap:round;stroke-linejoin:miter;stroke-miterlimit:4;stroke-dasharray:none;stroke-dashoffset:0;stroke-opacity:1"/>
    <path d="M817.213 313.705a65.848 64.206 0 0 0-46.092 18.371h-40.023v111.115h173.746V332.076h-41.608a65.848 64.206 0 0 0-46.023-18.37m.63 11.295a56.951 56.572 0 0 1 56.952 56.572 56.951 56.572 0 0 1-56.951 56.573 56.951 56.572 0 0 1-56.95-56.573A56.951 56.572 0 0 1 817.845 325" style="opacity:1;fill:#fff;fill-opacity:1;stroke:#fff;stroke-width:3;stroke-linecap:round;stroke-linejoin:round;stroke-miterlimit:4;stroke-dasharray:none;stroke-dashoffset:0;stroke-opacity:1" transform="scale(.26458)"/>
    <ellipse cx="216.455" cy="101.005" rx="11.594" ry="11.794" style="opacity:1;fill:#fff;fill-opacity:1;stroke:none;stroke-width:.74371165;stroke-linecap:round;stroke-linejoin:round;stroke-miterlimit:4;stroke-dasharray:none;stroke-dashoffset:0;stroke-opacity:1"/>
  </g>
</svg>
