<svg xmlns="http://www.w3.org/2000/svg" viewBox="0 0 602.982 548.027" role="img" aria-labelledby="title">
  <title id="title">Verkehrszeichen D-39a - D-39a: opłaty drogowe</title>
  <title>Znak D-39a</title>
  <g transform="translate(-44.464 -92.059)">
    <rect width="600.982" height="546.027" x="45.464" y="93.059" rx="22.884" ry="22.884" style="fill:#fff;fill-opacity:1;stroke:#000;stroke-width:2;stroke-linecap:butt;stroke-linejoin:miter;stroke-miterlimit:4;stroke-opacity:1;stroke-dasharray:none;stroke-dashoffset:0"/>
    <rect width="585.938" height="531.027" x="53.009" y="100.559" rx="19.044" ry="19.044" style="fill:#039;fill-opacity:1;stroke:none"/>
    <g style="font-size:41.13423157px;font-style:normal;font-variant:normal;font-weight:700;font-stretch:normal;text-align:start;line-height:125%;writing-mode:lr-tb;text-anchor:start;fill:#fff;fill-opacity:1;stroke:none;font-family:Drogowskaz;-inkscape-font-specification:Drogowskaz Bold">
      <path d="M295.166 123.446q.172 6.825 4.708 11.36 4.535 4.536 11.36 4.708 6.825-.172 11.36-4.708 4.536-4.535 4.708-11.36-.172-6.825-4.708-11.36-4.535-4.536-11.36-4.708-6.825.172-11.36 4.708-4.536 4.535-4.708 11.36m5.142 0q.117-4.641 3.201-7.725t7.725-3.201q4.641.117 7.725 3.201t3.201 7.725q-.117 4.641-3.201 7.725t-7.725 3.201q-4.641-.117-7.725-3.201t-3.201-7.725M337.586 128.588q.055-2.224 1.51-3.688t3.632-1.518q2.177.054 3.63 1.518 1.455 1.464 1.511 3.688-.055 2.223-1.51 3.687-1.455 1.465-3.631 1.519-2.177-.055-3.632-1.519t-1.51-3.687m-5.142-10.284v30.85h5.142v-11.67a10.23 10.23 0 0 0 5.142 1.387q4.353-.113 7.262-3.02 2.91-2.91 3.021-7.263-.113-4.355-3.02-7.263-2.91-2.909-7.263-3.02a10.2 10.2 0 0 0-5.142 1.386v-1.387zM361.848 108.02v10.284l-5.141 2.571v5.142l5.141-2.571v15.425h5.142v-17.996l5.142-2.57v-5.143l-5.142 2.571v-7.713zM374.574 128.588q.113 4.355 3.021 7.262 2.909 2.91 7.263 3.021a10.2 10.2 0 0 0 3.174-.504q1.507-.498 2.776-1.405l.477 1.91h5.142l-1.285-5.143v-15.425H390v1.387a10.23 10.23 0 0 0-5.142-1.387q-4.355.113-7.263 3.02-2.909 2.909-3.02 7.264m5.142 0q.057-2.224 1.51-3.688t3.632-1.518q2.177.054 3.631 1.518 1.455 1.464 1.51 3.688-.055 2.223-1.51 3.687-1.455 1.465-3.631 1.519-2.178-.055-3.631-1.519-1.455-1.464-1.51-3.687M404.107 113.162v5.142h-3.856v5.142h3.856v7.713q.084 3.276 2.26 5.452 2.178 2.178 5.453 2.26l2.667-5.142h-2.667q-1.092-.027-1.817-.753-.726-.726-.754-1.817v-7.713h3.857v-5.142h-3.857V108.02zM417.042 118.304l6.427 20.567-3.213 10.284h5.142l9.64-30.85h-5.141l-3.857 12.34-3.856-12.34zM454.192 128.588q.113 4.355 3.02 7.262 2.91 2.91 7.263 3.021a10.2 10.2 0 0 0 5.142-1.387v1.387h5.142v-30.85h-5.142v11.67a10.21 10.21 0 0 0-5.142-1.387q-4.355.113-7.263 3.02-2.907 2.909-3.02 7.264m5.141 0q.057-2.224 1.51-3.688 1.455-1.464 3.632-1.518 2.178.054 3.632 1.518 1.453 1.464 1.51 3.688-.057 2.223-1.51 3.687-1.455 1.465-3.632 1.519-2.177-.055-3.631-1.519-1.455-1.464-1.51-3.687M482.44 118.304v20.567h5.141v-13.46a7.688 7.688 0 0 1 5.142-1.965v-5.142q-2.764.02-5.142 1.094v-1.094zM496.58 128.588q.116 4.641 3.2 7.725t7.725 3.201q4.642-.117 7.725-3.201 3.084-3.084 3.202-7.725-.118-4.642-3.202-7.725-3.083-3.084-7.725-3.202-4.64.118-7.724 3.202t-3.202 7.725m5.14 0q.063-2.458 1.696-4.09 1.632-1.632 4.09-1.695 2.455.063 4.09 1.695 1.632 1.633 1.694 4.09-.062 2.456-1.695 4.09-1.632 1.632-4.09 1.694-2.456-.061-4.09-1.695-1.632-1.632-1.694-4.09M530.618 143.018l-3.054 4.07a10.195 10.195 0 0 0 6.165 2.066q4.353-.111 7.262-3.02 2.91-2.909 3.021-7.263v-20.567h-5.142v1.387a10.23 10.23 0 0 0-5.141-1.387q-4.355.113-7.263 3.02-2.91 2.909-3.021 7.264.113 4.355 3.02 7.262 2.909 2.91 7.264 3.021a10.2 10.2 0 0 0 5.141-1.387v1.387q-.055 2.224-1.51 3.688t-3.631 1.518a5.1 5.1 0 0 1-3.111-1.06m-2.031-14.43q.055-2.224 1.51-3.688 1.454-1.464 3.632-1.518 2.177.054 3.63 1.518 1.455 1.464 1.511 3.688-.055 2.223-1.51 3.687-1.455 1.465-3.631 1.519-2.178-.055-3.632-1.519t-1.51-3.687M550.407 128.588q.117 4.641 3.202 7.725 3.083 3.084 7.724 3.201 4.642-.117 7.725-3.201 3.084-3.084 3.202-7.725-.118-4.642-3.202-7.725-3.083-3.084-7.725-3.202-4.64.118-7.724 3.202t-3.202 7.725m5.142 0q.062-2.458 1.695-4.09 1.632-1.632 4.09-1.695 2.455.063 4.09 1.695 1.631 1.633 1.694 4.09-.062 2.456-1.695 4.09-1.632 1.632-4.09 1.694-2.456-.061-4.09-1.695-1.632-1.632-1.694-4.09M576.116 118.304l5.142 20.567h5.142l3.856-12.34 3.856 12.34h5.142l5.142-20.567h-5.142l-2.856 11.426-3.571-11.426h-5.142l-3.57 11.426-2.857-11.426zM624.642 126.66h-10.927a5.7 5.7 0 0 1 2.081-2.772q1.468-1.055 3.382-1.085 1.915.03 3.383 1.085a5.7 5.7 0 0 1 2.08 2.772m-10.927 3.856h14.462v-8.098a11.05 11.05 0 0 0-3.849-3.463q-2.328-1.267-5.15-1.294-4.647.117-7.728 3.198t-3.198 7.729q.117 4.647 3.198 7.728t7.728 3.198q.885-.016 1.672-.129l3.47-.514 2.571-5.142q-.85.125-3.374.37-2.525.244-4.339.273-1.905-.024-3.348-1.06t-2.115-2.796"/>
    </g>
    <g style="font-size:41.13423157px;font-style:normal;font-variant:normal;font-weight:700;font-stretch:normal;text-align:start;line-height:125%;writing-mode:lr-tb;text-anchor:start;fill:#fff;fill-opacity:1;stroke:none;font-family:Drogowskaz;-inkscape-font-specification:Drogowskaz Bold">
      <path d="m317.595 178.865 7.49 12.851 5.955.006-7.622-13.077a11 11 0 0 0 3.217-3.788q1.18-2.27 1.205-4.99-.028-2.826-1.294-5.16a11 11 0 0 0-3.435-3.838h-15.196v30.85h5.142v-12.854zm3.629-5.142h-8.167v-7.712h8.167a5.764 5.764 0 0 1 1.474 3.856 5.76 5.76 0 0 1-1.474 3.856M334.428 181.436q.117 4.641 3.201 7.725t7.725 3.201q4.641-.117 7.725-3.201t3.201-7.725q-.117-4.642-3.201-7.725-3.084-3.084-7.725-3.202-4.641.118-7.725 3.202t-3.201 7.725m5.142 0q.061-2.457 1.694-4.09 1.633-1.632 4.09-1.695 2.457.063 4.09 1.695 1.632 1.633 1.695 4.09-.063 2.456-1.695 4.09-1.633 1.632-4.09 1.694-2.457-.061-4.09-1.695-1.632-1.632-1.694-4.09M361.294 181.436q.112 4.355 3.02 7.263 2.91 2.907 7.263 3.02a10.2 10.2 0 0 0 3.174-.504q1.507-.497 2.776-1.405l.477 1.91h5.142l-1.285-5.142v-15.426h-5.142v1.387a10.21 10.21 0 0 0-5.142-1.387q-4.355.113-7.263 3.02-2.908 2.909-3.02 7.264m5.141 0q.057-2.224 1.51-3.688 1.455-1.464 3.632-1.518 2.178.054 3.632 1.518 1.453 1.464 1.51 3.688-.057 2.223-1.51 3.687-1.455 1.465-3.632 1.519-2.177-.054-3.631-1.519-1.455-1.464-1.51-3.687M388.127 181.436q.112 4.355 3.021 7.263t7.263 3.02a10.2 10.2 0 0 0 5.142-1.387v1.387h5.141v-30.85h-5.141v11.67a10.21 10.21 0 0 0-5.142-1.387q-4.355.113-7.263 3.02-2.909 2.909-3.02 7.264m5.142 0q.057-2.224 1.51-3.688 1.455-1.464 3.632-1.518 2.177.054 3.631 1.518 1.455 1.464 1.51 3.688-.055 2.223-1.51 3.687-1.455 1.465-3.631 1.519-2.178-.054-3.632-1.519t-1.51-3.687M436.942 181.436q.057-2.224 1.51-3.688 1.455-1.464 3.632-1.518 2.177.054 3.631 1.518 1.455 1.464 1.51 3.688-.055 2.223-1.51 3.687-1.455 1.465-3.631 1.519-2.178-.054-3.632-1.519t-1.51-3.687m-5.142-10.284v30.85h5.142v-11.67a10.23 10.23 0 0 0 5.142 1.387q4.355-.113 7.263-3.02 2.907-2.91 3.02-7.263-.113-4.355-3.02-7.263-2.91-2.909-7.263-3.02a10.2 10.2 0 0 0-5.142 1.386v-1.387zM457.22 181.436q.113 4.355 3.02 7.263 2.91 2.907 7.263 3.02a10.2 10.2 0 0 0 3.174-.504q1.507-.497 2.776-1.405l.478 1.91h5.142l-1.286-5.142v-15.426h-5.142v1.387a10.21 10.21 0 0 0-5.142-1.387q-4.354.113-7.262 3.02-2.91 2.909-3.021 7.264m5.142 0q.055-2.224 1.51-3.688t3.631-1.518q2.178.054 3.632 1.518t1.51 3.688q-.055 2.223-1.51 3.687-1.455 1.465-3.632 1.519-2.177-.054-3.63-1.519-1.455-1.464-1.511-3.687M482.897 171.152l6.427 20.567-3.214 10.284h5.142l9.64-30.85h-5.14l-3.857 12.34-3.857-12.34zM506.035 171.152v20.567h5.141v-12.211q.034-1.365.942-2.272t2.272-.942q1.365.034 2.272.942.908.907.942 2.272v12.211h5.141v-12.211q.034-1.365.942-2.272t2.272-.942q1.365.034 2.272.942.908.907.942 2.272v12.211h5.142v-12.854q-.084-3.276-2.26-5.453-2.178-2.177-5.453-2.26a7.7 7.7 0 0 0-5.42 2.227 6.45 6.45 0 0 0-2.145-1.625 6.4 6.4 0 0 0-2.719-.602q-1.59.015-2.919.7a6.46 6.46 0 0 0-2.223 1.872v-2.572zM557.131 179.508h-10.926a5.7 5.7 0 0 1 2.08-2.772q1.47-1.055 3.383-1.085 1.914.03 3.382 1.085a5.7 5.7 0 0 1 2.081 2.772m-10.926 3.856h14.461v-8.098a11.05 11.05 0 0 0-3.848-3.463q-2.328-1.267-5.15-1.294-4.648.117-7.729 3.198t-3.197 7.729q.116 4.647 3.197 7.728 3.08 3.082 7.729 3.198.884-.016 1.671-.128l3.47-.515 2.572-5.141q-.85.124-3.375.37-2.524.244-4.338.272-1.905-.024-3.349-1.06-1.443-1.036-2.114-2.796M567.093 171.152v20.567h5.142V180.15q.042-1.638 1.13-2.726 1.09-1.089 2.726-1.13 1.638.041 2.727 1.13t1.13 2.726v11.57h5.142v-12.855q-.087-3.276-2.274-5.453t-5.44-2.26a7.57 7.57 0 0 0-5.14 2.005v-2.005zM594.088 166.01v5.142h-3.857v5.142h3.857v7.713q.082 3.275 2.26 5.453 2.176 2.175 5.452 2.26l2.668-5.142H601.8q-1.092-.028-1.817-.754-.726-.725-.754-1.817v-7.713h3.857v-5.142h-3.857V160.87zM616.042 171.152q-2.395.054-4.114 1.663-1.719 1.61-1.8 4.122.079 2.016.989 3.213t1.711 1.671l4.178 2.443q.44.249.699.69.258.443.265.98-.018.839-.555 1.375-.536.536-1.373.554a16.7 16.7 0 0 1-6.449-1.285l-1.414 4.306a19.5 19.5 0 0 0 3.706 1.084 22 22 0 0 0 4.157.394q2.721-.07 4.539-1.888t1.888-4.54q-.023-1.803-.876-3.245a6.4 6.4 0 0 0-2.274-2.282l-3.92-2.378a1.13 1.13 0 0 1-.466-.426 1.27 1.27 0 0 1-.177-.666 1.28 1.28 0 0 1 .378-.908q.363-.364.908-.378 1.191.005 2.334.177a15.4 15.4 0 0 1 2.122.466v-4.628a16 16 0 0 0-2.031-.371 20 20 0 0 0-2.425-.143"/>
    </g>
    <path d="M92.5 173.179a40.714 30.179 0 1 1-81.429 0 40.714 30.179 0 1 1 81.429 0z" style="fill:#fff;stroke:#000;stroke-width:.47439635;stroke-miterlimit:4;stroke-opacity:1;stroke-dasharray:none" transform="matrix(2.19784 0 0 2.02172 61.19 -173.087)"/>
    <path d="M92.5 173.179a40.714 30.179 0 1 1-81.429 0 40.714 30.179 0 1 1 81.429 0z" style="fill:none;stroke:#000;stroke-width:1.53442538;stroke-miterlimit:4;stroke-opacity:1;stroke-dasharray:none" transform="matrix(2.06126 0 0 1.85446 67.772 -144.055)"/>
    <path d="m170 80.844-28.406.187.187 78.938h12.156v-33.406h16.594c23.393 0 23.406-22.844 23.406-22.844 0-22.857-23.937-22.875-23.937-22.875zm-16.062 12.5h17.937c.09 0 10.094.013 10.094 10.281 0 0 .009 10.969-9.188 10.969h-18.844zM202.321 80.857v79.107h43.572v-11.607h-31.429v-67.5z" style="fill:#000;stroke:#000;stroke-width:1px;stroke-linecap:butt;stroke-linejoin:miter;stroke-opacity:1" transform="translate(-19 56.576)"/>
    <rect width="228.527" height="205.089" x="79.464" y="262.464" rx="14.669" ry="14.669" style="fill:#fff;stroke:none" transform="translate(-19 56.576)"/>
    <rect width="228.527" height="92.009" x="60.464" y="531.541" rx="14.669" ry="14.669" style="fill:#fff;stroke:none"/>
    <rect width="163.571" height="49.018" x="296.446" y="262.612" rx="14.669" ry="14.669" style="fill:#fff;stroke:none"/>
    <rect width="163.571" height="304.509" x="296.446" y="319.041" rx="14.669" ry="14.669" style="fill:#fff;stroke:none"/>
    <rect width="163.527" height="49.018" x="467.429" y="262.612" rx="14.669" ry="14.669" style="fill:#fff;stroke:none"/>
    <rect width="163.527" height="205.089" x="467.429" y="319.041" rx="14.669" ry="14.669" style="fill:#fff;stroke:none"/>
    <path d="M503.954 306.196h91.18c2.61 0 4.985-2.375 4.985-4.984v-29.907c0-2.61-2.374-4.985-4.984-4.985h-91.181c-2.61 0-4.985 2.375-4.985 4.985v29.907c0 2.61 2.375 4.984 4.985 4.984" style="fill:#039;fill-opacity:1;stroke:none"/>
    <g style="font-size:26.31871796px;font-style:normal;font-variant:normal;font-weight:700;font-stretch:normal;text-align:start;line-height:125%;writing-mode:lr-tb;text-anchor:start;fill:#fff;fill-opacity:1;stroke:none;font-family:Drogowskaz;-inkscape-font-specification:Drogowskaz Bold">
      <path d="M517.742 288.045a7 7 0 0 0 2.198-2.456q.81-1.493.828-3.3-.018-1.809-.828-3.301a7 7 0 0 0-2.198-2.457h-9.311v19.74h3.29v-8.226zm-1.207-3.29h-4.814v-4.934h4.814a3.7 3.7 0 0 1 .943 2.467 3.7 3.7 0 0 1-.943 2.468M524.88 276.531v6.58l-3.29 1.645v3.29l3.29-1.645v9.87h3.29v-11.515l3.29-1.645v-3.29l-3.29 1.645v-4.935zM533.022 289.69q.072 2.787 1.933 4.647t4.647 1.933a6.53 6.53 0 0 0 3.807-1.221l.305 1.221h3.29l-.822-3.29v-9.87h-3.29v.888a6.55 6.55 0 0 0-3.29-.887q-2.785.072-4.647 1.932-1.86 1.862-1.933 4.647m3.29 0q.036-1.422.967-2.359t2.323-.972q1.393.035 2.323.972t.967 2.36q-.036 1.422-.967 2.359-.93.936-2.323.971-1.393-.035-2.323-.971-.93-.937-.967-2.36M551.918 279.82v3.29h-2.467v3.29h2.467v4.935q.054 2.096 1.446 3.49 1.393 1.392 3.49 1.445l1.706-3.29h-1.707q-.698-.018-1.163-.482t-.482-1.163v-4.934h2.468v-3.29h-2.468v-6.58zM561.84 283.11v13.16h3.29v-7.402q.026-1.048.722-1.745.697-.696 1.744-.722 1.049.026 1.745.722.696.697.723 1.745v7.402h3.29v-8.225q-.055-2.096-1.455-3.488-1.4-1.393-3.48-1.446a4.85 4.85 0 0 0-3.29 1.282v-1.282zM577.384 289.69q.072 2.787 1.933 4.647t4.646 1.933a6.53 6.53 0 0 0 3.807-1.221l.306 1.221h3.29l-.823-3.29v-9.87h-3.29v.888a6.55 6.55 0 0 0-3.29-.887q-2.786.072-4.646 1.932-1.861 1.862-1.933 4.647m3.29 0q.036-1.422.966-2.359t2.323-.972q1.394.035 2.324.972t.966 2.36q-.036 1.422-.966 2.359-.93.936-2.324.971-1.392-.035-2.323-.971-.93-.937-.966-2.36"/>
    </g>
    <g transform="translate(30.353 614.436)scale(.1572)">
      <rect width="396.283" height="497.646" x="393.22" y="-484.14" rx="17.686" ry="16.213" style="fill:#039;fill-opacity:1;stroke:none"/>
      <path d="m591.27-336.037-89.163 1.542-11.44 58.871-10.198 10.926v91.049h9.426v30.121h31.578v-30.121h139.808v30.121h31.493v-30.121h10.154v-91.22l-10.583-10.755-11.397-59.042zM514.018-315.6h155.147l6.727 40.318H507.805zm-8.012 65.769c8.494 0 15.296 6.845 15.296 15.339s-6.802 15.34-15.296 15.34a15.31 15.31 0 0 1-15.34-15.34 15.31 15.31 0 0 1 15.34-15.339m171.686 0a15.31 15.31 0 0 1 15.339 15.339 15.31 15.31 0 0 1-15.34 15.34 15.31 15.31 0 0 1-15.338-15.34 15.31 15.31 0 0 1 15.339-15.339m-187.668 44.689h202.878v10.883H490.024z" style="fill:#fff;stroke:none"/>
    </g>
    <g transform="translate(82.953 381.399)scale(.1572)">
      <rect width="396.285" height="497.649" x="393.269" y="5.82" rx="17.686" ry="16.214" style="fill:#039;fill-opacity:1;stroke:none"/>
      <path d="M513.68 194.303 540.053 9.99h30.259l-2.846 184.314zM667.819 194.303 641.446 9.99h-30.259l2.846 184.314z" style="fill:#fff"/>
      <path d="M399.82 204.59h381.746v9.868h-47.957l9.003 50.726H702.1l10.388-50.726H470.11l10.042 51.072h-40.339l10.041-51.246h-49.687z" style="fill:#fff;fill-opacity:1;stroke:none"/>
      <path d="M566.274 264.94h-63.275l-34.27 235.876h93.123zM615.595 264.94h63.274l34.271 235.876h-93.123z" style="fill:#fff"/>
    </g>
    <path d="M200.472 595.5h50.55c2.61 0 4.984-2.375 4.984-4.985v-25.907c0-2.61-2.375-4.984-4.985-4.984h-50.55c-2.61 0-4.984 2.374-4.984 4.984v25.907c0 2.61 2.375 4.985 4.985 4.985" style="fill:#d40000;fill-opacity:1;stroke:none"/>
    <g style="font-size:26.31871796px;font-style:normal;font-variant:normal;font-weight:700;font-stretch:normal;text-align:start;line-height:125%;writing-mode:lr-tb;text-anchor:start;fill:#fff;fill-opacity:1;stroke:none;font-family:Drogowskaz;-inkscape-font-specification:Drogowskaz Bold">
      <path d="m219.23 567.814-8.224 11.515v3.29h8.225v4.934h3.29v-4.934h1.644l.823-3.29h-2.467v-11.515zm0 11.515h-4.934l4.935-6.909zM234.035 577.684q-1.393-.033-2.323-.951-.93-.919-.967-2.34.036-1.421.967-2.359.93-.936 2.323-.971 1.393.035 2.323.971.93.938.967 2.36-.036 1.42-.967 2.339t-2.323.95m0-9.87q-2.785.072-4.647 1.933-1.86 1.86-1.933 4.647.07 2.769 1.913 4.626t4.605 1.953l-4.38 7.403h3.814l6.303-10.652q.435-.735.669-1.577a6.6 6.6 0 0 0 .236-1.753q-.072-2.785-1.933-4.647-1.86-1.86-4.647-1.933"/>
    </g>
    <path d="M356.098 306.196h43.199a4.984 4.984 0 0 0 4.984-4.984v-29.907a4.984 4.984 0 0 0-4.984-4.985h-43.2a4.984 4.984 0 0 0-4.984 4.985v29.907a4.984 4.984 0 0 0 4.985 4.984" style="fill:#fff;fill-opacity:1;stroke:none"/>
    <path d="M356.098 304.7h43.199a3.49 3.49 0 0 0 3.489-3.488v-29.907a3.49 3.49 0 0 0-3.49-3.49h-43.198a3.49 3.49 0 0 0-3.49 3.49v29.907a3.49 3.49 0 0 0 3.49 3.489" style="fill:#f60;fill-opacity:1;stroke:none"/>
    <path d="M389.264 282.26a13.03 13.03 0 0 0-5.916-5.745l-.128 1.125a11.96 11.96 0 0 1 4.941 4.814zM392.524 281.685a16.22 16.22 0 0 0-8.798-8.487l-.125 1.098a15.15 15.15 0 0 1 7.842 7.58zM384.098 269.932l-.124 1.084a18.34 18.34 0 0 1 10.7 10.29l1.07-.189a19.4 19.4 0 0 0-11.646-11.185M383.66 284.148a1.33 1.33 0 0 0-1.601-.986l-21.446 5.093a1.33 1.33 0 0 0-.986 1.6l2.583 10.877a1.33 1.33 0 0 0 1.6.986l21.446-5.093a1.33 1.33 0 0 0 .987-1.6z" style="fill:#000;fill-opacity:1;stroke:none"/>
    <path d="M321.071 532.464H472.68" style="fill:none;stroke:#000;stroke-width:1px;stroke-linecap:butt;stroke-linejoin:miter;stroke-opacity:1" transform="translate(-19 56.576)"/>
    <path d="M302.071 503.059H453.68M302.071 395.068H453.68M472.998 368.07h151.607M472.998 448.516h151.607M472.998 511.06h151.607" style="fill:none;stroke:#000;stroke-width:1px;stroke-linecap:butt;stroke-linejoin:miter;stroke-opacity:1"/>
    <g style="font-size:40px;font-style:normal;font-weight:400;fill:#000;fill-opacity:1;stroke:none;font-family:Bitstream Vera Sans">
      <path d="m379.75 355.38-18.75 7.5v5l25-10v-5l-25-10v5z" style="font-family:Drogowskaz;-inkscape-font-specification:Drogowskaz"/>
    </g>
    <g style="font-size:34.18537521px;font-style:normal;font-weight:400;fill:#000;fill-opacity:1;stroke:none;font-family:Bitstream Vera Sans">
      <path d="M399.174 357.17a4.3 4.3 0 0 1 1.069-.134q1.815.046 3.02 1.252 1.207 1.205 1.253 3.02-.046 1.816-1.252 3.022t-3.021 1.252q-1.815-.045-3.021-1.252-1.206-1.206-1.252-3.021h-4.274q.093 3.649 2.504 6.053 2.413 2.405 6.043 2.493 3.63-.09 6.042-2.493t2.504-6.053a8.8 8.8 0 0 0-.689-3.413 8.7 8.7 0 0 0-1.883-2.785 7.4 7.4 0 0 0 1.108-2.08q.39-1.137.396-2.405-.082-3.167-2.197-5.282t-5.281-2.196q-3.167.082-5.282 2.196t-2.196 5.282h4.273q.035-1.358.941-2.264.907-.906 2.264-.941 1.356.035 2.263.941.906.908.942 2.264-.036 1.358-.942 2.263-.906.907-2.263.942a3.2 3.2 0 0 1-1.069-.184zM413.783 369.321l-.933 4.273a9.67 9.67 0 0 0 3.763-3.478q1.408-2.244 1.443-5.068h-4.273zM430.145 347.955h8.904v-4.273h-12.82l-1.068 12.82h6.41q1.813.041 3.02 1.235 1.206 1.193 1.253 3.038-.047 1.845-1.253 3.038-1.207 1.193-3.02 1.235-.355 0-.693-.055l-6.343-1-.355 4.279 6.065.946q.649.102 1.325.103 3.628-.094 6.041-2.51 2.414-2.418 2.506-6.036-.093-3.62-2.506-6.036-2.413-2.418-6.04-2.51a8.5 8.5 0 0 0-1.798.19zM446.366 347.955v4.273h-3.205v4.274h3.205v6.41q.069 2.721 1.878 4.531 1.81 1.809 4.532 1.878l2.217-4.273h-2.217q-.908-.023-1.51-.626-.604-.603-.627-1.51v-6.41h3.205v-4.274h-3.205v-8.546z" style="font-family:Drogowskaz;-inkscape-font-specification:Drogowskaz"/>
    </g>
    <path d="m501.969 340.938-5 3.218v38.75H511c.503 4.791 4.545 8.531 9.469 8.531s8.966-3.74 9.468-8.53h73c.516 4.776 4.586 8.5 9.5 8.5 4.915 0 8.953-3.724 9.47-8.5h9.062V380h2v-3H631v-14l-4.937-3.125-3.22-11.875H611.97v-3.844l-2.938-3.219zM614.03 350h6.907l3.03 10h-9.937z" style="fill:#000;stroke:none" transform="translate(-19 56.576)"/>
    <path d="m311.975 452.08-5 3.218v38.75h14.03c.503 4.791 4.545 8.531 9.47 8.531 4.924 0 8.966-3.74 9.468-8.53h73c.516 4.776 4.586 8.5 9.5 8.5s8.953-3.724 9.47-8.5h9.062v-2.907h2v-3h-1.97v-14l-4.937-3.125-3.218-11.875h-10.875v-3.844l-2.938-3.219zm112.062 9.062h6.906l3.032 10h-9.938z" style="fill:#000;stroke:none"/>
    <g style="font-size:40px;font-style:normal;font-weight:400;fill:#fff;fill-opacity:1;stroke:none;font-family:Bitstream Vera Sans">
      <path d="m334.924 473.063-18.75 7.5v5l25-10v-5l-25-10v5z" style="fill:#fff;font-family:Drogowskaz;-inkscape-font-specification:Drogowskaz"/>
    </g>
    <g style="font-size:34.18537521px;font-style:normal;font-weight:400;fill:#fff;fill-opacity:1;stroke:none;font-family:Bitstream Vera Sans">
      <path d="M353.718 474.727a4.3 4.3 0 0 1 1.068-.135q1.815.045 3.021 1.252 1.206 1.206 1.252 3.021-.045 1.815-1.252 3.022-1.206 1.205-3.021 1.252-1.815-.046-3.021-1.252-1.206-1.207-1.252-3.022h-4.273q.09 3.65 2.504 6.054 2.412 2.403 6.042 2.493 3.63-.09 6.042-2.493t2.504-6.054a8.8 8.8 0 0 0-.689-3.412 8.7 8.7 0 0 0-1.883-2.785 7.4 7.4 0 0 0 1.108-2.081q.39-1.136.396-2.405-.082-3.165-2.197-5.281t-5.281-2.197q-3.167.082-5.282 2.197t-2.196 5.281h4.273q.035-1.356.941-2.263.908-.906 2.264-.941 1.358.035 2.263.94.907.908.942 2.264-.035 1.358-.942 2.264t-2.263.941a3.2 3.2 0 0 1-1.068-.184zM368.326 486.878l-.933 4.272a9.67 9.67 0 0 0 3.763-3.478q1.408-2.242 1.444-5.068h-4.274zM384.688 465.512h8.904v-4.274h-12.82l-1.068 12.82h6.41q1.814.042 3.02 1.235t1.253 3.038q-.047 1.845-1.253 3.038-1.206 1.194-3.02 1.235-.354 0-.693-.054l-6.343-1-.355 4.278 6.066.947q.648.102 1.325.103 3.627-.095 6.04-2.51 2.414-2.418 2.506-6.037-.093-3.618-2.506-6.036t-6.04-2.51a8.5 8.5 0 0 0-1.798.19zM400.91 465.512v4.273h-3.205v4.273h3.204v6.41q.069 2.722 1.878 4.532 1.81 1.809 4.532 1.878l2.217-4.274h-2.217q-.907-.023-1.51-.626t-.626-1.51v-6.41h3.204v-4.273h-3.204v-8.547z" style="fill:#fff;font-family:Drogowskaz;-inkscape-font-specification:Drogowskaz"/>
    </g>
    <path d="m323.808 548.774-.858 16.144v15.129l24.773.99h.056a6 6 0 0 0-.006.275c0 3.968 3.354 7.189 7.49 7.189s7.49-3.22 7.49-7.19q-.001-.124-.007-.25l38.368.057q-.005.096-.006.194c0 3.968 3.353 7.189 7.49 7.189 4.136 0 7.489-3.22 7.489-7.19q.002-.087 0-.175h16.344l.789-.782V567.14s-4.659-18.24-4.71-18.367H323.81zm4.66 3.57h10.588l1.002 1.008v11.453l-.876.877h-11.548l-.826-.827.563-11.422zm14.502 0h17.04l1.001 1.008v11.453l-.876.877h-17.428l-.833-.827v-11.422zm21.04 0h16.94l1.002 1.008v11.453l-.877.877h-17.327l-.833-.827v-11.422zm19.877 0h3.675v13.338h-3.675zm5.723 0h3.682l-.006 13.338h-3.676zm6.763 0h18.836l1.002 1.008v11.453l-.876.877h-19.231l-.827-.827v-11.422zm22.744 0h8.466l3.864 15.298-3.889 3.832h-8.566l-.965-1.954v-16.087zM494.79 470.828l-.858 16.143v15.13l24.773.989h.057a6 6 0 0 0-.006.275c0 3.969 3.353 7.19 7.49 7.19 4.135 0 7.489-3.221 7.489-7.19q0-.126-.006-.25l38.367.056q-.005.098-.006.194c0 3.969 3.353 7.19 7.49 7.19 4.136 0 7.49-3.221 7.49-7.19v-.175h16.343l.79-.783v-13.213s-4.66-18.24-4.71-18.366H494.791zm4.66 3.569h10.589l1.001 1.008v11.453l-.876.877h-11.548l-.826-.826.563-11.422zm14.502 0h17.04l1.001 1.008v11.453l-.876.877h-17.428l-.833-.826v-11.422zm21.04 0h16.94l1.002 1.008v11.453l-.877.877H534.73l-.833-.826v-11.422zm19.877 0h3.676v13.338h-3.676zm5.723 0h3.682l-.006 13.338h-3.675zm6.763 0h18.837l1.002 1.008v11.453l-.877.877h-19.231l-.827-.826v-11.422zm22.744 0h8.466l3.864 15.298-3.889 3.833h-8.566l-.964-1.954v-16.087z" style="fill:#000;stroke:none"/>
    <path d="M320.969 331.031V335H333a3.47 3.47 0 0 0 3.438 3 3.47 3.47 0 0 0 3.437-3h11.156v-3.969H320.97" style="fill:#000;fill-opacity:1;stroke:none" transform="translate(-19 56.576)"/>
    <path d="M349.732 332.866h11.518" style="fill:none;stroke:#000;stroke-width:1px;stroke-linecap:butt;stroke-linejoin:miter;stroke-opacity:1" transform="translate(-19 56.576)"/>
    <path d="m367.665 374.057 5.502 9.446h11.348v5.573c0 1.681-.002 1.68-1.976 1.68h-1.628a3.907 3.907 0 0 1-3.901 3.762 3.907 3.907 0 0 1-3.9-3.763h-21.64a3.907 3.907 0 0 1-3.901 3.763 3.907 3.907 0 0 1-3.9-3.763h-1.84c-1.763 0-1.765.002-1.765-1.679v-2.301l11.924-12.718zm.233 3.75h-5.326v5.472h8.41zm-6.89 0h-9.596v5.472h9.596zM524.384 347.137l5.502 9.447h11.348v5.572c0 1.682-.002 1.68-1.976 1.68h-1.628a3.907 3.907 0 0 1-3.901 3.763 3.907 3.907 0 0 1-3.901-3.764h-21.64a3.907 3.907 0 0 1-3.9 3.764 3.907 3.907 0 0 1-3.901-3.764h-1.838c-1.765 0-1.766.002-1.766-1.679v-2.301l11.923-12.718zm.233 3.751h-5.327v5.471h8.41zm-6.89 0h-9.596v5.471h9.596z" style="fill:#000;fill-opacity:1;fill-rule:evenodd;stroke:none"/>
    <path d="M189.123-749.675c-18.247 0-33.077 15.235-33.077 33.979 0 18.743 14.83 33.978 33.077 33.978 18.246 0 33.076-15.235 33.076-33.978s-14.83-33.979-33.076-33.979m-22.31 74.323-39.118 33.5-31.527 155.33H-9.18v25.463l-74.364 25.464-24.788 101.855h24.788c0 56.221 44.423 101.855 99.152 101.855 36.671 0 68.675-20.494 85.828-50.927H267.98l54.069-101.856h15.027c-7.434 15.349-11.62 32.632-11.62 50.928v50.928h25.718c17.153 30.433 49.157 50.927 85.829 50.927 54.729 0 99.152-45.634 99.152-101.855 0-33.3-15.58-62.895-39.661-81.484l7.436-10.186c-18.65-14.404-41.814-22.917-66.927-22.917-16.472 0-32.09 3.672-46.168 10.265l-22.619-35.729h30.597l4.106-50.927h-65.068v-31.83l-96.75-24.827zm36.95 109.335 24.633 24.509 109.455 24.031h-83.815l-34.316 26.498-34.083-12.015zM15.607-409.813c21.837 0 41.52 9.69 55.076 25.145h-47.02a49.5 49.5 0 0 0-8.056-.636c-27.712 0-50.196 23.096-50.196 51.564s22.484 51.564 50.196 51.564c2.734 0 5.44-.204 8.056-.636h47.02c-13.556 15.455-33.24 25.145-55.076 25.145-40.883 0-74.054-34.075-74.054-76.073s33.17-76.073 74.054-76.073m421.396 0c40.883 0 74.054 34.075 74.054 76.073s-33.17 76.073-74.054 76.073-74.054-34.075-74.054-76.073c0-23.808 10.662-45.092 27.344-59.044l15.027 19.018c-11.301 9.457-18.513 23.893-18.513 40.026 0 28.468 22.483 51.564 50.196 51.564s50.195-23.096 50.195-51.564-22.483-51.564-50.195-51.564c-4.079 0-8.055.488-11.852 1.432l-13.556-21.326a72.2 72.2 0 0 1 25.408-4.615m-173.516 25.145h24.788l-24.788 38.196z" style="fill:#000;fill-opacity:1;fill-rule:evenodd;stroke:none" transform="translate(570.985 384.65)scale(.07357)"/>
  </g>
</svg>
