<svg xmlns="http://www.w3.org/2000/svg" viewBox="0 0 602 752" role="img" aria-labelledby="title">
  <title id="title">Verkehrszeichen D-15 - D-15: przystanek autobusowy</title>
  <rect width="600" height="750" x="1" y="1" fill="#fff" rx="30" ry="30"/>
  <rect width="601" height="751" x=".5" y=".5" fill="none" stroke="#000" rx="30.5" ry="30.5"/>
  <rect width="588" height="738" x="7" y="7" fill="#039" rx="24" ry="24"/>
  <path fill="#fff" d="M81 81h440v440H81z"/>
  <path fill-rule="evenodd" d="M482.045 232.25H106.646l-3.771 40.991v68.319l88.815 6.832c0 15.092 12.236 27.328 27.328 27.328s27.328-12.236 27.328-27.328h136.81c0 15.092 12.236 27.328 27.328 27.328s27.328-12.236 27.328-27.328h55.979l5.336-6.832v-40.991l-17.08-68.319Zm-317.683 58.071-3.416 3.416h-44.407l-3.416-3.416 3.32-40.991 3.512-3.416h40.991l3.416 3.416zm13.664 3.416-6.832-3.416V249.33l6.832-3.416h54.655l6.832 3.416v40.991l-6.832 3.416zm129.806-3.416L301 293.737h-47.823l-6.832-3.416V249.33l6.832-3.416H301l6.832 3.416zm27.327 3.416h-13.664v-47.823h13.664zm20.496 0h-13.664v-47.823h13.664zm81.983-3.416-6.832 3.416h-61.487l-6.832-3.416V249.33l6.832-3.416h61.487l6.832 3.416zm40.991 23.912h-27.328l-6.832-6.832V249.33l6.832-3.416h27.116l13.705 54.826z"/>
</svg>
