<svg xmlns="http://www.w3.org/2000/svg" viewBox="0 0 550.107 257.638" role="img" aria-labelledby="title">
  <title id="title">Verkehrszeichen D-52 - D-52: strefa ruchu</title>
  <g transform="translate(-83.389 -27.839)scale(1.39857)">
    <rect width="391.966" height="182.846" x="60.31" y="20.59" rx="12.043" ry="12.043" style="fill:#fff;stroke:#000;stroke-width:1.36998296;stroke-opacity:1"/>
    <rect width="380.167" height="170.795" x="66.335" y="26.615" rx="5.641" ry="5.641" style="fill:none;stroke:#000;stroke-width:3.5;stroke-miterlimit:4;stroke-opacity:1;stroke-dasharray:none"/>
  </g>
  <path d="m277.562 57.644-12.34 62.645-11.18 10.47v94.055h11.18v31.411h33.541v-31.41h141.454v31.41h33.54v-31.41h11.8v-94.056l-11.18-10.47-13.491-62.645zm14.458 20.31h155.56l8.963 41.88H283.147zm-11.18 68.811c4.566-.298 9.237 1.248 12.587 4.166s5.33 7.168 5.336 11.45c0 4.108-1.807 8.19-4.912 11.095s-7.467 4.596-11.858 4.596c-4.39 0-8.754-1.69-11.858-4.596-3.105-2.904-4.912-6.987-4.912-11.094.006-3.923 1.656-7.823 4.52-10.687s6.914-4.663 11.097-4.93m175.406 0c4.567-.298 9.237 1.248 12.587 4.166s5.33 7.168 5.337 11.45c0 4.108-1.807 8.19-4.912 11.095s-7.468 4.596-11.858 4.596-8.754-1.69-11.859-4.596c-3.104-2.904-4.911-6.987-4.911-11.094.006-3.923 1.656-7.823 4.52-10.687s6.914-4.663 11.096-4.93m-191.023 46.86h207.63v10.47h-207.63z" style="fill:#000;fill-opacity:1;fill-rule:evenodd;stroke:none" transform="translate(145.468 15.12)scale(.35219)"/>
  <g style="font-size:77.40764618px;font-style:normal;font-variant:normal;font-weight:700;font-stretch:normal;text-align:start;line-height:125%;writing-mode:lr-tb;text-anchor:start;fill:#000;fill-opacity:1;stroke:none;font-family:Drogowskaz;-inkscape-font-specification:Drogowskaz Bold">
    <path d="m100.207 227.23-11.875-7.002q-3.75-2.124-5.937-5.874t-2.188-8.125q0-6.75 4.75-11.5t11.5-4.75q8.502 0 16.75 2.375l-3.249 9.5a49.4 49.4 0 0 0-13.5-1.875q-2.626 0-4.438 1.812t-1.813 4.438q0 3.625 3.125 5.376l11.875 7q3.999 2.248 6.375 6.31 2.376 4.063 2.375 8.814 0 7.251-5.124 12.375-5.124 5.125-12.376 5.125-11.25 0-21.626-3.875l3.125-9.5q8.877 3.375 18.501 3.375 3.126 0 5.313-2.188 2.187-2.187 2.187-5.312 0-4.25-3.75-6.5M130.364 199.979l10-10v20h7.5v10h-7.5v15q0 2.124 1.438 3.562t3.562 1.438h5.249l-5.25 10q-6.25 0-10.624-4.375-4.375-4.376-4.375-10.625v-15h-7.5v-10h7.5zM157.898 209.979h10v2.124a24.2 24.2 0 0 1 10-2.124v10q-5.75 0-10 3.874v26.126h-10zM216.399 226.229q-1.126-3.25-4.063-5.375t-6.562-2.125-6.563 2.125-4.062 5.375zm-21.25 7.5q1.25 3.373 4.124 5.437 2.876 2.063 6.5 2.063 6.5 0 15-1.25l-5 10-6.75 1q-2 .25-3.25.25-8.75 0-15-6.25t-6.25-15q0-8.751 6.25-15t15-6.25q11.126 0 17.5 9.25v15.75zM230.337 219.979v-10h7.5q0-8.25 5.875-14.125t14.125-5.875v10q-4.126 0-7.063 2.874t-2.937 7.126h7.5v10h-7.5v30h-10v-30zM270.647 244.105q-5.874-5.877-5.874-14.126 0-8.25 5.874-14.125t14.126-5.875q5.373 0 10 2.749v-2.75h10v30l2.5 10h-10l-.877-3.75q-5.25 3.75-11.623 3.75-8.252 0-14.126-5.873m7.063-21.314q-2.937 2.937-2.937 7.188t2.937 7.187 7.062 2.937 7.063-2.937 2.938-7.187-2.938-7.188q-2.94-2.937-7.063-2.937-4.125 0-7.062 2.937M349.71 209.979h10v2.124a24.2 24.2 0 0 1 10-2.124v10q-5.75 0-10 3.874v26.126h-10zM377.085 209.979h10v23.75q0 3.125 2.187 5.312 2.188 2.187 5.313 2.188 3.125 0 5.312-2.188 2.188-2.187 2.188-5.312v-23.75h10v23.75q0 7.251-5.125 12.375-5.123 5.125-12.374 5.125-7.25 0-12.376-5.125-5.125-5.124-5.125-12.375zM453.776 246.605q-5.75 4.624-13.25 4.624-8.873 0-15.061-6.25t-6.188-15.063q0-8.811 6.188-15 6.188-6.187 15.062-6.187 6.623 0 12 3.75l-3.875 9.75q-3.25-3.5-8.125-3.5-4.626 0-7.938 3.25t-3.312 7.936 3.312 8q3.311 3.315 7.938 3.314 5.25 0 8.625-4zM460.688 189.979h10v23.874q4.25-3.874 10-3.874 6.125 0 10.562 4.375 4.438 4.374 4.438 10.625v25h-10v-22.5q0-3.125-2.188-5.313-2.187-2.187-5.312-2.187t-5.313 2.187-2.187 5.313v22.5h-10zM503.256 209.979h10v23.75q0 3.125 2.187 5.312 2.188 2.187 5.313 2.188 3.125 0 5.312-2.188 2.187-2.187 2.188-5.312v-23.75h10v23.75q0 7.251-5.125 12.375-5.124 5.125-12.374 5.125t-12.376-5.125-5.125-12.375z" style="font-size:80px" transform="translate(-32.006 -42.797)"/>
  </g>
</svg>
