<svg xmlns="http://www.w3.org/2000/svg" viewBox="0 0 602.2 752.2" role="img" aria-labelledby="title">
  <title id="title">Verkehrszeichen D-26a - D-26a: warsztat wulkanizacyjny</title>
  <g transform="translate(1.1 1.1)">
    <rect width="600" height="750" ry="21.226" style="fill:#fff;fill-opacity:1;fill-rule:nonzero;stroke:#000;stroke-width:2;stroke-linecap:butt;stroke-linejoin:round;stroke-miterlimit:4;stroke-opacity:1;stroke-dasharray:none;stroke-dashoffset:0"/>
    <rect width="589" height="739" x="5.5" y="5.5" ry="20.915" style="fill:#039;fill-opacity:1;fill-rule:nonzero;stroke:none"/>
    <rect width="440" height="440" x="80" y="80" ry="0" style="fill:#fff;fill-opacity:1;fill-rule:nonzero;stroke:none"/>
    <path d="M354.9 135.1zM354.9 135.1zM354.9 135.1z" style="fill:none;stroke:#000;stroke-width:1px;stroke-linecap:butt;stroke-linejoin:miter;stroke-opacity:1"/>
    <path d="M297.119 96.413c-7.692.027-14.475.323-18.5.937-3.139.479-10.372 1.445-16.063 2.125s-13.614 2.113-17.625 3.188a851 851 0 0 1-13.281 3.437c-3.297.813-9.624 3.122-14.031 5.156-6.756 3.119-8.97 4.85-14.219 11-26.703 31.287-43.16 63.906-52.25 103.563-13.926 60.757-7.641 130.094 16.781 184.937 9.23 20.726 22.42 39.225 34.031 47.782 12.77 9.41 38.225 17.98 67.313 22.656 14.25 2.29 49.45 2.103 66.938-.375 19.287-2.733 26.383-4.412 36.343-8.531 15.832-6.548 30.76-18.428 44.125-35.157 15.18-18.998 27.776-46.74 34.813-76.625 3.798-16.13 4.478-19.88 6.125-33.75 4.428-37.295 2.395-80.297-5.282-111.531-12.69-51.635-35.526-87.882-64.5-102.375-9.226-4.615-36.94-12.138-53.187-14.437-9.36-1.325-24.711-2.047-37.531-2m-5.532 2-11.687 2.875c-6.43 1.587-11.94 3.161-12.25 3.468s2.154 2.15 5.469 4.125c16.663 9.93 20.425 10.298 31.656 3.094 10.601-6.8 19.109-9.652 29.875-10.094 7.336-.3 7.94-.24 3.625.469-22.196 3.646-40.828 16.296-56.656 38.469-6.013 8.423-17.532 28.769-17.532 30.969 0 .277-1.088 2.951-2.437 5.937-9.898 21.913-16.497 51.014-21.281 93.844-1.367 12.234-1.425 44.578-.094 56.437 2.265 20.186 5.237 40.296 6.719 45.375.825 2.828 2.652 9.286 4.062 14.375 3.57 12.878 9.737 27.647 16.219 38.844 3.022 5.22 5.782 9.717 6.125 10s2.38 2.932 4.531 5.875c5.45 7.457 16.705 17.497 25.344 22.594 9.855 5.814 20.498 9.388 32.938 11.062 7.355.99 8.99 1.425 5.593 1.5-5.547.123-21.234-2.44-25.5-4.156-8.43-3.391-16.81-7.51-19.875-9.812-3.086-2.32-4.18-2.542-10.375-2.125-5.597.375-9.006 1.453-17.812 5.625l-10.906 5.156 4.687 1.281c2.568.708 9.57 2.356 15.563 3.656 18.757 4.07-.822 1.937-30.094-3.281-9.808-1.748-9.838-1.781-5.125-2.5 2.605-.397 6.812-1.652 9.344-2.781 2.53-1.13 7.066-3.08 10.062-4.344s5.438-2.657 5.438-3.094c0-1.113-50.75-17.482-54.157-17.468-1.535.006-3.064.451-3.406 1-.882 1.414 14.31 16.898 21.469 21.875 3.3 2.293 6 4.35 6 4.562 0 .831-5.982-1.102-10.906-3.531-6.654-3.283-21.274-17.864-28.313-28.219-17.913-26.35-28.983-58.035-37.094-106.219-2.161-12.842-3.162-53.324-1.687-68.375 4.858-49.592 21.08-94.12 45.75-125.718 1.673-2.144 4.34-5.621 5.937-7.72 3.875-5.089 20.986-22.088 24.25-24.093 1.427-.876 3.976-1.896 5.688-2.281 2.824-.636 2.42 0-4.407 6.844-4.137 4.148-7.53 7.87-7.53 8.28 0 1.125 5.712.925 22.062-.812 21.401-2.273 23.6-2.589 23.593-3.375-.003-.39-4.618-3.156-10.25-6.125-7.563-3.987-11.426-5.422-14.78-5.5l-4.532-.093 3.625-.907c1.997-.498 6.205-1.167 9.344-1.468s8.053-.95 10.906-1.47c2.853-.518 9.15-1.202 14-1.5zm71.657 8.187c3.723.004 5.501.757 10.718 3.344 23.824 11.81 42.793 31.793 56.47 59.469 10.416 21.08 19.573 55.175 22.624 84.187 1.512 14.374 1.515 52.147 0 66.5-1.202 11.399-5.557 35.785-7.844 44-3.58 12.867-7.058 23.67-10.03 31.063-15.478 38.486-47.2 72.882-71.438 77.437-3.022.568-6.267.939-7.188.844s-3.53-.352-5.812-.563c-9.011-.83-22.3-6.35-31.657-13.156-5.779-4.204-16.975-15.732-21.937-22.594-4-5.53-13.344-20.582-13.344-21.5 0-.307-1.148-3.015-2.562-6-10.458-22.066-18.147-51.77-21.344-82.531-1.377-13.245-1.356-53.97.031-66.437 3.76-33.775 9.409-56.316 20.688-82.438 19.037-44.089 46.704-69.38 78.062-71.406 1.877-.121 3.322-.22 4.563-.219m-76.313 13.313c-7 0-40.898 4.126-41.875 5.093-.532.528 3.38 3.714 9.313 7.594 9.127 5.97 10.813 6.707 15.562 6.781 4.83.076 5.564-.25 7.906-3.281 1.42-1.838 4.98-5.763 7.907-8.75s5.344-5.89 5.343-6.437c0-.548-1.871-1-4.156-1m-58.406 5.28c-.477 0-.985.028-1.531.063-4.39.284-5.191.755-9.032 5.532-2.312 2.876-4.774 6.136-5.5 7.218-.725 1.083-4.58 6.787-8.562 12.688-3.982 5.9-7.25 11.101-7.25 11.562s2.37.844 5.25.844c4.059 0 7.377-1.008 14.781-4.531 5.253-2.5 16.014-7.58 23.906-11.281 7.893-3.702 14.059-7.175 13.72-7.72-.34-.544-5.542-4.066-11.563-7.812-8.717-5.422-10.882-6.555-14.219-6.562m37.437 18.376c-4.207.185-8.571 2.104-37.937 16.031-6.42 3.045-11.656 5.735-11.656 5.969 0 .486 15.03 10.763 23.125 15.812 4.443 2.772 6.153 3.282 9.562 2.875 2.283-.272 4.198-.502 4.25-.531.053-.029.67-1.978 1.375-4.312 1.53-5.06 11.517-25.813 14.531-30.188 3.202-4.647 2.772-5.656-2.406-5.656-.286 0-.563-.013-.844 0m-67.75 23.656c-3.553.075-3.901.6-5.812 4.313-6.224 12.088-13.757 31.972-12.563 33.156.313.31 2.981.562 5.938.562 4.664 0 7.702-1.156 23.031-8.718 9.718-4.795 18.94-9.194 20.5-9.782 3.873-1.459 2.942-2.384-11.844-11.781-11.134-7.076-12.67-7.75-17.53-7.75-.652 0-1.212-.01-1.72 0m164.532 16.969c-6.286.02-10.609.356-15.875 2.937-11.09 5.436-19.228 14.462-28.625 31.688-7.248 13.285-10.542 24.188-14.157 47-1.894 11.955-2.24 38.15-.625 47.312.556 3.152 1.748 10.376 2.657 16.032 1.98 12.32 4.36 19.365 10.875 32.468 6.166 12.402 11.829 20.046 19.437 26.188 6.257 5.05 8.233 6.059 15.875 8.281 10.068 2.928 26.221-1.654 33.063-9.375 1.752-1.978 3.632-3.594 4.187-3.594 1.544 0 9.708-10.99 13.906-18.718 4.695-8.641 11.639-28.846 13.188-38.344.646-3.959 1.607-9.117 2.125-11.469s1.23-10.207 1.594-17.469c1.7-33.966-8.24-73.108-24.157-95.062-5.816-8.022-5.24-5.114 1.063 5.437 6.915 11.575 12.936 28.723 16.906 48.125 2.557 12.493 3.901 16.434 3.802 34.48-.06 11.027-.819 20.002-1.424 23.475-3.259 18.678-6.202 26.827-11.471 39.545-.137.672-.66 1.892-1.313 3.063a175 175 0 0 1-3.312 7.094c-.116.475-.699 1.722-1.813 3.906-1.442 2.827-3.397 6.087-4.344 7.219-.946 1.13-.186-.732 1.657-4.125.883-1.627 1.617-2.95 2.28-4.063a180 180 0 0 0 3.97-8.562c.117-.626.603-1.773 1.218-2.907 6.135-15.031 10.1-30.693 11.688-47.062l.093-.031c.023-1.915.1-4.248.188-7.063.613-19.813-.897-33.464-5.719-52.156-4.761-18.46-8.59-28.964-15.75-43.188l-5.937-11.812c-5.678-6.614-15.432-8.895-25.25-9.25m-118.782 4.437c-4.904-.034-6.291.6-14.812 4.75-5.03 2.451-13.225 6.356-18.219 8.688-4.993 2.332-9.094 4.648-9.094 5.156 0 .77 12.477 8.065 25.438 14.875 1.983 1.042 5.158 1.56 8.781 1.406l5.688-.25.843-5.062c.689-4.09 3.988-15.917 7.688-27.594.48-1.514-.155-1.807-3.969-1.906-.874-.023-1.643-.058-2.344-.063m-63.875 20.688c-3.691.075-3.59 2.013-7.375 20.531-3.062 14.98-3.6 19.754-2.343 21 .38.377 2.836.688 5.468.688 4.105 0 6.198-.925 14.625-6.344 5.406-3.476 11.932-7.522 14.5-9 9.751-5.613 14.515-8.844 14.5-9.844-.008-.57-6.74-4.617-14.968-9-13.873-7.389-15.425-7.969-21.157-7.969-1.348 0-2.398-.08-3.25-.062m138.97 14.219c1.62-.355 5.4 6.384 9.905 17.718 11.512 28.96 11.406 60.816-.28 89.969-6.222 15.52-11.331 25.065-12.22 22.844-.82-2.052-.675-2.604 3.125-12.563 7.594-19.895 11.182-33.439 13.032-49.281 2.299-19.692-1.04-36.025-12.594-62.031-1.707-3.843-2.073-5.716-1.281-6.5a.63.63 0 0 1 .312-.156m-84.407 6.406c-6.325 0-7.29.46-23.469 11.062a1982 1982 0 0 1-14.25 9.25c-2.412 1.543-4.26 3.249-4.094 3.782s7.043 7.812 15.282 16.156l15 15.156 5.969.063 5.968.03.031-9.5c.026-5.23.44-12.76.938-16.718 1.337-10.634 3.166-23.249 3.812-26.469.565-2.81.51-2.812-5.187-2.812m81.531.406c.841.072 2.104 3.498 5.813 13.969 6.36 17.96 6.959 21.334 6.937 39.594-.023 20.104-2.442 31.766-11.75 56.812-1.521 4.094-3.047 7.431-3.406 7.438-.86.014-3.315-9.933-6.219-25.188-1.936-10.171-2.349-15.847-2.344-32.375.006-18.59.233-21.125 3.25-35 1.79-8.23 3.785-16.334 4.438-18s1.662-4.18 2.219-5.594c.401-1.02.68-1.689 1.062-1.656m-142.937 25.344c-3.191.07-4.594.5-4.969 1.469-1.028 2.653-2.035 43.944-1.25 51.187l.75 6.938h5.719c5.448 0 8.706-1.371 13.437-5.625 1.769-1.59 4.298-3.604 15.219-12.22 5.47-4.315 10.252-8.339 10.625-8.937s-6.74-8.227-15.781-16.937l-16.438-15.844-5.844-.031c-.53-.004-1.012-.01-1.468 0m50.375 33.781-12.188 10.188c-6.706 5.609-14.234 11.987-16.719 14.187l-4.5 4 5.032 4.188c2.77 2.295 8.278 6.643 12.218 9.656 3.941 3.013 7.903 6.068 8.813 6.812s3.744 3.003 6.312 5c3.646 2.834 5.637 3.617 9.032 3.625 2.391.005 4.517-.326 4.75-.75s.04-4.693-.438-9.5-1.025-17.319-1.219-27.781l-.343-19-5.375-.312zm-54.969 30.938-.031 4.375c-.003 4.583 6.918 43.868 8.406 47.75.63 1.643 1.9 2.359 4.781 2.656 2.168.223 4.02.467 4.094.562.418.537 14.404-10.938 28.844-23.687l3.187-2.813-3.406-2.843c-1.861-1.566-7.205-5.718-11.906-9.22-4.702-3.5-11.7-8.701-15.531-11.562-6.418-4.79-7.427-5.218-12.72-5.218zm63.812 30.843c-5.505 0-5.689.132-13.687 7.532-4.463 4.13-10.6 9.74-13.625 12.5-4.77 4.353-5.266 5.173-3.719 6.03 1.758.975 26.037 7.31 34.125 8.907 6.011 1.187 9.397.801 9.156-1.031-.11-.849-1.375-7.09-2.78-13.875-1.406-6.786-2.856-14.067-3.22-16.188l-.656-3.875zm-52.656 28.813.75 3.844c.4 2.12 2.232 7.786 4.094 12.593s3.68 9.542 4.031 10.532c.484 1.363 1.794 1.812 5.438 1.812 4.286 0 6.26-.937 18.093-8.656 7.3-4.762 13.535-9.11 13.875-9.656.341-.547-.41-1.234-1.687-1.532-1.277-.297-9.806-2.441-18.938-4.75-9.13-2.308-18.636-4.184-21.125-4.187zm62.594 12.344c-5.175-.021-6.338.468-14.719 6.156-5 3.393-9.473 6.156-9.969 6.156s-2.524 1.352-4.5 3l-3.593 3 2.594 1c1.426.558 10.548 4.115 20.25 7.906s19.498 7.254 21.78 7.688c2.284.434 4.772.616 5.532.406s1.795-.375 2.313-.375c.517 0-1.382-4.561-4.22-10.156s-6.206-13.463-7.5-17.469l-2.343-7.281zM194.213 411.6c-1.113-.025-1.864.149-2.25.531-1.193 1.182 9.22 21.337 13.843 26.782 2.043 2.406 3.282 2.3 15.844-1.282 12.661-3.61 20.178-6.35 20.75-7.562.225-.478-3.555-2.446-8.406-4.406-4.851-1.961-14.524-5.879-21.5-8.688-8.513-3.428-14.945-5.299-18.281-5.375m65.78 20.906c-5.188 0-9.76.975-19.5 4.219-6.995 2.33-12.718 4.561-12.718 4.938s7.11 2.902 15.812 5.625c8.704 2.722 19.806 6.244 24.657 7.843 8.288 2.733 19.718 4.066 19.718 2.282 0-.44-2.762-3.228-6.156-6.188s-8.19-8.393-10.625-12.062l-4.406-6.657z" style="fill:#000;stroke:none;fill-opacity:1"/>
  </g>
</svg>
