<svg xmlns="http://www.w3.org/2000/svg" viewBox="0 0 902 602" role="img" aria-labelledby="title">
  <title id="title">Verkehrszeichen D-40 - D-40: strefa zamieszkania</title>
  <rect width="900" height="600" x="1" y="1" fill="#fff" rx="30" ry="30"/>
  <rect width="901" height="601" x=".5" y=".5" fill="none" stroke="#000" rx="30.5" ry="30.5"/>
  <rect width="888" height="588" x="7" y="7" fill="#039" rx="24" ry="24"/>
  <path fill="#fff" fill-rule="evenodd" d="M496 129.423 487.875 83.5h-133.75L346 127.6l-7.5 8.4v66.668h7.5v22.5h22.5v-22.5h105v22.5H496v-22.5h7.5V136zM363.4 98.5h115.196l4.17 30H359.234zm-6.15 48.75c6.214 0 11.25 5.036 11.25 11.25s-5.036 11.25-11.25 11.25S346 164.714 346 158.5s5.036-11.25 11.25-11.25M496 188.5H346V181h150zm-11.25-18.75c-6.214 0-11.25-5.036-11.25-11.25s5.036-11.25 11.25-11.25S496 152.286 496 158.5s-5.036 11.25-11.25 11.25"/>
  <g fill="#fff">
    <path d="M811 121v-18.75h-7.5v13.13L781 98.5l-60 45 7.5.29V301H766v-60h30v60h37.5V143.5h7.5zm-15 90h-30v-30h30z"/>
    <path d="M616 241v45c0 24.813 20.187 45 45 45h180v15H661c-33.137 0-60-26.863-60-60v-45z"/>
  </g>
  <g fill="#fff">
    <circle cx="503.5" cy="364.75" r="12"/>
    <circle cx="451" cy="458.5" r="15"/>
    <path d="M548.5 454.75V481l-9.375-15h-26.25l-8.515-18.578-12.11 7.328v33.75H466l15-9.375v-31.458l18.261-16.232-3.895-21.421-3.457 5.531L470.2 426.4 466 421l14.968-6.829 25.281-35.815 29.126 24.965v26.989L526 435.483V408.5l-7.5-6.25v52.5z"/>
  </g>
  <g fill="#fff">
    <circle cx="180.783" cy="179.125" r="20"/>
    <path d="M272.66 461.64v8.63L221.77 481l-7.06-22.42-18.93-60.08-31.46-38.69-60.46 97.36 17.14 12.8V481h-15.22l-31.655-19.16 60.545-122.92-1.89-9.42 8-45.38v-28.03l-20 26.23v67.43l-20-11.25V271l41.88-56.24 38.12-13L211 269.12l45.69 44.04-11.29 18.71-56.67-54.89-7.95 54.02 37.5 52.5 25.26 73.89z"/>
  </g>
</svg>
