<svg xmlns="http://www.w3.org/2000/svg" viewBox="0 0 602 752" role="img" aria-labelledby="title">
  <title id="title">Verkehrszeichen D-24 - D-24: telefon</title>
  <rect width="600" height="750" x="1" y="1" fill="#fff" rx="30" ry="30"/>
  <rect width="601" height="751" x=".5" y=".5" fill="none" stroke="#000" rx="30.5" ry="30.5"/>
  <rect width="588" height="738" x="7" y="7" fill="#039" rx="24" ry="24"/>
  <path fill="#fff" d="M81 81h440v440H81z"/>
  <path d="m201.236 494.607 9.224 4.612a228.8 228.8 0 0 0 57.411-47.108 281 281 0 0 0 6.462 9.725c23.832 10.823 51.851 6.049 70.755-12.054 3.832-27.958-13.148-54.577-40.115-62.889a128 128 0 0 0-22.948 11.869 11.4 11.4 0 0 1-10.029-8.023 1287 1287 0 0 1 0-179.262 17.95 17.95 0 0 1 14.206-11.365 76.8 76.8 0 0 0 35.038 11.19l11.519-73.721c-29.234-9.906-61.327 2.949-75.639 30.297-46.925 86.745-44.873 191.755 5.406 276.6a205.7 205.7 0 0 1-61.29 50.129"/>
</svg>
