<svg xmlns="http://www.w3.org/2000/svg" viewBox="0 0 882.143 1098.572" role="img" aria-labelledby="title">
  <title id="title">Verkehrszeichen D-44 - D-44: strefa parkowania</title>
  <g transform="translate(-33.214 -44.862)">
    <rect width="877.143" height="1093.572" x="35.714" y="47.362" rx="48.868" ry="48.868" style="fill:#fff;fill-opacity:1;stroke:#000;stroke-width:5;stroke-linecap:round;stroke-linejoin:miter;stroke-miterlimit:4;stroke-opacity:1;stroke-dasharray:none"/>
    <rect width="850" height="1066.429" x="49.286" y="60.219" rx="38.868" ry="38.868" style="fill:none;stroke:#000;stroke-width:10;stroke-linecap:round;stroke-linejoin:miter;stroke-miterlimit:4;stroke-opacity:1;stroke-dasharray:none"/>
    <rect width="636.429" height="635" x="155" y="167.362" rx="31.368" ry="31.368" style="fill:#039;fill-opacity:1;stroke:#039;stroke-width:5;stroke-linecap:round;stroke-linejoin:miter;stroke-miterlimit:4;stroke-opacity:1;stroke-dasharray:none"/>
    <path d="M404.211 720.856h-91.94V244.29h265.605c48.525 5.838 76.28 57.546 76.28 86.968v172.695c-8.317 38.771-35.163 77.914-90.059 77.914H404.211zm-1.071-387.363v159.99h154.174l7.183-8.408V347.212l-12.233-13.719z" style="fill:#fff;fill-rule:evenodd;stroke:none"/>
    <g style="font-size:92px;font-style:normal;font-variant:normal;font-weight:700;font-stretch:normal;text-align:start;line-height:125%;writing-mode:lr-tb;text-anchor:start;fill:#000;fill-opacity:1;stroke:none;font-family:Drogowskaz;-inkscape-font-specification:Drogowskaz Bold">
      <path d="M192.585 911.826h-20.987v28.75h-11.5v-69h32.487q4.888 3.308 7.763 8.625t2.875 11.5-2.875 11.5-7.763 8.625m-4.17-11.5q3.308-3.737 3.308-8.625 0-4.889-3.307-8.625h-16.818v17.25zM216.16 934.826q-7.187-7.188-7.187-17.25t7.188-17.25 17.25-7.187 17.25 7.187 7.187 17.25-7.187 17.25-17.25 7.188-17.25-7.188m8.123-26.378q-3.81 3.81-3.81 9.128t3.81 9.128 9.128 3.81 9.127-3.81 3.81-9.128-3.81-9.128-9.127-3.81-9.128 3.81M286.598 894.576q5.607 0 10.063 1.151v10.35a35.5 35.5 0 0 0-10.063-1.438q-1.15 0-2.013.861-.862.862-.862 2.014 0 1.723 1.438 2.442l8.768 5.32a13.4 13.4 0 0 1 5.176 5.175q1.868 3.307 1.868 7.188 0 5.892-4.17 10.134-4.168 4.24-10.205 4.24-9.487 0-17.536-3.307l3.161-9.63a37 37 0 0 0 14.375 2.875q1.87 0 3.091-1.221t1.222-3.091q0-2.59-2.157-3.737l-9.343-5.464q-6.037-4.023-6.037-10.924 0-5.465 4.025-9.201t9.2-3.737M318.223 883.076l11.5-11.5v23h8.625v11.5h-8.625v17.25q0 2.442 1.654 4.096t4.096 1.654h6.036l-6.036 11.5q-7.188 0-12.219-5.031t-5.03-12.219v-17.25h-8.626v-11.5h8.625zM380.215 871.576h11.5l-17.25 17.25zm-23 63.25q-7.187-7.188-7.187-17.25t7.187-17.25 17.25-7.187q10.064 0 17.25 7.187 7.188 7.188 7.188 17.25t-7.188 17.25q-7.186 7.188-17.25 7.188-10.062 0-17.25-7.188m8.123-26.378q-3.81 3.81-3.81 9.128t3.81 9.128 9.127 3.81 9.128-3.81 3.81-9.128-3.81-9.128-9.128-3.81-9.127 3.81M424.778 940.576q0 8.05-4.96 14.303-4.96 6.255-12.577 8.121l-5.463-10.924q4.744 0 8.122-3.378 3.378-3.377 3.378-8.122v-46h11.5zm-11.5-69h11.5v11.5h-11.5zM494.262 909.31q-3.377 3.378-3.377 8.266t3.377 8.266 8.123 3.377 8.122-3.377 3.378-8.266-3.378-8.266-8.122-3.377q-4.744 0-8.123 3.377m-14.877-14.734h11.5v3.161q5.317-3.16 11.5-3.16 9.486 0 16.243 6.756t6.757 16.243q0 9.488-6.757 16.244t-16.243 6.756q-6.183 0-11.5-3.161v26.161h-11.5zM545.865 871.576h11.5v17.25l11.5-5.75v11.5l-11.5 5.75v40.25h-11.5v-34.5l-11.5 5.75v-11.5l11.5-5.75zM582.512 933.82q-6.755-6.757-6.755-16.244t6.755-16.243q6.755-6.757 16.245-6.757 6.18 0 11.5 3.161v-3.16h11.5v34.5l2.875 11.5h-11.5l-1.008-4.313q-6.036 4.312-13.367 4.312-9.49 0-16.245-6.755m8.123-24.51q-3.378 3.378-3.378 8.266t3.378 8.266 8.12 3.377 8.123-3.377q3.38-3.378 3.379-8.266t-3.379-8.266q-3.38-3.377-8.122-3.377-4.745 0-8.121 3.377M642.166 883.076l11.5-11.5v23h8.625v11.5h-8.625v17.25q0 2.442 1.654 4.096t4.096 1.654h6.037l-6.037 11.5q-7.187 0-12.219-5.031-5.03-5.031-5.03-12.219v-17.25h-8.626v-11.5h8.625zM677.56 894.576h11.5v4.456q4.888-4.456 11.5-4.456 7.044 0 12.147 5.031t5.103 12.22v28.75h-11.5V914.7q0-3.593-2.516-6.11-2.515-2.514-6.109-2.515-3.594 0-6.11 2.516-2.514 2.515-2.515 6.11v25.874h-11.5zM730.096 894.576h11.5l8.625 27.599 8.625-27.599h11.5l-21.563 69h-11.5l7.188-23z" style="line-height:125%;fill:#000;font-family:Drogowskaz;-inkscape-font-specification:Drogowskaz Bold"/>
    </g>
    <g style="font-size:92px;font-style:normal;font-variant:normal;font-weight:700;font-stretch:normal;text-align:start;line-height:125%;writing-mode:lr-tb;text-anchor:start;fill:#000;fill-opacity:1;stroke:none;font-family:Drogowskaz;-inkscape-font-specification:Drogowskaz Bold">
      <path d="M156.49 1010.29h11.5l6.326 25.589 8.05-25.589h11.5l8.05 25.589 6.325-25.589h11.5l-11.5 46h-11.5l-8.625-27.599-8.625 27.6h-11.5zM298.678 1065.634q3.019 2.3 6.902 2.3 4.741 0 8.12-3.378 3.38-3.378 3.38-8.266v-3.161q-5.32 3.162-11.5 3.161-9.49 0-16.245-6.756t-6.755-16.244 6.755-16.243q6.754-6.756 16.245-6.757 6.18 0 11.5 3.162v-3.162h11.5v46q0 9.488-6.757 16.244t-16.243 6.756q-7.62 0-13.803-4.598zm-1.22-40.61q-3.379 3.38-3.378 8.266 0 4.889 3.377 8.266 3.378 3.378 8.121 3.378t8.123-3.378q3.378-3.378 3.379-8.266t-3.38-8.265q-3.378-3.378-8.122-3.378t-8.12 3.378M350.07 1050.54q-7.189-7.187-7.188-17.25 0-10.062 7.187-17.25 7.188-7.187 17.25-7.187t17.25 7.187 7.188 17.25-7.188 17.25-17.25 7.188-17.25-7.188m8.121-26.377q-3.81 3.81-3.81 9.127 0 5.319 3.81 9.128t9.128 3.81q5.318 0 9.128-3.81t3.81-9.128-3.81-9.127-9.128-3.81-9.128 3.81M412.225 1049.535q-6.755-6.758-6.755-16.245t6.755-16.243 16.245-6.757q6.18 0 11.5 3.162V987.29h11.5v69h-11.5v-3.161q-5.32 3.162-11.5 3.161-9.489 0-16.245-6.755m8.123-24.51q-3.378 3.377-3.378 8.265t3.378 8.266 8.12 3.378 8.123-3.378q3.38-3.378 3.38-8.266t-3.38-8.265q-3.379-3.378-8.122-3.378-4.745 0-8.121 3.378M498.393 1044.79v11.5h-31.625v-5.317l15.813-29.183h-15.813v-11.5h31.625v5.318l-15.812 29.182zM513.547 1044.79h11.5v11.5h-11.5zM588.975 998.79v-11.5h40.25v7.907l-22.138 61.093h-12.362l20.987-57.5zM649.725 1027.54v-11.5h35.625v11.5zM700.94 998.79q4.744 0 8.122-3.377 3.377-3.378 3.378-8.123h11.5v69h-11.5v-46h-11.5zM775.87 1042.85q3.377-3.377 3.377-8.122 0-4.744-3.377-8.122-3.378-3.378-8.123-3.378t-8.122 3.378-3.378 8.122q0 4.744 3.378 8.122t8.122 3.378 8.123-3.378m12.002-36.872q0 6.755-4.026 12.076 6.901 6.898 6.901 16.674 0 9.63-6.756 16.315t-16.244 6.685-16.243-6.685-6.757-16.315q0-9.776 6.902-16.674-4.027-5.321-4.027-12.076 0-8.34 5.894-14.232 5.892-5.893 14.231-5.893 8.34 0 14.232 5.893 5.893 5.893 5.893 14.232m-26.234 6.11q2.516 2.515 6.11 2.515 3.593 0 6.109-2.516t2.515-6.11-2.515-6.108q-2.516-2.516-6.11-2.516-3.593 0-6.109 2.516t-2.516 6.109 2.516 6.11" style="line-height:125%;fill:#000;font-family:Drogowskaz;-inkscape-font-specification:Drogowskaz Bold" transform="translate(.714)"/>
    </g>
  </g>
</svg>
