<svg xmlns="http://www.w3.org/2000/svg" viewBox="0 0 602 752" role="img" aria-labelledby="title">
  <title id="title">Verkehrszeichen D-9 - D-9: autostrada</title>
  <rect width="600" height="750" x="1" y="1" fill="#fff" rx="30" ry="30"/>
  <rect width="601" height="751" x=".5" y=".5" fill="none" stroke="#000" stroke-miterlimit="1" rx="30.5" ry="30.5"/>
  <rect width="588" height="738" x="7" y="7" fill="#039" rx="24" ry="24"/>
  <g fill="#fff">
    <path d="M171.33 391h91.86L256 739H121zM226 13l-39.48 273h78.84L271 13zm150 0h-45l5.64 273h78.84zm54.67 378h-91.86L346 739h135zM13 301h576v15h-78l15 75h-60l15-75H121l15 75H76l15-75H13z"/>
  </g>
</svg>
