<svg xmlns="http://www.w3.org/2000/svg" viewBox="0 0 346.517 461.338" role="img" aria-labelledby="title">
  <title id="title">Verkehrszeichen D-48 - D-48: zmiana pierwszeństwa</title>
  <g transform="translate(-398.178 -181.165)">
    <rect width="343.948" height="458.769" x="399.463" y="182.45" rx="10.274" ry="10.274" style="fill:#fff;fill-opacity:1;stroke:#000;stroke-width:2.56896544;stroke-linecap:butt;stroke-linejoin:round;stroke-miterlimit:4;stroke-opacity:1;stroke-dasharray:none;stroke-dashoffset:0"/>
    <rect width="335.904" height="449.975" x="403.488" y="187.213" rx="9.392" ry="9.392" style="fill:#039;fill-opacity:1;stroke:none"/>
    <g style="font-size:66.83599854px;font-style:normal;font-variant:normal;font-weight:700;font-stretch:normal;text-align:start;line-height:125%;writing-mode:lr-tb;text-anchor:start;fill:#fff;fill-opacity:1;stroke:none;font-family:Drogowskaz;-inkscape-font-specification:Drogowskaz Bold">
      <path d="M487.732 231.067h13.652v6.35H479.16v-3.175l13.653-28.574H479.16v-6.35h22.224v3.175zM509.917 212.018h6.35v3.175q2.38-3.175 6.35-3.175 3.65 0 6.032 2.778 2.778-2.778 6.667-2.778 3.969 0 6.747 2.778t2.778 6.747v15.874h-6.35v-15.08q0-1.667-1.15-2.818-1.152-1.151-2.818-1.151t-2.818 1.15q-1.15 1.152-1.15 2.818v15.081h-6.35v-15.08q0-1.667-1.152-2.818-1.15-1.151-2.817-1.151-1.666 0-2.818 1.15-1.15 1.152-1.151 2.818v15.081h-6.35zM555.71 212.018h6.35v25.4h-6.35zm0-12.7h6.35v6.35h-6.35zM573.952 233.687q-3.73-3.73-3.73-8.97 0-5.238 3.73-8.968 3.73-3.731 8.97-3.731 3.412 0 6.35 1.745v-1.745h6.35v19.05l1.587 6.35h-6.35l-.556-2.382q-3.333 2.38-7.38 2.381-5.241 0-8.97-3.73m4.485-13.533q-1.865 1.864-1.865 4.564 0 2.698 1.865 4.563 1.866 1.866 4.484 1.865 2.619 0 4.485-1.865t1.866-4.563q0-2.7-1.866-4.564-1.866-1.865-4.485-1.865-2.618 0-4.484 1.865M605.874 212.018h6.35v2.46q2.7-2.46 6.35-2.46 3.889 0 6.707 2.778t2.817 6.747v15.874h-6.35V223.13q0-1.984-1.388-3.373-1.39-1.39-3.374-1.39t-3.373 1.39-1.39 3.373v14.287h-6.349zM640.567 233.687q-3.73-3.73-3.73-8.97 0-5.238 3.73-8.968 3.73-3.731 8.97-3.731 3.412 0 6.35 1.745v-1.745h6.35v19.05l1.587 6.35h-6.35l-.556-2.382q-3.333 2.38-7.381 2.381-5.24 0-8.97-3.73m4.485-13.533q-1.865 1.864-1.865 4.564 0 2.698 1.865 4.563 1.865 1.866 4.484 1.865 2.619 0 4.485-1.865t1.866-4.563q0-2.7-1.866-4.564-1.866-1.865-4.485-1.865t-4.484 1.865"/>
    </g>
    <g style="font-size:99.73122406px;font-style:normal;font-variant:normal;font-weight:700;font-stretch:normal;text-align:start;line-height:125%;writing-mode:lr-tb;text-anchor:start;fill:#fff;fill-opacity:1;stroke:none;font-family:Drogowskaz;-inkscape-font-specification:Drogowskaz Bold">
      <path d="M467.863 147.063q-1.753 1.752-1.753 4.29 0 2.535 1.753 4.29 1.753 1.752 4.216 1.753t4.215-1.753 1.753-4.29q0-2.538-1.753-4.29-1.753-1.754-4.215-1.753-2.463 0-4.216 1.753m-7.722-7.648h5.969v1.641a11.5 11.5 0 0 1 5.969-1.64q4.923 0 8.43 3.506 3.507 3.507 3.507 8.43 0 4.924-3.507 8.431t-8.43 3.507q-3.21 0-5.97-1.64v13.577h-5.968zM491.29 139.415h5.969v23.875h-5.969zm0-11.937h5.969v5.968h-5.969zM523.745 149.114q-.672-1.94-2.425-3.208a6.52 6.52 0 0 0-3.917-1.268 6.52 6.52 0 0 0-3.917 1.268q-1.752 1.269-2.424 3.208zm-12.683 4.477a6.8 6.8 0 0 0 2.462 3.245q1.716 1.231 3.88 1.231 3.878 0 8.953-.746l-2.985 5.969-4.029.597q-1.193.15-1.94.15-5.222 0-8.953-3.731t-3.73-8.953 3.73-8.953q3.731-3.73 8.953-3.73 6.641 0 10.446 5.52v9.4zM535.31 139.415h5.968v1.268a14.5 14.5 0 0 1 5.969-1.268v5.969q-3.432 0-5.969 2.312v15.594h-5.968zM550.231 139.415h5.97l3.282 13.281 4.178-13.28h5.969l4.178 13.28 3.283-13.28h5.968l-5.968 23.874h-5.97l-4.476-14.324-4.476 14.324H556.2zM596.489 139.415q2.91 0 5.223.598v5.37a18.4 18.4 0 0 0-5.223-.745q-.597 0-1.045.447a1.43 1.43 0 0 0-.447 1.045q0 .895.746 1.268l4.55 2.761a6.96 6.96 0 0 1 2.687 2.686 7.46 7.46 0 0 1 .97 3.73q0 3.06-2.164 5.26t-5.297 2.201q-4.924 0-9.102-1.716l1.641-4.999a19.2 19.2 0 0 0 7.46 1.492q.972 0 1.605-.633.634-.635.634-1.605 0-1.343-1.119-1.94l-4.85-2.835q-3.132-2.088-3.133-5.67 0-2.835 2.09-4.775 2.088-1.94 4.774-1.94M625.35 157.321v5.969h-16.414v-2.76l8.207-15.146h-8.207v-5.969h16.414v2.76l-8.207 15.146zM650.256 149.114q-.672-1.94-2.425-3.208a6.52 6.52 0 0 0-3.917-1.268 6.52 6.52 0 0 0-3.917 1.268q-1.753 1.269-2.424 3.208zm-12.683 4.477a6.8 6.8 0 0 0 2.461 3.245q1.716 1.231 3.88 1.231 3.879 0 8.953-.746l-2.984 5.969-4.03.597q-1.192.15-1.939.15-5.222 0-8.953-3.731t-3.73-8.953 3.73-8.953q3.731-3.73 8.953-3.73 6.64 0 10.446 5.52v9.4zM673.758 127.478h5.969l-8.954 8.953zm-11.938 11.937h5.97v2.313q2.536-2.313 5.968-2.313 3.656 0 6.304 2.611t2.649 6.342v14.922h-5.969v-13.43q0-1.865-1.305-3.17-1.306-1.305-3.171-1.306-1.865 0-3.171 1.306-1.305 1.305-1.306 3.17v13.43h-5.969zM698.494 139.415q2.91 0 5.222.598v5.37a18.4 18.4 0 0 0-5.222-.745q-.598 0-1.045.447a1.43 1.43 0 0 0-.448 1.045q0 .895.746 1.268l4.551 2.761a6.96 6.96 0 0 1 2.687 2.686 7.46 7.46 0 0 1 .97 3.73q0 3.06-2.165 5.26-2.163 2.2-5.296 2.201-4.925 0-9.102-1.716l1.64-4.999a19.2 19.2 0 0 0 7.462 1.492q.97 0 1.604-.633.634-.635.634-1.605 0-1.343-1.12-1.94l-4.849-2.835q-3.133-2.088-3.133-5.67 0-2.835 2.089-4.775t4.775-1.94M715.034 133.446l5.968-5.968v11.937h4.477v5.969h-4.477v8.953q0 1.268.859 2.126.858.858 2.126.858h3.133l-3.133 5.969q-3.73 0-6.342-2.611-2.61-2.611-2.611-6.342v-8.953h-4.477v-5.969h4.477zM730.175 139.415h5.969l3.283 13.281 4.178-13.28h5.968l4.178 13.28 3.283-13.28h5.969l-5.969 23.874h-5.968l-4.477-14.324-4.476 14.324h-5.97zM770.837 159.784q-3.506-3.507-3.506-8.431t3.506-8.431 8.431-3.507q3.208 0 5.969 1.641v-1.64h5.969v17.905l1.492 5.969h-5.969l-.523-2.238q-3.133 2.238-6.938 2.238-4.925 0-8.431-3.506m4.216-12.721q-1.754 1.752-1.753 4.29 0 2.535 1.753 4.29 1.752 1.752 4.215 1.753 2.46 0 4.215-1.753 1.754-1.755 1.754-4.29 0-2.538-1.754-4.29-1.754-1.754-4.215-1.753-2.463 0-4.215 1.753" style="font-size:47.74970627px" transform="translate(95.538 154.175)scale(.76005)"/>
    </g>
    <path d="M557.601 404.375c2.505-4.037 7.67-6.914 13.118-6.914 7.114 0 12.696 3.798 15.644 9.097l90.759 158.179c4.822 9.743-2.105 20.89-12.434 22.548H477.976c-10.865-1.745-16.872-14.033-12.66-23.721z" style="fill:#fff;fill-opacity:1;stroke:#fff;stroke-width:2.37266898;stroke-linecap:butt;stroke-linejoin:miter;stroke-miterlimit:4;stroke-opacity:1;stroke-dasharray:none"/>
    <path d="M271.333 25.071a17.15 17.15 0 0 0-15.838-8.591 17.18 17.18 0 0 0-14.013 8.594L18.747 410.811a17.28 17.28 0 0 0 .002 17.227 17.28 17.28 0 0 0 14.924 8.612h445.472c6.14 0 11.854-3.3 14.927-8.613a17.29 17.29 0 0 0 .002-17.225c-.004 0-222.741-385.738-222.741-385.741" style="fill:#febe0b;fill-opacity:1;stroke:none" transform="translate(468.003 401.018)scale(.40286)"/>
    <path d="M508.319 402.583 285.585 16.844C279.213 5.808 267.352-.629 254.624.048c-11.429.604-21.668 6.885-27.391 16.797L4.498 402.583c-5.998 10.39-5.997 23.296.002 33.683s17.177 16.839 29.174 16.839h445.47c11.996 0 23.179-6.452 29.177-16.839 5.996-10.388 5.998-23.295-.002-33.683m-14.25 25.454a17.28 17.28 0 0 1-14.927 8.613H33.67c-6.138 0-11.855-3.3-14.924-8.611a17.28 17.28 0 0 1-.002-17.228L241.479 25.074a17.19 17.19 0 0 1 14.013-8.594 17.15 17.15 0 0 1 15.838 8.592l222.736 385.74a17.27 17.27 0 0 1 .003 17.225" style="fill:#d40000;fill-opacity:1;stroke:none" transform="translate(468.003 401.018)scale(.40286)"/>
    <path d="m319.395 389.861 39.376-39.376-63.85-63.848 63.85-63.849-39.376-39.375-63.849 63.848-63.848-63.848-39.375 39.375 63.848 63.849-63.848 63.848 39.375 39.376 63.848-63.849z" style="fill:#000;stroke:none" transform="translate(468.003 401.018)scale(.40286)"/>
  </g>
</svg>
