<svg xmlns="http://www.w3.org/2000/svg" viewBox="0 0 602 902" role="img" aria-labelledby="title">
  <title id="title">Verkehrszeichen D-34a - D-34a: informacja radiowa o ruchu drogowym</title>
  <rect width="600" height="900" x="1" y="1" fill="#fff" rx="30" ry="30"/>
  <rect width="601" height="901" x=".5" y=".5" fill="none" stroke="#000" rx="30.5" ry="30.5"/>
  <rect width="588" height="888" x="7" y="7" fill="#039" rx="24" ry="24"/>
  <path fill="#fff" d="M81 81h440v440H81z"/>
  <path d="M143.007 174.5h-15.088V217h-17V115h50.15q7.222 4.89 11.475 12.75 4.249 7.865 4.25 17 0 8.714-3.931 16.362-3.934 7.65-10.731 12.75L187.419 217h-19.763zm11.9-17q4.886-5.523 4.887-12.75 0-7.221-4.888-12.75H127.92v25.5zM208.244 207.013q-9.988-9.987-9.987-24.013c0-14.026 3.326-17.352 9.987-24.013q9.986-9.986 24.013-9.987 9.134.001 17 4.675V149h17v51l4.25 17h-17l-1.488-6.375Q243.094 217 232.257 217q-14.026.001-24.013-9.987m12.006-36.232q-4.994 4.997-4.993 12.219-.001 7.228 4.993 12.219 4.992 4.994 12.007 4.993c7.015 0 8.675-1.663 12.005-4.993q4.994-4.991 4.995-12.219-.001-7.223-4.995-12.219-4.994-4.992-12.005-4.993c-7.011-.001-8.68 1.666-12.007 4.993M297.069 207.013q-9.99-9.987-9.988-24.013c.002-14.026 3.327-17.352 9.988-24.013q9.985-9.986 24.013-9.987 9.133.001 17 4.675V115h17v102h-17v-4.675q-7.867 4.676-17 4.675-14.028.001-24.013-9.987m12.005-36.232q-4.993 4.997-4.992 12.219-.002 7.228 4.992 12.219 4.993 4.994 12.008 4.993c7.015 0 8.676-1.663 12.006-4.993 3.326-3.327 4.994-7.401 4.994-12.219 0-4.814-1.668-8.889-4.994-12.219q-4.995-4.992-12.006-4.993c-7.011-.001-8.68 1.666-12.008 4.993M380.58 115h17v17h-17zm0 34h17v68h-17zM429.456 208.5c-7.086-7.082-10.625-15.582-10.625-25.5s3.539-18.415 10.625-25.5q10.623-10.624 25.5-10.625c14.877-.001 18.414 3.543 25.5 10.625q10.624 10.627 10.625 25.5c0 14.873-3.543 18.418-10.625 25.5q-10.629 10.626-25.5 10.625c-14.871-.001-18.418-3.54-25.5-10.625m12.006-38.994q-5.632 5.635-5.631 13.494 0 7.865 5.63 13.494 5.63 5.632 13.495 5.631 7.86 0 13.494-5.631 5.629-5.629 5.63-13.494-.001-7.86-5.63-13.494-5.635-5.63-13.494-5.631c-5.243 0-9.742 1.88-13.494 5.631M133.663 295h22v55h55v-55h22v132h-22v-55h-55v55h-22zM307.189 372h-19.526v55h-22V295h64.9q9.346 6.33 14.85 16.5c3.665 6.784 5.5 14.12 5.5 22 0 7.52-1.697 14.575-5.088 21.175q-5.09 9.9-13.886 16.5L364.662 427h-25.575zm15.399-22q6.324-7.148 6.325-16.5-.001-9.345-6.325-16.5h-34.925v33zM418.837 364.575v-18.15q2.748.825 5.5.825 6.873.001 11.687-4.812 4.812-4.81 4.813-11.688-.001-6.872-4.813-11.687-4.814-4.812-11.687-4.813-6.877.001-11.688 4.813-4.813 4.815-4.812 11.687h-22q-.002-15.946 11.275-27.226 11.273-11.273 27.225-11.274c15.952-.001 19.706 3.76 27.226 11.274q11.273 11.28 11.274 27.226c0 8.62-2.57 16.32-7.7 23.1q13.2 13.2 13.2 31.9-.001 18.426-12.925 31.212c-8.619 8.525-18.974 12.788-31.075 12.788s-22.46-4.263-31.074-12.788q-12.928-12.786-12.926-31.212h22q-.001 9.076 6.463 15.538c4.305 4.309 9.487 6.462 15.537 6.462s11.228-2.153 15.538-6.462q6.46-6.462 6.462-15.538c.002-9.076-2.156-11.227-6.462-15.538-4.31-4.305-9.487-6.462-15.538-6.462q-2.752 0-5.5.825"/>
  <g fill="#fff">
    <path d="M226.839 599.625q-.002 9.99-5.95 17.85 10.2 10.2 10.2 24.65 0 14.237-9.988 24.12-9.988 9.88-24.012 9.88c-14.024 0-17.356-3.294-24.013-9.88q-9.988-9.883-9.987-24.12 0-14.45 10.2-24.65-5.951-7.86-5.95-17.85-.002-12.322 8.712-21.037 8.71-8.712 21.038-8.713c12.328-.001 15.227 2.905 21.037 8.713q8.712 8.715 8.713 21.037m-17.744 54.506c3.327-3.326 4.994-7.331 4.994-12.006s-1.667-8.676-4.994-12.006q-4.994-4.992-12.006-4.994c-7.012-.002-8.68 1.667-12.007 4.994q-4.994 4.994-4.993 12.006c0 7.012 1.663 8.68 4.993 12.006 3.327 3.33 7.332 4.994 12.007 4.994s8.675-1.664 12.006-4.994m-21.038-45.475q3.717 3.72 9.032 3.719 5.31.001 9.03-3.719 3.719-3.715 3.72-9.031-.002-5.31-3.72-9.031-3.72-3.717-9.03-3.719-5.316.002-9.032 3.719-3.719 3.721-3.718 9.031-.001 5.316 3.718 9.031M258.925 581.987q9.986-9.986 24.012-9.987c14.026-.001 17.352 3.33 24.013 9.987q9.986 9.99 9.987 24.013-.002 9.353-4.674 17.213L279.75 678.25h-19.763L282.512 640q-13.814-.211-23.693-10.094c-9.88-9.883-9.882-14.556-9.882-23.906s3.327-17.352 9.988-24.013m12.006 36.125q4.992 4.89 12.006 4.888c7.014-.002 8.676-1.627 12.007-4.888 3.326-3.256 4.993-7.294 4.993-12.112q-.002-7.222-4.993-12.219-4.995-4.992-12.007-4.994c-7.012-.002-8.679 1.667-12.006 4.994q-4.994 4.996-4.994 12.219 0 7.227 4.994 12.112M331.812 674v-17h17c0 7.225-1.88 13.886-5.631 19.975Q337.547 686.109 328.2 691zM400.661 625.763v-14.026q2.124.638 4.25.638 5.311.001 9.032-3.719 3.717-3.715 3.718-9.031 0-5.31-3.718-9.031-3.721-3.717-9.032-3.719-5.314.002-9.03 3.719-3.72 3.721-3.72 9.031h-17q-.001-12.322 8.713-21.037 8.712-8.712 21.037-8.713c12.325-.001 15.228 2.905 21.039 8.713q8.71 8.715 8.711 21.037-.002 9.99-5.949 17.85 10.2 10.2 10.2 24.65 0 14.237-9.988 24.12-9.988 9.88-24.013 9.88c-14.025 0-17.354-3.294-24.011-9.88q-9.99-9.883-9.989-24.12h17c0 4.675 1.665 8.68 4.995 12.006q4.991 4.995 12.005 4.994c7.014-.001 8.677-1.664 12.007-4.994 3.327-3.326 4.993-7.331 4.993-12.006s-1.666-8.676-4.993-12.006q-4.993-4.992-12.007-4.994-2.126 0-4.25.638"/>
  </g>
  <g fill="#fff">
    <path d="M247.876 743.338 216.638 809l-31.237-65.662L182.638 809h-17l4.25-102h17l29.75 62.475L246.388 707h17l4.25 102h-17zM292.5 707h17v42.5H352V707h17v102h-17v-42.5h-42.5V809h-17zM436.362 792v17h-46.75v-7.862L412.987 758h-23.375v-17h46.75v7.862L412.987 792z"/>
  </g>
</svg>
