<svg xmlns="http://www.w3.org/2000/svg" viewBox="0 0 602 752" role="img" aria-labelledby="title">
  <title id="title">Verkehrszeichen D-26c - D-26c: toaleta publiczna</title>
  <rect width="600" height="750" x="1" y="1" fill="#fff" rx="30" ry="30"/>
  <rect width="601" height="751" x=".5" y=".5" fill="none" stroke="#000" rx="30.5" ry="30.5"/>
  <rect width="588" height="738" x="7" y="7" fill="#039" rx="24" ry="24"/>
  <path fill="#fff" d="M81 81h440v440H81z"/>
  <path d="M121.081 191h27.5l27.5 110 27.5-110h27.5l27.5 110 27.5-110h27.5l-41.25 165h-27.5l-27.5-110-27.5 110h-27.5zM480.576 340.875c-15.587 12.375-33.344 18.563-53.281 18.563q-35.408 0-60.672-25.266c-25.264-25.266-25.266-37.125-25.266-60.843s8.422-43.941 25.266-60.672c16.844-16.726 37.067-25.094 60.672-25.094 20.163 0 38.038 6.306 53.625 18.906l-13.406 24.75q-16.846-16.155-40.219-16.156-24.064.001-41.25 17.188c-11.462 11.462-17.188 25.212-17.188 41.25s5.726 29.793 17.188 41.25c11.457 11.462 25.207 17.188 41.25 17.188q23.028 0 39.875-15.813z"/>
</svg>
