<svg xmlns="http://www.w3.org/2000/svg" viewBox="0 0 116.34 145.304" role="img" aria-labelledby="title">
  <title id="title">Verkehrszeichen D-51a - D-51a: automatyczna kontrola średniej prędkości</title>
  <g transform="translate(-13.903 -27.077)">
    <rect width="115.653" height="144.616" x="14.246" y="27.421" rx="3.915" ry="3.915" style="opacity:1;fill:#fff;fill-opacity:1;stroke:#000;stroke-width:.68763304;stroke-linecap:round;stroke-linejoin:round;stroke-miterlimit:4;stroke-dasharray:none;stroke-dashoffset:0;stroke-opacity:1"/>
    <rect width="113.635" height="142.402" x="15.24" y="28.531" rx="3.071" ry="3.071" style="opacity:1;fill:#039;fill-opacity:1;stroke:none;stroke-width:.68763304;stroke-linecap:round;stroke-linejoin:round;stroke-miterlimit:4;stroke-dasharray:none;stroke-dashoffset:0;stroke-opacity:1"/>
    <rect width="1.936" height="3.325" x="51.147" y="34.779" rx="0" ry="0" style="opacity:1;fill:#fff;fill-opacity:1;stroke:#fff;stroke-width:.43711314;stroke-linecap:round;stroke-linejoin:miter;stroke-miterlimit:4;stroke-dasharray:none;stroke-dashoffset:0;stroke-opacity:1"/>
    <path d="M234.092 140.318a33.427 27.338 0 0 0-26.21 10.416h-22.07v63.64h96.424v-63.64H260.34a33.427 27.338 0 0 0-26.248-10.416Zm.027 6.965a32.433 32.767 0 0 1 32.432 32.768 32.433 32.767 0 0 1-32.432 32.767 32.433 32.767 0 0 1-32.433-32.767 32.433 32.767 0 0 1 32.433-32.768z" style="opacity:1;fill:#fff;fill-opacity:1;stroke:#fff;stroke-width:1.65208113;stroke-linecap:round;stroke-linejoin:miter;stroke-miterlimit:4;stroke-dasharray:none;stroke-dashoffset:0;stroke-opacity:1" transform="scale(.26458)"/>
    <ellipse cx="61.961" cy="47.572" rx="7.262" ry="7.233" style="opacity:1;fill:#fff;fill-opacity:1;stroke:none;stroke-width:.46092641;stroke-linecap:round;stroke-linejoin:round;stroke-miterlimit:4;stroke-dasharray:none;stroke-dashoffset:0;stroke-opacity:1"/>
    <path d="M18.642 44.731h2.172l27.402 89.55h-3.591z" style="fill:#fff;fill-opacity:1;stroke:none;stroke-width:.26499999;stroke-linecap:butt;stroke-linejoin:miter;stroke-miterlimit:4;stroke-dasharray:none;stroke-opacity:1;opacity:1"/>
    <path d="m58.666 61.77-.863 1.216c5.012 1.11 8.34 0 8.34 0l-.944-1.353s-2.29.738-6.533.137M56.902 64.257l-.82 1.156c6.355 2.203 11.78.036 11.78.036l-.88-1.262s-3.6 1.562-10.08.07M55.155 66.721l-.778 1.096c7.85 3.025 15.171.049 15.171.049l-.913-1.309s-6.16 2.73-13.48.164" style="fill:#fff;stroke:none;stroke-width:.26458332px;stroke-linecap:butt;stroke-linejoin:miter;stroke-opacity:1;opacity:1"/>
    <path d="m53.467 69.1-.842 1.189c9.95 4.075 18.6-.022 18.6-.022l-.812-1.162s-8.84 3.723-16.946-.004" style="fill:#fff;stroke:none;stroke-width:.26458332px;stroke-linecap:butt;stroke-linejoin:miter;stroke-opacity:1;opacity:1"/>
    <path d="m51.713 71.575-.865 1.22c11.34 5.192 22.117-.034 22.117-.034l-.834-1.194s-10.024 4.735-20.418.008" style="fill:#fff;stroke:none;stroke-width:.26458332px;stroke-linecap:butt;stroke-linejoin:miter;stroke-opacity:1;opacity:1"/>
    <rect width="2.469" height="4.241" x="88.425" y="95.576" rx="0" ry="0" style="opacity:1;fill:#fff;fill-opacity:1;stroke:#fff;stroke-width:.55743825;stroke-linecap:round;stroke-linejoin:miter;stroke-miterlimit:4;stroke-dasharray:none;stroke-dashoffset:0;stroke-opacity:1"/>
    <path d="M102.564 98.809a11.8 9.65 0 0 0-9.252 3.677h-7.79v22.463h34.036v-22.463h-7.73a11.8 9.65 0 0 0-9.264-3.677zm.01 2.459a11.448 11.566 0 0 1 11.448 11.566 11.448 11.566 0 0 1-11.448 11.567 11.448 11.566 0 0 1-11.449-11.567 11.448 11.566 0 0 1 11.449-11.566z" style="opacity:1;fill:#fff;fill-opacity:1;stroke:#fff;stroke-width:.58316553;stroke-linecap:round;stroke-linejoin:miter;stroke-miterlimit:4;stroke-dasharray:none;stroke-dashoffset:0;stroke-opacity:1"/>
    <ellipse cx="102.595" cy="112.745" rx="9.688" ry="9.65" style="opacity:1;fill:#fff;fill-opacity:1;stroke:none;stroke-width:.61493552;stroke-linecap:round;stroke-linejoin:round;stroke-miterlimit:4;stroke-dasharray:none;stroke-dashoffset:0;stroke-opacity:1"/>
    <path d="m118.825 125.6 6.592 8.705h-3.59l-6.46-8.709zM96.044 99.544l-30.98-41.767 2.405.005L98.37 98.59s-.567-.071-2.327.954" style="opacity:1;fill:#fff;fill-opacity:1;stroke:none;stroke-width:.26458332px;stroke-linecap:butt;stroke-linejoin:miter;stroke-opacity:1"/>
    <path d="m39.568 50.538-2.88-5.807h2.172l2.929 5.807" style="opacity:1;fill:#fff;fill-opacity:1;stroke:none;stroke-width:.26499999;stroke-linecap:butt;stroke-linejoin:miter;stroke-miterlimit:4;stroke-dasharray:none;stroke-opacity:1"/>
    <path d="m43.86 59.162 4.332 8.714h2.599l-4.489-8.718ZM53.922 79.376h2.773l7.483 14.5h-3.074zM69.737 111.036h3.449l11.906 23.434h-3.78zM89.238 144.358l-1.17 1.688c15.072 6.945 29.105-.095 29.105-.095l-1.034-1.502s-13.518 5.896-26.9-.09" style="fill:#fff;fill-opacity:1;stroke:none;stroke-width:.26458332px;stroke-linecap:butt;stroke-linejoin:miter;stroke-opacity:1;opacity:1"/>
    <path d="m115 142.792-1.115-1.62s-10.792 4.827-22.37-.097l-1.157 1.668c12.877 5.523 24.641.049 24.641.049" style="fill:#fff;fill-opacity:1;stroke:none;stroke-width:.26458332px;stroke-linecap:butt;stroke-linejoin:miter;stroke-opacity:1;opacity:1"/>
    <path d="m112.742 139.51-1.067-1.551s-8.743 3.457-17.949-.074l-1.188 1.714c11.163 4.089 20.204-.09 20.204-.09M110.551 136.326l-1.15-1.673s-6.703 2.186-13.425-.014l-1.146 1.653c8.603 2.852 15.721.034 15.721.034M108.187 132.89l-1.22-1.774s-3.026 1.357-8.646.141l-1.194 1.722c6.44 1.855 11.06-.09 11.06-.09" style="fill:#fff;fill-opacity:1;stroke:none;stroke-width:.26458332px;stroke-linecap:butt;stroke-linejoin:miter;stroke-opacity:1;opacity:1"/>
  </g>
</svg>
