<svg xmlns="http://www.w3.org/2000/svg" viewBox="0 0 354.768 531.053" role="img" aria-labelledby="title">
  <title id="title">Verkehrszeichen D-49 - D-49: pobór opłat</title>
  <g transform="translate(-74.25 83.191)">
    <rect width="353.37" height="529.655" x="74.949" y="-82.492" rx="7.891" ry="7.891" style="fill:#fff;fill-opacity:1;stroke:#039;stroke-width:1.39842868;stroke-opacity:1"/>
    <rect width="345.504" height="521.439" x="79.319" y="-78.471" rx="4.22" ry="4.22" style="fill:#039;fill-opacity:1;stroke:#039;stroke-width:1.39842868;stroke-opacity:1"/>
    <path d="M237.5 117.862a40.25 40.25 0 1 1-80.5 0 40.25 40.25 0 1 1 80.5 0" style="fill:#fff;fill-opacity:1;stroke:none" transform="matrix(1.55017 0 0 1.55953 -53.798 -186.688)"/>
    <path d="M237.5 117.862a40.25 40.25 0 1 1-80.5 0 40.25 40.25 0 1 1 80.5 0" style="fill:#d40000;fill-opacity:1;stroke:none" transform="matrix(1.45498 0 0 1.45511 -35.144 -174.628)"/>
    <path d="M158.66 411.682H132.98V123.101h-22.39l35.23-57.578 36.042 57.578H157.59v224.57l176.537-146.06c11.403-11.402 11.362-21.384 11.023-30.476V122.96h-23.133l34.902-57.437 36.22 57.437h-23.38v47.585c0 20.331-4.959 34.463-29.213 54.814L209.444 335.365c-19.137 16.058-50.784 38.974-50.784 53.929z" style="fill:#fff;fill-opacity:1;fill-rule:evenodd;stroke:none"/>
    <path d="M206.72 73.292h10.651v27.951H206.72zM206.72 126.432h10.651v27.951H206.72zM246.574 73.292h10.652v27.951h-10.652zM246.574 126.432h10.652v27.951h-10.652zM285.73 73.292h10.652v27.951H285.73zM285.73 126.432h10.652v27.951H285.73z" style="fill:#fff;fill-opacity:1;fill-rule:evenodd;stroke:none"/>
    <path d="M237.5 117.862a40.25 40.25 0 1 1-80.5 0 40.25 40.25 0 1 1 80.5 0" style="fill:#fff;fill-opacity:1;stroke:none" transform="matrix(1.1759 0 0 1.163 19.38 -140.025)"/>
    <rect width="88.014" height="8.303" x="207.85" y="-7.127" rx="5.069" ry="4.152" style="fill:#000;fill-opacity:1;stroke:#000;stroke-width:1.39842868;stroke-linecap:butt;stroke-linejoin:miter;stroke-miterlimit:4;stroke-opacity:1;stroke-dasharray:none"/>
    <g style="font-size:16.82770729px;font-style:normal;font-variant:normal;font-weight:700;font-stretch:normal;text-align:start;line-height:125%;writing-mode:lr-tb;text-anchor:start;fill:#000;fill-opacity:1;stroke:none;font-family:Drogowskaz;-inkscape-font-specification:Drogowskaz Bold">
      <path d="M186.21 111.326h-3.838v5.259h-2.104v-12.621h5.943a4.4 4.4 0 0 1 1.42 1.578q.525.973.525 2.103t-.525 2.103a4.4 4.4 0 0 1-1.42 1.578m-.762-2.103a2.3 2.3 0 0 0 .605-1.578 2.3 2.3 0 0 0-.605-1.578h-3.076v3.156zM190.523 115.533q-1.315-1.314-1.315-3.155t1.315-3.155 3.155-1.315 3.155 1.315q1.315 1.314 1.315 3.155t-1.315 3.155-3.155 1.315-3.155-1.315m1.485-4.825a2.28 2.28 0 0 0-.696 1.67q0 .972.696 1.67a2.28 2.28 0 0 0 1.67.696q.972 0 1.67-.697a2.28 2.28 0 0 0 .696-1.67q0-.972-.696-1.669a2.28 2.28 0 0 0-1.67-.697q-.972 0-1.67.697M203.498 110.866a2.06 2.06 0 0 0-.617 1.512q0 .894.617 1.512.618.618 1.486.617.868 0 1.486-.617.618-.618.618-1.512t-.618-1.512a2.03 2.03 0 0 0-1.486-.618q-.868 0-1.486.618m-2.72-6.902h2.103v4.785a4.04 4.04 0 0 1 2.103-.578q1.735 0 2.971 1.236t1.236 2.97q0 1.737-1.236 2.972-1.236 1.236-2.97 1.236a4.04 4.04 0 0 1-2.104-.579v.579h-2.104zM216.75 103.964h2.104l-3.155 3.155zm-4.207 11.569q-1.314-1.314-1.314-3.155t1.314-3.155 3.156-1.315 3.155 1.315q1.315 1.314 1.315 3.155t-1.315 3.155-3.155 1.315-3.156-1.315m1.486-4.825a2.28 2.28 0 0 0-.697 1.67q0 .972.697 1.67a2.28 2.28 0 0 0 1.67.696q.972 0 1.67-.697a2.28 2.28 0 0 0 .696-1.67q0-.972-.697-1.669a2.28 2.28 0 0 0-1.67-.697q-.972 0-1.669.697M222.798 108.17h2.103v.448a5.1 5.1 0 0 1 2.104-.447v2.103a3.02 3.02 0 0 0-2.104.815v5.496h-2.103z" style="fill:#000" transform="matrix(1.37904 0 0 1.4181 -29.583 -178.441)"/>
    </g>
    <g style="font-size:16.82770729px;font-style:normal;font-variant:normal;font-weight:700;font-stretch:normal;text-align:start;line-height:125%;writing-mode:lr-tb;text-anchor:start;fill:#000;fill-opacity:1;stroke:none;font-family:Drogowskaz;-inkscape-font-specification:Drogowskaz Bold">
      <path d="M182.768 141.296q-1.314-1.315-1.314-3.155 0-1.841 1.314-3.156 1.315-1.314 3.156-1.314 1.84 0 3.155 1.314 1.315 1.316 1.315 3.156t-1.315 3.155q-1.315 1.314-3.155 1.314-1.841 0-3.156-1.314m1.486-4.825a2.28 2.28 0 0 0-.697 1.67q0 .972.697 1.67a2.28 2.28 0 0 0 1.67.696q.972 0 1.67-.697a2.28 2.28 0 0 0 .696-1.67q0-.972-.697-1.669a2.28 2.28 0 0 0-1.67-.697q-.972 0-1.669.697M195.744 136.629a2.06 2.06 0 0 0-.618 1.512q0 .894.618 1.511.618.618 1.486.618t1.485-.618.618-1.511-.618-1.512a2.03 2.03 0 0 0-1.485-.618q-.868 0-1.486.618m-2.721-2.695h2.103v.578a4.04 4.04 0 0 1 2.104-.578q1.735 0 2.97 1.235 1.237 1.236 1.237 2.972t-1.236 2.97q-1.236 1.237-2.971 1.236a4.04 4.04 0 0 1-2.104-.578v4.785h-2.103zM205.052 129.727h2.104v3.155l2.103-1.052v2.104l-2.103 1.051v7.362h-2.104v-6.31l-2.103 1.052v-2.104l2.103-1.051zM211.494 141.112q-1.236-1.237-1.236-2.971 0-1.736 1.236-2.972t2.971-1.235q1.13 0 2.104.578v-.578h2.103v6.31l.526 2.103h-2.103l-.185-.788a4.1 4.1 0 0 1-2.445.788q-1.735 0-2.971-1.235m1.486-4.483a2.06 2.06 0 0 0-.618 1.512q0 .894.618 1.511.617.618 1.485.618t1.486-.618.618-1.511-.618-1.512a2.03 2.03 0 0 0-1.486-.618q-.868 0-1.485.618M222.34 131.83l2.103-2.103v4.207h1.578v2.103h-1.578v3.155q0 .447.303.75.302.302.75.302h1.103l-1.104 2.103a3.04 3.04 0 0 1-2.235-.92 3.04 3.04 0 0 1-.92-2.235v-3.155h-1.578v-2.103h1.578z" style="fill:#000" transform="matrix(1.37904 0 0 1.4181 -29.583 -178.441)"/>
    </g>
  </g>
</svg>
