<svg xmlns="http://www.w3.org/2000/svg" viewBox="0 0 602 602" role="img" aria-labelledby="title">
  <title id="title">Verkehrszeichen D-21a - D-21a: policja</title>
  <rect width="600" height="600" x="1" y="1" fill="#fff" rx="30" ry="30"/>
  <rect width="601" height="601" x=".5" y=".5" fill="none" stroke="#000" rx="30.5" ry="30.5"/>
  <rect width="588" height="588" x="7" y="7" fill="#039" rx="24" ry="24"/>
  <g fill="#fff">
    <path d="M128.5 309.75H96.56v43.75h-17.5v-105h49.44c4.96 3.36 8.89 7.73 11.81 13.12 2.92 5.4 4.38 11.23 4.38 17.5s-1.46 12.11-4.38 17.5c-2.92 5.4-6.86 9.77-11.81 13.12Zm-6.35-17.5c3.35-3.79 5.03-8.17 5.03-13.12s-1.68-9.33-5.03-13.12H96.56v26.25h25.59ZM165.21 344.75c-7.29-7.29-10.94-16.04-10.94-26.25s3.64-18.96 10.94-26.25 16.04-10.94 26.25-10.94 18.96 3.65 26.25 10.94 10.94 16.04 10.94 26.25-3.65 18.96-10.94 26.25-16.04 10.94-26.25 10.94-18.96-3.64-26.25-10.94m12.36-40.14c-3.87 3.87-5.8 8.5-5.8 13.89s1.93 10.03 5.8 13.89c3.86 3.87 8.49 5.8 13.89 5.8s10.02-1.93 13.89-5.8c3.86-3.86 5.8-8.49 5.8-13.89s-1.93-10.03-5.8-13.89-8.5-5.8-13.89-5.8-10.03 1.93-13.89 5.8M251.37 248.5h17.5v105h-17.5zM295.96 248.5h17.5V266h-17.5zm0 35h17.5v70h-17.5zM396.33 347.59c-6.71 5.4-14.44 8.09-23.19 8.09-10.36 0-19.14-3.64-26.36-10.94q-10.83-10.935-10.83-26.25c0-15.315 3.61-18.96 10.83-26.25s16-10.94 26.36-10.94c7.73 0 14.73 2.19 21 6.56l-6.78 17.06q-5.685-6.12-14.22-6.12c-8.535 0-10.03 1.9-13.89 5.69-3.87 3.79-5.8 8.46-5.8 14s1.93 10.21 5.8 14c3.86 3.79 8.49 5.69 13.89 5.69 6.12 0 11.16-2.33 15.09-7l8.09 16.41ZM435.23 353.5c0 8.17-2.52 15.42-7.55 21.77s-11.41 10.46-19.14 12.36l-8.31-16.62c4.81 0 8.93-1.72 12.36-5.14 3.42-3.43 5.14-7.55 5.14-12.36v-70h17.5v70Zm-17.5-105h17.5V266h-17.5zM467.79 343.22c-6.86-6.85-10.28-15.09-10.28-24.72s3.42-17.86 10.28-24.72c6.85-6.85 15.09-10.28 24.72-10.28 6.27 0 12.1 1.61 17.5 4.81v-4.81h17.5V336l4.38 17.5h-17.5l-1.53-6.56c-6.12 4.38-12.91 6.56-20.34 6.56-9.62 0-17.87-3.42-24.72-10.28Zm12.36-37.3c-3.43 3.43-5.14 7.62-5.14 12.58s1.71 9.15 5.14 12.58c3.42 3.43 7.55 5.14 12.36 5.14s8.93-1.71 12.36-5.14 5.14-7.62 5.14-12.58-1.72-9.15-5.14-12.58c-3.43-3.42-7.55-5.14-12.36-5.14s-8.93 1.72-12.36 5.14"/>
  </g>
</svg>
