<svg xmlns="http://www.w3.org/2000/svg" viewBox="0 0 602 752" role="img" aria-labelledby="title">
  <title id="title">Verkehrszeichen D-16 - D-16: przystanek trolejbusowy</title>
  <rect width="600" height="750" x="1" y="1" fill="#fff" rx="30" ry="30"/>
  <rect width="601" height="751" x=".5" y=".5" fill="none" stroke="#000" rx="30.5" ry="30.5"/>
  <rect width="588" height="738" x="7" y="7" fill="#039" rx="24" ry="24"/>
  <path fill="#fff" d="M81 81h440v440H81z"/>
  <path fill-rule="evenodd" d="M482.05 287.25h-112.3v-6.87H340.3L136 220.79v-16.04h-30v8.33l30 10 171.89 57.3h-13.77v6.87H106.65l-3.77 40.99v68.32l88.81 6.83c0 15.09 12.24 27.33 27.33 27.33s27.32-12.24 27.32-27.33h136.82c0 15.09 12.23 27.33 27.32 27.33s27.33-12.24 27.33-27.33h55.98l5.33-6.83v-40.99zm-317.69 58.07-3.41 3.42h-44.41l-3.42-3.42 3.32-40.99 3.51-3.42h41l3.41 3.42zm75.15 0-6.83 3.42h-54.65l-6.84-3.42v-40.99l6.84-3.42h54.65l6.83 3.42zm68.32 0-6.83 3.42h-47.82l-6.84-3.42v-40.99l6.84-3.42H301l6.83 3.42zm27.33 3.42H321.5v-47.83h13.66zm20.5 0h-13.67v-47.83h13.67zm81.98-3.42-6.83 3.42h-61.49l-6.83-3.42v-40.99l6.83-3.42h61.49l6.83 3.42zm40.99 23.91H451.3l-6.83-6.83v-58.07l6.83-3.42h27.12l13.7 54.83z"/>
</svg>
