<svg xmlns="http://www.w3.org/2000/svg" viewBox="0 0 602 752" role="img" aria-labelledby="title">
  <title id="title">Verkehrszeichen D-37 - D-37: tunel</title>
  <rect width="600" height="750" x="1" y="1" fill="#fff" rx="30" ry="30"/>
  <rect width="601" height="751" x=".5" y=".5" fill="none" stroke="#000" rx="30.5" ry="30.5"/>
  <rect width="588" height="738" x="7" y="7" fill="#039" rx="24" ry="24"/>
  <path fill="#fff" d="M81 81h440v440H81z"/>
  <path d="M439.88 409.62V259.75c0-14.07-2.15-28.01-6.39-41.4a138.8 138.8 0 0 0-18.24-37.15c-7-10.11-15.31-19.28-24.71-27.27a140.3 140.3 0 0 0-31.4-20.15c-11.77-5.5-24.22-9.29-37.02-11.28-6.94-1.08-14.05-1.62-21.1-1.62-35.57-.58-71.21 14.38-97.87 41.03-26.64 26.65-41.6 62.32-41.03 97.84v149.87H94.75v2.76h94.18L273.5 356v-82.5c0-30.38 24.62-55 55-55s55 24.62 55 55V356l28.19 56.38h95.56v-2.76zm-250.26 0h-24.74v-38.5h24.74zm0-41.24h-24.74v-24.76h24.74zm0-27.5h-24.74v-24.76h24.74zm0-27.5h-24.74v-24.76h24.74zm0-27.5h-24.74v-24.76h24.74zm.01-27.5h-24.76c-.07-12.79 1.91-25.58 5.76-37.93l23.65 7.39c-2.96 9.89-4.52 20.16-4.65 30.54m5.47-33.16-23.62-7.38c3.96-11.86 9.65-23.27 16.9-33.85l20.12 13.83a110 110 0 0 0-13.4 27.4m14.95-29.66-20.1-13.82c4.5-6.3 9.56-12.29 15.15-17.88 2.35-2.35 4.76-4.6 7.24-6.76l15.72 18.58a110 110 0 0 0-18.01 19.88m20.11-21.66-15.72-18.58c8.78-7.34 18.32-13.51 28.35-18.41l10.3 22.32c-8.19 3.91-15.9 8.84-22.93 14.67m25.43-15.83-10.31-22.34c10.79-4.99 22.11-8.52 33.64-10.43l3.78 24.58c-9.36 1.55-18.46 4.3-27.11 8.19m29.83-8.61-3.78-24.58c6.42-.94 12.89-1.36 19.36-1.26 6.47 0 12.97.47 19.34 1.4l-3.76 24.44c-10.24-1.44-20.93-1.43-31.16 0m33.88.42 3.76-24.43c11.61 1.92 22.92 5.37 33.67 10.26l-10.32 22.36c-8.65-3.89-17.75-6.64-27.11-8.19m29.61 9.35 10.32-22.36a136.7 136.7 0 0 1 28.48 18.28l-15.87 18.75a110.6 110.6 0 0 0-22.93-14.67m25.03 16.45 15.86-18.75a139.3 139.3 0 0 1 22.4 24.7l-20.25 13.93a110 110 0 0 0-18.01-19.88m19.56 22.14 20.26-13.93a135.8 135.8 0 0 1 16.68 33.97l-23.54 7.36c-3.18-9.73-7.68-18.94-13.4-27.4m14.22 30.02 23.55-7.36c3.75 12.3 5.71 25.03 5.84 37.9h-24.74c-.13-10.38-1.69-20.65-4.65-30.54m29.4 181.78h-24.74v-38.5h24.74zm0-41.24h-24.74v-24.76h24.74zm0-27.5h-24.74v-24.76h24.74zm0-27.5h-24.74v-24.76h24.74zm0-27.5h-24.74v-24.76h24.74zm-235.38 126.5H397.6L383.5 356h-110z"/>
</svg>
