<svg xmlns="http://www.w3.org/2000/svg" viewBox="0 0 481 482.182" role="img" aria-labelledby="title">
  <title id="title">Verkehrszeichen D-54 - D-54: strefa czystego transportu</title>
  <g style="fill:#fff">
    <g style="fill:#fff">
      <path d="M-93.282-114.532a26.027 26.027 0 0 0-26.084-26.084h-425.805a26.027 26.027 0 0 0-26.084 26.084v426.987a26.027 26.027 0 0 0 26.084 26.084h425.805a26.027 26.027 0 0 0 26.084-26.084z" style="opacity:1;fill:#fff;fill-opacity:1;fill-rule:evenodd;stroke:#000;stroke-width:3.02599788;stroke-linejoin:miter;stroke-miterlimit:4;stroke-dasharray:none;stroke-dashoffset:0;stroke-opacity:1" transform="matrix(1 0 0 -1 572.769 340.053)"/>
    </g>
  </g>
  <g transform="translate(-2981.319 -396.407)scale(1.24219)">
    <circle cx="2593.665" cy="546.073" r="127.75" style="opacity:1;fill:#1b8833;fill-opacity:1;fill-rule:evenodd;stroke:#1b8833;stroke-width:.50042599;stroke-linejoin:miter;stroke-miterlimit:4;stroke-dasharray:none;stroke-dashoffset:0;stroke-opacity:1"/>
    <circle cx="2593.665" cy="546.073" r="100.75" style="opacity:1;fill:#fff;fill-opacity:1;fill-rule:evenodd;stroke:#fff;stroke-width:.49973944;stroke-linejoin:miter;stroke-miterlimit:4;stroke-dasharray:none;stroke-dashoffset:0;stroke-opacity:1"/>
  </g>
  <g style="stroke-width:.40020311;stroke-miterlimit:4;stroke-dasharray:none">
    <path d="M2144.418 997.927v15.475h-15.237v-15.475h-5.103v-46.262l5.237-5.359 7.94-30.233h85.972l7.94 30.233 5.237 5.36v46.261h-5.102v15.475h-15.237v-15.475z" style="opacity:1;fill:#1b8833;fill-opacity:1;fill-rule:evenodd;stroke:#1b8833;stroke-width:.40020311;stroke-linecap:butt;stroke-linejoin:miter;stroke-miterlimit:4;stroke-dasharray:none;stroke-opacity:1" transform="translate(-3146.112 -1216.628)scale(1.55332)"/>
    <g style="stroke-width:.40020311;stroke-miterlimit:4;stroke-dasharray:none">
      <path d="m2137.136 941.596 4.182-20.684h77.847l4.181 20.684z" style="opacity:1;fill:#fff;fill-rule:evenodd;stroke:#fff;stroke-width:.40020311;stroke-linecap:butt;stroke-linejoin:miter;stroke-miterlimit:4;stroke-dasharray:none;stroke-opacity:1" transform="translate(-3146.112 -1216.628)scale(1.55332)"/>
      <path d="M2129.421 983.51v-4.858h101.64v4.858z" style="opacity:1;fill:#fff;fill-opacity:1;fill-rule:evenodd;stroke:#fff;stroke-width:.40020311;stroke-linejoin:miter;stroke-miterlimit:4;stroke-dasharray:none;stroke-dashoffset:0;stroke-opacity:1" transform="translate(-3146.112 -1216.628)scale(1.55332)"/>
      <g style="stroke-width:.40020311;stroke-miterlimit:4;stroke-dasharray:none" transform="translate(-3146.112 -1216.628)scale(1.55332)">
        <ellipse cx="2136.798" cy="965.641" rx="7.38" ry="7.575" style="opacity:1;fill:#fff;fill-opacity:1;fill-rule:evenodd;stroke:#fff;stroke-width:.40020311;stroke-linejoin:miter;stroke-miterlimit:4;stroke-dasharray:none;stroke-dashoffset:0;stroke-opacity:1"/>
        <g style="stroke-width:.40020311;stroke-miterlimit:4;stroke-dasharray:none" transform="matrix(-1 0 0 1 4360.483 0)">
          <ellipse cx="2136.798" cy="965.641" rx="7.38" ry="7.575" style="opacity:1;fill:#fff;fill-opacity:1;fill-rule:evenodd;stroke:#fff;stroke-width:.40020311;stroke-linejoin:miter;stroke-miterlimit:4;stroke-dasharray:none;stroke-dashoffset:0;stroke-opacity:1"/>
        </g>
      </g>
    </g>
  </g>
  <g style="font-style:normal;font-variant:normal;font-weight:600;font-stretch:condensed;font-size:50.02095032px;line-height:125%;font-family:&quot;Drogowskaz Engschrift&quot;;-inkscape-font-specification:&quot;Drogowskaz Engschrift Semi-Bold Condensed&quot;;letter-spacing:0;word-spacing:0;fill:#000;fill-opacity:1;stroke:none;stroke-width:1px;stroke-linecap:butt;stroke-linejoin:miter;stroke-opacity:1">
    <path d="m1582.903-85.999-11.137-6.565q-3.4-1.993-5.393-5.393t-1.993-7.386q0-6.096 4.338-10.434t10.434-4.338q6.8 0 11.723 1.29v8.558q-6.213-1.407-11.723-1.407-2.697 0-4.572 1.876-1.759 1.758-1.759 4.455 0 3.634 3.165 5.393l11.138 6.565q3.634 2.11 5.745 5.862 2.227 3.634 2.227 7.972 0 6.565-4.69 11.255-4.689 4.69-11.254 4.69-8.09 0-16.062-2.228l2.228-8.09q6.8 1.876 13.834 1.876 3.165 0 5.276-2.11 2.227-2.228 2.227-5.393 0-4.22-3.752-6.448M1610.337-115.308l8.44-4.22v18.171h7.035v8.441h-7.034v14.537q.469 2.345 1.524 3.517 1.172 1.056 3.752 2.11l2.696.704-3.048 7.269q-5.393 0-9.38-3.986-3.985-3.986-3.985-9.614v-14.537h-7.034v-8.441h7.034zM1636.275-101.357h8.441v2.696q4.22-2.696 9.38-2.696v8.441q-5.16 0-9.38 3.869v24.268h-8.44zM1687.215-86.82q-.235-2.696-2.697-5.04-2.462-2.346-5.979-2.346t-6.096 2.345q-2.462 2.228-2.58 5.041zm-17.351 7.386q.234 2.58 2.696 5.159t6.8 2.579q3.048 0 5.51-.938l2.58-1.172 4.454 6.565-3.517 1.876q-3.986 1.758-9.848 1.758-7.034 0-12.192-5.744-5.159-5.276-5.159-13.6t5.159-13.834q5.158-5.627 12.192-5.627t11.958 5.627q5.041 5.51 5.041 13.834 0 1.876-.351 3.517zM1702.66-92.916v-8.441h7.035q0-7.972 5.393-13.365t12.427-5.393v8.441q-3.635 0-6.565 2.814-2.814 2.814-2.814 7.503h7.034v8.441h-7.034v28.137h-8.441v-28.137zM1737.07-70.172q-5.042-5.393-5.042-12.896t5.042-12.896q5.158-5.393 11.02-5.393 5.979 0 10.2 2.58v-2.58h8.44v27.668l2.228 8.91h-8.558l-.821-3.517q-4.572 3.517-11.02 3.517-6.331 0-11.49-5.393m6.096-19.93q-2.462 2.813-2.462 7.034 0 4.22 2.462 7.034 2.58 2.814 6.448 2.814t6.33-2.814q2.58-2.814 2.58-7.034t-2.58-7.034q-2.461-2.814-6.33-2.814t-6.448 2.814" style="font-style:normal;font-variant:normal;font-weight:600;font-stretch:normal;font-size:75.03142548px;font-family:Drogowskaz_lekki_owalny;-inkscape-font-specification:&quot;Drogowskaz_lekki_owalny Semi-Bold&quot;;fill:#000" transform="matrix(.99825 0 0 1.00175 -1422.613 158.88)"/>
  </g>
  <path d="M-100.768-112.644a21.424 21.424 0 0 0-21.471-21.472h-420.059a21.424 21.424 0 0 0-21.471 21.472v423.211a21.424 21.424 0 0 0 21.471 21.472h420.059a21.424 21.424 0 0 0 21.471-21.472z" style="opacity:1;fill:none;fill-opacity:1;fill-rule:evenodd;stroke:#000;stroke-width:5.99999571;stroke-linejoin:miter;stroke-miterlimit:4;stroke-dasharray:none;stroke-dashoffset:0;stroke-opacity:1" transform="translate(572.769 142.13)"/>
</svg>
