<svg xmlns="http://www.w3.org/2000/svg" viewBox="0 0 600 750" role="img" aria-labelledby="title">
  <title id="title">Verkehrszeichen T-16 - T-16: miejsce wyjazdu pojazdów uprzywilejowanych straży pożarnej</title>
  <g transform="translate(-1285.594 5528.25)">
    <rect width="590.87" height="740.869" x="1290.156" y="-5523.675" ry="18.709" style="fill:#fdfb33;fill-opacity:1;stroke:#000;stroke-width:9.1305294;stroke-miterlimit:4;stroke-opacity:1;stroke-dasharray:none"/>
    <g style="stroke:none">
      <path d="m2410.324-5040.778 18.87 74.769h12.66l12.03-49.006 12.03 49.006h12.66l18.87-74.769h-12.66l-12.45 49.35-12.125-49.35h-12.65l-12.125 49.35-12.45-49.35zM2604.293-5015.855c-13.783 0-24.968 11.163-24.968 24.918s11.185 24.917 24.968 24.917c5.39 0 10.379-1.718 14.46-4.62l1.218 4.63h12.4l-3.235-12.168v-37.667h-12.4v3.312a24.9 24.9 0 0 0-12.443-3.322m.374 12.625c5.865 0 10.782 5.47 12.068 10.934v3.312c-1.286 5.463-6.203 10.495-12.068 10.495-6.841 0-12.39-5.537-12.39-12.365s5.549-12.376 12.39-12.376M2737.825-5040.778v74.769h-12.65v-3.306a25.1 25.1 0 0 1-12.492 3.306c-13.896 0-25.173-11.247-25.173-25.104 0-13.858 11.277-25.105 25.173-25.105 4.546 0 8.81 1.211 12.492 3.316v-27.876zm-25.52 37.28c-6.897 0-12.502 5.59-12.502 12.468 0 6.88 5.605 12.458 12.503 12.458s12.492-5.579 12.492-12.458-5.594-12.468-12.492-12.468M2554.744-5040.778v12.75h12.75v-12.75zm.084 24.845v50.66c-1.078 8.175-4.318 11.654-12.802 12.844l6.09 11.958c11.12-3.413 19.468-12.754 19.293-24.803v-50.66zM2499.776-5015.855l15.73 50.094-8.025 24.675h12.811l23.402-74.769h-12.458l-9.5 30.255-9.502-30.255zM2642.203-5015.855v12.378h17.113l-17.113 31.33v6.138h33.975v-12.379h-17.27l17.27-32.17v-5.297z" style="fill:#000;fill-opacity:1;stroke:none" transform="translate(-988.484 52)"/>
    </g>
    <g style="fill:#000;stroke:none">
      <path d="m-1319.016 1163.746-59.258-222.404-37.123-37.01V570.784h37.123V459.639h111.137v111.145h518.796V459.639h111.137v111.145h37.123v333.548l-37.123 37.01-59.258 222.404zm29.629-74.085h563.296l29.63-147.274h-622.555z" style="fill:#000;fill-opacity:1;fill-rule:evenodd;stroke:none" transform="matrix(.40179 0 0 -.40176 1990.486 -4904.397)"/>
    </g>
    <rect width="298.5" height="120.5" x="1436.341" y="-5268.759" ry="0" style="fill:#d40000;fill-opacity:1;stroke:none"/>
    <path d="m1637.892-5240.64-24.867 74.702h12.627l6.157-18.475h24.814l6.156 18.475h12.627l-24.877-74.702zm6.324 18.955 8.208 24.66h-16.417zM1554.087-5240.64v74.702h12.77v-31.07h10.303l18.356 31.07h14.517l-19.38-32.805c3.757-2.893 10.333-9.464 10.333-20.055 0-16.11-12.896-21.842-12.896-21.842h-34.002m30.217 12.447s4.382 4.695 4.382 9.395-4.382 9.406-4.382 9.406h-17.446v-18.623zM1498.996-5240.64v12.614h18.717v62.088h12.631v-62.088h18.717v-12.614h-50.065M1699.167-5263.05v12.264h12.295v-12.264zm-18.177 22.41v12.614h25.39l-25.266 55.154v6.934h43.646v-12.606h-25.297l25.367-56.174v-5.922zM1474.51-5240.651c-.472 0-.95.025-1.438.038-10.94 0-20.022 8.822-20.022 19.72 0 6.3 2.989 12.09 7.607 15.706 0 0 8.32 5.039 9.16 5.488 12.78 6.626 14.009 12.183 11.316 17.07-8.387 8.665-20.327 3.999-30.43.832l-4.352 11.658c8.39 2.999 16.582 4.2 26.304 4.2 11.897 0 21.536-9.609 21.536-21.46 0-7.16-3.517-13.508-8.932-17.41-5.87-3.211-11.87-6.758-17.751-10.143-1.241-.836-3.068-4.31-2.46-7.645.607-3.336 3.352-5.296 4.882-5.678 6.74-1.008 13.628.6 20.06 2.536l3.52-12.035c-6.537-1.168-11.92-2.842-19-2.877" style="fill:#fff;fill-opacity:1;stroke:none"/>
  </g>
</svg>
