<?xml version="1.0" encoding="UTF-8" standalone="no"?>
<svg
   xmlns:dc="http://purl.org/dc/elements/1.1/"
   xmlns:cc="http://creativecommons.org/ns#"
   xmlns:rdf="http://www.w3.org/1999/02/22-rdf-syntax-ns#"
   xmlns:svg="http://www.w3.org/2000/svg"
   xmlns="http://www.w3.org/2000/svg"
   viewBox="0 0 600.995 600.995"
   height="600.995"
   width="600.995"
   xml:space="preserve"
   version="1.1"
   id="svg5440"><metadata
     id="metadata5446"><rdf:RDF><cc:Work
         rdf:about=""><dc:format>image/svg+xml</dc:format><dc:type
           rdf:resource="http://purl.org/dc/dcmitype/StillImage" /><dc:title></dc:title></cc:Work></rdf:RDF></metadata><defs
     id="defs5444" /><g
     transform="matrix(1.25,0,0,-1.25,0,600.99499)"
     id="g5448"><g
       id="g5450"><path
         id="path5452"
         style="fill:#ffffff;fill-opacity:1;fill-rule:nonzero;stroke:none"
         d="m 480.398,240.398 c 0,-132.551 -107.449,-240 -240,-240 -132.55,0 -240,107.449 -240,240 0,132.55 107.45,240 240,240 132.551,0 240,-107.45 240,-240 z" /><path
         id="path5454"
         style="fill:#000000;fill-opacity:1;fill-rule:nonzero;stroke:none"
         d="M 240.398,480.796 C 107.633,480.796 0,373.163 0,240.398 0,107.632 107.633,-0.001 240.398,-0.001 c 132.766,0 240.399,107.633 240.399,240.399 0,132.765 -107.633,240.398 -240.399,240.398 z m 0,-0.398 c 132.551,0 240,-107.45 240,-240 0,-132.551 -107.449,-240 -240,-240 -132.55,0 -240,107.449 -240,240 0,132.55 107.45,240 240,240 z" /><path
         id="path5456"
         style="fill:#c1121c;fill-opacity:1;fill-rule:nonzero;stroke:none"
         d="m 240.398,472.398 c -127.746,0 -232,-104.254 -232,-232 0,-127.747 104.254,-232 232,-232 127.747,0 232,104.253 232,232 0,127.746 -104.253,232 -232,232 z m 0,-64.321 c 92.989,0 167.68,-74.691 167.68,-167.679 0,-92.989 -74.691,-167.68 -167.68,-167.68 -92.988,0 -167.679,74.691 -167.679,167.68 0,92.988 74.691,167.679 167.679,167.679 z" /><path
         id="path5458"
         style="fill:#000000;fill-opacity:1;fill-rule:nonzero;stroke:none"
         d="m 23.832,456.511 0,-0.024 -0.023,0 0.023,0.024 z" /><path
         id="path5460"
         style="fill:#000000;fill-opacity:1;fill-rule:nonzero;stroke:none"
         d="m 23.809,456.511 0.023,0 0,-0.023 -0.023,0 0,0.023 z" /><path
         id="path5462"
         style="fill:#000000;fill-opacity:1;fill-rule:nonzero;stroke:none"
         d="m 23.809,456.487 0,0.024 0.023,-0.024 -0.023,0 z m 0.023,0 -0.023,0.024 0,-0.024 0.023,0 z" /><path
         id="path5464"
         style="fill:#000000;fill-opacity:1;fill-rule:nonzero;stroke:none"
         d="m 23.859,456.487 -0.05,0 0.023,0 0,0.024 0.027,-0.024 z" /><path
         id="path5466"
         style="fill:#000000;fill-opacity:1;fill-rule:nonzero;stroke:none"
         d="m 23.809,456.487 0,0.024 0,-0.024 0.023,0.024 -0.023,-0.024 z" /><path
         id="path5468"
         style="fill:#000000;fill-opacity:1;fill-rule:nonzero;stroke:none"
         d="m 23.809,456.511 0.023,0 0,-0.023 -0.023,0 0,0.023 z" /><path
         id="path5470"
         style="fill:#000000;fill-opacity:1;fill-rule:nonzero;stroke:none"
         d="m 23.859,456.511 0,-0.047 -0.05,0 0.05,0.047 z" /><path
         id="path5472"
         style="fill:#000000;fill-opacity:1;fill-rule:nonzero;stroke:none"
         d="m 23.809,456.511 0.051,0 0,-0.047 -0.051,0 0,0.047 z" /><path
         id="path5474"
         style="fill:#000000;fill-opacity:1;fill-rule:nonzero;stroke:none"
         d="m 23.809,456.464 0,0.047 0.05,-0.047 -0.05,0 z m 0.05,0 -0.05,0.047 0,-0.047 0.05,0 z" /><path
         id="path5476"
         style="fill:#000000;fill-opacity:1;fill-rule:nonzero;stroke:none"
         d="m 23.859,456.464 -0.05,0 0.023,0 0,0.047 0.027,-0.047 z" /><path
         id="path5478"
         style="fill:#000000;fill-opacity:1;fill-rule:nonzero;stroke:none"
         d="m 23.809,456.464 0,0.047 0,-0.047 0.05,0.047 -0.05,-0.047 z" /><path
         id="path5480"
         style="fill:#000000;fill-opacity:1;fill-rule:nonzero;stroke:none"
         d="m 23.809,456.511 0.051,0 0,-0.047 -0.051,0 0,0.047 z" /><path
         id="path5482"
         style="fill:#000000;fill-opacity:1;fill-rule:nonzero;stroke:none"
         d="m 23.859,456.511 0,-0.047 -0.05,0 0.05,0.047 z" /><path
         id="path5484"
         style="fill:#000000;fill-opacity:1;fill-rule:nonzero;stroke:none"
         d="m 23.809,456.511 0.051,0 0,-0.047 -0.051,0 0,0.047 z" /><path
         id="path5486"
         style="fill:#000000;fill-opacity:1;fill-rule:nonzero;stroke:none"
         d="m 23.809,456.464 0,0.047 0.05,-0.047 -0.05,0 z m 0.05,0 -0.05,0.047 0,-0.047 0.05,0 z" /><path
         id="path5488"
         style="fill:#000000;fill-opacity:1;fill-rule:nonzero;stroke:none"
         d="m 23.859,456.464 -0.05,0 0.023,0 0,0.047 0.027,-0.047 z" /><path
         id="path5490"
         style="fill:#000000;fill-opacity:1;fill-rule:nonzero;stroke:none"
         d="m 23.809,456.464 0,0.047 0,-0.047 0.05,0.047 -0.05,-0.047 z" /><path
         id="path5492"
         style="fill:#000000;fill-opacity:1;fill-rule:nonzero;stroke:none"
         d="m 23.809,456.511 0.051,0 0,-0.047 -0.051,0 0,0.047 z" /><path
         id="path5494"
         style="fill:#000000;fill-opacity:1;fill-rule:nonzero;stroke:none"
         d="m 23.859,456.511 0,-0.047 -0.05,0 0.05,0.047 z" /><path
         id="path5496"
         style="fill:#000000;fill-opacity:1;fill-rule:nonzero;stroke:none"
         d="m 23.809,456.511 0.051,0 0,-0.047 -0.051,0 0,0.047 z" /><path
         id="path5498"
         style="fill:#000000;fill-opacity:1;fill-rule:nonzero;stroke:none"
         d="m 23.809,456.464 0,0.047 0.05,-0.047 -0.05,0 z m 0.05,0 -0.05,0.047 0,-0.047 0.05,0 z" /><path
         id="path5500"
         style="fill:#000000;fill-opacity:1;fill-rule:nonzero;stroke:none"
         d="m 23.859,456.464 -0.05,0 0.023,0 0,0.047 0.027,-0.047 z" /><path
         id="path5502"
         style="fill:#000000;fill-opacity:1;fill-rule:nonzero;stroke:none"
         d="m 23.809,456.464 0,0.047 0,-0.047 0.05,0.047 -0.05,-0.047 z" /><path
         id="path5504"
         style="fill:#000000;fill-opacity:1;fill-rule:nonzero;stroke:none"
         d="m 23.809,456.511 0.051,0 0,-0.047 -0.051,0 0,0.047 z" /><path
         id="path5506"
         style="fill:#000000;fill-opacity:1;fill-rule:evenodd;stroke:none"
         d="m 261.898,344.452 c -9.066,-0.008 -15.628,-4.836 -17.043,-10.886 l -10.449,-63.286 -124.035,0 C 97.426,270.151 98.895,262.136 99.699,257.366 l 10.082,-61.742 8.891,0 c 7.008,23.305 54.5,22.461 61.887,0 l 53.296,0 c -2.574,40.719 55.989,98.09 115.165,42.168 l 0,33.441 0.148,0 0,73.219 -87.27,0 z m -2.351,-16.215 63.691,0 0.184,-57.222 -76.309,-0.625 9.367,54.617 c 0.329,1.473 0.77,3.309 3.067,3.23 z" /><g
         transform="matrix(1,0,0,-1,0,480.79599)"
         id="g5508"><path
           id="path5510"
           style="fill:none;stroke:#000000;stroke-width:29.38373756;stroke-linecap:round;stroke-linejoin:round;stroke-miterlimit:4;stroke-dasharray:none;stroke-opacity:1"
           d="m 344.508,284.41 c 0,25.047 -20.305,45.352 -45.352,45.352 -25.047,0 -45.351,-20.305 -45.351,-45.352 0,-25.047 20.304,-45.351 45.351,-45.351 25.047,0 45.352,20.304 45.352,45.351 z" /></g><g
         transform="matrix(1,0,0,-1,0,480.79599)"
         id="g5512"><path
           id="path5514"
           style="fill:none;stroke:#000000;stroke-width:17.38353729;stroke-linecap:round;stroke-linejoin:round;stroke-miterlimit:4;stroke-dasharray:none;stroke-opacity:1"
           d="m 176.484,308.934 c 0,14.816 -12.015,26.828 -26.832,26.828 -14.816,0 -26.832,-12.012 -26.832,-26.828 0,-14.821 12.016,-26.832 26.832,-26.832 14.817,0 26.832,12.011 26.832,26.832 z" /></g></g></g></svg>