<?xml version="1.0" encoding="UTF-8" standalone="no"?>
<svg
   xmlns:dc="http://purl.org/dc/elements/1.1/"
   xmlns:cc="http://creativecommons.org/ns#"
   xmlns:rdf="http://www.w3.org/1999/02/22-rdf-syntax-ns#"
   xmlns:svg="http://www.w3.org/2000/svg"
   xmlns="http://www.w3.org/2000/svg"
   viewBox="0 0 601.00134 601.00159"
   height="601.00159"
   width="601.00134"
   xml:space="preserve"
   id="svg21"
   version="1.1"><metadata
     id="metadata27"><rdf:RDF><cc:Work
         rdf:about=""><dc:format>image/svg+xml</dc:format><dc:type
           rdf:resource="http://purl.org/dc/dcmitype/StillImage" /><dc:title></dc:title></cc:Work></rdf:RDF></metadata><defs
     id="defs25" /><g
     transform="matrix(1.3333333,0,0,-1.3333333,0,601.00159)"
     id="g29"><g
       id="g31"><path
         id="path33"
         style="fill:#ffffff;fill-opacity:1;fill-rule:nonzero;stroke:none"
         d="m 27.375,450.376 c -27.059,0.016 -27,-27.004 -27,-27.004 V 27.376 c 0,0 -0.059,-27.023 27,-27 h 396 c 27.234,-0.027 27,27 27,27 v 395.996 c 0,0 0.223,27.094 -27,27.004 z" /><path
         id="path35"
         style="fill:#154889;fill-opacity:1;fill-rule:nonzero;stroke:none"
         d="m 27.375,441.376 c -9.937,0 -18,-8.058 -18,-18 v -396 c 0,-9.949 8.063,-18 18,-18 h 396 c 9.941,0 18,8.051 18,18 v 396 c 0,9.942 -8.059,18 -18,18 z" /><path
         id="path37"
         style="fill:#000000;fill-opacity:1;fill-rule:nonzero;stroke:none"
         d="M 27.375,450.751 C 13.719,450.759 6.805,443.892 3.391,437.048 -0.023,430.204 0,423.368 0,423.368 V 27.376 C 0,27.376 -0.02,20.54 3.391,13.7 6.805,6.857 13.719,-0.011 27.375,0.001 h 396 c 13.742,-0.015 20.66,6.856 24.051,13.699 3.387,6.84 3.324,13.672 3.324,13.676 v 395.996 c 0,0.004 0.059,6.852 -3.332,13.7 -3.391,6.851 -10.309,13.722 -24.043,13.679 z m 0,-0.375 h 396 c 27.223,0.09 27,-27.004 27,-27.004 V 27.376 c 0,0 0.234,-27.027 -27,-27 h -396 c -27.059,-0.023 -27,27 -27,27 v 395.996 c 0,0 -0.059,27.02 27,27.004 z" /><path
         id="path39"
         style="fill:#ffffff;fill-opacity:1;fill-rule:nonzero;stroke:none"
         d="M 235.605,337.462 H 163.25 v -99.926 h 74.031 c 17.172,0 29.961,5.254 38.438,15.739 8.437,10.484 12.676,21.882 12.676,34.222 0,18.692 -6.645,32.446 -19.895,41.258 -8.523,5.801 -19.477,8.707 -32.895,8.707 z M 162.359,67.872 h -47.894 l 0.445,314.817 118.27,0.183 c 12.023,0 23.633,-1.277 34.769,-3.84 11.137,-2.566 22.719,-8.601 34.746,-18.07 9.36,-7.32 17.313,-17.359 23.817,-30.168 6.511,-12.808 9.777,-27.664 9.777,-44.578 0,-22.352 -8.207,-43.633 -24.625,-63.82 -16.422,-20.18 -40.418,-30.274 -71.98,-30.274 H 163.25 Z" /></g></g></svg>