<?xml version="1.0" encoding="UTF-8" standalone="no"?>
<svg
   xmlns:dc="http://purl.org/dc/elements/1.1/"
   xmlns:cc="http://creativecommons.org/ns#"
   xmlns:rdf="http://www.w3.org/1999/02/22-rdf-syntax-ns#"
   xmlns:svg="http://www.w3.org/2000/svg"
   xmlns="http://www.w3.org/2000/svg"
   viewBox="0 0 600.9726 901.45886"
   height="901.45886"
   width="600.9726"
   xml:space="preserve"
   version="1.1"
   id="svg17003"><metadata
     id="metadata17009"><rdf:RDF><cc:Work
         rdf:about=""><dc:format>image/svg+xml</dc:format><dc:type
           rdf:resource="http://purl.org/dc/dcmitype/StillImage" /><dc:title></dc:title></cc:Work></rdf:RDF></metadata><defs
     id="defs17007" /><g
     transform="matrix(1.25,0,0,-1.25,0,901.45889)"
     id="g17011"><g
       id="g17013"><path
         id="path17015"
         style="fill:#000000;fill-opacity:1;fill-rule:nonzero;stroke:none"
         d="M 32.086,721.167 C 14.402,721.167 0,706.765 0,689.081 L 0,32.089 C 0,14.401 14.402,-0.001 32.086,-0.001 l 416.602,0 c 17.707,0 32.089,14.402 32.089,32.09 l 0,656.992 c 0,17.684 -14.382,32.086 -32.089,32.086 l -416.602,0 z m 0,-0.414 416.617,0 c 17.488,0 31.692,-14.223 31.692,-31.691 l 0,-656.989 c 0,-17.468 -14.204,-31.691 -31.692,-31.691 l -416.617,0 C 14.621,0.382 0.395,14.605 0.395,32.073 l 0,656.989 c 0,17.468 14.226,31.691 31.691,31.691 z" /><path
         id="path17017"
         style="fill:#ffffff;fill-opacity:1;fill-rule:nonzero;stroke:none"
         d="m 32.086,720.753 c -17.465,0 -31.691,-14.223 -31.691,-31.691 l 0,-656.989 C 0.395,14.605 14.621,0.382 32.086,0.382 l 416.617,0 c 17.488,0 31.692,14.223 31.692,31.691 l 0,656.989 c 0,17.468 -14.204,31.691 -31.692,31.691 l -416.617,0 z" /><path
         id="path17019"
         style="fill:#154889;fill-opacity:1;fill-rule:nonzero;stroke:none"
         d="m 32.086,12.046 c -11.063,0 -20.031,8.965 -20.031,20.031 l 0,656.989 c 0,11.066 8.968,20.031 20.031,20.031 l 416.617,0 c 11.067,0 20.031,-8.965 20.031,-20.031 l 0,-656.989 c 0,-11.066 -8.964,-20.031 -20.031,-20.031 l -416.617,0 z" /><path
         id="path17021"
         style="fill:#ffffff;fill-opacity:1;fill-rule:nonzero;stroke:none"
         d="m 327.809,289.835 0,18.949 56.234,70.805 c 6.953,8.727 5.496,21.453 -3.23,28.383 -8.75,6.953 -21.477,5.5 -28.407,-3.25 -2.843,-3.574 -4.386,-8 -4.386,-12.578 l -20.211,0 c 0,22.332 18.093,40.429 40.425,40.429 22.313,0 40.43,-18.097 40.43,-40.429 0,-9.157 -3.125,-18.075 -8.855,-25.243 l -45.477,-56.855 54.332,0 0,-20.211 -80.855,0 z m -106.118,0 0,18.949 56.254,70.805 c 6.93,8.727 5.477,21.453 -3.25,28.383 -8.75,6.953 -21.453,5.5 -28.406,-3.25 -2.844,-3.574 -4.387,-8 -4.387,-12.578 l -20.211,0 c 0,22.332 18.094,40.429 40.426,40.429 22.332,0 40.43,-18.097 40.43,-40.429 0,-9.157 -3.125,-18.075 -8.856,-25.243 l -45.457,-56.855 54.313,0 0,-20.211 -80.856,0 z m -149.562,141.473 21.476,0 0,-92.211 c 0,-16.043 13.004,-29.051 29.047,-29.051 16.063,0 29.071,13.008 29.071,29.051 l 0,92.211 21.476,0 0,-92.211 c 0,-27.895 -22.633,-50.524 -50.547,-50.524 -27.894,0 -50.523,22.629 -50.523,50.524 l 0,92.211 z" /></g></g></svg>