<?xml version="1.0" encoding="UTF-8" standalone="no"?>
<svg
   xmlns:dc="http://purl.org/dc/elements/1.1/"
   xmlns:cc="http://creativecommons.org/ns#"
   xmlns:rdf="http://www.w3.org/1999/02/22-rdf-syntax-ns#"
   xmlns:svg="http://www.w3.org/2000/svg"
   xmlns="http://www.w3.org/2000/svg"
   viewBox="0 0 600 600"
   height="600"
   width="600"
   xml:space="preserve"
   id="svg5022"
   version="1.1"><metadata
     id="metadata5028"><rdf:RDF><cc:Work
         rdf:about=""><dc:format>image/svg+xml</dc:format><dc:type
           rdf:resource="http://purl.org/dc/dcmitype/StillImage" /><dc:title></dc:title></cc:Work></rdf:RDF></metadata><defs
     id="defs5026" /><g
     transform="matrix(1.3333333,0,0,-1.3333333,0,600)"
     id="g5030"><g
       id="g5032"><path
         id="path5034"
         style="fill:#ffffff;fill-opacity:1;fill-rule:nonzero;stroke:none"
         d="M 28.543,449.777 C 0.16,449.777 0.223,421.52 0.223,421.52 V 28.48 c 0,0 -0.063,-28.253 28.32,-28.253 h 392.914 c 28.383,0 28.316,28.253 28.316,28.253 v 393.04 c 0,0 0.067,28.257 -28.316,28.257 z" /><path
         id="path5036"
         style="fill:#000000;fill-opacity:1;fill-rule:nonzero;stroke:none"
         d="M 27.945,442.359 C 7.641,442.395 7.715,422.121 7.715,422.121 V 27.879 c 0,0 -0.074,-20.274 20.23,-20.238 h 394.114 c 20.304,-0.036 20.226,20.238 20.226,20.238 v 394.242 c 0,0 0.078,20.274 -20.226,20.238 z m 0,-11.238 h 394.114 c 0,0 8.964,-0.359 8.984,-9 V 27.879 c -0.02,-8.641 -8.984,-8.996 -8.984,-8.996 H 27.945 c 0,0 -8.968,0.355 -8.988,8.996 v 394.242 c 0.02,8.641 8.988,9 8.988,9 z" /><path
         id="path5038"
         style="fill:#000000;fill-opacity:1;fill-rule:nonzero;stroke:none"
         d="M 28.543,450 C 14.277,450 7.098,442.867 3.539,435.746 -0.02,428.629 0,421.516 0,421.516 V 28.48 c 0,0 -0.02,-7.109 3.539,-14.226 C 7.098,7.137 14.277,0 28.543,0 h 392.914 c 14.266,0 21.445,7.137 25.004,14.254 3.559,7.117 3.539,14.23 3.539,14.23 v 393.032 c 0,0.004 0.02,7.113 -3.539,14.23 C 442.902,442.863 435.723,450 421.457,450 Z m 0,-0.223 h 392.914 c 28.383,0 28.316,-28.257 28.316,-28.257 V 28.48 c 0,0 0.067,-28.253 -28.316,-28.253 H 28.543 C 0.16,0.227 0.223,28.48 0.223,28.48 v 393.04 c 0,0 -0.063,28.257 28.32,28.257 z" /><path
         id="path5040"
         style="fill:#000000;fill-opacity:1;fill-rule:nonzero;stroke:none"
         d="m 288.684,45.805 v 63.066 h 40.558 V 99.867 H 298.266 V 81.844 h 26.472 V 73.398 H 298.266 V 54.82 h 30.976 v -9.015 z m -61.93,0 v 63.066 h 9.012 l 28.722,-45.039 v 45.039 h 9.567 V 45.805 h -9.012 l -28.707,45.05 V 45.805 Z M 178.906,67.77 c 0,-7.149 5.785,-12.95 12.938,-12.95 7.16,0 12.949,5.801 12.949,12.95 v 19.152 c 0,7.137 -5.789,12.945 -12.949,12.945 -7.153,0 -12.938,-5.808 -12.938,-12.945 z m -9.582,0 v 19.152 c 0,12.437 10.09,22.516 22.52,22.516 12.437,0 22.527,-10.079 22.527,-22.516 V 67.77 c 0,-12.438 -10.09,-22.516 -22.527,-22.516 -12.43,0 -22.52,10.078 -22.52,22.516 z M 119.777,45.805 v 7.89 l 28.719,46.731 h -27.594 v 8.445 h 39.418 v -7.309 L 131.605,54.82 h 28.715 v -9.015" /><path
         id="path5042"
         style="fill:#154889;fill-opacity:1;fill-rule:nonzero;stroke:none"
         d="m 359.645,269.859 c 0,-74.554 -60.442,-135 -135,-135 -74.559,0 -135,60.446 -135,135 0,74.559 60.441,135 135,135 74.558,0 135,-60.441 135,-135 z" /><path
         id="path5044"
         style="fill:#ffffff;fill-opacity:1;fill-rule:nonzero;stroke:none"
         d="m 274.582,275.98 c 0,7.872 -6.387,14.27 -14.27,14.27 -7.878,0 -14.265,-6.398 -14.265,-14.27 0,-7.878 6.387,-14.277 14.265,-14.277 7.883,0 14.27,6.399 14.27,14.277 z m -69.293,83.567 c 0,-9.004 -7.309,-16.309 -16.312,-16.309 -9,0 -16.309,7.305 -16.309,16.309 0,9 7.309,16.297 16.309,16.297 9.003,0 16.312,-7.297 16.312,-16.297 z m -32.621,-83.176 2.863,2.813 c 0.781,0.773 1.215,1.812 1.215,2.91 v 30.574 c 0,1.121 -0.91,2.031 -2.039,2.031 -1.121,0 -2.039,-0.91 -2.039,-2.031 z m -24.457,-47.269 c 2.348,15.609 9.117,30.218 19.519,42.093 -4.691,5.235 -7.289,12.02 -7.289,19.055 v 16.297 c 0,15.762 12.774,28.539 28.536,28.539 10.64,0 20.394,-5.922 25.312,-15.363 l 16.941,-32.532 c 2.446,-4.722 1.582,-10.484 -2.164,-14.253 l 16.832,-14.126 c 5.704,-4.792 13.411,-6.437 20.575,-4.39 l 3.019,0.863 c 3.113,0.883 6.465,-0.156 8.528,-2.664 l 20.734,-25.199 c 3.527,-4.285 2.98,-10.606 -1.238,-14.215 l -18.856,22.008 6.113,-30.582 -7.816,-1.149 4.695,-29.636 c 0.446,-2.782 -1.461,-5.391 -4.238,-5.832 -2.707,-0.422 -5.273,1.367 -5.797,4.054 l -5.785,29.762 -6.605,-0.977 -3.016,-32.355 c -0.254,-2.801 -2.738,-4.863 -5.543,-4.602 -2.727,0.258 -4.77,2.629 -4.606,5.368 l 4.059,70.027 -29.023,27.445 c -2.7,3.785 -2.5,8.918 0.488,12.485 l -18.07,34.718 c -0.313,0.59 -1.047,0.832 -1.645,0.516 -0.41,-0.207 -0.664,-0.633 -0.664,-1.082 v -31.281 c 0,-1.098 0.438,-2.137 1.215,-2.91 l 3.617,-3.563 c 12.734,-12.527 21.051,-28.855 23.703,-46.519 z m 42.805,-4.079 h 12.23 v -55.027 c 0,-3.379 -2.738,-6.121 -6.117,-6.121 -3.375,0 -6.113,2.742 -6.113,6.121 z m -16.309,0 h 12.231 v -42.8 c 0,-3.375 -2.739,-6.114 -6.11,-6.114 -3.383,0 -6.121,2.739 -6.121,6.114" /></g></g></svg>