<?xml version="1.0" encoding="UTF-8" standalone="no"?>
<svg
   xmlns:dc="http://purl.org/dc/elements/1.1/"
   xmlns:cc="http://creativecommons.org/ns#"
   xmlns:rdf="http://www.w3.org/1999/02/22-rdf-syntax-ns#"
   xmlns:svg="http://www.w3.org/2000/svg"
   xmlns="http://www.w3.org/2000/svg"
   viewBox="0 0 601 450.99997"
   height="450.99997"
   width="601"
   xml:space="preserve"
   version="1.1"
   id="svg22528"><metadata
     id="metadata22534"><rdf:RDF><cc:Work
         rdf:about=""><dc:format>image/svg+xml</dc:format><dc:type
           rdf:resource="http://purl.org/dc/dcmitype/StillImage" /><dc:title></dc:title></cc:Work></rdf:RDF></metadata><defs
     id="defs22532"><clipPath
       id="clipPath22552"
       clipPathUnits="userSpaceOnUse"><path
         id="path22554"
         d="m 75,50 331,0 0,262 -331,0 0,-262 z" /></clipPath></defs><g
     transform="matrix(1.25,0,0,-1.25,0,450.99998)"
     id="g22536"><g
       id="g22538"><path
         id="path22540"
         style="fill:#ffffff;fill-opacity:1;fill-rule:nonzero;stroke:none"
         d="m 32.184,360.402 c -17.52,0 -31.786,-14.266 -31.786,-31.797 l 0,-296.414 C 0.398,14.663 14.664,0.402 32.184,0.402 l 416.418,0 c 17.535,0 31.796,14.261 31.796,31.789 l 0,296.414 c 0,17.531 -14.261,31.797 -31.796,31.797 l -416.418,0 z" /><path
         id="path22542"
         style="fill:#000000;fill-opacity:1;fill-rule:nonzero;stroke:none"
         d="m 32.184,352.632 c -13.262,0 -24.016,-10.758 -24.016,-24.027 l 0,-296.414 C 8.168,18.925 18.922,8.163 32.184,8.163 l 416.418,0 c 13.265,0 24.027,10.762 24.027,24.028 l 0,296.414 c 0,13.269 -10.762,24.027 -24.027,24.027 l -416.418,0 z m 0,-12.02 416.418,0 c 6.636,0 12.015,-5.375 12.015,-12.007 l 0,-296.414 c 0,-6.641 -5.379,-12.008 -12.015,-12.008 l -416.418,0 c -6.622,0 -12.008,5.367 -12.008,12.008 l 0,296.414 c 0,6.632 5.386,12.007 12.008,12.007 z" /><path
         id="path22544"
         style="fill:#000000;fill-opacity:1;fill-rule:nonzero;stroke:none"
         d="M 32.184,360.8 C 14.445,360.8 0,346.355 0,328.605 L 0,32.191 C 0,14.448 14.445,-0.001 32.184,-0.001 l 416.418,0 c 17.75,0 32.199,14.449 32.199,32.192 l 0,296.414 c 0,17.75 -14.449,32.195 -32.199,32.195 l -416.418,0 z m 0,-0.398 416.418,0 c 17.535,0 31.796,-14.266 31.796,-31.797 l 0,-296.414 c 0,-17.524 -14.261,-31.789 -31.796,-31.789 l -416.418,0 c -17.52,0 -31.786,14.265 -31.786,31.789 l 0,296.414 c 0,17.531 14.266,31.797 31.786,31.797 z" /><g
         transform="translate(0,-0.200012)"
         id="g22546"><g
           id="g22548"><g
             clip-path="url(#clipPath22552)"
             id="g22550"><g
               id="g22556"><path
                 id="path22558"
                 style="fill:#000000;fill-opacity:1;fill-rule:nonzero;stroke:none"
                 d="m 96.824,243.609 0,67.422 10.207,0 0,-57.789 33.043,0 0,-9.633 -43.25,0 z" /><path
                 id="path22560"
                 style="fill:#000000;fill-opacity:1;fill-rule:nonzero;stroke:none"
                 d="m 149.684,291.77 9.617,0 0,-48.157 -9.617,0 0,48.157 z m 0,19.25 9.617,0 0,-9.633 -9.617,0 0,9.633 z" /><path
                 id="path22562"
                 style="fill:#000000;fill-opacity:1;fill-rule:nonzero;stroke:none"
                 d="m 173.719,243.609 0,48.157 9.617,0 0,-5.442 c 5.629,6.988 15.836,8.074 22.809,2.43 3.808,-3.078 6.019,-7.738 6.019,-12.641 l 0,-32.504 -9.613,0 0,29.496 c 0,5.321 -4.305,9.633 -9.602,9.633 -5.312,0 -9.613,-4.312 -9.613,-9.633 l 0,-29.496 -9.617,0 z" /><path
                 id="path22564"
                 style="fill:#000000;fill-opacity:1;fill-rule:nonzero;stroke:none"
                 d="m 226.586,291.77 9.617,0 0,-48.157 -9.617,0 0,48.157 z m 0,19.25 9.617,0 0,-9.633 -9.617,0 0,9.633 z" /><path
                 id="path22566"
                 style="fill:#000000;fill-opacity:1;fill-rule:nonzero;stroke:none"
                 d="m 289.059,264.078 -30.039,0 0,-1.199 c 0,-4.195 2.539,-7.957 6.421,-9.504 5.344,-2.141 11.45,-0.637 15.204,3.73 l 7.289,-6.277 c -6.422,-7.492 -16.903,-10.066 -26.059,-6.394 -7.535,3.011 -12.457,10.316 -12.457,18.445 l 0,9.617 c 0,10.981 8.879,19.875 19.82,19.875 10.946,0 19.821,-8.894 19.821,-19.875 l 0,-8.418 z m -30.039,8.418 20.425,0 c 0,5.656 -4.562,10.242 -10.207,10.242 -5.644,0 -10.218,-4.586 -10.218,-10.242" /><path
                 id="path22568"
                 style="fill:#000000;fill-opacity:1;fill-rule:nonzero;stroke:none"
                 d="m 302.277,243.609 0,48.157 9.618,0 0,-5.442 c 5.628,6.988 15.835,8.074 22.808,2.43 3.809,-3.078 6.02,-7.738 6.02,-12.641 l 0,-32.504 -9.614,0 0,29.496 c 0,5.321 -4.304,9.633 -9.601,9.633 -5.313,0 -9.613,-4.312 -9.613,-9.633 l 0,-29.496 -9.618,0 z" /><path
                 id="path22570"
                 style="fill:#000000;fill-opacity:1;fill-rule:nonzero;stroke:none"
                 d="m 355.145,274.918 28.828,0 0,-9.633 -28.828,0 0,9.633 z" /><path
                 id="path22572"
                 style="fill:#000000;fill-opacity:1;fill-rule:nonzero;stroke:none"
                 d="m 93.223,147.305 -17.426,48.152 10.219,0 11.406,-33.703 11.418,33.703 10.207,0 -17.41,-48.152 -8.414,0 z" /><path
                 id="path22574"
                 style="fill:#000000;fill-opacity:1;fill-rule:nonzero;stroke:none"
                 d="m 165.91,167.77 -30.043,0 0,-1.2 c 0,-4.179 2.543,-7.957 6.426,-9.504 5.34,-2.14 11.449,-0.636 15.203,3.731 l 7.289,-6.277 c -6.426,-7.493 -16.906,-10.067 -26.058,-6.391 -7.536,3.008 -12.457,10.312 -12.457,18.441 l 0,9.618 c 0,10.98 8.863,19.874 19.82,19.874 10.941,0 19.82,-8.894 19.82,-19.874 l 0,-8.418 z m -30.043,8.418 20.43,0 c 0,5.656 -4.578,10.242 -10.207,10.242 -5.645,0 -10.223,-4.586 -10.223,-10.242" /><path
                 id="path22576"
                 style="fill:#000000;fill-opacity:1;fill-rule:nonzero;stroke:none"
                 d="m 179.129,147.305 0,48.152 9.613,0 0,-5.437 c 5.629,6.984 15.836,8.07 22.809,2.429 l 0.015,-0.015 -6.828,-8.45 c -3.957,3.547 -10.035,3.2 -13.57,-0.781 -1.559,-1.762 -2.426,-4.047 -2.426,-6.406 l 0,-29.492 -9.613,0 z" /><path
                 id="path22578"
                 style="fill:#000000;fill-opacity:1;fill-rule:nonzero;stroke:none"
                 d="m 218.777,147.305 0,67.418 9.614,0 0,-42.137 18.621,22.871 11.406,0 -16.211,-18.66 18.621,-29.492 -12.012,0 -12.617,22.273 -7.808,-8.433 0,-13.84 -9.614,0 z" /><path
                 id="path22580"
                 style="fill:#000000;fill-opacity:1;fill-rule:nonzero;stroke:none"
                 d="m 306.484,167.77 -30.043,0 0,-1.2 c 0,-4.179 2.539,-7.957 6.426,-9.504 5.34,-2.14 11.445,-0.636 15.199,3.731 l 7.293,-6.277 c -6.425,-7.493 -16.906,-10.067 -26.058,-6.391 -7.535,3.008 -12.461,10.312 -12.461,18.441 l 0,9.618 c 0,10.98 8.867,19.874 19.824,19.874 10.941,0 19.82,-8.894 19.82,-19.874 l 0,-8.418 z m -30.043,8.418 20.426,0 c 0,5.656 -4.574,10.242 -10.203,10.242 -5.644,0 -10.223,-4.586 -10.223,-10.242" /><path
                 id="path22582"
                 style="fill:#000000;fill-opacity:1;fill-rule:nonzero;stroke:none"
                 d="m 319.699,147.305 0,67.418 9.613,0 0,-24.703 c 5.633,6.984 15.836,8.07 22.809,2.429 3.813,-3.082 6.024,-7.726 6.024,-12.644 l 0,-32.5 -9.602,0 0,29.492 c 0,5.324 -4.316,9.633 -9.613,9.633 -5.313,0 -9.618,-4.309 -9.618,-9.633 l 0,-29.492 -9.613,0 z" /><path
                 id="path22584"
                 style="fill:#000000;fill-opacity:1;fill-rule:nonzero;stroke:none"
                 d="m 372.566,147.305 0,48.152 9.614,0 0,-5.437 c 5.629,6.984 15.836,8.07 22.808,2.429 l 0.016,-0.015 -6.828,-8.45 c -3.973,3.547 -10.035,3.2 -13.571,-0.781 -1.558,-1.762 -2.425,-4.047 -2.425,-6.406 l 0,-29.492 -9.614,0 z" /><path
                 id="path22586"
                 style="fill:#000000;fill-opacity:1;fill-rule:nonzero;stroke:none"
                 d="m 177.926,50.996 0,40.328 -4.809,0 0,7.828 4.809,0 0,7.215 c 0,6.656 5.383,12.051 12.012,12.051 l 7.214,0 0,-9.039 -6.609,0 c -1.66,0 -3.004,-1.348 -3.004,-3.012 l 0,-7.215 9.613,0 0,-7.828 -9.613,0 0,-40.328 -9.613,0 z" /><path
                 id="path22588"
                 style="fill:#000000;fill-opacity:1;fill-rule:nonzero;stroke:none"
                 d="m 207.965,50.996 0,48.156 9.613,0 0,-5.441 c 5.629,6.988 15.836,8.07 22.809,2.43 0,0 0,-0.012 0.015,-0.012 l -6.828,-8.449 c -3.969,3.543 -10.035,3.183 -13.57,-0.797 -1.559,-1.75 -2.426,-4.035 -2.426,-6.391 l 0,-29.496 -9.613,0 z" /><path
                 id="path22590"
                 style="fill:#000000;fill-opacity:1;fill-rule:nonzero;stroke:none"
                 d="m 284.855,71.461 -30.039,0 0,-1.203 c 0,-4.18 2.539,-7.942 6.422,-9.5 5.344,-2.141 11.45,-0.637 15.203,3.73 l 7.289,-6.261 c -6.425,-7.508 -16.906,-10.082 -26.058,-6.411 -7.52,3.024 -12.457,10.313 -12.457,18.442 l 0,9.637 c 0,10.964 8.863,19.859 19.82,19.859 10.942,0 19.82,-8.895 19.82,-19.859 l 0,-8.434 z m -30.039,8.434 20.426,0 c 0,5.64 -4.578,10.226 -10.207,10.226 -5.644,0 -10.219,-4.586 -10.219,-10.226" /><path
                 id="path22592"
                 style="fill:#000000;fill-opacity:1;fill-rule:nonzero;stroke:none"
                 d="m 298.074,99.152 9.617,0 0,-48.152 -9.617,0 0,48.152 z m 0,19.254 9.617,0 0,-9.633 -9.617,0 0,9.633 z" /></g></g></g></g></g></g></svg>