<?xml version="1.0" encoding="UTF-8" standalone="no"?>
<svg
   xmlns:dc="http://purl.org/dc/elements/1.1/"
   xmlns:cc="http://creativecommons.org/ns#"
   xmlns:rdf="http://www.w3.org/1999/02/22-rdf-syntax-ns#"
   xmlns:svg="http://www.w3.org/2000/svg"
   xmlns="http://www.w3.org/2000/svg"
   viewBox="0 0 421.01364 232.01756"
   height="232.01756"
   width="421.01364"
   xml:space="preserve"
   id="svg10157"
   version="1.1"><metadata
     id="metadata10163"><rdf:RDF><cc:Work
         rdf:about=""><dc:format>image/svg+xml</dc:format><dc:type
           rdf:resource="http://purl.org/dc/dcmitype/StillImage" /><dc:title></dc:title></cc:Work></rdf:RDF></metadata><defs
     id="defs10161"><clipPath
       id="clipPath10177"
       clipPathUnits="userSpaceOnUse"><path
         id="path10175"
         d="M 0,0 H 316 V 175 H 0 Z" /></clipPath><clipPath
       id="clipPath10193"
       clipPathUnits="userSpaceOnUse"><path
         id="path10191"
         d="M 5,6 H 311 V 170 H 5 Z" /></clipPath></defs><g
     transform="matrix(1.3333333,0,0,-1.3333333,0,232.01756)"
     id="g10165"><g
       id="g10167"><g
         transform="translate(0,-0.986832)"
         id="g10169"><g
           id="g10171"><g
             clip-path="url(#clipPath10177)"
             id="g10173"><g
               id="g10179"><path
                 id="path10181"
                 style="fill:#ffffff;fill-opacity:1;fill-rule:evenodd;stroke:none"
                 d="M 21.375,1.367 C 9.781,1.367 0.379,10.77 0.379,22.363 v 131.258 c 0,11.594 9.402,21.004 20.996,21.004 h 273.008 c 11.597,0 20.996,-9.41 20.996,-21.004 V 22.363 c 0,-11.593 -9.399,-20.996 -20.996,-20.996 z" /><path
                 id="path10183"
                 style="fill:#000000;fill-opacity:1;fill-rule:evenodd;stroke:none"
                 d="M 21.375,175 C 9.578,175 0,165.422 0,153.625 V 22.363 C 0,10.563 9.578,0.988 21.375,0.988 h 273.008 c 11.801,0 21.379,9.575 21.379,21.375 v 131.262 c 0,11.797 -9.578,21.375 -21.379,21.375 z m 0,-0.375 h 273.008 c 11.597,0 20.996,-9.41 20.996,-21.004 V 22.363 C 315.379,10.77 305.98,1.371 294.383,1.371 H 21.375 C 9.781,1.371 0.379,10.77 0.379,22.363 v 131.258 c 0,11.594 9.402,21.004 20.996,21.004 z" /></g></g></g></g><g
         transform="translate(0,-0.986832)"
         id="g10185"><g
           id="g10187"><g
             clip-path="url(#clipPath10193)"
             id="g10189"><g
               id="g10195"><path
                 id="path10197"
                 style="fill:#000000;fill-opacity:1;fill-rule:evenodd;stroke:none"
                 d="m 21.375,6.617 c -8.699,0 -15.746,7.055 -15.746,15.746 v 131.258 c 0,8.699 7.047,15.754 15.746,15.754 h 273.008 c 8.695,0 15.75,-7.055 15.75,-15.754 V 22.363 c 0,-8.691 -7.055,-15.746 -15.75,-15.746 z" /><path
                 id="path10199"
                 style="fill:#ffffff;fill-opacity:1;fill-rule:evenodd;stroke:none"
                 d="m 21.375,14.492 c -4.344,0 -7.871,3.528 -7.871,7.875 v 131.254 c 0,4.348 3.527,7.875 7.871,7.875 h 273.008 c 4.347,0 7.875,-3.527 7.875,-7.875 V 22.367 c 0,-4.347 -3.528,-7.875 -7.875,-7.875 z" /></g></g></g></g><path
         id="path10201"
         style="fill:#000000;fill-opacity:1;fill-rule:nonzero;stroke:none"
         d="m 176.152,67.49 h 14.289 c -0.101,-0.668 -0.195,-1.328 -0.324,-1.996 -0.633,-3.27 -2.004,-6.399 -3.797,-9.25 -2.324,-3.871 -5.386,-7.25 -9.082,-9.84 -5.109,-3.774 -11.461,-5.965 -17.867,-6.141 -7.254,-0.453 -14.562,1.692 -20.523,6.149 -7.278,5.031 -12.629,13.363 -13.25,21.859 -0.243,1.84 -0.262,3.695 -0.278,5.543 v 27.684 c 0.063,1.492 0.137,2.988 0.325,4.484 0.937,7.316 4.746,14.476 10.511,19.398 5.703,5.422 13.512,8.422 21.266,8.414 5.598,0.211 11.16,-1.132 16.047,-3.808 4.734,-2.449 8.84,-6.121 11.765,-10.567 2.219,-3.203 3.797,-6.824 4.707,-10.586 0.184,-0.699 0.344,-1.414 0.5,-2.117 h -14.289 c -0.207,0.602 -0.41,1.207 -0.64,1.801 -1.227,3.035 -3.371,5.758 -6.102,7.68 -3.234,2.469 -7.316,3.769 -11.359,3.676 -3.973,0.058 -7.903,-1.215 -11.133,-3.676 -4.047,-2.879 -7.059,-7.531 -7.43,-12.313 -0.156,-1.172 -0.156,-2.34 -0.148,-3.519 V 73.814 c 0.012,-1.301 0.027,-2.59 0.207,-3.871 0.574,-4.199 2.859,-8.274 6.211,-11.059 3.594,-3.289 8.535,-4.961 13.398,-4.617 4.328,0.121 8.602,1.828 11.664,4.793 2.278,2.031 3.938,4.707 4.996,7.531 0.114,0.297 0.223,0.602 0.336,0.899" /></g></g></svg>