<svg data-name="Ebene 1" xmlns="http://www.w3.org/2000/svg" viewBox="0 0 32 32">
  <circle cx="9.29" cy="8.25" r="5.1" fill="#fff" stroke="#b91c1c" stroke-miterlimit="10"
    stroke-width="2.13" />
  <path d="m23.92 27.78-5.84-10.12s0-.08.04-.08h11.69s.06.04.04.08l-5.84 10.12s-.07.03-.09 0Z"
    fill="#fff" stroke="#b91c1c" stroke-miterlimit="10" stroke-width="2.1" />
  <path
    d="M13.37 16.53H8.76c-.53 0-1.03.21-1.4.58l-5.44 5.44c-.77.77-.77 2.02 0 2.8l4.12 4.12c.77.77 2.02.77 2.8 0l5.44-5.44c.37-.37.58-.87.58-1.4v-4.62c0-.82-.66-1.48-1.48-1.48h-.01Zm-.86 3.88a1.54 1.54 0 1 1-3.081-.001 1.54 1.54 0 0 1 3.081.001Z"
    fill="#f59e0b" />
  <circle cx="23.97" cy="8.25" r="5.1" fill="#2563eb" stroke="#2563eb" stroke-miterlimit="10"
    stroke-width="2.12" />
</svg>
