<svg xmlns="http://www.w3.org/2000/svg" xml:space="preserve" viewBox="0 0 50.55 25.406" role="img" aria-labelledby="title">
  <title id="title">Verkehrszeichen A-26a - Sentido Único</title>
  <path d="M1.871.1h46.808c.975 0 1.771.8 1.771 1.778v21.649a1.78 1.78 0 0 1-1.771 1.779H1.871A1.78 1.78 0 0 1 .1 23.528V1.878A1.78 1.78 0 0 1 1.871.1" clip-rule="evenodd" style="fill:gold;fill-opacity:1;fill-rule:evenodd;stroke:none"/>
  <path d="M2.426 1.328h45.52c.654 0 1.189.509 1.189 1.132v20.485c0 .623-.535 1.133-1.189 1.133H2.426c-.653 0-1.188-.51-1.188-1.133V2.46c0-.623.535-1.132 1.188-1.132" clip-rule="evenodd" style="fill:gold;fill-opacity:1;fill-rule:evenodd;stroke:none"/>
  <path stroke-miterlimit="2.613" d="M2.426 1.328h45.52c.654 0 1.189.509 1.189 1.132v20.485c0 .623-.535 1.133-1.189 1.133H2.426c-.653 0-1.188-.51-1.188-1.133V2.46c0-.623.535-1.132 1.188-1.132z" style="fill:none;stroke:#000;stroke-width:1.60699999;stroke-miterlimit:2.61299992"/>
  <path d="m32.833 9.865-25.472.074.021 5.392 25.448-.075.008.347-1.015 1.767c-.422.805.501 1.755 1.35 1.244l9.07-5.64c.499-.328.514-.793-.019-1.119l-9.121-5.587c-.728-.447-1.81.307-1.328 1.202l1.175 2.206c.036.099.012.197-.117.189" clip-rule="evenodd" style="fill-rule:evenodd"/>
</svg>
