<svg xmlns="http://www.w3.org/2000/svg" xml:space="preserve" viewBox="0 0 50.491 50.493" role="img" aria-labelledby="title">
  <title id="title">Verkehrszeichen A-7a - Via Lateral à Direita</title>
  <path d="M1.108 22.548 22.686 1.094c1.42-1.412 3.836-1.307 5.367.235L49.18 22.575c1.531 1.54 1.623 3.958.202 5.37L27.805 49.4c-1.422 1.412-3.837 1.308-5.369-.233L1.311 27.918c-1.532-1.541-1.623-3.958-.203-5.37" clip-rule="evenodd" style="fill:gold;fill-opacity:1;fill-rule:evenodd;stroke:none"/>
  <path d="M2.5 23.465 23.595 2.493c.92-.914 2.483-.847 3.475.15l20.79 20.909c.99.998 1.05 2.563.13 3.476L26.896 48.002c-.92.914-2.484.845-3.475-.152L2.632 26.94c-.992-.996-1.052-2.561-.132-3.475" clip-rule="evenodd" style="fill:gold;fill-opacity:1;fill-rule:evenodd;stroke:none"/>
  <path stroke-miterlimit="2.613" d="M2.5 23.465 23.595 2.493c.92-.914 2.483-.847 3.475.15l20.79 20.909c.99.998 1.05 2.563.13 3.476L26.896 48.002c-.92.914-2.484.845-3.475-.152L2.632 26.94c-.992-.996-1.052-2.561-.132-3.475z" style="fill:none;stroke:#000;stroke-width:1.63;stroke-miterlimit:2.61299992"/>
  <path d="M9.371 26.447v-4.622h15.44V8.481h4.621v31.375h-4.621V26.447z" clip-rule="evenodd" style="fill-rule:evenodd" transform="translate(.1 .1)"/>
  <path d="M9.371 26.447v-4.622h15.44V8.481h4.621v31.375h-4.621V26.447z" clip-rule="evenodd" style="fill-rule:evenodd" transform="translate(.1 .1)"/>
</svg>
