<svg xmlns="http://www.w3.org/2000/svg" xml:space="preserve" viewBox="0 0 51.21 51.212" role="img" aria-labelledby="title">
  <title id="title">Verkehrszeichen A-48 - Comprimento limitado</title>
  <path d="M50.087 28.343 28.2 50.103c-1.44 1.434-3.892 1.326-5.446-.236L1.329 28.315c-1.554-1.563-1.647-4.014-.206-5.447l21.886-21.76c1.44-1.432 3.892-1.325 5.445.238l21.428 21.55c1.554 1.563 1.646 4.015.205 5.447" clip-rule="evenodd" style="fill:gold;fill-opacity:1;fill-rule:evenodd;stroke:none"/>
  <path d="M48.675 27.413 27.28 48.686c-.933.928-2.52.857-3.524-.154L2.668 27.325c-1.006-1.014-1.066-2.6-.133-3.527L23.93 2.527c.933-.928 2.518-.858 3.523.152l21.088 21.208c1.006 1.012 1.066 2.598.133 3.526" clip-rule="evenodd" style="fill:gold;fill-opacity:1;fill-rule:evenodd;stroke:none"/>
  <path stroke-miterlimit="2.613" d="M48.675 27.413 27.28 48.686c-.933.928-2.52.857-3.524-.154L2.668 27.325c-1.006-1.014-1.066-2.6-.133-3.527L23.93 2.527c.933-.928 2.518-.858 3.523.152l21.088 21.208c1.006 1.012 1.066 2.598.133 3.526z" style="fill:none;stroke:#000;stroke-width:1.653;stroke-miterlimit:2.61299992"/>
  <path d="M19.01 18.609a.09.09 0 0 1 .068-.041h2.492c.07 0 .124.022.12.117v1.494h-3.51c-.085-.005-.082-.064-.06-.117q.447-.726.89-1.453m-2.72 1.438q1.184-1.13 2.366-2.264a.2.2 0 0 1 .144-.046l3.339-.006c.166.015.283.097.285.287l-.001 5.85c0 .124-.067.213-.212.215h-3.23a.07.07 0 0 1-.05-.022c-1.093-1.327-3.21-1.523-4.468 0a.06.06 0 0 1-.042.022h-1.41c-.165-.003-.214-.086-.21-.206v-3.614c-.004-.188.1-.215.214-.217zM22.969 14.566h14.149c.023 0 .042.019.042.042v9.4a.04.04 0 0 1-.042.04h-14.15a.04.04 0 0 1-.041-.04v-9.4c0-.024.019-.042.042-.042M28.925 24.15a1.941 1.941 0 1 1 0 3.883 1.941 1.941 0 0 1 0-3.882M33.426 24.15a1.942 1.942 0 0 1 0 3.884 1.942 1.942 0 1 1 0-3.883M16.714 24.15a1.942 1.942 0 0 1 0 3.884 1.942 1.942 0 0 1 0-3.883M18.233 31.68c.31-.17.513-.37.64-.661q.014-.017.035-.018h1.01c.024.002.044.02.04.047v5.563c0 .023-.014.045-.043.045h-1.12a.04.04 0 0 1-.04-.041v-3.688h-.506q-.037-.003-.04-.041v-1.17q.003-.027.024-.035M27.753 32.362h-.954a.06.06 0 0 0-.062.057v4.313c0 .035.023.063.063.064h.965c.04 0 .064-.03.064-.064q.002-1.404.002-2.811c.429-.41 1.088-.361 1.4.004l.004 2.805a.064.064 0 0 0 .06.066h1.077a.07.07 0 0 0 .06-.06l-.001-2.813c.435-.432 1.007-.383 1.33.002q.002 1.4.003 2.8c-.002.032.012.067.063.07h1.068c.029 0 .064-.022.064-.062l-.001-3.273c-.15-1.096-2.025-1.586-3.052-.738q-.047.041-.083.02c-.513-.473-1.156-.648-1.871-.047-.062.027-.118.043-.138-.05v-.222c.005-.031-.025-.061-.061-.061M22.356 33.378c-.037-1.596 2.3-1.807 2.36-.002v1.47c-.137 1.458-2.231 1.366-2.346.007zm-1.261-.438c.163-2.62 4.56-2.988 4.87-.004l-.002 2.07c-.245 2.883-4.74 2.727-4.868.004zM16.027 36.977c-1.005-1.014-1.984-1.82-2.99-2.834-.07-.068-.064-.141 0-.215l2.993-2.94c.089-.095.285-.048.275.103v5.79c-.012.159-.147.216-.278.096M34.959 36.977c1.005-1.014 1.984-1.82 2.989-2.834.07-.068.065-.141 0-.215l-2.993-2.94c-.09-.095-.284-.048-.274.103v5.79c.012.159.146.216.278.096" clip-rule="evenodd" style="fill-rule:evenodd"/>
</svg>
