<svg xmlns="http://www.w3.org/2000/svg" xml:space="preserve" viewBox="0 0 50.194 50.195" role="img" aria-labelledby="title">
  <title id="title">Verkehrszeichen A-25 - Mão Dupla Adiante</title>
  <path d="M49.09 22.415 27.641 1.089c-1.412-1.405-3.815-1.3-5.337.232l-21 21.121c-1.523 1.532-1.614 3.936-.202 5.339l21.45 21.326c1.412 1.404 3.814 1.3 5.337-.233l21-21.12c1.522-1.532 1.615-3.935.201-5.339" clip-rule="evenodd" style="fill:gold;fill-opacity:1;fill-rule:evenodd;stroke:none"/>
  <path d="M47.708 23.327 26.738 2.478c-.915-.909-2.469-.841-3.456.15L2.615 23.414c-.984.991-1.044 2.546-.13 3.455l20.971 20.85c.914.907 2.468.84 3.453-.151l20.668-20.786c.986-.991 1.045-2.546.131-3.455" clip-rule="evenodd" style="fill:gold;fill-opacity:1;fill-rule:evenodd;stroke:none"/>
  <path stroke-miterlimit="2.613" d="M47.708 23.327 26.738 2.478c-.915-.909-2.469-.841-3.456.15L2.615 23.414c-.984.991-1.044 2.546-.13 3.455l20.971 20.85c.914.907 2.468.84 3.453-.151l20.668-20.786c.986-.991 1.045-2.546.131-3.455z" style="fill:none;stroke:#000;stroke-width:1.63;stroke-miterlimit:2.61299992"/>
  <path d="m30.501 22.009-.063 15.61 4.531.018.06-15.587.29-.005 1.48.864c.671.361 1.476-.408 1.052-1.125l-4.676-7.656c-.27-.421-.664-.436-.94.008l-4.753 7.625c-.38.607.246 1.522 1 1.124l1.861-.972c.081-.031.163-.011.158.096M15.102 29.479l.044-15.61 4.53.013-.046 15.588.291.008 1.482-.856c.677-.354 1.476.419 1.047 1.134l-4.729 7.625c-.273.418-.665.432-.939-.016l-4.7-7.657c-.377-.61.256-1.52 1.007-1.116l1.854.984c.082.03.164.012.16-.097" clip-rule="evenodd" style="fill-rule:evenodd"/>
</svg>
