<svg xmlns="http://www.w3.org/2000/svg" xml:space="preserve" viewBox="0 0 50.491 50.493" role="img" aria-labelledby="title">
  <title id="title">Verkehrszeichen A-44 - Vento lateral</title>
  <path d="M1.11 22.548 22.685 1.094c1.421-1.412 3.836-1.307 5.37.235L49.18 22.575c1.531 1.54 1.623 3.958.203 5.37L27.805 49.4c-1.422 1.41-3.836 1.307-5.37-.234L1.311 27.918c-1.532-1.541-1.623-3.958-.202-5.37" clip-rule="evenodd" style="fill:gold;fill-opacity:1;fill-rule:evenodd;stroke:none"/>
  <path d="M2.501 23.465 23.595 2.492c.92-.914 2.483-.846 3.475.15L47.86 23.55c.99.998 1.05 2.563.131 3.477L26.895 48c-.918.915-2.482.846-3.474-.151L2.632 26.94c-.992-.996-1.05-2.561-.13-3.475" clip-rule="evenodd" style="fill:gold;fill-opacity:1;fill-rule:evenodd;stroke:none"/>
  <path stroke-miterlimit="2.613" d="M2.501 23.465 23.595 2.492c.92-.914 2.483-.846 3.475.15L47.86 23.55c.99.998 1.05 2.563.131 3.477L26.895 48c-.918.915-2.482.846-3.474-.151L2.632 26.94c-.992-.996-1.05-2.561-.13-3.475z" style="fill:none;stroke:#000;stroke-width:1.63;stroke-miterlimit:2.61299992"/>
  <path d="M17.948 19.699c-.126 6.025.052 12.05 2.148 18.078q.235.99-.416.916c-1.127.233-.85 1 .5.834h10.982q.618-.035.083-.334c-2.133-1.176-5.477-1.76-9.5-1.75-2.505-5.881-3.029-11.893-2.648-17.994.832.186 1.664.3 2.496-.083a2.35 2.35 0 0 1 1.665 0c2.543 1.012 4.842.815 6.74-1.333-8.34.136-9.078-1.077-9.569-2.333q1.235-.669 3.078 0c2.763 1.026 5.47.843 8.154.167-1.384-.11-2.688-.137-3.827-.75-2.327-.911-4.75-1.052-7.239-.667 1.135-1.453 2.483-2.714 5.326-1.401 1.592.74 3.234 1.053 4.908.819-.576-.313-1.387-.663-1.876-1.062-.306-.194-.489-.48-.794-.674-4.138-2.15-6.829-1.256-8.646 1.9.044-2.006.492-3.531 1.831-3.998 2.551-.055 5.286-.02 7.836-.075-1.404-.748-3.115-1.41-4.924-1.591-4.958-.337-6.049 2.365-5.74 6.165-2.78-.624-4.053 3.916-.568 5.166" clip-rule="evenodd" style="fill-rule:evenodd"/>
  <path stroke-miterlimit="2.613" d="M17.948 19.699c-.126 6.025.052 12.05 2.148 18.078q.235.99-.416.916c-1.127.233-.85 1 .5.834h10.982q.618-.035.083-.334c-2.133-1.176-5.477-1.76-9.5-1.75-2.505-5.881-3.029-11.893-2.648-17.994.832.186 1.664.3 2.496-.083a2.35 2.35 0 0 1 1.665 0c2.543 1.012 4.842.815 6.74-1.333-8.34.136-9.078-1.077-9.569-2.333q1.235-.669 3.078 0c2.763 1.026 5.47.843 8.154.167-1.384-.11-2.688-.137-3.827-.75-2.327-.911-4.75-1.052-7.239-.667 1.135-1.453 2.483-2.714 5.326-1.401 1.592.74 3.234 1.053 4.908.819-.576-.313-1.387-.663-1.876-1.062-.306-.194-.489-.48-.794-.674-4.138-2.15-6.829-1.256-8.646 1.9.044-2.006.492-3.531 1.831-3.998 2.551-.055 5.286-.02 7.836-.075-1.404-.748-3.115-1.41-4.924-1.591-4.958-.337-6.049 2.365-5.74 6.165-2.78-.624-4.053 3.916-.568 5.166z" style="fill:none;stroke:#000;stroke-width:.155;stroke-miterlimit:2.61299992"/>
  <path d="M18.723 15.233q-.06.38 0 1.003c-.47-.01-.417 1.123-.394 2.188-3.01-.577-1.686-3.941.394-3.191" clip-rule="evenodd" style="fill-rule:evenodd"/>
  <path stroke-miterlimit="2.613" d="M18.723 15.233q-.06.38 0 1.003c-.47-.01-.417 1.123-.394 2.188-3.01-.577-1.686-3.941.394-3.191z" style="fill:none;stroke:#000;stroke-width:.155;stroke-miterlimit:2.61299992"/>
  <path stroke-miterlimit="2.613" d="M31.268 10.07v-.258" style="fill:none;stroke:#000;stroke-width:1.69500005;stroke-miterlimit:2.61299992"/>
  <path stroke-miterlimit="2.613" d="M30.422 9.812h1.693v.259h-1.693z" style="fill:none;stroke:#000;stroke-width:.155;stroke-miterlimit:2.61299992"/>
  <path stroke-miterlimit="2.613" d="M32.404 13.359h2.47" style="fill:none;stroke:#000;stroke-width:.259;stroke-miterlimit:2.61299992"/>
  <path stroke-miterlimit="2.613" d="M32.404 13.228h2.47v.259h-2.47z" style="fill:none;stroke:#000;stroke-width:.155;stroke-miterlimit:2.61299992"/>
  <path stroke-miterlimit="2.613" d="M33.15 15.758h5.056" style="fill:none;stroke:#000;stroke-width:.287;stroke-miterlimit:2.61299992"/>
  <path stroke-miterlimit="2.613" d="M33.15 15.614h5.056v.286H33.15z" style="fill:none;stroke:#000;stroke-width:.155;stroke-miterlimit:2.61299992"/>
  <path stroke-miterlimit="2.613" d="M32.145 18.17h7.756" style="fill:none;stroke:#000;stroke-width:.287;stroke-miterlimit:2.61299992"/>
  <path stroke-miterlimit="2.613" d="M32.145 18.026h7.756v.287h-7.756z" style="fill:none;stroke:#000;stroke-width:.155;stroke-miterlimit:2.61299992"/>
</svg>
