<svg xmlns="http://www.w3.org/2000/svg" xml:space="preserve" viewBox="0 0 50.492 50.492" role="img" aria-labelledby="title">
  <title id="title">Verkehrszeichen A-20b - Aclive Acentuado</title>
  <path d="M49.384 22.546 27.806 1.094c-1.42-1.413-3.836-1.307-5.37.234L1.311 22.575c-1.532 1.541-1.624 3.956-.202 5.37l21.577 21.453c1.42 1.412 3.836 1.307 5.37-.234l21.125-21.246c1.531-1.543 1.623-3.959.203-5.372" clip-rule="evenodd" style="fill:gold;fill-opacity:1;fill-rule:evenodd;stroke:none"/>
  <path d="M47.99 23.463 26.896 2.493c-.92-.915-2.482-.848-3.474.15L2.632 23.551c-.99 1-1.05 2.562-.13 3.476l21.094 20.975c.92.914 2.484.846 3.474-.152l20.79-20.91c.991-.997 1.05-2.562.13-3.477" clip-rule="evenodd" style="fill:gold;fill-opacity:1;fill-rule:evenodd;stroke:none"/>
  <path stroke-miterlimit="2.613" d="M47.99 23.463 26.896 2.493c-.92-.915-2.482-.848-3.474.15L2.632 23.551c-.99 1-1.05 2.562-.13 3.476l21.094 20.975c.92.914 2.484.846 3.474-.152l20.79-20.91c.991-.997 1.05-2.562.13-3.477z" style="fill:none;stroke:#000;stroke-width:1.63;stroke-miterlimit:2.61299992"/>
  <path d="M37.032 32.908 13.886 19.523l-.003 13.379z" clip-rule="evenodd" style="fill-rule:evenodd" transform="translate(.1 .1)"/>
  <path stroke-miterlimit="2.613" d="M37.032 32.908 13.886 19.523l-.003 13.379z" style="fill:none;stroke:#000;stroke-width:.155;stroke-linejoin:round;stroke-miterlimit:2.61299992" transform="translate(.1 .1)"/>
  <path d="M32.531 27.04c.408.22.564.728.346 1.14a.843.843 0 1 1-.346-1.14m.232-.433a1.335 1.335 0 1 1-1.259 2.35 1.335 1.335 0 0 1 1.26-2.35" clip-rule="evenodd" style="fill-rule:evenodd"/>
  <path stroke-miterlimit="2.613" d="M32.531 27.04c.408.22.564.728.346 1.14a.843.843 0 1 1-.346-1.14zm.232-.433a1.335 1.335 0 1 1-1.259 2.35 1.335 1.335 0 0 1 1.26-2.35z" style="fill:none;stroke:#000;stroke-width:.155;stroke-miterlimit:2.61299992"/>
  <path d="M20.761 20.285a.841.841 0 1 1-.794 1.484.841.841 0 0 1 .794-1.484m.23-.434a1.333 1.333 0 1 1-1.254 2.352 1.333 1.333 0 0 1 1.254-2.352" clip-rule="evenodd" style="fill-rule:evenodd"/>
  <path stroke-miterlimit="2.613" d="M20.761 20.285a.841.841 0 1 1-.794 1.484.841.841 0 0 1 .794-1.484zm.23-.434a1.333 1.333 0 1 1-1.254 2.352 1.333 1.333 0 0 1 1.254-2.352z" style="fill:none;stroke:#000;stroke-width:.155;stroke-miterlimit:2.61299992"/>
  <path d="M30.371 19.796q-.512.985-1.02 1.971l4.44 2.565q.803.463.492-.334-.534-1.176-1.07-2.35c-.119-.244-.322-.457-.578-.648q-1.132-.601-2.264-1.204m-5.09-.709c.666-.206 1.332-.408 2.005-.542.488-.06.893.011 1.242.17l1.463.847q-.522.979-1.047 1.957l-3.078-1.647zm-.254-.307-5.994-2.06c-.679.033-1.254.951-.88 1.292l-.134 1.25c-.005.435.305.504.757.406 1.682-1.383 3.812-.105 3.472 1.857-.088.451.16.768.566.995l7.46 4.211q.143-.034.287-.065c.953-1.547 3.834-.76 3.33 1.53q-.12.271.076.45.955.384 1.912.77.143-.27.29-.539.363-.654.73-1.309-.08-.292-.159-.588l-3.133-5.89a.77.77 0 0 0-.283-.267l-4.668-2.51c-.445-.179-.908-.265-1.398-.148z" clip-rule="evenodd" style="fill-rule:evenodd"/>
  <path stroke-miterlimit="2.613" d="M30.371 19.796q-.512.985-1.02 1.971l4.44 2.565q.803.463.492-.334-.534-1.176-1.07-2.35c-.119-.244-.322-.457-.578-.648q-1.132-.601-2.264-1.204zm-5.09-.709c.666-.206 1.332-.408 2.005-.542.488-.06.893.011 1.242.17l1.463.847q-.522.979-1.047 1.957l-3.078-1.647zm-.254-.307-5.994-2.06c-.679.033-1.254.951-.88 1.292l-.134 1.25c-.005.435.305.504.757.406 1.682-1.383 3.812-.105 3.472 1.857-.088.451.16.768.566.995l7.46 4.211q.144-.034.287-.065c.953-1.547 3.834-.76 3.33 1.53q-.12.271.076.45.955.384 1.912.77.143-.27.29-.539.364-.654.73-1.309-.08-.292-.159-.588l-3.133-5.89a.77.77 0 0 0-.283-.267l-4.668-2.51c-.445-.179-.908-.265-1.398-.148z" style="fill:none;stroke:#000;stroke-width:.155;stroke-miterlimit:2.61299992"/>
</svg>
