<svg xmlns="http://www.w3.org/2000/svg" xml:space="preserve" viewBox="0 0 141.388 141.391" role="img" aria-labelledby="title">
  <title id="title">Verkehrszeichen A-3a - Pista Sinuosa à Direita</title>
  <path d="M138.456 63.119 77.88 2.89c-3.99-3.965-10.772-3.67-15.074.657L3.502 63.195c-4.303 4.328-4.559 11.111-.57 15.078l60.575 60.226c3.989 3.966 10.771 3.67 15.074-.656l59.306-59.648c4.301-4.326 4.557-11.111.569-15.076" style="fill:gold;fill-opacity:1;fill-rule:evenodd;stroke:none"/>
  <path d="M134.548 65.694 75.328 6.815c-2.582-2.567-6.971-2.376-9.756.425L7.209 65.94c-2.785 2.8-2.95 7.191-.368 9.757l59.22 58.88c2.58 2.567 6.97 2.375 9.755-.425l58.363-58.7c2.784-2.8 2.95-7.19.37-9.757" style="fill:gold;fill-opacity:1;fill-rule:evenodd;stroke:none"/>
  <path d="M134.548 65.694 75.328 6.815c-2.582-2.567-6.971-2.376-9.756.425L7.209 65.94c-2.785 2.8-2.95 7.191-.368 9.757l59.22 58.88c2.58 2.567 6.97 2.375 9.755-.425l58.363-58.7c2.784-2.8 2.95-7.19.37-9.757z" style="fill:none;stroke:#000;stroke-width:4.57500029;stroke-linecap:butt;stroke-linejoin:miter;stroke-miterlimit:22.9260006;stroke-opacity:1;stroke-dasharray:none"/>
  <path d="m74.947 40.468.005 9.855c.124 1.502.642 2.96 2.03 4.32l7.039 5.936c7.78 5.814 5.162 14.87-.544 17.952-6.769 3.253-13.445 6.44-20.399 9.267-1.801 1.027-1.709 2.648-.014 4.65 7.074 7.077 11.617 12.576 11.663 17.162l.029 14.138-9.57-.001-.003-11.512c-.222-2.53-1.107-3.918-2.32-4.752l-5.41-5.471c-9.431-9.605-8.252-19.857.061-23.72l19.624-7.737c3.895-1.625 1.693-2.787-.512-4.178-9.303-6.46-11.515-11.858-11.378-16.233l.011-9.654-6.103 2.72c-2.877 1.217-4.047-.933-2.763-3.055l12.758-20.187c.753-1.341 1.792-1.325 2.54.095q6.207 10.078 12.417 20.154c1.276 1.876-.83 4.308-3.035 3.048z" style="fill:#000;fill-opacity:1;fill-rule:evenodd;stroke:none"/>
</svg>
