<svg xmlns="http://www.w3.org/2000/svg" xml:space="preserve" viewBox="0 0 50.194 50.196" role="img" aria-labelledby="title">
  <title id="title">Verkehrszeichen A-35 - Cuidado Animais</title>
  <path d="m1.102 22.414 21.45-21.326c1.412-1.404 3.814-1.3 5.336.233l21 21.12c1.525 1.533 1.615 3.936.203 5.34L27.64 49.106c-1.412 1.404-3.813 1.3-5.336-.232l-21-21.12c-1.523-1.533-1.613-3.937-.202-5.34" clip-rule="evenodd" style="fill:gold;fill-opacity:1;fill-rule:evenodd;stroke:none"/>
  <path d="m2.487 23.326 20.97-20.849c.915-.909 2.467-.84 3.453.151l20.666 20.785c.986.992 1.045 2.548.131 3.455l-20.969 20.85c-.914.91-2.468.841-3.454-.15L2.618 26.781c-.987-.99-1.045-2.546-.131-3.455" clip-rule="evenodd" style="fill:gold;fill-opacity:1;fill-rule:evenodd;stroke:none"/>
  <path stroke-miterlimit="2.613" d="m2.487 23.326 20.97-20.849c.915-.909 2.467-.84 3.453.151l20.666 20.785c.986.992 1.045 2.548.131 3.455l-20.969 20.85c-.914.91-2.468.841-3.454-.15L2.618 26.781c-.987-.99-1.045-2.546-.131-3.455z" style="fill:none;stroke:#000;stroke-width:1.63;stroke-miterlimit:2.61299992"/>
  <path d="M13.93 23.014c1.359-.275 2.232.132 2.46 1.442.183.453.334.906.637 1.36q.234 2.843 2.162 3.48c.019.694.022 1.387.256 2.082.01.382.129.73.296 1.061q.17 1.121-.127 2.165l-.552.807q-.092.406.679.341c.6-.064.579-.468.594-.85.144-.184.257-.369.297-.552l-.127-3.27.381-1.105q.213.167.424.255c-.057.594-.033 1.188.17 1.783.176.793.171 1.551.085 2.294a6 6 0 0 1-.085.551l-.382.764c.41.18.82.128 1.231.043q.255-.638.041-1.273l.212-.042-.126-1.486q-.086-1.083-.17-2.166.084-.913.17-1.826c.475-.647 1.561-.43 2.585-.297 2.053.61 3.865.515 5.471-.17q.19-.146.383.043l.721 2.038c.135.344.088.596-.043.808l-1.697 2.76-.848 1.103c-.109.253-.041.406.426.34.271.08.436.027.551-.085.301-.16.34-.546.424-.89q1.271-1.552 2.545-3.1c.457-.7.309-1.602.211-2.379.031-.185.443-.21.68.085.207.721.447 1.442.764 2.166q-.023.848-.043 1.697c-.326.495-.533.951-.857 1.447.014.198-.09.298-.076.496-.197.155-.396.45-.594.604-.115.437.193.561 1.441 0q.15-.36.297-.722c.549.023.607-.653.764-1.188.258-.919.479-1.853.789-2.562a8.2 8.2 0 0 1 .018-2.279c.516-1.16.912-2.32 1.271-3.482l.084 4.501c-.146.083-.188.184-.283.425-.02.141-.033.283.156.424l-.338.256c-.029.452.082.767.211 1.062.031-.175.076-.345.213-.467.309-.21.451-.46.551-.723q-.105-.02-.213-.043c.207-.355.273-.543.043-.89l-.17-4.927q-.042-.639-.084-1.274c.121-1.848.535-4.582-2.672-3.906-.82.144-1.641.095-2.461-.043-2.783-1.088-5.469-1.049-8.14-.849-1.188 0-2.375-.037-3.563-.037a15 15 0 0 0-2.586-.472c-.934-.128-1.774-.218-2.708-.345-.816-.212-1.707-.018-2.509.133-.377-.432-.487-.44-1.032-.465.227.48.347.523.82.804.083.125.069.3-.127.552-.309.257-.585.542-.679.977q-.063.233-.128.467-.422.53-.849 1.063c-.23.438-.313.877-.296 1.315.064.293.179.553.636.595.85-.03 1.638-.216 2.415-.424" clip-rule="evenodd" style="fill-rule:evenodd"/>
  <path stroke-miterlimit="2.613" d="M13.93 23.014c1.359-.275 2.232.132 2.46 1.442.183.453.334.906.637 1.36q.234 2.843 2.162 3.48c.019.694.022 1.387.256 2.082.01.382.129.73.296 1.061q.17 1.121-.127 2.165l-.552.807q-.092.406.679.341c.6-.064.579-.468.594-.85.144-.184.257-.369.297-.552l-.127-3.27.381-1.105q.213.167.424.255c-.057.594-.033 1.188.17 1.783.176.793.171 1.551.085 2.294a6 6 0 0 1-.085.551l-.382.764c.41.18.82.128 1.231.043q.255-.638.041-1.273l.212-.042-.126-1.486q-.086-1.083-.17-2.166.084-.913.17-1.826c.475-.647 1.561-.43 2.585-.297 2.053.61 3.865.515 5.471-.17q.19-.146.383.043l.721 2.038c.135.344.088.596-.043.808l-1.697 2.76-.848 1.103c-.109.253-.041.406.426.34.271.08.436.027.551-.085.301-.16.34-.546.424-.89q1.271-1.552 2.545-3.1c.457-.7.309-1.602.211-2.379.031-.185.443-.21.68.085.207.721.447 1.442.764 2.166q-.023.848-.043 1.697c-.326.495-.533.951-.857 1.447.014.198-.09.298-.076.496-.197.155-.396.45-.594.604-.115.437.193.561 1.441 0q.15-.36.297-.722c.549.023.607-.653.764-1.188.258-.919.479-1.853.789-2.562a8.2 8.2 0 0 1 .018-2.279c.516-1.16.912-2.32 1.271-3.482l.084 4.501c-.146.083-.188.184-.283.425-.02.141-.033.283.156.424l-.338.256c-.029.452.082.767.211 1.062.031-.175.076-.345.213-.467.309-.21.451-.46.551-.723q-.105-.02-.213-.043c.207-.355.273-.543.043-.89l-.17-4.927q-.042-.639-.084-1.274c.121-1.848.535-4.582-2.672-3.906-.82.144-1.641.095-2.461-.043-2.783-1.088-5.469-1.049-8.14-.849-1.188 0-2.375-.037-3.563-.037a15 15 0 0 0-2.586-.472c-.934-.128-1.774-.218-2.708-.345-.816-.212-1.707-.018-2.509.133-.377-.432-.487-.44-1.032-.465.227.48.347.523.82.804.083.125.069.3-.127.552-.309.257-.585.542-.679.977q-.063.233-.128.467-.422.53-.849 1.063c-.23.438-.313.877-.296 1.315.064.293.179.553.636.595.85-.03 1.638-.216 2.415-.424z" style="fill:none;stroke:#000;stroke-width:.155;stroke-linejoin:round;stroke-miterlimit:2.61299992"/>
</svg>
