<svg xmlns="http://www.w3.org/2000/svg" xml:space="preserve" viewBox="0 0 50.493 50.493" role="img" aria-labelledby="title">
  <title id="title">Verkehrszeichen A-42a - Início de Pista Dupla</title>
  <path d="M49.383 27.946 27.806 49.399c-1.422 1.412-3.837 1.307-5.37-.234L1.311 27.919c-1.532-1.541-1.623-3.958-.203-5.372L22.686 1.095c1.42-1.413 3.836-1.308 5.37.233L49.18 22.575c1.534 1.542 1.624 3.957.203 5.37" clip-rule="evenodd" style="fill:gold;fill-opacity:1;fill-rule:evenodd;stroke:none"/>
  <path d="M47.991 27.028 26.896 48c-.919.916-2.483.848-3.476-.15L2.632 26.94c-.992-.996-1.05-2.561-.132-3.475L23.595 2.493c.92-.914 2.482-.847 3.475.15l20.79 20.91c.991.997 1.05 2.56.131 3.475" clip-rule="evenodd" style="fill:gold;fill-opacity:1;fill-rule:evenodd;stroke:none"/>
  <path stroke-miterlimit="2.613" d="M47.991 27.028 26.896 48c-.919.916-2.483.848-3.476-.15L2.632 26.94c-.992-.996-1.05-2.561-.132-3.475L23.595 2.493c.92-.914 2.482-.847 3.475.15l20.79 20.91c.991.997 1.05 2.56.131 3.475z" style="fill:none;stroke:#000;stroke-width:1.63;stroke-miterlimit:2.61299992"/>
  <path d="M36.261 24.02q-.021 1.256-.04 2.51c-.482 3.01-1.415 5.373-3.117 6.797-1.188.723-1.514 3.564-1.473 5.885l-3.314-.008c.315-2.77-.182-5.533 2.358-8.674 1.39-1.256 1.834-2.68 2.117-4.061l.018-2.478q-1.093.472-2.186.943c-1.029.423-1.437-.347-.972-1.098l4.623-7.142c.274-.474.645-.464.905.046l4.343 7.226c.448.674-.313 1.532-1.092 1.075zM22.257 30.636q-.06-1.253-.123-2.506c-.583-2.992-1.595-5.325-3.343-6.69-1.21-.682-1.633-3.511-1.669-5.832l-3.312.118c.407 2.758.003 5.537 2.646 8.59 1.433 1.21 1.924 2.619 2.252 3.99l.102 2.475-2.216-.87c-1.043-.388-1.425.396-.935 1.13q2.43 3.491 4.858 6.982c.291.465.66.443.903-.074l4.1-7.367c.425-.69-.363-1.521-1.128-1.037q-1.068.543-2.135 1.09M29.235 16.486c-.826 3.788-7.023 3.788-7.746 0V8.224h7.746z" clip-rule="evenodd" style="fill-rule:evenodd"/>
  <path stroke-miterlimit="2.613" d="M29.235 16.486c-.826 3.788-7.023 3.788-7.746 0V8.224h7.746z" style="fill:none;stroke:#000;stroke-width:.155;stroke-miterlimit:2.61299992"/>
</svg>
