<svg xmlns="http://www.w3.org/2000/svg" xml:space="preserve" viewBox="0 0 50.492 50.493" role="img" aria-labelledby="title">
  <title id="title">Verkehrszeichen A-9 - Bifurcação em &quot;Y&quot;</title>
  <path d="M49.384 22.548 27.806 1.095c-1.42-1.413-3.836-1.308-5.369.234L1.312 22.574c-1.533 1.54-1.624 3.958-.203 5.372l21.578 21.453c1.42 1.412 3.837 1.307 5.369-.234L49.18 27.918c1.532-1.541 1.624-3.958.204-5.37" clip-rule="evenodd" style="fill:gold;fill-opacity:1;fill-rule:evenodd;stroke:none"/>
  <path d="M47.991 23.465 26.897 2.49c-.92-.913-2.483-.846-3.476.15l-20.79 20.91c-.99.999-1.05 2.563-.13 3.477l21.095 20.975c.919.914 2.482.844 3.474-.152l20.79-20.91c.992-.997 1.051-2.562.131-3.476" clip-rule="evenodd" style="fill:gold;fill-opacity:1;fill-rule:evenodd;stroke:none"/>
  <path stroke-miterlimit="2.613" d="M47.991 23.465 26.897 2.49c-.92-.913-2.483-.846-3.476.15l-20.79 20.91c-.99.999-1.05 2.563-.13 3.477l21.095 20.975c.919.914 2.482.844 3.474-.152l20.79-20.91c.992-.997 1.051-2.562.131-3.476z" style="fill:none;stroke:#000;stroke-width:1.63;stroke-miterlimit:2.61299992"/>
  <path d="m23.05 40.223 4.621.017.054-14.511 8.49-7.823-3.108-3.497-7.891 7.299-7.822-7.268-3.141 3.487 8.851 8.04z" clip-rule="evenodd" style="fill-rule:evenodd" transform="translate(.1 .1)"/>
</svg>
