<svg xmlns="http://www.w3.org/2000/svg" xml:space="preserve" viewBox="0 0 50.492 50.492" role="img" aria-labelledby="title">
  <title id="title">Verkehrszeichen A-11b - Junções Sucessivas Contrárias1ª à Esquerda</title>
  <path d="M1.108 22.547 22.684 1.094c1.424-1.412 3.839-1.307 5.37.234L49.18 22.575c1.532 1.541 1.624 3.957.203 5.37L27.806 49.398c-1.421 1.413-3.837 1.307-5.37-.234L1.31 27.919c-1.531-1.544-1.623-3.959-.203-5.372" clip-rule="evenodd" style="fill:gold;fill-opacity:1;fill-rule:evenodd;stroke:none"/>
  <path d="M2.5 23.464 23.594 2.492c.92-.914 2.484-.847 3.477.151l20.788 20.909c.992.998 1.05 2.562.132 3.475L26.896 48.002c-.92.914-2.483.846-3.476-.152L2.63 26.94c-.991-.997-1.05-2.561-.13-3.476" clip-rule="evenodd" style="fill:gold;fill-opacity:1;fill-rule:evenodd;stroke:none"/>
  <path stroke-miterlimit="2.613" d="M2.5 23.464 23.594 2.492c.92-.914 2.484-.847 3.477.151l20.788 20.909c.992.998 1.05 2.562.132 3.475L26.896 48.002c-.92.914-2.483.846-3.476-.152L2.63 26.94c-.991-.997-1.05-2.561-.13-3.476z" style="fill:none;stroke:#000;stroke-width:1.63;stroke-miterlimit:2.61299992"/>
  <path d="M27.419 26.161V22.69h6.697v-4.598h-6.697v-7.903h-4.623v18.43h-7.257v4.599h7.257v6.972h4.623z" clip-rule="evenodd" style="fill:#000;fill-rule:evenodd;stroke:none" transform="matrix(-1 0 0 1 50.392 .1)"/>
</svg>
