<svg xmlns="http://www.w3.org/2000/svg" xml:space="preserve" viewBox="0 0 50.491 50.492" role="img" aria-labelledby="title">
  <title id="title">Verkehrszeichen A-16 - Bonde</title>
  <path d="M49.383 22.547 27.805 1.094c-1.42-1.412-3.836-1.307-5.368.234L1.312 22.575c-1.532 1.541-1.624 3.957-.203 5.37l21.577 21.453c1.42 1.412 3.837 1.308 5.37-.234L49.18 27.917c1.533-1.541 1.623-3.958.203-5.37" clip-rule="evenodd" style="fill:gold;fill-opacity:1;fill-rule:evenodd;stroke:none"/>
  <path d="M47.986 23.467 26.89 2.493c-.92-.914-2.482-.846-3.474.151l-20.79 20.91c-.991.997-1.05 2.561-.13 3.475l21.095 20.973c.919.914 2.483.848 3.474-.15l20.789-20.909c.99-.998 1.05-2.562.13-3.476" clip-rule="evenodd" style="fill:gold;fill-opacity:1;fill-rule:evenodd;stroke:none"/>
  <path stroke-miterlimit="2.613" d="M47.987 23.467 26.89 2.493c-.92-.914-2.482-.846-3.474.151L2.629 23.554c-.993.998-1.052 2.561-.132 3.475l21.095 20.975c.919.914 2.482.846 3.476-.152l20.788-20.908c.99-.999 1.05-2.563.13-3.477z" style="fill:none;stroke:#000;stroke-width:1.62800002;stroke-miterlimit:2.61299992"/>
  <path d="M27.329 30.745a1.376 1.376 0 1 1-.002 2.751 1.376 1.376 0 0 1 .002-2.751m-6.292 0a1.377 1.377 0 1 1-.002 2.753 1.377 1.377 0 0 1 .002-2.753m10.252 0a1.376 1.376 0 1 1-.002 2.751 1.376 1.376 0 0 1 .002-2.751M20.617 11.156a.27.27 0 1 1 0 .538.27.27 0 0 1 0-.538m-1.542 17h3.29v-6.574h-3.29zm-3.318 0h2.664v-6.574h-2.664zm14.49 0h2.647v-6.574h-2.647zm-3.944 0h3.29v-6.574h-3.29zm-14.491 2.642 1.327.002v-9.219h-1.327zm-1.303-.002h.65v-9.215h-.65zm4.054.004.54-.684v-8.535h-1.31V30.8zm11.086-.722-.583.72-.431.002v-9.219h1.014zm-2.071.722-.56-.707v-8.512h.964V30.8zm12.567-.002-.973.002v-9.219h.973zm2.05-.002-1.397.002v-9.217h1.397zm-5.31-.658 1.168 1.3h4.799l.003-.642h-.007v-9.215h.23l-.97-1.296H27.605v-.001l-.29-.678h-2.332c-.154-.282-.467-.372-.753-.331l-.008.001c-.23.035-.44.155-.537.33H21.38l-.288.675v.004H10.188l-.97 1.296h.637v9.535l-.005.322h4.765l1.169-1.3h6.572l1.168 1.3 1.608-.009 1.168-1.291zm1.222.662-.558-.705v-8.514h.969V30.8zm5.038-1.32h.346v1.988h-.346zm-22.068 1.265a1.376 1.376 0 1 1-.003 2.753 1.376 1.376 0 0 1 .003-2.753m3.662-19.082 3.483 7.613z" clip-rule="evenodd" style="fill-rule:evenodd"/>
  <path stroke-miterlimit="2.613" d="M27.329 30.745a1.376 1.376 0 1 1-.002 2.751 1.376 1.376 0 0 1 .002-2.751zm-6.292 0a1.377 1.377 0 1 1-.002 2.753 1.377 1.377 0 0 1 .002-2.753zm10.252 0a1.376 1.376 0 1 1-.002 2.751 1.376 1.376 0 0 1 .002-2.751zM20.617 11.156a.27.27 0 1 1 0 .538.27.27 0 0 1 0-.538zm-1.542 17h3.29v-6.574h-3.29zm-3.318 0h2.664v-6.574h-2.664zm14.49 0h2.647v-6.574h-2.647zm-3.944 0h3.29v-6.574h-3.29zm-14.491 2.642 1.327.002v-9.219h-1.327zm-1.303-.002h.65v-9.215h-.65zm4.054.004.54-.684v-8.535h-1.31V30.8zm11.086-.722-.583.72-.431.002v-9.219h1.014zm-2.071.722-.56-.707v-8.512h.964V30.8zm12.567-.002-.973.002v-9.219h.973zm2.05-.002-1.397.002v-9.217h1.397zm-5.31-.658 1.168 1.3h4.799l.003-.642h-.007v-9.215h.23l-.97-1.296H27.605v-.001l-.29-.678h-2.332c-.154-.282-.467-.372-.753-.331l-.008.001c-.23.035-.44.155-.537.33H21.38l-.288.675v.004H10.188l-.97 1.296h.637v9.535l-.005.322h4.765l1.169-1.3h6.572l1.168 1.3 1.608-.009 1.168-1.291zm1.222.662-.558-.705v-8.514h.969V30.8zm5.038-1.32h.346v1.988h-.346zm-22.068 1.265a1.376 1.376 0 1 1-.003 2.753 1.376 1.376 0 0 1 .003-2.753zm3.662-19.082 3.483 7.613" style="fill:none;stroke:#000;stroke-width:.155;stroke-miterlimit:2.61299992"/>
  <path d="M36.488 26.154h2.102v4.803h-2.102zM10.163 26.115h1.27v4.842h-1.269zM20.51 11.632l3.548 7.707.256-.089-3.585-7.734z" clip-rule="evenodd" style="fill-rule:evenodd" transform="translate(.1 .099)"/>
  <path stroke-miterlimit="2.613" d="m20.51 11.632 3.548 7.707.256-.089-3.585-7.734z" style="fill:none;stroke:#000;stroke-width:.155;stroke-miterlimit:2.61299992" transform="translate(.1 .099)"/>
</svg>
