<svg xmlns="http://www.w3.org/2000/svg" xml:space="preserve" viewBox="0 0 50.194 50.909" role="img" aria-labelledby="title">
  <title id="title">Verkehrszeichen A-38 - Largura Limitada</title>
  <path d="m1.102 22.734 21.45-21.632c1.412-1.424 3.814-1.316 5.338.237l21 21.422c1.523 1.554 1.613 3.99.202 5.415l-21.45 21.63c-1.412 1.425-3.814 1.319-5.338-.234l-21-21.423c-1.523-1.553-1.614-3.99-.202-5.415" clip-rule="evenodd" style="fill:gold;fill-opacity:1;fill-rule:evenodd;stroke:none"/>
  <path d="m2.487 23.66 20.97-21.148c.914-.922 2.468-.852 3.453.153l20.668 21.083c.985 1.005 1.045 2.582.131 3.504L26.74 48.398c-.915.922-2.47.854-3.456-.152L2.617 27.164c-.985-1.006-1.045-2.583-.13-3.504" clip-rule="evenodd" style="fill:gold;fill-opacity:1;fill-rule:evenodd;stroke:none"/>
  <path stroke-miterlimit="2.613" d="m2.487 23.659 20.97-21.146c.915-.923 2.47-.853 3.453.152l20.667 21.083c.985 1.005 1.046 2.582.132 3.504L26.74 48.398c-.915.922-2.469.854-3.455-.152L2.618 27.164c-.986-1.006-1.046-2.583-.13-3.505z" style="fill:none;stroke:#000;stroke-width:1.64100003;stroke-miterlimit:2.61299992"/>
  <path d="M21.984 33.952h-1.393c-.04.003-.082.024-.088.088v6.435c.001.052.032.095.093.098h1.406c.06 0 .095-.044.097-.096v-4.195c.627-.613 1.59-.54 2.046.005l.004 4.186c0 .053.04.097.088.099h1.572a.094.094 0 0 0 .087-.087v-4.2c.633-.645 1.47-.571 1.941.003l.002 4.18c-.002.047.018.099.094.106h1.56c.042-.002.093-.035.093-.095l-.002-4.886c-.217-1.637-2.955-2.367-4.453-1.102-.044.039-.085.052-.12.029-.749-.706-1.689-.97-2.73-.07-.092.043-.175.063-.203-.071v-.333c.002-.047-.04-.091-.094-.094M9.143 28.472l4.515-4.621c.031-.031.031-.073 0-.104L9.08 19.573c-.047-.052-.114-.015-.118.038l.07 8.815c.006.062.08.08.11.046M40.545 28.434l-4.514-4.62c-.03-.03-.03-.072 0-.104q2.288-2.089 4.575-4.174c.048-.053.115-.016.12.038l-.07 8.815c-.008.065-.078.08-.11.045M15.728 20.475l1.317 1.236a.084.084 0 0 0 .107-.008c.41-.547.977-.863 1.782-.841.842.044 1.427.803.885 1.486-.357 0-.714.009-1.07.009-.05.005-.083.026-.085.085v1.768c0 .054.023.087.078.089l1.14.004c1.358.988.384 2.816-1.813 2.299q-.646-.267-1.149-.972-.064-.09-.138-.027l-1.417 1.064c-.04.036-.054.078-.008.133.724.876 1.601 1.56 2.901 1.72 3.277.478 5.586-2.685 3.278-5.153q-.066-.074 0-.162c.738-1.12.567-2.544-.34-3.286-1.917-1.492-4.474-.795-5.479.44-.026.035-.02.085.011.116M28.188 22.849c-.055-2.384 3.388-2.697 3.476-.001v2.196c-.2 2.175-3.287 2.039-3.453.009zm-1.858-.652c.242-3.912 6.715-4.465 7.172-.007l-.002 3.094c-.36 4.305-6.979 4.07-7.17.005zM24.021 30.308c-.113.282-.422.216-.388-.097l.012-2.566c.396-1.046 1.826-.525 1.636.447z" clip-rule="evenodd" style="fill-rule:evenodd"/>
</svg>
