<svg xmlns="http://www.w3.org/2000/svg" xml:space="preserve" viewBox="0 0 50.492 50.492" role="img" aria-labelledby="title">
  <title id="title">Verkehrszeichen A-20a - Declive Acentuado</title>
  <path d="M49.384 22.547 27.806 1.094c-1.421-1.413-3.837-1.307-5.369.234L1.312 22.575c-1.533 1.541-1.624 3.956-.203 5.37l21.577 21.453c1.422 1.412 3.838 1.307 5.369-.234L49.18 27.918c1.532-1.542 1.624-3.958.204-5.37" clip-rule="evenodd" style="fill:gold;fill-opacity:1;fill-rule:evenodd;stroke:none"/>
  <path d="M47.989 23.466 26.893 2.493c-.92-.915-2.482-.846-3.475.151L2.629 23.554c-.992.996-1.051 2.56-.131 3.475l21.094 20.973c.92.914 2.483.846 3.476-.152l20.789-20.908c.991-.998 1.051-2.562.132-3.476" clip-rule="evenodd" style="fill:gold;fill-opacity:1;fill-rule:evenodd;stroke:none"/>
  <path stroke-miterlimit="2.613" d="M47.989 23.466 26.893 2.493c-.919-.914-2.483-.846-3.475.151L2.629 23.554c-.992.997-1.051 2.561-.131 3.475l21.095 20.975c.919.912 2.482.846 3.475-.154l20.789-20.908c.991-.998 1.05-2.562.132-3.476z" style="fill:none;stroke:#000;stroke-width:1.62800002;stroke-miterlimit:2.61299992"/>
  <path d="M29.576 20.337a.84.84 0 1 1 .887 1.428.84.84 0 0 1-.887-1.428m-.259-.418a1.333 1.333 0 1 1 1.406 2.263 1.333 1.333 0 0 1-1.406-2.263" clip-rule="evenodd" style="fill-rule:evenodd"/>
  <path stroke-miterlimit="2.613" d="M29.576 20.337a.84.84 0 1 1 .887 1.428.84.84 0 0 1-.887-1.428zm-.259-.418a1.333 1.333 0 1 1 1.406 2.263 1.333 1.333 0 0 1-1.406-2.263z" style="fill:none;stroke:#000;stroke-width:.155;stroke-miterlimit:2.61299992"/>
  <path d="M17.834 27.143a.841.841 0 1 1 .886 1.431.841.841 0 0 1-.886-1.43m-.258-.419a1.334 1.334 0 1 1 1.405 2.269 1.334 1.334 0 0 1-1.405-2.269" clip-rule="evenodd" style="fill-rule:evenodd"/>
  <path stroke-miterlimit="2.613" d="M17.834 27.143a.841.841 0 1 1 .886 1.431.841.841 0 0 1-.886-1.43zm-.258-.418a1.334 1.334 0 1 1 1.405 2.269 1.334 1.334 0 0 1-1.405-2.269z" style="fill:none;stroke:#000;stroke-width:.155;stroke-miterlimit:2.61299992"/>
  <path d="m13.082 32.133 23.147-13.386.002 13.38z" clip-rule="evenodd" style="fill-rule:evenodd" transform="translate(.1 .875)"/>
  <path stroke-miterlimit="2.613" d="m13.082 32.133 23.147-13.386.002 13.38z" style="fill:none;stroke:#000;stroke-width:.155;stroke-linejoin:round;stroke-miterlimit:2.61299992" transform="translate(.1 .875)"/>
  <path d="M22.223 18.58q.598.935 1.194 1.871 2.223-1.281 4.446-2.56.802-.465-.042-.595l-2.572-.25c-.271-.018-.556.05-.85.177zm-3.162 4.051c.156-.68.314-1.358.536-2.008.192-.453.456-.767.77-.989q.731-.423 1.466-.844l1.17 1.887-2.968 1.84zm-.392.065-4.785 4.16c-.311.602.196 1.56.678 1.407q.51.37 1.016.742c.374.223.589-.012.73-.453-.356-2.147 1.817-3.352 3.345-2.074.348.301.747.244 1.146.008l7.381-4.349.087-.282c-.861-1.599 1.261-3.699 2.992-2.117q.174.241.425.161l1.627-1.27-.321-.519-.767-1.288-.588-.159-6.668-.236a.8.8 0 0 0-.373.11l-4.51 2.783c-.378.3-.684.655-.828 1.138q-.294 1.119-.587 2.238" clip-rule="evenodd" style="fill-rule:evenodd"/>
  <path stroke-miterlimit="2.613" d="M22.223 18.58q.598.935 1.194 1.871 2.223-1.281 4.446-2.56.802-.465-.042-.595l-2.572-.25c-.271-.018-.556.05-.85.177zm-3.162 4.05c.156-.68.314-1.358.536-2.008.192-.453.456-.767.77-.989q.731-.423 1.466-.844l1.17 1.887-2.968 1.84zm-.392.065-4.785 4.16c-.311.602.196 1.56.678 1.407q.51.37 1.016.742c.374.223.589-.012.73-.453-.356-2.147 1.817-3.352 3.345-2.074.348.301.747.244 1.146.008l7.381-4.349.087-.282c-.861-1.599 1.261-3.699 2.992-2.117q.173.241.425.161l1.627-1.27-.321-.519-.767-1.288-.588-.159-6.668-.236a.8.8 0 0 0-.373.11l-4.51 2.783c-.378.3-.684.655-.828 1.138q-.294 1.119-.587 2.238z" style="fill:none;stroke:#000;stroke-width:.155;stroke-miterlimit:2.61299992"/>
</svg>
