<svg xmlns="http://www.w3.org/2000/svg" xml:space="preserve" viewBox="0 0 50.491 50.494" role="img" aria-labelledby="title">
  <title id="title">Verkehrszeichen A-5a - Curva em &quot;S&quot; à Direita</title>
  <path d="M1.109 22.547 22.686 1.094c1.421-1.412 3.837-1.308 5.37.234l21.123 21.246c1.533 1.541 1.625 3.958.203 5.371L27.806 49.398c-1.422 1.413-3.837 1.31-5.369-.233L1.312 27.918c-1.533-1.542-1.624-3.958-.203-5.37" clip-rule="evenodd" style="fill:gold;fill-opacity:1;fill-rule:evenodd;stroke:none"/>
  <path d="M2.501 23.464 23.596 2.492c.919-.914 2.484-.846 3.474.151l20.791 20.91c.992.996 1.051 2.561.131 3.476L26.896 48.001c-.919.914-2.482.846-3.474-.152L2.632 26.94c-.991-.996-1.05-2.56-.131-3.476" clip-rule="evenodd" style="fill:gold;fill-opacity:1;fill-rule:evenodd;stroke:none"/>
  <path stroke-miterlimit="2.613" d="M2.501 23.464 23.596 2.492c.919-.914 2.484-.846 3.474.151l20.791 20.91c.992.996 1.051 2.561.131 3.476L26.896 48.001c-.919.914-2.482.846-3.474-.152L2.632 26.94c-.991-.996-1.05-2.56-.131-3.476z" style="fill:none;stroke:#000;stroke-width:1.63;stroke-miterlimit:2.61299992"/>
  <path d="m21.069 18.614.012 2.508c.071 2.744 1.351 6.598 4.699 8.568 2.667 1.754 3.786 2.991 4.335 6.673l3.545-.003c-.268-3.805-1.934-6.957-5.219-9.22-2.816-1.628-3.88-3.696-3.931-6.04l.009-2.479 2.175.968c1.024.434 1.44-.332.983-1.088l-4.543-7.19c-.269-.478-.639-.473-.905.033l-4.423 7.18c-.455.668.295 1.534 1.081 1.086z" clip-rule="evenodd" style="fill-rule:evenodd;stroke:none;fill:#000"/>
</svg>
