<svg xmlns="http://www.w3.org/2000/svg" xmlns:xlink="http://www.w3.org/1999/xlink" xml:space="preserve" viewBox="0 0 50.908 50.195" role="img" aria-labelledby="title">
  <title id="title">Verkehrszeichen A-24 - Obras</title>
  <path d="M49.791 22.415 28.036 1.089c-1.434-1.405-3.869-1.3-5.415.233L1.322 22.442c-1.545 1.532-1.639 3.934-.205 5.338l21.756 21.326c1.433 1.405 3.87 1.3 5.415-.231l21.3-21.121c1.543-1.532 1.635-3.935.203-5.34" clip-rule="evenodd" style="fill:#ef7c23;fill-rule:evenodd;stroke:none;fill-opacity:1"/>
  <path d="M48.387 23.327 27.12 2.477c-.928-.908-2.504-.84-3.504.15L2.653 23.415c-1 .99-1.06 2.546-.132 3.455l21.27 20.849c.926.909 2.502.84 3.502-.15l20.963-20.785c1-.992 1.06-2.547.131-3.456" clip-rule="evenodd" style="fill:#ef7c23;fill-rule:evenodd;stroke:none;fill-opacity:1"/>
  <g transform="translate(.1 .1)">
    <defs>
      <path id="a" d="M-3.42-3.542h57.297v56.693H-3.42z"/>
    </defs>
    <clipPath id="b">
      <use xlink:href="#a" width="50.708" height="49.996" overflow="visible" style="overflow:visible"/>
    </clipPath>
    <path stroke-miterlimit="22.926" d="m48.287 23.228-21.27-20.85c-.926-.91-2.502-.841-3.502.15L2.552 23.314c-1 .991-1.059 2.546-.132 3.455l21.27 20.849c.927.908 2.503.841 3.503-.15l20.963-20.785c1-.992 1.059-2.547.131-3.455z" clip-path="url(#b)" style="fill:none;stroke:#000;stroke-width:1.64100003;stroke-miterlimit:22.9260006"/>
  </g>
  <path d="M23.345 11.019c1.422 0 2.576 1.137 2.576 2.539s-1.154 2.539-2.576 2.539-2.576-1.137-2.576-2.54c0-1.401 1.153-2.538 2.576-2.538M27.166 15.392l-4.475 2.604c-.296.207-.52.458-.633.77l-1.307 5.418-1.2 3.066c-.26.529.757 1.197 1.21.438l1.402-3.385.928-3.5 1.65 5.268-1.974 5.91v6.682c-.066 1.69 1.763 2.367 2.1 0l.12-6.563 1.977-3.421 1.775 6.166 1.936 3.859c.996 1.796 2.635.92 1.896-.877l-1.654-4.732-.564-6.604-1.896-8.67 3.066 1.352v2.983c-.012 1.103 1.514 1.199 1.654 0l.04-3.461-5.083-3.221c-.358-.14-.686-.18-.968-.082" clip-rule="evenodd" style="fill-rule:evenodd"/>
  <path d="m12.018 29.971 24.148-8.712.162.435-24.149 8.712z" clip-rule="evenodd" style="fill-rule:evenodd" transform="translate(.1 .1)"/>
  <path d="M16.6 28.57c-2.02-.815-3.619-.663-4.293 1.618q2.145-.81 4.292-1.617" clip-rule="evenodd" style="fill-rule:evenodd"/>
</svg>
