<svg xmlns="http://www.w3.org/2000/svg" xml:space="preserve" viewBox="0 0 141.388 141.391" role="img" aria-labelledby="title">
  <title id="title">Verkehrszeichen A-3b - Pista Sinuosa à Esquerda</title>
  <path d="M2.932 63.119 63.507 2.89c3.989-3.965 10.771-3.67 15.074.657l59.305 59.647c4.302 4.328 4.559 11.111.57 15.078L77.88 138.499c-3.989 3.966-10.771 3.67-15.074-.656L3.501 78.195C-.8 73.87-1.057 67.084 2.932 63.12" style="fill:gold;fill-opacity:1;fill-rule:evenodd;stroke:none"/>
  <path d="M6.84 65.694 66.06 6.815c2.582-2.567 6.97-2.376 9.756.425l58.362 58.699c2.785 2.8 2.952 7.191.369 9.757l-59.22 58.88c-2.581 2.567-6.971 2.375-9.755-.425l-58.364-58.7c-2.783-2.8-2.95-7.19-.368-9.757" style="fill:gold;fill-opacity:1;fill-rule:evenodd;stroke:none"/>
  <path d="M6.84 65.694 66.06 6.815c2.582-2.567 6.97-2.376 9.756.425l58.362 58.699c2.785 2.8 2.952 7.191.369 9.757l-59.22 58.88c-2.581 2.567-6.971 2.375-9.755-.425l-58.364-58.7c-2.783-2.8-2.95-7.19-.368-9.757z" style="fill:none;stroke:#000;stroke-width:4.57500029;stroke-linecap:butt;stroke-linejoin:miter;stroke-miterlimit:22.9260006;stroke-opacity:1;stroke-dasharray:none"/>
  <path d="m66.44 40.468-.004 9.855c-.124 1.502-.643 2.96-2.03 4.32l-7.039 5.936c-7.78 5.814-5.162 14.87.544 17.952 6.769 3.253 13.445 6.44 20.399 9.267 1.8 1.027 1.708 2.648.013 4.65-7.073 7.077-11.616 12.576-11.662 17.162l-.029 14.138 9.57-.001.003-11.512c.222-2.53 1.107-3.918 2.32-4.752l5.41-5.471c9.43-9.605 8.252-19.857-.062-23.72q-9.81-3.87-19.623-7.737c-3.895-1.625-1.693-2.787.512-4.178 9.303-6.46 11.515-11.858 11.378-16.233l-.012-9.654 6.104 2.72c2.876 1.217 4.046-.933 2.763-3.055L72.237 19.968c-.754-1.341-1.792-1.325-2.54.095L57.28 40.217c-1.277 1.876.83 4.308 3.035 3.048z" style="fill:#000;fill-opacity:1;fill-rule:evenodd;stroke:none"/>
</svg>
