<svg xmlns="http://www.w3.org/2000/svg" xml:space="preserve" viewBox="0 0 50.193 50.911" role="img" aria-labelledby="title">
  <title id="title">Verkehrszeichen A-28 - Pista Escorregadia</title>
  <path d="M49.09 22.733 27.641 1.103c-1.412-1.425-3.814-1.319-5.337.235l-21 21.423c-1.523 1.554-1.614 3.99-.202 5.414l21.45 21.633c1.412 1.424 3.814 1.318 5.338-.236l21-21.422c1.522-1.555 1.612-3.993.2-5.417" clip-rule="evenodd" style="fill:gold;fill-opacity:1;fill-rule:evenodd;stroke:none"/>
  <path d="M47.707 23.658 26.737 2.511c-.912-.922-2.47-.853-3.454.152L2.617 23.746c-.986 1.005-1.045 2.583-.13 3.505l20.97 21.146c.912.922 2.468.855 3.454-.152l20.666-21.082c.984-1.006 1.044-2.583.13-3.505" clip-rule="evenodd" style="fill:gold;fill-opacity:1;fill-rule:evenodd;stroke:none"/>
  <path stroke-miterlimit="2.613" d="M47.707 23.658 26.737 2.511c-.914-.92-2.47-.852-3.454.153L2.616 23.747c-.986 1.005-1.044 2.582-.13 3.504l20.97 21.146c.913.924 2.47.854 3.455-.152l20.666-21.082c.984-1.006 1.043-2.583.13-3.505z" style="fill:none;stroke:#000;stroke-width:1.64100003;stroke-miterlimit:2.61299992"/>
  <path d="M18.32 15.485c4.38-.465 8.745-.43 13.1.018 1.09.071 1.256.84 1.428 1.657.162.896.137 2.078-.188 3.027-.143.456-.447.751-.867.76l-13.749-.003c-.573.01-.877-.304-1.028-.755-.302-.794-.258-2.018-.18-3.027.158-1.298.83-1.652 1.483-1.677" clip-rule="evenodd" style="fill-rule:evenodd"/>
  <path d="M30.653 14.551a71.3 71.3 0 0 0-11.747-.002c-.015 0-.013-.012-.01-.024l.794-2.283c.03-.085.077-.145.155-.17 3.261-.34 6.635-.394 9.772-.037a.28.28 0 0 1 .258.207l.8 2.293c.003.01 0 .016-.022.016m-12.753.47c-.024.117.024.29.202.322 4.551-.437 8.99-.389 13.326.018.262.035.371-.177.322-.353-.338-1.232-.68-2.453-1.018-3.685-.053-.166-.148-.302-.404-.336-3.627-.378-7.289-.464-11.005 0-.185.023-.354.13-.406.338zM17.66 21.074h14.405c.67 0 .73 1.06 0 1.06H17.66c-.729 0-.67-1.06 0-1.06M29.336 22.514c-.053.005-.088.036-.09.086v1.954c.002.271.205.447.475.458h1.205c.213-.014.477-.134.473-.458V22.6c0-.047-.033-.084-.09-.086zM20.36 22.514c.053.005.086.036.09.086v1.954c-.002.271-.206.447-.476.458h-1.203c-.215-.014-.478-.134-.474-.458V22.6c.001-.047.034-.084.09-.086zM20.016 26.157l-1.547-.002-1.396 1.256c-.516.623-.306 1.17.968 1.6l2.87 1.066q.76.384.131 1.242c-1.824 2.012-3.648 4.057-5.473 6.068l4.43-.02c1.287-1.805 2.672-3.873 3.96-5.676.512-.91.182-1.977-1.105-2.516q-2.08-.584-4.16-1.172-.344-.226-.055-.52.69-.662 1.377-1.326" clip-rule="evenodd" style="fill-rule:evenodd"/>
  <path stroke-miterlimit="2.613" d="m20.016 26.157-1.548-.002-1.396 1.256c-.515.623-.305 1.17.968 1.6l2.871 1.066q.76.384.131 1.242c-1.824 2.012-3.648 4.057-5.473 6.068l4.43-.02c1.287-1.805 2.671-3.87 3.96-5.676.511-.91.181-1.977-1.108-2.516q-2.077-.584-4.158-1.172-.344-.226-.056-.52.69-.662 1.38-1.326z" style="fill:none;stroke:#000;stroke-width:.156;stroke-miterlimit:2.61299992"/>
  <path d="M31.295 25.927h-1.498c-.406.498-.832 1.11-1.238 1.605-.414.73-.12 1.277 1.193 1.436.998.207 1.98.254 2.977.461.54.176.66.738.33 1.37l-3.658 6.616 4.346-.02 1.852-6.67c.492-1.543-.314-2.063-1.389-2.369-1.428-.176-2.53-.307-3.959-.482q-.375-.17-.13-.506c.387-.508.784-.934 1.174-1.44" clip-rule="evenodd" style="fill-rule:evenodd"/>
  <path stroke-miterlimit="2.613" d="M31.293 25.927h-1.496c-.406.498-.832 1.11-1.238 1.605-.414.73-.12 1.277 1.193 1.434.998.21 1.98.254 2.977.463.54.176.66.738.332 1.37l-3.658 6.616 4.344-.02 1.854-6.668c.49-1.545-.316-2.064-1.39-2.37-1.429-.177-2.532-.308-3.96-.483q-.376-.17-.133-.506c.39-.508.787-.934 1.175-1.44z" style="fill:none;stroke:#000;stroke-width:.156;stroke-miterlimit:2.61299992"/>
</svg>
