<svg xmlns="http://www.w3.org/2000/svg" xml:space="preserve" viewBox="0 0 141.388 141.391" role="img" aria-labelledby="title">
  <title id="title">Verkehrszeichen A-1a - Curva Acentuada à Esquerda</title>
  <path d="M138.456 63.119 77.88 2.89c-3.99-3.965-10.772-3.67-15.074.657L3.502 63.195c-4.303 4.328-4.559 11.111-.57 15.078l60.575 60.226c3.989 3.966 10.771 3.67 15.074-.656l59.306-59.648c4.301-4.326 4.557-11.111.569-15.076" style="fill:gold;fill-opacity:1;fill-rule:evenodd;stroke:none"/>
  <path d="M134.548 65.694 75.328 6.815c-2.582-2.567-6.971-2.376-9.756.425L7.209 65.94c-2.785 2.8-2.95 7.191-.368 9.757l59.22 58.88c2.58 2.567 6.97 2.375 9.755-.425l58.363-58.7c2.784-2.8 2.95-7.19.37-9.757" style="fill:gold;fill-opacity:1;fill-rule:evenodd;stroke:none"/>
  <path d="M134.548 65.694 75.328 6.815c-2.582-2.567-6.971-2.376-9.756.425L7.209 65.94c-2.785 2.8-2.95 7.191-.368 9.757l59.22 58.88c2.58 2.567 6.97 2.375 9.755-.425l58.363-58.7c2.784-2.8 2.95-7.19.37-9.757z" style="fill:none;stroke:#000;stroke-width:4.57500029;stroke-linecap:butt;stroke-linejoin:miter;stroke-miterlimit:22.9260006;stroke-opacity:1;stroke-dasharray:none"/>
  <path d="m62.366 59.815 16.798.01c.398-.005.673.103.678.46l.054 42.964 11.435-.002-.04-48.366c-.195-4.985-1.703-6.434-8.127-6.278l-20.993.006 2.447-5.32c1.225-2.875-.922-4.05-3.047-2.77L41.356 53.23c-1.344.75-1.329 1.788.09 2.54L61.57 68.233c1.872 1.28 4.31-.82 3.056-3.029z" style="fill:#000;fill-opacity:1;fill-rule:evenodd;stroke:none"/>
</svg>
