<svg xmlns="http://www.w3.org/2000/svg" xml:space="preserve" viewBox="0 0 50.204 36.264" role="img" aria-labelledby="title">
  <title id="title">Verkehrszeichen A-41 - Cruz de Sto. André</title>
  <path d="M13.409 14.816.598 9.415 4.457.153l20.99 9.108L46.438 0l3.947 9.303-12.14 5.51 12.357 5.029-4.17 9.322-20.713-9.368-21.261 9.337-3.854-8.866z" clip-rule="evenodd" style="fill:gold;fill-opacity:1;fill-rule:evenodd;stroke:none" transform="translate(-.498 .1)"/>
  <path d="m5.169 1.867 20.423 9.121 20.116-8.947.562 1.309-20.711 9.198L4.654 3.213z" clip-rule="evenodd" style="fill-rule:evenodd" transform="translate(-.498 .1)"/>
  <path stroke-miterlimit="2.613" d="m46.27 3.35-20.711 9.198L4.654 3.213l.515-1.346 20.423 9.121 20.116-8.947z" style="fill:none;stroke:#000;stroke-width:.149;stroke-miterlimit:2.61299992" transform="translate(-.498 .1)"/>
  <path d="m3.18 7.07 17.296 7.738-17.315 7.648-.53-1.227 14.434-6.419L2.648 8.393z" clip-rule="evenodd" style="fill-rule:evenodd" transform="translate(-.498 .1)"/>
  <path stroke-miterlimit="2.613" d="m2.631 21.229 14.434-6.419L2.648 8.393 3.18 7.07l17.296 7.738-17.315 7.648z" style="fill:none;stroke:#000;stroke-width:.149;stroke-miterlimit:2.61299992" transform="translate(-.498 .1)"/>
  <path d="M47.887 7.087 30.68 14.788l17.343 7.661.502-1.238-14.434-6.42L48.43 8.399z" clip-rule="evenodd" style="fill-rule:evenodd" transform="translate(-.498 .1)"/>
  <path stroke-miterlimit="2.613" d="m48.525 21.211-14.434-6.42L48.43 8.399l-.543-1.312-17.207 7.701 17.343 7.661z" style="fill:none;stroke:#000;stroke-width:.149;stroke-miterlimit:2.61299992" transform="translate(-.498 .1)"/>
  <path d="m5.194 27.307 20.398-9.025 20.288 9.026.525-1.322-20.846-9.262-20.863 9.281z" clip-rule="evenodd" style="fill-rule:evenodd" transform="translate(-.498 .1)"/>
  <path stroke-miterlimit="2.613" d="m46.405 25.986-20.846-9.262-20.863 9.281.498 1.302 20.398-9.025 20.288 9.026z" style="fill:none;stroke:#000;stroke-width:.149;stroke-miterlimit:2.61299992" transform="translate(-.498 .1)"/>
  <path d="M17.707 31.615h5.001l.017-6.408c.037-.223.17-.299.348-.307l4.326-.003q.305.012.315.316-.012 3.203-.022 6.401h5.356c.32-.003.298.548.298 4.079.006.142-.076.23-.295.233H17.709c-.22-.005-.28-.104-.281-.237v-3.79c.002-.219.12-.28.279-.284" clip-rule="evenodd" style="fill:gold;fill-rule:evenodd;fill-opacity:1"/>
  <path stroke-miterlimit="2.613" d="M17.707 31.615h5.001l.017-6.408c.037-.223.17-.299.348-.307l4.326-.003q.305.012.315.316-.012 3.203-.022 6.401h5.356c.32-.003.298.548.298 4.079.006.142-.076.23-.295.233H17.709c-.22-.005-.28-.104-.281-.237v-3.79c.002-.219.12-.28.279-.284z" style="fill:none;stroke:#000;stroke-width:.345;stroke-miterlimit:2.61299992"/>
</svg>
