<svg xmlns="http://www.w3.org/2000/svg" xml:space="preserve" viewBox="0 0 50.491 50.492" role="img" aria-labelledby="title">
  <title id="title">Verkehrszeichen A-43 - Aeroporto</title>
  <path d="m1.11 22.546 21.576-21.45c1.421-1.414 3.837-1.31 5.37.231L49.18 22.574c1.532 1.541 1.623 3.957.203 5.37L27.806 49.398c-1.42 1.412-3.837 1.307-5.369-.235L1.311 27.917c-1.532-1.542-1.623-3.958-.202-5.37" clip-rule="evenodd" style="fill:gold;fill-opacity:1;fill-rule:evenodd;stroke:none"/>
  <path d="M2.501 23.464 23.595 2.491c.92-.915 2.484-.846 3.475.151L47.86 23.55c.992.997 1.051 2.562.131 3.477L26.896 48c-.919.914-2.482.847-3.475-.15L2.632 26.94c-.99-.998-1.05-2.562-.13-3.476" clip-rule="evenodd" style="fill:gold;fill-opacity:1;fill-rule:evenodd;stroke:none"/>
  <path stroke-miterlimit="2.613" d="M2.501 23.464 23.595 2.491c.92-.915 2.484-.846 3.475.151L47.86 23.55c.992.997 1.051 2.562.131 3.477L26.896 48c-.919.914-2.482.847-3.475-.15L2.632 26.94c-.99-.998-1.05-2.562-.13-3.476z" style="fill:none;stroke:#000;stroke-width:1.63;stroke-miterlimit:2.61299992"/>
  <path d="M21.977 18.93 9.76 24.131c-.583.388-.836.916-.866 1.541l.007 1.735 13.751-2.216v7.091l.673.327.002 3.37-4.33 2.12v1.251h4.616l.005.675h2.996v-.675h4.514v-1.259l-4.242-2.112v-3.377l.646-.325.11-7.082 13.46 2.208-.002-1.729c.02-.729-.34-1.234-.989-1.57l-12.054-5.172-1.172-9.636c-.583-1.912-2.938-1.866-3.464 0z" clip-rule="evenodd" style="fill-rule:evenodd"/>
  <path stroke-miterlimit="2.613" d="M21.977 18.93 9.76 24.131c-.583.388-.836.916-.866 1.541l.007 1.735 13.751-2.216v7.091l.673.327.002 3.37-4.33 2.12v1.251h4.616l.005.675h2.996v-.675h4.514v-1.259l-4.242-2.112v-3.377l.646-.325.11-7.082 13.46 2.208-.002-1.729c.02-.729-.34-1.234-.989-1.57l-12.054-5.172-1.172-9.636c-.583-1.912-2.938-1.866-3.464 0z" style="fill:none;stroke:#000;stroke-width:.155;stroke-miterlimit:2.61299992"/>
</svg>
