<svg xmlns="http://www.w3.org/2000/svg" xml:space="preserve" viewBox="0 0 50.492 50.493" role="img" aria-labelledby="title">
  <title id="title">Verkehrszeichen A-8 - Bifurcação em &quot;T&quot;</title>
  <path d="M49.384 22.547 27.806 1.094c-1.42-1.412-3.836-1.308-5.369.234L1.312 22.575c-1.533 1.541-1.624 3.958-.203 5.371L22.686 49.4c1.421 1.412 3.836 1.307 5.37-.234l21.125-21.247c1.531-1.542 1.623-3.959.203-5.37" clip-rule="evenodd" style="fill:gold;fill-opacity:1;fill-rule:evenodd;stroke:none"/>
  <path d="M47.992 23.464 26.898 2.492c-.92-.914-2.483-.846-3.475.151L2.633 23.551c-.991.998-1.05 2.563-.131 3.477l21.094 20.974c.92.914 2.484.845 3.474-.15l20.789-20.91c.994-.998 1.053-2.564.133-3.478" clip-rule="evenodd" style="fill:gold;fill-opacity:1;fill-rule:evenodd;stroke:none"/>
  <path stroke-miterlimit="2.613" d="M47.992 23.464 26.898 2.492c-.92-.914-2.483-.846-3.475.151L2.633 23.551c-.991.998-1.05 2.563-.131 3.477l21.094 20.974c.92.914 2.484.845 3.474-.15l20.789-20.91c.994-.998 1.053-2.564.133-3.478z" style="fill:none;stroke:#000;stroke-width:1.63;stroke-miterlimit:2.61299992"/>
  <path d="m22.631 41.271 4.622.015.055-15.438 13.343.047.016-4.623-31.375-.11-.016 4.622 13.41.046z" clip-rule="evenodd" style="fill-rule:evenodd" transform="translate(.1 .1)"/>
</svg>
