<svg xmlns="http://www.w3.org/2000/svg" xml:space="preserve" viewBox="0 0 50.491 50.493" role="img" aria-labelledby="title">
  <title id="title">Verkehrszeichen A-42b - Fim de Pista Dupla</title>
  <path d="M1.108 22.547 22.685 1.094c1.422-1.413 3.837-1.307 5.37.234L49.18 22.575c1.531 1.54 1.624 3.957.202 5.37L27.806 49.398c-1.42 1.413-3.837 1.307-5.37-.234L1.312 27.918c-1.533-1.542-1.624-3.958-.204-5.37" clip-rule="evenodd" style="fill:gold;fill-rule:evenodd;stroke:none;fill-opacity:1"/>
  <path d="M2.5 23.464 23.595 2.492c.92-.915 2.482-.847 3.475.151l20.79 20.908c.991.998 1.05 2.562.131 3.476L26.896 48.001c-.919.914-2.483.846-3.476-.152L2.631 26.94c-.99-.997-1.05-2.56-.13-3.476" clip-rule="evenodd" style="fill:gold;fill-rule:evenodd;stroke:none;fill-opacity:1"/>
  <path stroke-miterlimit="2.613" d="M2.5 23.464 23.595 2.492c.92-.915 2.482-.847 3.475.151l20.79 20.908c.991.998 1.05 2.562.131 3.476L26.896 48.001c-.919.914-2.483.846-3.476-.152L2.631 26.94c-.99-.997-1.05-2.56-.13-3.476z" style="fill:none;stroke:#000;stroke-width:1.63;stroke-miterlimit:2.61299992"/>
  <path d="M14.231 26.472q.018-1.255.04-2.509c.48-3.01 1.414-5.375 3.117-6.797 1.187-.723 1.514-3.563 1.472-5.885l3.313.007c-.313 2.771.183 5.535-2.356 8.674-1.39 1.257-1.835 2.681-2.118 4.062l-.017 2.48 2.184-.946c1.03-.422 1.438.35.973 1.1l-4.623 7.14c-.274.476-.644.465-.904-.044l-4.345-7.227c-.446-.673.313-1.53 1.094-1.074q1.084.507 2.17 1.02M28.236 19.857l.122 2.506c.583 2.992 1.594 5.324 3.343 6.69 1.211.682 1.633 3.511 1.668 5.83l3.313-.118c-.408-2.757-.003-5.536-2.647-8.59-1.432-1.21-1.923-2.617-2.252-3.986l-.1-2.478 2.215.871c1.043.388 1.425-.396.935-1.13l-4.858-6.982c-.29-.466-.659-.443-.903.074l-4.1 7.368c-.425.688.362 1.521 1.13 1.037zM21.255 34.006c.827-3.787 7.023-3.787 7.746 0v8.263h-7.746z" clip-rule="evenodd" style="fill-rule:evenodd"/>
  <path stroke-miterlimit="2.613" d="M21.255 34.006c.827-3.787 7.023-3.787 7.746 0v8.263h-7.746z" style="fill:none;stroke:#000;stroke-width:.155;stroke-miterlimit:2.61299992"/>
</svg>
