<svg xmlns="http://www.w3.org/2000/svg" xml:space="preserve" viewBox="0 0 50.194 50.194" role="img" aria-labelledby="title">
  <title id="title">Verkehrszeichen A-21a - Estreitamento de Pista ao Centro</title>
  <path d="M49.09 22.415 27.64 1.089c-1.411-1.404-3.812-1.3-5.336.232l-21 21.12c-1.522 1.533-1.614 3.935-.201 5.339l21.449 21.326c1.412 1.404 3.816 1.299 5.337-.23l21-21.123c1.524-1.531 1.616-3.934.202-5.338" clip-rule="evenodd" style="fill:gold;fill-opacity:1;fill-rule:evenodd;stroke:none"/>
  <path d="m47.708 23.327-20.97-20.85c-.915-.908-2.47-.841-3.454.15L2.618 23.415c-.986.992-1.045 2.546-.131 3.456l20.97 20.849c.914.91 2.468.842 3.455-.15l20.666-20.785c.983-.993 1.044-2.55.13-3.457" clip-rule="evenodd" style="fill:gold;fill-opacity:1;fill-rule:evenodd;stroke:none"/>
  <path stroke-miterlimit="2.613" d="m47.708 23.327-20.97-20.85c-.915-.908-2.47-.841-3.454.15L2.618 23.415c-.986.992-1.045 2.546-.131 3.456l20.97 20.849c.914.91 2.468.842 3.455-.15l20.666-20.785c.983-.993 1.044-2.55.13-3.457z" style="fill:none;stroke:#000;stroke-width:1.63;stroke-miterlimit:2.61299992"/>
  <path d="M18.847 9.739h4.152v10.698l-.002 2.132-3.864 3.882v9.488h-4.152V24.055h.053l3.813-3.567zM31.765 9.739h-4.151v10.698l.002 2.132 3.862 3.882v9.488h4.152V24.055h-.051l-3.814-3.567z" clip-rule="evenodd" style="fill-rule:evenodd" transform="translate(-.05 .1)"/>
</svg>
