<svg xmlns="http://www.w3.org/2000/svg" xml:space="preserve" viewBox="0 0 50.908 50.91" role="img" aria-labelledby="title">
  <title id="title">Verkehrszeichen A-21c - Estreitamento de Pista à Direita</title>
  <path d="M1.116 22.734 22.872 1.102c1.432-1.424 3.868-1.318 5.413.236l21.301 21.423c1.545 1.554 1.638 3.991.204 5.415L28.034 49.807c-1.432 1.424-3.868 1.318-5.414-.236L1.32 28.15c-1.543-1.556-1.636-3.99-.204-5.415" clip-rule="evenodd" style="fill:gold;fill-opacity:1;fill-rule:evenodd;stroke:none"/>
  <path d="M2.52 23.658 23.79 2.511c.926-.922 2.503-.853 3.503.153l20.961 21.082c1 1.006 1.061 2.583.133 3.505l-21.27 21.146c-.927.922-2.504.854-3.504-.152L2.653 27.163c-1-1.006-1.06-2.583-.133-3.505" clip-rule="evenodd" style="fill:gold;fill-opacity:1;fill-rule:evenodd;stroke:none"/>
  <path stroke-miterlimit="2.613" d="M2.52 23.658 23.79 2.511c.926-.922 2.503-.853 3.503.153l20.961 21.082c1 1.006 1.061 2.583.133 3.505l-21.27 21.146c-.927.922-2.504.854-3.504-.152L2.653 27.163c-1-1.006-1.06-2.583-.133-3.505z" style="fill:none;stroke:#000;stroke-width:1.653;stroke-miterlimit:2.61299992"/>
  <path d="M19.963 12.311h4.211v10.851l-.001 2.163-3.919 3.937v9.623h-4.211V26.832h.053l3.867-3.618z" clip-rule="evenodd" style="fill-rule:evenodd" transform="matrix(-1 0 0 1 50.808 .1)"/>
  <path d="M22.565 12.412h-4.211v26.574h4.211z"/>
</svg>
