<svg xmlns="http://www.w3.org/2000/svg" viewBox="0 0 525.477 525.477" role="img" aria-labelledby="title">
  <title id="title">Verkehrszeichen R-37 - Proibido trânsito de motocicletas, motonetas e ciclomotores</title>
  <g style="display:inline">
    <path d="M274.647.508C129.372-6.089 7.106 105.556.509 250.832c-6.598 145.273 105.046 267.54 250.321 274.137 145.274 6.598 267.541-105.046 274.138-250.321C531.566 129.372 419.922 7.107 274.647.508" style="display:inline;fill:#c50000" transform="translate(.188 .188)scale(.99929)"/>
    <path d="M272.378 50.458C155.138 45.134 55.78 135.859 50.457 253.099c-5.324 117.24 85.401 216.597 202.642 221.921 117.239 5.324 216.596-85.401 221.921-202.642 5.324-117.239-85.401-216.596-202.642-221.92" style="display:inline;fill:#fff" transform="translate(.188 .188)scale(.99929)"/>
  </g>
  <g style="display:inline">
    <path d="M67.906 676.773c-16.312-3.672-26.16-8.781-37.137-19.269-13.035-12.454-19.326-24.363-22.471-42.54-3.82-22.079 3.178-45.626 18.405-61.929 14.85-15.898 33.337-23.904 55.203-23.904 9.406 0 19.904 1.766 27 4.542 1.552.607 3.354-2.302 14.678-23.686l5.178-9.778-2.55-1.671c-3.202-2.098-10.19-3.114-22.056-3.208l-9.25-.073V450.39l9.958-.317 9.957-.316 17.793 18.6c22.084 23.089 101.126 104.806 118.5 122.513l12.868 13.113-4.288.632c-2.358.347-12.421.927-22.361 1.288-16.703.606-18.608.494-25.13-1.487-12.246-3.72-23.763-13.996-29.663-26.467-3.559-7.523-4.092-13.543-2.172-24.535 2.446-14.006 1.293-16.028-15.962-27.985-3.3-2.286-9.706-6.854-14.236-10.15l-8.237-5.993-1.763 2.678c-.97 1.474-4.914 8.555-8.764 15.736l-7 13.057 9 9c15.583 15.583 21.454 28.925 22.259 50.584.564 15.2-1.418 24.693-7.917 37.916-3.395 6.907-5.88 10.194-13.26 17.54-10.202 10.154-19.648 15.784-32.61 19.434-9.864 2.778-25.36 3.481-33.972 1.542m30.319-22.965c7.412-2.615 17.758-8.9 21.875-13.29 12.411-13.228 17.748-34.162 12.847-50.397-3.048-10.097-7.261-17.673-13.205-23.743-2.758-2.817-5.331-5.121-5.718-5.121-.664 0-12.622 21.405-15.195 27.2-.983 2.214-.904 3.32.44 6.151 2.303 4.855 2.098 13.066-.46 18.347-6.263 12.94-27.44 12.945-34.059.008-2.568-5.019-2.83-13.913-.54-18.3 3.224-6.175 9.642-10.406 15.783-10.406 3.447 0 5.152-2.372 13.913-19.355 6.17-11.958 6.199-11.785-2.3-13.613-11.332-2.437-23.2-.483-35.165 5.79-30.454 15.966-36.932 58.404-12.684 83.083 10.746 10.937 22.878 16.04 38.149 16.048 7.488.004 10.944-.505 16.319-2.402m332.958 14.004c-5.39-5.53-12.044-12.444-14.788-15.363l-4.99-5.307 7.774 3.68c15.252 7.22 30.091 7.071 45.18-.451 10.282-5.126 14.484-8.674 20.621-17.414 13.428-19.12 12.68-43.555-1.924-62.88-10.663-14.11-30.666-22.297-48.353-19.791-6.368.902-14.797 3.586-14.797 4.711 0 .288.937 2.04 2.081 3.892l2.082 3.368h13.696c10.56 0 14.187.344 15.84 1.501 2.933 2.055 3.894 6.945 1.947 9.916-1.361 2.078-2.589 2.416-11.088 3.053-5.257.394-9.558 1.154-9.558 1.689 0 3.115 2.232 4.842 6.285 4.863 8.71.045 16.568 6.007 18.79 14.254 3.406 12.65-5.543 24.724-18.326 24.724-8.336 0-14.31-3.849-17.853-11.5-2.298-4.963-2.385-9.662-.289-15.512l1.617-4.512-4.315-6.769-4.316-6.769-11.043.281-11.043.28-2.416 6c-1.883 4.676-2.517 8.44-2.872 17.05-.426 10.349-.261 11.613 2.606 19.93l3.06 8.88-14.027-13.93-14.028-13.93.547-6.25c.61-6.96.56-7-6.544-5.35l-3.667.853-58.231-59.99c-33.029-34.026-57.194-59.666-55.834-59.24 1.32.414 7.349 2.898 13.399 5.52 17.393 7.54 24.57 9.466 35 9.394 8.371-.058 47.337-4.037 97-9.905 22.167-2.619 29.19-3.989 44.373-8.652 11.052-3.395 14.432-3.574 17.102-.905 3.616 3.617 3.51 6.488-1.007 27.172-2.381 10.904-4.105 20.05-3.83 20.325.274.274 4.067.994 8.43 1.6 32.617 4.528 60.225 26.762 70.57 56.831 1.024 2.976 1.862 5.566 1.862 5.754 0 .19-2.673.344-5.941.344s-6.156.348-6.419.773.207 3.687 1.043 7.25c1.978 8.429 1.332 29.228-1.132 36.477-10.442 30.716-33.977 50.088-64.763 53.305l-7.712.806zM193 421.852l-5.338-5.405 3.872-2.46c9.451-6.005 36.113-20.73 37.534-20.73.862 0 2.754.933 4.203 2.072 2.037 1.603 2.635 2.953 2.635 5.95 0 4.6-1.702 6.109-15.5 13.74-4.95 2.737-11.7 6.61-15 8.605s-6.24 3.629-6.534 3.63-2.936-2.43-5.872-5.402" style="fill:#010101" transform="translate(78.605 -124.908)scale(.71325)"/>
  </g>
  <path stroke-miterlimit="10" d="m100.399 95.353 324.679 334.771" style="display:inline;fill:none;stroke:#c50000;stroke-width:54.96069336;stroke-miterlimit:10"/>
</svg>
