<svg xmlns="http://www.w3.org/2000/svg" xml:space="preserve" viewBox="0 0 525.477 525.477" role="img" aria-labelledby="title">
  <title id="title">Verkehrszeichen R-25c - Siga em Frente ou à Esquerda</title>
  <path fill="#c50000" d="M.509 274.647c6.597 145.275 128.863 256.919 274.138 250.321s256.919-128.863 250.321-274.137C518.372 105.556 396.106-6.089 250.831.508 105.555 7.107-6.088 129.372.509 274.647"/>
  <path fill="#fff" d="M50.458 272.378c5.325 117.24 104.682 207.966 221.921 202.642 117.24-5.324 207.966-104.682 202.642-221.921C469.698 135.859 370.34 45.134 253.1 50.458 135.859 55.782 45.133 155.139 50.458 272.378"/>
  <path d="M272.525 291.909v-90.337l-24.012 7.149c-3.235 1.151-6.854.22-9.156-2.325a8.465 8.465 0 0 1-.788-10.354l55.181-80.229 56.503 79.54a8.26 8.26 0 0 1-.049 9.889 8.26 8.26 0 0 1-9.03 2.894l-24.729-6.933v208.46h-43.92v-41.672a74.28 74.28 0 0 0-28.056-45.481 74.36 74.36 0 0 0-54.933-14.519l7.783 26.219a8.8 8.8 0 0 1-3.844 9.693 8.78 8.78 0 0 1-9.522-.115l-80.715-55.43 80.424-57.337c3.179-2.399 7.588-2.348 10.693.148a8.73 8.73 0 0 1 2.987 9.034l-8.151 26.467a108.5 108.5 0 0 1 43.968 3.791 108.8 108.8 0 0 1 39.366 21.448"/>
</svg>
