<svg xmlns="http://www.w3.org/2000/svg" xml:space="preserve" viewBox="0 0 525.477 525.477" role="img" aria-labelledby="title">
  <title id="title">Verkehrszeichen R-15 - Altura Máxima Permitida</title>
  <path fill="#c50000" d="M274.647.508C129.372-6.089 7.106 105.556.509 250.832c-6.598 145.273 105.046 267.54 250.321 274.137 145.274 6.598 267.541-105.046 274.138-250.321C531.566 129.372 419.922 7.107 274.647.508"/>
  <path fill="#fff" d="M272.378 50.458C155.138 45.134 55.78 135.859 50.457 253.099c-5.324 117.24 85.401 216.597 202.642 221.921 117.239 5.324 216.596-85.401 221.921-202.642 5.324-117.239-85.401-216.596-202.642-221.92"/>
  <path d="M80.044 279.965c17.734-24.885 35.468-49.781 53.213-74.676.259-.366.59-.52.92-.52h19.232c.59 0 1.121.354 1.144 1.086v74.923h12.401c.59-.023 1.228.354 1.239 1.086v18.949c.035.743-.602 1.156-1.039 1.18h-14.383c.023 7.752.023 15.504.023 23.255.047.673-.472 1.216-1.038 1.24h-19.728c-.708.023-1.192-.473-1.204-1.122 0-7.54-.023-15.078-.023-22.618-16.661-.012-33.25 0-49.933-.012-.649-.047-1.086-.555-1.086-1.074.024-7.009.024-14.029.024-21.038.073-.211.167-.459.238-.659M180.89 445.528c25.238-25.439 50.488-50.854 75.761-76.28.496-.53 1.204-.53 1.723 0 23.173 25.392 46.37 50.76 69.566 76.127.851.803.26 1.936-.637 2.006H181.656c-1.038-.131-1.321-1.323-.766-1.853M180.89 79.955c25.238 25.433 50.488 50.836 75.761 76.274.496.531 1.204.531 1.723 0 23.173-25.368 46.37-50.753 69.566-76.139.851-.785.26-1.912-.637-1.994H181.656c-1.038.118-1.321 1.327-.766 1.859M356.729 249.96h-16.306c-.473.023-.967.271-1.038 1.015v74.381c.023.589.401 1.085 1.086 1.108h16.471c.685 0 1.109-.473 1.133-1.085v-48.506c7.339-7.092 18.596-6.266 23.952.048 0 16.128.023 32.257.047 48.398-.023.602.448 1.108 1.015 1.132h18.383a1.1 1.1 0 0 0 1.038-1.002l-.023-48.541c7.422-7.457 17.203-6.631 22.726.013.023 16.104.023 32.223.023 48.327-.023.544.212 1.146 1.108 1.216h18.241c.52-.013 1.086-.377 1.109-1.074-.023-18.843-.023-37.649-.023-56.493-2.549-18.914-34.595-27.361-52.128-12.731-.519.449-.991.614-1.381.33-8.79-8.153-19.811-11.197-31.963-.802-1.074.496-2.029.72-2.359-.814v-3.858c.023-.519-.497-1.039-1.111-1.062M187.733 350.157c-1.404 3.422-5.227 2.644-4.778-1.18l.118-31.231c4.908-12.731 22.56-6.396 20.223 5.438zM219.72 293.534l22.925-2.349c.638 5.168 2.597 9.298 5.817 12.318 3.209 3.044 6.927 4.555 11.114 4.555q7.204 0 12.248-5.841c3.303-3.905 5.002-9.805 5.002-17.675 0-7.351-1.65-12.896-4.979-16.577-3.304-3.705-7.622-5.545-12.908-5.545-6.584 0-12.53 2.937-17.77 8.801l-18.677-2.748 11.787-62.5h60.896v21.521h-43.421l-3.61 20.4c5.145-2.572 10.347-3.834 15.739-3.834 10.206 0 18.867 3.716 25.946 11.114q10.654 11.15 10.654 28.955c0 9.876-2.855 18.713-8.566 26.453-7.834 10.607-18.677 15.869-32.54 15.869-11.092 0-20.142-2.96-27.127-8.907-7.008-5.947-11.197-13.947-12.53-24.01"/>
  <path fill="#fff" d="M104.291 278.703c7.894-11.894 15.822-23.905 23.716-35.822h2.301v38.395h-26.017z"/>
</svg>
