<svg xmlns="http://www.w3.org/2000/svg" xml:space="preserve" viewBox="0 0 525.477 525.477" role="img" aria-labelledby="title">
  <title id="title">Verkehrszeichen R-33 - Sentido de circulação na rotatória</title>
  <path fill="#c50000" d="M274.647.508C129.372-6.089 7.106 105.556.509 250.832c-6.598 145.273 105.046 267.54 250.321 274.137 145.274 6.598 267.541-105.046 274.138-250.321C531.566 129.372 419.922 7.107 274.647.508"/>
  <path fill="#fff" d="M272.378 50.458C155.138 45.134 55.78 135.859 50.457 253.099c-5.324 117.24 85.401 216.597 202.642 221.921 117.239 5.324 216.596-85.401 221.921-202.642 5.324-117.239-85.401-216.596-202.642-221.92"/>
  <path d="M269.672 116.659c.049.074.135.147.183.221 68.564-4.357 119.652 34.698 142.967 80.669.209.354.209.746-.098 1.114l-31.149 24.845c-.563.563-1.37.281-1.7-.44-18.078-39.655-48.052-68.246-101.414-74.99.023.085.023.159.049.257 8.507 9.497 16.975 18.995 25.421 28.492 3.011 3.844-.734 11.835-7.932 10.551-38.284-9.13-76.568-18.237-114.853-27.355-2.693-.771-2.668-2.105-1.396-3.672l85.05-82.37c5.643-5.098 13.011-1.854 12.448 4.982-2.521 12.557-5.042 25.139-7.576 37.696M137.207 331.446c.025-.086.074-.186.098-.258-38.113-57.182-29.863-120.948-1.762-164.177.22-.342.563-.538 1.016-.465l37.122 14.54c.758.221.93 1.053.453 1.665-25.25 35.543-35.017 75.785-14.137 125.33.062-.051.123-.098.196-.146 3.978-12.094 7.956-24.197 11.946-36.303 1.823-4.516 10.599-5.262 13.096 1.605 11.26 37.695 22.545 75.416 33.817 113.125.673 2.693-.477 3.342-2.484 3.023-37.943-10.781-75.898-21.601-113.876-32.385-7.246-2.338-8.115-10.342-1.934-13.256 12.155-4.085 24.296-8.185 36.449-12.298M389.201 337.969a1 1 0 0 0-.281.049c-30.562 61.514-89.972 86.189-141.412 83.348-.404-.023-.759-.207-.918-.635l-5.888-39.436c-.221-.783.416-1.334 1.2-1.248 43.388 4.186 83.141-7.416 115.709-50.23-.073-.023-.183-.074-.257-.098a16334 16334 0 0 1-37.392 7.76c-4.834.672-9.84-6.572-5.14-12.141 27.072-28.592 54.11-57.17 81.194-85.749 2.009-1.934 3.134-1.249 3.868.637 9.583 38.31 19.118 76.569 28.714 114.853 1.591 7.467-4.921 12.215-10.551 8.299-9.619-8.446-19.214-16.94-28.846-25.409"/>
</svg>
