<svg xmlns="http://www.w3.org/2000/svg" xml:space="preserve" viewBox="0 0 525.477 525.477" role="img" aria-labelledby="title">
  <title id="title">Verkehrszeichen R-3 - Sentido Proibido</title>
  <path fill="#c50000" d="M274.647.509C129.372-6.09 7.106 105.556.51 250.832c-6.598 145.273 105.046 267.54 250.32 274.137 145.275 6.598 267.542-105.046 274.139-250.321C531.566 129.372 419.923 7.107 274.647.508"/>
  <path fill="#fff" d="M272.379 50.458c-117.241-5.324-216.598 85.4-221.922 202.64s85.402 216.598 202.642 221.922 216.596-85.401 221.92-202.642c5.325-117.24-85.4-216.596-202.64-221.92"/>
  <path d="M241.105 455.62c-.063-10.634-1.84-294.874-1.853-294.874-.122 0-1.952.552-14.04 4.375-6.578 2.082-12.276 3.848-12.63 3.927-.483.106-.945.155-1.938.129-1.55-.04-2.32-.203-3.587-.8-2.463-1.158-4.112-3.345-4.708-6.166-.15-.707-.13-1.088-.103-2.32.036-1.64.133-2.428.625-3.468.192-.405 51.488-76.767 57.72-85.932l.32-.474c.035-.028 6.454 9.208 40.658 58.683 10.032 14.51 18.338 26.667 18.494 26.987.506 1.034.67 1.82.728 3.46.04 1.229.066 1.612-.075 2.32-.67 3.378-3.018 5.91-6.241 6.823-.96.27-3.004.335-3.934.143-.355-.074-6.075-1.77-12.681-3.768-12.17-3.684-13.996-4.2-14.12-4.198-.007-.001 1.762 284.238 1.82 294.874z"/>
  <path fill="none" stroke="#c50000" stroke-miterlimit="10" stroke-width="55" d="m99.632 100.845 330 330"/>
</svg>
