<svg xmlns="http://www.w3.org/2000/svg" xml:space="preserve" viewBox="0 0 525.477 525.477" role="img" aria-labelledby="title">
  <title id="title">Verkehrszeichen R-24a - Sentido Obrigatório</title>
  <path fill="#c50000" d="M274.647.508C129.372-6.089 7.106 105.556.509 250.832c-6.598 145.273 105.046 267.54 250.321 274.137 145.274 6.598 267.541-105.046 274.138-250.321C531.566 129.372 419.922 7.107 274.647.508"/>
  <path fill="#fff" d="M272.378 50.458C155.138 45.134 55.78 135.859 50.457 253.099c-5.324 117.24 85.402 216.597 202.642 221.921s216.596-85.401 221.921-202.642c5.324-117.239-85.401-216.596-202.642-221.92"/>
  <path d="M68.724 242.397c10.635-.063 294.875-1.84 294.875-1.853 0-.122-.552-1.952-4.375-14.039-2.082-6.579-3.849-12.277-3.927-12.631-.106-.483-.155-.945-.13-1.938.04-1.549.203-2.32.799-3.587 1.159-2.463 3.347-4.112 6.168-4.708.707-.149 1.088-.129 2.318-.103 1.641.036 2.429.133 3.47.625.405.192 76.767 51.488 85.932 57.721l.474.32c.028.034-9.208 6.454-58.683 40.658-14.51 10.032-26.667 18.338-26.987 18.494-1.033.506-1.819.671-3.46.728-1.229.041-1.612.066-2.321-.075-3.377-.669-5.909-3.018-6.822-6.241-.271-.959-.335-3.004-.143-3.934.074-.355 1.769-6.075 3.768-12.681 3.685-12.17 4.199-13.996 4.198-14.12.001-.007-284.238 1.762-294.874 1.821z"/>
</svg>
