<svg xmlns="http://www.w3.org/2000/svg" xml:space="preserve" viewBox="0 0 525.477 525.477" role="img" aria-labelledby="title">
  <title id="title">Verkehrszeichen R-4a - Proibido virar à Esquerda</title>
  <path fill="#c50000" d="M274.647.508C129.372-6.089 7.106 105.556.509 250.832c-6.598 145.273 105.046 267.54 250.321 274.137 145.274 6.598 267.541-105.046 274.138-250.321C531.566 129.372 419.922 7.107 274.647.508"/>
  <path fill="#fff" d="M272.378 50.458C155.138 45.134 55.78 135.859 50.457 253.099c-5.324 117.24 85.402 216.597 202.642 221.921s216.596-85.401 221.921-202.642c5.324-117.239-85.401-216.596-202.642-221.92"/>
  <path d="m150.973 249.792 8.529 21.952c1.955 4.727-.286 10.149-5.015 12.109a9.25 9.25 0 0 1-8.698-.858l-87.555-56.374 87.555-56.376a9.26 9.26 0 0 1 8.698-.858c4.729 1.96 6.97 7.382 5.015 12.112l-8.497 21.967c39.798 0 117.179-.227 143.734-.227 53.111 0 72.167 0 72.167 68.5v156H320.58v-144.5c.076-25.49-7.508-34.5-31.841-34.5-28.667 0-96.279 1.053-137.766 1.053"/>
  <path fill="none" stroke="#c50000" stroke-miterlimit="10" stroke-width="55" d="m92.239 97.738 330 330.001"/>
</svg>
