<svg xmlns="http://www.w3.org/2000/svg" xml:space="preserve" viewBox="0 0 525.477 525.477" role="img" aria-labelledby="title">
  <title id="title">Verkehrszeichen R-10 - Proibido Trânsito de Veículos Automotores</title>
  <path fill="#c50000" d="M274.647.508C129.372-6.089 7.106 105.556.509 250.832c-6.598 145.273 105.046 267.54 250.321 274.137 145.274 6.598 267.541-105.046 274.138-250.321C531.566 129.372 419.922 7.107 274.647.508"/>
  <path fill="#fff" d="M272.378 50.458C155.138 45.134 55.78 135.859 50.457 253.099c-5.324 117.24 85.401 216.597 202.642 221.921 117.239 5.324 216.596-85.401 221.921-202.642 5.324-117.239-85.401-216.596-202.642-221.92"/>
  <path stroke="#000" stroke-miterlimit="10" stroke-width="10" d="M128.987 211.457c8.794-22.829 17.589-45.685 26.401-68.532 4.013-6.422 7.073-9.811 17.204-10.187 58.153-.21 120.319-.394 178.49-.586 7.071.376 12.605 3.792 16.636 10.206a569365 569365 0 0 0 29.241 70.803c2.858 4.709.367 7.173-7.438 7.375-84.938-.184-169.878-.376-254.817-.559-9.252-1.649-6.266-5.277-5.717-8.52z"/>
  <path stroke="#000" stroke-miterlimit="10" stroke-width="5" d="M100.882 324.217h312.714c4.104 0 7.475 2.475 7.475 5.516v4.287c0 3.022-3.371 5.496-7.475 5.496H100.882c-4.123 0-7.475-2.474-7.475-5.496v-4.287c0-3.041 3.352-5.516 7.475-5.516M121.036 350.252h29.095c3.188 0 5.827 2.895 5.827 6.486v30.103c0 3.535-2.639 6.485-5.827 6.485h-29.095c-3.225 0-5.826-2.913-5.826-6.485v-30.103c-.001-3.572 2.601-6.486 5.826-6.486M365.758 350.252h29.113c3.225 0 5.845 2.895 5.845 6.486v30.103c0 3.535-2.62 6.485-5.845 6.485h-29.113c-3.188 0-5.79-2.913-5.79-6.485v-30.103c0-3.572 2.602-6.486 5.79-6.486"/>
  <path stroke="#000" stroke-miterlimit="10" stroke-width="10" d="M122.685 234.698h280.028c7.659.375 12.221 4.544 13.76 12.459v66.287H106.598v-66.828c2.016-7.411 6.395-12.101 16.087-11.918z"/>
  <path fill="#fff" d="M139.284 206.016c8.098-19.495 16.178-38.97 24.294-58.437 3.665-5.479 6.504-8.391 15.812-8.694 53.426-.183 110.571-.338 163.997-.503 6.504.32 11.616 3.225 15.299 8.702 8.959 20.136 17.937 40.244 26.914 60.38 2.62 4.012.348 6.091-6.87 6.284-78.05-.174-156.083-.339-234.132-.485-8.538-1.412-5.79-4.508-5.314-7.247M139.028 255.658c12.202 0 22.096 9.756 22.096 21.785s-9.894 21.784-22.096 21.784-22.096-9.756-22.096-21.784 9.893-21.785 22.096-21.785M383.218 255.658c12.165 0 22.077 9.756 22.077 21.785s-9.894 21.784-22.077 21.784c-12.221 0-22.096-9.756-22.096-21.784s9.876-21.785 22.096-21.785"/>
  <path fill="none" stroke="#c50000" stroke-miterlimit="10" stroke-width="55" d="m92.239 97.739 330 330"/>
</svg>
