<svg xmlns="http://www.w3.org/2000/svg" xml:space="preserve" viewBox="0 0 525.477 525.477" role="img" aria-labelledby="title">
  <title id="title">Verkehrszeichen R-39 - Circulação exclusiva de caminhão</title>
  <path fill="#c50000" d="M274.646.508C129.372-6.089 7.106 105.556.509 250.832c-6.598 145.273 105.046 267.54 250.321 274.137 145.273 6.599 267.541-105.046 274.138-250.32C531.566 129.372 419.922 7.107 274.646.508"/>
  <path fill="#fff" d="M272.378 50.458C155.138 45.134 55.78 135.859 50.457 253.099c-5.324 117.24 85.401 216.597 202.642 221.92 117.239 5.324 216.596-85.4 221.92-202.642 5.325-117.238-85.4-216.595-202.641-221.919"/>
  <path d="M130.278 244.425c11.514-11.015 23.043-22.031 34.559-33.074.599-.471 1.27-.757 2.098-.671l48.784-.086c2.426.214 4.138 1.413 4.167 4.195l-.014 85.484c.014 1.795-.984 3.097-3.096 3.125h-47.187a.98.98 0 0 1-.742-.315c-15.966-19.392-46.887-22.261-65.279.017a.95.95 0 0 1-.614.301H82.35c-2.411-.045-3.125-1.258-3.068-3.012v-52.795c-.057-2.754 1.456-3.14 3.125-3.182 15.951-.001 31.919.013 47.871.013M227.847 164.349h206.739c.328 0 .613.271.613.614v137.35a.617.617 0 0 1-.613.601H227.847a.616.616 0 0 1-.614-.601v-137.35a.61.61 0 0 1 .614-.614M314.872 304.395c15.681 0 28.366 12.715 28.366 28.381 0 15.654-12.687 28.354-28.366 28.354-15.653 0-28.366-12.698-28.366-28.354-.001-15.667 12.712-28.381 28.366-28.381M380.635 304.395c15.64 0 28.353 12.715 28.353 28.381 0 15.654-12.713 28.354-28.353 28.354-15.667 0-28.381-12.698-28.381-28.354 0-15.667 12.714-28.381 28.381-28.381M136.456 304.395c15.653 0 28.366 12.715 28.366 28.381 0 15.654-12.713 28.354-28.366 28.354s-28.366-12.698-28.366-28.354c0-15.667 12.713-28.381 28.366-28.381"/>
  <path fill="#fff" d="M170.001 223.421c.314-.428.657-.57.999-.6h36.414c1.013 0 1.798.329 1.755 1.712v21.831h-51.295c-1.241-.071-1.199-.941-.871-1.712 4.351-7.062 8.675-14.153 12.998-21.231"/>
</svg>
