<svg xmlns="http://www.w3.org/2000/svg" xml:space="preserve" viewBox="0 0 525.477 525.477" role="img" aria-labelledby="title">
  <title id="title">Verkehrszeichen R-36a - Ciclistas à esquerda, pedestres à direita</title>
  <path fill="#c50000" d="M274.646.508C129.372-6.089 7.106 105.556.509 250.832c-6.598 145.273 105.046 267.54 250.321 274.137 145.273 6.599 267.541-105.046 274.138-250.32C531.566 129.372 419.922 7.107 274.646.508"/>
  <path fill="#fff" d="M272.378 50.458C155.138 45.134 55.78 135.859 50.457 253.099c-5.324 117.24 85.401 216.597 202.642 221.92 117.239 5.324 216.596-85.4 221.92-202.642 5.325-117.238-85.4-216.595-202.641-221.919"/>
  <path d="M256.481 132.478h20.374v243.256h-20.374z"/>
  <circle cx="152.295" cy="140.969" r="15.589"/>
  <circle cx="387.987" cy="150.693" r="19.756"/>
  <path d="M108.614 222.312h89.523v6.483h-89.523zM160.258 387.773a5.476 5.476 0 0 1-5.475 5.477h-3.65a5.475 5.475 0 0 1-5.475-5.477V285.596a5.476 5.476 0 0 1 5.475-5.477h3.65a5.476 5.476 0 0 1 5.475 5.477z"/>
  <path d="M123.214 217.167a5.475 5.475 0 0 1-5.475 5.475h-3.65a5.476 5.476 0 0 1-5.475-5.475v-25.704a5.475 5.475 0 0 1 5.475-5.475h3.65a5.475 5.475 0 0 1 5.475 5.475zM198.137 216.836a5.476 5.476 0 0 1-5.475 5.476h-3.65a5.475 5.475 0 0 1-5.475-5.476v-25.704a5.475 5.475 0 0 1 5.475-5.475h3.65a5.475 5.475 0 0 1 5.475 5.475zM187.649 348.287a6.6 6.6 0 0 1-6.602 6.602h-4.401a6.6 6.6 0 0 1-6.601-6.602v-64.664c0-3.645 2.956-6.6 6.601-6.6h4.401a6.6 6.6 0 0 1 6.602 6.6zM131.617 298.793a6.6 6.6 0 0 1-6.602 6.602h-4.401a6.6 6.6 0 0 1-6.601-6.602v-53.141c0-3.644 2.956-6.6 6.601-6.6h4.401a6.6 6.6 0 0 1 6.602 6.6zM383.903 354.232c-.329 5.164-4.784 9.088-9.95 8.762l-6.237-.396c-5.167-.328-9.089-4.785-8.759-9.951l7.152-112.532a9.374 9.374 0 0 1 9.949-8.759l6.237.396c5.167.329 9.088 4.782 8.762 9.95z"/>
  <path d="M413.147 364.871a9.165 9.165 0 0 1-9.164 9.166h-6.111c-5.061 0-9.163-4.104-9.163-9.166V254.627a9.164 9.164 0 0 1 9.163-9.163h6.111a9.164 9.164 0 0 1 9.164 9.163zM114.013 305.395h17.604v8.293h-17.604zM170.045 354.889h17.604v8.293h-17.604zM170.458 296.244l-11.012-13.016-12.381-.029-7.271 8.672-1.029 44.557s-1.132 2.469-3.292 2.469-2.881-2.469-2.881-2.469l.103-46.922 13.686-14.922 11.833 2.439 12.246 7.49v11.731z"/>
  <path d="M128.834 184.342h48.62l.17 77.935 10.025 9.946v11.4l-17.191 2.744-41.624-19.601z"/>
  <path d="M123.214 195.455c0-5.453 5.62-8.644 5.62-8.644h48.625s6.078 2.47 6.078 7.821 14.484 4.131 14.484-4.623-17.686-31.083-24.477-31.083c-5.865 0-33.49-.024-39.332-.024-10.575 0-25.566 24-25.566 31.973 0 6.123 14.568 10.033 14.568 4.58M364.371 196.896h48.776v81.444h-48.776zM356.54 265.324a5.475 5.475 0 0 1-5.475 5.475h-3.65a5.475 5.475 0 0 1-5.475-5.475v-44.226a5.474 5.474 0 0 1 5.475-5.475h3.65a5.475 5.475 0 0 1 5.475 5.475zM434.722 261.369a5.474 5.474 0 0 1-5.216 5.721l-3.646.168a5.476 5.476 0 0 1-5.721-5.218l-2.208-38.287a5.476 5.476 0 0 1 5.217-5.722l3.646-.167a5.475 5.475 0 0 1 5.721 5.216z"/>
  <path d="M356.54 226.71c0-7.001 7.678-15.307 7.678-15.307h48.625s5.088 5.479 5.088 12.349 14.713 12.789 14.713 1.55c0-18.117-9.465-49.7-28.81-49.7-5.865 0-28.396-.031-34.237-.031-10.575 0-27.656 36.503-27.656 46.74-.001 7.862 14.599 11.401 14.599 4.399"/>
</svg>
