<svg xmlns="http://www.w3.org/2000/svg" viewBox="0 0 525.477 525.477" role="img" aria-labelledby="title">
  <title id="title">Verkehrszeichen R-11 - Proibido Trânsito de Veículos de Tração Animal</title>
  <g style="display:inline">
    <path d="M274.647.508C129.372-6.089 7.106 105.556.509 250.832c-6.598 145.273 105.046 267.54 250.321 274.137 145.274 6.598 267.541-105.046 274.138-250.321C531.566 129.372 419.922 7.107 274.647.508" style="display:inline;fill:#c50000" transform="translate(.188 .188)scale(.99929)"/>
    <path d="M272.378 50.458C155.138 45.134 55.78 135.859 50.457 253.099c-5.324 117.24 85.401 216.597 202.642 221.921 117.239 5.324 216.596-85.401 221.921-202.642 5.324-117.239-85.401-216.596-202.642-221.92" style="display:inline;fill:#fff" transform="translate(.188 .188)scale(.99929)"/>
  </g>
  <g style="display:inline">
    <path d="M840.76 746.238c-.34-.884.09-4.392.955-7.794.864-3.403 1.856-9.112 2.203-12.687.348-3.575 1.275-9.567 2.06-13.315 2.116-10.102 1.814-13.705-2.489-29.661-2.154-7.988-4.292-16.239-4.75-18.335s-1.273-3.803-1.81-3.794c-1.123.02-4.319 15.416-4.588 22.105-.1 2.475.143 8.775.539 14 .632 8.345.396 10.896-1.948 20.984-1.467 6.315-3.067 14.992-3.556 19.28-.49 4.288-1.16 8.233-1.489 8.766-.767 1.242-10.582 1.262-13.828.028l-2.478-.942 2.413-7.596c1.326-4.178 2.412-8.517 2.412-9.642s.918-5.639 2.04-10.031c3.761-14.735 3.982-17.11 2.461-26.533-1.859-11.514-2.115-19.191-1.13-33.814l.808-12-4.989-10.108c-5.42-10.981-6.517-15.235-8.202-31.821-1.307-12.854-1.88-14.395-10.411-27.985-3.575-5.696-7.601-12.845-8.946-15.886-1.345-3.042-3.358-6.019-4.473-6.615-4.342-2.324-6.502-1.305-13.415 6.328l-6.715 7.414-7.632.715c-6.074.569-8.328.384-11.033-.906-4.432-2.113-6.04-5.497-4.214-8.864 2.6-4.794 18.394-26.208 23.078-31.288 6.528-7.083 8.021-11.046 7.28-19.325-.765-8.535.208-10.21 4.258-7.327 1.634 1.164 3.706 3.237 4.604 4.608s5.345 4.949 9.882 7.952c10.277 6.802 21.555 15.827 46.079 36.873 22.035 18.91 30.248 24.56 41.287 28.405 7.002 2.44 9.409 2.759 21.545 2.865l13.662.12 34.419 35.43 34.419 35.429-1.435 4.305c-2.157 6.47-.946 11.241 6.921 27.27l7.074 14.41-1.162 14c-.639 7.7-1.251 18.726-1.36 24.5l-.2 10.5-7.265.295c-8.718.353-9.243-.301-6.924-8.619 1.736-6.224 3.994-32.083 3.048-34.907-1.096-3.273-15.644-34.755-16.664-36.06-2.716-3.475-2.275 1.74 1.334 15.78 2.184 8.497 3.97 17.391 3.97 19.767 0 2.375-1.184 9.59-2.633 16.032-1.448 6.442-2.91 15.088-3.25 19.213l-.616 7.5-4.997.315c-7.14.45-11.503-.54-11.503-2.61 0-.938.9-4.072 2-6.966 1.1-2.893 1.995-6.268 1.99-7.5-.006-1.231 1.435-8.292 3.202-15.69l3.212-13.45-3.325-9.05c-1.83-4.977-4.367-12.943-5.64-17.702-5.068-18.94-7.516-25.847-9.164-25.847-.881 0-8.842 1.663-17.689 3.695-19.504 4.48-32.659 4.868-49.063 1.45-8.765-1.826-10.241-1.905-12.155-.65-3.961 2.595-3.829 7.483.679 25.005 3.992 15.52 4.097 16.345 3.519 27.522-.328 6.337-1.307 16.012-2.176 21.5s-1.874 12.678-2.235 15.978l-.655 6-7.265.294c-5.93.24-7.377-.001-7.88-1.313M1156.454 732.306l-4.369-4.451 6.064-6.482c8.27-8.84 10.666-15.016 10.718-27.616.036-8.647-.247-10.104-3.146-16.223-6.101-12.88-17.218-21.463-30.91-23.866-11.556-2.029-24.36 2.15-33.724 11.006l-5.313 5.025-4.888-4.963-4.888-4.962 3.4-3.509 3.4-3.508h-12.955l-5.937-6-5.937-6h40.437v-19h-58.714l-16.143-16.476-16.143-16.477v-43.152l5.25.303 5.25.302.308 4.261.308 4.262 39.682-.262 39.683-.261.514-3c.413-2.408 1.08-3.065 3.38-3.328 5.315-.609 7.625.557 7.625 3.847v2.98h87.885l.307-4.25.308-4.25 5.19-.3 5.19-.3.31 4.3.31 4.3 6 .5 6 .5.311 4.904c.373 5.881-.407 6.56-7.561 6.582l-5.25.015v74l5.25.015c7.154.021 7.934.7 7.561 6.582l-.311 4.903-32.75.264-32.75.263 4.64 5.698c15.348 18.843 17.252 44.644 4.756 64.44-3.296 5.22-11.281 13.835-12.825 13.835-.635 0-3.12-2.003-5.523-4.451" style="display:inline;fill:#010101" transform="translate(-465.394 -187.624)scale(.73032)"/>
    <path d="M1207.406 631.257v-9.5h-88v17.925l9.25.33c5.087.181 24.887.423 44 .537l34.75.208zM1108.406 576.257v-9.5h-80v19h80zM1207.406 576.257v-9.5h-88v19h88zM1123.944 698.795l-9.825-9.862 1.894-3.225c3.612-6.153 12.923-8.797 19.324-5.487 1.557.805 4.01 2.865 5.45 4.577 2.138 2.54 2.619 4.134 2.619 8.668 0 6.37-2.232 10.832-6.75 13.49l-2.888 1.7z" style="display:inline;fill:#010101" transform="translate(-465.394 -187.624)scale(.73032)"/>
  </g>
  <path stroke-miterlimit="10" d="m100.399 95.353 324.679 334.771" style="display:inline;fill:none;stroke:#c50000;stroke-width:54.96069336;stroke-miterlimit:10"/>
</svg>
