<svg xmlns="http://www.w3.org/2000/svg" xml:space="preserve" viewBox="0 0 525.477 525.477" role="img" aria-labelledby="title">
  <title id="title">Verkehrszeichen R-25b - Vire à Direita</title>
  <path fill="#c50000" d="M.509 274.647c6.597 145.275 128.863 256.919 274.138 250.321s256.919-128.863 250.321-274.137C518.372 105.556 396.106-6.089 250.831.508 105.555 7.107-6.088 129.372.509 274.647"/>
  <path fill="#fff" d="M50.458 272.378c5.325 117.24 104.682 207.966 221.921 202.642 117.24-5.324 207.966-104.682 202.642-221.921C469.698 135.859 370.34 45.134 253.1 50.458 135.859 55.782 45.133 155.139 50.458 272.378"/>
  <path d="m303.504 223.822-8.529 21.952c-1.955 4.727.287 10.149 5.016 12.109a9.24 9.24 0 0 0 8.697-.858l87.555-56.374-87.555-56.376a9.25 9.25 0 0 0-8.697-.858c-4.729 1.96-6.971 7.382-5.016 12.112l8.498 21.967c-80.182.061-145.137 65.071-145.16 145.3v59.973h46.326v-59.973c0-54.634 44.242-98.926 98.865-98.974"/>
</svg>
