<svg xmlns="http://www.w3.org/2000/svg" xml:space="preserve" viewBox="0 0 525.477 525.477" role="img" aria-labelledby="title">
  <title id="title">Verkehrszeichen R-13 - Proibido Trânsito de Máquinas Agrícolas</title>
  <path fill="#c50000" d="M274.647.508C129.372-6.089 7.106 105.556.509 250.832c-6.598 145.273 105.046 267.54 250.321 274.137 145.274 6.598 267.541-105.046 274.138-250.321C531.566 129.372 419.922 7.107 274.647.508"/>
  <path fill="#fff" d="M272.378 50.458C155.138 45.134 55.78 135.859 50.457 253.099c-5.324 117.24 85.401 216.597 202.642 221.921 117.239 5.324 216.596-85.401 221.921-202.642 5.324-117.239-85.401-216.596-202.642-221.92"/>
  <path d="M321.191 121.531c10.042 0 18.179 8.148 18.179 18.201 0 10.041-8.137 18.167-18.179 18.167s-18.178-8.126-18.178-18.167c-.012-10.053 8.137-18.201 18.178-18.201M281.028 207.366l40.163-44.991c6.323-6.936 21.102-2.641 21.964 6.754l6.471 59.068c-13.056-1.021-26.587.725-39.643 6.504l-1.745-28.921-15.459 16.592c-10.709 7.207-19.81-7.469-11.751-15.006M157.917 303.379c22.02 0 39.869 18.02 39.869 40.176 0 22.188-17.838 40.186-39.869 40.186-21.997 0-39.858-17.997-39.858-40.186.001-22.156 17.85-40.176 39.858-40.176M341.193 237.965c40.867 0 74.004 33.138 74.004 73.992s-33.126 74.005-74.004 74.005c-40.843 0-73.98-33.149-73.98-74.005-.001-40.854 33.148-73.992 73.98-73.992"/>
  <path d="M132.566 297.429c-11.219-20.614-21.272-39.768-32.48-60.382-3.706-14.914 5.938-27.018 17.6-27.618l151.362-.068c1.746.045 3.095.929 3.876 2.652 5.418 11.163 10.801 22.326 16.206 33.478.228.352.262.759-.125 1.416-22.631 18.281-31.833 49.129-30.259 73.358.126.748-.021 1.293-.736 1.293h-54.216c-.793.021-1.417-.817-1.983-1.791-9.078-21.034-41.297-34.374-66.457-21.137-1.179.749-2.108.34-2.788-1.201"/>
  <path fill="#fff" d="M157.838 329.173c7.944 0 14.37 6.482 14.37 14.483 0 7.978-6.437 14.448-14.37 14.448-7.922 0-14.348-6.482-14.348-14.448.001-8 6.415-14.483 14.348-14.483M341.193 267.272c24.684 0 44.71 20.015 44.71 44.686 0 24.685-20.026 44.687-44.71 44.687-24.66 0-44.673-20.002-44.673-44.687.011-24.671 20.013-44.686 44.673-44.686"/>
  <path d="M341.193 274.333c20.785 0 37.649 16.84 37.649 37.624s-16.864 37.637-37.649 37.637c-20.761 0-37.612-16.852-37.612-37.637 0-20.784 16.851-37.624 37.612-37.624"/>
  <path fill="none" stroke="#c50000" stroke-miterlimit="10" stroke-width="55" d="m92.239 97.739 330 330"/>
</svg>
