<svg xmlns="http://www.w3.org/2000/svg" viewBox="0 0 525.477 525.477" role="img" aria-labelledby="title">
  <title id="title">Verkehrszeichen R-40 - Trânsito proibido a carros de mão</title>
  <g style="display:inline">
    <path d="M274.647.508C129.372-6.089 7.106 105.556.509 250.832c-6.598 145.273 105.046 267.54 250.321 274.137 145.274 6.598 267.541-105.046 274.138-250.321C531.566 129.372 419.922 7.107 274.647.508" style="display:inline;fill:#c50000" transform="translate(.188 .188)scale(.99929)"/>
    <path d="M272.378 50.458C155.138 45.134 55.78 135.859 50.457 253.099c-5.324 117.24 85.401 216.597 202.642 221.921 117.239 5.324 216.596-85.401 221.921-202.642 5.324-117.239-85.401-216.596-202.642-221.92" style="display:inline;fill:#fff" transform="translate(.188 .188)scale(.99929)"/>
  </g>
  <g style="display:inline">
    <g transform="translate(-4.572 -123.698)scale(2.6182)">
      <path d="m40.759 157.218 1.536 11.225 14.233-1.536 3.808-5.279 6.147-.468 11.36-1.27 5.812-.734 5.012-.468 9.488-1.002 24.522-3.341.4-.735v-.869l-3.34-4.076-34.077 3.609z" style="fill:#000;stroke:#000;stroke-width:.26458332px;stroke-linecap:butt;stroke-linejoin:miter;stroke-opacity:1"/>
      <circle cx="72.363" cy="162.296" r="6.214" style="fill:#000;stroke-width:.32376644"/>
      <path d="M273.498 549.51a63.89 63.89 0 0 0-63.89 63.892 63.89 63.89 0 0 0 63.89 63.893 63.89 63.89 0 0 0 63.893-63.893 63.89 63.89 0 0 0-63.893-63.892m.127 19.193a45 45 0 0 1 4.475.225 45 45 0 0 1 4.431.67 45 45 0 0 1 4.34 1.107 45 45 0 0 1 4.21 1.537 45 45 0 0 1 4.034 1.95 45 45 0 0 1 3.82 2.341 45 45 0 0 1 3.567 2.711 45 45 0 0 1 3.28 3.055 45 45 0 0 1 2.956 3.367 45 45 0 0 1 2.606 3.645 45 45 0 0 1 2.23 3.886 45 45 0 0 1 1.83 4.09 45 45 0 0 1 1.412 4.252 45 45 0 0 1 .983 4.371 45 45 0 0 1 .539 4.447 45 45 0 0 1 .113 3.172 45 45 0 0 1-.224 4.475 45 45 0 0 1-.67 4.43 45 45 0 0 1-1.108 4.341 45 45 0 0 1-1.537 4.21 45 45 0 0 1-1.95 4.035 45 45 0 0 1-2.34 3.82 45 45 0 0 1-2.712 3.566 45 45 0 0 1-3.055 3.28 45 45 0 0 1-3.367 2.957 45 45 0 0 1-3.644 2.605 45 45 0 0 1-3.887 2.23 45 45 0 0 1-4.09 1.83 45 45 0 0 1-4.252 1.413 45 45 0 0 1-4.37.982 45 45 0 0 1-4.448.54 45 45 0 0 1-3.172.112 45 45 0 0 1-4.475-.224 45 45 0 0 1-4.431-.67 45 45 0 0 1-4.34-1.11 45 45 0 0 1-4.21-1.535 45 45 0 0 1-4.034-1.949 45 45 0 0 1-3.82-2.342 45 45 0 0 1-3.567-2.71 45 45 0 0 1-3.28-3.055 45 45 0 0 1-2.956-3.367 45 45 0 0 1-2.606-3.645 45 45 0 0 1-2.23-3.887 45 45 0 0 1-1.83-4.09 45 45 0 0 1-1.412-4.251 45 45 0 0 1-.983-4.372 45 45 0 0 1-.539-4.449 45 45 0 0 1-.113-3.17 45 45 0 0 1 .224-4.474 45 45 0 0 1 .67-4.432 45 45 0 0 1 1.108-4.342 45 45 0 0 1 1.537-4.209 45 45 0 0 1 1.95-4.033 45 45 0 0 1 2.34-3.82 45 45 0 0 1 2.712-3.567 45 45 0 0 1 3.055-3.279 45 45 0 0 1 3.367-2.957 45 45 0 0 1 3.644-2.605 45 45 0 0 1 3.887-2.23 45 45 0 0 1 4.09-1.831 45 45 0 0 1 4.252-1.412 45 45 0 0 1 4.37-.983 45 45 0 0 1 4.45-.539 45 45 0 0 1 3.17-.113" style="display:inline;fill:#000;fill-opacity:1;stroke:none;stroke-width:1.23414636" transform="scale(.26458)"/>
      <path d="M104.605 155.164h8.315v22.017h-8.315z" style="fill:#000;stroke-width:.26275712"/>
    </g>
    <g style="display:inline" transform="translate(-4.572 -123.698)scale(2.6182)">
      <path d="M138.434 126.722c-3.874 1.04-4.725 2.646-4.725 2.646l-3.969 6.614-3.118 5.197-3.307 3.591-4.252 5.008 3.401 3.308.756-.095 1.796-1.512 3.968-3.118 2.08-2.551 1.984-2.457s1.228-3.024 1.606 1.134l.945 3.496.85 2.457s.756.85-.189 2.173c0 0-6.992 3.78-6.425 5.008l-.095 4.63v13.702H139l-.17-6.46-.434-2.63-.379-2.958.133-2.693s1.539-.343 3.014-.473c.57-.05 1.14-.01 1.595.007.471.016.973-.074 1.122.027.153.104.204.22.281.345.03.07.072.107.101.162.127.236.24.392.371.668.076.16.102.233.164.436.07.23.099.428.168.62.316.863.274.753.453 1.288.27.813.68 1.528 1.035 2.23 1.396 2.762 2.718 4.983 3.936 6.803 3.826 5.717 6.281 7.258 6.281 7.258l.15.039.233.028.97.084 1.427-.1s2.323-.877 1.85-3.712l-.465-.945-7.07-11.269-.373-1.147-.937-2.57-2.62-6.65-1.291-4.09-.34-1.539-.245-2.87-.998-15.27s-.014-.213-.144-.496c-.201-.44-.854-1.055-1.487-1.654-1-.946-2.186-1.857-4.716-1.868-.18 0-.349.01-.622.01-.173 0-.528-.01-.709.01-2.063.223-2.88.912-2.998.917-.235.01 2.148-.769 2.148-.769z" style="display:inline;fill:#000;stroke:#000;stroke-width:.26458332px;stroke-linecap:butt;stroke-linejoin:miter;stroke-opacity:1"/>
      <circle cx="139.448" cy="119.333" r="6.615" style="display:inline;fill:#000;stroke-width:.30816174"/>
    </g>
  </g>
  <path stroke-miterlimit="10" d="m107.687 101.515 324.68 334.771" style="display:inline;fill:none;stroke:#c50000;stroke-width:54.96069336;stroke-miterlimit:10"/>
</svg>
