<svg xmlns="http://www.w3.org/2000/svg" xml:space="preserve" viewBox="0 0 525.477 525.477" role="img" aria-labelledby="title">
  <title id="title">Verkehrszeichen R-35b - Ciclista, transite à direita</title>
  <path d="M.509 274.648c6.597 145.274 128.864 256.919 274.138 250.32 145.274-6.597 256.919-128.863 250.321-274.137C518.37 105.556 396.104-6.089 250.83.508 105.555 7.107-6.09 129.372.509 274.648" style="fill:#c50000"/>
  <path d="M50.457 272.378c5.324 117.241 104.682 207.966 221.92 202.642 117.241-5.323 207.967-104.681 202.643-221.92-5.323-117.24-104.682-207.965-221.921-202.641-117.242 5.323-207.966 104.68-202.642 221.919" style="fill:#fff"/>
  <path d="m238.659 262.26-77.375 52c-.5.375-.75.375-1.125.5-1.25.375-2.25.625-2.875.625-1.875 0-2.875-.25-4.875-1.75-2.125-1.5-2.875-3.875-2.875-6.25v-1.125c0-.25 0-.375.125-.5l7.5-24.75h-37.5v-37.5h37.5l-7.5-24.875c-.125-.875-.125-1.375-.125-1.75 0-5.625 4.625-7.625 7.75-7.625 1.125 0 2.125.25 3.25.625 0 0 .25.125.75.5z" style="display:inline" transform="translate(-34.645 .416)"/>
  <g style="display:inline" transform="translate(-201.112 -94.467)scale(1.3775)">
    <circle cx="373.181" cy="140.969" r="15.589"/>
    <path d="M327.339 222.312h89.523v6.483h-89.523zM365.219 387.773a5.476 5.476 0 0 0 5.475 5.477h3.65a5.476 5.476 0 0 0 5.475-5.477V285.596a5.476 5.476 0 0 0-5.475-5.477h-3.65a5.476 5.476 0 0 0-5.475 5.477z"/>
    <path d="M402.263 217.167a5.475 5.475 0 0 0 5.475 5.475h3.65a5.476 5.476 0 0 0 5.475-5.475v-25.704a5.475 5.475 0 0 0-5.475-5.475h-3.65a5.475 5.475 0 0 0-5.475 5.475zM327.339 216.836a5.476 5.476 0 0 0 5.475 5.476h3.65a5.476 5.476 0 0 0 5.475-5.476v-25.704a5.475 5.475 0 0 0-5.475-5.475h-3.65a5.475 5.475 0 0 0-5.475 5.475zM337.827 348.287a6.6 6.6 0 0 0 6.602 6.602h4.401a6.6 6.6 0 0 0 6.601-6.602v-64.664a6.6 6.6 0 0 0-6.601-6.6h-4.401a6.6 6.6 0 0 0-6.602 6.6zM393.859 298.793a6.6 6.6 0 0 0 6.602 6.602h4.401a6.6 6.6 0 0 0 6.601-6.602v-53.141c0-3.644-2.955-6.6-6.601-6.6h-4.401a6.6 6.6 0 0 0-6.602 6.6z"/>
    <path d="M393.859 305.395h17.604v8.293h-17.604zM337.827 354.889h17.604v8.293h-17.604zM355.019 296.244l11.012-13.016 12.382-.029 7.271 8.672 1.029 44.557s1.132 2.469 3.292 2.469 2.882-2.469 2.882-2.469l-.104-46.922-13.686-14.922-11.833 2.439-12.246 7.49z"/>
    <path d="M396.643 184.342h-48.621l-.169 77.935-10.026 9.946v11.4l17.192 2.744 41.624-19.601z"/>
    <path d="M402.263 195.455c0-5.453-5.62-8.644-5.62-8.644h-48.626s-6.078 2.47-6.078 7.821-14.483 4.131-14.483-4.623 17.686-31.083 24.477-31.083c5.865 0 33.49-.024 39.332-.024 10.575 0 25.566 24 25.566 31.973-.001 6.123-14.568 10.033-14.568 4.58"/>
  </g>
</svg>
