<svg xmlns="http://www.w3.org/2000/svg" xml:space="preserve" viewBox="0 0 525.477 525.477" role="img" aria-labelledby="title">
  <title id="title">Verkehrszeichen R-25d - Siga em Frente ou à Direita</title>
  <path fill="#c50000" d="M274.647.508C129.372-6.089 7.106 105.556.509 250.832c-6.598 145.273 105.046 267.54 250.321 274.137 145.274 6.598 267.541-105.046 274.138-250.321C531.566 129.372 419.922 7.107 274.647.508"/>
  <path fill="#fff" d="M272.378 50.458C155.138 45.134 55.78 135.859 50.457 253.099c-5.324 117.24 85.401 216.597 202.642 221.921 117.239 5.324 216.596-85.401 221.921-202.642 5.324-117.239-85.401-216.596-202.642-221.92"/>
  <path d="M252.953 291.909a108.8 108.8 0 0 1 39.365-21.446 108.5 108.5 0 0 1 43.968-3.791l-8.151-26.467a8.73 8.73 0 0 1 2.987-9.034c3.105-2.497 7.515-2.548 10.693-.148l80.424 57.337-80.715 55.43a8.78 8.78 0 0 1-9.522.115c-3.258-2.028-4.821-5.972-3.844-9.693l7.783-26.219a74.36 74.36 0 0 0-54.933 14.519 74.29 74.29 0 0 0-28.056 45.481v41.672h-43.92v-208.46l-24.729 6.933a8.26 8.26 0 0 1-9.03-2.894 8.26 8.26 0 0 1-.049-9.889l56.503-79.54 55.181 80.229a8.465 8.465 0 0 1-.788 10.354c-2.302 2.544-5.921 3.476-9.156 2.325l-24.012-7.149v90.335z"/>
</svg>
