<svg xmlns="http://www.w3.org/2000/svg" xml:space="preserve" viewBox="0 0 525.477 525.477" role="img" aria-labelledby="title">
  <title id="title">Verkehrszeichen R-16 - Largura Máxima Permitida</title>
  <path fill="#c50000" d="M274.647.508C129.372-6.089 7.106 105.556.509 250.832c-6.598 145.273 105.046 267.54 250.321 274.137 145.274 6.598 267.541-105.046 274.138-250.321C531.566 129.372 419.922 7.107 274.647.508"/>
  <path fill="#fff" d="M272.378 50.458C155.138 45.134 55.78 135.859 50.457 253.099c-5.324 117.24 85.401 216.597 202.642 221.921 117.239 5.324 216.596-85.401 221.921-202.642 5.324-117.239-85.401-216.596-202.642-221.92"/>
  <path d="M228.293 354.221h-17.11c-.492.024-1.008.288-1.08 1.08 0 26.35 0 52.698-.012 79.059.024.637.396 1.164 1.152 1.213h17.278c.72 0 1.164-.553 1.188-1.188V382.85c7.703-7.535 19.522-6.646 25.137.049.012 17.146.036 34.291.048 51.438-.012.648.492 1.188 1.08 1.211h19.318a1.14 1.14 0 0 0 1.067-1.055l-.012-51.594c7.787-7.943 18.059-7.031 23.865.023 0 17.109.024 34.221.024 51.354-.024.576.216 1.213 1.151 1.297h19.15c.527-.025 1.164-.432 1.164-1.164 0-20.014-.025-40.016-.025-60.029-2.674-20.109-36.307-29.085-54.713-13.535-.54.48-1.044.625-1.476.349-9.203-8.675-20.758-11.903-33.561-.853-1.116.528-2.136.769-2.483-.887v-4.08c.026-.577-.49-1.128-1.15-1.153M69.824 316.186c18.49-18.922 36.98-37.855 55.47-56.778.384-.384.384-.888-.012-1.271-18.73-17.11-37.484-34.196-56.226-51.282-.576-.648-1.392-.192-1.44.456.276 36.104.564 72.208.84 108.311.085.755.984.984 1.368.564M455.653 315.717c-18.479-18.922-36.992-37.843-55.471-56.765-.371-.36-.371-.888 0-1.272 18.742-17.122 37.496-34.196 56.215-51.282.588-.66 1.416-.204 1.463.456-.275 36.104-.563 72.232-.852 108.312-.095.803-.959.997-1.355.551M156.004 194.366c5.399 5.063 10.787 10.127 16.186 15.178.42.336.996.216 1.308-.096 5.028-6.719 12.011-10.595 21.897-10.319 10.343.528 17.53 9.863 10.871 18.25-4.379 0-8.771.108-13.139.108-.624.072-1.02.324-1.056 1.044-.012 7.259-.012 14.482-.012 21.729 0 .66.3 1.067.972 1.093l14.014.047c16.678 12.131 4.715 34.592-22.281 28.245-5.292-2.184-9.995-6.167-14.11-11.938-.528-.721-1.104-.84-1.704-.336-5.795 4.367-11.603 8.711-17.41 13.078-.504.432-.66.96-.096 1.632 8.891 10.763 19.678 19.174 35.648 21.142 40.255 5.855 68.632-32.996 40.267-63.329-.54-.612-.54-1.26 0-1.992 9.071-13.75 6.972-31.245-4.175-40.363-23.553-18.334-54.966-9.767-67.313 5.423-.323.408-.251 1.032.133 1.404M286.261 215.519c2.976-48.066 82.514-54.857 88.129-.084l-.023 38.023c-4.428 52.891-85.754 49.998-88.105.049zM257.896 315.179c-1.392 3.469-5.183 2.652-4.763-1.199l.144-31.521c4.871-12.851 22.438-6.443 20.098 5.495z"/>
  <path fill="#fff" d="M309.094 223.534c-.672-29.289 41.624-33.14 42.704-.012v26.985c-2.461 26.721-40.377 25.053-42.416.107z"/>
</svg>
