<svg xmlns="http://www.w3.org/2000/svg" xml:space="preserve" viewBox="0 0 525.477 525.477" role="img" aria-labelledby="title">
  <title id="title">Verkehrszeichen R-26 - Siga em Frente</title>
  <path fill="#c50000" d="M274.647.508C129.372-6.089 7.106 105.556.509 250.832c-6.598 145.273 105.046 267.54 250.321 274.137 145.274 6.598 267.541-105.046 274.138-250.321C531.566 129.372 419.922 7.107 274.647.508"/>
  <path fill="#fff" d="M272.378 50.458C155.138 45.134 55.78 135.859 50.457 253.099c-5.324 117.24 85.402 216.597 202.642 221.921s216.596-85.401 221.921-202.642c5.324-117.239-85.401-216.596-202.642-221.92"/>
  <path d="M241.105 455.621c-.063-10.635-1.84-294.875-1.853-294.875-.122 0-1.952.552-14.039 4.375-6.579 2.082-12.277 3.848-12.631 3.927-.483.106-.945.155-1.938.129-1.549-.04-2.32-.203-3.587-.799-2.463-1.159-4.112-3.346-4.708-6.167-.149-.707-.129-1.088-.103-2.319.036-1.641.133-2.429.625-3.469.192-.405 51.488-76.767 57.721-85.932l.32-.474c.034-.028 6.453 9.208 40.657 58.683 10.032 14.51 18.338 26.667 18.494 26.987.506 1.034.671 1.82.728 3.46.041 1.229.066 1.612-.075 2.321-.669 3.377-3.018 5.91-6.241 6.822-.959.271-3.004.335-3.934.143-.355-.074-6.075-1.769-12.681-3.768-12.17-3.684-13.996-4.199-14.12-4.198-.007-.001 1.762 284.238 1.821 294.874z"/>
</svg>
