<svg xmlns="http://www.w3.org/2000/svg" xml:space="preserve" viewBox="0 0 525.477 525.477" role="img" aria-labelledby="title">
  <title id="title">Verkehrszeichen R-27 - Veículos de grande porte mantenham-se à direita</title>
  <path d="M274.647.508C129.372-6.089 7.106 105.556.509 250.832c-6.598 145.273 105.046 267.54 250.321 274.137 145.274 6.598 267.541-105.046 274.138-250.321C531.566 129.372 419.922 7.107 274.647.508" style="fill:#c50000"/>
  <path d="M272.378 50.458C155.138 45.134 55.78 135.859 50.457 253.099c-5.324 117.24 85.401 216.597 202.642 221.921 117.239 5.324 216.596-85.401 221.921-202.642 5.324-117.239-85.401-216.596-202.642-221.92" style="fill:#fff"/>
  <path d="m215.126 258.28-77.375 52c-.5.374-.75.374-1.125.5-1.25.374-2.25.624-2.875.624-1.875 0-2.875-.25-4.875-1.75-2.125-1.5-2.875-3.875-2.875-6.25v-1.125c0-.25 0-.375.125-.5l7.5-24.75h-37.5v-37.5h37.5l-7.5-24.875c-.125-.875-.125-1.375-.125-1.75 0-5.625 4.625-7.625 7.75-7.625 1.125 0 2.125.25 3.25.625 0 0 .25.125.75.5z"/>
  <path d="m248.71 382.682-1.763-1.763v-46.75l84.918.183 84.919.182.19 23.482c.23 28.51 1.04 26.428-10.3 26.428-6.14 0-7.6-.222-9.02-1.372l-1.696-1.371-.211-20.172-.212-20.172h-4.245v39.562l-1.762 1.763c-1.645 1.644-2.26 1.762-9.21 1.762-11.22 0-10.571 1.425-10.571-23.206v-19.881l-12.03.04-12.028.041-2.673 3.51c-2.874 3.776-5.591 5.018-10.971 5.018s-8.097-1.242-10.972-5.017l-2.673-3.51-12.028-.041-12.029-.041v20.107c0 24.622.738 22.98-10.333 22.98-6.274 0-7.73-.218-9.156-1.372l-1.696-1.371-.211-20.172-.212-20.172h-4.244v19.982c0 24.557.67 23.105-10.672 23.105-6.843 0-7.468-.12-9.11-1.762m-9.226-53.949c-.627-1.633-.518-7.68.157-8.743.454-.716 19.493-.863 92.807-.719l92.235.183v10.053l-92.38.183c-83.777.165-92.423.076-92.819-.957m-2.591-18.974c-1.42-1.42-1.436-2.394-1.436-83.662s.016-82.242 1.436-83.662c1.422-1.421 2.394-1.436 95.459-1.436h94.022l1.489 1.892c1.486 1.89 1.488 2.029 1.488 83.336v81.443l-1.763 1.763-1.762 1.762h-93.749c-92.79 0-93.763-.014-95.184-1.436m30.732-19.527c.189-4.301.049-4.892-1.338-5.634-2.308-1.235-14.167-.648-15.047.745-.987 1.561-.856 8.176.182 9.214.616.616 3.175.823 8.438.682l7.553-.202zm145.786.156c.283-6.037-.304-6.482-8.562-6.482-7.664 0-8.532.612-8.532 6.012 0 2.065.398 4.153.885 4.64.616.615 3.175.822 8.438.681l7.553-.202z" style="fill:#000;stroke-width:.71812785"/>
</svg>
