<svg xmlns="http://www.w3.org/2000/svg" xml:space="preserve" viewBox="0 0 525.477 525.477" role="img" aria-labelledby="title">
  <title id="title">Verkehrszeichen R-29 - Proibido Trânsito de Pedestres</title>
  <path fill="#c50000" d="M274.647.508C129.372-6.089 7.106 105.556.509 250.832c-6.598 145.273 105.046 267.54 250.321 274.137 145.274 6.598 267.541-105.046 274.138-250.321C531.566 129.372 419.922 7.107 274.647.508"/>
  <path fill="#fff" d="M272.378 50.458C155.138 45.134 55.78 135.859 50.457 253.099c-5.324 117.24 85.401 216.597 202.642 221.921 117.239 5.324 216.596-85.401 221.921-202.642 5.324-117.239-85.401-216.596-202.642-221.92"/>
  <path d="M220.866 199.652c5.146 19.497 10.302 38.992 15.458 58.512-18.161 49.591-36.357 99.193-54.53 148.795-8.169 28.134 19.782 37.133 32.866 14.01 15.687-38.093 31.84-77.37 47.538-115.439 2.26-6.649 5.021-5.714 6.252-.228a205702 205702 0 0 1 26.171 111.96c3.581 23.545 39.084 27.423 36.62-6.617-13.964-71.711-27.904-146.048-41.846-217.748 22.154 12.288 45.131 26.183 67.331 38.458 23.467 8.396 24.367-8.818 11.544-18.618-14.716-9.583-29.82-17.945-44.515-27.518-14.704-10.563-29.397-21.116-44.079-31.668-4.29-3.377-10.382-6.104-18.276-5.442-12.458 1.723-24.574 4.46-37.007 6.172-8.031 1.927-13.245 5.407-17.193 9.56-9.457 10.815-18.926 21.619-28.394 32.433a31578 31578 0 0 0-43.329 13.998c-17.82 5.829-11.659 25.235 5.213 22.086 18.676-4.415 37.374-8.841 56.048-13.256l8.214-5.887c3.604-5.019 7.198-10.016 10.792-15.024 1.713.49 3.423.97 5.122 1.461M238.515 89.917c14.306 0 25.919 11.442 25.919 25.542 0 14.112-11.613 25.543-25.919 25.543-14.305 0-25.907-11.431-25.907-25.543 0-14.1 11.602-25.542 25.907-25.542"/>
  <path fill="none" stroke="#c50000" stroke-miterlimit="10" stroke-width="55" d="m92.239 97.739 330 330"/>
</svg>
