<svg xmlns="http://www.w3.org/2000/svg" xml:space="preserve" viewBox="0 0 525.477 525.477" role="img" aria-labelledby="title">
  <title id="title">Verkehrszeichen R-8a - Proibido mudar de faixa da esquerda para direita</title>
  <path fill="#c50000" d="M274.647.508C129.372-6.089 7.106 105.556.509 250.832c-6.598 145.273 105.046 267.54 250.321 274.137 145.274 6.598 267.541-105.046 274.138-250.321C531.566 129.372 419.922 7.107 274.647.508"/>
  <path fill="#fff" d="M272.378 50.458C155.138 45.134 55.78 135.859 50.457 253.099c-5.324 117.24 85.401 216.597 202.642 221.921 117.239 5.324 216.596-85.401 221.921-202.642 5.324-117.239-85.401-216.596-202.642-221.92"/>
  <path d="M237.747 77.134h32.209v350.604h-32.209z"/>
  <path d="m338.614 81.598-51.504 86.243h28.214v22.897c.494 51.429-20.595 45.33-64.885 60.022-36.369 6.634-88.643 33.172-93.191 53.074-15.91 26.539-11.357 76.316-11.357 119.441h54.554c-2.273-46.441-4.567-82.937 6.796-92.889 20.457-23.219 63.646-26.531 129.561-49.751 8.339-3.042 26.214-11.718 25.616-89.898V167.84h27.7z"/>
  <path fill="none" stroke="#c50000" stroke-miterlimit="10" stroke-width="55" d="m92.239 97.739 330 330"/>
</svg>
