<svg xmlns="http://www.w3.org/2000/svg" xml:space="preserve" viewBox="0 0 525.477 525.477" role="img" aria-labelledby="title">
  <title id="title">Verkehrszeichen R-5b - Proibido retornar à direita</title>
  <path fill="#c50000" d="M274.647.508C129.372-6.089 7.106 105.556.509 250.832c-6.598 145.273 105.046 267.54 250.321 274.137 145.274 6.598 267.541-105.046 274.138-250.321C531.566 129.372 419.922 7.107 274.647.508"/>
  <path fill="#fff" d="M272.378 50.458C155.138 45.134 55.78 135.859 50.457 253.099c-5.324 117.24 85.401 216.597 202.642 221.921 117.239 5.324 216.596-85.401 221.921-202.642 5.324-117.239-85.401-216.596-202.642-221.92"/>
  <path d="M270.791 314.086c0-1.4 1.159-2.21 3.5-2.45 2.329-.229 3.96-.351 4.899-.351 5.131 0 10.03.471 14.701 1.4 4.658.94 9.559 1.4 14.699 1.4v-121.8c0-7-2.1-13.88-6.3-20.65-4.2-6.76-9.57-12.83-16.101-18.2q-9.81-8.04-21-12.6c-7.47-3.03-14.699-4.55-21.699-4.55-14.47 0-27.541 4.32-39.2 12.95-11.67 8.641-19.84 19.721-24.5 33.25-.47.941-.82 2.1-1.05 3.5-.241 1.4-.591 2.57-1.05 3.5-.47 1.871-.94 3.271-1.4 4.2v208.6h-46.9v-207.2c0-14.93 3.259-28.809 9.8-41.65 6.53-12.83 15.05-23.909 25.55-33.25 10.5-9.33 22.509-16.68 36.05-22.05 13.53-5.359 27.3-8.05 41.3-8.05 12.6 0 24.73 1.871 36.4 5.6 11.659 3.741 22.4 9.1 32.199 16.1q14.701 10.5 25.201 25.2c7 9.8 12.359 20.771 16.1 32.9.459 1.4 1.4 5.02 2.8 10.85q2.1 8.762 2.101 11.55v121.8c5.129 0 10.379-.46 15.75-1.4 5.359-.93 10.609-1.4 15.75-1.4h4.199l2.801 2.801v8.75c0 .699-.471 1.99-1.4 3.85l-57.4 89.6c-.94.941-2.1 1.4-3.5 1.4s-2.57-.459-3.5-1.4l-58.8-92.399z"/>
  <path fill="none" stroke="#c50000" stroke-miterlimit="10" stroke-width="55" d="m97.739 97.739 330 330"/>
</svg>
