<svg xmlns="http://www.w3.org/2000/svg" xml:space="preserve" viewBox="0 0 525.477 525.477" role="img" aria-labelledby="title">
  <title id="title">Verkehrszeichen R-23 - Conserve-se à Direita</title>
  <path fill="#c50000" d="M274.647.508C129.372-6.089 7.106 105.556.509 250.832c-6.598 145.273 105.046 267.54 250.321 274.137 145.274 6.598 267.541-105.046 274.138-250.321C531.566 129.372 419.922 7.107 274.647.508"/>
  <path fill="#fff" d="M272.378 50.458C155.138 45.134 55.78 135.859 50.457 253.099c-5.324 117.24 85.401 216.597 202.642 221.921 117.239 5.324 216.596-85.401 221.921-202.642 5.324-117.239-85.401-216.596-202.642-221.92"/>
  <path d="M263.476 235.811c51.492-5.309 102.827-4.918 154.012.203 12.814.816 14.785 9.588 16.799 18.943 1.901 10.232 1.608 23.749-2.219 34.575-1.642 5.229-5.241 8.581-10.188 8.691l-161.63-.022c-6.748.102-10.312-3.486-12.09-8.646-3.542-9.063-3.045-23.054-2.117-34.576 1.858-14.832 9.759-18.879 17.433-19.168"/>
  <path d="M408.489 225.142c-46.421-3.809-94.007-3.605-138.107-.022-.182-.011-.158-.136-.136-.278l9.349-26.091c.341-.974.917-1.659 1.835-1.947 38.328-3.883 78.002-4.499 114.869-.418 1.448.153 2.523.86 3.045 2.366l9.406 26.209c.022.113-.022.181-.261.181m-149.948 5.36c-.271 1.353.295 3.312 2.401 3.685 53.494-4.998 105.666-4.443 156.637.209 3.104.401 4.371-2.009 3.805-4.035-3.985-14.071-7.97-28.028-11.977-42.108-.61-1.891-1.731-3.458-4.742-3.837-42.641-4.313-85.677-5.308-129.38-.011-2.187.266-4.155 1.494-4.767 3.871-3.997 14.069-7.993 28.15-11.977 42.226M255.712 299.675h169.384c7.856 0 8.557 12.11 0 12.11H255.712c-8.579.003-7.866-12.11 0-12.11M392.995 316.134c-.612.068-1.018.409-1.063.974 0 7.447.021 14.896.021 22.343.024 3.114 2.401 5.118 5.58 5.229h14.163c2.511-.159 5.603-1.539 5.556-5.229 0-7.447.014-14.896.014-22.343-.014-.521-.408-.952-1.056-.974zM287.475 316.134c.632.068 1.019.409 1.063.974v22.343c-.024 3.114-2.398 5.118-5.595 5.229h-14.146c-2.514-.159-5.616-1.539-5.582-5.229v-22.343c.012-.521.407-.952 1.053-.974zM225.835 259.928l-77.375 52c-.5.375-.75.375-1.125.5-1.25.375-2.25.625-2.875.625-1.875 0-2.875-.25-4.875-1.75-2.125-1.5-2.875-3.875-2.875-6.25v-1.125c0-.25 0-.375.125-.5l7.5-24.75h-37.5v-37.5h37.5l-7.5-24.875c-.125-.875-.125-1.375-.125-1.75 0-5.625 4.625-7.625 7.75-7.625 1.125 0 2.125.25 3.25.625 0 0 .25.125.75.5z"/>
</svg>
