<?xml version="1.0" encoding="UTF-8" standalone="no"?>
<svg
   xmlns:dc="http://purl.org/dc/elements/1.1/"
   xmlns:cc="http://creativecommons.org/ns#"
   xmlns:rdf="http://www.w3.org/1999/02/22-rdf-syntax-ns#"
   xmlns:svg="http://www.w3.org/2000/svg"
   xmlns="http://www.w3.org/2000/svg"
   viewBox="0 0 600 330"
   height="330"
   width="600"
   xml:space="preserve"
   version="1.1"
   id="svg4070"><metadata
     id="metadata4076"><rdf:RDF><cc:Work
         rdf:about=""><dc:format>image/svg+xml</dc:format><dc:type
           rdf:resource="http://purl.org/dc/dcmitype/StillImage" /><dc:title></dc:title></cc:Work></rdf:RDF></metadata><defs
     id="defs4074"><clipPath
       id="clipPath4088"
       clipPathUnits="userSpaceOnUse"><path
         id="path4090"
         d="M 0,0 480,0 480,264 0,264 0,0 Z" /></clipPath></defs><g
     transform="matrix(1.25,0,0,-1.25,0,330)"
     id="g4078"><g
       id="g4080"><g
         id="g4082"><g
           id="g4084"><g
             clip-path="url(#clipPath4088)"
             id="g4086"><g
               id="g4092"><path
                 id="path4094"
                 style="fill:#ffffff;fill-opacity:1;fill-rule:nonzero;stroke:none"
                 d="m 31.996,263.758 c -17.512,0 -31.754,-14.254 -31.754,-31.766 l 0,-199.996 C 0.242,14.484 14.484,0.242 31.996,0.242 l 416.008,0 c 17.512,0 31.754,14.242 31.754,31.754 l 0,199.996 c 0,17.512 -14.242,31.766 -31.754,31.766" /><path
                 id="path4096"
                 style="fill:#000000;fill-opacity:1;fill-rule:nonzero;stroke:none"
                 d="M 31.996,0.484 C 14.613,0.484 0.484,14.613 0.484,31.996 l 0,199.996 c 0,17.383 14.129,31.524 31.512,31.524 l 416.008,0 c 17.383,0 31.512,-14.141 31.512,-31.524 l 0,-199.996 c 0,-17.383 -14.129,-31.512 -31.512,-31.512 l -416.008,0 z M 448.004,264 31.996,264 C 14.32,264 0,249.672 0,231.992 L 0,31.996 C 0,14.328 14.32,0 31.996,0 L 448.004,0 C 465.672,0 480,14.328 480,31.996 l 0,199.996 C 480,249.672 465.672,264 448.004,264" /></g></g></g></g><path
         id="path4098"
         style="fill:#000000;fill-opacity:1;fill-rule:nonzero;stroke:none"
         d="m 31.996,19.996 416.008,0 c 6.629,0 12,5.371 12,12 l 0,199.996 c 0,6.629 -5.371,12 -12,12 l -416.008,0 c -6.629,0 -12,-5.371 -12,-12 l 0,-199.996 c 0,-6.629 5.371,-12 12,-12 z m 0,-12 c -13.258,0 -24,10.742 -24,24 l 0,199.996 c 0,13.258 10.742,24 24,24 l 416.008,0 c 13.258,0 24,-10.742 24,-24 l 0,-199.996 c 0,-13.258 -10.742,-24 -24,-24" /><path
         id="path4100"
         style="fill:#000000;fill-opacity:1;fill-rule:nonzero;stroke:none"
         d="m 80.168,187.992 -16.563,-14.297 0,-17.699 16.563,14.535 0,-94.539 16.043,0 0,112 -16.043,0 z" /><path
         id="path4102"
         style="fill:#000000;fill-opacity:1;fill-rule:nonzero;stroke:none"
         d="m 185.691,107.141 0,49.707 c 0,19.976 -14.629,32.09 -32.406,32.09 -17.773,0 -32.246,-12.114 -32.246,-32.09 l 0,-49.707 c 0,-19.977 14.473,-32.09 32.246,-32.09 17.777,0 32.406,12.113 32.406,32.09 z m -16.046,0.472 c 0,-10.855 -6.133,-18.25 -16.36,-18.25 -10.223,0 -16.199,7.395 -16.199,18.25 l 0,48.762 c 0,10.855 5.976,18.246 16.199,18.246 10.227,0 16.36,-7.391 16.36,-18.246 l 0,-48.762 z" /><path
         id="path4104"
         style="fill:#000000;fill-opacity:1;fill-rule:nonzero;stroke:none"
         d="m 271.164,107.141 0,49.707 c 0,19.976 -14.629,32.09 -32.402,32.09 -17.778,0 -32.246,-12.114 -32.246,-32.09 l 0,-49.707 c 0,-19.977 14.468,-32.09 32.246,-32.09 17.773,0 32.402,12.113 32.402,32.09 z m -16.043,0.472 c 0,-10.855 -6.137,-18.25 -16.359,-18.25 -10.227,0 -16.203,7.395 -16.203,18.25 l 0,48.762 c 0,10.855 5.976,18.246 16.203,18.246 10.222,0 16.359,-7.391 16.359,-18.246 l 0,-48.762 z" /><path
         id="path4106"
         style="fill:#000000;fill-opacity:1;fill-rule:nonzero;stroke:none"
         d="m 416.395,75.992 0,50.969 c 0,8.965 -2.36,16.516 -8.497,22.492 -4.718,4.563 -11.953,7.238 -20.132,7.238 -10.539,0 -18.563,-3.777 -25.012,-11.64 -5.035,7.707 -12.742,11.64 -22.652,11.64 -8.024,0 -15.887,-3.148 -21.239,-8.968 l 0,8.023 -15.726,0 0,-79.754 16.043,0 0,48.61 c 0,12.269 7.55,17.773 16.515,17.773 8.969,0 16.047,-5.348 16.047,-17.773 l 0,-48.61 16.043,0 0,49.395 c 0,11.484 7.867,16.988 16.52,16.988 8.965,0 16.043,-5.348 16.043,-17.773 l 0,-48.61 16.047,0 z" /></g></g></svg>