<svg xmlns="http://www.w3.org/2000/svg" version="1.0" viewBox="0 0 753.12 671.52" role="img" aria-labelledby="title">
  <title id="title">Verkehrszeichen 108[-10] - Gefälle 10 %</title>
  <path d="M71.986 631.53a32 32 0 0 1-27.713-48L348.847 55.99a32 32 0 0 1 55.426 0l304.574 527.54a32 32 0 0 1-27.713 48z" style="fill:#fff;fill-rule:evenodd;stroke:#000;stroke-width:2" transform="translate(-35.224 -31.408)scale(1.09354)"/>
  <path d="M71.986 619.53a20 20 0 0 1-17.32-30L359.24 61.99a20 20 0 0 1 34.64 0l304.575 527.54a20 20 0 0 1-17.32 30zm69.282-60L376.56 151.99l235.292 407.54z" style="fill:#c1121c;fill-rule:evenodd;stroke:none;fill-opacity:1" transform="translate(-35.224 -31.408)scale(1.09354)"/>
  <path d="M621.43 575.269H132.67L254.41 361.493zM300.522 366.71l13.221 7.504 46.097-81.473-11.792-6.432-18.224 1.786-6.075 12.865 16.08-1.787zM341.978 364.077c.972-2.852 16.196-27.785 24.294-41.677 23.404-25.887 55.49.129 47.526 22.512-8.915 16.024-25.175 45.845-26.747 48.071-19.975 19.152-52.696 3.47-45.073-28.906" style="fill:#000;fill-opacity:1;fill-rule:evenodd;stroke:none;stroke-width:1px;stroke-linecap:butt;stroke-linejoin:miter;stroke-opacity:1"/>
  <path d="m355.54 369.573 22.317-38.716c9.93-8.59 24.935-3.998 21.978 12.849l-22.147 38.884c-8.85 9.404-25.216 5.827-22.147-13.017" style="fill:#fff;fill-opacity:1;fill-rule:evenodd;stroke:none;stroke-width:1px;stroke-linecap:butt;stroke-linejoin:miter;stroke-opacity:1"/>
  <path d="M397.637 422.658c1.015 1.691 8.792 5.749 8.792 5.749l84.87-60.187-9.13-4.734zM432.207 362.668l9.187-15.094c12.592-7.418 23.286 4.327 19.897 12.876l-9.387 16.12c-9.308 8.952-22.363-.24-19.697-13.902" style="fill:#000;fill-opacity:1;fill-rule:evenodd;stroke:none;stroke-width:1px;stroke-linecap:butt;stroke-linejoin:miter;stroke-opacity:1"/>
  <path d="m439.295 366.66 6.864-12.236c4.226-3.28 8.967-1.692 7.708 4.742l-6.71 11.807c-3.766 3.591-9.169 2.883-7.862-4.314" style="fill:#fff;fill-opacity:1;fill-rule:evenodd;stroke:none;stroke-width:1px;stroke-linecap:butt;stroke-linejoin:miter;stroke-opacity:1"/>
  <path d="m428.578 428.99 9.187-15.095c12.592-7.419 23.286 4.327 19.897 12.875l-9.387 16.12c-9.308 8.952-22.363-.239-19.697-13.9" style="fill:#000;fill-opacity:1;fill-rule:evenodd;stroke:none;stroke-width:1px;stroke-linecap:butt;stroke-linejoin:miter;stroke-opacity:1"/>
  <path d="m435.666 432.98 6.864-12.236c4.226-3.28 8.967-1.691 7.708 4.743l-6.71 11.806c-3.766 3.592-9.168 2.884-7.862-4.313" style="fill:#fff;fill-opacity:1;fill-rule:evenodd;stroke:none;stroke-width:1px;stroke-linecap:butt;stroke-linejoin:miter;stroke-opacity:1"/>
</svg>
