<svg xmlns="http://www.w3.org/2000/svg" xml:space="preserve" viewBox="0 0 847.159 743.623" role="img" aria-labelledby="title">
  <title id="title">Verkehrszeichen 123 - Arbeitsstelle</title>
  <path d="M338.859 594.5c7.512 0 15.028-2.867 20.758-8.598a29.3 29.3 0 0 0 4.707-6.152l15.246-26.157h.071L672.742 45.554c.055-.097.098-.195.153-.293a29.4 29.4 0 0 0 3.425-7.91c4.196-15.656-5.097-31.754-20.757-35.949a29.2 29.2 0 0 0-7.739-1H29.758C13.543.402.402 13.543.402 29.758a29.2 29.2 0 0 0 3.879 14.578q.028.046.051.097l304.367 528.41c3.864 6.665 5.653 9.305 9.406 13.059a29.26 29.26 0 0 0 20.754 8.598" style="fill:#fff;fill-opacity:1;fill-rule:nonzero;stroke:none" transform="matrix(1.25 0 0 -1.25 0 743.623)"/>
  <path d="M338.859 587.144c7.125.051 14.95-3.59 18.782-10.406L666.934 40.847c1.785-3.648 2.535-6.82 2.558-10.449 0-6.496-2.875-12.66-7.847-16.84-4.383-3.394-8.536-5.16-14.122-5.16H29.617c-3.769-.035-7.547.871-10.976 3.133A21.55 21.55 0 0 0 8.23 29.957c.184 3.894 1.145 8 2.879 10.89l309.114 535.981q.041.07.09.14.046.07.093.145a20 20 0 0 0 4.039 4.633 22 22 0 0 0 12.825 5.316c.531.047 1.062.078 1.589.082M647.523 8.398h1.524-1.555zM339.18 480.933 103.477 72.398h471.738z" style="fill:#c1121c;fill-opacity:1;fill-rule:nonzero;stroke:none" transform="matrix(1.25 0 0 -1.25 0 743.623)"/>
  <path d="M338.859 594.898c7.618 0 15.231-2.906 21.039-8.715a29.7 29.7 0 0 0 4.774-6.234l15.129-25.957h.07L673.086 45.754c.066-.118.113-.219.16-.301a29.8 29.8 0 0 0 3.461-7.996c4.25-15.871-5.172-32.188-21.039-36.442A30 30 0 0 0 647.824 0H29.758C13.328 0 0 13.328 0 29.758a29.6 29.6 0 0 0 3.934 14.773q.016.028.05.098l304.364 528.414c3.871 6.668 5.695 9.363 9.468 13.14 5.809 5.809 13.426 8.715 21.039 8.715zm0-.398a29.26 29.26 0 0 1-20.754-8.598c-3.753-3.754-5.542-6.394-9.406-13.059L4.336 44.433c-.02-.035-.035-.066-.055-.097A29.2 29.2 0 0 1 .402 29.758C.402 13.543 13.543.402 29.758.402h618.066a29.2 29.2 0 0 1 7.739 1c15.66 4.195 24.953 20.293 20.757 35.949a29.2 29.2 0 0 1-3.425 7.91c-.055.098-.098.196-.153.293L379.641 553.593h-.071l-15.246 26.157a29.3 29.3 0 0 1-4.707 6.152c-5.73 5.731-13.242 8.598-20.758 8.598" style="fill:#000;fill-opacity:1;fill-rule:nonzero;stroke:none" transform="matrix(1.25 0 0 -1.25 0 743.623)"/>
  <path d="m342.805 102.695 33.308 39.785c1.848.926 3.703 2.774 5.551 2.774l6.477 2.777c3.703.926 7.402 3.703 10.179 6.477l23.129 26.828c10.176 12.953 28.68 13.879 40.707 3.703 1.848-.926 3.703-2.778 4.625-4.625l60.141-77.715c1.848-2.777 1.848-6.477-.93-8.328-.926-.926-2.773-1.848-3.699-1.848H347.43c-3.703 0-5.551 2.774-5.551 6.477 0 .925 0 2.773.926 3.699zm44.41 223.898c0-12.027-10.176-22.207-22.203-22.207-12.028 0-22.207 10.18-22.207 22.207s10.179 21.278 22.207 21.278c12.027 0 22.203-9.25 22.203-21.278m-120.274-93.445 32.379 61.063h-23.129l-13.878-25.907 13.878-12.027-4.625-8.324-13.878 11.101-6.473-12.027c-10.18 5.551-13.879 18.504-8.328 27.754l16.652 32.383c2.774 4.625 7.402 7.402 12.953 7.402h51.809c12.953 0 23.133-10.18 23.133-23.133v-1.847l-5.551-86.969 54.586-46.258c-1.848-1.848-4.625-3.703-8.328-5.551l-47.184 39.782-.926-10.176c-11.105.926-19.429 10.176-18.504 21.277v4.629l-13.879 11.102 4.625 8.324 10.176-7.399 1.852 36.082-21.281-40.711-36.082 19.43zm60.137-140.629c-12.953 0-24.055 10.176-24.055 23.129l-1.847 49.035-24.055 37.008-58.289-109.172c-11.102 6.477-15.727 20.356-9.25 32.383l54.586 102.695 36.082-18.504 23.129-36.082c0-.925.926-1.847.926-2.777" style="fill:#000;fill-opacity:1;fill-rule:nonzero;stroke:none" transform="matrix(1.25 0 0 -1.25 0 743.623)"/>
</svg>
