<?xml version="1.0" encoding="UTF-8" standalone="no"?>
<svg
   xmlns:dc="http://purl.org/dc/elements/1.1/"
   xmlns:cc="http://creativecommons.org/ns#"
   xmlns:rdf="http://www.w3.org/1999/02/22-rdf-syntax-ns#"
   xmlns:svg="http://www.w3.org/2000/svg"
   xmlns="http://www.w3.org/2000/svg"
   viewBox="0 0 600 600"
   height="600"
   width="600"
   xml:space="preserve"
   id="svg4950"
   version="1.1"><metadata
     id="metadata4956"><rdf:RDF><cc:Work
         rdf:about=""><dc:format>image/svg+xml</dc:format><dc:type
           rdf:resource="http://purl.org/dc/dcmitype/StillImage" /><dc:title></dc:title></cc:Work></rdf:RDF></metadata><defs
     id="defs4954" /><g
     transform="matrix(1.3333333,0,0,-1.3333333,0,600)"
     id="g4958"><g
       id="g4960"><path
         id="path4962"
         style="fill:#ffffff;fill-opacity:1;fill-rule:nonzero;stroke:none"
         d="M 28.543,449.777 C 0.16,449.777 0.223,421.52 0.223,421.52 V 28.48 c 0,0 -0.063,-28.253 28.32,-28.253 h 392.914 c 28.383,0 28.316,28.253 28.316,28.253 v 393.04 c 0,0 0.067,28.257 -28.316,28.257 z" /><path
         id="path4964"
         style="fill:#000000;fill-opacity:1;fill-rule:nonzero;stroke:none"
         d="M 27.945,442.359 C 7.641,442.395 7.715,422.121 7.715,422.121 V 27.879 c 0,0 -0.074,-20.274 20.23,-20.238 h 394.114 c 20.304,-0.036 20.226,20.238 20.226,20.238 v 394.242 c 0,0 0.078,20.274 -20.226,20.238 z m 0,-11.238 h 394.114 c 0,0 8.964,-0.359 8.984,-9 V 27.879 c -0.02,-8.641 -8.984,-8.996 -8.984,-8.996 H 27.945 c 0,0 -8.968,0.355 -8.988,8.996 v 394.242 c 0.02,8.641 8.988,9 8.988,9 z" /><path
         id="path4966"
         style="fill:#000000;fill-opacity:1;fill-rule:nonzero;stroke:none"
         d="M 28.543,450 C 14.277,450 7.098,442.867 3.539,435.746 -0.02,428.629 0,421.516 0,421.516 V 28.48 c 0,0 -0.02,-7.109 3.539,-14.226 C 7.098,7.137 14.277,0 28.543,0 h 392.914 c 14.266,0 21.445,7.137 25.004,14.254 3.559,7.117 3.539,14.23 3.539,14.23 v 393.032 c 0,0.004 0.02,7.113 -3.539,14.23 C 442.902,442.863 435.723,450 421.457,450 Z m 0,-0.223 h 392.914 c 28.383,0 28.316,-28.257 28.316,-28.257 V 28.48 c 0,0 0.067,-28.253 -28.316,-28.253 H 28.543 C 0.16,0.227 0.223,28.48 0.223,28.48 v 393.04 c 0,0 -0.063,28.257 28.32,28.257 z" /><path
         id="path4968"
         style="fill:#000000;fill-opacity:1;fill-rule:nonzero;stroke:none"
         d="m 288.684,45.805 v 63.066 h 40.558 V 99.867 H 298.266 V 81.844 h 26.472 V 73.398 H 298.266 V 54.82 h 30.976 v -9.015 z m -61.93,0 v 63.066 h 9.012 l 28.722,-45.039 v 45.039 h 9.567 V 45.805 h -9.012 l -28.707,45.05 V 45.805 Z M 178.906,67.77 c 0,-7.149 5.785,-12.95 12.938,-12.95 7.16,0 12.949,5.801 12.949,12.95 v 19.152 c 0,7.137 -5.789,12.945 -12.949,12.945 -7.153,0 -12.938,-5.808 -12.938,-12.945 z m -9.582,0 v 19.152 c 0,12.437 10.09,22.516 22.52,22.516 12.437,0 22.527,-10.079 22.527,-22.516 V 67.77 c 0,-12.438 -10.09,-22.516 -22.527,-22.516 -12.43,0 -22.52,10.078 -22.52,22.516 z M 119.777,45.805 v 7.89 l 28.719,46.731 h -27.594 v 8.445 h 39.418 v -7.309 L 131.605,54.82 h 28.715 v -9.015" /><path
         id="path4970"
         style="fill:#154889;fill-opacity:1;fill-rule:nonzero;stroke:none"
         d="m 359.645,269.859 c 0,-74.554 -60.442,-135 -135,-135 -74.559,0 -135,60.446 -135,135 0,74.559 60.441,135 135,135 74.558,0 135,-60.441 135,-135 z" /><path
         id="path4972"
         style="fill:#ffffff;fill-opacity:1;fill-rule:evenodd;stroke:none"
         d="m 208.059,336.141 h -14.571 l -1.871,-0.215 -1.879,-0.434 -1.8,-0.648 -1.735,-0.864 -1.586,-1.015 -1.512,-1.223 -1.3,-1.445 -1.153,-1.512 -0.941,-1.656 -0.789,-1.731 -0.289,-0.941 -12.117,-38.875 -2.524,0.438 -5.117,0.359 -5.121,-0.215 -5.051,-0.941 -4.976,-1.442 -4.688,-2.16 -4.402,-2.668 -4.039,-3.176 -3.602,-3.683 -3.101,-4.035 -2.598,-4.469 -2.024,-4.695 -1.437,-4.969 -0.793,-5.055 -0.219,-5.191 0.508,-5.118 1.078,-4.98 1.735,-4.828 2.304,-4.621 2.813,-4.25 3.39,-3.899 3.821,-3.461 4.183,-2.957 4.547,-2.378 4.832,-1.805 4.977,-1.223 5.117,-0.578 h 5.191 l 5.051,0.719 4.977,1.297 4.832,1.953 4.472,2.449 4.184,3.031 3.754,3.531 3.238,3.969 2.742,4.328 2.239,4.688 1.586,4.902 1.007,4.977 0.364,5.121 -0.219,5.121 -0.938,5.047 -1.515,4.906 -2.16,4.688 -2.668,4.398 -3.176,4.035 -3.75,3.61 -4.039,3.105 -4.473,2.594 -2.379,1.082 3.317,10.597 48.972,-54.378 0.289,-0.286 0.653,-0.578 0.715,-0.578 0.722,-0.433 0.793,-0.286 0.867,-0.289 0.864,-0.218 0.867,-0.071 h 17.816 l 0.574,-2.453 1.661,-4.832 2.234,-4.613 2.812,-4.328 3.243,-3.965 3.757,-3.465 4.18,-3.031 4.473,-2.449 4.758,-1.879 4.976,-1.297 5.125,-0.719 h 5.117 l 5.047,0.578 4.977,1.223 4.832,1.805 4.547,2.378 4.183,2.961 3.821,3.457 3.316,3.825 2.887,4.328 2.304,4.543 1.735,4.828 1.078,4.98 0.504,5.047 -0.145,5.195 -0.785,5.051 -1.445,4.899 -2.02,4.765 -2.523,4.399 -3.106,4.113 -3.601,3.676 -3.969,3.172 -4.398,2.738 -4.688,2.094 -4.832,1.515 -5.051,0.938 -5.191,0.289 -5.051,-0.359 -5.047,-0.942 -2.449,-0.719 -12.047,26.903 3.098,8.293 h 9.305 v 8.293 h -35.625 l -0.215,-0.075 -0.223,-0.07 -0.285,-0.144 -0.141,-0.145 -0.219,-0.144 -0.144,-0.215 -0.145,-0.219 -0.144,-0.215 -0.074,-0.215 -0.071,-0.222 v -0.786 l 0.071,-0.222 0.074,-0.215 0.289,-0.43 0.144,-0.219 0.219,-0.144 0.215,-0.141 0.211,-0.144 0.223,-0.074 h 0.14 l 17.528,-4.254 -3.098,-8.293 h -74.074 l 3.316,10.742 0.219,0.504 0.359,0.871 0.508,0.789 0.574,0.793 0.653,0.652 0.718,0.649 0.793,0.504 0.868,0.433 0.937,0.36 0.934,0.214 0.941,0.075 h 14.063 z m -27.407,-33.176 51.856,-57.625 21.637,57.625 z m -16.586,-25.387 -2.019,0.289 -4.039,0.211 -4.11,-0.281 -3.972,-0.797 -3.891,-1.297 -3.676,-1.73 -3.464,-2.164 -3.176,-2.598 -2.813,-2.957 -2.453,-3.246 -2.015,-3.606 -1.516,-3.746 -1.082,-3.972 -0.578,-4.036 -0.145,-4.039 0.434,-4.113 0.941,-3.891 1.367,-3.824 1.875,-3.609 2.235,-3.387 2.668,-3.097 3.101,-2.743 3.321,-2.312 3.601,-1.942 3.824,-1.445 3.969,-0.941 4.039,-0.504 4.113,0.078 4.036,0.5 3.968,1.082 3.821,1.445 3.535,1.946 3.316,2.453 3.031,2.742 2.59,3.098 2.243,3.464 1.8,3.606 1.371,3.82 0.797,3.969 0.36,4.113 -0.145,4.035 -0.652,4.039 -1.153,3.965 -1.585,3.75 -2.094,3.461 -2.453,3.254 -2.883,2.953 -3.172,2.52 -3.465,2.164 -1.871,0.871 -9.738,-31.449 -0.074,-0.215 -0.215,-0.504 -0.289,-0.434 -0.286,-0.433 -0.437,-0.36 -0.356,-0.285 -0.507,-0.293 -0.434,-0.144 -0.504,-0.145 -0.508,-0.07 h -1.078 l -0.504,0.144 -0.504,0.215 -0.437,0.215 -0.43,0.293 -0.367,0.356 -0.355,0.437 -0.289,0.434 -0.215,0.429 -0.293,1.008 v 1.012 l 0.074,0.578 0.074,0.215 z m 77.168,-32.668 h 8.297 l 0.071,2.449 0.503,4.832 1.157,4.688 1.656,4.543 2.234,4.402 2.668,4.035 3.176,3.68 3.535,3.316 3.895,2.883 2.09,1.231 -8.582,19.258 z m 16.586,0 h 28.852 l -12.766,28.485 -1.586,-1.008 -3.031,-2.313 -2.668,-2.668 -2.453,-2.953 -2.09,-3.172 -1.66,-3.394 -1.297,-3.606 -0.863,-3.676 -0.438,-3.82 z m 1.012,-8.297 0.578,-1.875 1.516,-3.754 1.875,-3.531 2.379,-3.32 2.668,-2.957 3.101,-2.664 3.321,-2.235 3.675,-1.804 3.746,-1.371 3.969,-0.868 4.043,-0.433 4.035,0.078 3.969,0.57 3.891,1.086 3.754,1.512 3.531,1.945 3.25,2.383 2.953,2.813 2.602,3.031 2.16,3.39 1.804,3.676 1.297,3.75 0.867,3.899 0.36,4.035 -0.145,4.039 -0.648,4.039 -1.086,3.82 -1.586,3.754 -2.016,3.531 -2.379,3.176 -2.812,2.961 -3.106,2.52 -3.39,2.164 -3.676,1.73 -3.82,1.297 -3.969,0.797 -4.039,0.281 -4.039,-0.14 -3.965,-0.719 -1.949,-0.504 15.289,-34.258 0.07,-0.215 0.145,-0.508 0.144,-0.433 v -1.012 l -0.07,-0.43 -0.145,-0.507 -0.211,-0.43 -0.222,-0.434 -0.289,-0.359 -0.719,-0.723 -0.43,-0.215 -0.871,-0.433 -0.43,-0.074 -0.503,-0.071 z" /></g></g></svg>