<svg xmlns="http://www.w3.org/2000/svg" xml:space="preserve" viewBox="0 0 600.995 600.995" role="img" aria-labelledby="title">
  <title id="title">Verkehrszeichen 262[5.5] - </title>
  <path d="M480.398 240.398c0-132.551-107.449-240-240-240s-240 107.449-240 240 107.45 240 240 240 240-107.45 240-240" style="fill:#fff;fill-opacity:1;fill-rule:nonzero;stroke:none" transform="matrix(1.25 0 0 -1.25 0 600.995)"/>
  <path d="M240.398 480.796C107.633 480.796 0 373.163 0 240.398 0 107.632 107.633-.001 240.398-.001c132.766 0 240.399 107.633 240.399 240.399 0 132.765-107.633 240.398-240.399 240.398m0-.398c132.551 0 240-107.45 240-240s-107.449-240-240-240-240 107.449-240 240 107.45 240 240 240" style="fill:#000;fill-opacity:1;fill-rule:nonzero;stroke:none" transform="matrix(1.25 0 0 -1.25 0 600.995)"/>
  <path d="M240.398 472.398c-127.746 0-232-104.254-232-232 0-127.747 104.254-232 232-232 127.747 0 232 104.253 232 232 0 127.746-104.253 232-232 232m0-64.321c92.989 0 167.68-74.691 167.68-167.679 0-92.989-74.691-167.68-167.68-167.68-92.988 0-167.679 74.691-167.679 167.68 0 92.988 74.691 167.679 167.679 167.679" style="fill:#c1121c;fill-opacity:1;fill-rule:nonzero;stroke:none" transform="matrix(1.25 0 0 -1.25 0 600.995)"/>
  <path d="M23.832 456.511v-.024h-.023z" style="fill:#000;fill-opacity:1;fill-rule:nonzero;stroke:none" transform="matrix(1.25 0 0 -1.25 0 600.995)"/>
  <path d="M23.809 456.511h.023v-.023h-.023z" style="fill:#000;fill-opacity:1;fill-rule:nonzero;stroke:none" transform="matrix(1.25 0 0 -1.25 0 600.995)"/>
  <path d="M23.809 456.487v.024l.023-.024zm.023 0-.023.024v-.024z" style="fill:#000;fill-opacity:1;fill-rule:nonzero;stroke:none" transform="matrix(1.25 0 0 -1.25 0 600.995)"/>
  <path d="M23.859 456.487h-.05.023v.024z" style="fill:#000;fill-opacity:1;fill-rule:nonzero;stroke:none" transform="matrix(1.25 0 0 -1.25 0 600.995)"/>
  <path d="M23.809 456.487v.024zl.023.024z" style="fill:#000;fill-opacity:1;fill-rule:nonzero;stroke:none" transform="matrix(1.25 0 0 -1.25 0 600.995)"/>
  <path d="M23.809 456.511h.023v-.023h-.023zM23.859 456.511v-.047h-.05z" style="fill:#000;fill-opacity:1;fill-rule:nonzero;stroke:none" transform="matrix(1.25 0 0 -1.25 0 600.995)"/>
  <path d="M23.809 456.511h.051v-.047h-.051z" style="fill:#000;fill-opacity:1;fill-rule:nonzero;stroke:none" transform="matrix(1.25 0 0 -1.25 0 600.995)"/>
  <path d="M23.809 456.464v.047l.05-.047zm.05 0-.05.047v-.047z" style="fill:#000;fill-opacity:1;fill-rule:nonzero;stroke:none" transform="matrix(1.25 0 0 -1.25 0 600.995)"/>
  <path d="M23.859 456.464h-.05.023v.047z" style="fill:#000;fill-opacity:1;fill-rule:nonzero;stroke:none" transform="matrix(1.25 0 0 -1.25 0 600.995)"/>
  <path d="M23.809 456.464v.047zl.05.047z" style="fill:#000;fill-opacity:1;fill-rule:nonzero;stroke:none" transform="matrix(1.25 0 0 -1.25 0 600.995)"/>
  <path d="M23.809 456.511h.051v-.047h-.051z" style="fill:#000;fill-opacity:1;fill-rule:nonzero;stroke:none" transform="matrix(1.25 0 0 -1.25 0 600.995)"/>
  <path d="M23.859 456.511v-.047h-.05z" style="fill:#000;fill-opacity:1;fill-rule:nonzero;stroke:none" transform="matrix(1.25 0 0 -1.25 0 600.995)"/>
  <path d="M23.809 456.511h.051v-.047h-.051z" style="fill:#000;fill-opacity:1;fill-rule:nonzero;stroke:none" transform="matrix(1.25 0 0 -1.25 0 600.995)"/>
  <path d="M23.809 456.464v.047l.05-.047zm.05 0-.05.047v-.047z" style="fill:#000;fill-opacity:1;fill-rule:nonzero;stroke:none" transform="matrix(1.25 0 0 -1.25 0 600.995)"/>
  <path d="M23.859 456.464h-.05.023v.047z" style="fill:#000;fill-opacity:1;fill-rule:nonzero;stroke:none" transform="matrix(1.25 0 0 -1.25 0 600.995)"/>
  <path d="M23.809 456.464v.047zl.05.047z" style="fill:#000;fill-opacity:1;fill-rule:nonzero;stroke:none" transform="matrix(1.25 0 0 -1.25 0 600.995)"/>
  <path d="M23.809 456.511h.051v-.047h-.051z" style="fill:#000;fill-opacity:1;fill-rule:nonzero;stroke:none" transform="matrix(1.25 0 0 -1.25 0 600.995)"/>
  <path d="M23.859 456.511v-.047h-.05z" style="fill:#000;fill-opacity:1;fill-rule:nonzero;stroke:none" transform="matrix(1.25 0 0 -1.25 0 600.995)"/>
  <path d="M23.809 456.511h.051v-.047h-.051z" style="fill:#000;fill-opacity:1;fill-rule:nonzero;stroke:none" transform="matrix(1.25 0 0 -1.25 0 600.995)"/>
  <path d="M23.809 456.464v.047l.05-.047zm.05 0-.05.047v-.047z" style="fill:#000;fill-opacity:1;fill-rule:nonzero;stroke:none" transform="matrix(1.25 0 0 -1.25 0 600.995)"/>
  <path d="M23.859 456.464h-.05.023v.047z" style="fill:#000;fill-opacity:1;fill-rule:nonzero;stroke:none" transform="matrix(1.25 0 0 -1.25 0 600.995)"/>
  <path d="M23.809 456.464v.047zl.05.047z" style="fill:#000;fill-opacity:1;fill-rule:nonzero;stroke:none" transform="matrix(1.25 0 0 -1.25 0 600.995)"/>
  <path d="M23.809 456.511h.051v-.047h-.051z" style="fill:#000;fill-opacity:1;fill-rule:nonzero;stroke:none" transform="matrix(1.25 0 0 -1.25 0 600.995)"/>
  <path d="m205.805 177.441 21.363.101v-21.875l-21.344-15.742z" style="fill:#000;fill-opacity:1;fill-rule:evenodd;stroke:none" transform="matrix(1.25 0 0 -1.25 0 600.995)"/>
  <path d="M192.566 339.101h-74.832v-98.407h23.067c1.535 3.079 4.355 9.997 13.324 9.997 7.176 0 12.301-5.895 12.301-13.071v-42.797c0-8.457-4.613-13.582-12.301-13.582s-13.324 5.125-13.324 14.094v6.664H114.66v-7.687c0-24.348 18.195-39.211 38.953-39.211s38.953 14.863 38.953 39.211v47.152c0 21.016-12.3 32.289-29.984 32.289-9.227 0-16.914-3.844-21.781-8.457v49.203h51.765zM304.41 299.101h-58.562v-77.012h18.05c1.204 2.406 3.411 7.82 10.43 7.82 5.613 0 9.625-4.613 9.625-10.226v-33.496c0-6.618-3.609-10.629-9.625-10.629-6.019 0-10.43 4.011-10.43 11.031v5.215h-20.457v-6.016c0-19.055 14.239-30.687 30.485-30.687s30.484 11.632 30.484 30.687v36.903c0 16.445-9.629 25.269-23.465 25.269-7.218 0-13.238-3.008-17.047-6.617v38.504h40.512zM333.047 257.987h-10.231v-16.043h10.231v-61.773c0-10.828 6.215-23.867 24.668-23.867h8.422v19.254c-9.024 0-12.637.601-12.637 10.027v56.359h12.637v16.043H353.5v30.887h-20.453z" style="fill:#000;fill-opacity:1;fill-rule:nonzero;stroke:none" transform="matrix(1.25 0 0 -1.25 0 600.995)"/>
</svg>
