<svg xmlns="http://www.w3.org/2000/svg" version="1.0" viewBox="0 0 600 600" role="img" aria-labelledby="title">
  <title id="title">Verkehrszeichen 278-70 - Ende der zulässigen Höchst­geschwindigkeit</title>
  <path d="M590.688 288.077C589.791 140.658 481.403 16.725 334.979-1.421 168.024-22.77 18.138 102.184 7.104 269.722c-10.13 168.36 123.002 309.576 291.584 310.355 161.976-1.036 290.88-129.968 292-292" style="fill:#fffefe;fill-rule:evenodd;stroke:#000;stroke-opacity:1" transform="translate(1.375 11.861)"/>
  <path d="m592.063 299.938-.835-18.354m0 0-4.588-36.292m0 0-9.177-35.457m0 0-13.349-34.206m0 0-17.52-32.12m0 0-21.691-29.617m0 0-25.029-26.697m0 0-28.366-23.36m0 0L440.64 44.229m0 0-32.955-15.851m0 0-35.04-11.263m0 0-36.291-6.674m0 0-36.292-2.503m0 0-36.708 2.503m0 0-35.874 6.674m0 0-35.04 11.263m0 0-32.955 15.851m0 0-30.868 19.606m0 0-28.366 23.36m0 0-25.029 26.697m0 0-21.691 29.617m0 0-17.52 32.12m0 0-13.766 34.206m0 0-9.177 35.457m0 0-4.589 36.292m0 0v36.708m0 0 4.589 36.292m0 0 9.177 35.457m0 0 13.766 34.206m0 0 17.52 32.12m0 0 21.691 29.617m0 0 25.029 26.697m0 0 28.366 23.36m0 0 30.868 19.606m0 0 32.954 15.434m0 0 35.04 11.68m0 0 35.875 6.674m0 0 36.708 2.503m0 0 36.292-2.503m0 0 36.291-6.674m0 0 35.04-11.68m0 0 32.955-15.434m0 0 30.868-19.606m0 0 28.366-23.36m0 0 25.029-26.697m0 0 21.691-29.617m0 0 17.52-32.12m0 0 13.349-34.206m0 0 9.177-35.457m0 0 4.588-36.292m0 0 .835-18.354"/>
  <path d="M580.677 288.077c.458-141.718-105.99-262.32-246.532-279.903C172.975-12.6 26.89 108.399 17.115 270.557 6.709 432.193 136.42 570.803 298.689 570.066c155.413.598 282.315-126.75 281.989-281.99" style="fill:#000;fill-rule:evenodd;stroke:none" transform="translate(1.375 11.861)"/>
  <path d="M522.276 141.242c153.912 247.401-123.015 524.336-370.423 370.424zm-7.508-11.263-3.337-4.171-2.92-4.171L132.247 497.9l4.172 2.92 4.171 3.337zm-15.434-18.771-6.675-7.509L114.31 482.05l7.509 6.674zm-23.778-24.194 3.755 3.754 3.754 3.337-378.349 378.35-3.337-3.755-3.754-3.754zm-18.771-15.017 4.171 3.337 3.755 2.92L88.865 454.1l-2.92-3.754-3.338-4.172zm-11.263-7.509C197.85-89.452-78.84 187.239 75.1 434.911z" style="fill:#fffefe;fill-rule:evenodd;stroke:none" transform="translate(1.375 11.861)"/>
  <path d="M393.555 153.826c-1.871 0-3.712.072-5.54.176l-76.23 76.23c-.115 2.083-.178 4.201-.178 6.362v8l90.336-90.336a84 84 0 0 0-8.388-.432m-269.606 2.46v82.767h40.973V197.26h76.21L185.347 337.9l76.06-76.06 25.617-64.58v-40.975zm294.276 1.296-38.875 38.875c4.552-1.098 9.286-1.656 14.205-1.656q1.019.002 2.015.035l33.184-33.184a86 86 0 0 0-10.53-4.07m-53.56 1c-10.056 3.54-19.278 9.042-27.653 16.55q-15.068 13.125-21.2 32.302zm76.401 9.945-29.498 29.498a43 43 0 0 1 8.588 5.596l29.127-29.127a110 110 0 0 0-8.217-5.967m17.887 15.903-30.424 30.424a33 33 0 0 1 2.721 5.35 72 72 0 0 1 1.225 5.304l32.295-32.295a66 66 0 0 0-5.817-8.783m11.44 21.931-36.684 36.684v117.289q0 10.653-2.459 18.848-1.64 4.096-4.098 7.375-2.46 3.276-4.097 6.554a306 306 0 0 1-7.375 5.737q-3.279 1.637-5.737 2.459-5.736 3.276-16.388 3.277-10.655 0-17.21-3.277-4.918-.82-12.292-8.196a303 303 0 0 1-5.737-7.375q-1.638-3.278-2.457-6.554-3.279-9.834-3.279-18.848v-36.16l-40.95 40.951q.708 39.226 25.382 59.127 25.402 21.306 56.543 21.307 30.319 0 56.543-21.307 24.582-22.126 24.584-61.461V236.594c0-11.174-1.434-21.248-4.29-30.233m-114.434 13.487-44.352 44.351v14.6l40.983-40.985c.053-5.352 1.139-11.22 3.27-17.61.029-.12.068-.238.099-.356m-3.379 37.166-40.973 40.972v14.184l40.973-40.973zm0 33.789-40.973 40.974v14.598l40.973-40.973zm-103.516 2.15-76.06 76.06-9.324 23.508 76.06-76.06zm-22.214 56.004-76.059 76.059-7.174 18.084h3.688l69.947-69.946zm-22.215 56.004L166.496 443.1h14.182l14.633-14.633z" style="fill:#999;fill-rule:evenodd;stroke:none"/>
</svg>
