<svg xmlns="http://www.w3.org/2000/svg" xml:space="preserve" viewBox="0 0 1703.626 1802.039" role="img" aria-labelledby="title">
  <title id="title">Verkehrszeichen 297.1-21 - Vorankündigungspfeil - zur Anzeige eines Fahrstreifenendes</title>
  <path d="m132.523 1.939 278.715 1348.098 455.242.031L1145.195 1.939Z" style="fill:#999;fill-opacity:1;fill-rule:evenodd;stroke:none" transform="matrix(1.33333 0 0 -1.33333 0 1802.039)"/>
  <path d="M357.625 1349.904.727 1.939l131.796-.094 278.715 1347.926Z" style="fill:#fff;fill-opacity:1;fill-rule:evenodd;stroke:none" transform="matrix(1.33333 0 0 -1.33333 0 1802.039)"/>
  <path d="M421.219 1.625c-.434 0-.864 0 0 0z" style="fill:none;stroke:#000;stroke-width:.75;stroke-linecap:butt;stroke-linejoin:miter;stroke-miterlimit:4;stroke-dasharray:none;stroke-opacity:1" transform="matrix(1.33333 0 0 1.33333 0 0)"/>
  <path d="M357.625 1.133.727 1349.59M113.91 1349.684 396.102 1.258M411.238 1.352 132.523 1350.703" style="fill:none;stroke:#000;stroke-width:1.5;stroke-linecap:butt;stroke-linejoin:miter;stroke-miterlimit:4;stroke-dasharray:none;stroke-opacity:1" transform="matrix(1.33333 0 0 1.33333 0 0)"/>
  <path d="M861.379.375c.434 0 .867 0 0 0z" style="fill:none;stroke:#000;stroke-width:.75;stroke-linecap:butt;stroke-linejoin:miter;stroke-miterlimit:4;stroke-dasharray:none;stroke-opacity:1" transform="matrix(1.33333 0 0 1.33333 0 0)"/>
  <path d="M613.59 103.814h40.387L655.051.002h-42.363zM621.738 1300.135h.25l-1.293-188.621h26.348l-1.297 188.621h.25zM619.059 873.072l-3.067-446.414h35.754l-3.066 446.414z" style="fill:#fff;fill-opacity:1;fill-rule:nonzero;stroke:none" transform="matrix(1.33333 0 0 -1.33333 0 1802.039)"/>
  <path d="M920.094 1349.904 1276.996 1.939l-131.801-.094L866.48 1349.771Z" style="fill:#fff;fill-opacity:1;fill-rule:evenodd;stroke:none" transform="matrix(1.33333 0 0 -1.33333 0 1802.039)"/>
  <path d="M-856.5 1.625c-.434 0-.863 0 0 0z" style="fill:none;stroke:#000;stroke-width:.75;stroke-linecap:butt;stroke-linejoin:miter;stroke-miterlimit:4;stroke-dasharray:none;stroke-opacity:1" transform="matrix(-1.33333 0 0 1.33333 0 0)"/>
  <path d="m-920.094 1.133-356.902 1348.457M-1163.809 1349.684-881.617 1.258M-866.48 1.352l-278.715 1349.355" style="fill:none;stroke:#000;stroke-width:1.5;stroke-linecap:butt;stroke-linejoin:miter;stroke-miterlimit:4;stroke-dasharray:none;stroke-opacity:1" transform="matrix(-1.33333 0 0 1.33333 0 0)"/>
  <path d="m597.324 1154.314-135.785-61.699v-76.543l-102.43-102.434V779.771l102.43 162.063v-74.68zM562.824 579.814l-158.742-62.035v-88.016L261.727 293.408l-21-222.16 163.355 252.609V223.349Z" style="fill:#fff;fill-opacity:1;fill-rule:nonzero;stroke:none" transform="matrix(1.33333 0 0 -1.33333 0 1802.039)"/>
</svg>
