<svg xmlns="http://www.w3.org/2000/svg" version="1.0" viewBox="0 0 2580 520" role="img" aria-labelledby="title">
  <title id="title">Verkehrszeichen 293 - Fußgängerüberweg</title>
  <path d="M282.597 513.231h2017.1l-700.57-485.66H981.475z" style="fill:#999;fill-opacity:1;fill-rule:evenodd;stroke:none;stroke-width:1px;stroke-linecap:butt;stroke-linejoin:miter;stroke-opacity:1"/>
  <path d="M898.442 342.092h-91.08l137.016-148.896h60.192z" style="fill:#fff;fill-opacity:1;fill-rule:evenodd;stroke:#000;stroke-width:2;stroke-linecap:butt;stroke-linejoin:miter;stroke-miterlimit:4;stroke-dasharray:none;stroke-opacity:1"/>
  <path d="M924.902 6.799 10.656 447.188l273.51.584-.041-.584-.014 65.134L980.205 28.964l.188-21.66z" style="fill:#fff;fill-opacity:1;fill-rule:evenodd;stroke:#000;stroke-width:3;stroke-linecap:butt;stroke-linejoin:miter;stroke-miterlimit:4;stroke-dasharray:none;stroke-opacity:1"/>
  <path d="M281.751 449.774 979.783 8.11" style="fill:none;fill-opacity:1;fill-rule:evenodd;stroke:#000;stroke-width:3;stroke-linecap:butt;stroke-linejoin:miter;stroke-miterlimit:4;stroke-dasharray:none;stroke-opacity:1"/>
  <path d="m1656.31 6.036 914.246 440.389-273.51.584.041-.584.014 65.134L1601.007 28.2l-.188-21.66z" style="fill:#fff;fill-opacity:1;fill-rule:evenodd;stroke:#000;stroke-width:3;stroke-linecap:butt;stroke-linejoin:miter;stroke-miterlimit:4;stroke-dasharray:none;stroke-opacity:1"/>
  <path d="M2299.461 449.011 1601.429 7.347" style="fill:none;fill-opacity:1;fill-rule:evenodd;stroke:#000;stroke-width:3;stroke-linecap:butt;stroke-linejoin:miter;stroke-miterlimit:4;stroke-dasharray:none;stroke-opacity:1"/>
  <path d="M1328.186 341.8h91.872l-40.392-149.688h-59.4zM1502.426 341.8h91.08l-87.12-148.896h-61.776zM1675.082 341.8h91.08l-137.016-148.896h-60.192zM1849.172 341.508h91.08l-183.744-148.104h-60.984zM1246.292 342.092h-91.872l40.392-149.688h59.4zM1072.052 342.092h-91.08l87.12-148.896h61.776zM724.352 342.092h-91.08l183.744-148.104H878z" style="fill:#fff;fill-opacity:1;fill-rule:evenodd;stroke:#000;stroke-width:2;stroke-linecap:butt;stroke-linejoin:miter;stroke-miterlimit:4;stroke-dasharray:none;stroke-opacity:1"/>
</svg>
