<svg xmlns="http://www.w3.org/2000/svg" xml:space="preserve" viewBox="0 0 601.001 601.002" role="img" aria-labelledby="title">
  <title id="title">Verkehrszeichen 314 - Parken</title>
  <path d="M27.375 450.376c-27.059.016-27-27.004-27-27.004V27.376s-.059-27.023 27-27h396c27.234-.027 27 27 27 27v395.996s.223 27.094-27 27.004z" style="fill:#fff;fill-opacity:1;fill-rule:nonzero;stroke:none" transform="matrix(1.33333 0 0 -1.33333 0 601.002)"/>
  <path d="M27.375 441.376c-9.937 0-18-8.058-18-18v-396c0-9.949 8.063-18 18-18h396c9.941 0 18 8.051 18 18v396c0 9.942-8.059 18-18 18z" style="fill:#154889;fill-opacity:1;fill-rule:nonzero;stroke:none" transform="matrix(1.33333 0 0 -1.33333 0 601.002)"/>
  <path d="M27.375 450.751c-13.656.008-20.57-6.859-23.984-13.703S0 423.368 0 423.368V27.376S-.02 20.54 3.391 13.7C6.805 6.857 13.719-.011 27.375.001h396c13.742-.015 20.66 6.856 24.051 13.699 3.387 6.84 3.324 13.672 3.324 13.676v395.996c0 .004.059 6.852-3.332 13.7-3.391 6.851-10.309 13.722-24.043 13.679zm0-.375h396c27.223.09 27-27.004 27-27.004V27.376s.234-27.027-27-27h-396c-27.059-.023-27 27-27 27v395.996s-.059 27.02 27 27.004" style="fill:#000;fill-opacity:1;fill-rule:nonzero;stroke:none" transform="matrix(1.33333 0 0 -1.33333 0 601.002)"/>
  <path d="M235.605 337.462H163.25v-99.926h74.031c17.172 0 29.961 5.254 38.438 15.739 8.437 10.484 12.676 21.882 12.676 34.222 0 18.692-6.645 32.446-19.895 41.258-8.523 5.801-19.477 8.707-32.895 8.707m-73.246-269.59h-47.894l.445 314.817 118.27.183c12.023 0 23.633-1.277 34.769-3.84 11.137-2.566 22.719-8.601 34.746-18.07 9.36-7.32 17.313-17.359 23.817-30.168 6.511-12.808 9.777-27.664 9.777-44.578 0-22.352-8.207-43.633-24.625-63.82-16.422-20.18-40.418-30.274-71.98-30.274H163.25Z" style="fill:#fff;fill-opacity:1;fill-rule:nonzero;stroke:none" transform="matrix(1.33333 0 0 -1.33333 0 601.002)"/>
</svg>
