<?xml version="1.0" encoding="UTF-8" standalone="no"?>
<svg
   xmlns:dc="http://purl.org/dc/elements/1.1/"
   xmlns:cc="http://creativecommons.org/ns#"
   xmlns:rdf="http://www.w3.org/1999/02/22-rdf-syntax-ns#"
   xmlns:svg="http://www.w3.org/2000/svg"
   xmlns="http://www.w3.org/2000/svg"
   viewBox="0 0 3601.9309 2401.9495"
   height="2401.9495"
   width="3601.9309"
   xml:space="preserve"
   id="svg27314"
   version="1.1"><metadata
     id="metadata27320"><rdf:RDF><cc:Work
         rdf:about=""><dc:format>image/svg+xml</dc:format><dc:type
           rdf:resource="http://purl.org/dc/dcmitype/StillImage" /><dc:title></dc:title></cc:Work></rdf:RDF></metadata><defs
     id="defs27318"><clipPath
       id="clipPath27334"
       clipPathUnits="userSpaceOnUse"><path
         id="path27332"
         d="M 0,0 H 2702 V 1802 H 0 Z" /></clipPath><clipPath
       id="clipPath27382"
       clipPathUnits="userSpaceOnUse"><path
         id="path27380"
         d="m 39,1760.462 h 2623 v -1720 H 39 Z" /></clipPath><clipPath
       id="clipPath27392"
       clipPathUnits="userSpaceOnUse"><path
         id="path27390"
         d="M 39,41 H 2662 V 1761 H 39 Z" /></clipPath></defs><g
     transform="matrix(1.3333333,0,0,-1.3333333,0,2401.9495)"
     id="g27322"><g
       id="g27324"><g
         transform="translate(0,-0.537842)"
         id="g27326"><g
           id="g27328"><g
             clip-path="url(#clipPath27334)"
             id="g27330"><g
               id="g27336"><path
                 id="path27338"
                 style="fill:#000000;fill-opacity:1;fill-rule:nonzero;stroke:none"
                 d="m 454.754,1415.449 h 29.574 l -9.105,24.117 c -2.766,7.336 -4.848,13.372 -6.176,18.082 -1.125,-5.597 -2.695,-11.121 -4.707,-16.648 z m -25.145,-35.82 33.5,87.195 h 12.418 l 35.649,-87.195 h -13.133 l -10.164,26.402 H 451.41 l -9.551,-26.402 z" /><path
                 id="path27340"
                 style="fill:#000000;fill-opacity:1;fill-rule:nonzero;stroke:none"
                 d="m 560.441,1379.641 v 9.281 c -4.949,-7.164 -11.601,-10.711 -20.058,-10.711 -3.719,0 -7.199,0.715 -10.442,2.148 -3.207,1.399 -5.628,3.207 -7.164,5.391 -1.601,2.148 -2.695,4.773 -3.308,7.914 -0.442,2.113 -0.649,5.422 -0.649,9.996 v 39.125 h 10.68 v -35 c 0,-5.629 0.238,-9.379 0.648,-11.324 0.68,-2.797 2.114,-5.016 4.297,-6.617 2.184,-1.606 4.879,-2.422 8.086,-2.422 3.207,0 6.207,0.816 9.039,2.453 2.832,1.672 4.809,3.926 5.969,6.723 1.16,2.863 1.774,6.957 1.774,12.347 v 33.84 h 10.679 v -63.144 z" /><path
                 id="path27342"
                 style="fill:#000000;fill-opacity:1;fill-rule:nonzero;stroke:none"
                 d="m 582.496,1398.492 10.578,1.672 c 0.578,-4.23 2.25,-7.504 4.981,-9.754 2.695,-2.254 6.48,-3.414 11.359,-3.414 4.945,0 8.598,1.024 10.949,3.004 2.387,2.012 3.582,4.367 3.582,7.063 0,2.421 -1.058,4.332 -3.172,5.73 -1.468,0.953 -5.117,2.148 -10.949,3.613 -7.812,1.981 -13.273,3.688 -16.308,5.153 -3.036,1.433 -5.321,3.445 -6.891,6.004 -1.57,2.558 -2.352,5.355 -2.352,8.46 0,2.797 0.645,5.426 1.942,7.813 1.262,2.422 3.039,4.398 5.254,5.969 1.672,1.23 3.926,2.285 6.789,3.14 2.898,0.852 5.969,1.293 9.281,1.293 4.945,0 9.277,-0.75 13.031,-2.183 3.75,-1.399 6.516,-3.34 8.289,-5.762 1.809,-2.457 3.036,-5.699 3.684,-9.793 l -10.438,-1.434 c -0.48,3.243 -1.878,5.766 -4.164,7.61 -2.25,1.84 -5.492,2.73 -9.652,2.73 -4.914,0 -8.426,-0.785 -10.508,-2.426 -2.117,-1.636 -3.172,-3.546 -3.172,-5.695 0,-1.398 0.442,-2.66 1.329,-3.754 0.855,-1.156 2.218,-2.113 4.093,-2.863 1.059,-0.41 4.231,-1.297 9.449,-2.73 7.575,-2.012 12.864,-3.684 15.829,-4.981 3.004,-1.262 5.359,-3.172 7.097,-5.629 1.672,-2.457 2.524,-5.492 2.524,-9.14 0,-3.583 -1.059,-6.926 -3.106,-10.098 -2.078,-3.141 -5.117,-5.563 -9.004,-7.301 -3.922,-1.707 -8.39,-2.559 -13.34,-2.559 -8.218,0 -14.464,1.708 -18.761,5.118 -4.297,3.41 -7.063,8.461 -8.223,15.144" /><path
                 id="path27344"
                 style="fill:#000000;fill-opacity:1;fill-rule:nonzero;stroke:none"
                 d="m 650.203,1379.641 v 54.824 h -9.449 v 8.32 h 9.449 v 6.723 c 0,4.23 0.375,7.402 1.125,9.449 1.059,2.797 2.867,5.047 5.457,6.754 2.594,1.738 6.246,2.594 10.918,2.594 3.004,0 6.344,-0.344 9.996,-1.094 l -1.605,-9.313 c -2.215,0.375 -4.332,0.582 -6.309,0.582 -3.277,0 -5.562,-0.683 -6.89,-2.082 -1.368,-1.363 -2.016,-3.957 -2.016,-7.777 v -5.836 h 12.281 v -8.32 h -12.281 v -54.824 z" /><path
                 id="path27346"
                 style="fill:#000000;fill-opacity:1;fill-rule:nonzero;stroke:none"
                 d="m 712.371,1467.352 h 11.192 v -12.18 h -11.192 z m -22.172,0 h 11.188 v -12.18 h -11.188 z m 32.715,-87.707 v 9.281 c -4.949,-7.164 -11.633,-10.711 -20.059,-10.711 -3.718,0 -7.234,0.715 -10.441,2.148 -3.238,1.399 -5.629,3.207 -7.195,5.356 -1.571,2.183 -2.664,4.808 -3.313,7.949 -0.406,2.113 -0.644,5.422 -0.644,9.992 v 39.129 h 10.711 v -35.035 c 0,-5.594 0.203,-9.344 0.648,-11.289 0.68,-2.797 2.078,-5.016 4.262,-6.652 2.219,-1.571 4.879,-2.391 8.121,-2.391 3.207,0 6.207,0.82 9.004,2.457 2.832,1.672 4.812,3.926 5.972,6.723 1.192,2.863 1.774,6.957 1.774,12.347 v 33.84 h 10.711 v -63.144 z" /><path
                 id="path27348"
                 style="fill:#000000;fill-opacity:1;fill-rule:nonzero;stroke:none"
                 d="m 749.238,1379.641 v 87.16 h 10.711 v -31.246 c 4.981,5.765 11.293,8.664 18.899,8.664 4.675,0 8.734,-0.922 12.179,-2.762 3.446,-1.844 5.934,-4.402 7.403,-7.641 1.5,-3.242 2.25,-7.984 2.25,-14.16 v -40.015 h -10.711 v 40.015 c 0,5.356 -1.192,9.246 -3.481,11.703 -2.316,2.422 -5.629,3.649 -9.855,3.649 -3.176,0 -6.141,-0.817 -8.942,-2.488 -2.796,-1.637 -4.808,-3.856 -5.968,-6.688 -1.192,-2.797 -1.774,-6.687 -1.774,-11.633 v -34.558 z" /><path
                 id="path27350"
                 style="fill:#000000;fill-opacity:1;fill-rule:nonzero;stroke:none"
                 d="m 816.84,1379.641 v 63.144 h 9.621 v -9.551 c 2.457,4.469 4.742,7.403 6.824,8.836 2.078,1.434 4.363,2.149 6.856,2.149 3.617,0 7.265,-1.16 10.984,-3.446 l -3.684,-9.925 c -2.593,1.535 -5.218,2.32 -7.812,2.32 -2.356,0 -4.469,-0.719 -6.313,-2.117 -1.875,-1.434 -3.207,-3.375 -3.988,-5.867 -1.195,-3.786 -1.808,-7.95 -1.808,-12.485 v -33.058 z" /><path
                 id="path27352"
                 style="fill:#000000;fill-opacity:1;fill-rule:nonzero;stroke:none"
                 d="m 898.902,1379.641 v 9.281 c -4.91,-7.164 -11.597,-10.711 -20.058,-10.711 -3.715,0 -7.196,0.715 -10.438,2.148 -3.207,1.399 -5.593,3.207 -7.164,5.391 -1.601,2.148 -2.695,4.773 -3.308,7.914 -0.442,2.113 -0.649,5.422 -0.649,9.996 v 39.125 h 10.68 v -35 c 0,-5.629 0.238,-9.379 0.648,-11.324 0.68,-2.797 2.114,-5.016 4.297,-6.617 2.184,-1.606 4.879,-2.422 8.086,-2.422 3.207,0 6.207,0.816 9.039,2.453 2.832,1.672 4.809,3.926 5.969,6.723 1.16,2.863 1.773,6.957 1.773,12.347 v 33.84 h 10.68 v -63.144 z" /><path
                 id="path27354"
                 style="fill:#000000;fill-opacity:1;fill-rule:nonzero;stroke:none"
                 d="m 925.242,1379.641 v 63.144 h 9.621 v -8.969 c 4.641,6.922 11.36,10.403 20.094,10.403 3.82,0 7.301,-0.68 10.508,-2.047 3.203,-1.363 5.558,-3.172 7.16,-5.391 1.605,-2.215 2.695,-4.843 3.344,-7.879 0.375,-2.011 0.582,-5.492 0.582,-10.437 v -38.824 H 965.84 v 38.414 c 0,4.367 -0.41,7.605 -1.231,9.789 -0.851,2.148 -2.32,3.89 -4.433,5.152 -2.149,1.297 -4.606,1.945 -7.473,1.945 -4.57,0 -8.492,-1.433 -11.801,-4.332 -3.308,-2.902 -4.949,-8.394 -4.949,-16.476 v -34.492 z" /><path
                 id="path27356"
                 style="fill:#000000;fill-opacity:1;fill-rule:nonzero;stroke:none"
                 d="m 999.855,1412.34 c 0,-8.289 1.637,-14.328 4.95,-18.113 3.308,-3.821 7.402,-5.731 12.383,-5.731 4.875,0 9.003,1.91 12.347,5.695 3.309,3.789 4.981,9.688 4.981,17.809 0,7.742 -1.707,13.543 -5.118,17.465 -3.445,3.922 -7.574,5.902 -12.418,5.902 -4.742,0 -8.765,-1.945 -12.144,-5.801 -3.309,-3.886 -4.981,-9.617 -4.981,-17.226 m -8.835,-37.934 10.406,-1.535 c 0.41,-3.207 1.637,-5.562 3.617,-7.027 2.66,-1.981 6.277,-2.969 10.879,-2.969 4.949,0 8.769,0.988 11.465,2.969 2.726,1.976 4.535,4.777 5.457,8.324 0.582,2.184 0.82,6.754 0.785,13.746 -4.672,-5.527 -10.473,-8.254 -17.465,-8.254 -8.699,0 -15.422,3.106 -20.164,9.379 -4.742,6.246 -7.129,13.785 -7.129,22.516 0,6.039 1.094,11.601 3.242,16.683 2.215,5.117 5.356,9.039 9.516,11.836 4.129,2.762 9.008,4.164 14.601,4.164 7.438,0 13.579,-3.039 18.422,-9.074 v 7.606 h 9.895 v -54.547 c 0,-9.825 -1.024,-16.821 -3.039,-20.914 -1.977,-4.09 -5.149,-7.332 -9.516,-9.719 -4.332,-2.391 -9.656,-3.582 -16.035,-3.582 -7.504,0 -13.609,1.703 -18.25,5.082 -4.641,3.41 -6.855,8.492 -6.687,15.316" /><path
                 id="path27358"
                 style="fill:#000000;fill-opacity:1;fill-rule:nonzero;stroke:none"
                 d="m 1094.543,1379.641 v 63.144 h 9.617 v -8.969 c 4.641,6.922 11.363,10.403 20.094,10.403 3.82,0 7.301,-0.68 10.508,-2.047 3.207,-1.363 5.558,-3.172 7.164,-5.391 1.601,-2.215 2.695,-4.843 3.344,-7.879 0.375,-2.011 0.578,-5.492 0.578,-10.437 v -38.824 h -10.711 v 38.414 c 0,4.367 -0.41,7.605 -1.227,9.789 -0.855,2.148 -2.32,3.89 -4.437,5.152 -2.149,1.297 -4.606,1.945 -7.469,1.945 -4.57,0 -8.496,-1.433 -11.805,-4.332 -3.308,-2.902 -4.98,-8.394 -4.98,-16.476 v -34.492 z" /><path
                 id="path27360"
                 style="fill:#000000;fill-opacity:1;fill-rule:nonzero;stroke:none"
                 d="m 1202.578,1411.344 c -3.887,-1.602 -9.723,-2.934 -17.465,-4.059 -4.402,-0.613 -7.539,-1.332 -9.347,-2.148 -1.809,-0.785 -3.243,-1.946 -4.231,-3.481 -0.988,-1.5 -1.5,-3.207 -1.5,-5.082 0,-2.832 1.09,-5.219 3.274,-7.133 2.152,-1.875 5.289,-2.828 9.449,-2.828 4.129,0 7.812,0.887 11.019,2.696 3.207,1.804 5.563,4.261 7.063,7.402 1.16,2.422 1.738,6.004 1.738,10.676 z m 0.887,-23.914 c -3.957,-3.375 -7.777,-5.731 -11.426,-7.129 -3.684,-1.399 -7.609,-2.082 -11.84,-2.082 -6.922,0 -12.246,1.672 -15.996,5.086 -3.687,3.375 -5.562,7.707 -5.562,12.961 0,3.14 0.683,5.937 2.117,8.496 1.398,2.558 3.238,4.605 5.523,6.172 2.285,1.535 4.844,2.695 7.711,3.48 2.082,0.547 5.254,1.125 9.485,1.606 8.664,1.054 15.043,2.25 19.101,3.714 0.035,1.469 0.07,2.391 0.07,2.766 0,4.367 -1.023,7.469 -3.035,9.211 -2.73,2.457 -6.824,3.648 -12.179,3.648 -5.051,0 -8.77,-0.886 -11.192,-2.625 -2.387,-1.773 -4.125,-4.914 -5.32,-9.382 l -10.438,1.433 c 0.954,4.469 2.524,8.086 4.672,10.813 2.184,2.797 5.356,4.914 9.485,6.379 4.129,1.503 8.871,2.253 14.328,2.253 5.39,0 9.754,-0.648 13.133,-1.91 3.343,-1.297 5.832,-2.867 7.437,-4.812 1.602,-1.91 2.695,-4.332 3.344,-7.266 0.34,-1.84 0.512,-5.117 0.512,-9.859 v -14.258 c 0,-9.996 0.238,-16.273 0.679,-18.898 0.481,-2.629 1.367,-5.188 2.696,-7.575 h -11.153 c -1.094,2.219 -1.844,4.809 -2.152,7.778" /><path
                 id="path27362"
                 style="fill:#000000;fill-opacity:1;fill-rule:nonzero;stroke:none"
                 d="m 1271.203,1402.781 10.508,-1.398 c -1.129,-7.231 -4.094,-12.93 -8.836,-17.024 -4.711,-4.093 -10.543,-6.14 -17.434,-6.14 -8.628,0 -15.589,2.832 -20.843,8.461 -5.254,5.664 -7.879,13.75 -7.879,24.289 0,6.824 1.125,12.793 3.375,17.91 2.289,5.117 5.699,8.937 10.34,11.496 4.601,2.559 9.652,3.855 15.078,3.855 6.855,0 12.449,-1.742 16.816,-5.218 4.367,-3.481 7.164,-8.395 8.391,-14.774 l -10.403,-1.601 c -0.992,4.23 -2.73,7.437 -5.253,9.586 -2.524,2.113 -5.563,3.207 -9.145,3.207 -5.391,0 -9.789,-1.946 -13.133,-5.836 -3.375,-3.856 -5.082,-9.961 -5.082,-18.317 0,-8.461 1.637,-14.636 4.91,-18.492 3.242,-3.855 7.473,-5.765 12.727,-5.765 4.195,0 7.676,1.296 10.508,3.855 2.828,2.594 4.605,6.551 5.355,11.906" /><path
                 id="path27364"
                 style="fill:#000000;fill-opacity:1;fill-rule:nonzero;stroke:none"
                 d="m 1290.891,1379.641 v 87.16 h 10.714 v -31.246 c 4.981,5.765 11.29,8.664 18.899,8.664 4.672,0 8.73,-0.922 12.176,-2.762 3.445,-1.844 5.937,-4.402 7.406,-7.641 1.5,-3.242 2.25,-7.984 2.25,-14.16 v -40.015 h -10.711 v 40.015 c 0,5.356 -1.195,9.246 -3.48,11.703 -2.321,2.422 -5.629,3.649 -9.86,3.649 -3.172,0 -6.14,-0.817 -8.937,-2.488 -2.797,-1.637 -4.809,-3.856 -5.969,-6.688 -1.195,-2.797 -1.774,-6.687 -1.774,-11.633 v -34.558 z" /><path
                 id="path27366"
                 style="fill:#000000;fill-opacity:1;fill-rule:nonzero;stroke:none"
                 d="m 1405.523,1428.324 h 24.801 c 5.289,0 9.414,0.547 12.348,1.641 3.004,1.09 5.254,2.863 6.789,5.254 1.535,2.386 2.32,4.98 2.32,7.808 0,4.129 -1.5,7.508 -4.468,10.168 -3,2.66 -7.711,3.993 -14.192,3.993 h -27.598 z m -11.531,-48.679 v 87.16 h 38.653 c 7.777,0 13.679,-0.785 17.703,-2.352 4.062,-1.57 7.269,-4.301 9.722,-8.258 2.391,-3.988 3.618,-8.355 3.618,-13.168 0,-6.172 -2.012,-11.39 -6.04,-15.621 -3.988,-4.23 -10.164,-6.961 -18.523,-8.086 3.07,-1.468 5.355,-2.933 6.961,-4.367 3.344,-3.07 6.551,-6.957 9.586,-11.598 l 15.144,-23.71 h -14.496 l -11.531,18.148 c -3.379,5.223 -6.141,9.211 -8.359,11.977 -2.149,2.796 -4.125,4.742 -5.832,5.832 -1.739,1.125 -3.481,1.875 -5.254,2.32 -1.332,0.273 -3.446,0.441 -6.446,0.441 h -13.375 v -38.718 z" /><path
                 id="path27368"
                 style="fill:#000000;fill-opacity:1;fill-rule:nonzero;stroke:none"
                 d="m 1503.762,1389.227 1.535,-9.45 c -3.004,-0.648 -5.699,-0.957 -8.051,-0.957 -3.926,0 -6.926,0.614 -9.074,1.844 -2.117,1.227 -3.617,2.828 -4.504,4.844 -0.887,1.976 -1.332,6.207 -1.332,12.621 v 36.332 h -7.844 v 8.324 h 7.844 v 15.656 l 10.68,6.414 v -22.07 h 10.746 v -8.324 h -10.746 v -36.914 c 0,-3.07 0.172,-5.012 0.547,-5.899 0.375,-0.855 0.988,-1.535 1.839,-2.082 0.852,-0.511 2.082,-0.785 3.653,-0.785 1.191,0 2.761,0.172 4.707,0.446" /><path
                 id="path27370"
                 style="fill:#000000;fill-opacity:1;fill-rule:nonzero;stroke:none"
                 d="m 1526.66,1389.93 h 21.695 c 3.754,0 6.348,0.136 7.848,0.41 2.66,0.476 4.879,1.262 6.652,2.387 1.809,1.093 3.243,2.73 4.403,4.847 1.16,2.114 1.738,4.571 1.738,7.332 0,3.242 -0.82,6.074 -2.492,8.496 -1.668,2.387 -3.988,4.094 -6.957,5.047 -2.934,0.957 -7.199,1.434 -12.723,1.434 h -20.164 z m 0,40.254 h 18.832 c 5.117,0 8.801,0.343 11.02,1.023 2.933,0.856 5.117,2.285 6.617,4.332 1.5,2.016 2.25,4.574 2.25,7.609 0,2.899 -0.715,5.426 -2.078,7.641 -1.434,2.219 -3.379,3.719 -5.973,4.504 -2.558,0.82 -6.992,1.227 -13.269,1.227 h -17.399 z m -11.562,-50.555 v 87.195 h 32.746 c 6.621,0 11.976,-0.886 16,-2.66 4.027,-1.742 7.164,-4.473 9.449,-8.156 2.285,-3.649 3.445,-7.469 3.445,-11.496 0,-3.719 -1.023,-7.231 -3.035,-10.508 -2.047,-3.309 -5.082,-5.969 -9.176,-7.981 5.289,-1.535 9.313,-4.195 12.18,-7.914 2.832,-3.718 4.231,-8.121 4.231,-13.203 0,-4.058 -0.856,-7.879 -2.594,-11.394 -1.707,-3.512 -3.856,-6.207 -6.379,-8.117 -2.524,-1.911 -5.731,-3.309 -9.551,-4.297 -3.824,-0.957 -8.496,-1.469 -14.059,-1.469 z" /><path
                 id="path27372"
                 style="fill:#ffffff;fill-opacity:1;fill-rule:evenodd;stroke:none"
                 d="m 108.734,1.07 -5.593,0.172 -5.594,0.477 -5.426,0.683 -5.422,0.852 -5.254,1.195 -4.914,1.535 -5.25,1.704 -4.605,1.843 -4.914,2.219 -4.571,2.352 -4.57,2.73 -4.574,2.727 -4.094,3.039 -4.058,3.207 -3.887,3.41 -3.719,3.547 -3.582,3.718 -3.379,3.922 -3.207,3.891 -3.07,4.57 -2.727,4.231 -2.695,4.402 -2.356,4.774 -2.218,4.742 -1.875,4.914 -1.707,4.91 -1.5,5.254 -1.192,5.254 -0.855,5.289 -0.68,5.387 -0.512,5.425 -0.171,5.594 v 1584.063 l 0.171,5.593 0.512,5.426 0.68,5.422 0.855,5.254 1.192,5.254 1.5,5.082 1.707,5.086 1.875,4.91 2.218,4.742 2.356,4.742 2.695,4.266 2.727,4.398 3.07,4.231 3.207,4.058 3.379,4.094 3.582,3.719 3.719,3.547 3.887,3.414 4.058,3.207 4.094,3.07 4.574,2.692 4.57,2.73 4.571,2.356 4.914,2.046 4.605,2.012 5.25,1.707 4.914,1.363 5.254,1.364 5.422,0.855 5.426,0.645 5.594,0.511 5.593,0.172 h 2483.875 l 5.563,-0.172 5.629,-0.511 5.422,-0.645 5.425,-0.855 5.254,-1.364 4.911,-1.363 4.914,-1.707 4.91,-2.012 4.914,-2.046 4.57,-2.356 4.606,-2.73 4.57,-2.692 4.058,-3.07 4.063,-3.207 3.922,-3.414 3.719,-3.547 3.546,-3.719 3.411,-4.094 3.242,-4.058 3.004,-4.231 2.726,-4.398 2.696,-4.266 2.386,-4.742 2.219,-4.742 1.875,-4.91 1.672,-5.086 1.367,-5.082 1.363,-5.254 0.852,-5.254 0.684,-5.422 0.476,-5.426 0.172,-5.593 V 109.039 l -0.172,-5.594 -0.476,-5.425 -0.684,-5.387 -0.852,-5.289 -1.363,-5.254 -1.367,-5.254 -1.672,-4.91 -1.875,-4.914 -2.219,-4.742 -2.386,-4.774 -2.696,-4.402 -2.726,-4.231 -3.004,-4.57 -3.242,-3.891 -3.411,-3.922 -3.546,-3.718 -3.719,-3.547 -3.922,-3.41 -4.063,-3.207 -4.058,-3.039 -4.57,-2.727 -4.606,-2.73 -4.57,-2.352 -4.914,-2.219 -4.91,-1.843 -4.914,-1.704 -4.911,-1.535 -5.254,-1.195 -5.425,-0.852 -5.422,-0.683 -5.629,-0.477 -5.563,-0.172 z" /><path
                 id="path27374"
                 style="fill:#000000;fill-opacity:1;fill-rule:evenodd;stroke:none"
                 d="m 108.738,1801.625 -5.597,-0.199 -5.664,-0.469 -5.399,-0.664 -5.461,-0.867 -5.332,-1.399 -4.93,-1.332 -5.265,-1.734 -4.664,-1.996 -4.863,-2.067 -4.665,-2.398 -4.527,-2.73 -4.601,-2.668 -4.129,-3.129 -4.063,-3.2 -3.933,-3.464 -3.731,-3.532 -3.598,-3.73 -3.398,-4.133 -3.199,-4.062 -3.129,-4.266 -2.735,-4.398 -2.73,-4.329 -2.332,-4.73 -2.266,-4.797 -1.867,-4.934 -1.73,-5.128 -1.465,-5.063 -1.199,-5.332 -0.868,-5.262 L 0.73,1704.148 0.199,1698.75 0,1693.09 V 109.008 l 0.199,-5.598 0.531,-5.461 0.668,-5.398 0.868,-5.328 1.199,-5.266 1.465,-5.262 1.73,-4.933 1.867,-4.996 2.266,-4.731 2.332,-4.797 2.73,-4.465 2.735,-4.199 3.062,-4.594 3.266,-3.933 3.398,-3.93 3.598,-3.73 3.731,-3.598 3.933,-3.398 4.063,-3.2 4.129,-3.066 4.601,-2.73 4.527,-2.797 4.598,-2.332 4.93,-2.266 4.664,-1.801 5.265,-1.73 4.93,-1.531 5.332,-1.2 5.461,-0.867 5.399,-0.668 5.664,-0.531 5.597,-0.133 h 2483.891 l 5.594,0.133 5.664,0.531 5.398,0.668 5.461,0.867 5.266,1.2 4.996,1.531 4.933,1.73 4.926,1.801 4.934,2.266 4.597,2.332 4.598,2.797 4.598,2.73 4.129,3.066 4.062,3.2 3.934,3.398 3.73,3.598 3.531,3.73 3.465,3.93 3.266,3.933 2.996,4.594 2.734,4.199 2.731,4.465 2.398,4.797 2.2,4.731 1.933,4.996 1.664,4.933 1.332,5.262 1.399,5.266 0.867,5.328 0.668,5.398 0.465,5.461 0.199,5.598 v 1584.078 l -0.199,5.664 -0.465,5.398 -0.668,5.461 -0.867,5.332 -1.399,5.262 -1.332,5.067 -1.664,5.128 -1.933,4.93 -2.2,4.797 -2.398,4.73 -2.731,4.333 -2.734,4.398 -2.996,4.262 -3.266,4.066 -3.398,4.129 -3.598,3.73 -3.73,3.532 -3.934,3.465 -4.062,3.199 -4.129,3.133 -4.598,2.664 -4.598,2.734 -4.597,2.395 -4.934,2.066 -4.926,2 -4.933,1.73 -4.996,1.336 -5.266,1.399 -5.461,0.867 -5.398,0.664 -5.664,0.469 -5.594,0.199 z m 0,-0.555 h 2483.871 l 5.563,-0.172 5.629,-0.511 5.422,-0.645 5.425,-0.855 5.254,-1.364 4.911,-1.367 4.914,-1.703 4.91,-2.012 4.914,-2.046 4.57,-2.356 4.606,-2.726 4.57,-2.696 4.058,-3.07 4.063,-3.207 3.922,-3.414 3.719,-3.547 3.546,-3.719 3.415,-4.094 3.238,-4.058 3.004,-4.231 2.726,-4.398 2.696,-4.266 2.39,-4.742 2.215,-4.742 1.875,-4.914 1.672,-5.082 1.367,-5.082 1.363,-5.254 0.856,-5.254 0.68,-5.422 0.48,-5.426 0.168,-5.593 V 109.039 l -0.168,-5.594 -0.48,-5.422 -0.68,-5.39 -0.856,-5.289 -1.363,-5.254 -1.367,-5.254 -1.672,-4.91 -1.875,-4.914 -2.215,-4.742 -2.39,-4.778 -2.696,-4.398 -2.726,-4.231 -3.004,-4.57 -3.238,-3.891 -3.415,-3.922 -3.546,-3.718 -3.719,-3.547 -3.922,-3.41 -4.063,-3.207 -4.058,-3.039 -4.57,-2.727 -4.606,-2.73 -4.57,-2.352 -4.914,-2.219 -4.91,-1.843 -4.914,-1.704 -4.911,-1.535 -5.254,-1.195 -5.425,-0.852 -5.422,-0.683 -5.629,-0.477 -5.563,-0.172 H 108.738 l -5.597,0.172 -5.594,0.477 -5.426,0.683 -5.422,0.852 -5.254,1.195 -4.91,1.535 -5.258,1.704 -4.605,1.843 -4.91,2.219 -4.571,2.352 -4.57,2.73 -4.574,2.727 -4.094,3.039 -4.058,3.207 -3.891,3.41 -3.715,3.547 -3.582,3.718 -3.379,3.922 -3.207,3.891 -3.07,4.57 -2.727,4.231 -2.695,4.398 -2.356,4.778 -2.214,4.742 -1.879,4.914 -1.707,4.91 -1.5,5.254 -1.192,5.254 -0.855,5.289 -0.68,5.39 -0.516,5.422 -0.167,5.594 v 1584.063 l 0.167,5.593 0.516,5.426 0.68,5.422 0.855,5.254 1.192,5.254 1.5,5.082 1.707,5.082 1.879,4.914 2.214,4.742 2.356,4.742 2.695,4.266 2.727,4.398 3.07,4.231 3.207,4.058 3.379,4.094 3.582,3.719 3.715,3.547 3.891,3.414 4.058,3.207 4.094,3.07 4.574,2.696 4.57,2.726 4.571,2.356 4.91,2.046 4.605,2.012 5.258,1.703 4.91,1.367 5.254,1.364 5.422,0.855 5.426,0.645 5.594,0.511 z" /></g></g></g></g></g><g
       id="g27376"><g
         clip-path="url(#clipPath27382)"
         id="g27378"><g
           transform="translate(0,-0.537842)"
           id="g27384"><g
             id="g27386"><g
               clip-path="url(#clipPath27392)"
               id="g27388"><g
                 id="g27394"><path
                   id="path27396"
                   style="fill:#633a34;fill-opacity:1;fill-rule:evenodd;stroke:none"
                   d="m 107.207,41.574 h -3.375 l -3.582,0.512 -3.379,0.172 -3.242,0.68 -3.035,0.683 -3.375,1.024 -3.071,1.023 -3.207,1.328 -2.902,1.367 -2.863,1.364 -2.899,1.535 -2.695,2.011 -2.73,1.879 -2.356,1.84 -2.558,2.047 -2.387,2.391 -2.352,2.179 -1.879,2.731 -2.011,2.387 -1.875,2.527 -2.047,2.695 -1.332,2.899 -1.535,2.863 -1.364,3.07 -1.195,3.039 -1.16,3.239 -1.024,3.207 -0.679,3.207 -0.684,3.242 -0.172,3.375 -0.34,3.582 v 1590.816 l 0.34,3.547 0.172,3.242 0.684,3.379 0.679,3.207 1.024,3.239 1.16,3.207 1.195,3.07 1.364,3.035 1.535,2.902 1.332,2.696 2.047,2.898 1.875,2.524 2.011,2.558 1.879,2.524 2.352,2.39 2.387,2.184 2.558,2.047 2.356,1.875 2.73,1.84 2.695,2.046 2.899,1.536 2.863,1.367 2.902,1.328 3.207,1.367 3.071,0.852 3.375,1.195 3.035,0.648 3.242,0.68 3.379,0.172 3.582,0.512 h 2493.664 l 3.41,-0.512 3.379,-0.172 3.41,-0.68 3.035,-0.648 3.411,-1.195 3.039,-0.852 3.238,-1.367 2.867,-1.328 2.863,-1.367 2.731,-1.536 2.898,-2.046 2.696,-1.84 2.39,-1.875 2.524,-2.047 2.351,-2.184 2.391,-2.39 1.875,-2.524 2.047,-2.558 1.844,-2.524 2.046,-2.898 1.329,-2.696 1.535,-2.902 1.367,-3.035 1.191,-3.07 0.989,-3.207 1.23,-3.239 0.648,-3.207 0.68,-3.379 0.172,-3.242 0.34,-3.547 V 105.672 l -0.34,-3.582 -0.172,-3.375 -0.68,-3.242 -0.648,-3.207 -1.23,-3.207 -0.989,-3.239 -1.191,-3.039 -1.367,-3.07 -1.535,-2.863 -1.329,-2.899 -2.046,-2.695 -1.844,-2.527 -2.047,-2.387 -1.875,-2.731 -2.391,-2.179 -2.351,-2.391 -2.524,-2.047 -2.39,-1.84 -2.696,-1.879 -2.898,-2.011 -2.731,-1.535 -2.863,-1.364 -2.867,-1.367 -3.238,-1.328 -3.039,-1.023 -3.411,-1.024 -3.035,-0.683 -3.41,-0.68 -3.379,-0.172 -3.41,-0.512 z" /><path
                   id="path27398"
                   style="fill:#ffffff;fill-opacity:1;fill-rule:evenodd;stroke:none"
                   d="m 148.398,276.039 -0.679,3.035 -0.856,3.071 -0.816,2.867 -0.684,2.386 9.145,16.102 9.48,15.59 9.657,15.25 10.027,15.078 9.996,14.602 10.336,14.429 10.68,13.883 10.675,13.715 11.02,13.406 11.359,13.235 11.36,12.863 11.703,12.551 11.871,12.386 12.211,12.039 12.347,11.84 12.555,11.699 12.727,11.36 13.062,11.191 13.203,10.883 13.578,10.641 13.543,10.543 13.918,10.336 14.055,10.164 14.395,9.996 14.601,9.824 14.738,9.656 15.114,9.516 15.078,9.484 15.418,9.176 15.762,9.144 15.757,8.969 16.137,8.805 17.09,6.273 17.125,6.141 16.957,5.902 17.125,5.766 17.125,5.594 17.125,5.425 17.125,5.254 17.125,5.082 17.125,4.946 17.293,4.742 17.094,4.57 17.293,4.403 17.297,4.23 17.296,4.094 17.293,3.887 17.297,3.89 17.465,3.547 17.465,3.414 17.434,3.41 17.636,3.035 17.465,3.036 17.637,2.902 17.808,2.695 17.774,2.559 17.808,2.351 17.805,2.387 17.981,2.047 17.976,2.016 18.113,1.875 18.149,1.671 18.148,1.707 18.285,1.364 -0.136,-6.617 -0.512,-6.278 -0.852,-6.277 -1.195,-5.902 -1.363,-5.934 -1.5,-5.801 -1.879,-5.73 -2.047,-5.594 -2.012,-5.629 -2.386,-5.598 -2.391,-5.73 -2.523,-5.594 -5.082,-11.531 -5.082,-11.871 -9.348,-0.684 -18.625,-1.703 -9.348,-0.683 -9.312,-0.852 -9.145,-0.648 -9.347,-0.852 -9.313,-0.856 -3.887,-5.082 -3.718,-5.082 -3.754,-5.117 -3.375,-5.219 -3.414,-5.253 -3.207,-5.082 -3.207,-5.29 -2.899,-5.253 -2.867,-5.219 -2.899,-5.289 -2.695,-5.422 -2.558,-5.426 -4.911,-10.676 -4.742,-11.019 -4.433,-11.02 -4.231,-11.187 -4.23,-11.192 -3.891,-11.531 -3.887,-11.527 -3.925,-11.703 -4.059,-11.836 -3.891,-12.215 -11.359,-1.875 -11.188,-2.012 -11.191,-2.047 -11.359,-2.047 -11.188,-2.011 -11.359,-2.219 -11.192,-2.219 -11.187,-2.183 -6.961,-7.469 -7.129,-7.438 -6.926,-7.468 -6.957,-7.473 -6.961,-7.473 -6.957,-7.433 -6.925,-7.473 -6.961,-7.437 -6.957,-7.641 -6.961,-7.469 -6.754,-7.473 -6.957,-7.605 -6.961,-7.645 -6.754,-7.433 -6.789,-7.645 -6.789,-7.64 -4.399,-11.496 -4.265,-11.36 -4.231,-11.699 -4.23,-11.531 -4.231,-11.703 -4.23,-11.7 -4.434,-11.871 -4.23,-11.703 -33.907,-0.168 -33.91,-0.172 -34.047,-0.136 -33.941,-0.34 -33.875,-0.207 -33.91,-0.137 -34.078,-0.168 -33.91,-0.207 -33.907,-0.137 -33.91,-0.168 -34.078,-0.343 -33.875,-0.168 -67.82,-0.344 -34.078,-0.168 z" /><path
                   id="path27400"
                   style="fill:#ffffff;fill-opacity:1;fill-rule:evenodd;stroke:none"
                   d="m 1100.285,803.762 -5.594,1.535 -5.765,1.535 -5.934,1.332 -6.109,1.363 -12.383,2.559 -12.859,2.184 -12.895,2.214 -13.238,2.356 -13.031,2.387 -12.895,2.73 -6.445,1.5 -12.555,3.414 -6.105,1.84 -5.903,2.047 -5.937,2.012 -5.594,2.39 -5.594,2.524 -5.426,2.73 -5.082,3.07 -4.945,3.204 -4.742,3.378 -4.402,3.719 -4.227,3.922 -3.926,4.231 -3.547,4.605 -16.613,3.719 -16.441,3.547 -16.274,3.55 -15.929,3.75 -15.934,3.719 -15.758,3.891 -15.59,4.094 -15.453,4.398 -7.609,2.355 -7.641,2.387 -7.609,2.559 -7.641,2.523 -7.469,2.731 -7.609,2.867 -7.469,3.066 -7.472,3.039 -7.438,3.239 -7.469,3.378 -7.3,3.547 -7.473,3.719 -7.266,3.754 -7.3,4.059 -7.266,4.23 -7.301,4.434 -13.918,2.355 -14.055,2.387 -13.917,2.183 -13.883,2.387 -13.918,2.184 -13.715,2.219 -13.715,2.046 -13.574,2.012 -22.723,-1.672 -22.719,-1.875 -22.718,-1.707 -22.719,-1.84 -22.551,-1.707 -22.719,-1.875 -22.718,-1.672 -22.516,-1.878 -22.719,-1.875 -22.722,-1.844 -22.547,-1.875 -22.551,-1.875 -22.547,-1.844 -22.551,-1.875 -22.547,-1.875 -22.55,-2.016 v 700.317 l 144.097,0.308 144.094,0.34 144.266,0.512 144.097,0.344 144.094,0.34 144.266,0.339 144.097,0.344 144.094,0.512 144.266,0.34 144.265,0.172 144.098,0.339 144.266,0.34 144.265,0.172 144.266,0.309 144.266,0.168 144.437,0.343 v -627.042 l -31.008,-1.364 -27.156,-1.195 -23.707,-1.024 -20.539,-0.851 -17.774,-0.852 -15.281,-0.855 -13.031,-0.649 -11.188,-0.679 -9.859,-0.856 -8.461,-0.679 -7.609,-0.856 -7.129,-1.023 -6.957,-0.989 -7.133,-1.023 -7.469,-1.363 -8.121,-1.535 7.438,33.226 7.812,33.395 7.985,33.398 8.117,33.738 8.324,33.739 8.117,33.738 8.156,33.91 7.981,33.906 7.777,33.91 7.438,34.079 3.754,16.921 3.546,16.989 3.411,16.922 3.379,17.125 3.242,16.953 3.035,16.953 2.863,16.957 2.902,16.953 2.524,16.953 2.559,16.785 2.218,16.953 2.18,16.957 -6.273,-0.171 h -6.11 l -6.242,-0.34 -6.106,-0.684 -20.195,-87.808 -17.465,-77.129 -15.25,-66.797 -13.203,-57.653 -11.187,-48.984 -9.52,-41.004 -7.945,-34.25 -6.621,-27.976 -5.422,-22.547 -4.402,-17.977 -3.547,-14.055 -3.071,-10.882 -2.523,-8.801 -2.391,-7.133 -2.215,-6.617 -2.355,-6.414 -3.207,0.172 -3.238,0.34 -3.039,0.511 -3.071,0.512 -2.898,0.648 -2.863,0.684 -2.696,0.852 -2.73,1.023 -2.696,1.195 -2.73,1.16 -2.559,1.196 -2.691,1.531 -2.559,1.535 -2.527,1.672 -2.559,1.707 -2.523,1.875 6.074,28.145 6.106,27.972 5.968,27.973 6.075,27.973 6.105,28.113 6.106,27.973 6.277,27.972 12.211,55.946 6.277,27.972 6.106,27.973 6.246,27.805 6.14,27.972 6.243,27.801 6.277,27.973 6.105,27.804 -3.378,0.34 -3.582,0.512 -3.375,0.34 -3.379,0.343 -3.379,0.34 -3.41,0.512 -3.239,0.34 -3.039,0.344 -6.277,-27.668 -6.274,-27.633 -6.109,-27.629 -6.277,-27.77 -6.071,-27.668 -6.277,-27.8 -6.105,-27.801 -6.278,-27.633 -6.105,-27.769 -6.106,-27.801 -6.074,-27.805 -6.141,-27.836 -6.07,-27.769 -6.109,-27.801 -6.106,-27.973 -5.933,-27.805 -5.086,2.696 -4.946,2.73 -4.742,2.524 -4.742,2.386 -4.742,2.356 -4.738,2.558 -4.743,2.387 -4.605,2.356 6.309,31.351 5.39,27.801 4.945,24.766 4.403,21.867 3.89,19.82 3.75,18.149 3.547,17.125 3.551,16.273 3.375,16.27 3.754,16.613 3.887,17.469 4.437,18.828 4.707,20.843 5.422,23.063 6.11,26.098 6.957,29.507 -3.887,0.852 -3.754,0.648 -3.891,0.852 -3.886,0.684 -3.922,0.683 -3.856,0.512 -3.926,0.512 -3.886,0.511 -4.606,-20.539 -4.57,-20.672 -4.711,-20.504 -4.602,-20.671 -4.402,-20.536 -4.57,-20.503 -4.574,-20.672 -4.602,-20.536 -4.402,-20.503 -4.571,-20.672 -4.402,-20.535 -4.57,-20.676 -4.403,-20.5 -4.433,-20.504 -4.571,-20.707 -4.433,-20.5 -18.285,-1.024 -17.637,-1.332 -17.297,-1.363 -16.785,-1.875 -8.117,-1.023 -8.153,-1.024 -7.949,-1.16 -7.984,-1.367 -7.981,-1.363 -7.777,-1.536 -7.781,-1.5 -7.809,-1.707 -7.812,-1.875 -7.61,-2.015 -7.64,-2.215 -7.606,-2.184 -7.812,-2.386 -7.641,-2.559 -7.609,-2.695 -7.813,-2.903 -7.812,-3.035 -7.778,-3.207 -7.812,-3.582 -7.777,-3.547 -7.981,-3.718 -8.121,-4.094 -7.981,-4.059 -8.324,-4.402 -8.289,0.344 -8.324,0.339 -8.289,0.34 -8.324,0.344 -8.121,0.305 -8.325,0.172 -8.117,0.339 -8.324,0.172 -8.117,0.34 -8.121,0.172 -8.153,0.172 -8.152,0.34 -8.289,0.172 -8.156,0.168 -8.117,0.171 -8.153,0.172 -5.426,-10.168 -5.421,-10.164 -5.426,-10.168 -5.422,-10.199 -5.426,-10.164 -5.426,-10.168 -5.422,-10.164 -5.425,-10.168 -8.289,-0.852 -7.641,-1.023 -7.129,-0.852 -6.586,-1.195 -6.308,-1.16 -5.903,-1.535 -5.765,-1.535 -5.594,-1.844 -5.461,-2.047 -5.387,-2.387 -5.426,-2.695 -5.425,-2.898 -5.797,-3.379 -5.903,-3.719 -6.105,-4.09 -6.617,-4.402 v 10.508 l 6.105,4.093 5.934,3.547 5.937,3.207 5.594,2.899 5.766,2.523 5.593,2.391 5.731,1.84 5.765,1.707 5.801,1.535 5.903,1.363 6.105,1.16 6.277,1.196 13.235,1.875 14.566,2.046 4.574,10.168 4.946,10.164 4.742,9.997 4.91,10.164 5.082,10.031 4.914,10.164 5.082,9.824 5.086,9.828 13.063,0.168 11.496,0.172 10.371,0.168 h 31.012 l 6.273,-0.168 6.109,-0.34 6.106,-0.172 6.277,-0.511 6.582,-0.512 7.129,-0.512 7.984,-0.683 8.973,-0.817 9.996,-0.855 10.711,5.593 10.676,5.426 10.473,5.254 10.371,5.082 10.508,4.914 10.335,4.742 10.508,4.434 10.508,4.059 5.25,1.843 5.254,1.875 5.426,1.875 5.422,1.672 5.425,1.707 5.594,1.364 5.629,1.503 5.563,1.364 5.765,1.195 5.762,1.191 5.937,1.024 5.938,0.851 6.105,0.821 6.106,0.683 12.555,1.024 -0.344,23.742 -0.34,23.742 -0.34,23.539 -0.344,23.742 -0.339,23.743 -0.172,23.711 -0.34,23.57 -0.172,23.746 -0.34,23.742 -0.172,23.539 -0.168,23.571 -0.172,23.742 -0.339,23.539 -0.172,23.574 -0.172,23.57 -0.168,23.575 H 1972.5 l -0.34,-5.594 -0.512,-5.426 -0.339,-5.422 -0.344,-5.598 -0.512,-5.421 -0.34,-5.594 -0.34,-5.426 -0.343,-5.426 -4.399,0.684 -4.23,0.683 -4.266,0.477 -4.058,0.512 -4.231,0.511 -4.058,0.512 -4.094,0.34 -3.891,0.344 -1.191,5.082 -1.024,5.254 -1.195,5.082 -1.16,5.082 -1.195,5.082 -1.192,5.086 -1.195,5.117 -1.16,5.082 -8.153,-8.324 -8.121,-8.461 -7.98,-8.492 -7.985,-8.633 -7.777,-8.836 -7.301,-8.969 -3.547,-4.574 -3.547,-4.606 -3.41,-4.707 -3.207,-4.773 -3.242,-4.742 -3.035,-4.914 -2.898,-4.742 -2.696,-5.082 -2.73,-4.915 -2.356,-5.082 -2.386,-5.253 -2.047,-5.118 -2.012,-5.39 -1.707,-5.285 -1.535,-5.426 -1.328,-5.594 -1.024,-5.559 -0.855,-5.628 -0.68,-5.735 -0.512,-5.933 -4.914,0.82 -4.91,0.68 -4.914,0.511 -9.484,1.024 -4.743,0.343 -4.57,0.512 -4.777,0.34 -1.024,4.23 -0.988,4.399 -1.023,4.23 -0.852,4.438 -0.851,4.226 -0.856,4.403 -0.851,4.23 -0.684,4.434 -4.707,-0.172 -4.606,-0.168 -4.742,-0.172 -4.57,-0.168 -4.742,-0.344 -4.571,-0.339 -4.777,-0.512 -4.57,-0.34 v -36.605 l -5.426,0.82 -5.422,0.68 -5.426,0.511 -5.422,0.512 -5.425,0.512 -5.422,0.343 -5.426,0.512 -5.422,0.34 -0.512,4.23 -0.343,4.231 -0.34,4.094 -0.34,4.058 -0.512,3.887 -0.308,4.063 -0.34,3.921 -0.512,3.891 -6.621,-0.344 -6.445,-0.679 -6.617,-0.512 -6.586,-0.684 -6.481,-0.683 -6.414,-0.649 -12.555,-1.703 v -36.469 l -10.847,-7.437 -10.676,-7.469 -10.68,-7.609 -10.508,-7.469 -10.675,-7.645 -10.539,-7.605 -10.34,-7.641 -10.504,-7.812 -0.172,-3.379 0.172,-3.547 0.168,-3.754 0.344,-3.715 1.191,-8.293 1.367,-9.343 1.672,-10.168 1.531,-11.36 0.856,-6.277 0.851,-6.445 0.684,-6.926 0.68,-7.301 -1.875,-8.836 -1.704,-8.801 -1.707,-8.8 -1.671,-8.836 -1.875,-8.801 -1.672,-8.801 -1.707,-8.836 -1.707,-8.973 -1.672,-8.835 -1.703,-8.801 -1.707,-9.008 -1.536,-8.801 -1.671,-8.973 -1.536,-9.003 -1.703,-8.973 -1.535,-8.973 -3.891,-1.535 -3.718,-1.703 -3.547,-1.535 -3.754,-1.504 -3.547,-1.535 -3.582,-1.703 -3.379,-1.5 -3.547,-1.536 -3.07,-8.667 -2.863,-8.801 -3.071,-8.801 -2.695,-8.836 -2.898,-8.973 -2.696,-9.004 -2.695,-8.972 -2.73,-9.004 -7.473,-2.356 -6.582,-2.011 -5.969,-2.047 -5.254,-1.875 -4.742,-2.047 -4.23,-2.016 -2.047,-1.191 -1.844,-1.195 -1.875,-1.161 -1.875,-1.195 -1.707,-1.363 -1.5,-1.363 -1.707,-1.536 -1.535,-1.671 -3.035,-3.411 -2.868,-4.062 -3.07,-4.399 -3.203,-5.085 -3.242,-5.762 -3.547,-6.449 -4.574,-1.364 -4.739,-0.992 -4.605,-1.191 -4.742,-1.196 -4.575,-1.195 -4.738,-1.191 -4.574,-1.16 -4.773,-1.196 v 11.36 l 0.167,11.359 v 22.723 l 0.172,11.359 0.172,11.324 0.168,11.36 0.512,11.359 -14.055,0.172 -13.406,0.34 -6.414,0.172 h -6.445 l -6.278,-0.34 -6.105,-0.344 -6.106,-0.512 -6.109,-0.988 -3.035,-0.512 -3.071,-0.683 -3.035,-0.852 -3.07,-0.851 -2.867,-0.852 -3.07,-1.16 -3.036,-1.196 -3.035,-1.363 -3.07,-1.367 -3.035,-1.672 -3.071,-1.703 -3.207,-1.879 -1.879,-9.48 -1.703,-9.317 -1.843,-9.515 -1.704,-9.313 -1.535,-9.484 -1.672,-9.348 -1.535,-9.484 -1.535,-9.313 -8.633,-1.191 -8.836,-1.196 -8.629,-1.195 -8.835,-1.363 -8.629,-1.16 -8.805,-1.364 -8.664,-1.367 -8.801,-1.16 -8.664,-1.363 -8.801,-1.363 -8.664,-1.364 -8.804,-1.332 -8.629,-1.363 -8.836,-1.367 -8.629,-1.364 -8.836,-1.332 -1.844,-3.921 -2.047,-4.059 -1.875,-3.891 -1.844,-4.093 -1.875,-3.887 -1.707,-4.231 -1.671,-4.058 -1.536,-4.266 -3.546,-0.476 -3.411,-0.344 -3.547,-0.512 -3.414,-0.34 -3.375,-0.683 -3.207,-0.512 -3.242,-0.68 z" /><path
                   id="path27402"
                   style="fill:#ffffff;fill-opacity:1;fill-rule:evenodd;stroke:none"
                   d="m 1741.754,1174.684 -1.16,1.879 -1.024,1.671 -0.851,1.875 -0.856,1.875 -0.679,1.672 -0.684,1.875 -0.512,1.879 -0.511,1.84 -0.684,3.754 -0.512,3.719 -0.168,3.89 v 3.922 l 0.168,3.887 0.172,4.062 0.34,4.059 0.344,4.094 0.851,8.289 0.512,8.492 h 25.926 v -57.48 l -5.422,-0.852 -5.254,-1.363 -5.254,-1.332 z" /><path
                   id="path27404"
                   style="fill:#ffffff;fill-opacity:1;fill-rule:evenodd;stroke:none"
                   d="m 1772.773,1179.941 v 57.481 l 5.457,-0.68 5.563,-1.023 5.766,-1.024 5.933,-1.367 -0.34,-6.785 -0.308,-6.586 -0.375,-6.617 -0.305,-6.789 -0.375,-6.617 -0.172,-6.586 -0.137,-6.618 v -6.789 z" /><path
                   id="path27406"
                   style="fill:#ffffff;fill-opacity:1;fill-rule:evenodd;stroke:none"
                   d="m 2371.531,363.184 v 34.214 l -0.172,3.071 -0.476,3.035 -0.684,2.898 -1.023,2.903 -1.363,2.695 -1.536,2.559 -1.672,2.183 -2.046,2.215 -2.184,2.012 -2.387,1.707 -2.39,1.535 -2.692,1.332 -2.902,1.023 -2.863,0.68 -3.071,0.512 -3.039,0.172 -3.207,-0.172 -2.898,-0.512 -3.035,-0.68 -2.731,-1.023 -2.726,-1.332 -2.528,-1.535 -2.386,-1.707 -2.012,-2.012 -2.047,-2.215 -1.707,-2.183 -1.5,-2.559 -1.363,-2.695 -1.024,-2.903 -0.683,-2.898 -0.477,-3.035 -0.207,-3.071 v -34.214 l 0.207,-3.243 0.477,-3.035 0.683,-2.902 1.024,-2.691 1.363,-2.731 1.5,-2.523 1.707,-2.391 2.047,-2.215 2.012,-1.844 2.386,-1.875 2.528,-1.5 2.726,-1.195 2.731,-1.023 3.035,-0.852 2.898,-0.344 3.207,-0.168 3.039,0.168 3.071,0.344 2.863,0.852 2.902,1.023 2.692,1.195 2.39,1.5 2.387,1.875 2.184,1.844 2.046,2.215 1.672,2.391 1.536,2.523 1.363,2.731 1.023,2.691 0.684,2.902 0.476,3.035 z m 30.532,-59.188 h -30.532 v 17.293 l -1.843,-2.18 -2.047,-2.218 -2.215,-1.844 -2.184,-1.875 -2.219,-1.707 -2.355,-1.535 -2.559,-1.5 -2.523,-1.196 -2.559,-1.191 -2.726,-1.023 -2.696,-0.856 -2.695,-0.68 -2.73,-0.683 -2.899,-0.34 -2.867,-0.309 h -5.594 l -2.558,0.309 -2.696,0.172 -2.558,0.508 -2.352,0.511 -2.527,0.856 -2.387,0.68 -2.387,1.023 -2.183,1.023 -2.219,1.196 -2.219,1.16 -2.046,1.363 -2.012,1.367 -1.875,1.535 -1.844,1.672 -1.875,1.703 -1.672,1.708 -1.707,1.839 -1.535,2.047 -1.363,2.016 -1.364,2.047 -1.16,2.215 -1.195,2.218 -1.023,2.184 -1.024,2.387 -0.68,2.355 -0.683,2.559 -0.684,2.351 -0.304,2.559 -0.344,2.527 -0.168,2.727 -0.207,2.558 v 53.387 l 0.207,2.731 0.168,2.523 0.344,2.559 0.304,2.527 0.684,2.523 0.683,2.387 0.68,2.387 1.024,2.355 1.023,2.387 1.195,2.219 1.16,2.183 1.364,2.047 1.363,2.012 1.535,1.875 1.707,1.844 1.672,1.875 1.875,1.707 1.844,1.535 1.875,1.535 2.012,1.5 2.046,1.367 2.219,1.192 2.219,1.195 2.183,0.988 2.387,0.852 2.387,0.855 2.527,0.68 2.352,0.684 2.558,0.339 2.696,0.344 2.558,0.168 2.731,0.172 2.863,-0.172 2.867,-0.168 2.899,-0.512 2.73,-0.511 2.695,-0.684 2.696,-0.851 2.726,-1.024 2.559,-1.16 2.523,-1.363 2.559,-1.368 2.355,-1.535 2.219,-1.703 2.184,-1.844 2.215,-2.046 2.047,-2.047 1.843,-2.184 v 78.156 h 30.532 z m -285.973,0 v 152.59 h 30.496 v -17.297 l 1.875,2.184 2.016,2.047 2.046,2.046 2.18,1.844 2.391,1.703 2.386,1.535 2.356,1.368 2.559,1.363 2.695,1.16 2.558,1.024 2.727,0.851 2.867,0.684 2.696,0.511 2.863,0.512 2.902,0.168 2.899,0.172 2.695,-0.172 2.558,-0.168 2.524,-0.344 2.559,-0.339 2.558,-0.684 2.356,-0.68 2.523,-0.855 2.215,-0.852 2.39,-0.988 2.184,-1.195 2.215,-1.192 2.047,-1.367 2.015,-1.5 3.75,-3.07 1.844,-1.707 1.703,-1.875 1.535,-1.844 1.504,-1.875 1.536,-2.012 1.363,-2.047 1.195,-2.183 1.16,-2.219 1.024,-2.387 0.851,-2.355 0.852,-2.387 0.683,-2.387 0.68,-2.523 0.309,-2.527 0.375,-2.559 0.136,-2.523 0.172,-2.731 V 303.996 h -30.5 v 93.402 l -0.168,3.071 -0.511,3.035 -0.684,2.898 -1.023,2.903 -1.364,2.695 -1.5,2.559 -1.707,2.183 -2.011,2.215 -2.219,2.012 -2.219,1.707 -2.523,1.535 -2.731,1.332 -2.863,1.023 -2.899,0.68 -3.039,0.512 -3.07,0.172 -3.035,-0.172 -3.035,-0.512 -2.899,-0.68 -2.902,-1.023 -2.695,-1.332 -2.559,-1.535 -2.184,-1.707 -2.214,-2.012 -2.016,-2.215 -1.703,-2.183 -1.535,-2.559 -1.364,-2.695 -0.992,-2.903 -0.679,-2.898 -0.512,-3.035 -0.172,-3.071 v -93.402 z m -76.11,66.828 h -43.937 l -1.844,-0.207 -2.047,-0.304 -1.703,-0.34 -1.879,-0.684 -1.672,-0.851 -1.531,-1.024 -1.367,-1.023 -1.328,-1.196 -1.367,-1.363 -1.024,-1.504 -1.023,-1.535 -0.852,-1.703 -0.511,-1.672 -0.477,-1.879 -0.375,-1.84 v -3.922 l 0.375,-1.879 0.477,-1.839 0.511,-1.879 0.852,-1.535 1.023,-1.672 1.024,-1.364 1.367,-1.363 1.328,-1.367 1.367,-0.988 1.531,-1.024 1.672,-0.679 1.879,-0.684 1.703,-0.512 2.047,-0.34 h 28.621 l 1.879,0.34 1.84,0.512 1.707,0.684 1.707,0.679 1.535,1.024 1.5,0.988 1.364,1.367 1.195,1.363 1.023,1.364 1.024,1.672 0.851,1.535 0.684,1.879 0.305,1.839 0.343,1.879 0.203,1.875 z m 30.497,-66.828 h -30.497 v 15.793 l -1.226,-1.875 -1.16,-1.535 -1.231,-1.672 -1.328,-1.535 -1.535,-1.363 -1.5,-1.368 -1.535,-1.191 -1.707,-0.992 -1.844,-1.024 -1.875,-0.851 -1.875,-0.684 -1.879,-0.511 -2.012,-0.512 -2.011,-0.34 -2.047,-0.172 -2.047,-0.168 h -18.969 l -2.386,0.168 -2.387,0.172 -2.219,0.172 -2.352,0.512 -2.183,0.511 -2.082,0.512 -2.184,0.68 -2.011,0.855 -2.047,1.024 -2.047,0.988 -1.844,1.023 -1.875,1.196 -1.875,1.363 -1.707,1.363 -1.672,1.332 -1.535,1.535 -1.535,1.707 -1.332,1.5 -1.363,1.704 -1.364,1.843 -1.16,1.875 -1.023,1.879 -2.047,4.094 -0.852,2.012 -0.683,2.218 -0.684,2.012 -0.512,2.387 -0.34,2.183 -0.308,2.219 -0.203,2.387 v 4.742 l 0.203,2.352 0.308,2.218 0.34,2.184 0.512,2.219 0.684,2.183 0.683,2.215 0.852,2.047 1.023,2.047 1.024,2.012 1.023,1.879 1.16,1.875 1.364,1.671 1.363,1.875 1.332,1.504 1.535,1.703 1.535,1.536 1.672,1.367 1.707,1.328 1.875,1.363 1.875,1.196 1.844,1.023 4.094,2.047 2.011,0.683 2.184,0.817 2.082,0.512 2.183,0.511 2.352,0.512 2.219,0.172 2.387,0.172 2.386,0.168 h 45.781 v 15.25 l -0.203,1.535 -0.172,1.535 -0.308,1.332 -0.543,1.535 -0.481,1.363 -0.679,1.333 -0.856,1.191 -0.851,1.195 -2.047,2.047 -1.16,0.817 -1.364,0.855 -1.195,0.68 -1.535,0.683 -1.363,0.34 -1.535,0.344 -4.028,0.68 -4.09,0.511 -4.062,0.172 -4.094,0.172 -8.117,-0.344 -4.231,-0.511 -3.89,-0.68 -2.047,-0.344 -1.875,-0.851 -1.844,-0.852 -1.703,-0.992 -1.5,-1.363 -1.398,-1.364 -1.161,-1.707 -1.058,-1.672 -24.051,18.969 1.363,2.047 1.536,1.84 1.671,1.707 1.536,1.875 1.878,1.535 1.672,1.504 2.047,1.535 1.875,1.363 2.047,1.196 2.012,1.191 2.219,0.988 2.183,0.856 2.215,0.851 2.355,0.684 2.387,0.68 2.356,0.511 5.285,0.684 5.426,0.648 5.39,0.34 5.422,0.172 5.461,-0.172 5.422,-0.34 5.219,-0.648 5.461,-0.684 2.011,-0.511 2.219,-0.512 2.012,-0.68 1.91,-0.683 2.012,-0.684 1.843,-0.816 1.875,-1.024 1.875,-0.851 1.707,-1.196 1.672,-1.195 1.707,-1.191 1.703,-1.161 2.868,-2.902 2.898,-3.07 2.387,-3.207 2.183,-3.375 0.993,-1.875 1.023,-1.672 0.852,-2.047 0.683,-1.879 0.68,-1.875 0.683,-2.012 0.34,-2.046 0.512,-2.012 0.34,-2.047 0.172,-2.219 0.172,-2.183 0.168,-2.047 z m -144.946,0 h -20.879 l -1.672,0.168 -1.703,0.172 -1.707,0.34 -1.672,0.344 -1.707,0.511 -1.535,0.512 -1.5,0.68 -1.535,0.683 -1.535,0.852 -1.363,0.683 -1.368,0.989 -2.691,1.879 -2.391,2.214 -2.351,2.528 -1.844,2.558 -0.851,1.5 -0.856,1.364 -0.851,1.535 -0.684,1.5 -0.512,1.535 -0.679,1.535 -0.344,1.707 -0.512,1.707 -0.168,1.672 -0.344,1.703 v 1.707 l -0.136,1.84 v 179.031 h 30.5 v -176.3 l 0.168,-0.852 0.308,-1.023 0.375,-0.856 0.309,-0.851 0.543,-0.684 0.48,-0.816 0.68,-0.684 0.684,-0.512 0.683,-0.679 0.852,-0.344 0.851,-0.512 0.856,-0.34 0.851,-0.172 0.989,-0.168 h 14.261 z m -217.168,0 v 152.59 h 30.36 v -17.297 l 1.879,2.184 2.011,2.047 2.219,2.046 2.184,1.844 2.214,1.703 2.356,1.535 2.559,1.368 2.523,1.363 2.559,1.16 2.695,1.024 2.695,0.851 2.731,0.684 2.898,0.511 2.695,0.512 2.899,0.168 3.035,0.172 2.559,-0.172 2.558,-0.168 2.696,-0.344 2.523,-0.339 2.391,-0.684 2.558,-0.68 2.352,-0.855 2.39,-0.852 2.184,-0.988 2.215,-1.195 2.183,-1.192 2.047,-1.367 2.012,-1.5 2.047,-1.535 1.879,-1.535 1.703,-1.707 1.672,-1.875 1.707,-1.844 1.535,-1.875 1.363,-2.012 1.332,-2.047 1.192,-2.183 1.195,-2.219 0.988,-2.387 1.024,-2.355 1.367,-4.774 0.68,-2.523 0.343,-2.527 0.34,-2.559 0.34,-2.523 V 303.996 h -30.496 v 93.402 l -0.203,3.071 -0.481,3.035 -0.679,2.898 -1.024,2.903 -1.367,2.695 -1.5,2.559 -1.707,2.183 -2.047,2.215 -2.047,2.012 -2.351,1.707 -2.559,1.535 -2.695,1.332 -2.731,1.023 -3.035,0.68 -2.898,0.512 -3.207,0.172 -3.071,-0.172 -3.035,-0.512 -2.902,-0.68 -2.863,-1.023 -2.696,-1.332 -2.39,-1.535 -2.387,-1.707 -2.184,-2.012 -2.011,-2.215 -1.707,-2.183 -1.536,-2.559 -1.191,-2.695 -1.195,-2.903 -0.684,-2.898 -0.476,-3.035 -0.172,-3.071 v -93.402 z m -76.277,213.449 h 30.496 v -30.5 h -30.496 z m 0,-60.859 h 30.496 V 304.031 h -30.496 z m -137.309,-61.031 h 64.918 l -0.168,3.207 -0.511,3.242 -0.856,3.207 -1.023,2.898 -1.328,2.868 -1.707,2.726 -1.875,2.356 -2.047,2.386 -2.356,2.012 -2.558,1.879 -2.524,1.672 -2.867,1.363 -3.07,1.024 -3.067,0.851 -3.207,0.512 -3.207,0.172 -3.414,-0.172 -3.207,-0.512 -3.07,-0.851 -3.035,-1.024 -2.899,-1.363 -2.523,-1.672 -2.559,-1.879 -2.355,-2.012 -2.047,-2.386 -1.84,-2.356 -1.707,-2.726 -1.363,-2.868 -1.024,-2.898 -0.855,-3.207 -0.168,-1.535 -0.344,-1.707 v -1.5 z m 95.418,-26.778 h -95.418 v -3.754 l 0.137,-2.523 0.344,-2.387 0.375,-2.355 0.648,-2.387 0.852,-2.183 0.851,-2.219 1.196,-2.047 1.195,-2.012 1.5,-2.047 1.535,-1.707 3.375,-3.375 1.879,-1.367 2.184,-1.363 2.047,-1.16 2.386,-0.852 1.844,-0.851 1.875,-0.512 2.047,-0.512 1.84,-0.512 2.047,-0.343 2.015,-0.168 2.047,-0.137 h 4.399 l 2.218,0.137 2.387,0.339 2.184,0.34 2.218,0.684 2.184,0.684 2.215,0.679 2.047,0.856 2.011,1.023 2.047,1.156 1.879,1.196 1.875,1.363 1.844,1.332 1.703,1.535 1.707,1.707 1.5,1.672 23.231,-19.82 -2.727,-2.867 -2.867,-2.899 -2.863,-2.523 -3.243,-2.559 -3.07,-2.184 -3.379,-2.218 -3.375,-1.844 -3.547,-1.703 -3.582,-1.535 -3.719,-1.367 -3.753,-1.192 -3.719,-0.855 -3.887,-0.852 -3.891,-0.476 -3.921,-0.34 h -7.641 l -6.758,0.679 -3.578,0.481 -3.379,0.851 -3.207,0.852 -3.41,1.023 -3.207,1.364 -2.219,0.855 -2.183,1.024 -2.215,0.988 -2.047,1.195 -2.016,1.192 -1.875,1.367 -1.875,1.363 -1.844,1.5 -1.875,1.535 -1.707,1.535 -1.671,1.5 -1.536,1.707 -1.535,1.672 -1.5,1.875 -1.363,1.879 -1.367,1.875 -1.192,1.875 -1.195,2.016 -1.195,2.047 -0.989,2.011 -1.023,2.047 -0.852,2.184 -0.855,2.215 -0.68,2.218 -0.648,2.184 -0.512,2.387 -0.512,2.219 -0.339,2.351 -0.344,2.391 -0.168,2.351 -0.172,2.391 v 36.09 l 0.172,3.242 0.512,3.035 0.511,3.242 0.68,2.864 0.82,3.07 1.024,2.867 1.191,2.867 1.195,2.899 1.332,2.695 1.536,2.559 1.703,2.558 1.707,2.524 1.875,2.386 2.015,2.184 2.047,2.219 2.18,2.011 2.219,2.047 2.355,1.875 2.559,1.707 2.523,1.672 2.731,1.535 2.726,1.364 2.696,1.367 2.867,0.988 2.898,1.024 3.035,0.851 3.071,0.684 3.035,0.511 3.242,0.512 3.035,0.168 3.414,0.172 3.207,-0.172 3.071,-0.168 3.203,-0.512 3.07,-0.511 3.039,-0.684 3.035,-0.851 2.899,-1.024 2.867,-0.988 2.726,-1.367 2.696,-1.364 2.73,-1.535 2.524,-1.672 2.39,-1.707 2.352,-1.875 2.387,-2.047 2.183,-2.011 2.047,-2.219 2.047,-2.184 1.879,-2.386 1.703,-2.524 1.672,-2.558 1.535,-2.559 1.332,-2.695 1.191,-2.899 1.196,-2.867 1.023,-2.867 0.82,-3.07 0.68,-2.864 0.512,-3.242 0.512,-3.035 0.171,-3.242 0.172,-3.207 z M 1300.504,303.996 V 517.445 H 1331 v -78.156 l 1.875,2.184 2.012,2.047 2.047,2.046 2.183,1.844 2.219,1.703 2.387,1.535 2.527,1.368 2.559,1.363 2.523,1.16 2.727,1.024 2.695,0.851 2.73,0.684 2.899,0.511 2.867,0.512 2.863,0.168 2.903,0.172 2.523,-0.172 2.731,-0.168 2.523,-0.344 2.559,-0.339 2.386,-0.684 2.524,-0.68 2.355,-0.855 2.387,-0.852 2.219,-0.988 2.183,-1.195 2.219,-1.192 2.047,-1.367 2.012,-1.5 2.046,-1.535 1.875,-1.535 1.672,-1.707 1.707,-1.875 1.672,-1.844 1.535,-1.875 1.364,-2.012 1.363,-2.047 1.367,-2.183 0.988,-2.219 1.059,-2.387 0.988,-2.355 0.852,-2.387 0.683,-2.387 0.512,-2.523 0.512,-2.527 0.34,-2.559 0.172,-2.523 V 303.996 h -30.532 v 93.402 l -0.171,3.071 -0.34,3.035 -0.856,2.898 -1.023,2.903 -1.16,2.695 -1.536,2.559 -1.875,2.183 -1.839,2.215 -2.219,2.012 -2.356,1.707 -2.558,1.535 -2.727,1.332 -2.695,1.023 -2.902,0.68 -3.036,0.512 -3.207,0.172 -3.07,-0.172 -3.035,-0.512 -2.899,-0.68 -2.867,-1.023 -2.558,-1.332 -2.524,-1.535 -2.386,-1.707 -2.219,-2.012 -1.844,-2.215 -1.875,-2.183 -1.535,-2.559 -1.16,-2.695 -1.024,-2.903 -0.851,-2.898 -0.34,-3.035 -0.172,-3.071 V 303.996 Z M 1138.43,424.008 h 53.386 l 1.707,0.203 h 1.536 l 1.671,0.34 1.536,0.137 3.203,0.855 2.902,1.023 2.863,1.364 2.731,1.707 2.355,1.875 2.387,2.011 2.047,2.391 1.84,2.524 1.707,2.558 1.363,2.863 1.024,3.071 0.855,3.039 0.477,3.238 0.171,3.379 -0.171,3.207 -0.477,3.238 -0.855,3.039 -1.024,3.071 -1.363,2.863 -1.707,2.559 -1.84,2.523 -2.047,2.391 -2.387,2.011 -2.355,1.875 -2.731,1.535 -2.863,1.504 -2.902,1.02 -3.203,0.855 -3.207,0.512 -3.243,0.168 h -53.386 z m -32.375,-120.012 v 213.449 h 90.843 l 3.071,-0.343 3.035,-0.34 3.07,-0.512 2.867,-0.684 2.899,-0.851 2.867,-0.988 2.731,-1.024 2.691,-1.195 2.73,-1.363 2.524,-1.504 2.39,-1.536 2.352,-1.703 2.391,-1.875 2.179,-1.879 2.219,-2.011 1.875,-2.184 2.016,-2.219 1.703,-2.214 1.707,-2.356 1.672,-2.559 1.363,-2.523 1.367,-2.73 1.328,-2.559 1.024,-2.863 1.023,-2.867 0.684,-2.899 0.851,-2.867 0.512,-3.07 0.34,-3.036 0.172,-3.07 0.172,-3.035 v -2.559 l -0.172,-2.355 -0.34,-2.387 -0.344,-2.355 -0.34,-2.387 -0.511,-2.387 -0.684,-2.355 -0.68,-2.219 -0.683,-2.18 -0.817,-2.218 -1.023,-2.184 -2.047,-4.094 -1.195,-2.047 -1.332,-2.011 -1.192,-1.879 -1.535,-1.84 -1.367,-1.875 -1.672,-1.707 -1.535,-1.672 -1.703,-1.707 -1.672,-1.535 -1.875,-1.535 -1.879,-1.5 -1.875,-1.364 -2.012,-1.367 -2.047,-1.191 -2.015,-1.196 -2.215,-0.988 -2.219,-1.023 -2.183,-0.852 -2.215,-0.855 49.019,-94.766 h -38.172 l -43.906,91.559 h -41.855 v -91.559 z" /></g></g></g></g></g></g></g></svg>