<?xml version="1.0" encoding="UTF-8" standalone="no"?>
<svg xmlns:svg="http://www.w3.org/2000/svg" xmlns="http://www.w3.org/2000/svg"
    version="1.1" width="200px" height="120px" viewBox="-100 0 200 120">
	<defs />
	<g style="stroke :none; fill-rule :evenodd;">
		<rect style="fill :#F0CA00;" x="-100.00" y="0.00"  width="200.0" height="120.0" rx="22.25" ry="22.25" />
		<rect style="fill :#000000;" x="-95.75"  y="4.25"  width="191.5" height="111.5" rx="18.00" ry="18.00" />
		<rect style="fill :#F0CA00;" x="-88.75"  y="11.25" width="177.5" height="97.5"  rx="11.00" ry="11.00" />
		<path transform="translate(-24.0,0)" id="PfadZ" style="fill :#000000;" d="M -5.98,63.617 L -5.98,55.121 L -2.655,55.121 Q 2.15,55.121 4.92,52.442 7.69,49.764 7.73,45.562 7.73,41.453 4.83,38.636 1.92,35.819 -2.101,35.819 -5.149,35.819 -7.873,37.851 -10.597,39.883 -11.382,43.946 L -21.033,43.946 Q -20.479,36.835 -15.076,31.525 -9.674,26.215 -2.47,26.169 6.53,26.169 11.94,32.079 17.34,37.99 17.38,45.378 17.38,49.256 15.86,52.904 14.34,56.552 10.18,59.276 14.43,62.001 16.28,65.972 18.12,69.943 18.12,74.006 18.12,83.426 12.21,89.013 6.3,94.6 -2.286,94.6 -9.12,94.6 -14.568,90.214 -20.017,85.827 -21.402,77.331 L -11.752,77.331 Q -10.412,80.794 -8.15,82.872 -5.887,84.95 -1.732,84.996 2.29,84.996 5.38,82.179 8.47,79.363 8.47,74.329 8.47,69.296 5.43,66.48 2.38,63.663 -1.916,63.617 L -5.98,63.617 z" />
		<path transform="translate( 25.0,0)" id="PfadE" style="fill :#000000;" d="M -17.893,63.155 L -17.893,26.769 L 17.94,26.769 L 17.94,36.42 L -8.796,36.42 L -8.796,51.611 Q -4.179,47.917 1.96,47.917 5.79,47.917 8.93,49.395 12.07,50.873 13.97,52.858 16.74,55.859 17.99,59.369 19.23,62.878 19.28,71.282 19.28,78.07 18.31,81.348 17.34,84.626 15.12,87.443 13.04,90.075 9.3,92.338 5.56,94.6 0.53,94.6 -5.98,94.6 -12.029,90.583 -18.078,86.566 -19.14,77.146 L -9.489,77.146 Q -7.78,84.996 0.16,84.996 7.23,84.996 8.43,80.147 9.63,75.299 9.63,70.543 9.63,64.956 7.73,61.262 5.84,57.568 -0.115,57.568 -5.703,57.568 -8.796,63.155 L -17.893,63.155 z" />
	</g>
</svg>
