<svg xmlns="http://www.w3.org/2000/svg" xml:space="preserve" viewBox="0 0 670.196 1005.26" role="img" aria-labelledby="title">
  <title id="title">Verkehrszeichen 455[…] - Umleitung</title>
  <defs>
    <clipPath id="a" clipPathUnits="userSpaceOnUse">
      <path d="M0 1h536v804H0z"/>
    </clipPath>
  </defs>
  <g clip-path="url(#a)" transform="matrix(1.25 0 0 -1.25 0 1006.25)">
    <path d="M35.75 804.645c-19.488 0-35.344-15.852-35.344-35.34V36.523c0-19.488 15.856-35.339 35.344-35.339h464.691c19.489 0 35.344 15.851 35.344 35.339v732.782c0 19.488-15.855 35.34-35.344 35.34" style="fill:#f0c900;fill-opacity:1;fill-rule:nonzero;stroke:none"/>
  </g>
  <path d="M44.688 11.109c-18.512 0-33.515 15.004-33.515 33.51v915.976c0 18.506 15.003 33.491 33.515 33.491H625.55c18.511 0 33.496-14.985 33.496-33.49V44.618c0-18.506-14.985-33.51-33.496-33.51zm0 16.757H625.55c9.244 0 16.759 7.51 16.759 16.753v915.976c0 9.244-7.515 16.759-16.759 16.759H44.688c-9.263 0-16.758-7.515-16.758-16.759V44.62c0-9.243 7.495-16.753 16.758-16.753" style="fill:#000;fill-opacity:1;fill-rule:nonzero;stroke:none"/>
  <path d="M265.298 167.49h29.678v127.408c0 22.192 17.978 40.146 40.146 40.146 22.163 0 40.142-17.954 40.142-40.146V167.49h29.659v127.408c0 38.568-31.255 69.823-69.8 69.823-38.57 0-69.825-31.255-69.825-69.823M335.108 524.941l100.546 100.547v55.855l-78.203-78.199v301.592h-44.664V603.144l-78.202 78.199v-55.855" style="fill:#000;fill-opacity:1;fill-rule:nonzero;stroke:none"/>
</svg>
