<?xml version="1.0" encoding="UTF-8" standalone="no"?>
<svg
   xmlns:dc="http://purl.org/dc/elements/1.1/"
   xmlns:cc="http://creativecommons.org/ns#"
   xmlns:rdf="http://www.w3.org/1999/02/22-rdf-syntax-ns#"
   xmlns:svg="http://www.w3.org/2000/svg"
   xmlns="http://www.w3.org/2000/svg"
   viewBox="0 0 1251 1601.9473"
   height="1601.9473"
   width="1251"
   xml:space="preserve"
   version="1.1"
   id="svg27005"><metadata
     id="metadata27011"><rdf:RDF><cc:Work
         rdf:about=""><dc:format>image/svg+xml</dc:format><dc:type
           rdf:resource="http://purl.org/dc/dcmitype/StillImage" /><dc:title></dc:title></cc:Work></rdf:RDF></metadata><defs
     id="defs27009" /><g
     transform="matrix(1.25,0,0,-1.25,0,1601.9473)"
     id="g27013"><g
       id="g27015"><path
         id="path27017"
         style="fill:#ffffff;fill-opacity:1;fill-rule:nonzero;stroke:none"
         d="m 47.234,1281.159 c -25.828,0 -46.832,-21.007 -46.832,-46.836 l 0,-1187.066 C 0.402,21.429 21.406,0.402 47.234,0.402 l 906.332,0 c 25.829,0 46.836,21.027 46.836,46.855 l 0,1187.066 c 0,25.829 -21.007,46.836 -46.836,46.836 l -906.332,0 z" /><path
         id="path27019"
         style="fill:#000000;fill-opacity:1;fill-rule:nonzero;stroke:none"
         d="m 48.504,12.433 c -19.942,0 -36.106,16.183 -36.106,36.105 l 0,1184.539 c 0,19.922 16.164,36.082 36.106,36.082 l 903.793,0 c 19.941,0 36.105,-16.16 36.105,-36.082 l 0,-1184.539 c 0,-19.922 -16.164,-36.105 -36.105,-36.105" /><path
         id="path27021"
         style="fill:#ffffff;fill-opacity:1;fill-rule:nonzero;stroke:none"
         d="m 48.504,28.484 c -11.066,0 -20.055,8.961 -20.055,20.054 l 0,1184.539 c 0,11.071 8.989,20.055 20.055,20.055 l 903.793,0 c 11.07,0 20.055,-8.984 20.055,-20.055 l 0,-1184.539 c 0,-11.093 -8.985,-20.054 -20.055,-20.054" /><path
         id="path27023"
         style="fill:#000000;fill-opacity:1;fill-rule:nonzero;stroke:none"
         d="M 47.234,1281.558 C 21.191,1281.558 0,1260.366 0,1234.323 L 0,47.257 C 0,21.214 21.188,-0.001 47.234,-0.001 l 906.332,0 c 26.043,0 47.235,21.215 47.235,47.258 l 0,1187.066 c 0,26.043 -21.192,47.235 -47.235,47.235 l -906.332,0 z m 0,-0.399 906.332,0 c 25.829,0 46.832,-21.007 46.832,-46.836 l 0,-1187.066 c 0,-25.828 -21.003,-46.855 -46.832,-46.855 l -906.332,0 C 21.406,0.402 0.398,21.429 0.398,47.257 l 0,1187.066 c 0,25.829 21.008,46.836 46.836,46.836 z" /><path
         id="path27025"
         style="fill:#000000;fill-opacity:1;fill-rule:nonzero;stroke:none"
         d="m 232.23,1047.183 -36.039,-9.32 c -5.14,-1.274 -10.375,1.773 -11.648,6.957 -0.731,2.589 -0.273,5.406 1.273,7.726 l 70.395,105.004 70.437,-105.004 c 2.957,-4.457 1.778,-10.41 -2.636,-13.32 -2.278,-1.5 -5.098,-2.043 -7.782,-1.363 l -35.996,9.32 0,-87.004 c -15.968,1.91 -32.078,1.91 -48.004,0 l 0,87.004 z" /><path
         id="path27027"
         style="fill:#000000;fill-opacity:1;fill-rule:nonzero;stroke:none"
         d="m 280.238,125.968 -48.004,0 0,445.289 c 15.926,-1.957 32.036,-1.957 48.004,0 l 0,-445.289 z" /><path
         id="path27029"
         style="fill:#000000;fill-opacity:1;fill-rule:nonzero;stroke:none"
         d="m 504.441,1047.183 -36.039,-9.32 c -5.187,-1.274 -10.375,1.773 -11.742,6.957 -0.68,2.589 -0.18,5.406 1.367,7.726 l 70.395,105.004 70.394,-105.004 c 2.957,-4.457 1.774,-10.41 -2.593,-13.32 -2.278,-1.5 -5.098,-2.043 -7.782,-1.363 l -35.996,9.32 0,-430.879 c -15.968,1.953 -32.078,1.953 -48.004,0 l 0,430.879 z" /><path
         id="path27031"
         style="fill:#000000;fill-opacity:1;fill-rule:nonzero;stroke:none"
         d="m 552.445,125.968 -48.004,0 0,101.457 c 15.926,-2 32.036,-2 48.004,0 l 0,-101.457 z" /><path
         id="path27033"
         style="fill:#000000;fill-opacity:1;fill-rule:nonzero;stroke:none"
         d="m 776.562,1047.183 -35.996,-9.32 c -5.187,-1.274 -10.375,1.773 -11.738,6.957 -0.637,2.589 -0.183,5.406 1.363,7.726 l 70.348,105.004 70.441,-105.004 c 3.004,-4.457 1.821,-10.41 -2.593,-13.32 -2.274,-1.5 -5.141,-2.043 -7.782,-1.363 l -35.992,9.32 0,-921.215 -48.051,0 0,921.215 z" /><path
         id="path27035"
         style="fill:#154889;fill-opacity:1;fill-rule:nonzero;stroke:none"
         d="m 440.367,765.718 c 0,-101.598 -82.406,-183.961 -184.152,-183.961 -101.656,0 -184.11,82.363 -184.11,183.961 0,101.594 82.454,183.961 184.11,183.961 101.746,0 184.152,-82.367 184.152,-183.961" /><path
         id="path27037"
         style="fill:#ffffff;fill-opacity:1;fill-rule:nonzero;stroke:none"
         d="m 150.91,769.593 c -12.012,9.5 -19.019,24.004 -19.019,39.32 0,30.547 24.754,55.321 55.379,55.321 30.578,0 55.332,-24.774 55.332,-55.321 0,-15.316 -6.965,-29.82 -19.067,-39.32 14.153,-10.043 22.57,-26.316 22.57,-43.684 0,-32.453 -26.347,-58.773 -58.835,-58.773 -32.536,0 -58.883,26.32 -58.883,58.773 0,17.368 8.418,33.641 22.523,43.684 0,0 -14.105,-10.043 0,0 m 5.188,-43.684 c 0,-17.136 13.968,-31.089 31.172,-31.089 17.152,0 31.168,13.953 31.168,31.089 0,17.184 -14.016,31.141 -31.168,31.141 -17.204,0 -31.172,-13.957 -31.172,-31.141 m 3.457,83.004 c 0,-15.273 12.425,-27.636 27.715,-27.636 15.289,0 27.664,12.363 27.664,27.636 0,15.274 -12.375,27.684 -27.664,27.684 -15.29,0 -27.715,-12.41 -27.715,-27.684" /><path
         id="path27039"
         style="fill:#ffffff;fill-opacity:1;fill-rule:nonzero;stroke:none"
         d="m 266.867,722.515 0,86.414 c 0,30.547 24.797,55.32 55.332,55.32 30.625,0 55.379,-24.773 55.379,-55.32 l 0,-86.414 c 0,-30.547 -24.754,-55.363 -55.379,-55.363 -30.535,0 -55.332,24.816 -55.332,55.363 m 27.664,0 c 0,-15.317 12.426,-27.684 27.668,-27.684 15.336,0 27.711,12.367 27.711,27.684 l 0,86.414 c 0,15.273 -12.375,27.684 -27.711,27.684 -15.242,0 -27.668,-12.411 -27.668,-27.684 l 0,-86.414 z" /><path
         id="path27041"
         style="fill:#154889;fill-opacity:1;fill-rule:nonzero;stroke:none"
         d="m 712.539,421.851 c 0,-101.551 -82.453,-183.914 -184.109,-183.914 -101.7,0 -184.153,82.363 -184.153,183.914 0,101.594 82.453,183.914 184.153,183.914 101.656,0 184.109,-82.32 184.109,-183.914" /><path
         id="path27043"
         style="fill:#ffffff;fill-opacity:1;fill-rule:nonzero;stroke:none"
         d="m 413.449,414.906 0,103.73 103.84,0 0,-27.637 -77.902,0 0,-43.683 c 21.754,17.136 53.332,13.5 70.531,-8.184 7.008,-8.863 10.832,-19.863 10.832,-31.137 l 0,-29.41 c 0,-30.5 -24.848,-55.273 -55.379,-55.273 -28.578,0 -52.512,21.726 -55.152,50.136 l 27.941,0 c 2.867,-15.046 17.383,-24.863 32.352,-21.953 13.058,2.453 22.523,13.864 22.523,27.09 l 0,24.227 c 0,15.32 -12.375,27.64 -27.664,27.64 -10.601,0 -20.297,-6 -24.891,-15.546 l -27.031,0 z" /><path
         id="path27045"
         style="fill:#ffffff;fill-opacity:1;fill-rule:nonzero;stroke:none"
         d="m 541.504,378.609 0,86.457 c 0,30.547 24.801,55.32 55.332,55.32 30.625,0 55.422,-24.773 55.422,-55.32 l 0,-86.457 c 0,-30.547 -24.797,-55.278 -55.422,-55.278 -30.531,0 -55.332,24.731 -55.332,55.278 m 27.668,0 c 0,-15.231 12.375,-27.684 27.664,-27.684 15.336,0 27.711,12.453 27.711,27.684 l 0,86.457 c 0,15.273 -12.375,27.636 -27.711,27.636 -15.289,0 -27.664,-12.363 -27.664,-27.636 l 0,-86.457 z" /></g></g></svg>