<svg xmlns="http://www.w3.org/2000/svg" viewBox="0 0 178.365 178.365" role="img" aria-labelledby="title">
  <title id="title">Verkehrszeichen P-130-62 - P-130-62</title>
  <path d="M-950.033-196.651c0 8.163 6.599 14.76 14.762 14.76h147.643c8.16 0 14.76-6.597 14.76-14.76v-147.643c0-8.162-6.6-14.761-14.76-14.761h-147.643c-8.163 0-14.762 6.599-14.762 14.76z" style="fill:#fff;fill-rule:evenodd;stroke:#000;stroke-opacity:1;stroke-width:.8;stroke-miterlimit:4;stroke-dasharray:none" transform="translate(950.633 359.655)"/>
  <path d="M-947.674-196.65c0 3.427 1.218 6.358 3.638 8.763 2.406 2.421 5.336 3.638 8.765 3.638h147.642c3.426 0 6.358-1.217 8.764-3.638 2.419-2.405 3.637-5.336 3.637-8.764v-147.643c0-3.427-1.218-6.358-3.637-8.764-2.406-2.42-5.338-3.638-8.764-3.638H-935.27c-3.43 0-6.36 1.219-8.765 3.638-2.42 2.406-3.638 5.337-3.638 8.764z" style="fill:#000;fill-rule:evenodd;stroke:none" transform="translate(950.633 359.655)"/>
  <path d="M-944.127-196.65c0 2.45.857 4.54 2.586 6.268 1.73 1.729 3.818 2.585 6.27 2.585h147.642c2.449 0 4.539-.856 6.268-2.585 1.728-1.729 2.586-3.819 2.586-6.269v-147.643c0-2.45-.858-4.539-2.587-6.267-1.728-1.73-3.818-2.586-6.267-2.586h-147.642c-2.452 0-4.54.856-6.27 2.586-1.729 1.728-2.586 3.817-2.586 6.267z" style="fill:#fff;fill-rule:evenodd;stroke:none" transform="translate(950.633 359.655)"/>
  <path d="m-810.718-287.834-8.598.706-2.511 6.78c-2.975-.602-6.148-.511-9.275.346-6.163 1.714-13.393 9.018-15.708 14.49l6.012 1.653c.226.181.723-.014.798-.284.105-.33.075-.663-.225-.768l-.557-.315.857-1.322.45.36c.196.21.543.181.738-.014.135-.257.074-.572-.15-.723-.166-.12-.332-.255-.482-.375l.918-1.278.435.39c.18.21.525.21.72.015a.495.495 0 0 0-.074-.78l-.436-.452 1.143-1.112.39.451c.136.286.51.36.752.15a.51.51 0 0 0 0-.797l-.316-.495 1.188-.843.3.481c.152.286.512.39.783.226a.566.566 0 0 0 .195-.767l-.226-.585 1.323-.662.27.526c.09.286.436.45.707.3a.49.49 0 0 0 .255-.661l-.18-.526 1.429-.481.165.586a.56.56 0 0 0 .676.406.547.547 0 0 0 .39-.647l-.074-.586 1.382-.165.077.526c.028.27.24.466.51.466.331.03.586-.256.571-.572l.046-.571 1.503-.06-.032.587c-.045.3.182.57.468.615.33.046.646-.195.646-.54l.12-.586 1.413.21-.135.526a.51.51 0 0 0 .36.692.523.523 0 0 0 .647-.421l.166-.512 1.383.467-.166.586a.557.557 0 0 0 .3.752.575.575 0 0 0 .752-.317l.27-.526 1.294.767-.271.48a.553.553 0 0 0 .15.798c.271.165.616.045.752-.255l.3-.436 1.143.826-.285.451a.52.52 0 0 0 .06.766.54.54 0 0 0 .751-.045l.466-.39.946 1.083-.375.36a.55.55 0 0 0-.105.721.56.56 0 0 0 .797.136l.436-.331.916 1.263-.436.271a.48.48 0 0 0-.15.662.47.47 0 0 0 .676.195l.481-.211.693 1.322-.541.211a.55.55 0 0 0-.272.676c.105.286.437.436.708.317l.525-.196.361 1.293-.541.195a.57.57 0 0 0-.376.677c.09.256.36.435.631.39l.571-.074.3 1.548-.54.03c-.271.03-.497.255-.497.525.016.317.256.572.587.558l.571.073-.03 1.354-.57.016a.538.538 0 0 0-.618.525.54.54 0 0 0 .452.556l.601.06-.21 1.459-.662-.09a.55.55 0 0 0-.631.406.537.537 0 0 0 .391.66l.555.166-.436 1.413-.555-.225a.53.53 0 0 0-.632.285c-.09.24 0 .496.21.63l.512.302-.677 1.369-.526-.317a.486.486 0 0 0-.616.15.49.49 0 0 0 .15.722l.452.361-.887 1.217-.498-.36a.52.52 0 0 0-.736.046.555.555 0 0 0 .015.75l.511.467-1.066 1.066-.466-.48a.526.526 0 0 0-.738-.075.505.505 0 0 0-.03.721l.377.496-1.188.931-.421-.555a.453.453 0 0 0-.646-.166.443.443 0 0 0-.15.676l.315.557-1.443.737-.286-.587a.56.56 0 0 0-.661-.24.56.56 0 0 0-.332.692l.182.57-1.443.466-.15-.571a.525.525 0 0 0-.617-.33.515.515 0 0 0-.375.6l.09.572-1.398.21-.076-.57a.52.52 0 0 0-.57-.482.525.525 0 0 0-.468.571v.587l-1.487-.06v-.527c.03-.27-.196-.54-.466-.54a.514.514 0 0 0-.542.435l-.058.571-1.594-.18.135-.6a.543.543 0 0 0-.42-.662.53.53 0 0 0-.632.345l-.195.647-1.534-.496.15-.601a.496.496 0 0 0-.241-.662.508.508 0 0 0-.706.286l-.27.526-1.293-.586.27-.541c.15-.256.075-.573-.165-.707a.48.48 0 0 0-.691.15l-.331.496-1.203-.857.346-.45a.537.537 0 0 0-.015-.738c-.21-.224-.571-.195-.782.03l-.39.377-1.053-1.113.361-.36a.52.52 0 0 0 .015-.722c-.165-.226-.481-.24-.691-.09l-.466.33-.827-1.202.436-.3a.495.495 0 0 0 .134-.663.52.52 0 0 0-.676-.21l-.48.287-.768-1.414.512-.24a.504.504 0 0 0 .3-.677c-.105-.256-.405-.36-.661-.256l-.556.226-.54-1.533.63-.196a.52.52 0 0 0 .36-.6.557.557 0 0 0-.63-.466l-.616.164-.195-1.518.586-.12c.286-.045.496-.345.48-.616l-1.232-.36c-5.23-1.595-6.133-1.595-9.485-1.053a38.4 38.4 0 0 1-8.118.45c-2.404-.12-4.464-.66-6.178-1.592q-3.427-1.895-5.817-7.442c-2.104-4.915-3.517-7.846-4.253-8.748l-.376-.527a1.085 1.085 0 0 1-1.519.016 1.1 1.1 0 0 1-.226-.346c-.947-1.803-1.788-3.608-3.321-5.126l-6.87 11.29c-.06.194.09.495.255.6.166.091.497.135.632 0l.481-.51 1.127.992-.421.421a.514.514 0 0 0-.06.705c.18.241.542.271.766.046l.452-.331.962 1.218-.497.36a.53.53 0 0 0-.18.752.56.56 0 0 0 .722.15l.54-.27.737 1.382-.526.226a.51.51 0 0 0-.346.647c.121.315.467.45.738.286l.6-.211.496 1.533-.571.135c-.315 0-.541.315-.465.617.074.316.42.48.72.345l.587-.06.24 1.429-.57.06a.56.56 0 0 0-.542.616c.016.315.3.526.6.497l.617.06.016 1.472-.586.016a.515.515 0 0 0-.587.495c0 .286.211.526.482.526l.556.075-.196 1.49-.601-.091a.525.525 0 0 0-.646.405.52.52 0 0 0 .405.631l.557.196-.452 1.323-.51-.165a.52.52 0 0 0-.647.255.525.525 0 0 0 .255.752l.497.3-.602 1.383-.51-.285a.567.567 0 0 0-.767.15.565.565 0 0 0 .21.812l.481.376-.812 1.172-.42-.36a.514.514 0 0 0-.782.03.52.52 0 0 0 .106.765l.39.377-1.037 1.037-.452-.406a.573.573 0 0 0-.811-.075.59.59 0 0 0-.044.826l.345.481-1.247.813-.316-.451c-.136-.286-.496-.376-.767-.212-.27.166-.316.542-.12.797l.27.452-1.248.676-.27-.466a.54.54 0 0 0-.72-.286.537.537 0 0 0-.288.691l.137.602-1.384.376-.15-.495a.54.54 0 0 0-.6-.407.547.547 0 0 0-.482.647l.105.54-1.518.27-.06-.51a.52.52 0 0 0-.526-.435.496.496 0 0 0-.483.526l-.014.54-1.503.03.045-.57a.54.54 0 0 0-.48-.541.52.52 0 0 0-.587.48l-.06.571-1.323-.24.06-.572a.566.566 0 0 0-.436-.63.564.564 0 0 0-.63.39l-.197.542-1.503-.407.195-.495a.524.524 0 0 0-.255-.677.54.54 0 0 0-.736.27l-.332.497-1.202-.631.226-.512c.18-.27.106-.632-.18-.782a.53.53 0 0 0-.708.166l-.315.511-1.232-.842.391-.54a.58.58 0 0 0-.09-.753c-.242-.195-.587-.18-.783.06l-.376.437-1.081-1.023.436-.39a.53.53 0 0 0 .014-.707.52.52 0 0 0-.662-.09l-.48.33-.932-1.202.51-.33a.51.51 0 0 0 .136-.632.503.503 0 0 0-.72-.18l-.513.24-.706-1.323.527-.285a.513.513 0 0 0 .284-.692.55.55 0 0 0-.675-.3l-.632.255-.496-1.428.631-.226c.286-.044.452-.33.39-.616a.496.496 0 0 0-.63-.345l-.617.12-.316-1.474.677-.134a.474.474 0 0 0 .452-.496.472.472 0 0 0-.557-.451l-.63.045-.031-1.624h.646a.535.535 0 0 0 .511-.48.56.56 0 0 0-.465-.602l-.603-.09.197-1.489.6.105c.271.03.512-.15.557-.405a.524.524 0 0 0-.375-.616l-.542-.166.421-1.338.541.196a.57.57 0 0 0 .692-.316.54.54 0 0 0-.316-.676l-.526-.255.705-1.309.483.226c.224.15.555.06.69-.18.121-.241.06-.542-.164-.677l-.497-.3.872-1.354.48.377a.553.553 0 0 0 .783-.076.55.55 0 0 0-.03-.721l-.51-.466 1.126-1.158.48.406c.166.21.482.24.693.075a.537.537 0 0 0 .06-.767l-.362-.465 1.083-.918.376.482c.15.255.481.315.722.165.24-.15.301-.45.166-.691l-.317-.512 1.308-.69.255.495c.105.255.39.39.662.3a.53.53 0 0 0 .316-.705l-.166-.512 1.458-.466.165.48a.56.56 0 0 0 .647.346.544.544 0 0 0 .39-.6l-.104-.557 1.443-.21.074.51a.53.53 0 0 0 .541.421.514.514 0 0 0 .482-.526l-.045-.555 1.609-.061v.556a.503.503 0 0 0 .465.572.515.515 0 0 0 .526-.481l.045-.602 1.61.195-.106.633c-.045.27.135.54.39.6.285.09.603-.06.692-.36l.135-.632 1.443.48-.15.603c-.09.255.061.556.3.661a.536.536 0 0 0 .707-.286l.136-.526.705.346 6.435-10.658c-4.21-1.924-9.635-2.525-14.416-1.203-2.074.586-4.254 1.639-5.952 2.752-.105.074-.24.15-.376.195a1.07 1.07 0 0 1-1.307-.752c-.121-.42.044-.857.36-1.128 2.314-1.862 5.006-3.2 7.816-4.073.407-.12.707-.225 1.128-.346 5.005-1.383 10.28-.661 14.596 1.504l1.367-2.285-1.772-.602c-.347-.134-.512-.48-.512-.857v-6.118c0-.33.195-.616.496-.736l7.98-1.938 1.219-2c-1.248-3.742 2.947-5.337 4.946-3.502 4.705-2.856 5.788 5.847.376 4.435l-1.804-.287-4.435 7.291c.225.09 1.114.315 1.338.3 1.022-.045 1.353-1.503 3.126-1.743.647-.09 1.293-.016 1.805.21l9.124 6.764 20.263-2.39c7.456-1.262 14.52-.781 20.368.783l8.478-.061c.105-.015.21.03.286.106l4.013 4.945a.2.2 0 0 1 .015.226c-.03.074-.104.12-.195.12h-.015a5.2 5.2 0 0 1-1.353-.256 1 1 0 0 1-.391-.27zm-79.489 20.714c1.91 1.623 3.186 3.639 3.864 6.058.3 1.083.451 2.164.451 3.276 0 2.707-.827 5.157-2.45 7.337-1.67 2.21-3.834 3.697-6.524 4.433a12 12 0 0 1-3.263.452c-2.72 0-5.155-.812-7.334-2.45-2.225-1.669-3.699-3.834-4.45-6.51a12.2 12.2 0 0 1-.451-3.276c0-2.707.826-5.156 2.45-7.335 1.668-2.226 3.833-3.698 6.524-4.45a12.6 12.6 0 0 1 3.276-.436c1.594 0 3.142.3 4.63.917l.647.255-4.194 6.825-.375-.06a5 5 0 0 0-.647-.046c-.391 0-.796.061-1.187.166-.978.27-1.76.812-2.36 1.609a4.3 4.3 0 0 0-.888 2.676c0 .39.046.796.15 1.186a4.28 4.28 0 0 0 1.625 2.361c.78.6 1.682.886 2.66.886.406 0 .797-.045 1.187-.15a4.28 4.28 0 0 0 2.36-1.623c.6-.782.902-1.684.902-2.66a4.6 4.6 0 0 0-.166-1.19 4.3 4.3 0 0 0-.87-1.652l-.271-.33 4.178-6.705zm53.664 11.47 9.184 2.48a5.15 5.15 0 0 0 3.322.211 5.09 5.09 0 0 0 3.549-6.27 5.09 5.09 0 0 0-6.27-3.561c-1.217.345-2.39 1.412-3.05 2.375l-6.043-2.075c1.443-2.376 4.48-5.532 7.38-6.328 6.028-1.669 12.266 1.864 13.934 7.892 1.669 6.012-1.864 12.265-7.89 13.934-6.028 1.669-12.267-1.864-13.936-7.892-.075-.271-.12-.496-.18-.767" style="fill:#000;fill-rule:evenodd;stroke:none" transform="translate(950.633 359.655)"/>
  <path d="M-805.562-326.361c-30.877-30.86-80.917-30.86-111.792 0-30.86 30.876-30.86 80.918 0 111.792 30.875 30.862 80.915 30.862 111.792 0 30.861-30.874 30.861-80.916 0-111.792m-15.436 103.736c-24.624 20.848-61.543 19.676-84.752-3.548-23.224-23.21-24.412-60.143-3.547-84.75zm3.83-92.13c23.225 23.208 24.412 60.126 3.548 84.75l-88.296-88.3c24.622-20.848 61.525-19.676 84.749 3.55" style="fill:#c0111e;fill-rule:evenodd;stroke:none;fill-opacity:1" transform="translate(950.633 359.655)"/>
</svg>
