<svg xmlns="http://www.w3.org/2000/svg" viewBox="0 0 300 450" role="img" aria-labelledby="title">
  <title id="title">Verkehrszeichen Rb-72 - No stopping except disabled</title>
  <path d="M19103.987-371.472c21.042 0 38.1-17.056 38.1-38.1v-373.802c0-21.042-17.058-38.098-38.1-38.098h-223.803c-21.039 0-38.097 17.056-38.097 38.098v373.804c0 21.042 17.058 38.098 38.097 38.098z" style="fill:#fff;fill-opacity:1;fill-rule:evenodd;stroke:#000;stroke-width:1;stroke-miterlimit:4;stroke-dasharray:none" transform="translate(-18842.087 821.472)"/>
  <path d="M19122.086-409.571c0 9.994-8.103 18.098-18.099 18.098h-223.8c-9.996 0-18.099-8.105-18.099-18.098v-373.801c0-9.994 8.103-18.1 18.099-18.1h223.8c9.996 0 18.099 8.106 18.099 18.1zm-18.096-401.9h-223.803c-15.519 0-28.098 12.581-28.098 28.099v373.8c0 15.518 12.579 28.1 28.098 28.1h223.803c15.516 0 28.095-12.582 28.095-28.1v-373.8c0-15.518-12.579-28.1-28.095-28.1" style="fill:#000;fill-opacity:1;fill-rule:evenodd;stroke:none;stroke-width:1.05833328" transform="translate(-18842.087 821.472)"/>
  <path d="m19065.695-426.353 10.635-3.988-7.716 21.82c-.741 1.703 1.422 5.655 4.797 3.729l41.205-27.912s2.364-1.244 2.364-4.271c0-3.026-2.364-4.26-2.364-4.26l-41.205-27.911c-3.375-1.927-5.538 2.025-4.797 3.73l7.716 21.819-10.635-3.988zM18918.476-447.584l-10.632 3.987 7.716-21.82c.738-1.703-1.425-5.655-4.8-3.729l-41.202 27.912s-2.367 1.244-2.367 4.27c0 3.028 2.367 4.26 2.367 4.26l41.202 27.913c3.378 1.925 5.538-2.028 4.8-3.73l-7.716-21.819 10.632 3.988zM19027.976-684.374l7.755-7.764v-36.135l-25.542-25.506h-36.135l-7.746 7.736zM18956.243-735.991l-7.731 7.718v36.135l25.542 25.577h36.135l7.737-7.747z" style="fill:#000;fill-opacity:1;fill-rule:evenodd;stroke:none;stroke-width:1.05833328" transform="translate(-18842.087 821.472)"/>
  <path d="M19052.594-710.17c0 14.641-5.205 28.068-13.863 38.53l-85.14-85.14c10.464-8.658 23.889-13.863 38.529-13.863 33.399 0 60.474 27.074 60.474 60.473m-60.474 60.472c-33.396 0-60.471-27.074-60.471-60.472 0-14.622 5.19-28.031 13.827-38.487l85.134 85.133c-10.458 8.637-23.868 13.826-38.49 13.826m-78.231-60.472c0 43.205 35.028 78.232 78.231 78.232 43.209 0 78.234-35.027 78.234-78.232 0-43.206-35.025-78.232-78.234-78.232-43.203 0-78.231 35.026-78.231 78.232" style="fill:#c0111e;fill-opacity:1;fill-rule:evenodd;stroke:none;stroke-width:1.05833328" transform="translate(-18842.087 821.472)"/>
  <path d="M18992.105-478.303c-33.396 0-60.471-27.073-60.471-60.471 0-33.395 27.075-60.469 60.471-60.469s60.471 27.074 60.471 60.469c0 33.398-27.075 60.471-60.471 60.471m0-138.698c-43.203 0-78.228 35.025-78.228 78.227 0 43.204 35.025 78.229 78.228 78.229s78.228-35.025 78.228-78.23c0-43.201-35.025-78.226-78.228-78.226" style="fill:#066d58;fill-opacity:1;fill-rule:evenodd;stroke:none;stroke-width:1.05833328" transform="translate(-18842.087 821.472)"/>
  <path d="M18980.489-553.491h22.254v6.74h-21.72l.429 7.383h30.6l10.38 28.246 11.448-4.066 2.355 6.313-17.658 6.955-11.661-30.493h-32.1l-3.234-44.255a7.77 7.77 0 0 1-1.11-4.014 7.793 7.793 0 1 1 15.585 0c0 4.07-3.066 7.412-7.044 7.762z" style="fill:#000;fill-opacity:1;fill-rule:evenodd;stroke:none;stroke-width:1.05833328" transform="translate(-18842.087 821.472)"/>
  <path d="M19008.002-518.734c-2.304 11.255-12.261 19.72-24.195 19.72-13.641 0-24.699-11.057-24.699-24.697 0-8.526 4.32-16.042 10.89-20.48l-.468-7.042c-9.936 5.163-16.722 15.55-16.722 27.522 0 17.119 13.878 30.998 30.999 30.998 11.976 0 22.365-6.793 27.528-16.736z" style="fill:#000;fill-opacity:1;fill-rule:evenodd;stroke:none;stroke-width:1.05833328" transform="translate(-18842.087 821.472)"/>
</svg>
