<svg xmlns="http://www.w3.org/2000/svg" viewBox="0 0 600 900" role="img" aria-labelledby="title">
  <title id="title">Verkehrszeichen Rc-14 - Avoid engine brake</title>
  <path d="M55287.805-20860h529.05c19.516 0 35.475 15.924 35.475 35.384v829.232c0 19.46-15.959 35.384-35.475 35.384h-529.05c-19.51 0-35.475-15.924-35.475-35.384v-829.232c0-19.46 15.965-35.384 35.475-35.384z" style="fill:#fff;stroke:#000;stroke-width:1;stroke-linecap:butt;stroke-linejoin:miter;stroke-miterlimit:22.9260006;stroke-dasharray:none;stroke-opacity:1" transform="translate(-55252.33 20860)"/>
  <path d="M55281.673-20818.715a18.9 18.9 0 0 1 4.109-6.128 19 19 0 0 1 6.143-4.098 19 19 0 0 1 7.247-1.449h508.64c2.482 0 4.958.522 7.248 1.455a19 19 0 0 1 6.143 4.098 18.9 18.9 0 0 1 4.108 6.128 18.8 18.8 0 0 1 1.459 7.228v807.2c0 2.475-.523 4.944-1.459 7.228a18.9 18.9 0 0 1-4.108 6.128 18.9 18.9 0 0 1-6.143 4.098 19 19 0 0 1-7.248 1.454h-508.64c-2.475 0-4.957-.521-7.247-1.449a19.1 19.1 0 0 1-6.143-4.103 18.936 18.936 0 0 1-5.562-13.356v-807.2c0-2.47.523-4.944 1.453-7.228zm-11.681-4.829a31.6 31.6 0 0 1 6.846-10.22 31.5 31.5 0 0 1 10.246-6.828 31.8 31.8 0 0 1 12.088-2.406h508.64c4.132 0 8.27.823 12.089 2.4a31.6 31.6 0 0 1 10.246 6.834 31.6 31.6 0 0 1 6.846 10.22 31.6 31.6 0 0 1 2.412 12.057v807.2c0 4.121-.831 8.249-2.406 12.057a31.6 31.6 0 0 1-6.852 10.22 31.7 31.7 0 0 1-10.246 6.834 31.8 31.8 0 0 1-12.089 2.4h-508.64a31.8 31.8 0 0 1-12.088-2.4 31.7 31.7 0 0 1-10.246-6.834 31.6 31.6 0 0 1-6.846-10.22 31.6 31.6 0 0 1-2.412-12.057v-807.2c0-4.121.831-8.249 2.412-12.057" style="fill:#000;fill-opacity:1;fill-rule:evenodd;stroke:none;stroke-width:2.04760265" transform="translate(-55252.33 20860)"/>
  <path d="m55419.69-20347.874 9.037-25.459h27.512l8.904 25.459h14.622l-30.302-88.313h-13.692l-30.57 88.313zm22.863-65.635-9.043 26.386h18.08zM55467.776-20436.181l27.779 88.313h11.031l27.78-88.313h-14.355l-18.743 59.539-18.737-59.539zM55568.632-20346.546c9.304 0 19.138-4.903 23.392-12.063 4.922-8.092 7.573-20.421 7.573-34.879 0-14.584-3.057-26.915-8.503-34.207-4.917-6.365-13.96-10.608-22.73-10.608-19.405 0-30.04 16.44-30.04 46.409 0 6.632.523 12.996 1.732 18.961 1.197 6.366 3.719 12.197 7.177 16.84 4.382 5.571 13.419 9.547 21.399 9.547m0-13.523c-6.777 0-11.833-3.717-13.826-10.342-1.726-5.704-2.924-14.59-2.924-22.143 0-9.686 1.593-19.229 4.255-24.4 2.26-4.643 7.706-7.824 13.291-7.824 11.036 0 16.749 11.001 16.749 32.751 0 21.349-5.852 31.958-17.545 31.958M55612.632-20347.874h13.553v-88.307h-13.553zM55642.499-20347.874h23.525c21.794 0 35.754-17.366 35.754-44.286 0-25.46-13.692-44.027-32.435-44.027h-26.844zm13.82-74.655h12.361c11.699 0 19.406 12.201 19.406 30.369 0 18.427-7.579 30.23-19.673 30.23h-1.459l-10.635.115zM55365.716-20224.344h54.096v-14.058h-40.27v-24.531h25.514v-13.924h-25.514v-22.01h37.213v-13.79h-51.039zM55434.323-20224.344h13.559v-60.332l34.155 60.332h11.699v-88.313h-13.558v56.355l-31.901-56.355h-13.954zM55538.87-20267.797v13.924h14.489v3.049c0 8.886-5.853 14.985-14.623 14.985-10.897 0-16.615-11.542-16.615-33.685 0-20.55 5.846-31.552 17.011-31.552 6.515 0 12.361 4.238 14.355 10.469l13.029-4.11c-3.853-11.668-14.756-19.756-26.983-19.756-8.369 0-17.279 3.977-21.934 9.943-5.713 7.164-8.77 19.761-8.77 36.467 0 14.59 2.128 24.265 6.911 32.485 4.788 8.092 13.826 12.997 23.525 12.997 16.087 0 28.449-12.331 28.449-28.509v-16.707zM55581.778-20224.344h13.559v-88.313h-13.559zM55611.65-20224.344h13.559v-60.332l34.161 60.332h11.693v-88.313h-13.553v56.355l-31.906-56.355h-13.954zM55687.173-20224.344h54.101v-14.058h-40.275v-24.531h25.519v-13.924h-25.519v-22.01h37.218v-13.79h-51.044zM55374.707-20189.135v88.314h34.556c13.164 0 24.322-11.141 24.322-24.265 0-9.681-5.05-17.507-14.221-22.016l1.197-.794c7.445-5.172 10.903-11.136 10.903-18.962 0-11.935-10.635-22.277-22.73-22.277h-1.993zm13.692 35.801v-22.01h19.406c6.241 0 9.699 3.315 9.699 8.886 0 7.426-6.381 13.124-14.75 13.124zm0 13.791h17.011c7.712 0 14.355 6.764 14.355 14.59 0 6.232-4.649 10.209-11.699 10.075h-19.667zM55447.458-20100.821h13.559v-38.589l16.609-.115 14.361 38.716h14.617l-15.018-41.238c9.572-6.098 13.291-12.33 13.291-22.011 0-14.451-11.164-25.065-26.454-25.065h-30.965zm13.559-52.507v-22.15h20.201c5.318 0 9.833 5.044 9.833 10.881 0 6.226-4.254 11.135-9.566 11.135h-1.865zM55533.163-20100.821l9.037-25.46h27.513l8.903 25.46h14.623l-30.303-88.314h-13.692l-30.57 88.314zm22.857-65.637-9.037 26.387h18.08zM55605.426-20100.821h13.558v-30.363l9.566-11.669 21.934 42.032h15.552l-27.914-54.101 26.85-34.213h-17.278l-28.71 35.541v-35.541h-13.558zM55678.182-20100.821h54.096v-14.057h-40.275v-24.532h25.519v-13.918h-25.519v-22.016h37.218v-13.791h-51.039zM55462.708-20791.308v51.012h-72.478l-22.538 59.92c-6.003-.464-12.059-.464-17.737-.173-5.672.348-10.978 1.002-15.209 2.834-4.237 1.827-7.393 4.817-9.154 16.851-1.761 12.035-2.121 33.112-.29 53.388l-9.991-.231v20.01h51.94c.976 5.171 2.621 10.255 4.393 13.929 1.773 3.676 3.679 5.948 5.992 7.942a31.3 31.3 0 0 0 7.974 4.985l-45.314-.06v16.823l450.145-.406.175-19.048h-58.896c4.393-2.203 8.369-5.31 11.164-8.701 2.801-3.391 4.423-7.066 5.579-11.559 1.157-4.498 1.837-9.825 1.825-15.124h41.252l.06-192.394zm-62.761 65.266 47.645.06-.175 42.757h-59.175zm77.929 128.966h189.996c-.465 5.438 0 11.014 1.174 15.199s3.046 6.985 5.94 10.144c2.9 3.154 6.823 6.672 11.077 9.716h-256.226c3.568-1.224 6.951-3.032 9.758-5.148 2.801-2.121 5.038-4.55 6.794-8.092s3.027-8.197 3.446-12.892h32.156z" style="fill:#000;fill-opacity:1;fill-rule:evenodd;stroke:none;stroke-width:2.04760265" transform="translate(-55252.33 20860)"/>
</svg>
