<svg xmlns="http://www.w3.org/2000/svg" xml:space="preserve" viewBox="-.512 -.12 348.944 522.194" role="img" aria-labelledby="title">
  <title id="title">Verkehrszeichen Rb-17L - No left turn on red</title>
  <path d="M.789 12.743c0-6.382 5.173-11.552 11.556-11.552h323.244c6.379 0 11.556 5.17 11.556 11.552V509.22c0 6.383-5.177 11.556-11.556 11.556H12.345c-6.383 0-11.556-5.173-11.556-11.556z" style="fill:#fff;stroke:#000;stroke-width:2.5;stroke-linecap:butt;stroke-linejoin:miter;stroke-miterlimit:4;stroke-opacity:1;stroke-dasharray:none"/>
  <path d="M6.15 15.213c0-4.784 3.881-8.665 8.669-8.665h318.727a8.667 8.667 0 0 1 8.665 8.665v491.968a8.667 8.667 0 0 1-8.665 8.665H14.819c-4.788 0-8.669-3.88-8.669-8.665z" style="fill:#000;fill-opacity:1;fill-rule:nonzero;stroke:none"/>
  <path d="M14.642 19.372a4.337 4.337 0 0 1 4.336-4.336h309.696a4.337 4.337 0 0 1 4.333 4.336V502.31a4.334 4.334 0 0 1-4.333 4.332H18.978a4.334 4.334 0 0 1-4.336-4.332z" style="fill:#fff;fill-opacity:1;fill-rule:nonzero;stroke:none"/>
  <path d="M174.043 255.47c-63.826 0-115.567-51.732-115.567-115.54 0-63.813 51.741-115.54 115.567-115.54 63.823 0 115.568 51.727 115.568 115.54 0 63.808-51.745 115.54-115.568 115.54" style="fill:#c0111e;fill-opacity:1;fill-rule:nonzero;stroke:none"/>
  <path d="M243.488 81.725 115.578 209.6v.163c15.813 13.338 35.996 21.146 58.302 21.146 50.171 0 90.847-40.659 90.847-90.82 0-22.222-7.984-42.58-21.24-58.364M230.785 69.29c-15.573-12.525-35.363-20.023-56.905-20.023-50.171 0-90.84 40.665-90.84 90.822 0 21.667 7.362 41.395 20.03 57.006L230.74 69.457z" style="fill:#fff;fill-opacity:1;fill-rule:nonzero;stroke:none"/>
  <path d="M198.743 128.384v82.164h22.775V105.616zM195.853 102.569h-48.917l2.727-9.621s.962-5.935-4.013-8.502c-4.969-2.564-10.423.483-10.423.483L95.29 114.434l38.17 27.26s6.258 5.289 11.71 2.245c5.454-3.05 4.013-6.897 4.013-6.897l-1.637-10.712 23.606.129zM126.78 267.015h91.66V498.05h-91.66z" style="fill:#000;fill-opacity:1;fill-rule:nonzero;stroke:none"/>
  <path d="M172.612 412.303c16.445 0 29.78-13.328 29.78-29.772 0-16.441-13.335-29.77-29.78-29.77s-29.78 13.329-29.78 29.77c0 16.444 13.335 29.772 29.78 29.772" style="fill:#fff;fill-opacity:1;fill-rule:nonzero;stroke:none"/>
  <path d="M172.612 340.48c16.445 0 29.78-13.329 29.78-29.77 0-16.445-13.335-29.773-29.78-29.773s-29.78 13.328-29.78 29.773c0 16.441 13.335 29.77 29.78 29.77" style="fill:#c0111e;fill-opacity:1;fill-rule:nonzero;stroke:none"/>
  <path d="M172.612 484.479c16.445 0 29.78-13.328 29.78-29.773 0-16.441-13.335-29.77-29.78-29.77s-29.78 13.329-29.78 29.77c0 16.445 13.335 29.773 29.78 29.773" style="fill:#fff;fill-opacity:1;fill-rule:nonzero;stroke:none"/>
</svg>
