<svg xmlns="http://www.w3.org/2000/svg" viewBox="0 0 606 306" role="img" aria-labelledby="title">
  <title id="title">Verkehrszeichen Rc-12t - Fine $500</title>
  <g transform="translate(0 9)">
    <rect width="604" height="304" x="1" y="-8" rx="32" ry="32" style="fill:#000;fill-opacity:1;stroke:none;stroke-width:171.98669434;stroke-linecap:round;stroke-linejoin:round;stroke-miterlimit:1.41400003;stroke-dasharray:none;stroke-opacity:1"/>
    <rect width="600" height="300" x="3" y="-6" rx="30" ry="30" style="fill:#fff;fill-opacity:1;stroke:none;stroke-width:170.28479004;stroke-linecap:round;stroke-linejoin:round;stroke-miterlimit:1.41400003;stroke-dasharray:none;stroke-opacity:1"/>
    <rect width="580" height="280" x="13" y="4" rx="20" ry="20" style="fill:#000;fill-opacity:1;stroke:none;stroke-width:161.74565125;stroke-linecap:round;stroke-linejoin:round;stroke-miterlimit:1.41400003;stroke-dasharray:none;stroke-opacity:1"/>
    <rect width="560" height="260" x="23" y="14" rx="10" ry="10" style="fill:#fff;fill-opacity:1;stroke:none;stroke-width:153.15116882;stroke-linecap:round;stroke-linejoin:round;stroke-miterlimit:1.41400003;stroke-dasharray:none;stroke-opacity:1"/>
    <path d="M323.753 229.671q0-1.964-.588-3.5a8.8 8.8 0 0 0-1.625-2.723 10 10 0 0 0-2.467-2.018c-.955-.56-1.99-1.07-3.112-1.515v20.235a13.2 13.2 0 0 0 3.055-1.508 10.8 10.8 0 0 0 2.496-2.3q1.064-1.345 1.653-3c.393-1.102.588-2.33.588-3.67m-18.108-41.537c-1.755.936-3.177 2.164-4.26 3.697q-1.625 2.296-1.625 4.82.001 1.744.421 3.003a6.6 6.6 0 0 0 1.204 2.183 6.8 6.8 0 0 0 1.88 1.538q1.095.622 2.38 1.066zm31.112 41.536c0 3.023-.512 5.871-1.54 8.517a22.9 22.9 0 0 1-4.319 7.089c-1.848 2.077-4.045 3.803-6.585 5.19-2.54 1.384-5.323 2.334-8.352 2.858V261h-10.316v-7.675q-3.362-.567-6.108-1.681c-1.83-.75-3.495-1.628-4.986-2.632q-2.247-1.517-3.956-3.225c-1.139-1.145-2.138-2.288-2.997-3.45a30.2 30.2 0 0 1-4.598-8.858 197 197 0 0 0 6.167-2.182q1.175-.45 2.27-.84c.729-.261 1.383-.492 1.961-.675q.87-.281 1.88-.67a16.5 16.5 0 0 0 1.961 4.652q1.12 1.85 3.14 3.7c1.345 1.234 3.1 2.161 5.266 2.806v-22.878l-2.94-.532a34 34 0 0 1-2.608-.583c-1.644-.452-3.258-1.277-4.85-2.468a20.5 20.5 0 0 1-4.231-4.322 22.4 22.4 0 0 1-2.97-5.6 18.4 18.4 0 0 1-1.12-6.34c0-2.504.428-4.974 1.288-7.427a23.6 23.6 0 0 1 3.728-6.78q2.436-3.117 5.885-5.413c2.298-1.528 4.904-2.608 7.818-3.252V167h10.316v7.675c1.72.38 3.3.891 4.737 1.542 1.437.66 2.747 1.402 3.923 2.244a25.5 25.5 0 0 1 3.168 2.663 28 28 0 0 1 2.467 2.808 27.5 27.5 0 0 1 3.98 7.06l-12.557 3.813a12 12 0 0 0-1.233-2.521c-.451-.713-1.037-1.449-1.766-2.216-.73-.762-1.637-1.41-2.72-1.933v18.499a25 25 0 0 1 1.485.249c.47.096.964.233 1.487.42q4.986 1.345 8.38 4.011c2.262 1.769 4.092 3.726 5.494 5.859q2.1 3.19 3.027 6.531.924 3.328.924 5.967" style="fill:#000;fill-opacity:1;fill-rule:nonzero;stroke:none;stroke-width:2.35199881"/>
    <path d="M420.722 224.116c0 4.175-.854 8.072-2.566 11.7-1.71 3.624-4.116 6.787-7.215 9.466-3.102 2.688-6.804 4.819-11.105 6.376-4.304 1.557-9.03 2.342-14.179 2.342q-3.947 0-7.44-.738-3.498-.731-6.148-1.687c-2.065-.717-3.965-1.526-5.689-2.424l6.197-11.392c.566.26 1.25.607 2.058 1.013q1.212.628 2.848 1.186c1.09.376 2.311.694 3.664.964 1.352.254 2.857.393 4.51.393 3.156 0 6.077-.497 8.765-1.468q4.029-1.467 6.992-3.746c1.973-1.526 3.513-3.234 4.623-5.136 1.108-1.894 1.663-3.749 1.663-5.553 0-2.554-.435-4.755-1.298-6.592q-1.299-2.76-3.382-4.57a13.75 13.75 0 0 0-4.736-2.673 17 17 0 0 0-5.355-.873c-2.03 0-3.796.386-5.299 1.148-1.505.771-2.744 1.634-3.72 2.573a17 17 0 0 0-2.99 3.71l-11.669-3.71 2.538-39.352h44.648v12.347h-32.753l-.96 13.024q.677-.62 2.145-1.131c.824-.304 1.974-.556 3.439-.762q2.196-.304 5.75-.304 3.944.002 7.44 1.066c2.329.717 4.48 1.69 6.454 2.93a27.5 27.5 0 0 1 5.329 4.374 29 29 0 0 1 4.03 5.383 26 26 0 0 1 2.536 5.971q.875 3.101.875 6.145M473.994 213.86q0-5.518-.76-10.458-.761-4.934-2.537-8.655-1.776-3.723-4.652-5.893-2.872-2.17-7.104-2.169-4.17 0-7.018 2.169t-4.593 5.893q-1.749 3.72-2.507 8.655-.764 4.94-.764 10.458c0 4.092.254 7.98.764 11.643.506 3.657 1.49 6.77 2.959 9.32q1.63 3.051 4.565 4.713c1.954 1.112 4.153 1.663 6.594 1.663 2.446 0 4.661-.55 6.655-1.663q2.985-1.662 4.565-4.713c1.505-2.55 2.516-5.663 3.043-9.32.53-3.664.79-7.551.79-11.643m13.022 0c0 2.438-.134 5.167-.395 8.172a63.4 63.4 0 0 1-1.437 8.96c-.696 2.973-1.635 5.76-2.818 8.375-1.185 2.608-2.68 4.767-4.484 6.453a41 41 0 0 1-3.775 3.128 27.4 27.4 0 0 1-4.37 2.627 25.2 25.2 0 0 1-5.016 1.768q-2.676.656-5.78.656-3.102 0-5.776-.656a24.5 24.5 0 0 1-4.99-1.768 28 28 0 0 1-4.342-2.627A49 49 0 0 1 440 245.82c-1.804-1.686-3.295-3.845-4.48-6.453a45.3 45.3 0 0 1-2.82-8.375 66 66 0 0 1-1.465-8.96c-.282-3.005-.422-5.734-.422-8.172 0-1.696.092-3.72.282-6.091.186-2.366.506-4.833.958-7.385a61 61 0 0 1 1.857-7.608c.79-2.516 1.788-4.776 2.99-6.766a22.9 22.9 0 0 1 4.028-4.849 27.6 27.6 0 0 1 5.33-3.803 27.4 27.4 0 0 1 6.173-2.48 25 25 0 0 1 6.51-.878c2.217 0 4.406.299 6.57.877a27.5 27.5 0 0 1 6.173 2.481 27.5 27.5 0 0 1 5.325 3.803 21.6 21.6 0 0 1 3.976 4.85c1.2 1.989 2.2 4.249 2.985 6.765a60 60 0 0 1 1.86 7.608c.454 2.552.762 5.019.934 7.385.167 2.37.25 4.395.25 6.09M537.976 213.86q.002-5.518-.76-10.458-.761-4.934-2.535-8.655-1.778-3.723-4.654-5.893-2.874-2.17-7.102-2.169-4.172 0-7.018 2.169-2.849 2.17-4.593 5.893c-1.169 2.481-2.001 5.364-2.51 8.655q-.762 4.94-.763 10.458c0 4.092.256 7.98.764 11.643.508 3.657 1.489 6.77 2.958 9.32 1.09 2.034 2.61 3.605 4.568 4.713 1.951 1.112 4.15 1.663 6.594 1.663s4.659-.55 6.653-1.663a11.13 11.13 0 0 0 4.565-4.713c1.505-2.55 2.518-5.663 3.045-9.32.527-3.664.788-7.551.788-11.643m13.024 0c0 2.438-.134 5.167-.397 8.172a63.4 63.4 0 0 1-1.435 8.96 45.5 45.5 0 0 1-2.817 8.375c-1.186 2.608-2.681 4.767-4.487 6.453a41 41 0 0 1-3.775 3.128 27.4 27.4 0 0 1-4.37 2.627 25 25 0 0 1-5.016 1.768q-2.675.656-5.778.656c-2.067 0-3.996-.218-5.776-.656a24.5 24.5 0 0 1-4.993-1.768 28 28 0 0 1-4.341-2.627 48 48 0 0 1-3.831-3.128c-1.806-1.686-3.297-3.845-4.482-6.453a45.3 45.3 0 0 1-2.82-8.375 67 67 0 0 1-1.465-8.96c-.28-3.005-.422-5.734-.422-8.172 0-1.696.094-3.72.282-6.091a78 78 0 0 1 .957-7.385 61 61 0 0 1 1.858-7.608c.793-2.516 1.788-4.776 2.992-6.766a22.8 22.8 0 0 1 4.028-4.849 27.6 27.6 0 0 1 5.327-3.803 27.5 27.5 0 0 1 6.173-2.48 25 25 0 0 1 6.512-.878c2.218 0 4.405.299 6.569.877a27.5 27.5 0 0 1 6.173 2.481 27.5 27.5 0 0 1 5.324 3.803 21.6 21.6 0 0 1 3.977 4.85c1.202 1.989 2.199 4.249 2.987 6.765a61 61 0 0 1 1.86 7.608c.451 2.552.76 5.019.934 7.385.164 2.37.251 4.395.251 6.09" style="fill:#000;fill-opacity:1;fill-rule:nonzero;stroke:none;stroke-width:2.35174417"/>
    <path d="M59.92 237.08c-3.903-3.911-5.888-8.109-4.454-9.546l112.571-112.572s-4.744-5.27-10.648-9.8c-5.901-4.529-13.108-8.879-13.108-8.879s-5.48-2.329-6.487-5.912c-1.002-3.586 2.097-5.716 2.097-5.716l43.717-43.728s2.134-3.095 5.715-2.097c3.581 1.007 5.908 6.487 5.908 6.487s4.353 7.211 8.882 13.12c4.525 5.898 9.632 10.422 9.632 10.422l14.396 14.396s4.524 5.107 10.422 9.632c5.909 4.529 13.12 8.882 13.12 8.882s5.48 2.327 6.487 5.908c.998 3.581-2.097 5.715-2.097 5.715l-43.728 43.717s-2.13 3.1-5.716 2.097c-3.583-1.007-5.912-6.487-5.912-6.487s-4.35-7.207-8.88-13.108c-4.529-5.904-9.8-10.648-9.8-10.648L69.468 241.534c-1.438 1.434-5.636-.551-9.546-4.455z" style="fill:#000;fill-opacity:1;fill-rule:nonzero;stroke:none;stroke-width:2.35301137"/>
    <rect width="7.8" height="76.6" x="148.511" y="-108.364" rx="3.9" ry="3.9" style="fill:#000;fill-opacity:1;fill-rule:nonzero;stroke:none;stroke-width:17.32119179;stroke-linecap:round;stroke-linejoin:round;stroke-miterlimit:4;stroke-dasharray:none;stroke-opacity:1" transform="rotate(45)"/>
    <rect width="7.8" height="76.6" x="263.711" y="-108.364" rx="3.9" ry="3.9" style="fill:#000;fill-opacity:1;fill-rule:nonzero;stroke:none;stroke-width:17.32119179;stroke-linecap:round;stroke-linejoin:round;stroke-miterlimit:4;stroke-dasharray:none;stroke-opacity:1" transform="rotate(45)"/>
  </g>
</svg>
