<svg xmlns="http://www.w3.org/2000/svg" viewBox="0 0 2100 900" role="img" aria-labelledby="title">
  <title id="title">Verkehrszeichen Rb-77 - Truck scale exit</title>
  <path d="M31481.592-2163.44c21.059 0 38.114-17.053 38.114-38.098v-823.804c0-21.043-17.055-38.098-38.114-38.098H29457.82c-21.045 0-38.114 17.055-38.114 38.098v823.803c0 21.046 17.069 38.099 38.114 38.099z" style="fill:#fff;fill-opacity:1;fill-rule:evenodd;stroke:#000;stroke-width:1;stroke-miterlimit:4;stroke-dasharray:none" transform="translate(-29419.706 3063.44)"/>
  <path d="M31484.756-2201.505c0 1.723-1.4 3.122-3.122 3.122h-2024.136a3.13 3.13 0 0 1-3.122-3.126v-824.157c0-1.714 1.4-3.117 3.122-3.117h2024.136a3.125 3.125 0 0 1 3.122 3.117zm-2.954-846.734h-2023.786c-12.7 0-23.103 10.397-23.103 23.1v823.806c0 12.698 10.403 23.095 23.103 23.095h2023.786c12.7 0 23.104-10.397 23.104-23.095v-823.805c0-12.704-10.404-23.1-23.104-23.1" style="fill:#000;fill-opacity:1;fill-rule:evenodd;stroke:none;stroke-width:4.93931627" transform="translate(-29419.706 3063.44)"/>
  <path d="m30864.019-2411.365 367.169-366.903s-39.235-22.55-42.189-24.368c-6.007-3.725-12.294-20.249 14.478-26.023 26.787-5.769 157.849-32.453 157.849-32.453s-26.689 131.053-32.458 157.827c-5.769 26.77-22.306 20.486-26.03 14.472-1.806-2.939-24.364-42.184-24.364-42.184l-366.959 367.115zM30128.868-2604.712v-81.378h86.885l30.161 81.378zm-433.246 213.387c29.055-9.025 50.226-35.916 50.66-67.822h339.165v22.492h47.048c7.799 21.311 24.966 38.085 46.502 45.394zm578.254-45.394h84.588v-29.605h-15.724v-109.662c0-13.41-10.978-24.38-24.392-24.38h-48.546l-39.137-104.453h-127.547v-90.185l-559.519-.01c-14.451 0-26.269 11.82-26.269 26.256v309.566h84.756v-.14c.28 31.979 21.564 58.946 50.647 67.984H29528.7v25.104h792.056v-25.104h-93.465c21.535-7.31 38.702-24.083 46.501-45.394" style="fill:#000;fill-opacity:1;fill-rule:evenodd;stroke:none;stroke-width:4.93931627" transform="translate(-29419.706 3063.44)"/>
  <path d="M30490.871-2616.045v301.334c0 8.62-6.832 15.455-15.459 15.455h-956.639v51.61h956.639c36.77 0 67.07-30.296 67.07-67.065v-301.334z" style="color:#000;font-style:normal;font-variant:normal;font-weight:400;font-stretch:normal;font-size:medium;line-height:normal;font-family:sans-serif;font-variant-ligatures:normal;font-variant-position:normal;font-variant-caps:normal;font-variant-numeric:normal;font-variant-alternates:normal;font-feature-settings:normal;text-indent:0;text-align:start;text-decoration:none;text-decoration-line:none;text-decoration-style:solid;text-decoration-color:#000;letter-spacing:normal;word-spacing:normal;text-transform:none;writing-mode:lr-tb;direction:ltr;text-orientation:mixed;dominant-baseline:auto;baseline-shift:baseline;text-anchor:start;white-space:normal;shape-padding:0;clip-rule:nonzero;display:inline;overflow:visible;visibility:visible;opacity:1;isolation:auto;mix-blend-mode:normal;color-interpolation:sRGB;color-interpolation-filters:linearRGB;solid-color:#000;solid-opacity:1;vector-effect:none;fill:#000;fill-opacity:1;fill-rule:nonzero;stroke:none;stroke-width:51.61091995;stroke-linecap:butt;stroke-linejoin:miter;stroke-miterlimit:4;stroke-dasharray:none;stroke-dashoffset:0;stroke-opacity:1;color-rendering:auto;image-rendering:auto;shape-rendering:auto;text-rendering:auto" transform="translate(-29419.706 3063.44)"/>
  <path d="M30501.708-2767.013c-3.164-2.525-17.419-15.197-10.669-32.839 6.161-16.14 23.579-18.501 28.48-18.012 29.629 2.919 67.604 44.638 83.062 60.313-24.07 0-83.244 4.638-100.873-9.462" style="fill:#000;fill-opacity:1;fill-rule:evenodd;stroke:none;stroke-width:4.93931627" transform="translate(-29419.706 3063.44)"/>
  <path d="M30516.943-2979.728c-107.242 0-194.74 87.482-194.74 194.716 0 107.23 87.498 194.711 194.74 194.711s194.741-87.48 194.741-194.71c0-107.235-87.499-194.718-194.741-194.718m0 51.66c79.325 0 143.08 63.747 143.08 143.056 0 79.304-63.755 143.051-143.08 143.051s-143.08-63.747-143.08-143.05c0-79.31 63.755-143.057 143.08-143.057" style="color:#000;font-style:normal;font-variant:normal;font-weight:400;font-stretch:normal;font-size:medium;line-height:normal;font-family:sans-serif;font-variant-ligatures:normal;font-variant-position:normal;font-variant-caps:normal;font-variant-numeric:normal;font-variant-alternates:normal;font-feature-settings:normal;text-indent:0;text-align:start;text-decoration:none;text-decoration-line:none;text-decoration-style:solid;text-decoration-color:#000;letter-spacing:normal;word-spacing:normal;text-transform:none;writing-mode:lr-tb;direction:ltr;text-orientation:mixed;dominant-baseline:auto;baseline-shift:baseline;text-anchor:start;white-space:normal;shape-padding:0;clip-rule:nonzero;display:inline;overflow:visible;visibility:visible;opacity:1;isolation:auto;mix-blend-mode:normal;color-interpolation:sRGB;color-interpolation-filters:linearRGB;solid-color:#000;solid-opacity:1;vector-effect:none;fill:#000;fill-opacity:1;fill-rule:nonzero;stroke:none;stroke-width:51.66030884;stroke-linecap:butt;stroke-linejoin:miter;stroke-miterlimit:4;stroke-dasharray:none;stroke-dashoffset:0;stroke-opacity:1;color-rendering:auto;image-rendering:auto;shape-rendering:auto;text-rendering:auto" transform="translate(-29419.706 3063.44)"/>
</svg>
