<svg xmlns="http://www.w3.org/2000/svg" viewBox="0 0 600 600" role="img" aria-labelledby="title">
  <title id="title">Verkehrszeichen Rb-no-pedestrians-motorcycles - No pedestrians or motorcycles</title>
  <path d="M38785.612-7137.133c20.956 0 38.1-17.145 38.1-38.1v-523.8c0-20.956-17.144-38.1-38.1-38.1h-523.8c-20.952 0-38.1 17.144-38.1 38.1v523.8c0 20.955 17.148 38.1 38.1 38.1z" style="fill:#fff;fill-opacity:1;fill-rule:evenodd;stroke:#000;stroke-width:1;stroke-miterlimit:4;stroke-dasharray:none" transform="translate(-38223.712 7737.133)"/>
  <path d="M38798.76-7175.216c0 7.234-5.864 13.1-13.1 13.1h-523.8c-7.232 0-13.1-5.867-13.1-13.101v-523.799c0-7.233 5.868-13.1 13.1-13.1h523.8c7.236 0 13.1 5.867 13.1 13.1zm-13.088-551.892h-523.812c-15.512 0-28.092 12.58-28.092 28.094v523.811c0 15.514 12.58 28.094 28.092 28.094h523.812c15.516 0 28.096-12.58 28.096-28.094v-523.811c0-15.514-12.58-28.094-28.096-28.094" style="fill:#000;fill-opacity:1;fill-rule:evenodd;stroke:none;stroke-width:1.41111112" transform="translate(-38223.712 7737.133)"/>
  <path d="M38329.74-7437.133c0-46.964 16.692-90.029 44.468-123.59l273.096 273.096c-33.56 27.775-76.624 44.467-123.592 44.467-107.124 0-193.972-86.846-193.972-193.973m193.976-193.973c107.124 0 193.972 86.846 193.972 193.973 0 46.9-16.648 89.912-44.352 123.452l-273.076-273.072c33.54-27.707 76.556-44.353 123.456-44.353m250.936 193.973c0-138.587-112.352-250.938-250.936-250.938-138.588 0-250.94 112.351-250.94 250.938s112.352 250.938 250.94 250.938c138.584 0 250.936-112.351 250.936-250.938" style="fill:#c0111e;fill-opacity:1;fill-rule:evenodd;stroke:none;stroke-width:1.41111112" transform="translate(-38223.712 7737.133)"/>
  <path d="M38515.468-7594.4c6.076 0 11-4.925 11-11s-4.924-11.002-11-11.002-11 4.926-11 11.001c0 6.077 4.924 11.001 11 11.001M38502.252-7552.61c3.952-2.76 7.496-6.823 11.188-9.545l10.216 24.835-18.348 35.354-.788 13.365 13.556 13.555 1.74-19.723 16.892-29.125 31.7 64.292 11.748-4.215-39.68-108.223 12.38 3.955c3.284 9.919 5.224 18.645 8.656 27.373h9.696l-6.12-35.13-38.744-19.28-9.396 3.88-18.716 25.812-24.956 17.857 5.072 7.755zM38621.424-7371.7c2.792.063 10.224 4.14 17.732 15.905 1.808 2.834 8.064 1.906 8.064 1.906-4.132-15.987-19.344-25.276-19.344-25.276 1.928-1.615 11.388-4.907 8.112-13.262-1.456-3.711-3.248-4.23-6.956-3.587-5.232.906-7.104-1.79-7.104-1.79l2.1-11.766c.572-3.44-.428-5.976-3.184-6.997-6.024-2.173-8.208 4.815-8.208 4.815l-5.916 10.293-1.688-1.083s0-3.98-4.392-2.908l-10.488 2.478zM38430.84-7306.688c-11.988 0-21.708-9.719-21.708-21.708s9.72-21.708 21.708-21.708c3.004 0 5.864.61 8.468 1.714l-4.488 7.054a13.5 13.5 0 0 0-3.98-.597c-7.476 0-13.536 6.061-13.536 13.537s6.06 13.536 13.536 13.536 13.532-6.06 13.532-13.536c0-3.415-1.26-6.532-3.348-8.912l4.232-7.318a21.66 21.66 0 0 1 7.288 16.23c0 11.99-9.716 21.707-21.704 21.707m186.496-4.606c-4.324 4.244-10.244 6.868-16.78 6.868-11.496 0-21.1-8.09-23.432-18.886l8.18.208c2.192 6.316 8.192 10.849 15.252 10.849 4.376 0 8.336-1.749 11.24-4.574l-22.852-22.855.24 1.305-10.36-.04s1.5-3.487 4.648-6.745l-62.184-62.184c-14.5-7.767-30.952-14.268-33.14-12.542-3.684 2.904-3.688 4.542-6.624 5.767 1.02-3.863 5.192-17.798 9.948-17.299 3.504 0 5.972 2.955 8.86 3.115l-9.628-9.627c-2.24.452-4.384 1.603-5.744 3.216-2.244 2.66-10.224 17.122-12.484 20.907-2.448-2.259-5.592-5.177-8.04-7.436 0 0-2.34 1.916-2.256 4.615.08 2.388 2.532 4.354 1.872 6.877-.912 3.488-4.312 1.76-6.62 1.3-3-.6-5.028-1.025-5.548 2.758-.4 2.896.08 4.16.08 7.078 0 2.553-1.116 8.176 1.488 9.477 2.524 1.26 5.484-1.703 7.776-1.89-.16 1.41.584 1.305.36 3.808l-8.796 15.54s-20.032-11.727-43.064-.938c0 0 2.976 3.831 7.52 4.672 16.252-5.731 32.424 2.507 32.424 2.507l-1.816 3.02a37.9 37.9 0 0 0-17.044-4.034c-21.016 0-38.052 17.038-38.052 38.052 0 21.016 17.036 38.051 38.052 38.051s38.052-17.035 38.052-38.05c0-12.373-6.168-23.59-14.812-30.061l1.548-2.922s13.596 9.252 15.912 27.46c.444 3.492 5.94-3.277 5.616-7.49-2.752-14.758-17.784-26.21-17.784-26.21l7.176-14.043c.916 3.198 1.94 7.506 4.992 9.985 2.96 2.404 5.676-1.218 5.676-1.218l2.076-.16 1.848 1.93s-.54 2.364-1.044 3.68c-1.204 2.054-3.36 5.518-3.36 5.518 3.62 2.344 7.456 4.633 11.652 5.854 4.556 1.322 5.776 3.214 8.36 8.252 10.456 20.404 16.956 22.987 20.556 25.064 6.888 3.972 33.608.591 45.48-1.11 2.24 18.876 18.292 33.52 37.772 33.52 10.424 0 19.868-4.196 26.74-10.987z" style="fill:#000;fill-opacity:1;fill-rule:evenodd;stroke:none;stroke-width:1.41111112" transform="translate(-38223.712 7737.133)"/>
</svg>
