<svg xmlns="http://www.w3.org/2000/svg" viewBox="0 0 604 754" role="img" aria-labelledby="title">
  <title id="title">Verkehrszeichen Ra-4 - Pedestrian crosswalk</title>
  <g transform="translate(0 1084.667)">
    <rect width="602" height="752" x="1" y="-1083.667" rx="39" ry="39" style="fill:#000;fill-rule:evenodd;stroke:none;stroke-width:1.50805;stroke-linecap:round"/>
    <rect width="600" height="750" x="2" y="-1082.667" rx="38" ry="38" style="fill:#fff;fill-rule:evenodd;stroke:none;stroke-width:1.50354;stroke-linecap:round"/>
    <rect width="580" height="730" x="12" y="-1072.667" rx="28" ry="28" style="fill:#000;fill-rule:evenodd;stroke:none;stroke-width:1.45843;stroke-linecap:round"/>
    <rect width="550" height="700" x="27" y="-1057.667" rx="13" ry="13" style="fill:#fff;fill-rule:evenodd;stroke:none;stroke-width:1.39072;stroke-linecap:round"/>
    <path d="M98-458.667h408v12H98z" style="fill:#000;fill-rule:evenodd;stroke:none;stroke-width:.571968;stroke-linecap:round"/>
    <path d="M417.429-728.673c-10.596-26.942-16.58-53.888-26.715-84.516l-38.23-12.204L475-491.246l-36.273 13.01-97.868-198.507-52.163 89.926-9.9 112.15-42.718-2.185 7.832-132.187 56.647-109.156-31.547-76.683c-11.398 8.402-22.338 20.952-34.544 29.473l-73.805 39.495L145-749.857l77.055-55.132 57.778-79.704 29.015-11.974 119.635 59.528 18.882 108.466z" style="fill:#000;fill-opacity:1;fill-rule:nonzero;stroke:none;stroke-width:1.76417"/>
    <circle cx="275" cy="-927.667" r="34" style="fill:#000;fill-rule:evenodd;stroke:none;stroke-width:1.27836;stroke-linecap:round"/>
  </g>
</svg>
