<svg xmlns="http://www.w3.org/2000/svg" viewBox="0 0 600 900" role="img" aria-labelledby="title">
  <title id="title">Verkehrszeichen Rc-7 - Rc-7</title>
  <path d="M46892.772-15205.995h548.266c14.225 0 25.867 11.642 25.867 25.857v848.278c0 14.224-11.642 25.865-25.867 25.865h-548.266c-14.225 0-25.867-11.641-25.867-25.865v-848.278c0-14.215 11.642-25.857 25.867-25.857z" style="fill:#fff;stroke:#000;stroke-width:1;stroke-linecap:butt;stroke-linejoin:miter;stroke-miterlimit:22.9260006;stroke-dasharray:none;stroke-opacity:1" transform="translate(-46866.905 15205.995)"/>
  <path d="M46904.383-15191.014c-12.415 0-22.504 10.08-22.504 22.48v825.094c0 12.408 10.089 22.48 22.504 22.48h525.051c12.416 0 22.481-10.072 22.481-22.48v-825.094c0-12.4-10.065-22.48-22.481-22.48z" style="fill:#000;fill-opacity:1;fill-rule:evenodd;stroke:none;stroke-width:2.72711849" transform="translate(-46866.905 15205.995)"/>
  <path d="M47161.25-14588.571c-42.542 31.531-74.987 100.763-71.949 153.637v50.787h85.014v-50.787c-1.74-30.395 16.876-70.221 41.359-88.333 87.001-72.5 98.728-201.772 26.222-288.736-6.3-7.994-19.821-21.367-27.838-27.575-22.867-16.558-40.238-53.198-38.645-81.351v-93.659l34.308 6.06c5.427.959 10.653-2.683 11.604-8.108.541-2.412-.309-5.945-1.917-7.816l-78.559-102.37c-3.348-4.376-9.625-5.211-14.016-1.856-.618.387-1.438 1.307-1.855 1.856l-78.552 102.37c-3.347 4.368-2.497 10.645 1.879 14.007 1.84 1.623 5.396 2.481 7.816 1.917l34.285-6.06v93.659c-2.891 50.949 28.573 117.22 69.878 147.197 4.7 3.649 12.663 11.456 16.335 16.164 42.433 50.903 35.53 126.551-15.369 168.997" style="fill:#fff;fill-opacity:1;fill-rule:evenodd;stroke:none;stroke-width:2.72711849" transform="translate(-46866.905 15205.995)"/>
</svg>
