<svg xmlns="http://www.w3.org/2000/svg" viewBox="0 0 600 450" role="img" aria-labelledby="title">
  <title id="title">Verkehrszeichen Rb-73R - Pedestrians, move to right side to cross</title>
  <path d="M600 432.891c0 9.454-7.331 17.109-16.363 17.109H16.363C7.327 450 0 442.345 0 432.891V17.098C0 7.657 7.327 0 16.363 0h567.274C592.669 0 600 7.657 600 17.098Z" style="fill:#fff;stroke:#000;stroke-width:1.00012507;stroke-linecap:butt;stroke-linejoin:miter;stroke-miterlimit:4;stroke-dasharray:none;stroke-opacity:1"/>
  <path d="M316.882 299.262c-7.67 0-13.883 4.198-13.883 9.379v126.196c0 5.18 6.213 9.382 13.883 9.382h262.534c7.666 0 13.883-4.202 13.883-9.382V308.64c0-5.18-6.217-9.38-13.883-9.38zm0 4.263h262.534c4.182 0 7.574 2.29 7.574 5.116v126.196c0 2.827-3.392 5.117-7.574 5.117H316.882c-4.181 0-7.574-2.29-7.574-5.117V308.64c0-2.826 3.393-5.116 7.574-5.116" style="fill:#000;fill-opacity:1;fill-rule:nonzero;stroke:none;stroke-width:1.00012505;stroke-miterlimit:4;stroke-dasharray:none"/>
  <path d="m493.919 359.9-.138-.445-4.786-18.323c-.23-1.558.183-3.172 1.169-4.4 1.559-1.612 3.952-2.555 6.29-1.779l2.953 1.897 35.803 26.06c5.62 4.34 11.416 8.071 16.982 12.589v.22l-32.241 23.376-23.497 16.708c-1.893.73-4.342.607-6.011-.888-1.398-1.394-1.783-3.172-1.733-5.124 1.733-6.353 3.457-12.836 5.181-19.24l-149.84.01V359.9zM586.362 283.18a6.573 6.573 0 0 1-6.574 6.572H316.506c-3.631 0-6.584-2.947-6.584-6.571V19.899a6.59 6.59 0 0 1 6.584-6.583h263.282a6.576 6.576 0 0 1 6.574 6.582zM579.788 5.79H316.506c-7.799 0-14.121 6.314-14.121 14.109V283.18c0 7.794 6.322 14.118 14.121 14.118h263.282c7.794 0 14.121-6.324 14.121-14.118V19.899c0-7.796-6.327-14.11-14.121-14.11" style="fill:#000;fill-opacity:1;fill-rule:evenodd;stroke:none;stroke-width:1.00012505;stroke-miterlimit:4;stroke-dasharray:none"/>
  <path d="M448.121 249.03c-53.839 0-97.491-43.655-97.491-97.5 0-53.854 43.652-97.499 97.491-97.499 53.849 0 97.501 43.645 97.501 97.5 0 53.844-43.652 97.5-97.501 97.5m0-223.64c-69.657 0-126.128 56.474-126.128 126.14 0 69.654 56.471 126.118 126.128 126.118s126.128-56.464 126.128-126.118c0-69.666-56.471-126.14-126.128-126.14" style="fill:#00644f;fill-opacity:1;fill-rule:evenodd;stroke:none;stroke-width:1.00012505;stroke-miterlimit:4;stroke-dasharray:none"/>
  <path d="M430.603 94.96c6.033 0 10.925-4.89 10.925-10.929 0-6.031-4.892-10.92-10.925-10.92S419.677 78 419.677 84.03c0 6.04 4.892 10.93 10.926 10.93M476.327 148.27c-3.407-8.664-5.332-17.322-8.597-27.185l-12.292-3.918 39.402 107.466-11.663 4.196-31.48-63.857-16.771 28.922-3.191 36.067-13.736-.697 2.517-42.522 18.22-35.096-10.146-24.664c-3.668 2.698-7.185 6.731-11.114 9.476l-23.735 12.703-5.039-7.703 24.781-17.726 18.591-25.645 9.33-3.848 38.476 19.15 6.07 34.881zM290.064 283.18c0 3.625-2.948 6.572-6.579 6.572H20.198a6.57 6.57 0 0 1-6.57-6.571V19.899a6.566 6.566 0 0 1 6.57-6.583h263.287a6.577 6.577 0 0 1 6.579 6.582zm-6.579-277.4H20.198c-7.79 0-14.107 6.323-14.107 14.118V283.18c0 7.794 6.317 14.118 14.107 14.118h263.287c7.799 0 14.117-6.324 14.117-14.118V19.899c0-7.796-6.318-14.118-14.117-14.118" style="fill:#000;fill-opacity:1;fill-rule:evenodd;stroke:none;stroke-width:1.00012505;stroke-miterlimit:4;stroke-dasharray:none"/>
  <path d="M134.296 94.96c6.038 0 10.925-4.89 10.925-10.929 0-6.031-4.887-10.92-10.925-10.92-6.034 0-10.912 4.889-10.912 10.92 0 6.04 4.878 10.93 10.912 10.93M180.024 148.27c-3.415-8.664-5.336-17.322-8.596-27.185l-12.292-3.929 39.407 107.487-11.673 4.186-31.475-63.857-16.785 28.922-3.177 36.067-13.746-.697 2.522-42.514 18.215-35.112-10.137-24.656c-3.667 2.69-7.189 6.731-11.118 9.476l-23.735 12.694-5.03-7.694 24.777-17.726 18.582-25.645 9.334-3.848 38.481 19.15 6.075 34.881z" style="fill:#000;fill-opacity:1;fill-rule:evenodd;stroke:none;stroke-width:1.00012505;stroke-miterlimit:4;stroke-dasharray:none"/>
  <path d="M54.323 151.549c0-23.621 8.39-45.269 22.346-62.129l137.269 137.264c-16.876 13.957-38.521 22.346-62.124 22.346-53.839 0-97.491-43.646-97.491-97.481m97.491-97.5c53.844 0 97.496 43.638 97.496 97.5 0 23.569-8.363 45.187-22.3 62.048L89.763 76.336c16.872-13.933 38.481-22.287 62.051-22.287m126.128 97.5c0-69.666-56.475-126.136-126.128-126.136S25.691 81.883 25.691 151.549c0 69.644 56.471 126.11 126.123 126.11s126.128-56.466 126.128-126.11" style="fill:#c0111e;fill-opacity:1;fill-rule:evenodd;stroke:none;stroke-width:1.00012505;stroke-miterlimit:4;stroke-dasharray:none"/>
</svg>
