<svg xmlns="http://www.w3.org/2000/svg" viewBox="0 0 600 600" role="img" aria-labelledby="title">
  <title id="title">Verkehrszeichen Rb-67 - Bicycles prohibited</title>
  <g style="display:inline">
    <path d="M38785.612-7137.133c20.956 0 38.1-17.145 38.1-38.1v-523.8c0-20.956-17.144-38.1-38.1-38.1h-523.8c-20.952 0-38.1 17.144-38.1 38.1v523.8c0 20.955 17.148 38.1 38.1 38.1z" style="fill:#fff;fill-opacity:1;fill-rule:evenodd;stroke:#000;stroke-width:1;stroke-miterlimit:4;stroke-dasharray:none" transform="translate(-38223.712 7737.133)"/>
    <path d="M38798.76-7175.216c0 7.234-5.864 13.1-13.1 13.1h-523.8c-7.232 0-13.1-5.867-13.1-13.101v-523.799c0-7.233 5.868-13.1 13.1-13.1h523.8c7.236 0 13.1 5.867 13.1 13.1zm-13.088-551.892h-523.812c-15.512 0-28.092 12.58-28.092 28.094v523.811c0 15.514 12.58 28.094 28.092 28.094h523.812c15.516 0 28.096-12.58 28.096-28.094v-523.811c0-15.514-12.58-28.094-28.096-28.094" style="display:inline;fill:#000;fill-opacity:1;fill-rule:evenodd;stroke:none;stroke-width:1.41111" transform="translate(-38223.712 7737.133)"/>
    <path d="M1133.865 185.434c-525.43 0-948.426 422.997-948.426 948.425 0 525.429 422.996 948.428 948.426 948.428 525.426 0 948.428-423 948.428-948.428s-423.002-948.425-948.428-948.425m0 215.302c406.148 0 733.123 326.974 733.123 733.125 0 178.024-62.835 340.82-167.605 467.553L666.31 568.344c126.732-104.772 289.53-167.608 467.554-167.608M568.355 666.3l1033.07 1033.072c-126.733 104.775-289.533 167.613-467.56 167.613-406.152 0-733.125-326.971-733.125-733.123 0-178.028 62.84-340.828 167.615-467.562" style="display:inline;fill:#c0111e;fill-opacity:1;stroke-width:.0999999;stroke-linecap:round" transform="scale(.26458)"/>
    <path d="M900.838 778.717h42.982c8.727 0 15.938-7.565 15.938-16.875 0-9.173-7.023-16.752-15.553-16.752H867.22zM1597.315 1475.365c110.768-27.663 192.863-127.831 192.863-247.174 0-140.74-114.074-254.867-254.744-254.867l-.023-.006c-34.383 0-67.188 6.845-97.133 19.203h-.076c-39.311-69.504-72.711-128.642-72.711-128.642l13.175-23.596s70.956-10.199 71.795-72.23c-66.712 1.285-195.892 3.859-195.892 3.859s-7.188-.477-9.346 2.998c-5.083 6.722 2.58 14.348 2.58 14.348l85.819 37.025-16.778 37.502-331.056-.1 43.35 43.362h269.482l-76.897 192.634 32.567 32.575 90.761-214.213 54.524 94.248c-54.828 34.464-95.29 89.371-111.313 153.945l82.031 82.051c47.595.019 159.02.066 174.903.066 19.423 0 25.89-20.979 17.76-35.357-4.075-7.028-52.036-91.938-99.707-176.282l.226.155c22.333-8.468 46.613-13.03 71.936-13.03 112.807 0 204.302 91.447 204.302 204.348 0 106.674-81.827 194.239-186.11 203.453zm-172.5-419.015 83.802 145.466h-175.736l-.227.08c7.487-61.572 42.38-113.436 92.16-145.547zM811.365 933.021c-8.881 23.623-18.496 49.094-18.496 49.094a254.5 254.5 0 0 0-66.379-8.79c-140.685 0-254.744 114.127-254.744 254.866 0 140.693 114.059 254.787 254.744 254.787 140.7 0 254.737-114.094 254.737-254.787 0-102.993-61.024-191.7-148.887-231.927l14.037-28.223zm-84.902 90.815c16.796 0 33.189 2.021 48.787 5.818 0 0-71.216 186.786-73.51 192.91-4.471 12.082 1.706 25.574 13.717 29.967 12.019 4.518 25.509-1.7 29.961-13.69 4.456-12.005 71.553-193.95 71.553-193.95 67.419 33.396 113.758 102.93 113.758 183.293 0 112.808-91.425 204.302-204.266 204.302-112.804 0-204.299-91.494-204.299-204.302 0-112.902 91.495-204.348 204.299-204.348" style="font-style:normal;font-variant:normal;font-weight:400;font-stretch:normal;font-size:146.628px;line-height:1.25;font-family:&quot;Roadgeek 2005 Series C&quot;;-inkscape-font-specification:&quot;Roadgeek 2005 Series C&quot;;letter-spacing:0;word-spacing:0;display:inline;fill:#000;fill-opacity:1;fill-rule:evenodd;stroke:none;stroke-width:15.3105" transform="scale(.26458)"/>
  </g>
</svg>
