<svg xmlns="http://www.w3.org/2000/svg" viewBox="0 0 142.693 189.936" role="img" aria-labelledby="title">
  <title id="title">Verkehrszeichen Rb-58 - No stopping at tracks</title>
  <path d="M.48 181.58a7.877 7.877 0 0 0 7.876 7.876h125.985a7.875 7.875 0 0 0 7.872-7.876V8.352A7.87 7.87 0 0 0 134.341.48H8.356A7.874 7.874 0 0 0 .48 8.352z" style="fill:#fff;fill-rule:evenodd;stroke:#000;stroke-opacity:1;stroke-width:.64000003;stroke-miterlimit:4;stroke-dasharray:none"/>
  <path d="M2.372 181.571q0 2.477 1.754 4.232 1.755 1.754 4.232 1.754h125.986q2.475 0 4.229-1.754 1.752-1.754 1.752-4.232V8.342q0-2.478-1.752-4.23t-4.23-1.752H8.359q-2.479 0-4.232 1.753Q2.37 5.865 2.372 8.342z" style="fill:#000;fill-rule:evenodd;stroke:none"/>
  <path d="M5.204 181.574q0 1.303.923 2.227a3.04 3.04 0 0 0 2.229.924h125.985q1.302 0 2.224-.923a3.03 3.03 0 0 0 .923-2.228V8.344q0-1.302-.922-2.225a3.03 3.03 0 0 0-2.225-.921H8.356q-1.306-.001-2.23.922a3.03 3.03 0 0 0-.922 2.224z" style="fill:#fff;fill-rule:evenodd;stroke:none"/>
  <path d="M95.604 31.697c12.717 12.716 13.367 32.937 1.94 46.422L49.182 29.756c13.48-11.422 33.701-10.775 46.422 1.941m-2.102 50.468c-13.484 11.429-33.708 10.784-46.425-1.937-12.721-12.717-13.366-32.945-1.938-46.425zm8.449-56.827c-16.91-16.909-44.327-16.909-61.237 0s-16.91 44.327 0 61.237c16.91 16.909 44.327 16.909 61.237 0 16.909-16.91 16.909-44.328 0-61.237" style="fill:#c0111e;fill-rule:evenodd;stroke:none;fill-opacity:1"/>
  <path d="M66.13 144.883H54.454v-5.117H66.13zm10.424-5.117h11.673v5.117H76.554zm15.396 5.103v-5.06h10.16v5.06zm-41.215 0H40.574v-5.06h10.16zm15.389 32.407h10.424V150.42h9.906v3.457h7.233v-3.421h6.83v3.453h7.22v-3.433h6.899v-5.547h-8.748v-5.079h8.744v-5.473h-6.855v-3.378h-7.204v3.363h-6.831v-3.39h-7.256v3.311h-9.938v-26.685H66.124v26.685h-9.942v-3.311H48.93v3.39h-6.834v-3.363h-7.205v3.378h-6.854v5.473h8.744v5.079h-8.748v5.547h6.902v3.433h7.22v-3.453h6.827v3.421h7.232v-3.457h9.91zM51.787 40.458l-5.217 5.221v20.535l14.484 14.485h20.48l5.253-5.248zM55.842 36.415l35 34.999 5.229-5.219V45.71L81.554 31.214H61.043z" style="fill:#000;fill-rule:evenodd;stroke:none"/>
</svg>
