<svg xmlns="http://www.w3.org/2000/svg" viewBox="0 0 900 900" role="img" aria-labelledby="title">
  <title id="title">Verkehrszeichen Rc-10 - Rc-10</title>
  <path d="M49666.1-17197.804h829.742c19.316 0 35.129 15.687 35.129 34.87v830.26c0 19.183-15.813 34.87-35.129 34.87H49666.1c-19.325 0-35.129-15.687-35.129-34.87v-830.26c0-19.183 15.804-34.87 35.129-34.87z" style="fill:#fff;stroke:#000;stroke-width:1;stroke-linecap:butt;stroke-linejoin:miter;stroke-miterlimit:22.9260006;stroke-dasharray:none;stroke-opacity:1" transform="translate(-49630.971 17197.804)"/>
  <path d="M49678.678-16327.211h394.992v-330.962h14.602v330.962h394.983c11.822 0 21.426-9.525 21.426-21.259v-798.651c0-11.734-9.604-21.276-21.426-21.276h-804.577c-11.83 0-21.417 9.542-21.417 21.276v798.651c0 11.734 9.587 21.259 21.417 21.259" style="fill:#000;fill-opacity:1;fill-rule:evenodd;stroke:none;stroke-width:2.95312405" transform="translate(-49630.971 17197.804)"/>
  <path d="M49914.853-16673.66c0-35.321-28.861-63.994-64.444-63.994-35.6 0-64.461 28.673-64.461 63.994 0 35.328 28.861 63.969 64.461 63.969 35.583 0 64.444-28.641 64.444-63.969" style="fill:#fff;fill-opacity:1;fill-rule:evenodd;stroke:none;stroke-width:2.95312405" transform="translate(-49630.971 17197.804)"/>
  <path d="M49941.11-16436.242c-1.479-24.478 12.208-58.948 30.096-75.82 85.928-90.073 85.449-234.858-1.067-324.323-16.62-15.479-29.315-47.163-27.954-69.723v-90.541l33.39 5.847c5.319.926 10.368-2.577 11.276-7.857.588-2.335-.252-5.762-1.857-7.564l-76.485-98.964c-3.268-4.229-9.385-5.038-13.67-1.785-.504.417-1.378 1.235-1.79 1.785l-76.501 98.964c-3.268 4.22-2.461 10.309 1.815 13.562 1.823 1.55 5.26 2.418 7.604 1.859l33.424-5.847v94.444c-15.922-4.962-46.044-8.932-62.714-8.332l5.89-33.177c.933-5.262-2.621-10.275-7.889-11.201-2.361-.584-5.815.251-7.621 1.852l-99.716 75.929c-4.285 3.252-5.075 9.324-1.798 13.594.42.5 1.252 1.393 1.798 1.768l99.716 75.921c4.251 3.268 10.36 2.443 13.637-1.777 1.579-1.819 2.428-5.212 1.873-7.573l-5.89-33.143c34.289-2.044 82.635 16.871 106.287 41.575 62.949 58.239 66.385 156.152 7.663 218.62-31.096 29.391-54.908 89.381-52.362 131.907v49.124h82.819zM50260.28-16836.393c-16.627-15.471-29.323-47.155-27.953-69.715v-90.541l33.39 5.847c5.318.926 10.368-2.577 11.275-7.857.588-2.335-.252-5.762-1.857-7.564l-76.493-98.964c-3.268-4.229-9.376-5.029-13.645-1.793-.504.417-1.436 1.243-1.814 1.793l-76.493 98.964c-3.285 4.229-2.47 10.309 1.798 13.562 1.832 1.559 5.268 2.418 7.621 1.859l33.398-5.847v90.541c-2.428 40.825 20.56 98.163 50.581 126.186 56.521 58.431 56.823 152.983.672 211.773-31.088 29.391-54.9 89.373-52.345 131.907v49.124h82.811v-49.124c0-61.383 50.118-111.19 112-111.19h21.896l-5.924 33.176c-.89 5.254 2.613 10.259 7.924 11.193 2.335.584 5.78-.25 7.62-1.835l99.683-75.954c4.26-3.219 5.066-9.323 1.789-13.552-.336-.5-1.226-1.417-1.789-1.777l-99.683-75.928c-4.26-3.278-10.385-2.46-13.653 1.776-1.588 1.81-2.437 5.205-1.891 7.548l5.924 33.194h-21.896c-5.671-.08-16.561.501-22.182 1.251 17.065-67.096-10.233-160.423-60.789-208.053" style="fill:#fff;fill-opacity:1;fill-rule:evenodd;stroke:none;stroke-width:2.95312405" transform="translate(-49630.971 17197.804)"/>
</svg>
