<svg xmlns="http://www.w3.org/2000/svg" xml:space="preserve" viewBox="0 0 151.963 440.45" role="img" aria-labelledby="title">
  <title id="title">Verkehrszeichen Rc-13 - Seat belt</title>
  <defs>
    <path id="e" d="M242.5 154.98c0 24.564-19.936 44.5-44.5 44.5s-44.5-19.936-44.5-44.5 19.936-44.5 44.5-44.5 44.5 19.936 44.5 44.5"/>
  </defs>
  <path d="M81.152 385.185V17.915c0-19.423 15.45-34.874 34.873-34.874H483.3c19.423 0 34.873 15.45 34.873 34.874v367.27c0 19.426-15.45 34.873-34.873 34.873H116.025c-18.983 0-34.873-15.447-34.873-34.873z" style="fill:#fff;fill-rule:evenodd;stroke:#000;stroke-opacity:1;stroke-width:1.96193044;stroke-miterlimit:4;stroke-dasharray:none" transform="translate(-223.68 18.675)"/>
  <path d="M87.044 385.1c0 16.31 13.202 29.513 29.511 29.513h367.274c16.287 0 29.49-13.204 29.49-29.512V17.828c0-16.289-13.203-29.49-29.49-29.49H116.555c-16.31 0-29.511 13.201-29.511 29.49z" style="fill:#000;fill-rule:evenodd;stroke:none" transform="translate(-223.68 18.675)"/>
  <path d="M97.899 385.1V17.829c0-10.283 8.352-18.639 18.656-18.639h367.274c10.281 0 18.638 8.356 18.638 18.639V385.1c0 10.303-8.357 18.657-18.638 18.657H116.555c-10.304 0-18.656-8.354-18.656-18.657" style="fill:#fff;fill-rule:evenodd;stroke:none" transform="translate(-223.68 18.675)"/>
  <path d="M300.103 8.517c-106.587 0-193.035 86.449-193.035 193.035 0 106.588 86.448 193.037 193.035 193.037 106.585 0 193.036-86.449 193.036-193.037 0-106.586-86.45-193.035-193.036-193.035" style="fill:#017863;fill-opacity:1;fill-rule:evenodd;stroke:none" transform="translate(-223.68 18.675)"/>
  <path d="M300.103 39.604c89.412 0 161.948 72.536 161.948 161.948S389.515 363.5 300.103 363.5s-161.949-72.536-161.949-161.948S210.691 39.604 300.103 39.604" style="fill:#fff;fill-rule:evenodd;stroke:none" transform="translate(-223.68 18.675)"/>
  <path d="M408.347 321.963v-20.208h18.862a162 162 0 0 0 20.223-33.285h-38.957v-56.024a41.5 41.5 0 0 0-4.644-19.632 41.5 41.5 0 0 0-13.767-15.409l-4.207-2.583 47.311-64.936a162 162 0 0 0-21.771-25.446l-53.956 74.402-24.914-13.822-31.053 31.038-32.571-32.014-55.784 30.814a43.3 43.3 0 0 0-13.115 12.235 43.4 43.4 0 0 0-7.64 20.186v60.505h-40.468a161 161 0 0 0 19.964 33.253h20.336v21.756a164 164 0 0 0 6.993 5.868V206.965a34.9 34.9 0 0 1 5.904-15.923 34.94 34.94 0 0 1 11.924-10.814l50.467-27.125 33.69 32.717 33.126-31.942 19.19 10.627-62.018 85.14a16.4 16.4 0 0 0-2.176 9.083 16.4 16.4 0 0 0 3.616 9.41h-7.4v33.234h33.822a6.8 6.8 0 0 0 3.284-1.68 6.8 6.8 0 0 0 1.866-2.97l8.726 4.944h33.014v47.862a170 170 0 0 0 7.97-3.854v-138.82h-7.73v61.469H333.21l-8.397 4.113a7 7 0 0 0-1.92-2.604 7.06 7.06 0 0 0-3.28-1.548h-4.853a15.4 15.4 0 0 0 3.413-2.048c.883-.7 1.68-1.496 2.38-2.38l60.876-83.499 5.959 3.545a33.9 33.9 0 0 1 10.499 12.564 33.9 33.9 0 0 1 3.397 16.145v115.388c2.415-1.94 4.779-3.952 7.063-6.036" style="fill:#000;fill-rule:evenodd;stroke:none" transform="translate(-223.68 18.675)"/>
  <path d="M250.935 99.139c0 27.88 22.614 50.494 50.491 50.494 27.88 0 50.494-22.614 50.494-50.494 0-27.877-22.614-50.491-50.494-50.491-27.877 0-50.491 22.614-50.491 50.49" style="fill:#000;fill-rule:evenodd;stroke:none" transform="translate(-223.68 18.675)"/>
  <path d="M258.563 99.139c0-23.656 19.207-42.863 42.863-42.863 23.659 0 42.867 19.207 42.867 42.863 0 23.659-19.208 42.866-42.867 42.866-23.656 0-42.863-19.207-42.863-42.866" style="fill:#fff;fill-rule:evenodd;stroke:none" transform="translate(-223.68 18.675)"/>
  <path d="M226.576 345.874a167 167 0 0 0 6.978 3.36V300.9h31.622c1.634 0 3.272-.516 4.517-1.58a7.2 7.2 0 0 0 2.096-3.138v4.954h9.382v-33.181h-9.328v6.263c-.294-1.617-1.066-3.14-2.24-4.281a7.7 7.7 0 0 0-4.355-2.129h-31.473V206.62h-7.2zM294.87 284.543a7.885 7.885 0 0 1 7.882-7.883 7.882 7.882 0 0 1 0 15.763c-4.35 0-7.882-3.531-7.882-7.88" style="fill:#000;fill-rule:evenodd;stroke:none" transform="translate(-223.68 18.675)"/>
</svg>
