<svg xmlns="http://www.w3.org/2000/svg" viewBox="0 0 606 756" role="img" aria-labelledby="title">
  <title id="title">Verkehrszeichen Rb-1 - Maximum speed</title>
  <g transform="translate(0 459)">
    <rect width="604" height="754" x="1" y="-458" rx="42" ry="42" style="fill:#000;fill-opacity:1;stroke:none;stroke-width:270.85928345;stroke-linecap:round;stroke-linejoin:round;stroke-miterlimit:1.41400003;stroke-dasharray:none;stroke-opacity:1"/>
    <rect width="600" height="750" x="3" y="-456" rx="40" ry="40" style="fill:#fff;fill-opacity:1;stroke:none;stroke-width:269.24389648;stroke-linecap:round;stroke-linejoin:round;stroke-miterlimit:1.41400003;stroke-dasharray:none;stroke-opacity:1"/>
    <rect width="575" height="725" x="15.5" y="-443.5" rx="27.5" ry="27.5" style="fill:#000;fill-opacity:1;stroke:none;stroke-width:259.14483643;stroke-linecap:round;stroke-linejoin:round;stroke-miterlimit:1.41400003;stroke-dasharray:none;stroke-opacity:1"/>
    <rect width="550" height="700" x="28" y="-431" rx="15" ry="15" style="fill:#fff;fill-opacity:1;stroke:none;stroke-width:249.04049683;stroke-linecap:round;stroke-linejoin:round;stroke-miterlimit:1.41400003;stroke-dasharray:none;stroke-opacity:1"/>
    <g aria-label="50" style="font-style:normal;font-variant:normal;font-weight:400;font-stretch:normal;font-size:432.27664185px;line-height:1.25;font-family:&quot;Roadgeek 2005 Series D&quot;;-inkscape-font-specification:&quot;Roadgeek 2005 Series D&quot;;letter-spacing:0;word-spacing:0;fill:#000;fill-opacity:1;stroke:none;stroke-width:10.80691528">
      <path d="M270.118 62.04q0 24.208-9.51 44.525-9.078 20.317-25.937 35.447-16.858 15.13-40.201 23.775Q171.56 174 143.893 174q-19.02 0-37.608-4.323Q88.13 165.354 73 157.573l22.478-40.634q9.078 4.756 23.776 7.781 14.697 2.594 30.691 2.594 15.562 0 28.963-4.755 13.833-5.187 23.775-13.833 10.375-8.645 15.994-20.317 5.62-12.104 5.62-26.369 0-10.807-4.323-19.884-3.89-9.078-11.24-15.995-6.915-6.916-16.426-10.807-9.077-3.89-19.884-3.89-7.781 0-13.833 1.297-5.62 1.297-10.807 4.755t-10.375 9.51q-5.187 5.62-11.671 14.697L79.916 28.755l7.35-149.568h166.426v45.822H131.79l-3.026 47.55q15.994-4.755 25.072-6.484t19.884-1.73q19.885 0 37.176 7.782 17.724 7.78 30.692 21.181 13.4 13.4 20.75 31.124 7.78 17.724 7.78 37.608M533 24.432q0 34.582-8.213 66.139t-23.343 51.008Q477.237 174 431.415 174q-30.691 0-50.576-12.536t-32.853-39.337q-9.078-18.588-14.697-44.957-5.62-26.801-5.62-52.738 0-35.879 8.213-66.57 8.646-30.692 23.343-51.441 12.968-16.427 30.692-24.208Q408.073-126 433.145-126q27.665 0 47.118 12.536 19.452 12.536 33.285 39.337 9.078 19.453 14.265 45.39Q533-2.802 533 24.432m-45.82 0q0-24.64-4.324-45.389-4.322-21.181-12.968-35.879-6.916-11.239-15.994-16.426-8.646-5.188-21.614-6.052-16.859-.865-28.098 7.78-11.24 8.646-18.588 28.099-5.62 12.968-8.645 31.556-2.594 18.156-2.594 36.311 0 23.343 4.323 44.957 4.322 21.614 12.968 35.447 6.916 11.239 16.426 16.859t23.343 5.62q15.995 0 26.37-8.646 10.806-8.646 18.155-28.098 2.161-5.62 4.323-13.401 2.161-8.213 3.458-16.859 1.729-9.078 2.594-18.155t.864-17.724" style="font-style:normal;font-variant:normal;font-weight:400;font-stretch:normal;font-family:&quot;Roadgeek 2005 Series D&quot;;-inkscape-font-specification:&quot;Roadgeek 2005 Series D&quot;;fill:#000;fill-opacity:1;stroke:none;stroke-width:10.80691528"/>
      <g aria-label="MAXIMUM" style="font-style:normal;font-variant:normal;font-weight:400;font-stretch:normal;font-size:146.62756348px;line-height:1.25;font-family:&quot;Roadgeek 2005 Series C&quot;;-inkscape-font-specification:&quot;Roadgeek 2005 Series C&quot;;letter-spacing:0;word-spacing:0;fill:#000;fill-opacity:1;stroke:none;stroke-width:39.61479187">
        <path d="M112.587-257.76v-55.131L94.405-257.76 76.076-312.89v55.131H62V-356h14.076l18.329 55.132L112.587-356h14.222v98.24zM189.257-257.76l-6.892-26.832h-21.114l-6.452 26.832h-14.223L165.063-356h13.783l24.487 98.24zm-17.596-68.914-6.891 28.299h14.076zM252.188-257.76l-13.783-33.43-13.783 33.43h-14.809l21.408-51.026L211.279-356h14.81l12.316 29.619L250.87-356h14.81l-19.649 47.214 21.408 51.026zM281.014-257.76V-356h13.783v98.24zM367.112-257.76v-55.131L348.93-257.76l-18.328-55.131v55.131h-14.076V-356h14.076l18.329 55.132L367.112-356h14.223v98.24zM457.859-287.085q0 2.933-.293 5.279-.147 2.346-.587 4.398-.44 1.907-1.173 3.813t-1.76 3.812q-3.665 6.012-10.117 9.97Q437.624-256 430.586-256q-7.331 0-13.93-3.812-6.451-3.813-10.117-9.971-1.026-1.906-1.76-3.812-.733-1.906-1.172-3.813-.44-2.052-.734-4.398-.146-2.346-.146-5.279V-356h14.076v70.674q0 7.039 3.812 11.29 3.813 4.253 9.971 4.253 5.719 0 9.384-4.252 3.813-4.252 3.813-11.29V-356h14.076zM529.777-257.76v-55.131l-18.182 55.131-18.328-55.131v55.131h-14.076V-356h14.076l18.328 55.132L529.777-356H544v98.24z" style="font-style:normal;font-variant:normal;font-weight:400;font-stretch:normal;font-family:&quot;Roadgeek 2005 Series C&quot;;-inkscape-font-specification:&quot;Roadgeek 2005 Series C&quot;;fill:#000;fill-opacity:1;stroke:none;stroke-width:39.61479187"/>
      </g>
    </g>
  </g>
</svg>
