<svg xmlns="http://www.w3.org/2000/svg" viewBox="0 0 900 1200" role="img" aria-labelledby="title">
  <title id="title">Verkehrszeichen Rb-two-mode-overhead - Two-mode reserved lane (overhead)</title>
  <path d="M32683.328-2839.286c21.047 0 38.112-17.059 38.112-38.105v-1123.79c0-21.046-17.065-38.105-38.112-38.105h-823.785c-21.046 0-38.103 17.059-38.103 38.104v1123.79c0 21.047 17.057 38.106 38.103 38.106z" style="fill:#fff;fill-opacity:1;fill-rule:evenodd;stroke:#000;stroke-width:1;stroke-miterlimit:4;stroke-dasharray:none" transform="translate(-31821.44 4039.286)"/>
  <path d="M32686.493-2877.347a3.133 3.133 0 0 1-3.123 3.12h-824.143a3.134 3.134 0 0 1-3.123-3.124v-661.464l365.335-.083v-465.733h461.898a3.133 3.133 0 0 1 3.123 3.12zm-2.957-1146.734h-823.784c-12.71 0-23.104 10.398-23.104 23.103v1123.796c0 12.704 10.394 23.1 23.104 23.1h823.784c12.71 0 23.104-10.398 23.104-23.103V-4000.98c0-12.704-10.402-23.103-23.104-23.103" style="fill:#000;fill-opacity:1;fill-rule:evenodd;stroke:none;stroke-width:2.93816495" transform="translate(-31821.44 4039.286)"/>
  <path d="M32031.946-3906.07c20.947 40.768 58.409 113.667 64.963 126.418-6.554 12.755-44.016 85.666-64.963 126.439a1844806 1844806 0 0 0-64.78-126.439c6.521-12.728 43.884-85.633 64.78-126.418m-17.64-52.373-91.615 178.791 109.205 213.15 109.513-213.15-109.513-213.112z" style="fill:#fff;fill-opacity:1;fill-rule:evenodd;stroke:none;stroke-width:2.93816495" transform="translate(-31821.44 4039.286)"/>
  <path d="M32534.995-3854.81h-162.708c-4.131 0-7.012-3.337-6.413-7.415l7.071-47.78c.583-4.084 4.473-7.426 8.595-7.426h144.194c4.123 0 7.995 3.342 8.595 7.425l7.071 47.781c.583 4.078-2.282 7.416-6.405 7.416m-8.495 35.887a8.1 8.1 0 0 1-8.104-8.107 8.103 8.103 0 0 1 8.104-8.106c4.481 0 8.112 3.631 8.112 8.106a8.11 8.11 0 0 1-8.112 8.106m-145.959 0a8.1 8.1 0 0 1-8.104-8.106 8.103 8.103 0 1 1 16.208 0 8.107 8.107 0 0 1-8.104 8.106m9.819-125.99c0-1.373 1.125-2.501 2.499-2.501h121.556a2.51 2.51 0 0 1 2.507 2.5v2.497c0 1.375-1.124 2.5-2.507 2.5h-121.556a2.51 2.51 0 0 1-2.499-2.502zm184.071 86.851-15.724-95.802c-.891-5.427-6.122-9.866-11.619-9.866h-187.127c-5.505 0-10.736 4.44-11.627 9.866l-15.724 95.802c-.892 5.427.166 13.983 2.415 19.017l16.632 37.702c2.216 5.036 7.604 10.742 11.968 12.681l7.938 3.526h.333v11.908h22.928v-10.145h117.393v10.145h22.937v-11.908h.333l7.937-3.526c4.372-1.939 9.753-7.648 11.976-12.681l16.624-37.702c2.216-5.034 3.307-13.59 2.416-19.017M32395.757-3591.449v11.468h-26.46v-14.553h-13.667l-3.09-16.756 11.91-8.82-5.73-31.31 26.01-58.652h52.037l-6.171-12.787 22.929-13.227 22.928 13.227-6.171 12.787h52.037l26.01 58.653-5.73 31.309 11.91 8.82-3.09 16.756h-13.667v14.553h-26.46v-11.468z" style="fill:#000;fill-opacity:1;fill-rule:evenodd;stroke:none;stroke-width:2.93816495" transform="translate(-31821.44 4039.286)"/>
  <path d="m32463.261-3623.422 12.043-28.196-11.327-27.075h8.329l7.162 17.019 7.213-16.966h8.637l-11.735 27.022 11.985 28.195h-8.429l-7.671-18.287-7.77 18.287zM32396.357-3623.352v-48.207h-9.961v-7.011h27.584v7.011h-9.852v48.207zM32508.427-3678.604h7.921v55.27h-7.921zM32432.753-3646.717l3.556-14.882v.2l3.607 14.682zm7.363-32.005h-7.721l-13.301 55.27h7.971l3.806-15.493h11.027l3.856 15.493h8.029z" style="fill:#fff;fill-opacity:1;fill-rule:evenodd;stroke:none;stroke-width:2.93816495" transform="translate(-31821.44 4039.286)"/>
  <path d="M32240.154-3115.236v82.204l-110.247-36.871c-4.83.083-7.379 1.989-9.319 4.725-1.841 2.467-1.683 7.577.416 10.124l150.498 145.728 150.499-145.748c2.099-2.55 2.249-7.663.416-10.131-1.932-2.733-4.481-4.65-9.32-4.727l-110.246 36.87v-82.227h-62.681zM32108.661-3162.387v-50.655l-21.138 50.655-21.13-50.655v50.655h-14.175v-88.563h14.175l21.13 50.66 21.138-50.66h14.167v88.563zM32182.344-3230.637c-1.89-3.778-6.496-6.848-11.81-6.848-5.197 0-9.919 3.07-11.693 6.848-3.065 6.258-5.197 16.648-5.197 24.205 0 7.56 2.016 18.895 4.847 24.207 2.124 3.9 6.263 6.849 12.043 6.849 5.905 0 10.036-2.95 12.16-6.849 2.84-5.312 4.848-16.647 4.848-24.207 0-7.557-2.133-17.947-5.198-24.205m14.167 54.315c-3.423 7.084-12.276 15.117-25.977 15.117-13.692 0-22.437-8.033-25.86-15.117-4.489-8.972-5.788-20.546-5.788-30.11 0-10.862 2.132-25.386 8.978-34.48 4.606-6.258 12.993-11.218 22.67-11.218 9.803 0 18.19 4.96 22.788 11.218 6.854 9.094 8.978 23.618 8.978 34.48 0 9.564-1.299 21.138-5.789 30.11M32266.897-3162.387l-32.357-55.97v55.97h-14.167v-88.563h13.109l32.465 56.68v-56.68h14.167v88.563zM32299.129-3206.075h29.525v11.808h-29.525zM32361.826-3236.777v21.017h26.336v14.171h-26.336v39.2h-14.167v-88.558h55.144v14.17zM32449.802-3236.777h-19.839v21.846h19.131c4.839 0 10.86-4.016 10.86-11.574 0-4.721-4.131-10.272-10.152-10.272m11.218 74.389-14.883-38.02h-16.174v38.02h-14.167v-88.56h34.714c13.809 0 24.444 11.454 24.444 24.443 0 16.413-14.059 22.792-14.059 22.792l16.3 41.325zM32494.91-3250.947h14.167v88.562h-14.167zM32252.297-3444.44h29.525v10.63h-29.525zM32371.679-3469.355c-1.774-4.608-4.247-8.148-9.444-8.148s-7.563 3.54-9.337 8.148c-1.649 4.252-3.423 15.822-3.423 24.325 0 8.62 1.541 21.963 3.906 26.332 2.116 4.134 3.298 6.14 8.854 6.14 5.546 0 6.729-2.01 8.969-6.14 2.366-4.369 3.898-17.711 3.898-26.332 0-8.503-1.89-20.073-3.423-24.325m11.219 57.15c-2.599 4.843-8.387 12.638-20.663 12.638-12.285 0-17.949-7.795-20.672-12.637-2.59-4.84-5.305-15.705-5.305-32.826 0-17.003 3.423-30.818 6.962-35.66 4.015-5.316 9.087-9.802 19.015-9.802 9.911 0 14.991 4.486 19.005 9.802 3.657 4.842 6.972 18.657 6.972 35.66 0 17.12-2.724 27.986-5.314 32.826M32429.072-3477.147c-8.262 0-12.043 6.73-12.043 14.996 0 7.792 3.423 14.285 12.043 14.285 3.656 0 10.977-1.768 10.977-14.285 0-12.752-8.145-14.996-10.977-14.996m-6.38 77.579-8.737-10.39c10.036-7.915 16.291-16.887 19.956-25.27-7.321 1.771-30.108.466-30.108-27.278 0-20.312 14.641-27.986 25.152-27.986 11.81 0 24.436 9.328 24.436 27.986 0 22.553-10.152 46.643-30.699 62.938M32481.501-3407.715c0 3.897-3.074 6.967-6.847 6.967-3.897 0-6.971-3.07-6.971-6.85 0-3.898 3.074-6.968 6.855-6.968 3.889 0 6.963 3.07 6.963 6.969zm-6.847-38.022c-3.897 0-6.971-3.191-6.971-6.967 0-3.778 3.074-6.969 6.855-6.969 3.889 0 6.963 3.19 6.963 6.97 0 3.777-3.074 6.966-6.847 6.966M32533.688-3469.355c-1.774-4.608-4.248-8.148-9.445-8.148s-7.562 3.54-9.336 8.148c-1.649 4.252-3.423 15.822-3.423 24.325 0 8.62 1.54 21.963 3.906 26.332 2.124 4.134 3.298 6.14 8.853 6.14 5.547 0 6.73-2.01 8.97-6.14 2.365-4.369 3.898-17.711 3.898-26.332 0-8.503-1.891-20.073-3.423-24.325m11.218 57.15c-2.598 4.843-8.387 12.638-20.663 12.638-12.285 0-17.948-7.795-20.663-12.637-2.599-4.84-5.314-15.705-5.314-32.826 0-17.003 3.423-30.818 6.963-35.66 4.014-5.316 9.086-9.802 19.014-9.802 9.919 0 14.992 4.486 19.006 9.802 3.665 4.842 6.971 18.657 6.971 35.66 0 17.12-2.715 27.986-5.314 32.826M32604.656-3469.355c-1.766-4.608-4.248-8.148-9.445-8.148s-7.554 3.54-9.328 8.148c-1.657 4.252-3.423 15.822-3.423 24.325 0 8.62 1.533 21.963 3.898 26.332 2.124 4.134 3.306 6.14 8.853 6.14 5.555 0 6.73-2.01 8.979-6.14 2.357-4.369 3.889-17.711 3.889-26.332 0-8.503-1.882-20.073-3.423-24.325m11.219 57.15c-2.599 4.843-8.379 12.638-20.664 12.638-12.276 0-17.948-7.795-20.663-12.637-2.599-4.84-5.314-15.705-5.314-32.826 0-17.003 3.423-30.818 6.963-35.66 4.023-5.316 9.095-9.802 19.014-9.802 9.92 0 15 4.486 19.015 9.802 3.656 4.842 6.962 18.657 6.962 35.66 0 17.12-2.715 27.986-5.313 32.826M32252.297-3324.496h29.525v10.627h-29.525zM32358.453-3280.804v-72.857h-5.43v-10.272c2.715 0 7.554-2.01 9.678-5.433h8.737v88.562zM32419.027-3357.085c-6.846 0-9.802 5.785-9.802 9.916 0 4.137 1.657 11.694 9.802 11.694 8.262 0 9.803-7.557 9.803-11.694 0-4.131-2.84-9.916-9.803-9.916m0 34.361c-7.912 0-11.568 8.028-11.568 15.708 0 6.37 2.948 14.52 11.568 14.52 8.737 0 11.694-8.15 11.694-14.52 0-7.677-3.665-15.708-11.694-15.708m0 43.104c-13.817 0-24.677-11.341-24.677-26.926 0-14.996 7.67-23.379 7.67-23.379s-6.729-6.14-6.729-17.123c0-8.383 6.38-23.5 23.736-23.5 17.474 0 23.854 15.117 23.854 23.5 0 10.983-6.73 17.123-6.73 17.123s7.671 8.383 7.671 23.379c0 15.587-10.977 26.926-24.795 26.926M32471.931-3287.77c0 3.895-3.073 6.965-6.846 6.965-3.898 0-6.971-3.07-6.971-6.848 0-3.896 3.073-6.966 6.854-6.966 3.89 0 6.963 3.07 6.963 6.966zm-6.846-38.024c-3.898 0-6.971-3.188-6.971-6.97 0-3.778 3.073-6.965 6.854-6.965 3.89 0 6.963 3.187 6.963 6.966 0 3.781-3.073 6.97-6.846 6.97M32524.126-3349.41c-1.774-4.605-4.247-8.148-9.453-8.148-5.188 0-7.554 3.543-9.328 8.148-1.649 4.251-3.423 15.822-3.423 24.324 0 8.621 1.541 21.964 3.906 26.332 2.116 4.135 3.299 6.144 8.845 6.144 5.556 0 6.738-2.01 8.979-6.144 2.365-4.368 3.898-17.71 3.898-26.332 0-8.502-1.891-20.073-3.424-24.324m11.219 57.153c-2.598 4.84-8.387 12.634-20.672 12.634-12.276 0-17.939-7.795-20.663-12.634-2.59-4.842-5.305-15.707-5.305-32.829 0-17.003 3.423-30.818 6.963-35.66 4.014-5.315 9.094-9.802 19.005-9.802 9.92 0 15 4.487 19.015 9.802 3.664 4.842 6.971 18.657 6.971 35.66 0 17.122-2.715 27.987-5.314 32.829M32595.086-3349.41c-1.774-4.605-4.247-8.148-9.444-8.148s-7.563 3.543-9.337 8.148c-1.649 4.251-3.423 15.822-3.423 24.324 0 8.621 1.541 21.964 3.906 26.332 2.124 4.135 3.299 6.144 8.854 6.144 5.547 0 6.729-2.01 8.97-6.144 2.365-4.368 3.897-17.71 3.897-26.332 0-8.502-1.89-20.073-3.423-24.324m11.219 57.153c-2.599 4.84-8.387 12.634-20.663 12.634-12.285 0-17.948-7.795-20.672-12.634-2.59-4.842-5.305-15.707-5.305-32.829 0-17.003 3.423-30.818 6.962-35.66 4.015-5.315 9.095-9.802 19.015-9.802 9.911 0 14.991 4.487 19.006 9.802 3.664 4.842 6.971 18.657 6.971 35.66 0 17.122-2.715 27.987-5.314 32.829M31958.471-3469.355c-1.774-4.608-4.248-8.148-9.445-8.148s-7.562 3.54-9.328 8.148c-1.657 4.252-3.431 15.822-3.431 24.325 0 8.62 1.541 21.963 3.906 26.332 2.124 4.134 3.298 6.14 8.853 6.14 5.547 0 6.73-2.01 8.97-6.14 2.366-4.369 3.898-17.711 3.898-26.332 0-8.503-1.891-20.073-3.423-24.325m11.219 57.15c-2.599 4.843-8.387 12.638-20.664 12.638-12.284 0-17.948-7.795-20.671-12.637-2.591-4.84-5.306-15.705-5.306-32.826 0-17.003 3.423-30.818 6.963-35.66 4.014-5.316 9.095-9.802 19.014-9.802 9.911 0 14.992 4.486 19.006 9.802 3.665 4.842 6.971 18.657 6.971 35.66 0 17.12-2.715 27.986-5.313 32.826M32010.658-3400.748h-13.459c0-42.395 23.145-75.573 23.145-75.573h-33.064v-12.99h49.588v13.578s-26.21 32.12-26.21 74.985M32054.475-3407.715c0 3.897-3.073 6.967-6.854 6.967-3.89 0-6.963-3.07-6.963-6.85 0-3.898 3.073-6.968 6.854-6.968 3.89 0 6.963 3.07 6.963 6.969zm-6.846-38.022c-3.898 0-6.971-3.191-6.971-6.967 0-3.778 3.073-6.969 6.854-6.969 3.89 0 6.963 3.19 6.963 6.97 0 3.777-3.073 6.966-6.846 6.966M32106.662-3469.355c-1.774-4.608-4.247-8.148-9.444-8.148s-7.563 3.54-9.328 8.148c-1.658 4.252-3.424 15.822-3.424 24.325 0 8.62 1.533 21.963 3.898 26.332 2.124 4.134 3.298 6.14 8.854 6.14 5.546 0 6.729-2.01 8.97-6.14 2.365-4.369 3.897-17.711 3.897-26.332 0-8.503-1.89-20.073-3.423-24.325m11.219 57.15c-2.599 4.843-8.387 12.638-20.663 12.638-12.285 0-17.949-7.795-20.664-12.637-2.598-4.84-5.313-15.705-5.313-32.826 0-17.003 3.423-30.818 6.962-35.66 4.015-5.316 9.095-9.802 19.015-9.802s14.991 4.486 19.006 9.802c3.664 4.842 6.971 18.657 6.971 35.66 0 17.12-2.716 27.986-5.314 32.826M32177.63-3469.355c-1.774-4.608-4.247-8.148-9.444-8.148s-7.563 3.54-9.328 8.148c-1.658 4.252-3.432 15.822-3.432 24.325 0 8.62 1.541 21.963 3.906 26.332 2.124 4.134 3.299 6.14 8.854 6.14 5.547 0 6.729-2.01 8.978-6.14 2.357-4.369 3.89-17.711 3.89-26.332 0-8.503-1.891-20.073-3.424-24.325m11.219 57.15c-2.598 4.843-8.387 12.638-20.663 12.638s-17.948-7.795-20.664-12.637c-2.598-4.84-5.313-15.705-5.313-32.826 0-17.003 3.423-30.818 6.963-35.66 4.014-5.316 9.094-9.802 19.014-9.802s14.991 4.486 19.014 9.802c3.656 4.842 6.963 18.657 6.963 35.66 0 17.12-2.715 27.986-5.314 32.826M31943.354-3280.804v-72.857h-5.43v-10.272c2.715 0 7.554-2.01 9.678-5.433h8.745v88.562zM32001.572-3322.133c-8.262 0-12.285 5.67-12.285 14.758 0 8.859 4.023 14.644 12.285 14.644 5.313 0 11.81-3.07 11.81-14.644 0-11.687-6.497-14.758-11.81-14.758m-.334 42.512c-10.385 0-24.91-8.033-24.91-27.28 0-17.83 6.138-43.809 31.648-63.648l8.029 9.802c-6.854 6.141-14.167 12.634-20.547 25.862 0 0 .833-.591 5.431-.591 11.926 0 25.977 7.319 25.977 28.573 0 18.54-14.292 27.281-25.628 27.281M32054.475-3287.77c0 3.895-3.073 6.965-6.854 6.965-3.89 0-6.963-3.07-6.963-6.848 0-3.896 3.073-6.966 6.854-6.966 3.89 0 6.963 3.07 6.963 6.966zm-6.846-38.024c-3.898 0-6.971-3.188-6.971-6.97 0-3.778 3.073-6.965 6.854-6.965 3.89 0 6.963 3.187 6.963 6.966 0 3.781-3.073 6.97-6.846 6.97M32106.662-3349.41c-1.774-4.605-4.247-8.148-9.444-8.148s-7.563 3.543-9.328 8.148c-1.658 4.251-3.424 15.822-3.424 24.324 0 8.621 1.533 21.964 3.898 26.332 2.124 4.135 3.298 6.144 8.854 6.144 5.546 0 6.729-2.01 8.97-6.144 2.365-4.368 3.897-17.71 3.897-26.332 0-8.502-1.89-20.073-3.423-24.324m11.219 57.153c-2.599 4.84-8.387 12.634-20.663 12.634-12.285 0-17.949-7.795-20.664-12.634-2.598-4.842-5.313-15.707-5.313-32.829 0-17.003 3.423-30.818 6.962-35.66 4.015-5.315 9.095-9.802 19.015-9.802s14.991 4.487 19.006 9.802c3.664 4.842 6.971 18.657 6.971 35.66 0 17.122-2.716 27.987-5.314 32.829M32177.63-3349.41c-1.774-4.605-4.247-8.148-9.444-8.148s-7.563 3.543-9.328 8.148c-1.658 4.251-3.432 15.822-3.432 24.324 0 8.621 1.541 21.964 3.906 26.332 2.124 4.135 3.299 6.144 8.854 6.144 5.547 0 6.729-2.01 8.978-6.144 2.357-4.368 3.89-17.71 3.89-26.332 0-8.502-1.891-20.073-3.424-24.324m11.219 57.153c-2.598 4.84-8.387 12.634-20.663 12.634s-17.948-7.795-20.664-12.634c-2.598-4.842-5.313-15.707-5.313-32.829 0-17.003 3.423-30.818 6.963-35.66 4.014-5.315 9.094-9.802 19.014-9.802s14.991 4.487 19.014 9.802c3.656 4.842 6.963 18.657 6.963 35.66 0 17.122-2.715 27.987-5.314 32.829" style="fill:#000;fill-opacity:1;fill-rule:evenodd;stroke:none;stroke-width:2.93816495" transform="translate(-31821.44 4039.286)"/>
</svg>
