<svg xmlns="http://www.w3.org/2000/svg" viewBox="0 0 304 454" role="img" aria-labelledby="title">
  <title id="title">Verkehrszeichen Rb-53 - Parking permitted (specific times)</title>
  <g transform="translate(0 157)">
    <rect width="302" height="452" x="1" y="-156" rx="31" ry="31" style="fill:#000;fill-opacity:1;stroke:none;stroke-width:148.29014587;stroke-linecap:round;stroke-linejoin:round;stroke-miterlimit:1.41400003;stroke-dasharray:none;stroke-opacity:1"/>
    <rect width="300" height="450" x="2" y="-155" rx="30" ry="30" style="fill:#fff;fill-opacity:1;stroke:none;stroke-width:147.47096252;stroke-linecap:round;stroke-linejoin:round;stroke-miterlimit:1.41400003;stroke-dasharray:none;stroke-opacity:1"/>
    <rect width="280" height="430" x="12" y="-145" rx="20" ry="20" style="fill:#000;fill-opacity:1;stroke:none;stroke-width:139.26849365;stroke-linecap:round;stroke-linejoin:round;stroke-miterlimit:1.41400003;stroke-dasharray:none;stroke-opacity:1"/>
    <rect width="260" height="410" x="22" y="-135" rx="10" ry="10" style="fill:#fff;fill-opacity:1;stroke:none;stroke-width:131.04432678;stroke-linecap:round;stroke-linejoin:round;stroke-miterlimit:1.41400003;stroke-dasharray:none;stroke-opacity:1"/>
    <g aria-label="50" style="font-style:normal;font-variant:normal;font-weight:400;font-stretch:normal;font-size:432.27664185px;line-height:1.25;font-family:&quot;Roadgeek 2005 Series D&quot;;-inkscape-font-specification:&quot;Roadgeek 2005 Series D&quot;;letter-spacing:0;word-spacing:0;fill:#000;fill-opacity:1;stroke:none;stroke-width:10.80691528">
      <g aria-label="MAXIMUM" style="font-style:normal;font-variant:normal;font-weight:400;font-stretch:normal;font-size:146.62756348px;line-height:1.25;font-family:&quot;Roadgeek 2005 Series C&quot;;-inkscape-font-specification:&quot;Roadgeek 2005 Series C&quot;;letter-spacing:0;word-spacing:0;fill:#000;fill-opacity:1;stroke:none;stroke-width:39.61479187">
        <path d="M40.24 154.541c0 3.148 2.28 4.186 2.28 4.186l35.14 27.838c3.166 1.818 5.278-2.039 4.56-3.679l-4.78-22.845 11.4 2.6v-16.2l-11.4 2.6 4.78-22.844c.718-1.64-1.394-5.497-4.56-3.68l-35.14 27.84s-2.28 1.037-2.28 4.184M287.04 154.541c0 3.148-2.28 4.186-2.28 4.186l-35.14 27.838c-3.167 1.818-5.279-2.039-4.56-3.679l4.78-22.845-11.4 2.6v-16.2l11.4 2.6-4.78-22.844c-.719-1.64 1.393-5.497 4.56-3.68l35.14 27.84s2.28 1.037 2.28 4.184" style="fill:#000;fill-opacity:1;fill-rule:nonzero;stroke:none;stroke-width:.72105825" transform="translate(-11.64 82.959)"/>
        <path d="M113.14 166.488v-23.88h3.315l4.451 13.163 4.539-13.163h3.288v23.88h-3.352v-13.003l-4.439 13.042-4.503-13.175v13.136zM139.806 167.041c6.88 0 6.952-8.426 6.952-12.503 0-4.071-.17-12.497-6.952-12.497-6.79 0-6.957 8.426-6.957 12.497 0 4.077.073 12.503 6.957 12.503" style="font-style:normal;font-variant:normal;font-weight:400;font-stretch:normal;font-size:146.62756348px;line-height:1.25;font-family:&quot;Roadgeek 2005 Series C&quot;;-inkscape-font-specification:&quot;Roadgeek 2005 Series C&quot;;letter-spacing:0;word-spacing:0;fill:#000;fill-opacity:1;fill-rule:nonzero;stroke:none;stroke-width:1.17049968" transform="translate(-11.64 82.959)"/>
        <path d="M139.806 163.694c2.899 0 3.605-4.096 3.605-9.156 0-5.052-.72-9.15-3.605-9.15-2.889 0-3.612 4.098-3.612 9.15 0 5.06.709 9.156 3.612 9.156" style="font-style:normal;font-variant:normal;font-weight:400;font-stretch:normal;font-size:146.62756348px;line-height:1.25;font-family:&quot;Roadgeek 2005 Series C&quot;;-inkscape-font-specification:&quot;Roadgeek 2005 Series C&quot;;letter-spacing:0;word-spacing:0;fill:#fff;fill-opacity:1;fill-rule:nonzero;stroke:none;stroke-width:1.17049968" transform="translate(-11.64 82.959)"/>
        <path d="M150.876 142.62h2.615l7.167 15.43v-15.43h3.383v23.868h-3.347l-6.426-14.05.002 14.05h-3.395zM175.098 152.588h-7.44v3.47h7.44zM178.923 142.62h12.028v3.334h-8.63l.002 6.008h4.906v3.32l-4.906-.007v11.212h-3.4zM205.927 151.665c-.48 1.278-1.66 2.45-2.823 3.045l3.446 11.778h-3.512l-3.262-11.094h-3.097v11.094h-3.377v-23.86h8.16c2.848 0 4.61 2.918 4.805 4.96.097 1.345.135 2.84-.34 4.077" style="font-style:normal;font-variant:normal;font-weight:400;font-stretch:normal;font-size:146.62756348px;line-height:1.25;font-family:&quot;Roadgeek 2005 Series C&quot;;-inkscape-font-specification:&quot;Roadgeek 2005 Series C&quot;;letter-spacing:0;word-spacing:0;fill:#000;fill-opacity:1;fill-rule:nonzero;stroke:none;stroke-width:1.17049968" transform="translate(-11.64 82.959)"/>
        <path d="M200.957 145.968c.666.026 1.291.354 1.634.962.563.928.54 2.259.293 3.327-.158.717-.783 1.408-1.502 1.593l-.405.098h-4.298l.007-5.973 4.273-.007z" style="font-style:normal;font-variant:normal;font-weight:400;font-stretch:normal;font-size:146.62756348px;line-height:1.25;font-family:&quot;Roadgeek 2005 Series C&quot;;-inkscape-font-specification:&quot;Roadgeek 2005 Series C&quot;;letter-spacing:0;word-spacing:0;fill:#fff;fill-opacity:1;fill-rule:nonzero;stroke:none;stroke-width:1.17049968" transform="translate(-11.64 82.959)"/>
        <path d="M214.14 166.488v-23.965h-3.469v23.965z" style="font-style:normal;font-variant:normal;font-weight:400;font-stretch:normal;font-size:146.62756348px;line-height:1.25;font-family:&quot;Roadgeek 2005 Series C&quot;;-inkscape-font-specification:&quot;Roadgeek 2005 Series C&quot;;letter-spacing:0;word-spacing:0;fill:#000;fill-opacity:1;fill-rule:nonzero;stroke:none;stroke-width:1.17049968" transform="translate(-11.64 82.959)"/>
        <path d="M119.682 47.041c-.023-2.681.015-5.389.669-7.807 1.928-6.99 6.753-13.855 13.339-17.827 2.286-1.454 4.804-2.339 7.275-3.319 1.543-.605 3.355-1.87 3.745-3.619.727-2.38.174-5.057-1.49-6.859-2.029-2.244-4.716-2.992-7.66-3.06-3.087.157-6.111 1.68-7.55 4.625a8.3 8.3 0 0 0-.816 2.323l-7.554-1.343c.632-3.166 2.149-5.964 4.651-8.33 2.966-3.018 6.585-4.461 10.673-4.777 3.483-.095 6.538.864 9.435 2.197 3.772 1.696 7.023 5.657 7.876 9.582.564 2.05.359 4.6-.038 6.664-.296 1.644-.922 3.156-1.707 4.594-.859 1.549-2.413 3.034-3.993 3.772l-1.812.843-3.54 1.3c-2.376.896-4.536 2.287-6.586 3.978-2.734 2.503-4.678 5.4-5.826 8.582-.073.311-.148.622-.216.932l24.238-.019v7.565H119.68M189.737 11.877c2.291-1.754 4.899-2.581 7.944-2.344 4.436.385 7.696 4.82 8.934 8.698.896 2.776 1.112 5.505.996 8.723v20.087h-8.603V22.487c-.137-1.907-1.296-3.84-3.155-4.457-1.628-.405-3.272.116-4.483 1.18-.943.843-1.517 1.97-1.633 3.12V47.04h-8.46V1.257l8.46-3.224z" style="fill:#000;fill-opacity:1;fill-rule:nonzero;stroke:none;stroke-width:40.09393692" transform="translate(-11.64 82.959)"/>
        <path d="M59.517 101.484c2.523-2.142 5.015-4.421 6.886-7.173 1.51-2.233 2.887-4.52 3.886-6.963.06-.276.176-.52.236-.796-.443.045-.873.237-1.316.336-5.498.835-10.765-1.113-13.777-5.803-2.116-3.412-2.523-7.706-2.188-11.882.354-3.181 1.671-5.974 3.941-8.365 1.902-1.89 4.114-3.115 6.623-3.563 2.322-.375 5.01-.342 7.138.422 1.701.606 3.27 1.6 4.691 2.805 1.887 1.864 3.203 4.024 3.817 6.449a29.6 29.6 0 0 1 .622 6.368h-.023c-.06 7.983-2.368 15.248-6.125 21.8-1.205 1.919-2.52 3.815-4.044 5.6-1.825 2.134-4.005 4.11-6.129 5.802z" style="fill:#000;fill-opacity:1;fill-rule:nonzero;stroke:none;stroke-width:1.17031944" transform="translate(-11.64 82.959)"/>
        <path d="M66.598 80.485c4.685 0 6.8-3.747 6.8-8.37 0-4.624-2.244-8.372-6.8-8.372-4.558 0-6.803 3.748-6.803 8.371s2.548 8.371 6.803 8.371" style="fill:#fff;fill-opacity:1;fill-rule:nonzero;stroke:none;stroke-width:1.17031944" transform="translate(-11.64 82.959)"/>
        <path d="M167.4 84.918h-14.885v6.942H167.4zM202.29 62.676c.03.013.03.059 0 .066-2.25 1.62-4.425 3.741-6.162 5.934-2.103 2.76-3.785 5.698-4.917 8.859 3.447-.929 7.518-.488 10.508 1.225 2.894 1.541 5.134 4.525 6.023 7.508.592 1.819.754 3.807.814 5.842.023 2.457-.172 4.828-1.155 6.876-1.043 2.675-3.387 5.138-5.948 6.58-2.715 1.575-6.376 1.771-9.567 1.14-3.18-.81-6.286-2.931-8.099-5.934-1.909-3.162-2.146-6.969-2.057-10.895-.023-1.857.355-3.57.496-5.328.843-5.091 2.537-9.833 4.919-14.279 2.65-4.702 6.384-9.181 10.905-12.66z" style="fill:#000;fill-opacity:1;fill-rule:nonzero;stroke:none;stroke-width:1.17031944" transform="translate(-11.64 82.959)"/>
        <path d="M200.919 87.355c1.4 2.911 1.406 7.16-.206 9.978-1.433 2.253-3.943 3.367-6.48 2.957-2.242-.217-4.467-2.093-5.173-4.235-.784-2.252-.754-4.583-.443-7.014.304-2.108 1.998-4.228 4.033-4.973 1.02-.395 2.262-.52 3.389-.375 2.018.277 4.09 1.706 4.88 3.662" style="fill:#fff;fill-opacity:1;fill-rule:nonzero;stroke:none;stroke-width:1.17031944" transform="translate(-11.64 82.959)"/>
        <path d="M99.696 67.793h5.31l9.54 38.162h-5.467l-2.756-10.723h-7.69l-2.659 10.723h-5.498z" style="fill:#000;fill-opacity:1;fill-rule:nonzero;stroke:none;stroke-width:1.17031944" transform="translate(-11.64 82.959)"/>
        <path d="M104.915 89.806H99.92l2.455-10.144Z" style="fill:#fff;fill-opacity:1;fill-rule:nonzero;stroke:none;stroke-width:1.17031944" transform="translate(-11.64 82.959)"/>
        <path d="M119.204 105.955V67.84h5.294l7.1 21.003 7.245-21.003h5.248v38.115h-5.351V85.188l-7.083 20.826-7.189-21.023v20.964zM244.6 81.777c-.48 2.673-2.318 5.308-4.838 6.599-1.032.52-2.184.771-3.397.849l-6.901.013v16.704h-5.37V67.7h10.616c1.904.053 3.874.086 5.378 1.113 2.223 1.337 3.817 3.675 4.45 6.046.5 1.864.535 3.853.294 5.836z" style="fill:#000;fill-opacity:1;fill-rule:nonzero;stroke:none;stroke-width:1.17031944" transform="translate(-11.64 82.959)"/>
        <path d="M236.033 73.201a3.38 3.38 0 0 1 2.693 1.713c.523.948.753 2.015.825 3.148.017 1.356-.195 2.62-.638 3.78-.608 1.324-1.963 2.062-3.374 2.068h-6.075V73.201Z" style="fill:#fff;fill-opacity:1;fill-rule:nonzero;stroke:none;stroke-width:1.17031944" transform="translate(-11.64 82.959)"/>
        <path d="M249.252 105.942V67.827h5.294l7.1 21.004 7.245-21.004h5.248v38.115h-5.353V85.175L261.705 106l-7.189-21.023v20.965z" style="fill:#000;fill-opacity:1;fill-rule:nonzero;stroke:none;stroke-width:1.17031944" transform="translate(-11.64 82.959)"/>
      </g>
    </g>
    <circle cx="152" cy="-30" r="100" style="font-style:normal;font-variant:normal;font-weight:400;font-stretch:normal;font-size:146.62756348px;line-height:1.25;font-family:&quot;Roadgeek 2005 Series C&quot;;-inkscape-font-specification:&quot;Roadgeek 2005 Series C&quot;;letter-spacing:0;word-spacing:0;fill:#006450;fill-opacity:1;fill-rule:nonzero;stroke:none;stroke-width:7.9137435;stroke-linecap:round;stroke-linejoin:round;stroke-miterlimit:4;stroke-dasharray:none;stroke-opacity:1"/>
    <circle cx="152" cy="-30" r="79" style="font-style:normal;font-variant:normal;font-weight:400;font-stretch:normal;font-size:146.62756348px;line-height:1.25;font-family:&quot;Roadgeek 2005 Series C&quot;;-inkscape-font-specification:&quot;Roadgeek 2005 Series C&quot;;letter-spacing:0;word-spacing:0;fill:#fff;fill-opacity:1;fill-rule:nonzero;stroke:none;stroke-width:6.25185728;stroke-linecap:round;stroke-linejoin:round;stroke-miterlimit:4;stroke-dasharray:none;stroke-opacity:1"/>
    <path d="M119.4 23V-77h54.7c17.895 0 32.3 14.406 32.3 32.3s-14.405 32.3-32.3 32.3h-33.7V23zm21-55.4h33.7c6.815 0 12.3-5.486 12.3-12.3S180.916-57 174.1-57h-33.7z" style="font-style:normal;font-variant:normal;font-weight:400;font-stretch:normal;font-size:146.62756348px;line-height:1.25;font-family:&quot;Roadgeek 2005 Series C&quot;;-inkscape-font-specification:&quot;Roadgeek 2005 Series C&quot;;letter-spacing:0;word-spacing:0;fill:#000;fill-opacity:1;fill-rule:nonzero;stroke:none;stroke-width:35.64687347;stroke-linecap:round;stroke-linejoin:round;stroke-miterlimit:4;stroke-dasharray:none;stroke-opacity:1"/>
  </g>
</svg>
