<svg xmlns="http://www.w3.org/2000/svg" viewBox="0 0 600 750" role="img" aria-labelledby="title">
  <title id="title">Verkehrszeichen Rb-4 - Minimum speed</title>
  <path d="M2999.433-2145.47c21.043 0 38.1-17.058 38.1-38.097v-673.807c0-21.04-17.057-38.097-38.1-38.097h-523.8c-21.043 0-38.1 17.057-38.1 38.097v673.807c0 21.04 17.057 38.096 38.1 38.096z" style="fill:#fff;fill-opacity:1;fill-rule:nonzero;stroke:#000;stroke-width:1;stroke-miterlimit:4;stroke-dasharray:none" transform="translate(-2437.533 2895.47)"/>
  <path d="M3012.447-2183.582c0 7.237-5.865 13.1-13.1 13.1H2475.55c-7.234 0-13.102-5.863-13.102-13.1v-673.8c0-7.237 5.868-13.1 13.102-13.1h523.796c7.236 0 13.1 5.863 13.1 13.1zm-13.092-701.894h-523.8c-15.518 0-28.1 12.58-28.1 28.097v673.807c0 15.515 12.582 28.1 28.1 28.1h523.8c15.519 0 28.099-12.585 28.099-28.1v-673.807c0-15.517-12.58-28.097-28.099-28.097" style="fill:#231f20;fill-opacity:1;fill-rule:nonzero;stroke:none;stroke-width:1.76388919" transform="translate(-2437.533 2895.47)"/>
  <path d="M2554.668-2211.877v-57.854l-20.395 57.71-20.102-57.71v57.854h-15.91v-108.478h15.91l20.249 58 20.248-58h15.91v108.478zM2588.368-2320.354h15.91v108.477h-15.91zM2670.666-2211.877l-32.688-69.859v69.86h-15.91v-108.478h15.91l29.506 62.771v-62.771h15.91v108.477zM2701.185-2320.354h15.91v108.477h-15.91zM2791.291-2211.877v-57.854l-20.394 57.71-20.103-57.71v57.854h-15.91v-108.478h15.91l20.25 58 20.247-58h15.912v108.478zM2854.932-2210.431c-13.017 0-29.94-9.979-29.94-30.374v-79.549h15.91v79.549c0 7.523 7.232 14.463 14.464 14.463s14.462-6.94 14.462-14.463v-79.549h15.912v79.549c0 20.395-17.356 30.374-30.808 30.374M2959.504-2211.877v-57.854l-20.394 57.71-20.103-57.71v57.854h-15.91v-108.478h15.91l20.25 58 20.247-58h15.912v108.478z" style="fill:#231f20;fill-opacity:1;fill-rule:nonzero;stroke:none;stroke-width:1.76388919" transform="translate(-2437.533 2895.47)"/>
  <path d="M2712.05-2551.808q0 61.45-51.54 94.157-39.15 24.779-87.22 24.779-26.265 0-53.025-10.407-8.92-3.469-21.31-10.407l22.796-44.601q9.912 5.451 15.858 7.929 19.328 7.93 35.682 7.93 38.654 0 63.928-20.32 25.274-20.318 25.274-49.06 0-28.248-18.832-43.61-15.858-12.885-41.132-12.885-25.77 0-42.123 19.327-2.478 2.973-5.947 9.416l-45.097-12.885 7.93-161.555h179.89v49.556H2564.37l-2.973 55.504q2.478-1.487 4.46-2.478 14.371-6.442 41.628-6.442 47.079 0 76.813 33.203 27.752 30.725 27.752 72.849M2976.111-2595.419q0 64.424-22.3 107.043-28.743 55.504-89.203 55.504t-89.202-55.008q-22.3-42.62-22.3-107.539 0-64.424 22.3-107.042 28.743-55.504 89.202-55.504t89.203 55.008q22.3 42.619 22.3 107.538m-49.557 0q0-49.556-13.876-78.795-16.353-34.194-48.07-34.194-31.22 0-47.574 34.194-14.372 30.23-14.372 78.795 0 49.557 13.876 78.796 16.354 34.194 48.07 34.194 31.221 0 47.575-34.194 14.371-30.23 14.371-78.796" style="font-style:normal;font-variant:normal;font-weight:400;font-stretch:normal;font-size:medium;line-height:1em;font-family:HGDPIXymbols;-inkscape-font-specification:HGDPIXymbols;text-align:start;letter-spacing:0;word-spacing:0;text-anchor:start;fill:#000;fill-opacity:1;stroke:none;stroke-width:2.5810864" transform="translate(-2437.533 2895.47)"/>
</svg>
