<svg xmlns="http://www.w3.org/2000/svg" viewBox="0 0 900 1200" role="img" aria-labelledby="title">
  <title id="title">Verkehrszeichen Rb-two-mode-shoulder - Two-mode reserved lane (shoulder)</title>
  <path d="M36541.177-4334.712c21.05 0 38.11-17.06 38.11-38.107v-1123.786c0-21.046-17.06-38.107-38.11-38.107h-823.79c-21.04 0-38.1 17.06-38.1 38.107v1123.786c0 21.047 17.06 38.107 38.1 38.107z" style="fill:#fff;fill-opacity:1;fill-rule:evenodd;stroke:#000;stroke-width:1;stroke-miterlimit:4;stroke-dasharray:none" transform="translate(-35679.287 5534.712)"/>
  <path d="M36544.337-4372.777a3.13 3.13 0 0 1-3.12 3.122h-824.15a3.13 3.13 0 0 1-3.12-3.122v-661.464l365.33-.1v-465.733h461.9c1.72 0 3.12 1.403 3.12 3.121zm-2.96-1146.73h-823.79c-12.7 0-23.1 10.4-23.1 23.103v1123.793c0 12.703 10.4 23.103 23.1 23.103h823.79c12.71 0 23.11-10.4 23.11-23.103v-1123.793c0-12.703-10.4-23.103-23.11-23.103" style="fill:#000;fill-opacity:1;fill-rule:evenodd;stroke:none;stroke-width:3.52777791" transform="translate(-35679.287 5534.712)"/>
  <path d="M35889.787-5401.495c20.95 40.767 58.41 113.665 64.97 126.418-6.56 12.753-44.02 85.665-64.97 126.439l-64.78-126.439zm-17.64-52.373-91.62 178.791 109.21 213.148 109.52-213.148-109.52-213.11z" style="fill:#fff;fill-opacity:1;fill-rule:evenodd;stroke:none;stroke-width:3.52777791" transform="translate(-35679.287 5534.712)"/>
  <path d="M36392.837-5350.235h-162.71c-4.13 0-7.01-3.337-6.4-7.419l7.06-47.777c.6-4.085 4.47-7.422 8.6-7.422h144.19c4.13 0 7.99 3.337 8.6 7.422l7.06 47.777c.6 4.082-2.27 7.42-6.4 7.42m-8.49 35.887a8.108 8.108 0 1 1 0-16.214c4.47 0 8.11 3.63 8.11 8.107 0 4.481-3.64 8.107-8.11 8.107m-145.97 0c-4.47 0-8.1-3.626-8.1-8.107 0-4.477 3.63-8.107 8.1-8.107a8.108 8.108 0 1 1 0 16.214m9.82-125.99a2.51 2.51 0 0 1 2.5-2.502h121.56c1.38 0 2.5 1.125 2.5 2.501v2.494c0 1.38-1.12 2.501-2.5 2.501h-121.56c-1.37 0-2.5-1.12-2.5-2.5zm184.07 86.85-15.72-95.8c-.9-5.426-6.12-9.867-11.62-9.867h-187.13c-5.5 0-10.73 4.44-11.62 9.867l-15.72 95.8c-.9 5.425.2 13.983 2.41 19.018l16.63 37.701c2.22 5.034 7.61 10.74 11.97 12.68 4.37 1.94 7.94 3.527 7.94 3.527h.3v11.906h22.93v-10.143h117.39v10.143h22.94v-11.906h.3l7.93-3.528c4.37-1.94 9.76-7.645 11.97-12.679l16.63-37.7c2.22-5.036 3.31-13.594 2.41-19.02M36253.597-5086.842v11.465h-26.46v-14.552h-13.67l-3.09-16.757 11.91-8.82-5.73-31.308 26.02-58.65h52.03l-6.17-12.788 22.93-13.229 22.93 13.23-6.18 12.787h52.04l26.02 58.65-5.74 31.309 11.91 8.819-3.09 16.757h-13.67v14.552h-26.46v-11.465z" style="fill:#000;fill-opacity:1;fill-rule:evenodd;stroke:none;stroke-width:3.52777791" transform="translate(-35679.287 5534.712)"/>
  <path d="m36321.097-5118.816 12.04-28.194-11.33-27.076h8.34l7.16 17.018 7.21-16.965h8.64l-11.74 27.023 11.99 28.194h-8.43l-7.67-18.288-7.78 18.288zM36254.197-5118.747v-48.207h-9.96v-7.01h27.59v7.01h-9.86v48.207zM36366.267-5173.998h7.93v55.27h-7.93zM36290.597-5142.11l3.56-14.884v.2l3.6 14.683zm7.37-32.004h-7.73l-13.31 55.266h7.98l3.81-15.49h11.02l3.87 15.49h8.02z" style="fill:#fff;fill-opacity:1;fill-rule:evenodd;stroke:none;stroke-width:3.52777791" transform="translate(-35679.287 5534.712)"/>
  <path d="m35905.387-4602.678-58.13 58.127-51.88-104.03c-3.47-3.366-6.63-3.81-9.93-3.25-3.05.44-6.55 4.174-6.87 7.458l3.37 209.458 209.48 3.355c3.28-.32 7.01-3.82 7.45-6.865.6-3.305.1-6.463-3.24-9.941l-104.03-51.883 58.14-58.141-44.32-44.327zM35966.507-4657.813v-50.655l-21.14 50.655-21.13-50.655v50.655h-14.17v-88.56h14.17l21.13 50.658 21.14-50.659h14.17v88.561zM36040.187-4726.064c-1.89-3.778-6.49-6.847-11.81-6.847-5.19 0-9.92 3.07-11.69 6.847-3.07 6.258-5.19 16.651-5.19 24.208s2 18.894 4.84 24.207c2.12 3.895 6.26 6.848 12.04 6.848 5.9 0 10.04-2.953 12.16-6.848 2.84-5.313 4.85-16.65 4.85-24.207s-2.13-17.95-5.2-24.208m14.17 54.317c-3.42 7.084-12.28 15.117-25.98 15.117s-22.43-8.033-25.86-15.117c-4.49-8.97-5.79-20.546-5.79-30.109 0-10.866 2.13-25.39 8.98-34.48 4.6-6.259 12.99-11.219 22.67-11.219 9.8 0 18.19 4.96 22.79 11.218 6.85 9.091 8.98 23.615 8.98 34.481 0 9.563-1.3 21.138-5.79 30.11M36124.737-4657.813l-32.35-55.968v55.968h-14.17v-88.56h13.1l32.47 56.68v-56.68h14.18v88.56zM36156.967-4701.506h29.53v11.811h-29.53zM36219.677-4732.204v21.018h26.33v14.172h-26.33v39.2h-14.17v-88.56h55.15v14.17zM36307.647-4732.204h-19.84v21.844h19.13c4.84 0 10.86-4.015 10.86-11.57 0-4.725-4.13-10.274-10.15-10.274m11.22 74.39-14.88-38.019h-16.18v38.02h-14.17v-88.562h34.72c13.81 0 24.44 11.451 24.44 24.444 0 16.411-14.05 22.79-14.05 22.79l16.29 41.327zM36352.757-4746.372h14.17v88.561h-14.17zM36110.137-4939.863h29.52v10.626h-29.52zM36229.517-4964.781c-1.77-4.607-4.25-8.15-9.45-8.15-5.19 0-7.55 3.543-9.32 8.15-1.66 4.25-3.43 15.822-3.43 24.324 0 8.622 1.54 21.964 3.9 26.335 2.12 4.134 3.3 6.138 8.85 6.138 5.56 0 6.73-2.007 8.98-6.138 2.36-4.371 3.9-17.713 3.9-26.335 0-8.502-1.89-20.073-3.43-24.324m11.22 57.154c-2.6 4.84-8.39 12.632-20.67 12.632s-17.95-7.792-20.66-12.632c-2.6-4.844-5.31-15.706-5.31-32.83 0-17.004 3.42-30.82 6.96-35.66 4.02-5.315 9.09-9.802 19.01-9.802s15 4.487 19.01 9.803c3.66 4.84 6.97 18.655 6.97 35.659 0 17.124-2.72 27.986-5.31 32.83M36286.907-4972.574c-8.27 0-12.04 6.73-12.04 14.997 0 7.792 3.42 14.287 12.04 14.287 3.66 0 10.98-1.771 10.98-14.287 0-12.753-8.15-14.997-10.98-14.997m-6.37 77.578-8.74-10.391c10.03-7.91 16.29-16.884 19.95-25.27-7.32 1.77-30.11.47-30.11-27.273 0-20.313 14.64-27.99 25.15-27.99 11.81 0 24.45 9.33 24.45 27.99 0 22.549-10.16 46.64-30.7 62.935M36339.337-4903.14c0 3.896-3.07 6.965-6.85 6.965-3.89 0-6.96-3.07-6.96-6.849 0-3.897 3.07-6.966 6.84-6.966 3.9 0 6.97 3.069 6.97 6.966zm-6.85-38.025c-3.89 0-6.96-3.19-6.96-6.964 0-3.782 3.07-6.971 6.84-6.971 3.9 0 6.97 3.189 6.97 6.97s-3.07 6.965-6.85 6.965M36391.527-4964.781c-1.77-4.607-4.25-8.15-9.45-8.15-5.19 0-7.55 3.543-9.32 8.15-1.66 4.25-3.43 15.822-3.43 24.324 0 8.622 1.54 21.964 3.9 26.335 2.12 4.134 3.31 6.138 8.85 6.138 5.56 0 6.73-2.007 8.98-6.138 2.36-4.371 3.9-17.713 3.9-26.335 0-8.502-1.89-20.073-3.43-24.324m11.22 57.154c-2.6 4.84-8.38 12.632-20.67 12.632-12.27 0-17.95-7.792-20.66-12.632-2.6-4.844-5.31-15.706-5.31-32.83 0-17.004 3.42-30.82 6.96-35.66 4.02-5.315 9.1-9.802 19.01-9.802 9.93 0 15 4.487 19.01 9.803 3.67 4.84 6.97 18.655 6.97 35.659 0 17.124-2.72 27.986-5.31 32.83M36462.497-4964.781c-1.77-4.607-4.25-8.15-9.45-8.15-5.19 0-7.55 3.543-9.32 8.15-1.66 4.25-3.43 15.822-3.43 24.324 0 8.622 1.54 21.964 3.9 26.335 2.12 4.134 3.3 6.138 8.85 6.138s6.73-2.007 8.97-6.138c2.37-4.371 3.91-17.713 3.91-26.335 0-8.502-1.89-20.073-3.43-24.324m11.22 57.154c-2.6 4.84-8.39 12.632-20.67 12.632s-17.95-7.792-20.66-12.632c-2.6-4.844-5.32-15.706-5.32-32.83 0-17.004 3.43-30.82 6.97-35.66 4.01-5.315 9.09-9.802 19.01-9.802s15 4.487 19.01 9.803c3.66 4.84 6.97 18.655 6.97 35.659 0 17.124-2.72 27.986-5.31 32.83M36110.137-4819.919h29.52v10.63h-29.52zM36216.297-4776.232v-72.856h-5.43v-10.273c2.71 0 7.56-2.007 9.68-5.432h8.74v88.561zM36276.867-4852.511c-6.85 0-9.8 5.786-9.8 9.916 0 4.134 1.65 11.691 9.8 11.691 8.27 0 9.8-7.557 9.8-11.69 0-4.131-2.83-9.917-9.8-9.917m0 34.36c-7.91 0-11.57 8.03-11.57 15.705 0 6.375 2.95 14.524 11.57 14.524 8.74 0 11.69-8.149 11.69-14.524 0-7.673-3.66-15.705-11.69-15.705m0 43.102c-13.81 0-24.68-11.338-24.68-26.924 0-14.997 7.68-23.382 7.68-23.382s-6.73-6.139-6.73-17.12c0-8.385 6.37-23.498 23.73-23.498 17.48 0 23.85 15.113 23.85 23.498 0 10.981-6.73 17.12-6.73 17.12s7.68 8.385 7.68 23.382c0 15.59-10.99 26.924-24.8 26.924M36329.777-4783.198c0 3.895-3.07 6.967-6.85 6.967-3.9 0-6.96-3.072-6.96-6.85 0-3.895 3.06-6.964 6.84-6.964 3.9 0 6.97 3.07 6.97 6.963zm-6.85-38.022c-3.9 0-6.96-3.189-6.96-6.968s3.06-6.967 6.84-6.967c3.9 0 6.97 3.19 6.97 6.967 0 3.78-3.07 6.968-6.85 6.968M36381.967-4844.837c-1.77-4.607-4.25-8.146-9.45-8.146-5.19 0-7.55 3.539-9.32 8.146-1.66 4.253-3.43 15.821-3.43 24.323 0 8.622 1.54 21.967 3.9 26.331 2.12 4.135 3.3 6.142 8.85 6.142s6.73-2.007 8.97-6.142c2.37-4.364 3.91-17.709 3.91-26.33 0-8.499-1.9-20.07-3.43-24.324m11.22 57.153c-2.6 4.84-8.39 12.636-20.67 12.636s-17.95-7.796-20.66-12.636c-2.6-4.84-5.32-15.706-5.32-32.83 0-17.004 3.43-30.818 6.97-35.658 4.01-5.317 9.09-9.804 19.01-9.804s15 4.488 19.01 9.804c3.66 4.843 6.97 18.654 6.97 35.658 0 17.124-2.72 27.99-5.31 32.83M36452.937-4844.837c-1.77-4.607-4.25-8.146-9.45-8.146-5.19 0-7.55 3.539-9.32 8.146-1.66 4.253-3.43 15.821-3.43 24.323 0 8.622 1.53 21.967 3.9 26.331 2.12 4.135 3.3 6.142 8.85 6.142 5.56 0 6.73-2.007 8.98-6.142 2.36-4.364 3.89-17.709 3.89-26.33 0-8.499-1.89-20.07-3.42-24.324m11.22 57.153c-2.6 4.84-8.39 12.636-20.67 12.636s-17.95-7.796-20.66-12.636c-2.6-4.84-5.32-15.706-5.32-32.83 0-17.004 3.43-30.818 6.97-35.658 4.02-5.317 9.1-9.804 19.01-9.804 9.92 0 15 4.488 19.01 9.804 3.67 4.843 6.97 18.654 6.97 35.658 0 17.124-2.72 27.99-5.31 32.83M35816.307-4964.781c-1.77-4.607-4.25-8.15-9.45-8.15-5.19 0-7.55 3.543-9.32 8.15-1.66 4.25-3.43 15.822-3.43 24.324 0 8.622 1.54 21.964 3.9 26.335 2.13 4.134 3.3 6.138 8.85 6.138 5.56 0 6.73-2.007 8.98-6.138 2.36-4.371 3.9-17.713 3.9-26.335 0-8.502-1.9-20.073-3.43-24.324m11.22 57.154c-2.6 4.84-8.39 12.632-20.67 12.632s-17.95-7.792-20.66-12.632c-2.6-4.844-5.32-15.706-5.32-32.83 0-17.004 3.43-30.82 6.97-35.66 4.02-5.315 9.1-9.802 19.01-9.802 9.92 0 15 4.487 19.01 9.803 3.67 4.84 6.97 18.655 6.97 35.659 0 17.124-2.71 27.986-5.31 32.83M35868.497-4896.173h-13.46c0-42.393 23.14-75.572 23.14-75.572h-33.06v-12.99h49.59v13.579s-26.21 32.12-26.21 74.983M35912.307-4903.14c0 3.896-3.07 6.965-6.85 6.965-3.9 0-6.97-3.07-6.97-6.849 0-3.897 3.07-6.966 6.85-6.966 3.9 0 6.97 3.069 6.97 6.966zm-6.85-38.025c-3.9 0-6.97-3.19-6.97-6.964 0-3.782 3.07-6.971 6.85-6.971 3.9 0 6.97 3.189 6.97 6.97s-3.07 6.965-6.85 6.965M35964.507-4964.781c-1.77-4.607-4.25-8.15-9.45-8.15-5.19 0-7.55 3.543-9.32 8.15-1.66 4.25-3.43 15.822-3.43 24.324 0 8.622 1.54 21.964 3.9 26.335 2.13 4.134 3.3 6.138 8.85 6.138 5.56 0 6.73-2.007 8.98-6.138 2.36-4.371 3.9-17.713 3.9-26.335 0-8.502-1.9-20.073-3.43-24.324m11.22 57.154c-2.6 4.84-8.39 12.632-20.67 12.632s-17.95-7.792-20.66-12.632c-2.6-4.844-5.32-15.706-5.32-32.83 0-17.004 3.43-30.82 6.97-35.66 4.02-5.315 9.1-9.802 19.01-9.802 9.92 0 15 4.487 19.01 9.803 3.67 4.84 6.97 18.655 6.97 35.659 0 17.124-2.71 27.986-5.31 32.83M36035.467-4964.781c-1.77-4.607-4.25-8.15-9.45-8.15-5.19 0-7.55 3.543-9.32 8.15-1.66 4.25-3.43 15.822-3.43 24.324 0 8.622 1.54 21.964 3.9 26.335 2.13 4.134 3.3 6.138 8.85 6.138 5.56 0 6.73-2.007 8.98-6.138 2.36-4.371 3.9-17.713 3.9-26.335 0-8.502-1.9-20.073-3.43-24.324m11.22 57.154c-2.6 4.84-8.39 12.632-20.67 12.632s-17.95-7.792-20.66-12.632c-2.6-4.844-5.32-15.706-5.32-32.83 0-17.004 3.43-30.82 6.97-35.66 4.02-5.315 9.1-9.802 19.01-9.802 9.92 0 15 4.487 19.01 9.803 3.67 4.84 6.97 18.655 6.97 35.659 0 17.124-2.72 27.986-5.31 32.83M35801.197-4776.232v-72.856h-5.43v-10.273c2.71 0 7.56-2.007 9.68-5.432h8.74v88.561zM35859.417-4817.559c-8.27 0-12.28 5.67-12.28 14.76 0 8.855 4.01 14.64 12.28 14.64 5.31 0 11.81-3.069 11.81-14.64 0-11.69-6.5-14.76-11.81-14.76m-.4 42.51c-10.39 0-24.91-8.033-24.91-27.28 0-17.826 6.14-43.809 31.64-63.645l8.03 9.8c-6.84 6.143-14.16 12.636-20.54 25.862 0 0 .8-.59 5.43-.59 11.93 0 25.98 7.321 25.98 28.575 0 18.542-14.29 27.281-25.63 27.281M35912.307-4783.198c0 3.895-3.07 6.967-6.85 6.967-3.9 0-6.97-3.072-6.97-6.85 0-3.895 3.07-6.964 6.85-6.964 3.9 0 6.97 3.07 6.97 6.963zm-6.85-38.022c-3.9 0-6.97-3.189-6.97-6.968s3.07-6.967 6.85-6.967c3.9 0 6.97 3.19 6.97 6.967 0 3.78-3.07 6.968-6.85 6.968M35964.507-4844.837c-1.77-4.607-4.25-8.146-9.45-8.146-5.19 0-7.55 3.539-9.32 8.146-1.66 4.253-3.43 15.821-3.43 24.323 0 8.622 1.54 21.967 3.9 26.331 2.13 4.135 3.3 6.142 8.85 6.142 5.56 0 6.73-2.007 8.98-6.142 2.36-4.364 3.9-17.709 3.9-26.33 0-8.499-1.9-20.07-3.43-24.324m11.22 57.153c-2.6 4.84-8.39 12.636-20.67 12.636s-17.95-7.796-20.66-12.636c-2.6-4.84-5.32-15.706-5.32-32.83 0-17.004 3.43-30.818 6.97-35.658 4.02-5.317 9.1-9.804 19.01-9.804 9.92 0 15 4.488 19.01 9.804 3.67 4.843 6.97 18.654 6.97 35.658 0 17.124-2.71 27.99-5.31 32.83M36035.467-4844.837c-1.77-4.607-4.25-8.146-9.45-8.146-5.19 0-7.55 3.539-9.32 8.146-1.66 4.253-3.43 15.821-3.43 24.323 0 8.622 1.54 21.967 3.9 26.331 2.13 4.135 3.3 6.142 8.85 6.142 5.56 0 6.73-2.007 8.98-6.142 2.36-4.364 3.9-17.709 3.9-26.33 0-8.499-1.9-20.07-3.43-24.324m11.22 57.153c-2.6 4.84-8.39 12.636-20.67 12.636s-17.95-7.796-20.66-12.636c-2.6-4.84-5.32-15.706-5.32-32.83 0-17.004 3.43-30.818 6.97-35.658 4.02-5.317 9.1-9.804 19.01-9.804 9.92 0 15 4.488 19.01 9.804 3.67 4.843 6.97 18.654 6.97 35.658 0 17.124-2.72 27.99-5.31 32.83" style="fill:#000;fill-opacity:1;fill-rule:evenodd;stroke:none;stroke-width:3.52777791" transform="translate(-35679.287 5534.712)"/>
</svg>
