<svg xmlns="http://www.w3.org/2000/svg" viewBox="0 0 304 304" role="img" aria-labelledby="title">
  <title id="title">Verkehrszeichen Rb-070 - Bicycles must dismount</title>
  <g transform="translate(0 7)">
    <rect width="302" height="302" x="1" y="-6" rx="31" ry="31" style="fill:#000;fill-opacity:1;stroke:none;stroke-width:121.21225739;stroke-linecap:round;stroke-linejoin:round;stroke-miterlimit:1.41400003;stroke-dasharray:none;stroke-opacity:1"/>
    <rect width="300" height="300" x="2" y="-5" rx="30" ry="30" style="fill:#fff;fill-opacity:1;stroke:none;stroke-width:120.40953827;stroke-linecap:round;stroke-linejoin:round;stroke-miterlimit:1.41400003;stroke-dasharray:none;stroke-opacity:1"/>
    <rect width="280" height="280" x="12" y="5" rx="20" ry="20" style="fill:#000;fill-opacity:1;stroke:none;stroke-width:112.38222504;stroke-linecap:round;stroke-linejoin:round;stroke-miterlimit:1.41400003;stroke-dasharray:none;stroke-opacity:1"/>
    <rect width="260" height="260" x="22" y="15" rx="10" ry="10" style="fill:#fff;fill-opacity:1;stroke:none;stroke-width:104.35491943;stroke-linecap:round;stroke-linejoin:round;stroke-miterlimit:1.41400003;stroke-dasharray:none;stroke-opacity:1"/>
    <g aria-label="50" style="font-style:normal;font-variant:normal;font-weight:400;font-stretch:normal;font-size:432.27664185px;line-height:1.25;font-family:&quot;Roadgeek 2005 Series D&quot;;-inkscape-font-specification:&quot;Roadgeek 2005 Series D&quot;;letter-spacing:0;word-spacing:0;fill:#000;fill-opacity:1;stroke:none;stroke-width:10.80691528">
      <g aria-label="MAXIMUM" style="font-style:normal;font-variant:normal;font-weight:400;font-stretch:normal;font-size:146.62756348px;line-height:1.25;font-family:&quot;Roadgeek 2005 Series C&quot;;-inkscape-font-specification:&quot;Roadgeek 2005 Series C&quot;;letter-spacing:0;word-spacing:0;fill:#000;fill-opacity:1;stroke:none;stroke-width:39.61479187" transform="matrix(1 0 0 -1 -2.523 140.96)">
        <circle cx="154.523" cy="4.039" r="125" style="fill:#006450;fill-opacity:1;fill-rule:nonzero;stroke:none;stroke-width:9.89217949;stroke-linecap:round;stroke-linejoin:round;stroke-miterlimit:4;stroke-dasharray:none;stroke-opacity:1" transform="scale(1 -1)"/>
        <circle cx="154.523" cy="4.039" r="100" style="fill:#fff;fill-opacity:1;fill-rule:nonzero;stroke:none;stroke-width:7.91374302;stroke-linecap:round;stroke-linejoin:round;stroke-miterlimit:4;stroke-dasharray:none;stroke-opacity:1" transform="scale(1 -1)"/>
        <path d="M161.934 15.304v21.25l16.176-8.632 5.318-12.618zm-35.9 6.863h-7.09l7.09 9.294zM186.31 8.442h.027c.795-.923 2.235-1.543 3.887-1.543s3.095.62 3.887 1.543h11.923v4.65H195.62v1.323l-8.2 17.268-1.772 3.547-2.219 1.551-22.6 11.726-2.22.441h-31.021l-1.553-1.101-21.495-27.23c-2.304-3.053-1.104-7.525-1.104-7.525s1.06-4.65 6.2-4.65h16.4v-88.57c-.039-.32-.03-.636-.03-.968 0-4.343 3.488-7.868 7.838-7.868 4.298 0 7.636 3.448 7.718 7.724l-.017 69.094h4.657l-.027-69.066a7.864 7.864 0 0 1 7.868-7.752c4.35 0 7.876 3.525 7.876 7.868h.013V8.442h20.166l-.036-6.2h-2.812c-1.106 0-1.174-.663-1.174-.663V.25l3.986-3.098.036-7.257c-1.653-.708-2.82-2.344-2.82-4.245v-33.024h-6.306c-1.25 0-2.27-1.034-2.27-2.302l.014-17.583h-7.534v-3.52h8.815a2.32 2.32 0 0 1 2.312 2.305l.01 17.584h4.961v-33.537c0-2.536 2.08-4.611 4.62-4.611h.153c2.536 0 4.614 2.075 4.614 4.61v33.579h6.127c1.248 0 2.26 1.036 2.26 2.303l-.01 17.584h7.541v3.52h-8.818a2.31 2.31 0 0 1-2.307-2.305l-.013-17.58h-4.778v32.977c0 1.978-1.263 3.665-3.02 4.32v7.182l3.988 3.098v1.33s-.065.662-1.176.662h-2.811v6.2z" style="fill:#000;fill-opacity:1;fill-rule:nonzero;stroke:none;stroke-width:1.17591393"/>
        <circle cx="143.435" cy="-67.961" r="13" style="opacity:1;fill:#000;fill-opacity:1;fill-rule:nonzero;stroke:none;stroke-width:17.35844994;stroke-linecap:round;stroke-linejoin:round;stroke-miterlimit:4;stroke-dasharray:none;stroke-opacity:1" transform="scale(1 -1)"/>
      </g>
    </g>
  </g>
</svg>
