<svg xmlns="http://www.w3.org/2000/svg" viewBox="0 0 300 450" role="img" aria-labelledby="title">
  <title id="title">Verkehrszeichen Rb-78 - No bicycles on sidewalk</title>
  <path d="M31138.887-2674.646c21.042 0 38.1-17.056 38.1-38.099v-373.802c0-21.043-17.058-38.099-38.1-38.099h-223.8c-21.042 0-38.1 17.056-38.1 38.099v373.803c0 21.042 17.058 38.098 38.1 38.098z" style="fill:#fff;fill-opacity:1;fill-rule:evenodd;stroke:#000;stroke-width:1;stroke-miterlimit:4;stroke-dasharray:none" transform="translate(-30876.987 3124.646)"/>
  <path d="M31156.986-2712.746c0 9.995-8.103 18.1-18.099 18.1h-223.8c-9.996 0-18.099-8.106-18.099-18.1v-373.8c0-9.994 8.103-18.099 18.099-18.099h223.8c9.996 0 18.099 8.105 18.099 18.099zm-18.096-401.9h-223.803c-15.519 0-28.101 12.583-28.101 28.1v373.801c0 15.517 12.582 28.099 28.098 28.099h223.806c15.516 0 28.095-12.582 28.095-28.099v-373.801c0-15.518-12.579-28.1-28.095-28.1" style="fill:#000;fill-opacity:1;fill-rule:evenodd;stroke:none;stroke-width:1.05833328" transform="translate(-30876.987 3124.646)"/>
  <path d="M31117.692-2973.532c0 21.961-7.806 42.098-20.793 57.792l-127.704-127.704c15.696-12.986 35.832-20.792 57.792-20.792 50.094 0 90.705 40.61 90.705 90.704m-90.705 90.706c-50.094 0-90.705-40.612-90.705-90.706 0-21.931 7.785-42.045 20.742-57.728l127.692 127.692c-15.684 12.956-35.796 20.741-57.729 20.741m-117.342-90.705c0 64.805 52.539 117.342 117.342 117.342 64.806 0 117.342-52.537 117.342-117.342s-52.536-117.342-117.342-117.342c-64.803 0-117.342 52.537-117.342 117.342" style="fill:#c0111e;fill-opacity:1;fill-rule:evenodd;stroke:none;stroke-width:1.05833328" transform="translate(-30876.987 3124.646)"/>
  <path d="M30976.593-2936.585c-13.956 0-25.275-11.317-25.275-25.276s11.319-25.274 25.275-25.274c2.082 0 4.107.252 6.042.726 0 0-8.817 23.096-9.102 23.862a2.89 2.89 0 0 0 1.701 3.706 2.89 2.89 0 0 0 3.705-1.7c.552-1.485 8.847-23.986 8.847-23.986 8.346 4.127 14.082 12.726 14.082 22.666 0 13.96-11.316 25.276-25.275 25.276m13.095-53.954 1.74-3.488-4.335-4.334c-1.218 3.233-2.289 6.06-2.289 6.06a31.6 31.6 0 0 0-8.211-1.08c-17.406 0-31.518 14.113-31.518 31.52s14.112 31.52 31.518 31.52c17.409 0 31.521-14.113 31.521-31.52 0-12.735-7.554-23.707-18.426-28.678M31073.367-2965.122h-21.774c.927-7.622 5.244-14.03 11.403-18.006zm-21.657-46.449-2.073 4.641h-40.965l5.358 5.357h33.348l-9.513 23.836 4.032 4.031 11.232-26.5 6.747 11.655a31.45 31.45 0 0 0-13.776 19.05l10.14 10.141h21.648c2.406 0 3.201-2.592 2.196-4.369-.498-.875-6.438-11.374-12.336-21.798h.03a25.2 25.2 0 0 1 8.901-1.611c13.959 0 25.275 11.315 25.275 25.274 0 13.203-10.131 24.03-23.04 25.163l5.418 5.417c13.707-3.421 23.865-15.812 23.865-30.58 0-17.406-14.112-31.52-31.518-31.52-4.257 0-8.316.844-12.018 2.373-4.869-8.604-9-15.909-9-15.909l1.626-2.92s8.781-1.261 8.886-8.937c-8.256.159-24.234.474-24.234.474s-.894-.051-1.155.368c-.633.84.315 1.787.315 1.787zM30998.154-3017.458h5.325c1.083 0 1.974-.933 1.974-2.076 0-1.141-.864-2.075-1.92-2.075h-9.531zM31012.539-2831.932c-1.623-2.627-5.022-2.627-6.645 0-1.314 2.163-2.472 11.125-2.472 20.01 0 8.266.774 16.996 2.163 19.932a3.964 3.964 0 0 0 7.263 0c1.314-2.859 2.241-11.975 2.241-19.932 0-8.575-1.236-17.847-2.55-20.01m6.798 44.5c-2.55 4.172-6.72 5.408-10.122 5.408-3.396 0-7.569-1.236-10.119-5.408-2.781-4.558-3.399-17.537-3.399-24.336 0-6.953.618-19.546 3.63-24.491 2.781-4.48 6.645-5.253 9.888-5.253 3.246 0 7.11.772 9.891 5.253 3.012 4.946 3.63 17.538 3.63 24.491 0 6.8-.618 19.778-3.399 24.336M31048.464-2782.795l-11.046-32.45v32.45h-7.728v-57.945h7.728l9.657 28.43v-28.43h7.725v57.945zM30920.487-2707.94c-8.421 0-12.591-7.185-12.591-11.357v-3.631h7.725v2.163s-.15 5.1 4.866 5.1c8.886 0 3.708-16.225-3.168-22.328-4.866-4.327-8.73-10.354-8.73-16.997s4.482-12.439 12.207-12.439 11.898 6.799 11.898 11.665v1.623h-7.725v-1.623c0-2.55-2.472-4.17-4.173-4.17-1.698 0-4.482.85-4.482 4.944s2.088 7.107 6.027 10.893c6.798 6.567 10.74 14.834 10.74 23.95 0 4.636-4.173 12.207-12.594 12.207M30939.183-2766.656h7.728v57.944h-7.728zM30969.777-2754.913c-.927-3.631-4.713-4.018-4.713-4.018h-3.477v42.493h2.628s4.404 0 5.484-4.173c1.005-3.785 1.623-9.425 1.623-17.228 0-7.726-.696-13.83-1.545-17.074m7.572 36.312c-1.392 5.949-7.032 9.888-14.061 9.888h-9.426v-57.945h9.27c7.263 0 11.358 2.858 13.677 8.42 2.316 5.563 2.238 16.225 2.238 20.398 0 4.404-.462 14.061-1.698 19.237M30986.079-2708.712v-57.945h21.633v7.726h-13.908v14.294h9.195v7.725h-9.195v20.474h14.679v7.726zM31044.639-2708.712h-7.107l-5.022-30.054-5.022 30.054h-7.107l-6.489-57.945h7.725l3.012 26.577 4.557-26.577h6.648l4.557 26.577 3.012-26.577h7.725zM31071.372-2732.277l-3.399-16.07-3.324 16.07zm-8.346 7.726-3.321 15.84h-7.725l12.129-57.946h7.728l12.282 57.945h-7.725l-3.324-15.839zM31089.837-2708.712v-57.945h7.725v50.219h14.679v7.726zM31116.951-2708.712v-57.945h7.725v17.616h.09l8.652-17.616h8.73l-9.579 19.548 11.124 38.397h-8.112l-8.112-27.969-2.781 5.718v22.25z" style="fill:#000;fill-opacity:1;fill-rule:evenodd;stroke:none;stroke-width:1.05833328" transform="translate(-30876.987 3124.646)"/>
</svg>
