<svg xmlns="http://www.w3.org/2000/svg" viewBox="0 0 454 754" role="img" aria-labelledby="title">
  <title id="title">Verkehrszeichen Rb-40 - Cyclists, yield to cars</title>
  <g transform="translate(0 457)">
    <rect width="452" height="752" x="1" y="-456" rx="42" ry="42" style="fill:#000;fill-opacity:1;stroke:none;stroke-width:234.00100708;stroke-linecap:round;stroke-linejoin:round;stroke-miterlimit:1.41400003;stroke-dasharray:none;stroke-opacity:1"/>
    <rect width="450" height="750" x="2" y="-455" rx="40" ry="40" style="fill:#fff;fill-opacity:1;stroke:none;stroke-width:233.17205811;stroke-linecap:round;stroke-linejoin:round;stroke-miterlimit:1.41400003;stroke-dasharray:none;stroke-opacity:1"/>
    <rect width="425" height="725" x="14.5" y="-442.5" rx="27.5" ry="27.5" style="fill:#000;fill-opacity:1;stroke:none;stroke-width:222.79377747;stroke-linecap:round;stroke-linejoin:round;stroke-miterlimit:1.41400003;stroke-dasharray:none;stroke-opacity:1"/>
    <rect width="400" height="700" x="27" y="-430" rx="15" ry="15" style="fill:#fff;fill-opacity:1;stroke:none;stroke-width:212.38244629;stroke-linecap:round;stroke-linejoin:round;stroke-miterlimit:1.41400003;stroke-dasharray:none;stroke-opacity:1"/>
    <path d="M262.771-283.892c-.03-18.03 8.134-34.407 22.287-45.94l-10.16-15.974-24.89 58.737a13.8 13.8 0 0 1 4.446 4.579zm30.525-33.043c-10.107 7.568-15.487 19.476-15.028 31.424l30.609-2.974 1.137-2.43zm25.725 21.706c4.01-.428 6.56 1.86 8.15 4.157 2.236 3.064 1.7 7.495-.024 10.643-1.894 2.985-4.962 4.748-8.46 4.819-3.64.375-6.035-3.3-9.223-3.173l-30.297 3.513c.905 3.091 1.823 6.266 3.35 9.101 6.116 11.857 18.298 19.404 30.765 21.267 16.033 1.798 30.89-5.238 39.73-18.455 8.55-12.199 8.584-31.16.353-43.667-10.794-16.807-33.527-23.326-51.634-15.462zm-173.956 5.288c.978 2.392.886 5.745-.403 7.862-2.18 3.602-5.862 6.087-10.378 5.632-3.575-.25-7.278-3.208-8.67-6.752-.792-1.07.103-2.954-.996-3.711.84-.795.585-2.034.876-2.97 1.318-4.065 5.24-6.157 9.034-7.081l15.885-26.778c-1.182-.987-3.515-1.035-4.925-1.63-11.398-3.208-25.011-.308-34.661 6.866-13.507 10.267-18.142 23.997-16.599 34.778-.459 4.579 2.113 9.224 3.82 13.309 6.243 14.179 22.715 25.037 39.593 23.885 12.645-.855 24.097-7.353 31.198-17.906 8.626-12.356 8.664-30.995.668-43.421-2.389-3.23-5.098-7.813-8.716-9.993zm90.454 2.257a9.7 9.7 0 0 1 2.456-.858l-1.141-4.253-2.7.398-.982-3.688c.06.012 8.575-2.098 8.575-2.098l.979 3.784-2.18.638.724 4.266 1.833-.162 24.292-61.115-93.21-3.146-3.936 9.771 65.29 56.436zm20.719 14.936c-.947 5.21-4.512 9.387-9.508 10.883l.198 1.303 1.971-.31.732 3.871-9.402 1.65-.798-3.915 1.915-.324-.297-1.68-.041-.01c-7.762-.746-12.652-6.092-12.652-13.94 0-1.738.363-3.582 1.024-5.332l.024-.113-62.305-55.503-1.732 4.137c19.041 14.229 29.538 36.973 24.352 58.43-4.714 18.186-21.15 36.593-40.028 40.442-12.212 2.872-25.03 2.568-36.393-2.424-19.96-8.566-34.234-28.348-33.788-50.339-.258-17.864 8.353-35.343 23.906-46.12 15.264-11.01 33.053-14.437 52.065-6.218l21.33-52.299c1.97-7.25 3.35-8.321 7.057-9.329l33.155-.112-.187 11.014h-28.312c-1.547 1.544-2.14 3.184-2.349 4.744l-8.362 20.645 91.927 3.28c.431-1.248 2.265-5.092.85-6-5.99-.427-11.99-1.16-16.491-5.515-.167-.85-.495-1.544-.053-2.4l.922-.802 32.656 1.65c1.323.519 2.96 1.028 3.613 2.57.109 1.554-.023 3.03-1.247 4.14-2.061 1.742-5.417.566-7.975 1.238l-3.056 8.317 14.302 22.139c19.546-9.844 45.865-6.269 62.138 7.94 16.891 14.382 23.558 38.879 16.025 59.766-6.548 19.463-26.069 35.13-46.69 37.07-21.254 1.72-42.225-7.446-53.612-26.268-3.209-5.144-5.176-10.78-6.834-16.655l-7.996.382" style="fill:#000;fill-opacity:1;fill-rule:nonzero;stroke:none;stroke-width:2.08603549"/>
    <path d="M208.831 43.738v40.63h-8.772v-40.63H186.35v-8.07h36.19v8.07zM258.874 59.998q0-3.38-.688-6.346-.69-2.966-2.1-5.166-1.41-2.209-3.597-3.475-2.191-1.273-5.19-1.274-3.036.001-5.22 1.274c-1.462.845-2.665 2.002-3.618 3.475-.953 1.466-1.663 3.189-2.119 5.166q-.688 2.965-.687 6.346 0 1.625.158 3.46.155 1.836.6 3.651c.29 1.212.712 2.367 1.25 3.453a10.8 10.8 0 0 0 2.101 2.914q1.289 1.27 3.125 2.027c1.224.509 2.67.759 4.34.759 1.695 0 3.152-.25 4.375-.759q1.838-.758 3.125-2.027a10.6 10.6 0 0 0 2.082-2.914c.53-1.086.94-2.24 1.235-3.453a24 24 0 0 0 .598-3.652q.159-1.834.16-3.459zm8.776-.013q0 2.184-.234 4.424c-.148 1.489-.39 2.96-.719 4.403a27.5 27.5 0 0 1-1.322 4.209 20 20 0 0 1-2.062 3.844 16.8 16.8 0 0 1-2.992 3.45 18 18 0 0 1-3.789 2.557 19.7 19.7 0 0 1-4.405 1.585 21.4 21.4 0 0 1-4.846.543q-2.499 0-4.861-.543a20 20 0 0 1-4.44-1.585 18.3 18.3 0 0 1-3.826-2.557 17.5 17.5 0 0 1-3.047-3.45q-1.198-1.802-2.027-3.844a26 26 0 0 1-1.302-4.209 36 36 0 0 1-.687-4.403 46.124 46.124 0 0 1 0-8.832c.14-1.477.369-2.935.687-4.366q.472-2.15 1.267-4.193a20 20 0 0 1 1.993-3.844 17 17 0 0 1 3.047-3.485 18 18 0 0 1 3.826-2.556 20 20 0 0 1 4.438-1.586 21.7 21.7 0 0 1 4.863-.547c1.691 0 3.33.186 4.915.547s3.072.894 4.458 1.586a18.2 18.2 0 0 1 3.823 2.556 17 17 0 0 1 3.047 3.485q1.2 1.8 1.989 3.844.796 2.043 1.29 4.193c.327 1.431.563 2.889.703 4.366q.213 2.223.213 4.408" style="fill:#000;fill-opacity:1;fill-rule:nonzero;stroke:none;stroke-width:2.29095817"/>
    <path d="M241.914 170.528v-27.926h30.892l15.51 27.926zm-11.372 0h-73.377l25.096-27.926h48.281zM392 223.533v-13.25h-2.365v-2.37l-3.318-.944-3.785-27.922-55.398-5.2-32.192-35.97-6.625-2.845-2.494-.032h-105.49l-37.374 35.528-73.858 4.263-4.26 37.39H62v5.205h2.368v6.146h47.878C112.347 235.41 122 245 133.901 245c11.9 0 21.551-9.59 21.653-21.468h131.523C287.178 235.41 296.83 245 308.73 245c11.904 0 21.554-9.59 21.658-21.468z" style="fill:#000;fill-opacity:1;fill-rule:nonzero;stroke:none;stroke-width:2.25007129"/>
    <path d="m227-33.783 73.573-127.432H153.426z" style="opacity:1;fill:#000;fill-opacity:1;fill-rule:nonzero;stroke:#000;stroke-width:37.56916809;stroke-linecap:round;stroke-linejoin:round;stroke-miterlimit:1.41400003;stroke-dasharray:none;stroke-opacity:1;paint-order:markers stroke fill"/>
    <path d="m227-33.783 73.573-127.432H153.426z" style="opacity:1;fill:#fffff8;fill-opacity:1;fill-rule:nonzero;stroke:#fff;stroke-width:36.4477005;stroke-linecap:round;stroke-linejoin:round;stroke-miterlimit:1.41400003;stroke-dasharray:none;stroke-opacity:1;paint-order:markers stroke fill"/>
    <path d="m227-33.783 73.573-127.432H153.426z" style="opacity:1;fill:#be141e;fill-opacity:1;fill-rule:nonzero;stroke:#be141e;stroke-width:25.23302269;stroke-linecap:round;stroke-linejoin:round;stroke-miterlimit:1.41400003;stroke-dasharray:none;stroke-opacity:1;paint-order:markers stroke fill"/>
    <path d="m227-78.641 32.782-56.78h-65.565z" style="fill:#fff;fill-opacity:1;stroke:#fff;stroke-width:16.26128197;stroke-linecap:round;stroke-linejoin:round;stroke-miterlimit:1.41400003;stroke-dasharray:none;stroke-opacity:1"/>
  </g>
</svg>
