<svg xmlns="http://www.w3.org/2000/svg" viewBox="0 0 600 750" role="img" aria-labelledby="title">
  <title id="title">Verkehrszeichen Rb-75-bikelane - Bike lane</title>
  <path d="M41054.516-9049.746c21.045 0 38.1-17.06 38.1-38.1v-673.804c0-21.038-17.055-38.096-38.1-38.096h-523.8c-21.045 0-38.1 17.058-38.1 38.096v673.806c0 21.04 17.055 38.098 38.1 38.098z" style="fill:#fff;fill-opacity:1;fill-rule:evenodd;stroke:#000;stroke-width:1;stroke-miterlimit:4;stroke-dasharray:none" transform="translate(-40492.616 9799.746)"/>
  <path d="M41067.531-9087.86c0 7.236-5.865 13.1-13.1 13.1h-523.8c-7.235 0-13.1-5.864-13.1-13.102v-379.385h241.335v-307.51h295.565c7.235 0 13.1 5.863 13.1 13.099zm-13.09-701.89h-523.8c-15.52 0-28.105 12.58-28.105 28.097v673.804c0 15.517 12.585 28.097 28.105 28.097h523.8c15.515 0 28.095-12.584 28.095-28.1v-673.803c0-15.517-12.58-28.097-28.095-28.097" style="fill:#000;fill-opacity:1;fill-rule:evenodd;stroke:none;stroke-width:1.76388645" transform="translate(-40492.616 9799.746)"/>
  <path d="M40632.951-9710.935c13.965 27.176 38.94 75.777 43.31 84.277-4.37 8.504-29.345 57.111-43.31 84.294-13.935-27.196-38.84-75.808-43.185-84.294 4.345-8.482 29.25-57.088 43.185-84.277m-11.76-34.914-61.08 119.191 72.81 142.1 73.005-142.1-73.005-142.074z" style="fill:#fff;fill-opacity:1;fill-rule:evenodd;stroke:none;stroke-width:1.76388645" transform="translate(-40492.616 9799.746)"/>
  <path d="M40994.411-9555.234c-21.58 0-39.32-16.446-41.38-37.486h43.37c3.955 0 5.265-4.26 3.61-7.182-.815-1.441-10.59-18.717-20.295-35.865h.05a41.5 41.5 0 0 1 14.64-2.651c22.965 0 41.58 18.618 41.58 41.583 0 22.96-18.615 41.578-41.58 41.578m-51.575-46.942h-11.635l24.47-57.737 11.095 19.17c-13.15 8.274-22.26 22.285-23.93 38.523zm-19.65-2.298-65.405-55.958.4-1.73h88.055zm65.775 2.298h-35.82c1.525-12.541 8.63-23.084 18.76-29.623zm-117.62 5.364c0 22.96-18.615 41.578-41.58 41.578-22.96 0-41.575-18.618-41.575-41.578 0-22.965 18.615-41.583 41.575-41.583 3.425 0 6.755.415 9.94 1.196 0 0-14.5 37.996-14.97 39.255-.905 2.446.35 5.187 2.795 6.097 2.445.907 5.19-.35 6.095-2.793.905-2.445 14.56-39.466 14.56-39.466 13.725 6.793 23.16 20.94 23.16 37.294m123.07-51.856c-7 0-13.68 1.39-19.77 3.907-8.005-14.155-14.805-26.173-14.805-26.173l2.68-4.805s14.44-2.074 14.615-14.698c-13.575.255-39.865.778-39.865.778s-1.47-.085-1.9.605c-1.035 1.383.515 2.938.515 2.938l17.47 7.525-3.41 7.636-87.995-.05s.15-6.57-.78-9.165c-.25-1.903-4.06-8.13-4.06-8.13h16.905c1.78 0 3.24-1.538 3.24-3.415s-1.42-3.415-3.155-3.415h-30.74s-1.385.2-1.82 2.075c.1 1.212 0 1.035.52 1.727-.605 1.388.15 5.018 3.2 5.018 5.275 4.237 6.66 7.004 6.66 7.004s1.64 3.286.775 7.005c0 .606-9.41 25.387-9.41 25.387a51.9 51.9 0 0 0-13.505-1.778c-28.635 0-51.85 23.215-51.85 51.857 0 28.634 23.215 51.85 51.85 51.85 28.64 0 51.855-23.216 51.855-51.85 0-20.955-12.425-39.003-30.31-47.184l3.62-7.27 65.465 55.604s3.095 1.602 5.445 1.473c1.815.775 3.03.948 3.03.948h13.815c1.835 26.97 24.295 48.28 51.73 48.28 28.635 0 51.85-23.217 51.85-51.851 0-28.642-23.215-51.857-51.85-51.857M40548.806-9106.768v-152.135h90.875v24.342h-66.535v35.7h45.64v24.342h-45.64v43.407h70.39v24.344zM40748.406-9106.768l-55.58-96.15v96.15h-24.34v-152.135h22.515l55.78 97.364v-97.364h24.345v152.135zM40843.136-9234.562h-15.01v103.45h15.21c11.97 0 38.745-3.244 38.745-51.726 0-49.898-29.21-51.724-38.945-51.724m6.285 127.793h-45.64v-152.134h47.67c26.17 0 56.19 21.704 56.19 76.066 0 47.061-23.53 76.068-58.22 76.068M40984.316-9104.74c-44.02 0-54.77-39.962-54.77-39.962s24.345-8.52 24.14-8.52c0 0 4.87 23.53 30.63 23.53 12.78 0 25.155-8.316 25.155-22.312 0-22.312-30.43-22.11-46.455-26.37-12.98-3.652-25.76-19.676-25.76-36.716 0-22.513 18.46-45.843 46.855-45.843 35.095 0 45.845 32.862 45.845 32.862l-24.545 7.507s-4.665-15.418-21.3-15.418c-11.355 0-21.7 9.533-21.7 19.067 0 18.055 18.255 15.416 37.725 20.893 25.965 7.1 34.89 30.224 34.89 44.018 0 27.181-22.31 47.263-50.71 47.263" style="fill:#000;fill-opacity:1;fill-rule:evenodd;stroke:none;stroke-width:1.76388645" transform="translate(-40492.616 9799.746)"/>
</svg>
