<svg xmlns="http://www.w3.org/2000/svg" xml:space="preserve" viewBox="-.512 -.12 490.094 814.25" role="img" aria-labelledby="title">
  <title id="title">Verkehrszeichen Rb-87 - Rb-87</title>
  <path d="M488.262 1.144H.728l.08 811.746h487.534L488.26 1.144z" style="fill:#fff;fill-opacity:1;fill-rule:nonzero;stroke:#000;stroke-width:2.5;stroke-linecap:butt;stroke-linejoin:miter;stroke-miterlimit:4;stroke-opacity:1;stroke-dasharray:none"/>
  <path d="M479.317 9.092H8.84L9 804.942h470.474z" style="fill:#000;fill-opacity:1;fill-rule:nonzero;stroke:none"/>
  <path d="m227.875 20.28-.086 283.567-208.754.042-.145 490.302H468.5V20.281H227.876" style="fill:#fff;fill-opacity:1;fill-rule:nonzero;stroke:none"/>
  <path d="M127.187 283.06 64.112 156.616l63.346-125.312 63.308 125.594z" style="fill:#fff;fill-opacity:1;fill-rule:nonzero;stroke:none"/>
  <path d="m127.316 87.694 36.96 69.78-37.037 69.997-34.705-70.623zM267.343 676.816h-40.072v34.1s-52.331-11.688-58.736-10.813c-5.406.736-3.44 6.631-3.44 6.631l77.165 76.175c2.351 2.369 3.953 3.105 5.047 3.042 1.094.063 2.695-.673 5.047-3.042l77.164-76.175s1.966-5.895-3.439-6.63c-6.409-.876-58.736 10.813-58.736 10.813zM306.912 28.68c-3.554.68-5.614 3.245-6.461 5.54l-8.539 53.742c-.247 2.793.148 5.28.622 7.972l8.035 22.697c1.712 3.084 5.068 5.3 8.434 5.964v6.965h10.667l-.044-7.562h64.006v7.155h11.818v-7.194c5.064-.955 10.077-4.599 12.203-9.556l8.059-20.71c.358-2.508.688-5.158.521-7.756l-7.82-48.792c-.486-5.14-3.789-8.461-8.458-8.461l-93.042-.002" style="fill:#000;fill-opacity:1;fill-rule:nonzero;stroke:none"/>
  <path d="M395.07 87.427v-.002a4.517 4.517 0 0 0 4.52-4.52l-3.742-24.763v.034c0-2.497-2.088-4.55-4.581-4.55h-74.455c-2.498 0-4.582 2.053-4.582 4.55v-.034l-3.741 24.764a4.516 4.516 0 0 0 4.516 4.519v.002h82.058M313.196 106.841a4.315 4.315 0 0 0 4.314-4.318 4.314 4.314 0 1 0-8.629 0 4.315 4.315 0 0 0 4.315 4.318M389.286 106.841a4.317 4.317 0 1 0 0-8.632 4.315 4.315 0 1 0 0 8.632M322.39 38.167h64.208v3.195H322.39z" style="fill:#fff;fill-opacity:1;fill-rule:nonzero;stroke:none"/>
  <path d="M388.56 212.976v6.214h12.794v-6.183h7.788l1.765-8.646-6.371-3.547 3.352-18.56-13.659-30.12h-28.671l4.554-7.25-12.207-8.246.028.032-12.206 8.246 4.554 7.243h-28.654l-13.659 30.151 3.352 18.56-6.374 3.543 1.768 8.65h7.788v6.18h12.793v-6.215l61.272-.052" style="fill:#000;fill-opacity:1;fill-rule:nonzero;stroke:none"/>
  <path d="M374.204 194.892h3.588l-5.068-12.623 6.256-14.183h-3.679l-4.411 9.677-3.974-9.705-3.491.006 5.558 14.016-5.447 12.887h3.654l3.94-8.152 3.074 8.076M385.139 168.02l.028 26.823h3.626V168.02h-3.644M347.651 168.044l-6.079 26.834h3.647l1.303-5.297h5.21l1.39 5.123h3.56l-6.6-26.66zm1.476 11.116 1.737 7.12h-3.3zM336.73 171.952v-3.88l-14.221-.07-.06 3.915h5.103v22.947h3.89v-22.912h5.298" style="fill:#fff;fill-opacity:1;fill-rule:nonzero;stroke:none"/>
  <path d="M131.759 584.034v65.471h-10.255l-.012-37.467-.028-.019-15.01 37.488-15.228-37.63-.038 37.63H80.83v-65.472h10.316l15.212 37.634 15.086-37.634h10.306M183.697 591.179c2.397 3.234 3.439 7.024 4.335 10.873.465 2.153.858 4.335 1.122 6.568l.417 5.457c.361 7.215-.577 14.065-2.286 20.513-1.184 4.24-3.355 8.225-7.103 11.254-3.63 2.88-7.74 4.596-12.419 4.95-5.64.122-10.56-1.615-14.815-4.901-2.466-2.029-3.991-4.648-5.367-7.222-2.838-6.124-3.505-13.176-3.727-20.349l.028-5.627c.15-4.488.806-8.834 1.869-12.974a39.2 39.2 0 0 1 2.91-7.125c2.345-3.849 6.215-7.426 10.377-8.729 3.536-1.324 8.013-1.91 11.883-.9 4.981.99 9.55 3.776 12.783 8.212zm-17.337 1.264c-1.841.143-3.581.556-5.096 1.487-3.515 1.838-5.165 5.475-5.923 8.973-1.556 7.173-1.99 15.69-.747 23.159.74 3.817 1.244 7.75 3.71 10.862 1.032 1.25 2.425 2.119 3.78 2.838 2.556 1.26 6.152 1.26 8.76.09 2.578-.98 5.155-3.345 6.034-6.013 1.424-3.637 2.001-7.638 2.425-11.689l.292-5.162c-.031-5.203-.595-10.247-1.939-14.936-.476-1.97-1.354-3.776-2.567-5.437-2.216-2.765-5.224-4.22-8.729-4.172M212.403 584.034l23.517 41.757-.042-41.757h10.307v65.471h-8.73l-25.274-44.55-.028-.019v44.57l-10.178.001v-65.472h10.428M252.722 620.031h23.062v10.227h-23.062zM294.243 610.753h19.04v10.168l-18.998.038v28.547h-10.46v-65.472h40.08v10.233h-29.662zM374.79 649.505l-10.941-.104-10.672-28.581-12.29-.01v28.695H330.48v-65.472h24.959c6.721.303 13.238 4.221 16.27 10.474 1.828 3.942 2.203 9.247.9 13.55-.746 3.134-2.657 5.881-5.315 8.104-1.184 1.133-2.566 1.769-3.852 2.647zm-33.951-39.144.05.083h14.694c2.223.22 3.89-1.122 5.353-2.529 2.143-2.24 2.75-5.728 1.73-8.677-1-2.376-3.436-4.679-6.041-5.023l-15.785-.002v16.15M387.775 584.034h10.338v65.471h-10.338zM112.674 429.497c-1.796 2.456-7.906 9.18-12.48 22.693-3.756 11.102-3.756 19.825-3.63 22.954l-8.459.025c.32-1.82-.618-10.282 3.408-22.978 4.342-13.686 6.968-16.316 10.747-22.742l-26.09.048v-8.41h36.504zM227.066 450.822h19.05v8.448h-19.05zM279.692 469.013a47 47 0 0 0 8.111-7.093c2.79-3.23 5.085-6.67 6.513-10.476-.451.076-.893.316-1.344.458-3.814 1.112-8.657.952-12.28-.56-2.445-.902-4.717-2.344-6.687-4.307-3.195-3.303-4.765-7.336-4.532-12.06.41-5.332 3.8-10.29 8.614-12.936 4.332-2.612 10.501-3.154 15.51-1.619 3.474 1.053 6.67 3.154 9.157 6.225 1.594 2.07 2.605 4.373 2.98 6.954.577 3.12.344 6.336-.256 9.372-1.295 7.722-4.15 14.798-8.757 21.151a61.3 61.3 0 0 1-8.673 8.98c-1.168.927-2.345 1.844-3.589 2.619l-4.766-6.708zm8.028-24.986c5.346 0 9.68-3.567 9.68-7.965 0-4.401-4.334-7.969-9.68-7.969s-9.681 3.568-9.681 7.97c0 4.397 4.335 7.964 9.68 7.964M144.024 431.727l15.121 43.81H151.9l-4.464-12.634h-13.56l-4.399 12.634h-7.239l14.972-43.81zm-3.425 11.24-4.432 13.037h8.885zM197.929 431.727v43.81h-6.861v-25.07l-.028-.013-10.039 25.083-10.188-25.177-.028 25.177h-6.93v-43.81h6.902l10.174 25.184 10.095-25.184h6.899M348.592 431.727l15.121 43.81h-7.246L352 462.903h-13.558l-4.398 12.634h-7.239l14.972-43.81zm-3.425 11.24-4.432 13.037h8.885zM402.497 431.727v43.81h-6.86v-25.07l-.028-.013-10.042 25.083-10.188-25.177-.027 25.177h-6.93v-43.81h6.902l10.174 25.184 10.095-25.184h6.898M106.943 542.832l-.014 13.482h-8.514l.014-13.38-26.386-.015v-5.176l26.188-35.514h8.615v32.934l5.19-.008v7.694zm-23.545-7.593H98.29v-20.106zM227.726 531.967h19.046v8.448h-19.046zM296.508 508.196c-4.273 3.224-8.781 7.247-11.62 11.804-1.208 1.876-2.337 3.797-3.119 5.85.448-.132.917-.358 1.376-.525 2.654-.802 5.884-1.018 8.715-.434 4.356.743 8.18 2.946 11.317 6.444 2.582 3.23 3.891 7.027 3.467 11.442-.552 4.589-3.123 8.77-7.072 11.536-3.981 2.751-8.89 3.877-14.04 3.203-3.756-.5-7.077-2.019-9.974-4.582-2.195-1.994-3.824-4.297-4.592-6.913-1.136-3.21-.986-7.2-.444-10.64.927-5.658 2.348-11.108 5.068-16.024 2.605-5.009 6.335-9.674 10.903-13.738 1.678-1.476 3.412-2.82 5.166-4.13zm-4.266 25.626c-2.47-.97-5.749-.886-8.152.16-2.765 1.059-5.204 3.852-5.412 6.85.084 3.004 1.945 5.967 4.769 7.152 2.876 1.31 6.916 1.504 9.841.142 2.154-.885 4.04-3.053 4.523-5.29.802-3.14-.619-6.037-3.189-7.854-.768-.452-1.553-.861-2.38-1.16zM139.637 556.713h-7.03v-43.806h18.816c2.55.118 4.62 1.41 6.586 2.938 2.157 1.845 3.328 4.21 3.964 6.746.622 2.738.147 5.715-.973 8.066-.427.907-.927 1.772-1.626 2.564-1.959 2.074-4.252 3.616-6.916 4.137-.83.15-1.744.121-2.63.15l-10.201.013.012 19.192zm-.031-26.042h10.615c.556-.02 1.102-.066 1.609-.208 1.928-.556 3.171-2.616 3.47-4.464.31-2.324-.542-4.575-2.647-5.676-.552-.299-1.181-.441-1.796-.535l-11.265.006zM200.631 512.907v43.806h-6.864v-25.07l-.028-.013-10.042 25.083-10.189-25.177-.028 25.177h-6.93v-43.806h6.902l10.178 25.18 10.095-25.18h6.895M334.496 556.713h-7.03v-43.806h18.816c2.55.118 4.62 1.41 6.587 2.938 2.156 1.845 3.327 4.21 3.963 6.746.622 2.738.147 5.715-.973 8.066-.427.907-.927 1.772-1.625 2.564-1.96 2.074-4.252 3.616-6.917 4.137-.83.15-1.743.121-2.63.15l-10.201.013v19.192zm-.03-26.042h10.615c.552-.02 1.101-.066 1.608-.208 1.928-.556 3.171-2.616 3.47-4.464.31-2.324-.542-4.575-2.647-5.676-.552-.299-1.18-.441-1.796-.535l-11.265.006v10.876M395.49 512.907v43.806h-6.864v-25.07l-.028-.013-10.042 25.083-10.188-25.177-.027 25.177h-6.93v-43.806h6.902l10.178 25.18 10.094-25.18h6.895M327.33 230.223s-9.233 1.973-14.242 9.639c-3.56 5.45-5.124 15.197-5.124 15.197v41.858h8.945v14.59h13.808v-14.59h57.142v14.59h13.808v-14.59h8.944V255.06s-1.476-9.747-5.037-15.197c-5.009-7.666-14.242-9.64-14.242-9.64z" style="fill:#000;fill-opacity:1;fill-rule:nonzero;stroke:none"/>
  <path d="M326.809 238.386s-2.265.528-5.384 4.516c0 0-2.164 3.504-3.648 5.731-2.296 3.439-2.518 8.424-2.518 8.424v12.765h88.057v-12.765s-.138-4.985-2.431-8.424c-1.483-2.227-3.647-5.731-3.647-5.731-3.12-3.988-5.385-4.516-5.385-4.516zM326.055 288.094a3.322 3.322 0 1 0 0-6.645 3.327 3.327 0 0 0-3.324 3.324c0 1.834 1.49 3.321 3.324 3.321M392.555 288.094a3.324 3.324 0 1 1 .006-6.643 3.324 3.324 0 0 1-.006 6.643" style="fill:#fff;fill-opacity:1;fill-rule:nonzero;stroke:none"/>
  <path d="M374.17 256.369c-.126-.99-1.728-1.754-1.728-1.754-1.91-.362-4.185-.414-4.786-.817-.744-.496-1.404-1.153-1.404-1.153s.192-.32.303-.528a8.162 8.162 0 0 0-7.177-12.05 8.16 8.16 0 0 0-8.163 8.16c0 1.643.497 3.164 1.33 4.442-.075.073-.677.664-1.375 1.13-.601.402-2.877.454-4.787.816 0 0-1.605.764-1.726 1.754-.173 1.372-.125 2.845-.125 2.845h29.758s.048-1.473-.122-2.845M400.78 265.109c-.122-.99-1.726-1.754-1.726-1.754-1.91-.362-4.185-.417-4.786-.817-.744-.497-1.404-1.157-1.404-1.157s.192-.316.306-.524a8.15 8.15 0 0 0 .983-3.89 8.16 8.16 0 0 0-8.163-8.16 8.16 8.16 0 0 0-8.163 8.16c0 1.642.497 3.164 1.33 4.442-.073.073-.677.664-1.375 1.13-.601.399-2.877.454-4.787.816 0 0-1.602.764-1.727 1.754-.17 1.372-.125 2.845-.125 2.845h29.763s.05-1.473-.125-2.845M347.325 265.109c-.126-.99-1.73-1.754-1.73-1.754-1.908-.362-4.183-.417-4.787-.817-.74-.497-1.4-1.157-1.4-1.157s.186-.316.302-.524a8.1 8.1 0 0 0 .983-3.89 8.162 8.162 0 0 0-16.323 0c0 1.642.494 3.164 1.327 4.442a10.4 10.4 0 0 1-1.372 1.13c-.604.399-2.88.454-4.787.816 0 0-1.604.764-1.73 1.754-.169 1.372-.122 2.845-.122 2.845h29.76s.05-1.473-.123-2.845M354.077 328.528l-15.458.086c-1.73.47-2.376.966-3.3 4.342l-9.9 24.403c-8.868-3.828-17.201-2.262-24.315 2.866a25.78 25.78 0 0 0-11.116 21.536c-.208 10.251 6.409 19.453 15.718 23.448 5.298 2.324 11.324 2.466 17.021 1.129 8.803-1.793 16.476-10.362 18.671-18.845 2.421-10-2.494-20.63-11.376-27.268l.782-1.91 29.092 25.878v.087c-.316.816-.522 1.625-.522 2.431 0 3.662 2.29 6.166 5.906 6.513l.172.782-.868.174.347 1.823 4.342-.781-.347-1.824-.869.174-.086-.608c2.328-.691 3.637-1.48 4.082-3.908l4.168-.695c.778 2.737 1.633 4.721 3.127 7.121 5.307 8.771 15.103 13.044 25.01 12.245 9.619-.903 18.654-8.205 21.71-17.282 3.512-9.733.407-21.179-7.468-27.876-7.586-6.631-19.803-8.236-28.918-3.647l-6.687-10.334 1.39-3.908c1.19-.31 2.768.205 3.734-.608.57-.521.656-1.185.608-1.91-.306-.72-1.116-.973-1.737-1.216l-15.198-.695-.434.347c-.21.403-.075.733 0 1.13 2.105 2.024 4.936 2.32 7.729 2.518.664.423-.228 2.278-.434 2.865l-42.813-1.563 3.908-9.64c.097-.722.323-1.451 1.042-2.17h13.2l.086-5.21zm-19.973 21.536 43.507 1.477-11.376 28.484-.868.087-.348-1.998 1.042-.347-.434-1.737s-3.963.962-3.995.955l.435 1.737 1.302-.174.521 1.998c-.406.083-.77.173-1.128.347L332.28 354.58zm46.981 3.735 4.776 7.468c-6.6 5.374-10.435 14.527-10.42 22.926l-3.3.348c-.522-.862-1.849-2.759-2.693-3.3zm-64.437 8.944a16.2 16.2 0 0 1 4.082.608c.656.278 1.792.323 2.345.782l-7.469 12.505c-1.768.43-3.553 1.403-4.168 3.3-.136.434-.044 1.021-.434 1.39.514.354.067 1.15.434 1.65.646 1.656 2.41 3.098 4.082 3.213 2.104.215 3.845-1.011 4.863-2.693.597-.99.625-2.532.172-3.647l7.295-13.026c1.688 1.021 2.966 3.189 4.081 4.69 3.73 5.797 3.762 14.474-.261 20.233-3.314 4.92-8.691 7.938-14.59 8.337-7.867.532-15.586-4.505-18.497-11.115-.795-1.908-1.949-4.026-1.737-6.166-.719-5.027 1.428-11.45 7.73-16.24 3.376-2.506 7.83-3.914 12.07-3.82zm83.542.434c6.78-.327 13.68 2.894 17.456 8.772 3.838 5.832 3.897 14.63-.086 20.32-4.124 6.156-11.11 9.435-18.585 8.598-5.811-.872-11.477-4.38-14.329-9.9-.712-1.33-.962-2.296-1.39-3.734l13.982-2.171c1.48-.067 2.557 1.653 4.256 1.476a4.81 4.81 0 0 0 3.994-2.258c.803-1.462 1.039-3.519 0-4.95-.747-1.07-1.952-2.108-3.82-1.91l-8.077-12.68a18.8 18.8 0 0 1 6.6-1.563zm-10.508 4.082 7.816 12.158-.608 1.39-14.242 2.344c-.208-5.575 2.32-12.363 7.034-15.892m-23.968 15.632-.782 1.302-1.128-.781c.57-.313 1.212-.521 1.91-.521m2.432.868c.5.365.924.83 1.215 1.39h-1.736zm-6.427 3.3 3.3 2.171-.086 1.737c-1.84-.375-3.213-1.96-3.213-3.908zm5.732 1.997 1.65.26a3.97 3.97 0 0 1-1.65 1.39z" style="fill:#000;fill-opacity:1;fill-rule:nonzero;stroke:none"/>
</svg>
