<svg xmlns="http://www.w3.org/2000/svg" viewBox="0 0 600 900" role="img" aria-labelledby="title">
  <title id="title">Verkehrszeichen Rc-6 - Rc-6</title>
  <path d="M46631.659-14892.294h549.868c13.783 0 25.066 11.194 25.066 24.885v850.23c0 13.683-11.283 24.885-25.066 24.885h-549.868c-13.791 0-25.066-11.202-25.066-24.885v-850.23c0-13.691 11.275-24.885 25.066-24.885z" style="fill:#fff;stroke:#000;stroke-width:1;stroke-linecap:butt;stroke-linejoin:miter;stroke-miterlimit:22.9260006;stroke-dasharray:none;stroke-opacity:1" transform="translate(-46606.593 14892.294)"/>
  <path d="M46643.192-14878.043c-12.434 0-22.497 10.064-22.497 22.549v827.189c0 12.423 10.063 22.481 22.497 22.481h525.915c12.405 0 22.498-10.058 22.498-22.481v-827.189c0-12.485-10.093-22.549-22.498-22.549z" style="fill:#000;fill-opacity:1;fill-rule:evenodd;stroke:none;stroke-width:2.67439413" transform="translate(-46606.593 14892.294)"/>
  <path d="M47016.58-14120.046c-1.75-30.482 16.905-70.399 41.411-88.579 87.118-72.651 98.871-202.3 26.256-289.437-6.289-8.002-19.853-21.457-27.893-27.669-22.869-16.564-40.289-53.319-38.675-81.562v-93.874l34.364 6.099c5.433.918 10.623-2.7 11.578-8.168.606-2.42-.227-5.985-1.894-7.821l-78.677-102.609c-3.365-4.437-9.654-5.241-14.049-1.851-.606.38-1.432 1.267-1.834 1.851l-78.677 102.609c-3.364 4.369-2.523 10.695 1.872 14.032 1.857 1.616 5.403 2.48 7.812 1.957l34.372-6.099v129.134h-134.334l6.093-34.343c.924-5.461-2.698-10.693-8.161-11.611-2.41-.608-5.949.303-7.82 1.895l-102.524 78.742c-4.387 3.337-5.228 9.671-1.833 14.032.379.606 1.258 1.501 1.833 1.842l102.524 78.75c4.364 3.39 10.692 2.586 14.026-1.843 1.644-1.904 2.5-5.408 1.955-7.827l-6.093-34.396h128.325c31.772-1.836 73.38 17.664 92.316 43.254 42.495 51.021 35.63 126.895-15.367 169.459-42.638 31.574-75.077 101.01-72.069 154.033v50.906h85.163z" style="fill:#fff;fill-opacity:1;fill-rule:evenodd;stroke:none;stroke-width:2.67439413" transform="translate(-46606.593 14892.294)"/>
</svg>
