<svg xmlns="http://www.w3.org/2000/svg" viewBox="0 0 906 1206" role="img" aria-labelledby="title">
  <title id="title">Verkehrszeichen Rb-33 - Keep right except to pass</title>
  <path d="M1-908h904V296H1z" style="fill:#000;fill-opacity:1;stroke:none;stroke-width:418.73287964;stroke-linecap:round;stroke-linejoin:round;stroke-miterlimit:1.41400003;stroke-dasharray:none;stroke-opacity:1" transform="translate(0 909)"/>
  <path d="M3-906h900V294H3z" style="fill:#fff;fill-opacity:1;stroke:none;stroke-width:417.11087036;stroke-linecap:round;stroke-linejoin:round;stroke-miterlimit:1.41400003;stroke-dasharray:none;stroke-opacity:1" transform="translate(0 909)"/>
  <path d="M28-881h850V269H28z" style="fill:#000;fill-opacity:1;stroke:none;stroke-width:396.82406616;stroke-linecap:round;stroke-linejoin:round;stroke-miterlimit:1.41400003;stroke-dasharray:none;stroke-opacity:1" transform="translate(0 909)"/>
  <path d="M53-856h800V244H53z" style="fill:#fff;fill-opacity:1;stroke:none;stroke-width:376.51385498;stroke-linecap:round;stroke-linejoin:round;stroke-miterlimit:1.41400003;stroke-dasharray:none;stroke-opacity:1" transform="translate(0 909)"/>
  <path d="M243.944-230.702h-55.977l-.065 35.837h38.51v22.414h-38.363v40.356h60.535v22.59H167v-143.526h76.921v22.329M290.968-183.816l-30.767-69.215h22.837l19.415 43.058 20.009-43.058h22.766l-31.04 69.264 33.434 74.261H324.57l-21.907-48.37-21.587 48.37h-23.01zM427.385-217.109c-2.408-7.263-8.825-14.574-15.938-16.168-6.626-1.95-14.082-.4-19.234 4.362-7.603 7.663-10.647 17.585-12.895 27.756-3.002 12.4-1.878 27-.393 39.714 1.474 8.705 3.987 16.744 8.685 23.965 6.012 8.13 15.82 11.14 25.022 8.08 5.41-1.901 10.36-6.711 13.565-12.115l1.577-2.653 18.885 8.438c-1.291 3.962-3.518 7.488-5.746 11.007-6.946 10.874-17.858 16.344-29.182 18.294-8.28 1.351-16.497-.666-23.73-3.61-7.728-3.453-15.673-9.898-19.861-18.294-4.253-8.305-7.177-17.234-9.223-26.533-2.367-11.806-2.409-24.679-2.06-37.303 1.753-17.12 5.983-33.111 15.492-46.735 4.922-6.47 11.128-11.153 17.705-13.987 7.966-3.43 18.347-4.041 27.032-1.739 4.677 1.284 9.195 3.06 13.14 6.27 7.825 5.512 13.634 14.26 16.245 23.28l.19 1.175zM540.26-230.702h-55.976l-.066 35.837h38.503v22.414h-38.363v40.356h60.535v22.59H463.31v-143.526h76.928v22.329M583.245-109.506h-21.252V-253.03h56.878c7.707.4 13.963 4.628 19.904 9.638 6.52 6.046 10.06 13.793 11.98 22.105 1.878 8.965.445 18.712-2.946 26.423-1.285 2.968-2.8 5.803-4.9 8.39-5.928 6.803-12.86 11.855-20.91 13.557-2.514.491-5.271.4-7.952.491l-30.837.046.065 62.879zm-.098-85.316h32.086c1.676-.067 3.33-.224 4.866-.685 5.823-1.817 9.586-8.572 10.487-14.623.935-7.615-1.641-14.993-7.994-18.603-1.675-.976-3.582-1.442-5.439-1.751l-34.048.026.065 35.638M688.03-233.095h-30.021v-19.936H739v19.936h-29.678v123.59h-21.293z" style="fill:#000;fill-opacity:1;fill-rule:nonzero;stroke:none;stroke-width:1.73163414" transform="translate(0 909)"/>
  <path d="M133.063 17.414H103V-2.54h81.097v19.954h-29.714v123.747h-21.32zM272.947 13.15c4.85 7.097 6.954 15.412 8.779 23.86.944 4.725 1.74 9.517 2.271 14.417l.839 11.973c.734 15.836-1.167 30.871-4.627 45.021-2.39 9.316-6.795 18.05-14.385 24.703-7.347 6.32-15.672 10.087-25.15 10.863-11.415.267-21.383-3.542-29.994-10.754-4.998-4.457-8.08-10.195-10.87-15.854-5.745-13.44-7.094-28.918-7.549-44.663l.065-12.355a143 143 0 0 1 3.79-28.47 89.6 89.6 0 0 1 5.892-15.635c4.746-8.449 12.582-16.303 21.012-19.16 7.164-2.905 16.23-4.19 24.066-1.977C257.173-2.71 266.42 3.41 272.97 13.151zm-35.111 2.772c-3.726.31-7.248 1.22-10.317 3.257-7.116 4.04-10.457 12.021-11.988 19.694-3.152 15.745-4.034 34.443-1.517 50.831 1.496 8.382 2.516 17.007 7.507 23.842 2.09 2.748 4.914 4.652 7.654 6.229 5.18 2.772 12.463 2.772 17.74.2 5.222-2.153 10.437-7.345 12.219-13.198 2.887-7.981 4.054-16.764 4.907-25.655l.603-11.336c-.065-11.42-1.21-22.483-3.935-32.776-.958-4.324-2.74-8.29-5.194-11.93-4.48-6.077-10.583-9.267-17.678-9.158" style="fill:#000;fill-opacity:1;fill-rule:nonzero;stroke:none;stroke-width:1.73375142" transform="translate(0 909)"/>
  <path d="M430.816 141.048h-21.305V-2.838h57.021c7.727.394 13.99 4.634 19.954 9.656 6.537 6.06 10.085 13.828 12.01 22.16 1.883 8.988.446 18.76-2.954 26.49-1.288 2.976-2.806 5.818-4.913 8.411-5.942 6.82-12.892 11.885-20.961 13.592-2.52.492-5.285.4-7.972.492l-30.915.046.066 63.043zm-.099-85.537h32.168c1.68-.066 3.339-.225 4.878-.686 5.837-1.822 9.61-8.594 10.513-14.66.937-7.634-1.645-15.031-8.014-18.65-1.68-.978-3.59-1.446-5.452-1.756l-34.134.027.065 35.727M556.965-2.838l45.823 143.886h-21.963l-13.53-41.49h-41.09l-13.326 41.49h-21.942L536.311-2.838Zm-10.379 36.911-13.431 42.82h26.925zM627.949 98.258c1.694 4.063 3.276 8.278 6.222 11.812 5.165 6.462 11.723 10.148 19.1 11.26 3.584.485 7.496.594 10.758-.912 7.026-2.975 12.787-11.034 12.99-19.3.347-8.726-4.389-16.342-11.129-20.939-2.827-1.931-6.005-2.976-9.344-3.62l-9.98-1.554c-8.399-1.288-16.041-4.53-22.41-11.126-4.263-4.773-7.196-10.166-8.61-16.208-2.477-8.15-1.7-17.873 1.414-25.422 3.836-10.148 12.36-20.72 22.047-24.717 6.726-3.334 15.146-4.42 22.908-2.775 3.975.911 7.867 2.065 11.415 4.112 5.88 3.085 11.346 8.653 15.384 14.654a52.8 52.8 0 0 1 4.962 11.763l-19.464 7.196c-1.848-4.749-4.22-10.08-8.959-12.674-5.71-4.178-14.851-3.893-20.59 0-6.412 3.972-9.687 11.502-9.26 19.336.184 4.755 3.114 9.486 7.237 11.235a31.6 31.6 0 0 0 5.955 1.713l11.15 2.24c10.695 2.648 21.165 6.845 28.479 17.278 6.292 8.636 10.12 18.431 9.63 30.043-.203 7.84-2.582 14.703-5.739 21.207-1.246 2.198-2.582 4.372-4.178 6.394-6.761 7.306-14.544 13.19-23.908 14.345-8.98 1.196-17.624-.377-25.33-3.462-7.867-3.376-15.285-9.152-20.996-16.9-4.039-5.685-7.049-11.855-9.484-18.274zM733.052 98.258c1.7 4.063 3.276 8.278 6.23 11.812 5.158 6.462 11.716 10.148 19.093 11.26 3.583.485 7.495.594 10.757-.912 7.027-2.975 12.787-11.034 12.99-19.3.348-8.726-4.389-16.342-11.128-20.939-2.828-1.931-5.999-2.976-9.344-3.62l-9.973-1.554c-8.406-1.288-16.042-4.53-22.418-11.126-4.263-4.773-7.188-10.166-8.602-16.208-2.484-8.15-1.7-17.873 1.414-25.422 3.828-10.148 12.353-20.72 22.047-24.717 6.718-3.334 15.138-4.42 22.9-2.775 3.976.911 7.867 2.065 11.416 4.112 5.878 3.085 11.352 8.653 15.383 14.654a52.7 52.7 0 0 1 4.962 11.763l-19.464 7.196c-1.847-4.749-4.22-10.08-8.951-12.674-5.718-4.178-14.86-3.893-20.591 0-6.418 3.972-9.694 11.502-9.267 19.336.19 4.755 3.115 9.486 7.237 11.235a31.5 31.5 0 0 0 5.963 1.713l11.143 2.24c10.694 2.648 21.165 6.845 28.479 17.278 6.292 8.636 10.12 18.431 9.63 30.043-.203 7.84-2.582 14.703-5.739 21.207-1.246 2.198-2.576 4.372-4.179 6.394-6.76 7.306-14.543 13.19-23.908 14.345-8.973 1.196-17.624-.377-25.322-3.462-7.867-3.376-15.286-9.152-21.004-16.9-4.039-5.685-7.048-11.855-9.484-18.274z" style="fill:#000;fill-opacity:1;fill-rule:nonzero;stroke:none;stroke-width:1.73599064" transform="translate(0 909)"/>
  <path d="m326.733-606.002-25.616-70.874-13.786 23.986v46.888H265.3V-756h22.031v59.047L321.415-756h25.073l-30.393 53.074 34.842 96.924zM368.7-606.002V-756h75.218v21.922h-53.183v37.012h32.45v21.926h-32.45v47.216h54.051v21.922zM462.695-606.002V-756h75.218v21.922h-53.187v37.012h32.454v21.926h-32.454v47.216h54.055v21.922zM618.447-714.596q-.001-3.482-.97-6.965-.981-3.482-3.088-6.26c-1.408-1.845-3.228-3.355-5.465-4.512-2.24-1.157-4.979-1.743-8.229-1.743h-21.97v41.677h19.049c3.61 0 6.732-.395 9.364-1.196 2.632-.794 4.778-2.068 6.44-3.807q2.488-2.616 3.68-6.856c.797-2.83 1.189-6.277 1.189-10.338m22.253-.05c0 6.228-.67 11.633-2.008 16.227q-2.005 6.895-5.253 11.83c-2.167 3.296-4.622 5.97-7.367 8.035-2.746 2.06-5.494 3.69-8.236 4.883-2.745 1.196-5.38 2.025-7.907 2.498q-3.793.705-6.506.706h-24.699V-606H556.69v-149.998h47.107q9.442 0 16.386 4.125 6.95 4.127 11.51 10.366 4.557 6.238 6.78 13.46c1.483 4.813 2.227 9.277 2.227 13.401" style="fill:#000;fill-opacity:1;fill-rule:nonzero;stroke:none;stroke-width:3.52837229" transform="translate(0 909)"/>
  <path d="M305.047-463.664q0-3.387-.74-6.783c-.49-2.261-1.37-4.296-2.635-6.096q-1.897-2.701-5.165-4.399c-2.179-1.127-4.955-1.697-8.326-1.697h-21.824v36.68h19.082c7.027 0 12.051-1.533 15.075-4.609q4.531-4.612 4.532-13.096m21.67-.058c0 4.862-.598 9.216-1.797 13.054-1.2 3.842-2.8 7.207-4.808 10.1-2.01 2.886-4.302 5.323-6.872 7.292-2.574 1.972-5.234 3.56-7.98 4.756l21.034 70.61h-22.728l-20.343-66.7h-16.865v66.7H244.9v-146.083h46.72q8.142-.001 14.643 3.327 6.502 3.329 11.044 8.88c3.031 3.7 5.354 7.982 6.98 12.844q2.428 7.293 2.43 15.22M344.265-503.991h21.46v146.086h-21.46zM463.24-380.175q-2.698 6.654-7.612 12.034c-3.278 3.591-7.261 6.509-11.945 8.763q-7.031 3.376-15.697 3.378-9.725 0-16.756-3.333-7.031-3.327-11.893-9.034-4.862-5.711-7.766-13.268-2.914-7.556-4.44-15.962a144 144 0 0 1-2.065-17.23 285 285 0 0 1-.526-17.075c0-5.423.172-11.044.526-16.859q.53-8.717 2.169-16.913 1.638-8.191 4.597-15.536 2.96-7.35 7.77-12.849c3.206-3.66 7.137-6.57 11.787-8.718q6.978-3.222 16.597-3.223c4.863 0 9.158.67 12.897 2.01q5.602 2.003 9.828 5.23c2.818 2.152 5.199 4.598 7.137 7.347s3.502 5.567 4.704 8.457c1.196 2.894 2.059 5.708 2.591 8.457q.79 4.125.79 7.295h-21.841q-.743-4.89-2.64-8.721a27 27 0 0 0-2.006-3.192c-.77-1.066-1.705-2-2.794-2.818-1.093-.818-2.34-1.471-3.746-1.97q-2.112-.741-4.855-.741c-3.165 0-5.928.755-8.282 2.274q-3.537 2.275-5.965 6.19-2.424 3.912-3.955 9.099-1.53 5.185-2.375 11.061-.845 5.866-1.161 12.007-.316 6.14-.317 12.061 0 5.824.317 12.169.319 6.35 1.158 12.38.845 6.03 2.374 11.482c1.017 3.635 2.337 6.82 3.952 9.573 1.619 2.753 3.601 4.942 5.959 6.564q3.527 2.431 8.274 2.43c3.02 0 5.588-.667 7.694-2.008 2.107-1.333 3.815-3.027 5.114-5.072a21.6 21.6 0 0 0 2.793-6.608q.845-3.538.846-6.501v-11.203h-16.068V-430.1h37.524v36.73c0 4.365-.9 8.767-2.694 13.196M547.54-357.906v-65.854h-39.112v65.854h-21.46v-146.086h21.46v58.879h38.9v-58.879h21.463v146.086zM634.256-483.695v125.788h-21.46v-125.788h-26.639v-20.295H661.1v20.295z" style="fill:#000;fill-opacity:1;fill-rule:nonzero;stroke:none;stroke-width:3.43634677" transform="translate(0 909)"/>
</svg>
