<svg xmlns="http://www.w3.org/2000/svg" viewBox="0 0 600 900" role="img" aria-labelledby="title">
  <title id="title">Verkehrszeichen Rc-5 - Rc-5</title>
  <path d="M45592.454-14446.977h558.524c11.407 0 20.738 9.277 20.738 20.619v858.762c0 11.342-9.331 20.619-20.738 20.619h-558.524c-11.407 0-20.738-9.277-20.738-20.619v-858.762c0-11.342 9.331-20.619 20.738-20.619z" style="fill:#fff;stroke:#000;stroke-width:1;stroke-linecap:butt;stroke-linejoin:miter;stroke-miterlimit:22.9260006;stroke-dasharray:none;stroke-opacity:1" transform="translate(-45571.716 14446.977)"/>
  <path d="M45605.535-14433.32c-12.516 0-22.672 10.106-22.672 22.55v828.052c0 12.459 10.156 22.557 22.672 22.557h529.973c12.531 0 22.688-10.098 22.688-22.557v-828.052c0-12.444-10.157-22.55-22.688-22.55z" style="fill:#000;fill-opacity:1;fill-rule:evenodd;stroke:none;stroke-width:2.6174612" transform="translate(-45571.716 14446.977)"/>
  <path d="M45981.816-13674.545c-1.779-30.503 17.04-70.469 41.736-88.639 87.758-72.762 99.649-202.484 26.445-289.775-6.325-8.013-19.964-21.426-28.112-27.663-23.029-16.609-40.597-53.371-38.96-81.647v-93.981l34.6 6.089a10.107 10.107 0 0 0 11.712-8.167c.595-2.42-.298-5.956-1.964-7.843l-79.239-102.702c-3.415-4.395-9.74-5.238-14.16-1.865-.595.37-1.473 1.303-1.883 1.865l-79.261 102.702c-3.393 4.38-2.567 10.691 1.846 14.072 1.92 1.635 5.476 2.493 7.895 1.938l34.66-6.089v129.286h-135.366l6.079-34.425c.975-5.459-2.671-10.66-8.185-11.63-2.418-.591-5.997.296-7.88 1.946l-103.332 78.807a9.976 9.976 0 0 0-1.831 14.085c.373.593 1.28 1.436 1.831 1.843l103.332 78.821c4.413 3.359 10.745 2.531 14.145-1.857 1.645-1.879 2.508-5.438 1.92-7.857l-6.079-34.424h129.316c32.004-1.828 73.926 17.712 93.019 43.302 42.838 51.107 35.895 127.043-15.484 169.635-42.957 31.642-75.66 101.12-72.631 154.173v50.959h85.831z" style="fill:#fff;fill-opacity:1;fill-rule:evenodd;stroke:none;stroke-width:2.6174612" transform="translate(-45571.716 14446.977)"/>
  <path d="M45951.754-13911.66c0-43.664-35.627-79.043-79.543-79.043-43.887 0-79.477 35.379-79.477 79.043 0 43.672 35.59 79.065 79.477 79.065 43.916 0 79.543-35.393 79.543-79.065" style="fill:#fff;fill-opacity:1;fill-rule:evenodd;stroke:none;stroke-width:2.6174612" transform="translate(-45571.716 14446.977)"/>
</svg>
