<svg xmlns="http://www.w3.org/2000/svg" viewBox="0 0 600 900" role="img" aria-labelledby="title">
  <title id="title">Verkehrszeichen Rc-4 - Rc-4</title>
  <path d="M45032.609-14021.336h550.754c13.545 0 24.623 11.124 24.623 24.712v850.576c0 13.594-11.078 24.712-24.623 24.712h-550.754c-13.545 0-24.623-11.118-24.623-24.712v-850.576c0-13.588 11.078-24.712 24.623-24.712z" style="fill:#fff;stroke:#000;stroke-width:1;stroke-linecap:butt;stroke-linejoin:miter;stroke-miterlimit:22.9260006;stroke-dasharray:none;stroke-opacity:1" transform="translate(-45007.986 14021.336)"/>
  <path d="M45045.854-14007.599c-12.425 0-22.462 10.054-22.462 22.55v827.524c0 12.477 10.037 22.517 22.462 22.517h524.706c12.4 0 22.462-10.04 22.462-22.517v-827.524c0-12.496-10.062-22.55-22.462-22.55z" style="fill:#000;fill-opacity:1;fill-rule:evenodd;stroke:none;stroke-width:2.30029917" transform="translate(-45007.986 14021.336)"/>
  <path d="M45381.675-13585.756c0-43.629-35.251-79.015-78.717-79.015-43.479 0-78.73 35.386-78.73 79.015s35.251 79.014 78.73 79.014c43.466 0 78.717-35.385 78.717-79.014" style="fill:#fff;fill-opacity:1;fill-rule:evenodd;stroke:none;stroke-width:2.30029917" transform="translate(-45007.986 14021.336)"/>
  <path d="M45452.764-13437.395c86.945-72.737 98.641-202.383 26.185-289.596-32.29-43.753-103.21-77.068-157.343-73.984h-128.054l6.053-34.419c.97-5.436-2.662-10.641-8.091-11.602-2.408-.523-5.975.327-7.843 1.934l-102.279 78.754c-4.361 3.403-5.233 9.68-1.842 14.109.391.522 1.302 1.451 1.842 1.823l102.279 78.753c4.368 3.403 10.649 2.534 14.014-1.842 1.62-1.868 2.525-5.383 1.92-7.833l-6.053-34.411h128.054c31.684-1.817 73.185 17.708 92.093 43.282 42.411 51.083 35.544 126.962-15.316 169.552-42.502 31.591-74.922 100.997-71.889 154.085v50.945h84.913v-50.945c-1.711-30.487 16.878-70.432 41.357-88.605" style="fill:#fff;fill-opacity:1;fill-rule:evenodd;stroke:none;stroke-width:2.30029917" transform="translate(-45007.986 14021.336)"/>
</svg>
