<svg xmlns="http://www.w3.org/2000/svg" viewBox="0 0 300 450" role="img" aria-labelledby="title">
  <title id="title">Verkehrszeichen Rb-77A - Pedestrians, keep left. Bicycles, keep right</title>
  <path d="M41817.295-10025.504c21.042 0 38.1-17.058 38.1-38.1v-373.8c0-21.045-17.058-38.1-38.1-38.1h-223.8c-21.042 0-38.1 17.055-38.1 38.1v373.8c0 21.045 17.058 38.1 38.1 38.1z" style="fill:#fff;fill-opacity:1;fill-rule:evenodd;stroke:#000;stroke-width:1;stroke-miterlimit:4;stroke-dasharray:none" transform="translate(-41555.395 10475.504)"/>
  <path d="M41835.394-10063.604c0 9.993-8.103 18.099-18.099 18.099h-223.8c-9.996 0-18.099-8.106-18.099-18.099v-373.8c0-9.996 8.103-18.099 18.099-18.099h223.8c9.996 0 18.099 8.103 18.099 18.099zm-18.096-401.901h-223.803c-15.519 0-28.101 12.582-28.101 28.101v373.8c0 15.519 12.582 28.098 28.101 28.098h223.803c15.516 0 28.095-12.582 28.095-28.098v-373.8c0-15.519-12.579-28.101-28.095-28.101" style="fill:#000;fill-opacity:1;fill-rule:evenodd;stroke:none;stroke-width:1.0583334" transform="translate(-41555.395 10475.504)"/>
  <path d="M41626.501-10173.836c5.34 0 9.672-4.329 9.672-9.672s-4.332-9.669-9.672-9.669-9.672 4.326-9.672 9.669 4.332 9.672 9.672 9.672M41666.977-10126.643c-3.018-7.671-4.722-15.342-7.605-24.063l-10.884-3.474 34.881 95.136-10.329 3.705-27.864-56.52-14.85 25.605-2.82 31.932-12.162-.624 2.229-37.635 16.128-31.08-8.982-21.834c-3.246 2.394-6.36 5.97-9.834 8.394l-21.015 11.244-4.458-6.816 21.939-15.699 16.449-22.692 8.262-3.408 34.062 16.947 5.376 30.882zM41700.964-10052.771h8.82v-276.927h-8.82zM41591.596-10348.865v-92.076h13.503v36.339l20.871-36.339h15.345l-18.66 32.658 21.483 59.418h-14.853l-15.714-43.458-8.472 14.73v28.728zM41656.786-10348.865v-92.076h46.038v13.506h-32.535v22.587h19.89v13.506h-19.89v28.974h33.147v13.503zM41714.608-10348.865v-92.076h46.038v13.506h-32.532v22.587h19.887v13.506h-19.887v28.974h33.144v13.503zM41799.439-10427.435h-13.503v25.536h11.784c8.841 0 12.645-3.684 12.645-13.629 0-5.769-3.069-11.907-10.926-11.907m1.596 39.039h-15.099v39.531h-13.506v-92.073h28.851c15.468 0 22.71 15.345 22.71 25.41 0 22.836-16.326 27.132-22.956 27.132M41591.5-10283.162v-39.687h5.82v34.395h14.817v5.292zM41615.947-10283.162v-39.687h19.845v5.82h-14.025v9.738h8.574v5.82h-8.574v12.489h14.289v5.82zM41646.745-10317.026v9.471h8.202v5.823h-8.256v18.573h-5.82v-39.687h20.109v5.82zM41678.335-10317.344v34.182h-5.82v-34.182h-7.251v-5.502h20.322v5.502zM41730.196-10317.026h-5.928v9.948h5.187c3.81 0 5.346-1.8 5.346-4.815 0-2.487-.954-5.133-4.605-5.133m4.656 14.712 5.715 19.155h-6.192l-5.502-18.099h-4.605v18.099h-5.82v-39.687h12.699c5.874 0 9.525 5.184 9.525 10.953 0 5.292-2.802 8.256-5.82 9.579M41744.59-10322.849h5.82v39.69h-5.82zM41766.55-10282.631c-10.635 0-11.748-11.694-11.748-20.637 0-8.889 1.272-20.109 11.748-20.109 7.938 0 10.266 7.038 10.266 10.53h-5.925s-.372-4.71-4.341-4.71c-5.238 0-5.925 7.938-5.925 14.289s.687 14.817 5.925 14.817c3.333 0 4.446-3.282 4.446-5.451v-3.069h-4.287v-5.82h10.107v9.999c0 4.764-3.915 10.161-10.266 10.161M41796.658-10283.162v-17.886h-10.635v17.886h-5.823v-39.687h5.823v15.981h10.581v-15.981h5.823v39.687zM41819.89-10317.344v34.182h-5.823v-34.182h-7.248v-5.502h20.322v5.502zM41806.918-10058.666c-9.126 0-16.626-6.951-17.496-15.849h18.336c1.671 0 2.226-1.803 1.524-3.039-.342-.606-4.473-7.911-8.577-15.162a17.5 17.5 0 0 1 6.192-1.122c9.708 0 17.58 7.872 17.58 17.58s-7.872 17.58-17.58 17.58m-21.807-19.848h-4.92l10.347-24.408 4.692 8.106a21.86 21.86 0 0 0-10.119 16.284zm-8.307-.969-27.654-23.658.15-.732h37.23zm27.81.969h-15.126c.645-5.304 3.648-9.762 7.929-12.525zm-49.728 2.268c0 9.708-7.872 17.58-17.58 17.58-9.711 0-17.583-7.872-17.583-17.58s7.872-17.58 17.583-17.58c1.446 0 2.853.18 4.2.504 0 0-6.132 16.065-6.327 16.599a2.01 2.01 0 0 0 1.179 2.577 2.01 2.01 0 0 0 2.577-1.182c.384-1.032 6.156-16.683 6.156-16.683 5.802 2.871 9.795 8.85 9.795 15.765m52.032-21.921a21.9 21.9 0 0 0-8.361 1.647l-6.261-11.067 1.134-2.031s6.105-.876 6.177-6.213c-5.739.12-16.854.327-16.854.327s-.621-.03-.804.27c-.438.585.21 1.242.21 1.242l7.386 3.18-1.443 3.228h-37.203s.06-2.778-.327-3.876c-.12-.804-1.719-3.438-1.719-3.438h7.146c.753 0 1.371-.651 1.371-1.443 0-.795-.6-1.443-1.335-1.443h-12.999s-.582.09-.765.876c.03.513-.462 2.853 1.572 2.853 2.229 1.791 2.814 2.961 2.814 2.961s.696 1.389.33 2.961c0 .24-3.978 10.734-3.978 10.734a22 22 0 0 0-5.709-.75c-12.108 0-21.924 9.813-21.924 21.921s9.816 21.924 21.924 21.924c12.105 0 21.921-9.816 21.921-21.924 0-8.856-5.253-16.488-12.816-19.947l1.533-3.075 27.678 23.511s1.287 1.023 3.582 1.023h5.841c.777 11.403 10.272 20.412 21.873 20.412 12.105 0 21.921-9.816 21.921-21.924s-9.816-21.921-21.921-21.921" style="fill:#000;fill-opacity:1;fill-rule:evenodd;stroke:none;stroke-width:1.0583334" transform="translate(-41555.395 10475.504)"/>
</svg>
