<svg xmlns="http://www.w3.org/2000/svg" viewBox="0 0 600 900" role="img" aria-labelledby="title">
  <title id="title">Verkehrszeichen Rc-8 - Rc-8</title>
  <path d="M47899.808-16149.745h515.49c23.241 0 42.255 19.077 42.255 42.392v815.216c0 23.322-19.014 42.392-42.255 42.392h-515.49c-23.241 0-42.255-19.07-42.255-42.392v-815.216c0-23.315 19.014-42.392 42.255-42.392z" style="fill:#fff;stroke:#000;stroke-width:1;stroke-linecap:butt;stroke-linejoin:miter;stroke-miterlimit:22.9260006;stroke-dasharray:none;stroke-opacity:1" transform="translate(-47857.553 16149.745)"/>
  <path d="M47895.039-16134.772c-12.415 0-22.504 10.08-22.504 22.48v825.094c0 12.408 10.089 22.48 22.504 22.48h525.051c12.416 0 22.481-10.072 22.481-22.48v-825.094c0-12.4-10.065-22.48-22.481-22.48z" style="fill:#000;fill-opacity:1;fill-rule:evenodd;stroke:none;stroke-width:2.72711849" transform="translate(-47857.553 16149.745)"/>
  <path d="M48202.478-15902.264c-93.695 0-169.705 76.056-169.705 169.77l.216 284.653h84.553v-284.595c0-47.006 38.085-85.087 84.994-85.087l-6.092 34.552c-.925 5.504 2.71 10.71 8.209 11.694 2.371.578 5.955-.289 7.856-1.909l103.147-79.187c4.394-3.405 5.189-9.719 1.843-14.123-.434-.579-1.272-1.497-1.85-1.844l-103.14-79.245c-4.394-3.348-10.754-2.537-14.136 1.91-1.647 1.858-2.486 5.445-1.929 7.882z" style="fill:#fff;fill-opacity:1;fill-rule:evenodd;stroke:none;stroke-width:2.55029893" transform="translate(-47857.553 16149.745)"/>
</svg>
