<svg xmlns="http://www.w3.org/2000/svg" viewBox="0 0 600 600" role="img" aria-labelledby="title">
  <title id="title">Verkehrszeichen Rb-14-R - Turn right</title>
  <path d="M38785.612-7137.133c20.956 0 38.1-17.145 38.1-38.1v-523.8c0-20.956-17.144-38.1-38.1-38.1h-523.8c-20.952 0-38.1 17.144-38.1 38.1v523.8c0 20.955 17.148 38.1 38.1 38.1z" style="fill:#fff;fill-opacity:1;fill-rule:evenodd;stroke:#000;stroke-width:1;stroke-miterlimit:4;stroke-dasharray:none" transform="translate(-38223.712 7737.133)"/>
  <path d="M38798.76-7175.216c0 7.234-5.864 13.1-13.1 13.1h-523.8c-7.232 0-13.1-5.867-13.1-13.101v-523.799c0-7.233 5.868-13.1 13.1-13.1h523.8c7.236 0 13.1 5.867 13.1 13.1zm-13.088-551.892h-523.812c-15.512 0-28.092 12.58-28.092 28.094v523.811c0 15.514 12.58 28.094 28.092 28.094h523.812c15.516 0 28.096-12.58 28.096-28.094v-523.811c0-15.514-12.58-28.094-28.096-28.094" style="fill:#000;fill-opacity:1;fill-rule:evenodd;stroke:none;stroke-width:1.41111" transform="translate(-38223.712 7737.133)"/>
  <path d="M1133.856 185.434c-525.43 0-948.426 422.997-948.426 948.425 0 525.429 422.997 948.428 948.425 948.428 525.43 0 948.428-422.999 948.428-948.428s-422.999-948.425-948.427-948.425m0 215.3c406.15 0 733.124 326.974 733.124 733.125s-326.973 733.125-733.125 733.125c-406.15 0-733.124-326.973-733.124-733.125 0-406.15 326.973-733.125 733.124-733.125" style="fill:#00674c;fill-opacity:1;stroke-width:.309161;stroke-linecap:round" transform="scale(.26458)"/>
  <path d="m38585.486-7529.7-7.69-26.986c-1.473-3.868-1.842-7.366.184-10.865 2.025-2.762 5.708-4.788 9.391-4.42 29.832 17.863 100.915 68.874 100.915 68.874l-93.365 65.189c-3.867 3.315-8.104 6.445-13.075 4.051-2.763-1.105-4.051-3.315-5.156-5.708-1.843-5.156 1.105-10.314 2.393-15.469l5.158-20.81-63.901 1.474c-30.751 0-51.747 19.577-51.747 50.62l-.04 123.582h-52.768l-.04-108.65c0-82.434 40.922-105.718 78.816-115.831 28.296-6.39 90.928-5.056 90.928-5.056" style="fill:#000;fill-opacity:1;fill-rule:nonzero;stroke:none;stroke-width:1.41111" transform="translate(-38223.712 7737.133)"/>
</svg>
