<svg xmlns="http://www.w3.org/2000/svg" viewBox="0 0 158.1 156.9" role="img" aria-labelledby="title">
  <title id="title">Verkehrszeichen Rb-46L - Double left turn</title>
  <path d="m-895.268-242.8 1.575-.3 1.05-.225 1.35-.825.825-.75.825-1.125.75-1.05.3-1.275.3-1.35v-141.9l-.3-1.275-.3-1.35-.75-1.05-.825-1.125-.825-.75-1.35-.825-1.05-.225-1.575-.3h-142.95l-1.35.3-1.275.225-1.125.825-1.05.75-.825 1.125-.75 1.05-.3 1.35-.3 1.275v141.9l.3 1.35.3 1.275.75 1.05.825 1.125 1.05.75 1.125.825 1.275.225 1.35.3h142.95" style="fill:#fff;fill-opacity:1;fill-rule:evenodd;stroke:#000;stroke-opacity:1;stroke-width:.8;stroke-miterlimit:4;stroke-dasharray:none" transform="translate(1045.793 399.1)"/>
  <path d="M-939.293-246.025h-99.675l-.6-.225-.75-.3-.525-.525-.3-.525-.525-.525v-.825l-.3-.75v-141.9l.3-.75v-.825l.525-.525.3-.525.525-.525.75-.3.6-.225h144.45l.825.225.525.3.525.525.6.525.225.525.3.825v143.4l-.3.825-.225.525-.6.525-.525.525-.525.3-.825.225h-41.55v-57.45h-3.225z" style="fill:#000;fill-opacity:1;fill-rule:evenodd;stroke:none" transform="translate(1045.793 399.1)"/>
  <path d="m-962.018-369.25 3.45-8.25.3-1.05v-1.35l-.6-1.05-.75-.75-1.125-.825h-2.4l-1.05.525-28.125 20.25 27.825 19.425 1.125.75 1.05.3 1.35-.3 1.05-.525 1.05-.75.6-1.05v-1.35l-.3-1.35-3.45-8.55 4.8.3 4.275.825 4.575 1.05 3.975 1.575 4.05 1.875 3.75 2.1 3.225 2.7 3.225 2.925 2.925 3.225 2.7 3.15 2.175 3.75 1.875 3.975 1.575 3.975 1.05 4.575.825 4.2v49.5h14.475v-47.85l-.225-2.925-.3-2.925-.525-2.925-.825-3-.825-2.925-.75-2.625-1.125-2.7-1.35-2.625-1.275-2.4-1.35-2.625-1.65-2.4-1.575-2.175-1.65-2.4-1.875-2.1-2.1-1.875-1.875-2.1-2.175-1.875-2.4-1.575-2.4-1.65-2.4-1.575-2.475-1.575-2.4-1.125-2.625-1.275-2.7-1.05-3-.825-2.625-.825-3-.75-2.925-.525-2.925-.3-3-.3zM-958.568-265.45v-20.175l-.3-4.575-1.05-4.5-1.35-4.275-1.575-4.275-2.4-3.975-2.475-3.675-2.925-3.525-3.45-3.15-6.45-4.8-3.525-1.875-3.75-1.35-3.75-1.275-3.75-.825-3.975-.825h-4.05l3.225-8.25.3-1.05v-1.35l-.6-1.05-.75-.75-1.125-.6-1.05-.225h-1.35l-1.05.525-28.125 20.25 27.825 19.425 1.125.75 1.275.3 1.125-.3 1.35-.525.75-.75.6-1.35v-1.05l-.3-1.35-3.75-8.25h2.925l5.4 1.05 2.625 1.05 2.7 1.125 2.4 1.275 2.475 1.65 2.1 1.8 1.875 1.875 1.875 2.4 1.65 2.4 1.35 2.4 1.05 2.7 1.05 2.625.525 2.925.3 2.7v20.7z" style="fill:#fff;fill-opacity:1;fill-rule:evenodd;stroke:none" transform="translate(1045.793 399.1)"/>
</svg>
