<svg xmlns="http://www.w3.org/2000/svg" viewBox="0 0 496.672 496.672" role="img" aria-labelledby="title">
  <title id="title">Verkehrszeichen Rb-47L - Lane control (two left turn lanes)</title>
  <path d="m315 205 80 170-80 170-80-170z" style="fill:none;stroke:#fff;stroke-width:40" transform="translate(805.397 -241.04)"/>
  <path d="M494.979 473.495c0 11.881-9.605 21.484-21.487 21.484H23.199c-11.854 0-21.506-9.603-21.506-21.484V23.2c0-11.858 9.652-21.508 21.506-21.508h450.293c11.882 0 21.487 9.65 21.487 21.508z" style="fill:#fff;fill-rule:evenodd;stroke:#000;stroke-width:2.25777769;stroke-miterlimit:4;stroke-opacity:1;stroke-dasharray:none"/>
  <path d="M275.05 484.81h197.98c6.36 0 11.528-5.154 11.528-11.522V22.981c0-6.336-5.168-11.517-11.528-11.517H22.722c-6.332 0-11.522 5.181-11.522 11.517v450.307c0 6.368 5.19 11.522 11.522 11.522h242.359V301.978h9.97z" style="fill:#000;fill-rule:evenodd;stroke:none"/>
  <path d="M365.064 230.351V113.576l-19.371 5.505c-2.47.362-4.913-.795-6.28-2.883-1.386-2.212-1.314-5.064.21-7.173l43.067-60.95 42.987 61.515c1.699 2.24 1.699 5.326 0 7.538-1.516 1.978-4.013 2.88-6.404 2.315l-19.427-5.636.08 311.352h-34.862v-90.69c-2.187-32.03-12.915-62.952-31.336-89.476a177.6 177.6 0 0 0-65.064-56.99l-4.527 19.917a6.064 6.064 0 0 1-5.25 5.223c-2.701.386-5.35-1.161-6.405-3.68l-35.45-65.477 73.601-12.168c2.984-.8 6.102.72 7.259 3.576a6.11 6.11 0 0 1-.93 6.174l-12.964 15.847c28.505 14.614 53.306 35.478 72.678 61.002 2.962 3.883 5.739 7.869 8.388 11.934M208.685 425.158h-34.066v-76.231c.338-15.592-5.016-30.795-15.024-42.784-8.128-9.801-19.01-16.929-31.206-20.53l1.185 20.251c.025 2.622-1.595 4.992-4.04 5.864a6.18 6.18 0 0 1-6.406-1.52l-51.865-54.694 68.87-30.358a5.95 5.95 0 0 1 7.337 1.567 5.99 5.99 0 0 1 .843 6.05l-8.978 19.396c19.348 5.016 36.766 15.823 49.81 31.002 15.72 18.263 24.132 41.703 23.719 65.756z" style="fill:#fff;fill-rule:evenodd;stroke:none"/>
</svg>
