<svg xmlns="http://www.w3.org/2000/svg" viewBox="0 0 606 606" role="img" aria-labelledby="title">
  <title id="title">Verkehrszeichen Rb-44 - All movements permitted</title>
  <g transform="translate(0 309)">
    <rect width="604" height="604" x="1" y="-308" rx="42" ry="42" style="fill:#000;fill-opacity:1;stroke:none;stroke-width:242.42451477;stroke-linecap:round;stroke-linejoin:round;stroke-miterlimit:1.41400003;stroke-dasharray:none;stroke-opacity:1"/>
    <rect width="600" height="600" x="3" y="-306" rx="40" ry="40" style="fill:#fff;fill-opacity:1;stroke:none;stroke-width:240.81906128;stroke-linecap:round;stroke-linejoin:round;stroke-miterlimit:1.41400003;stroke-dasharray:none;stroke-opacity:1"/>
    <rect width="575" height="575" x="15.5" y="-293.5" rx="27.5" ry="27.5" style="fill:#000;fill-opacity:1;stroke:none;stroke-width:230.78494263;stroke-linecap:round;stroke-linejoin:round;stroke-miterlimit:1.41400003;stroke-dasharray:none;stroke-opacity:1"/>
    <g aria-label="50" style="font-style:normal;font-variant:normal;font-weight:400;font-stretch:normal;font-size:432.27664185px;line-height:1.25;font-family:&quot;Roadgeek 2005 Series D&quot;;-inkscape-font-specification:&quot;Roadgeek 2005 Series D&quot;;letter-spacing:0;word-spacing:0;fill:#000;fill-opacity:1;stroke:none;stroke-width:10.80691528">
      <path d="m1178.01-363.947-77.738 112.588c-6.815 9.894 2.278 22.95 13.916 19.983l31.29-7.971v330.4h65.065v-65c.631-7.257 1.587-13.934 2.997-19.215 8.794-34.261 38.756-74.322 74.983-81.385h7.107v-65h-8.008c-28.079 4.071-53.931 16.408-77.079 34.4v-134.2l31.29 7.97c11.639 2.968 20.731-10.088 13.916-19.982zm-32.533 390v-131.2c-23.147-17.992-49-30.329-77.078-34.4h-8.008v65h7.107c36.227 7.063 66.19 47.124 74.983 81.385 1.41 5.281 2.366 11.958 2.996 19.215" style="color:#000;font-style:normal;font-variant:normal;font-weight:400;font-stretch:normal;font-size:medium;line-height:1.25;font-family:&quot;Roadgeek 2005 Series D&quot;;-inkscape-font-specification:&quot;Roadgeek 2005 Series D&quot;;font-variant-ligatures:normal;font-variant-position:normal;font-variant-caps:normal;font-variant-numeric:normal;font-variant-alternates:normal;font-feature-settings:normal;text-indent:0;text-align:start;text-decoration:none;text-decoration-line:none;text-decoration-style:solid;text-decoration-color:#000;letter-spacing:0;word-spacing:0;text-transform:none;writing-mode:lr-tb;direction:ltr;text-orientation:mixed;dominant-baseline:auto;baseline-shift:baseline;text-anchor:start;white-space:normal;shape-padding:0;clip-rule:nonzero;display:inline;overflow:visible;visibility:visible;opacity:1;isolation:auto;mix-blend-mode:normal;color-interpolation:sRGB;color-interpolation-filters:linearRGB;solid-color:#000;solid-opacity:1;vector-effect:none;fill:#fff;fill-opacity:1;fill-rule:nonzero;stroke:none;stroke-width:26.00328255;stroke-linecap:round;stroke-linejoin:round;stroke-miterlimit:4;stroke-dasharray:none;stroke-dashoffset:0;stroke-opacity:1;color-rendering:auto;image-rendering:auto;shape-rendering:auto;text-rendering:auto" transform="matrix(.99898 0 0 1 -873.813 127.947)"/>
      <path d="m942.771-107.047 112.704-77.66c9.903-6.808 22.973 2.275 20.003 13.902l-7.98 31.258v65l7.98 31.257c2.97 11.627-10.1 20.71-20.004 13.902zM1413.25-107.047l-112.703-77.66c-9.904-6.808-22.974 2.275-20.003 13.902l7.979 31.258v65l-7.98 31.257c-2.97 11.627 10.1 20.71 20.004 13.902z" style="color:#000;font-style:normal;font-variant:normal;font-weight:400;font-stretch:normal;font-size:medium;line-height:1.25;font-family:&quot;Roadgeek 2005 Series D&quot;;-inkscape-font-specification:&quot;Roadgeek 2005 Series D&quot;;font-variant-ligatures:normal;font-variant-position:normal;font-variant-caps:normal;font-variant-numeric:normal;font-variant-alternates:normal;font-feature-settings:normal;text-indent:0;text-align:start;text-decoration:none;text-decoration-line:none;text-decoration-style:solid;text-decoration-color:#000;letter-spacing:0;word-spacing:0;text-transform:none;writing-mode:lr-tb;direction:ltr;text-orientation:mixed;dominant-baseline:auto;baseline-shift:baseline;text-anchor:start;white-space:normal;shape-padding:0;clip-rule:nonzero;display:inline;overflow:visible;visibility:visible;opacity:1;isolation:auto;mix-blend-mode:normal;color-interpolation:sRGB;color-interpolation-filters:linearRGB;solid-color:#000;solid-opacity:1;vector-effect:none;fill:#fff;fill-opacity:1;fill-rule:nonzero;stroke:none;stroke-width:26.00328255;stroke-linecap:round;stroke-linejoin:round;stroke-miterlimit:4;stroke-dasharray:none;stroke-dashoffset:0;stroke-opacity:1;color-rendering:auto;image-rendering:auto;shape-rendering:auto;text-rendering:auto" transform="matrix(.99898 0 0 1 -873.813 127.947)"/>
    </g>
  </g>
</svg>
