<svg xmlns="http://www.w3.org/2000/svg" viewBox="0 0 606 606" role="img" aria-labelledby="title">
  <title id="title">Verkehrszeichen Rc-12 - Littering prohibited</title>
  <g transform="translate(0 309)">
    <rect width="604" height="604" x="1" y="-308" rx="42" ry="42" style="fill:#000;fill-opacity:1;stroke:none;stroke-width:242.42451477;stroke-linecap:round;stroke-linejoin:round;stroke-miterlimit:1.41400003;stroke-dasharray:none;stroke-opacity:1"/>
    <rect width="600" height="600" x="3" y="-306" rx="40" ry="40" style="fill:#fff;fill-opacity:1;stroke:none;stroke-width:240.81906128;stroke-linecap:round;stroke-linejoin:round;stroke-miterlimit:1.41400003;stroke-dasharray:none;stroke-opacity:1"/>
    <rect width="575" height="575" x="15.5" y="-293.5" rx="27.5" ry="27.5" style="fill:#000;fill-opacity:1;stroke:none;stroke-width:230.78494263;stroke-linecap:round;stroke-linejoin:round;stroke-miterlimit:1.41400003;stroke-dasharray:none;stroke-opacity:1"/>
    <rect width="550" height="550" x="28" y="-281" rx="15" ry="15" style="fill:#fff;fill-opacity:1;stroke:none;stroke-width:220.75080872;stroke-linecap:round;stroke-linejoin:round;stroke-miterlimit:1.41400003;stroke-dasharray:none;stroke-opacity:1"/>
    <g aria-label="50" style="font-style:normal;font-variant:normal;font-weight:400;font-stretch:normal;font-size:432.27664185px;line-height:1.25;font-family:&quot;Roadgeek 2005 Series D&quot;;-inkscape-font-specification:&quot;Roadgeek 2005 Series D&quot;;letter-spacing:0;word-spacing:0;fill:#000;fill-opacity:1;stroke:none;stroke-width:10.80691528">
      <g aria-label="MAXIMUM" style="font-style:normal;font-variant:normal;font-weight:400;font-stretch:normal;font-size:146.62756348px;line-height:1.25;font-family:&quot;Roadgeek 2005 Series C&quot;;-inkscape-font-specification:&quot;Roadgeek 2005 Series C&quot;;letter-spacing:0;word-spacing:0;fill:#000;fill-opacity:1;stroke:none;stroke-width:39.61479187" transform="translate(.408 -4.684)">
        <circle cx="302.592" cy="-1.316" r="250" style="fill:#be141e;fill-opacity:1;fill-rule:nonzero;stroke:none;stroke-width:19.78435898;stroke-linecap:round;stroke-linejoin:round;stroke-miterlimit:4;stroke-dasharray:none;stroke-opacity:1"/>
        <circle cx="302.592" cy="-1.316" r="200" style="fill:#fff;fill-opacity:1;fill-rule:nonzero;stroke:none;stroke-width:15.82748699;stroke-linecap:round;stroke-linejoin:round;stroke-miterlimit:4;stroke-dasharray:none;stroke-opacity:1"/>
      </g>
    </g>
    <path d="M473.814-56.494c-12.212-12.146-33.594-21.555-55.79-24.191-31.522-3.743-57.148 8.094-60.107 26.877 0 0-1.571 1.555-4.488 2.536-2.757.922-3.895-1.941-3.895-1.941s-8.79-13.034-14.163-18.406c-25.206-25.21-54.165-41.154-54.165-41.154L154.351 14.082s-3.602 3.859-2.563 10.042c.687 4.097 2.386 7.233 2.386 7.233s11.528 21.23 34.684 44.385c23.156 23.156 44.385 34.684 44.385 34.684s3.136 1.7 7.233 2.386c6.183 1.04 10.042-2.563 10.042-2.563L372.565-11.798s-1.262-5.026 1.288-6.412a5.37 5.37 0 0 1 6.15.518c10.815 6.97 24.605 11.949 39.742 13.748 33.82 4.012 64.986-10.6 64.509-31.79-.163-7.285-4.043-14.398-10.44-20.76z" style="fill:#000;fill-opacity:1;fill-rule:nonzero;stroke:none;stroke-width:1.91157198"/>
    <path d="M193.496 20.011h50v380h-50z" style="font-style:normal;font-variant:normal;font-weight:400;font-stretch:normal;font-size:146.62756348px;line-height:1.25;font-family:&quot;Roadgeek 2005 Series C&quot;;-inkscape-font-specification:&quot;Roadgeek 2005 Series C&quot;;letter-spacing:0;word-spacing:0;fill:#fff;fill-opacity:1;fill-rule:nonzero;stroke:none;stroke-width:14.13022804;stroke-linecap:round;stroke-linejoin:round;stroke-miterlimit:4;stroke-dasharray:none;stroke-opacity:1" transform="rotate(-45)"/>
    <path d="M198.496-29.989h40v480h-40z" style="font-style:normal;font-variant:normal;font-weight:400;font-stretch:normal;font-size:146.62756348px;line-height:1.25;font-family:&quot;Roadgeek 2005 Series C&quot;;-inkscape-font-specification:&quot;Roadgeek 2005 Series C&quot;;letter-spacing:0;word-spacing:0;fill:#be141e;fill-opacity:1;fill-rule:nonzero;stroke:none;stroke-width:14.20440292;stroke-linecap:round;stroke-linejoin:round;stroke-miterlimit:4;stroke-dasharray:none;stroke-opacity:1" transform="rotate(-45)"/>
  </g>
</svg>
