<svg xmlns="http://www.w3.org/2000/svg" viewBox="0 0 600 750" role="img" aria-labelledby="title">
  <title id="title">Verkehrszeichen Rb-37 - Yield to cyclists when turning right</title>
  <path d="M9500.694 5298.27c0 22.098-17.9 39.998-40 39.998h-519.999c-22.102 0-40.001-17.9-40.001-39.999v-670c0-22.1 17.899-40 40-40h520.001c22.099 0 39.999 17.9 39.999 40z" style="fill:#fff;stroke:#000;stroke-width:.79965204;stroke-linecap:butt;stroke-linejoin:round;stroke-miterlimit:10;stroke-dasharray:none;stroke-opacity:1" transform="translate(-8900.694 -4588.269)"/>
  <path d="M9475.694 5298.27c0 8.299-6.7 15-15 15h-519.999c-8.3 0-15-6.7-15-15v-670c0-8.202 6.7-15 14.998-15h520.002c8.299 0 15 6.803 15 15.003zm12.5 0c0 15.2-12.3 27.5-27.5 27.5h-520c-15.2 0-27.5-12.299-27.5-27.499v-670c0-15.1 12.3-27.5 27.499-27.5h520.003c15.199 0 27.497 12.402 27.497 27.502z" style="fill:#000;fill-opacity:1;fill-rule:evenodd;stroke:none;stroke-width:1.71968186" transform="translate(-8900.694 -4588.269)"/>
  <path d="m1728.748 1605.172-50.266.387c-5.67 1.508-7.554 3.022-10.58 13.976l-32.507 79.377c-28.726-12.476-55.558-7.18-78.99 9.447-23.435 16.25-36.669 42.714-36.282 69.924-.385 33.26 21.156 63.49 51.397 76.342 17.007 7.564 36.665 7.94 55.181 3.781 28.726-6.047 53.674-33.635 60.852-61.228 7.561-32.877-8.317-67.274-37.041-88.826l2.644-6.418 94.5 84.28v.372c-1.14 2.65-1.511 5.294-1.511 7.94 0 12.09 7.184 20.026 18.9 21.167h.387l.388 2.639-3.025.387 1.125 6.049 14.361-2.65-1.142-5.667-3.016.367-.389-1.886c7.568-2.268 13.237-8.693 14.748-16.633l12.059-.748c2.652 9.063 5.3 17.756 10.207 25.32 17.393 28.724 49.135 42.707 81.26 40.063 31.372-3.028 61.235-26.84 71.053-56.319 11.346-31.746 1.137-68.788-24.18-90.709-24.948-21.54-64.636-26.833-94.486-12.09l-21.547-33.638 4.53-12.475c3.78-1.136 9.078.762 12.1-1.89 1.888-1.507 1.887-3.78 1.887-6.424-1.131-2.264-3.4-3.02-5.662-3.776l-49.512-2.644-1.125 1.51c-.755 1.138-.387 2.262 0 3.404 6.794 6.8 15.866 7.924 24.944 8.31 2.268 1.514-.759 7.562-1.125 9.446l-139.467-5.282 12.465-30.99c.383-2.652 1.52-4.92 3.783-7.18h42.711zm-65.006 69.904 141.344 4.91-36.645 92.6-3.029.389-1.125-6.428 3.4-1.14-1.511-5.667-12.848 3.022 1.512 5.672 4.162-.371 1.512 6.421c-1.14 0-2.637.386-3.78 1.141l-99.039-85.807zm152.705 12.485 15.496 24.187c-21.547 17.388-33.642 42.337-33.642 69.549l-12.848 2.267a16.05 16.05 0 0 0-6.424-6.81zm-210.93 28.992q.647 0 1.292.029c4.588.098 9.124.74 13.47 1.969 2.27.757 5.67.757 7.555 2.267l-24.18 40.82c-5.67 1.515-11.717 4.539-13.61 10.587-.387 1.506 0 3.404-1.51 4.527 1.881 1.137.386 4.164 1.51 5.674 2.264 5.294 7.94 9.836 13.227 10.207 6.807.753 12.475-3.029 15.876-8.319 1.898-3.397 1.898-8.314.386-12.09l24.18-42.335c5.286 3.405 9.447 10.206 12.848 15.125 12.475 18.892 12.097 47.241-.756 65.765-10.956 16.25-28.335 26.063-47.243 27.205-25.701 1.897-50.642-14.736-60.09-36.28-2.645-6.051-6.433-13.23-6.046-20.034-2.271-16.255 4.908-37.04 25.318-52.906 10.363-7.443 23.53-11.9 36.479-12.182q.648-.03 1.295-.03m276.085 1.252c21.162-.058 42.217 10.135 53.9 28.334 12.467 19.278 12.474 48.01-.387 66.527-13.601 20.024-35.898 30.608-60.092 27.97-19.277-3.027-37.418-14.366-46.865-32.513-2.269-4.159-3.79-9.07-4.914-13.605l45.727-5.29c4.915-.375 8.695 5.292 13.994 4.538 5.286 0 10.2-2.646 12.84-7.182 2.652-4.534 3.413-11.339 0-16.25-2.256-3.404-6.036-6.804-12.088-6.049l-26.453-41.568c7.759-3.297 16.057-4.89 24.338-4.912m-37.2 13.595 25.334 39.309-1.511 3.781-46.496 4.535c-.756-18.141 7.562-36.286 22.673-47.625m-69.908 53.297c1.507 1.514 3.028 3.022 3.783 4.907h-5.295zm-20.789 10.951 10.596 7.18-.387 5.678c-5.671-1.514-10.209-6.802-10.209-12.858m18.527 6.43 5.288.756c-1.132 1.89-3.025 3.411-5.288 4.535z" style="fill:#000;fill-opacity:1;fill-rule:evenodd;stroke:none;stroke-width:6.49958515" transform="scale(.26458)"/>
  <path d="M9290.196 5275.269h-1.001v-257.101h1.001zM9431.294 5275.269h-.999v-257.101h1zM9290.196 4721.369h-1.001v-70.001h1.001zM9431.294 4721.369h-.999v-70.001h1zM9290.196 4812.469h-1.001v-70h1.001zM9431.294 4812.469h-.999v-70h1zM9290.196 4903.468h-1v-70h1zM9431.295 4903.468h-1v-70h1zM9290.196 4994.569h-1.2v-70.001h1.2zM9431.494 4994.569h-1.399v-70.001h1.399z" style="fill:#000;fill-opacity:1;fill-rule:evenodd;stroke:#000;stroke-width:.79965204;stroke-linecap:butt;stroke-linejoin:round;stroke-miterlimit:10;stroke-dasharray:none;stroke-opacity:1" transform="translate(-8900.694 -4588.269)"/>
  <path d="M465.639 308.404 328.82 493.224 233.197 627.4c-4.161 10.963-3.4 24.95 5.293 34.774 7.938 7.94 18.14 10.208 29.102 9.832 31.373-8.695 79.37-20.792 115.656-30.24l-32.88 1906.77h228.657l-4.53-748.343c10.208-170.838 121.702-435.78 270.237-646.296 76.598-110.113 600.924-480.62 745.66-580.715l1.178 1.681c13.219 35.527 32.12 83.537 43.082 114.145 6.053 9.454 13.98 16.632 24.948 18.523 12.848 1.51 24.565-6.05 30.99-15.496l55.557-155.72 72.568-217.706-229.42-6.04-165.16-1.124c-11.34 2.638-22.304 11.339-25.319 23.813-1.9 10.948 2.257 20.782 8.68 29.853 24.681 20.185 61.866 52.152 90.098 76.254-128.773 74.586-594.23 369.921-651.73 419.614-197.67 170.833-281.956 384.378-281.956 384.378l-18.894-603.974c36.658 9.83 86.924 21.928 118.297 30.623 11.338.37 21.54-1.893 29.48-9.832 8.692-9.83 9.074-23.811 4.906-34.774l-95.615-134.175z" style="fill:#000;fill-opacity:1;fill-rule:evenodd;stroke:none;stroke-width:6.49958515" transform="scale(.26458)"/>
  <path d="m1743.887 2118.049-114.143 225.639 113.766 227.904 114.504-227.15zm-.004 101.67 66.51 125.86-66.887 125.856-62.36-126.994z" style="fill:#2a2b2c;fill-opacity:1;fill-rule:evenodd;stroke:none;stroke-width:6.49958515" transform="scale(.26458)"/>
  <path d="M9255.795 4862.368c4.301-7.5 1.7-17.098-5.799-21.499-2.403-1.401-5-2.1-7.601-2.1h-164.2c-8.7 0-15.8 7-15.8 15.7 0 2.799.698 5.401 1.999 7.7l82.1 142.2c4.4 7.498 14 10.1 21.601 5.8 2.4-1.4 4.3-3.3 5.6-5.5z" style="fill:#fff;fill-opacity:1;fill-rule:evenodd;stroke:none;stroke-width:1.71968186" transform="translate(-8900.694 -4588.269)"/>
  <path d="M9255.795 4862.368c4.301-7.5 1.7-17.098-5.799-21.499-2.403-1.401-5-2.1-7.601-2.1h-164.2c-8.7 0-15.8 7-15.8 15.7 0 2.799.698 5.401 1.999 7.7l82.1 142.2c4.4 7.498 14 10.1 21.601 5.8 2.4-1.4 4.3-3.3 5.6-5.5z" style="fill:none;stroke:#000;stroke-width:1.00085485;stroke-linecap:butt;stroke-linejoin:round;stroke-miterlimit:10;stroke-dasharray:none;stroke-opacity:1" transform="translate(-8900.694 -4588.269)"/>
  <path d="m9168.695 5001.369 81.702-141.7c2.798-4.7 1.097-10.8-3.601-13.5a9 9 0 0 0-4.701-1.3h-163.702c-5.398 0-9.9 4.402-9.9 9.903 0 1.698.5 3.298 1.2 4.7l81.902 141.7c2.7 4.799 8.8 6.397 13.599 3.699 1.502-.9 2.601-2.1 3.5-3.5" style="fill:#c0111e;fill-opacity:1;fill-rule:evenodd;stroke:none;stroke-width:1.71968186" transform="translate(-8900.694 -4588.269)"/>
  <path d="m9164.195 4950.169 39.9-69.2c1.3-2.3.499-5.3-1.803-6.6-.698-.5-1.498-.7-2.296-.7h-79.902c-2.7 0-4.9 2.2-4.9 4.8q0 1.349.6 2.4l40 69.2c1.4 2.3 4.301 3.1 6.601 1.8.8-.4 1.299-1 1.8-1.7" style="fill:#fff;fill-opacity:1;fill-rule:evenodd;stroke:none;stroke-width:1.71968186" transform="translate(-8900.694 -4588.269)"/>
  <path d="M9364.845 4931.769v-79.1c2.1.4 4.9 1.001 6.801 1.2.599.103 1.199-.098 1.7-.4.497-.4.497-.9.297-1.4l-5.498-5.302-7.9-7.399-7.899 7.399-5.498 5.301c-.2.5-.2 1.002.298 1.401.5.302 1.1.503 1.7.4 1.9-.199 4.701-.8 6.8-1.2v79.1z" style="fill:#2a2b2c;fill-opacity:1;fill-rule:evenodd;stroke:none;stroke-width:1.71968186" transform="translate(-8900.694 -4588.269)"/>
</svg>
