<svg xmlns="http://www.w3.org/2000/svg" viewBox="0 0 2100 900" role="img" aria-labelledby="title">
  <title id="title">Verkehrszeichen Rb-76 - Truck scale ahead</title>
  <path d="M29770.048-2208.675c21.059 0 38.114-17.059 38.114-38.104v-823.798c0-21.039-17.069-38.098-38.114-38.098h-2023.772c-21.059 0-38.114 17.06-38.114 38.099v823.797c0 21.045 17.055 38.104 38.114 38.104z" style="fill:#fff;fill-opacity:1;fill-rule:evenodd;stroke:#000;stroke-width:1;stroke-miterlimit:4;stroke-dasharray:none" transform="translate(-27708.162 3108.675)"/>
  <path d="M29773.198-2246.74c0 1.72-1.4 3.123-3.122 3.123H27745.94a3.127 3.127 0 0 1-3.122-3.122v-824.154c0-1.719 1.4-3.122 3.122-3.122h2024.136a3.127 3.127 0 0 1 3.122 3.122zm-2.954-846.73h-2023.786c-12.7 0-23.103 10.393-23.103 23.095v823.804c0 12.702 10.403 23.098 23.103 23.098h2023.786c12.714 0 23.104-10.396 23.104-23.098v-823.804c0-12.702-10.39-23.094-23.104-23.094" style="fill:#000;fill-opacity:1;fill-rule:evenodd;stroke:none;stroke-width:4.93930483" transform="translate(-27708.162 3108.675)"/>
  <path d="M28383.355-2649.946v-81.378h86.884l30.161 81.378zm-433.247 213.386c29.055-9.025 50.227-35.916 50.661-67.822h339.178v22.497h47.034c7.799 21.31 24.966 38.084 46.502 45.394zm578.255-45.394h84.602v-29.604h-15.739v-109.663c0-13.409-10.964-24.38-24.378-24.38h-48.56l-39.137-104.448h-127.547v-90.184l-559.519-.01c-14.45 0-26.268 11.82-26.268 26.256v309.56h84.756v-.14c.42 31.979 21.563 58.946 50.646 67.984h-124.018v25.104h792.042v-25.104h-93.466c21.536-7.31 38.702-24.083 46.502-45.393" style="fill:#000;fill-opacity:1;fill-rule:evenodd;stroke:none;stroke-width:4.93930483" transform="translate(-27708.162 3108.675)"/>
  <path d="M28745.371-2661.283v301.332c0 8.619-6.832 15.455-15.459 15.455h-956.639v51.611h956.639c36.769 0 67.07-30.297 67.07-67.066v-301.332z" style="color:#000;font-style:normal;font-variant:normal;font-weight:400;font-stretch:normal;font-size:medium;line-height:normal;font-family:sans-serif;font-variant-ligatures:normal;font-variant-position:normal;font-variant-caps:normal;font-variant-numeric:normal;font-variant-alternates:normal;font-feature-settings:normal;text-indent:0;text-align:start;text-decoration:none;text-decoration-line:none;text-decoration-style:solid;text-decoration-color:#000;letter-spacing:normal;word-spacing:normal;text-transform:none;writing-mode:lr-tb;direction:ltr;text-orientation:mixed;dominant-baseline:auto;baseline-shift:baseline;text-anchor:start;white-space:normal;shape-padding:0;clip-rule:nonzero;display:inline;overflow:visible;visibility:visible;opacity:1;isolation:auto;mix-blend-mode:normal;color-interpolation:sRGB;color-interpolation-filters:linearRGB;solid-color:#000;solid-opacity:1;vector-effect:none;fill:#000;fill-opacity:1;fill-rule:nonzero;stroke:none;stroke-width:51.6108017;stroke-linecap:butt;stroke-linejoin:miter;stroke-miterlimit:4;stroke-dasharray:none;stroke-dashoffset:0;stroke-opacity:1;color-rendering:auto;image-rendering:auto;shape-rendering:auto;text-rendering:auto" transform="translate(-27708.162 3108.675)"/>
  <path d="M28756.195-2812.248c-3.151-2.524-17.419-15.197-10.67-32.838 6.161-16.141 23.58-18.502 28.481-18.013 29.629 2.92 67.603 44.638 83.047 60.314-24.056 0-83.229 4.638-100.858-9.463" style="fill:#000;fill-opacity:1;fill-rule:evenodd;stroke:none;stroke-width:4.93930483" transform="translate(-27708.162 3108.675)"/>
  <path d="M28771.443-3024.96c-107.241 0-194.74 87.48-194.74 194.714 0 107.23 87.499 194.71 194.74 194.71 107.243 0 194.741-87.48 194.741-194.71 0-107.233-87.498-194.715-194.741-194.715m0 51.66c79.326 0 143.08 63.745 143.08 143.054 0 79.304-63.754 143.05-143.08 143.05-79.324 0-143.08-63.747-143.08-143.05 0-79.308 63.756-143.055 143.08-143.055" style="color:#000;font-style:normal;font-variant:normal;font-weight:400;font-stretch:normal;font-size:medium;line-height:normal;font-family:sans-serif;font-variant-ligatures:normal;font-variant-position:normal;font-variant-caps:normal;font-variant-numeric:normal;font-variant-alternates:normal;font-feature-settings:normal;text-indent:0;text-align:start;text-decoration:none;text-decoration-line:none;text-decoration-style:solid;text-decoration-color:#000;letter-spacing:normal;word-spacing:normal;text-transform:none;writing-mode:lr-tb;direction:ltr;text-orientation:mixed;dominant-baseline:auto;baseline-shift:baseline;text-anchor:start;white-space:normal;shape-padding:0;clip-rule:nonzero;display:inline;overflow:visible;visibility:visible;opacity:1;isolation:auto;mix-blend-mode:normal;color-interpolation:sRGB;color-interpolation-filters:linearRGB;solid-color:#000;solid-opacity:1;vector-effect:none;fill:#000;fill-opacity:1;fill-rule:nonzero;stroke:none;stroke-width:51.66019058;stroke-linecap:butt;stroke-linejoin:miter;stroke-miterlimit:4;stroke-dasharray:none;stroke-dashoffset:0;stroke-opacity:1;color-rendering:auto;image-rendering:auto;shape-rendering:auto;text-rendering:auto" transform="translate(-27708.162 3108.675)"/>
  <path d="M29237.021-2566.92h-153.13v-12.1c0-32.596 29.895-78.775 74.843-96.555 14.814-5.927 39.262-6.421 39.262-23.46 0-10.372-15.304-18.023-32.597-18.023-35.818 0-56.065 20.492-56.304 20.492-.28 0-25.204-28.399-25.204-28.399 8.654-8.144 35.076-30.867 81.508-30.867 50.38 0 71.622 31.365 71.622 56.797 0 23.46-18.021 47.413-44.948 54.328-37.288 9.63-53.601 28.151-59.272 39.511h104.22c.28 0 0 38.276 0 38.276M29348.409-2566.92v-170.391l37.541-14.818v84.95l33.591-40h49.386l-39.262 46.668 39.262 93.591h-40.984l-25.695-60.749-16.298 19.263v41.486zM29667.018-2566.92v-80.998c0-9.631-6.175-22.472-21.731-22.472-14.815 0-19.519 10.62-19.519 22.472v80.998h-37.541v-80.998c0-4.938-2.212-22.472-21.969-22.472-19.029 0-21.494 17.04-21.494 22.472v80.998h-37.54v-138.29h37.54v6.673s12.602-8.642 30.623-8.642c22.222 0 37.54 15.799 37.54 15.799s11.118-15.8 42.736-15.8c30.861 0 48.896 27.16 48.896 52.595v87.665z" style="fill:#000;fill-opacity:1;fill-rule:evenodd;stroke:none;stroke-width:4.93930483" transform="translate(-27708.162 3108.675)"/>
</svg>
