<svg xmlns="http://www.w3.org/2000/svg" viewBox="0 0 300 450" role="img" aria-labelledby="title">
  <title id="title">Verkehrszeichen Rb-57 - No stopping in bus stop</title>
  <path d="M12100.822 3648.191c21.042 0 38.1-17.056 38.1-38.098V3236.29c0-21.043-17.058-38.099-38.1-38.099h-223.8c-21.042 0-38.1 17.056-38.1 38.1v373.802c0 21.042 17.058 38.098 38.1 38.098z" style="fill:#fff;fill-opacity:1;fill-rule:evenodd;stroke:#000;stroke-width:1;stroke-miterlimit:4;stroke-dasharray:none" transform="translate(-11838.922 -3198.191)"/>
  <path d="M12118.921 3610.093c0 9.994-8.103 18.098-18.099 18.098h-223.8c-9.996 0-18.099-8.106-18.099-18.098V3236.29c0-9.994 8.103-18.098 18.099-18.098h223.8c9.996 0 18.099 8.104 18.099 18.098zm-18.099-401.9h-223.803c-15.516 0-28.098 12.581-28.098 28.098v373.802c0 15.517 12.582 28.098 28.098 28.098h223.803c15.519 0 28.098-12.581 28.098-28.098V3236.29c0-15.517-12.579-28.099-28.098-28.099" style="fill:#000;fill-opacity:1;fill-rule:evenodd;stroke:none;stroke-width:1.05833328" transform="translate(-11838.922 -3198.191)"/>
  <path d="m12062.53 3593.31 10.635-3.987-7.716 21.82c-.741 1.703 1.422 5.654 4.797 3.728l41.205-27.911s2.364-1.245 2.364-4.272c0-3.025-2.364-4.26-2.364-4.26l-41.205-27.91c-3.375-1.927-5.538 2.025-4.797 3.729l7.716 21.82-10.635-3.988zM11915.311 3572.08l-10.632 3.987 7.716-21.82c.738-1.703-1.425-5.655-4.8-3.729l-41.205 27.911s-2.364 1.245-2.364 4.272 2.364 4.26 2.364 4.26l41.205 27.912c3.375 1.925 5.538-2.028 4.8-3.73l-7.716-21.82 10.632 3.989zM12024.811 3335.29l7.755-7.764v-36.135l-25.542-25.506h-36.135l-7.746 7.735zM11953.078 3283.673l-7.731 7.718v36.135l25.542 25.576h36.135l7.737-7.747z" style="fill:#000;fill-opacity:1;fill-rule:evenodd;stroke:none;stroke-width:1.05833328" transform="translate(-11838.922 -3198.191)"/>
  <path d="M12049.429 3309.494c0 14.64-5.205 28.068-13.863 38.53l-85.14-85.14c10.461-8.659 23.889-13.863 38.529-13.863 33.399 0 60.474 27.074 60.474 60.473m-60.474 60.472c-33.399 0-60.471-27.074-60.471-60.472 0-14.622 5.19-28.031 13.827-38.487l85.131 85.133a60.22 60.22 0 0 1-38.487 13.826m-78.231-60.472c0 43.205 35.025 78.232 78.231 78.232s78.231-35.027 78.231-78.232c0-43.207-35.025-78.232-78.231-78.232s-78.231 35.025-78.231 78.232" style="fill:#c0111e;fill-opacity:1;fill-rule:evenodd;stroke:none;stroke-width:1.05833328" transform="translate(-11838.922 -3198.191)"/>
  <path d="M11988.94 3541.37c-33.396 0-60.471-27.074-60.471-60.47s27.075-60.47 60.471-60.47 60.468 27.073 60.468 60.47-27.072 60.469-60.468 60.47m0-138.699c-43.203 0-78.228 35.026-78.228 78.228 0 43.204 35.025 78.228 78.228 78.228s78.228-35.024 78.228-78.228c0-43.202-35.025-78.228-78.228-78.228" style="fill:#016d57;fill-opacity:1;fill-rule:evenodd;stroke:none;stroke-width:1.05833328" transform="translate(-11838.922 -3198.191)"/>
  <path d="M12018.574 3487.355h-59.184c-1.5 0-2.547-1.214-2.328-2.699l2.571-17.379c.21-1.484 1.626-2.699 3.126-2.699h52.446c1.5 0 2.907 1.215 3.126 2.7l2.571 17.378c.21 1.486-.828 2.699-2.328 2.699m-3.09 13.053a2.948 2.948 0 1 1-.001-5.898 2.948 2.948 0 0 1 .001 5.898m-53.091 0a2.95 2.95 0 0 1-2.949-2.948 2.95 2.95 0 0 1 5.898 0 2.95 2.95 0 0 1-2.949 2.948m3.573-45.825c0-.501.408-.91.909-.91h44.217a.91.91 0 0 1 .906.908v.91a.91.91 0 0 1-.906.909h-44.217a.91.91 0 0 1-.909-.91zm66.951 31.59-5.721-34.845c-.321-1.975-2.223-3.59-4.224-3.59h-68.064c-2.001 0-3.903 1.615-4.227 3.59l-5.718 34.845c-.324 1.972.06 5.085.879 6.917l6.045 13.713c.807 1.83 2.769 3.905 4.356 4.61 1.587.707 2.889 1.284 2.889 1.284h.12v4.331h8.343v-3.689h42.696v3.69h8.343v-4.332h.12l2.886-1.284c1.587-.705 3.546-2.78 4.356-4.61l6.045-13.713c.807-1.832 1.203-4.945.879-6.917" style="fill:#000;fill-opacity:1;fill-rule:evenodd;stroke:none;stroke-width:1.05833328" transform="translate(-11838.922 -3198.191)"/>
</svg>
