<svg xmlns="http://www.w3.org/2000/svg" viewBox="0 0 600 750" role="img" aria-labelledby="title">
  <title id="title">Verkehrszeichen Rb-25 - Keep right</title>
  <path d="M7286.833 4908.462c21.044 0 38.1-17.059 38.1-38.1v-673.804c0-21.04-17.056-38.096-38.1-38.096h-523.801c-21.043 0-38.098 17.056-38.098 38.096v673.806c0 21.04 17.054 38.098 38.098 38.098z" style="fill:#fff;fill-opacity:1;fill-rule:evenodd;stroke:#000;stroke-width:1;stroke-miterlimit:4;stroke-dasharray:none" transform="translate(-6724.934 -4158.462)"/>
  <path d="M7299.848 4870.349c0 7.235-5.866 13.102-13.101 13.102h-523.798c-7.236 0-13.1-5.867-13.1-13.104v-673.798c0-7.236 5.864-13.1 13.1-13.1h523.798c7.235 0 13.1 5.864 13.1 13.1zm-13.092-701.892h-523.802c-15.518 0-28.098 12.58-28.098 28.097v673.805c0 15.517 12.58 28.097 28.098 28.097h523.802c15.518 0 28.098-12.584 28.098-28.099v-673.805c0-15.517-12.58-28.097-28.098-28.097" style="fill:#000;fill-opacity:1;fill-rule:evenodd;stroke:none;stroke-width:1.76389182" transform="translate(-6724.934 -4158.462)"/>
  <path d="m6999.07 4277.79-.798 37.892c-5.184 44.275 1.995 89.348-17.554 133.224-17.944 39.088-42.676 68.605-85.355 82.564h-.495c-42.68-13.959-67.41-43.476-85.354-82.564-19.55-43.876-12.37-88.95-17.555-133.224l-.799-37.892zM7125.58 4375.468l-.054 46.332c-.67 24.307-4.58 48.11-17.329 70.067-23.237 40.02-63.994 58.113-95.94 89.179-68.463 66.576-81.606 141.74-81.606 232.957l.095 38.126h66.94v-52.03c0-51.797 4.427-99.69 35.295-143.51 26.41-37.489 67.811-55.872 98.792-88.5 34.588-36.428 58.797-84.171 58.797-134.859v-57.776c17.216 2.782 38.979 13.942 56.473 15.053 6.666-2.222 12.774-8.888 11.665-16.935-.838-5.556-4.172-9.442-6.39-13.88-32.204-48.588-95.482-144.928-95.482-144.928s-62.743 96.34-94.947 144.928c-2.222 4.438-5.552 8.324-6.387 13.88-1.117 8.047 4.996 14.713 11.658 16.935 17.49-1.11 41.822-10.31 58.422-15.053" style="fill:#000;fill-opacity:1;fill-rule:evenodd;stroke:none;stroke-width:1.76389182" transform="translate(-6724.934 -4158.462)"/>
</svg>
