<svg xmlns="http://www.w3.org/2000/svg" viewBox="0 0 600 600" role="img" aria-labelledby="title">
  <title id="title">Verkehrszeichen Rb-73 - Automobiles or motorcycles prohibited</title>
  <path d="M40011.035-8044.13c20.956 0 38.1-17.146 38.1-38.1v-523.8c0-20.955-17.144-38.1-38.1-38.1h-523.8c-20.952 0-38.1 17.145-38.1 38.1v523.8c0 20.954 17.148 38.1 38.1 38.1z" style="fill:#fff;fill-opacity:1;fill-rule:evenodd;stroke:#000;stroke-width:1;stroke-miterlimit:4;stroke-dasharray:none" transform="translate(-39449.135 8644.13)"/>
  <path d="M40024.183-8082.213c0 7.233-5.864 13.1-13.1 13.1h-523.8c-7.232 0-13.1-5.869-13.1-13.103v-523.797c0-7.234 5.868-13.1 13.1-13.1h523.8c7.236 0 13.1 5.866 13.1 13.1zm-13.088-551.891h-523.812c-15.512 0-28.092 12.58-28.092 28.094v523.81c0 15.515 12.58 28.095 28.092 28.095h523.812c15.516 0 28.096-12.582 28.096-28.095v-523.81c0-15.514-12.58-28.094-28.096-28.094" style="fill:#000;fill-opacity:1;fill-rule:evenodd;stroke:none;stroke-width:1.41110921" transform="translate(-39449.135 8644.13)"/>
  <path d="M39555.163-8344.13c0-46.963 16.692-90.029 44.468-123.588l273.096 273.094c-33.56 27.774-76.624 44.466-123.592 44.466-107.124 0-193.972-86.845-193.972-193.972m193.976-193.972c107.124 0 193.972 86.846 193.972 193.972 0 46.9-16.648 89.911-44.352 123.452l-273.076-273.072c33.54-27.705 76.556-44.352 123.456-44.352m250.936 193.972c0-138.586-112.352-250.936-250.936-250.936-138.588 0-250.94 112.35-250.94 250.936s112.352 250.937 250.94 250.937c138.584 0 250.936-112.35 250.936-250.937" style="fill:#c0111e;fill-opacity:1;fill-rule:evenodd;stroke:none;stroke-width:1.41110921" transform="translate(-39449.135 8644.13)"/>
  <path d="M39846.739-8278.803c.988-.5 1.744-.83 2.12-.895 2.376-.41 10.236 3.439 18.176 15.883 1.808 2.834 8.064 1.906 8.064 1.906-4.136-15.987-19.344-25.275-19.344-25.275 1.928-1.616 11.388-4.908 8.112-13.263-1.456-3.713-3.252-4.23-6.956-3.588-5.236.907-7.104-1.79-7.104-1.79l2.1-11.766c.572-3.44-.428-5.977-3.184-6.997-6.024-2.173-8.208 4.816-8.208 4.816l-5.916 10.294-1.688-1.084s0-3.98-4.392-2.908l-13.304 3.142zM39658.719-8214.71c-11.988 0-21.708-9.718-21.708-21.707s9.72-21.708 21.708-21.708c3 0 5.864.61 8.464 1.714l-4.484 7.054a13.5 13.5 0 0 0-3.98-.597c-7.476 0-13.536 6.06-13.536 13.537 0 7.476 6.06 13.536 13.536 13.536 7.472 0 13.532-6.06 13.532-13.536 0-3.415-1.26-6.532-3.348-8.912l4.232-7.318a21.66 21.66 0 0 1 7.288 16.23c0 11.989-9.72 21.707-21.704 21.707m184.644-2.975a23.84 23.84 0 0 1-14.928 5.237c-11.496 0-21.1-8.091-23.432-18.886l8.18.208c2.188 6.316 8.192 10.849 15.252 10.849a16.05 16.05 0 0 0 9.34-2.994l-23.136-23.138-7.936-.04s.988-2.287 3.032-4.884l-67.684-67.68c-12.332-6.016-24.188-10.353-26.024-8.906-3.688 2.904-3.688 4.542-6.624 5.767 1.02-3.864 5.192-17.798 9.944-17.297 1.052 0 2.012.268 2.916.645l-6.284-6.283c-1.228.585-2.328 1.376-3.14 2.34-2.244 2.661-10.224 17.124-12.484 20.907-2.448-2.26-5.592-5.177-8.04-7.436 0 0-2.34 1.916-2.26 4.616.08 2.387 2.536 4.352 1.876 6.877-.916 3.486-4.312 1.76-6.624 1.298-2.996-.6-5.024-1.024-5.544 2.759-.4 2.895.08 4.16.08 7.078 0 2.554-1.112 8.176 1.492 9.477 2.524 1.26 5.484-1.703 7.776-1.89-.16 1.412.584 1.304.36 3.808l-8.796 15.54s-20.036-11.728-43.064-.938c0 0 2.976 3.832 7.52 4.672 16.252-5.732 32.424 2.506 32.424 2.506l-1.816 3.02a37.9 37.9 0 0 0-17.044-4.033c-21.016 0-38.052 17.038-38.052 38.052 0 21.015 17.036 38.05 38.052 38.05s38.048-17.035 38.048-38.05c0-12.373-6.164-23.59-14.808-30.061l1.544-2.921s13.6 9.251 15.916 27.458c.444 3.494 5.94-3.274 5.616-7.488-2.752-14.759-17.788-26.211-17.788-26.211l7.18-14.042c.912 3.199 1.936 7.505 4.992 9.986 2.96 2.402 5.676-1.22 5.676-1.22l2.076-.155 1.848 1.929s-.544 2.364-1.048 3.68c-1.2 2.053-3.356 5.518-3.356 5.518 3.62 2.343 7.456 4.632 11.652 5.853 4.556 1.322 5.776 3.214 8.36 8.252 10.456 20.404 16.956 22.987 20.556 25.064 6.888 3.972 33.608.592 45.476-1.11 2.244 18.876 18.292 33.52 37.776 33.52 9.54 0 18.252-3.518 24.928-9.317zM39642.439-8418.606l-25.116-25.117-15.356 2.437-3.392 27.869-.752 1.13 1.508 13.183h35.596c0-.328-.04-.65-.04-.984 0-7.21 2.888-13.74 7.56-18.518M39710.811-8476.312h42.556v27.871h-72.308zm51.22 0h32.768l10.164 27.116h-42.932zm-36.08 76.722 71.624-.396v-.104c0-14.637 11.868-26.503 26.508-26.503 14.588 0 26.416 11.788 26.496 26.356h55.328l-2.26-13.182h-1.884l-7.532-30.506-51.22-4.518-33.52-34.65h-100.18l-34.984 31.869zM39645.851-8415.197c-3.8 3.906-6.148 9.23-6.148 15.11 0 11.976 9.708 21.684 21.68 21.684 5.884 0 11.208-2.35 15.112-6.15z" style="fill:#000;fill-opacity:1;fill-rule:evenodd;stroke:none;stroke-width:1.41110921" transform="translate(-39449.135 8644.13)"/>
  <path d="M39824.075-8378.402c11.976 0 21.684-9.709 21.684-21.686 0-11.975-9.708-21.683-21.684-21.683s-21.684 9.708-21.684 21.683c0 11.977 9.708 21.686 21.684 21.686" style="fill:#000;fill-opacity:1;fill-rule:evenodd;stroke:none;stroke-width:1.41110921" transform="translate(-39449.135 8644.13)"/>
</svg>
