<svg xmlns="http://www.w3.org/2000/svg" viewBox="0 0 600 600" role="img" aria-labelledby="title">
  <title id="title">Verkehrszeichen Rb-16 - No U-turns</title>
  <g style="display:inline">
    <path d="M38785.612-7137.133c20.956 0 38.1-17.145 38.1-38.1v-523.8c0-20.956-17.144-38.1-38.1-38.1h-523.8c-20.952 0-38.1 17.144-38.1 38.1v523.8c0 20.955 17.148 38.1 38.1 38.1z" style="fill:#fff;fill-opacity:1;fill-rule:evenodd;stroke:#000;stroke-width:1;stroke-miterlimit:4;stroke-dasharray:none" transform="translate(-38223.712 7737.133)"/>
    <path d="M38798.76-7175.216c0 7.234-5.864 13.1-13.1 13.1h-523.8c-7.232 0-13.1-5.867-13.1-13.101v-523.799c0-7.233 5.868-13.1 13.1-13.1h523.8c7.236 0 13.1 5.867 13.1 13.1zm-13.088-551.892h-523.812c-15.512 0-28.092 12.58-28.092 28.094v523.811c0 15.514 12.58 28.094 28.092 28.094h523.812c15.516 0 28.096-12.58 28.096-28.094v-523.811c0-15.514-12.58-28.094-28.096-28.094" style="display:inline;fill:#000;fill-opacity:1;fill-rule:evenodd;stroke:none;stroke-width:1.41111" transform="translate(-38223.712 7737.133)"/>
    <path d="M38399.03-7489.825c0-65.443 53.05-118.495 118.494-118.495 65.442-.001 118.495 53.051 118.495 118.495v190.067h-47.591v-190.067c0-39.159-31.746-70.903-70.904-70.903s-70.903 31.745-70.903 70.903v102.068l27.322-9.96c1.008-.503 2.015-.503 3.273-.503a9.027 9.027 0 0 1 9.066 9.065c0 2.015-.504 3.525-1.511 5.036l-61.946 90.15-61.946-90.15c-1.007-1.51-1.51-3.021-1.51-5.036a9.027 9.027 0 0 1 9.065-9.065c1.259 0 2.266 0 3.273.503l27.323 9.96z" style="display:inline;fill:#000;fill-opacity:1;stroke:none;stroke-width:4.73758;stroke-linejoin:round" transform="translate(-38223.712 7737.133)"/>
    <path d="m38660.059-7300.817-272.66-272.66" style="display:inline;fill:#393939;stroke:#fff;stroke-width:45.6337;stroke-linejoin:round;stroke-miterlimit:4;stroke-dasharray:none;stroke-opacity:1" transform="translate(-38223.712 7737.133)"/>
    <path d="M1133.865 185.434c-525.43 0-948.426 422.997-948.426 948.425 0 525.429 422.996 948.428 948.426 948.428 525.426 0 948.428-423 948.428-948.428s-423.002-948.425-948.428-948.425m0 215.302c406.148 0 733.123 326.974 733.123 733.125 0 178.024-62.835 340.82-167.605 467.553L666.31 568.344c126.732-104.772 289.53-167.608 467.554-167.608M568.355 666.3l1033.07 1033.072c-126.733 104.775-289.533 167.613-467.56 167.613-406.152 0-733.125-326.971-733.125-733.123 0-178.028 62.84-340.828 167.615-467.562" style="display:inline;fill:#c0111e;fill-opacity:1;stroke-width:.0999999;stroke-linecap:round" transform="scale(.26458)"/>
  </g>
</svg>
