<svg xmlns="http://www.w3.org/2000/svg" viewBox="0 0 600 750" role="img" aria-labelledby="title">
  <title id="title">Verkehrszeichen Rb-2 - Truck maximum speed</title>
  <path d="M3203.803-2021.976c21.043 0 38.1-17.057 38.1-38.096v-673.807c0-21.04-17.057-38.097-38.1-38.097h-523.8c-21.043 0-38.1 17.057-38.1 38.097v673.807c0 21.04 17.057 38.096 38.1 38.096z" style="fill:#fff;fill-opacity:1;fill-rule:nonzero;stroke:#000;stroke-width:1;stroke-miterlimit:4;stroke-dasharray:none" transform="translate(-2641.903 2771.976)"/>
  <path d="M3216.816-2060.087c0 7.236-5.865 13.1-13.1 13.1h-523.797c-7.233 0-13.102-5.863-13.102-13.1v-673.8c0-7.237 5.869-13.1 13.102-13.1h523.797c7.235 0 13.1 5.863 13.1 13.1zm-13.091-701.894h-523.8c-15.519 0-28.1 12.58-28.1 28.097v673.807c0 15.515 12.581 28.1 28.1 28.1h523.8c15.518 0 28.098-12.585 28.098-28.1v-673.807c0-15.517-12.58-28.097-28.098-28.097" style="fill:#000;fill-opacity:1;fill-rule:nonzero;stroke:none;stroke-width:1.76388919" transform="translate(-2641.903 2771.976)"/>
  <path d="M2777.81-2695.036v93.435h-15.911v-93.435h-19.813v-15.042h55.539v15.042zM2838.122-2694.169h-16.2v27.192h14.175c10.414 0 14.608-4.917 14.608-13.162 0-6.798-2.603-14.03-12.583-14.03m12.728 40.21 15.62 52.357h-16.922l-15.042-49.463h-12.584v49.463h-15.91v-108.477h34.713c16.055 0 26.035 14.175 26.035 29.94 0 14.464-7.666 22.564-15.91 26.18M2907.403-2600.155c-13.018 0-29.94-9.98-29.94-30.372v-79.552h15.91v79.552c0 7.52 7.232 14.462 14.464 14.462s14.464-6.943 14.464-14.462v-79.552h15.908v79.552c0 20.392-17.357 30.372-30.806 30.372M2995.197-2683.465s-1.157-12.15-12.728-12.15c-17.067 0-16.487 28.64-16.487 40.355 0 11.858-.58 39.195 16.487 39.195 11.427 0 12.728-9.69 12.728-12.15v-2.89h15.91v5.06c0 7.377-6.798 25.89-28.638 25.89-21.696 0-32.688-18.803-32.688-55.105 0-39.196 10.992-56.265 32.688-56.265 21.84 0 28.638 19.816 28.638 28.06zM3018.918-2601.6v-108.478h15.91v42.811l24.589-42.811h18.08l-21.987 38.472 25.313 70.005h-17.501l-18.513-51.2-9.98 17.357v33.843zM3114.525-2600.155c-17.79 0-30.374-14.319-30.374-30.372v-4.195h15.765v4.195c.145 10.701 9.112 15.04 14.609 15.04 6.798 0 14.751-4.628 14.751-15.04 0-8.534-6.507-18.948-17.646-24.157-11.424-5.35-24.297-12.726-24.297-29.215 0-12.873 9.98-27.626 28.636-27.626 16.636 0 27.192 15.766 27.192 27.481h-15.908c0-3.037-3.037-11.715-11.428-11.715-8.245 0-12.437 7.232-12.437 11.86 0 6.798 6.653 10.703 17.935 16.778 15.331 8.098 23.576 22.853 23.576 36.594 0 15.33-12.873 30.372-30.374 30.372M2754.885-2465.78v-57.855l-20.394 57.71-20.103-57.71v57.854h-15.91v-108.478h15.91l20.25 58 20.247-58h15.91v108.478zM2821.273-2511.052l-6.798-28.058-6.798 28.058zm-17.356 15.187-7.23 30.085h-17.067l26.322-108.478h17.067l26.324 108.478h-17.067l-7.232-30.085zM2895.907-2522.768l24.444 56.988h-17.79l-15.477-36.16-15.476 36.16h-17.79l24.443-56.988-22.13-51.49h17.791l13.162 30.809 13.162-30.808h17.79zM2929.607-2574.258h15.91v108.477h-15.91zM3013.928-2465.78v-57.855l-20.394 57.71-20.103-57.71v57.854h-15.91v-108.478h15.91l20.25 58 20.247-58h15.912v108.478zM3071.784-2464.335c-13.018 0-29.94-9.98-29.94-30.372v-79.552h15.91v79.552c0 7.52 7.231 14.462 14.463 14.462s14.464-6.943 14.464-14.462v-79.552h15.91v79.552c0 20.392-17.356 30.372-30.808 30.372M3170.571-2465.78v-57.855l-20.394 57.71-20.105-57.71v57.854h-15.908v-108.478h15.908l20.252 58 20.247-58h15.91v108.478z" style="fill:#000;fill-opacity:1;fill-rule:nonzero;stroke:none;stroke-width:1.76388919" transform="translate(-2641.903 2771.976)"/>
  <path d="M2915.638-2367.061q-46.586 54.687-72.917 128.11-26.33 73.423-26.33 145.327h-50.637q0-60.257 16.204-121.021 13.165-49.118 35.445-94.69 16.71-33.927 34.433-57.726h-153.935v-50.637h217.737zM3185.905-2255.661q0 65.828-22.787 109.375-29.369 56.713-91.146 56.713t-91.145-56.207q-22.787-43.547-22.787-109.881 0-65.828 22.787-109.375 29.369-56.713 91.145-56.713 61.777 0 91.146 56.207 22.787 43.547 22.787 109.881m-50.637 0q0-50.637-14.178-80.512-16.71-34.94-49.117-34.94-31.901 0-48.612 34.94-14.684 30.888-14.684 80.512 0 50.637 14.178 80.512 16.71 34.94 49.118 34.94 31.9 0 48.61-34.94 14.685-30.888 14.685-80.512" style="font-style:normal;font-variant:normal;font-weight:400;font-stretch:normal;font-size:medium;line-height:1em;font-family:HGDPIXymbols;-inkscape-font-specification:HGDPIXymbols;text-align:start;letter-spacing:0;word-spacing:0;text-anchor:start;fill:#000;fill-opacity:1;stroke:none;stroke-width:2.63732195" transform="translate(-2641.903 2771.976)"/>
</svg>
