<svg xmlns="http://www.w3.org/2000/svg" viewBox="0 0 606 606" role="img" aria-labelledby="title">
  <title id="title">Verkehrszeichen Rb-76-ON - Rb-76 (Ontario)</title>
  <g transform="translate(0 309)">
    <rect width="604" height="604" x="1" y="-308" rx="42" ry="42" style="fill:#000;fill-opacity:1;stroke:none;stroke-width:242.42451477;stroke-linecap:round;stroke-linejoin:round;stroke-miterlimit:1.41400003;stroke-dasharray:none;stroke-opacity:1"/>
    <rect width="600" height="600" x="3" y="-306" rx="40" ry="40" style="fill:#fff;fill-opacity:1;stroke:none;stroke-width:240.81906128;stroke-linecap:round;stroke-linejoin:round;stroke-miterlimit:1.41400003;stroke-dasharray:none;stroke-opacity:1"/>
    <rect width="575" height="575" x="15.5" y="-293.5" rx="27.5" ry="27.5" style="fill:#000;fill-opacity:1;stroke:none;stroke-width:230.78494263;stroke-linecap:round;stroke-linejoin:round;stroke-miterlimit:1.41400003;stroke-dasharray:none;stroke-opacity:1"/>
    <rect width="550" height="550" x="28" y="-281" rx="15" ry="15" style="fill:#fff;fill-opacity:1;stroke:none;stroke-width:220.75080872;stroke-linecap:round;stroke-linejoin:round;stroke-miterlimit:1.41400003;stroke-dasharray:none;stroke-opacity:1"/>
    <g aria-label="50" style="font-style:normal;font-variant:normal;font-weight:400;font-stretch:normal;font-size:432.27664185px;line-height:1.25;font-family:&quot;Roadgeek 2005 Series D&quot;;-inkscape-font-specification:&quot;Roadgeek 2005 Series D&quot;;letter-spacing:0;word-spacing:0;fill:#000;fill-opacity:1;stroke:none;stroke-width:10.80691528">
      <g aria-label="MAXIMUM" style="font-style:normal;font-variant:normal;font-weight:400;font-stretch:normal;font-size:146.62756348px;line-height:1.25;font-family:&quot;Roadgeek 2005 Series C&quot;;-inkscape-font-specification:&quot;Roadgeek 2005 Series C&quot;;letter-spacing:0;word-spacing:0;fill:#000;fill-opacity:1;stroke:none;stroke-width:39.61479187" transform="translate(3.408 -7.684)">
        <path d="M497.092-208.315h-259v38h-59.9l-21.872 61.049-17.652 2.795c-14.911 2.417-17.235 5.566-17.235 5.566-2.976 3.283-4.895 7.681-4.635 11.65l2.194 50.94h-16.9v20h136v-18.6h259zM190.566-151.13H228.5v49.606h-54.068z" style="fill:#000;fill-opacity:1;fill-rule:nonzero;stroke:none;stroke-width:3.54893661"/>
        <path d="M110.492 7.684h385v24h-385z" style="opacity:1;fill:#000;fill-opacity:1;fill-rule:nonzero;stroke:none;stroke-width:31.4722538;stroke-linecap:round;stroke-linejoin:round;stroke-miterlimit:4;stroke-dasharray:none;stroke-opacity:1"/>
        <circle cx="180.492" cy="-22.116" r="35.8" style="opacity:1;fill:#000;fill-opacity:1;fill-rule:nonzero;stroke:none;stroke-width:38.9483223;stroke-linecap:round;stroke-linejoin:round;stroke-miterlimit:4;stroke-dasharray:none;stroke-opacity:1"/>
        <circle cx="408.992" cy="-24.116" r="37.8" style="opacity:1;fill:#000;fill-opacity:1;fill-rule:nonzero;stroke:none;stroke-width:41.12420654;stroke-linecap:round;stroke-linejoin:round;stroke-miterlimit:4;stroke-dasharray:none;stroke-opacity:1"/>
        <path d="M184.592 211.684s36.665-40.716 41.655-45.952c2.229-2.316 1.624-5.61-1.344-7.346-1.765-1.034-4.193-1.227-6.16-.765-4.072 1.11-17.651 4.363-17.651 4.363v-80.3h-33v80.3s-13.58-3.253-17.651-4.363c-1.968-.462-4.395-.269-6.16.765-2.968 1.737-3.573 5.03-1.344 7.346 4.99 5.236 41.655 45.952 41.655 45.952M414.592 211.684s-36.665-40.716-41.655-45.952c-2.229-2.316-1.624-5.61 1.344-7.346 1.764-1.034 4.193-1.227 6.16-.765 4.072 1.11 17.651 4.363 17.651 4.363v-80.3h33v80.3s13.58-3.253 17.651-4.363c1.967-.462 4.395-.269 6.16.765 2.968 1.737 3.573 5.03 1.344 7.346-4.99 5.236-41.655 45.952-41.655 45.952" style="fill:#000;fill-opacity:1;fill-rule:nonzero;stroke:none;stroke-width:.73492855;stroke-linecap:butt;stroke-linejoin:miter;stroke-miterlimit:4;stroke-dasharray:none;stroke-opacity:1"/>
      </g>
    </g>
  </g>
</svg>
