<svg xmlns="http://www.w3.org/2000/svg" viewBox="0 0 600 750" role="img" aria-labelledby="title">
  <title id="title">Verkehrszeichen Rc-11 - Stop line</title>
  <path d="M51481.998-17393.001c21.045 0 38.1-17.06 38.1-38.1v-673.805c0-21.04-17.055-38.095-38.1-38.095h-523.8c-21.04 0-38.1 17.055-38.1 38.095v673.805c0 21.04 17.06 38.1 38.1 38.1z" style="fill:#fff;fill-opacity:1;fill-rule:evenodd;stroke:#000;stroke-width:1;stroke-miterlimit:4;stroke-dasharray:none" transform="translate(-50920.098 18143.001)"/>
  <path d="M51495.013-17431.111c0 7.235-5.865 13.1-13.1 13.1h-523.8c-7.235 0-13.1-5.865-13.1-13.1v-673.8c0-7.235 5.865-13.1 13.1-13.1h523.8c7.235 0 13.1 5.865 13.1 13.1zm-13.095-701.89h-523.8c-15.52 0-28.1 12.58-28.1 28.095v673.805c0 15.52 12.58 28.1 28.1 28.1h523.8c15.52 0 28.1-12.58 28.1-28.1v-673.805c0-15.515-12.58-28.095-28.1-28.095" style="fill:#000;fill-opacity:1;fill-rule:evenodd;stroke:none;stroke-width:1.76388884" transform="translate(-50920.098 18143.001)"/>
  <path d="M51054.333-17931.531c-39.04 0-48.575-35.44-48.575-35.44s21.59-7.56 21.41-7.56c0 0 4.315 20.87 27.165 20.87 11.335 0 22.31-7.375 22.31-19.79 0-19.79-26.99-19.61-41.2-23.39-11.515-3.24-22.85-17.45-22.85-32.565 0-19.97 16.37-40.66 41.56-40.66 31.125 0 40.66 29.145 40.66 29.145l-21.77 6.66s-4.135-13.675-18.89-13.675c-10.075 0-19.25 8.455-19.25 16.91 0 16.015 16.19 13.675 33.465 18.535 23.03 6.295 30.945 26.805 30.945 39.04 0 24.11-19.79 41.92-44.98 41.92M51168.398-18047.756v114.425h-23.03v-114.425h-30.765v-20.51h84.56v20.51zM51280.308-18037.321c-2.88-5.76-9.895-10.435-17.99-10.435-7.92 0-15.115 4.675-17.815 10.435-4.675 9.535-7.915 25.365-7.915 36.88 0 11.52 3.06 28.79 7.375 36.885 3.24 5.935 9.535 10.435 18.355 10.435 8.99 0 15.29-4.5 18.53-10.435 4.32-8.095 7.375-25.365 7.375-36.885 0-11.515-3.24-27.345-7.915-36.88m21.59 82.76c-5.22 10.795-18.71 23.03-39.58 23.03s-34.185-12.235-39.405-23.03c-6.835-13.675-8.815-31.305-8.815-45.88 0-16.55 3.24-38.68 13.675-52.535 7.015-9.535 19.79-17.09 34.545-17.09 14.93 0 27.705 7.555 34.72 17.09 10.435 13.855 13.675 35.985 13.675 52.535 0 14.575-1.98 32.205-8.815 45.88M51391.313-18046.676h-31.485v33.285h32.385c8.995 0 15.65-6.835 15.65-15.835 0-10.255-7.55-17.45-16.55-17.45m-1.26 55.415h-30.225v57.93h-21.59v-134.935h52.715c20.15 0 39.4 16.91 39.4 37.605 0 22.125-16.19 39.4-40.3 39.4M51038.858-17756.911v-134.935h21.59v114.605h63.15v20.33zM51142.673-17891.851h21.59v134.94h-21.59zM51264.113-17756.911l-49.295-85.28v85.28h-21.59v-134.935h19.97l49.475 86.36v-86.36h21.59v134.935zM51313.228-17756.911v-134.935h80.6v21.59h-59.01v31.665h40.48v21.59h-40.48v38.5h62.43v21.59zM51021.618-17585.776l-15.23 97.895.45-.15-.15.45 97.895-15.23c5.43-.825 11.185-9.045 3.485-14.5l-22.915-15.955 149.88-149.88-33.065-33.065-149.885 149.88-15.955-22.92c-5.665-7.91-13.88-.945-14.5 3.485" style="fill:#000;fill-opacity:1;fill-rule:evenodd;stroke:none;stroke-width:1.76388884" transform="translate(-50920.098 18143.001)"/>
</svg>
