<svg xmlns="http://www.w3.org/2000/svg" viewBox="0 0 241.942 241.936" role="img" aria-labelledby="title">
  <title id="title">Verkehrszeichen Rb-63 - Maximum weight</title>
  <path d="m235 375 80-170 80 170-80 170z" style="fill:none;stroke:#fff;stroke-width:40" transform="translate(675.095 -343.887)"/>
  <path d="M1.129 230.82c0 5.516 4.477 9.988 9.99 9.988h219.71c5.514 0 9.984-4.472 9.984-9.988V11.113a9.983 9.983 0 0 0-9.983-9.984H11.12c-5.514 0-9.991 4.468-9.991 9.984z" style="fill:#fff;fill-rule:evenodd;stroke:#000;stroke-opacity:1;stroke-width:1.12888899;stroke-miterlimit:4;stroke-dasharray:none"/>
  <path d="M4.318 230.81q0 2.812 1.99 4.802 1.99 1.991 4.805 1.992h219.706c1.873 0 3.475-.665 4.798-1.992q1.991-1.99 1.993-4.802V11.102q-.002-2.813-1.993-4.799-1.987-1.988-4.798-1.987H11.113q-2.816-.001-4.805 1.987-1.99 1.986-1.99 4.8z" style="fill:#000;fill-rule:evenodd;stroke:none"/>
  <path d="M9.105 230.813c0 .551.198 1.024.586 1.413.395.393.864.59 1.418.59h219.706c.547 0 1.02-.197 1.408-.587.392-.392.586-.86.586-1.416V11.106c0-.551-.19-1.02-.582-1.41a1.93 1.93 0 0 0-1.412-.585H11.11c-.557 0-1.027.197-1.418.586a1.94 1.94 0 0 0-.586 1.409z" style="fill:#fff;fill-rule:evenodd;stroke:none"/>
  <path d="M40.785 206.17h23.198l20.62-34.037 20.564 34.038h22.997L96.14 153.175 124.52 106.3h-23.354l-16.662 27.647L67.896 106.3H44.644l28.332 46.787zM198.184 203.177l2.635-16.178c-4.114 3.834-6.671 4.489-8.59 4.489-1.874 0-3.193-.707-4.244-2.319-.6-.903-1.306-2.394-1.306-6.925l.053-19.802c.053-.369.36-.72.868-.72h13.526l-.025-15.655-13.65-.106a.884.884 0 0 1-.825-1.016l.053-20.375-15.536 5.991.07 14.718c.025.627-.377.971-.924.944l-10.093-.09-.077 15.768 10.145-.072c.533 0 .868.351.868.85l-.067 25.308c0 3.887.11 4.379.258 5.178 1.351 8.004 7.267 13.075 15.751 13.075 3.426 0 7.515-1.024 11.11-3.063zM63.419 52.681l3.577-10.486 3.553 10.486zm-11.095 15.52h5.793l3.47-10.114h10.838L75.886 68.2h5.754L69.663 33.247h-5.397zm33.235 0h6.072l5.693-11.796 5.698 11.796h6.064l-8.72-18.086 8.159-16.847h-6.082l-5.136 10.535-5.07-10.556h-6.046l8.096 16.868zm29.157 0h5.437V33.247h-5.437zm13.3 0h5.49V48l8.11 20.202 8.057-20.112v20.112h5.472V33.247h-5.49l-8.04 20.168-8.089-20.147h-5.51zm34.83-34.947.056 25.343C163.29 64.15 168.37 69 174.417 69c6.431 0 11.603-4.858 11.85-11.559V33.275H180.9v24.081c0 3.297-2.925 6.226-6.297 6.226-2.06 0-4.138-1.044-5.292-2.763-.674-1-1.03-2.033-1.083-3.621V33.254zm30.716 34.947h5.49V48l8.11 20.202 8.06-20.112v20.112h5.469V33.247h-5.49l-8.04 20.168-8.088-20.147h-5.51zm-172.325 0h5.486V48l8.11 20.202 8.058-20.112v20.112h5.468V33.247h-5.486l-8.04 20.168-8.089-20.147h-5.507z" style="fill:#000;fill-rule:evenodd;stroke:none"/>
</svg>
