<svg xmlns="http://www.w3.org/2000/svg" viewBox="0 0 600 600" role="img" aria-labelledby="title">
  <title id="title">Verkehrszeichen Rb-32 - Pass with care</title>
  <path d="M38785.612-7137.133c20.956 0 38.1-17.145 38.1-38.1v-523.8c0-20.956-17.144-38.1-38.1-38.1h-523.8c-20.952 0-38.1 17.144-38.1 38.1v523.8c0 20.955 17.148 38.1 38.1 38.1z" style="fill:#fff;fill-opacity:1;fill-rule:evenodd;stroke:#000;stroke-width:1;stroke-miterlimit:4;stroke-dasharray:none" transform="translate(-38223.712 7737.133)"/>
  <path d="M38798.76-7175.216c0 7.234-5.864 13.1-13.1 13.1h-523.8c-7.232 0-13.1-5.867-13.1-13.101v-523.799c0-7.233 5.868-13.1 13.1-13.1h523.8c7.236 0 13.1 5.867 13.1 13.1zm-13.088-551.892h-523.812c-15.512 0-28.092 12.58-28.092 28.094v523.811c0 15.514 12.58 28.094 28.092 28.094h523.812c15.516 0 28.096-12.58 28.096-28.094v-523.811c0-15.514-12.58-28.094-28.096-28.094" style="fill:#000;fill-opacity:1;fill-rule:evenodd;stroke:none;stroke-width:1.41111" transform="translate(-38223.712 7737.133)"/>
  <path d="M1133.856 185.434c-525.43 0-948.426 422.997-948.426 948.425 0 525.429 422.997 948.428 948.425 948.428 525.43 0 948.428-422.999 948.428-948.428s-422.999-948.425-948.427-948.425m0 215.3c406.15 0 733.124 326.974 733.124 733.125s-326.973 733.125-733.125 733.125c-406.15 0-733.124-326.973-733.124-733.125 0-406.15 326.973-733.125 733.124-733.125" style="fill:#00674c;fill-opacity:1;stroke-width:.309161;stroke-linecap:round" transform="scale(.26458)"/>
  <path d="M38573.616-7418.007h97.593v20.608h-97.593zm-5.041-75.856s24.021-5.034 54.007-5.034 54.403 5.267 54.403 5.267l6.478 31.71h-71.149s-6.149-7.364-16.451-9.037c4.316-1.64 7.39-5.804 7.39-10.697 0-6.323-5.128-11.45-11.45-11.45-6.325 0-11.45 5.126-11.45 11.45 0 4.866 3.04 9.013 7.32 10.67-10.444 1.59-16.961 8.798-16.961 8.798l-7.913-.934zm-151.622 31.944s-6.146-7.365-16.45-9.038c4.316-1.64 7.39-5.804 7.39-10.697 0-6.323-5.127-11.45-11.45-11.45s-11.45 5.126-11.45 11.45c0 4.866 3.041 9.013 7.319 10.67-10.445 1.59-16.96 8.798-16.96 8.798l-7.913-.934 5.777-30.743s24.021-5.034 54.007-5.034 54.403 5.267 54.403 5.267l6.479 31.71zm58.897 64.55h-97.594v-20.638h97.594zm221.571-20.404v-13.205h-3.374v-23.739l-4.34-8.67-7.448-35.51s-25.106-6.236-59.677-6.236c-34.572 0-58.579 5.502-58.579 5.502l-6.747 34.343-6.978 9.603v23.774h-3.605v13.904h6.745v20.608h-58.103v-20.374h6.745v-13.205h-3.372v-23.739l-4.341-8.67-7.445-35.51s-25.106-6.236-59.679-6.236-58.582 5.502-58.582 5.502l-6.744 34.343-6.979 9.603v23.774h-3.606v13.904h6.746v20.639h-5.276v5.069h342.817v-5.1h-4.924v-20.374z" style="fill:#000;fill-opacity:1;fill-rule:evenodd;stroke:none;stroke-width:1.41111" transform="translate(-38223.712 7737.133)"/>
</svg>
