<svg xmlns="http://www.w3.org/2000/svg" xml:space="preserve" viewBox="-.512 -.12 535.219 535.219" role="img" aria-labelledby="title">
  <title id="title">Verkehrszeichen Rb-48 - Two-way left turn</title>
  <path d="M509.556 533.593c13.06 0 23.653-10.59 23.653-23.653V25.02c0-13.064-10.593-23.653-23.653-23.653H24.632C11.568 1.367.979 11.956.979 25.02v484.92c0 13.064 10.589 23.653 23.653 23.653z" style="fill:#fff;fill-opacity:1;fill-rule:nonzero;stroke:#000;stroke-width:3.00038052;stroke-linecap:butt;stroke-linejoin:miter;stroke-miterlimit:4;stroke-opacity:1;stroke-dasharray:none"/>
  <path d="M509.556 523.245c7.347 0 13.302-5.954 13.302-13.305V25.02c0-7.351-5.955-13.306-13.302-13.306H24.632c-7.347 0-13.302 5.955-13.302 13.306v484.92c0 7.35 5.955 13.305 13.302 13.305z" style="fill:#000;fill-opacity:1;fill-rule:nonzero;stroke:none"/>
  <path d="M225.274 124.987c1.084 28.403 12.193 52.398 26.208 75.163 29.904 38.06 70.288 66.275 119.265 65.15l-5.939 56.116 2.034 2.892c2.15 1.958 4.667 1.53 7.326 1.487l99.838-98.937-99.521-94.52-3.188-.217c-2.246.562-4.092 1.783-4.717 4.184l3.792 67.792c-4.918-.192-9.451-1.721-13.985-2.98-24.183-10.13-50.336-27.8-60.675-53.536-17.96-29.212-11.543-71.13-13.768-104.692-18.07-.925-40.118-1.263-59.216.216zM123.707 401.847 35.175 305.7l95.483-92.966s3.234-1.53 7.693-.775c4.459.759 4.592 8.151 4.592 8.151l-13.218 55.586s40.08 6.885 57.503 15.273c92.261 44.418 96.45 132.863 96.45 132.863l-.3 67.017h-62.975l.263-53.499s-1.262-38.88-29.637-67.87c-27.753-28.359-63.287-28.817-63.287-28.817l9.66 50.602s3.25 10.689-2.55 12.468c-9.498 2.922-11.144-1.887-11.144-1.887" style="fill:#fff;fill-opacity:1;fill-rule:nonzero;stroke:none"/>
</svg>
