<svg xmlns="http://www.w3.org/2000/svg" viewBox="0 0 752 452" role="img" aria-labelledby="title">
  <title id="title">Verkehrszeichen Wa-21t - Use lower gear</title>
  <g transform="translate(0 155)">
    <rect width="750" height="450" x="1" y="-154" rx="40" ry="40" style="opacity:1;fill:#fad214;fill-opacity:1;fill-rule:nonzero;stroke:none;stroke-width:8.96986961;stroke-linecap:round;stroke-linejoin:round;stroke-miterlimit:4;stroke-dasharray:none;stroke-opacity:1"/>
    <rect width="725" height="425" x="13.5" y="-141.5" rx="27.5" ry="27.5" style="opacity:1;fill:#000;fill-opacity:1;fill-rule:nonzero;stroke:none;stroke-width:8.57062817;stroke-linecap:round;stroke-linejoin:round;stroke-miterlimit:4;stroke-dasharray:none;stroke-opacity:1"/>
    <rect width="700" height="400" x="26" y="-129" rx="15" ry="15" style="opacity:1;fill:#fad214;fill-opacity:1;fill-rule:nonzero;stroke:none;stroke-width:8.17011642;stroke-linecap:round;stroke-linejoin:round;stroke-miterlimit:4;stroke-dasharray:none;stroke-opacity:1"/>
    <path d="M96.642 41C83.755 41 67 29.796 67 6.909V-82.38h15.753V6.91c0 8.44 7.162 16.23 14.321 16.23 7.161 0 14.321-7.79 14.321-16.23V-82.38h15.755V6.91c0 22.887-17.186 34.09-30.508 34.09M168.681 41c-17.615 0-30.072-16.07-30.072-34.091V2.2h15.608v4.708c.145 12.015 9.023 16.884 14.464 16.884 6.732 0 14.61-5.194 14.61-16.884 0-9.576-6.446-21.266-17.474-27.112-11.313-6.006-24.059-14.286-24.059-32.788 0-14.453 9.881-31.01 28.355-31.01 16.47 0 26.925 17.695 26.925 30.848h-15.751c0-3.41-3.01-13.153-11.317-13.153-8.163 0-12.314 8.117-12.314 13.315 0 7.628 6.589 12.013 17.757 18.825 15.18 9.092 23.346 25.654 23.346 41.075 0 17.206-12.748 34.09-30.078 34.09M208.64 39.378V-82.379h53.705v17.862h-37.949v29.868h23.198v17.857h-23.198V21.52h38.667v17.858zM337.847 39.378V-82.379h15.755V23.138h40.1v16.24zM453.135 26.875C446.977 38.24 437.525 41 429.793 41c-7.88 0-17.186-2.76-23.345-14.125-6.447-11.851-8.164-30.197-8.164-48.373 0-18.671 3.008-37.99 8.88-48.703 5.871-10.714 14.609-13.8 22.63-13.8 8.016 0 16.752 3.086 22.625 13.8 5.872 10.713 8.88 30.032 8.88 48.703 0 18.176-1.718 36.522-8.164 48.373m-14.606-87.5c-3.867-4.708-5.876-5.517-8.736-5.517-2.867 0-4.872.809-8.738 5.516-3.867 4.71-6.874 22.73-6.874 39.128 0 15.904 2.148 32.791 5.872 38.634 3.723 5.841 6.733 6.002 9.74 6.002s6.01-.16 9.737-6.002c3.727-5.843 5.868-22.73 5.868-38.634 0-16.398-3.001-34.417-6.869-39.128M505.12 39.378h-13.46L473.185-82.379h16.04l9.597 63.64 10.598-63.64h11.742l10.595 63.64 9.597-63.64h16.042L538.923 39.378h-13.464l-10.17-61.686ZM563.126 39.378V-82.379h53.702v17.862h-37.952v29.868h23.203v17.857h-23.203V21.52h38.67v17.858zM669.245-19.39l15.47 58.768h-16.758l-14.895-55.521h-12.456v55.521h-15.758V-82.379h34.375c15.896 0 25.777 15.911 25.777 33.605 0 16.237-7.59 25.328-15.755 29.384m-12.6-45.127h-16.04v30.52h14.034c10.31 0 14.463-5.52 14.463-14.777 0-7.629-2.578-15.743-12.458-15.743" style="fill:#000;fill-opacity:1;fill-rule:nonzero;stroke:none;stroke-width:1.7791841"/>
    <path d="M274.795 226C246.01 226 243 190.123 243 162.69c0-27.273 3.438-61.69 31.795-61.69 21.479 0 27.783 21.592 27.783 32.309h-16.04s-1.003-14.451-11.743-14.451c-14.18 0-16.042 24.352-16.042 43.831s1.862 45.453 16.042 45.453c9.023 0 12.028-10.066 12.028-16.72v-9.418h-11.6v-17.85h27.355v30.679c0 14.608-10.598 31.167-27.783 31.167M311.643 224.375v-121.75h53.705v17.855h-37.95v29.874h23.2v17.851h-23.2v38.319h38.667v17.85zM397.429 190.613l-7.16 33.762H373.37l26.064-121.75h16.9l26.067 121.75h-16.9l-7.16-33.762zm17.186-17.046-6.73-31.495-6.733 31.495zM493.245 165.61l15.467 58.765h-16.753l-14.9-55.515h-12.457v55.515H448.85v-121.75h34.37c15.897 0 25.781 15.91 25.781 33.6 0 16.238-7.594 25.329-15.755 29.385m-12.6-45.13h-16.043v30.519h14.034c10.314 0 14.464-5.517 14.464-14.773 0-7.624-2.576-15.746-12.455-15.746" style="fill:#000;fill-opacity:1;fill-rule:nonzero;stroke:none;stroke-width:1.77918458"/>
  </g>
</svg>
