<svg xmlns="http://www.w3.org/2000/svg" viewBox="0 0 817.464 817.464" role="img" aria-labelledby="title">
  <title id="title">Verkehrszeichen Wa-6 - Winding road</title>
  <g transform="translate(0 520.464)">
    <rect width="600" height="600" x="68.024" y="-89.989" rx="40" ry="40" style="opacity:1;fill:#fad214;fill-opacity:1;fill-rule:nonzero;stroke:none;stroke-width:9.2640419;stroke-linecap:round;stroke-linejoin:round;stroke-miterlimit:4;stroke-dasharray:none;stroke-opacity:1" transform="rotate(-45)"/>
    <rect width="575" height="575" x="80.524" y="-77.489" rx="27.5" ry="27.5" style="opacity:1;fill:#000;fill-opacity:1;fill-rule:nonzero;stroke:none;stroke-width:8.87803936;stroke-linecap:round;stroke-linejoin:round;stroke-miterlimit:4;stroke-dasharray:none;stroke-opacity:1" transform="rotate(-45)"/>
    <rect width="550" height="550" x="93.024" y="-64.989" rx="15" ry="15" style="opacity:1;fill:#fad214;fill-opacity:1;fill-rule:nonzero;stroke:none;stroke-width:8.49203777;stroke-linecap:round;stroke-linejoin:round;stroke-miterlimit:4;stroke-dasharray:none;stroke-opacity:1" transform="rotate(-45)"/>
    <path d="m408.732-409 93.431 135.257a14.502 14.502 0 0 1-16.212 22.096L445.982-264h-74.5l-39.969 12.353a14.501 14.501 0 0 1-16.212-22.096z" style="color:#000;font-style:normal;font-variant:normal;font-weight:400;font-stretch:normal;font-size:medium;line-height:normal;font-family:sans-serif;font-variant-ligatures:normal;font-variant-position:normal;font-variant-caps:normal;font-variant-numeric:normal;font-variant-alternates:normal;font-feature-settings:normal;text-indent:0;text-align:start;text-decoration:none;text-decoration-line:none;text-decoration-style:solid;text-decoration-color:#000;letter-spacing:normal;word-spacing:normal;text-transform:none;writing-mode:lr-tb;direction:ltr;text-orientation:mixed;dominant-baseline:auto;baseline-shift:baseline;text-anchor:start;white-space:normal;shape-padding:0;clip-rule:nonzero;display:inline;overflow:visible;visibility:visible;opacity:1;isolation:auto;mix-blend-mode:normal;color-interpolation:sRGB;color-interpolation-filters:linearRGB;solid-color:#000;solid-opacity:1;vector-effect:none;fill:#000;fill-opacity:1;fill-rule:nonzero;stroke:none;stroke-width:29.0002327;stroke-linecap:round;stroke-linejoin:round;stroke-miterlimit:4;stroke-dasharray:none;stroke-dashoffset:0;stroke-opacity:1;color-rendering:auto;image-rendering:auto;shape-rendering:auto;text-rendering:auto"/>
    <path d="M367.277 99.896c3.35-28.4 19.115-52.166 42.246-71.837 7.987-11.01 11.977-25.798 6.57-39.192-10.143-22.697-35.967-27.554-52.39-45.04-25.162-24.311-43.318-55.42-41.472-92.276.421-26.989 10.149-50.106 26.458-70.547 7.451-10.665 23.115-16.792 22.793-30.957V-278h74.5v14l-.383 28.113c-2.156 25.276-21.618 46.609-41.71 62.831-10.27 11.978-11.994 30.113-5.729 44.597 16.307 28.849 51.418 34.355 69.802 62.88 26.563 32.819 29.38 86.845 8.515 123.26-7.871 14.137-18.895 26.044-30.895 38.027-3.638 7.908-4.592 31.708-4.806 56.292h-73.5z" style="fill:#000;fill-opacity:1;fill-rule:nonzero;stroke:none;stroke-width:2.82222962"/>
  </g>
</svg>
