<svg xmlns="http://www.w3.org/2000/svg" viewBox="0 0 817.464 817.464" role="img" aria-labelledby="title">
  <title id="title">Verkehrszeichen Wa-4 - Reverse turn</title>
  <g transform="translate(0 520.464)">
    <rect width="600" height="600" x="68.024" y="-89.989" rx="40" ry="40" style="opacity:1;fill:#fad214;fill-opacity:1;fill-rule:nonzero;stroke:none;stroke-width:9.2640419;stroke-linecap:round;stroke-linejoin:round;stroke-miterlimit:4;stroke-dasharray:none;stroke-opacity:1" transform="rotate(-45)"/>
    <rect width="575" height="575" x="80.524" y="-77.489" rx="27.5" ry="27.5" style="opacity:1;fill:#000;fill-opacity:1;fill-rule:nonzero;stroke:none;stroke-width:8.87803936;stroke-linecap:round;stroke-linejoin:round;stroke-miterlimit:4;stroke-dasharray:none;stroke-opacity:1" transform="rotate(-45)"/>
    <rect width="550" height="550" x="93.024" y="-64.989" rx="15" ry="15" style="opacity:1;fill:#fad214;fill-opacity:1;fill-rule:nonzero;stroke:none;stroke-width:8.49203777;stroke-linecap:round;stroke-linejoin:round;stroke-miterlimit:4;stroke-dasharray:none;stroke-opacity:1" transform="rotate(-45)"/>
    <path d="m472.6-394-96.062 144.652a14.002 14.002 0 0 0 15.748 21.138l42.564-12.99h75.5l42.564 12.99a14.002 14.002 0 0 0 15.748-21.138z" style="color:#000;font-style:normal;font-variant:normal;font-weight:400;font-stretch:normal;font-size:medium;line-height:normal;font-family:sans-serif;font-variant-ligatures:normal;font-variant-position:normal;font-variant-caps:normal;font-variant-numeric:normal;font-variant-alternates:normal;font-feature-settings:normal;text-indent:0;text-align:start;text-decoration:none;text-decoration-line:none;text-decoration-style:solid;text-decoration-color:#000;letter-spacing:normal;word-spacing:normal;text-transform:none;writing-mode:lr-tb;direction:ltr;text-orientation:mixed;dominant-baseline:auto;baseline-shift:baseline;text-anchor:start;white-space:normal;shape-padding:0;clip-rule:nonzero;display:inline;overflow:visible;visibility:visible;opacity:1;isolation:auto;mix-blend-mode:normal;color-interpolation:sRGB;color-interpolation-filters:linearRGB;solid-color:#000;solid-opacity:1;vector-effect:none;fill:#000;fill-opacity:1;fill-rule:nonzero;stroke:none;stroke-width:28.00069237;stroke-linecap:round;stroke-linejoin:round;stroke-miterlimit:4;stroke-dasharray:none;stroke-dashoffset:0;stroke-opacity:1;color-rendering:auto;image-rendering:auto;shape-rendering:auto;text-rendering:auto"/>
    <path d="M434.85-262v109.5a24.446 24.446 0 0 1-24.5 24.5H366c-55.4 0-100 44.6-100 100v134h75.5V-28A24.447 24.447 0 0 1 366-52.5h44.35c55.4 0 100-44.6 100-100V-262z" style="opacity:1;fill:#000;fill-opacity:1;fill-rule:nonzero;stroke:none;stroke-width:33.16218948;stroke-linecap:round;stroke-linejoin:round;stroke-miterlimit:4;stroke-dasharray:none;stroke-opacity:1"/>
  </g>
</svg>
