<svg xmlns="http://www.w3.org/2000/svg" viewBox="0 0 254 253.982" role="img" aria-labelledby="title">
  <title id="title">Verkehrszeichen Wa-17 - Double arrow</title>
  <path d="M118.773 3.407 3.433 118.755A11.7 11.7 0 0 0 0 126.99c0 3.066 1.26 6.064 3.433 8.234l115.34 115.348a11.7 11.7 0 0 0 8.245 3.411 11.82 11.82 0 0 0 8.234-3.411l115.337-115.348c2.159-2.152 3.411-5.182 3.411-8.234s-1.252-6.085-3.411-8.234L135.252 3.407c-2.798-2.797-7.01-3.99-10.859-3.136-2.222.505-3.87 1.729-5.62 3.136" style="fill:#ffd520;fill-opacity:1;fill-rule:nonzero;stroke:none"/>
  <path d="m132.942 5.714 115.337 115.34a8.45 8.45 0 0 1 2.46 5.935 8.43 8.43 0 0 1-2.46 5.926L132.942 248.277c-1.556 1.549-3.736 2.43-5.93 2.43s-4.37-.881-5.927-2.43L5.72 132.915a8.48 8.48 0 0 1-2.434-5.926 8.5 8.5 0 0 1 2.434-5.934L121.085 5.715a8.43 8.43 0 0 1 5.927-2.453c2.212 0 4.36.89 5.93 2.452" style="fill:#000;fill-opacity:1;fill-rule:evenodd;stroke:none"/>
  <path d="M127 245.427c.823-.008 1.635-.32 2.205-.882l115.358-115.358c.552-.554.97-1.428.97-2.205 0-.794-.412-1.645-.97-2.205L129.205 9.42c-.56-.566-1.41-.882-2.205-.882-.783 0-1.656.325-2.205.882L9.437 124.777c-.557.56-.882 1.41-.882 2.205 0 .779.331 1.652.882 2.205l115.358 115.358c.569.56 1.391.882 2.205.882" style="fill:#ffd520;fill-opacity:1;fill-rule:evenodd;stroke:none"/>
  <path d="M126.99 168.341c-5.808-10.38-18.542-17.794-30.19-24.499-5.53-3.985-9.927-6.517-10.637-13.283v-8.907c3.528.882 6.288 2.016 9.814 2.9l1.358-.34c1.03-.487 1.85-1.987 1.4-3.535L78.181 91.143l-20.554 29.594c-.452 1.548.373 3.045 1.402 3.533l1.356.34c3.526-.885 6.68-2.073 10.209-2.958v10.126c.69 5.621 2.523 10.576 6.063 14.908 5.775 7.073 17.948 13.994 27.28 19.125 9.052 7.074 14.211 15.2 14.459 28.36v17.873h17.1l.109-17.873c.247-13.16 5.406-21.286 14.458-28.36 9.33-5.13 21.503-12.052 27.28-19.125 3.54-4.332 5.372-9.287 6.064-14.908v-10.126c3.526.885 6.68 2.073 10.209 2.958l1.355-.34c1.03-.488 1.852-1.985 1.4-3.533L175.82 91.143l-20.557 29.534c-.45 1.548.373 3.048 1.403 3.536l1.355.34c3.528-.885 6.286-2.019 9.815-2.9v8.906c-.711 6.766-5.105 9.298-10.635 13.283-11.648 6.705-24.402 14.118-30.21 24.5" style="fill:#000;fill-opacity:1;fill-rule:nonzero;stroke:none"/>
  <path d="M146.96 58.836V85.5s-1.716 16.607-19.962 22.264c-18.243-5.657-19.96-22.264-19.96-22.264V58.836z" style="fill:#000;fill-opacity:1;fill-rule:nonzero;stroke:none"/>
</svg>
