<svg xmlns="http://www.w3.org/2000/svg" viewBox="0 0 226.755 204.146" role="img" aria-labelledby="title">
  <title id="title">Verkehrszeichen Wa-37 - Lane ends ahead XX km (overhead sign)</title>
  <path d="M392.505-60.84H618.86v203.747H392.505z" style="fill:#ffd520;fill-opacity:1;fill-rule:nonzero;stroke:none" transform="translate(-392.305 61.04)"/>
  <path d="M396.277-57.066h218.81v196.2h-218.81z" style="fill:#000;fill-opacity:1;fill-rule:nonzero;stroke:none" transform="translate(-392.305 61.04)"/>
  <path d="M400.05-53.293h211.264v188.652H400.05z" style="fill:#ffd520;fill-opacity:1;fill-rule:nonzero;stroke:none" transform="translate(-392.305 61.04)"/>
  <path d="M508.081 8.176h8.145v17.247h-8.145zM508.081 29.116h8.145v17.247h-8.145zM508.081 50.056h8.145v17.247h-8.145zM465.572-38.12h12.38V67.347h-12.38z" style="fill:#000;fill-opacity:1;fill-rule:nonzero;stroke:none" transform="translate(-392.305 61.04)"/>
  <path d="m520.886-11.872 24.906 19.146v60.074h-12.336V14.531L508.432-4.481v-33.64h12.454zM428.705 120.113h-6.066V99.762h-3.51V93.63c.387-.088.77-.204 1.13-.365 1.277-.597 2.302-1.93 2.865-3.07h5.58zM444.102 90.197h20.367v6.074h-14.707l-.308 3.832c.253-.051.48-.24.738-.319 1.785-.785 3.848-1.168 5.97-.877 2.077.161 3.95.807 5.693 1.772.761.532 1.495 1.104 2.114 1.875.497.592.936 1.21 1.35 1.838 1.306 2.161 1.873 4.904 1.297 7.567-.36 1.962-1.287 3.689-2.625 5.24-.922 1.058-2.052 1.773-3.201 2.405-1.901.887-3.964 1.39-6.243 1.363-3.096 0-5.96-.55-8.682-1.45a20.5 20.5 0 0 1-3.566-1.663l3.012-5.308c1.379.678 2.851 1.13 4.328 1.573 2.047.545 4.387.873 6.61.49 1.583-.295 3.245-1.362 3.867-2.95.688-1.722.304-3.92-1.131-5.208-1.374-1.44-3.556-1.505-5.448-1.14a15.7 15.7 0 0 0-3.82 1.288l-6.865-2.12zM489.702 89.424c-7.17 0-13 7.029-13 15.719s6.224 15.75 13 15.75c6.777 0 12.97-7.06 12.97-15.75s-5.798-15.719-12.97-15.719m0 5.938c3.784 0 6.844 4.372 6.844 9.781s-3.06 9.813-6.844 9.813c-3.783 0-6.843-4.404-6.843-9.813s3.06-9.781 6.843-9.781M525.952 89.424c-7.17 0-13 7.029-13 15.719s6.225 15.75 13 15.75c6.777 0 12.97-7.06 12.97-15.75s-5.798-15.719-12.97-15.719m0 5.938c3.784 0 6.844 4.372 6.844 9.781s-3.06 9.813-6.844 9.813c-3.782 0-6.843-4.404-6.843-9.813s3.06-9.781 6.843-9.781M586.119 120.113l-.004-14.01c-.08-1.094-.828-2.099-1.803-2.61-.912-.442-2.181-.479-3.122-.066-1.037.437-1.798 1.506-1.794 2.637l.019 14.05h-6.145l-.01-14.186c-.107-1.001-.824-1.946-1.76-2.369-1.194-.586-2.82-.407-3.84.405-.687.564-1.157 1.274-1.1 2.17l-.003 13.98h-6.183V97.608l6.23-.004-.012 1.284c1.117-.992 2.437-1.497 3.894-1.684 2.453-.222 4.512.667 6.328 2.078l.47.44c.912-.709 1.924-1.184 2.944-1.644 1.923-.781 4.536-1.075 6.554-.306.809.252 1.522.727 2.224 1.247a9.9 9.9 0 0 1 2.768 4.088c.233.737.35 1.549.462 2.346l-.004 14.659h-6.114" style="fill:#000;fill-opacity:1;fill-rule:nonzero;stroke:none" transform="translate(-392.305 61.04)"/>
</svg>
