<svg xmlns="http://www.w3.org/2000/svg" viewBox="0 0 254 253.982" role="img" aria-labelledby="title">
  <title id="title">Verkehrszeichen Wa-22 - Bump</title>
  <path d="M118.773 3.407 3.433 118.755A11.7 11.7 0 0 0 0 126.99c0 3.066 1.26 6.064 3.433 8.234l115.34 115.348a11.7 11.7 0 0 0 8.245 3.411 11.82 11.82 0 0 0 8.233-3.411L250.59 135.223c2.159-2.152 3.411-5.182 3.411-8.234s-1.252-6.085-3.411-8.234L135.25 3.407c-2.797-2.797-7.01-3.99-10.858-3.136-2.223.505-3.87 1.729-5.62 3.136" style="fill:#ffd520;fill-opacity:1;fill-rule:nonzero;stroke:none"/>
  <path d="M132.942 5.714 248.28 121.055a8.45 8.45 0 0 1 2.46 5.934 8.43 8.43 0 0 1-2.46 5.926L132.942 248.277c-1.556 1.549-3.736 2.431-5.93 2.431s-4.37-.882-5.927-2.43L5.72 132.914a8.48 8.48 0 0 1-2.434-5.926 8.5 8.5 0 0 1 2.434-5.934L121.085 5.715a8.43 8.43 0 0 1 5.927-2.453c2.212 0 4.36.89 5.93 2.452" style="fill:#000;fill-opacity:1;fill-rule:evenodd;stroke:none"/>
  <path d="M127 245.427c.823-.008 1.635-.32 2.205-.882l115.358-115.358c.552-.554.97-1.428.97-2.205 0-.794-.412-1.645-.97-2.205L129.205 9.42c-.56-.566-1.41-.882-2.205-.882-.783 0-1.656.325-2.205.882L9.437 124.777c-.557.56-.882 1.41-.882 2.205 0 .779.331 1.652.882 2.205l115.358 115.358c.569.56 1.391.882 2.205.882" style="fill:#ffd520;fill-opacity:1;fill-rule:evenodd;stroke:none"/>
  <path d="M73.708 111.31c-1.86.089-3.094.934-3.094.934l-20.78 10.915h-2.217v19.495H206.38v-19.495h-2.218l-20.779-10.915s-1.234-.845-3.094-.934c-1.115-.054-2.427.163-3.852.992l-21.246 10.682s-3.136 1.22-5.487-.117l-19.437-10.623s-1.343-.818-3.269-.876c-1.925.058-3.268.876-3.268.876l-19.437 10.623c-2.351 1.338-5.487.117-5.487.117L77.56 112.302c-1.425-.83-2.737-1.046-3.852-.992" style="fill:#000;fill-opacity:1;fill-rule:nonzero;stroke:none"/>
</svg>
