<svg xmlns="http://www.w3.org/2000/svg" viewBox="0 0 1029.596 1029.596" role="img" aria-labelledby="title">
  <title id="title">Verkehrszeichen Wa-31 - Divided highway begins</title>
  <g transform="translate(0 732.596)">
    <rect width="750" height="750" x="143.024" y="-164.989" rx="40" ry="40" style="opacity:1;fill:#fad214;fill-opacity:1;fill-rule:nonzero;stroke:none;stroke-width:11.58005238;stroke-linecap:round;stroke-linejoin:round;stroke-miterlimit:4;stroke-dasharray:none;stroke-opacity:1" transform="rotate(-45)"/>
    <rect width="725" height="725" x="155.524" y="-152.489" rx="27.5" ry="27.5" style="opacity:1;fill:#000;fill-opacity:1;fill-rule:nonzero;stroke:none;stroke-width:11.19404984;stroke-linecap:round;stroke-linejoin:round;stroke-miterlimit:4;stroke-dasharray:none;stroke-opacity:1" transform="rotate(-45)"/>
    <rect width="700" height="700" x="168.024" y="-139.989" rx="15" ry="15" style="opacity:1;fill:#fad214;fill-opacity:1;fill-rule:nonzero;stroke:none;stroke-width:10.80804825;stroke-linecap:round;stroke-linejoin:round;stroke-miterlimit:4;stroke-dasharray:none;stroke-opacity:1" transform="rotate(-45)"/>
    <path d="m324.51-386.328-.104 106.88c-.514 54.077 23.062 100.273 49.889 144.158 9.94 17.085 18.298 35.107 17.004 56.48v4.44c-15.148-3.775-28.013-8.935-43.162-12.71l-5.822 1.465c-4.422 2.091-7.966 8.512-6.034 15.146L424.438 56l88.415-126.898c1.94-6.628-1.591-13.052-6.01-15.131l-5.819-1.452c-15.15 3.8-27.417 8.792-42.57 12.599v-1.914c0-37.67-11.878-70.354-31.885-99.567-25.436-38.34-38.714-82.694-34.611-132.268l.087-77.77z" style="fill:#000;fill-opacity:1;fill-rule:nonzero;stroke:none;stroke-width:3.06974649"/>
    <path d="M514.798-286c-19.531-7.784-46.694-33.87-46.694-33.87-32.232-27.722-32.606-67.73-32.606-67.73V-504h158.6v116.4s-.374 40.008-32.606 67.73c0 0-27.163 26.086-46.694 33.87" style="fill:#000;fill-opacity:1;fill-rule:nonzero;stroke:none;stroke-width:3.06461167"/>
    <path d="m579.51 32.328-.104-106.88c-.514-54.077 23.062-100.274 49.889-144.158 9.94-17.086 18.298-35.108 17.004-56.48v-4.44c-15.148 3.774-28.013 8.934-43.162 12.71l-5.822-1.465c-4.422-2.092-7.966-8.513-6.034-15.147L679.438-410l88.415 126.897c1.94 6.628-1.591 13.053-6.01 15.131l-5.819 1.453c-15.15-3.8-27.417-8.793-42.57-12.6v1.915c0 37.669-11.878 70.354-31.885 99.567-25.436 38.34-38.714 82.694-34.611 132.268l.087 77.769z" style="fill:#000;fill-opacity:1;fill-rule:nonzero;stroke:none;stroke-width:3.06974649"/>
  </g>
</svg>
