<svg xmlns="http://www.w3.org/2000/svg" viewBox="0 0 452 452" role="img" aria-labelledby="title">
  <title id="title">Verkehrszeichen Wa-8A - No exit</title>
  <g transform="translate(0 155)">
    <rect width="450" height="450" x="1" y="-154" rx="40" ry="40" style="opacity:1;fill:#fad214;fill-opacity:1;fill-rule:nonzero;stroke:none;stroke-width:6.94803143;stroke-linecap:round;stroke-linejoin:round;stroke-miterlimit:4;stroke-dasharray:none;stroke-opacity:1"/>
    <rect width="425" height="425" x="13.5" y="-141.5" rx="27.5" ry="27.5" style="opacity:1;fill:#000;fill-opacity:1;fill-rule:nonzero;stroke:none;stroke-width:6.56202936;stroke-linecap:round;stroke-linejoin:round;stroke-miterlimit:4;stroke-dasharray:none;stroke-opacity:1"/>
    <rect width="400" height="400" x="26" y="-129" rx="15" ry="15" style="opacity:1;fill:#fad214;fill-opacity:1;fill-rule:nonzero;stroke:none;stroke-width:6.17602777;stroke-linecap:round;stroke-linejoin:round;stroke-miterlimit:4;stroke-dasharray:none;stroke-opacity:1"/>
    <path d="m151.567-81.115 42.99 76.37-.076-76.37h18.844l-.038 119.743h-15.956l-46.197-81.476-.038-.038v81.512H132.5V-81.117h19.055zM308.628-68.042c4.373 5.914 6.282 12.85 7.921 19.885.854 3.936 1.569 7.925 2.052 12.013l.756 9.983c.668 13.187-1.054 25.72-4.177 37.51-2.16 7.764-6.132 15.041-12.982 20.584-6.635 5.273-14.15 8.411-22.707 9.056-10.306.22-19.303-2.956-27.076-8.963-4.505-3.718-7.3-8.497-9.81-13.21-5.186-11.197-6.407-24.1-6.817-37.22l.038-10.287a110.5 110.5 0 0 1 3.416-23.733 72 72 0 0 1 5.318-13.032c4.284-7.038 11.363-13.583 18.973-15.964 6.463-2.424 14.646-3.493 21.724-1.644 9.106 1.81 17.452 6.91 23.37 15.022z" style="fill:#000;fill-opacity:1;fill-rule:nonzero;stroke:none;stroke-width:1.32620549"/>
    <path d="M292.887-58.097c2.216 3.027 3.826 6.341 4.69 9.94 2.46 8.577 3.496 17.795 3.553 27.314l-.543 9.447c-.77 7.409-1.826 14.728-4.43 21.374-1.61 4.882-6.32 9.205-11.03 10.997-4.768 2.147-11.338 2.147-16.016-.162-2.476-1.316-5.026-2.904-6.909-5.2-4.498-5.689-5.428-12.876-6.773-19.862-2.273-13.657-1.483-29.233 1.365-42.353 1.383-6.398 4.393-13.056 10.823-16.413 2.772-1.693 5.943-2.46 9.31-2.72 6.407-.084 11.914 2.574 15.96 7.638z" style="fill:#fad214;fill-opacity:1;fill-rule:nonzero;stroke:none;stroke-width:1.32620549"/>
    <path d="M148.075 120.444h-52.81l-.039 31.213h36.328v19.523H95.357v35.146h57.118V226H75.5V101h72.573v19.444zM198.693 161.28 169.664 101h21.548l18.317 37.5L228.41 101h21.479l-29.284 60.322L252.15 226h-21.755l-20.67-42.131L189.36 226h-21.707ZM292.127 226V101h-19.725v125zM338.413 118.364h-28.33V101H386.5v17.364h-27.995V226h-20.092z" style="fill:#000;fill-opacity:1;fill-rule:nonzero;stroke:none;stroke-width:1.38104403"/>
  </g>
</svg>
