<svg xmlns="http://www.w3.org/2000/svg" viewBox="0 0 600 300" role="img" aria-labelledby="title">
  <title id="title">Verkehrszeichen Wa-24t - One lane</title>
  <path d="M27892.627-11959.127h539.728c16.599 0 30.136 13.456 30.136 29.955v240.09c0 16.503-13.537 29.955-30.136 29.955h-539.728c-16.599 0-30.136-13.452-30.136-29.955v-240.09c0-16.499 13.537-29.955 30.136-29.955" style="fill:#fad30c;fill-opacity:1;fill-rule:evenodd;stroke:none;stroke-width:1.66418445" transform="translate(-27862.491 11959.127)"/>
  <path d="M27892.627-11939.072h539.728c5.617 0 9.96 4.316 9.96 9.9v240.09c0 5.588-4.343 9.9-9.96 9.9h-539.728c-5.617 0-9.96-4.312-9.96-9.9v-240.09c0-5.584 4.343-9.9 9.96-9.9z" style="fill:none;stroke:#000;stroke-width:14.14390278;stroke-linecap:butt;stroke-linejoin:miter;stroke-miterlimit:4;stroke-dasharray:none;stroke-opacity:1" transform="translate(-27862.491 11959.127)"/>
  <path d="M28298.847-11764.704v-88.841h43.413v12.693h-30.642v22.081h18.898v12.44h-19.158v29.188h31.924v12.439zM28274.077-11853.545v52.289l-7.916-17.515-15.576-34.774h-12.511v88.841h12.25v-58.126l15.837 34.771 10.727 23.355h9.7v-88.841zM28198.967-11802.272h-5.616l5.616-23.605v.235l5.877 23.351zm6.128-51.273h-12.255l-21.709 88.841h13.026l6.128-24.879h17.62l6.383 24.879h13.026zM28115.444-11764.704v-88.841h12.766v77.418h31.925v11.423zM27996.974-11719.651l-.142-147.868h-11.087v-19.569c5.295-1.317 9.431-2.799 12.08-4.609 2.645-1.806 5.129-4.111 7.117-6.91h16.877v178.956z" style="fill:#000;fill-opacity:1;fill-rule:evenodd;stroke:none;stroke-width:1.66418445" transform="translate(-27862.491 11959.127)"/>
</svg>
