<svg xmlns="http://www.w3.org/2000/svg" viewBox="0 0 1028.442 1028.464" role="img" aria-labelledby="title">
  <title id="title">Verkehrszeichen Wa-20 - Railway crossing ahead at crossroads</title>
  <path d="m22552.272-9176.449 476.333-476.332 4.568-3.81 5.071-3.037 5.327-2.541 6.084-1.266 6.086-.257 5.839.254 5.834 1.267 5.577 2.544 4.814 3.039 4.832 3.794 476.311 476.311 3.824 4.55 3.038 5.075 2.279 5.33 1.527 6.084.221 6.087-.221 5.581-1.524 6.085-2.286 5.584-3.04 4.818-3.81 4.567-476.333 476.583-4.822 3.804-4.814 3.045-5.577 2.282-5.838 1.522-5.836.258-6.083-.26-6.086-1.518-5.327-2.286-5.076-3.042-4.548-3.82-476.333-476.541-3.822-4.549-3.043-4.818-2.536-5.578-1.27-6.087-.217-5.584.216-6.084 1.274-6.088 2.531-5.325 3.046-5.074z" style="fill:#fad30c;fill-opacity:1;fill-rule:evenodd;stroke:none;stroke-width:2.58950257" transform="translate(-22541.395 9663.692)"/>
  <path d="m22568.28-9135.391 473.27 473.27c7.607 7.607 20.286 7.61 27.897 0l473.291-473.292c7.864-7.864 7.866-20.288 0-27.896l-473.265-473.265c-7.584-7.896-20.294-7.87-27.897 0l-473.291 473.29c-7.61 7.61-7.608 20.038 0 27.902z" style="fill:none;stroke:#000;stroke-width:15.85293579;stroke-linecap:butt;stroke-linejoin:miter;stroke-miterlimit:4;stroke-dasharray:none;stroke-opacity:1" transform="translate(-22541.395 9663.692)"/>
  <path d="M23185.168-9046.357h31.703v-69.584h-31.702zm0 88.524h31.702v-57.073h-31.702zm31.71-295.375-31.703.001v70h31.703zm0-88.266h-31.703v57.322h31.703zm98.078 158.506v67.027h-73.226v62.734h23.593v44.896h-23.594v43.371h23.594v46.162h-23.594v45.908l-24.858.01v-53.012h-31.703v53.012h-23.335v-45.913h-22.57v-46.162h22.57v-43.372h-22.57v-44.89h22.575v-62.732h-72.719v250.796h-67.022v-250.791h-225.824v-67.027h225.824v-250.793h67.026v250.798l72.724-.01v-63.14h-22.57v-45.397h22.575v-42.863h-22.57v-46.164h22.57v-46.413h23.336v53.264h31.702v-53.265h24.853v46.413h23.594v46.164h-23.594v42.863h23.593v45.403h-23.593v63.139z" style="fill:#000;fill-opacity:1;fill-rule:evenodd;stroke:none;stroke-width:2.58950257" transform="translate(-22541.395 9663.692)"/>
</svg>
