<svg xmlns="http://www.w3.org/2000/svg" viewBox="0 0 1233.462 1233.462" role="img" aria-labelledby="title">
  <title id="title">Verkehrszeichen Wa-26 - Low clearance</title>
  <g transform="translate(0 936.461)">
    <rect width="900" height="900" x="212.178" y="-239.989" rx="50" ry="50" style="opacity:1;fill:#fad214;fill-opacity:1;fill-rule:nonzero;stroke:none;stroke-width:13.89606285;stroke-linecap:round;stroke-linejoin:round;stroke-miterlimit:4;stroke-dasharray:none;stroke-opacity:1" transform="rotate(-45)"/>
    <rect width="860" height="860" x="232.178" y="-219.989" rx="30" ry="30" style="opacity:1;fill:#000;fill-opacity:1;fill-rule:nonzero;stroke:none;stroke-width:13.2784586;stroke-linecap:round;stroke-linejoin:round;stroke-miterlimit:4;stroke-dasharray:none;stroke-opacity:1" transform="rotate(-45)"/>
    <rect width="820" height="820" x="252.178" y="-199.989" rx="10" ry="10" style="opacity:1;fill:#fad214;fill-opacity:1;fill-rule:nonzero;stroke:none;stroke-width:12.66085625;stroke-linecap:round;stroke-linejoin:round;stroke-miterlimit:4;stroke-dasharray:none;stroke-opacity:1" transform="rotate(-45)"/>
    <path d="M392.986-225.75c-11.29-8.61-18.344-20.753-23.33-32.749-1.319-4.052-2.412-8.17-2.925-12.509l32.863-6.338c1.383 11.643 7.655 23.126 18.685 28.944 8.94 5.278 21.387 7.33 31.803 3.799 7.688-2.16 15.016-7.531 19.585-14.762 6.368-8.75 8.587-22 4.245-32.416-2.186-6.305-7.557-12.283-13.569-15.662-5.918-3.725-12.67-5.465-19.904-5.945l.223-32.256v-.068c10.324-.413 21.58-1.733 26.533-11.956 1.702-4.118 1.702-9.104 1.416-13.829-1.193-10.096-10.067-19.46-19.554-22.706-6.242-2.44-14.666-2.959-21.064-.447-5.309 1.986-10.74 4.852-14.28 9.964l-2.765 4.472-32.51-7.558c3.759-9.55 9.743-18.715 18.298-26.013 6.011-5.372 12.893-8.624 19.837-11.743 8.33-3.212 17.691-5.078 27.402-3.792 9.327 1.093 17.911 4.052 25.856 8.49 19.71 12.09 32.576 32.292 32.736 55.118-.13 7.204-1.416 13.929-3.342 20.387-2.093 5.884-5.022 11.45-9.004 16.594 15.432 14.855 19.774 35.05 18.358 56.562l-.547 3.379-.32.16c.068.1.16.1.256.1-1.702 10.45-6.301 19.68-11.962 28.456-3.47 5.599-9.358 10.164-14.053 14.89-8.424 6.943-17.848 11.415-28.172 13.661-10.097 2.186-22.736 2.606-32.733-.058-10.26-2.38-19.508-7.637-28.062-14.168" style="fill:#000;fill-opacity:1;fill-rule:nonzero;stroke:none;stroke-width:3.41227317"/>
    <path d="M614.627-227.705c7.202-4.98 14.23-10.967 20.52-17.934 7.052-8.167 12.857-16.867 16.468-26.488-1.14.187-2.258.8-3.401 1.16-9.646 2.807-21.89 2.407-31.053-1.413-6.185-2.28-11.927-5.934-16.912-10.894-8.086-8.354-12.053-18.548-11.46-30.495 1.034-13.488 9.603-26.022 21.783-32.716 10.957-6.606 26.558-7.973 39.225-4.093 8.783 2.66 16.87 7.98 23.158 15.748 4.034 5.233 6.588 11.06 7.539 17.58 1.457 7.894.867 16.021-.654 23.702-3.27 19.52-10.493 37.415-22.147 53.476-6.335 8.107-14.017 16.068-21.933 22.715-2.957 2.34-5.932 4.667-9.08 6.627zm20.31-63.17c13.52 0 24.48-9.027 24.48-20.154 0-11.12-10.96-20.141-24.48-20.141-13.524 0-24.481 9.02-24.481 20.14 0 11.128 10.957 20.155 24.48 20.155" style="fill:#000;fill-opacity:1;fill-rule:nonzero;stroke:none;stroke-width:3.41394806"/>
    <path d="M809.64-305.293c.716-.719 1.325-1.371 2.17-2.13 7.63-6.871 17.115-9.068 27.864-8.749 12.603 1.079 21.644 13.595 25.206 24.467 1.159 3.969 1.828 7.817 1.85 12.051v67.624h-23.265v-70.493c-.692-5.586-3.202-11.538-8.851-13.882-2.257-.772-4.934-.12-7.08.613-5.354 2.19-8.989 7.283-9.937 12.636l-.33 1.738v69.388H794.82v-72.824c-.32-4.108-1.81-8.595-6.069-10.18-1.031-.46-2.256-.545-3.288-.798-5.393-.586-10.117 2.51-13.256 6.91-1.728 2.657-3.705 5.373-3.535 8.809v68.082h-23.086v-103.955h23.086v6.205c3.815-3.581 8.705-6.218 13.765-6.997h.086c10.769-1.245 21.235 2.037 27.117 11.485z" style="fill:#000;fill-opacity:1;fill-rule:nonzero;stroke:none;stroke-width:3.40879369"/>
    <path d="M616.731 175.27 429.814-25.392a11.501 11.501 0 0 1 10.828-19.082L557.731-19.33v-105.4h118v105.4l117.09-25.144a11.5 11.5 0 0 1 10.828 19.082z" style="color:#000;font-style:normal;font-variant:normal;font-weight:400;font-stretch:normal;font-size:medium;line-height:normal;font-family:sans-serif;font-variant-ligatures:normal;font-variant-position:normal;font-variant-caps:normal;font-variant-numeric:normal;font-variant-alternates:normal;font-feature-settings:normal;text-indent:0;text-align:start;text-decoration:none;text-decoration-line:none;text-decoration-style:solid;text-decoration-color:#000;letter-spacing:normal;word-spacing:normal;text-transform:none;writing-mode:lr-tb;direction:ltr;text-orientation:mixed;dominant-baseline:auto;baseline-shift:baseline;text-anchor:start;white-space:normal;shape-padding:0;clip-rule:nonzero;display:inline;overflow:visible;visibility:visible;opacity:1;isolation:auto;mix-blend-mode:normal;color-interpolation:sRGB;color-interpolation-filters:linearRGB;solid-color:#000;solid-opacity:1;vector-effect:none;fill:#000;fill-opacity:1;fill-rule:nonzero;stroke:none;stroke-width:23.00020027;stroke-linecap:square;stroke-linejoin:round;stroke-miterlimit:4;stroke-dasharray:none;stroke-dashoffset:0;stroke-opacity:1;color-rendering:auto;image-rendering:auto;shape-rendering:auto;text-rendering:auto"/>
    <circle cx="549.531" cy="-232.23" r="19" style="opacity:1;fill:#000;fill-opacity:1;fill-rule:nonzero;stroke:none;stroke-width:12.00041294;stroke-linecap:square;stroke-linejoin:round;stroke-miterlimit:4;stroke-dasharray:none;stroke-opacity:1"/>
    <path d="M616.731-814.73 429.814-614.07a11.501 11.501 0 0 0 10.828 19.082l117.089-25.143v105.4h118v-105.4l117.09 25.143a11.5 11.5 0 0 0 10.828-19.082z" style="color:#000;font-style:normal;font-variant:normal;font-weight:400;font-stretch:normal;font-size:medium;line-height:normal;font-family:sans-serif;font-variant-ligatures:normal;font-variant-position:normal;font-variant-caps:normal;font-variant-numeric:normal;font-variant-alternates:normal;font-feature-settings:normal;text-indent:0;text-align:start;text-decoration:none;text-decoration-line:none;text-decoration-style:solid;text-decoration-color:#000;letter-spacing:normal;word-spacing:normal;text-transform:none;writing-mode:lr-tb;direction:ltr;text-orientation:mixed;dominant-baseline:auto;baseline-shift:baseline;text-anchor:start;white-space:normal;shape-padding:0;clip-rule:nonzero;display:inline;overflow:visible;visibility:visible;opacity:1;isolation:auto;mix-blend-mode:normal;color-interpolation:sRGB;color-interpolation-filters:linearRGB;solid-color:#000;solid-opacity:1;vector-effect:none;fill:#000;fill-opacity:1;fill-rule:nonzero;stroke:none;stroke-width:23.00020027;stroke-linecap:square;stroke-linejoin:round;stroke-miterlimit:4;stroke-dasharray:none;stroke-dashoffset:0;stroke-opacity:1;color-rendering:auto;image-rendering:auto;shape-rendering:auto;text-rendering:auto"/>
  </g>
</svg>
