<svg xmlns="http://www.w3.org/2000/svg" viewBox="0 0 1029.596 1029.596" role="img" aria-labelledby="title">
  <title id="title">Verkehrszeichen Wa-32 - Divided highway ends</title>
  <g transform="translate(0 732.596)">
    <rect width="750" height="750" x="143.024" y="-164.99" rx="40" ry="40" style="opacity:1;fill:#fad214;fill-opacity:1;fill-rule:nonzero;stroke:none;stroke-width:11.58005238;stroke-linecap:round;stroke-linejoin:round;stroke-miterlimit:4;stroke-dasharray:none;stroke-opacity:1" transform="rotate(-45)"/>
    <rect width="725" height="725" x="155.524" y="-152.49" rx="27.5" ry="27.5" style="opacity:1;fill:#000;fill-opacity:1;fill-rule:nonzero;stroke:none;stroke-width:11.19404984;stroke-linecap:round;stroke-linejoin:round;stroke-miterlimit:4;stroke-dasharray:none;stroke-opacity:1" transform="rotate(-45)"/>
    <rect width="700" height="700" x="168.024" y="-139.99" rx="15" ry="15" style="opacity:1;fill:#fad214;fill-opacity:1;fill-rule:nonzero;stroke:none;stroke-width:10.80804825;stroke-linecap:round;stroke-linejoin:round;stroke-miterlimit:4;stroke-dasharray:none;stroke-opacity:1" transform="rotate(-45)"/>
    <path d="m705.085-61.672.105-106.881c.513-54.076-23.062-100.273-49.89-144.157-9.94-17.086-18.297-35.108-17.003-56.48v-4.44c15.148 3.774 28.013 8.934 43.162 12.71l5.822-1.465c4.422-2.092 7.965-8.513 6.034-15.147L605.158-504l-88.415 126.897c-1.94 6.628 1.59 13.053 6.009 15.131l5.82 1.452c15.15-3.799 27.417-8.792 42.57-12.598v1.913c0 37.67 11.878 70.355 31.885 99.568 25.436 38.34 38.714 82.694 34.611 132.268l-.087 77.769z" style="fill:#000;fill-opacity:1;fill-rule:nonzero;stroke:none;stroke-width:3.06974649"/>
    <path d="M514.798-162c19.53 7.783 46.694 33.87 46.694 33.87 32.232 27.721 32.606 67.73 32.606 67.73V56h-158.6V-60.4s.374-40.009 32.606-67.73c0 0 27.163-26.087 46.694-33.87" style="fill:#000;fill-opacity:1;fill-rule:nonzero;stroke:none;stroke-width:3.06461167"/>
    <path d="m450.085-480.329.105 106.881c.513 54.076-23.062 100.273-49.89 144.158-9.94 17.085-18.297 35.107-17.003 56.48v4.44c15.148-3.775 28.013-8.935 43.162-12.71l5.822 1.465c4.422 2.09 7.965 8.512 6.034 15.146L350.158-38l-88.415-126.898c-1.94-6.628 1.59-13.053 6.009-15.131l5.82-1.452c15.15 3.799 27.417 8.792 42.57 12.598v-1.913c0-37.67 11.878-70.354 31.885-99.568 25.436-38.34 38.714-82.693 34.611-132.267l-.087-77.77z" style="fill:#000;fill-opacity:1;fill-rule:nonzero;stroke:none;stroke-width:3.06974649"/>
  </g>
</svg>
