<svg xmlns="http://www.w3.org/2000/svg" xml:space="preserve" viewBox="-.781 -.08 576.538 507.944" role="img" aria-labelledby="title">
  <title id="title">Verkehrszeichen A3 - Remarques : Chaussée rétrécie de chaque côté</title>
  <path d="M4.664 460.121 260.67 16.708a30.964 30.964 0 0 1 53.63 0l256.005 443.413a30.965 30.965 0 0 1-26.815 46.446H31.48a30.964 30.964 0 0 1-26.815-46.446z" style="fill:#fff;fill-opacity:1;stroke:#000;stroke-width:2;stroke-miterlimit:4;stroke-opacity:1;stroke-dasharray:none"/>
  <path d="M31.39 494.182h512.191a18.526 18.526 0 0 0 16.044-27.789L303.53 22.823a18.526 18.526 0 0 0-32.087 0L15.346 466.392a18.526 18.526 0 0 0 16.044 27.789" style="fill:#f8190d;stroke:none"/>
  <path d="m287.219 68.37 223.827 387.679H63.392z" style="fill:#fff;stroke:none" transform="translate(.266 .976)"/>
  <path d="M342.558 283.25v-82.044H305.16v87.788l43.124 65.839v85.951l36.07-.067v-84.638zM231.88 283.25v-82.044h37.398v87.788l-43.125 65.839v85.951l-36.068-.067v-84.638z" style="fill:#000;stroke:none" transform="translate(.266 .976)"/>
</svg>
