<svg xmlns="http://www.w3.org/2000/svg" xml:space="preserve" viewBox="-.781 -.08 576.538 507.944" role="img" aria-labelledby="title">
  <title id="title">Verkehrszeichen A24 - Vent latéral</title>
  <path d="M4.664 460.12 260.67 16.709a30.964 30.964 0 0 1 53.63 0L570.304 460.12a30.965 30.965 0 0 1-26.815 46.446H31.48A30.964 30.964 0 0 1 4.664 460.12" style="fill:#fff;stroke:#000;stroke-width:2;stroke-linecap:round;stroke-linejoin:round;stroke-miterlimit:4;stroke-opacity:1;stroke-dasharray:none"/>
  <path d="M31.39 494.182h512.19a18.526 18.526 0 0 0 16.044-27.79L303.528 22.823a18.526 18.526 0 0 0-32.087 0L15.345 466.393a18.52 18.52 0 0 0 0 18.526 18.52 18.52 0 0 0 16.044 9.264" style="fill:#f91a0e;stroke:none;fill-opacity:1"/>
  <path d="M510.884 455.888H63.23l223.828-387.68z" style="fill:#fff;stroke:none" transform="translate(.427 1.138)"/>
  <path d="m361.264 438.3.55-178.972h14.296V438.3z" style="fill:#f91a0e;stroke:none;fill-opacity:1" transform="translate(.427 1.138)"/>
  <path d="M185.74 299.79c-5.812 4.386-6.969 12.65-2.585 18.462a13.18 13.18 0 0 0 14.146 4.735" style="fill:#f91a0e;stroke:none;fill-opacity:1"/>
  <path d="m329.906 243.769 39.936 15.662-27.436 26.785" style="fill:#f91a0e;stroke:none;fill-opacity:1" transform="translate(.427 1.138)"/>
  <path d="m248.074 268.391 41.437-22.138M268.935 312.918l39.87-6.026M220.929 319.856l23.394-3.451" style="fill:none;stroke:#f91a0e;stroke-width:.49999999;stroke-linecap:round;stroke-linejoin:round;stroke-miterlimit:4;stroke-opacity:1;stroke-dasharray:none"/>
  <path d="M308.805 306.892c6.692-22.258-.97-46.341-19.294-60.64l17.987-9.47 22.834 8.125a77.67 77.67 0 0 1 12.5 42.447L324.14 304.8zM244.323 316.405a23.517 23.517 0 0 0-14.709-38.336l18.108-9.726.352.048 6.49.728 4.136.46a23.516 23.516 0 0 1 14.708 38.336l-4.473 5.004z" style="fill:#f91a0e;stroke:none;fill-opacity:1"/>
  <path d="m213.782 286.148 15.833-8.079" style="fill:none;stroke:#f91a0e;stroke-width:.49999999;stroke-linecap:round;stroke-linejoin:round;stroke-miterlimit:4;stroke-opacity:1;stroke-dasharray:none"/>
  <path d="m197.282 322.993 23.647-3.138a18.67 18.67 0 0 0 7.653-19.234 18.67 18.67 0 0 0-14.8-14.474l-26.186 12.74 3.244-.62 2.005-.39 2.405.39 2.808 1.17 1.871.978 1.871 1.755 1.604 2.146 1.203 3.316.535 2.927-.134 3.12-1.069 3.514-1.872 2.146-1.872 2.146z" style="fill:#f91a0e;stroke:none;fill-opacity:1"/>
</svg>
