<svg xmlns="http://www.w3.org/2000/svg" xml:space="preserve" viewBox="-.781 -.08 576.538 507.944" role="img" aria-labelledby="title">
  <title id="title">Verkehrszeichen A20 - Quai ou berge à proximité</title>
  <path d="M4.664 460.12 260.67 16.709a30.964 30.964 0 0 1 53.63 0L570.304 460.12a30.965 30.965 0 0 1-26.815 46.446H31.48A30.964 30.964 0 0 1 4.664 460.12" style="fill:#fff;stroke:#000;stroke-width:2;stroke-linecap:round;stroke-linejoin:round;stroke-miterlimit:4;stroke-opacity:1;stroke-dasharray:none"/>
  <path d="M31.39 494.182h512.19a18.526 18.526 0 0 0 16.044-27.79L303.528 22.823a18.526 18.526 0 0 0-32.087 0L15.345 466.393a18.52 18.52 0 0 0 0 18.526 18.52 18.52 0 0 0 16.044 9.264" style="fill:#f91a0e;stroke:none"/>
  <path d="M510.884 455.888H63.23l223.828-387.68z" style="fill:#fff;stroke:none" transform="translate(.427 1.138)"/>
  <path d="M249.548 302.937c2.813-8.701-1.54-18.102-9.994-21.587s-18.167.119-22.302 8.274l-12.563-2.821 13.9-25.051 10.364 2.89 32.561-14.926 66.048 23.64 16.492 34.812 42.521 22.229-6 19.453-11.83-2.843c3.561-9.324-.825-19.801-9.968-23.807-9.142-4.005-19.817-.127-24.257 8.812z" style="fill:#000;stroke:none"/>
  <path d="m229.402 417.903 18.027-1.503 22.157-3.943 17.834-4.732 17.776-.497 11.66 4.257 12.717 9.647 13.519 5.252h16.033l14.576-6.386 11.66-6.385 11.661-2.128 12.534 2.549 19.532 10.222 13.434 3.973 23.005-1.845" style="fill:none;stroke:#000;stroke-width:5;stroke-linecap:round;stroke-linejoin:round;stroke-opacity:1" transform="translate(.427 1.138)"/>
  <path d="m229.402 405.553 18.027-1.503 22.157-3.944 17.834-4.732 17.776-.497 11.66 4.258 12.717 9.646 13.519 5.252h16.033l14.576-6.386 11.66-6.384 11.661-2.128 12.534 2.549 19.532 10.221 13.434 3.974 23.005-1.846" style="fill:none;stroke:#000;stroke-width:5;stroke-linecap:round;stroke-linejoin:round;stroke-opacity:1" transform="translate(.427 1.138)"/>
  <path d="m229.402 393.202 18.027-1.503 22.157-3.943 17.834-4.732 17.776-.497 11.66 4.257 12.717 9.647 13.519 5.252h16.033l14.576-6.386 11.66-6.385 11.661-2.128 12.534 2.549 19.532 10.222 13.434 3.973 23.005-1.845" style="fill:none;stroke:#000;stroke-width:5;stroke-linecap:round;stroke-linejoin:round;stroke-opacity:1" transform="translate(.427 1.138)"/>
  <path d="m85.104 437.866 77.089-129.932 67.209.098v129.834z" style="fill:#000;stroke:none" transform="translate(.427 1.138)"/>
  <path d="m328.764 301.068-41.111-14.744 5.336-19.653 27.715 11.1zM263.552 257.064l26.05 8.39-5.625 19.426-41.289-14.323 1.334-4.323z" style="fill:#fff;stroke:none" transform="translate(.427 1.138)"/>
  <circle cx="233.358" cy="294.939" r="13.599" style="fill:#000;stroke:none" transform="translate(.427 1.138)"/>
  <circle cx="350.88" cy="338.073" r="14.708" style="fill:#000;stroke:none" transform="translate(.427 1.138)"/>
</svg>
