<svg xmlns="http://www.w3.org/2000/svg" xml:space="preserve" viewBox="-.781 -.08 576.538 507.944" role="img" aria-labelledby="title">
  <title id="title">Verkehrszeichen A6 - Remarques : Pont mobile</title>
  <path d="M4.664 460.12 260.67 16.709a30.963 30.963 0 0 1 53.631 0L570.305 460.12a30.965 30.965 0 0 1-26.815 46.446H31.48A30.964 30.964 0 0 1 4.663 460.12" style="fill:#fff;stroke:#000;stroke-width:2;stroke-linecap:round;stroke-linejoin:round;stroke-miterlimit:4;stroke-opacity:1;stroke-dasharray:none"/>
  <path d="M31.39 494.182h512.191a18.526 18.526 0 0 0 16.044-27.79L303.53 22.823a18.526 18.526 0 0 0-32.087 0L15.346 466.392a18.526 18.526 0 0 0 16.044 27.789" style="fill:red;stroke:none"/>
  <path d="M511.296 456.299H63.642L287.469 68.62z" style="fill:#fff;stroke:none" transform="translate(.016 .726)"/>
  <path d="M384.6 439.488v-90.537h47.833l50.364 90.537zM140.777 354.462l-54.621 90.085 104.276-1.036.847-89.837-28.736-32.785 149.59-120.562 22.106 27.988-4.421 3.229 5.159 7.535-143.698 114.595-.734.585z" style="fill:#000;stroke:none" transform="translate(.016 .726)"/>
  <path d="m190.428 437.328 12.644-5.112 13.264-9.687 9.58-4.306 10.317-2.153h6.631l8.844 1.076 9.579 3.229 8.842 4.306 8.844 4.306 11.052 4.306h11.055l11.053-3.229 8.106-6.459 9.579-5.382 11.054-3.23 8.842 2.153 8.844 7.535 7.369 6.459 9.579 4.306 9.094 1.077" style="fill:none;stroke:#000;stroke-width:6;stroke-linecap:round;stroke-linejoin:round;stroke-opacity:1" transform="translate(.016 .726)"/>
  <path d="m190.428 418.801 12.644-5.11 13.264-9.689 9.58-4.305 10.317-2.153h6.631l8.844 1.077 9.579 3.228 8.842 4.307 8.844 4.304 11.052 4.307h11.055l11.053-3.229 8.106-6.458 9.579-5.383 11.054-3.23 8.842 2.154 8.844 7.535 7.369 6.459 9.579 4.304 9.094 1.078" style="fill:none;stroke:#000;stroke-width:6;stroke-linecap:round;stroke-linejoin:round;stroke-opacity:1" transform="translate(.016 .726)"/>
  <path d="m190.428 400.276 12.644-5.111 13.264-9.688 9.58-4.307 10.317-2.152h6.631l8.844 1.076 9.579 3.23 8.842 4.305 8.844 4.306 11.052 4.306h11.055l11.053-3.229 8.106-6.459 9.579-5.383 11.054-3.228 8.842 2.152 8.844 7.535 7.369 6.459 9.579 4.306 9.094 1.077" style="fill:none;stroke:#000;stroke-width:6;stroke-linecap:round;stroke-linejoin:round;stroke-opacity:1" transform="translate(.016 .726)"/>
  <path d="m318.077 231.992 11.16-9.22 10.625 12.861-11.16 9.22z"/>
</svg>
