<svg xmlns="http://www.w3.org/2000/svg" xml:space="preserve" viewBox="-.781 -.08 576.538 507.944" role="img" aria-labelledby="title">
  <title id="title">Verkehrszeichen A1a - Annonce de virage Si le way est à double sens, il y a probablement un panneau symétrique à taguer en sens inverse, de l’autre côté de la section dangereuse. Sur la section dangereuse, rechercher la pr</title>
  <path d="M4.664 460.12 260.67 16.709a30.964 30.964 0 0 1 53.63 0L570.304 460.12a30.965 30.965 0 0 1-26.815 46.446H31.48A30.964 30.964 0 0 1 4.664 460.12" style="fill:#fff;stroke:#000;stroke-width:2;stroke-linecap:round;stroke-linejoin:round;stroke-miterlimit:4;stroke-opacity:1;stroke-dasharray:none"/>
  <path d="M31.39 494.182h512.19a18.526 18.526 0 0 0 16.044-27.79L303.528 22.823a18.526 18.526 0 0 0-32.087 0L15.345 466.393a18.52 18.52 0 0 0 0 18.526 18.52 18.52 0 0 0 16.044 9.264" style="fill:#f91a0e;stroke:none"/>
  <path d="m63.23 455.888 223.828-387.68 223.826 387.68z" style="fill:#fff;stroke:none" transform="translate(.427 1.138)"/>
  <path d="m316.655 255.678 33.377-23.325-33.398-19.875a48 48 0 0 0-6.917.514c-77.023 11.383-134.074 77.485-134.074 155.344v78.339l20.942-32.273 21.962 32.47.235-90.196c5.303-51.79 45.073-93.38 96.574-100.99a4.6 4.6 0 0 1 1.3-.008" style="fill:#000;stroke:none"/>
</svg>
