<svg xmlns="http://www.w3.org/2000/svg" xml:space="preserve" viewBox="-.781 -.08 576.538 507.944" role="img" aria-labelledby="title">
  <title id="title">Verkehrszeichen A19 - Chute de pierres</title>
  <path d="M4.664 460.12 260.67 16.709a30.964 30.964 0 0 1 53.63 0L570.304 460.12a30.965 30.965 0 0 1-26.815 46.446H31.48A30.964 30.964 0 0 1 4.664 460.12" style="fill:#fff;stroke:#000;stroke-width:2;stroke-linecap:round;stroke-linejoin:round;stroke-miterlimit:4;stroke-opacity:1;stroke-dasharray:none"/>
  <path d="M31.39 494.182h512.19a18.526 18.526 0 0 0 16.044-27.79L303.528 22.823a18.526 18.526 0 0 0-32.087 0L15.345 466.393a18.52 18.52 0 0 0 0 18.526 18.52 18.52 0 0 0 16.044 9.264" style="fill:#f91a0e;stroke:none"/>
  <path d="M510.884 455.888H63.23l223.828-387.68z" style="fill:#fff;stroke:none" transform="translate(.427 1.138)"/>
  <path d="M175.494 430.422v-4.465l3.824-13.394h12.236l.67 15.647.147 2.212h25.978l-.512-1.996-4.106-16.979 32.12-7.813 1.529 7.813-6.118 14.51 1.031 2.51.695 1.955h37.276l-15.295-25.672 12.236-64.741 16.06-23.441 6.882-59.16 13.766-11.161 4.587-50.23-6.881-12.279 6.881-34.603L483.686 437.12H92.902v-6.698h56.494l.05-1.251-2.247-6.562 9.177-6.697 4.791 12.986.46 1.524h13.648z" style="fill:#000;stroke:none" transform="translate(.427 1.138)"/>
  <path d="m206.848 352.287 16.06-1.116 7.648-14.511-7.648-12.278-13.765 23.44zM223.673 294.244l-5.353-7.813-9.177 17.859 7.648 1.116zM246.615 233.968l14.53 3.348-2.294 29.023-4.588 3.348-7.648 14.511-7.647-1.116-8.412-18.976zM268.028 183.738l5.353 2.233-1.529 27.905h-7.647l-6.118 7.813-5.354-12.278z" style="fill:#000;stroke:none" transform="translate(.427 1.138)"/>
</svg>
