<svg xmlns="http://www.w3.org/2000/svg" xml:space="preserve" viewBox="-.781 -.08 576.538 507.944" role="img" aria-labelledby="title">
  <title id="title">Verkehrszeichen AB1 - Priorité à droite</title>
  <path d="M4.664 460.122 260.67 16.708a30.964 30.964 0 0 1 53.63 0l256.005 443.414a30.965 30.965 0 0 1-26.815 46.445H31.48a30.965 30.965 0 0 1-26.816-46.445" style="fill:#fff;stroke:#000;stroke-width:2;stroke-linecap:round;stroke-linejoin:round;stroke-miterlimit:4;stroke-opacity:1;stroke-dasharray:none"/>
  <path d="M559.624 466.393 303.529 22.823a18.526 18.526 0 0 0-32.088 0L15.345 466.393a18.525 18.525 0 0 0 16.044 27.789h512.19a18.526 18.526 0 0 0 16.045-27.79" style="fill:#f91a0e;stroke:none;stroke-width:.17640001;stroke-linecap:round;stroke-linejoin:round;fill-opacity:1"/>
  <path d="M510.884 455.888H63.23l223.827-387.68z" style="fill:#fff;stroke:none;stroke-width:.17640001;stroke-linecap:round;stroke-linejoin:round" transform="translate(.428 1.138)"/>
  <path d="m287.057 314.667-69.783-68.354-21.606 22.057 69.331 67.911-67.912 69.331 22.058 21.607 67.912-69.331 67.912 69.331 22.057-21.607-67.912-69.331 69.331-67.911-21.606-22.057z" style="stroke:none;stroke-width:.17640001;stroke-linecap:round;stroke-linejoin:round;fill:#000" transform="translate(.428 1.138)"/>
</svg>
