<svg xmlns="http://www.w3.org/2000/svg" xml:space="preserve" viewBox="-.082 -.083 300 187.5" role="img" aria-labelledby="title">
  <title id="title">Verkehrszeichen A4+M9z - Chaussée rétrécie d'un côté.</title>
  <g transform="matrix(.98216 0 0 .98201 -464.085 24.663)">
    <rect width="301.377" height="186.783" x="474.469" y="-23.084" ry="31.086" style="opacity:1;fill:#fff;fill-opacity:1;fill-rule:evenodd;stroke:#000;stroke-width:4.07295942;stroke-linecap:round;stroke-linejoin:round;stroke-miterlimit:4;stroke-dasharray:none;stroke-dashoffset:0;stroke-opacity:1"/>
    <g aria-label="VERGLAS" style="font-weight:700;font-size:45.6233px;line-height:1.5;font-family:&quot;Caracteres L1&quot;;-inkscape-font-specification:&quot;Caracteres L1 Bold&quot;;fill-rule:evenodd;stroke-width:1.37951;stroke-linecap:round;paint-order:stroke fill markers">
      <path d="m350.886 122 6.616 23.48 5.68-23.48h6.35l-7.909 32.658h-8.264L344.604 122zM391.452 122.044v5.97h-13.5v7.13h9.891v6.036h-9.89v7.463h14.079v6.037H371.67l.023-32.636zM405.51 121.91q5.145 0 8.041 3.699 2.54 3.252 2.54 7.329 0 .735-.09 1.737-.534 4.968-4.967 8.22l5.435 11.763h-7.04l-4.655-9.735h-4.032v9.802h-6.17l.021-32.814zm-.892 16.73 1.827-.222q1.56-.423 2.606-1.76.891-1.314 1.07-3.141.089-2.272-1.337-3.965-1.203-1.382-3.498-1.56h-4.477v10.649zM431.462 121.576q6.393.669 9.089 8.488l-5.792 1.515q-1.56-3.43-3.564-4.121-2.607-.98-5.035 2.74-1.515 2.495-1.871 7.284-.067 5.28 1.648 8.198 1.738 2.918 4.077 3.253 3.943-.067 5.57-5.948h-5.28v-5.948h11.628v.267q.022.535.022 1.092 0 7.774-3.72 12.608-2.495 3.431-7.307 3.832h-.49q-10.693 0-12.074-15.193-.022-.445-.022-.913 0-7.82 3.542-13.1 2.094-2.672 4.522-3.452 1.916-.624 4.01-.624.512 0 1.047.022M450.687 121.977l.022 26.866h12.631l-.022 5.837h-18.802v-32.703zM481.474 121.977l8.42 32.636h-6.393l-1.403-5.547h-9.023l-1.425 5.547h-6.46l8.33-32.636zm-7.173 20.874h6.438l-3.12-12.742zM491.833 148.02v-.045q0-.245.512-.334 3.943-1.27 5.124-1.827.601.824 1.581 1.492 1.582.936 3.386 1.136 1.916.045 2.384-.089 2.205-.623 2.718-1.27.512-.445.89-2.16.09-.669-.177-1.493-.334-.557-.713-.935l-.758-.58-.846-.378q-7.062-2.206-7.775-2.585-3.275-1.314-4.878-4.344-1.047-2.027-.936-4.923.423-3.609 2.963-5.725 2.851-2.072 5.948-2.25h.579q2.205 0 3.653.334 2.94.824 4.59 2.295 1.648 1.359 2.717 3.698l-.067.245-4.589 2.205-.222-.111q-.424-1.36-2.384-2.206-2.205-.824-5.168-.044-1.27.423-1.782 1.091-.179.179-.468 1.114-.045 1.092.089 1.27.29.757 1.158 1.359l.58.245q6.326 1.871 8.576 2.718 1.938.89 2.963 1.96l1.247 1.693q1.382 2.295 1.47 5.013.023.178.023.423 0 .869-.267 2.339-.557 2.072-1.337 3.052-1.337 1.648-1.938 1.982-3.275 2.25-6.75 2.429h-2.027q-2.272-.223-3.832-.891-2.495-1.159-4.032-2.585-1.27-1.158-2.205-3.319" style="letter-spacing:0" transform="matrix(1.2747 0 0 1.2749 77.783 -144.292)"/>
    </g>
    <g aria-label="FRÉQUENT" style="font-weight:700;font-size:45.6233px;line-height:1.5;font-family:&quot;Caracteres L1&quot;;-inkscape-font-specification:&quot;Caracteres L1 Bold&quot;;fill-rule:evenodd;stroke-width:1.37951;stroke-linecap:round;paint-order:stroke fill markers">
      <path d="M354.628 180.299v5.97h-13.5v7.129h9.892v6.059h-9.891l-.023 13.5h-6.282l.022-32.658zM367.816 180.232q5.146 0 8.042 3.698 2.54 3.252 2.54 7.33 0 .734-.09 1.737-.534 4.967-4.967 8.22l5.436 11.762h-7.04l-4.656-9.735h-4.032v9.802h-6.17l.022-32.814zm-.89 16.73 1.826-.223q1.56-.423 2.607-1.76.89-1.314 1.069-3.14.089-2.273-1.337-3.966-1.203-1.381-3.497-1.56h-4.478v10.649zM400.541 180.366v5.97h-13.5v7.128h9.892v6.038h-9.891v7.462h14.079v6.037h-20.362v-32.635zm-4.7-8.176-3.453 6.772h-6.884l2.83-6.772zM415.623 179.853q-1.76 0-3.52.557-2.539.78-4.88 3.586-3.496 5.147-3.497 13.011 0 .49.024.98.044 5.814 3.474 11.338 3.32 4.144 8.221 4.144.467 0 .957-.044l1.248 1.96h7.218l-2.418-4.493q.682-.628 1.259-1.41 3.631-5.235 3.632-12.698v-.4q0-5.971-2.206-10.07-2.584-5.548-7.975-6.372a13 13 0 0 0-1.537-.09m.133 5.703q2.027.29 3.699 2.785 2.049 3.586 1.983 9.2-.335 4.41-1.628 6.683-1.781 3.409-4.365 3.543-2.116-.268-3.766-2.763-2.07-3.564-2.026-9.178.378-4.41 1.649-6.772 1.781-3.363 4.454-3.498M436.964 180.388v22.099q.424 4.232 4.768 4.722 4.277-.467 4.811-4.655v-22.166h6.305v23.814q-.824 4.366-4.121 6.795-2.941 2.071-6.015 2.183-.49.044-.958.044-4.567 0-7.552-2.65-3.408-3.298-3.609-6.728v-23.458ZM475.526 180.366v5.97h-13.5v7.128h9.89v6.038h-9.89v7.462h14.079v6.037h-20.361l.022-32.635zM486.887 180.299l8.198 17.42V180.3h6.06l.022 32.702h-5.948l-9.958-20.606-.022 20.629h-6.127v-32.725ZM524 180.321v6.282h-6.527v26.398h-6.059v-26.465h-6.973v-6.215z" style="letter-spacing:0" transform="matrix(1.2747 0 0 1.2749 77.783 -144.292)"/>
    </g>
  </g>
</svg>
