<svg xmlns="http://www.w3.org/2000/svg" xml:space="preserve" viewBox="-.781 -.08 576.538 507.944" role="img" aria-labelledby="title">
  <title id="title">Verkehrszeichen AB25 - Carrefour à sens giratoire</title>
  <path d="M4.664 460.12 260.67 16.709a30.964 30.964 0 0 1 53.63 0L570.304 460.12a30.965 30.965 0 0 1-26.815 46.446H31.48A30.964 30.964 0 0 1 4.664 460.12" style="fill:#fff;stroke:#000;stroke-width:2;stroke-linecap:round;stroke-linejoin:round;stroke-miterlimit:4;stroke-opacity:1;stroke-dasharray:none"/>
  <path d="M31.39 494.182h512.19a18.526 18.526 0 0 0 16.044-27.79L303.528 22.823a18.526 18.526 0 0 0-32.087 0L15.345 466.393a18.52 18.52 0 0 0 0 18.526 18.52 18.52 0 0 0 16.044 9.264" style="fill:#f91a0e;stroke:none;fill-opacity:1"/>
  <path d="M510.884 455.888H63.23l223.828-387.68z" style="fill:#fff;stroke:none" transform="translate(.427 1.138)"/>
  <path d="m388.246 330.732 27.071 53.318-18.709 24.334-13.369-26.597c-23.046 40.867-69.27 62.864-115.519 54.972l2.79-18.318c38.807 6.766 77.65-11.754 96.824-46.166l-31.629 16.242-.764-30.686zM233.113 415.567l-59.665-3.985-11.35-28.52 29.692 2.105c-23.345-40.697-18.623-91.671 11.801-127.387l14.318 11.76c-25.652 29.897-29.589 72.748-9.814 106.818l2.208-35.487 26.763 15.029zM237.944 239.663l31.683-50.714 30.5 3.458-15.875 25.182c46.897-1.364 89.602 26.864 106.723 70.546l-17.128 7.069c-14.243-36.728-50.158-60.43-89.529-59.083l30.241 18.702-25.885 16.496z" style="fill:#000;stroke:none"/>
</svg>
