<svg xmlns="http://www.w3.org/2000/svg" xml:space="preserve" viewBox="-.781 -.08 576.538 507.944" role="img" aria-labelledby="title">
  <title id="title">Verkehrszeichen A16 - Sur un way avec : * {{Template:fr:Tag|incline|</title>
  <path d="M4.664 460.12 260.67 16.709a30.963 30.963 0 0 1 53.63 0L570.304 460.12a30.965 30.965 0 0 1-26.814 46.446H31.48A30.964 30.964 0 0 1 4.663 460.12" style="fill:#fff;stroke:#000;stroke-width:2;stroke-linecap:round;stroke-linejoin:round;stroke-miterlimit:4;stroke-opacity:1;stroke-dasharray:none"/>
  <path d="M31.39 494.182h512.19a18.528 18.528 0 0 0 16.044-27.79L303.53 22.823a18.524 18.524 0 0 0-32.087 0L15.345 466.393a18.52 18.52 0 0 0 0 18.525 18.52 18.52 0 0 0 16.044 9.265" style="fill:#f91a0e;stroke:none"/>
  <path d="M510.884 455.888H63.23l223.828-387.68z" style="fill:#fff;stroke:none" transform="translate(.427 1.138)"/>
  <path d="m83.125 444.401 75.396-130.59 328.536 129.948" style="fill:#000;stroke:none" transform="translate(.427 1.138)"/>
  <path d="m158.824 314.899 330.943 130.64" style="fill:none;stroke:#000;stroke-width:.17640001;stroke-linecap:round;stroke-linejoin:round"/>
  <path d="m179.12 307.667-12.509-3.052 14.358-24.791 10.31 3.079 32.83-14.325 65.603 24.85 15.85 35.108 42.105 23.007-6.357 19.34-11.775-3.06c3.73-9.257-.46-19.813-9.527-23.985s-19.813-.491-24.415 8.364L211.17 321.57c2.972-8.647-1.207-18.127-9.595-21.768-8.389-3.64-18.168-.214-22.454 7.865" style="fill:#000;stroke:none"/>
  <path d="m290.383 321.165-40.834-15.496 5.697-19.552 27.505 11.607zM225.99 275.972l25.891 8.866-5.981 19.318-41.019-15.078 1.413-4.298z" style="fill:#fff;stroke:none" transform="translate(.427 1.138)"/>
  <circle cx="195.105" cy="313.285" r="13.599" style="fill:#000;stroke:none" transform="translate(.427 1.138)"/>
  <circle cx="311.814" cy="358.57" r="14.708" style="fill:#000;stroke:none" transform="translate(.427 1.138)"/>
  <path d="m192.536 344.119-17.663 48.53-9.218-3.354 12.502-34.246-.132-.05q-.254.395-3.063 1.019l-3.428.473-2.938.055q-1.673-.236-1.865-.12l3.728-10.24 2.396-.212q6.312-1.406 10.266-5.28zM194.41 378.136a73 73 0 0 1 1.223-3.672 50 50 0 0 1 .683-1.771 65 65 0 0 1 3.038-6.6l.084-.232.241-.248 1.061-2.195.285-.271 1.004-1.73.204-.15q1.36-2.2 4.096-4.57l1.487-1.104 2.535-1.21q3.806-1.309 8.87-.624 1.583.276 3.168.854l.265.096q2.454.969 4.886 2.713 1.075.542 3.06 2.799 1.968 2.511 3.05 6.01l.47 2.004.196 2.129-.118 1.455.063.135-.12.33q.077.815 0 1.234l.071.213-.508 3.145.074.104-.222.404.035.313-.956 3.656.013.377-.11-.002-.527 2.166-.09.04q.012.38-.145.397l-.02.367-.103.074-.652 2.307-.09.043-.25.994-.058.053-.48 1.322a46 46 0 0 1-1.269 2.867l-.61 1.162.042.092-.285.27q-.544 1.184-1.619 2.703l-.427.555-.166.352-1.748 2.133-.214.07q-.12.331-1.593 1.703l-2.415 1.703q-3.704 2.055-7.38 2.289a18.3 18.3 0 0 1-4.593-.438l-2.604-.76-.583-.25q-7.46-2.94-10.378-9.314-1.353-3.373-1.283-7.164a27.2 27.2 0 0 1 1.015-7.824zM207.23 394.1q1.999.876 2.567.859l.01.078 1.96.264q2.445.068 4.48-1.924 1.769-2.086 3.412-5.268l2.883-7.404 1.176-3.54.62-2.73-.085-.18.244-2.005-.108-.115q.226-2.161-.548-4.352-.746-1.245-1.276-1.736l-1.747-1.16-1.979-.832q-1.344-.528-3.21-.533-1.785.174-3.495 1.684-1.363 1.487-2.92 3.914l-.007.22q-.259.096-.627 1.009-1.87 3.695-4.224 11.295l-.782 3.793-.232 2.797q.038 2.258 1.035 3.63.911 1.192 2.853 2.236M294.222 383.076l5.105 1.857-47.574 36.297-5.104-1.857zm-23.42-8.375q4.262 1.55 6.162 5.686 1.9 4.132.35 8.395-1.54 4.23-5.669 6.168-4.129 1.94-8.357.398-4.229-1.538-6.146-5.678t-.377-8.367q1.55-4.262 5.663-6.207 4.112-1.947 8.374-.395m-1.91 4.992q-2.206-.805-4.34.19-2.134.994-2.938 3.202-.791 2.173.227 4.297 1.017 2.124 3.191 2.914 2.206.803 4.333-.176 2.13-.977 2.92-3.15.815-2.24-.17-4.352c-.656-1.41-1.73-2.382-3.223-2.925m14.018 29.53q4.221 1.538 6.155 5.665 1.935 4.128.396 8.355-1.54 4.23-5.633 6.088-4.095 1.858-8.349.309-4.29-1.56-6.23-5.615-1.943-4.055-.402-8.283 1.55-4.263 5.68-6.164 4.128-1.901 8.383-.354m-1.894 4.999q-2.173-.79-4.269.199t-2.886 3.164q-.803 2.206.16 4.328.96 2.121 3.135 2.912 2.24.817 4.351-.168 2.111-.983 2.927-3.225.803-2.206-.188-4.301-.99-2.093-3.23-2.91" style="fill:#fff;stroke:none"/>
</svg>
