<svg xmlns="http://www.w3.org/2000/svg" xml:space="preserve" viewBox="-.781 -.08 576.538 507.944" role="img" aria-labelledby="title">
  <title id="title">Verkehrszeichen A15b - A15b</title>
  <path d="M4.664 460.12 260.67 16.709a30.964 30.964 0 0 1 53.63 0L570.304 460.12a30.965 30.965 0 0 1-26.815 46.446H31.48A30.964 30.964 0 0 1 4.664 460.12" style="fill:#fff;stroke:#000;stroke-width:2;stroke-linecap:round;stroke-linejoin:round;stroke-miterlimit:4;stroke-opacity:1;stroke-dasharray:none"/>
  <path d="M31.39 494.182h512.19a18.52 18.52 0 0 0 16.044-9.264 18.52 18.52 0 0 0 .001-18.525L303.53 22.823a18.528 18.528 0 0 0-32.088 0L15.345 466.393a18.52 18.52 0 0 0 0 18.525 18.52 18.52 0 0 0 16.044 9.264" style="fill:#f91a0e;stroke:none"/>
  <path d="M31.39 494.27h512.19a18.66 18.66 0 0 0 16.12-9.308 18.67 18.67 0 0 0 .001-18.613L303.605 22.779a18.67 18.67 0 0 0-16.12-9.308 18.66 18.66 0 0 0-16.12 9.308L15.268 466.349a18.66 18.66 0 0 0 0 18.613 18.67 18.67 0 0 0 16.12 9.308m-15.969-9.396a18.49 18.49 0 0 1 0-18.438l256.096-443.57a18.49 18.49 0 0 1 15.968-9.218 18.49 18.49 0 0 1 15.968 9.219l256.096 443.57a18.49 18.49 0 0 1 0 18.438 18.49 18.49 0 0 1-15.969 9.22H31.39a18.49 18.49 0 0 1-15.969-9.221" style="fill:red"/>
  <path d="M510.884 455.888H63.23l223.828-387.68z" style="fill:#fff;stroke:none" transform="translate(.427 1.138)"/>
  <path d="m287.408 69.39 223.827 387.68a.09.09 0 0 1 0-.088.09.09 0 0 1 .076-.044H63.657c.032 0 .061.017.076.044a.09.09 0 0 1 0 .088L287.56 69.39a.088.088 0 0 1-.152 0M63.658 457.114H511.31a.088.088 0 0 0 .076-.132L287.561 69.302a.088.088 0 0 0-.152 0L63.581 456.982a.09.09 0 0 0 0 .088.09.09 0 0 0 .076.044" style="fill:#fff"/>
  <path d="m236.813 296.628-2.426-18.595-3.033-8.854-22.444-4.428-.606-13.281 24.87-6.199 1.819-6.198 13.345-1.771 1.82-1.771.606-19.48 4.246-3.541 1.214 8.854 2.426.886 5.459-7.084 2.426-12.396 6.066-5.313.607 14.167 1.213-.886 7.885-14.167.607-6.198 3.639.886 3.64 4.428-1.819 8.854-4.247 6.197-7.279 9.741-17.591 13.282-.606 3.541 13.345 1.771 3.032 2.656.607 3.542-3.033 2.656-13.345 1.772-2.426 13.281 2.426 8.855 5.459 10.625 9.099 13.282 12.738 11.511 24.264 9.74 9.705 3.541 30.935-1.77 37.608 16.823 1.213 3.542-2.426 3.542.607 7.969 3.033 9.74 4.852 9.74 11.525 7.969 19.41 38.96 19.411 14.167-.606 13.282-29.117-21.251-18.803-33.647-26.083-2.657-15.772-5.312-13.344-8.855-9.098-10.626-3.033-3.541-14.558-1.771-9.099 4.427-12.738 3.543h-13.952l-12.737-3.543-5.46 5.313-39.427-8.854 15.164 17.709 13.952 8.854-.607 9.74-50.347-45.158.607-1.77v-3.542l2.427-4.428 38.821 5.312-1.82-31.876z" style="fill:#000;stroke:none" transform="translate(.427 1.138)"/>
</svg>
