<svg xmlns="http://www.w3.org/2000/svg" xml:space="preserve" viewBox="-.781 -.08 576.538 507.944" role="img" aria-labelledby="title">
  <title id="title">Verkehrszeichen A21 - Arrivé fréquente de cyclistes</title>
  <path d="M4.664 460.12 260.67 16.709a30.963 30.963 0 0 1 53.631 0L570.305 460.12a30.965 30.965 0 0 1-26.815 46.446H31.48A30.964 30.964 0 0 1 4.663 460.12" style="fill:#fff;stroke:#000;stroke-width:2;stroke-linecap:round;stroke-linejoin:round;stroke-miterlimit:4;stroke-opacity:1;stroke-dasharray:none"/>
  <path d="M31.39 494.182h512.191a18.526 18.526 0 0 0 16.044-27.79L303.53 22.823a18.526 18.526 0 0 0-32.087 0L15.346 466.392a18.526 18.526 0 0 0 16.044 27.789" style="fill:#f91a0e;stroke:none"/>
  <path d="M511.296 456.299H63.642L287.469 68.62z" style="fill:#fff;stroke:none" transform="translate(.016 .726)"/>
  <path d="M312.947 193.517c-5.739.006-12.683 3.982-14.823 9.771l-16.777 46.368-51.364 30.623c-5.236 3.323-4.847 8.954-2.065 11.044l9.476 7.3-11.467 38.422c-8.534-4.317-14.7-5.734-23.636-5.696-17.482.037-50.537 13.401-50.424 49.65.075 25.763 18.278 52.877 51.254 52.802 35.719-.14 50.874-31.163 50.81-52.194-.065-19.42-11.933-33.976-20.63-40.395l3.116-9.44 54.867 62.335.02 5.254-.076 9.827c0 6.217 5.07 11.283 11.338 11.283 6.243 0 11.283-5.066 11.283-11.283v-.774l.02-15.21 7.982-.811c6.13 26.393 27.316 42.793 51.733 42.44 17.885-.226 37.153-11.003 45.41-30.272 1.006-2.92 2.82-9.329 2.82-9.329.894-4.015 1.29-8.024 1.29-12.555-.084-31.277-27.337-50.352-50.054-50.277-11.29.028-19.125 2.584-24.374 5.365l-13.845-21.663 15.302-22.88c10.534-16.06 4.203-29.867 4.203-29.867l-24.04-55.697c-4.406-10.333-11.611-14.146-17.35-14.14zm-10.177 53.632 11.67 27.286-38.864 12.942c-6.972 2.102-10.248 7.9-8.776 13.035l1.733 6.25-24.539.076 2.969-11.523-9.753-8.407 6.176-3.927c4.204 4.694 8.665 4.425 11.8 2.839l37.702-21.829Zm14.99 51.64-4.96 7.744-19.949.057zm-9.403 14.953-10.196 15.191-4.646-15.155zm-37.943.094 11.302 40.21c1.535 4.242 5.223 6.972 9.44 7.375l-.057 19.414-51.697-58.536 2.747-8.352zm58.831 10.03 11.929 18.639c-7.602 5.676-19.769 18.328-20.096 42.367l-7.19.737-.185-39.122zM202.31 340.385c9.314 0 13.948 1.9 21.147 5.475l-5.568 18.53c-3.398 11.717-10.564 12.831-10.564 12.831-1.284-1.02-2.86-1.586-4.609-1.586a7.384 7.384 0 0 0-7.393 7.393 7.384 7.384 0 0 0 7.393 7.394c3.637 0 6.727-2.452 7.356-5.9 11.013-4.103 15.303-17.81 15.303-17.81l5.088-15.505c1.724 1.46 14.345 12.306 14.27 31.084-.126 26.292-22.326 42.523-42.275 42.7-20 .188-41.456-16.036-41.52-43.75-.1-27.438 26.647-40.806 41.372-40.856m170.225.793c22.63-.302 41.554 19.984 41.63 41.795.085 21.283-15.213 42.728-40.284 42.792-19.496.075-31.24-10.178-37.445-20.89-.931-.603-3.908-8.94-3.908-8.94-.529-1.687-.94-3.044-1.217-4.555l32.061-3.373c1.536 3.624 4.922 5.715 9.126 5.715 5.601 0 10.159-4.54 10.159-10.14s-4.558-10.159-10.159-10.159c-.465 0-.543-.066-.995 0l-17.736-27.71c1.309-.68 6.811-4.36 18.768-4.535m-26.29 9.236 17.662 27.71c-.554.806-.823 1.522-1.088 2.416l-32.32 3.374c-.075-14.323 5.4-25.067 15.746-33.5" style="fill:#000;fill-opacity:1;fill-rule:nonzero;stroke:none;stroke-width:12.586"/>
  <circle cx="295.441" cy="173.354" r="19.427" style="fill:#000;stroke-width:14.6275;stroke-linecap:round;stroke-linejoin:round;fill-opacity:1"/>
</svg>
