<svg xmlns="http://www.w3.org/2000/svg" xml:space="preserve" viewBox="-.781 -.08 576.538 507.944" role="img" aria-labelledby="title">
  <title id="title">Verkehrszeichen A2a - Dos dՉne ou cassis</title>
  <path d="M4.664 460.121 260.67 16.708a30.964 30.964 0 0 1 53.63 0l256.005 443.413a30.965 30.965 0 0 1-26.815 46.446H31.48a30.964 30.964 0 0 1-26.815-46.446z" style="fill:#fff;fill-opacity:1;stroke:#000;stroke-width:2;stroke-miterlimit:4;stroke-opacity:1;stroke-dasharray:none"/>
  <path d="M31.39 494.182h512.191a18.526 18.526 0 0 0 16.044-27.789L303.53 22.823a18.526 18.526 0 0 0-32.087 0L15.346 466.392a18.526 18.526 0 0 0 16.044 27.789" style="fill:#f8190d;stroke:none"/>
  <path d="m287.219 68.37 223.827 387.679H63.392z" style="fill:#fff;stroke:none" transform="translate(.266 .976)"/>
  <path d="M144.75 421.477h-.081v-40.194a33.8 33.8 0 0 0 31.315-21.075 43.219 43.219 0 0 1 79.08-2.262 35.03 35.03 0 0 0 28.353 19.849h8.136a35.03 35.03 0 0 0 28.353-19.85 43.22 43.22 0 0 1 40.277-24.664 43.22 43.22 0 0 1 38.802 26.927 33.8 33.8 0 0 0 31.315 21.075v40.194z" style="fill:#000;stroke:none"/>
</svg>
