<svg xmlns="http://www.w3.org/2000/svg" xml:space="preserve" viewBox="-.933 -.933 576 576" role="img" aria-labelledby="title">
  <title id="title">Verkehrszeichen AB7 - Fin de route à caractère prioritaire</title>
  <path fill="#fff" stroke="#000" stroke-linecap="round" stroke-linejoin="round" stroke-width=".176" d="M270.101 7.116 7.117 270.1a23.995 23.995 0 0 0 0 33.934l262.984 262.984a23.997 23.997 0 0 0 33.933 0l262.983-262.984a23.995 23.995 0 0 0 0-33.934L304.034 7.116a23.996 23.996 0 0 0-33.933 0"/>
  <path fill="#f6f623" d="m101.095 288.479 187.23-188.026 203.753 202.89-187.23 188.026z"/>
  <path fill="none" stroke="#ff0" stroke-linecap="round" stroke-linejoin="round" stroke-width=".17599824" d="M445.455 287.068 287.072 445.452l-57.984-57.984 158.384-158.383zM287.066 128.68l57.984 57.984-158.384 158.384-57.984-57.984z"/>
  <path fill="#fff" stroke="#000" stroke-linecap="round" stroke-linejoin="round" stroke-width="3" d="m102.676 287.067 184.391-184.391 70.987 70.987 43.538-43.538-101.801-101.8a17.995 17.995 0 0 0-25.45 0L28.325 274.342a17.995 17.995 0 0 0 0 25.45l101.8 101.8 43.539-43.538zM172.542 444.009l43.538-43.538 70.987 70.987 184.391-184.391-70.988-70.987 43.539-43.538 101.8 101.8a17.995 17.995 0 0 1 0 25.45L299.792 545.809a17.995 17.995 0 0 1-25.45 0z"/>
  <path d="M129.363 402.38 402.4 128.184l43.434 43.25-273.037 274.198z"/>
</svg>
