<svg xmlns="http://www.w3.org/2000/svg" xml:space="preserve" viewBox="-.781 -.08 576.538 507.944" role="img" aria-labelledby="title">
  <title id="title">Verkehrszeichen A18 - Voie à double-sens La route est a double sens à partir du panneau. Contrairement aux autres panneaux de danger, celui-ci prend effet immédiatement.</title>
  <path d="M4.664 460.12 260.67 16.709a30.964 30.964 0 0 1 53.63 0L570.304 460.12a30.965 30.965 0 0 1-26.815 46.446H31.48A30.964 30.964 0 0 1 4.664 460.12" style="fill:#fff;stroke:#000;stroke-width:2;stroke-linecap:round;stroke-linejoin:round;stroke-miterlimit:4;stroke-opacity:1;stroke-dasharray:none"/>
  <path d="M31.39 494.182h512.19a18.526 18.526 0 0 0 16.044-27.79L303.528 22.823a18.526 18.526 0 0 0-32.087 0L15.345 466.393a18.52 18.52 0 0 0 0 18.526 18.52 18.52 0 0 0 16.044 9.264" style="fill:#f91a0e;stroke:none"/>
  <path d="M510.884 455.888H63.23l223.828-387.68z" style="fill:#fff;stroke:none" transform="translate(.427 1.138)"/>
  <path d="M315.434 427.005V294.049h-29.835l44.607-82.843 44.605 82.843h-29.834v132.956l-10.981.232h-7.581zM229.137 212.417v132.956h-29.834l44.606 82.843v-.001l44.607-82.842h-29.834V212.417l-10.981-.233h-7.582z" style="fill:#000;stroke:none" transform="translate(.427 1.138)"/>
</svg>
