<svg xmlns="http://www.w3.org/2000/svg" xml:space="preserve" viewBox="-.781 -.08 576.538 507.944" role="img" aria-labelledby="title">
  <title id="title">Verkehrszeichen A9b - Sur le node d'intersection avec chaque voie ferrée :</title>
  <path d="M4.664 460.12 260.67 16.709a30.963 30.963 0 0 1 53.631 0L570.305 460.12a30.965 30.965 0 0 1-26.815 46.446H31.48A30.964 30.964 0 0 1 4.663 460.12" style="fill:#fff;stroke:#000;stroke-width:2;stroke-linecap:round;stroke-linejoin:round;stroke-miterlimit:4;stroke-opacity:1;stroke-dasharray:none"/>
  <path d="M31.39 494.182h512.191a18.526 18.526 0 0 0 16.044-27.79L303.53 22.823a18.526 18.526 0 0 0-32.087 0L15.346 466.392a18.526 18.526 0 0 0 16.044 27.789" style="fill:#f91a0e;stroke:none"/>
  <path d="M511.296 456.299H63.642L287.469 68.62z" style="fill:#fff;stroke:none" transform="translate(.016 .726)"/>
  <path d="M177.469 272.17h221" style="fill:none;stroke:#000;stroke-width:7;stroke-linecap:round;stroke-linejoin:round;stroke-opacity:1" transform="translate(.016 .726)"/>
  <path d="m290.469 322.17-34-49 9-2 33 51-17 24 9 2 1 9h-49v-8l16-1z" style="fill:#000;stroke:none" transform="translate(.016 .726)"/>
  <path d="M132.469 405.17v-5l20-42 3-4h260l26 48v17l-5 4h-299l-4-2z" style="fill:#000;stroke:none" transform="translate(.016 .726)"/>
  <path d="m159.135 364.17 2-1.333 254.667-.667 2 2 13.334 31.333v2.667l-2 2-2 .667-276.001 1.333-3.333-2.667-2-1.333v-2l10.667-31.333" style="fill:#fff;stroke:none" transform="translate(.016 .726)"/>
  <path d="m172.469 356.17-1.334 6 2.667.667" style="fill:none;stroke:#000;stroke-width:.17640001;stroke-linecap:round;stroke-linejoin:round" transform="translate(.016 .726)"/>
  <path d="M173.818 363.563h8.667v39.333h-8.667z" style="fill:#000;stroke:#000;stroke-width:.17640001;stroke-linecap:round;stroke-linejoin:round;stroke-opacity:1"/>
  <path d="m174.469 367.503-3.334-5.333 15.334-.667-3.334 4.667zM186.469 403.503l-16 .667 3.333-7.333 8.667.666z" style="stroke:#000;stroke-width:.17640001;stroke-linecap:round;stroke-linejoin:round" transform="translate(.016 .726)"/>
  <path d="M260.818 363.23h8.667v39.333h-8.667z" style="fill:#000;stroke:#000;stroke-width:.17640001;stroke-linecap:round;stroke-linejoin:round;stroke-opacity:1"/>
  <path d="m261.469 367.17-3.334-5.333 15.334-.667-3.334 4.667zM273.469 403.17l-16 .667 3.333-7.333 8.667.666z" style="stroke:#000;stroke-width:.17640001;stroke-linecap:round;stroke-linejoin:round" transform="translate(.016 .726)"/>
  <path d="M305.485 363.897h8.666v39.333h-8.666z" style="fill:#000;stroke:#000;stroke-width:.17640001;stroke-linecap:round;stroke-linejoin:round;stroke-opacity:1"/>
  <path d="m306.135 367.837-3.333-5.333 15.333-.667-3.333 4.667zM318.135 403.837l-16 .667 3.334-7.333 8.666.666z" style="stroke:#000;stroke-width:.17640001;stroke-linecap:round;stroke-linejoin:round" transform="translate(.016 .726)"/>
  <path d="M393.485 363.896h8.666v39.333h-8.666z" style="stroke:#000;stroke-width:.17640001;stroke-linecap:round;stroke-linejoin:round"/>
  <path d="m394.135 367.836-3.333-5.333 15.333-.667-3.333 4.667z" style="fill:#000;stroke:#000;stroke-width:.17640001;stroke-linecap:round;stroke-linejoin:round;stroke-opacity:1" transform="translate(.016 .726)"/>
  <path d="m406.135 403.836-16 .667 3.334-7.333 8.666.666z" style="stroke:#000;stroke-width:.17640001;stroke-linecap:round;stroke-linejoin:round" transform="translate(.016 .726)"/>
  <ellipse cx="183.802" cy="418.504" rx="10.667" ry="10.333" style="fill:#000;stroke:#000;stroke-width:7;stroke-linecap:round;stroke-linejoin:round;stroke-opacity:1" transform="translate(.016 .726)"/>
  <ellipse cx="216.135" cy="419.171" rx="10.666" ry="10.333" style="fill:#000;stroke:#000;stroke-width:7;stroke-linecap:round;stroke-linejoin:round;stroke-opacity:1" transform="rotate(83.42 215.732 419.558)scale(.99999)"/>
  <ellipse cx="361.801" cy="418.504" rx="10.666" ry="10.333" style="fill:#000;stroke:#000;stroke-width:7;stroke-linecap:round;stroke-linejoin:round;stroke-opacity:1" transform="rotate(83.42 361.402 418.885)scale(.99999)"/>
  <ellipse cx="391.801" cy="419.171" rx="10.666" ry="10.333" style="fill:#000;stroke:#000;stroke-width:7;stroke-linecap:round;stroke-linejoin:round;stroke-opacity:1" transform="rotate(83.42 391.402 419.552)scale(.99999)"/>
  <path d="M81.485 434.23h414" style="fill:none;stroke:#000;stroke-width:7;stroke-linecap:round;stroke-linejoin:round;stroke-opacity:1"/>
  <path d="m420.276 355.879 2.142 2.604 17.101 37.418 2.299 4.664-.811 2.137-2.15 1.545-24.481-49.301z" style="stroke:#000;stroke-width:.17640001;stroke-linecap:round;stroke-linejoin:round" transform="translate(.016 .726)"/>
</svg>
