<svg xmlns="http://www.w3.org/2000/svg" xml:space="preserve" viewBox="-.781 -.08 576.538 507.944" role="img" aria-labelledby="title">
  <title id="title">Verkehrszeichen A7 - A7</title>
  <path d="M4.664 460.12 260.67 16.709a30.965 30.965 0 0 1 53.631 0L570.305 460.12a30.965 30.965 0 0 1-26.815 46.446H31.48a30.96 30.96 0 0 1-26.815-15.482 30.96 30.96 0 0 1 0-30.964" style="fill:#fff;stroke:#000;stroke-width:2;stroke-linecap:round;stroke-linejoin:round;stroke-miterlimit:4;stroke-opacity:1;stroke-dasharray:none"/>
  <path d="M31.39 494.18h512.191a18.524 18.524 0 0 0 16.044-27.787L303.53 22.822a18.526 18.526 0 0 0-32.087 0L15.345 466.392a18.526 18.526 0 0 0 16.045 27.789" style="fill:#f41a0e;stroke:none"/>
  <path d="M511.296 456.299H63.642L287.469 68.62z" style="fill:#fff;stroke:none" transform="translate(.016 .726)"/>
  <path d="m212.878 401.688 16.322.016v21.837h28.364l-.146-21.812 17.458.016v21.796h28.365l-.146-21.771 16.986.016v21.755h28.364l-.145-21.73 19.366.018v21.712h28.365l-.145-21.686 15.819.015v-21.086h-15.961l-.526-78.51h16.636l-16.786-22.385-13.899-19.367-13.503 18.152v1.057l-20.381-.117-13.701-19.092-13.503 18.152v.783l-18.189-.106-13.513-18.829-13.503 18.152v.521l-18.85-.109-13.323-18.564-13.503 18.152v.257l-17.9-.102-13.137-18.307-13.503 18.152-17.491 23.6h17.491v78.51h-14.266v20.866l14.266.013v21.878h28.365z" style="fill:#000;stroke:none" transform="translate(.016 .726)"/>
  <path d="M348.159 380.784h19.507v-78.51h-20.033zM302.954 380.784h17.127v-78.51h-17.653zM257.278 380.784h17.598v-78.51h-18.124zM212.738 380.784H229.2v-78.51h-16.988z" style="fill:#fff;stroke:none" transform="translate(.016 .726)"/>
</svg>
