<svg xmlns="http://www.w3.org/2000/svg" xml:space="preserve" viewBox="-.722 -.722 576 576" role="img" aria-labelledby="title">
  <title id="title">Verkehrszeichen AB6 - Route à caractère prioritaire Les usagers de la route sur laquelle est implantée ce panneau sont prioritaires à toutes les intersections.</title>
  <path fill="#fff" stroke="#000" stroke-linecap="round" stroke-linejoin="round" stroke-width=".6" d="M270.312 7.328 7.328 270.312a23.995 23.995 0 0 0 0 33.934L270.312 567.23a23.997 23.997 0 0 0 33.933 0l262.983-262.984a23.995 23.995 0 0 0 0-33.934L304.245 7.328a23.996 23.996 0 0 0-33.933 0"/>
  <path fill="#fff" stroke="#000" stroke-linecap="round" stroke-linejoin="round" stroke-width="4" d="M274.554 28.536 28.536 274.554a17.995 17.995 0 0 0 0 25.45l246.018 246.017a17.995 17.995 0 0 0 25.45 0l246.018-246.017a17.995 17.995 0 0 0 0-25.45L300.003 28.536a17.995 17.995 0 0 0-25.449 0"/>
  <path fill="none" stroke="#ff0" stroke-linecap="round" stroke-linejoin="round" stroke-width=".17599824" d="m128.89 287.278 158.385-158.384 158.383 158.384-158.384 158.384z"/>
  <path fill="#f6f73d" stroke="#000" stroke-linecap="round" stroke-linejoin="round" stroke-width="3.99996" d="m102.885 287.28 184.39-184.39 184.388 184.39-184.389 184.388z"/>
</svg>
