<svg xmlns="http://www.w3.org/2000/svg" xml:space="preserve" viewBox="-.943 -.943 576 576" role="img" aria-labelledby="title">
  <title id="title">Verkehrszeichen B7b - Accès interdit à tous les véhicules à moteur</title>
  <circle cx="287.057" cy="287.057" r="286.969" fill="#fff" stroke="#000" stroke-linecap="round" stroke-linejoin="round"/>
  <circle cx="287.057" cy="287.057" r="273.982" fill="red" stroke="red" stroke-linecap="round" stroke-linejoin="round" stroke-width=".176"/>
  <path fill="#fff" stroke="red" stroke-linecap="round" stroke-linejoin="round" stroke-width=".176" d="M444.894 397.146c56.203-80.578 42.686-190.557-31.359-255.126s-184.839-62.997-257.021 3.649l283.008 246.793zM417.433 428.6c-72.261 66.562-183.058 68.002-257.025 3.346-73.968-64.657-87.355-174.651-31.057-255.164L412.066 423.91z"/>
  <path d="M337.447 161.64c-7.36-.097-12.76 3.255-15.049 12.272l-6.034 23.956a7.4 7.4 0 0 0-7.362 7.416v22.59a7.393 7.393 0 0 0 7.026 7.398v23.288a3.07 3.07 0 0 0 3.08 3.079h10.249a3.073 3.073 0 0 0 3.081-3.08v-23.267h70.1v23.268a3.073 3.073 0 0 0 3.081 3.079h10.25a3.07 3.07 0 0 0 3.079-3.08v-23.287a7.395 7.395 0 0 0 7.026-7.398v-22.59c0-4.091-3.28-7.386-7.363-7.416l-6.035-23.956c-2.289-9.017-7.686-12.37-15.047-12.271h-60.082m2.317 8.262 51.56.05c11.708-.254 12.137-.007 15.047 12.27l2.375 9.432c.66 2.586.325 4.648-1.203 6.212h-80.111c-1.529-1.564-1.865-3.626-1.204-6.212l2.376-9.431c2.546-10.743 3.194-12.276 11.16-12.321m-15.53 40.229a6.367 6.367 0 0 1 6.367 6.367 6.367 6.367 0 0 1-6.368 6.367 6.367 6.367 0 0 1-6.367-6.367 6.367 6.367 0 0 1 6.367-6.367m86.51 0a6.367 6.367 0 0 1 6.366 6.367 6.367 6.367 0 0 1-6.367 6.367 6.367 6.367 0 0 1-6.367-6.367 6.367 6.367 0 0 1 6.367-6.367" style="opacity:1;fill:#000;fill-opacity:1;fill-rule:evenodd;stroke:none;stroke-width:1;stroke-linecap:round;stroke-linejoin:round;stroke-miterlimit:4;stroke-dasharray:none;stroke-dashoffset:0;stroke-opacity:1"/>
  <path d="m163.367 259.35-8.794 4.184c-2.942 1.747-3.1 3.857-1.702 6.17l2.384 4.872-.814 2.077h-14.547v11.205h10.159l-3.107 7.934a24.1 24.1 0 0 0-6.769-.984 24.1 24.1 0 0 0-14.243 4.689l1.464 2.09a21.56 21.56 0 0 0-8.778 17.332 21.56 21.56 0 0 0 21.557 21.558 21.56 21.56 0 0 0 18.725-10.93l2.25 1.204a24.1 24.1 0 0 0 3.137-11.832 24.11 24.11 0 0 0-12.944-21.356l1.708-4.362 22.206 15.643c.225 6.751.944 13.42 8.602 13.62 5.92.427 11.842.65 17.766.773a21.56 21.56 0 0 0 21.12 17.24 21.56 21.56 0 0 0 21.557-21.558 22 22 0 0 0-.213-2.851l2.529-.338a24.11 24.11 0 0 0-15.425-19.362h6.845v-4.539h-34.079l1.312-4.049h7.964c5.107-.88 4.125-6.963.372-7.123a4 4 0 0 0-.372.003h-22.204v4.513l7.863 3.21.307-.031-3.429 9.576c-2.582 5.548-7.99 6.67-10.816 6.188-3.724-.635-7.75-4.45-8.897-9.308l-18.536-13.025 2.076-5.302c.615-1.549.377-1.942-.16-2.871l-2.882-6.033 8.935-4.113zm-23.19 42.55a17 17 0 0 1 4.165.539l-4.99 12.746a3.83 3.83 0 0 0-3.004 3.734 3.83 3.83 0 0 0 7.659 0 3.8 3.8 0 0 0-.38-1.652l5.107-13.04a17.02 17.02 0 0 1 8.463 14.692 17.02 17.02 0 0 1-17.02 17.02 17.02 17.02 0 0 1-17.02-17.02 17.02 17.02 0 0 1 17.02-17.02m82.57 0a17.02 17.02 0 0 1 17.02 17.02 17.02 17.02 0 0 1-17.02 17.019 17.02 17.02 0 0 1-16.436-12.624c2.881.035 5.763.05 8.646.057a8.73 8.73 0 0 0 7.206 3.822 8.725 8.725 0 0 0 8.725-8.725 8.725 8.725 0 0 0-8.725-8.725h-13.73a17.02 17.02 0 0 1 14.313-7.844m-18.808 6.535-.163.282-.004-.157z" style="opacity:1;fill:#000;fill-opacity:1;fill-rule:evenodd;stroke:none;stroke-width:.40000001;stroke-linecap:round;stroke-linejoin:round;stroke-miterlimit:4;stroke-dasharray:none;stroke-dashoffset:0;stroke-opacity:1"/>
  <path d="m253.542 356.002-13.45 2.648-5.179 9.26c-2.443-1.514-3.86-2.473-6.584-3.426-4.873-1.499-6.597-1.131-7.655 1.135-1.497 4.237-3.015 8.472 1.527 13.434 2.315 0 4.21-.12 5.872-.307l-8.04 11.454a24.9 24.9 0 0 0-11.768-2.98 24.91 24.91 0 0 0-24.908 24.907 24.91 24.91 0 0 0 24.908 24.908 24.91 24.91 0 0 0 24.908-24.908 24.9 24.9 0 0 0-7.722-18.015l8.152-11.616c2.024 7.834 7.545 10.228 15.12 9.425l1.102 5.056c-2.539 1.54-4.297 4.921-4.297 8.874 0 5.411 3.29 9.768 7.375 9.768h36.659a24.91 24.91 0 0 0 24.631 21.416 24.91 24.91 0 0 0 24.635-21.416h4.53v-5.65h-4.373a25 25 0 0 0-1.273-5.96l2.62-.903a27.68 27.68 0 0 0-19.276-17.771l-3.123-13.031-45.511 2.354c-2.086-2.571-5.048-4.632-8.972-5.163l-21.004-2.84-2.04-2.04 1.413-2.825 12.711-3.065zm-45.277 39.208a16.9 16.9 0 0 1 7.13 1.598l-5.2 7.41a8.2 8.2 0 0 0-1.93-.241 8.15 8.15 0 0 0-8.15 8.15 8.15 8.15 0 0 0 8.15 8.15 8.15 8.15 0 0 0 8.15-8.15 8.15 8.15 0 0 0-.943-3.795l5.306-7.562a16.92 16.92 0 0 1 4.404 11.357 16.917 16.917 0 0 1-16.917 16.918 16.917 16.917 0 0 1-16.917-16.918 16.917 16.917 0 0 1 16.917-16.917m105.928 0a16.92 16.92 0 0 1 16.759 14.76h-8.9a8.15 8.15 0 0 0-6.788-5.914l-3.436-8.662a17 17 0 0 1 2.365-.184m-8.04 2.05 3.278 8.265a8.15 8.15 0 0 0-3.088 4.445h-8.909a16.92 16.92 0 0 1 8.719-12.71m-8.492 18.36h9.176a8.15 8.15 0 0 0 7.356 4.658 8.15 8.15 0 0 0 7.354-4.659h9.193a16.92 16.92 0 0 1-16.547 13.426 16.92 16.92 0 0 1-16.532-13.426" style="opacity:1;fill:#000;fill-opacity:1;fill-rule:evenodd;stroke:none;stroke-width:.30000001;stroke-linecap:round;stroke-linejoin:round;stroke-miterlimit:4;stroke-dasharray:none;stroke-dashoffset:0;stroke-opacity:1"/>
</svg>
