<svg xmlns="http://www.w3.org/2000/svg" xml:space="preserve" viewBox="-.031 -.031 576 576" role="img" aria-labelledby="title">
  <title id="title">Verkehrszeichen B9g - Accès interdit aux cyclomoteurs</title>
  <circle cx="287.969" cy="287.969" r="286.969" fill="#fff" stroke="#000" stroke-linecap="round" stroke-linejoin="round" stroke-width="2"/>
  <circle cx="287.969" cy="287.969" r="273.982" fill="red" stroke="red" stroke-linecap="round" stroke-linejoin="round" stroke-width=".176"/>
  <circle cx="287.969" cy="287.969" r="192.438" fill="#fff" stroke="red" stroke-linecap="round" stroke-linejoin="round" stroke-width=".176"/>
  <path d="m245.642 198.791-19.332 9.198c-6.47 3.84-6.817 8.48-3.742 13.565l5.24 10.712-1.789 4.566h-31.982v24.634h22.335l-6.831 17.441a53 53 0 0 0-14.881-2.164 53 53 0 0 0-31.314 10.31l3.22 4.596a47.4 47.4 0 0 0-19.3 38.104 47.395 47.395 0 0 0 47.394 47.394 47.4 47.4 0 0 0 41.167-24.028l4.947 2.647a53 53 0 0 0 6.895-26.013 53.01 53.01 0 0 0-28.456-46.952l3.754-9.589 48.819 34.391c.495 14.843 2.075 29.503 18.912 29.945 13.016.938 26.036 1.429 39.06 1.698a47.395 47.395 0 0 0 46.429 37.9 47.395 47.395 0 0 0 47.396-47.393 47 47 0 0 0-.47-6.269l5.56-.742a53.01 53.01 0 0 0-33.91-42.568h15.048v-9.978H334.89l2.884-8.902h17.509c11.226-1.937 9.069-15.308.817-15.661a8 8 0 0 0-.817.006h-48.816v9.922l17.287 7.056.675-.067-7.538 21.054c-5.677 12.196-17.567 14.663-23.78 13.604-8.186-1.396-17.036-9.784-19.56-20.465l-40.751-28.635 4.564-11.655c1.351-3.406.828-4.271-.353-6.313l-6.335-13.264 19.643-9.042zm-50.982 93.544a37.4 37.4 0 0 1 9.157 1.185l-10.973 28.022a8.42 8.42 0 0 0-6.602 8.21 8.419 8.419 0 0 0 16.837 0 8.4 8.4 0 0 0-.833-3.632l11.227-28.668a37.42 37.42 0 0 1 18.606 32.3 37.417 37.417 0 0 1-37.42 37.418 37.417 37.417 0 0 1-37.417-37.417 37.417 37.417 0 0 1 37.418-37.418m181.527 0a37.417 37.417 0 0 1 37.419 37.418 37.417 37.417 0 0 1-37.419 37.417 37.42 37.42 0 0 1-36.132-27.753c6.334.077 12.67.11 19.007.126a19.18 19.18 0 0 0 15.843 8.402 19.18 19.18 0 0 0 19.182-19.182 19.18 19.18 0 0 0-19.182-19.183h-30.186a37.42 37.42 0 0 1 31.468-17.245m-41.348 14.368a47 47 0 0 0-.357.62l-.008-.344z" style="opacity:1;fill:#000;fill-opacity:1;fill-rule:evenodd;stroke:none;stroke-width:.40000001;stroke-linecap:round;stroke-linejoin:round;stroke-miterlimit:4;stroke-dasharray:none;stroke-dashoffset:0;stroke-opacity:1"/>
</svg>
