<svg xmlns="http://www.w3.org/2000/svg" xml:space="preserve" viewBox="-.943 -.943 577.138 577.138" role="img" aria-labelledby="title">
  <title id="title">Verkehrszeichen B22b - Chemin obligatoire pour piétons</title>
  <circle cx="287.057" cy="287.057" r="286.969" style="fill:#fff;stroke:#000;stroke-width:3;stroke-linecap:round;stroke-linejoin:round;stroke-miterlimit:4;stroke-opacity:1;stroke-dasharray:none" transform="translate(.563 .563)"/>
  <circle cx="287.057" cy="287.057" r="261.666" style="fill:#0056a4;fill-opacity:1;stroke:none" transform="translate(.563 .563)"/>
  <path d="M192.171 139.81c-18.043-7.546-17.547-22.285-17.716-28.878-.144-6.724 4.595-28.788 30.837-29.519 23.291-.653 30.51 21.816 30.184 28.853-.261 5.248.967 21.672-17.716 29.544v15.745s26.881-1.331 48.554 35.42l48.88 86.258s1.618 4.282.313 9.518l11.802 20.34h41.974v-8.525c-7.18-3.943-10.419-13.12-10.314-18.382.157-7.69 5.718-19.675 19.518-19.675 13.774 0 19.662 11.802 19.662 19.675 0 11.985-7.194 15.758-12.442 18.382v8.525s14.426 1.319 24.27 13.108l30.837 38.057c6.07 7.037-4.1 16.058-9.857 9.844L406.7 339.887c-3.29-4.583-9.191 0-7.22 4.595l19.662 56.413h-18.356v46.256c0 11.15-16.58 11.803-16.58 0v-46.256h-10.967V460.6c0 12.624-17.717 12.624-17.717 0v-59.704h-18.369l28.213-80.696h-34.78c-5.901 0-11.802-1.958-14.426-5.888l-12.455-21.66s-4.609.34-8.212-5.9l-44.272-76.767c-3.942-6.54-11.175-5.222-11.175 1.985v268.304c0 18.382-28.187 17.73-28.187 0V317.588c0-9.178-14.44-9.178-14.44 0v133.18c0 17.69-28.213 17.377-28.213 0v-238.8c0-8.211-11.136-8.211-11.136 0v85.606c0 17.716-23.618 17.716-23.618 0v-82.342s3.917-50.838 57.719-59.676z" style="fill:#fff;fill-opacity:1;fill-rule:nonzero;stroke:none;stroke-width:13.0555"/>
</svg>
