<svg xmlns="http://www.w3.org/2000/svg" xml:space="preserve" viewBox="-.031 -.031 576 576" role="img" aria-labelledby="title">
  <title id="title">Verkehrszeichen B9a - Accès interdit aux piétons</title>
  <g style="display:inline">
    <circle cx="287.969" cy="287.969" r="286.969" style="fill:#fff;stroke:#000;stroke-width:2;stroke-linecap:round;stroke-linejoin:round"/>
    <circle cx="287.969" cy="287.969" r="274.775" style="fill:red;stroke:red;stroke-width:.17640001;stroke-linecap:round;stroke-linejoin:round"/>
    <circle cx="287.969" cy="287.969" r="192.438" style="fill:#fff;stroke:red;stroke-width:.17640001;stroke-linecap:round;stroke-linejoin:round"/>
  </g>
  <g style="opacity:1;display:inline">
    <path d="M277.219 125.875c-14.77 0-26.75 11.981-26.75 26.75 0 12 7.927 22.146 18.813 25.531l1.812 12.594-4.656 2.031c-3.731.547-7.103 3.113-8.625 6.563l-21.906 47.75-43.47 22.844a11.34 11.34 0 0 0-5.491 6.585c-.874 2.8-.59 5.942.773 8.54a11.34 11.34 0 0 0 6.585 5.492c2.8.873 5.942.589 8.54-.774l36.938-19.437c6.106-3.925 11.093-5.973 13.028-8.066 1.934-2.092 3.125-5.407 6.315-12.122l3.89-8.468s3.027-6.014 4.253-5.938c1.308.082 3.107 20.531 3.107 20.531l3.469 23.063-.156.375-58.094 126.438a11.16 11.16 0 0 0-5.312-1.344c-6.177 0-11.188 5.011-11.188 11.187 0 5.597 6.673 10.469 9.5 11.031l26.656 12.25 6.625-14.406L293.02 313.46c.843-1.835 6.144-1.904 7.177.16l51.96 103.911c-4.455 1.474-7.688 5.677-7.688 10.625 0 6.177 5.011 11.188 11.187 11.188 2.387 0 4.506-.504 5.394-.85l1.325-.588 28.344-14.187-7.094-14.187-66.156-131.97-3.938-26.202-1.968-13.102s-2.3-10.785-1.926-11.121 11.598 9.66 11.598 9.66l11.64 11.64 17.781 56.5a11.34 11.34 0 0 0 5.506 6.575 11.34 11.34 0 0 0 8.542.756 11.34 11.34 0 0 0 6.574-5.507 11.34 11.34 0 0 0 .753-8.542l-18.156-57.688c-.378-1.27-1.042-2.5-1.72-3.651-.68-1.152-1.39-2.237-2.342-3.192l-39.219-39.219a11.2 11.2 0 0 0-1.875-1.531l-.219-.281-4.531-2.907-3.25-1.625-2.25-.312-6.625-.25-1.656-11.531c8.216-4.564 13.781-13.342 13.781-23.407 0-14.769-11.98-26.75-26.75-26.75" style="font-size:medium;font-style:normal;font-variant:normal;font-weight:400;font-stretch:normal;text-indent:0;text-align:start;text-decoration:none;line-height:normal;letter-spacing:normal;word-spacing:normal;text-transform:none;direction:ltr;block-progression:tb;writing-mode:lr-tb;text-anchor:start;baseline-shift:baseline;color:#000;fill:#000;fill-opacity:1;stroke:none;stroke-width:22.39999962;marker:none;visibility:visible;display:inline;overflow:visible;font-family:Sans;-inkscape-font-specification:Sans"/>
  </g>
</svg>
