<svg xmlns="http://www.w3.org/2000/svg" xml:space="preserve" viewBox="-.031 -.031 576 576" role="img" aria-labelledby="title">
  <title id="title">Verkehrszeichen B8 - Accès interdit aux véhicules affectés au transport de marchandises En Europe, hgv=no ne s'applique qu'aux véhicules de type N2 (de 3.5 t à 12 t) ou N3 (> 12 t) ; goods=no implique également les véhicu</title>
  <circle cx="287.969" cy="287.969" r="286.969" fill="#fff" stroke="#000" stroke-linecap="round" stroke-linejoin="round" stroke-width="2"/>
  <circle cx="287.969" cy="287.969" r="274.775" fill="red" stroke="red" stroke-linecap="round" stroke-linejoin="round" stroke-width=".176"/>
  <circle cx="287.969" cy="287.969" r="192.438" fill="#fff" stroke="red" stroke-linecap="round" stroke-linejoin="round" stroke-width=".176"/>
  <circle cx="199.684" cy="348.059" r="31.493" style="fill:#000;stroke-width:7.5891;stroke-linecap:round;stroke-linejoin:round;paint-order:stroke fill markers"/>
  <circle cx="377.223" cy="348.059" r="31.493" style="fill:#000;stroke-width:7.5891;stroke-linecap:round;stroke-linejoin:round;paint-order:stroke fill markers"/>
  <path d="M211.256 196.385a6.47 6.47 0 0 0-6.485 6.484v33.325h-38.023c-4.728 0-8.094 2.416-8.705 8.708l-3.9 41.299h-1.839a9 9 0 0 0-9.022 9.022v37.646h-5.12v14.073h24.56a37.04 37.04 0 0 1 36.961-35.924 37.04 37.04 0 0 1 37.015 35.924h103.563a37.04 37.04 0 0 1 36.961-35.924 37.04 37.04 0 0 1 37.015 35.924h23.54V202.87a6.47 6.47 0 0 0-6.486-6.484zm-40.473 48.994h33.988v40.822h-41.399l3.651-37.67c.164-1.69 1.091-3.152 3.76-3.152" style="fill:#000;stroke-width:7.50661;stroke-linecap:round;stroke-linejoin:round;paint-order:stroke fill markers"/>
</svg>
