<svg xmlns="http://www.w3.org/2000/svg" xml:space="preserve" viewBox="-.178 -.451 598.294 598.294" role="img" aria-labelledby="title">
  <title id="title">Verkehrszeichen B26 - Chaînes à neige obligatoires sur au moins deux roues motrices</title>
  <path d="M596.521 298.688c0-164.332-133.217-297.549-297.549-297.549S1.423 134.356 1.423 298.688s133.217 297.549 297.55 297.549c164.331 0 297.548-133.217 297.548-297.549" style="fill:#fff;fill-opacity:1;stroke:#000;stroke-width:3;stroke-linecap:round;stroke-linejoin:round;stroke-miterlimit:4;stroke-opacity:1;stroke-dasharray:none"/>
  <path d="M570.285 298.688c0-149.842-121.472-271.313-271.313-271.313-149.842 0-271.313 121.471-271.313 271.313S149.13 570.001 298.972 570.001 570.285 448.53 570.285 298.688" style="fill:#039;fill-opacity:1;stroke:none"/>
  <path d="M326.245 95.132c80.081 0 145 91.632 145 204.667s-64.919 204.667-145 204.667l-57.327-2.081c-75.735-6.747-135.673-95.094-135.673-203.086 0-109.558 61.688-198.894 138.975-203.327z" style="fill:#fff;stroke:none"/>
  <path d="M353.811 170.186q.7.188 1.397.399" style="fill:none;stroke:none"/>
  <path d="M356.02 170.567c33.301 10.289 59.673 64.334 61.206 130.063 1.72 73.71-28.448 134.2-67.382 135.108s-71.892-58.108-73.61-131.818c-1.72-73.71 28.447-134.2 67.382-135.109a38.6 38.6 0 0 1 11.025 1.355" style="fill:none;stroke:none"/>
  <path d="M365.722 432.654c28.987-19.578 48.86-70.432 47.48-129.595-1.68-71.899-34.14-130.079-73.69-134.373l7.233.61c39.548 4.166 71.974 60.886 73.611 131.007C421.702 358 401.8 407.607 372.803 426.717z" style="fill:#039;fill-opacity:1;stroke:none"/>
  <path d="M337.554 497.798c-72.12-1.359-130.309-89.482-130.309-197.993 0-109.356 59.1-198.007 132-198.007" style="fill:none;stroke:#039;stroke-width:3;stroke-linecap:round;stroke-linejoin:round;stroke-opacity:1;stroke-dasharray:12"/>
  <path d="M326.232 177.226c-30.735 22.368-51.985 70.335-51.985 125.908 0 51.949 18.571 97.252 46.1 121.211 25.01-28.771 41.233-75.035 41.233-127.213 0-47.963-13.71-90.93-35.348-119.906" style="fill:none;stroke:none"/>
  <path d="M326.232 177.226c-30.735 22.368-51.985 70.335-51.985 125.908 0 51.949 18.571 97.252 46.1 121.211 25.01-28.771 41.233-75.035 41.233-127.213 0-47.963-13.71-90.93-35.348-119.906" style="opacity:.27999998;fill:#fff;stroke:none"/>
  <path d="M326.232 172.559c-31.918 22.79-53.985 71.663-53.985 128.286 0 52.931 19.285 99.089 47.873 123.5" style="fill:#039;fill-opacity:1;stroke:none"/>
  <path d="M319.013 425.011c28.647-29.314 47.232-76.452 47.232-129.615 0-48.869-15.704-92.646-40.49-122.17" style="fill:#039;fill-opacity:1;stroke:none"/>
  <path d="M198.245 141.798h7.111l.89-1.333-2-5.333-20-2-12.668 6.667-4 16.667 21.333 1.333 9.333-5.333.778-1.167h-.778zm-6.437 6.691-4.032 2.304-9.215-.576 1.728-7.2 5.472-2.88 8.64.864.864 2.304z" style="opacity:.98999999;fill:#039;fill-opacity:1;stroke:none"/>
  <path d="m245.245 136.132-20-2-12.667 6.667-.24 1h-14.093v9.5h11.813l-1.48 6.167 21.333 1.333 9.333-5.333 8-12zm-12.437 13.357-4.032 2.304-9.215-.576 1.728-7.2 5.472-2.88 8.64.864.864 2.304z" style="fill:#039;fill-opacity:1;stroke:none"/>
  <path d="m163.083 227.939 6.655-.351.752-1.557-2.19-5.953-18.84-1.283-11.456 8.19-2.747 19.111 20.046.46 8.417-6.513.658-1.362-.728.038zm-5.624 7.91-3.636 2.813-8.659-.199 1.186-8.255 4.95-3.538 8.137.554.946 2.572z" style="opacity:.98999999;fill:#039;fill-opacity:1;stroke:none"/>
  <path d="m206.733 219.189-18.839-1.283-11.456 8.19-.165 1.146-6.536.344-6.655.351.568 10.781.728-.038 10.33-.545-1.017 7.071 20.046.46 8.416-6.513 6.77-14.012zm-10.84 15.772-3.637 2.814-8.659-.199 1.186-8.256 4.95-3.538 8.138.554.946 2.572z" style="fill:#039;fill-opacity:1;stroke:none"/>
  <path d="M197.535 446.85h.778l-.778-1.166-9.333-5.334-21.333 1.334 4 16.666 12.667 6.666 20-2 2-5.332-.889-1.334h-7.11v-9.5zm-2.98 7.993-.865 2.304-8.64.864-5.472-2.88-1.728-7.2 9.215-.576 4.032 2.304zM162.288 355.54l.727.054-.63-1.375-8.279-6.686-20.05.044 2.348 19.163 11.284 8.426 18.861-.892 2.314-5.905-.72-1.573-6.646-.488zm-3.452 8.854-.999 2.553-8.148.384-4.875-3.639-1.015-8.278 8.662-.02 3.577 2.888z" style="opacity:.98999999;fill:#039;fill-opacity:1;stroke:none"/>
  <path d="m207.27 370.054-6.478-14.149-8.279-6.687-20.052.045.87 7.09-10.315-.759-.727-.054-.792 10.768 6.646.488 6.527.48.141 1.15 11.283 8.425 18.861-.891zm-10.028-3.974-.999 2.552-8.148.385-4.875-3.64-1.015-8.278 8.662-.021 3.577 2.889z" style="fill:#039;fill-opacity:1;stroke:none"/>
  <path d="m335.822 137.659.667 8.667-40.667 25.333-6-6zM251.822 238.326l8 2 25.334-52-9.117-4.94zM249.943 255.356l-2.121 85.636 6.667-1.333 1.333-79.333M272.372 417.748l8.117-2.756-22-55.333-6.667 2.667zM287.822 433.659l44.667 29.333 2-9.333-40.667-25.333M433.822 338.992l7.334 4.667v-82.666l-5.764-.963zM432.489 244.993l8-2-28.667-65.334-5.711 1.36zM394.489 170.325l-41.333-25.332v-8l43.333 28.666" style="fill:#039;fill-opacity:1;stroke:none" transform="translate(.423 .139)"/>
  <path d="m244.245 454.966-8-12-9.333-5.334-21.333 1.334 1.48 6.166h-11.814v9.5h14.094l.24 1 12.667 6.666 20-2zm-10.98-2.841-.865 2.304-8.64.864-5.472-2.88-1.728-7.2 9.215-.576 4.032 2.304zM239.245 492.298c13.716 16.655 35.1 13.919 55.325 14.965 9.772.506 53.14 5.438 57.675-5.465-16.979 3.232-36.095 2.224-53.232.905-19.937-1.533-42.4.016-59.768-10.405M233.58 348.464c-6.408-5.17-16.442 1.376-22 4-4.696 5.932-5.58 17.966 2 23 7.125 4.734 17.153-2.896 22.728-6.123 4.741-2.745.177-18.531-2.729-20.877m-2.53 17.843c-3.345 1.937-9.36 6.514-13.638 3.674-4.547-3.021-4.017-10.241-1.2-13.801 3.335-1.574 9.356-5.502 13.2-2.399 1.745 1.407 4.483 10.879 1.637 12.526M262.535 340.475c-5.188-5.101-14.509-.105-19.59 1.773-4.596 4.882-6.353 15.481-.128 20.558 5.854 4.771 15.258-1.186 20.402-3.598 4.377-2.052 1.67-16.419-.684-18.733m-3.672 15.62c-3.086 1.446-8.729 5.021-12.24 2.157-3.736-3.045-2.682-9.406.076-12.336 3.048-1.126 8.642-4.124 11.754-1.063 1.412 1.389 3.036 10.01.41 11.242" style="fill:#039;fill-opacity:1;stroke:none"/>
  <path d="m240.822 351.326 2.334 7.666-7.667 2.334-1.667-6.334z" style="fill:#039;fill-opacity:1;stroke:none" transform="translate(.423 .139)"/>
  <path d="M265.17 426.145c-7.45-3.505-15.648 5.232-20.427 9.099-3.156 6.875-1.163 18.776 7.393 21.871 8.045 2.911 15.98-6.877 20.631-11.334 3.955-3.79-4.219-18.046-7.598-19.636m1.77 17.933c-2.79 2.674-7.55 8.546-12.379 6.801-5.133-1.857-6.329-8.998-4.436-13.124 2.867-2.319 7.787-7.562 12.256-5.458 2.028.954 6.933 9.507 4.558 11.781M291.408 411.522c-6.249-3.726-14.12 3.336-18.613 6.365-3.308 5.831-2.502 16.545 4.748 20.002 6.817 3.249 14.542-4.767 18.97-8.329 3.764-3.031-2.27-16.347-5.105-18.038m.134 16.046c-2.655 2.136-7.29 6.945-11.382 4.996-4.349-2.073-4.833-8.503-2.849-12.003 2.695-1.816 7.42-6.055 11.168-3.817 1.701 1.013 5.322 9.004 3.063 10.824" style="fill:#039;fill-opacity:1;stroke:none"/>
  <path d="m272.905 427.104 4.084 6.896-6.896 4.084-3.12-5.759z" style="fill:#039;fill-opacity:1;stroke:none" transform="translate(.423 .139)"/>
  <path d="M333.427 477.114c-7.003 4.329-4.155 15.966-3.524 22.08 4.038 6.397 15.098 11.224 22.361 5.744 6.83-5.152 2.96-17.144 1.764-23.474-1.017-5.383-17.424-6.314-20.6-4.35m15.994 8.303c.718 3.798 3.04 10.992-1.058 14.084-4.358 3.289-10.994.393-13.418-3.445-.379-3.669-2.087-10.652 2.116-13.249 1.906-1.179 11.75-.62 12.36 2.61M335.496 447.147c-6.533 3.202-4.913 13.652-4.826 19.069 3.081 5.955 12.498 11.128 19.352 6.939 6.443-3.939 3.943-14.787 3.374-20.441-.485-4.808-14.937-7.019-17.9-5.567m13.518 8.645c.341 3.391 1.841 9.898-2.026 12.264-4.11 2.513-9.763-.592-11.61-4.164-.053-3.25-1.025-9.521 2.895-11.441 1.777-.874 10.45.455 10.741 3.341" style="fill:#039;fill-opacity:1;stroke:none"/>
  <path d="m338.379 470.738 8.006.341-.342 8.007-6.528-.528z" style="fill:#039;fill-opacity:1;stroke:none" transform="translate(.423 .139)"/>
  <path d="M407.655 430.97c1.263-3.398-2.897-6.752-4.788-8.716-1.609-1.671-7.72 1.779-8.408 3.206-1.517 3.146 2.194 6.61 3.834 8.63 2.93 1.333 8.018.492 9.362-3.12M417.768 440.69c-1.98-1.732-8.45 2.781-9.066 4.465-1.359 3.711 3.167 7.26 5.22 9.381 3.421 1.216 9.025-.243 10.142-4.466 1.048-3.969-3.969-7.347-6.296-9.38" style="fill:none;stroke:none"/>
  <path d="M418.711 435.924c-1.405-1.228-4.167-.566-6.955.813l-1.146-1.595a8.2 8.2 0 0 0 1.474-2.464c2.105-5.663-4.828-11.25-7.98-14.526-2.683-2.785-12.865 2.967-14.012 5.347-2.527 5.243 3.656 11.015 6.39 14.38 2.5 1.138 5.94 1.318 9.005.423L407 439.74c-1.75 1.363-3.07 2.736-3.397 3.63-2.265 6.185 5.278 12.098 8.697 15.633 5.702 2.028 15.045-.404 16.905-7.44 1.748-6.618-6.613-12.247-10.494-15.639m-20.418-1.834c-1.64-2.02-5.35-5.484-3.834-8.63.688-1.427 6.8-4.877 8.408-3.206 1.891 1.964 6.051 5.317 4.788 8.716-1.344 3.612-6.433 4.453-9.362 3.12m25.77 15.98c-1.116 4.223-6.72 5.682-10.143 4.466-2.052-2.121-6.578-5.67-5.219-9.381.616-1.684 7.085-6.197 9.066-4.465 2.328 2.033 7.345 5.411 6.296 9.38M440.158 360.792c.02 6.586 9.146 9.517 13.578 11.647 6.051-.075 13.971-5.597 13.276-12.841-.653-6.813-10.448-9.194-15.265-11.029-4.095-1.56-11.597 9.236-11.589 12.223m12.358-7.425c2.888 1.1 8.766 2.528 9.157 6.616.417 4.347-4.334 7.658-7.966 7.704-2.659-1.277-8.135-3.036-8.146-6.988-.006-1.793 4.496-8.27 6.955-7.332M420.596 346.839c-.553 5.794 7.25 9.063 10.98 11.271 5.35.393 12.817-3.863 12.831-10.287.012-6.043-8.429-8.878-12.522-10.858-3.483-1.681-11.039 7.244-11.289 9.874m11.552-5.596c2.454 1.186 7.52 2.889 7.514 6.514-.01 3.855-4.49 6.408-7.7 6.174-2.238-1.326-6.92-3.289-6.589-6.766.15-1.577 4.685-6.932 6.775-5.922" style="fill:#039;fill-opacity:1;stroke:none"/>
  <path d="m437.732 354.38 3.585-5.316 5.316 3.585-3.094 4.23z" style="fill:#039;fill-opacity:1;stroke:none" transform="translate(.423 .139)"/>
  <path d="M232.245 106.812c13.716-16.655 35.1-13.919 55.324-14.965 9.772-.506 53.14-5.438 57.676 5.465-16.979-3.232-36.095-2.224-53.232-.905-19.937 1.533-42.4-.016-59.768 10.405M239.974 232.071c-5.575-3.228-15.602-10.857-22.729-6.123-7.579 5.034-6.695 17.068-2 23 5.56 2.624 15.593 9.17 22 4 2.907-2.345 7.471-18.132 2.73-20.877m-6.894 15.561c-3.844 3.102-9.865-.825-13.2-2.399-2.817-3.56-3.347-10.78 1.2-13.801 4.276-2.84 10.293 1.737 13.637 3.674 2.845 1.647.107 11.118-1.637 12.526M266.886 242.204c-5.145-2.412-14.548-8.369-20.402-3.598-6.225 5.076-4.468 15.676.127 20.557 5.082 1.879 14.403 6.875 19.591 1.773 2.353-2.314 5.061-16.679.684-18.732m-4.766 14.354c-3.112 3.063-8.706.064-11.754-1.063-2.757-2.93-3.812-9.291-.077-12.335 3.513-2.863 9.155.711 12.241 2.157 2.626 1.233 1.002 9.854-.41 11.241" style="fill:#039;fill-opacity:1;stroke:none"/>
  <path d="m244.489 249.808 2.334-7.666-7.667-2.334-1.667 6.334z" style="fill:#039;fill-opacity:1;stroke:none" transform="translate(.423 .139)"/>
  <path d="M276.434 155.632c-4.652-4.457-12.586-14.245-20.63-11.334-8.556 3.095-10.55 14.996-7.394 21.871 4.78 3.866 12.977 12.604 20.426 9.099 3.38-1.59 11.553-15.846 7.598-19.636m-10.386 13.483c-4.469 2.104-9.389-3.139-12.256-5.458-1.893-4.126-.697-11.267 4.436-13.124 4.828-1.745 9.588 4.127 12.378 6.801 2.375 2.274-2.53 10.827-4.558 11.781M300.178 171.852c-4.426-3.563-12.15-11.578-18.969-8.329-7.25 3.457-8.055 14.171-4.747 20.002 4.492 3.029 12.364 10.091 18.612 6.365 2.834-1.691 8.87-15.006 5.104-18.038m-8.03 12.817c-3.75 2.237-8.474-2.001-11.169-3.817-1.984-3.5-1.5-9.93 2.848-12.003 4.092-1.949 8.727 2.86 11.383 4.996 2.258 1.819-1.362 9.81-3.063 10.824" style="fill:#039;fill-opacity:1;stroke:none"/>
  <path d="m276.572 174.03 4.083-6.896-6.895-4.084-3.12 5.759z" style="fill:#039;fill-opacity:1;stroke:none" transform="translate(.423 .139)"/>
  <path d="M357.694 119.948c1.195-6.33 5.066-18.321-1.764-23.474-7.264-5.479-18.323-.653-22.36 5.744-.632 6.114-3.48 17.751 3.523 22.08 3.178 1.965 19.585 1.033 20.601-4.35m-16.965-1.343c-4.203-2.597-2.495-9.58-2.116-13.249 2.424-3.838 9.06-6.734 13.418-3.445 4.097 3.092 1.775 10.286 1.058 14.084-.612 3.23-10.455 3.789-12.36 2.61M357.063 148.698c.57-5.654 3.07-16.502-3.374-20.441-6.854-4.188-16.27.984-19.352 6.939-.087 5.417-1.707 15.867 4.826 19.069 2.963 1.453 17.415-.758 17.9-5.567m-15.123.264c-3.92-1.92-2.948-8.191-2.896-11.441 1.85-3.572 7.5-6.677 11.611-4.164 3.867 2.365 2.367 8.873 2.026 12.264-.29 2.886-8.964 4.214-10.74 3.341" style="fill:#039;fill-opacity:1;stroke:none"/>
  <path d="m342.046 130.396 8.006-.341-.342-8.007-6.528.529z" style="fill:#039;fill-opacity:1;stroke:none" transform="translate(.423 .139)"/>
  <path d="M422.378 165.488c3.881-3.392 12.242-9.021 10.493-15.638-1.86-7.036-11.203-9.469-16.905-7.44-3.419 3.535-10.962 9.448-8.697 15.633 1.028 2.805 11.808 10.329 15.11 7.445m-10.01-9.23c-1.359-3.711 3.167-7.26 5.22-9.381 3.421-1.216 9.025.243 10.142 4.466 1.05 3.969-3.968 7.347-6.295 9.38-1.982 1.732-8.45-2.782-9.067-4.465M407.771 183.261c3.152-3.276 10.086-8.863 7.98-14.526-2.24-6.021-10.722-7.423-15.604-5.2-2.732 3.365-8.916 9.137-6.389 14.38 1.147 2.379 11.33 8.131 14.013 5.346m-9.645-7.309c-1.517-3.146 2.194-6.61 3.834-8.63 2.93-1.333 8.018-.492 9.362 3.12 1.263 3.398-2.897 6.752-4.788 8.716-1.609 1.671-7.72-1.779-8.408-3.206" style="fill:#039;fill-opacity:1;stroke:none"/>
  <path d="m407.144 164.483 5.205 3.742 3.743-5.206-4.369-2.894z" style="fill:#039;fill-opacity:1;stroke:none" transform="translate(.423 .139)"/>
  <path d="M455.415 252.843c4.816-1.836 14.611-4.216 15.265-11.03.694-7.244-7.226-12.766-13.276-12.841-4.433 2.131-13.559 5.062-13.578 11.647-.009 2.988 7.493 13.785 11.59 12.224m-6.187-12.129c.012-3.952 5.487-5.711 8.146-6.988 3.632.046 8.383 3.357 7.966 7.704-.392 4.088-6.27 5.517-9.157 6.616-2.459.937-6.96-5.539-6.955-7.332M435.551 264.447c4.094-1.98 12.534-4.814 12.522-10.857-.014-6.424-7.48-10.68-12.832-10.288-3.729 2.209-11.53 5.478-10.979 11.272.251 2.628 7.807 11.554 11.29 9.873m-6.512-10.2c-.33-3.477 4.351-5.439 6.59-6.765 3.208-.234 7.69 2.318 7.7 6.173.004 3.625-5.06 5.328-7.515 6.514-2.089 1.01-6.624-4.345-6.775-5.922" style="fill:#039;fill-opacity:1;stroke:none"/>
  <path d="m441.399 246.754 3.585 5.315 5.316-3.584-3.094-4.23zM399.156 436.992l-6.667-4.666-40.667 24.666-.666 6.667zM407.489 425.326l32.666-70.666-8.671 1.727-27.47 63.013zM252.822 150.659l-3.5 3.5-10.5-4 3-5.5zM215.322 232.159l-2 5-11-1 1.5-6zM212.322 369.159h-10.5l-.5-5.5 10-1.5zM244.822 443.159l3.5 7.5-8.5 2-4.5-5.5z" style="fill:#039;fill-opacity:1;stroke:none" transform="translate(.423 .139)"/>
</svg>
