<svg xmlns="http://www.w3.org/2000/svg" xml:space="preserve" viewBox="0 0 576 576" role="img" aria-labelledby="title">
  <title id="title">Verkehrszeichen B10a - Accès interdit aux véhicules, véhicules articulés, trains doubles ou ensemble de véhicules dont la longueur est supérieure au nombre indiqué</title>
  <circle cx="287.969" cy="287.969" r="286.969" style="fill:#fff;stroke:#000;stroke-width:2;stroke-linecap:round;stroke-linejoin:round"/>
  <circle cx="287.969" cy="287.969" r="273.982" style="fill:red;stroke:red;stroke-width:.1764;stroke-linecap:round;stroke-linejoin:round"/>
  <circle cx="287.969" cy="287.969" r="192.438" style="fill:#fff;stroke:red;stroke-width:.1764;stroke-linecap:round;stroke-linejoin:round"/>
  <path d="m338.226 288.069-93.32-1.154a27.303 27.303 0 0 0-42.038-22.324 27.3 27.3 0 0 0-12.521 24.563l-29.325-1.071 1.667-7.3h5l3.333-37.715h4.167l4.167-30.416 4.167-3.65 30.834-1.216V181.02H411.03v105.845h-18.701c-.426-14.87-12.774-26.607-27.647-26.277-14.875.332-26.692 12.607-26.456 27.481" style="stroke:#000;stroke-width:.1764;stroke-linecap:round;stroke-linejoin:round"/>
  <circle cx="365.238" cy="287.183" r="24.078" style="stroke:#000;stroke-width:.1764;stroke-linecap:round;stroke-linejoin:round"/>
  <circle cx="217.774" cy="287.183" r="24.1" style="stroke:#000;stroke-width:.1764;stroke-linecap:round;stroke-linejoin:round"/>
  <path d="M185.188 213.87h28.333l-1.666 30.416-31.667-1.217z" style="fill:#fff;stroke:#000;stroke-width:.1764;stroke-linecap:round;stroke-linejoin:round"/>
  <path d="m194.96 410.58-37.441-30.166 37.441-30.167zm208.327-4.292v-57.317l42.24 28.658z"/>
  <path d="M218.5 356.5h156v55h-156z" style="fill:none"/>
  <path d="M252.498 356.561v44.472h-8.446l.03-31.394h-.121q-.091.394-2.18 1.726l-2.634 1.393-2.361.908q-1.423.303-1.544.454v-9.385l1.877-.878q4.692-2.997 6.751-7.296zM264.032 383.534a62 62 0 0 1-.091-3.33q0-.817.03-1.635.091-3.209.515-6.236v-.212l.121-.272.212-2.089.151-.303.303-1.695.121-.182q.454-2.18 1.968-4.904l.878-1.332 1.695-1.726q2.694-2.18 6.993-3.118a16 16 0 0 1 2.815-.242h.242q2.27.061 4.753.757 1.029.122 3.3 1.362 2.331 1.453 4.239 3.966l.969 1.483.787 1.665.332 1.211.092.091v.303q.301.636.363.999l.121.151.514 2.694.092.061-.061.394.121.242.303 3.239.121.303-.092.03.213 1.907-.061.061q.12.303 0 .363l.09.303-.061.091.152 2.059-.061.061.09.878-.029.061v1.211a41 41 0 0 1-.182 2.694l-.152 1.12.061.061-.15.303q-.09 1.12-.516 2.664l-.182.575-.029.333-.787 2.24-.152.121q0 .303-.787 1.847l-1.453 2.089q-2.39 2.755-5.297 4.026a15.7 15.7 0 0 1-3.845.999l-2.331.151-.545-.03q-6.902-.181-11.141-4.48-2.09-2.33-3.148-5.419a23.4 23.4 0 0 1-1.483-6.63zm15.076 9.143q1.877.122 2.331-.061l.03.061 1.665-.363q1.998-.665 3.058-2.876.817-2.21 1.211-5.268l.151-6.842-.091-3.209-.303-2.392-.121-.121-.394-1.695-.121-.061q-.454-1.817-1.726-3.36-.97-.786-1.544-1.029l-1.756-.424-1.847-.091q-1.242-.03-2.755.515-1.393.666-2.331 2.392-.666 1.605-1.211 4.026l.061.182q-.182.153-.212.999-.424 3.542-.091 10.384l.484 3.3.636 2.331q.696 1.816 1.907 2.634 1.093.695 2.969.968M320.673 369.578h7.478v2.059q2.118-1.936 6.236-2.331h.333q4.178 0 5.661 1.423 1.816.908 2.967 3.239 2.816-4.661 7.659-4.662h2.634q4.39.545 6.388 3.118 2.512 2.815 3.209 7.72v20.858H355.7v-19.708q-.908-4.51-4.753-4.511-4.572-.12-5.207 5.086v19.133h-7.538V381.99q-.516-5.388-5.025-5.268-4.178.121-4.692 5.207l-.091 19.072h-7.78z"/>
</svg>
