<svg xmlns="http://www.w3.org/2000/svg" xml:space="preserve" viewBox="1.56 1.561 581 581" role="img" aria-labelledby="title">
  <title id="title">Verkehrszeichen B5a - Arrêt au poste de gendarmerie</title>
  <circle cx="291.56" cy="291.561" r="285" fill="#fff" stroke="#000" stroke-linecap="round" stroke-linejoin="round" stroke-width=".993"/>
  <circle cx="291.56" cy="291.561" r="272.101" fill="red" stroke="red" stroke-linecap="round" stroke-linejoin="round" stroke-width=".175" style="fill:#ea190e;fill-opacity:1;stroke:#ea190e;stroke-opacity:1;stroke-width:.175;stroke-dasharray:none"/>
  <circle cx="291.56" cy="291.561" r="191.118" fill="#fff" style="stroke:none"/>
  <g style="fill:#000">
    <path d="m-448.962 630.035-.114-60.438h18.86v7.677h-11.261v18.933h11.26v7.562h-11.26v18.969h11.26v7.297zM-472.314 477.832h302.474c13.833 0 26.38 9.599 26.38 26.609 0 14.776-10.922 26.568-26.38 26.568h-302.474c-16.256 0-25.818-15.157-25.63-26.568.078-11.417 8.541-26.61 25.63-26.61M-270.076 441.02v-48.418h-13.156v-11.526h37.833v11.526h-13.266v48.417zM-329.982 441.02v-59.944h11.526v48.532h22.411v11.411zM-455.008 441.02v-59.944h11.302v23.964h17.724v-23.964h11.302v59.943h-11.302v-24.526h-17.724v24.526zM-395.935 441.02l15.156-59.98h15.078l15.27 59.98h-11.79l-2.61-10.433h-16.89l-2.423 10.432zm17.197-21.886h11.11l-5.667-23.016zM-224.045 441.02v-60.058h36.552v11.416h-25.25v12.662h18.75v11.339h-18.75v13.114h26.156v11.526zM-224.722 630.035V569.56l10.922.078c9.901 0 9.713-.078 9.828 14.51l.073 12.209c-.073 7.557-.568 7.937-3.625 7.937l6.802 25.74h-6.917l-6.349-24.078c-.755-1.928-.755-1.928-4.005-1.928v26.006zm6.73-33.677h4.192c3.667 0 3.286 0 3.286-3.855V580.41c0-3.177 0-3.177-3.286-3.177h-4.193zM-325.675 630.035V569.56l10.963.078c9.902 0 9.672-.078 9.787 14.51l.114 12.209c-.114 7.557-.604 7.937-3.666 7.937l6.802 25.74h-6.917l-6.312-24.078c-.792-1.928-.792-1.928-4.042-1.928v26.006zm6.73-33.677h4.233c3.625 0 3.25 0 3.25-3.855V580.41c0-3.177 0-3.177-3.25-3.177h-4.234zM-421.03 630.035l-.077-60.323h6.843l7.521 34.057.073-34.057h6.464v60.323h-6.427l-7.672-33.828v33.828zM-293.17 630.071v-60.547h7.37l6.615 28.193 7.067-28.193h7.219l.036 60.433-7.635.114v-32.354l-6.687 32.354-6.73-32.354v32.354zM-193.732 630.071V569.41h7.484v60.661zM-471.07 568.54c6.723-.115 11.41 6.276 11.41 11.417v13.265h-7.708v-13.265c-.078-1.927-1.588-3.782-3.666-3.782-1.662-.114-3.782 1.51-3.782 3.782v13.265l-.036 25.245c0 2.495 1.661 4.349 3.781 4.234 2.115.115 3.703-1.854 3.703-4.234v-10.958l-3.703-.115v-7.557h11.448v18.63c-.036 6.162-4.833 11.531-11.073 11.64-6.198.115-11.828-3.322-11.828-11.64v-38.4c0-6.5 4.688-11.412 11.453-11.527M-390.456 630.035l-.115-60.287h7.412c15.27-.109 15.27-.109 15.27 14.89l.073 30.126c-.073 15.193-.073 15.27-15.343 15.27zm7.297-7.297c7.479-.073 7.479-.073 7.479-7.974v-30.125c0-7.219 0-7.219-7.48-7.219zM-361.389 630.035l9.032-60.287h8.468l8.802 60.287h-7.104l-1.698-15.156h-8.656l-2.12 15.156zm9.521-21.203h7.11l-3.667-26.61zM-177.894 630.035l-.114-60.438h18.859v7.677h-11.26v18.933h11.26v7.562h-11.26v18.969h11.26v7.297zM-253.675 630.035l-.115-60.438h18.865v7.677h-11.266v18.933h11.266v7.562h-11.266v18.969h11.266v7.297zM-448.962 630.035" style="fill:#000;stroke-width:1.33333" transform="translate(575.992 -155.778)scale(.8869)"/>
  </g>
</svg>
