<svg xmlns="http://www.w3.org/2000/svg" xml:space="preserve" viewBox="-.031 -.031 576 576" role="img" aria-labelledby="title">
  <title id="title">Verkehrszeichen B7a - Accès interdit aux véhicules à moteur à l&apos;exception des cyclomoteurs</title>
  <circle cx="287.969" cy="287.969" r="286.969" fill="#fff" stroke="#000" stroke-linecap="round" stroke-linejoin="round" stroke-width="2"/>
  <circle cx="287.969" cy="287.969" r="273.98" fill="red" stroke="red" stroke-linecap="round" stroke-linejoin="round" stroke-width=".176"/>
  <path fill="#fff" stroke="red" stroke-linecap="round" stroke-linejoin="round" stroke-width=".176" d="M445.806 398.059c56.203-80.579 42.686-190.557-31.359-255.127-74.045-64.569-184.839-62.997-257.021 3.649l283.008 246.793zM418.345 429.512c-72.261 66.561-183.057 68.002-257.025 3.345s-87.356-174.651-31.057-255.164L412.978 424.82z"/>
  <path d="M343.767 166.21c-8.18-.11-14.181 3.616-16.725 13.638l-6.707 26.624a8.224 8.224 0 0 0-8.181 8.241v25.107a8.217 8.217 0 0 0 7.809 8.221v25.882a3.414 3.414 0 0 0 3.422 3.422h11.391a3.416 3.416 0 0 0 3.424-3.422v-25.86h77.908v25.86a3.416 3.416 0 0 0 3.424 3.422h11.391a3.414 3.414 0 0 0 3.422-3.422V248.04a8.22 8.22 0 0 0 7.809-8.221v-25.107a8.226 8.226 0 0 0-8.184-8.241l-6.706-26.624c-2.544-10.022-8.543-13.747-16.723-13.638h-66.774m2.575 9.18 57.302.056c13.012-.282 13.489-.006 16.723 13.638l2.64 10.481c.734 2.875.361 5.167-1.338 6.904h-89.033c-1.699-1.737-2.072-4.03-1.337-6.904l2.64-10.48c2.83-11.94 3.55-13.644 12.403-13.694m-17.26 44.71a7.077 7.077 0 0 1 7.076 7.076 7.077 7.077 0 0 1-7.076 7.077 7.077 7.077 0 0 1-7.077-7.077 7.077 7.077 0 0 1 7.077-7.076m96.144 0a7.077 7.077 0 0 1 7.077 7.076 7.077 7.077 0 0 1-7.077 7.077 7.077 7.077 0 0 1-7.076-7.077 7.077 7.077 0 0 1 7.076-7.076" style="opacity:1;fill:#000;fill-opacity:1;fill-rule:evenodd;stroke:none;stroke-width:1;stroke-linecap:round;stroke-linejoin:round;stroke-miterlimit:4;stroke-dasharray:none;stroke-dashoffset:0;stroke-opacity:1"/>
  <path d="m223.38 315.229-13.451 2.649-5.18 9.26c-2.443-1.515-3.86-2.473-6.583-3.426-4.873-1.5-6.597-1.132-7.655 1.134-1.497 4.237-3.015 8.472 1.526 13.434 2.315 0 4.211-.12 5.873-.307l-8.04 11.454a24.9 24.9 0 0 0-11.768-2.98 24.91 24.91 0 0 0-24.908 24.908 24.91 24.91 0 0 0 24.908 24.907 24.91 24.91 0 0 0 24.907-24.907 24.9 24.9 0 0 0-7.722-18.016l8.153-11.615c2.024 7.833 7.545 10.227 15.12 9.425l1.102 5.056c-2.539 1.54-4.297 4.92-4.297 8.873 0 5.412 3.289 9.769 7.375 9.769H259.4a24.91 24.91 0 0 0 24.631 21.415 24.91 24.91 0 0 0 24.635-21.415h4.529v-5.65h-4.372a25 25 0 0 0-1.273-5.96l2.619-.904a27.68 27.68 0 0 0-19.275-17.77l-3.123-13.032-45.511 2.355c-2.086-2.572-5.048-4.633-8.972-5.164l-21.004-2.84-2.04-2.04 1.413-2.825 12.711-3.064zm-45.278 39.208a16.9 16.9 0 0 1 7.13 1.598l-5.2 7.411a8.2 8.2 0 0 0-1.93-.242 8.15 8.15 0 0 0-8.15 8.15 8.15 8.15 0 0 0 8.15 8.151 8.15 8.15 0 0 0 8.15-8.15 8.15 8.15 0 0 0-.943-3.796l5.306-7.562a16.92 16.92 0 0 1 4.404 11.358 16.917 16.917 0 0 1-16.917 16.917 16.917 16.917 0 0 1-16.918-16.917 16.917 16.917 0 0 1 16.918-16.918m105.928 0a16.92 16.92 0 0 1 16.758 14.76h-8.9a8.15 8.15 0 0 0-6.787-5.913l-3.436-8.663a17 17 0 0 1 2.365-.184m-8.04 2.05 3.278 8.265a8.15 8.15 0 0 0-3.088 4.445h-8.91a16.92 16.92 0 0 1 8.72-12.71m-8.492 18.36h9.176a8.15 8.15 0 0 0 7.356 4.658 8.15 8.15 0 0 0 7.354-4.658h9.193a16.92 16.92 0 0 1-16.547 13.425 16.92 16.92 0 0 1-16.532-13.425" style="opacity:1;fill:#000;fill-opacity:1;fill-rule:evenodd;stroke:none;stroke-width:.30000001;stroke-linecap:round;stroke-linejoin:round;stroke-miterlimit:4;stroke-dasharray:none;stroke-dashoffset:0;stroke-opacity:1"/>
</svg>
