<svg xmlns="http://www.w3.org/2000/svg" xml:space="preserve" viewBox="0 0 576 576" role="img" aria-labelledby="title">
  <title id="title">Verkehrszeichen B11 - Accès interdit aux véhicules dont la largeur, chargement compris, est supérieure au nombre indiqué</title>
  <circle cx="287.969" cy="287.969" r="286.969" style="fill:#fff;stroke:#000;stroke-width:2;stroke-linecap:round;stroke-linejoin:round"/>
  <circle cx="287.969" cy="287.969" r="273.982" style="fill:red;stroke:red;stroke-width:.1764;stroke-linecap:round;stroke-linejoin:round"/>
  <circle cx="287.969" cy="287.969" r="192.438" style="fill:#fff;stroke:red;stroke-width:.1764;stroke-linecap:round;stroke-linejoin:round"/>
  <path d="m449.084 287.969 30.416 21.297v-42.593zM127.541 287.969l-30.416 21.297v-42.593z" style="fill:none;stroke:#000;stroke-width:.1764;stroke-linecap:round;stroke-linejoin:round"/>
  <path d="M479.5 287.969v18.657c-.08.819-.165 1.642-.257 2.46l-30.159-21.117 30.159-21.117q.137 1.23.257 2.46zm-351.959 0-30.417 21.297v-42.593z"/>
  <path d="M117.621 214.968h293v223h-293z" style="fill:none"/>
  <path d="M179.145 215.232q8.701 1.407 19.248 8.877 3.163 2.55 6.943 7.998l3.076 5.625 1.143 2.725-.264.264q2.196 5.977 2.197 11.426-.528 10.547-1.934 13.623-2.373 6.329-4.219 9.053l-2.021 2.9-4.482 4.922-36.65 36.475h51.24v25.137H126.85l.088-25.4 54.053-54.581q2.548-3.075 3.604-5.625 2.724-8.876-2.549-14.941-4.835-4.658-13.623-4.658l-5.186.703-2.373 1.143-1.494.088-3.252 2.549-1.846 2.197q-1.76 3.164-2.373 4.922l-.527 3.076q-.353.968-.439.703l-23.73.088-.176-.615.176-4.307.352-.527q.35-5.537 3.604-12.393l4.043-6.768 3.252-3.604.527-.176q9.316-8.348 20.742-10.371 6.678-1.142 12.129-1.143 4.039 0 7.293.615"/>
  <path d="M215.621 226.968h293v223h-293z" style="fill:none"/>
  <path d="M220.153 320.563h25.625l-7.031 43.984h-18.594z"/>
  <path d="M247.121 257.407h293v223h-293z" style="fill:none"/>
  <path d="m312.121 257.47-.063 17.837H280.7l-2.158 15.869q4.443-1.269 9.395-1.078 4.633-.127 9.458 1.016 6.981 2.222 12.441 7.807 7.554 8.253 8.569 18.281.063 1.462.063 2.857 0 6.094-1.587 10.537a41.6 41.6 0 0 1-7.998 12.188q-8.379 7.87-20.439 7.871h-1.27l-5.84-.381q-9.141-1.015-15.869-6.412-8.697-7.998-10.728-16.439l18.281-4.635q.824 3.746 4.316 6.729 5.268 3.873 14.854 1.588 7.935-3.238 7.427-11.299.191-7.3-6.602-10.348-4.697-1.395-10.601-.762-4.507.953-8.062 3.492l-15.806-12.379 4.697-42.338h48.88z"/>
  <path d="M333 245.968h293v223H333z" style="fill:none"/>
  <path d="M341.875 275.921h17.126v4.715q4.853-4.437 14.283-5.339h.763q9.569 0 12.966 3.259 4.16 2.08 6.795 7.419 6.448-10.678 17.542-10.678h6.032q10.053 1.248 14.63 7.142 5.753 6.448 7.35 17.68v47.773h-17.265v-45.139q-2.081-10.33-10.886-10.33-10.47-.277-11.926 11.648v43.82H382.02V304.35q-1.178-12.342-11.51-12.064-9.569.277-10.747 11.926l-.208 43.682h-17.819z"/>
</svg>
