<svg xmlns="http://www.w3.org/2000/svg" xml:space="preserve" viewBox="-.944 -.944 576 576" role="img" aria-labelledby="title">
  <title id="title">Verkehrszeichen B34 - Fin d&apos;interdiction de dépassement</title>
  <circle cx="287.056" cy="287.056" r="286.968" stroke="#000" stroke-linecap="round" stroke-linejoin="round" stroke-width=".176"/>
  <path fill="#fff" stroke="#000" stroke-linecap="round" stroke-linejoin="round" stroke-width=".176" d="M131.268 511.807c108.646 75.308 255.606 62.118 349.105-31.333s106.766-240.404 31.513-349.089l-71.274 71.385-15.35 15.361H286.027l58.23-58.232 98.938-97.348C334.725-12.889 187.828.014 94.169 93.208s-107.292 240.025-32.392 348.87l64.906-64.597h139.35l-37.244 37.272z"/>
  <path stroke="#000" stroke-linecap="round" stroke-linejoin="round" stroke-width=".176" d="M335.065 249.357h71.401c2.491 0 7.326 6.142 9.126 7.748 3.241 2.894 4.906 3.934 6.059 7.974q2.351 8.246 4.704 16.49c.836 2.93 6.8 6.868 8.992 9.045 2.055 2.04.863 9.365.942 12.085l.426 14.619c.059 2.016-8.809 7.949-10.515 9.462-1.535 1.362-.181 10.96-.181 12.992 0 5.193 2.21 9.494-3.468 9.494-3.623 0-9.909 2.068-9.909-2.264v-18.183c0-2.891-14.91-1.322-17.55-1.322h-64.818c-2.079 0 3.121 21.769-2.089 21.769-1.68 0-12.229.718-12.229-.609v-17.758c0-4.676-2.385-5.868-5.722-9.32-3.879-4.013-3.45-4.854-3.45-10.516v-17.86c0-4.098 5.505-6.932 8.384-9.519 5.777-5.192 2.081-17.49 7.462-22.575zM176.167 249.357h61.029c2.029 0 9.435-1.233 11.048.207 4.022 3.591 10.679 7.533 13.526 12.072 3.233 5.155 3.969 13.911 5.649 19.801 1.018 3.567 9.54 6.428 9.644 10.016l.661 22.688c.166 5.668-5.39 8.177-9.49 11.813-3.391 3.008-1.113 15.037-1.113 19.397 0 6.843-6.95 3.916-12.917 3.916-.955 0-.459-17.379-.459-19.505 0-3.609-2.358-2.264-5.711-2.264H176.91c-6.104 0-5.711-.79-5.711 5.644v13.861c0 3.458-1.608 2.264-4.977 2.264-.936 0-9.162.321-9.162-.277v-11.693c0-10.032-.906-10.735-8.015-18.089-3.596-3.72-1.158-16.086-1.158-21.042 0-8.667 2.96-9.607 9.595-15.57 3.478-3.126 4.237-15.347 5.431-19.955 1.225-4.726 9.705-9.93 13.254-13.284"/>
  <circle cx="416.219" cy="305.779" r="6.399" fill="#fff" stroke="#fff" stroke-linecap="round" stroke-linejoin="round" stroke-width=".176"/>
  <path fill="#fff" stroke="#fff" stroke-linecap="round" stroke-linejoin="round" stroke-width=".176" d="m333.154 258.287 76.815-.558 4.967 25.117H327.04z"/>
  <circle cx="326.994" cy="305.779" r="6.479" fill="#fff" stroke="#fff" stroke-linecap="round" stroke-linejoin="round" stroke-width=".176"/>
  <circle cx="168.097" cy="305.779" r="6.479" fill="#fff" stroke="#fff" stroke-linecap="round" stroke-linejoin="round" stroke-width=".176"/>
  <path fill="#fff" stroke="#fff" stroke-linecap="round" stroke-linejoin="round" stroke-width=".176" d="m174.257 258.287 76.814-.558 4.968 25.117h-87.896z"/>
  <circle cx="257.323" cy="305.779" r="6.399" fill="#fff" stroke="#fff" stroke-linecap="round" stroke-linejoin="round" stroke-width=".176"/>
</svg>
