<svg xmlns="http://www.w3.org/2000/svg" xml:space="preserve" viewBox="-.031 -.031 576 576" role="img" aria-labelledby="title">
  <title id="title">Verkehrszeichen B9d - Accès interdit aux véhicules agricoles à moteur</title>
  <circle cx="287.969" cy="287.969" r="286.969" fill="#fff" stroke="#000" stroke-linecap="round" stroke-linejoin="round" stroke-width="2"/>
  <circle cx="287.969" cy="287.969" r="273.982" fill="red" stroke="red" stroke-linecap="round" stroke-linejoin="round" stroke-width=".176"/>
  <circle cx="287.969" cy="287.969" r="192.438" fill="#fff" stroke="red" stroke-linecap="round" stroke-linejoin="round" stroke-width=".176"/>
  <path stroke="#000" stroke-linecap="round" stroke-linejoin="round" stroke-width=".176" d="m276.099 307.048-84.063-2.169c14.737 4.412 24.098 18.862 22.101 34.115s-14.762 26.806-30.138 27.275-28.823-10.283-31.747-25.386 5.537-30.097 19.977-35.399l-24.575-1.889-.792-61.257 138.523 1.156 18.998-17.337 4.75-5.779-3.168-12.713 3.168-12.713 6.332-4.623 6.332 1.155 6.333 3.468 1.582 11.558-4.748 8.09-2.375 4.623 8.707 5.779 2.351 14.875c36.277-4.849 69.63 20.592 74.543 56.86l10.97-1.232.792-18.493 3.166-5.779 3.957 5.779.792 27.74-19.076 1.21c-.173 36.311-29.5 65.737-65.81 66.035-36.31.297-66.115-28.646-66.882-64.949"/>
  <circle cx="343.039" cy="305.338" r="34.886" fill="#fff" stroke="#000" stroke-linecap="round" stroke-linejoin="round" stroke-width=".176"/>
</svg>
