<svg xmlns="http://www.w3.org/2000/svg" xml:space="preserve" viewBox="0 0 576 576" role="img" aria-labelledby="title">
  <title id="title">Verkehrszeichen B19[Interdit - Autres interdictions dont la nature est indiquée par une inscription sur le panneau</title>
  <circle cx="287.057" cy="287.057" r="286.969" style="fill:#fff;stroke:#000;stroke-linecap:round;stroke-linejoin:round"/>
  <circle cx="287.057" cy="287.057" r="273.982" style="fill:red;stroke:red;stroke-width:.1764;stroke-linecap:round;stroke-linejoin:round"/>
  <circle cx="287.057" cy="287.057" r="192.438" style="fill:#fff;stroke:red;stroke-width:.1764;stroke-linecap:round;stroke-linejoin:round"/>
  <path d="M96.266 180.423h384.875v172.733H96.266z" style="fill:none"/>
  <path d="M195.701 180.543v35.361h-7.059v-35.361zM213.167 180.495l9.344 18.863v-18.863h6.906l.025 35.41h-6.779l-11.35-22.312-.025 22.336h-6.982v-35.434zM257.964 180.519v6.802h-7.439v28.583h-6.906v-28.656h-7.947v-6.73h22.292zM285.825 180.567v6.464h-15.387v7.719h11.273v6.537h-11.273v8.081h16.047v6.537h-23.207l.025-35.337zM304.343 180.423q5.866 0 9.166 4.004 2.895 3.522 2.895 7.936 0 .796-.102 1.881-.61 5.38-5.662 8.9l6.195 12.736h-8.023l-5.307-10.541h-4.596v10.613h-7.033l.025-35.53h12.442zm-1.016 18.115 2.082-.241q1.777-.458 2.971-1.906 1.015-1.422 1.219-3.401.101-2.46-1.523-4.293-1.371-1.496-3.986-1.688h-5.104v11.53zM337.13 180.423q3.657.41 6.208 2.774c2.551 2.364 2.933 3.441 3.694 5.596q.533 1.423.787 3.739v10.854q-.381 5.5-3.644 8.877c-3.263 3.377-4.82 3.449-7.935 3.594h-14.727l.025-35.434zm-8.328 28.463h5.941q1.803-.265 3.072-1.267 1.27-1 2.158-3.51.482-1.544.279-11.24-1.194-5.017-5.51-5.765h-5.941zM361.081 180.543v35.361h-7.059v-35.361zM389.958 180.519v6.802h-7.439v28.583h-6.906v-28.656h-7.947v-6.73h22.292z"/>
  <path d="M94.62 257.173h384.875v172.733H94.62z" style="fill:none"/>
  <path d="m256.134 257.246 9.598 35.337h-7.287l-1.6-6.006h-10.283l-1.625 6.006h-7.363l9.496-35.337zm-8.176 22.601h7.338l-3.555-13.797zM280.227 257.342v23.928q.482 4.583 5.434 5.114 4.875-.507 5.484-5.042v-24h7.186v25.786q-.94 4.728-4.697 7.357-3.352 2.244-6.855 2.363-.559.05-1.092.049-5.205 0-8.607-2.871-3.885-3.569-4.113-7.284v-25.4zM314.527 257.27l6.881 10.903 6.881-10.854h8.201l-11.4 17.512 11.502 17.778h-8.176l-7.109-10.783-6.729 10.758-9.014.024 11.477-17.802-11.451-17.536z"/>
  <path d="M95.563 328.26h384.875v172.732H95.563z" style="fill:none"/>
  <path d="M113.536 328.332h9.572l7.49 18.742 7.668-18.742h9.547v35.41h-7.084v-22.361l-9.268 22.361h-1.854l-9.191-22.168.076 22.168h-6.957v-35.41zM167.194 327.945q6.144.894 9.09 6.899 2.514 4.438 2.514 10.903v.434q0 8.081-4.139 13.749-2.946 3.811-8.328 4.27a13 13 0 0 1-1.092.048q-5.586 0-9.369-4.486-3.91-5.982-3.961-12.277a22 22 0 0 1-.025-1.062q0-8.515 3.986-14.087 2.666-3.038 5.561-3.883a13.9 13.9 0 0 1 4.012-.604q.887.001 1.751.096m-1.955 30.128q2.944-.145 4.977-3.835 1.472-2.462 1.854-7.236.076-6.079-2.26-9.963-1.905-2.7-4.215-3.015-3.047.145-5.078 3.787-1.447 2.556-1.879 7.333-.051 6.079 2.311 9.938 1.876 2.702 4.29 2.991M204.728 328.355v6.803h-7.439v28.584h-6.906v-28.656h-7.947v-6.73zM223.245 327.945q6.144.894 9.09 6.899 2.514 4.438 2.514 10.903v.434q0 8.081-4.139 13.749-2.946 3.811-8.328 4.27a13 13 0 0 1-1.092.048q-5.586 0-9.369-4.486-3.91-5.982-3.961-12.277a22 22 0 0 1-.025-1.062q0-8.515 3.986-14.087 2.666-3.038 5.561-3.883a13.9 13.9 0 0 1 4.012-.604q.888.001 1.751.096m-1.955 30.128q2.944-.145 4.977-3.835 1.472-2.462 1.854-7.236.076-6.079-2.26-9.963-1.905-2.7-4.215-3.015-3.047.145-5.078 3.787-1.447 2.556-1.879 7.333-.051 6.079 2.311 9.938 1.878 2.702 4.29 2.991M253.62 327.945q7.388 1.207 9.674 8.371l.229 1.182-6.424 1.278q-.787-3.087-2.691-4.101c-1.904-1.014-2.759-.611-4.469.193q-1.701 1.374-2.831 3.763t-1.485 6.464q-.153 4.343 1.193 7.538 1.345 3.196 3.263 4.233t3.923.289q2.005-.481 3.199-3.932l6.424 1.882q-1.295 4.847-5.002 7.019-2.717 1.641-6.398 1.857-6.932-.144-10.359-5.379-3.606-5.691-3.707-12.326.05-8.297 3.758-13.58 2.336-2.917 5.23-4.027 2.184-.82 4.748-.82.835.002 1.725.096M265.662 328.355h7.439l6.678 13.412 6.424-13.412h7.287l-10.436 21.252v14.135h-6.932v-14.015zM308.503 327.945q7.388 1.207 9.674 8.371l.229 1.182-6.424 1.278q-.787-3.087-2.691-4.101c-1.904-1.014-2.759-.611-4.469.193q-1.701 1.374-2.831 3.763t-1.485 6.464q-.153 4.343 1.193 7.538 1.345 3.196 3.263 4.233c1.918 1.037 2.586.788 3.923.289q2.005-.481 3.199-3.932l6.424 1.882q-1.294 4.847-5.002 7.019-2.718 1.641-6.398 1.857-6.931-.144-10.359-5.379-3.606-5.691-3.707-12.326.05-8.297 3.758-13.58 2.337-2.917 5.23-4.027 2.184-.82 4.748-.82.836.002 1.725.096M328.492 328.332l.025 29.09h14.396l-.025 6.32h-21.43v-35.41zM353.942 328.381v35.361h-7.059v-35.361zM357.909 356.529v-.048q0-.266.584-.362 4.493-1.374 5.84-1.978.685.893 1.803 1.616a9.9 9.9 0 0 0 3.859 1.23q2.183.048 2.717-.098 2.513-.674 3.098-1.374.584-.482 1.016-2.34.101-.723-.203-1.616a5.3 5.3 0 0 0-.813-1.014l-.863-.627-.965-.41q-8.048-2.387-8.861-2.797-3.732-1.424-5.561-4.704-1.194-2.195-1.066-5.331.482-3.907 3.377-6.199 3.25-2.243 6.779-2.436h.66q2.513 0 4.164.361 3.351.894 5.23 2.484 1.879 1.471 3.098 4.004l-.076.266-5.23 2.389-.254-.121q-.483-1.47-2.717-2.389-2.514-.891-5.891-.048-1.447.459-2.031 1.183-.203.193-.533 1.205-.051 1.183.102 1.375.33.82 1.32 1.472l.66.265q7.211 2.027 9.775 2.943 2.21.966 3.377 2.123l1.422 1.833a10.65 10.65 0 0 1 1.676 5.427q.025.193.025.459 0 .94-.305 2.532-.635 2.243-1.523 3.305-1.524 1.784-2.209 2.147-3.733 2.436-7.693 2.629h-2.311q-2.59-.24-4.367-.965-2.844-1.255-4.596-2.799-1.447-1.25-2.514-3.592M408.927 328.355v6.803h-7.439v28.584h-6.906v-28.656h-7.947v-6.73zM434.604 328.404v6.465h-15.387v7.719h11.273v6.537h-11.273v8.08h16.047v6.537h-23.207l.025-35.338zM438.268 356.529v-.048q0-.266.584-.362 4.494-1.374 5.84-1.978.685.893 1.803 1.616a9.9 9.9 0 0 0 3.859 1.23q2.183.048 2.717-.098 2.514-.674 3.098-1.374.584-.482 1.016-2.34.101-.723-.203-1.616a5.3 5.3 0 0 0-.813-1.014l-.863-.627-.965-.41q-8.048-2.387-8.861-2.797-3.732-1.424-5.561-4.704-1.194-2.195-1.066-5.331.482-3.907 3.377-6.199 3.25-2.243 6.779-2.436h.66q2.513 0 4.164.361 3.351.894 5.23 2.484 1.879 1.471 3.098 4.004l-.076.266-5.23 2.389-.254-.121q-.483-1.47-2.717-2.389-2.514-.891-5.891-.048-1.447.459-2.031 1.183-.204.193-.533 1.205-.051 1.183.102 1.375.33.82 1.32 1.472l.66.265q7.211 2.027 9.775 2.943 2.21.966 3.377 2.123l1.422 1.833a10.65 10.65 0 0 1 1.676 5.427q.025.193.025.459 0 .94-.305 2.532-.635 2.243-1.523 3.305-1.524 1.784-2.209 2.147-3.733 2.436-7.693 2.629h-2.311q-2.59-.24-4.367-.965-2.844-1.255-4.596-2.799-1.447-1.25-2.514-3.592"/>
</svg>
