<svg xmlns="http://www.w3.org/2000/svg" xml:space="preserve" viewBox="0 0 576 576" role="img" aria-labelledby="title">
  <title id="title">Verkehrszeichen B6a2 - Stationnement interdit du 1er au 15 du mois</title>
  <circle cx="287.47" cy="287.469" r="286.969" style="fill:#fff;stroke:#000;stroke-linecap:round;stroke-linejoin:round"/>
  <circle cx="287.47" cy="287.469" r="273.982" style="fill:#d40000;stroke:red;stroke-width:.1764;stroke-linecap:round;stroke-linejoin:round;fill-opacity:1"/>
  <path d="M417.846 429.012c-72.261 66.563-183.058 68.002-257.025 3.347-73.968-64.659-87.356-174.653-31.057-255.166l282.715 247.128z" style="fill:#039;stroke:red;stroke-width:.1764;stroke-linecap:round;stroke-linejoin:round;fill-opacity:1"/>
  <path d="M416.834 429.025c-72.057 65.85-182.077 67.063-255.569 2.821-73.492-64.239-87-173.438-31.378-253.649L412.033 424.83z" style="fill:none;stroke:#00f;stroke-width:.176;stroke-linecap:round;stroke-linejoin:round;stroke-miterlimit:4;stroke-dasharray:none"/>
  <path d="M445.183 396.555c55.527-80.277 41.89-189.458-31.679-253.614-73.568-64.154-183.59-62.808-255.566 3.126l282.44 246.298z" style="fill:none;stroke:#00f;stroke-width:.1764;stroke-linecap:round;stroke-linejoin:round"/>
  <path d="M445.307 397.559c56.203-80.578 42.686-190.557-31.359-255.125s-184.839-62.997-257.021 3.649l283.008 246.793z" style="fill:#039;stroke:red;stroke-width:.176;stroke-linecap:round;stroke-linejoin:round;stroke-miterlimit:4;stroke-dasharray:none;fill-opacity:1"/>
  <path d="M127.5 274.5h274v167.99h-274z" style="fill:none"/>
  <g style="font-style:normal;font-weight:400;font-size:11.25px;line-height:125%;font-family:sans-serif;letter-spacing:0;word-spacing:0;fill:#fff;fill-opacity:1;stroke:none;stroke-width:1px;stroke-linecap:butt;stroke-linejoin:miter;stroke-opacity:1">
    <path d="M-431.243 64.533v52.9h-10.047l.036-37.343h-.144q-.108.468-2.592 2.053l-3.133 1.656-2.81 1.08q-1.692.36-1.836.54V74.257l2.233-1.044q5.582-3.565 8.03-8.679zM-421.802 106.558H-411v10.875h-10.803zM-380.6 64.533v52.9h-10.047l.036-37.343h-.145q-.108.468-2.592 2.053l-3.133 1.656-2.81 1.08q-1.692.36-1.836.54V74.257l2.233-1.044q5.582-3.565 8.03-8.679zM-337.166 64.497l-.036 10.12h-17.79l-1.224 9.002q2.521-.72 5.33-.612 2.629-.072 5.365.576 3.962 1.26 7.059 4.43 4.285 4.68 4.861 10.37.036.829.036 1.62 0 3.458-.9 5.979-1.657 3.853-4.538 6.914-4.753 4.465-11.595 4.465h-.72l-3.313-.216q-5.186-.576-9.003-3.637-4.933-4.537-6.086-9.327l10.371-2.629q.469 2.125 2.45 3.817 2.988 2.197 8.426.9 4.5-1.836 4.213-6.41.108-4.14-3.745-5.869-2.665-.792-6.014-.432-2.557.54-4.573 1.98l-8.967-7.022 2.665-24.019z" style="font-style:normal;font-variant:normal;font-weight:500;font-stretch:normal;font-size:73.75px;font-family:&quot;Caracteres L1&quot;;-inkscape-font-specification:&quot;Caracteres L1 Medium&quot;;letter-spacing:-5px;fill:#fff" transform="translate(723.829 103.008)"/>
  </g>
</svg>
