<svg xmlns="http://www.w3.org/2000/svg" xml:space="preserve" viewBox="0 0 576 576" role="img" aria-labelledby="title">
  <title id="title">Verkehrszeichen B6a3 - Stationnement interdit du 16 à la fin du mois</title>
  <circle cx="287.47" cy="287.469" r="286.969" style="fill:#fff;stroke:#000;stroke-linecap:round;stroke-linejoin:round"/>
  <circle cx="287.47" cy="287.469" r="273.982" style="fill:#d40000;stroke:red;stroke-width:.1764;stroke-linecap:round;stroke-linejoin:round;fill-opacity:1"/>
  <path d="M417.846 429.012c-72.261 66.563-183.058 68.002-257.025 3.347-73.968-64.659-87.356-174.653-31.057-255.166l282.715 247.128z" style="fill:#039;stroke:red;stroke-width:.1764;stroke-linecap:round;stroke-linejoin:round;fill-opacity:1"/>
  <path d="M416.834 429.025c-72.057 65.85-182.077 67.063-255.569 2.821-73.492-64.239-87-173.438-31.378-253.649L412.033 424.83zM445.183 396.555c55.527-80.277 41.89-189.458-31.679-253.614-73.568-64.154-183.59-62.808-255.566 3.126l282.44 246.298z" style="fill:none;stroke:#00f;stroke-width:.1764;stroke-linecap:round;stroke-linejoin:round"/>
  <path d="M445.307 397.559c56.203-80.578 42.686-190.557-31.359-255.125s-184.839-62.997-257.021 3.649l283.008 246.793z" style="fill:#039;stroke:red;stroke-width:.1764;stroke-linecap:round;stroke-linejoin:round;fill-opacity:1"/>
  <path d="M127.5 274.5h274v167.99h-274z" style="fill:none"/>
  <g style="font-style:normal;font-weight:400;font-size:11.25px;line-height:125%;font-family:sans-serif;letter-spacing:0;word-spacing:0;fill:#fff;fill-opacity:1;stroke:none;stroke-width:1px;stroke-linecap:butt;stroke-linejoin:miter;stroke-opacity:1">
    <path d="M-753.88 280.035v53.892h-10.235l.037-38.044h-.147q-.11.477-2.641 2.092l-3.192 1.687-2.861 1.1q-1.725.368-1.871.55V289.94l2.274-1.064q5.687-3.632 8.181-8.84zM-718.242 280.108q11.042 1.651 14.197 12.437l-10.235 2.825q-1.468-4.036-5.393-4.55-6.75-.843-8.805 3.156-1.357 2.2-2.128 11.006 7.704-5.357 16.693-1.981 7.153 3.118 9.171 10.198.404 2.128.404 4.109 0 5.906-3.596 10.419-4.255 5.32-11.886 5.98-1.394.11-2.715.11-17.279 0-18.6-20.544-.146-2.715-.146-5.21 0-8.034 1.394-13.83 1.87-7.631 7.52-11.41 4.403-2.971 10.53-2.971 1.76 0 3.595.256m-5.247 43.914q7.741.33 8.805-5.357.294-6.163-6.383-6.933-7.851-.294-8.768 5.723.073 5.943 6.347 6.567M-701.279 322.848h11.006v11.079h-11.006zM-662.34 279.925q3.008.624 5.723 2.421l2.495 2.128q1.65 1.981 2.127 2.788l1.138 2.275q.954 2.788 1.027 5.686l-.184 2.788-.623 2.055q-1.064 2.641-3.302 5.356l.183.477 1.761 1.944 1.138 1.724 1.027 2.568q.844 2.678.844 5.246 0 5.21-3.486 9.906-5.282 6.346-13.683 6.64-3.045 0-5.026-.367-2.568-.697-3.632-1.174l-2.201-1.1-1.871-1.358-1.688-1.504-1.724-2.238q-1.504-2.458-2.128-4.659l-.037-.33 9.649-2.642q.697 2.752 3.485 4.183 1.724.697 5.1.77l1.723-.183 1.395-.44 1.063-.624q1.101-.734 1.981-2.165.44-.917.66-2.494.074-1.284-.146-1.468.073-.587-.514-1.798l-.917-1.284q-.99-.99-1.724-1.357-.917-.514-2.458-.844l-3.999-.11V300.8q.807.074 3.192-.22l.073.074q4.366-.514 5.503-4.77l-.073-1.65.073-.257-.146-.514-.697-1.357q-1.028-1.284-1.871-1.688-.147-.11-2.495-.66l-2.311.073v-.073l-2.275.367-1.614.697-.66.513-.734 1.064-.55 1.358-9.539-2.862.624-1.65.22-.22q-.073-.184.844-1.835l1.027-1.651 1.467-1.688q.808-.44.808-.66l.77-.55q2.861-2.128 6.677-2.715 1.907-.293 4.586-.293 1.944 0 3.925.293M-616.321 280.035v53.892h-10.235l.036-38.044h-.146q-.11.477-2.642 2.092l-3.192 1.687-2.861 1.1q-1.724.368-1.871.55V289.94l2.275-1.064q5.686-3.632 8.18-8.84z" style="font-style:normal;font-variant:normal;font-weight:500;font-stretch:normal;font-size:75.13297272px;font-family:&quot;Caracteres L1&quot;;-inkscape-font-specification:&quot;Caracteres L1 Medium&quot;;letter-spacing:-2.70000005px;fill:#fff" transform="translate(915.027 90.546)scale(.9816)"/>
  </g>
</svg>
