<svg xmlns="http://www.w3.org/2000/svg" xml:space="preserve" viewBox="0 0 577.137 577.137" role="img" aria-labelledby="title">
  <title id="title">Verkehrszeichen B29[Allumez - Autres obligations dont la nature est mentionnée par une inscription sur le panneau</title>
  <circle cx="287.62" cy="287.62" r="286.969" style="fill:#fff;stroke:#000;stroke-width:3;stroke-linecap:round;stroke-linejoin:round"/>
  <circle cx="287.62" cy="287.62" r="259.96" style="fill:#039"/>
  <path d="m133.802 137.269 17.291 63.665h-13.128l-2.882-10.821h-18.526l-2.928 10.821h-13.266l17.108-63.665zm-14.73 40.719h13.22l-6.404-24.857zM171.607 137.269l.045 52.409h25.937l-.046 11.386h-38.608v-63.795zM218.698 137.269l.045 52.409h25.937l-.046 11.386h-38.608v-63.795zM266.612 137.442v43.109q.868 8.257 9.789 9.213 8.783-.911 9.881-9.083v-43.24h12.945v46.456q-1.693 8.519-8.463 13.254-6.038 4.04-12.351 4.259a23 23 0 0 1-1.967.087q-9.378 0-15.507-5.171-6.999-6.43-7.411-13.124v-45.76zM309.586 137.269h17.245l13.494 33.766 13.815-33.766h17.199v63.795h-12.763v-40.285l-16.696 40.285h-3.34l-16.559-39.937.137 39.937h-12.533zM421.405 137.399v11.646h-27.721v13.906h20.311v11.777h-20.311v14.558h28.91v11.777h-41.811l.046-63.665h40.576zM474.946 137.442l-.046 12.298-28.819 39.372h29.643v11.951h-45.332v-12.776l28.133-38.546H431.81v-12.298h43.136zM220.302 270.311l13.533 45.805 11.619-45.805h12.986l-16.175 63.709H225.36l-17.907-63.709zM293.225 269.573q11.025 1.608 16.312 12.429 4.512 7.997 4.511 19.643v.782q0 14.559-7.427 24.771-5.286 6.867-14.945 7.692a23 23 0 0 1-1.959.086q-10.024 0-16.813-8.082-7.017-10.779-7.108-22.12a41 41 0 0 1-.045-1.912q0-15.34 7.154-25.379 4.784-5.475 9.978-6.997a24.8 24.8 0 0 1 7.199-1.086 28 28 0 0 1 3.143.173m-3.509 54.277q5.284-.261 8.931-6.909 2.642-4.433 3.326-13.037.137-10.951-4.056-17.948-3.417-4.866-7.563-5.432-5.468.261-9.113 6.822-2.596 4.607-3.372 13.211-.091 10.952 4.146 17.904 3.372 4.868 7.701 5.389M322.041 321.069v-.086q0-.478 1.048-.652 8.065-2.477 10.479-3.563 1.23 1.608 3.235 2.911a17.8 17.8 0 0 0 6.926 2.217q3.918.088 4.875-.174 4.511-1.217 5.56-2.477 1.047-.869 1.822-4.216.182-1.304-.364-2.911-.684-1.087-1.458-1.826l-1.55-1.129-1.731-.739q-14.445-4.302-15.901-5.041-6.699-2.564-9.979-8.474-2.143-3.955-1.914-9.604.865-7.04 6.06-11.169 5.832-4.04 12.166-4.389h1.185q4.511 0 7.473.652 6.015 1.607 9.386 4.476 3.372 2.651 5.56 7.214l-.137.479-9.387 4.302-.455-.218q-.867-2.65-4.876-4.302-4.511-1.607-10.57-.087-2.597.826-3.646 2.129-.365.348-.957 2.174-.091 2.129.183 2.477.593 1.478 2.369 2.65l1.185.479q12.94 3.65 17.542 5.302 3.965 1.739 6.061 3.824l2.552 3.303q2.824 4.476 3.007 9.778.045.347.046.825 0 1.695-.547 4.563-1.14 4.04-2.734 5.953-2.734 3.217-3.964 3.867-6.698 4.39-13.806 4.737h-4.146q-4.648-.434-7.837-1.738-5.103-2.26-8.247-5.041-2.6-2.26-4.514-6.476M230.662 396.268v11.646h-27.483v13.906h20.136v11.82h-20.136l-.045 26.335h-12.79l.045-63.708h40.273zM278.303 396.399v11.646h-27.484v13.906h20.137v11.776h-20.137v14.558h28.663v11.777H238.03l.045-63.664zM301.498 396.442v43.109q.861 8.257 9.705 9.213 8.708-.913 9.796-9.082v-43.24h12.835v46.455q-1.678 8.519-8.39 13.255-5.987 4.04-12.245 4.259-.998.087-1.95.087-9.298 0-15.375-5.171-6.939-6.432-7.347-13.125v-45.76zM358.028 396.311l12.29 19.643 12.291-19.555h14.649l-20.364 31.549 20.545 32.028h-14.604l-12.698-19.425-12.019 19.381-16.101.044 20.5-32.071-20.454-31.594z" style="fill:#fff"/>
</svg>
