<svg xmlns="http://www.w3.org/2000/svg" xml:space="preserve" viewBox="0 0 576 576" role="img" aria-labelledby="title">
  <title id="title">Verkehrszeichen B17[70 - Interdiction aux véhicules de circuler sans maintenir entre eux un intervalle au moins égal au nombre indiqué</title>
  <circle cx="287.057" cy="287.057" r="286.969" style="fill:#fff;stroke:#000;stroke-linecap:round;stroke-linejoin:round"/>
  <circle cx="287.057" cy="287.057" r="273.982" style="fill:red;stroke:red;stroke-width:.1764;stroke-linecap:round;stroke-linejoin:round"/>
  <circle cx="287.057" cy="287.057" r="192.438" style="fill:#fff;stroke:red;stroke-width:.1764;stroke-linecap:round;stroke-linejoin:round"/>
  <path d="m94.885 290.958.695-8.112h38.894l32.642 33.457h20.142v34.47l-18.058 1.015-1.389 6.083-4.861 6.083-6.252 4.055-9.029 1.014-9.028-4.056-5.557-8.11v-5.069l-23.613-1.015-9.029-27.373 39.588-1.014 4.861-1.013-21.53-29.402zM361.238 327.456l63.897-13.181 34.726-34.47h15.279l-.694 6.083-9.723 2.028-23.614 26.359 28.476 2.028-6.946 34.47h-44.45l-.695 6.084-2.083 4.056-3.472 4.054-7.64 3.042h-7.641l-9.028-3.042-4.862-7.096v-6.083h-21.53z" style="stroke:#000;stroke-width:.1764;stroke-linecap:round;stroke-linejoin:round"/>
  <path d="M134.474 179.428H489.5v205.161H134.474z" style="fill:none"/>
  <path d="M212.477 179.496v20.754q-15.894 14.42-26.953 41.71-6.812 19.608-6.299 36.589h-22.119q-.148-39.62 28.931-78.905h-41.089v-20.147zM225.441 239.601q-.22-3.773-.22-7.412 0-1.82.073-3.639.219-7.142 1.245-13.881v-.472l.293-.606.513-4.649.366-.674.732-3.773.293-.404q1.097-4.851 4.761-10.916l2.124-2.965 4.102-3.841q6.518-4.85 16.919-6.94a42 42 0 0 1 6.812-.539h.586q5.493.135 11.499 1.685 2.49.27 7.983 3.032 5.64 3.234 10.254 8.827l2.344 3.302 1.904 3.706.806 2.695.22.202v.674q.73 1.415.879 2.224l.293.337 1.245 5.997.22.135-.146.876.293.539.732 7.21.293.674-.22.067.513 4.245-.146.135q.291.674 0 .809l.22.674-.146.202.366 4.582-.146.135.22 1.954-.073.135v2.695q-.073 2.495-.439 5.997l-.366 2.493.146.135-.366.674q-.22 2.494-1.245 5.93l-.439 1.28-.073.741-1.904 4.986-.366.27q0 .674-1.904 4.11l-3.516 4.649q-5.786 6.132-12.817 8.962a40.6 40.6 0 0 1-9.302 2.224l-5.64.337-1.318-.067q-16.7-.404-26.953-9.973-5.054-5.187-7.617-12.062-2.93-7.007-3.589-14.757zm36.474 20.35q4.54.27 5.64-.135l.073.135 4.028-.809q4.834-1.482 7.397-6.401 1.976-4.918 2.93-11.725l.366-15.229-.22-7.143-.732-5.323-.293-.27-.952-3.773-.293-.135q-1.098-4.042-4.175-7.479-2.345-1.75-3.735-2.291l-4.248-.943-4.468-.202q-3.004-.067-6.665 1.146-3.37 1.483-5.64 5.323-1.612 3.572-2.93 8.962l.146.404q-.44.337-.513 2.224-1.027 7.884-.22 23.112l1.172 7.345 1.538 5.188q1.684 4.042 4.614 5.862 2.639 1.55 7.18 2.157M329.757 208.538h18.091v4.582q5.126-4.312 15.088-5.188h.806q10.107 0 13.696 3.167 4.394 2.022 7.178 7.21 6.812-10.376 18.53-10.377h6.372q10.619 1.214 15.454 6.94 6.079 6.267 7.764 17.183v46.427h-18.237v-43.866q-2.198-10.04-11.499-10.04-11.06-.269-12.598 11.32v42.586h-18.237v-42.316q-1.246-11.994-12.158-11.725-10.107.27-11.353 11.59l-.22 42.451h-18.823z"/>
</svg>
