<svg xmlns="http://www.w3.org/2000/svg" xml:space="preserve" viewBox="-.256 -.698 575 575" role="img" aria-labelledby="title">
  <title id="title">Verkehrszeichen B55 - Sortie d&apos;aire piétonne * Voir aussi le panneau C110 &lt;!-- MODÈLE __________________________________________</title>
  <path d="M.788 532.336V41.268A40.923 40.923 0 0 1 41.71.346h491.068a40.92 40.92 0 0 1 28.934 11.985A40.93 40.93 0 0 1 573.7 41.268v491.068a40.92 40.92 0 0 1-11.988 28.937 40.92 40.92 0 0 1-28.934 11.985H41.71A40.925 40.925 0 0 1 .788 532.336" style="opacity:.98999999;fill:#fff;stroke:#010101;stroke-width:2.08744979;stroke-linecap:round;stroke-linejoin:round"/>
  <path d="M30.662 517.525V56.08a22.95 22.95 0 0 1 6.833-16.315 23.46 23.46 0 0 1 16.493-6.757h466.514a23.46 23.46 0 0 1 16.492 6.757 22.94 22.94 0 0 1 6.833 16.315v461.444a22.95 22.95 0 0 1-6.833 16.315 23.45 23.45 0 0 1-16.492 6.757H53.987a23.46 23.46 0 0 1-16.493-6.757 22.94 22.94 0 0 1-6.832-16.314" style="fill:#3953a4"/>
  <g style="fill:#fff">
    <path d="M90.29-329.934c-22.117 0-40.046 17.93-40.046 40.045a40.05 40.05 0 0 0 23.469 36.409v20.126C17.228-225.292.362-180.482.14-149.498c-.083.695-.141 1.397-.141 2.117v99.74c0 9.134 6.897 16.489 15.465 16.489S30.93-38.507 30.93-47.641v-111.691c0-4.25 2.97-7.67 6.658-7.67s6.658 3.42 6.658 7.67v305.066a18.37 18.37 0 0 0 18.408 18.409h.453a18.37 18.37 0 0 0 18.409-18.409V-41.414c0-4.78 3.912-8.627 8.773-8.627s8.775 3.848 8.775 8.627v7.887l.061.007v217.711a18.37 18.37 0 0 0 18.408 18.409h.453a18.37 18.37 0 0 0 18.409-18.409v-343.125c-.17-6.523 3.08-9.096 7.398-6.787l29.494 98.832c2.612 8.753 10.91 13.95 18.606 11.653l2.513-.75c7.696-2.297 11.79-11.191 9.178-19.944l-32.523-108.988a18.6 18.6 0 0 0-2.18-4.748c-12.572-24.61-39.31-37.825-60.27-41.64l-1.744-22.184a40.05 40.05 0 0 0 23.467-36.399c0-22.116-17.929-40.045-40.045-40.045" style="opacity:1;fill:#fff;fill-opacity:1;fill-rule:evenodd;stroke:none;stroke-width:.30000001;stroke-linecap:round;stroke-linejoin:round;stroke-miterlimit:4;stroke-dasharray:none;stroke-dashoffset:0;stroke-opacity:1" transform="translate(141.462 329.612)scale(.75187)"/>
    <path d="M307.107-104.127a25.35 25.35 0 0 0-25.351 25.352 25.35 25.35 0 0 0 14.64 22.945v10.166l-1.263 3.834c-12.625 1.77-21.821 6.842-28.27 13.906l.028.131a11.4 11.4 0 0 0-1.975 2.613l-26.67 48.55c-2.729 4.967-1.344 10.934 3.106 13.378l1.863 1.023c4.45 2.445 10.23.413 12.959-4.554L274.762-.621c1.956-.937 4.82-1.12 6.494.91l-25.809 78.334h24.842v77.986c0 6.097 4.777 11.004 10.711 11.004s10.71-4.907 10.71-11.004V78.623h15.253v59.422c0 6.096 4.777 11.004 10.71 11.004 5.935 0 10.712-4.908 10.712-11.004V78.623h24.031l-27.697-74.75c-.017-.083-.019-.165-.043-.248-1.444-4.918 4.4-7.391 10.468-2.125l28.235 31.213c4.09 4.521 10.767 5.099 14.97 1.297l.438-.395c4.203-3.802 4.295-10.504.205-15.025l-47.508-52.518a11.8 11.8 0 0 0-2.607-2.164l-.027-.137c-6.69-4.057-12.973-6.025-21.032-6.521v-13.078a25.35 25.35 0 0 0 14.641-22.947 25.35 25.35 0 0 0-25.352-25.352" style="opacity:1;fill:#fff;fill-opacity:1;fill-rule:evenodd;stroke:none;stroke-width:.30000004;stroke-linecap:round;stroke-linejoin:round;stroke-miterlimit:4;stroke-dasharray:none;stroke-dashoffset:0;stroke-opacity:1" transform="translate(141.462 329.612)scale(.75187)"/>
  </g>
  <path d="M543.168 56.585c0-6.119-2.456-11.988-6.831-16.314a23.46 23.46 0 0 0-16.493-6.758h-9.504L30.003 497.712v20.317c0 6.12 2.458 11.988 6.832 16.315a23.47 23.47 0 0 0 16.493 6.758h24.174L543.168 91.08z" style="fill:#ed1c24"/>
</svg>
