<svg xmlns="http://www.w3.org/2000/svg" xml:space="preserve" viewBox="-.943 -.943 577.138 577.138" role="img" aria-labelledby="title">
  <title id="title">Verkehrszeichen B22a+B22b - Utilisé pour les voies partagées</title>
  <circle cx="287.057" cy="287.057" r="286.969" style="fill:#fff;stroke:#000;stroke-width:3;stroke-linecap:round;stroke-linejoin:round;stroke-miterlimit:4;stroke-opacity:1;stroke-dasharray:none" transform="translate(.563 .563)"/>
  <circle cx="287.057" cy="287.057" r="261.666" style="fill:#0056a4;fill-opacity:1;stroke:none" transform="translate(.563 .563)"/>
  <path d="M488.667 327.838c-1.358 41.752-34.545 68.058-65.866 67.64-35.693-.457-63.136-26.972-66.622-55.394l55.395-2.742c12.468 10.85 23.2-.443 23.447-8.186.17-5.052-3.303-12.885-15.13-12.259l-29.036-47.404s11.319-8.447 35.197-7.677c26.594.862 63.946 24.283 62.615 66.022m-108.518-52 30.746 50.368-55.395 2.742c.088-23.931 10.758-40.747 24.649-53.11m-36.817 53.71-19.557.967s-2.285-4.596-6.175-8.748l32.39-93.386 23.696 37.822c-20.667 14.152-30.967 40.407-30.354 63.345m-36.072-13.63s-2.781-1.357-6.162-.796l-3.565-17.69 5.915-1.175-1.75-8.8-21.881 4.426 1.762 8.76 6.267-1.266 3.538 17.704s-1.331.365-4.96 2.245l-78.582-90.083 3.433-9.87 129.485-.069zm-87.969 16.437c-1.253 38.697-40.093 63.072-68.045 62.184-31.307-1.018-66.949-24.4-65.565-67.824 1.384-42.744 35.185-66.935 69.52-66.165 18.187.391 27.73 7.39 27.73 7.39l-7.297 21.032s-4.609 16.685-17.168 27.26c0 0-17.403-3.238-17.847 10.222-.34 10.771 6.319 13.343 11.697 13.513 4.713.156 12.194-1.959 12.586-14.074 0 0 13.643-12.207 20.706-32.548l6.815-19.622s28.148 18.225 26.868 58.632m205.469-82.04s-23.696-1.332-40.211 8.916l-29.01-46.817 5.77-16.646 18.226-6.893c8.2-3.42 6.606-15.954-4.19-16.294l-47.144-.169c-7.39-.248-9.518 7.95-4.387 10.64l25.093 12.9-4.021 11.475-129.472.01 6.07-17.494-25.066-8.708c-6.645-2.742-3.904-12.325 3.173-12.273l33.67.223-.3-10.993-35.055-.069c-19.218.405-22.273 27.587-5.81 34.18l15.158 5.575-20.589 59.31c-9.74-5.326-26.764-6.945-30.798-7.075-36.686-1.175-79.3 25.08-81.127 71.192-2.52 64.285 48.201 83.777 74.795 84.626 24.57.783 79.339-15.654 81.363-78.268 1.07-33.657-25.302-58.372-34.52-65.408l6.894-19.832 75.396 87.446c-7.403 20.654 8.147 34.362 22.273 34.806l3.629 18.03-6.254 1.28 1.685 8.486 21.868-4.413-1.71-8.5-5.902 1.202-3.538-17.704c11.594-4.347 13.826-15.366 14.035-21.424l18.865-.927c6.79 41.32 46.491 65.513 78.138 66.531 0 0 74.495-.64 78.738-81.036 0 0 1.2-69.73-75.735-75.892" style="fill:#fff;fill-opacity:1;fill-rule:nonzero;stroke:none;stroke-width:13.0555"/>
</svg>
