<svg xmlns="http://www.w3.org/2000/svg" xml:space="preserve" viewBox="-.031 -.031 576 576" role="img" aria-labelledby="title">
  <title id="title">Verkehrszeichen CE6b - Circuit de ski de fond.</title>
  <path fill="#fff" stroke="#000" stroke-linecap="round" stroke-linejoin="round" stroke-width="2" d="M41.996 574.938h491.947a40.99 40.99 0 0 0 40.995-40.995V41.996A40.995 40.995 0 0 0 533.942 1H41.996A40.995 40.995 0 0 0 1 41.996v491.947a40.995 40.995 0 0 0 40.996 40.995"/>
  <path fill="#00f" stroke="#00f" stroke-linecap="round" stroke-linejoin="round" stroke-width=".176" d="M37.076 538.862h501.786V37.076h0H37.076h0z"/>
  <path fill="#fff" stroke="#00f" stroke-linecap="round" stroke-linejoin="round" stroke-width=".176" d="M89.262 89.262h397.414v397.414H89.262z"/>
  <path fill="none" d="M274.302 295.302 154.969 398.969l-.506 5.316-.954 10.017h132.924l20.536-72.666.333-3.334-1.666-5.666zM407.703 242.266l-4.777-.359-2.29-1.272-1.334-.666-2.666-3-25.334-18.334-64.666 57-.667 5 27 43.001 3 5.333.667 5.333v7.667l-22.334 66.667 6.833 5.666h5.932l116.836-193.15z"/>
  <path d="m474.802 398.469-1.666-1.5-2.5-.167-1.667.334-1.833 1.666-11 13.334-3 1.333-2.667.667-3.333.166H335.637l121.508-200.873 8.488-4.951-.07-.121c5.931-3.579 8.572-10.114 5.895-14.705-2.679-4.591-9.667-5.509-15.701-2.108l-.006-.008-47.146 27.498-3.636-1.398-22.667-15-2.666-2.667 2.445-3.762a24.7 24.7 0 0 0 10.722 2.429c13.715 0 24.833-11.118 24.833-24.833s-11.118-24.833-24.833-24.833c-13.716 0-24.834 11.118-24.834 24.833 0 4.021.962 7.815 2.658 11.175l-8.991 7.992-10.334-5.333-4.333-2-6-.667-80.942 6.634-.682.032h-4.042l-.823.229-3.352.158-1.737 1.256-.087.024-7 4.667.144.328-39.629 28.648.089.124c-3.773 2.822-5.79 6.997-5.63 10.856l-93.134 47.601 2.556 5.002 92.506-47.279c3.474 4.438 10.561 4.893 16.125 1.005l.006.008 42.159-30.478 36.474-.816-45.333 44.667-3 4-1 3.667-.667 5.333.333 8.333-119 112.667-1.333 4-1 1.666v4.667l-.493 12.333H106.97v9.667h342v-.26l2.333.093 2-.333 2.667-.5 2-1 2.333-1.167 15.834-19.166zm-167.833-56.833-20.536 72.666H153.509l.954-10.017.506-5.316 119.333-103.667 31.333 37.334 1.666 5.666zm14.166 72.666-6.833-5.666 22.334-66.667v-7.667l-.667-5.333-3-5.333-27-43 .667-5 64.666-57 25.334 18.333 2.666 3 1.334.667 2.29 1.272 4.777.358 36.2-21.114-116.836 193.15z"/>
</svg>
