<svg xmlns="http://www.w3.org/2000/svg" xml:space="preserve" viewBox="-.031 -.031 576 567" role="img" aria-labelledby="title">
  <title id="title">Verkehrszeichen CE23 - Aire de jeux pour enfants.</title>
  <path fill="#fff" stroke="#000" stroke-linecap="round" stroke-linejoin="round" stroke-width="2" d="M41.996 565.938h491.947c10.872 0 21.3-4.251 28.988-11.818 7.688-7.568 12.007-17.831 12.007-28.534V41.353c0-10.702-4.319-20.966-12.007-28.534C555.242 5.251 544.814 1 533.942 1H41.996c-10.873 0-21.3 4.251-28.988 11.819C5.319 20.387 1 30.651 1 41.353v484.232c0 10.703 4.319 20.966 12.007 28.534s18.116 11.819 28.989 11.819"/>
  <path fill="#00f" stroke="#00f" stroke-linecap="round" stroke-linejoin="round" stroke-width=".176" d="M37.076 529.862h501.786V28.076h0H37.076h0z"/>
  <path fill="#fff" stroke="#00f" stroke-linecap="round" stroke-linejoin="round" stroke-width=".176" d="M89.262 80.262h397.414v397.414H89.262z"/>
  <path d="m454.719 339.219-12.25-36.75c-3.75-11.25-14.5-30.5-14.5-30.5l-12.75-16.25-35.581 19.606-.046-.103-1.888.967-47.542 24.359.016.035a10.3 10.3 0 0 0-2.848 2.013c-4.091 4.111-4 10.832.202 15.012 3.122 3.106 7.634 3.93 11.426 2.465l.055.119 47.831-24.508 14.625 25.535z"/>
  <ellipse cx="390.844" cy="236.344" rx="21.875" ry="22.625"/>
  <ellipse cx="249.844" cy="195.844" rx="21.875" ry="22.625"/>
  <path d="m258.101 278.74.118-.056-26.339-48.898-18.661-38.067-18.5 6.25s-19.5 10.25-25.25 13.5-17 10.75-21.75 13.75-14.75 8.75-14.75 8.75l53.25 19.75 27.22-12.796 25.324 47.014.035-.017a10.3 10.3 0 0 0 2.07 2.805c4.195 4.006 10.912 3.776 15.004-.511 3.041-3.186 3.773-7.713 2.229-11.474"/>
  <path d="m439.219 359.719 13.75-12.5-91.75-29.5-3 .75-2.25 3.75-.944 8.264-.832 2.36-130.874-43.194 1.678-4.761-.32-.113.293-.806-.25-3.25-1-2.5-1-3.25-93-35.25-1.25.5.5 14.25 3.454 5.18-7.426-2.451-3.993 12.098 76.121 25.124-12.545 35.601.039.014a9.5 9.5 0 0 0-.649 3.435c0 5.8 5.205 10.5 11.625 10.5 4.771 0 8.866-2.598 10.658-6.312l.133.047 12.699-36.037 130.874 43.194-10.628 30.159.039.014a9.6 9.6 0 0 0-.649 3.435c0 5.8 5.205 10.5 11.625 10.5 4.771 0 8.866-2.598 10.658-6.312l.133.047 10.781-30.596 71.114 23.471 1.257-3.809 3.182-8.552z"/>
  <path d="M278.094 388.469h36.676l-18.338-26.875-18.338-26.875-18.338 26.875-18.339 26.875z"/>
</svg>
