<svg xmlns="http://www.w3.org/2000/svg" xml:space="preserve" viewBox="-.031 -.031 576 567" role="img" aria-labelledby="title">
  <title id="title">Verkehrszeichen CE20a - Gare de téléphérique.</title>
  <path fill="#fff" stroke="#000" stroke-linecap="round" stroke-linejoin="round" stroke-width="2" d="M41.996 565.938h491.947c10.872 0 21.3-4.251 28.988-11.818 7.688-7.568 12.007-17.831 12.007-28.534V41.353c0-10.702-4.319-20.966-12.007-28.534C555.242 5.251 544.814 1 533.942 1H41.996c-10.873 0-21.3 4.251-28.988 11.819C5.319 20.387 1 30.651 1 41.353v484.232c0 10.703 4.319 20.966 12.007 28.534s18.116 11.819 28.989 11.819"/>
  <path fill="#00f" stroke="#00f" stroke-linecap="round" stroke-linejoin="round" stroke-width=".176" d="M37.076 529.862h501.786V28.076h0H37.076h0z"/>
  <path fill="#fff" stroke="#00f" stroke-linecap="round" stroke-linejoin="round" stroke-width=".176" d="M89.262 80.262h397.414v397.414H89.262z"/>
  <path d="M422.885 316.636h-61.108l-33.99-62-20.817-37.973v-23.175l165.13-54.1-3.736-11.403-94.824 31.066-5.19-7.909c4.328-3.295 7.121-8.411 7.121-14.173 0-9.941-8.283-18-18.5-18s-18.5 8.059-18.5 18c0 9.518 7.598 17.29 17.21 17.937l.29 9.563 3.038-.657-30.324 9.935-4.335-6.605c4.328-3.295 7.121-8.411 7.121-14.173 0-9.941-8.283-18-18.5-18s-18.5 8.059-18.5 18c0 9.518 7.598 17.29 17.21 17.937l.253 8.33-55.883 18.308-4.201-6.401c4.328-3.295 7.121-8.411 7.121-14.173 0-9.941-8.283-18-18.5-18s-18.5 8.059-18.5 18c0 9.518 7.597 17.29 17.21 17.937l.245 8.084-26.598 8.714-3.978-6.062c4.328-3.295 7.121-8.411 7.121-14.173 0-9.941-8.283-18-18.5-18s-18.5 8.059-18.5 18c0 9.518 7.597 17.29 17.21 17.937l.233 7.676-91.562 29.998 3.736 11.403 166.383-54.51v16.34l-18.817 34.324-33.99 62h-61.775c-6.674 0-12.084 5.424-12.084 12.113v118.44c0 6.689 5.41 12.113 12.084 12.113h262.498c6.673 0 12.084-5.424 12.084-12.113v-118.44c-.002-6.691-5.413-12.115-12.086-12.115m-183.916 70h-77.333v-57.334h77.333zm88.667 0h-77.333v-57.334h77.333zm-36-94.542H250.5l20.568-35.625 6.447-11.167h28.242l6.447 11.167 20.568 35.625zm130 94.542h-77.333v-57.334h77.333z"/>
</svg>
