<svg xmlns="http://www.w3.org/2000/svg" xml:space="preserve" viewBox="0 -.031 598 600" role="img" aria-labelledby="title">
  <title id="title">Verkehrszeichen C8 - Remarques :</title>
  <path fill="#fff" stroke="#000" stroke-linecap="round" stroke-linejoin="round" stroke-width="2" d="M43.515 598.938h510.183a42.42 42.42 0 0 0 30.063-12.508 42.8 42.8 0 0 0 12.452-30.201V43.71a42.8 42.8 0 0 0-12.452-30.2A42.42 42.42 0 0 0 553.698 1H43.515C32.24 1 21.425 5.5 13.453 13.51A42.8 42.8 0 0 0 1 43.71v512.519a42.8 42.8 0 0 0 12.453 30.201 42.42 42.42 0 0 0 30.062 12.508"/>
  <path fill="#00f" stroke="#00f" stroke-linecap="round" stroke-linejoin="round" stroke-width=".709" d="M33.256 564.212h530.488V33.725H33.256zM248.438 204.701h61.728"/>
  <path fill="#00f" stroke="#00f" stroke-linecap="round" stroke-linejoin="round" stroke-width=".709" d="m310.166 294.678 8.776-.865 8.44-2.56 7.778-4.157 6.818-5.595 5.594-6.817 4.157-7.778 2.56-8.44.865-8.777-.865-8.776-2.56-8.44-4.157-7.778-5.594-6.817-6.818-5.595-7.778-4.157-8.44-2.561-8.776-.864h-61.728v89.977z"/>
  <path fill="#fff" d="M397.731 227.411V373.05h38V227.96M340.732 177.413V78.079h-38v98"/>
  <path fill="#fff" d="M434.245 227.738 325.77 146.56l-22.768 30.424 111.174 83.196M340.732 421.62v102.334h-38v-100.96"/>
  <path fill="#fff" d="m433.72 373.689-107.95 80.785-22.768-30.424 116.237-86.986M210.229 78.079h38v451.972h-38z"/>
  <path fill="#00f" stroke="#00f" d="M197.096 135.678h61.497v46.498h-61.497zM198.596 408.664h61.497v46.497h-61.497zM200.096 273.671h61.497v46.497h-61.497z"/>
</svg>
