<svg xmlns="http://www.w3.org/2000/svg" xml:space="preserve" viewBox="0 0 576 576" role="img" aria-labelledby="title">
  <title id="title">Verkehrszeichen C28 - C28</title>
  <path fill="#fff" stroke="#000" stroke-linecap="round" stroke-linejoin="round" d="M41.496 574.438h491.947a40.992 40.992 0 0 0 40.995-40.994V41.496A40.993 40.993 0 0 0 533.442.5H41.496A40.998 40.998 0 0 0 .5 41.496v491.946a40.995 40.995 0 0 0 40.996 40.996"/>
  <path fill="#00f" d="M544.921 529.72c0 6.744-5.47 12.214-12.216 12.214H42.659c-6.746 0-12.214-5.47-12.214-12.214V41.173c0-6.746 5.468-12.214 12.214-12.214h490.046c6.746 0 12.216 5.469 12.216 12.214z"/>
  <g fill="#fff">
    <path d="m332.574 95.969-23.22-40.222-23.221 40.222-23.223 40.221h27.56v378.779h38V136.19h27.327zM186.47 336.5v178.469h38V334.5"/>
    <path d="M292.787 194.553 186.445 337.879l30.518 22.643L324.496 215.59"/>
  </g>
</svg>
