<svg xmlns="http://www.w3.org/2000/svg" xml:space="preserve" viewBox="0 -.031 598 600" role="img" aria-labelledby="title">
  <title id="title">Verkehrszeichen C1c - Remarques :</title>
  <path fill="#fff" stroke="#000" stroke-linecap="round" stroke-linejoin="round" stroke-width="2" d="M43.515 598.938h510.183a42.42 42.42 0 0 0 30.063-12.508 42.8 42.8 0 0 0 12.452-30.201V43.71a42.8 42.8 0 0 0-12.452-30.2A42.42 42.42 0 0 0 553.698 1H43.515C32.24 1 21.425 5.5 13.453 13.51A42.8 42.8 0 0 0 1 43.71v512.519a42.8 42.8 0 0 0 12.453 30.201 42.42 42.42 0 0 0 30.062 12.508"/>
  <path fill="#00f" stroke="#00f" stroke-linecap="round" stroke-linejoin="round" stroke-width=".709" d="M30.706 566.763h535.588V31.175H30.706z"/>
  <path fill="#fff" stroke="#00f" stroke-linecap="round" stroke-linejoin="round" stroke-width=".709" d="m429.271 408.714 16.839-6.499 17.635-3.851 18.016-1.114M481.761 397.25l18.016 1.114 17.635 3.851 16.84 6.499M245.409 472.807v-94.055c0-2.604-1.14-4.842 1.69-4.842H313.9c9.408-.928 19.322-1.074 28.575-3.034 7.466-1.58 14.937-4.605 22.076-7.278 15.235-5.703 28.838-16.737 40.52-27.765 5.783-5.459 11.016-12.873 15.356-19.515 4.255-6.509 8.877-13.868 11.665-21.14 6.048-15.769 9.621-32.128 9.6-49.024-.042-33.558-13.177-66.162-36.648-90.255-11.769-12.08-26.31-21.673-41.824-28.118-15.971-6.633-32.304-8.468-49.319-10.144H187.916c-1.31 0-21.615-.144-21.615.128v311.74c0 2.304-.025 43.301.023 43.301z"/>
  <path fill="#00f" stroke="#00f" stroke-linecap="round" stroke-linejoin="round" stroke-width=".709" d="M245.935 199.988h64.814M310.749 294.463l9.216-.908 8.861-2.688 8.167-4.365 7.158-5.875 5.875-7.158 4.365-8.166 2.687-8.862.909-9.215-.909-9.216-2.687-8.862-4.365-8.167-5.875-7.158-7.158-5.874-8.167-4.365-8.861-2.689-9.216-.907h-64.814v94.475z"/>
  <path fill="#fff" stroke="#00f" stroke-linecap="round" stroke-linejoin="round" stroke-width=".709" d="M428.336 409.871c11.838-7.153 31.338-11.824 53.389-11.824 21.454 0 40.493 4.422 52.411 11.25l-27.998 102.675-6.825 2.363-4.463 22.837-28.087.788-4.463-23.101-6.563-2.625z"/>
  <path fill="#00f" stroke="#00f" stroke-linecap="round" stroke-linejoin="round" stroke-width=".709" d="m482.109 442.077-30.133.245 64.404-18.367-2.955 18.367-30.136-.245"/>
  <path fill="#00f" stroke="#00f" stroke-linecap="round" stroke-linejoin="round" stroke-width=".709" d="m452.027 442.062 64.676-17.815c-8.31-5.892-21.043-9.661-35.317-9.661-13.428 0-25.493 3.337-33.795 8.638l.142 1.054z"/>
</svg>
