<svg xmlns="http://www.w3.org/2000/svg" xml:space="preserve" viewBox="-.031 -.031 576 567" role="img" aria-labelledby="title">
  <title id="title">Verkehrszeichen CE20b - Remarques :</title>
  <path fill="#fff" stroke="#000" stroke-linecap="round" stroke-linejoin="round" stroke-width="2" d="M41.996 565.938h491.947c10.872 0 21.3-4.251 28.988-11.818 7.688-7.568 12.007-17.831 12.007-28.534V41.353c0-10.702-4.319-20.966-12.007-28.534C555.242 5.251 544.814 1 533.942 1H41.996c-10.873 0-21.3 4.251-28.988 11.819C5.319 20.387 1 30.651 1 41.353v484.232c0 10.703 4.319 20.966 12.007 28.534s18.116 11.819 28.989 11.819"/>
  <path fill="#00f" stroke="#00f" stroke-linecap="round" stroke-linejoin="round" stroke-width=".176" d="M37.076 529.862h501.786V28.076h0H37.076h0z"/>
  <path fill="#fff" stroke="#00f" stroke-linecap="round" stroke-linejoin="round" stroke-width=".176" d="M89.262 80.262h397.414v397.414H89.262z"/>
  <path d="m476.219 275.719-.25-5.25-8.75-.25c-.815 16.42-9.463 29.354-22.399 38.551l-109.447 62.083-8.153-5.634-1.25-2.5.25-3 15.25-75-.75-4-.75-2.75-2.5-2.5-1.5-1.25-1.5-1.25-1.5-.5-2.25-.5-4.25.25-48.5 2.675v-30.326l19.167 16.568 5 3 4.333-.333 3.667-.667 34.166-48.167 1.167-4.167.167-3.833-3.334-5-1.45-.378-2.766-4.876-49.774 28.234a7128 7128 0 0 1-10.343-11.268v-.152l-.986-1.06h-.124a16663 16663 0 0 1-15.557-17.013v-13.84c10.892-1.869 19.167-11.07 19.167-22.147 0-12.426-10.41-22.5-23.25-22.5s-23.25 10.074-23.25 22.5c0 7.883 4.193 14.815 10.535 18.833h-.035v13.933l-14.5 11.901-1.5 3.667-.519 4.667h-.398v46.945l-13.25 7.516V134.305l29.732-16.082-.22-.407c10.096-4.399 18.98-8.874 30.155-10.097-13.949-3.648-22.043-5.077-34.568 1.94l-.009-.017-135.922 73.519v11.092l99.166-53.638v132.933l-40.46 22.951-7.881-13.895-6.088 3.454 7.881 13.894-11.686 6.629 3.453 6.089 11.686-6.629 7.336 12.934 6.089-3.453-7.337-12.935 37.006-20.991v6.54a41 41 0 0 0-.166 3.583c0 1.221.061 2.426.166 3.618v.8h.078c2.113 19.596 18.095 34.832 37.506 34.832a36.4 36.4 0 0 0 6.924-.666h48.159v-9.334h-29.942c.121-.112.246-.219.365-.333h-20.521a25 25 0 0 1-4.069.333c-13.558 0-24.793-10.848-26.833-25.026v-20.965l13.25-7.516v25.257h.191c.258 9.983 8.142 18 17.851 18 .297 0 .591-.012.884-.026l-.009.026 63.5-4.5 1-.5 1.25.75-15.5 65.25 10.373 15.176-102.234 57.991 4.818 8.495 242.885-137.775-.19-.336c13.734-9.249 23.001-22.526 23.847-39.551m-151.228-63.53-20.189 23.113s-2.166 1.5-2.666 1.667-3.5-1.333-4-1.5c-.103-.034-2-2.053-4.95-5.238z"/>
</svg>
