<svg xmlns="http://www.w3.org/2000/svg" xml:space="preserve" viewBox="-.031 -.031 576 576" role="img" aria-labelledby="title">
  <title id="title">Verkehrszeichen CE6a - Remarques :</title>
  <path fill="#fff" stroke="#000" stroke-linecap="round" stroke-linejoin="round" stroke-width="2" d="M41.996 574.938h491.947a40.99 40.99 0 0 0 40.995-40.995V41.996A40.995 40.995 0 0 0 533.942 1H41.996A40.995 40.995 0 0 0 1 41.996v491.947a40.995 40.995 0 0 0 40.996 40.995"/>
  <path fill="#00f" stroke="#00f" stroke-linecap="round" stroke-linejoin="round" stroke-width=".176" d="M37.076 538.862h501.786V37.076h0H37.076h0z"/>
  <path fill="#fff" stroke="#00f" stroke-linecap="round" stroke-linejoin="round" stroke-width=".176" d="M89.262 89.262h397.414v397.414H89.262z"/>
  <path d="m342.841 436.832-67.592-147.196h35.387v-57.333l-2-2.667-1.334-3-17.333-27.333-15.333.667-11-9.167v-12.786c11.636-4.01 20-15.048 20-28.047 0-16.384-13.283-29.667-29.665-29.667-16.385 0-29.668 13.283-29.668 29.667 0 11.32 6.343 21.157 15.667 26.157v13.785l-6 2.057-4.333 3.333-5.667 5.667-5.333 8-5 9-18.983 30.112-49.266 23.611c-7.736 3.707-12.323 11.305-10.239 16.972 2.08 5.667 10.038 7.254 17.772 3.547l56.049-26.861 17.667-22.048-1.206 49.13-65.849 143.399c-3.841 8.362.097 18.383 8.798 22.378 8.698 3.996 18.864.452 22.705-7.912l56.174-122.329h7.446l56.633 123.329c3.841 8.364 14.007 11.908 22.705 7.912 8.701-3.994 12.64-14.015 8.798-22.377"/>
  <path d="m240.073 461.969-87.308-181.333h-10.358l87.308 181.333zM444.39 440.832l-64.088-139.563v-39.78l30.979 48.563c4.613 7.232 12.709 10.869 18.083 8.117 5.374-2.748 5.991-10.84 1.378-18.07l-56.854-89.129h-5.251v-13.747c9.558-3.71 16.333-12.943 16.333-23.753 0-14.083-11.492-25.5-25.665-25.5-14.176 0-25.668 11.417-25.668 25.5 0 10.81 6.774 20.042 16.333 23.753v13.723l-4.667.691-3 1.333-2.666 1.667-16.334 27.333-.666 2 .333 2.667 11 14.582v39.945l-65.055 141.67c-3.841 8.362-2.114 17.367 3.859 20.109 5.97 2.744 13.925-1.815 17.767-10.18l38.43-83.688v.229h56.39l37.406 81.459c3.841 8.364 11.796 12.924 17.767 10.18 5.97-2.744 7.696-11.749 3.856-20.111"/>
</svg>
