<svg xmlns="http://www.w3.org/2000/svg" xml:space="preserve" viewBox="-.322 -.549 576 576" role="img" aria-labelledby="title">
  <title id="title">Verkehrszeichen C109 - Si les voitures sont autorisées, peut être accompagné de la mention « Priorité aux piétons, roulez au pas ».</title>
  <path fill="#fff" stroke="#000" stroke-linecap="round" stroke-linejoin="round" stroke-width="2" d="M41.496 574.438h491.946a40.99 40.99 0 0 0 40.995-40.995V41.496A40.993 40.993 0 0 0 533.442.5H41.496a41 41 0 0 0-28.988 12.007A41 41 0 0 0 .5 41.496v491.946a40.994 40.994 0 0 0 40.996 40.996"/>
  <path fill="#00f" stroke="#000" d="M544.92 529.72c0 6.744-5.469 12.214-12.215 12.214H42.658c-6.745 0-12.213-5.47-12.213-12.214V41.173c0-6.746 5.468-12.214 12.213-12.214h490.047c6.746 0 12.215 5.469 12.215 12.214z"/>
  <path d="M373.888 257.632c-10.787 0-19.533 8.746-19.533 19.533a19.53 19.53 0 0 0 11.28 17.678v7.832l-.737 2.236-.201.612c-2.307.206-4.936.837-7.897 1.902-5.954 1.8-10.316 4.388-14.613 8.615l.004.108a9.1 9.1 0 0 0-1.572 2.084l-21.268 38.197c-2.266 4.114-1.009 9.124 2.817 11.23l.396.22c3.825 2.105 8.73.489 10.996-3.626l12.358-23.607c2.968-4.124 6.742-4.305 7.884-2.059l-19.717 59.844h19.141v60.084c0 4.697 3.68 8.478 8.252 8.478s8.252-3.781 8.252-8.478V398.43h11.75v45.781c0 4.697 3.68 8.479 8.252 8.479s8.252-3.782 8.252-8.479v-45.781H416.5l-21.34-57.592c-.013-.063-.015-.126-.034-.19-1.112-3.789 3.392-5.694 8.067-1.636l21.752 24.047c3.15 3.483 8.297 3.93 11.535 1l.338-.305c3.238-2.93 3.307-8.093.156-11.576l-36.601-40.461a9.1 9.1 0 0 0-2.008-1.668l-.022-.105c-5.153-3.126-9.994-4.642-16.203-5.024v-10.076a19.53 19.53 0 0 0 11.28-17.68c0-10.787-8.745-19.533-19.532-19.533" style="opacity:1;fill:#fff;fill-opacity:1;fill-rule:evenodd;stroke:none;stroke-width:.29948;stroke-linecap:round;stroke-linejoin:round;stroke-miterlimit:4;stroke-dasharray:none;stroke-dashoffset:0;stroke-opacity:1;stop-opacity:1"/>
  <path d="M202.677 80.575c-17.04 0-30.852 13.814-30.851 30.854a30.85 30.85 0 0 0 18.08 28.05v15.507c-43.518 6.21-56.511 40.732-56.682 64.603-.064.535-.11 1.078-.11 1.633v76.846c0 7.037 5.316 12.703 11.917 12.703 6.6 0 11.914-5.666 11.914-12.703v-86.053c0-3.274 2.287-5.908 5.129-5.908s5.13 2.634 5.13 5.908v235.037a14.15 14.15 0 0 0 14.182 14.182h.35a14.15 14.15 0 0 0 14.181-14.182V302.864c0-3.682 3.015-6.646 6.76-6.646s6.762 2.964 6.762 6.646v6.077l.047.01v167.734a14.15 14.15 0 0 0 14.181 14.182h.35a14.15 14.15 0 0 0 14.182-14.182V212.326c-.203-7.788 5.919-8.281 11.627 1.23l.017-.04 20.139 78.045c1.608 2.682 3.964 4.594 6.574 5.604 5.565 2.22 11.68-.89 14.809-5.98 1.613-3.6 2.38-7.568 1.262-11.919l-20.388-75.263c-1.255-5.174-1.999-10.348-5.983-15.523-15.052-20.237-34.497-31.5-50.805-33.16v-15.844a30.85 30.85 0 0 0 18.08-28.043c0-17.04-13.814-30.854-30.854-30.854z" style="opacity:1;fill:#fff;fill-opacity:1;fill-rule:evenodd;stroke:none;stroke-width:.755906;stroke-linecap:round;stroke-linejoin:round;stroke-miterlimit:4;stroke-dasharray:none;stroke-dashoffset:0;stroke-opacity:1;stop-opacity:1"/>
</svg>
