<svg xmlns="http://www.w3.org/2000/svg" xml:space="preserve" viewBox="-.031 -.031 576 576" role="img" aria-labelledby="title">
  <title id="title">Verkehrszeichen CE4c - Remarques :</title>
  <path fill="#fff" stroke="#000" stroke-linecap="round" stroke-linejoin="round" stroke-width="2" d="M41.996 574.938h491.947a40.99 40.99 0 0 0 40.995-40.995V41.996A40.995 40.995 0 0 0 533.942 1H41.996A40.995 40.995 0 0 0 1 41.996v491.947a40.995 40.995 0 0 0 40.996 40.995"/>
  <path fill="#00f" stroke="#00f" stroke-linecap="round" stroke-linejoin="round" stroke-width=".176" d="M37.076 538.862h501.786V37.076h0H37.076h0z"/>
  <path fill="#fff" stroke="#00f" stroke-linecap="round" stroke-linejoin="round" stroke-width=".176" d="M89.262 89.262h397.414v397.414H89.262z"/>
  <path fill="none" d="m284.99 161.449-76.595 106.896h152.929z"/>
  <path d="m369.489 268.345-80.411-112.604 27.554-38.45-5.698-3.215-25.848 36.074-26.911-37.685-5.814 3.293 28.635 40.1-80.602 112.487h-35.329v6.137h238.429v-6.137zM284.99 161.449l76.334 106.896h-152.93z"/>
  <path stroke="#000" stroke-linecap="round" stroke-linejoin="round" d="m326.417 213.523-40.76-56.867-40.76 56.867-40.761 56.867h42.265l19.054-27.001 19.054-27.003 19.054 27.003 19.054 27.001h44.562z"/>
  <ellipse cx="268.653" cy="431.977" rx="19.964" ry="20.3"/>
  <path d="m388.421 451.103-1.583.012 13.93-31.68-6.353.221h-31.81v-85.322c-19.466-19.58-55.141-32.698-95.933-32.698-45.669 0-84.922 16.441-102.198 39.983V427.8h20.562v23.444h-21.568v7.539h235.186v-7.539h-11.061zm-196.106.141V427.8h50.716c3.699-12.318 13.671-21.147 25.4-21.147 10.758 0 20.034 7.431 24.351 18.165v3.159h94.347l-11.233 23.268z"/>
  <path fill="#fff" d="M221.284 352.413c-.556-8.303-8.112-14.881-17.357-14.881-9.246 0-16.802 6.578-17.357 14.881h-.036v54.434h.164c1.152 7.739 8.425 13.705 17.229 13.705s16.077-5.966 17.229-13.705h.164v-54.434zM204.5 368.736c-7.057 0-12.777-5.817-12.777-12.992s5.72-12.992 12.777-12.992 12.777 5.817 12.777 12.992-5.721 12.992-12.777 12.992M280.683 338.744c-8.017.575-14.368 8.401-14.368 17.977s6.352 17.402 14.368 17.977v.037h52.557v-.17c7.474-1.193 13.234-8.725 13.234-17.844s-5.761-16.648-13.234-17.844v-.171h-52.557z"/>
</svg>
