<svg xmlns="http://www.w3.org/2000/svg" viewBox="0 0 574.938 574.938" role="img" aria-labelledby="title">
  <title id="title">Verkehrszeichen C18 - Priorité par rapport à la circulation venant en sens inverse</title>
  <path d="M41.496 574.438h491.947a40.99 40.99 0 0 0 40.995-40.995V41.496A40.995 40.995 0 0 0 533.442.5H41.496A40.995 40.995 0 0 0 .5 41.496v491.947a40.995 40.995 0 0 0 40.996 40.995" style="fill:#fff;stroke:#000;stroke-linecap:round;stroke-linejoin:round"/>
  <path d="M544.919 529.72c0 6.744-5.468 12.214-12.214 12.214H42.659c-6.746 0-12.214-5.47-12.214-12.214V41.173c0-6.746 5.468-12.214 12.214-12.214h490.046c6.746 0 12.214 5.469 12.214 12.214z" style="fill:#00f;stroke:#000"/>
  <path d="M235.025 447.142v2.841h-68.984V123.755h132.196c65.001 0 117.695 52.693 117.695 117.695s-52.694 117.695-117.695 117.695h-63.212z" style="fill:none;stroke:#00f;stroke-width:.17640001;stroke-linecap:round;stroke-linejoin:round"/>
  <path d="M238.703 288.582v-86.777h38.406c24.271 0 43.945 19.675 43.945 43.946s-19.675 43.945-43.945 43.945c-12.81 0-25.617-.371-38.406-1.114" style="fill:none;stroke:#00f;stroke-width:.17640001;stroke-linecap:round;stroke-linejoin:round"/>
  <path d="M394.307 252.183 353.8 171.156l-39.008 81.027h24.005v162.053h33.006V252.183z" style="fill:red;stroke:red;stroke-width:8.14613438;stroke-linecap:round;stroke-linejoin:round;stroke-miterlimit:4;stroke-opacity:1;stroke-dasharray:none" transform="matrix(-1.50213 .00055 -.0005 -1.66031 687.307 782.449)"/>
  <path d="m217.275 412.047-63.012-113.876h36.007l-1.5-124.825h51.009v122.635h33.006z" style="fill:#fff;fill-opacity:1;stroke:#fff;stroke-width:14.26292038;stroke-linecap:round;stroke-linejoin:round;stroke-miterlimit:4;stroke-opacity:1;stroke-dasharray:none" transform="matrix(-1.62971 -.00816 .00798 -1.66642 728.252 779.14)"/>
</svg>
