<svg xmlns="http://www.w3.org/2000/svg" xml:space="preserve" viewBox="-.031 -.031 576 576" role="img" aria-labelledby="title">
  <title id="title">Verkehrszeichen CE16 - Remarques :</title>
  <path fill="#fff" stroke="#000" stroke-linecap="round" stroke-linejoin="round" stroke-width="2" d="M41.996 574.938h491.947a40.99 40.99 0 0 0 40.995-40.995V41.996A40.995 40.995 0 0 0 533.942 1H41.996A40.995 40.995 0 0 0 1 41.996v491.947a40.995 40.995 0 0 0 40.996 40.995"/>
  <path fill="#00f" stroke="#00f" stroke-linecap="round" stroke-linejoin="round" stroke-width=".176" d="M37.076 538.862h501.786V37.076h0H37.076h0z"/>
  <path fill="#fff" stroke="#00f" stroke-linecap="round" stroke-linejoin="round" stroke-width=".176" d="M89.262 89.262h397.414v397.414H89.262z"/>
  <path d="M435.273 396.127 308.751 286.248l36.511-41.671c21.766 11.58 59.739-1.317 90.055-32.077 14.296-14.505 24.581-30.656 30.231-45.942l-6.434-6.533-67.479 61.611h-5.333l-1.334-2 .334-3 64.055-66.519-7.277-7.391-67.444 63.576h-3.667l-2-2.333v-1.667l63.455-69.381-5.474-5.559-67.981 64.606-2.333-.667-1.667-2 2-3.667L415.3 115.53l-4.673-4.745c-15.557 5.774-32.023 16.473-46.694 31.359-29.701 30.137-42.166 67.385-31.471 89.191l-44.222 37.098-46.904-40.734c8.983-20.493 1.458-50.601-20.399-74.23-26.801-28.975-64.99-37.233-85.3-18.447-20.308 18.785-15.044 57.502 11.755 86.476 25.737 27.823 61.968 36.528 82.79 20.538l37.172 43.918L135.75 396.361c-9.116 5.049-15.27 14.457-15.317 25.264-.071 16.2 13.6 29.393 30.538 29.467 12.069.053 22.533-6.571 27.58-16.242l109.27-124.714 109.152 128.96c5.089 9.094 14.523 15.206 25.331 15.206 16.2 0 29.332-13.729 29.332-30.666 0-12.07-6.67-22.504-16.363-27.509"/>
</svg>
