<svg xmlns="http://www.w3.org/2000/svg" viewBox="0 0 578.337 578.338" role="img" aria-labelledby="title">
  <title id="title">Verkehrszeichen C27 - Dos dՉne ou cassis</title>
  <g style="stroke:none">
    <path d="M1950.009 749.956h491.945a40.99 40.99 0 0 0 40.995-40.995V217.014a40.995 40.995 0 0 0-40.995-40.996h-491.946a40.993 40.993 0 0 0-40.996 40.996v491.947a40.993 40.993 0 0 0 40.996 40.995" style="fill:#fff;stroke:#000;stroke-width:4;stroke-linecap:round;stroke-linejoin:round;stroke-miterlimit:4;stroke-dasharray:none;stroke-opacity:1" transform="translate(-1906.812 -173.818)"/>
    <path d="M2453.432 705.238c0 6.744-5.468 12.214-12.214 12.214H1951.17c-6.745 0-12.213-5.47-12.213-12.214V216.691c0-6.746 5.468-12.214 12.213-12.214h490.047c6.746 0 12.214 5.47 12.214 12.214z" style="fill:#039;fill-opacity:1;stroke:none" transform="translate(-1906.812 -173.818)"/>
  </g>
  <path d="m1416.265 403.2 235.477 410.868h-473.731z" style="fill:#fff;fill-opacity:1;stroke:none" transform="translate(-1128.995 -329.382)"/>
  <path d="M1264.67 771.192h-28.344v19.906h367.718v-19.906h-28.343c-80.792-11.774-88.433-55.243-155.531-55.687-67.099-.445-109.114 52.492-155.5 55.687" style="fill:#000;fill-opacity:1;stroke:none" transform="translate(-1128.995 -329.382)"/>
</svg>
