<svg xmlns="http://www.w3.org/2000/svg" viewBox="0 0 574.938 574.938" role="img" aria-labelledby="title">
  <title id="title">Verkehrszeichen C107 - C107</title>
  <path d="M41.496 574.438h491.947a40.99 40.99 0 0 0 40.995-40.995V41.496A40.995 40.995 0 0 0 533.442.5H41.496A40.995 40.995 0 0 0 .5 41.496v491.947a40.995 40.995 0 0 0 40.996 40.995" style="fill:#fff;stroke:#000;stroke-linecap:round;stroke-linejoin:round"/>
  <path d="M544.919 529.72c0 6.744-5.468 12.214-12.214 12.214H42.659c-6.746 0-12.214-5.47-12.214-12.214V41.173c0-6.746 5.468-12.214 12.214-12.214h490.046c6.746 0 12.214 5.469 12.214 12.214z" style="fill:#00f;stroke:#000"/>
  <path d="M235.025 447.142v2.841h-68.984V123.755h132.196c65.001 0 117.695 52.693 117.695 117.695s-52.694 117.695-117.695 117.695h-63.212z" style="fill:none;stroke:#00f;stroke-width:.17640001;stroke-linecap:round;stroke-linejoin:round"/>
  <path d="M238.703 288.582v-86.777h38.406c24.271 0 43.945 19.675 43.945 43.946s-19.675 43.945-43.945 43.945c-12.81 0-25.617-.371-38.406-1.114" style="fill:none;stroke:#00f;stroke-width:.17640001;stroke-linecap:round;stroke-linejoin:round"/>
  <path d="m438.343 248.85-28.566-101.008-9.813-5.317-217.504-1.772-13.083 7.089-34.958 101.007c-14.486 2.257-19.972 9.014-23.919 16.54v96.872h27.801v72.655h49.062V362.26h201.15v74.427h49.062v-74.427h22.895V266.57c-4.436-11.032-12.37-16.72-22.127-17.72zm-270.66 0 24.592-81.516 196.245 3.544 19.373 77.971z" style="fill:#fff;fill-opacity:1;stroke:#fff;stroke-width:6;stroke-linejoin:round;stroke-miterlimit:4;stroke-opacity:1;stroke-dasharray:none"/>
  <circle cx="220.579" cy="110.579" r="5.833" style="fill:#00f;fill-opacity:1" transform="translate(-536.793 -51.187)scale(3.18188)"/>
  <circle cx="297.745" cy="110.412" r="5.833" style="fill:#00f;fill-opacity:1" transform="translate(-536.793 -51.187)scale(3.18188)"/>
</svg>
