<svg xmlns="http://www.w3.org/2000/svg" xml:space="preserve" viewBox="0 0 598 600" role="img" aria-labelledby="title">
  <title id="title">Verkehrszeichen C5 - C5</title>
  <path d="M596.049 554.011V43.927M596.049 43.927l-.646-7.382-1.918-7.156-3.131-6.716-4.25-6.069-5.239-5.24-6.069-4.249-6.717-3.132-7.156-1.918-7.382-.645M43.458 1.42l-7.381.645-7.157 1.918-6.715 3.132-6.07 4.249-5.239 5.24-4.25 6.069-3.131 6.716-1.918 7.156-.646 7.382M.951 43.927v510.084" style="fill:none;stroke:#000;stroke-width:.7087;stroke-linecap:round;stroke-linejoin:round"/>
  <path d="M43.515 598.938h510.183a42.41 42.41 0 0 0 30.063-12.508 42.8 42.8 0 0 0 12.452-30.201V43.71a42.8 42.8 0 0 0-12.452-30.2A42.42 42.42 0 0 0 553.698 1H43.515C32.24 1 21.425 5.5 13.453 13.51A42.8 42.8 0 0 0 1 43.71v512.519a42.8 42.8 0 0 0 12.453 30.201 42.42 42.42 0 0 0 30.062 12.508" style="fill:#fff;stroke:#000;stroke-width:2;stroke-linecap:round;stroke-linejoin:round"/>
  <path d="M33.256 564.212h530.487V33.725H33.256z" style="fill:#00f;stroke:#00f;stroke-width:.7087;stroke-linecap:round;stroke-linejoin:round"/>
  <path d="M12.926 227.573h571.148v269.433H12.926z" style="fill:none"/>
  <path d="M137.852 227.933v25.336h-28.693v106.465H82.521V252.999H51.869v-25.066zM205.518 227.843l37.017 131.621h-28.106l-6.169-22.371h-39.662l-6.267 22.371h-28.4l36.626-131.621zm-31.533 84.183h28.302l-13.71-51.391zM293.553 227.933l26.54 40.609 26.539-40.43h31.631l-43.971 65.227 44.362 66.215h-31.533l-27.42-40.16-25.952 40.07-34.765.09 44.265-66.305-44.167-65.316zM426.931 228.022v131.711h-27.225V228.022zM449.255 332.87v-.18q0-.987 2.252-1.348 17.333-5.12 22.524-7.367 2.643 3.325 6.953 6.02 6.953 3.774 14.885 4.582 8.421.18 10.479-.359 9.695-2.516 11.947-5.121 2.252-1.796 3.917-8.715.391-2.695-.783-6.02-1.469-2.246-3.134-3.773l-3.329-2.336-3.722-1.527q-31.044-8.894-34.178-10.422-14.396-5.3-21.446-17.52-4.604-8.175-4.113-19.855 1.86-14.554 13.025-23.09 12.533-8.355 26.146-9.074h2.547q9.693 0 16.06 1.348 12.927 3.325 20.174 9.254 7.246 5.48 11.947 14.914l-.294.988-20.173 8.895-.979-.449q-1.861-5.48-10.479-8.895-9.695-3.322-22.72-.18-5.583 1.708-7.834 4.402-.785.72-2.057 4.492-.197 4.404.392 5.121 1.273 3.055 5.092 5.48l2.547.988q27.81 7.547 37.703 10.961 8.52 3.594 13.024 7.906l5.483 6.828q6.071 9.255 6.464 20.215.097.72.098 1.707 0 3.504-1.175 9.434-2.45 8.356-5.876 12.309-5.875 6.65-8.52 7.996-14.396 9.074-29.673 9.793h-8.912q-9.989-.899-16.844-3.594-10.97-4.671-17.725-10.422-5.58-4.67-9.693-13.386" style="fill:#fff"/>
</svg>
