<svg xmlns="http://www.w3.org/2000/svg" xml:space="preserve" viewBox="-.531 -.531 576 576" role="img" aria-labelledby="title">
  <title id="title">Verkehrszeichen CE3a - Point d’information pour le tourisme ou les services.</title>
  <path fill="#fff" stroke="#000" stroke-linecap="round" stroke-linejoin="round" d="M41.496 574.438h491.947a40.99 40.99 0 0 0 40.995-40.995V41.496A40.995 40.995 0 0 0 533.442.5H41.496A40.995 40.995 0 0 0 .5 41.496v491.947a40.995 40.995 0 0 0 40.996 40.995"/>
  <path fill="#00f" stroke="#00f" stroke-linecap="round" stroke-linejoin="round" stroke-width=".176" d="M36.576 538.362h501.786V36.576h0H36.576h0z"/>
  <path fill="#fff" stroke="#00f" stroke-linecap="round" stroke-linejoin="round" stroke-width=".176" d="M88.762 88.762h397.414v397.414H88.762z"/>
  <path d="M393.469 455.469c-28.166 0-51-21.714-51-48.5v-170.5h-166v6.112a53 53 0 0 1 3.25-.112c27.579 0 49.958 21.446 50.237 48h.013v114h-.013c.001.167.013.332.013.5 0 26.786-22.833 48.5-51 48.5q-1.257-.001-2.5-.061v6.061h217.5v-4.012c-.167.001-.332.012-.5.012"/>
  <ellipse cx="285.969" cy="167.469" stroke="#00f" stroke-linecap="round" stroke-linejoin="round" stroke-width=".176" rx="61.5" ry="60"/>
</svg>
