<svg xmlns="http://www.w3.org/2000/svg" xml:space="preserve" viewBox="-.531 -.531 576 576" role="img" aria-labelledby="title">
  <title id="title">Verkehrszeichen C1b - Parking à stationnement à durée limitée (parfois appelée zone bleue). La durée de stationnement est à indiquer avec une unité en anglais (ex : 30 minutes, 2 hours, 3 days, etc.).</title>
  <path fill="#fff" stroke="#000" stroke-linecap="round" stroke-linejoin="round" d="M41.496 574.438h491.947a40.99 40.99 0 0 0 40.995-40.995V41.496A40.995 40.995 0 0 0 533.442.5H41.496A40.995 40.995 0 0 0 .5 41.496v491.947a40.995 40.995 0 0 0 40.996 40.995"/>
  <path fill="#00f" stroke="#000" d="M544.919 529.72c0 6.744-5.468 12.214-12.214 12.214H42.659c-6.746 0-12.214-5.47-12.214-12.214V41.173c0-6.746 5.468-12.214 12.214-12.214h490.046c6.746 0 12.214 5.469 12.214 12.214z"/>
  <path fill="none" stroke="#00f" stroke-linecap="round" stroke-linejoin="round" stroke-width=".176" d="M235.025 447.142v2.841h-68.984V123.755h132.196c65.001 0 117.695 52.693 117.695 117.695s-52.694 117.695-117.695 117.695h-63.212z"/>
  <path fill="none" stroke="#00f" stroke-linecap="round" stroke-linejoin="round" stroke-width=".176" d="M238.703 288.582v-86.777h38.406c24.271 0 43.945 19.675 43.945 43.946s-19.675 43.945-43.945 43.945c-12.81 0-25.617-.371-38.406-1.114"/>
  <path fill="#fff" d="M415.933 241.45c0 65.001-52.694 117.695-117.695 117.695h-63.212v90.838h-68.984V123.755h132.196c65 0 117.695 52.693 117.695 117.695m-94.878 4.301c0-24.271-19.675-43.946-43.945-43.946h-38.406v86.777a662 662 0 0 0 38.406 1.114c24.27 0 43.945-19.675 43.945-43.945"/>
  <path fill="#fff" stroke="#000" stroke-linecap="round" stroke-linejoin="round" stroke-width=".176" d="M384.698 378.18h131.557v137.669H384.698z"/>
  <path fill="#00f" stroke="#000" stroke-linecap="round" stroke-linejoin="round" stroke-width=".176" d="M472.257 433.645h30.746v25.121h-30.746zM400.78 441.01h28.036v20.296H400.78z"/>
</svg>
