<svg xmlns="http://www.w3.org/2000/svg" xml:space="preserve" viewBox="-.031 -.031 576 576" role="img" aria-labelledby="title">
  <title id="title">Verkehrszeichen CE10 - Embarcadère.</title>
  <path fill="#fff" stroke="#000" stroke-linecap="round" stroke-linejoin="round" stroke-width="2" d="M41.996 574.938h491.947a40.99 40.99 0 0 0 40.995-40.995V41.996A40.995 40.995 0 0 0 533.942 1H41.996A40.995 40.995 0 0 0 1 41.996v491.947a40.995 40.995 0 0 0 40.996 40.995"/>
  <path fill="#00f" stroke="#00f" stroke-linecap="round" stroke-linejoin="round" stroke-width=".176" d="M37.076 538.862h501.786V37.076h0H37.076h0z"/>
  <path fill="#fff" stroke="#00f" stroke-linecap="round" stroke-linejoin="round" stroke-width=".176" d="M89.262 89.262h397.414v397.414H89.262z"/>
  <path d="M423.636 170.302h-47.552l-21.115-64.666h-57.333l-21.979 64.666h-46.022v18.667h39.678l-6.344 18.667 62-29.334 62 25.334-3.918-12h40.585z"/>
  <path d="M253.635 394.969h2c29.877 2.114 44.27 23.526 75.5 7.323l1.195-.922c27.08-12.377 40.795 7.255 67.957 9.274h1.854c27.697-2.114 41.041-23.526 69.992-7.323l6.502 3.825v-9.608l-7.168-4.217c-19.894-11.133-32.423-4.513-47.299 1.407l-4.867 1.407 1.167-5.667 1.667-8 .153.146c10.136-44.533 27.254-85.092 47.135-126.431l-2.788-1.549-.106-.466-141.561-63.867-144.667 66.667c21.078 43.561 39.216 86.11 49.49 133.215-16.62 5.813-30.247 13.031-51.49 3.455v-71.67H98.969v146h79.333v-7.897c29.447 12.686 44.251-7.074 73.667-9.103h2c29.877 2.114 44.27 23.526 75.5 7.323l1.195-.922c27.081-12.377 40.796 7.255 67.957 9.274h1.854c27.698-2.114 41.041-23.526 69.993-7.323l8.168 4.805v-9.607l-8.835-5.197c-28.952-16.203-42.295 5.209-69.993 7.323h-1.854c-27.161-2.02-40.876-21.651-67.957-9.274l-1.195.922c-31.23 16.203-45.623-5.209-75.5-7.323h-2c-29.192 2.013-43.996 21.484-73 9.382v-17.333c29.004 12.104 43.808-7.369 73-9.382h2c29.877 2.114 44.27 23.526 75.5 7.323l1.195-.922c27.08-12.377 40.795 7.255 67.957 9.274h1.854c27.697-2.114 41.041-23.526 69.992-7.323l8.835 5.197v-9.608l-9.501-5.589c-28.953-16.203-42.295 5.209-69.994 7.323h-1.854c-27.16-2.02-40.875-21.651-67.957-9.274l-1.195.922c-31.23 16.203-45.623-5.209-75.5-7.323h-2c-28.969 1.997-43.765 21.195-72.333 9.662v-19.972c30.567 14.177 45.369-6.292 75.334-8.357"/>
  <path d="m377.219 300.969 2.25-2.5v-2.5l-7.488-27h-92.58l-6.932 25v2.5l2.25 2.5 3.25 2.75 2.67 1.917h93.427z"/>
  <path fill="none" d="m279.401 268.969-6.932 25v2.5l2.25 2.5 3.25 2.75 2.67 1.917h93.427l3.153-2.667 2.25-2.5v-2.5l-7.488-27z"/>
  <path fill="#fff" d="M396.719 308.044c0-2.235-1.535-4.09-3.561-4.489l-.439-.586s-1.25-.75-1.5-1.5-1-1.5-1-1.5l-1.25-3.25-8.367-32.751a6 6 0 0 0 .117-1.165c0-3.406-2.85-6.167-6.365-6.167h-96.686c-2.671 0-4.956 1.594-5.9 3.853l-.049-.021-.164.642-.058.229c-.016.063-.044.12-.058.183-.008.037-.011.076-.019.113l-8.452 33.083-1.25 3.25s-.75.75-1 1.5-1.5 1.5-1.5 1.5l-1.5 2-.137.412a4.63 4.63 0 0 0-1.488 3.413v6.1c0 .299.032.59.084.873a12.6 12.6 0 0 0-.209 2.244v19.25c0 6.011 4.157 11.017 9.667 12.137v25.238c0 3.313 3.208 6 7.167 6s7.167-2.687 7.167-6v-25h92.667v24.333c0 3.313 3.208 6 7.167 6s7.166-2.687 7.166-6v-24.571c5.51-1.12 9.667-6.126 9.667-12.137v-19.25c0-.27-.033-.53-.05-.796.079-.346.133-.7.133-1.071zm-17.25-9.575-2.25 2.5-3.152 2.667h-93.428l-2.67-1.917-3.25-2.75-2.25-2.5v-2.5l6.933-25h92.58l7.487 27z"/>
</svg>
