<svg xmlns="http://www.w3.org/2000/svg" xml:space="preserve" viewBox="-.531 -.531 576 576" role="img" aria-labelledby="title">
  <title id="title">Verkehrszeichen CE2b - Remarques :</title>
  <path fill="#fff" stroke="#000" stroke-linecap="round" stroke-linejoin="round" d="M41.496 574.438h491.947a40.99 40.99 0 0 0 40.995-40.995V41.496A40.995 40.995 0 0 0 533.442.5H41.496A40.995 40.995 0 0 0 .5 41.496v491.947a40.995 40.995 0 0 0 40.996 40.995"/>
  <path fill="#00f" stroke="#00f" stroke-linecap="round" stroke-linejoin="round" stroke-width=".176" d="M36.576 538.362h501.786V36.576h0H36.576h0z"/>
  <path fill="#fff" stroke="#00f" stroke-linecap="round" stroke-linejoin="round" stroke-width=".176" d="M88.762 88.762h397.414v397.414H88.762z"/>
  <path d="M436.372 337.515c-11.234-29.336-27.884-61.988-49.363-85.297-22.692-24.624-46.35-52.666-74.036-71.862l-19.44-13.479-45.336-28.41c-9.466-3.878-19.525-6.988-28.373-10.665-14.406-5.987-27.19-8.618-42.384-4.277-14.091 4.026-24.51 22.277-32.971 32.944l-2.667 6-.667 10.667 2.667 9.333 6.667 8.667 27.333 17.333 36 20 8.667 4 8 2 6-2 4-2 28.297-27.093 19.929 22.085a52 52 0 0 0 2.771 3.486c8.544 9.81 16.339 18.99 26.47 27.095 18.604 14.882 34.366 31.744 53.866 45.761l-29.235 27.936c-2.513 2.401-8.603 5.79-7.752 9.62.888 3.994.53 11.021 2.651 14.285l23.831 36.664c5.901 9.079 11.43 21.853 19.172 29.495 10.343 10.211 22.23 8.478 33.086 1.454 7.469-4.833 21.266-10.671 26.066-18.217 14.383-22.607 5.574-42.487-3.249-65.525"/>
</svg>
