<svg xmlns="http://www.w3.org/2000/svg" xml:space="preserve" viewBox="-.322 -.549 576 576" role="img" aria-labelledby="title">
  <title id="title">Verkehrszeichen C113 - C113</title>
  <path fill="#fff" stroke="#000" stroke-linecap="round" stroke-linejoin="round" stroke-width="2" d="M41.496 574.438h491.946a40.99 40.99 0 0 0 40.995-40.995V41.496A40.993 40.993 0 0 0 533.442.5H41.496a41 41 0 0 0-28.988 12.007A41 41 0 0 0 .5 41.496v491.946a40.994 40.994 0 0 0 40.996 40.996"/>
  <path fill="#00f" stroke="#000" d="M544.92 529.72c0 6.744-5.469 12.214-12.215 12.214H42.658c-6.745 0-12.213-5.47-12.213-12.214V41.173c0-6.746 5.468-12.214 12.213-12.214h490.047c6.746 0 12.215 5.469 12.215 12.214z"/>
  <path d="M198.223 146.697c-22.577-.764-29.213 29.03-12.062 34.898l16.595 6.187-21.292 62.334a82.201 82.189 0 0 0-33.196-7.109 82.201 82.189 0 0 0-82.202 82.19 82.201 82.189 0 0 0 82.202 82.19 82.201 82.189 0 0 0 82.203-82.19 82.201 82.189 0 0 0-36.441-68.2l6.384-18.476 78.12 86.71a26.792 26.789 0 0 0-2.57 11.373 26.792 26.789 0 0 0 26.747 26.788l3.172 18.404-7.182 1.236 2.002 11.661 25.615-4.408-2.009-11.66-6.325 1.085-3.29-19.137a26.792 26.789 0 0 0 14.233-18.319l19.997-1.386a82.201 82.189 0 0 0 80.665 66.52 82.201 82.189 0 0 0 82.202-82.19 82.201 82.189 0 0 0-82.202-82.19 82.201 82.189 0 0 0-37.18 8.979l-31.345-45.467 7.228-21.34c9.987-2.421 18.935-4.69 22.737-9.353 5.354-6.567-1.726-15.75-12.749-15.487h-43.616c-9.594-.134-13.254 9.875-7.3 13.328l26.184 10.694-4.971 14.689H214.052l3.474-10.046-.02-.007 2.923-9.62c-9.807-4.427-30.628-6.875-27.865-14.683.824-8.64 31.44-3.53 41.83-5.625v-12.374h-36.172zm11.008 66.31h135.081l-33.222 98.155a26.792 26.789 0 0 0-5.102-1.131l-3.035-17.659 6.227-1.072-2.008-11.661-25.609 4.408 2.008 11.654 7.274-1.249 2.917 16.94a26.792 26.789 0 0 0-3.604 1.595L206.7 220.34zm146.594 13.336 23.43 33.996a82.201 82.189 0 0 0-31.868 64.859 82.201 82.189 0 0 0 .007.183l-19.735 1.367a26.792 26.789 0 0 0-3.65-6.423zm-207.557 29.352a69.508 69.498 0 0 1 29.082 6.462l-14.626 42.825c-.878 3.146-4.01 5.146-6.986 7.194a15.07 15.07 0 0 0-8.13-2.4 15.07 15.07 0 0 0-15.071 15.068 15.07 15.07 0 0 0 15.07 15.069 15.07 15.07 0 0 0 15.071-15.069 15 15 0 0 0-.137-1.844c5.697-3.616 10.977-7.922 12.271-10.399l14.894-43.106a69.508 69.498 0 0 1 28.075 55.703 69.508 69.498 0 0 1-69.513 69.495 69.508 69.498 0 0 1-69.506-69.495 69.508 69.498 0 0 1 69.506-69.503m281.32 0a69.508 69.498 0 0 1 69.513 69.503 69.508 69.498 0 0 1-69.512 69.495 69.508 69.498 0 0 1-67.825-54.715l57.457-3.983a15.07 15.07 0 0 0 10.793 4.552 15.07 15.07 0 0 0 15.07-15.068 15.07 15.07 0 0 0-12.212-14.788l-33.196-48.161a69.508 69.498 0 0 1 29.913-6.835m-43.17 15.03 31.534 45.748a15 15 0 0 0-2.198 4.166l-55.638 3.859a69.508 69.498 0 0 1 26.301-53.773" style="fill:#f9f9f9;stroke:none;stroke-width:2.16587019"/>
</svg>
