<svg xmlns="http://www.w3.org/2000/svg" xml:space="preserve" viewBox="-.031 -.031 576 576" role="img" aria-labelledby="title">
  <title id="title">Verkehrszeichen CE12 - Toilettes.</title>
  <path fill="#fff" stroke="#000" stroke-linecap="round" stroke-linejoin="round" stroke-width="2" d="M41.996 574.938h491.947a40.99 40.99 0 0 0 40.995-40.995V41.996A40.995 40.995 0 0 0 533.942 1H41.996A40.995 40.995 0 0 0 1 41.996v491.947a40.995 40.995 0 0 0 40.996 40.995"/>
  <path fill="#00f" stroke="#00f" stroke-linecap="round" stroke-linejoin="round" stroke-width=".176" d="M37.076 538.862h501.786V37.076h0H37.076h0z"/>
  <path fill="#fff" d="M298.969 83.469h198v408.5h-198zM82.469 83.469h198v408.5h-198z"/>
  <path d="m254.778 288.175-37.463-85.107c-.586-1.332-1.604-2.362-2.869-3.049-6.174-6.026-13.987-10.335-22.477-11.816v-12.239c9.265-4.423 15.667-13.877 15.667-24.829 0-15.187-12.312-27.5-27.5-27.5s-27.5 12.313-27.5 27.5c0 10.819 6.25 20.174 15.333 24.664v12.462c-7.734 1.763-14.829 5.863-20.528 11.424-1.265.687-2.283 1.717-2.869 3.049l-37.463 85.107c-1.623 3.688.644 8.251 5.063 10.197s9.316.534 10.939-3.153l29.326-66.622 5.147 1.029-5.767 20.342-29.483 104h31.301v86.002c0 5.707 5.223 10.333 11.667 10.333 6.443 0 11.667-4.626 11.667-10.333v-86.002h8.333v86.335c0 5.707 5.223 10.333 11.667 10.333 6.443 0 11.667-4.626 11.667-10.333v-86.335h31.634l-29.483-104-5.716-20.162 4.379-.876 29.326 66.623c1.623 3.688 6.52 5.1 10.939 3.152 4.419-1.945 6.686-6.508 5.063-10.196M480.608 284.93l-34.64-78.119c-1.794-9.726-11.339-17.361-23.333-18.634v-.208h-10V174.9c8.172-4.768 13.666-13.621 13.666-23.764 0-15.187-12.312-27.5-27.501-27.5-15.188 0-27.499 12.313-27.499 27.5 0 10.552 5.945 19.711 14.667 24.323v12.511h-5.144a33 33 0 0 0-4.69-.333c-13.618 0-24.895 8.177-26.861 18.842l-34.64 78.12c-2.054 4.634.602 10.306 5.931 12.669 5.33 2.364 11.316.522 13.371-4.11l28.479-64.225a30.5 30.5 0 0 0 5.222 1.918v71.333l-37.342 129.358c-2.098 7.266 2.767 15.049 10.863 17.386 8.096 2.338 16.36-1.655 18.458-8.921l36.094-125.037h6.217l36.094 125.037c2.098 7.266 10.362 11.259 18.458 8.921 8.097-2.337 12.961-10.12 10.863-17.386l-37.726-130.688a12 12 0 0 0-.646-1.701V230.78a30 30 0 0 0 3.859-1.515l28.479 64.225c2.055 4.633 8.041 6.475 13.371 4.109 5.329-2.363 7.984-8.035 5.93-12.669"/>
</svg>
