<svg xmlns="http://www.w3.org/2000/svg" xml:space="preserve" viewBox="-.322 -.549 576 576" role="img" aria-labelledby="title">
  <title id="title">Verkehrszeichen C24a - Remarques :</title>
  <path fill="#fff" stroke="#000" stroke-linecap="round" stroke-linejoin="round" d="M41.496 574.438h491.946a40.99 40.99 0 0 0 40.995-40.995V41.496A40.995 40.995 0 0 0 533.442.5H41.496A40.993 40.993 0 0 0 .5 41.496v491.947a40.993 40.993 0 0 0 40.996 40.995"/>
  <path fill="#00f" stroke="#000" d="M544.919 529.72c0 6.744-5.468 12.214-12.214 12.214H42.658c-6.745 0-12.213-5.47-12.213-12.214V41.173c0-6.746 5.468-12.214 12.213-12.214h490.047c6.746 0 12.214 5.469 12.214 12.214z"/>
  <path fill="#fff" d="m400.574 93.969-23.221-40.222-23.222 40.222-23.221 40.221h27.559v378.779h38V134.19h27.326zM178.678 129.451h36v78h-36z"/>
  <ellipse cx="131.553" cy="308.995" fill="#fff" rx="39.75" ry="39"/>
  <ellipse cx="131.552" cy="308.495" fill="#00f" rx="33.084" ry="32.461"/>
  <ellipse cx="264.303" cy="308.745" fill="#fff" rx="39.75" ry="39"/>
  <ellipse cx="264.302" cy="308.245" fill="#00f" rx="33.084" ry="32.461"/>
  <ellipse cx="204.303" cy="314.245" fill="#fff" rx="12.25" ry="11.5"/>
  <path fill="#fff" d="M168.93 224.245c-6.996-.19-17.771-1.033-21.127 4-5.978 8.966 1.737 13.671 9.5 16l-11.881 37.941c-3.25 10.38-5.677 17.672-14.119 25.059 11.807 5.06 16.972-17.027 19.7-24.514l15.3-41.986-12.752-4.25c-2.37-.79-.189-5.75 2.432-5.75h12.32v.5h4.5v-7z"/>
  <path fill="#fff" d="M159.803 248.245h70v6.5h-70z"/>
  <path fill="#fff" d="m228.303 243.245-21 66.5 4.5 3.5 23.5-69 4-2 5.5-1.5 3-3.5-.5-2.5-1.5-3.5-2-1-26 .5-3.5 2.5 1.5 3.5z"/>
  <path fill="#fff" d="m229.803 248.245 36.5 58.5-3.5 1.5-37-51zM206.803 311.245l53.5-4 3 4.5-54 6z"/>
  <ellipse cx="264.303" cy="308.245" fill="#fff" rx="7" ry="6.75"/>
  <ellipse cx="131.303" cy="307.245" fill="#fff" rx="7" ry="6.75"/>
  <path fill="#fff" d="m155.916 258.078 46.22 51.096-3.406 5.404-44.76-49.13zM203.43 336.868l11.408-1.438.454 3.598-11.41 1.437z"/>
  <path fill="#fff" stroke="#fff" stroke-width="5" d="m200.303 290.745 9 46.5"/>
  <path fill="#fff" d="m193.931 289.032 11.41-1.437.453 3.597-11.41 1.438zM217.678 357.451h-36v71.778h-30.559l23.221 40.222 23.222 40.222 23.221-40.222 23.221-40.222h-26.326z"/>
</svg>
