<svg xmlns="http://www.w3.org/2000/svg" xml:space="preserve" viewBox="-.322 -.549 576 576" role="img" aria-labelledby="title">
  <title id="title">Verkehrszeichen C111 - Entrée d'un tunnel / Sortie d'un tunnel</title>
  <path fill="#fff" stroke="#000" stroke-linecap="round" stroke-linejoin="round" d="M41.496 574.438h491.946a40.99 40.99 0 0 0 40.995-40.995V41.496A40.993 40.993 0 0 0 533.442.5H41.496a41 41 0 0 0-28.988 12.008A40.99 40.99 0 0 0 .5 41.496v491.946c0 10.873 4.318 21.3 12.008 28.988a41 41 0 0 0 28.988 12.008"/>
  <path fill="#00f" stroke="#000" d="M544.919 529.72c0 6.744-5.468 12.214-12.214 12.214H42.658c-6.745 0-12.213-5.47-12.213-12.214V41.174c0-6.746 5.468-12.215 12.213-12.215h490.047c6.746 0 12.214 5.469 12.214 12.215z"/>
  <path fill="#fff" d="M179.773 454.456h-.092v-144h.054a91 91 0 0 1-.054-3c0-54.677 48.801-99 109-99 60.2 0 109 44.323 109 99q-.002 1.505-.055 3h.555v144h-.919v2h100.419l-2-208-90-132h-230l-98 130 2 210h100.092z"/>
  <path fill="none" stroke="#00f" stroke-width="4" d="M63.787 391.504h467.977M50.292 321.007H513.77M74.286 240.012 195.78 288.01M116.284 177.015l95.995 76.496M167.282 111.019l74.995 121.494M248.277 105.019l22.5 113.994M327.773 102.019l-20.998 115.494M414.77 102.019l-74.997 130.494M464.268 177.015l-97.497 77.996M500.266 243.012 384.771 286.51"/>
</svg>
