<svg xmlns="http://www.w3.org/2000/svg" xml:space="preserve" viewBox="0 0 576 576" role="img" aria-labelledby="title">
  <title id="title">Verkehrszeichen CE2a - Remarques :</title>
  <path d="M41.496 574.438h491.947a40.995 40.995 0 0 0 40.994-40.995V41.496A40.993 40.993 0 0 0 533.442.5H41.496A40.994 40.994 0 0 0 .5 41.496v491.946a40.995 40.995 0 0 0 40.996 40.996" style="fill:#fff;stroke:#000;stroke-linecap:round;stroke-linejoin:round"/>
  <path d="M36.576 538.362h501.786V36.576h0H36.576h0z" style="fill:#00f;stroke:#00f;stroke-width:.1764;stroke-linecap:round;stroke-linejoin:round"/>
  <path d="M88.762 88.762h397.414v397.414H88.762z" style="fill:#fff;stroke:#00f;stroke-width:.1764;stroke-linecap:round;stroke-linejoin:round"/>
  <path d="M436.372 337.515c-11.234-29.336-27.884-61.988-49.363-85.297-22.692-24.624-46.35-52.666-74.036-71.862q-9.72-6.739-19.439-13.479l-45.336-28.41c-9.466-3.878-19.525-6.988-28.373-10.665-14.406-5.987-27.19-8.618-42.384-4.277-14.091 4.026-24.51 22.277-32.971 32.944l-2.667 6-.667 10.667 2.667 9.333 6.667 8.667 27.333 17.333 36 20 8.667 4 8 2 6-2 4-2 28.297-27.093 19.929 22.085a51 51 0 0 0 2.771 3.485c8.544 9.811 16.339 18.99 26.47 27.096 18.604 14.882 34.366 31.744 53.866 45.761l-29.235 27.936c-2.512 2.401-8.603 5.79-7.752 9.62.889 3.994.531 11.021 2.651 14.285l23.831 36.664c5.901 9.079 11.43 21.853 19.172 29.495 10.344 10.211 22.23 8.478 33.086 1.454 7.47-4.833 21.267-10.671 26.066-18.218 14.382-22.606 5.573-42.486-3.25-65.524"/>
  <path d="M116.266 377.183h233v125h-233z" style="fill:none"/>
  <path d="M118.75 432.12v-.094q0-.516 1.078-.703 8.297-2.672 10.781-3.844 1.266 1.734 3.328 3.141a17.7 17.7 0 0 0 7.125 2.391q4.031.094 5.016-.188 4.64-1.313 5.719-2.672 1.078-.938 1.875-4.547.187-1.406-.375-3.141-.703-1.172-1.5-1.969l-1.594-1.219-1.781-.797q-14.86-4.64-16.359-5.438-6.891-2.766-10.266-9.141-2.203-4.266-1.969-10.359.89-7.594 6.234-12.047 6-4.359 12.516-4.734h1.219q4.64 0 7.688.703 6.187 1.735 9.656 4.828 3.47 2.86 5.719 7.781l-.141.516-9.656 4.641-.469-.234q-.891-2.859-5.016-4.641-4.641-1.735-10.875-.094-2.672.89-3.75 2.297-.376.375-.984 2.344-.094 2.297.188 2.672.61 1.594 2.438 2.859l1.219.516q13.312 3.937 18.047 5.719 4.079 1.875 6.234 4.125l2.625 3.563q2.907 4.828 3.094 10.547.047.375.047.891 0 1.828-.563 4.922-1.172 4.36-2.813 6.422-2.812 3.469-4.078 4.172-6.89 4.734-14.203 5.109h-4.266q-4.782-.47-8.063-1.875-5.25-2.438-8.484-5.438-2.672-2.436-4.641-6.984zM171.672 431.98h14.063v14.156h-14.063zM222.813 376.573q11.344 1.734 16.781 13.406 4.641 8.625 4.641 21.188v.844q0 15.703-7.641 26.719-5.438 7.406-15.375 8.297-1.031.094-2.016.094-10.313 0-17.297-8.719-7.219-11.625-7.313-23.859a46 46 0 0 1-.047-2.063q0-16.547 7.359-27.375 4.921-5.906 10.266-7.547 3.703-1.172 7.406-1.172 1.642 0 3.236.187zm-3.61 58.547q5.437-.282 9.188-7.453 2.718-4.781 3.422-14.063.14-11.812-4.172-19.359-3.516-5.25-7.781-5.859-5.625.282-9.375 7.359-2.672 4.97-3.469 14.25-.094 11.813 4.266 19.313 3.468 5.25 7.921 5.812zM250.844 431.98h14.063v14.156h-14.063zM273.203 432.12v-.094q0-.516 1.078-.703 8.297-2.672 10.781-3.844 1.266 1.734 3.328 3.141a17.7 17.7 0 0 0 7.125 2.391q4.031.094 5.016-.188 4.64-1.313 5.719-2.672 1.079-.938 1.875-4.547.187-1.406-.375-3.141-.704-1.172-1.5-1.969l-1.594-1.219-1.781-.797q-14.859-4.64-16.359-5.438-6.891-2.766-10.266-9.141-2.203-4.266-1.969-10.359.89-7.594 6.234-12.047 6-4.359 12.516-4.734h1.219q4.64 0 7.688.703 6.188 1.735 9.656 4.828 3.47 2.86 5.719 7.781l-.141.516-9.656 4.641-.469-.234q-.891-2.859-5.016-4.641-4.641-1.735-10.875-.094-2.671.89-3.75 2.297-.375.375-.984 2.344-.094 2.297.188 2.672.61 1.594 2.438 2.859l1.219.516q13.313 3.937 18.047 5.719 4.079 1.875 6.234 4.125l2.625 3.563q2.907 4.828 3.094 10.547.047.375.047.891 0 1.828-.563 4.922-1.172 4.36-2.813 6.422-2.812 3.469-4.078 4.172-6.89 4.734-14.203 5.109h-4.266q-4.781-.47-8.063-1.875-5.25-2.438-8.484-5.438-2.671-2.436-4.641-6.984z" style="stroke:#000;stroke-width:3;stroke-miterlimit:10"/>
</svg>
