<svg xmlns="http://www.w3.org/2000/svg" xml:space="preserve" viewBox="-.031 -.031 576 576" role="img" aria-labelledby="title">
  <title id="title">Verkehrszeichen CE15a - Remarques :</title>
  <path fill="#fff" stroke="#000" stroke-linecap="round" stroke-linejoin="round" stroke-width="2" d="M41.996 574.938h491.947a40.99 40.99 0 0 0 40.995-40.995V41.996A40.995 40.995 0 0 0 533.942 1H41.996A40.995 40.995 0 0 0 1 41.996v491.947a40.995 40.995 0 0 0 40.996 40.995"/>
  <path fill="#00f" stroke="#00f" stroke-linecap="round" stroke-linejoin="round" stroke-width=".176" d="M37.076 538.862h501.786V37.076h0H37.076h0z"/>
  <path fill="#fff" stroke="#00f" stroke-linecap="round" stroke-linejoin="round" stroke-width=".176" d="M89.262 89.262h397.414v397.414H89.262z"/>
  <path fill="#fff" d="M233.469 157.469h117.5v79.5h-117.5z"/>
  <path fill="none" d="M233.469 157.469h117.5v79.5h-117.5zM189.302 396.381c1.537 3.206 4.675 5.404 8.302 5.404 3.656 0 6.816-2.234 8.338-5.482h-.307V269.469h15.333v.5h6.174l-.063-4.5h-22.612v-50.521l-15.167 9.595v171.838z"/>
  <path d="M205.969 269.969h15v-.5h-15.333v126.834h.307c-1.522 3.248-4.682 5.482-8.338 5.482-3.627 0-6.766-2.198-8.302-5.404V224.543l15.167-9.595v-47.252l-31.167 47.939v181.333h.22c.787 10.79 11.111 19.333 23.738 19.333 13.14 0 23.792-9.25 23.792-20.657 0-.546-.034-1.084-.082-1.618V284.469h-15v-14.5z"/>
  <path d="M205.969 269.635h14.667v19h-14.667z"/>
  <path fill="none" d="M233.469 157.469h117.5v79.5h-117.5z"/>
  <path d="M379.469 265.469v-136h-175v136h22.612l.054 3.833h-20.832v.667h-.333v14.5h21.376l1.983 142h-24.86v29.5h175v-29.5h-25.956l6.492-161zm-28.5-28.5h-117.5v-79.5h117.5z"/>
</svg>
