<svg xmlns="http://www.w3.org/2000/svg" xml:space="preserve" viewBox="0 -.031 597.219 599.938" role="img" aria-labelledby="title">
  <title id="title">Verkehrszeichen C26b - Remarques :</title>
  <path d="M43.515 598.908h510.183a42.42 42.42 0 0 0 30.063-12.508 42.8 42.8 0 0 0 12.452-30.201V43.679a42.8 42.8 0 0 0-12.452-30.2A42.42 42.42 0 0 0 553.698.97H43.515c-11.275 0-22.09 4.5-30.062 12.51A42.8 42.8 0 0 0 1 43.68V556.2a42.8 42.8 0 0 0 12.453 30.2 42.42 42.42 0 0 0 30.062 12.509" style="fill:#fff;stroke:#000;stroke-width:2;stroke-linecap:round;stroke-linejoin:round"/>
  <path d="M43.458 553.011h510.084V42.927H43.458z" style="fill:#039;fill-opacity:1;stroke:none" transform="translate(0 -.03)"/>
  <path d="M346 232.049v172.363l-3-13.363c-32.987-118.685-89.874-229.99-174.077-320H63.5l4.5 4c123.847 123.603 193.397 290.607 217.574 462H385v-305z" style="fill:#fff;stroke:none"/>
  <path d="M327.333 100.716h77.334v140.667h-77.334z" style="fill:#fff;stroke:none"/>
  <path d="M335 129.726h19.334v17.311H335zM335 164.027h19.334v15.979H335zM335 195.737h19.334v17.312H335zM376.333 129.726h19.334v17.311h-19.334zM376.333 164.027h19.334v15.979h-19.334zM376.333 195.736h19.334v17.312h-19.334zM356.334 109.726h19.334v17.978h-19.334zM355.667 147.35h19.334v16.646h-19.334zM355.667 179.726h19.334v15.979h-19.334zM356.334 213.726h19.334v17.979h-19.334z" style="fill:#d40000;fill-opacity:1;stroke:#d40000;stroke-width:1;stroke-opacity:1"/>
  <path d="M334.668 109.049h61.333v122.667h-61.333z" style="fill:none;stroke:#d40000;stroke-width:4;stroke-opacity:1"/>
</svg>
