<svg xmlns="http://www.w3.org/2000/svg" xml:space="preserve" viewBox="-.031 -.031 576 567" role="img" aria-labelledby="title">
  <title id="title">Verkehrszeichen CE25 - Remarques :</title>
  <path fill="#fff" stroke="#000" stroke-linecap="round" stroke-linejoin="round" stroke-width="2" d="M41.996 565.938h491.947c10.872 0 21.3-4.251 28.988-11.818 7.688-7.568 12.007-17.831 12.007-28.534V41.353c0-10.702-4.319-20.966-12.007-28.534C555.242 5.251 544.814 1 533.942 1H41.996c-10.873 0-21.3 4.251-28.988 11.819C5.319 20.387 1 30.651 1 41.353v484.232c0 10.703 4.319 20.966 12.007 28.534s18.116 11.819 28.989 11.819"/>
  <path fill="#00f" stroke="#00f" stroke-linecap="round" stroke-linejoin="round" stroke-width=".176" d="M37.076 529.862h501.786V28.076h0H37.076h0z"/>
  <path fill="#fff" stroke="#00f" stroke-linecap="round" stroke-linejoin="round" stroke-width=".176" d="M89.262 80.262h397.414v397.414H89.262z"/>
  <path d="M401.719 239.969c0 6.627-5.373 12-12 12h-207.25c-6.627 0-12-5.373-12-12v-120c0-6.627 5.373-12 12-12h207.25c6.627 0 12 5.373 12 12z"/>
  <path fill="none" stroke="#999" stroke-linecap="round" stroke-linejoin="round" stroke-width="3" d="M382.869 402.401c-31.495 9.544-63.165 20.043-96.358 24.06-34.024 4.118-72.251 5.78-106.592 6.613l-9.45-83.105c32.7 3.729 66.852 8.587 99.845 4.878 35.899-4.034 68.857-12.554 101.732-25.772l.902 17.346c.45 8.674 3.157 20.501 5.861 34.299 2.707 13.798 4.06 21.681 4.06 21.681"/>
  <path fill="none" stroke="#000" stroke-linecap="round" stroke-linejoin="round" stroke-width="3" d="m188.219 343.719 2.014-25.25s18.125 7.521 45.314 12.894c27.188 5.372 60.922 11.819 60.922 11.819M387.469 356.969l25 3s-5 13-8 30-7.5 31-9 48.5-1 19.5-1 19.5-43-10-65-13-43-5.5-43-5.5"/>
  <path d="M246.59 411.874c1.379 1.095 3.379 3.095 2.379 5.095-3 5-9 8-13.821 7.324-2.251.271-4.539.319-6.845.266-6.917-.159-13.999-1.229-20.664.133-2.611.222-5.17.61-7.67 1.277a32.2 32.2 0 0 1 1.856-7.468c2.072-7.767 8.357-13.399 13.75-19.216 1.798-1.938 3.496-3.898 4.906-5.963 2.487-5.354 4.487-9.354 3.487-14.354 0-2-1.75-3.5-4-4.125s-5-.375-7 1.125c-4 4-10 16-15 7-4-6 4-12 10-16 5-2.5 10.75-3.25 15.875-2.25 2.563.5 4.97 1.438 7.054 2.814 17.071 11.436 3.071 30.436-7.196 40.412-1.761 2.023-3.4 4.023-4.733 6.023 4 0 7.75-.5 11.52-.983 3.77-.484 7.589-.943 11.662-.881 2.653-.143 4.44-.229 4.44-.229M272.821 363.189c10.147-1.221 18.147 3.779 22.147 12.779 5 12 8 27-1 38-10 13-32 7-38-8-5-13-11-36 7.519-40.835 2.746-1.04 5.867-1.682 9.334-1.944m.81 8.614c-6.662 2.166-9.662 10.166-8.662 16.166 2 10 8 29 17 22 10-8 6-26-3.914-37.347q-1.99-1.033-4.424-.819M373.303 383.969c-4.881 14.271-20.989 14.112-28.809 4.832 1.62-.607 3.311-1.175 5.142-1.498 5.667-1 15.667-6 15.667-6l-.667-6.334s-4.667 2.667-13.333 5.667c-7.333 2.539-5.361 2.213-9.832 3.063a19.2 19.2 0 0 1-1.168-4.729c1.697-.435 3.528-.993 5.666-1.668 6.333-2 19-8.667 19-8.667l.334-8s-9.667 4.333-19 8c-1.691.665-3.597 1.271-5.58 1.824 2.637-11.919 13.693-20.44 26.58-15.491l-.667-12.666c-14.558 3.449-30.19 6.223-35.493 23.879a53 53 0 0 0-1.575 6.772c-3.446.62-6.382 1.035-7.989 1.227-.686.081-1.132.122-1.275.122l1.333 4.333s2.944.801 7.389 1.207c.023 1.998.214 3.881.563 5.642-3.543.271-5.619.151-5.619.151l.667 5.333s3.054.001 6.772.16c6.689 14.419 26.252 17.245 43.561 6.489z"/>
  <path fill="none" stroke="#999" stroke-linecap="round" stroke-linejoin="round" stroke-width="3" d="m194.969 345.219 2.75-17s20 6.5 34 9.25 43.75 9 43.75 9M312.219 433.969s19.5 2.25 39.75 6 34.75 8.75 34.75 8.75-.25-11.25 4-28 6.25-32 9.25-41.75 4.75-12.25 4.75-12.25l-15.75-1"/>
  <path fill="none" stroke="#000" stroke-linecap="round" stroke-linejoin="round" stroke-width="3" d="M394.969 407.469c-34.92 12.105-70.034 25.42-106.837 30.516-37.726 5.224-76.087 5.427-114.163 6.484l-14.5-103.5c36.256 4.729 74.123 10.892 110.704 6.188 39.804-5.118 76.346-15.922 112.796-32.688l1 22c.5 11 3.5 26 6.5 43.5s4.5 27.5 4.5 27.5"/>
  <path fill="#fff" d="M283.969 180.469h-43v-8h43v-7.816c.237-1.025.375-2.087.375-3.184 0-7.619-6.037-13.823-13.625-14.212v-.288h-62v.019c-7.765.199-14 6.487-14 14.231 0 .892.092 1.762.25 2.609v30.532c-.158.847-.25 1.717-.25 2.609 0 7.745 6.235 14.032 14 14.231v.019h62v-.288c7.588-.389 13.625-6.593 13.625-14.212 0-1.097-.138-2.159-.375-3.184zM377.969 159.594c0-7.123-5.676-12.906-12.75-13.106v-.019h-74.5v26.25h74.5v-.019c7.074-.2 12.75-5.983 12.75-13.106M377.469 196.344c0-8.073-5.676-14.626-12.75-14.854v-.021h-74.5v29.75h74.5v-.021c7.074-.228 12.75-6.781 12.75-14.854"/>
  <path d="M284.844 269.469h35.926l-17.963 19.875-17.963 19.875-17.963-19.875-17.964-19.875z"/>
</svg>
