<svg xmlns="http://www.w3.org/2000/svg" xml:space="preserve" viewBox="-.063 -.031 598 600" role="img" aria-labelledby="title">
  <title id="title">Verkehrszeichen C13a - Le panneau indique à l’entrée d’une rue que celle-ci est en impasse et imposera un demi-tour pour en resortir au même endroit. L’impasse peut souvent comporter des embranchements au delà du point où e</title>
  <path fill="#fff" stroke="#000" stroke-linecap="round" stroke-linejoin="round" stroke-width="2" d="M43.515 598.938h510.183a42.42 42.42 0 0 0 30.063-12.508 42.8 42.8 0 0 0 12.452-30.201V43.71a42.8 42.8 0 0 0-12.452-30.2A42.42 42.42 0 0 0 553.698 1H43.515C32.24 1 21.425 5.5 13.453 13.51A42.8 42.8 0 0 0 1 43.71v512.519a42.8 42.8 0 0 0 12.453 30.201 42.42 42.42 0 0 0 30.062 12.508"/>
  <path fill="#00f" stroke="#00f" stroke-linecap="round" stroke-linejoin="round" stroke-width=".709" d="M33.194 564.212h530.488V33.725H33.194z"/>
  <path fill="#fff" stroke="#00f" stroke-linecap="round" stroke-linejoin="round" stroke-width=".709" d="M348.418 521.393h-84.433V216.225h-67.477V79.851h211.231V216.57h-60.793z"/>
  <path fill="#fc0000" d="M210.246 202.172h187.276V91.517H210.526z"/>
</svg>
