<svg xmlns="http://www.w3.org/2000/svg" xml:space="preserve" viewBox="-.322 -.549 575 575" role="img" aria-labelledby="title">
  <title id="title">Verkehrszeichen C20a - Voir aussi le panneau A13b</title>
  <rect width="573" height="573" x=".678" y=".451" ry="40.973" style="display:inline;fill:#fff;fill-opacity:1;stroke:#000;stroke-width:2;stroke-linecap:round;stroke-linejoin:round;stroke-miterlimit:4;stroke-dasharray:none;stroke-opacity:1"/>
  <rect width="518.102" height="518.102" x="28.127" y="27.9" ry="13.524" style="fill:#0056a4;fill-opacity:1;stroke:none;stroke-width:1.99651;stroke-linecap:round;stroke-linejoin:round;stroke-miterlimit:4;stroke-dasharray:none;stroke-opacity:1"/>
  <path d="M523.98 482.27H50.376L287.178 72.12Z" style="fill:#fff;stroke-width:1.05796"/>
  <path d="M127.082 376.912 82.965 463.38h44.6l34.843-86.468zM199.31 376.912l-25.184 86.468h44.329l7.676-38.692c-3.288.683-6.802.399-10.08-1.064-8.313-3.711-12.092-13.58-8.38-21.895l11.075-24.817zM269.731 376.912l-5.978 86.468h46.85l-5.978-86.468zM360.408 376.912l16.01 22.036c5.351 7.366 3.697 17.803-3.67 23.155v.002c-7.366 5.351-17.803 3.696-23.155-3.67-1.03-1.418-2.466-3.477-3.616-5.083l9.925 50.028h44.327l-25.183-86.468zM411.947 376.912l34.843 86.468h44.601l-44.118-86.468z" style="fill:#000;stroke:none;stroke-width:1.50037px;stroke-linecap:butt;stroke-linejoin:miter;stroke-opacity:1"/>
  <path d="M299.403 200.75c-2.149 0-5.283 1.399-7.004 2.387l-13.267 7.617c-1.381.793-2.695 1.81-3.665 2.999l-32.593 39.933-30.171 21.747a8.85 8.85 0 0 0-2.008 12.357c2.86 3.966 8.195 4.569 12.358 2.005 17.336-10.68 33.332-24.163 46.281-37.872l4.028 39.32-34.092 50.628a12.3 12.3 0 0 0-1.029 1.858l-26.667 59.742c-2.77 6.205.017 13.48 6.222 16.25 6.204 2.769 13.479-.016 16.249-6.22l27.874-60.618 29.348-36.29 19.844 39.227s27.627 40.403 41.94 60.102c3.994 5.497 11.687 6.716 17.184 2.723s6.716-11.687 2.723-17.184l-40.094-55.183-17.99-50.25 1.524-52.305 22.966 18.5 7.03 34.73c.97 4.792 5.724 7.829 10.505 6.808a8.85 8.85 0 0 0 6.807-10.508l-7.704-36.053a8.85 8.85 0 0 0-2.303-4.317l-47.756-49.19c-1.463-1.463-3.914-2.944-6.54-2.944" style="color:#000;fill:#000;stroke-width:8.55209;stroke-linecap:round;stroke-linejoin:round;-inkscape-stroke:none"/>
  <circle cx="279.229" cy="179.098" r="21.421" style="fill:#000;stroke-width:40.4749;stroke-linecap:round;stroke-linejoin:round;stroke-dashoffset:6.67087;paint-order:stroke fill markers"/>
</svg>
