<svg xmlns="http://www.w3.org/2000/svg" xml:space="preserve" viewBox="-.781 -.597 573.939 374.308" role="img" aria-labelledby="title">
  <title id="title">Verkehrszeichen G1 - Remarques : Passage à niveau sans barrière ni demi-barrière</title>
  <path d="M24.173-.597h524.031a24.955 24.955 0 0 1 24.954 24.954v324.4a24.954 24.954 0 0 1-24.954 24.954H24.173A24.954 24.954 0 0 1-.781 348.757v-324.4A24.954 24.954 0 0 1 24.173-.597" style="fill:#b9b9b9;stroke:none"/>
  <path d="m43.781 80.051 439.93 282.828 56.088-13.277-11.204-56.54L88.665 10.235 32.578 23.512z" style="color:#000;fill:#fff;fill-opacity:1;fill-rule:nonzero;stroke:none;stroke-width:1;marker:none;visibility:visible;display:inline;overflow:visible"/>
  <path d="m526.522 293.513-43.263 67.293-33.646-21.631 43.262-67.293zm-67.293-43.262-43.263 67.293-33.646-21.631 43.262-67.294zm-67.293-43.263-43.263 67.293-33.646-21.63 43.262-67.294zm-67.294-43.262-43.262 67.293-33.646-21.631 43.262-67.293zm-67.293-43.263-43.262 67.294-33.647-21.632 43.263-67.293zm-67.293-43.262-43.262 67.293-33.647-21.631L156.41 55.57zm-67.293-43.262-43.262 67.293L45.854 79.6l43.263-67.294z" style="color:#000;fill:#c4121e;fill-opacity:.98823738;fill-rule:nonzero;stroke:none;stroke-width:1;marker:none;visibility:visible;display:inline;overflow:visible"/>
  <path d="M528.595 80.051 88.665 362.88l-56.088-13.277 11.204-56.54 439.93-282.827 56.088 13.277z" style="color:#000;fill:#fff;fill-opacity:1;fill-rule:nonzero;stroke:none;stroke-width:1;marker:none;visibility:visible;display:inline;overflow:visible"/>
  <path d="m45.854 293.513 43.263 67.293 33.646-21.631-43.262-67.293zm67.293-43.262 43.263 67.293 33.646-21.631-43.262-67.294zm67.293-43.263 43.263 67.293 33.646-21.63-43.262-67.294zm67.294-43.262 43.262 67.293 33.646-21.631-43.262-67.293zm67.293-43.263 43.262 67.294 33.647-21.632-43.263-67.293zm67.293-43.262 43.262 67.293 33.647-21.631-43.263-67.293zm67.293-43.262 43.262 67.293L526.522 79.6l-43.263-67.294z" style="color:#000;fill:#c4121e;fill-opacity:.98823738;fill-rule:nonzero;stroke:none;stroke-width:1;marker:none;visibility:visible;display:inline;overflow:visible"/>
</svg>
