<svg xmlns="http://www.w3.org/2000/svg" xml:space="preserve" viewBox="0 0 625.258 255.258" role="img" aria-labelledby="title">
  <title id="title">Verkehrszeichen M4d1 - | Cycles</title>
  <path fill="#fff" stroke="#010101" stroke-width="5.258" d="M622.629 195.642c0 31.473-21.211 56.986-47.376 56.986H50.005c-26.165 0-47.376-25.514-47.376-56.986V59.615c0-31.473 21.211-56.986 47.376-56.986h525.247c26.165 0 47.376 25.514 47.376 56.986v136.027z"/>
  <path d="M249.59 36.411c-15.645-.529-20.244 20.118-8.359 24.184l11.5 4.288-14.754 43.196a56.964 56.956 0 0 0-23.005-4.926 56.964 56.956 0 0 0-56.964 56.956 56.964 56.956 0 0 0 56.964 56.957 56.964 56.956 0 0 0 56.965-56.957 56.964 56.956 0 0 0-25.253-47.262l4.424-12.803 54.137 60.088a18.567 18.564 0 0 0-1.782 7.882 18.567 18.564 0 0 0 18.535 18.564l2.199 12.753-4.977.857 1.387 8.08 17.75-3.054-1.391-8.08-4.383.751-2.28-13.26a18.567 18.564 0 0 0 9.863-12.696l13.857-.96a56.964 56.956 0 0 0 55.9 46.097 56.964 56.956 0 0 0 56.965-56.957 56.964 56.956 0 0 0-56.965-56.956 56.964 56.956 0 0 0-25.765 6.223l-21.722-31.508 5.009-14.789c6.92-1.677 13.122-3.25 15.756-6.481 3.71-4.551-1.195-10.915-8.834-10.732H344.14c-6.648-.093-9.185 6.843-5.058 9.236l18.145 7.41-3.445 10.18H260.56l2.407-6.962-.015-.005 2.026-6.667c-6.795-3.067-21.224-4.764-19.31-10.174.571-5.987 21.788-2.447 28.988-3.898V36.41zm7.629 45.953h93.608l-23.022 68.02a18.567 18.564 0 0 0-3.536-.785l-2.103-12.237 4.315-.743-1.391-8.081-17.747 3.055 1.392 8.076 5.04-.866 2.022 11.739a18.567 18.564 0 0 0-2.497 1.106l-57.835-64.204zm101.586 9.24 16.237 23.56a56.964 56.956 0 0 0-22.084 44.945 56.964 56.956 0 0 0 .005.127l-13.676.947a18.567 18.564 0 0 0-2.53-4.45zm-143.833 20.341a48.168 48.161 0 0 1 20.154 4.478L224.99 146.1c-.608 2.18-2.779 3.566-4.841 4.986a10.444 10.442 0 0 0-5.635-1.664 10.444 10.442 0 0 0-10.443 10.443 10.444 10.442 0 0 0 10.443 10.442 10.444 10.442 0 0 0 10.444-10.442 10.444 10.442 0 0 0-.095-1.278c3.948-2.506 7.607-5.49 8.504-7.207l10.321-29.872a48.168 48.161 0 0 1 19.455 38.601 48.168 48.161 0 0 1-48.17 48.16 48.168 48.161 0 0 1-48.167-48.16 48.168 48.161 0 0 1 48.166-48.164m194.95 0a48.168 48.161 0 0 1 48.172 48.164 48.168 48.161 0 0 1-48.171 48.16 48.168 48.161 0 0 1-47.002-37.917l39.817-2.76a10.444 10.442 0 0 0 7.48 3.154 10.444 10.442 0 0 0 10.443-10.442 10.444 10.442 0 0 0-8.463-10.247l-23.004-33.375a48.168 48.161 0 0 1 20.729-4.737m-29.916 10.415 21.853 31.703a10.444 10.442 0 0 0-1.523 2.887l-38.557 2.674a48.168 48.161 0 0 1 18.227-37.264" style="fill:#000;stroke:none;stroke-width:2.16587019"/>
</svg>
