<svg xmlns="http://www.w3.org/2000/svg" viewBox="-50 -30 30 30" role="img" aria-labelledby="title">
  <title id="title">Verkehrszeichen M5 - Attribut à placer sur le nœud au niveau de la ligne de stop, voir le panneau AB4</title>
  <path d="M-49.89-3.02a2.91 2.91 0 0 0 2.91 2.91h23.96a2.91 2.91 0 0 0 2.91-2.91v-23.96a2.91 2.91 0 0 0-2.91-2.91h-23.96a2.91 2.91 0 0 0-2.91 2.91z" style="fill:#fff;fill-opacity:1;stroke:#000;stroke-width:.22058831;stroke-miterlimit:4;stroke-dasharray:none;stroke-opacity:1"/>
  <path d="M-23.623-9.482c-.534-.062-1.103.252-1.41.621-.252-.363-.594-.554-.942-.586-.33-.03-.644.087-.896.254v-.252h-.957v3.784h.963l-.006-2.147c0-.522.294-.749.586-.744s.592.247.594.746v2.145h.957v-2.147c0-.504.299-.736.593-.736.295 0 .594.232.594.736l.004 2.147h.963l-.008-2.147c-.002-.57-.12-.971-.309-1.24a1 1 0 0 0-.726-.434" style="color:#000;font-style:normal;font-variant:normal;font-weight:400;font-stretch:normal;font-size:medium;line-height:normal;font-family:sans-serif;text-indent:0;text-align:start;text-decoration:none;text-decoration-line:none;text-decoration-style:solid;text-decoration-color:#000;letter-spacing:normal;word-spacing:normal;text-transform:none;direction:ltr;block-progression:tb;writing-mode:lr-tb;baseline-shift:baseline;text-anchor:start;white-space:normal;clip-rule:nonzero;display:inline;overflow:visible;visibility:visible;opacity:1;isolation:auto;mix-blend-mode:normal;color-interpolation:sRGB;color-interpolation-filters:linearRGB;solid-color:#000;solid-opacity:1;fill:#000;fill-opacity:1;fill-rule:evenodd;stroke:none;stroke-width:.1;stroke-linecap:butt;stroke-linejoin:miter;stroke-miterlimit:4;stroke-dasharray:none;stroke-dashoffset:0;stroke-opacity:1;color-rendering:auto;image-rendering:auto;shape-rendering:auto;text-rendering:auto" transform="translate(-.123)"/>
  <g style="font-style:normal;font-weight:400;font-size:1.125px;line-height:125%;font-family:sans-serif;letter-spacing:0;word-spacing:0;fill:#000;fill-opacity:1;stroke:none;stroke-width:1px;stroke-linecap:butt;stroke-linejoin:miter;stroke-opacity:1">
    <path d="M-52.781-18.468v-.011q0-.06.126-.082.973-.314 1.264-.45.148.202.39.367.39.23.835.28.472.011.587-.022.544-.153.67-.313.127-.11.22-.533.022-.164-.044-.368-.082-.137-.175-.23l-.187-.143-.209-.094q-1.741-.543-1.917-.637-.808-.324-1.203-1.071-.258-.5-.23-1.214.104-.89.73-1.412.703-.51 1.466-.555h.143q.544 0 .901.083.725.203 1.132.566.406.335.67.912l-.017.06-1.131.544-.055-.028q-.104-.335-.588-.543-.544-.204-1.274-.011-.313.104-.44.269-.044.044-.115.274-.011.27.022.313.071.187.286.336l.142.06q1.56.461 2.115.67.478.22.73.484l.308.417q.341.566.363 1.236.006.044.006.104 0 .215-.066.577-.138.511-.33.753-.33.406-.478.489-.807.554-1.664.598h-.5q-.56-.055-.945-.22-.615-.285-.994-.637-.313-.285-.544-.818M-40.34-24.884v1.549h-1.61v6.51h-1.493v-6.527h-1.72v-1.532zM-34.908-24.977q1.33.203 1.967 1.57.544 1.011.544 2.483v.1q0 1.84-.896 3.13-.637.868-1.801.973-.121.01-.237.01-1.208 0-2.026-1.021-.846-1.362-.857-2.796-.006-.12-.006-.242 0-1.939.863-3.208.576-.692 1.203-.884.433-.137.867-.137.193 0 .38.022m-.423 6.86q.638-.032 1.077-.873.319-.56.401-1.648.017-1.384-.489-2.269-.412-.615-.912-.686-.659.033-1.098.862-.313.583-.407 1.67-.01 1.384.5 2.263.407.616.928.681M-27.108-24.89q.703.077 1.242.506.543.428.78.967.296.576.296 1.236 0 .307-.005.4-.044.759-.313 1.264-.27.505-.588.775-.692.631-1.456.642h-1.527v2.258h-1.505v-8.048zm-1.549 4.186h1.242q.285-.033.472-.143.505-.302.604-1.049.017-.675-.274-1.027t-.775-.401h-1.269z" style="font-style:normal;font-variant:normal;font-weight:500;font-stretch:normal;font-size:11.25000095px;font-family:&quot;Caracteres L1&quot;;-inkscape-font-specification:&quot;Caracteres L1 Medium&quot;;letter-spacing:1.48257411px;fill:#000" transform="translate(-1.016 -2.23)scale(.87685)"/>
  </g>
  <g style="font-style:normal;font-weight:400;font-size:.98646003px;line-height:125%;font-family:sans-serif;letter-spacing:0;word-spacing:0;fill:#000;fill-opacity:1;stroke:none;stroke-width:1px;stroke-linecap:butt;stroke-linejoin:miter;stroke-opacity:1">
    <path d="M-43.292-22.058v7.076h-1.344l.005-4.995h-.02q-.014.063-.346.275l-.42.221-.375.145q-.226.048-.246.072v-1.493l.299-.14q.747-.477 1.074-1.16zM-36.338-22.062l-.005 1.353h-2.38l-.163 1.204q.337-.096.712-.082.352-.01.718.077.53.169.944.593.573.626.65 1.387.005.11.005.217 0 .462-.12.8-.222.515-.607.924-.636.597-1.551.597h-.096l-.444-.028q-.693-.078-1.204-.487-.66-.607-.814-1.247l1.387-.352q.063.284.328.51.4.294 1.127.12.602-.245.564-.856.014-.554-.501-.786-.357-.106-.805-.057-.342.072-.611.265l-1.2-.94.357-3.212zM-32.41-16.311q.299.019.371-.01l.005.01.265-.058q.318-.106.486-.458.13-.351.193-.838l.024-1.088-.014-.511-.048-.38-.02-.02-.062-.27-.02-.01q-.072-.288-.274-.534-.154-.125-.246-.164l-.28-.067-.293-.014q-.197-.005-.438.081-.222.106-.371.381-.106.255-.193.64l.01.03q-.03.024-.034.158-.067.564-.014 1.653l.077.525.1.37q.112.29.304.42.174.11.472.154m-2.398-1.455q-.015-.27-.015-.53 0-.13.005-.26.014-.51.082-.992v-.034l.02-.043.033-.333.024-.048.048-.27.02-.028q.072-.347.312-.78l.14-.213.27-.274q.429-.347 1.113-.496.216-.039.447-.039h.039q.361.01.756.12.164.02.525.217.371.232.675.631l.154.236.125.265.053.193.014.014v.049q.049.1.058.159l.02.024.081.428.015.01-.01.062.02.039.048.515.019.049-.015.004.034.304-.01.01q.02.048 0 .057l.015.048-.01.015.025.327-.01.01.014.14-.004.01v.192q-.005.178-.03.429l-.023.178.01.01-.025.048q-.014.178-.082.423l-.029.092-.004.053-.126.356-.024.02q0 .048-.125.294l-.231.332q-.38.438-.843.64-.304.12-.612.16l-.37.024-.087-.005q-1.099-.03-1.773-.713-.332-.371-.5-.862-.194-.501-.237-1.055z" style="font-style:normal;font-variant:normal;font-weight:500;font-stretch:normal;font-size:9.86460114px;font-family:&quot;Caracteres L1&quot;;-inkscape-font-specification:&quot;Caracteres L1 Medium&quot;;letter-spacing:.47522953px;fill:#000" transform="translate(1.14 10.036)scale(1.05212)"/>
  </g>
</svg>
