<svg xmlns="http://www.w3.org/2000/svg" viewBox="0 0 430 366" role="img" aria-labelledby="title">
  <title id="title">Verkehrszeichen M4n - Handicapé?</title>
  <g transform="translate(0 -686.362)">
    <rect width="427.79" height="363.79" x="1.105" y="687.467" ry="64.742" style="fill:#fff;stroke:#000;stroke-width:2.209692;stroke-miterlimit:4;stroke-dasharray:none;stroke-opacity:1"/>
    <path d="M169.749 719.364a27.453 27.453 0 0 0-27.453 27.453 27.45 27.45 0 0 0 3.95 14.13l9.441 132.896h97.564l39.867 93.673 52.672-20.646-8.072-19.222-29.559 10.6-38.735-89.493-90.594.84-1.394-16.986h65.797v-24.827l-68.294-.29-2.788-53.224c2.55-.19 4.981-.82 7.26-1.77a27.45 27.45 0 0 0 17.79-25.683 27.453 27.453 0 0 0-27.452-27.453ZM141.75 832.517c-41.17 18.12-65.996 66.899-54.887 110.773 9.637 45.127 54.513 79.147 100.608 75.852 34.548-1.664 67.318-22.984 82.796-53.927L252.7 929.818c-3.532 35.975-38.065 65.259-74.166 62.628-35.943-1.058-67.31-33.175-67.421-69.153-.798-24.446 12.077-48.837 32.874-61.768z" style="font-style:normal;font-variant:normal;font-weight:400;font-stretch:normal;letter-spacing:normal;word-spacing:normal;text-anchor:start;fill:#000;fill-opacity:1;stroke:#007cc1;stroke-width:0;stroke-linecap:round;stroke-linejoin:round;stroke-miterlimit:10.43299961;stroke-dasharray:none;stroke-dashoffset:0;stroke-opacity:1"/>
  </g>
</svg>
