<svg xmlns="http://www.w3.org/2000/svg" xml:space="preserve" viewBox="-.082 -.083 640 187.5" role="img" aria-labelledby="title">
  <title id="title">Verkehrszeichen M4e - Remorques et semi-remorques</title>
  <path d="M32.445 1.994h574.946a30.46 30.46 0 0 1 30.527 30.527V154.89a30.46 30.46 0 0 1-30.527 30.527H32.445A30.46 30.46 0 0 1 1.918 154.89V32.521A30.46 30.46 0 0 1 32.445 1.994" style="opacity:1;fill:#fff;fill-opacity:1;fill-rule:evenodd;stroke:#000;stroke-width:3.99999022;stroke-linecap:round;stroke-linejoin:round;stroke-miterlimit:4;stroke-dasharray:none;stroke-dashoffset:0;stroke-opacity:1"/>
  <g style="fill:#000">
    <path fill-rule="evenodd" d="M-63.357 440.87V395.08h15.084l3.287.365 3.155 1.052 2.834 1.644 2.557 2.198 1.965 2.695 1.329 2.966.775 3.2v3.293l-.592 3.244-1.33 3.06-1.826 2.702-2.424 2.324-.775.599 7.495 16.45h-9.781l-6.537-13.755h-6.487v13.755zm8.73-22.483h6.354l2.235-.365 1.921-.957 1.644-1.556 1.146-1.92.41-2.287-.227-2.053-.964-2.103-1.505-1.739-1.877-1.051-2.191-.504h-6.947zm-196.242 22.484v-45.792h15.033l3.338.365 3.105 1.052 2.884 1.644 2.557 2.198 1.965 2.695 1.323 2.966.78 3.2v3.293l-.598 3.244-1.322 3.06-1.833 2.702-2.418 2.324-.775.599 7.495 16.45h-9.781l-6.537-13.755h-6.537v13.755zm8.679-22.39h6.354l2.286-.32 1.921-.964 1.644-1.6 1.14-1.92.415-2.236-.233-2.104-.957-2.053-1.505-1.782-1.92-1.008-2.148-.548h-6.997zm225.633-15.083 1.643-2.695 2.242-2.337 2.645-1.687 3.017-1.184 3.067-.555 3.105.183 3.155.87 2.784 1.51 2.519 1.966 1.915 2.6.686 1.33-.088-.183 1.782 4.339.957 4.478.322 4.528.088 3.564h-.088l-.322 4.617-1.051 4.522-1.688 4.156.088-.176-1.644 2.74-2.242 2.33-.957.774 3.382 5.763H-1.342l-1.826-3.155-3.155-.322-3.017-.957-2.696-1.694-2.374-2.148-1.826-2.607-.321-.724v.176l-1.6-4.245-1.052-4.528-.321-4.522-.095-3.564h.095l.321-4.616 1.052-4.434 1.6-4.295zm7.998 3.61-1.417 3.658-.687 3.836-.094 2.059-.088 3.564h.088l.365 4.019 1.052 3.659.78 2.009-.094-.183 1.235 1.555 1.555 1.235 2.01.592 2.059-.088 1.826-.781 1.688-1.279.78-1.234v.183l1.367-3.748.737-3.835.044-2.103v-3.565l-.32-3.886-1.053-3.747-.774-1.92v.182l-1.146-1.688-1.732-1.19-1.921-.643-2.104.095-1.826.774-1.556 1.33-.869 1.322zm-97.623-4.435 1.644-2.695 2.198-2.33 2.607-1.644 3.017-1.234 3.148-.548 3.2.182 3.06.87 2.79 1.505 2.419 2.009 2.015 2.607.687 1.278-.044-.182 1.643 4.39 1.052 4.433.315 4.522.094 3.564h-.094l-.315 4.617-1.052 4.522-1.643 4.163.044-.139-1.65 2.695-2.236 2.33-2.607 1.739-3.061 1.146-3.061.498-3.2-.133-3.06-.869-2.79-1.511-2.513-2.01-1.92-2.512-.687-1.373.094.139-1.738-4.252-.957-4.528-.365-4.522-.095-3.564h.095l.365-4.616 1.001-4.434 1.694-4.295zm7.771 3.615-1.417 3.653-.592 3.835-.094 2.104-.088 3.565h.088l.277 3.98 1.052 3.653.775 2.009v-.177l1.14 1.594 1.738 1.19 1.92.642 2.01-.094 1.964-.775 1.512-1.329.863-1.228-.088.177 1.372-3.741.731-3.842.044-2.06.094-3.564h-.094l-.321-3.93-1.046-3.747-.78-1.915.088.183-1.228-1.65-1.556-1.234-2.01-.592-2.103.088-1.832.78-1.644 1.28-.775 1.328zm-123.21-39.304v-45.798h15.083l3.287.371 3.155 1.046 2.834 1.65 2.557 2.191 1.965 2.696 1.33 2.972.774 3.2v3.287l-.592 3.25-1.33 3.06-1.825 2.696-2.425 2.33-.775.592 7.495 16.457h-9.78l-6.538-13.71h-6.53v13.71zm8.684-22.49h6.399l2.235-.365 1.921-.958 1.644-1.555 1.146-1.915.41-2.286-.227-2.06-.964-2.103-1.505-1.732-1.877-1.051-2.191-.504h-6.99zm-196.153 22.49v-45.798h15.033l3.338.371 3.105 1.046 2.884 1.65 2.557 2.191 1.965 2.696 1.33 2.972.774 3.2v3.287l-.592 3.25-1.329 3.06-1.826 2.696-2.425 2.33-.775.592 7.45 16.457h-9.736l-6.537-13.71h-6.53v13.71zm8.685-22.396h6.348l2.286-.32 1.921-.958 1.644-1.6 1.146-1.92.41-2.236-.227-2.104-.964-2.06-1.505-1.781-1.92-1.008-2.148-.548h-6.99zm225.583-15.083 1.643-2.695 2.242-2.33 2.601-1.688 3.061-1.19 3.067-.549 3.105.183 3.155.869 2.784 1.505 2.563 1.965 1.921 2.607.68 1.323-.088-.183 1.782 4.39.958 4.434.32 4.522.095 3.564h-.094l-.321 4.616-1.052 4.529-1.688 4.156.088-.182-1.644 2.74-2.242 2.33-1.001.78 3.426 5.756h-10.146l-1.826-3.155-3.155-.321-3.017-.957-2.696-1.644-2.374-2.192-1.826-2.607-.321-.73v.182l-1.6-4.25-1.052-4.523-.321-4.528-.094-3.564h.094l.321-4.617 1.052-4.433 1.6-4.296zm7.998 3.615-1.417 3.653-.687 3.841-.094 2.054-.088 3.564h.088l.365 4.024 1.052 3.653.781 2.015-.094-.188 1.234 1.555 1.556 1.234 2.009.599 2.059-.095 1.826-.774 1.688-1.279.781-1.24v.189l1.367-3.754.737-3.835.044-2.104v-3.564l-.322-3.886-1.051-3.747-.775-1.915v.176l-1.146-1.687-1.732-1.19-1.92-.637-2.104.088-1.827.781-1.555 1.323-.87 1.322zm-97.623-4.434 1.65-2.695 2.192-2.337 2.607-1.643 3.017-1.235 3.149-.504 3.199.139 3.06.869 2.79 1.512 2.425 2.009 2.01 2.607.686 1.278-.044-.182 1.644 4.383 1.051 4.434.321 4.528.089 3.564h-.089l-.32 4.61-1.052 4.529-1.644 4.2.044-.176-1.644 2.695-2.242 2.33-2.607 1.732-3.061 1.147-3.06.504-3.2-.14-3.06-.868-2.79-1.505-2.514-2.016-1.92-2.512-.687-1.367.094.176-1.738-4.295-.957-4.522-.365-4.522-.095-3.564h.095l.365-4.617 1.001-4.433 1.694-4.295zm7.772 3.609-1.417 3.653-.592 3.841-.095 2.104-.088 3.564h.088l.277 3.974 1.052 3.66.775 2.008v-.182l1.146 1.6 1.732 1.19 1.92.636 1.966-.088 2.009-.781 1.511-1.323.87-1.234-.095.183 1.373-3.748.73-3.841.044-2.053.095-3.565h-.095l-.321-3.93-1.045-3.747-.781-1.921.094.183-1.234-1.644-1.556-1.234-2.009-.599-2.103.095-1.827.774-1.65 1.279-.774 1.329zm-107.398 34.688V321.18h27.97v8.729h-19.24v9.554h14.163v8.728h-14.164V358.2h19.927v8.684zm271.557 0V321.18h27.969v8.729h-19.24v9.554h14.17v8.728h-14.17V358.2h19.926v8.684zm-229.059 0V321.18h12.023l9.233 23.856 9.32-23.856h11.928v45.703h-8.728v-28.699l-11.286 28.7h-2.38l-11.38-28.7v28.7zm262.74-9.736 1.556 2.696 2.103 2.468 1.827 1.279v-.088l3.287 1.826 3.659 1.146 3.747.498 3.842-.139 3.653-.957 1.329-.454 2.695-1.372 2.148-2.01 1.826-2.468 1.146-2.746.548-2.966-.189-2.973-.863-2.973-1.555-2.512-2.01-2.286-2.562-1.739-1.732-.68-12.023-4.25h-.044l-1.417-.87-.78-1.234-.272-1.556.548-1.6 1.052-1.095.504-.271-.095.088 2.608-.957 2.783-.278 2.79.46 2.286.87h-.182l1.555 1.183 1.052 1.6 7.494-3.155-1.417-2.784-1.964-2.33-2.47-1.738-1.145-.73h.094l-3.476-1.28-3.653-.598-3.66.139-3.564.775-2.966 1.146.088.088-2.33 1.556-2.01 2.103-1.46 2.513-.737 2.695-.088 2.973.46 2.79 1.278 2.6 1.826 2.199 2.192 1.826 2.009.957 12.3 4.252v.094l1.549.869.964 1.505.503 1.556-.277 1.826-.869 1.556-1.278.957-.46.183-2.878.774-2.922.095-2.879-.592-2.512-1.052-1.694-1.417-.504-.687-8.452 2.601zm-74.63-35.967v30.21l.322 3.2 1.052 3.06 1.6 2.879 2.235 2.425 2.52 1.914 3.06 1.329 3.149.687h3.294l3.243-.781 2.922-1.323 2.607-1.92 2.192-2.42 1.556-2.79.963-3.154.365-3.105V321.18h-8.64v30.21l-.321 2.054-1.052 2.015-1.55 1.505-1.832.958-2.192.233-2.191-.321-1.833-.958-1.55-1.6-.963-1.876-.27-2.01v-30.21zm166.673 45.704V321.18h27.969v8.729h-19.24v9.554h14.17v8.728h-14.17V358.2h19.926v8.685zm51.189 0v-36.975H74.39v-8.823h28.831v8.823H93.126v36.974zm-290.255 73.987v-45.698h27.969v8.73h-19.24v9.547h14.17v8.729h-14.17v10.013h19.926v8.679zm271.563 0v-45.698h27.969v8.73h-19.24v9.547h14.214v8.729H74.434v10.013H94.36v8.679zm-229.059 0v-45.698h12.067l9.232 23.857 9.321-23.857h11.928v45.698h-8.729v-28.7l-11.285 28.7h-2.38l-11.425-28.7v28.7zm262.74-9.73 1.555 2.695 2.098 2.469 1.832 1.278v-.094l3.288 1.832 3.703 1.14 3.703.504 3.835-.138 3.66-.958 1.322-.46 2.696-1.372 2.197-2.01 1.827-2.468 1.096-2.784.548-2.928-.183-2.973-.87-2.966-1.548-2.513-2.016-2.286-2.513-1.738-1.782-.687-11.972-4.25h-.095l-1.417-.87-.774-1.228-.277-1.556.554-1.6 1.052-1.095.497-.277-.088.094 2.601-.963 2.79-.271 2.79.453 2.286.87h-.183l1.55 1.19 1.051 1.6 7.495-3.156-1.417-2.79-1.965-2.33-2.463-1.732-1.146-.73h.095l-3.477-1.285-3.652-.636-3.66.182-3.564.775-2.973 1.146.095.088-2.33 1.556-2.016 2.097-1.46 2.52-.731 2.695-.089 2.966.454 2.79 1.278 2.607 1.833 2.192 2.192 1.826 2.009.964 12.293 4.25v.089l1.556.869.957 1.511.504 1.55-.271 1.832-.87 1.55-1.278.963-.46.183-2.877.775-2.929.094-2.878-.598-2.513-1.052-1.688-1.417-.504-.687-8.458 2.608zm-74.63-35.968v30.205l.322 3.2 1.045 3.066 1.6 2.878 2.242 2.419 2.513 1.92 3.06 1.323 3.156.687h3.287l3.25-.775 2.922-1.323 2.607-1.92 2.192-2.425 1.555-2.784.958-3.155.365-3.111v-30.205h-8.634v30.205l-.322 2.06-1.051 2.008-1.556 1.512-1.826.957-2.192.227-2.198-.321-1.826-.958-1.55-1.6-.963-1.876-.277-2.01v-30.204zm-415.065 45.47V394.94h27.975v8.73h-19.247v9.553h14.17v8.729h-14.17v10.007h19.927v8.685zm95.563.228v-45.698h8.685v45.698zm-54.703-.227V394.94h12.016l9.233 23.857 9.327-23.857h11.928v45.704h-8.685v-28.7l-11.336 28.7h-2.33l-11.424-28.7v28.7zm-87.288-9.504 1.55 2.652 2.059 2.374 1.782 1.279v-.089l3.243 1.827 3.565 1.096 3.703.503 3.747-.182 3.565-.913 1.278-.46 2.652-1.323 2.147-1.965 1.782-2.424 1.096-2.696.504-2.928-.138-2.878-.863-2.923-1.556-2.468-1.965-2.192-2.469-1.738-1.694-.687-11.79-4.156h-.087l-1.33-.87-.774-1.19-.277-1.555.504-1.505 1.052-1.147.504-.226-.095.094 2.563-.963 2.74-.227 2.746.41 2.191.868h-.182l1.555 1.19 1.002 1.506 7.362-3.061-1.373-2.74-1.965-2.286-2.38-1.694-1.096-.68h.094l-3.432-1.278-3.609-.599-3.565.139-3.52.775-2.878 1.095.094.095-2.33 1.555-1.92 2.053-1.462 2.47-.686 2.65-.095 2.879.416 2.746 1.278 2.556 1.827 2.148 2.103 1.782 1.965.913 12.016 4.207v.089l1.556.825.957 1.46.504 1.556-.27 1.783-.87 1.555-1.278.913-.41.183-2.79.775-2.928.094-2.828-.642-2.469-1.008-1.6-1.367-.503-.686-8.275 2.557zm161.143-9.736v-8.64h14.806v8.64zm0 0" style="fill:#000;stroke-width:1.61224" transform="translate(472.805 -284.464)"/>
  </g>
</svg>
