<svg xmlns="http://www.w3.org/2000/svg" viewBox="0 0 300 304.55" role="img" aria-labelledby="title">
  <title id="title">Verkehrszeichen M4k - Véhicule transportant des explosifs, marchandises explosives ou inflammables | rowspan = 5 | Même remarque que M4a</title>
  <g transform="translate(0 -747.812)">
    <rect width="297.276" height="301.778" x="1.362" y="749.222" ry="32.969" style="fill:#fff;stroke:#000;stroke-width:2.7242415000000002;stroke-miterlimit:4;stroke-opacity:1;stroke-dasharray:none"/>
    <path d="m606.356 366.102 47.802 12.809-24.548 23.314 77.601-19.042 15.545 43.926 17.234-25.764 12.496 30.999 10.96-33.51 19.318 27.652 6.054-42.684 80.045 22.079-36.89-26.56 64.213-13.22v90.89c.778 11.648-7.777 18.799-16.843 21.61v49.26c-.048 9.742-2.28 10.63-6.055 10.486H851.06c-2.754-.024-8.24-.043-8.262-8.262v-51.483H661.97v50.212c.094 7.118-2.548 9.242-5.504 9.533h-25.799c-3.096-.217-4.002.821-5.561-5.561v-54.184c-11.157-.566-17.987-10.17-18.75-18.75z" style="fill:#000;stroke:none" transform="translate(-260.679 734.633)scale(.54884)"/>
    <path d="M211.215 431.688c0 10.673-8.653 19.325-19.326 19.325s-19.325-8.652-19.325-19.325 8.652-19.326 19.325-19.326 19.326 8.652 19.326 19.326" style="fill:#fff;fill-opacity:1;fill-rule:nonzero;stroke:none" transform="translate(-16.423 728.106)scale(.5648)"/>
    <path d="M211.215 431.688c0 10.673-8.653 19.325-19.326 19.325s-19.325-8.652-19.325-19.325 8.652-19.326 19.325-19.326 19.326 8.652 19.326 19.326" style="fill:#fff;fill-opacity:1;fill-rule:nonzero;stroke:none" transform="translate(102.989 728.106)scale(.5648)"/>
    <path d="m1175.927-406.939 26.298-105.667 27.966 109.878 19.385-24.708 2.225 30.19 53.708-60.699-23.517 60.064 63.877-19.068-43.538 47.67 30.508-1.272-49.576 40.043 79.131-7.628-68.167 52.914 67.531-20.498-77.542 62.923 84.534 17.161-107.733 24.47 17.797 11.76-47.67-14.302-5.085 32.416-15.254-21.61-9.852 22.88-12.394-20.974-14.618 22.246-13.983-35.275-51.801 12.711 13.347-8.58-97.563-28.284 76.759-9.704-57.374-24.618 50.212-6.992-33.369-28.919 39.725 6.992-61.335-62.289 74.236 22.04-66.609-100.218 85.17 38.136-18.114-28.602 36.228 19.704-5.084-58.157z" style="fill:red;stroke:none" transform="translate(-506.599 1051.454)scale(.54884)"/>
    <path d="m1158.205-227.416-32.546.46 20-16.179-27.415-9.438 37.977-8.315-44.494-43.145 53.482 13.258-37.302-48.763 53.482 22.471 20.224-80.897 13.596 81.684 40.561-15.843-10.112 38.202 35.505-4.719-31.236 24.045 28.09 13.707-26.292 22.472 28.989 13.708-41.798-2.023 17.079 18.876-34.607-16.18v18.877l-16.628-18.876-4.045 29.662-9.888-23.82-9.506 15.52-4.796-23.119-27.1 12.965z" style="fill:#fffcfc;fill-opacity:1;stroke:none" transform="translate(-507.163 1051.454)scale(.54884)"/>
    <path d="m1173.018-256.843-32.584-32.359 44.494 11.011-25.505-38.201 28.876 14.381 13.696-55.797 5.235 55.663 34.102-13.124-8.314 30.562 18.045-.54-15.982 13.06 27.15 13.771-21.798 20.899 8.764 4.719-11.91-1.124-14.157-2.696 11.233 9.386-22.242-9.69 2.02 13.113-12.436-14.925-5.316 17.172-5.843-8.09-6.848 7.838-3.04-15.254-14.606 8.09 2.921-6.741-17.752.45 11.46-7.417-16.219-7.428z" style="fill:#ff0;fill-opacity:1;stroke:none" transform="translate(-507.163 1051.454)scale(.54884)"/>
  </g>
</svg>
