<svg xmlns="http://www.w3.org/2000/svg" xml:space="preserve" viewBox="-.5 -.5 912 270" role="img" aria-labelledby="title">
  <title id="title">Verkehrszeichen M10a - Les références (ref=*) s’écrivent sous la forme : “A(espace)(chiffres)” pour les autoroutes, “N(espace)(chiffres)” pour les routes nationales, “D(espace)(chiffres)” pour les routes départementales, “M</title>
  <rect width="908.002" height="266.502" x="1.499" y="1.499" ry="47.428" style="fill:#fff;stroke:#000;stroke-width:2.99824;stroke-miterlimit:4;stroke-dasharray:none;stroke-opacity:1"/>
  <path fill="red" d="M153.677 24.75h603.646v220H153.677z" style="stroke-width:1.11449"/>
  <g style="fill:#fff">
    <path d="M358.578-181.539 396.58-34.253h-28.853l-6.334-25.034h-40.717l-6.435 25.034h-29.155l37.6-147.286Zm-32.373 94.203h29.055l-14.075-57.507zM561.058-181.64v88.573h14.577v29.155h-14.678v29.558h-29.356v-29.658h-59.719v-30.865l60.623-86.762zm-56.602 88.372h28.15v-40.717zM772.887-181.438q30.262 4.524 38.908 34.081l-28.05 7.742q-4.021-11.06-14.779-12.467-18.498-2.312-24.128 8.646-3.72 6.032-5.831 30.161 21.112-14.678 45.744-5.429 19.604 8.546 25.134 27.95 1.106 5.83 1.106 11.26 0 16.186-9.853 28.552-11.662 14.577-32.574 16.387-3.82.302-7.44.302-47.352 0-50.971-56.3-.402-7.44-.402-14.277 0-22.017 3.82-37.902 5.128-20.911 20.61-31.267 12.064-8.143 28.854-8.143 4.826 0 9.853.704zM758.511-61.097q21.213.905 24.128-14.678.805-16.89-17.493-19.001-21.515-.804-24.028 15.684.201 16.286 17.393 17.995" style="font-style:normal;font-variant:normal;font-weight:400;font-stretch:normal;font-size:40px;line-height:1.25;font-family:&quot;Caracteres L1&quot;;-inkscape-font-specification:&quot;Caracteres L1&quot;;white-space:pre;fill:#fff;fill-opacity:1;stroke:none;stroke-width:5.14745" transform="translate(-92.94 242.2)"/>
    <path d="M507.531-182.074c-29.482 0-53.219 25.55-53.219 57.29v35.665c0 31.74 23.737 57.293 53.22 57.293 29.482 0 53.216-25.553 53.216-57.293v-35.664c0-31.74-23.734-57.291-53.217-57.291m-2.431 28.94h4.86c11.851 0 21.392 13.442 21.392 30.14v32.086c0 16.698-9.54 30.14-21.391 30.14H505.1c-11.85 0-21.39-13.442-21.39-30.14v-32.086c0-16.698 9.54-30.14 21.39-30.14" style="fill:#fff;stroke:none;stroke-width:1.14379;stroke-linecap:round;stroke-linejoin:round;stroke-miterlimit:4;stroke-dasharray:none" transform="translate(41.566 241.7)"/>
  </g>
</svg>
