<svg xmlns="http://www.w3.org/2000/svg" viewBox="0 0 430 175" role="img" aria-labelledby="title">
  <title id="title">Verkehrszeichen M4d2 - Cyclomoteurs</title>
  <g transform="translate(0 -877.362)">
    <rect width="428.473" height="173.473" x=".764" y="878.126" ry="30.872" style="fill:#fff;stroke:#000;stroke-width:1.52710259;stroke-miterlimit:4;stroke-dasharray:none;stroke-opacity:1"/>
    <path d="m184.149 899.862-14.091 6.704c-4.715 2.799-4.969 6.181-2.727 9.888l3.819 7.807-1.304 3.328h-23.311v17.956h16.279l-4.979 12.712a38.6 38.6 0 0 0-10.846-1.577 38.64 38.64 0 0 0-22.824 7.514l2.347 3.35a34.55 34.55 0 0 0-14.068 27.773 34.546 34.546 0 0 0 34.545 34.545 34.55 34.55 0 0 0 30.006-17.513l3.606 1.929a38.64 38.64 0 0 0 5.025-18.96 38.64 38.64 0 0 0-20.741-34.223l2.737-6.989 35.583 25.067c.36 10.818 1.512 21.504 13.784 21.826 9.488.684 18.977 1.042 28.47 1.238a34.546 34.546 0 0 0 33.841 27.625 34.546 34.546 0 0 0 34.546-34.545 35 35 0 0 0-.342-4.568l4.052-.542a38.64 38.64 0 0 0-24.716-31.027h10.969v-7.273h-54.61l2.102-6.488h12.762c8.183-1.412 6.61-11.157.596-11.415a4 4 0 0 0-.596.01h-35.58v7.232l12.599 5.143.492-.049-5.494 15.346c-4.138 8.89-12.804 10.688-17.333 9.915-5.966-1.017-12.417-7.13-14.257-14.916l-29.702-20.871 3.326-8.496c.985-2.482.604-3.113-.257-4.601l-4.618-9.668 14.318-6.59-3.408-6.592zm-37.16 68.183a27.3 27.3 0 0 1 6.674.863l-7.998 20.425a6.136 6.136 0 0 0-4.812 5.984 6.136 6.136 0 0 0 12.273 0 6.1 6.1 0 0 0-.608-2.648l8.183-20.895a27.27 27.27 0 0 1 13.562 23.543 27.273 27.273 0 0 1-27.274 27.273 27.273 27.273 0 0 1-27.273-27.273 27.273 27.273 0 0 1 27.273-27.272m132.311 0a27.273 27.273 0 0 1 27.274 27.272 27.273 27.273 0 0 1-27.274 27.273 27.27 27.27 0 0 1-26.335-20.229c4.616.057 9.235.08 13.853.092a13.98 13.98 0 0 0 11.548 6.124 13.98 13.98 0 0 0 13.981-13.981 13.98 13.98 0 0 0-13.981-13.982h-22.002a27.27 27.27 0 0 1 22.936-12.57m-30.137 10.472-.26.452-.007-.251z" style="opacity:1;fill:#000;fill-opacity:1;fill-rule:evenodd;stroke:none;stroke-width:.40000001;stroke-linecap:round;stroke-linejoin:round;stroke-miterlimit:4;stroke-dasharray:none;stroke-dashoffset:0;stroke-opacity:1"/>
  </g>
</svg>
