<svg xmlns="http://www.w3.org/2000/svg" xml:space="preserve" viewBox="-.082 -.083 639.999 187.423" role="img" aria-labelledby="title">
  <title id="title">Verkehrszeichen M2 - Étendue de l&apos;effet du panneau</title>
  <path d="M32.445 1.917H607.39a30.46 30.46 0 0 1 30.527 30.527v122.369a30.46 30.46 0 0 1-30.527 30.527H32.445a30.46 30.46 0 0 1-30.527-30.527V32.444A30.46 30.46 0 0 1 32.445 1.917" style="opacity:1;fill:#fff;fill-opacity:1;fill-rule:evenodd;stroke:#000;stroke-width:3.99998;stroke-linecap:round;stroke-linejoin:round;stroke-miterlimit:4;stroke-dasharray:none;stroke-dashoffset:0;stroke-opacity:1"/>
  <path fill="#1b1918" fill-rule="evenodd" stroke="#1b1918" stroke-miterlimit="3.864" stroke-width=".189" d="m46.44 26.08 36.906 37.287h-24.06v97.88h-25.7v-97.88H9.525ZM593.907 26.08l36.906 37.287h-24.06v97.88h-25.7v-97.88h-24.06zm0 0"/>
  <path d="M281.489 408.642c-17.917 0-26.688 12.172-26.688 36.735 0 24.567 8.088 36.963 26.801 36.963 18.667 0 26.531-13.906 26.531-36.885 0-22.943-8.806-36.813-26.644-36.813m0 14.022c9.75 0 12.469 8.505 12.469 22.828 0 14.364-2.72 22.863-12.47 22.863-9.79 0-12.474-6.65-12.401-22.863.078-16.214 2.61-22.828 12.402-22.828" style="stroke-width:1.33333" transform="translate(-20.144 -431.834)scale(1.17911)"/>
  <path fill="#1b1918" fill-rule="evenodd" stroke="#1b1918" stroke-miterlimit="3.864" stroke-width=".35609122000000004" d="m217.329 111.413-16.404 4.097c5.171 17.428 18.989 21.525 31.198 21.525 15.463 0 28.077-12.608 28.077-28.072 0-15.47-12.614-28.078-28.077-28.078-2.494 0-7.173.314-9.716.67l1.652-15.42h29.988V49.78h-45.408l-4.28 39.39 15.02 11.859c2.985-2.408 7.622-3.077 10.471-3.077 9.268 0 13.462 5.3 13.462 10.962 0 5.62-5.306 11.232-13.505 11.232-7.443 0-11.054-4.722-12.478-8.733zm0 0"/>
  <path fill="#1b1918" fill-rule="evenodd" stroke="#1b1918" stroke-miterlimit="3.864" stroke-width=".44570358000000004" d="M413.411 112.212v24.78h-10.157v-24.78c0-12.387-15.157-12.921-15.157 0v24.78h-10.2V93.315h10.2v3.12c5.933-4.41 15.513-6.19 22.109 4.366 4.9-11.36 28.698-12.878 28.698 11.41v24.78h-10.25l.086-24.78c0-12.478-15.329-12.478-15.329 0zm0 0"/>
</svg>
