<svg xmlns="http://www.w3.org/2000/svg" xml:space="preserve" viewBox="-.781 -.08 193.04 170.36" role="img" aria-labelledby="title">
  <title id="title">Verkehrszeichen M12a - L'attribut est à ajouter sur le nœud du feu * Une relation peut aussi être ajoutée avec : ** ** ** Le rôle est à attribu</title>
  <path d="M9.626 7.36c-.764.368-1.644.581-2.088 1.371-.723.698-.932 1.757-1.02 2.727-.003 1.523 1.164 2.683 1.783 3.991C36.2 64.012 64.15 112.548 92.069 161.1c1.007 1.076 2.408 2.3 4.002 1.799 1.334-.142 2.597-.906 3.132-2.169 28.474-49.077 56.9-98.184 85.355-147.272.42-1.403.792-3.218-.428-4.346-.79-1.09-2.086-1.817-3.457-1.646-56.739-.12-113.478-.186-170.217-.284z" style="fill:#fff;fill-opacity:1;fill-rule:evenodd;stroke:none;stroke-width:13;stroke-linecap:round;stroke-linejoin:round;stroke-miterlimit:4;stroke-dasharray:none;stroke-opacity:1"/>
  <path d="M96.775 93.62v-8.157l13.312 13.313-13.36 13.36v-8.391H78.119V93.338Z" style="fill:#fee500;fill-opacity:1;stroke:#000;stroke-width:1;stroke-linecap:butt;stroke-linejoin:miter;stroke-miterlimit:4;stroke-dasharray:none;stroke-opacity:1" transform="translate(1.636 .8)"/>
  <path d="M108.393 23.025a2 2 0 0 0-2 2 2 2 0 0 0 2 2h6.482c.868 0 1.264.26 1.613.678.35.417.584 1.088.584 1.785 0 .698-.235 1.368-.584 1.785-.349.418-.745.678-1.613.678h-6.355l-.928.772-16.908 14.052-7.141-15.23h1.84a2 2 0 0 0 2-2 2 2 0 0 0-2-2H75.25a2 2 0 0 0-2 2 2 2 0 0 0 2 2h3.877l6.457 13.773-.654 5.897a14.73 14.73 0 0 0-12.912-7.649 14.725 14.725 0 0 0-14.725 14.725 14.725 14.725 0 0 0 14.725 14.727 14.725 14.725 0 0 0 14.476-12.036l1.227-.005a4.47 4.47 0 0 0 3.506 1.697 4.47 4.47 0 0 0 4.468-4.469 4.47 4.47 0 0 0-4.468-4.467 4.5 4.5 0 0 0-1.657.319v-.002l-.31-.895 18.736-15.572 2.838 7.705a14.73 14.73 0 0 0-7.809 13 14.725 14.725 0 0 0 14.725 14.725 14.725 14.725 0 0 0 14.725-14.725 14.725 14.725 0 0 0-14.725-14.727 14.7 14.7 0 0 0-3.164.344l-2.93-7.959h3.219c1.93 0 3.631-.855 4.682-2.111 1.05-1.256 1.515-2.818 1.515-4.352s-.465-3.095-1.515-4.351c-1.05-1.257-2.751-2.112-4.682-2.112z" style="fill:#fee500;fill-opacity:1;fill-rule:evenodd;stroke:#000;stroke-width:.968142;stroke-linecap:round;stroke-linejoin:round;stroke-miterlimit:4;stroke-dasharray:none" transform="translate(.855 .72)"/>
  <path d="M14.986 6.598c-.764.368-1.645.58-2.089 1.371-.722.698-.932 1.757-1.019 2.726-.003 1.524 1.164 2.684 1.782 3.992 27.9 48.563 55.85 97.099 83.769 145.651 1.007 1.076 2.408 2.3 4.002 1.799 1.333-.142 2.596-.906 3.132-2.169 28.473-49.077 56.899-98.184 85.354-147.273.421-1.402.792-3.218-.428-4.345-.79-1.09-2.086-1.818-3.457-1.646-56.739-.12-113.477-.186-170.216-.284z" style="fill:none;fill-opacity:1;fill-rule:evenodd;stroke:#e51900;stroke-width:13;stroke-linecap:round;stroke-linejoin:round;stroke-miterlimit:4;stroke-dasharray:none;stroke-opacity:1" transform="translate(-5.36 .8)"/>
  <path d="M15.826-.08a6.5 6.5 0 0 0-1.37.144l-.831.178a6.5 6.5 0 0 0-1.46.5c.097-.047-2.156.48-4.065 2.9-2.312 2.45-2.57 5.063-2.696 6.471a7 7 0 0 0-.025.569c-.01 4.85 2.501 6.988 2.404 6.783a7 7 0 0 0 .24.46c27.903 48.567 55.854 97.103 83.772 145.653a6.5 6.5 0 0 0 .889 1.201c.69.739 1.66 1.777 3.351 2.723 1.585.887 4.225 1.556 6.822.93 3.108-.55 6.206-2.43 7.69-5.926l-.361.724c28.475-49.08 56.9-98.189 85.355-147.275a6.5 6.5 0 0 0 .602-1.39c.281-.938.693-2.28.675-4.206-.016-1.81-.743-4.45-2.593-6.396-2.02-2.41-5.196-4.185-9-3.71l.822-.05C129.304.083 72.563.018 15.827-.08" style="color:#000;font-style:normal;font-variant:normal;font-weight:400;font-stretch:normal;font-size:medium;line-height:normal;font-family:sans-serif;font-variant-ligatures:normal;font-variant-position:normal;font-variant-caps:normal;font-variant-numeric:normal;font-variant-alternates:normal;font-variant-east-asian:normal;font-feature-settings:normal;font-variation-settings:normal;text-indent:0;text-align:start;text-decoration:none;text-decoration-line:none;text-decoration-style:solid;text-decoration-color:#000;letter-spacing:normal;word-spacing:normal;text-transform:none;writing-mode:lr-tb;direction:ltr;text-orientation:mixed;dominant-baseline:auto;baseline-shift:baseline;text-anchor:start;white-space:normal;shape-padding:0;shape-margin:0;inline-size:0;clip-rule:nonzero;display:inline;overflow:visible;visibility:visible;opacity:1;isolation:auto;mix-blend-mode:normal;color-interpolation:sRGB;color-interpolation-filters:linearRGB;solid-color:#000;solid-opacity:1;vector-effect:none;fill:none;fill-opacity:1;fill-rule:evenodd;stroke:#000;stroke-linecap:round;stroke-linejoin:round;stroke-miterlimit:4;stroke-dasharray:none;stroke-dashoffset:0;stroke-opacity:1;color-rendering:auto;image-rendering:auto;shape-rendering:auto;text-rendering:auto;stop-color:#000;stop-opacity:1" transform="translate(-5.36 .8)"/>
</svg>
