<svg xmlns="http://www.w3.org/2000/svg" xml:space="preserve" viewBox="-1.933 -.778 808.385 326.999" role="img" aria-labelledby="title">
  <title id="title">Verkehrszeichen M6a - Stationnement ou arrêt gênant ou très gênant</title>
  <path fill="#fff" stroke="#000" stroke-width="2" d="M805.452 266.54c0 32.409-21.314 58.681-47.607 58.681H46.674c-26.293 0-47.607-26.273-47.607-58.681V58.903C-.933 26.494 20.381.222 46.674.222h711.171c26.293 0 47.607 26.273 47.607 58.681z"/>
  <g fill="#010101">
    <path stroke="#010101" stroke-miterlimit="10" stroke-width=".454" d="M121.119 171.074v-70.805H73.136c-6.795.309-12.286 5.416-13.119 11.958l-.127 1.745-2.555 40.964c-7.212.363-12.956 5.489-13.319 11.886v34.367H38.87V218h315.951v-46.925l-233.702-.001zM68.207 113.39c.616-2.962 2.809-5.234 5.545-5.688h38.506v46.961H65.634z"/>
    <path stroke="#010101" stroke-miterlimit="10" stroke-width=".5" d="M100.444 77.879v15.084H80.511V78.442c0-.2.018-.382.054-.563.417-3.053 3.008-5.398 6.143-5.398h7.52c3.135 0 5.708 2.344 6.125 5.398z"/>
    <circle cx="103.889" cy="217.576" r="32.154" stroke="#fff" stroke-width="5"/>
    <circle cx="290.784" cy="217.576" r="32.154" stroke="#fff" stroke-width="5"/>
    <path stroke="#010101" stroke-miterlimit="10" stroke-width=".641" d="M401.826 145.94h-15.475l-43.308-52.468-57.098 71.059h-71.251l127.28-91.123z"/>
  </g>
  <g fill="#010101">
    <path stroke="#010101" stroke-width=".909" d="m762.677 190.212-14.238-4.431-36.204-69.011-137.6-42.835-72.266 38.133-86.736-18.639c-4.964-1.135-10.43.864-12.62 6.642l-6.371 20.589c-1.447 5.959 1.758 7.536 5.245 8.862l19.001 5.959 2.211.693 60.872 18.951 187.368 58.33 60.771 18.921 23.261 7.245L767.7 199.78c1.026-5.73-.2-7.87-5.023-9.568zM534.865 118.82c-4.562-1.648-4.713-4.602-2.08-7.054l44.212-23.332 54.702 17.032-12.279 39.67zm169.684 52.823-74.216-23.101 12.279-39.68 48.01 14.942 20.418 38.967c.583 3.446-2.372 9.937-6.491 8.872z"/>
    <circle cx="454.866" cy="147.42" r="32.154" stroke="#fff" stroke-width="5"/>
    <circle cx="701.743" cy="222.851" r="32.154" stroke="#fff" stroke-width="5"/>
  </g>
</svg>
