<svg xmlns="http://www.w3.org/2000/svg" viewBox="0 0 430 175" role="img" aria-labelledby="title">
  <title id="title">Verkehrszeichen M4c - Motos</title>
  <g transform="translate(0 -877.362)">
    <rect width="428.473" height="173.473" x=".764" y="878.126" ry="30.872" style="fill:#fff;stroke:#000;stroke-width:1.52710259;stroke-miterlimit:4;stroke-dasharray:none;stroke-opacity:1"/>
    <g transform="translate(276.363 364.042)scale(.70621)">
      <path d="M-205.64 832.761c-29.961 0-54.25 23.617-54.25 52.75s24.289 52.75 54.25 52.75 54.25-23.617 54.25-52.75-24.29-52.75-54.25-52.75zm0 89c-20.297 0-36.75-16.175-36.75-36.13 0-19.954 16.453-36.13 36.75-36.13s36.75 16.176 36.75 36.13-16.453 36.13-36.75 36.13z" style="stroke:#000"/>
      <path d="M24.36 833.761c-29.961 0-54.25 23.617-54.25 52.75s24.289 52.75 54.25 52.75 54.25-23.617 54.25-52.75-24.29-52.75-54.25-52.75m0 89c-20.297 0-36.75-16.175-36.75-36.13 0-19.954 16.453-36.13 36.75-36.13s36.75 16.176 36.75 36.13-16.453 36.13-36.75 36.13"/>
      <ellipse cx="-205.14" cy="885.261" rx="18.75" ry="18" style="stroke:red;stroke-width:.17640001;stroke-linecap:round;stroke-linejoin:round"/>
      <ellipse cx="23.61" cy="885.761" rx="18.75" ry="18" style="stroke:red;stroke-width:.17640001;stroke-linecap:round;stroke-linejoin:round"/>
      <path d="m-156.89 798.761-50 77 10.5 6.5 57-76z"/>
      <path d="M-108.705 893.757c3.17 1.29 19.07.916 22.788-.996h60.027l59.5-91h-129.5v43.116a28 28 0 0 0-2.5-.116c-14.636 0-26.5 11.417-26.5 25.5 0 10.562 6.674 19.625 16.185 23.496" style="opacity:.98999999"/>
      <path d="M-17.39 880.761h104v13.5h-104zM15.61 838.761l-14 7 13.5 28.5 12-3zM-181.89 789.761l2-6.5 4-3.5 11.5.5 8 4 6.5 5.5 3.5-4.5 5-12 4-5 4-1.5 6-1.5 6.5-1 11-2 3.5 2.5 1.5 4-26.5 7-4.5 7.5 11.5 5 27 2 9.5 1 8.5 3 9 5.5 6 9-44.5 46-9.5-3.5-.5-7.5-6-1-7.5-.5-7.5-3-5.5-5-7-12-4.5-6.5-5-2.5-14 .5-4.5-5.5-2-6.5v-6.5z"/>
      <path d="m32.86 801.761 5.5 25 10.5 3.5 7 4 6.5 4.5 7 7 4.5 6 4.5 10.5 1 5.5-14.5 2-36.5-28-24 1.5-11.5-31 32-9zM-101.89 836.261h19.5v15h-19.5zM-105.64 881.261h95v12.75h-95z"/>
    </g>
  </g>
</svg>
