<svg xmlns="http://www.w3.org/2000/svg" viewBox="0 0 430 175" role="img" aria-labelledby="title">
  <title id="title">Verkehrszeichen M4t - | Charrettes à bras</title>
  <g transform="translate(0 -877.362)">
    <rect width="428.473" height="173.473" x=".764" y="878.126" ry="30.872" style="fill:#fff;stroke:#000;stroke-width:1.52710247;stroke-miterlimit:4;stroke-dasharray:none;stroke-opacity:1"/>
    <path d="M256.248 887.362c-7.134 0-12.917 5.784-12.917 12.917 0 7.134 5.783 12.918 12.917 12.918q.731-.008 1.456-.098l3.132 4.877-26.116 39.61-40.18 6.28a44.54 44.54 0 0 0-31.05-12.607 44.54 44.54 0 0 0-39.275 23.6L94.59 979.49l1.682 10.754 23.701-3.706a44.5 44.5 0 0 0-1.028 9.266 44.544 44.544 0 0 0 44.544 44.544 44.544 44.544 0 0 0 44.544-44.544 44.54 44.54 0 0 0-5.932-22.137l40.382-6.369 18.102-26.8 19.02 28.278-19.52 28.03.604 32.561c-5.537-.122-6.796 3.832-6.628 6.215.232 3.275 2.315 6.515 7.35 6.518h15.19l-.25-39.54 13.514-21.27c2.064-2.913 4.62-2.779 5.536 1.28l3.222 21.241 16.959 26.484c-4.924 4.142-4.066 6.902-2.937 8.833 1.275 2.18 4.7 5.361 11.254 1.22l11.511-7.257-21.272-34.284-6.256-33.408c-.982-6.34-2.37-10.553-5.005-14.14l-21.521-34.534c-3.412-3.922-9.157-3.962-13-2.384l-2.967-4.946a12.92 12.92 0 0 0 3.776-9.116c0-7.133-5.783-12.917-12.917-12.917m-92.759 72.155a36.3 36.3 0 0 1 20.05 6.068l-22.415 3.504-1.336-9.344a36 36 0 0 1 3.701-.228m-7.893.915 1.332 9.313-21.735 3.398a36.3 36.3 0 0 1 20.403-12.71m37.62 14.636a36.3 36.3 0 0 1 5.849 13.752l-17.621 2.52a18.5 18.5 0 0 0-6.137-9.786l3.649-4.236zm-51.81 8.12 5.72 3.97a18.5 18.5 0 0 0-2.155 8.646 19 19 0 0 0 .027.749l-17.619 2.52a36 36 0 0 1-.175-3.269 36.3 36.3 0 0 1 1.6-10.646zm58.254 9.837a36 36 0 0 1 .116 2.78 36.3 36.3 0 0 1-6.57 20.793l-14.355-10.462a18.5 18.5 0 0 0 3.157-10.332l-.01-.252zm-54.015 7.725a18.5 18.5 0 0 0 4.722 8.106l-10.89 14.108a36.3 36.3 0 0 1-11.453-19.694zm30.539 8.52 14.469 10.543a36.3 36.3 0 0 1-20.606 11.662l-2.52-17.623a18.5 18.5 0 0 0 8.657-4.582m-22.613 2.148a18.5 18.5 0 0 0 9.731 2.895l2.532 17.693a36 36 0 0 1-2.345.083 36.3 36.3 0 0 1-20.8-6.575z" style="opacity:1;fill:#000;fill-opacity:1;fill-rule:evenodd;stroke:none;stroke-width:.30000001;stroke-linecap:round;stroke-linejoin:round;stroke-miterlimit:4;stroke-dasharray:none;stroke-dashoffset:0;stroke-opacity:1"/>
  </g>
</svg>
