<svg xmlns="http://www.w3.org/2000/svg" viewBox="0 0 300.17 150.21" role="img" aria-labelledby="title">
  <title id="title">Verkehrszeichen M10b - Sortie</title>
  <path d="M24.36 902.657H275.8a23.81 23.81 0 0 1 23.86 23.86v101.485a23.81 23.81 0 0 1-23.86 23.86H24.36a23.81 23.81 0 0 1-23.86-23.86V926.517a23.81 23.81 0 0 1 23.86-23.86z" style="fill:#fff;stroke:#000;stroke-opacity:1" transform="translate(0 -902.152)"/>
  <path d="M83.429 930.468H217.8c25.032 0 45.183 20.151 45.183 45.183v3.213c0 25.032-20.151 45.184-45.183 45.184H83.429c-25.032 0-45.184-20.152-45.184-45.184v-3.213c0-25.032 20.152-45.183 45.184-45.183z" style="fill:none;stroke:#000;stroke-width:13.60942841;stroke-linecap:butt;stroke-linejoin:round;stroke-miterlimit:4;stroke-opacity:1;stroke-dashoffset:0" transform="translate(0 -902.152)"/>
  <path d="m215.727 326.02 8.82-52.993h6.236v52.993zM234.491 326.02v-52.993h5l4.27 23.494c.351.603.727.967 1.236 0 2.558-6.798 7.73-10.374 13.864-13.448.85-.199.553-.91.187-1.16l-7.75-6.523c-.307-.507-1.681-1.94.633-2.363h28.683c2.78 0 2.238 2.141 1.664 3.56l-12.956 22.59c-.617 1.69-1.756 2.246-2.443.14l-2.783-9.025c-.752-1.149-1.421-.819-2.1-.673-5.586 1.913-10.459 11.785-12.837 23.596-.623 4.87-.565 8.604-.787 12.805z" style="fill:#000;stroke:#000;stroke-width:1px;stroke-linecap:butt;stroke-linejoin:miter;stroke-opacity:1" transform="translate(-149.386 -224.337)"/>
  <g style="font-size:73.82912445px;font-style:normal;font-variant:normal;font-weight:400;font-stretch:normal;text-align:center;line-height:125%;letter-spacing:0;word-spacing:0;text-anchor:middle;fill:#000;fill-opacity:1;stroke:none;font-family:Caracteres L1;-inkscape-font-specification:Caracteres L1">
    <path d="M177.003 49.195q3.57.577 7.895 3.641 1.298 1.045 2.848 3.28l1.262 2.308.469 1.117-.109.108q.902 2.452.902 4.687-.217 4.326-.793 5.587-.975 2.596-1.73 3.714l-.83 1.19-1.838 2.018-15.033 14.96h21.017v10.31h-35.509l.036-10.418 22.17-22.386q1.046-1.261 1.479-2.308 1.116-3.64-1.046-6.128-1.983-1.91-5.588-1.91l-2.126.288-.974.469-.613.036-1.333 1.045-.758.901q-.72 1.297-.973 2.019l-.216 1.262q-.144.396-.18.288l-9.734.036-.072-.252.072-1.767.144-.216q.146-2.27 1.478-5.083l1.659-2.776 1.334-1.478.216-.072q3.82-3.424 8.508-4.254 2.739-.468 4.974-.468 1.659 0 2.992.252M220.046 49.05q5.371 1.046 9.049 5.769 3.676 4.722 3.028 11.608-.974 4.722-3.893 7.895 4.83 5.587 4.83 11.752 0 3.568-1.658 7.318-5.12 8.832-15.105 9.264-8.254-.108-13.086-5.01-4.11-4.47-4.686-9.95-.036-.614-.036-1.262 0-7.137 4.83-11.896-4.037-5.48-4.037-9.337.036-6.921 3.75-11.103 3.892-4.146 8.218-4.975a24.4 24.4 0 0 1 4.579-.433q2.055 0 4.218.36m-4.722 43.62q6.885-.18 8.003-5.875.144-6.49-6.597-7.607-7.174-.36-8.472 6.056-.216 6.525 7.066 7.427m-.54-23.107q6.525.252 7.606-5.227-.397-5.227-6.057-5.516-6.561 0-7.137 4.867.144 4.831 5.587 5.876"/>
  </g>
</svg>
