<svg xmlns="http://www.w3.org/2000/svg" viewBox="0 0 430 366" role="img" aria-labelledby="title">
  <title id="title">Verkehrszeichen M4m - Véhicule transportant des marchandises dangeureuses</title>
  <g transform="translate(0 -686.362)">
    <rect width="427.79" height="363.79" x="1.105" y="687.467" ry="64.742" style="fill:#fff;stroke:#000;stroke-width:2.209692;stroke-miterlimit:4;stroke-dasharray:none;stroke-opacity:1"/>
    <path d="m328.114 357.475 6.982-.484v-5.815l4.989-5.815h14.298l4.988 5.815v42.153l-4.655 5.814-14.631.484-4.657-5.329-.332-6.299h-6.982v-11.628l-34.583 1.938-7.648 3.877-8.646-3.393-33.917-2.907v12.113h-7.316v5.814l-3.657 4.846-16.626.484-3.325-5.33.332-42.152 3.657-5.813h15.297l4.322 4.843.332 6.3 7.316.484v11.144l33.918-1.937 7.315-3.877 8.646 3.39 34.583 2.424z" style="stroke:#000;stroke-width:.17640001;stroke-linecap:round;stroke-linejoin:round" transform="translate(-182.946 473.36)scale(1.38474)"/>
    <path d="M-625.928 667.275h167.925v4.845h-167.925z" style="stroke:#000;stroke-width:5;stroke-linecap:round;stroke-linejoin:round" transform="translate(965.483 2.099)scale(1.38474)"/>
    <path d="m341.393 298.614-106.669 1.217V189.119h106.669z" style="fill:none;stroke:#ff0;stroke-width:.17640001;stroke-linecap:round;stroke-linejoin:round" transform="translate(-182.946 473.36)scale(1.38474)"/>
    <path d="m363.061 314.43-150.838-1.217 12.501-137.477H350.56z" style="stroke:#000;stroke-width:7;stroke-linecap:round;stroke-linejoin:round" transform="translate(-182.946 473.36)scale(1.38474)"/>
    <path d="M-598.288 524.381h112v121h-112z" style="fill:#f17e01" transform="translate(965.483 2.099)scale(1.38474)"/>
  </g>
</svg>
