<svg xmlns="http://www.w3.org/2000/svg" viewBox="0 0 430 350" role="img" aria-labelledby="title">
  <title id="title">Verkehrszeichen M4y - | Cavaliers et cavalières chevauchant un cheval</title>
  <g transform="translate(0 -702.362)">
    <rect width="427.839" height="347.839" x="1.081" y="703.443" ry="61.903" style="fill:#fff;stroke:#000;stroke-width:2.16100001;stroke-miterlimit:4;stroke-dasharray:none;stroke-opacity:1"/>
    <path d="m177.055 1028.963-41-91.915c-6.1-13.974-7.011-15.796-7.968-15.926l-42.66 24.959v48.787l-18.777 10.05V930.17l50.852-33.193c-.082-.676-2.831-7.783-3.68-9.512-.213-.436-1.015-3.249-1.781-6.25-1.277-5.001-1.392-6.21-1.372-14.457.011-4.95.283-10.37.603-12.046.657-3.434.732-3.19-3.363-10.954l-15.942-29.104-38.242 19.683c-2.5 1.569-3.1 1.486-4.739-.65-.768-1-1.737-2.185-2.153-2.631-1.516-1.626-2.868-3.84-3.46-5.668-.604-1.86-.588-1.896 3.333-7.75 7.605-11.352 9.517-16.526 8.988-24.321l-.276-4.064 3.836-4.598c2.11-2.528 5.186-6.104 6.836-7.945l3-3.348.172-22.266c.26-.397 1.113-.598 2.13-.5 1.462.14 1.976.589 3.698 3.236 4.18 6.426 6.02 9.308 6.608 10.349.589 1.04.914 1.077 9.75 1.077 8.548 0 9.432.09 13.613 1.373 6.282 1.928 14.514 6.026 17.995 8.957.293.247 1.75 1.338 3.236 2.425s3.754 2.97 5.039 4.188c2.522 2.388 9.594 10.039 10.936 11.83a99 99 0 0 0 2.323 2.913c.825.998 1.725 2.181 2 2.63.275.45 1.4 2.1 2.5 3.668 2.97 4.234 3.609 5.262 5.031 8.098.713 1.42 1.711 2.958 2.22 3.418l27.797-16.328c.167-.27-.405-1.822-1.271-3.447-2.341-4.393-3.193-7.695-3.078-11.932.116-4.287 1.194-7.092 3.857-10.04 1.574-1.742 1.694-2.068 1.145-3.1-1.44-2.7-3.234-4.41-4.951-4.717-3.176-.568-6.952-2.689-8.869-4.981-2.67-3.194-3.52-5.793-3.828-11.702-.148-2.825-.367-5.234-.488-5.355-.12-.12-3.332-.602-7.137-1.07-5.232-.643-6.953-1.03-7.059-1.59-.108-.573 1.404-1.04 6.746-2.081 6.164-1.202 6.99-1.486 7.885-2.709 4.684-6.68 11.426-9.93 17.25-9.944 4.74-.004 5.517.13 8 1.377 4.597 2.21 8.864 6.314 10.4 11.119 1.991 6.822 2.062 9.599.264 10.282-.644.245-1.124.62-1.067.832.554 2.037-2.665 8.118-5.677 10.725-1.922 1.664-1.72 2.903.946 5.83 1.816 1.994 2 2.07 5.134 2.146 3.375.08 6.575 1.014 8.185 2.387.514.439 2.188 2.71 3.72 5.048l32.353 50.564c.2.652.56 1.432.8 1.733.963 1.21.805 6.555-.366 12.396-1.805 9-1.985 8.62 2.933 6.212 5.733-2.806 8.367-3.75 15.875-5.692 4.427-1.145 15.529-1.446 20.25-.548 7.385 1.403 13.291 3.892 18.387 7.75 3.951 2.99 4.712 3.746 7.318 7.274 1.142 1.546 2.291 2.81 2.553 2.81s2.52-.678 5.016-1.507c2.496-.83 7.056-1.968 10.132-2.529 3.077-.561 6.156-1.18 6.844-1.374.687-.194 5.075-.325 9.75-.291 9.315.067 13.203.715 17.633 2.94 3.223 1.619 8.127 6.325 10.472 10.05 1.826 2.902 3.162 5.45 3.722 7.101.347 1.023.805 2.103 1.017 2.4s.841 2.096 1.398 4a325 325 0 0 0 1.489 4.96c1.45 4.573 3.873 20.85 4.261 28.616.134 2.687.377 6.734.54 8.994l.295 4.072h-27.37c-.307-.498-.662-9.427-.968-24.362-.35-17.065-.976-19.944-5.412-24.878-4.875-5.422-13.147-7.31-23.788-5.428-5.418.958-8.04 1.67-8.04 2.187 0 .226.676 1.9 1.5 3.72.826 1.819 1.5 3.83 1.5 4.469 0 .638.24 1.4.532 1.692 1.044 1.044 1.183 11.225.23 16.789l-.887 5.172 29.15 46.241c.479.706 1.44 2.394 2.137 3.75.845 1.644 1.127 2.22 1.315 7.566l1.668 66.606h-18.629L337.92 964.4c-.068-2.433-.315-3.125-1.66-4.657-1.863-2.122-4.028-3.274-12.71-6.761-9.634-3.87-13.891-6.217-23.21-12.798-2.247-1.587-8.361-7.48-14.902-14.366-2.833-2.983-5.245-5.33-5.359-5.216s.03 1.095.32 2.181l13.663 47.29.834 2.816-2.294 4.435-27.548 51.639-22.578-.378 28.27-51.577c5.547-9.722 5.535-9.906-1.157-17.75-3.594-4.214-14.815-19.598-16.746-22.96-.486-.847-1.98-3.423-3.319-5.724-2.538-4.363-5.078-9.132-5.934-11.142-.584-1.372-2.265-1.474-8-.483-15.491 2.678-27.535 3.431-40.99 2.563-8.706-.561-20.632-2.06-23.757-2.987-3.345-.99-5.93-.667-7.542.944-2.152 2.153-1.93 3.735 1.31 9.347 4.757 8.24 5.587 11.933 6.185 27.54.44 11.473.588 12.295 3.322 18.402l22.722 54.205zm24.97-201.383c.772-.853.694-2.356-.16-3.072-.164-.138-.725-.925-1.246-1.75-1.482-2.347-7.79-10.75-8.069-10.75l-26.452 18.387c.195.475.478 1.313.628 1.863s.743 1.596 1.318 2.326c.575.729 1.532 1.966 2.127 2.75 3 3.952 5.116 5.936 6.053 6.442z" style="fill:#000;stroke-width:2.16100001;stroke-miterlimit:4;stroke-dasharray:none"/>
  </g>
</svg>
