<svg xmlns="http://www.w3.org/2000/svg" viewBox="0 0 430.8 300" role="img" aria-labelledby="title">
  <title id="title">Verkehrszeichen M4g - | Véhicules de marchandises | rowspan = 3 | Même remarque que M4a</title>
  <g transform="translate(0 -752.362)">
    <rect width="430.217" height="299.418" x=".1" y="752.844" ry="53.286" style="fill:#fff;stroke:#000;stroke-width:.96395808;stroke-opacity:1"/>
    <path d="M73.98 7.126h-269.174V-6.795h4.895v-34.213c-1.012-5.511 8.305-8.294 9.343-6.843l3.915-37.595c.151-4.08 1.3-7.765 8.782-8.074h32.24v-27.004c-.311-7.222 4.159-8.92 8.589-8.59H66.776c7.204 0 7.375 5.74 7.204 7.205z" style="fill:#000;fill-opacity:1;stroke:none" transform="translate(291.456 962.244)scale(1.2623)"/>
    <path d="M-133.355-46.395v-36.247c-.153-1.375.316-2.952-2.758-2.764h-27.736c-1.8-.118-5.337 1.004-5.286 5.298l-2.988 33.713z" style="fill:#fff;stroke:none" transform="translate(291.456 962.244)scale(1.2623)"/>
    <path d="M235.36 128.136c0 15.726-12.748 28.474-28.474 28.474s-28.475-12.748-28.475-28.474S191.16 99.66 206.886 99.66s28.474 12.749 28.474 28.475z" style="fill:#000;fill-opacity:1;fill-rule:nonzero;stroke:#fff;stroke-width:3;stroke-miterlimit:4;stroke-opacity:1;stroke-dasharray:none" transform="translate(-174.087 793.813)scale(1.3843)"/>
    <path d="M235.36 128.136c0 15.726-12.748 28.474-28.474 28.474s-28.475-12.748-28.475-28.474S191.16 99.66 206.886 99.66s28.474 12.749 28.474 28.475z" style="fill:#000;fill-opacity:1;fill-rule:nonzero;stroke:#fff;stroke-width:3;stroke-miterlimit:4;stroke-opacity:1;stroke-dasharray:none" transform="translate(26.75 793.813)scale(1.3843)"/>
  </g>
</svg>
