<svg xmlns="http://www.w3.org/2000/svg" viewBox="0 0 739 300" role="img" aria-labelledby="title">
  <title id="title">Verkehrszeichen M4a - M4a</title>
  <g transform="translate(0 -752.362)">
    <rect width="737.517" height="298.739" x=".63" y="752.993" ry="53.165" style="fill:#fff;stroke:#000;stroke-width:1.2606884199999999;stroke-opacity:1"/>
    <path d="M117.774 953.222c-5.158-.32-10.063-1.087-10.589-9.56v-29.851c.533-8.538 6.956-13.443 14.001-13.976L243.88 888.77l80.178-80.18H524.13l76.347 76.348h20.709c7.093.254 9.585 2.585 10.58 10.58v57.755H145.421z" style="fill:#000;stroke:#000;stroke-width:1.26068842px;stroke-linecap:butt;stroke-linejoin:miter;stroke-opacity:1"/>
    <path d="M412.686 884.315h-122.94c-6.73-.29-8.146-4.14-5.658-8.46l49.064-49.064h79.534zM428.55 884.315h107.913c5.907-.29 7.15-10.089 4.966-14.409l-43.066-43.115H428.55z" style="fill:#fff;stroke:none"/>
    <path d="M186.547 371.663c0 16.41-13.304 29.714-29.714 29.714-16.411 0-29.714-13.303-29.714-29.714s13.303-29.714 29.714-29.714 29.714 13.304 29.714 29.714z" style="fill:#000;stroke:#fff;stroke-width:2.53846169;stroke-linecap:butt;stroke-linejoin:miter;stroke-miterlimit:4;stroke-opacity:1;stroke-dasharray:none;stroke-dashoffset:0" transform="translate(-40.768 400.333)scale(1.4899)"/>
    <path d="M186.547 371.663c0 16.41-13.304 29.714-29.714 29.714-16.411 0-29.714-13.303-29.714-29.714s13.303-29.714 29.714-29.714 29.714 13.304 29.714 29.714z" style="fill:#000;stroke:#fff;stroke-width:2.53846169;stroke-linecap:butt;stroke-linejoin:miter;stroke-miterlimit:4;stroke-opacity:1;stroke-dasharray:none;stroke-dashoffset:0" transform="translate(320.102 402.136)scale(1.4899)"/>
  </g>
</svg>
