<svg xmlns="http://www.w3.org/2000/svg" xml:space="preserve" fill-rule="evenodd" stroke-linejoin="round" stroke-width="28.222" preserveAspectRatio="xMidYMid" viewBox="0 0 12518 12518" role="img" aria-labelledby="title">
  <title id="title">Verkehrszeichen SI1b - Direction interdite aux véhicules de transport de marchandises dont le poids total autorisé en charge ou le poids total roulant autorisé excède le nombre indiqué</title>
  <defs class="ClipPathGroup">
    <clipPath id="a" clipPathUnits="userSpaceOnUse">
      <path d="M0 0h21001v29703H0z"/>
    </clipPath>
  </defs>
  <g class="SlideGroup">
    <g class="Slide" clip-path="url(#a)" transform="translate(-4154 -7268)">
      <g class="Page">
        <g class="Group">
          <g class="com.sun.star.drawing.ClosedBezierShape">
            <path fill="none" d="M5738 8824h9383v9384H5738z" class="BoundingBox"/>
            <path fill="#fff" d="M10428 8825h1c823 0 1632 217 2346 628 713 412 1305 1004 1717 1717 411 714 628 1523 628 2346s-217 1632-628 2345c-412 714-1004 1306-1717 1718-714 411-1523 628-2346 628s-1632-217-2345-628c-714-412-1306-1004-1718-1718-411-713-628-1522-628-2345s217-1632 628-2346c412-713 1004-1305 1718-1717 712-411 1521-628 2344-628"/>
          </g>
          <g class="Group">
            <g class="com.sun.star.drawing.ClosedBezierShape">
              <path fill="none" d="M4154 7268h12518v12518H4154z" class="BoundingBox"/>
              <path fill="#fefefe" d="M10411 7277h2c1097 0 2174 289 3124 837 950 549 1739 1338 2288 2288 548 950 837 2027 837 3124 0 1098-289 2175-837 3125-549 950-1338 1739-2288 2288-950 548-2027 837-3124 837-1098 0-2175-289-3125-837-950-549-1739-1338-2288-2288-548-950-837-2027-837-3125 0-1097 289-2174 837-3124 549-950 1338-1739 2288-2288 950-548 2027-837 3123-837"/>
              <path fill="none" stroke="#1b1918" stroke-width="18" d="M10411 7277h2c1097 0 2174 289 3124 837 950 549 1739 1338 2288 2288 548 950 837 2027 837 3124 0 1098-289 2175-837 3125-549 950-1338 1739-2288 2288-950 548-2027 837-3124 837-1098 0-2175-289-3125-837-950-549-1739-1338-2288-2288-548-950-837-2027-837-3125 0-1097 289-2174 837-3124 549-950 1338-1739 2288-2288 950-548 2027-837 3123-837z"/>
            </g>
            <g class="com.sun.star.drawing.ClosedBezierShape">
              <path fill="none" d="M4463 7578h11898v11899H4463z" class="BoundingBox"/>
              <path fill="red" d="M10410 7579h2c1044 0 2069 275 2974 797 904 522 1655 1273 2177 2177 522 905 797 1930 797 2974 0 1045-275 2070-797 2975-522 904-1273 1655-2177 2177-905 522-1930 797-2974 797-1045 0-2070-275-2975-797-904-522-1655-1273-2177-2177-522-905-797-1930-797-2975 0-1044 275-2069 797-2974 522-904 1273-1655 2177-2177s1930-797 2973-797"/>
            </g>
            <g class="com.sun.star.drawing.ClosedBezierShape">
              <path fill="none" d="M5715 8828h9396v9397H5715z" class="BoundingBox"/>
              <path fill="#fefefe" d="M10411 8829h2c824 0 1634 217 2348 629 714 413 1307 1006 1720 1720 412 714 629 1524 629 2348 0 825-217 1635-629 2349-413 714-1006 1307-1720 1720-714 412-1524 629-2348 629-825 0-1635-217-2349-629-714-413-1307-1006-1720-1720-412-714-629-1524-629-2349 0-824 217-1634 629-2348 413-714 1006-1307 1720-1720 714-412 1523-629 2347-629"/>
            </g>
          </g>
          <g class="com.sun.star.drawing.ClosedBezierShape">
            <path fill="none" d="M7768 10386h5327v6679H7768z" class="BoundingBox"/>
            <path d="M9032 12287c274 0 497 223 497 497s-223 497-497 497-497-223-497-497 223-497 497-497m2813 2c274 0 497 223 497 497 0 273-223 497-497 497s-497-224-497-497c0-274 223-497 497-497m-2235 475c2-310-264-560-581-560s-579 245-579 562l-383-1 1-223h81l-1-572c0-106 60-157 167-158l68-654c17-124 45-139 175-139h565v-520c0-61 63-114 124-113h3426c77 0 119 32 119 113v2269h-358c-2-316-273-565-589-565s-593 242-594 559zm-486-1615h-504c-89-4-101 9-108 114l-53 549h664zm674 5086h414l-101 828h-313zm3296 339c-100 58-243 76-359 76-112 0-286-54-356-172-54-90-87-146-89-341l-1-773-208-1-1-339 208 1 1-290 374-88v371l244 3-2 340-243 3 1 784c1 155 187 201 327 85zm-2265-509-375 93c119 399 434 493 713 493 353 0 641-288 641-642 0-353-288-642-641-642-56 0-163 7-222 15l38-351h685v-375h-1037l-98 902 343 271c68-55 174-71 239-71 212 0 307 121 307 250 0 130-121 257-307 257-171 0-253-108-286-200m-2558-201-503 125c159 536 583 661 957 661 475 0 862-386 862-861 0-476-387-862-862-862-75 0-219 8-298 20l51-472h920v-504H8006l-132 1210 460 365c92-74 235-94 322-94 284 0 412 162 412 336 0 173-163 344-413 344-229 0-339-145-384-268"/>
          </g>
        </g>
      </g>
    </g>
  </g>
</svg>
