<svg xmlns="http://www.w3.org/2000/svg" xml:space="preserve" fill-rule="evenodd" stroke-linejoin="round" stroke-width="28.222" preserveAspectRatio="xMidYMid" viewBox="0 0 12518 12518" role="img" aria-labelledby="title">
  <title id="title">Verkehrszeichen SI12 - SI12</title>
  <defs class="ClipPathGroup">
    <clipPath id="a" clipPathUnits="userSpaceOnUse">
      <path d="M0 0h21001v29703H0z"/>
    </clipPath>
  </defs>
  <g class="SlideGroup">
    <g class="Slide" clip-path="url(#a)" transform="translate(-4154 -7268)">
      <g class="Page">
        <g class="Group">
          <g class="com.sun.star.drawing.ClosedBezierShape">
            <path fill="none" d="M4154 7268h12518v12518H4154z" class="BoundingBox"/>
            <path fill="#fefefe" d="M10411 7277h2c1097 0 2174 289 3124 837 950 549 1739 1338 2288 2288 548 950 837 2027 837 3124 0 1098-289 2175-837 3125-549 950-1338 1739-2288 2288-950 548-2027 837-3124 837-1098 0-2175-289-3125-837-950-549-1739-1338-2288-2288-548-950-837-2027-837-3125 0-1097 289-2174 837-3124 549-950 1338-1739 2288-2288 950-548 2027-837 3123-837"/>
            <path fill="none" stroke="#1b1918" stroke-width="18" d="M10411 7277h2c1097 0 2174 289 3124 837 950 549 1739 1338 2288 2288 548 950 837 2027 837 3124 0 1098-289 2175-837 3125-549 950-1338 1739-2288 2288-950 548-2027 837-3124 837-1098 0-2175-289-3125-837-950-549-1739-1338-2288-2288-548-950-837-2027-837-3125 0-1097 289-2174 837-3124 549-950 1338-1739 2288-2288 950-548 2027-837 3123-837z"/>
          </g>
          <g class="com.sun.star.drawing.ClosedBezierShape">
            <path fill="none" d="M4463 7578h11898v11899H4463z" class="BoundingBox"/>
            <path fill="red" d="M10410 7579h2c1044 0 2069 275 2974 797 904 522 1655 1273 2177 2177 522 905 797 1930 797 2974 0 1045-275 2070-797 2975-522 904-1273 1655-2177 2177-905 522-1930 797-2974 797-1045 0-2070-275-2975-797-904-522-1655-1273-2177-2177-522-905-797-1930-797-2975 0-1044 275-2069 797-2974 522-904 1273-1655 2177-2177s1930-797 2973-797"/>
          </g>
          <g class="com.sun.star.drawing.ClosedBezierShape">
            <path fill="none" d="M5715 8828h9396v9397H5715z" class="BoundingBox"/>
            <path fill="#fefefe" d="M10411 8829h2c824 0 1634 217 2348 629 714 413 1307 1006 1720 1720 412 714 629 1524 629 2348 0 825-217 1635-629 2349-413 714-1006 1307-1720 1720-714 412-1524 629-2348 629-825 0-1635-217-2349-629-714-413-1307-1006-1720-1720-412-714-629-1524-629-2349 0-824 217-1634 629-2348 413-714 1006-1307 1720-1720 714-412 1523-629 2347-629"/>
          </g>
          <g class="Group">
            <g class="com.sun.star.drawing.ClosedBezierShape">
              <path fill="none" d="M8148 15333h4488v1659H8148z" class="BoundingBox"/>
              <path d="M10391 16455c103 0 198-78 239-147l969-31v268h249v327c0 63 66 117 129 117h520c68 0 136-56 136-115v-1425c0-58-68-114-136-114h-520c-63 0-129 53-129 117v326h-249v269l-969-30c-41-68-114-141-239-144-124-2-202 71-241 144l-967 30v-269h-248v-326c0-64-66-117-130-117h-519c-68 0-136 56-136 114v1425c0 59 68 115 136 115h519c64 0 130-54 130-117v-327h248v-268l967 31c41 69 139 147 241 147"/>
              <path fill="none" stroke="#1b1918" stroke-linejoin="miter" stroke-width="3" d="M10391 16455c103 0 198-78 239-147l969-31v268h249v327c0 63 66 117 129 117h520c68 0 136-56 136-115v-1425c0-58-68-114-136-114h-520c-63 0-129 53-129 117v326h-249v269l-969-30c-41-68-114-141-239-144-124-2-202 71-241 144l-967 30v-269h-248v-326c0-64-66-117-130-117h-519c-68 0-136 56-136 114v1425c0 59 68 115 136 115h519c64 0 130-54 130-117v-327h248v-268l967 31c41 69 139 147 241 147z"/>
            </g>
            <g class="com.sun.star.drawing.PolyPolygonShape">
              <path fill="none" d="M7804 14660h5214v333H7804z" class="BoundingBox"/>
              <path d="M7806 14662h5209v328H7806Z"/>
              <path fill="none" stroke="#1b1918" stroke-linejoin="miter" stroke-width="3" d="M7806 14662h5209v328H7806Z"/>
            </g>
            <g class="com.sun.star.drawing.ClosedBezierShape">
              <path fill="none" d="M8124 10064h4529v4334H8124z" class="BoundingBox"/>
              <path d="m12650 14395-181-3986c-12-175-185-343-385-343H8742c-224 0-370 173-387 370l-229 3959z"/>
              <path fill="none" stroke="#1b1918" stroke-linejoin="miter" stroke-width="3" d="m12650 14395-181-3986c-12-175-185-343-385-343H8742c-224 0-370 173-387 370l-229 3959z"/>
            </g>
            <g class="com.sun.star.drawing.PolyPolygonShape">
              <path fill="none" d="M8721 10510h3371v3459H8721z" class="BoundingBox"/>
              <path fill="#faab44" d="M8723 10512h3366v3454H8723Z"/>
              <path fill="none" stroke="#1b1918" stroke-linejoin="miter" stroke-width="3" d="M8723 10512h3366v3454H8723Z"/>
            </g>
          </g>
        </g>
      </g>
    </g>
  </g>
</svg>
