<svg xmlns="http://www.w3.org/2000/svg" xml:space="preserve" fill-rule="evenodd" stroke-linejoin="round" stroke-width="28.222" preserveAspectRatio="xMidYMid" viewBox="0 0 12521 12523" role="img" aria-labelledby="title">
  <title id="title">Verkehrszeichen SC6 - Direction conseillée aux véhicules dont la largeur, chargement compris, est supérieure au nombre indiqué</title>
  <defs class="ClipPathGroup">
    <clipPath id="a" clipPathUnits="userSpaceOnUse">
      <path d="M0 0h21001v29703H0z"/>
    </clipPath>
  </defs>
  <g class="SlideGroup">
    <g class="Slide" clip-path="url(#a)" transform="matrix(.99856 0 0 .9984 -4164.014 -7245.429)">
      <g class="Page">
        <g class="Group">
          <g class="com.sun.star.drawing.PolyPolygonShape" style="display:inline">
            <path fill="#fefefe" d="M4179.013 7266.014v12524.971h12520.976V7266.014Z"/>
            <path fill="none" stroke="#1b1918" stroke-width="18" d="M3679 7582v12505h12503V7582Z" transform="matrix(1.00144 0 0 1.0016 494.724 -328.096)"/>
          </g>
          <g class="com.sun.star.drawing.PolyPolygonShape">
            <path fill="none" d="M4489 7576h11901v11901H4489z" class="BoundingBox"/>
            <path fill="#00f" d="M4489 7576h11900v11900H4489Z"/>
          </g>
          <g class="com.sun.star.drawing.ClosedBezierShape">
            <path fill="none" d="M4587 11941h11706v3550H4587z" class="BoundingBox"/>
            <path fill="#fefefe" d="M7775 13158c17-20 32-38 44-57s22-35 30-50c7-20 13-39 18-59s8-39 8-59c0-35-3-66-8-94s-12-53-22-76c-10-25-22-47-37-66-15-20-32-37-52-52-17-14-37-28-62-41-25-12-51-22-78-29s-56-13-88-19c-33-4-67-6-101-6-62 0-116 7-164 23s-90 39-124 68q-48 45-81 111c-22 44-36 95-41 151h-609q7.5-99 30-195c15-64 34-124 59-181 25-59 54-114 89-166 34-51 72-98 114-140 44-42 93-81 146-116q79.5-54 171-87c64-25 132-43 204-57 71-14 146-20 224-20 39 0 80 1 117 5 39 3 75 9 109 17 37 7 73 15 107 25 35 10 68 21 100 34 32 12 63 26 94 42s59 34 83 53c28 17 53 37 78 58s48 42 70 64c22 23 43 45 65 69 21 23 39 47 56 71 18 25 34 51 49 78 14 27 27 55 36 85 13 27 24 55 34 85s17 59 22 88c5 30 9 61 13 93 3 32 5 62 5 92 0 22-1 44-2 65 0 20-1 41-1 60-3 20-6 40-9 59-4 20-9 40-14 59-2 17-7 36-14 56-8 19-15 39-22 59-8 17-17 35-26 55-10 20-21 40-33 59-11 18-23 37-39 57-16 21-31 41-46 61s-32 41-52 65c-20 23-39 46-59 68s-41 46-65 70c-23 26-48 52-75 79-25 24-52 52-83 83s-63 61-94 90l-540 531h1259v606H6419v-606zm2455 1167q6 21 18 42c7 15 16 30 26 45 7 14 18 28 30 41 13 14 26 27 40 38 15 12 32 23 48 33 17 9 35 18 54 25 19 8 41 14 64 18 24 4 49 6 76 6 59 0 111-9 158-26 23-10 45-21 66-34 20-12 38-26 54-39 17-16 32-32 45-50 12-18 24-35 33-52 8-20 15-40 19-60 5-21 8-40 8-57 0-21-2-42-6-61-4-20-9-39-15-56-8-20-18-38-31-55-12-18-25-32-39-44-15-16-33-30-54-41q-30-18-66-30c-23-9-49-16-78-20-30-3-60-5-91-5-10 0-21 0-33 1-13 1-25 1-37 1s-24 2-38 4c-14 3-27 7-41 11-13 2-27 5-41 10-13 5-26 10-38 16-13 6-27 12-39 19-13 7-24 15-34 25l-426-340 122-1121h1291v467h-852l-47 438c8-2 17-4 28-6 11-1 22-2 33-2 12 0 24-1 38-3s26-3 38-3c14 0 27-1 40-2 12-1 24-1 36-1s22-1 32-2 20-1 29-1c28 0 55 1 82 4s54 8 79 13c25 6 51 13 76 21s49 16 73 26c23 8 47 18 70 31 23 12 46 26 67 42 20 14 40 29 62 45 21 17 40 34 58 51 17 18 34 38 51 58q25.5 31.5 45 63c14 19 27 41 39 64 13 24 24 47 34 71 10 23 19 47 28 72 9 26 15 52 19 79 6 25 10 52 13 79s5 55 5 82c0 25-2 51-5 79-3 27-6 54-10 81-6 26-13 51-22 76-9 26-17 50-25 73-10 24-21 47-34 70-12 24-25 46-39 67q-22.5 30-48 60c-17 21-34 40-51 58-18 17-37 34-58 50-22 17-42 33-62 49q-31.5 19.5-66 39c-22 13-45 24-68 33-24 10-48 19-73 27s-51 14-76 20c-27 6-55 10-82 13s-54 5-82 5q-31.5 0-66-3c-21-2-43-3-65-3-21-2-44-5-67-9-24-4-45-8-64-12-22-5-44-11-68-17-23-6-44-12-64-18-21-7-42-16-63-26-20-9-40-20-60-32-21-12-41-25-59-39-19-15-37-29-54-43q-27-22.5-54-51-28.5-27-48-54c-16-21-32-44-47-67-16-23-30-47-41-70-12-25-24-52-36-80-13-28-23-58-31-89zm3123-239v986h-406v-986l-7-91-18-76-29-61-40-55-44-43-50-29-58-20-55-7-54 4-55 19-50 25-48 44-39 54-29 66-19 76-7 94v986h-406v-1741h406v127l94-62 106-47 116-29h116l119 22 58 25 59 33 54 39 58 55 51 65 50 73 44-84 62-69 73-58 84-47 90-36 98-18 98-7 98 10 94 26 95 43 83 66 76 83 62 102 47 124 29 149 11 170v986h-410l4-986-8-91-18-72-29-65-36-51-47-44-55-25-54-18-58-9-54 9-55 18-54 25-47 44-37 51-32 65-19 72zm-4435 1404v-806h399l-102 806zm-2968-2569v1578l-1363-788zm8978 0v1578l1364-788z"/>
          </g>
        </g>
      </g>
    </g>
  </g>
</svg>
