<svg xmlns="http://www.w3.org/2000/svg" xml:space="preserve" fill-rule="evenodd" stroke-linejoin="round" stroke-width="28.222" preserveAspectRatio="xMidYMid" viewBox="0 0 12518 12518" role="img" aria-labelledby="title">
  <title id="title">Verkehrszeichen SI13 - Direction interdite aux motocyclettes et motocyclettes légères, au sens de l’article R.311-1 du code de la route</title>
  <defs class="ClipPathGroup">
    <clipPath id="a" clipPathUnits="userSpaceOnUse">
      <path d="M0 0h21001v29703H0z"/>
    </clipPath>
  </defs>
  <g class="SlideGroup">
    <g class="Slide" clip-path="url(#a)" transform="translate(-4155 -7268)">
      <g class="Page">
        <g class="Group">
          <g class="com.sun.star.drawing.ClosedBezierShape">
            <path fill="none" d="M4155 7268h12518v12518H4155z" class="BoundingBox"/>
            <path fill="#fefefe" d="M10412 7277h2c1097 0 2174 289 3124 837 950 549 1739 1338 2288 2288 548 950 837 2027 837 3124 0 1098-289 2175-837 3125-549 950-1338 1739-2288 2288-950 548-2027 837-3124 837-1098 0-2175-289-3125-837-950-549-1739-1338-2288-2288-548-950-837-2027-837-3125 0-1097 289-2174 837-3124 549-950 1338-1739 2288-2288 950-548 2027-837 3123-837"/>
            <path fill="none" stroke="#1b1918" stroke-width="18" d="M10412 7277h2c1097 0 2174 289 3124 837 950 549 1739 1338 2288 2288 548 950 837 2027 837 3124 0 1098-289 2175-837 3125-549 950-1338 1739-2288 2288-950 548-2027 837-3124 837-1098 0-2175-289-3125-837-950-549-1739-1338-2288-2288-548-950-837-2027-837-3125 0-1097 289-2174 837-3124 549-950 1338-1739 2288-2288 950-548 2027-837 3123-837z"/>
          </g>
          <g class="com.sun.star.drawing.ClosedBezierShape">
            <path fill="none" d="M4463 7578h11898v11899H4463z" class="BoundingBox"/>
            <path fill="red" d="M10410 7579h2c1044 0 2069 275 2974 797 904 522 1655 1273 2177 2177 522 905 797 1930 797 2974 0 1045-275 2070-797 2975-522 904-1273 1655-2177 2177-905 522-1930 797-2974 797-1045 0-2070-275-2975-797-904-522-1655-1273-2177-2177-522-905-797-1930-797-2975 0-1044 275-2069 797-2974 522-904 1273-1655 2177-2177s1930-797 2973-797"/>
          </g>
          <g class="com.sun.star.drawing.ClosedBezierShape">
            <path fill="none" d="M5716 8828h9396v9397H5716z" class="BoundingBox"/>
            <path fill="#fefefe" d="M10412 8829h2c824 0 1634 217 2348 629 714 413 1307 1006 1720 1720 412 714 629 1524 629 2348 0 825-217 1635-629 2349-413 714-1006 1307-1720 1720-714 412-1524 629-2348 629-825 0-1635-217-2349-629-714-413-1307-1006-1720-1720-412-714-629-1524-629-2349 0-824 217-1634 629-2348 413-714 1006-1307 1720-1720 714-412 1523-629 2347-629"/>
          </g>
          <g class="com.sun.star.drawing.ClosedBezierShape">
            <path fill="none" d="M6528 11562h7772v3931H6528z" class="BoundingBox"/>
            <path d="M14082 14473h217v-272h-202c-4-101-30-190-60-284l116-52c-168-463-503-768-925-850-37-221-86-418-149-636-750 8-1485 38-2235 94-93-123-250-202-395-239l-736-108-339-49-90-108 67-130 631-153-60-123-642 134-268 459c-194-157-377-239-642-224-127 287-183 544 30 732 101 19 194 15 287-11l-388 578c-168-86-365-142-570-142-661 0-1201 537-1201 1201 0 665 540 1202 1201 1202 660 0 1201-537 1201-1202 0-339-142-652-373-873l403-600c70 436 380 492 727 500l60 224c-280 164-344 936 272 936l1691-4c86 576 585 1019 1182 1019 593 0 1097-447 1190-1019m-1139-591-157-392c38-4 71-8 105-8 414 0 757 321 794 720h-395c-30-164-172-294-347-320m-440-299 138 377c-75 56-135 145-149 242h-400c27-265 191-500 411-619m20 889c59 120 175 206 306 225 22 0 44 7 63 7 168 0 306-93 369-232h414c-85 359-403 628-783 628s-698-269-780-628zm-4210-740c141 146 220 347 220 560 0 448-362 810-806 810s-806-354-806-810c0-455 362-828 806-810 194 8 235 26 332 71l-235 343c-4 8-71-18-97-18-231 0-414 183-414 414 0 232 183 419 414 415s388-203 392-411c0-79-15-142-53-206z"/>
          </g>
        </g>
      </g>
    </g>
  </g>
</svg>
