<svg xmlns="http://www.w3.org/2000/svg" xml:space="preserve" fill-rule="evenodd" stroke-linejoin="round" stroke-width="28.222" preserveAspectRatio="xMidYMid" viewBox="0 0 12518 12518" role="img" aria-labelledby="title">
  <title id="title">Verkehrszeichen SI8 - destination:access:maxweightrating=5.5</title>
  <defs class="ClipPathGroup">
    <clipPath id="a" clipPathUnits="userSpaceOnUse">
      <path d="M0 0h21001v29703H0z"/>
    </clipPath>
  </defs>
  <g class="SlideGroup">
    <g class="Slide" clip-path="url(#a)" transform="translate(-4154 -7268)">
      <g class="Page">
        <g class="Group">
          <g class="Group" style="display:inline">
            <g class="com.sun.star.drawing.ClosedBezierShape">
              <path fill="none" d="M4154 7268h12518v12518H4154z" class="BoundingBox"/>
              <path fill="#fefefe" d="M10411 7277h2c1097 0 2174 289 3124 837 950 549 1739 1338 2288 2288 548 950 837 2027 837 3124 0 1098-289 2175-837 3125-549 950-1338 1739-2288 2288-950 548-2027 837-3124 837-1098 0-2175-289-3125-837-950-549-1739-1338-2288-2288-548-950-837-2027-837-3125 0-1097 289-2174 837-3124 549-950 1338-1739 2288-2288 950-548 2027-837 3123-837"/>
              <path fill="none" stroke="#1b1918" stroke-width="18" d="M10411 7277h2c1097 0 2174 289 3124 837 950 549 1739 1338 2288 2288 548 950 837 2027 837 3124 0 1098-289 2175-837 3125-549 950-1338 1739-2288 2288-950 548-2027 837-3124 837-1098 0-2175-289-3125-837-950-549-1739-1338-2288-2288-548-950-837-2027-837-3125 0-1097 289-2174 837-3124 549-950 1338-1739 2288-2288 950-548 2027-837 3123-837z"/>
            </g>
            <g class="com.sun.star.drawing.ClosedBezierShape">
              <path fill="none" d="M4463 7578h11898v11899H4463z" class="BoundingBox"/>
              <path fill="red" d="M10410 7579h2c1044 0 2069 275 2974 797 904 522 1655 1273 2177 2177 522 905 797 1930 797 2974 0 1045-275 2070-797 2975-522 904-1273 1655-2177 2177-905 522-1930 797-2974 797-1045 0-2070-275-2975-797-904-522-1655-1273-2177-2177-522-905-797-1930-797-2975 0-1044 275-2069 797-2974 522-904 1273-1655 2177-2177s1930-797 2973-797"/>
            </g>
            <g class="com.sun.star.drawing.ClosedBezierShape">
              <path fill="none" d="M5715 8828h9396v9397H5715z" class="BoundingBox"/>
              <path fill="#fefefe" d="M10411 8829h2c824 0 1634 217 2348 629 714 413 1307 1006 1720 1720 412 714 629 1524 629 2348 0 825-217 1635-629 2349-413 714-1006 1307-1720 1720-714 412-1524 629-2348 629-825 0-1635-217-2349-629-714-413-1307-1006-1720-1720-412-714-629-1524-629-2349 0-824 217-1634 629-2348 413-714 1006-1307 1720-1720 714-412 1523-629 2347-629"/>
            </g>
          </g>
          <g class="com.sun.star.drawing.ClosedBezierShape">
            <path fill="none" d="M7162 11894h6500v3799H7162z" class="BoundingBox"/>
            <path d="M13660 15068c-122 72-297 93-437 93-138 0-350-65-436-210-65-110-105-177-107-417l-2-942h-254l-1-414 253 1 1-355 457-107 1 454 297 3-2 414-296 4 1 956c1 189 227 245 398 103zm-2762-620-458 113c145 488 530 602 870 602 431 0 782-352 782-784 0-431-351-782-782-782-69 0-199 8-270 19l46-429h835v-458h-1265l-119 1099 418 331c84-67 213-86 292-86 258 0 374 148 374 305 0 158-147 313-375 313-207 0-307-132-348-243m-3122-246-614 152c194 655 711 808 1168 808 579 0 1051-472 1051-1052 0-579-472-1050-1051-1050-92 0-268 10-363 25l62-578h1122v-613H7452l-161 1476 562 444c112-90 286-115 393-115 346 0 502 198 502 410s-199 420-504 420c-279 0-413-178-468-327m1856 452h518l-127 1038h-391z"/>
          </g>
        </g>
      </g>
    </g>
  </g>
</svg>
