<svg xmlns="http://www.w3.org/2000/svg" xml:space="preserve" fill-rule="evenodd" stroke-linejoin="round" stroke-width="28.222" preserveAspectRatio="xMidYMid" viewBox="0 0 12518 12518" role="img" aria-labelledby="title">
  <title id="title">Verkehrszeichen SI5 - destination:access:maxlength:goods=10</title>
  <defs class="ClipPathGroup">
    <clipPath id="a" clipPathUnits="userSpaceOnUse">
      <path d="M0 0h21001v29703H0z"/>
    </clipPath>
  </defs>
  <g class="SlideGroup">
    <g class="Slide" clip-path="url(#a)" transform="translate(-4154 -7268)">
      <g class="Page">
        <g class="Group">
          <g class="com.sun.star.drawing.ClosedBezierShape">
            <path fill="none" d="M4154 7268h12518v12518H4154z" class="BoundingBox"/>
            <path fill="#fefefe" d="M10411 7277h2c1097 0 2174 289 3124 837 950 549 1739 1338 2288 2288 548 950 837 2027 837 3124 0 1098-289 2175-837 3125-549 950-1338 1739-2288 2288-950 548-2027 837-3124 837-1098 0-2175-289-3125-837-950-549-1739-1338-2288-2288-548-950-837-2027-837-3125 0-1097 289-2174 837-3124 549-950 1338-1739 2288-2288 950-548 2027-837 3123-837"/>
            <path fill="none" stroke="#1b1918" stroke-width="18" d="M10411 7277h2c1097 0 2174 289 3124 837 950 549 1739 1338 2288 2288 548 950 837 2027 837 3124 0 1098-289 2175-837 3125-549 950-1338 1739-2288 2288-950 548-2027 837-3124 837-1098 0-2175-289-3125-837-950-549-1739-1338-2288-2288-548-950-837-2027-837-3125 0-1097 289-2174 837-3124 549-950 1338-1739 2288-2288 950-548 2027-837 3123-837z"/>
          </g>
          <g class="com.sun.star.drawing.ClosedBezierShape">
            <path fill="none" d="M4463 7578h11898v11899H4463z" class="BoundingBox"/>
            <path fill="red" d="M10410 7579h2c1044 0 2069 275 2974 797 904 522 1655 1273 2177 2177 522 905 797 1930 797 2974 0 1045-275 2070-797 2975-522 904-1273 1655-2177 2177-905 522-1930 797-2974 797-1045 0-2070-275-2975-797-904-522-1655-1273-2177-2177-522-905-797-1930-797-2975 0-1044 275-2069 797-2974 522-904 1273-1655 2177-2177s1930-797 2973-797"/>
          </g>
          <g class="com.sun.star.drawing.ClosedBezierShape">
            <path fill="none" d="M5715 8828h9396v9397H5715z" class="BoundingBox"/>
            <path fill="#fefefe" d="M10411 8829h2c824 0 1634 217 2348 629 714 413 1307 1006 1720 1720 412 714 629 1524 629 2348 0 825-217 1635-629 2349-413 714-1006 1307-1720 1720-714 412-1524 629-2348 629-825 0-1635-217-2349-629-714-413-1307-1006-1720-1720-412-714-629-1524-629-2349 0-824 217-1634 629-2348 413-714 1006-1307 1720-1720 714-412 1523-629 2347-629"/>
          </g>
          <g class="com.sun.star.drawing.ClosedBezierShape">
            <path fill="none" d="M6857 10676h7103v3730H6857z" class="BoundingBox"/>
            <path d="M8101 13124c353 0 641 288 641 641 0 352-288 639-641 639-352 0-639-287-639-639 0-353 287-641 639-641m4547 0c352 0 639 288 639 641 0 352-287 639-639 639-353 0-641-287-641-639 0-353 288-641 641-641m-3812 632 3064-3c1-410 343-726 750-726s741 322 743 731h564l2-2943c0-87-52-133-141-139l-5443 1c-70 1-158 74-158 152v669h-728c-167 0-205 19-227 181l-87 840c-137 3-216 68-215 204l1 735h-104l1 291 497-5c0-411 334-720 741-720s741 333 740 732m-619-2092h-648c-114-4-131 12-139 147l-68 707h854z"/>
          </g>
          <g class="com.sun.star.drawing.ClosedBezierShape">
            <path fill="none" d="M6856 15019h7103v1368H6856z" class="BoundingBox"/>
            <path d="M10265 15019c-329 0-490 224-490 677s149 681 493 681 488-256 488-679c0-424-162-679-491-679m0 258c-179 0-225 122-227 420s48 422 227 422c180 0 230-158 230-421 0-264-50-421-230-421m-2233 1108v-1362l-1176 681zm4750 0v-1362l1176 681zm-4049-1104 92-46 81-60 69-77 41-77 259-2v1365h-257v-967l-105 67-117 51-63 17zm2955 725v380h-155v-380c0-189-232-197-232 0v380h-156v-669h156v48c90-68 248-87 338 50 82-140 439-182 439 191l3 380-160-3 2-377c0-191-235-191-235 0"/>
          </g>
        </g>
      </g>
    </g>
  </g>
</svg>
