<svg xmlns="http://www.w3.org/2000/svg" xml:space="preserve" fill-rule="evenodd" stroke-linejoin="round" stroke-width="28.222" preserveAspectRatio="xMidYMid" viewBox="0 0 12518 12518" role="img" aria-labelledby="title">
  <title id="title">Verkehrszeichen SI7 - Direction interdite aux véhicules dont la hauteur, chargement compris, est supérieure au nombre indiqué</title>
  <defs class="ClipPathGroup">
    <clipPath id="a" clipPathUnits="userSpaceOnUse">
      <path d="M0 0h21001v29703H0z"/>
    </clipPath>
  </defs>
  <g class="Group" style="display:inline">
    <g class="com.sun.star.drawing.ClosedBezierShape">
      <path fill="none" d="M0 0h12518v12518H0z" class="BoundingBox"/>
      <path fill="#fefefe" d="M6257 9h2c1097 0 2174 289 3124 837 950 549 1739 1338 2288 2288 548 950 837 2027 837 3124 0 1098-289 2175-837 3125-549 950-1338 1739-2288 2288-950 548-2027 837-3124 837-1098 0-2175-289-3125-837-950-549-1739-1338-2288-2288C298 8433 9 7356 9 6258c0-1097 289-2174 837-3124 549-950 1338-1739 2288-2288C4084 298 5161 9 6257 9"/>
      <path fill="none" stroke="#1b1918" stroke-width="18" d="M6257 9h2c1097 0 2174 289 3124 837 950 549 1739 1338 2288 2288 548 950 837 2027 837 3124 0 1098-289 2175-837 3125-549 950-1338 1739-2288 2288-950 548-2027 837-3124 837-1098 0-2175-289-3125-837-950-549-1739-1338-2288-2288C298 8433 9 7356 9 6258c0-1097 289-2174 837-3124 549-950 1338-1739 2288-2288C4084 298 5161 9 6257 9z"/>
    </g>
    <g class="com.sun.star.drawing.ClosedBezierShape">
      <path fill="none" d="M309 310h11898v11899H309z" class="BoundingBox"/>
      <path fill="red" d="M6256 311h2c1044 0 2069 275 2974 797 904 522 1655 1273 2177 2177 522 905 797 1930 797 2974 0 1045-275 2070-797 2975-522 904-1273 1655-2177 2177-905 522-1930 797-2974 797-1045 0-2070-275-2975-797-904-522-1655-1273-2177-2177-522-905-797-1930-797-2975 0-1044 275-2069 797-2974 522-904 1273-1655 2177-2177s1930-797 2973-797"/>
    </g>
    <g class="com.sun.star.drawing.ClosedBezierShape">
      <path fill="none" d="M1561 1560h9396v9397H1561z" class="BoundingBox"/>
      <path fill="#fefefe" d="M6257 1561h2c824 0 1634 217 2348 629 714 413 1307 1006 1720 1720 412 714 629 1524 629 2348 0 825-217 1635-629 2349-413 714-1006 1307-1720 1720-714 412-1524 629-2348 629-825 0-1635-217-2349-629-714-413-1307-1006-1720-1720-412-714-629-1524-629-2349 0-824 217-1634 629-2348 413-714 1006-1307 1720-1720 714-412 1523-629 2347-629"/>
    </g>
  </g>
  <g class="SlideGroup">
    <g class="Slide" clip-path="url(#a)" transform="translate(-4154 -7268)">
      <g class="Page">
        <g class="Group">
          <g class="com.sun.star.drawing.ClosedBezierShape" style="display:inline">
            <path fill="none" d="M6506 8819h7820v9402H6506z" class="BoundingBox"/>
            <path d="M8996 14675h519l-128 1037h-391zm-1539-1479v610c208 3 530 42 532 433 1 76-88 319-469 331-168 0-314-63-416-280l-598 162c169 526 581 738 994 742 757 2 1095-500 1113-973 5-254-88-532-287-726 123-155 240-352 241-605-1-465-282-927-970-976-480-22-909 237-1036 671l595 177c96-175 224-229 406-230 286 2 378 232 379 276-1 77 40 389-484 388m2953 1280-460 114c146 489 533 604 874 604 433 0 787-353 787-786s-354-786-787-786c-69 0-200 8-271 18l46-431h840v-459h-1271l-121 1104 421 332c84-68 213-86 293-86 259 0 376 148 376 307 0 158-148 314-377 314-208 0-309-133-350-245m2958-205v924h-379v-924c0-462-566-482-566 0v924h-383v-1629h383v116c220-166 606-213 825 123 200-342 1077-445 1077 462v928h-382v-921c0-465-575-469-575-3m-2170-5391c-490-86-1020-76-1575 0l787 1363zm-1582 9268c535 95 1053 97 1575 0l-788-1363z"/>
          </g>
        </g>
      </g>
    </g>
  </g>
</svg>
