<svg xmlns="http://www.w3.org/2000/svg" xml:space="preserve" fill-rule="evenodd" stroke-linejoin="round" stroke-width="28.222" preserveAspectRatio="xMidYMid" viewBox="0 0 12518 12518" role="img" aria-labelledby="title">
  <title id="title">Verkehrszeichen SI6 - destination:access:maxwidth=2.5</title>
  <defs class="ClipPathGroup">
    <clipPath id="a" clipPathUnits="userSpaceOnUse">
      <path d="M0 0h21001v29703H0z"/>
    </clipPath>
  </defs>
  <g class="SlideGroup">
    <g class="Slide" clip-path="url(#a)" transform="translate(-4154 -7268)">
      <g class="Page">
        <g class="Group">
          <g class="Group">
            <g class="com.sun.star.drawing.ClosedBezierShape">
              <path fill="none" d="M4154 7268h12518v12518H4154z" class="BoundingBox"/>
              <path fill="#fefefe" d="M10411 7277h2c1097 0 2174 289 3124 837 950 549 1739 1338 2288 2288 548 950 837 2027 837 3124 0 1098-289 2175-837 3125-549 950-1338 1739-2288 2288-950 548-2027 837-3124 837-1098 0-2175-289-3125-837-950-549-1739-1338-2288-2288-548-950-837-2027-837-3125 0-1097 289-2174 837-3124 549-950 1338-1739 2288-2288 950-548 2027-837 3123-837"/>
              <path fill="none" stroke="#1b1918" stroke-width="18" d="M10411 7277h2c1097 0 2174 289 3124 837 950 549 1739 1338 2288 2288 548 950 837 2027 837 3124 0 1098-289 2175-837 3125-549 950-1338 1739-2288 2288-950 548-2027 837-3124 837-1098 0-2175-289-3125-837-950-549-1739-1338-2288-2288-548-950-837-2027-837-3125 0-1097 289-2174 837-3124 549-950 1338-1739 2288-2288 950-548 2027-837 3123-837z"/>
            </g>
            <g class="com.sun.star.drawing.ClosedBezierShape">
              <path fill="none" d="M4463 7578h11898v11899H4463z" class="BoundingBox"/>
              <path fill="red" d="M10410 7579h2c1044 0 2069 275 2974 797 904 522 1655 1273 2177 2177 522 905 797 1930 797 2974 0 1045-275 2070-797 2975-522 904-1273 1655-2177 2177-905 522-1930 797-2974 797-1045 0-2070-275-2975-797-904-522-1655-1273-2177-2177-522-905-797-1930-797-2975 0-1044 275-2069 797-2974 522-904 1273-1655 2177-2177s1930-797 2973-797"/>
            </g>
            <g class="com.sun.star.drawing.ClosedBezierShape">
              <path fill="none" d="M5715 8828h9396v9397H5715z" class="BoundingBox"/>
              <path fill="#fefefe" d="M10411 8829h2c824 0 1634 217 2348 629 714 413 1307 1006 1720 1720 412 714 629 1524 629 2348 0 825-217 1635-629 2349-413 714-1006 1307-1720 1720-714 412-1524 629-2348 629-825 0-1635-217-2349-629-714-413-1307-1006-1720-1720-412-714-629-1524-629-2349 0-824 217-1634 629-2348 413-714 1006-1307 1720-1720 714-412 1523-629 2347-629"/>
            </g>
          </g>
          <g class="com.sun.star.drawing.ClosedBezierShape">
            <path fill="none" d="M5723 8830h9401v9401H5723z" class="BoundingBox"/>
            <path fill="#fff" d="M10422 8830h1c825 0 1636 217 2350 630 714 412 1308 1006 1720 1720 413 714 630 1525 630 2350s-217 1636-630 2350c-412 714-1006 1308-1720 1720-714 413-1525 630-2350 630s-1636-217-2350-630c-714-412-1308-1006-1720-1720-413-714-630-1525-630-2350s217-1636 630-2350c412-714 1006-1308 1720-1720 714-413 1524-630 2349-630"/>
          </g>
          <g class="com.sun.star.drawing.ClosedBezierShape">
            <path fill="none" d="M5719 12269h9406v2934H5719z" class="BoundingBox"/>
            <path d="M5791 12726c-94 535-97 1054 0 1576l1362-788zm9271 1578c87-490 77-1021 0-1577l-1363 788zm-2481-229v712h-292v-712c0-357-435-372-435 0v712h-294v-1256h294v90c169-128 466-164 635 95 154-264 830-344 830 356v715h-295v-709c0-360-443-362-443-3m-2194 153-354 87c112 377 411 465 674 465 333 0 605-271 605-605s-272-606-605-606c-53 0-154 6-210 14l36-332h647v-354h-980l-93 851 325 256c65-52 165-66 226-66 199 0 290 114 290 236s-115 242-290 242c-161 0-240-102-271-188m-1763-982-1087 1061v484h1724v-484H8249l434-429c418-395 511-550 511-841 0-393-321-764-834-768-514 4-799 338-833 774h490c19-180 132-285 328-285 226 0 360 97 360 307 0 69-27 123-81 181m861 1126h390l-76 830h-314z"/>
          </g>
        </g>
      </g>
    </g>
  </g>
</svg>
