<svg xmlns="http://www.w3.org/2000/svg" xml:space="preserve" fill-rule="evenodd" stroke-linejoin="round" stroke-width="28.222" preserveAspectRatio="xMidYMid" viewBox="0 0 12518 12518" role="img" aria-labelledby="title">
  <title id="title">Verkehrszeichen SI2 - Direction interdite aux cycles</title>
  <defs class="ClipPathGroup">
    <clipPath id="a" clipPathUnits="userSpaceOnUse">
      <path d="M0 0h21001v29703H0z"/>
    </clipPath>
  </defs>
  <g class="SlideGroup">
    <g class="Slide" clip-path="url(#a)" transform="translate(-4154 -7268)">
      <g class="Page">
        <g class="Group">
          <g class="com.sun.star.drawing.ClosedBezierShape">
            <path fill="none" d="M4154 7268h12518v12518H4154z" class="BoundingBox"/>
            <path fill="#fefefe" d="M10411 7277h2c1097 0 2174 289 3124 837 950 549 1739 1338 2288 2288 548 950 837 2027 837 3124 0 1098-289 2175-837 3125-549 950-1338 1739-2288 2288-950 548-2027 837-3124 837-1098 0-2175-289-3125-837-950-549-1739-1338-2288-2288-548-950-837-2027-837-3125 0-1097 289-2174 837-3124 549-950 1338-1739 2288-2288 950-548 2027-837 3123-837"/>
            <path fill="none" stroke="#1b1918" stroke-width="18" d="M10411 7277h2c1097 0 2174 289 3124 837 950 549 1739 1338 2288 2288 548 950 837 2027 837 3124 0 1098-289 2175-837 3125-549 950-1338 1739-2288 2288-950 548-2027 837-3124 837-1098 0-2175-289-3125-837-950-549-1739-1338-2288-2288-548-950-837-2027-837-3125 0-1097 289-2174 837-3124 549-950 1338-1739 2288-2288 950-548 2027-837 3123-837z"/>
          </g>
          <g class="com.sun.star.drawing.ClosedBezierShape">
            <path fill="none" d="M4463 7578h11898v11899H4463z" class="BoundingBox"/>
            <path fill="red" d="M10410 7579h2c1044 0 2069 275 2974 797 904 522 1655 1273 2177 2177 522 905 797 1930 797 2974 0 1045-275 2070-797 2975-522 904-1273 1655-2177 2177-905 522-1930 797-2974 797-1045 0-2070-275-2975-797-904-522-1655-1273-2177-2177-522-905-797-1930-797-2975 0-1044 275-2069 797-2974 522-904 1273-1655 2177-2177s1930-797 2973-797"/>
          </g>
          <g class="com.sun.star.drawing.ClosedBezierShape">
            <path fill="none" d="M5715 8828h9396v9397H5715z" class="BoundingBox"/>
            <path fill="#fefefe" d="M10411 8829h2c824 0 1634 217 2348 629 714 413 1307 1006 1720 1720 412 714 629 1524 629 2348 0 825-217 1635-629 2349-413 714-1006 1307-1720 1720-714 412-1524 629-2348 629-825 0-1635-217-2349-629-714-413-1307-1006-1720-1720-412-714-629-1524-629-2349 0-824 217-1634 629-2348 413-714 1006-1307 1720-1720 714-412 1523-629 2347-629"/>
          </g>
          <g class="com.sun.star.drawing.ClosedBezierShape">
            <path fill="none" d="M6585 11290h7661v4479H6585z" class="BoundingBox"/>
            <path d="M9473 11290v216l-418-1c-91 1-290-5-315 78-13 36-28 82 56 114l444 165-107 323h2320l80-245-465-200c-61-31-73-204 83-209h873c128 0 167 116 165 175-3 64-34 115-88 133l-350 148-108 337 521 790c217-124 411-171 674-171 797 0 1406 654 1406 1412 0 760-615 1407-1414 1412-673 3-1286-501-1391-1174l-360 29c-14 116-72 244-236 331l66 357 103-20 28 162-381 72-28-166 112-18-63-339c-452 2-558-432-435-653l-1342-1514-118 344c382 267 621 689 621 1170 0 797-635 1421-1407 1416-774-5-1423-621-1413-1435 12-815 661-1389 1414-1391 273 0 379 52 585 130l356-1075-303-115c-128-46-184-319-53-459 103-109 184-120 470-129zm-956 1965-131 425c-36 103-103 357-256 460-42-26-81-40-136-40-136 1-249 109-249 252 0 142 113 250 254 250 132 0 274-125 240-306 193-114 279-377 371-616l103-303c117 74 496 426 498 952 3 678-534 1234-1215 1234-680 0-1211-565-1211-1214s565-1224 1214-1210c210 5 343 36 518 116m3761 28c170-94 354-144 557-142 676 5 1203 527 1214 1213s-562 1206-1211 1213c-625 7-1126-475-1195-993l977-87c39 73 101 120 218 117 109-2 248-89 245-250-1-161-136-257-259-248zm-174 123 536 790c-12 18-29 52-40 78l-975 81c-16-393 268-832 479-949m-119-175c-290 211-563 616-566 1142l-350 26c-28-59-53-98-78-128l567-1673zm-1199 898 602-1723H9058l-64 194 1412 1578c44-28 68-38 111-49l-57-326-123 21-28-153 413-72 25 150-116 23 63 339c37 4 59 9 92 18"/>
          </g>
        </g>
      </g>
    </g>
  </g>
</svg>
