<svg xmlns="http://www.w3.org/2000/svg" xml:space="preserve" fill-rule="evenodd" stroke-linejoin="round" stroke-width="28.222" preserveAspectRatio="xMidYMid" viewBox="0 0 12521.002 12522.998" role="img" aria-labelledby="title">
  <title id="title">Verkehrszeichen SC1b - Direction conseillée aux véhicules de transport de marchandises dont le poids total autorisé en charge ou le poids total roulant autorisé excède le nombre indiqué</title>
  <defs class="ClipPathGroup">
    <clipPath id="a" clipPathUnits="userSpaceOnUse">
      <path d="M0 0h21001v29703H0z"/>
    </clipPath>
  </defs>
  <g class="SlideGroup">
    <g class="Slide" clip-path="url(#a)" transform="translate(-4144.5 -7257.5)">
      <g class="Page">
        <g class="Group">
          <g class="com.sun.star.drawing.PolyPolygonShape" style="display:inline">
            <path fill="#fefefe" d="M4153.5 7266.501v12505h12503v-12505Z"/>
            <path fill="none" stroke="#1b1918" stroke-width="18" d="M4153.5 7266.501v12505h12503v-12505Z"/>
          </g>
          <g class="com.sun.star.drawing.PolyPolygonShape">
            <path fill="none" d="M4469.558 7578.54h11877.874v11880.92H4469.558z" class="BoundingBox"/>
            <path fill="#00f" d="M4469.558 7578.54h11876.876v11879.922H4469.558Z"/>
          </g>
          <g class="com.sun.star.drawing.PolyPolygonShape">
            <path fill="none" d="M5700.886 8277.534h9404.233v5767.71H5700.886z" class="BoundingBox"/>
            <path fill="#fefefe" d="m13220.677 12066.088 100.863 3.995 97.867 13.98 93.873 25.962 90.877 35.949 90.876 39.942 79.892 46.933 75.897 57.916 68.906 64.907 64.912 68.901 57.921 75.891 46.937 79.885 39.945 91.868 32.956 89.871 24.966 94.864 17.975 97.859 3.995 100.855-21.97 199.713-57.922 184.734-39.945 86.875-46.937 82.881-122.833 144.792-144.803 119.828-170.768 90.87-184.75 60.912-198.73 17.974-199.729-17.974-184.749-60.913-169.77-90.87-144.803-119.827-119.837-144.792-93.873-169.756-57.921-184.734-17.976-199.713 17.976-198.714 57.921-184.735 93.873-171.753 119.837-144.792 144.804-122.823 82.887-46.933 86.882-39.942 184.75-61.911zm-5600.397-3.994 202.725 21.969 184.75 57.916 86.881 39.943 82.888 46.932 75.897 57.917 68.906 65.905 119.838 144.792 90.876 170.755 57.922 184.734 17.975 199.713-17.975 198.715-57.922 184.734-90.876 169.756-119.838 148.786-144.803 119.828-169.77 90.87-184.749 57.916-202.725 17.974-195.734-17.974-148.798-43.937-206.72-104.85-147.798-119.827-119.838-148.786-46.936-82.88-43.94-86.876-57.922-184.734-20.971-198.715 6.99-101.853 13.981-97.86 25.965-93.865 31.957-90.87 43.94-91.867 46.936-78.887 119.838-144.792 147.799-123.822 83.886-46.932 86.882-39.943 90.877-31.954 93.872-25.962 97.867-13.98zm184.75-2262.747H6801.392l-104.857 2.996-35.952 10.984-28.96 17.974-18.975 28.958-9.986 43.937-14.98 122.824-108.852 1094.426h1322.205zm966.687 3209.386v-111.839l-21.97-112.838-28.96-104.849-39.946-102.852-46.937-100.855-57.921-90.87-144.803-162.765-82.888-75.891-90.877-61.911-93.872-57.917-101.862-42.938-104.857-39.943-108.853-25.963-115.842-17.974-115.843-2.996-115.843 2.996-115.843 17.974-108.852 25.963-104.857 39.943-101.862 42.938-93.873 57.917-90.876 61.91-82.888 71.897-71.902 79.885-65.91 83.88-60.918 93.865-50.93 97.86-35.952 101.853-28.96 108.843-18.975 112.838 28.96 133.808-763.962-3.994-31.957-457.343h162.78L5859.67 11432l6.99-71.897 17.976-64.906 25.965-54.921 35.95-42.939 50.932-32.952 53.926-24.964 68.907-17.975 72.9-3.994 133.82-1304.125 32.954-148.786 24.967-50.927 32.955-32.953 42.942-21.968 57.92-13.98 159.784-6.99h1122.476v-1036.51l3.995-46.933 17.975-39.942 24.966-39.943 32.956-31.954 35.95-28.958 43.941-17.974 42.942-17.975h6918.607l46.936 9.986 39.946 14.979 32.955 24.964 28.96 32.952 17.977 35.949 10.985 50.926 3.994 53.923v4518.505h-714.03l-2.996-119.828-18.975-111.84-28.96-108.843-42.942-102.852-50.93-100.855-57.922-90.87-68.907-86.875-75.897-79.885-82.887-71.896-94.871-64.907-93.873-54.921-101.862-46.933-107.853-35.948-108.852-25.963-115.843-17.974-115.843-6.99-115.843 6.99-115.842 17.974-112.847 25.963-104.858 31.954-101.861 47.931-96.869 53.923-94.871 64.906-82.888 72.896-79.891 75.89-64.912 82.881-112.847 192.723-39.946 101.854-31.956 108.843-17.976 111.84-10.985 119.827z"/>
          </g>
          <g class="com.sun.star.drawing.ClosedBezierShape">
            <path fill="none" d="M7158.907 15417.271h6480.202v3473.008H7158.907z" class="BoundingBox"/>
            <path fill="#fefefe" d="m13638.11 18448.913-71.902 38.944-64.912 22.967-166.773 18.973-103.86-2.996-114.843-22.967-51.93-18.972-48.934-25.963-44.938-29.957-32.956-38.944-42.941-61.911-28.961-67.902-19.973-84.878-5.992-120.827-2.996-759.907h-231.685v-329.527h234.681v-280.596l364.505-123.822v404.418h319.566v329.527H13203.7l-2.996 733.945 9.987 80.883 25.965 48.93 45.937 25.963 54.926 9.985 55.924-2.995 41.943-6.99 42.941-21.969 48.934-29.957zm-2734.287-545.216c2.996 11.983 7.989 23.966 14.98 36.947 6.99 12.981 14.979 26.961 22.968 39.942q10.485 17.975 26.964 35.949c10.985 11.983 22.968 23.965 34.952 33.951 13.981 9.986 27.962 19.971 42.942 27.96 13.98 8.987 29.96 16.975 46.936 22.967 16.977 6.99 35.951 12.981 56.923 15.977 20.971 2.996 42.941 4.993 66.909 4.993 51.93 0 97.867-7.989 138.811-22.967 20.972-8.987 39.946-17.975 57.922-29.957 17.975-10.984 33.954-22.967 47.935-34.95 14.98-12.981 27.962-27.96 39.946-42.938 10.985-15.977 20.971-30.956 28.96-46.933 6.99-16.975 12.983-34.95 16.977-52.924 3.995-17.974 6.99-33.951 6.99-49.928q0-28.46-5.991-53.922c-2.996-16.976-6.99-33.952-11.984-48.93-6.99-16.976-15.978-33.951-27.962-48.93-10.985-14.978-21.97-27.96-33.954-38.944-13.98-12.981-29.96-25.963-47.935-35.948-17.975-9.986-36.95-18.973-57.921-25.963q-31.457-11.982-68.907-17.974c-25.964-2.996-52.928-4.993-80.89-4.993-7.989 0-17.975.999-28.96 1.997-10.986.999-21.97.999-31.957.999-10.985 0-21.97.998-33.954 3.994q-17.976 2.996-35.951 8.987-17.976 2.996-35.951 8.987c-11.984 3.995-22.97 8.987-33.954 13.98s-22.97 10.984-33.954 16.976c-10.985 4.993-20.972 12.981-29.96 20.97l-375.49-297.573 107.854-989.577h1137.456v411.409h-750.98l-41.944 387.443c6.99-2.996 15.978-4.993 24.966-6.99 8.988-.999 18.974-1.998 29.96-1.998 9.986 0 20.971-.998 32.955-1.997 11.984-1.997 22.969-2.995 33.954-2.995s22.969-.999 33.954-.999c10.985-.998 21.97-1.997 31.956-1.997 10.985 0 19.973 0 28.96-.999 7.99-.998 16.978-.998 25.966-.998 23.967 0 47.935.998 71.902 3.994 23.967 1.997 46.936 5.991 69.905 10.984 21.97 5.992 43.94 11.983 66.91 18.973 21.97 6.99 42.941 14.978 63.913 22.967 19.972 6.99 40.944 15.977 61.915 27.96 19.973 10.984 39.946 22.967 58.92 36.947 16.977 11.982 34.953 24.964 53.927 39.942s35.951 29.957 51.93 44.936c14.98 14.978 29.96 31.954 44.939 49.928 14.98 17.974 27.962 36.947 39.945 55.92 11.984 16.975 22.97 35.948 33.954 55.92 11.984 20.969 21.97 41.939 29.96 61.91 8.988 20.97 16.977 41.94 24.966 64.907 6.99 21.968 12.982 44.935 16.977 68.9 4.993 22.968 8.988 45.935 10.985 69.9 2.996 23.966 3.994 47.931 3.994 71.897 0 21.968-.998 45.934-3.994 69.9-1.997 23.965-5.992 47.93-8.988 71.896-4.993 21.969-11.984 43.937-18.974 66.904-7.99 21.968-14.98 43.937-21.97 63.908-8.988 20.97-17.976 41.94-29.96 61.911-10.985 20.97-21.97 39.943-34.952 58.915-12.983 17.975-26.964 34.95-41.943 52.924q-22.47 26.962-44.94 50.927c-15.978 14.979-32.955 29.957-51.929 44.936q-28.461 20.97-53.927 41.94c-18.974 11.982-37.948 23.965-57.92 34.949-19.974 10.984-39.947 20.97-60.918 29.957-19.973 7.988-40.945 15.977-63.913 22.967-21.97 6.99-44.94 12.981-66.91 17.974-23.967 4.993-47.935 8.987-71.902 10.984-23.967 2.996-47.935 3.995-71.902 3.995-18.975 0-38.947-.999-58.92-1.998a543 543 0 0 0-56.923-2.995c-18.974-.999-38.947-3.994-59.919-6.99-19.973-3.994-38.947-6.99-55.924-10.984q-28.461-7.49-59.918-14.979c-19.973-4.993-38.948-10.984-55.925-15.977-18.974-6.99-37.948-13.98-55.924-22.967-17.975-7.988-35.95-17.974-52.928-27.96-18.974-10.984-35.951-21.968-51.93-34.95-16.976-12.98-32.955-25.962-47.934-36.946-15.978-13.98-31.957-28.959-47.935-45.934-15.978-15.977-29.96-31.954-41.943-46.933q-20.971-28.46-41.943-59.914c-12.983-19.971-24.966-40.94-35.951-60.912-9.987-22.967-20.972-45.934-31.957-71.897-10.985-23.965-19.973-50.927-26.963-77.888zm-1186.39 985.583v-688.01h343.534l-75.897 677.026zm-1970.325-1262.185c3.995 16.975 11.984 34.95 21.97 52.924 8.988 18.972 20.972 37.945 32.956 56.918 9.986 16.975 22.969 34.95 37.948 51.925 15.979 16.976 32.955 32.953 49.932 47.931 19.973 14.979 39.946 27.96 60.918 39.943 20.971 11.983 42.941 23.965 67.908 32.952 23.967 9.986 50.93 17.975 80.89 22.967 28.96 3.995 61.916 6.99 94.87 6.99 74.9 0 140.81-10.984 199.73-32.952 28.96-12.982 56.922-25.963 82.887-42.939 24.966-14.978 47.935-31.954 66.91-48.93 21.97-19.97 40.944-40.94 57.92-62.909 14.98-21.968 29.96-43.937 41.944-65.905 9.986-24.964 17.975-49.928 23.967-75.891 5.992-24.964 8.988-48.93 8.988-70.898 0-26.961-2.996-52.924-7.99-77.888-4.992-23.966-9.986-47.931-17.975-69.9-9.986-23.965-21.97-47.93-38.947-69.9-14.98-21.968-31.956-39.942-48.933-54.92-19.973-18.973-41.943-36.947-67.908-50.927-25.965-14.978-53.927-26.961-82.888-36.947q-44.939-17.975-98.865-26.961c-36.95-4.993-74.899-6.99-114.845-6.99-11.983 0-25.964 0-41.943 1.997-15.978.999-30.958 1.997-45.937 1.997-14.98 0-30.958.999-47.935 5.992-16.977 2.995-33.954 7.988-51.93 12.98-16.977 1.998-33.954 6.99-50.93 11.984q-25.466 10.485-47.935 20.97c-16.977 6.99-33.954 14.978-49.933 23.965-14.98 7.989-29.959 18.973-41.943 30.956l-536.272-427.386 153.792-1410.972h1624.794v587.156H7988.78l-58.92 551.208c9.987-1.997 21.97-4.993 35.951-6.99q19.474-2.996 41.943-2.996c14.98 0 29.96-.998 47.935-3.994 16.977-1.997 32.956-3.994 47.935-3.994 16.977 0 33.954 0 48.934-1.997 15.978-.999 31.956-1.998 45.937-1.998 14.98 0 28.961 0 40.945-.998 11.984-1.997 24.966-1.997 36.95-1.997 33.954 0 68.906 1.997 102.86 4.993 33.954 3.994 66.91 9.985 98.866 16.975s63.913 15.977 95.87 24.964c31.956 10.984 61.916 21.969 91.875 33.951 28.96 9.986 58.92 21.969 87.88 38.944 29.96 14.979 57.922 32.953 84.885 52.924 24.967 16.976 49.933 35.949 76.896 56.919s51.93 41.94 73.9 63.908 42.941 45.934 64.912 71.896c19.972 25.963 38.947 51.926 55.924 78.887 17.975 24.964 33.954 51.925 49.932 80.884 15.978 29.957 29.96 58.915 41.943 88.872 11.984 29.957 23.967 60.912 34.952 92.866 10.986 31.954 19.973 64.907 24.967 98.858 5.991 31.954 11.983 64.907 15.978 99.857 3.994 33.951 5.992 67.902 5.992 102.852q0 46.433-5.992 98.858c-3.995 34.95-7.99 68.9-12.983 102.852-6.99 31.954-16.976 63.908-27.962 95.862-10.985 31.954-20.971 61.911-30.958 91.868-11.983 28.958-25.964 58.915-41.943 87.874s-32.955 57.917-49.932 84.878q-29.96 35.948-59.918 74.892c-21.97 25.963-42.942 49.928-64.912 71.897-21.97 21.968-46.937 43.937-73.9 63.908-26.963 20.97-51.93 40.941-76.896 60.912-26.963 16.976-54.925 33.952-82.887 49.929a696 696 0 0 1-86.882 41.94c-28.96 12.98-58.92 22.966-90.877 32.952s-63.913 18.973-95.87 25.963c-33.953 7.988-68.906 12.98-102.86 16.975-33.954 2.996-68.906 4.993-102.86 4.993-27.962 0-54.926-.999-82.888-3.994-27.962-1.997-55.924-2.996-82.887-2.996-26.964-1.997-54.926-5.991-84.885-10.984q-43.44-7.49-80.89-14.979c-26.964-6.99-54.926-14.978-83.886-21.968-29.96-6.99-56.923-14.978-80.89-21.968-26.964-9.986-53.927-20.97-79.892-32.953-24.966-11.983-50.93-25.963-74.898-40.941-26.964-14.979-51.93-30.956-74.899-48.93-23.967-17.974-45.937-36.947-67.907-53.922-22.97-18.973-45.938-40.942-68.907-63.909-22.969-23.965-42.942-45.933-59.919-67.902-19.972-26.961-39.945-55.92-58.92-84.878-19.972-29.957-36.95-58.915-51.929-87.874-14.98-31.954-29.96-65.905-45.938-101.853-15.978-34.95-27.962-72.895-37.948-111.84z"/>
          </g>
        </g>
      </g>
    </g>
  </g>
</svg>
