<svg xmlns="http://www.w3.org/2000/svg" xml:space="preserve" fill-rule="evenodd" stroke-linejoin="round" stroke-width="28.222" preserveAspectRatio="xMidYMid" viewBox="0 0 12518 12518" role="img" aria-labelledby="title">
  <title id="title">Verkehrszeichen SI10 - Direction interdite aux véhicules transportant des marchandises explosives ou facilement inflammables, de nature et en quantité définies par l'arrêté du 1er juin 2001 relatif au transport des marchand</title>
  <defs class="ClipPathGroup">
    <clipPath id="a" clipPathUnits="userSpaceOnUse">
      <path d="M0 0h21001v29703H0z"/>
    </clipPath>
  </defs>
  <g class="SlideGroup">
    <g class="Slide" clip-path="url(#a)" transform="translate(-4154 -7268)">
      <g class="Page">
        <g class="Group">
          <g class="com.sun.star.drawing.ClosedBezierShape">
            <path fill="none" d="M4154 7268h12518v12518H4154z" class="BoundingBox"/>
            <path fill="#fefefe" d="M10411 7277h2c1097 0 2174 289 3124 837 950 549 1739 1338 2288 2288 548 950 837 2027 837 3124 0 1098-289 2175-837 3125-549 950-1338 1739-2288 2288-950 548-2027 837-3124 837-1098 0-2175-289-3125-837-950-549-1739-1338-2288-2288-548-950-837-2027-837-3125 0-1097 289-2174 837-3124 549-950 1338-1739 2288-2288 950-548 2027-837 3123-837"/>
            <path fill="none" stroke="#1b1918" stroke-width="18" d="M10411 7277h2c1097 0 2174 289 3124 837 950 549 1739 1338 2288 2288 548 950 837 2027 837 3124 0 1098-289 2175-837 3125-549 950-1338 1739-2288 2288-950 548-2027 837-3124 837-1098 0-2175-289-3125-837-950-549-1739-1338-2288-2288-548-950-837-2027-837-3125 0-1097 289-2174 837-3124 549-950 1338-1739 2288-2288 950-548 2027-837 3123-837z"/>
          </g>
          <g class="com.sun.star.drawing.ClosedBezierShape">
            <path fill="none" d="M4463 7578h11898v11899H4463z" class="BoundingBox"/>
            <path fill="red" d="M10410 7579h2c1044 0 2069 275 2974 797 904 522 1655 1273 2177 2177 522 905 797 1930 797 2974 0 1045-275 2070-797 2975-522 904-1273 1655-2177 2177-905 522-1930 797-2974 797-1045 0-2070-275-2975-797-904-522-1655-1273-2177-2177-522-905-797-1930-797-2975 0-1044 275-2069 797-2974 522-904 1273-1655 2177-2177s1930-797 2973-797"/>
          </g>
          <g class="com.sun.star.drawing.ClosedBezierShape">
            <path fill="none" d="M5715 8828h9396v9397H5715z" class="BoundingBox"/>
            <path fill="#fefefe" d="M10411 8829h2c824 0 1634 217 2348 629 714 413 1307 1006 1720 1720 412 714 629 1524 629 2348 0 825-217 1635-629 2349-413 714-1006 1307-1720 1720-714 412-1524 629-2348 629-825 0-1635-217-2349-629-714-413-1307-1006-1720-1720-412-714-629-1524-629-2349 0-824 217-1634 629-2348 413-714 1006-1307 1720-1720 714-412 1523-629 2347-629"/>
          </g>
          <g class="com.sun.star.drawing.ClosedBezierShape">
            <path fill="none" d="M8244 14524h4471v2624H8244z" class="BoundingBox"/>
            <path d="m12703 14530 6 1355c-4 125-138 340-268 343v771c1 58-43 144-124 144h-298c-100 0-130-74-130-146l-2-768-2797-3v776c0 75-59 141-116 141h-333c-88 0-106-70-106-141v-770c-153 0-282-222-286-347l4-1355 692 197-403 352 1213-278 259 659 259-389 186 455 184-466 294 416 102-655 1227 306-543-391z"/>
            <path fill="none" stroke="#1b1918" stroke-linejoin="miter" stroke-width="8" d="m12703 14530 6 1355c-4 125-138 340-268 343v771c1 58-43 144-124 144h-298c-100 0-130-74-130-146l-2-768-2797-3v776c0 75-59 141-116 141h-333c-88 0-106-70-106-141v-770c-153 0-282-222-286-347l4-1355 692 197-403 352 1213-278 259 659 259-389 186 455 184-466 294 416 102-655 1227 306-543-391z"/>
          </g>
          <g class="com.sun.star.drawing.ClosedBezierShape">
            <path fill="none" d="M8528 15254h567v567h-567z" class="BoundingBox"/>
            <path fill="#fefefe" d="M8811 15258c49 0 97 13 139 37 43 25 78 60 103 102 24 43 37 91 37 140s-13 97-37 140c-25 42-60 77-102 102-43 24-91 37-140 37s-97-13-139-37c-43-25-78-60-103-102-24-43-37-91-37-140s13-97 37-139c25-43 60-78 102-103 43-24 91-37 140-37"/>
            <path fill="none" stroke="#1b1918" stroke-linejoin="miter" stroke-width="8" d="M8811 15258c49 0 97 13 139 37 43 25 78 60 103 102 24 43 37 91 37 140s-13 97-37 140c-25 42-60 77-102 102-43 24-91 37-140 37s-97-13-139-37c-43-25-78-60-103-102-24-43-37-91-37-140s13-97 37-139c25-43 60-78 102-103 43-24 91-37 140-37z"/>
          </g>
          <g class="com.sun.star.drawing.ClosedBezierShape">
            <path fill="none" d="M11878 15254h567v567h-567z" class="BoundingBox"/>
            <path fill="#fefefe" d="M12161 15258c49 0 97 13 139 37 43 25 78 60 103 102 24 43 37 91 37 140s-13 97-37 140c-25 42-60 77-102 102-43 24-91 37-140 37s-97-13-139-37c-43-25-78-60-103-102-24-43-37-91-37-140s13-97 37-139c25-43 60-78 102-103 43-24 91-37 140-37"/>
            <path fill="none" stroke="#1b1918" stroke-linejoin="miter" stroke-width="8" d="M12161 15258c49 0 97 13 139 37 43 25 78 60 103 102 24 43 37 91 37 140s-13 97-37 140c-25 42-60 77-102 102-43 24-91 37-140 37s-97-13-139-37c-43-25-78-60-103-102-24-43-37-91-37-140s13-97 37-139c25-43 60-78 102-103 43-24 91-37 140-37z"/>
          </g>
          <g class="com.sun.star.drawing.PolyPolygonShape">
            <path fill="none" d="M7761 9912h5305v5235H7761z" class="BoundingBox"/>
            <path fill="red" d="m7769 14244 1497 445-215 123 804-191 197 521 228-336 186 330 150-344 228 317 91-481 722 205-283-159 1683-374-1299-276 1181-953-1018 309 1030-790-1215 111 762-618h-455l660-716-987 295 351-912-798 914-49-469-297 382-439-1658-395 1621-490-827 73 876-510-268 240 404-1256-537 958 1481-1090-302 925 934-602-94 496 415-758 116 872 369z"/>
            <path fill="none" stroke="#e30016" stroke-linejoin="miter" stroke-width="3" d="m7769 14244 1497 445-215 123 804-191 197 521 228-336 186 330 150-344 228 317 91-481 722 205-283-159 1683-374-1299-276 1181-953-1018 309 1030-790-1215 111 762-618h-455l660-716-987 295 351-912-798 914-49-469-297 382-439-1658-395 1621-490-827 73 876-510-268 240 404-1256-537 958 1481-1090-302 925 934-602-94 496 415-758 116 872 369z"/>
          </g>
          <g class="com.sun.star.drawing.PolyPolygonShape">
            <path fill="none" d="M9096 11666h2624v3126H9096z" class="BoundingBox"/>
            <path fill="#fefefe" d="m9305 14279 517 1-139 216 417-182 76 338 157-217 141 356 55-459 249 256v-265l560 256-292-292 638 29-429-199 395-361-411-206 480-364-551 64 155-574-623 242-216-1251-309 1223-818-316 570 725-831-190 683 648-587 122 417 152z"/>
          </g>
          <g class="com.sun.star.drawing.PolyPolygonShape">
            <path fill="none" d="M9573 12323h1819v2023H9573z" class="BoundingBox"/>
            <path fill="#faab44" d="M9711 14132h277l-47 103 223-108 48 216 101-138 82 140 66-265 201 232-37-193 350 133-219-123 424 52-129-62 340-324-411-218 245-190-265 18 121-472-528 211-70-821-201 793-443-190 398 570-664-147 492 476-425 98 262 113z"/>
          </g>
        </g>
      </g>
    </g>
  </g>
</svg>
