<svg xmlns="http://www.w3.org/2000/svg" xml:space="preserve" fill-rule="evenodd" stroke-linejoin="round" stroke-width="28.222" preserveAspectRatio="xMidYMid" viewBox="0 0 12518 12518" role="img" aria-labelledby="title">
  <title id="title">Verkehrszeichen SI14 - SI14</title>
  <defs class="ClipPathGroup">
    <clipPath id="a" clipPathUnits="userSpaceOnUse">
      <path d="M0 0h21001v29703H0z"/>
    </clipPath>
  </defs>
  <g class="SlideGroup">
    <g class="Slide" clip-path="url(#a)" transform="translate(-4155 -7268)">
      <g class="Page">
        <g class="Group">
          <g class="com.sun.star.drawing.ClosedBezierShape">
            <path fill="none" d="M4155 7268h12518v12518H4155z" class="BoundingBox"/>
            <path fill="#fefefe" d="M10412 7277h2c1097 0 2174 289 3124 837 950 549 1739 1338 2288 2288 548 950 837 2027 837 3124 0 1098-289 2175-837 3125-549 950-1338 1739-2288 2288-950 548-2027 837-3124 837-1098 0-2175-289-3125-837-950-549-1739-1338-2288-2288-548-950-837-2027-837-3125 0-1097 289-2174 837-3124 549-950 1338-1739 2288-2288 950-548 2027-837 3123-837"/>
            <path fill="none" stroke="#1b1918" stroke-width="18" d="M10412 7277h2c1097 0 2174 289 3124 837 950 549 1739 1338 2288 2288 548 950 837 2027 837 3124 0 1098-289 2175-837 3125-549 950-1338 1739-2288 2288-950 548-2027 837-3124 837-1098 0-2175-289-3125-837-950-549-1739-1338-2288-2288-548-950-837-2027-837-3125 0-1097 289-2174 837-3124 549-950 1338-1739 2288-2288 950-548 2027-837 3123-837z"/>
          </g>
          <g class="com.sun.star.drawing.ClosedBezierShape">
            <path fill="none" d="M4463 7578h11898v11899H4463z" class="BoundingBox"/>
            <path fill="red" d="M10410 7579h2c1044 0 2069 275 2974 797 904 522 1655 1273 2177 2177 522 905 797 1930 797 2974 0 1045-275 2070-797 2975-522 904-1273 1655-2177 2177-905 522-1930 797-2974 797-1045 0-2070-275-2975-797-904-522-1655-1273-2177-2177-522-905-797-1930-797-2975 0-1044 275-2069 797-2974 522-904 1273-1655 2177-2177s1930-797 2973-797"/>
          </g>
          <g class="com.sun.star.drawing.ClosedBezierShape">
            <path fill="none" d="M5716 8828h9396v9397H5716z" class="BoundingBox"/>
            <path fill="#fefefe" d="M10412 8829h2c824 0 1634 217 2348 629 714 413 1307 1006 1720 1720 412 714 629 1524 629 2348 0 825-217 1635-629 2349-413 714-1006 1307-1720 1720-714 412-1524 629-2348 629-825 0-1635-217-2349-629-714-413-1307-1006-1720-1720-412-714-629-1524-629-2349 0-824 217-1634 629-2348 413-714 1006-1307 1720-1720 714-412 1523-629 2347-629"/>
          </g>
          <g class="com.sun.star.drawing.ClosedBezierShape">
            <path fill="none" d="M6065 11039h8698v4973H6065z" class="BoundingBox"/>
            <path d="M14747 16011h15zm-7663-1864c-363 0-660 297-660 661s297 660 660 660 660-296 660-660-297-661-660-661m4757 104c333 0 604 272 604 606 0 333-271 604-604 604s-605-271-605-604c0-334 272-606 605-606m-5774-1823h543l1202 1227 294 6c185 3 213 89 213 259v614h617v-2088c0-653 1441-1404 2886-1406 1462 0 2933 742 2933 1395v2325l-2204-5c-42-353-347-627-709-627-367 0-665 276-709 632l-3263 4c-20-378-351-707-774-738-419-18-793 356-791 738h-240l2-1098h654c227-2 216-208 124-321l-606-641-172 3zm5232-303h-1254c-295 0-536 242-536 537s241 537 536 537h1254c295 0 536-242 536-537s-241-537-536-537m2873 1875v-1344c0-296-241-538-537-538-295 0-536 242-536 538v1344c0 295 241 536 536 536 296 0 537-241 537-536m-536-1693c-198 0-359 161-359 359s161 359 359 359 359-161 359-359-161-359-359-359"/>
          </g>
        </g>
      </g>
    </g>
  </g>
</svg>
