<svg xmlns="http://www.w3.org/2000/svg" xml:space="preserve" fill-rule="evenodd" stroke-linejoin="round" stroke-width="28.222" preserveAspectRatio="xMidYMid" viewBox="0 0 12518 12518" role="img" aria-labelledby="title">
  <title id="title">Verkehrszeichen SI9 - Direction interdite aux véhicules pesant sur un essieu plus que le nombre indiqué</title>
  <defs class="ClipPathGroup">
    <clipPath id="a" clipPathUnits="userSpaceOnUse">
      <path d="M0 0h21001v29703H0z"/>
    </clipPath>
  </defs>
  <g class="SlideGroup">
    <g class="Slide" clip-path="url(#a)" transform="translate(-4154 -7268)">
      <g class="Page">
        <g class="Group">
          <g class="Group" style="display:inline">
            <g class="com.sun.star.drawing.ClosedBezierShape">
              <path fill="none" d="M4154 7268h12518v12518H4154z" class="BoundingBox"/>
              <path fill="#fefefe" d="M10411 7277h2c1097 0 2174 289 3124 837 950 549 1739 1338 2288 2288 548 950 837 2027 837 3124 0 1098-289 2175-837 3125-549 950-1338 1739-2288 2288-950 548-2027 837-3124 837-1098 0-2175-289-3125-837-950-549-1739-1338-2288-2288-548-950-837-2027-837-3125 0-1097 289-2174 837-3124 549-950 1338-1739 2288-2288 950-548 2027-837 3123-837"/>
              <path fill="none" stroke="#1b1918" stroke-width="18" d="M10411 7277h2c1097 0 2174 289 3124 837 950 549 1739 1338 2288 2288 548 950 837 2027 837 3124 0 1098-289 2175-837 3125-549 950-1338 1739-2288 2288-950 548-2027 837-3124 837-1098 0-2175-289-3125-837-950-549-1739-1338-2288-2288-548-950-837-2027-837-3125 0-1097 289-2174 837-3124 549-950 1338-1739 2288-2288 950-548 2027-837 3123-837z"/>
            </g>
            <g class="com.sun.star.drawing.ClosedBezierShape">
              <path fill="none" d="M4463 7578h11898v11899H4463z" class="BoundingBox"/>
              <path fill="red" d="M10410 7579h2c1044 0 2069 275 2974 797 904 522 1655 1273 2177 2177 522 905 797 1930 797 2974 0 1045-275 2070-797 2975-522 904-1273 1655-2177 2177-905 522-1930 797-2974 797-1045 0-2070-275-2975-797-904-522-1655-1273-2177-2177-522-905-797-1930-797-2975 0-1044 275-2069 797-2974 522-904 1273-1655 2177-2177s1930-797 2973-797"/>
            </g>
            <g class="com.sun.star.drawing.ClosedBezierShape">
              <path fill="none" d="M5715 8828h9396v9397H5715z" class="BoundingBox"/>
              <path fill="#fefefe" d="M10411 8829h2c824 0 1634 217 2348 629 714 413 1307 1006 1720 1720 412 714 629 1524 629 2348 0 825-217 1635-629 2349-413 714-1006 1307-1720 1720-714 412-1524 629-2348 629-825 0-1635-217-2349-629-714-413-1307-1006-1720-1720-412-714-629-1524-629-2349 0-824 217-1634 629-2348 413-714 1006-1307 1720-1720 714-412 1523-629 2347-629"/>
            </g>
          </g>
          <g class="com.sun.star.drawing.PolyPolygonShape">
            <path fill="none" d="M7140 10123h6529v6290H7140z" class="BoundingBox"/>
            <path d="m10408 15662 101-7 94-22 87-36 84-47 72-62 65-69 55-80 39-83 1485 4v1014l8 58 25 43 43 26 58 11h667l58-11 40-26 25-43 11-58v-891l98-65 76-84 32-50 19-51 18-58v-62l-4-58-14-57-22-55-29-47-36-47-40-40-102-58v-894l-7-58-25-44-44-25-54-7h-667l-61 10-44 26-25 40-7 58v1017h-1485l-40-87-54-79-66-65-72-62-83-47-87-36-95-22-97-7-103 7-94 22-90 36-84 47-72 62-65 65-51 79-44 87H8324v-1017l-7-58-26-40-43-26-62-10h-666l-58 7-44 25-21 44-11 58v894l-94 58-84 87-50 102-15 57-3 58 18 120 50 101 80 84 98 65v891l7 58 25 43 44 26 54 11h667l61-11 44-26 25-43 7-58v-1014l1485-4 44 83 51 80 65 69 72 62 84 47 90 36 94 22zm-1736-4279-1406 1369v628h2228v-628H8190l558-554 329-333 116-134 87-123 62-120 40-116 21-127 8-130-19-188-61-178-91-170-123-149-72-68-80-58-90-55-95-43-210-62-119-18-120-3-119 3-116 15-109 25-98 36-94 40-87 47-76 58-72 65-120 145-47 80-43 90-33 91-29 98-33 203h631l18-84 25-69 36-65 47-50 58-44 69-25 84-22 86-4 106 4 94 18 79 29 66 44 54 54 40 69 21 79 8 98-26 123zm4818 1916-88 39-101 26-104 13-98 7-105-13-110-33-101-59-79-85-39-72-29-72-16-98-10-133-3-845-229-3v-372l229 4v-323l410-95v408l268 3v372l-268 3v861l13 55 23 46 39 36 49 19 56 7 61-7 62-26 56-36zm-2575-634-457 113 66 163 83 134 101 105 113 83 119 55 127 36 261 26 155-15 149-47 130-73 120-94 94-116 40-65 33-69 43-149 18-156-3-79-15-76-18-76-25-73-33-69-40-61-94-120-120-94-61-40-69-32-72-29-77-15-76-14-79-4-272 18 47-427h837v-457h-1264l-123 1098 420 329 69-43 76-25 145-18 94 7 76 18 65 29 51 40 43 47 25 51 19 54 3 61-7 58-22 58-32 51-44 51-116 69-72 18-83 7-134-22-102-58-69-79zm-1117 163h518l-123 1037h-395z"/>
          </g>
        </g>
      </g>
    </g>
  </g>
</svg>
