<svg xmlns="http://www.w3.org/2000/svg" viewBox="0 0 70.03 34.02" role="img" aria-labelledby="title">
  <title id="title">Verkehrszeichen SU3 - destination:ref:to=A 55</title>
  <g class="Group">
    <g class="com.sun.star.drawing.PolyPolygonShape">
      <path fill="none" d="M0 0h70.03v34.02H0z" class="BoundingBox"/>
      <path fill="#fefefe" d="M0 0v34.01h70.01V0Z"/>
    </g>
    <g class="com.sun.star.drawing.PolyPolygonShape">
      <path fill="none" d="M2 2h66.02v30.02H2z" class="BoundingBox"/>
      <path fill="#00f" d="M2 2v30.01h66.01V2Z"/>
    </g>
    <g class="Group">
      <g class="com.sun.star.drawing.ClosedBezierShape">
        <path fill="none" d="M49.39 6.99h13.63v20.02H49.39z" class="BoundingBox"/>
        <path fill="#fefefe" d="M52.52 21.26c.06.33.17.63.33.92q.225.435.57.75.345.33.78.54c.29.14.6.24.93.31.33.04.66.07 1 .07.35 0 .68-.03 1.01-.07.44-.08.83-.23 1.19-.46.35-.23.65-.51.89-.83.25-.33.42-.7.52-1.11s.12-.82.04-1.24c-.05-.34-.15-.66-.31-.96s-.35-.56-.59-.78a3.35 3.35 0 0 0-1.74-.9c-.36-.05-.72-.07-1.1-.06-.37.01-.74.04-1.09.11-.35.08-.7.17-1.04.3-.35.12-.68.28-.99.46l-2.71-2.22 1.04-9.1h10.37v3.15h-7.48l-.5 4.36-.02.1c.66-.18 1.33-.28 2-.32.69-.04 1.35 0 2.01.11.44.07.86.19 1.26.33.41.15.78.34 1.12.56.35.21.67.46.98.74.31.29.58.59.81.92.24.32.44.67.62 1.03.17.37.3.75.4 1.15q.165.6.18 1.23c.02.42-.01.85-.07 1.29-.11.68-.32 1.31-.63 1.9-.32.6-.7 1.12-1.17 1.58-.46.46-.99.85-1.59 1.15-.59.3-1.23.51-1.91.62-.5.08-1 .11-1.51.11s-1.01-.03-1.51-.11c-.66-.11-1.28-.31-1.85-.6s-1.08-.65-1.54-1.08c-.46-.42-.84-.92-1.16-1.48-.33-.56-.55-1.17-.67-1.84z"/>
      </g>
      <g class="com.sun.star.drawing.ClosedBezierShape">
        <path fill="none" d="M30.54 6.99h13.63v20.02H30.54z" class="BoundingBox"/>
        <path fill="#fefefe" d="M33.67 21.26c.06.33.17.63.33.92q.225.435.57.75.345.33.78.54c.29.14.6.24.93.31.33.04.66.07 1 .07.35 0 .68-.03 1.01-.07.44-.08.83-.23 1.19-.46.35-.23.65-.51.89-.83.25-.33.42-.7.52-1.11s.12-.82.04-1.24c-.05-.34-.15-.66-.31-.96s-.35-.56-.59-.78a3.35 3.35 0 0 0-1.74-.9c-.36-.05-.72-.07-1.1-.06-.37.01-.74.04-1.09.11-.35.08-.7.17-1.04.3-.35.12-.68.28-.99.46l-2.71-2.22 1.04-9.1h10.37v3.15h-7.48l-.5 4.36-.02.1c.66-.18 1.33-.28 2-.32.69-.04 1.35 0 2.01.11.44.07.86.19 1.26.33.41.15.78.34 1.12.56.35.21.67.46.98.74.31.29.58.59.81.92.24.32.44.67.62 1.03.17.37.3.75.41 1.15.1.4.16.81.17 1.23.02.42-.01.85-.07 1.29-.11.68-.32 1.31-.63 1.9-.32.6-.7 1.12-1.17 1.58-.46.46-.99.85-1.59 1.15-.59.3-1.23.51-1.91.62-.5.08-1 .11-1.51.11s-1.01-.03-1.51-.11c-.66-.11-1.27-.31-1.85-.6-.57-.29-1.08-.65-1.54-1.08-.46-.42-.84-.92-1.16-1.48-.33-.56-.55-1.17-.67-1.84z"/>
      </g>
      <g class="com.sun.star.drawing.PolyPolygonShape">
        <path fill="none" d="M6.99 7.03h13.69v20.01H6.99z" class="BoundingBox"/>
        <path fill="#fefefe" d="M11.82 20.33h4.03l-2.03-8.69zm-4.83 6.7 4.57-19.99h4.55l4.55 19.99h-3.32l-.78-3.48h-5.44l-.79 3.48z"/>
      </g>
    </g>
  </g>
</svg>
