<svg xmlns="http://www.w3.org/2000/svg" xml:space="preserve" style="fill-rule:evenodd;clip-rule:evenodd;stroke-linejoin:round;stroke-miterlimit:2" viewBox="0 0 602 602" role="img" aria-labelledby="title">
  <title id="title">Verkehrszeichen 275-60 - Vorgeschriebene Mindestgeschwindigkeit</title>
  <path d="M513.53 88.55c39.098 39.096 63.438 81.245 77.754 134.658 14.316 53.462 14.316 102.143 0 155.606-14.311 53.412-38.676 95.586-77.798 134.706-39.096 39.098-81.25 63.443-134.687 77.779-53.433 14.292-102.144 14.311-155.576-.024-53.418-14.317-95.567-38.657-134.663-77.755-39.121-39.12-63.486-81.294-77.822-134.731-14.317-53.413-14.317-102.144 0-155.556C25.074 169.8 49.414 127.646 88.515 88.55c39.116-39.121 81.295-63.486 134.703-77.802 53.437-14.337 102.148-14.317 155.586-.025 53.432 14.341 95.605 38.701 134.726 77.827m-.351.351c-39.068-39.067-81.143-63.378-134.506-77.695-53.365-14.272-101.964-14.297-155.323.024-53.345 14.298-95.415 38.604-134.483 77.671C49.824 127.949 25.533 170 11.216 223.359c-14.292 53.34-14.292 101.959.005 155.299 14.317 53.363 38.628 95.438 77.695 134.506 39.043 39.044 81.099 63.33 134.434 77.627 53.364 14.317 101.958 14.292 155.323.024 53.363-14.316 95.414-38.602 134.462-77.646 39.068-39.068 63.374-81.143 77.666-134.488 14.297-53.383 14.297-101.957 0-155.341-14.287-53.34-38.58-95.396-77.622-134.439"/>
  <path d="M88.867 88.901c39.068-39.067 81.138-63.373 134.483-77.671 53.359-14.321 101.958-14.296 155.323-.024 53.363 14.322 95.438 38.628 134.506 77.695 39.047 39.043 63.335 81.099 77.622 134.439 14.297 53.384 14.297 101.963.005 155.346-14.297 53.34-38.603 95.415-77.671 134.483-39.048 39.044-81.099 63.33-134.459 77.646-53.363 14.273-101.962 14.293-155.326-.024-53.335-14.297-95.386-38.578-134.434-77.627-39.067-39.068-63.373-81.143-77.695-134.506-14.297-53.34-14.297-101.959 0-155.303C25.533 170 49.824 127.949 88.867 88.901" style="fill:#fff"/>
  <path d="M98.794 98.779c37.212-37.211 77.334-60.4 128.194-73.994 50.853-13.642 97.221-13.642 148.056-.024 50.855 13.594 91.001 36.802 128.237 74.038 37.217 37.216 60.352 77.339 73.97 128.169 13.618 50.883 13.618 97.202.005 148.081-13.623 50.835-36.782 90.981-73.995 128.194-37.241 37.236-77.362 60.425-128.217 74.018-50.835 13.618-97.203 13.618-148.061-.025-50.855-13.593-90.953-36.757-128.169-73.97-37.236-37.241-60.445-77.382-74.034-128.237-13.622-50.835-13.622-97.201 0-148.036 13.589-50.855 36.778-90.978 74.014-128.214" style="fill:#174889"/>
  <path d="M124.35 311.503c-7.616 15.231-11.423 32.02-11.423 50.358q-.002 20.735 6.768 37.664c4.795 11.281 11.145 21.015 19.042 29.202 8.187 8.179 17.214 14.389 27.09 18.619 10.157 4.232 20.45 6.344 30.89 6.344 11.852 0 22.992-1.83 33.432-5.502q15.66-5.502 28.353-17.349c8.464-7.898 15.096-17.915 19.893-30.042q7.192-18.628 7.191-43.591c0-27.647-6.91-48.528-20.734-62.633-13.547-14.106-30.613-21.157-51.21-21.157-8.746 0-16.36 1.266-22.852 3.807h-.84l63.474-127.38h-48.245zm74.909 0q19.043 0 30.89 12.694 12.271 12.694 12.271 36.816c0 16.643-4.374 29.06-13.118 37.24q-12.697 12.271-30.043 12.271c-13.547 0-24.122-4.09-31.743-12.271q-11.423-12.691-11.423-37.24 0-24.122 11.846-36.816 12.27-12.693 31.32-12.694m245.644 52.895q.002 21.583-11.428 33.855-11.425 12.271-30.891 12.271t-30.89-12.271q-11.43-12.271-11.429-33.855V236.593c0-14.382 3.809-25.67 11.429-33.849q11.425-12.279 30.89-12.277 19.465-.002 30.891 12.277c7.621 8.179 11.428 19.467 11.428 33.849zM317.1 366.94q.001 20.31 6.773 36.392c4.797 10.722 11.141 19.891 19.044 27.507 8.179 7.621 17.348 13.4 27.507 17.349 10.157 3.672 20.873 5.502 32.16 5.502s22.005-1.83 32.162-5.502c10.441-3.949 19.608-9.588 27.507-16.926 7.903-7.614 14.106-16.783 18.619-27.505q7.196-16.507 7.197-36.817V234.057c0-13.54-2.26-25.676-6.773-36.392-4.514-10.723-10.858-19.891-19.043-27.506q-12.272-11.433-27.507-16.931-15.234-5.926-32.162-5.927c-11.287 0-22.144 1.977-32.585 5.927q-15.235 5.498-27.082 16.931c-7.903 7.332-14.247 16.501-19.044 27.506-4.514 10.716-6.773 22.852-6.773 36.392z" style="fill:#fff;fill-rule:nonzero"/>
</svg>
