<svg xmlns="http://www.w3.org/2000/svg" xml:space="preserve" style="fill-rule:evenodd;clip-rule:evenodd;stroke-linejoin:round;stroke-miterlimit:2" viewBox="0 0 800 800" role="img" aria-labelledby="title">
  <title id="title">Verkehrszeichen 274.1-40 - Tempo 40-Zone</title>
  <path d="M240.517 799.409c-22.041 0-39.912-17.871-39.912-39.926V240.517c0-22.041 17.871-39.912 39.912-39.912h518.966c22.054 0 39.926 17.871 39.926 39.912v518.966c0 22.055-17.872 39.926-39.926 39.926" style="fill:#fff;fill-rule:nonzero"/>
  <path d="M391.739 484.009h23.676c3.217 13.301 16.631 21.48 29.931 18.247a24.776 24.776 0 0 0 18.96-24.087v-2.915c0-13.701-11.094-24.795-24.795-24.795h-10.205v-20.41h10.205c12.881 0 23.33-10.449 23.33-23.345 0-12.88-10.449-23.33-23.33-23.33-11.201 0-20.82 7.969-22.92 18.96h-23.54c2.418-25.659 25.171-44.496 50.83-42.09 23.98 2.266 42.305 22.387 42.305 46.46a40.88 40.88 0 0 1-17.329 33.399 42.28 42.28 0 0 1 18.779 35.151v2.915c0 26.567-21.542 48.125-48.125 48.125-24.326 0-44.829-18.144-47.772-42.285M534.293 479.624c0 12.896 10.448 23.325 23.343 23.325 12.881 0 23.33-10.429 23.33-23.325v-72.92c0-12.88-10.449-23.33-23.33-23.33-12.895 0-23.343 10.45-23.343 23.33zm-23.327 0v-72.92c0-25.766 20.894-46.66 46.67-46.66 25.782 0 46.675 20.893 46.675 46.66v72.92c0 25.776-20.893 46.67-46.675 46.67-25.776 0-46.67-20.894-46.67-46.67" style="fill:#8a8a8a;fill-rule:nonzero"/>
  <path d="M240.517 200C218.174 200 200 218.174 200 240.517v518.966C200 781.826 218.174 800 240.517 800h518.966C781.826 800 800 781.826 800 759.483V240.517C800 218.174 781.826 200 759.483 200zm0 .605h518.966c22.054 0 39.926 17.866 39.926 39.912v518.966c0 22.06-17.872 39.926-39.926 39.926H240.517c-22.041 0-39.912-17.866-39.912-39.926V240.517c0-22.046 17.871-39.912 39.912-39.912" style="fill-rule:nonzero"/>
  <path d="M240.005 210.01c-16.573 0-29.995 13.423-29.995 29.995v519.99c0 16.588 13.422 30.015 29.995 30.015h519.99c16.583 0 30.01-13.427 30.01-30.015v-519.99c0-16.572-13.428-29.995-30.01-29.995zm0 14.995h468.179L225.005 708.184V240.005c0-8.286 6.714-15 15-15m483.022.005h14.849L225.005 737.876v-14.828zm29.712 0h7.256c2.144 0 4.278.464 6.23 1.342L226.352 766.24a15.1 15.1 0 0 1-1.347-6.245v-7.256zm20.909 8.769a15 15 0 0 1 1.362 6.226v7.275L247.275 775.01h-7.27a14.8 14.8 0 0 1-6.23-1.362zm1.362 28.345v14.863L276.972 775.01h-14.848zm0 29.692v468.179c0 8.301-6.729 15.015-15.015 15.015H291.816z" style="fill-rule:nonzero"/>
  <path d="M585.494 746.841v-84h54.017v11.988h-41.259v24.009h35.259v11.25h-35.259v24.751h41.259v12.002zm-82.492 0v-84h12.003l38.251 59.992v-59.992h12.745v84h-12.002l-38.238-60.005v60.005zm-63.745-29.253c0 9.522 7.71 17.251 17.237 17.251 9.541 0 17.251-7.729 17.251-17.251V692.08c0-9.506-7.71-17.251-17.251-17.251-9.527 0-17.237 7.745-17.237 17.251zm-12.758 0V692.08c0-16.553 13.442-29.995 29.995-29.995 16.572 0 30.01 13.443 30.01 29.995v25.508c0 16.567-13.438 29.995-30.01 29.995-16.553 0-29.995-13.428-29.995-29.995m-48.609-43.5 11.25-11.247h-14.848l-11.25 11.247zm-17.388 72.753v-10.508l38.253-62.245h-6.016l11.246-11.247h10.521v9.737l-38.246 62.261h38.246v12.002M375.864 587.016a208 208 0 0 1-7.754-7.075l35.361-35.376a145 145 0 0 0 7.891 6.969zm267.989-267.982-35.489 35.482a144 144 0 0 0-6.968-7.876l35.361-35.361a190 190 0 0 1 7.095 7.755ZM392.646 599.931a192 192 0 0 1-8.604-6.245L419.8 557.93a147 147 0 0 0 9.042 5.805zm264.117-264.116-36.182 36.196a140 140 0 0 0-5.82-9.027l35.756-35.772a190 190 0 0 1 6.245 8.603ZM411.167 611.119a181 181 0 0 1-9.492-5.366l36.826-36.818a130 130 0 0 0 10.298 4.536zm256.782-256.798-37.646 37.662a139 139 0 0 0-4.537-10.313l36.817-36.811a188 188 0 0 1 5.366 9.462M431.562 620.415a182 182 0 0 1-10.443-4.4l38.735-38.72a135 135 0 0 0 11.85 2.979zm245.684-245.684-40.136 40.141a131 131 0 0 0-2.999-11.854l38.735-38.73a182 182 0 0 1 4.4 10.443m-47.989-70.8c-76.893-71.406-197.118-66.934-268.51 9.975-67.656 72.892-67.656 185.635 0 258.52l35.391-35.375c-51.841-57.363-47.368-145.898 9.995-197.745 53.311-48.183 134.438-48.183 187.748 0zm51.847 81.791c31.733 100.015-23.633 206.832-123.643 238.551a189.86 189.86 0 0 1-114.907 0l41.957-41.958c76.852 8.559 146.08-46.808 154.62-123.658a138 138 0 0 0 0-30.962" style="fill:#8a8a8a;fill-rule:nonzero"/>
  <path d="M40.517 599.41c-22.041 0-39.912-17.871-39.912-39.927V40.517C.605 18.477 18.476.606 40.517.606h518.966c22.054 0 39.926 17.872 39.926 39.911v518.966c0 22.056-17.872 39.927-39.926 39.927" style="fill:#fff;fill-rule:nonzero"/>
  <path d="M40.517 0C18.174 0 0 18.189 0 40.517v518.966c0 22.343 18.174 40.532 40.517 40.532h518.966c22.343 0 40.517-18.189 40.517-40.532V40.517C600 18.189 581.826 0 559.483 0zm0 .606h518.966c22.054 0 39.926 17.872 39.926 39.911v518.966c0 22.056-17.872 39.927-39.926 39.927H40.517c-22.046 0-39.912-17.871-39.912-39.927V40.517C.605 18.477 18.471.606 40.517.606" style="fill-rule:nonzero"/>
  <path d="M40.517 10.586c-16.523 0-29.936 13.409-29.936 29.931v518.966c0 16.538 13.413 29.951 29.936 29.951h518.966c16.537 0 29.936-13.413 29.936-29.951V40.517c0-16.522-13.399-29.931-29.936-29.931zm0 14.967h518.966c8.266 0 14.966 6.713 14.966 14.964v518.966c0 8.267-6.7 14.981-14.966 14.981H40.517c-8.271 0-14.966-6.714-14.966-14.981V40.517c0-8.251 6.695-14.964 14.966-14.964" style="fill-rule:nonzero"/>
  <path d="M300.01 53.174c-104.941 0-190.005 85.058-190.005 190 0 104.927 85.064 190 190.005 190 104.921 0 190-85.073 190-190 0-104.942-85.079-190-190-190m0 50c77.314 0 140 62.681 140 140s-62.686 140.005-140 140.005c-77.32 0-140.005-62.685-140.005-140.005s62.685-140 140.005-140" style="fill:#c1121c;fill-rule:nonzero"/>
  <path d="M192.436 284.014h23.678c3.217 13.301 16.63 21.48 29.931 18.247a24.78 24.78 0 0 0 18.96-24.087v-2.915c0-13.701-11.094-24.795-24.795-24.795h-10.205v-20.41h10.205c12.881 0 23.33-10.449 23.33-23.345 0-12.88-10.449-23.33-23.33-23.33-11.201 0-20.82 7.969-22.92 18.96h-23.54c2.417-25.659 25.171-44.496 50.83-42.089 23.98 2.265 42.305 22.388 42.305 46.459a40.88 40.88 0 0 1-17.329 33.399 42.29 42.29 0 0 1 18.779 35.151v2.915c0 26.567-21.543 48.125-48.125 48.125-24.326 0-44.829-18.144-47.774-42.285M334.99 279.629c0 12.896 10.45 23.326 23.345 23.326 12.881 0 23.33-10.43 23.33-23.326v-72.92c0-12.88-10.449-23.33-23.33-23.33-12.895 0-23.345 10.45-23.345 23.33zm-23.325 0v-72.92c0-25.767 20.894-46.66 46.67-46.66 25.781 0 46.675 20.893 46.675 46.66v72.92c0 25.776-20.894 46.67-46.675 46.67-25.776 0-46.67-20.894-46.67-46.67M385.489 546.841v-83.999h54.022v11.988h-41.258v24.009h35.253v11.25h-35.253v24.75h41.258v12.002zm-82.491 0v-83.999h12.007l38.251 59.991v-59.991h12.745v83.999h-12.002l-38.238-60.005v60.005zm-63.74-29.252c0 9.521 7.709 17.25 17.236 17.25 9.541 0 17.251-7.729 17.251-17.25V492.08c0-9.511-7.71-17.25-17.251-17.25-9.527 0-17.236 7.739-17.236 17.25zm-12.759 0V492.08c0-16.558 13.437-29.995 29.995-29.995 16.572 0 30.01 13.437 30.01 29.995v25.509c0 16.566-13.438 29.995-30.01 29.995-16.558 0-29.995-13.429-29.995-29.995m-65.996 29.252v-10.493l38.252-62.261h-36.752v-11.245h52.503v9.737l-38.251 62.26h38.251v12.002" style="fill-rule:nonzero"/>
</svg>
