<svg xmlns="http://www.w3.org/2000/svg" xml:space="preserve" viewBox="0 0 600 600" role="img" aria-labelledby="title">
  <title id="title">Verkehrszeichen 274.2[30] - Ende einer Tempo 30-Zone</title>
  <path d="M32.414.473C14.781.473.484 14.77.484 32.414v415.172c0 17.633 14.297 31.93 31.93 31.93h415.172c17.644 0 31.941-14.297 31.941-31.93V32.414c0-17.644-14.297-31.941-31.941-31.941" style="fill:#fff;fill-opacity:1;fill-rule:nonzero;stroke:none" transform="matrix(1.25 0 0 -1.25 0 600)"/>
  <path d="M153.391 252.793h18.941c2.574-10.641 13.305-17.184 23.945-14.598a19.82 19.82 0 0 1 15.168 19.27v2.332c0 10.961-8.875 19.836-19.836 19.836h-8.164v16.328h8.164c10.305 0 18.664 8.359 18.664 18.676 0 10.304-8.359 18.664-18.664 18.664-8.961 0-16.656-6.375-18.336-15.168h-18.832c1.934 20.527 20.137 35.597 40.664 33.672 19.184-1.813 33.844-17.91 33.844-37.168a32.7 32.7 0 0 0-13.863-26.719 33.83 33.83 0 0 0 15.023-28.121v-2.332c0-21.254-17.234-38.5-38.5-38.5-19.461 0-35.863 14.515-38.218 33.828M267.434 256.301c0-10.317 8.359-18.66 18.675-18.66 10.305 0 18.664 8.343 18.664 18.66v58.336c0 10.304-8.359 18.664-18.664 18.664-10.316 0-18.675-8.36-18.675-18.664zm-18.661 0v58.336c0 20.613 16.715 37.328 37.336 37.328 20.625 0 37.34-16.715 37.34-37.328v-58.336c0-20.621-16.715-37.336-37.34-37.336-20.621 0-37.336 16.715-37.336 37.336" style="fill:#8a8a8a;fill-opacity:1;fill-rule:nonzero;stroke:none" transform="matrix(1.25 0 0 -1.25 0 600)"/>
  <path d="M32.414 480C14.539 480 0 465.461 0 447.586V32.414C0 14.539 14.539 0 32.414 0h415.172C465.461 0 480 14.539 480 32.414v415.172C480 465.461 465.461 480 447.586 480zm0-.484h415.172c17.644 0 31.941-14.293 31.941-31.93V32.414c0-17.648-14.297-31.941-31.941-31.941H32.414C14.781.473.484 14.766.484 32.414v415.172c0 17.637 14.297 31.93 31.93 31.93" style="fill:#000;fill-opacity:1;fill-rule:nonzero;stroke:none" transform="matrix(1.25 0 0 -1.25 0 600)"/>
  <path d="M32.004 471.992c-13.258 0-23.996-10.738-23.996-23.996V32.004c0-13.27 10.738-24.012 23.996-24.012h415.992c13.266 0 24.008 10.742 24.008 24.012v415.992c0 13.258-10.742 23.996-24.008 23.996zm0-11.996h374.543L20.004 73.453v374.543c0 6.629 5.371 12 12 12m386.418-.004h11.879L20.004 49.699v11.863zm23.769 0h5.805c1.715 0 3.422-.371 4.984-1.074L21.082 27.008a12.1 12.1 0 0 0-1.078 4.996v5.805zm16.727-7.015a12 12 0 0 0 1.09-4.981v-5.82L37.82 19.992h-5.816c-1.715 0-3.422.363-4.984 1.09zm1.09-22.676V418.41L61.578 19.992H49.699zm0-23.754V32.004c0-6.641-5.383-12.012-12.012-12.012H73.453z" style="fill:#000;fill-opacity:1;fill-rule:nonzero;stroke:none" transform="matrix(1.25 0 0 -1.25 0 600)"/>
  <path d="M308.395 42.527v67.2h43.214v-9.59h-33.007V80.93h28.207v-9h-28.207V52.129h33.007v-9.602zm-65.993 0v67.2h9.602l30.601-47.993v47.993h10.196v-67.2h-9.602l-30.59 48.004V42.527zM191.406 65.93c0-7.618 6.168-13.801 13.789-13.801 7.633 0 13.801 6.183 13.801 13.801v20.406c0 7.605-6.168 13.801-13.801 13.801-7.621 0-13.789-6.196-13.789-13.801zm-10.207 0v20.406c0 13.242 10.754 23.996 23.996 23.996 13.258 0 24.008-10.754 24.008-23.996V65.93c0-13.254-10.75-23.996-24.008-23.996-13.242 0-23.996 10.742-23.996 23.996m-38.887 34.8 9 8.997h-11.878l-9-8.997zm-13.91-58.203v8.407l30.602 49.796h-4.813l8.997 8.997h8.417v-7.789l-30.597-49.809h30.597v-9.602M140.691 170.387a167 167 0 0 0-6.203 5.66l28.289 28.301a116 116 0 0 1 6.313-5.575zm214.391 214.386-28.391-28.386a115 115 0 0 1-5.574 6.301l28.289 28.289a152 152 0 0 0 5.676-6.204M154.117 160.055a154 154 0 0 0-6.883 4.996l28.606 28.605a117 117 0 0 1 7.234-4.644zM365.41 371.348l-28.945-28.957a112 112 0 0 1-4.656 7.222l28.605 28.617a153 153 0 0 0 4.996-6.882M168.934 151.105a144 144 0 0 0-7.594 4.293l29.461 29.454a104 104 0 0 1 8.238-3.629zm205.425 205.438-30.117-30.129a111 111 0 0 1-3.629 8.25l29.453 29.449c1.5-2.476 2.938-5.008 4.293-7.57M185.25 143.668a146 146 0 0 0-8.355 3.52l30.988 30.976c3.117-.934 6.273-1.73 9.48-2.383zm196.547 196.547-32.109-32.113a105 105 0 0 1-2.399 9.484l30.988 30.984a146 146 0 0 0 3.52-8.355m-38.391 56.64c-61.515 57.125-157.695 53.547-214.808-7.98-54.125-58.313-54.125-148.508 0-206.816l28.312 28.3c-41.472 45.891-37.894 116.719 7.996 158.196 42.649 38.547 107.551 38.547 150.199 0zm41.477-65.433c25.387-80.012-18.906-165.465-98.914-190.84a151.88 151.88 0 0 0-91.926 0l33.566 33.566c61.481-6.847 116.864 37.446 123.696 98.926.929 8.235.929 16.547 0 24.77" style="fill:#8a8a8a;fill-opacity:1;fill-rule:nonzero;stroke:none" transform="matrix(1.25 0 0 -1.25 0 600)"/>
</svg>
