<svg xmlns="http://www.w3.org/2000/svg" xml:space="preserve" viewBox="0 0 600 600" role="img" aria-labelledby="title">
  <title id="title">Verkehrszeichen 244.3 - Fahrradzone</title>
  <path d="M28.543 449.777C.16 449.777.223 421.52.223 421.52V28.48S.16.227 28.543.227h392.914c28.383 0 28.316 28.253 28.316 28.253v393.04s.067 28.257-28.316 28.257z" style="fill:#fff;fill-opacity:1;fill-rule:nonzero;stroke:none" transform="matrix(1.33333 0 0 -1.33333 0 600)"/>
  <path d="M27.945 442.359c-20.304.036-20.23-20.238-20.23-20.238V27.879S7.641 7.605 27.945 7.641h394.114c20.304-.036 20.226 20.238 20.226 20.238v394.242s.078 20.274-20.226 20.238zm0-11.238h394.114s8.964-.359 8.984-9V27.879c-.02-8.641-8.984-8.996-8.984-8.996H27.945s-8.968.355-8.988 8.996v394.242c.02 8.641 8.988 9 8.988 9" style="fill:#000;fill-opacity:1;fill-rule:nonzero;stroke:none" transform="matrix(1.33333 0 0 -1.33333 0 600)"/>
  <path d="M28.543 450c-14.266 0-21.445-7.133-25.004-14.254C-.02 428.629 0 421.516 0 421.516V28.48s-.02-7.109 3.539-14.226S14.277 0 28.543 0h392.914c14.266 0 21.445 7.137 25.004 14.254S450 28.484 450 28.484v393.032c0 .004.02 7.113-3.539 14.23S435.723 450 421.457 450Zm0-.223h392.914c28.383 0 28.316-28.257 28.316-28.257V28.48S449.84.227 421.457.227H28.543C.16.227.223 28.48.223 28.48v393.04s-.063 28.257 28.32 28.257" style="fill:#000;fill-opacity:1;fill-rule:nonzero;stroke:none" transform="matrix(1.33333 0 0 -1.33333 0 600)"/>
  <path d="M288.684 45.805v63.066h40.558v-9.004h-30.976V81.844h26.472v-8.446h-26.472V54.82h30.976v-9.015zm-61.93 0v63.066h9.012l28.722-45.039v45.039h9.567V45.805h-9.012l-28.707 45.05v-45.05ZM178.906 67.77c0-7.149 5.785-12.95 12.938-12.95 7.16 0 12.949 5.801 12.949 12.95v19.152c0 7.137-5.789 12.945-12.949 12.945-7.153 0-12.938-5.808-12.938-12.945zm-9.582 0v19.152c0 12.437 10.09 22.516 22.52 22.516 12.437 0 22.527-10.079 22.527-22.516V67.77c0-12.438-10.09-22.516-22.527-22.516-12.43 0-22.52 10.078-22.52 22.516m-49.547-21.965v7.89l28.719 46.731h-27.594v8.445h39.418v-7.309L131.605 54.82h28.715v-9.015" style="fill:#000;fill-opacity:1;fill-rule:nonzero;stroke:none" transform="matrix(1.33333 0 0 -1.33333 0 600)"/>
  <path d="M359.645 269.859c0-74.554-60.442-135-135-135-74.559 0-135 60.446-135 135 0 74.559 60.441 135 135 135s135-60.441 135-135" style="fill:#154889;fill-opacity:1;fill-rule:nonzero;stroke:none" transform="matrix(1.33333 0 0 -1.33333 0 600)"/>
  <path d="M208.059 336.141h-14.571l-1.871-.215-1.879-.434-1.8-.648-1.735-.864-1.586-1.015-1.512-1.223-1.3-1.445-1.153-1.512-.941-1.656-.789-1.731-.289-.941-12.117-38.875-2.524.438-5.117.359-5.121-.215-5.051-.941-4.976-1.442-4.688-2.16-4.402-2.668-4.039-3.176-3.602-3.683-3.101-4.035-2.598-4.469-2.024-4.695-1.437-4.969-.793-5.055-.219-5.191.508-5.118 1.078-4.98 1.735-4.828 2.304-4.621 2.813-4.25 3.39-3.899 3.821-3.461 4.183-2.957 4.547-2.378 4.832-1.805 4.977-1.223 5.117-.578h5.191l5.051.719 4.977 1.297 4.832 1.953 4.472 2.449 4.184 3.031 3.754 3.531 3.238 3.969 2.742 4.328 2.239 4.688 1.586 4.902 1.007 4.977.364 5.121-.219 5.121-.938 5.047-1.515 4.906-2.16 4.688-2.668 4.398-3.176 4.035-3.75 3.61-4.039 3.105-4.473 2.594-2.379 1.082 3.317 10.597 48.972-54.378.289-.286.653-.578.715-.578.722-.433.793-.286.867-.289.864-.218.867-.071h17.816l.574-2.453 1.661-4.832 2.234-4.613 2.812-4.328 3.243-3.965 3.757-3.465 4.18-3.031 4.473-2.449 4.758-1.879 4.976-1.297 5.125-.719h5.117l5.047.578 4.977 1.223 4.832 1.805 4.547 2.378 4.183 2.961 3.821 3.457 3.316 3.825 2.887 4.328 2.304 4.543 1.735 4.828 1.078 4.98.504 5.047-.145 5.195-.785 5.051-1.445 4.899-2.02 4.765-2.523 4.399-3.106 4.113-3.601 3.676-3.969 3.172-4.398 2.738-4.688 2.094-4.832 1.515-5.051.938-5.191.289-5.051-.359-5.047-.942-2.449-.719-12.047 26.903 3.098 8.293h9.305v8.293h-35.625l-.215-.075-.223-.07-.285-.144-.141-.145-.219-.144-.144-.215-.145-.219-.144-.215-.074-.215-.071-.222v-.786l.071-.222.074-.215.289-.43.144-.219.219-.144.215-.141.211-.144.223-.074h.14l17.528-4.254-3.098-8.293h-74.074l3.316 10.742.219.504.359.871.508.789.574.793.653.652.718.649.793.504.868.433.937.36.934.214.941.075h14.063zm-27.407-33.176 51.856-57.625 21.637 57.625zm-16.586-25.387-2.019.289-4.039.211-4.11-.281-3.972-.797-3.891-1.297-3.676-1.73-3.464-2.164-3.176-2.598-2.813-2.957-2.453-3.246-2.015-3.606-1.516-3.746-1.082-3.972-.578-4.036-.145-4.039.434-4.113.941-3.891 1.367-3.824 1.875-3.609 2.235-3.387 2.668-3.097 3.101-2.743 3.321-2.312 3.601-1.942 3.824-1.445 3.969-.941 4.039-.504 4.113.078 4.036.5 3.968 1.082 3.821 1.445 3.535 1.946 3.316 2.453 3.031 2.742 2.59 3.098 2.243 3.464 1.8 3.606 1.371 3.82.797 3.969.36 4.113-.145 4.035-.652 4.039-1.153 3.965-1.585 3.75-2.094 3.461-2.453 3.254-2.883 2.953-3.172 2.52-3.465 2.164-1.871.871-9.738-31.449-.074-.215-.215-.504-.289-.434-.286-.433-.437-.36-.356-.285-.507-.293-.434-.144-.504-.145-.508-.07h-1.078l-.504.144-.504.215-.437.215-.43.293-.367.356-.355.437-.289.434-.215.429-.293 1.008v1.012l.074.578.074.215zm77.168-32.668h8.297l.071 2.449.503 4.832 1.157 4.688 1.656 4.543 2.234 4.402 2.668 4.035 3.176 3.68 3.535 3.316 3.895 2.883 2.09 1.231-8.582 19.258zm16.586 0h28.852l-12.766 28.485-1.586-1.008-3.031-2.313-2.668-2.668-2.453-2.953-2.09-3.172-1.66-3.394-1.297-3.606-.863-3.676-.438-3.82zm1.012-8.297.578-1.875 1.516-3.754 1.875-3.531 2.379-3.32 2.668-2.957 3.101-2.664 3.321-2.235 3.675-1.804 3.746-1.371 3.969-.868 4.043-.433 4.035.078 3.969.57 3.891 1.086 3.754 1.512 3.531 1.945 3.25 2.383 2.953 2.813 2.602 3.031 2.16 3.39 1.804 3.676 1.297 3.75.867 3.899.36 4.035-.145 4.039-.648 4.039-1.086 3.82-1.586 3.754-2.016 3.531-2.379 3.176-2.812 2.961-3.106 2.52-3.39 2.164-3.676 1.73-3.82 1.297-3.969.797-4.039.281-4.039-.14-3.965-.719-1.949-.504 15.289-34.258.07-.215.145-.508.144-.433v-1.012l-.07-.43-.145-.507-.211-.43-.222-.434-.289-.359-.719-.723-.43-.215-.871-.433-.43-.074-.503-.071z" style="fill:#fff;fill-opacity:1;fill-rule:evenodd;stroke:none" transform="matrix(1.33333 0 0 -1.33333 0 600)"/>
</svg>
