<svg xmlns="http://www.w3.org/2000/svg" xml:space="preserve" style="fill-rule:evenodd;clip-rule:evenodd;stroke-linejoin:round;stroke-miterlimit:2" viewBox="0 0 602 602" role="img" aria-labelledby="title">
  <title id="title">Verkehrszeichen 279-80 - Ende der vorgeschriebenen Mindestgeschwindigkeit</title>
  <path d="M513.53 88.55c39.098 39.096 63.438 81.245 77.754 134.658 14.316 53.462 14.316 102.143 0 155.606-14.311 53.412-38.676 95.586-77.798 134.706-39.096 39.098-81.25 63.443-134.687 77.779-53.433 14.292-102.144 14.311-155.576-.024-53.418-14.317-95.567-38.657-134.663-77.755-39.121-39.12-63.486-81.294-77.822-134.731-14.317-53.413-14.317-102.144 0-155.556C25.074 169.8 49.414 127.646 88.515 88.55c39.116-39.121 81.295-63.486 134.703-77.802 53.437-14.337 102.148-14.317 155.586-.025 53.432 14.341 95.605 38.701 134.726 77.827m-.351.351c-39.068-39.067-81.143-63.378-134.506-77.695-53.365-14.272-101.964-14.297-155.323.024-53.345 14.298-95.415 38.604-134.483 77.671C49.824 127.949 25.533 170 11.216 223.359c-14.292 53.34-14.292 101.959.005 155.299 14.317 53.363 38.628 95.438 77.695 134.506 39.043 39.044 81.099 63.33 134.434 77.627 53.364 14.317 101.958 14.292 155.323.024 53.363-14.316 95.414-38.602 134.462-77.646 39.068-39.068 63.374-81.143 77.666-134.488 14.297-53.383 14.297-101.957 0-155.341-14.287-53.34-38.58-95.396-77.622-134.439"/>
  <path d="M88.867 88.901c39.068-39.067 81.138-63.373 134.483-77.671 53.359-14.321 101.958-14.296 155.323-.024 53.363 14.322 95.438 38.628 134.506 77.695 39.047 39.043 63.335 81.099 77.622 134.439 14.297 53.384 14.297 101.963.005 155.346-14.297 53.34-38.603 95.415-77.671 134.483-39.048 39.044-81.099 63.33-134.459 77.646-53.363 14.273-101.962 14.293-155.326-.024-53.335-14.297-95.386-38.578-134.434-77.627-39.067-39.068-63.373-81.143-77.695-134.506-14.297-53.34-14.297-101.959 0-155.303C25.533 170 49.824 127.949 88.867 88.901" style="fill:#fff"/>
  <path d="M98.794 98.779c37.212-37.211 77.334-60.4 128.194-73.994 50.853-13.642 97.221-13.642 148.056-.024 50.855 13.594 91.001 36.802 128.237 74.038 37.217 37.216 60.352 77.339 73.97 128.169 13.618 50.883 13.618 97.202.005 148.081-13.623 50.835-36.782 90.981-73.995 128.194-37.241 37.236-77.362 60.425-128.217 74.018-50.835 13.618-97.203 13.618-148.061-.025-50.855-13.593-90.953-36.757-128.169-73.97-37.236-37.241-60.445-77.382-74.034-128.237-13.622-50.835-13.622-97.201 0-148.036 13.589-50.855 36.778-90.978 74.014-128.214" style="fill:#154889"/>
  <path d="M162.519 234.828q0 20.94 13.107 31.712 13.106 10.773 29.377 10.772t29.377-10.772q13.109-10.772 13.109-31.712 0-20.735-13.109-31.613c-8.737-7.244-18.53-10.872-29.377-10.872s-20.64 3.628-29.377 10.872q-13.108 10.877-13.107 31.613m-47.784 127.479q0-43.312 34.952-66.69c-8.806-7.866-15.955-16.573-21.442-26.113-5.492-9.554-8.236-20.848-8.236-33.872q-.002-35.781 24.507-60.79 24.5-25.008 60.487-25.009 35.979 0 60.489 25.009c16.333 16.673 24.506 36.935 24.506 60.79 0 13.024-2.781 24.318-8.337 33.872-5.562 9.54-12.616 18.247-21.167 26.113 23.182 15.718 34.777 37.953 34.777 66.69 0 26.302-8.914 47.683-26.742 64.154-17.826 16.459-39.006 24.682-63.526 24.682-24.675 0-45.892-8.223-63.651-24.682-17.746-16.471-26.617-37.852-26.617-64.154m42.486-.401c0 13.546 4.777 24.757 14.337 33.645 9.554 8.877 20.703 13.309 33.445 13.309 12.605 0 23.753-4.432 33.446-13.309 9.692-8.888 14.539-20.099 14.539-33.645q0-20.34-14.539-33.747c-9.693-8.951-20.841-13.433-33.446-13.433-12.742 0-23.891 4.482-33.445 13.433q-14.339 13.407-14.337 33.747m286.552 1.607V237.664c0-14.223-3.835-25.334-11.5-33.319-7.652-7.998-17.714-12.002-30.181-12.002-12.605 0-22.711 4.004-30.308 12.002-7.581 7.985-11.374 19.096-11.374 33.319v125.849q.001 21.57 11.374 33.47c7.597 7.922 17.703 11.877 30.308 11.877 12.467 0 22.529-3.955 30.181-11.877q11.499-11.9 11.5-33.47m-125.847 2.46V235.23q0-40.847 25.611-63.124 25.61-22.272 58.555-22.273 32.74.001 58.454 22.273c17.137 14.852 25.712 35.892 25.712 63.124v130.743c0 27.237-8.575 48.248-25.712 63.024q-25.715 22.146-58.454 22.146-32.945 0-58.555-22.146c-17.075-14.776-25.611-35.787-25.611-63.024" style="fill:#fff;fill-rule:nonzero"/>
  <path d="m480.976 78.476-.166.167L78.481 480.958a286 286 0 0 0 42.584 42.567l.151-.151.005.005 402.158-402.154.166-.165a285.8 285.8 0 0 0-42.569-42.584" style="fill:#af151b;fill-rule:nonzero"/>
</svg>
