<svg xmlns="http://www.w3.org/2000/svg" xml:space="preserve" viewBox="0 0 601 604.721" role="img" aria-labelledby="title">
  <title id="title">Verkehrszeichen 278-5 - Ende der zulässigen Höchstgeschwindigkeit</title>
  <path d="M600.5 302.36c0 166.714-134.312 301.858-300 301.858S.5 469.074.5 302.36C.5 135.647 134.812.503 300.5.503s300 135.144 300 301.857" style="fill:#fff;fill-opacity:1;fill-rule:nonzero;stroke:none;stroke-width:1.33333325"/>
  <path d="M300.5 0C134.541 0 0 135.374 0 302.36c0 166.981 134.541 302.36 300.5 302.36 165.953 0 300.5-135.379 300.5-302.36C601 135.374 466.453 0 300.5 0m0 .503c165.688 0 300 135.144 300 301.857s-134.312 301.858-300 301.858S.5 469.074.5 302.36C.5 135.647 134.812.503 300.5.503" style="fill:#000;fill-opacity:1;fill-rule:nonzero;stroke:none;stroke-width:1.33333325"/>
  <path d="M223.488 156.849h153.618v41.343H262.4v65.257q19.861-15.808 46.207-15.808 16.619 0 29.995 6.486 13.375 6.08 21.482 14.591 6.08 6.486 10.133 12.97 4.459 6.08 6.89 14.998 2.838 8.917 4.054 21.077 1.621 12.16 1.621 29.994 0 14.592-1.216 25.13-.81 10.133-3.243 18.24-2.026 7.7-5.269 13.78-3.242 6.08-8.106 12.16-8.917 11.35-24.725 21.077t-37.695 9.728q-14.187 0-28.373-4.053-13.781-4.053-25.536-12.97-11.754-9.323-19.86-23.51-8.107-14.186-10.54-34.452h41.344q3.243 15.402 13.376 24.725 10.538 8.917 27.967 8.917 14.997 0 23.104-5.675 8.512-6.08 12.16-14.997 4.053-9.322 4.458-20.266.81-10.944.81-21.077 0-12.16-2.026-22.293-1.621-10.133-6.08-17.429t-12.97-11.349q-8.107-4.458-20.672-4.458-11.754 0-21.077 5.674-8.917 5.27-16.213 18.24h-38.91z" style="font-style:normal;font-variant:normal;font-weight:400;font-stretch:normal;font-size:348.18942261px;line-height:125%;font-family:&quot;DIN 1451 Std&quot;;-inkscape-font-specification:&quot;DIN 1451 Std&quot;;text-align:start;letter-spacing:0;word-spacing:0;writing-mode:lr-tb;text-anchor:start;fill:#666;fill-opacity:1;stroke:none;stroke-width:.07722671px;stroke-linecap:butt;stroke-linejoin:miter;stroke-opacity:1"/>
  <path d="M300.5 10.633c-160.03 0-289.927 130.706-289.927 291.727 0 161.022 129.896 291.722 289.927 291.722 160.03 0 289.932-130.7 289.932-291.722 0-161.021-129.901-291.727-289.932-291.727m0 15.093c57.885 0 111.563 17.98 155.844 48.68L73.943 459.169c-30.506-44.555-48.375-98.565-48.375-156.809 0-152.867 123.005-276.634 274.932-276.634m164.901 55.215a282 282 0 0 1 8.916 7.038L87.437 477.254a283 283 0 0 1-6.994-8.971zm17.318 14.233a283 283 0 0 1 8.286 7.677L102.22 494.04a277 277 0 0 1-7.631-8.333zm16.062 15.507c2.599 2.72 5.14 5.503 7.631 8.333l-388.13 390.533A276 276 0 0 1 110 501.87zm14.782 16.78a283 283 0 0 1 6.994 8.972L135.6 523.78a276 276 0 0 1-8.916-7.038zm13.494 18.09c30.506 44.561 48.38 98.566 48.38 156.81 0 152.867-123.01 276.628-274.937 276.628-57.88 0-111.563-17.98-155.844-48.674z" style="fill:#000;fill-opacity:1;fill-rule:nonzero;stroke:none;stroke-width:1.33333325"/>
</svg>
