<svg xmlns="http://www.w3.org/2000/svg" viewBox="0 0 1900 870" role="img" aria-labelledby="title">
  <title id="title">Verkehrszeichen 295 - Fahrstreifenbegrenzung und Fahrbahnbegrenzung</title>
  <path d="M155.484 861.163C406.098 570.828 844.89 151.453 1206.174 8.142l466.453-.2c-245.03 387.853-153.285 515.303 53.087 856.344z" style="fill:#999;fill-opacity:1;fill-rule:evenodd;stroke:none;stroke-width:1px;stroke-linecap:butt;stroke-linejoin:miter;stroke-opacity:1"/>
  <path d="M156.475 859.781C493.36 487.673 818.82 176.608 1206.377 8.49l-36.086.16C975.687 69.823 350.641 483.141 7.022 859.77zM1893.534 862.135c-214.043-203.072-466.346-427.377-203.28-851.904l-18.369-.223c-168.135 297.196-238.552 402.694 55.612 852.116zM952.589 861.58l49.678.561c22.323-385.216 177.946-612.613 430.265-853.513h-23.857C1162.71 207.633 951.761 574.578 952.59 861.58z" style="fill:#fff;fill-opacity:1;fill-rule:evenodd;stroke:#000;stroke-width:4;stroke-linecap:butt;stroke-linejoin:miter;stroke-miterlimit:4;stroke-dasharray:none;stroke-opacity:1"/>
</svg>
