<svg xmlns="http://www.w3.org/2000/svg" xml:space="preserve" style="fill-rule:evenodd;clip-rule:evenodd;stroke-linejoin:round;stroke-miterlimit:2" viewBox="0 0 800 800" role="img" aria-labelledby="title">
  <title id="title">Verkehrszeichen 274.1-41 - Tempo 41-Zone</title>
  <path d="M240.517 799.409c-22.041 0-39.912-17.871-39.912-39.926V240.517c0-22.041 17.871-39.912 39.912-39.912h518.966c22.055 0 39.926 17.871 39.926 39.912v518.966c0 22.055-17.871 39.926-39.926 39.926" style="fill:#fff;fill-rule:nonzero"/>
  <path d="M240.517 200C218.174 200 200 218.174 200 240.517v518.966C200 781.826 218.174 800 240.517 800h518.966C781.826 800 800 781.826 800 759.483V240.517C800 218.174 781.826 200 759.483 200zm0 .605h518.966c22.055 0 39.926 17.866 39.926 39.912v518.966c0 22.06-17.872 39.926-39.926 39.926H240.517c-22.041 0-39.912-17.866-39.912-39.926V240.517c0-22.046 17.871-39.912 39.912-39.912" style="fill-rule:nonzero"/>
  <path d="M240.005 210.01c-16.572 0-29.995 13.423-29.995 29.995v519.99c0 16.588 13.423 30.015 29.995 30.015h519.99c16.583 0 30.01-13.427 30.01-30.015v-519.99c0-16.572-13.427-29.995-30.01-29.995zm0 14.995h468.179L225.005 708.184V240.005c0-8.286 6.714-15 15-15" style="fill-rule:nonzero"/>
  <path d="M291.816 775.01 775.01 291.821v468.174c0 8.301-6.729 15.015-15.015 15.015M276.972 775.01h-14.848L775.01 262.124v14.863M247.275 775.01h-7.27c-2.149 0-4.277-.454-6.23-1.362l539.873-539.869a15 15 0 0 1 1.362 6.226v7.275M225.005 752.739 752.739 225.01h7.256c2.149 0 4.278.469 6.23 1.343L226.353 766.24a15.1 15.1 0 0 1-1.348-6.245M225.005 737.876v-14.828L723.028 225.01h14.848" style="fill:#fff;fill-rule:nonzero"/>
  <path d="M585.494 746.841v-84h54.017v11.988h-41.259v24.009h35.259v11.25h-35.259v24.751h41.259v12.002zm-82.491 0v-84h12.002l38.251 59.992v-59.992h12.745v84h-12.002l-38.238-60.005v60.005zm-63.745-29.253c0 9.522 7.71 17.251 17.236 17.251 9.541 0 17.251-7.729 17.251-17.251V692.08c0-9.506-7.71-17.251-17.251-17.251-9.527 0-17.236 7.745-17.236 17.251zm-12.759 0V692.08c0-16.553 13.442-29.995 29.995-29.995 16.572 0 30.01 13.443 30.01 29.995v25.508c0 16.567-13.438 29.995-30.01 29.995-16.553 0-29.995-13.428-29.995-29.995m-48.609-43.5 11.25-11.247h-14.847l-11.25 11.247zm-17.387 72.753v-10.508l38.252-62.245h-6.016l11.246-11.247h10.521v9.737l-38.246 62.261h38.246v12.002M375.864 587.016a209 209 0 0 1-7.754-7.075l35.361-35.376a145 145 0 0 0 7.891 6.969zm267.989-267.982-35.489 35.482a144 144 0 0 0-6.968-7.876l35.361-35.361a190 190 0 0 1 7.096 7.755M392.646 599.931a192 192 0 0 1-8.604-6.245L419.8 557.93a147 147 0 0 0 9.042 5.805zm264.117-264.116-36.182 36.196a140 140 0 0 0-5.82-9.027l35.756-35.772a190 190 0 0 1 6.245 8.603ZM411.168 611.119a181 181 0 0 1-9.493-5.366l36.826-36.818a130 130 0 0 0 10.298 4.536zm256.781-256.798-37.646 37.662a139 139 0 0 0-4.537-10.313l36.817-36.811a188 188 0 0 1 5.366 9.462M431.563 620.415a182 182 0 0 1-10.444-4.4l38.735-38.72a135 135 0 0 0 11.85 2.979zm245.683-245.684-40.136 40.141a131 131 0 0 0-2.999-11.854l38.735-38.73a182 182 0 0 1 4.4 10.443m-47.989-70.8c-76.893-71.406-197.118-66.934-268.509 9.975-67.657 72.892-67.657 185.635 0 258.52l35.39-35.375c-51.84-57.363-47.368-145.898 9.995-197.745 53.311-48.183 134.438-48.183 187.748 0zm51.847 81.791c31.734 100.015-23.633 206.832-123.643 238.551a189.86 189.86 0 0 1-114.907 0l41.957-41.958c76.852 8.559 146.08-46.808 154.62-123.658a138 138 0 0 0 0-30.962" style="fill:#8a8a8a;fill-rule:nonzero"/>
  <path d="M536.67 411.368v14.843l-23.325 23.345v-14.864zm0 29.692v14.863l-23.325 23.325v-14.844zm0 29.706v8.863c0 1.797.205 3.598.62 5.351l-17.797 17.807a46.3 46.3 0 0 1-4.401-10.443zm5.625 24.073a23.5 23.5 0 0 0 8.574 6.26l-17.114 17.113a46.5 46.5 0 0 1-7.984-6.864zm64.36-34.683v19.473c0 25.776-20.879 46.67-46.64 46.67a46.7 46.7 0 0 1-16.48-2.993l20.727-20.742a23.31 23.31 0 0 0 18.687-18.673zm0-29.697v14.849l-23.31 23.345v-14.864zm0-14.844-23.31 23.325v-14.844l22.993-22.997c.23 1.86.317 3.735.317 5.61zm-23.31-6.367v-2.539c0-3.461-.786-6.909-2.285-10.039l16.983-16.977a45.7 45.7 0 0 1 5.243 9.6zm-1.03-43.525a47.3 47.3 0 0 1 8.725 6.137l-16.557 16.553a23.4 23.4 0 0 0-10.22-4.638zm-68.97 40.986c0-25.761 20.894-46.655 46.67-46.655 3.916 0 7.846.497 11.64 1.48l-58.31 58.315zm-17.51 104.897-13.243 13.228h13.243zm-19.61-10.102-23.33 23.33h14.849l23.325-23.33zm-29.691 0-23.331 23.33h14.848l23.326-23.33zm-44.029 23.33v-21.875l64.936-81.734c8.013-10.087 6.334-24.765-3.75-32.777-10.097-8.018-24.78-6.338-32.792 3.745a23.34 23.34 0 0 0-5.064 14.516h-23.33c0-25.761 20.894-46.655 46.655-46.655 25.781 0 46.675 20.894 46.675 46.655a46.64 46.64 0 0 1-10.22 29.151l-46.719 58.433-30.541 30.541" style="fill:#8a8a8a;fill-rule:nonzero"/>
  <path d="M40.518 599.409c-22.042 0-39.913-17.871-39.913-39.926V40.517C.605 18.476 18.476.605 40.518.605h518.965c22.055 0 39.926 17.871 39.926 39.912v518.966c0 22.055-17.871 39.926-39.926 39.926" style="fill:#fff;fill-rule:nonzero"/>
  <path d="M40.518 0C18.174 0 0 18.174 0 40.517v518.966C0 581.826 18.174 600 40.518 600h518.965C581.826 600 600 581.826 600 559.483V40.517C600 18.174 581.826 0 559.483 0zm0 .605h518.965c22.055 0 39.926 17.871 39.926 39.912v518.966c0 22.055-17.871 39.926-39.926 39.926H40.517c-22.041 0-39.912-17.871-39.912-39.926V40.517C.605 18.476 18.476.605 40.517.605Z" style="fill-rule:nonzero"/>
  <path d="M40.518 10.581c-16.524 0-29.932 13.413-29.932 29.936v518.966c0 16.537 13.408 29.931 29.932 29.931h518.965c16.537 0 29.931-13.394 29.931-29.931V40.517c0-16.523-13.394-29.936-29.931-29.936zm0 14.97h518.965c8.266 0 14.966 6.714 14.966 14.966v518.966c0 8.266-6.7 14.98-14.966 14.98H40.517c-8.266 0-14.966-6.714-14.966-14.98V40.517c0-8.252 6.7-14.966 14.966-14.966Z" style="fill-rule:nonzero"/>
  <path d="M300.01 53.174c-104.941 0-190.005 85.059-190.005 190 0 104.926 85.064 190 190.005 190 104.926 0 190-85.074 190-190 0-104.941-85.074-190-190-190m0 50c77.319 0 140 62.681 140 140s-62.681 140.005-140 140.005-140.005-62.685-140.005-140.005 62.685-140 140.005-140" style="fill:#c1121c;fill-rule:nonzero"/>
  <path d="M385.489 546.841v-84h54.022v11.988h-41.258v24.008h35.258v11.25h-35.258v24.747h41.258v12.007zm-82.486 0v-84h12.002l38.251 59.992v-59.992h12.745v84h-12.002l-38.238-60.01v60.01zm-63.745-29.254c0 9.523 7.71 17.247 17.236 17.247 9.541 0 17.251-7.724 17.251-17.247V492.08c0-9.511-7.71-17.251-17.251-17.251-9.527 0-17.236 7.74-17.236 17.251zm-12.759 0V492.08c0-16.558 13.442-29.995 29.995-29.995 16.572 0 30.01 13.437 30.01 29.995v25.507c0 16.568-13.438 29.996-30.01 29.996-16.553 0-29.995-13.428-29.995-29.996m-65.996 29.254v-10.508l38.252-62.246h-36.752v-11.246h52.503v9.737l-38.246 62.256h38.246v12.007M202.505 324.834v-21.88l64.936-81.733c8.013-10.084 6.334-24.766-3.75-32.779-10.097-8.012-24.78-6.332-32.792 3.75a23.34 23.34 0 0 0-5.064 14.517h-23.33c0-25.767 20.894-46.66 46.655-46.66 25.781 0 46.675 20.893 46.675 46.66a46.65 46.65 0 0 1-10.22 29.151l-52.495 65.644h62.715v23.33M336.67 279.629c0 12.881 10.435 23.325 23.345 23.325 12.866 0 23.33-10.444 23.33-23.325v-72.92c0-12.882-10.464-23.33-23.33-23.33-12.91 0-23.345 10.448-23.345 23.33zm-23.325 0v-72.92c0-25.767 20.894-46.66 46.67-46.66 25.761 0 46.64 20.893 46.64 46.66v72.92c0 25.776-20.879 46.67-46.64 46.67-25.776 0-46.67-20.894-46.67-46.67" style="fill-rule:nonzero"/>
</svg>
