<svg xmlns="http://www.w3.org/2000/svg" xml:space="preserve" style="fill-rule:evenodd;clip-rule:evenodd;stroke-linejoin:round;stroke-miterlimit:2" viewBox="0 0 602 602" role="img" aria-labelledby="title">
  <title id="title">Verkehrszeichen 279-40 - Ende der vorgeschriebenen Mindestgeschwindigkeit</title>
  <path d="M513.53 88.55c39.098 39.096 63.438 81.245 77.754 134.658 14.316 53.462 14.316 102.143 0 155.606-14.311 53.412-38.676 95.586-77.798 134.706-39.096 39.098-81.25 63.443-134.687 77.779-53.433 14.292-102.144 14.311-155.576-.024-53.418-14.317-95.567-38.657-134.663-77.755-39.121-39.12-63.486-81.294-77.822-134.731-14.317-53.413-14.317-102.144 0-155.556C25.074 169.8 49.414 127.646 88.515 88.55c39.116-39.121 81.295-63.486 134.703-77.802 53.437-14.337 102.148-14.317 155.586-.025 53.432 14.341 95.605 38.701 134.726 77.827m-.351.351c-39.068-39.067-81.143-63.378-134.506-77.695-53.365-14.272-101.964-14.297-155.323.024-53.345 14.298-95.415 38.604-134.483 77.671C49.824 127.949 25.533 170 11.216 223.359c-14.292 53.34-14.292 101.959.005 155.299 14.317 53.363 38.628 95.438 77.695 134.506 39.043 39.044 81.099 63.33 134.434 77.627 53.364 14.317 101.958 14.292 155.323.024 53.363-14.316 95.414-38.602 134.462-77.646 39.068-39.068 63.374-81.143 77.666-134.488 14.297-53.383 14.297-101.957 0-155.341-14.287-53.34-38.58-95.396-77.622-134.439"/>
  <path d="M88.867 88.901c39.068-39.067 81.138-63.373 134.483-77.671 53.359-14.321 101.958-14.296 155.323-.024 53.363 14.322 95.438 38.628 134.506 77.695 39.047 39.043 63.335 81.099 77.622 134.439 14.297 53.384 14.297 101.963.005 155.346-14.297 53.34-38.603 95.415-77.671 134.483-39.048 39.044-81.099 63.33-134.459 77.646-53.363 14.273-101.962 14.293-155.326-.024-53.335-14.297-95.386-38.578-134.434-77.627-39.067-39.068-63.373-81.143-77.695-134.506-14.297-53.34-14.297-101.959 0-155.303C25.533 170 49.824 127.949 88.867 88.901" style="fill:#fff"/>
  <path d="M98.794 98.779c37.212-37.211 77.334-60.4 128.194-73.994 50.853-13.642 97.221-13.642 148.056-.024 50.855 13.594 91.001 36.802 128.237 74.038 37.217 37.216 60.352 77.339 73.97 128.169 13.618 50.883 13.618 97.202.005 148.081-13.623 50.835-36.782 90.981-73.995 128.194-37.241 37.236-77.362 60.425-128.217 74.018-50.835 13.618-97.203 13.618-148.061-.025-50.855-13.593-90.953-36.757-128.169-73.97-37.236-37.241-60.445-77.382-74.034-128.237-13.622-50.835-13.622-97.201 0-148.036 13.589-50.855 36.778-90.978 74.014-128.214" style="fill:#154889"/>
  <path d="M104.158 406.882v-40.376l100.035-213.98h47.758l-101.065 213.98h77.889v-86.099h42.836v86.099h24.005v40.376h-24.005v44.268h-42.836v-44.268zm340.13-43.369V237.664c0-14.223-3.835-25.334-11.501-33.319-7.651-7.998-17.714-12.002-30.181-12.002-12.605 0-22.711 4.004-30.306 12.002-7.583 7.985-11.374 19.096-11.374 33.319v125.849q0 21.57 11.374 33.47c7.595 7.922 17.701 11.877 30.306 11.877 12.467 0 22.53-3.955 30.181-11.877q11.5-11.9 11.501-33.47m-125.848 2.46V235.23q0-40.847 25.613-63.124c17.074-14.847 36.589-22.273 58.553-22.273q32.74.001 58.455 22.273c17.137 14.852 25.711 35.892 25.711 63.124v130.743c0 27.237-8.574 48.248-25.711 63.024q-25.715 22.146-58.455 22.146c-21.964 0-41.479-7.382-58.553-22.146-17.075-14.776-25.613-35.787-25.613-63.024" style="fill:#fff;fill-rule:nonzero"/>
  <path d="m480.976 78.476-.166.167L78.481 480.958a286 286 0 0 0 42.584 42.567l.151-.151.005.005 402.158-402.154.166-.165a285.8 285.8 0 0 0-42.569-42.584" style="fill:#af151b;fill-rule:nonzero"/>
</svg>
