<svg xmlns="http://www.w3.org/2000/svg" xml:space="preserve" viewBox="0 0 1001.001 1001.001" role="img" aria-labelledby="title">
  <title id="title">Verkehrszeichen 290 - Zonenhalteverbot</title>
  <path d="M50.793 800.403C.289 800.403.398 750.117.398 750.117V50.684S.289.403 50.793.403h699.215c50.504 0 50.39 50.281 50.39 50.281v699.433s.114 50.286-50.39 50.286z" style="fill:#fff;fill-opacity:1;fill-rule:nonzero;stroke:none" transform="matrix(1.25 0 0 -1.25 0 1001.001)"/>
  <path d="M50.797 786.137c-36.137.058-35.996-36.02-35.996-36.02V50.684s-.141-36.078 35.996-36.016c257.918.051 465.531.192 699.211 0C786.145 14.606 786 50.684 786 50.684v699.433s.145 36.078-35.992 36.02c-233.68-.195-441.293-.055-699.211 0m0-20c207.32-.086 469.101-.359 699.211 0 0 0 15.953-.637 15.992-16.02V50.684c-.039-15.383-15.992-16.016-15.992-16.016-230.11.356-491.891.082-699.211 0 0 0-15.957.633-15.996 16.016v699.433c.039 15.383 15.996 16.02 15.996 16.02" style="fill:#000;fill-opacity:1;fill-rule:nonzero;stroke:none" transform="matrix(1.25 0 0 -1.25 0 1001.001)"/>
  <path d="M183.832 616.52v-.028h-.023z" style="fill:#000;fill-opacity:1;fill-rule:nonzero;stroke:none" transform="matrix(1.25 0 0 -1.25 0 1001.001)"/>
  <path d="M183.809 616.52h.023v-.023h-.023z" style="fill:#000;fill-opacity:1;fill-rule:nonzero;stroke:none" transform="matrix(1.25 0 0 -1.25 0 1001.001)"/>
  <path d="M183.809 616.492v.028l.023-.028zm.023 0-.023.028v-.028z" style="fill:#000;fill-opacity:1;fill-rule:nonzero;stroke:none" transform="matrix(1.25 0 0 -1.25 0 1001.001)"/>
  <path d="M183.859 616.492h-.05.023v.028z" style="fill:#000;fill-opacity:1;fill-rule:nonzero;stroke:none" transform="matrix(1.25 0 0 -1.25 0 1001.001)"/>
  <path d="M183.809 616.492v.028zl.023.028z" style="fill:#000;fill-opacity:1;fill-rule:nonzero;stroke:none" transform="matrix(1.25 0 0 -1.25 0 1001.001)"/>
  <path d="M183.809 616.52h.023v-.023h-.023zM183.859 616.52v-.047h-.05z" style="fill:#000;fill-opacity:1;fill-rule:nonzero;stroke:none" transform="matrix(1.25 0 0 -1.25 0 1001.001)"/>
  <path d="M183.809 616.52h.051v-.047h-.051z" style="fill:#000;fill-opacity:1;fill-rule:nonzero;stroke:none" transform="matrix(1.25 0 0 -1.25 0 1001.001)"/>
  <path d="M183.809 616.473v.047l.05-.047zm.05 0-.05.047v-.047z" style="fill:#000;fill-opacity:1;fill-rule:nonzero;stroke:none" transform="matrix(1.25 0 0 -1.25 0 1001.001)"/>
  <path d="M183.859 616.473h-.05.023v.047z" style="fill:#000;fill-opacity:1;fill-rule:nonzero;stroke:none" transform="matrix(1.25 0 0 -1.25 0 1001.001)"/>
  <path d="M183.809 616.473v.047zl.05.047z" style="fill:#000;fill-opacity:1;fill-rule:nonzero;stroke:none" transform="matrix(1.25 0 0 -1.25 0 1001.001)"/>
  <path d="M183.809 616.52h.051v-.047h-.051z" style="fill:#000;fill-opacity:1;fill-rule:nonzero;stroke:none" transform="matrix(1.25 0 0 -1.25 0 1001.001)"/>
  <path d="M183.859 616.52v-.047h-.05z" style="fill:#000;fill-opacity:1;fill-rule:nonzero;stroke:none" transform="matrix(1.25 0 0 -1.25 0 1001.001)"/>
  <path d="M183.809 616.52h.051v-.047h-.051z" style="fill:#000;fill-opacity:1;fill-rule:nonzero;stroke:none" transform="matrix(1.25 0 0 -1.25 0 1001.001)"/>
  <path d="M183.809 616.473v.047l.05-.047zm.05 0-.05.047v-.047z" style="fill:#000;fill-opacity:1;fill-rule:nonzero;stroke:none" transform="matrix(1.25 0 0 -1.25 0 1001.001)"/>
  <path d="M183.859 616.473h-.05.023v.047z" style="fill:#000;fill-opacity:1;fill-rule:nonzero;stroke:none" transform="matrix(1.25 0 0 -1.25 0 1001.001)"/>
  <path d="M183.809 616.473v.047zl.05.047z" style="fill:#000;fill-opacity:1;fill-rule:nonzero;stroke:none" transform="matrix(1.25 0 0 -1.25 0 1001.001)"/>
  <path d="M183.809 616.52h.051v-.047h-.051z" style="fill:#000;fill-opacity:1;fill-rule:nonzero;stroke:none" transform="matrix(1.25 0 0 -1.25 0 1001.001)"/>
  <path d="M183.859 616.52v-.047h-.05z" style="fill:#000;fill-opacity:1;fill-rule:nonzero;stroke:none" transform="matrix(1.25 0 0 -1.25 0 1001.001)"/>
  <path d="M183.809 616.52h.051v-.047h-.051z" style="fill:#000;fill-opacity:1;fill-rule:nonzero;stroke:none" transform="matrix(1.25 0 0 -1.25 0 1001.001)"/>
  <path d="M183.809 616.473v.047l.05-.047zm.05 0-.05.047v-.047z" style="fill:#000;fill-opacity:1;fill-rule:nonzero;stroke:none" transform="matrix(1.25 0 0 -1.25 0 1001.001)"/>
  <path d="M183.859 616.473h-.05.023v.047z" style="fill:#000;fill-opacity:1;fill-rule:nonzero;stroke:none" transform="matrix(1.25 0 0 -1.25 0 1001.001)"/>
  <path d="M183.809 616.473v.047zl.05.047z" style="fill:#000;fill-opacity:1;fill-rule:nonzero;stroke:none" transform="matrix(1.25 0 0 -1.25 0 1001.001)"/>
  <path d="M183.809 616.52h.051v-.047h-.051z" style="fill:#000;fill-opacity:1;fill-rule:nonzero;stroke:none" transform="matrix(1.25 0 0 -1.25 0 1001.001)"/>
  <path d="M50.793 800.801c-25.383 0-38.16-12.695-44.492-25.363C-.035 762.77 0 750.113 0 750.113V50.684c0-.004-.031-12.653 6.301-25.321C12.633 12.699 25.41 0 50.793 0h699.215c25.383 0 38.16 12.699 44.492 25.363 6.332 12.668 6.301 25.325 6.301 25.325v699.425c0 .008.031 12.657-6.301 25.321-6.332 12.668-19.109 25.367-44.492 25.367zm0-.398h699.215c50.504 0 50.39-50.286 50.39-50.286V50.684S800.512.403 750.008.403H50.793C.289.403.398 50.684.398 50.684v699.433s-.109 50.286 50.395 50.286" style="fill:#000;fill-opacity:1;fill-rule:nonzero;stroke:none" transform="matrix(1.25 0 0 -1.25 0 1001.001)"/>
  <path d="M71.527 252.34h160v-192h-160z" style="fill:#000;fill-opacity:1;fill-rule:nonzero;stroke:none" transform="matrix(1.25 0 0 -1.25 0 1001.001)"/>
  <path d="m105.434 189.934-11.543-22.129c33.757-19.274 83.781-19.231 115.269 0l-11.539 22.129c-29.543-16.418-66.25-16.031-92.187 0M151.531 190.367l-12.832 47.235h25.656zM139.574 89.414v36.215h13.153c5.941 0 10.753-4.754 10.753-10.609 0-5.864-4.812-10.614-10.753-10.614h-7.786V89.414zm5.367 19.989h7.469c3.141 0 5.692 2.507 5.692 5.617 0 3.097-2.551 5.617-5.692 5.617h-7.469z" style="fill:#fff;fill-opacity:1;fill-rule:nonzero;stroke:none" transform="matrix(1.25 0 0 -1.25 0 1001.001)"/>
  <path d="M127.207 135.52V79.524h48.641v55.996zm4.633-4.571h39.371V84.094H131.84z" style="fill:#fff;fill-opacity:1;fill-rule:nonzero;stroke:none" transform="matrix(1.25 0 0 -1.25 0 1001.001)"/>
  <path d="M609.57 493.692c0-113.211-91.777-204.989-204.988-204.989s-204.988 91.778-204.988 204.989S291.371 698.68 404.582 698.68 609.57 606.903 609.57 493.692" style="fill:#154889;fill-opacity:1;fill-rule:nonzero;stroke:none" transform="matrix(1.25 0 0 -1.25 0 1001.001)"/>
  <path d="M399.992 730.793c-127.746 0-232-104.25-232-231.996s104.254-232 232-232 231.996 104.254 231.996 232-104.25 231.996-231.996 231.996m0-64.316c92.988 0 167.684-74.692 167.684-167.68 0-37.789-12.336-72.559-33.223-100.519l-234.98 234.976c27.961 20.887 62.73 33.223 100.519 33.223m-134.461-67.164 234.981-234.977c-27.961-20.887-62.731-33.223-100.52-33.223-92.988 0-167.68 74.696-167.68 167.684 0 37.789 12.336 72.555 33.219 100.516" style="fill:#c1121c;fill-opacity:1;fill-rule:nonzero;stroke:none" transform="matrix(1.25 0 0 -1.25 0 1001.001)"/>
  <path d="M183.426 714.91v-.023h-.024z" style="fill:#000;fill-opacity:1;fill-rule:nonzero;stroke:none" transform="matrix(1.25 0 0 -1.25 0 1001.001)"/>
  <path d="M183.402 714.91h.023v-.023h-.023z" style="fill:#000;fill-opacity:1;fill-rule:nonzero;stroke:none" transform="matrix(1.25 0 0 -1.25 0 1001.001)"/>
  <path d="M183.402 714.887v.023l.024-.023zm.024 0-.024.023v-.023z" style="fill:#000;fill-opacity:1;fill-rule:nonzero;stroke:none" transform="matrix(1.25 0 0 -1.25 0 1001.001)"/>
  <path d="M183.453 714.887h-.051.024v.023zM183.402 714.887v.023zl.024.023z" style="fill:#000;fill-opacity:1;fill-rule:nonzero;stroke:none" transform="matrix(1.25 0 0 -1.25 0 1001.001)"/>
  <path d="M183.402 714.91h.023v-.023h-.023zM183.453 714.91v-.047h-.051z" style="fill:#000;fill-opacity:1;fill-rule:nonzero;stroke:none" transform="matrix(1.25 0 0 -1.25 0 1001.001)"/>
  <path d="M183.402 714.91h.051v-.047h-.051z" style="fill:#000;fill-opacity:1;fill-rule:nonzero;stroke:none" transform="matrix(1.25 0 0 -1.25 0 1001.001)"/>
  <path d="M183.402 714.863v.047l.051-.047zm.051 0-.051.047v-.047z" style="fill:#000;fill-opacity:1;fill-rule:nonzero;stroke:none" transform="matrix(1.25 0 0 -1.25 0 1001.001)"/>
  <path d="M183.453 714.863h-.051.024v.047z" style="fill:#000;fill-opacity:1;fill-rule:nonzero;stroke:none" transform="matrix(1.25 0 0 -1.25 0 1001.001)"/>
  <path d="M183.402 714.863v.047zl.051.047z" style="fill:#000;fill-opacity:1;fill-rule:nonzero;stroke:none" transform="matrix(1.25 0 0 -1.25 0 1001.001)"/>
  <path d="M183.402 714.91h.051v-.047h-.051z" style="fill:#000;fill-opacity:1;fill-rule:nonzero;stroke:none" transform="matrix(1.25 0 0 -1.25 0 1001.001)"/>
  <path d="M183.453 714.91v-.047h-.051z" style="fill:#000;fill-opacity:1;fill-rule:nonzero;stroke:none" transform="matrix(1.25 0 0 -1.25 0 1001.001)"/>
  <path d="M183.402 714.91h.051v-.047h-.051z" style="fill:#000;fill-opacity:1;fill-rule:nonzero;stroke:none" transform="matrix(1.25 0 0 -1.25 0 1001.001)"/>
  <path d="M183.402 714.863v.047l.051-.047zm.051 0-.051.047v-.047z" style="fill:#000;fill-opacity:1;fill-rule:nonzero;stroke:none" transform="matrix(1.25 0 0 -1.25 0 1001.001)"/>
  <path d="M183.453 714.863h-.051.024v.047z" style="fill:#000;fill-opacity:1;fill-rule:nonzero;stroke:none" transform="matrix(1.25 0 0 -1.25 0 1001.001)"/>
  <path d="M183.402 714.863v.047zl.051.047z" style="fill:#000;fill-opacity:1;fill-rule:nonzero;stroke:none" transform="matrix(1.25 0 0 -1.25 0 1001.001)"/>
  <path d="M183.402 714.91h.051v-.047h-.051z" style="fill:#000;fill-opacity:1;fill-rule:nonzero;stroke:none" transform="matrix(1.25 0 0 -1.25 0 1001.001)"/>
  <path d="M183.453 714.91v-.047h-.051z" style="fill:#000;fill-opacity:1;fill-rule:nonzero;stroke:none" transform="matrix(1.25 0 0 -1.25 0 1001.001)"/>
  <path d="M183.402 714.91h.051v-.047h-.051z" style="fill:#000;fill-opacity:1;fill-rule:nonzero;stroke:none" transform="matrix(1.25 0 0 -1.25 0 1001.001)"/>
  <path d="M183.402 714.863v.047l.051-.047zm.051 0-.051.047v-.047z" style="fill:#000;fill-opacity:1;fill-rule:nonzero;stroke:none" transform="matrix(1.25 0 0 -1.25 0 1001.001)"/>
  <path d="M183.453 714.863h-.051.024v.047z" style="fill:#000;fill-opacity:1;fill-rule:nonzero;stroke:none" transform="matrix(1.25 0 0 -1.25 0 1001.001)"/>
  <path d="M183.402 714.863v.047zl.051.047z" style="fill:#000;fill-opacity:1;fill-rule:nonzero;stroke:none" transform="matrix(1.25 0 0 -1.25 0 1001.001)"/>
  <path d="M183.402 714.91h.051v-.047h-.051zM329.051 141.34v8.941h3.5c3.367 0 6.019.942 7.969 2.817 1.972 1.914 2.964 4.324 2.964 7.242q-.002 4.33-3.062 7.289c-2.043 1.973-4.473 2.965-7.289 2.965-2.137 0-4.156-.715-6.074-2.141-1.907-1.425-3.141-3.562-3.688-6.41h-10.156c.387 4.985 2.476 9.344 6.265 13.067 3.79 3.753 8.215 5.636 13.262 5.636q9.474.002 15.156-6.265 5.738-6.216 5.739-13.95c0-2.718-.535-5.371-1.606-7.968q-1.606-3.83-5.972-6.653c2.976-1.906 5.113-4.257 6.41-7.043q1.945-4.178 1.945-8.457c0-6.609-2.07-11.867-6.215-15.789-4.148-3.914-9.238-5.875-15.258-5.875-4.793 0-9.121 1.535-12.972 4.614-3.821 3.109-6.203 7.632-7.141 13.55h10.152c.938-2.425 2.204-4.379 3.79-5.871 1.582-1.461 3.835-2.187 6.753-2.187 2.817 0 5.313.984 7.477 2.965 2.172 2.007 3.262 4.757 3.262 8.257 0 3.532-1.09 6.286-3.262 8.258-2.129 2.008-4.691 3.008-7.668 3.008zM382.582 118.461l7.098 8.07c2.652-2.14 5.715-3.855 9.179-5.156 3.465-1.297 7.09-1.941 10.879-1.941 4.379 0 7.809.906 10.305 2.719 2.492 1.816 3.738 4.199 3.738 7.14 0 5.574-3.078 8.762-9.23 9.574-1.617.192-3.129.391-4.52.582l-4.859.68c-6.121.844-10.781 3.074-13.988 6.703-3.207 3.66-4.813 8.071-4.813 13.219q0 9.03 6.027 14.867 6.07 5.83 17.051 5.828 6.562 0 12.344-2.086c3.848-1.394 7.398-3.164 10.637-5.3l-5.977-8.84a39.4 39.4 0 0 1-8.355 3.933 28.4 28.4 0 0 1-9.129 1.504c-3.309 0-6.11-.836-8.41-2.519-2.301-1.692-3.446-4.211-3.446-7.586 0-2.008.778-3.879 2.328-5.633q2.338-2.619 7.723-3.449c.945-.16 2.074-.336 3.398-.535 1.336-.161 2.856-.336 4.571-.536 6.609-.804 11.484-3.207 14.629-7.187 3.168-3.988 4.758-8.391 4.758-13.219 0-6.508-2.25-11.562-6.754-15.152q-6.749-5.396-18.121-5.395c-10.661 0-19.676 3.242-27.063 9.715M512.473 108.746H502.18v2.688c-3.059-1.789-6.485-2.688-10.285-2.688-5.696 0-10.547 2.008-14.555 6.012-4.008 4.008-6.016 8.859-6.016 14.559v30.859h10.285v-30.859c0-2.848 1.004-5.278 3.012-7.274 2-2.008 4.43-3.012 7.274-3.012 2.851 0 5.273 1.004 7.281 3.012 2.008 1.996 3.004 4.426 3.004 7.274v30.859h10.293zM521.82 160.176h10.285v-2.695q4.59 2.695 10.286 2.695c5.695 0 10.55-2.008 14.554-6.016 4.016-4.004 6.016-8.863 6.016-14.562v-30.852h-10.285v30.852c0 2.855-1.004 5.277-3.004 7.285-2.008 2.004-4.43 3.008-7.281 3.008q-4.268-.001-7.282-3.008c-2-2.008-3.004-4.43-3.004-7.285v-30.852H521.82zM603.164 108.746v2.688c-3.062-1.789-6.488-2.688-10.285-2.688-5.695 0-10.547 2.008-14.559 6.012q-6.014 6.01-6.015 14.559v10.281c0 5.699 2.007 10.558 6.015 14.562q6.017 6.014 14.559 6.016 5.694 0 10.285-2.695v23.265h10.285v-72zm-20.566 20.571c0-2.848.996-5.278 3-7.274 2.007-2.008 4.429-3.012 7.281-3.012 2.844 0 5.277 1.004 7.277 3.012 1.953 1.945 2.957 4.375 3.008 7.274v10.281c0 2.855-1.004 5.277-3.008 7.285-2 2.004-4.433 3.008-7.277 3.008-2.852 0-5.274-1.004-7.281-3.008-2.004-2.008-3-4.43-3-7.285zM633.078 139.598h20.578c0 2.855-1.004 5.277-3.011 7.285q-3.002 3.007-7.282 3.008-4.272-.001-7.273-3.008c-2.008-2.008-3.012-4.43-3.012-7.285m29.195-24.125c-4.48-4.488-9.937-6.727-16.375-6.727-6.437 0-11.894 2.239-16.378 6.727-4.481 4.535-6.727 9.996-6.727 16.375v7.75c0 5.699 2.008 10.558 6.016 14.562q6.011 6.014 14.554 6.016c5.696 0 10.555-2.008 14.563-6.016 4.008-4.004 6.012-8.863 6.012-14.562v-10.281h-30.622q.714-3.716 3.485-6.571c2.476-2.472 5.511-3.715 9.097-3.715 3.582 0 6.622 1.243 9.098 3.715zM673.281 160.176h10.285v-2.695c3.059 1.797 6.493 2.695 10.286 2.695 5.699 0 10.55-2.008 14.562-6.016 4.008-4.004 6.016-8.863 6.016-14.562v-30.852h-10.293v30.852c0 2.855-.996 5.277-3.004 7.285-2.008 2.004-4.43 3.008-7.281 3.008q-4.268-.001-7.282-3.008c-2-2.008-3.004-4.43-3.004-7.285v-30.852h-10.285zM443.398 180.746h10.286v-20.574h10.386v-10.285h-10.386v-25.715q0-2.056 1.543-3.598 1.54-1.542 3.703-1.543v-10.285q-3.188-.001-6.071 1.235a17.2 17.2 0 0 0-4.937 3.289q-2.058 2.057-3.289 4.836a15.2 15.2 0 0 0-1.235 6.066v25.715h-5.039v10.285h5.039z" style="fill:#000;fill-opacity:1;fill-rule:nonzero;stroke:none" transform="matrix(1.25 0 0 -1.25 0 1001.001)"/>
</svg>
