<svg xmlns="http://www.w3.org/2000/svg" xml:space="preserve" viewBox="0 0 600.995 600.995" role="img" aria-labelledby="title">
  <title id="title">Verkehrszeichen 250 - Verbot für Fahrzeuge aller Art</title>
  <path d="M480.398 240.398c0-132.551-107.449-240-240-240s-240 107.449-240 240 107.45 240 240 240 240-107.45 240-240" style="fill:#fff;fill-opacity:1;fill-rule:nonzero;stroke:none" transform="matrix(1.25 0 0 -1.25 0 600.995)"/>
  <path d="M240.398 480.796C107.633 480.796 0 373.163 0 240.398 0 107.632 107.633-.001 240.398-.001c132.766 0 240.399 107.633 240.399 240.399 0 132.765-107.633 240.398-240.399 240.398m0-.398c132.551 0 240-107.45 240-240s-107.449-240-240-240-240 107.449-240 240 107.45 240 240 240" style="fill:#000;fill-opacity:1;fill-rule:nonzero;stroke:none" transform="matrix(1.25 0 0 -1.25 0 600.995)"/>
  <path d="M240.398 472.398c-127.746 0-232-104.254-232-232 0-127.747 104.254-232 232-232 127.747 0 232 104.253 232 232 0 127.746-104.253 232-232 232m0-64.321c92.989 0 167.68-74.691 167.68-167.679 0-92.989-74.691-167.68-167.68-167.68-92.988 0-167.679 74.691-167.679 167.68 0 92.988 74.691 167.679 167.679 167.679" style="fill:#c1121c;fill-opacity:1;fill-rule:nonzero;stroke:none" transform="matrix(1.25 0 0 -1.25 0 600.995)"/>
  <path d="M23.832 456.511v-.024h-.023z" style="fill:#000;fill-opacity:1;fill-rule:nonzero;stroke:none" transform="matrix(1.25 0 0 -1.25 0 600.995)"/>
  <path d="M23.809 456.511h.023v-.023h-.023z" style="fill:#000;fill-opacity:1;fill-rule:nonzero;stroke:none" transform="matrix(1.25 0 0 -1.25 0 600.995)"/>
  <path d="M23.809 456.487v.024l.023-.024zm.023 0-.023.024v-.024z" style="fill:#000;fill-opacity:1;fill-rule:nonzero;stroke:none" transform="matrix(1.25 0 0 -1.25 0 600.995)"/>
  <path d="M23.859 456.487h-.05.023v.024z" style="fill:#000;fill-opacity:1;fill-rule:nonzero;stroke:none" transform="matrix(1.25 0 0 -1.25 0 600.995)"/>
  <path d="M23.809 456.487v.024zl.023.024z" style="fill:#000;fill-opacity:1;fill-rule:nonzero;stroke:none" transform="matrix(1.25 0 0 -1.25 0 600.995)"/>
  <path d="M23.809 456.511h.023v-.023h-.023zM23.859 456.511v-.047h-.05z" style="fill:#000;fill-opacity:1;fill-rule:nonzero;stroke:none" transform="matrix(1.25 0 0 -1.25 0 600.995)"/>
  <path d="M23.809 456.511h.051v-.047h-.051z" style="fill:#000;fill-opacity:1;fill-rule:nonzero;stroke:none" transform="matrix(1.25 0 0 -1.25 0 600.995)"/>
  <path d="M23.809 456.464v.047l.05-.047zm.05 0-.05.047v-.047z" style="fill:#000;fill-opacity:1;fill-rule:nonzero;stroke:none" transform="matrix(1.25 0 0 -1.25 0 600.995)"/>
  <path d="M23.859 456.464h-.05.023v.047z" style="fill:#000;fill-opacity:1;fill-rule:nonzero;stroke:none" transform="matrix(1.25 0 0 -1.25 0 600.995)"/>
  <path d="M23.809 456.464v.047zl.05.047z" style="fill:#000;fill-opacity:1;fill-rule:nonzero;stroke:none" transform="matrix(1.25 0 0 -1.25 0 600.995)"/>
  <path d="M23.809 456.511h.051v-.047h-.051z" style="fill:#000;fill-opacity:1;fill-rule:nonzero;stroke:none" transform="matrix(1.25 0 0 -1.25 0 600.995)"/>
  <path d="M23.859 456.511v-.047h-.05z" style="fill:#000;fill-opacity:1;fill-rule:nonzero;stroke:none" transform="matrix(1.25 0 0 -1.25 0 600.995)"/>
  <path d="M23.809 456.511h.051v-.047h-.051z" style="fill:#000;fill-opacity:1;fill-rule:nonzero;stroke:none" transform="matrix(1.25 0 0 -1.25 0 600.995)"/>
  <path d="M23.809 456.464v.047l.05-.047zm.05 0-.05.047v-.047z" style="fill:#000;fill-opacity:1;fill-rule:nonzero;stroke:none" transform="matrix(1.25 0 0 -1.25 0 600.995)"/>
  <path d="M23.859 456.464h-.05.023v.047z" style="fill:#000;fill-opacity:1;fill-rule:nonzero;stroke:none" transform="matrix(1.25 0 0 -1.25 0 600.995)"/>
  <path d="M23.809 456.464v.047zl.05.047z" style="fill:#000;fill-opacity:1;fill-rule:nonzero;stroke:none" transform="matrix(1.25 0 0 -1.25 0 600.995)"/>
  <path d="M23.809 456.511h.051v-.047h-.051z" style="fill:#000;fill-opacity:1;fill-rule:nonzero;stroke:none" transform="matrix(1.25 0 0 -1.25 0 600.995)"/>
  <path d="M23.859 456.511v-.047h-.05z" style="fill:#000;fill-opacity:1;fill-rule:nonzero;stroke:none" transform="matrix(1.25 0 0 -1.25 0 600.995)"/>
  <path d="M23.809 456.511h.051v-.047h-.051z" style="fill:#000;fill-opacity:1;fill-rule:nonzero;stroke:none" transform="matrix(1.25 0 0 -1.25 0 600.995)"/>
  <path d="M23.809 456.464v.047l.05-.047zm.05 0-.05.047v-.047z" style="fill:#000;fill-opacity:1;fill-rule:nonzero;stroke:none" transform="matrix(1.25 0 0 -1.25 0 600.995)"/>
  <path d="M23.859 456.464h-.05.023v.047z" style="fill:#000;fill-opacity:1;fill-rule:nonzero;stroke:none" transform="matrix(1.25 0 0 -1.25 0 600.995)"/>
  <path d="M23.809 456.464v.047zl.05.047z" style="fill:#000;fill-opacity:1;fill-rule:nonzero;stroke:none" transform="matrix(1.25 0 0 -1.25 0 600.995)"/>
  <path d="M23.809 456.511h.051v-.047h-.051z" style="fill:#000;fill-opacity:1;fill-rule:nonzero;stroke:none" transform="matrix(1.25 0 0 -1.25 0 600.995)"/>
</svg>
