<svg xmlns="http://www.w3.org/2000/svg" xml:space="preserve" viewBox="0 0 3601.931 2401.95" role="img" aria-labelledby="title">
  <title id="title">Verkehrszeichen 386.3 - Touristische Unterrichtungstafel</title>
  <defs>
    <clipPath id="a" clipPathUnits="userSpaceOnUse">
      <path d="M0 0h2702v1802H0Z"/>
    </clipPath>
    <clipPath id="b" clipPathUnits="userSpaceOnUse">
      <path d="M39 1760.462h2623v-1720H39Z"/>
    </clipPath>
    <clipPath id="c" clipPathUnits="userSpaceOnUse">
      <path d="M39 41h2623v1720H39Z"/>
    </clipPath>
  </defs>
  <g clip-path="url(#a)" transform="matrix(1.33333 0 0 -1.33333 0 2402.667)">
    <path d="M454.754 1415.449h29.574l-9.105 24.117c-2.766 7.336-4.848 13.372-6.176 18.082-1.125-5.597-2.695-11.121-4.707-16.648zm-25.145-35.82 33.5 87.195h12.418l35.649-87.195h-13.133l-10.164 26.402H451.41l-9.551-26.402zM560.441 1379.641v9.281c-4.949-7.164-11.601-10.711-20.058-10.711q-5.578 0-10.442 2.148c-3.207 1.399-5.628 3.207-7.164 5.391-1.601 2.148-2.695 4.773-3.308 7.914-.442 2.113-.649 5.422-.649 9.996v39.125h10.68v-35c0-5.629.238-9.379.648-11.324.68-2.797 2.114-5.016 4.297-6.617 2.184-1.606 4.879-2.422 8.086-2.422s6.207.816 9.039 2.453c2.832 1.672 4.809 3.926 5.969 6.723 1.16 2.863 1.774 6.957 1.774 12.347v33.84h10.679v-63.144zM582.496 1398.492l10.578 1.672c.578-4.23 2.25-7.504 4.981-9.754 2.695-2.254 6.48-3.414 11.359-3.414 4.945 0 8.598 1.024 10.949 3.004q3.581 3.018 3.582 7.063 0 3.632-3.172 5.73c-1.468.953-5.117 2.148-10.949 3.613-7.812 1.981-13.273 3.688-16.308 5.153-3.036 1.433-5.321 3.445-6.891 6.004s-2.352 5.355-2.352 8.46c0 2.797.645 5.426 1.942 7.813 1.262 2.422 3.039 4.398 5.254 5.969 1.672 1.23 3.926 2.285 6.789 3.14 2.898.852 5.969 1.293 9.281 1.293 4.945 0 9.277-.75 13.031-2.183 3.75-1.399 6.516-3.34 8.289-5.762 1.809-2.457 3.036-5.699 3.684-9.793l-10.438-1.434c-.48 3.243-1.878 5.766-4.164 7.61-2.25 1.84-5.492 2.73-9.652 2.73-4.914 0-8.426-.785-10.508-2.426-2.117-1.636-3.172-3.546-3.172-5.695 0-1.398.442-2.66 1.329-3.754q1.282-1.736 4.093-2.863c1.059-.41 4.231-1.297 9.449-2.73 7.575-2.012 12.864-3.684 15.829-4.981 3.004-1.262 5.359-3.172 7.097-5.629 1.672-2.457 2.524-5.492 2.524-9.14 0-3.583-1.059-6.926-3.106-10.098-2.078-3.141-5.117-5.563-9.004-7.301-3.922-1.707-8.39-2.559-13.34-2.559-8.218 0-14.464 1.708-18.761 5.118s-7.063 8.461-8.223 15.144M650.203 1379.641v54.824h-9.449v8.32h9.449v6.723c0 4.23.375 7.402 1.125 9.449 1.059 2.797 2.867 5.047 5.457 6.754 2.594 1.738 6.246 2.594 10.918 2.594 3.004 0 6.344-.344 9.996-1.094l-1.605-9.313c-2.215.375-4.332.582-6.309.582-3.277 0-5.562-.683-6.89-2.082-1.368-1.363-2.016-3.957-2.016-7.777v-5.836h12.281v-8.32h-12.281v-54.824zM712.371 1467.352h11.192v-12.18h-11.192zm-22.172 0h11.188v-12.18h-11.188zm32.715-87.707v9.281c-4.949-7.164-11.633-10.711-20.059-10.711-3.718 0-7.234.715-10.441 2.148-3.238 1.399-5.629 3.207-7.195 5.356-1.571 2.183-2.664 4.808-3.313 7.949-.406 2.113-.644 5.422-.644 9.992v39.129h10.711v-35.035c0-5.594.203-9.344.648-11.289.68-2.797 2.078-5.016 4.262-6.652 2.219-1.571 4.879-2.391 8.121-2.391q4.81 0 9.004 2.457c2.832 1.672 4.812 3.926 5.972 6.723 1.192 2.863 1.774 6.957 1.774 12.347v33.84h10.711v-63.144zM749.238 1379.641v87.16h10.711v-31.246c4.981 5.765 11.293 8.664 18.899 8.664q7.012-.001 12.179-2.762c3.446-1.844 5.934-4.402 7.403-7.641 1.5-3.242 2.25-7.984 2.25-14.16v-40.015h-10.711v40.015c0 5.356-1.192 9.246-3.481 11.703-2.316 2.422-5.629 3.649-9.855 3.649-3.176 0-6.141-.817-8.942-2.488-2.796-1.637-4.808-3.856-5.968-6.688-1.192-2.797-1.774-6.687-1.774-11.633v-34.558zM816.84 1379.641v63.144h9.621v-9.551c2.457 4.469 4.742 7.403 6.824 8.836q3.117 2.15 6.856 2.149c3.617 0 7.265-1.16 10.984-3.446l-3.684-9.925c-2.593 1.535-5.218 2.32-7.812 2.32-2.356 0-4.469-.719-6.313-2.117-1.875-1.434-3.207-3.375-3.988-5.867-1.195-3.786-1.808-7.95-1.808-12.485v-33.058zM898.902 1379.641v9.281c-4.91-7.164-11.597-10.711-20.058-10.711q-5.574 0-10.438 2.148c-3.207 1.399-5.593 3.207-7.164 5.391-1.601 2.148-2.695 4.773-3.308 7.914-.442 2.113-.649 5.422-.649 9.996v39.125h10.68v-35c0-5.629.238-9.379.648-11.324.68-2.797 2.114-5.016 4.297-6.617 2.184-1.606 4.879-2.422 8.086-2.422s6.207.816 9.039 2.453c2.832 1.672 4.809 3.926 5.969 6.723 1.16 2.863 1.773 6.957 1.773 12.347v33.84h10.68v-63.144zM925.242 1379.641v63.144h9.621v-8.969c4.641 6.922 11.36 10.403 20.094 10.403 3.82 0 7.301-.68 10.508-2.047 3.203-1.363 5.558-3.172 7.16-5.391 1.605-2.215 2.695-4.843 3.344-7.879.375-2.011.582-5.492.582-10.437v-38.824H965.84v38.414c0 4.367-.41 7.605-1.231 9.789-.851 2.148-2.32 3.89-4.433 5.152-2.149 1.297-4.606 1.945-7.473 1.945-4.57 0-8.492-1.433-11.801-4.332-3.308-2.902-4.949-8.394-4.949-16.476v-34.492zM999.855 1412.34c0-8.289 1.637-14.328 4.95-18.113 3.308-3.821 7.402-5.731 12.383-5.731 4.875 0 9.003 1.91 12.347 5.695 3.309 3.789 4.981 9.688 4.981 17.809 0 7.742-1.707 13.543-5.118 17.465-3.445 3.922-7.574 5.902-12.418 5.902-4.742 0-8.765-1.945-12.144-5.801-3.309-3.886-4.981-9.617-4.981-17.226m-8.835-37.934 10.406-1.535c.41-3.207 1.637-5.562 3.617-7.027 2.66-1.981 6.277-2.969 10.879-2.969q7.422-.001 11.465 2.969c2.726 1.976 4.535 4.777 5.457 8.324.582 2.184.82 6.754.785 13.746-4.672-5.527-10.473-8.254-17.465-8.254-8.699 0-15.422 3.106-20.164 9.379-4.742 6.246-7.129 13.785-7.129 22.516 0 6.039 1.094 11.601 3.242 16.683 2.215 5.117 5.356 9.039 9.516 11.836 4.129 2.762 9.008 4.164 14.601 4.164 7.438 0 13.579-3.039 18.422-9.074v7.606h9.895v-54.547c0-9.825-1.024-16.821-3.039-20.914q-2.966-6.137-9.516-9.719c-4.332-2.391-9.656-3.582-16.035-3.582-7.504 0-13.609 1.703-18.25 5.082-4.641 3.41-6.855 8.492-6.687 15.316M1094.543 1379.641v63.144h9.617v-8.969c4.641 6.922 11.363 10.403 20.094 10.403 3.82 0 7.301-.68 10.508-2.047 3.207-1.363 5.558-3.172 7.164-5.391 1.601-2.215 2.695-4.843 3.344-7.879.375-2.011.578-5.492.578-10.437v-38.824h-10.711v38.414c0 4.367-.41 7.605-1.227 9.789-.855 2.148-2.32 3.89-4.437 5.152-2.149 1.297-4.606 1.945-7.469 1.945-4.57 0-8.496-1.433-11.805-4.332-3.308-2.902-4.98-8.394-4.98-16.476v-34.492zM1202.578 1411.344c-3.887-1.602-9.723-2.934-17.465-4.059-4.402-.613-7.539-1.332-9.347-2.148-1.809-.785-3.243-1.946-4.231-3.481-.988-1.5-1.5-3.207-1.5-5.082 0-2.832 1.09-5.219 3.274-7.133 2.152-1.875 5.289-2.828 9.449-2.828 4.129 0 7.812.887 11.019 2.696 3.207 1.804 5.563 4.261 7.063 7.402 1.16 2.422 1.738 6.004 1.738 10.676zm.887-23.914c-3.957-3.375-7.777-5.731-11.426-7.129-3.684-1.399-7.609-2.082-11.84-2.082-6.922 0-12.246 1.672-15.996 5.086-3.687 3.375-5.562 7.707-5.562 12.961 0 3.14.683 5.937 2.117 8.496 1.398 2.558 3.238 4.605 5.523 6.172 2.285 1.535 4.844 2.695 7.711 3.48 2.082.547 5.254 1.125 9.485 1.606 8.664 1.054 15.043 2.25 19.101 3.714.035 1.469.07 2.391.07 2.766 0 4.367-1.023 7.469-3.035 9.211-2.73 2.457-6.824 3.648-12.179 3.648-5.051 0-8.77-.886-11.192-2.625-2.387-1.773-4.125-4.914-5.32-9.382l-10.438 1.433c.954 4.469 2.524 8.086 4.672 10.813 2.184 2.797 5.356 4.914 9.485 6.379 4.129 1.503 8.871 2.253 14.328 2.253 5.39 0 9.754-.648 13.133-1.91 3.343-1.297 5.832-2.867 7.437-4.812 1.602-1.91 2.695-4.332 3.344-7.266.34-1.84.512-5.117.512-9.859v-14.258c0-9.996.238-16.273.679-18.898a24.7 24.7 0 0 1 2.696-7.575h-11.153c-1.094 2.219-1.844 4.809-2.152 7.778M1271.203 1402.781l10.508-1.398c-1.129-7.231-4.094-12.93-8.836-17.024-4.711-4.093-10.543-6.14-17.434-6.14-8.628 0-15.589 2.832-20.843 8.461-5.254 5.664-7.879 13.75-7.879 24.289q0 10.235 3.375 17.91c2.289 5.117 5.699 8.937 10.34 11.496 4.601 2.559 9.652 3.855 15.078 3.855 6.855 0 12.449-1.742 16.816-5.218 4.367-3.481 7.164-8.395 8.391-14.774l-10.403-1.601c-.992 4.23-2.73 7.437-5.253 9.586-2.524 2.113-5.563 3.207-9.145 3.207-5.391 0-9.789-1.946-13.133-5.836-3.375-3.856-5.082-9.961-5.082-18.317 0-8.461 1.637-14.636 4.91-18.492 3.242-3.855 7.473-5.765 12.727-5.765 4.195 0 7.676 1.296 10.508 3.855 2.828 2.594 4.605 6.551 5.355 11.906M1290.891 1379.641v87.16h10.714v-31.246c4.981 5.765 11.29 8.664 18.899 8.664q7.008-.001 12.176-2.762c3.445-1.844 5.937-4.402 7.406-7.641 1.5-3.242 2.25-7.984 2.25-14.16v-40.015h-10.711v40.015c0 5.356-1.195 9.246-3.48 11.703-2.321 2.422-5.629 3.649-9.86 3.649-3.172 0-6.14-.817-8.937-2.488-2.797-1.637-4.809-3.856-5.969-6.688-1.195-2.797-1.774-6.687-1.774-11.633v-34.558zM1405.523 1428.324h24.801c5.289 0 9.414.547 12.348 1.641 3.004 1.09 5.254 2.863 6.789 5.254 1.535 2.386 2.32 4.98 2.32 7.808 0 4.129-1.5 7.508-4.468 10.168-3 2.66-7.711 3.993-14.192 3.993h-27.598zm-11.531-48.679v87.16h38.653q11.666 0 17.703-2.352c4.062-1.57 7.269-4.301 9.722-8.258 2.391-3.988 3.618-8.355 3.618-13.168 0-6.172-2.012-11.39-6.04-15.621-3.988-4.23-10.164-6.961-18.523-8.086 3.07-1.468 5.355-2.933 6.961-4.367 3.344-3.07 6.551-6.957 9.586-11.598l15.144-23.71h-14.496l-11.531 18.148c-3.379 5.223-6.141 9.211-8.359 11.977-2.149 2.796-4.125 4.742-5.832 5.832-1.739 1.125-3.481 1.875-5.254 2.32-1.332.273-3.446.441-6.446.441h-13.375v-38.718zM1503.762 1389.227l1.535-9.45c-3.004-.648-5.699-.957-8.051-.957-3.926 0-6.926.614-9.074 1.844-2.117 1.227-3.617 2.828-4.504 4.844-.887 1.976-1.332 6.207-1.332 12.621v36.332h-7.844v8.324h7.844v15.656l10.68 6.414v-22.07h10.746v-8.324h-10.746v-36.914c0-3.07.172-5.012.547-5.899.375-.855.988-1.535 1.839-2.082.852-.511 2.082-.785 3.653-.785 1.191 0 2.761.172 4.707.446M1526.66 1389.93h21.695c3.754 0 6.348.136 7.848.41 2.66.476 4.879 1.262 6.652 2.387 1.809 1.093 3.243 2.73 4.403 4.847 1.16 2.114 1.738 4.571 1.738 7.332 0 3.242-.82 6.074-2.492 8.496-1.668 2.387-3.988 4.094-6.957 5.047-2.934.957-7.199 1.434-12.723 1.434h-20.164zm0 40.254h18.832c5.117 0 8.801.343 11.02 1.023 2.933.856 5.117 2.285 6.617 4.332 1.5 2.016 2.25 4.574 2.25 7.609 0 2.899-.715 5.426-2.078 7.641-1.434 2.219-3.379 3.719-5.973 4.504-2.558.82-6.992 1.227-13.269 1.227h-17.399zm-11.562-50.555v87.195h32.746c6.621 0 11.976-.886 16-2.66 4.027-1.742 7.164-4.473 9.449-8.156 2.285-3.649 3.445-7.469 3.445-11.496 0-3.719-1.023-7.231-3.035-10.508-2.047-3.309-5.082-5.969-9.176-7.981 5.289-1.535 9.313-4.195 12.18-7.914 2.832-3.718 4.231-8.121 4.231-13.203 0-4.058-.856-7.879-2.594-11.394-1.707-3.512-3.856-6.207-6.379-8.117-2.524-1.911-5.731-3.309-9.551-4.297-3.824-.957-8.496-1.469-14.059-1.469z" style="fill:#000;fill-opacity:1;fill-rule:nonzero;stroke:none"/>
    <path d="m108.734 1.07-5.593.172-5.594.477-5.426.683-5.422.852-5.254 1.195-4.914 1.535-5.25 1.704-4.605 1.843-4.914 2.219-4.571 2.352-4.57 2.73-4.574 2.727-4.094 3.039-4.058 3.207-3.887 3.41-3.719 3.547-3.582 3.718-3.379 3.922-3.207 3.891-3.07 4.57-2.727 4.231-2.695 4.402-2.356 4.774-2.218 4.742-1.875 4.914-1.707 4.91-1.5 5.254-1.192 5.254-.855 5.289-.68 5.387-.512 5.425-.171 5.594v1584.063l.171 5.593.512 5.426.68 5.422.855 5.254 1.192 5.254 1.5 5.082 1.707 5.086 1.875 4.91 2.218 4.742 2.356 4.742 2.695 4.266 2.727 4.398 3.07 4.231 3.207 4.058 3.379 4.094 3.582 3.719 3.719 3.547 3.887 3.414 4.058 3.207 4.094 3.07 4.574 2.692 4.57 2.73 4.571 2.356 4.914 2.046 4.605 2.012 5.25 1.707 4.914 1.363 5.254 1.364 5.422.855 5.426.645 5.594.511 5.593.172h2483.875l5.563-.172 5.629-.511 5.422-.645 5.425-.855 5.254-1.364 4.911-1.363 4.914-1.707 4.91-2.012 4.914-2.046 4.57-2.356 4.606-2.73 4.57-2.692 4.058-3.07 4.063-3.207 3.922-3.414 3.719-3.547 3.546-3.719 3.411-4.094 3.242-4.058 3.004-4.231 2.726-4.398 2.696-4.266 2.386-4.742 2.219-4.742 1.875-4.91 1.672-5.086 1.367-5.082 1.363-5.254.852-5.254.684-5.422.476-5.426.172-5.593V109.039l-.172-5.594-.476-5.425-.684-5.387-.852-5.289-1.363-5.254-1.367-5.254-1.672-4.91-1.875-4.914-2.219-4.742-2.386-4.774-2.696-4.402-2.726-4.231-3.004-4.57-3.242-3.891-3.411-3.922-3.546-3.718-3.719-3.547-3.922-3.41-4.063-3.207-4.058-3.039-4.57-2.727-4.606-2.73-4.57-2.352-4.914-2.219-4.91-1.843-4.914-1.704-4.911-1.535-5.254-1.195-5.425-.852-5.422-.683-5.629-.477-5.563-.172z" style="fill:#fff;fill-opacity:1;fill-rule:evenodd;stroke:none"/>
    <path d="m108.738 1801.625-5.597-.199-5.664-.469-5.399-.664-5.461-.867-5.332-1.399-4.93-1.332-5.265-1.734-4.664-1.996-4.863-2.067-4.665-2.398-4.527-2.73-4.601-2.668-4.129-3.129-4.063-3.2-3.933-3.464-3.731-3.532-3.598-3.73-3.398-4.133-3.199-4.062-3.129-4.266-2.735-4.398-2.73-4.329-2.332-4.73-2.266-4.797-1.867-4.934-1.73-5.128-1.465-5.063-1.199-5.332-.868-5.262-.668-5.465-.531-5.398-.199-5.66V109.008l.199-5.598.531-5.461.668-5.398.868-5.328 1.199-5.266 1.465-5.262 1.73-4.933 1.867-4.996 2.266-4.731 2.332-4.797 2.73-4.465 2.735-4.199 3.062-4.594 3.266-3.933 3.398-3.93 3.598-3.73 3.731-3.598 3.933-3.398 4.063-3.2 4.129-3.066 4.601-2.73 4.527-2.797 4.598-2.332L66.426 9l4.664-1.801 5.265-1.73 4.93-1.531 5.332-1.2 5.461-.867 5.399-.668 5.664-.531 5.597-.133h2483.891l5.594.133 5.664.531 5.398.668 5.461.867 5.266 1.2 4.996 1.531 4.933 1.73L2634.867 9l4.934 2.266 4.597 2.332 4.598 2.797 4.598 2.73 4.129 3.066 4.062 3.2 3.934 3.398 3.73 3.598 3.531 3.73 3.465 3.93 3.266 3.933 2.996 4.594 2.734 4.199 2.731 4.465 2.398 4.797 2.2 4.731 1.933 4.996 1.664 4.933 1.332 5.262 1.399 5.266.867 5.328.668 5.398.465 5.461.199 5.598v1584.078l-.199 5.664-.465 5.398-.668 5.461-.867 5.332-1.399 5.262-1.332 5.067-1.664 5.128-1.933 4.93-2.2 4.797-2.398 4.73-2.731 4.333-2.734 4.398-2.996 4.262-3.266 4.066-3.398 4.129-3.598 3.73-3.73 3.532-3.934 3.465-4.062 3.199-4.129 3.133-4.598 2.664-4.598 2.734-4.597 2.395-4.934 2.066-4.926 2-4.933 1.73-4.996 1.336-5.266 1.399-5.461.867-5.398.664-5.664.469-5.594.199zm0-.555h2483.871l5.563-.172 5.629-.511 5.422-.645 5.425-.855 5.254-1.364 4.911-1.367 4.914-1.703 4.91-2.012 4.914-2.046 4.57-2.356 4.606-2.726 4.57-2.696 4.058-3.07 4.063-3.207 3.922-3.414 3.719-3.547 3.546-3.719 3.415-4.094 3.238-4.058 3.004-4.231 2.726-4.398 2.696-4.266 2.39-4.742 2.215-4.742 1.875-4.914 1.672-5.082 1.367-5.082 1.363-5.254.856-5.254.68-5.422.48-5.426.168-5.593V109.039l-.168-5.594-.48-5.422-.68-5.39-.856-5.289-1.363-5.254-1.367-5.254-1.672-4.91-1.875-4.914-2.215-4.742-2.39-4.778-2.696-4.398-2.726-4.231-3.004-4.57-3.238-3.891-3.415-3.922-3.546-3.718-3.719-3.547-3.922-3.41-4.063-3.207-4.058-3.039-4.57-2.727-4.606-2.73-4.57-2.352-4.914-2.219-4.91-1.843-4.914-1.704-4.911-1.535-5.254-1.195-5.425-.852-5.422-.683-5.629-.477-5.563-.172H108.738l-5.597.172-5.594.477-5.426.683-5.422.852-5.254 1.195-4.91 1.535-5.258 1.704-4.605 1.843-4.91 2.219-4.571 2.352-4.57 2.73-4.574 2.727-4.094 3.039-4.058 3.207-3.891 3.41-3.715 3.547-3.582 3.718-3.379 3.922-3.207 3.891-3.07 4.57-2.727 4.231-2.695 4.398-2.356 4.778-2.214 4.742-1.879 4.914-1.707 4.91-1.5 5.254-1.192 5.254-.855 5.289-.68 5.39-.516 5.422-.167 5.594v1584.063l.167 5.593.516 5.426.68 5.422.855 5.254 1.192 5.254 1.5 5.082 1.707 5.082 1.879 4.914 2.214 4.742 2.356 4.742 2.695 4.266 2.727 4.398 3.07 4.231 3.207 4.058 3.379 4.094 3.582 3.719 3.715 3.547 3.891 3.414 4.058 3.207 4.094 3.07 4.574 2.696 4.57 2.726 4.571 2.356 4.91 2.046 4.605 2.012 5.258 1.703 4.91 1.367 5.254 1.364 5.422.855 5.426.645 5.594.511z" style="fill:#000;fill-opacity:1;fill-rule:evenodd;stroke:none"/>
  </g>
  <g clip-path="url(#b)" transform="matrix(1.33333 0 0 -1.33333 0 2401.95)">
    <g clip-path="url(#c)" transform="translate(0 -.538)">
      <path d="M107.207 41.574h-3.375l-3.582.512-3.379.172-3.242.68-3.035.683-3.375 1.024-3.071 1.023-3.207 1.328-2.902 1.367-2.863 1.364-2.899 1.535-2.695 2.011-2.73 1.879-2.356 1.84-2.558 2.047-2.387 2.391-2.352 2.179-1.879 2.731-2.011 2.387-1.875 2.527-2.047 2.695-1.332 2.899-1.535 2.863-1.364 3.07-1.195 3.039-1.16 3.239-1.024 3.207-.679 3.207-.684 3.242-.172 3.375-.34 3.582v1590.816l.34 3.547.172 3.242.684 3.379.679 3.207 1.024 3.239 1.16 3.207 1.195 3.07 1.364 3.035 1.535 2.902 1.332 2.696 2.047 2.898 1.875 2.524 2.011 2.558 1.879 2.524 2.352 2.39 2.387 2.184 2.558 2.047 2.356 1.875 2.73 1.84 2.695 2.046 2.899 1.536 2.863 1.367 2.902 1.328 3.207 1.367 3.071.852 3.375 1.195 3.035.648 3.242.68 3.379.172 3.582.512h2493.664l3.41-.512 3.379-.172 3.41-.68 3.035-.648 3.411-1.195 3.039-.852 3.238-1.367 2.867-1.328 2.863-1.367 2.731-1.536 2.898-2.046 2.696-1.84 2.39-1.875 2.524-2.047 2.351-2.184 2.391-2.39 1.875-2.524 2.047-2.558 1.844-2.524 2.046-2.898 1.329-2.696 1.535-2.902 1.367-3.035 1.191-3.07.989-3.207 1.23-3.239.648-3.207.68-3.379.172-3.242.34-3.547V105.672l-.34-3.582-.172-3.375-.68-3.242-.648-3.207-1.23-3.207-.989-3.239-1.191-3.039-1.367-3.07-1.535-2.863-1.329-2.899-2.046-2.695-1.844-2.527-2.047-2.387-1.875-2.731-2.391-2.179-2.351-2.391-2.524-2.047-2.39-1.84-2.696-1.879-2.898-2.011-2.731-1.535-2.863-1.364-2.867-1.367-3.238-1.328-3.039-1.023-3.411-1.024-3.035-.683-3.41-.68-3.379-.172-3.41-.512z" style="fill:#633a34;fill-opacity:1;fill-rule:evenodd;stroke:none"/>
      <path d="m148.398 276.039-.679 3.035-.856 3.071-.816 2.867-.684 2.386 9.145 16.102 9.48 15.59 9.657 15.25 10.027 15.078 9.996 14.602 10.336 14.429 10.68 13.883 10.675 13.715 11.02 13.406 11.359 13.235 11.36 12.863 11.703 12.551 11.871 12.386 12.211 12.039 12.347 11.84 12.555 11.699 12.727 11.36 13.062 11.191 13.203 10.883 13.578 10.641 13.543 10.543 13.918 10.336 14.055 10.164 14.395 9.996 14.601 9.824 14.738 9.656 15.114 9.516 15.078 9.484 15.418 9.176 15.762 9.144 15.757 8.969 16.137 8.805 17.09 6.273 17.125 6.141 16.957 5.902 17.125 5.766 17.125 5.594 17.125 5.425 17.125 5.254 17.125 5.082 17.125 4.946 17.293 4.742 17.094 4.57 17.293 4.403 17.297 4.23 17.296 4.094 17.293 3.887 17.297 3.89 17.465 3.547 17.465 3.414 17.434 3.41 17.636 3.035 17.465 3.036 17.637 2.902 17.808 2.695 17.774 2.559 17.808 2.351 17.805 2.387 17.981 2.047 17.976 2.016 18.113 1.875 18.149 1.671 18.148 1.707 18.285 1.364-.136-6.617-.512-6.278-.852-6.277-1.195-5.902-1.363-5.934-1.5-5.801-1.879-5.73-2.047-5.594-2.012-5.629-2.386-5.598-2.391-5.73-2.523-5.594-5.082-11.531-5.082-11.871-9.348-.684-18.625-1.703-9.348-.683-9.312-.852-9.145-.648-9.347-.852-9.313-.856-3.887-5.082-3.718-5.082-3.754-5.117-3.375-5.219-3.414-5.253-3.207-5.082-3.207-5.29-2.899-5.253-2.867-5.219-2.899-5.289-2.695-5.422-2.558-5.426-4.911-10.676-4.742-11.019-4.433-11.02-4.231-11.187-4.23-11.192-3.891-11.531-3.887-11.527-3.925-11.703-4.059-11.836-3.891-12.215-11.359-1.875-11.188-2.012-11.191-2.047-11.359-2.047-11.188-2.011-11.359-2.219-11.192-2.219-11.187-2.183-6.961-7.469-7.129-7.438-6.926-7.468-6.957-7.473-6.961-7.473-6.957-7.433-6.925-7.473-6.961-7.437-6.957-7.641-6.961-7.469-6.754-7.473-6.957-7.605-6.961-7.645-6.754-7.433-6.789-7.645-6.789-7.64-4.399-11.496-4.265-11.36-4.231-11.699-4.23-11.531-4.231-11.703-4.23-11.7-4.434-11.871-4.23-11.703-33.907-.168-33.91-.172-34.047-.136-33.941-.34-33.875-.207-33.91-.137-34.078-.168-33.91-.207-33.907-.137-33.91-.168-34.078-.343-33.875-.168-67.82-.344-34.078-.168zM1100.285 803.762l-5.594 1.535-5.765 1.535-5.934 1.332-6.109 1.363-12.383 2.559-12.859 2.184-12.895 2.214-13.238 2.356-13.031 2.387-12.895 2.73-6.445 1.5-12.555 3.414-6.105 1.84-5.903 2.047-5.937 2.012-5.594 2.39-5.594 2.524-5.426 2.73-5.082 3.07-4.945 3.204-4.742 3.378-4.402 3.719-4.227 3.922-3.926 4.231-3.547 4.605-16.613 3.719-16.441 3.547-16.274 3.55-15.929 3.75-15.934 3.719-15.758 3.891-15.59 4.094-15.453 4.398-7.609 2.355-7.641 2.387-7.609 2.559-7.641 2.523-7.469 2.731-7.609 2.867-7.469 3.066-7.472 3.039-7.438 3.239-7.469 3.378-7.3 3.547-7.473 3.719-7.266 3.754-7.3 4.059-7.266 4.23-7.301 4.434-13.918 2.355-14.055 2.387-13.917 2.183-13.883 2.387-13.918 2.184-13.715 2.219-13.715 2.046-13.574 2.012-22.723-1.672-22.719-1.875-22.718-1.707-22.719-1.84-22.551-1.707-22.719-1.875-22.718-1.672-22.516-1.878-22.719-1.875-22.722-1.844-22.547-1.875-22.551-1.875-22.547-1.844-22.551-1.875-22.547-1.875-22.55-2.016v700.317l144.097.308 144.094.34 144.266.512 144.097.344 144.094.34 144.266.339 144.097.344 144.094.512 144.266.34 144.265.172 144.098.339 144.266.34 144.265.172 144.266.309 144.266.168 144.437.343v-627.042l-31.008-1.364-27.156-1.195-23.707-1.024-20.539-.851-17.774-.852-15.281-.855-13.031-.649-11.188-.679-9.859-.856-8.461-.679-7.609-.856-7.129-1.023-6.957-.989-7.133-1.023-7.469-1.363-8.121-1.535 7.438 33.226 7.812 33.395 7.985 33.398 8.117 33.738 8.324 33.739 8.117 33.738 8.156 33.91 7.981 33.906 7.777 33.91 7.438 34.079 3.754 16.921 3.546 16.989 3.411 16.922 3.379 17.125 3.242 16.953 3.035 16.953 2.863 16.957 2.902 16.953 2.524 16.953 2.559 16.785 2.218 16.953 2.18 16.957-6.273-.171h-6.11l-6.242-.34-6.106-.684-20.195-87.808-17.465-77.129-15.25-66.797-13.203-57.653-11.187-48.984-9.52-41.004-7.945-34.25-6.621-27.976-5.422-22.547-4.402-17.977-3.547-14.055-3.071-10.882-2.523-8.801-2.391-7.133-2.215-6.617-2.355-6.414-3.207.172-3.238.34-3.039.511-3.071.512-2.898.648-2.863.684-2.696.852-2.73 1.023-2.696 1.195-2.73 1.16-2.559 1.196-2.691 1.531-2.559 1.535-2.527 1.672-2.559 1.707-2.523 1.875 6.074 28.145 6.106 27.972 5.968 27.973 6.075 27.973 6.105 28.113 6.106 27.973 6.277 27.972 12.211 55.946 6.277 27.972 6.106 27.973 6.246 27.805 6.14 27.972 6.243 27.801 6.277 27.973 6.105 27.804-3.378.34-3.582.512-3.375.34-3.379.343-3.379.34-3.41.512-3.239.34-3.039.344-6.277-27.668-6.274-27.633-6.109-27.629-6.277-27.77-6.071-27.668-6.277-27.8-6.105-27.801-6.278-27.633-6.105-27.769-6.106-27.801-6.074-27.805-6.141-27.836-6.07-27.769-6.109-27.801-6.106-27.973-5.933-27.805-5.086 2.696-4.946 2.73-4.742 2.524-4.742 2.386-4.742 2.356-4.738 2.558-4.743 2.387-4.605 2.356 6.309 31.351 5.39 27.801 4.945 24.766 4.403 21.867 3.89 19.82 3.75 18.149 3.547 17.125 3.551 16.273 3.375 16.27 3.754 16.613 3.887 17.469 4.437 18.828 4.707 20.843 5.422 23.063 6.11 26.098 6.957 29.507-3.887.852-3.754.648-3.891.852-3.886.684-3.922.683-3.856.512-3.926.512-3.886.511-4.606-20.539-4.57-20.672-4.711-20.504-4.602-20.671-4.402-20.536-4.57-20.503-4.574-20.672-4.602-20.536-4.402-20.503-4.571-20.672-4.402-20.535-4.57-20.676-4.403-20.5-4.433-20.504-4.571-20.707-4.433-20.5-18.285-1.024-17.637-1.332-17.297-1.363-16.785-1.875-8.117-1.023-8.153-1.024-7.949-1.16-7.984-1.367-7.981-1.363-7.777-1.536-7.781-1.5-7.809-1.707-7.812-1.875-7.61-2.015-7.64-2.215-7.606-2.184-7.812-2.386-7.641-2.559-7.609-2.695-7.813-2.903-7.812-3.035-7.778-3.207-7.812-3.582-7.777-3.547-7.981-3.718-8.121-4.094-7.981-4.059-8.324-4.402-8.289.344-8.324.339-8.289.34-8.324.344-8.121.305-8.325.172-8.117.339-8.324.172-8.117.34-8.121.172-8.153.172-8.152.34-8.289.172-8.156.168-8.117.171-8.153.172-5.426-10.168-5.421-10.164-5.426-10.168-5.422-10.199-5.426-10.164-5.426-10.168-5.422-10.164-5.425-10.168-8.289-.852-7.641-1.023-7.129-.852-6.586-1.195-6.308-1.16-5.903-1.535-5.765-1.535-5.594-1.844-5.461-2.047-5.387-2.387-5.426-2.695-5.425-2.898-5.797-3.379-5.903-3.719-6.105-4.09-6.617-4.402v10.508l6.105 4.093 5.934 3.547 5.937 3.207 5.594 2.899 5.766 2.523 5.593 2.391 5.731 1.84 5.765 1.707 5.801 1.535 5.903 1.363 6.105 1.16 6.277 1.196 13.235 1.875 14.566 2.046 4.574 10.168 4.946 10.164 4.742 9.997 4.91 10.164 5.082 10.031 4.914 10.164 5.082 9.824 5.086 9.828 13.063.168 11.496.172 10.371.168h31.012l6.273-.168 6.109-.34 6.106-.172 6.277-.511 6.582-.512 7.129-.512 7.984-.683 8.973-.817 9.996-.855 10.711 5.593 10.676 5.426 10.473 5.254 10.371 5.082 10.508 4.914 10.335 4.742 10.508 4.434 10.508 4.059 5.25 1.843 5.254 1.875 5.426 1.875 5.422 1.672 5.425 1.707 5.594 1.364 5.629 1.503 5.563 1.364 5.765 1.195 5.762 1.191 5.937 1.024 5.938.851 6.105.821 6.106.683 12.555 1.024-.344 23.742-.34 23.742-.34 23.539-.344 23.742-.339 23.743-.172 23.711-.34 23.57-.172 23.746-.34 23.742-.172 23.539-.168 23.571-.172 23.742-.339 23.539-.172 23.574-.172 23.57-.168 23.575H1972.5l-.34-5.594-.512-5.426-.339-5.422-.344-5.598-.512-5.421-.34-5.594-.34-5.426-.343-5.426-4.399.684-4.23.683-4.266.477-4.058.512-4.231.511-4.058.512-4.094.34-3.891.344-1.191 5.082-1.024 5.254-1.195 5.082-1.16 5.082-1.195 5.082-1.192 5.086-1.195 5.117-1.16 5.082-8.153-8.324-8.121-8.461-7.98-8.492-7.985-8.633-7.777-8.836-7.301-8.969-3.547-4.574-3.547-4.606-3.41-4.707-3.207-4.773-3.242-4.742-3.035-4.914-2.898-4.742-2.696-5.082-2.73-4.915-2.356-5.082-2.386-5.253-2.047-5.118-2.012-5.39-1.707-5.285-1.535-5.426-1.328-5.594-1.024-5.559-.855-5.628-.68-5.735-.512-5.933-4.914.82-4.91.68-4.914.511-9.484 1.024-4.743.343-4.57.512-4.777.34-1.024 4.23-.988 4.399-1.023 4.23-.852 4.438-.851 4.226-.856 4.403-.851 4.23-.684 4.434-4.707-.172-4.606-.168-4.742-.172-4.57-.168-4.742-.344-4.571-.339-4.777-.512-4.57-.34v-36.605l-5.426.82-5.422.68-5.426.511-5.422.512-5.425.512-5.422.343-5.426.512-5.422.34-.512 4.23-.343 4.231-.34 4.094-.34 4.058-.512 3.887-.308 4.063-.34 3.921-.512 3.891-6.621-.344-6.445-.679-6.617-.512-6.586-.684-6.481-.683-6.414-.649-12.555-1.703v-36.469l-10.847-7.437-10.676-7.469-10.68-7.609-10.508-7.469-10.675-7.645-10.539-7.605-10.34-7.641-10.504-7.812-.172-3.379.172-3.547.168-3.754.344-3.715 1.191-8.293 1.367-9.343 1.672-10.168 1.531-11.36.856-6.277.851-6.445.684-6.926.68-7.301-1.875-8.836-1.704-8.801-1.707-8.8-1.671-8.836-1.875-8.801-1.672-8.801-1.707-8.836-1.707-8.973-1.672-8.835-1.703-8.801-1.707-9.008-1.536-8.801-1.671-8.973-1.536-9.003-1.703-8.973-1.535-8.973-3.891-1.535-3.718-1.703-3.547-1.535-3.754-1.504-3.547-1.535-3.582-1.703-3.379-1.5-3.547-1.536-3.07-8.667-2.863-8.801-3.071-8.801-2.695-8.836-2.898-8.973-2.696-9.004-2.695-8.972-2.73-9.004-7.473-2.356-6.582-2.011-5.969-2.047-5.254-1.875-4.742-2.047-4.23-2.016-2.047-1.191-1.844-1.195-1.875-1.161-1.875-1.195-1.707-1.363-1.5-1.363-1.707-1.536-1.535-1.671-3.035-3.411-2.868-4.062-3.07-4.399-3.203-5.085-3.242-5.762-3.547-6.449-4.574-1.364-4.739-.992-4.605-1.191-4.742-1.196-4.575-1.195-4.738-1.191-4.574-1.16-4.773-1.196v11.36l.167 11.359v22.723l.172 11.359.172 11.324.168 11.36.512 11.359-14.055.172-13.406.34-6.414.172h-6.445l-6.278-.34-6.105-.344-6.106-.512-6.109-.988-3.035-.512-3.071-.683-3.035-.852-3.07-.851-2.867-.852-3.07-1.16-3.036-1.196-3.035-1.363-3.07-1.367-3.035-1.672-3.071-1.703-3.207-1.879-1.879-9.48-1.703-9.317-1.843-9.515-1.704-9.313-1.535-9.484-1.672-9.348-1.535-9.484-1.535-9.313-8.633-1.191-8.836-1.196-8.629-1.195-8.835-1.363-8.629-1.16-8.805-1.364-8.664-1.367-8.801-1.16-8.664-1.363-8.801-1.363-8.664-1.364-8.804-1.332-8.629-1.363-8.836-1.367-8.629-1.364-8.836-1.332-1.844-3.921-2.047-4.059-1.875-3.891-1.844-4.093-1.875-3.887-1.707-4.231-1.671-4.058-1.536-4.266-3.546-.476-3.411-.344-3.547-.512-3.414-.34-3.375-.683-3.207-.512-3.242-.68z" style="fill:#fff;fill-opacity:1;fill-rule:evenodd;stroke:none"/>
      <path d="m1741.754 1174.684-1.16 1.879-1.024 1.671-.851 1.875-.856 1.875-.679 1.672-.684 1.875-.512 1.879-.511 1.84-.684 3.754-.512 3.719-.168 3.89v3.922l.168 3.887.172 4.062.34 4.059.344 4.094.851 8.289.512 8.492h25.926v-57.48l-5.422-.852-5.254-1.363-5.254-1.332zM1772.773 1179.941v57.481l5.457-.68 5.563-1.023 5.766-1.024 5.933-1.367-.34-6.785-.308-6.586-.375-6.617-.305-6.789-.375-6.617-.172-6.586-.137-6.618v-6.789zM2371.531 363.184v34.214l-.172 3.071-.476 3.035-.684 2.898-1.023 2.903-1.363 2.695-1.536 2.559-1.672 2.183-2.046 2.215-2.184 2.012-2.387 1.707-2.39 1.535-2.692 1.332-2.902 1.023-2.863.68-3.071.512-3.039.172-3.207-.172-2.898-.512-3.035-.68-2.731-1.023-2.726-1.332-2.528-1.535-2.386-1.707-2.012-2.012-2.047-2.215-1.707-2.183-1.5-2.559-1.363-2.695-1.024-2.903-.683-2.898-.477-3.035-.207-3.071v-34.214l.207-3.243.477-3.035.683-2.902 1.024-2.691 1.363-2.731 1.5-2.523 1.707-2.391 2.047-2.215 2.012-1.844 2.386-1.875 2.528-1.5 2.726-1.195 2.731-1.023 3.035-.852 2.898-.344 3.207-.168 3.039.168 3.071.344 2.863.852 2.902 1.023 2.692 1.195 2.39 1.5 2.387 1.875 2.184 1.844 2.046 2.215 1.672 2.391 1.536 2.523 1.363 2.731 1.023 2.691.684 2.902.476 3.035zm30.532-59.188h-30.532v17.293l-1.843-2.18-2.047-2.218-2.215-1.844-2.184-1.875-2.219-1.707-2.355-1.535-2.559-1.5-2.523-1.196-2.559-1.191-2.726-1.023-2.696-.856-2.695-.68-2.73-.683-2.899-.34-2.867-.309h-5.594l-2.558.309-2.696.172-2.558.508-2.352.511-2.527.856-2.387.68-2.387 1.023-2.183 1.023-2.219 1.196-2.219 1.16-2.046 1.363-2.012 1.367-1.875 1.535-1.844 1.672-1.875 1.703-1.672 1.708-1.707 1.839-1.535 2.047-1.363 2.016-1.364 2.047-1.16 2.215-1.195 2.218-1.023 2.184-1.024 2.387-.68 2.355-.683 2.559-.684 2.351-.304 2.559-.344 2.527-.168 2.727-.207 2.558v53.387l.207 2.731.168 2.523.344 2.559.304 2.527.684 2.523.683 2.387.68 2.387 1.024 2.355 1.023 2.387 1.195 2.219 1.16 2.183 1.364 2.047 1.363 2.012 1.535 1.875 1.707 1.844 1.672 1.875 1.875 1.707 1.844 1.535 1.875 1.535 2.012 1.5 2.046 1.367 2.219 1.192 2.219 1.195 2.183.988 2.387.852 2.387.855 2.527.68 2.352.684 2.558.339 2.696.344 2.558.168 2.731.172 2.863-.172 2.867-.168 2.899-.512 2.73-.511 2.695-.684 2.696-.851 2.726-1.024 2.559-1.16 2.523-1.363 2.559-1.368 2.355-1.535 2.219-1.703 2.184-1.844 2.215-2.046 2.047-2.047 1.843-2.184v78.156h30.532zm-285.973 0v152.59h30.496v-17.297l1.875 2.184 2.016 2.047 2.046 2.046 2.18 1.844 2.391 1.703 2.386 1.535 2.356 1.368 2.559 1.363 2.695 1.16 2.558 1.024 2.727.851 2.867.684 2.696.511 2.863.512 2.902.168 2.899.172 2.695-.172 2.558-.168 2.524-.344 2.559-.339 2.558-.684 2.356-.68 2.523-.855 2.215-.852 2.39-.988 2.184-1.195 2.215-1.192 2.047-1.367 2.015-1.5 3.75-3.07 1.844-1.707 1.703-1.875 1.535-1.844 1.504-1.875 1.536-2.012 1.363-2.047 1.195-2.183 1.16-2.219 1.024-2.387.851-2.355.852-2.387.683-2.387.68-2.523.309-2.527.375-2.559.136-2.523.172-2.731V303.996h-30.5v93.402l-.168 3.071-.511 3.035-.684 2.898-1.023 2.903-1.364 2.695-1.5 2.559-1.707 2.183-2.011 2.215-2.219 2.012-2.219 1.707-2.523 1.535-2.731 1.332-2.863 1.023-2.899.68-3.039.512-3.07.172-3.035-.172-3.035-.512-2.899-.68-2.902-1.023-2.695-1.332-2.559-1.535-2.184-1.707-2.214-2.012-2.016-2.215-1.703-2.183-1.535-2.559-1.364-2.695-.992-2.903-.679-2.898-.512-3.035-.172-3.071v-93.402zm-76.11 66.828h-43.937l-1.844-.207-2.047-.304-1.703-.34-1.879-.684-1.672-.851-1.531-1.024-1.367-1.023-1.328-1.196-1.367-1.363-1.024-1.504-1.023-1.535-.852-1.703-.511-1.672-.477-1.879-.375-1.84v-3.922l.375-1.879.477-1.839.511-1.879.852-1.535 1.023-1.672 1.024-1.364 1.367-1.363 1.328-1.367 1.367-.988 1.531-1.024 1.672-.679 1.879-.684 1.703-.512 2.047-.34h28.621l1.879.34 1.84.512 1.707.684 1.707.679 1.535 1.024 1.5.988 1.364 1.367 1.195 1.363 1.023 1.364 1.024 1.672.851 1.535.684 1.879.305 1.839.343 1.879.203 1.875zm30.497-66.828h-30.497v15.793l-1.226-1.875-1.16-1.535-1.231-1.672-1.328-1.535-1.535-1.363-1.5-1.368-1.535-1.191-1.707-.992-1.844-1.024-1.875-.851-1.875-.684-1.879-.511-2.012-.512-2.011-.34-2.047-.172-2.047-.168h-18.969l-2.386.168-2.387.172-2.219.172-2.352.512-2.183.511-2.082.512-2.184.68-2.011.855-2.047 1.024-2.047.988-1.844 1.023-1.875 1.196-1.875 1.363-1.707 1.363-1.672 1.332-1.535 1.535-1.535 1.707-1.332 1.5-1.363 1.704-1.364 1.843-1.16 1.875-1.023 1.879-2.047 4.094-.852 2.012-.683 2.218-.684 2.012-.512 2.387-.34 2.183-.308 2.219-.203 2.387v4.742l.203 2.352.308 2.218.34 2.184.512 2.219.684 2.183.683 2.215.852 2.047 1.023 2.047 1.024 2.012 1.023 1.879 1.16 1.875 1.364 1.671 1.363 1.875 1.332 1.504 1.535 1.703 1.535 1.536 1.672 1.367 1.707 1.328 1.875 1.363 1.875 1.196 1.844 1.023 4.094 2.047 2.011.683 2.184.817 2.082.512 2.183.511 2.352.512 2.219.172 2.387.172 2.386.168h45.781v15.25l-.203 1.535-.172 1.535-.308 1.332-.543 1.535-.481 1.363-.679 1.333-.856 1.191-.851 1.195-2.047 2.047-1.16.817-1.364.855-1.195.68-1.535.683-1.363.34-1.535.344-4.028.68-4.09.511-4.062.172-4.094.172-8.117-.344-4.231-.511-3.89-.68-2.047-.344-1.875-.851-1.844-.852-1.703-.992-1.5-1.363-1.398-1.364-1.161-1.707-1.058-1.672-24.051 18.969 1.363 2.047 1.536 1.84 1.671 1.707 1.536 1.875 1.878 1.535 1.672 1.504 2.047 1.535 1.875 1.363 2.047 1.196 2.012 1.191 2.219.988 2.183.856 2.215.851 2.355.684 2.387.68 2.356.511 5.285.684 5.426.648 5.39.34 5.422.172 5.461-.172 5.422-.34 5.219-.648 5.461-.684 2.011-.511 2.219-.512 2.012-.68 1.91-.683 2.012-.684 1.843-.816 1.875-1.024 1.875-.851 1.707-1.196 1.672-1.195 1.707-1.191 1.703-1.161 2.868-2.902 2.898-3.07 2.387-3.207 2.183-3.375.993-1.875 1.023-1.672.852-2.047.683-1.879.68-1.875.683-2.012.34-2.046.512-2.012.34-2.047.172-2.219.172-2.183.168-2.047zm-144.946 0h-20.879l-1.672.168-1.703.172-1.707.34-1.672.344-1.707.511-1.535.512-1.5.68-1.535.683-1.535.852-1.363.683-1.368.989-2.691 1.879-2.391 2.214-2.351 2.528-1.844 2.558-.851 1.5-.856 1.364-.851 1.535-.684 1.5-.512 1.535-.679 1.535-.344 1.707-.512 1.707-.168 1.672-.344 1.703v1.707l-.136 1.84v179.031h30.5v-176.3l.168-.852.308-1.023.375-.856.309-.851.543-.684.48-.816.68-.684.684-.512.683-.679.852-.344.851-.512.856-.34.851-.172.989-.168h14.261zm-217.168 0v152.59h30.36v-17.297l1.879 2.184 2.011 2.047 2.219 2.046 2.184 1.844 2.214 1.703 2.356 1.535 2.559 1.368 2.523 1.363 2.559 1.16 2.695 1.024 2.695.851 2.731.684 2.898.511 2.695.512 2.899.168 3.035.172 2.559-.172 2.558-.168 2.696-.344 2.523-.339 2.391-.684 2.558-.68 2.352-.855 2.39-.852 2.184-.988 2.215-1.195 2.183-1.192 2.047-1.367 2.012-1.5 2.047-1.535 1.879-1.535 1.703-1.707 1.672-1.875 1.707-1.844 1.535-1.875 1.363-2.012 1.332-2.047 1.192-2.183 1.195-2.219.988-2.387 1.024-2.355 1.367-4.774.68-2.523.343-2.527.34-2.559.34-2.523V303.996h-30.496v93.402l-.203 3.071-.481 3.035-.679 2.898-1.024 2.903L1796 412l-1.5 2.559-1.707 2.183-2.047 2.215-2.047 2.012-2.351 1.707-2.559 1.535-2.695 1.332-2.731 1.023-3.035.68-2.898.512-3.207.172-3.071-.172-3.035-.512-2.902-.68-2.863-1.023-2.696-1.332-2.39-1.535-2.387-1.707-2.184-2.012-2.011-2.215-1.707-2.183-1.536-2.559-1.191-2.695-1.195-2.903-.684-2.898-.476-3.035-.172-3.071v-93.402zm-76.277 213.449h30.496v-30.5h-30.496zm0-60.859h30.496V304.031h-30.496zm-137.309-61.031h64.918l-.168 3.207-.511 3.242-.856 3.207-1.023 2.898-1.328 2.868-1.707 2.726-1.875 2.356-2.047 2.386-2.356 2.012-2.558 1.879-2.524 1.672-2.867 1.363-3.07 1.024-3.067.851-3.207.512-3.207.172-3.414-.172-3.207-.512-3.07-.851-3.035-1.024-2.899-1.363-2.523-1.672-2.559-1.879-2.355-2.012-2.047-2.386-1.84-2.356-1.707-2.726-1.363-2.868-1.024-2.898-.855-3.207-.168-1.535-.344-1.707v-1.5zm95.418-26.778h-95.418v-3.754l.137-2.523.344-2.387.375-2.355.648-2.387.852-2.183.851-2.219 1.196-2.047 1.195-2.012 1.5-2.047 1.535-1.707 3.375-3.375 1.879-1.367 2.184-1.363 2.047-1.16 2.386-.852 1.844-.851 1.875-.512 2.047-.512 1.84-.512 2.047-.343 2.015-.168 2.047-.137h4.399l2.218.137 2.387.339 2.184.34 2.218.684 2.184.684 2.215.679 2.047.856 2.011 1.023 2.047 1.156 1.879 1.196 1.875 1.363 1.844 1.332 1.703 1.535 1.707 1.707 1.5 1.672 23.231-19.82-2.727-2.867-2.867-2.899-2.863-2.523-3.243-2.559-3.07-2.184-3.379-2.218-3.375-1.844-3.547-1.703-3.582-1.535-3.719-1.367-3.753-1.192-3.719-.855-3.887-.852-3.891-.476-3.921-.34h-7.641l-6.758.679-3.578.481-3.379.851-3.207.852-3.41 1.023-3.207 1.364-2.219.855-2.183 1.024-2.215.988-2.047 1.195-2.016 1.192-1.875 1.367-1.875 1.363-1.844 1.5-1.875 1.535-1.707 1.535-1.671 1.5-1.536 1.707-1.535 1.672-1.5 1.875-1.363 1.879-1.367 1.875-1.192 1.875-1.195 2.016-1.195 2.047-.989 2.011-1.023 2.047-.852 2.184-.855 2.215-.68 2.218-.648 2.184-.512 2.387-.512 2.219-.339 2.351-.344 2.391-.168 2.351-.172 2.391v36.09l.172 3.242.512 3.035.511 3.242.68 2.864.82 3.07 1.024 2.867 1.191 2.867 1.195 2.899 1.332 2.695 1.536 2.559 1.703 2.558 1.707 2.524 1.875 2.386 2.015 2.184 2.047 2.219 2.18 2.011 2.219 2.047 2.355 1.875 2.559 1.707 2.523 1.672 2.731 1.535 2.726 1.364 2.696 1.367 2.867.988 2.898 1.024 3.035.851 3.071.684 3.035.511 3.242.512 3.035.168 3.414.172 3.207-.172 3.071-.168 3.203-.512 3.07-.511 3.039-.684 3.035-.851 2.899-1.024 2.867-.988 2.726-1.367 2.696-1.364 2.73-1.535 2.524-1.672 2.39-1.707 2.352-1.875 2.387-2.047 2.183-2.011 2.047-2.219 2.047-2.184 1.879-2.386 1.703-2.524 1.672-2.558 1.535-2.559 1.332-2.695 1.191-2.899 1.196-2.867 1.023-2.867.82-3.07.68-2.864.512-3.242.512-3.035.171-3.242.172-3.207zm-289.691-64.781v213.449H1331v-78.156l1.875 2.184 2.012 2.047 2.047 2.046 2.183 1.844 2.219 1.703 2.387 1.535 2.527 1.368 2.559 1.363 2.523 1.16 2.727 1.024 2.695.851 2.73.684 2.899.511 2.867.512 2.863.168 2.903.172 2.523-.172 2.731-.168 2.523-.344 2.559-.339 2.386-.684 2.524-.68 2.355-.855 2.387-.852 2.219-.988 2.183-1.195 2.219-1.192 2.047-1.367 2.012-1.5 2.046-1.535 1.875-1.535 1.672-1.707 1.707-1.875 1.672-1.844 1.535-1.875 1.364-2.012 1.363-2.047 1.367-2.183.988-2.219 1.059-2.387.988-2.355.852-2.387.683-2.387.512-2.523.512-2.527.34-2.559.172-2.523V303.996h-30.532v93.402l-.171 3.071-.34 3.035-.856 2.898-1.023 2.903-1.16 2.695-1.536 2.559-1.875 2.183-1.839 2.215-2.219 2.012-2.356 1.707-2.558 1.535-2.727 1.332-2.695 1.023-2.902.68-3.036.512-3.207.172-3.07-.172-3.035-.512-2.899-.68-2.867-1.023-2.558-1.332-2.524-1.535-2.386-1.707-2.219-2.012-1.844-2.215-1.875-2.183-1.535-2.559-1.16-2.695-1.024-2.903-.851-2.898-.34-3.035-.172-3.071v-93.402ZM1138.43 424.008h53.386l1.707.203h1.536l1.671.34 1.536.137 3.203.855 2.902 1.023 2.863 1.364 2.731 1.707 2.355 1.875 2.387 2.011 2.047 2.391 1.84 2.524 1.707 2.558 1.363 2.863 1.024 3.071.855 3.039.477 3.238.171 3.379-.171 3.207-.477 3.238-.855 3.039-1.024 3.071-1.363 2.863-1.707 2.559-1.84 2.523-2.047 2.391-2.387 2.011-2.355 1.875-2.731 1.535-2.863 1.504-2.902 1.02-3.203.855-3.207.512-3.243.168h-53.386zm-32.375-120.012v213.449h90.843l3.071-.343 3.035-.34 3.07-.512 2.867-.684 2.899-.851 2.867-.988 2.731-1.024 2.691-1.195 2.73-1.363 2.524-1.504 2.39-1.536 2.352-1.703 2.391-1.875 2.179-1.879 2.219-2.011 1.875-2.184 2.016-2.219 1.703-2.214 1.707-2.356 1.672-2.559 1.363-2.523 1.367-2.73 1.328-2.559 1.024-2.863 1.023-2.867.684-2.899.851-2.867.512-3.07.34-3.036.172-3.07.172-3.035v-2.559l-.172-2.355-.34-2.387-.344-2.355-.34-2.387-.511-2.387-.684-2.355-.68-2.219-.683-2.18-.817-2.218-1.023-2.184-2.047-4.094-1.195-2.047-1.332-2.011-1.192-1.879-1.535-1.84-1.367-1.875-1.672-1.707-1.535-1.672-1.703-1.707-1.672-1.535-1.875-1.535-1.879-1.5-1.875-1.364-2.012-1.367-2.047-1.191-2.015-1.196-2.215-.988-2.219-1.023-2.183-.852-2.215-.855 49.019-94.766h-38.172l-43.906 91.559h-41.855v-91.559z" style="fill:#fff;fill-opacity:1;fill-rule:evenodd;stroke:none"/>
    </g>
  </g>
</svg>
