<svg xmlns="http://www.w3.org/2000/svg" xml:space="preserve" viewBox="0 0 601.002 601.002" role="img" aria-labelledby="title">
  <title id="title">Verkehrszeichen 314-1 - Beginn einer Parkraumbewirtschaftungszone</title>
  <path d="M32.395.399C14.719.399.398 14.72.398 32.395v415.993c0 17.675 14.321 32.011 31.997 32.011h416.007c17.676 0 31.996-14.336 31.996-32.011V32.395c0-17.675-14.32-31.996-31.996-31.996z" style="fill:#fff;fill-opacity:1;fill-rule:evenodd;stroke:none" transform="matrix(1.25 0 0 -1.25 0 601.002)"/>
  <path d="M242.797 42.93v67.196h9.598l30.601-48v48h10.211V42.93h-9.598l-30.601 48.004V42.93zh66.008v67.196H352v-9.598h-33.004V81.337h28.215v-9h-28.215V52.528H352V42.93zm-51.004 23.407c0-7.637 6.191-13.809 13.809-13.809 7.621 0 13.793 6.172 13.793 13.809v20.386c0 7.637-6.172 13.805-13.793 13.805-7.618 0-13.809-6.168-13.809-13.805zm-10.191 0v20.386c0 13.262 10.738 24 24 24 13.246 0 24.003-10.738 24.003-24V66.337c0-13.262-10.757-24.004-24.003-24.004-13.262 0-24 10.742-24 24.004M128.789 42.93v8.407l30.602 49.789H130v9h42.004v-7.789l-30.617-49.809h30.617V42.93z" style="fill:#000;fill-opacity:1;fill-rule:evenodd;stroke:none" transform="matrix(1.25 0 0 -1.25 0 601.002)"/>
  <path d="M32.395 20.399h416.007c6.629 0 12 5.367 12 12v415.992c0 6.629-5.371 12-12 12H32.395c-6.629 0-12-5.371-12-12V32.399c0-6.633 5.371-12 12-12m0-12c-13.262 0-24 10.739-24 24v415.992c0 13.243 10.738 24 24 24h416.007c13.262 0 24-10.757 24-24V32.399c0-13.261-10.738-24-24-24z" style="fill:#000;fill-opacity:1;fill-rule:evenodd;stroke:none" transform="matrix(1.25 0 0 -1.25 0 601.002)"/>
  <path d="M122.527 149.266c-10.007 0-18.136 8.114-18.136 18.137V403.13c0 10.008 8.129 18.121 18.136 18.121h235.739c10.023 0 18.136-8.113 18.136-18.121V167.403c0-10.023-8.113-18.137-18.136-18.137z" style="fill:#154889;fill-opacity:1;fill-rule:evenodd;stroke:none" transform="matrix(1.25 0 0 -1.25 0 601.002)"/>
  <path d="M203.562 292.059h44.204c16.89 0 30.597 13.704 30.597 30.598 0 16.895-13.707 30.598-30.597 30.598h-44.204zm-28.894-101.988v190.391h74.801c31.929 0 57.804-25.879 57.804-57.805s-25.875-57.805-57.804-57.805h-45.907v-74.781z" style="fill:#fff;fill-opacity:1;fill-rule:evenodd;stroke:none" transform="matrix(1.25 0 0 -1.25 0 601.002)"/>
  <path d="M32.395 480.786C14.5 480.786 0 466.282 0 448.391V32.395C0 14.501 14.5.001 32.395.001h416.011c17.895 0 32.395 14.5 32.395 32.394v415.996c0 17.891-14.5 32.395-32.395 32.395zm0-.387h416.007c17.676 0 31.996-14.336 31.996-32.011V32.395c0-17.675-14.32-31.996-31.996-31.996H32.395C14.719.399.398 14.72.398 32.395v415.993c0 17.675 14.321 32.011 31.997 32.011" style="fill:#000;fill-opacity:1;fill-rule:evenodd;stroke:none" transform="matrix(1.25 0 0 -1.25 0 601.002)"/>
</svg>
