<svg xmlns="http://www.w3.org/2000/svg" xml:space="preserve" viewBox="0 0 185.199 103.397" role="img" aria-labelledby="title">
  <title id="title">Verkehrszeichen 394-50 - Laternenring – Schild</title>
  <path d="M0 26.042v-.988h.391v.988zm0-1.574v-.988h.391v.988zm0-1.578v-.985h.391v.985zm0-1.571v-.992h.391v.992zm0-1.582v-.984h.391v.984zm0-1.57v-.988h.391v.988zm0-1.574v-.992h.391v.992zm0-1.574v-.993h.391v.993zm0-1.578v-.993h.391v.993zm0-1.575v-.992h.391v.992zm0-1.574V9.3h.391v.992zm0-1.578v-.988h.391v.988zM0 7.14v-.578h.391v.578z" style="fill:#656565;fill-opacity:1;fill-rule:nonzero;stroke:none" transform="matrix(1.25 0 0 -1.25 0 103.397)"/>
  <path d="M.199 82.519h120v-56h-120z" style="fill:#0ff;fill-opacity:1;fill-rule:nonzero;stroke:none" transform="matrix(1.25 0 0 -1.25 0 103.397)"/>
  <path d="M.199 82.519h120v-56h-120z" style="fill:#0ff;fill-opacity:1;fill-rule:nonzero;stroke:none" transform="matrix(1.25 0 0 -1.25 0 103.397)"/>
  <path d="M.199 82.718h120v-56h-120z" style="fill:#fff;fill-opacity:1;fill-rule:nonzero;stroke:none" transform="matrix(1.25 0 0 -1.25 0 103.397)"/>
  <path d="M.199 74.519h120v-40h-120z" style="fill:#c1121c;fill-opacity:1;fill-rule:nonzero;stroke:none" transform="matrix(1.25 0 0 -1.25 0 103.397)"/>
  <path d="m10.047 16.773-8.41-2.407 8.41-2.402-.438 2.164h43.094v.48H9.609zm100.391 0 .437-2.165H67.781v-.48h43.094l-.437-2.164 8.41 2.402z" style="fill:#656565;fill-opacity:1;fill-rule:nonzero;stroke:none" transform="matrix(1.25 0 0 -1.25 0 103.397)"/>
  <path d="M56.41 12.226q-.064-.258-.293-.258c-.129 0-.226.027-.293.09a.29.29 0 0 0-.094.211q.001.06.02.136l.832 3.11-.055-.051a.6.6 0 0 0-.117-.066.3.3 0 0 0-.113-.024.25.25 0 0 0-.117.035.5.5 0 0 0-.196.207.3.3 0 0 0-.031.129q0 .141.152.258l.86.684q.1.076.207.078a.5.5 0 0 0 .156-.028.3.3 0 0 0 .11-.074.2.2 0 0 0 .066-.097.2.2 0 0 0 .023-.11.4.4 0 0 0-.019-.125zM61.031 16.769q.345 0 .344-.34c0-.231-.113-.34-.344-.34h-1.777l-.301-1.109q.259.082.524.082a1.14 1.14 0 0 0 .832-.352c.109-.105.187-.23.246-.379.058-.144.09-.305.09-.473a1.7 1.7 0 0 0-.075-.484 2 2 0 0 0-.199-.441 2 2 0 0 0-.305-.383 2 2 0 0 0-.371-.305 2 2 0 0 0-.422-.195 1.5 1.5 0 0 0-.437-.067 1.11 1.11 0 0 0-.703.223 1 1 0 0 0-.246.262 1.2 1.2 0 0 0-.16.34c-.008.047-.016.09-.016.129q0 .065.023.117c.02.043.043.074.078.101a.4.4 0 0 0 .118.067.4.4 0 0 0 .164.023c.144 0 .238-.082.293-.25a.4.4 0 0 1 .164-.25.5.5 0 0 1 .285-.078q.129-.002.258.043c.09.031.172.074.254.129a1.6 1.6 0 0 1 .429.434q.083.134.129.281a1 1 0 0 1 .051.304.55.55 0 0 1-.121.375q-.121.146-.359.145c-.063 0-.122-.008-.18-.016a1 1 0 0 1-.18-.05c-.058-.024-.133-.055-.207-.094-.074-.043-.172-.098-.277-.164a1 1 0 0 0-.102-.047.3.3 0 0 0-.093-.02.5.5 0 0 0-.161.028.4.4 0 0 0-.109.07.3.3 0 0 0-.063.094.4.4 0 0 0-.019.109.2.2 0 0 0 0 .067q.005.03.016.066l.554 2.078q.053.27.34.27zM63.609 16.769a.97.97 0 0 0 .469-.114 1.06 1.06 0 0 0 .36-.316c.101-.141.175-.305.23-.496q.084-.287.086-.633c0-.254-.031-.516-.094-.773a4.064 4.064 0 0 0-.621-1.414 3.2 3.2 0 0 0-.465-.543 2.3 2.3 0 0 0-.519-.368 1.3 1.3 0 0 0-.551-.129 1.017 1.017 0 0 0-.828.422 1.6 1.6 0 0 0-.231.493c-.058.195-.082.41-.082.644q-.002.38.09.766a4.119 4.119 0 0 0 .613 1.414q.21.311.461.547.247.233.524.367.273.134.558.133m.09-.696a.3.3 0 0 1-.09.016.74.74 0 0 1-.359-.113 1.8 1.8 0 0 1-.359-.301 3 3 0 0 1-.325-.438 4 4 0 0 1-.269-.535 3.4 3.4 0 0 1-.184-.582 2.5 2.5 0 0 1-.07-.578q0-.194.035-.359c.024-.11.051-.2.09-.278a.6.6 0 0 1 .144-.179.33.33 0 0 1 .192-.059c.113 0 .23.031.351.106.122.078.239.175.356.3q.17.187.328.438.154.252.273.535c.079.187.141.383.188.578q.065.305.066.586-.002.35-.097.578-.1.233-.27.285" style="fill:#646464;fill-opacity:1;fill-rule:nonzero;stroke:none" transform="matrix(1.25 0 0 -1.25 0 103.397)"/>
  <path d="M120.012 26.042v-.988h.386v.988zm0-1.574v-.988h.386v.988zm0-1.578v-.985h.386v.985zm0-1.571v-.992h.386v.992zm0-1.582v-.984h.386v.984zm0-1.57v-.988h.386v.988zm0-1.574v-.992h.386v.992zm0-1.574v-.993h.386v.993zm0-1.578v-.993h.386v.993zm0-1.575v-.992h.386v.992zm0-1.574V9.3h.386v.992zm0-1.578v-.988h.386v.988zm0-1.574v-.578h.386v.578z" style="fill:#656565;fill-opacity:1;fill-rule:nonzero;stroke:none" transform="matrix(1.25 0 0 -1.25 0 103.397)"/>
  <path d="M0 82.718V26.319h120.398v56.399zm.199-.199h120v-56h-120z" style="fill:#000;fill-opacity:1;fill-rule:nonzero;stroke:none" transform="matrix(1.25 0 0 -1.25 0 103.397)"/>
  <path d="M121.004 26.319h.785v.391h-.785zm1.578 0h.781v.391h-.781zm1.367 0h.992v.391h-.992zm1.582 0h.985v.391h-.985zm1.574 0h.989v.391h-.989zm1.579 0h.984v.391h-.984zm1.57 0h.988v.391h-.988zm1.578 0h.984v.391h-.984zm1.57 0h.993v.391h-.993zm1.582 0h.985v.391h-.985zm1.571 0h.988v.391h-.988zm1.574 0h.992v.391h-.992zm1.574 0h.992v.391h-.992zm1.578 0h.992v.391h-.992zm1.574 0h.993v.391h-.993zm1.575 0h.992v.391h-.992zm1.578 0H147v.391h-.992zm1.574 0h.578v.391h-.578zM121.004 82.327h.785v.391h-.785zm1.578 0h.781v.391h-.781zm1.367 0h.992v.391h-.992zm1.582 0h.985v.391h-.985zm1.574 0h.989v.391h-.989zm1.579 0h.984v.391h-.984zm1.57 0h.988v.391h-.988zm1.578 0h.984v.391h-.984zm1.57 0h.993v.391h-.993zm1.582 0h.985v.391h-.985zm1.571 0h.988v.391h-.988zm1.574 0h.992v.391h-.992zm1.574 0h.992v.391h-.992zm1.578 0h.992v.391h-.992zm1.574 0h.993v.391h-.993zm1.575 0h.992v.391h-.992zm1.578 0H147v.391h-.992zm1.574 0h.578v.391h-.578zM142.438 81.159l-2.403-8.41 2.164.438V59.276h.481v13.911l2.164-.438zm-.239-31.398V35.749l-2.164.438 2.403-8.414 2.406 8.414-2.164-.438v14.012zM120.508 74.128h.992v.391h-.992zm1.574 0h.996v.391h-.996zm1.578 0h.992v.391h-.992zm1.574 0h.993v.391h-.993zm1.575 0h.992v.391h-.992zm1.578 0h.992v.391h-.992zm1.574 0h.578v.391h-.578zM120.508 34.523h.992v.39h-.992zm1.574 0h.996v.39h-.996zm1.578 0h.992v.39h-.992zm1.574 0h.993v.39h-.993zm1.575 0h.992v.39h-.992zm1.578 0h.992v.39h-.992zm1.574 0h.578v.39h-.578zM126.539 73.159l-2.402-8.41 2.164.438v-5.911h.476v5.911l2.164-.438zm-.238-23.398v-6.012l-2.164.438 2.402-8.414 2.402 8.414-2.164-.438v6.012zM141.152 52.116q.263-.071.262-.289a.43.43 0 0 0-.09-.289.28.28 0 0 0-.215-.097.4.4 0 0 0-.129.019l-.691.18q-.251.07-.25.332v1.988q-.001.34.344.34c.082 0 .144-.02.195-.063l4.078-2.39q.183-.105.184-.262a.4.4 0 0 0-.031-.148.4.4 0 0 0-.079-.125.3.3 0 0 0-.109-.082.24.24 0 0 0-.109-.032.4.4 0 0 0-.2.063l-3.589 2.101v-1.129zM140.039 56.593q.001.258.113.469c.075.14.18.257.321.359q.204.148.492.23.286.087.633.086.38 0 .773-.093a4.1 4.1 0 0 0 1.414-.621c.207-.141.391-.297.543-.465q.23-.245.367-.52.129-.275.129-.551 0-.253-.105-.464a1.2 1.2 0 0 0-.317-.364 1.6 1.6 0 0 0-.492-.23 2.4 2.4 0 0 0-.648-.082q-.375 0-.762.09a4.2 4.2 0 0 0-1.414.613 3.4 3.4 0 0 0-.547.461q-.234.25-.363.523c-.09.184-.137.367-.137.559m.695.09a.3.3 0 0 1-.011-.09q-.001-.175.109-.356a1.6 1.6 0 0 1 .301-.359q.19-.176.437-.328.253-.153.535-.27c.188-.078.379-.14.583-.183.195-.047.39-.067.574-.067q.2.001.363.032.162.035.277.093a.6.6 0 0 1 .18.141.34.34 0 0 1 .063.191.7.7 0 0 1-.11.352 1.7 1.7 0 0 1-.301.355 3 3 0 0 1-.437.329 4 4 0 0 1-.535.273 3.5 3.5 0 0 1-.578.184c-.204.046-.395.07-.586.07a1.45 1.45 0 0 1-.578-.098q-.234-.1-.286-.269M124.141 54.269c0 .226.113.343.343.343.227 0 .34-.117.34-.343v-1.786l1.11-.3a1.7 1.7 0 0 0-.082.527q0 .25.093.461.088.219.258.371c.106.106.235.188.379.246q.218.09.477.09.251.001.484-.074.235-.07.445-.199.206-.13.383-.305.176-.175.305-.375a2 2 0 0 0 .195-.422q.066-.222.067-.437a1.2 1.2 0 0 0-.055-.379 1.2 1.2 0 0 0-.168-.325 1.2 1.2 0 0 0-.262-.25 1.2 1.2 0 0 0-.344-.156.5.5 0 0 0-.129-.019.3.3 0 0 0-.121.023.3.3 0 0 0-.097.078.3.3 0 0 0-.067.117.6.6 0 0 0-.027.168q0 .213.258.289a.45.45 0 0 1 .25.164.53.53 0 0 1 .078.29.8.8 0 0 1-.047.257c-.031.09-.074.172-.129.254a1.2 1.2 0 0 1-.195.235 1.5 1.5 0 0 1-.238.195q-.135.084-.282.133a1 1 0 0 1-.304.051.57.57 0 0 1-.379-.125q-.141-.12-.141-.356 0-.094.012-.184a1.294 1.294 0 0 1 .148-.386q.06-.118.16-.278a.5.5 0 0 0 .051-.101.378.378 0 0 0-.012-.254.3.3 0 0 0-.164-.176.3.3 0 0 0-.109-.019.2.2 0 0 0-.063 0q-.034.007-.07.015l-2.082.555q-.27.054-.269.344zM124.141 56.851q-.001.258.109.468.117.212.32.36.21.151.496.234c.192.055.407.082.637.082q.381 0 .774-.094.387-.087.746-.246c.238-.105.461-.226.672-.375q.313-.212.546-.464.228-.248.368-.524c.086-.18.129-.367.129-.551a1 1 0 0 0-.11-.465 1.1 1.1 0 0 0-.316-.363 1.5 1.5 0 0 0-.492-.234 2.4 2.4 0 0 0-.649-.082q-.375 0-.762.09-.387.087-.746.246a4 4 0 0 0-.672.367 3.4 3.4 0 0 0-.55.465 2.2 2.2 0 0 0-.368.527q-.133.27-.132.559m.695.086a.2.2 0 0 1-.012-.086.66.66 0 0 1 .114-.36 1.5 1.5 0 0 1 .3-.359q.187-.17.438-.328a4 4 0 0 1 1.117-.457q.298-.066.578-.067.2 0 .363.036c.11.023.204.05.278.093a.5.5 0 0 1 .179.141.3.3 0 0 1 .063.191.7.7 0 0 1-.109.356 1.7 1.7 0 0 1-.301.351q-.187.176-.438.332a3.593 3.593 0 0 1-1.117.457 2.6 2.6 0 0 1-.586.071q-.352 0-.582-.098-.233-.098-.285-.273" style="fill:#656565;fill-opacity:1;fill-rule:nonzero;stroke:none" transform="matrix(1.25 0 0 -1.25 0 103.397)"/>
  <path d="M106.664.171q0-.082-.047-.082-.186.001-.461.019a5.763 5.763 0 0 1-.851 0 8 8 0 0 0-.45-.019q-.051 0-.05.082 0 .07.043.074.332.041.449.121.122.083.121.313v.043l-.117 2.738-1.363-3.414q-.013-.047-.079-.047-.063 0-.074.047L102.5 3.327l-.203-2.605q-.005-.047-.004-.082 0-.192.129-.274.13-.081.465-.117c.023-.004.039-.031.039-.078q0-.082-.051-.082-.148.001-.402.019a5 5 0 0 1-.368.016q-.14.001-.382-.016a6 6 0 0 0-.364-.019q-.04 0-.039.082 0 .07.051.074.357.043.492.133.137.093.157.344l.296 2.66v.09q0 .183-.128.265t-.473.125q-.037.001-.039.079c0 .019.008.039.015.054q.018.024.036.024.105.001.296-.016a2 2 0 0 1 .243-.016c.062 0 .16.004.281.016q.188.017.293.016l1.211-3.145 1.258 3.145q.11.001.296-.016a2.4 2.4 0 0 1 .547 0q.173.017.297.016c.031 0 .051-.024.051-.078q0-.078-.047-.079-.33-.04-.453-.121-.117-.083-.117-.312v-.047l.129-2.66c.008-.129.027-.223.062-.274a.35.35 0 0 1 .18-.129 2 2 0 0 1 .363-.074q.047-.005.047-.074M108.801.03a.5.5 0 0 0-.278.078.4.4 0 0 0-.16.208c-.199-.208-.465-.309-.789-.309a.57.57 0 0 0-.414.152.54.54 0 0 0-.164.395q-.001.58 1.375.937l.016.442v.015a.48.48 0 0 1-.102.321.32.32 0 0 1-.265.121.5.5 0 0 1-.282-.082.24.24 0 0 1-.121-.2.4.4 0 0 0-.094-.285.31.31 0 0 0-.242-.101.2.2 0 0 0-.148.054q-.057.055-.055.145c0 .145.129.297.395.457.261.156.507.238.734.238a.68.68 0 0 0 .492-.179.64.64 0 0 0 .192-.489v-.031L108.852.64V.62q-.001-.298.191-.297c.062 0 .133.035.219.114l.019.004q.022-.001.043-.032a.1.1 0 0 0 .02-.062q-.001-.082-.172-.199a.64.64 0 0 0-.371-.118m-.438 1.27q-.822-.185-.824-.617.001-.399.313-.399.146 0 .293.071a.44.44 0 0 1 .199.187zM112.211 1.226c0-.348-.086-.641-.254-.871-.168-.235-.371-.348-.605-.348a.46.46 0 0 0-.352.144.52.52 0 0 0-.137.375q.002.159.078.258a.27.27 0 0 0 .387.032.24.24 0 0 0 .074-.172c0-.082-.043-.149-.121-.196q-.088-.048-.09-.113.001-.148.137-.148.317 0 .317 1.039 0 .546-.235.91-.233.368-.613.367-.047 0-.047.078 0 .082.047.082.281-.001.445.195.165.194.164.524 0 .609-.402.609-.21-.001-.379-.265a1.1 1.1 0 0 1-.168-.61V.722q0-.27.059-.364.059-.088.234-.113.047-.005.047-.074 0-.082-.047-.082c-.078 0-.164.008-.266.019a3 3 0 0 1-.304.016q-.14.001-.328-.016a3 3 0 0 0-.282-.019q-.047 0-.047.082 0 .07.047.074c.16.024.262.059.309.117q.07.083.07.36v1.351c0 .055-.023.078-.07.078h-.285c-.039 0-.059.028-.059.075 0 .05.02.078.051.086q.363.08.363.156 0 .743.321 1.234.316.492.828.492a.8.8 0 0 0 .578-.214.67.67 0 0 0 .23-.52q0-.562-.668-.844.429-.118.7-.511.274-.393.273-.879M114.891 1.694q-.002-.077-.102-.078h-1.547a3 3 0 0 1-.019-.316c0-.305.074-.535.215-.699q.217-.246.617-.246.201.002.402.109c.137.07.246.164.328.273l.016.008q.023 0 .047-.035a.1.1 0 0 0 .027-.07c0-.039-.063-.125-.184-.25a1.3 1.3 0 0 0-.39-.285 1 1 0 0 0-.446-.098q-.51.001-.855.371-.347.374-.348.918 0 .551.34.937.341.382.863.383.441 0 .735-.289.3-.28.301-.633m-.516.25a.47.47 0 0 1-.145.352.52.52 0 0 1-.375.141.5.5 0 0 1-.378-.184 1 1 0 0 1-.215-.48l.785.023a.9.9 0 0 1 .254.035q.075.031.074.113M117.625 3.585a.29.29 0 0 0-.09-.207.27.27 0 0 0-.203-.086.28.28 0 0 0-.211.086.3.3 0 0 0-.086.207q.002.123.086.211a.28.28 0 0 0 .211.082.28.28 0 0 0 .203-.082.3.3 0 0 0 .09-.211m.395-3.414q-.001-.082-.043-.082-.12.001-.297.019a4 4 0 0 1-.684 0 3 3 0 0 0-.293-.019q-.047 0-.047.082 0 .07.047.074c.16.024.262.059.309.117q.07.083.07.36v1.047q0 .227-.059.297-.057.07-.253.093-.043 0-.043.074 0 .066.043.067.296.077.488.16a.8.8 0 0 1 .238.145.08.08 0 0 0 .059.035q.082 0 .082-.047-.047-.634-.047-.981v-.89q0-.277.066-.36c.051-.058.156-.093.321-.117q.042-.005.043-.074M121.16.171q0-.082-.047-.082-.11.001-.273.019a3.3 3.3 0 0 1-.645 0 3 3 0 0 0-.281-.019q-.047 0-.047.082 0 .07.047.074.195.023.254.11c.043.058.062.183.062.367v.945q0 .317-.125.465-.123.146-.382.144a.64.64 0 0 1-.293-.062.9.9 0 0 1-.266-.219V.722c0-.184.02-.309.059-.367q.059-.087.257-.11.043-.005.043-.074 0-.082-.043-.082-.115.001-.285.019a3.2 3.2 0 0 1-.636 0 3 3 0 0 0-.282-.019q-.047 0-.047.082 0 .07.047.074c.161.024.266.059.313.117q.07.09.07.36v1.047q0 .227-.058.297-.06.07-.258.093-.048 0-.047.074 0 .066.047.067.279.072.465.156c.125.063.203.11.234.149q.028.035.062.035.08 0 .079-.047l-.02-.356q.407.38.754.379.386-.001.602-.218.217-.224.218-.594V.722q-.002-.277.067-.36c.047-.058.148-.093.308-.117q.048-.005.047-.074M127.973.171q.002-.082-.043-.082c-.125 0-.282.008-.461.019a5.762 5.762 0 0 1-.852 0 8 8 0 0 0-.449-.019q-.052 0-.051.082-.002.07.043.074.33.041.449.121.122.083.121.313v.043l-.117 2.738L125.25.046q-.019-.047-.078-.047-.065 0-.078.047l-1.282 3.281-.203-2.605a1 1 0 0 1-.007-.082q.002-.192.132-.274.129-.081.461-.117.043-.007.043-.078-.002-.082-.05-.082-.152.001-.403.019-.239.017-.367.016-.141.001-.387-.016a6 6 0 0 0-.359-.019q-.04 0-.039.082-.001.07.051.074.351.043.492.133.137.093.156.344l.293 2.66c.004.035.004.062.004.09q0 .183-.129.265-.13.083-.473.125-.04.001-.039.079-.001.03.016.054t.035.024q.104.001.297-.016.162-.017.238-.016.099-.001.285.016.188.017.293.016l1.211-3.145 1.254 3.145c.074 0 .176-.004.297-.016a2.5 2.5 0 0 1 .547 0q.175.017.297.016.052.002.051-.078.002-.078-.043-.079c-.223-.027-.371-.066-.454-.121q-.117-.083-.117-.312v-.047l.129-2.66a.6.6 0 0 1 .059-.274.36.36 0 0 1 .183-.129q.123-.045.364-.074.045-.005.043-.074M129.203 3.585a.29.29 0 0 0-.09-.207.27.27 0 0 0-.207-.086.28.28 0 0 0-.207.086.29.29 0 0 0-.086.207.29.29 0 0 0 .293.293.28.28 0 0 0 .207-.082.3.3 0 0 0 .09-.211m.395-3.414q0-.082-.047-.082-.116.001-.297.019a4 4 0 0 1-.68 0 3 3 0 0 0-.293-.019q-.047 0-.047.082 0 .07.047.074c.16.024.262.059.309.117q.07.083.07.36v1.047q.001.227-.062.297-.055.07-.25.093c-.032 0-.043.024-.043.074 0 .043.011.067.043.067q.298.077.484.16.192.088.238.145.029.035.063.035c.055 0 .078-.016.078-.047q-.042-.634-.043-.981v-.89q0-.277.066-.36c.047-.058.153-.093.317-.117q.047-.005.047-.074M131.113.175q0-.077-.047-.078-.113 0-.296.011a4 4 0 0 1-.676 0 5 5 0 0 0-.297-.011q-.047 0-.047.078 0 .071.047.078c.16.02.262.055.308.113q.076.088.075.364v2.625q-.001.228-.055.296-.058.071-.262.094-.045.006-.043.071-.002.07.043.07c.199.051.36.101.489.16.125.059.203.105.234.148q.028.031.062.032.082 0 .082-.047-.046-.633-.046-.985V.73q0-.276.07-.364c.047-.058.152-.093.312-.113q.048-.007.047-.078M132.582.175q0-.077-.047-.078-.116 0-.297.011-.204.017-.34.016-.138.001-.336-.016a6 6 0 0 0-.296-.011q-.048 0-.047.078 0 .071.047.078c.16.02.261.055.308.113q.075.088.074.364v2.625q0 .228-.058.296-.052.071-.258.094-.047.006-.047.071 0 .07.047.07c.199.051.359.101.484.16.129.059.207.105.239.148q.028.031.062.032c.055 0 .078-.016.078-.047a17 17 0 0 1-.043-.985V.73q0-.276.071-.364c.047-.058.152-.093.312-.113q.047-.007.047-.078M133.715 3.585a.28.28 0 0 0-.086-.207.28.28 0 0 0-.207-.086.285.285 0 0 0-.293.293q0 .123.082.211a.3.3 0 0 0 .211.082.29.29 0 0 0 .293-.293m.394-3.414c0-.055-.011-.082-.043-.082q-.116.001-.296.019a4 4 0 0 1-.68 0 4 4 0 0 0-.297-.019q-.042 0-.043.082.001.07.043.074c.16.024.266.059.309.117q.07.083.07.36v1.047q0 .227-.059.297t-.25.093q-.047 0-.047.074 0 .066.047.067.296.077.485.16.19.088.238.145.028.035.062.035.078 0 .079-.047-.048-.634-.047-.981v-.89q0-.277.07-.36c.047-.058.152-.093.316-.117.032-.004.043-.027.043-.074M138.828.171q0-.082-.047-.082a3 3 0 0 0-.277.019 3 3 0 0 1-.641 0 3 3 0 0 0-.277-.019q-.047 0-.047.082 0 .07.047.074c.125.016.211.051.25.11.039.058.059.183.059.367v.945q0 .317-.122.465-.122.146-.378.144a.76.76 0 0 1-.567-.23V.722c0-.184.02-.309.063-.367q.06-.087.254-.11.045-.005.043-.074.002-.082-.043-.082c-.075 0-.165.008-.262.019a2.8 2.8 0 0 1-.61 0 2 2 0 0 0-.261-.019q-.048 0-.047.082 0 .07.047.074.195.023.254.11c.043.058.062.183.062.367v.945q-.001.317-.125.465-.124.146-.383.144a.65.65 0 0 1-.293-.062 1 1 0 0 1-.269-.219V.722c0-.184.019-.309.062-.367q.06-.087.254-.11.047-.005.047-.074 0-.082-.047-.082-.111.001-.281.019a3.3 3.3 0 0 1-.645 0 3 3 0 0 0-.277-.019q-.042 0-.043.082.001.07.043.074c.16.024.266.059.309.117q.07.083.07.36v1.047q0 .227-.059.297t-.25.093q-.046 0-.046.074 0 .066.046.067.277.072.465.156c.125.063.203.11.235.149q.028.035.062.035.077 0 .078-.047l-.023-.356c.273.254.523.379.758.379q.537.002.73-.414.428.416.84.414.386-.001.602-.218.215-.224.214-.594V.722q0-.277.071-.36c.047-.058.148-.093.308-.117q.047-.005.047-.074M141.289 1.694q-.001-.077-.101-.078h-1.547a3 3 0 0 1-.02-.316c0-.305.074-.535.215-.699q.22-.246.617-.246c.133 0 .27.039.402.109.137.07.247.164.329.273l.015.008q.024 0 .047-.035a.1.1 0 0 0 .027-.07q0-.06-.183-.25a1.3 1.3 0 0 0-.391-.285 1.141 1.141 0 0 0-1.301.273q-.346.374-.347.918 0 .551.34.937.34.382.863.383.44 0 .734-.289.303-.28.301-.633m-.512.25q0 .211-.148.352a.52.52 0 0 1-.375.141.48.48 0 0 1-.375-.184 1 1 0 0 1-.219-.48l.789.023a.9.9 0 0 1 .25.035q.077.031.078.113M143.453 2.339q.001-.152-.074-.152l-.844.023V.855q.002-.533.379-.532.235-.001.43.11c.011 0 .027-.012.039-.032a.1.1 0 0 0 .019-.062q0-.07-.211-.191a.94.94 0 0 0-.472-.118q-.323 0-.516.192a.72.72 0 0 0-.191.523v.024l.011 1.371q0 .082-.07.082h-.211q-.063-.001-.062.074-.001.052.05.082.392.232.684.652.03.047.078.047.077 0 .078-.047l-.023-.539h.832q.075 0 .074-.152M146.012 1.694q.001-.077-.102-.078h-1.547a3 3 0 0 1-.015-.316c0-.305.07-.535.214-.699q.216-.246.614-.246c.136 0 .269.039.406.109.133.07.242.164.328.273l.012.008q.029 0 .047-.035a.1.1 0 0 0 .027-.07q.002-.06-.18-.25a1.4 1.4 0 0 0-.394-.285 1.141 1.141 0 0 0-1.301.273q-.344.374-.344.918-.001.551.336.937c.231.254.516.383.867.383q.436 0 .735-.289.298-.28.297-.633m-.512.25a.47.47 0 0 1-.148.352.5.5 0 0 1-.372.141.49.49 0 0 1-.378-.184.97.97 0 0 1-.215-.48l.785.023a.8.8 0 0 1 .25.035q.077.031.078.113M146.773 1.097c0-.293 0-.492-.003-.68q.001-.105-.125-.105h-.219c-.051 0-.063-.012-.063-.051V.163c0-.043.012-.055.032-.055.035 0 .273.016.621.016.308 0 .566-.016.601-.016.024 0 .028.016.028.051v.102c0 .031-.004.051-.04.051h-.265c-.117 0-.16.054-.16.23V1.73a.6.6 0 0 0 .058.179c.094.18.242.239.332.239a.35.35 0 0 0 .188-.047c.047-.02.101-.043.164-.043.101 0 .238.113.238.277 0 .129-.098.246-.289.246-.242 0-.508-.23-.68-.492h-.019l-.031.391c0 .035-.004.07-.039.07a.2.2 0 0 1-.079-.024l-.558-.289c-.035-.015-.047-.027-.047-.05v-.036c0-.019.012-.027.047-.039l.105-.054c.16-.086.203-.141.203-.43z" style="fill:#000;fill-opacity:1;fill-rule:nonzero;stroke:none" transform="matrix(1.25 0 0 -1.25 0 103.397)"/>
</svg>
