<svg xmlns="http://www.w3.org/2000/svg" xml:space="preserve" viewBox="0 0 601.012 600.998" role="img" aria-labelledby="title">
  <title id="title">Verkehrszeichen 350.2 - Radschnellweg (Ende)</title>
  <path d="M420.375 450.385H30.383c-16.578 0-30.004-13.422-30.004-29.992V30.374C.379 13.803 13.805.362 30.383.362h389.992c16.57 0 30.004 13.441 30.004 30.012v390.019c0 16.57-13.434 29.992-30.004 29.992" style="fill:#fff;fill-opacity:1;fill-rule:nonzero;stroke:none" transform="matrix(1.33333 0 0 -1.33333 0 600.998)"/>
  <path d="M30.383 450.76C13.605 450.76 0 437.167 0 420.393V30.366C0 13.596 13.605.002 30.383.002h389.988c16.77 0 30.387 13.59 30.387 30.364v390.027c0 16.774-13.617 30.367-30.387 30.367zm0-.375h389.992c16.57 0 30.004-13.422 30.004-29.992V30.374c0-16.571-13.434-30.012-30.004-30.012H30.383C13.805.362.379 13.803.379 30.374v390.019c0 16.57 13.426 29.992 30.004 29.992" style="fill:#000;fill-opacity:1;fill-rule:nonzero;stroke:none" transform="matrix(1.33333 0 0 -1.33333 0 600.998)"/>
  <path d="M30.383 442.893c-12.426 0-22.508-10.082-22.508-22.5V30.374c0-12.43 10.082-22.504 22.508-22.504h390.004c12.418 0 22.5 10.074 22.5 22.504v390.019c0 12.418-10.082 22.5-22.5 22.5zm0-11.25h390.004c6.203 0 11.238-5.035 11.238-11.25V30.374c0-6.215-5.035-11.25-11.238-11.25H30.383c-6.215 0-11.258 5.035-11.258 11.25v390.019c0 6.215 5.043 11.25 11.258 11.25" style="fill:#000;fill-opacity:1;fill-rule:nonzero;stroke:none" transform="matrix(1.33333 0 0 -1.33333 0 600.998)"/>
  <path d="M60.375 394.131a3.75 3.75 0 0 1-3.75-3.75V60.377c0-2.074 1.68-3.75 3.75-3.75h330.008c2.07 0 3.75 1.676 3.75 3.75v330.004a3.75 3.75 0 0 1-3.75 3.75zm144.754-30.75h16.5l-2.25-70.5h-35.25zm24 0h16.5l21-70.5h-35.25zm-34.5-83.101 13.875-.012v-8.437l-13.875.011a8.45 8.45 0 0 1-8.063-5.941l-3.375-10.945h75.368l3.164 8.437-17.856 4.27a2.1 2.1 0 0 0 .488 4.144l35.872.024v-8.438h-9.493l-3.164-8.437 12.235-27.379a42.2 42.2 0 0 0 13.074 2.078c23.301 0 42.187-18.891 42.187-42.188 0-23.3-18.886-42.187-42.187-42.187-20.047 0-37.324 14.105-41.336 33.75h-17.727a8.42 8.42 0 0 0-6.265 2.789l-49.875 55.316-3.356-10.816a42.19 42.19 0 0 0 25.746-38.852c0-23.3-18.89-42.187-42.187-42.187-23.301 0-42.191 18.887-42.191 42.187 0 23.297 18.89 42.188 42.191 42.188 2.812 0 5.621-.281 8.383-.844l12.246 39.586a16.87 16.87 0 0 0 16.121 11.883m-14.047-33.762 52.832-58.613 21.981 58.613zm82.77-2.809-21.094-56.253 8.433.011a42.19 42.19 0 0 0 21.391 36.703zm-105.473-22.492c-18.641 0-33.75-15.113-33.75-33.75 0-18.64 15.109-33.75 33.75-33.75s33.75 15.11 33.75 33.75c0 13.246-7.75 25.27-19.82 30.739l-9.883-31.993a4.237 4.237 0 0 0-8.098 2.504l9.926 31.973-.004.012a33.7 33.7 0 0 1-5.871.515m135 0c-3.25 0-6.488-.472-9.609-1.398l15.546-34.879a4.198 4.198 0 0 0-3.836-5.91l-34.777-.012c3.852-14.898 17.293-25.301 32.676-25.301 18.641 0 33.75 15.11 33.75 33.75 0 18.637-15.109 33.75-33.75 33.75m-17.332-4.793a33.74 33.74 0 0 1-16.418-28.957l.004-.004v-.007h29.351zm-142.418-84.797h81.75l-3-44.25h-93.75zm102.75 0h81.75l15-44.25h-93.75z" style="fill:#8a8a8a;fill-opacity:1;fill-rule:nonzero;stroke:none" transform="matrix(1.33333 0 0 -1.33333 0 600.998)"/>
  <path d="M392.652 431.631 19.125 58.104v11.137l362.391 362.39zM414.926 431.631 19.125 35.831v11.136l384.664 384.664zM430.621 425.053 25.703 20.143a11.25 11.25 0 0 0-5.562 5.559l404.914 404.914a11.24 11.24 0 0 0 5.562-5.563M431.633 403.792 46.969 19.124H35.832l395.801 395.804zM431.633 381.514 69.242 19.124H58.105l373.528 373.531z" style="fill:#000;fill-opacity:1;fill-rule:nonzero;stroke:none" transform="matrix(1.33333 0 0 -1.33333 0 600.998)"/>
</svg>
