<svg xmlns="http://www.w3.org/2000/svg" viewBox="0 0 601.6 330.6" role="img" aria-labelledby="title">
  <title id="title">Verkehrszeichen &quot;Geh- und Radwegschäden&quot; - Geh- und Radwegschäden</title>
  <title>Verkehrszeichen - Geh- und Radwegschäden</title>
  <path d="M40.1.5C18.2.5.5 18.2.5 39.9v251c0 21.7 17.7 39.4 39.6 39.4h521.5c21.8 0 39.6-17.7 39.6-39.4v-251c0-21.7-17.7-39.4-39.6-39.4z" style="fill:#fff"/>
  <path d="M40.1 306h521.5c8.3 0 15-6.7 15-14.9V39.8c0-8.2-6.7-14.9-15-14.9H40.1c-8.3 0-15 6.7-15 14.9v251.3c0 8.2 6.7 14.9 15 14.9m.7 14.2c-16.5 0-29.9-13.3-29.9-29.8V40.5c0-16.5 13.4-29.8 29.9-29.8H561c16.5 0 29.9 13.3 29.9 29.8v249.9c0 16.5-13.4 29.8-29.9 29.8"/>
  <path d="M40.1 0C18 0 0 17.9 0 39.9v250.7c0 22 18 39.9 40.1 39.9h521.5c22.1 0 40.1-17.9 40.1-39.9V39.9c-.1-22-18-39.9-40.1-39.9zm0 .5h521.5c21.8 0 39.6 17.7 39.6 39.4v250.7c0 21.7-17.7 39.4-39.6 39.4H40.1C18.3 330 .5 312.3.5 290.6V39.9C.5 18.2 18.2.5 40.1.5"/>
  <path d="M81.4 125.9c-1.5 2.5-3.6 4.5-6.1 5.9s-5.3 2.1-8.3 2.1-5.2-.6-7.7-1.9-4.4-2.8-5.7-4.7c-1.4-1.9-2.3-3.7-2.7-5.6-.5-1.9-.7-4-.7-6.4V80.2c0-1.9.2-3.6.6-5.2s1.7-4.1 3.8-7.5c2.2-3.4 6.4-5.1 12.7-5.1s5.4.7 7.9 2c2.4 1.3 4.3 2.9 5.6 4.8s2.1 3.7 2.5 5.3c.4 1.7.6 3.4.6 5.4v2.9h-10v-2.9c0-1.2 0-2.1-.2-2.7-.1-.6-.6-1.6-1.6-2.9-.9-1.3-2.6-1.9-4.9-1.9s-4.5.7-5.3 2.2c-.9 1.4-1.4 2.5-1.5 3.2s-.2 1.5-.2 2.4v35.1c0 1.3 0 2.3.2 3 .1.7.6 1.7 1.6 3.2.9 1.5 2.7 2.2 5.2 2.2s4.5-.7 5.2-2.2 1.2-2.6 1.3-3.3.2-1.7.2-2.9V103h-8v-8.7h18v20.9c0 2.9-.2 5-.5 6.3-.4 1.3-1 2.7-1.9 4.1ZM109.8 123.6c1.5 0 2.7-.5 3.6-1.4s1.5-2.1 1.7-3.6h10v1.2c0 1.5-.3 3.1-1 4.6s-2 3.5-4.1 5.8-5.4 3.5-9.9 3.5-5.5-.8-7.9-2.3-4.1-3.2-5-5.1-1.5-3.5-1.7-5-.4-3-.4-4.5v-19q0-6.15 4.5-10.8c3-3 6.5-4.6 10.7-4.6s7.8 1.5 10.7 4.5c2.8 3 4.3 6.6 4.3 10.9v13.9h-20.1v7.5q0 1.5 1.5 3c1 .9 2.1 1.4 3.2 1.4Zm.2-31c-1.4 0-2.5.5-3.5 1.4q-1.5 1.35-1.5 4.8v4.9h10.1v-4.9c0-1.8-.4-3.3-1.2-4.4s-2.1-1.7-3.9-1.7ZM155.9 82.9c1.8 0 3.6.5 5.2 1.5s2.8 2.1 3.5 3.4 1.1 2.4 1.3 3.3q.3 1.35.3 3.6v38.7h-10V98.6c0-1.7-.4-3-1.2-4.1-.8-1-2-1.6-3.8-1.6s-2.7.6-3.7 1.7-1.4 2.4-1.4 3.8v34.9h-10V63.1h10v25.4c2.3-3.7 5.6-5.5 9.8-5.5ZM179.1 110.6v-10H209v10zM263.7 133.3v-5c-1.2 1.8-2.5 3.2-4 4.1-1.4 1-3.2 1.4-5.2 1.4s-4-.6-5.8-1.7-3-2.4-3.7-3.8-1.1-2.6-1.2-3.5-.2-2.2-.2-4V83.2h10v36.3c0 .8.4 1.7 1.2 2.8s2.1 1.6 3.9 1.6 1.8-.2 2.6-.7 1.3-1.1 1.7-1.7c.3-.7.5-1.4.6-2.2 0-.8.1-1.5.1-2.1V83.3h10v50.1h-10ZM314.1 87.7c.6.8.9 1.9 1.2 3.1q.3 1.8.3 3.6v38.9h-10V98.1c0-3.7-1.7-5.5-5-5.5s-2.7.6-3.6 1.7-1.4 2.4-1.4 3.9v35.2h-10V83.3h10v4.9c2.3-3.7 5.4-5.5 9.4-5.5s7.1 1.7 9.2 5.2ZM347.4 133.3v-5.2c-1 1.7-2.3 3.1-3.9 4.1-1.6 1.1-3.4 1.6-5.4 1.6-4.6 0-7.5-1.2-8.7-3.7s-1.8-4.2-2-5.3c-.1-1.1-.2-2.5-.2-4.3V93.7c0-3 1-5.5 3.1-7.6s4.6-3.1 7.7-3.1 3.7.5 5.3 1.5c1.7 1 3 2.3 4 3.9V63.2h10v70.2h-10Zm-.7-38.6c-1-1.4-2.5-2.1-4.4-2.1s-1.9.3-2.7.8-1.4 1.1-1.7 1.9c-.3.7-.4 1.5-.5 2.3s0 1.4 0 1.8v19.9c0 .7.4 1.6 1 2.7s2 1.7 4 1.7 3.4-.6 4.1-1.9c.6-1.2 1-2.5 1-3.7V96.5c0-.6-.3-1.2-.7-1.8ZM391.8 133.3V63.1h17.5q6.9 0 11.7 4.8c4.8 4.8 4.7 7.2 4.7 11.8v6.5c0 6.5-2.7 11.4-8.2 14.8l10.6 32.2h-10.6l-9.5-30.1h-6.3v30.1h-10Zm22.3-41.2c.6-.8 1.1-1.7 1.3-2.6.2-1 .4-2.1.4-3.3v-6.5c0-2.2-.6-3.9-1.8-5.3-1.2-1.3-2.9-2-5-2h-7.1v21.9h7c2.1 0 3.8-.7 5.2-2.2M437.6 128c-.5-.8-.8-1.8-1-2.8-.1-1-.2-2.1-.2-3.4v-5.7c0-3.7.9-6.5 2.8-8.3s3.6-3.1 5.1-3.7c1.5-.7 3.3-1 5.4-1h6.8v-4.3c0-1 0-1.8-.2-2.4-.1-.6-.5-1.4-1.3-2.4s-1.8-1.5-3.2-1.5-2.6.4-3.6 1.3-1.6 2.1-1.8 3.5h-10c0-4.1 1.5-7.5 4.4-10.4s6.4-4.4 10.6-4.4 7.6 1.4 10.6 4.3q4.5 4.35 4.5 10.5v35.9h-10v-5c-1.1 1.7-2.4 3.1-4 4.1s-3.4 1.5-5.3 1.5c-4.4 0-7.6-2-9.6-5.9Zm8.8-11.9v2.5c0 1.3.5 2.5 1.4 3.6 1 1.1 2.2 1.6 3.8 1.6s1.7-.2 2.4-.6c.8-.4 1.3-1 1.7-1.7s.6-1.7.6-2.8v-7.3h-3.9c-1.9 0-3.4.4-4.5 1-1.1.7-1.7 1.9-1.7 3.7ZM498.1 133.3v-5.2c-1 1.7-2.3 3.1-3.9 4.1-1.6 1.1-3.4 1.6-5.4 1.6-4.6 0-7.5-1.2-8.7-3.7s-1.8-4.2-2-5.3c-.1-1.1-.2-2.5-.2-4.3V93.7c0-3 1-5.5 3.1-7.6s4.6-3.1 7.7-3.1 3.7.5 5.3 1.5c1.7 1 3 2.3 4 3.9V63.2h10v70.2h-10Zm-.8-38.6c-1-1.4-2.5-2.1-4.4-2.1s-1.9.3-2.7.8-1.4 1.1-1.7 1.9c-.3.7-.4 1.5-.5 2.3s0 1.4 0 1.8v19.9c0 .7.4 1.6 1 2.7s2 1.7 4 1.7 3.4-.6 4.1-1.9c.6-1.2 1-2.5 1-3.7V96.5c0-.6-.3-1.2-.7-1.8ZM520.9 110.6v-10h29.9v10zM124 253.3l-5.7-30.1-5.7 30.1h-8.7l-12-50.1h10.6l6.3 31.1 5.7-31.1h7.4l5.8 31.1 6.2-31.1h10.6l-11.9 50.1zM166.1 243.6c1.5 0 2.7-.5 3.6-1.4s1.5-2.1 1.7-3.6h10v1.2c0 1.5-.3 3.1-1 4.6s-2 3.5-4.1 5.8-5.4 3.5-9.9 3.5-5.5-.8-7.9-2.3-4.1-3.2-5-5.1-1.5-3.5-1.7-5-.4-3-.4-4.5v-19q0-6.15 4.5-10.8c3-3 6.5-4.6 10.7-4.6s7.8 1.5 10.7 4.5c2.8 3 4.3 6.6 4.3 10.9v13.9h-20.1v7.5q0 1.5 1.5 3c1 .9 2.1 1.4 3.2 1.4Zm.3-31c-1.4 0-2.5.5-3.5 1.4q-1.5 1.35-1.5 4.8v4.9h10.1v-4.9c0-1.8-.4-3.3-1.2-4.4s-2.1-1.7-3.9-1.7ZM219.4 267c-1.4 2.1-3.2 3.8-5.4 5q-3.3 1.8-6.9 1.8c-4.3 0-7.9-1.5-11-4.4-3-2.9-4.6-6.5-4.6-10.9h10c0 1.4.5 2.6 1.4 3.6q1.35 1.5 3.6 1.5c2.1 0 3.7-.9 4.7-2.8.3-.7.4-1.8.4-3.4v-9.3c-1 1.7-2.3 3.1-4 4.1-1.7 1.1-3.5 1.6-5.4 1.6s-3.9-.5-5.6-1.6-3-2.3-3.7-3.7-1.2-2.5-1.3-3.4-.2-2.1-.2-3.9v-27.7c0-1.3.2-2.4.5-3.5.3-1 1.2-2.6 2.6-4.6s4-3 7.5-3 3.7.5 5.3 1.4 3 2.3 4.2 3.9v-4.6h10v54.2c0 2-.2 3.7-.5 5.2s-.9 3-1.8 4.4Zm-8.6-52.3c-1.1-1.6-2.5-2.5-4.2-2.5s-3.3.6-3.9 1.7c-.6 1.2-.9 2-1 2.6 0 .6-.1 1.2-.1 1.8v19c0 1 0 1.8.2 2.4q.15.9 1.2 2.4t3.9 1.5c2.85 0 3.6-.6 4.1-1.8s.8-2.2.8-2.8 0-1.1.1-1.6v-18.2c0-.9 0-1.7-.2-2.4-.1-.7-.4-1.4-.8-2.1ZM246.5 244.4c1.5 0 2.9-.5 4-1.5s1.7-2.2 1.7-3.8-.5-3.2-1.4-4q-1.35-1.35-4.5-2.4l-2-.7c-2.1-.8-3.9-1.5-5.2-2.3-1.4-.7-2.9-2.1-4.5-4s-2.4-4.7-2.4-8.3 1.4-7.6 4.3-10.5 6.4-4.3 10.6-4.3 7.1 1.5 9.8 4.4 4 6.3 4 10h-9.2c0-1.5-.5-2.7-1.4-3.6s-2.2-1.4-3.7-1.4-2.6.5-3.5 1.6-1.4 2.3-1.4 3.8.5 2.7 1.4 3.6c.9.8 2.2 1.6 4 2.2l3.3 1c1.9.7 3.4 1.4 4.5 2s2.2 1.6 3.3 2.8c1.1 1.3 2 2.7 2.7 4.4s1 3.5 1 5.4c0 4.1-1.5 7.6-4.4 10.7-2.9 3-6.4 4.6-10.4 4.6s-4.9-.7-7.4-2-4.4-3.1-5.8-5.4-2-4.8-2-7.7h9.3c0 1.5.5 2.9 1.6 3.9 1.1 1.1 2.4 1.6 3.9 1.6ZM300.7 238.8c0 4.1-1.5 7.7-4.5 10.6s-6.6 4.4-10.7 4.4-4.5-.6-6.7-1.7-3.9-2.5-5-4.1-1.9-3.3-2.4-4.9c-.5-1.7-.7-3.4-.7-5.1v-19.5c0-4.1 1.4-7.8 4.3-11 2.8-3.2 6.4-4.8 10.6-4.8s7.9 1.5 10.8 4.6 4.3 6.8 4.3 11.1h-10c0-1.5-.4-2.9-1.3-4s-2.1-1.8-3.7-1.8-1.7.2-2.4.6q-1.05.6-1.8 1.8c-.5.8-.8 2-.8 3.5V238c0 1.8.4 3.3 1.2 4.3s2.1 1.6 3.9 1.6 2.7-.6 3.6-1.7 1.3-2.4 1.3-4h10zM330.5 202.9c1.8 0 3.6.5 5.2 1.5s2.8 2.1 3.5 3.4 1.1 2.4 1.3 3.3q.3 1.35.3 3.6v38.7h-10v-34.8c0-1.7-.4-3-1.2-4.1-.8-1-2-1.6-3.8-1.6s-2.7.6-3.7 1.7-1.4 2.4-1.4 3.8v34.9h-10v-70.2h10v25.4c2.3-3.7 5.6-5.5 9.8-5.5ZM353.1 248c-.5-.8-.8-1.8-1-2.8-.1-1-.2-2.1-.2-3.4v-5.7c0-3.7.9-6.5 2.8-8.3s3.6-3.1 5.1-3.7c1.5-.7 3.3-1 5.4-1h6.8v-4.3c0-1 0-1.8-.2-2.4-.1-.6-.5-1.4-1.3-2.4s-1.8-1.5-3.2-1.5-2.6.4-3.6 1.3-1.6 2.1-1.8 3.5h-10c0-4.1 1.5-7.5 4.4-10.4s6.4-4.4 10.6-4.4 7.6 1.4 10.6 4.3q4.5 4.35 4.5 10.5v35.9h-10v-5c-1.1 1.7-2.4 3.1-4 4.1s-3.4 1.5-5.3 1.5c-4.4 0-7.6-2-9.6-5.9Zm.7-54v-11.8h8.7V194zm8.1 42.1v2.5c0 1.3.5 2.5 1.4 3.6 1 1.1 2.2 1.6 3.8 1.6s1.7-.2 2.4-.6c.8-.4 1.3-1 1.7-1.7s.6-1.7.6-2.8v-7.3h-3.9c-1.9 0-3.4.4-4.5 1-1.1.7-1.7 1.9-1.7 3.7Zm10.8-42.1v-11.8h8.7V194zM413.6 253.3v-5.2c-1 1.7-2.3 3.1-3.9 4.1-1.6 1.1-3.4 1.6-5.4 1.6-4.6 0-7.5-1.2-8.7-3.7s-1.8-4.2-2-5.3c-.1-1.1-.2-2.5-.2-4.3v-26.8c0-3 1-5.5 3.1-7.6s4.6-3.1 7.7-3.1 3.7.5 5.3 1.5c1.7 1 3 2.3 4 3.9v-25.2h10v70.2h-10Zm-.8-38.6c-1-1.4-2.5-2.1-4.4-2.1s-1.9.3-2.7.8-1.4 1.1-1.7 1.9c-.3.7-.4 1.5-.5 2.3v21.7c0 .7.4 1.6 1 2.7s2 1.7 4 1.7 3.4-.6 4.1-1.9c.6-1.2 1-2.5 1-3.7v-21.6c0-.6-.3-1.2-.7-1.8ZM449.3 243.6c1.5 0 2.7-.5 3.6-1.4s1.5-2.1 1.7-3.6h10v1.2c0 1.5-.3 3.1-1 4.6s-2 3.5-4.1 5.8-5.4 3.5-9.9 3.5-5.5-.8-7.9-2.3-4.1-3.2-5-5.1-1.5-3.5-1.7-5-.4-3-.4-4.5v-19q0-6.15 4.5-10.8c3-3 6.5-4.6 10.7-4.6s7.8 1.5 10.7 4.5c2.8 3 4.3 6.6 4.3 10.9v13.9h-20.1v7.5q0 1.5 1.5 3c1 .9 2.1 1.4 3.2 1.4Zm.3-31c-1.4 0-2.5.5-3.5 1.4q-1.5 1.35-1.5 4.8v4.9h10.1v-4.9c0-1.8-.4-3.3-1.2-4.4s-2.1-1.7-3.9-1.7ZM504.1 207.7c.6.8 1 1.9 1.2 3.1q.3 1.8.3 3.6v38.9h-10v-35.2c0-3.7-1.7-5.5-5-5.5s-2.7.6-3.6 1.7-1.4 2.4-1.4 3.9v35.2h-10v-50.1h10v4.9c2.3-3.7 5.4-5.5 9.4-5.5s7.1 1.7 9.2 5.2Z"/>
</svg>
