<svg xmlns="http://www.w3.org/2000/svg" viewBox="0 0 601.6 330.6" role="img" aria-labelledby="title">
  <title id="title">Verkehrszeichen Kein Winterdienst - Kein Winterdienst</title>
  <path d="M40.1.5C18.2.5.5 18.2.5 39.9v251c0 21.7 17.7 39.4 39.6 39.4h521.5c21.8 0 39.6-17.7 39.6-39.4v-251c0-21.7-17.7-39.4-39.6-39.4z" style="fill:#fff"/>
  <path d="M40.1 306h521.5c8.3 0 15-6.7 15-14.9V39.8c0-8.2-6.7-14.9-15-14.9H40.1c-8.3 0-15 6.7-15 14.9v251.3c0 8.2 6.7 14.9 15 14.9m.7 14.2c-16.5 0-29.9-13.3-29.9-29.8V40.5c0-16.5 13.4-29.8 29.9-29.8H561c16.5 0 29.9 13.3 29.9 29.8v249.9c0 16.5-13.4 29.8-29.9 29.8"/>
  <path d="M40.1 0C18 0 0 17.9 0 39.9v250.7c0 22 18 39.9 40.1 39.9h521.5c22.1 0 40.1-17.9 40.1-39.9V39.9c-.1-22-18-39.9-40.1-39.9zm0 .5h521.5c21.8 0 39.6 17.7 39.6 39.4v250.7c0 21.7-17.7 39.4-39.6 39.4H40.1C18.3 330 .5 312.3.5 290.6V39.9C.5 18.2 18.2.5 40.1.5"/>
  <path d="M252.8 143.3 240 108l-6.3 11.7v23.6h-11.4V63.1h11.4V99l17-35.9h11.4l-15.6 32 18.4 48.3h-12.1ZM291.2 132.3c1.7 0 3.1-.5 4.1-1.6 1-1 1.7-2.4 1.9-4.1h11.4v1.3c0 1.8-.4 3.5-1.1 5.3-.8 1.8-2.3 4-4.7 6.7s-6.2 4-11.3 4-6.3-.9-9.1-2.6c-2.8-1.8-4.7-3.7-5.7-5.8s-1.7-4-2-5.8c-.3-1.7-.4-3.4-.4-5.1v-21.7q0-7.05 5.1-12.3c3.4-3.5 7.5-5.2 12.2-5.2s8.9 1.7 12.2 5.1c3.2 3.4 4.9 7.5 4.9 12.4v15.8h-22.9v8.5c0 1.2.6 2.3 1.8 3.4s2.4 1.6 3.7 1.6Zm.3-35.5c-1.6 0-2.9.5-4 1.5s-1.7 2.9-1.7 5.5v5.6h11.5v-5.6c0-2.1-.5-3.7-1.3-5.1-.9-1.3-2.4-2-4.4-2ZM321.2 74.5V63.1h11.4v11.4zm0 68.8V85.7h11.4v57.6zM378.9 91.3c.6 1 1.1 2.1 1.3 3.5s.4 2.7.4 4.1v44.5h-11.4v-40.3c0-4.2-1.9-6.3-5.8-6.3s-3.1.6-4.2 1.9-1.6 2.7-1.6 4.4v40.3h-11.4V86.2h11.4v5.6c2.6-4.2 6.2-6.3 10.7-6.3s8.2 2 10.5 5.9ZM95.1 263.3l-9.4-48.5-9.2 48.5H65.9L54.3 183h12.2l5.6 48.7 9.2-48.7h8.5l9.4 48.7L105 183h12.1l-11.3 80.3H95ZM126.6 194.5v-11.4H138v11.4zm0 68.8v-57.6H138v57.6zM184.3 211.3c.6 1 1.1 2.1 1.3 3.5s.4 2.7.4 4.1v44.5h-11.4v-40.3c0-4.2-1.9-6.3-5.8-6.3s-3.1.6-4.2 1.9-1.6 2.7-1.6 4.4v40.3h-11.4v-57.2H163v5.6c2.6-4.2 6.2-6.3 10.7-6.3s8.2 2 10.5 5.9ZM216.8 252.4h2.6v10.9h-3.6c-2.1 0-4.1-.2-5.7-.7-1.7-.4-3.3-1.3-4.9-2.7q-2.4-2.1-3.3-4.5c-.9-2.4-1-3.7-1-6.1V215h-5.6v-9h5.6v-17.3h11.4V206h7.1v9h-7.1v32.3c0 1.9.3 3.3.8 4s1.7 1.1 3.7 1.1M247.6 252.3c1.7 0 3.1-.5 4.1-1.6 1-1 1.7-2.4 1.9-4.1H265v1.3c0 1.8-.4 3.5-1.1 5.3-.8 1.8-2.3 4-4.7 6.7s-6.2 4-11.3 4-6.3-.9-9.1-2.6c-2.8-1.8-4.7-3.7-5.7-5.8s-1.7-4-2-5.8c-.3-1.7-.4-3.4-.4-5.1v-21.7q0-7.05 5.1-12.3c3.4-3.5 7.5-5.2 12.2-5.2s8.9 1.7 12.2 5.1c3.2 3.4 4.9 7.5 4.9 12.4v15.8h-22.9v8.5c0 1.2.6 2.3 1.8 3.4s2.4 1.6 3.7 1.6Zm.3-35.5c-1.6 0-2.9.5-4 1.5s-1.7 2.9-1.7 5.5v5.6h11.5v-5.6c0-2.1-.5-3.7-1.3-5.1-.9-1.3-2.4-2-4.4-2ZM303.9 205.4v11.8c-.6-.1-1.1-.2-1.7-.3h-1.6c-3.8 0-6.6 1.3-8.6 3.8s-3 5.6-3 9.2v33.5h-11.4v-57.2H289v6.2c2-2.5 4.5-4.3 7.4-5.3 2.9-1.1 5.4-1.6 7.5-1.6ZM337.4 263.3v-6c-1.1 1.9-2.6 3.5-4.5 4.7s-3.9 1.9-6.2 1.9q-7.8 0-9.9-4.2c-1.4-2.8-2.1-4.8-2.2-6.1-.1-1.2-.2-2.9-.2-4.9V218c0-3.4 1.2-6.3 3.5-8.7s5.3-3.6 8.8-3.6 4.2.6 6.1 1.7 3.4 2.6 4.5 4.4V183h11.4v80.3h-11.4Zm-.8-44.1c-1.1-1.6-2.8-2.3-5-2.3s-2.2.3-3.1.9-1.6 1.3-1.9 2.1-.5 1.7-.6 2.6v24.8c0 .8.4 1.8 1.2 3.1.7 1.3 2.2 1.9 4.5 1.9s3.9-.7 4.7-2.1c.7-1.4 1.1-2.8 1.1-4.2v-24.7c0-.7-.3-1.4-.8-2ZM362.4 194.5v-11.4h11.4v11.4zm0 68.8v-57.6h11.4v57.6zM403.5 252.3c1.7 0 3.1-.5 4.1-1.6 1-1 1.7-2.4 1.9-4.1h11.4v1.3c0 1.8-.4 3.5-1.1 5.3-.8 1.8-2.3 4-4.7 6.7s-6.2 4-11.3 4-6.3-.9-9.1-2.6c-2.8-1.8-4.7-3.7-5.7-5.8s-1.7-4-2-5.8c-.3-1.7-.4-3.4-.4-5.1v-21.7q0-7.05 5.1-12.3c3.4-3.5 7.5-5.2 12.2-5.2s8.9 1.7 12.2 5.1c3.2 3.4 4.9 7.5 4.9 12.4v15.8h-22.9v8.5c0 1.2.6 2.3 1.8 3.4s2.4 1.6 3.7 1.6Zm.3-35.5c-1.6 0-2.9.5-4 1.5s-1.7 2.9-1.7 5.5v5.6h11.5v-5.6c0-2.1-.5-3.7-1.3-5.1-.9-1.3-2.4-2-4.4-2ZM466 211.3c.6 1 1.1 2.1 1.3 3.5s.4 2.7.4 4.1v44.5h-11.4v-40.3c0-4.2-1.9-6.3-5.8-6.3s-3.1.6-4.2 1.9-1.6 2.7-1.6 4.4v40.3h-11.4v-57.2h11.4v5.6c2.6-4.2 6.2-6.3 10.7-6.3s8.2 2 10.5 5.9ZM496.2 253.1c1.8 0 3.3-.6 4.6-1.7s1.9-2.6 1.9-4.3-.5-3.6-1.6-4.6q-1.65-1.5-5.1-2.7l-2.3-.8c-2.4-.9-4.4-1.7-6-2.6-1.6-.8-3.3-2.4-5.2-4.6-1.8-2.2-2.8-5.4-2.8-9.5s1.6-8.7 4.9-12 7.3-4.9 12.1-4.9 8.1 1.7 11.2 5c3 3.4 4.6 7.2 4.6 11.4h-10.6c0-1.7-.5-3.1-1.6-4.1s-2.5-1.6-4.3-1.6-2.9.6-4 1.8c-1 1.2-1.6 2.6-1.6 4.3s.5 3.1 1.6 4.1c1 1 2.6 1.8 4.6 2.5l3.7 1.2c2.2.8 3.9 1.6 5.1 2.3s2.5 1.8 3.7 3.2 2.3 3.1 3.1 5 1.2 4 1.2 6.1c0 4.6-1.7 8.7-5 12.2s-7.3 5.2-11.9 5.2-5.6-.8-8.5-2.3c-2.8-1.5-5-3.6-6.6-6.2s-2.3-5.5-2.3-8.8h10.7c0 1.8.6 3.3 1.9 4.5 1.2 1.2 2.7 1.9 4.5 1.9M541.8 252.4h2.6v10.9h-3.6c-2.1 0-4.1-.2-5.7-.7-1.7-.4-3.3-1.3-4.9-2.7q-2.4-2.1-3.3-4.5c-.9-2.4-1-3.7-1-6.1V215h-5.6v-9h5.6v-17.3h11.4V206h7.1v9h-7.1v32.3c0 1.9.3 3.3.8 4s1.7 1.1 3.7 1.1"/>
</svg>
