<svg xmlns="http://www.w3.org/2000/svg" version="1.1" viewBox="0 0 601.6 330.6">
  <title id="title">Verkehrszeichen - Kein Winterdienst</title>
    <path d="M40.1.5C18.2.5.5,18.2.5,39.9v251c0,21.7,17.7,39.4,39.6,39.4h521.5c21.8,0,39.6-17.7,39.6-39.4V39.9c0-21.7-17.7-39.4-39.6-39.4H40.1Z" style="fill: #fff;"/>
    <path d="M40.1,306h521.5c8.3,0,15-6.7,15-14.9V39.8c0-8.2-6.7-14.9-15-14.9H40.1c-8.3,0-15,6.7-15,14.9v251.3c0,8.2,6.7,14.9,15,14.9M40.8,320.2c-16.5,0-29.9-13.3-29.9-29.8V40.5c0-16.5,13.4-29.8,29.9-29.8h520.2c16.5,0,29.9,13.3,29.9,29.8v249.9c0,16.5-13.4,29.8-29.9,29.8"/>
    <path d="M40.1,0C18,0,0,17.9,0,39.9v250.7c0,22,18,39.9,40.1,39.9h521.5c22.1,0,40.1-17.9,40.1-39.9V39.9C601.6,17.9,583.7,0,561.6,0H40.1ZM40.1.5h521.5c21.8,0,39.6,17.7,39.6,39.4v250.7c0,21.7-17.7,39.4-39.6,39.4H40.1c-21.8,0-39.6-17.7-39.6-39.4V39.9C.5,18.2,18.2.5,40.1.5"/>
    <path d="M484.3,147.4v-60.2h12v6.8c7-8.7,19.8-10.1,28.5-3t0,0l-8.6,10.6c-5-4.4-12.6-4-17,1-2,2.2-3,5-3,8v36.9h-12ZM430.2,111.3h25.6c0-7.1-5.7-12.8-12.8-12.8-7.1,0-12.8,5.7-12.8,12.8h0M467.8,121.8h-37.6v1.5c0,5.2,3.2,9.9,8,11.9,6.7,2.7,14.3.8,19-4.7l9.1,7.8c-8,9.4-21.2,12.6-32.6,8-9.4-3.8-15.6-12.9-15.6-23v-12c0-13.7,11.1-24.8,24.8-24.8s24.8,11.1,24.8,24.8v10.5ZM389.6,124.1v-13.5c0-6.7-5.4-12-12-12s-12,5.4-12,12v13.5c0,6.7,5.4,12,12,12s12-5.4,12-12M401.6,87.2v60.9c0,9.1-5.1,17.5-13.3,21.5-11.5,5.7-25.4,2.7-33.5-7.2l9.3-7.6c4.6,5.6,12.4,7.3,18.8,4.1,4.1-2,6.6-6.2,6.7-10.8v-7.5c-7,8.7-19.8,10.1-28.6,3-4.8-3.9-7.5-9.7-7.5-15.8v-21.1c0-11.2,9.1-20.3,20.3-20.3s11.9,2.8,15.8,7.5v-6.8h12ZM300.8,111.3h25.6c0-7.1-5.7-12.8-12.8-12.8s-12.8,5.7-12.8,12.8M338.4,121.8h-37.6v1.5c0,5.2,3.2,9.9,8,11.9,6.7,2.7,14.3.8,19-4.7l9.1,7.8c-8,9.4-21.2,12.6-32.6,8-9.4-3.8-15.6-12.9-15.6-23v-12c0-13.7,11.1-24.8,24.8-24.8s24.8,11.1,24.8,24.8v10.5ZM272.2,75.2h-12v-12h12v12ZM272.2,147.4h-12v-60.2h12v60.2ZM245.2,147.4h-7.5c-7.5,0-13.5-6.1-13.5-13.5V63.2h12v69.2c0,2.1,1.7,3.8,3.8,3.8h5.3v11.3ZM159.4,147.4v-60.2h12v6.8c7.1-8.7,19.8-10.1,28.6-3,4.8,3.9,7.5,9.7,7.5,15.8v40.6h-12v-36.9c0-6.6-5.4-12-12-12h0c-6.7,0-12,5.4-12,12v36.9h-12ZM100.4,117.3h24.8l-12.4-36.9-12.4,36.9ZM76.7,147.4l30.8-84.2h10.5l30.8,84.2h-13.5l-6.3-18.8h-32.5l-6.3,18.8M385,195.5h-12v-12h12v12ZM385,267.7h-12v-60.2h12v60.2ZM318.9,231.6h25.6c0-7.1-5.7-12.8-12.8-12.8-7.1,0-12.8,5.7-12.8,12.8h0M356.5,242.2h-37.6v1.5c0,5.2,3.2,9.9,8,11.9,6.7,2.7,14.3.8,19-4.7l9.1,7.8c-8,9.4-21.2,12.6-32.6,8-9.4-3.8-15.6-12.9-15.6-23v-12c0-13.7,11.1-24.8,24.8-24.8s24.8,11.1,24.8,24.8v10.5ZM260.2,267.7v-60.2h12v6.8c7-8.7,19.8-10.1,28.6-3,0,0,0,0,0,0l-8.5,10.6c-5-4.4-12.6-4-17,1-2,2.2-3,5-3,8v36.9h-12ZM222.6,267.7v-50.4h-6v-9.8h6v-9c0-8.3,6.7-15,15-15h9v11.3h-8.3c-2.1,0-3.8,1.7-3.8,3.8h0v9h12v9.8h-12v50.4" style="display: none;"/>
    <path d="M252.8,143.3l-12.8-35.3-6.3,11.7v23.6h-11.4V63.1h11.4v35.9l17-35.9h11.4l-15.6,32,18.4,48.3h-12.1Z"/>
    <path d="M291.2,132.3c1.7,0,3.1-.5,4.1-1.6,1-1,1.7-2.4,1.9-4.1h11.4v1.3c0,1.8-.4,3.5-1.1,5.3-.8,1.8-2.3,4-4.7,6.7-2.4,2.7-6.2,4-11.3,4s-6.3-.9-9.1-2.6c-2.8-1.8-4.7-3.7-5.7-5.8-1-2.1-1.7-4-2-5.8-.3-1.7-.4-3.4-.4-5.1v-21.7c0-4.7,1.7-8.8,5.1-12.3,3.4-3.5,7.5-5.2,12.2-5.2s8.9,1.7,12.2,5.1c3.2,3.4,4.9,7.5,4.9,12.4v15.8h-22.9v8.5c0,1.2.6,2.3,1.8,3.4,1.2,1.1,2.4,1.6,3.7,1.6ZM291.5,96.8c-1.6,0-2.9.5-4,1.5-1.1,1-1.7,2.9-1.7,5.5v5.6h11.5v-5.6c0-2.1-.5-3.7-1.3-5.1-.9-1.3-2.4-2-4.4-2Z"/>
    <path d="M321.2,74.5v-11.4h11.4v11.4h-11.4ZM321.2,143.3v-57.6h11.4v57.6h-11.4Z"/>
    <path d="M378.9,91.3c.6,1,1.1,2.1,1.3,3.5.2,1.4.4,2.7.4,4.1v44.5h-11.4v-40.3c0-4.2-1.9-6.3-5.8-6.3s-3.1.6-4.2,1.9c-1.1,1.3-1.6,2.7-1.6,4.4v40.3h-11.4v-57.2h11.4v5.6c2.6-4.2,6.2-6.3,10.7-6.3s8.2,2,10.5,5.9Z"/>
    <path d="M95.1,263.3l-9.4-48.5-9.2,48.5h-10.6l-11.6-80.3h12.2l5.6,48.7,9.2-48.7h8.5l9.4,48.7,5.8-48.7h12.1l-11.3,80.3h-10.8Z"/>
    <path d="M126.6,194.5v-11.4h11.4v11.4h-11.4ZM126.6,263.3v-57.6h11.4v57.6h-11.4Z"/>
    <path d="M184.3,211.3c.6,1,1.1,2.1,1.3,3.5.2,1.4.4,2.7.4,4.1v44.5h-11.4v-40.3c0-4.2-1.9-6.3-5.8-6.3s-3.1.6-4.2,1.9c-1.1,1.3-1.6,2.7-1.6,4.4v40.3h-11.4v-57.2h11.4v5.6c2.6-4.2,6.2-6.3,10.7-6.3s8.2,2,10.5,5.9Z"/>
    <path d="M216.8,252.4h2.6v10.9h-3.6c-2.1,0-4.1-.2-5.7-.7-1.7-.4-3.3-1.3-4.9-2.7-1.6-1.4-2.7-2.9-3.3-4.5s-1-3.7-1-6.1v-34.3h-5.6v-9h5.6v-17.3h11.4v17.3h7.1v9h-7.1v32.3c0,1.9.3,3.3.8,4,.5.7,1.7,1.1,3.7,1.1Z"/>
    <path d="M247.6,252.3c1.7,0,3.1-.5,4.1-1.6,1-1,1.7-2.4,1.9-4.1h11.4v1.3c0,1.8-.4,3.5-1.1,5.3-.8,1.8-2.3,4-4.7,6.7-2.4,2.7-6.2,4-11.3,4s-6.3-.9-9.1-2.6c-2.8-1.8-4.7-3.7-5.7-5.8-1-2.1-1.7-4-2-5.8-.3-1.7-.4-3.4-.4-5.1v-21.7c0-4.7,1.7-8.8,5.1-12.3,3.4-3.5,7.5-5.2,12.2-5.2s8.9,1.7,12.2,5.1c3.2,3.4,4.9,7.5,4.9,12.4v15.8h-22.9v8.5c0,1.2.6,2.3,1.8,3.4,1.2,1.1,2.4,1.6,3.7,1.6ZM247.9,216.8c-1.6,0-2.9.5-4,1.5-1.1,1-1.7,2.9-1.7,5.5v5.6h11.5v-5.6c0-2.1-.5-3.7-1.3-5.1-.9-1.3-2.4-2-4.4-2Z"/>
    <path d="M303.9,205.4v11.8c-.6-.1-1.1-.2-1.7-.3-.6,0-1.1,0-1.6,0-3.8,0-6.6,1.3-8.6,3.8-2,2.5-3,5.6-3,9.2v33.5h-11.4v-57.2h11.4v6.2c2-2.5,4.5-4.3,7.4-5.3,2.9-1.1,5.4-1.6,7.5-1.6Z"/>
    <path d="M337.4,263.3v-6c-1.1,1.9-2.6,3.5-4.5,4.7s-3.9,1.9-6.2,1.9c-5.2,0-8.5-1.4-9.9-4.2-1.4-2.8-2.1-4.8-2.2-6.1-.1-1.2-.2-2.9-.2-4.9v-30.7c0-3.4,1.2-6.3,3.5-8.7,2.3-2.4,5.3-3.6,8.8-3.6s4.2.6,6.1,1.7c1.9,1.1,3.4,2.6,4.5,4.4v-28.8h11.4v80.3h-11.4ZM336.6,219.2c-1.1-1.6-2.8-2.3-5-2.3s-2.2.3-3.1.9c-.9.6-1.6,1.3-1.9,2.1-.3.8-.5,1.7-.6,2.6,0,.9,0,1.6,0,2.1v20.3c0,.8,0,1.6,0,2.4,0,.8.4,1.8,1.2,3.1.7,1.3,2.2,1.9,4.5,1.9s3.9-.7,4.7-2.1c.7-1.4,1.1-2.8,1.1-4.2v-22.7c0-.7,0-1.3,0-2,0-.7-.3-1.4-.8-2Z"/>
    <path d="M362.4,194.5v-11.4h11.4v11.4h-11.4ZM362.4,263.3v-57.6h11.4v57.6h-11.4Z"/>
    <path d="M403.5,252.3c1.7,0,3.1-.5,4.1-1.6,1-1,1.7-2.4,1.9-4.1h11.4v1.3c0,1.8-.4,3.5-1.1,5.3-.8,1.8-2.3,4-4.7,6.7-2.4,2.7-6.2,4-11.3,4s-6.3-.9-9.1-2.6c-2.8-1.8-4.7-3.7-5.7-5.8-1-2.1-1.7-4-2-5.8-.3-1.7-.4-3.4-.4-5.1v-21.7c0-4.7,1.7-8.8,5.1-12.3,3.4-3.5,7.5-5.2,12.2-5.2s8.9,1.7,12.2,5.1c3.2,3.4,4.9,7.5,4.9,12.4v15.8h-22.9v8.5c0,1.2.6,2.3,1.8,3.4,1.2,1.1,2.4,1.6,3.7,1.6ZM403.8,216.8c-1.6,0-2.9.5-4,1.5-1.1,1-1.7,2.9-1.7,5.5v5.6h11.5v-5.6c0-2.1-.5-3.7-1.3-5.1-.9-1.3-2.4-2-4.4-2Z"/>
    <path d="M466,211.3c.6,1,1.1,2.1,1.3,3.5.2,1.4.4,2.7.4,4.1v44.5h-11.4v-40.3c0-4.2-1.9-6.3-5.8-6.3s-3.1.6-4.2,1.9c-1.1,1.3-1.6,2.7-1.6,4.4v40.3h-11.4v-57.2h11.4v5.6c2.6-4.2,6.2-6.3,10.7-6.3s8.2,2,10.5,5.9Z"/>
    <path d="M496.2,253.1c1.8,0,3.3-.6,4.6-1.7,1.3-1.1,1.9-2.6,1.9-4.3s-.5-3.6-1.6-4.6c-1.1-1-2.8-1.9-5.1-2.7l-2.3-.8c-2.4-.9-4.4-1.7-6-2.6-1.6-.8-3.3-2.4-5.2-4.6-1.8-2.2-2.8-5.4-2.8-9.5s1.6-8.7,4.9-12,7.3-4.9,12.1-4.9,8.1,1.7,11.2,5c3,3.4,4.6,7.2,4.6,11.4h-10.6c0-1.7-.5-3.1-1.6-4.1s-2.5-1.6-4.3-1.6-2.9.6-4,1.8c-1,1.2-1.6,2.6-1.6,4.3s.5,3.1,1.6,4.1c1,1,2.6,1.8,4.6,2.5l3.7,1.2c2.2.8,3.9,1.6,5.1,2.3,1.2.7,2.5,1.8,3.7,3.2,1.2,1.4,2.3,3.1,3.1,5,.8,1.9,1.2,4,1.2,6.1,0,4.6-1.7,8.7-5,12.2-3.3,3.5-7.3,5.2-11.9,5.2s-5.6-.8-8.5-2.3c-2.8-1.5-5-3.6-6.6-6.2-1.6-2.6-2.3-5.5-2.3-8.8h10.7c0,1.8.6,3.3,1.9,4.5,1.2,1.2,2.7,1.9,4.5,1.9Z"/>
    <path d="M541.8,252.4h2.6v10.9h-3.6c-2.1,0-4.1-.2-5.7-.7-1.7-.4-3.3-1.3-4.9-2.7-1.6-1.4-2.7-2.9-3.3-4.5s-1-3.7-1-6.1v-34.3h-5.6v-9h5.6v-17.3h11.4v17.3h7.1v9h-7.1v32.3c0,1.9.3,3.3.8,4,.5.7,1.7,1.1,3.7,1.1Z"/>
</svg>