<svg xmlns="http://www.w3.org/2000/svg" xml:space="preserve" viewBox="0 0 501.016 501.016" role="img" aria-labelledby="title">
  <title id="title">Verkehrszeichen Australian_Tourist_Drive_1 - Tourist drive shield</title>
  <path d="m559.122 729.879 1.404 5.624.701 5.795.176 5.965-.351 5.794-1.053 5.795-1.579 5.624-2.28 5.454-2.807 5.283-3.158 4.943-3.86 4.43-4.21 4.262-4.737 3.75-4.912 3.237-5.439 2.727-115.263 52.152-7.895 3.238-8.246 2.727-8.42 2.215-8.422 1.534-8.596.853-8.772.34-8.597-.34-8.596-.853-8.597-1.534-8.42-2.215-8.07-2.727-8.071-3.238-115.263-52.152-5.263-2.727-5.088-3.238-4.561-3.75-4.386-4.26-3.685-4.431-3.333-4.943-2.807-5.283-2.105-5.454-1.755-5.624-.877-5.795-.526-5.794.175-5.965.878-5.795 1.403-5.624 67.895-226.502 2.105-5.795 2.632-5.624 3.333-5.283 4.035-4.943 4.386-4.431 4.912-4.09 5.263-3.409 5.79-2.897 5.79-2.216 6.315-1.704 6.316-1.023 6.316-.34h145.088l6.315.34 6.316 1.023 6.14 1.704 5.965 2.216 5.614 2.897 5.264 3.409 4.912 4.09 4.561 4.431 3.86 4.943 3.333 5.283 2.807 5.624 2.105 5.795z" style="fill:#fff;fill-opacity:1;stroke:#000;stroke-width:.80000001;stroke-miterlimit:4;stroke-opacity:1;stroke-dasharray:none" transform="matrix(1.25 0 0 -1.25 -201.25 1077.54)"/>
  <path d="m356.869 842.924-7.87-.688-7.871-1.187-7.892-1.875-7.506-2.375-7.356-2.896-114.97-52.188-4.718-2.375-4.203-3.062-4.032-3.563-3.324-4.083-2.81-4.417-2.1-4.77-1.566-4.917-.88-5.104-.343-5.105.515-5.27 1.244-4.917 67.703-225.938 1.759-4.916 2.445-4.604 3.152-4.25 3.496-3.73 4.032-3.395 4.375-2.896 4.89-2.209 5.082-1.708 5.254-.854 5.254-.334h144.715l5.254.334 5.232.854 5.083 1.708 4.718 2.209 4.375 2.896 4.203 3.395 3.496 3.73 2.98 4.25 2.446 4.604 1.93 4.916 67.725 225.938 1.05 4.917.515 5.27-.171 5.105-.88 5.104-1.565 4.916-2.273 4.771-2.81 4.417-3.324 4.083-3.839 3.563-4.374 3.062-4.547 2.375-114.97 52.188-7.355 2.896-7.7 2.375-7.698 1.875-7.87 1.187-8.064.688zm-3.496-18.521h17.671v-4.084h-6.648l.172-24.145h-4.547v24.145h-6.648zm-15.762-2.896 1.587-.167 1.05-.354.88-.333 1.05-.5.858-.521.708-.688.343-.333-3.324-3.062-.515.52-1.05.667-1.223.354-1.05-.187-1.223-.167-.88-.667-.879-.687-.514-1.02-.193-1.188v-1.021l.536-1.354.708-.855 1.029-.333h1.244l4.01 1.02.88.168 1.393.166h1.416l1.565-.333 1.223-.52 1.394-.855 1.05-1.021.88-1.02.707-1.355.515-1.354.365-1.354v-1.375l-.193-1.521-.515-1.354-.708-1.209-.857-1.187-1.051-.854-1.223-.834-1.244-.687-1.565-.333-1.566-.355h-1.243l-1.394.188-1.223.167-1.222.5-1.223.52-1.222.667-1.05.688-.365.5 3.152 3.062 1.222-.833 1.416-.688 1.565-.333h1.394l1.587.333 1.223.688.879.833.515 1.02.364 1.188v1.209l-.364 1-.687 1.02-.879.688-1.222.52-1.051.168-1.415-.167-4.01-1.021-1.223-.187-1.244-.167-1.222.354-1.223.333-1.222.688-.88.667-.857 1.02-.708 1.021-.343 1.354-.365 1.375v1.355l.172 1.354.364 1.187.515 1.188.708 1.208 1.05 1.02 1.051.834 1.223.688 1.394.5 1.222.187zm66.674-8.167 7.356-3.396.707-.333 1.051-.687.858-.688.708-.667.879-.854.515-1.02.536-.855.343-1.02.343-1.188.193-1.02v-2.21l-.193-1.02-.171-1.521-.344-1.02-.171-1.022-.365-.854-.514-1.02-.344-1.021-.536-.855-.514-.854-.708-1.02-.708-.834-.686-.687-.708-.855-.686-.666-1.05-.854-.88-.521-1.051-.5-1.05-.521-1.052-.167-1.05-.166-1.223-.167-1.05.167-1.223.166-1.05.334-1.052.354-7.356 3.396zm-86.447-.333 12.267-25.667-4.032-1.875-12.417 25.667zm88.72-5.604-8.557-17.521 3.324-1.521 1.223-.52 1.222-.167 1.394.166 1.05.521 1.223.5.88.854.879.854.88 1.021.685 1.021.537 1.02.514 1.022.536 1.187.344 1.188.343 1.187.171 1.188v1.187l-.171 1.188-.344 1.187-.707 1.188-.858.854-.88.687-.535.167zm-105.684-2.396h2.445l1.223-.167 1.394-.5 1.05-.687 1.051-.854.88-1.021.707-1.021.515-1.354.364-1.188v-1.354l-.193-1.375-.171-1.02-.686-1.188-.536-.854-.172-.167 10.315-10.021-4.375-1.875-9.607 9.188-5.083-2.209 5.426-11.229-4.032-1.875-12.417 25.667 9.972 4.437.536.167zm128.095-2.875 9.8-4.604.687-.167 1.05-.854.88-.667.879-1.02.515-1.188.536-1.208.171-1.355v-1.354l-.171-1.187-.343-1.354-.708-1.209-.88-1.02-1.05-.834-1.051-.687-1.05-.5-1.223-.355-1.051-.166h-.343l-1.223-13.938-4.375 2.042 1.051 13.083-4.91 2.209-5.426-11.209-4.01 1.854zm-126.7-1.542-1.051-.166-.344-.167-5.768-2.563 2.96-6.458 5.79 2.73.857.5.708.853.515 1.188v1.187l-.344.855-.879 1.187-1.05.688zm128.801-4.416-2.98-6.459 5.768-2.541 1.051-.355h1.05l1.223.521.88.667.536.854.343 1.354-.172 1.375-.707 1.188-.88.666-.343.188zm-151.19-.521 8.384-17.334.172-.333.365-1.02.171-1.188.172-1.021v-1.188l-.172-1.02-.343-1.188-.365-1.02-.514-1.022-.708-.854-.686-.854-.88-.687-.879-.667-1.05-.521-1.051-.333-1.051-.334-1.223-.166h-2.273l-1.05.333-1.223.333-1.05.521-.88.5-.88.688-.879.854-.686.833-.536 1.021-.172.354-8.385 17.334 4.01 1.875 8.407-17.355.515-.833 1.222-1.02 1.244-.688 1.566-.334 1.393.167 1.416.5 1.222.854.858 1.354.536 1.375v1.521l-.536 1.354-8.385 17.521zm173.751-4.75 4.203-1.875-12.245-25.667-4.203 1.875zm11.023-4.938 4.375-2.041-2.788-19.875 13.81 14.791 4.376-1.875-20.46-21.937-3.323 1.541zm-215.57-4.25h1.222l1.05-.166 1.052-.334 1.222-.333.858-.521.879-.687.88-.667 1.05-1.188 1.394-1.541 1.05-1.688.537-1.02.515-.855.879-1.875.88-1.875.514-2.041.536-1.855.172-1.708v-2.208l-.343-1.021-.365-1.021-.343-1.02-.708-.855-.686-.833-1.051-.854-1.222-.855-1.223-.687-1.415-.333-1.394-.167h-1.051l-1.222.167-1.051.166-1.051.521-1.05.5-.88.52-.88.834-.343.354-.707.855-.686.666-.537.854-1.222 1.709-1.05 1.854-.88 1.875-.686 1.875-.708 2.042-.172 1.02-.171 1.021-.343 1.521v1.02l.171 1.188.172 1.021.343 1.021.536 1.02.515.855.879.854.88.834 1.222.854 1.394.52 1.394.5zm-.365-4.583-1.05-.333-.88-.688-.858-.687-.536-1-.343-1.021-.172-1.021.343-1.375.343-1.688.537-1.708.514-1.52.88-1.542.707-1.521 1.051-1.542 1.05-1.354.516-.688.343-.166.879-.667 1.05-.52 1.223-.167 1.051.166 1.222.334.88.52.879.855.515.854.364 1.187v1.021l-.171 1.354-.365 1.709-.515 1.52-.707 1.709-.687 1.52-.879 1.521-1.05 1.375-1.052 1.521-.879.854-.88.688-1.05.333-1.05.167zm-16.449-2.896 1.759-3.73-5.962-2.728 10.508-21.917-4.203-1.875-10.487 21.938-5.962-2.73-1.758 3.73zm258.998-.5 15.226-6.812-1.93-4.063-11.023 5.083-3.152-6.458 7.699-3.396-1.93-3.896-7.7 3.396-3.323-7.312 11.902-5.271-1.93-4.083-16.084 7.312z" style="fill:#4f372d;fill-opacity:1;stroke:none" transform="matrix(1.25 0 0 -1.25 -201.25 1077.54)"/>
  <path d="M391.555-525.619v-199.993h-28.656q-5.616 9.253-12.91 14.253t-18.731 7.537l.597 28.656h25.372v149.547z" style="font-size:298.50149536px;font-style:normal;font-variant:normal;font-weight:400;font-stretch:normal;text-align:center;line-height:125%;letter-spacing:0;word-spacing:0;writing-mode:lr-tb;text-anchor:middle;fill:#fff;fill-opacity:1;stroke:none;font-family:Roadgeek 2005 Series E;-inkscape-font-specification:Roadgeek 2005 Series E" transform="translate(-201.25 1077.54)scale(1.25)"/>
</svg>
