<svg xmlns="http://www.w3.org/2000/svg" viewBox="0 0 376.003 360.997" role="img" aria-labelledby="title">
  <title id="title">Verkehrszeichen Australian_state_route_TOLL43 - State route shield (toll road)</title>
  <path d="m364.573 263.37-5.486 12.929-4.488 12.928-3.99 13.425-2.991 13.425L345.124 330l-1.496 13.425-.997 13.923v13.922l.997 13.923 1.496 13.425 2.494 13.923 2.992 13.425 3.99 13.425 4.986 12.928 5.485 12.928 5.985 12.431 6.98 11.934 7.481 11.933 8.478 10.94 8.477 10.441 9.475 10.442 9.973 9.448 10.971 8.95 10.97 8.453 11.47 7.956 11.969 6.961 12.466 5.967 12.467 5.47 12.966 4.972 13.464 3.978 11.47 3.48 11.469-3.48 13.464-3.978 12.966-4.973 12.965-5.47 11.968-5.966 11.969-6.961 11.47-7.956 11.469-8.453 10.472-8.95 9.973-9.448 9.475-10.442 8.976-10.441 7.979-10.94 7.979-11.933 6.483-11.934 6.482-12.43 5.486-12.929 4.488-12.928 3.99-13.425 3.49-13.425 1.995-13.923 1.994-13.425.499-13.923v-13.922l-.499-13.923L715.141 330l-1.995-13.923-2.992-13.425-3.99-13.425-4.986-12.928-5.486-12.928-5.984-12.431-6.981-11.934H377.538l-6.482 11.934z" style="fill:#ffa709;fill-opacity:1;stroke:none" transform="translate(-342.131 -238.506)"/>
  <path d="m384.52 250.94-6.483 11.933-4.987 11.934-4.987 12.43-3.989 12.432-3.49 12.928-2.494 12.928-1.995 12.928-.997 13.425-.499 12.928.499 13.426.997 13.425 1.995 12.928 2.992 12.928 3.49 12.928 3.99 12.43 4.987 12.432 5.485 11.933 6.483 11.437 6.981 11.436 7.48 10.94 8.478 9.944 8.478 9.945 9.474 9.447 9.974 8.95 10.472 7.956 10.97 7.956 10.972 6.464 11.968 6.464 11.968 5.967 12.467 4.475 11.968 4.475 12.966 3.48 12.965-3.48 12.467-4.475 12.467-4.475L580 568.175l11.47-6.464 11.469-6.464 10.472-7.956 10.472-7.956 9.974-8.95 9.475-9.447 8.976-9.945 7.978-9.945 7.98-10.939 6.482-11.436 6.483-11.437 5.485-11.933 4.987-12.431 4.488-12.431 3.49-12.928 2.494-12.928 1.995-12.928.997-13.425.997-13.426-.498-12.928-1.496-13.425-1.496-12.928-2.992-12.928-2.992-12.928-3.99-12.431-4.986-12.431-5.486-11.934-6.483-11.933z" style="fill:#174f90;fill-opacity:1;stroke:none" transform="translate(-342.131 -238.506)"/>
  <g style="font-size:267.85714722px;font-style:normal;font-variant:normal;font-weight:400;font-stretch:normal;text-align:center;line-height:100%;letter-spacing:0;word-spacing:0;writing-mode:lr-tb;text-anchor:middle;fill:#fff;fill-opacity:1;stroke:none;font-family:Roadgeek 2005 Series C;-inkscape-font-specification:Roadgeek 2005 Series C">
    <path d="M511.236 438.11v43.393h-25.714V438.11h-74.465v-18.214l74.465-117.857h25.714v111.964h10.714v24.107zm-25.714-91.339-42.857 67.232h42.857zM649.208 433.021q0 10.983-3.75 20.625-3.75 9.375-10.447 16.34-6.428 6.963-15.803 10.982-9.108 3.75-19.822 3.75-10.982 0-20.09-3.75-8.838-3.75-15.535-10.447-6.429-6.696-10.446-15.803-3.75-9.375-4.286-20.358h25.179q1.071 10.982 7.767 18.215 6.965 6.964 17.411 6.964 10.983 0 17.947-7.5 7.232-7.768 7.232-19.018 0-7.232-1.875-13.393-1.875-6.428-5.09-10.982-3.213-4.821-7.5-7.5-4.018-2.679-8.839-2.678h-12.59v-24.643h10.715q4.821 0 7.232-1.607 2.679-1.608 5.893-5.358 7.768-8.57 7.768-20.089 0-10.446-5.893-16.607-5.625-6.16-15-6.16-8.572 0-13.66 5.089-4.823 4.821-5.893 13.928l-25.179-3.214q1.071-8.84 4.821-16.34 3.75-7.767 9.643-13.124t13.661-8.304q7.768-3.214 16.607-3.214 9.643 0 17.947 3.482 8.302 3.482 14.196 9.91 6.16 6.162 9.643 14.733 3.482 8.304 3.482 17.946 0 11.25-3.75 20.893-3.482 9.643-12.59 20.09 10.448 9.375 15.536 21.428 5.357 12.054 5.358 25.714" style="fill:#ffa709;fill-opacity:1;font-family:Roadgeek 2005 Series C;-inkscape-font-specification:Roadgeek 2005 Series C" transform="translate(-342.131 -238.506)"/>
  </g>
</svg>
