<svg xmlns="http://www.w3.org/2000/svg" viewBox="0 0 460.004 359.996" role="img" aria-labelledby="title">
  <title id="title">Verkehrszeichen Australian_national_highway_A1 - National alphanumeric highway shield</title>
  <path d="m39.952 0-6.069.503-5.563 1.511-5.057 2.014-5.057 2.517-4.552 3.525-4.045 4.028-3.54 4.531-2.529 5.035L1.517 28.7.506 34.237 0 40.28v212.473l.506 7.05 1.011 6.545 1.517 7.049 2.529 6.041 3.54 6.546 4.046 5.538 4.045 5.539 5.058 4.531 5.562 4.532 6.069 3.524 6.069 3.02 189.797 47.329 190.303-47.328 6.069-3.021 6.068-3.524 5.058-4.532 5.057-4.531 4.551-5.539 4.046-5.538 3.034-6.546 2.529-6.041 2.023-7.05 1.011-6.545.506-7.049V40.28l-.506-6.042-1.517-5.538-1.517-5.035-3.035-5.035-3.034-4.531-4.046-4.028-4.551-3.525-5.057-2.517-5.563-2.014-5.563-1.51L420.052 0z" style="fill:#ffa709;fill-opacity:1;stroke:none"/>
  <path d="M420.053 24.168H39.952l-3.54.503-3.54 1.007-3.035 2.014-2.528 2.517-2.023 3.021-1.012 3.525-.505 3.524v212.473l.505 6.042 1.518 5.539 2.022 6.042 3.035 5.035 3.54 4.531 4.551 4.531 4.552 3.525 5.562 2.517 180.695 43.804 180.695-43.804 5.563-2.517 4.552-3.525 4.551-4.531 4.046-4.531 3.034-5.035 2.023-6.042 1.011-5.539 1.012-6.042V40.28l-.506-3.524-1.517-3.525-2.023-3.02-2.529-2.518-3.034-2.014-3.034-1.007z" style="fill:#21432d;fill-opacity:1;stroke:none"/>
  <g style="font-size:268.65133667px;font-style:normal;font-variant:normal;font-weight:400;font-stretch:normal;text-align:center;line-height:100%;letter-spacing:0;word-spacing:0;writing-mode:lr-tb;text-anchor:middle;fill:#ffa709;fill-opacity:1;stroke:none;font-family:Roadgeek 2005 Series C;-inkscape-font-specification:Roadgeek 2005 Series C">
    <path d="m239.233 283.996-17.731-42.447h-78.447l-17.462 42.447H90.131L165.891 104h32.775l75.223 179.996zm-56.955-135.132-25.253 60.716h50.507zM321.784 283.996l.806-134.594h-22.835l-.538-25.79q10.477-2.419 16.657-6.717 6.447-4.299 11.82-12.895h25.79v179.996z" style="font-family:Roadgeek 2005 Series E;-inkscape-font-specification:Roadgeek 2005 Series E"/>
  </g>
  <g style="font-size:62.68531036px;font-style:normal;font-variant:normal;font-weight:400;font-stretch:normal;text-align:center;line-height:125%;letter-spacing:0;word-spacing:0;writing-mode:lr-tb;text-anchor:middle;fill:#ffa709;fill-opacity:1;stroke:none;font-family:Roadgeek 2005 Series D;-inkscape-font-specification:Roadgeek 2005 Series D">
    <path d="m121.202 86.996-16.047-28.46v28.46H98.51v-42h6.645l15.295 26.83v-26.83h6.646v42zM161.838 86.996 157.7 75.212h-13.1l-4.138 11.784h-7.084l14.481-42h6.581l14.482 42zm-10.594-30.34-4.326 11.786h8.4zM187.812 50.89v36.106h-6.643V50.89h-9.592v-5.894h25.952v5.894zM203.679 86.996v-42h6.77v42zM249.35 66.058q0 5.016-1.19 9.592-1.192 4.575-3.386 7.398-3.51 4.7-10.154 4.7-4.452 0-7.335-1.818-2.883-1.817-4.763-5.704-1.316-2.695-2.131-6.55a36.8 36.8 0 0 1-.815-7.618q0-5.201 1.222-9.652t3.354-7.46q1.881-2.38 4.482-3.542 2.602-1.16 6.236-1.16 4.012 0 6.833 1.819 2.82 1.818 4.827 5.703 1.317 2.822 2.068 6.583.752 3.76.752 7.71m-6.644 0q0-3.57-.626-6.612-.627-3.04-1.882-5.172-1.002-1.629-2.287-2.382-1.284-.75-3.165-.878-2.445-.124-4.075 1.129t-2.695 4.075q-.814 1.88-1.222 4.544a35 35 0 0 0-.408 5.296q0 3.387.627 6.52.626 3.135 1.88 5.14 1.004 1.63 2.382 2.445t3.385.815q2.318 0 3.855-1.253 1.535-1.254 2.601-4.075.315-.814.628-1.974t.533-2.445q.219-1.285.344-2.602a27 27 0 0 0 .125-2.57M281.343 86.996l-16.046-28.46v28.46h-6.646v-42h6.646l15.294 26.83v-26.83h6.646v42zM321.98 86.996l-4.139-11.784h-13.1l-4.138 11.784h-7.084l14.482-42h6.58l14.482 42zm-10.595-30.34-4.325 11.786h8.4zM335.416 86.996v-42h6.646V80.79h19.432v6.206z"/>
  </g>
</svg>
