<svg xmlns="http://www.w3.org/2000/svg" xmlns:xlink="http://www.w3.org/1999/xlink" viewBox="0 0 1350 1200" role="img" aria-labelledby="title">
  <title id="title">Verkehrszeichen Australia_Fire_Danger_Rating_Sign_2022_e - An electronically controlled Fire Danger Rating Sign new system since 2022</title>
  <defs>
    <path id="a" d="M8.844-7.14V0H6.266v-7.14L.484-16.407H3.61l3.907 6.312 3.968-6.312h3.063zm0 0"/>
    <path id="b" d="M13.313-8.187c0 .64-.047 1.28-.11 1.921-.094.641-.203 1.25-.375 1.813-.156.578-.328 1.125-.562 1.61-.235.5-.485.921-.75 1.296-.485.64-1.047 1.094-1.72 1.39-.655.298-1.405.438-2.28.438-.578 0-1.11-.047-1.563-.172a4.7 4.7 0 0 1-1.281-.546 4.4 4.4 0 0 1-1.031-.907c-.313-.36-.578-.797-.844-1.297-.156-.375-.313-.75-.469-1.187-.14-.438-.281-.89-.375-1.375-.078-.469-.172-.969-.219-1.469a13 13 0 0 1-.093-1.516c0-.687.046-1.312.109-1.953.094-.64.203-1.25.375-1.828q.234-.843.563-1.594c.234-.484.484-.906.75-1.296.484-.641 1.046-1.125 1.765-1.391.672-.297 1.5-.437 2.453-.437.75 0 1.422.109 1.985.39.593.25 1.093.563 1.5 1 .422.438.78.938 1.062 1.485.266.562.5 1.156.656 1.796.188.641.297 1.282.36 1.938.078.64.094 1.281.094 1.89m-2.641 0c0-.313-.031-.688-.047-1.094-.031-.406-.094-.844-.156-1.281a10 10 0 0 0-.328-1.266 4 4 0 0 0-.547-1.125 3 3 0 0 0-.813-.797c-.328-.203-.718-.297-1.14-.297-.375 0-.688.047-.97.125q-.398.094-.702.328c-.219.188-.406.39-.563.64-.187.25-.343.579-.484.923-.094.25-.188.515-.266.812s-.14.625-.187.953q-.095.516-.14 1.032c-.016.343-.048.703-.048 1.047 0 .437.032.874.078 1.296.047.438.11.844.204 1.266.062.375.171.75.296 1.094.11.343.25.64.407.906.25.438.578.75.937.953S7-2.375 7.5-2.375c.61 0 1.14-.156 1.531-.5.406-.312.75-.844 1.016-1.578.094-.203.187-.469.25-.766.078-.297.14-.593.219-.937.046-.344.078-.688.109-1.032.016-.328.047-.671.047-1m0 0"/>
    <path id="c" d="M13.156-5.86c0 .61-.078 1.204-.203 1.798a7.4 7.4 0 0 1-.578 1.593 3.9 3.9 0 0 1-.812 1.094c-.344.344-.735.64-1.141.875a5.4 5.4 0 0 1-1.39.563c-.485.14-.985.218-1.485.218S6.563.203 6.063.062A5.2 5.2 0 0 1 4.703-.5a4.8 4.8 0 0 1-1.14-.875 4 4 0 0 1-.829-1.094 6.6 6.6 0 0 1-.562-1.594 7.8 7.8 0 0 1-.219-1.796v-10.547h2.61V-5.86c0 .53.062 1 .218 1.437.14.438.344.797.594 1.094.281.312.578.547.969.703.36.156.765.25 1.203.25.453 0 .86-.094 1.234-.25.36-.156.672-.39.953-.703.25-.297.454-.656.61-1.094.14-.437.219-.906.219-1.437v-10.547h2.593zm0 0"/>
    <path id="d" d="m10.328 0-2.64-7.14H4.563V0h-2.61v-16.406h6c.625 0 1.188.062 1.672.218.469.157.906.36 1.266.625.375.25.672.547.922.86s.453.656.593 1c.156.344.266.656.344 1a4.97 4.97 0 0 1-.094 2.172c-.14.406-.328.812-.547 1.187-.203.36-.484.688-.797.985a4.6 4.6 0 0 1-1.046.703L13.156 0Zm-.14-11.812c0-.266-.047-.516-.157-.766a1.7 1.7 0 0 0-.437-.64 1.8 1.8 0 0 0-.688-.454 2 2 0 0 0-.875-.172H4.562v4.063H8c.328 0 .625-.047.89-.156.282-.11.5-.25.688-.438.203-.187.344-.406.453-.656s.156-.5.156-.781m0 0"/>
    <path id="f" d="M4.563-13.844v4.063h4.78v2.64h-4.78V0h-2.61v-16.406h10.219v2.562zm0 0"/>
    <path id="g" d="M1.953 0v-16.406h2.672V0Zm0 0"/>
    <path id="h" d="M1.953 0v-16.406h9.703v2.562H4.562v4.063h4.782v2.64H4.563v4.5h7.609V0Zm0 0"/>
    <path id="i" d="M11.984-4.719c0 .735-.125 1.407-.406 2.032-.25.609-.61 1.14-1.094 1.578-.453.453-1 .765-1.64 1.015S7.547.281 6.813.281c-.704 0-1.36-.094-1.985-.297a6.6 6.6 0 0 1-1.656-.843 7.1 7.1 0 0 1-1.344-1.313 7.5 7.5 0 0 1-1-1.687l2.485-.907c.328.782.812 1.375 1.406 1.782.61.406 1.297.609 2.093.609.375 0 .704-.062 1.032-.172.312-.14.593-.297.797-.515a2 2 0 0 0 .53-.75c.11-.297.173-.61.173-.954 0-.546-.14-1-.438-1.343-.265-.344-.625-.61-1.094-.86a11 11 0 0 0-1.5-.625c-.562-.187-1.093-.39-1.64-.593a5 5 0 0 1-.906-.438 4 4 0 0 1-1.032-.75 3.6 3.6 0 0 1-.859-1.187c-.25-.47-.375-1.063-.375-1.72 0-.796.14-1.484.39-2.062q.375-.82 1.079-1.36c.453-.343 1-.593 1.61-.75.64-.171 1.327-.233 2.062-.233.562 0 1.109.062 1.593.234.47.156.907.375 1.297.672.39.281.735.64 1.031 1.031.282.406.547.86.72 1.375L9-12.672a1.25 1.25 0 0 0-.344-.531 1.6 1.6 0 0 0-.547-.469A4.4 4.4 0 0 0 7.391-14a3.8 3.8 0 0 0-1.735-.016c-.297.047-.578.125-.797.266-.234.14-.437.328-.578.547-.156.234-.218.5-.218.844 0 .406.109.734.343 1 .219.25.516.468.875.64.39.188.813.344 1.282.485.484.14.953.297 1.468.484.5.172.969.375 1.453.625.485.234.907.547 1.282.938.359.39.656.843.89 1.421.219.547.328 1.22.328 2.047m0 0"/>
    <path id="j" d="M10.438 0 6.297-7.781 4.563-5.656V0h-2.61v-16.406h2.61v6.484l5.171-6.484h3.344L8-10.031 13.422 0Zm0 0"/>
    <path id="k" d="M6.844-14.11V0h-2.61v-14.11H.484v-2.296h10.157v2.297zm0 0"/>
    <path id="l" d="M13.156-8.234c0 1.218-.14 2.328-.437 3.328-.297 1.015-.688 1.875-1.188 2.61-.5.718-1.062 1.296-1.703 1.702C9.172-.204 8.484 0 7.781 0H1.953v-16.406h5.313c.422 0 .78 0 1.093.031.297.031.579.078.813.125.25.063.453.156.656.266a3.7 3.7 0 0 1 .61.437c.453.36.843.797 1.187 1.328.328.5.61 1.047.844 1.688.234.61.39 1.265.531 2 .11.734.156 1.5.156 2.297m-2.672 0c0-.313 0-.657-.046-1.063a8.6 8.6 0 0 0-.141-1.219 6 6 0 0 0-.313-1.218c-.14-.391-.312-.766-.546-1.078a3.3 3.3 0 0 0-.797-.75c-.313-.188-.703-.282-1.141-.282H4.563V-2.64h2.875a2.3 2.3 0 0 0 1.046-.25 3.1 3.1 0 0 0 .797-.718c.219-.266.406-.61.563-1 .172-.391.297-.766.39-1.188.094-.406.157-.812.188-1.25.047-.406.062-.812.062-1.187m0 0"/>
    <path id="m" d="m11.61 0-1.594-4.625H4.875L3.265 0H.486l5.64-16.406h2.61L14.39 0ZM7.452-11.86 5.797-7.265h3.281zm0 0"/>
  </defs>
  <path fill="none" stroke="#373435" stroke-miterlimit="22.926" stroke-width=".878" d="M112.854.44H1237.13c61.839 0 112.43 50.587 112.43 112.42v974.28c0 61.833-50.591 112.42-112.43 112.42H112.854C51.031 1199.56.44 1148.974.44 1087.14V112.86C.44 51.028 51.031.44 112.854.44Zm0 0"/>
  <path fill="#373435" fill-rule="evenodd" d="M112.854 7.936H1237.13c57.709 0 104.933 47.205 104.933 104.925v974.278c0 57.704-47.224 104.925-104.933 104.925H112.854c-57.708 0-104.933-47.22-104.933-104.925V112.861C7.92 55.14 55.146 7.936 112.854 7.936" style="stroke-width:4.06628"/>
  <path fill="#fefefe" fill-rule="evenodd" d="M112.854 22.914H1237.13c49.464 0 89.938 40.47 89.938 89.947v974.278c0 49.46-40.473 89.931-89.938 89.931H112.854c-49.464 0-89.938-40.47-89.938-89.93V112.86c0-49.476 40.474-89.946 89.938-89.946" style="stroke-width:4.06628"/>
  <g transform="matrix(4.06644 0 0 4.06611 -555.567 -456.061)">
    <use xlink:href="#a" x="167.368" y="150.886"/>
    <use xlink:href="#b" x="182.41" y="150.886"/>
    <use xlink:href="#c" x="197.338" y="150.886"/>
    <use xlink:href="#d" x="212.448" y="150.886"/>
    <use xlink:href="#f" x="233.37" y="150.886"/>
    <use xlink:href="#g" x="246.019" y="150.886"/>
    <use xlink:href="#d" x="252.606" y="150.886"/>
    <use xlink:href="#h" x="266.554" y="150.886"/>
    <use xlink:href="#d" x="286.496" y="150.886"/>
    <use xlink:href="#g" x="300.444" y="150.886"/>
    <use xlink:href="#i" x="307.031" y="150.886"/>
    <use xlink:href="#j" x="319.862" y="150.886"/>
    <use xlink:href="#k" x="341.081" y="150.886"/>
    <use xlink:href="#b" x="352.203" y="150.886"/>
    <use xlink:href="#l" x="367.131" y="150.886"/>
    <use xlink:href="#m" x="381.922" y="150.886"/>
    <use xlink:href="#a" x="396.782" y="150.886"/>
    <use xlink:href="#g" x="418.798" y="150.886"/>
    <use xlink:href="#i" x="425.385" y="150.886"/>
  </g>
  <path d="M674.992 231.906c-312.655 0-572.161 244.141-590.968 555.866l-.207.397.143.477-.159 2.318c-.603 11.246-.921 22.364-.921 33.022v1.953H612.39v-6.432c.048-2.51.223-4.734.604-7.402.429-3.081.953-5.56 1.81-8.545s1.732-5.369 2.987-8.212a66 66 0 0 1 1.43-2.97 62 62 0 0 1 2.668-4.733 59 59 0 0 1 5.147-7.068c.794-.97 1.715-1.954 2.636-2.923 1.462-1.525 2.923-2.938 4.242-4.082 2.35-2.049 4.368-3.573 6.973-5.257a60 60 0 0 1 7.64-4.24 58.4 58.4 0 0 1 8.165-3.13 60 60 0 0 1 8.498-1.97c3.05-.476 6.72-.762 9.801-.762 3.113 0 5.639.175 8.705.604 3.081.429 5.56.969 8.546 1.81 3.002.874 5.385 1.732 8.212 3.002 2.843 1.255 5.067 2.446 7.72 4.098 2.62 1.636 4.67 3.13 7.068 5.13a67 67 0 0 1 5.084 4.797 75 75 0 0 1 1.922 2.081 61 61 0 0 1 5.257 6.989 59.5 59.5 0 0 1 4.226 7.64 57.5 57.5 0 0 1 3.129 8.148 60 60 0 0 1 1.97 8.513c.413 2.653.698 5.797.762 8.625v5.32h463.924l65.587.985v-1.97c0-326.464-265.621-592.08-592.112-592.08" style="stroke-width:4.06628"/>
  <path fill="#fff" d="M87.137 821.667c.048-9.15.318-18.663.81-28.288l525.874.413c-1.303 2.954-2.208 5.463-3.114 8.592-.905 3.193-1.461 5.83-1.938 9.117-.396 2.86-.587 5.242-.635 7.926v2.24zm0 0" style="stroke-width:4.06628"/>
  <path d="m88.28 793.744 525 .397c-1.19 2.764-2.048 5.178-2.906 8.148-.922 3.209-1.478 5.861-1.954 9.165-.397 2.875-.588 5.257-.635 7.973v1.89H87.502c.033-8.926.302-18.202.779-27.573zm-.666-.715c-.525 9.864-.795 19.6-.826 29.003h521.696c0-1.128 0-2.35.016-2.589.032-2.684.222-5.05.62-7.894.476-3.256 1.032-5.893 1.937-9.07.922-3.176 1.827-5.701 3.177-8.72.048-.11.095-.222.143-.317zm0 0" style="stroke-width:4.06628"/>
  <path fill="#fd0" d="M305.93 450.73c11.644-11.58 18.871-18.187 32.087-29.274a531 531 0 0 1 43.826-33.02c14.9-10.04 23.27-15.185 38.996-23.89 15.71-8.703 32.754-17.026 49.322-24.062 16.536-7.005 34.358-13.501 51.561-18.758 17.171-5.258 26.702-7.704 44.27-11.452 17.6-3.733 36.328-6.703 54.198-8.577a535 535 0 0 1 52.499-2.875v455.166c-2.732.111-5.607.381-8.149.778-3.288.525-5.925 1.128-9.102 2.113a63 63 0 0 0-8.705 3.335c-3.018 1.414-5.384 2.716-8.164 4.527s-4.94 3.43-7.45 5.607c-.905.794-1.874 1.7-2.875 2.684zm0 0" style="stroke-width:4.06628"/>
  <path d="M672.323 299.187v454.468c-2.636.11-5.4.38-7.846.762-3.304.524-5.941 1.144-9.134 2.112-3.193.985-5.734 1.954-8.768 3.368a64.4 64.4 0 0 0-8.197 4.542c-2.795 1.827-4.972 3.447-7.481 5.639a59 59 0 0 0-2.637 2.446L306.423 450.729c11.485-11.42 18.712-18.011 31.817-29.003 13.756-11.53 28.91-22.95 43.793-32.99 14.9-10.037 23.271-15.183 38.965-23.872 15.71-8.72 32.754-17.026 49.29-24.047 16.536-7.02 34.358-13.5 51.53-18.758 17.17-5.241 26.685-7.703 44.254-11.436s36.296-6.703 54.15-8.577c16.949-1.779 34.946-2.764 52.101-2.859m.715-.715c-17.41.064-35.645 1.049-52.88 2.875-17.885 1.874-36.63 4.845-54.245 8.577-17.584 3.749-27.1 6.21-44.302 11.468-17.203 5.257-35.041 11.754-51.593 18.774-16.568 7.036-33.628 15.36-49.353 24.063-15.726 8.72-24.113 13.866-39.029 23.92-14.9 10.054-30.07 21.474-43.857 33.037-13.248 11.119-20.475 17.694-32.357 29.543l322.822 322.796a70 70 0 0 1 3.113-2.907 64 64 0 0 1 7.418-5.591 63 63 0 0 1 8.101-4.495c3.003-1.398 5.512-2.35 8.673-3.32a61 61 0 0 1 9.039-2.08c2.652-.43 5.655-.7 8.45-.794zm0 0" style="stroke-width:4.06628"/>
  <path fill="#ff7900" d="M721.74 773.016a65 65 0 0 0-3.764-3.415c-2.558-2.144-4.734-3.732-7.546-5.495-2.827-1.763-5.21-3.034-8.244-4.368-3.018-1.35-5.56-2.287-8.768-3.193-3.193-.92-5.83-1.477-9.118-1.953-2.51-.35-4.686-.54-7.005-.604V298.822c16.393.032 26.178.492 43.397 1.985 17.886 1.573 36.677 4.21 54.34 7.64 17.633 3.43 27.211 5.734 44.462 10.69 17.282 4.94 35.216 11.118 51.895 17.852 16.63 6.735 33.834 14.74 49.718 23.19 15.869 8.434 24.335 13.421 39.41 23.205s30.419 20.934 44.397 32.26c13.327 10.784 26.86 22.919 39.14 35.085zm0 0" style="stroke-width:4.06628"/>
  <path d="M677.66 299.187c16.155.033 25.924.493 43 1.986 17.87 1.556 36.646 4.193 54.293 7.624 17.632 3.43 27.195 5.733 44.445 10.673 17.267 4.956 35.185 11.118 51.848 17.853 16.63 6.718 33.818 14.724 49.702 23.173 15.853 8.419 24.32 13.406 39.378 23.19s30.403 20.918 44.366 32.227c13.231 10.721 26.654 22.745 38.87 34.816L721.723 772.524a63 63 0 0 0-3.526-3.209c-2.557-2.144-4.75-3.732-7.593-5.511-2.827-1.763-5.226-3.05-8.276-4.4-3.034-1.35-5.591-2.287-8.816-3.208-3.208-.921-5.861-1.477-9.165-1.954a64 64 0 0 0-6.687-.603zm-.714-.715v455.85c2.462.079 4.702.27 7.307.635a63 63 0 0 1 9.07 1.922c3.177.921 5.718 1.842 8.72 3.177a64 64 0 0 1 8.197 4.352c2.796 1.747 4.972 3.32 7.513 5.463a68 68 0 0 1 3.987 3.653l322.822-322.795c-12.374-12.262-25.955-24.46-39.426-35.372-13.978-11.309-29.338-22.459-44.429-32.259-15.074-9.8-23.556-14.787-39.425-23.237-15.9-8.45-33.104-16.47-49.766-23.205-16.68-6.735-34.629-12.913-51.927-17.869-17.282-4.955-26.845-7.259-44.493-10.69-17.663-3.43-36.47-6.067-54.372-7.64-17.267-1.508-27.02-1.953-43.778-1.985" style="stroke-width:4.06628"/>
  <path fill="#bc0000" d="M741.85 820.714v-1.16c-.063-3.05-.35-6.321-.81-9.196-.524-3.288-1.128-5.925-2.097-9.101-.985-3.177-1.954-5.702-3.351-8.704-1.398-3.018-2.717-5.385-4.512-8.148-1.81-2.796-3.447-4.94-5.623-7.466l-.524-.587 322.393-322.367c11.564 11.611 18.156 18.854 29.259 32.084 11.564 13.771 22.985 28.924 33.024 43.822 10.055 14.883 15.186 23.27 23.906 38.994 8.72 15.74 17.028 32.783 24.05 49.317 7.02 16.55 13.517 34.387 18.775 51.557 5.242 17.186 7.704 26.7 11.453 44.283 3.733 17.582 6.703 36.325 8.577 54.193 1.795 17.075 2.78 35.214 2.86 52.479zm0 0" style="stroke-width:4.06628"/>
  <path d="M1047.326 454.494c11.389 11.451 17.981 18.678 28.989 31.814 11.548 13.755 22.953 28.891 33.008 43.79 10.04 14.867 15.17 23.253 23.874 38.961 8.721 15.709 17.029 32.768 24.034 49.286 7.037 16.535 13.518 34.356 18.76 51.525 5.257 17.17 7.72 26.684 11.452 44.235 3.733 17.583 6.704 36.31 8.578 54.162 1.779 16.948 2.764 34.96 2.86 52.097H742.2v-.81a73 73 0 0 0-.81-9.26c-.525-3.303-1.144-5.956-2.113-9.133-.985-3.208-1.954-5.733-3.368-8.751a63.5 63.5 0 0 0-4.543-8.212c-1.81-2.795-3.447-4.956-5.639-7.481-.095-.127-.206-.238-.301-.35zm0-1.001L724.44 776.336l.746.842c2.176 2.493 3.78 4.653 5.592 7.417a62 62 0 0 1 4.495 8.116c1.398 2.986 2.367 5.496 3.32 8.657.969 3.145 1.572 5.765 2.097 9.037.444 2.875.73 6.115.794 9.165.016.159.016.778.016 1.509h458.094c-.079-17.408-1.064-35.642-2.875-52.891-1.874-17.869-4.845-36.627-8.593-54.226-3.733-17.582-6.195-27.096-11.453-44.298-5.258-17.186-11.755-35.039-18.776-51.605a538 538 0 0 0-24.08-49.349c-8.721-15.724-13.852-24.11-23.907-39.01-10.055-14.914-21.492-30.082-33.056-43.853-11.135-13.278-17.71-20.49-29.529-32.354" style="stroke-width:4.06628"/>
  <path fill="#34c300" d="M168.704 788.836h-16.52l.35-6.56c.174-3.288.349-6.464.365-6.814A537 537 0 0 1 160.38 723c3.431-17.646 5.719-27.208 10.675-44.457 4.956-17.297 11.135-35.23 17.854-51.89a535 535 0 0 1 23.191-49.731c8.45-15.852 13.439-24.333 23.224-39.39 9.784-15.074 20.935-30.433 32.245-44.394a541 541 0 0 1 35.09-39.153L625.05 776.352q-.668.762-1.287 1.477c-2.128 2.557-3.717 4.733-5.48 7.56a59 59 0 0 0-2.208 3.796zm0 0" style="stroke-width:4.06628"/>
  <path d="m302.674 454.494 321.9 321.874c-.38.413-.73.826-1.08 1.238-2.144 2.558-3.732 4.75-5.512 7.593a67 67 0 0 0-2.112 3.621l-447.166-.333H152.55c.079-1.366.19-3.4.301-5.448l.033-.779c.175-3.16.35-6.432.38-6.766 1.573-17.313 4.163-35.435 7.467-52.43 3.43-17.63 5.718-27.193 10.658-44.426 4.956-17.28 11.135-35.213 17.854-51.843 6.735-16.661 14.757-33.847 23.176-49.698 8.434-15.868 13.422-24.318 23.207-39.375 9.77-15.073 20.92-30.4 32.23-44.362 10.722-13.247 22.747-26.668 34.819-38.866zm-.016-1.001c-12.247 12.341-24.446 25.937-35.359 39.422-11.326 13.977-22.477 29.336-32.277 44.41-9.785 15.089-14.789 23.555-23.224 39.438a532 532 0 0 0-23.207 49.762c-6.735 16.677-12.914 34.626-17.886 51.906-4.956 17.297-7.243 26.86-10.674 44.505-3.304 16.995-5.893 35.15-7.482 52.494-.032.381-.222 4.035-.413 7.577a790 790 0 0 1-.333 6.178h16.9l447.595.35a60 60 0 0 1 2.288-3.971c1.747-2.796 3.336-4.972 5.448-7.497.477-.572.985-1.144 1.51-1.715zm0 0" style="stroke-width:4.06628"/>
  <path fill="#fff" d="m146.482 696.332-1.112 5.32-16.107-3.382 14.026 13.246-18.204 6.56 16.123 3.383-1.112 5.258-27.178-5.718 1.032-4.908 19.284-6.687-14.995-13.755 1.064-5.035zM142.161 658.482q5.766 1.62 8.673 7.052c1.938 3.622 2.35 7.402 1.255 11.325-1.112 3.94-3.431 6.941-6.973 9.022-3.543 2.08-7.196 2.589-10.977 1.54-3.891-1.096-6.766-3.399-8.64-6.925-1.86-3.526-2.225-7.322-1.081-11.404 1.08-3.844 3.383-6.846 6.91-8.958 3.526-2.128 7.148-2.684 10.833-1.652m-1.461 5.257c-2.335-.667-4.607-.317-6.799 1.001q-3.264 2.001-4.336 5.813c-.715 2.526-.493 4.924.65 7.196 1.145 2.255 2.924 3.732 5.322 4.4 2.415.682 4.75.364 6.974-.954 2.24-1.318 3.716-3.24 4.431-5.781.7-2.526.445-4.94-.778-7.227s-3.05-3.765-5.464-4.448M153.058 627.923c3.622 1.255 6.258 3.669 7.91 7.227 1.636 3.557 1.811 7.21.493 10.96l-4.146 11.896-26.225-9.15 4.145-11.896c1.303-3.748 3.701-6.512 7.196-8.275q5.218-2.669 10.627-.762m-1.827 5.21c-2.208-.763-4.4-.62-6.56.46s-3.654 2.78-4.464 5.099l-2.35 6.766 16.281 5.67 2.35-6.75c.811-2.32.716-4.575-.317-6.766-1.016-2.192-2.668-3.685-4.94-4.48M177.266 605.384l-8.911 21.506-25.67-10.641 8.753-21.11 4.86 2.018-6.655 16.074 4.67 1.937 3.86-9.307 4.972 2.065-3.86 9.307 6.29 2.605 6.83-16.47zM191.308 575.842l-2.764 5.718-12.136 1.175-3.86 7.99 9.372 4.526-2.367 4.908-25.018-12.087 7.64-15.788c1.097-2.272 2.796-3.828 5.084-4.67 2.303-.842 4.51-.746 6.655.286 1.668.81 2.939 2.033 3.797 3.685.842 1.668 1.16 3.462.92 5.416zm-19.76-3.034c-.827-.397-1.7-.429-2.606-.095-.92.333-1.588.953-2.033 1.858l-5.258 10.88 6.164 2.986 5.257-10.896c.445-.89.509-1.81.191-2.732-.302-.92-.874-1.604-1.715-2M208.828 544.155l-2.954 5.273-6.72-.43-7.163 12.74 3.812 5.59-2.954 5.273-17.569-25.46 2.669-4.75zm-15.614 4.494-10.738-.619 6.1 8.895zM204.89 508.878l-5.211 8.132 18.966 12.15-2.954 4.575-18.95-12.15-5.179 8.084-4.432-2.843 13.327-20.791zM240.264 497.76l-13.597 18.9-22.556-16.232 13.375-18.552 4.272 3.082-10.182 14.12 4.099 2.954 5.893-8.164 4.384 3.145-5.893 8.18 5.512 3.97 10.42-14.469zM443.681 332.272l-4.75 2.382-5.416-10.768-14.407 7.242 5.417 10.77-4.877 2.445-12.47-24.81 4.861-2.445 4.639 9.212 14.407-7.243-4.638-9.212 4.75-2.399zM450.273 329.445l-11.389-25.35 4.972-2.224 11.39 25.334zM481.09 303.27c1.286 3.192 1.223 6.416-.207 9.64s-3.86 5.512-7.243 6.878c-3.829 1.54-7.514 1.477-11.088-.191-3.177-1.493-5.544-4.145-7.084-7.973-1.589-3.971-1.62-7.704-.111-11.166 1.525-3.479 4.288-6.02 8.323-7.64 2.716-1.08 5.337-1.382 7.879-.874 1.54.302 3.32 1.033 5.321 2.192l-3.066 4.447c-2.684-1.62-5.448-1.874-8.26-.746-2.573 1.032-4.304 2.62-5.21 4.749-.89 2.128-.81 4.51.239 7.132.969 2.43 2.478 4.13 4.51 5.082 2.034.953 4.21.97 6.545.033s3.844-2.462 4.543-4.59c.286-.81.43-1.732.413-2.764l-5.972 2.398-2.002-5.003 11.294-4.543zM516.306 304.127l-5.052 1.683-3.812-11.435-15.297 5.098 3.812 11.436-5.162 1.731-8.784-26.35 5.162-1.731 3.257 9.8 15.312-5.099-3.272-9.8 5.051-1.683zM810.154 297.615l-22.683-5.29 6.322-27.049 22.27 5.194-1.208 5.13-16.948-3.954-1.144 4.923 9.8 2.288-1.222 5.257-9.817-2.303-1.54 6.623 17.377 4.05zM841.653 306.7l-6.465-1.906-4.718-11.833-10.389 7.417-6.465-1.906 14.805-10.689-6.132-15.709 6.465 1.89 4.21 10.484 9.165-6.56 6.465 1.89-13.629 9.911zM875.121 294.47l-9.101-3.224-7.514 21.22-5.13-1.811 7.513-21.22-9.054-3.209 1.763-4.971 23.287 8.26zM897.44 327.984l-5.862-2.462-1.811-12.056-8.18-3.446-4.035 9.593-5.02-2.112 10.77-25.604 16.155 6.798c2.319.969 3.97 2.589 4.924 4.844.969 2.24.985 4.463.063 6.655a8.15 8.15 0 0 1-3.479 3.971c-1.62.937-3.399 1.35-5.353 1.223zm1.985-19.902c.35-.842.333-1.716-.048-2.605-.38-.905-1.032-1.54-1.954-1.922l-11.15-4.686-2.653 6.29 11.15 4.702c.922.38 1.843.397 2.749.047.905-.349 1.54-.953 1.906-1.826M923.823 340.738l-20.92-10.245 12.232-24.953 20.522 10.055-2.319 4.733-15.63-7.656-2.224 4.543 9.054 4.431-2.382 4.844-9.039-4.43-3.002 6.098 16.028 7.847zM956.34 359.194l-4.735-2.7 8.133-14.31-16.9 9.323-.684-19.33-8.149 14.31-4.654-2.652 13.74-24.143 4.353 2.478.476 20.41 17.68-10.086 4.48 2.542zM981.071 375.093l-19.506-12.738 15.202-23.253 19.14 12.5-2.875 4.4-14.582-9.515-2.764 4.225 8.435 5.512-2.954 4.527-8.435-5.512-3.717 5.686 14.947 9.753zM1101.953 478.191c-5.258.318-9.515-1.445-12.787-5.273-2.653-3.113-3.844-6.67-3.59-10.69.27-4.018 1.89-7.306 4.908-9.879 3.066-2.62 6.608-3.716 10.595-3.32 4.003.414 7.355 2.209 10.087 5.401 3.224 3.955 4.257 8.323 3.129 13.12l-5.162-1.462c.54-3.224-.191-6.02-2.177-8.338-1.683-1.986-3.78-3.098-6.29-3.352-2.494-.254-4.702.43-6.592 2.05-1.938 1.651-2.986 3.732-3.13 6.241q-.237 3.789 2.288 6.767c1.874 2.191 4.527 3.335 7.942 3.414zM1118.743 510.133l-3.638-4.813 3.066-5.988-8.816-11.658-6.64 1.254-3.653-4.828 30.37-5.893 3.289 4.336zm2.128-16.106 4.86-9.594-10.578 2.034zM1152.64 520.616l-5.353-8.022-18.728 12.517-3.018-4.527 18.712-12.516-5.337-7.99 4.384-2.922 13.724 20.537zM1152.259 563.643l-3.066-5.225 3.749-5.575-7.402-12.612-6.735.477-3.066-5.21 30.832-2.35 2.764 4.7zm3.971-15.756 5.94-8.974-10.737.794zM1173.068 586.563c-2.43 1.191-4.83 1.175-7.228-.048-2.398-1.239-4.51-3.637-6.322-7.21-2.494-4.909-3.415-9.785-2.748-14.63l5.258.843c-.429 3.78.286 7.528 2.144 11.229 1.223 2.24 2.383 3.748 3.48 4.558 1.095.81 2.112.985 3.065.54.953-.397 1.43-1.302 1.414-2.747 0-1.446-.509-3.447-1.494-6.02-1.747-4.527-2.382-7.846-1.874-9.927s1.747-3.621 3.733-4.59c2.144-1.033 4.352-.842 6.608.587 2.256 1.414 4.162 3.574 5.718 6.512q2.646 5.194 2.288 11.722l-5.131-.746c.127-2.923-.572-5.877-2.097-8.895-.651-1.302-1.414-2.462-2.335-3.462-.905-.985-1.747-1.255-2.541-.795-.763.318-1.096 1.128-1.001 2.383.111 1.27.683 3.224 1.715 5.877 1.684 4.145 2.113 7.417 1.319 9.816-.794 2.382-2.113 4.05-3.971 5.003M1198.213 607.958l-3.892-8.832-20.602 9.07-2.192-4.988 20.602-9.069-3.876-8.8 4.83-2.112 9.959 22.602zM1189.206 647.078l-2.207-5.94 7.529-9.594-3.114-8.307-9.753 3.637-1.906-5.098 26.035-9.72 6.131 16.423c.874 2.366.826 4.653-.142 6.909-.985 2.24-2.59 3.78-4.814 4.606q-2.596.977-5.289.19c-1.78-.523-3.304-1.556-4.543-3.065zm15.853-12.182c.858-.318 1.477-.938 1.875-1.827.38-.89.397-1.81.047-2.748l-4.226-11.325-6.401 2.399 4.225 11.324c.35.938.97 1.62 1.843 2.034.873.412 1.763.46 2.637.143M1212.716 676.224c-3.813 1.16-7.498.73-11.088-1.271-3.59-1.985-5.973-4.956-7.164-8.863s-.858-7.687 1-11.356c1.86-3.653 4.671-6.052 8.42-7.195 3.86-1.192 7.529-.795 11.008 1.159 3.462 1.97 5.83 4.971 7.052 9.022 1.176 3.828.842 7.592-.984 11.277-1.811 3.7-4.575 6.099-8.244 7.227m-1.589-5.21c2.335-.715 4.05-2.224 5.178-4.51 1.112-2.304 1.287-4.718.525-7.228-.763-2.51-2.24-4.415-4.432-5.702-2.176-1.302-4.464-1.588-6.846-.857-2.399.73-4.194 2.255-5.37 4.574-1.175 2.319-1.381 4.733-.603 7.243.763 2.51 2.272 4.415 4.543 5.67q3.408 1.905 7.005.81M1214.844 699.7l-2.812-11.754-10.118 2.414-1.255-5.305 27.02-6.449 4.066 17.059c.588 2.446.254 4.717-.985 6.83-1.254 2.112-3.034 3.43-5.337 3.986-2.271.54-4.447.16-6.544-1.16-2.113-1.302-3.447-3.176-4.035-5.622m9.308 1.476c.89-.206 1.573-.73 2.081-1.572.493-.826.62-1.747.398-2.716l-2.812-11.754-6.656 1.589 2.812 11.753c.222.969.747 1.731 1.573 2.24.825.54 1.683.683 2.605.46M1212.652 743.521l-.921-5.226 11.897-2.08-2.78-15.883-11.881 2.064-.937-5.352 27.353-4.781.937 5.352-10.166 1.78 2.78 15.883 10.166-1.763.921 5.225zM1213.478 750.764l27.544-3.59.699 5.4-27.544 3.59zM1223.39 788.391c-4.464-2.795-6.91-6.687-7.37-11.706-.35-4.066.73-7.671 3.272-10.8s5.766-4.86 9.705-5.21q6.028-.548 10.58 3.43c3.017 2.637 4.717 6.052 5.082 10.245.35 5.083-1.334 9.244-5.035 12.5l-3.368-4.177c2.32-2.335 3.336-5.019 3.066-8.068-.238-2.59-1.302-4.702-3.193-6.37-1.89-1.651-4.082-2.366-6.56-2.144-2.541.223-4.59 1.318-6.179 3.288-1.588 1.954-2.271 4.24-2.033 6.83q.38 4.313 4.48 7.385zm0 0" style="stroke-width:4.06628"/>
  <path fill="none" stroke="#fff" stroke-linejoin="round" stroke-width="7.194" d="m303.802 452.016-46.955-46.951M674.833 298.472v-66.55M1046.055 451.841l46.86-46.871"/>
  <path fill="#373435" d="m358.302 461.419 59.392 59.371c63.03-53.097 142.246-87.405 228.785-94.521v-84.038c-109.54 7.465-209.691 51.033-288.177 119.188M82.88 892.284h1184.224v217.346H82.88Zm0 0" style="stroke-width:4.06628"/>
  <path d="M104.658 812.756c.016-.635.38-11.674.38-11.674H599.97v.016a82 82 0 0 0-.826 2.748 78 78 0 0 0-2.033 8.91zm0 0" style="stroke-width:4.06628"/>
  <path fill="#373435" d="M279.276 757.832c13.725-69.902 45.287-133.229 89.637-185.215l-59.345-59.34c-59.201 67.552-100.247 151.558-115.21 244.555ZM706.682 343.025v84.038c86.713 7.132 165.818 41.535 228.721 94.585l59.377-59.372c-78.311-68.075-178.304-111.77-288.098-119.251M1038.526 505.034l-59.33 59.324c53.548 62.786 88.398 141.964 95.88 228.846h83.791c-7.768-109.928-51.847-209.977-120.341-288.17" style="stroke-width:4.06628"/>
  <path fill="#4b4b4d" d="M1250.981 1092.698H99.003v-186.58H1250.98Zm0 0" style="stroke-width:4.06628"/>
</svg>
