<svg xmlns="http://www.w3.org/2000/svg" viewBox="0 0 375.375 749.656" role="img" aria-labelledby="title">
  <title id="title">Verkehrszeichen D4-3__2 - Narrow marker (right)</title>
  <title>Escudo nacional de Costa Rica</title>
  <path d="M-3938.701-2146.753h-242.19c-36.682 0-66.213-36.27-66.213-66.272v-615.118c0-36.742 29.531-66.273 66.213-66.273h242.19c17.754 0 64.988 29.531 64.988 66.273v615.118c0 30.001-47.234 66.272-64.988 66.272" style="fill:#000;fill-opacity:1;fill-rule:evenodd;stroke:none" transform="translate(4248.094 2895.406)"/>
  <path d="m-4041.656-2894.416-205.448 205.097v-142.224c0-32.049 29.942-62.873 65.4-62.873zM-4247.104-2537.024l340.931-343.448c40.494 40.082 32.46 30.353 32.46 120.246l-373.39 370.873zM-4247.104-2237.871l373.391-374.684v150.6l-318.954 313.918c-23.201-5.919-54.437-32.469-54.437-62.41zM-4044.585-2147.164l170.872-169.647v104.66c0 20.22-41.778 64.987-65.802 64.987z" style="fill:#fff;fill-opacity:1;fill-rule:evenodd;stroke:none" transform="translate(4248.094 2895.406)"/>
  <path d="M-3938.701-2146.753h-242.19c-36.682 0-66.213-36.27-66.213-66.272v-615.118c0-36.742 29.531-66.273 66.213-66.273h242.19c17.754 0 64.988 29.531 64.988 66.273v615.118c0 30.001-47.234 66.272-64.988 66.272z" style="fill:none;stroke:#000;stroke-width:2;stroke-miterlimit:4;stroke-opacity:1;stroke-dasharray:none" transform="translate(4248.094 2895.406)"/>
</svg>
