<svg xmlns="http://www.w3.org/2000/svg" viewBox="0 0 845.162 106.379" role="img" aria-labelledby="title">
  <title id="title">Verkehrszeichen D4-2-3__2 - End of road curve marker (double, used at T-junctions)</title>
  <title>Escudo nacional de Costa Rica</title>
  <path d="M-957.579-117.07c-5.849 0-10.56-4.727-10.56-10.56v-85.25c0-5.832 4.711-10.569 10.56-10.569h824.033c5.833 0 10.57 4.737 10.57 10.569v85.25c0 5.833-4.737 10.56-10.57 10.56z" style="fill:#000;fill-opacity:1;fill-rule:evenodd;stroke:none" transform="translate(968.138 223.449)"/>
  <path d="M-858.58-223.45h-52.553l-57.014 53.264 57.014 53.117h52.553l-52.844-52.98zM-232.543-223.45h52.552l57.014 53.264-57.014 53.117h-52.552l52.843-52.98z" style="fill:#fff;fill-opacity:1;fill-rule:evenodd;stroke:none" transform="translate(968.138 223.449)"/>
  <path d="M-753.167-223.45h-52.707l-56.878 53.264 56.878 53.117h52.707l-52.844-52.98zM-337.956-223.45h52.706l56.877 53.264-56.877 53.117h-52.706l52.843-52.98z" style="fill:#fff;fill-opacity:1;fill-rule:evenodd;stroke:none" transform="translate(968.138 223.449)"/>
  <path d="M-647.771-223.45h-52.69l-57.006 53.264 57.006 53.117h52.69l-52.844-52.98zM-443.361-223.45h52.706l57.015 53.264-57.015 53.117h-52.706l52.844-52.98z" style="fill:#fff;fill-opacity:1;fill-rule:evenodd;stroke:none" transform="translate(968.138 223.449)"/>
  <path d="m-595.065-223.45-56.45 53.264 56.45 53.117h49.503l-49.503-52.98 49.503-53.4z" style="fill:#fff;fill-opacity:1;fill-rule:evenodd;stroke:none" transform="translate(968.138 223.449)"/>
  <path d="m-496.05-223.45 56.45 53.264-56.45 53.117h-49.52l49.52-52.98-49.52-53.4z" style="fill:#fff;fill-opacity:1;fill-rule:evenodd;stroke:none" transform="translate(968.138 223.449)"/>
</svg>
