<svg xmlns="http://www.w3.org/2000/svg" viewBox="0 0 339.438 847.063" role="img" aria-labelledby="title">
  <title id="title">Verkehrszeichen D4-2-2 - Pass either side Chevron</title>
  <title>Escudo nacional de Costa Rica</title>
  <path d="M-3102.694-1302.958h270.675c18.696 0 33.719-16.727 33.719-33.693v-777.708c0-18.662-15.023-33.684-33.719-33.684h-270.675c-9.447 0-33.068 15.022-33.068 33.684v777.708c0 16.966 23.62 33.693 33.068 33.693" style="fill:#000;fill-opacity:1;fill-rule:evenodd;stroke:none" transform="translate(3136.75 2149.031)"/>
  <path d="m-2967.46-2148.043 169.58 169.373-.418 134.575-169.16-169.579-168.714 169.58v-135.655l168.715-168.295z" style="fill:#fff;fill-opacity:1;fill-rule:evenodd;stroke:none" transform="translate(3136.75 2149.031)"/>
  <path d="m-2967.46-1877.582 169.58 169.373-.418 134.575-169.16-169.578-168.714 169.578v-135.654l168.715-168.294z" style="fill:#fff;fill-opacity:1;fill-rule:evenodd;stroke:none" transform="translate(3136.75 2149.031)"/>
  <path d="m-2967.46-1607.113 169.16 167.644v104.316c0 6.672-4.085 15.468-9.241 20.633l-159.918-160.372-156.493 159.292c-6.44-3.46-12.427-15.887-12.016-23.612v-101.336z" style="fill:#fff;fill-opacity:1;fill-rule:evenodd;stroke:none" transform="translate(3136.75 2149.031)"/>
  <path d="M-3102.694-1302.958h270.675c18.696 0 33.719-16.727 33.719-33.693v-777.708c0-18.662-15.023-33.684-33.719-33.684h-270.675c-9.447 0-33.068 15.022-33.068 33.684v777.708c0 16.966 23.62 33.693 33.068 33.693z" style="fill:none;stroke:#000;stroke-width:2;stroke-miterlimit:4;stroke-opacity:1;stroke-dasharray:none" transform="translate(3136.75 2149.031)"/>
</svg>
