<svg xmlns="http://www.w3.org/2000/svg" viewBox="0 0 847.227 206.449" role="img" aria-labelledby="title">
  <title id="title">Verkehrszeichen D4-2-3 - End of road Curve marker (used at T-junctions)</title>
  <title>Escudo nacional de Costa Rica</title>
  <path d="M-1496.443-413.865a20.526 20.526 0 0 1-20.572-20.58v-165.289a20.526 20.526 0 0 1 20.572-20.58h806.091c11.4 0 20.563 9.172 20.563 20.58v165.288c0 11.408-9.172 20.58-20.563 20.58z" style="fill:#000;fill-opacity:1;fill-rule:evenodd;stroke:none" transform="translate(1517.015 620.315)"/>
  <path d="M-1305.47-619.844h-101.601l-109.944 102.818 109.944 102.69h101.601l-101.987-102.167z" style="fill:#fff;fill-opacity:1;fill-rule:evenodd;stroke:none" transform="translate(1517.015 620.315)"/>
  <path d="M-1100.21-619.844h-101.602l-109.944 102.818 109.944 102.69h101.601l-101.987-102.167zM-1100.21-619.844h101.601l109.944 102.818-109.944 102.69h-101.602l101.987-102.167zM-881.325-619.844h101.601l109.944 102.818-109.944 102.69h-101.6l101.986-102.167z" style="fill:#fff;fill-opacity:1;fill-rule:evenodd;stroke:none" transform="translate(1517.015 620.315)"/>
</svg>
