<svg xmlns="http://www.w3.org/2000/svg" xml:space="preserve" viewBox="0 -.321 1200.8 750.8" role="img" aria-labelledby="title">
  <title id="title">Verkehrszeichen D4-V110__2 - Curve marker with Advisory Speed (right, used in VIC and Queensland)</title>
  <path d="M.4 700.079c0 27.611 22.389 50 50 50h1100c27.622 0 50-22.389 50-50v-650c0-27.611-22.378-50-50-50H50.4c-27.611 0-50 22.389-50 50Z" style="fill:#fee011;fill-opacity:1;fill-rule:nonzero;stroke:none;stroke-width:4.00000095;stroke-miterlimit:4;stroke-dasharray:none;stroke-opacity:1"/>
  <path d="M900.4 30.08h-270l270 345-270 345h270l270-345z" style="fill:#000;fill-opacity:1;stroke:none;stroke-width:.60000002;stroke-linejoin:miter;stroke-miterlimit:4;stroke-dasharray:none;stroke-dashoffset:0;stroke-opacity:1"/>
  <path d="m153.317 604.508 20.07 50.571h-19.753l-13.646-34.37-10.33 12.56v21.81H111.4v-92.33l18.258-7.67v48.967l19.709-23.967h24.02zM217.98 655.08v-75h18.82v5.21c5.166-4.096 12.07-6.652 19.664-6.144 7.593.507 14.108 3.96 18.693 8.708 8.155-8.454 20.569-11.082 31.397-6.633 10.837 4.43 17.914 15.06 17.914 26.857v47.001h-18.82v-44.373c0-6.977-5.6-12.631-12.505-12.631a12.42 12.42 0 0 0-8.843 3.706 12.7 12.7 0 0 0-3.661 8.925v44.373h-18.83v-44.373c0-3.053-1.114-6.36-3.651-8.925a12.46 12.46 0 0 0-8.853-3.706c-6.905 0-12.504 5.654-12.504 12.631v44.373zM411.825 555.08h15.368l-57.621 100h-15.368M474.827 611.585v43.494h-18.42v-92.316l18.42-7.684v29.513a28.2 28.2 0 0 1 6.651-3.68 27.4 27.4 0 0 1 7.657-1.739 27.4 27.4 0 0 1 14.942 3.09c9.406 4.956 15.323 14.933 15.323 25.825v46.991h-18.404v-43.494c0-7.457-5.862-13.501-13.093-13.501-3.163 0-6.588 1.214-9.252 3.96-2.654 2.745-3.824 6.28-3.824 9.541M60.4 392.288h163.885v-51.561h-91.872l91.89-143.73v294.729h54.634v-99.438h23.418v-51.561h-23.418V95.079h-54.634L60.4 351.456zM520.203 332.478c.187-11.592-3.414-22.914-10.244-32.17-6.829-9.255-16.488-15.905-27.443-18.897a49.8 49.8 0 0 0-32.996 2.4c-10.424 4.546-19.068 12.525-24.55 22.68l-53.969-7.594L381.938 95.08h180.84v55.533h-129.45l-4.322 80.568c33.256-11.808 69.874-8.375 100.47 9.417 22.26 15.528 37.5 39.538 42.298 66.648 7.736 37.885 3.486 77.297-12.113 112.558a126.4 126.4 0 0 1-13.38 23.714 125 125 0 0 1-19.976 21.88c-15.753 13.569-35.216 23.427-56.926 27.56a120.7 120.7 0 0 1-62.802-4.798 121.4 121.4 0 0 1-26.329-13.075 123.6 123.6 0 0 1-20.83-17.208l38.415-39.107a70.6 70.6 0 0 0 12.904 9.849 69.5 69.5 0 0 0 16.444 7.108 68.84 68.84 0 0 0 38.855-.278c13.191-3.972 24.406-11.62 32.799-21.315a72 72 0 0 0 10.055-15.078 72.6 72.6 0 0 0 5.616-15.43 173.4 173.4 0 0 0 5.697-51.147" style="fill:#000;fill-opacity:1;fill-rule:evenodd;stroke:none"/>
</svg>
