<svg xmlns="http://www.w3.org/2000/svg" viewBox="0 0 606 1006" role="img" aria-labelledby="title">
  <title id="title">Verkehrszeichen G9-79[100] - 100&amp;nbsp;km/h Speed Limit Ahead</title>
  <g transform="translate(0 709)">
    <rect width="604" height="1004" x="1" y="-708" rx="77" ry="77" style="opacity:1;fill:#000;fill-opacity:1;fill-rule:nonzero;stroke:none;stroke-width:148.74116516;stroke-linecap:square;stroke-linejoin:round;stroke-miterlimit:4;stroke-dasharray:none;stroke-opacity:1"/>
    <rect width="600" height="1000" x="3" y="-706" rx="75" ry="75" style="opacity:1;fill:#fff;fill-opacity:1;fill-rule:nonzero;stroke:none;stroke-width:147.95222473;stroke-linecap:square;stroke-linejoin:round;stroke-miterlimit:4;stroke-dasharray:none;stroke-opacity:1"/>
    <g aria-label="AHEAD" style="font-style:normal;font-variant:normal;font-weight:400;font-stretch:normal;font-size:179.10447693px;line-height:0;font-family:&quot;Roadgeek 2005 Series D&quot;;-inkscape-font-specification:&quot;Roadgeek 2005 Series D&quot;;letter-spacing:0;word-spacing:0;fill:#a40;fill-opacity:1;stroke:none;stroke-width:4.47761202">
      <path d="m123.563 217-11.82-33.672H74.31L62.489 217H42.25L83.623 97h18.806l41.373 120Zm-30.268-86.687-12.358 33.672h24zM224.646 217v-52.299h-43.702V217h-18.985V97h18.985v48.358h43.702V97h18.985v120ZM272.15 217V97h70.746v18.985h-51.76v29.373h34.925v19.343h-34.926v32.956h55.523V217ZM437.696 217l-11.821-33.672h-37.433L376.622 217h-20.24l41.374-120h18.806l41.373 120Zm-30.269-86.687-12.358 33.672h24zM557.75 156.82q0 18.09-5.552 31.881-5.373 13.612-15.582 21.493-3.403 3.224-8.06 4.836-4.478 1.612-9.134 1.97h-43.344V97h38.687q4.478 0 7.701.358 3.403.18 6.09.896t4.836 1.97 4.657 3.045q9.492 8.238 14.507 22.03 5.194 13.611 5.194 31.522m-19.343 0q0-12.178-2.687-21.67-2.507-9.493-6.985-14.15-2.328-2.15-5.373-3.582-3.045-1.433-6.806-1.433h-21.493v81.672h18.986q4.656 0 7.701-1.075 3.224-1.075 5.731-3.582 5.374-5.373 8.06-14.687 2.866-9.492 2.866-21.492" style="font-style:normal;font-variant:normal;font-weight:400;font-stretch:normal;line-height:0;font-family:&quot;Roadgeek 2005 Series D&quot;;-inkscape-font-specification:&quot;Roadgeek 2005 Series D&quot;;fill:#000;stroke:none;stroke-width:4.47761202" transform="translate(3 -3)"/>
    </g>
    <circle cx="303" cy="-331" r="297" style="opacity:1;fill:#000;fill-opacity:1;fill-rule:nonzero;stroke:none;stroke-width:106.69789886;stroke-linecap:square;stroke-linejoin:round;stroke-miterlimit:4;stroke-dasharray:none;stroke-opacity:1"/>
    <circle cx="303" cy="-331" r="237" style="opacity:1;fill:#fff;fill-opacity:1;fill-rule:nonzero;stroke:none;stroke-width:85.14276886;stroke-linecap:square;stroke-linejoin:round;stroke-miterlimit:4;stroke-dasharray:none;stroke-opacity:1"/>
    <path d="M117.824-215.15v-190.202H103.3v-25.245q10.029-.691 15.908-4.841 6.225-4.15 10.029-11.412h22.132v231.7zM334.444-331.346q0 26.628-3.113 45.303-2.766 18.674-10.028 35.274-8.646 20.749-21.787 30.432Q286.72-211 267.009-211q-20.75 0-33.89-9.337-12.796-9.683-21.442-30.432-7.262-16.946-10.375-35.274-2.766-18.675-2.766-45.303 0-26.282 2.766-44.957 3.113-19.02 10.375-35.62 8.991-20.748 21.787-29.74Q246.605-451 267.009-451q20.057 0 32.853 9.337 12.795 8.992 21.44 30.432 3.459 8.646 5.88 17.292 2.766 8.645 4.15 18.328 1.728 9.337 2.42 20.404.692 10.72.692 23.861m-31.816 0q0-9.683-.691-17.637-.346-7.954-1.384-14.524-.691-6.917-2.075-13.141-1.383-6.225-3.112-12.45-4.496-15.562-11.412-22.478-6.57-6.917-16.945-6.917-21.441 0-29.395 28.703-4.15 13.142-5.88 26.629-1.383 13.14-1.383 32.507 0 9.337.346 17.29.692 7.609 1.384 14.525 1.037 6.571 2.42 13.142t3.113 13.487q7.954 28.703 29.395 28.703 10.374 0 16.945-6.917 6.916-6.916 11.412-21.786 2.075-6.917 3.458-13.142 1.383-6.57 2.075-13.487 1.038-6.916 1.383-14.524.346-7.954.346-17.983M512.7-331.346q0 26.628-3.113 45.303-2.766 18.674-10.028 35.274-8.646 20.749-21.787 30.432Q464.976-211 445.265-211q-20.75 0-33.89-9.337-12.796-9.683-21.442-30.432-7.262-16.946-10.374-35.274-2.767-18.675-2.767-45.303 0-26.282 2.767-44.957 3.112-19.02 10.374-35.62 8.992-20.748 21.787-29.74Q424.861-451 445.265-451q20.057 0 32.853 9.337 12.795 8.992 21.44 30.432 3.459 8.646 5.88 17.292 2.766 8.645 4.15 18.328 1.729 9.337 2.42 20.404.692 10.72.692 23.861m-31.816 0q0-9.683-.691-17.637-.346-7.954-1.384-14.524-.691-6.917-2.075-13.141-1.383-6.225-3.112-12.45-4.496-15.562-11.412-22.478-6.57-6.917-16.945-6.917-21.441 0-29.395 28.703-4.15 13.142-5.88 26.629-1.382 13.14-1.382 32.507 0 9.337.345 17.29.692 7.609 1.384 14.525 1.037 6.571 2.42 13.142t3.113 13.487q7.954 28.703 29.395 28.703 10.374 0 16.945-6.917 6.916-6.916 11.412-21.786 2.075-6.917 3.458-13.142 1.384-6.57 2.075-13.487 1.038-6.916 1.383-14.524.346-7.954.346-17.983" style="font-style:normal;font-variant:normal;font-weight:400;font-stretch:normal;font-size:345.82131958px;line-height:0;font-family:&quot;Roadgeek 2005 Series C&quot;;-inkscape-font-specification:&quot;Roadgeek 2005 Series C&quot;;letter-spacing:0;word-spacing:0;fill:#000;fill-opacity:1;stroke:none;stroke-width:8.64553261"/>
  </g>
</svg>
