<svg xmlns="http://www.w3.org/2000/svg" viewBox="0 0 350 583" role="img" aria-labelledby="title">
  <title id="title">Verkehrszeichen G9-V203 - Keep Clear (used in VIC)</title>
  <defs>
    <clipPath id="a" clipPathUnits="userSpaceOnUse">
      <path d="M0 0h842.01v595.396H0z" clip-rule="evenodd"/>
    </clipPath>
  </defs>
  <path d="M105.322 190.988h206.27a25.78 25.78 0 0 1 25.783 25.784v378.16a25.79 25.79 0 0 1-16.293 23.974 25.8 25.8 0 0 1-9.49 1.81h-206.27a25.78 25.78 0 0 1-25.784-25.784v-378.16a25.786 25.786 0 0 1 25.784-25.784" style="fill:#fff;fill-opacity:1;fill-rule:evenodd;stroke:none;stroke-width:2.09234" transform="matrix(1.3548 0 0 -1.35509 -107.42 841.465)"/>
  <path d="M0 0h98.542a10.27 10.27 0 0 1 10.269 10.269v180.736a10.27 10.27 0 0 1-10.269 10.269H-.041a10.27 10.27 0 0 1-9.548-6.489 10.3 10.3 0 0 1-.721-3.78V10.269a10.28 10.28 0 0 1 3.008-7.261A10.27 10.27 0 0 1-.041 0v4.108a6.163 6.163 0 0 0-6.162 6.161v180.736a6.165 6.165 0 0 0 6.162 6.162h98.583a6.165 6.165 0 0 0 6.162-6.162V10.269a6.17 6.17 0 0 0-3.894-5.729 6.2 6.2 0 0 0-2.268-.432H0z" style="fill:#0a0a0a;fill-opacity:1;fill-rule:evenodd;stroke:none" transform="matrix(2.83471 0 0 -2.8353 35.389 576.836)"/>
  <path d="M0 0h98.579a12.2 12.2 0 0 1 2.242.206 12.3 12.3 0 0 1 4.501 1.803c.707.462 1.367.997 1.971 1.6a12.35 12.35 0 0 1 3.403 6.472 12 12 0 0 1 .206 2.242v180.736a12.287 12.287 0 0 1-2.009 6.743 12.3 12.3 0 0 1-3.571 3.571 12.3 12.3 0 0 1-5.636 1.959q-.562.05-1.107.05H-.004a12.342 12.342 0 0 1-6.743-2.009 12.4 12.4 0 0 1-3.571-3.571 12.3 12.3 0 0 1-2.009-6.743V12.323a12.287 12.287 0 0 1 2.009-6.743 12.25 12.25 0 0 1 3.571-3.571A12.3 12.3 0 0 1-1.112.05Q-.55 0-.004 0v.411a11.91 11.91 0 0 0-11.912 11.912v180.736A11.91 11.91 0 0 0-.004 204.971h98.583a11.91 11.91 0 0 0 11.912-11.912V12.323A11.91 11.91 0 0 0 98.579.411H0z" style="fill:#f5f5f5;fill-opacity:1;fill-rule:evenodd;stroke:none" transform="matrix(2.83471 0 0 -2.8353 35.284 582.66)"/>
  <path d="M0 0v6.96l2.222 2.828L7.377 0h3.714L4.445 12.618l6.222 7.92H6.488L0 12.279v8.259h-3.286V0" style="fill:#0a0a0a;fill-opacity:1;fill-rule:evenodd;stroke:none" transform="matrix(2.83471 0 0 -2.8353 94.074 116.804)"/>
  <path d="M0 0h-9.448v-4.929h5.973v-3.286h-5.973v-5.751H0v-3.286h-12.734V3.286H0" style="fill:#0a0a0a;fill-opacity:1;fill-rule:evenodd;stroke:none" transform="matrix(2.83471 0 0 -2.8353 170.925 67.89)"/>
  <path d="M0 0h-9.448v-4.929h5.973v-3.286h-5.973v-5.751H0v-3.286h-12.734V3.286H0" style="fill:#0a0a0a;fill-opacity:1;fill-rule:evenodd;stroke:none" transform="matrix(2.83471 0 0 -2.8353 216.336 67.89)"/>
  <path d="M0 0h4.929a2.465 2.465 0 1 0 0-4.929H.001v-3.286h4.928a5.748 5.748 0 0 1 4.066 9.817 5.75 5.75 0 0 1-4.066 1.684h-8.215v-20.538H0z" style="fill:#0a0a0a;fill-opacity:1;fill-rule:evenodd;stroke:none" transform="matrix(2.83471 0 0 -2.8353 234.966 67.89)"/>
  <path d="M0 0a6.572 6.572 0 0 0-12.464-1.791 16.23 16.23 0 0 0-.093 13.432A6.778 6.778 0 0 0 0 11.199l-3.087-1.125a3.491 3.491 0 0 1-6.469.227A12.94 12.94 0 0 1-9.482-.41 3.287 3.287 0 0 1-3.25.485z" style="fill:#0a0a0a;fill-opacity:1;fill-rule:evenodd;stroke:none" transform="matrix(2.83471 0 0 -2.8353 98.15 200.936)"/>
  <path d="M0 0h9.448v-3.286H-3.286v20.538H0" style="fill:#0a0a0a;fill-opacity:1;fill-rule:evenodd;stroke:none" transform="matrix(2.83471 0 0 -2.8353 119.206 206.482)"/>
  <path d="M0 0h-9.448v-4.929h5.973v-3.286h-5.973v-5.751H0v-3.286h-12.734V3.286H0" style="fill:#0a0a0a;fill-opacity:1;fill-rule:evenodd;stroke:none" transform="matrix(2.83471 0 0 -2.8353 190.089 166.884)"/>
  <path d="m0 0 6.983 20.538h3.491L17.457 0h-3.47L8.729 15.464 6.508 8.932h4.441l1.117-3.286H5.391L3.471 0z" style="fill:#0a0a0a;fill-opacity:1;fill-rule:evenodd;stroke:none" transform="matrix(2.83471 0 0 -2.8353 194.358 215.799)"/>
  <path d="M0 0v-3.286h4.514a2.465 2.465 0 0 0 0-4.929H-.001V0h-3.286v-20.538h3.286v9.037h3.858l3.321-9.037h3.501l-3.552 9.665A5.75 5.75 0 0 1 4.514 0z" style="fill:#0a0a0a;fill-opacity:1;fill-rule:evenodd;stroke:none" transform="matrix(2.83471 0 0 -2.8353 261.167 157.567)"/>
  <path d="M0 0h98.583v-98.583H0z" style="fill:#000;fill-opacity:1;fill-rule:evenodd;stroke:none" transform="matrix(2.83471 0 0 -2.8353 35.33 256.56)"/>
  <path d="M0 0h86.26v-86.26H0zm5.952-3.628L43.13-40.807 80.308-3.628H5.952M3.628-5.952v-74.356L40.807-43.13zm79.004 0L45.454-43.13l37.178-37.178v74.356M43.13-45.454 5.952-82.632h74.356z" style="fill:#ff0;fill-opacity:1;fill-rule:evenodd;stroke:none" transform="matrix(2.83471 0 0 -2.8353 52.796 274.03)"/>
  <path d="M0 0h98.583" style="fill:none;stroke:#000;stroke-width:.24;stroke-linecap:butt;stroke-linejoin:bevel;stroke-miterlimit:1.414;stroke-dasharray:none;stroke-opacity:1" transform="matrix(2.83471 0 0 -2.8353 35.272 .34)"/>
  <path d="M0 0v-180.736" style="fill:none;stroke:#000;stroke-width:.24;stroke-linecap:butt;stroke-linejoin:bevel;stroke-miterlimit:1.414;stroke-dasharray:none;stroke-opacity:1" transform="matrix(2.83471 0 0 -2.8353 349.66 35.28)"/>
  <path d="M0 0h-98.583" style="fill:none;stroke:#000;stroke-width:.24;stroke-linecap:butt;stroke-linejoin:bevel;stroke-miterlimit:1.414;stroke-dasharray:none;stroke-opacity:1" transform="matrix(2.83471 0 0 -2.8353 314.728 582.66)"/>
  <path d="M0 0v180.736" style="fill:none;stroke:#000;stroke-width:.24;stroke-linecap:butt;stroke-linejoin:bevel;stroke-miterlimit:1.414;stroke-dasharray:none;stroke-opacity:1" transform="matrix(2.83471 0 0 -2.8353 .34 547.72)"/>
  <path d="M0 0a12.324 12.324 0 0 0 12.323 12.323" style="fill:none;stroke:#000;stroke-width:.24;stroke-linecap:butt;stroke-linejoin:bevel;stroke-miterlimit:1.414;stroke-dasharray:none;stroke-opacity:1" transform="matrix(2.83471 0 0 -2.8353 .34 35.28)"/>
  <path d="M0 0a12.324 12.324 0 0 0 12.323-12.323" style="fill:none;stroke:#000;stroke-width:.24;stroke-linecap:butt;stroke-linejoin:bevel;stroke-miterlimit:1.414;stroke-dasharray:none;stroke-opacity:1" transform="matrix(2.83471 0 0 -2.8353 314.728 .34)"/>
  <path d="M0 0a12.324 12.324 0 0 1 12.323-12.323" style="fill:none;stroke:#000;stroke-width:.24;stroke-linecap:butt;stroke-linejoin:bevel;stroke-miterlimit:1.414;stroke-dasharray:none;stroke-opacity:1" transform="matrix(2.83471 0 0 -2.8353 .34 547.72)"/>
  <path d="M0 0a12.324 12.324 0 0 1 12.323 12.323" style="fill:none;stroke:#000;stroke-width:.24;stroke-linecap:butt;stroke-linejoin:bevel;stroke-miterlimit:1.414;stroke-dasharray:none;stroke-opacity:1" transform="matrix(2.83471 0 0 -2.8353 314.728 582.66)"/>
</svg>
