<svg xmlns="http://www.w3.org/2000/svg" viewBox="0 0 606 1006" role="img" aria-labelledby="title">
  <title id="title">Verkehrszeichen G9-79[60] - 60&amp;nbsp;km/h Speed Limit Ahead</title>
  <g transform="translate(0 709)">
    <rect width="604" height="1004" x="1" y="-708" rx="77" ry="77" style="opacity:1;fill:#000;fill-opacity:1;fill-rule:nonzero;stroke:none;stroke-width:148.74116516;stroke-linecap:square;stroke-linejoin:round;stroke-miterlimit:4;stroke-dasharray:none;stroke-opacity:1"/>
    <rect width="600" height="1000" x="3" y="-706" rx="75" ry="75" style="opacity:1;fill:#fff;fill-opacity:1;fill-rule:nonzero;stroke:none;stroke-width:147.95222473;stroke-linecap:square;stroke-linejoin:round;stroke-miterlimit:4;stroke-dasharray:none;stroke-opacity:1"/>
    <circle cx="303" cy="-331" r="297" style="opacity:1;fill:#000;fill-opacity:1;fill-rule:nonzero;stroke:none;stroke-width:106.69789886;stroke-linecap:square;stroke-linejoin:round;stroke-miterlimit:4;stroke-dasharray:none;stroke-opacity:1"/>
    <circle cx="303" cy="-331" r="237" style="opacity:1;fill:#fff;fill-opacity:1;fill-rule:nonzero;stroke:none;stroke-width:85.14276886;stroke-linecap:square;stroke-linejoin:round;stroke-miterlimit:4;stroke-dasharray:none;stroke-opacity:1"/>
    <g aria-label="60" style="font-style:normal;font-variant:normal;font-weight:400;font-stretch:normal;font-size:345.82131958px;line-height:0;font-family:&quot;Roadgeek 2005 Series D&quot;;-inkscape-font-specification:&quot;Roadgeek 2005 Series D&quot;;letter-spacing:0;word-spacing:0;fill:#000;fill-opacity:1;stroke:none;stroke-width:8.64553261">
      <path d="M276.895-56.893q0 14.87-6.225 28.011-5.88 12.796-16.6 22.479-10.374 9.337-24.899 14.87Q214.647 14 198.047 14t-31.124-5.533Q152.4 2.587 141.678-7.441 131.304-17.47 125.08-30.957 119.2-44.444 119.2-60.006q0-24.207 6.225-48.069 6.57-23.862 18.328-45.648t28.012-40.116q16.6-18.674 36.657-32.161l18.674 31.124q-10.72 8.3-19.02 16.254-7.954 7.608-14.87 15.907-6.57 8.3-12.104 17.637-5.533 8.992-10.72 20.058 10.028-1.73 15.216-2.075 5.533-.346 12.45-.346 15.907 0 30.086 5.533 14.524 5.533 25.245 15.216 11.066 9.338 17.29 22.479 6.226 12.795 6.226 27.32m-36.658-.692q0-6.57-3.458-12.795-3.112-6.225-8.991-10.72-5.533-4.497-13.487-7.263-7.608-2.767-16.254-2.767-8.645 0-16.253 2.767-7.263 2.766-13.142 7.262-5.533 4.496-8.99 10.72-3.113 6.225-3.113 12.796 0 6.916 3.112 13.141 3.458 6.225 8.991 11.066 5.88 4.496 13.142 7.263 7.608 2.766 16.253 2.766 8.646 0 16.254-2.766t13.141-7.263q5.879-4.841 9.337-11.066t3.458-13.141M486.8-105.654q0 27.666-6.57 52.91-6.571 25.245-18.675 40.807Q442.19 14 405.532 14q-24.553 0-40.46-10.029-15.909-10.029-26.283-31.47-7.263-14.87-11.758-35.965-4.496-21.44-4.496-42.19 0-28.703 6.57-53.257 6.917-24.553 18.675-41.152 10.375-13.142 24.553-19.366Q386.858-226 406.916-226q22.132 0 37.694 10.029t26.628 31.47q7.263 15.562 11.412 36.31 4.15 20.75 4.15 42.537m-36.657 0q0-19.712-3.458-36.311-3.458-16.946-10.375-28.704-5.533-8.99-12.795-13.14-6.916-4.15-17.291-4.842-13.487-.692-22.479 6.225-8.99 6.916-14.87 22.478-4.496 10.375-6.916 25.245-2.075 14.524-2.075 29.049 0 18.674 3.458 35.965t10.375 28.358q5.533 8.991 13.14 13.487 7.609 4.495 18.675 4.495 12.796 0 21.095-6.916 8.646-6.917 14.525-22.479 1.729-4.495 3.458-10.72 1.73-6.57 2.767-13.487 1.383-7.262 2.075-14.524.691-7.263.691-14.18" style="font-style:normal;font-variant:normal;font-weight:400;font-stretch:normal;line-height:0;font-family:&quot;Roadgeek 2005 Series D&quot;;-inkscape-font-specification:&quot;Roadgeek 2005 Series D&quot;;fill:#000;stroke:none;stroke-width:8.64553261" transform="translate(0 -225)"/>
    </g>
    <g aria-label="AHEAD" style="font-style:normal;font-variant:normal;font-weight:400;font-stretch:normal;font-size:179.10447693px;line-height:0;font-family:&quot;Roadgeek 2005 Series D&quot;;-inkscape-font-specification:&quot;Roadgeek 2005 Series D&quot;;letter-spacing:0;word-spacing:0;fill:#a40;fill-opacity:1;stroke:none;stroke-width:4.47761202">
      <path d="m123.563 217-11.82-33.672H74.31L62.489 217H42.25L83.623 97h18.806l41.373 120Zm-30.268-86.687-12.358 33.672h24zM224.646 217v-52.299h-43.702V217h-18.985V97h18.985v48.358h43.702V97h18.985v120ZM272.15 217V97h70.746v18.985h-51.76v29.373h34.925v19.343h-34.926v32.956h55.523V217ZM437.696 217l-11.821-33.672h-37.433L376.622 217h-20.24l41.374-120h18.806l41.373 120Zm-30.269-86.687-12.358 33.672h24zM557.75 156.82q0 18.09-5.552 31.881-5.373 13.612-15.582 21.493-3.403 3.224-8.06 4.836-4.478 1.612-9.134 1.97h-43.344V97h38.687q4.478 0 7.701.358 3.403.18 6.09.896t4.836 1.97 4.657 3.045q9.492 8.238 14.507 22.03 5.194 13.611 5.194 31.522m-19.343 0q0-12.178-2.687-21.67-2.507-9.493-6.985-14.15-2.328-2.15-5.373-3.582-3.045-1.433-6.806-1.433h-21.493v81.672h18.986q4.656 0 7.701-1.075 3.224-1.075 5.731-3.582 5.374-5.373 8.06-14.687 2.866-9.492 2.866-21.492" style="font-style:normal;font-variant:normal;font-weight:400;font-stretch:normal;line-height:0;font-family:&quot;Roadgeek 2005 Series D&quot;;-inkscape-font-specification:&quot;Roadgeek 2005 Series D&quot;;fill:#000;stroke:none;stroke-width:4.47761202" transform="translate(3 -3)"/>
    </g>
  </g>
</svg>
