<svg xmlns="http://www.w3.org/2000/svg" viewBox="0 0 606 1006" role="img" aria-labelledby="title">
  <title id="title">Verkehrszeichen G9-79[25] - 25&amp;nbsp;km/h Speed Limit Ahead</title>
  <g transform="translate(0 709)">
    <rect width="604" height="1004" x="1" y="-708" rx="77" ry="77" style="opacity:1;fill:#000;fill-opacity:1;fill-rule:nonzero;stroke:none;stroke-width:148.74116516;stroke-linecap:square;stroke-linejoin:round;stroke-miterlimit:4;stroke-dasharray:none;stroke-opacity:1"/>
    <rect width="600" height="1000" x="3" y="-706" rx="75" ry="75" style="opacity:1;fill:#fff;fill-opacity:1;fill-rule:nonzero;stroke:none;stroke-width:147.95222473;stroke-linecap:square;stroke-linejoin:round;stroke-miterlimit:4;stroke-dasharray:none;stroke-opacity:1"/>
    <g aria-label="AHEAD" style="font-style:normal;font-variant:normal;font-weight:400;font-stretch:normal;font-size:179.10447693px;line-height:0;font-family:&quot;Roadgeek 2005 Series D&quot;;-inkscape-font-specification:&quot;Roadgeek 2005 Series D&quot;;letter-spacing:0;word-spacing:0;fill:#a40;fill-opacity:1;stroke:none;stroke-width:4.47761202">
      <path d="m123.563 217-11.82-33.672H74.31L62.489 217H42.25L83.623 97h18.806l41.373 120Zm-30.268-86.687-12.358 33.672h24zM224.646 217v-52.299h-43.702V217h-18.985V97h18.985v48.358h43.702V97h18.985v120ZM272.15 217V97h70.746v18.985h-51.76v29.373h34.925v19.343h-34.926v32.956h55.523V217ZM437.696 217l-11.821-33.672h-37.433L376.622 217h-20.24l41.374-120h18.806l41.373 120Zm-30.269-86.687-12.358 33.672h24zM557.75 156.82q0 18.09-5.552 31.881-5.373 13.612-15.582 21.493-3.403 3.224-8.06 4.836-4.478 1.612-9.134 1.97h-43.344V97h38.687q4.478 0 7.701.358 3.403.18 6.09.896t4.836 1.97 4.657 3.045q9.492 8.238 14.507 22.03 5.194 13.611 5.194 31.522m-19.343 0q0-12.178-2.687-21.67-2.507-9.493-6.985-14.15-2.328-2.15-5.373-3.582-3.045-1.433-6.806-1.433h-21.493v81.672h18.986q4.656 0 7.701-1.075 3.224-1.075 5.731-3.582 5.374-5.373 8.06-14.687 2.866-9.492 2.866-21.492" style="font-style:normal;font-variant:normal;font-weight:400;font-stretch:normal;line-height:0;font-family:&quot;Roadgeek 2005 Series D&quot;;-inkscape-font-specification:&quot;Roadgeek 2005 Series D&quot;;fill:#000;stroke:none;stroke-width:4.47761202" transform="translate(3 -3)"/>
    </g>
    <circle cx="303" cy="-331" r="297" style="opacity:1;fill:#000;fill-opacity:1;fill-rule:nonzero;stroke:none;stroke-width:106.69789886;stroke-linecap:square;stroke-linejoin:round;stroke-miterlimit:4;stroke-dasharray:none;stroke-opacity:1"/>
    <circle cx="303" cy="-331" r="237" style="opacity:1;fill:#fff;fill-opacity:1;fill-rule:nonzero;stroke:none;stroke-width:85.14276886;stroke-linecap:square;stroke-linejoin:round;stroke-miterlimit:4;stroke-dasharray:none;stroke-opacity:1"/>
    <path d="M122.5-215.15q.692-20.403 5.187-37.349 4.496-16.945 14.179-33.544 7.262-13.141 17.983-24.208 10.72-11.412 22.824-20.403 3.112-1.73 5.533-3.458 2.42-2.075 4.842-3.804l12.45-6.571 11.411-6.57 11.067-6.225q6.916-4.496 11.066-11.067 4.495-6.916 4.495-14.178 0-6.571-3.458-12.104-3.458-5.88-9.337-10.029-5.533-4.15-13.141-6.57t-16.254-2.421q-17.637 0-28.703 8.3-10.72 8.3-13.487 24.207l-36.657-7.954q5.879-29.049 26.974-45.303Q170.569-451 201.347-451q16.6 0 30.778 5.533 14.525 5.533 24.9 14.87 10.72 9.338 16.945 22.133 6.225 12.45 6.225 26.628 0 13.487-6.225 26.629-5.88 12.795-17.291 22.824-2.767 2.075-5.188 3.804-2.075 1.729-4.495 2.766l-11.412 7.263-12.45 6.57-11.412 6.57q-8.3 4.842-14.87 10.375-6.225 5.188-11.758 11.413-5.188 6.224-10.03 13.832-4.495 7.608-8.645 17.291h113.776v37.35zM483.5-300.568q0 19.366-7.608 35.62-7.263 16.253-20.75 28.357t-32.161 19.02Q404.652-211 382.52-211q-15.216 0-30.087-3.458-14.524-3.458-26.628-9.683l17.983-32.507q7.262 3.804 19.02 6.224 11.758 2.075 24.553 2.075 12.45 0 23.17-3.804 11.067-4.15 19.02-11.066 8.3-6.916 12.796-16.254 4.496-9.683 4.496-21.095 0-8.645-3.459-15.908-3.112-7.262-8.991-12.795-5.533-5.533-13.141-8.645-7.262-3.113-15.908-3.113-6.225 0-11.066 1.038-4.496 1.037-8.646 3.804t-8.3 7.608q-4.15 4.495-9.337 11.758l-36.657-10.375 5.88-119.654h133.14v36.657h-97.521l-2.421 38.04q12.795-3.804 20.058-5.187 7.262-1.383 15.907-1.383 15.908 0 29.741 6.224 14.179 6.225 24.553 16.946 10.72 10.72 16.6 24.899 6.225 14.178 6.225 30.086" style="font-style:normal;font-variant:normal;font-weight:400;font-stretch:normal;font-size:345.82131958px;line-height:0;font-family:&quot;Roadgeek 2005 Series D&quot;;-inkscape-font-specification:&quot;Roadgeek 2005 Series D&quot;;letter-spacing:0;word-spacing:0;fill:#000;fill-opacity:1;stroke:none;stroke-width:646.21258545"/>
  </g>
</svg>
