<svg xmlns="http://www.w3.org/2000/svg" viewBox="0 0 606 1006" role="img" aria-labelledby="title">
  <title id="title">Verkehrszeichen G9-79[30] - 30&amp;nbsp;km/h Speed Limit Ahead</title>
  <g transform="translate(0 709)">
    <rect width="604" height="1004" x="1" y="-708" rx="77" ry="77" style="opacity:1;fill:#000;fill-opacity:1;fill-rule:nonzero;stroke:none;stroke-width:148.74116516;stroke-linecap:square;stroke-linejoin:round;stroke-miterlimit:4;stroke-dasharray:none;stroke-opacity:1"/>
    <rect width="600" height="1000" x="3" y="-706" rx="75" ry="75" style="opacity:1;fill:#fff;fill-opacity:1;fill-rule:nonzero;stroke:none;stroke-width:147.95222473;stroke-linecap:square;stroke-linejoin:round;stroke-miterlimit:4;stroke-dasharray:none;stroke-opacity:1"/>
    <g aria-label="AHEAD" style="font-style:normal;font-variant:normal;font-weight:400;font-stretch:normal;font-size:179.10447693px;line-height:0;font-family:&quot;Roadgeek 2005 Series D&quot;;-inkscape-font-specification:&quot;Roadgeek 2005 Series D&quot;;letter-spacing:0;word-spacing:0;fill:#a40;fill-opacity:1;stroke:none;stroke-width:4.47761202">
      <path d="m123.563 217-11.82-33.672H74.31L62.489 217H42.25L83.623 97h18.806l41.373 120Zm-30.268-86.687-12.358 33.672h24zM224.646 217v-52.299h-43.702V217h-18.985V97h18.985v48.358h43.702V97h18.985v120ZM272.15 217V97h70.746v18.985h-51.76v29.373h34.925v19.343h-34.926v32.956h55.523V217ZM437.696 217l-11.821-33.672h-37.433L376.622 217h-20.24l41.374-120h18.806l41.373 120Zm-30.269-86.687-12.358 33.672h24zM557.75 156.82q0 18.09-5.552 31.881-5.373 13.612-15.582 21.493-3.403 3.224-8.06 4.836-4.478 1.612-9.134 1.97h-43.344V97h38.687q4.478 0 7.701.358 3.403.18 6.09.896t4.836 1.97 4.657 3.045q9.492 8.238 14.507 22.03 5.194 13.611 5.194 31.522m-19.343 0q0-12.178-2.687-21.67-2.507-9.493-6.985-14.15-2.328-2.15-5.373-3.582-3.045-1.433-6.806-1.433h-21.493v81.672h18.986q4.656 0 7.701-1.075 3.224-1.075 5.731-3.582 5.374-5.373 8.06-14.687 2.866-9.492 2.866-21.492" style="font-style:normal;font-variant:normal;font-weight:400;font-stretch:normal;line-height:0;font-family:&quot;Roadgeek 2005 Series D&quot;;-inkscape-font-specification:&quot;Roadgeek 2005 Series D&quot;;fill:#000;stroke:none;stroke-width:4.47761202" transform="translate(3 -3)"/>
    </g>
    <circle cx="303" cy="-331" r="297" style="opacity:1;fill:#000;fill-opacity:1;fill-rule:nonzero;stroke:none;stroke-width:106.69789886;stroke-linecap:square;stroke-linejoin:round;stroke-miterlimit:4;stroke-dasharray:none;stroke-opacity:1"/>
    <circle cx="303" cy="-331" r="237" style="opacity:1;fill:#fff;fill-opacity:1;fill-rule:nonzero;stroke:none;stroke-width:85.14276886;stroke-linecap:square;stroke-linejoin:round;stroke-miterlimit:4;stroke-dasharray:none;stroke-opacity:1"/>
    <path d="M276.203-291.576q0 17.637-5.879 32.507t-16.6 25.59q-10.374 10.375-25.244 16.6Q213.955-211 196.318-211q-14.179 0-26.628-4.496-12.104-4.495-22.478-12.45-10.03-7.953-17.292-19.365t-10.72-25.591l35.965-10.375q4.15 16.946 15.217 25.937t27.665 8.991q9.337 0 16.946-3.112 7.608-3.112 12.795-8.3 5.533-5.533 8.645-12.795 3.113-7.608 3.113-16.6 0-8.991-3.458-16.945t-9.683-12.45q-2.075-1.383-3.804-2.074-1.384-1.038-3.804-1.384-2.075-.345-5.88-.691-3.458-.346-10.028-.692h-4.15v-37.349 1.038h8.991q11.067 0 16.945-5.88 5.88-5.878 5.88-16.944 0-13.487-9.684-22.133-9.337-8.991-23.515-8.991-23.17 0-34.928 22.824l-34.237-12.795q8.992-22.133 26.974-34.583Q173.494-451 196.318-451q14.525 0 27.32 5.533 13.141 5.533 22.824 15.216t15.216 22.825q5.534 12.795 5.534 27.32 0 10.374-2.767 18.674t-10.375 19.366q6.571 5.879 10.72 11.412 4.15 5.187 6.571 11.066 2.767 5.88 3.804 12.796 1.038 6.57 1.038 15.216M486.8-330.654q0 27.666-6.57 52.91-6.571 25.245-18.675 40.807Q442.19-211 405.532-211q-24.553 0-40.46-10.029-15.909-10.029-26.283-31.47-7.263-14.87-11.758-35.965-4.496-21.44-4.496-42.19 0-28.703 6.57-53.257 6.917-24.553 18.675-41.152 10.375-13.142 24.553-19.366Q386.858-451 406.915-451q22.133 0 37.695 10.029t26.628 31.47q7.262 15.562 11.412 36.31 4.15 20.75 4.15 42.537m-36.657 0q0-19.712-3.458-36.311-3.458-16.946-10.375-28.704-5.533-8.99-12.795-13.14-6.917-4.15-17.291-4.842-13.487-.692-22.479 6.224t-14.87 22.479q-4.496 10.375-6.916 25.245-2.075 14.524-2.075 29.049 0 18.674 3.458 35.965t10.375 28.358q5.533 8.99 13.14 13.487 7.609 4.495 18.675 4.495 12.796 0 21.095-6.916 8.646-6.917 14.525-22.479 1.729-4.495 3.458-10.72 1.73-6.57 2.767-13.487 1.383-7.262 2.074-14.525.692-7.262.692-14.178" style="font-style:normal;font-variant:normal;font-weight:400;font-stretch:normal;font-size:345.82131958px;line-height:0;font-family:&quot;Roadgeek 2005 Series D&quot;;-inkscape-font-specification:&quot;Roadgeek 2005 Series D&quot;;letter-spacing:0;word-spacing:0;fill:#000;fill-opacity:1;stroke:none;stroke-width:8.64553261"/>
  </g>
</svg>
