<svg xmlns="http://www.w3.org/2000/svg" xml:space="preserve" viewBox="0 0 123.791 80.741" role="img" aria-labelledby="title">
  <title id="title">Verkehrszeichen GE6-10 - End Freeway 1&amp;nbsp;km</title>
  <path d="M-190.916-64.6h86.127c3.55 0 6.453-2.903 6.453-6.452v-51.687c0-3.55-2.904-6.453-6.453-6.453h-86.127c-3.549 0-6.453 2.904-6.453 6.453v51.687c0 3.549 2.904 6.453 6.453 6.453" style="fill:#006330;fill-opacity:1;fill-rule:evenodd;stroke:none" transform="matrix(1.25 0 0 -1.25 246.711 -80.75)"/>
  <path d="M-104.855-67.18c2.1-.098 3.62-1.378 3.915-3.478l.022-.46v-51.555c-.098-2.09-1.378-3.62-3.478-3.916l-.459-.022h-85.996c-2.089.099-3.62 1.378-3.915 3.478l-.022.46v51.556c.098 2.1 1.378 3.62 3.478 3.915l.46.022z" style="fill:#fff;fill-opacity:1;fill-rule:evenodd;stroke:none" transform="matrix(1.25 0 0 -1.25 246.711 -80.75)"/>
  <path d="m-103.51-70.9.011-.283v-51.425c-.033-.897-.525-1.39-1.422-1.422h-85.865c-.875.033-1.389.547-1.42 1.422v51.425c.031.875.545 1.389 1.42 1.42h85.865c.744-.02 1.27-.381 1.411-1.136" style="fill:#006330;fill-opacity:1;fill-rule:evenodd;stroke:none" transform="matrix(1.25 0 0 -1.25 246.711 -80.75)"/>
  <path d="M-186.662-91.723h7.603v-1.8h-5.855v-2.245h3.228v-1.768h-3.228v-4.531h-1.748zM-176.276-91.723h4.976a3.1 3.1 0 0 0 3.134-3.083c0-1.055-.683-2.41-1.79-2.886l1.924-4.375h-1.924l-1.84 4.044h-2.71v-4.044h-1.77zm1.77-1.77v-2.771h3.206c.713 0 1.344.652 1.344 1.376 0 .486-.403 1.396-1.344 1.396zM-165-91.723h7.416v-1.8h-5.627v-2.058h3.041v-1.8h-3.04v-2.886h5.812v-1.8H-165zM-154.243-91.723h7.417v-1.8h-5.627v-2.058h3.041v-1.8h-3.04v-2.886h5.812v-1.8h-7.603zM-144.458-91.723h1.821l1.17-6.238 1.53 6.238h1.758l1.634-6.3 1.128 6.3h1.79l-1.842-10.344h-1.945l-1.603 6.486-1.634-6.486h-1.893zM-127.358-91.723h1.727l4.345-10.344h-1.945l-.993 2.41h-4.489l-1.014-2.41h-1.903zm-.652-6.155h3.042l-1.51 3.672zM-119.342-91.723h2.183l3.02-4.303 2.97 4.303h2.182l-4.262-6.238v-4.106h-1.8v4.106zM-159.765-119.281v7.769h-1.283v1.499c.652.083 1.304.497 1.604 1.076h1.47v-10.344zM-149.63-119.282v7.985l1.644.64v-4.173l1.643 2.019h2.077l-1.76-2.155 1.76-4.316h-1.695l-1.197 2.944-.828-1.074v-1.87zM-141.639-119.282v6.47h1.631v-.368c.375.233 1.171.427 1.56.427.737 0 1.293-.214 1.72-.783.473.582 1.456.783 2.026.783 1.152 0 2.252-1.184 2.252-2.174v-4.355h-1.67v3.96c0 .57-.453.984-1.1.984-.705 0-1.074-.557-1.074-1.133v-3.811h-1.495v3.81c0 .57-.433 1.185-1.132 1.185-.68 0-1.087-.608-1.087-1.035v-3.96zM-164.626-74.497h7.417v-1.8h-5.627v-2.058h3.041v-1.8h-3.04v-2.886h5.812v-1.8h-7.603zM-152.823-74.497h1.696l4.748-6.838v6.838h1.8v-10.344h-1.613l-4.84 7.024v-7.024h-1.79zM-139.324-74.497h3.31c3.155 0 4.934-2.514 4.934-5.224 0-2.68-1.758-5.12-4.655-5.12h-3.589zm1.78-8.544h1.892c1.728 0 2.835 1.738 2.835 3.32 0 1.748-1.18 3.424-2.959 3.424h-1.769z" style="fill:#fff;fill-opacity:1;fill-rule:evenodd;stroke:none" transform="matrix(1.25 0 0 -1.25 246.711 -80.75)"/>
</svg>
