<svg xmlns="http://www.w3.org/2000/svg" viewBox="0 0 2656 2636" role="img" aria-labelledby="title">
  <title id="title">Verkehrszeichen G6-331-1-NSW - Speed Camera in Tunnel (24 Hours) (Speed Limit) (used in NSW)</title>
  <g transform="translate(0 2339)">
    <rect width="2652" height="2632" x="2" y="-2336.999" rx="131" ry="131" style="opacity:1;fill:#fff;fill-opacity:1;fill-rule:nonzero;stroke:none;stroke-width:23.86745071;stroke-linecap:square;stroke-linejoin:round;stroke-miterlimit:4;stroke-dasharray:71.60234755,71.60234755;stroke-dashoffset:0;stroke-opacity:1"/>
    <path d="M15.42-2264a130.7 130.7 0 0 1 20.705-30.358V-2264Z" style="opacity:1;fill:#004187;fill-opacity:1;fill-rule:nonzero;stroke:none;stroke-width:.93456936;stroke-linecap:square;stroke-linejoin:round;stroke-miterlimit:4;stroke-dasharray:2.80370806,2.80370805999999995;stroke-dashoffset:0;stroke-opacity:1"/>
    <path d="M36.125-2263.999H69.25v36H36.125z" style="opacity:1;fill:#004187;fill-opacity:1;fill-rule:nonzero;stroke:none;stroke-width:.93456936;stroke-linecap:square;stroke-linejoin:round;stroke-miterlimit:4;stroke-dasharray:2.8037081,2.80370810000000015;stroke-dashoffset:0;stroke-opacity:1"/>
    <path d="M41.59-2300a130.8 130.8 0 0 1 27.66-20.57v20.57z" style="opacity:1;fill:#004187;fill-opacity:1;fill-rule:nonzero;stroke:none;stroke-width:.93456936;stroke-linecap:square;stroke-linejoin:round;stroke-miterlimit:4;stroke-dasharray:2.80370806,2.80370805999999995;stroke-dashoffset:0;stroke-opacity:1"/>
    <path d="M69.25-2299.999h33.125v36H69.25zM102.375-2263.999H135.5v36h-33.125z" style="opacity:1;fill:#004187;fill-opacity:1;fill-rule:nonzero;stroke:none;stroke-width:.93456936;stroke-linecap:square;stroke-linejoin:round;stroke-miterlimit:4;stroke-dasharray:2.8037081,2.80370810000000015;stroke-dashoffset:0;stroke-opacity:1"/>
    <path d="M102.375-2300v-33.427a131 131 0 0 1 14.3-2.573H135.5v36z" style="opacity:1;fill:#004187;fill-opacity:1;fill-rule:nonzero;stroke:none;stroke-width:.93456936;stroke-linecap:square;stroke-linejoin:round;stroke-miterlimit:4;stroke-dasharray:2.80370806,2.80370805999999995;stroke-dashoffset:0;stroke-opacity:1"/>
    <path d="M135.5-2299.999h33.125v36H135.5zM168.625-2263.999h33.125v36h-33.125zM168.625-2335.999h33.125v36h-33.125zM201.75-2299.999h33.125v36H201.75zM234.875-2263.999H268v36h-33.125zM234.875-2335.999H268v36h-33.125zM268-2299.999h33.125v36H268zM301.125-2263.999h33.125v36h-33.125zM301.125-2335.999h33.125v36h-33.125zM334.25-2299.999h33.125v36H334.25zM367.375-2263.999H400.5v36h-33.125zM367.375-2335.999H400.5v36h-33.125zM400.5-2299.999h33.125v36H400.5zM433.625-2263.999h33.125v36h-33.125zM433.625-2335.999h33.125v36h-33.125zM466.75-2299.999h33.125v36H466.75zM499.875-2263.999H533v36h-33.125zM499.875-2335.999H533v36h-33.125zM533-2299.999h33.125v36H533zM566.125-2263.999h33.125v36h-33.125zM566.125-2335.999h33.125v36h-33.125zM599.25-2299.999h33.125v36H599.25zM632.375-2263.999H665.5v36h-33.125zM632.375-2335.999H665.5v36h-33.125zM665.5-2299.999h33.125v36H665.5zM698.625-2263.999h33.125v36h-33.125zM698.625-2335.999h33.125v36h-33.125zM731.75-2299.999h33.125v36H731.75zM764.875-2263.999H798v36h-33.125zM764.875-2335.999H798v36h-33.125zM798-2299.999h33.125v36H798zM831.125-2263.999h33.125v36h-33.125zM831.125-2335.999h33.125v36h-33.125zM864.25-2299.999h33.125v36H864.25zM897.375-2263.999H930.5v36h-33.125zM897.375-2335.999H930.5v36h-33.125zM930.5-2299.999h33.125v36H930.5zM963.625-2263.999h33.125v36h-33.125zM963.625-2335.999h33.125v36h-33.125zM996.75-2299.999h33.125v36H996.75zM1029.875-2263.999H1063v36h-33.125zM1029.875-2335.999H1063v36h-33.125zM1063-2299.999h33.125v36H1063zM1096.125-2263.999h33.125v36h-33.125zM1096.125-2335.999h33.125v36h-33.125zM1129.25-2299.999h33.125v36h-33.125zM1162.375-2263.999h33.125v36h-33.125zM1162.375-2335.999h33.125v36h-33.125zM1195.5-2299.999h33.125v36H1195.5zM1228.625-2263.999h33.125v36h-33.125zM1228.625-2335.999h33.125v36h-33.125zM1261.75-2299.999h33.125v36h-33.125zM1294.875-2263.999H1328v36h-33.125zM1294.875-2335.999H1328v36h-33.125zM1328-2299.999h33.125v36H1328zM1361.125-2263.999h33.125v36h-33.125zM1361.125-2335.999h33.125v36h-33.125zM1394.25-2299.999h33.125v36h-33.125zM1427.375-2263.999h33.125v36h-33.125zM1427.375-2335.999h33.125v36h-33.125zM1460.5-2299.999h33.125v36H1460.5zM1493.625-2263.999h33.125v36h-33.125zM1493.625-2335.999h33.125v36h-33.125zM1526.75-2299.999h33.125v36h-33.125zM1559.875-2263.999H1593v36h-33.125zM1559.875-2335.999H1593v36h-33.125zM1593-2299.999h33.125v36H1593zM1626.125-2263.999h33.125v36h-33.125zM1626.125-2335.999h33.125v36h-33.125zM1659.25-2299.999h33.125v36h-33.125zM1692.375-2263.999h33.125v36h-33.125zM1692.375-2335.999h33.125v36h-33.125zM1725.5-2299.999h33.125v36H1725.5zM1758.625-2263.999h33.125v36h-33.125zM1758.625-2335.999h33.125v36h-33.125zM1791.75-2299.999h33.125v36h-33.125zM1824.875-2263.999H1858v36h-33.125zM1824.875-2335.999H1858v36h-33.125zM1858-2299.999h33.125v36H1858zM1891.125-2263.999h33.125v36h-33.125zM1891.125-2335.999h33.125v36h-33.125zM1924.25-2299.999h33.125v36h-33.125zM1957.375-2263.999h33.125v36h-33.125zM1957.375-2335.999h33.125v36h-33.125zM1990.5-2299.999h33.125v36H1990.5zM2023.625-2263.999h33.125v36h-33.125zM2023.625-2335.999h33.125v36h-33.125zM2056.75-2299.999h33.125v36h-33.125zM2089.875-2263.999H2123v36h-33.125zM2089.875-2335.999H2123v36h-33.125zM2123-2299.999h33.125v36H2123zM2156.125-2263.999h33.125v36h-33.125zM2156.125-2335.999h33.125v36h-33.125zM2189.25-2299.999h33.125v36h-33.125zM2222.375-2263.999h33.125v36h-33.125zM2222.375-2335.999h33.125v36h-33.125zM2255.5-2299.999h33.125v36H2255.5zM2288.625-2263.999h33.125v36h-33.125zM2288.625-2335.999h33.125v36h-33.125zM2321.75-2299.999h33.125v36h-33.125zM2354.875-2263.999H2388v36h-33.125zM2354.875-2335.999H2388v36h-33.125zM2388-2299.999h33.125v36H2388zM2421.125-2263.999h33.125v36h-33.125zM2421.125-2335.999h33.125v36h-33.125zM2454.25-2299.999h33.125v36h-33.125zM2487.375-2263.999h33.125v36h-33.125zM2487.375-2335.999h33.125v36h-33.125zM2520.5-2299.999h33.125v36H2520.5zM2553.625-2263.999h33.125v36h-33.125z" style="opacity:1;fill:#004187;fill-opacity:1;fill-rule:nonzero;stroke:none;stroke-width:.93456936;stroke-linecap:square;stroke-linejoin:round;stroke-miterlimit:4;stroke-dasharray:2.8037081,2.80370810000000015;stroke-dashoffset:0;stroke-opacity:1"/>
    <path d="M2553.625-2300v-33.427a130.2 130.2 0 0 1 33.125 12.857v20.57zM2586.75-2264v-36h27.66q2.817 2.74 5.465 5.642V-2264ZM2619.875-2228v-36h20.704a130.3 130.3 0 0 1 11.596 36z" style="opacity:1;fill:#004187;fill-opacity:1;fill-rule:nonzero;stroke:none;stroke-width:.93456936;stroke-linecap:square;stroke-linejoin:round;stroke-miterlimit:4;stroke-dasharray:2.80370806,2.80370805999999995;stroke-dashoffset:0;stroke-opacity:1"/>
    <path d="m1092-2103.4 52 88.2h210c22.16 0 40 17.84 40 40v275.8c0 22.16-17.84 40-40 40H678c-22.16 0-40-17.84-40-40v-275.8c0-22.16 17.84-40 40-40h210l52-88.2Z" style="opacity:1;fill:#004187;fill-opacity:1;fill-rule:nonzero;stroke:none;stroke-width:3.49156022;stroke-linecap:square;stroke-linejoin:round;stroke-miterlimit:4;stroke-dasharray:10.47468044,10.4746804400000002;stroke-dashoffset:0;stroke-opacity:1"/>
    <path d="M683.5-2070.4h116v37h-116zM1232.5-2070.4h116v37h-116z" style="opacity:1;fill:#004187;fill-opacity:1;fill-rule:nonzero;stroke:none;stroke-width:1.45003903;stroke-linecap:square;stroke-linejoin:round;stroke-miterlimit:4;stroke-dasharray:4.35011709,4.35011709000000035;stroke-dashoffset:0;stroke-opacity:1"/>
    <circle cx="1016" cy="-1840.4" r="157" style="opacity:1;fill:#fff;fill-opacity:1;fill-rule:nonzero;stroke:none;stroke-width:2.48737001;stroke-linecap:square;stroke-linejoin:round;stroke-miterlimit:4;stroke-dasharray:7.46210998,7.46210998;stroke-dashoffset:0;stroke-opacity:1"/>
    <circle cx="1016" cy="-1840.4" r="132" style="opacity:1;fill:#004187;fill-opacity:1;fill-rule:nonzero;stroke:none;stroke-width:2.0912919;stroke-linecap:square;stroke-linejoin:round;stroke-miterlimit:4;stroke-dasharray:6.27387591,6.27387591000000011;stroke-dashoffset:0;stroke-opacity:1"/>
    <circle cx="1016" cy="-1840.4" r="90" style="opacity:1;fill:#fff;fill-opacity:1;fill-rule:nonzero;stroke:none;stroke-width:1.42588079;stroke-linecap:square;stroke-linejoin:round;stroke-miterlimit:4;stroke-dasharray:4.27764267,4.27764267;stroke-dashoffset:0;stroke-opacity:1"/>
    <path d="m1562-1809.984 34.749 18.293 9.927-21.105 6.382-19.697 4.254-19.7.7-17.588.182-4.219-.182-4.219-.7-17.588-4.254-19.7-6.382-19.696-9.927-21.106-34.749 18.293 9.218 22.51 5.673 21.108.52 20.398-.52 20.398-5.673 21.11zM1675.05-1743.15l36.875 21.814 12.767-25.331 12.055-30.949 8.509-30.254 6.382-33.771.574-32.359-.574-32.359-6.382-33.77-8.51-30.255-12.054-30.949-12.767-25.331-36.876 21.814 17.727 42.205 10.64 36.584 6.382 37.288v29.546l-6.382 37.289-10.64 36.583zM1788.779-1679.124l37.585 22.505 14.184-27.432 12.765-29.55 12.054-35.878 8.513-30.956 5.672-30.952 2.83-30.254 1.291-32.359-1.29-32.359-2.83-30.254-5.673-30.952-8.513-30.955-12.054-35.88-12.765-29.549-14.184-27.432-37.586 22.506 21.986 44.326 14.181 40.805 7.804 31.657 6.381 45.024.976 33.063-.976 33.063-6.381 45.024-7.804 31.657-14.181 40.806zM1917.299-1639.731l21.985-51.354 17.728-56.988 10.64-47.84 4.963-52.762.457-25.325-.457-25.324-4.964-52.763-10.64-47.84-17.727-56.988-21.985-51.353-13.473-23.918L1942.12-2154l17.019 33.066 16.312 33.772 12.764 35.875 12.058 42.92 8.509 38.688 5.673 40.805L2018-1874l-3.546 54.874-5.672 40.805-8.51 38.688-12.057 42.92-12.764 35.875-16.313 33.772L1942.12-1594l-38.294-21.814z" style="fill:#004187;fill-opacity:1;fill-rule:evenodd;stroke:none;stroke-width:11.76358414"/>
    <path d="M2-822h2652v36H2z" style="opacity:1;fill:#004187;fill-opacity:1;fill-rule:nonzero;stroke:none;stroke-width:1.18918693;stroke-linecap:square;stroke-linejoin:round;stroke-miterlimit:4;stroke-dasharray:3.56756086,3.56756085999999994;stroke-dashoffset:0;stroke-opacity:1"/>
    <path d="M2523-2338c73.128 0 132 58.872 132 132V164c0 73.128-58.872 132-132 132H133C59.872 296 1 237.128 1 164v-2370c0-73.128 58.872-132 132-132zm0 2H133c-72.02 0-130 57.98-130 130V164c0 72.02 57.98 130 130 130h2390c72.02 0 130-57.98 130-130v-2370c0-72.02-57.98-130-130-130" style="opacity:1;fill:#000;fill-opacity:1;fill-rule:nonzero;stroke:none;stroke-width:23.88551712;stroke-linecap:square;stroke-linejoin:round;stroke-miterlimit:4;stroke-dasharray:71.65655056,71.65655056;stroke-dashoffset:0;stroke-opacity:1"/>
    <g aria-label="VEHICLES" style="font-style:normal;font-variant:normal;font-weight:400;font-stretch:normal;font-size:144.09222412px;line-height:0;font-family:&quot;Roadgeek 2005 Series C&quot;;-inkscape-font-specification:&quot;Roadgeek 2005 Series C&quot;;letter-spacing:-2.4368124px;word-spacing:0;fill:#d40000;fill-opacity:1;stroke:none;stroke-width:3.60230541">
      <g aria-label="AHEAD" style="font-style:normal;font-variant:normal;font-weight:400;font-stretch:normal;font-size:298.50747681px;line-height:0;font-family:&quot;Roadgeek 2005 Series D&quot;;-inkscape-font-specification:&quot;Roadgeek 2005 Series D&quot;;letter-spacing:19.79348564px;word-spacing:0;fill:#000;fill-opacity:1;stroke:none;stroke-width:26.88287735">
        <g aria-label="SPEED" style="font-style:normal;font-variant:normal;font-weight:400;font-stretch:normal;font-size:288.18444824px;line-height:0;font-family:&quot;Roadgeek 2005 Series D&quot;;-inkscape-font-specification:&quot;Roadgeek 2005 Series D&quot;;letter-spacing:25.4529171px;word-spacing:0;fill:#000;fill-opacity:1;stroke:none;stroke-width:193.68066406">
          <path d="M-2105.003-28.436q0 13.257-4.9 24.496-4.899 11.239-14.12 19.596-8.07 7.205-19.02 11.24-10.663 3.746-23.055 3.746-25.072 0-42.94-13.257-17.579-13.544-27.377-35.734l29.106-10.663q6.052 13.833 16.715 21.325 10.663 7.205 24.496 7.205 13.544 0 21.613-8.07 8.358-8.357 8.358-20.46 0-9.51-5.187-15.562-4.9-6.052-12.969-10.087-8.069-4.322-17.867-7.492-9.51-3.17-19.02-6.917-4.323-1.729-10.663-4.899t-12.392-8.646q-5.764-5.763-10.087-14.12-4.034-8.358-4.034-20.462 0-14.12 4.61-23.919 4.612-10.086 12.393-16.138 8.069-6.34 19.02-9.222 11.24-2.882 24.207-2.882 20.461 0 34.006 10.663 13.833 10.663 21.038 28.818l-27.09 8.07q-2.305-4.612-6.052-8.358-3.17-3.17-8.933-5.764-5.476-2.593-13.545-2.882-5.187-.288-10.951.865-5.475.865-9.798 3.458t-6.917 7.205q-2.593 4.323-2.017 10.95.576 8.935 7.781 13.834 7.205 4.61 17.58 8.069 10.374 3.458 22.19 7.204 12.103 3.459 22.19 10.375 10.086 6.628 16.714 18.156 6.917 11.239 6.917 30.26M-1915.72-111.721q0 7.78-2.305 15.274-2.306 7.204-6.34 13.832-4.035 6.34-9.51 11.24-5.188 4.899-11.528 7.78-6.628 3.17-15.562 4.9-8.645 1.729-19.885 1.729h-35.734v84.15h-30.548V-165.9h66.282q11.816 0 19.885 1.441 8.357 1.153 15.562 4.611 6.34 3.17 11.527 8.357 5.476 4.9 9.51 11.528 4.035 6.34 6.34 13.833 2.306 7.204 2.306 14.409m-31.124 0q0-6.052-3.458-11.528-3.17-5.475-8.07-8.645-4.034-2.306-7.78-2.882-3.458-.576-10.663-.576h-39.77v47.262h39.77q7.205 0 10.663-.576 3.746-.577 7.78-2.594 4.9-2.594 8.07-8.357 3.458-6.052 3.458-12.104M-1861.819 27.184V-165.9h113.833v30.548h-83.285v47.262h56.196v31.124h-56.196V-3.94h89.337v31.124zM-1683.823 27.184V-165.9h113.833v30.548h-83.285v47.262h56.196v31.124h-56.196V-3.94h89.337v31.124zM-1374.415-69.646q0 29.106-8.934 51.297-8.645 21.902-25.072 34.582-5.475 5.187-12.968 7.78-7.205 2.594-14.697 3.17h-69.741V-165.9h62.248q7.204 0 12.392.577 5.475.288 9.798 1.44 4.323 1.153 7.781 3.17t7.493 4.9q15.274 13.256 23.343 35.446 8.357 21.902 8.357 50.72m-31.124 0q0-19.597-4.323-34.87-4.034-15.274-11.239-22.767-3.746-3.458-8.645-5.764-4.9-2.305-10.951-2.305h-34.582V-3.94h30.547q7.493 0 12.392-1.73 5.187-1.728 9.222-5.763 8.645-8.646 12.968-23.631 4.611-15.274 4.611-34.582" style="font-style:normal;font-variant:normal;font-weight:400;font-stretch:normal;line-height:0;font-family:&quot;Roadgeek 2005 Series D&quot;;-inkscape-font-specification:&quot;Roadgeek 2005 Series D&quot;;letter-spacing:25.46085358px;fill:#004187;fill-opacity:1;stroke:none;stroke-width:193.68066406" transform="translate(2480.415 -1316.642)"/>
          <g aria-label="CAMERA" style="font-style:normal;font-variant:normal;font-weight:400;font-stretch:normal;font-size:288.18444824px;line-height:0;font-family:&quot;Roadgeek 2005 Series D&quot;;-inkscape-font-specification:&quot;Roadgeek 2005 Series D&quot;;letter-spacing:0;word-spacing:0;fill:#000;fill-opacity:1;stroke:none;stroke-width:1395.39379883">
            <path d="M1243.588-1335.349q17.29 42.651 58.213 42.651 21.614 0 35.735-8.357t23.343-26.225q6.628-12.968 10.374-30.26 3.747-17.29 3.747-35.446 0-23.055-5.764-44.092t-15.85-34.006q-8.645-10.663-20.75-16.138-12.391-5.476-28.818-5.476-21.902 0-36.023 9.51-14.409 9.51-24.207 29.972l28.53 12.103q4.035-6.051 7.493-10.086 3.17-4.035 6.916-6.34 3.458-2.306 7.781-3.17 4.035-.865 9.51-.865 11.816 0 19.885 5.476 7.781 5.475 12.68 18.444 3.746 8.645 5.764 20.46 1.729 11.816 1.729 24.208 0 15.85-3.17 30.548-3.17 14.409-8.934 23.63-5.187 7.494-12.104 11.24t-17.003 3.747q-9.798 0-17.002-5.188-7.205-5.475-12.969-17.29zM1062.559-1296.156l19.02-54.179h60.23l19.02 54.18h32.565l-66.57-193.084h-30.26l-66.57 193.083zm48.703-139.481 19.884 54.179h-38.616zM855.74-1296.156v-111.815l44.669 111.815 44.669-111.815v111.815h30.547v-193.083h-30.548l-44.668 108.357-44.669-108.357h-30.547v193.083zM754.033-1296.156v-193.083H640.2v30.547h83.285v47.262H667.29v31.124h56.196v53.026h-89.337v31.124zM478.073-1296.156l31.124-84.15h36.6v84.15h30.547v-193.083h-63.689q-11.24 0-19.308 1.44-8.07 1.153-15.274 4.612-6.34 3.17-11.527 8.357-5.476 4.899-9.222 11.527-4.035 6.34-6.052 13.833-2.306 7.205-2.306 14.41 0 7.78 2.306 15.273 2.017 7.205 6.052 13.833 3.746 6.34 9.51 11.527 5.475 5.188 12.103 8.07l-34.005 90.201zm1.44-138.905q0-6.052 3.17-11.527 3.17-5.476 8.935-8.646 3.746-2.017 6.916-2.593 3.17-.865 10.663-.865h36.6v47.262h-36.6q-7.205 0-10.375-.576-3.458-.576-7.204-2.594-5.764-3.17-8.934-8.645-3.17-5.764-3.17-11.816M273.565-1296.156l19.02-54.179h60.23l19.02 54.18H404.4l-66.57-193.084h-30.26L241-1296.156zm48.703-139.481 19.884 54.179h-38.616z" style="font-style:normal;font-variant:normal;font-weight:400;font-stretch:normal;line-height:0;font-family:&quot;Roadgeek 2005 Series D&quot;;-inkscape-font-specification:&quot;Roadgeek 2005 Series D&quot;;letter-spacing:25.15393829px;fill:#004187;fill-opacity:1;stroke:none;stroke-width:1395.39379883" transform="matrix(-1 0 0 1 2653 6.698)"/>
          </g>
          <g aria-label="24" style="font-style:normal;font-variant:normal;font-weight:400;font-stretch:normal;font-size:293.25512695px;line-height:0;font-family:&quot;Roadgeek 2005 Series C&quot;;-inkscape-font-specification:&quot;Roadgeek 2005 Series C&quot;;letter-spacing:4.75191641px;word-spacing:0;fill:red;fill-opacity:1;stroke:none;stroke-width:1419.94628906">
            <path d="M-2331.415 330.642q.586-9.97 1.173-17.302.88-7.331 1.76-13.197 1.172-5.865 2.638-11.143 1.76-5.572 4.106-12.024 12.024-30.792 31.672-48.973l3.519-2.933q2.052-1.76 4.692-3.812 2.932-2.053 6.745-4.986 4.105-2.932 9.97-7.038 9.678-6.745 12.904-11.437 3.519-4.692 3.519-12.023 0-5.572-2.346-10.557-2.053-4.986-5.866-8.798-3.519-3.812-8.797-5.865-4.986-2.346-10.557-2.346-5.865 0-10.85 2.346-4.986 2.053-8.798 5.865-3.52 3.812-5.866 8.798-2.052 4.985-2.052 10.557h-27.566q.293-11.437 4.398-21.408 4.4-10.264 11.73-17.595 7.332-7.625 17.303-11.73 9.97-4.4 21.7-4.4 11.438 0 21.115 4.4 9.97 4.399 17.302 12.023 7.625 7.332 11.73 17.302 4.4 9.971 4.4 21.408 0 23.46-16.716 38.71-1.467 1.173-3.226 2.346-1.467.88-2.933 2.346l-6.745 4.985-7.038 4.692-7.624 5.572q-4.693 3.519-9.385 8.504-4.398 4.692-8.797 10.557-4.106 5.572-7.332 12.024-3.225 6.158-5.278 12.317-1.76 3.812-2.64 7.038-.586 2.932-1.759 8.211h79.472v27.566zM-2090.146 283.135v47.507h-28.152v-47.507h-81.525v-19.942l81.525-129.032h28.152v122.58h11.73v26.394zm-28.152-100-46.92 73.607h46.92z" style="font-style:normal;font-variant:normal;font-weight:400;font-stretch:normal;line-height:0;font-family:&quot;Roadgeek 2005 Series C&quot;;-inkscape-font-specification:&quot;Roadgeek 2005 Series C&quot;;letter-spacing:4.75191641px;fill:#004187;fill-opacity:1;stroke:none;stroke-width:1419.94628906" transform="translate(2480.415 -1316.642)"/>
            <g aria-label="HOURS" style="font-style:normal;font-variant:normal;font-weight:400;font-stretch:normal;font-size:288.18444824px;line-height:0;font-family:&quot;Roadgeek 2005 Series C&quot;;-inkscape-font-specification:&quot;Roadgeek 2005 Series C&quot;;letter-spacing:0;word-spacing:0;fill:#ff7f2a;fill-opacity:1;stroke:none;stroke-width:10230.16113281">
              <path d="M-2393.73 1610.184v-87.32h-53.026v87.32h-27.665V1417.1h27.665v78.675h53.026V1417.1h27.666v193.084zM-2215.877 1513.354q0 22.19-2.593 37.752-2.306 15.562-8.358 29.395-7.204 17.29-18.155 25.36-10.663 7.78-27.09 7.78-17.29 0-28.242-7.78-10.662-8.07-17.867-25.36-6.052-14.121-8.646-29.395-2.305-15.562-2.305-37.752 0-21.902 2.305-37.464 2.594-15.85 8.646-29.683 7.493-17.291 18.156-24.784 10.95-7.781 27.953-7.781 16.715 0 27.378 7.78 10.663 7.494 17.867 25.361 2.882 7.205 4.9 14.41 2.305 7.204 3.458 15.273 1.44 7.781 2.017 17.003.576 8.934.576 19.885m-26.513 0q0-8.07-.576-14.698-.288-6.628-1.153-12.103-.576-5.764-1.729-10.951t-2.593-10.375q-3.747-12.968-9.51-18.732-5.476-5.764-14.122-5.764-17.867 0-24.495 23.92-3.458 10.95-4.9 22.19-1.152 10.95-1.152 27.09 0 7.78.288 14.408.576 6.34 1.153 12.104.864 5.476 2.017 10.951t2.594 11.24q6.628 23.919 24.495 23.919 8.646 0 14.121-5.764 5.764-5.764 9.51-18.156 1.73-5.763 2.882-10.95 1.153-5.476 1.73-11.24.864-5.764 1.152-12.104.288-6.628.288-14.985M-2070.26 1552.547q0 5.764-.576 10.375-.288 4.61-1.153 8.645-.864 3.746-2.305 7.493-1.441 3.746-3.459 7.493-7.204 11.815-19.884 19.596-12.392 7.493-26.225 7.493-14.41 0-27.377-7.493-12.68-7.493-19.885-19.596-2.018-3.747-3.459-7.493-1.44-3.747-2.305-7.493-.864-4.035-1.44-8.645-.29-4.611-.29-10.375V1417.1h27.667v138.905q0 13.833 7.492 22.19 7.493 8.358 19.597 8.358 11.24 0 18.444-8.358 7.493-8.357 7.493-22.19V1417.1h27.665zM-1950.043 1610.184l-25.649-90.778h-26.513v90.778h-27.666V1417.1h57.637q11.24 0 20.461 3.747 9.51 3.746 16.139 10.374 6.916 6.628 10.374 16.427 3.747 9.51 3.747 21.037 0 17.291-6.917 29.395t-20.749 17.291l27.666 94.813zm1.44-141.499q0-11.239-6.916-17.867t-18.156-6.628h-28.53v48.703h28.53q12.104 0 18.444-6.052 6.628-6.34 6.628-18.156M-1792.422 1557.446q0 11.816-4.323 22.19-4.034 10.087-11.527 17.58-7.205 7.492-17.003 12.103-9.51 4.323-20.75 4.323-12.68 0-22.766-4.9-10.086-4.898-17.003-13.256-6.916-8.357-10.662-19.308t-3.747-22.767h27.09q0 6.052 1.44 12.104 1.73 5.764 4.9 10.663 3.458 4.61 8.357 7.493 5.187 2.882 12.392 2.882 5.475 0 10.375-2.306 5.187-2.305 8.645-6.34 3.746-4.034 5.764-9.222 2.305-5.475 2.305-11.239 0-8.357-3.458-14.697-3.458-6.629-12.104-13.257-1.44-1.44-1.152-1.44.288-.289-1.73-1.73-2.017-1.44-8.645-5.475-6.34-4.323-21.038-14.41-11.815-8.069-17.867-18.732-5.764-10.95-5.764-23.919 0-10.375 3.747-19.308 3.746-9.222 10.374-16.139 6.917-6.916 15.85-10.662 8.934-4.035 19.309-4.035 10.374 0 19.02 3.746 8.934 3.747 15.274 10.375 6.628 6.628 10.374 15.85 4.035 9.222 4.323 20.173h-26.513q-.576-10.086-6.916-16.138t-15.562-6.052q-9.51 0-16.139 6.34t-6.628 15.85q0 7.205 3.747 12.104t14.409 10.95q27.954 16.14 40.634 32.854 12.968 16.715 12.968 37.752" style="font-style:normal;font-variant:normal;font-weight:400;font-stretch:normal;line-height:0;font-family:&quot;Roadgeek 2005 Series C&quot;;-inkscape-font-specification:&quot;Roadgeek 2005 Series C&quot;;letter-spacing:-1.53722918px;fill:#004187;fill-opacity:1;stroke:none;stroke-width:10230.16113281" transform="translate(3025.421 -2599.642)"/>
            </g>
            <g aria-label="IN" style="font-style:normal;font-variant:normal;font-weight:400;font-stretch:normal;font-size:298.50747681px;line-height:0;font-family:&quot;Roadgeek 2005 Series C&quot;;-inkscape-font-specification:&quot;Roadgeek 2005 Series C&quot;;letter-spacing:0;word-spacing:0;fill:#f95;fill-opacity:1;stroke:none;stroke-width:10596.61425781">
              <path d="M-1185.302 333.642v-200h28.06v200zM-1028.093 333.642l-61.791-134.03v134.03h-28.657v-200h28.657l54.925 120v-120h28.657v200z" style="font-style:normal;font-variant:normal;font-weight:400;font-stretch:normal;line-height:0;font-family:&quot;Roadgeek 2005 Series C&quot;;-inkscape-font-specification:&quot;Roadgeek 2005 Series C&quot;;fill:#004187;fill-opacity:1;stroke:none;stroke-width:10596.61425781" transform="translate(2558.302 -1319.642)"/>
              <g aria-label="TUNNEL" style="font-style:normal;font-variant:normal;font-weight:400;font-stretch:normal;font-size:293.25512695px;line-height:0;font-family:&quot;Roadgeek 2005 Series C&quot;;-inkscape-font-specification:&quot;Roadgeek 2005 Series C&quot;;letter-spacing:0;word-spacing:0;fill:#f60;fill-opacity:1;stroke:none;stroke-width:77687.7890625">
                <path d="M-802.079-1013.017v170.38h-28.446v-170.38h-35.777v-26.1h100v26.1zM-629.82-901.287q0 5.865-.586 10.557-.293 4.692-1.173 8.798-.88 3.812-2.346 7.624t-3.519 7.625q-7.331 12.023-20.235 19.941-12.61 7.625-26.686 7.625-14.662 0-27.859-7.625-12.903-7.625-20.235-19.941-2.052-3.813-3.519-7.625-1.466-3.812-2.346-7.625-.88-4.105-1.466-8.797-.293-4.692-.293-10.557v-137.83h28.152v141.349q0 14.076 7.625 22.58 7.625 8.505 19.941 8.505 11.437 0 18.769-8.505 7.624-8.504 7.624-22.58v-141.35h28.153zM-499.024-842.636l-60.704-131.672v131.672h-28.152v-196.481h28.153l53.958 117.888v-117.888h28.153v196.48zM-346.815-842.636l-60.704-131.672v131.672h-28.153v-196.481h28.153l53.959 117.888v-117.888h28.152v196.48zM-283.463-842.636v-196.481h92.375v27.566h-64.223v49.56h40.762v26.98h-40.762v64.809h71.848v27.566zM-151.302-842.636v-196.481h28.153v170.381h71.847v26.1z" style="font-style:normal;font-variant:normal;font-weight:400;font-stretch:normal;line-height:0;font-family:&quot;Roadgeek 2005 Series C&quot;;-inkscape-font-specification:&quot;Roadgeek 2005 Series C&quot;;letter-spacing:-.71966666px;fill:#004187;fill-opacity:1;stroke:none;stroke-width:77687.7890625" transform="translate(2558.302 -146.883)"/>
              </g>
            </g>
          </g>
        </g>
      </g>
    </g>
    <circle cx="1328" cy="-246" r="445" style="opacity:1;fill:#be121e;fill-opacity:1;fill-rule:nonzero;stroke:none;stroke-width:159.86721802;stroke-linecap:square;stroke-linejoin:round;stroke-miterlimit:4;stroke-dasharray:none;stroke-opacity:1"/>
    <circle cx="1328" cy="-246" r="365" style="opacity:1;fill:#fff;fill-opacity:1;fill-rule:nonzero;stroke:none;stroke-width:131.12704468;stroke-linecap:square;stroke-linejoin:round;stroke-miterlimit:4;stroke-dasharray:none;stroke-opacity:1"/>
    <g aria-label="60" style="font-style:normal;font-variant:normal;font-weight:400;font-stretch:normal;font-size:576.36889648px;line-height:0;font-family:&quot;Roadgeek 2005 Series D&quot;;-inkscape-font-specification:&quot;Roadgeek 2005 Series D&quot;;letter-spacing:0;word-spacing:0;fill:#000;fill-opacity:1;stroke:none;stroke-width:14.40922165">
      <path d="M401.824-66.156q0 24.784-10.374 46.686-9.799 21.326-27.666 37.464-17.291 15.562-41.499 24.784Q298.078 52 270.412 52t-51.873-9.222q-24.208-9.798-42.075-26.513Q159.173-.45 148.798-22.928 139-45.406 139-71.343q0-40.346 10.375-80.115 10.95-39.77 30.547-76.08 19.597-36.312 46.686-66.86 27.666-31.124 61.095-53.602l31.124 51.873q-17.867 13.833-31.7 27.09-13.257 12.68-24.784 26.512-10.951 13.833-20.173 29.395-9.222 14.986-17.867 33.43 16.714-2.882 25.36-3.459 9.222-.576 20.75-.576 26.512 0 50.143 9.222 24.208 9.222 42.075 25.36 18.444 15.562 28.819 37.464 10.374 21.326 10.374 45.533m-61.095-1.152q0-10.951-5.764-21.326-5.187-10.375-14.985-17.867-9.222-7.493-22.479-12.104-12.68-4.611-27.089-4.611-14.41 0-27.09 4.61-12.103 4.612-21.901 12.105-9.222 7.492-14.986 17.867-5.187 10.375-5.187 21.326 0 11.527 5.187 21.902 5.764 10.374 14.986 18.443 9.798 7.493 21.902 12.104 12.68 4.611 27.09 4.611 14.408 0 27.088-4.61 12.68-4.612 21.902-12.105 9.799-8.069 15.562-18.443 5.764-10.375 5.764-21.902M751-147.424q0 46.11-10.951 88.185T708.925 8.772Q676.648 52 615.553 52q-40.922 0-67.435-16.715-26.513-16.714-43.804-52.45-12.104-24.783-19.597-59.942-7.492-35.734-7.492-70.317 0-47.838 10.95-88.76 11.528-40.923 31.124-68.588 17.292-21.902 40.923-32.277Q584.429-348 617.859-348q36.887 0 62.824 16.715 25.936 16.714 44.38 52.45 12.104 25.936 19.02 60.518T751-147.424m-61.095 0q0-32.853-5.764-60.518-5.764-28.242-17.291-47.839-9.222-14.986-21.326-21.902-11.527-6.916-28.818-8.07-22.479-1.152-37.464 10.375-14.986 11.528-24.784 37.464-7.493 17.292-11.527 42.075-3.459 24.208-3.459 48.415 0 31.124 5.764 59.943t17.291 47.262q9.222 14.986 21.902 22.478t31.124 7.493q21.326 0 35.159-11.527 14.409-11.528 24.207-37.464 2.882-7.493 5.764-17.868 2.882-10.95 4.61-22.478 2.306-12.104 3.459-24.208t1.153-23.63" style="font-style:normal;font-variant:normal;font-weight:400;font-stretch:normal;line-height:0;font-family:&quot;Roadgeek 2005 Series D&quot;;-inkscape-font-specification:&quot;Roadgeek 2005 Series D&quot;;fill:#000;stroke:none;stroke-width:14.40922165" transform="translate(883 -98)"/>
    </g>
  </g>
</svg>
