<svg xmlns="http://www.w3.org/2000/svg" viewBox="0 0 1521 1052" role="img" aria-labelledby="title">
  <title id="title">Verkehrszeichen G6-254-NSW - Speed Cameras Check Your Speed Now (used in NSW)</title>
  <g transform="translate(0 755)">
    <rect width="1519" height="1050" x="1" y="-754" rx="152" ry="152" style="opacity:1;fill:#000;fill-opacity:1;fill-rule:nonzero;stroke:none;stroke-width:6.04779291;stroke-linecap:square;stroke-linejoin:round;stroke-miterlimit:4;stroke-dasharray:18.14337915,18.14337915;stroke-dashoffset:0;stroke-opacity:1"/>
    <rect width="1515" height="1046" x="3" y="-752" rx="150" ry="150" style="opacity:1;fill:#fff;fill-opacity:1;fill-rule:nonzero;stroke:none;stroke-width:6.02830982;stroke-linecap:square;stroke-linejoin:round;stroke-miterlimit:4;stroke-dasharray:18.0849286,18.0849286;stroke-dashoffset:0;stroke-opacity:1"/>
    <rect width="1475" height="1006" x="23" y="-732" rx="130" ry="130" style="opacity:1;fill:#004187;fill-opacity:1;fill-rule:nonzero;stroke:none;stroke-width:5.83335495;stroke-linecap:square;stroke-linejoin:round;stroke-miterlimit:4;stroke-dasharray:17.50006413,17.50006412999999839;stroke-dashoffset:0;stroke-opacity:1"/>
    <rect width="1435" height="966" x="43" y="-712" rx="110" ry="110" style="opacity:1;fill:#fff;fill-opacity:1;fill-rule:nonzero;stroke:none;stroke-width:5.63816643;stroke-linecap:square;stroke-linejoin:round;stroke-miterlimit:4;stroke-dasharray:16.91449958,16.91449958;stroke-dashoffset:0;stroke-opacity:1"/>
    <g aria-label="SPEED" style="font-style:normal;font-variant:normal;font-weight:400;font-stretch:normal;font-size:201.72911072px;line-height:0;font-family:&quot;Roadgeek 2005 Series EM&quot;;-inkscape-font-specification:&quot;Roadgeek 2005 Series EM&quot;;letter-spacing:15.58660412px;word-spacing:0;fill:#000;fill-opacity:1;stroke:none;stroke-width:5.04322767">
      <path d="M514.039-513.161q0 10.691-5.245 20.172-5.245 9.28-14.121 14.323-6.052 3.631-15.735 5.649Q469.255-471 459.572-471q-11.498 0-22.19-3.026-10.692-3.228-19.568-9.28-3.227-1.815-6.052-4.034-2.622-2.22-7.262-6.455l18.963-18.963q8.472 7.868 16.945 11.297 8.674 3.43 20.576 3.43 11.7 0 18.963-3.833 7.464-3.833 7.464-10.894 0-2.824-1.614-6.253t-4.438-5.245q-1.816-1.01-3.833-1.816-2.017-1.009-5.043-1.816-2.824-.806-7.263-1.613-4.236-1.01-10.893-2.22-10.893-2.622-17.55-4.84-6.657-2.422-10.894-5.246-6.859-4.64-10.893-12.709-3.833-8.069-3.833-16.542 0-10.288 4.842-19.164 5.043-8.876 14.12-14.12 5.65-3.43 12.508-5.044Q449.486-611 458.563-611q11.499 0 21.787 2.623 10.49 2.622 18.963 7.867 2.219 1.412 3.63 2.622 1.615 1.01 4.842 3.631l-16.541 21.182q-8.271-6.052-16.139-8.473-7.867-2.42-17.55-2.42-9.28 0-14.726 3.227-5.245 3.228-5.245 9.683 0 2.421 1.412 5.044 1.412 2.42 3.833 3.429 1.815 1.009 3.832 1.614 2.018.403 4.237 1.21l4.236.404 4.842 1.008 6.051 1.009q23.804 4.236 35.908 15.331 12.104 10.894 12.104 28.848M672.528-566.821q0 11.7-5.649 21.786-5.648 9.885-15.331 15.13-3.026 1.614-5.85 2.824-2.623 1.009-5.649 1.614-2.824.605-6.455 1.009-3.43.201-8.07.201H590.02v50.836h-26.628v-135.562h63.545q8.472 0 13.717 1.21 5.245 1.211 10.894 4.439 9.683 5.648 15.331 15.331 5.649 9.683 5.649 21.182m-26.629 0q0-6.456-4.841-10.692-4.64-4.438-12.306-4.438H590.02v30.663h38.732q7.868 0 12.508-4.236 4.64-4.237 4.64-11.297M712.535-473.42v-135.563h98.645v27.032h-72.017v22.19h40.75v27.032h-40.75v32.277h73.833v27.031zM856.95-473.42v-135.563h98.645v27.032h-72.017v22.19h40.75v27.032h-40.75v32.277h73.833v27.031zM1110.5-541.202q0 15.533-4.842 28.04t-13.717 21.384q-8.675 8.674-20.98 13.516-12.305 4.841-27.435 4.841h-42.162v-135.562h42.162q15.331 0 27.637 4.842 12.305 4.841 20.98 13.717 8.876 8.876 13.515 21.384 4.842 12.507 4.842 27.838m-26.628 0q0-19.366-10.289-30.057-10.288-10.692-28.645-10.692h-16.945v81.499h16.945q18.357 0 28.645-10.692t10.289-30.058" style="font-style:normal;font-variant:normal;font-weight:400;font-stretch:normal;line-height:0;font-family:&quot;Roadgeek 2005 Series EM&quot;;-inkscape-font-specification:&quot;Roadgeek 2005 Series EM&quot;;letter-spacing:15.57602119px;fill:#004187;fill-opacity:1;stroke:none;stroke-width:5.04322767" transform="translate(3 -3)"/>
      <g aria-label="CAMERAS" style="font-style:normal;font-variant:normal;font-weight:400;font-stretch:normal;font-size:201.72911072px;line-height:1.25;font-family:&quot;Roadgeek 2005 Series EM&quot;;-inkscape-font-specification:&quot;Roadgeek 2005 Series EM&quot;;letter-spacing:0;word-spacing:0;fill:#000;fill-opacity:1;stroke:none;stroke-width:25.43414497">
        <path d="M332.039-290.856q-9.078 14.323-21.182 22.19Q298.955-261 281.203-261q-14.726 0-25.821-5.85-10.894-6.052-18.358-15.937-7.262-9.884-10.893-22.392-3.631-12.709-3.631-26.023 0-15.735 4.236-28.444 4.438-12.91 12.306-21.988 7.867-9.28 18.76-14.323Q268.899-401 282.213-401q8.069 0 15.533 2.017t13.92 5.85q6.455 3.631 11.498 9.28 5.245 5.447 8.876 12.305l-23.804 12.71q-4.64-7.666-11.7-11.298-7.06-3.832-15.332-3.832-7.262 0-13.112 3.026t-10.087 8.674q-4.034 5.447-6.253 13.516-2.22 7.867-2.22 17.55 0 9.885 2.22 17.954 2.219 7.868 6.253 13.516 4.237 5.648 10.087 8.674t13.112 3.026q8.271 0 15.332-3.833 7.06-4.034 11.7-11.902zM472.746-263.42l-12.911-31.874h-53.458l-12.911 31.873h-28.847l54.467-135.562h28.04l54.467 135.562zm-38.934-96.83-16.542 37.924h31.672zM642.363-263.42v-73.43l-36.11 73.43-36.917-73.43v73.43h-26.628v-135.563h26.629l36.916 74.438 36.11-74.438h26.426v135.562zM723.234-263.42v-135.563h98.646v27.032h-72.018v22.19h40.75v27.032h-40.75v32.276h73.833v27.032zM949.386-263.42l-18.56-50.836h-35.504v50.835h-26.628v-135.562h61.124q4.236 0 7.464.404 3.43.201 6.254.807 3.026.605 5.648 1.815 2.623 1.009 5.447 2.623 9.884 5.648 15.533 15.331t5.648 21.182q0 11.095-5.043 20.576t-14.323 15.533l21.384 57.291zm0-93.401q0-6.456-4.842-10.692-4.841-4.438-12.305-4.438h-36.917v30.663h36.917q7.464 0 12.305-4.237 4.842-4.236 4.842-11.296M1117.237-263.42l-12.91-31.874h-53.459l-12.91 31.873h-28.848l54.467-135.562h28.04l54.467 135.562zm-38.934-96.83-16.542 37.924h31.672zM1292.5-303.161q0 10.691-5.245 20.172-5.245 9.28-14.121 14.323-6.052 3.631-15.735 5.649-9.683 2.017-19.366 2.017-11.498 0-22.19-3.026-10.692-3.228-19.568-9.28-3.228-1.815-6.052-4.034-2.622-2.22-7.262-6.455l18.963-18.963q8.472 7.867 16.945 11.297 8.674 3.43 20.576 3.43 11.7 0 18.963-3.834 7.464-3.832 7.464-10.893 0-2.824-1.614-6.254t-4.438-5.245q-1.816-1.008-3.833-1.815-2.017-1.009-5.043-1.816-2.825-.807-7.263-1.614-4.236-1.008-10.893-2.219-10.893-2.622-17.55-4.841-6.657-2.42-10.894-5.245-6.859-4.64-10.893-12.709-3.833-8.07-3.833-16.542 0-10.288 4.842-19.164 5.043-8.876 14.12-14.121 5.65-3.43 12.508-5.043 6.859-1.614 15.936-1.614 11.499 0 21.787 2.622 10.49 2.623 18.963 7.868 2.219 1.412 3.63 2.622 1.615 1.009 4.842 3.631l-16.542 21.182q-8.27-6.052-16.138-8.473-7.867-2.42-17.55-2.42-9.28 0-14.726 3.227-5.245 3.228-5.245 9.683 0 2.421 1.412 5.043 1.412 2.421 3.833 3.43 1.815 1.009 3.832 1.614 2.018.403 4.237 1.21l4.236.404 4.842 1.008 6.051 1.009q23.804 4.236 35.908 15.331 12.104 10.894 12.104 28.848" style="font-style:normal;font-variant:normal;font-weight:400;font-stretch:normal;font-family:&quot;Roadgeek 2005 Series EM&quot;;-inkscape-font-specification:&quot;Roadgeek 2005 Series EM&quot;;letter-spacing:16.62112427px;fill:#004187;fill-opacity:1;stroke:none;stroke-width:25.43414497" transform="translate(3 -3)"/>
        <g aria-label="CHECK" style="font-style:normal;font-variant:normal;font-weight:400;font-stretch:normal;font-size:201.72911072px;line-height:0;font-family:&quot;Roadgeek 2005 Series D&quot;;-inkscape-font-specification:&quot;Roadgeek 2005 Series D&quot;;letter-spacing:12.91695786px;word-spacing:0;fill:#000;fill-opacity:1;stroke:none;stroke-width:128.27018738">
          <path d="M226.488-80.856Q214.385-51 185.74-51q-15.13 0-25.014-5.85-9.885-5.85-16.34-18.357-4.64-9.078-7.262-21.182-2.623-12.104-2.623-24.813 0-16.138 4.035-30.864 4.034-14.727 11.095-23.804 6.051-7.464 14.524-11.297Q172.828-191 184.327-191q15.331 0 25.216 6.657 10.087 6.657 16.945 20.98l-19.97 8.473q-2.825-4.237-5.246-7.061-2.219-2.824-4.841-4.438-2.42-1.614-5.447-2.22-2.824-.604-6.657-.604-8.27 0-13.92 3.833-5.446 3.832-8.875 12.91-2.623 6.052-4.035 14.323-1.21 8.27-1.21 16.945 0 11.095 2.219 21.384 2.219 10.086 6.253 16.541 3.631 5.245 8.473 7.868 4.841 2.622 11.902 2.622 6.859 0 11.902-3.63 5.043-3.834 9.078-12.105zM339.446-53.42v-58.906h-49.222v58.905h-21.383v-135.158h21.383v54.467h49.222v-54.467h21.384v135.158zM405.877-53.42v-135.16h79.683v21.384h-58.3v33.084h39.337v21.786H427.26v37.119h62.536v21.786zM614.738-80.856Q602.634-51 573.988-51q-15.129 0-25.014-5.85t-16.34-18.357q-4.64-9.078-7.262-21.182-2.623-12.104-2.623-24.813 0-16.138 4.035-30.864 4.035-14.727 11.095-23.804 6.052-7.464 14.525-11.297Q561.078-191 572.577-191q15.33 0 25.216 6.657 10.086 6.657 16.945 20.98l-19.971 8.473q-2.824-4.237-5.245-7.061-2.22-2.824-4.842-4.438-2.42-1.614-5.446-2.22-2.825-.604-6.657-.604-8.271 0-13.92 3.833-5.446 3.832-8.876 12.91-2.622 6.052-4.034 14.323-1.21 8.27-1.21 16.945 0 11.095 2.218 21.384 2.22 10.086 6.254 16.541 3.631 5.245 8.472 7.868 4.842 2.622 11.902 2.622 6.86 0 11.902-3.63 5.044-3.834 9.078-12.105zM726.889-53.42l-34.294-63.949-14.121 17.55v46.398H657.09v-135.158h21.383v53.66l42.565-53.66h27.637l-41.758 52.651L751.5-53.421z" style="font-style:normal;font-variant:normal;font-weight:400;font-stretch:normal;line-height:0;font-family:&quot;Roadgeek 2005 Series D&quot;;-inkscape-font-specification:&quot;Roadgeek 2005 Series D&quot;;letter-spacing:12.92224979px;fill:#004187;fill-opacity:1;stroke:none;stroke-width:128.27018738" transform="translate(3 -3)"/>
          <g aria-label="YOUR" style="font-style:normal;font-variant:normal;font-weight:400;font-stretch:normal;font-size:201.72911072px;line-height:0;font-family:&quot;Roadgeek 2005 Series D&quot;;-inkscape-font-specification:&quot;Roadgeek 2005 Series D&quot;;letter-spacing:0;word-spacing:0;fill:#000;fill-opacity:1;stroke:none;stroke-width:646.89575195">
            <path d="M934.29-112.326v58.905h-21.384v-58.905L865.5-188.579h25.62l32.276 52.248 32.68-52.248h25.216zM1109.892-120.798q0 16.138-3.833 30.864-3.833 14.727-10.893 23.804Q1083.869-51 1062.486-51q-14.323 0-23.603-5.85t-15.331-18.357q-4.236-8.675-6.859-20.98-2.622-12.508-2.622-24.611 0-16.744 3.833-31.067 4.034-14.322 10.893-24.005 6.052-7.666 14.323-11.297 8.472-3.833 20.173-3.833 12.91 0 21.988 5.85t15.533 18.357q4.236 9.078 6.657 21.182t2.421 24.813m-21.383 0q0-11.499-2.017-21.182-2.018-9.885-6.052-16.743-3.228-5.245-7.464-7.666-4.035-2.42-10.087-2.824-7.867-.404-13.112 3.63-5.245 4.035-8.675 13.113-2.622 6.052-4.034 14.726-1.21 8.473-1.21 16.946 0 10.893 2.017 20.98t6.052 16.541q3.227 5.245 7.665 7.868 4.438 2.622 10.894 2.622 7.464 0 12.305-4.034 5.043-4.035 8.473-13.113 1.008-2.622 2.017-6.253 1.009-3.833 1.614-7.868.807-4.236 1.21-8.472.404-4.237.404-8.271M1244.102-101.836q0 7.868-1.816 14.928-1.613 7.06-4.437 13.113-2.623 5.043-6.86 9.28-4.235 4.034-9.48 7.06t-11.297 4.64Q1204.362-51 1198.108-51t-12.306-1.816q-5.85-1.613-11.095-4.64-5.245-3.025-9.683-7.06-4.236-4.236-6.858-9.28-2.825-6.051-4.438-13.112-1.614-7.06-1.614-14.928v-86.743h21.383v86.743q0 13.314 6.657 21.182 6.859 7.867 17.954 7.867t17.752-7.867q6.859-7.868 6.859-21.182v-86.743h21.383zM1357.301-53.42l-21.787-58.906h-25.62v58.905h-21.382v-135.158h44.582q7.867 0 13.516 1.008 5.648.807 10.691 3.228 4.438 2.22 8.07 5.85 3.832 3.43 6.455 8.07 2.824 4.437 4.236 9.682 1.614 5.044 1.614 10.087 0 5.447-1.614 10.691-1.412 5.044-4.236 9.683-2.623 4.439-6.657 8.07-3.833 3.63-8.473 5.648l23.804 63.141zm-1.008-97.234q0-4.236-2.22-8.07-2.219-3.832-6.253-6.051-2.623-1.412-4.842-1.816-2.219-.605-7.464-.605h-25.62v33.084h25.62q5.044 0 7.263-.404 2.42-.403 5.043-1.815 4.035-2.22 6.254-6.052 2.219-4.035 2.219-8.271" style="font-style:normal;font-variant:normal;font-weight:400;font-stretch:normal;line-height:0;font-family:&quot;Roadgeek 2005 Series D&quot;;-inkscape-font-specification:&quot;Roadgeek 2005 Series D&quot;;letter-spacing:12.28724957px;fill:#004187;fill-opacity:1;stroke:none;stroke-width:646.89575195" transform="translate(3 -3)"/>
            <g aria-label="SPEED" style="font-style:normal;font-variant:normal;font-weight:400;font-stretch:normal;font-size:201.72911072px;line-height:0;font-family:&quot;Roadgeek 2005 Series D&quot;;-inkscape-font-specification:&quot;Roadgeek 2005 Series D&quot;;letter-spacing:0;word-spacing:0;fill:#000;fill-opacity:1;stroke:none;stroke-width:3262.44262695">
              <path d="M293.488 117.646q0 9.28-3.429 17.147-3.43 7.867-9.885 13.717-5.648 5.043-13.314 7.868Q259.396 159 250.722 159q-17.55 0-30.058-9.28-12.305-9.48-19.164-25.014l20.375-7.464q4.236 9.683 11.7 14.928 7.464 5.043 17.147 5.043 9.481 0 15.13-5.648 5.85-5.85 5.85-14.323 0-6.657-3.631-10.893-3.43-4.237-9.078-7.06-5.649-3.027-12.507-5.246-6.658-2.219-13.315-4.841-3.026-1.21-7.464-3.43-4.438-2.219-8.674-6.052-4.035-4.034-7.06-9.884-2.825-5.85-2.825-14.323 0-9.885 3.228-16.744 3.228-7.06 8.674-11.296 5.649-4.438 13.314-6.456Q240.232 19 249.31 19q14.322 0 23.804 7.464 9.683 7.464 14.726 20.173l-18.962 5.648q-1.614-3.227-4.237-5.85-2.219-2.219-6.253-4.034-3.833-1.816-9.482-2.018-3.63-.201-7.665.605-3.833.606-6.86 2.421-3.025 1.816-4.84 5.043-1.816 3.026-1.413 7.666.404 6.254 5.447 9.683 5.043 3.228 12.305 5.649 7.263 2.42 15.534 5.043 8.472 2.42 15.533 7.262 7.06 4.64 11.7 12.709 4.841 7.867 4.841 21.182M425.89 59.346q0 5.447-1.614 10.691-1.614 5.044-4.438 9.683-2.824 4.439-6.657 7.868-3.631 3.43-8.069 5.447-4.64 2.219-10.893 3.429-6.052 1.21-13.92 1.21h-25.014v58.905h-21.383V21.421h46.397q8.271 0 13.92 1.008 5.85.807 10.893 3.228 4.438 2.22 8.07 5.85 3.832 3.43 6.656 8.07 2.824 4.437 4.438 9.682 1.614 5.044 1.614 10.087m-21.787 0q0-4.236-2.42-8.07-2.22-3.832-5.649-6.051-2.824-1.614-5.446-2.018-2.421-.403-7.465-.403h-27.838v33.084h27.838q5.044 0 7.464-.404 2.623-.403 5.447-1.815 3.43-1.816 5.649-5.85 2.42-4.237 2.42-8.473M463.519 156.58V21.42h79.683v21.384h-58.3v33.084h39.337v21.786h-39.337v37.119h62.536v21.786zM588.015 156.58V21.42h79.683v21.384h-58.3v33.084h39.338v21.786h-39.337v37.119h62.536v21.786zM804.5 88.798q0 20.375-6.253 35.908-6.052 15.331-17.55 24.208-3.834 3.63-9.079 5.446-5.043 1.816-10.288 2.22h-48.818V21.42h43.573q5.044 0 8.675.404 3.833.202 6.858 1.009 3.026.807 5.447 2.219 2.42 1.412 5.245 3.43 10.692 9.279 16.34 24.812 5.85 15.331 5.85 35.504m-21.786 0q0-13.717-3.026-24.409-2.825-10.692-7.868-15.937-2.622-2.42-6.052-4.034t-7.665-1.614h-24.208v91.989h21.383q5.245 0 8.675-1.21 3.63-1.211 6.455-4.035 6.052-6.052 9.078-16.542 3.228-10.692 3.228-24.208" style="font-style:normal;font-variant:normal;font-weight:400;font-stretch:normal;line-height:0;font-family:&quot;Roadgeek 2005 Series D&quot;;-inkscape-font-specification:&quot;Roadgeek 2005 Series D&quot;;letter-spacing:17.72179604px;fill:#004187;fill-opacity:1;stroke:none;stroke-width:3262.44262695" transform="translate(3 -3)"/>
              <g aria-label="NOW" style="font-style:normal;font-variant:normal;font-weight:400;font-stretch:normal;font-size:201.72911072px;line-height:0;font-family:&quot;Roadgeek 2005 Series D&quot;;-inkscape-font-specification:&quot;Roadgeek 2005 Series D&quot;;letter-spacing:11.61785221px;word-spacing:0;fill:#0050a0;fill-opacity:1;stroke:none;stroke-width:16453.24023438">
                <path d="M122.254 256.909 70.61 165.324v91.585H49.228V121.75H70.61l49.222 86.34v-86.34h21.383V256.91zM277.752 189.531q0 16.138-3.833 30.865-3.832 14.726-10.893 23.804-11.297 15.13-32.68 15.13-14.323 0-23.602-5.85t-15.332-18.358q-4.236-8.674-6.859-20.98-2.622-12.507-2.622-24.61 0-16.744 3.833-31.067 4.034-14.323 10.893-24.006 6.052-7.666 14.323-11.297 8.472-3.833 20.173-3.833 12.91 0 21.988 5.85t15.533 18.358q4.237 9.078 6.657 21.181t2.421 24.813m-21.383 0q0-11.498-2.017-21.181-2.018-9.885-6.052-16.744-3.228-5.245-7.464-7.666-4.035-2.42-10.087-2.824-7.867-.403-13.112 3.631-5.245 4.035-8.674 13.113-2.623 6.052-4.035 14.726-1.21 8.472-1.21 16.945 0 10.893 2.017 20.98t6.052 16.542q3.227 5.245 7.665 7.867 4.439 2.623 10.894 2.623 7.464 0 12.305-4.035 5.044-4.035 8.473-13.112 1.009-2.623 2.017-6.254 1.009-3.833 1.614-7.867.807-4.237 1.21-8.473.404-4.236.404-8.27M407.256 256.909h-18.962l-21.384-86.744-20.778 86.744H327.17L307.199 121.75h21.786l10.49 71.21 17.147-71.21H377.4l17.55 71.21 10.49-71.21h21.787z" style="font-style:normal;font-variant:normal;font-weight:400;font-stretch:normal;line-height:0;font-family:&quot;Roadgeek 2005 Series D&quot;;-inkscape-font-specification:&quot;Roadgeek 2005 Series D&quot;;letter-spacing:11.41677094px;fill:#004187;fill-opacity:1;stroke:none;stroke-width:16453.24023438" transform="translate(889.272 -103.33)"/>
              </g>
            </g>
          </g>
        </g>
      </g>
    </g>
  </g>
</svg>
