<svg xmlns="http://www.w3.org/2000/svg" xml:space="preserve" viewBox="0 0 814.525 380.112" role="img" aria-labelledby="title">
  <title id="title">Verkehrszeichen G9-82 - Steep Descent</title>
  <path d="M55.398 0H759.12c30.472 0 55.404 24.932 55.404 55.398v269.317c0 30.466-24.932 55.397-55.404 55.397H55.398C24.926 380.112 0 355.181 0 324.715V55.398C0 24.932 24.926 0 55.398 0" style="fill:#c0111e;fill-opacity:1;fill-rule:evenodd;stroke:none"/>
  <path d="M55.398 5.429H759.12c27.485 0 49.975 22.484 49.975 49.969v269.31c0 27.486-22.49 49.976-49.975 49.976H55.398c-27.485 0-49.97-22.49-49.97-49.975V55.398c0-27.485 22.485-49.97 49.97-49.97" style="fill:#fff;fill-opacity:1;fill-rule:evenodd;stroke:none"/>
  <path d="M55.398 16.292H759.12c21.51 0 39.112 17.602 39.112 39.111v269.312c0 21.51-17.602 39.11-39.112 39.11H55.398c-21.51 0-39.111-17.6-39.111-39.11V55.403c0-21.51 17.6-39.11 39.11-39.11" style="fill:#c0111e;fill-opacity:1;fill-rule:evenodd;stroke:none"/>
  <path d="m116.318 151.608 9.907-3.322c.904 1.832 1.837 3.363 2.817 4.613.962 1.239 2.03 2.23 3.181 2.97 1.15.734 2.465 1.268 3.92 1.597 1.456.31 3.129.475 5.013.463 1.027-.012 2.06-.27 3.116-.769 1.05-.498 2.03-1.185 2.935-2.042a10.7 10.7 0 0 0 2.16-2.882c.551-1.062.839-2.16.844-3.298.013-1.696-.234-3.175-.768-4.455-.523-1.273-1.415-2.37-2.653-3.28-1.239-.928-2.923-1.685-5.048-2.295-2.118-.61-4.771-1.086-7.952-1.444-.505-.047-1.11-.176-1.849-.381a20 20 0 0 1-2.388-.87 24 24 0 0 1-2.641-1.355 19.4 19.4 0 0 1-2.577-1.89c-.921-.74-1.79-1.666-2.582-2.782-.799-1.12-1.45-2.435-1.937-3.944-.487-1.52-.751-3.228-.757-5.14.006-2.507.375-4.825 1.091-6.932.722-2.119 1.72-4.009 3-5.681 1.297-1.661 2.781-3.087 4.501-4.261a20.6 20.6 0 0 1 5.552-2.67c1.984-.611 4.05-.922 6.192-.922 3.028 0 5.705.51 8.017 1.543 2.3 1.028 4.314 2.606 6.027 4.713q2.563 3.16 4.402 8.017l-9.713 2.935c-.446-1.326-1.021-2.424-1.72-3.28a8.3 8.3 0 0 0-2.377-2.014 10.8 10.8 0 0 0-2.8-1.074 18.5 18.5 0 0 0-3.01-.41 8.26 8.26 0 0 0-3.586.833 9.6 9.6 0 0 0-2.91 2.154 10.3 10.3 0 0 0-1.979 2.952 8.3 8.3 0 0 0-.716 3.251 6.56 6.56 0 0 0 .681 2.811 8 8 0 0 0 1.76 2.36c.728.663 1.52 1.138 2.384 1.408 1.02.3 2.124.517 3.333.658 1.197.129 2.436.246 3.704.37 1.273.105 2.523.293 3.762.528 1.238.24 2.388.61 3.474 1.12a24.6 24.6 0 0 1 4.683 2.923 20.4 20.4 0 0 1 3.815 3.944 18.4 18.4 0 0 1 2.56 4.965c.61 1.826.927 3.81.938 5.963-.012 3.064-.493 5.875-1.455 8.428a19.2 19.2 0 0 1-4.173 6.673c-1.825 1.878-4.032 3.346-6.609 4.379-2.582 1.033-5.505 1.567-8.756 1.572-1.573 0-3.258-.246-5.03-.745q-2.668-.757-5.347-2.183a28.5 28.5 0 0 1-5.112-3.48 26 26 0 0 1-4.325-4.649 21.6 21.6 0 0 1-3-5.693M170.225 101.933h39.762v9.584h-14.925v55.603h-9.848v-55.603h-14.99zM225.957 101.933h37.35v10.43h-27.25v16.033h19.04v10.171h-19.04v18.382h29.662v10.171h-39.762zM283.708 101.933h37.35v10.43h-27.25v16.033h19.04v10.171h-19.04v18.382h29.663v10.171h-39.763zM351.566 111.582v16.75h15.71c1.128-.005 2.149-.247 3.076-.728a7.2 7.2 0 0 0 2.354-1.978 8.9 8.9 0 0 0 1.52-2.9c.358-1.097.546-2.27.546-3.52a6.7 6.7 0 0 0-.652-2.759 8.6 8.6 0 0 0-1.772-2.441 8.8 8.8 0 0 0-2.583-1.75 7.6 7.6 0 0 0-3.075-.674zm-10.101-9.649h25.025c2.014.012 3.939.293 5.781.857 1.86.57 3.563 1.373 5.142 2.412a18.4 18.4 0 0 1 4.114 3.721 16.6 16.6 0 0 1 2.74 4.766c.664 1.749.987 3.61.998 5.587-.012 2.694-.498 5.2-1.467 7.536a18.8 18.8 0 0 1-4.126 6.15c-1.784 1.773-3.914 3.152-6.368 4.15-2.453.998-5.182 1.496-8.181 1.52h-13.557v28.488h-10.101zM56.736 213.057h18.252c3.228.012 6.169.552 8.845 1.62a21.85 21.85 0 0 1 7.101 4.607c2.078 1.984 3.827 4.378 5.247 7.166q2.141 4.173 3.252 9.332c.74 3.445 1.109 7.142 1.109 11.104 0 2.383-.24 4.8-.728 7.26a39 39 0 0 1-2.177 7.19 33.4 33.4 0 0 1-3.592 6.55 26.6 26.6 0 0 1-4.989 5.381 22.3 22.3 0 0 1-6.356 3.639q-3.52 1.32-7.712 1.338H56.736zM67.1 267.68h7.495c2.03-.012 3.838-.37 5.411-1.074a13.5 13.5 0 0 0 4.12-2.823 18.5 18.5 0 0 0 2.964-3.98 25 25 0 0 0 1.943-4.542c.499-1.55.863-3.064 1.08-4.507.217-1.444.323-2.724.323-3.868.011-1.544-.088-3.193-.282-4.942a36 36 0 0 0-.992-5.282 26.6 26.6 0 0 0-1.855-5.047 17.5 17.5 0 0 0-2.922-4.296 12.9 12.9 0 0 0-4.185-2.976c-1.608-.728-3.474-1.11-5.605-1.115H67.1zM117.88 213.057h37.35v10.43h-27.25v16.033h19.039v10.171h-19.04v18.382h29.663v10.171h-39.763zM170.483 262.726l9.907-3.322c.904 1.832 1.837 3.363 2.817 4.613.963 1.239 2.03 2.23 3.181 2.97 1.15.734 2.465 1.268 3.92 1.597 1.456.31 3.129.475 5.013.463 1.027-.012 2.06-.27 3.116-.769 1.05-.498 2.03-1.185 2.935-2.042a10.8 10.8 0 0 0 2.16-2.882c.551-1.062.839-2.16.845-3.298.012-1.696-.235-3.175-.77-4.455-.522-1.273-1.414-2.37-2.652-3.28-1.238-.928-2.923-1.685-5.047-2.295-2.12-.61-4.772-1.086-7.953-1.444-.505-.047-1.11-.176-1.849-.381a20 20 0 0 1-2.388-.87 24 24 0 0 1-2.641-1.355 19.4 19.4 0 0 1-2.577-1.89c-.921-.74-1.79-1.666-2.582-2.782-.798-1.12-1.45-2.435-1.937-3.944-.487-1.52-.751-3.228-.757-5.14.005-2.507.375-4.825 1.092-6.932.721-2.119 1.72-4.009 2.999-5.681 1.297-1.661 2.781-3.087 4.501-4.261a20.6 20.6 0 0 1 5.552-2.67c1.984-.611 4.05-.922 6.192-.922 3.028 0 5.705.51 8.017 1.543 2.3 1.028 4.314 2.606 6.028 4.713q2.561 3.16 4.401 8.017l-9.713 2.935c-.446-1.327-1.021-2.424-1.72-3.28a8.3 8.3 0 0 0-2.376-2.014 10.8 10.8 0 0 0-2.8-1.074 18.5 18.5 0 0 0-3.01-.41 8.26 8.26 0 0 0-3.587.833 9.6 9.6 0 0 0-2.91 2.154 10.3 10.3 0 0 0-1.979 2.952 8.3 8.3 0 0 0-.716 3.251 6.6 6.6 0 0 0 .681 2.811 8 8 0 0 0 1.76 2.36c.729.663 1.52 1.138 2.384 1.408 1.02.3 2.124.517 3.333.658 1.198.129 2.436.246 3.704.363 1.273.112 2.523.3 3.762.535 1.238.24 2.388.61 3.474 1.12a24.6 24.6 0 0 1 4.684 2.923 20.4 20.4 0 0 1 3.814 3.944 18.4 18.4 0 0 1 2.56 4.965c.61 1.826.927 3.81.938 5.963-.012 3.064-.493 5.875-1.455 8.428a19.2 19.2 0 0 1-4.173 6.673c-1.825 1.878-4.032 3.346-6.609 4.379-2.582 1.033-5.505 1.567-8.756 1.572-1.573 0-3.257-.246-5.03-.745q-2.668-.757-5.347-2.183a28.5 28.5 0 0 1-5.111-3.48 26 26 0 0 1-4.326-4.649 21.6 21.6 0 0 1-2.999-5.693M259.528 229.026c-.752-1.608-1.573-2.946-2.489-3.996-.904-1.069-1.966-1.86-3.169-2.383-1.22-.528-2.653-.792-4.314-.792-1.76.012-3.304.328-4.654.933a10.9 10.9 0 0 0-3.486 2.512 15.4 15.4 0 0 0-2.494 3.662 24 24 0 0 0-1.667 4.39 39 39 0 0 0-.986 4.69 55 55 0 0 0-.481 4.565 72 72 0 0 0-.118 4.02c0 1.38.088 2.876.27 4.508.176 1.632.481 3.304.892 4.995.41 1.696.968 3.327 1.661 4.888a18 18 0 0 0 2.553 4.22q1.53 1.876 3.598 2.952c1.39.728 2.975 1.11 4.783 1.121.986-.012 2.019-.252 3.07-.704a13.7 13.7 0 0 0 3.075-1.849c.992-.78 1.86-1.655 2.63-2.617a11.4 11.4 0 0 0 1.719-2.976l9.643 2.406a27.4 27.4 0 0 1-2.888 6.421 21.6 21.6 0 0 1-4.302 5.036 18.7 18.7 0 0 1-5.617 3.28c-2.077.77-4.343 1.163-6.814 1.168-2.952-.016-5.593-.475-7.929-1.396-2.335-.916-4.39-2.184-6.156-3.815a24 24 0 0 1-4.531-5.67 34.2 34.2 0 0 1-3.075-6.954 47.5 47.5 0 0 1-1.761-7.66 58 58 0 0 1-.599-7.811c0-2.002.1-4.085.305-6.28q.307-3.276 1.01-6.614a45.5 45.5 0 0 1 1.866-6.474 31.2 31.2 0 0 1 2.905-5.869 21.8 21.8 0 0 1 4.073-4.777c1.573-1.385 3.381-2.448 5.423-3.228 2.037-.775 4.344-1.162 6.908-1.174q4.576-.016 8.475 1.367c2.594.922 4.93 2.36 6.996 4.302 2.06 1.943 3.809 4.443 5.259 7.495zM287.558 213.057h37.35v10.43h-27.25v16.033h19.04v10.171h-19.04v18.382h29.663v10.171h-39.763zM345.31 213.057h8.603l24.838 42.433v-42.433h10.364v65.187h-8.803l-24.832-42.11v42.11h-10.17zM405.085 213.057h39.763v9.584h-14.925v55.603h-9.849v-55.603h-14.989z" style="fill:#fff;fill-opacity:1;fill-rule:nonzero;stroke:none"/>
  <path d="m499.512 199.67 124.84 124.84c5.193 5.193 13.85 5.193 19.126 0L768.33 199.67c5.282-5.277 5.282-13.933 0-19.227L643.484 55.603c-5.282-5.194-13.939-5.194-19.133 0l-124.84 124.84c-5.276 5.288-5.276 13.95 0 19.227" style="fill:#fee011;fill-opacity:1;fill-rule:evenodd;stroke:none"/>
  <path d="M626.165 322.344c4.507 3.644 9.872 4.507 14.55.78l.95-.698 124.67-124.752c4.33-5.112 4.325-10.388 0-15.5L641.664 57.422c-4.15-3.38-8.91-4.413-13.675-1.385l-.863.699-.962.686-124.67 124.752c-4.331 5.112-4.331 10.306 0 15.418z" style="fill:#000;fill-opacity:1;fill-rule:evenodd;stroke:none"/>
  <path d="M635.35 320.178c.95-.252 1.385-.599 2.248-1.215l124.67-124.67c2.417-3.028 2.417-5.276 0-8.31l-124.67-124.67c-2.424-1.813-4.942-1.73-7.272.089l-124.758 124.67c-2.341 2.945-2.341 5.193 0 8.14L630.326 318.88c1.643 1.38 2.94 1.561 5.024 1.297" style="fill:#fee011;fill-opacity:1;fill-rule:evenodd;stroke:none"/>
  <path d="M550.672 230.658v-75.657l166.14 75.657zm65.199-48.05c4.665 0 8.474-3.897 8.474-8.474 0-4.684-3.809-8.575-8.474-8.575-4.678-.005-8.493 3.897-8.493 8.575 0 4.577 3.815 8.474 8.493 8.474m51.16 23.723c4.677 0 8.48-3.809 8.48-8.475 0-4.677-3.803-8.492-8.48-8.492-4.672 0-8.487 3.815-8.487 8.492 0 4.666 3.81 8.475 8.487 8.475m-69.695-40.508c3.815-6.239 11.075-13.334 19.738-12.736 3.639-5.194 12.982-7.612 16.192-7.442 3.205.17 2.765-.17 4.766.869l21.991 10.388c2.336 1.467 3.363 3.463 3.797 5.458l1.996 14.104 16.973 7.623c2.342 1.468 3.375 4.678 1.814 7.877l-5.018 10.904-2.078.182-1.385-.78c5.452-12.302-12.554-21.827-18.963-8.84l-32.197-14.537c5.622-13.422-12.906-19.913-18.799-8.838zm43.378-1.215 5.194-10.042-9.871-5.112c-3.897-1.209-5.629-.692-7.278 1.04l-5.276 5.886zm2.94 1.215 5.019-10.136 10.916 5.277 2.248 13.516z" style="fill:#000;fill-opacity:1;fill-rule:evenodd;stroke:none"/>
</svg>
