<svg xmlns="http://www.w3.org/2000/svg" xml:space="preserve" viewBox="0 0 101.224 123.705" role="img" aria-labelledby="title">
  <title id="title">Verkehrszeichen GE2-4 - Exit (with supplementary number)</title>
  <path d="M-165.263-67.321h56.253c6.81 0 12.363-5.553 12.363-12.363v-74.236c0-6.812-5.553-12.365-12.363-12.365h-56.253c-6.81 0-12.363 5.553-12.363 12.365v74.236c0 6.81 5.553 12.363 12.363 12.363" style="fill:#006330;fill-opacity:1;fill-rule:evenodd;stroke:none" transform="matrix(1.25 0 0 -1.25 222.033 -84.151)"/>
  <path d="M-109.034-69.48c4.342-.081 8.067-2.606 9.598-6.697.4-1.154.606-2.308.629-3.53v-74.192c-.08-4.32-2.605-8.067-6.696-9.598a11.2 11.2 0 0 0-3.531-.629h-56.207c-2.753.058-5.256 1.04-7.221 3.006s-2.948 4.468-3.005 7.221v74.192c.057 2.833 1.04 5.199 3.005 7.232 1.783 1.725 3.736 2.628 6.182 2.938l.492.044.547.013z" style="fill:#fff;fill-opacity:1;fill-rule:evenodd;stroke:none" transform="matrix(1.25 0 0 -1.25 222.033 -84.151)"/>
  <path d="M-108.61-71.651c2.25-.195 3.964-.984 5.529-2.617 1.406-1.566 2.07-3.371 2.114-5.462v-74.147c-.044-2.204-.811-4.158-2.365-5.713-1.577-1.576-3.531-2.33-5.724-2.376h-56.161c-3.313.08-6.137 1.862-7.451 4.914a8.9 8.9 0 0 0-.64 3.175v74.147c.047 2.206.8 4.148 2.378 5.724 1.565 1.566 3.496 2.32 5.713 2.366h56.16z" style="fill:#006330;fill-opacity:1;fill-rule:evenodd;stroke:none" transform="matrix(1.25 0 0 -1.25 222.033 -84.151)"/>
  <path d="M-161.835-111.497h10.317v-2.491h-7.861v-2.993h4.353v-2.491h-4.353v-3.93h8.123v-2.49h-10.58zM-142.46-118.398l-4.25 6.901h2.926l2.844-4.616 2.8 4.616h3.096l-4.365-6.901 4.582-7.495h-2.936l-3.177 5.096-3.301-5.096h-2.971z" style="fill:#fff;fill-opacity:1;fill-rule:evenodd;stroke:none" transform="matrix(1.25 0 0 -1.25 222.033 -84.151)"/>
  <path d="M-129.343-125.892h2.479v14.395h-2.48z" style="fill:#fff;fill-opacity:1;fill-rule:nonzero;stroke:none" transform="matrix(1.25 0 0 -1.25 222.033 -84.151)"/>
  <path d="M-121.677-111.497h10.579v-2.399h-3.987v-11.996h-2.57v11.996h-4.022zM-128.516-100.263l2.696 2.685-10.683 9.256 7.084 4.432c.057.035.138.103.206.171a1.117 1.117 0 0 1 0 1.578c-.193.194-.468.297-.742.321l-17.37 1.644s-.706-.057-.948-.297l-.022-.022c-.251-.253-.308-.96-.308-.96l1.657-17.369a1.08 1.08 0 0 1 .319-.731 1.12 1.12 0 0 1 1.578 0c.057.068.125.138.17.195l4.422 7.095 9.256-10.683z" style="fill:#fff;fill-opacity:1;fill-rule:evenodd;stroke:none" transform="matrix(1.25 0 0 -1.25 222.033 -84.151)"/>
  <path d="M-157.972-134.885h41.682v-17.996h-41.682z" style="fill:none;stroke:#fff;stroke-width:.229;stroke-linecap:butt;stroke-linejoin:miter;stroke-miterlimit:11.47399998;stroke-opacity:1;stroke-dasharray:1.1426,1.1426;stroke-dashoffset:0" transform="matrix(1.25 0 0 -1.25 222.033 -84.151)"/>
</svg>
