<svg xmlns="http://www.w3.org/2000/svg" viewBox="0 0 2656 2415" role="img" aria-labelledby="title">
  <title id="title">Verkehrszeichen G6-329-2-NSW - Speed Camera (Heavy Fines Loss of Licence) (Variable Speed Limit Enforced) (used in NSW)</title>
  <g transform="translate(0 2118)">
    <rect width="2652" height="2411" x="2" y="-2116" rx="131" ry="131" style="opacity:1;fill:#fff;fill-opacity:1;fill-rule:nonzero;stroke:none;stroke-width:22.84345055;stroke-linecap:square;stroke-linejoin:round;stroke-miterlimit:4;stroke-dasharray:68.53034592,68.53034592;stroke-dashoffset:0;stroke-opacity:1"/>
    <path d="M15.42-2043a130.7 130.7 0 0 1 20.705-30.358V-2043z" style="opacity:1;fill:#004187;fill-opacity:1;fill-rule:nonzero;stroke:none;stroke-width:.93456936;stroke-linecap:square;stroke-linejoin:round;stroke-miterlimit:4;stroke-dasharray:2.80370806,2.80370805999999995;stroke-dashoffset:0;stroke-opacity:1"/>
    <path d="M36.125-2042.999H69.25v36H36.125z" style="opacity:1;fill:#004187;fill-opacity:1;fill-rule:nonzero;stroke:none;stroke-width:.93456936;stroke-linecap:square;stroke-linejoin:round;stroke-miterlimit:4;stroke-dasharray:2.8037081,2.80370810000000015;stroke-dashoffset:0;stroke-opacity:1"/>
    <path d="M41.59-2079a130.8 130.8 0 0 1 27.66-20.57v20.57z" style="opacity:1;fill:#004187;fill-opacity:1;fill-rule:nonzero;stroke:none;stroke-width:.93456936;stroke-linecap:square;stroke-linejoin:round;stroke-miterlimit:4;stroke-dasharray:2.80370806,2.80370805999999995;stroke-dashoffset:0;stroke-opacity:1"/>
    <path d="M69.25-2078.999h33.125v36H69.25zM102.375-2042.999H135.5v36h-33.125z" style="opacity:1;fill:#004187;fill-opacity:1;fill-rule:nonzero;stroke:none;stroke-width:.93456936;stroke-linecap:square;stroke-linejoin:round;stroke-miterlimit:4;stroke-dasharray:2.8037081,2.80370810000000015;stroke-dashoffset:0;stroke-opacity:1"/>
    <path d="M102.375-2079v-33.427a131 131 0 0 1 14.3-2.573H135.5v36z" style="opacity:1;fill:#004187;fill-opacity:1;fill-rule:nonzero;stroke:none;stroke-width:.93456936;stroke-linecap:square;stroke-linejoin:round;stroke-miterlimit:4;stroke-dasharray:2.80370806,2.80370805999999995;stroke-dashoffset:0;stroke-opacity:1"/>
    <path d="M135.5-2078.999h33.125v36H135.5zM168.625-2042.999h33.125v36h-33.125zM168.625-2115h33.125v36h-33.125zM201.75-2078.999h33.125v36H201.75zM234.875-2042.999H268v36h-33.125zM234.875-2115H268v36h-33.125zM268-2078.999h33.125v36H268zM301.125-2042.999h33.125v36h-33.125zM301.125-2115h33.125v36h-33.125zM334.25-2078.999h33.125v36H334.25zM367.375-2042.999H400.5v36h-33.125zM367.375-2115H400.5v36h-33.125zM400.5-2078.999h33.125v36H400.5zM433.625-2042.999h33.125v36h-33.125zM433.625-2115h33.125v36h-33.125zM466.75-2078.999h33.125v36H466.75zM499.875-2042.999H533v36h-33.125zM499.875-2115H533v36h-33.125zM533-2078.999h33.125v36H533zM566.125-2042.999h33.125v36h-33.125zM566.125-2115h33.125v36h-33.125zM599.25-2078.999h33.125v36H599.25zM632.375-2042.999H665.5v36h-33.125zM632.375-2115H665.5v36h-33.125zM665.5-2078.999h33.125v36H665.5zM698.625-2042.999h33.125v36h-33.125zM698.625-2115h33.125v36h-33.125zM731.75-2078.999h33.125v36H731.75zM764.875-2042.999H798v36h-33.125zM764.875-2115H798v36h-33.125zM798-2078.999h33.125v36H798zM831.125-2042.999h33.125v36h-33.125zM831.125-2115h33.125v36h-33.125zM864.25-2078.999h33.125v36H864.25zM897.375-2042.999H930.5v36h-33.125zM897.375-2115H930.5v36h-33.125zM930.5-2078.999h33.125v36H930.5zM963.625-2042.999h33.125v36h-33.125zM963.625-2115h33.125v36h-33.125zM996.75-2078.999h33.125v36H996.75zM1029.875-2042.999H1063v36h-33.125zM1029.875-2115H1063v36h-33.125zM1063-2078.999h33.125v36H1063zM1096.125-2042.999h33.125v36h-33.125zM1096.125-2115h33.125v36h-33.125zM1129.25-2078.999h33.125v36h-33.125zM1162.375-2042.999h33.125v36h-33.125zM1162.375-2115h33.125v36h-33.125zM1195.5-2078.999h33.125v36H1195.5zM1228.625-2042.999h33.125v36h-33.125zM1228.625-2115h33.125v36h-33.125zM1261.75-2078.999h33.125v36h-33.125zM1294.875-2042.999H1328v36h-33.125zM1294.875-2115H1328v36h-33.125zM1328-2078.999h33.125v36H1328zM1361.125-2042.999h33.125v36h-33.125zM1361.125-2115h33.125v36h-33.125zM1394.25-2078.999h33.125v36h-33.125zM1427.375-2042.999h33.125v36h-33.125zM1427.375-2115h33.125v36h-33.125zM1460.5-2078.999h33.125v36H1460.5zM1493.625-2042.999h33.125v36h-33.125zM1493.625-2115h33.125v36h-33.125zM1526.75-2078.999h33.125v36h-33.125zM1559.875-2042.999H1593v36h-33.125zM1559.875-2115H1593v36h-33.125zM1593-2078.999h33.125v36H1593zM1626.125-2042.999h33.125v36h-33.125zM1626.125-2115h33.125v36h-33.125zM1659.25-2078.999h33.125v36h-33.125zM1692.375-2042.999h33.125v36h-33.125zM1692.375-2115h33.125v36h-33.125zM1725.5-2078.999h33.125v36H1725.5zM1758.625-2042.999h33.125v36h-33.125zM1758.625-2115h33.125v36h-33.125zM1791.75-2078.999h33.125v36h-33.125zM1824.875-2042.999H1858v36h-33.125zM1824.875-2115H1858v36h-33.125zM1858-2078.999h33.125v36H1858zM1891.125-2042.999h33.125v36h-33.125zM1891.125-2115h33.125v36h-33.125zM1924.25-2078.999h33.125v36h-33.125zM1957.375-2042.999h33.125v36h-33.125zM1957.375-2115h33.125v36h-33.125zM1990.5-2078.999h33.125v36H1990.5zM2023.625-2042.999h33.125v36h-33.125zM2023.625-2115h33.125v36h-33.125zM2056.75-2078.999h33.125v36h-33.125zM2089.875-2042.999H2123v36h-33.125zM2089.875-2115H2123v36h-33.125zM2123-2078.999h33.125v36H2123zM2156.125-2042.999h33.125v36h-33.125zM2156.125-2115h33.125v36h-33.125zM2189.25-2078.999h33.125v36h-33.125zM2222.375-2042.999h33.125v36h-33.125zM2222.375-2115h33.125v36h-33.125zM2255.5-2078.999h33.125v36H2255.5zM2288.625-2042.999h33.125v36h-33.125zM2288.625-2115h33.125v36h-33.125zM2321.75-2078.999h33.125v36h-33.125zM2354.875-2042.999H2388v36h-33.125zM2354.875-2115H2388v36h-33.125zM2388-2078.999h33.125v36H2388zM2421.125-2042.999h33.125v36h-33.125zM2421.125-2115h33.125v36h-33.125zM2454.25-2078.999h33.125v36h-33.125zM2487.375-2042.999h33.125v36h-33.125zM2487.375-2115h33.125v36h-33.125zM2520.5-2078.999h33.125v36H2520.5zM2553.625-2042.999h33.125v36h-33.125z" style="opacity:1;fill:#004187;fill-opacity:1;fill-rule:nonzero;stroke:none;stroke-width:.93456936;stroke-linecap:square;stroke-linejoin:round;stroke-miterlimit:4;stroke-dasharray:2.8037081,2.80370810000000015;stroke-dashoffset:0;stroke-opacity:1"/>
    <path d="M2553.625-2079v-33.427a130.2 130.2 0 0 1 33.125 12.857v20.57zM2586.75-2043v-36h27.66q2.817 2.74 5.465 5.642V-2043zM2619.875-2007v-36h20.704a130.3 130.3 0 0 1 11.596 36z" style="opacity:1;fill:#004187;fill-opacity:1;fill-rule:nonzero;stroke:none;stroke-width:.93456936;stroke-linecap:square;stroke-linejoin:round;stroke-miterlimit:4;stroke-dasharray:2.80370806,2.80370805999999995;stroke-dashoffset:0;stroke-opacity:1"/>
    <path d="m1092-1880.4 52 88.2h210c22.16 0 40 17.84 40 40v275.8c0 22.16-17.84 40-40 40H678c-22.16 0-40-17.84-40-40v-275.8c0-22.16 17.84-40 40-40h210l52-88.2Z" style="opacity:1;fill:#004187;fill-opacity:1;fill-rule:nonzero;stroke:none;stroke-width:3.49156022;stroke-linecap:square;stroke-linejoin:round;stroke-miterlimit:4;stroke-dasharray:10.47468044,10.4746804400000002;stroke-dashoffset:0;stroke-opacity:1"/>
    <path d="M683.5-1847.4h116v37h-116zM1232.5-1847.4h116v37h-116z" style="opacity:1;fill:#004187;fill-opacity:1;fill-rule:nonzero;stroke:none;stroke-width:1.45003903;stroke-linecap:square;stroke-linejoin:round;stroke-miterlimit:4;stroke-dasharray:4.35011709,4.35011709000000035;stroke-dashoffset:0;stroke-opacity:1"/>
    <circle cx="1016" cy="-1617.4" r="157" style="opacity:1;fill:#fff;fill-opacity:1;fill-rule:nonzero;stroke:none;stroke-width:2.48737001;stroke-linecap:square;stroke-linejoin:round;stroke-miterlimit:4;stroke-dasharray:7.46210998,7.46210998;stroke-dashoffset:0;stroke-opacity:1"/>
    <circle cx="1016" cy="-1617.4" r="132" style="opacity:1;fill:#004187;fill-opacity:1;fill-rule:nonzero;stroke:none;stroke-width:2.0912919;stroke-linecap:square;stroke-linejoin:round;stroke-miterlimit:4;stroke-dasharray:6.27387591,6.27387591000000011;stroke-dashoffset:0;stroke-opacity:1"/>
    <circle cx="1016" cy="-1617.4" r="90" style="opacity:1;fill:#fff;fill-opacity:1;fill-rule:nonzero;stroke:none;stroke-width:1.42588079;stroke-linecap:square;stroke-linejoin:round;stroke-miterlimit:4;stroke-dasharray:4.27764267,4.27764267;stroke-dashoffset:0;stroke-opacity:1"/>
    <path d="m1562-1586.984 34.749 18.293 9.927-21.105 6.382-19.697 4.254-19.7.7-17.588.182-4.219-.182-4.219-.7-17.588-4.254-19.7-6.382-19.696-9.927-21.106-34.749 18.293 9.218 22.51 5.673 21.108.52 20.398-.52 20.398-5.673 21.11zM1675.05-1520.15l36.875 21.814 12.767-25.331 12.055-30.948 8.509-30.255 6.382-33.771.574-32.359-.574-32.359-6.382-33.77-8.51-30.255-12.054-30.949-12.767-25.33-36.876 21.813 17.727 42.205 10.64 36.584 6.382 37.288v29.547l-6.382 37.288-10.64 36.583zM1788.779-1456.124l37.585 22.505 14.184-27.432 12.765-29.55 12.054-35.878 8.513-30.956 5.672-30.952 2.83-30.254 1.291-32.359-1.29-32.359-2.83-30.253-5.673-30.953-8.513-30.955-12.054-35.88-12.765-29.549-14.184-27.432-37.586 22.506 21.986 44.326 14.181 40.805 7.804 31.657 6.381 45.024.976 33.063-.976 33.063-6.381 45.024-7.804 31.657-14.181 40.806zM1917.299-1416.731l21.985-51.354 17.728-56.988 10.64-47.84 4.963-52.762.457-25.325-.457-25.324-4.964-52.763-10.64-47.84-17.727-56.988-21.985-51.353-13.473-23.918L1942.12-1931l17.019 33.067 16.312 33.771 12.764 35.875 12.058 42.92 8.509 38.688 5.673 40.806L2018-1651l-3.546 54.874-5.672 40.806-8.51 38.687-12.057 42.92-12.764 35.875-16.313 33.772L1942.12-1371l-38.294-21.813z" style="fill:#004187;fill-opacity:1;fill-rule:evenodd;stroke:none;stroke-width:11.76358414"/>
    <path d="M2-592h2652v36H2z" style="opacity:1;fill:#004187;fill-opacity:1;fill-rule:nonzero;stroke:none;stroke-width:1.18918693;stroke-linecap:square;stroke-linejoin:round;stroke-miterlimit:4;stroke-dasharray:3.56756086,3.56756085999999994;stroke-dashoffset:0;stroke-opacity:1"/>
    <path d="M2523-2117c73.128 0 132 58.872 132 132V164c0 73.128-58.872 132-132 132H133C59.872 296 1 237.128 1 164v-2149c0-73.128 58.872-132 132-132zm0 2H133c-72.02 0-130 57.98-130 130V164c0 72.02 57.98 130 130 130h2390c72.02 0 130-57.98 130-130v-2149c0-72.02-57.98-130-130-130" style="opacity:1;fill:#000;fill-opacity:1;fill-rule:nonzero;stroke:none;stroke-width:23.88551712;stroke-linecap:square;stroke-linejoin:round;stroke-miterlimit:4;stroke-dasharray:71.65655056,71.65655056;stroke-dashoffset:0;stroke-opacity:1"/>
    <g aria-label="VEHICLES" style="font-style:normal;font-variant:normal;font-weight:400;font-stretch:normal;font-size:144.09222412px;line-height:0;font-family:&quot;Roadgeek 2005 Series C&quot;;-inkscape-font-specification:&quot;Roadgeek 2005 Series C&quot;;letter-spacing:-2.4368124px;word-spacing:0;fill:#d40000;fill-opacity:1;stroke:none;stroke-width:3.60230541">
      <g aria-label="AHEAD" style="font-style:normal;font-variant:normal;font-weight:400;font-stretch:normal;font-size:298.50747681px;line-height:0;font-family:&quot;Roadgeek 2005 Series D&quot;;-inkscape-font-specification:&quot;Roadgeek 2005 Series D&quot;;letter-spacing:19.79348564px;word-spacing:0;fill:#000;fill-opacity:1;stroke:none;stroke-width:26.88287735">
        <g aria-label="VARIABLE" style="font-style:normal;font-variant:normal;font-weight:400;font-stretch:normal;font-size:268.65670776px;line-height:0;font-family:&quot;Roadgeek 2005 Series D&quot;;-inkscape-font-specification:&quot;Roadgeek 2005 Series D&quot;;letter-spacing:0;word-spacing:0;fill:#000;fill-opacity:1;stroke:none;stroke-width:180.55664062">
          <path d="M352.985-394h-22.03L274-574h29.82l38.419 120.09L380.119-574h30.359zM556.804-394l-17.73-50.507h-56.15L465.192-394h-30.358l62.06-180h28.209l62.06 180zm-45.403-130.03-18.537 50.507h36zM719.398-394l-29.015-78.448h-34.12V-394h-28.477v-180h59.373q10.477 0 18 1.343 7.522 1.075 14.239 4.299 5.91 2.955 10.746 7.79 5.104 4.568 8.597 10.747 3.761 5.91 5.642 12.896 2.149 6.716 2.149 13.432 0 7.254-2.15 14.24-1.88 6.716-5.641 12.895-3.493 5.91-8.866 10.746-5.104 4.836-11.283 7.522L750.293-394zm-1.344-129.493q0-5.641-2.955-10.746-2.955-5.104-8.328-8.06-3.493-1.88-6.448-2.418-2.955-.806-9.94-.806h-34.12v44.06h34.12q6.716 0 9.671-.537 3.224-.537 6.717-2.418 5.373-2.955 8.328-8.06 2.955-5.373 2.955-11.015M793.867-394v-180h29.015v180zM985.261-394l-17.731-50.507h-56.15L893.65-394h-30.36l62.06-180h28.21l62.06 180zm-45.403-130.03-18.537 50.507h36zM1178.75-444.507q0 7.253-2.15 14.507t-6.179 13.433q-3.76 6.179-9.134 11.015-5.104 4.567-11.552 7.253-4.836 1.881-12.09 3.224-6.985 1.075-13.164 1.075h-68.239v-180h68.239q10.746 0 19.88 3.493 9.135 3.492 15.851 9.671 6.717 5.91 10.478 14.239 3.761 8.328 3.761 18 0 26.06-25.254 40.567 14.24 6.717 21.762 17.731 7.79 11.015 7.79 25.792m-32.776-82.747q0-18.268-19.612-18.268h-41.642v44.06h34.12q6.178 0 9.67-.807 3.493-1.074 7.255-4.03 10.208-8.06 10.208-20.955m3.76 83.284q0-8.866-4.835-16.388-4.567-7.791-12.358-10.747-2.955-1.074-5.105-1.074-2.149-.269-6.716-.269h-36v49.433h42.985q22.03 0 22.03-20.955M1222.325-394v-180h28.478v153.403h83.283V-394zM1374.239-394v-180h106.12v28.478h-77.642v44.06h52.388v29.014h-52.388v49.433H1486V-394z" style="font-style:normal;font-variant:normal;font-weight:400;font-stretch:normal;line-height:0;font-family:&quot;Roadgeek 2005 Series D&quot;;-inkscape-font-specification:&quot;Roadgeek 2005 Series D&quot;;letter-spacing:13.38791656px;fill:#000;stroke:none;stroke-width:180.55664062" transform="translate(3 218)"/>
          <g aria-label="SPEED" style="font-style:normal;font-variant:normal;font-weight:400;font-stretch:normal;font-size:259.36599731px;line-height:0;font-family:&quot;Roadgeek 2005 Series D&quot;;-inkscape-font-specification:&quot;Roadgeek 2005 Series D&quot;;letter-spacing:13.49374962px;word-spacing:0;fill:#000;fill-opacity:1;stroke:none;stroke-width:1170.75634766">
            <path d="M1756.27-447.17q0 11.93-4.408 22.046-4.41 10.115-12.71 17.637-7.262 6.484-17.117 10.115-9.597 3.372-20.75 3.372-22.565 0-38.645-11.93-15.822-12.191-24.64-32.162l26.196-9.597q5.447 12.45 15.043 19.193 9.597 6.484 22.046 6.484 12.19 0 19.453-7.262 7.521-7.521 7.521-18.415 0-8.559-4.668-14.006-4.41-5.446-11.672-9.077-7.262-3.89-16.08-6.744-8.56-2.853-17.119-6.225-3.89-1.556-9.596-4.409t-11.153-7.78q-5.187-5.188-9.078-12.71-3.63-7.521-3.63-18.415 0-12.709 4.15-21.527 4.149-9.078 11.152-14.525 7.262-5.706 17.118-8.3Q1687.798-574 1699.47-574q18.415 0 30.605 9.596 12.45 9.597 18.934 25.937l-24.38 7.262q-2.076-4.15-5.447-7.521-2.853-2.853-8.04-5.188-4.929-2.334-12.191-2.593-4.669-.26-9.856.778-4.928.778-8.818 3.112t-6.225 6.484q-2.334 3.89-1.816 9.856.519 8.04 7.003 12.45 6.484 4.15 15.822 7.262t19.97 6.484q10.894 3.113 19.972 9.337 9.078 5.966 15.043 16.34 6.225 10.116 6.225 27.234M1917.181-522.127q0 7.003-2.075 13.746-2.075 6.485-5.706 12.45-3.631 5.706-8.559 10.115-4.669 4.41-10.375 7.003-5.965 2.853-14.005 4.41-7.781 1.556-17.897 1.556h-32.161v75.734h-27.493v-173.775h59.654q10.634 0 17.897 1.297 7.521 1.038 14.005 4.15 5.706 2.853 10.375 7.522 4.928 4.409 8.56 10.374 3.63 5.706 5.705 12.45 2.075 6.484 2.075 12.968m-28.011 0q0-5.447-3.113-10.375-2.853-4.927-7.262-7.78-3.631-2.075-7.003-2.594-3.112-.519-9.597-.519h-35.792v42.536h35.792q6.485 0 9.597-.519 3.372-.518 7.003-2.334 4.41-2.334 7.262-7.521 3.112-5.447 3.112-10.894M1956.237-397.112v-173.776h102.45v27.493h-74.957v42.536h50.576v28.012h-50.576v47.723h80.403v28.012zM2106.983-397.112v-173.776h102.45v27.493h-74.957v42.536h50.576v28.012h-50.576v47.723h80.403v28.012zM2376-484.26q0 26.196-8.04 46.168-7.781 19.711-22.565 31.124-4.928 4.668-11.671 7.002-6.484 2.335-13.228 2.853h-62.766v-173.775h56.022q6.485 0 11.153.519 4.928.26 8.819 1.297 3.89 1.037 7.003 2.853 3.112 1.815 6.743 4.41 13.746 11.93 21.009 31.901 7.521 19.712 7.521 45.649m-28.011 0q0-17.636-3.89-31.383-3.632-13.746-10.116-20.49-3.372-3.112-7.781-5.187-4.41-2.075-9.856-2.075h-31.124v118.271h27.493q6.744 0 11.153-1.556 4.668-1.556 8.3-5.188 7.78-7.78 11.67-21.268 4.15-13.746 4.15-31.123" style="font-style:normal;font-variant:normal;font-weight:400;font-stretch:normal;line-height:0;font-family:&quot;Roadgeek 2005 Series D&quot;;-inkscape-font-specification:&quot;Roadgeek 2005 Series D&quot;;letter-spacing:13.46464539px;fill:#000;stroke:none;stroke-width:1170.75634766" transform="translate(3 218)"/>
            <g aria-label="LIMIT" style="font-style:normal;font-variant:normal;font-weight:400;font-stretch:normal;font-size:268.65670776px;line-height:0;font-family:&quot;Roadgeek 2005 Series D&quot;;-inkscape-font-specification:&quot;Roadgeek 2005 Series D&quot;;letter-spacing:0;word-spacing:0;fill:#000;fill-opacity:1;stroke:none;stroke-width:7863.28857422">
              <path d="M335.502-83.221v-180h28.478v153.403h83.283v26.597zM487.329-83.221v-180h29.015v180zM684.278-83.221v-104.24L642.636-83.22l-41.642-104.24v104.24h-28.478v-180h28.478l41.642 101.014 41.642-101.014h28.477v180zM768.944-83.221v-180h29.015v180zM907.86-237.968v154.746h-28.477v-154.746h-41.105v-25.254h111.224v25.254z" style="font-style:normal;font-variant:normal;font-weight:400;font-stretch:normal;line-height:0;font-family:&quot;Roadgeek 2005 Series D&quot;;-inkscape-font-specification:&quot;Roadgeek 2005 Series D&quot;;letter-spacing:13.30060387px;fill:#000;stroke:none;stroke-width:7863.28857422" transform="translate(-4.502 177.221)"/>
              <g aria-label="ENFORCED" style="font-style:normal;font-variant:normal;font-weight:400;font-stretch:normal;font-size:259.36599731px;line-height:0;font-family:&quot;Roadgeek 2005 Series D&quot;;-inkscape-font-specification:&quot;Roadgeek 2005 Series D&quot;;letter-spacing:12.2713747px;word-spacing:0;fill:#000;fill-opacity:1;stroke:none;stroke-width:50986.7421875">
                <path d="M1099.502-86.334v-173.775h102.45v27.493h-74.957v42.536h50.577v28.011h-50.577v47.724h80.404v28.011zM1342.948-86.334l-66.397-117.752v117.752h-27.493v-173.775h27.493l63.285 111.009v-111.01h27.493v173.776zM1448.396-232.616v42.536h50.576v28.011h-50.576v75.735h-27.493v-173.775h107.896v27.493zM1686.478-172.962q0 20.75-4.928 39.683-4.928 18.934-14.006 30.605-14.524 19.453-42.017 19.453-18.415 0-30.346-7.522-11.93-7.522-19.712-23.602-5.446-11.153-8.818-26.975-3.372-16.08-3.372-31.642 0-21.528 4.928-39.943 5.188-18.415 14.006-30.864 7.781-9.856 18.415-14.524 10.893-4.928 25.937-4.928 16.6 0 28.27 7.521 11.672 7.522 19.972 23.602 5.446 11.672 8.559 27.234t3.112 31.902m-27.493 0q0-14.784-2.593-27.234-2.594-12.708-7.781-21.527-4.15-6.743-9.597-9.856-5.187-3.112-12.968-3.63-10.115-.52-16.859 4.668-6.743 5.187-11.153 16.858-3.371 7.781-5.187 18.934-1.556 10.894-1.556 21.787 0 14.006 2.594 26.974t7.78 21.268q4.15 6.744 9.856 10.115t14.006 3.372q9.597 0 15.821-5.187 6.485-5.188 10.894-16.86 1.297-3.37 2.593-8.04 1.297-4.927 2.075-10.115 1.038-5.446 1.557-10.893t.518-10.634M1825.68-86.334l-28.012-75.735h-32.94v75.735h-27.492v-173.775h57.32q10.115 0 17.377 1.297 7.262 1.037 13.746 4.15 5.706 2.853 10.375 7.521 4.928 4.41 8.3 10.375 3.63 5.706 5.447 12.45 2.074 6.484 2.074 12.968 0 7.003-2.074 13.746-1.816 6.484-5.447 12.45-3.372 5.706-8.56 10.374-4.927 4.669-10.893 7.263l30.606 81.181zm-1.297-125.014q0-5.447-2.853-10.375t-8.04-7.78q-3.373-1.817-6.226-2.335-2.853-.778-9.596-.778h-32.94v42.536h32.94q6.484 0 9.337-.519 3.112-.519 6.484-2.334 5.188-2.853 8.04-7.781 2.854-5.188 2.854-10.634M2011.563-121.608Q1996-83.22 1959.17-83.22q-19.453 0-32.162-7.522T1906-114.345q-5.965-11.672-9.337-27.234t-3.371-31.902q0-20.75 5.187-39.683 5.187-18.934 14.265-30.605 7.781-9.597 18.674-14.524 11.153-4.928 25.937-4.928 19.712 0 32.42 8.559 12.969 8.559 21.788 26.974l-25.678 10.893q-3.63-5.447-6.743-9.078-2.853-3.63-6.225-5.706-3.112-2.075-7.003-2.853-3.631-.778-8.559-.778-10.634 0-17.896 4.928-7.003 4.928-11.412 16.6-3.372 7.78-5.188 18.414-1.556 10.634-1.556 21.787 0 14.265 2.853 27.493 2.853 12.968 8.04 21.268 4.67 6.744 10.894 10.115t15.303 3.372q8.818 0 15.302-4.669 6.484-4.928 11.672-15.561zM2061.676-86.334v-173.775h102.45v27.493h-74.958v42.536h50.577v28.011h-50.577v47.724h80.404v28.011zM2329.502-173.48q0 26.195-8.04 46.166-7.781 19.712-22.565 31.124-4.928 4.669-11.671 7.003-6.485 2.334-13.228 2.853h-62.766v-173.775h56.022q6.485 0 11.153.519 4.928.259 8.818 1.296 3.891 1.038 7.003 2.853t6.744 4.41q13.746 11.93 21.008 31.902 7.522 19.712 7.522 45.648m-28.011 0q0-17.638-3.89-31.384-3.632-13.746-10.116-20.49-3.372-3.112-7.781-5.187-4.41-2.075-9.856-2.075h-31.124v118.27h27.493q6.743 0 11.153-1.556 4.668-1.556 8.3-5.187 7.78-7.78 11.67-21.268 4.15-13.746 4.15-31.124" style="font-style:normal;font-variant:normal;font-weight:400;font-stretch:normal;line-height:0;font-family:&quot;Roadgeek 2005 Series D&quot;;-inkscape-font-specification:&quot;Roadgeek 2005 Series D&quot;;letter-spacing:12.27402115px;fill:#000;stroke:none;stroke-width:50986.7421875" transform="translate(-4.502 177.221)"/>
              </g>
            </g>
          </g>
        </g>
        <g aria-label="LOSS" style="font-style:normal;font-variant:normal;font-weight:400;font-stretch:normal;font-size:288.18444824px;line-height:0;font-family:&quot;Roadgeek 2005 Series D&quot;;-inkscape-font-specification:&quot;Roadgeek 2005 Series D&quot;;letter-spacing:0;word-spacing:0;fill:#000;fill-opacity:1;stroke:none;stroke-width:193.68066406">
          <path d="M2906.434-2435.367v-193.083h30.547v164.553h89.337v28.53zM3202.428-2531.62q0 23.054-5.475 44.092-5.476 21.037-15.562 34.005-16.138 21.614-46.686 21.614-20.461 0-33.718-8.357-13.256-8.357-21.902-26.225-6.051-12.392-9.798-29.971-3.746-17.867-3.746-35.158 0-23.92 5.475-44.38 5.764-20.462 15.562-34.295 8.646-10.95 20.461-16.138 12.104-5.476 28.819-5.476 18.444 0 31.412 8.358 12.968 8.357 22.19 26.224 6.052 12.969 9.51 30.26 3.458 17.29 3.458 35.447m-30.547 0q0-16.427-2.882-30.26-2.882-14.12-8.645-23.92-4.612-7.492-10.663-10.95-5.764-3.458-14.41-4.035-11.239-.576-18.732 5.187-7.492 5.764-12.392 18.733-3.746 8.645-5.763 21.037-1.73 12.104-1.73 24.208 0 15.561 2.883 29.97 2.881 14.41 8.645 23.632 4.611 7.493 10.951 11.239t15.562 3.746q10.663 0 17.58-5.763 7.204-5.764 12.103-18.732 1.441-3.747 2.882-8.934 1.44-5.475 2.305-11.24 1.153-6.051 1.73-12.103.576-6.052.576-11.815M3377.602-2490.986q0 13.256-4.9 24.495-4.898 11.24-14.12 19.597-8.07 7.204-19.02 11.239-10.663 3.746-23.055 3.746-25.072 0-42.94-13.256-17.579-13.545-27.377-35.735l29.106-10.663q6.052 13.833 16.715 21.326 10.663 7.204 24.496 7.204 13.545 0 21.614-8.069 8.357-8.357 8.357-20.46 0-9.511-5.187-15.563-4.9-6.052-12.969-10.086-8.069-4.323-17.867-7.493-9.51-3.17-19.02-6.916-4.323-1.73-10.663-4.9t-12.392-8.645q-5.764-5.764-10.086-14.121-4.035-8.358-4.035-20.461 0-14.121 4.611-23.92 4.611-10.086 12.392-16.138 8.07-6.34 19.02-9.222 11.24-2.882 24.208-2.882 20.46 0 34.005 10.663 13.833 10.663 21.038 28.819l-27.09 8.069q-2.305-4.611-6.051-8.358-3.17-3.17-8.934-5.763-5.476-2.594-13.545-2.882-5.187-.288-10.95.864-5.476.865-9.799 3.459-4.323 2.593-6.917 7.204-2.593 4.323-2.017 10.951.577 8.934 7.781 13.833 7.205 4.611 17.58 8.07 10.374 3.458 22.19 7.204 12.103 3.458 22.19 10.374 10.086 6.629 16.715 18.156 6.916 11.24 6.916 30.26M3542.434-2490.986q0 13.256-4.9 24.495-4.899 11.24-14.12 19.597-8.07 7.204-19.02 11.239-10.664 3.746-23.055 3.746-25.073 0-42.94-13.256-17.58-13.545-27.377-35.735l29.106-10.663q6.052 13.833 16.715 21.326 10.663 7.204 24.496 7.204 13.544 0 21.613-8.069 8.358-8.357 8.358-20.46 0-9.511-5.188-15.563-4.899-6.052-12.968-10.086-8.07-4.323-17.867-7.493-9.51-3.17-19.02-6.916-4.323-1.73-10.663-4.9t-12.392-8.645q-5.764-5.764-10.087-14.121-4.034-8.358-4.034-20.461 0-14.121 4.61-23.92 4.612-10.086 12.392-16.138 8.07-6.34 19.02-9.222 11.24-2.882 24.208-2.882 20.461 0 34.006 10.663 13.833 10.663 21.037 28.819l-27.089 8.069q-2.305-4.611-6.052-8.358-3.17-3.17-8.934-5.763-5.475-2.594-13.544-2.882-5.187-.288-10.951.864-5.476.865-9.798 3.459-4.323 2.593-6.917 7.204-2.594 4.323-2.017 10.951.576 8.934 7.78 13.833 7.205 4.611 17.58 8.07 10.375 3.458 22.19 7.204 12.104 3.458 22.19 10.374 10.087 6.629 16.715 18.156 6.917 11.24 6.917 30.26" style="font-style:normal;font-variant:normal;font-weight:400;font-stretch:normal;line-height:0;font-family:&quot;Roadgeek 2005 Series D&quot;;-inkscape-font-specification:&quot;Roadgeek 2005 Series D&quot;;letter-spacing:14.54679203px;fill:#004187;fill-opacity:1;stroke:none;stroke-width:193.68066406" transform="translate(-2790.933 1675.909)"/>
          <g aria-label="OF" style="font-style:normal;font-variant:normal;font-weight:400;font-stretch:normal;font-size:288.18444824px;line-height:0;font-family:&quot;Roadgeek 2005 Series D&quot;;-inkscape-font-specification:&quot;Roadgeek 2005 Series D&quot;;letter-spacing:0;word-spacing:0;fill:#000;fill-opacity:1;stroke:none;stroke-width:1395.39379883">
            <path d="M3849.321-2531.62q0 23.054-5.475 44.092-5.476 21.037-15.562 34.005-16.139 21.614-46.686 21.614-20.461 0-33.718-8.357-13.256-8.357-21.902-26.225-6.052-12.392-9.798-29.971-3.746-17.867-3.746-35.158 0-23.92 5.475-44.38 5.764-20.462 15.562-34.295 8.646-10.95 20.461-16.138 12.104-5.476 28.819-5.476 18.443 0 31.412 8.358 12.968 8.357 22.19 26.224 6.052 12.969 9.51 30.26 3.458 17.29 3.458 35.447m-30.547 0q0-16.427-2.882-30.26-2.882-14.12-8.646-23.92-4.61-7.492-10.663-10.95-5.763-3.458-14.409-4.035-11.24-.576-18.732 5.188-7.493 5.763-12.392 18.732-3.746 8.645-5.764 21.037-1.729 12.104-1.729 24.207 0 15.562 2.882 29.972 2.882 14.409 8.646 23.63 4.61 7.494 10.95 11.24t15.563 3.746q10.663 0 17.579-5.763 7.205-5.764 12.104-18.732 1.44-3.747 2.882-8.934 1.44-5.476 2.305-11.24 1.153-6.051 1.73-12.103.576-6.052.576-11.816M3939.096-2597.903v47.262h56.196v31.124h-56.196v84.15h-30.547v-193.083h119.884v30.547z" style="font-style:normal;font-variant:normal;font-weight:400;font-stretch:normal;line-height:0;font-family:&quot;Roadgeek 2005 Series D&quot;;-inkscape-font-specification:&quot;Roadgeek 2005 Series D&quot;;letter-spacing:16.46502113px;fill:#004187;fill-opacity:1;stroke:none;stroke-width:1395.39379883" transform="translate(-2790.933 1675.909)"/>
            <g aria-label="LICENCE" style="font-style:normal;font-variant:normal;font-weight:400;font-stretch:normal;font-size:288.18444824px;line-height:0;font-family:&quot;Roadgeek 2005 Series D&quot;;-inkscape-font-specification:&quot;Roadgeek 2005 Series D&quot;;letter-spacing:0;word-spacing:0;fill:#000;fill-opacity:1;stroke:none;stroke-width:10053.26953125">
              <path d="M1367.886 266.954V73.871h30.547v164.553h89.337v28.53zM1534.102 266.954V73.871h31.124v193.083ZM1756.213 227.761q-17.291 42.652-58.214 42.652-21.613 0-35.734-8.358-14.122-8.357-23.343-26.225-6.629-12.968-10.375-30.259t-3.746-35.447q0-23.054 5.763-44.092 5.764-21.037 15.85-34.006 8.646-10.662 20.75-16.138 12.392-5.475 28.818-5.475 21.902 0 36.023 9.51 14.41 9.51 24.208 29.97l-28.53 12.105q-4.035-6.052-7.493-10.087-3.17-4.034-6.917-6.34-3.458-2.305-7.78-3.17-4.035-.865-9.511-.865-11.815 0-19.885 5.476-7.78 5.475-12.68 18.444-3.746 8.645-5.763 20.46-1.73 11.816-1.73 24.208 0 15.85 3.17 30.548 3.17 14.41 8.934 23.631 5.188 7.493 12.104 11.24t17.003 3.746q9.798 0 17.003-5.188 7.204-5.475 12.968-17.29zM1815.877 266.954V73.871h113.833v30.547h-83.285v47.263h56.196v31.123h-56.196v53.026h89.337v31.124zM2090.36 266.954l-73.776-130.835v130.835h-30.547V73.871h30.547l70.317 123.343V73.87h30.548v193.083ZM2308.336 227.761q-17.29 42.652-58.213 42.652-21.614 0-35.735-8.358-14.12-8.357-23.343-26.225-6.628-12.968-10.374-30.259t-3.747-35.447q0-23.054 5.764-44.092 5.764-21.037 15.85-34.006 8.646-10.662 20.75-16.138 12.391-5.475 28.818-5.475 21.902 0 36.023 9.51 14.41 9.51 24.207 29.97l-28.53 12.105q-4.034-6.052-7.493-10.087-3.17-4.034-6.916-6.34-3.458-2.305-7.781-3.17-4.035-.865-9.51-.865-11.816 0-19.885 5.476-7.78 5.475-12.68 18.444-3.746 8.645-5.764 20.46-1.729 11.816-1.729 24.208 0 15.85 3.17 30.548 3.17 14.41 8.934 23.631 5.187 7.493 12.104 11.24t17.003 3.746q9.798 0 17.002-5.188 7.205-5.475 12.969-17.29zM2368.001 266.954V73.871h113.833v30.547h-83.285v47.263h56.196v31.123h-56.196v53.026h89.337v31.124z" style="font-style:normal;font-variant:normal;font-weight:400;font-stretch:normal;line-height:0;font-family:&quot;Roadgeek 2005 Series D&quot;;-inkscape-font-specification:&quot;Roadgeek 2005 Series D&quot;;letter-spacing:17.62125015px;fill:#004187;fill-opacity:1;stroke:none;stroke-width:10053.26953125" transform="translate(52.615 -1026.413)"/>
            </g>
          </g>
        </g>
        <path d="M566.978-1274v-87.164h-72.836V-1274H462.5v-200h31.642v80.597h72.836V-1474h31.641v200zM650.478-1274v-200h117.91v31.642H682.12v48.955h58.209v32.239h-58.21v54.925h92.538V-1274zM930.714-1274l-19.702-56.12h-62.388L828.922-1274h-33.73l68.954-200h31.344l68.955 200zm-50.448-144.478-20.597 56.12h40zM1069.18-1274h-24.477l-63.284-200h33.134l42.687 133.433L1099.33-1474h33.73zM1254.947-1361.164V-1274h-31.641v-87.164L1153.156-1474h37.91l47.762 77.313 48.358-77.313h37.314z" style="font-style:normal;font-variant:normal;font-weight:400;font-stretch:normal;font-size:298.50747681px;line-height:0;font-family:&quot;Roadgeek 2005 Series D&quot;;-inkscape-font-specification:&quot;Roadgeek 2005 Series D&quot;;letter-spacing:4.32593727px;word-spacing:0;fill:#004187;fill-opacity:1;stroke:none;stroke-width:26.88287735" transform="translate(3 218)"/>
        <g aria-label="FINES" style="font-style:normal;font-variant:normal;font-weight:400;font-stretch:normal;font-size:288.18444824px;line-height:0;font-family:&quot;Roadgeek 2005 Series D&quot;;-inkscape-font-specification:&quot;Roadgeek 2005 Series D&quot;;letter-spacing:4.39472914px;word-spacing:0;fill:#000;fill-opacity:1;stroke:none;stroke-width:193.68066406">
          <path d="M27.548 134.006v47.262h56.196v31.124H27.548v84.15H-3V103.458h119.885v30.548zM149.992 296.542V103.458h31.124v193.084zM335.824 296.542 262.05 165.706v130.836h-30.547V103.458h30.547l70.317 123.343V103.458h30.548v193.084zM413.2 296.542V103.458h113.833v30.548h-83.285v47.262h56.196v31.124h-56.196v53.026h89.337v31.124zM688 240.922q0 13.257-4.9 24.496-4.898 11.24-14.12 19.596-8.07 7.205-19.02 11.24Q639.297 300 626.905 300q-25.072 0-42.94-13.256-17.579-13.545-27.377-35.735l29.107-10.663q6.051 13.833 16.714 21.325 10.663 7.205 24.496 7.205 13.545 0 21.614-8.07 8.357-8.356 8.357-20.46 0-9.51-5.187-15.562-4.9-6.052-12.969-10.087-8.069-4.322-17.867-7.492-9.51-3.17-19.02-6.917-4.323-1.729-10.663-4.899t-12.392-8.645q-5.764-5.764-10.086-14.122-4.035-8.357-4.035-20.46 0-14.122 4.611-23.92 4.611-10.086 12.392-16.138 8.07-6.34 19.02-9.222Q611.92 100 624.888 100q20.46 0 34.005 10.663 13.833 10.663 21.038 28.818l-27.09 8.07q-2.305-4.612-6.051-8.358-3.17-3.17-8.934-5.764-5.476-2.593-13.545-2.881-5.187-.289-10.95.864-5.476.865-9.799 3.458t-6.916 7.205q-2.594 4.323-2.018 10.95.577 8.935 7.781 13.834 7.205 4.61 17.58 8.069 10.374 3.458 22.19 7.205 12.103 3.458 22.19 10.374 10.086 6.628 16.715 18.156Q688 221.902 688 240.923" style="font-style:normal;font-variant:normal;font-weight:400;font-stretch:normal;line-height:0;font-family:&quot;Roadgeek 2005 Series D&quot;;-inkscape-font-specification:&quot;Roadgeek 2005 Series D&quot;;letter-spacing:4.39737511px;fill:#004187;fill-opacity:1;stroke:none;stroke-width:193.68066406" transform="translate(1502.5 -1356)"/>
        </g>
      </g>
    </g>
  </g>
</svg>
