<svg xmlns="http://www.w3.org/2000/svg" xml:space="preserve" viewBox="0 0 123.791 80.741" role="img" aria-labelledby="title">
  <title id="title">Verkehrszeichen GE6-9 - End Freeway 2&amp;nbsp;km</title>
  <path d="M-188.946 10.249h86.127c3.55 0 6.453-2.904 6.453-6.453v-51.687c0-3.549-2.904-6.453-6.453-6.453h-86.127c-3.549 0-6.453 2.904-6.453 6.453V3.796c0 3.549 2.904 6.453 6.453 6.453" style="fill:#006330;fill-opacity:1;fill-rule:evenodd;stroke:none" transform="matrix(1.25 0 0 -1.25 244.248 12.811)"/>
  <path d="M-102.885 7.668c2.1-.098 3.62-1.378 3.915-3.478l.022-.459v-51.556c-.098-2.089-1.378-3.62-3.478-3.916l-.459-.022h-85.996c-2.089.099-3.62 1.378-3.915 3.478l-.022.46V3.731c.098 2.1 1.378 3.62 3.478 3.915l.46.022z" style="fill:#fff;fill-opacity:1;fill-rule:evenodd;stroke:none" transform="matrix(1.25 0 0 -1.25 244.248 12.811)"/>
  <path d="m-101.54 3.949.011-.284V-47.76c-.033-.897-.525-1.389-1.422-1.422h-85.865c-.875.033-1.389.547-1.42 1.422V3.665c.031.875.545 1.389 1.42 1.421h85.865c.744-.021 1.27-.382 1.411-1.137" style="fill:#006330;fill-opacity:1;fill-rule:evenodd;stroke:none" transform="matrix(1.25 0 0 -1.25 244.248 12.811)"/>
  <path d="M-184.692-16.875h7.603v-1.8h-5.855v-2.245h3.228v-1.768h-3.228v-4.531h-1.748zM-174.306-16.875h4.976a3.1 3.1 0 0 0 3.134-3.083c0-1.055-.683-2.41-1.79-2.886l1.924-4.375h-1.924l-1.84 4.044h-2.71v-4.044h-1.77zm1.77-1.769v-2.772h3.206c.713 0 1.344.652 1.344 1.376 0 .486-.403 1.396-1.344 1.396zM-163.03-16.875h7.416v-1.8h-5.627v-2.058h3.041v-1.8h-3.04v-2.886h5.812v-1.8h-7.603zM-152.273-16.875h7.417v-1.8h-5.627v-2.058h3.041v-1.8h-3.04v-2.886h5.812v-1.8h-7.603zM-142.488-16.875h1.821l1.168-6.238 1.531 6.238h1.76l1.633-6.3 1.128 6.3h1.79l-1.842-10.344h-1.945l-1.603 6.486-1.634-6.486h-1.893zM-125.388-16.875h1.727l4.345-10.344h-1.945l-.993 2.41h-4.489l-1.014-2.41h-1.903zm-.652-6.155h3.042l-1.51 3.672zM-117.372-16.875h2.183l3.02-4.303 2.97 4.303h2.182l-4.262-6.238v-4.106h-1.8v4.106zM-161.167-35.517c1.055.983 2.71 1.634 4.127 1.634 1.986 0 4.066-1.013 4.066-3.227 0-1.624-1.52-2.659-2.442-2.814-2.162-.351-3.268-1.738-3.506-2.669h6v-1.841h-8.204c0 2.597 1.542 4.883 3.807 5.834 1.241.538 2.576.311 2.576 1.645 0 .631-1.045 1.272-2.13 1.272-.963 0-2.36-.32-3.104-1.179zM-147.66-44.434v7.985l1.644.641v-4.174l1.643 2.019h2.077l-1.76-2.155 1.76-4.316h-1.695l-1.197 2.944-.828-1.074v-1.87zM-139.669-44.434v6.471h1.631v-.369c.375.233 1.171.427 1.56.427.737 0 1.293-.214 1.72-.783.473.582 1.456.783 2.026.783 1.152 0 2.252-1.184 2.252-2.174v-4.355h-1.67v3.96c0 .57-.453.984-1.1.984-.705 0-1.074-.557-1.074-1.133v-3.811h-1.495v3.811c0 .57-.433 1.184-1.132 1.184-.68 0-1.087-.608-1.087-1.035v-3.96zM-162.656.351h7.417v-1.8h-5.627v-2.058h3.041v-1.8h-3.04v-2.886h5.812v-1.8h-7.603zM-150.853.351h1.696l4.748-6.838V.351h1.8V-9.993h-1.613l-4.84 7.024v-7.024h-1.79zM-137.354.351h3.31c3.155 0 4.934-2.514 4.934-5.224 0-2.679-1.758-5.12-4.655-5.12h-3.589zm1.78-8.544h1.892c1.728 0 2.835 1.738 2.835 3.32 0 1.748-1.18 3.424-2.959 3.424h-1.769z" style="fill:#fff;fill-opacity:1;fill-rule:evenodd;stroke:none" transform="matrix(1.25 0 0 -1.25 244.248 12.811)"/>
</svg>
