<svg xmlns="http://www.w3.org/2000/svg" viewBox="0 0 606 1306" role="img" aria-labelledby="title">
  <title id="title">Verkehrszeichen G6-332-NSW - School Zone Ahead (used in NSW)</title>
  <g transform="translate(0 1009)">
    <rect width="604" height="1304" x="1" y="-1008" rx="62" ry="62" style="opacity:1;fill:#000;fill-opacity:1;fill-rule:nonzero;stroke:none;stroke-width:169.51304626;stroke-linecap:square;stroke-linejoin:round;stroke-miterlimit:4;stroke-dasharray:none;stroke-opacity:1"/>
    <rect width="600" height="1300" x="3" y="-1006" rx="60" ry="60" style="opacity:1;fill:#fff;fill-opacity:1;fill-rule:nonzero;stroke:none;stroke-width:168.69148254;stroke-linecap:square;stroke-linejoin:round;stroke-miterlimit:4;stroke-dasharray:none;stroke-opacity:1"/>
    <circle cx="303" cy="-270" r="294" style="opacity:1;fill:#000;fill-opacity:1;fill-rule:nonzero;stroke:none;stroke-width:105.62014008;stroke-linecap:square;stroke-linejoin:round;stroke-miterlimit:4;stroke-dasharray:none;stroke-opacity:1"/>
    <circle cx="303" cy="-270" r="247" style="opacity:1;fill:#fff;fill-opacity:1;fill-rule:nonzero;stroke:none;stroke-width:88.73529053;stroke-linecap:square;stroke-linejoin:round;stroke-miterlimit:4;stroke-dasharray:none;stroke-opacity:1"/>
    <g aria-label="40" style="font-style:normal;font-variant:normal;font-weight:400;font-stretch:normal;font-size:345.82131958px;line-height:0;font-family:&quot;Roadgeek 2005 Series D&quot;;-inkscape-font-specification:&quot;Roadgeek 2005 Series D&quot;;letter-spacing:0;word-spacing:0;fill:#000;fill-opacity:1;stroke:none;stroke-width:8.64553261">
      <path d="M254.024 58.098v57.752h-36.311V58.098H102.9V36.311L217.713-115.85h36.31V24.9h22.133v33.198ZM217.713-62.248 151.66 24.9h66.052zM491.1.346q0 27.666-6.57 52.91-6.572 25.245-18.675 40.807Q446.489 120 409.832 120q-24.554 0-40.461-10.029t-26.283-31.47q-7.262-14.87-11.758-35.965-4.495-21.44-4.495-42.19 0-28.703 6.57-53.257 6.917-24.553 18.675-41.152 10.374-13.142 24.553-19.366Q391.157-120 411.215-120q22.133 0 37.694 10.029t26.629 31.47q7.262 15.562 11.412 36.31Q491.1-21.44 491.1.347m-36.657 0q0-19.712-3.459-36.311-3.458-16.946-10.374-28.704-5.533-8.99-12.796-13.14-6.916-4.15-17.29-4.842-13.488-.692-22.48 6.225-8.99 6.916-14.87 22.478-4.495 10.375-6.916 25.245-2.075 14.524-2.075 29.049 0 18.674 3.458 35.965t10.375 28.358q5.533 8.991 13.141 13.487 7.608 4.495 18.675 4.495 12.795 0 21.095-6.916 8.645-6.917 14.524-22.479 1.73-4.495 3.458-10.72 1.73-6.57 2.767-13.487 1.383-7.262 2.075-14.524.692-7.263.692-14.18" style="font-style:normal;font-variant:normal;font-weight:400;font-stretch:normal;line-height:0;font-family:&quot;Roadgeek 2005 Series D&quot;;-inkscape-font-specification:&quot;Roadgeek 2005 Series D&quot;;fill:#000;stroke:none;stroke-width:8.64553261" transform="translate(6 -270)"/>
    </g>
    <path d="M595 32v202c0 28.808-23.192 52-52 52H63c-28.808 0-52-23.192-52-52V32Z" style="opacity:1;fill:#000;fill-opacity:1;fill-rule:nonzero;stroke:none;stroke-width:6.24032593;stroke-linecap:square;stroke-linejoin:round;stroke-miterlimit:4;stroke-dasharray:none;stroke-opacity:1"/>
    <path d="M579 48v186c0 19.944-16.056 36-36 36H63c-19.944 0-36-16.056-36-36V48Z" style="opacity:1;fill:#cdff00;fill-opacity:1;fill-rule:nonzero;stroke:none;stroke-width:6.06694984;stroke-linecap:square;stroke-linejoin:round;stroke-miterlimit:4;stroke-dasharray:none;stroke-opacity:1"/>
    <path d="M595-572v-374c0-28.808-23.192-52-52-52H63c-28.808 0-52 23.192-52 52v374z" style="opacity:1;fill:#000;fill-opacity:1;fill-rule:nonzero;stroke:none;stroke-width:6.24032593;stroke-linecap:square;stroke-linejoin:round;stroke-miterlimit:4;stroke-dasharray:none;stroke-opacity:1"/>
    <path d="M579-588v-358c0-19.944-16.056-36-36-36H63c-19.944 0-36 16.056-36 36v358z" style="opacity:1;fill:#cdff00;fill-opacity:1;fill-rule:nonzero;stroke:none;stroke-width:6.06694984;stroke-linecap:square;stroke-linejoin:round;stroke-miterlimit:4;stroke-dasharray:none;stroke-opacity:1"/>
    <g aria-label="SCHOOL" style="font-style:normal;font-variant:normal;font-weight:400;font-stretch:normal;font-size:158.50143433px;line-height:0;font-family:&quot;Roadgeek 2005 Series D&quot;;-inkscape-font-specification:&quot;Roadgeek 2005 Series D&quot;;letter-spacing:-1.98172915px;word-spacing:0;fill:#000;fill-opacity:1;stroke:none;stroke-width:3.96253586">
      <path d="M122.174-621.469q0 7.291-2.695 13.473-2.695 6.181-7.767 10.778-4.438 3.962-10.46 6.181-5.865 2.06-12.68 2.06-13.79 0-23.618-7.29-9.668-7.45-15.057-19.654l16.009-5.865q3.328 7.608 9.193 11.73 5.864 3.962 13.472 3.962 7.45 0 11.888-4.438 4.596-4.597 4.596-11.254 0-5.23-2.853-8.56-2.694-3.328-7.132-5.547-4.438-2.377-9.827-4.12-5.23-1.744-10.461-3.805-2.378-.95-5.865-2.694t-6.816-4.755q-3.17-3.17-5.547-7.767-2.22-4.596-2.22-11.253 0-7.767 2.537-13.156 2.536-5.548 6.815-8.876 4.439-3.487 10.462-5.072 6.181-1.585 13.314-1.585 11.253 0 18.703 5.864 7.608 5.865 11.57 15.85l-14.899 4.439q-1.268-2.536-3.328-4.597-1.744-1.744-4.914-3.17-3.011-1.427-7.45-1.585-2.852-.159-6.022.475-3.012.476-5.39 1.903-2.377 1.426-3.803 3.962-1.427 2.378-1.11 6.023.317 4.914 4.28 7.608 3.962 2.536 9.668 4.438t12.205 3.963q6.657 1.902 12.204 5.706 5.548 3.645 9.193 9.985 3.805 6.182 3.805 16.643M208.078-612.434q-9.51 23.458-32.017 23.458-11.888 0-19.654-4.597-7.767-4.596-12.839-14.423-3.645-7.133-5.706-16.643-2.06-9.51-2.06-19.496 0-12.68 3.17-24.25t8.717-18.704q4.755-5.864 11.412-8.876 6.816-3.011 15.85-3.011 12.047 0 19.813 5.23 7.925 5.23 13.314 16.485l-15.691 6.657q-2.22-3.329-4.121-5.548-1.744-2.219-3.804-3.487-1.902-1.268-4.28-1.744-2.219-.475-5.23-.475-6.499 0-10.937 3.012-4.28 3.011-6.974 10.144-2.06 4.755-3.17 11.253-.951 6.499-.951 13.314 0 8.718 1.743 16.801 1.744 7.926 4.914 12.998 2.853 4.12 6.657 6.181t9.352 2.06q5.389 0 9.351-2.852 3.963-3.012 7.133-9.51zM284.696-590.878v-46.283h-38.674v46.283H229.22v-106.196h16.802v42.795h38.674v-42.795h16.801v106.196zM397.823-643.818q0 12.68-3.011 24.251-3.012 11.57-8.56 18.703-8.875 11.888-25.676 11.888-11.254 0-18.545-4.597-7.291-4.596-12.046-14.423-3.329-6.816-5.39-16.485-2.06-9.827-2.06-19.337 0-13.155 3.012-24.409 3.17-11.254 8.559-18.862 4.755-6.023 11.253-8.876 6.658-3.011 15.85-3.011 10.145 0 17.277 4.596 7.133 4.597 12.205 14.424 3.328 7.133 5.23 16.643t1.902 19.495m-16.8 0q0-9.034-1.586-16.642-1.585-7.767-4.755-13.156-2.536-4.121-5.864-6.023-3.17-1.902-7.925-2.219-6.182-.317-10.303 2.853t-6.816 10.303q-2.06 4.755-3.17 11.57-.95 6.657-.95 13.314 0 8.56 1.584 16.484 1.585 7.926 4.755 12.998 2.537 4.12 6.024 6.181t8.559 2.06q5.864 0 9.668-3.17 3.963-3.17 6.657-10.302.793-2.06 1.585-4.913.793-3.012 1.268-6.182.634-3.329.951-6.657.317-3.329.317-6.499M492.429-643.818q0 12.68-3.012 24.251-3.011 11.57-8.559 18.703-8.876 11.888-25.677 11.888-11.254 0-18.545-4.597-7.291-4.596-12.046-14.423-3.329-6.816-5.39-16.485-2.06-9.827-2.06-19.337 0-13.155 3.012-24.409 3.17-11.254 8.559-18.862 4.755-6.023 11.254-8.876 6.657-3.011 15.85-3.011 10.144 0 17.276 4.596 7.133 4.597 12.205 14.424 3.329 7.133 5.23 16.643 1.903 9.51 1.903 19.495m-16.802 0q0-9.034-1.585-16.642-1.585-7.767-4.755-13.156-2.536-4.121-5.864-6.023-3.17-1.902-7.925-2.219-6.182-.317-10.303 2.853-4.12 3.17-6.815 10.303-2.06 4.755-3.17 11.57-.951 6.657-.951 13.314 0 8.56 1.585 16.484 1.585 7.926 4.755 12.998 2.536 4.12 6.023 6.181t8.559 2.06q5.864 0 9.668-3.17 3.963-3.17 6.657-10.302.793-2.06 1.585-4.913.793-3.012 1.268-6.182.634-3.329.951-6.657.317-3.329.317-6.499M513.96-590.878v-106.196h16.802v90.504h49.135v15.692z" style="font-style:normal;font-variant:normal;font-weight:400;font-stretch:normal;line-height:0;font-family:&quot;Roadgeek 2005 Series D&quot;;-inkscape-font-specification:&quot;Roadgeek 2005 Series D&quot;;letter-spacing:-1.98172915px;fill:#000;stroke:none;stroke-width:3.96253586" transform="translate(-11.897 -227.024)"/>
    </g>
    <g aria-label="ZONE" style="font-style:normal;font-variant:normal;font-weight:400;font-stretch:normal;font-size:158.50143433px;line-height:0;font-family:&quot;Roadgeek 2005 Series D&quot;;-inkscape-font-specification:&quot;Roadgeek 2005 Series D&quot;;letter-spacing:1.95262504px;word-spacing:0;fill:#000;fill-opacity:1;stroke:none;stroke-width:3.96253586">
      <path d="M105.835-417.01v-14.106l48.502-75.288h-44.38v-16.801h68.155v9.985l-49.135 79.093h49.135v17.118zM270.963-469.949q0 12.68-3.012 24.251-3.011 11.57-8.559 18.703-8.876 11.888-25.677 11.888-11.254 0-18.545-4.597-7.29-4.596-12.046-14.423-3.328-6.816-5.389-16.484-2.06-9.828-2.06-19.338 0-13.155 3.011-24.409 3.17-11.253 8.56-18.862 4.754-6.023 11.253-8.876 6.657-3.011 15.85-3.011 10.144 0 17.277 4.596 7.132 4.597 12.204 14.424 3.329 7.133 5.23 16.643 1.903 9.51 1.903 19.495m-16.801 0q0-9.034-1.585-16.642-1.585-7.767-4.756-13.156-2.536-4.12-5.864-6.023-3.17-1.902-7.925-2.219-6.182-.317-10.303 2.853-4.12 3.17-6.815 10.303-2.06 4.755-3.17 11.57-.951 6.657-.951 13.314 0 8.56 1.585 16.485t4.755 12.997q2.536 4.12 6.023 6.181t8.559 2.06q5.864 0 9.668-3.17 3.963-3.17 6.658-10.302.792-2.06 1.585-4.913.792-3.012 1.268-6.182.634-3.329.95-6.657.318-3.329.318-6.499M353.809-417.01l-40.577-71.959v71.96h-16.801v-106.196h16.801l38.674 67.839v-67.84h16.802v106.197zM395.9-417.01v-106.195h62.607v16.801H412.7v25.994h30.908v17.118H412.7v29.165h49.136v17.118z" style="font-style:normal;font-variant:normal;font-weight:400;font-stretch:normal;line-height:0;font-family:&quot;Roadgeek 2005 Series D&quot;;-inkscape-font-specification:&quot;Roadgeek 2005 Series D&quot;;letter-spacing:1.95262504px;fill:#000;stroke:none;stroke-width:3.96253586" transform="translate(19.165 -228.893)"/>
    </g>
    <g aria-label="AHEAD" style="font-style:normal;font-variant:normal;font-weight:400;font-stretch:normal;font-size:164.17910767px;line-height:0;font-family:&quot;Roadgeek 2005 Series D&quot;;-inkscape-font-specification:&quot;Roadgeek 2005 Series D&quot;;letter-spacing:1.36260414px;word-spacing:0;fill:#000;fill-opacity:1;stroke:none;stroke-width:4.10447741">
      <path d="m148.625-207.976-10.836-30.866h-34.314L92.64-207.976H74.087l37.926-110h17.239l37.925 110zm-27.747-79.463-11.328 30.866h22zM242.646-207.976v-47.94h-40.06v47.94h-17.403v-110h17.403v44.328h40.06v-44.328h17.403v110zM287.55-207.976v-110h64.851v17.403h-47.448v26.925h32.015v17.732h-32.015v30.208h50.896v17.732zM440.663-207.976l-10.836-30.866h-34.313l-10.836 30.866h-18.552l37.925-110h17.24l37.924 110zm-27.746-79.463-11.328 30.866h22zM552.087-263.14q0 16.582-5.09 29.224-4.925 12.477-14.283 19.701-3.12 2.955-7.388 4.433-4.104 1.477-8.373 1.806h-39.731v-110h35.462q4.105 0 7.06.328 3.12.164 5.582.821 2.463.657 4.433 1.806t4.269 2.791q8.701 7.552 13.298 20.194 4.761 12.478 4.761 28.896m-17.73 0q0-11.165-2.464-19.866-2.298-8.702-6.403-12.97-2.134-1.97-4.925-3.284t-6.239-1.313h-19.701v74.865h17.403q4.268 0 7.06-.985 2.955-.985 5.253-3.283 4.926-4.926 7.388-13.463 2.627-8.701 2.627-19.701" style="font-style:normal;font-variant:normal;font-weight:400;font-stretch:normal;line-height:0;font-family:&quot;Roadgeek 2005 Series D&quot;;-inkscape-font-specification:&quot;Roadgeek 2005 Series D&quot;;letter-spacing:1.36260414px;fill:#000;stroke:none;stroke-width:4.10447741" transform="translate(-10.087 421.976)"/>
    </g>
  </g>
</svg>
