<svg xmlns="http://www.w3.org/2000/svg" xml:space="preserve" viewBox="0 0 366.602 366.602" role="img" aria-labelledby="title">
  <title id="title">Verkehrszeichen GE9-23 - Emergency Median Crossing</title>
  <path d="M-141.152-60.924H85.962c17.97 0 32.485-14.515 32.485-32.485v-227.114c0-17.97-14.515-32.485-32.485-32.485h-227.114c-17.97 0-32.485 14.515-32.485 32.485V-93.41c0 17.97 14.515 32.485 32.485 32.485" style="fill:#006330;fill-opacity:1;fill-rule:evenodd;stroke:none" transform="matrix(1.25 0 0 -1.25 217.813 -75.39)"/>
  <path d="M84.978-353.008-27.605-241.249l-112.563-111.759c-18.954 0-33.469 14.515-33.469 33.469l111.762 112.562-111.762 112.584c0 18.954 14.515 33.469 33.469 33.469l112.904-111.762L84.978-60.924c18.954 0 33.469-14.515 33.469-33.469L6.688-206.977l111.759-112.562c0-18.954-14.515-33.469-33.469-33.469" style="fill:#fff;fill-opacity:1;fill-rule:evenodd;stroke:none" transform="matrix(1.25 0 0 -1.25 217.813 -75.39)"/>
  <path d="M-141.152-60.924H85.962c17.97 0 32.485-14.515 32.485-32.485v-227.114c0-17.97-14.515-32.485-32.485-32.485h-227.114c-17.97 0-32.485 14.515-32.485 32.485V-93.41c0 17.97 14.515 32.485 32.485 32.485z" style="fill:none;stroke:#000;stroke-width:1.19980466;stroke-linecap:butt;stroke-linejoin:miter;stroke-miterlimit:11.47399998;stroke-opacity:1;stroke-dasharray:none" transform="matrix(1.25 0 0 -1.25 217.813 -75.39)"/>
</svg>
