<svg xmlns="http://www.w3.org/2000/svg" xml:space="preserve" viewBox="0 0 123.63 95.103" role="img" aria-labelledby="title">
  <title id="title">Verkehrszeichen GE9-3 - Reduce Speed Now</title>
  <path d="M14.264 0h95.102c7.851 0 14.264 6.413 14.264 14.264v66.575c0 7.851-6.413 14.264-14.264 14.264H14.264C6.412 95.103 0 88.69 0 80.839V14.264C0 6.413 6.412 0 14.264 0" style="fill:#c0111e;fill-opacity:1;fill-rule:evenodd;stroke:none"/>
  <path d="M14.252 2.283h95.127c6.593 0 11.968 5.375 11.968 11.968V80.85c0 6.594-5.375 11.969-11.968 11.969H14.252c-6.593 0-11.968-5.375-11.968-11.969V14.251c0-6.594 5.375-11.968 11.968-11.968" style="fill:#fff;fill-opacity:1;fill-rule:evenodd;stroke:none"/>
  <path d="M14.275 4.566h95.079c5.35 0 9.71 4.36 9.71 9.712v66.55c0 5.348-4.36 9.708-9.71 9.708H14.275c-5.35 0-9.711-4.36-9.711-9.708v-66.55c0-5.352 4.361-9.712 9.711-9.712" style="fill:#c0111e;fill-opacity:1;fill-rule:evenodd;stroke:none"/>
  <path d="M15.025 13.313h7.319c2.33 0 4.456 2.186 4.456 4.528 0 1.545-.774 3.804-2.489 4.251l2.839 6.437h-2.839l-2.729-5.93H17.61v5.93h-2.584zm2.584 2.632v4.021h4.735c1.037 0 1.967-.941 1.967-1.992 0-.725-1.171-2.029-1.967-2.029zM31.617 13.313h10.905v2.632h-8.308v3.164h4.601v2.632h-4.601v4.155H42.8v2.633H31.617zM47.45 13.313h4.939c4.432 0 7.186 3.707 7.186 7.68 0 3.805-2.741 7.536-6.788 7.536H47.45zm2.632 12.583h2.85c2.573 0 4.058-2.572 4.058-4.927 0-2.15-1.618-5.024-4.058-5.024h-2.85zM64.042 22.889v-9.576h2.513v9.286c0 1.764 1.835 3.345 3.67 3.345 1.727 0 3.297-1.449 3.297-3.213v-9.418h2.645v9.418c0 3.213-2.922 5.798-6.05 5.798-2.922 0-6.075-2.585-6.075-5.64M90.405 17.709c-1.003-1.135-1.788-1.764-3.405-1.764-1.559 0-3.575 1.642-3.599 4.046-.025 3.019.749 6.087 3.731 6.003 2.415-.061 2.524-.93 3.405-1.86l2.272 1.135c-1.052 1.956-3.177 3.26-5.399 3.26-5 0-6.775-3.961-6.726-8.561.023-3.165 2.946-6.655 6.218-6.655 2.863 0 4.42 1.268 5.907 3.116zM97.409 13.313h10.905v2.632h-8.309v3.164h4.601v2.632h-4.601v4.155h8.586v2.633H97.41zM37.682 66.576h2.392l7.088 10.06v-10.06h2.645v15.217H47.44l-7.113-10.338v10.338h-2.645zM60.544 81.793c-4.167 0-6.268-3.418-6.268-7.608 0-4.179 1.969-7.609 6.304-7.609s6.291 3.43 6.291 7.609c0 4.19-2.174 7.608-6.327 7.608m.012-2.573c2.451 0 3.731-2.27 3.731-5.035s-1.16-5.036-3.707-5.036c-2.56 0-3.72 2.27-3.72 5.036s1.256 5.035 3.696 5.035M69.999 66.576h2.596l1.751 9.19 2.259-9.19h2.644l2.331 9.287 1.751-9.287h2.596l-2.74 15.217H80.36l-2.379-9.553-2.367 9.553H72.74zM23.419 52.25l2.041-1.485c1.122 1.135 2.221 1.859 3.889 1.859 1.218 0 3.392-.374 3.392-1.993 0-1.593-2.306-1.593-3.392-1.956-2.537-.809-5.29-1.352-5.29-4.565 0-2.814 2.982-4.166 5.435-4.166 1.811 0 3.887.991 5.107 2.271l-1.86 1.763c-1.074-1.123-2.197-1.39-3.682-1.39-.894 0-2.38.4-2.38 1.51 0 1.68 3.455 2.126 3.805 2.235 1.461.422 4.89.99 4.89 4.155 0 3.223-3.393 4.672-6.159 4.672-1.811 0-4.926-1.304-5.796-2.91M39.83 39.945h7.366c2.308 0 4.759 1.993 4.759 4.396 0 2.439-1.836 4.89-4.396 4.89h-5.084v5.93H39.83zm2.524 2.633v4.02h4.842c1.233 0 2.114-.687 2.114-1.992 0-1.158-1.124-2.028-2.234-2.028zM56.424 39.945h10.905v2.633H59.02v3.163h4.601v2.633H59.02v4.155h8.586v2.632H56.424zM72.255 39.945H83.16v2.633h-8.309v3.163h4.601v2.633h-4.6v4.155h8.585v2.632H72.255zM88.087 39.945h4.94c4.432 0 7.185 3.708 7.185 7.68 0 3.805-2.74 7.536-6.787 7.536h-5.338zm2.633 12.584h2.85c2.572 0 4.057-2.573 4.057-4.928 0-2.15-1.617-5.023-4.057-5.023h-2.85z" style="fill:#fff;fill-opacity:1;fill-rule:evenodd;stroke:none"/>
</svg>
