<svg xmlns="http://www.w3.org/2000/svg" viewBox="0 0 815.864 815.864" role="img" aria-labelledby="title">
  <title id="title">Verkehrszeichen MR-WDAD-17-WA - Roundabout Directional Lanes (used in WA)</title>
  <g transform="translate(-2681.57 2098.414)">
    <rect width="600" height="600" x="689.256" y="-3679.959" rx="40" ry="40" style="fill:#fee011;fill-opacity:1;stroke:none;stroke-width:8;stroke-linejoin:miter;stroke-miterlimit:4;stroke-dasharray:none;stroke-dashoffset:0;stroke-opacity:1" transform="rotate(45)"/>
    <rect width="584" height="584" x="697.256" y="-3671.959" rx="32" ry="32" style="fill:#000;fill-opacity:1;stroke:none;stroke-width:8;stroke-linejoin:miter;stroke-miterlimit:4;stroke-dasharray:none;stroke-dashoffset:0;stroke-opacity:1" transform="rotate(45)"/>
    <rect width="552" height="552" x="713.256" y="-3655.959" rx="16" ry="16" style="fill:#fee011;fill-opacity:1;stroke:none;stroke-width:8;stroke-linejoin:miter;stroke-miterlimit:4;stroke-dasharray:none;stroke-dashoffset:0;stroke-opacity:1" transform="rotate(45)"/>
    <path d="M3227.475-1694.163c0 30.195-24.504 54.68-54.69 54.68-30.155 0-54.628-24.485-54.628-54.68 0-30.166 24.473-54.63 54.628-54.63 30.185 0 54.69 24.464 54.69 54.63M2915.907-1618.38c21.104 37.613 15.124 39.576 15.124 39.576-2.343 4.706-8.322 6.493-13.387 3.966l-74.17-36.926a10.58 10.58 0 0 1-5.23-5.702v-2.291c.905-2.374 2.713-4.48 5.23-5.744l74.17-36.946c5.065-2.507 11.044-.69 13.387 3.976 0 0 6.216 4.172-14.887 37.892" style="fill:#000;fill-opacity:1;fill-rule:nonzero;stroke:none"/>
    <path d="M2912.507-1600.996c76.923 4.243 117.588 62.806 123.517 71.981 1.263 5.035 4.007 21.298 4.007 67.42v3.247l37.778.131c.181-65.724-4.993-80.313-6.708-85.112l-.6-1.767-.987-1.633c-2.096-3.504-52.902-86.345-154.926-91.976M2969.457-1691.071c21.093 37.614 15.124 39.597 15.124 39.597-2.312 4.695-8.343 6.493-13.378 3.966l-74.17-36.947a10.37 10.37 0 0 1-5.23-5.702v-2.3c.895-2.343 2.713-4.45 5.23-5.734l74.17-36.916c5.035-2.537 11.066-.74 13.377 3.977 0 0 6.258 4.16-14.866 37.891M3124.054-1890.885c-37.594 21.103-39.556 15.134-39.556 15.134-4.747-2.363-6.504-8.353-3.997-13.388l36.967-74.17a10.56 10.56 0 0 1 5.703-5.24h2.301c2.352.905 4.46 2.713 5.722 5.24l36.937 74.17c2.486 5.035.723 11.025-3.966 13.388 0 0-4.15 6.216-37.882-14.898" style="fill:#000;fill-opacity:1;fill-rule:nonzero;stroke:none"/>
    <path d="M2966.066-1673.687c33.494 1.85 64.235 14.302 91.441 37.008l24.206-28.974c-33.144-27.638-72.402-43.46-113.54-45.761" style="fill:#000;fill-opacity:1;fill-rule:nonzero;stroke:none"/>
    <path d="M3105.499-1893.525v85.84c-29.795 19.09-45.156 52.03-45.834 53.448l.682-1.233c-10.726 19.573-16.407 41.754-16.407 64.193 0 34.902 13.377 67.934 37.665 93.014l1.715 1.787 3.052 1.777c.543.321 13.213 8.22 14.106 38.59v97.832h37.748v-98.375c-1.284-44.273-21.093-62.705-30.442-69.054-16.768-17.846-26.117-41.025-26.117-65.57 0-16.09 4.078-32.025 11.795-46.04l.279-.566.304-.625c.115-.247 11.826-25.172 31.573-37.275 13.193-8.055 17.693-19.47 17.693-28.152a26 26 0 0 0-.288-3.678l.238 2.98v-88.893" style="fill:#000;fill-opacity:1;fill-rule:nonzero;stroke:none"/>
  </g>
</svg>
