<svg xmlns="http://www.w3.org/2000/svg" viewBox="0 0 815.864 815.864" role="img" aria-labelledby="title">
  <title id="title">Verkehrszeichen MR-WDAD-19-WA - Roundabout Directional Lanes (used in WA)</title>
  <g transform="translate(-2681.97 2098.814)">
    <rect width="600" height="600" x="689.256" y="-3680.525" rx="40" ry="40" style="fill:#fee011;fill-opacity:1;stroke:none;stroke-width:8;stroke-linejoin:miter;stroke-miterlimit:4;stroke-dasharray:none;stroke-dashoffset:0;stroke-opacity:1" transform="rotate(45)"/>
    <rect width="584" height="584" x="697.256" y="-3672.525" rx="32" ry="32" style="fill:#000;fill-opacity:1;stroke:none;stroke-width:8;stroke-linejoin:miter;stroke-miterlimit:4;stroke-dasharray:none;stroke-dashoffset:0;stroke-opacity:1" transform="rotate(45)"/>
    <rect width="552" height="552" x="713.256" y="-3656.524" rx="16" ry="16" style="fill:#fee011;fill-opacity:1;stroke:none;stroke-width:8;stroke-linejoin:miter;stroke-miterlimit:4;stroke-dasharray:none;stroke-dashoffset:0;stroke-opacity:1" transform="rotate(45)"/>
    <path d="M3151.604-1664.128c0 27.553-22.384 49.917-49.938 49.917-27.564 0-49.907-22.364-49.907-49.917 0-27.564 22.343-49.938 49.907-49.938 27.554 0 49.938 22.374 49.938 49.938" style="fill:#000;fill-opacity:1;fill-rule:nonzero;stroke:none"/>
    <path d="M2979.282-1664.128c0 32.825 12.83 63.642 36.141 86.789 5.601 5.509 11.697 14.631 11.697 19.213v73.26h35.11v-73.26c0-21.746-18.553-40.754-22.25-44.305-16.423-16.32-25.546-38.314-25.546-61.697 0-48.126 39.137-87.304 87.232-87.304 30.179 0 57.846 15.3 73.95 40.867l1.03 1.647 1.359 1.39c5.405 5.427 33.793 32.516 62.653 30.992h52.276v-35.141h-53.223c-10.75.543-28.16-12.017-36.8-20.655l2.42 3.037c-22.58-35.862-61.336-57.29-103.665-57.29-67.452 0-122.384 54.933-122.384 122.426" style="fill:#000;fill-opacity:1;fill-rule:nonzero;stroke:none"/>
    <path d="M2959.832-1813.098c-37.253 37.263-57.794 86.81-57.794 139.486 0 40.27 12.068 79.047 34.885 112.037l.667.947.774.865c6.414 7.032 13.745 18.255 14.28 22.971v46.026h35.123v-48.013l-.082-.724c-1.473-17.957-17.113-36.8-22.097-42.422-18.565-27.018-28.408-58.721-28.408-91.69 0-43.276 16.866-84.03 47.467-114.652 30.642-30.621 71.324-47.487 114.661-47.487 39.653 0 77.647 14.507 107.31 40.722 6.086 8.104 27.183 33.278 54.212 35.605l1.359.091 17.298-1.153-2.461-35.049-13.715.916c-11.038-1.328-24.64-15.836-29.613-22.838l-1.132-1.616-1.493-1.349c-36.254-32.526-83.03-50.473-131.765-50.473-52.697 0-102.223 20.52-139.486 57.794" style="fill:#000;fill-opacity:1;fill-rule:nonzero;stroke:none"/>
    <path d="M3034.348-1907.074c.099.354 7.743 35.266-14.961 53.521l22.024 27.368c40.146-32.31 27.687-86.676 27.131-88.982" style="fill:#000;fill-opacity:1;fill-rule:nonzero;stroke:none"/>
    <path d="M3054.107-1906.981c-34.38 19.264-36.141 13.807-36.141 13.807-4.293-2.151-5.91-7.599-3.634-12.232l33.73-67.751c1.143-2.296 3.07-3.974 5.2-4.777h2.132c2.162.799 4.108 2.481 5.23 4.777l33.742 67.75c2.286 4.634.659 10.082-3.634 12.233 0 0-3.82 5.694-34.607-13.601M3277.778-1776.618c-19.296 34.37-13.829 36.152-13.829 36.152 2.142 4.293 7.599 5.93 12.232 3.624l67.751-33.71a9.73 9.73 0 0 0 4.778-5.242v-2.09a9.6 9.6 0 0 0-4.778-5.23l-67.75-33.752c-4.634-2.276-10.091-.65-12.233 3.645 0 0-5.684 3.778 13.591 34.606M3280.125-1691.496c-19.275 34.338-13.818 36.171-13.818 36.171 2.131 4.263 7.63 5.89 12.212 3.594l67.75-33.69c2.338-1.185 3.975-3.1 4.82-5.251v-2.112a9.87 9.87 0 0 0-4.82-5.23l-67.75-33.732c-4.582-2.285-10.08-.667-12.212 3.636 0 0-5.694 3.789 13.612 34.596" style="fill:#000;fill-opacity:1;fill-rule:nonzero;stroke:none"/>
  </g>
</svg>
