<svg xmlns="http://www.w3.org/2000/svg" viewBox="0 0 815.864 815.864" role="img" aria-labelledby="title">
  <title id="title">Verkehrszeichen MR-WDAD-12-WA - Roundabout Directional Lanes (used in WA)</title>
  <g transform="translate(-2681.77 2098.614)">
    <rect width="600" height="600" x="689.256" y="-3680.242" rx="40" ry="40" style="fill:#fee011;fill-opacity:1;stroke:none;stroke-width:8;stroke-linejoin:miter;stroke-miterlimit:4;stroke-dasharray:none;stroke-dashoffset:0;stroke-opacity:1" transform="rotate(45)"/>
    <rect width="584" height="584" x="697.256" y="-3672.242" rx="32" ry="32" style="fill:#000;fill-opacity:1;stroke:none;stroke-width:8;stroke-linejoin:miter;stroke-miterlimit:4;stroke-dasharray:none;stroke-dashoffset:0;stroke-opacity:1" transform="rotate(45)"/>
    <rect width="552" height="552" x="713.256" y="-3656.242" rx="16" ry="16" style="fill:#fee011;fill-opacity:1;stroke:none;stroke-width:8;stroke-linejoin:miter;stroke-miterlimit:4;stroke-dasharray:none;stroke-dashoffset:0;stroke-opacity:1" transform="rotate(45)"/>
    <path d="M3201.108-1677.502c0 31.232-25.32 56.562-56.55 56.562-31.21 0-56.552-25.33-56.552-56.562 0-31.21 25.341-56.55 56.551-56.55 31.231 0 56.551 25.34 56.551 56.55" style="fill:#000;fill-opacity:1;fill-rule:nonzero;stroke:none"/>
    <path d="M3009.986-1674.557c0 36.483 13.963 70.957 39.293 97.112l1.874 1.936 3.378 1.935c.502.338 13.077 8.351 13.972 38.912l-.082 101.148h41.58v-101.755c-1.36-46.059-21.912-65.51-31.89-72.326-17.103-18.236-26.618-41.888-26.618-66.962 0-53.997 43.948-97.955 97.956-97.955 26.061 0 50.558 10.163 69.041 28.533 4.366 5.365 20.667 24.085 43.073 30.53l2.81.8h71.194v-41.549h-64.274c-9.215-3.522-18.7-13.499-21.459-17.02l-.79-.989-.918-.968c-26.37-26.36-61.4-40.879-98.675-40.879-76.898 0-139.504 62.585-139.504 139.493M2878.791-1628.797c21.861 38.913 15.662 40.952 15.662 40.952-2.43 4.84-8.64 6.693-13.86 4.087l-76.723-38.18c-2.625-1.278-4.51-3.47-5.416-5.932v-2.368c.906-2.481 2.79-4.644 5.416-5.931l76.724-38.212c5.22-2.606 11.43-.742 13.86 4.098 0 0 6.425 4.335-15.384 39.232" style="fill:#000;fill-opacity:1;fill-rule:nonzero;stroke:none"/>
    <path d="M3335.608-1730.768c-21.82 38.923-15.652 41.003-15.652 41.003 2.43 4.84 8.609 6.673 13.86 4.057l76.724-38.171c2.604-1.267 4.51-3.47 5.416-5.931v-2.369c-.906-2.48-2.812-4.643-5.416-5.93l-76.724-38.203c-5.251-2.584-11.43-.75-13.86 4.11 0 0-6.446 4.303 15.415 39.19M2875.208-1609.582c77.578 4.294 119.28 62.472 126.447 73.417 2.925 10.122 4.336 39.994 4.336 71.194 0 10.41-.14 20.955-.453 30.84l41.517 1.256c.486-15.415 2.378-93.518-6.528-118.683l-.676-1.957-1.06-1.802c-2.235-3.687-55.11-89.862-161.293-95.763" style="fill:#000;fill-opacity:1;fill-rule:nonzero;stroke:none"/>
  </g>
</svg>
