<svg xmlns="http://www.w3.org/2000/svg" viewBox="0 0 815.864 815.864" role="img" aria-labelledby="title">
  <title id="title">Verkehrszeichen MR-WDAD-8-WA - Roundabout Directional Lanes (used in WA)</title>
  <g transform="translate(-2681.77 2098.614)">
    <rect width="600" height="600" x="689.256" y="-3680.242" rx="40" ry="40" style="fill:#fee011;fill-opacity:1;stroke:none;stroke-width:8;stroke-linejoin:miter;stroke-miterlimit:4;stroke-dasharray:none;stroke-dashoffset:0;stroke-opacity:1" transform="rotate(45)"/>
    <rect width="584" height="584" x="697.256" y="-3672.242" rx="32" ry="32" style="fill:#000;fill-opacity:1;stroke:none;stroke-width:8;stroke-linejoin:miter;stroke-miterlimit:4;stroke-dasharray:none;stroke-dashoffset:0;stroke-opacity:1" transform="rotate(45)"/>
    <rect width="552" height="552" x="713.256" y="-3656.242" rx="16" ry="16" style="fill:#fee011;fill-opacity:1;stroke:none;stroke-width:8;stroke-linejoin:miter;stroke-miterlimit:4;stroke-dasharray:none;stroke-dashoffset:0;stroke-opacity:1" transform="rotate(45)"/>
    <path d="M3162.776-1650.87c0 27.37-22.21 49.58-49.62 49.58-27.401 0-49.601-22.21-49.601-49.58 0-27.451 22.2-49.642 49.6-49.642 27.41 0 49.62 22.19 49.62 49.642" style="fill:#000;fill-opacity:1;fill-rule:nonzero;stroke:none"/>
    <path d="M2991.332-1650.87c0 32.62 12.779 63.306 35.947 86.35 5.56 5.447 11.604 14.487 11.604 18.946v72.862h35.236v-72.861c0-21.645-18.472-40.56-22.169-44.133-16.28-16.177-25.34-37.975-25.34-61.164 0-47.757 38.83-86.617 86.545-86.617 29.954 0 57.364 15.167 73.345 40.538l1.05 1.648 1.35 1.38c5.354 5.416 33.64 32.384 62.367 30.86h51.959v-35.247h-52.885c-10.636.527-27.874-11.924-36.451-20.49l2.42 3.058c-22.458-35.69-61.01-56.983-103.155-56.983-67.156 0-121.823 54.635-121.823 121.833" style="fill:#000;fill-opacity:1;fill-rule:nonzero;stroke:none"/>
    <path d="M2914.59-1660.322c0 40.075 12.006 78.616 34.69 111.453l.658.937.808.896c7.074 7.805 13.829 18.73 14.189 22.921l-.082 45.533h35.236v-46.985c-1.534-19.255-17.01-38.057-22.015-43.7-18.462-26.844-28.234-58.311-28.234-91.055 0-88.77 72.213-160.962 160.972-160.962 39.468 0 77.33 14.457 106.768 40.611 5.427 7.332 26.083 32.878 53.73 35.236l1.35.116 16.546-1.174-2.502-35.143s-9.679.692-12.923.906c-10.894-1.329-24.352-15.693-29.253-22.633l-1.153-1.596-1.494-1.38c-36.049-32.353-82.59-50.187-131.069-50.187-108.2 0-196.229 88.008-196.229 196.208" style="fill:#000;fill-opacity:1;fill-rule:nonzero;stroke:none"/>
    <path d="m2869.52-1632.49 8.114 34.3c.33-.083 34.896-7.652 53.019 14.816l27.461-22.097c-32.198-39.983-86.33-27.564-88.594-27.02" style="fill:#000;fill-opacity:1;fill-rule:nonzero;stroke:none"/>
    <path d="M2877.654-1617.992c19.163 34.145 13.736 35.947 13.736 35.947-2.12 4.273-7.568 5.879-12.15 3.583l-67.342-33.517a9.6 9.6 0 0 1-4.757-5.19v-2.09a9.57 9.57 0 0 1 4.757-5.189l67.342-33.506c4.582-2.297 10.03-.7 12.15 3.573 0 0 5.664 3.789-13.51 34.391M3288.172-1762.705c-19.183 34.165-13.746 35.947-13.746 35.947 2.12 4.273 7.568 5.9 12.15 3.614l67.342-33.527c2.275-1.133 3.933-3.058 4.746-5.19v-2.11c-.815-2.132-2.471-4.036-4.746-5.2l-67.342-33.496c-4.582-2.276-10.03-.659-12.15 3.593 0 0-5.643 3.79 13.52 34.392M3290.499-1678.085c-19.152 34.135-13.726 35.936-13.726 35.936 2.132 4.243 7.579 5.87 12.16 3.584l67.312-33.506c2.307-1.154 3.964-3.038 4.746-5.2v-2.08c-.782-2.162-2.44-4.078-4.746-5.21l-67.311-33.517c-4.582-2.307-10.03-.667-12.16 3.594 0 0-5.654 3.79 13.519 34.392" style="fill:#000;fill-opacity:1;fill-rule:nonzero;stroke:none"/>
  </g>
</svg>
