<svg xmlns="http://www.w3.org/2000/svg" xml:space="preserve" viewBox="-1 0 121.981 121.981" role="img" aria-labelledby="title">
  <title id="title">Verkehrszeichen MR-WDO-1 - Road Hump with Advisory Speed (used in WA)</title>
  <path d="M121.914 239.552 89.25 206.885v-46.224l32.664-32.679h46.188l32.699 32.679v46.224l-32.699 32.667z" style="fill:none;stroke:none" transform="translate(62.647 554.807)scale(1.17193)"/>
  <path d="m119.212 65.23-54.981 54.982a6.005 6.005 0 0 1-8.513 0L.738 65.231c-2.317-2.354-2.317-6.154 0-8.513l54.98-54.98c2.36-2.317 6.16-2.317 8.513 0l54.981 54.98a6.005 6.005 0 0 1 0 8.513" style="fill:#fee011;fill-opacity:1;fill-rule:evenodd;stroke:none"/>
  <path d="m118.452 64.245-55.171 55.17a4.63 4.63 0 0 1-6.575 0L1.497 64.246c-1.826-1.827-1.826-4.75 0-6.613L56.706 2.461a4.63 4.63 0 0 1 6.575 0l55.171 55.171c1.826 1.863 1.826 4.786 0 6.613" style="fill:#000;fill-opacity:1;fill-rule:evenodd;stroke:none"/>
  <path d="m116.858 62.535-55.287 55.287c-.913.913-2.28.913-3.193 0L3.091 62.535c-.87-.913-.87-2.28 0-3.157L58.378 4.055a2.267 2.267 0 0 1 3.193 0l55.287 55.323c.913.877.913 2.244 0 3.157" style="fill:#fee011;fill-opacity:1;fill-rule:evenodd;stroke:none"/>
  <path d="M98.13 50.322v-6.27H85.247C80.645 34.743 71.035 28.32 59.978 28.32c-11.062 0-20.635 6.423-25.232 15.732H21.858v6.27z" style="fill:#000;fill-opacity:1;fill-rule:evenodd;stroke:none"/>
  <path d="M35.184 92.82V80.822l2.47-.962v6.271l2.469-3.033h3.121L40.6 86.336l2.644 6.484h-2.547l-1.799-4.424-1.245 1.614v2.81zM47.192 92.82v-9.722h2.45v.553c.564-.349 1.76-.641 2.343-.641 1.109 0 1.945.321 2.587 1.177.71-.875 2.187-1.177 3.042-1.177 1.73 0 3.384 1.78 3.384 3.267v6.543H58.49v-5.95c0-.856-.68-1.478-1.652-1.478-1.06 0-1.614.836-1.614 1.702v5.726h-2.247v-5.726c0-.856-.651-1.78-1.7-1.78-1.022 0-1.634.914-1.634 1.556v5.95zM76.607 92.82V80.871l2.45-1.011v3.957c.798-.768 1.692-.807 2.392-.807 1.45 0 3.315 1.42 3.315 3.578v6.232h-2.479v-5.416c0-.981-.7-1.837-1.37-1.866-1.45 0-1.858.534-1.858 1.925v5.357z" style="fill:#000;fill-opacity:1;fill-rule:nonzero;stroke:none"/>
  <path d="m66.038 92.822 7.85-13.537h-2.32l-7.851 13.537zM70.083 74.545c3.644 0 5.176-3.342 5.176-7.42 0-4.097-1.617-7.418-5.176-7.418s-5.175 3.321-5.175 7.419c0 4.077 1.53 7.419 5.175 7.419m0 3.777c-6.275 0-8.929-5.028-8.929-11.196s2.804-11.214 8.929-11.214c6.124 0 8.929 5.045 8.929 11.214 0 6.168-2.653 11.196-8.93 11.196M40.937 59.324c2.2-2.05 5.65-3.407 8.605-3.407 4.14 0 8.476 2.112 8.476 6.728 0 3.386-3.17 5.543-5.09 5.866-4.507.733-6.816 3.623-7.31 5.564h12.508v3.84H41.023c0-5.414 3.214-10.18 7.937-12.164 2.587-1.122 5.37-.647 5.37-3.43 0-1.315-2.179-2.652-4.443-2.652-2.005 0-4.917.669-6.47 2.458z" style="fill:#000;fill-opacity:1;fill-rule:evenodd;stroke:none"/>
</svg>
