<svg xmlns="http://www.w3.org/2000/svg" viewBox="0 0 815.864 815.864" role="img" aria-labelledby="title">
  <title id="title">Verkehrszeichen MR-WDAD-15-WA - Roundabout Directional Lanes (used in WA)</title>
  <g transform="translate(-2681.97 2098.814)">
    <rect width="600" height="600" x="689.256" y="-3680.525" rx="40" ry="40" style="fill:#fee011;fill-opacity:1;stroke:none;stroke-width:8;stroke-linejoin:miter;stroke-miterlimit:4;stroke-dasharray:none;stroke-dashoffset:0;stroke-opacity:1" transform="rotate(45)"/>
    <rect width="584" height="584" x="697.256" y="-3672.525" rx="32" ry="32" style="fill:#000;fill-opacity:1;stroke:none;stroke-width:8;stroke-linejoin:miter;stroke-miterlimit:4;stroke-dasharray:none;stroke-dashoffset:0;stroke-opacity:1" transform="rotate(45)"/>
    <rect width="552" height="552" x="713.256" y="-3656.524" rx="16" ry="16" style="fill:#fee011;fill-opacity:1;stroke:none;stroke-width:8;stroke-linejoin:miter;stroke-miterlimit:4;stroke-dasharray:none;stroke-dashoffset:0;stroke-opacity:1" transform="rotate(45)"/>
    <path d="M3050.595-1665.833c0 31.364 24.888 56.9 55.47 56.9 30.603 0 55.49-25.536 55.49-56.9 0-31.385-24.887-56.911-55.49-56.911-30.582 0-55.47 25.526-55.47 56.91" style="fill:#000;fill-opacity:1;fill-rule:nonzero;stroke:none"/>
    <path d="M2984.057-1665.833c0 33.599 12.768 65.159 35.936 88.862 5.58 5.612 10.328 13.85 10.328 16.702v80.192h41.136v-80.192c0-22.89-18.782-42.763-22.54-46.511-15.26-15.63-23.703-36.627-23.703-59.053 0-46.007 36.245-83.446 80.851-83.446 27.935 0 53.523 14.57 68.443 38.984l.404.626 1.297 1.832 1.02 1.092c5.539 5.694 34.278 33.61 63.49 32.023l57.57.082v-41.929h-58.661c-8.794.462-25.022-11.244-33.012-19.492l-.082.082c-22.798-34.392-59.805-55.14-100.498-55.14-67.28 0-122.008 56.231-122.008 125.355" style="fill:#000;fill-opacity:1;fill-rule:nonzero;stroke:none"/>
    <path d="M2909.342-1675.234c0 40.765 11.862 80.007 34.32 113.451l1.153 1.607.618.659c6.487 7.393 12.666 17.937 12.913 20.995l-.082 52.576h41.146v-54.295c-1.535-20.059-16.239-38.975-22.488-46.203-17.114-25.66-26.433-56.613-26.433-88.79 0-87.143 68.774-158.027 153.3-158.027 37.41 0 73.49 14.138 101.57 39.787 4.9 7.033 26.277 33.764 54.378 36.204l.568.082 1.617.082 22.93-1.678-2.892-41.805-20.296 1.482c-7.547-.968-20.12-14.323-24.877-21.243l-.412-.626-1.441-1.802-1.154-1.08c-35.771-33.074-81.911-51.259-129.988-51.259-107.221 0-194.447 89.696-194.447 199.956" style="fill:#000;fill-opacity:1;fill-rule:nonzero;stroke:none"/>
    <path d="m2868.062-1650.594-6.94 1.658 9.4 40.776 7.055-1.627c.33-.082 31.9-7.084 48.086 13.633l4.54 5.808 31.932-26.433-4.294-5.488c-31.9-40.775-83.961-29.717-89.779-28.327" style="fill:#000;fill-opacity:1;fill-rule:nonzero;stroke:none"/>
    <path d="M2876.794-1632.831c18.647 34.206 13.365 35.998 13.365 35.998-2.08 4.283-7.352 5.9-11.82 3.624l-65.54-33.599a9.6 9.6 0 0 1-4.644-5.19v-2.13c.782-2.133 2.41-4.048 4.643-5.19l65.54-33.589c4.47-2.306 9.741-.675 11.821 3.593 0 0 5.509 3.79-13.15 34.485M3276.448-1777.832c-18.679 34.206-13.407 36.018-13.407 36.018 2.1 4.263 7.393 5.88 11.852 3.584l65.54-33.59c2.255-1.111 3.83-3.058 4.613-5.189v-2.111a9.42 9.42 0 0 0-4.613-5.2l-65.54-33.588c-4.459-2.297-9.751-.66-11.852 3.593 0 0-5.467 3.78 13.18 34.495M3081.795-1924.08c33.249 19.214 35 13.777 35 13.777 4.149-2.13 5.725-7.609 3.51-12.191l-32.64-67.455a9.46 9.46 0 0 0-5.046-4.768h-2.04c-2.1.824-3.963 2.45-5.065 4.768l-32.641 67.455c-2.214 4.582-.651 10.06 3.521 12.191 0 0 3.666 5.654 33.486-13.55M3278.713-1693.068c-18.637 34.195-13.365 36.008-13.365 36.008 2.08 4.263 7.383 5.89 11.82 3.583l65.55-33.589c2.246-1.121 3.821-3.016 4.645-5.178v-2.122c-.824-2.12-2.4-4.047-4.644-5.2l-65.55-33.568c-4.438-2.286-9.741-.675-11.821 3.615 0 0-5.488 3.778 13.17 34.453" style="fill:#000;fill-opacity:1;fill-rule:nonzero;stroke:none"/>
    <path d="m3058.915-1936.004 1 7.023c.304 2.152 6.919 53.09-44.144 75.981l-6.425 2.872 16.29 38.47 6.703-2.996c63.974-28.687 72.624-91.386 68.279-120.526l-1.092-7.146" style="fill:#000;fill-opacity:1;fill-rule:nonzero;stroke:none"/>
  </g>
</svg>
