<svg xmlns="http://www.w3.org/2000/svg" viewBox="0 0 815.864 815.864" role="img" aria-labelledby="title">
  <title id="title">Verkehrszeichen MR-WDAD-18-WA - Roundabout Directional Lanes (used in WA)</title>
  <g transform="translate(-2682.17 2099.014)">
    <rect width="600" height="600" x="689.256" y="-3680.807" rx="40" ry="40" style="fill:#fee011;fill-opacity:1;stroke:none;stroke-width:8;stroke-linejoin:miter;stroke-miterlimit:4;stroke-dasharray:none;stroke-dashoffset:0;stroke-opacity:1" transform="rotate(45)"/>
    <rect width="584" height="584" x="697.256" y="-3672.807" rx="32" ry="32" style="fill:#000;fill-opacity:1;stroke:none;stroke-width:8;stroke-linejoin:miter;stroke-miterlimit:4;stroke-dasharray:none;stroke-dashoffset:0;stroke-opacity:1" transform="rotate(45)"/>
    <rect width="552" height="552" x="713.256" y="-3656.807" rx="16" ry="16" style="fill:#fee011;fill-opacity:1;stroke:none;stroke-width:8;stroke-linejoin:miter;stroke-miterlimit:4;stroke-dasharray:none;stroke-dashoffset:0;stroke-opacity:1" transform="rotate(45)"/>
    <path d="M3207.73-1674.168c0 28.192-22.89 51.062-51.052 51.062-28.203 0-51.073-22.87-51.073-51.062 0-28.193 22.87-51.052 51.073-51.052 28.162 0 51.053 22.86 51.053 51.052" style="fill:#000;fill-opacity:1;fill-rule:nonzero;stroke:none"/>
    <path d="M3029.71-1674.168c0 36.052 15.421 70.542 42.298 94.615l-2.599-2.846c5.291 7.059 12.412 21.237 11.014 29.323l-.304 1.695v125.047h39.494v-123.32l-.296 3.43c4.984-28.243-15.996-56.836-18.39-60l-1.151-1.521-1.418-1.264c-18.503-16.572-29.097-40.337-29.097-65.16 0-48.236 39.197-87.484 87.424-87.484 25.13 0 49.05 10.86 65.683 29.764l-2.003-2.733c8.774 14.374 31.47 36.176 62.076 31.84h49.543v-39.504h-51.741l-2.045.444c-13.552 2.938-24.145-13.377-24.227-13.553l-.842-1.283-1.079-1.274c-24.124-27.464-58.861-43.193-95.365-43.193-69.988 0-126.969 56.96-126.969 126.978" style="fill:#000;fill-opacity:1;fill-rule:nonzero;stroke:none"/>
    <path d="M3016.035-1884.512v36.248c0 26.373-10.531 37.9-11.004 38.394-33.73 38.025-51.884 85.933-51.884 135.702 0 46.624 16.171 92.2 45.555 128.304l-1.849-2.692c.091.197 10.706 19.182 10.706 37.573v83.406h39.504v-83.406c0-28.583-14.27-54.34-15.884-57.176l-.822-1.397-1.037-1.243c-23.662-29.097-36.68-65.827-36.68-103.37 0-40.11 14.652-78.7 41.2-108.69l-1.11 1.181c2.312-2.24 22.82-23.117 22.82-66.586v-36.248" style="fill:#000;fill-opacity:1;fill-rule:nonzero;stroke:none"/>
    <path d="M3036.84-1884.296c-35.148 19.737-36.977 14.148-36.977 14.148-4.377-2.21-6.072-7.788-3.699-12.525l34.491-69.279c1.16-2.342 3.133-4.048 5.343-4.87h2.167c2.189.822 4.141 2.528 5.312 4.87l34.48 69.28c2.364 4.736.707 10.314-3.678 12.524 0 0-3.914 5.804-35.384-13.912M3331.802-1722.97c-15.34 27.319-11.003 28.788-11.003 28.788 1.705 3.421 6.05 4.705 9.74 2.876l53.908-26.846a7.66 7.66 0 0 0 3.812-4.15v-1.676a7.67 7.67 0 0 0-3.812-4.16l-53.908-26.836c-3.69-1.83-8.035-.535-9.74 2.856 0 0-4.5 3.03 10.818 27.555" style="fill:#000;fill-opacity:1;fill-rule:nonzero;stroke:none"/>
  </g>
</svg>
