<svg xmlns="http://www.w3.org/2000/svg" viewBox="0 0 1021.33 1021.33" role="img" aria-labelledby="title">
  <title id="title">Verkehrszeichen MR-WDO-13-WA - Strong Cross Winds (used in WA)</title>
  <g transform="translate(0 442.66)">
    <rect width="750" height="750" x="-61.992" y="34.181" rx="50" ry="50" style="fill:#fddc04;fill-opacity:1;fill-rule:evenodd;stroke:none;stroke-width:5.67811;stroke-linecap:round;stroke-linejoin:round" transform="rotate(-45)"/>
    <rect width="730" height="730" x="-51.992" y="44.181" rx="40" ry="40" style="fill:#000;fill-rule:evenodd;stroke:none;stroke-width:5.52669;stroke-linecap:round;stroke-linejoin:round" transform="rotate(-45)"/>
    <rect width="690" height="690" x="-31.992" y="64.181" rx="20" ry="20" style="fill:#fddc04;fill-opacity:1;fill-rule:evenodd;stroke:none;stroke-width:5.22386;stroke-linecap:round;stroke-linejoin:round" transform="rotate(-45)"/>
    <path d="M335.225-60.802q0 14.18-9.85 22.836-8.807 7.761-21.792 7.761-12.537 0-22.09-7.015-9.104-6.567-14.328-18.209L282.24-61.1q6.567 14.777 21.343 14.777 6.866 0 11.194-4.18t4.328-10.597q0-8.507-9.403-13.432-9.552-3.583-19.104-7.314-19.254-7.761-19.254-24.925 0-26.866 31.194-26.866 20.299 0 28.508 20.299l-14.03 4.179q-1.343-2.388-3.284-4.18-4.477-4.328-11.492-4.626-6.567-.15-10.747 2.238-5.223 3.135-4.776 9.403.597 7.165 13.284 11.344 18.657 6.268 22.985 9.104 12.239 8.21 12.239 25.075M405.657-117.965h-23.135v85.97h-15.82v-85.97h-22.837v-14.03h61.792zM488.493-31.995h-17.165L455.21-75.428h-18.955v43.433h-15.821v-100h32.985q11.045 0 17.761 3.283 6.717 3.135 10.896 10.15 4.328 7.015 4.328 14.627 0 7.91-4.328 15.074-4.329 7.015-11.194 10.15zm-17.91-71.94q0-8.359-8.36-11.493-2.089-.746-7.014-.746h-18.955v24.627h18.955q5.82 0 9.105-1.791 6.268-3.582 6.268-10.597M574.015-81.847q0 27.91-11.94 41.94-8.508 9.702-23.134 9.702-19.851 0-28.657-17.91-7.015-14.329-7.015-33.732 0-25.82 10.895-40.597 8.21-11.194 25.523-11.194 18.806 0 27.761 17.761 6.567 13.433 6.567 34.03m-15.671 0q0-17.91-5.97-28.06-4.329-7.164-12.986-7.612-10.895-.597-16.12 12.24-3.88 9.551-3.88 23.432 0 17.91 5.97 27.761 4.627 7.762 13.583 7.762 10.447 0 15.522-12.687 3.88-9.702 3.88-22.836M664.314-31.995h-14.03l-38.21-67.761v67.761h-15.82v-100h15.82l36.419 63.88v-63.88h15.82zM754.165-61.847q0 13.732-8.956 22.687t-22.686 8.955q-21.045 0-29.851-18.209-6.567-14.03-6.567-33.433 0-12.09 2.985-23.134 3.134-11.045 8.209-17.463 8.806-11.194 25.671-11.194 11.493 0 18.806 5.224 7.314 5.075 12.389 16.866l-15.075 5.97q-3.284-6.717-6.866-9.254-3.582-2.687-9.254-2.687-11.94 0-16.865 12.24-3.88 9.552-3.88 23.432 0 18.06 4.925 27.463 4.179 8.06 13.582 8.06 7.76 0 12.686-4.329t4.926-11.194v-4.179h-18.21v-15.82h34.03z" style="font-size:149.254px;line-height:1.25;font-family:&quot;Roadgeek 2000 Series D&quot;;-inkscape-font-specification:&quot;Roadgeek 2000 Series D&quot;;text-align:center;text-anchor:middle;fill:#000;fill-rule:evenodd;stroke:none;stroke-width:.777354"/>
    <path d="M376.225 97.705q-8.955 22.09-30.15 22.09-21.343 0-30.597-17.91-7.313-14.329-7.313-34.03 0-26.418 11.194-40.299 8.955-11.194 25.672-11.194 21.492 0 31.194 20.299l-14.776 6.268q-4.18-6.268-7.463-8.358t-8.955-2.09q-11.94 0-16.866 12.24-3.88 9.552-3.88 23.134 0 18.06 6.268 28.06 4.925 7.76 15.075 7.76 10 0 15.522-11.641zM465.926 118.005h-17.164l-16.12-43.433h-18.954v43.433h-15.821v-100h32.985q11.045 0 17.761 3.283 6.716 3.135 10.896 10.15 4.328 7.015 4.328 14.627 0 7.91-4.328 15.074-4.329 7.015-11.195 10.15zm-17.91-71.94q0-8.359-8.358-11.493-2.09-.746-7.015-.746h-18.955v24.627h18.955q5.82 0 9.104-1.791 6.269-3.582 6.269-10.597M551.449 68.153q0 27.91-11.94 41.94-8.508 9.702-23.135 9.702-19.85 0-28.656-17.91-7.015-14.329-7.015-33.732 0-25.82 10.895-40.597 8.21-11.194 25.523-11.194 18.806 0 27.76 17.761 6.568 13.433 6.568 34.03m-15.672 0q0-17.91-5.97-28.06-4.328-7.164-12.985-7.612-10.895-.597-16.12 12.24-3.88 9.552-3.88 23.432 0 17.91 5.97 27.761 4.627 7.762 13.582 7.762 10.448 0 15.523-12.687 3.88-9.701 3.88-22.836M634.855 89.198q0 14.18-9.85 22.836-8.807 7.761-21.792 7.761-12.537 0-22.09-7.015-9.104-6.567-14.328-18.209L581.87 88.9q6.567 14.777 21.343 14.777 6.866 0 11.194-4.18t4.328-10.597q0-8.507-9.403-13.432-9.552-3.582-19.104-7.314-19.254-7.761-19.254-24.925 0-26.866 31.194-26.866 20.299 0 28.508 20.299l-14.03 4.179q-1.343-2.388-3.284-4.18-4.477-4.328-11.492-4.626-6.568-.15-10.747 2.238-5.224 3.135-4.776 9.403.597 7.165 13.284 11.344 18.657 6.268 22.985 9.104 12.239 8.21 12.239 25.075M713.165 89.198q0 14.18-9.85 22.836-8.807 7.761-21.792 7.761-12.537 0-22.09-7.015-9.104-6.567-14.328-18.209L660.18 88.9q6.567 14.777 21.343 14.777 6.866 0 11.194-4.18t4.329-10.597q0-8.507-9.403-13.432-9.553-3.582-19.105-7.314-19.254-7.761-19.254-24.925 0-26.866 31.194-26.866 20.299 0 28.508 20.299l-14.03 4.179q-1.343-2.388-3.284-4.18-4.477-4.328-11.492-4.626-6.567-.15-10.746 2.238-5.224 3.135-4.777 9.403.597 7.165 13.284 11.344 18.657 6.268 22.985 9.104 12.239 8.21 12.239 25.075M405.971 168.005l-14.776 100h-14.03l-15.82-64.18-15.374 64.18h-14.03l-14.776-100h16.12l7.76 52.687 12.687-52.687h15.373l12.985 52.687 7.762-52.687zM437.449 268.005h-16.12v-100h16.12zM529.389 268.005h-14.03l-38.209-67.761v67.761h-15.82v-100h15.82l36.418 63.88v-63.88h15.821zM621.33 217.856q0 30.298-17.613 44.477-6.268 5.224-14.328 5.672H553.27v-100h32.238q7.015 0 10.15.746 5.074 1.045 9.104 4.627 16.567 13.88 16.567 44.478m-16.12 0q0-12.687-3.284-21.344-4.627-12.686-15.074-12.686H569.09v68.06h15.672q7.463 0 11.343-3.88 9.105-9.105 9.105-30.15M704.165 239.198q0 14.18-9.85 22.836-8.807 7.761-21.792 7.761-12.537 0-22.09-7.015-9.104-6.567-14.328-18.209l15.075-5.671q6.567 14.776 21.343 14.776 6.866 0 11.194-4.18t4.329-10.596q0-8.508-9.403-13.433-9.553-3.582-19.105-7.314-19.254-7.761-19.254-24.925 0-26.866 31.195-26.866 20.298 0 28.507 20.299l-14.03 4.179q-1.343-2.388-3.283-4.18-4.478-4.328-11.493-4.626-6.567-.15-10.746 2.239-5.224 3.134-4.776 9.403.597 7.164 13.283 11.343 18.657 6.269 22.985 9.104 12.24 8.21 12.24 25.075" style="font-size:149.254px;line-height:1.25;font-family:&quot;Roadgeek 2000 Series D&quot;;-inkscape-font-specification:&quot;Roadgeek 2000 Series D&quot;;text-align:center;text-anchor:middle;fill:#000;fill-rule:evenodd;stroke:none;stroke-width:.777364"/>
  </g>
</svg>
