<svg xmlns="http://www.w3.org/2000/svg" viewBox="0 0 815.864 815.864" role="img" aria-labelledby="title">
  <title id="title">Verkehrszeichen MR-WDAD-7-WA - Roundabout Directional Lanes (used in WA)</title>
  <g transform="translate(-2681.97 2098.814)">
    <rect width="600" height="600" x="689.256" y="-3680.525" rx="40" ry="40" style="fill:#fee011;fill-opacity:1;stroke:none;stroke-width:8;stroke-linejoin:miter;stroke-miterlimit:4;stroke-dasharray:none;stroke-dashoffset:0;stroke-opacity:1" transform="rotate(45)"/>
    <rect width="584" height="584" x="697.256" y="-3672.525" rx="32" ry="32" style="fill:#000;fill-opacity:1;stroke:none;stroke-width:8;stroke-linejoin:miter;stroke-miterlimit:4;stroke-dasharray:none;stroke-dashoffset:0;stroke-opacity:1" transform="rotate(45)"/>
    <rect width="552" height="552" x="713.256" y="-3656.524" rx="16" ry="16" style="fill:#fee011;fill-opacity:1;stroke:none;stroke-width:8;stroke-linejoin:miter;stroke-miterlimit:4;stroke-dasharray:none;stroke-dashoffset:0;stroke-opacity:1" transform="rotate(45)"/>
    <path d="M3252.545-1731.32c.082.09.165.263.165.263zm-242.132 65.406c0 45.46 24.249 87.76 63.15 111.217.215 1.7.404 3.85.404 7.3 0 2.513-.09 5.52-.33 9.175l-.081 84.301h35.431v-83.127c1.473-21.418-1.112-35.113-8.155-41.98l-1.689-1.669-6.229-3.45c-29.069-16.896-47.119-48.23-47.119-81.767 0-52.093 42.424-94.496 94.515-94.496 33.507 0 63.77 17.155 81.058 45.884l-.906-1.74c1.565 3.398 16.96 32.898 75.703 20.305l-7.434-34.639c-24.548 5.252-34.948.355-36.905-2.018l-.09-.165c-23.386-38.901-66.066-63.058-111.424-63.058-71.636 0-129.937 58.29-129.937 129.927" style="fill:#000;fill-opacity:1;fill-rule:nonzero;stroke:none"/>
    <path d="M2979.635-1857.922v50.476c-2.79 5.663-7.506 10.472-9.35 11.873l-1.997 1.524-1.627 2.069c-25.773 34.433-39.406 75.467-39.406 118.59 0 45.358 15.702 89.666 44.256 124.83l1.78 2.162 2.699 1.74c.362.24 9.319 6.179 10.204 18.7 0 .082.1 2.213.1 2.213v71.482h35.42v-71.482l-.189-4.777c-1.781-25.001-16.444-38.573-23.467-43.772-22.756-28.636-35.4-64.418-35.4-101.096 0-34.876 10.955-68.011 31.498-95.978 4.87-4.129 14.56-13.602 19.76-27.503l1.153-2.965v-58.086M3071.947-1759.853h35.422v-94.742h-35.422zM3191.072-1668.385c0 27.523-22.333 49.847-49.878 49.847-27.534 0-49.879-22.324-49.879-49.847 0-27.545 22.345-49.89 49.879-49.89 27.545 0 49.878 22.345 49.878 49.89" style="fill:#000;fill-opacity:1;fill-rule:nonzero;stroke:none"/>
    <path d="M3088.443-1852.917c-34.32 19.245-36.153 13.788-36.153 13.788-4.273-2.122-5.9-7.61-3.604-12.244l33.702-67.671c1.143-2.296 3.058-3.944 5.2-4.757h2.121a9.7 9.7 0 0 1 5.221 4.757l33.692 67.671c2.296 4.634.659 10.122-3.604 12.244 0 0-3.82 5.673-34.588-13.592M3282.273-1711.437c-19.255 34.32-13.809 36.173-13.809 36.173 2.163 4.232 7.62 5.87 12.212 3.593l67.692-33.701c2.318-1.153 3.955-3.068 4.778-5.221v-2.121c-.824-2.152-2.46-4.057-4.778-5.21l-67.692-33.702c-4.592-2.296-10.05-.659-12.212 3.625 0 0-5.673 3.789 13.623 34.566M2997.49-1855.295c-34.31 19.265-36.142 13.787-36.142 13.787-4.264-2.131-5.89-7.589-3.594-12.212l33.671-67.682a9.82 9.82 0 0 1 5.22-4.768h2.112a9.68 9.68 0 0 1 5.24 4.768l33.682 67.682c2.307 4.623.676 10.08-3.615 12.212 0 0-3.799 5.684-34.577-13.592" style="fill:#000;fill-opacity:1;fill-rule:nonzero;stroke:none"/>
  </g>
</svg>
