<svg xmlns="http://www.w3.org/2000/svg" viewBox="0 0 815.864 815.864" role="img" aria-labelledby="title">
  <title id="title">Verkehrszeichen MR-WDAD-16-WA - Roundabout Directional Lanes (used in WA)</title>
  <g transform="translate(-2681.77 2098.614)">
    <rect width="600" height="600" x="689.256" y="-3680.242" rx="40" ry="40" style="fill:#fee011;fill-opacity:1;stroke:none;stroke-width:8;stroke-linejoin:miter;stroke-miterlimit:4;stroke-dasharray:none;stroke-dashoffset:0;stroke-opacity:1" transform="rotate(45)"/>
    <rect width="584" height="584" x="697.256" y="-3672.242" rx="32" ry="32" style="fill:#000;fill-opacity:1;stroke:none;stroke-width:8;stroke-linejoin:miter;stroke-miterlimit:4;stroke-dasharray:none;stroke-dashoffset:0;stroke-opacity:1" transform="rotate(45)"/>
    <rect width="552" height="552" x="713.256" y="-3656.242" rx="16" ry="16" style="fill:#fee011;fill-opacity:1;stroke:none;stroke-width:8;stroke-linejoin:miter;stroke-miterlimit:4;stroke-dasharray:none;stroke-dashoffset:0;stroke-opacity:1" transform="rotate(45)"/>
    <path d="M3197.303-1694.032c0 31.932-25.911 57.833-57.823 57.833-31.932 0-57.844-25.9-57.844-57.833 0-31.932 25.912-57.844 57.844-57.844 31.912 0 57.823 25.912 57.823 57.844" style="fill:#000;fill-opacity:1;fill-rule:nonzero;stroke:none"/>
    <path d="M3068.588-1919.407v77.653c.884 21.431-13.644 32.425-14.25 32.887-36.35 27.165-57.834 69.978-57.834 114.835 0 38.333 14.98 74.334 42.197 101.386 6.35 6.206 13.222 16.572 13.222 21.421v119.274h42.998v-119.274c0-25.644-21.781-47.96-26.148-52.162-18.802-18.668-29.261-43.85-29.261-70.645 0-31.84 14.63-61.029 40.183-80.108 12.133-8.405 33.36-32.857 31.88-68.509v-76.758M2864.933-1655.679c22.347 39.813 15.997 41.919 15.997 41.919-2.466 4.973-8.795 6.853-14.148 4.182l-78.484-39.083c-2.671-1.305-4.603-3.545-5.548-6.041v-2.446c.945-2.517 2.877-4.736 5.548-6.052l78.484-39.092c5.353-2.641 11.682-.748 14.148 4.201 0 0 6.617 4.408-15.73 40.101" style="fill:#000;fill-opacity:1;fill-rule:nonzero;stroke:none"/>
    <path d="M3089.62-1918.164c39.802 22.347 41.908 16.038 41.908 16.038 4.952-2.507 6.833-8.846 4.171-14.199l-39.062-78.464c-1.325-2.692-3.545-4.613-6.062-5.548h-2.425c-2.527.935-4.726 2.856-6.062 5.548l-39.062 78.464c-2.681 5.353-.79 11.692 4.182 14.2 0 0 4.407 6.543 40.1-15.772M2839.237-1675.6l7.788 42.268c4.366-.756 106.359-17.096 142.483 101.92v80.838h43.008v-87.67l-.853-2.939c-46.532-159.733-190.977-134.684-192.426-134.417" style="fill:#000;fill-opacity:1;fill-rule:nonzero;stroke:none"/>
  </g>
</svg>
