<svg xmlns="http://www.w3.org/2000/svg" viewBox="0 0 815.864 815.864" role="img" aria-labelledby="title">
  <title id="title">Verkehrszeichen MR-WDAD-5-WA - Roundabout Directional Lanes (used in WA and Darwin, Northern Territory)</title>
  <g transform="translate(-2681.77 2098.614)">
    <rect width="600" height="600" x="689.256" y="-3680.242" rx="40" ry="40" style="fill:#fee011;fill-opacity:1;stroke:none;stroke-width:8;stroke-linejoin:miter;stroke-miterlimit:4;stroke-dasharray:none;stroke-dashoffset:0;stroke-opacity:1" transform="rotate(45)"/>
    <rect width="584" height="584" x="697.256" y="-3672.242" rx="32" ry="32" style="fill:#000;fill-opacity:1;stroke:none;stroke-width:8;stroke-linejoin:miter;stroke-miterlimit:4;stroke-dasharray:none;stroke-dashoffset:0;stroke-opacity:1" transform="rotate(45)"/>
    <rect width="552" height="552" x="713.256" y="-3656.242" rx="16" ry="16" style="fill:#fee011;fill-opacity:1;stroke:none;stroke-width:8;stroke-linejoin:miter;stroke-miterlimit:4;stroke-dasharray:none;stroke-dashoffset:0;stroke-opacity:1" transform="rotate(45)"/>
    <path d="M3194.838-1687.739c0 26.63-21.607 48.217-48.228 48.217-26.62 0-48.216-21.586-48.216-48.217 0-26.62 21.596-48.207 48.216-48.207s48.227 21.587 48.227 48.207" style="fill:#000;fill-opacity:1;fill-rule:nonzero;stroke:none"/>
    <path d="M3026.135-1687.739c0 34.224 14.641 66.957 40.162 89.776l-2.527-2.753c4.9 6.586 11.569 19.778 10.254 27.226l-.304 1.665v118.112h38.496v-116.427l-.312 3.34c4.778-26.91-15.154-54.125-17.466-57.125l-1.13-1.48-1.346-1.223c-17.363-15.535-27.35-37.83-27.35-61.11 0-45.217 36.792-82.01 81.998-82.01 23.57 0 45.998 10.162 61.615 27.905l-1.993-2.671c8.394 13.655 29.98 34.43 59.169 30.34h46.758v-38.487h-48.895l-2.024.427c-12.38 2.702-22.172-12.37-22.264-12.525l-.781-1.232-1.069-1.274c-22.89-26.025-55.88-40.963-90.516-40.963-66.422 0-120.475 54.052-120.475 120.485" style="fill:#000;fill-opacity:1;fill-rule:nonzero;stroke:none"/>
    <path d="M3013.23-1886.36v34.234c0 24.607-9.842 35.415-10.212 35.847-31.994 36.052-49.193 81.433-49.193 128.54 0 44.17 15.309 87.341 43.131 121.523l-1.797-2.558c.123.165 10.068 17.95 10.068 35.148v78.762h38.488v-78.762c0-27.195-13.583-51.586-15.165-54.289l-.773-1.335-.965-1.202c-22.264-27.381-34.511-61.944-34.511-97.287 0-37.696 13.788-74.005 38.754-102.249 1.15-1.007 20.661-20.877 20.661-62.138v-34.234" style="fill:#000;fill-opacity:1;fill-rule:nonzero;stroke:none"/>
    <path d="M3033.42-1885.055c-33.145 18.627-34.881 13.346-34.881 13.346-4.161-2.085-5.723-7.356-3.524-11.836l32.579-65.405c1.13-2.209 2.949-3.832 5.065-4.613h2.045c2.075.78 3.904 2.404 5.024 4.613l32.559 65.405c2.21 4.48.65 9.75-3.462 11.836 0 0-3.71 5.466-33.464-13.13M3312.015-1733.808c-14.518 25.819-10.418 27.175-10.418 27.175 1.633 3.216 5.743 4.418 9.206 2.713l50.929-25.347a7.46 7.46 0 0 0 3.596-3.925v-1.582c-.65-1.613-1.89-3.072-3.596-3.914l-50.93-25.378c-3.462-1.726-7.572-.468-9.205 2.733 0 0-4.264 2.846 10.254 26.015M2898.13-1636.501c20.845 37.182 14.948 39.124 14.948 39.124-2.302 4.644-8.22 6.432-13.233 3.914l-73.276-36.494c-2.496-1.233-4.305-3.297-5.199-5.63v-2.29c.894-2.323 2.703-4.409 5.199-5.672l73.276-36.474c5.013-2.476 10.931-.715 13.233 3.914 0 0 6.185 4.11-14.682 37.45" style="fill:#000;fill-opacity:1;fill-rule:nonzero;stroke:none"/>
    <path d="M2894.76-1618.737c32.907 1.819 63.216 14.065 90.042 36.432l24.658-29.549c-32.856-27.39-71.816-43.07-112.584-45.309M3125.19-1885.137c33.133 18.586 34.88 13.336 34.88 13.336 4.13-2.075 5.712-7.356 3.452-11.805l-32.467-65.272c-1.11-2.23-2.98-3.833-5.055-4.603h-2.023c-2.096.773-3.936 2.373-5.045 4.603l-32.508 65.272c-2.208 4.449-.608 9.73 3.504 11.805 0 0 3.668 5.466 33.37-13.13" style="fill:#000;fill-opacity:1;fill-rule:nonzero;stroke:none"/>
    <path d="M3104.949-1795.947h38.487v-99.71h-38.487z" style="fill:#000;fill-opacity:1;fill-rule:nonzero;stroke:none"/>
  </g>
</svg>
