<svg xmlns="http://www.w3.org/2000/svg" viewBox="0 0 850 566" role="img" aria-labelledby="title">
  <title id="title">Verkehrszeichen New_South_Wales_detour_route_D1 - Alphanumeric detour route shield (used in Sydney, New South Wales)</title>
  <rect width="825" height="541" x="12.5" y="12.5" rx="27" ry="27" style="color:#000;fill:#ffa709;stroke:#000;stroke-width:25"/>
  <g aria-label="D1" style="font-size:597.01499999999998636px;font-family:&quot;Roadgeek 2005 Series D&quot;;-inkscape-font-specification:&quot;Roadgeek 2005 Series D&quot;;text-align:center;letter-spacing:0;word-spacing:0;text-anchor:middle;fill:#000;stroke-width:1.25">
    <path d="M485.1 282.4q0 60.3-24.5 105.1-24.4 44.8-72.2 71.6-20.9 12-45.4 17.9-24.4 6-48.9 6h-129V83h129q51.3 0 95.5 25.1 46.6 26.8 71 71 24.5 43.6 24.5 103.3m-71.6 0q0-40.6-14.9-68.1-14.4-27.4-44.2-44.1-27.5-15.6-60.3-15.6H238v256.8h56.1q31.6 0 57.9-15.6 61.5-32.2 61.5-113.4M614.3 483l1.8-299.1h-50.7l-1.2-57.3q23.3-5.4 37-14.9 14.3-9.6 26.3-28.7h57.3v400z" style="-inkscape-font-specification:&quot;Roadgeek 2005 Series E&quot;"/>
  </g>
</svg>
