<svg xmlns="http://www.w3.org/2000/svg" viewBox="0 0 1210 2410" role="img" aria-labelledby="title">
  <title id="title">Verkehrszeichen P2-V106-VIC - Roadwork Speed Limits Enforced In Victoria (used in VIC)</title>
  <g transform="translate(0 2113)">
    <rect width="1208" height="2408" x="1" y="-2112" rx="104" ry="104" style="opacity:1;fill:#000;fill-opacity:1;fill-rule:nonzero;stroke:none;stroke-width:38.61211395;stroke-linecap:square;stroke-linejoin:round;stroke-miterlimit:4;stroke-dasharray:none;stroke-dashoffset:0;stroke-opacity:1"/>
    <rect width="1200" height="2400" x="5" y="-2108" rx="100" ry="100" style="opacity:1;fill:#fff;fill-opacity:1;fill-rule:nonzero;stroke:none;stroke-width:38.42006683;stroke-linecap:square;stroke-linejoin:round;stroke-miterlimit:4;stroke-dasharray:none;stroke-dashoffset:0;stroke-opacity:1"/>
    <rect width="1170" height="2370" x="20" y="-2093" rx="85" ry="85" style="opacity:1;fill:#000;fill-opacity:1;fill-rule:nonzero;stroke:none;stroke-width:37.69892502;stroke-linecap:square;stroke-linejoin:round;stroke-miterlimit:4;stroke-dasharray:none;stroke-dashoffset:0;stroke-opacity:1"/>
    <rect width="1110" height="2310" x="50" y="-2063" rx="55" ry="55" style="opacity:1;fill:#fff;fill-opacity:1;fill-rule:nonzero;stroke:none;stroke-width:36.25178146;stroke-linecap:square;stroke-linejoin:round;stroke-miterlimit:4;stroke-dasharray:none;stroke-dashoffset:0;stroke-opacity:1"/>
    <circle cx="605" cy="-608" r="400" style="opacity:1;fill:#be121e;fill-opacity:1;fill-rule:nonzero;stroke:none;stroke-width:23.33909607;stroke-linecap:square;stroke-linejoin:round;stroke-miterlimit:4;stroke-dasharray:none;stroke-dashoffset:0;stroke-opacity:1"/>
    <circle cx="605" cy="-608" r="340" style="opacity:1;fill:#fff;fill-opacity:1;fill-rule:nonzero;stroke:none;stroke-width:19.83823204;stroke-linecap:square;stroke-linejoin:round;stroke-miterlimit:4;stroke-dasharray:none;stroke-dashoffset:0;stroke-opacity:1"/>
    <g aria-label="ROADWORK" style="font-style:normal;font-variant:normal;font-weight:400;font-stretch:normal;font-size:201.72911072px;line-height:0;font-family:&quot;Roadgeek 2005 Series C&quot;;-inkscape-font-specification:&quot;Roadgeek 2005 Series C&quot;;letter-spacing:9.48531246px;word-spacing:0;fill:#f60;fill-opacity:1;stroke:none;stroke-width:5.04322767">
      <path d="m233.379-2403.42-17.954-63.545h-18.559v63.544H177.5v-135.158h40.346q7.867 0 14.323 2.622 6.657 2.623 11.296 7.262 4.842 4.64 7.263 11.499 2.622 6.657 2.622 14.726 0 12.104-4.841 20.577-4.842 8.472-14.525 12.103l19.366 66.37zm1.009-99.05q0-7.867-4.842-12.507t-12.709-4.64h-19.971v34.093h19.971q8.473 0 12.91-4.237 4.64-4.438 4.64-12.709M362.345-2471.202q0 15.533-1.816 26.427-1.614 10.893-5.85 20.576-5.043 12.104-12.709 17.752-7.464 5.447-18.963 5.447-12.103 0-19.769-5.447-7.464-5.648-12.507-17.752-4.236-9.885-6.052-20.576-1.614-10.894-1.614-26.427 0-15.331 1.614-26.224 1.816-11.096 6.052-20.779 5.245-12.103 12.709-17.348 7.665-5.447 19.567-5.447 11.7 0 19.165 5.447 7.464 5.245 12.507 17.752 2.017 5.043 3.43 10.086 1.613 5.044 2.42 10.692 1.009 5.447 1.412 11.902.404 6.254.404 13.92m-18.56 0q0-5.648-.403-10.288-.202-4.64-.807-8.473-.403-4.034-1.21-7.665t-1.816-7.262q-2.622-9.078-6.657-13.113-3.833-4.034-9.885-4.034-12.507 0-17.146 16.743-2.421 7.666-3.43 15.533-.807 7.666-.807 18.963 0 5.446.202 10.086.403 4.438.807 8.473.605 3.833 1.412 7.666.807 3.832 1.816 7.867 4.64 16.744 17.146 16.744 6.052 0 9.885-4.035 4.035-4.035 6.657-12.709 1.21-4.035 2.018-7.666.806-3.833 1.21-7.867.605-4.035.807-8.473.202-4.64.202-10.49M455.472-2403.42l-9.481-36.917h-29.05l-8.875 36.916h-19.568l33.689-135.158h18.962l33.689 135.158zm-24.208-94.813-9.48 38.933h19.365zM578.884-2471.202q0 46.398-19.366 61.528-3.631 3.43-8.473 4.841-4.841 1.412-10.49 1.412h-37.521v-135.158h34.495q8.675 0 13.516 1.21 4.842 1.21 8.473 4.035 6.052 4.236 10.086 11.902 4.236 7.665 6.052 17.954 1.412 7.464 2.22 15.936 1.008 8.473 1.008 16.34m-18.963 1.009q0-11.499-1.008-21.383-1.01-10.087-2.825-14.323-4.64-13.718-17.55-13.718H522.4v97.234h16.138q4.236 0 7.464-1.614 3.43-1.614 5.85-4.236 2.42-2.623 3.833-6.052 1.614-3.631 2.42-7.464.606-6.456 1.211-13.516.605-7.262.605-14.928M685.161-2403.42H668.62l-12.91-70.606-12.71 70.605h-17.146l-21.383-135.158h18.962l11.499 72.017 13.112-72.017h15.331l12.71 72.017 11.901-72.017h18.963zM812.018-2471.202q0 15.533-1.815 26.427-1.614 10.893-5.85 20.576-5.044 12.104-12.71 17.752-7.463 5.447-18.962 5.447-12.104 0-19.77-5.447-7.463-5.648-12.507-17.752-4.236-9.885-6.052-20.576-1.613-10.894-1.613-26.427 0-15.331 1.613-26.224 1.816-11.096 6.052-20.779 5.245-12.103 12.71-17.348 7.665-5.447 19.567-5.447 11.7 0 19.164 5.447 7.464 5.245 12.507 17.752 2.018 5.043 3.43 10.086 1.614 5.044 2.42 10.692 1.01 5.447 1.413 11.902.403 6.254.403 13.92m-18.559 0q0-5.648-.403-10.288-.202-4.64-.807-8.473-.404-4.034-1.21-7.665-.808-3.631-1.816-7.262-2.623-9.078-6.657-13.113-3.833-4.034-9.885-4.034-12.507 0-17.147 16.743-2.42 7.666-3.43 15.533-.806 7.666-.806 18.963 0 5.446.201 10.086.404 4.438.807 8.473.606 3.833 1.412 7.666.807 3.832 1.816 7.867 4.64 16.744 17.147 16.744 6.052 0 9.885-4.035 4.034-4.035 6.657-12.709 1.21-4.035 2.017-7.666.807-3.833 1.21-7.867.606-4.035.807-8.473.202-4.64.202-10.49M904.54-2403.42l-17.954-63.545h-18.559v63.544h-19.366v-135.158h40.346q7.868 0 14.323 2.622 6.657 2.623 11.297 7.262 4.841 4.64 7.262 11.499 2.622 6.657 2.622 14.726 0 12.104-4.841 20.577-4.842 8.472-14.525 12.103l19.366 66.37zm1.009-99.05q0-7.867-4.842-12.507t-12.709-4.64h-19.97v34.093h19.97q8.473 0 12.911-4.237 4.64-4.438 4.64-12.709M1012.126-2403.42l-23.805-65.966-12.305 22.795v43.17H956.65v-135.158h19.366v54.063l30.865-54.063h22.392l-28.04 47.406 31.267 87.752z" style="font-style:normal;font-variant:normal;font-weight:400;font-stretch:normal;line-height:0;font-family:&quot;Roadgeek 2005 Series C&quot;;-inkscape-font-specification:&quot;Roadgeek 2005 Series C&quot;;letter-spacing:9.48531246px;fill:#000;fill-opacity:1;stroke:none;stroke-width:5.04322767" transform="translate(0 1353)"/>
      <g aria-label="SPEED" style="font-style:normal;font-variant:normal;font-weight:400;font-stretch:normal;font-size:201.72911072px;line-height:0;font-family:&quot;Roadgeek 2005 Series C&quot;;-inkscape-font-specification:&quot;Roadgeek 2005 Series C&quot;;letter-spacing:2.16164589px;word-spacing:0;fill:#ac9393;fill-opacity:1;stroke:none;stroke-width:25.43414497">
        <path d="M450.447-725.337q0 8.27-3.026 15.533-2.824 7.06-8.07 12.306-5.043 5.245-11.901 8.472Q420.793-686 412.925-686q-8.876 0-15.937-3.43-7.06-3.429-11.902-9.279t-7.464-13.516T375-728.16h18.963q0 4.236 1.008 8.472 1.21 4.035 3.43 7.464 2.42 3.228 5.85 5.245 3.63 2.018 8.674 2.018 3.833 0 7.262-1.614 3.631-1.614 6.052-4.438 2.623-2.825 4.035-6.456 1.614-3.832 1.614-7.867 0-5.85-2.421-10.288-2.42-4.64-8.473-9.28-1.008-1.008-.807-1.008.202-.202-1.21-1.21-1.412-1.01-6.052-3.834-4.438-3.026-14.726-10.086-8.271-5.649-12.507-13.113-4.035-7.665-4.035-16.743 0-7.262 2.623-13.516 2.622-6.455 7.262-11.297 4.841-4.841 11.095-7.464Q408.89-826 416.153-826q7.262 0 13.314 2.623 6.253 2.622 10.692 7.262 4.64 4.64 7.262 11.095 2.824 6.455 3.026 14.121h-18.56q-.403-7.06-4.84-11.297-4.439-4.236-10.894-4.236-6.657 0-11.297 4.438t-4.64 11.095q0 5.043 2.623 8.473 2.622 3.429 10.086 7.665 19.568 11.297 28.444 22.997 9.078 11.7 9.078 26.427M551.09-785.654q0 18.559-9.28 28.242-9.077 9.683-26.224 9.683h-20.98v59.308H475.24v-135.158h40.346q7.867 0 14.323 2.824 6.657 2.623 11.297 7.666 4.841 4.841 7.262 11.902 2.622 7.06 2.622 15.533m-18.962 0q0-8.473-4.842-13.718t-12.709-5.245h-19.97v38.329h19.97q8.473 0 12.91-5.043 4.64-5.044 4.64-14.323M571.978-688.42v-135.16h63.545v18.963h-44.179v34.093h28.04v18.559h-28.04v44.582h49.424v18.962zM665.564-688.42v-135.16h63.545v18.963H684.93v34.093h28.04v18.559h-28.04v44.582h49.424v18.962zM835-756.202q0 46.398-19.366 61.528-3.63 3.43-8.472 4.841t-10.49 1.412H759.15v-135.158h34.496q8.674 0 13.516 1.21 4.841 1.21 8.472 4.035 6.052 4.236 10.087 11.902 4.236 7.666 6.052 17.954 1.412 7.464 2.219 15.936 1.008 8.473 1.008 16.34m-18.962 1.009q0-11.499-1.009-21.383-1.009-10.087-2.824-14.323-4.64-13.718-17.55-13.718h-16.139v97.234h16.138q4.237 0 7.464-1.614 3.43-1.614 5.85-4.236 2.421-2.623 3.833-6.052 1.614-3.631 2.421-7.464.605-6.456 1.21-13.516.606-7.262.606-14.928" style="font-style:normal;font-variant:normal;font-weight:400;font-stretch:normal;line-height:0;font-family:&quot;Roadgeek 2005 Series C&quot;;-inkscape-font-specification:&quot;Roadgeek 2005 Series C&quot;;letter-spacing:2.17752075px;fill:#000;fill-opacity:1;stroke:none;stroke-width:25.43414497" transform="translate(0 48)"/>
        <g aria-label="LIMITS" style="font-style:normal;font-variant:normal;font-weight:400;font-stretch:normal;font-size:201.72911072px;line-height:0;font-family:&quot;Roadgeek 2005 Series C&quot;;-inkscape-font-specification:&quot;Roadgeek 2005 Series C&quot;;letter-spacing:2.00554156px;word-spacing:0;fill:#f60;fill-opacity:1;stroke:none;stroke-width:128.27018738">
          <path d="M375-478.42v-135.16h19.366v117.205h49.424v17.954zM464.905-478.42v-135.16h18.963v135.16zM585.4-478.42v-75.85l-25.014 75.85-25.216-75.85v75.85h-19.366v-135.16h19.366l25.216 75.851 25.014-75.85h19.568v135.158zM636.441-478.42v-135.16h18.963v135.16zM721.029-595.625v117.204H701.46v-117.204h-24.61v-17.954h68.789v17.954zM835-515.337q0 8.27-3.026 15.533-2.825 7.06-8.07 12.306-5.043 5.244-11.901 8.472Q805.345-476 797.478-476q-8.876 0-15.937-3.43-7.06-3.429-11.902-9.279t-7.464-13.516-2.622-15.936h18.962q0 4.236 1.01 8.472 1.21 4.035 3.429 7.464 2.42 3.228 5.85 5.245 3.63 2.018 8.674 2.018 3.833 0 7.262-1.614 3.631-1.614 6.052-4.438 2.623-2.825 4.035-6.456 1.614-3.832 1.614-7.867 0-5.85-2.421-10.288-2.42-4.64-8.473-9.28-1.008-1.008-.807-1.008.202-.202-1.21-1.21-1.412-1.01-6.052-3.834-4.438-3.026-14.726-10.086-8.271-5.649-12.507-13.113-4.035-7.665-4.035-16.743 0-7.262 2.622-13.516 2.623-6.455 7.263-11.297 4.841-4.841 11.095-7.464Q793.443-616 800.706-616q7.262 0 13.314 2.623 6.253 2.622 10.691 7.262 4.64 4.64 7.263 11.095 2.824 6.455 3.026 14.121h-18.56q-.403-7.06-4.84-11.297-4.439-4.236-10.894-4.236-6.657 0-11.297 4.438t-4.64 11.095q0 5.043 2.623 8.473 2.622 3.429 10.086 7.665 19.568 11.297 28.444 22.997 9.078 11.7 9.078 26.427" style="font-style:normal;font-variant:normal;font-weight:400;font-stretch:normal;line-height:0;font-family:&quot;Roadgeek 2005 Series C&quot;;-inkscape-font-specification:&quot;Roadgeek 2005 Series C&quot;;letter-spacing:2.04258323px;fill:#000;fill-opacity:1;stroke:none;stroke-width:128.27018738" transform="translate(0 48)"/>
          <g aria-label="ENFORCED" style="font-style:normal;font-variant:normal;font-weight:400;font-stretch:normal;font-size:201.72911072px;line-height:0;font-family:&quot;Roadgeek 2005 Series C&quot;;-inkscape-font-specification:&quot;Roadgeek 2005 Series C&quot;;letter-spacing:0;word-spacing:0;fill:#ff7f2a;fill-opacity:1;stroke:none;stroke-width:646.89575195">
            <path d="M120-39.42v-135.16h63.545v18.963h-44.179v34.093h28.04v18.559h-28.04v44.582h49.424v18.962zM271.773-39.42l-41.758-90.577v90.576H210.65v-135.158h19.366l37.118 81.095v-81.095H286.5v135.158zM334.454-155.617v34.093h27.032v18.559h-27.032v63.544h-19.366v-135.158h68.79v18.962zM479.044-107.202q0 15.534-1.815 26.427-1.614 10.893-5.85 20.576-5.044 12.104-12.71 17.752Q451.207-37 439.708-37q-12.104 0-19.77-5.447-7.463-5.648-12.507-17.752-4.236-9.884-6.051-20.576-1.614-10.893-1.614-26.427 0-15.331 1.614-26.224 1.815-11.096 6.051-20.779 5.245-12.103 12.71-17.348Q427.804-177 439.706-177q11.7 0 19.164 5.447 7.464 5.245 12.508 17.752 2.017 5.043 3.429 10.086 1.614 5.044 2.42 10.692 1.01 5.447 1.413 11.902.403 6.254.403 13.92m-18.559 0q0-5.648-.403-10.288-.202-4.64-.807-8.472-.404-4.035-1.21-7.666-.807-3.631-1.816-7.262-2.623-9.078-6.657-13.113-3.833-4.034-9.885-4.034-12.507 0-17.147 16.743-2.42 7.666-3.43 15.533-.806 7.666-.806 18.963 0 5.447.202 10.086.403 4.438.806 8.473.606 3.833 1.413 7.666.806 3.832 1.815 7.867 4.64 16.744 17.147 16.744 6.052 0 9.885-4.035 4.034-4.035 6.657-12.709 1.21-4.035 2.017-7.666.807-3.833 1.21-7.867.606-4.035.807-8.473.202-4.64.202-10.49M561.322-39.42l-17.954-63.545h-18.56v63.544h-19.365v-135.158h40.346q7.867 0 14.322 2.622 6.657 2.623 11.297 7.263 4.842 4.64 7.262 11.498 2.623 6.657 2.623 14.726 0 12.104-4.842 20.577-4.841 8.472-14.524 12.103l19.366 66.37zm1.008-99.05q0-7.867-4.841-12.507t-12.71-4.64h-19.97v34.093h19.97q8.473 0 12.912-4.237 4.64-4.438 4.64-12.709M656.844-138.47q-3.026-19.567-16.138-19.567-5.85 0-10.087 2.622-4.035 2.42-6.657 8.07-2.42 5.446-3.631 14.524-1.009 9.078-1.009 22.19 0 29.25 5.245 41.96 5.447 12.709 17.954 12.709 4.236 0 6.859-1.614 2.824-1.614 4.438-4.237 1.815-2.824 2.42-6.253.606-3.631.606-7.464h19.366q-.202 8.472-2.824 15.533-2.623 7.06-7.06 12.305-4.439 5.044-10.693 7.868Q649.582-37 642.521-37q-21.787 0-31.873-17.752-9.885-17.752-9.885-55.274 0-33.083 10.087-50.029Q620.936-177 641.109-177q8.27 0 15.13 3.631 6.858 3.43 11.498 10.087 3.833 5.043 5.649 10.288t2.824 14.524zM702.501-39.42v-135.16h63.545v18.963h-44.179v34.093h28.04v18.559h-28.04v44.582h49.424v18.962zM869-107.202q0 46.398-19.366 61.528-3.63 3.43-8.472 4.841t-10.49 1.412H793.15v-135.158h34.496q8.674 0 13.516 1.21 4.841 1.21 8.472 4.035 6.052 4.236 10.087 11.902 4.236 7.666 6.052 17.954 1.412 7.464 2.219 15.936 1.008 8.473 1.008 16.34m-18.962 1.009q0-11.499-1.009-21.383-1.008-10.087-2.824-14.323-4.64-13.718-17.55-13.718h-16.139v97.234h16.139q4.236 0 7.464-1.614 3.429-1.614 5.85-4.236 2.42-2.623 3.833-6.052 1.613-3.631 2.42-7.464.605-6.456 1.21-13.516.606-7.262.606-14.928" style="font-style:normal;font-variant:normal;font-weight:400;font-stretch:normal;line-height:0;font-family:&quot;Roadgeek 2005 Series C&quot;;-inkscape-font-specification:&quot;Roadgeek 2005 Series C&quot;;letter-spacing:-.75935417px;fill:#000;fill-opacity:1;stroke:none;stroke-width:646.89575195" transform="translate(0 19)"/>
            <g aria-label="IN" style="font-style:normal;font-variant:normal;font-weight:400;font-stretch:normal;font-size:208.95523071px;line-height:0;font-family:&quot;Roadgeek 2005 Series C&quot;;-inkscape-font-specification:&quot;Roadgeek 2005 Series C&quot;;letter-spacing:-4.17512465px;word-spacing:0;fill:#6c5d53;fill-opacity:1;stroke:none;stroke-width:3379.30639648">
              <path d="M968-37v-140h19.642v140zM1077.746-37l-43.253-93.82V-37h-20.06v-140h20.06l38.448 84v-84H1093v140z" style="font-style:normal;font-variant:normal;font-weight:400;font-stretch:normal;line-height:0;font-family:&quot;Roadgeek 2005 Series C&quot;;-inkscape-font-specification:&quot;Roadgeek 2005 Series C&quot;;letter-spacing:-4.17512465px;fill:#000;fill-opacity:1;stroke:none;stroke-width:3379.30639648" transform="translate(0 19)"/>
              <g aria-label="VICTORIA" style="font-style:normal;font-variant:normal;font-weight:400;font-stretch:normal;font-size:201.72911072px;line-height:0;font-family:&quot;Roadgeek 2005 Series C&quot;;-inkscape-font-specification:&quot;Roadgeek 2005 Series C&quot;;letter-spacing:0;word-spacing:0;fill:#d40000;fill-opacity:1;stroke:none;stroke-width:17042.61132812">
                <path d="M288.818 174.58h-14.726L240 39.42h19.568l22.19 87.753L304.15 39.42h19.366zM352.397 174.58V39.42h18.962v135.16ZM465.018 75.53q-3.026-19.567-16.139-19.567-5.85 0-10.086 2.622-4.035 2.42-6.657 8.07-2.421 5.446-3.631 14.524-1.01 9.077-1.01 22.19 0 29.25 5.246 41.96 5.447 12.708 17.954 12.708 4.236 0 6.859-1.613 2.824-1.614 4.438-4.237 1.815-2.824 2.42-6.253.605-3.631.605-7.464h19.366q-.201 8.472-2.824 15.533-2.622 7.06-7.06 12.305-4.438 5.044-10.692 7.868Q457.755 177 450.695 177q-21.787 0-31.873-17.752-9.885-17.752-9.885-55.274 0-33.084 10.086-50.029T449.283 37q8.27 0 15.13 3.631 6.858 3.43 11.498 10.087 3.833 5.043 5.648 10.288 1.816 5.245 2.825 14.524zM555.217 57.375v117.204H535.65V57.375h-24.611V39.42h68.79v17.954zM685.322 106.798q0 15.533-1.815 26.427-1.614 10.893-5.85 20.576-5.044 12.104-12.71 17.752Q657.485 177 645.986 177q-12.104 0-19.77-5.447-7.463-5.648-12.507-17.752-4.236-9.885-6.052-20.576-1.613-10.894-1.613-26.427 0-15.331 1.613-26.225 1.816-11.095 6.052-20.778 5.245-12.103 12.71-17.348Q634.082 37 645.984 37q11.7 0 19.164 5.447 7.464 5.245 12.507 17.752 2.018 5.043 3.43 10.086 1.614 5.044 2.42 10.692 1.01 5.447 1.413 11.902.403 6.254.403 13.92m-18.559 0q0-5.648-.403-10.288-.202-4.64-.807-8.473-.404-4.034-1.21-7.665-.808-3.631-1.816-7.262-2.623-9.078-6.657-13.113-3.833-4.034-9.885-4.034-12.507 0-17.147 16.743-2.42 7.666-3.43 15.533-.806 7.666-.806 18.963 0 5.446.201 10.086.404 4.438.807 8.473.606 3.833 1.412 7.666.807 3.832 1.816 7.867 4.64 16.743 17.147 16.743 6.052 0 9.885-4.034 4.034-4.035 6.657-12.709 1.21-4.035 2.017-7.666.807-3.833 1.21-7.867.606-4.035.807-8.473.202-4.64.202-10.49M778.463 174.58l-17.953-63.545h-18.56v63.544h-19.366V39.421h40.346q7.868 0 14.323 2.622 6.657 2.623 11.297 7.262 4.841 4.64 7.262 11.499 2.623 6.657 2.623 14.726 0 12.104-4.842 20.577-4.841 8.472-14.524 12.103l19.366 66.37zm1.01-99.05q0-7.867-4.842-12.507t-12.71-4.64h-19.97v34.093h19.97q8.473 0 12.911-4.237 4.64-4.438 4.64-12.709M831.19 174.58V39.42h18.962v135.16ZM946.634 174.58l-9.481-36.917h-29.049l-8.876 36.916H879.66L913.35 39.421h18.963L966 174.579Zm-24.207-94.813-9.481 38.933h19.366z" style="font-style:normal;font-variant:normal;font-weight:400;font-stretch:normal;line-height:0;font-family:&quot;Roadgeek 2005 Series C&quot;;-inkscape-font-specification:&quot;Roadgeek 2005 Series C&quot;;letter-spacing:10.10443783px;fill:#000;fill-opacity:1;stroke:none;stroke-width:17042.61132812" transform="translate(5 15)"/>
              </g>
            </g>
          </g>
        </g>
      </g>
    </g>
    <path d="M902.91-1421.61c-6.272-24.016-20.383-44.933-39.984-60.427-7.838-7.747-18.03-13.171-29.005-15.495-8.625-2.323-16.465-4.649-24.303-8.52-11.76-6.973-25.088-9.299-39.199-7.748-8.625-.769-17.247.768-25.872 2.323-22.736 5.424-43.119 15.496-61.15 29.44-14.894 15.494-31.359 29.439-49.39 41.06l-36.846-27.89-17.247 23.241-181.883-134.025 93.294-107.686-7.056 150.294 26.654 20.144 17.247-51.906 34.497-244.812c-18.816-13.17-29.792-34.862-29.008-58.105-16.465 0-30.576-11.62-34.494-27.89l-68.99 6.2-137.196 112.332 7.056 129.378-48.606-35.635-7.84 10.844 50.96 37.963-32.144 53.454-12.545 156.494L155-1273.637l42.334 31.763 114.461-162.692 31.359-82.12 27.439 89.867-5.487 151.847 54.092 6.197 17.247-181.284-26.654-134.028 162.283 119.307-18.032 23.241 28.223 20.918c-27.439 27.89-54.095 56.555-79.182 86.77-7.056 10.071-12.543 20.918-18.03 31.762-5.489 10.846-10.193 22.468-14.111 34.09H1055c-3.136-22.469-11.76-44.161-24.303-63.528l-61.15-62.753-61.149-48.032c-2.353-2.325-4.704-5.424-5.489-9.298M336.1-1707.48l-2.354-55.78 44.688-13.945z" style="fill:#000;fill-opacity:1;fill-rule:nonzero;stroke:none;stroke-width:7.79332066"/>
    <circle cx="580" cy="-1930" r="68" style="opacity:1;fill:#000;fill-opacity:1;fill-rule:nonzero;stroke:none;stroke-width:44.33792114;stroke-linecap:square;stroke-linejoin:round;stroke-miterlimit:4;stroke-dasharray:none;stroke-dashoffset:0;stroke-opacity:1"/>
  </g>
</svg>
