<svg xmlns="http://www.w3.org/2000/svg" viewBox="0 0 1800 900" role="img" aria-labelledby="title">
  <title id="title">Verkehrszeichen P2-V100-VIC - Speed &amp; Red Light Cameras Operate Throughout Victoria (used in VIC)</title>
  <path d="M60.782 1.963v.423A62.746 65.724 0 0 0 2.445 62.333h-.56v780.412H3.09a62.746 65.724 0 0 0 57.693 54.71v.7H1738v-.732a62.746 65.724 0 0 0 58.743-54.678h.32v-1.827a62.746 65.724 0 0 0 .65-9.026 62.746 65.724 0 0 0-.65-9.343V69.873a62.746 65.724 0 0 0 .102-1.777 62.746 65.724 0 0 0-.102-3.539v-2.224h-.143A62.746 65.724 0 0 0 1738 2.493v-.53z" style="fill:#fff;fill-opacity:1;stroke:none;stroke-width:5;stroke-opacity:1"/>
  <path fill="none" d="m710.85 159.468 8.315-6.716M1619.694 165.013v5.525M583.39 316.681l-20.19 6.716M936.482 584.488v4.745M1428.516 584.488v4.745M878.277 703.79v18.566" style="stroke:none;stroke-opacity:1"/>
  <path fill="#00f" fill-rule="evenodd" d="m66.802 115.62.391-7.495 2.388-7.106 3.17-6.716 4.342-6.326 5.536-5.134 6.34-3.943 6.73-3.163 7.533-1.581 7.511-.39 7.512 1.17 7.143 1.993 6.317 3.553 5.949 4.744 5.145 5.914 3.951 6.326-18.996 9.077-3.951-5.524-5.949-4.355-6.73-1.971-7.12.412-6.34 2.75-5.536 4.745-3.17 6.304-1.172 6.716.39 2.773.782 2.773 1.194 2.361 1.585 1.972 2.366 1.581 2.388 1.192 2.758.801 2.779.39 13.069 1.17 7.512 1.581 7.12 2.773 6.34 3.943 5.927 5.134 4.363 5.936 3.56 6.716 2.367 7.496.803 7.517-.803 7.496-1.976 7.517-3.17 6.694-4.341 6.326-5.536 5.134-6.34 4.355-7.12 3.163-7.534 1.581-7.511.39-7.534-.39-7.511-1.581-7.121-2.773-6.34-3.553-5.926-4.745-5.167-5.914-3.952-6.326-2.757-7.105 20.169-6.326 1.585 3.943 2.388 3.574 2.779 3.141 3.148 2.773 3.972 1.972 3.952 1.581 3.95.78h4.365l8.315-1.17 7.511-3.964 5.145-6.304 1.976-7.908-.782-8.297-4.363-7.105-6.318-5.135-7.924-1.971-11.875-1.192-6.73-.78-6.34-2.383-5.926-3.163-5.146-4.332-3.973-5.135-3.17-5.935-1.975-6.326zm0 0" style="stroke-width:5.55183;stroke:none;stroke-opacity:1;fill:#004187;fill-opacity:1"/>
  <path fill="none" d="m66.802 115.62.391-7.495 2.388-7.106 3.17-6.716 4.342-6.326 5.536-5.134 6.34-3.943 6.73-3.163 7.533-1.581 7.511-.39 7.512 1.17 7.143 1.993 6.317 3.553 5.949 4.744 5.145 5.914 3.951 6.326-18.996 9.077-3.951-5.524-5.949-4.355-6.73-1.971-7.12.412-6.34 2.75-5.536 4.745-3.17 6.304-1.172 6.716.39 2.773.782 2.773 1.194 2.361 1.585 1.972 2.366 1.581 2.389 1.192 2.757.801 2.779.39 13.069 1.17 7.512 1.582 7.12 2.773 6.34 3.942 5.927 5.135 4.363 5.936 3.56 6.715 2.367 7.496.803 7.517-.803 7.496-1.975 7.517-3.17 6.694-4.342 6.326-5.536 5.134-6.34 4.355-7.12 3.163-7.534 1.581-7.511.39-7.534-.39-7.511-1.581-7.121-2.773-6.34-3.553-5.926-4.744-5.167-5.915-3.951-6.325-2.758-7.106 20.169-6.326 1.585 3.943 2.388 3.574 2.779 3.142 3.148 2.773 3.973 1.971 3.95 1.581 3.952.78h4.364l8.315-1.17 7.511-3.964 5.146-6.304 1.975-7.907-.781-8.298-4.364-7.105-6.318-5.135-7.924-1.971-11.875-1.192-6.73-.78-6.34-2.382-5.926-3.163-5.146-4.333-3.973-5.134-3.17-5.936-1.975-6.326z" style="stroke:none;stroke-opacity:1;fill:#004187;fill-opacity:1"/>
  <path fill="#00f" fill-rule="evenodd" d="M363.295 76.929h-77.591v134.293h81.933v-20.927h-60.94v-37.933h41.944v-20.927h-41.944v-33.58h56.598zm0 0" style="stroke-width:5.55183;stroke:none;stroke-opacity:1;fill:#004187;fill-opacity:1"/>
  <path fill="none" d="M363.295 76.929h-77.591v134.293h81.933v-20.927h-60.94v-37.933h41.944v-20.927h-41.944v-33.58h56.598z" style="stroke:none;stroke-opacity:1"/>
  <path fill="#00f" fill-rule="evenodd" d="M467.807 76.929h-77.591v134.293h81.933v-20.927h-60.962v-37.933h41.966v-20.927h-41.966v-33.58h56.62zm0 0" style="stroke-width:5.55183;stroke:none;stroke-opacity:1;fill:#004187;fill-opacity:1"/>
  <path fill="none" d="M467.807 76.929h-77.591v134.293h81.933v-20.927h-60.962v-37.933h41.966v-20.927h-41.966v-33.58h56.62z" style="stroke:none;stroke-opacity:1"/>
  <path fill="#00f" fill-rule="evenodd" d="M173.68 76.929h52.647l7.512.78 7.142 1.971 6.34 3.553 5.926 4.744 4.364 5.936 3.56 6.326 2.367 7.106.39 7.495-.39 7.106-2.366 7.127-3.56 6.716-4.365 5.524-5.926 4.723-6.34 3.575-7.142 1.971-7.512.78h-31.675v58.86h-20.971zm20.971 20.927h32.066l6.34 1.581 5.144 3.553 3.56 5.524 1.195 6.326-1.194 6.326-3.56 5.524-5.537 3.553-6.339 1.192h-31.675zm0 0" style="stroke-width:5.55183;stroke:none;stroke-opacity:1;fill:#004187;fill-opacity:1"/>
  <path fill="none" d="M173.68 76.929h52.647l7.512.78 7.142 1.971 6.34 3.553 5.926 4.744 4.364 5.936 3.56 6.326 2.367 7.106.39 7.495-.39 7.106-2.366 7.127-3.56 6.716-4.365 5.524-5.926 4.723-6.34 3.575-7.142 1.971-7.512.78h-31.675v58.86H173.68zm20.972 20.927h32.066l6.34 1.581 5.144 3.553 3.56 5.524 1.195 6.326-1.194 6.326-3.56 5.524-5.537 3.553-6.339 1.192h-31.675z" style="stroke:none;stroke-opacity:1"/>
  <path fill="#00f" fill-rule="evenodd" d="M995.446 211.222V76.93h77.982v20.927h-56.598v33.579h41.965v20.927h-41.965v37.933h60.962v20.927zm0 0" style="stroke-width:5.55183;stroke:none;stroke-opacity:1;fill:#004187;fill-opacity:1"/>
  <path fill="none" d="M995.446 211.222V76.93h77.982v20.927h-56.598v33.579h41.965v20.927h-41.965v37.933h60.962v20.927z" style="stroke:none;stroke-opacity:1"/>
  <path fill="#00f" fill-rule="evenodd" d="M1293.524 76.929v134.293h81.933v-20.927h-60.962V76.93Zm0 0" style="stroke-width:5.55183;stroke:none;stroke-opacity:1;fill:#004187;fill-opacity:1"/>
  <path fill="none" d="M1293.524 76.929v134.293h81.933v-20.927h-60.962V76.93z" style="stroke:none;stroke-opacity:1"/>
  <path fill="#00f" fill-rule="evenodd" d="M1415.837 211.222V76.93h-20.971v134.293Zm0 0" style="stroke-width:5.55183;stroke:none;stroke-opacity:1;fill:#004187;fill-opacity:1"/>
  <path fill="none" d="M1394.866 76.929v134.293h20.971V76.93z" style="stroke:none;stroke-opacity:1"/>
  <path fill="#00f" fill-rule="evenodd" d="m1443.149 183.19 2.778 7.105 4.342 6.304 5.167 5.936 5.927 4.744 6.73 3.553 7.512 1.972 7.533 1.191 7.903-.411 7.533-1.972 6.73-3.163 6.73-4.332 5.536-5.135 4.364-6.325 3.148-6.716 1.997-7.496.782-7.907v-26.473h-46.307v20.949h25.335v5.524l-1.194 7.907-4.342 6.716-5.949 5.134-7.511 2.362-7.924-.39-7.121-2.773-5.949-5.525-3.56-6.715-1.976-8.298-1.585-8.297-.781-8.297-.413-8.297.413-8.276.781-8.297 1.585-8.297 1.976-8.297 3.17-6.326 4.754-4.745 6.318-3.552 6.73-1.17 7.142 1.17 5.927 3.163 5.145 4.744 3.17 6.304 20.19-6.694-3.17-7.127-4.363-6.716-5.536-5.524-6.318-4.333-7.142-3.163-7.512-1.993-7.924-.78-7.512.78-7.533 2.383-7.121 3.553-6.318 4.744-5.167 5.524-4.342 6.716-2.779 7.106-1.975 7.517-1.585 7.886-1.194 7.907-.782 7.907v15.793l.782 7.907 1.194 7.886 1.585 7.517zm0 0" style="stroke-width:5.55183;stroke:none;stroke-opacity:1;fill:#004187;fill-opacity:1"/>
  <path fill="none" d="m1443.149 183.19 2.778 7.105 4.342 6.304 5.167 5.936 5.927 4.744 6.73 3.553 7.512 1.972 7.533 1.191 7.903-.411 7.533-1.972 6.73-3.163 6.73-4.332 5.536-5.135 4.364-6.326 3.148-6.715 1.997-7.496.782-7.907v-26.473h-46.307v20.948h25.335v5.525l-1.194 7.907-4.342 6.716-5.949 5.134-7.511 2.361-7.924-.39-7.121-2.773-5.949-5.524-3.56-6.716-1.976-8.297-1.585-8.297-.781-8.297-.413-8.297.413-8.276.781-8.297 1.585-8.297 1.976-8.298 3.17-6.325 4.754-4.745 6.318-3.553 6.73-1.17 7.142 1.17 5.927 3.163 5.145 4.745 3.17 6.304 20.19-6.694-3.17-7.128-4.363-6.715-5.536-5.525-6.318-4.332-7.142-3.163-7.512-1.993-7.924-.78-7.512.78-7.533 2.383-7.121 3.553-6.318 4.744-5.167 5.524-4.342 6.716-2.778 7.106-1.976 7.517-1.585 7.886-1.194 7.907-.782 7.907v15.793l.782 7.907 1.194 7.886 1.585 7.517z" style="stroke:none;stroke-opacity:1"/>
  <path fill="#00f" fill-rule="evenodd" d="M1550.417 76.929v134.293h20.994v-58.86h48.283v58.86h20.993V76.93h-20.993v54.506h-48.283V76.929Zm0 0" style="stroke-width:5.55183;stroke:none;stroke-opacity:1;fill:#004187;fill-opacity:1"/>
  <path fill="none" d="M1550.418 76.929v134.293h20.993v-58.86h48.283v58.86h20.994V76.93h-20.994v54.506h-48.283V76.929z" style="stroke:none;stroke-opacity:1"/>
  <path fill="#00f" fill-rule="evenodd" d="M1690.946 97.856v113.366h21.384V97.856h30.481V76.929h-82.346v20.927zm0 0" style="stroke-width:5.55183;stroke:none;stroke-opacity:1;fill:#004187;fill-opacity:1"/>
  <path fill="none" d="M1690.946 97.856v113.366h21.384V97.856h30.481V76.929h-82.346v20.927z" style="stroke:none;stroke-opacity:1"/>
  <path fill="#00f" fill-rule="evenodd" d="M736.967 289.428v134.315h20.994v-77.816l30.871 77.816 31.262-77.816v77.816h20.994V289.428h-20.994l-31.262 77.816-30.871-77.816zm0 0" style="stroke-width:5.55183;stroke:none;stroke-opacity:1;fill:#004187;fill-opacity:1"/>
  <path fill="none" d="M736.967 289.428v134.315h20.994v-77.816l30.871 77.816 31.262-77.816v77.816h20.994V289.428h-20.994l-31.262 77.816-30.871-77.816z" style="stroke:none;stroke-opacity:1"/>
  <path fill="#00f" fill-rule="evenodd" d="M872.35 423.743V289.428h77.982v20.95h-57.01v33.556h41.965v21.339h-41.965v37.522h60.962v20.948zm0 0" style="stroke-width:5.55183;stroke:none;stroke-opacity:1;fill:#004187;fill-opacity:1"/>
  <path fill="none" d="M872.35 423.743V289.428h77.982v20.95h-57.01v33.556h41.965v21.339h-41.965v37.522h60.962v20.948z" style="stroke:none;stroke-opacity:1"/>
  <path fill="#00f" fill-rule="evenodd" d="m1262.261 426.885 7.512-.39 7.512-1.582 7.142-2.751 6.318-4.354 5.557-5.525 4.342-5.936 3.17-7.105 1.976-7.106.803-7.907-1.194-7.496-1.976-7.106-3.56-6.737-4.364-6.304-5.927-5.134-6.339-3.943-7.12-2.773-7.534-1.582-13.048-1.191h-2.779l-2.779-.78-2.366-1.191-2.366-1.972-1.585-1.971-1.194-2.383-1.194-2.362v-2.773l1.194-7.105 3.17-5.936 5.535-4.723 6.34-2.773 7.12-.39 6.73 1.972 5.537 3.942 4.363 5.546 18.997-9.098-3.952-6.305-5.145-5.545-5.948-4.723-6.34-3.575-7.511-2.361-7.121-1.191-7.534.411-7.511 1.971-7.121 2.752-5.949 4.354-5.536 5.134-4.363 5.936-3.56 6.694-1.976 7.518-.391 7.495.39 6.326 1.976 6.716 3.17 5.524 3.951 5.546 5.145 4.333 5.949 3.163 6.34 1.971 6.73.78 11.462 1.192 8.315 1.97 6.34 5.135 4.363 7.128.782 8.297-2.367 7.885-5.145 6.716-7.143 3.943-8.293.802h-4.364l-3.95-.802-3.974-1.17-3.95-2.383-3.17-2.361-2.758-3.163-2.388-3.943-1.585-3.943-20.19 6.304 2.779 7.106 3.951 6.326 5.146 5.936 5.948 4.744 6.34 3.943 7.12 2.773 7.512 1.56zm0 0" style="stroke-width:5.55183;stroke:none;stroke-opacity:1;fill:#004187;fill-opacity:1"/>
  <path fill="none" d="m1262.261 426.885 7.512-.39 7.512-1.582 7.142-2.751 6.318-4.354 5.557-5.525 4.342-5.936 3.17-7.105 1.976-7.106.803-7.907-1.194-7.496-1.976-7.106-3.56-6.737-4.364-6.304-5.927-5.134-6.339-3.943-7.12-2.773-7.534-1.582-13.048-1.191h-2.779l-2.779-.78-2.366-1.192-2.366-1.971-1.585-1.971-1.194-2.383-1.194-2.362v-2.773l1.194-7.105 3.17-5.936 5.535-4.723 6.34-2.773 7.12-.39 6.73 1.972 5.537 3.942 4.363 5.546 18.997-9.098-3.952-6.305-5.145-5.546-5.948-4.722-6.34-3.575-7.511-2.361-7.121-1.192-7.534.412-7.511 1.971-7.121 2.752-5.949 4.354-5.536 5.134-4.363 5.936-3.56 6.694-1.976 7.518-.391 7.495.39 6.326 1.976 6.716 3.17 5.524 3.951 5.546 5.145 4.333 5.949 3.163 6.34 1.971 6.73.78 11.462 1.192 8.315 1.97 6.34 5.135 4.363 7.128.782 8.297-2.367 7.885-5.145 6.716-7.143 3.943-8.293.802h-4.363l-3.952-.802-3.973-1.17-3.95-2.383-3.17-2.361-2.758-3.163-2.388-3.943-1.585-3.943-20.19 6.304 2.779 7.106 3.951 6.326 5.146 5.936 5.948 4.744 6.34 3.943 7.12 2.773 7.512 1.56z" style="stroke:none;stroke-opacity:1"/>
  <path fill="#00f" fill-rule="evenodd" d="M328.863 625.194h-72.837V505.892h68.864v18.566h-50.28v30.026h37.211v18.566h-37.21v33.557h54.252zm0 0" style="stroke-width:5.55183;stroke:none;stroke-opacity:1;fill:#004187;fill-opacity:1"/>
  <path fill="none" d="M328.863 625.194h-72.837V505.892h68.864v18.566h-50.28v30.026h37.21v18.566h-37.21v33.557h54.253z" style="stroke:none;stroke-opacity:1"/>
  <path fill="#00f" fill-rule="evenodd" d="M576.248 524.458v100.736h18.606V524.458h27.31v-18.566H549.35v18.566zm0 0" style="stroke-width:5.55183;stroke:none;stroke-opacity:1;fill:#004187;fill-opacity:1"/>
  <path fill="none" d="M576.248 524.458v100.736h18.606V524.458h27.31v-18.566H549.35v18.566z" style="stroke:none;stroke-opacity:1"/>
  <path fill="#00f" fill-rule="evenodd" d="M638.013 505.892v119.302h72.837v-18.587h-54.231V573.05h37.21v-18.566h-37.21v-30.026h50.258v-18.566Zm0 0" style="stroke-width:5.55183;stroke:none;stroke-opacity:1;fill:#004187;fill-opacity:1"/>
  <path fill="none" d="M638.013 505.892v119.302h72.837v-18.587h-54.232V573.05h37.211v-18.566h-37.21v-30.026h50.258v-18.566z" style="stroke:none;stroke-opacity:1"/>
  <path fill="#00f" fill-rule="evenodd" d="M813.364 524.458v100.736h18.606V524.458h27.31v-18.566h-72.836v18.566zm0 0" style="stroke-width:5.55183;stroke:none;stroke-opacity:1;fill:#004187;fill-opacity:1"/>
  <path fill="none" d="M813.364 524.458v100.736h18.606V524.458h27.31v-18.566h-72.836v18.566z" style="stroke:none;stroke-opacity:1"/>
  <path fill="#00f" fill-rule="evenodd" d="M874.717 505.892v119.302h18.996V573.05h42.769v52.144h18.996V505.892h-18.996v48.592h-42.77v-48.592Zm0 0" style="stroke-width:5.55183;stroke:none;stroke-opacity:1;fill:#004187;fill-opacity:1"/>
  <path fill="none" d="M874.717 505.892v119.302h18.996V573.05h42.769v52.144h18.996V505.892h-18.996v48.592h-42.77v-48.592z" style="stroke:none;stroke-opacity:1"/>
  <path fill="#00f" fill-rule="evenodd" d="m1171.21 587.651.803 7.518 1.976 7.105 3.17 6.326 4.732 5.914 5.145 5.135 6.34 3.964 7.12 2.751 7.121 1.192h7.533l7.121-1.192 7.121-2.751 6.34-3.964 5.536-5.135 4.363-5.914 3.17-6.326 1.976-7.105.781-7.518v-81.759h-18.605v81.76l-1.585 8.296-4.733 6.716-7.12 4.745-7.925 1.581-8.315-1.581-7.12-4.745-4.755-6.716-1.585-8.297v-81.759h-18.605zm0 0" style="stroke-width:5.55183;stroke:none;stroke-opacity:1;fill:#004187;fill-opacity:1"/>
  <path fill="none" d="m1171.21 587.651.803 7.518 1.975 7.105 3.17 6.326 4.733 5.914 5.145 5.135 6.34 3.964 7.12 2.751 7.121 1.192h7.533l7.121-1.192 7.121-2.751 6.34-3.964 5.536-5.135 4.363-5.914 3.17-6.326 1.976-7.105.781-7.518v-81.759h-18.605v81.76l-1.585 8.296-4.733 6.716-7.12 4.745-7.925 1.581-8.315-1.581-7.12-4.745-4.755-6.716-1.585-8.297v-81.759h-18.605z" style="stroke:none;stroke-opacity:1"/>
  <path fill="#00f" fill-rule="evenodd" d="m1273.724 600.303 3.17 7.106 4.363 6.715 5.536 5.525 6.34 3.964 7.511 2.751 7.534 1.192 7.902-.39 7.534-1.582 7.12-3.552 6.34-4.745 5.145-5.936 3.56-6.715 2.367-7.496.803-7.907v-23.7h-41.184v18.955h22.579v4.745l-1.194 7.127-3.56 5.914-5.537 4.333-6.73 2.383-6.73-.39-6.73-2.773-5.145-4.744-3.17-5.914-1.585-7.518-1.585-7.105-.781-7.496-.413-7.517.413-7.106.781-7.496 1.585-7.517 1.585-7.106 2.779-5.524 4.342-4.744 5.536-2.773 5.948-1.192 6.34 1.192 5.536 2.773 4.342 4.332 2.779 5.546 17.802-5.936-2.757-7.105-4.364-5.914-5.536-5.135-6.34-3.964-6.73-2.752-7.511-1.58-7.534.389-7.12 1.581-7.121 2.773-5.927 4.333-5.145 5.134-4.364 6.326-2.779 6.716-1.976 7.886-1.584 7.517-.782 7.907-.803 7.496v7.885l.803 7.908.782 7.907 1.584 7.496zm0 0" style="stroke-width:5.55183;stroke:none;stroke-opacity:1;fill:#004187;fill-opacity:1"/>
  <path fill="none" d="m1273.724 600.303 3.17 7.106 4.363 6.715 5.536 5.525 6.34 3.964 7.511 2.751 7.534 1.192 7.902-.39 7.534-1.582 7.12-3.552 6.34-4.745 5.145-5.936 3.56-6.715 2.367-7.496.803-7.907v-23.7h-41.184v18.955h22.579v4.745l-1.194 7.127-3.56 5.914-5.537 4.333-6.73 2.383-6.73-.39-6.73-2.773-5.145-4.744-3.17-5.914-1.585-7.518-1.585-7.105-.781-7.496-.413-7.517.413-7.106.781-7.496 1.585-7.517 1.585-7.106 2.779-5.524 4.342-4.744 5.536-2.773 5.948-1.192 6.34 1.192 5.536 2.773 4.342 4.332 2.779 5.546 17.802-5.936-2.757-7.105-4.364-5.915-5.536-5.134-6.34-3.964-6.73-2.752-7.511-1.581-7.534.39-7.12 1.581-7.121 2.773-5.927 4.333-5.145 5.134-4.364 6.326-2.779 6.716-1.976 7.886-1.584 7.517-.782 7.907-.803 7.496v7.885l.803 7.908.782 7.907 1.584 7.496z" style="stroke:none;stroke-opacity:1"/>
  <path fill="#00f" fill-rule="evenodd" d="M1366.751 505.892v119.302h18.606V573.05h43.159v52.144h18.605V505.892h-18.605v48.592h-43.16v-48.592Zm0 0" style="stroke-width:5.55183;stroke:none;stroke-opacity:1;fill:#004187;fill-opacity:1"/>
  <path fill="none" d="M1366.751 505.892v119.302h18.606V573.05h43.159v52.144h18.605V505.892h-18.605v48.592h-43.16v-48.592z" style="stroke:none;stroke-opacity:1"/>
  <path fill="#00f" fill-rule="evenodd" d="m1645.833 587.651-.804 7.518-1.975 7.105-3.17 6.326-4.754 5.914-5.536 5.135-6.34 3.964-6.73 2.751-7.12 1.192h-7.512l-7.534-1.192-6.73-2.751-6.317-3.964-5.558-5.135-4.342-5.914-3.17-6.326-2.388-7.105-.39-7.518v-81.759h18.605v81.76l1.585 8.296 4.754 6.716 6.73 4.745 8.315 1.581 8.315-1.581 7.121-4.745 4.364-6.716 1.975-8.297v-81.759h18.606zm0 0" style="stroke-width:5.55183;stroke:none;stroke-opacity:1;fill:#004187;fill-opacity:1"/>
  <path fill="none" d="m1645.833 587.651-.804 7.518-1.975 7.105-3.17 6.326-4.754 5.914-5.536 5.135-6.34 3.964-6.73 2.751-7.12 1.192h-7.512l-7.534-1.192-6.73-2.751-6.317-3.964-5.558-5.135-4.342-5.914-3.17-6.326-2.388-7.105-.39-7.518v-81.759h18.605v81.76l1.585 8.296 4.754 6.716 6.73 4.745 8.315 1.581 8.315-1.581 7.12-4.745 4.365-6.716 1.975-8.297v-81.759h18.606z" style="stroke:none;stroke-opacity:1"/>
  <path fill="#00f" fill-rule="evenodd" d="M1707.185 524.458v100.736h-18.605V524.458h-27.312v-18.566h73.228v18.566zm0 0" style="stroke-width:5.55183;stroke:none;stroke-opacity:1;fill:#004187;fill-opacity:1"/>
  <path fill="none" d="M1707.185 524.458v100.736h-18.605V524.458h-27.311v-18.566h73.227v18.566z" style="stroke:none;stroke-opacity:1"/>
  <path fill="#00f" fill-rule="evenodd" d="M1117.76 703.79v119.281h-18.996v-119.28zm0 0" style="stroke-width:5.55183;stroke:none;stroke-opacity:1;fill:#004187;fill-opacity:1"/>
  <path fill="none" d="M1098.763 823.071v-119.28h18.997v119.28z" style="stroke:none;stroke-opacity:1"/>
  <path fill="#00f" fill-rule="evenodd" d="M878.277 703.79H805.44v18.566h26.92v100.715h18.606V722.356h27.311zm0 0" style="stroke-width:5.55183;stroke:none;stroke-opacity:1;fill:#004187;fill-opacity:1"/>
  <path fill="none" d="M878.277 703.79H805.44v18.566h26.92v100.715h18.606V722.356h27.311z" style="stroke:none;stroke-opacity:1"/>
  <path fill="#00f" fill-rule="evenodd" d="m791.199 727.88-3.17-6.715-4.342-6.304-5.558-5.546-6.34-3.943-7.12-2.773-7.512-1.192-7.924.412-7.12 1.581-7.122 3.163-5.948 4.723-5.145 5.546-3.952 6.304-3.17 7.907-2.756 7.908-1.585 7.885-1.194 8.297-.391 8.298.39 8.297 1.195 8.297 1.585 7.907 2.757 7.886 3.17 7.907 3.95 6.326 5.146 5.524 5.948 4.745 7.121 3.162 7.121 1.56 7.924.412 7.512-1.192 7.12-2.773 6.34-3.943 5.558-5.524 4.342-6.326 3.17-6.715-17.824-5.915-2.758 5.525-3.95 3.943-5.146 3.162-5.558 1.192-5.927-.39-5.536-2.383-4.363-3.553-3.56-5.134-2.78-7.496-2.366-7.907-1.585-8.297-.39-8.297.39-8.298 1.585-8.297 2.366-7.885 2.78-7.518 3.56-5.134 4.363-3.553 5.536-2.361 5.927-.39 5.558 1.17 5.145 3.163 3.951 3.942 2.758 5.546zm0 0" style="stroke-width:5.55183;stroke:none;stroke-opacity:1;fill:#004187;fill-opacity:1"/>
  <path fill="none" d="m791.199 727.88-3.17-6.715-4.342-6.304-5.558-5.546-6.34-3.943-7.12-2.773-7.512-1.192-7.924.412-7.12 1.582-7.122 3.162-5.948 4.723-5.145 5.546-3.952 6.304-3.17 7.907-2.756 7.908-1.585 7.885-1.194 8.298-.391 8.297.39 8.297 1.195 8.297 1.585 7.907 2.757 7.886 3.17 7.907 3.95 6.326 5.146 5.524 5.948 4.745 7.121 3.163 7.121 1.56 7.924.411 7.512-1.192 7.12-2.772 6.34-3.943 5.558-5.525 4.342-6.325 3.17-6.716-17.824-5.914-2.758 5.524-3.95 3.943-5.146 3.163-5.558 1.191-5.927-.39-5.536-2.383-4.363-3.553-3.56-5.134-2.78-7.496-2.366-7.907-1.585-8.297-.39-8.297.39-8.297 1.585-8.298 2.366-7.885 2.78-7.518 3.56-5.134 4.363-3.553 5.536-2.361 5.927-.39 5.558 1.17 5.145 3.163 3.951 3.943 2.758 5.545z" style="stroke:none;stroke-opacity:1"/>
  <path fill="#00f" fill-rule="evenodd" d="M670.86 703.79v119.281h18.606v-119.28zm0 0" style="stroke-width:5.55183;stroke:none;stroke-opacity:1;fill:#004187;fill-opacity:1"/>
  <path fill="none" d="M689.466 823.071v-119.28H670.86v119.28z" style="stroke:none;stroke-opacity:1"/>
  <path fill="#00f" fill-rule="evenodd" d="m579.809 703.79 25.335 85.312 25.336-85.312h19.408l-35.235 119.281h-18.996l-35.235-119.28zm0 0" style="stroke-width:5.55183;stroke:none;stroke-opacity:1;fill:#004187;fill-opacity:1"/>
  <path fill="none" d="m579.809 703.79 25.335 85.312 25.336-85.312h19.408l-35.235 119.281h-18.996l-35.235-119.28z" style="stroke:none;stroke-opacity:1"/>
  <path fill="#00f" fill-rule="evenodd" d="m563.2 323.397-2.778-5.914-4.755-4.745-5.536-3.552-6.73-1.192-6.34.39-6.339 2.383-5.145 4.333-3.56 5.546-3.17 7.495-2.366 7.908-1.585 8.297-.782 8.297v8.275l.782 8.298 1.585 7.907 2.366 8.297 3.17 7.496 3.56 5.524 5.145 3.965 6.34 2.75 6.339.412 6.73-1.581 5.536-3.163 4.755-4.744 2.779-5.915 20.19 6.305-3.17 7.517-4.364 6.326-5.536 5.914-6.73 4.354-7.12 3.553-7.534 1.972-7.902.39-7.924-.78-7.534-2.383-7.12-3.943-6.318-4.745-5.146-5.914-3.972-6.716-3.17-7.517-2.366-7.106-1.976-7.495-1.585-7.518-.803-7.907v-15.403l.803-7.885 1.585-7.517 1.976-7.496 2.366-7.517 3.17-7.106 3.972-6.716 5.146-5.914 6.317-5.134 7.121-3.553 7.534-2.383 7.924-.78 7.902.39 7.533 1.971 7.121 3.163 6.73 4.744 5.536 5.525 4.364 6.715 3.17 7.106zm0 0" style="stroke-width:5.55183;stroke:none;stroke-opacity:1;fill:#004187;fill-opacity:1"/>
  <path fill="none" d="m563.2 323.397-2.778-5.914-4.755-4.745-5.536-3.552-6.73-1.192-6.34.39-6.339 2.383-5.145 4.333-3.56 5.546-3.17 7.495-2.366 7.908-1.585 8.297-.782 8.297v8.276l.782 8.297 1.585 7.907 2.366 8.297 3.17 7.496 3.56 5.524 5.145 3.965 6.34 2.75 6.34.413 6.73-1.582 5.535-3.163 4.755-4.744 2.779-5.914 20.19 6.304-3.17 7.517-4.364 6.326-5.536 5.914-6.73 4.355-7.12 3.552-7.534 1.972-7.902.39-7.924-.78-7.534-2.383-7.12-3.943-6.318-4.744-5.146-5.915-3.972-6.715-3.17-7.518-2.366-7.105-1.976-7.496-1.585-7.517-.803-7.908V349.07l.803-7.886 1.585-7.517 1.975-7.496 2.367-7.517 3.17-7.106 3.972-6.716 5.146-5.914 6.317-5.134 7.121-3.553 7.534-2.383 7.924-.78 7.902.39 7.533 1.971 7.121 3.163 6.73 4.745 5.536 5.524 4.364 6.716 3.17 7.105z" style="stroke:none;stroke-opacity:1"/>
  <path fill="#00f" fill-rule="evenodd" d="M494.315 76.929h37.992l6.34.39 6.339 1.191 5.948 1.972 5.536 3.162 5.146 3.553 4.732 3.943 3.973 4.745 3.56 5.524 3.17 6.716 3.17 7.105 1.976 7.106 1.585 7.517.781 7.496.412 7.517-.412 7.496-1.172 7.517-1.585 7.496-2.388 7.106-2.757 7.127-3.582 6.694-3.56 4.744-3.952 4.745-4.755 3.943-5.145 3.162-5.536 2.773-5.536 1.972-5.948 1.191-6.34.39h-37.992zm37.992 113.366 3.582-.411 3.56-.78 3.17-1.192 3.148-1.581 3.17-1.972 2.388-2.361 2.367-2.773 1.975-2.751 3.56-7.908 2.78-7.907 1.584-8.297.391-8.687-.782-8.297-1.584-8.298-2.388-7.885-3.952-7.518v-.39l-1.584-2.772-2.367-2.752-2.779-2.383-2.779-1.971-3.148-1.582-3.17-1.17-3.56-.41-3.582-.39H515.7v92.438Zm0 0" style="stroke-width:5.55183;stroke:none;stroke-opacity:1;fill:#004187;fill-opacity:1"/>
  <path fill="none" d="M494.315 76.929h37.992l6.34.39 6.339 1.191 5.948 1.972 5.536 3.163 5.146 3.552 4.732 3.943 3.973 4.745 3.56 5.524 3.17 6.716 3.17 7.105 1.976 7.106 1.585 7.517.781 7.496.413 7.517-.413 7.496-1.172 7.517-1.585 7.496-2.388 7.106-2.757 7.127-3.582 6.694-3.56 4.744-3.952 4.745-4.755 3.943-5.145 3.162-5.536 2.773-5.536 1.972-5.948 1.191-6.34.39h-37.992zm37.992 113.366 3.582-.412 3.56-.78 3.17-1.191 3.148-1.581 3.17-1.972 2.388-2.361 2.367-2.773 1.975-2.751 3.56-7.908 2.78-7.907 1.584-8.297.391-8.687-.781-8.298-1.585-8.297-2.388-7.885-3.952-7.518v-.39l-1.584-2.773-2.367-2.75-2.779-2.384-2.779-1.971-3.147-1.582-3.17-1.17-3.56-.411-3.583-.39H515.7v92.44z" style="stroke:none;stroke-opacity:1"/>
  <path fill="#00f" fill-rule="evenodd" d="M883.835 76.929v134.293h20.972v-58.86h26.117l20.993 58.86h22.166L951.917 149.2l6.73-3.943 5.927-5.524 4.364-6.326 3.56-7.106 1.585-7.907v-7.907l-1.975-7.496-3.17-7.105-4.364-6.326-5.927-5.525-6.73-3.942-7.533-2.383-7.902-.78zm52.647 54.506h-31.675v-33.58h32.065l6.34 1.582 5.145 3.553 3.56 5.524 1.173 6.326-1.173 6.326-3.973 5.524-5.145 3.553zm0 0" style="stroke-width:5.55183;stroke:none;stroke-opacity:1;fill:#004187;fill-opacity:1"/>
  <path fill="none" d="M883.835 76.929v134.293h20.972v-58.86h26.117l20.993 58.86h22.166L951.917 149.2l6.73-3.943 5.927-5.524 4.364-6.326 3.56-7.106 1.585-7.907v-7.907l-1.975-7.496-3.17-7.105-4.364-6.326-5.927-5.525-6.73-3.942-7.533-2.383-7.902-.78zm52.647 54.506h-31.675v-33.58h32.065l6.34 1.582 5.145 3.553 3.56 5.524 1.173 6.326-1.173 6.326-3.973 5.524-5.145 3.553z" style="stroke:none;stroke-opacity:1"/>
  <path fill="#00f" fill-rule="evenodd" d="M1099.958 76.929h37.992l6.34.39 6.339 1.191 5.926 1.972 5.558 3.162 5.145 3.553 4.755 3.943 3.951 4.745 3.56 5.524 3.17 6.716 2.757 7.105 2.388 7.106 1.585 7.517.782 7.496.39 7.517-.39 7.496-1.194 7.517-1.585 7.496-2.366 7.106-2.78 7.127-3.56 6.694-3.56 4.744-3.951 4.745-4.755 3.943-5.145 3.162-5.536 2.773-5.536 1.972-6.34 1.191-5.948.39h-37.993zm20.972 113.366v-92.44h17.021l3.56.39 3.17.412 3.56 1.17 3.17 1.582 2.779 1.971 2.779 2.383 1.975 2.751 1.976 2.773v.39l3.56 7.517 2.78 7.886 1.584 8.297.782 8.297-.782 8.688-1.585 8.297-2.388 7.907-3.56 7.907-1.976 2.752-2.366 2.773-2.388 2.361-3.17 1.971-3.17 1.582-3.17 1.191-3.56.78-3.56.412zm0 0" style="stroke-width:5.55183;stroke:none;stroke-opacity:1;fill:#004187;fill-opacity:1"/>
  <path fill="none" d="M1099.958 76.929h37.992l6.34.39 6.339 1.191 5.926 1.972 5.558 3.163 5.145 3.552 4.755 3.943 3.951 4.745 3.56 5.524 3.17 6.716 2.757 7.105 2.388 7.106 1.585 7.517.782 7.496.39 7.517-.39 7.496-1.194 7.517-1.585 7.496-2.366 7.106-2.78 7.127-3.56 6.694-3.56 4.744-3.951 4.745-4.755 3.943-5.145 3.162-5.536 2.773-5.536 1.972-6.34 1.191-5.948.39h-37.992zm20.971 113.366v-92.44h17.02l3.561.39 3.17.412 3.56 1.17 3.17 1.582 2.779 1.971 2.779 2.383 1.976 2.751 1.975 2.773v.39l3.56 7.518 2.78 7.885 1.584 8.297.782 8.298-.782 8.687-1.585 8.297-2.388 7.907-3.56 7.908-1.976 2.75-2.366 2.774-2.388 2.361-3.17 1.972-3.17 1.581-3.17 1.192-3.56.78-3.56.411z" style="stroke:none;stroke-opacity:1"/>
  <path fill="#00f" fill-rule="evenodd" d="m647.5 289.428-46.698 134.315h22.166l13.07-37.543h41.943l13.07 37.543h22.165l-46.698-134.315zm22.97 75.845-13.46-39.103-13.46 39.103zm0 0" style="stroke-width:5.55183;stroke:none;stroke-opacity:1;fill:#004187;fill-opacity:1"/>
  <path fill="none" d="m647.5 289.428-46.698 134.315h22.166l13.07-37.543h41.943l13.07 37.543h22.165l-46.698-134.315zm22.97 75.845-13.46-39.103-13.46 39.103z" style="stroke:none;stroke-opacity:1"/>
  <path fill="#00f" fill-rule="evenodd" d="M979.228 423.743V289.428h52.647l7.924.802 7.512 2.751 6.73 3.965 5.927 5.134 4.754 6.304 3.17 7.106 1.585 7.907v7.907l-1.585 7.496-3.17 7.127-4.754 6.716-5.536 5.113-7.121 3.964 22.557 62.023h-22.557l-20.581-58.47h-26.53v58.47zm20.972-113.366h32.066l6.34 1.56 5.535 3.553 3.17 5.546 1.194 6.325-1.194 6.305-3.56 5.546-5.537 3.552-6.339 1.17H1000.2zm0 0" style="stroke-width:5.55183;stroke:none;stroke-opacity:1;fill:#004187;fill-opacity:1"/>
  <path fill="none" d="M979.228 423.743V289.428h52.647l7.924.802 7.512 2.751 6.73 3.965 5.927 5.134 4.754 6.304 3.17 7.106 1.585 7.907v7.907l-1.585 7.496-3.17 7.127-4.754 6.716-5.536 5.113-7.121 3.964 22.557 62.023h-22.557l-20.581-58.47h-26.53v58.47zm20.972-113.366h32.066l6.34 1.56 5.535 3.553 3.17 5.546 1.194 6.325-1.194 6.305-3.56 5.546-5.537 3.552-6.339 1.17H1000.2z" style="stroke:none;stroke-opacity:1"/>
  <path fill="#00f" fill-rule="evenodd" d="m1086.497 423.743 46.72-134.315h18.996l47.111 134.315h-22.578l-13.048-37.543h-41.965l-13.07 37.543zm42.747-58.47h27.311l-13.85-39.103zm0 0" style="stroke-width:5.55183;stroke:none;stroke-opacity:1;fill:#004187;fill-opacity:1"/>
  <path fill="none" d="m1086.497 423.743 46.72-134.315h18.996l47.111 134.315h-22.578l-13.048-37.543h-41.965l-13.07 37.543zm42.747-58.47h27.311l-13.85-39.103z" style="stroke:none;stroke-opacity:1"/>
  <path fill="#00f" fill-rule="evenodd" d="M158.245 505.892v119.302h18.996V573.05h28.114l7.512-.802 7.143-2.361 6.317-3.964 5.145-5.525 3.952-6.304 2.388-7.127 1.194-7.496-1.194-7.517-2.388-7.106-3.952-6.326-5.145-5.112-6.317-3.965-7.143-2.751-7.512-.802zm18.996 48.592h28.114l5.536-1.191 4.755-3.163 3.17-4.745 1.194-5.524-.804-5.914-3.17-4.745-4.754-3.162-5.536-1.582h-28.505zm0 0" style="stroke-width:5.55183;stroke:none;stroke-opacity:1;fill:#004187;fill-opacity:1"/>
  <path fill="none" d="M158.245 505.892v119.302h18.996V573.05h28.114l7.512-.802 7.143-2.361 6.317-3.964 5.145-5.525 3.952-6.304 2.388-7.127 1.194-7.496-1.194-7.517-2.388-7.106-3.952-6.326-5.145-5.112-6.317-3.965-7.143-2.751-7.512-.802zm18.996 48.592h28.114l5.536-1.191 4.755-3.163 3.17-4.745 1.194-5.524-.804-5.914-3.17-4.745-4.754-3.162-5.536-1.582h-28.505z" style="stroke:none;stroke-opacity:1"/>
  <path fill="#00f" fill-rule="evenodd" d="M346.665 505.892v119.302h18.606V573.05h23.36l18.193 52.144h20.212l-19.8-54.917 6.318-3.943 5.558-5.546 4.342-6.304 2.388-7.106 1.194-7.517-.804-7.496-2.366-7.127-3.973-6.304-5.536-5.524-6.34-3.965-7.12-2.751-7.512-.802zm46.72 48.592h-28.114v-30.026h28.505l5.536 1.582 4.755 3.162 3.17 4.745.78 5.914-1.193 5.524-3.148 4.745-4.755 3.163zm0 0" style="stroke-width:5.55183;stroke:none;stroke-opacity:1;fill:#004187;fill-opacity:1"/>
  <path fill="none" d="M346.665 505.892v119.302h18.606V573.05h23.36l18.193 52.144h20.212l-19.8-54.917 6.318-3.943 5.558-5.546 4.342-6.304 2.388-7.106 1.194-7.517-.804-7.496-2.366-7.127-3.973-6.304-5.536-5.524-6.34-3.965-7.12-2.751-7.512-.802zm46.72 48.592h-28.114v-30.026h28.505l5.536 1.582 4.755 3.162 3.17 4.745.78 5.914-1.193 5.524-3.148 4.745-4.755 3.163z" style="stroke:none;stroke-opacity:1"/>
  <path fill="#00f" fill-rule="evenodd" d="M977.253 505.892v119.302h18.996V573.05h23.36l18.193 52.144h20.19l-19.778-54.917 6.318-3.943 5.558-5.546 3.951-6.304 2.779-7.106 1.172-7.517-.781-7.496-2.389-7.127-3.95-6.304-5.537-5.524-6.339-3.965-7.12-2.751-7.534-.802zm18.997 48.592h28.093l5.558-1.191 4.732-3.163 3.17-4.745 1.194-5.524-.782-5.914-3.17-4.745-4.754-3.162-5.536-1.582H996.25zm0 0" style="stroke-width:5.55183;stroke:none;stroke-opacity:1;fill:#004187;fill-opacity:1"/>
  <path fill="none" d="M977.253 505.892v119.302h18.996V573.05h23.36l18.193 52.144h20.19l-19.778-54.917 6.318-3.943 5.558-5.546 3.951-6.304 2.779-7.106 1.172-7.517-.781-7.496-2.389-7.127-3.95-6.304-5.537-5.524-6.339-3.965-7.12-2.751-7.534-.802zm18.997 48.592h28.093l5.557-1.191 4.733-3.163 3.17-4.745 1.194-5.524-.782-5.914-3.17-4.745-4.754-3.162-5.536-1.582H996.25z" style="stroke:none;stroke-opacity:1"/>
  <path fill="#00f" fill-rule="evenodd" d="m1542.906 601.083-3.56 7.517-4.364 6.304-5.927 5.546-7.121 3.943-7.533 2.361-8.315 1.192-7.903-1.192-7.533-2.361-7.121-3.943-5.948-5.546-4.733-6.304-3.17-7.517-1.975-7.496-1.976-7.907-.803-7.907-.782-8.298v-7.885l.782-7.907.803-7.886 3.951-15.815 3.17-7.105 4.733-6.716 5.948-5.134 7.12-3.943 7.534-2.773 7.903-.78 8.315.78 7.533 2.773 7.12 3.943 5.928 5.134 4.363 6.716 3.56 7.105 1.976 7.908 1.585 7.907 1.194 7.886.782 7.907v7.885l-.782 8.298-1.194 7.907-1.585 7.907zm-55.426-5.525 2.78 5.525 4.363 4.354 5.536 2.751 5.927.802 6.339-.802 5.536-2.75 4.364-4.355 2.757-5.525 1.997-7.495 1.173-7.128 1.194-7.885v-15.013l-1.194-7.517-1.173-7.496-1.997-7.106-2.757-5.546-4.364-4.332-5.536-2.773-6.34-1.192-5.926 1.192-5.536 2.773-4.364 4.332-2.779 5.546-1.975 7.106-1.585 7.496-.782 7.517-.412 7.496.412 7.517.782 7.885 1.585 7.128zm0 0" style="stroke-width:5.55183;stroke:none;stroke-opacity:1;fill:#004187;fill-opacity:1"/>
  <path fill="none" d="m1542.906 601.083-3.56 7.517-4.364 6.304-5.927 5.546-7.121 3.943-7.533 2.361-8.315 1.192-7.903-1.192-7.533-2.361-7.121-3.943-5.948-5.546-4.733-6.304-3.17-7.517-1.976-7.496-1.975-7.907-.803-7.907-.782-8.298v-7.885l.782-7.908.803-7.885 3.951-15.815 3.17-7.105 4.733-6.716 5.948-5.134 7.12-3.943 7.534-2.773 7.903-.78 8.315.78 7.533 2.773 7.12 3.943 5.928 5.134 4.363 6.716 3.56 7.105 1.976 7.908 1.585 7.907 1.194 7.885.782 7.908v7.885l-.782 8.298-1.194 7.907-1.585 7.907zm-55.426-5.525 2.78 5.525 4.363 4.354 5.536 2.751 5.927.802 6.339-.802 5.536-2.75 4.364-4.355 2.757-5.525 1.997-7.495 1.173-7.128 1.194-7.885v-15.013l-1.194-7.517-1.173-7.496-1.997-7.106-2.757-5.546-4.364-4.332-5.536-2.773-6.34-1.192-5.926 1.192-5.536 2.773-4.364 4.332-2.779 5.546-1.975 7.106-1.585 7.496-.782 7.517-.412 7.496.412 7.517.782 7.885 1.585 7.128z" style="stroke:none;stroke-opacity:1"/>
  <path fill="#00f" fill-rule="evenodd" d="M997.443 703.79h46.698l7.534.78 7.12 2.773 6.318 3.943 5.558 5.546 3.951 6.304 2.366 7.106.804 7.517-1.194 7.496-2.367 7.127-4.363 6.304-5.536 5.135-6.34 3.964 19.8 55.286h-20.19l-18.215-52.145h-23.36v52.145h-18.584zm47.089 18.565h-28.505v30.026h28.114l5.536-1.191 4.755-3.163 3.17-5.135 1.193-5.524-.803-5.546-3.17-4.722-4.732-3.553zm0 0" style="stroke-width:5.55183;stroke:none;stroke-opacity:1;fill:#004187;fill-opacity:1"/>
  <path fill="none" d="M997.443 703.79h46.698l7.534.78 7.12 2.773 6.318 3.943 5.558 5.546 3.951 6.304 2.366 7.106.804 7.517-1.194 7.496-2.367 7.127-4.363 6.304-5.536 5.135-6.34 3.964 19.8 55.286h-20.19l-18.215-52.145h-23.36v52.145h-18.584zm47.089 18.565h-28.505v30.026h28.114l5.536-1.191 4.755-3.163 3.17-5.134 1.193-5.525-.803-5.546-3.17-4.722-4.732-3.553z" style="stroke:none;stroke-opacity:1"/>
  <path fill="#00f" fill-rule="evenodd" d="m1238.51 823.071-41.574-119.28h-16.63l-41.943 119.28h19.777l11.876-33.557h37.21l11.485 33.557zm-62.156-52.145 12.266-34.748 11.875 34.748zm0 0" style="stroke-width:5.55183;stroke:none;stroke-opacity:1;fill:#004187;fill-opacity:1"/>
  <path fill="none" d="m1238.51 823.071-41.574-119.28h-16.63l-41.943 119.28h19.777l11.876-33.557h37.21l11.485 33.557zm-62.156-52.145 12.266-34.748 11.875 34.748z" style="stroke:none;stroke-opacity:1"/>
  <path fill="#00f" fill-rule="evenodd" d="m62.851 601.083 3.17 7.517 4.733 6.304 5.948 5.546 7.121 3.943 7.533 2.361 7.903 1.192 7.924-1.192 7.924-2.361 6.73-3.943 5.927-5.546 4.754-6.304 3.17-7.517 2.366-7.496 1.585-7.907 1.194-7.907.391-8.298v-7.885l-.39-7.907-1.195-7.886-1.585-7.907-2.366-7.908-3.17-7.105-4.754-6.716-5.927-5.134-6.73-3.943-7.924-2.773-7.924-.78-7.903.78-7.533 2.773-7.12 3.943-5.95 5.134-4.732 6.716-3.17 7.105-2.388 7.908-1.563 7.907-1.194 7.886-.39 7.907v7.885l.39 8.298 1.194 7.907 1.563 7.907zm17.802-5.525 2.78 5.525 4.363 4.354 5.536 2.751 5.927.802 6.34-.802 5.144-2.75 4.364-4.355 2.757-5.525 2.388-7.495 1.173-7.128.803-7.885.39-7.517-.39-7.496-.803-7.517-1.173-7.496-2.388-7.106-2.757-5.546-4.364-4.332-5.145-2.773-6.34-1.192-5.926 1.192-5.536 2.773-4.364 4.332-2.779 5.546-1.975 7.106-1.585 7.496-.782 7.517-.412 7.496.412 7.517.782 7.885 1.585 7.128zm0 0" style="stroke-width:5.55183;stroke:none;stroke-opacity:1;fill:#004187;fill-opacity:1"/>
  <path fill="none" d="m62.851 601.083 3.17 7.517 4.733 6.304 5.948 5.546 7.121 3.943 7.533 2.361 7.903 1.192 7.924-1.192 7.924-2.361 6.73-3.943 5.927-5.546 4.754-6.304 3.17-7.517 2.366-7.496 1.585-7.907 1.194-7.907.391-8.298v-7.885l-.39-7.908-1.195-7.885-1.585-7.907-2.366-7.908-3.17-7.105-4.754-6.716-5.927-5.134-6.73-3.943-7.924-2.773-7.924-.78-7.903.78-7.533 2.773-7.12 3.943-5.95 5.134-4.732 6.716-3.17 7.105-2.388 7.908-1.563 7.907-1.194 7.885-.39 7.908v7.885l.39 8.298 1.194 7.907 1.563 7.907zm17.802-5.525 2.78 5.525 4.363 4.354 5.536 2.751 5.927.802 6.34-.802 5.144-2.75 4.364-4.355 2.757-5.525 2.388-7.495 1.173-7.128.803-7.885.39-7.517-.39-7.496-.803-7.517-1.173-7.496-2.388-7.106-2.757-5.546-4.364-4.332-5.145-2.773-6.34-1.192-5.926 1.192-5.536 2.773-4.364 4.332-2.779 5.546-1.975 7.106-1.585 7.496-.782 7.517-.412 7.496.412 7.517.782 7.885 1.585 7.128z" style="stroke:none;stroke-opacity:1"/>
  <path fill="#00f" fill-rule="evenodd" d="m1075.425 601.083 3.56 7.517 4.733 6.304 5.949 5.546 6.73 3.943 7.903 2.361 7.924 1.192 7.924-1.192 7.511-2.361 7.143-3.943 5.927-5.546 4.754-6.304 3.17-7.517 2.366-7.496 1.585-7.907.782-7.907.803-8.298v-7.885l-.803-7.907-.782-7.886-1.585-7.907-2.366-7.908-3.17-7.105-4.754-6.716-5.927-5.134-7.143-3.943-7.511-2.773-7.924-.78-7.924.78-7.903 2.773-6.73 3.943-5.949 5.134-4.732 6.716-3.56 7.105-1.998 7.908-1.585 7.907-1.172 7.886-.413 7.907v7.885l.413 8.298 1.172 7.907 1.585 7.907zm17.802-5.525 3.17 5.525 3.951 4.354 5.536 2.751 6.34.802 5.948-.802 5.536-2.75 4.364-4.355 2.757-5.525 1.976-7.495 1.585-7.128.803-7.885.39-7.517-.39-7.496-.803-7.517-1.585-7.496-1.976-7.106-2.757-5.546-4.364-4.332-5.536-2.773-5.948-1.192-6.34 1.192-5.536 2.773-3.95 4.332-3.17 5.546-1.976 7.106-1.194 7.496-1.173 7.517v15.013l1.173 7.885 1.194 7.128zm0 0" style="stroke-width:5.55183;stroke:none;stroke-opacity:1;fill:#004187;fill-opacity:1"/>
  <path fill="none" d="m1075.425 601.083 3.56 7.517 4.734 6.304 5.948 5.546 6.73 3.943 7.903 2.361 7.924 1.192 7.924-1.192 7.512-2.361 7.142-3.943 5.927-5.546 4.754-6.304 3.17-7.517 2.366-7.496 1.585-7.907.782-7.907.803-8.298v-7.885l-.803-7.908-.782-7.885-1.585-7.907-2.366-7.908-3.17-7.105-4.754-6.716-5.927-5.134-7.142-3.943-7.512-2.773-7.924-.78-7.924.78-7.903 2.773-6.73 3.943-5.948 5.134-4.733 6.716-3.56 7.105-1.998 7.908-1.585 7.907-1.172 7.885-.413 7.908v7.885l.413 8.298 1.172 7.907 1.585 7.907zm17.803-5.525 3.17 5.525 3.95 4.354 5.536 2.751 6.34.802 5.948-.802 5.536-2.75 4.364-4.355 2.757-5.525 1.976-7.495 1.585-7.128.803-7.885.39-7.517-.39-7.496-.803-7.517-1.585-7.496-1.976-7.106-2.757-5.546-4.364-4.332-5.536-2.773-5.948-1.192-6.34 1.192-5.536 2.773-3.95 4.332-3.17 5.546-1.976 7.106-1.194 7.496-1.172 7.517v15.013l1.172 7.885 1.194 7.128z" style="stroke:none;stroke-opacity:1"/>
  <path fill="#00f" fill-rule="evenodd" d="m897.273 727.88 3.17-7.105 4.754-6.716 5.949-5.524 7.12-3.965 7.513-2.36 7.924-.803 8.315.802 7.511 2.361 7.143 3.965 5.927 5.524 4.754 6.716 3.17 7.106 1.975 7.907 1.585 7.885 1.173 7.908.803 7.907v7.886l-.803 7.907-1.173 7.907-1.585 7.886-1.975 7.907-3.17 7.106-4.754 6.715-5.927 5.525-7.143 3.964-7.511 2.361-8.315.802-7.924-.802-7.512-2.36-7.121-3.965-5.949-5.525-4.754-6.715-3.17-7.106-1.975-7.907-1.585-7.886-1.172-7.907-.804-7.907v-7.886l.804-7.907 1.172-7.908 1.585-7.885zm17.824 65.186-1.975-7.128-1.585-7.495-.803-7.518-.391-7.495.39-7.496.804-7.517 1.585-7.496 1.975-7.106 2.78-5.546 4.341-4.332 5.558-3.163 5.927-.78 6.339.78 5.536 3.163 4.364 4.332 2.757 5.546 1.975 7.106 1.585 7.496.804 7.517.39 7.496-.39 7.495-.804 7.518-1.585 7.495-1.975 7.128-2.757 5.524-4.364 4.354-5.536 2.752-6.34 1.191-5.926-1.191-5.558-2.752-4.342-4.354zm0 0" style="stroke-width:5.55183;stroke:none;stroke-opacity:1;fill:#004187;fill-opacity:1"/>
  <path fill="none" d="m897.273 727.88 3.17-7.105 4.754-6.716 5.949-5.524 7.12-3.965 7.513-2.361 7.924-.802 8.315.802 7.511 2.361 7.143 3.965 5.927 5.524 4.754 6.716 3.17 7.106 1.975 7.907 1.585 7.885 1.173 7.908.803 7.907v7.886l-.803 7.907-1.173 7.907-1.585 7.886-1.975 7.907-3.17 7.106-4.754 6.715-5.927 5.525-7.143 3.964-7.511 2.361-8.315.802-7.924-.802-7.512-2.36-7.121-3.965-5.949-5.525-4.754-6.715-3.17-7.106-1.975-7.907-1.585-7.886-1.172-7.907-.804-7.907v-7.886l.804-7.907 1.172-7.908 1.585-7.885zm17.824 65.186-1.975-7.128-1.585-7.495-.803-7.518-.391-7.495.39-7.496.804-7.517 1.585-7.496 1.975-7.106 2.78-5.546 4.341-4.332 5.558-3.163 5.927-.78 6.339.78 5.536 3.163 4.364 4.332 2.757 5.546 1.975 7.106 1.585 7.496.804 7.517.39 7.496-.39 7.495-.804 7.518-1.585 7.495-1.975 7.128-2.757 5.524-4.364 4.354-5.536 2.752-6.34 1.191-5.926-1.191-5.558-2.752-4.342-4.354z" style="stroke:none;stroke-opacity:1"/>
  <path fill="#00f" fill-rule="evenodd" d="m735.382 139.732 16.24 24.09.39-.78.39-.801.391-1.192.413-.78.39-.801.391-1.17.39-.802.413-.78.391-1.581.782-1.582.412-1.581v-1.582l.39-1.581v-1.581l.391-1.582v-1.581h20.972v2.383l-.39 2.75v2.384l-.391 2.361-.803 2.773-.391 2.362-.782 2.383-.803 2.361-1.194 2.773-.782 2.361-1.194 2.773-1.172 2.362-1.585 2.383-1.194 2.36-1.585 2.362-1.194 2.383 18.215 27.643h-25.336l-7.12-10.658v.39h-.391l-.39.39-.413.39v.41h-.391l-.782.78-2.778 2.362-3.17 2.383-3.56 1.971-3.561 1.582-3.56 1.191-3.973.78-3.952.39-3.56.412-7.512-.802-6.73-1.971-6.339-3.553-5.949-4.355-4.754-5.524-3.56-6.326-2.367-6.715-.781-7.106v-4.744l.781-5.135 1.194-4.722 1.585-4.355 2.366-4.354 2.78-3.943 3.169-3.553 3.56-3.553 9.9-7.907-7.924-12.24-3.56-7.517-1.585-8.276.39-8.297 2.78-7.907 4.754-6.716 6.317-5.134 7.924-3.553 7.925-1.582h5.145l.781.39 7.925 1.582 7.511 3.964 5.949 5.914 4.342 6.716 2.388 7.907v8.276l-1.585 7.907-3.973 7.518-5.927 5.914zm-16.218 13.02 19.387 30.026-.39.412-.413.78-.781.39-.39.801-.804.39-.39.78-.782.411-.804.78-1.194 1.192-1.585 1.17-1.975.801-1.585.78-1.976.802-1.975.39h-1.976l-1.585.39-3.56-.39-2.779-.802-3.148-1.56-2.388-1.993-1.976-2.361-1.584-2.752-1.195-3.162-.39-3.163v-2.383l.781-4.723 1.194-2.383 1.194-2.361 1.195-1.972 1.584-1.581 1.976-1.993zm14.632-38.691 1.976-2.383 1.194-2.773.782-3.142-.391-3.163-1.585-2.773-1.976-2.36-2.778-1.582-2.758-.78h-3.17l-2.778.39-2.367 1.17-1.975 1.993-1.585 2.36-1.194 2.362v2.773l.412 2.751 1.173 2.384 7.12 10.658zm0 0" style="stroke-width:5.55183;stroke:none;stroke-opacity:1;fill:#004187;fill-opacity:1"/>
  <path fill="none" d="m735.382 139.732 16.24 24.09.39-.78.39-.801.392-1.192.412-.78.39-.801.392-1.17.39-.802.413-.78.39-1.581.782-1.582.413-1.581v-1.582l.39-1.581v-1.581l.391-1.582v-1.581h20.972v2.383l-.39 2.751v2.383l-.391 2.361-.804 2.773-.39 2.362-.782 2.383-.803 2.361-1.194 2.773-.782 2.361-1.194 2.773-1.172 2.362-1.585 2.383-1.194 2.361-1.585 2.361-1.194 2.383 18.215 27.643h-25.336l-7.12-10.658v.39h-.392l-.39.39-.413.39v.411h-.39l-.782.78-2.78 2.361-3.169 2.383-3.56 1.972-3.56 1.581-3.561 1.192-3.973.78-3.951.39-3.56.411-7.512-.801-6.73-1.972-6.34-3.553-5.948-4.354-4.755-5.524-3.56-6.326-2.366-6.716-.782-7.106V172.9l.782-5.134 1.194-4.723 1.584-4.354 2.367-4.355 2.779-3.943 3.17-3.552 3.56-3.553 9.9-7.907-7.925-12.24-3.56-7.518-1.585-8.275.39-8.298 2.78-7.907 4.754-6.716 6.318-5.134 7.924-3.553 7.924-1.581h5.145l.782.39 7.924 1.581 7.512 3.965 5.948 5.914 4.342 6.716 2.388 7.907v8.275l-1.584 7.908-3.973 7.517-5.927 5.914zm-16.217 13.02 19.387 30.026-.39.411-.413.78-.782.39-.39.802-.804.39-.39.78-.782.411-.804.78-1.194 1.192-1.584 1.17-1.976.801-1.585.78-1.976.801-1.975.39h-1.976l-1.585.39-3.56-.39-2.779-.801-3.148-1.56-2.388-1.993-1.976-2.361-1.584-2.752-1.194-3.163-.391-3.162v-2.383l.781-4.723 1.194-2.383 1.194-2.362 1.195-1.97 1.584-1.582 1.976-1.993zm14.632-38.692 1.976-2.383 1.194-2.773.782-3.14-.391-3.164-1.585-2.773-1.976-2.361-2.778-1.581-2.758-.78h-3.17l-2.778.39-2.367 1.17-1.975 1.992-1.585 2.362-1.194 2.361v2.773l.412 2.751 1.173 2.383 7.12 10.659z" style="stroke:none;stroke-opacity:1"/>
  <path fill="#00f" fill-rule="evenodd" d="m480.464 505.892-41.575 119.302h19.8l11.484-33.578h37.211l11.876 33.578h19.777l-41.552-119.302zm20.58 67.158h-24.14l11.875-34.38zm0 0" style="stroke-width:5.55183;stroke:none;stroke-opacity:1;fill:#004187;fill-opacity:1"/>
  <path fill="none" d="m480.464 505.892-41.575 119.302h19.8l11.484-33.578h37.211l11.876 33.578h19.777l-41.553-119.302zm20.58 67.158h-24.14l11.875-34.38z" style="stroke:none;stroke-opacity:1"/>
  <path fill="none" stroke="#000" stroke-linecap="square" stroke-linejoin="round" stroke-miterlimit="1.415" stroke-width="4.347" d="M1737.666 897.724H62.048h.412M62.048 897.724l-2.687.002-5.216-.392-7.533-1.581-7.512-2.362-6.73-3.553-6.73-4.354-5.948-5.134-5.145-5.914-4.342-6.716-3.17-6.716-2.779-7.517-1.585-7.496-.377-4.586-.014-3.321M2.28 838.084V61.916M2.28 61.916l.016-4.44.375-3.467 1.585-7.496 2.779-7.517 3.17-6.716 4.342-6.716 5.145-5.914 5.948-5.134 6.73-4.355 6.73-3.553 7.512-2.361 7.533-1.582 7.903-.39h.412M62.048 2.276h1676.009M1737.666 2.276l2.72-.025 5.204.414 7.512 1.582 7.511 2.361 6.73 3.553 6.73 4.355 5.949 5.134 5.145 5.914 4.342 6.716 3.17 6.716 2.779 7.517 1.585 7.496.369 5.187.01 1.257M1797.433 61.916v776.168M1797.433 838.084l-.014 3.14-.376 4.767-1.585 7.496-2.779 7.517-3.17 6.716-4.341 6.716-5.146 5.914-5.948 5.134-6.73 4.355-6.73 3.552-7.512 2.362-7.512 1.581-3.52.372-4.404.018"/>
</svg>
