<svg xmlns="http://www.w3.org/2000/svg" viewBox="0 0 1021.33 1021.33" role="img" aria-labelledby="title">
  <title id="title">Verkehrszeichen QLD-TC9866-QLD - Cassowary (used in QLD)</title>
  <g transform="translate(0 442.66)">
    <rect width="750" height="750" x="-61.992" y="34.181" rx="50" ry="50" style="fill:#fddc04;fill-opacity:1;fill-rule:evenodd;stroke:none;stroke-width:5.67811;stroke-linecap:round;stroke-linejoin:round" transform="rotate(-45)"/>
    <rect width="730" height="730" x="-51.992" y="44.181" rx="40" ry="40" style="fill:#000;fill-rule:evenodd;stroke:none;stroke-width:5.52669;stroke-linecap:round;stroke-linejoin:round" transform="rotate(-45)"/>
    <rect width="690" height="690" x="-31.992" y="64.181" rx="20" ry="20" style="fill:#fddc04;fill-opacity:1;fill-rule:evenodd;stroke:none;stroke-width:5.22386;stroke-linecap:round;stroke-linejoin:round" transform="rotate(-45)"/>
    <path d="m704.4 156.851 3.053 5.76 4.011-1.47 7.027 6.05 7.973-.151 6.04 5.58 5.07-4.869 5.596-.784 4.201 10.323 6.18-.34 5.285-4.592 12.217-2.198 7.47-7.987 10.69 1.209c11.29-114.157-16.361-201.998-84.166-267.98-74.715-72.704-164.23-77.662-255.373-7.294C401.958-75.05 390.67-19.19 396.086 43.114c.643 7.396-5.612 4.118-9.01.579-11.272-11.746-16.469-25.663-16.961-38.494-.92-24.016-5.204-45.344-14.264-63.13-6.103-11.983-16.03-22.192-20.047-35.03-3.257-10.412 1.267-22.084-1.156-32.72-5.809-25.482-30.932-20.437-45.727-1.687-8.723 11.059-9.537 26.837-14.434 45.4-3.182 12.068-6.974 27.399-16 38.372-9.764 9.498-19.537 14.918-27.072 26.256-2.021 3.045-2.873 10.608.687 9.836 21.689-4.703 42.83-7.372 58.287-1.953 9.334 3.27 19.192 16.025 22.355 25.065 10.081 41.422 19.593 79.746 42.063 117.664 7.314 13.356 3.534 28.339 1.044 41.685-1.83 8.978-1.294 17.96 5.782 26.947 5.846 2.62 9.83 3.89 11.951 5.773 9.143 24.194 23.65.497 21.117-4.26 1.6-12.707 4.129-23.46 2.015-36.158q-1.157-10.54-2.312-21.074c-.92-8.403-.765-8.78 7.002-6.275 20.613 6.638 35.135 12.403 59.016 3.3 7.855 6.63 17.145 14.208 28.092 18.377 5.749 2.188 8.073 4.254 11.745 8.69 14.074 17.015 25.89 13.124 37.988 15.395 26.385 47.472 30.289 88.975 30.483 131.496-28.823 1.055-44.572 10.375-58.348 21.947-3.63 3.051-2.535 8.074 1.766 8.85 7.074 1.282 14.62-1.819 21.573 0 1.993.521-.164 4.443-2.829 6.02-10.732 6.348-25.433 8.068-35.717 19.468-2.93 3.248-2.589 7.786-1.767 11.684l20.864-5.31c-5.183 4.01-8.011 8.963-8.488 14.868 11.318.712 22.81 1.293 33.949-3.187 13.69-5.508 27.293-10.452 41.727-11.68 3.656-.003 5.427 1.41 5.304 4.245-1.765 5.31-1.177 10.617 1.77 15.932 7.282-3.843 14.563-11.833 21.839-19.924 5.35-5.948 4.945-5.738 5.688-13.72 2.6-27.882 5.687-56.215 13.846-86.363 9.105-33.65 27.47-60.42 44.911-85.67 6.813-11.244 12.83-24.272 23.02-32.832 2.157-1.81 4.87-2.599 6.562-4.645zM597.02 288.493c-3.812-36.93-8.272-73.566-15.913-107.616.902-8.852 3.348-13.571 7.072-14.87 5.659 1.772 11.827 2.376 16.975 5.31 6.032 3.44 9.133 3.831 13.084-.709 5.637-6.479 12.436-6.434 11.314-1.06-3.579 17.145-3.496 37.14-9.546 55.932-7.168 22.263-11.448 42.787-22.986 63.013" style="fill:#000;fill-opacity:1;fill-rule:evenodd;stroke:none;stroke-width:4.40564"/>
  </g>
</svg>
