<svg xmlns="http://www.w3.org/2000/svg" viewBox="0 0 555.81 490.156" role="img" aria-labelledby="title">
  <title id="title">Verkehrszeichen R1-2 - Give Way</title>
  <path d="m551.642 40.109-250.168 433.52s-7.453 14.397-23.61 14.397c-16.151 0-23.77-14.398-23.77-14.398L4.766 40.64c-8.68-15.095 5.403-38.533 22.57-38.533H527.17c24.136 0 30.212 25.683 24.473 38.002z" style="fill:#fff;fill-opacity:1;fill-rule:evenodd;stroke:#000;stroke-width:4.23333359;stroke-miterlimit:4;stroke-opacity:1;stroke-dasharray:none"/>
  <path d="m536.016 32.296-247.9 430.218s-4.706 8.847-10.08 8.847c-5.38 0-11.457-8.847-11.457-8.847L19.187 32.827c-3.307-5.905 1.205-17.025 9.715-17.025h496.36c8.344 0 13.89 11.12 10.754 16.494" style="fill:#c0111e;fill-opacity:1;fill-rule:evenodd;stroke:none"/>
  <path d="M276.659 386.127 100.08 67.02h352.964z" style="fill:#fff;fill-opacity:1;fill-rule:evenodd;stroke:none"/>
  <path d="M209.987 114.429c-2.776-5.557-6.774-9.55-14.061-9.55-11.463 0-15.803 12.502-15.803 20.658 0 16.322 5.037 26.74 15.803 26.74 6.076 0 14.58-4.86 14.58-11.982H199.05v-11.977h23.781v12.325c0 5.905-7.636 23.267-26.905 23.267-20.315 0-27.608-18.058-27.608-38.196 0-18.23 11.462-32.988 27.608-32.988 10.588 0 21.354 7.293 24.998 17.533z" style="fill:#000;fill-opacity:1;fill-rule:evenodd;stroke:none"/>
  <path d="M236.72 162.517h11.806V94.114h-11.805z" style="fill:#000;fill-opacity:1;fill-rule:nonzero;stroke:none"/>
  <path d="M286.197 162.517 261.54 94.114h12.502l18.579 51.04 18.573-51.04h12.33l-24.484 68.403zM336.547 94.114h48.956v11.976h-37.151v13.547h20.137v11.977h-20.137v18.92h38.544v11.983h-50.35zM201.477 186.475h8.51l4.163 28.648 7.642-28.648h7.813l7.116 28.648 3.992-28.648h8.68l-7.64 54.69h-7.637l-8.68-34.375-8.51 34.376h-7.808zM274.22 186.475l-18.578 54.69h9.2l5.038-15.454h17.362l5.38 15.455h8.858l-18.75-54.69zm9.898 30.726h-11.114l5.386-16.316zM307.55 186.475h10.247l12.844 21.183 13.193-21.183h9.898l-18.75 31.252v23.439h-8.333v-23.44z" style="fill:#000;fill-opacity:1;fill-rule:evenodd;stroke:none"/>
</svg>
