<svg xmlns="http://www.w3.org/2000/svg" viewBox="0 0 162.969 82" role="img" aria-labelledby="title">
  <title id="title">Verkehrszeichen R5-17 - Parking Permitted: 1 and a Half Hours</title>
  <path d="M7.721.511h147.526c3.972 0 7.22 3.249 7.22 7.222v66.541c0 3.972-3.248 7.22-7.22 7.22H7.721C3.75 81.494.5 78.246.5 74.274V7.733C.5 3.76 3.75.51 7.72.51z" style="fill:#fff;fill-opacity:1;fill-rule:evenodd;stroke:#000;stroke-width:1;stroke-linecap:butt;stroke-linejoin:miter;stroke-miterlimit:2.61299992;stroke-opacity:1;stroke-dasharray:none"/>
  <path d="m111.923 71.24.992-.724c.529.566 1.057.906 1.875.906.456 0 1.628-.167 1.628-.97 0-.796-1.1-.796-1.627-.978-1.238-.404-2.556-.652-2.556-2.258 0-1.383 1.354-2.056 2.54-2.056.86 0 1.962.457 2.548 1.13l-.905.854c-.528-.535-.934-.702-1.642-.702-.434 0-1.304.231-1.318.774 0 .738.818.783 1.686 1.042 1 .297 2.548.564 2.548 2.121 0 1.586-1.65 2.303-2.974 2.303-.877 0-2.375-.652-2.795-1.441M121.588 65.305h1.208l3.04 7.238h-1.36l-.695-1.687h-3.142l-.708 1.687h-1.333zm-.456 4.306h2.128l-1.057-2.57zM126.683 65.305h5.32v1.172h-2.042v6.066h-1.26v-6.066h-2.018zM96.564 30.287h1.202l2.128 4.306 2.07-4.306h1.274v7.238H102v-4.364l-2.106 4.364-2.092-4.306v4.306h-1.238zM107.645 36.41c1.172 0 1.766-1.128 1.766-2.503 0-1.383-.622-2.512-1.766-2.512s-1.766 1.129-1.766 2.512c0 1.375.594 2.504 1.766 2.504m0 1.254c-1.997 0-2.996-1.687-2.996-3.757s1.048-3.765 2.996-3.765 2.996 1.695 2.996 3.765-.999 3.757-2.996 3.757M112.06 30.287h1.187l3.323 4.784v-4.784h1.26v7.238h-1.13l-3.387-4.916v4.916h-1.253z" style="fill:#006330;fill-opacity:1;fill-rule:evenodd;stroke:none"/>
  <path d="M122.45 35.51h5.327v-1.224h-5.328z" style="fill:#006330;fill-opacity:1;fill-rule:nonzero;stroke:none"/>
  <path d="M132.223 30.378h5.32v1.26h-4.097v1.57h2.258v1.237h-2.258v3.17h-1.223zM138.838 30.378h3.482a2.17 2.17 0 0 1 2.193 2.157c0 .738-.477 1.685-1.253 2.019l1.347 3.062h-1.347l-1.287-2.831h-1.897v2.83h-1.238zm1.238 1.238v1.94h2.244c.5 0 .94-.456.94-.963 0-.34-.282-.977-.94-.977z" style="fill:#006330;fill-opacity:1;fill-rule:evenodd;stroke:none"/>
  <path d="M146.019 37.616h1.245v-7.238h-1.245z" style="fill:#006330;fill-opacity:1;fill-rule:nonzero;stroke:none"/>
  <path d="M89.523 27.17v-3.122c3.732 0 6.148-1.245 8.042-4.886-1.136.649-3.57.667-4.31.667-3.462 0-6.383-2.075-6.383-5.68 0-3.21 3.3-5.356 6.906-5.356 4.13 0 7.411 1.838 7.411 6.744 0 4.346-1.028 5.86-2.542 7.718-2.164 2.615-5.067 3.916-9.124 3.916m4.364-10.48c2.128 0 3.894-.612 3.894-2.38 0-1.82-1.766-2.416-3.894-2.416-2.2 0-3.932.776-3.932 2.417 0 1.659 1.732 2.38 3.932 2.38M96.015 61.367v-3.123c3.732 0 6.148-1.245 8.041-4.886-1.135.648-3.57.667-4.31.667-3.46 0-6.382-2.074-6.382-5.68 0-3.21 3.3-5.356 6.906-5.356 4.13 0 7.411 1.838 7.411 6.744 0 4.346-1.028 5.86-2.542 7.718-2.164 2.615-5.067 3.916-9.124 3.916m4.364-10.48c2.128 0 3.894-.613 3.894-2.38 0-1.821-1.766-2.417-3.894-2.417-2.2 0-3.932.776-3.932 2.417 0 1.658 1.732 2.38 3.932 2.38M145.297 21.367h2.648c.837 0 1.71.721 1.71 1.573 0 .89-.66 1.753-1.578 1.753h-1.824v2.134h-.956zm.907.95v1.447h1.74c.443 0 .755-.251.755-.727 0-.463-.393-.72-.785-.72zM150.713 21.367h.906l1.606 3.248 1.562-3.248h.96v5.46h-.934v-3.293l-1.588 3.293-1.578-3.248v3.248h-.934zM103.025 21.367h.911l2.294 5.46h-1.026l-.525-1.272h-2.369l-.536 1.272h-1.004zm-.343 3.248h1.604l-.797-1.937zM107.279 21.367h.906l1.606 3.248 1.561-3.248h.96v5.46h-.933v-3.293l-1.588 3.293-1.578-3.248v3.248h-.934zM109.424 55.563h.911l2.295 5.46h-1.027l-.525-1.272h-2.368l-.537 1.272h-1.003zm-.343 3.248h1.604l-.797-1.937zM113.678 55.563h.906l1.606 3.248 1.562-3.248h.96v5.46h-.934v-3.291l-1.588 3.291-1.578-3.248v3.248h-.934zM134.326 56.705h.708l1.98 2.854v-2.854h.753v4.318h-.673l-2.02-2.931v2.931h-.748zM140.395 60.358c.7 0 1.053-.673 1.053-1.494 0-.825-.371-1.499-1.053-1.499s-1.053.674-1.053 1.5c0 .82.353 1.493 1.053 1.493m0 .748c-1.192 0-1.788-1.007-1.788-2.242 0-1.234.626-2.245 1.788-2.245 1.16 0 1.788 1.01 1.788 2.245s-.596 2.242-1.788 2.242M144.58 60.358c.7 0 1.052-.673 1.052-1.494 0-.825-.371-1.499-1.053-1.499s-1.053.674-1.053 1.5c0 .82.353 1.493 1.053 1.493m0 .748c-1.192 0-1.788-1.007-1.788-2.242 0-1.234.625-2.245 1.787-2.245s1.788 1.01 1.788 2.245-.596 2.242-1.788 2.242M147.212 56.705h.708l1.983 2.854v-2.854h.75v4.318h-.673l-2.02-2.931v2.931h-.748z" style="fill:#006330;fill-opacity:1;fill-rule:evenodd;stroke:none"/>
  <path d="M114.576 21.199h9.034v-2.416h-9.034zM121.799 55.395h9.034v-2.416H121.8z" style="fill:#006330;fill-opacity:1;fill-rule:nonzero;stroke:none"/>
  <path d="m137.554 13.12-6.817 7.16h6.817zm.055-4.327h3.01v11.486h2.651v2.904h-2.65v3.643h-3.066v-3.643h-10.909v-2.777zM135.899 55.627V46.09h-1.575v-1.84c.8-.103 1.601-.61 1.97-1.32h1.802v12.697zM140.573 44.68c1.296-1.206 3.328-2.005 5.068-2.005 2.438 0 4.99 1.245 4.99 3.961 0 1.994-1.867 3.264-2.996 3.454-2.656.432-4.015 2.134-4.307 3.276h7.367v2.261h-10.07c0-3.187 1.891-5.995 4.672-7.162 1.524-.66 3.163-.381 3.163-2.02 0-.774-1.283-1.562-2.616-1.562-1.182 0-2.896.395-3.81 1.448zM47.026 7.503h17.487c5.514 0 11.283 4.76 11.283 10.385 0 5.876-4.362 11.572-10.419 11.572H53.335v14.096h-6.31zm5.985 6.274v9.554h11.502c2.92 0 4.975-1.659 4.975-4.795 0-3.065-2.597-4.759-5.193-4.759zM21.657 25.553V12.015h-2.235V9.402c1.136-.144 2.272-.865 2.795-1.875h2.558v18.026zM29.567 28.02c1.839-1.711 4.723-2.848 7.194-2.848 3.46 0 7.082 1.768 7.082 5.625 0 2.83-2.649 4.632-4.253 4.902-3.767.614-5.697 3.03-6.11 4.652h10.454v3.209H29.64c0-4.525 2.685-8.51 6.634-10.168 2.162-.936 4.488-.54 4.488-2.866 0-1.099-1.82-2.216-3.714-2.216-1.677 0-4.11.557-5.408 2.055zM20.883 34.148l18.12-16.487-1.48-1.622-18.117 16.485zM10.73 43.556V16.481H6.26v-5.227c2.272-.29 4.543-1.732 5.588-3.75h5.12v36.052zM13.178 71.127l7.185-5.748h7.904l-4.49 3.592h34.485l-4.49-3.592h7.901l7.187 5.748-7.187 5.747h-7.901l4.49-3.592H23.777l4.49 3.592h-7.904z" style="fill:#006330;fill-opacity:1;fill-rule:evenodd;stroke:none"/>
</svg>
