<svg xmlns="http://www.w3.org/2000/svg" xmlns:xlink="http://www.w3.org/1999/xlink" viewBox="0 0 1206 1141" role="img" aria-labelledby="title">
  <title id="title">Verkehrszeichen R4-235-1-N - School Zone (Non-standard school operating hours, used in NSW)</title>
  <defs>
    <radialGradient xlink:href="#a" id="c" cx="0" cy="0" r="1" fx="0" fy="0" gradientTransform="matrix(75.00312 0 0 -74.99897 119.999 -636.998)" gradientUnits="userSpaceOnUse" spreadMethod="pad"/>
    <radialGradient id="a" cx="0" cy="0" r="1" fx="0" fy="0" gradientTransform="translate(2428.52 -1626.21)scale(84.0606)" gradientUnits="userSpaceOnUse" spreadMethod="pad">
      <stop offset="0" style="stop-opacity:1;stop-color:#fff533"/>
      <stop offset="1" style="stop-opacity:1;stop-color:#f89c0e"/>
    </radialGradient>
    <radialGradient xlink:href="#b" id="d" cx="0" cy="0" r="1" fx="0" fy="0" gradientTransform="matrix(75.00312 0 0 -74.99897 1085.999 -636.998)" gradientUnits="userSpaceOnUse" spreadMethod="pad"/>
    <radialGradient id="b" cx="0" cy="0" r="1" fx="0" fy="0" gradientTransform="translate(2428.52 -1626.21)scale(84.0606)" gradientUnits="userSpaceOnUse" spreadMethod="pad">
      <stop offset="0" style="stop-opacity:1;stop-color:#fff533"/>
      <stop offset="1" style="stop-opacity:1;stop-color:#f89c0e"/>
    </radialGradient>
  </defs>
  <g transform="translate(0 844)">
    <rect width="1204" height="1139" x="1" y="-843" rx="62" ry="62" style="opacity:1;fill:#000;fill-opacity:1;fill-rule:nonzero;stroke:none;stroke-width:223.67681885;stroke-linecap:square;stroke-linejoin:round;stroke-miterlimit:4;stroke-dasharray:none;stroke-opacity:1"/>
    <rect width="1200" height="1135" x="3" y="-841" rx="60" ry="60" style="opacity:1;fill:#fff;fill-opacity:1;fill-rule:nonzero;stroke:none;stroke-width:222.9125061;stroke-linecap:square;stroke-linejoin:round;stroke-miterlimit:4;stroke-dasharray:none;stroke-opacity:1"/>
    <path d="M63 286c-28.808 0-52-23.192-52-52V-781c0-28.808 23.192-52 52-52h1080c28.808 0 52 23.192 52 52v340H603v675c0 28.808-23.192 52-52 52z" style="opacity:1;fill:#000;fill-opacity:1;fill-rule:nonzero;stroke:none;stroke-width:6.56473589;stroke-linecap:square;stroke-linejoin:round;stroke-miterlimit:4;stroke-dasharray:none;stroke-opacity:1"/>
    <path d="M587-441v675c0 19.944-16.056 36-36 36H63c-19.944 0-36-16.056-36-36v-675z" style="opacity:1;fill:#fff;fill-opacity:1;fill-rule:nonzero;stroke:none;stroke-width:6.65679502;stroke-linecap:square;stroke-linejoin:round;stroke-miterlimit:4;stroke-dasharray:none;stroke-opacity:1"/>
    <path d="M229-817v366h748v-366z" style="opacity:1;fill:#e67814;fill-opacity:1;fill-rule:nonzero;stroke:none;stroke-width:6.17984104;stroke-linecap:square;stroke-linejoin:round;stroke-miterlimit:4;stroke-dasharray:none;stroke-opacity:1"/>
    <circle cx="903" cy="-73.5" r="295" style="opacity:1;fill:#be121e;fill-opacity:1;fill-rule:nonzero;stroke:none;stroke-width:105.97939301;stroke-linecap:square;stroke-linejoin:round;stroke-miterlimit:4;stroke-dasharray:none;stroke-opacity:1"/>
    <circle cx="903" cy="-73.5" r="245" style="opacity:1;fill:#fff;fill-opacity:1;fill-rule:nonzero;stroke:none;stroke-width:88.01678467;stroke-linecap:square;stroke-linejoin:round;stroke-miterlimit:4;stroke-dasharray:none;stroke-opacity:1"/>
    <path d="M860.024-15.402V42.35h-36.311v-57.752H708.9V-37.19L823.713-189.35h36.31v140.749h22.133v33.199zm-36.311-120.346L757.66-48.6h66.052zM1097.1-73.154q0 27.665-6.571 52.91t-18.674 40.807Q1052.489 46.5 1015.83 46.5q-24.553 0-40.46-10.029t-26.283-31.47q-7.262-14.87-11.758-35.965-4.496-21.441-4.496-42.19 0-28.703 6.571-53.257 6.916-24.553 18.674-41.152 10.375-13.142 24.554-19.366 14.524-6.571 34.582-6.571 22.132 0 37.694 10.029t26.629 31.47q7.262 15.561 11.412 36.31t4.15 42.537m-36.658 0q0-19.712-3.458-36.312-3.458-16.945-10.374-28.703-5.534-8.991-12.796-13.14-6.916-4.15-17.29-4.842-13.488-.692-22.48 6.224-8.99 6.917-14.87 22.479-4.495 10.374-6.916 25.245-2.075 14.524-2.075 29.049 0 18.674 3.458 35.965t10.375 28.357Q989.549.16 997.157 4.656t18.674 4.495q12.796 0 21.095-6.916 8.646-6.917 14.525-22.479 1.73-4.495 3.458-10.72 1.73-6.57 2.767-13.487 1.383-7.262 2.075-14.525.691-7.262.691-14.178" style="font-style:normal;font-variant:normal;font-weight:400;font-stretch:normal;font-size:345.82131958px;line-height:0;font-family:&quot;Roadgeek 2005 Series D&quot;;-inkscape-font-specification:&quot;Roadgeek 2005 Series D&quot;;letter-spacing:0;word-spacing:0;fill:#000;fill-opacity:1;stroke:none;stroke-width:8.64553261"/>
    <g aria-label="SCHOOL" style="font-style:normal;font-variant:normal;font-weight:400;font-stretch:normal;font-size:144.09222412px;line-height:0;font-family:&quot;Roadgeek 2005 Series EM&quot;;-inkscape-font-specification:&quot;Roadgeek 2005 Series EM&quot;;letter-spacing:6.62252092px;word-spacing:0;fill:#000;fill-opacity:1;stroke:none;stroke-width:3.60230541">
      <path d="M376.242 158.115q0-7.637-3.746-14.409-3.747-6.628-10.087-10.23-4.323-2.594-11.239-4.035T337.337 128q-8.213 0-15.85 2.161-7.637 2.306-13.977 6.629-2.306 1.296-4.323 2.881-1.873 1.585-5.187 4.611l13.545 13.545q6.051-5.62 12.103-8.07 6.196-2.449 14.698-2.449 8.357 0 13.544 2.738 5.332 2.738 5.332 7.781 0 2.017-1.153 4.467t-3.17 3.746q-1.297.72-2.738 1.297-1.44.72-3.602 1.297-2.017.576-5.187 1.153-3.026.72-7.781 1.585-7.781 1.873-12.536 3.458-4.755 1.729-7.781 3.746-4.9 3.314-7.781 9.078-2.738 5.764-2.738 11.816 0 7.348 3.458 13.689 3.602 6.34 10.087 10.086 4.034 2.45 8.933 3.602 4.9 1.153 11.384 1.153 8.213 0 15.562-1.873 7.492-1.873 13.544-5.62 1.585-1.008 2.594-1.873 1.153-.72 3.458-2.594l-11.815-15.13q-5.908 4.323-11.528 6.053t-12.536 1.729q-6.628 0-10.519-2.306-3.746-2.305-3.746-6.916 0-1.73 1.009-3.603 1.008-1.729 2.737-2.45 1.297-.72 2.738-1.152 1.441-.288 3.026-.864l3.026-.289 3.458-.72 4.323-.72q17.003-3.026 25.648-10.952 8.646-7.78 8.646-20.605M481.2 149.326q-6.483-10.23-15.129-15.85Q457.57 128 444.889 128q-10.518 0-18.443 4.179-7.781 4.322-13.113 11.383-5.187 7.06-7.78 15.994-2.594 9.078-2.594 18.588 0 11.24 3.026 20.317 3.17 9.222 8.79 15.706 5.619 6.628 13.4 10.23Q436.1 228 445.61 228q5.764 0 11.095-1.441 5.331-1.44 9.942-4.179 4.611-2.593 8.214-6.628 3.746-3.89 6.34-8.79l-17.003-9.077q-3.314 5.475-8.358 8.069-5.043 2.738-10.95 2.738-5.188 0-9.367-2.162-4.178-2.161-7.204-6.196-2.882-3.89-4.467-9.654-1.585-5.62-1.585-12.536 0-7.06 1.585-12.824 1.585-5.62 4.467-9.654 3.026-4.035 7.204-6.196 4.18-2.162 9.366-2.162 5.908 0 10.951 2.738 5.044 2.882 8.358 8.502zM567.957 129.73v42.362h-39.914V129.73h-19.02v96.542h19.02V191.4h39.914v34.87h19.02v-96.542zM697.564 178.144q0-11.527-2.882-20.893-2.882-9.222-8.213-15.706-5.187-6.484-12.68-10.087-7.493-3.458-16.57-3.458-10.952 0-18.733 4.179-7.637 4.322-12.536 11.383t-7.204 15.994q-2.162 9.078-2.162 18.588 0 11.383 2.738 20.605 2.882 9.222 8.07 15.706 5.33 6.484 12.823 9.943Q647.852 228 657.218 228q8.79 0 16.139-3.602 7.348-3.603 12.68-10.23 5.475-6.485 8.501-15.707 3.026-9.078 3.026-20.317m-19.02.432q0 15.706-5.62 22.911-5.475 7.205-15.706 7.205-10.374 0-15.85-7.637t-5.475-22.911q0-14.841 5.475-22.91 5.62-7.926 15.85-7.926 9.943 0 15.562 8.502 5.764 8.501 5.764 22.766M804.376 178.144q0-11.527-2.882-20.893-2.882-9.222-8.213-15.706-5.188-6.484-12.68-10.087Q773.107 128 764.03 128q-10.951 0-18.732 4.179-7.637 4.322-12.536 11.383-4.9 7.06-7.205 15.994-2.161 9.078-2.161 18.588 0 11.383 2.738 20.605 2.881 9.222 8.069 15.706 5.331 6.484 12.824 9.943Q754.664 228 764.03 228q8.79 0 16.138-3.602 7.349-3.603 12.68-10.23 5.476-6.485 8.502-15.707 3.026-9.078 3.026-20.317m-19.02.432q0 15.706-5.62 22.911-5.476 7.205-15.706 7.205-10.375 0-15.85-7.637-5.476-7.637-5.476-22.911 0-14.841 5.476-22.91 5.62-7.926 15.85-7.926 9.942 0 15.562 8.502 5.764 8.501 5.764 22.766M834.242 129.73v96.829h19.02v-78.53H906v-18.3z" style="font-style:normal;font-variant:normal;font-weight:400;font-stretch:normal;line-height:0;font-family:&quot;Roadgeek 2005 Series EM&quot;;-inkscape-font-specification:&quot;Roadgeek 2005 Series EM&quot;;letter-spacing:6.62252092px;fill:#000;stroke:none;stroke-width:3.60230541" transform="matrix(1 0 0 -1 1 -544)"/>
      <g aria-label="ZONE" style="font-style:normal;font-variant:normal;font-weight:400;font-stretch:normal;font-size:144.09222412px;line-height:0;font-family:&quot;Roadgeek 2005 Series EM&quot;;-inkscape-font-specification:&quot;Roadgeek 2005 Series EM&quot;;letter-spacing:11.9485836px;word-spacing:0;fill:#000;fill-opacity:1;stroke:none;stroke-width:12.97660542">
        <path d="M407.006-25.27v19.596l53.89 57.925h-50.864v19.308h74.928V50.234L432.366-5.962h52.594v-19.309zM594.137 23.144q0-11.527-2.882-20.893-2.882-9.222-8.213-15.706-5.187-6.484-12.68-10.087Q562.869-27 553.792-27q-10.952 0-18.733 4.179-7.637 4.323-12.536 11.383T515.32 4.556q-2.162 9.078-2.162 18.588 0 11.383 2.738 20.605 2.882 9.222 8.069 15.706 5.331 6.485 12.824 9.943Q544.425 73 553.791 73q8.79 0 16.138-3.602 7.35-3.603 12.68-10.23 5.476-6.485 8.502-15.707 3.026-9.078 3.026-20.317m-19.02.432q0 15.706-5.62 22.911-5.475 7.205-15.706 7.205-10.374 0-15.85-7.637t-5.475-22.91q0-14.842 5.475-22.911 5.62-7.926 15.85-7.926 9.943 0 15.562 8.502 5.764 8.501 5.764 22.766M690.71-25.27l-42.363 61.959v-61.96h-19.02v96.83h19.02l39.913-59.222V71.56h19.02v-96.83zM746.248-25.27v96.83h70.462V52.25h-51.441V36.4h29.106V17.093H765.27V-5.962h52.737v-19.309z" style="font-style:normal;font-variant:normal;font-weight:400;font-stretch:normal;line-height:0;font-family:&quot;Roadgeek 2005 Series EM&quot;;-inkscape-font-specification:&quot;Roadgeek 2005 Series EM&quot;;letter-spacing:11.9485836px;fill:#000;fill-opacity:1;stroke:none;stroke-width:12.97660542" transform="matrix(1 0 0 -1 -9.006 -544)"/>
      </g>
      <g aria-label="SCHOOL" style="font-style:normal;font-variant:normal;font-weight:400;font-stretch:normal;font-size:115.27377319px;line-height:0;font-family:&quot;Roadgeek 2005 Series E&quot;;-inkscape-font-specification:&quot;Roadgeek 2005 Series E&quot;;letter-spacing:-.8281458px;word-spacing:0;fill:#000;fill-opacity:1;stroke:none;stroke-width:10.38128376">
        <path d="M140.363-83.138q0-11.758-10.836-18.098-4.034-2.536-9.106-3.92-5.072-1.268-10.49-1.268-10.029 0-17.752 3.574Q84.57-99.161 78-91.553l11.066 8.645q4.38-5.072 9.222-7.377 4.842-2.306 11.412-2.306 7.378 0 12.104 2.767 4.726 2.882 4.726 7.262 0 4.611-4.841 7.032-2.075.807-4.38 1.614-2.19.806-4.842 1.383l-3.574 1.037-3.573.807-3.689 1.153q-5.994 1.383-9.452 2.997-3.343 1.73-5.764 4.496-2.42 2.651-3.689 5.994-1.152 3.343-1.152 7.032 0 4.841 1.96 8.76 1.959 3.92 5.417 6.686 3.458 2.882 8.3 4.38 4.957 1.615 10.836 1.615 8.645 0 15.677-2.882 7.147-2.882 13.026-8.992l-10.26-9.221q-7.262 7.608-18.443 7.608-5.88 0-9.222-2.19-3.228-2.076-3.228-5.764 0-1.614.576-2.882.577-1.153 1.96-2.19 1.383-.923 3.689-1.73 2.42-.806 5.994-1.613 7.723-1.614 12.91-3.228t8.416-3.228q5.187-2.65 8.184-7.838 2.997-5.072 2.997-11.412M215.128-89.94q-2.075-4.034-5.303-7.262-3.228-3.112-7.147-5.302-3.804-2.19-8.3-3.343-4.495-1.153-9.106-1.153-7.608 0-13.718 2.882-5.994 2.882-10.26 8.069-4.264 5.303-6.57 12.68-2.19 7.493-2.19 16.484 0 9.107 2.19 16.484 2.306 7.378 6.57 12.565 4.266 5.188 10.26 7.954Q177.664-27 185.272-27q9.337 0 17.29-4.496 8.07-4.38 12.566-12.565l-12.22-6.57q-1.613 2.42-2.766 3.573-1.037 1.153-2.651 2.19-2.306 1.845-5.764 2.882-3.343 1.153-6.455 1.153-5.303 0-8.876-2.42-3.574-2.306-5.764-5.995t-3.113-8.3q-.922-4.495-.922-8.99 0-12.681 4.957-19.713 4.957-6.916 13.718-6.916 2.651 0 4.726.46 2.19.577 4.15 1.615 2.075 1.153 4.15 2.997 2.074 1.96 4.61 4.726zM280.557-105.617v33.89l-34.698-.23v-33.66h-13.833v77.234h13.833V-58.24h34.698v29.856h13.832v-77.234zM375.965-66.539q0-9.107-2.306-16.6-2.19-7.377-6.34-12.68-4.15-5.302-10.144-8.3Q351.296-107 343.92-107q-8.53 0-14.755 3.458-6.11 3.574-10.144 9.222-4.035 5.764-5.995 12.91-1.844 7.263-1.844 14.525 0 9.222 2.19 16.6 2.306 7.377 6.57 12.565 4.266 5.187 10.26 7.953Q336.311-27 343.92-27q7.147 0 13.026-2.882t10.144-8.069 6.57-12.565q2.306-7.262 2.306-16.023m-13.833-.346q0 12.22-4.726 19.136t-13.487 6.916-13.718-6.916-4.957-19.136q0-12.45 4.957-19.366t13.718-6.916q5.533 0 8.991 2.42 3.574 2.421 5.533 6.225 2.075 3.804 2.882 8.415.807 4.727.807 9.222M455.288-66.539q0-9.107-2.305-16.6-2.19-7.377-6.34-12.68-4.15-5.302-10.145-8.3Q430.62-107 423.242-107q-8.53 0-14.755 3.458-6.11 3.574-10.144 9.222-4.035 5.764-5.994 12.91-1.845 7.263-1.845 14.525 0 9.222 2.19 16.6 2.306 7.377 6.571 12.565t10.26 7.953Q415.633-27 423.241-27q7.147 0 13.026-2.882t10.144-8.069 6.57-12.565q2.306-7.262 2.306-16.023m-13.833-.346q0 12.22-4.726 19.136t-13.487 6.916-13.718-6.916-4.956-19.136q0-12.45 4.956-19.366t13.718-6.916q5.533 0 8.991 2.42 3.574 2.421 5.533 6.225 2.075 3.804 2.882 8.415.807 4.727.807 9.222M472.248-105.617v77.234h13.833v-65.36H530v-11.874z" style="font-style:normal;font-variant:normal;font-weight:400;font-stretch:normal;line-height:0;font-family:&quot;Roadgeek 2005 Series E&quot;;-inkscape-font-specification:&quot;Roadgeek 2005 Series E&quot;;letter-spacing:-.8281458px;fill:#000;stroke:none;stroke-width:10.38128376" transform="matrix(1 0 0 -1 3 -3)"/>
        <g aria-label="DAYS" style="font-style:normal;font-variant:normal;font-weight:400;font-stretch:normal;font-size:116.95906067px;line-height:0;font-family:&quot;Roadgeek 2005 Series E&quot;;-inkscape-font-specification:&quot;Roadgeek 2005 Series E&quot;;letter-spacing:2.43152094px;word-spacing:0;fill:#000;fill-opacity:1;stroke:none;stroke-width:30.35463142">
          <path d="M196.663 673.834q0 11.812-4.795 20.584t-14.152 14.035q-4.094 2.34-8.889 3.51t-9.59 1.169h-25.264v-78.363h25.263q10.059 0 18.714 4.913 9.123 5.263 13.918 13.918 4.795 8.538 4.795 20.234m-14.035 0q0-7.954-2.924-13.334-2.807-5.38-8.655-8.655-5.38-3.04-11.813-3.04h-10.994v50.292h10.994q6.2 0 11.346-3.041 12.046-6.316 12.046-22.222M274.82 713.132l-7.719-18.48H232.95l-7.602 18.48h-15.439l32.983-78.363h14.269l32.748 78.363zm-24.795-58.83-10.994 26.432h21.988zM345.706 681.202v31.93H331.67v-31.93l-32.983-46.433h17.31l22.807 31.93 22.573-31.93h17.31zM452.973 690.325q0 11.93-10.994 18.362-4.094 2.574-9.24 3.977-5.146 1.287-10.643 1.287-10.175 0-18.012-3.626-7.719-3.743-14.386-11.462l11.228-8.772q4.445 5.146 9.357 7.485t11.579 2.34q7.485 0 12.28-2.808 4.796-2.923 4.796-7.368 0-4.678-4.912-7.134-2.105-.82-4.445-1.638-2.222-.819-4.912-1.403l-3.626-1.053-3.625-.819-3.743-1.17q-6.082-1.403-9.59-3.04-3.393-1.755-5.849-4.562-2.456-2.69-3.742-6.082-1.17-3.391-1.17-7.134 0-4.912 1.988-8.889 1.989-3.977 5.497-6.784 3.51-2.924 8.422-4.444 5.029-1.637 10.994-1.637 8.772 0 15.906 2.924 7.252 2.924 13.216 9.122l-10.409 9.357q-7.368-7.72-18.713-7.72-5.965 0-9.357 2.223-3.275 2.105-3.275 5.848 0 1.637.585 2.924.585 1.17 1.988 2.222 1.404.936 3.743 1.755 2.456.818 6.082 1.637 7.836 1.637 13.1 3.275 5.262 1.637 8.537 3.275 5.263 2.69 8.304 7.953 3.041 5.146 3.041 11.579" style="font-style:normal;font-variant:normal;font-weight:400;font-stretch:normal;line-height:0;font-family:&quot;Roadgeek 2005 Series E&quot;;-inkscape-font-specification:&quot;Roadgeek 2005 Series E&quot;;letter-spacing:2.43152094px;fill:#000;fill-opacity:1;stroke:none;stroke-width:30.35463142" transform="translate(13.027 -489.95)"/>
        </g>
      </g>
      <g aria-label="8" style="font-style:normal;font-variant:normal;font-weight:400;font-stretch:normal;font-size:230.54754639px;line-height:0;font-family:&quot;Roadgeek 2005 Series C&quot;;-inkscape-font-specification:&quot;Roadgeek 2005 Series C&quot;;letter-spacing:0;word-spacing:0;fill:#000;fill-opacity:1;stroke:none;stroke-width:20.76256752">
        <g aria-label="AM" style="font-style:normal;font-variant:normal;font-weight:400;font-stretch:normal;font-size:89.55223846px;line-height:0;font-family:&quot;Roadgeek 2005 Series C&quot;;-inkscape-font-specification:&quot;Roadgeek 2005 Series C&quot;;letter-spacing:-.21431249px;word-spacing:0;fill:red;fill-opacity:1;stroke:none;stroke-width:46.48336029">
          <path d="m507.084 378.419 4.209-16.388h12.895l3.94 16.388h8.687l-14.955-60h-8.418l-14.955 60zm10.746-42.09 4.209 17.284h-8.597zM459.501 378.419v-33.672l11.105 33.672 11.194-33.672v33.672h8.597v-60H481.8l-11.194 33.672-11.105-33.672h-8.686v60z" style="font-style:normal;font-variant:normal;font-weight:400;font-stretch:normal;line-height:0;font-family:&quot;Roadgeek 2005 Series C&quot;;-inkscape-font-specification:&quot;Roadgeek 2005 Series C&quot;;letter-spacing:-.21431249px;fill:#be121e;stroke:none;stroke-width:46.48336029;fill-opacity:1" transform="matrix(-1 0 0 1 1018.315 -624.419)"/>
        </g>
        <g aria-label="30" style="font-style:normal;font-variant:normal;font-weight:400;font-stretch:normal;font-size:115.27377319px;line-height:0;font-family:&quot;Roadgeek 2005 Series C&quot;;-inkscape-font-specification:&quot;Roadgeek 2005 Series C&quot;;letter-spacing:.0396875px;word-spacing:0;fill:#f55;fill-opacity:1;stroke:none;stroke-width:59.83448792">
          <path d="M277.746 1691.602h40v20h-40z" style="opacity:1;fill:#be121e;fill-opacity:1;fill-rule:nonzero;stroke:none;stroke-width:4.05626106;stroke-linecap:square;stroke-linejoin:round;stroke-miterlimit:4;stroke-dasharray:none;stroke-opacity:1" transform="translate(4.754 -1812.602)"/>
        </g>
        <g aria-label="PM" style="font-style:normal;font-variant:normal;font-weight:400;font-stretch:normal;font-size:89.55223846px;line-height:0;font-family:&quot;Roadgeek 2005 Series C&quot;;-inkscape-font-specification:&quot;Roadgeek 2005 Series C&quot;;letter-spacing:0;word-spacing:0;fill:red;fill-opacity:1;stroke:none;stroke-width:46.48336029">
          <path d="M515.417 1748.738q0 8.238-4.12 12.537-4.029 4.298-11.64 4.298h-9.314v26.329h-8.597v-60h17.91q3.493 0 6.358 1.254 2.956 1.164 5.015 3.403 2.15 2.149 3.224 5.283 1.164 3.134 1.164 6.896m-8.418 0q0-3.762-2.149-6.09t-5.642-2.328h-8.865v17.015h8.865q3.762 0 5.732-2.24 2.06-2.238 2.06-6.357M554.059 1791.902v-33.672l-11.105 33.672-11.194-33.672v33.672h-8.597v-60h8.597l11.194 33.671 11.105-33.671h8.686v60z" style="font-style:normal;font-variant:normal;font-weight:400;font-stretch:normal;line-height:0;font-family:&quot;Roadgeek 2005 Series C&quot;;-inkscape-font-specification:&quot;Roadgeek 2005 Series C&quot;;fill:#be121e;stroke:none;stroke-width:46.48336029;fill-opacity:1" transform="translate(4.754 -1822.902)"/>
        </g>
        <g aria-label="30" style="font-style:normal;font-variant:normal;font-weight:400;font-stretch:normal;font-size:115.27377319px;line-height:0;font-family:&quot;Roadgeek 2005 Series C&quot;;-inkscape-font-specification:&quot;Roadgeek 2005 Series C&quot;;letter-spacing:.0396875px;word-spacing:0;fill:#f55;fill-opacity:1;stroke:none;stroke-width:59.83448792">
          <path d="M277.746 1691.602h40v20h-40z" style="opacity:1;fill:#be121e;fill-opacity:1;fill-rule:nonzero;stroke:none;stroke-width:4.05626106;stroke-linecap:square;stroke-linejoin:round;stroke-miterlimit:4;stroke-dasharray:none;stroke-opacity:1" transform="translate(4.754 -2027.602)"/>
        </g>
      </g>
    </g>
    <path d="M156-189.5h97v77h-97zM469-189.5h97v77h-97z" style="opacity:1;fill:none;fill-opacity:1;fill-rule:nonzero;stroke:#be121e;stroke-width:3;stroke-linecap:square;stroke-linejoin:round;stroke-miterlimit:4;stroke-dasharray:9,9;stroke-dashoffset:0;stroke-opacity:1"/>
    <path d="M48-189.5h85v157H48z" style="opacity:1;fill:none;fill-opacity:1;fill-rule:nonzero;stroke:#be121e;stroke-width:3.0000174;stroke-linecap:square;stroke-linejoin:round;stroke-miterlimit:4;stroke-dasharray:9.00005224,9.00005224000000048;stroke-dashoffset:0;stroke-opacity:1"/>
    <path d="M352-189.5h94v157h-94zM156-404.5h97v77h-97zM469-404.5h97v77h-97z" style="opacity:1;fill:none;fill-opacity:1;fill-rule:nonzero;stroke:#be121e;stroke-width:3;stroke-linecap:square;stroke-linejoin:round;stroke-miterlimit:4;stroke-dasharray:9,9;stroke-dashoffset:0;stroke-opacity:1"/>
    <path d="M48-404.5h85v157H48z" style="opacity:1;fill:none;fill-opacity:1;fill-rule:nonzero;stroke:#be121e;stroke-width:3.0000174;stroke-linecap:square;stroke-linejoin:round;stroke-miterlimit:4;stroke-dasharray:9.00005224,9.00005224000000048;stroke-dashoffset:0;stroke-opacity:1"/>
    <path d="M352-404.5h94v157h-94z" style="opacity:1;fill:none;fill-opacity:1;fill-rule:nonzero;stroke:#be121e;stroke-width:3;stroke-linecap:square;stroke-linejoin:round;stroke-miterlimit:4;stroke-dasharray:9,9;stroke-dashoffset:0;stroke-opacity:1"/>
    <path d="M45-637c0-41.432 33.575-75 75-75 41.421 0 75 33.568 75 75 0 41.41-33.579 75-75 75-41.425 0-75-33.59-75-75" style="display:inline;fill:url(#c);stroke:none;stroke-width:3.98194194"/>
    <path d="M1011-637c0-41.432 33.574-75 75-75 41.421 0 75 33.568 75 75 0 41.41-33.579 75-75 75-41.426 0-75-33.59-75-75" style="display:inline;fill:url(#d);stroke:none;stroke-width:3.98194194"/>
  </g>
</svg>
