<svg xmlns="http://www.w3.org/2000/svg" viewBox="0 0 802 1452" role="img" aria-labelledby="title">
  <title id="title">Verkehrszeichen R4-Q03-QLD - School Zone Ahead (used in QLD)</title>
  <g transform="translate(0 1155)">
    <rect width="800" height="1450" x="1" y="-1154" rx="100" ry="100" style="opacity:1;fill:#f54b05;fill-opacity:1;fill-rule:nonzero;stroke:none;stroke-width:69.7713623;stroke-linecap:square;stroke-linejoin:round;stroke-miterlimit:4;stroke-dasharray:none;stroke-dashoffset:0;stroke-opacity:1"/>
    <rect width="600" height="1250" x="101" y="-1054" rx="50" ry="50" style="opacity:1;fill:#fff;fill-opacity:1;fill-rule:nonzero;stroke:none;stroke-width:56.10206223;stroke-linecap:square;stroke-linejoin:round;stroke-miterlimit:4;stroke-dasharray:none;stroke-dashoffset:0;stroke-opacity:1"/>
    <rect width="588" height="392" x="107" y="-1048" rx="44" ry="44" style="opacity:1;fill:#000;fill-opacity:1;fill-rule:nonzero;stroke:none;stroke-width:26.76968956;stroke-linecap:square;stroke-linejoin:round;stroke-miterlimit:4;stroke-dasharray:none;stroke-dashoffset:0;stroke-opacity:1"/>
    <rect width="564" height="368" x="119" y="-1036" rx="32" ry="32" style="opacity:1;fill:#cdff00;fill-opacity:1;fill-rule:nonzero;stroke:none;stroke-width:25.40242004;stroke-linecap:square;stroke-linejoin:round;stroke-miterlimit:4;stroke-dasharray:none;stroke-dashoffset:0;stroke-opacity:1"/>
    <g aria-label="SCHOOL" style="font-style:normal;font-variant:normal;font-weight:400;font-stretch:normal;font-size:144.09222412px;line-height:0;font-family:&quot;Roadgeek 2005 Series D&quot;;-inkscape-font-specification:&quot;Roadgeek 2005 Series D&quot;;letter-spacing:1.61924994px;word-spacing:0;fill:#000;fill-opacity:1;stroke:none;stroke-width:3.60230541">
      <path d="M109.706 41.461q0 6.628-2.45 12.248t-7.06 9.798q-4.035 3.603-9.51 5.62Q85.354 71 79.158 71q-12.536 0-21.47-6.628Q48.9 57.599 44 46.504l14.553-5.331q3.026 6.916 8.358 10.663 5.331 3.602 12.247 3.602 6.773 0 10.807-4.035 4.18-4.178 4.18-10.23 0-4.755-2.595-7.781-2.45-3.026-6.484-5.043-4.034-2.162-8.933-3.747-4.755-1.585-9.51-3.458-2.162-.864-5.332-2.45-3.17-1.584-6.196-4.322-2.882-2.882-5.043-7.06-2.017-4.18-2.017-10.231 0-7.06 2.305-11.96 2.306-5.043 6.196-8.07 4.035-3.17 9.51-4.61Q71.666-29 78.15-29q10.23 0 17.003 5.331 6.916 5.332 10.518 14.41L92.127-5.225Q90.974-7.53 89.1-9.403q-1.585-1.585-4.467-2.882-2.738-1.297-6.772-1.441-2.594-.144-5.476.432-2.738.432-4.899 1.73-2.161 1.296-3.458 3.601Q62.732-5.8 63.02-2.487q.288 4.467 3.89 6.916 3.603 2.306 8.79 4.035 5.188 1.73 11.095 3.602 6.052 1.73 11.095 5.188 5.044 3.314 8.358 9.077 3.458 5.62 3.458 15.13M191.439 49.674Q182.793 71 162.332 71q-10.807 0-17.868-4.179-7.06-4.178-11.671-13.112-3.314-6.484-5.187-15.13-1.874-8.645-1.874-17.723 0-11.527 2.882-22.046t7.925-17.003q4.323-5.331 10.375-8.07Q153.11-29 161.324-29q10.95 0 18.01 4.755 7.205 4.755 12.105 14.986l-14.266 6.052q-2.017-3.026-3.746-5.044-1.585-2.017-3.458-3.17-1.73-1.152-3.89-1.585-2.018-.432-4.756-.432-5.908 0-9.942 2.738-3.89 2.737-6.34 9.222-1.873 4.322-2.882 10.23-.865 5.908-.865 12.104 0 7.925 1.585 15.274 1.585 7.204 4.467 11.815 2.594 3.747 6.052 5.62t8.502 1.873q4.899 0 8.501-2.594 3.602-2.737 6.484-8.645zM264.726 69.27V27.197h-35.158v42.075h-15.274v-96.542h15.274v38.905h35.158v-38.905H280v96.542zM371.204 21.144q0 11.527-2.737 22.046t-7.781 17.003Q352.616 71 337.343 71q-10.23 0-16.86-4.179-6.627-4.178-10.95-13.112-3.026-6.196-4.9-14.986-1.873-8.933-1.873-17.579 0-11.96 2.738-22.19 2.882-10.23 7.781-17.147 4.323-5.476 10.23-8.07Q329.563-29 337.92-29q9.222 0 15.706 4.179 6.484 4.178 11.095 13.112 3.026 6.484 4.755 15.13 1.73 8.645 1.73 17.723m-15.273 0q0-8.213-1.441-15.13-1.441-7.06-4.323-11.96-2.306-3.746-5.332-5.475-2.881-1.729-7.204-2.017-5.62-.288-9.366 2.594-3.747 2.881-6.196 9.366-1.873 4.322-2.882 10.518-.865 6.052-.865 12.104 0 7.781 1.441 14.986 1.441 7.204 4.323 11.815 2.306 3.747 5.476 5.62t7.78 1.873q5.332 0 8.79-2.882 3.603-2.882 6.052-9.366.72-1.873 1.441-4.467.72-2.737 1.153-5.62.576-3.025.864-6.051t.289-5.908M460.844 21.144q0 11.527-2.738 22.046t-7.78 17.003Q442.255 71 426.981 71q-10.23 0-16.858-4.179-6.629-4.178-10.951-13.112-3.026-6.196-4.9-14.986-1.873-8.933-1.873-17.579 0-11.96 2.738-22.19 2.882-10.23 7.781-17.147 4.323-5.476 10.23-8.07Q419.202-29 427.56-29q9.222 0 15.706 4.179 6.484 4.178 11.095 13.112 3.026 6.484 4.755 15.13 1.73 8.645 1.73 17.723m-15.274 0q0-8.213-1.44-15.13-1.442-7.06-4.323-11.96-2.306-3.746-5.332-5.475-2.882-1.729-7.204-2.017-5.62-.288-9.366 2.594-3.747 2.881-6.196 9.366-1.874 4.322-2.882 10.518-.865 6.052-.865 12.104 0 7.781 1.441 14.986 1.441 7.204 4.323 11.815 2.305 3.747 5.475 5.62t7.781 1.873q5.332 0 8.79-2.882 3.602-2.882 6.052-9.366.72-1.873 1.44-4.467.721-2.737 1.154-5.62.576-3.025.864-6.051t.288-5.908M484.057 69.27v-96.54h15.274v82.276H544V69.27z" style="font-style:normal;font-variant:normal;font-weight:400;font-stretch:normal;line-height:0;font-family:&quot;Roadgeek 2005 Series D&quot;;-inkscape-font-specification:&quot;Roadgeek 2005 Series D&quot;;letter-spacing:1.83356249px;fill:#000;stroke:none;stroke-width:3.60230541" transform="translate(107 -953)"/>
      <g aria-label="ZONE" style="font-style:normal;font-variant:normal;font-weight:400;font-stretch:normal;font-size:144.09222412px;line-height:0;font-family:&quot;Roadgeek 2005 Series D&quot;;-inkscape-font-specification:&quot;Roadgeek 2005 Series D&quot;;letter-spacing:6.56166649px;word-spacing:0;fill:#000;fill-opacity:1;stroke:none;stroke-width:12.97660542">
        <path d="M125 229.27v-12.823l44.092-68.444h-40.346v-15.274h61.96v9.078l-44.669 71.902h44.67v15.562zM279.904 181.144q0 11.527-2.737 22.046t-7.781 17.003Q261.316 231 246.043 231q-10.23 0-16.86-4.179-6.627-4.178-10.95-13.112-3.026-6.196-4.9-14.986-1.872-8.933-1.872-17.579 0-11.96 2.737-22.19 2.882-10.23 7.781-17.147 4.323-5.476 10.23-8.07Q238.263 131 246.62 131q9.222 0 15.706 4.179 6.484 4.178 11.095 13.112 3.026 6.484 4.755 15.13 1.73 8.645 1.73 17.723m-15.273 0q0-8.213-1.441-15.13-1.441-7.06-4.323-11.96-2.306-3.746-5.332-5.475-2.881-1.729-7.204-2.017-5.62-.288-9.366 2.594-3.747 2.881-6.196 9.366-1.873 4.322-2.882 10.518-.864 6.052-.864 12.104 0 7.781 1.44 14.986 1.441 7.204 4.323 11.815 2.306 3.747 5.476 5.62t7.78 1.873q5.332 0 8.79-2.882 3.603-2.882 6.052-9.366.72-1.873 1.441-4.467.72-2.737 1.153-5.62.576-3.025.864-6.051t.289-5.908M360.007 229.27l-36.888-65.417v65.418h-15.273v-96.542h15.274l35.158 61.672v-61.672h15.274v96.542zM403.058 229.27v-96.54h56.916v15.273h-41.642v23.631h28.098v15.562h-28.098v26.513H463v15.562z" style="font-style:normal;font-variant:normal;font-weight:400;font-stretch:normal;line-height:0;font-family:&quot;Roadgeek 2005 Series D&quot;;-inkscape-font-specification:&quot;Roadgeek 2005 Series D&quot;;letter-spacing:6.56166649px;fill:#000;stroke:none;stroke-width:12.97660542" transform="translate(107 -953)"/>
      </g>
    </g>
    <g aria-label="AHEAD" style="font-style:normal;font-variant:normal;font-weight:400;font-stretch:normal;font-size:156.71641541px;line-height:0;font-family:&quot;Roadgeek 2005 Series D&quot;;-inkscape-font-specification:&quot;Roadgeek 2005 Series D&quot;;letter-spacing:10.24995613px;word-spacing:0;fill:#000;fill-opacity:1;stroke:none;stroke-width:3.91791034">
      <path d="m225.15 136.275-10.344-29.463h-32.754l-10.343 29.463H154l36.201-105h16.456l36.201 105zm-26.486-75.85-10.813 29.462h21zM323.828 136.275V90.514h-38.24v45.76h-16.611v-105h16.612v42.314h38.239V31.275h16.611v105ZM375.626 136.275v-105h61.903v16.612h-45.292v25.701h30.56v16.926h-30.56v28.836h48.583v16.925zM530.71 136.275l-10.344-29.463h-32.754l-10.343 29.463H459.56l36.202-105h16.455l36.201 105zm-26.486-75.85-10.813 29.462h21zM646 83.618q0 15.829-4.859 27.896-4.701 11.91-13.634 18.806-2.977 2.82-7.052 4.231-3.918 1.41-7.993 1.724h-37.925v-105h33.85q3.919 0 6.74.313 2.977.157 5.328.784 2.35.627 4.231 1.724t4.075 2.664q8.306 7.209 12.694 19.276Q646 67.946 646 83.618m-16.926 0q0-10.657-2.35-18.962-2.194-8.306-6.112-12.381-2.038-1.88-4.702-3.134t-5.955-1.254h-18.806v71.463h16.612q4.074 0 6.739-.94 2.82-.941 5.015-3.135 4.701-4.702 7.052-12.85 2.507-8.307 2.507-18.807" style="font-style:normal;font-variant:normal;font-weight:400;font-stretch:normal;line-height:0;font-family:&quot;Roadgeek 2005 Series D&quot;;-inkscape-font-specification:&quot;Roadgeek 2005 Series D&quot;;letter-spacing:10.23143768px;fill:#000;stroke:none;stroke-width:3.91791034" transform="translate(1 14.725)"/>
    </g>
    <circle cx="401" cy="-312.5" r="292.5" style="opacity:1;fill:#000;fill-opacity:1;fill-rule:nonzero;stroke:none;stroke-width:14.94897175;stroke-linecap:square;stroke-linejoin:round;stroke-miterlimit:4;stroke-dasharray:none;stroke-dashoffset:0;stroke-opacity:1"/>
    <circle cx="401" cy="-312.5" r="246" style="opacity:1;fill:#fff;fill-opacity:1;fill-rule:nonzero;stroke:none;stroke-width:12.57246876;stroke-linecap:square;stroke-linejoin:round;stroke-miterlimit:4;stroke-dasharray:none;stroke-dashoffset:0;stroke-opacity:1"/>
    <g aria-label="40" style="font-style:normal;font-variant:normal;font-weight:400;font-stretch:normal;font-size:374.63977051px;line-height:0;font-family:&quot;Roadgeek 2005 Series D&quot;;-inkscape-font-specification:&quot;Roadgeek 2005 Series D&quot;;letter-spacing:0;word-spacing:0;fill:#000;fill-opacity:1;stroke:none;stroke-width:9.36599445">
      <path d="M2190.118-1040.733v62.565h-39.337v-62.565h-124.38v-23.602l124.38-164.842h39.337v152.478h23.977v35.966zm-39.337-130.375-71.556 94.41h71.556zM2446.4-1103.298q0 29.971-7.117 57.32-7.118 27.349-20.23 44.207-20.98 28.098-60.692 28.098-26.6 0-43.833-10.864-17.234-10.865-28.473-34.093-7.867-16.109-12.738-38.962-4.87-23.228-4.87-45.706 0-31.095 7.118-57.695 7.493-26.599 20.23-44.582 11.24-14.236 26.6-20.98 15.735-7.118 37.464-7.118 23.977 0 40.836 10.865t28.847 34.092q7.868 16.859 12.363 39.337 4.496 22.479 4.496 46.08m-39.71 0q0-21.354-3.747-39.337-3.747-18.358-11.24-31.095-5.994-9.741-13.861-14.237-7.493-4.495-18.732-5.245-14.611-.749-24.352 6.744t-16.11 24.352q-4.87 11.239-7.492 27.348-2.248 15.735-2.248 31.47 0 20.23 3.747 38.963 3.746 18.731 11.239 30.72 5.994 9.74 14.236 14.61 8.242 4.871 20.23 4.871 13.862 0 22.854-7.493 9.366-7.492 15.734-24.351 1.874-4.87 3.747-11.614 1.873-7.118 2.997-14.611 1.499-7.867 2.248-15.735t.75-15.36" style="font-style:normal;font-variant:normal;font-weight:400;font-stretch:normal;line-height:0;font-family:&quot;Roadgeek 2005 Series D&quot;;-inkscape-font-specification:&quot;Roadgeek 2005 Series D&quot;;fill:#000;stroke:none;stroke-width:9.36599445" transform="translate(-1835.4 791.173)"/>
    </g>
  </g>
</svg>
