<svg xmlns="http://www.w3.org/2000/svg" preserveAspectRatio="xMidYMid" viewBox="0 0 1610.25 2136.487" role="img" aria-labelledby="title">
  <title id="title">Verkehrszeichen R4-V122 - 60&amp;nbsp;km/h Community Gateway Speed Limit (used in VIC)</title>
  <path d="M154.872 0C69.385 0 .085 69.3.085 154.787c-.012.874-.021 1.736-.053 2.62H0L.04 1972.18l.521 15.83.336 5.168c5.266 79.653 70.21 140.81 150.006 143.06v.138h2.255a157 157 0 0 0 1.837.111q.918-.05 1.837-.111h1296.735c.666 0 1.225-.014 1.837-.012 81.468-.148 148.87-63.308 154.147-144.604h-.011l.756-14.548-.076-1819.804v-.002c-.01-.884-.017-1.767.03-2.653C1610.24 72.2 1545.434 4.19 1462.98.199V.094h-3.103q-2.19-.078-4.38-.094-.772.043-1.547.094H159.25Q157.064.016 154.873 0" style="fill:#046e00;fill-opacity:1;stroke-width:12.8629"/>
  <path d="M160.648 25.43c-1.116.01-2.073.02-3.186.102l-3.364.28C86.634 30.168 33.617 85.571 32.496 153.167l-.007.011v1816.032c-.07 9.581-.051 9.723-.088 14.238 0 71.682 57.38 129.065 129.062 129.065q2.176-.094 4.347-.263h1288.721v-.118a132 132 0 0 0 1.539.094c68.57-.126 125.211-53.569 129.32-122.015l-.029.044.356-5.447c.04-.956.03-1.401.04-2.373 0-1.974-.051-3.175-.04-5.92V153.14c-1.048-70.913-56.25-127.407-127.171-127.422-1.635.068-6.119-.241-7.75-.112v-.093L169.21 25.374c-1.147-.006-2.83.004-4.855.022z" style="fill:#fff;stroke-width:16.4879"/>
  <path d="M149.355 56.183v.126c-50.53.914-87.833 40.908-94.008 91.394l-.005.038-.153 2.577q-.06.87-.106 1.74.045.87.106 1.74v1832.496c-.04.567.018 1.133-.012 1.7.03.567.113 3.035.153 3.602l.046.984.152 1.926c.313 6.304 1.067 10.52 2.535 16.444.63 2.545 2.085 5.772 2.913 8.232.697 2.066 2.036 4.82 2.862 6.817 1.038 2.507 2.665 4.854 3.977 7.189 16.182 28.808 43.681 46.765 78.071 50.348l-.007.01 3.652.209q.7.048 1.401.086c.352-.011.357-.01 1.401-.012l1303.89-.074q.7.047 1.401.086c51.086-.09 93.124-40.232 95.568-91.26h.02l.172-2.724c.018-.624.053-1.36.045-1.862 0-1.176.012-2.352-.035-3.528V156.411c0-1.448-.07-2.846-.105-4.297-4.474-51.694-40.638-94.121-92.304-95.831v-.1z" style="fill:#046e00;fill-opacity:1;stroke-width:14.0421"/>
  <ellipse cx="805.834" cy="1065.753" rx="644.559" ry="646.725" style="fill:#fff;fill-opacity:1;fill-rule:nonzero;stroke:none;stroke-width:231.945;stroke-linecap:square;stroke-linejoin:round;stroke-miterlimit:4;stroke-dasharray:none;stroke-opacity:1"/>
  <circle cx="805.38" cy="1068.274" r="617.008" style="fill:#be121e;fill-opacity:1;fill-rule:nonzero;stroke:none;stroke-width:221.661;stroke-linecap:square;stroke-linejoin:round;stroke-miterlimit:4;stroke-dasharray:none;stroke-opacity:1"/>
  <circle cx="805.38" cy="1068.274" r="492.36" style="fill:#fff;fill-opacity:1;fill-rule:nonzero;stroke:none;stroke-width:176.882;stroke-linecap:square;stroke-linejoin:round;stroke-miterlimit:4;stroke-dasharray:none;stroke-opacity:1"/>
  <g aria-label="60" style="font-style:normal;font-variant:normal;font-weight:400;font-stretch:normal;font-size:345.821px;line-height:0;font-family:&quot;Roadgeek 2005 Series D&quot;;-inkscape-font-specification:&quot;Roadgeek 2005 Series D&quot;;letter-spacing:0;word-spacing:0;fill:#000;fill-opacity:1;stroke:none;stroke-width:8.64553">
    <path d="M276.895-56.893q0 14.87-6.225 28.011-5.88 12.796-16.6 22.479-10.374 9.337-24.899 14.87Q214.647 14 198.047 14t-31.124-5.533Q152.4 2.587 141.678-7.441 131.304-17.47 125.08-30.957 119.2-44.444 119.2-60.006q0-24.207 6.225-48.069 6.57-23.862 18.328-45.648t28.012-40.116q16.6-18.674 36.657-32.161l18.674 31.124q-10.72 8.3-19.02 16.254-7.954 7.608-14.87 15.907-6.57 8.3-12.104 17.637-5.533 8.992-10.72 20.058 10.028-1.73 15.216-2.075 5.533-.346 12.45-.346 15.907 0 30.086 5.533 14.524 5.533 25.245 15.216 11.066 9.338 17.29 22.479 6.226 12.795 6.226 27.32m-36.658-.692q0-6.57-3.458-12.795-3.112-6.225-8.991-10.72-5.533-4.497-13.487-7.263-7.608-2.767-16.254-2.767-8.645 0-16.253 2.767-7.263 2.766-13.142 7.262-5.533 4.496-8.99 10.72-3.113 6.225-3.113 12.796 0 6.916 3.112 13.141 3.458 6.225 8.991 11.066 5.88 4.496 13.142 7.263 7.608 2.766 16.253 2.766 8.646 0 16.254-2.766t13.141-7.263q5.879-4.841 9.337-11.066t3.458-13.141M486.8-105.654q0 27.666-6.57 52.91-6.571 25.245-18.675 40.807Q442.19 14 405.532 14q-24.553 0-40.46-10.029-15.909-10.029-26.283-31.47-7.263-14.87-11.758-35.965-4.496-21.44-4.496-42.19 0-28.703 6.57-53.257 6.917-24.553 18.675-41.152 10.375-13.142 24.553-19.366Q386.858-226 406.916-226q22.132 0 37.694 10.029t26.628 31.47q7.263 15.562 11.412 36.31 4.15 20.75 4.15 42.537m-36.657 0q0-19.712-3.458-36.311-3.458-16.946-10.375-28.704-5.533-8.99-12.795-13.14-6.916-4.15-17.291-4.842-13.487-.692-22.479 6.225-8.99 6.916-14.87 22.478-4.496 10.375-6.916 25.245-2.075 14.524-2.075 29.049 0 18.674 3.458 35.965t10.375 28.358q5.533 8.991 13.14 13.487 7.609 4.495 18.675 4.495 12.796 0 21.095-6.916 8.646-6.917 14.525-22.479 1.729-4.495 3.458-10.72 1.73-6.57 2.767-13.487 1.383-7.262 2.075-14.524.691-7.263.691-14.18" style="font-style:normal;font-variant:normal;font-weight:400;font-stretch:normal;line-height:0;font-family:&quot;Roadgeek 2005 Series D&quot;;-inkscape-font-specification:&quot;Roadgeek 2005 Series D&quot;;fill:#000;stroke:none;stroke-width:8.64553" transform="translate(175.907 1288.486)scale(2.07747)"/>
  </g>
</svg>
