<svg xmlns="http://www.w3.org/2000/svg" viewBox="0 0 606 606" role="img" aria-labelledby="title">
  <title id="title">Verkehrszeichen R2-10 - Give Way to Pedestrians</title>
  <g transform="translate(0 309)">
    <rect width="604" height="604" x="1" y="-308" rx="62" ry="62" style="opacity:1;fill:#000;fill-opacity:1;fill-rule:nonzero;stroke:none;stroke-width:4.33871937;stroke-linecap:square;stroke-linejoin:round;stroke-miterlimit:4;stroke-dasharray:13.01615736,13.01615736;stroke-dashoffset:0;stroke-opacity:1"/>
    <rect width="600" height="600" x="3" y="-306" rx="60" ry="60" style="opacity:1;fill:#fff;fill-opacity:1;fill-rule:nonzero;stroke:none;stroke-width:4.30998611;stroke-linecap:square;stroke-linejoin:round;stroke-miterlimit:4;stroke-dasharray:12.92995764,12.92995764;stroke-dashoffset:0;stroke-opacity:1"/>
    <rect width="584" height="584" x="11" y="-298" rx="52" ry="52" style="opacity:1;fill:#000;fill-opacity:1;fill-rule:nonzero;stroke:none;stroke-width:4.1950531;stroke-linecap:square;stroke-linejoin:round;stroke-miterlimit:4;stroke-dasharray:12.58515877,12.58515877;stroke-dashoffset:0;stroke-opacity:1"/>
    <rect width="552" height="552" x="27" y="-282" rx="36" ry="36" style="opacity:1;fill:#fff;fill-opacity:1;fill-rule:nonzero;stroke:none;stroke-width:3.96518731;stroke-linecap:square;stroke-linejoin:round;stroke-miterlimit:4;stroke-dasharray:11.89556103,11.89556103;stroke-dashoffset:0;stroke-opacity:1"/>
    <g aria-label="GIVE" style="font-style:normal;font-variant:normal;font-weight:400;font-stretch:normal;font-size:144.09222412px;line-height:0;font-family:&quot;Roadgeek 2005 Series C&quot;;-inkscape-font-specification:&quot;Roadgeek 2005 Series C&quot;;letter-spacing:0;word-spacing:0;fill:#ff7f2a;fill-opacity:1;stroke:none;stroke-width:3.60230541">
      <path d="M55.13 279.605q0 5.044-.576 8.502t-2.161 6.484q-2.882 6.34-8.502 9.942-5.475 3.603-12.824 3.603-8.645 0-14.985-4.18-6.196-4.178-9.799-12.391-2.305-5.476-3.746-14.553Q1.24 267.79 1.24 258.28q0-10.23.865-17.868 1.008-7.78 3.602-14.697 1.297-3.747 3.602-6.917 2.45-3.314 5.62-5.62 3.17-2.449 7.06-3.746 3.89-1.296 8.07-1.296 5.187 0 9.654 1.873 4.467 1.729 7.78 5.043 3.315 3.17 5.332 7.78 2.017 4.468 2.306 9.8H41.298q-.288-4.9-3.458-7.926-3.026-3.026-8.07-3.026-7.204 0-10.95 7.205-2.018 3.602-3.17 11.095-1.153 7.349-1.153 15.994 0 6.052.432 12.248.576 6.196 1.585 11.816 1.585 7.06 5.043 10.806 3.602 3.747 9.222 3.747 10.519 0 10.519-14.986v-6.34H30.347v-13.544H55.13ZM76.18 306.406v-96.541h13.545v96.541zM140.183 306.406h-10.519l-24.352-96.541h13.977l15.85 62.68 15.995-62.68h13.833zM180.104 306.406v-96.541h45.39v13.544h-31.557v24.352h20.029v13.256h-20.029v31.845h35.303v13.544z" style="font-style:normal;font-variant:normal;font-weight:400;font-stretch:normal;line-height:0;font-family:&quot;Roadgeek 2005 Series C&quot;;-inkscape-font-specification:&quot;Roadgeek 2005 Series C&quot;;letter-spacing:1.7277292px;fill:#000;fill-rule:nonzero;stroke:none;stroke-width:3.60230541" transform="translate(56.76 -429.136)"/>
    </g>
    <g aria-label="WAY" style="font-style:normal;font-variant:normal;font-weight:400;font-stretch:normal;font-size:149.2537384px;line-height:0;font-family:&quot;Roadgeek 2005 Series C&quot;;-inkscape-font-specification:&quot;Roadgeek 2005 Series C&quot;;letter-spacing:0;word-spacing:0;fill:#000;fill-opacity:1;stroke:none;stroke-width:3.73134327">
      <path d="M338.94 308.136H326.7l-9.551-52.24-9.403 52.24h-12.687l-15.82-100h14.029l8.507 53.283 9.702-53.283h11.343l9.403 53.283 8.806-53.283h14.03zM413.327 308.136l-7.015-27.314H384.82l-6.568 27.314h-14.477l24.925-100h14.03l24.925 100zm-17.91-70.15-7.015 28.806h14.328zM475.313 262.912v45.224h-14.329v-45.224l-24.627-54.776h15.075l16.866 36.119 16.567-36.12h15.373z" style="font-style:normal;font-variant:normal;font-weight:400;font-stretch:normal;line-height:0;font-family:&quot;Roadgeek 2005 Series C&quot;;-inkscape-font-specification:&quot;Roadgeek 2005 Series C&quot;;letter-spacing:2.62202072px;fill:#000;fill-rule:nonzero;stroke:none;stroke-width:3.73134327" transform="translate(56.762 -429.136)"/>
    </g>
    <g aria-label="TO" style="font-style:normal;font-variant:normal;font-weight:400;font-stretch:normal;font-size:144.09222412px;line-height:0;font-family:&quot;Roadgeek 2005 Series C&quot;;-inkscape-font-specification:&quot;Roadgeek 2005 Series C&quot;;letter-spacing:0;word-spacing:0;fill:#000;fill-opacity:1;stroke:none;stroke-width:3.60230541">
      <path d="M275.556-41.447v83.718H261.58v-83.718H244V-54.27h49.135v12.824zM362-6.144q0 11.095-1.297 18.876-1.153 7.781-4.179 14.697-3.602 8.646-9.077 12.68Q342.115 44 333.902 44q-8.646 0-14.121-3.89-5.332-4.035-8.934-12.68-3.026-7.061-4.323-14.698-1.153-7.781-1.153-18.876 0-10.951 1.153-18.732 1.297-7.925 4.323-14.842 3.746-8.645 9.078-12.392Q325.4-56 333.902-56q8.357 0 13.689 3.89 5.331 3.747 8.933 12.68 1.441 3.603 2.45 7.205 1.153 3.603 1.729 7.637.72 3.89 1.009 8.502.288 4.466.288 9.942m-13.257 0q0-4.035-.288-7.349-.144-3.314-.576-6.052-.288-2.882-.865-5.475-.576-2.594-1.297-5.187-1.873-6.485-4.755-9.366-2.737-2.882-7.06-2.882-8.934 0-12.248 11.96-1.73 5.475-2.45 11.094-.576 5.476-.576 13.545 0 3.89.144 7.205.288 3.17.576 6.052.433 2.737 1.01 5.475.575 2.738 1.296 5.62 3.314 11.96 12.248 11.96 4.323 0 7.06-2.883 2.882-2.881 4.755-9.077.865-2.882 1.441-5.476.577-2.738.865-5.62.432-2.881.576-6.051.144-3.314.144-7.493" style="font-style:normal;font-variant:normal;font-weight:400;font-stretch:normal;line-height:0;font-family:&quot;Roadgeek 2005 Series C&quot;;-inkscape-font-specification:&quot;Roadgeek 2005 Series C&quot;;fill:#000;fill-rule:nonzero;stroke:none;stroke-width:3.60230541"/>
      <path d="M66 109h16.378c10.678 0 20.648 12.854 20.648 28.567 0 15.003-11.392 27.14-20.648 27.14h-7.121v44.287H66Zm9.257 9.286v37.142h7.828c4.986 0 10.685-8.575 10.685-19.287 0-10.002-6.407-17.855-12.106-17.855zM114.418 109h30.614v10.002h-20.643v33.568h14.236v9.996h-14.236v37.142h23.492v9.286h-33.463zM175.65 109c19.222 0 20.65 27.14 20.65 47.138 0 20.714 2.135 52.856-19.935 52.856h-17.092V109Zm.714 10.002h-7.12v80.706h7.828c10.684 0 9.97-27.857 9.97-43.57 0-12.138 0-37.136-10.678-37.136M207.692 109h30.613v10.002h-20.643v33.568h14.236v9.996h-14.236v37.142h23.492v9.286h-33.462zM248.944 184.712h9.257c0 12.854 4.985 14.996 9.256 14.996 7.121 0 12.1-7.137 7.121-22.14-4.271-11.428-7.835-14.286-13.527-21.423-4.272-5.718-10.685-18.572-10.685-27.141 0-14.287 6.413-20.004 17.8-20.004 9.97 0 16.377 7.143 16.377 20.714h-9.257c0-6.427-.708-12.138-7.828-12.138-4.272 0-8.543 2.852-8.543 12.138 0 5.717 5.693 17.145 9.25 19.997 7.121 7.144 17.806 27.141 17.806 37.86 0 8.569-5.7 21.423-17.806 21.423-9.25 0-19.22-4.285-19.22-24.282M292.377 109h33.463v9.286h-12.1v90.708h-9.256v-90.708h-12.106zM361.445 162.572 372.837 209h-9.257l-11.392-43.57h-7.12V209h-9.257v-99.994h17.799c9.256 0 19.227 8.57 19.227 27.851 0 10.718-2.85 19.288-11.392 25.715m-9.257-7.144c7.835 0 11.392-12.854 11.392-18.571 0-6.427-3.557-17.855-9.97-17.855h-8.543v36.426zM384.223 208.994h9.256V109h-9.256zM419.827 174h11.393l-6.407-35.71Zm-15.663 35 16.377-99.994h8.543L447.597 209h-9.256l-4.986-24.999h-15.663L414.134 209zM458.275 109h9.257l18.513 62.141V109h9.257v99.994h-7.121L468.246 144v64.994h-9.97zM505.974 184.712h9.256c0 12.854 4.986 14.996 9.257 14.996 7.12 0 12.1-7.137 7.12-22.14-4.27-11.428-7.834-14.286-13.527-21.423-4.271-5.718-10.684-18.572-10.684-27.141 0-14.287 6.413-20.004 17.799-20.004 9.97 0 16.377 7.143 16.377 20.714h-9.256c0-6.427-.708-12.138-7.83-12.138-4.27 0-8.542 2.852-8.542 12.138 0 5.717 5.693 17.145 9.25 19.997 7.122 7.144 17.806 27.141 17.806 37.86 0 8.569-5.7 21.423-17.805 21.423-9.25 0-19.221-4.285-19.221-24.282" style="fill:#000;fill-opacity:1;fill-rule:nonzero;stroke:none;stroke-width:1.717664"/>
    </g>
  </g>
</svg>
