<svg xmlns="http://www.w3.org/2000/svg" viewBox="0 0 308.344 308.344" role="img" aria-labelledby="title">
  <title id="title">Verkehrszeichen R9-8 - At Street Name (used with No u-turn, No left turn, No right turn or No turns signs)</title>
  <path d="M26.308.757h255.706c14.066 0 25.57 11.507 25.57 25.57v255.706c0 14.066-11.504 25.57-25.57 25.57H26.308c-14.063 0-25.57-11.504-25.57-25.57V26.327c0-14.063 11.507-25.57 25.57-25.57z" style="fill:#fff;fill-opacity:1;fill-rule:evenodd;stroke:#000;stroke-width:1.5;stroke-linecap:butt;stroke-linejoin:miter;stroke-miterlimit:17.20000076;stroke-opacity:1;stroke-dasharray:none"/>
  <path d="M26.308 4.848h255.706c11.814 0 21.479 9.665 21.479 21.48v255.705c0 11.814-9.665 21.48-21.48 21.48H26.309c-11.814 0-21.48-9.666-21.48-21.48V26.327c0-11.814 9.666-21.479 21.48-21.479" style="fill:#000;fill-opacity:1;fill-rule:evenodd;stroke:none"/>
  <path d="M26.308 13.03h255.706c7.313 0 13.296 5.984 13.296 13.297v255.706c0 7.313-5.983 13.297-13.296 13.297H26.308c-7.313 0-13.297-5.984-13.297-13.297V26.327c0-7.313 5.984-13.296 13.297-13.296" style="fill:#fff;fill-opacity:1;fill-rule:evenodd;stroke:none"/>
  <path d="M135.085 76.651h7.11l-3.528-13.756zm-12.12 21.276 12.12-51.144h7.11l12.734 51.144h-7.21l-3.685-14.22h-10.328l-3.378 14.22zM159.786 46.783h25.57v6.75h-8.948v44.391h-7.52v-44.39h-9.102zM53.182 128.393h15.036c2.002.009 3.794.35 5.386 1.032 1.595.682 2.95 1.67 4.076 2.95 1.123 1.275 1.986 2.811 2.574 4.6.594 1.799.895 3.81.904 6.043q-.015 2.8-.691 5.09-.689 2.3-1.902 4.066a12.7 12.7 0 0 1-2.856 2.974 12.3 12.3 0 0 1-3.537 1.824c-1.27.419-2.58.622-3.954.622h-7.926v21.94h-7.11zm7.11 7.16v14.472h8.949c.766-.01 1.448-.203 2.045-.588.598-.391 1.098-.93 1.508-1.611.41-.682.726-1.473.938-2.377.204-.895.316-1.858.316-2.89q0-1.201-.384-2.43a8.3 8.3 0 0 0-1.058-2.259 6 6 0 0 0-1.601-1.67 3.6 3.6 0 0 0-2.02-.648zM98.952 158.26h7.11l-3.528-13.756zm-12.12 21.276 12.12-51.14h7.11l12.734 51.14h-7.21l-3.685-14.219H97.573l-3.378 14.22zM145.339 165.93h7.11c-.011 2.293-.326 4.338-.964 6.137-.632 1.798-1.527 3.334-2.687 4.585a11.5 11.5 0 0 1-4.141 2.865c-1.595.657-3.366.98-5.302.989-1.977-.01-3.7-.332-5.192-.954a11.2 11.2 0 0 1-3.816-2.603 15 15 0 0 1-2.668-3.85 25 25 0 0 1-1.714-4.714 41 41 0 0 1-.964-5.192 67 67 0 0 1-.435-5.283c-.068-1.739-.103-3.394-.093-4.97q-.002-2.275.137-4.73c.094-1.645.272-3.29.52-4.944a37 37 0 0 1 1.072-4.814 22.4 22.4 0 0 1 1.783-4.332 14.1 14.1 0 0 1 2.659-3.52c1.048-1.016 2.277-1.798 3.7-2.37q2.135-.845 4.908-.86 2.85.014 5.251.963c1.592.638 2.984 1.542 4.16 2.728 1.177 1.176 2.096 2.59 2.744 4.225.647 1.64.982 3.472.988 5.483h-7.056a5.3 5.3 0 0 0-.479-2.114 6.8 6.8 0 0 0-1.295-1.961 6.7 6.7 0 0 0-1.933-1.448 5.4 5.4 0 0 0-2.38-.563c-1.004.009-1.883.256-2.65.741-.76.479-1.407 1.135-1.951 1.97-.554.826-1.008 1.77-1.383 2.828a24 24 0 0 0-.885 3.344 35 35 0 0 0-.51 3.475 52 52 0 0 0-.24 3.25 79 79 0 0 0-.05 2.649q.001 1.24.024 2.94c.015 1.126.07 2.337.163 3.622.084 1.289.229 2.584.435 3.898q.305 1.957.844 3.75.55 1.788 1.405 3.197c.572.935 1.26 1.676 2.09 2.214.816.544 1.798.826 2.914.835a5.15 5.15 0 0 0 2.981-.944c.88-.623 1.586-1.492 2.108-2.609.51-1.117.782-2.421.792-3.913M160.937 179.533h7.16v-51.14h-7.16zM178.735 128.393h25.57v7.056h-18.46v12.07h10.484v7.313h-10.485v24.701h-7.11zM211.821 179.533h7.16v-51.14h-7.16zM248.03 165.93h7.11c-.011 2.293-.326 4.338-.964 6.137-.632 1.798-1.527 3.334-2.687 4.585a11.5 11.5 0 0 1-4.141 2.865c-1.596.657-3.366.98-5.302.989-1.977-.01-3.7-.332-5.192-.954a11.2 11.2 0 0 1-3.816-2.603 15 15 0 0 1-2.668-3.85 25 25 0 0 1-1.714-4.714 41 41 0 0 1-.964-5.192 67 67 0 0 1-.435-5.283c-.068-1.739-.103-3.394-.094-4.97q-.001-2.275.138-4.73c.094-1.645.272-3.29.52-4.944a37 37 0 0 1 1.072-4.814 22.4 22.4 0 0 1 1.783-4.332 14.1 14.1 0 0 1 2.659-3.52c1.048-1.016 2.277-1.798 3.7-2.37q2.135-.845 4.908-.86 2.85.014 5.251.963c1.592.638 2.984 1.542 4.16 2.728 1.176 1.176 2.096 2.59 2.743 4.225.648 1.64.983 3.472.989 5.483h-7.057a5.3 5.3 0 0 0-.478-2.114 6.8 6.8 0 0 0-1.295-1.961 6.7 6.7 0 0 0-1.933-1.448 5.4 5.4 0 0 0-2.38-.563c-1.004.009-1.883.256-2.65.741-.76.479-1.407 1.135-1.951 1.97-.554.826-1.008 1.77-1.383 2.828a24 24 0 0 0-.885 3.344 36 36 0 0 0-.513 3.475 54 54 0 0 0-.238 3.25 79 79 0 0 0-.05 2.649q.001 1.24.025 2.94c.015 1.126.069 2.337.163 3.622.084 1.289.228 2.584.435 3.898q.304 1.957.844 3.75.55 1.788 1.404 3.197c.573.935 1.261 1.676 2.09 2.214.816.544 1.798.826 2.915.835a5.15 5.15 0 0 0 2.98-.944c.88-.623 1.587-1.492 2.11-2.609.509-1.117.781-2.421.79-3.913M34.565 210.461h7.21v20.713h14.013v-20.713h6.753v51.141h-6.753v-23.218H41.775v23.218h-7.21zM73.129 261.602h7.16v-51.14h-7.16zM109.08 222.685q-.017-1.892-.757-3.222a4.97 4.97 0 0 0-2.114-2.01c-.904-.46-1.977-.701-3.215-.701q-1.714.027-2.931.922-1.215.897-2.002 2.421c-.529 1.023-.948 2.165-1.264 3.444a32 32 0 0 0-.682 3.954 51 51 0 0 0-.272 3.972c-.044 1.286-.06 2.446-.06 3.494v3.118c0 .992.016 2.09.05 3.316.045 1.23.129 2.49.273 3.794a28.5 28.5 0 0 0 .676 3.794q.459 1.838 1.25 3.306c.53.989 1.205 1.764 2.012 2.346.81.579 1.798.867 2.95.885a6.2 6.2 0 0 0 2.217-.46 8 8 0 0 0 2.08-1.244 6.5 6.5 0 0 0 1.542-1.79c.391-.675.598-1.382.604-2.133v-5.777H103.3v-7.366h13.043v10.128c0 .554-.025 1.217-.087 2.002-.06.776-.144 1.595-.263 2.446-.11.854-.257 1.654-.425 2.411-.172.76-.376 1.383-.607 1.886a10.8 10.8 0 0 1-1.774 2.64 12.4 12.4 0 0 1-2.64 2.218 13.2 13.2 0 0 1-3.428 1.526c-1.26.376-2.64.56-4.125.57q-2.736-.014-4.833-.92a11.1 11.1 0 0 1-3.638-2.49 15.3 15.3 0 0 1-2.608-3.681 25 25 0 0 1-1.758-4.467c-.45-1.595-.8-3.221-1.039-4.876q-.372-2.492-.51-4.883a75 75 0 0 1-.137-4.51 91 91 0 0 1 .119-5.001q.114-2.623.46-5.268.346-2.647.997-5.139a24.7 24.7 0 0 1 1.714-4.648 15.4 15.4 0 0 1 2.609-3.785c1.03-1.082 2.258-1.923 3.682-2.54 1.423-.603 3.068-.919 4.942-.928 1.817.01 3.528.35 5.142 1.022a13.7 13.7 0 0 1 4.285 2.797 13.3 13.3 0 0 1 2.934 4.21c.716 1.604 1.073 3.344 1.088 5.217zM124.932 210.461h7.21v20.713h14.013v-20.713h6.753v51.141h-6.753v-23.218h-14.013v23.218h-7.21zM160.887 210.461h7.21l4.244 26.594 4.808-26.594h5.984l4.86 27.053 3.938-27.053h7.313l-7.776 51.141h-6.34l-4.91-26.183-5.011 26.183h-6.034zM216.732 240.326h7.11l-3.529-13.756zm-12.12 21.276 12.12-51.144h7.11l12.733 51.144h-7.21l-3.684-14.22h-10.328l-3.378 14.22zM241.793 210.461h7.926l8.285 18.208 8.08-18.208h7.672l-11.917 27.923v23.218h-7.413v-23.218z" style="fill:#000;fill-opacity:1;fill-rule:nonzero;stroke:none"/>
</svg>
