<svg xmlns="http://www.w3.org/2000/svg" viewBox="0 0 305.344 204" role="img" aria-labelledby="title">
  <title id="title">Verkehrszeichen R9-Q03 - Police Excepted (used in QLD)</title>
  <path d="M30.917.75h243.49c16.645 0 30.197 13.528 30.197 30.176v142.153c0 16.623-13.552 30.175-30.196 30.175H30.917c-16.623 0-30.175-13.552-30.175-30.175V30.926C.742 14.278 14.294.75 30.917.75z" style="fill:#fff;fill-opacity:1;fill-rule:evenodd;stroke:#000;stroke-width:1.5;stroke-miterlimit:7.73699999;stroke-opacity:1;stroke-dasharray:none"/>
  <path d="M274.24 4.18c15.789.858 26.077 11.312 26.935 26.911V172.89c-.858 15.624-11.337 26.078-26.936 26.936H31.107c-15.624-.858-26.078-11.312-26.936-26.936V31.09c.858-15.599 11.312-26.053 26.936-26.91z" style="fill:#000;fill-opacity:1;fill-rule:evenodd;stroke:none"/>
  <path d="M278.358 11.373c10.288 3.595 14.91 9.1 16.124 20.052v141.13q-2.075 18.507-20.577 20.576H31.438q-18.503-2.069-20.577-20.576V31.425c1.383-12.669 8.241-19.194 20.577-20.576h242.467z" style="fill:#fff;fill-opacity:1;fill-rule:evenodd;stroke:none"/>
  <path d="M30.411 115.463h19.544v6.687H36.927v14.573h8.572v6.687h-8.572v19.543H50.64v6.516h-20.23zM67.957 141.694l-8.744-26.231H65.9l5.486 15.602 4.971-15.602h7.03l-8.571 26.917 9.086 27.089h-7.03l-5.486-16.632-5.314 16.632H58.87zM108.42 156.266h6.172c0 9.259-3.772 13.203-10.46 13.203-11.658 0-12.856-14.576-12.341-27.775.168-9.602 0-26.231 12.001-26.06 6.513 0 10.629 3.77 10.629 10.285h-6.173c-.515-2.4-2.056-3.944-4.287-3.944-6 0-5.314 14.576-5.314 19.719 0 6.172-.172 21.431 5.657 21.431 2.574 0 4.116-3.773 4.116-6.859M126.594 115.463h19.543v6.687H133.11v14.573h8.572v6.687h-8.572v19.543h13.715v6.516h-20.23zM165.34 121.807v16.972h4.628c2.575 0 4.974-3.598 4.974-8.572-.171-4.97-2.914-8.4-5.485-8.4zm-6.515-6.344h12.001c6.516 0 10.804 7.202 10.804 15.43 0 7.374-5.661 14.916-11.318 14.916h-4.971v23.66h-6.516zM189 115.463h20.23v6.172h-6.515v47.834h-6.684v-47.834H189zM219.862 115.463h19.543v6.687h-13.028v14.573h8.572v6.687h-8.572v19.543h13.715v6.516h-20.23zM261.695 122.49h-2.915v40.632h3.43c6.344 0 6-13.715 6-22.115 0-6.516.172-18.517-6.515-18.517m.171-7.03c11.83 0 13.031 14.404 13.031 25.547 0 10.972-.343 28.459-13.03 28.459h-9.774V115.46zM46.544 34.527h16.117c8.572 0 13.372 7.03 13.372 15.43 0 7.543-6.001 15.431-13.372 15.431h-8.575v23.145h-7.542zm7.542 7.542v15.26h9.945c3.258 0 4.974-5.315 4.974-7.886s-2.403-7.374-5.489-7.374zM100.893 88.533c-12.688 0-15.602-12.173-15.602-27.089 0-14.744 3.43-26.917 15.602-26.917 12.345 0 15.603 12.173 15.603 26.917 0 14.916-2.915 27.089-15.603 27.089m0-7.202c6.516 0 8.057-8.915 8.057-19.887 0-10.8-1.713-19.715-8.057-19.715s-8.057 8.915-8.057 19.715c0 10.972 1.542 19.887 8.057 19.887M129.524 34.527h7.373V81.33h19.716v7.202h-27.09z" style="fill:#000;fill-opacity:1;fill-rule:evenodd;stroke:none"/>
  <path d="M168.102 88.533h8.401V34.527h-8.4z" style="fill:#000;fill-opacity:1;fill-rule:nonzero;stroke:none"/>
  <path d="M210.447 74.647h7.542c0 7.885-5.657 13.886-13.543 13.886-15.087 0-15.945-17.144-15.945-27.944 0-9.087 1.03-26.062 15.602-26.062 8.4 0 13.375 5.317 13.375 13.374h-7.546c.172-4.116-2.914-6.344-6.172-6.172-7.714.172-7.714 13.886-7.714 18.86 0 6.172 0 20.917 8.572 20.917 3.258 0 5.83-3.773 5.83-6.86M231.535 34.527h26.06v8.057h-18.346v13.374h10.975v7.2h-10.975v17.83h19.375v7.545h-27.089z" style="fill:#000;fill-opacity:1;fill-rule:evenodd;stroke:none"/>
</svg>
