<svg xmlns="http://www.w3.org/2000/svg" viewBox="0 0 871.563 871.562" role="img" aria-labelledby="title">
  <title id="title">Verkehrszeichen R5-73 - End of No Stopping Area</title>
  <path d="M67.124 2.108h737.334c35.748 0 64.997 29.25 64.997 64.997v737.334c0 35.747-29.25 64.996-64.997 64.996H67.124c-35.748 0-64.997-29.249-64.997-64.996V67.105c0-35.748 29.25-64.997 64.997-64.997z" style="fill:#fff;fill-opacity:1;fill-rule:evenodd;stroke:#000;stroke-width:4.23333406;stroke-miterlimit:4;stroke-opacity:1;stroke-dasharray:none"/>
  <path d="M804.095 13.488c31.946 1.839 52.141 22.034 53.98 53.98v736.6c-1.839 31.582-22.396 52.14-53.98 53.979h-736.6c-31.583-1.84-52.149-22.397-53.98-53.98v-736.6c1.831-31.945 22.035-52.14 53.98-53.98z" style="fill:#000;fill-opacity:1;fill-rule:evenodd;stroke:none"/>
  <path d="M810.338 37.723c16.525 4.775 22.396 13.953 24.598 31.212V802.6c-2.936 20.928-11.38 29.381-32.308 32.317H68.963c-20.929-2.936-29.381-11.389-32.317-32.317V68.935c2.936-21.3 11.017-29.373 32.317-32.317h733.665z" style="fill:#fff;fill-opacity:1;fill-rule:evenodd;stroke:none"/>
  <path d="M201.653 659.573h24.192l60.832 144.84h-27.233l-13.908-33.75h-62.857l-14.192 33.75h-26.649zm-9.124 86.182h42.582l-21.15-51.416zM314.485 659.573h69.665c25.924 0 43.891 20.858 43.891 43.166 0 14.766-9.558 33.74-25.058 40.408l26.941 61.265h-26.94L377.2 747.78h-37.95v56.632h-24.765zm24.766 24.766v38.816h44.899c9.991 0 18.833-9.125 18.833-19.257 0-6.809-5.65-19.559-18.833-19.559zM458.165 659.573h103.848v25.2h-78.79v28.824h42.583v25.2h-42.583v40.416h81.399v25.2H458.165zM644.712 659.573h24.19l60.833 144.84h-27.233l-13.908-33.75h-62.857l-14.191 33.75h-26.65zm-9.125 86.182h42.582l-21.15-51.416zM234.103 66.91h103.848v25.2h-78.79v28.824h42.583v25.2H259.16v40.416h81.398v25.2H234.103zM369.808 66.91h23.75l66.482 95.74V66.91h25.208v144.84h-22.6L394.866 113.4v98.348h-25.058zM522.04 66.91h46.348c44.174 0 69.09 35.2 69.09 73.14 0 37.517-24.624 71.7-65.182 71.7H522.04zm24.916 119.64h26.499c24.191 0 39.69-24.333 39.69-46.5 0-24.474-16.516-47.94-41.423-47.94h-24.766zM333.769 520.853l35.721-26.075c19.037 20.336 38.064 32.591 67.526 32.591 16.428 0 58.665-5.995 58.665-34.934 0-28.683-39.629-28.683-58.665-35.2-44.581-14.606-92.036-23.466-92.036-81.354 0-49.797 48.763-74.042 91.523-74.042 31.026 0 70.655 16.42 91.779 40.673l-32.6 30.77c-19.028-19.302-33.635-25.297-59.18-25.297-15.65 0-46.932 8.347-47.454 27.896 0 26.597 29.461 28.162 60.744 37.552 35.987 10.69 91.779 20.336 91.779 76.394 0 57.1-59.444 82.954-107.155 82.954-31.557 0-85.528-23.51-100.647-51.928" style="fill:#000;fill-opacity:1;fill-rule:evenodd;stroke:none"/>
  <path d="M499.616 618.343c99.312-36.145 151.073-145.997 114.927-245.3C578.406 273.731 467.9 222.2 368.588 258.346c-96.695 35.19-147.57 145.458-111.425 244.77 36.145 99.303 145.758 150.418 242.453 115.227m17.074-316.972L385.91 586.477c33.749 11.398 70.93 11.92 102.291.504 82.327-29.965 124.706-120.86 94.75-203.177-12.37-33.98-36.49-63.67-66.261-82.433m-29.408-13.714L355.856 573.002c-29.293-17.454-54.493-46.022-67.57-81.955-29.726-81.673 12.662-172.567 91.717-201.339 35.934-13.077 73.777-12.794 107.279-2.051" style="fill:#c0111e;fill-opacity:1;fill-rule:evenodd;stroke:none"/>
</svg>
