<svg xmlns="http://www.w3.org/2000/svg" xml:space="preserve" viewBox="0 0 350.906 466.906" role="img" aria-labelledby="title">
  <title id="title">Verkehrszeichen R2-2-L - One Way (left)</title>
  <path d="M-545.703 57.366h279.185c19.062 0 34.598-15.536 34.598-34.599V-372.42c0-19.084-15.536-34.625-34.598-34.625h-279.185c-19.089 0-34.625 15.541-34.625 34.625V22.767c0 19.063 15.536 34.6 34.625 34.6z" style="fill:#fff;fill-opacity:1;fill-rule:evenodd;stroke:#000;stroke-width:2.5;stroke-linecap:butt;stroke-linejoin:miter;stroke-miterlimit:6.41057158;stroke-opacity:1;stroke-dasharray:none" transform="translate(581.563 408.281)"/>
  <path d="M-545.703 51.278h278.966c15.729 0 28.51-12.782 28.51-28.51v-395.184c0-15.73-12.781-28.51-28.51-28.51h-278.966c-15.73 0-28.51 12.78-28.51 28.51V22.767c0 15.73 12.78 28.51 28.51 28.51" style="fill:#000;fill-opacity:1;fill-rule:evenodd;stroke:none" transform="translate(581.563 408.281)"/>
  <path d="M-545.703 38.882h278.966c9.067 0 16.14-7.073 16.14-16.11v-395.188c0-9.068-7.073-16.14-16.14-16.14h-278.966c-9.068 0-16.14 7.072-16.14 16.14V22.773c0 9.036 7.072 16.109 16.14 16.109" style="fill:#fff;fill-opacity:1;fill-rule:evenodd;stroke:none" transform="translate(581.563 408.281)"/>
  <path d="M-484.162-259.324c-19.37 0-32.656-14.39-32.656-48.15s12.177-48.15 32.656-48.15c21.03 0 32.098 21.03 32.098 48.15 0 22.692-6.088 48.15-32.098 48.15m0-14.942c11.625 0 17.156-9.412 17.156-33.208 0-22.14-5.531-33.208-17.156-33.208-12.177 0-18.266 8.854-18.266 33.208 0 22.692 6.64 33.208 18.266 33.208M-435.454-353.969h12.177l35.421 60.328v-60.328h14.39v92.427h-12.176l-35.422-59.77v59.77h-14.39zM-351.882-353.969h53.13v14.943h-38.74v22.693h27.12v14.39h-27.12v26.01h42.062v14.39h-56.452zM-534.901-214.376h14.39l7.193 48.15 12.729-48.15h13.286l11.62 48.15 7.198-48.15h14.39l-12.729 92.426h-13.286l-14.39-58.109-14.391 58.11h-13.281zM-412.033-214.376l-30.994 92.426h15.5l8.302-26.01h29.885l8.854 26.01h14.942l-31.546-92.426zm17.156 52.025h-18.817l9.411-27.671zM-355.58-214.376h17.156l22.14 35.974 21.583-35.974h17.157l-31.547 52.577v39.85h-14.39v-39.85zM-448.194-28.347l165.947 3.141v-37.547l-166.546 4.125 8.464-19.66c1.171-2.761.791-9.042-3.36-9.042-.984-.407-3.713 0-5.104 1.177l-80.614 43.635 81.02 45.41c1.365.412 3.334 1.391 4.698 1.391 3.933.193 6.5-2.562 4.151-7.073z" style="fill:#000;fill-opacity:1;fill-rule:evenodd;stroke:none" transform="translate(581.563 408.281)"/>
</svg>
