<svg xmlns="http://www.w3.org/2000/svg" viewBox="0 0 229 454" role="img" aria-labelledby="title">
  <title id="title">Verkehrszeichen R5-24 - Truck Zone</title>
  <g transform="translate(0 157)">
    <rect width="227" height="452" x="1" y="-156" rx="26" ry="26" style="opacity:1;fill:#000;fill-opacity:1;fill-rule:nonzero;stroke:none;stroke-width:72.09005737;stroke-linecap:square;stroke-linejoin:round;stroke-miterlimit:4;stroke-dasharray:none;stroke-opacity:1"/>
    <rect width="225" height="450" x="2" y="-155" rx="25" ry="25" style="opacity:1;fill:#fff;fill-opacity:1;fill-rule:nonzero;stroke:none;stroke-width:71.61280823;stroke-linecap:square;stroke-linejoin:round;stroke-miterlimit:4;stroke-dasharray:none;stroke-opacity:1"/>
    <rect width="200" height="140" x="14.5" y="-120" rx="12.5" ry="12.5" style="opacity:1;fill:#be121e;fill-opacity:1;fill-rule:nonzero;stroke:none;stroke-width:37.65929794;stroke-linecap:square;stroke-linejoin:round;stroke-miterlimit:4;stroke-dasharray:none;stroke-opacity:1"/>
    <g aria-label="ZONE" style="font-style:normal;font-variant:normal;font-weight:400;font-stretch:normal;font-size:72.04611206px;line-height:0;font-family:&quot;Roadgeek 2005 Series C&quot;;-inkscape-font-specification:&quot;Roadgeek 2005 Series C&quot;;letter-spacing:0;word-spacing:0;fill:#fc0;fill-opacity:1;stroke:none;stroke-width:1.80115271">
      <path d="M11.954 184.12v-7.42l17.94-34.222H13.826v-6.773H38.54v4.395l-19.453 37.392H38.54v6.628zM74.47 159.913q0 5.547-.65 9.438-.576 3.89-2.089 7.349-1.8 4.322-4.538 6.34-2.666 1.945-6.773 1.945-4.323 0-7.06-1.945-2.666-2.018-4.467-6.34-1.513-3.53-2.162-7.35-.576-3.89-.576-9.437 0-5.476.576-9.366.649-3.963 2.162-7.42 1.873-4.324 4.539-6.197 2.738-1.945 6.988-1.945 4.179 0 6.845 1.945 2.665 1.873 4.466 6.34.72 1.801 1.225 3.603.577 1.8.865 3.818.36 1.945.504 4.25.144 2.234.144 4.972m-6.629 0q0-2.017-.144-3.674-.072-1.658-.288-3.026-.144-1.441-.433-2.738-.288-1.297-.648-2.594-.937-3.242-2.377-4.683-1.37-1.44-3.53-1.44-4.468 0-6.125 5.98-.864 2.737-1.224 5.547-.289 2.737-.289 6.772 0 1.945.072 3.602.145 1.585.289 3.026.216 1.37.504 2.738.288 1.369.648 2.81 1.657 5.98 6.124 5.98 2.162 0 3.53-1.441 1.441-1.441 2.378-4.54.432-1.44.72-2.737.289-1.369.433-2.81.216-1.44.288-3.026.072-1.657.072-3.746M106.323 184.12l-14.914-32.348v32.348h-6.916v-48.27h6.916l13.257 28.962v-28.963h6.916v48.271zM122.387 184.12v-48.27h22.694v6.772h-15.778v12.176h10.014v6.628h-10.014v15.922h17.651v6.772z" style="font-style:normal;font-variant:normal;font-weight:400;font-stretch:normal;line-height:0;font-family:&quot;Roadgeek 2005 Series C&quot;;-inkscape-font-specification:&quot;Roadgeek 2005 Series C&quot;;letter-spacing:.32279167px;fill:#fff;stroke:none;stroke-width:1.80115271" transform="translate(35.046 -174.985)"/>
    </g>
    <path d="m189.5 254-20.173 15.375c-2.504 1.89-5.865-.843-4.52-3.675l2.693-5.7H71v-12h96.5l-2.693-5.7c-1.345-2.832 2.016-5.564 4.52-3.675z" style="color:#000;font-style:normal;font-variant:normal;font-weight:400;font-stretch:normal;font-size:medium;line-height:normal;font-family:sans-serif;font-variant-ligatures:normal;font-variant-position:normal;font-variant-caps:normal;font-variant-numeric:normal;font-variant-alternates:normal;font-feature-settings:normal;text-indent:0;text-align:start;text-decoration:none;text-decoration-line:none;text-decoration-style:solid;text-decoration-color:#000;letter-spacing:normal;word-spacing:normal;text-transform:none;writing-mode:lr-tb;direction:ltr;text-orientation:mixed;dominant-baseline:auto;baseline-shift:baseline;text-anchor:start;white-space:normal;shape-padding:0;clip-rule:nonzero;display:inline;overflow:visible;visibility:visible;opacity:1;isolation:auto;mix-blend-mode:normal;color-interpolation:sRGB;color-interpolation-filters:linearRGB;solid-color:#000;solid-opacity:1;vector-effect:none;fill:#be121e;fill-opacity:1;fill-rule:nonzero;stroke:none;stroke-width:5.9961462;stroke-linecap:square;stroke-linejoin:round;stroke-miterlimit:4;stroke-dasharray:none;stroke-dashoffset:0;stroke-opacity:1;color-rendering:auto;image-rendering:auto;shape-rendering:auto;text-rendering:auto"/>
    <path d="m39.5 254 20.173 15.375c2.504 1.89 5.865-.843 4.52-3.675L61.5 260H158v-12H61.5l2.693-5.7c1.345-2.832-2.016-5.564-4.52-3.675z" style="color:#000;font-style:normal;font-variant:normal;font-weight:400;font-stretch:normal;font-size:medium;line-height:normal;font-family:sans-serif;font-variant-ligatures:normal;font-variant-position:normal;font-variant-caps:normal;font-variant-numeric:normal;font-variant-alternates:normal;font-feature-settings:normal;text-indent:0;text-align:start;text-decoration:none;text-decoration-line:none;text-decoration-style:solid;text-decoration-color:#000;letter-spacing:normal;word-spacing:normal;text-transform:none;writing-mode:lr-tb;direction:ltr;text-orientation:mixed;dominant-baseline:auto;baseline-shift:baseline;text-anchor:start;white-space:normal;shape-padding:0;clip-rule:nonzero;display:inline;overflow:visible;visibility:visible;opacity:1;isolation:auto;mix-blend-mode:normal;color-interpolation:sRGB;color-interpolation-filters:linearRGB;solid-color:#000;solid-opacity:1;vector-effect:none;fill:#be121e;fill-opacity:1;fill-rule:nonzero;stroke:none;stroke-width:5.9961462;stroke-linecap:square;stroke-linejoin:round;stroke-miterlimit:4;stroke-dasharray:none;stroke-dashoffset:0;stroke-opacity:1;color-rendering:auto;image-rendering:auto;shape-rendering:auto;text-rendering:auto"/>
    <g aria-label="TRUCK" style="font-style:normal;font-variant:normal;font-weight:400;font-stretch:normal;font-size:72.04611206px;line-height:0;font-family:&quot;Roadgeek 2005 Series C&quot;;-inkscape-font-specification:&quot;Roadgeek 2005 Series C&quot;;letter-spacing:0;word-spacing:0;fill:#000;fill-opacity:1;stroke:none;stroke-width:1.80115271">
      <path d="M-401.84-26.138v41.859h-6.989v-41.859h-8.79v-6.412h24.568v6.412zM-362.666 15.72l-6.412-22.694h-6.628v22.695h-6.916v-48.27h14.409q2.81 0 5.115.936 2.378.936 4.035 2.593 1.729 1.657 2.593 4.107.937 2.377.937 5.26 0 4.322-1.73 7.348-1.728 3.026-5.187 4.323l6.917 23.703zm.36-35.374q0-2.81-1.729-4.467t-4.538-1.657h-7.133v12.176h7.133q3.025 0 4.61-1.513 1.658-1.585 1.658-4.539M-316.544 1.312q0 1.44-.144 2.593-.073 1.153-.289 2.162-.216.936-.576 1.873t-.865 1.873q-1.8 2.954-4.97 4.9-3.099 1.872-6.557 1.872-3.602 0-6.844-1.873-3.17-1.873-4.971-4.899-.505-.936-.865-1.873t-.576-1.873q-.217-1.009-.36-2.162-.073-1.152-.073-2.593V-32.55h6.917V2.176q0 3.458 1.873 5.548t4.9 2.09q2.809 0 4.61-2.09 1.873-2.09 1.873-5.548V-32.55h6.917zM-283.094-19.654q-1.081-6.988-5.764-6.988-2.09 0-3.602.936-1.441.865-2.378 2.882-.865 1.946-1.297 5.188-.36 3.242-.36 7.925 0 10.446 1.873 14.985 1.945 4.54 6.412 4.54 1.513 0 2.45-.577 1.008-.577 1.585-1.513.648-1.009.864-2.234.217-1.296.217-2.665h6.916q-.072 3.026-1.009 5.547t-2.521 4.395q-1.585 1.801-3.819 2.81-2.161 1.008-4.683 1.008-7.78 0-11.383-6.34-3.53-6.34-3.53-19.74 0-11.816 3.602-17.868t10.807-6.052q2.954 0 5.403 1.297 2.45 1.225 4.107 3.603 1.369 1.8 2.017 3.674.649 1.873 1.009 5.187zM-242.894 15.72l-8.502-23.558-4.395 8.141v15.418h-6.916v-48.27h6.916v19.307l11.023-19.308h7.997l-10.014 16.93 11.167 31.34z" style="font-style:normal;font-variant:normal;font-weight:400;font-stretch:normal;line-height:0;font-family:&quot;Roadgeek 2005 Series C&quot;;-inkscape-font-specification:&quot;Roadgeek 2005 Series C&quot;;letter-spacing:3.80999994px;fill:#fff;stroke:none;stroke-width:1.80115271" transform="translate(441.118 -76.585)"/>
    </g>
  </g>
</svg>
