<svg xmlns="http://www.w3.org/2000/svg" viewBox="0 0 450 900" role="img" aria-labelledby="title">
  <title id="title">Verkehrszeichen R7-V101-1-VIC - Part Time Tram Lane (used in VIC)</title>
  <path fill="#fff" fill-rule="evenodd" d="M.652 37.69c0-4.327.781-9.037 2.742-13.747 1.563-4.71 4.704-9.037 8.242-12.566 3.524-3.928 8.227-6.69 12.548-8.653C28.887 1.159 33.59.376 37.91.376h374.543c4.305 0 9.023.783 13.727 2.348 4.703 1.964 9.023 4.725 12.945 8.653 3.524 3.529 6.266 7.856 8.227 12.566 1.578 4.71 2.359 9.42 2.359 13.747v824.43c0 4.326-.781 9.037-2.36 13.747-1.96 4.71-4.702 9.037-8.226 12.965-3.922 3.528-8.242 6.29-12.945 8.254-4.704 1.565-9.422 2.347-13.727 2.347H37.91c-4.32 0-9.023-.782-13.726-2.347-4.32-1.964-9.024-4.726-12.548-8.254-3.538-3.928-6.68-8.255-8.242-12.965A35.7 35.7 0 0 1 .652 862.12z" style="stroke-width:3.92483"/>
  <path fill="none" stroke="#000" stroke-linejoin="bevel" stroke-miterlimit="1.414" stroke-width=".942" d="M365.957 491.039"/>
  <path fill-rule="evenodd" d="M225.38 851.518 334.399 751.36c.796-.782 1.578-1.964 1.578-3.529.382-1.181 0-2.363-.399-3.544-.781-.782-1.562-1.964-2.742-2.347-1.563-.4-2.742-.4-3.922-.4l-70.594 20.038v-62.844h-65.892v62.844l-70.977-20.037c-1.18 0-2.36 0-3.539.399-1.18.383-2.344 1.565-2.742 2.347-.781 1.181-.781 2.363-.781 3.544a7.54 7.54 0 0 0 1.96 3.53zM244.194 118.992H68.504l-19.61 14.146v16.877h7.844v29.458h-7.843v29.458H38.293v14.929h49.422c-3.523 1.18-6.664 4.326-7.843 8.638-1.563 4.326-.399 8.653 1.96 11.4 1.962 2.746 5.883 5.108 10.204 5.108 4.703 0 8.227-2.362 10.586-5.109 1.96-2.746 3.14-7.073 1.96-11.4-.398-2.347-1.577-3.927-3.14-5.492s-3.14-2.363-4.703-3.145h39.219c-3.14 1.18-6.281 4.326-7.844 8.638-1.18 4.326 0 8.653 2.344 11.4 1.961 2.746 5.883 5.108 10.203 5.108 4.703 0 8.242-2.362 10.586-5.109 1.961-2.746 3.14-7.073 1.961-11.4-1.18-4.31-4.703-7.456-7.844-8.637h16.868l5.883 14.146H282.63l5.883-14.146h16.868c-3.524 1.18-6.665 4.326-7.844 8.638-1.563 4.326-.399 8.653 1.96 11.4 1.962 2.746 5.884 5.108 10.204 5.108 4.703 0 8.227-2.362 10.586-5.109 1.96-2.746 3.14-7.073 1.96-11.4-.397-2.347-1.577-3.927-3.14-5.492-1.562-1.565-3.14-2.363-4.703-3.145h39.22c-3.141 1.18-6.282 4.326-7.845 8.638-1.18 4.326 0 8.653 2.344 11.4 1.961 2.746 5.5 5.108 10.203 5.108 4.704 0 8.243-2.362 10.587-5.109 1.96-2.746 3.14-7.073 1.96-11.4-1.18-4.31-4.703-7.456-7.843-8.637h49.422V208.93h-10.985v-29.458h-7.445v-29.458h7.445v-16.877l-19.21-14.147H286.17V102.1h-5.883l60.79-31.023c3.125 0 6.664-.783 9.008-3.544 2.758-2.348 3.922-5.892 3.54-8.638 0-3.145-1.18-6.275-3.923-8.638-2.742-2.363-6.28-3.145-9.422-2.747-2.742.384-5.882 1.964-7.843 5.11-1.961 3.13-2.344 6.674-1.563 9.42l-78.438 40.06h-8.242zM77.512 141.377v50.677H64.965v-50.677zm50.204 0v38.096H90.075v-38.096zm50.204 0v38.096h-37.656v-38.096zm37.657 0v77.373h-25.11v-77.373zm44.305 0v77.373h-25.094v-77.373zm50.204 0v38.096h-37.641v-38.096zm12.548 0h37.656v38.096h-37.656zm50.203 50.677v-50.677h12.547v50.677z" style="stroke-width:3.92483"/>
  <path fill="none" stroke="#000" stroke-linejoin="bevel" stroke-miterlimit="1.414" stroke-width=".942" d="M67.325 305.161v120.195h60.79v-16.892h-43.54V305.161h-17.25"/>
  <path fill-rule="evenodd" d="M67.325 425.356V305.161h17.25v103.303h43.54v16.892" style="stroke-width:3.92483"/>
  <path fill-rule="evenodd" d="M67.325 425.356V305.161h17.25v103.303h43.54v16.892" style="stroke-width:3.92483"/>
  <path fill="none" stroke="#000" stroke-linejoin="bevel" stroke-miterlimit="1.414" stroke-width=".942" d="M164.974 305.161 135.56 425.356h17.648l8.242-33.385h24.712l8.226 33.385h17.649l-29.414-120.195h-17.649"/>
  <path fill="none" stroke="#000" stroke-linejoin="bevel" stroke-miterlimit="1.414" stroke-width=".942" d="m173.6 341.692-7.845 33.386h16.086l-8.242-33.386"/>
  <path fill-rule="evenodd" d="M182.623 305.161h-17.649L135.56 425.356h17.648l8.242-33.385 4.305-16.893 7.844-33.386 8.242 33.386h-16.086l-4.305 16.893h24.712l8.226 33.385h17.649" style="stroke-width:3.92483"/>
  <path fill-rule="evenodd" d="M182.623 305.161h-17.649L135.56 425.356h17.648l8.242-33.385 4.305-16.893 7.844-33.386 8.242 33.386h-16.086l-4.305 16.893h24.712l8.226 33.385h17.649" style="stroke-width:3.92483"/>
  <path fill="none" stroke="#000" stroke-linejoin="bevel" stroke-miterlimit="1.414" stroke-width=".942" d="M228.904 305.161v120.195h17.25v-81.7l36.477 81.7h13.344V305.161H278.71v69.534l-30.976-69.534h-18.829"/>
  <path fill-rule="evenodd" d="M228.904 425.356V305.161h18.829l30.977 69.534V305.16h17.265v120.195h-13.344l-36.476-81.7v81.7" style="stroke-width:3.92483"/>
  <path fill-rule="evenodd" d="M228.904 425.356V305.161h18.829l30.977 69.534V305.16h17.265v120.195h-13.344l-36.476-81.7v81.7" style="stroke-width:3.92483"/>
  <path fill="none" stroke="#000" stroke-linejoin="bevel" stroke-miterlimit="1.414" stroke-width=".942" d="M365.39 368.803v-16.509H339.5v-30.24h41.96V305.16H322.25v120.195h61.172v-16.892H339.5v-39.661h25.89"/>
  <path fill-rule="evenodd" d="M322.249 425.356V305.161h59.212v16.892h-41.962v30.241h25.89v16.509H339.5v39.661h43.922v16.892" style="stroke-width:3.92483"/>
  <path fill-rule="evenodd" d="M322.249 425.356V305.161h59.212v16.892h-41.962v30.241h25.89v16.509H339.5v39.661h43.922v16.892" style="stroke-width:3.92483"/>
  <path fill="none" stroke="#000" stroke-linejoin="bevel" stroke-miterlimit="1.414" stroke-width=".942" d="M74.77 481.526h50.204v14.131"/>
  <path fill="none" stroke="#000" stroke-linejoin="bevel" stroke-miterlimit="1.414" stroke-width=".942" d="M124.974 495.657c-16.086 22.002-25.493 48.315-26.672 75.809M98.302 571.466H84.575M84.575 571.466c1.18-27.494 9.422-54.206 24.71-77.374M109.286 494.092H74.77v-12.566"/>
  <path fill-rule="evenodd" d="M74.77 481.526h50.204v14.131c-7.844 10.617-14.508 22.784-18.829 35.749-4.703 12.964-7.062 26.313-7.843 40.06H84.575c1.18-27.494 9.422-54.206 24.711-77.374H74.77z" style="stroke-width:3.92483"/>
  <path fill-rule="evenodd" d="M74.77 481.526h50.204v14.131c-7.844 10.617-14.508 22.784-18.829 35.749-4.703 12.964-7.062 26.313-7.843 40.06H84.575c1.18-27.494 9.422-54.206 24.711-77.374H74.77z" style="stroke-width:3.92483"/>
  <path fill="none" stroke="#000" stroke-linejoin="bevel" stroke-miterlimit="1.414" stroke-width=".942" d="M266.162 517.659c.782 2.746 2.743 5.109 5.485 6.29M271.647 523.95c3.14 1.165 6.281 1.564 9.422.782M281.069 524.732c3.523-.783 6.266-3.146 7.445-6.674M288.514 518.058c1.578-5.11 1.578-11.001 0-16.11M288.514 501.948c-.383-1.964-1.18-3.53-2.742-4.71M285.772 497.237c-2.36-1.963-5.485-3.145-8.625-2.746M277.147 494.491c-4.703 0-9.024 2.746-10.985 7.058M266.162 501.549c-1.96 5.508-1.96 11 0 16.11M271.264 572.248c19.61-14.53 30.977-37.313 30.977-61.662M302.241 510.586c.398-6.276-1.18-12.566-3.922-18.059"/>
  <path fill="none" stroke="#000" stroke-linejoin="bevel" stroke-miterlimit="1.414" stroke-width=".942" d="M298.32 492.527c-5.102-7.855-14.11-11.783-23.532-11-9.407 1.18-17.25 7.072-20.79 15.71M253.998 497.237c-1.562 5.892-2.344 12.167-1.562 18.458M252.436 515.695c.781 7.073 4.703 13.747 10.984 17.675 5.883 4.326 13.329 5.492 20.391 3.529"/>
  <path fill="none" stroke="#000" stroke-linejoin="bevel" stroke-miterlimit="1.414" stroke-width=".942" d="M283.811 536.899c-5.102 9.819-12.164 18.856-20.39 25.53M263.42 562.429l7.844 9.82"/>
  <path fill-rule="evenodd" d="M285.772 497.237c1.563 1.182 2.36 2.747 2.742 4.71 1.578 5.11 1.578 11.001 0 16.11-.383 1.566-1.562 3.13-2.742 4.312-1.563 1.181-3.14 1.964-4.703 2.363l2.742 12.167c-2.36 5.109-5.484 9.819-9.023 14.146-3.524 4.326-7.446 8.254-11.368 11.384l7.844 9.82c19.61-14.53 30.977-37.314 30.977-61.663.398-6.276-1.18-12.566-3.922-18.059-5.102-7.855-14.11-11.783-23.531-11-9.407 1.18-17.25 7.072-20.79 15.71-1.562 5.892-2.344 12.167-1.562 18.458.398 3.145 1.18 6.29 3.14 9.42 1.961 3.146 4.305 6.29 7.844 8.255 3.14 2.362 6.664 3.529 10.188 4.326 3.539.384 7.062 0 10.203-.797l-2.742-12.167c-3.14.782-6.281.383-9.422-.783-2.742-1.181-4.703-3.544-5.485-6.29-1.96-5.11-1.96-10.602 0-16.11 1.961-4.312 6.282-7.058 10.985-7.058 3.14-.399 6.266.783 8.625 2.746" style="stroke-width:3.92483"/>
  <path fill-rule="evenodd" d="M285.772 497.237c1.563 1.182 2.36 2.747 2.742 4.71 1.578 5.11 1.578 11.001 0 16.11-.383 1.566-1.562 3.13-2.742 4.312-1.563 1.181-3.14 1.964-4.703 2.363l2.742 12.167c-2.36 5.109-5.484 9.819-9.023 14.146-3.524 4.326-7.446 8.254-11.368 11.384l7.844 9.82c19.61-14.53 30.977-37.314 30.977-61.663.398-6.276-1.18-12.566-3.922-18.059-5.102-7.855-14.11-11.783-23.531-11-9.407 1.18-17.25 7.072-20.79 15.71-1.562 5.892-2.344 12.167-1.562 18.458.398 3.145 1.18 6.29 3.14 9.42 1.961 3.146 4.305 6.29 7.844 8.255 3.14 2.362 6.664 3.529 10.188 4.326 3.539.384 7.062 0 10.203-.797l-2.742-12.167c-3.14.782-6.281.383-9.422-.783-2.742-1.181-4.703-3.544-5.485-6.29-1.96-5.11-1.96-10.602 0-16.11 1.961-4.312 6.282-7.058 10.985-7.058 3.14-.399 6.266.783 8.625 2.746" style="stroke-width:3.92483"/>
  <path fill="none" stroke="#000" stroke-linejoin="bevel" stroke-miterlimit="1.414" stroke-width=".942" d="M150.068 506.274h1.96M152.029 506.274c2.757 0 5.101 1.166 5.883 3.928M157.912 510.202c1.18 2.348 1.18 5.493 0 8.24M157.912 518.441c-1.961 1.964-4.704 3.145-7.048 1.964-2.757-.782-4.718-3.145-4.718-5.892M146.146 514.513h-6.266"/>
  <path fill="none" stroke="#000" stroke-linejoin="bevel" stroke-miterlimit="1.414" stroke-width=".942" d="M139.88 514.513c0 7.073 5.883 12.566 12.547 12.566 7.062 0 12.945-5.493 12.547-12.566M164.974 514.513c.398-4.31-1.18-8.638-4.703-11.783M160.27 502.73c2.743-2.746 3.923-6.275 3.923-9.82M164.193 492.91c0-5.89-4.704-11-10.586-11-5.883-.384-10.985 3.928-11.383 9.82M142.224 491.73l6.281.797"/>
  <path fill="none" stroke="#000" stroke-linejoin="bevel" stroke-miterlimit="1.414" stroke-width=".942" d="M148.505 492.527c0-1.964 1.18-3.544 2.742-3.928 1.961-.797 3.54-.398 5.102.783M156.349 489.382c2.742 3.529 1.563 9.037-2.742 10.602M153.607 499.984h-3.54v6.29"/>
  <path fill-rule="evenodd" d="M150.068 506.274h1.96c1.18 0 2.36.384 3.54.783 1.18.782 1.96 1.964 2.344 3.145 1.18 2.348 1.18 5.493 0 8.24-1.961 1.963-4.704 3.144-7.048 1.963-1.578-.384-2.359-1.181-3.539-1.964-.78-1.181-1.18-2.746-1.18-3.928h-6.265c0 3.146 1.18 6.29 3.922 9.037 2.344 2.747 5.883 3.53 8.625 3.53 3.14 0 6.664-1.167 9.023-3.53 2.743-2.746 3.922-5.891 3.524-9.037.398-4.31-1.18-8.638-4.703-11.783 2.742-2.746 3.922-6.275 3.922-9.82 0-5.89-4.704-11-10.586-11-2.743-.384-5.5.399-7.844 2.762-2.36 1.964-3.54 4.71-3.54 7.057l6.282.798c0-1.964 1.18-3.544 2.742-3.928 1.961-.797 3.54-.398 5.102.783 1.18 1.565 1.96 3.529 1.18 5.892-.399 2.347-2.36 3.927-3.922 4.71h-3.54z" style="stroke-width:3.92483"/>
  <path fill-rule="evenodd" d="M150.068 506.274h1.96c1.18 0 2.36.384 3.54.783 1.18.782 1.96 1.964 2.344 3.145 1.18 2.348 1.18 5.493 0 8.24-1.961 1.963-4.704 3.144-7.048 1.963-1.578-.384-2.359-1.181-3.539-1.964-.78-1.181-1.18-2.746-1.18-3.928h-6.265c0 3.146 1.18 6.29 3.922 9.037 2.344 2.747 5.883 3.53 8.625 3.53 3.14 0 6.664-1.167 9.023-3.53 2.743-2.746 3.922-5.891 3.524-9.037.398-4.31-1.18-8.638-4.703-11.783 2.742-2.746 3.922-6.275 3.922-9.82 0-5.89-4.704-11-10.586-11-2.743-.384-5.5.399-7.844 2.762-2.36 1.964-3.54 4.71-3.54 7.057l6.282.798c0-1.964 1.18-3.544 2.742-3.928 1.961-.797 3.54-.398 5.102.783 1.18 1.565 1.96 3.529 1.18 5.892-.399 2.347-2.36 3.927-3.922 4.71h-3.54z" style="stroke-width:3.92483"/>
  <path fill="none" stroke="#000" stroke-linejoin="bevel" stroke-miterlimit="1.414" stroke-width=".942" d="M184.982 521.188c1.96 0 3.524-.783 4.305-1.964M189.287 519.224c1.96-4.71 2.757-9.82 2.757-14.53M192.044 504.694c0-5.11-.796-10.203-2.757-14.929M189.287 489.765c-.781-1.166-2.344-1.963-4.305-1.963M184.982 487.802c-1.578 0-3.14.797-3.922 1.963M181.06 489.765c-1.96 4.726-3.14 9.82-2.742 14.929M178.318 504.694c-.399 4.71.781 9.82 2.742 14.53M181.06 519.224c.781 1.181 2.344 1.964 3.922 1.964M175.177 521.985c1.961 3.53 5.883 5.892 9.805 5.493M184.982 527.478c4.305.399 8.227-1.964 10.188-5.493M195.17 521.985c2.359-5.508 3.539-11.4 3.14-17.291M198.31 504.694c.399-6.275-.781-12.167-3.14-17.675M195.17 487.02c-1.961-3.53-5.883-5.892-10.188-5.494M184.982 481.526c-3.922-.399-7.844 1.964-9.805 5.493M175.177 487.02c-2.36 5.507-3.539 11.399-3.14 17.674M172.037 504.694c-.399 5.892.78 11.783 3.14 17.291"/>
  <path fill-rule="evenodd" d="M181.06 489.765c.383-.383.781-1.166 1.563-1.564.78-.4 1.578-.4 2.359-.4v-6.275c-3.922-.399-7.844 1.964-9.805 5.493-2.36 5.508-3.539 11.4-3.14 17.675-.399 5.892.78 11.783 3.14 17.291 1.961 3.53 5.883 5.892 9.805 5.493 4.305.399 8.227-1.964 10.188-5.493 2.359-5.508 3.539-11.4 3.14-17.291.399-6.275-.781-12.167-3.14-17.675-1.165-1.565-2.344-3.145-4.305-4.311-.782-.4-1.578-.798-2.742-.798-1.18-.384-1.961-.384-3.141-.384v6.275c1.96 0 3.524.798 4.305 1.964 1.96 4.726 2.757 9.82 2.757 14.929 0 4.71-.796 9.82-2.757 14.53-.781 1.18-2.344 1.963-4.305 1.963-1.578 0-3.14-.782-3.922-1.963-1.96-4.71-3.14-9.82-2.742-14.53-.399-5.11.781-10.203 2.742-14.929" style="stroke-width:3.92483"/>
  <path fill-rule="evenodd" d="M181.06 489.765c.383-.383.781-1.166 1.563-1.564.78-.4 1.578-.4 2.359-.4v-6.275c-3.922-.399-7.844 1.964-9.805 5.493-2.36 5.508-3.539 11.4-3.14 17.675-.399 5.892.78 11.783 3.14 17.291 1.961 3.53 5.883 5.892 9.805 5.493 4.305.399 8.227-1.964 10.188-5.493 2.359-5.508 3.539-11.4 3.14-17.291.399-6.275-.781-12.167-3.14-17.675-1.165-1.565-2.344-3.145-4.305-4.311-.782-.4-1.578-.798-2.742-.798-1.18-.384-1.961-.384-3.141-.384v6.275c1.96 0 3.524.798 4.305 1.964 1.96 4.726 2.757 9.82 2.757 14.929 0 4.71-.796 9.82-2.757 14.53-.781 1.18-2.344 1.963-4.305 1.963-1.578 0-3.14-.782-3.922-1.963-1.96-4.71-3.14-9.82-2.742-14.53-.399-5.11.781-10.203 2.742-14.929M209.693 520.021v12.566h31.375v-12.566" style="stroke-width:3.92483"/>
  <path fill-rule="evenodd" d="M209.693 520.021v12.566h31.375v-12.566" style="stroke-width:3.92483"/>
  <path fill="none" stroke="#000" stroke-linejoin="bevel" stroke-miterlimit="1.414" stroke-width=".942" d="M209.693 532.587h31.375v-12.566h-31.375v12.566M327.733 506.274h1.961M329.694 506.274c2.36 0 4.704 1.166 5.883 3.928M335.577 510.202c1.18 2.348 1.18 5.493-.383 8.24M335.194 518.441c-1.578 1.964-4.32 3.145-7.062 1.964-2.743-.782-4.32-3.145-4.32-5.892M323.811 514.513h-6.265"/>
  <path fill="none" stroke="#000" stroke-linejoin="bevel" stroke-miterlimit="1.414" stroke-width=".942" d="M317.546 514.513c0 7.073 5.484 12.566 12.547 12.566 7.062 0 12.547-5.493 12.547-12.566M342.64 514.513c.398-4.31-1.563-8.638-4.703-11.783M337.937 502.73c2.343-2.746 3.921-6.275 3.523-9.82M341.46 492.91c0-5.89-4.703-11-10.586-11-5.883-.384-10.984 3.928-11.367 9.82M319.507 491.73l6.265.797"/>
  <path fill="none" stroke="#000" stroke-linejoin="bevel" stroke-miterlimit="1.414" stroke-width=".942" d="M325.772 492.527c.399-1.964 1.18-3.544 3.141-3.928 1.563-.797 3.524-.398 4.703.783M333.616 489.382c3.14 3.529 1.578 9.037-2.742 10.602M330.874 499.984h-3.14v6.29"/>
  <path fill-rule="evenodd" d="M327.733 506.274h1.961c1.18 0 2.36.384 3.54.783 1.164.782 1.96 1.964 2.343 3.145 1.18 2.348 1.18 5.493-.383 8.24-1.578 1.963-4.32 3.144-7.062 1.963-1.18-.384-2.36-1.181-3.141-1.964-.781-1.181-1.18-2.746-1.18-3.928h-6.266c0 3.146.782 6.29 3.524 9.037s5.883 3.53 9.024 3.53 6.265-1.167 9.023-3.53c2.344-2.746 3.524-5.891 3.524-9.037.398-4.31-1.563-8.638-4.704-11.783 2.344-2.746 3.922-6.275 3.524-9.82 0-5.89-4.703-11-10.586-11-2.36-.384-5.102.399-7.446 2.762-2.359 1.964-3.539 4.71-3.922 7.057l6.266.798c.399-1.964 1.18-3.544 3.14-3.928 1.564-.797 3.524-.398 4.704.783 1.18 1.565 1.961 3.529 1.578 5.892-.797 2.347-2.36 3.927-4.32 4.71h-3.14z" style="stroke-width:3.92483"/>
  <path fill-rule="evenodd" d="M327.733 506.274h1.961c1.18 0 2.36.384 3.54.783 1.164.782 1.96 1.964 2.343 3.145 1.18 2.348 1.18 5.493-.383 8.24-1.578 1.963-4.32 3.144-7.062 1.963-1.18-.384-2.36-1.181-3.141-1.964-.781-1.181-1.18-2.746-1.18-3.928h-6.266c0 3.146.782 6.29 3.524 9.037s5.883 3.53 9.024 3.53 6.265-1.167 9.023-3.53c2.344-2.746 3.524-5.891 3.524-9.037.398-4.31-1.563-8.638-4.704-11.783 2.344-2.746 3.922-6.275 3.524-9.82 0-5.89-4.703-11-10.586-11-2.36-.384-5.102.399-7.446 2.762-2.359 1.964-3.539 4.71-3.922 7.057l6.266.798c.399-1.964 1.18-3.544 3.14-3.928 1.564-.797 3.524-.398 4.704.783 1.18 1.565 1.961 3.529 1.578 5.892-.797 2.347-2.36 3.927-4.32 4.71h-3.14z" style="stroke-width:3.92483"/>
  <path fill="none" stroke="#000" stroke-linejoin="bevel" stroke-miterlimit="1.414" stroke-width=".942" d="M362.648 521.188c1.562 0 3.125-.783 3.922-1.964"/>
  <path fill="none" stroke="#000" stroke-linejoin="bevel" stroke-miterlimit="1.414" stroke-width=".942" d="M366.57 519.224c1.96-4.71 3.125-9.82 2.742-14.53M369.312 504.694c.383-5.11-.782-10.203-2.742-14.929M366.57 489.765c-.797-1.166-2.36-1.963-3.922-1.963M362.648 487.802c-1.578 0-3.141.797-4.32 1.963M358.327 489.765c-1.96 4.726-2.742 9.82-2.359 14.929M355.968 504.694c-.383 4.71.398 9.82 2.36 14.53M358.327 519.224c1.18 1.181 2.743 1.964 4.32 1.964M352.843 521.985c1.562 3.53 5.484 5.892 9.805 5.493M362.648 527.478c3.922.399 7.843-1.964 9.804-5.493M372.452 521.985a44.2 44.2 0 0 0 3.524-17.291M375.976 504.694c0-6.275-1.18-12.167-3.524-17.675M372.452 487.02c-1.96-3.53-5.882-5.892-9.804-5.494M362.648 481.526c-4.32-.399-8.243 1.964-9.805 5.493M352.843 487.02q-3.54 8.261-3.54 17.674M349.304 504.694c0 5.892 1.18 11.783 3.539 17.291"/>
  <path fill-rule="evenodd" d="M358.327 489.765c.399-.383 1.18-1.166 1.961-1.564.782-.4 1.563-.4 2.36-.4v-6.275c-4.32-.399-8.243 1.964-9.805 5.493q-3.54 8.262-3.54 17.675c0 5.892 1.18 11.783 3.54 17.291 1.562 3.53 5.484 5.892 9.805 5.493 3.922.399 7.843-1.964 9.804-5.493a44.2 44.2 0 0 0 3.524-17.291c0-6.275-1.18-12.167-3.524-17.675-.796-1.565-2.359-3.145-3.922-4.311-1.18-.4-1.96-.798-3.14-.798-.781-.384-1.961-.384-2.742-.384v6.275c1.562 0 3.125.798 3.922 1.964 1.96 4.726 3.125 9.82 2.742 14.929.383 4.71-.782 9.82-2.742 14.53-.797 1.18-2.36 1.963-3.922 1.963-1.578 0-3.141-.782-4.32-1.963-1.962-4.71-2.743-9.82-2.36-14.53-.383-5.11.398-10.203 2.36-14.929" style="stroke-width:3.92483"/>
  <path fill-rule="evenodd" d="M358.327 489.765c.399-.383 1.18-1.166 1.961-1.564.782-.4 1.563-.4 2.36-.4v-6.275c-4.32-.399-8.243 1.964-9.805 5.493q-3.54 8.262-3.54 17.675c0 5.892 1.18 11.783 3.54 17.291 1.562 3.53 5.484 5.892 9.805 5.493 3.922.399 7.843-1.964 9.804-5.493a44.2 44.2 0 0 0 3.524-17.291c0-6.275-1.18-12.167-3.524-17.675-.796-1.565-2.359-3.145-3.922-4.311-1.18-.4-1.96-.798-3.14-.798-.781-.384-1.961-.384-2.742-.384v6.275c1.562 0 3.125.798 3.922 1.964 1.96 4.726 3.125 9.82 2.742 14.929.383 4.71-.782 9.82-2.742 14.53-.797 1.18-2.36 1.963-3.922 1.963-1.578 0-3.141-.782-4.32-1.963-1.962-4.71-2.743-9.82-2.36-14.53-.383-5.11.398-10.203 2.36-14.929" style="stroke-width:3.92483"/>
  <path fill="none" stroke="#000" stroke-linejoin="bevel" stroke-miterlimit="1.414" stroke-width=".942" d="m344.6 572.248-12.163-33.77h-4.704l-11.765 33.77h5.5l3.523-9.42h10.586l3.14 9.42h5.884"/>
  <path fill="none" stroke="#000" stroke-linejoin="bevel" stroke-miterlimit="1.414" stroke-width=".942" d="M326.952 557.719h6.664l-3.523-9.82-3.14 9.82"/>
  <path fill-rule="evenodd" d="m324.991 562.828 1.961-5.11 3.14-9.819 3.524 9.82h-6.664zh10.585l3.14 9.42h5.884l-12.164-33.77h-4.704l-11.765 33.77h5.5" style="stroke-width:3.92483"/>
  <path fill-rule="evenodd" d="m324.991 562.828 1.961-5.11 3.14-9.819 3.524 9.82h-6.664zh10.585l3.14 9.42h5.884l-12.164-33.77h-4.704l-11.765 33.77h5.5" style="stroke-width:3.92483"/>
  <path fill="none" stroke="#000" stroke-linejoin="bevel" stroke-miterlimit="1.414" stroke-width=".942" d="M375.976 538.479v33.77h-5.485v-19.64l-7.843 19.64-7.844-19.64v19.64h-5.102v-33.77h5.102l7.844 19.639 7.843-19.64h5.485"/>
  <path fill-rule="evenodd" d="M349.702 572.248v-33.77h5.102l7.844 19.64 7.843-19.64h5.485v33.77h-5.485V552.61l-7.843 19.638-7.844-19.638v19.638z" style="stroke-width:3.92483"/>
  <path fill-rule="evenodd" d="M349.702 572.248v-33.77h5.102l7.844 19.64 7.843-19.64h5.485v33.77h-5.485V552.61l-7.843 19.638-7.844-19.638v19.638z" style="stroke-width:3.92483"/>
  <path fill="none" stroke="#000" stroke-linejoin="bevel" stroke-miterlimit="1.414" stroke-width=".942" d="M136.74 661.42v-45.169h-7.844l-13.329 27.096-12.945-27.096H94.38v45.17h7.843v-27.495l12.946 27.096 13.727-26.712v27.11h7.843"/>
  <path fill-rule="evenodd" d="M94.38 661.42v-45.169h8.242l12.945 27.096 13.329-27.096h7.843v45.17h-7.843V634.31l-13.727 26.712-12.946-27.096v27.495" style="stroke-width:3.92483"/>
  <path fill-rule="evenodd" d="M94.38 661.42v-45.169h8.242l12.945 27.096 13.329-27.096h7.843v45.17h-7.843V634.31l-13.727 26.712-12.946-27.096v27.495" style="stroke-width:3.92483"/>
  <path fill="none" stroke="#000" stroke-linejoin="bevel" stroke-miterlimit="1.414" stroke-width=".942" d="M149.286 650.803c2.36 6.69 9.024 11.4 16.47 11.4 7.46 0 14.124-4.71 16.867-11.4M182.623 650.803c2.742-7.855 2.742-16.094 0-23.95M182.623 626.853c-2.743-7.073-9.407-11.4-16.868-11.4-7.445 0-14.11 4.327-16.469 11.4M149.286 626.853c-3.14 7.856-3.14 16.095 0 23.95M175.177 629.6a25.1 25.1 0 0 1 0 18.457"/>
  <path fill="none" stroke="#000" stroke-linejoin="bevel" stroke-miterlimit="1.414" stroke-width=".942" d="M175.177 648.057c-1.578 3.928-5.101 6.29-9.422 6.29-4.305 0-7.843-2.362-9.406-6.29M156.349 648.057a24.95 24.95 0 0 1 0-18.457M156.349 629.6c1.563-3.928 5.101-6.29 9.406-6.29 4.32 0 7.844 2.362 9.422 6.29"/>
  <path fill-rule="evenodd" d="M154.786 638.637h-7.844c0 2.347 0 4.311.384 6.275.398 1.964 1.18 3.928 1.96 5.891 2.36 6.69 9.024 11.4 16.47 11.4 7.46 0 14.125-4.71 16.867-11.4 2.742-7.855 2.742-16.094 0-23.95-2.742-7.073-9.407-11.4-16.868-11.4-7.445 0-14.11 4.327-16.468 11.4-.782 1.964-1.563 3.928-1.961 5.892-.384 1.964-.384 3.928-.384 5.892zc0-3.146.383-6.29 1.563-9.037 1.563-3.928 5.101-6.29 9.406-6.29 4.32 0 7.844 2.362 9.422 6.29a25.1 25.1 0 0 1 0 18.457c-1.578 3.928-5.101 6.29-9.422 6.29-4.305 0-7.843-2.362-9.406-6.29-1.18-3.145-1.563-6.275-1.563-9.42" style="stroke-width:3.92483"/>
  <path fill-rule="evenodd" d="M154.786 638.637h-7.844c0 2.347 0 4.311.384 6.275.398 1.964 1.18 3.928 1.96 5.891 2.36 6.69 9.024 11.4 16.47 11.4 7.46 0 14.125-4.71 16.867-11.4 2.742-7.855 2.742-16.094 0-23.95-2.742-7.073-9.407-11.4-16.868-11.4-7.445 0-14.11 4.327-16.468 11.4-.782 1.964-1.563 3.928-1.961 5.892-.384 1.964-.384 3.928-.384 5.892zc0-3.146.383-6.29 1.563-9.037 1.563-3.928 5.101-6.29 9.406-6.29 4.32 0 7.844 2.362 9.422 6.29a25.1 25.1 0 0 1 0 18.457c-1.578 3.928-5.101 6.29-9.422 6.29-4.305 0-7.843-2.362-9.406-6.29-1.18-3.145-1.563-6.275-1.563-9.42" style="stroke-width:3.92483"/>
  <path fill="none" stroke="#000" stroke-linejoin="bevel" stroke-miterlimit="1.414" stroke-width=".942" d="M194.787 661.42v-45.169h7.844l20.789 30.241v-30.24h7.844v45.169H224.2l-21.57-31.039v31.039h-7.844"/>
  <path fill-rule="evenodd" d="M194.787 661.42v-45.169h7.844l20.789 30.241v-30.24h7.844v45.169H224.2l-21.57-31.039v31.039" style="stroke-width:3.92483"/>
  <path fill-rule="evenodd" d="M194.787 661.42v-45.169h7.844l20.789 30.241v-30.24h7.844v45.169H224.2l-21.57-31.039v31.039M238.71 642.564v-7.855h15.687v7.855" style="stroke-width:3.92483"/>
  <path fill-rule="evenodd" d="M238.71 642.564v-7.855h15.687v7.855" style="stroke-width:3.92483"/>
  <path fill="none" stroke="#000" stroke-linejoin="bevel" stroke-miterlimit="1.414" stroke-width=".942" d="M254.397 642.564v-7.855h-15.688v7.855h15.688M261.46 661.42h7.843v-21.218h13.727v-7.856h-13.727v-8.239h25.875v-7.856H261.46v45.17"/>
  <path fill-rule="evenodd" d="M261.46 661.42v-45.169h33.718v7.856h-25.875v8.24h13.727v7.855h-13.727v21.219" style="stroke-width:3.92483"/>
  <path fill-rule="evenodd" d="M261.46 661.42v-45.169h33.718v7.856h-25.875v8.24h13.727v7.855h-13.727v21.219" style="stroke-width:3.92483"/>
  <path fill="none" stroke="#000" stroke-linejoin="bevel" stroke-miterlimit="1.414" stroke-width=".942" d="M310.483 661.42h-7.844v-45.169h22.352M324.991 616.251c6.281.384 11.766 4.71 12.946 10.602 1.562 6.276-1.578 12.566-7.063 15.312"/>
  <path fill="none" stroke="#000" stroke-linejoin="bevel" stroke-miterlimit="1.414" stroke-width=".942" d="m330.874 642.165 8.242 19.256h-8.64l-7.844-17.675h-12.149v17.675M310.483 624.107h14.508-.398M324.593 624.107c3.14 0 5.883 2.746 5.883 5.892 0 3.13-2.743 5.891-5.883 5.891"/>
  <path fill="none" stroke="#000" stroke-linejoin="bevel" stroke-miterlimit="1.414" stroke-width=".942" d="M324.593 635.89h.398-14.508v-11.783"/>
  <path fill-rule="evenodd" d="M310.483 643.746h12.149l7.844 17.675h8.64l-8.242-19.256c5.485-2.746 8.625-9.036 7.063-15.312-1.18-5.891-6.665-10.218-12.946-10.602h-14.508v7.856h14.508-.398c1.578 0 3.14.384 4.32 1.964 1.18 1.166 1.563 2.347 1.563 3.928 0 3.13-2.344 5.891-5.883 5.891h.398-14.508v-19.639h-7.844v45.17h7.844z" style="stroke-width:3.92483"/>
  <path fill-rule="evenodd" d="M310.483 643.746h12.149l7.844 17.675h8.64l-8.242-19.256c5.485-2.746 8.625-9.036 7.063-15.312-1.18-5.891-6.665-10.218-12.946-10.602h-14.508v7.856h14.508-.398c1.578 0 3.14.384 4.32 1.964 1.18 1.166 1.563 2.347 1.563 3.928 0 3.13-2.344 5.891-5.883 5.891h.398-14.508v-19.639h-7.844v45.17h7.844zM348.124 661.42v-45.169h7.844v45.17" style="stroke-width:3.92483"/>
  <path fill-rule="evenodd" d="M348.124 661.42v-45.169h7.844v45.17" style="stroke-width:3.92483"/>
  <path fill="none" stroke="#000" stroke-linejoin="bevel" stroke-miterlimit="1.414" stroke-width=".942" d="M348.124 616.251v45.17h7.844v-45.17h-7.844"/>
  <path fill-rule="evenodd" d="M8.098 37.69v824.43c0 3.544.78 7.472 2.359 11 1.18 3.928 3.523 7.074 6.664 10.219 2.742 3.13 6.281 5.094 9.805 6.674 3.922 1.565 7.445 1.964 10.984 1.964h374.543c3.523 0 7.445-.399 10.984-1.964 3.922-1.58 7.047-3.544 10.188-6.674 3.14-3.145 5.102-6.29 6.664-10.218 1.578-3.53 1.961-7.457 1.961-11.001V37.69c0-3.544-.383-7.472-1.96-11-1.563-3.929-3.524-7.074-6.665-10.219-3.14-2.746-6.266-5.094-10.188-6.674-3.539-1.565-7.46-1.964-10.984-1.964H37.91c-3.539 0-7.062.399-10.984 1.964-3.524 1.58-7.063 3.928-9.805 6.674-3.14 3.145-5.485 6.29-6.664 10.218-1.578 3.53-2.36 7.457-2.36 11.001m14.907 0c0-3.928 1.562-7.855 4.32-10.602 3.125-2.762 6.664-4.327 10.586-4.327h374.543c1.96 0 3.523.4 5.484 1.182 1.961.384 3.54 1.565 5.102 3.145 3.14 3.13 4.32 7.058 4.32 10.602v824.43c0 3.544-1.18 7.472-4.32 10.602-3.14 3.145-7.063 4.326-10.586 4.326H37.91c-1.578 0-3.539-.399-5.5-.782-1.562-.783-3.523-1.964-5.086-3.544-1.18-1.565-2.36-3.13-3.14-5.094-.782-1.964-1.18-3.544-1.18-5.508z" style="stroke-width:3.92483"/>
  <path fill="none" stroke="#000" stroke-linejoin="bevel" stroke-miterlimit="1.414" stroke-width=".942" d="M37.91.376h374.543M449.711 37.69v824.43M412.453 899.433H37.91M.652 862.12V37.69M.652 37.69c0-9.82 3.922-19.255 10.984-26.313 7.048-7.073 16.47-11 26.274-11M412.453.376c9.805 0 19.61 3.928 26.672 11.001 6.664 7.058 10.586 16.494 10.586 26.313M449.711 862.12c0 9.82-3.922 19.639-10.586 26.712-7.063 6.674-16.867 10.601-26.672 10.601M37.91 899.433c-9.805 0-19.226-3.927-26.274-10.601C4.574 881.759.652 871.939.652 862.12"/>
</svg>
