<svg xmlns="http://www.w3.org/2000/svg" viewBox="0 0 1206 1141" role="img" aria-labelledby="title">
  <title id="title">Verkehrszeichen R4-231-N - End of School Zone (used in NSW)</title>
  <g transform="translate(0 844)">
    <rect width="1204" height="1139" x="1" y="-843" rx="62" ry="62" style="opacity:1;fill:#000;fill-opacity:1;fill-rule:nonzero;stroke:none;stroke-width:223.67681885;stroke-linecap:square;stroke-linejoin:round;stroke-miterlimit:4;stroke-dasharray:none;stroke-opacity:1"/>
    <rect width="1200" height="1135" x="3" y="-841" rx="60" ry="60" style="opacity:1;fill:#fff;fill-opacity:1;fill-rule:nonzero;stroke:none;stroke-width:222.9125061;stroke-linecap:square;stroke-linejoin:round;stroke-miterlimit:4;stroke-dasharray:none;stroke-opacity:1"/>
    <rect width="592" height="1119" x="11" y="-833" rx="52" ry="52" style="opacity:1;fill:#000;fill-opacity:1;fill-rule:nonzero;stroke:none;stroke-width:6.94436121;stroke-linecap:square;stroke-linejoin:round;stroke-miterlimit:4;stroke-dasharray:none;stroke-opacity:1"/>
    <rect width="560" height="1087" x="27" y="-817" rx="36" ry="36" style="opacity:1;fill:#fff;fill-opacity:1;fill-rule:nonzero;stroke:none;stroke-width:6.65679502;stroke-linecap:square;stroke-linejoin:round;stroke-miterlimit:4;stroke-dasharray:none;stroke-opacity:1"/>
    <circle cx="903" cy="-273.5" r="295" style="opacity:1;fill:#be121e;fill-opacity:1;fill-rule:nonzero;stroke:none;stroke-width:105.97939301;stroke-linecap:square;stroke-linejoin:round;stroke-miterlimit:4;stroke-dasharray:none;stroke-opacity:1"/>
    <circle cx="903" cy="-273.5" r="245" style="opacity:1;fill:#fff;fill-opacity:1;fill-rule:nonzero;stroke:none;stroke-width:88.01678467;stroke-linecap:square;stroke-linejoin:round;stroke-miterlimit:4;stroke-dasharray:none;stroke-opacity:1"/>
    <g aria-label="60" style="font-style:normal;font-variant:normal;font-weight:400;font-stretch:normal;font-size:345.82131958px;line-height:0;font-family:&quot;Roadgeek 2005 Series D&quot;;-inkscape-font-specification:&quot;Roadgeek 2005 Series D&quot;;letter-spacing:0;word-spacing:0;fill:#000;fill-opacity:1;stroke:none;stroke-width:8.64553261">
      <path d="M1927.918 998.607q0 14.87-6.224 28.011-5.88 12.795-16.6 22.478-10.375 9.338-24.899 14.87-14.524 5.534-31.124 5.534t-31.124-5.533q-14.524-5.88-25.245-15.908-10.374-10.029-16.6-23.516-5.878-13.487-5.878-29.049 0-24.207 6.225-48.069 6.57-23.862 18.328-45.648t28.012-40.116q16.6-18.674 36.657-32.161l18.674 31.124q-10.72 8.3-19.02 16.253-7.954 7.609-14.87 15.908-6.571 8.3-12.104 17.637-5.533 8.992-10.72 20.058 10.028-1.73 15.216-2.075 5.533-.346 12.45-.346 15.907 0 30.086 5.533 14.524 5.533 25.245 15.216 11.066 9.337 17.29 22.479 6.225 12.795 6.225 27.32m-36.657-.692q0-6.57-3.458-12.795-3.112-6.225-8.991-10.72-5.533-4.497-13.487-7.263-7.608-2.767-16.254-2.767-8.645 0-16.254 2.767-7.262 2.766-13.14 7.262-5.534 4.496-8.992 10.72-3.113 6.225-3.113 12.796 0 6.916 3.113 13.141 3.458 6.225 8.991 11.066 5.88 4.496 13.141 7.263 7.609 2.766 16.254 2.766t16.254-2.766 13.14-7.263q5.88-4.841 9.338-11.066t3.458-13.141M2137.824 949.846q0 27.665-6.57 52.91t-18.675 40.807q-19.366 25.937-56.023 25.937-24.553 0-40.461-10.029t-26.282-31.47q-7.263-14.87-11.758-35.965-4.496-21.44-4.496-42.19 0-28.703 6.57-53.257 6.917-24.553 18.675-41.152 10.375-13.142 24.553-19.366 14.525-6.571 34.582-6.571 22.133 0 37.695 10.029t26.628 31.47q7.262 15.561 11.412 36.31t4.15 42.537m-36.657 0q0-19.712-3.458-36.311-3.458-16.946-10.375-28.704-5.533-8.99-12.795-13.14-6.917-4.15-17.291-4.842-13.487-.692-22.479 6.224t-14.87 22.479q-4.496 10.374-6.916 25.245-2.075 14.524-2.075 29.049 0 18.674 3.458 35.965t10.374 28.358q5.534 8.99 13.142 13.487 7.608 4.495 18.674 4.495 12.795 0 21.095-6.916 8.646-6.917 14.525-22.479 1.729-4.495 3.458-10.72 1.729-6.57 2.766-13.487 1.384-7.262 2.075-14.525.692-7.262.692-14.178" style="font-style:normal;font-variant:normal;font-weight:400;font-stretch:normal;line-height:0;font-family:&quot;Roadgeek 2005 Series D&quot;;-inkscape-font-specification:&quot;Roadgeek 2005 Series D&quot;;fill:#000;stroke:none;stroke-width:8.64553261" transform="translate(-1051.024 -1223)"/>
    </g>
    <g aria-label="END" style="font-style:normal;font-variant:normal;font-weight:400;font-stretch:normal;font-size:149.2537384px;line-height:0;font-family:&quot;Roadgeek 2005 Series D&quot;;-inkscape-font-specification:&quot;Roadgeek 2005 Series D&quot;;letter-spacing:-1.94204164px;word-spacing:0;fill:#ff2a2a;fill-opacity:1;stroke:none;stroke-width:3.73134327">
      <path d="M171.914-469.322v-100h58.956v15.821h-43.135v24.478h29.105v16.12h-29.105v27.462h46.269v16.12zM303.002-469.322l-38.21-67.761v67.761h-15.82v-100h15.82l36.419 63.88v-63.88h15.82v100zM406.914-519.471q0 15.075-4.627 26.567-4.477 11.343-12.985 17.91-2.836 2.687-6.716 4.03-3.732 1.344-7.612 1.642h-36.12v-100h32.24q3.73 0 6.417.299 2.836.149 5.075.746 2.238.597 4.03 1.642 1.79 1.045 3.88 2.537 7.91 6.866 12.09 18.358 4.328 11.344 4.328 26.269m-16.12 0q0-10.15-2.238-18.06-2.09-7.91-5.821-11.79-1.94-1.792-4.478-2.986t-5.671-1.194h-17.91v68.06h15.82q3.88 0 6.418-.896 2.687-.895 4.776-2.985 4.478-4.477 6.717-12.239 2.388-7.91 2.388-17.91" style="font-style:normal;font-variant:normal;font-weight:400;font-stretch:normal;line-height:0;font-family:&quot;Roadgeek 2005 Series D&quot;;-inkscape-font-specification:&quot;Roadgeek 2005 Series D&quot;;letter-spacing:-1.94204164px;fill:#000;stroke:none;stroke-width:3.73134327" transform="translate(17.586 5.822)"/>
    </g>
    <g aria-label="SCHOOL" style="font-style:normal;font-variant:normal;font-weight:400;font-stretch:normal;font-size:144.09222412px;line-height:0;font-family:&quot;Roadgeek 2005 Series D&quot;;-inkscape-font-specification:&quot;Roadgeek 2005 Series D&quot;;letter-spacing:-1.76477087px;word-spacing:0;fill:#fc0;fill-opacity:1;stroke:none;stroke-width:3.60230541">
      <path d="M117.833-301.308q0 6.628-2.45 12.248-2.449 5.62-7.06 9.798-4.035 3.602-9.51 5.62-5.331 1.873-11.527 1.873-12.536 0-21.47-6.629-8.79-6.772-13.689-17.867l14.553-5.331q3.026 6.916 8.358 10.662 5.331 3.603 12.248 3.603 6.772 0 10.806-4.035 4.18-4.179 4.18-10.23 0-4.755-2.595-7.781-2.45-3.026-6.484-5.044-4.034-2.161-8.933-3.746-4.755-1.585-9.51-3.458-2.162-.865-5.332-2.45t-6.196-4.323q-2.882-2.881-5.043-7.06-2.017-4.179-2.017-10.23 0-7.061 2.305-11.96 2.306-5.043 6.196-8.07 4.035-3.17 9.51-4.61 5.62-1.441 12.104-1.441 10.23 0 17.003 5.331 6.916 5.332 10.519 14.41l-13.545 4.034q-1.153-2.306-3.026-4.179-1.585-1.585-4.467-2.882-2.738-1.296-6.772-1.44-2.594-.145-5.476.432-2.738.432-4.899 1.729t-3.458 3.602q-1.297 2.162-1.009 5.476.288 4.467 3.89 6.916 3.603 2.306 8.79 4.035 5.188 1.729 11.095 3.602 6.052 1.73 11.096 5.187 5.043 3.314 8.357 9.078 3.458 5.62 3.458 15.13M195.965-293.095q-8.645 21.326-29.106 21.326-10.807 0-17.868-4.179T137.32-289.06q-3.314-6.485-5.188-15.13-1.873-8.646-1.873-17.723 0-11.528 2.882-22.047t7.925-17.002q4.323-5.332 10.375-8.07 6.196-2.737 14.409-2.737 10.951 0 18.011 4.755 7.205 4.755 12.104 14.985l-14.265 6.052q-2.017-3.026-3.746-5.043-1.585-2.017-3.459-3.17-1.729-1.153-3.89-1.585-2.017-.432-4.755-.432-5.908 0-9.942 2.737-3.89 2.738-6.34 9.222-1.874 4.323-2.882 10.23-.865 5.909-.865 12.105 0 7.925 1.585 15.273 1.585 7.205 4.467 11.816 2.594 3.746 6.052 5.62 3.458 1.873 8.501 1.873 4.9 0 8.502-2.594 3.602-2.738 6.484-8.645zM265.648-273.498v-42.075H230.49v42.075h-15.274v-96.542h15.274v38.905h35.158v-38.905h15.274v96.542zM368.528-321.625q0 11.527-2.737 22.046t-7.781 17.003q-8.07 10.807-23.343 10.807-10.23 0-16.86-4.179-6.627-4.179-10.95-13.112-3.026-6.196-4.9-14.986-1.872-8.934-1.872-17.58 0-11.959 2.737-22.19 2.882-10.23 7.781-17.146 4.323-5.476 10.23-8.07 6.053-2.737 14.41-2.737 9.222 0 15.706 4.178 6.484 4.179 11.095 13.113 3.026 6.484 4.755 15.13 1.73 8.645 1.73 17.723m-15.273 0q0-8.213-1.441-15.13-1.441-7.06-4.323-11.96-2.306-3.746-5.331-5.475-2.882-1.73-7.205-2.017-5.62-.289-9.366 2.593t-6.196 9.366q-1.873 4.323-2.882 10.519-.864 6.052-.864 12.104 0 7.78 1.44 14.985 1.441 7.205 4.323 11.816 2.306 3.746 5.476 5.62 3.17 1.873 7.78 1.873 5.332 0 8.79-2.882 3.603-2.882 6.052-9.366.72-1.873 1.441-4.467.72-2.738 1.153-5.62.576-3.026.864-6.051t.289-5.908M454.57-321.625q0 11.527-2.738 22.046t-7.78 17.003q-8.07 10.807-23.344 10.807-10.23 0-16.859-4.179-6.628-4.179-10.95-13.112-3.027-6.196-4.9-14.986-1.873-8.934-1.873-17.58 0-11.959 2.738-22.19 2.882-10.23 7.78-17.146 4.324-5.476 10.231-8.07 6.052-2.737 14.41-2.737 9.221 0 15.706 4.178 6.484 4.179 11.095 13.113 3.026 6.484 4.755 15.13 1.729 8.645 1.729 17.723m-15.274 0q0-8.213-1.44-15.13-1.442-7.06-4.324-11.96-2.305-3.746-5.331-5.475-2.882-1.73-7.205-2.017-5.62-.289-9.366 2.593t-6.196 9.366q-1.873 4.323-2.881 10.519-.865 6.052-.865 12.104 0 7.78 1.44 14.985 1.442 7.205 4.324 11.816 2.305 3.746 5.475 5.62 3.17 1.873 7.781 1.873 5.332 0 8.79-2.882 3.602-2.882 6.052-9.366.72-1.873 1.44-4.467.721-2.738 1.153-5.62.577-3.026.865-6.051t.288-5.908M474.185-273.498v-96.542h15.274v82.276h44.668v14.266z" style="font-style:normal;font-variant:normal;font-weight:400;font-stretch:normal;line-height:0;font-family:&quot;Roadgeek 2005 Series D&quot;;-inkscape-font-specification:&quot;Roadgeek 2005 Series D&quot;;letter-spacing:-1.76477087px;fill:#000;fill-opacity:1;stroke:none;stroke-width:3.60230541" transform="translate(13.873 48.27)"/>
    </g>
    <g aria-label="ZONE" style="font-style:normal;font-variant:normal;font-weight:400;font-stretch:normal;font-size:144.09222412px;line-height:0;font-family:&quot;Roadgeek 2005 Series D&quot;;-inkscape-font-specification:&quot;Roadgeek 2005 Series D&quot;;letter-spacing:1.89706254px;word-spacing:0;fill:#ff2a2a;fill-opacity:1;stroke:none;stroke-width:3.60230541">
      <path d="M134.578-37.542v-12.824l44.092-68.444h-40.345v-15.274h61.96v9.078l-44.67 71.902h44.67v15.562zM284.816-85.669q0 11.528-2.738 22.046-2.737 10.52-7.78 17.003-8.07 10.807-23.344 10.807-10.23 0-16.858-4.178-6.629-4.18-10.951-13.113-3.026-6.196-4.9-14.985-1.873-8.934-1.873-17.58 0-11.96 2.738-22.19 2.882-10.23 7.78-17.147 4.324-5.475 10.231-8.07 6.052-2.737 14.41-2.737 9.222 0 15.706 4.179t11.095 13.112q3.026 6.484 4.755 15.13 1.729 8.645 1.729 17.723m-15.274 0q0-8.213-1.44-15.13-1.442-7.06-4.323-11.96-2.306-3.745-5.332-5.475-2.882-1.729-7.204-2.017-5.62-.288-9.366 2.594-3.747 2.882-6.196 9.366-1.874 4.323-2.882 10.519-.865 6.051-.865 12.103 0 7.781 1.441 14.986 1.441 7.204 4.323 11.815 2.305 3.747 5.475 5.62t7.781 1.873q5.332 0 8.79-2.882 3.602-2.881 6.052-9.366.72-1.873 1.44-4.466.721-2.738 1.154-5.62.576-3.026.864-6.052t.288-5.908M360.254-37.542l-36.887-65.418v65.418h-15.274v-96.542h15.274l35.158 61.672v-61.672h15.274v96.542zM398.636-37.542v-96.542h56.917v15.274H413.91v23.631h28.098v15.562H413.91v26.513h44.669v15.562z" style="font-style:normal;font-variant:normal;font-weight:400;font-stretch:normal;line-height:0;font-family:&quot;Roadgeek 2005 Series D&quot;;-inkscape-font-specification:&quot;Roadgeek 2005 Series D&quot;;letter-spacing:1.89706254px;fill:#000;fill-opacity:1;stroke:none;stroke-width:3.60230541" transform="translate(10.422 52.313)"/>
    </g>
  </g>
</svg>
