<svg xmlns="http://www.w3.org/2000/svg" viewBox="0 0 314.063 209.938" role="img" aria-labelledby="title">
  <title id="title">Verkehrszeichen R9-7-2 - Distance (in kilometres) (used with No u-turn, No left turn, No right turn or No turns signs)</title>
  <path d="M21.668.757h270.727c11.498 0 20.907 9.409 20.907 20.91v166.607c0 11.501-9.409 20.91-20.907 20.91H21.668c-11.498 0-20.907-9.409-20.907-20.91V21.667C.761 10.166 10.17.757 21.668.757z" style="fill:#fff;fill-opacity:1;fill-rule:evenodd;stroke:#000;stroke-width:1.5;stroke-linecap:butt;stroke-linejoin:miter;stroke-miterlimit:22.9260006;stroke-opacity:1;stroke-dasharray:none"/>
  <path d="M21.668 4.99h270.727c9.241 0 16.803 7.563 16.803 16.807v166.477c0 9.241-7.562 16.806-16.803 16.806H21.668c-9.24 0-16.803-7.565-16.803-16.806V21.797c0-9.244 7.562-16.806 16.803-16.806" style="fill:#000;fill-opacity:1;fill-rule:evenodd;stroke:none"/>
  <path d="M21.538 13.327h270.99c4.587 0 8.337 3.753 8.337 8.337v166.74c0 4.587-3.75 8.34-8.337 8.34H21.538c-4.584 0-8.336-3.753-8.336-8.34V21.664c0-4.584 3.752-8.337 8.336-8.337" style="fill:#fff;fill-opacity:1;fill-rule:evenodd;stroke:none"/>
  <path d="M55.414 39.849h8.558L87.93 74.35V39.85h9.082v52.2h-8.144L64.443 56.604v35.443h-9.03zM116.895 39.849h37.422v9.083h-28.393v10.385h15.346V68.4h-15.346v14.565h29.332v9.083h-38.361zM183.286 64.954l-15.137-25.108h10.335l10.177 16.443 10.075-16.443h10.958l-15.605 25.108 17.069 27.091h-10.753l-11.744-18.738-11.692 18.738h-10.698zM220.288 39.849h38.361v8.457h-14.716v43.742h-9.083V48.306h-14.562zM176.176 170.143v-38.557l7.935-3.092v20.15l7.935-9.746h10.029l-8.498 10.404 8.498 20.841h-8.185l-5.78-14.217-3.999 5.188v9.029zM214.759 170.143v-31.245h7.872v1.78q.554-.342 1.302-.645a17 17 0 0 1 1.594-.569c.562-.17 1.128-.323 1.697-.446a21 21 0 0 1 1.61-.297q.758-.105 1.327-.104 1.779-.006 3.282.37 1.497.374 2.747 1.207 1.252.834 2.28 2.204a7.6 7.6 0 0 1 1.631-1.473c.626-.424 1.29-.778 2.004-1.075a15 15 0 0 1 2.172-.712 18 18 0 0 1 2.118-.398 16 16 0 0 1 1.856-.123q1.395.005 2.738.443c.892.297 1.745.698 2.551 1.217a13 13 0 0 1 2.236 1.799c.676.676 1.264 1.41 1.764 2.19q.75 1.18 1.166 2.413c.275.822.411 1.634.418 2.437v21.027h-8.062v-19.12q-.01-1.394-.683-2.454c-.446-.714-1.066-1.27-1.862-1.678q-1.19-.61-2.766-.62-1.276.008-2.245.465-.967.449-1.625 1.23a5.3 5.3 0 0 0-.983 1.748 6.1 6.1 0 0 0-.332 2.026v18.403h-7.218V151.74c0-.698-.13-1.381-.38-2.052a6 6 0 0 0-1.09-1.84 5.4 5.4 0 0 0-1.717-1.321c-.676-.329-1.432-.5-2.282-.506a5.1 5.1 0 0 0-1.806.323q-.818.313-1.457.844a5.7 5.7 0 0 0-1.084 1.182c-.291.436-.516.879-.67 1.337q-.23.689-.231 1.316v19.12z" style="fill:#000;fill-opacity:1;fill-rule:nonzero;stroke:none"/>
  <path d="M54.932 117.999h97.929v52.14H54.932z" style="fill:none;stroke:#231f20;stroke-width:1.60286844;stroke-linecap:butt;stroke-linejoin:miter;stroke-miterlimit:22.9260006;stroke-opacity:1;stroke-dasharray:8.01623875,8.01623875;stroke-dashoffset:0"/>
</svg>
