<svg xmlns="http://www.w3.org/2000/svg" viewBox="0 0 606 406" role="img" aria-labelledby="title">
  <title id="title">Verkehrszeichen R4-Q07-QLD - Hospital Zone (used in QLD)</title>
  <g transform="translate(0 109)">
    <rect width="604" height="404" x="1" y="-108" rx="52" ry="52" style="opacity:1;fill:#000;fill-opacity:1;fill-rule:nonzero;stroke:none;stroke-width:24.65286446;stroke-linecap:square;stroke-linejoin:round;stroke-miterlimit:4;stroke-dasharray:none;stroke-dashoffset:0;stroke-opacity:1"/>
    <rect width="600" height="400" x="3" y="-106" rx="50" ry="50" style="opacity:1;fill:#fff;fill-opacity:1;fill-rule:nonzero;stroke:none;stroke-width:24.4491539;stroke-linecap:square;stroke-linejoin:round;stroke-miterlimit:4;stroke-dasharray:none;stroke-dashoffset:0;stroke-opacity:1"/>
    <rect width="584" height="384" x="11" y="-98" rx="42" ry="42" style="opacity:1;fill:#000;fill-opacity:1;fill-rule:nonzero;stroke:none;stroke-width:23.63361931;stroke-linecap:square;stroke-linejoin:round;stroke-miterlimit:4;stroke-dasharray:none;stroke-dashoffset:0;stroke-opacity:1"/>
    <rect width="552" height="352" x="27" y="-82" rx="26" ry="26" style="opacity:1;fill:#fff;fill-opacity:1;fill-rule:nonzero;stroke:none;stroke-width:21.99880409;stroke-linecap:square;stroke-linejoin:round;stroke-miterlimit:4;stroke-dasharray:none;stroke-dashoffset:0;stroke-opacity:1"/>
    <g aria-label="HOSPITAL" style="font-style:normal;font-variant:normal;font-weight:400;font-stretch:normal;font-size:115.27377319px;line-height:0;font-family:&quot;Roadgeek 2005 Series D&quot;;-inkscape-font-specification:&quot;Roadgeek 2005 Series D&quot;;letter-spacing:0;word-spacing:0;fill:#000;fill-opacity:1;stroke:none;stroke-width:2.88184428">
      <path d="M109.346 52.617v-33.66H81.219v33.66H69v-77.234h12.219V6.507h28.127v-31.124h12.219v77.234zM193.276 14.115q0 9.222-2.19 17.637t-6.225 13.602Q178.406 54 166.187 54q-8.185 0-13.487-3.343-5.303-3.343-8.761-10.49-2.421-4.957-3.92-11.988-1.498-7.147-1.498-14.064 0-9.567 2.19-17.752 2.306-8.184 6.225-13.717 3.458-4.38 8.184-6.456Q159.962-26 166.648-26q7.377 0 12.565 3.343t8.876 10.49q2.42 5.187 3.804 12.104t1.383 14.178m-12.22 0q0-6.57-1.152-12.103-1.153-5.649-3.458-9.568-1.844-2.997-4.265-4.38-2.306-1.384-5.764-1.614-4.496-.231-7.493 2.074-2.997 2.306-4.956 7.493-1.499 3.459-2.306 8.415-.692 4.842-.692 9.683 0 6.225 1.153 11.989 1.153 5.763 3.458 9.452 1.845 2.997 4.38 4.496 2.537 1.498 6.226 1.498 4.265 0 7.031-2.305 2.882-2.306 4.842-7.493.576-1.498 1.153-3.573.576-2.19.922-4.496.46-2.42.691-4.842.23-2.42.23-4.726M257.74 30.369q0 5.302-1.959 9.798t-5.648 7.839q-3.228 2.882-7.608 4.495Q238.26 54 233.303 54q-10.029 0-17.176-5.303-7.032-5.417-10.95-14.294l11.642-4.265q2.42 5.533 6.686 8.53 4.265 2.882 9.798 2.882 5.418 0 8.645-3.227 3.343-3.343 3.343-8.185 0-3.804-2.075-6.224-1.96-2.421-5.187-4.035-3.228-1.73-7.147-2.997-3.804-1.268-7.608-2.767-1.729-.691-4.265-1.96-2.536-1.267-4.957-3.458-2.305-2.305-4.034-5.648-1.614-3.343-1.614-8.184 0-5.649 1.844-9.568 1.845-4.035 4.957-6.456 3.228-2.536 7.608-3.688Q227.309-26 232.496-26q8.184 0 13.602 4.265 5.533 4.265 8.415 11.527L243.678-6.98q-.923-1.844-2.421-3.343-1.268-1.268-3.574-2.305-2.19-1.038-5.418-1.153-2.074-.115-4.38.346-2.19.346-3.92 1.383-1.728 1.038-2.766 2.882-1.037 1.73-.807 4.38.23 3.574 3.113 5.534 2.881 1.844 7.031 3.227t8.876 2.882q4.842 1.383 8.876 4.15 4.035 2.651 6.686 7.262 2.767 4.496 2.767 12.104M323.487-2.945q0 3.112-.923 6.11-.922 2.881-2.536 5.532-1.613 2.536-3.804 4.496-2.075 1.96-4.61 3.112-2.652 1.268-6.225 1.96-3.459.692-7.954.692H283.14v33.66h-12.22v-77.234h26.514q4.726 0 7.954.577 3.343.46 6.224 1.844 2.536 1.268 4.611 3.343 2.19 1.96 3.804 4.61 1.614 2.537 2.536 5.534.923 2.882.923 5.764m-12.45 0q0-2.421-1.383-4.611-1.268-2.19-3.228-3.458-1.614-.923-3.112-1.153-1.384-.23-4.265-.23H283.14V6.506h15.908q2.881 0 4.265-.23 1.498-.23 3.112-1.038 1.96-1.037 3.228-3.343 1.383-2.42 1.383-4.841M335.078 52.617v-77.234h12.45v77.234zM389.194-13.781v66.398h-12.22v-66.398h-17.636v-10.836h47.723v10.836zM464.12 52.617l-7.608-21.672H432.42l-7.608 21.672h-13.026l26.628-77.234h12.104l26.628 77.234zM444.639-3.176l-7.954 21.672h15.447zM489.046 52.617v-77.234h12.22v65.822H537v11.412z" style="font-style:normal;font-variant:normal;font-weight:400;font-stretch:normal;line-height:0;font-family:&quot;Roadgeek 2005 Series D&quot;;-inkscape-font-specification:&quot;Roadgeek 2005 Series D&quot;;letter-spacing:.21431249px;fill:#000;stroke:none;stroke-width:2.88184428"/>
      <g aria-label="ZONE" style="font-style:normal;font-variant:normal;font-weight:400;font-stretch:normal;font-size:115.27377319px;line-height:0;font-family:&quot;Roadgeek 2005 Series D&quot;;-inkscape-font-specification:&quot;Roadgeek 2005 Series D&quot;;letter-spacing:.12699997px;word-spacing:0;fill:#000;fill-opacity:1;stroke:none;stroke-width:8.30502701">
        <path d="M686.697-273.006v-10.26l35.274-54.754h-32.276v-12.22h49.567v7.263l-35.735 57.522h35.735v12.45zM805.486-311.507q0 9.222-2.19 17.637t-6.225 13.602q-6.455 8.645-18.674 8.645-8.184 0-13.487-3.343t-8.76-10.49q-2.422-4.956-3.92-11.988-1.499-7.147-1.499-14.063 0-9.568 2.19-17.752 2.306-8.185 6.225-13.718 3.459-4.38 8.185-6.455 4.841-2.19 11.527-2.19 7.378 0 12.565 3.342t8.876 10.49q2.42 5.188 3.804 12.104t1.383 14.179m-12.219 0q0-6.57-1.152-12.104-1.153-5.648-3.459-9.568-1.844-2.997-4.265-4.38-2.305-1.383-5.763-1.614-4.496-.23-7.493 2.075t-4.957 7.493q-1.499 3.458-2.305 8.415-.692 4.841-.692 9.683 0 6.224 1.153 11.988 1.152 5.764 3.458 9.453 1.844 2.997 4.38 4.495t6.225 1.499q4.265 0 7.032-2.306 2.882-2.305 4.841-7.492.577-1.499 1.153-3.574.576-2.19.922-4.496.461-2.42.692-4.841.23-2.42.23-4.726M864.436-273.006l-29.51-52.334v52.334h-12.22v-77.233h12.22l28.126 49.337v-49.337h12.22v77.233zM893.743-273.006v-77.233h45.534v12.219h-33.315v18.905h22.479v12.45h-22.479v21.21h35.735v12.45z" style="font-style:normal;font-variant:normal;font-weight:400;font-stretch:normal;line-height:0;font-family:&quot;Roadgeek 2005 Series D&quot;;-inkscape-font-specification:&quot;Roadgeek 2005 Series D&quot;;letter-spacing:.11641667px;fill:#000;stroke:none;stroke-width:8.30502701" transform="translate(-511.197 485.623)"/>
      </g>
    </g>
  </g>
</svg>
