<svg xmlns="http://www.w3.org/2000/svg" xml:space="preserve" viewBox="0 -.321 608.8 608.8" role="img" aria-labelledby="title">
  <title id="title">Verkehrszeichen R6-10-3 - No Bicycles</title>
  <path d="M608.4 544.079c0 35.342-28.658 64-64 64h-480c-35.356 0-64-28.658-64-64v-480c0-35.342 28.644-64 64-64h480c35.342 0 64 28.658 64 64z" style="fill:#000;fill-opacity:1;fill-rule:nonzero;stroke:none;stroke-width:4.00000095;stroke-miterlimit:4;stroke-dasharray:none;stroke-opacity:1"/>
  <path d="M604.4 544.079c0 33.133-26.867 60-60 60h-480c-33.147 0-60-26.867-60-60v-480c0-33.133 26.853-60 60-60h480c33.133 0 60 26.867 60 60z" style="fill:#fff;fill-opacity:1;fill-rule:nonzero;stroke:none;stroke-width:4.00000095;stroke-miterlimit:4;stroke-dasharray:none;stroke-opacity:1"/>
  <circle cx="304.4" cy="304.079" r="294" style="fill:#c0111e;fill-opacity:1;stroke:none;stroke-width:25;stroke-linejoin:miter;stroke-miterlimit:4;stroke-dasharray:none;stroke-dashoffset:0;stroke-opacity:1"/>
  <circle cx="304.4" cy="304.079" r="244" style="fill:#fff;fill-opacity:1;stroke:none;stroke-width:25;stroke-linejoin:miter;stroke-miterlimit:4;stroke-dasharray:none;stroke-dashoffset:0;stroke-opacity:1"/>
  <path d="M247.78 218.356h101.814l-34.51 95.906-8.15.411-68.32-77.277zm-39.5 89.798-32.887 50.91c-5.092 7.839-28.712-5.806-21.788-17.107l29.728-48.465c-5.496-1.731-10.998-2.748-16.797-2.748-32.072 0-58.137 26.266-58.137 58.44 0 32.071 26.065 58.035 58.137 58.035 32.173 0 58.13-25.964 58.13-58.036 0-15.78-6.21-30.132-16.386-41.03m177.561 52.33h53.961c6.52 0 18.124-7.94 16.09-12.008l-28.307-56.406c4.782-1.326 9.873-2.343 14.965-2.343 32.173 0 58.44 26.266 58.44 58.035 0 32.173-26.267 58.44-58.44 58.44-27.284 0-50.91-19.754-56.709-45.717m16.393-54.364 14.05 25.653h-29.426c2.748-10.278 8.554-18.83 15.376-25.653m13.336-37.568-24.233-64.549c3.058-6.115 6.52-12.324 9.166-17.72.714-1.016 2.135-2.747 3.462-3.461 2.445-.714 6.823 0 8.244-2.344l4.074-23.923-3.461-5.192-75.547-.31c-3.057 0-8.143 7.132-6.108 9.267 6.822 7.84 19.444 17.72 30.442 21.788 2.343 1.017 1.017 7.536-1.017 7.536h-93.974l-1.017-7.84-22.198-14.358 2.444-5.799h35.124l-.714-25.963h-49.072c-24.636 0-36.961 22.501-15.78 43.777 4.075 4.378 12.015 9.47 10.285 17.72l-27.695 71.674-.714 1.73c-9.166-3.764-19.753-5.495-30.442-5.495-46.121 0-83.69 37.568-83.69 84.093 0 46.128 37.569 83.696 83.69 83.696 46.526 0 83.999-37.568 83.999-83.696 0-25.35-10.796-47.542-27.896-62.918l5.495-25.654 59.66 72.792c-4.783 45.818 44.39 60.177 60.176 27.082h11.302c6.108 40.625 41.333 71.68 82.975 71.68 46.532 0 84.1-37.877 84.1-84.403 0-46.121-37.568-83.999-84.1-83.999-9.57 0-18.427 1.63-26.98 4.789m-55.389 63.221h-10.587l-5.092-8.243 32.072-83.083 13.342 42.053c-14.662 12.318-25.56 29.425-29.735 49.273" style="fill:#000;fill-opacity:1;fill-rule:evenodd;stroke:none"/>
  <path d="M-25.227 138.26h50v584h-50z" style="fill:#c0111e;fill-opacity:1;stroke:none;stroke-width:25;stroke-linejoin:miter;stroke-miterlimit:4;stroke-dasharray:none;stroke-dashoffset:0;stroke-opacity:1" transform="rotate(135)scale(1 -1)"/>
</svg>
