<svg xmlns="http://www.w3.org/2000/svg" viewBox="0 0 606 406" role="img" aria-labelledby="title">
  <title id="title">Verkehrszeichen R9-234-NSW - Slippery Surface (used in NSW)</title>
  <g transform="translate(0 109)">
    <rect width="604" height="404" x="1" y="-108" rx="52" ry="52" style="opacity:1;fill:#000;fill-opacity:1;fill-rule:nonzero;stroke:none;stroke-width:24.65286446;stroke-linecap:square;stroke-linejoin:round;stroke-miterlimit:4;stroke-dasharray:none;stroke-dashoffset:0;stroke-opacity:1"/>
    <rect width="600" height="400" x="3" y="-106" rx="50" ry="50" style="opacity:1;fill:#fff;fill-opacity:1;fill-rule:nonzero;stroke:none;stroke-width:24.4491539;stroke-linecap:square;stroke-linejoin:round;stroke-miterlimit:4;stroke-dasharray:none;stroke-dashoffset:0;stroke-opacity:1"/>
    <rect width="584" height="384" x="11" y="-98" rx="42" ry="42" style="opacity:1;fill:#000;fill-opacity:1;fill-rule:nonzero;stroke:none;stroke-width:23.63361931;stroke-linecap:square;stroke-linejoin:round;stroke-miterlimit:4;stroke-dasharray:none;stroke-dashoffset:0;stroke-opacity:1"/>
    <rect width="552" height="352" x="27" y="-82" rx="26" ry="26" style="opacity:1;fill:#fff;fill-opacity:1;fill-rule:nonzero;stroke:none;stroke-width:21.99880409;stroke-linecap:square;stroke-linejoin:round;stroke-miterlimit:4;stroke-dasharray:none;stroke-dashoffset:0;stroke-opacity:1"/>
    <g aria-label="SLIPPERY" style="font-style:normal;font-variant:normal;font-weight:400;font-stretch:normal;font-size:144.09222412px;line-height:0;font-family:&quot;Roadgeek 2005 Series C&quot;;-inkscape-font-specification:&quot;Roadgeek 2005 Series C&quot;;letter-spacing:-.37306249px;word-spacing:0;fill:#000;fill-opacity:1;stroke:none;stroke-width:3.60230541">
      <path d="M111.89 40.902q0 5.908-2.16 11.095-2.018 5.043-5.765 8.79-3.602 3.746-8.501 6.052Q90.709 69 85.089 69q-6.34 0-11.383-2.45t-8.501-6.628-5.332-9.654T58 38.885h13.545q0 3.026.72 6.052.865 2.881 2.45 5.331 1.729 2.305 4.178 3.746 2.594 1.441 6.196 1.441 2.738 0 5.188-1.152 2.593-1.153 4.322-3.17 1.874-2.018 2.882-4.611 1.153-2.738 1.153-5.62 0-4.179-1.73-7.349-1.728-3.314-6.051-6.628-.72-.72-.576-.72.144-.144-.865-.865-1.009-.72-4.323-2.738-3.17-2.161-10.518-7.204-5.908-4.035-8.934-9.366-2.882-5.476-2.882-11.96 0-5.187 1.873-9.654 1.873-4.611 5.188-8.07 3.458-3.458 7.925-5.33Q82.207-31 87.395-31t9.51 1.873q4.467 1.873 7.637 5.188 3.314 3.314 5.187 7.925 2.017 4.61 2.161 10.086H98.634q-.288-5.043-3.458-8.07-3.17-3.025-7.781-3.025-4.755 0-8.07 3.17-3.313 3.17-3.313 7.925 0 3.602 1.873 6.052t7.204 5.475q13.977 8.07 20.317 16.427 6.484 8.357 6.484 18.876M127.668 67.27v-96.54H141.5v83.717h35.302V67.27zM190.054 67.27v-96.54h13.544v96.54zM278.757-2.182q0 13.257-6.629 20.173-6.484 6.917-18.732 6.917h-14.985V67.27h-13.833v-96.542h28.818q5.62 0 10.23 2.017 4.756 1.874 8.07 5.476 3.458 3.458 5.187 8.501 1.874 5.044 1.874 11.095m-13.545 0q0-6.051-3.458-9.798t-9.078-3.746H238.41V11.65h14.265q6.052 0 9.222-3.602 3.314-3.602 3.314-10.23M345.927-2.182q0 13.257-6.629 20.173-6.484 6.917-18.731 6.917H305.58V67.27h-13.833v-96.542h28.819q5.62 0 10.23 2.017 4.755 1.874 8.07 5.476 3.457 3.458 5.187 8.501 1.873 5.044 1.873 11.095m-13.545 0q0-6.051-3.458-9.798t-9.078-3.746h-14.265V11.65h14.265q6.052 0 9.222-3.602 3.314-3.602 3.314-10.23M358.918 67.27v-96.54h45.39v13.544H372.75V8.625h20.029v13.257H372.75v31.844h35.303v13.545zM463.75 67.27l-12.824-45.388H437.67V67.27h-13.833v-96.542h28.818q5.62 0 10.231 1.873 4.755 1.874 8.07 5.188 3.457 3.314 5.186 8.213 1.874 4.755 1.874 10.519 0 8.645-3.459 14.697t-10.374 8.646l13.833 47.406zm.721-70.748q0-5.62-3.458-8.934t-9.078-3.314H437.67V8.625h14.265q6.052 0 9.222-3.026 3.314-3.17 3.314-9.077M523.937 23.611v43.66h-13.833V23.61l-23.775-52.882h14.553L517.164 5.6l15.995-34.87H548z" style="font-style:normal;font-variant:normal;font-weight:400;font-stretch:normal;line-height:0;font-family:&quot;Roadgeek 2005 Series C&quot;;-inkscape-font-specification:&quot;Roadgeek 2005 Series C&quot;;letter-spacing:-.37306249px;fill:#000;stroke:none;stroke-width:3.60230541"/>
      <g aria-label="SURFACE" style="font-style:normal;font-variant:normal;font-weight:400;font-stretch:normal;font-size:144.09222412px;line-height:0;font-family:&quot;Roadgeek 2005 Series C&quot;;-inkscape-font-specification:&quot;Roadgeek 2005 Series C&quot;;letter-spacing:0;word-spacing:0;fill:#000;fill-opacity:1;stroke:none;stroke-width:12.97660542">
        <path d="M125.89 190.902q0 5.908-2.16 11.095-2.018 5.043-5.765 8.79-3.602 3.746-8.501 6.052Q104.709 219 99.089 219q-6.34 0-11.383-2.45t-8.501-6.628-5.332-9.654T72 188.885h13.545q0 3.026.72 6.052.865 2.881 2.45 5.331 1.729 2.306 4.178 3.746 2.594 1.441 6.196 1.441 2.738 0 5.188-1.152 2.593-1.153 4.322-3.17 1.874-2.018 2.882-4.611 1.153-2.738 1.153-5.62 0-4.179-1.73-7.349-1.728-3.314-6.051-6.628-.72-.72-.576-.72.144-.144-.865-.865-1.009-.72-4.323-2.738-3.17-2.161-10.518-7.204-5.908-4.035-8.934-9.366-2.882-5.476-2.882-11.96 0-5.187 1.873-9.654 1.873-4.611 5.188-8.07 3.458-3.458 7.925-5.33Q96.207 119 101.395 119t9.51 1.873q4.467 1.873 7.637 5.188 3.314 3.314 5.187 7.925 2.017 4.61 2.161 10.086h-13.256q-.288-5.043-3.458-8.07-3.17-3.025-7.781-3.025-4.755 0-8.07 3.17-3.313 3.17-3.313 7.925 0 3.602 1.873 6.052t7.204 5.475q13.977 8.07 20.317 16.427 6.484 8.357 6.484 18.876M195.482 188.452q0 2.882-.288 5.188-.144 2.305-.577 4.323-.432 1.873-1.152 3.746t-1.73 3.746q-3.602 5.908-9.942 9.799Q175.597 219 168.681 219q-7.205 0-13.689-3.746-6.34-3.747-9.942-9.799-1.009-1.873-1.73-3.746-.72-1.873-1.152-3.746-.432-2.018-.72-4.323-.145-2.306-.145-5.188V120.73h13.833v69.453q0 6.916 3.747 11.095 3.746 4.178 9.798 4.178 5.62 0 9.222-4.178 3.746-4.179 3.746-11.095v-69.453h13.833zM255.615 217.27l-12.824-45.388h-13.256v45.389h-13.833v-96.542h28.818q5.62 0 10.23 1.873 4.756 1.874 8.07 5.188 3.458 3.314 5.187 8.213 1.873 4.755 1.873 10.519 0 8.645-3.458 14.697t-10.374 8.646l13.832 47.406zm.72-70.748q0-5.62-3.457-8.934-3.459-3.314-9.078-3.314h-14.265v24.351H243.8q6.052 0 9.222-3.026 3.314-3.17 3.314-9.077M299.149 134.274v24.351h19.308v13.257h-19.308v45.389h-13.833v-96.542h49.135v13.545zM387.671 217.27l-6.772-26.368h-20.75l-6.34 26.369h-13.977l24.064-96.542h13.544l24.064 96.542zm-17.291-67.722-6.772 27.81h13.832zM452.453 146.522q-2.16-13.977-11.527-13.977-4.179 0-7.204 1.873-2.882 1.729-4.756 5.764-1.729 3.89-2.593 10.374-.72 6.484-.72 15.85 0 20.894 3.746 29.972 3.89 9.077 12.824 9.077 3.026 0 4.9-1.152 2.016-1.153 3.17-3.026 1.296-2.018 1.728-4.467.432-2.594.432-5.332h13.833q-.144 6.052-2.017 11.095t-5.043 8.79q-3.17 3.602-7.637 5.62-4.323 2.017-9.366 2.017-15.562 0-22.767-12.68-7.06-12.68-7.06-39.481 0-23.632 7.204-35.735Q426.805 119 441.214 119q5.908 0 10.807 2.594 4.9 2.45 8.213 7.204 2.738 3.603 4.035 7.349t2.017 10.375zM484.865 217.27v-96.54h45.389v13.544h-31.556v24.351h20.028v13.257h-20.028v31.844H534v13.545z" style="font-style:normal;font-variant:normal;font-weight:400;font-stretch:normal;line-height:0;font-family:&quot;Roadgeek 2005 Series C&quot;;-inkscape-font-specification:&quot;Roadgeek 2005 Series C&quot;;letter-spacing:-.74347919px;fill:#000;fill-opacity:1;stroke:none;stroke-width:12.97660542"/>
      </g>
    </g>
  </g>
</svg>
