<svg xmlns="http://www.w3.org/2000/svg" xmlns:xlink="http://www.w3.org/1999/xlink" viewBox="0 0 600 800" role="img" aria-labelledby="title">
  <title id="title">Verkehrszeichen R4-1[20] - 20&amp;nbsp;km/h Speed Limit</title>
  <defs>
    <path id="a" d="M187.441 0H24q1.2-41.518 20.16-73.2 13.921-24.96 42.238-46.32c4.16-2.402 7.84-4.878 11.043-7.44l12.48-6.962 11.759-6.719 12-6.48q15.599-9.359 15.601-26.399 0-13.2-12.96-22.558-12.96-9.363-30.72-9.363-37.44.002-43.44 33.601L24-180q6.242-29.52 28.32-46.8 21.599-17.279 53.282-17.278c22.718 0 42.039 6.957 57.957 20.879q23.882 20.879 23.882 50.64c0 19.52-8.16 36.637-24.48 51.36q-6.48 5.04-10.082 6.48L141.12-106.8l-12.723 6.48-11.52 6.962q-17.28 10.32-27.956 22.437-10.683 12.124-19.32 32.281h117.84Zm0 0"/>
    <path id="b" d="M194.16-119.52q0 29.28-6.84 55.442c-4.558 17.437-10.922 31.277-19.082 41.52Q148.561 4.077 109.922 4.077 84.96 4.08 68.16-6.238 51.36-16.562 40.8-38.641 24.003-71.519 24-119.52q0-60.48 26.16-97.44 20.879-27.119 61.2-27.118c29.6 0 51.84 14.316 66.718 42.957Q194.161-168 194.16-119.52m-37.922 0q.002-43.2-14.398-67.44-9.84-17.28-31.2-18.481Q84-206.637 72-175.921q-9.119 22.564-9.121 56.401c0 29.282 4.723 51.442 14.16 66.48q10.8 18.481 32.883 18.481 24.956 0 36.957-30.48 9.361-24 9.36-54.48m0 0"/>
  </defs>
  <path fill="#fff" stroke="#000" stroke-miterlimit="10" stroke-width=".3" d="M550 0c27.613 0 50 22.387 50 50v700c0 27.613-22.387 50-50 50H50c-27.613 0-50-22.387-50-50V50C0 22.387 22.387 0 50 0Zm0 0"/>
  <path fill="none" stroke="red" stroke-miterlimit="10" stroke-width="60" d="M567 400c0 147.46-119.54 267-267 267S33 547.46 33 400s119.54-267 267-267 267 119.54 267 267"/>
  <use xlink:href="#a" x="85.199" y="520"/>
  <use xlink:href="#b" x="296.639" y="520"/>
</svg>
