<svg xmlns="http://www.w3.org/2000/svg" viewBox="0 0 606 406" role="img" aria-labelledby="title">
  <title id="title">Verkehrszeichen R4-201-NSW - On Bridge (used in NSW)</title>
  <g transform="translate(0 109)">
    <rect width="604" height="404" x="1" y="-108" rx="72" ry="72" style="opacity:1;fill:#000;fill-opacity:1;fill-rule:nonzero;stroke:none;stroke-width:24.65286446;stroke-linecap:square;stroke-linejoin:round;stroke-miterlimit:4;stroke-dasharray:none;stroke-dashoffset:0;stroke-opacity:1"/>
    <rect width="600" height="400" x="3" y="-106" rx="70" ry="70" style="opacity:1;fill:#fff;fill-opacity:1;fill-rule:nonzero;stroke:none;stroke-width:24.4491539;stroke-linecap:square;stroke-linejoin:round;stroke-miterlimit:4;stroke-dasharray:none;stroke-dashoffset:0;stroke-opacity:1"/>
    <rect width="584" height="384" x="11" y="-98" rx="62" ry="62" style="opacity:1;fill:#000;fill-opacity:1;fill-rule:nonzero;stroke:none;stroke-width:23.63361931;stroke-linecap:square;stroke-linejoin:round;stroke-miterlimit:4;stroke-dasharray:none;stroke-dashoffset:0;stroke-opacity:1"/>
    <rect width="552" height="352" x="27" y="-82" rx="46" ry="46" style="opacity:1;fill:#fff;fill-opacity:1;fill-rule:nonzero;stroke:none;stroke-width:21.99880409;stroke-linecap:square;stroke-linejoin:round;stroke-miterlimit:4;stroke-dasharray:none;stroke-dashoffset:0;stroke-opacity:1"/>
    <g aria-label="ON" style="font-style:normal;font-variant:normal;font-weight:400;font-stretch:normal;font-size:144.09222412px;line-height:0;font-family:&quot;Roadgeek 2005 Series E&quot;;-inkscape-font-specification:&quot;Roadgeek 2005 Series E&quot;;letter-spacing:.8334375px;word-spacing:0;fill:#000;fill-opacity:1;stroke:none;stroke-width:3.60230541">
      <path d="M292.98 18.424q0 11.383-2.882 20.749-2.738 9.222-7.925 15.85t-12.68 10.375Q262.144 69 252.923 69q-10.664 0-18.445-4.323-7.637-4.467-12.68-11.527-5.043-7.205-7.493-16.138Q212 27.934 212 18.856q0-11.527 2.738-20.75 2.882-9.221 8.213-15.705 5.331-6.485 12.824-9.943Q243.412-31 252.922-31q8.934 0 16.283 3.602 7.348 3.603 12.68 10.087t8.213 15.706q2.882 9.078 2.882 20.029m-17.291.432q0-15.274-5.908-23.92-5.908-8.645-16.859-8.645-10.95 0-17.147 8.646-6.196 8.645-6.196 23.919 0 15.562 6.196 24.207t17.147 8.646q6.917 0 11.24-3.026 4.466-3.026 6.916-7.781 2.593-4.755 3.602-10.519 1.009-5.907 1.009-11.527M379.015 67.27 333.049.845v66.427h-17.002v-96.542h17.002l44.237 63.689v-63.689H394v96.542z" style="font-style:normal;font-variant:normal;font-weight:400;font-stretch:normal;line-height:0;font-family:&quot;Roadgeek 2005 Series E&quot;;-inkscape-font-specification:&quot;Roadgeek 2005 Series E&quot;;letter-spacing:.8334375px;fill:#000;stroke:none;stroke-width:3.60230541"/>
      <g aria-label="BRIDGE" style="font-style:normal;font-variant:normal;font-weight:400;font-stretch:normal;font-size:144.09222412px;line-height:0;font-family:&quot;Roadgeek 2005 Series D&quot;;-inkscape-font-specification:&quot;Roadgeek 2005 Series D&quot;;letter-spacing:.42862502px;word-spacing:0;fill:#000;fill-opacity:1;stroke:none;stroke-width:12.97660542">
        <path d="M150.706 193.182q0 3.89-1.153 7.78-1.152 3.891-3.314 7.205-2.017 3.314-4.899 5.908-2.738 2.45-6.196 3.89-2.594 1.01-6.484 1.73-3.746.576-7.06.576H85v-96.542h36.6q5.763 0 10.662 1.873t8.502 5.188q3.602 3.17 5.62 7.637 2.017 4.466 2.017 9.654 0 13.977-13.545 21.758 7.637 3.602 11.671 9.51 4.18 5.907 4.18 13.833m-17.58-44.38q0-9.8-10.518-9.8h-22.334v23.632h18.3q3.314 0 5.187-.432 1.873-.577 3.89-2.162 5.476-4.322 5.476-11.239m2.018 44.668q0-4.755-2.594-8.79-2.45-4.179-6.628-5.764-1.585-.576-2.738-.576-1.152-.144-3.602-.144h-19.308v26.513h23.055q11.815 0 11.815-11.24M216.497 220.27l-15.562-42.074h-18.3v42.075h-15.273v-96.542h31.844q5.62 0 9.654.72 4.035.577 7.637 2.306 3.17 1.585 5.764 4.179 2.738 2.45 4.61 5.763 2.018 3.17 3.027 6.917 1.153 3.602 1.153 7.204 0 3.89-1.153 7.637-1.009 3.603-3.026 6.917-1.873 3.17-4.755 5.763-2.738 2.594-6.052 4.035l17.003 45.1zm-.72-69.452q0-3.025-1.585-5.763t-4.467-4.323q-1.873-1.009-3.458-1.297-1.585-.432-5.332-.432h-18.3v23.631h18.3q3.603 0 5.188-.288 1.729-.288 3.602-1.297 2.882-1.585 4.467-4.323 1.585-2.882 1.585-5.908M249.724 220.27v-96.54h15.562v96.54zM354.451 171.856q0 14.553-4.467 25.648-4.322 10.951-12.536 17.291-2.737 2.594-6.484 3.89-3.602 1.298-7.348 1.586h-34.871v-96.542h31.124q3.602 0 6.196.288 2.738.144 4.9.72 2.16.577 3.89 1.586 1.729 1.008 3.746 2.45 7.637 6.628 11.672 17.723 4.178 10.95 4.178 25.36m-15.562 0q0-9.798-2.161-17.435-2.017-7.637-5.62-11.384-1.873-1.729-4.322-2.881-2.45-1.153-5.476-1.153H304.02v65.706h15.274q3.746 0 6.196-.865 2.593-.864 4.61-2.881 4.323-4.323 6.485-11.816 2.305-7.637 2.305-17.291M439.57 191.452q0 6.629-2.305 12.248-2.306 5.476-6.34 9.654-4.035 4.035-9.655 6.34Q415.65 222 409.023 222q-10.951 0-17.724-4.179-6.772-4.322-11.095-13.4-3.026-6.484-4.755-14.842-1.585-8.501-1.585-17.435 0-5.764.72-11.383.865-5.764 2.162-10.807 1.44-5.187 3.458-9.51 2.017-4.467 4.467-7.637 4.323-5.331 10.375-8.07Q401.242 122 409.455 122q11.095 0 18.156 5.043 7.06 4.9 11.96 16.283l-14.554 5.763q-3.026-6.34-6.628-8.933-3.459-2.594-8.934-2.594-5.908 0-9.942 2.738-3.891 2.737-6.34 9.222-1.874 4.322-2.882 10.518-.865 6.052-.865 12.104 0 7.781 1.153 14.842 1.297 7.06 3.602 11.671 4.467 7.781 13.257 7.781 7.348 0 12.103-4.179 4.755-4.178 4.755-10.807v-4.034h-17.579v-15.274h32.853zM461.058 220.27v-96.54h56.916v15.273h-41.643v23.631h28.098v15.562h-28.098v26.513H521v15.562z" style="font-style:normal;font-variant:normal;font-weight:400;font-stretch:normal;line-height:0;font-family:&quot;Roadgeek 2005 Series D&quot;;-inkscape-font-specification:&quot;Roadgeek 2005 Series D&quot;;letter-spacing:.46566668px;fill:#000;stroke:none;stroke-width:12.97660542" transform="translate(3 -3)"/>
      </g>
    </g>
  </g>
</svg>
