<svg xmlns="http://www.w3.org/2000/svg" viewBox="0 0 308.875 411.362" role="img" aria-labelledby="title">
  <title id="title">Verkehrszeichen R7-1-4 - Bicycle Lane</title>
  <path d="M31.465 410.356h245.902c16.98 0 30.498-13.518 30.498-30.473V31.81c0-16.642-13.519-30.494-30.498-30.494H31.465C14.844 1.315.992 15.167.992 31.809v348.074c0 16.955 13.852 30.473 30.473 30.473z" style="fill:#fff;fill-opacity:1;fill-rule:evenodd;stroke:#000;stroke-width:2;stroke-linecap:butt;stroke-linejoin:miter;stroke-miterlimit:8.52033329;stroke-opacity:1;stroke-dasharray:none"/>
  <path d="M31.465 405.16h245.902c13.852 0 24.94-11.425 24.94-25.277V31.81a24.84 24.84 0 0 0-24.94-24.94H31.465c-13.852 0-24.919 11.088-24.919 24.94v348.074c0 13.852 11.067 25.278 24.919 25.278" style="fill:#000;fill-opacity:1;fill-rule:evenodd;stroke:none"/>
  <path d="M31.465 394.073h245.902c7.985 0 14.215-6.23 14.215-14.19V31.81c0-7.985-6.23-14.211-14.215-14.211H31.465c-7.96 0-14.19 6.226-14.19 14.21v348.075c0 7.96 6.23 14.19 14.19 14.19" style="fill:#fff;fill-opacity:1;fill-rule:evenodd;stroke:none"/>
  <path d="M124.301 106.081h53.324l-18.185 50.413-4.328.167-35.502-40.697zm-20.782 47.115-17.146 26.482c-2.765 4.329-15.25-2.597-11.617-8.827l15.586-25.444c-2.935-1.034-5.7-1.23-8.827-1.23-16.959 0-30.473 13.856-30.473 30.498 0 16.787 13.514 30.473 30.473 30.473 16.813 0 30.473-13.686 30.473-30.473 0-8.152-3.102-15.779-8.469-21.48m93.154 27.35h28.742c3.127 0 9.353-3.97 8.319-6.23l-15.053-29.61c2.402-.53 5.362-1.393 7.96-1.393 16.954 0 30.81 13.853 30.81 30.832 0 16.788-13.856 30.473-30.81 30.473-14.215 0-26.674-10.22-29.968-24.072m8.656-28.384 7.46 13.327h-15.253c1.23-5.363 4.161-9.862 7.793-13.327m7.097-19.911-12.46-33.963c1.206-3.27 3.466-6.397 4.667-9.332.362-.53 1.226-1.393 1.73-1.564 1.397-.696 3.465 0 4.333-1.393l2.093-12.63-1.902-2.593h-39.663c-1.56 0-4.495 3.46-3.123 4.832 3.628 3.99 10.053 9.02 15.945 11.088 1.201.867.505 4.328-.53 4.328h-49.52l-.53-4.328-11.596-7.627 1.205-2.931h18.352V62.619h-26.145c-12.818 0-19.048 11.617-8.298 22.876 2.406 2.402 6.734 4.833 5.534 9.332l-14.72 37.758v.867c-5.029-1.902-10.729-2.936-16.283-2.936-24.077 0-43.629 19.724-43.629 44.159 0 24.414 19.552 44.158 43.629 44.158 24.602 0 44.158-19.744 44.158-44.158 0-13.181-5.362-24.94-14.36-32.9l2.597-13.685 31.34 38.433c-2.597 23.905 23.547 31.699 31.87 14.023h5.867c3.294 21.474 21.646 37.757 43.654 37.757 24.41 0 44.325-20.081 44.325-44.158 0-24.41-19.915-44.158-44.325-44.158-4.858 0-9.887.53-14.215 2.264m-29.08 33.238h-5.721l-2.598-3.995 17.146-43.967 6.93 21.984c-7.964 6.759-13.685 15.924-15.757 25.978M37.882 267.603h11v70.67H78.61v10.779H37.882zM109.665 315.326h11.555l-6.167-22.058zm-19.723 33.726 19.723-81.45h11.555l19.615 81.45h-11.392L124 326.827h-16.279l-5.5 22.225zM160 267.603h11.333l21.891 47.06v-47.06h11.334v81.449h-8.724l-24.501-53.17v53.17h-11.334zM229.893 267.603h39.334v12.113h-27.612v20.224h16.445v10.779h-16.445v26.832h29.005v11.5h-40.727z" style="fill:#000;fill-opacity:1;fill-rule:evenodd;stroke:none"/>
</svg>
