<svg xmlns="http://www.w3.org/2000/svg" viewBox="0 0 92.969 123.594" role="img" aria-labelledby="title">
  <title id="title">Verkehrszeichen R5-12 - Parking Permitted: 2 Minutes</title>
  <path d="M8.592 123.101h75.792c4.455 0 8.098-3.644 8.098-8.099V8.584c0-4.455-3.643-8.099-8.098-8.099H8.592C4.14.485.494 4.129.494 8.584v106.418c0 4.455 3.645 8.1 8.098 8.1z" style="fill:#fff;fill-opacity:1;fill-rule:evenodd;stroke:#000;stroke-width:1;stroke-linecap:butt;stroke-linejoin:miter;stroke-miterlimit:2.61299992;stroke-opacity:1;stroke-dasharray:none"/>
  <path d="M18.277 16.97v9.091h11.59c2.825 0 5.528-1.515 5.528-4.3 0-3.152-2.456-4.791-5.405-4.791zm-8.19-8.231h20.435c5.652 0 13.145 4.177 13.145 13.268 0 5.652-5.856 12.204-11.957 12.204H18.277v15.48h-8.19zM48.949 41.477h1.24l1.973 4.75 1.833-4.75h1.324v8.22h-1.274V44.93l-1.866 4.766-1.915-4.766v4.766h-1.315z" style="fill:#006330;fill-opacity:1;fill-rule:evenodd;stroke:none"/>
  <path d="M57.217 49.696h1.29v-8.219h-1.29z" style="fill:#006330;fill-opacity:1;fill-rule:nonzero;stroke:none"/>
  <path d="M60.406 41.477h1.085l3.131 5.35v-5.35h1.308v8.22h-1.11l-3.131-5.31v5.31h-1.283zM67.829 47.165v-5.688h1.298v5.688c0 .715.7 1.389 1.472 1.389.74 0 1.487-.525 1.487-1.315v-5.762h1.274v5.59c0 1.537-1.134 2.787-2.761 2.787-1.538 0-2.77-1.3-2.77-2.689M74.691 41.477h5.014v1.21h-1.883v7.01h-1.24v-7.01h-1.89zM81.036 41.477h4.71v1.315H82.31v2.022h2.4v1.282h-2.4v2.319h3.74v1.281h-5.014zM57.64 12.262c2.5-2.328 6.422-3.872 9.781-3.872 4.706 0 9.634 2.401 9.634 7.647 0 3.85-3.604 6.3-5.786 6.668-5.123.834-7.747 4.119-8.31 6.325h14.218v4.364h-19.44c0-6.154 3.654-11.572 9.022-13.827 2.94-1.275 6.103-.735 6.103-3.897 0-1.495-2.476-3.015-5.05-3.015-2.278 0-5.588.76-7.353 2.794zM17.521 84.146h1.365l2.418 4.891 2.35-4.89h1.447v8.22h-1.405V87.41l-2.392 4.957-2.377-4.89v4.89h-1.406zM30.109 91.101c1.33 0 2.006-1.282 2.006-2.845 0-1.57-.708-2.852-2.006-2.852-1.3 0-2.007 1.282-2.007 2.852 0 1.563.674 2.845 2.007 2.845m0 1.424c-2.27 0-3.404-1.916-3.404-4.269 0-2.351 1.192-4.275 3.404-4.275 2.21 0 3.403 1.924 3.403 4.275 0 2.353-1.135 4.269-3.403 4.269M35.125 84.146h1.349l3.773 5.435v-5.435h1.43v8.221h-1.282l-3.848-5.582v5.582h-1.422z" style="fill:#006330;fill-opacity:1;fill-rule:evenodd;stroke:none"/>
  <path d="M46.904 90.079h6.05v-1.39h-6.05z" style="fill:#006330;fill-opacity:1;fill-rule:nonzero;stroke:none"/>
  <path d="M58.012 84.25h6.043v1.43H59.4v1.785h2.566v1.405h-2.566v3.601h-1.389zM65.527 84.25h3.955a2.465 2.465 0 0 1 2.492 2.45c0 .839-.543 1.915-1.423 2.294l1.529 3.477H70.55l-1.464-3.215h-2.153v3.215h-1.407zm1.407 1.406v2.203h2.548c.567 0 1.07-.518 1.07-1.093 0-.386-.322-1.11-1.07-1.11z" style="fill:#006330;fill-opacity:1;fill-rule:evenodd;stroke:none"/>
  <path d="M73.684 92.471h1.414V84.25h-1.414z" style="fill:#006330;fill-opacity:1;fill-rule:nonzero;stroke:none"/>
  <path d="M12.537 80.3v-3.548c4.24 0 6.985-1.412 9.135-5.55-1.29.738-4.055.758-4.895.758-3.932 0-7.25-2.355-7.25-6.451 0-3.647 3.748-6.084 7.844-6.084 4.691 0 8.419 2.089 8.419 7.66 0 4.936-1.168 6.657-2.889 8.766-2.457 2.971-5.755 4.449-10.364 4.449m4.957-11.904c2.417 0 4.425-.696 4.425-2.704 0-2.068-2.008-2.745-4.425-2.745-2.5 0-4.465.882-4.465 2.745 0 1.885 1.966 2.704 4.465 2.704M26.935 73.706h1.036l2.605 6.203H29.41l-.596-1.445h-2.692l-.607 1.445h-1.141zm-.391 3.69h1.823l-.905-2.201zM31.766 73.706h1.03l1.824 3.69 1.774-3.69h1.09v6.203h-1.06v-3.74l-1.804 3.74-1.793-3.69v3.69h-1.06z" style="fill:#006330;fill-opacity:1;fill-rule:evenodd;stroke:none"/>
  <path d="M39.74 73.827H50v-2.744H39.74z" style="fill:#006330;fill-opacity:1;fill-rule:nonzero;stroke:none"/>
  <path d="M73.897 73.706h3.008c.95 0 1.942.819 1.942 1.786 0 1.012-.75 1.992-1.792 1.992h-2.073v2.425h-1.085zm1.03 1.08v1.643h1.978c.504 0 .856-.285.856-.825 0-.527-.446-.818-.892-.818zM80.051 73.706h1.03l1.824 3.69 1.774-3.69h1.09v6.203h-1.06v-3.74l-1.804 3.74-1.793-3.69v3.69h-1.06zM65.421 64.34l-7.742 8.131h7.742zm.061-4.915h3.422v13.046h3.01v3.299h-3.01v4.136H65.42V75.77H53.03v-3.155zM21 111.37l8.157-6.525h8.972l-5.097 4.079h38.945v4.892H33.032l5.097 4.079h-8.972z" style="fill:#006330;fill-opacity:1;fill-rule:evenodd;stroke:none"/>
</svg>
