<svg xmlns="http://www.w3.org/2000/svg" viewBox="0 0 123.339 123.339" role="img" aria-labelledby="title">
  <title id="title">Verkehrszeichen R3-3 - Children Crossing (flags are displayed near crossings around schools, orange variant, excluding NT)</title>
  <path d="M0 123.339h123.339V0H0z" style="fill:#f60;fill-opacity:1;fill-rule:nonzero;stroke:none"/>
  <path d="M12.95 43.603h2.82c0 4.49-1.671 6.266-4.752 6.266-5.327 0-5.64-6.893-5.64-13.106v-2.194c0-4.543.313-10.288 5.483-10.288 2.298.053 4.804 2.038 4.804 4.805h-2.976c-.314-1.148-.732-1.723-1.775-1.723-2.245 0-2.506 3.76-2.506 6.736 0 1.096.05 2.036.05 2.715v1.306c0 3.289.106 8.615 2.456 8.615 1.149 0 2.036-1.566 2.036-3.132M21.253 24.7h3.132v10.078h4.178V24.7h3.08v24.648h-3.08v-11.49h-4.178v11.49h-3.133z" style="fill:#000;fill-opacity:1;fill-rule:evenodd;stroke:none"/>
  <path d="M38.485 49.346h3.08V24.7h-3.08z" style="fill:#000;fill-opacity:1;fill-rule:nonzero;stroke:none"/>
  <path d="M48.354 24.7h3.081v21.619h6.161v3.028h-9.242zM66.944 27.78h-1.619v18.641h1.724c2.557 0 2.61-6.213 2.61-10.077 0-2.977-.156-8.564-2.715-8.564m-.261-3.081c2.506 0 3.916 1.567 4.7 2.558.678.94 1.305 4.23 1.305 9.087 0 5.012-.627 9.086-1.15 10.13-.678 1.254-2.453 2.872-4.333 2.872h-4.909V24.7zM82.975 34.674c1.201 0 2.141-1.984 2.141-3.343 0-1.461-.731-3.602-2.141-3.602h-1.984v6.945zm2.873 2.036 2.506 12.638h-3.081l-2.454-11.542H80.99v11.542h-3.028V24.7h4.96c2.402 0 5.273 1.357 5.273 6.841q0 3.446-2.348 5.169M93.628 24.7h8.928v3.081H96.71v6.632h3.811v3.028h-3.811v8.878h6.161v3.028h-9.242zM108.3 24.7h3.081l4.281 13.106V24.7h3.03v24.648h-2.663l-4.648-14.57v14.57H108.3zM14.308 92.949h2.82c0 4.491-1.672 6.266-4.753 6.266-5.326 0-5.639-6.892-5.639-13.106v-2.194c0-4.542.313-10.287 5.483-10.287 2.297.052 4.803 2.037 4.803 4.805h-2.976c-.314-1.15-.731-1.724-1.775-1.724-2.245 0-2.506 3.76-2.506 6.736 0 1.096.051 2.036.051 2.715v1.306c0 3.289.105 8.615 2.455 8.615 1.149 0 2.036-1.566 2.036-3.132M27.624 84.019c1.201 0 2.141-1.984 2.141-3.343 0-1.461-.731-3.602-2.141-3.602H25.64v6.945zm2.872 2.036 2.507 12.638H29.92L27.467 87.15H25.64v11.542h-3.029V74.045h4.96c2.403 0 5.274 1.358 5.274 6.841q0 3.446-2.349 5.169M42.505 96.029c2.403 0 2.403-4.334 2.403-9.556 0-5.065-.158-9.87-2.403-9.87-2.454 0-2.611 4.805-2.611 9.87 0 5.222.314 9.556 2.611 9.556m0 3.185c-5.065-.053-5.691-5.691-5.691-12.741 0-6.893.156-12.845 5.691-12.898 5.17 0 5.535 6.005 5.535 12.898 0 10.34-1.566 12.74-5.535 12.74M51.749 92.583h2.976c0 2.402.94 3.498 2.245 3.498 1.359 0 2.141-1.096 2.141-2.767 0-.784-.156-1.619-.47-2.559-1.148-3.185-2.453-4.125-4.02-5.796-1.097-1.149-2.507-4.073-2.507-6.214 0-3.395 2.559-5.17 4.909-5.17 2.61 0 4.856 1.985 4.856 5.744H58.85c0-1.931-.731-2.61-1.827-2.61-.627 0-1.775.209-1.775 2.089 0 1.2.47 2.976 1.305 3.655 4.073 3.498 5.587 8.563 5.587 11.434 0 2.142-1.88 5.276-5.117 5.276-2.663 0-5.274-1.515-5.274-6.58M65.639 92.583h2.976c0 2.402.94 3.498 2.245 3.498 1.359 0 2.141-1.096 2.141-2.767 0-.784-.156-1.619-.47-2.559-1.148-3.185-2.453-4.125-4.02-5.796-1.097-1.149-2.507-4.073-2.507-6.214 0-3.395 2.559-5.17 4.909-5.17 2.61 0 4.856 1.985 4.856 5.744H72.74c0-1.931-.731-2.61-1.827-2.61-.627 0-1.775.209-1.775 2.089 0 1.2.47 2.976 1.305 3.655 4.073 3.498 5.587 8.563 5.587 11.434 0 2.142-1.88 5.276-5.117 5.276-2.663 0-5.274-1.515-5.274-6.58" style="fill:#000;fill-opacity:1;fill-rule:evenodd;stroke:none"/>
  <path d="M81.095 98.693h3.08V74.045h-3.08z" style="fill:#000;fill-opacity:1;fill-rule:nonzero;stroke:none"/>
  <path d="M90.964 74.045h3.081l4.281 13.106V74.045h3.029v24.647h-2.662l-4.648-14.57v14.57h-3.081zM113.94 78.38c0-.835-.731-1.724-1.827-1.724-2.09 0-2.35 4.23-2.35 7.415v4.178c0 3.134.208 7.781 2.506 7.781 1.045 0 1.776-.627 1.776-3.134v-3.08h-1.619v-3.134h4.543v4.857c0 .575.052 1.357.052 2.036 0 .94-.052 1.776-.157 2.089-.888 2.664-2.768 3.499-4.49 3.551-4.753 0-5.693-5.065-5.693-12.741.053-6.789.47-12.898 5.484-12.898 2.663 0 4.804 1.984 4.804 4.804z" style="fill:#000;fill-opacity:1;fill-rule:evenodd;stroke:none"/>
</svg>
