<svg xmlns="http://www.w3.org/2000/svg" viewBox="0 0 1092.906 730.219" role="img" aria-labelledby="title">
  <title id="title">Verkehrszeichen R7-3-L - Left Lane (used with bus, transit or truck lane signs)</title>
  <path d="M110.203 727.4h871.903c59.476 0 107.972-48.485 107.972-107.972V110.794c0-59.564-48.496-107.971-107.972-107.971H110.203C51.315 2.823 2.83 51.23 2.83 110.794v508.634c0 59.487 48.485 107.972 107.373 107.972z" style="fill:#fff;fill-opacity:1;fill-rule:evenodd;stroke:#000;stroke-width:5.64444518;stroke-linecap:butt;stroke-linejoin:miter;stroke-miterlimit:11.47399998;stroke-opacity:1;stroke-dasharray:none"/>
  <path d="M112.674 712.664h867.56a94.81 94.81 0 0 0 95.097-95.097V112.589a94.804 94.804 0 0 0-95.097-95.097h-867.56c-52.75 0-95.695 42.347-95.695 95.097v504.978c0 52.74 42.945 95.097 95.695 95.097" style="fill:#000;fill-opacity:1;fill-rule:evenodd;stroke:none"/>
  <path d="M110.203 683.857h871.903c35.544 0 64.429-28.885 64.429-64.418V110.794c0-35.62-28.885-64.417-64.429-64.417H110.203c-35.532 0-64.417 28.796-64.417 64.417V619.44c0 35.533 28.885 64.418 64.417 64.418" style="fill:#fff;fill-opacity:1;fill-rule:evenodd;stroke:none"/>
  <path d="M174.654 413.28h30.668v150.905h102.454v30.06H174.654zM410.218 413.28h33.738l75.452 180.964h-34.967l-17.783-43.554h-77.292l-17.184 43.554h-33.738zm-7.357 107.971h50.912l-26.381-64.417zM571.56 413.28h28.22l84.66 119.627V413.28h31.278v180.964h-28.22L602.85 471.56v122.685H571.56zM785.043 413.28h130.054v31.29h-99.385v37.415h55.21v31.29h-55.21v49.691h102.454v31.278H785.043zM214.53 135.956h30.668v150.905h102.454v30.06H214.529zM395.505 135.956h130.053v31.29h-99.385v37.415h55.21v31.29h-55.21v49.691h102.454v31.278H395.505zM583.837 135.956h133.122v31.29H615.126v40.484h57.049v31.899h-57.05v77.291h-31.288zM745.168 135.956H878.29v30.06h-50.302V316.92H795.47V166.015h-50.301z" style="fill:#000;fill-opacity:1;fill-rule:evenodd;stroke:none"/>
</svg>
