<svg xmlns="http://www.w3.org/2000/svg" viewBox="0 0 400 535.2" role="img" aria-labelledby="title">
  <title id="title">Verkehrszeichen R7-V7-VIC - Transit Lane (used in VIC)</title>
  <g style="display:inline">
    <path d="M31.891.5V.51A31.503 31.5 0 0 0 .5 32.003a31.503 31.5 0 0 0 .034.523H.5v469.983h.034a31.503 31.5 0 0 0-.034.487 31.503 31.5 0 0 0 31.391 31.48v.024h335.486v-.058a31.503 31.5 0 0 0 .626.046 31.503 31.5 0 0 0 31.496-31.492 31.503 31.5 0 0 0-.035-1.52h.024V32.165a31.503 31.5 0 0 0 .011-.163A31.503 31.5 0 0 0 368.003.5a31.503 31.5 0 0 0-.626.047V.499H31.996Z" style="fill:#fff;fill-opacity:1;stroke:#000;stroke-width:.998928;stroke-dasharray:none;stroke-opacity:1"/>
    <path d="M399.122 200.914A199.123 199.1 0 0 1 200 400.014 199.123 199.1 0 0 1 .877 200.914 199.123 199.1 0 0 1 200 1.814a199.123 199.1 0 0 1 199.122 199.1" style="fill:#0f5532;stroke-width:33.5103"/>
    <path d="M369.637 200.92A169.637 169.618 0 0 1 200 370.536 169.637 169.618 0 0 1 30.362 200.919 169.637 169.618 0 0 1 200 31.301 169.637 169.618 0 0 1 369.637 200.92" style="fill:#fff;stroke-width:43.3861"/>
    <g aria-label="T" style="font-size:77.0869px;font-family:&quot;Highway Gothic Wide&quot;;-inkscape-font-specification:&quot;Highway Gothic Wide, Normal&quot;;stroke-width:30.0407">
      <path d="M89.113 170.839H74.235v42.552h-9.02v-42.552H50.339v-9.097h38.775z" style="font-weight:700" transform="matrix(.93243 0 0 1.07017 .784 -.25)"/>
    </g>
    <path d="M142.647 211.167h-10.222l-8.238-20.062h-13.579v20.062h-9.154v-51.11h23.495q5.035 0 8.773 2.136 7.857 4.577 7.857 13.502 0 9.078-8.238 13.579zm-10.222-35.472q0-2.975-1.983-4.73-1.984-1.754-5.34-1.754h-14.494v12.74h14.494q3.356 0 5.34-1.679 1.983-1.754 1.983-4.577" aria-label="R" style="font-size:76.2837px;font-family:&quot;Highway Gothic Wide&quot;;-inkscape-font-specification:&quot;Highway Gothic Wide, Normal&quot;;stroke-width:29.728" transform="matrix(.92271 0 0 1.08144 .784 -.25)"/>
    <path d="M204.553 209.36h-9.832l-4.916-11.874H167.72l-4.991 11.874h-9.908l21.328-50.673h9.227zm-18.681-20.95-7.11-17.092-7.109 17.092z" aria-label="A" style="font-size:75.631px;font-family:&quot;Highway Gothic Wide&quot;;-inkscape-font-specification:&quot;Highway Gothic Wide, Normal&quot;;stroke-width:29.4735" transform="matrix(.91482 0 0 1.09077 .784 -.25)"/>
    <path d="M256.886 207.797h-7.732l-24.021-33.93v33.93h-8.783v-50.294h8.783l23.12 33.555v-33.555h8.633z" aria-label="N" style="font-size:75.0663px;font-family:&quot;Highway Gothic Wide&quot;;-inkscape-font-specification:&quot;Highway Gothic Wide, Normal&quot;;stroke-width:29.2533" transform="matrix(.90799 0 0 1.09898 .784 -.25)"/>
    <path d="M308.557 192.85q-.073 6.502-5.114 10.812-4.968 4.31-13.955 4.31-11.981 0-19.506-10.081l7.306-4.968q4.968 6.502 12.493 6.648 4.675.073 7.306-1.827 2.703-1.899 2.776-5.04.219-2.63-2.119-4.311-2.338-1.68-9.498-3.36-10.009-2.339-13.442-5.772-3.361-3.434-3.434-8.037-.146-5.333 4.53-9.424 4.748-4.165 12.273-4.165 11.909.585 18.265 9.279l-6.94 4.602q-4.019-4.675-11.325-5.26-3.945 0-5.99 1.461t-1.9 3.288q-.073 2.046 2.192 3.36 2.265 1.316 6.502 2.12 10.228 1.899 14.831 6.21 4.676 4.237 4.749 10.155" aria-label="S" style="font-size:73.0588px;font-family:&quot;Highway Gothic Wide&quot;;-inkscape-font-specification:&quot;Highway Gothic Wide, Normal&quot;;stroke-width:28.4707" transform="matrix(.90875 0 0 1.09805 .784 -.25)"/>
    <path d="M317.046 219.453h-9.513v-53.115h9.513z" aria-label="I" style="font-size:79.2771px;font-family:&quot;Highway Gothic Wide&quot;;-inkscape-font-specification:&quot;Highway Gothic Wide, Normal&quot;;stroke-width:30.8943" transform="matrix(.95892 0 0 1.0406 .784 -.25)"/>
    <path d="M382.666 168.294H368.01v41.918h-8.885v-41.918H344.47v-8.96h38.197z" aria-label="T" style="font-size:75.9386px;font-family:&quot;Highway Gothic Wide&quot;;-inkscape-font-specification:&quot;Highway Gothic Wide, Normal&quot;;stroke-width:29.5935" transform="matrix(.91854 0 0 1.08635 .784 -.25)"/>
    <path d="M135.01 458.677H91.632v-58.128h10.584v47.717h32.794z" aria-label="L" style="font-size:86.7575px;font-family:&quot;Highway Gothic Wide&quot;;-inkscape-font-specification:&quot;Highway Gothic Wide, Normal&quot;;stroke-width:33.8095" transform="matrix(.9093 0 0 1.0974 .382 -.25)"/>
    <path d="M209.142 449.55h-11.054l-5.527-13.35h-24.828l-5.612 13.35h-11.138l23.978-56.969h10.373zm-21.002-23.553-7.993-19.216-7.992 19.216z" aria-label="A" style="font-size:85.0284px;font-family:&quot;Highway Gothic Wide&quot;;-inkscape-font-specification:&quot;Highway Gothic Wide, Normal&quot;;stroke-width:33.1358" transform="matrix(.8912 0 0 1.11967 .382 -.25)"/>
    <path d="M276.534 455.248h-8.87l-27.554-38.921v38.921h-10.075v-57.693h10.075l26.521 38.49v-38.49h9.903z" aria-label="N" style="font-size:86.1089px;font-family:&quot;Highway Gothic Wide&quot;;-inkscape-font-specification:&quot;Highway Gothic Wide, Normal&quot;;stroke-width:33.5567" transform="matrix(.9025 0 0 1.10567 .382 -.25)"/>
    <path d="M316.235 440.061h-37.199v63.858h37.2v-10.285h-26.473v-17.443h19.744v-10.296h-19.744V450.16h26.472z" style="font-style:normal;font-variant:normal;font-weight:400;font-stretch:normal;font-size:16.5098px;font-family:&quot;Highway Gothic Wide&quot;;-inkscape-font-specification:&quot;Highway Gothic Wide, Normal&quot;;font-variant-ligatures:normal;font-variant-caps:normal;font-variant-numeric:normal;font-variant-east-asian:normal;fill:#000;fill-opacity:1;stroke-width:38.2813" transform="matrix(.99899 0 0 .99887 .382 -.25)"/>
  </g>
</svg>
