<svg xmlns="http://www.w3.org/2000/svg" viewBox="0 0 148.531 357.313" role="img" aria-labelledby="title">
  <title id="title">Verkehrszeichen R2-V122 - Keep Left at Islands (used in VIC)</title>
  <path d="M15.338.594a14.743 14.743 0 0 0-13.7 9.312 14.8 14.8 0 0 0-1.033 5.42v326.649c0 1.745.313 3.598 1.033 5.423a14.8 14.8 0 0 0 3.283 4.998 14.8 14.8 0 0 0 4.993 3.278 14.8 14.8 0 0 0 5.424 1.033h117.859c1.745 0 3.596-.31 5.423-1.033a14.8 14.8 0 0 0 4.994-3.278 14.739 14.739 0 0 0 4.316-10.422V15.328a14.73 14.73 0 0 0-9.31-13.698 14.7 14.7 0 0 0-5.423-1.035H15.337" style="fill:#fff;fill-opacity:1;fill-rule:evenodd;stroke:#000;stroke-width:1.20019484;stroke-miterlimit:4;stroke-opacity:1;stroke-dasharray:none"/>
  <path d="M15.338 3.05a12.28 12.28 0 0 0-11.415 7.758 12.3 12.3 0 0 0-.862 4.518v326.648a12.29 12.29 0 0 0 3.595 8.682 12.28 12.28 0 0 0 8.682 3.598h117.859a12.266 12.266 0 0 0 8.681-3.598 12.287 12.287 0 0 0 3.596-8.681V15.325c0-1.455-.26-2.998-.863-4.518a12.259 12.259 0 0 0-6.894-6.896 12.3 12.3 0 0 0-4.52-.863zm125.226 12.277v194.55H7.972V15.325a7.366 7.366 0 0 1 7.366-7.366h117.859a7.366 7.366 0 0 1 7.366 7.366" style="fill:#000;fill-opacity:1;fill-rule:evenodd;stroke:none"/>
  <path d="m74.268 218.716-63.35 63.347 63.35 63.348h63.347l-63.347-63.348 63.347-63.347z" style="fill:#fff;fill-opacity:1;fill-rule:evenodd;stroke:none"/>
  <path d="m116.482 111.088 14.432 19.863-66.348 48.205 7.771 3.458a4.93 4.93 0 0 1 2.313 2.136 4.918 4.918 0 0 1-.905 5.891 4.9 4.9 0 0 1-2.845 1.34l-53.28 6.106 22.272-48.78a4.91 4.91 0 0 1 5.26-2.808c1.001.165 1.999.647 2.779 1.472a4.93 4.93 0 0 1 1.313 2.86l.89 8.46zM108.608 22.693V34.81h6.809a3.57 3.57 0 0 0 2.608-1.055 3.74 3.74 0 0 0 1.09-2.646c0-.907-.333-1.89-1.09-2.648a3.58 3.58 0 0 0-2.608-1.055h-6.806v-4.713h6.806a8.1 8.1 0 0 1 5.88 2.428c1.699 1.715 2.446 3.938 2.446 5.988 0 2.048-.747 4.271-2.445 5.986a8.2 8.2 0 0 1-2.826 1.87 8.1 8.1 0 0 1-3.055.558h-6.809v12.635h-4.606V22.693zM33.357 91.64h13.335v4.715H28.72V66.89h4.638M71.635 71.604V66.89H53.662v29.467h17.973V91.64H58.3v-8.249h8.429v-4.715H58.3v-7.072zM97.66 66.889H79.686v29.467h4.638V83.39h8.429v-4.713h-8.43v-7.071H97.66zM119.815 66.889h-17.973v4.716h6.666v24.751h4.638V71.605h6.669zM29.439 52.157H24.79V22.693h4.649v11.849l9.174-11.85h5.908l-8.796 11.362 9.396 18.103h-5.25l-7.292-14.042-3.14 4.058zM70.021 27.407v-4.713H52.048v29.465h17.973v-4.714H56.687v-8.251h8.428v-4.716h-8.428v-7.07zM95.999 27.407v-4.713H78.026v29.465h17.973v-4.714H82.664v-8.251h8.429v-4.716h-8.429v-7.07z" style="fill:#000;fill-opacity:1;fill-rule:evenodd;stroke:none"/>
</svg>
