<svg xmlns="http://www.w3.org/2000/svg" xml:space="preserve" viewBox="0 -.321 750.4 750.4" role="img" aria-labelledby="title">
  <title id="title">Verkehrszeichen R3-1__2 - Pedestrian Crossing (with target board, used in QLD)</title>
  <path d="M375.2 749.88c207.107 0 375-167.894 375-375 0-207.108-167.893-375.001-375-375.001s-375 167.893-375 375 167.893 375 375 375" style="fill:#e96e13;fill-opacity:1;stroke:none"/>
  <path d="M375.2 662.88c159.058 0 288-128.943 288-288 0-159.059-128.942-288-288-288s-288 128.941-288 288c0 159.057 128.942 288 288 288" style="fill:#000;fill-opacity:1;stroke:none"/>
  <path d="M375.2 650.88c152.43 0 276-123.57 276-276 0-152.431-123.57-276-276-276s-276 123.569-276 276 123.57 276 276 276" style="fill:#cdff00;fill-opacity:1;stroke:none"/>
  <path d="M276.132 199.036h48.008l30.738 60.206-91.953 199.15-85.86-40.388zM189.263 491.922l4.317-7.875c10.921 4.829 14.734 7.62 22.608 18.036 7.37 9.4 23.12 16.254 34.545 19.811 29.978 9.656 33.535-14.983 24.135-20.066-18.291-10.161-36.071-29.972-37.342-46.737-25.15 0-44.961-12.958-55.882-26.166-16.765 5.844-19.818 18.54-20.578 36.832l-4.317 10.927zM528.886 511.989l-3.302-8.386c10.921-5.077 15.494-6.093 28.452-5.333 11.937.767 27.43-6.603 37.847-12.952 26.67-16.515 10.416-35.055.255-31.498-19.562 7.108-45.976 7.62-59.44-2.286-16.77 19.05-39.372 25.399-56.648 25.144-6.348 16.26 1.016 27.18 14.223 39.628l5.589 10.416zM342.943 199.036h101.354l109.988 228.619-85.854 41.148z" style="fill:#000;fill-opacity:1;fill-rule:evenodd;stroke:none"/>
</svg>
