<svg xmlns="http://www.w3.org/2000/svg" viewBox="0 0 266.281 310.438" role="img" aria-labelledby="title">
  <title id="title">Verkehrszeichen R7-7-3 - T2 Transit Lane Restriction (2 people or more (1 driver, 1 passenger))</title>
  <path d="M22.801.758h220.66c12.139 0 22.066 9.93 22.066 22.066v264.792c0 12.136-9.927 22.066-22.066 22.066H22.8c-12.135 0-22.066-9.93-22.066-22.066V22.824C.735 10.688 10.665.758 22.801.758z" style="fill:#fff;fill-opacity:1;fill-rule:evenodd;stroke:#000;stroke-width:1.5;stroke-linecap:butt;stroke-linejoin:miter;stroke-miterlimit:22.9260006;stroke-opacity:1;stroke-dasharray:none"/>
  <path d="M22.801 4.07c-10.308 0-18.755 8.446-18.755 18.754v264.792c0 10.312 8.447 18.758 18.755 18.758h220.66c10.311 0 18.758-8.446 18.758-18.758V22.824c0-10.308-8.447-18.755-18.758-18.755z" style="fill:#000;fill-opacity:1;fill-rule:evenodd;stroke:none"/>
  <path d="M22.801 10.688c-6.656 0-12.135 5.483-12.135 12.136v264.792c0 6.657 5.479 12.136 12.135 12.136h220.66c6.657 0 12.139-5.48 12.139-12.136V22.824c0-6.653-5.482-12.136-12.14-12.136z" style="fill:#fff;fill-opacity:1;fill-rule:evenodd;stroke:none"/>
  <path d="M25.41 31.667h25.949v5.72h-9.956v29.585H35.26V37.387h-9.85zM57.678 31.667H74.66c1.265.007 2.45.2 3.542.572 1.09.375 2.078.9 2.955 1.565.878.672 1.631 1.446 2.253 2.337a10.46 10.46 0 0 1 1.949 6.047c0 .725-.094 1.478-.272 2.256a13 13 0 0 1-.787 2.299c-.347.759-.772 1.484-1.265 2.165-.5.684-1.065 1.29-1.696 1.83a8.3 8.3 0 0 1-2.087 1.3l6.566 14.934h-6.566l-6.285-13.804h-9.25v13.804h-6.038zm6.038 6.039v9.462H74.66a4.3 4.3 0 0 0 1.75-.39 4.936 4.936 0 0 0 2.465-2.53q.368-.842.377-1.775c0-.338-.053-.719-.172-1.131a5.5 5.5 0 0 0-.518-1.265 5 5 0 0 0-.9-1.172 4.1 4.1 0 0 0-1.287-.865c-.503-.219-1.071-.328-1.715-.334zM105.2 31.667h5.895l14.828 35.305h-6.635l-3.389-8.225h-15.325l-3.458 8.225h-6.498zm-2.224 21.008h10.38l-5.154-12.533zM132.705 31.667h5.791L154.7 55.005V31.667h6.145v35.305h-5.508l-16.524-23.971v23.971h-6.107zM167.728 60.619l4.836-3.53c.856.924 1.73 1.712 2.63 2.37a10.9 10.9 0 0 0 2.943 1.513c1.059.346 2.255.524 3.573.53q.562.002 1.36-.078a15 15 0 0 0 1.686-.274 12 12 0 0 0 1.762-.544 7 7 0 0 0 1.571-.865 4.2 4.2 0 0 0 1.128-1.26q.426-.73.437-1.711-.006-.96-.412-1.643a3.45 3.45 0 0 0-1.078-1.121 6.6 6.6 0 0 0-1.518-.744q-.838-.292-1.73-.493-.891-.202-1.725-.375a14 14 0 0 1-1.48-.39q-1.519-.483-3.021-.96a38 38 0 0 1-2.893-1.034 16 16 0 0 1-2.583-1.312 9.2 9.2 0 0 1-2.078-1.808c-.596-.7-1.052-1.534-1.383-2.5-.328-.965-.5-2.102-.506-3.401.005-1.125.177-2.156.518-3.083a8.5 8.5 0 0 1 1.406-2.515 10.5 10.5 0 0 1 2.099-1.946 13.3 13.3 0 0 1 2.583-1.384 15.6 15.6 0 0 1 2.855-.821 16 16 0 0 1 2.93-.278 15 15 0 0 1 3.315.4 19.7 19.7 0 0 1 3.405 1.124 18.4 18.4 0 0 1 3.149 1.737 13.8 13.8 0 0 1 2.561 2.246l-4.414 4.167a16 16 0 0 0-1.855-1.637 8.6 8.6 0 0 0-1.825-1.053 8.3 8.3 0 0 0-1.986-.565 14.6 14.6 0 0 0-2.35-.169 9 9 0 0 0-1.477.14c-.547.088-1.112.235-1.677.422q-.855.295-1.587.744c-.49.294-.884.653-1.19 1.059q-.46.616-.494 1.412c.005.712.153 1.312.447 1.79.293.48.706.874 1.23 1.187q.786.475 1.825.806 1.039.328 2.243.63c.805.2 1.627.422 2.483.67q1.224.354 2.611.743c.925.259 1.847.559 2.777.9q1.389.503 2.656 1.23a10 10 0 0 1 2.246 1.74 7.5 7.5 0 0 1 1.552 2.43q.575 1.415.584 3.302c-.005 1.29-.218 2.458-.624 3.52a9.7 9.7 0 0 1-1.7 2.83 11.9 11.9 0 0 1-2.508 2.165 15.5 15.5 0 0 1-3.046 1.519 18.7 18.7 0 0 1-3.314.9q-1.697.291-3.318.293c-.718 0-1.502-.088-2.349-.253a20 20 0 0 1-2.63-.712c-.9-.313-1.79-.675-2.67-1.106q-1.317-.638-2.484-1.425a14 14 0 0 1-2.071-1.67 8 8 0 0 1-1.425-1.86M202.468 66.972h6.072V31.667h-6.072zM214.894 31.667h25.95v5.72h-9.956v29.585h-6.145V37.387h-9.849zM68.005 237.602a16 16 0 0 1 1.166-.353c.43-.12.884-.222 1.346-.319q.701-.136 1.362-.225c.447-.053.85-.084 1.212-.084q1.221.001 2.48.2c.834.137 1.643.343 2.44.627.79.278 1.527.638 2.215 1.072a8.2 8.2 0 0 1 1.814 1.559q.777.9 1.222 2.064.436 1.164.447 2.609-.008 1.434-.456 2.593a6.7 6.7 0 0 1-1.231 2.052 8.2 8.2 0 0 1-1.828 1.546c-.687.431-1.43.79-2.22 1.068q-1.191.417-2.434.619-1.245.197-2.45.197a13.8 13.8 0 0 1-3.235-.378 11 11 0 0 1-2.868-1.134 8.9 8.9 0 0 1-2.299-1.887 8.1 8.1 0 0 1-1.528-2.62q-.551-1.496-.556-3.356.005-3.269.822-6.01.81-2.74 2.324-4.888a15 15 0 0 1 3.627-3.646 16.1 16.1 0 0 1 4.72-2.277c1.737-.522 3.608-.781 5.613-.787v4.713a9 9 0 0 0-1.193-.078q-1.308.005-2.612.357a12 12 0 0 0-2.514.996c-.81.434-1.565.94-2.262 1.534a12 12 0 0 0-1.85 1.958 9.9 9.9 0 0 0-1.274 2.278m5.323 10.54c.781.002 1.512-.041 2.203-.138.687-.094 1.293-.26 1.82-.51q.797-.36 1.25-1.03c.306-.447.46-1.016.472-1.712-.003-.684-.16-1.256-.462-1.7q-.452-.674-1.25-1.055c-.528-.256-1.137-.431-1.827-.538a14 14 0 0 0-2.206-.15c-.803-.006-1.55.054-2.233.172q-1.025.178-1.793.575a3.1 3.1 0 0 0-1.197 1.062q-.425.66-.443 1.634.006.931.437 1.577c.281.435.684.784 1.197 1.047.509.268 1.112.465 1.796.584q1.031.182 2.236.181M115.446 244.618h19.489v-4.476h-19.489zM149.014 252.324v-19.886h-3.283v-3.84a5.7 5.7 0 0 0 1.634-.477 6 6 0 0 0 1.437-.947c.427-.39.771-.83 1.033-1.33h3.758v26.48zM169.718 248.194q1.344-.005 2.377-.468a5.2 5.2 0 0 0 1.793-1.297 7 7 0 0 0 1.237-1.977q.482-1.135.719-2.499c.153-.903.228-1.862.228-2.868 0-1.012-.078-1.968-.24-2.877a11 11 0 0 0-.737-2.502 7.1 7.1 0 0 0-1.25-1.974 5.4 5.4 0 0 0-1.787-1.293c-.684-.303-1.465-.46-2.34-.463-.874.003-1.649.16-2.34.463a5.3 5.3 0 0 0-1.783 1.293 7.2 7.2 0 0 0-1.252 1.974q-.498 1.14-.738 2.502c-.162.91-.24 1.865-.24 2.877 0 1.006.075 1.965.228 2.868q.238 1.364.719 2.499.482 1.141 1.237 1.977.754.841 1.79 1.297c.693.309 1.483.465 2.38.468zm0 4.633c-1.54-.003-2.905-.24-4.098-.7-1.193-.465-2.221-1.112-3.09-1.955a10.4 10.4 0 0 1-2.133-2.98q-.839-1.716-1.24-3.768a22.6 22.6 0 0 1-.4-4.339c0-1.52.134-2.964.419-4.339.278-1.37.7-2.633 1.274-3.776a10.8 10.8 0 0 1 2.162-2.99 9.3 9.3 0 0 1 3.077-1.958c1.184-.463 2.524-.697 4.03-.706 1.505.009 2.845.243 4.029.706a9.3 9.3 0 0 1 3.08 1.958c.868.844 1.59 1.843 2.158 2.99.575 1.143.997 2.405 1.275 3.776.284 1.375.419 2.818.419 4.34q.001 2.279-.4 4.338a15.2 15.2 0 0 1-1.237 3.768 10.5 10.5 0 0 1-2.137 2.98c-.862.843-1.896 1.49-3.09 1.955-1.19.46-2.558.697-4.098.7M91.484 243.496h1.474l3.708 8.828h-1.662l-.846-2.059h-3.83l-.865 2.059h-1.625zm-.556 5.251h2.595l-1.29-3.133zM98.359 243.496h1.465l2.596 5.251 2.524-5.25h1.552v8.827h-1.508V247l-2.568 5.323-2.552-5.254v5.254h-1.509zM188.642 243.496h1.474l3.708 8.828h-1.662l-.846-2.059h-3.83l-.865 2.059h-1.624zm-.556 5.251h2.596l-1.29-3.133zM195.52 243.496h1.466l2.595 5.251 2.524-5.25h1.553v8.827h-1.509V247l-2.568 5.323-2.552-5.254v5.254h-1.508zM82.125 271.92h2.199l3.892 7.877 3.786-7.878h2.33v13.239h-2.264v-7.981l-3.852 7.98-3.826-7.874v7.875h-2.265zM102.395 283.121a2.85 2.85 0 0 0 1.162-.234 2.7 2.7 0 0 0 .9-.653c.262-.281.474-.612.65-.996q.258-.571.387-1.253.13-.69.13-1.443.001-.765-.134-1.453a5.5 5.5 0 0 0-.4-1.259 3.7 3.7 0 0 0-.655-.993q-.39-.424-.9-.656a2.8 2.8 0 0 0-1.14-.234q-.63.005-1.14.234-.51.232-.9.656a3.7 3.7 0 0 0-.656.993q-.266.573-.4 1.26-.132.688-.134 1.452 0 .754.13 1.443c.085.456.217.871.388 1.253q.261.575.65.996c.256.281.56.5.903.653a2.8 2.8 0 0 0 1.159.234zm0 2.29a5.4 5.4 0 0 1-1.974-.35 4.65 4.65 0 0 1-1.534-.978 5.5 5.5 0 0 1-1.096-1.49q-.436-.858-.66-1.884a10.6 10.6 0 0 1-.218-2.167q.002-1.142.228-2.171a7.6 7.6 0 0 1 .678-1.89 5.7 5.7 0 0 1 1.109-1.493q.661-.632 1.53-.978.868-.35 1.937-.353 1.069.003 1.937.353.87.346 1.53.978.665.633 1.112 1.493.446.857.675 1.89.227 1.029.228 2.17-.002 1.139-.218 2.168a7.8 7.8 0 0 1-.66 1.884 5.5 5.5 0 0 1-1.096 1.49q-.657.632-1.534.978a5.4 5.4 0 0 1-1.974.35M110.47 271.92h2.17l6.08 8.752v-8.753h2.302v13.239h-2.065l-6.197-8.987v8.987h-2.29zM134.448 281.306h9.744v-2.237h-9.744zM156.623 271.92h9.731v2.301h-7.494v2.874h4.133v2.265h-4.133v5.798h-2.237zM168.725 271.92h6.37q.712.003 1.327.215.614.212 1.109.584.492.378.843.878.356.496.54 1.074.19.578.191 1.194 0 .407-.103.846a5 5 0 0 1-.294.862q-.197.428-.474.813c-.188.256-.4.48-.638.684a3.1 3.1 0 0 1-.78.49l2.461 5.598h-2.462l-2.358-5.176h-3.467v5.176h-2.265zm2.265 2.264v3.549h4.104q.343-.005.653-.147.31-.14.55-.387.24-.248.375-.563.139-.313.143-.665 0-.19-.065-.425a2 2 0 0 0-.194-.475 2 2 0 0 0-.337-.437 1.56 1.56 0 0 0-1.125-.45zM181.857 285.158h2.277v-13.24h-2.277zM65.588 84.609h6.038v29.657h19.91v5.648H65.589zM110.107 84.609h5.895l14.829 35.305h-6.635l-3.39-8.225h-15.325l-3.458 8.225h-6.497zm-2.224 21.007h10.38l-5.154-12.532zM137.612 84.609h5.792l16.203 23.338V84.609h6.144v35.305h-5.507l-16.525-23.972v23.972h-6.107zM174.716 84.609h25.315v6.144h-19.208v7.026h10.38v6.141h-10.38v9.852h19.842v6.142h-25.949z" style="fill:#000;fill-opacity:1;fill-rule:nonzero;stroke:none"/>
  <path d="M68.699 141.98a101.2 101.2 0 0 0-34.546 7.247 50.6 50.6 0 0 0-4.732 21.307v.263a50.6 50.6 0 0 0 4.732 21.31 101.2 101.2 0 0 0 34.54 7.244h6.694c12.258-.397 23.968-2.964 34.758-7.335a50.4 50.4 0 0 0 4.514-17.065v-8.571a50.5 50.5 0 0 0-4.514-17.065c-10.79-4.37-22.504-6.938-34.761-7.335z" style="fill:#c0111e;fill-opacity:1;fill-rule:evenodd;stroke:none"/>
  <path d="m44.074 151.501 24.228-.315.075 5.838-9.096.119.44 33.877-5.997.078-.44-33.877-9.135.118zM73.032 160.816a10.1 10.1 0 0 1 1.05-3.33 12.7 12.7 0 0 1 2.039-2.905 14.25 14.25 0 0 1 5.994-3.833 11.7 11.7 0 0 1 3.412-.58q2.222-.031 4.295.409c1.371.293 2.649.752 3.823 1.371a11.3 11.3 0 0 1 3.096 2.383c.887.963 1.584 2.112 2.083 3.437.507 1.324.772 2.83.8 4.529a10 10 0 0 1-.31 2.608 11 11 0 0 1-.852 2.243 11.3 11.3 0 0 1-1.146 1.834q-.615.809-1.2 1.374a8 8 0 0 1-1.021.86 15 15 0 0 1-1.678.974c-.625.312-1.256.612-1.902.893q-.974.43-1.803.797c-.559.253-1.012.478-1.368.68-.803.46-1.55.982-2.243 1.553a15 15 0 0 0-1.98 1.996c-.628.76-1.243 1.64-1.852 2.653a42 42 0 0 0-1.862 3.514l19.501-.253.082 6.472-26.687.347c-.034-2.964.381-5.723 1.234-8.278a23.8 23.8 0 0 1 3.749-7.025c1.65-2.134 3.642-4.061 5.985-5.773.36-.25.828-.494 1.412-.747.587-.243 1.224-.512 1.924-.8a28 28 0 0 0 2.087-.952c.696-.36 1.334-.76 1.908-1.215q.866-.689 1.39-1.568c.344-.594.522-1.265.519-2.028-.018-.774-.172-1.474-.472-2.118a5.9 5.9 0 0 0-1.2-1.705 7.3 7.3 0 0 0-1.724-1.256 8.4 8.4 0 0 0-2.03-.768 8.4 8.4 0 0 0-2.121-.25 6.9 6.9 0 0 0-2.99.715 7 7 0 0 0-2.44 1.984q-1.035 1.295-1.527 3.152z" style="fill:#fff;fill-opacity:1;fill-rule:nonzero;stroke:none"/>
  <path d="M227.152 174.648a4.929 4.929 0 1 1 0 9.855 4.929 4.929 0 1 1 0-9.855m-57.509 0a4.927 4.927 0 1 1 0 9.856 4.926 4.926 0 0 1-4.926-4.926 4.927 4.927 0 0 1 4.926-4.93m11.958-18.752h-6.22v9.025h-8.477l6.016-22.704 50.47-.137 6.017 22.841h-8.478v-9.025h-10.805v9.025H186.6v-9.025zm-21.991 38.16h4.557v9.709h11.49v-9.709h45.272v9.709h11.215v-9.709h4.695v-29.135h-2.371c-1.365 0-2.187-5.607-2.462-6.975-.684-2.462-1.23-5.06-2.05-7.522-1.23-3.555-1.78-12.858-6.019-12.858h-50.605c-3.692 0-4.104 2.052-4.788 4.926-1.778 6.976-5.745 20.514-6.429 22.429h-2.505zm21.37-38.51a6.37 6.37 0 0 0 6.369-6.369 6.368 6.368 0 1 0-6.37 6.37m34.536-.005a6.367 6.367 0 1 0 0-12.736 6.364 6.364 0 0 0-6.366 6.366 6.367 6.367 0 0 0 6.366 6.37" style="fill:#000;fill-opacity:1;fill-rule:evenodd;stroke:none"/>
</svg>
