<svg xmlns="http://www.w3.org/2000/svg" viewBox="0 0 645 720" role="img" aria-labelledby="title">
  <title id="title">Verkehrszeichen R2-V124-VIC - Give Way to Merging Tram (used in VIC)</title>
  <path fill="#fff" fill-rule="evenodd" d="M.419 75.441c0-8.723 1.39-18.156 5.234-27.574 3.49-9.419 9.078-17.788 16.752-25.476 7.32-7.32 16.044-12.908 25.122-16.397C56.946 2.164 66.364.419 75.088.419h494.47a70.9 70.9 0 0 1 27.561 5.575c9.42 3.49 18.143 9.078 25.476 16.397 7.32 7.688 12.908 16.057 16.752 25.476 3.49 9.418 5.235 18.85 5.235 27.574v569.472c0 8.724-1.745 18.142-5.235 27.561-3.844 9.078-9.432 17.802-16.752 25.121a67.45 67.45 0 0 1-25.476 16.752c-9.078 3.844-18.497 5.234-27.561 5.234H75.088c-8.724 0-18.142-1.39-27.561-5.234a68.8 68.8 0 0 1-25.122-16.752 69 69 0 0 1-16.752-25.121C1.809 663.055.419 653.637.419 644.913z" style="stroke-width:3.48945"/>
  <path fill="none" stroke="#000" stroke-linejoin="bevel" stroke-miterlimit="1.414" stroke-width=".837" d="M322.5 507.08v47.108M322.5 507.08v96.3M322.5 507.08v62.81M108.947 479.165h239.029M347.976 479.165V458.23M347.976 458.229h11.504M359.48 458.229l106.43-49.902M465.91 408.327c-1.037-3.844-.341-8.028 2.099-11.518 2.794-3.49 6.624-5.929 11.163-6.283 4.54-.695 9.078.354 12.568 3.148 3.135 2.795 5.234 6.625 5.575 10.81 0 4.198-1.745 8.028-4.88 10.822-3.49 3.135-7.674 4.539-12.213 4.185M480.222 419.49l-82.698 38.739M397.524 458.229h7.32M404.844 458.229v20.936M404.844 479.165h131.21M536.053 479.165l26.171 17.788M562.224 496.953v20.937M562.224 517.89H552.11M552.11 517.89v36.639M552.11 554.529h10.114M562.224 554.529v36.639M562.224 591.168h14.653M576.877 591.168v18.85M576.877 610.019h-66.995M509.882 610.019c5.234 1.744 9.078 5.575 10.469 10.468 1.744 4.88.695 10.114-2.795 14.298-3.135 4.199-8.369 6.284-13.958 6.284-5.575 0-10.809-2.085-14.298-6.284-3.149-4.184-4.198-9.418-2.795-14.298 1.745-4.893 5.575-8.724 10.81-10.468M497.315 610.019h-53.733M443.582 610.019c5.234 1.744 9.42 5.575 10.823 10.468 1.39 4.88.34 10.114-2.794 14.298-3.49 4.199-8.724 6.284-14.313 6.284-5.234 0-10.468-2.085-13.957-6.284-3.49-4.184-4.54-9.418-2.795-14.298 1.404-4.893 5.589-8.724 10.823-10.468M431.37 610.019h-23.037M408.333 610.019l-8.015 17.447M400.318 627.466h-155.99M244.328 627.466l-8.015-17.447M236.313 610.019H213.63M213.631 610.019c5.234 1.744 9.065 5.575 10.81 10.468 1.403 4.88.354 10.114-3.136 14.298-3.148 4.199-8.383 6.284-13.958 6.284-5.588 0-10.822-2.085-13.957-6.284-3.49-4.184-4.54-9.418-3.15-14.298 1.746-4.893 5.59-8.724 10.824-10.468M201.064 610.019h-53.392M147.672 610.019c4.893 1.744 9.078 5.575 10.468 10.468 1.745 4.88.696 10.114-2.794 14.298-3.135 4.199-8.37 6.284-13.958 6.284-5.575 0-10.81-2.085-14.299-6.284-3.148-4.184-4.184-9.418-2.794-14.298 1.39-4.893 5.589-8.724 10.823-10.468M135.118 610.019h-67.35M67.768 610.019v-18.851M67.768 591.168h14.653M82.421 591.168v-36.64M82.421 554.529H92.89M92.89 554.529v-36.64M92.89 517.89H82.42M82.421 517.89v-20.937M82.421 496.953l26.526-17.788"/>
  <path fill-rule="evenodd" d="M347.976 479.165h-239.03l-26.525 17.788v20.937H92.89v36.639H82.42v36.639H67.768v18.85h67.35c-2.454.696-4.539 1.745-6.638 3.83-1.745 1.746-3.49 3.845-4.185 6.639s-1.05 5.234-.354 8.028c.709 2.44 1.744 4.526 3.148 6.27 1.39 1.745 3.49 3.15 5.93 4.54 2.44 1.049 5.234 1.744 8.37 1.744 2.793 0 5.588-.695 8.028-1.745 2.44-1.39 4.539-2.794 5.929-4.539 1.404-1.744 2.794-3.83 3.149-6.27.695-2.794.695-5.234-.355-8.028-.695-2.794-2.44-4.893-4.184-6.638-2.1-2.086-4.185-3.135-6.284-3.83h53.392c-2.1.695-4.54 1.744-6.284 3.83-2.086 1.745-3.49 3.844-4.54 6.638-.694 2.794-.694 5.234-.34 8.028.695 2.44 1.745 4.526 3.49 6.27 1.39 1.745 3.135 3.15 5.575 4.54 2.453 1.049 5.234 1.744 8.383 1.744 3.135 0 5.929-.695 8.369-1.745 2.44-1.39 4.185-2.794 5.588-4.539 1.745-1.744 2.795-3.83 3.49-6.27.34-2.794.34-5.234-.354-8.028-1.05-2.794-2.44-4.893-4.54-6.638-1.744-2.086-4.184-3.135-6.27-3.83h22.682l8.015 17.447h155.99l8.015-17.447h23.036c-2.44.695-4.539 1.744-6.624 3.83-1.745 1.745-3.49 3.844-4.199 6.638-1.036 2.794-1.036 5.234-.34 8.028.695 2.44 1.745 4.526 3.135 6.27 1.404 1.745 3.49 3.15 5.93 4.54 2.453 1.049 5.233 1.744 8.028 1.744 3.148 0 5.93-.695 8.383-1.745 2.44-1.39 4.525-2.794 5.93-4.539 1.39-1.744 2.439-3.83 3.134-6.27.695-2.794.355-5.234-.34-8.028-.71-2.794-2.454-4.893-4.199-6.638-2.086-2.086-4.185-3.135-6.625-3.83h53.733c-2.086.695-4.526 1.744-6.27 3.83-2.1 1.745-3.49 3.844-4.54 6.638-.694 2.794-.694 5.234-.354 8.028.695 2.44 1.745 4.526 3.149 6.27 1.39 1.745 3.49 3.15 5.93 4.54 2.44 1.049 5.234 1.744 8.369 1.744 2.794 0 5.93-.695 8.383-1.745 2.44-1.39 4.184-2.794 5.575-4.539 1.404-1.744 2.794-3.83 3.148-6.27.695-2.794.695-5.234-.354-8.028-.695-2.794-2.1-4.893-4.185-6.638-2.099-2.086-4.184-3.135-6.284-3.83h66.996v-18.851h-14.653v-36.64H552.11V517.89h10.114v-20.937l-26.171-17.788h-131.21V458.23h-7.32l82.698-38.738c3.844.354 8.723-.696 12.213-4.185 3.49-3.135 4.88-6.979 4.88-10.823-.34-3.83-2.086-7.674-5.575-10.809-3.844-2.794-8.724-3.844-12.568-3.148a15.43 15.43 0 0 0-11.163 6.283c-2.795 3.844-3.136 8.029-2.1 11.518L359.48 458.23h-11.504zM121.16 507.421v62.81h-16.752v-62.81zm68.386 0v47.108h-51.293V507.42zm68.399 0v47.108h-51.293V507.42zm51.292 0v96.314h-34.2v-96.314zm60.371 0v96.314h-34.2v-96.314zm68.386 0v47.108H386.7V507.42zm17.106 0h51.293v47.108H455.1zm68.386 62.81v-62.81h17.106v62.81zM83.812 138.592c1.404 5.234 5.234 10.127 10.127 13.262 4.88 3.135 10.81 4.185 16.753 3.49 5.575-.695 10.809-3.844 14.653-8.029 3.83-4.539 5.93-10.113 5.93-15.702v-15.007h-25.818v11.872h13.958v3.135c0 5.93-4.539 11.163-10.468 12.213-6.284.695-12.213-2.794-13.958-8.724-3.49-11.858-3.49-24.766 0-36.98 1.745-4.893 6.27-8.723 11.859-8.723 2.44 0 5.234.695 7.333 2.44 2.44 1.39 3.83 3.83 4.88 5.93l11.164-3.49c-3.49-10.114-12.909-16.752-23.732-16.398-10.468 0-19.887 6.98-22.681 17.093-4.526 14.312-4.526 29.32 0 43.618M148.026 154.294V79.272h11.86v75.022M193.73 154.294 171.05 79.272h12.567l16.057 53.39 16.044-53.39h12.213l-22.327 75.022M239.093 154.294V79.272h44.328v11.517h-32.114v18.838h23.73v11.872h-23.73v20.937h34.554v11.858M370.998 154.294 360.53 79.272h12.213l5.589 40.823 10.114-40.823h10.823l10.468 40.482 5.575-40.482h11.872l-10.468 75.022h-10.823l-11.859-48.157-12.213 48.157M451.952 133.017l3.843-11.518 7.675-21.986 7.674 21.986h-15.349zh23.39l7.675 21.277h12.554l-26.512-75.022h-10.823l-26.512 75.022h12.554M526.28 154.294v-33.49l-26.512-41.532h13.958l18.483 28.61 18.497-28.61h13.618l-26.172 41.532v33.49M115.571 349.007v-74.668h11.86l17.447 43.263 17.447-43.263h11.872v74.668h-11.872v-43.618l-17.447 43.618-17.448-43.264v43.264zM191.986 349.007v-74.668h43.972v11.504h-32.1v18.85h24.072v11.519h-24.072v21.277h34.54v11.518M280.967 274.339H263.18v11.504h17.788c5.234.354 9.433 4.539 9.433 9.432a9.39 9.39 0 0 1-9.433 9.419H263.18v-30.355h-11.872v74.668h11.872v-32.795h14.653l11.859 32.795h12.567l-12.567-34.54c4.539-2.099 8.028-5.588 10.128-9.773a21.22 21.22 0 0 0 1.744-13.958c-.695-4.184-3.148-8.723-7.333-11.872-3.83-3.135-8.724-4.525-13.263-4.525M316.57 333.305c1.745 5.588 5.235 10.468 10.47 13.603 4.879 3.148 10.808 4.198 16.397 3.49 5.93-1.037 11.164-3.83 15.007-8.016 3.83-4.538 5.93-10.127 5.93-15.702v-15.007h-26.171v11.518H352.5v3.49c0 5.928-4.525 11.163-10.809 12.212-5.93.695-11.872-2.794-13.617-8.724-3.83-12.213-3.83-24.78 0-36.993 1.404-5.234 6.284-8.723 11.873-8.723 2.44 0 4.88.695 7.32 2.099 2.098 1.744 3.843 3.83 4.538 6.27l11.164-3.83c-3.135-9.774-12.554-16.398-23.377-16.398-10.468.34-19.887 7.32-23.022 17.093-4.199 14.312-4.199 29.66 0 43.618M380.772 349.007v-74.668h12.213v74.668M410.787 349.007v-74.668h11.858l27.221 48.497V274.34h11.859v74.668h-11.859l-27.22-48.498v48.498zM481.271 333.305c1.745 5.588 5.575 10.468 10.469 13.603 4.88 3.148 10.809 4.198 16.398 3.49 5.929-1.037 11.163-3.83 15.007-8.016 3.83-4.538 5.93-10.127 5.93-15.702v-15.007h-25.817v11.518h13.958v3.49c0 5.928-4.54 11.163-10.469 12.212-6.284.695-12.213-2.794-13.958-8.724-3.49-12.213-3.49-24.78 0-36.993 1.39-5.234 6.27-8.723 11.86-8.723 2.439 0 5.233.695 7.332 2.099 2.44 1.744 3.83 3.83 4.526 6.27l11.518-3.83c-3.49-9.774-12.909-16.398-23.731-16.398-10.469.34-19.888 7.32-23.023 17.093-4.184 14.312-4.184 29.66 0 43.618M296.33 236.65v-37.334h-12.91v-7.688h33.846v7.688h-12.908v37.334M331.224 213.969h-7.674c0 2.085 0 4.184.695 6.284.34 1.744.695 3.83 1.39 5.929 2.795 6.624 9.42 11.163 16.752 11.163 7.334 0 13.958-4.539 16.753-11.163 2.794-8.029 2.794-16.398 0-24.085-2.795-6.98-9.42-11.505-16.753-11.505s-13.957 4.526-16.752 11.505c-.695 1.744-1.05 3.843-1.39 5.943-.695 2.085-.695 3.83-.695 5.929zc0-3.149.695-6.284 1.745-9.078 1.39-3.83 5.234-6.625 9.418-6.625 4.185 0 8.029 2.795 9.42 6.625 2.098 5.93 2.098 12.567 0 18.497-1.391 3.843-5.235 6.283-9.42 6.283s-8.028-2.44-9.418-6.283c-1.05-3.135-1.745-6.284-1.745-9.42" style="stroke-width:3.48945"/>
  <path fill-rule="evenodd" d="M11.582 75.441v569.472c0 7.32 1.404 15.348 4.54 23.376 3.134 7.674 7.674 15.348 13.957 21.632s13.604 10.823 21.632 13.958c8.029 3.149 16.057 4.539 23.377 4.539h494.47c7.674 0 15.702-1.39 23.377-4.54 8.028-3.134 15.348-7.673 21.632-13.957 6.283-6.284 11.163-13.958 14.312-21.632 3.135-8.028 4.525-16.056 4.525-23.376V75.441c0-7.333-1.39-15.361-4.525-23.39-3.149-8.014-8.029-15.348-14.312-21.631-6.284-6.284-13.604-11.164-21.632-14.299-7.675-2.794-15.703-4.198-23.377-4.198H75.088c-7.32 0-15.348 1.404-23.377 4.198-8.028 3.135-15.348 8.015-21.632 14.299-6.283 6.283-10.823 13.617-13.958 21.631-3.135 8.029-4.539 16.057-4.539 23.39m557.976-41.178c4.88 0 10.114 1.05 15.348 2.795 4.88 2.085 9.773 5.234 13.958 9.418 3.844 3.83 6.979 8.724 9.078 13.958 2.086 4.88 2.78 10.114 2.78 15.007v569.472c0 4.88-.694 9.773-2.78 15.007-2.1 5.234-5.234 9.76-9.078 13.958-4.185 4.185-9.078 7.32-13.958 9.064-5.234 2.1-10.468 3.149-15.348 3.149H75.088c-4.88 0-9.76-1.05-14.994-3.149a33.4 33.4 0 0 1-13.958-9.064c-4.198-4.198-7.333-8.724-9.078-13.958-2.099-5.234-3.135-10.127-3.135-15.007V75.441c0-4.893 1.036-10.127 3.135-15.007a33.3 33.3 0 0 1 9.078-13.958c3.83-4.184 8.724-7.333 13.958-9.418 5.234-1.745 10.114-2.795 14.994-2.795z" style="stroke-width:3.48945"/>
  <path fill="none" stroke="#000" stroke-linejoin="bevel" stroke-miterlimit="1.414" stroke-width=".837" d="M.419 75.441c0-19.9 7.674-38.738 21.986-53.05C36.363 8.434 55.201.42 75.088.42M75.088.419h494.47M569.558.419c19.887 0 39.08 8.015 53.037 21.972 13.958 14.312 21.986 33.15 21.986 53.05M644.582 75.441v569.472M644.582 644.913c0 19.887-8.029 38.724-21.987 52.682-13.958 14.312-33.15 21.986-53.037 21.986M569.558 719.581H75.088M75.088 719.581c-19.887 0-38.725-7.674-52.683-21.986C8.093 683.637.42 664.8.42 644.913M.419 644.913V75.441"/>
</svg>
