<svg xmlns="http://www.w3.org/2000/svg" xml:space="preserve" viewBox="0 -.321 608.8 608.8" role="img" aria-labelledby="title">
  <title id="title">Verkehrszeichen R6-15 - No Pedestrians</title>
  <path d="M608.4 544.079c0 35.342-28.658 64-64 64h-480c-35.356 0-64-28.658-64-64v-480c0-35.342 28.644-64 64-64h480c35.342 0 64 28.658 64 64z" style="fill:#000;fill-opacity:1;fill-rule:nonzero;stroke:none;stroke-width:4.00000095;stroke-miterlimit:4;stroke-dasharray:none;stroke-opacity:1"/>
  <path d="M604.4 544.079c0 33.133-26.867 60-60 60h-480c-33.147 0-60-26.867-60-60v-480c0-33.133 26.853-60 60-60h480c33.133 0 60 26.867 60 60z" style="fill:#fff;fill-opacity:1;fill-rule:nonzero;stroke:none;stroke-width:4.00000095;stroke-miterlimit:4;stroke-dasharray:none;stroke-opacity:1"/>
  <circle cx="304.4" cy="304.079" r="294" style="fill:#c0111e;fill-opacity:1;stroke:none;stroke-width:25;stroke-linejoin:miter;stroke-miterlimit:4;stroke-dasharray:none;stroke-dashoffset:0;stroke-opacity:1"/>
  <circle cx="304.4" cy="304.079" r="244" style="fill:#fff;fill-opacity:1;stroke:none;stroke-width:25;stroke-linejoin:miter;stroke-miterlimit:4;stroke-dasharray:none;stroke-dashoffset:0;stroke-opacity:1"/>
  <path d="m344.142 255.417 1.31 13.892 3.93-7.136zm-65.693-86.796c-18.846-.854-34.509-16.662-34.509-35.786 0-19.664 16.563-36.636 36.114-36.636 19.547 0 36.11 16.972 36.11 36.636 0 8.707-3.25 16.729-8.57 22.966l.072.321c1.309.374 5.052 3.754 5.987 4.879 2.804 2.628 2.804 2.628 6.36 4.505q7.298 3.662 14.594 7.32c2.385 1.136 2.808 1.99 3.574 3.358l44.69 79.798-30.868 58.56v.191c0 3.002 1.686 8.633 2.06 12.012.187 1.877.935 4.131 1.122 6.008.186 1.877.56 4.314.934 6.191 1.122 4.318.375 21.964.375 27.972v42.42c0 2.812-.375 4.315.748 6.383.748 1.686 1.495 3.189 2.43 4.692 3.743 7.693 38.728 73.204 38.728 74.516v.565c0 2.628-3.93 3.94-5.8 5.069-2.243 1.312-4.678 2.438-6.921 3.94-1.496.752-13.473 7.511-14.217 7.511h-.939c-2.43 0-4.117-4.508-5.238-6.195-1.496-2.44-2.805-4.695-4.3-7.133-2.809-5.069-5.613-9.574-8.418-14.643-5.613-9.762-11.225-19.332-17.212-28.903-2.808-4.883-5.426-9.762-8.42-14.644-1.496-2.441-2.805-4.692-4.3-7.133-1.313-2.25-2.435-5.63-3.37-8.258-1.87-5.818-4.117-11.261-5.986-17.082-1.122-2.815-2.057-5.63-3.179-8.258-.748-2.25-2.434-6.569-2.995-8.636-.374.19-9.352 23.84-9.352 25.343-.19 2.438-.56 5.63-.56 8.072l-5.053 81.836c-.186 1.69.188 2.629-.374 3.944-.374.749-1.495 1.877-2.62 1.877h-28.06c-1.31 0-2.992-1.69-2.992-3.006V408.021l19.452-82.778-10.848-50.115h-.374l-2.62 5.817c-1.497 3.005-1.87 2.44-5.053 3.566-4.3 1.503-8.604 2.815-12.908 4.318-3.552 1.126-24.133 8.446-26.003 8.446-3.178 0-3.926-5.444-4.86-7.881-1.126-3.38-2.061-6.382-3.183-9.762-1.683-4.882-2.434-5.82 2.244-8.071l30.494-14.453 17.024-66.823c.749-2.815.561-2.254 2.244-4.13 1.309-1.126 2.06-2.065 3.37-3.19 2.243-1.877 4.486-4.318 6.547-6.382 1.495-1.315 1.87-1.502 2.804-3.566.537-.9 1.757-3.51 2.029-4.396z" style="fill:#000;fill-opacity:1;fill-rule:evenodd;stroke:none;stroke-width:.21600001;stroke-linecap:butt;stroke-linejoin:miter;stroke-miterlimit:22.9260006;stroke-dasharray:none;stroke-opacity:1"/>
  <path d="M-25.227 138.26h50v584h-50z" style="fill:#c0111e;fill-opacity:1;stroke:none;stroke-width:25;stroke-linejoin:miter;stroke-miterlimit:4;stroke-dasharray:none;stroke-dashoffset:0;stroke-opacity:1" transform="rotate(135)scale(1 -1)"/>
</svg>
