<svg xmlns="http://www.w3.org/2000/svg" viewBox="0 0 314.999 314.999" role="img" aria-labelledby="title">
  <title id="title">Verkehrszeichen R6-31 - Give Way to Buses (Attached to a bus)</title>
  <path d="M22.63 0h269.738c12.45 0 22.63 10.185 22.63 22.63v269.738c0 12.45-10.18 22.63-22.63 22.63H22.631C10.18 314.999 0 304.819 0 292.369V22.631C0 10.185 10.181 0 22.63 0" style="fill:#006330;fill-opacity:1;fill-rule:evenodd;stroke:none"/>
  <path d="M291.832 7.112c10.058 1.143 14.859 5.944 16.002 16.002v268.824c-1.143 9.828-6.174 14.859-16.002 16.002H23.008c-9.828-1.143-14.859-6.174-16.002-16.002V23.114C8.15 13.056 12.95 8.255 23.008 7.112z" style="fill:#fff;fill-opacity:1;fill-rule:evenodd;stroke:none"/>
  <path d="M144.83 272.34v-111c0-2.826-3.673-5.93-5.649-5.93H25.636c-1.979 0-5.648 3.81-5.648 5.93v111zM69.697 165.718h25.42v-6.497h-25.42zm-41.204 77.675h3.813v9.461h-3.813zm109.414-16.665v-52.818c0-1.415-2.399-2.826-3.105-2.826H30.014c-1.129 0-3.108 1.693-3.108 2.826v52.818z" style="fill:#006330;fill-opacity:1;fill-rule:evenodd;stroke:none"/>
  <path d="M32.008 223.968h12.286v-14.546H32.008z" style="fill:#006330;fill-opacity:1;fill-rule:nonzero;stroke:none"/>
  <path d="M38.153 206.985c-3.5 0-6.357-2.854-6.357-6.353 0-3.503 2.857-6.357 6.357-6.357s6.353 2.854 6.353 6.357c0 3.5-2.854 6.353-6.353 6.353" style="fill:#006330;fill-opacity:1;fill-rule:evenodd;stroke:none"/>
  <path d="M49.791 223.968h12.287v-14.546H49.791z" style="fill:#006330;fill-opacity:1;fill-rule:nonzero;stroke:none"/>
  <path d="M55.933 206.985c-3.5 0-6.357-2.854-6.357-6.353 0-3.503 2.857-6.357 6.357-6.357s6.353 2.854 6.353 6.357c0 3.5-2.854 6.353-6.353 6.353" style="fill:#006330;fill-opacity:1;fill-rule:evenodd;stroke:none"/>
  <path d="M68.69 223.968h12.286v-14.546H68.69z" style="fill:#006330;fill-opacity:1;fill-rule:nonzero;stroke:none"/>
  <path d="M74.934 206.985c-3.5 0-6.354-2.854-6.354-6.353 0-3.503 2.854-6.357 6.354-6.357s6.357 2.854 6.357 6.357c0 3.5-2.858 6.353-6.357 6.353" style="fill:#006330;fill-opacity:1;fill-rule:evenodd;stroke:none"/>
  <path d="M86.17 223.968h12.286v-14.546H86.17z" style="fill:#006330;fill-opacity:1;fill-rule:nonzero;stroke:none"/>
  <path d="M92.414 206.985c-3.5 0-6.354-2.854-6.354-6.353 0-3.503 2.854-6.357 6.354-6.357s6.357 2.854 6.357 6.357c0 3.5-2.858 6.353-6.357 6.353" style="fill:#006330;fill-opacity:1;fill-rule:evenodd;stroke:none"/>
  <path d="M103.138 223.968h12.286v-14.546h-12.286z" style="fill:#006330;fill-opacity:1;fill-rule:nonzero;stroke:none"/>
  <path d="M109.382 206.985c-3.5 0-6.353-2.854-6.353-6.353 0-3.503 2.854-6.357 6.353-6.357 3.5 0 6.354 2.854 6.354 6.357 0 3.5-2.854 6.353-6.354 6.353" style="fill:#006330;fill-opacity:1;fill-rule:evenodd;stroke:none"/>
  <path d="M120.615 223.968h12.287v-14.546h-12.287z" style="fill:#006330;fill-opacity:1;fill-rule:nonzero;stroke:none"/>
  <path d="M126.859 206.985c-3.5 0-6.354-2.854-6.354-6.353 0-3.503 2.854-6.357 6.354-6.357s6.357 2.854 6.357 6.357c0 3.5-2.858 6.353-6.357 6.353" style="fill:#006330;fill-opacity:1;fill-rule:evenodd;stroke:none"/>
  <path d="M131.498 252.26h3.813V242.8h-3.813z" style="fill:#fee011;fill-opacity:1;fill-rule:nonzero;stroke:none"/>
  <path d="M133.52 262.16c-8.231 0-14.86-6.629-14.86-14.63 0-8.23 6.629-14.63 14.86-14.63 8 0 14.629 6.4 14.629 14.63 0 8.001-6.629 14.63-14.63 14.63m0-3.43c-6.17 0-11.201-4.8-11.201-11.2 0-6.174 5.03-11.2 11.2-11.2 5.945 0 10.972 5.026 10.972 11.2 0 6.4-5.027 11.2-10.972 11.2" style="fill:#fee011;fill-opacity:1;fill-rule:evenodd;stroke:none"/>
  <path d="M26.522 298.097h11.982v-21H26.522zM112.586 298.097h11.982v-21h-11.982zM40.442 298.097h11.983v-21H40.442zM126.506 298.097h11.983v-21h-11.983z" style="fill:#006330;fill-opacity:1;fill-rule:nonzero;stroke:none"/>
  <path d="M49.078 143.68h58.466c-3.672-21.467 137.552-14.546 138.12-95.61h20.334l-42.083-31.634-46.04 34.318h19.772C189.315 99.9 68.707 78.856 49.078 143.68" style="fill:#006330;fill-opacity:1;fill-rule:evenodd;stroke:none"/>
  <path d="M188.479 141.309c-1.366-2.73-3.33-4.696-6.858-4.696-5.564 0-7.694 6.06-7.694 10.054 0 7.959 2.43 12.99 7.725 12.99 2.964 0 7.126-2.3 7.126-5.761h-5.595V148h11.557v5.994c0 2.896-3.697 11.327-13.12 11.327-9.856 0-13.42-8.731-13.42-18.588 0-8.854 5.56-16.016 13.42-16.016 5.162 0 10.39 3.563 12.186 8.492z" style="fill:#c0111e;fill-opacity:1;fill-rule:evenodd;stroke:none"/>
  <path d="M204.893 164.684h5.728v-33.299h-5.728z" style="fill:#c0111e;fill-opacity:1;fill-rule:nonzero;stroke:none"/>
  <path d="m232.167 164.684-11.988-33.299h6.093l9.059 24.874 9.024-24.874h5.994l-11.889 33.299zM259.937 131.385h23.876v5.793h-18.115v6.628h9.79v5.793h-9.79v9.292h18.715v5.793h-24.476zM169.213 174.265h5.86l3.764 20.08 4.928-20.08h5.659l5.263 20.278 3.63-20.278h5.761l-5.93 33.299h-6.258l-5.161-20.878-5.26 20.878h-6.096zM224.257 174.265h5.56l13.988 33.299h-6.262l-3.196-7.758h-14.454l-3.263 7.758h-6.124zm-2.099 19.812h9.79l-4.861-11.821zM250.063 174.265h7.027l9.723 13.85 9.557-13.85h7.023l-13.72 20.08v13.219h-5.792v-13.219zM200.074 281.365h11.863v14.83h-11.863zm71.84 0h11.863v14.83h-11.863zm17.798-2.893v-28.67l-14.545-25.845c-.847-1.693-3.25-3.53-4.66-3.53H213.17c-1.415 0-4.096 2.402-4.66 3.53l-14.55 25.845v28.67zm-11.014-27.965c2.822 0 4.942-1.128 4.096-3.107l-10.17-20.617c-.283-.846-3.532-2.826-4.52-2.826h-52.536c-.846 0-4.378 2.403-4.519 2.826L200.882 247.4c-.705 1.555 1.13 3.107 4.096 3.107zm-76.084 12.365h6.78v9.322h-6.78zm71.84 0h6.779v9.322h-6.779z" style="fill:#c0111e;fill-opacity:1;fill-rule:evenodd;stroke:none"/>
</svg>
