<svg xmlns="http://www.w3.org/2000/svg" viewBox="0 0 192.375 96.781" role="img" aria-labelledby="title">
  <title id="title">Verkehrszeichen R5-36 - No Stopping at times</title>
  <path d="M9.003.589h174.37c4.63 0 8.418 3.788 8.418 8.416v78.77c0 4.629-3.788 8.415-8.418 8.415H9.003c-4.63 0-8.416-3.786-8.416-8.416V9.004C.587 4.378 4.373.59 9.003.59z" style="fill:#fff;fill-opacity:1;fill-rule:evenodd;stroke:#000;stroke-width:1.20000005;stroke-miterlimit:4;stroke-opacity:1;stroke-dasharray:none"/>
  <path d="M117.337 55.816h1.419l2.512 5.081 2.441-5.081h1.505v8.542h-1.462v-5.152l-2.484 5.152-2.47-5.084v5.084h-1.46zM130.414 63.043c1.384 0 2.085-1.333 2.085-2.956 0-1.631-.734-2.964-2.085-2.964s-2.085 1.333-2.085 2.964c0 1.623.702 2.956 2.085 2.956m0 1.479c-2.357 0-3.536-1.992-3.536-4.435s1.239-4.441 3.536-4.441c2.298 0 3.537 2 3.537 4.44 0 2.444-1.179 4.436-3.537 4.436M135.625 55.816h1.4l3.921 5.646v-5.646h1.487v8.542H141.1l-3.998-5.8v5.8h-1.477z" style="fill:#c0111e;fill-opacity:1;fill-rule:evenodd;stroke:none"/>
  <path d="M147.874 61.872h6.286v-1.444h-6.286z" style="fill:#c0111e;fill-opacity:1;fill-rule:nonzero;stroke:none"/>
  <path d="M159.312 55.816h6.278v1.486h-4.834v1.853h2.665v1.462h-2.665v3.741h-1.444zM167.118 55.816h4.11a2.56 2.56 0 0 1 2.587 2.544c0 .871-.563 1.992-1.479 2.383l1.59 3.615h-1.59l-1.52-3.34h-2.237v3.34h-1.461zm1.461 1.46v2.289h2.648c.589 0 1.109-.538 1.109-1.136 0-.402-.331-1.152-1.109-1.152z" style="fill:#c0111e;fill-opacity:1;fill-rule:evenodd;stroke:none"/>
  <path d="M175.592 64.358h1.47v-8.542h-1.47z" style="fill:#c0111e;fill-opacity:1;fill-rule:nonzero;stroke:none"/>
  <path d="m126.866 35.451-8.044 8.449h8.044zm.064-5.107h3.555V43.9h3.127v3.426h-3.127v4.298h-3.619v-4.298h-12.874v-3.278zM154.481 39.792c1.086-.382 2.937-.787 4.086-.787 3.915 0 8.533 1.894 8.533 6.534 0 4.618-4.682 6.492-8.533 6.492-4.491 0-8.427-2.556-8.427-7.535 0-8.747 5.725-14.152 13.747-14.152v3.788a7 7 0 0 0-.957-.065c-3.49 0-7.194 2.512-8.449 5.725m4.277 8.47c2.49 0 4.597-.469 4.618-2.723 0-2.214-2.127-2.767-4.618-2.767-2.574 0-4.532.682-4.554 2.767 0 1.999 1.98 2.724 4.554 2.724M168.698 45.182h3.125c.986 0 2.017.852 2.017 1.855 0 1.052-.78 2.07-1.863 2.07h-2.15v2.52h-1.129zm1.07 1.123v1.706h2.056c.522 0 .888-.296.888-.857 0-.547-.464-.85-.927-.85zM175.091 45.182h1.07l1.894 3.835 1.843-3.835h1.134v6.444h-1.1v-3.885l-1.877 3.885-1.86-3.835v3.835h-1.104z" style="fill:#c0111e;fill-opacity:1;fill-rule:evenodd;stroke:none"/>
  <path d="M135.572 45.239h12.981v-3.192h-12.98z" style="fill:#c0111e;fill-opacity:1;fill-rule:nonzero;stroke:none"/>
  <path d="m0 0 2.845 2.077C4.361.457 5.877-.519 8.223-.519c1.308 0 4.672.477 4.672 2.782 0 2.285-3.156 2.285-4.672 2.804C4.672 6.23.893 6.936.893 11.546c0 3.966 3.883 5.897 7.289 5.897 2.471 0 5.627-1.308 7.309-3.239l-2.596-2.451c-1.516 1.537-2.678 2.015-4.713 2.015-1.246 0-3.738-.665-3.78-2.222 0-2.119 2.347-2.243 4.839-2.991 2.865-.851 7.309-1.619 7.309-6.084 0-4.547-4.735-6.607-8.534-6.607C5.503-4.136 1.204-2.263 0 0" style="fill:#000;fill-opacity:1;fill-rule:evenodd;stroke:none" transform="matrix(1.94857 0 0 -1.94857 35.556 51.87)"/>
  <path d="M0 0c7.909 2.879 12.032 11.628 9.153 19.537S-2.526 31.55-10.435 28.672c-7.701-2.803-11.753-11.585-8.875-19.495C-16.431 1.268-7.701-2.803 0 0m1.36 25.245L-9.056 2.538c2.688-.907 5.649-.949 8.147-.04 6.556 2.386 9.932 9.625 7.546 16.182-.985 2.706-2.906 5.071-5.277 6.565m-2.342 1.092L-11.45 3.611a12.7 12.7 0 0 0-5.381 6.527c-2.367 6.505 1.009 13.744 7.305 16.036a13.2 13.2 0 0 0 8.544.163" style="fill:#c0111e;fill-opacity:1;fill-rule:evenodd;stroke:none" transform="matrix(1.94857 0 0 -1.94857 61.294 67)"/>
  <path d="m0 0 4.351 3.48h4.785L6.417 1.305h20.772v-2.61H6.417L9.136-3.48H4.351z" style="fill:#c0111e;fill-opacity:1;fill-rule:evenodd;stroke:none" transform="matrix(1.94857 0 0 -1.94857 21.853 83.98)"/>
</svg>
