<svg xmlns="http://www.w3.org/2000/svg" viewBox="0 0 504.125 704.344" role="img" aria-labelledby="title">
  <title id="title">Verkehrszeichen R5-71 - No Stopping Area</title>
  <path d="M35.113 1.688h433.91c18.372 0 33.405 15.033 33.405 33.405v634.163c0 18.372-15.033 33.405-33.405 33.405H35.113c-18.372 0-33.405-15.033-33.405-33.405V35.093c0-18.372 15.033-33.405 33.405-33.405z" style="fill:#fff;fill-opacity:1;fill-rule:evenodd;stroke:#000;stroke-width:3.38666709;stroke-linecap:butt;stroke-linejoin:miter;stroke-miterlimit:2.61299992;stroke-opacity:1;stroke-dasharray:none"/>
  <path d="M468.853 6.945c16.448.848 27.47 11.87 28.319 28.318v633.824c-.85 16.447-11.87 27.47-28.319 28.318H35.283c-16.448-.849-27.47-11.87-28.319-28.318V35.263c.849-16.448 11.87-27.47 28.318-28.318z" style="fill:#000;fill-opacity:1;fill-rule:evenodd;stroke:none"/>
  <path d="M470.374 17.797c10.173 2.207 15.26 6.954 16.109 17.975v632.805c-.85 11.022-7.124 17.297-18.146 18.146H35.785c-11.022-.85-17.297-7.124-18.146-18.146V35.772c.849-11.191 6.954-17.296 18.146-18.145h432.552z" style="fill:#fff;fill-opacity:1;fill-rule:evenodd;stroke:none"/>
  <path d="M48.993 628.99h19.383v5.645H54.482v10.052h8.532v5.49h-8.532v13.222H69.02v5.645H48.993zM82.192 648.536l-7.888-19.547h6.007l5.128 11.935 4.967-11.935h6.289l-8.171 19.547 8.61 20.508h-6.29l-5.405-13.257-5.687 13.257h-6.134zM117.96 658.39h5.568c0 7.166-4.203 11.425-10.251 11.425-10.86 0-11.659-13.03-11.659-21.598 0-8.248 1.401-20.027 11.574-20.027 5.928 0 10.293 4.202 10.293 10.491h-5.525c0-2.158-2.122-4.76-4.768-4.76-5.525 0-6.006 10.207-6.006 14.296 0 4.486 0 16.024 6.169 16.024 2.56 0 4.605-2.363 4.605-5.85M130.177 628.99h19.384v5.645h-13.894v10.052h8.532v5.49h-8.532v13.222h14.538v5.645h-20.028zM156.855 628.99h11.778c6.247 0 10.13 4.485 10.13 11.453 0 7.293-4.803 11.418-10.13 11.418h-6.21v17.183h-5.568zm5.567 5.61v11.332h7.01c2.406 0 3.764-2.645 3.764-5.85 0-2.483-1.683-5.483-3.961-5.483zM182.853 628.99h20.027v5.284h-7.01v34.77h-5.886v-34.77h-7.131zM239.002 652.384h5.567l-2.766-10.774zm-9.494 16.66 9.494-40.055h5.567l9.975 40.055h-5.652l-2.88-11.135h-8.093l-2.646 11.135zM258.994 657.393h5.645c.043 4.605 1.486 6.805 5.327 6.926 3.205 0 5.171-2.682 5.171-5.964 0-.884-.162-1.847-.445-2.766-1.677-5.447-5.724-6.169-9.41-8.85-2.68-1.882-4.329-5.285-4.329-8.893 0-5.525 5.051-9.656 10.258-9.656 5.525 0 9.692 4.372 9.692 10.137h-5.525c0-1.96-2.207-4.605-4.167-4.605-2.122 0-4.605 1.804-4.605 4.202 0 1.726.558 3.608 2.723 4.648 5.766 2.886 11.454 7.81 11.454 15.783 0 7.13-4.889 11.46-10.817 11.46-5.964 0-10.972-4.089-10.972-12.422M307.736 657.393h5.645c.043 4.605 1.486 6.805 5.327 6.926 3.205 0 5.171-2.682 5.171-5.964 0-.884-.162-1.847-.445-2.766-1.677-5.447-5.723-6.169-9.41-8.85-2.68-1.882-4.329-5.285-4.329-8.893 0-5.525 5.051-9.656 10.258-9.656 5.525 0 9.692 4.372 9.692 10.137h-5.525c0-1.96-2.207-4.605-4.167-4.605-2.122 0-4.605 1.804-4.605 4.202 0 1.726.559 3.608 2.723 4.648 5.766 2.886 11.454 7.81 11.454 15.783 0 7.13-4.889 11.46-10.817 11.46-5.964 0-10.972-4.089-10.972-12.422" style="fill:#000;fill-opacity:1;fill-rule:evenodd;stroke:none"/>
  <path d="M335.771 669.044h5.608V628.99h-5.608z" style="fill:#000;fill-opacity:1;fill-rule:nonzero;stroke:none"/>
  <path d="M363.934 638.568c0-2.964-1.882-4.648-4.768-4.648-5.405 0-5.645 9.416-5.645 14.262v2.44c0 4.57.198 13.661 5.645 13.661 2.243 0 5.051-2.087 5.051-4.407v-4.528h-4.81v-5.765h10.215v7.93c0 1.684-.36 5.327-1.083 6.848-1.358 2.886-4.725 5.454-9.373 5.454-10.01 0-11.375-12.585-11.375-20.232 0-8.695 1.082-21.386 11.375-21.386 5.652 0 10.534 4.52 10.534 10.371zM376.35 628.99h5.49l10.61 23.154v-23.155h5.809v40.055h-4.528l-11.892-26.316v26.316h-5.49zM406.55 628.99h19.383v5.645H412.04v10.052h8.532v5.49h-8.532v13.222h14.538v5.645H406.55zM442.275 628.99c10.371 0 12.854 8.453 12.854 18.944 0 12.218-1.917 21.11-12.854 21.11h-9.055V628.99zm-.198 5.524h-3.325V663.4h3.841c6.452 0 6.813-6.735 6.813-13.06v-2.284c0-7.046-.559-13.54-7.329-13.54" style="fill:#000;fill-opacity:1;fill-rule:evenodd;stroke:none"/>
  <path d="M104.291 36.47H399.84v103.176H104.29z" style="fill:none;stroke:#000;stroke-width:1.1884855;stroke-linecap:butt;stroke-linejoin:miter;stroke-miterlimit:2.61299992;stroke-opacity:1;stroke-dasharray:11.87212131,5.93606066;stroke-dashoffset:0"/>
  <path d="m193.457 313.1 20.523-14.976c10.937 11.68 21.866 18.718 38.795 18.718 9.437 0 33.702-3.445 33.702-20.07 0-16.476-22.772-16.476-33.702-20.218-25.616-8.39-52.88-13.484-52.88-46.733 0-28.616 28.014-42.545 52.576-42.545 17.827 0 40.593 9.437 52.732 23.366l-18.726 17.68c-10.937-11.086-19.327-14.532-34.006-14.532-8.984 0-26.96 4.79-27.257 16.031 0 15.273 16.922 16.172 34.897 21.562 20.672 6.148 52.725 11.687 52.725 43.89 0 32.803-34.147 47.66-61.56 47.66-18.125 0-49.132-13.506-57.819-29.833" style="fill:#000;fill-opacity:1;fill-rule:evenodd;stroke:none"/>
  <path d="M288.734 369.107c57.054-20.763 86.788-83.873 66.025-140.927-20.763-57.048-84.248-86.647-141.296-65.883-55.547 20.218-84.778 83.561-64.015 140.609 20.77 57.054 83.739 86.42 139.286 66.201m9.812-182.1L223.41 350.799c19.39 6.55 40.755 6.848 58.766.29 47.292-17.212 71.642-69.428 54.43-116.726-7.103-19.519-20.961-36.575-38.06-47.356m-16.893-7.874L206.14 343.06c-16.822-10.032-31.296-26.444-38.81-47.087-17.077-46.917 7.273-99.133 52.69-115.665 20.643-7.513 42.382-7.35 61.632-1.175" style="fill:#c0111e;fill-opacity:1;fill-rule:evenodd;stroke:none"/>
  <path d="M177.37 393.91h7.131l17.94 42.707h-8.029l-4.103-9.953h-18.535l-4.18 9.953h-7.86zm-2.688 25.41h12.557l-6.24-15.16zM214.744 393.91h20.544c7.64 0 12.939 6.147 12.939 12.726 0 4.358-2.823 9.947-7.393 11.914l7.944 18.067h-7.944l-7.598-16.702h-11.192v16.702h-7.3zm7.3 7.3v11.447h13.244c2.943 0 5.546-2.689 5.546-5.68 0-2.01-1.663-5.767-5.546-5.767zM261.293 393.91h30.617v7.428h-23.232v8.503h12.557v7.428h-12.557v11.913h24.004v7.435h-31.39zM319.323 393.91h7.131l17.94 42.707h-8.029l-4.103-9.953h-18.534l-4.181 9.953h-7.86zm-2.688 25.41h12.557l-6.24-15.16z" style="fill:#000;fill-opacity:1;fill-rule:evenodd;stroke:none"/>
  <path d="M220.94 489.392h53.413v-6.606h-53.412z" style="fill:#000;fill-opacity:1;fill-rule:nonzero;stroke:none"/>
  <path d="M157.378 501.347h2.674l6.728 16.017h-3.014l-1.535-3.735h-6.947l-1.57 3.735h-2.95zm-1.011 9.53h4.711l-2.335-5.688zM169.857 501.347h2.66l4.705 9.53 4.584-9.53h2.815v16.017h-2.737v-9.657l-4.662 9.657-4.627-9.53v9.53h-2.738zM117.981 517.357c0-14.595 4.81-32.769 14.276-43.996h-30.37v-9.465h42.609v9.09c-10.746 11.652-17.318 26.833-17.318 43.033v1.338zM330.621 490.771v-30.08h-4.966v-5.808c2.526-.318 5.044-1.924 6.211-4.167h5.688v40.055zM349.283 456.249c4.09-3.806 10.491-6.332 15.981-6.332 7.69 0 15.74 3.926 15.74 12.5 0 6.29-5.885 10.294-9.45 10.895-8.37 1.358-12.657 6.728-13.577 10.335h23.225v7.124h-31.756c0-10.052 5.964-18.902 14.736-22.588 4.81-2.08 9.974-1.203 9.974-6.367 0-2.44-4.046-4.924-8.248-4.924-3.728 0-9.133 1.238-12.02 4.563zM323.15 501.043h2.625l7.35 10.583v-10.583h2.788v16.016h-2.498l-7.491-10.873v10.873h-2.773zM345.661 514.59c2.596 0 3.905-2.497 3.905-5.539 0-3.063-1.372-5.56-3.905-5.56s-3.905 2.497-3.905 5.56c0 3.042 1.309 5.54 3.905 5.54m0 2.774c-4.421 0-6.629-3.735-6.629-8.313 0-4.584 2.32-8.326 6.63-8.326 4.307 0 6.628 3.742 6.628 8.326 0 4.578-2.207 8.313-6.629 8.313M361.182 514.59c2.596 0 3.905-2.497 3.905-5.539 0-3.063-1.372-5.56-3.905-5.56s-3.905 2.497-3.905 5.56c0 3.042 1.309 5.54 3.905 5.54m0 2.774c-4.421 0-6.628-3.735-6.628-8.313 0-4.584 2.32-8.326 6.628-8.326s6.629 3.742 6.629 8.326c0 4.578-2.207 8.313-6.629 8.313M370.952 501.043h2.624l7.35 10.583v-10.583h2.788v16.016h-2.497l-7.492-10.873v10.873h-2.773z" style="fill:#000;fill-opacity:1;fill-rule:evenodd;stroke:none"/>
  <path d="M220.94 571.15h53.413v-6.607h-53.412z" style="fill:#000;fill-opacity:1;fill-rule:nonzero;stroke:none"/>
  <path d="M364.981 583.105h7.768c2.447 0 5.008 2.116 5.008 4.613 0 2.61-1.931 5.143-4.626 5.143h-5.348v6.26h-2.802zm2.66 2.788v4.244h5.108c1.294 0 2.207-.736 2.207-2.13 0-1.364-1.153-2.114-2.306-2.114zM380.863 583.105h2.66l4.704 9.53 4.584-9.53h2.816v16.017h-2.738v-9.657l-4.662 9.657-4.626-9.53v9.53h-2.738zM319.09 600.14v-9.26c11.064 0 18.23-3.686 23.84-14.488-3.367 1.931-10.583 1.98-12.776 1.98-10.265 0-18.924-6.147-18.924-16.836 0-9.515 9.784-15.882 20.473-15.882 12.246 0 21.973 5.454 21.973 19.999 0 12.882-3.049 17.375-7.534 22.878-6.416 7.754-15.026 11.61-27.052 11.61m12.939-31.07c6.303 0 11.545-1.818 11.545-7.053 0-5.405-5.242-7.167-11.545-7.167-6.523 0-11.659 2.3-11.659 7.167 0 4.916 5.136 7.053 11.659 7.053M120.443 572.53v-30.08h-4.966v-5.809c2.525-.318 5.044-1.924 6.211-4.166h5.68v40.054zM139.105 538.007c4.09-3.807 10.491-6.332 15.981-6.332 7.69 0 15.74 3.926 15.74 12.5 0 6.29-5.885 10.293-9.45 10.895-8.37 1.358-12.657 6.727-13.576 10.335h23.225v7.124h-31.757c0-10.052 5.964-18.902 14.736-22.588 4.81-2.08 9.974-1.203 9.974-6.367 0-2.44-4.046-4.924-8.248-4.924-3.728 0-9.133 1.238-12.02 4.563zM112.973 582.801h2.624l7.35 10.583v-10.583h2.788v16.016h-2.497l-7.492-10.873v10.873h-2.773zM135.483 596.356c2.596 0 3.905-2.498 3.905-5.54 0-3.063-1.372-5.56-3.905-5.56s-3.905 2.497-3.905 5.56c0 3.042 1.309 5.54 3.905 5.54m0 2.773c-4.421 0-6.629-3.736-6.629-8.313 0-4.584 2.32-8.326 6.63-8.326 4.307 0 6.628 3.742 6.628 8.326 0 4.577-2.207 8.313-6.629 8.313M151.004 596.356c2.596 0 3.905-2.498 3.905-5.54 0-3.063-1.372-5.56-3.905-5.56s-3.905 2.497-3.905 5.56c0 3.042 1.309 5.54 3.905 5.54m0 2.773c-4.421 0-6.628-3.736-6.628-8.313 0-4.584 2.32-8.326 6.628-8.326s6.629 3.742 6.629 8.326c0 4.577-2.207 8.313-6.629 8.313M160.774 582.801h2.624l7.35 10.583v-10.583h2.788v16.016h-2.497l-7.492-10.873v10.873h-2.773z" style="fill:#000;fill-opacity:1;fill-rule:evenodd;stroke:none"/>
</svg>
