<svg xmlns="http://www.w3.org/2000/svg" viewBox="0 0 411.469 547.5" role="img" aria-labelledby="title">
  <title id="title">Verkehrszeichen R6-9 - Stop on Red Signal</title>
  <path d="M37.856 1.41H373.6c20.05 0 36.448 16.396 36.448 36.447V509.65c0 20.084-16.397 36.448-36.448 36.448H37.856c-20.084 0-36.447-16.364-36.447-36.448V37.857c0-20.05 16.363-36.448 36.447-36.448z" style="fill:#fff;fill-opacity:1;fill-rule:evenodd;stroke:#000;stroke-width:2.82222239;stroke-linecap:butt;stroke-linejoin:miter;stroke-miterlimit:11.47399998;stroke-opacity:1;stroke-dasharray:none"/>
  <path d="M373.373 8.583c18.223 1.827 27.674 11.272 29.495 29.496v471.35c-1.821 18.002-11.527 27.674-29.495 29.529H38.078c-18.224-1.855-27.674-11.788-29.529-29.529V38.08C10.404 19.855 19.854 10.41 38.078 8.583z" style="fill:#000;fill-opacity:1;fill-rule:evenodd;stroke:none"/>
  <path d="M379.364 24.02c6.469 3.681 8.517 7.368 9.223 14.764v469.94c-1.15 10.378-5.542 14.764-15.914 15.92H38.783c-10.378-1.156-14.764-5.542-15.92-15.92V38.784c1.156-10.6 5.542-14.764 15.92-15.92h333.89l3.937.45z" style="fill:#fff;fill-opacity:1;fill-rule:evenodd;stroke:none"/>
  <path d="M71.533 442.787H81.91c0 7.84 1.61 11.76 9.912 11.988 7.607.233 10.378-8.068 8.3-15.214-2.764-9.684-10.377-10.145-17.062-15.22-4.609-3.46-7.84-9.223-7.84-15.448 0-10.605 8.995-17.063 18.906-17.063 10.145 0 17.063 7.613 17.063 17.758h-9.683c0-3.46-3.92-8.074-7.38-8.074-3.92 0-8.529 2.998-8.529 7.38 0 2.998 2.305 6.918 4.842 8.528 9.684 5.075 20.75 12.455 20.75 24.67 0 13.144-5.997 22.366-19.367 22.366-12.682 0-20.29-7.146-20.29-21.671" style="fill:#000;fill-opacity:1;fill-rule:evenodd;stroke:none"/>
  <path d="M122.261 464.464h11.298v-72.628h-11.298z" style="fill:#000;fill-opacity:1;fill-rule:nonzero;stroke:none"/>
  <path d="M173.445 410.51c0-5.537-3.687-8.53-8.762-8.53-10.839 0-10.372 20.75-10.372 28.358 0 7.607 0 24.442 11.066 24.442 4.148 0 8.068-3.459 8.068-7.612V439.1h-8.068v-9.917h18.213v13.837c0 12.221-5.997 21.444-18.907 21.444-18.446 0-20.75-21.217-20.75-35.281 0-12.91 2.304-37.347 20.062-37.347 10.372 0 19.595 8.068 19.595 18.673zM195.811 391.836h10.145l19.6 41.96v-41.96h9.912v72.628h-7.607l-21.905-47.497v47.497H195.81zM264.286 434.485h10.378l-5.536-19.828zm-17.524 29.973 17.524-72.628h10.378l17.518 72.628h-10.144l-4.842-19.828H262.67l-4.842 19.828zM303.482 391.836h9.917v62.944h26.513v9.684h-36.43zM84.215 337.17c-17.063 0-20.984-16.369-20.984-36.43 0-19.829 4.615-36.198 20.984-36.198 16.602 0 20.983 16.37 20.983 36.198 0 20.061-3.92 36.43-20.983 36.43m0-9.683c8.762 0 10.838-11.988 10.838-26.747 0-14.526-2.31-26.514-10.838-26.514-8.53 0-10.839 11.988-10.839 26.514 0 14.759 2.077 26.747 10.839 26.747M116.725 264.542h10.145l19.6 41.961v-41.96h9.912v72.627h-7.607l-21.905-47.497v47.497h-10.145zM237.772 302.128l10.839 35.048h-11.072l-9.684-33.666h-8.529v33.666h-10.372v-72.628h23.282c9.223 0 16.375 11.066 16.375 20.056 0 6.918-3.92 15.22-10.839 17.524m-5.536-8.762c4.614 0 5.536-5.303 5.536-8.99 0-4.614-.233-8.762-5.536-8.762h-12.91v17.752zM260.366 264.542h35.048v10.839h-24.67v17.98h14.753v9.683h-14.753v23.982h26.052v10.144h-36.43zM325.848 264.542c18.445 0 22.366 19.829 22.366 34.354 0 14.76-2.305 38.274-22.366 38.274h-17.291v-72.628zm-.461 10.378h-6.458v51.873h7.38c11.527 0 11.527-16.83 11.527-27.897 0-8.529-.461-23.976-12.45-23.976M45.252 172.069h18.213c0 14.065 2.77 20.75 17.063 21.211 13.604.233 18.446-14.526 14.986-26.514-5.07-17.063-18.446-17.751-29.973-26.747-8.3-6.224-13.831-16.369-13.831-27.207 0-18.213 15.675-29.74 32.971-29.74 17.752 0 29.973 13.37 29.973 30.894H97.591c0-5.996-6.685-14.064-12.91-14.064-6.918 0-14.986 5.536-14.986 12.91 0 5.302 4.375 11.993 8.528 14.758 17.064 8.99 36.431 22.133 36.431 43.344 0 23.06-10.378 39.196-34.126 39.196-21.905 0-35.276-12.677-35.276-38.041M126.409 83.072h63.405v16.83H166.76v110.214h-18.218V99.902h-22.133zM239.616 210.11c-29.973 0-36.659-28.59-36.659-63.405 0-35.048 7.84-63.639 36.659-63.639s36.658 28.59 36.658 63.639c0 34.815-6.685 63.405-36.658 63.405m0-16.83c15.447 0 18.906-20.983 18.906-46.575 0-25.826-3.92-46.803-18.906-46.803-14.76 0-18.907 20.977-18.907 46.803 0 25.592 3.46 46.575 18.907 46.575M296.569 83.072h38.04c20.062 0 31.362 16.369 31.362 36.43 0 17.524-14.298 36.198-31.361 36.198h-20.056v54.416h-17.985zm17.985 17.751v35.97h23.054c7.84 0 11.76-12.449 11.76-18.446 0-6.224-5.535-17.524-12.91-17.524z" style="fill:#000;fill-opacity:1;fill-rule:evenodd;stroke:none"/>
</svg>
