<svg xmlns="http://www.w3.org/2000/svg" xml:space="preserve" viewBox="0 -.321 229.8 454.8" role="img" aria-labelledby="title">
  <title id="title">Verkehrszeichen R5-40 - No Parking</title>
  <rect width="229" height="454" x=".4" y=".079" rx="27" ry="27" style="fill:#000;fill-opacity:1;stroke:none;stroke-width:4;stroke-linejoin:miter;stroke-miterlimit:4;stroke-dasharray:32,4;stroke-dashoffset:0;stroke-opacity:1"/>
  <rect width="225" height="450" x="2.4" y="2.079" rx="25" ry="25" style="fill:#fff;fill-opacity:1;stroke:none;stroke-width:4;stroke-linejoin:miter;stroke-miterlimit:4;stroke-dasharray:32,4;stroke-dashoffset:0;stroke-opacity:1"/>
  <circle cx="114.9" cy="97.079" r="70" style="fill:#c0111e;fill-opacity:1;stroke:none;stroke-width:4;stroke-linejoin:miter;stroke-miterlimit:4;stroke-dasharray:32,4;stroke-dashoffset:0;stroke-opacity:1"/>
  <circle cx="114.9" cy="97.079" r="58" style="fill:#fff;fill-opacity:1;stroke:none;stroke-width:4;stroke-linejoin:miter;stroke-miterlimit:4;stroke-dasharray:32,4;stroke-dashoffset:0;stroke-opacity:1"/>
  <path d="m192.4 423.079-20-16h-22l12.5 10h-96l12.5-10h-22l-20 16 20 16h22l-12.5-10h96l-12.5 10h22z" style="fill:#c0111e;fill-opacity:1;fill-rule:evenodd;stroke:none"/>
  <path d="M90.2 57.039h39.091c12.332 0 25.228 10.638 25.228 23.212 0 13.137-9.754 25.873-23.294 25.873H104.3v31.515H90.2zm13.38 35.383h25.711c6.528 0 11.123-3.709 11.123-10.72 0-6.85-5.803-10.638-11.607-10.638H103.58" style="fill:#000;fill-opacity:1;fill-rule:evenodd;stroke:none"/>
  <path d="M143.892-78.601h12v132h-12z" style="fill:#c0111e;fill-opacity:1;stroke:none;stroke-width:4;stroke-linejoin:miter;stroke-miterlimit:4;stroke-dasharray:32,4;stroke-dashoffset:0;stroke-opacity:1" transform="rotate(45)"/>
</svg>
