<svg xmlns="http://www.w3.org/2000/svg" viewBox="0 0 241.188 311.094" role="img" aria-labelledby="title">
  <title id="title">Verkehrszeichen R7-7-4 - T2 Transit Lane Restriction (2 people or more (1 driver, 1 passenger))</title>
  <path d="M20.733.759h199.733c10.987 0 19.973 8.99 19.973 19.973v269.642c0 10.984-8.986 19.973-19.973 19.973H20.733c-10.987 0-19.973-8.99-19.973-19.973V20.732C.76 9.745 9.746.759 20.733.759z" style="fill:#fff;fill-opacity:1;fill-rule:evenodd;stroke:#000;stroke-width:1.49985397;stroke-linecap:butt;stroke-linejoin:miter;stroke-miterlimit:22.9260006;stroke-opacity:1;stroke-dasharray:none"/>
  <path d="M20.733 3.755c-9.33 0-16.977 7.647-16.977 16.977v269.642c0 9.33 7.646 16.977 16.977 16.977h199.733c9.334 0 16.98-7.646 16.98-16.977V20.732c0-9.33-7.646-16.977-16.98-16.977z" style="fill:#000;fill-opacity:1;fill-rule:evenodd;stroke:none"/>
  <path d="M20.733 9.745c-6.025 0-10.987 4.963-10.987 10.987v269.64c0 6.024 4.962 10.986 10.987 10.986h199.733c6.025 0 10.987-4.962 10.987-10.987V20.731c0-6.023-4.962-10.986-10.987-10.986z" style="fill:#fff;fill-opacity:1;fill-rule:evenodd;stroke:none"/>
  <path d="M23.095 28.737h23.488v5.178h-9.011v26.779H32.01V33.915h-8.915zM52.302 28.737h15.37c1.147.007 2.215.182 3.206.516a9.5 9.5 0 0 1 2.675 1.419 9.6 9.6 0 0 1 2.04 2.115 9.5 9.5 0 0 1 1.306 2.594q.455 1.395.456 2.88a9.3 9.3 0 0 1-.243 2.04 11.295 11.295 0 0 1-1.86 4.04 10 10 0 0 1-1.534 1.66 7.6 7.6 0 0 1-1.89 1.175l5.943 13.518h-5.943l-5.69-12.496h-8.371v12.496h-5.465zm5.465 5.465v8.565h9.905a3.8 3.8 0 0 0 1.584-.353 4.3 4.3 0 0 0 1.319-.931q.584-.6.912-1.36a4.1 4.1 0 0 0 .34-1.605c0-.307-.046-.65-.155-1.025a4.9 4.9 0 0 0-1.282-2.203 3.8 3.8 0 0 0-1.168-.784q-.679-.294-1.55-.304zM95.32 28.737h5.336l13.42 31.957h-6.005l-3.068-7.446h-13.87L88 60.694h-5.88zm-2.013 19.014h9.396L98.035 36.41zM120.214 28.737h5.24l14.67 21.123V28.737h5.56v31.957h-4.985l-14.958-21.698v21.698h-5.527zM151.914 54.941l4.377-3.196q1.158 1.254 2.381 2.146a9.8 9.8 0 0 0 2.663 1.369c.959.315 2.04.475 3.234.481q.51 0 1.23-.069.72-.075 1.529-.253a11 11 0 0 0 1.593-.487q.781-.313 1.422-.785a3.8 3.8 0 0 0 1.022-1.14c.256-.44.387-.96.394-1.55q-.007-.871-.372-1.484a3.1 3.1 0 0 0-.975-1.019 6 6 0 0 0-1.375-.672 15 15 0 0 0-1.565-.446q-.809-.182-1.56-.341c-.503-.1-.95-.225-1.343-.35q-1.375-.439-2.731-.869a34 34 0 0 1-2.622-.937 15 15 0 0 1-2.337-1.187 8.4 8.4 0 0 1-1.881-1.638c-.538-.634-.953-1.39-1.253-2.262-.297-.875-.453-1.903-.456-3.078q.005-1.529.468-2.793a7.7 7.7 0 0 1 1.272-2.272 9.6 9.6 0 0 1 1.903-1.766c.725-.5 1.5-.915 2.337-1.25q1.257-.496 2.584-.746 1.332-.25 2.653-.25c.956.006 1.96.122 2.997.362 1.04.24 2.068.575 3.084 1.019a16.7 16.7 0 0 1 2.85 1.569q1.334.918 2.318 2.034l-3.996 3.771a14 14 0 0 0-1.678-1.48 7.8 7.8 0 0 0-1.65-.954 7.6 7.6 0 0 0-1.8-.51q-.961-.156-2.125-.155-.586 0-1.337.128a10 10 0 0 0-1.519.384c-.515.175-.997.4-1.437.672-.444.265-.8.59-1.078.956q-.413.561-.447 1.281c.005.644.138 1.187.406 1.619a3.14 3.14 0 0 0 1.113 1.075 7.8 7.8 0 0 0 1.65.73 37 37 0 0 0 2.03.57c.729.18 1.475.384 2.247.606q1.11.321 2.366.671c.837.235 1.671.507 2.515.816.834.303 1.64.675 2.4 1.112.756.432 1.44.96 2.034 1.578a6.7 6.7 0 0 1 1.406 2.2q.522 1.276.528 2.987c-.003 1.166-.197 2.225-.562 3.184a8.8 8.8 0 0 1-1.54 2.563 10.7 10.7 0 0 1-2.27 1.959 14 14 0 0 1-2.758 1.375 17 17 0 0 1-3 .815 18 18 0 0 1-3.003.266q-.976-.002-2.125-.228a19 19 0 0 1-2.38-.644 22 22 0 0 1-2.42-1.003 18.5 18.5 0 0 1-2.25-1.287 13 13 0 0 1-1.874-1.513 7.4 7.4 0 0 1-1.287-1.684M183.36 60.694h5.498V28.737h-5.497zM194.61 28.737h23.488v5.178h-9.012v26.779h-5.562V33.915h-8.914zM61.648 215.141c.312-.11.659-.216 1.053-.319a19 19 0 0 1 2.452-.493 10 10 0 0 1 1.097-.075q1.106 0 2.244.18 1.132.183 2.209.566c.715.254 1.384.582 2.006.972a7.3 7.3 0 0 1 1.64 1.41q.707.814 1.107 1.868.397 1.054.406 2.362-.005 1.3-.413 2.35a6.1 6.1 0 0 1-1.115 1.856 7.5 7.5 0 0 1-1.653 1.4 10 10 0 0 1-2.01.966q-1.076.38-2.205.559-1.126.18-2.216.181-1.524-.001-2.928-.344a10 10 0 0 1-2.596-1.028 8 8 0 0 1-2.081-1.706 7.3 7.3 0 0 1-1.385-2.371q-.497-1.355-.503-3.038.006-2.959.744-5.44.733-2.479 2.106-4.427a13.4 13.4 0 0 1 3.284-3.297 14.5 14.5 0 0 1 4.268-2.062c1.575-.472 3.269-.706 5.081-.713v4.269a8 8 0 0 0-1.078-.072q-1.185.004-2.365.322-1.172.317-2.275.903-1.098.583-2.047 1.387a10.8 10.8 0 0 0-1.674 1.772 9 9 0 0 0-1.154 2.062zm4.818 9.54a14 14 0 0 0 1.993-.125c.622-.084 1.169-.234 1.65-.46a2.7 2.7 0 0 0 1.128-.934c.278-.403.416-.918.428-1.55-.003-.618-.143-1.134-.418-1.537-.272-.41-.65-.725-1.132-.956-.478-.231-1.03-.39-1.653-.488a13 13 0 0 0-1.996-.134 11.4 11.4 0 0 0-2.022.156q-.929.16-1.622.52a2.83 2.83 0 0 0-1.084.962c-.26.4-.39.89-.403 1.478q.006.842.397 1.43c.256.391.619.707 1.081.947a5.5 5.5 0 0 0 1.628.525q.933.168 2.025.166M104.59 221.494h17.641v-4.051h-17.64zM134.975 228.468v-18.001h-2.972v-3.475a5.2 5.2 0 0 0 2.781-1.29q.58-.524.934-1.204h3.403v23.97zM153.717 224.728q1.212-.004 2.153-.425a4.7 4.7 0 0 0 1.621-1.172 6.3 6.3 0 0 0 1.119-1.79q.434-1.026.65-2.263.21-1.228.21-2.596 0-1.37-.22-2.603a10 10 0 0 0-.668-2.266 6.5 6.5 0 0 0-1.131-1.787 4.8 4.8 0 0 0-1.616-1.169q-.933-.413-2.118-.418c-.791.003-1.494.143-2.119.418a4.8 4.8 0 0 0-1.612 1.169c-.46.506-.835 1.1-1.135 1.787a10 10 0 0 0-.668 2.266q-.22 1.233-.219 2.603 0 1.368.21 2.596.214 1.237.65 2.263a6.3 6.3 0 0 0 1.118 1.79c.456.506.994.897 1.622 1.172.628.281 1.34.422 2.153.425m0 4.193c-1.394-.003-2.628-.219-3.712-.634a8.3 8.3 0 0 1-2.797-1.769 9.5 9.5 0 0 1-1.928-2.696q-.757-1.554-1.122-3.413a20.4 20.4 0 0 1-.365-3.927q-.001-2.065.38-3.925a13.6 13.6 0 0 1 1.154-3.422 9.7 9.7 0 0 1 1.959-2.702 8.3 8.3 0 0 1 2.784-1.775q1.603-.628 3.647-.638c1.362.004 2.578.22 3.646.638a8.4 8.4 0 0 1 2.79 1.775 9.9 9.9 0 0 1 1.953 2.702 13.6 13.6 0 0 1 1.153 3.422q.384 1.859.382 3.925a20.4 20.4 0 0 1-.366 3.927 13.7 13.7 0 0 1-1.119 3.413 9.6 9.6 0 0 1-1.93 2.696c-.785.763-1.72 1.35-2.797 1.769-1.081.415-2.319.63-3.712.634M82.902 220.478h1.334l3.356 7.99h-1.503l-.766-1.862h-3.468l-.784 1.862h-1.469zm-.503 4.753h2.35l-1.17-2.834zM89.123 220.478h1.325l2.35 4.753 2.284-4.753h1.406v7.99h-1.366v-4.818l-2.324 4.818-2.31-4.753v4.753h-1.365zM170.846 220.478h1.334l3.356 7.99h-1.503l-.765-1.862h-3.469l-.784 1.862h-1.468zm-.503 4.753h2.35l-1.169-2.834zM177.07 220.478h1.326l2.35 4.753 2.283-4.753h1.407v7.99h-1.366v-4.818l-2.325 4.818-2.309-4.753v4.753h-1.365zM77.874 214.122l1.64-1.209q.256.239.472.456.223.222.457.407c.159.125.334.234.534.328q.296.14.7.215.407.077.965.078c.213 0 .435-.02.675-.062q.36-.059.713-.194.352-.131.643-.344.29-.21.463-.509.177-.295.181-.687a1.9 1.9 0 0 0-.16-.75 2.02 2.02 0 0 0-1.008-1.019 1.7 1.7 0 0 0-.678-.15h-.9v-2.097h.9q.228-.002.443-.078c.147-.056.275-.13.394-.228q.175-.15.278-.356.105-.205.106-.462 0-.351-.156-.588-.15-.238-.394-.387a2 2 0 0 0-.528-.232 3.4 3.4 0 0 0-.56-.109 4 4 0 0 0-.483-.028c-.329 0-.641.04-.94.131q-.448.132-.879.403a6 6 0 0 0-.878.7l-1.544-1.365c.272-.288.538-.535.797-.753q.39-.325.788-.557.393-.23.834-.374.435-.147.947-.213a8 8 0 0 1 1.128-.069q.403-.001.85.097a5 5 0 0 1 1.73.74q.396.269.704.616.315.343.487.76c.122.275.181.575.184.89q0 .399-.068.778c-.047.256-.113.49-.2.713a2.4 2.4 0 0 1-.325.584q-.188.253-.438.394.265.098.553.39.292.292.547.719.253.427.413.944.157.514.165 1.062-.006.6-.219 1.11-.212.505-.584.927c-.25.278-.531.525-.853.74a5.866 5.866 0 0 1-2.09.872 5 5 0 0 1-1.038.116 6.252 6.252 0 0 1-2.55-.569 5.59 5.59 0 0 1-2.219-1.781M94.207 214.376a2.7 2.7 0 0 0 1.078-.213q.467-.204.81-.587.34-.376.558-.894a5 5 0 0 0 .325-1.131q.106-.616.104-1.297c0-.46-.035-.89-.11-1.303a5 5 0 0 0-.33-1.134 3.3 3.3 0 0 0-.566-.89 2.5 2.5 0 0 0-.81-.588 2.6 2.6 0 0 0-1.06-.21 2.6 2.6 0 0 0-1.058.21q-.465.209-.806.587c-.232.25-.42.55-.57.89-.146.345-.259.723-.33 1.135-.076.413-.11.844-.11 1.303 0 .453.031.888.103 1.297q.106.619.325 1.131c.147.344.331.644.56.894q.34.383.809.587.47.21 1.078.213zm0 2.096c-.697 0-1.316-.11-1.856-.315a4.2 4.2 0 0 1-1.397-.888 4.7 4.7 0 0 1-.966-1.346 7 7 0 0 1-.562-1.707 10 10 0 0 1-.181-1.962q-.001-1.034.19-1.965.19-.93.579-1.71.383-.779.978-1.353c.393-.38.859-.674 1.39-.884.538-.212 1.144-.315 1.825-.322q1.02.005 1.825.322.8.314 1.393.884.592.575.975 1.353.39.78.578 1.71a9.7 9.7 0 0 1 .19 1.965q.002 1.03-.18 1.962a7 7 0 0 1-.56 1.707 4.8 4.8 0 0 1-.968 1.346c-.391.381-.86.675-1.397.888-.54.206-1.16.315-1.856.315M74.43 280.394h1.991l3.522 7.13 3.427-7.13h2.11v11.983h-2.05v-7.224l-3.487 7.224-3.463-7.13v7.13h-2.05zM92.776 290.53c.387-.002.74-.071 1.05-.212.309-.137.584-.337.818-.59.235-.257.428-.557.588-.9q.231-.52.35-1.138c.078-.412.118-.85.118-1.306q0-.69-.121-1.312a5 5 0 0 0-.363-1.14 3.3 3.3 0 0 0-.593-.9 2.4 2.4 0 0 0-.816-.591 2.5 2.5 0 0 0-1.031-.216 2.5 2.5 0 0 0-1.031.216q-.464.206-.816.59a3.3 3.3 0 0 0-.594.9q-.239.521-.362 1.14a7 7 0 0 0-.122 1.313q0 .686.119 1.306.118.618.35 1.138.24.514.587.9c.234.253.51.453.819.59q.467.21 1.05.213m0 2.075a4.9 4.9 0 0 1-1.784-.318 4.2 4.2 0 0 1-1.391-.885 5 5 0 0 1-.99-1.35 6.9 6.9 0 0 1-.6-1.705 9.4 9.4 0 0 1-.197-1.963c0-.69.072-1.343.206-1.962q.205-.934.612-1.712a5.2 5.2 0 0 1 1.003-1.35q.6-.573 1.388-.888a4.8 4.8 0 0 1 1.753-.318c.643.003 1.23.109 1.753.318q.787.315 1.387.888c.4.38.731.83 1.003 1.35q.407.778.612 1.712c.135.619.207 1.272.207 1.962q0 1.035-.197 1.963a7 7 0 0 1-.597 1.706 5 5 0 0 1-.994 1.35 4.2 4.2 0 0 1-1.39.884 4.9 4.9 0 0 1-1.784.318M100.088 280.394h1.965l5.5 7.921v-7.92h2.087v11.982h-1.872l-5.606-8.136v8.136h-2.075zM121.792 288.89h8.82v-2.025h-8.82zM141.865 280.394h8.808v2.084h-6.784v2.603h3.74v2.047h-3.74v5.25h-2.024zM152.817 280.394h5.765q.643.006 1.203.194.554.193 1 .531c.3.228.556.49.765.794.216.3.375.625.49.972q.171.524.173 1.08 0 .369-.094.766-.091.391-.265.781a4.4 4.4 0 0 1-.432.735q-.252.345-.575.622a2.9 2.9 0 0 1-.709.44l2.231 5.068h-2.23l-2.132-4.684h-3.14v4.684h-2.05zm2.05 2.05v3.212h3.715q.31-.004.594-.134a1.672 1.672 0 0 0 .834-.856q.127-.288.128-.603c0-.116-.015-.244-.056-.385a2 2 0 0 0-.175-.43 1.8 1.8 0 0 0-.306-.398 1.4 1.4 0 0 0-.438-.293 1.5 1.5 0 0 0-.58-.113zM164.706 292.377h2.061v-11.984h-2.06zM59.46 76.658h5.465v26.844H82.95v5.112H59.46zM99.76 76.658h5.336l13.424 31.956h-6.009l-3.068-7.446h-13.87l-3.132 7.446h-5.88zm-2.013 19.014h9.396l-4.668-11.343zM124.654 76.658h5.24l14.67 21.123V76.658h5.56v31.956h-4.985l-14.958-21.698v21.698h-5.527zM158.241 76.658h22.914v5.562h-17.386v6.358h9.396v5.56h-9.396v8.917h17.96v5.559h-23.488z" style="fill:#000;fill-opacity:1;fill-rule:nonzero;stroke:none"/>
  <path d="M62.276 128.587a91.6 91.6 0 0 0-31.27 6.559 45.8 45.8 0 0 0-4.283 19.289v.237a45.8 45.8 0 0 0 4.284 19.289c9.711 3.906 20.245 6.2 31.265 6.558h6.06a91.6 91.6 0 0 0 31.459-6.64 45.7 45.7 0 0 0 4.087-15.445v-7.762a45.7 45.7 0 0 0-4.087-15.445 91.6 91.6 0 0 0-31.466-6.64z" style="fill:#c0111e;fill-opacity:1;fill-rule:evenodd;stroke:none"/>
  <path d="m39.987 137.205 21.93-.284.068 5.283-8.234.107.4 30.665-5.43.072-.397-30.665-8.268.106zM66.2 145.639a9.3 9.3 0 0 1 .95-3.016 11.6 11.6 0 0 1 1.847-2.63 13 13 0 0 1 2.509-2.088 12.8 12.8 0 0 1 2.918-1.381 10.8 10.8 0 0 1 3.084-.525 17.6 17.6 0 0 1 3.888.369c1.246.265 2.402.684 3.462 1.243q1.6.843 2.803 2.16c.803.868 1.434 1.909 1.887 3.108.46 1.197.697 2.563.725 4.1a9.1 9.1 0 0 1-.281 2.36 10 10 0 0 1-.772 2.03 10.4 10.4 0 0 1-1.038 1.66q-.557.733-1.087 1.243a7 7 0 0 1-.925.778c-.447.306-.95.594-1.515.884q-.848.424-1.722.807-.885.389-1.634.721c-.506.232-.916.435-1.238.616q-1.088.628-2.03 1.406a13.7 13.7 0 0 0-1.794 1.81 19.4 19.4 0 0 0-1.675 2.399 37 37 0 0 0-1.687 3.181l17.65-.228.079 5.859-24.16.312q-.041-4.025 1.122-7.493a21.4 21.4 0 0 1 3.39-6.359c1.493-1.93 3.296-3.674 5.418-5.224.325-.228.747-.447 1.278-.675q.796-.337 1.74-.725c.632-.26 1.263-.544 1.888-.862.631-.329 1.21-.688 1.731-1.103a5.2 5.2 0 0 0 1.26-1.42c.309-.537.468-1.143.465-1.833a4.7 4.7 0 0 0-.425-1.916 5.2 5.2 0 0 0-1.088-1.546 6.6 6.6 0 0 0-1.562-1.135 7.7 7.7 0 0 0-1.834-.696 7.5 7.5 0 0 0-1.922-.225 6.2 6.2 0 0 0-2.706.646 6.4 6.4 0 0 0-2.206 1.794q-.938 1.173-1.384 2.853z" style="fill:#fff;fill-opacity:1;fill-rule:nonzero;stroke:none"/>
  <path d="M205.705 158.16a4.46 4.46 0 1 1-.002 8.922 4.46 4.46 0 0 1 .002-8.923m-52.054 0a4.46 4.46 0 1 1 0 8.92 4.46 4.46 0 0 1 0-8.92m10.824-16.974h-5.628v8.168h-7.677l5.446-20.551 45.683-.122 5.45 20.673h-7.677v-8.168h-9.78v8.168h-21.296v-8.168zm-19.907 34.54h4.127v8.79h10.4v-8.79h40.977v8.79h10.152v-8.79h4.25v-26.372h-2.144c-1.238 0-1.981-5.075-2.228-6.312-.622-2.228-1.116-4.58-1.86-6.809-1.112-3.218-1.609-11.64-5.446-11.64h-45.808c-3.34 0-3.712 1.86-4.33 4.46-1.613 6.312-5.203 18.57-5.822 20.3h-2.268zm19.345-34.859a5.764 5.764 0 1 0-5.766-5.762 5.766 5.766 0 0 0 5.766 5.762m31.259-.006a5.764 5.764 0 1 0 .002-11.528 5.764 5.764 0 0 0-.002 11.528" style="fill:#000;fill-opacity:1;fill-rule:evenodd;stroke:none"/>
  <path d="m64.672 260.177 3.284-2.421q.503.481.944.915.44.446.91.816a5.5 5.5 0 0 0 1.065.65q.596.28 1.403.437.814.152 1.934.153a8.086 8.086 0 0 0 2.772-.51q.707-.269 1.287-.69c.387-.28.694-.621.925-1.015.237-.4.356-.856.36-1.378a3.7 3.7 0 0 0-.316-1.5 4 4 0 0 0-.838-1.215 4 4 0 0 0-1.181-.822 3.4 3.4 0 0 0-1.356-.297h-1.797v-4.196h1.797a2.62 2.62 0 0 0 1.675-.616c.23-.194.418-.434.559-.71q.202-.412.212-.927-.007-.695-.312-1.169a2.4 2.4 0 0 0-.787-.781c-.328-.2-.678-.35-1.06-.46a7 7 0 0 0-1.118-.218 8 8 0 0 0-.966-.057q-.99-.001-1.88.26a7 7 0 0 0-1.76.812 11.7 11.7 0 0 0-1.753 1.397l-3.094-2.731a20 20 0 0 1 1.6-1.506 11.4 11.4 0 0 1 1.569-1.113 8.7 8.7 0 0 1 1.672-.75 9.8 9.8 0 0 1 1.896-.428 17 17 0 0 1 2.253-.134q.809-.001 1.703.194a9.7 9.7 0 0 1 1.775.569q.89.37 1.684.909.789.541 1.41 1.231c.415.46.737.969.974 1.522q.36.83.363 1.78 0 .8-.135 1.56a7.7 7.7 0 0 1-.4 1.422c-.175.444-.39.831-.646 1.172a3 3 0 0 1-.878.787q.528.196 1.109.778.58.581 1.09 1.437a9 9 0 0 1 .828 1.89 7.5 7.5 0 0 1 .325 2.126 5.7 5.7 0 0 1-.434 2.212 6.7 6.7 0 0 1-1.172 1.86 9 9 0 0 1-1.7 1.48 11.5 11.5 0 0 1-2.03 1.081q-1.068.441-2.154.666-1.082.225-2.071.225c-.819 0-1.666-.09-2.534-.278a12.7 12.7 0 0 1-2.569-.856 11.7 11.7 0 0 1-2.403-1.466 11 11 0 0 1-2.034-2.096M111.29 257.446h17.64v-4.05h-17.64zM145.917 264.42q.001-1.973.26-4.083c.172-1.4.428-2.816.772-4.237a36 36 0 0 1 1.28-4.172 29 29 0 0 1 1.794-3.878 22 22 0 0 1 2.294-3.355h-13.614v-4.244h19.104v4.075a30.4 30.4 0 0 0-3.247 4.2 29.3 29.3 0 0 0-2.443 4.686 27.6 27.6 0 0 0-1.54 5.066 27 27 0 0 0-.538 5.343v.6zM87.898 256.43h3.875q.37 0 .73.12.358.118.679.33c.212.145.4.31.562.504.166.19.294.403.388.631q.14.342.14.716a2.77 2.77 0 0 1-.425 1.468 2.5 2.5 0 0 1-.49.569q-.285.248-.638.387c-.234.09-.484.14-.756.14h-2.668v3.126h-1.397zm1.325 1.391v2.116h2.55q.327.001.575-.119a.87.87 0 0 0 .384-.36q.14-.234.144-.584a1 1 0 0 0-.1-.45 1 1 0 0 0-.26-.33 1.2 1.2 0 0 0-.368-.204 1.4 1.4 0 0 0-.422-.069zM95.822 256.43h1.325l2.35 4.754 2.284-4.753h1.406v7.99h-1.365v-4.819l-2.325 4.819-2.31-4.753v4.753h-1.365zM161.232 256.43h3.874q.37 0 .731.12.358.118.678.33c.213.145.4.31.563.504.165.19.294.403.387.631q.141.342.141.716a2.77 2.77 0 0 1-.425 1.468 2.5 2.5 0 0 1-.49.569q-.287.248-.638.387c-.234.09-.484.14-.756.14h-2.669v3.126h-1.396zm1.324 1.391v2.116h2.55q.328.001.575-.119a.87.87 0 0 0 .384-.36q.14-.234.144-.584a1 1 0 0 0-.1-.45 1 1 0 0 0-.26-.33 1.2 1.2 0 0 0-.368-.204 1.4 1.4 0 0 0-.422-.069zM169.159 256.43h1.325l2.35 4.754 2.284-4.753h1.406v7.99h-1.366v-4.819l-2.324 4.819-2.31-4.753v4.753h-1.365zM85.786 250.075l1.64-1.209q.255.238.472.456c.15.147.3.285.456.406.16.125.335.235.535.328q.295.141.7.216.407.077.965.078c.213 0 .434-.018.675-.063q.36-.059.712-.193a2.7 2.7 0 0 0 .644-.344q.29-.21.463-.51.177-.293.18-.687a1.9 1.9 0 0 0-.158-.75 2.02 2.02 0 0 0-1.01-1.018 1.7 1.7 0 0 0-.678-.15h-.9v-2.097h.9q.229-.001.444-.078c.147-.056.275-.131.394-.228q.174-.15.278-.356t.106-.463q0-.35-.156-.587-.15-.239-.39-.388-.247-.15-.532-.231a3.4 3.4 0 0 0-.56-.11 4 4 0 0 0-.484-.028c-.328 0-.64.04-.94.131q-.446.132-.878.404a6 6 0 0 0-.878.7l-1.544-1.366c.272-.287.538-.534.797-.753q.39-.325.787-.556a4.4 4.4 0 0 1 .835-.375q.436-.146.946-.213a8 8 0 0 1 1.128-.069q.405 0 .85.097a5.1 5.1 0 0 1 1.731.74q.397.269.703.616.315.342.488.76c.122.274.181.574.184.89q0 .399-.069.778c-.047.256-.112.49-.2.713a2.4 2.4 0 0 1-.325.584q-.19.253-.437.394.265.098.553.39.292.291.547.719.252.427.412.943.158.515.166 1.063-.006.6-.219 1.11a3.4 3.4 0 0 1-.584.927q-.373.417-.853.74a6 6 0 0 1-1.013.541c-.36.147-.715.26-1.078.332a5 5 0 0 1-1.037.115q-.614 0-1.266-.14a6.3 6.3 0 0 1-1.284-.428 5.59 5.59 0 0 1-2.219-1.781M102.122 250.328a2.7 2.7 0 0 0 1.078-.212c.312-.138.58-.331.809-.588q.34-.377.56-.893.217-.512.324-1.131c.072-.41.103-.844.103-1.297 0-.46-.034-.89-.109-1.303a5 5 0 0 0-.331-1.134 3.3 3.3 0 0 0-.566-.89 2.5 2.5 0 0 0-.81-.588 2.6 2.6 0 0 0-1.058-.21 2.65 2.65 0 0 0-1.06.21q-.464.209-.806.587c-.231.25-.418.55-.568.89q-.225.516-.332 1.135-.111.616-.11 1.303c0 .453.032.887.104 1.297q.106.619.325 1.13.219.518.56.894c.228.257.496.45.809.588.315.14.671.21 1.078.212m0 2.097c-.697 0-1.316-.11-1.856-.316a4.2 4.2 0 0 1-1.397-.887 4.7 4.7 0 0 1-.966-1.347 7 7 0 0 1-.562-1.706 10 10 0 0 1-.181-1.962q-.001-1.034.19-1.966.189-.929.578-1.709c.256-.518.581-.972.978-1.353q.593-.571 1.39-.884c.538-.213 1.144-.316 1.826-.322q1.02.005 1.824.322.8.314 1.394.884c.394.381.719.835.975 1.353q.39.78.578 1.71a9.7 9.7 0 0 1 .19 1.965q0 1.03-.18 1.962a7 7 0 0 1-.56 1.706 4.7 4.7 0 0 1-.969 1.347c-.39.381-.859.675-1.396.887-.54.207-1.16.316-1.856.316" style="fill:#000;fill-opacity:1;fill-rule:nonzero;stroke:none"/>
</svg>
