<svg xmlns="http://www.w3.org/2000/svg" viewBox="0 0 305.656 204.219" role="img" aria-labelledby="title">
  <title id="title">Verkehrszeichen R9-3 - Bicycles Excepted</title>
  <path d="M30.949 203.478h243.756c16.641 0 30.205-13.567 30.205-30.208V30.962c0-16.666-13.564-30.208-30.205-30.208H30.95C14.283.754.74 14.296.74 30.962V173.27c0 16.641 13.542 30.208 30.208 30.208z" style="fill:#fff;fill-opacity:1;fill-rule:evenodd;stroke:#000;stroke-width:1.5;stroke-linecap:butt;stroke-linejoin:miter;stroke-miterlimit:16.15500069;stroke-opacity:1;stroke-dasharray:none"/>
  <path d="M31.449 199.355h242.728a26.526 26.526 0 0 0 26.61-26.607V31.462a26.526 26.526 0 0 0-26.61-26.606H31.45A26.526 26.526 0 0 0 4.843 31.462v141.286a26.526 26.526 0 0 0 26.606 26.607" style="fill:#000;fill-opacity:1;fill-rule:evenodd;stroke:none"/>
  <path d="M30.949 191.295h243.756c9.94 0 18.022-8.082 18.022-18.025V30.962c0-9.965-8.082-18.025-18.022-18.025H30.95c-9.965 0-18.025 8.06-18.025 18.025V173.27c0 9.943 8.06 18.025 18.025 18.025" style="fill:#fff;fill-opacity:1;fill-rule:evenodd;stroke:none"/>
  <path d="M26.822 119.018h23.173v6.522H33.173v9.956h11.674v6.351H33.173v11.33h18.368v6.351H26.822zM66.82 138.758l-9.612-19.74h7.382l5.663 12.014 6.18-12.014h7.038l-9.44 19.74 10.127 20.77h-6.866l-7.039-13.389-6.35 13.39h-7.038zM110.077 128.974c-1.375-3.09-3.09-4.464-6.18-4.464-7.553 0-8.584 10.127-8.584 15.45 0 4.977 1.718 14.076 8.585 14.076 2.402 0 5.491-2.574 6.522-5.15l6.008 1.545c-1.887 5.836-6.18 9.956-12.187 9.956-11.158 0-14.935-11.158-15.107-20.77 0-8.585 2.918-21.458 14.076-21.458 5.664 0 10.128 2.574 12.874 8.24zM123.81 119.018h23.172v6.522H130.16v9.956h11.674v6.351H130.16v11.33h18.369v6.351h-24.72zM162.433 125.025v10.471h9.612c2.918 0 4.808-2.746 4.808-5.663 0-2.406-2.403-4.808-5.152-4.808zm-6.35-6.007H171.7c6.183 0 11.674 4.632 11.674 10.815 0 6.522-5.15 12.014-12.53 12.014h-8.412v17.681h-6.35zM187.84 119.018h24.719v6.007h-9.269v34.503h-6.182v-34.503h-9.269zM219.253 119.018h23.173v6.522h-16.822v9.956h11.674v6.351h-11.674v11.33h18.368v6.351h-24.719zM251.523 119.018h11.33c9.956 0 15.963 8.753 15.963 20.942 0 8.925-5.492 19.568-15.963 19.568h-11.33zm6.522 33.988h4.636c7.554 0 9.784-8.754 9.784-13.046 0-5.663-1.89-14.591-9.784-14.591h-4.636zM31.286 45.375h16.307c5.838 0 9.956 5.32 9.956 10.128 0 3.777-1.2 6.523-5.664 9.269 4.636 2.233 6.695 5.15 6.695 10.47 0 5.496-5.32 10.644-10.987 10.644H31.286zm6.523 16.307h7.897c2.918 0 5.664-3.433 5.664-6.179 0-2.059-1.887-3.605-3.949-3.605H37.81zm0 17.681h10.643c1.718 0 3.949-2.917 3.949-4.633 0-3.264-3.09-6.525-6.523-6.525h-8.07z" style="fill:#000;fill-opacity:1;fill-rule:evenodd;stroke:none"/>
  <path d="M66.133 85.889h6.352v-40.51h-6.352z" style="fill:#000;fill-opacity:1;fill-rule:nonzero;stroke:none"/>
  <path d="M100.636 55.334c-1.374-3.09-3.09-4.464-6.179-4.464-7.553 0-8.584 10.128-8.584 15.451 0 4.976 1.718 14.076 8.584 14.076 2.403 0 5.492-2.577 6.523-5.151l6.007 1.546c-1.887 5.836-6.179 9.956-12.186 9.956-11.159 0-14.935-11.158-15.107-20.77 0-8.585 2.918-21.459 14.076-21.459 5.664 0 10.128 2.575 12.874 8.241zM111.967 45.375h7.553l9.612 15.792 9.613-15.792h7.381l-13.904 23.173v17.338h-6.18V68.548zM172.045 55.334c-1.374-3.09-3.09-4.464-6.179-4.464-7.553 0-8.584 10.128-8.584 15.451 0 4.976 1.718 14.076 8.584 14.076 2.402 0 5.492-2.577 6.523-5.151l6.007 1.546c-1.887 5.836-6.179 9.956-12.186 9.956-11.159 0-14.936-11.158-15.107-20.77 0-8.585 2.917-21.459 14.076-21.459 5.663 0 10.127 2.575 12.873 8.241zM185.778 45.375h6.179V79.88h18.54v6.007h-24.72zM216.848 45.375h23.173v6.523h-16.822v9.956h11.673v6.35H223.2v11.331h18.368v6.35h-24.72zM246.89 76.274l6.18-2.059c2.233 4.461 4.635 6.007 9.27 6.007 2.575 0 5.664-2.917 5.664-5.663 0-4.12-2.23-6.182-10.299-7.038-1.203-.172-3.777-1.031-5.835-2.921-1.719-1.372-3.265-3.777-3.265-7.379 0-7.725 6.01-12.705 12.705-12.705 5.664 0 9.097 2.918 11.33 8.928l-6.01 1.887c-1.028-3.433-3.605-4.12-6.18-4.292-3.089 0-5.663 3.09-5.663 5.667 0 1.887 1.372 3.605 2.918 4.117 2.574.86 6.35.344 8.925 1.718 4.12 1.887 7.553 5.664 7.553 10.987 0 7.553-4.976 13.217-13.045 13.217-4.98 0-12.017-4.12-14.248-10.471" style="fill:#000;fill-opacity:1;fill-rule:evenodd;stroke:none"/>
</svg>
