<svg xmlns="http://www.w3.org/2000/svg" viewBox="0 0 305.781 204.281" role="img" aria-labelledby="title">
  <title id="title">Verkehrszeichen R9-2 - Buses Excepted</title>
  <path d="M30.965 203.531h243.834c16.622 0 30.22-13.598 30.22-30.22V30.959c0-16.622-13.598-30.22-30.22-30.22H30.965C14.343.738.74 14.336.74 30.958V173.31c0 16.622 13.602 30.22 30.224 30.22z" style="fill:#fff;fill-opacity:1;fill-rule:evenodd;stroke:#000;stroke-width:1.5;stroke-linecap:butt;stroke-linejoin:miter;stroke-miterlimit:16.15500069;stroke-opacity:1;stroke-dasharray:none"/>
  <path d="M31.48 199.41h242.804c14.638 0 26.615-11.976 26.615-26.615V31.475c0-14.64-11.977-26.616-26.615-26.616H31.48c-14.638 0-26.615 11.977-26.615 26.615v141.321c0 14.639 11.977 26.616 26.615 26.616" style="fill:#000;fill-opacity:1;fill-rule:evenodd;stroke:none"/>
  <path d="M30.965 191.342h243.834c9.915 0 18.031-8.113 18.031-18.031V30.96c0-9.917-8.116-18.03-18.03-18.03H30.964c-9.918 0-18.031 8.113-18.031 18.03v142.35c0 9.918 8.113 18.03 18.03 18.03" style="fill:#fff;fill-opacity:1;fill-rule:evenodd;stroke:none"/>
  <path d="M37.39 118.305h19.616v5.714H42.942v10.175h8.634v5.55h-8.634v13.377h14.713v5.714H37.391zM73.343 138.083l-7.984-19.778h6.079l5.189 12.077 5.026-12.077h6.363l-8.269 19.778 8.716 20.752h-6.366l-5.47-13.417-5.755 13.417h-6.204zM111.845 148.054h5.633c0 7.254-4.255 11.559-10.375 11.559-10.983 0-11.796-13.18-11.796-21.852 0-8.35 1.419-20.265 11.715-20.265 5.998 0 10.415 4.255 10.415 10.618h-5.592c0-2.19-2.149-4.823-4.823-4.823-5.592 0-6.08 10.334-6.08 14.47 0 4.539 0 16.21 6.242 16.21 2.593 0 4.661-2.39 4.661-5.917M127.57 118.305h19.616v5.714h-14.064v10.175h8.634v5.55h-8.634v13.377h14.713v5.714h-20.264zM157.929 118.305h11.914c6.323 0 10.256 4.54 10.256 11.593 0 7.376-4.864 11.55-10.256 11.55h-6.282v17.387h-5.632zm5.632 5.673v11.471h7.094c2.434 0 3.811-2.674 3.811-5.916 0-2.515-1.702-5.555-4.014-5.555zM186.3 118.305h20.264v5.352h-7.09v35.178h-5.961v-35.178H186.3zM215.524 118.305h19.614v5.714h-14.063v10.175h8.634v5.55h-8.634v13.377h14.713v5.714h-20.264zM255.04 118.305c10.497 0 13.012 8.554 13.012 19.172 0 12.36-1.946 21.358-13.011 21.358h-9.16v-40.53zm-.202 5.592h-3.365v29.224h3.893c6.526 0 6.888-6.81 6.888-13.214V137.6c0-7.135-.566-13.702-7.416-13.702M65.887 45.35H82.22c5.795 0 10.01 5.352 10.01 10.094 0 3.848-1.256 6.485-5.714 9.28 4.701 2.31 6.607 5.186 6.607 10.538 0 5.513-5.189 10.618-10.903 10.618H65.887zm6.444 16.376h7.944c3 0 5.714-3.486 5.714-6.282 0-1.947-1.865-3.527-4.011-3.527H72.33zm0 17.668h10.74c1.662 0 3.974-2.877 3.974-4.62 0-3.364-3.162-6.604-6.526-6.604H72.33zM104.554 73.397V45.35h6.404v28.047c0 3.526 3.446 6.85 7.254 6.85 3.648 0 7.338-2.596 7.338-6.485V45.35h6.282v27.56c0 7.58-5.595 13.747-13.62 13.747-7.579 0-13.658-6.41-13.658-13.26M142.612 76.236l6.16-2.068c2.272 4.58 4.58 5.998 9.282 5.998 2.514 0 5.635-2.796 5.635-5.592 0-4.214-2.27-6.241-10.215-7.132-1.215-.121-3.849-1.015-5.876-2.799-1.703-1.377-3.283-3.808-3.283-7.375 0-7.782 6.038-12.727 12.645-12.727 5.673 0 9.16 2.837 11.471 8.875l-6.041 1.825c-1.094-3.324-3.646-4.052-6.16-4.214-3.162 0-5.714 3.039-5.714 5.713 0 1.784 1.418 3.608 2.999 4.095 2.514.769 6.2.363 8.875 1.662 4.136 1.984 7.46 5.714 7.46 11.065 0 7.579-4.986 13.095-13.052 13.095-4.864 0-11.955-4.017-14.186-10.42M180.224 45.35h23.223v6.486h-16.941v9.971h11.833v6.323h-11.833v11.427h18.44v6.323h-24.722zM212.93 76.236l6.161-2.068c2.271 4.58 4.58 5.998 9.281 5.998 2.515 0 5.636-2.796 5.636-5.592 0-4.214-2.271-6.241-10.215-7.132-1.216-.121-3.85-1.015-5.876-2.799-1.703-1.377-3.284-3.808-3.284-7.375 0-7.782 6.039-12.727 12.646-12.727 5.673 0 9.159 2.837 11.47 8.875l-6.04 1.825c-1.094-3.324-3.646-4.052-6.161-4.214-3.162 0-5.714 3.039-5.714 5.713 0 1.784 1.418 3.608 3 4.095 2.514.769 6.2.363 8.874 1.662 4.136 1.984 7.46 5.714 7.46 11.065 0 7.579-4.986 13.095-13.052 13.095-4.864 0-11.955-4.017-14.185-10.42" style="fill:#000;fill-opacity:1;fill-rule:nonzero;stroke:none"/>
</svg>
