<svg xmlns="http://www.w3.org/2000/svg" viewBox="0 0 308.094 308.063" role="img" aria-labelledby="title">
  <title id="title">Verkehrszeichen R7-9-1 - End of T2 Transit Lane</title>
  <path d="M39.08.741h229.955c21.073 0 38.314 17.242 38.314 38.315v229.955c0 21.073-17.241 38.315-38.314 38.315H39.08c-21.073 0-38.315-17.242-38.315-38.315V39.056C.765 17.983 18.007.741 39.08.741z" style="fill:#fff;stroke:#000;stroke-width:1.50009251;stroke-linecap:butt;stroke-linejoin:miter;stroke-miterlimit:2.61299992;stroke-opacity:1;stroke-dasharray:none"/>
  <path d="M39.08 5.85h229.955c18.263 0 33.205 14.942 33.205 33.206v229.955c0 18.263-14.942 33.205-33.205 33.205H39.08c-18.264 0-33.205-14.942-33.205-33.205V39.056c0-18.264 14.941-33.205 33.205-33.205" style="fill:#000;fill-opacity:1;fill-rule:evenodd;stroke:none"/>
  <path d="M39.08 16.07h229.955c12.641 0 22.985 10.345 22.985 22.986v229.955c0 12.641-10.344 22.986-22.985 22.986H39.08c-12.642 0-22.986-10.345-22.986-22.986V39.056c0-12.641 10.344-22.986 22.986-22.986" style="fill:#fff;fill-opacity:1;fill-rule:evenodd;stroke:none"/>
  <path d="M53.906 25.799h47.628v11.557H65.397v13.22h19.53v11.556h-19.53v18.536h37.33v11.557H53.906zM122.988 25.799h10.895l30.489 43.906V25.799h11.557v66.426h-10.363l-31.087-45.103v45.103h-11.49zM201.237 25.799h21.257c20.258 0 31.683 16.142 31.683 33.546 0 17.204-11.29 32.88-29.892 32.88h-23.048zm11.425 54.869h12.157c11.092 0 18.198-11.16 18.198-21.323 0-11.226-7.572-21.99-18.998-21.99h-11.357zM28.298 249.072h16.607v4.385h-5.813v28.827h-4.881v-28.827h-5.913zM63.203 266.11l4.75 16.177h-4.915l-4.385-15.414h-4.32v15.414h-4.55v-33.215h11.095c4.085 0 7.075 4.882 7.075 9 0 3.188-1.693 6.976-4.75 8.039m-3.088-4.018c2.091 0 3.023-2.191 3.023-4.185 0-2.06-.532-4.085-2.957-4.085h-5.847v8.27zM79.51 268.467h4.616l-2.29-8.935zm-7.872 13.817 7.872-33.212h4.616l8.27 33.212h-4.682l-2.39-9.232h-6.71l-2.191 9.232zM97.58 249.072h4.55l8.801 19.198v-19.198h4.816v33.212h-3.753l-9.863-21.82v21.82h-4.55zM121.029 272.62h4.681c.035 3.82 1.231 5.648 4.42 5.748 2.656 0 4.284-2.229 4.284-4.95 0-.732-.135-1.529-.366-2.291-1.394-4.52-4.75-5.116-7.803-7.341-2.229-1.56-3.588-4.385-3.588-7.373 0-4.584 4.184-8.003 8.5-8.003 4.585 0 8.038 3.619 8.038 8.4h-4.581c0-1.625-1.828-3.819-3.457-3.819-1.76 0-3.819 1.494-3.819 3.488 0 1.428.466 2.99 2.26 3.853 4.781 2.391 9.497 6.476 9.497 13.085 0 5.913-4.05 9.504-8.966 9.504-4.95 0-9.1-3.394-9.1-10.3" style="fill:#000;fill-opacity:1;fill-rule:evenodd;stroke:none"/>
  <path d="M144.277 282.284h4.65v-33.212h-4.65z" style="fill:#000;fill-opacity:1;fill-rule:nonzero;stroke:none"/>
  <path d="M153.843 249.072h16.607v4.385h-5.812v28.827h-4.882v-28.827h-5.913zM192.536 249.072h4.716v28.83h11.891v4.382h-16.607zM220.07 268.467h4.615l-2.29-8.935zm-7.873 13.817 7.872-33.212h4.616l8.27 33.212h-4.682l-2.391-9.232h-6.71l-2.19 9.232zM238.136 249.072h4.55l8.8 19.198v-19.198h4.817v33.212h-3.754l-9.863-21.82v21.82h-4.55zM263.178 249.072h16.076v4.682h-11.526v8.338h7.076v4.55h-7.076v10.96h12.057v4.682h-16.607z" style="fill:#000;fill-opacity:1;fill-rule:evenodd;stroke:none"/>
  <path d="M248.833 113.951C180.24 97.11 121.694 97.022 59.834 115.823c-9.713 42.365-7.231 69.645.838 108.107 68.485 21.214 123.192 20.92 188.352 2.538 11.42-41.378 12.182-68.97-.19-112.517" style="fill:#c0111e;fill-opacity:1;fill-rule:evenodd;stroke:none"/>
  <path d="m79.43 120.411 64.094-.5.106 15.445-24.045.19.684 89.59-15.848.122-.703-89.59-24.183.188zM161.89 144.969c2.1-15.348 18.18-27.868 33.206-27.993 19.523-.14 36.94 9.798 37.118 32.284.084 12.188-8.36 20.976-12.12 23.514-5.11 3.515-14.229 6.625-17.882 8.763-8.585 4.9-14.304 11.441-21.127 25.576l51.572-.397.135 17.126-70.592.56c-.19-23.555 10.713-42.122 29.299-55.607 5.534-3.934 24.635-7.122 24.532-19.207-.075-10.191-10.625-16.298-19.873-16.232-8.3.065-15.923 5.584-18.473 15.379z" style="fill:#fff;fill-opacity:1;fill-rule:evenodd;stroke:none"/>
</svg>
