<svg xmlns="http://www.w3.org/2000/svg" viewBox="0 0 197.469 349.781" role="img" aria-labelledby="title">
  <title id="title">Verkehrszeichen R2-17 - One Way (forward)</title>
  <path d="M20.175 348.92h157.004c10.83 0 19.452-10.059 19.452-19.453V20.289c0-10.608-8.622-19.449-19.452-19.449H20.175C9.676.84.835 9.681.835 20.29v309.178c0 9.394 8.841 19.452 19.34 19.452z" style="fill:#fff;fill-opacity:1;fill-rule:evenodd;stroke:#000;stroke-width:1.69333361;stroke-linecap:butt;stroke-linejoin:miter;stroke-miterlimit:22.9260006;stroke-opacity:1;stroke-dasharray:none"/>
  <path d="M20.175 345.603h157.004c8.84 0 15.914-8.622 15.914-16.136V20.289c0-8.84-7.074-15.914-15.914-15.914H20.175c-8.728 0-15.804 7.073-15.804 15.914v309.178c0 7.514 7.073 16.136 15.804 16.136" style="fill:#000;fill-opacity:1;fill-rule:evenodd;stroke:none"/>
  <path d="M20.175 338.53h157.004c5.083 0 9.063-5.415 9.063-9.063V20.289c0-5.084-3.98-9.063-9.063-9.063H20.175c-4.97 0-8.953 3.98-8.953 9.063v309.178c0 3.648 3.979 9.063 8.953 9.063" style="fill:#fff;fill-opacity:1;fill-rule:evenodd;stroke:none"/>
  <path d="M55.513 68.546c7.059 0 10.632-6.799 10.632-15.078 0-8.322-3.746-15.12-10.632-15.12S44.88 45.146 44.88 53.468c0 8.28 3.574 15.078 10.633 15.078m0 7.545c-12.026 0-18.041-10.16-18.041-22.623 0-12.46 6.318-22.656 18.04-22.656 11.724 0 18.038 10.196 18.038 22.656 0 12.463-6.011 22.623-18.037 22.623M82.091 31.68h7.147l20 28.801v-28.8h7.58v43.574h-6.798L89.63 45.668v29.587H82.09zM127.889 31.68h31.242v7.581h-23.703v8.672h12.809v7.58h-12.81v12.158h24.487v7.584h-32.025zM26.66 100.32h7.668l4.925 26.275 6.449-26.275h7.408l6.883 26.536 4.748-26.536h7.54l-7.755 43.575h-8.191l-6.756-27.322-6.883 27.322H34.72zM95.899 100.32h7.278l18.298 43.575h-8.191l-4.184-10.153H90.19l-4.271 10.153h-8.015zm-2.745 25.926h12.81l-6.361-15.47zM126.926 100.32h9.193l12.725 18.126 12.506-18.126h9.193l-17.953 26.275v17.3h-7.581v-17.3z" style="fill:#000;fill-opacity:1;fill-rule:nonzero;stroke:none"/>
  <path d="M110.91 310.332H86.18l2.473-88.41-25.347 6.185c-.209 0-.826.205-1.239.205-2.264 0-3.915-1.648-3.915-3.916 0-1.03 1.65-3.916 1.855-4.12l34.83-42.454c.617-.617 2.265-2.06 3.708-2.06 1.442 0 2.885 1.238 3.707 2.06l34.83 42.453c.413.413 1.856 3.09 1.856 4.12 0 2.27-1.651 3.917-3.916 3.917-.413 0-.618-.205-1.238-.205l-25.348-6.184z" style="fill:#000;fill-opacity:1;fill-rule:evenodd;stroke:none"/>
</svg>
