<svg xmlns="http://www.w3.org/2000/svg" viewBox="0 0 606 1006" role="img" aria-labelledby="title">
  <title id="title">Verkehrszeichen R4-12[110] - End of 110&amp;nbsp;km/h Speed Limit</title>
  <g transform="translate(0 709)">
    <rect width="604" height="1004" x="1" y="-708" rx="52" ry="52" style="opacity:1;fill:#000;fill-opacity:1;fill-rule:nonzero;stroke:none;stroke-width:201.47523499;stroke-linecap:square;stroke-linejoin:round;stroke-miterlimit:4;stroke-dasharray:none;stroke-opacity:1"/>
    <rect width="600" height="1000" x="3" y="-706" rx="50" ry="50" style="opacity:1;fill:#fff;fill-opacity:1;fill-rule:nonzero;stroke:none;stroke-width:200.40658569;stroke-linecap:square;stroke-linejoin:round;stroke-miterlimit:4;stroke-dasharray:none;stroke-opacity:1"/>
    <circle cx="303" cy="-89" r="282" style="opacity:1;fill:#000;fill-opacity:1;fill-rule:nonzero;stroke:none;stroke-width:148.7865448;stroke-linecap:square;stroke-linejoin:round;stroke-miterlimit:4;stroke-dasharray:none;stroke-opacity:1"/>
    <circle cx="303" cy="-89" r="237" style="opacity:1;fill:#fff;fill-opacity:1;fill-rule:nonzero;stroke:none;stroke-width:125.04401398;stroke-linecap:square;stroke-linejoin:round;stroke-miterlimit:4;stroke-dasharray:none;stroke-opacity:1"/>
    <g aria-label="END" style="font-style:normal;font-variant:normal;font-weight:400;font-stretch:normal;font-size:238.80596924px;line-height:0;font-family:&quot;Roadgeek 2005 Series E&quot;;-inkscape-font-specification:&quot;Roadgeek 2005 Series E&quot;;letter-spacing:0;word-spacing:0;fill:#000;fill-opacity:1;stroke:none;stroke-width:5.97014904">
      <path d="M74-463v-160h116.776v28.657h-87.642v29.612h47.761v29.373h-47.76v43.701h90.507V-463zM330.944-463l-76.179-110.09V-463h-28.179v-160h28.18l73.313 105.552V-623h27.701v160zM526-543.239q0 24.12-9.791 42.03t-28.896 28.657q-8.358 4.776-18.149 7.164-9.79 2.388-19.582 2.388H398v-160h51.582q20.537 0 38.209 10.03 18.627 10.746 28.418 28.418Q526-567.12 526-543.24m-28.657 0q0-16.239-5.97-27.224-5.731-10.985-17.671-17.671-10.986-6.21-24.12-6.21h-22.448v102.687h22.448q12.657 0 23.164-6.209 24.597-12.895 24.597-45.373" style="font-style:normal;font-variant:normal;font-weight:400;font-stretch:normal;line-height:0;font-family:&quot;Roadgeek 2005 Series E&quot;;-inkscape-font-specification:&quot;Roadgeek 2005 Series E&quot;;fill:#000;stroke:none;stroke-width:5.97014904" transform="translate(3 -3)"/>
    </g>
    <path d="M137.195 26.85v-187.78H116.1v-29.396h2.42q7.263 0 14.525-3.804t12.104-10.72h29.395v231.7ZM245.94 26.85v-187.78h-21.095v-29.396h2.42q7.263 0 14.525-3.804t12.104-10.72h29.394v231.7ZM497.9-88.654q0 27.666-6.57 52.91-6.57 25.245-18.675 40.807Q453.29 31 416.632 31q-24.553 0-40.46-10.029-15.909-10.029-26.283-31.47-7.262-14.87-11.758-35.965-4.496-21.44-4.496-42.19 0-28.703 6.57-53.257 6.917-24.553 18.675-41.152 10.375-13.142 24.553-19.366Q397.958-209 418.016-209q22.132 0 37.694 10.029t26.628 31.47q7.263 15.562 11.412 36.31 4.15 20.75 4.15 42.537m-36.657 0q0-19.712-3.458-36.311-3.458-16.946-10.375-28.704-5.533-8.99-12.795-13.14-6.916-4.15-17.291-4.842-13.487-.692-22.478 6.225t-14.87 22.478q-4.496 10.375-6.917 25.245-2.075 14.524-2.075 29.049 0 18.674 3.458 35.965t10.375 28.358q5.533 8.991 13.14 13.487 7.609 4.495 18.675 4.495 12.796 0 21.095-6.916 8.646-6.917 14.525-22.479 1.729-4.495 3.458-10.72 1.73-6.57 2.767-13.487 1.383-7.262 2.075-14.524.691-7.263.691-14.18" style="font-style:normal;font-variant:normal;font-weight:400;font-stretch:normal;font-size:345.82131958px;line-height:0;font-family:&quot;Roadgeek 2005 Series D&quot;;-inkscape-font-specification:&quot;Roadgeek 2005 Series D&quot;;letter-spacing:0;word-spacing:0;fill:#000;fill-opacity:1;stroke:none;stroke-width:8.64553261"/>
  </g>
</svg>
