<svg xmlns="http://www.w3.org/2000/svg" viewBox="0 0 227 452" role="img" aria-labelledby="title">
  <title id="title">Verkehrszeichen R5-400-NSW - No Stopping (used in NSW)</title>
  <g transform="translate(0 155)">
    <rect width="225" height="450" x="1" y="-154" rx="25" ry="25" style="opacity:1;fill:#be121e;fill-opacity:1;fill-rule:nonzero;stroke:none;stroke-width:71.61280823;stroke-linecap:square;stroke-linejoin:round;stroke-miterlimit:4;stroke-dasharray:none;stroke-opacity:1"/>
    <rect width="217" height="442" x="5" y="-150" rx="21" ry="21" style="opacity:1;fill:#fff;fill-opacity:1;fill-rule:nonzero;stroke:none;stroke-width:69.70022583;stroke-linecap:square;stroke-linejoin:round;stroke-miterlimit:4;stroke-dasharray:none;stroke-opacity:1"/>
    <rect width="209" height="434" x="9" y="-146" rx="17" ry="17" style="opacity:1;fill:#be121e;fill-opacity:1;fill-rule:nonzero;stroke:none;stroke-width:67.78150177;stroke-linecap:square;stroke-linejoin:round;stroke-miterlimit:4;stroke-dasharray:none;stroke-opacity:1"/>
    <path d="m188.5 255-20.173 15.375c-2.504 1.89-5.865-.843-4.52-3.675l2.693-5.7H70v-12h96.5l-2.693-5.7c-1.345-2.832 2.016-5.564 4.52-3.675z" style="color:#000;font-style:normal;font-variant:normal;font-weight:400;font-stretch:normal;font-size:medium;line-height:normal;font-family:sans-serif;font-variant-ligatures:normal;font-variant-position:normal;font-variant-caps:normal;font-variant-numeric:normal;font-variant-alternates:normal;font-feature-settings:normal;text-indent:0;text-align:start;text-decoration:none;text-decoration-line:none;text-decoration-style:solid;text-decoration-color:#000;letter-spacing:normal;word-spacing:normal;text-transform:none;writing-mode:lr-tb;direction:ltr;text-orientation:mixed;dominant-baseline:auto;baseline-shift:baseline;text-anchor:start;white-space:normal;shape-padding:0;clip-rule:nonzero;display:inline;overflow:visible;visibility:visible;opacity:1;isolation:auto;mix-blend-mode:normal;color-interpolation:sRGB;color-interpolation-filters:linearRGB;solid-color:#000;solid-opacity:1;vector-effect:none;fill:#fff;fill-opacity:1;fill-rule:nonzero;stroke:none;stroke-width:5.9961462;stroke-linecap:square;stroke-linejoin:round;stroke-miterlimit:4;stroke-dasharray:none;stroke-dashoffset:0;stroke-opacity:1;color-rendering:auto;image-rendering:auto;shape-rendering:auto;text-rendering:auto"/>
    <path d="m38.5 255 20.173 15.375c2.504 1.89 5.865-.843 4.52-3.675L60.5 261H157v-12H60.5l2.693-5.7c1.345-2.832-2.016-5.564-4.52-3.675z" style="color:#000;font-style:normal;font-variant:normal;font-weight:400;font-stretch:normal;font-size:medium;line-height:normal;font-family:sans-serif;font-variant-ligatures:normal;font-variant-position:normal;font-variant-caps:normal;font-variant-numeric:normal;font-variant-alternates:normal;font-feature-settings:normal;text-indent:0;text-align:start;text-decoration:none;text-decoration-line:none;text-decoration-style:solid;text-decoration-color:#000;letter-spacing:normal;word-spacing:normal;text-transform:none;writing-mode:lr-tb;direction:ltr;text-orientation:mixed;dominant-baseline:auto;baseline-shift:baseline;text-anchor:start;white-space:normal;shape-padding:0;clip-rule:nonzero;display:inline;overflow:visible;visibility:visible;opacity:1;isolation:auto;mix-blend-mode:normal;color-interpolation:sRGB;color-interpolation-filters:linearRGB;solid-color:#000;solid-opacity:1;vector-effect:none;fill:#fff;fill-opacity:1;fill-rule:nonzero;stroke:none;stroke-width:5.9961462;stroke-linecap:square;stroke-linejoin:round;stroke-miterlimit:4;stroke-dasharray:none;stroke-dashoffset:0;stroke-opacity:1;color-rendering:auto;image-rendering:auto;shape-rendering:auto;text-rendering:auto"/>
    <g aria-label="NO" style="font-style:normal;font-variant:normal;font-weight:400;font-stretch:normal;font-size:57.6368866px;line-height:0;font-family:&quot;Roadgeek 2005 Series C&quot;;-inkscape-font-specification:&quot;Roadgeek 2005 Series C&quot;;letter-spacing:0;word-spacing:0;fill:#000;fill-opacity:1;stroke:none;stroke-width:1.44092214">
      <path d="m105.464-79.692-11.93-25.879v25.88H88v-38.617h5.533l10.605 23.17v-23.17h5.533v38.616zM139-99.058q0 4.438-.518 7.55-.461 3.113-1.672 5.88-1.44 3.458-3.63 5.072Q131.046-79 127.76-79q-3.458 0-5.648-1.556-2.133-1.614-3.574-5.072-1.21-2.824-1.729-5.88-.46-3.112-.46-7.55 0-4.38.46-7.492.519-3.17 1.73-5.937 1.498-3.458 3.63-4.957 2.19-1.556 5.591-1.556 3.343 0 5.476 1.556 2.132 1.499 3.573 5.072.577 1.441.98 2.882.461 1.441.692 3.055.288 1.556.403 3.4.115 1.787.115 3.977m-5.302 0q0-1.613-.115-2.94-.058-1.325-.231-2.42-.115-1.153-.346-2.19-.23-1.038-.519-2.075-.749-2.594-1.902-3.746-1.095-1.153-2.824-1.153-3.573 0-4.899 4.784-.692 2.19-.98 4.438-.23 2.19-.23 5.418 0 1.556.057 2.881.116 1.269.23 2.421.174 1.095.404 2.19.23 1.096.519 2.248 1.326 4.784 4.9 4.784 1.728 0 2.823-1.153 1.153-1.152 1.902-3.63.346-1.153.577-2.19.23-1.096.346-2.249.172-1.152.23-2.42.058-1.326.058-2.998" style="font-style:normal;font-variant:normal;font-weight:400;font-stretch:normal;line-height:0;font-family:&quot;Roadgeek 2005 Series C&quot;;-inkscape-font-specification:&quot;Roadgeek 2005 Series C&quot;;fill:#fff;stroke:none;stroke-width:1.44092214"/>
      <g aria-label="STOPPING" style="font-style:normal;font-variant:normal;font-weight:400;font-stretch:normal;font-size:57.88711929px;line-height:0;font-family:&quot;Roadgeek 2005 Series B&quot;;-inkscape-font-specification:&quot;Roadgeek 2005 Series B&quot;;letter-spacing:-.34660417px;word-spacing:0;fill:#000;fill-opacity:1;stroke:none;stroke-width:2.08527088">
        <path d="M20.36 287.028q0 2.026-.868 3.994-.81 1.968-2.257 3.183-.926.81-2.258 1.274-1.273.521-2.778.521-8.105 0-8.568-10.362h5.037q0 1.158.057 1.679.116.52.348 1.158.29 1.157 1.1 1.852.868.637 2.026.637 1.447 0 2.257-1.042.869-1.042.869-2.895 0-2.604-.985-4.862-.984-2.316-3.241-4.978-1.332-1.505-2.258-2.547-.868-1.1-1.158-1.505-3.125-3.821-3.125-8.047 0-1.968.578-3.647.58-1.678 1.621-2.894 1.1-1.216 2.547-1.852 1.447-.695 3.184-.695 7.12 0 7.873 9.088h-5.036q-.116-2.257-.753-3.241t-1.968-.984q-1.447 0-2.258 1.157-.752 1.1-.752 3.068 0 1.332.579 2.49.636 1.157 2.141 2.836 1.563 1.794 2.547 2.952t1.621 2.026q.695.81 1.1 1.563.405.695.868 1.621.81 1.852 1.332 4.168.579 2.257.579 4.284M32.834 261.557v33.748h-4.92v-33.748h-4.747v-5.036h14.704v5.036zM59.861 275.855v3.705q0 2.084-.231 4.342-.174 2.257-.695 4.457-.463 2.142-1.505 3.878-.984 1.68-2.605 2.721Q53.262 296 50.889 296q-2.432 0-4.053-1.042-1.562-1.042-2.604-2.72-.985-1.737-1.505-3.88-.464-2.199-.637-4.456-.174-2.258-.174-4.342v-7.467q0-2.142.174-4.342.231-2.2.752-4.284.521-2.141 1.505-3.762.984-1.679 2.547-2.663Q48.515 256 50.89 256t3.936 1.042q1.62.984 2.605 2.663 1.042 1.679 1.505 3.82.52 2.084.695 4.284.231 2.2.231 4.342zm-5.152 0q0-.81-.058-2.2 0-1.389-.116-3.01-.115-1.678-.347-3.357-.231-1.737-.694-3.126-.406-1.39-1.042-2.258-.637-.868-1.563-.868-1.1 0-1.853.926-.694.869-1.158 2.316-.405 1.39-.636 3.126-.174 1.736-.29 3.415-.058 1.62-.058 3.01.058 1.332.058 2.026 0 .637-.058 2.026 0 1.332.058 3.01.116 1.68.29 3.474.231 1.794.636 3.241.464 1.448 1.158 2.432.753.926 1.853.926t1.794-.926q.695-.984 1.1-2.432.463-1.447.637-3.241.173-1.795.231-3.474.116-1.678.058-3.01zM83.48 267.809q0 4.862-2.488 7.757-2.49 2.836-6.6 2.836h-2.72v16.903h-4.92v-38.784h7.64q1.621 0 3.01.405 1.448.405 2.432 1.216 1.62 1.331 2.605 3.936 1.042 2.547 1.042 5.731m-5.036 0q0-3.3-1.041-4.747-.985-1.505-3.01-1.505h-2.721v11.867h2.72q2.2 0 3.126-1.216.926-1.273.926-4.399M105.18 267.809q0 4.862-2.488 7.757-2.49 2.836-6.6 2.836h-2.72v16.903h-4.92v-38.784h7.64q1.621 0 3.01.405 1.448.405 2.432 1.216 1.62 1.331 2.605 3.936 1.042 2.547 1.042 5.731m-5.035 0q0-3.3-1.042-4.747-.984-1.505-3.01-1.505h-2.721v11.867h2.72q2.2 0 3.127-1.216.926-1.273.926-4.399M110.152 295.305v-38.784h4.92v38.784zM135.763 295.305l-7.583-22.98v22.98h-4.92v-38.784h4.92l6.888 19.334v-19.334h4.92v38.784zM163.631 286.449q0 1.331-.174 2.72-.173 1.39-.405 2.316-.637 2.026-2.431 3.3-1.795 1.215-4.457 1.215-3.01 0-4.805-1.216t-2.72-3.994q-.464-1.331-.811-2.72-.29-1.39-.463-3.126-.174-1.737-.29-3.937-.057-2.2-.057-5.152 0-2.894.057-5.036.116-2.2.29-3.878.231-1.737.579-3.126.347-1.39.868-2.779.926-2.72 2.663-3.878 1.794-1.158 4.689-1.158 3.3 0 5.152 1.968 1.852 1.91 2.315 5.5h-4.92q-.348-2.432-2.432-2.432-2.836 0-3.415 3.763l-.347 2.315q-.174 1.1-.29 2.374-.058 1.273-.115 2.836-.058 1.563-.058 3.531 0 2.026.058 3.531.057 1.505.115 2.837.116 1.273.232 2.431t.29 2.374q.405 1.91 1.157 2.952.753.984 2.084.984t2.026-1.1q.695-1.158.695-3.126v-5.152h-2.316v-5.036h7.236z" style="font-style:normal;font-variant:normal;font-weight:400;font-stretch:normal;line-height:0;font-family:&quot;Roadgeek 2005 Series B&quot;;-inkscape-font-specification:&quot;Roadgeek 2005 Series B&quot;;letter-spacing:-.34660417px;fill:#fff;stroke:none;stroke-width:2.08527088" transform="translate(29.869 -315)"/>
      </g>
    </g>
  </g>
</svg>
