<svg xmlns="http://www.w3.org/2000/svg" xml:space="preserve" viewBox="0 0 385.844 513.469" role="img" aria-labelledby="title">
  <title id="title">Verkehrszeichen R2-15 - U-turn Permitted</title>
  <path d="M-622.752-303.844h307.18c21.211 0 38.098-16.887 38.098-38.067v-434.814c0-20.789-16.887-38.093-38.098-38.093h-307.18c-20.763 0-38.067 17.304-38.067 38.093v434.814c0 21.18 17.304 38.067 38.067 38.067z" style="fill:#fff;fill-opacity:1;fill-rule:evenodd;stroke:#000;stroke-width:2.50028038;stroke-linecap:butt;stroke-linejoin:miter;stroke-miterlimit:11.47399998;stroke-opacity:1;stroke-dasharray:none" transform="translate(662.063 816.063)"/>
  <path d="M-622.752-310.334h307.18c17.304 0 31.155-14.273 31.155-31.577v-434.814a31.03 31.03 0 0 0-31.155-31.155h-307.18c-17.304 0-31.128 13.85-31.128 31.155v434.814c0 17.304 13.824 31.577 31.128 31.577" style="fill:#000;fill-opacity:1;fill-rule:evenodd;stroke:none" transform="translate(662.063 816.063)"/>
  <path d="M-622.752-324.185h307.18c9.976 0 17.758-7.782 17.758-17.726v-434.814c0-9.975-7.782-17.757-17.758-17.757h-307.18c-9.944 0-17.726 7.782-17.726 17.757v434.814c0 9.944 7.782 17.726 17.726 17.726" style="fill:#fff;fill-opacity:1;fill-rule:evenodd;stroke:none" transform="translate(662.063 816.063)"/>
  <path d="M-530.372-651.258v-96.47h25.305v93.444c0 17.95 18.601 33.738 36.989 33.738 17.517 0 33.311-14.491 33.311-32.228v-94.953h26.602v94.953c0 32.228-29.415 58.402-60.997 58.402-29.414 0-61.21-26.174-61.21-56.886M-613.006-546.554h56.236v12.762h-21.196v63.804h-13.626v-63.804h-21.414zM-542.925-498.319v-48.235h12.543v46.72c0 8.87 9.303 16.87 18.6 16.87 8.653 0 16.659-7.354 16.659-16.22v-47.37h13.194v47.37c0 16.22-14.71 29.202-30.498 29.202-14.71 0-30.498-12.981-30.498-28.337M-462.463-546.554h36.77c11.678 0 22.497 11.033 22.497 22.711 0 7.788-3.896 19.252-12.548 21.414l14.277 32.441h-14.277l-13.627-29.847h-20.117v29.847h-12.975zm12.975 13.195v20.33h23.795c5.193 0 9.949-4.756 9.949-10.163 0-3.464-5.84-10.167-9.95-10.167zM-386.543-546.554h12.11l35.692 50.615v-50.615h13.194v76.566h-11.897l-35.691-51.907v51.907h-13.408zM-613.87-422.17h15.355c8.006 0 12.548 6.49 12.548 14.71 0 6.918-5.844 14.491-12.548 14.491h-8.22v21.847h-7.136zm7.136 7.136v14.492h9.303c3.245 0 4.755-5.188 4.755-7.569 0-2.38-2.161-6.923-5.188-6.923zM-577.752-422.17h24.66v7.569h-17.305v12.762h10.381v6.703h-10.38v16.872h18.168v7.142h-25.524zM-523.46-395.781l7.57 24.659h-7.788l-6.704-23.795h-6.053v23.795h-7.355v-51.048h16.44c6.271 0 11.46 7.788 11.46 14.059 0 4.975-2.809 10.6-7.57 12.33m-3.89-6.058c3.24 0 3.89-3.891 3.89-6.485 0-3.032-.22-6.058-3.89-6.058h-9.085v12.543zM-507.671-422.17h7.355l9.73 27.472 8.439-27.472h7.568v51.048h-6.704v-28.988l-9.303 28.988-9.73-28.988v28.988h-7.355z" style="fill:#000;fill-opacity:1;fill-rule:evenodd;stroke:none" transform="translate(662.063 816.063)"/>
  <path d="M-463.979-371.128h8.003v-51.045h-8.003z" style="fill:#000;fill-opacity:1;fill-rule:nonzero;stroke:none" transform="translate(662.063 816.063)"/>
  <path d="M-449.269-422.17h25.524v6.704h-9.303v44.344h-7.355v-44.344h-8.866zM-419.422-422.17h25.524v6.704h-9.303v44.344h-7.355v-44.344h-8.866zM-386.33-422.17h24.66v7.569h-17.305v12.762h10.382v6.703h-10.382v16.872h18.17v7.142h-25.525zM-340.257-422.17c12.976 0 15.788 13.846 15.788 24.227s-1.729 26.82-15.788 26.82h-12.11v-51.047zm-.22 7.355h-4.543v36.338h5.194c8 0 8-11.679 8-19.466 0-6.058-.432-16.872-8.651-16.872" style="fill:#000;fill-opacity:1;fill-rule:evenodd;stroke:none" transform="translate(662.063 816.063)"/>
</svg>
