<svg xmlns="http://www.w3.org/2000/svg" viewBox="0 0 154.277 101.9" role="img" aria-labelledby="title">
  <title id="title">Verkehrszeichen R6-24 - Railway Crossing</title>
  <path d="M-259.946-472.634h164.832v21.733h-164.832z" style="opacity:1;fill:#fff;fill-opacity:1;fill-rule:nonzero;stroke:#000;stroke-width:.661458;stroke-linecap:square;stroke-linejoin:round;stroke-miterlimit:4;stroke-dasharray:none;stroke-dashoffset:0;stroke-opacity:1" transform="rotate(30 -1006.939 269.808)"/>
  <path d="m19.133-513.698 1.148-6.71-2.406-1.39-3.192 5.531-2.008-1.159 7.326-12.689 4.185 2.417q.739.426 1.215.827.486.382.828.882.297.45.44.987.175.53.17 1.107.024.57-.128 1.14-.121.56-.395 1.033-.295.512-.73.917-.407.397-.923.68-.487.274-1.063.396-.556.133-1.101.07l-1.188 7.219zm5.176-9.183q.23-.397.229-.877 0-.48-.26-.908-.169-.274-.355-.432-.176-.177-.668-.462l-2.406-1.388-1.793 3.106 2.405 1.388q.474.274.704.356.25.093.572.103.499.01.915-.23.427-.258.657-.656M33.515-505.394l.806-4.282-3.958-2.285-3.306 2.838-2.14-1.235 11.7-10.163 1.99 1.148-2.952 15.214zm2.092-11.014-3.363 2.806 2.538 1.465zM40.17-501.552l7.326-12.689 2.045 1.181-7.325 12.69zM47.833-497.128l7.326-12.688 2.007 1.159-6.243 10.813 5.87 3.39-1.082 1.875z" style="font-style:normal;font-variant:normal;font-weight:400;font-stretch:normal;font-size:179.104px;line-height:0;font-family:&quot;Roadgeek 2005 Series D&quot;;-inkscape-font-specification:&quot;Roadgeek 2005 Series D&quot;;letter-spacing:24.5427px;word-spacing:0;fill:#000;fill-opacity:1;stroke:none;stroke-width:2.36329" transform="translate(0 539.617)"/>
  <path d="m99.259-467.437-1.78-1.028 2.694-9.302-6.653 7.017-1.78-1.028 5.451-13.771 2.046 1.18-2.875 7.255 5.47-5.756 1.95 1.126-2.212 7.637 4.844-6.117 2.046 1.18zM116.333-457.579l.806-4.282-3.958-2.285-3.306 2.839-2.14-1.236 11.701-10.163 1.989 1.148-2.952 15.215zm2.092-11.014-3.362 2.806 2.537 1.465zM133.056-455.297l-3.193 5.53-2.007-1.16 3.193-5.53-.318-9.728 2.405 1.389.199 6.654 5.9-3.133 2.367 1.366z" style="font-style:normal;font-variant:normal;font-weight:400;font-stretch:normal;font-size:179.104px;line-height:0;font-family:&quot;Roadgeek 2005 Series D&quot;;-inkscape-font-specification:&quot;Roadgeek 2005 Series D&quot;;letter-spacing:26.4583px;word-spacing:0;fill:#000;fill-opacity:1;stroke:none;stroke-width:10.5819" transform="translate(0 539.617)"/>
  <path d="M228.722-395.496h164.832v21.733H228.722z" style="display:inline;opacity:1;fill:#fff;fill-opacity:1;fill-rule:nonzero;stroke:#000;stroke-width:.661458;stroke-linecap:square;stroke-linejoin:round;stroke-miterlimit:4;stroke-dasharray:none;stroke-dashoffset:0;stroke-opacity:1" transform="rotate(-30 1006.939 269.808)"/>
  <path d="M26.776-454.74q.465 3.34-2.131 4.84-1.371.79-2.573.778t-2.442-.809q-.895-.58-1.766-1.54-.872-.96-1.537-2.111-.844-1.463-1.249-3.009t-.24-2.738q.158-.993.725-1.784.586-.801 1.628-1.403 1.39-.802 2.634-.716 1.262.076 2.634 1.015l-1.367 1.813q-.478-.236-.845-.366-.349-.14-.671-.149-.304-.02-.61.084-.287.093-.635.294-.75.433-1.06 1.076-.294.632-.13 1.634.08.686.384 1.51.323.812.777 1.599.58 1.005 1.32 1.822.729.798 1.433 1.172.603.285 1.18.27.575-.017 1.215-.386.622-.359.889-.952.256-.61.19-1.572zM43.165-460.886l-5.057-4.199-2.322 1.341 3.082 5.339-1.938 1.119-7.072-12.25 4.04-2.333q.713-.412 1.278-.616.554-.222 1.138-.267.518-.03 1.037.108.527.11 1.008.394.488.254.89.656.41.372.675.83.285.493.413 1.053.136.53.122 1.1-.01.538-.18 1.079-.158.53-.473.955l5.461 4.477zm-5.18-8.76q-.221-.384-.623-.615t-.883-.221q-.312.01-.534.089-.233.06-.708.335l-2.322 1.341 1.73 2.998 2.323-1.34q.457-.264.637-.417.198-.163.362-.428.25-.412.25-.876-.01-.482-.232-.866zM59.06-478.205q.845 1.462 1.268 2.997.423 1.536.258 2.728-.232 1.962-2.17 3.081-1.298.75-2.445.705t-2.35-.861q-.838-.565-1.72-1.543-.892-.996-1.525-2.093-.876-1.518-1.279-3.017-.383-1.509-.268-2.745.147-1.012.707-1.774.567-.79 1.627-1.403 1.17-.675 2.3-.62 1.128.055 2.368.85.859.602 1.712 1.572.852.97 1.517 2.123m-1.938 1.118q-.601-1.042-1.29-1.814-.701-.79-1.426-1.2-.567-.307-1.077-.305-.493-.01-1.062.272-.734.375-.999 1.015-.264.64-.1 1.643.08.685.405 1.545.334.832.777 1.6.57.987 1.28 1.796.712.808 1.415 1.182.567.307 1.107.312.539.01 1.124-.332.677-.39.904-1.01.246-.63.082-1.632-.046-.29-.144-.672-.11-.4-.266-.798-.148-.426-.333-.83-.185-.406-.396-.772zM77.458-485.39q.486.84.587 1.733t-.179 1.761q-.248.753-.795 1.41-.539.628-1.325 1.082-1.59.918-3.21.732-1.611-.216-3.046-1.265l1.456-1.742q.89.656 1.842.74.94.066 1.818-.44.86-.496 1.076-1.303.224-.837-.22-1.605-.348-.603-.899-.797-.532-.204-1.192-.165-.67.021-1.408.18-.72.146-1.46.257-.338.05-.856.08-.518.031-1.103-.095-.577-.154-1.157-.526-.562-.383-1.005-1.15-.518-.897-.584-1.687-.077-.809.195-1.478.28-.698.869-1.282.607-.594 1.43-1.07 1.298-.749 2.548-.568 1.268.17 2.39 1.057l-1.423 1.505q-.315-.208-.69-.309-.317-.085-.778-.038-.442.036-.964.313-.34.172-.664.456-.315.256-.494.579-.18.323-.175.71-.01.37.273.769.364.545 1 .592.626.03 1.41-.132.786-.16 1.673-.355.894-.224 1.787-.155.883.051 1.726.54.85.46 1.547 1.666zM94.408-495.176q.486.84.587 1.733t-.178 1.76q-.248.753-.795 1.41-.54.629-1.326 1.083-1.59.918-3.21.731-1.611-.215-3.046-1.264l1.457-1.743q.89.656 1.841.741.94.066 1.818-.44.86-.496 1.076-1.304.224-.836-.22-1.604-.348-.603-.899-.797-.532-.205-1.192-.165-.67.021-1.408.18-.72.146-1.46.257-.337.049-.856.08t-1.103-.095q-.577-.155-1.157-.526-.562-.383-1.005-1.15-.518-.897-.584-1.687-.077-.809.195-1.478.28-.698.869-1.282.608-.594 1.43-1.07 1.298-.749 2.548-.568 1.269.17 2.39 1.057l-1.422 1.505q-.316-.208-.69-.309-.318-.085-.778-.038-.443.036-.965.313-.34.172-.663.456-.316.256-.495.579-.18.322-.175.71-.01.37.273.769.364.545 1 .592.626.03 1.411-.132.785-.16 1.672-.355.894-.224 1.788-.155.882.051 1.725.54.85.46 1.547 1.666zM105.46-496.852l-7.072-12.25 1.974-1.14 7.073 12.25zM122.505-506.693l-9.473-5.598 4.792 8.3-1.938 1.12-7.072-12.25 1.938-1.12 8.979 5.25-4.518-7.825 1.938-1.12 7.073 12.25zM139.364-521.302q.486.84.605 1.723.108.863-.097 1.69-.217.807-.76 1.511-.545.704-1.386 1.19-1.39.802-2.555.768-1.176-.052-2.39-.888-.859-.6-1.69-1.534-.824-.963-1.479-2.097-.422-.731-.742-1.497-.313-.795-.518-1.53-.197-.763-.257-1.46-.071-.714.01-1.296.158-.993.725-1.784.585-.8 1.628-1.403 1.407-.812 2.673-.69 1.255.105 2.71 1.19l-1.424 1.798q-.849-.583-1.496-.648-.629-.076-1.323.325-.75.433-1.061 1.076-.293.632-.13 1.634.08.686.406 1.546.333.831.777 1.6.57.987 1.233 1.798.682.801 1.312 1.217 1.137.66 2.253.016.932-.538 1.23-1.417.296-.878-.19-1.72l-.295-.511-2.23 1.288-1.12-1.939 4.17-2.406z" style="font-style:normal;font-variant:normal;font-weight:400;font-stretch:normal;font-size:172.911px;line-height:0;font-family:&quot;Roadgeek 2005 Series D&quot;;-inkscape-font-specification:&quot;Roadgeek 2005 Series D&quot;;letter-spacing:26.4583px;word-spacing:0;fill:#000;fill-opacity:1;stroke:none;stroke-width:.527801" transform="translate(0 539.617)"/>
</svg>
