<svg xmlns="http://www.w3.org/2000/svg" viewBox="0 0 177.938 310.5" role="img" aria-labelledby="title">
  <title id="title">Verkehrszeichen R2-V115 - U-turn Must Give Way (used in VIC)</title>
  <g style="display:inline">
    <path d="M368.123 7.805V-248.47l-.05-1.625-.15-1.625-.25-1.612-.35-1.588-.437-1.562-.538-1.538-.637-1.5-.725-1.462-.813-1.413-.887-1.362-.988-1.3-1.05-1.238-1.137-1.162-1.2-1.1-1.263-1.025-1.325-.95-1.387-.863-1.425-.775-1.475-.687-1.525-.588-1.55-.5-1.575-.4-1.6-.312-1.613-.2-1.625-.113-.937-.012H217.898l-1.625.05-1.625.15-1.612.25-1.588.35-1.562.437-1.538.538-1.5.637-1.462.725-1.413.813-1.35.9-1.3.975-1.25 1.05-1.162 1.137-1.1 1.2-1.025 1.263-.95 1.325-.863 1.387-.775 1.425-.675 1.475-.6 1.525-.5 1.55-.4 1.575-.312 1.6-.2 1.613-.113 1.625-.012.937V7.805l.05 1.625.15 1.612.25 1.613.35 1.588.437 1.575.538 1.537.637 1.5.725 1.45.813 1.413.9 1.362.975 1.3 1.05 1.238 1.137 1.174 1.2 1.1 1.263 1.026 1.325.937 1.387.863 1.425.776 1.475.686 1.525.588 1.55.501 1.575.398 1.6.312 1.613.2 1.625.113.937.015h123.713l1.625-.052 1.625-.148 1.612-.24 1.588-.35 1.562-.448 1.538-.537 1.5-.64 1.462-.725 1.413-.8 1.362-.9 1.3-.974 1.238-1.061 1.162-1.127 1.1-1.212 1.025-1.263.95-1.326.863-1.374.775-1.438.675-1.474.6-1.511.5-1.552.4-1.586.312-1.59.2-1.622.113-1.627.012-.925" style="fill:#fff;stroke:#000;stroke-width:1.20000005;stroke-linecap:square;stroke-linejoin:miter;stroke-miterlimit:2;stroke-opacity:1;stroke-dasharray:none" transform="translate(-190.781 275.594)"/>
    <path d="M262.073-248.47v27.463l.05 1.325.15 1.312.238 1.313.35 1.275.437 1.25.538 1.212.625 1.175.712 1.113.788 1.075.875 1 .95.925 1.012.862 1.063.775 1.137.7 1.175.613 1.225.512 1.25.438 1.288.325 1.3.237 1.325.125 1.325.038 1.325-.063 1.312-.162 1.3-.275 1.275-.35 1.25-.463 1.213-.55 1.162-.637 1.113-.725 1.05-.8.987-.888.925-.95.85-1.025.763-1.087.687-1.138.588-1.175.512-1.237.413-1.25.312-1.288.213-1.312.125-1.325.012-.9v-27.463h-7.587v27.463l-.05 1-.15.987-.25.963-.338.95-.437.9-.525.85-.6.8-.688.725-.75.662-.812.575-.863.5-.912.413-.95.312-.975.225-1 .125-1 .013-1-.075-.975-.175-.963-.275-.937-.375-.888-.463-.837-.537-.775-.625-.713-.713-.637-.762-.563-.838-.475-.875-.375-.925-.287-.962-.2-.975-.088-1-.012-.425v-27.463zM226.123-181.095v29.825h5.525v-29.825h8.013v-5.512h-21.538v5.512zM248.323-186.607v24.175l.05 1.087.15 1.075.25 1.063.338 1.037.437 1 .525.95.613.9.7.838.762.775.838.7.887.625.95.537 1 .45 1.025.35 1.05.263 1.088.162 1.087.063 1.088-.038 1.075-.137 1.062-.238 1.038-.337 1.012-.425.95-.513.913-.612.85-.675.775-.763.712-.825.638-.887.537-.938.463-.987.362-1.025.275-1.063.175-1.075.075-1.087v-24.425h-5.525v24.175l-.05.787-.15.788-.25.762-.337.713-.425.675-.5.612-.588.55-.637.475-.7.375-.738.3-.775.2-.787.1h-.8l-.788-.1-.775-.187-.737-.3-.7-.375-.65-.475-.575-.538-.513-.612-.437-.675-.338-.713-.25-.762-.15-.775-.05-.8v-24.2zM317.473-151.27v-35.337h5.525l12.713 22.912v-22.912h5.512v35.337h-5.512l-12.713-22.912v22.912zM319.91-133.595h21.538v5.525h-8v29.825h-5.525v-29.825h-8.012zM291.798-123.37l.05-1.05.15-1.05.25-1.012.35-1 .438-.95.525-.913.6-.85.687-.8.763-.725.825-.65.887-.562.938-.488.975-.387 1-.3 1.037-.2 1.05-.1h1.05l1.038.1 1.037.2 1 .287.988.388.925.487.887.563.825.65.763.725.687.8.613.85.525.912.125.263-4.963 2.4-.375-.65-.45-.588-.525-.525-.587-.45-.65-.362-.688-.275-.725-.175-.737-.088-.738.025-.737.113-.713.212-.675.313-.625.4-.575.475-.5.55-.425.6-.325.662-.25.713-.15.725-.05.737.05.588.15.587.25.538.325.512.413.425.475.375.525.275.575.188.587.087.363.013 3.487.325 1.038.162 1.012.25.988.35.962.45.9.525.863.613.787.687.713.775.65.825.562.888.475.937.388.975.287 1.013.2 1.037.088 1.038v1.05l-.113 1.05-.2 1.025-.3 1.012-.4.975-.487.925-.563.888-.662.825-.725.75-.8.687-.85.6-.913.525-.962.438-1 .337-1.013.238-1.05.15-1.05.037-.487-.012h-1.1l-1.1-.1-1.075-.188-1.063-.3-1.037-.387-.988-.488-.95-.562-.887-.65-.825-.738-.75-.8-.688-.862-.587-.938-.513-.975-.425-1.012-.175-.513 5.275-1.65.288.763.387.725.463.662.537.6.613.538.675.45.725.375.775.275.787.187.813.075.812-.012.025-.013.75.025.738-.075.712-.175.7-.275.65-.362.588-.45.525-.525.462-.588.363-.637.287-.688.188-.725.087-.737-.012-.738-.113-.737-.212-.713-.3-.675-.388-.637-.475-.563-.55-.512-.6-.425-.662-.338-.7-.262-.725-.15-.45-.038-3.1-.3-.95-.075-.938-.175-.912-.275-.888-.375-.825-.462-.787-.538-.725-.625-.65-.7-.575-.75-.5-.825-.413-.862-.312-.9-.213-.925-.125-.95zM281.286-109.407v-24.188h-5.525v24.188l-.05.787-.15.788-.25.762-.338.713-.425.675-.512.612-.575.55-.638.463-.7.387-.737.3-.775.2-.788.1h-.8l-.787-.1-.775-.2-.738-.287-.7-.388-.65-.462-.587-.538-.5-.612-.438-.675-.337-.725-.25-.75-.15-.788-.05-.787v-24.213h-5.525v24.188l.05 1.087.15 1.075.25 1.063.337 1.037.438.988.525.962.612.9.7.838.763.775.837.7.888.625.95.537.987.45 1.038.35 1.05.263 1.087.162 1.088.063 1.087-.05 1.075-.138 1.063-.225 1.037-.337 1.013-.425.95-.525.912-.6.85-.675.775-.763.713-.825.637-.887.538-.95.462-.988.363-1.025.275-1.05.175-1.075.075-1.087zM245.286-133.595v35.35h-5.513v-20.537l-8.175 20.537-8.175-20.475v20.475h-5.525v-35.35h5.525l8.175 20.438 8.175-20.438zM228.386-73.17l.362-1.012.438-.963.537-.925.625-.86.688-.815.775-.737.837-.664.888-.574.95-.5.975-.4 1.025-.313 1.05-.213 1.05-.111 1.075-.013 1.05.088 1.062.189 1.025.272.988.376.962.477.913.548.85.65.787.713.713.786.65.853.55.898.475.962.375.952-5.25 1.748-.288-.71-.375-.664-.462-.601-.538-.55-.6-.46-.662-.39-.7-.3-.738-.2-.75-.112h-.762l-.763.1-.737.188-.713.289-.662.373-.613.464-.537.536-.475.602-.375.66-.3.702-.075.236-.45 1.688-.363 1.699-.25 1.726-.162 1.739-.05 1.735.037 1.738.15 1.738.238 1.724.35 1.713.437 1.688.063.2.262.725.363.674.437.613.525.564.588.485.637.401.7.325.725.224.763.128.762.023.75-.062.75-.174.713-.264.675-.36.625-.44.562-.526.488-.585.4-.652.325-.687.225-.737.125-.749.025-.601v-1.486h-6.625v-5.528h12.15v7.014l-.05 1.075-.15 1.05-.25 1.037-.338 1.013-.437.962-.525.938-.613.861-.687.814-.763.749-.837.663-.888.602-.937.497-.975.413-1.025.325-1.038.212-1.062.128-1.063.023-1.062-.075-1.05-.176-1.025-.274-1-.363-.963-.462-.912-.548-.863-.625-.8-.714-.725-.788-.65-.837-.562-.899-.488-.952-.387-.999-.125-.388-.488-1.823-.4-1.852-.3-1.875-.2-1.886-.1-1.887v-1.89l.1-1.899.2-1.875.3-1.875.4-1.851.488-1.824zM265.948-80.57v35.35h-5.512v-35.35zM291.198-45.22l10.5-35.35h-5.762l-7.5 25.238-7.488-25.238h-5.762l10.487 35.35zM310.923-80.57v35.35h21.538v-5.525h-16.013v-9.936h11.038v-5.525h-11.038v-8.839h14.913v-5.525zM233.123 7.805l-4.75-35.35h5.575l2.588 19.3 4.762-19.3h5.075l4.738 19.052 2.612-19.052h5.575l-4.85 35.35h-5.087l-5.463-22.65-5.687 22.65zM301.148-27.545l12.15 19.664V7.805h5.525V-7.88l12.15-19.664h-6.35l-8.562 13.527-8.563-13.527zM276.76-7.668h7.126l-3.563-10.228zM265.524 7.805l12.313-35.35h4.975l12.312 35.35h-5.85l-3.462-9.948h-10.975l-3.463 9.948zM298.16-172.257h-8.324v-8.838h8.412l.663.075.637.163.613.262.562.35.513.438.437.5.35.562.263.613.175.637.075.663-.025.662-.125.65-.225.625-.313.588-.387.537-.475.463-.538.387-.587.313-.625.212-.663.113zm-13.85-14.35v35.337h5.526v-15.462h6.937l5.425 15.462h5.863l-5.825-16.35.887-.462.825-.538.788-.625.7-.7.637-.762.563-.838.475-.875.375-.912.287-.963.188-.975.1-1-.013-.987-.112-1-.213-.975-.3-.95-.4-.913-.487-.862-.563-.825-.65-.75-.725-.688-.787-.612-.85-.525-.888-.438-.937-.35-.963-.262-.987-.15-1-.05H284.31" style="fill:#000;fill-opacity:1;fill-rule:evenodd;stroke:none" transform="translate(-190.781 275.594)"/>
    <path d="M217.898-271.445h123.713v7.063H217.898l-1.262.05-1.25.15-1.238.25-1.212.35-1.188.437-1.137.525-1.1.625-1.038.713-.987.787-.925.863-.85.925-.763 1-.7 1.05-.6 1.112-.512 1.15-.425 1.188-.325 1.225-.238 1.237-.125 1.25-.037 1.025V7.805l.05 1.25.15 1.25.25 1.238.35 1.214.437 1.186.538 1.137.612 1.102.713 1.05.787.986.863.912.925.85 1 .777 1.062.686 1.1.6 1.15.525 1.188.412 1.225.338 1.237.224 1.25.125 1.025.038h123.713l1.262-.05 1.25-.15 1.238-.248 1.212-.34 1.188-.45 1.137-.524 1.1-.625 1.038-.713.987-.773.925-.865.85-.938.775-.999.688-1.048.6-1.114.512-1.15.425-1.186.325-1.214.238-1.238.125-1.262.037-1.013V-248.47l-.05-1.262-.15-1.25-.25-1.238-.35-1.212-.437-1.188-.525-1.137-.625-1.1-.713-1.038-.787-.987-.863-.925-.925-.85-1-.775-1.05-.688-1.112-.6-1.15-.512-1.188-.425-1.225-.325-1.237-.238-1.25-.125-1.025-.037v-7.063l1.512.05 1.513.15 1.5.238 1.475.35 1.45.45 1.412.537 1.375.625 1.338.725 1.287.8 1.225.888 1.163.975 1.1 1.037 1.037 1.113.95 1.187.875 1.238.788 1.287.7 1.338.612 1.387.525 1.425.425 1.463.325 1.475.225 1.5.138 1.512.025 1.225V7.805l-.05 1.514-.15 1.499-.238 1.501-.35 1.475-.45 1.45-.537 1.411-.625 1.387-.725 1.326-.8 1.289-.888 1.222-.975 1.163-1.037 1.1-1.113 1.038-1.175.95-1.25.877-1.287.786-1.338.7-1.387.614-1.425.525-1.463.423-1.475.325-1.5.238-1.512.124-1.225.038H217.898l-1.512-.05-1.513-.15-1.5-.25-1.475-.35-1.45-.437-1.412-.549-1.375-.625-1.338-.714-1.287-.812-1.225-.889-1.163-.974-1.1-1.037-1.025-1.114-.962-1.174-.875-1.238-.788-1.3-.7-1.337-.612-1.386-.513-1.426-.437-1.45-.325-1.488-.225-1.5-.138-1.5-.025-1.225V-248.47l.05-1.512.15-1.513.25-1.5.338-1.475.45-1.45.537-1.412.625-1.375.725-1.338.8-1.287.888-1.225.975-1.163 1.037-1.1 1.113-1.037 1.187-.95 1.238-.875 1.287-.788 1.35-.7 1.388-.612 1.412-.525 1.463-.425 1.475-.325 1.5-.225 1.512-.138z" style="fill:#000;fill-opacity:1;fill-rule:evenodd;stroke:none" transform="translate(-190.781 275.594)"/>
  </g>
</svg>
