<svg xmlns="http://www.w3.org/2000/svg" viewBox="0 0 110 386" role="img" aria-labelledby="title">
  <title id="title">Verkehrszeichen R6-249 - Wet weather speed limit ahead</title>
  <rect width="108" height="384" x="1" y="1" ry="13.151" style="fill:#fff;fill-opacity:1;stroke:#000;stroke-width:1.99972892;stroke-linecap:round;stroke-linejoin:round;stroke-miterlimit:4;stroke-dasharray:none;stroke-opacity:1"/>
  <rect width="3.605" height="10.294" x="34.584" y="26.477" ry="0" style="fill:#000;fill-opacity:1;stroke:none;stroke-width:2;stroke-linecap:round;stroke-linejoin:miter;stroke-miterlimit:4;stroke-dasharray:none;stroke-opacity:1" transform="matrix(.82897 .5593 -.56981 .82178 0 0)"/>
  <rect width="3.605" height="10.294" x="56.185" y="11.776" ry="0" style="fill:#000;fill-opacity:1;stroke:none;stroke-width:2;stroke-linecap:round;stroke-linejoin:miter;stroke-miterlimit:4;stroke-dasharray:none;stroke-opacity:1" transform="matrix(.82897 .5593 -.56981 .82178 0 0)"/>
  <rect width="3.605" height="10.294" x="79.495" y="-4.089" ry="0" style="fill:#000;fill-opacity:1;stroke:none;stroke-width:2;stroke-linecap:round;stroke-linejoin:miter;stroke-miterlimit:4;stroke-dasharray:none;stroke-opacity:1" transform="matrix(.82897 .5593 -.56981 .82178 0 0)"/>
  <rect width="3.605" height="10.294" x="104.802" y="-21.313" ry="0" style="fill:#000;fill-opacity:1;stroke:none;stroke-width:2;stroke-linecap:round;stroke-linejoin:miter;stroke-miterlimit:4;stroke-dasharray:none;stroke-opacity:1" transform="matrix(.82897 .5593 -.56981 .82178 0 0)"/>
  <rect width="3.605" height="10.294" x="51.736" y="51.429" ry="0" style="fill:#000;fill-opacity:1;stroke:none;stroke-width:2;stroke-linecap:round;stroke-linejoin:miter;stroke-miterlimit:4;stroke-dasharray:none;stroke-opacity:1" transform="matrix(.82897 .5593 -.56981 .82178 0 0)"/>
  <rect width="3.605" height="10.294" x="73.337" y="36.728" ry="0" style="fill:#000;fill-opacity:1;stroke:none;stroke-width:2;stroke-linecap:round;stroke-linejoin:miter;stroke-miterlimit:4;stroke-dasharray:none;stroke-opacity:1" transform="matrix(.82897 .5593 -.56981 .82178 0 0)"/>
  <rect width="3.605" height="10.294" x="96.647" y="20.863" ry="0" style="fill:#000;fill-opacity:1;stroke:none;stroke-width:2;stroke-linecap:round;stroke-linejoin:miter;stroke-miterlimit:4;stroke-dasharray:none;stroke-opacity:1" transform="matrix(.82897 .5593 -.56981 .82178 0 0)"/>
  <rect width="3.605" height="10.294" x="121.954" y="3.639" ry="0" style="fill:#000;fill-opacity:1;stroke:none;stroke-width:2;stroke-linecap:round;stroke-linejoin:miter;stroke-miterlimit:4;stroke-dasharray:none;stroke-opacity:1" transform="matrix(.82897 .5593 -.56981 .82178 0 0)"/>
  <rect width="3.605" height="10.294" x="50.194" y="33.709" ry="0" style="fill:#000;fill-opacity:1;stroke:none;stroke-width:2;stroke-linecap:round;stroke-linejoin:miter;stroke-miterlimit:4;stroke-dasharray:none;stroke-opacity:1" transform="matrix(.82897 .5593 -.56981 .82178 0 0)"/>
  <rect width="3.605" height="10.294" x="73.695" y="17.714" ry="0" style="fill:#000;fill-opacity:1;stroke:none;stroke-width:2;stroke-linecap:round;stroke-linejoin:miter;stroke-miterlimit:4;stroke-dasharray:none;stroke-opacity:1" transform="matrix(.82897 .5593 -.56981 .82178 0 0)"/>
  <rect width="3.605" height="10.294" x="99.857" y="-.092" ry="0" style="fill:#000;fill-opacity:1;stroke:none;stroke-width:2;stroke-linecap:round;stroke-linejoin:miter;stroke-miterlimit:4;stroke-dasharray:none;stroke-opacity:1" transform="matrix(.82897 .5593 -.56981 .82178 0 0)"/>
  <rect width="3.605" height="10.294" x="67.741" y="59.238" ry="0" style="fill:#000;fill-opacity:1;stroke:none;stroke-width:2;stroke-linecap:round;stroke-linejoin:miter;stroke-miterlimit:4;stroke-dasharray:none;stroke-opacity:1" transform="matrix(.82897 .5593 -.56981 .82178 0 0)"/>
  <rect width="3.605" height="10.294" x="91.243" y="43.243" ry="0" style="fill:#000;fill-opacity:1;stroke:none;stroke-width:2;stroke-linecap:round;stroke-linejoin:miter;stroke-miterlimit:4;stroke-dasharray:none;stroke-opacity:1" transform="matrix(.82897 .5593 -.56981 .82178 0 0)"/>
  <rect width="3.605" height="10.294" x="117.404" y="25.437" ry="0" style="fill:#000;fill-opacity:1;stroke:none;stroke-width:2;stroke-linecap:round;stroke-linejoin:miter;stroke-miterlimit:4;stroke-dasharray:none;stroke-opacity:1" transform="matrix(.82897 .5593 -.56981 .82178 0 0)"/>
  <g style="font-style:normal;font-weight:400;font-size:40px;line-height:114.99999762%;font-family:sans-serif;letter-spacing:1px;word-spacing:0;fill:#000;fill-opacity:1;stroke:none;stroke-width:1px;stroke-linecap:butt;stroke-linejoin:miter;stroke-opacity:1">
    <path d="m46.02 242.308-2.97 18.425h-2.282l-1.733-9.625-1.76 9.625h-2.31l-2.915-18.425h2.585l1.568 9.817 1.787-9.817h2.09l1.733 9.817 1.622-9.817zM60.658 260.733h-9.377v-18.425h8.662v2.585h-6.022v4.647h3.822v2.53h-3.822v6.078h6.737zM75.685 244.783H72.33v15.95h-2.667v-15.95h-3.355v-2.475h9.377z" style="font-style:normal;font-variant:normal;font-weight:400;font-stretch:normal;font-size:27.5px;line-height:114.99999762%;font-family:&quot;Highway Gothic Narrow&quot;;-inkscape-font-specification:&quot;Highway Gothic Narrow&quot;;text-align:center;letter-spacing:3.20000005px;text-anchor:middle;fill:#000;fill-opacity:1"/>
  </g>
  <text xml:space="preserve" x="45.797" y="279.278" style="font-style:normal;font-weight:400;font-size:40px;line-height:125%;font-family:sans-serif;letter-spacing:0;word-spacing:0;fill:#000;fill-opacity:1;stroke:none;stroke-width:1px;stroke-linecap:butt;stroke-linejoin:miter;stroke-opacity:1"/>
  <g style="font-style:normal;font-weight:400;font-size:40px;line-height:114.99999762%;font-family:sans-serif;letter-spacing:.5px;word-spacing:0;fill:#000;fill-opacity:1;stroke:none;stroke-width:1px;stroke-linecap:butt;stroke-linejoin:miter;stroke-opacity:1">
    <path d="m19.54 269.866-2.97 18.425h-2.282l-1.732-9.625-1.76 9.625h-2.31L5.57 269.866h2.585l1.567 9.818 1.788-9.818h2.09l1.732 9.818 1.623-9.818zM32.978 288.291h-9.377v-18.425h8.662v2.585h-6.022v4.648h3.822v2.53h-3.822v6.077h6.737zM48.84 288.291h-2.667l-1.292-5.032h-3.933l-1.237 5.032h-2.64l4.592-18.425h2.585zm-4.592-7.617-1.347-5.308-1.293 5.308zM61.589 272.341h-3.355v15.95h-2.668v-15.95h-3.355v-2.475h9.378zM76 288.291h-2.668v-8.332h-5.033v8.332h-2.64v-18.425h2.64v7.508h5.033v-7.508h2.667zM90.178 288.291H80.8v-18.425h8.663v2.585H83.44v4.648h3.823v2.53H83.44v6.077h6.738zM105.462 288.291h-2.722l-2.448-8.662h-2.53v8.662h-2.64v-18.425h5.5q2.173 0 3.493 1.348 1.347 1.347 1.347 3.575 0 1.457-.742 2.75-.715 1.265-1.925 1.705zm-2.585-13.585q0-1.045-.66-1.65t-1.732-.605h-2.723v4.538h2.723q.99 0 1.677-.66.715-.66.715-1.623" style="font-style:normal;font-variant:normal;font-weight:400;font-stretch:normal;font-size:27.5px;line-height:114.99999762%;font-family:&quot;Highway Gothic Narrow&quot;;-inkscape-font-specification:&quot;Highway Gothic Narrow&quot;;text-align:center;letter-spacing:2px;text-anchor:middle;fill:#000;fill-opacity:1"/>
  </g>
  <g style="font-style:normal;font-weight:400;font-size:40px;line-height:114.99999762%;font-family:sans-serif;letter-spacing:1px;word-spacing:0;fill:#000;fill-opacity:1;stroke:none;stroke-width:1px;stroke-linecap:butt;stroke-linejoin:miter;stroke-opacity:1">
    <path d="M26.807 313.411q0 2.173-1.347 3.85-1.348 1.65-3.713 1.65-2.172 0-3.685-1.677-1.485-1.705-1.485-4.07h2.53q0 1.457.715 2.31.743.852 1.87.852 1.045 0 1.815-.825.77-.852.743-1.98-.028-.907-.688-1.897-.632-1.018-2.365-2.118-1.98-1.265-2.887-2.502-.908-1.265-.908-2.365-.027-1.98 1.265-3.355 1.293-1.403 3.3-1.43 2.118 0 3.465 1.402 1.375 1.375 1.375 3.355h-2.695q.028-1.072-.687-1.677-.688-.605-1.458-.55-.907.055-1.402.687-.495.605-.468 1.485.028.578.495 1.128.468.55 2.035 1.65 2.2 1.485 3.163 2.915.99 1.43 1.017 3.162M41.094 304.996q0-1.045-.66-1.65t-1.732-.605h-2.723v4.538h2.723q.99 0 1.677-.66.715-.66.715-1.623m-2.585 4.923h-2.53v8.662h-2.64v-18.425h5.5q2.173 0 3.493 1.348 1.347 1.347 1.347 3.575-.027 1.98-1.32 3.41-1.265 1.43-3.85 1.43M59.961 318.581h-9.378v-18.425h8.663v2.585h-6.023v4.648h3.823v2.53h-3.823v6.077h6.738zM76.476 318.581h-9.378v-18.425h8.663v2.585h-6.023v4.648h3.823v2.53h-3.823v6.077h6.738zM93.458 309.369q0 4.455-1.458 6.847-1.43 2.365-4.262 2.365h-4.565v-18.425h4.565q2.832 0 4.262 2.393 1.458 2.365 1.458 6.82m-2.558-.055q0-3.493-.907-5.033-.88-1.567-2.365-1.567H85.73v13.255h1.898q1.485 0 2.365-1.54.907-1.568.907-5.115" style="font-style:normal;font-variant:normal;font-weight:400;font-stretch:normal;font-size:27.5px;line-height:114.99999762%;font-family:&quot;Highway Gothic Narrow&quot;;-inkscape-font-specification:&quot;Highway Gothic Narrow&quot;;text-align:center;letter-spacing:4px;text-anchor:middle;fill:#000;fill-opacity:1"/>
  </g>
  <g style="font-style:normal;font-variant:normal;font-weight:400;font-stretch:normal;font-size:40px;line-height:114.99999762%;font-family:&quot;Highway Gothic&quot;;-inkscape-font-specification:&quot;Highway Gothic&quot;;letter-spacing:3.5px;word-spacing:0;fill:#000;fill-opacity:1;stroke:none;stroke-width:1px;stroke-linecap:butt;stroke-linejoin:miter;stroke-opacity:1">
    <path d="M32.985 346.603h-11.44v-18.425h2.915v15.455h8.525zM41.603 346.603h-2.97v-18.425h2.97zM61.57 346.603h-2.914v-10.67l-4.263 10.67-4.262-10.67v10.67h-2.915v-18.425h2.915l4.262 10.34 4.263-10.34h2.915zM70.095 346.603h-2.97v-18.425h2.97zM87.176 330.763h-4.263v15.84h-2.915v-15.84h-4.207v-2.585h11.385z" style="font-style:normal;font-variant:normal;font-weight:400;font-stretch:normal;font-size:27.5px;line-height:114.99999762%;font-family:&quot;Highway Gothic&quot;;-inkscape-font-specification:&quot;Highway Gothic&quot;;text-align:center;letter-spacing:2px;text-anchor:middle;fill:#000;fill-opacity:1"/>
  </g>
  <g style="font-style:normal;font-weight:400;font-size:40px;line-height:114.99999762%;font-family:sans-serif;letter-spacing:1px;word-spacing:0;fill:#000;fill-opacity:1;stroke:none;stroke-width:1px;stroke-linecap:butt;stroke-linejoin:miter;stroke-opacity:1">
    <path d="M26.511 374.253h-3.08l-1.815-5.17H15.87l-1.815 5.17h-3.108l6.325-18.425h2.915zm-5.94-8.14-1.815-5.17-1.87 5.17zM43.962 374.253h-2.915v-8.002h-6.71v8.002h-2.915v-18.425h2.915v7.453h6.71v-7.453h2.915zM61.116 374.253h-11.44v-18.425h10.862v2.915h-7.947v4.538h5.362v2.97h-5.362v5.032h8.525zM81.595 374.253h-3.08l-1.815-5.17h-5.747l-1.815 5.17H66.03l6.325-18.425h2.915zm-5.94-8.14-1.815-5.17-1.87 5.17zM99.046 365.04q-.028 4.813-2.008 7.013-1.952 2.2-4.812 2.2h-5.748v-18.425h5.748q2.86 0 4.812 2.2 1.98 2.2 2.008 7.013m-9.653 0v6.298h2.833q1.842-.055 2.86-1.76 1.045-1.705 1.072-4.537 0-3.025-1.045-4.62-1.045-1.623-2.887-1.678h-2.833z" style="font-style:normal;font-variant:normal;font-weight:400;font-stretch:normal;font-size:27.5px;line-height:114.99999762%;font-family:&quot;Highway Gothic&quot;;-inkscape-font-specification:&quot;Highway Gothic&quot;;text-align:center;letter-spacing:3px;text-anchor:middle;fill:#000;fill-opacity:1"/>
  </g>
  <path d="M.951 221.982H109.05v10.321H.951z" style="fill:#000;fill-opacity:1;stroke:none;stroke-width:1.90104043;stroke-linecap:round;stroke-linejoin:miter;stroke-miterlimit:4;stroke-dasharray:none;stroke-opacity:1"/>
  <circle cx="54.838" cy="158.403" r="48.783" style="fill:none;fill-opacity:1;stroke:#000;stroke-width:7.43362856;stroke-linecap:round;stroke-linejoin:miter;stroke-miterlimit:4;stroke-dasharray:none;stroke-opacity:1"/>
  <g style="font-style:normal;font-weight:400;font-size:40px;line-height:125%;font-family:sans-serif;letter-spacing:0;word-spacing:0;fill:#000;fill-opacity:1;stroke:none;stroke-width:1px;stroke-linecap:butt;stroke-linejoin:miter;stroke-opacity:1">
    <path d="M18.976 149.03q0-5.981 4.468-10.037 4.538-4.056 11.207-4.056 6.668 0 11.137 4.262 4.538 4.263 4.538 10.45 0 9.556-4.882 18.631-4.88 9.007-12.856 14.3l-3.712-6.118q8.112-6.257 11.275-14.163-2.544.756-5.5.756-6.394 0-11.07-4.125-4.605-4.125-4.605-9.9m7.287.138q0 2.681 2.475 4.675 2.475 1.925 5.913 1.925 3.918.069 6.05-1.719 2.13-1.787 2.2-4.881 0-2.819-2.407-4.813t-5.843-1.993q-3.37 0-5.913 2.062-2.475 1.994-2.475 4.744M74.06 182.58q-8.112 0-12.512-6.118-4.331-6.188-4.331-17.738 0-11.275 4.33-17.531 4.4-6.256 12.513-6.256 8.25 0 12.513 6.256 4.331 6.256 4.331 17.531 0 11.55-4.331 17.738-4.263 6.118-12.513 6.118m0-40.356q-4.812 0-7.012 4.606-2.2 4.538-2.269 11.757 0 8.112 2.131 12.306 2.2 4.194 7.15 4.125 5.225-.138 7.22-4.331 1.993-4.194 2.13-12.1-.137-7.7-2.337-11.894-2.131-4.194-7.013-4.469" style="font-style:normal;font-variant:normal;font-weight:400;font-stretch:normal;font-size:68.75px;font-family:&quot;Highway Gothic&quot;;-inkscape-font-specification:&quot;Highway Gothic&quot;;letter-spacing:1px;fill:#000;fill-opacity:1"/>
  </g>
  <path d="M102.02 35.165H8.178c-.575-1.359-1.147-3.337 1.227-4.498.275-3.715 5.302-7.5 8.861-7.07-.347-3.56 1.71-4.03 4.019-4.174.154-4.395 6.936-4.495 7.973-2.454.531-2.548 2.557-2.296 3.476-1.43.27-5.463 9.622-4.38 11.04-2.25 5.273-2.242 11.08-1.678 15.538 1.636 3.721-3.283 6.888-2.413 9.2-1.022.529-2.106 8.005-2.27 8.984.194 2.104-2.11 7.547-.063 7.986 1.85 2.423-1.442 5.304 2.027 5.3 3.156 1.518-.389 3.802 1.692 2.878 4.818 3.641-.728 6.406 4.053 5.929 6.133 2.675.447 1.431 5.111 1.431 5.111z" style="fill:#000;fill-opacity:1;fill-rule:evenodd;stroke:#000;stroke-width:1px;stroke-linecap:butt;stroke-linejoin:miter;stroke-opacity:1"/>
</svg>
