<svg xmlns="http://www.w3.org/2000/svg" viewBox="0 0 305.344 204" role="img" aria-labelledby="title">
  <title id="title">Verkehrszeichen R9-Q02 - Trucks Excepted (used in QLD)</title>
  <path d="M30.917.75h243.49c16.645 0 30.198 13.527 30.198 30.174v142.154c0 16.623-13.553 30.175-30.197 30.175H30.917C14.294 203.253.742 189.7.742 173.078V30.924C.742 14.277 14.294.75 30.917.75z" style="fill:#fff;fill-opacity:1;fill-rule:evenodd;stroke:#000;stroke-width:1.5;stroke-linecap:butt;stroke-linejoin:miter;stroke-miterlimit:7.73699999;stroke-opacity:1;stroke-dasharray:none"/>
  <path d="M274.24 4.179c15.789.858 26.077 11.312 26.935 26.91v141.799c-.858 15.624-11.336 26.077-26.936 26.935H31.107c-15.624-.858-26.078-11.311-26.936-26.936V31.09C5.03 15.49 15.483 5.037 31.107 4.179z" style="fill:#000;fill-opacity:1;fill-rule:evenodd;stroke:none"/>
  <path d="M278.358 11.372c10.289 3.594 14.91 9.099 16.124 20.052v141.13q-2.074 18.507-20.577 20.576H31.438q-18.502-2.07-20.577-20.576V31.424c1.383-12.67 8.242-19.194 20.577-20.577h242.467z" style="fill:#fff;fill-opacity:1;fill-rule:evenodd;stroke:none"/>
  <path d="M30.411 115.461h19.544v6.688H36.927v14.572h8.572v6.687h-8.572v19.544H50.64v6.515h-20.23zM67.957 141.692l-8.744-26.23H65.9l5.486 15.602 4.971-15.603h7.03l-8.571 26.918 9.086 27.088h-7.03l-5.486-16.632-5.314 16.632H58.87zM108.42 156.265h6.172c0 9.258-3.772 13.202-10.46 13.202-11.658 0-12.856-14.575-12.34-27.775.168-9.602 0-26.23 12-26.059 6.513 0 10.629 3.77 10.629 10.285h-6.173c-.514-2.4-2.056-3.944-4.284-3.944-6.004 0-5.317 14.576-5.317 19.718 0 6.172-.172 21.432 5.657 21.432 2.575 0 4.116-3.773 4.116-6.86M126.594 115.461h19.543v6.688H133.11v14.572h8.572v6.687h-8.572v19.544h13.715v6.515h-20.23zM165.34 121.805v16.973h4.628c2.575 0 4.974-3.598 4.974-8.572-.171-4.971-2.914-8.4-5.485-8.4zm-6.515-6.344h12.002c6.515 0 10.803 7.202 10.803 15.431 0 7.374-5.66 14.916-11.318 14.916h-4.971v23.66h-6.516zM189 115.461h20.23v6.173h-6.515v47.833h-6.684v-47.833H189zM219.862 115.461h19.543v6.688h-13.028v14.572h8.572v6.687h-8.572v19.544h13.715v6.515h-20.23zM261.695 122.492h-2.915v40.632h3.43c6.344 0 6-13.715 6-22.115 0-6.516.172-18.517-6.515-18.517m.171-7.03c11.83 0 13.032 14.403 13.032 25.547 0 10.971-.344 28.458-13.032 28.458h-9.773v-54.006zM35.725 34.525h27.09v7.203h-9.946v46.804h-7.713V41.728h-9.43zM96.075 62.472l8.058 26.06h-8.23l-7.201-25.03H82.36v25.03h-7.717V34.525H91.96c6.858 0 12.173 8.232 12.173 14.916 0 5.146-2.915 11.318-8.058 13.031m-4.115-6.515c3.429 0 4.115-3.944 4.115-6.687 0-3.427-.171-6.513-4.115-6.513H82.36v13.2zM131.908 88.532c-7.03 0-14.744-6.001-14.744-13.375V34.525h7.542v40.12c0 3.77 3.258 6.344 6.687 6.344 3.601 0 7.202-2.23 7.202-6.344v-40.12h8.057v40.632c0 7.03-8.228 13.375-14.744 13.375M181.458 74.645H189c0 7.886-5.657 13.887-13.543 13.887-15.087 0-15.945-17.144-15.945-27.944 0-9.087 1.03-26.063 15.602-26.063 8.4 0 13.374 5.318 13.374 13.375h-7.545c.172-4.116-2.914-6.344-6.172-6.172-7.714.171-7.714 13.886-7.714 18.86 0 6.172 0 20.916 8.572 20.916 3.258 0 5.829-3.772 5.829-6.859M202.546 34.525h7.202v21.432l12.513-21.432h8.576L220.033 53.73l12.002 34.803h-7.37l-9.603-25.888-5.314 8.915v16.973h-7.202zM239.92 72.417h7.714c0 5.83 1.201 8.744 7.374 8.916 5.657.171 7.714-6.001 6.172-11.315-2.056-7.202-7.717-7.546-12.688-11.315-3.43-2.574-5.829-6.859-5.829-11.49 0-7.885 6.687-12.684 14.058-12.684 7.545 0 12.688 5.657 12.688 13.2h-7.2c0-2.572-2.914-6.001-5.488-6.001-2.915 0-6.34 2.228-6.34 5.485 0 2.231 1.712 5.146 3.597 6.344 7.202 3.773 15.43 9.259 15.43 18.346 0 9.773-4.455 16.632-14.4 16.632-9.43 0-15.088-5.318-15.088-16.118" style="fill:#000;fill-opacity:1;fill-rule:evenodd;stroke:none"/>
</svg>
