<svg xmlns="http://www.w3.org/2000/svg" viewBox="0 0 675 337.5" role="img" aria-labelledby="title">
  <title id="title">Verkehrszeichen R6-V20-2-VIC - Tollway Entrance (used in VIC)</title>
  <path fill="none" stroke="#000" stroke-linecap="square" stroke-linejoin="round" stroke-miterlimit="1.414" stroke-width="1.072" d="M637.488.536v.009"/>
  <path fill="#00f" fill-rule="evenodd" d="M0 22.956c0-2.677.445-5.354 1.563-8.258 1.118-2.677 2.909-5.363 5.145-7.596s4.69-3.793 7.598-4.91c2.681-1.116 5.59-1.56 8.27-1.56h629.847c2.681 0 5.59.444 8.271 1.56 2.908 1.117 5.59 2.678 7.598 4.91 2.236 2.233 4.027 4.919 5.145 7.596 1.118 2.904 1.563 5.58 1.563 8.258v292.002c0 2.677-.445 5.58-1.563 8.258-1.118 2.904-2.909 5.58-5.145 7.587-2.008 2.232-4.69 4.02-7.598 5.136-2.681 1.116-5.59 1.56-8.27 1.56H22.576c-2.681 0-5.59-.444-8.271-1.56-2.908-1.116-5.363-2.904-7.598-5.136-2.236-2.006-4.027-4.683-5.145-7.587C.445 320.539 0 317.635 0 314.958z" style="stroke-width:2.23413;fill:#174f90;fill-opacity:1"/>
  <path fill="#ff0" fill-rule="evenodd" d="M652.423 8c1.782 0 3.8.445 5.59 1.117 1.781.671 3.572 1.787 5.135 3.348 1.345 1.334 2.463 3.122 3.354 5.137.673 1.779.9 3.566.9 5.354v292.002c0 1.787-.227 3.793-.9 5.58-.89 1.788-2.009 3.567-3.354 5.137-1.563 1.334-3.354 2.45-5.135 3.349-1.79.662-3.808.89-5.59.89H22.577c-1.782 0-3.8-.228-5.59-.89-1.781-.899-3.572-2.015-5.135-3.349-1.345-1.57-2.463-3.349-3.354-5.136-.672-1.788-.9-3.794-.9-5.581V22.956c0-1.788.228-3.575.9-5.354.89-2.015 2.009-3.803 3.354-5.137 1.563-1.56 3.354-2.677 5.135-3.348C18.777 8.445 20.795 8 22.577 8z" style="stroke-width:2.23413;fill:#ffa709;fill-opacity:1"/>
  <path fill="#00f" fill-rule="evenodd" d="M652.423 15.587c1.782 0 3.8.672 5.363 2.015a7.6 7.6 0 0 1 2.236 5.354v292.002a7.6 7.6 0 0 1-2.236 5.354 7.64 7.64 0 0 1-5.363 2.232H22.577c-1.782 0-3.8-.671-5.363-2.232a7.6 7.6 0 0 1-2.236-5.354V22.956c0-1.788.673-3.793 2.236-5.354 1.564-1.343 3.581-2.015 5.363-2.015z" style="stroke-width:2.23413;fill:#174f90;fill-opacity:1"/>
  <path fill="none" stroke="#ff0" stroke-linejoin="bevel" stroke-miterlimit="1.414" stroke-width=".536" d="M110.893 80.772v62.063H97.705V80.772H76.237V67.831h56.124v12.941h-21.468"/>
  <path fill="#ff0" fill-rule="evenodd" d="M97.705 142.835V80.772H76.237V67.831h56.124v12.941h-21.468v62.063" style="stroke-width:2.23413"/>
  <path fill="#ff0" fill-rule="evenodd" d="M97.705 142.835V80.772H76.237V67.831h56.124v12.941h-21.468v62.063" style="stroke-width:2.23413;fill:#ffa709;fill-opacity:1"/>
  <path fill="none" stroke="#ff0" stroke-linejoin="bevel" stroke-miterlimit="1.414" stroke-width=".536" d="M146.667 125.42c2.017 5.581 5.816 10.273 10.733 13.622 5.145 3.348 10.961 5.354 16.996 5.354s12.07-2.006 16.988-5.354c4.926-3.35 8.725-8.04 10.733-13.622M202.117 125.42c4.918-12.94 4.918-27.233 0-39.956M202.117 85.464a28.52 28.52 0 0 0-10.733-13.84c-5.136-3.348-10.953-5.136-16.988-5.136s-11.851 1.788-16.996 5.136a28.63 28.63 0 0 0-10.733 13.84M146.667 85.464c-4.918 12.723-4.918 27.015 0 39.956M190.047 89.928c3.8 10.046 3.8 20.982 0 30.81"/>
  <path fill="none" stroke="#ff0" stroke-linejoin="bevel" stroke-miterlimit="1.414" stroke-width=".536" d="M190.047 120.737c-2.463 6.471-8.725 10.718-15.65 10.718-6.935 0-13.197-4.247-15.652-10.718M158.745 120.737c-3.799-9.827-3.799-20.763 0-30.809M158.745 89.928c2.455-6.47 8.717-10.717 15.651-10.717 6.926 0 13.188 4.247 15.651 10.717"/>
  <path fill="#ff0" fill-rule="evenodd" d="M156.064 105.329h-13.197c0 3.348.446 6.924.9 10.272a54.3 54.3 0 0 0 2.9 9.82c2.017 5.58 5.816 10.272 10.733 13.62 5.145 3.35 10.961 5.355 16.996 5.355s12.07-2.006 16.988-5.354c4.925-3.35 8.725-8.04 10.733-13.622 4.918-12.94 4.918-27.233 0-39.956a28.52 28.52 0 0 0-10.733-13.84c-5.136-3.348-10.953-5.136-16.988-5.136s-11.851 1.788-16.996 5.136a28.63 28.63 0 0 0-10.733 13.84c-1.337 3.121-2.236 6.47-2.9 9.819-.454 3.348-.9 6.697-.9 10.046zc0-5.128.891-10.491 2.681-15.4 2.455-6.471 8.717-10.718 15.651-10.718 6.926 0 13.188 4.247 15.651 10.717 3.8 10.046 3.8 20.982 0 30.81-2.463 6.47-8.725 10.717-15.65 10.717-6.935 0-13.197-4.247-15.652-10.718-1.79-4.91-2.68-10.045-2.68-15.408" style="stroke-width:2.23413"/>
  <path fill="#ff0" fill-rule="evenodd" d="M156.064 105.329h-13.197c0 3.348.446 6.924.9 10.272a54.3 54.3 0 0 0 2.9 9.82c2.017 5.58 5.816 10.272 10.733 13.62 5.145 3.35 10.961 5.355 16.996 5.355s12.07-2.006 16.988-5.354c4.925-3.35 8.725-8.04 10.733-13.622 4.918-12.94 4.918-27.233 0-39.956a28.52 28.52 0 0 0-10.733-13.84c-5.136-3.348-10.953-5.136-16.988-5.136s-11.851 1.788-16.996 5.136a28.63 28.63 0 0 0-10.733 13.84c-1.337 3.121-2.236 6.47-2.9 9.819-.454 3.348-.9 6.697-.9 10.046zc0-5.128.891-10.491 2.681-15.4 2.455-6.471 8.717-10.718 15.651-10.718 6.926 0 13.188 4.247 15.651 10.717 3.8 10.046 3.8 20.982 0 30.81-2.463 6.47-8.725 10.717-15.65 10.717-6.935 0-13.197-4.247-15.652-10.718-1.79-4.91-2.68-10.045-2.68-15.408" style="stroke-width:2.23413;fill:#ffa709;fill-opacity:1"/>
  <path fill="none" stroke="#ff0" stroke-linejoin="bevel" stroke-miterlimit="1.414" stroke-width=".536" d="M279.481 142.835H223.14V67.83h13.188v62.054h43.153v12.95"/>
  <path fill="#ff0" fill-rule="evenodd" d="M223.14 142.835V67.83h13.188v62.054h43.153v12.95" style="stroke-width:2.23413"/>
  <path fill="#ff0" fill-rule="evenodd" d="M223.14 142.835V67.83h13.188v62.054h43.153v12.95" style="stroke-width:2.23413;fill:#ffa709;fill-opacity:1"/>
  <path fill="none" stroke="#ff0" stroke-linejoin="bevel" stroke-miterlimit="1.414" stroke-width=".536" d="M348.347 142.835h-56.123V67.83h13.188v62.054h42.935v12.95"/>
  <path fill="#ff0" fill-rule="evenodd" d="M292.224 142.835V67.83h13.188v62.054h42.935v12.95" style="stroke-width:2.23413"/>
  <path fill="#ff0" fill-rule="evenodd" d="M292.224 142.835V67.83h13.188v62.054h42.935v12.95" style="stroke-width:2.23413;fill:#ffa709;fill-opacity:1"/>
  <path fill="none" stroke="#ff0" stroke-linejoin="bevel" stroke-miterlimit="1.414" stroke-width=".536" d="m433.974 67.83-13.861 75.005h-13.415L394.182 94.62l-12.524 48.215h-13.642L354.382 67.83h13.188l8.271 45.093 11.852-45.093h12.97l11.624 45.093 8.271-45.093h13.416"/>
  <path fill="#ff0" fill-rule="evenodd" d="M368.016 142.835 354.382 67.83h13.188l8.271 45.093 11.852-45.093h12.97l11.624 45.093 8.271-45.093h13.415l-13.86 75.004h-13.415L394.182 94.62l-12.524 48.215" style="stroke-width:2.23413"/>
  <path fill="#ff0" fill-rule="evenodd" d="M368.016 142.835 354.382 67.83h13.188l8.271 45.093 11.852-45.093h12.97l11.624 45.093 8.271-45.093h13.415l-13.86 75.004h-13.415L394.182 94.62l-12.524 48.215" style="stroke-width:2.23413;fill:#ffa709;fill-opacity:1"/>
  <path fill="none" stroke="#ff0" stroke-linejoin="bevel" stroke-miterlimit="1.414" stroke-width=".536" d="m471.538 67.83-31.748 75.005h15.651l7.38-17.633h30.63l7.38 17.633h15.65L484.735 67.83h-13.196"/>
  <path fill="none" stroke="#ff0" stroke-linejoin="bevel" stroke-miterlimit="1.414" stroke-width=".536" d="m468.184 112.48 9.843-23.441 10.061 23.44h-19.904"/>
  <path fill="#ff0" fill-rule="evenodd" d="m468.184 112.48-5.363 12.722h30.63l7.38 17.633h15.65L484.735 67.83h-13.196l-31.748 75.004h15.651l7.38-17.633zl9.843-23.44 10.061 23.44z" style="stroke-width:2.23413"/>
  <path fill="#ff0" fill-rule="evenodd" d="m468.184 112.48-5.363 12.722h30.63l7.38 17.633h15.65L484.735 67.83h-13.196l-31.748 75.004h15.651l7.38-17.633zl9.843-23.44 10.061 23.44z" style="stroke-width:2.23413;fill:#ffa709;fill-opacity:1"/>
  <path fill="none" stroke="#ff0" stroke-linejoin="bevel" stroke-miterlimit="1.414" stroke-width=".536" d="m598.09 67.83-31.302 44.65v30.355h-12.97v-30.356L522.29 67.831h15.878l22.131 31.254 21.913-31.254h15.878"/>
  <path fill="#ff0" fill-rule="evenodd" d="M553.819 142.835v-30.356l-31.53-44.648h15.879l22.131 31.254 21.913-31.254h15.878l-31.302 44.648v30.356" style="stroke-width:2.23413"/>
  <path fill="#ff0" fill-rule="evenodd" d="M553.819 142.835v-30.582L521.844 67.83h16.324l22.131 31.027 22.359-31.027h16.105l-31.756 44.422v30.582" style="stroke-width:2.23413;fill:#ffa709;fill-opacity:1"/>
  <path fill="none" stroke="#ff0" stroke-linejoin="bevel" stroke-miterlimit="1.414" stroke-width=".536" d="M101.731 270.083H45.39v-74.786h54.996v12.723H58.578v14.066h22.804v12.95H58.578v22.097h43.153v12.95"/>
  <path fill="#ff0" fill-rule="evenodd" d="M45.39 270.083v-74.786h54.996v12.723H58.578v14.066h22.804v12.95H58.578v22.097h43.153v12.95" style="stroke-width:2.23413"/>
  <path fill="#ff0" fill-rule="evenodd" d="M45.39 270.083v-74.786h54.996v12.723H58.578v14.066h22.804v12.95H58.578v22.097h43.153v12.95" style="stroke-width:2.23413;fill:#ffa709;fill-opacity:1"/>
  <path fill="none" stroke="#ff0" stroke-linejoin="bevel" stroke-miterlimit="1.414" stroke-width=".536" d="M116.71 270.083v-74.786h12.742l34.883 50.229v-50.23h12.97v74.787h-11.852l-35.774-51.564v51.564h-12.97"/>
  <path fill="#ff0" fill-rule="evenodd" d="M116.71 270.083v-74.786h12.742l34.883 50.229v-50.23h12.97v74.787h-11.852l-35.774-51.564v51.564" style="stroke-width:2.23413"/>
  <path fill="#ff0" fill-rule="evenodd" d="M116.71 270.083v-74.786h12.742l34.883 50.229v-50.23h12.97v74.787h-11.852l-35.774-51.564v51.564" style="stroke-width:2.23413;fill:#ffa709;fill-opacity:1"/>
  <path fill="none" stroke="#ff0" stroke-linejoin="bevel" stroke-miterlimit="1.414" stroke-width=".536" d="M224.921 208.02v62.063h-13.188V208.02h-21.686v-12.723h56.342v12.723h-21.468"/>
  <path fill="#ff0" fill-rule="evenodd" d="M211.733 270.083V208.02h-21.686v-12.723h56.342v12.723h-21.468v62.063" style="stroke-width:2.23413"/>
  <path fill="#ff0" fill-rule="evenodd" d="M211.733 270.083V208.02h-21.686v-12.723h56.342v12.723h-21.468v62.063" style="stroke-width:2.23413;fill:#ffa709;fill-opacity:1"/>
  <path fill="none" stroke="#ff0" stroke-linejoin="bevel" stroke-miterlimit="1.414" stroke-width=".536" d="M272.328 270.083h-13.196v-74.786h36.891M296.023 195.297c5.144 0 10.062 1.787 14.088 5.136 4.026 3.122 6.934 7.587 8.052 12.505 1.118 4.91.446 10.046-1.572 14.729-2.236 4.691-5.808 8.258-10.506 10.717"/>
  <path fill="none" stroke="#ff0" stroke-linejoin="bevel" stroke-miterlimit="1.414" stroke-width=".536" d="m306.085 238.384 13.86 31.699H305.64l-13.188-29.24h-20.123v29.24M272.328 208.02h23.695-.218M295.805 208.02c2.454.226 5.135 1.116 6.926 3.13 1.79 1.788 2.908 4.238 2.908 6.916 0 2.459-1.118 5.136-2.908 6.924-1.79 1.787-4.472 2.903-6.926 2.903"/>
  <path fill="none" stroke="#ff0" stroke-linejoin="bevel" stroke-miterlimit="1.414" stroke-width=".536" d="M295.805 227.893h.218-23.695V208.02"/>
  <path fill="#ff0" fill-rule="evenodd" d="M272.328 240.843h20.123l13.188 29.24h14.306l-13.86-31.699c4.698-2.46 8.27-6.026 10.506-10.717 2.018-4.683 2.69-9.82 1.572-14.729-1.118-4.692-3.808-9.156-8.052-12.505-4.245-3.349-9.17-5.136-14.088-5.136h-23.695v12.723h23.695-.218c2.454.226 4.917 1.116 6.926 3.13 2.017 2.006 2.908 4.465 2.908 6.916 0 2.232-.89 4.918-2.908 6.924-2.01 2.005-4.472 2.903-6.926 2.903h.218-23.695v-32.596h-13.196v74.786h13.196z" style="stroke-width:2.23413"/>
  <path fill="#ff0" fill-rule="evenodd" d="M272.328 240.843h20.123l13.188 29.24h14.306l-13.86-31.699c4.698-2.46 8.27-6.026 10.506-10.717 2.018-4.683 2.69-9.82 1.572-14.729-1.118-4.692-3.808-9.156-8.052-12.505-4.245-3.349-9.17-5.136-14.088-5.136h-23.695v12.723h23.695-.218c2.454.226 4.917 1.116 6.926 3.13 2.017 2.006 2.908 4.465 2.908 6.916 0 2.232-.89 4.918-2.908 6.924-2.01 2.005-4.472 2.903-6.926 2.903h.218-23.695v-32.596h-13.196v74.786h13.196z" style="stroke-width:2.23413;fill:#ffa709;fill-opacity:1"/>
  <path fill="none" stroke="#ff0" stroke-linejoin="bevel" stroke-miterlimit="1.414" stroke-width=".536" d="m359.745 195.297-31.52 74.786h15.424l7.38-17.633h30.63l7.38 17.633h15.65l-31.747-74.786h-13.197"/>
  <path fill="none" stroke="#ff0" stroke-linejoin="bevel" stroke-miterlimit="1.414" stroke-width=".536" d="m356.618 239.727 9.835-23.44 9.843 23.44h-19.678"/>
  <path fill="#ff0" fill-rule="evenodd" d="m356.618 239.727-5.59 12.723h30.63l7.38 17.633h15.651l-31.747-74.786h-13.197l-31.52 74.786h15.424l7.38-17.633zl9.834-23.44 9.843 23.44z" style="stroke-width:2.23413"/>
  <path fill="#ff0" fill-rule="evenodd" d="m356.618 239.727-5.59 12.723h30.63l7.38 17.633h15.651l-31.747-74.786h-13.197l-31.52 74.786h15.424l7.38-17.633zl9.834-23.44 9.843 23.44z" style="stroke-width:2.23413;fill:#ffa709;fill-opacity:1"/>
  <path fill="none" stroke="#ff0" stroke-linejoin="bevel" stroke-miterlimit="1.414" stroke-width=".536" d="M417.432 270.083v-74.786h12.742l34.883 50.229v-50.23h12.97v74.787h-11.852l-35.774-51.564v51.564h-12.97"/>
  <path fill="#ff0" fill-rule="evenodd" d="M417.432 270.083v-74.786h12.742l34.883 50.229v-50.23h12.97v74.787h-11.852l-35.774-51.564v51.564" style="stroke-width:2.23413"/>
  <path fill="#ff0" fill-rule="evenodd" d="M417.432 270.083v-74.786h12.742l34.883 50.229v-50.23h12.97v74.787h-11.852l-35.774-51.564v51.564" style="stroke-width:2.23413;fill:#ffa709;fill-opacity:1"/>
  <path fill="none" stroke="#ff0" stroke-linejoin="bevel" stroke-miterlimit="1.414" stroke-width=".536" d="M499.267 252.45c2.236 5.581 6.035 10.264 11.18 13.613 4.917 3.575 10.725 5.363 16.768 5.58 6.036 0 12.07-1.56 17.215-4.682 5.144-3.13 9.162-7.596 11.624-12.95M556.054 254.011l-11.851-5.354"/>
  <path fill="none" stroke="#ff0" stroke-linejoin="bevel" stroke-miterlimit="1.414" stroke-width=".536" d="M544.203 248.657c-2.909 6.243-9.616 10.264-16.542 10.046-7.153-.227-13.642-4.465-16.324-10.945M511.337 247.758c-3.799-9.6-3.799-20.536 0-30.137M511.337 217.62c2.682-6.47 9.17-10.935 16.324-10.935 6.926-.226 13.633 3.794 16.542 10.046M544.203 216.731l11.851-5.363"/>
  <path fill="none" stroke="#ff0" stroke-linejoin="bevel" stroke-miterlimit="1.414" stroke-width=".536" d="M556.054 211.368c-2.462-5.354-6.48-10.046-11.624-13.167a31.07 31.07 0 0 0-17.215-4.465c-6.043.226-11.851 2.005-16.768 5.354-5.145 3.349-8.944 8.267-11.18 13.621M499.267 212.711a53.1 53.1 0 0 0 0 39.739"/>
  <path fill="#ff0" fill-rule="evenodd" d="M499.267 252.45c2.236 5.581 6.035 10.264 11.18 13.613 4.917 3.575 10.725 5.363 16.768 5.58 5.808 0 11.843-1.334 17.215-4.682 5.362-3.13 9.162-7.814 11.624-12.95l-11.851-5.354c-2.909 6.243-9.616 10.264-16.542 10.046-7.153-.227-13.642-4.465-16.324-10.945-3.799-9.6-3.799-20.536 0-30.137 2.682-6.47 9.17-10.936 16.324-10.936 3.127-.226 6.707.672 9.834 2.45 3.136 2.015 5.371 4.692 6.708 7.596l11.851-5.363c-2.462-5.354-6.48-10.046-11.624-13.167a31.07 31.07 0 0 0-17.215-4.465c-6.043.226-11.851 2.005-16.768 5.354-5.145 3.349-8.944 8.267-11.18 13.621a53.1 53.1 0 0 0 0 39.739" style="stroke-width:2.23413"/>
  <path fill="#ff0" fill-rule="evenodd" d="M499.267 252.45c2.236 5.581 6.035 10.264 11.18 13.613 4.917 3.575 10.725 5.363 16.768 5.58 5.808 0 11.843-1.334 17.215-4.682 5.362-3.13 9.162-7.814 11.624-12.95l-11.851-5.354c-2.909 6.243-9.616 10.264-16.542 10.046-7.153-.227-13.642-4.465-16.324-10.945-3.799-9.6-3.799-20.536 0-30.137 2.682-6.47 9.17-10.936 16.324-10.936 3.127-.226 6.707.672 9.834 2.45 3.136 2.015 5.371 4.692 6.708 7.596l11.851-5.363c-2.462-5.354-6.48-10.046-11.624-13.167a31.07 31.07 0 0 0-17.215-4.465c-6.043.226-11.851 2.005-16.768 5.354-5.145 3.349-8.944 8.267-11.18 13.621a53.1 53.1 0 0 0 0 39.739" style="stroke-width:2.23413;fill:#ffa709;fill-opacity:1"/>
  <path fill="none" stroke="#ff0" stroke-linejoin="bevel" stroke-miterlimit="1.414" stroke-width=".536" d="M629.61 270.083H573.27v-74.786h55.224v12.723h-42.027v14.066h22.803v12.95h-22.803v22.097h43.144v12.95"/>
  <path fill="#ff0" fill-rule="evenodd" d="M573.269 270.083v-74.786h55.224v12.723h-42.027v14.066h22.803v12.95h-22.803v22.097h43.144v12.95" style="stroke-width:2.23413"/>
  <path fill="#ff0" fill-rule="evenodd" d="M573.269 270.083v-74.786h55.224v12.723h-42.027v14.066h22.803v12.95h-22.803v22.097h43.144v12.95" style="stroke-width:2.23413;fill:#ffa709;fill-opacity:1"/>
</svg>
