<svg xmlns="http://www.w3.org/2000/svg" viewBox="0 0 602 482" role="img" aria-labelledby="title">
  <title id="title">Verkehrszeichen R4-V119-VIC - New Limit (used in VIC and QLD)</title>
  <g transform="translate(0 185)">
    <rect width="600" height="480" x="1" y="-184" rx="50" ry="50" style="opacity:1;fill:#ffe112;fill-opacity:1;fill-rule:nonzero;stroke:none;stroke-width:23.8195858;stroke-linecap:square;stroke-linejoin:round;stroke-miterlimit:4;stroke-dasharray:none;stroke-dashoffset:0;stroke-opacity:1"/>
    <rect width="584" height="464" x="9" y="-176" rx="42" ry="42" style="opacity:1;fill:#000;fill-opacity:1;fill-rule:nonzero;stroke:none;stroke-width:23.10486221;stroke-linecap:square;stroke-linejoin:round;stroke-miterlimit:4;stroke-dasharray:none;stroke-dashoffset:0;stroke-opacity:1"/>
    <rect width="552" height="432" x="25" y="-160" rx="26" ry="26" style="opacity:1;fill:#ffe112;fill-opacity:1;fill-rule:nonzero;stroke:none;stroke-width:21.67451477;stroke-linecap:square;stroke-linejoin:round;stroke-miterlimit:4;stroke-dasharray:none;stroke-dashoffset:0;stroke-opacity:1"/>
    <g aria-label="NEW" style="font-style:normal;font-variant:normal;font-weight:400;font-stretch:normal;font-size:179.10447693px;line-height:0;font-family:&quot;Roadgeek 2005 Series E&quot;;-inkscape-font-specification:&quot;Roadgeek 2005 Series E&quot;;letter-spacing:0;word-spacing:0;fill:#000;fill-opacity:1;stroke:none;stroke-width:4.47761202">
      <path d="m49.292-120.326-57.135-82.567v82.567h-21.134v-120h21.134l54.985 79.165v-79.165H67.92v120zM110.075-120.326v-120h87.582v21.493h-65.732v22.209h35.821v22.03h-35.82v32.776h67.88v21.492zM329.53-120.326h-22.746l-19.343-80.417-18.985 80.417h-22.747l-21.85-120h22.208l13.075 77.553 17.731-77.553h21.493l18.448 77.553 12.358-77.553h21.85z" style="font-style:normal;font-variant:normal;font-weight:400;font-stretch:normal;line-height:0;font-family:&quot;Roadgeek 2005 Series E&quot;;-inkscape-font-specification:&quot;Roadgeek 2005 Series E&quot;;letter-spacing:11.01989555px;fill:#000;stroke:none;stroke-width:4.47761202" transform="translate(139.977 144.326)"/>
    </g>
    <g aria-label="LIMIT" style="font-style:normal;font-variant:normal;font-weight:400;font-stretch:normal;font-size:179.10447693px;line-height:0;font-family:&quot;Roadgeek 2005 Series D&quot;;-inkscape-font-specification:&quot;Roadgeek 2005 Series D&quot;;letter-spacing:11.07281494px;word-spacing:0;fill:#000;fill-opacity:1;stroke:none;stroke-width:4.47761202">
      <path d="M.999 297.803v-120h18.985V280.07h55.522v17.732zM104.384 297.803v-120h19.343v120zM237.849 297.803V228.31l-27.761 69.493-27.761-69.493v69.493H163.34v-120h18.986l27.76 67.343 27.762-67.343h18.985v120zM296.46 297.803v-120h19.343v120zM391.238 194.638v103.165h-18.985V194.638H344.85v-16.835H419v16.835z" style="font-style:normal;font-variant:normal;font-weight:400;font-stretch:normal;line-height:0;font-family:&quot;Roadgeek 2005 Series D&quot;;-inkscape-font-specification:&quot;Roadgeek 2005 Series D&quot;;letter-spacing:11.03312492px;fill:#000;stroke:none;stroke-width:4.47761202" transform="translate(91.001 -89.803)"/>
    </g>
  </g>
</svg>
