<svg xmlns="http://www.w3.org/2000/svg" viewBox="0 0 349.049 174.526" role="img" aria-labelledby="title">
  <title id="title">Verkehrszeichen R6-21 - End Freeway</title>
  <path d="M17.438 0H331.61c9.592 0 17.438 7.846 17.438 17.438v139.65c0 9.589-7.846 17.438-17.438 17.438H17.438C7.846 174.526 0 166.676 0 157.088V17.438C0 7.846 7.846 0 17.438 0" style="fill:#006330;fill-opacity:1;fill-rule:evenodd;stroke:none"/>
  <path d="M331.54 4.36c7.684.37 12.782 5.468 13.152 13.152v139.502c-.37 7.61-5.542 12.781-13.151 13.152H17.515c-7.613-.37-12.784-5.542-13.155-13.152V17.512C4.73 9.828 9.828 4.73 17.515 4.36z" style="fill:#fff;fill-opacity:1;fill-rule:evenodd;stroke:none"/>
  <path d="M17.438 8.717H331.61c4.798 0 8.72 3.923 8.72 8.717v139.65c0 4.799-3.922 8.722-8.72 8.722H17.438c-4.794 0-8.717-3.923-8.717-8.721V17.435c0-4.795 3.923-8.718 8.717-8.718" style="fill:#006330;fill-opacity:1;fill-rule:evenodd;stroke:none"/>
  <path d="M111.407 23.297h27.838v6.756h-21.12v7.726h11.411v6.756h-11.412v10.83h21.82v6.756h-28.537zM155.706 23.297h6.367l17.819 25.661v-25.66h6.756V62.12h-6.058l-18.168-26.36v26.36h-6.716zM206.368 23.297h12.421c11.843 0 18.521 9.434 18.521 19.604 0 10.058-6.6 19.22-17.47 19.22h-13.472zm6.678 32.068h7.105c6.484 0 10.636-6.523 10.636-12.464 0-6.558-4.427-12.848-11.102-12.848h-6.639zM28.6 98.887h28.536v6.756H35.16v8.424h12.111v6.64h-12.11v17.003H28.6zM67.578 98.887h18.673a11.64 11.64 0 0 1 11.765 11.571c0 3.958-2.565 9.045-6.717 10.83l7.221 16.422H91.3l-6.911-15.18h-10.17v15.18h-6.64zm6.64 6.64v10.403H86.25c2.68 0 5.048-2.445 5.048-5.165 0-1.824-1.514-5.239-5.048-5.239zM109.894 98.887h27.838v6.756H116.61v7.726h11.412v6.755h-11.412v10.83h21.819v6.756h-28.536zM150.27 98.887h27.837v6.756h-21.12v7.726h11.411v6.755h-11.412v10.83h21.82v6.756h-28.537zM186.997 98.887h6.833l4.385 23.41 5.747-23.41h6.6l6.135 23.643 4.23-23.643h6.717l-6.91 38.823h-7.3l-6.018-24.341-6.132 24.341h-7.105zM251.17 98.887h6.485l16.305 38.823h-7.299l-3.729-9.045h-16.848l-3.803 9.045h-7.144zm-2.444 23.1h11.412l-5.669-13.783zM281.256 98.887h8.191l11.335 16.15 11.144-16.15h8.192l-15.995 23.41v15.413h-6.756v-15.413z" style="fill:#fff;fill-opacity:1;fill-rule:evenodd;stroke:none"/>
</svg>
