<svg xmlns="http://www.w3.org/2000/svg" viewBox="0 0 600 800" role="img" aria-labelledby="title">
  <title id="title">Verkehrszeichen R7-V133-VIC - Tram Only (used in VIC)</title>
  <path fill="#fff" fill-rule="evenodd" d="M50.982.837h498.035c6.258 0 12.543.708 18.801 3.486 5.578 2.097 11.836 6.264 16.734 11.166 4.87 4.876 8.353 10.459 11.128 16.723 2.096 6.264 3.483 12.556 3.483 18.139v698.618c0 5.583-1.387 11.848-3.483 18.112-2.775 6.291-6.258 12.555-11.128 17.43-4.898 4.903-11.156 8.389-16.734 11.167-6.258 2.097-12.543 3.486-18.801 3.486H50.982c-6.258 0-12.543-1.389-18.801-3.486-6.286-2.778-11.836-6.264-16.734-11.167-4.87-4.875-8.353-11.139-11.128-17.43-2.096-6.264-3.483-12.529-3.483-18.112V50.351c0-5.583 1.387-11.875 3.483-18.139 2.775-6.264 6.258-11.847 11.128-16.723 4.898-4.902 10.448-9.069 16.734-11.166C38.439 1.545 44.724.837 50.982.837" style="stroke-width:6.96891"/>
  <path fill="none" stroke="#000" stroke-linejoin="bevel" stroke-miterlimit="1.414" stroke-width="1.673" d="M.836 50.35v698.62M599.163 50.35v698.62M549.017 799.164H50.982M.836 748.97V50.35"/>
  <path fill-rule="evenodd" d="m444.534 133.31-106.578 46.71h-13.93v25.11H89.292l-25.767 14.626v21.625h10.448v43.93H63.526v39.03H47.499v23.013h59.915c-3.483 2.805-6.286 7.68-6.966 12.556 0 5.583 2.068 10.458 4.87 13.944 3.483 3.486 7.646 5.584 13.224 5.584s10.449-2.098 13.251-5.584c3.483-3.486 5.55-8.361 4.87-13.944 0-2.097-.707-4.875-2.095-6.973-1.387-2.097-2.775-4.194-4.19-5.583h42.5c-3.482 2.805-6.965 7.68-6.965 12.556-.707 5.583 1.388 10.458 4.87 13.944 2.803 3.486 7.674 5.584 13.251 5.584 5.551 0 10.449-2.098 13.224-5.584s4.87-8.361 4.87-13.944c-.68-4.875-3.482-9.75-6.965-12.556h17.414l8.353 18.82h157.432l9.06-18.82h17.414c-3.483 2.805-6.285 7.68-6.965 12.556-.708 5.583 1.387 10.458 4.87 13.944 2.775 3.486 7.673 5.584 13.224 5.584 5.577 0 10.448-2.098 13.25-5.584 3.483-3.486 5.578-8.361 4.87-13.944 0-2.097-.707-4.875-2.094-6.973s-2.776-4.194-4.87-5.583h42.5c-3.483 2.805-6.285 7.68-6.966 12.556 0 5.583 2.068 10.458 4.87 13.944 3.484 3.486 8.354 5.584 13.224 5.584 5.578 0 10.449-2.098 13.931-5.584 2.803-3.486 4.87-8.361 4.19-13.944 0-4.875-2.802-9.75-6.285-12.556H552.5V324.34h-16.026v-39.028h-10.449V241.38h10.449v-21.625l-25.767-14.626h-129.57v-25.792l84.294-39.055c3.482-1.39 6.965-4.195 8.353-9.07 1.387-4.167.707-8.361-.68-11.847-2.096-3.487-4.898-6.973-9.061-8.362-4.87-1.389-9.06-.708-12.544 1.39-3.482 1.388-6.258 4.875-7.673 9.069-1.387 4.167-.68 8.361.708 11.847M84.422 235.797h16.706v66.237H84.422zm32.025 0h51.561v52.293h-51.561zm68.267 0h52.242v52.293h-52.242zm104.483 0v103.196h-33.44V235.797zm21.604 0h33.44v103.196h-33.44zm52.242 0h52.241v52.293h-52.241zm68.947 0h51.562v52.293H431.99zm66.173 0h17.414v66.237h-17.414z" style="stroke-width:6.96891"/>
  <path fill-rule="evenodd" d="M588.715 50.35v698.62c0 4.874-.68 9.75-2.775 14.625-1.388 4.902-4.87 9.777-8.354 13.263-4.19 4.167-9.06 6.973-13.93 9.07-4.898 2.07-9.769 2.778-14.64 2.778H50.983c-9.74 0-20.189-3.486-28.57-11.848-3.482-3.486-6.965-8.361-9.033-13.263-1.415-4.876-2.802-9.75-2.802-14.626V50.351c0-9.778 4.19-20.236 11.836-27.89 4.19-4.194 8.38-6.972 13.93-9.069 4.898-2.097 9.769-2.805 14.64-2.805h498.034c9.74 0 20.189 3.486 28.57 11.875 3.482 3.486 6.965 8.361 8.353 13.236 2.095 4.875 2.775 9.75 2.775 14.653m-19.509 0c0-4.903-2.068-9.778-6.258-13.945-3.483-4.194-9.06-5.583-13.931-5.583H50.982c-2.775 0-4.87 0-7.673 1.389-2.068.708-4.87 2.097-6.965 4.194-3.483 4.167-5.551 9.042-5.551 13.945v698.618c0 2.097.68 4.875 1.388 7.653.68 2.097 2.775 4.195 4.163 6.292 4.19 4.167 9.768 6.264 14.638 6.264h498.035c2.775 0 4.87-.681 7.673-1.39 2.068-1.388 4.87-2.777 6.258-4.874 4.19-4.195 6.258-9.07 6.258-13.945z" style="stroke-width:6.96891"/>
  <path fill="none" stroke="#000" stroke-linejoin="bevel" stroke-miterlimit="1.414" stroke-width="1.673" d="M50.982.837h498.035M50.982.837h498.035M549.017.837c13.223 0 25.767 4.875 35.535 14.652 9.033 9.043 14.611 21.598 14.611 34.862M599.163 50.35v698.62M599.163 748.97c0 13.236-5.578 25.791-14.611 35.541-9.768 9.07-22.312 14.653-35.535 14.653M549.017 799.164H50.982M50.982 799.164c-13.223 0-26.474-5.583-35.535-14.653C6.414 774.761.836 762.206.836 748.97M.836 748.97V50.35M.836 50.35c0-13.263 5.578-25.818 14.611-34.86C24.507 5.711 37.759.836 50.982.836"/>
  <path fill-rule="evenodd" d="M143.629 541.19a184.77 184.77 0 0 1 0 91.347c-.707 3.486-2.803 7.653-6.285 10.459-4.163 2.778-8.353 3.486-11.836 3.486-9.06 0-16.707-5.583-18.802-13.945H83.034c.68.681.68 1.39.68 2.778.708.708.708 1.39.708 2.778 4.87 18.14 21.577 31.376 41.086 31.376 18.801 0 36.215-13.237 40.406-31.376 4.19-16.722 6.258-34.153 6.258-51.584 0-16.722-2.068-34.153-6.258-50.903-2.096-8.361-6.966-16.042-14.639-22.306-7.646-6.264-17.414-9.07-25.767-9.07-19.509 0-36.215 13.264-41.086 31.376-7.673 32.083-8.353 64.848-1.387 96.931h23.672c-3.483-14.652-5.578-29.986-5.578-46.028 0-15.333 2.095-30.667 5.578-45.32 2.095-8.361 9.74-13.944 18.801-13.944 3.483 0 7.673.708 11.836 3.486 3.483 2.778 5.578 6.972 6.285 10.458M204.224 669.469V509.814h25.086l41.086 92.029v-92.029h22.992v159.655h-17.414l-48.759-108.752V669.47M328.896 669.469V509.814h22.311v136.668h58.5v22.987M459.173 669.469v-72.501l-39.726-87.154h25.087l25.767 57.167 26.475-57.167h25.086l-39.725 87.154v72.5" style="stroke-width:6.96891"/>
</svg>
