<svg xmlns="http://www.w3.org/2000/svg" viewBox="0 0 456 606" role="img" aria-labelledby="title">
  <title id="title">Verkehrszeichen R2-3-L - Keep Left</title>
  <g transform="translate(0 309)">
    <rect width="454" height="604" x="1" y="-308" rx="47" ry="47" style="opacity:1;fill:#000;fill-opacity:1;fill-rule:nonzero;stroke:none;stroke-width:27.77773094;stroke-linecap:square;stroke-linejoin:round;stroke-miterlimit:4;stroke-dasharray:none;stroke-dashoffset:0;stroke-opacity:1"/>
    <rect width="450" height="600" x="3" y="-306" rx="45" ry="45" style="opacity:1;fill:#fff;fill-opacity:1;fill-rule:nonzero;stroke:none;stroke-width:27.56336784;stroke-linecap:square;stroke-linejoin:round;stroke-miterlimit:4;stroke-dasharray:none;stroke-dashoffset:0;stroke-opacity:1"/>
    <rect width="434" height="585" x="11" y="-299" rx="37" ry="37" style="opacity:1;fill:#000;fill-opacity:1;fill-rule:nonzero;stroke:none;stroke-width:26.72841454;stroke-linecap:square;stroke-linejoin:round;stroke-miterlimit:4;stroke-dasharray:none;stroke-dashoffset:0;stroke-opacity:1"/>
    <rect width="402" height="552" x="27" y="-282" rx="21" ry="21" style="opacity:1;fill:#fff;fill-opacity:1;fill-rule:nonzero;stroke:none;stroke-width:24.98808289;stroke-linecap:square;stroke-linejoin:round;stroke-miterlimit:4;stroke-dasharray:none;stroke-dashoffset:0;stroke-opacity:1"/>
    <g aria-label="KEEP" style="font-style:normal;font-variant:normal;font-weight:400;font-stretch:normal;font-size:119.40298462px;line-height:0;font-family:&quot;Roadgeek 2005 Series D&quot;;-inkscape-font-specification:&quot;Roadgeek 2005 Series D&quot;;letter-spacing:6.59077072px;word-spacing:0;fill:#000;fill-opacity:1;stroke:none;stroke-width:2.98507452">
      <path d="m-109.782-242.388-20.298-37.85-8.358 10.387v27.463h-12.657v-80h12.657v31.761l25.194-31.761h16.358l-24.717 31.164 26.388 48.836zM-74.891-242.388v-80h47.164v12.657h-34.508v19.582h23.284v12.895h-23.284v21.97h37.015v12.896zM-5.217-242.388v-80h47.164v12.657H7.439v19.582h23.284v12.895H7.439v21.97h37.015v12.896zM118.904-299.94q0 3.224-.955 6.328-.955 2.985-2.627 5.731-1.671 2.627-3.94 4.657-2.15 2.03-4.776 3.224-2.746 1.313-6.448 2.03-3.582.716-8.239.716H77.113v34.866H64.457v-80h27.462q4.896 0 8.24.597 3.462.478 6.447 1.91 2.627 1.314 4.776 3.463 2.269 2.03 3.94 4.776 1.672 2.627 2.627 5.732.955 2.985.955 5.97m-12.895 0q0-2.508-1.433-4.776-1.313-2.27-3.343-3.583-1.672-.955-3.224-1.194-1.433-.238-4.418-.238H77.113v19.582h16.478q2.985 0 4.418-.24 1.552-.238 3.224-1.074 2.03-1.074 3.343-3.462 1.433-2.508 1.433-5.015" style="font-style:normal;font-variant:normal;font-weight:400;font-stretch:normal;line-height:0;font-family:&quot;Roadgeek 2005 Series D&quot;;-inkscape-font-specification:&quot;Roadgeek 2005 Series D&quot;;letter-spacing:6.47435427px;fill:#000;fill-opacity:1;stroke:none;stroke-width:2.98507452" transform="translate(252.095 80.388)"/>
    </g>
    <g aria-label="LEFT" style="font-style:normal;font-variant:normal;font-weight:400;font-stretch:normal;font-size:119.40298462px;line-height:0;font-family:&quot;Roadgeek 2005 Series D&quot;;-inkscape-font-specification:&quot;Roadgeek 2005 Series D&quot;;letter-spacing:6.4505415px;word-spacing:0;fill:#000;fill-opacity:1;stroke:none;stroke-width:2.98507452">
      <path d="M108-39v-80h12.657v68.18h37.015V-39zM175.992-39v-80h47.164v12.657h-34.508v19.582h23.284v12.895h-23.284v21.97h37.015V-39zM258.275-106.343v19.582h23.283v12.895h-23.283V-39h-12.657v-80h49.672v12.657zM337.492-107.776V-39h-12.656v-68.776h-18.269V-119H356v11.224z" style="font-style:normal;font-variant:normal;font-weight:400;font-stretch:normal;line-height:0;font-family:&quot;Roadgeek 2005 Series D&quot;;-inkscape-font-specification:&quot;Roadgeek 2005 Series D&quot;;letter-spacing:6.4267292px;fill:#000;fill-opacity:1;stroke:none;stroke-width:2.98507452" transform="translate(3 -3)"/>
    </g>
    <path d="m57 250 66.838-151.658a16.002 16.002 0 0 1 30.602 5.217l1.932 25.308L359.514-22l45.312 61.014-203.141 150.867 23.67 9.164a16.002 16.002 0 0 1-3.851 30.804z" style="color:#000;font-style:normal;font-variant:normal;font-weight:400;font-stretch:normal;font-size:medium;line-height:normal;font-family:sans-serif;font-variant-ligatures:normal;font-variant-position:normal;font-variant-caps:normal;font-variant-numeric:normal;font-variant-alternates:normal;font-feature-settings:normal;text-indent:0;text-align:start;text-decoration:none;text-decoration-line:none;text-decoration-style:solid;text-decoration-color:#000;letter-spacing:normal;word-spacing:normal;text-transform:none;writing-mode:lr-tb;direction:ltr;text-orientation:mixed;dominant-baseline:auto;baseline-shift:baseline;text-anchor:start;white-space:normal;shape-padding:0;clip-rule:nonzero;display:inline;overflow:visible;visibility:visible;opacity:1;isolation:auto;mix-blend-mode:normal;color-interpolation:sRGB;color-interpolation-filters:linearRGB;solid-color:#000;solid-opacity:1;vector-effect:none;fill:#000;fill-opacity:1;fill-rule:nonzero;stroke:none;stroke-width:32.00017929;stroke-linecap:square;stroke-linejoin:round;stroke-miterlimit:4;stroke-dasharray:none;stroke-dashoffset:0;stroke-opacity:1;color-rendering:auto;image-rendering:auto;shape-rendering:auto;text-rendering:auto"/>
  </g>
</svg>
