<svg xmlns="http://www.w3.org/2000/svg" viewBox="0 0 1226 1266" role="img" aria-labelledby="title">
  <title id="title">Verkehrszeichen R4-246-NSW - Speed Limits per Category (used in NSW)</title>
  <g transform="translate(0 969)">
    <rect width="1224" height="1264" x="1" y="-968" rx="127" ry="127" style="opacity:1;fill:#000;fill-opacity:1;fill-rule:nonzero;stroke:none;stroke-width:237.5801239;stroke-linecap:square;stroke-linejoin:round;stroke-miterlimit:4;stroke-dasharray:none;stroke-opacity:1"/>
    <rect width="1220" height="1260" x="3" y="-966" rx="125" ry="125" style="opacity:1;fill:#fff;fill-opacity:1;fill-rule:nonzero;stroke:none;stroke-width:236.81600952;stroke-linecap:square;stroke-linejoin:round;stroke-miterlimit:4;stroke-dasharray:none;stroke-opacity:1"/>
    <path d="M603-967h20V295h-20z" style="opacity:1;fill:#000;fill-opacity:1;fill-rule:nonzero;stroke:none;stroke-width:57.7346077;stroke-linecap:square;stroke-linejoin:round;stroke-miterlimit:4;stroke-dasharray:none;stroke-opacity:1"/>
    <circle cx="303" cy="-561" r="296" style="opacity:1;fill:#be121e;fill-opacity:1;fill-rule:nonzero;stroke:none;stroke-width:106.33864594;stroke-linecap:square;stroke-linejoin:round;stroke-miterlimit:4;stroke-dasharray:none;stroke-opacity:1"/>
    <circle cx="303" cy="-561" r="236" style="opacity:1;fill:#fff;fill-opacity:1;fill-rule:nonzero;stroke:none;stroke-width:84.78351593;stroke-linecap:square;stroke-linejoin:round;stroke-miterlimit:4;stroke-dasharray:none;stroke-opacity:1"/>
    <path d="M260.024-502.902v57.752h-36.311v-57.752H108.9v-21.787L223.713-676.85h36.311v140.749h22.133v33.199zm-36.311-120.346L157.66-536.1h66.052zM497.1-560.654q0 27.665-6.57 52.91t-18.675 40.807Q452.489-441 415.832-441q-24.554 0-40.461-10.029t-26.283-31.47q-7.262-14.87-11.758-35.965-4.495-21.441-4.495-42.19 0-28.703 6.57-53.257 6.917-24.553 18.675-41.152 10.374-13.142 24.553-19.366Q397.157-681 417.215-681q22.133 0 37.695 10.029 15.561 10.029 26.628 31.47 7.262 15.561 11.412 36.31t4.15 42.537m-36.657 0q0-19.712-3.459-36.311-3.458-16.946-10.374-28.704-5.533-8.991-12.796-13.14-6.916-4.15-17.29-4.842-13.488-.692-22.479 6.224t-14.87 22.479q-4.496 10.374-6.917 25.245-2.075 14.524-2.075 29.049 0 18.674 3.458 35.965t10.375 28.358q5.533 8.99 13.141 13.487 7.608 4.495 18.675 4.495 12.795 0 21.095-6.916 8.645-6.917 14.524-22.479 1.73-4.495 3.459-10.72 1.729-6.57 2.766-13.487 1.383-7.262 2.075-14.525.692-7.262.692-14.178" style="font-style:normal;font-variant:normal;font-weight:400;font-stretch:normal;font-size:345.82131958px;line-height:0;font-family:&quot;Roadgeek 2005 Series D&quot;;-inkscape-font-specification:&quot;Roadgeek 2005 Series D&quot;;letter-spacing:0;word-spacing:0;fill:#000;fill-opacity:1;stroke:none;stroke-width:8.64553261"/>
    <circle cx="923" cy="-561" r="296" style="opacity:1;fill:#be121e;fill-opacity:1;fill-rule:nonzero;stroke:none;stroke-width:106.33864594;stroke-linecap:square;stroke-linejoin:round;stroke-miterlimit:4;stroke-dasharray:none;stroke-opacity:1"/>
    <circle cx="923" cy="-561" r="236" style="opacity:1;fill:#fff;fill-opacity:1;fill-rule:nonzero;stroke:none;stroke-width:84.78351593;stroke-linecap:square;stroke-linejoin:round;stroke-miterlimit:4;stroke-dasharray:none;stroke-opacity:1"/>
    <path d="M896.895-511.893q0 14.87-6.225 28.011-5.88 12.795-16.6 22.478-10.374 9.338-24.899 14.87Q834.647-441 818.047-441t-31.124-5.533q-14.524-5.88-25.245-15.908-10.374-10.029-16.6-23.516-5.878-13.487-5.878-29.049 0-24.207 6.225-48.069 6.57-23.862 18.328-45.648t28.012-40.116q16.6-18.674 36.657-32.161l18.674 31.124q-10.72 8.3-19.02 16.253-7.954 7.609-14.87 15.908-6.57 8.3-12.104 17.637-5.533 8.991-10.72 20.058 10.028-1.73 15.216-2.075 5.533-.346 12.45-.346 15.907 0 30.086 5.533 14.524 5.533 25.245 15.216 11.066 9.337 17.29 22.479 6.226 12.795 6.226 27.32m-36.658-.692q0-6.57-3.458-12.795-3.112-6.225-8.991-10.721-5.533-4.496-13.487-7.262-7.608-2.767-16.254-2.767-8.645 0-16.253 2.767-7.263 2.766-13.142 7.262-5.533 4.496-8.99 10.72-3.113 6.225-3.113 12.796 0 6.916 3.112 13.141 3.458 6.225 8.991 11.066 5.88 4.496 13.142 7.263 7.608 2.766 16.253 2.766 8.646 0 16.254-2.766t13.141-7.263q5.879-4.841 9.337-11.066t3.458-13.141M1106.8-560.654q0 27.665-6.57 52.91t-18.675 40.807Q1062.19-441 1025.532-441q-24.553 0-40.46-10.029-15.909-10.029-26.283-31.47-7.263-14.87-11.758-35.965-4.496-21.441-4.496-42.19 0-28.703 6.57-53.257 6.917-24.553 18.675-41.152 10.375-13.142 24.553-19.366 14.525-6.571 34.583-6.571 22.132 0 37.694 10.029t26.628 31.47q7.263 15.561 11.412 36.31t4.15 42.537m-36.657 0q0-19.712-3.458-36.311-3.458-16.946-10.375-28.704-5.533-8.991-12.795-13.14-6.917-4.15-17.291-4.842-13.487-.692-22.478 6.224t-14.87 22.479q-4.496 10.374-6.917 25.245-2.075 14.524-2.075 29.049 0 18.674 3.458 35.965t10.375 28.358q5.533 8.99 13.14 13.487 7.609 4.495 18.675 4.495 12.796 0 21.095-6.916 8.646-6.917 14.525-22.479 1.729-4.495 3.458-10.72 1.73-6.57 2.767-13.487 1.383-7.262 2.075-14.525.691-7.262.691-14.178" style="font-style:normal;font-variant:normal;font-weight:400;font-stretch:normal;font-size:345.82131958px;line-height:0;font-family:&quot;Roadgeek 2005 Series D&quot;;-inkscape-font-specification:&quot;Roadgeek 2005 Series D&quot;;letter-spacing:0;word-spacing:0;fill:#000;fill-opacity:1;stroke:none;stroke-width:8.64553261"/>
    <g aria-label="BUSES" style="font-style:normal;font-variant:normal;font-weight:400;font-stretch:normal;font-size:144.09222412px;line-height:0;font-family:&quot;Roadgeek 2005 Series D&quot;;-inkscape-font-specification:&quot;Roadgeek 2005 Series D&quot;;letter-spacing:11.27654171px;word-spacing:0;fill:#000;fill-opacity:1;stroke:none;stroke-width:3.60230541">
      <path d="M152.706 159.182q0 3.89-1.153 7.78-1.152 3.891-3.314 7.205-2.017 3.314-4.899 5.908-2.738 2.45-6.196 3.89-2.594 1.01-6.484 1.73-3.746.576-7.06.576H87V89.729h36.6q5.763 0 10.662 1.873 4.9 1.874 8.502 5.188 3.602 3.17 5.62 7.637 2.017 4.466 2.017 9.654 0 13.977-13.545 21.758 7.637 3.602 11.671 9.51 4.18 5.908 4.18 13.833m-17.58-44.38q0-9.799-10.518-9.799h-22.334v23.631h18.3q3.314 0 5.187-.432 1.873-.577 3.89-2.162 5.476-4.322 5.476-11.239m2.018 44.668q0-4.755-2.594-8.79-2.45-4.178-6.628-5.763-1.585-.577-2.738-.577-1.152-.144-3.602-.144h-19.308v26.513h23.055q11.815 0 11.815-11.24M245.883 151.689q0 5.62-1.297 10.663-1.153 5.043-3.17 9.366-1.873 3.602-4.9 6.628-3.025 2.882-6.772 5.043-3.746 2.162-8.069 3.314Q217.497 188 213.03 188t-8.79-1.297q-4.179-1.152-7.925-3.314t-6.916-5.043q-3.026-3.026-4.9-6.628-2.017-4.323-3.17-9.366-1.152-5.044-1.152-10.663v-61.96h15.273v61.96q0 9.51 4.756 15.13 4.899 5.62 12.824 5.62t12.68-5.62q4.899-5.62 4.899-15.13v-61.96h15.274zM339.037 158.461q0 6.628-2.45 12.248-2.449 5.62-7.06 9.798-4.034 3.603-9.51 5.62Q314.686 188 308.49 188q-12.536 0-21.47-6.628-8.79-6.773-13.689-17.868l14.554-5.331q3.026 6.916 8.357 10.663 5.331 3.602 12.248 3.602 6.772 0 10.807-4.034 4.178-4.18 4.178-10.231 0-4.755-2.593-7.781-2.45-3.026-6.484-5.043-4.035-2.162-8.934-3.747-4.755-1.585-9.51-3.458-2.162-.864-5.332-2.45-3.17-1.584-6.196-4.322-2.881-2.882-5.043-7.06-2.017-4.18-2.017-10.231 0-7.06 2.305-11.96 2.306-5.043 6.196-8.069 4.035-3.17 9.51-4.611 5.62-1.44 12.104-1.44 10.23 0 17.003 5.33 6.917 5.332 10.519 14.41l-13.545 4.034q-1.153-2.305-3.026-4.178-1.585-1.585-4.467-2.882-2.737-1.297-6.772-1.441-2.594-.144-5.475.432-2.738.432-4.9 1.73-2.161 1.296-3.458 3.602-1.297 2.16-1.008 5.475.288 4.467 3.89 6.916 3.602 2.306 8.79 4.035t11.095 3.602q6.052 1.73 11.095 5.188 5.043 3.314 8.357 9.077 3.458 5.62 3.458 15.13M366.522 186.271V89.729h56.917v15.274h-41.643v23.631h28.098v15.562h-28.098v26.513h44.668v15.562zM513 158.461q0 6.628-2.45 12.248t-7.06 9.798q-4.035 3.603-9.51 5.62Q488.648 188 482.452 188q-12.536 0-21.47-6.628-8.789-6.773-13.688-17.868l14.553-5.331q3.026 6.916 8.358 10.663 5.331 3.602 12.247 3.602 6.773 0 10.807-4.034 4.179-4.18 4.179-10.231 0-4.755-2.594-7.781-2.45-3.026-6.484-5.043-4.034-2.162-8.934-3.747-4.755-1.585-9.51-3.458-2.161-.864-5.331-2.45-3.17-1.584-6.196-4.322-2.882-2.882-5.043-7.06-2.018-4.18-2.018-10.231 0-7.06 2.306-11.96 2.305-5.043 6.196-8.069 4.034-3.17 9.51-4.611 5.62-1.44 12.104-1.44 10.23 0 17.003 5.33 6.916 5.332 10.518 14.41l-13.544 4.034q-1.153-2.305-3.026-4.178-1.585-1.585-4.467-2.882-2.738-1.297-6.772-1.441-2.594-.144-5.476.432-2.738.432-4.9 1.73-2.16 1.296-3.457 3.602-1.297 2.16-1.009 5.475.288 4.467 3.89 6.916 3.603 2.306 8.79 4.035t11.095 3.602q6.052 1.73 11.095 5.188 5.044 3.314 8.358 9.077 3.458 5.62 3.458 15.13" style="font-style:normal;font-variant:normal;font-weight:400;font-stretch:normal;line-height:0;font-family:&quot;Roadgeek 2005 Series D&quot;;-inkscape-font-specification:&quot;Roadgeek 2005 Series D&quot;;letter-spacing:11.27654171px;fill:#000;stroke:none;stroke-width:3.60230541" transform="translate(3 -3)"/>
    </g>
    <g aria-label="AND" style="font-style:normal;font-variant:normal;font-weight:400;font-stretch:normal;font-size:149.2537384px;line-height:0;font-family:&quot;Roadgeek 2005 Series D&quot;;-inkscape-font-specification:&quot;Roadgeek 2005 Series D&quot;;letter-spacing:5.17789602px;word-spacing:0;fill:#000;fill-opacity:1;stroke:none;stroke-width:3.73134327">
      <path d="m232.761 38-9.85-28.06h-31.195L181.866 38H165l34.478-100h15.671l34.478 100zm-25.224-72.239L197.24-6.179h20zM323.965 38 285.756-29.76V38h-15.82V-62h15.82l36.418 63.88V-62h15.821V38zM435-12.15q0 15.075-4.627 26.568-4.478 11.343-12.985 17.91-2.836 2.687-6.717 4.03-3.731 1.344-7.612 1.642H366.94V-62h32.239q3.731 0 6.418.299 2.836.149 5.074.746 2.24.597 4.03 1.642t3.88 2.537q7.911 6.866 12.09 18.358Q435-27.075 435-12.149m-16.12 0q0-10.148-2.239-18.059-2.09-7.91-5.82-11.79-1.94-1.792-4.478-2.986t-5.672-1.194h-17.91v68.06h15.82q3.881 0 6.419-.896 2.686-.895 4.776-2.985 4.477-4.478 6.716-12.239 2.388-7.91 2.388-17.91" style="font-style:normal;font-variant:normal;font-weight:400;font-stretch:normal;line-height:0;font-family:&quot;Roadgeek 2005 Series D&quot;;-inkscape-font-specification:&quot;Roadgeek 2005 Series D&quot;;letter-spacing:5.17789602px;fill:#000;stroke:none;stroke-width:3.73134327" transform="translate(3 -3)"/>
    </g>
    <g aria-label="TRUCKS" style="font-style:normal;font-variant:normal;font-weight:400;font-stretch:normal;font-size:144.09222412px;line-height:0;font-family:&quot;Roadgeek 2005 Series C&quot;;-inkscape-font-specification:&quot;Roadgeek 2005 Series C&quot;;letter-spacing:6.23093748px;word-spacing:0;fill:#000;fill-opacity:1;stroke:none;stroke-width:3.60230541">
      <path d="M116.556-197.447v83.718H102.58v-83.718H85v-12.824h49.135v12.824zM193.516-113.729l-12.824-45.39h-13.257v45.39h-13.832v-96.542h28.818q5.62 0 10.23 1.873 4.756 1.874 8.07 5.188 3.458 3.314 5.187 8.213 1.873 4.755 1.873 10.519 0 8.645-3.458 14.697t-10.375 8.646l13.833 47.406zm.72-70.75q0-5.619-3.458-8.933t-9.077-3.314h-14.266v24.351h14.266q6.051 0 9.221-3.025 3.315-3.17 3.315-9.078M284.37-142.547q0 2.881-.288 5.187-.145 2.305-.577 4.323-.432 1.873-1.153 3.746-.72 1.873-1.729 3.746-3.602 5.908-9.942 9.799Q264.485-112 257.569-112q-7.205 0-13.69-3.746-6.34-3.747-9.942-9.799-1.008-1.873-1.729-3.746-.72-1.873-1.152-3.746-.433-2.018-.72-4.323-.145-2.306-.145-5.187v-67.724h13.833v69.453q0 6.916 3.746 11.095 3.747 4.178 9.799 4.178 5.62 0 9.221-4.178 3.747-4.179 3.747-11.095v-69.453h13.833zM349.892-184.478q-2.161-13.977-11.527-13.977-4.179 0-7.205 1.873-2.881 1.73-4.755 5.764-1.729 3.89-2.593 10.374-.72 6.484-.72 15.85 0 20.894 3.746 29.972 3.89 9.077 12.824 9.077 3.026 0 4.899-1.152 2.017-1.153 3.17-3.026 1.297-2.018 1.73-4.467.431-2.594.431-5.332h13.833q-.144 6.052-2.017 11.096-1.873 5.043-5.043 8.79-3.17 3.602-7.637 5.619-4.323 2.017-9.366 2.017-15.562 0-22.767-12.68-7.06-12.68-7.06-39.481 0-23.631 7.204-35.735Q324.244-212 338.653-212q5.908 0 10.807 2.594 4.9 2.45 8.213 7.204 2.738 3.603 4.035 7.35 1.297 3.745 2.017 10.374zM428.903-113.729l-17.002-47.118-8.79 16.282v30.836h-13.833v-96.542h13.833v38.617l22.046-38.617h15.994l-20.029 33.862 22.335 62.68zM515-140.098q0 5.908-2.16 11.095-2.018 5.043-5.765 8.79-3.602 3.746-8.501 6.052Q493.819-112 488.199-112q-6.34 0-11.383-2.45t-8.501-6.628-5.332-9.654-1.873-11.383h13.545q0 3.026.72 6.052.865 2.882 2.45 5.331 1.729 2.306 4.178 3.746 2.594 1.441 6.196 1.441 2.738 0 5.188-1.152 2.593-1.153 4.322-3.17 1.874-2.018 2.882-4.611 1.153-2.738 1.153-5.62 0-4.179-1.73-7.349-1.728-3.314-6.051-6.628-.72-.72-.576-.72.144-.144-.865-.865-1.009-.72-4.323-2.738-3.17-2.161-10.518-7.204-5.908-4.035-8.934-9.366-2.882-5.476-2.882-11.96 0-5.187 1.873-9.654 1.873-4.611 5.188-8.07 3.458-3.457 7.925-5.33 4.466-2.018 9.654-2.018t9.51 1.873q4.467 1.873 7.637 5.188 3.314 3.314 5.187 7.925 2.017 4.61 2.161 10.086h-13.256q-.288-5.043-3.458-8.069t-7.781-3.026q-4.755 0-8.07 3.17-3.313 3.17-3.313 7.925 0 3.602 1.873 6.052t7.204 5.476q13.977 8.069 20.317 16.426Q515-150.617 515-140.098" style="font-style:normal;font-variant:normal;font-weight:400;font-stretch:normal;line-height:0;font-family:&quot;Roadgeek 2005 Series C&quot;;-inkscape-font-specification:&quot;Roadgeek 2005 Series C&quot;;letter-spacing:6.23093748px;fill:#000;stroke:none;stroke-width:3.60230541" transform="translate(3 -3)"/>
    </g>
    <g aria-label="ALL" style="font-style:normal;font-variant:normal;font-weight:400;font-stretch:normal;font-size:149.2537384px;line-height:0;font-family:&quot;Roadgeek 2005 Series D&quot;;-inkscape-font-specification:&quot;Roadgeek 2005 Series D&quot;;letter-spacing:5.59858322px;word-spacing:0;fill:#000;fill-opacity:1;stroke:none;stroke-width:3.73134327">
      <path d="m362.432-304.434-9.85-28.06h-31.194l-9.851 28.06H294.67l34.478-100h15.672l34.477 100zm-25.223-72.239-10.299 28.06h20zM400.024-304.434v-100h15.821v85.224h46.269v14.776zM482.582-304.434v-100h15.82v85.224h46.27v14.776z" style="font-style:normal;font-variant:normal;font-weight:400;font-stretch:normal;line-height:0;font-family:&quot;Roadgeek 2005 Series D&quot;;-inkscape-font-specification:&quot;Roadgeek 2005 Series D&quot;;letter-spacing:5.59858322px;fill:#000;stroke:none;stroke-width:3.73134327" transform="translate(503.329 189.434)"/>
    </g>
    <g aria-label="OTHER" style="font-style:normal;font-variant:normal;font-weight:400;font-stretch:normal;font-size:144.09222412px;line-height:0;font-family:&quot;Roadgeek 2005 Series D&quot;;-inkscape-font-specification:&quot;Roadgeek 2005 Series D&quot;;letter-spacing:8.5645628px;word-spacing:0;fill:#000;fill-opacity:1;stroke:none;stroke-width:3.60230541">
      <path d="M278.115-204.29q0 11.527-2.738 22.046t-7.78 17.003q-8.07 10.807-23.344 10.807-10.23 0-16.858-4.179-6.629-4.178-10.951-13.112-3.026-6.196-4.9-14.986-1.873-8.933-1.873-17.579 0-11.96 2.738-22.19 2.882-10.23 7.781-17.147 4.323-5.476 10.23-8.07 6.052-2.737 14.41-2.737 9.222 0 15.706 4.179 6.484 4.178 11.095 13.112 3.026 6.484 4.755 15.13 1.73 8.645 1.73 17.723m-15.274 0q0-8.213-1.44-15.13-1.442-7.06-4.323-11.96-2.306-3.746-5.332-5.475-2.882-1.729-7.204-2.017-5.62-.288-9.366 2.594-3.747 2.881-6.196 9.366-1.874 4.322-2.882 10.518-.865 6.052-.865 12.104 0 7.781 1.441 14.986 1.441 7.204 4.323 11.815 2.305 3.747 5.475 5.62t7.781 1.873q5.332 0 8.79-2.882 3.602-2.882 6.052-9.366.72-1.873 1.44-4.467.721-2.737 1.154-5.62.576-3.025.864-6.051t.288-5.908M336.878-239.16v82.997h-15.274v-82.997h-22.046v-13.545h59.654v13.545zM432.35-156.163v-42.075H397.19v42.075h-15.274v-96.542h15.274v38.905h35.159v-38.905h15.273v96.542zM479.133-156.163v-96.542h56.917v15.274h-41.643v23.631h28.098v15.562h-28.098v26.513h44.669v15.562zM613.1-156.163l-15.561-42.075h-18.3v42.075h-15.274v-96.542h31.845q5.62 0 9.654.72 4.035.577 7.637 2.306 3.17 1.585 5.764 4.179 2.737 2.45 4.61 5.763 2.018 3.17 3.026 6.917 1.153 3.602 1.153 7.204 0 3.891-1.153 7.637-1.008 3.603-3.026 6.917-1.873 3.17-4.755 5.763-2.737 2.594-6.051 4.035l17.002 45.1zm-.72-69.453q0-3.025-1.585-5.763t-4.466-4.323q-1.874-1.009-3.459-1.297-1.585-.432-5.331-.432h-18.3v23.631h18.3q3.602 0 5.187-.288 1.73-.288 3.602-1.297 2.882-1.585 4.467-4.323 1.585-2.882 1.585-5.908" style="font-style:normal;font-variant:normal;font-weight:400;font-stretch:normal;line-height:0;font-family:&quot;Roadgeek 2005 Series D&quot;;-inkscape-font-specification:&quot;Roadgeek 2005 Series D&quot;;letter-spacing:8.5645628px;fill:#000;stroke:none;stroke-width:3.60230541" transform="translate(503.329 189.434)"/>
    </g>
    <g aria-label="VEHICLES" style="font-style:normal;font-variant:normal;font-weight:400;font-stretch:normal;font-size:144.09222412px;line-height:0;font-family:&quot;Roadgeek 2005 Series C&quot;;-inkscape-font-specification:&quot;Roadgeek 2005 Series C&quot;;letter-spacing:6.13568735px;word-spacing:0;fill:#000;fill-opacity:1;stroke:none;stroke-width:3.60230541">
      <path d="M684.87 186.27h-10.518L650 89.73h13.977l15.85 62.68 15.995-62.68h13.833zM729.201 186.27V89.73h45.39v13.544h-31.557v24.351h20.03v13.257h-20.03v31.844h35.303v13.545zM840.972 186.27v-43.66h-26.513v43.66h-13.833V89.73h13.833v39.336h26.513V89.73h13.833v96.542zM881.901 186.27V89.73h13.545v96.54zM961.26 115.522q-2.161-13.977-11.527-13.977-4.18 0-7.205 1.873-2.882 1.729-4.755 5.764-1.73 3.89-2.594 10.374-.72 6.484-.72 15.85 0 20.894 3.746 29.972 3.89 9.077 12.824 9.077 3.026 0 4.9-1.152 2.017-1.153 3.17-3.026 1.296-2.018 1.729-4.467.432-2.594.432-5.332h13.833q-.144 6.052-2.017 11.095-1.874 5.044-5.044 8.79-3.17 3.602-7.637 5.62Q956.073 188 951.03 188q-15.561 0-22.766-12.68-7.06-12.68-7.06-39.481 0-23.631 7.204-35.735Q935.612 88 950.021 88q5.908 0 10.807 2.594 4.899 2.45 8.213 7.204 2.738 3.603 4.035 7.349 1.296 3.746 2.017 10.375zM1000.548 186.27V89.73h13.833v83.717h35.302v12.824zM1069.44 186.27V89.73h45.389v13.544h-31.556v24.351h20.028v13.257h-20.028v31.844h35.302v13.545zM1190 159.902q0 5.908-2.161 11.095-2.018 5.043-5.764 8.79-3.602 3.746-8.501 6.052-4.756 2.161-10.375 2.161-6.34 0-11.383-2.45-5.044-2.45-8.502-6.628t-5.331-9.654-1.874-11.383h13.545q0 3.026.72 6.052.865 2.881 2.45 5.331 1.73 2.305 4.179 3.746 2.594 1.441 6.196 1.441 2.738 0 5.187-1.152 2.594-1.153 4.323-3.17 1.873-2.018 2.882-4.611 1.152-2.738 1.152-5.62 0-4.179-1.729-7.349-1.729-3.314-6.051-6.628-.72-.72-.577-.72.144-.144-.864-.865-1.009-.72-4.323-2.738-3.17-2.161-10.519-7.204-5.908-4.035-8.934-9.366-2.881-5.476-2.881-11.96 0-5.187 1.873-9.654 1.873-4.611 5.187-8.07 3.458-3.457 7.925-5.33 4.467-2.018 9.654-2.018t9.51 1.873q4.467 1.873 7.637 5.188 3.314 3.314 5.188 7.925 2.017 4.61 2.161 10.086h-13.257q-.288-5.043-3.458-8.07-3.17-3.025-7.78-3.025-4.756 0-8.07 3.17t-3.314 7.925q0 3.602 1.873 6.052t7.205 5.475q13.977 8.07 20.317 16.427 6.484 8.357 6.484 18.876" style="font-style:normal;font-variant:normal;font-weight:400;font-stretch:normal;line-height:0;font-family:&quot;Roadgeek 2005 Series C&quot;;-inkscape-font-specification:&quot;Roadgeek 2005 Series C&quot;;letter-spacing:6.13304186px;fill:#000;stroke:none;stroke-width:3.60230541" transform="translate(3 -3)"/>
    </g>
  </g>
</svg>
