<svg xmlns="http://www.w3.org/2000/svg" viewBox="0 0 606 1206" role="img" aria-labelledby="title">
  <title id="title">Verkehrszeichen R2-6-R__2 - No Right Turn (used in the ACT, NSW, QLD and NT)</title>
  <g transform="translate(0 909)">
    <rect width="604" height="1204" x="1" y="-908" rx="62" ry="62" style="opacity:1;fill:#000;fill-opacity:1;fill-rule:nonzero;stroke:none;stroke-width:179.43049622;stroke-linecap:square;stroke-linejoin:round;stroke-miterlimit:4;stroke-dasharray:none;stroke-opacity:1"/>
    <rect width="600" height="1200" x="3" y="-906" rx="60" ry="60" style="opacity:1;fill:#fff;fill-opacity:1;fill-rule:nonzero;stroke:none;stroke-width:178.53804016;stroke-linecap:square;stroke-linejoin:round;stroke-miterlimit:4;stroke-dasharray:none;stroke-opacity:1"/>
    <rect width="580" height="1180" x="13" y="-896" rx="50" ry="50" style="opacity:1;fill:#000;fill-opacity:1;fill-rule:nonzero;stroke:none;stroke-width:174.0682373;stroke-linecap:square;stroke-linejoin:round;stroke-miterlimit:4;stroke-dasharray:none;stroke-opacity:1"/>
    <rect width="540" height="1140" x="33" y="-876" rx="30" ry="30" style="opacity:1;fill:#fff;fill-opacity:1;fill-rule:nonzero;stroke:none;stroke-width:165.08737183;stroke-linecap:square;stroke-linejoin:round;stroke-miterlimit:4;stroke-dasharray:none;stroke-opacity:1"/>
    <circle cx="303" cy="-606" r="245" style="opacity:1;fill:#be121e;fill-opacity:1;fill-rule:nonzero;stroke:none;stroke-width:97.16520691;stroke-linecap:square;stroke-linejoin:round;stroke-miterlimit:4;stroke-dasharray:none;stroke-opacity:1"/>
    <circle cx="303" cy="-606" r="204" style="opacity:1;fill:#fff;fill-opacity:1;fill-rule:nonzero;stroke:none;stroke-width:80.90490723;stroke-linecap:square;stroke-linejoin:round;stroke-miterlimit:4;stroke-dasharray:none;stroke-opacity:1"/>
    <path d="M205-441v-202c0-42.104 33.896-76 76-76h164l30 30-30 30H281c-8.864 0-16 7.136-16 16v202z" style="opacity:1;fill:#000;fill-opacity:1;fill-rule:nonzero;stroke:none;stroke-width:80.00259399;stroke-linecap:square;stroke-linejoin:round;stroke-miterlimit:4;stroke-dasharray:none;stroke-opacity:1"/>
    <path d="M-238.753-882.76h49v480h-49z" style="opacity:1;fill:#be121e;fill-opacity:1;fill-rule:nonzero;stroke:none;stroke-width:76.04305267;stroke-linecap:square;stroke-linejoin:round;stroke-miterlimit:4;stroke-dasharray:none;stroke-opacity:1" transform="rotate(45)"/>
    <g aria-label="NO" style="font-style:normal;font-variant:normal;font-weight:400;font-stretch:normal;font-size:230.54754639px;line-height:0;font-family:&quot;Roadgeek 2005 Series E&quot;;-inkscape-font-specification:&quot;Roadgeek 2005 Series E&quot;;letter-spacing:0;word-spacing:0;fill:#000;fill-opacity:1;stroke:none;stroke-width:5.76368856">
      <path d="m1174.202-898.66-73.545-106.282v106.283h-27.205v-154.467h27.205l70.778 101.902v-101.902h26.744v154.467zM1364.452-976.815q0 18.213-4.61 33.199-4.381 14.755-12.681 25.36t-20.288 16.6q-11.758 5.763-26.513 5.763-17.06 0-29.51-6.916-12.22-7.147-20.288-18.444-8.07-11.527-11.989-25.821-3.689-14.525-3.689-29.05 0-18.443 4.38-33.198 4.612-14.755 13.142-25.13t20.519-15.908q12.219-5.533 27.435-5.533 14.294 0 26.052 5.764 11.758 5.763 20.288 16.138t13.141 25.13q4.611 14.524 4.611 32.046m-27.666.692q0-24.438-9.452-38.271t-26.974-13.833-27.435 13.833-9.914 38.27q0 24.9 9.914 38.733t27.435 13.832q11.066 0 17.983-4.841 7.147-4.842 11.066-12.45 4.15-7.608 5.764-16.83 1.613-9.452 1.613-18.443" style="font-style:normal;font-variant:normal;font-weight:400;font-stretch:normal;line-height:0;font-family:&quot;Roadgeek 2005 Series E&quot;;-inkscape-font-specification:&quot;Roadgeek 2005 Series E&quot;;fill:#000;stroke:none;stroke-width:5.76368856" transform="translate(-915.952 758.893)"/>
    </g>
    <g aria-label="RIGHT" style="font-style:normal;font-variant:normal;font-weight:400;font-stretch:normal;font-size:151.29682922px;line-height:0;font-family:&quot;Roadgeek 2005 Series E&quot;;-inkscape-font-specification:&quot;Roadgeek 2005 Series E&quot;;letter-spacing:.71702081px;word-spacing:0;fill:#000;fill-opacity:1;stroke:none;stroke-width:3.78242064">
      <path d="m956.628-264.22-16.34-39.791h-27.082v39.79h-18.155v-101.368h46.599q5.598 0 9.532.908 3.933.907 7.867 3.328 7.262 3.934 11.499 11.045 4.236 7.11 4.236 15.735t-4.388 15.735q-4.236 6.96-12.103 11.196l18.61 43.422zm0-70.353q0-5.9-3.933-9.38-3.934-3.48-10.742-3.48h-28.747v25.266h28.747q6.808 0 10.742-3.329 3.933-3.48 3.933-9.077M998.011-264.22v-101.37h18.156v101.37zM1122.323-314.753v13.162q0 8.322-3.177 15.433-3.178 7.11-8.624 12.406-5.447 5.295-12.86 8.321-7.263 3.026-15.584 3.026-11.196 0-19.215-4.539-7.867-4.539-13.011-11.952-4.993-7.414-7.414-16.794-2.27-9.532-2.27-19.366 0-11.65 3.027-21.182 3.026-9.683 8.472-16.642 5.447-6.96 13.163-10.742t17.248-3.783q13.768 0 22.997 6.809 9.38 6.657 14.676 18.458l-18.458 6.354q-3.026-6.354-7.717-9.834-4.69-3.631-11.498-3.631-5.295 0-9.683 2.572t-7.565 7.11q-3.026 4.54-4.841 10.894-1.665 6.203-1.665 13.617 0 6.203 1.06 12.406 1.058 6.052 3.782 11.045 2.723 4.841 7.262 8.019 4.539 3.026 11.65 3.026 3.782 0 7.11-1.21 3.48-1.211 6.355-3.33 2.875-2.117 4.842-4.992 2.118-3.026 3.026-6.506h-16.643v-18.155zM1210.003-264.22v-44.482l-45.54.303v44.179h-18.157v-101.37h18.156v39.187h45.54v-39.186h18.156v101.369zM1292.85-347.736v83.516h-17.702v-83.516h-29.2v-17.853h76.102v17.853z" style="font-style:normal;font-variant:normal;font-weight:400;font-stretch:normal;line-height:0;font-family:&quot;Roadgeek 2005 Series E&quot;;-inkscape-font-specification:&quot;Roadgeek 2005 Series E&quot;;letter-spacing:.71702081px;fill:#000;stroke:none;stroke-width:3.78242064" transform="translate(-800.05 293.405)"/>
    </g>
    <g aria-label="TURN" style="font-style:normal;font-variant:normal;font-weight:400;font-stretch:normal;font-size:153.9589386px;line-height:0;font-family:&quot;Roadgeek 2005 Series E&quot;;-inkscape-font-specification:&quot;Roadgeek 2005 Series E&quot;;letter-spacing:.60589582px;word-spacing:0;fill:#000;fill-opacity:1;stroke:none;stroke-width:3.84897351">
      <path d="M969.99-187.464v84.986h-18.014v-84.986h-29.714v-18.167h77.441v18.167zM1100.95-144.047q0 9.545-3.079 17.55-3.08 7.853-8.622 13.703-5.542 5.697-13.24 8.93t-16.782 3.233-16.781-3.233q-7.544-3.233-13.087-8.93-5.542-5.85-8.621-13.702-3.08-8.006-3.08-17.551v-61.584h18.476v61.584q0 4.618.615 7.544.77 2.77 2.618 5.85 3.079 5.08 8.313 8.16 5.235 3.08 11.547 3.08t11.547-3.08q5.389-3.08 8.468-8.16 1.848-3.08 2.463-6.004.77-3.08.77-7.39v-61.584h18.475zM1190.982-102.478l-16.627-40.492h-27.559v40.492h-18.475v-103.153h47.42q5.696 0 9.699.924t8.005 3.387q7.39 4.003 11.701 11.239t4.311 16.012-4.465 16.011q-4.31 7.082-12.316 11.393l18.937 44.187zm0-71.591q0-6.005-4.003-9.546t-10.93-3.54h-29.253v25.71h29.252q6.928 0 10.931-3.387 4.003-3.54 4.003-9.237M1300.25-102.478l-49.113-70.976v70.976h-18.167v-103.153h18.167l47.265 68.05v-68.05h17.86v103.153z" style="font-style:normal;font-variant:normal;font-weight:400;font-stretch:normal;line-height:0;font-family:&quot;Roadgeek 2005 Series E&quot;;-inkscape-font-specification:&quot;Roadgeek 2005 Series E&quot;;letter-spacing:.60589582px;fill:#000;stroke:none;stroke-width:3.84897351" transform="translate(-821.262 299.63)"/>
    </g>
  </g>
</svg>
