<svg xmlns="http://www.w3.org/2000/svg" viewBox="0 0 214.813 80.937" role="img" aria-labelledby="title">
  <title id="title">Verkehrszeichen R5-39 - Tow-Away Area</title>
  <path d="M11.138.297h192.531c5.97 0 10.855 4.885 10.855 10.853v58.634c0 5.968-4.884 10.853-10.855 10.853H11.138C5.17 80.637.285 75.752.285 69.784V11.15C.285 5.182 5.167.297 11.138.297z" style="fill:#fff;fill-opacity:1;fill-rule:evenodd;stroke:#000;stroke-width:.60000004;stroke-miterlimit:4;stroke-opacity:1;stroke-dasharray:none"/>
  <path d="M11.172 1.726h192.46l.999.05.931.143c4 .825 7.07 4.2 7.482 8.27l.05.998v58.56c.02 4.474-3.163 8.36-7.532 9.268l-.933.143-.997.05H11.172l-.996-.05c-4.07-.414-7.445-3.48-8.27-7.483l-.143-.932-.052-.996v-58.56a9.36 9.36 0 0 1 1.144-4.516l.474-.777.544-.727A9.5 9.5 0 0 1 7.482 2.47l.864-.319.899-.232.931-.143z" style="fill:#000;fill-opacity:1;fill-rule:evenodd;stroke:none"/>
  <path d="M11.246 4.583h192.315l.781.039.645.1c2.775.57 4.93 2.935 5.21 5.757l.042.782v58.414c.039 3.148-2.178 5.895-5.254 6.54l-.645.097-.78.041H11.247l-.777-.04c-2.831-.287-5.187-2.432-5.762-5.213l-.098-.647-.04-.778V11.261a6.6 6.6 0 0 1 .798-3.222l.33-.54.382-.51A6.7 6.7 0 0 1 8.6 5.101l.6-.22.621-.16.647-.1z" style="fill:#fff;fill-opacity:1;fill-rule:evenodd;stroke:none"/>
  <path d="m50.898 40.92 9.855-5.026c.326-.168.404-.888.1-1.09l-6.29-4.16c-.276-.182-.69-.239-.99-.1l-6.265 2.948c-.341.161-.378.769-.222 1.114l2.749 6.09c.147.33.74.389 1.063.224m31.103 1.048c.725-.09 1.413.002 1.934.391.12.284.272.582.41.895 3.294 7.49 14.935 4.031 10.926-4.8-.647-1.423-.99-2.508-.185-3.928l7.282-12.85c.247-.44.825-.467 1.135.238l8.268 18.74h-5.754c-.592 0-1.018 2.278-1.018 2.87V55.96c0 .423.384.77.808.77h6.858c.256 0 .582-.371.614-.625.634-4.685 4.555-8.335 9.33-8.335 4.702 0 8.74 2.688 9.328 7.352h28.815c.588-4.664 4.628-8.224 9.329-8.224 5.178 0 9.4 4.222 9.4 9.4 0 .734-.197 1.212-.214 1.924-.004.165.212.323.377.323h7.295c.456 0 .601-.77.601-1.226v-15.61c0-1.774-2.003-2.892-2.585-4.164l-4.444-9.738c-.16-.347-.647-.985-1.33-.987l-13.084-.033c-3.452-.01-5.693 2.534-5.693 5.621l.002 7.566c0 .4-.588.682-.987.682h-28.965C122.9 32.71 114.41 23.912 106.938 16.02c-1.531-1.615-4.436-2.132-5.78.152L90.103 35.32c-.456.788-.36 1.456.196 2.305.553.845.979 1.785 1.446 2.707 1.433 2.827-1.136 5.01-3.808 2.654-.695-.613-.917-1.197-1.55-1.878-1.507-1.62-2.92.086-4.386.86m-46.078 6.507 11.05-5.55c.387-.195.282-.905.098-1.298L44.3 35.72c-.17-.363-.739-.625-1.103-.467l-5.467 2.378c-2.327 1.013-3.057 3.647-3.211 6.202l-.198 3.237c-.04.708.967 1.722 1.6 1.405m4.904 17.829c3.04 0 5.517-2.48 5.517-5.517a5.526 5.526 0 0 0-5.517-5.514 5.525 5.525 0 0 0-5.515 5.514c0 3.037 2.478 5.517 5.515 5.517M82.678 40.81c-1.083-2.638-3.72-4.414-6.58-4.414-3.917 0-7.11 3.192-7.11 7.108 0 1.027.278 2.11.694 3.027l-22.39 10.603a7.45 7.45 0 0 0-6.465-3.769c-4.086 0-7.42 3.333-7.42 7.421 0 .927.29 1.544.462 2.425.034.18-.209.38-.393.39l-5.148.285c-.777.042-1.324-1.16-.93-1.871.296-.532.337-.97.355-1.561l.124-3.986c.071-2.38 1.823-3.526 2.757-5.65.51-1.16.632-2.618.428-4.005-.014-4.19.505-8.936 4.57-10.87 5.812-2.768 11.773-6.399 17.915-8.268 1.24-.378 2.065.32 2.981.93l7.264 4.834c.439.291 1.082.487 1.56.263 3.714-1.73 7.257-3.925 11.126-5.29 1.91-.676 3.009-.554 4.548.75 2.76 2.334 3.982 5.528 4.89 8.863.093.345.303.91-.014 1.076zm-6.58 8.209a5.525 5.525 0 0 0 5.514-5.515 5.526 5.526 0 0 0-5.514-5.516 5.526 5.526 0 0 0-5.517 5.516 5.526 5.526 0 0 0 5.517 5.515m46.51 14.891c3.715 0 6.744-3.026 6.744-6.741 0-3.712-3.029-6.741-6.744-6.741-3.712 0-6.74 3.029-6.74 6.741 0 3.715 3.028 6.741 6.74 6.741m47.473-.873c3.712 0 6.74-3.028 6.74-6.74 0-3.715-3.028-6.742-6.74-6.742s-6.741 3.027-6.741 6.741 3.028 6.741 6.74 6.741m-.68-24.21h10.65c.846 0 .813-.9.368-2.062l-2.069-5.401c-.15-.39-.577-.764-.994-.764h-8.109c-.336 0-.636.403-.636.738v6.567c0 .437.371 1.042.79.923" style="fill:#000;fill-opacity:1;fill-rule:evenodd;stroke:none"/>
</svg>
