<svg xmlns="http://www.w3.org/2000/svg" viewBox="0 0 606 1006" role="img" aria-labelledby="title">
  <title id="title">Verkehrszeichen R2-5-N - No U-turn (used in the ACT, NSW, QLD, VIC, and NT)</title>
  <g transform="translate(0 709)">
    <rect width="604" height="1004" x="1" y="-708" rx="62" ry="62" style="opacity:1;fill:#000;fill-opacity:1;fill-rule:nonzero;stroke:none;stroke-width:163.85128784;stroke-linecap:square;stroke-linejoin:round;stroke-miterlimit:4;stroke-dasharray:none;stroke-opacity:1"/>
    <rect width="600" height="1000" x="3" y="-706" rx="60" ry="60" style="opacity:1;fill:#fff;fill-opacity:1;fill-rule:nonzero;stroke:none;stroke-width:162.98219299;stroke-linecap:square;stroke-linejoin:round;stroke-miterlimit:4;stroke-dasharray:none;stroke-opacity:1"/>
    <rect width="580" height="980" x="13" y="-696" rx="50" ry="50" style="opacity:1;fill:#000;fill-opacity:1;fill-rule:nonzero;stroke:none;stroke-width:158.63227844;stroke-linecap:square;stroke-linejoin:round;stroke-miterlimit:4;stroke-dasharray:none;stroke-opacity:1"/>
    <rect width="540" height="940" x="33" y="-676" rx="30" ry="30" style="opacity:1;fill:#fff;fill-opacity:1;fill-rule:nonzero;stroke:none;stroke-width:149.90818787;stroke-linecap:square;stroke-linejoin:round;stroke-miterlimit:4;stroke-dasharray:none;stroke-opacity:1"/>
    <circle cx="303" cy="-406" r="245" style="opacity:1;fill:#be121e;fill-opacity:1;fill-rule:nonzero;stroke:none;stroke-width:97.16520691;stroke-linecap:square;stroke-linejoin:round;stroke-miterlimit:4;stroke-dasharray:none;stroke-opacity:1"/>
    <circle cx="303" cy="-406" r="204" style="opacity:1;fill:#fff;fill-opacity:1;fill-rule:nonzero;stroke:none;stroke-width:80.90490723;stroke-linecap:square;stroke-linejoin:round;stroke-miterlimit:4;stroke-dasharray:none;stroke-opacity:1"/>
    <path d="M195-252v-195c0-59.832 48.168-108 108-108s108 48.168 108 108v108l-29 29-29-29v-108c0-27.7-22.3-50-50-50s-50 22.3-50 50v195z" style="opacity:1;fill:#000;fill-opacity:1;fill-rule:nonzero;stroke:none;stroke-width:61.61229324;stroke-linecap:square;stroke-linejoin:round;stroke-miterlimit:4;stroke-dasharray:none;stroke-opacity:1"/>
    <path d="M-96.332-741.339h47v480h-47z" style="opacity:1;fill:#be121e;fill-opacity:1;fill-rule:nonzero;stroke:none;stroke-width:89.04818726;stroke-linecap:square;stroke-linejoin:round;stroke-miterlimit:4;stroke-dasharray:none;stroke-opacity:1" transform="rotate(45)"/>
    <g aria-label="TURN" style="font-style:normal;font-variant:normal;font-weight:400;font-stretch:normal;font-size:190.61582947px;line-height:0;font-family:&quot;Roadgeek 2005 Series D&quot;;-inkscape-font-specification:&quot;Roadgeek 2005 Series D&quot;;letter-spacing:1.94997919px;word-spacing:0;fill:#000;fill-opacity:1;stroke:none;stroke-width:4.76539564">
      <path d="M1089.562-329.13v109.795h-20.205V-329.13h-29.165v-17.918h78.915v17.918zM1226.682-265.083q0 7.434-1.715 14.106-1.525 6.671-4.194 12.39-2.478 4.765-6.48 8.768-4.004 3.812-8.96 6.672t-10.674 4.384q-5.528 1.715-11.437 1.715-5.91 0-11.628-1.715-5.528-1.525-10.484-4.384t-9.149-6.672q-4.003-4.003-6.481-8.768-2.669-5.719-4.194-12.39t-1.524-14.106v-81.965h20.205v81.965q0 12.58 6.29 20.015 6.481 7.434 16.965 7.434t16.774-7.434q6.481-7.434 6.481-20.015v-81.965h20.205zM1323.983-219.335l-20.587-55.66h-24.208v55.66h-20.205v-127.713h42.126q7.434 0 12.771.953 5.337.763 10.103 3.05 4.194 2.097 7.625 5.528 3.621 3.24 6.1 7.625 2.668 4.193 4.002 9.15 1.525 4.765 1.525 9.53 0 5.147-1.525 10.103-1.334 4.765-4.003 9.15-2.478 4.193-6.29 7.624-3.622 3.431-8.006 5.337l22.493 59.663zm-.953-91.877q0-4.003-2.097-7.624-2.097-3.622-5.909-5.719-2.478-1.334-4.575-1.715-2.097-.572-7.053-.572h-24.208v31.26h24.208q4.766 0 6.863-.38 2.287-.382 4.765-1.716 3.812-2.097 5.91-5.719 2.096-3.812 2.096-7.815M1438.274-219.335l-48.797-86.54v86.54h-20.206v-127.713h20.205l46.51 81.584v-81.584h20.206v127.713z" style="font-style:normal;font-variant:normal;font-weight:400;font-stretch:normal;line-height:0;font-family:&quot;Roadgeek 2005 Series D&quot;;-inkscape-font-specification:&quot;Roadgeek 2005 Series D&quot;;letter-spacing:1.94997919px;fill:#000;fill-opacity:1;stroke:none;stroke-width:4.76539564" transform="translate(-945.192 436.048)"/>
    </g>
    <g aria-label="NO U" style="font-style:normal;font-variant:normal;font-weight:400;font-stretch:normal;font-size:230.54754639px;line-height:0;font-family:&quot;Roadgeek 2005 Series D&quot;;-inkscape-font-specification:&quot;Roadgeek 2005 Series D&quot;;letter-spacing:0;word-spacing:0;fill:#000;fill-opacity:1;stroke:none;stroke-width:5.76368856">
      <path d="M143.934 38.721 84.914-65.947V38.72H60.476v-154.466h24.438l56.254 98.674v-98.674h24.438V38.72ZM308.476-38.281q0 18.443-4.38 35.273t-12.45 27.205q-12.91 17.291-37.348 17.291-16.37 0-26.974-6.686-10.606-6.686-17.522-20.98-4.841-9.913-7.839-23.977-2.997-14.294-2.997-28.126 0-19.136 4.38-35.505 4.612-16.369 12.45-27.435 6.917-8.76 16.37-12.91 9.682-4.38 23.054-4.38 14.755 0 25.13 6.685 10.374 6.686 17.752 20.98 4.841 10.374 7.608 24.207t2.766 28.358m-24.438 0q0-13.142-2.305-24.208-2.306-11.297-6.917-19.135-3.688-5.995-8.53-8.761-4.61-2.767-11.527-3.228-8.992-.46-14.986 4.15t-9.913 14.986q-2.998 6.916-4.611 16.83-1.384 9.683-1.384 19.366 0 12.45 2.306 23.977T233.087 4.6q3.69 5.995 8.761 8.992 5.072 2.997 12.45 2.997 8.53 0 14.063-4.611 5.764-4.611 9.683-14.986 1.153-2.997 2.306-7.147 1.152-4.38 1.844-8.991.922-4.841 1.383-9.683t.461-9.452M516.476-16.61q0 8.991-2.075 17.06-1.844 8.07-5.072 14.986-2.997 5.764-7.839 10.605-4.841 4.611-10.836 8.07-5.994 3.458-12.91 5.302-6.686 2.075-13.833 2.075t-14.063-2.075q-6.686-1.844-12.68-5.302-5.995-3.459-11.067-8.07-4.841-4.841-7.838-10.605Q415.035 8.52 413.19.451q-1.845-8.07-1.845-17.06v-99.136h24.438v99.135q0 15.216 7.608 24.208 7.839 8.99 20.519 8.99t20.288-8.99q7.839-8.992 7.839-24.208v-99.135h24.438z" style="font-style:normal;font-variant:normal;font-weight:400;font-stretch:normal;line-height:0;font-family:&quot;Roadgeek 2005 Series D&quot;;-inkscape-font-specification:&quot;Roadgeek 2005 Series D&quot;;fill:#000;fill-opacity:1;stroke:none;stroke-width:5.76368856" transform="translate(14.524 -12.488)"/>
    </g>
  </g>
</svg>
