<svg xmlns="http://www.w3.org/2000/svg" viewBox="0 0 241.188 311.094" role="img" aria-labelledby="title">
  <title id="title">Verkehrszeichen R7-7-6 - T3 Transit Lane Restriction (3 people or more (1 driver, 2 passengers))</title>
  <path d="M20.733.751h199.734c10.986 0 19.973 8.99 19.973 19.974v269.642c0 10.983-8.987 19.973-19.973 19.973H20.733C9.747 310.34.76 301.35.76 290.367V20.725C.76 9.738 9.747.75 20.733.75z" style="fill:#fff;fill-opacity:1;fill-rule:evenodd;stroke:#000;stroke-width:1.49985397;stroke-linecap:butt;stroke-linejoin:miter;stroke-miterlimit:22.9260006;stroke-opacity:1;stroke-dasharray:none"/>
  <path d="M20.733 3.748c-9.33 0-16.976 7.646-16.976 16.977v269.642c0 9.33 7.646 16.976 16.976 16.976h199.734c9.333 0 16.98-7.646 16.98-16.976V20.725c0-9.33-7.647-16.977-16.98-16.977z" style="fill:#000;fill-opacity:1;fill-rule:evenodd;stroke:none"/>
  <path d="M20.733 9.738c-6.024 0-10.986 4.962-10.986 10.987v269.639c0 6.024 4.962 10.986 10.986 10.986h199.734c6.024 0 10.986-4.962 10.986-10.986V20.724c0-6.024-4.962-10.986-10.986-10.986z" style="fill:#fff;fill-opacity:1;fill-rule:evenodd;stroke:none"/>
  <path d="M23.095 28.73h23.489v5.178h-9.012v26.778H32.01V33.908h-8.915zM52.302 28.73h15.37c1.147.006 2.216.181 3.21.516.984.34 1.877.815 2.67 1.418a9.6 9.6 0 0 1 2.041 2.112 9.6 9.6 0 0 1 1.306 2.597q.457 1.395.457 2.881a9.3 9.3 0 0 1-.244 2.04 11.294 11.294 0 0 1-1.86 4.04 10 10 0 0 1-1.533 1.66 7.6 7.6 0 0 1-1.89 1.175l5.942 13.517h-5.943l-5.69-12.495h-8.371v12.495h-5.465zm5.465 5.465v8.565h9.905a3.8 3.8 0 0 0 1.584-.353 4.3 4.3 0 0 0 1.32-.931q.584-.6.911-1.36a4.1 4.1 0 0 0 .341-1.606c0-.306-.047-.65-.153-1.025a5.2 5.2 0 0 0-.469-1.143 4.8 4.8 0 0 0-.815-1.06 3.8 3.8 0 0 0-1.169-.784q-.677-.295-1.55-.303zM95.32 28.73h5.337l13.42 31.956h-6.006l-3.068-7.446h-13.87L88 60.686h-5.88zm-2.013 19.014h9.396L98.035 36.4zM120.214 28.73h5.24l14.67 21.123V28.73h5.56v31.956h-4.985l-14.957-21.698v21.698h-5.528zM151.914 54.934l4.378-3.197c.772.838 1.565 1.55 2.38 2.147a9.8 9.8 0 0 0 2.663 1.368q1.442.473 3.234.482.51.001 1.231-.07.719-.074 1.528-.252a11 11 0 0 0 1.594-.488 6.4 6.4 0 0 0 1.421-.784 3.8 3.8 0 0 0 1.022-1.14q.385-.663.394-1.55-.006-.871-.372-1.485a3.1 3.1 0 0 0-.975-1.018 6 6 0 0 0-1.375-.672 15 15 0 0 0-1.565-.447q-.809-.182-1.56-.34c-.502-.1-.95-.225-1.343-.35-.915-.294-1.828-.582-2.73-.87a34 34 0 0 1-2.623-.936 15 15 0 0 1-2.337-1.188 8.4 8.4 0 0 1-1.88-1.637q-.806-.953-1.254-2.262c-.297-.875-.453-1.903-.456-3.078q.004-1.528.469-2.794a7.7 7.7 0 0 1 1.271-2.271 9.6 9.6 0 0 1 1.903-1.766c.725-.5 1.5-.915 2.338-1.25q1.257-.497 2.584-.747 1.33-.249 2.653-.25c.956.007 1.959.122 2.996.363 1.04.24 2.069.575 3.084 1.019a16.7 16.7 0 0 1 2.85 1.568q1.334.919 2.318 2.034l-3.996 3.772a14 14 0 0 0-1.678-1.481 7.8 7.8 0 0 0-1.65-.953 7.6 7.6 0 0 0-1.8-.51q-.962-.157-2.124-.156-.587.001-1.338.128a10 10 0 0 0-1.518.385q-.775.264-1.438.671c-.443.266-.8.591-1.078.957a2.3 2.3 0 0 0-.447 1.28c.004.644.14 1.188.407 1.62q.398.652 1.112 1.074a7.8 7.8 0 0 0 1.65.731 37 37 0 0 0 2.03.569q1.092.272 2.248.606 1.11.323 2.365.672c.837.234 1.672.506 2.515.816.835.303 1.64.675 2.4 1.112.756.431 1.44.96 2.034 1.578a6.7 6.7 0 0 1 1.406 2.2q.522 1.275.528 2.987c-.003 1.165-.197 2.225-.562 3.184a8.8 8.8 0 0 1-1.54 2.562 10.7 10.7 0 0 1-2.269 1.96 14 14 0 0 1-2.76 1.374 17 17 0 0 1-2.999.816 18 18 0 0 1-3.003.265q-.976-.002-2.124-.228a19 19 0 0 1-2.381-.643 22 22 0 0 1-2.419-1.003 18.5 18.5 0 0 1-2.247-1.288 13 13 0 0 1-1.878-1.512 7.4 7.4 0 0 1-1.287-1.684M183.361 60.686h5.497V28.73h-5.497zM194.61 28.73h23.488v5.178h-9.011v26.778h-5.562V33.908h-8.915zM61.648 215.134c.312-.11.66-.216 1.056-.319a17.666 17.666 0 0 1 2.45-.49c.406-.05.768-.078 1.096-.078q1.106 0 2.244.18c.756.122 1.49.31 2.21.566.715.253 1.383.582 2.005.972a7.3 7.3 0 0 1 1.64 1.41q.708.813 1.11 1.871c.262.703.397 1.487.403 2.36-.006.865-.14 1.649-.412 2.349a6 6 0 0 1-1.116 1.856 7.5 7.5 0 0 1-1.653 1.4 10 10 0 0 1-2.01.965q-1.076.381-2.205.56c-.75.118-1.49.181-2.216.181q-1.524-.001-2.927-.344a10 10 0 0 1-2.597-1.028 8 8 0 0 1-2.081-1.706 7.3 7.3 0 0 1-1.384-2.371q-.498-1.355-.503-3.038c.002-1.971.253-3.787.743-5.44q.734-2.479 2.106-4.427a13.4 13.4 0 0 1 3.284-3.297 14.5 14.5 0 0 1 4.269-2.062c1.575-.472 3.268-.707 5.08-.713v4.269a8 8 0 0 0-1.077-.073q-1.185.004-2.366.322-1.172.319-2.275.903c-.73.391-1.415.85-2.046 1.388a10.8 10.8 0 0 0-1.675 1.771 9 9 0 0 0-1.153 2.063m4.818 9.54a14 14 0 0 0 1.994-.126c.621-.084 1.168-.234 1.65-.459a2.7 2.7 0 0 0 1.13-.934c.276-.403.413-.919.426-1.55q-.005-.93-.42-1.537c-.271-.41-.65-.725-1.13-.957q-.719-.343-1.653-.487a13 13 0 0 0-1.997-.134 11.4 11.4 0 0 0-2.022.156q-.927.158-1.621.519a2.85 2.85 0 0 0-1.085.962c-.259.4-.39.89-.403 1.478q.009.843.397 1.431.386.585 1.081.947a5.5 5.5 0 0 0 1.628.525 11.4 11.4 0 0 0 2.025.165M104.59 221.486h17.641v-4.05h-17.64zM134.975 228.46v-18h-2.972v-3.475a5.2 5.2 0 0 0 2.781-1.291q.58-.524.935-1.203h3.403v23.97zM153.717 224.72c.812-.003 1.525-.143 2.153-.425a4.7 4.7 0 0 0 1.622-1.171 6.3 6.3 0 0 0 1.118-1.79q.434-1.026.65-2.263.21-1.228.21-2.597.001-1.368-.22-2.603a10 10 0 0 0-.668-2.265 6.4 6.4 0 0 0-1.13-1.787 4.8 4.8 0 0 0-1.616-1.169q-.933-.413-2.119-.419c-.79.003-1.493.144-2.118.419a4.8 4.8 0 0 0-1.613 1.169c-.46.506-.834 1.1-1.134 1.787a10 10 0 0 0-.669 2.265q-.22 1.233-.218 2.603-.001 1.369.209 2.597.216 1.237.65 2.262a6.3 6.3 0 0 0 1.119 1.79c.456.507.993.897 1.621 1.172.628.282 1.34.422 2.153.425zm0 4.194c-1.394-.003-2.628-.22-3.712-.635a8.3 8.3 0 0 1-2.797-1.768 9.5 9.5 0 0 1-1.928-2.697c-.506-1.034-.878-2.175-1.121-3.412a20.4 20.4 0 0 1-.366-3.928q-.001-2.065.381-3.924c.25-1.244.634-2.388 1.153-3.422a9.7 9.7 0 0 1 1.96-2.703 8.3 8.3 0 0 1 2.783-1.775q1.604-.627 3.647-.637 2.043.008 3.646.637a8.4 8.4 0 0 1 2.79 1.775 9.9 9.9 0 0 1 1.954 2.703 13.6 13.6 0 0 1 1.153 3.422q.382 1.858.381 3.924c0 1.378-.122 2.684-.366 3.928a13.7 13.7 0 0 1-1.118 3.412 9.6 9.6 0 0 1-1.931 2.697q-1.179 1.142-2.797 1.768c-1.081.416-2.318.632-3.712.635M82.902 220.47h1.334l3.356 7.99H86.09l-.765-1.862h-3.469l-.784 1.863h-1.469zm-.503 4.753h2.35l-1.169-2.834zM89.123 220.47h1.325l2.35 4.753 2.284-4.752h1.406v7.99h-1.365v-4.819l-2.325 4.819-2.31-4.753v4.753h-1.365zM170.847 220.47h1.334l3.356 7.99h-1.503l-.766-1.862H169.8l-.785 1.863h-1.468zm-.504 4.753h2.35l-1.168-2.834zM177.071 220.47h1.325l2.35 4.753 2.284-4.752h1.406v7.99h-1.366v-4.819l-2.324 4.819-2.31-4.753v4.753h-1.365zM77.874 214.115l1.64-1.21q.256.238.473.457.224.222.456.406c.16.125.334.234.534.328q.296.141.7.216.408.077.966.078c.212 0 .434-.02.675-.063q.36-.059.712-.193a2.7 2.7 0 0 0 .644-.344q.29-.21.462-.51.177-.293.181-.687a1.85 1.85 0 0 0-.16-.75 2.02 2.02 0 0 0-1.008-1.018 1.7 1.7 0 0 0-.678-.15h-.9v-2.097h.9q.229-.001.443-.078c.147-.056.275-.131.394-.228q.174-.15.278-.356t.106-.463q0-.35-.156-.587-.15-.239-.394-.388a2 2 0 0 0-.528-.231 3.4 3.4 0 0 0-.559-.11 4 4 0 0 0-.484-.027c-.328 0-.64.04-.94.13q-.447.132-.879.404a6 6 0 0 0-.878.7l-1.544-1.366c.272-.287.538-.534.797-.753q.39-.324.788-.556.393-.23.834-.375a5 5 0 0 1 .947-.212 8 8 0 0 1 1.128-.07q.403 0 .85.098a5.1 5.1 0 0 1 1.73.74q.396.268.704.616.315.342.487.76c.122.274.181.574.185.89q0 .398-.069.778c-.047.256-.112.49-.2.712a2.4 2.4 0 0 1-.325.585q-.19.253-.437.393c.178.066.359.197.553.39q.291.292.547.72.253.427.412.943.158.515.166 1.063c-.002.4-.078.768-.219 1.109q-.212.506-.584.928-.373.417-.853.74a6 6 0 0 1-1.013.541c-.36.147-.715.26-1.078.331a5 5 0 0 1-1.037.116 6.252 6.252 0 0 1-2.55-.569 5.59 5.59 0 0 1-2.219-1.781M94.207 214.368a2.7 2.7 0 0 0 1.078-.212q.468-.206.81-.588.34-.377.559-.893.219-.513.325-1.132c.072-.409.103-.843.103-1.296 0-.46-.035-.89-.11-1.303a5 5 0 0 0-.33-1.135c-.15-.34-.338-.64-.566-.89a2.5 2.5 0 0 0-.81-.588 2.6 2.6 0 0 0-1.059-.209 2.65 2.65 0 0 0-1.06.21q-.463.209-.805.587c-.232.25-.419.55-.569.89q-.225.516-.331 1.135c-.075.412-.11.843-.11 1.303q-.002.681.104 1.296.106.62.325 1.132.217.516.559.893.341.383.81.588c.315.14.67.209 1.077.212m0 2.097c-.697 0-1.315-.11-1.856-.316a4.2 4.2 0 0 1-1.397-.887 4.6 4.6 0 0 1-.965-1.347 7 7 0 0 1-.563-1.706 10 10 0 0 1-.18-1.962q-.001-1.034.19-1.966.189-.929.578-1.709.383-.778.978-1.353c.394-.381.86-.675 1.39-.884.538-.213 1.144-.316 1.825-.322q1.02.005 1.825.322.8.314 1.394.884.59.575.975 1.353.39.78.578 1.71.191.93.19 1.965 0 1.03-.18 1.962a7 7 0 0 1-.56 1.706 4.8 4.8 0 0 1-.969 1.347c-.39.381-.86.675-1.397.887-.54.206-1.159.316-1.856.316M74.43 280.387h1.991l3.522 7.13 3.428-7.13h2.109v11.983h-2.05v-7.224l-3.487 7.224-3.462-7.13v7.13h-2.05zM92.776 290.523c.387-.003.74-.072 1.05-.212q.466-.211.819-.59.35-.385.587-.9a5.2 5.2 0 0 0 .35-1.138q.118-.62.119-1.306 0-.69-.122-1.313a5 5 0 0 0-.363-1.14 3.3 3.3 0 0 0-.593-.9 2.4 2.4 0 0 0-.816-.59 2.5 2.5 0 0 0-1.031-.216 2.5 2.5 0 0 0-1.031.215q-.464.207-.816.591a3.3 3.3 0 0 0-.593.9 5 5 0 0 0-.363 1.14 7 7 0 0 0-.122 1.313q0 .685.119 1.306.119.617.35 1.137.24.516.587.9c.234.253.51.45.819.59.31.142.662.21 1.05.213zm0 2.072c-.662 0-1.256-.11-1.784-.316a4.2 4.2 0 0 1-1.39-.884 5 5 0 0 1-.991-1.35 7 7 0 0 1-.6-1.706 9.5 9.5 0 0 1-.197-1.962c0-.69.072-1.344.206-1.963q.205-.932.613-1.712a5.2 5.2 0 0 1 1.003-1.35q.6-.572 1.387-.887a4.8 4.8 0 0 1 1.753-.319q.968.005 1.753.319.787.315 1.387.887c.4.381.731.831 1.003 1.35q.407.779.613 1.712c.134.62.206 1.272.206 1.963q0 1.032-.197 1.962a7 7 0 0 1-.597 1.706 5 5 0 0 1-.994 1.35 4.2 4.2 0 0 1-1.39.884 4.9 4.9 0 0 1-1.784.316M100.088 280.387h1.965l5.5 7.92v-7.92h2.087v11.983h-1.872l-5.605-8.137v8.137h-2.075zM121.792 288.883h8.82v-2.026h-8.82zM141.865 280.387h8.809v2.084h-6.784v2.603h3.74v2.046h-3.74v5.25h-2.025zM152.817 280.387h5.765a3.9 3.9 0 0 1 1.203.193q.554.194 1 .532.45.34.766.793c.215.3.375.625.49.972q.17.525.172 1.081 0 .369-.094.766-.091.391-.265.781a4.3 4.3 0 0 1-.432.734q-.252.347-.575.622a2.9 2.9 0 0 1-.709.44l2.231 5.069h-2.23l-2.132-4.684h-3.14v4.684h-2.05zm2.05 2.05v3.212h3.715a1.5 1.5 0 0 0 .594-.132q.277-.127.494-.35.219-.226.34-.509c.084-.19.128-.394.128-.603 0-.116-.015-.244-.056-.384a2 2 0 0 0-.175-.431 1.9 1.9 0 0 0-.306-.397 1.4 1.4 0 0 0-.438-.294 1.5 1.5 0 0 0-.58-.112zM164.707 292.37h2.06v-11.984h-2.06zM59.46 76.65h5.466v26.845h18.023v5.112H59.46zM99.76 76.65h5.337l13.423 31.957h-6.008l-3.069-7.447h-13.87l-3.131 7.447H86.56zm-2.013 19.014h9.396l-4.668-11.343zM124.654 76.65h5.24l14.67 21.123V76.65h5.56v31.957h-4.984l-14.958-21.698v21.698h-5.528zM158.242 76.65h22.913v5.562h-17.386v6.359h9.396v5.559h-9.396v8.918h17.96v5.559h-23.487z" style="fill:#000;fill-opacity:1;fill-rule:nonzero;stroke:none"/>
  <path d="M62.276 128.58a91.6 91.6 0 0 0-31.269 6.558 45.8 45.8 0 0 0-4.284 19.29v.237a45.8 45.8 0 0 0 4.284 19.288c9.712 3.906 20.245 6.2 31.266 6.56h6.059a91.6 91.6 0 0 0 31.459-6.64 45.7 45.7 0 0 0 4.087-15.45v-7.758a45.7 45.7 0 0 0-4.087-15.445 91.6 91.6 0 0 0-31.466-6.64z" style="fill:#c0111e;fill-opacity:1;fill-rule:evenodd;stroke:none"/>
  <path d="m39.987 137.198 21.93-.285.068 5.284-8.233.106.4 30.666-5.431.072-.397-30.666-8.268.106zM67.613 143.634q.914-2.425 2.428-4.124a10.3 10.3 0 0 1 3.584-2.594c1.378-.6 2.909-.912 4.602-.934a8.5 8.5 0 0 1 3.106.572q1.532.579 2.888 1.603c.9.678 1.7 1.465 2.396 2.343a11.6 11.6 0 0 1 1.647 2.8c.403.99.612 1.975.634 2.972.002.3 0 .668-.015 1.118-.017.444-.068.925-.13 1.435a11 11 0 0 1-.307 1.503 5.4 5.4 0 0 1-.556 1.33q-.352.6-.888.929c.525.425 1 .965 1.422 1.63.422.666.781 1.398 1.084 2.204q.444 1.204.69 2.478.245 1.266.26 2.452.015 1.798-.6 3.531a13 13 0 0 1-1.709 3.24 13.9 13.9 0 0 1-2.528 2.675 12.3 12.3 0 0 1-3.074 1.828 9.2 9.2 0 0 1-3.331.7q-4.87.049-8.071-2.453c-2.132-1.668-3.74-4.121-4.819-7.374l5.556-1.331c.19.862.506 1.65.947 2.35.434.7.956 1.306 1.562 1.806q.901.756 1.915 1.156a5.4 5.4 0 0 0 2.013.394q.765-.018 1.65-.369a8.6 8.6 0 0 0 1.737-.956 9.6 9.6 0 0 0 1.569-1.381 7.1 7.1 0 0 0 1.124-1.628 3.86 3.86 0 0 0 .422-1.719c.05-.125.085-.265.11-.41a4 4 0 0 0 .022-.455c-.012-.591-.178-1.197-.49-1.803a6.7 6.7 0 0 0-1.21-1.69 6.5 6.5 0 0 0-1.609-1.25c-.572-.316-1.131-.479-1.684-.479l-.672.01c-.281.002-.556.008-.837.011l-.072-5.5q.269-.004.484-.005.225-.005.469-.006l.556-.01c.69-.008 1.28-.14 1.78-.4.5-.259.891-.659 1.16-1.202.269-.547.397-1.25.394-2.106a3.9 3.9 0 0 0-.481-1.788 5.4 5.4 0 0 0-1.182-1.512 6 6 0 0 0-1.577-1.047q-.859-.376-1.678-.372-.718 0-1.488.156a5.5 5.5 0 0 0-1.503.554q-.734.389-1.334 1.09c-.397.466-.73 1.063-.984 1.79l-5.38-1.762" style="fill:#fff;fill-opacity:1;fill-rule:nonzero;stroke:none"/>
  <path d="m64.673 260.17 3.284-2.422q.502.481.943.916.44.446.91.815a5.5 5.5 0 0 0 1.065.65q.597.28 1.403.438.815.152 1.934.153a8.095 8.095 0 0 0 2.772-.51q.707-.269 1.287-.69c.388-.28.694-.622.925-1.015.238-.4.356-.856.36-1.378a3.7 3.7 0 0 0-.316-1.5 4.04 4.04 0 0 0-2.019-2.037 3.4 3.4 0 0 0-1.356-.297h-1.797v-4.197h1.797a2.62 2.62 0 0 0 1.675-.615c.231-.194.419-.435.56-.71a2.2 2.2 0 0 0 .212-.928q-.009-.694-.313-1.168a2.4 2.4 0 0 0-.787-.782 4.3 4.3 0 0 0-1.06-.459 7 7 0 0 0-1.118-.219 8 8 0 0 0-.966-.056 6.6 6.6 0 0 0-1.88.26 7 7 0 0 0-1.76.812c-.572.366-1.16.831-1.753 1.397l-3.093-2.731a20 20 0 0 1 1.6-1.506 11.4 11.4 0 0 1 1.568-1.113 8.7 8.7 0 0 1 1.672-.75 9.8 9.8 0 0 1 1.897-.428q1.025-.135 2.253-.134.809-.001 1.703.194a9.7 9.7 0 0 1 1.774.569q.889.37 1.685.909.788.541 1.409 1.231c.415.46.737.966.975 1.522q.359.83.362 1.78 0 .8-.134 1.56a7.7 7.7 0 0 1-.4 1.422c-.175.443-.39.83-.647 1.172a3 3 0 0 1-.878.784q.529.2 1.11.781.58.58 1.09 1.437a9 9 0 0 1 .828 1.89 7.5 7.5 0 0 1 .325 2.126 5.7 5.7 0 0 1-.435 2.212 6.7 6.7 0 0 1-1.168 1.859 9 9 0 0 1-1.703 1.481q-.96.642-2.031 1.081-1.067.441-2.153.666-1.083.225-2.072.225c-.819 0-1.665-.09-2.534-.278a12.7 12.7 0 0 1-2.569-.856 11.7 11.7 0 0 1-2.402-1.466 11 11 0 0 1-2.035-2.097M111.29 257.439h17.64v-4.05h-17.64zM145.918 264.413q0-1.974.26-4.084c.17-1.4.427-2.815.77-4.237a36 36 0 0 1 1.282-4.171 29 29 0 0 1 1.794-3.878 22 22 0 0 1 2.293-3.356h-13.614v-4.243h19.104v4.074a30.4 30.4 0 0 0-3.243 4.2 29 29 0 0 0-2.447 4.687 27.6 27.6 0 0 0-1.54 5.065 27 27 0 0 0-.538 5.343v.6zM87.898 256.423h3.875q.37 0 .731.12c.238.077.466.19.678.33q.319.215.563.503.247.288.387.632.14.341.14.715a2.77 2.77 0 0 1-.424 1.469 2.5 2.5 0 0 1-.49.569q-.287.247-.638.387c-.234.09-.485.14-.756.14h-2.669v3.125h-1.397zm1.325 1.39v2.116h2.55q.328.002.575-.118a.87.87 0 0 0 .384-.36q.14-.233.144-.584a1.005 1.005 0 0 0-.36-.781 1.2 1.2 0 0 0-.368-.203 1.4 1.4 0 0 0-.422-.07zM95.823 256.423h1.324l2.35 4.753 2.284-4.753h1.407v7.99h-1.366v-4.818l-2.325 4.818-2.309-4.752v4.752h-1.365zM161.232 256.423h3.874q.37 0 .732.12a2.702 2.702 0 0 1 1.24.834c.166.19.294.403.388.63q.14.342.14.716a2.77 2.77 0 0 1-.425 1.469 2.5 2.5 0 0 1-.49.569q-.286.247-.638.387c-.234.09-.484.14-.756.14h-2.668v3.125h-1.397zm1.325 1.39v2.116h2.55q.327.002.574-.118a.87.87 0 0 0 .385-.36q.139-.233.143-.584a1 1 0 0 0-.1-.45 1 1 0 0 0-.259-.331 1.2 1.2 0 0 0-.369-.203 1.4 1.4 0 0 0-.421-.07zM169.16 256.423h1.324l2.35 4.753 2.284-4.753h1.406v7.99h-1.365v-4.818l-2.325 4.818-2.31-4.752v4.752h-1.365zM85.786 250.068l1.64-1.21q.256.238.472.457.223.222.457.406c.16.125.334.234.534.328q.296.141.7.216.408.077.965.078c.213 0 .435-.018.675-.063q.36-.059.713-.194a2.7 2.7 0 0 0 .643-.343q.29-.21.463-.51.178-.294.181-.687a1.9 1.9 0 0 0-.16-.75 2.02 2.02 0 0 0-1.008-1.019 1.7 1.7 0 0 0-.678-.15h-.9v-2.096h.9q.229-.001.443-.078c.147-.056.275-.132.394-.228q.175-.15.278-.356.105-.206.106-.463 0-.35-.156-.587-.15-.239-.394-.388a2 2 0 0 0-.528-.231 3.4 3.4 0 0 0-.559-.11 4 4 0 0 0-.484-.028c-.328 0-.64.04-.94.131q-.447.132-.879.404a6 6 0 0 0-.878.7l-1.544-1.366a10 10 0 0 1 .797-.753q.39-.325.788-.556.393-.23.834-.375.435-.146.947-.213a8 8 0 0 1 1.128-.069q.403 0 .85.097a5.1 5.1 0 0 1 1.73.74q.396.269.704.616.315.343.487.76c.122.275.181.575.185.89q0 .399-.069.778c-.047.256-.112.49-.2.713a2.4 2.4 0 0 1-.325.584q-.19.253-.437.394c.178.065.359.196.553.39.193.194.378.435.547.719q.252.427.412.944.158.514.165 1.062c-.002.4-.078.769-.218 1.11-.14.337-.338.646-.585.927-.25.278-.53.525-.853.74a6 6 0 0 1-1.012.541c-.36.147-.716.26-1.078.332a5 5 0 0 1-1.037.115q-.615 0-1.266-.14a6.3 6.3 0 0 1-1.284-.428 5.59 5.59 0 0 1-2.219-1.781M102.122 250.32a2.7 2.7 0 0 0 1.078-.212q.467-.207.81-.587.34-.376.559-.894.218-.511.325-1.13c.072-.41.103-.844.103-1.298 0-.459-.035-.89-.11-1.303a5 5 0 0 0-.33-1.134c-.15-.34-.338-.64-.566-.89a2.5 2.5 0 0 0-.81-.588 2.6 2.6 0 0 0-1.059-.209 2.65 2.65 0 0 0-1.06.21q-.463.209-.805.587c-.232.25-.42.55-.57.89q-.224.516-.33 1.134c-.075.413-.11.844-.11 1.303q-.002.682.103 1.297.107.62.325 1.131.22.517.56.894.341.38.809.587c.316.141.672.21 1.078.213m0 2.098c-.697 0-1.315-.11-1.856-.316a4.2 4.2 0 0 1-1.397-.887 4.6 4.6 0 0 1-.965-1.347 7 7 0 0 1-.563-1.706 10 10 0 0 1-.181-1.963q-.001-1.033.19-1.965.189-.93.579-1.71.382-.776.978-1.352.591-.571 1.39-.884c.538-.213 1.144-.316 1.825-.322q1.02.004 1.825.322.8.313 1.393.884.591.575.975 1.353.39.779.578 1.709a9.7 9.7 0 0 1 .191 1.965q0 1.03-.181 1.963a7 7 0 0 1-.56 1.706 4.8 4.8 0 0 1-.968 1.347c-.39.38-.86.675-1.397.887-.54.206-1.16.316-1.856.316" style="fill:#000;fill-opacity:1;fill-rule:nonzero;stroke:none"/>
  <path d="M205.706 158.152a4.46 4.46 0 1 1-.002 8.922 4.46 4.46 0 0 1 .002-8.922m-52.055 0a4.46 4.46 0 1 1 0 8.92 4.46 4.46 0 0 1 0-8.92m10.824-16.974h-5.627v8.168h-7.678l5.447-20.55 45.683-.123 5.45 20.673h-7.678v-8.168h-9.78v8.168h-21.295v-8.168zm-19.907 34.54h4.128v8.79h10.399v-8.79h40.977v8.79h10.152v-8.79h4.25v-26.372h-2.144c-1.237 0-1.981-5.074-2.228-6.312-.622-2.227-1.115-4.58-1.86-6.808-1.111-3.219-1.608-11.64-5.445-11.64h-45.808c-3.34 0-3.713 1.86-4.331 4.46-1.613 6.311-5.203 18.57-5.822 20.3h-2.268zm19.345-34.858a5.764 5.764 0 1 0-5.765-5.762 5.766 5.766 0 0 0 5.765 5.762m31.26-.006a5.764 5.764 0 1 0 0-11.529 5.764 5.764 0 0 0 0 11.529m-20.596.325h10.152v8.17h-10.152zm-.696-6.081a5.764 5.764 0 1 0 11.528-.005 5.764 5.764 0 0 0-11.528.005" style="fill:#000;fill-opacity:1;fill-rule:evenodd;stroke:none"/>
</svg>
