<svg xmlns="http://www.w3.org/2000/svg" viewBox="0 0 450 675" role="img" aria-labelledby="title">
  <title id="title">Verkehrszeichen R7-V104-VIC - Tram Lane Ahead (used in VIC)</title>
  <path fill="none" stroke="#000" stroke-linejoin="bevel" stroke-miterlimit="1.414" stroke-width=".941" d="M412.089.471"/>
  <path fill="#fff" fill-rule="evenodd" d="M38.08 674.529h373.84c4.7 0 9.4-.782 14.098-2.362 4.317-1.963 8.618-4.708 12.537-8.633 3.536-3.527 6.276-7.852 8.235-12.56a35.7 35.7 0 0 0 2.74-13.74V37.781c0-4.325-.78-9.033-2.74-13.74s-4.7-9.033-8.235-12.56c-3.919-3.925-8.22-6.685-12.537-8.25C421.32 1.268 416.62.486 411.921.486H38.079c-4.3 0-9.015.782-13.715 2.745-4.699 1.565-9.015 4.325-12.934 8.25-3.52 3.527-6.26 7.852-8.22 12.56A35.7 35.7 0 0 0 .47 37.78v599.453c0 4.325.78 9.032 2.74 13.74s4.7 9.032 8.22 12.56c3.919 3.925 8.235 6.67 12.934 8.633 4.7 1.58 9.414 2.362 13.715 2.362" style="stroke-width:3.92214"/>
  <path fill-rule="evenodd" d="M38.08 667.076h373.84c3.521 0 7.44-.399 11.358-1.963 3.521-1.58 7.057-3.926 9.797-6.686 3.138-3.128 5.48-6.67 6.658-10.198 1.577-3.542 2.358-7.468 2.358-10.995V37.781c0-3.543-.781-7.07-2.358-10.995-1.178-3.527-3.52-7.07-6.658-10.213-2.74-2.745-6.276-5.092-9.797-6.671-3.918-1.18-7.837-1.963-11.357-1.963H38.079c-3.52 0-7.439.782-10.975 1.963-3.918 1.58-7.439 3.926-10.179 6.67-3.138 3.144-5.097 6.687-6.658 10.214-1.577 3.925-1.96 7.452-1.96 10.995v599.453c0 3.527.383 7.453 1.96 10.995 1.561 3.527 3.52 7.07 6.658 10.198 2.74 2.76 6.26 5.107 10.18 6.686 3.535 1.564 7.454 1.963 10.974 1.963m0-14.92c-3.918 0-7.837-1.58-10.577-4.325s-4.316-6.671-4.316-10.597V37.781c0-1.58.398-3.543.796-5.505.78-1.565 1.959-3.528 3.52-5.092 3.138-2.76 7.057-4.324 10.577-4.324h373.842c3.918 0 7.837 1.564 10.577 4.324 3.138 3.129 4.699 7.054 4.699 10.597v599.453c0 1.564-.398 3.527-1.179 5.49-.78 1.963-1.959 3.542-3.52 5.107-2.74 3.143-6.659 4.324-10.577 4.324z" style="stroke-width:3.92214"/>
  <path fill="none" stroke="#000" stroke-linejoin="bevel" stroke-miterlimit="1.414" stroke-width=".941" d="M330.38 63.758"/>
  <path fill-rule="evenodd" d="m330.411 63.681-77.989 40.055h-8.617v16.868H68.249l-19.195 14.139v16.883h7.44v29.443h-7.44v29.443H38.08v14.92h49.38c-3.137 1.166-6.658 4.31-7.837 8.634-1.178 4.31 0 8.634 1.96 11.379 2.342 2.745 5.878 5.106 10.577 5.106 4.316 0 8.235-2.361 10.194-5.106 2.342-2.745 3.52-7.07 2.342-11.379-.78-1.962-1.96-3.925-3.52-5.505-1.18-1.564-2.74-2.346-4.7-3.128h39.569c-3.52 1.165-6.659 4.309-7.837 8.633-1.18 4.31 0 8.634 1.959 11.379 2.357 2.745 5.878 5.106 10.577 5.106 4.317 0 8.235-2.361 10.194-5.106s3.521-7.07 1.96-11.379c-1.179-4.324-4.317-7.468-7.837-8.633h16.852l5.878 14.123h114.42l5.878-14.123h16.852c-3.137 1.165-6.658 4.309-7.837 8.633-1.178 4.31 0 8.634 1.96 11.379 2.342 2.745 5.877 5.106 10.577 5.106 4.316 0 8.235-2.361 10.194-5.106 2.342-2.745 3.52-7.07 2.342-11.379-.78-1.962-1.96-3.925-3.52-5.505-1.18-1.564-2.74-2.346-4.7-3.128h39.569c-3.52 1.165-6.659 4.309-7.837 8.633-1.18 4.31 0 8.634 1.959 11.379 2.357 2.745 5.878 5.106 10.577 5.106 4.316 0 8.235-2.361 10.194-5.106s3.52-7.07 1.96-11.379c-1.179-4.324-4.317-7.468-7.838-8.633h49.38v-14.92h-10.974v-29.444h-7.455v-29.443h7.455v-16.883l-19.21-14.139H285.73v-16.868h-5.48l60.738-31.023c2.74 0 6.276-.782 9.016-3.143 2.342-2.745 3.52-5.889 3.52-9.017 0-3.144-1.56-6.287-4.3-8.649-2.756-2.346-6.276-3.128-9.016-2.745-3.138.399-6.276 1.963-8.235 5.107-1.96 3.143-2.342 6.67-1.562 9.415M77.265 143.376v50.253H64.73v-50.253zm50.559 0v37.693H89.8v-37.693zm50.145 0v37.693H140.36v-37.693zm37.624 0v76.95H190.52v-76.95zm44.283 0v76.95h-25.088v-76.95zm50.16 0v37.693h-37.624v-37.693zm12.536 0h37.61v37.693h-37.61zm50.16 50.253v-50.253h12.537v50.253zM67.086 416.996V297.26h17.236v102.866h43.885v16.869M182.286 297.261h-17.634l-29.389 119.735h17.634l8.235-33.369 4.301-16.868 8.235-33.369 8.22 33.369h-16.455l-4.301 16.868h24.675l8.633 33.369h17.633M228.528 416.996V297.26h18.812l30.951 69.099v-69.099h17.236v119.735H282.21l-36.446-81.26v81.26M321.793 416.996V297.26h59.162v16.884h-41.926v29.841h25.869v16.884h-25.869v39.257h43.885v16.869M51.412 596.796h16.057l6.276-29.826h20.373l6.276 29.826h15.674l-24.69-119.734H76.484zm39.568-45.529H76.882l7.042-33.368z" style="stroke-width:3.92214"/>
  <path fill-rule="evenodd" d="m94.118 566.97 6.276 29.826h15.674l-24.69-119.734H76.484L51.412 596.796h16.057l6.276-29.826zl-3.138-15.703H76.882l7.042-33.368 7.056 33.368zM132.906 596.796V477.062h16.072v49.071h19.593v-49.07h15.674v119.733h-15.674v-55.343h-19.593v55.343M210.895 596.796V477.062h43.885v15.32H226.17v31.405h18.032v15.304H226.17v42.003h30.17v15.702M265.755 596.796h15.674l6.26-29.826h20.39l6.26 29.826h16.072l-25.088-119.734h-14.496zm39.185-45.529h-13.715l6.659-33.368z" style="stroke-width:3.92214"/>
  <path fill-rule="evenodd" d="m308.078 566.97 6.26 29.826h16.073l-25.088-119.734h-14.496l-25.072 119.734h15.674l6.26-29.826zl-3.139-15.703h-13.715l6.659-33.368 7.056 33.368zM362.142 491.584h8.634c2.342.798 4.3 1.963 5.877 3.926 1.562 1.58 2.74 3.542 3.521 5.888 3.52 23.555 3.52 47.906-.398 71.46-.382 4.708-4.301 8.634-9 9.018h-8.634v14.92h8.634c6.658 0 12.919-2.745 17.235-7.069 4.7-4.31 7.44-10.198 7.837-16.868 3.919-23.555 3.52-47.906-.398-71.844-.78-5.889-3.52-11.777-7.837-16.101-4.699-4.31-10.577-7.07-16.837-7.852h-23.512v119.734h14.878z" style="stroke-width:3.92214"/>
  <path fill="none" stroke="#000" stroke-linejoin="bevel" stroke-miterlimit="1.414" stroke-width=".941" d="M38.08.486h373.84M449.53 37.78v599.454M411.92 674.529H38.08M.47 637.234V37.781M.47 37.78c0-9.814 4.301-19.244 10.96-26.299C18.486 4.412 28.283.486 38.08.486M411.92.486c10.18 0 19.594 3.926 26.635 10.995 7.056 7.055 10.975 16.485 10.975 26.3M449.53 637.234c0 9.815-3.919 19.23-10.975 26.3-7.042 7.069-16.455 10.995-26.634 10.995M38.08 674.529c-9.797 0-19.594-3.926-26.65-10.995-6.659-7.07-10.96-16.485-10.96-26.3"/>
</svg>
