<svg xmlns="http://www.w3.org/2000/svg" viewBox="0 0 756 606" role="img" aria-labelledby="title">
  <title id="title">Verkehrszeichen R2-16 - Turn Left at Any Time with Care</title>
  <g transform="translate(0 309)">
    <rect width="754" height="604" x="1" y="-308" rx="77" ry="77" style="opacity:1;fill:#000;fill-opacity:1;fill-rule:nonzero;stroke:none;stroke-width:4.1864934;stroke-linecap:square;stroke-linejoin:round;stroke-miterlimit:4;stroke-dasharray:12.55948013,12.55948013;stroke-dashoffset:0;stroke-opacity:1"/>
    <rect width="750" height="600" x="3" y="-306" rx="75" ry="75" style="opacity:1;fill:#fff;fill-opacity:1;fill-rule:nonzero;stroke:none;stroke-width:4.16152525;stroke-linecap:square;stroke-linejoin:round;stroke-miterlimit:4;stroke-dasharray:12.48457544,12.48457544;stroke-dashoffset:0;stroke-opacity:1"/>
    <rect width="738" height="588" x="9" y="-300" rx="69" ry="69" style="opacity:1;fill:#000;fill-opacity:1;fill-rule:nonzero;stroke:none;stroke-width:4.08660936;stroke-linecap:square;stroke-linejoin:round;stroke-miterlimit:4;stroke-dasharray:12.25982765,12.25982765;stroke-dashoffset:0;stroke-opacity:1"/>
    <rect width="714" height="564" x="21" y="-288" rx="57" ry="57" style="opacity:1;fill:#fff;fill-opacity:1;fill-rule:nonzero;stroke:none;stroke-width:3.93672371;stroke-linecap:square;stroke-linejoin:round;stroke-miterlimit:4;stroke-dasharray:11.81017081,11.81017081;stroke-dashoffset:0;stroke-opacity:1"/>
    <g aria-label="TURN" style="font-style:normal;font-variant:normal;font-weight:400;font-stretch:normal;font-size:146.62756348px;line-height:0;font-family:&quot;Roadgeek 2005 Series E&quot;;-inkscape-font-specification:&quot;Roadgeek 2005 Series E&quot;;letter-spacing:-10.527771px;word-spacing:0;fill:#000;fill-opacity:1;stroke:none;stroke-width:3.66568899">
      <g aria-label="TURN" style="font-style:normal;font-weight:400;font-size:146.62756348px;line-height:0;font-family:sans-serif;letter-spacing:.49477082px;word-spacing:0;fill:#000;fill-opacity:1;stroke:none;stroke-width:13.43727684">
        <path d="M227.455-230.698v80.938h-17.156v-80.938H182V-248h73.754v17.302zM352.102-189.349q0 9.09-2.933 16.716-2.932 7.478-8.211 13.05-5.279 5.425-12.61 8.504T312.366-148t-15.983-3.08q-7.185-3.078-12.463-8.504-5.279-5.571-8.211-13.05-2.933-7.624-2.933-16.715V-248h17.595v58.651q0 4.399.587 7.185.733 2.64 2.493 5.572 2.932 4.838 7.918 7.77 4.985 2.933 10.997 2.933t10.997-2.932q5.132-2.933 8.064-7.771 1.76-2.933 2.346-5.719.733-2.932.733-7.038V-248h17.596zM437.767-149.76l-15.836-38.563h-26.246v38.563h-17.596V-248h45.162q5.425 0 9.237.88t7.625 3.226q7.038 3.812 11.144 10.703 4.105 6.892 4.105 15.25 0 8.357-4.252 15.249-4.106 6.745-11.73 10.85l18.035 42.082zm0-68.181q0-5.719-3.813-9.091-3.812-3.373-10.41-3.373h-27.86v24.487h27.86q6.598 0 10.41-3.226 3.813-3.372 3.813-8.797M541.751-149.76l-46.774-67.595v67.595h-17.302V-248h17.302l45.015 64.81V-248H557v98.24z" style="font-style:normal;font-variant:normal;font-weight:400;font-stretch:normal;line-height:0;font-family:&quot;Roadgeek 2005 Series E&quot;;-inkscape-font-specification:&quot;Roadgeek 2005 Series E&quot;;letter-spacing:.49741668px;fill:#000;stroke:none;stroke-width:13.43727684" transform="translate(3 -3)"/>
        <g aria-label="LEFT" style="font-style:normal;font-variant:normal;font-weight:400;font-stretch:normal;font-size:149.2537384px;line-height:0;font-family:&quot;Roadgeek 2005 Series E&quot;;-inkscape-font-specification:&quot;Roadgeek 2005 Series E&quot;;letter-spacing:-.78845835px;word-spacing:0;fill:#000;fill-opacity:1;stroke:none;stroke-width:50.13909531">
          <path d="M209 2V-98h17.91v84.627h56.866V2ZM300.038 2V-98h72.985v17.91h-54.777v18.508h29.851v18.358h-29.85v27.314h56.567V2ZM412.2-80.09v20.299h31.193v18.209H412.2V2H393.99V-98h74.776v17.91zM522.194-80.388V2H504.73v-82.388h-28.806V-98H551v17.612z" style="font-style:normal;font-variant:normal;font-weight:400;font-stretch:normal;line-height:0;font-family:&quot;Roadgeek 2005 Series E&quot;;-inkscape-font-specification:&quot;Roadgeek 2005 Series E&quot;;letter-spacing:-.78845835px;fill:#000;stroke:none;stroke-width:50.13909531" transform="translate(3 -3)"/>
          <g aria-label="AT" style="font-style:normal;font-variant:normal;font-weight:400;font-stretch:normal;font-size:119.40298462px;line-height:0;font-family:&quot;Roadgeek 2005 Series C&quot;;-inkscape-font-specification:&quot;Roadgeek 2005 Series C&quot;;letter-spacing:0;word-spacing:0;fill:#000;fill-opacity:1;stroke:none;stroke-width:149.66894531">
            <path d="m137.642 127-5.612-21.85h-17.194L109.582 127H98l19.94-80h11.224l19.94 80zm-14.329-56.12-5.612 23.045h11.463zM181.432 57.627V127H169.85V57.627h-14.567V47H196v10.627z" style="font-style:normal;font-variant:normal;font-weight:400;font-stretch:normal;line-height:0;font-family:&quot;Roadgeek 2005 Series C&quot;;-inkscape-font-specification:&quot;Roadgeek 2005 Series C&quot;;letter-spacing:.34395832px;fill:#000;stroke:none;stroke-width:149.66894531" transform="translate(3 -3)"/>
            <g aria-label="ANY" style="font-style:normal;font-variant:normal;font-weight:400;font-stretch:normal;font-size:119.40298462px;line-height:0;font-family:&quot;Roadgeek 2005 Series C&quot;;-inkscape-font-specification:&quot;Roadgeek 2005 Series C&quot;;letter-spacing:0;word-spacing:0;fill:#000;fill-opacity:1;stroke:none;stroke-width:446.77297974">
              <path d="m285.642 127-5.612-21.85h-17.194L257.582 127H246l19.94-80h11.224l19.94 80zm-14.329-56.12-5.611 23.045h11.462zM343.689 127l-24.717-53.612V127H307.51V47h11.462l21.97 48V47h11.463v80zM394.06 90.82V127h-11.463V90.82L362.895 47h12.06l13.492 28.896L401.701 47H414z" style="font-style:normal;font-variant:normal;font-weight:400;font-stretch:normal;line-height:0;font-family:&quot;Roadgeek 2005 Series C&quot;;-inkscape-font-specification:&quot;Roadgeek 2005 Series C&quot;;letter-spacing:-.6693958px;fill:#000;stroke:none;stroke-width:446.77297974" transform="translate(3 -3)"/>
              <g aria-label="TIME" style="font-style:normal;font-variant:normal;font-weight:400;font-stretch:normal;font-size:119.40298462px;line-height:0;font-family:&quot;Roadgeek 2005 Series C&quot;;-inkscape-font-specification:&quot;Roadgeek 2005 Series C&quot;;letter-spacing:0;word-spacing:0;fill:#000;fill-opacity:1;stroke:none;stroke-width:1333.65063477">
                <path d="M490.15 57.627V127h-11.583V57.627H464V47h40.716v10.627zM514.514 127V47h11.224v80zM583.453 127V82.104L568.648 127l-14.926-44.896V127H542.26V47h11.463l14.926 44.896L583.453 47h11.583v80zM611.283 127V47h37.612v11.224h-26.15v20.179h16.598v10.985h-16.597v26.388H652V127Z" style="font-style:normal;font-variant:normal;font-weight:400;font-stretch:normal;line-height:0;font-family:&quot;Roadgeek 2005 Series C&quot;;-inkscape-font-specification:&quot;Roadgeek 2005 Series C&quot;;letter-spacing:-1.17210412px;fill:#000;stroke:none;stroke-width:1333.65063477" transform="translate(3 -3)"/>
                <g aria-label="WITH" style="font-style:normal;font-variant:normal;font-weight:400;font-stretch:normal;font-size:119.40298462px;line-height:0;font-family:&quot;Roadgeek 2005 Series D&quot;;-inkscape-font-specification:&quot;Roadgeek 2005 Series D&quot;;letter-spacing:0;word-spacing:0;fill:#000;fill-opacity:1;stroke:none;stroke-width:3981.04663086">
                  <path d="M157.224 247H146l-12.657-51.343L121.045 247H109.82L98 167h12.896l6.208 42.15 10.15-42.15h12.298l10.388 42.15 6.21-42.15h12.895zM181.393 247v-80h12.896v80zM237.776 178.224V247H225.12v-68.776h-18.268V167h49.433v11.224zM310.343 247v-34.866H281.21V247h-12.657v-80h12.657v32.239h29.134V167H323v80z" style="font-style:normal;font-variant:normal;font-weight:400;font-stretch:normal;line-height:0;font-family:&quot;Roadgeek 2005 Series D&quot;;-inkscape-font-specification:&quot;Roadgeek 2005 Series D&quot;;letter-spacing:.55297917px;fill:#000;stroke:none;stroke-width:3981.04663086" transform="translate(3 -3)"/>
                  <g aria-label="CARE" style="font-style:normal;font-variant:normal;font-weight:400;font-stretch:normal;font-size:115.27377319px;line-height:0;font-family:&quot;Roadgeek 2005 Series D&quot;;-inkscape-font-specification:&quot;Roadgeek 2005 Series D&quot;;letter-spacing:0;word-spacing:0;fill:#000;fill-opacity:1;stroke:none;stroke-width:11472.7578125">
                    <path d="M442.565 229.94Q435.648 247 419.28 247q-8.646 0-14.294-3.343-5.649-3.343-9.338-10.49-2.65-5.187-4.15-12.104Q390 214.147 390 206.885q0-9.222 2.305-17.637t6.34-13.602q3.459-4.266 8.3-6.456 4.957-2.19 11.528-2.19 8.76 0 14.409 3.804 5.763 3.804 9.683 11.989l-11.412 4.841q-1.614-2.42-2.997-4.035-1.268-1.613-2.767-2.536-1.383-.922-3.112-1.268-1.614-.345-3.804-.345-4.727 0-7.954 2.19-3.113 2.19-5.072 7.377-1.499 3.459-2.306 8.185-.691 4.726-.691 9.683 0 6.34 1.268 12.219 1.268 5.763 3.573 9.452 2.075 2.997 4.842 4.496 2.766 1.498 6.8 1.498 3.92 0 6.802-2.075 2.882-2.19 5.187-6.916zM507.88 245.617l-7.608-21.672H476.18l-7.608 21.672h-13.026l26.628-77.234h12.104l26.628 77.234zm-19.481-55.793-7.954 21.672h15.446zM574.869 245.617l-12.45-33.66h-14.64v33.66H535.56v-77.234h25.476q4.496 0 7.723.577 3.228.46 6.11 1.844 2.536 1.268 4.61 3.343 2.19 1.96 3.69 4.61 1.613 2.537 2.42 5.534.922 2.882.922 5.764 0 3.112-.922 6.11-.807 2.881-2.42 5.532-1.5 2.536-3.805 4.611-2.19 2.075-4.841 3.228l13.602 36.08zm-.577-55.562q0-2.421-1.268-4.611t-3.573-3.458q-1.499-.807-2.767-1.038-1.268-.346-4.265-.346h-14.64v18.905h14.64q2.882 0 4.15-.23 1.383-.23 2.882-1.038 2.305-1.268 3.573-3.458 1.268-2.306 1.268-4.726M604.046 245.617v-77.234h45.533v12.22h-33.314v18.904h22.478v12.45h-22.478v21.21H652v12.45z" style="font-style:normal;font-variant:normal;font-weight:400;font-stretch:normal;line-height:0;font-family:&quot;Roadgeek 2005 Series D&quot;;-inkscape-font-specification:&quot;Roadgeek 2005 Series D&quot;;letter-spacing:2.96862507px;fill:#000;stroke:none;stroke-width:11472.7578125" transform="translate(3 -3)"/>
                  </g>
                </g>
              </g>
            </g>
          </g>
        </g>
      </g>
    </g>
  </g>
</svg>
