<svg xmlns="http://www.w3.org/2000/svg" viewBox="0 0 307.875 410.237" role="img" aria-labelledby="title">
  <title id="title">Verkehrszeichen R8-1 - Bicycles Only</title>
  <path d="M31.33 409.243h245.264c16.833 0 30.29-13.456 30.29-30.29V31.633c0-16.833-13.457-30.322-30.29-30.322H31.33A30.213 30.213 0 0 0 1.003 31.633v347.32c0 16.834 13.49 30.29 30.327 30.29z" style="fill:#fff;fill-opacity:1;fill-rule:evenodd;stroke:#000;stroke-width:2;stroke-linecap:butt;stroke-linejoin:miter;stroke-miterlimit:8.52033329;stroke-opacity:1;stroke-dasharray:none"/>
  <path d="M31.33 404.064h245.264c13.994 0 25.106-11.117 25.106-25.11V31.637c0-13.994-11.112-25.149-25.106-25.149H31.33c-13.994 0-25.144 11.155-25.144 25.149v347.315c0 13.994 11.15 25.11 25.144 25.11" style="fill:#000;fill-opacity:1;fill-rule:evenodd;stroke:none"/>
  <path d="M31.33 393.956h245.264c8.273 0 15.036-6.726 15.036-14.999V31.637c0-8.31-6.763-15.036-15.036-15.036H31.33c-8.31 0-15.036 6.726-15.036 15.037v347.32c0 8.272 6.725 14.998 15.036 14.998" style="fill:#fff;fill-opacity:1;fill-rule:evenodd;stroke:none"/>
  <path d="M124.029 105.702h53.094l-17.876 49.966-4.641.288-34.968-40.434zm-20.72 46.622-16.838 26.403c-2.84 4.137-15.536-2.843-11.904-8.814l15.54-25.361c-2.339-1.293-5.183-1.293-8.564-1.293-16.546 0-30.035 13.994-30.035 30.29 0 17.083 13.489 30.573 30.035 30.573 16.837 0 30.327-13.49 30.327-30.573 0-7.773-2.84-15.541-8.561-21.225m92.486 27.446h28.743c2.84 0 9.315-4.137 8.023-6.221l-15.037-29.785c2.335-.505 5.467-.76 8.307-.76 16.583 0 30.543 13.457 30.543 30.04 0 16.834-13.96 30.29-30.543 30.29-13.99 0-26.691-10.108-30.036-23.564m8.778-28.238 7.268 12.947H196.8c1.046-5.179 3.886-9.815 7.772-12.947m7.268-19.677L199.14 97.933c1.296-3.636 3.381-6.475 4.424-8.815.504-.792 1.297-1.797 2.051-1.797 1.293-.792 3.382 0 4.137-1.584l2.089-12.664-2.09-2.085h-39.1c-1.801 0-4.136 2.844-3.348 4.679 3.599 3.594 10.362 8.773 16.046 10.862 1.042.792.792 4.136-.505 4.136h-48.958l-.792-4.136-11.404-7.773 1.042-2.84h18.385V62.428h-26.153c-12.41 0-19.173 11.405-8.023 22.805 2.34 2.59 6.98 4.929 5.683 9.065l-14.998 37.558v1.292c-4.93-2.085-10.362-3.381-16.083-3.381-23.56 0-43.237 19.714-43.237 43.783 0 24.351 19.677 44.029 43.237 44.029 24.606 0 43.783-19.678 43.783-44.03 0-12.7-5.434-24.605-13.994-32.628l2.59-13.456 30.827 38.312c-2.34 23.564 23.85 31.332 31.62 13.994h5.937c3.382 20.974 21.258 37.053 43.525 37.053 24.068 0 43.495-19.715 43.495-43.779 0-24.101-19.427-43.529-43.495-43.529-4.925 0-10.358.25-13.99 2.34m-28.997 32.624h-5.721l-2.84-3.632 17.088-44.029 7.014 21.512c-8.31 6.976-13.49 16.334-15.541 26.15M59.038 348.126c-19.056 0-23.321-18.147-23.321-40.351s4.999-40.352 23.321-40.352S82.36 285.57 82.36 307.775s-4.266 40.35-23.322 40.35m0-10.733c9.862 0 12.03-13.323 12.03-29.618 0-16.292-2.59-29.685-12.03-29.685s-12.03 13.393-12.03 29.685c0 16.295 2.169 29.618 12.03 29.618M101.733 267.423h11.225l21.712 46.644v-46.644h11.188v80.703h-8.598l-24.302-52.694v52.694h-11.225zM170.964 267.423h10.908v70.037h29.443v10.666h-40.35zM221.698 267.423h12.518l12.726 28.743 12.518-28.743h12.66l-19.198 44.059v36.644H241.63v-36.644z" style="fill:#000;fill-opacity:1;fill-rule:evenodd;stroke:none"/>
</svg>
