<svg xmlns="http://www.w3.org/2000/svg" viewBox="0 0 227 452" role="img" aria-labelledby="title">
  <title id="title">Verkehrszeichen R5-406-NSW - Taxi Pick-up Point (used in NSW)</title>
  <g transform="translate(0 155)">
    <rect width="225" height="450" x="1" y="-154" rx="25" ry="25" style="opacity:1;fill:#be121e;fill-opacity:1;fill-rule:nonzero;stroke:none;stroke-width:71.61280823;stroke-linecap:square;stroke-linejoin:round;stroke-miterlimit:4;stroke-dasharray:none;stroke-opacity:1"/>
    <rect width="217" height="442" x="5" y="-150" rx="21" ry="21" style="opacity:1;fill:#fff;fill-opacity:1;fill-rule:nonzero;stroke:none;stroke-width:69.70022583;stroke-linecap:square;stroke-linejoin:round;stroke-miterlimit:4;stroke-dasharray:none;stroke-opacity:1"/>
    <rect width="209" height="434" x="9" y="-146" rx="17" ry="17" style="opacity:1;fill:#be121e;fill-opacity:1;fill-rule:nonzero;stroke:none;stroke-width:67.78150177;stroke-linecap:square;stroke-linejoin:round;stroke-miterlimit:4;stroke-dasharray:none;stroke-opacity:1"/>
    <rect width="169" height="200" x="29" y="-119" rx="20" ry="20" style="opacity:1;fill:#fff;fill-opacity:1;fill-rule:nonzero;stroke:none;stroke-width:103.25455475;stroke-linecap:square;stroke-linejoin:round;stroke-miterlimit:4;stroke-dasharray:none;stroke-opacity:1"/>
    <g aria-label="TAXI" style="font-style:normal;font-variant:normal;font-weight:400;font-stretch:normal;font-size:59.70149231px;line-height:0;font-family:&quot;Roadgeek 2005 Series E&quot;;-inkscape-font-specification:&quot;Roadgeek 2005 Series E&quot;;letter-spacing:.21960416px;word-spacing:0;fill:#000;fill-opacity:1;stroke:none;stroke-width:1.49253726">
      <path d="M67.507-91.955V-59h-6.985v-32.955H49V-99h30.03v7.045zM115.468-59l-3.94-9.433H94.093L90.214-59h-7.88l16.835-40h7.284l16.716 40zM102.81-89.03l-5.612 13.493h11.224zM154.152-59l-9.015-14.15L136.3-59h-8.418l13.075-21.075L129.018-99h8.537l7.582 12.239L152.719-99h8.597l-11.821 18.925L162.57-59zM170.836-59v-40H178v40z" style="font-style:normal;font-variant:normal;font-weight:400;font-stretch:normal;line-height:0;font-family:&quot;Roadgeek 2005 Series E&quot;;-inkscape-font-specification:&quot;Roadgeek 2005 Series E&quot;;letter-spacing:.21960416px;fill:#000;stroke:none;stroke-width:1.49253726"/>
      <g aria-label="PICK UP" style="font-style:normal;font-variant:normal;font-weight:400;font-stretch:normal;font-size:57.88711929px;line-height:0;font-family:&quot;Roadgeek 2005 Series B&quot;;-inkscape-font-specification:&quot;Roadgeek 2005 Series B&quot;;letter-spacing:.97102082px;word-spacing:0;fill:#000;fill-opacity:1;stroke:none;stroke-width:2.15996718">
        <path d="M242.625 261.383q0 4.863-2.489 7.757-2.49 2.837-6.6 2.837h-2.72v16.903h-4.92v-38.785h7.64q1.622 0 3.011.406 1.447.405 2.431 1.215 1.621 1.332 2.605 3.937 1.042 2.547 1.042 5.73m-5.036 0q0-3.3-1.042-4.746-.984-1.505-3.01-1.505h-2.72v11.866h2.72q2.2 0 3.126-1.215.926-1.274.926-4.4M248.914 288.88v-38.785h4.92v38.785zM278.853 279.734q0 1.157-.058 1.91 0 .752-.058 1.331-.058.521-.174.984t-.29.984q-.462 2.142-2.315 3.416-1.852 1.215-4.457 1.215-2.952 0-4.862-1.215-1.853-1.274-2.78-3.994-.81-2.432-1.215-6.252-.405-3.879-.405-8.568 0-1.33.058-2.894.058-1.563.174-3.126.173-1.62.347-3.068t.405-2.605q.753-4.457 2.605-6.367 1.91-1.91 5.384-1.91 3.3 0 5.325 1.968 2.026 1.91 2.316 5.499h-5.036q-.116-1.216-.81-1.795-.638-.636-1.622-.636-1.331 0-2.084.926-.752.926-1.215 2.836-.29 1.158-.463 2.374-.116 1.157-.232 2.489-.058 1.273-.116 2.836v7.063q.058 1.505.116 2.778.116 1.216.232 2.373.173 1.1.463 2.316.463 1.91 1.157 2.952.753.984 1.969.984 1.331 0 1.968-1.1t.637-3.704zM299.13 288.88l-5.209-18.35-1.852 3.762v14.588h-4.92v-38.785h4.92v12.388l6.078-12.388h5.73l-6.367 13.314 6.889 25.47zM349.712 279.328q0 2.026-.29 3.532-.289 1.447-.925 2.604-1.158 2.2-2.837 3.184-1.679.926-4.226.926-3.01 0-4.92-1.331-1.852-1.331-2.837-3.994-.289-.926-.52-2.026-.174-1.158-.174-2.895v-29.233h4.92v29.928q0 2.2.869 3.357.926 1.158 2.662 1.158 1.621 0 2.49-1.158.868-1.157.868-3.357v-29.928h4.92zM375.896 261.383q0 4.863-2.49 7.757-2.489 2.837-6.598 2.837h-2.721v16.903h-4.92v-38.785h7.64q1.621 0 3.01.406 1.448.405 2.432 1.215 1.62 1.332 2.605 3.937 1.042 2.547 1.042 5.73m-5.036 0q0-3.3-1.042-4.746-.984-1.505-3.01-1.505h-2.721v11.866h2.72q2.2 0 3.126-1.215.927-1.274.927-4.4" style="font-style:normal;font-variant:normal;font-weight:400;font-stretch:normal;line-height:0;font-family:&quot;Roadgeek 2005 Series B&quot;;-inkscape-font-specification:&quot;Roadgeek 2005 Series B&quot;;letter-spacing:.97102082px;fill:#000;fill-opacity:1;stroke:none;stroke-width:2.15996718" transform="translate(-187.896 -288.574)"/>
      </g>
      <path d="M123-16.5h15v4.3h-15z" style="opacity:1;fill:#000;fill-opacity:1;fill-rule:nonzero;stroke:none;stroke-width:25.85144806;stroke-linecap:square;stroke-linejoin:round;stroke-miterlimit:4;stroke-dasharray:none;stroke-opacity:1"/>
      <g aria-label="POINT" style="font-style:normal;font-variant:normal;font-weight:400;font-stretch:normal;font-size:57.88711929px;line-height:0;font-family:&quot;Roadgeek 2005 Series B&quot;;-inkscape-font-specification:&quot;Roadgeek 2005 Series B&quot;;letter-spacing:1.87854171px;word-spacing:0;fill:#000;fill-opacity:1;stroke:none;stroke-width:2.15996718">
        <path d="M77.27 32.924q0 4.863-2.489 7.757-2.49 2.837-6.6 2.837h-2.72V60.42h-4.92V21.636h7.64q1.622 0 3.011.406 1.447.405 2.431 1.215 1.621 1.332 2.605 3.936 1.042 2.547 1.042 5.731m-5.036 0q0-3.3-1.042-4.746-.984-1.506-3.01-1.506h-2.72V38.54h2.72q2.2 0 3.126-1.215.926-1.274.926-4.4M101.308 40.97v3.705q0 2.084-.231 4.342-.174 2.257-.695 4.457-.463 2.142-1.505 3.879-.984 1.678-2.605 2.72-1.563 1.042-3.936 1.042-2.431 0-4.052-1.042-1.563-1.042-2.605-2.72-.984-1.737-1.505-3.879-.463-2.2-.637-4.457-.174-2.258-.174-4.342v-7.467q0-2.142.174-4.342.232-2.2.753-4.283.52-2.142 1.505-3.763.984-1.679 2.547-2.663 1.62-1.042 3.994-1.042t3.936 1.042q1.621.984 2.605 2.663 1.042 1.679 1.505 3.82.521 2.085.695 4.284.231 2.2.231 4.342zm-5.152 0q0-.81-.058-2.2 0-1.388-.115-3.01-.116-1.678-.348-3.357-.231-1.736-.694-3.126-.405-1.389-1.042-2.257t-1.563-.869q-1.1 0-1.853.927-.694.868-1.157 2.315-.406 1.39-.637 3.126-.174 1.737-.29 3.415-.057 1.621-.057 3.01.058 1.332.058 2.027 0 .636-.058 2.026 0 1.331.058 3.01.115 1.678.289 3.473.231 1.794.637 3.242.463 1.447 1.157 2.43.753.927 1.853.927t1.794-.926q.695-.984 1.1-2.431.463-1.448.637-3.242t.231-3.473q.116-1.679.058-3.01zM110.424 60.42V21.637h4.92v38.785zM138.26 60.42l-7.583-22.98v22.98h-4.92V21.637h4.92l6.888 19.335V21.636h4.92v38.785zM159.505 26.672v33.749h-4.92V26.672h-4.748v-5.036h14.704v5.036z" style="font-style:normal;font-variant:normal;font-weight:400;font-stretch:normal;line-height:0;font-family:&quot;Roadgeek 2005 Series B&quot;;-inkscape-font-specification:&quot;Roadgeek 2005 Series B&quot;;letter-spacing:1.87854171px;fill:#000;fill-opacity:1;stroke:none;stroke-width:2.15996718;stroke-opacity:1" transform="translate(.46 -.115)"/>
      </g>
    </g>
    <path d="m188.5 255-20.173 15.375c-2.504 1.89-5.865-.843-4.52-3.675l2.693-5.7H70v-12h96.5l-2.693-5.7c-1.345-2.832 2.016-5.564 4.52-3.675z" style="color:#000;font-style:normal;font-variant:normal;font-weight:400;font-stretch:normal;font-size:medium;line-height:normal;font-family:sans-serif;font-variant-ligatures:normal;font-variant-position:normal;font-variant-caps:normal;font-variant-numeric:normal;font-variant-alternates:normal;font-feature-settings:normal;text-indent:0;text-align:start;text-decoration:none;text-decoration-line:none;text-decoration-style:solid;text-decoration-color:#000;letter-spacing:normal;word-spacing:normal;text-transform:none;writing-mode:lr-tb;direction:ltr;text-orientation:mixed;dominant-baseline:auto;baseline-shift:baseline;text-anchor:start;white-space:normal;shape-padding:0;clip-rule:nonzero;display:inline;overflow:visible;visibility:visible;opacity:1;isolation:auto;mix-blend-mode:normal;color-interpolation:sRGB;color-interpolation-filters:linearRGB;solid-color:#000;solid-opacity:1;vector-effect:none;fill:#fff;fill-opacity:1;fill-rule:nonzero;stroke:none;stroke-width:5.9961462;stroke-linecap:square;stroke-linejoin:round;stroke-miterlimit:4;stroke-dasharray:none;stroke-dashoffset:0;stroke-opacity:1;color-rendering:auto;image-rendering:auto;shape-rendering:auto;text-rendering:auto"/>
    <path d="m38.5 255 20.173 15.375c2.504 1.89 5.865-.843 4.52-3.675L60.5 261H157v-12H60.5l2.693-5.7c1.345-2.832-2.016-5.564-4.52-3.675z" style="color:#000;font-style:normal;font-variant:normal;font-weight:400;font-stretch:normal;font-size:medium;line-height:normal;font-family:sans-serif;font-variant-ligatures:normal;font-variant-position:normal;font-variant-caps:normal;font-variant-numeric:normal;font-variant-alternates:normal;font-feature-settings:normal;text-indent:0;text-align:start;text-decoration:none;text-decoration-line:none;text-decoration-style:solid;text-decoration-color:#000;letter-spacing:normal;word-spacing:normal;text-transform:none;writing-mode:lr-tb;direction:ltr;text-orientation:mixed;dominant-baseline:auto;baseline-shift:baseline;text-anchor:start;white-space:normal;shape-padding:0;clip-rule:nonzero;display:inline;overflow:visible;visibility:visible;opacity:1;isolation:auto;mix-blend-mode:normal;color-interpolation:sRGB;color-interpolation-filters:linearRGB;solid-color:#000;solid-opacity:1;vector-effect:none;fill:#fff;fill-opacity:1;fill-rule:nonzero;stroke:none;stroke-width:5.9961462;stroke-linecap:square;stroke-linejoin:round;stroke-miterlimit:4;stroke-dasharray:none;stroke-dashoffset:0;stroke-opacity:1;color-rendering:auto;image-rendering:auto;shape-rendering:auto;text-rendering:auto"/>
  </g>
</svg>
