<svg xmlns="http://www.w3.org/2000/svg" viewBox="0 0 606 1006" role="img" aria-labelledby="title">
  <title id="title">Verkehrszeichen R4-12[40] - End of 40&amp;nbsp;km/h Speed Limit</title>
  <g transform="translate(0 709)">
    <rect width="604" height="1004" x="1" y="-708" rx="52" ry="52" style="opacity:1;fill:#000;fill-opacity:1;fill-rule:nonzero;stroke:none;stroke-width:201.47523499;stroke-linecap:square;stroke-linejoin:round;stroke-miterlimit:4;stroke-dasharray:none;stroke-opacity:1"/>
    <rect width="600" height="1000" x="3" y="-706" rx="50" ry="50" style="opacity:1;fill:#fff;fill-opacity:1;fill-rule:nonzero;stroke:none;stroke-width:200.40658569;stroke-linecap:square;stroke-linejoin:round;stroke-miterlimit:4;stroke-dasharray:none;stroke-opacity:1"/>
    <circle cx="303" cy="-89" r="282" style="opacity:1;fill:#000;fill-opacity:1;fill-rule:nonzero;stroke:none;stroke-width:148.7865448;stroke-linecap:square;stroke-linejoin:round;stroke-miterlimit:4;stroke-dasharray:none;stroke-opacity:1"/>
    <circle cx="303" cy="-89" r="237" style="opacity:1;fill:#fff;fill-opacity:1;fill-rule:nonzero;stroke:none;stroke-width:125.04401398;stroke-linecap:square;stroke-linejoin:round;stroke-miterlimit:4;stroke-dasharray:none;stroke-opacity:1"/>
    <g aria-label="END" style="font-style:normal;font-variant:normal;font-weight:400;font-stretch:normal;font-size:238.80596924px;line-height:0;font-family:&quot;Roadgeek 2005 Series E&quot;;-inkscape-font-specification:&quot;Roadgeek 2005 Series E&quot;;letter-spacing:0;word-spacing:0;fill:#000;fill-opacity:1;stroke:none;stroke-width:5.97014904">
      <path d="M74-463v-160h116.776v28.657h-87.642v29.612h47.761v29.373h-47.76v43.701h90.507V-463zM330.944-463l-76.179-110.09V-463h-28.179v-160h28.18l73.313 105.552V-623h27.701v160zM526-543.239q0 24.12-9.791 42.03t-28.896 28.657q-8.358 4.776-18.149 7.164-9.79 2.388-19.582 2.388H398v-160h51.582q20.537 0 38.209 10.03 18.627 10.746 28.418 28.418Q526-567.12 526-543.24m-28.657 0q0-16.239-5.97-27.224-5.731-10.985-17.671-17.671-10.986-6.21-24.12-6.21h-22.448v102.687h22.448q12.657 0 23.164-6.209 24.597-12.895 24.597-45.373" style="font-style:normal;font-variant:normal;font-weight:400;font-stretch:normal;line-height:0;font-family:&quot;Roadgeek 2005 Series E&quot;;-inkscape-font-specification:&quot;Roadgeek 2005 Series E&quot;;fill:#000;stroke:none;stroke-width:5.97014904" transform="translate(3 -3)"/>
    </g>
    <path d="M260.024-30.902V26.85h-36.311v-57.752H108.9v-21.787L223.713-204.85h36.31V-64.1h22.133v33.198zm-36.311-120.346L157.66-64.1h66.052zM497.1-88.654q0 27.666-6.57 52.91-6.572 25.245-18.675 40.807Q452.489 31 415.832 31q-24.554 0-40.461-10.029t-26.283-31.47q-7.262-14.87-11.758-35.965-4.495-21.44-4.495-42.19 0-28.703 6.57-53.257 6.917-24.553 18.675-41.152 10.374-13.142 24.553-19.366Q397.157-209 417.215-209q22.133 0 37.694 10.029t26.629 31.47q7.262 15.562 11.412 36.31 4.15 20.75 4.15 42.537m-36.657 0q0-19.712-3.459-36.311-3.458-16.946-10.374-28.704-5.533-8.99-12.796-13.14-6.916-4.15-17.29-4.842-13.488-.692-22.48 6.225-8.99 6.916-14.87 22.478-4.495 10.375-6.916 25.245-2.075 14.524-2.075 29.049 0 18.674 3.458 35.965t10.375 28.358q5.533 8.991 13.141 13.487 7.608 4.495 18.675 4.495 12.795 0 21.095-6.916 8.645-6.917 14.524-22.479 1.73-4.495 3.458-10.72 1.73-6.57 2.767-13.487 1.383-7.262 2.075-14.524.692-7.263.692-14.18" style="font-style:normal;font-variant:normal;font-weight:400;font-stretch:normal;font-size:345.82131958px;line-height:0;font-family:&quot;Roadgeek 2005 Series D&quot;;-inkscape-font-specification:&quot;Roadgeek 2005 Series D&quot;;letter-spacing:0;word-spacing:0;fill:#000;fill-opacity:1;stroke:none;stroke-width:8.64553261"/>
  </g>
</svg>
