<svg xmlns="http://www.w3.org/2000/svg" xmlns:xlink="http://www.w3.org/1999/xlink" viewBox="0 0 600 800" role="img" aria-labelledby="title">
  <title id="title">Verkehrszeichen R4-1[25] - 25&amp;nbsp;km/h Speed Limit</title>
  <defs>
    <path id="a" d="M187.441 0H24q1.2-41.518 20.16-73.2 13.921-24.96 42.238-46.32c4.16-2.402 7.84-4.878 11.043-7.44l12.48-6.962 11.759-6.719 12-6.48q15.599-9.359 15.601-26.399 0-13.2-12.96-22.558-12.96-9.363-30.72-9.363-37.44.002-43.44 33.601L24-180q6.242-29.52 28.32-46.8 21.599-17.279 53.282-17.278c22.718 0 42.039 6.957 57.957 20.879q23.882 20.879 23.882 50.64c0 19.52-8.16 36.637-24.48 51.36q-6.48 5.04-10.082 6.48L141.12-106.8l-12.723 6.48-11.52 6.962q-17.28 10.32-27.956 22.437-10.683 12.124-19.32 32.281h117.84Zm0 0"/>
    <path id="b" d="M187.441-88.32c0 26.558-9.84 48.601-29.52 66.12C138.239-4.68 113.282 4.079 83.04 4.079 62.24 4.078 42.56-.398 24-9.359l18.48-33.36q17.28 8.159 45.598 8.16 25.92-.001 43.563-15.242c11.757-10.16 17.64-23 17.64-38.52q0-17.76-12.48-29.878-12.482-12.122-30.242-12.121-12.719 0-20.399 4.922c-5.12 3.277-11.2 10.039-18.238 20.277L30-116.398 35.762-240H174v37.68H72.719l-2.399 39.84q24.96-6.961 36.961-6.961c21.598 0 40.36 8.043 56.278 24.12q23.882 24.124 23.882 57m0 0"/>
  </defs>
  <path fill="#fff" stroke="#000" stroke-miterlimit="10" stroke-width=".3" d="M550 0c27.613 0 50 22.387 50 50v700c0 27.613-22.387 50-50 50H50c-27.613 0-50-22.387-50-50V50C0 22.387 22.387 0 50 0Zm0 0"/>
  <path fill="none" stroke="red" stroke-miterlimit="10" stroke-width="60" d="M567 400c0 147.46-119.54 267-267 267S33 547.46 33 400s119.54-267 267-267 267 119.54 267 267"/>
  <use xlink:href="#a" x="88.559" y="520"/>
  <use xlink:href="#b" x="299.999" y="520"/>
</svg>
