<svg xmlns="http://www.w3.org/2000/svg" viewBox="0 0 721.812 392.25" role="img" aria-labelledby="title">
  <title id="title">Verkehrszeichen R6-29 - Keep Left Unless Overtaking</title>
  <path d="M61.298 1.4H660.51c32.938 0 59.884 26.945 59.884 59.883v269.665c0 32.937-26.946 59.883-59.884 59.883H61.298c-32.938 0-59.884-26.946-59.884-59.883V61.283c0-32.938 26.946-59.884 59.884-59.884z" style="fill:#fff;fill-opacity:1;fill-rule:evenodd;stroke:#000;stroke-width:2.82222247;stroke-linecap:butt;stroke-linejoin:miter;stroke-miterlimit:2.61299992;stroke-opacity:1;stroke-dasharray:none"/>
  <path d="M61.298 6.194H660.51c30.298 0 55.09 24.792 55.09 55.089v269.665c0 30.297-24.792 55.089-55.09 55.089H61.298c-30.298 0-55.09-24.792-55.09-55.09V61.284c0-30.297 24.792-55.09 55.09-55.09" style="fill:#000;fill-opacity:1;fill-rule:evenodd;stroke:none"/>
  <path d="M61.298 15.775H660.51c25.024 0 45.5 20.477 45.5 45.5v269.666c0 25.03-20.476 45.5-45.5 45.5H61.298c-25.024 0-45.5-20.47-45.5-45.5V61.276c0-25.024 20.476-45.5 45.5-45.5" style="fill:#fff;fill-opacity:1;fill-rule:evenodd;stroke:none"/>
  <path d="M101.771 61.312h10.068v26.844l21.035-26.844h13.056l-15.334 19.83 19.83 40.09h-11.322l-15.398-31.095-11.867 14.376v16.719h-10.068zM166.246 61.312h42.962v10.423h-32.597v11.924h17.619v10.43H176.61v16.72h33.678v10.423h-44.043zM228.567 61.312h42.962v10.423h-32.597v11.924h17.619v10.43h-17.619v16.72h33.678v10.423h-44.043zM290.88 61.312h29.065c9.168 0 18.75 7.906 18.75 17.256 0 9.77-7.246 19.235-17.314 19.235h-20.012v23.429h-10.488zm9.945 10.423V87.62h19.12c4.852 0 8.269-2.757 8.269-7.972 0-5.092-4.316-7.913-8.632-7.913zM400.834 61.312h10.25v50.33h33.793v9.59h-44.043zM460.638 61.312H503.6v10.423h-32.597v11.924h17.618v10.43h-17.618v16.72h33.677v10.423h-44.042zM522.952 61.312h44.042v10.423h-33.917V84.74h18.7v10.25h-18.7v26.242h-10.125zM576.402 61.312h44.042v9.705h-16.9v50.215H593.12V71.017h-16.718zM178.78 204.507V166.16h10.184v37.268c0 7.13 6.956 13.368 14.144 13.368 6.89 0 13.005-5.694 13.005-12.824v-37.812h10.423v37.812c0 12.824-11.504 23.254-23.79 23.254-11.505 0-23.966-10.43-23.966-22.718M249.363 166.159h9.828l27.505 39.61v-39.61h10.423v59.92h-9.35l-28.041-40.684v40.684h-10.365zM319.952 166.159h10.25v50.331h33.792v9.589h-44.042zM379.749 166.159h42.961v10.423h-32.596v11.925h17.618v10.43h-17.618v16.719h33.677v10.423H379.75zM436.796 215.293l8.211-5.991c4.374 4.671 8.748 7.493 15.515 7.493 3.779 0 13.484-1.379 13.484-8.03 0-6.593-9.11-6.593-13.484-8.095-10.242-3.35-21.15-5.389-21.15-18.691 0-11.446 11.206-17.017 21.034-17.017 7.13 0 16.24 3.772 21.093 9.343l-7.493 7.072c-4.374-4.432-7.732-5.81-13.6-5.81-3.598 0-10.786 1.914-10.91 6.412 0 6.114 6.776 6.47 13.964 8.624 8.268 2.459 21.092 4.678 21.092 17.56 0 13.121-13.658 19.062-24.625 19.062-7.253 0-19.656-5.404-23.13-11.932M496.114 215.293l8.211-5.991c4.374 4.671 8.748 7.493 15.515 7.493 3.779 0 13.484-1.379 13.484-8.03 0-6.593-9.11-6.593-13.484-8.095-10.242-3.35-21.15-5.389-21.15-18.691 0-11.446 11.206-17.017 21.034-17.017 7.13 0 16.24 3.772 21.093 9.343l-7.493 7.072c-4.374-4.432-7.732-5.81-13.6-5.81-3.598 0-10.786 1.914-10.91 6.412 0 6.114 6.775 6.47 13.964 8.624 8.268 2.459 21.092 4.678 21.092 17.56 0 13.121-13.658 19.062-24.625 19.062-7.253 0-19.656-5.404-23.13-11.932M87.315 321.707c9.705 0 14.623-9.35 14.623-20.73 0-11.446-5.157-20.795-14.623-20.795s-14.622 9.35-14.622 20.795c0 11.38 4.917 20.73 14.622 20.73m0 10.372c-16.537 0-24.806-13.97-24.806-31.102 0-17.14 8.69-31.16 24.806-31.16 16.117 0 24.807 14.02 24.807 31.16 0 17.132-8.269 31.102-24.807 31.102M145.98 330.933l-21.57-59.92h10.966l16.298 44.76 16.24-44.76H178.7l-21.397 59.92zM195.956 271.013h42.962v10.423H206.32v11.925h17.619v10.43H206.32v16.72h33.677v10.422h-44.042zM258.27 271.013h28.824c10.72 0 18.156 8.632 18.156 17.858 0 6.107-3.96 13.963-10.365 16.72l11.14 25.342h-11.14l-10.67-23.428h-15.696v23.428h-10.25zm10.249 10.25v16.058h18.575c4.135 0 7.79-3.779 7.79-7.971 0-2.814-2.342-8.088-7.79-8.088zM317.29 271.013h44.042v9.705h-16.9v50.215H334.01v-50.215H317.29zM396.57 271.013h10.009l25.162 59.92h-11.265l-5.752-13.962h-26.003l-5.875 13.962H371.82zm-3.772 35.65h17.61l-8.747-21.266zM448.996 271.013h10.068v26.845l21.035-26.845h13.056l-15.334 19.831 19.83 40.09H486.33l-15.398-31.096-11.867 14.376v16.72h-10.068z" style="fill:#000;fill-opacity:1;fill-rule:evenodd;stroke:none"/>
  <path d="M513.471 330.933h10.307v-59.92H513.47z" style="fill:#000;fill-opacity:1;fill-rule:nonzero;stroke:none"/>
  <path d="M546.612 271.013h9.828l27.505 39.611v-39.61h10.423v59.92h-9.35l-28.04-40.685v40.684h-10.366zM648.413 288.871c-2.46-4.91-5.991-8.45-12.345-8.45-10.003 0-13.84 10.909-13.84 18.097 0 14.318 4.374 23.37 13.898 23.37 5.338 0 12.824-4.134 12.824-10.365h-10.068v-10.611h20.795v10.785c0 5.216-6.651 20.39-23.61 20.39-17.734 0-24.146-15.711-24.146-33.446 0-15.942 10.01-28.824 24.147-28.824 9.291 0 18.699 6.412 21.934 15.282z" style="fill:#000;fill-opacity:1;fill-rule:evenodd;stroke:none"/>
</svg>
