<svg xmlns="http://www.w3.org/2000/svg" viewBox="0 0 1339.781 2006.187" role="img" aria-labelledby="title">
  <title id="title">Verkehrszeichen R4-6 - Local Traffic Area</title>
  <path d="M137.818 2002.648h1064.17c73.815 0 134.26-60.445 134.26-134.318V137.83c0-73.844-60.445-134.288-134.26-134.288H137.818C63.974 3.542 3.53 63.986 3.53 137.83v1730.5c0 73.873 60.444 134.318 134.288 134.318z" style="fill:#fff;stroke:#000;stroke-width:7.05555582;stroke-linecap:butt;stroke-linejoin:miter;stroke-miterlimit:3.07533336;stroke-opacity:1;stroke-dasharray:none"/>
  <path d="M137.818 1985.134h1064.17c64.206 0 116.776-52.54 116.776-116.804V137.83c0-64.235-52.57-116.804-116.775-116.804H137.818c-64.236 0-116.805 52.57-116.805 116.804v1730.5c0 64.264 52.57 116.804 116.804 116.804" style="fill:#000;fill-opacity:1;fill-rule:evenodd;stroke:none"/>
  <path d="M136.672 1949.579h1066.433c44.077 0 80.103-36.055 80.103-80.132V136.684c0-44.047-36.026-80.103-80.103-80.103H136.672c-44.047 0-80.103 36.056-80.103 80.103v1732.763c0 44.077 36.056 80.132 80.103 80.132" style="fill:#fff;fill-opacity:1;fill-rule:evenodd;stroke:none"/>
  <path d="M496.548 1276.314c30.09-6.964 33.322-67.732 14.516-91.357-18.806-23.126-55.361-26.358-74.168-22.039-18.276 4.29-21.509 4.29-33.85 20.423-12.372 15.074-8.61 17.719-8.081 33.851.558 15.574-6.965 16.69-6.436 27.416.525 10.755 5.906 13.429 14.516 23.625 8.052 10.226 17.19 16.69 17.19 16.69v17.191s-35.996 30.648-51.07 50.542c-15.045 19.335-19.335 27.945-37.613 39.758-17.748 11.812-35.996 8.61-63.412 10.725-27.416 2.174-34.41.558-34.41.558-2.674-2.674-8.05-4.819-11.284-5.906-4.848-1.616-8.58-4.82-13.987-2.704-2.115 1.088 1.087 5.936 0 8.61-1.057 3.232-7.522 4.29-8.58 8.052-1.617 4.848-5.377 15.044 0 17.19 13.429 5.406 29.003-1.587 42.46 0 27.417 3.79 54.803 23.654 81.161 17.777 26.33-5.906 36.526-47.838 62.884-51.629 13.43-1.616 3.203 28.504 0 42.461-10.226 39.787-29.561 79.016-37.084 120.39-1.086 7.552 8.58 8.051 11.813 15.074 2.145 4.849.525 11.255 0 16.661-1.615 13.988-9.667 27.916-8.58 42.432 3.76 39.787 18.776 78.487 25.241 118.274 1.088 8.051-.525 17.19-4.29 24.154-4.848 8.052-5.377 10.226-15.044 13.458-7.553 2.674-22.04 7.523-29.562 10.726-5.378 2.145-11.842 5.377-10.225 11.313 1.616 5.906 10.754 8.051 16.66 8.051 11.285 0 22.568-6.435 33.852-8.051 5.377-.558 23.126-3.232 28.503-3.232 5.906 0 2.145 12.9 6.964 13.428 5.935 1.088 5.407 1.088 20.452-1.057 7.523-1.088 2.674-16.691 3.203-23.655.533-8.61.533-18.836-1.616-27.416-2.146-8.61-11.284-15.574-12.342-24.184-1.616-12.9 3.762-26.887 3.233-40.316-.558-17.748-5.936-36.025-9.168-53.216-.525-4.819-5.907-10.754-3.203-13.957 10.754-12.371 24.183-29.562 39.757-29.033 10.226 0-1.616 22.04 3.232 30.62 15.045 25.8 36.556 49.454 56.419 72.051 10.226 11.813 27.416 19.335 36.584 32.235 3.732 5.377 2.674 14.487 1.587 21.51-.525 5.906-3.76 11.812-7.523 16.631-5.377 6.994-15.573 10.755-19.864 18.278-2.174 3.761-3.79 11.842 0 15.574 3.762 3.79 12.342 2.174 18.249 1.645 4.848-.529 11.812-2.703 15.602-6.464 10.198-9.668 16.662-24.713 27.416-33.852 2.146-1.616 5.907 5.907 9.11 4.82 8.052-2.675 15.045-5.349 17.22-13.929 2.145-7.552-5.378-12.37-10.755-17.778-8.082-7.522-16.662-16.632-26.329-22.009 0 0-15.045-26.329-18.278-41.403-3.232-15.045-15.603-37.613-24.742-44.606-8.58-6.994-9.138-27.387-9.138-27.387 4.32-4.848 8.61-11.842 13.987-15.074 12.371-7.523 40.845-3.761 41.374-18.807-19.865-31.147-28.474-59.65-36.525-91.915-5.407-22.568-18.836-55.332-4.849-73.609 9.667-12.371 24.713 22.039 32.235 35.467 12.93 22.568 20.423 49.426 31.736 73.61 6.994 13.986 12.341 32.264 24.712 42.99 6.464 5.406 18.278-1.059 25.8 2.703 14.516 7.522 27.416 20.98 41.374 30.619 3.762 2.703 8.61 6.494 13.428 6.494 5.378 0 10.756-4.849 15.604-7.552 9.139-5.378 18.806-24.713 27.416-18.807 11.813 7.523 12.342 28.474 10.726 42.99-1.058 11.842-13.958 20.452-19.865 30.649-3.76 6.964-7.522 15.574-10.754 23.096-2.704 6.994-7.523 13.987-9.14 21.51-1.615 9.667-3.76 20.422-3.231 30.648.558 16.132 9.667 32.235 9.138 48.896 0 5.349-7.522 9.11-11.812 12.372-6.436 4.819-15.046 9.109-21.51 13.957-2.674 2.145-7.523 5.378-7.523 9.139 0 2.703 4.32 6.465 7.523 7.522 5.377 2.146 11.813 3.791 18.277 3.233 7.523-.558 15.045-7.523 23.096-7.523 2.704 0 2.175 9.139 5.936 9.139 6.435 0 16.104-2.174 19.865-8.08 4.32-6.436.557-16.633 0-24.185-.5-6.464-4.82-12.37-4.82-18.277 0-8.58 6.436-16.632 6.436-24.712 0-10.226-5.906-20.423-4.82-30.649.525-5.348 6.465-10.725 10.726-13.958 7.023-4.819 16.132-15.045 24.742-12.341 16.132 5.348 26.858 23.096 40.844 33.851 17.22 13.958 39.259 25.242 53.745 42.99 3.791 4.82-2.673 13.429-4.818 19.894-1.616 4.819-5.907 10.196-7.523 15.573-.558 2.704-3.262 8.052-1.616 10.755 2.115 3.233 8.022 4.82 12.341 4.29 5.907-.529 12.371-4.819 16.662-9.138 5.935-5.378 9.667-13.43 13.987-19.894 2.145-3.203 2.145-9.667 4.818-10.755 3.233-1.616 9.169 4.85 11.813 1.646 4.32-5.407 7.023-15.074 3.262-19.894-6.464-9.667-22.038-11.313-30.648-18.277-6.465-5.377-16.661-13.987-21.51-19.893-8.61-10.197-17.19-12.9-24.184-24.184-1.616-2.703 5.907-13.429 5.907-16.132-.5-8.61-5.348-17.19-5.907-25.8-.558-4.29-3.76-12.342 0-13.958 4.849-2.174 12.371 1.087 16.691 4.849 6.435 5.348 6.964 17.719 13.958 22.538 6.465 4.848 16.66 8.61 24.184 6.464 4.819-1.616 5.936-10.725 4.819-15.574-1.587-7.522-12.342-11.283-15.016-17.748-8.08-16.661-11.313-36.554-18.836-52.687-9.109-18.777-18.806-38.67-30.618-55.36-8.61-11.813-24.184-19.865-31.707-31.707-2.145-3.761 1.616-9.668 2.674-13.958 0 0 13.458 7.552 15.574-32.235 2.146-38.7-19.335-47.838-31.706-51.07-12.341-3.233-29.561-9.668-41.932 2.703-12.341 12.342-13.43 21.48-13.43 33.293 0 11.842-8.05 30.12 2.705 41.403 10.226 11.284 13.958 16.661 13.958 16.661-16.662 16.632-28.474 38.67-46.223 54.803-5.906 5.407-17.72 10.755-25.8 9.667-18.806-3.203-34.909-15.015-50.512-24.712-4.82-3.203-8.581-9.11-10.226-13.958-14.487-39.787-24.154-82.248-39.758-120.918-10.755-26.359-25.242-52.687-41.374-75.255-9.667-13.429-24.742-22.568-36.554-33.352 0 0-18.806-20.951-14.517-21.48M705.914 980.821h13.547v75.548h40.463v13.018h-54.01zm94.678 90.27c-18.424 0-31.294-13.487-31.294-46.075 0-31.97 11.812-45.958 31.294-45.958 20.158 0 30.972 20.187 30.972 45.958 0 22.156-5.848 46.075-30.972 46.075m0-14.016c11.137 0 16.544-9.227 16.544-32.06 0-20.892-5.348-31.617-16.544-31.617-11.46 0-17.366 8.757-17.366 31.618 0 21.862 6.288 32.059 17.366 32.059m88.184-54.539c-3.115-6.582-6.759-9.755-13.547-9.755-16.748 0-18.864 22.244-18.864 33.645 0 11.078 3.995 30.825 18.688 30.825 5.32 0 12.195-5.583 14.252-11.078l13.106 3.291c-3.88 12.665-13.312 21.627-26.682 21.627-24.066 0-32.47-24.39-32.647-45.282 0-18.865 6.113-46.75 30.532-46.75 12.4 0 22.332 5.406 28.18 17.894zm54.98-21.715-29.944 88.478h14.81l8.051-24.977h28.328l8.58 24.977h14.368l-30.295-88.478zm16.043 49.69h-18.101l8.874-26.388zm43.46-49.69h13.546v75.548h40.463v13.018h-54.01zM564.398 456.009l-84.923 113.249h84.923zm-2.792-74.667h50.424v187.916h29.855v46.663H612.03v76.547h-47.632v-76.547H413.212v-28.915zM826.98 698.433c-83.042 0-109.194-72.55-109.194-161.528s26.74-161.763 109.194-161.763c82.776 0 109.546 72.786 109.546 161.763S910.373 698.433 826.98 698.433m0-47.662c46.045 0 60.65-51.335 60.65-113.866 0-62.825-12.106-113.866-60.65-113.866-48.515 0-60.651 51.041-60.651 113.866 0 62.531 14.31 113.866 60.65 113.866M759.718 1247.694l-29.943 88.477h14.78l8.081-24.977h28.356l8.58 24.977h14.34l-30.265-88.478zm16.044 49.719H757.69l8.845-26.417zm57.007-35.88v21.687h19.159c6.111 0 10.696-6.024 10.696-11.578 0-5.612-5.495-10.108-11.255-10.108zm-13.547-13.84h32.97c13.017 0 23.801 11.725 23.801 25.007 0 10.96-5.759 16.984-13.194 21.774l15.957 41.785h-14.517l-14.369-38.758H832.77v38.758h-13.547zm75.284 0h50.718v14.193H908.23v21.775h25.858v13.84h-25.858v24.947h40.286v13.811h-54.01zm95.383 0-29.943 88.478h14.78l8.081-24.977h28.327l8.58 24.977h14.34l-30.266-88.478zm16.014 49.72h-18.071l8.874-26.417zM654.462 1114.551H708.5v13.018h-20.305v75.548h-13.34v-75.548h-20.393zm81.924 13.84v21.657h19.13c6.112 0 10.725-5.995 10.725-11.607 0-5.554-5.494-10.05-11.254-10.05zm-13.546-13.84h32.94c13.018 0 23.831 11.666 23.831 24.977 0 10.99-5.789 17.014-13.194 21.774l15.927 41.815h-14.546L753.46 1164.3h-17.073v38.817H722.84zm100.496 0-29.913 88.478h14.75l8.08-24.977h28.357l8.581 24.977h14.34l-30.267-88.478zm16.044 49.66h-18.072l8.845-26.358zm43.46-49.66h54.009v13.84h-39.904v22.039h26.035v13.87h-26.035v38.817H882.84zm68.378 0h54.01v13.84h-39.934v22.039h26.035v13.87h-26.035v38.817h-14.076zm68.38 0h13.898v88.566h-13.899zm75.43 21.686c-3.086-6.523-6.73-9.726-13.547-9.726-16.75 0-18.865 22.215-18.865 33.645 0 11.078 3.967 30.825 18.66 30.825 5.347 0 12.223-5.583 14.28-11.078l13.106 3.262c-3.908 12.694-13.282 21.627-26.652 21.627-24.095 0-32.5-24.36-32.706-45.253 0-18.835 6.172-46.78 30.56-46.78 12.402 0 22.333 5.436 28.181 17.924z" style="fill:#000;fill-opacity:1;fill-rule:evenodd;stroke:none"/>
  <path d="M669.889 925.49c213.862 0 388.76-174.899 388.76-388.761 0-213.833-174.898-388.76-388.76-388.76-213.834 0-388.761 174.927-388.761 388.76 0 213.862 174.927 388.76 388.76 388.76m-.559-88.566c165.319 0 300.195-134.289 300.195-299.637 0-165.29-134.876-300.165-300.195-300.165S369.723 371.998 369.723 537.287c0 165.348 134.289 299.637 299.607 299.637" style="fill:#c0111e;fill-opacity:1;fill-rule:evenodd;stroke:none"/>
</svg>
