<svg xmlns="http://www.w3.org/2000/svg" viewBox="0 0 349.049 174.526" role="img" aria-labelledby="title">
  <title id="title">Verkehrszeichen R6-20 - Freeway Entrance</title>
  <path d="M17.438 0H331.61c9.592 0 17.438 7.846 17.438 17.438v139.65c0 9.589-7.846 17.438-17.438 17.438H17.438C7.846 174.526 0 166.676 0 157.088V17.438C0 7.846 7.846 0 17.438 0" style="fill:#006330;fill-opacity:1;fill-rule:evenodd;stroke:none"/>
  <path d="M331.54 4.36c7.684.37 12.782 5.468 13.152 13.152v139.502c-.37 7.61-5.542 12.781-13.151 13.152H17.515c-7.613-.37-12.784-5.542-13.155-13.152V17.512C4.73 9.828 9.828 4.73 17.515 4.36z" style="fill:#fff;fill-opacity:1;fill-rule:evenodd;stroke:none"/>
  <path d="M17.438 8.717H331.61c4.798 0 8.72 3.923 8.72 8.717v139.65c0 4.799-3.922 8.722-8.72 8.722H17.438c-4.794 0-8.717-3.923-8.717-8.721V17.435c0-4.795 3.923-8.718 8.717-8.718" style="fill:#006330;fill-opacity:1;fill-rule:evenodd;stroke:none"/>
  <path d="M43.67 37.81h25.644v6.072H49.569v7.57h10.883v5.966H49.569V72.7H43.67zM78.701 37.81h16.782a10.457 10.457 0 0 1 10.573 10.397c0 3.56-2.304 8.132-6.036 9.737l6.49 14.756h-6.49L93.81 59.06h-9.143V72.7H78.7zm5.966 5.966v9.352h10.816c2.41 0 4.537-2.197 4.537-4.642 0-1.637-1.362-4.71-4.537-4.71zM116.73 37.81h25.016v6.072h-18.98v6.943h10.26v6.071h-10.26v9.733h19.608V72.7h-25.643zM153.017 37.81h25.016v6.072h-18.98v6.943h10.26v6.071h-10.26v9.733h19.608V72.7h-25.644zM186.023 37.81h6.142l3.94 21.04 5.165-21.04h5.93l5.514 21.249 3.803-21.248h6.036l-6.208 34.89h-6.562l-5.408-21.876-5.51 21.875h-6.386zM243.699 37.81h5.828L264.18 72.7h-6.561l-3.348-8.128h-15.145l-3.419 8.128h-6.42zM241.5 58.573h10.259l-5.094-12.386zM270.74 37.81h7.362l10.188 14.514 10.012-14.513h7.362L291.29 58.85V72.7h-6.068V58.85zM29.333 101.798H54.35v6.07h-18.98v6.944h10.26v6.07h-10.26v9.734h19.608v6.071H29.333zM65.62 101.798h5.722l16.016 23.064v-23.064h6.072v34.89h-5.444l-16.33-23.69v23.69H65.62zM102.814 101.798h25.643v5.651h-9.839v29.238h-6.071V107.45h-9.733zM137.844 101.798h16.782a10.457 10.457 0 0 1 10.573 10.396c0 3.56-2.304 8.131-6.036 9.737l6.49 14.756h-6.49l-6.21-13.642h-9.143v13.642h-5.966zm5.966 5.965v9.352h10.816c2.41 0 4.537-2.198 4.537-4.642 0-1.637-1.362-4.71-4.537-4.71zM187.216 101.798h5.828l14.654 34.89h-6.562l-3.348-8.129h-15.144l-3.419 8.128h-6.42zm-2.198 20.76h10.259l-5.094-12.386zM217.749 101.798h5.722l16.016 23.064v-23.064h6.071v34.89h-5.443l-16.33-23.69v23.69h-6.036zM278.317 111.566c-2.268-2.72-4.325-4.293-8.061-4.293-3.56 0-8.304 4.12-8.336 9.736 0 7.12 1.22 14.27 8.65 14.27 5.479-.106 5.687-2.162 7.782-4.36l5.232 2.79c-2.37 4.572-7.327 7.649-12.421 7.649-11.374 0-15.247-8.834-15.247-20.349.105-8.198 6.734-15.91 14.132-15.91 6.523 0 10.223 3.348 13.536 7.712zM294.227 101.798h25.016v6.07h-18.98v6.944h10.26v6.07h-10.26v9.734h19.608v6.071h-25.644z" style="fill:#fff;fill-opacity:1;fill-rule:evenodd;stroke:none"/>
</svg>
