<svg xmlns="http://www.w3.org/2000/svg" xmlns:xlink="http://www.w3.org/1999/xlink" viewBox="0 0 600 800" role="img" aria-labelledby="title">
  <title id="title">Verkehrszeichen R4-1[60] - 60&amp;nbsp;km/h Speed Limit</title>
  <defs>
    <path id="a" d="M187.441-69.121q0 30.72-23.402 51.96-23.398 21.24-58.437 21.24-34.564 0-58.082-22.2Q24-40.321 24-72.238q0-49.683 25.441-96.84 25.437-47.163 67.438-75l19.2 31.918q-21.84 16.798-34.919 33.12c-8.719 10.88-16.762 24-24.12 39.36q13.68-2.4 28.562-2.64 33.596-.001 57.718 21.601Q187.44-99.12 187.441-69.12m-38.16-.719q-.001-13.921-12.722-24.238c-8.48-6.883-18.797-10.32-30.957-10.32-11.84 0-21.922 3.437-30.243 10.32Q62.88-83.761 62.88-69.84q0 14.401 12.601 24.84 12.6 10.44 30.239 10.441 17.64 0 30.601-10.441 12.96-10.438 12.961-24.84m0 0"/>
    <path id="b" d="M194.16-119.52q0 29.28-6.84 55.442c-4.558 17.437-10.922 31.277-19.082 41.52Q148.561 4.077 109.922 4.077 84.96 4.08 68.16-6.238 51.36-16.562 40.8-38.641 24.003-71.519 24-119.52q0-60.48 26.16-97.44 20.879-27.119 61.2-27.118c29.6 0 51.84 14.316 66.718 42.957Q194.161-168 194.16-119.52m-37.922 0q.002-43.2-14.398-67.44-9.84-17.28-31.2-18.481Q84-206.637 72-175.921q-9.119 22.564-9.121 56.401c0 29.282 4.723 51.442 14.16 66.48q10.8 18.481 32.883 18.481 24.956 0 36.957-30.48 9.361-24 9.36-54.48m0 0"/>
  </defs>
  <path fill="#fff" stroke="#000" stroke-miterlimit="10" stroke-width=".3" d="M550 0c27.613 0 50 22.387 50 50v700c0 27.613-22.387 50-50 50H50c-27.613 0-50-22.387-50-50V50C0 22.387 22.387 0 50 0Zm0 0"/>
  <path fill="none" stroke="red" stroke-miterlimit="10" stroke-width="60" d="M567 400c0 147.46-119.54 267-267 267S33 547.46 33 400s119.54-267 267-267 267 119.54 267 267"/>
  <use xlink:href="#a" x="85.199" y="520"/>
  <use xlink:href="#b" x="296.639" y="520"/>
</svg>
