<svg xmlns="http://www.w3.org/2000/svg" viewBox="0 0 262.719 349.812" role="img" aria-labelledby="title">
  <title id="title">Verkehrszeichen R2-Q02 - Through Traffic Keep Left (used in QLD)</title>
  <path d="M26.91.832h208.877c14.365 0 26.091 11.712 26.091 26.077v295.967c0 14.368-11.726 26.08-26.091 26.08H26.91c-14.365 0-26.077-11.712-26.077-26.08V26.909C.833 12.544 12.545.832 26.91.832z" style="fill:#fff;fill-opacity:1;fill-rule:evenodd;stroke:#000;stroke-width:1.6933336;stroke-linecap:butt;stroke-linejoin:miter;stroke-miterlimit:11.47399998;stroke-opacity:1;stroke-dasharray:none"/>
  <path d="M235.677 4.254c13.155.554 22.211 9.61 22.762 22.765v295.733c-.55 13.05-9.716 22.229-22.762 22.78H27.034c-13.05-.551-22.225-9.73-22.779-22.78V27.02c.554-13.155 9.624-22.211 22.779-22.765z" style="fill:#000;fill-opacity:1;fill-rule:evenodd;stroke:none"/>
  <path d="M246.836 15.86c3.1 3.101 4.205 7.292 4.65 11.497v295.078c-1.105 9.945-6.185 15.025-16.133 16.129H27.355c-10.16-1.104-15.134-6.414-16.133-16.13V27.358c1.105-10.054 6.079-15.028 16.133-16.132h207.998c4.19.43 8.396 1.534 11.483 4.635" style="fill:#fff;fill-opacity:1;fill-rule:evenodd;stroke:none"/>
  <path d="M69.586 270.605h6.742v37.126h19.776v6.41H69.586zM103.068 270.605h25.083v6.52h-18.673v10.716h12.93v7.183h-12.93v12.266h20.108v6.851h-26.518zM137.654 270.605h26.519v6.85h-19.336v10.831h12.485v7.183h-12.485v18.672h-7.183zM168.374 270.605h26.519v6.41h-10.055v37.126h-6.741v-37.126h-9.723zM63.617 192.25h6.629v17.236l12.929-17.237h8.618l-12.816 17.237 14.033 26.3h-7.845l-10.718-20.553-4.201 5.415v15.138h-6.63zM100.525 192.25h25.082v6.519h-18.672v10.717h12.925v7.183h-12.925v12.266h20.108v6.85h-26.518zM135.11 192.25h25.083v6.519h-18.672v10.717h12.926v7.183H141.52v12.266h20.108v6.85h-26.518zM176.217 199.1v11.05h10.717c3.094 0 4.974-2.982 4.974-6.189 0-2.54-2.543-4.86-5.306-4.86zm-6.52-6.85h15.801c6.742 0 13.48 4.973 13.48 11.824 0 7.07-5.412 12.926-13.48 12.926h-9.281v18.786h-6.52zM19.417 114.003h26.519v6.41H35.882v37.126H29.14v-37.126h-9.723zM59.863 120.854v10.717h9.282c2.984 0 5.084-3.093 5.084-5.856 0-2.653-2.872-4.86-5.306-4.86zm-6.741-6.85h16.245c6.407 0 11.603 5.746 11.603 12.375 0 4.42-2.653 8.286-6.41 10.608l7.846 20.552h-7.514l-6.96-19.117h-8.178v19.117h-6.632zM102.292 114.003h7.073l14.916 43.536h-7.624l-3.866-12.266H98.867l-3.648 12.266h-7.514zm8.068 24.532h-8.84l4.638-13.038zM131.798 114.003h26.519v6.851H138.98v10.83h12.485v7.183H138.98v18.672h-7.183zM165.5 114.003h26.518v6.851h-19.336v10.83h12.485v7.183h-12.485v18.672h-7.183z" style="fill:#000;fill-opacity:1;fill-rule:evenodd;stroke:none"/>
  <path d="M199.204 157.54h6.74v-43.537h-6.74z" style="fill:#000;fill-opacity:1;fill-rule:nonzero;stroke:none"/>
  <path d="M236.662 124.943c-1.659-3.094-3.204-4.42-6.52-4.42-8.4 0-9.504 9.944-9.504 15.36s1.88 15.137 9.173 15.137c2.652 0 6.078-2.653 7.073-5.193l6.297 1.549c-2.43 5.965-6.078 10.163-12.817 10.163-11.934 0-16.464-11.712-16.686-21.879 0-9.169 3.094-21.657 15.579-21.657 6.3 0 10.498 2.321 13.37 8.4zM27.595 35.648h21.77v5.746h-7.959v37.79h-6.188v-37.79h-7.623zM55.662 35.648h6.188v17.68h11.934v-17.68h5.747v43.536h-5.747v-19.78H61.85v19.78h-6.188zM105.83 58.19l6.52 20.994h-6.629l-5.856-20.221h-5.197v20.221h-6.187V35.648h13.924c5.524 0 9.945 6.632 9.945 12.043 0 4.202-2.431 9.063-6.52 10.5m-3.425-5.193c2.871 0 3.425-3.206 3.425-5.524 0-2.653-.109-5.306-3.425-5.306h-7.737v10.83zM129.918 79.184c-10.276 0-12.598-9.835-12.598-21.77 0-11.93 2.653-21.766 12.598-21.766 9.835 0 12.598 9.835 12.598 21.766 0 11.935-2.322 21.77-12.598 21.77m0-5.747c5.302 0 6.52-7.182 6.52-16.023 0-8.837-1.436-16.02-6.52-16.02s-6.52 7.183-6.52 16.02c0 8.84 1.214 16.023 6.52 16.023M161.301 79.184c-5.747 0-11.934-4.861-11.934-10.717v-32.82h6.187v32.375c0 3.094 2.544 5.084 5.306 5.084 2.872 0 5.743-1.768 5.743-5.084V35.648h6.633v32.819c0 5.524-6.633 10.717-11.935 10.717M197.764 46.81c0-3.317-2.099-4.975-5.193-4.975-6.632 0-6.187 12.266-6.187 16.8 0 4.639-.113 14.806 6.519 14.806 2.43 0 4.861-2.1 4.861-4.643v-4.752h-4.861v-5.965h11.049v8.177c0 7.401-3.757 12.93-11.38 12.93-11.05 0-12.489-12.711-12.489-21.107 0-7.846 1.326-22.433 12.047-22.433 6.188 0 11.822 4.864 11.822 11.162zM211.135 35.648h6.187v17.68h11.935v-17.68h5.746v43.536h-5.746v-19.78h-11.935v19.78h-6.187z" style="fill:#000;fill-opacity:1;fill-rule:evenodd;stroke:none"/>
</svg>
