<svg xmlns="http://www.w3.org/2000/svg" viewBox="0 0 307.938 154.719" role="img" aria-labelledby="title">
  <title id="title">Verkehrszeichen R7-Q01 - Ahead on Side Road (left) (used with bus, transit or truck lane signs) (used in QLD)</title>
  <path d="M23.735.755h260.48c12.719 0 22.97 10.234 22.97 22.953v107.278c0 12.72-10.251 22.971-22.97 22.971H23.734c-12.72 0-22.972-10.252-22.972-22.971V23.708C.763 10.988 11.015.755 23.735.755z" style="fill:#fff;fill-opacity:1;fill-rule:evenodd;stroke:#000;stroke-width:1.5;stroke-linecap:butt;stroke-linejoin:miter;stroke-miterlimit:11.47399998;stroke-opacity:1;stroke-dasharray:none"/>
  <path d="M284.09 4.772c11.279.65 18.413 7.785 19.063 19.064v107.022c-.65 11.154-7.912 18.432-19.064 19.082H23.863c-11.155-.65-18.433-7.928-19.083-19.082V23.836c.65-11.28 7.784-18.414 19.083-19.064z" style="fill:#000;fill-opacity:1;fill-rule:evenodd;stroke:none"/>
  <path d="M286.285 13.331c5.838 1.693 7.928 4.936 8.703 11.027v105.978c-1.047 7.406-4.017 10.38-11.424 11.423H24.381c-7.403-1.043-10.377-4.017-11.423-11.423V24.358c1.046-7.531 3.892-10.377 11.423-11.423h259.183z" style="fill:#fff;fill-opacity:1;fill-rule:evenodd;stroke:none"/>
  <path d="M57.858 25.92h7.522l17.124 40.858H74.72l-4.02-9.859H53.188l-3.892 9.859h-7.65zm-1.687 24.255h11.545L61.75 35.778zM94.308 25.92h7.004v15.953h18.548V25.92h7.004v40.858h-7.004V48.62h-18.548v18.158h-7.004zM142.43 25.92h29.312v7.003h-22.31v8.562h12.323v7.135h-12.323v11.155h23.09v7.003H142.43zM197.294 25.92h7.522l17.124 40.858h-7.784l-4.02-9.859h-17.512l-3.892 9.859h-7.65zm-1.687 24.255h11.545l-5.966-14.397zM233.744 25.92h13.23c11.935 0 19.326 9.986 19.326 20.622 0 10.25-7.391 20.236-18.158 20.236h-14.398zm7.004 33.855h7.653c7.006 0 11.026-7.007 11.026-13.36 0-5.708-4.41-13.492-11.026-13.492h-7.653zM230.502 107.905v-7.657l-120.375 2.196 3.242-11.801c.128-.378.253-.9.253-1.171 0-1.153-.9-2.071-2.07-2.071-.525 0-1.172.396-1.55.65l-32.577 19.854 32.577 19.838c.378.269 1.025.647 1.55.647 1.17 0 2.07-.9 2.07-2.071 0-.253-.125-.775-.253-1.172l-3.242-11.801 120.375 2.215z" style="fill:#000;fill-opacity:1;fill-rule:evenodd;stroke:none"/>
</svg>
