<svg xmlns="http://www.w3.org/2000/svg" viewBox="0 0 606 1006" role="img" aria-labelledby="title">
  <title id="title">Verkehrszeichen R4-10[30] - 30&amp;nbsp;km/h Speed Limit Zone Area</title>
  <g transform="translate(0 709)">
    <rect width="604" height="1004" x="1" y="-708" rx="77" ry="77" style="opacity:1;fill:#000;fill-opacity:1;fill-rule:nonzero;stroke:none;stroke-width:157.30535889;stroke-linecap:square;stroke-linejoin:round;stroke-miterlimit:4;stroke-dasharray:none;stroke-opacity:1"/>
    <rect width="600" height="1000" x="3" y="-706" rx="75" ry="75" style="opacity:1;fill:#fff;fill-opacity:1;fill-rule:nonzero;stroke:none;stroke-width:156.47099304;stroke-linecap:square;stroke-linejoin:round;stroke-miterlimit:4;stroke-dasharray:none;stroke-opacity:1"/>
    <circle cx="303" cy="-323" r="297" style="opacity:1;fill:#be121e;fill-opacity:1;fill-rule:nonzero;stroke:none;stroke-width:93.23668671;stroke-linecap:square;stroke-linejoin:round;stroke-miterlimit:4;stroke-dasharray:none;stroke-opacity:1"/>
    <circle cx="303" cy="-323" r="237" style="opacity:1;fill:#fff;fill-opacity:1;fill-rule:nonzero;stroke:none;stroke-width:74.40099335;stroke-linecap:square;stroke-linejoin:round;stroke-miterlimit:4;stroke-dasharray:none;stroke-opacity:1"/>
    <g aria-label="AREA" style="font-style:normal;font-variant:normal;font-weight:400;font-stretch:normal;font-size:238.80596924px;line-height:0;font-family:&quot;Roadgeek 2005 Series D&quot;;-inkscape-font-specification:&quot;Roadgeek 2005 Series D&quot;;letter-spacing:-.01852083px;word-spacing:0;fill:#000;fill-opacity:1;stroke:none;stroke-width:5.97014904">
      <path d="m136.918 217-15.761-44.896h-49.91L55.484 217H28.5L83.664 57h25.075l55.164 160ZM96.56 101.418l-16.478 44.895h32zM269.526 217l-25.79-69.731h-30.33V217h-25.313V57h52.777q9.313 0 16 1.194 6.686.955 12.656 3.82 5.254 2.628 9.552 6.926 4.538 4.06 7.642 9.553 3.344 5.253 5.015 11.462 1.91 5.97 1.91 11.94 0 6.448-1.91 12.657-1.671 5.97-5.015 11.463-3.104 5.254-7.88 9.552-4.538 4.299-10.03 6.687L296.989 217Zm-1.194-115.104q0-5.015-2.627-9.553-2.627-4.537-7.403-7.164-3.104-1.672-5.731-2.15-2.627-.716-8.836-.716h-30.328v39.165h30.328q5.97 0 8.597-.478 2.866-.478 5.97-2.15 4.776-2.626 7.403-7.163 2.627-4.777 2.627-9.791M323.806 217V57h94.328v25.313H349.12v39.165h46.568v25.79h-46.568v43.941h74.03V217ZM544.515 217l-15.761-44.896h-49.91L463.081 217h-26.985l55.164-160h25.075L571.5 217Zm-40.358-115.582-16.478 44.895h32z" style="font-style:normal;font-variant:normal;font-weight:400;font-stretch:normal;line-height:0;font-family:&quot;Roadgeek 2005 Series D&quot;;-inkscape-font-specification:&quot;Roadgeek 2005 Series D&quot;;letter-spacing:-.01852083px;fill:#000;stroke:none;stroke-width:5.97014904" transform="translate(3 -3)"/>
    </g>
    <path d="M276.203-283.576q0 17.637-5.88 32.507-5.878 14.87-16.598 25.59-10.375 10.375-25.245 16.6Q213.955-203 196.318-203q-14.179 0-26.628-4.496-12.104-4.495-22.478-12.45-10.03-7.953-17.291-19.365-7.263-11.412-10.721-25.591l35.965-10.375q4.15 16.946 15.217 25.937t27.665 8.991q9.337 0 16.946-3.112 7.608-3.112 12.795-8.3 5.533-5.533 8.645-12.795 3.113-7.608 3.113-16.6 0-8.991-3.458-16.945t-9.683-12.45q-2.075-1.383-3.804-2.074-1.384-1.038-3.804-1.384-2.075-.345-5.88-.691-3.458-.346-10.028-.692h-4.15v-37.349 1.038h8.991q11.067 0 16.946-5.88 5.878-5.878 5.878-16.944 0-13.487-9.683-22.133-9.337-8.991-23.515-8.991-23.17 0-34.928 22.824l-34.237-12.795q8.992-22.133 26.974-34.583Q173.494-443 196.318-443q14.525 0 27.32 5.533 13.141 5.533 22.824 15.216t15.216 22.824q5.534 12.796 5.534 27.32 0 10.375-2.767 18.675t-10.375 19.366q6.57 5.879 10.72 11.412 4.15 5.187 6.571 11.066 2.767 5.88 3.804 12.796 1.038 6.57 1.038 15.216M486.8-322.654q0 27.666-6.57 52.91-6.571 25.245-18.675 40.807Q442.19-203 405.532-203q-24.553 0-40.461-10.029t-26.282-31.47q-7.263-14.87-11.758-35.965-4.496-21.44-4.496-42.19 0-28.703 6.57-53.257 6.917-24.553 18.675-41.152 10.375-13.142 24.553-19.366Q386.858-443 406.915-443q22.133 0 37.695 10.029t26.628 31.47q7.262 15.562 11.412 36.31 4.15 20.75 4.15 42.537m-36.657 0q0-19.712-3.458-36.311-3.458-16.946-10.375-28.704-5.533-8.99-12.795-13.14-6.917-4.15-17.291-4.842-13.487-.692-22.479 6.224t-14.87 22.479q-4.496 10.375-6.916 25.245-2.075 14.524-2.075 29.049 0 18.674 3.458 35.965t10.375 28.358q5.533 8.991 13.14 13.487 7.609 4.495 18.675 4.495 12.796 0 21.095-6.916 8.646-6.917 14.525-22.479 1.729-4.495 3.458-10.72 1.73-6.57 2.767-13.487 1.383-7.262 2.074-14.524.692-7.263.692-14.18" style="font-style:normal;font-variant:normal;font-weight:400;font-stretch:normal;font-size:345.82131958px;line-height:0;font-family:&quot;Roadgeek 2005 Series D&quot;;-inkscape-font-specification:&quot;Roadgeek 2005 Series D&quot;;letter-spacing:0;word-spacing:0;fill:#000;fill-opacity:1;stroke:none;stroke-width:8.64553261"/>
  </g>
</svg>
