<svg xmlns="http://www.w3.org/2000/svg" viewBox="0 0 93 123.625" role="img" aria-labelledby="title">
  <title id="title">Verkehrszeichen R5-1 - Parking Permitted: 1 Hour (1 time of parking)</title>
  <path d="M8.717.503h75.584c4.511 0 8.203 3.692 8.203 8.203v106.211c0 4.511-3.692 8.203-8.203 8.203H8.717c-4.51 0-8.202-3.692-8.202-8.203V8.706C.515 4.195 4.206.503 8.717.503z" style="fill:#fff;fill-opacity:1;fill-rule:evenodd;stroke:#000;stroke-width:1;stroke-linecap:butt;stroke-linejoin:miter;stroke-miterlimit:2.61299992;stroke-opacity:1;stroke-dasharray:none"/>
  <path d="m33.635 92.236 1.687-.566c.623 1.255 1.255 1.643 2.543 1.643.689 0 1.544-.766 1.544-1.532 0-1.155-.622-1.71-2.798-1.954-.334-.034-1.055-.277-1.61-.766-.467-.378-.9-1.044-.9-2.021 0-2.132 1.654-3.487 3.464-3.487 1.555 0 2.51.778 3.142 2.432l-1.653.5c-.3-.91-1-1.11-1.688-1.155-.866 0-1.566.832-1.566 1.566 0 .489.389.987.821 1.121.689.21 1.699.1 2.433.455 1.132.544 2.042 1.565 2.042 3.031 0 2.077-1.365 3.588-3.575 3.588-1.332 0-3.275-1.1-3.886-2.855M46.127 83.775l-3.753 11.092h1.855l1.01-3.131h3.553l1.077 3.131h1.798L47.87 83.775zm2.01 6.228h-2.265l1.11-3.308zM52.844 83.775h6.772v1.632h-2.542v9.471h-1.677v-9.47h-2.553zM17.022 80.215v-3.547c4.24 0 6.983-1.412 9.133-5.548-1.29.737-4.055.757-4.894.757-3.931 0-7.249-2.355-7.249-6.45 0-3.644 3.748-6.081 7.843-6.081 4.689 0 8.415 2.089 8.415 7.659 0 4.933-1.168 6.653-2.888 8.763-2.456 2.97-5.752 4.447-10.36 4.447m4.955-11.9c2.417 0 4.423-.697 4.423-2.703 0-2.069-2.006-2.744-4.423-2.744-2.497 0-4.463.88-4.463 2.744 0 1.884 1.966 2.703 4.463 2.703M62.417 73.697v-10.83H60.63v-2.09c.909-.115 1.816-.692 2.235-1.5h2.047v14.42zM67.725 61.267c1.471-1.37 3.777-2.277 5.754-2.277 2.768 0 5.666 1.412 5.666 4.498 0 2.264-2.119 3.705-3.403 3.922-3.013.49-4.556 2.423-4.888 3.72h8.363v2.567H67.782c0-3.62 2.15-6.806 5.307-8.132 1.731-.75 3.591-.433 3.591-2.293 0-.88-1.456-1.774-2.971-1.774-1.34 0-3.288.447-4.325 1.644zM60.63 74.922h.804l2.25 3.24v-3.24h.853v4.903h-.765l-2.293-3.33v3.33h-.849zM67.522 79.07c.794 0 1.197-.765 1.197-1.697 0-.936-.422-1.7-1.197-1.7s-1.196.764-1.196 1.7c0 .932.401 1.697 1.196 1.697m0 .848c-1.353 0-2.03-1.142-2.03-2.545 0-1.402.712-2.55 2.03-2.55 1.32 0 2.03 1.148 2.03 2.55 0 1.403-.677 2.545-2.03 2.545M72.274 79.07c.793 0 1.196-.765 1.196-1.697 0-.936-.421-1.7-1.196-1.7s-1.197.764-1.197 1.7c0 .932.402 1.697 1.197 1.697m0 .848c-1.354 0-2.03-1.142-2.03-2.545 0-1.402.711-2.55 2.03-2.55s2.03 1.148 2.03 2.55c0 1.403-.678 2.545-2.03 2.545M75.264 74.922h.803l2.25 3.24v-3.24h.854v4.903h-.765l-2.294-3.33v3.33h-.848zM31.524 73.623h1.035l2.605 6.2h-1.167l-.595-1.443h-2.69l-.608 1.443h-1.142zm-.392 3.69h1.824l-.906-2.2zM36.354 73.623h1.028l1.824 3.69 1.773-3.69h1.091v6.2h-1.06v-3.737l-1.804 3.737-1.792-3.688v3.688h-1.06z" style="fill:#006330;fill-opacity:1;fill-rule:evenodd;stroke:none"/>
  <path d="M44.952 73.68h12.49v-3.072h-12.49z" style="fill:#006330;fill-opacity:1;fill-rule:nonzero;stroke:none"/>
  <path d="M23.846 49.606V18.85H18.77v-5.938c2.58-.328 5.16-1.966 6.347-4.26h5.815v40.953zM41.496 8.653H61.36c6.265 0 12.817 5.407 12.817 11.795 0 6.675-4.955 13.145-11.835 13.145H48.662v16.013h-7.166zm6.798 7.127v10.85h13.065c3.316 0 5.651-1.882 5.651-5.445 0-3.482-2.949-5.405-5.898-5.405zM21.021 111.388l8.158-6.525h8.971l-5.096 4.08h38.945v4.892H33.054l5.096 4.078h-8.971z" style="fill:#006330;fill-opacity:1;fill-rule:evenodd;stroke:none"/>
</svg>
