<svg xmlns="http://www.w3.org/2000/svg" xmlns:xlink="http://www.w3.org/1999/xlink" viewBox="0 0 600 800" role="img" aria-labelledby="title">
  <title id="title">Verkehrszeichen R4-1[80] - 80&amp;nbsp;km/h Speed Limit</title>
  <defs>
    <path id="a" d="M187.441-76.559q0 32.397-24.363 56.52-24.358 24.117-57.36 24.117c-22 0-41.116-8-57.359-24Q24.001-43.922 24-76.559q0-33.363 27.84-55.921-17.761-18.962-17.762-43.442.001-27.599 21.242-47.879t50.399-20.277q29.16 0 50.761 20.277 21.598 20.28 21.598 47.88c0 15.843-6.156 30.32-18.476 43.44q27.839 21.84 27.84 55.922m-48-100.32q-.002-12.001-9.84-20.281-9.845-8.28-23.883-8.281-14.04 0-23.88 8.402-9.838 8.399-9.839 20.16 0 10.8 9.84 18.36 9.839 7.558 23.879 7.558t23.883-7.559q9.839-7.56 9.84-18.359m9.84 101.277q0-14.877-12.962-25.558-12.96-10.68-30.601-10.68-17.639 0-30.239 10.442Q62.878-90.961 62.88-75.602q0 16.805 12.48 29.043 12.481 12 30.243 12c12 0 22.277-4.043 30.84-12.12 8.558-8.083 12.84-17.72 12.84-28.923m0 0"/>
    <path id="b" d="M194.16-119.52q0 29.28-6.84 55.442c-4.558 17.437-10.922 31.277-19.082 41.52Q148.561 4.077 109.922 4.077 84.96 4.08 68.16-6.238 51.36-16.562 40.8-38.641 24.003-71.519 24-119.52q0-60.48 26.16-97.44 20.879-27.119 61.2-27.118c29.6 0 51.84 14.316 66.718 42.957Q194.161-168 194.16-119.52m-37.922 0q.002-43.2-14.398-67.44-9.84-17.28-31.2-18.481Q84-206.637 72-175.921q-9.119 22.564-9.121 56.401c0 29.282 4.723 51.442 14.16 66.48q10.8 18.481 32.883 18.481 24.956 0 36.957-30.48 9.361-24 9.36-54.48m0 0"/>
  </defs>
  <path fill="#fff" stroke="#000" stroke-miterlimit="10" stroke-width=".3" d="M550 0c27.613 0 50 22.387 50 50v700c0 27.613-22.387 50-50 50H50c-27.613 0-50-22.387-50-50V50C0 22.387 22.387 0 50 0Zm0 0"/>
  <path fill="none" stroke="red" stroke-miterlimit="10" stroke-width="60" d="M567 400c0 147.46-119.54 267-267 267S33 547.46 33 400s119.54-267 267-267 267 119.54 267 267"/>
  <use xlink:href="#a" x="85.199" y="520"/>
  <use xlink:href="#b" x="296.639" y="520"/>
</svg>
