<svg xmlns="http://www.w3.org/2000/svg" viewBox="0 0 500 1215" role="img" aria-labelledby="title">
  <title id="title">Verkehrszeichen R4-V114-2-VIC - 40&amp;nbsp;km/h Speed Limit with multiple times of operation (used in VIC)</title>
  <g fill="#fff" clip-path="url(#clipPath10187-5)" transform="matrix(4.8575 0 0 -4.8575 457.876 1214.4)">
    <path fill-rule="evenodd" d="M0 0h-85.576a8.56 8.56 0 0 0-7.957 5.408 8.6 8.6 0 0 0-.6 3.15v232.77a8.57 8.57 0 0 0 2.506 6.051 8.56 8.56 0 0 0 6.051 2.506H0a8.552 8.552 0 0 0 8.558-8.557V8.558A8.56 8.56 0 0 0 0 0"/>
  </g>
  <g clip-path="url(#clipPath10181-8)" transform="matrix(4.8575 0 0 -4.8575 457.876 1214.4)">
    <path fill="none" stroke="#000" stroke-linejoin="bevel" stroke-miterlimit="1.414" stroke-width=".24" d="M0 0h-85.576"/>
  </g>
  <g clip-path="url(#clipPath10175-5)" transform="matrix(4.8575 0 0 -4.8575 42.173 1214.4)">
    <path fill="none" stroke="#000" stroke-linejoin="bevel" stroke-miterlimit="1.414" stroke-width=".24" d="M0 0a8.56 8.56 0 0 0-8.558 8.558"/>
  </g>
  <g clip-path="url(#clipPath10169-6)" transform="matrix(4.8575 0 0 -4.8575 .642 1172.82)">
    <path fill="none" stroke="#000" stroke-linejoin="bevel" stroke-miterlimit="1.414" stroke-width=".24" d="M0 0v232.77"/>
  </g>
  <g clip-path="url(#clipPath10163-8)" transform="matrix(4.8575 0 0 -4.8575 .642 42.193)">
    <path fill="none" stroke="#000" stroke-linejoin="bevel" stroke-miterlimit="1.414" stroke-width=".24" d="M0 0a8.56 8.56 0 0 0 8.558 8.558"/>
  </g>
  <g clip-path="url(#clipPath10157-7)" transform="matrix(4.8575 0 0 -4.8575 42.173 .613)">
    <path fill="none" stroke="#000" stroke-linejoin="bevel" stroke-miterlimit="1.414" stroke-width=".24" d="M0 0h85.576"/>
  </g>
  <g clip-path="url(#clipPath10151-7)" transform="matrix(4.8575 0 0 -4.8575 457.876 .613)">
    <path fill="none" stroke="#000" stroke-linejoin="bevel" stroke-miterlimit="1.414" stroke-width=".24" d="M0 0a8.56 8.56 0 0 0 8.558-8.558"/>
  </g>
  <g clip-path="url(#clipPath10145-7)" transform="matrix(4.8575 0 0 -4.8575 499.456 42.193)">
    <path fill="none" stroke="#000" stroke-linejoin="bevel" stroke-miterlimit="1.414" stroke-width=".24" d="M0 0v-232.77"/>
  </g>
  <g clip-path="url(#clipPath10139-9)" transform="matrix(4.8575 0 0 -4.8575 499.456 1172.82)">
    <path fill="none" stroke="#000" stroke-linejoin="bevel" stroke-miterlimit="1.414" stroke-width=".24" d="M0 0a8.56 8.56 0 0 0-8.558-8.558"/>
  </g>
  <g clip-path="url(#clipPath10079-5)" transform="matrix(4.8575 0 0 -4.8575 212.185 1133.571)">
    <path fill-rule="evenodd" d="M0 0c0 .284-.099.56-.28.779a.9.9 0 0 1-.283.227 3 3 0 0 1-.492.199q-1.285.396-2.592.719a4.4 4.4 0 0 0-1.138.457 2.3 2.3 0 0 0-.999 1.16c-.168.434-.231.9-.184 1.363.1.968.715 1.806 1.608 2.191a4.9 4.9 0 0 0 1.942.401 5.315 5.315 0 0 0 3.794-1.593L.056 4.609a3.47 3.47 0 0 1-2.474 1.039c-.416 0-.828-.085-1.21-.25a.84.84 0 0 1-.501-.683 1.1 1.1 0 0 1 .068-.504.45.45 0 0 1 .195-.227c.207-.119.431-.208.663-.266a49 49 0 0 0 2.692-.746q.406-.125.787-.319c.334-.17.63-.407.869-.697a3.07 3.07 0 0 0 .58-2.807 2.54 2.54 0 0 0-.941-1.333 4.9 4.9 0 0 0-1.883-.833 5.6 5.6 0 0 0-1.135-.116q-.537 0-1.068.087a4.7 4.7 0 0 0-2.094.902A7 7 0 0 0-6.47-1.133L-5.071.075q.36-.417.796-.749a2.86 2.86 0 0 1 1.271-.548q.383-.062.77-.062.385 0 .762.078c.422.087.82.263 1.168.516.123.09.213.218.257.364Q0-.166 0 0"/>
  </g>
  <g clip-path="url(#clipPath10073-2)" transform="matrix(4.8575 0 0 -4.8575 259.108 1127.208)">
    <path fill-rule="evenodd" d="M0 0h-1.442v-1.848H.776L1.79-4.262h2.005L-.518 6.007h-1.849L-6.68-4.262h2.005l1.014 2.414h2.218V0h-1.442l1.442 3.435z"/>
  </g>
  <g clip-path="url(#clipPath10067-2)" transform="matrix(4.8575 0 0 -4.8575 281.501 1107)">
    <path fill-rule="evenodd" d="M0 0h2.927v-8.421h1.848V0h2.927v1.848H0"/>
  </g>
  <g clip-path="url(#clipPath10061-4)" transform="matrix(4.8575 0 0 -4.8575 111.052 836.002)">
    <path fill-rule="evenodd" d="m0 0 2.835 5.964h1.991V-4.305H2.978v6.264L0-4.305l-2.978 6.264v-6.264h-1.848V5.964h1.991z"/>
  </g>
  <g clip-path="url(#clipPath10055-8)" transform="matrix(4.8575 0 0 -4.8575 186.44 842.803)">
    <path fill-rule="evenodd" d="M0 0a4.16 4.16 0 0 0-4.02-3.087v1.848c1.047 0 1.964.704 2.234 1.716a6.77 6.77 0 0 1 0 3.5 2.313 2.313 0 0 1-4.469 0 6.77 6.77 0 0 1 0-3.5 2.31 2.31 0 0 1 2.234-1.716v-1.848A4.16 4.16 0 0 0-8.041 0a8.6 8.6 0 0 0 0 4.454 4.16 4.16 0 0 0 8.041 0A8.6 8.6 0 0 0 0 0"/>
  </g>
  <g clip-path="url(#clipPath10049-6)" transform="matrix(4.8575 0 0 -4.8575 239.727 807.052)">
    <path fill-rule="evenodd" d="M0 0v-10.269h-1.592l-4.877 7.034v-7.034h-1.849V0h1.855l4.615-6.655V0z"/>
  </g>
  <g clip-path="url(#clipPath10043-5)" transform="matrix(4.8575 0 0 -4.8575 315.212 834.982)">
    <path fill-rule="evenodd" d="M0 0v-4.518h-1.848V5.751h7.701V3.902H0V1.848h3.235V0"/>
  </g>
  <g clip-path="url(#clipPath10037-7)" transform="matrix(4.8575 0 0 -4.8575 361.115 815.99)">
    <path fill-rule="evenodd" d="M0 0v1.848h3.116a3.131 3.131 0 0 0 1.462-5.901l1.891-4.368H4.455L2.721-4.416H0v-4.005h-1.849V1.848h1.848L0-2.567h3.116a1.282 1.282 0 1 1 0 2.567z"/>
  </g>
  <g clip-path="url(#clipPath10031-2)" transform="matrix(4.8575 0 0 -4.8575 402.5 856.938)">
    <path fill-rule="evenodd" d="M0 0v10.269h1.848V0"/>
  </g>
  <g clip-path="url(#clipPath10025-0)" transform="matrix(4.8575 0 0 -4.8575 61.894 648.746)">
    <path fill-rule="evenodd" d="M0 0q.501 0 .99-.105a2.89 2.89 0 0 0 2.111-1.848c.447-1.249.675-2.565.675-3.892 0-.939-.28-1.857-.805-2.636A3.35 3.35 0 0 0 .665-9.927a4.8 4.8 0 0 0-1.597.046 3.41 3.41 0 0 0-2.591 2.364 8.83 8.83 0 0 0-.041 4.902A3.57 3.57 0 0 0-.509-.028 4 4 0 0 0-.001 0v3.834c-.306 0-.617-.017-.922-.05a7.41 7.41 0 0 1-6.332-5.363 12.64 12.64 0 0 1 .059-7.035 7.24 7.24 0 0 1 5.507-5.025 8.6 8.6 0 0 1 2.895-.083q.44.063.868.179a22.4 22.4 0 0 0-6.308-7.968l2.39-2.998a26.3 26.3 0 0 1 7.09 8.724 22.1 22.1 0 0 1 2.364 9.94c0 1.767-.304 3.52-.9 5.184a6.72 6.72 0 0 1-4.915 4.304A8.4 8.4 0 0 1 0 3.834z"/>
  </g>
  <g clip-path="url(#clipPath10019-7)" transform="matrix(4.8575 0 0 -4.8575 123.779 765.472)">
    <path fill-rule="evenodd" d="m0 0 3.491 10.269h1.746L8.729 0H6.993L4.364 7.732l-1.11-3.266h2.22l.559-1.643H2.695L1.735 0z"/>
  </g>
  <g clip-path="url(#clipPath10013-0)" transform="matrix(4.8575 0 0 -4.8575 212.573 765.472)">
    <path fill-rule="evenodd" d="M0 0v10.269h-1.7l-2.305-5.812-2.305 5.812h-1.7V0h1.643v5.956L-4.005 0l2.362 5.956V0z"/>
  </g>
  <g clip-path="url(#clipPath10007-6)" transform="matrix(4.8575 0 0 -4.8575 347.66 651.078)">
    <path fill-rule="evenodd" d="M0 0h-10.689v3.834H4.646V0a39.85 39.85 0 0 1-7.705-23.55h-3.834C-6.893-15.203-4.501-7.03 0 0"/>
  </g>
  <g clip-path="url(#clipPath10001-5)" transform="matrix(4.8575 0 0 -4.8575 403.132 723.551)">
    <path fill-rule="evenodd" d="M0 0h2.465a1.233 1.233 0 0 0 0-2.465H.001v-1.643h2.464a2.876 2.876 0 0 1 0 5.751h-4.108V-8.626H0z"/>
  </g>
  <g clip-path="url(#clipPath9995-3)" transform="matrix(4.8575 0 0 -4.8575 475.46 765.472)">
    <path fill-rule="evenodd" d="M0 0v10.269h-1.7l-2.305-5.812-2.305 5.812h-1.7V0h1.643v5.956L-4.005 0l2.362 5.956V0z"/>
  </g>
  <g clip-path="url(#clipPath9989-5)" transform="matrix(4.8575 0 0 -4.8575 61.894 939.71)">
    <path fill-rule="evenodd" d="M0 0q.501 0 .99-.105a2.89 2.89 0 0 0 2.111-1.848c.447-1.249.675-2.565.675-3.892 0-.939-.28-1.857-.805-2.636A3.35 3.35 0 0 0 .665-9.927a4.8 4.8 0 0 0-1.597.046 3.41 3.41 0 0 0-2.591 2.364 8.83 8.83 0 0 0-.041 4.902A3.57 3.57 0 0 0-.509-.028 4 4 0 0 0-.001 0v3.834q-.462 0-.922-.05a7.41 7.41 0 0 1-6.332-5.363 12.64 12.64 0 0 1 .059-7.035 7.24 7.24 0 0 1 5.507-5.025 8.6 8.6 0 0 1 2.895-.083q.44.063.868.179a22.4 22.4 0 0 0-6.308-7.968l2.39-2.998a26.3 26.3 0 0 1 7.09 8.724 22.1 22.1 0 0 1 2.364 9.94c0 1.767-.304 3.52-.9 5.184a6.72 6.72 0 0 1-4.915 4.304A8.4 8.4 0 0 1 0 3.834z"/>
  </g>
  <g clip-path="url(#clipPath9983-6)" transform="matrix(4.8575 0 0 -4.8575 123.779 1056.434)">
    <path fill-rule="evenodd" d="m0 0 3.491 10.269h1.746L8.729 0H6.993L4.364 7.732l-1.11-3.266h2.22l.559-1.643H2.695L1.735 0z"/>
  </g>
  <g clip-path="url(#clipPath9977-8)" transform="matrix(4.8575 0 0 -4.8575 212.573 1056.434)">
    <path fill-rule="evenodd" d="M0 0v10.269h-1.7l-2.305-5.812-2.305 5.812h-1.7V0h1.643v5.956L-4.005 0l2.362 5.956V0z"/>
  </g>
  <g clip-path="url(#clipPath9971-4)" transform="matrix(4.8575 0 0 -4.8575 363.495 1035.304)">
    <path fill-rule="evenodd" d="M0 0c.361.976.545 2.009.545 3.05a9.67 9.67 0 0 1-3.229 7.215A8.8 8.8 0 0 1-.13 16.463a7.33 7.33 0 0 1-1.496 4.438 6.1 6.1 0 0 1-1.271 1.242 7.2 7.2 0 0 1-4.225 1.373 6.85 6.85 0 0 1-6.826-6.305l3.822-.303a3.013 3.013 0 0 0 3.004 2.775c.708 0 1.399-.225 1.972-.641q.27-.197.472-.463a3.5 3.5 0 0 0 .714-2.116 4.96 4.96 0 0 0-2.312-4.197.96.96 0 0 0-.513-.148h-1.929V8.284h1.929c.175 0 .347-.045.5-.13A5.84 5.84 0 0 0-3.288 3.05c0-.587-.105-1.171-.308-1.721A3.52 3.52 0 0 0-6.051-.865a4.474 4.474 0 0 0-2.277.045 3.56 3.56 0 0 0-2.235 1.896q-.193.406-.294.85a4 4 0 0 0-.099.893h-3.834a7.9 7.9 0 0 1 .763-3.386 7.4 7.4 0 0 1 4.644-3.939 8.3 8.3 0 0 1 2.283-.32c.663 0 1.323.08 1.967.239A7.35 7.35 0 0 1 0 0"/>
  </g>
  <g clip-path="url(#clipPath9965-6)" transform="matrix(4.8575 0 0 -4.8575 403.132 1014.563)">
    <path fill-rule="evenodd" d="M0 0h2.465a1.23 1.23 0 0 0 .871-2.104 1.24 1.24 0 0 0-.871-.361H.001v-1.643h2.464a2.876 2.876 0 0 1 0 5.751h-4.108V-8.626H0z"/>
  </g>
  <g clip-path="url(#clipPath9959-8)" transform="matrix(4.8575 0 0 -4.8575 475.46 1056.434)">
    <path fill-rule="evenodd" d="M0 0v10.269h-1.7l-2.305-5.812-2.305 5.812h-1.7V0h1.643v5.956L-4.005 0l2.362 5.956V0z"/>
  </g>
  <g clip-path="url(#clipPath9953-0)" transform="matrix(4.8575 0 0 -4.8575 231.518 340.976)">
    <path fill-rule="evenodd" d="M0 0v-5.751h-3.902V-16.02h-6.572v31.538L-22.202 0h11.725v-5.751h-20.33v3.903l20.333 26.905h6.572V0"/>
  </g>
  <g clip-path="url(#clipPath9947-7)" transform="matrix(4.8575 0 0 -4.8575 346.251 390.377)">
    <path fill-rule="evenodd" d="M0 0a6.89 6.89 0 0 0-6.606 4.941 34.5 34.5 0 0 0 0 19.487 6.887 6.887 0 0 0 13.212 0 34.5 34.5 0 0 0 0-19.487A6.885 6.885 0 0 0 .002 0v-6.572A13.45 13.45 0 0 1 12.91 3.086a41.07 41.07 0 0 1 0 23.198 13.456 13.456 0 0 1-25.82 0 41.07 41.07 0 0 1 0-23.198A13.45 13.45 0 0 1 0-6.572z"/>
  </g>
  <g fill="#be121e" clip-path="url(#clipPath9941-2)" transform="matrix(4.8575 0 0 -4.8575 497.173 319.02)">
    <path fill-rule="evenodd" d="M0 0a50.816 50.816 0 0 1-14.888 35.944 50.864 50.864 0 0 1-26.694 14.039 50.8 50.8 0 0 1-18.5 0 50.8 50.8 0 0 1-26.694-14.039 50.9 50.9 0 0 1-11.319-17.233 50.8 50.8 0 0 1-2.72-27.961 50.8 50.8 0 0 1 14.039-26.694 50.9 50.9 0 0 1 17.233-11.319 50.8 50.8 0 0 1 27.961-2.72 50.8 50.8 0 0 1 26.694 14.039c2.487 2.488 4.697 5.215 6.602 8.128A50.8 50.8 0 0 1-.849-9.25C-.265-6.098 0-2.999 0 0m-10.269 0a40.6 40.6 0 0 0-2.848-14.931 40.55 40.55 0 0 0-9.033-13.751 40.55 40.55 0 0 0-28.682-11.881 40.6 40.6 0 0 0-14.931 2.848A40.57 40.57 0 0 0-91.395 0a40.6 40.6 0 0 0 2.848 14.931 40.57 40.57 0 0 0 37.715 25.632 40.6 40.6 0 0 0 14.931-2.848 40.55 40.55 0 0 0 13.751-9.033A40.55 40.55 0 0 0-10.269 0"/>
  </g>
  <g clip-path="url(#clipPath3059-5)" transform="matrix(4.8575 0 0 -4.8575 -1172.002 2416.562)">
    <path fill-rule="evenodd" d="M294.05 327.24h6.846v-2.054h-6.846M290.17 354.97h6.846v-2.738h-6.846M290.17 295.07h6.846v-2.738h-6.846"/>
  </g>
</svg>
