<svg xmlns="http://www.w3.org/2000/svg" viewBox="0 0 1022 316.812" role="img" aria-labelledby="title">
  <title id="title">Verkehrszeichen R6-11 - Low Clearance Marker</title>
  <path d="M33.01 315.11h955.97c17.254 0 31.312-14.058 31.312-31.312V33.03c0-17.253-14.058-31.332-31.311-31.332H33.009c-17.253 0-31.311 14.08-31.311 31.332v250.768c0 17.254 14.058 31.312 31.311 31.312z" style="fill:#fff;fill-opacity:1;fill-rule:evenodd;stroke:#000;stroke-width:3.38666674;stroke-linecap:butt;stroke-linejoin:miter;stroke-miterlimit:11.47399998;stroke-opacity:1;stroke-dasharray:none"/>
  <path d="M33.143 308.864h955.714c13.934 0 25.21-11.275 25.21-25.21V33.164c0-13.934-11.276-25.21-25.21-25.21H33.143c-13.934 0-25.21 11.276-25.21 25.21v250.49c0 13.935 11.276 25.21 25.21 25.21" style="fill:#000;fill-opacity:1;fill-rule:evenodd;stroke:none"/>
  <path d="M33.01 296.259h955.97c6.896 0 12.482-5.432 12.482-12.203V32.752c0-6.761-5.586-12.193-12.481-12.193H33.009c-6.916 0-12.47 5.432-12.47 12.193v251.304c0 6.771 5.554 12.203 12.47 12.203" style="fill:#fff;fill-opacity:1;fill-rule:evenodd;stroke:none"/>
  <path d="M67.299 53.86h12.873v71.239h38.072v12.336H67.299zM156.584 137.703c-17.109 0-29.322-13.532-29.322-41.793 0-28.384 11.152-41.782 29.322-41.782 18.305 0 29.322 18.706 29.322 41.782 0 22.953-7.699 41.793-29.322 41.793m0-12.872c9.018 0 15.656-7.421 15.79-28.787.258-19.768-5.978-29.188-15.79-29.188-9.688 0-16.047 7.7-16.047 29.054 0 20.438 7.029 28.92 16.047 28.92M196.254 53.86h13.13l6.236 43.514L227.43 53.86h11.801l10.884 44.174 6.235-44.174h12.997l-11.533 83.575h-11.812l-13.006-52.532-13.13 52.532h-11.802zM381.452 74.823c-3.05-5.967-5.967-8.492-12.47-8.492-16.048 0-18.171 19.108-18.171 29.59 0 10.471 3.71 28.92 17.645 28.92 5.04 0 11.533-4.916 13.522-9.956l12.08 3.05c-4.65 11.544-11.544 19.5-24.675 19.5-22.952 0-31.445-22.55-31.97-42.05 0-17.511 5.967-41.525 29.981-41.525 12.069 0 20.026 4.514 25.601 16.057zM408.909 53.86h12.873v71.239h38.072v12.336h-50.945zM473.118 53.86h48.287v12.47h-35.95v20.696h24.808v13.8h-24.808v23.479h38.609v13.13h-50.946zM562.795 53.86h13.533l28.652 83.575h-14.594l-7.555-23.612h-26.539l-7.03 23.612h-14.46zm15.522 47.09h-16.985l9.028-25.065zM632.179 67v20.696h17.913c5.7 0 9.677-5.967 9.677-11.275 0-5.174-5.565-9.42-10.08-9.42zm-12.873-13.13h31.043c12.471 0 22.427 11.007 22.427 23.612 0 8.627-5.174 16.048-12.203 20.562l14.852 39.402h-14.192l-13.532-36.753h-15.656v36.753h-12.739zM713.765 53.86h13.533l28.652 83.575h-14.594l-7.555-23.612h-26.539l-7.03 23.612h-14.46zm15.522 47.09h-16.985l9.028-25.065zM770.286 53.86h11.142l31.713 54.521V53.86h13.264v83.575h-11.017l-31.971-53.861v53.861h-13.13zM885.173 74.823c-3.05-5.967-5.967-8.492-12.47-8.492-16.048 0-18.171 19.108-18.171 29.59 0 10.471 3.71 28.92 17.645 28.92 5.04 0 11.533-4.916 13.522-9.956l12.08 3.05c-4.65 11.544-11.544 19.5-24.675 19.5-22.952 0-31.445-22.55-31.97-42.05 0-17.511 5.967-41.525 29.981-41.525 12.07 0 20.026 4.514 25.602 16.057zM912.63 53.86h48.286v12.47h-35.95v20.696h24.809v13.8h-24.808v23.479h38.608v13.13H912.63zM457.978 262.825c-4.236 0-7.689-3.443-7.689-7.555 0-4.133 3.453-7.575 7.69-7.575 4.132 0 7.574 3.442 7.574 7.575 0 4.112-3.442 7.555-7.575 7.555M586.954 262.825v-54.77h13.821v3.495c3.154-2.103 9.801-3.494 13.306-3.494 6.122 0 10.667 1.742 14.171 6.472 2.103-3.504 11.203-6.472 16.274-6.472h1.227c8.575 1.216 19.077 8.925 19.077 17.665v37.104h-14.357v-33.25c0-4.72-3.844-8.574-9.276-8.574-6.648 0-8.915 2.978-8.915 9.626v32.198h-12.78v-32.198c0-4.906-3.67-10.502-9.451-10.502-5.772 0-9.276 3.854-9.276 9.45v33.25z" style="fill:#000;fill-opacity:1;fill-rule:evenodd;stroke:none"/>
  <path d="M358.21 262.825h77.217v-83.586h-77.216zm122.195 0h77.237v-83.586h-77.237z" style="fill:none;stroke:#000;stroke-width:1.3295418;stroke-linecap:butt;stroke-linejoin:miter;stroke-miterlimit:11.47399998;stroke-opacity:1;stroke-dasharray:6.63410488,6.63410488;stroke-dashoffset:0"/>
</svg>
