<svg xmlns="http://www.w3.org/2000/svg" viewBox="0 0 98.999 143" role="img" aria-labelledby="title">
  <title id="title">Verkehrszeichen R5-V103 - New Clearway Times (used in VIC)</title>
  <path d="M8.8 0A8.8 8.8 0 0 0 0 8.8v125.399A8.8 8.8 0 0 0 8.8 143h81.399a8.8 8.8 0 0 0 3.238-.619 8.799 8.799 0 0 0 5.562-8.182V8.8a8.8 8.8 0 0 0-2.578-6.223A8.8 8.8 0 0 0 90.199 0z" style="fill:#fee011;fill-opacity:1;fill-rule:evenodd;stroke:none"/>
  <path d="M8.8 1.32a7.48 7.48 0 0 0-6.955 4.727A7.5 7.5 0 0 0 1.32 8.8v125.4a7.48 7.48 0 0 0 7.48 7.48h81.399a7.46 7.46 0 0 0 5.289-2.191 7.5 7.5 0 0 0 2.191-5.29V8.8a7.48 7.48 0 0 0-7.48-7.48zm0 2.64h81.399a4.85 4.85 0 0 1 3.422 1.419 4.9 4.9 0 0 1 1.078 1.64c.237.602.34 1.209.34 1.782v125.4a4.85 4.85 0 0 1-1.418 3.422 4.84 4.84 0 0 1-3.422 1.418H8.8a4.83 4.83 0 0 1-3.422-1.418A4.83 4.83 0 0 1 3.96 134.2V8.8A4.84 4.84 0 0 1 8.8 3.96" style="fill:#000;fill-opacity:1;fill-rule:evenodd;stroke:none"/>
  <path d="M26.227 108.9H14.149v3.168h4.48V128.7h3.118v-16.63h4.48zM29.437 108.9h3.069v19.8h-3.07M37.043 128.7v-19.8h3.36l4.313 11.128 4.312-11.129h3.36v19.8H49.26v-11.728L44.716 128.7l-4.545-11.728V128.7zM69.002 112.068v-3.17H56.925V128.7h12.077v-3.168H60.04v-5.544h5.665v-3.17H60.04v-4.75zM71.593 123.687l2.902-1.132.003.015.003.014.004.015.003.014.014.06c.01.037.02.08.031.117a4.2 4.2 0 0 0 .81 1.542 4 4 0 0 0 1.58 1.156 3.83 3.83 0 0 0 3.235-.222 4 4 0 0 0 .676-.47 5 5 0 0 0 .196-.182q.058-.065.114-.135.055-.07.106-.144a2.67 2.67 0 0 0 .28-2.49 3.44 3.44 0 0 0-1.804-1.66 45 45 0 0 0-3.43-.856 4.66 4.66 0 0 1-3.467-3.095 6.22 6.22 0 0 1 .843-5.138c1.36-1.804 3.594-2.68 5.788-2.268a5.9 5.9 0 0 1 2.891 1.448 6.07 6.07 0 0 1 1.727 2.774l-3 .853a3 3 0 0 0-.619-1.019 2.9 2.9 0 0 0-1.07-.73 2.85 2.85 0 0 0-2.403.146c-1.106.585-1.593 1.934-1.123 3.112.251.437.674.743 1.16.84 1.36.237 2.7.583 4.007 1.032a5.74 5.74 0 0 1 2.28 1.55 5.9 5.9 0 0 1 1.417 2.87 6 6 0 0 1-.275 3.202 5.9 5.9 0 0 1-1.556 2.3 7 7 0 0 1-1.292.891 6.904 6.904 0 0 1-5.313.512 7 7 0 0 1-3.137-2.019 7.2 7.2 0 0 1-1.58-2.903" style="fill:#000;fill-opacity:1;fill-rule:evenodd;stroke:none"/>
  <path d="m27.188 49.188-.037.08-.036.078-.037.08-.037.08-.145.316a52 52 0 0 0-.83 1.937 52.525 52.525 0 0 0-2.558 8.175 52.56 52.56 0 0 0 0 23.131 52.5 52.5 0 0 0 3.68 10.746 52.6 52.6 0 0 0 22.311 4.97 52.56 52.56 0 0 0 22.312-4.97 52.6 52.6 0 0 0 3.68-33.877 52.6 52.6 0 0 0-3.68-10.746 52.59 52.59 0 0 0-44.306-.147l-.08.037-.079.037-.079.036z" style="fill:#fff;fill-opacity:1;fill-rule:evenodd;stroke:none"/>
  <path d="M28.681 50.681a50.6 50.6 0 0 0 0 41.637 50.6 50.6 0 0 0 41.636 0 50.6 50.6 0 0 0 0-41.637 50.59 50.59 0 0 0-41.636 0" style="fill:#c0111e;fill-opacity:1;fill-rule:evenodd;stroke:none"/>
  <path d="m56.968 80.4 5.788 2.291h.001a13 13 0 0 1-1.568 3.254 12.8 12.8 0 0 1-2.519 2.778 12.6 12.6 0 0 1-3.206 1.912 12.4 12.4 0 0 1-3.458.864 12.45 12.45 0 0 1-7.07-1.385 12.72 12.72 0 0 1-5.176-5.095 26.6 26.6 0 0 1-2.654-6.515 26.6 26.6 0 0 1-.864-6.998 26 26 0 0 1 .198-3.512c.144-1.173.366-2.338.666-3.486a26.6 26.6 0 0 1 2.654-6.514 12.9 12.9 0 0 1 5.101-5.036 12.6 12.6 0 0 1 10.392-.727 12.7 12.7 0 0 1 3.222 1.77c.995.752 1.867 1.64 2.596 2.626s1.295 2.045 1.707 3.13L56.961 62.1a6.64 6.64 0 0 0-2.274-3.014 6.47 6.47 0 0 0-3.525-1.254 6.45 6.45 0 0 0-3.624.916A6.6 6.6 0 0 0 45 61.532a18.8 18.8 0 0 0-1.91 4.812 19 19 0 0 0-.53 5.163 19 19 0 0 0 .53 5.161 18.8 18.8 0 0 0 1.91 4.812 6.47 6.47 0 0 0 2.606 2.864 6.32 6.32 0 0 0 7.292-.658 6.53 6.53 0 0 0 2.071-3.287" style="fill:#fff;fill-opacity:1;fill-rule:evenodd;stroke:none"/>
  <path d="M23.586 14.3h-3.401v19.8h3.4V20.521l8.94 13.58h3.4V14.3h-3.4v13.577zM55.398 30.635V34.1H40.845V14.3h14.553v3.465H44.263v3.881h5.904v3.465h-5.904v5.524zM66.905 14.3 63.76 26.417 61.58 14.3h-3.456l3.563 19.8h3.598l3.184-12.273L71.653 34.1h3.597l3.564-19.8h-3.457l-2.18 12.117L70.033 14.3z" style="fill:#000;fill-opacity:1;fill-rule:evenodd;stroke:none"/>
</svg>
