<svg xmlns="http://www.w3.org/2000/svg" viewBox="0 0 606 1106" role="img" aria-labelledby="title">
  <title id="title">Verkehrszeichen R4-205-N - State Speed Limit (used in NSW)</title>
  <g transform="translate(0 809)">
    <rect width="604" height="1104" x="1" y="-808" rx="62" ry="62" style="opacity:1;fill:#000;fill-opacity:1;fill-rule:nonzero;stroke:none;stroke-width:155.97280884;stroke-linecap:square;stroke-linejoin:round;stroke-miterlimit:4;stroke-dasharray:none;stroke-opacity:1"/>
    <rect width="600" height="1100" x="3" y="-806" rx="60" ry="60" style="opacity:1;fill:#fff;fill-opacity:1;fill-rule:nonzero;stroke:none;stroke-width:155.17359924;stroke-linecap:square;stroke-linejoin:round;stroke-miterlimit:4;stroke-dasharray:none;stroke-opacity:1"/>
    <circle cx="303" cy="-73" r="297" style="opacity:1;fill:#be121e;fill-opacity:1;fill-rule:nonzero;stroke:none;stroke-width:106.69789886;stroke-linecap:square;stroke-linejoin:round;stroke-miterlimit:4;stroke-dasharray:none;stroke-opacity:1"/>
    <circle cx="303" cy="-73" r="237" style="opacity:1;fill:#fff;fill-opacity:1;fill-rule:nonzero;stroke:none;stroke-width:85.14276886;stroke-linecap:square;stroke-linejoin:round;stroke-miterlimit:4;stroke-dasharray:none;stroke-opacity:1"/>
    <g aria-label="100" style="font-style:normal;font-variant:normal;font-weight:400;font-stretch:normal;font-size:345.82131958px;line-height:0;font-family:&quot;Roadgeek 2005 Series C&quot;;-inkscape-font-specification:&quot;Roadgeek 2005 Series C&quot;;letter-spacing:0;word-spacing:0;fill:#000;fill-opacity:1;stroke:none;stroke-width:8.64553261">
      <path d="M117.825-57.15v-190.202H103.3v-25.245q10.029-.691 15.908-4.841 6.225-4.15 10.029-11.412h22.132v231.7zM334.444-173.346q0 26.628-3.113 45.303-2.766 18.674-10.028 35.274-8.646 20.749-21.787 30.432Q286.72-53 267.009-53q-20.75 0-33.89-9.337-12.796-9.683-21.442-30.432-7.262-16.946-10.374-35.274-2.767-18.675-2.767-45.303 0-26.282 2.767-44.957 3.112-19.02 10.374-35.62 8.992-20.748 21.787-29.74Q246.605-293 267.009-293q20.057 0 32.853 9.337 12.795 8.992 21.44 30.432 3.459 8.646 5.88 17.292 2.766 8.645 4.15 18.328 1.728 9.337 2.42 20.404.692 10.72.692 23.861m-31.816 0q0-9.683-.691-17.637-.346-7.954-1.384-14.524-.691-6.917-2.075-13.141-1.383-6.225-3.112-12.45-4.496-15.562-11.412-22.478-6.57-6.917-16.945-6.917-21.441 0-29.395 28.703-4.15 13.142-5.88 26.629-1.382 13.14-1.382 32.507 0 9.337.345 17.29.692 7.609 1.384 14.525 1.037 6.571 2.42 13.142t3.113 13.487q7.954 28.703 29.395 28.703 10.374 0 16.945-6.917 6.916-6.916 11.412-21.786 2.075-6.917 3.458-13.142 1.383-6.57 2.075-13.487 1.038-6.916 1.383-14.524.346-7.954.346-17.983M512.7-173.346q0 26.628-3.113 45.303-2.766 18.674-10.028 35.274-8.646 20.749-21.787 30.432Q464.976-53 445.265-53q-20.75 0-33.89-9.337-12.796-9.683-21.442-30.432-7.262-16.946-10.374-35.274-2.767-18.675-2.767-45.303 0-26.282 2.767-44.957 3.112-19.02 10.374-35.62 8.992-20.748 21.787-29.74Q424.861-293 445.265-293q20.057 0 32.853 9.337 12.795 8.992 21.44 30.432 3.459 8.646 5.88 17.292 2.766 8.645 4.15 18.328 1.729 9.337 2.42 20.404.692 10.72.692 23.861m-31.816 0q0-9.683-.691-17.637-.346-7.954-1.384-14.524-.691-6.917-2.075-13.141-1.383-6.225-3.112-12.45-4.496-15.562-11.412-22.478-6.57-6.917-16.945-6.917-21.441 0-29.395 28.703-4.15 13.142-5.88 26.629-1.382 13.14-1.382 32.507 0 9.337.345 17.29.692 7.609 1.384 14.525 1.037 6.571 2.42 13.142t3.113 13.487q7.954 28.703 29.395 28.703 10.374 0 16.945-6.917 6.916-6.916 11.412-21.786 2.075-6.917 3.458-13.142 1.384-6.57 2.075-13.487 1.038-6.916 1.383-14.524.346-7.954.346-17.983" style="font-style:normal;font-variant:normal;font-weight:400;font-stretch:normal;line-height:0;font-family:&quot;Roadgeek 2005 Series C&quot;;-inkscape-font-specification:&quot;Roadgeek 2005 Series C&quot;;fill:#000;stroke:none;stroke-width:8.64553261" transform="translate(0 100)"/>
    </g>
    <g aria-label="STATE" style="font-style:normal;font-variant:normal;font-weight:400;font-stretch:normal;font-size:172.91065979px;line-height:0;font-family:&quot;Roadgeek 2005 Series D&quot;;-inkscape-font-specification:&quot;Roadgeek 2005 Series D&quot;;letter-spacing:0;word-spacing:0;fill:#000;fill-opacity:1;stroke:none;stroke-width:4.3227663">
      <path d="M162.697-648.447q0 7.954-2.94 14.698-2.939 6.743-8.472 11.758-4.841 4.322-11.412 6.743Q133.475-613 126.04-613q-15.043 0-25.763-7.954-10.548-8.127-16.427-21.44l17.464-6.399q3.631 8.3 10.029 12.796 6.397 4.323 14.697 4.323 8.127 0 12.968-4.842 5.015-5.014 5.015-12.277 0-5.706-3.112-9.337-2.94-3.63-7.781-6.052-4.842-2.593-10.72-4.495-5.707-1.902-11.413-4.15-2.594-1.038-6.398-2.94t-7.435-5.187q-3.458-3.458-6.052-8.473-2.42-5.014-2.42-12.276 0-8.473 2.766-14.352 2.767-6.052 7.435-9.683 4.842-3.804 11.412-5.533Q117.05-733 124.83-733q12.276 0 20.403 6.398 8.3 6.397 12.623 17.29l-16.254 4.842q-1.383-2.766-3.63-5.014-1.903-1.902-5.361-3.458-3.286-1.557-8.127-1.73-3.112-.172-6.57.52-3.286.518-5.88 2.074t-4.15 4.323q-1.556 2.594-1.21 6.57.346 5.36 4.669 8.3 4.323 2.767 10.547 4.842t13.314 4.323q7.263 2.075 13.315 6.224 6.051 3.977 10.028 10.894 4.15 6.743 4.15 18.155M216.734-714.671v99.596h-18.329v-99.597H171.95v-16.253h71.585v16.253zM328.802-615.075l-11.413-32.507h-36.138l-11.412 32.507H250.3l39.943-115.85h18.155l39.942 115.85zm-29.222-83.689-11.931 32.508h23.17zM400.452-714.671v99.596h-18.329v-99.597h-26.455v-16.253h71.585v16.253zM444.22-615.075v-115.85h68.3v18.329h-49.972v28.357h33.718v18.674h-33.718v31.816h53.602v18.674z" style="font-style:normal;font-variant:normal;font-weight:400;font-stretch:normal;line-height:0;font-family:&quot;Roadgeek 2005 Series D&quot;;-inkscape-font-specification:&quot;Roadgeek 2005 Series D&quot;;fill:#000;fill-opacity:1;stroke:none;stroke-width:4.3227663" transform="translate(3 -3)"/>
      <g aria-label="LIMIT" style="font-style:normal;font-variant:normal;font-weight:400;font-stretch:normal;font-size:179.10447693px;line-height:0;font-family:&quot;Roadgeek 2005 Series D&quot;;-inkscape-font-specification:&quot;Roadgeek 2005 Series D&quot;;letter-spacing:-.015875px;word-spacing:0;fill:#000;fill-opacity:1;stroke:none;stroke-width:19.35567093">
        <path d="M113.1-433v-120h18.985v102.269h55.522V-433ZM205.435-433v-120h19.343v120zM327.85-433v-69.493L300.09-433l-27.761-69.493V-433h-18.985v-120h18.985l27.76 67.343L327.852-553h18.985v120zM375.409-433v-120h19.343v120zM459.139-536.164V-433h-18.986v-103.164H412.75V-553h74.15v16.836z" style="font-style:normal;font-variant:normal;font-weight:400;font-stretch:normal;line-height:0;font-family:&quot;Roadgeek 2005 Series D&quot;;-inkscape-font-specification:&quot;Roadgeek 2005 Series D&quot;;letter-spacing:-.015875px;fill:#000;fill-opacity:1;stroke:none;stroke-width:19.35567093;stroke-opacity:1" transform="translate(3 -3)"/>
      </g>
    </g>
  </g>
</svg>
