<svg xmlns="http://www.w3.org/2000/svg" xmlns:xlink="http://www.w3.org/1999/xlink" viewBox="0 0 600 800" role="img" aria-labelledby="title">
  <title id="title">Verkehrszeichen R4-1[130] - 130&amp;nbsp;km/h Speed Limit (used in the NT)</title>
  <defs>
    <path id="a" d="M71.281 0H36.72v-196.8H21.602v-26.4c13.117-.8 22.16-6.402 27.117-16.8H71.28Zm0 0"/>
    <path id="b" d="M148.078-65.04q.001 29.518-18.719 49.321Q110.64 4.08 81.84 4.078c-19.198 0-35.038-6.277-47.519-18.84Q15.6-33.6 14.398-63.359H48Q49.2-48.481 58.68-39q9.48 9.48 23.16 9.48 14.402.001 24-10.082c6.398-6.718 9.601-15.199 9.601-25.437Q115.44-84 106.2-97.441q-9.24-13.437-21.96-13.438H67.44V-144H81.84q9.358 0 17.762-9.36c6.558-7.359 9.84-16.242 9.84-26.64q0-13.92-7.442-22.2-7.44-8.28-20.16-8.28-23.76 0-26.399 24.96l-33.601-4.082q2.4-24.238 19.32-39.359 16.92-15.117 40.68-15.117c17.281 0 31.68 5.957 43.2 17.879q17.28 17.877 17.28 43.558 0 29.522-21.84 54.72 27.598 24.96 27.598 62.882m0 0"/>
    <path id="c" d="M155.04-120.48q0 53.52-13.68 83.52-16.8 41.038-56.4 41.038-21.361 0-34.679-9.598c-8.883-6.402-16.36-16.878-22.441-31.44q-13.682-30.721-13.442-83.52 0-53.52 13.442-83.52 9.359-21.359 22.8-30.719c8.962-6.242 20.438-9.36 34.438-9.36q21.002-.001 34.082 9.36 13.08 9.357 22.2 31.68 13.68 30.72 13.68 82.559m-32.88 0q0-33.359-7.441-59.52-8.159-30.48-29.64-30.48c-14.317 0-24.36 9.84-30.118 29.52q-7.92 24.96-7.68 61.44 0 30.48 7.68 60.72 8.155 29.28 30 29.28 21.359 0 29.758-29.28 7.44-24.72 7.441-61.68m0 0"/>
  </defs>
  <path fill="#fff" stroke="#000" stroke-miterlimit="10" stroke-width=".3" d="M550 0c27.613 0 50 22.387 50 50v700c0 27.613-22.387 50-50 50H50c-27.613 0-50-22.387-50-50V50C0 22.387 22.387 0 50 0Zm0 0"/>
  <path fill="none" stroke="red" stroke-miterlimit="10" stroke-width="60" d="M567 400c0 147.46-119.54 267-267 267S33 547.46 33 400s119.54-267 267-267 267 119.54 267 267"/>
  <use xlink:href="#a" x="81.48" y="520"/>
  <use xlink:href="#b" x="179.16" y="520"/>
  <use xlink:href="#c" x="341.64" y="520"/>
</svg>
