<svg xmlns="http://www.w3.org/2000/svg" viewBox="0 0 233.156 349.062" role="img" aria-labelledby="title">
  <title id="title">Verkehrszeichen R6-3 - Bridge Load Limit</title>
  <path d="M24.08 348.224h184.908c12.841 0 23.326-12.256 23.326-23.34V24.187c0-12.841-10.485-23.34-23.326-23.34H24.08C11.334.847.835 11.346.835 24.187v300.697c0 11.084 10.499 23.34 23.245 23.34z" style="fill:#fff;fill-opacity:1;fill-rule:evenodd;stroke:#000;stroke-width:1.69333352;stroke-linecap:butt;stroke-linejoin:miter;stroke-miterlimit:11.47399998;stroke-opacity:1;stroke-dasharray:none"/>
  <path d="M24.08 345.186h184.908c11.18 0 20.288-10.88 20.288-20.302V24.187c0-11.18-9.108-20.288-20.288-20.288H24.08c-11.085 0-20.207 9.108-20.207 20.288v300.697c0 9.423 9.122 20.302 20.207 20.302" style="fill:#000;fill-opacity:1;fill-rule:evenodd;stroke:none"/>
  <path d="M24.08 339.006h184.908c7.842 0 14.122-8.128 14.122-14.122V24.19c0-7.845-6.28-14.121-14.122-14.121H24.08c-7.747 0-14.027 6.276-14.027 14.121v300.694c0 5.994 6.28 14.122 14.027 14.122" style="fill:#fff;fill-opacity:1;fill-rule:evenodd;stroke:none"/>
  <path d="M54.86 289.01c-1.472-2.646-2.844-4.216-5.98-4.216-7.45-.098-7.842 8.432-7.842 13.921 0 6.272 1.862 12.94 7.842 12.94 3.528 0 6.078-3.528 6.078-5.292v-2.452h-6.667v-6.078h12.647v8.04c0 6.96-5.39 11.469-12.256 11.469-10.29 0-13.723-9.804-13.723-18.726 0-8.724 2.156-19.9 13.723-19.9 5.197 0 10.1 2.942 11.568 8.234zM77.603 284.794v9.508h8.234c2.646 0 4.508-2.745 4.508-5.193 0-2.353-2.547-4.315-4.702-4.315zm-5.98-6.078h14.412c5.683 0 10.294 5.098 10.294 10.978 0 3.923-2.353 7.356-5.687 9.413l6.96 18.235h-6.667L84.76 300.38h-7.257v16.962h-5.88zM118.578 317.536c-7.94 0-13.529-6.273-13.529-19.41 0-13.039 5.098-19.311 13.53-19.311 8.43 0 13.528 8.625 13.528 19.31 0 10.686-3.531 19.41-13.529 19.41m0-5.98c4.216 0 7.253-3.432 7.352-13.331 0-9.12-2.843-13.53-7.352-13.53-4.508 0-7.45 3.627-7.45 13.43 0 9.508 3.235 13.431 7.45 13.431M139.46 307.732l5.488-1.961c2.353 4.215 4.509 5.489 8.922 5.489 2.547 0 5.588-2.646 5.588-5.193 0-3.725-2.254-5.687-9.902-6.47-1.175-.099-3.726-.886-5.687-2.55-1.665-1.373-3.136-3.528-3.136-6.763 0-7.06 5.785-11.568 12.156-11.568 5.49 0 9.314 2.745 11.176 8.428l-5.98 1.277c-1.079-2.942-3.53-3.725-5.883-3.824-2.94-.198-5.49 2.646-5.39 5.295.098 1.566 1.371 3.037 2.842 3.627 2.452 1.076 5.782.49 8.432 1.566 3.92 1.961 7.352 5.196 7.352 10.001 0 7.352-5.098 12.252-12.841 12.252-5.588 0-11.176-4.508-13.138-9.606M172.3 307.732l5.488-1.961c2.354 4.215 4.509 5.489 8.922 5.489 2.547 0 5.588-2.646 5.588-5.193 0-3.725-2.254-5.687-9.902-6.47-1.175-.099-3.726-.886-5.687-2.55-1.665-1.373-3.136-3.528-3.136-6.763 0-7.06 5.785-11.568 12.157-11.568 5.489 0 9.313 2.745 11.176 8.428l-5.98 1.277c-1.08-2.942-3.531-3.725-5.884-3.824-2.939-.198-5.49 2.646-5.39 5.295.098 1.566 1.371 3.037 2.843 3.627 2.451 1.076 5.782.49 8.43 1.566 3.92 1.961 7.353 5.196 7.353 10.001 0 7.352-5.098 12.252-12.841 12.252-5.588 0-11.176-4.508-13.138-9.606M49.37 155.18h5.98v32.94h17.547v5.686H49.37z" style="fill:#000;fill-opacity:1;fill-rule:evenodd;stroke:none"/>
  <path d="M82.112 193.806h5.98V155.18h-5.98z" style="fill:#000;fill-opacity:1;fill-rule:nonzero;stroke:none"/>
  <path d="M101.521 155.18h5.782l9.314 22.056 8.431-22.056h6.371v38.626h-5.782v-22.352l-9.02 22.352-9.017-22.352v22.352h-6.079z" style="fill:#000;fill-opacity:1;fill-rule:evenodd;stroke:none"/>
  <path d="M144.853 193.806h5.98V155.18h-5.98z" style="fill:#000;fill-opacity:1;fill-rule:nonzero;stroke:none"/>
  <path d="M160.34 155.18h23.527v5.687h-8.922v32.939h-5.98v-32.939h-8.625zM153.785 250.377V237.73h-3.922v-5.291h3.922v-5.98l5.881-1.767v7.747h3.726v5.291h-3.726v10.196c0 .786 1.277 2.451 1.863 2.451 1.08 0 2.942-.882 3.824-1.47l-1.08 5.587c-1.174.688-2.744 1.08-4.018 1.08-2.843 0-6.47-2.06-6.47-5.197M50.45 93.412h5.98v32.94h17.547v5.683H50.45zM93.778 132.232c-7.941 0-13.53-6.272-13.53-19.41 0-13.038 5.099-19.31 13.53-19.31s13.529 8.625 13.529 19.31c0 10.686-3.531 19.41-13.529 19.41m0-5.98c4.216 0 7.253-3.432 7.352-13.331 0-9.12-2.844-13.529-7.352-13.529s-7.45 3.627-7.45 13.43c0 9.508 3.234 13.43 7.45 13.43M127.405 93.412h6.272l13.236 38.623h-6.766l-3.429-10.88h-12.35l-3.236 10.88h-6.667zm7.158 21.763h-7.846l4.12-11.567zM156.911 93.412h10.88c8.53 0 15 8.333 15 20.098 0 7.842-5.098 18.525-14.312 18.525H156.91zm6.272 32.35h4.414c6.96 0 9.214-8.332 9.214-12.252 0-5.493-2.254-14.118-9.214-14.118h-4.414zM23.586 31.645H39.27c4.904 0 9.606 5.097 9.606 9.606 0 4.413-1.862 6.568-6.078 9.119 4.413 2.35 6.766 4.703 6.766 9.8 0 5.197-4.215 10.1-10.294 10.1H23.586zm5.687 15.882h8.135c2.06 0 4.413-2.551 4.706-4.706.197-.198.197-1.179.197-1.57 0-1.863-1.372-3.038-3.531-3.038h-9.507zm0 17.056h10.685c1.665 0 3.528-3.235 3.528-4.903 0-3.235-2.547-5.782-5.88-5.782h-8.333zM66.328 37.723v9.507h8.234c2.646 0 4.509-2.744 4.509-5.193 0-2.353-2.547-4.314-4.703-4.314zm-5.98-6.078H74.76c5.683 0 10.294 5.097 10.294 10.978 0 3.923-2.353 7.355-5.687 9.412l6.96 18.235H79.66L73.486 53.31H66.23V70.27h-5.881z" style="fill:#000;fill-opacity:1;fill-rule:evenodd;stroke:none"/>
  <path d="M96.618 70.27h5.98V31.645h-5.98z" style="fill:#000;fill-opacity:1;fill-rule:nonzero;stroke:none"/>
  <path d="M116.028 31.645h10.88c8.53 0 15 8.332 15 20.097 0 7.843-5.098 18.528-14.313 18.528h-11.567zm6.272 32.35h4.413c6.96 0 9.215-8.333 9.215-12.253 0-5.492-2.254-14.118-9.215-14.118H122.3zM169.258 41.939c-1.47-2.646-2.843-4.216-5.98-4.216-7.45-.099-7.842 8.431-7.842 13.92 0 6.273 1.863 12.94 7.843 12.94 3.528 0 6.078-3.527 6.078-5.291V56.84h-6.667v-6.078h12.647v8.04c0 6.96-5.394 11.468-12.256 11.468-10.29 0-13.723-9.804-13.723-18.725 0-8.724 2.156-19.9 13.723-19.9 5.197 0 10.1 2.942 11.568 8.233zM186.022 31.645h22.254v5.785h-16.567v9.507h11.469v6.372h-11.469v10.883h17.84v6.078h-23.527z" style="fill:#000;fill-opacity:1;fill-rule:evenodd;stroke:none"/>
  <path d="M70.844 255.57h64.611v-38.629H70.844z" style="fill:none;stroke:#000;stroke-width:.97366673000000004;stroke-linecap:butt;stroke-linejoin:miter;stroke-miterlimit:11.47399998;stroke-opacity:1;stroke-dasharray:4.8630421100000003,4.8630421100000003;stroke-dashoffset:0"/>
</svg>
