<svg xmlns="http://www.w3.org/2000/svg" viewBox="0 0 1200 412.5" role="img" aria-labelledby="title">
  <title id="title">Verkehrszeichen R9-V101-2-VIC - Buses, Taxis, VHA/B/C Excepted (used in VIC)</title>
  <path d="M22.486 137.523v.053A22.93 22.924 0 0 0 .163 160.48a22.93 22.924 0 0 0 .009.24H.09v79.727a22.93 22.924 0 0 0-.002.074 22.93 22.924 0 0 0 .002.075v1.46h.053a22.93 22.924 0 0 0 22.875 21.39 22.93 22.924 0 0 0 1.497-.054h317.24a22.93 22.924 0 0 0 1.761.072 22.93 22.924 0 0 0 22.876-21.408h.088V161.68a22.93 22.924 0 0 0 .042-1.183 22.93 22.924 0 0 0-22.923-22.924v-.05z" style="fill:#fff;fill-opacity:1;stroke-width:1.75749" transform="matrix(3.27217 0 0 3.273 .143 -449.795)"/>
  <path fill-rule="evenodd" d="M701.763 180.33V89.99h-18.981V75.26h53.339v14.73h-19.3v90.34M783.9 75.26h-15.71l-25.857 105.07h15.709l7.196-29.125 3.605-15.061 7.196-29.125 7.196 29.125h-14.392l-3.605 15.06h21.601l7.197 29.125h15.709M815.957 180.33l22.905-54.99-20.937-50.08h16.029l12.769 30.775L859.81 75.26h16.029l-20.937 50.08 22.905 54.988h-16.041l-15.044-35.67-14.725 35.67M892.533 180.33V75.26h14.725v105.07M924.922 151.524c0 3.606.652 7.198 2.288 11.136 1.636 3.593 4.257 7.198 7.529 10.139 3.272 2.953 6.877 4.91 10.8 6.226 3.925.972 7.849 1.304 11.785.972 3.592-.32 7.197-1.304 11.12-3.273 3.605-1.956 6.877-4.577 9.485-8.183 2.62-3.273 4.256-7.198 5.24-11.123.652-3.925.652-7.85 0-11.455-.984-5.894-3.604-11.456-7.196-16.698-3.924-5.229-8.512-9.154-14.073-12.107l-8.18-4.577c-5.24-2.954-8.513-8.515-8.513-14.41 0-2.94 1.317-5.88 3.272-8.182 2.301-1.956 5.241-3.273 8.513-3.273 2.94 0 5.893 1.317 8.18 3.273 2.289 2.302 3.605 5.242 3.605 8.183v.984h15.044v-.984c0-6.866-2.94-13.744-7.848-18.654-5.24-4.91-12.104-7.53-18.98-7.53-3.273 0-6.545.665-9.817 1.969-3.605 1.304-6.545 3.273-9.165 5.561-2.62 2.621-4.908 5.894-6.212 9.167-1.317 3.273-1.636 6.546-1.636 9.487 0 5.242 1.304 10.803 4.256 15.713 2.94 4.91 6.864 8.834 11.772 11.455l8.18 4.59c7.197 3.925 12.438 10.79 14.074 18.973.652 3.273 0 7.53-2.62 10.804-2.62 3.605-6.545 5.242-10.137 5.561-3.604.333-7.528-.652-10.8-3.592-3.272-2.621-4.909-6.546-4.909-10.152v-4.257h-15.057zM90.52 337.434 72.855 232.697h13.74l10.801 62.84 10.801-62.84h14.06L104.26 337.434M136.662 337.434V232.697h14.073v42.882h17.333v-42.882h13.753v104.737h-13.753v-48.111h-17.333v48.11M196.546 337.434h14.06l5.24-26.185h17.997l5.56 26.185h13.74l-21.92-104.737h-12.756zm34.357-39.609h-12.117l6.225-29.457z"/>
  <path fill-rule="evenodd" d="m233.843 311.25 5.56 26.184h13.74l-21.92-104.737h-12.756l-21.921 104.737h14.06l5.24-26.185zl-2.94-13.424h-12.117l6.225-29.457 5.892 29.457zM256.416 337.434l89.013-104.737h14.725l-89.013 104.737M409.556 281.46c2.288-2.289 3.924-5.23 4.908-8.502a76.8 76.8 0 0 0 0-24.548 20.5 20.5 0 0 0-6.864-10.803c-3.272-2.94-7.528-4.577-11.784-5.242h-9.165v13.424h9.497c2.607 0 4.908 1.637 5.228 4.258.984 6.866.651 13.744-.32 20.622 0 .972-.665 2.289-1.636 2.94-.665.653-.984.985-1.636.985-.333.32-.665.32-.984.32H386.65v-42.549h-15.045v105.069h14.725v-49.428h9.817c2.288 0 4.243 1.637 4.908 3.606 3.592 9.167 3.924 19.305.971 28.805-.652 2.288-2.607 3.925-5.228 3.925h-10.468v13.092h9.484c4.576 0 9.165-1.637 12.757-4.258 3.604-2.94 6.224-7.198 7.209-11.455 1.955-11.123 1.303-22.26-1.969-33.05-.652-2.621-2.288-5.242-4.256-7.21M421.993 337.434l89-104.737h15.057l-89 104.737M537.503 321.4c-3.605-23.895-3.605-48.442 0-72.67.984-4.91 3.272-9.487 7.196-12.76 3.605-3.273 8.513-4.91 13.089-4.91 4.908 0 9.816 1.637 13.42 4.91 3.925 3.273 6.213 7.85 7.197 12.76v1.636c.32.333.32.665.32 1.317h-13.409c0-.332-.332-.652-.332-.652-.32-3.605-3.592-6.226-7.196-6.226-3.273 0-6.545 2.62-6.877 6.226-3.592 22.579-3.592 45.49 0 68.401.332 3.605 3.604 6.214 6.877 6.214 3.604 0 6.876-2.609 7.196-6.214.332-1.304.332-2.289.652-3.273 0-.984.332-1.969.332-2.94h13.421c-.332 2.608-.665 5.561-.984 8.182-.984 4.91-3.272 9.487-7.196 12.76-3.605 3.273-8.513 4.909-13.421 4.909-4.576 0-9.485-1.636-13.09-4.91-3.923-3.272-6.211-7.85-7.195-12.76M684.418 337.434V232.697h38.614v13.425H697.84v27.488h16.029v13.744h-16.029v36.655h26.497v13.425M734.152 337.766l17.997-54.005-17.012-50.731h14.073l9.816 29.457 9.817-29.457h14.072l-16.693 50.731 17.678 54.005h-14.073l-10.801-32.73-10.8 32.73M800.912 321.4c-3.924-23.895-3.924-48.442 0-72.67.652-4.91 3.272-9.487 6.864-12.76 3.937-3.273 8.513-4.91 13.421-4.91s9.817 1.637 13.421 4.91c3.592 3.273 6.212 7.85 6.864 12.76.332.665.332.984.332 1.636 0 .333 0 .985.32 1.317h-13.74v-.652c-.653-3.605-3.592-6.226-7.197-6.226s-6.544 2.62-7.196 6.226c-3.605 22.579-3.605 45.49 0 68.401.652 3.605 3.592 6.214 7.196 6.214 3.605 0 6.544-2.609 7.196-6.214 0-.984.333-2.289.333-3.273.319-.984.319-1.969.651-2.94h13.421c-.332 2.608-.664 5.561-1.316 8.182-.652 4.91-3.272 9.487-6.864 12.76-3.604 3.273-8.513 4.909-13.421 4.909s-9.484-1.636-13.421-4.91c-3.592-3.272-6.212-7.85-6.864-12.76M862.751 337.434V232.697h38.614v13.425h-25.193v27.488h16.029v13.744h-16.029v36.655h26.497v13.425M957.644 283.761c1.968-2.953 3.924-5.894 4.908-9.499 1.317-3.593 1.969-7.85 1.969-11.775 0-3.938-.652-7.863-1.969-11.788-.984-3.273-2.94-6.546-4.908-9.167-2.288-2.94-4.908-5.23-8.18-6.866-2.62-1.317-5.56-1.969-8.833-1.969h-7.196v13.425h7.196c.985 0 1.636.32 2.288.652 1.317.652 2.62 1.636 3.605 2.94 1.304 1.637 1.955 3.273 2.62 5.242.971 2.289 1.304 4.91 1.304 7.53 0 2.609-.333 5.23-1.304 7.519-.665 1.968-1.316 3.937-2.62 5.241-.984 1.305-2.288 2.289-3.605 2.941-.652.332-1.303.665-2.288.665h-7.196v-46.155h-14.073v104.737h14.073v-44.838h7.196c3.272 0 6.212-.985 8.833-2.289 3.272-1.636 5.892-3.937 8.18-6.546M984.154 337.434v-91.312h-13.089v-13.425h39.586v13.425h-13.09v91.312M1025.375 337.434V232.697h38.614v13.425h-25.193v27.488h15.71v13.744h-15.71v36.655h26.178v13.425M1095.075 245.457h7.86c1.637.984 3.593 1.969 4.91 3.273 1.303 1.636 2.287 3.273 2.939 5.242 3.272 20.942 2.94 41.897-.332 62.84-.32 3.924-3.592 7.53-7.848 7.53h-7.529v13.092h7.529c5.892 0 11.12-1.97 15.376-5.894 3.924-3.925 6.225-9.167 6.545-14.729 3.272-20.942 3.272-42.217-.32-62.84-.665-5.56-2.953-10.47-6.877-14.395-3.924-3.938-9.164-6.227-14.392-6.879h-20.95v104.737h13.089z"/>
  <path fill="none" stroke="#000" stroke-linejoin="bevel" stroke-miterlimit="1.414" stroke-width=".24" d="M.12 160.42a22.87 22.87 0 0 1 6.7-16.2c4.3-4.3 10.1-6.698 16.202-6.698M23.022 137.522H343.62M343.62 137.522c6 0 11.902 2.398 16.102 6.699 4.3 4.3 6.8 10.101 6.8 16.199M366.522 160.42v80.102M366.522 240.522c0 6.101-2.5 11.898-6.8 16.199-4.2 4.3-10.102 6.699-16.102 6.699M343.62 263.42H23.022M23.022 263.42a22.85 22.85 0 0 1-16.203-6.7A22.86 22.86 0 0 1 .12 240.523M.12 240.522V160.42" transform="matrix(3.27217 0 0 3.273 .143 -449.795)"/>
  <path fill-rule="evenodd" d="M1124.525 11.437c7.528 0 15.376 1.317 23.237 4.59 7.848 3.273 15.377 7.85 21.589 14.076 6.224 6.546 11.133 13.745 14.405 21.595 2.94 7.863 4.256 16.045 4.256 23.563v262.173c0 7.53-1.316 15.713-4.256 23.563-3.272 7.862-8.18 15.38-14.405 21.607-6.212 6.213-13.74 11.123-21.589 14.076-7.86 3.273-15.709 4.577-23.237 4.577H75.475c-7.528 0-15.708-1.304-23.57-4.577-7.847-2.953-15.376-7.863-21.588-14.076-6.225-6.227-11.133-13.745-14.073-21.607-3.272-7.85-4.576-16.033-4.576-23.563V75.26c0-7.518 1.304-15.7 4.576-23.563 2.94-7.85 7.848-15.049 14.073-21.595 6.212-6.226 13.74-10.803 21.589-14.076 7.86-3.273 16.04-4.59 23.57-4.59zm0 22.592H75.475c-4.908 0-10.148.984-15.057 2.94-5.24 1.969-10.148 4.91-14.072 9.167-4.257 3.925-7.197 8.835-9.165 14.077-1.956 4.91-2.94 10.138-2.94 15.048v262.173c0 4.909.984 10.151 2.94 15.38 1.968 4.91 4.908 9.82 9.165 13.744 3.924 4.258 8.832 7.211 14.072 9.167 4.909 2.289 10.15 2.954 15.057 2.954h1049.05c4.588 0 9.816-.665 15.057-2.954 5.227-1.956 9.816-4.91 14.072-9.167 3.925-3.925 6.864-8.834 9.152-13.744 1.969-5.229 2.953-10.471 2.953-15.38V75.26c0-4.91-.984-10.139-2.953-15.048-2.288-5.242-5.227-10.152-9.152-14.077-4.256-4.257-8.845-7.198-14.072-9.167-5.241-1.956-10.469-2.94-15.057-2.94"/>
  <path fill-rule="evenodd" d="M270.821 114.87c2.288-6.88 2.94-14.397 1.304-21.275-.984-4.91-3.924-9.82-8.18-13.092-4.576-3.606-9.817-5.242-14.725-5.242h-18.317v14.728h18.649-.332c1.636 0 3.605.665 5.24 1.97 1.637 1.303 2.62 2.94 2.94 4.576.985 5.575.333 11.788-2.288 17.03-1.303 2.608-4.256 4.245-7.196 4.245h-17.012V75.26h-15.058v105.07h15.058v-47.792h14.06c1.316 0 2.952.333 3.936 1.317 4.909 2.621 8.18 6.866 9.817 11.775a19.43 19.43 0 0 1-1.636 15.394c-1.317 2.608-4.256 4.244-7.529 4.244h-18.648v15.061h18.648c4.257 0 8.5-1.304 12.437-3.605 3.592-1.956 6.544-5.23 8.5-8.835 5.56-10.138 5.56-21.926.332-32.397-2.288-3.925-5.56-7.53-9.497-9.82 4.59-2.288 7.861-6.226 9.497-10.803M293.075 73.624h15.044v77.9c0 3.273.984 6.879 3.924 9.82 2.953 2.953 6.544 3.924 10.149 3.924s7.196-1.304 9.816-3.925 4.257-6.213 4.257-9.819v-77.9h15.044v77.9a25.3 25.3 0 0 1-2.288 10.471c-1.304 3.606-3.592 6.879-6.212 9.82-2.953 2.953-6.225 4.909-9.817 6.226-3.604 1.636-7.528 2.288-10.8 2.288-3.605 0-7.196-.652-10.8-2.288-3.593-1.317-6.865-3.273-9.817-6.227-2.94-2.94-5.228-6.213-6.545-9.819-1.304-3.592-1.955-7.198-1.955-10.47zM368.986 151.524c0 3.606.652 7.198 2.288 11.136 1.636 3.593 4.257 7.198 7.529 10.139 3.272 2.953 6.864 4.91 10.8 6.226 3.925.972 7.849 1.304 11.773.972a27.2 27.2 0 0 0 10.8-3.273c3.924-1.956 7.197-4.577 9.817-8.183 2.62-3.273 4.256-7.198 5.24-11.123.652-3.925.652-7.85 0-11.455-.984-5.894-3.604-11.456-7.209-16.698-3.924-5.229-8.5-9.154-14.06-12.107l-8.18-4.577c-5.24-2.954-8.513-8.515-8.513-14.41 0-2.607.984-5.88 3.272-8.182 2.62-2.288 5.56-3.273 8.513-3.273 2.608 0 5.88.985 8.18 3.273 2.288 2.302 3.592 5.575 3.592 8.183v.984h15.057v-.984c0-6.866-2.952-13.744-7.86-18.654-5.228-4.91-12.105-7.53-18.969-7.53-3.272 0-6.544.665-10.149 1.969-3.272 1.304-6.212 3.273-8.832 5.561-2.62 2.621-4.908 5.894-6.225 9.167-1.304 3.273-1.636 6.546-1.636 9.487 0 5.242 1.317 10.803 4.256 15.713 2.953 4.91 6.877 8.834 11.785 11.455l8.18 4.59c7.197 3.925 12.438 10.79 14.074 18.973.652 3.273 0 7.53-2.62 10.804-2.62 3.605-6.545 5.242-10.15 5.561-3.591.333-7.528-.652-10.8-3.592-3.272-2.621-4.908-6.546-4.908-10.152v-4.257h-15.045zM445.55 180.33V75.26h52.035v14.73h-36.978v26.183h22.573v14.729h-22.573v34.366h38.614v15.061M511.645 151.524c0 3.606.665 7.198 2.3 11.136 1.637 3.593 4.244 7.198 7.517 10.139 3.272 2.953 6.876 4.91 10.8 6.226 3.924.972 7.861 1.304 11.785.972a27.2 27.2 0 0 0 10.8-3.273c3.925-1.956 7.197-4.577 9.817-8.183 2.608-3.273 4.244-7.198 5.228-11.123.652-3.925.652-7.85 0-11.455-.984-5.894-3.591-11.456-7.196-16.698-3.924-5.229-8.832-9.154-14.073-12.107l-8.18-4.577c-5.228-2.954-8.5-8.515-8.5-14.41 0-2.607.971-5.88 3.272-8.182 2.607-2.288 5.56-3.273 8.5-3.273 2.62 0 5.892.985 8.18 3.273 2.288 2.302 3.605 5.575 3.605 8.183v.984h15.044v-.984c0-6.866-2.94-13.744-7.848-18.654-5.24-4.91-12.104-7.53-18.981-7.53-3.272 0-6.544.665-10.136 1.969-3.272 1.304-6.225 3.273-8.845 5.561-2.608 2.621-4.909 5.894-6.212 9.167-1.304 3.273-1.636 6.546-1.636 9.487 0 5.242 1.303 10.803 4.256 15.713 2.94 4.91 6.864 8.834 11.772 11.455l8.18 4.59c7.21 3.925 12.437 10.79 14.073 18.973.652 3.273 0 7.53-2.62 10.804-2.607 3.605-6.544 5.242-10.136 5.561-3.604.333-7.528-.652-10.8-3.592-3.273-2.621-4.909-6.546-4.909-10.152v-4.257h-15.057z"/>
</svg>
