<svg xmlns="http://www.w3.org/2000/svg" viewBox="0 0 602.437 677.094" role="img" aria-labelledby="title">
  <title id="title">Verkehrszeichen R6-33 - Overall Length Limit</title>
  <path d="M46.77 675.39h508.703c24.917 0 45.267-23.772 45.267-45.254V46.97c0-24.91-20.35-45.26-45.267-45.26H46.77c-24.726 0-45.077 20.35-45.077 45.26v583.167c0 21.482 20.35 45.254 45.077 45.254z" style="fill:#fff;fill-opacity:1;fill-rule:evenodd;stroke:#000;stroke-width:3.386667;stroke-linecap:butt;stroke-linejoin:miter;stroke-miterlimit:22.9260006;stroke-opacity:1;stroke-dasharray:none"/>
  <path d="M46.77 669.502h508.703c21.68 0 39.372-21.107 39.372-39.359V46.976c0-21.68-17.693-39.365-39.372-39.365H46.77C25.28 7.61 7.589 25.296 7.589 46.976v583.167c0 18.252 17.692 39.359 39.18 39.359" style="fill:#000;fill-opacity:1;fill-rule:evenodd;stroke:none"/>
  <path d="M46.77 657.52h508.703c15.212 0 27.384-15.784 27.384-27.377V46.97c0-15.212-12.172-27.377-27.384-27.377H46.77c-15.028 0-27.2 12.165-27.2 27.377v583.174c0 11.593 12.172 27.377 27.2 27.377" style="fill:#fff;fill-opacity:1;fill-rule:evenodd;stroke:none"/>
  <path d="M74.188 160.492c-4.71.02-9.017-.872-12.901-2.665-3.899-1.792-7.259-4.573-10.087-8.355-2.835-3.776-5.016-8.635-6.556-14.585q-2.322-8.916-2.345-21.36c.02-8.144.736-15.17 2.181-21.072 1.458-5.916 3.558-10.782 6.311-14.585 2.753-3.81 6.1-6.645 10.025-8.478q5.9-2.76 13.372-2.74c4.123.02 7.858.797 11.204 2.351 3.34 1.547 6.277 3.749 8.82 6.577 2.548 2.842 4.688 6.202 6.4 10.1 1.717 3.885 3.011 8.172 3.884 12.888.872 4.696 1.315 9.691 1.315 14.96.02 3.775-.183 7.558-.559 11.32a76 76 0 0 1-1.942 10.898c-.906 3.489-2.14 6.747-3.694 9.739-1.547 2.978-3.49 5.602-5.82 7.844-2.338 2.256-5.125 4-8.363 5.255-3.237 1.247-6.985 1.894-11.245 1.908m0-14.271c2.849.019 5.33-.6 7.436-1.834 2.126-1.233 3.884-3.148 5.288-5.765 1.397-2.624 2.44-6.005 3.135-10.162.689-4.137 1.036-9.119 1.036-14.932.02-10.673-1.37-18.708-4.144-24.113-2.78-5.404-7.026-8.117-12.75-8.13-2.925-.02-5.48.572-7.682 1.758-2.208 1.192-4.048 3.06-5.54 5.63q-2.229 3.842-3.354 9.984c-.756 4.11-1.131 9.057-1.131 14.87.02 7.422.709 13.563 2.079 18.395 1.383 4.832 3.387 8.43 6.024 10.775 2.631 2.365 5.82 3.537 9.603 3.524M146.008 158.775l-29-90.317h14.906l19.696 61.501 19.063-61.501h14.094L157.3 158.775zM200.483 68.458h51.762v14.448h-37.757v22.218h26.376v14.094h-26.376v25.47h41.104v14.087h-55.11zM286.131 82.545v22.13h19.513c1.567-.02 3.012-.375 4.334-1.057a11.4 11.4 0 0 0 3.469-2.726 13 13 0 0 0 2.303-3.803c.539-1.39.825-2.8.825-4.246-.02-1.431-.327-2.774-.96-4.007a10.9 10.9 0 0 0-2.577-3.278 12.5 12.5 0 0 0-3.66-2.202 11.9 11.9 0 0 0-4.273-.81zM272.31 68.458h33.606q3.996.028 7.633 1.336a24.6 24.6 0 0 1 6.659 3.72 26 26 0 0 1 5.282 5.596 26.5 26.5 0 0 1 3.475 6.959c.832 2.515 1.24 5.132 1.254 7.858-.019 2.78-.36 5.295-1.042 7.51-.675 2.215-1.622 4.198-2.842 5.964a25.9 25.9 0 0 1-4.28 4.784 41.5 41.5 0 0 1-5.296 3.96l16.262 42.63h-14.817l-14.64-39.563h-17.433v39.563H272.31zM374.846 68.458l-30.532 90.228h15.082l8.226-25.469h28.904l8.764 25.469h14.64l-30.901-90.228zm16.35 50.672h-18.429l9.038-26.92zM435.557 68.458h13.822v77.04h41.287v13.277h-55.109zM505.026 68.458h13.821v77.04h41.288v13.277h-55.11zM162.726 368.72h13.699v76.366h40.926v13.16h-54.625zM231.588 458.247h14.06V368.72h-14.06zM266.333 368.72h13.521l21.489 51.75 19.976-51.75h14.414v89.527h-13.876V406.32l-20.33 51.926-20.869-51.926v51.926h-14.325zM356.424 458.247h14.06V368.72h-14.06zM385.076 368.72h54.625v13.161h-20.507v76.366h-13.522V381.88h-20.596zM93.196 219.083h13.699v76.366h40.926v13.16H93.196zM162.058 219.083h51.313v14.326h-37.43v22.02h26.144v13.965H175.94v25.251h40.742v13.965h-54.625zM233.251 219.083h11.818l34.124 58.278v-58.278h14.237v89.527h-12.09l-34.118-57.835v57.835h-13.971zM354.857 241.908c-1.057-2.072-2.208-3.864-3.462-5.37a13.5 13.5 0 0 0-4.45-3.524c-1.698-.838-3.742-1.268-6.148-1.315-2.835.034-5.255.586-7.238 1.676-1.983 1.104-3.626 2.576-4.907 4.457-1.288 1.881-2.304 4-3.047 6.386a46 46 0 0 0-1.615 7.436c-.327 2.576-.552 5.132-.627 7.64-.089 2.501-.13 4.818-.116 6.965 0 2.938.178 5.861.566 8.758.375 2.896.988 5.643 1.833 8.226.852 2.59 1.99 4.873 3.408 6.89a15.7 15.7 0 0 0 5.193 4.716c2.059 1.145 4.478 1.732 7.265 1.759a11.8 11.8 0 0 0 4.342-.88 15.2 15.2 0 0 0 3.823-2.269 18.6 18.6 0 0 0 3.06-3.06c.866-1.104 1.54-2.208 2.018-3.292.477-1.09.729-2.065.729-2.944v-5.732H340.17V264.29h29.285v18.708c-.021 3.005-.524 5.868-1.526 8.58a27.2 27.2 0 0 1-4.192 7.49 29.3 29.3 0 0 1-6.256 5.923 29.3 29.3 0 0 1-7.756 3.912c-2.78.927-5.67 1.39-8.656 1.404-3.96-.02-7.483-.627-10.597-1.834-3.108-1.213-5.834-2.883-8.193-5.016a31.7 31.7 0 0 1-6.004-7.49q-2.484-4.253-4.028-9.221a62.5 62.5 0 0 1-2.27-10.237 78 78 0 0 1-.701-10.516c-.02-4.137.178-8.192.552-12.192.375-3.987 1.002-7.79 1.895-11.416.9-3.626 2.12-6.965 3.673-10.012 1.554-3.046 3.51-5.697 5.848-7.953 2.344-2.25 5.152-4 8.417-5.234 3.27-1.254 7.074-1.881 11.408-1.895 3.013.02 5.896.49 8.622 1.445a27.8 27.8 0 0 1 7.66 4.089q3.519 2.66 6.25 6.352c1.84 2.48 3.333 5.227 4.512 8.253zM379.93 219.083h54.625v13.16h-20.507v76.367h-13.522v-76.366H379.93zM449.058 219.083h13.788v35.454h32.332v-35.454h14.06v89.527h-14.06v-39.216h-32.332v39.216h-13.788zM354.012 608.082v-56.254h14.182v3.21c.662-.416 1.439-.797 2.338-1.165a31 31 0 0 1 2.876-1.023 40.4 40.4 0 0 1 5.95-1.335c.913-.124 1.71-.192 2.392-.192 2.14 0 4.11.218 5.909.668 1.8.45 3.449 1.172 4.948 2.174q2.259 1.503 4.11 3.967a13.7 13.7 0 0 1 2.937-2.651 20.4 20.4 0 0 1 3.612-1.936 27 27 0 0 1 3.905-1.281 33 33 0 0 1 3.817-.716 28 28 0 0 1 3.34-.224c1.676.019 3.319.272 4.934.797a20 20 0 0 1 4.593 2.195 23 23 0 0 1 4.021 3.237 23 23 0 0 1 3.183 3.946 19.7 19.7 0 0 1 2.1 4.341c.497 1.48.742 2.944.749 4.383v37.859H419.39v-34.425c0-1.67-.422-3.141-1.226-4.416-.811-1.281-1.923-2.29-3.36-3.019-1.425-.73-3.081-1.104-4.976-1.118-1.526.02-2.883.294-4.041.839-1.166.545-2.14 1.274-2.93 2.208a9.7 9.7 0 0 0-1.773 3.155 11 11 0 0 0-.6 3.646v33.13H387.49v-33.13c0-1.26-.232-2.487-.682-3.694a10.8 10.8 0 0 0-1.963-3.312 9.4 9.4 0 0 0-3.094-2.378c-1.22-.593-2.576-.9-4.11-.914-1.179.02-2.269.198-3.25.587a9.3 9.3 0 0 0-2.624 1.513c-.77.64-1.418 1.342-1.956 2.133a10.2 10.2 0 0 0-1.207 2.406c-.272.824-.409 1.615-.409 2.364v34.425z" style="fill:#000;fill-opacity:1;fill-rule:nonzero;stroke:none"/>
  <path d="M168.526 608.116h150.448v-89.928H168.526z" style="fill:none;stroke:#000;stroke-width:1.81287718;stroke-linecap:butt;stroke-linejoin:miter;stroke-miterlimit:22.9260006;stroke-opacity:1;stroke-dasharray:9.06234123,9.06234123;stroke-dashoffset:0"/>
</svg>
