<svg xmlns="http://www.w3.org/2000/svg" viewBox="0 0 343.5 343.524" role="img" aria-labelledby="title">
  <title id="title">Verkehrszeichen R6-7 - Hand Held Stop Sign (for children crossings)</title>
  <path d="M171.75 343.524c94.583 0 171.75-77.163 171.75-171.75C343.5 77.168 266.333 0 171.75 0 77.138 0 0 77.167 0 171.775c0 94.586 77.138 171.75 171.75 171.75" style="fill:#000;fill-opacity:1;fill-rule:evenodd;stroke:none"/>
  <path d="M171.563 336.927c90.706 0 164.775-74.04 164.775-164.962 0-90.734-74.069-164.775-164.775-164.775-90.922 0-164.99 74.04-164.99 164.775 0 90.921 74.068 164.962 164.99 164.962" style="fill:#f7914d;fill-opacity:1;fill-rule:evenodd;stroke:none"/>
  <path d="M30.96 213.423h14.347c.388 20.36 7.564 22.882 14.545 22.882 7.564 0 14.348-6.206 14.348-18.81 0-4.654-.967-10.277-3.101-16.676-5.817-17.646-13.77-24.046-21.911-34.71-6.594-8.724-15.512-30.441-15.512-43.628.19-20.553 11.825-30.057 26.952-30.057 18.613 0 25.594 11.247 25.594 32.967H72.457c0-10.28-1.552-18.81-11.635-18.81-6.787 0-13.186 2.135-13.186 16.094 0 9.694 7.757 29.863 12.41 34.322 14.93 14.153 28.117 44.21 28.117 61.274 0 16.675-8.922 32.77-27.535 32.963-11.052 0-29.668-7.56-29.668-37.81M102.32 95.529h51.191v13.963h-18.228v138.641h-13.96V109.492H102.32zM199.464 251.234c-30.057 0-30.25-42.08-30.25-79.89v-4.459c0-36.456.581-74.46 29.28-74.46 30.445 0 32.575 40.332 32.575 78.92 0 38.78-1.16 79.89-31.605 79.89m.776-13.769c15.124 0 15.706-29.859 15.706-59.333v-6.788c0-31.411 0-65.15-16.482-65.15-15.123 0-15.512 29.858-15.512 58.557v6.593c0 31.027 0 66.121 16.288 66.121M255.309 95.529h25.21c16.287 0 31.993 19.392 31.993 43.24 0 23.463-15.9 42.467-31.994 42.467H269.85v66.897H255.31zm14.541 14.153v56.621h9.698c8.918 0 18.419-10.276 18.419-27.34 0-14.93-7.172-29.28-19.195-29.28z" style="fill:#000;fill-opacity:1;fill-rule:evenodd;stroke:none"/>
</svg>
