<svg xmlns="http://www.w3.org/2000/svg" viewBox="0 0 162.969 82" role="img" aria-labelledby="title">
  <title id="title">Verkehrszeichen R5-16 - Parking Permitted: Half Hours</title>
  <path d="M7.722.502h147.526c3.971 0 7.22 3.248 7.22 7.221v66.542c0 3.971-3.249 7.22-7.22 7.22H7.722C3.75 81.484.5 78.235.5 74.264V7.723C.5 3.75 3.75.502 7.722.502z" style="fill:#fff;fill-opacity:1;fill-rule:evenodd;stroke:#000;stroke-width:1;stroke-linecap:butt;stroke-linejoin:miter;stroke-miterlimit:2.61299992;stroke-opacity:1;stroke-dasharray:none"/>
  <path d="m111.925 71.23.992-.724c.529.566 1.057.906 1.876.906.455 0 1.627-.166 1.627-.97 0-.796-1.1-.796-1.627-.977-1.238-.405-2.556-.652-2.556-2.258 0-1.384 1.354-2.057 2.54-2.057.86 0 1.962.457 2.548 1.13l-.905.854c-.528-.535-.934-.702-1.642-.702-.434 0-1.304.231-1.317.775 0 .737.817.782 1.685 1.041 1 .297 2.548.565 2.548 2.121 0 1.586-1.65 2.303-2.974 2.303-.877 0-2.375-.652-2.795-1.441M121.588 65.295h1.208l3.04 7.238h-1.36l-.694-1.687h-3.143l-.708 1.687h-1.332zm-.455 4.307h2.127l-1.056-2.57zM126.684 65.295h5.32v1.172h-2.042v6.066h-1.26v-6.066h-2.018zM96.565 30.277h1.201l2.128 4.307 2.07-4.307h1.274v7.238H102v-4.364l-2.106 4.364-2.091-4.306v4.306h-1.238zM107.645 36.401c1.172 0 1.767-1.129 1.767-2.504 0-1.383-.623-2.512-1.767-2.512s-1.766 1.129-1.766 2.512c0 1.375.593 2.504 1.766 2.504m0 1.253c-1.997 0-2.997-1.687-2.997-3.757s1.05-3.765 2.997-3.765c1.948 0 2.996 1.695 2.996 3.765s-.998 3.757-2.996 3.757M112.06 30.277h1.188l3.322 4.784v-4.784h1.26v7.238h-1.13l-3.386-4.915v4.915h-1.253z" style="fill:#006330;fill-opacity:1;fill-rule:evenodd;stroke:none"/>
  <path d="M122.45 35.5h5.327v-1.223h-5.327z" style="fill:#006330;fill-opacity:1;fill-rule:nonzero;stroke:none"/>
  <path d="M132.223 30.368h5.32v1.26h-4.097v1.57h2.258v1.237h-2.258v3.17h-1.223zM138.839 30.368h3.481a2.17 2.17 0 0 1 2.194 2.157c0 .738-.477 1.686-1.253 2.019l1.347 3.062h-1.347l-1.288-2.83h-1.896v2.83h-1.238zm1.238 1.238v1.94h2.243c.5 0 .94-.456.94-.963 0-.34-.281-.977-.94-.977z" style="fill:#006330;fill-opacity:1;fill-rule:evenodd;stroke:none"/>
  <path d="M146.02 37.606h1.244v-7.238h-1.245z" style="fill:#006330;fill-opacity:1;fill-rule:nonzero;stroke:none"/>
  <path d="M89.523 27.16v-3.122c3.732 0 6.149-1.245 8.042-4.886-1.136.649-3.57.667-4.31.667-3.461 0-6.383-2.075-6.383-5.68 0-3.21 3.3-5.356 6.907-5.356 4.13 0 7.41 1.839 7.41 6.744 0 4.346-1.028 5.86-2.541 7.719-2.164 2.614-5.068 3.915-9.125 3.915m4.364-10.479c2.128 0 3.894-.612 3.894-2.38 0-1.82-1.766-2.417-3.894-2.417-2.2 0-3.931.776-3.931 2.417 0 1.659 1.731 2.38 3.931 2.38M96.015 61.357v-3.123c3.732 0 6.149-1.245 8.042-4.886-1.136.649-3.57.667-4.31.667-3.461 0-6.383-2.073-6.383-5.68 0-3.21 3.3-5.356 6.906-5.356 4.13 0 7.412 1.839 7.412 6.744 0 4.346-1.029 5.86-2.542 7.718-2.164 2.615-5.068 3.916-9.125 3.916m4.364-10.48c2.128 0 3.894-.612 3.894-2.38 0-1.82-1.766-2.417-3.894-2.417-2.2 0-3.931.776-3.931 2.417 0 1.659 1.731 2.38 3.931 2.38M145.298 21.357h2.647c.837 0 1.71.722 1.71 1.573 0 .89-.662 1.753-1.578 1.753h-1.824v2.134h-.955zm.906.951v1.446h1.741c.443 0 .755-.251.755-.726 0-.464-.393-.72-.786-.72zM150.713 21.357h.907l1.606 3.249 1.561-3.249h.96v5.46h-.933v-3.293l-1.588 3.293-1.578-3.248v3.248h-.935zM103.025 21.357h.911l2.295 5.46h-1.027l-.525-1.272h-2.368l-.537 1.272h-1.003zm-.343 3.249h1.604l-.797-1.938zM107.279 21.357h.906l1.606 3.249 1.562-3.249h.96v5.46h-.934v-3.293l-1.588 3.293-1.578-3.248v3.248h-.934zM109.425 55.553h.91l2.295 5.46h-1.026l-.525-1.272h-2.369l-.536 1.272h-1.004zm-.344 3.249h1.605l-.797-1.938zM113.678 55.553h.907l1.606 3.249 1.561-3.249h.96v5.46h-.933v-3.29l-1.588 3.29-1.578-3.248v3.248h-.935zM134.326 56.695h.708l1.98 2.854v-2.854h.754v4.318h-.674l-2.02-2.931v2.931h-.748zM140.395 60.348c.7 0 1.053-.673 1.053-1.494 0-.825-.37-1.498-1.053-1.498-.681 0-1.053.673-1.053 1.498 0 .82.354 1.494 1.053 1.494m0 .748c-1.191 0-1.787-1.007-1.787-2.242 0-1.234.625-2.244 1.787-2.244s1.788 1.01 1.788 2.244-.596 2.242-1.788 2.242M144.58 60.348c.7 0 1.053-.673 1.053-1.494 0-.825-.372-1.498-1.053-1.498-.682 0-1.053.673-1.053 1.498 0 .82.353 1.494 1.053 1.494m0 .748c-1.192 0-1.788-1.007-1.788-2.242 0-1.234.626-2.244 1.788-2.244s1.787 1.01 1.787 2.244-.596 2.242-1.787 2.242M147.212 56.695h.709l1.98 2.854v-2.854h.753v4.318h-.673l-2.02-2.931v2.931h-.749z" style="fill:#006330;fill-opacity:1;fill-rule:evenodd;stroke:none"/>
  <path d="M114.576 21.189h9.034v-2.416h-9.034zM121.8 55.385h9.034v-2.416h-9.035z" style="fill:#006330;fill-opacity:1;fill-rule:nonzero;stroke:none"/>
  <path d="m137.555 13.11-6.817 7.16h6.817zm.054-4.327h3.01v11.486h2.652v2.904h-2.651v3.643h-3.065v-3.643h-10.91v-2.776zM135.9 55.618V46.08h-1.574v-1.84c.8-.103 1.6-.61 1.97-1.32h1.802v12.698zM140.574 44.67c1.295-1.206 3.327-2.005 5.067-2.005 2.438 0 4.99 1.245 4.99 3.962 0 1.994-1.867 3.263-2.996 3.453-2.656.432-4.014 2.134-4.306 3.276h7.366v2.262h-10.07c0-3.188 1.891-5.996 4.673-7.163 1.523-.66 3.162-.38 3.162-2.02 0-.774-1.282-1.561-2.616-1.561-1.182 0-2.895.394-3.81 1.447zM43.095 7.677H60.58c5.515 0 11.284 4.759 11.284 10.384 0 5.876-4.363 11.572-10.419 11.572H49.403V43.73h-6.309zm5.985 6.274v9.554H60.58c2.92 0 4.975-1.66 4.975-4.795 0-3.066-2.596-4.76-5.193-4.76zM12.334 25.726V12.188h-2.235V9.575c1.135-.145 2.27-.865 2.794-1.875h2.559v18.026zM20.245 28.194c1.839-1.713 4.722-2.849 7.193-2.849 3.46 0 7.083 1.768 7.083 5.625 0 2.83-2.65 4.632-4.253 4.903-3.767.614-5.697 3.029-6.111 4.651h10.455v3.21H20.318c0-4.525 2.685-8.51 6.633-10.169 2.163-.936 4.488-.54 4.488-2.865 0-1.1-1.82-2.217-3.713-2.217-1.676 0-4.11.558-5.408 2.055zM11.561 34.321 29.68 17.835l-1.48-1.623-18.116 16.485zM13.179 71.117l7.185-5.748h7.903l-4.49 3.592h34.485l-4.49-3.592h7.902l7.187 5.748-7.187 5.747h-7.902l4.49-3.591H23.777l4.49 3.591h-7.903z" style="fill:#006330;fill-opacity:1;fill-rule:evenodd;stroke:none"/>
</svg>
