<svg xmlns="http://www.w3.org/2000/svg" viewBox="0 0 606 1006" role="img" aria-labelledby="title">
  <title id="title">Verkehrszeichen R4-11[60] - End of 60&amp;nbsp;km/h Speed Limit Zone Area</title>
  <g transform="translate(0 709)">
    <rect width="604" height="1004" x="1" y="-708" rx="77" ry="77" style="opacity:1;fill:#000;fill-opacity:1;fill-rule:nonzero;stroke:none;stroke-width:157.30535889;stroke-linecap:square;stroke-linejoin:round;stroke-miterlimit:4;stroke-dasharray:none;stroke-opacity:1"/>
    <rect width="600" height="1000" x="3" y="-706" rx="75" ry="75" style="opacity:1;fill:#fff;fill-opacity:1;fill-rule:nonzero;stroke:none;stroke-width:156.47099304;stroke-linecap:square;stroke-linejoin:round;stroke-miterlimit:4;stroke-dasharray:none;stroke-opacity:1"/>
    <circle cx="303" cy="-188" r="213" style="opacity:1;fill:#000;fill-opacity:1;fill-rule:nonzero;stroke:none;stroke-width:66.86671448;stroke-linecap:square;stroke-linejoin:round;stroke-miterlimit:4;stroke-dasharray:none;stroke-opacity:1"/>
    <circle cx="303" cy="-188" r="171" style="opacity:1;fill:#fff;fill-opacity:1;fill-rule:nonzero;stroke:none;stroke-width:53.68172836;stroke-linecap:square;stroke-linejoin:round;stroke-miterlimit:4;stroke-dasharray:none;stroke-opacity:1"/>
    <g aria-label="AREA" style="font-style:normal;font-variant:normal;font-weight:400;font-stretch:normal;font-size:201.49253845px;line-height:0;font-family:&quot;Roadgeek 2005 Series D&quot;;-inkscape-font-specification:&quot;Roadgeek 2005 Series D&quot;;letter-spacing:0;word-spacing:0;fill:#000;fill-opacity:1;stroke:none;stroke-width:5.03731346">
      <path d="m431.497 145.333-13.299-37.88h-42.112l-13.298 37.88h-22.769l46.545-135h21.156l46.545 135zm-34.053-97.522-13.903 37.88h27zM543.4 145.333l-21.76-58.835h-25.59v58.835h-21.358v-135h44.53q7.858 0 13.5 1.008 5.641.806 10.679 3.224 4.432 2.216 8.06 5.843 3.828 3.425 6.447 8.06 2.82 4.432 4.231 9.671 1.612 5.038 1.612 10.075 0 5.44-1.612 10.679-1.41 5.037-4.231 9.672-2.62 4.433-6.65 8.06-3.828 3.626-8.462 5.641l23.776 63.067zm-1.007-97.12q0-4.23-2.216-8.059t-6.247-6.045q-2.62-1.41-4.835-1.813-2.217-.604-7.456-.604h-25.59v33.044h25.59q5.038 0 7.254-.403 2.418-.403 5.037-1.813 4.03-2.217 6.247-6.045 2.216-4.03 2.216-8.261M589.212 145.333v-135h79.59v21.359H610.57v33.044h39.291v21.762H610.57v37.074h62.463v21.761zM775.45 145.333l-13.298-37.88H720.04l-13.298 37.88h-22.769l46.545-135h21.157l46.544 135zm-34.052-97.522-13.903 37.88h27z" style="font-style:normal;font-variant:normal;font-weight:400;font-stretch:normal;line-height:0;font-family:&quot;Roadgeek 2005 Series D&quot;;-inkscape-font-specification:&quot;Roadgeek 2005 Series D&quot;;fill:#000;fill-opacity:1;stroke:none;stroke-width:5.03731346" transform="translate(-266.12 81.667)"/>
    </g>
    <g aria-label="END" style="font-style:normal;font-variant:normal;font-weight:400;font-stretch:normal;font-size:238.80596924px;line-height:0;font-family:&quot;Roadgeek 2005 Series D&quot;;-inkscape-font-specification:&quot;Roadgeek 2005 Series D&quot;;letter-spacing:0;word-spacing:0;fill:#000;fill-opacity:1;stroke:none;stroke-width:5.97014904">
      <path d="M108.9-470v-160h94.328v25.313h-69.015v39.165h46.568v25.79h-46.568v43.941h74.03V-470zM321.747-470l-61.134-108.418V-470h-25.314v-160h25.314L318.88-527.79V-630h25.314v160zM491.1-550.239q0 24.12-7.403 42.508-7.164 18.149-20.776 28.656-4.537 4.299-10.746 6.448-5.97 2.15-12.18 2.627h-57.79v-160h51.582q5.97 0 10.269.478 4.537.238 8.12 1.194 3.581.955 6.447 2.627t6.209 4.06q12.656 10.984 19.343 29.372 6.925 18.15 6.925 42.03m-25.79 0q0-16.239-3.583-28.895-3.343-12.657-9.313-18.866-3.105-2.866-7.164-4.776-4.06-1.91-9.075-1.91h-28.657v108.895h25.314q6.209 0 10.268-1.433 4.299-1.433 7.642-4.776 7.164-7.164 10.746-19.582 3.821-12.657 3.821-28.657" style="font-style:normal;font-variant:normal;font-weight:400;font-stretch:normal;line-height:0;font-family:&quot;Roadgeek 2005 Series D&quot;;-inkscape-font-specification:&quot;Roadgeek 2005 Series D&quot;;fill:#000;stroke:none;stroke-width:5.97014904" transform="translate(3 -3)"/>
    </g>
    <g aria-label="50" style="font-style:normal;font-variant:normal;font-weight:400;font-stretch:normal;font-size:259.36599731px;line-height:0;font-family:&quot;Roadgeek 2005 Series D&quot;;-inkscape-font-specification:&quot;Roadgeek 2005 Series D&quot;;letter-spacing:0;word-spacing:0;fill:#ff7f2a;fill-opacity:1;stroke:none;stroke-width:6.48414993">
      <g aria-label="60" style="font-style:normal;font-variant:normal;font-weight:400;font-stretch:normal;font-size:259.36599731px;line-height:0;font-family:&quot;Roadgeek 2005 Series D&quot;;-inkscape-font-specification:&quot;Roadgeek 2005 Series D&quot;;letter-spacing:0;word-spacing:0;fill:#000;fill-opacity:1;stroke:none;stroke-width:42.0442009">
        <path d="M283.47-119.003q0 11.152-4.668 21.008-4.409 9.597-12.45 16.86-7.78 7.002-18.674 11.152t-23.343 4.15q-12.45 0-23.342-4.15-10.894-4.41-18.934-11.931-7.781-7.522-12.45-17.637-4.409-10.115-4.409-21.787 0-18.155 4.669-36.052 4.928-17.896 13.746-34.236t21.009-30.086q12.45-14.006 27.492-24.121l14.006 23.343q-8.04 6.224-14.265 12.19-5.965 5.706-11.153 11.93-4.928 6.225-9.077 13.228-4.15 6.744-8.04 15.044 7.52-1.297 11.411-1.557 4.15-.259 9.337-.259 11.931 0 22.565 4.15 10.894 4.15 18.934 11.412 8.3 7.003 12.968 16.859 4.669 9.596 4.669 20.49m-27.492-.52q0-4.927-2.594-9.596-2.334-4.668-6.743-8.04-4.15-3.372-10.115-5.447-5.706-2.075-12.19-2.075-6.485 0-12.19 2.075-5.447 2.075-9.857 5.447-4.15 3.372-6.743 8.04-2.334 4.669-2.334 9.597 0 5.187 2.334 9.856 2.593 4.668 6.743 8.3 4.41 3.371 9.856 5.446 5.706 2.075 12.19 2.075 6.485 0 12.19-2.075 5.707-2.075 9.857-5.446 4.409-3.632 7.002-8.3t2.594-9.856M440.8-155.574q0 20.75-4.928 39.683-4.928 18.934-14.006 30.605-14.525 19.453-42.017 19.453-18.415 0-30.346-7.522T329.79-96.957q-5.447-11.153-8.818-26.974-3.372-16.081-3.372-31.643 0-21.527 4.928-39.942 5.187-18.415 14.006-30.865 7.78-9.856 18.415-14.524 10.893-4.928 25.936-4.928 16.6 0 28.271 7.521 11.672 7.522 19.971 23.603 5.447 11.671 8.56 27.233 3.112 15.562 3.112 31.902m-27.493 0q0-14.784-2.594-27.233-2.593-12.71-7.78-21.528-4.15-6.743-9.597-9.856-5.188-3.112-12.969-3.63-10.115-.52-16.858 4.668-6.744 5.187-11.153 16.859-3.372 7.78-5.187 18.933-1.557 10.894-1.557 21.787 0 14.006 2.594 26.974t7.781 21.268q4.15 6.744 9.856 10.115t14.006 3.372q9.596 0 15.821-5.187 6.484-5.187 10.893-16.859 1.297-3.372 2.594-8.04 1.297-4.928 2.075-10.116 1.037-5.446 1.556-10.893t.519-10.634" style="font-style:normal;font-variant:normal;font-weight:400;font-stretch:normal;line-height:0;font-family:&quot;Roadgeek 2005 Series D&quot;;-inkscape-font-specification:&quot;Roadgeek 2005 Series D&quot;;fill:#000;stroke:none;stroke-width:42.0442009" transform="translate(0 -32.167)"/>
      </g>
    </g>
  </g>
</svg>
