<svg xmlns="http://www.w3.org/2000/svg" xmlns:xlink="http://www.w3.org/1999/xlink" viewBox="0 0 600 800" role="img" aria-labelledby="title">
  <title id="title">Verkehrszeichen R4-1[90] - 90&amp;nbsp;km/h Speed Limit</title>
  <defs>
    <path id="a" d="M187.441-167.762q0 49.441-25.441 96.48T94.559 4.079L76.079-27.84q21.36-16.8 34.562-33.36 13.2-16.558 23.757-39.84-18.239 3.359-28.796 3.118-33.603 0-57.602-21.598-24-21.602-24-51.601.001-30.719 23.762-51.84c15.84-14.078 35.117-21.117 57.84-21.117 23.359 0 42.84 7.316 58.437 21.957q23.402 21.962 23.402 54.36m-38.16-3.36c0-9.277-4.32-17.32-12.96-24.117q-12.96-10.202-30.602-10.203-17.639 0-30.239 9.96-12.602 9.962-12.601 24.36 0 14.402 12.48 24.48 12.481 10.081 30.243 10.082c12 0 22.277-3.363 30.84-10.082q12.838-10.078 12.84-24.48m0 0"/>
    <path id="b" d="M194.16-119.52q0 29.28-6.84 55.442c-4.558 17.437-10.922 31.277-19.082 41.52Q148.561 4.077 109.922 4.077 84.96 4.08 68.16-6.238 51.36-16.562 40.8-38.641 24.003-71.519 24-119.52q0-60.48 26.16-97.44 20.879-27.119 61.2-27.118c29.6 0 51.84 14.316 66.718 42.957Q194.161-168 194.16-119.52m-37.922 0q.002-43.2-14.398-67.44-9.84-17.28-31.2-18.481Q84-206.637 72-175.921q-9.119 22.564-9.121 56.401c0 29.282 4.723 51.442 14.16 66.48q10.8 18.481 32.883 18.481 24.956 0 36.957-30.48 9.361-24 9.36-54.48m0 0"/>
  </defs>
  <path fill="#fff" stroke="#000" stroke-miterlimit="10" stroke-width=".3" d="M550 0c27.613 0 50 22.387 50 50v700c0 27.613-22.387 50-50 50H50c-27.613 0-50-22.387-50-50V50C0 22.387 22.387 0 50 0Zm0 0"/>
  <path fill="none" stroke="red" stroke-miterlimit="10" stroke-width="60" d="M567 400c0 147.46-119.54 267-267 267S33 547.46 33 400s119.54-267 267-267 267 119.54 267 267"/>
  <use xlink:href="#a" x="85.199" y="520"/>
  <use xlink:href="#b" x="296.639" y="520"/>
</svg>
