<svg xmlns="http://www.w3.org/2000/svg" viewBox="0 0 604 804" role="img" aria-labelledby="title">
  <title id="title">Verkehrszeichen R7-8 - Buses Only</title>
  <g transform="translate(0 8)">
    <rect width="602" height="802" x="1" y="-7" rx="51" ry="51" style="fill:#000;fill-rule:evenodd;stroke:none;stroke-width:6.61806;stroke-linecap:round;stroke-linejoin:round"/>
    <rect width="600" height="800" x="2" y="-6" rx="50" ry="50" style="fill:#fff;fill-rule:evenodd;stroke:none;stroke-width:6.59882;stroke-linecap:round;stroke-linejoin:round"/>
    <rect width="580" height="780" x="12" y="4" rx="40" ry="40" style="fill:#000;fill-rule:evenodd;stroke:none;stroke-width:6.4063;stroke-linecap:round;stroke-linejoin:round"/>
    <rect width="540" height="740" x="32" y="24" rx="20" ry="20" style="fill:#fff;fill-rule:evenodd;stroke:none;stroke-width:6.02086;stroke-linecap:round;stroke-linejoin:round"/>
    <rect width="500" height="230" x="52" y="454" rx="35" ry="35" style="fill:#be121e;fill-opacity:1;fill-rule:evenodd;stroke:none;stroke-width:8.44841;stroke-linecap:round;stroke-linejoin:round"/>
    <path d="m174.063 568.674-.312 8.437-.313 7.5-.312 7.188c-3.578 25.907-12.64 60.141-45 60h-2.188c-33.089-.03-41.151-35.067-45-61.25l-.313-6.875-.312-7.813-.313-8.125.313-8.125c-.012-23.333 7.849-66.177 35.625-71.875l5.625-.938 6.25-.312c32.375-2.094 41.834 34.64 45.313 59.688l.625 14.375z" style="fill:#fff;fill-opacity:1;fill-rule:evenodd;stroke:none;stroke-width:3.75003;stroke-linecap:round;stroke-linejoin:round;stroke-miterlimit:10;stroke-dasharray:none;stroke-opacity:1"/>
    <path d="M152.188 568.674v-4.688l-.312-4.687-.625-7.813-.938-7.187-.937-6.563-1.563-6.562-.312-1.563-.313-.312-.312-.938-.313-1.875-1.562-3.75-1.25-3.125c-3.735-6.307-4.365-7.297-11.25-10.313l-2.5-.625h-5.313c-18.969 1.391-21.865 38.85-22.5 51.25v18.438c.89 10.834 3.536 47.62 19.687 50.313l2.813.625h2.812c19.058 1.282 22.495-30.104 24.063-42.812l.313-8.125.312-4.688z" style="fill:#be121e;fill-opacity:1;fill-rule:evenodd;stroke:none;stroke-width:3.75003;stroke-linecap:round;stroke-linejoin:round;stroke-miterlimit:10;stroke-dasharray:none;stroke-opacity:1"/>
    <path d="m279.372 649-49.375-107.188V649h-23.125V489h23.125l43.75 95.938V489h23.125v160ZM331.873 649V489h23.125v138.75h58.125V649Z" style="fill:#fff;fill-opacity:1;fill-rule:evenodd;stroke:none;stroke-width:3.74999;stroke-linecap:round;stroke-linejoin:round;stroke-miterlimit:10;stroke-dasharray:none;stroke-opacity:1"/>
    <path d="M485.312 576.5V649h-22.813v-72.5L423.124 489h24.375l26.875 57.813L500.624 489H525z" style="fill:#fff;fill-opacity:1;fill-rule:evenodd;stroke:none;stroke-width:3.75001;stroke-linecap:round;stroke-linejoin:round;stroke-miterlimit:10;stroke-dasharray:none;stroke-opacity:1"/>
    <path d="M552 270.1V131c0-3.878-3.122-7-7-7H78.6c-8.151.017-17.26 6.182-19 17.1l-7.6 67v78.4h420.5z" style="fill:#000;fill-opacity:1;fill-rule:nonzero;stroke:none;stroke-width:42.5852;stroke-linecap:square;stroke-linejoin:round;stroke-miterlimit:4;stroke-dasharray:none;stroke-dashoffset:0;stroke-opacity:1"/>
    <path d="M215.3 294h-83v-15.1c.04-15.166 12.886-35.36 39.6-35.4 7.794.033 21.035 4.591 29.7 19l13.7 24M472.5 294h-83v-15.1c.04-15.166 12.886-35.36 39.6-35.4 7.794.033 21.035 4.591 29.7 19l13.7 24" style="fill:#fff;fill-opacity:1;fill-rule:nonzero;stroke:none;stroke-width:5.11408"/>
    <path d="M76.8 143.4H115v124.8H70.3v-70" style="fill:#fff;fill-opacity:1;fill-rule:nonzero;stroke:none;stroke-width:5.11281"/>
    <rect width="92" height="68.6" x="230" y="143.4" rx="8.8" ry="8.8" style="fill:#fff;fill-opacity:1;fill-rule:nonzero;stroke:none;stroke-width:29.3121;stroke-linecap:square;stroke-linejoin:round;stroke-miterlimit:4;stroke-dasharray:none;stroke-dashoffset:0;stroke-opacity:1"/>
    <rect width="85.2" height="68.6" x="130" y="143.4" rx="8.8" ry="8.8" style="fill:#fff;fill-opacity:1;fill-rule:nonzero;stroke:none;stroke-width:28.208;stroke-linecap:square;stroke-linejoin:round;stroke-miterlimit:4;stroke-dasharray:none;stroke-dashoffset:0;stroke-opacity:1"/>
    <rect width="92.8" height="68.6" x="337" y="143.4" rx="8.8" ry="8.8" style="fill:#fff;fill-opacity:1;fill-rule:nonzero;stroke:none;stroke-width:29.4391;stroke-linecap:square;stroke-linejoin:round;stroke-miterlimit:4;stroke-dasharray:none;stroke-dashoffset:0;stroke-opacity:1"/>
    <rect width="89.4" height="68.6" x="445.4" y="143.4" rx="8.8" ry="8.8" style="fill:#fff;fill-opacity:1;fill-rule:nonzero;stroke:none;stroke-width:28.8949;stroke-linecap:square;stroke-linejoin:round;stroke-miterlimit:4;stroke-dasharray:none;stroke-dashoffset:0;stroke-opacity:1"/>
    <circle cx="169.6" cy="281.2" r="22.8" style="fill:#000;fill-opacity:1;fill-rule:nonzero;stroke:none;stroke-width:27.5807;stroke-linecap:square;stroke-linejoin:round;stroke-miterlimit:4;stroke-dasharray:none;stroke-dashoffset:0;stroke-opacity:1"/>
    <circle cx="426.8" cy="281.2" r="22.8" style="fill:#000;fill-opacity:1;fill-rule:nonzero;stroke:none;stroke-width:27.5807;stroke-linecap:square;stroke-linejoin:round;stroke-miterlimit:4;stroke-dasharray:none;stroke-dashoffset:0;stroke-opacity:1"/>
  </g>
</svg>
