<svg xmlns="http://www.w3.org/2000/svg" viewBox="0 0 756 906" role="img" aria-labelledby="title">
  <title id="title">Verkehrszeichen R6-2 - No Overtaking on Bridge</title>
  <g transform="translate(0 609)">
    <rect width="754" height="904" x="1" y="-608" rx="77" ry="77" style="opacity:1;fill:#000;fill-opacity:1;fill-rule:nonzero;stroke:none;stroke-width:32.12145996;stroke-linecap:square;stroke-linejoin:round;stroke-miterlimit:4;stroke-dasharray:none;stroke-dashoffset:0;stroke-opacity:1"/>
    <rect width="750" height="900" x="3" y="-606" rx="75" ry="75" style="opacity:1;fill:#fff;fill-opacity:1;fill-rule:nonzero;stroke:none;stroke-width:31.96518898;stroke-linecap:square;stroke-linejoin:round;stroke-miterlimit:4;stroke-dasharray:none;stroke-dashoffset:0;stroke-opacity:1"/>
    <rect width="734" height="884" x="11" y="-598" rx="67" ry="67" style="opacity:1;fill:#000;fill-opacity:1;fill-rule:nonzero;stroke:none;stroke-width:31.34004021;stroke-linecap:square;stroke-linejoin:round;stroke-miterlimit:4;stroke-dasharray:none;stroke-dashoffset:0;stroke-opacity:1"/>
    <rect width="702" height="852" x="27" y="-582" rx="51" ry="51" style="opacity:1;fill:#fff;fill-opacity:1;fill-rule:nonzero;stroke:none;stroke-width:30.0894165;stroke-linecap:square;stroke-linejoin:round;stroke-miterlimit:4;stroke-dasharray:none;stroke-dashoffset:0;stroke-opacity:1"/>
    <g aria-label="NO" style="font-style:normal;font-variant:normal;font-weight:400;font-stretch:normal;font-size:201.72911072px;line-height:0;font-family:&quot;Roadgeek 2005 Series E&quot;;-inkscape-font-specification:&quot;Roadgeek 2005 Series E&quot;;letter-spacing:0;word-spacing:0;fill:#000;fill-opacity:1;stroke:none;stroke-width:5.04322767">
      <path d="m335.156-378.42-64.352-92.998v92.997H247v-135.158h23.804l61.93 89.164v-89.164h23.402v135.158zM503-446.807q0 15.937-4.034 29.05-3.833 12.91-11.095 22.19-7.263 9.279-17.753 14.524Q459.83-376 446.92-376q-14.928 0-25.822-6.052-10.691-6.253-17.752-16.138-7.06-10.087-10.49-22.594-3.227-12.709-3.227-25.418 0-16.138 3.832-29.049 4.035-12.91 11.499-21.988t17.954-13.92Q433.605-516 446.92-516q12.507 0 22.795 5.043t17.752 14.121 11.499 21.989Q503-462.138 503-446.807m-24.207.605q0-21.383-8.271-33.487t-23.602-12.104-24.006 12.104-8.675 33.487q0 21.787 8.675 33.89 8.674 12.105 24.006 12.105 9.683 0 15.734-4.237 6.254-4.236 9.683-10.893 3.632-6.657 5.044-14.726 1.412-8.271 1.412-16.139" style="font-style:normal;font-variant:normal;font-weight:400;font-stretch:normal;line-height:0;font-family:&quot;Roadgeek 2005 Series E&quot;;-inkscape-font-specification:&quot;Roadgeek 2005 Series E&quot;;fill:#000;stroke:none;stroke-width:5.04322767" transform="translate(3 -3)"/>
      <g aria-label="OVERTAKING" style="font-style:normal;font-variant:normal;font-weight:400;font-stretch:normal;font-size:173.66136169px;line-height:0;font-family:&quot;Roadgeek 2005 Series B&quot;;-inkscape-font-specification:&quot;Roadgeek 2005 Series B&quot;;letter-spacing:-.11641667px;word-spacing:0;fill:#000;fill-opacity:1;stroke:none;stroke-width:21.89534378">
        <path d="M117.835-241.434v11.114q0 6.252-.695 13.025-.52 6.773-2.084 13.372-1.389 6.425-4.515 11.635-2.952 5.036-7.814 8.162Q98.037-181 90.917-181q-7.293 0-12.156-3.126-4.689-3.126-7.815-8.162-2.952-5.21-4.515-11.635-1.389-6.6-1.91-13.372T64-230.32v-22.402q0-6.426.521-13.025.695-6.599 2.258-12.85 1.563-6.426 4.515-11.289 2.952-5.036 7.64-7.988Q83.798-301 90.919-301t11.808 3.126q4.863 2.952 7.815 7.988 3.126 5.037 4.515 11.462 1.563 6.252 2.084 12.85.695 6.6.695 13.026zm-15.456 0q0-2.431-.174-6.6 0-4.167-.347-9.03-.347-5.036-1.042-10.072-.694-5.21-2.084-9.378-1.215-4.168-3.126-6.773t-4.689-2.604q-3.3 0-5.557 2.778-2.084 2.605-3.473 6.947-1.216 4.167-1.91 9.377-.521 5.21-.868 10.246-.174 4.863-.174 9.03.174 3.995.174 6.079 0 1.91-.174 6.078 0 3.994.174 9.03.347 5.037.868 10.42.694 5.384 1.91 9.725 1.39 4.342 3.473 7.294 2.258 2.778 5.557 2.778t5.384-2.778q2.084-2.952 3.3-7.294 1.389-4.341 1.91-9.725t.694-10.42q.348-5.036.174-9.03zM163.915-183.084h-12.677l-20.84-116.353h15.11l12.33 66.165 11.808-66.165h15.109zM201.044-183.084v-116.353h42.894v15.108h-28.133v29.87h18.755v15.456h-18.755v40.81h29.696v15.11zM313.864-266.789q0 9.899-2.952 15.803-2.779 5.905-9.204 9.9l11.809 58.002h-15.109L285.21-237.44h-6.773v54.356h-14.76v-116.353h22.922q27.265 0 27.265 32.648m-15.108-.347q0-9.899-2.779-13.546-2.605-3.647-10.246-3.647h-7.294v31.78h9.725q6.079 0 8.336-3.125t2.258-11.462M352.046-284.329v101.245h-14.762v-101.245h-14.24v-15.108h44.11v15.108zM421.893-183.084l-6.6-31.085h-19.102l-6.599 31.085h-15.109l23.792-116.353h14.935l24.139 116.353zm-15.977-76.758-6.425 30.564h12.503zM489.217-183.084l-15.63-55.05-5.557 11.287v43.763H453.27v-116.353h14.761v37.163l18.235-37.163h17.192l-19.103 39.942 20.666 76.411zM523.703-183.084v-116.353h14.76v116.353zM601.46-183.084l-22.75-68.943v68.943h-14.761v-116.353h14.761l20.666 58.003v-58.003h14.76v116.353zM686-209.654q0 3.994-.52 8.162-.522 4.168-1.216 6.946-1.91 6.079-7.294 9.9Q671.586-181 663.598-181q-9.03 0-14.414-3.647-5.383-3.647-8.162-11.983-1.39-3.994-2.431-8.162-.869-4.167-1.39-9.377t-.868-11.81q-.174-6.598-.174-15.455 0-8.683.174-15.109.347-6.599.868-11.635.695-5.21 1.737-9.378t2.605-8.335q2.778-8.163 7.988-11.636Q654.915-301 663.598-301q9.899 0 15.456 5.904 5.557 5.731 6.946 16.498H671.24q-1.042-7.293-7.294-7.293-8.51 0-10.246 11.288l-1.042 6.946q-.52 3.3-.868 7.12-.174 3.82-.347 8.51-.174 4.688-.174 10.593 0 6.078.174 10.593.173 4.515.347 8.51.347 3.82.695 7.293.347 3.474.868 7.12 1.216 5.731 3.473 8.857 2.258 2.952 6.252 2.952t6.078-3.3q2.084-3.472 2.084-9.377v-15.456h-6.946v-15.108H686z" style="font-style:normal;font-variant:normal;font-weight:400;font-stretch:normal;line-height:0;font-family:&quot;Roadgeek 2005 Series B&quot;;-inkscape-font-specification:&quot;Roadgeek 2005 Series B&quot;;letter-spacing:-.11641667px;fill:#000;stroke:none;stroke-width:21.89534378" transform="translate(3 -3)"/>
        <g aria-label="ON" style="font-style:normal;font-variant:normal;font-weight:400;font-stretch:normal;font-size:172.91065979px;line-height:0;font-family:&quot;Roadgeek 2005 Series D&quot;;-inkscape-font-specification:&quot;Roadgeek 2005 Series D&quot;;letter-spacing:0;word-spacing:0;fill:#000;fill-opacity:1;stroke:none;stroke-width:94.64846039">
          <path d="M364.133-45.827q0 13.833-3.286 26.455-3.285 12.623-9.337 20.404Q341.827 14 323.498 14q-12.276 0-20.23-5.014T290.127-6.75q-3.631-7.435-5.88-17.983Q282-35.452 282-45.827q0-14.352 3.285-26.628 3.458-12.277 9.337-20.577 5.188-6.57 12.277-9.683Q314.161-106 324.19-106q11.067 0 18.847 5.014t13.315 15.735q3.63 7.781 5.706 18.156 2.074 10.375 2.074 21.268m-18.329 0q0-9.856-1.73-18.156-1.728-8.472-5.186-14.351-2.767-4.496-6.398-6.57-3.458-2.076-8.646-2.422-6.743-.345-11.239 3.113t-7.435 11.239q-2.248 5.187-3.458 12.622-1.038 7.263-1.038 14.525 0 9.337 1.73 17.983 1.728 8.645 5.187 14.178 2.766 4.496 6.57 6.744t9.338 2.248q6.397 0 10.547-3.459 4.323-3.458 7.262-11.239.865-2.248 1.73-5.36.864-3.285 1.383-6.744.691-3.63 1.037-7.262.346-3.63.346-7.09M451.747 11.925l-44.265-78.501v78.501h-18.329v-115.85h18.329l42.19 74.006v-74.006H468v115.85Z" style="font-style:normal;font-variant:normal;font-weight:400;font-stretch:normal;line-height:0;font-family:&quot;Roadgeek 2005 Series D&quot;;-inkscape-font-specification:&quot;Roadgeek 2005 Series D&quot;;fill:#000;stroke:none;stroke-width:94.64846039" transform="translate(3 -3)"/>
          <g aria-label="BRIDGE" style="font-style:normal;font-variant:normal;font-weight:400;font-stretch:normal;font-size:172.91065979px;line-height:0;font-family:&quot;Roadgeek 2005 Series C&quot;;-inkscape-font-specification:&quot;Roadgeek 2005 Series C&quot;;letter-spacing:0;word-spacing:0;fill:#000;fill-opacity:1;stroke:none;stroke-width:409.14318848">
            <path d="M226.014 175.282q0 6.571-2.42 12.45-2.421 5.706-6.744 10.029-4.15 4.15-9.856 6.743-5.533 2.421-11.93 2.421H161V91.075h36.484q5.88 0 10.72 2.248 4.842 2.075 8.3 6.052t5.36 9.51q2.075 5.533 2.075 12.276 0 3.977-.691 7.09-.519 2.94-1.902 5.879-1.384 2.766-3.804 5.706-2.248 2.94-5.706 6.57 6.57 5.533 10.374 12.796 3.804 7.09 3.804 16.08m-18.328-54.12q0-7.263-2.94-10.548t-9.683-3.285H177.6v30.95h17.464q5.88 0 9.165-4.495 3.458-4.669 3.458-12.623m2.075 52.91q0-4.15-1.21-7.608-1.211-3.631-3.286-6.225-2.075-2.766-5.014-4.15-2.767-1.556-5.88-1.556H177.6v36.138h16.773q7.09 0 11.239-4.495 4.15-4.496 4.15-12.104M292.27 206.925l-15.39-54.467h-15.907v54.467h-16.6V91.075h34.583q6.743 0 12.276 2.248 5.706 2.248 9.683 6.225 4.15 3.976 6.225 9.855 2.248 5.707 2.248 12.623 0 10.375-4.15 17.637t-12.45 10.374l16.6 56.888zm.864-84.9q0-6.743-4.15-10.72-4.15-3.976-10.893-3.976h-17.118v29.221h17.118q7.262 0 11.066-3.63 3.977-3.805 3.977-10.894M327.747 206.925V91.075H344v115.85zM433.582 148.827q0 39.77-16.6 52.738-3.112 2.94-7.262 4.15t-8.99 1.21h-32.162V91.075h29.567q7.436 0 11.585 1.037 4.15 1.038 7.263 3.459 5.187 3.63 8.645 10.201 3.631 6.57 5.188 15.39 1.21 6.397 1.902 13.66.864 7.262.864 14.005m-16.253.865q0-9.856-.865-18.329-.864-8.645-2.42-12.277Q410.065 107.33 399 107.33h-13.833v83.342H399q3.631 0 6.398-1.383 2.94-1.383 5.014-3.63 2.075-2.249 3.286-5.188 1.383-3.113 2.074-6.398.52-5.533 1.038-11.585.519-6.225.519-12.795M517.907 174.764q0 6.052-.692 10.201-.691 4.15-2.593 7.781-3.459 7.608-10.202 11.931Q497.85 209 489.03 209q-10.374 0-17.982-5.014-7.435-5.015-11.758-14.87-2.766-6.571-4.495-17.465-1.557-11.066-1.557-22.478 0-12.277 1.038-21.441 1.21-9.337 4.323-17.637 1.556-4.496 4.322-8.3 2.94-3.977 6.744-6.743 3.804-2.94 8.472-4.496Q482.807 89 487.82 89q6.225 0 11.585 2.248 5.36 2.075 9.338 6.052 3.977 3.804 6.397 9.337 2.421 5.36 2.767 11.758h-16.6q-.345-5.88-4.15-9.51-3.63-3.631-9.682-3.631-8.646 0-13.142 8.645-2.42 4.323-3.804 13.314-1.383 8.819-1.383 19.193 0 7.263.519 14.698.691 7.435 1.902 14.178 1.902 8.473 6.052 12.969 4.322 4.495 11.066 4.495 12.622 0 12.622-17.982v-7.608h-13.14v-16.254h29.74zM540.038 206.925V91.075h54.466v16.254h-37.867v29.221h24.035v15.908h-24.035v38.213H599v16.254z" style="font-style:normal;font-variant:normal;font-weight:400;font-stretch:normal;line-height:0;font-family:&quot;Roadgeek 2005 Series C&quot;;-inkscape-font-specification:&quot;Roadgeek 2005 Series C&quot;;letter-spacing:-1.05568755px;fill:#000;stroke:none;stroke-width:409.14318848" transform="translate(3 -3)"/>
          </g>
        </g>
      </g>
    </g>
  </g>
</svg>
