<svg xmlns="http://www.w3.org/2000/svg" viewBox="0 0 756 906" role="img" aria-labelledby="title">
  <title id="title">Verkehrszeichen R6-1 - No Overtaking or Passing (used at bottlenecks)</title>
  <g transform="translate(0 609)">
    <rect width="754" height="904" x="1" y="-608" rx="52" ry="52" style="opacity:1;fill:#000;fill-opacity:1;fill-rule:nonzero;stroke:none;stroke-width:32.12145996;stroke-linecap:square;stroke-linejoin:round;stroke-miterlimit:4;stroke-dasharray:none;stroke-dashoffset:0;stroke-opacity:1"/>
    <rect width="750" height="900" x="3" y="-606" rx="50" ry="50" style="opacity:1;fill:#fff;fill-opacity:1;fill-rule:nonzero;stroke:none;stroke-width:31.96518898;stroke-linecap:square;stroke-linejoin:round;stroke-miterlimit:4;stroke-dasharray:none;stroke-dashoffset:0;stroke-opacity:1"/>
    <rect width="730" height="880" x="13" y="-596" rx="40" ry="40" style="opacity:1;fill:#000;fill-opacity:1;fill-rule:nonzero;stroke:none;stroke-width:31.1837368;stroke-linecap:square;stroke-linejoin:round;stroke-miterlimit:4;stroke-dasharray:none;stroke-dashoffset:0;stroke-opacity:1"/>
    <rect width="690" height="840" x="33" y="-576" rx="20" ry="20" style="opacity:1;fill:#fff;fill-opacity:1;fill-rule:nonzero;stroke:none;stroke-width:29.62030983;stroke-linecap:square;stroke-linejoin:round;stroke-miterlimit:4;stroke-dasharray:none;stroke-dashoffset:0;stroke-opacity:1"/>
    <g aria-label="NO" style="font-style:normal;font-variant:normal;font-weight:400;font-stretch:normal;font-size:201.72911072px;line-height:0;font-family:&quot;Roadgeek 2005 Series E&quot;;-inkscape-font-specification:&quot;Roadgeek 2005 Series E&quot;;letter-spacing:0;word-spacing:0;fill:#000;fill-opacity:1;stroke:none;stroke-width:5.04322767">
      <path d="m331.156-375.42-64.352-92.998v92.997H243v-135.158h23.804l61.93 89.164v-89.164h23.401v135.158zM506-443.807q0 15.937-4.034 29.05-3.833 12.91-11.095 22.19-7.263 9.279-17.753 14.524Q462.83-373 449.92-373q-14.928 0-25.822-6.052-10.691-6.253-17.752-16.138-7.06-10.087-10.49-22.594-3.227-12.709-3.227-25.418 0-16.138 3.832-29.049 4.035-12.91 11.499-21.988t17.954-13.92Q436.605-513 449.92-513q12.507 0 22.795 5.043t17.752 14.121 11.499 21.989Q506-459.138 506-443.807m-24.207.605q0-21.383-8.271-33.487-8.271-12.103-23.602-12.103-15.332 0-24.006 12.103-8.675 12.104-8.675 33.487 0 21.787 8.675 33.89 8.674 12.105 24.006 12.105 9.683 0 15.734-4.237 6.254-4.236 9.683-10.893 3.632-6.657 5.044-14.726 1.412-8.271 1.412-16.139" style="font-style:normal;font-variant:normal;font-weight:400;font-stretch:normal;line-height:0;font-family:&quot;Roadgeek 2005 Series E&quot;;-inkscape-font-specification:&quot;Roadgeek 2005 Series E&quot;;fill:#000;stroke:none;stroke-width:5.04322767" transform="translate(3 -3)"/>
      <g aria-label="OVERTAKING" style="font-style:normal;font-variant:normal;font-weight:400;font-stretch:normal;font-size:166.42547607px;line-height:0;font-family:&quot;Roadgeek 2005 Series B&quot;;-inkscape-font-specification:&quot;Roadgeek 2005 Series B&quot;;letter-spacing:0;word-spacing:0;fill:#000;fill-opacity:1;stroke:none;stroke-width:20.98303795">
        <path d="M118.592-240.916v10.651q0 5.991-.666 12.482-.5 6.49-1.997 12.815-1.331 6.158-4.327 11.15-2.83 4.827-7.49 7.822Q99.62-183 92.797-183q-6.99 0-11.65-2.996-4.493-2.995-7.489-7.822-2.83-4.992-4.327-11.15-1.331-6.324-1.83-12.815t-.5-12.482v-21.469q0-6.157.5-12.482.665-6.324 2.163-12.315 1.498-6.158 4.327-10.818 2.83-4.826 7.323-7.655Q85.973-298 92.796-298t11.317 2.996q4.66 2.829 7.489 7.655 2.996 4.827 4.327 10.984 1.498 5.992 1.997 12.316.666 6.324.666 12.482zm-14.812 0q0-2.33-.166-6.324 0-3.994-.333-8.654-.333-4.827-.999-9.653-.665-4.993-1.997-8.987-1.165-3.994-2.996-6.49t-4.493-2.497q-3.162 0-5.326 2.663-1.997 2.496-3.328 6.657-1.165 3.994-1.83 8.987-.5 4.993-.833 9.819-.166 4.66-.166 8.654.166 3.828.166 5.825 0 1.83-.166 5.825 0 3.828.166 8.654.333 4.826.832 9.985.666 5.16 1.83 9.32 1.332 4.161 3.33 6.99 2.163 2.663 5.325 2.663t5.16-2.663q1.996-2.829 3.161-6.99 1.332-4.16 1.83-9.32.5-5.159.667-9.985.332-4.826.166-8.654zM164.965-184.997h-12.15l-19.97-111.505h14.478l11.817 63.408 11.317-63.408h14.479zM202.758-184.997v-111.505h41.107v14.479h-26.96v28.625h17.973v14.812h-17.973v39.11h28.458v14.479zM313.09-265.214q0 9.486-2.829 15.145-2.663 5.658-8.82 9.486l11.316 55.586h-14.479l-12.648-52.091h-6.49v52.09h-14.147v-111.504h21.969q26.128 0 26.128 31.288m-14.479-.333q0-9.486-2.662-12.981-2.497-3.495-9.82-3.495h-6.99v30.456h9.32q5.825 0 7.989-2.996t2.163-10.984M351.893-282.023v97.026h-14.146v-97.026H324.1v-14.48h42.272v14.48zM421.043-184.997l-6.325-29.79h-18.306l-6.325 29.79h-14.479l22.8-111.505h14.313l23.133 111.505zm-15.312-73.56-6.157 29.29h11.982zM487.774-184.997l-14.979-52.757-5.325 10.818v41.939h-14.147v-111.505h14.147v35.615l17.474-35.615h16.476l-18.306 38.278 19.804 73.227zM523.035-184.997v-111.505h14.146v111.505zM599.764-184.997l-21.801-66.071v66.07h-14.147v-111.504h14.147l19.804 55.586v-55.586h14.146v111.505zM683-210.46q0 3.828-.5 7.822-.498 3.994-1.164 6.657-1.83 5.825-6.99 9.486-5.16 3.495-12.815 3.495-8.654 0-13.813-3.495t-7.822-11.483q-1.331-3.828-2.33-7.822-.832-3.995-1.331-8.987-.5-4.993-.833-11.317-.166-6.324-.166-14.812 0-8.321.166-14.48.333-6.323.833-11.15.665-4.992 1.664-8.987t2.496-7.988q2.663-7.822 7.656-11.15Q653.21-298 661.53-298q9.487 0 14.812 5.658 5.326 5.493 6.657 15.81h-14.146q-.999-6.989-6.99-6.989-8.155 0-9.819 10.818l-.999 6.657q-.499 3.162-.832 6.823-.166 3.662-.333 8.155-.166 4.493-.166 10.152 0 5.825.166 10.152.167 4.327.333 8.155.333 3.661.666 6.99.333 3.328.832 6.823 1.165 5.492 3.329 8.488 2.163 2.829 5.99 2.829 3.829 0 5.826-3.162 1.997-3.329 1.997-8.987v-14.812h-6.657v-14.479H683z" style="font-style:normal;font-variant:normal;font-weight:400;font-stretch:normal;line-height:0;font-family:&quot;Roadgeek 2005 Series B&quot;;-inkscape-font-specification:&quot;Roadgeek 2005 Series B&quot;;letter-spacing:2.10079169px;fill:#000;stroke:none;stroke-width:20.98303795" transform="translate(3 -3)"/>
        <g aria-label="OR" style="font-style:normal;font-variant:normal;font-weight:400;font-stretch:normal;font-size:172.91065979px;line-height:0;font-family:&quot;Roadgeek 2005 Series D&quot;;-inkscape-font-specification:&quot;Roadgeek 2005 Series D&quot;;letter-spacing:0;word-spacing:0;fill:#000;fill-opacity:1;stroke:none;stroke-width:90.70478058">
          <path d="M360.133-47.827q0 13.833-3.286 26.455-3.285 12.623-9.337 20.404Q337.827 12 319.5 12q-12.277 0-20.231-5.014T286.127-8.75q-3.631-7.435-5.88-17.983Q278-37.452 278-47.827q0-14.352 3.285-26.628 3.458-12.277 9.337-20.577 5.188-6.57 12.277-9.683Q310.161-108 320.19-108q11.067 0 18.848 5.014t13.314 15.735q3.63 7.781 5.706 18.156 2.075 10.375 2.075 21.268m-18.329 0q0-9.856-1.729-18.156-1.73-8.472-5.187-14.351-2.767-4.496-6.398-6.57-3.458-2.076-8.646-2.422-6.743-.345-11.239 3.113t-7.435 11.239q-2.248 5.187-3.458 12.622-1.038 7.263-1.038 14.525 0 9.337 1.73 17.983 1.729 8.645 5.187 14.178 2.766 4.496 6.57 6.744t9.338 2.248q6.397 0 10.547-3.459 4.323-3.458 7.262-11.239.865-2.248 1.73-5.36.864-3.285 1.383-6.744.691-3.63 1.037-7.262.346-3.63.346-7.09M451.116 9.925l-18.675-50.49h-21.96v50.49h-18.328v-115.85h38.213q6.744 0 11.585.864 4.842.692 9.165 2.767 3.804 1.902 6.916 5.014 3.285 2.94 5.533 6.917 2.42 3.804 3.631 8.3 1.383 4.322 1.383 8.645 0 4.669-1.383 9.164-1.21 4.323-3.63 8.3-2.249 3.804-5.707 6.917-3.285 3.112-7.262 4.841L471 9.925zm-.865-83.343q0-3.631-1.902-6.916t-5.36-5.188q-2.248-1.21-4.15-1.556-1.902-.519-6.398-.519h-21.96v28.358h21.96q4.323 0 6.225-.346 2.075-.346 4.323-1.556 3.458-1.902 5.36-5.188 1.902-3.458 1.902-7.089" style="font-style:normal;font-variant:normal;font-weight:400;font-stretch:normal;line-height:0;font-family:&quot;Roadgeek 2005 Series D&quot;;-inkscape-font-specification:&quot;Roadgeek 2005 Series D&quot;;fill:#000;stroke:none;stroke-width:90.70478058" transform="translate(3 -3)"/>
          <g aria-label="PASSING" style="font-style:normal;font-variant:normal;font-weight:400;font-stretch:normal;font-size:172.91065979px;line-height:0;font-family:&quot;Roadgeek 2005 Series C&quot;;-inkscape-font-specification:&quot;Roadgeek 2005 Series C&quot;;letter-spacing:0;word-spacing:0;fill:#000;fill-opacity:1;stroke:none;stroke-width:392.09558105">
            <path d="M170.852 121.582q0 15.908-7.954 24.208-7.781 8.3-22.479 8.3h-17.982v50.835h-16.6V89.075h34.582q6.744 0 12.277 2.42 5.706 2.249 9.683 6.571 4.15 4.15 6.225 10.202 2.248 6.052 2.248 13.314m-16.254 0q0-7.262-4.15-11.758t-10.893-4.495h-17.118v32.853h17.118q7.262 0 11.066-4.323 3.977-4.323 3.977-12.277M239.727 204.925l-8.127-31.643h-24.9l-7.607 31.643H182.32l28.876-115.85h16.254l28.876 115.85zm-20.75-81.268-8.126 33.372h16.599zM335.753 173.282q0 7.09-2.594 13.315-2.42 6.051-6.917 10.547-4.322 4.496-10.201 7.262Q310.335 207 303.59 207q-7.608 0-13.66-2.94t-10.201-7.953-6.398-11.585-2.248-13.66h16.254q0 3.63.864 7.262 1.038 3.458 2.94 6.398 2.075 2.766 5.014 4.495 3.112 1.73 7.435 1.73 3.285 0 6.225-1.384 3.112-1.383 5.187-3.804 2.248-2.42 3.459-5.533 1.383-3.285 1.383-6.744 0-5.014-2.075-8.818-2.075-3.977-7.262-7.954-.865-.864-.692-.864.173-.173-1.037-1.038-1.21-.864-5.188-3.285-3.804-2.594-12.622-8.646-7.09-4.841-10.72-11.239-3.459-6.57-3.459-14.352 0-6.224 2.248-11.585 2.248-5.533 6.225-9.683 4.15-4.15 9.51-6.397Q300.133 87 306.358 87t11.412 2.248q5.36 2.248 9.164 6.225 3.977 3.977 6.225 9.51 2.42 5.533 2.594 12.103h-15.908q-.346-6.051-4.15-9.683-3.804-3.63-9.337-3.63-5.706 0-9.683 3.803t-3.977 9.51q0 4.323 2.248 7.263 2.247 2.94 8.645 6.57 16.773 9.683 24.38 19.712 7.782 10.029 7.782 22.651M418.53 173.282q0 7.09-2.594 13.315-2.421 6.051-6.917 10.547-4.323 4.496-10.202 7.262-5.706 2.594-12.45 2.594-7.607 0-13.66-2.94-6.051-2.939-10.2-7.953-4.15-5.015-6.399-11.585-2.247-6.571-2.247-13.66h16.253q0 3.63.865 7.262 1.037 3.458 2.94 6.398 2.074 2.766 5.014 4.495 3.112 1.73 7.435 1.73 3.285 0 6.225-1.384 3.112-1.383 5.187-3.804 2.248-2.42 3.458-5.533 1.383-3.285 1.383-6.744 0-5.014-2.075-8.818-2.074-3.977-7.262-7.954-.864-.864-.691-.864.173-.173-1.038-1.038-1.21-.864-5.187-3.285-3.804-2.594-12.623-8.646-7.089-4.841-10.72-11.239-3.458-6.57-3.458-14.352 0-6.224 2.248-11.585 2.247-5.533 6.224-9.683 4.15-4.15 9.51-6.397Q382.91 87 389.134 87t11.412 2.248q5.36 2.248 9.165 6.225 3.977 3.977 6.225 9.51 2.42 5.533 2.593 12.103h-15.908q-.345-6.051-4.15-9.683-3.803-3.63-9.337-3.63-5.706 0-9.683 3.803t-3.977 9.51q0 4.323 2.248 7.263t8.646 6.57q16.772 9.683 24.38 19.712 7.781 10.029 7.781 22.651M442.343 204.925V89.075h16.254v115.85zM541.039 204.925l-35.793-77.637v77.637h-16.6V89.075h16.6l31.816 69.51v-69.51h16.599v115.85zM645.837 172.764q0 6.052-.692 10.201-.691 4.15-2.593 7.781-3.459 7.608-10.202 11.931Q625.78 207 616.96 207q-10.374 0-17.982-5.014-7.435-5.015-11.758-14.87-2.766-6.571-4.495-17.465-1.557-11.066-1.557-22.478 0-12.277 1.038-21.441 1.21-9.337 4.323-17.637 1.556-4.496 4.322-8.3 2.94-3.977 6.744-6.743 3.804-2.94 8.472-4.496Q610.736 87 615.75 87q6.225 0 11.585 2.248 5.36 2.075 9.338 6.052 3.977 3.804 6.397 9.337 2.421 5.36 2.767 11.758h-16.6q-.345-5.88-4.15-9.51-3.63-3.631-9.682-3.631-8.646 0-13.142 8.645-2.42 4.323-3.804 13.314-1.383 8.819-1.383 19.193 0 7.263.519 14.698.691 7.435 1.902 14.178 1.902 8.473 6.052 12.969 4.322 4.495 11.066 4.495 12.622 0 12.622-17.982v-7.608h-13.14v-16.254h29.74z" style="font-style:normal;font-variant:normal;font-weight:400;font-stretch:normal;line-height:0;font-family:&quot;Roadgeek 2005 Series C&quot;;-inkscape-font-specification:&quot;Roadgeek 2005 Series C&quot;;letter-spacing:4.42647934px;fill:#000;stroke:none;stroke-width:392.09558105" transform="translate(2.163 -3)"/>
          </g>
        </g>
      </g>
    </g>
  </g>
</svg>
