<svg xmlns="http://www.w3.org/2000/svg" viewBox="0 0 177.25 351.687" role="img" aria-labelledby="title">
  <title id="title">Verkehrszeichen R5-Q05 - Loading Zone (Maximum of 20 Minutes for Commercial Vehicles) (used in QLD)</title>
  <path d="M16.755 1.405h143.718c8.446 0 15.357 6.91 15.357 15.356v318.15c0 8.448-6.911 15.356-15.357 15.356H16.755c-8.446 0-15.356-6.908-15.356-15.357V16.761c0-8.446 6.91-15.356 15.356-15.356z" style="fill:#fff;fill-opacity:1;fill-rule:evenodd;stroke:#000;stroke-width:2.82222247;stroke-linecap:butt;stroke-linejoin:miter;stroke-miterlimit:2.61299992;stroke-opacity:1;stroke-dasharray:none"/>
  <g style="stroke:none;fill:#c0111e;fill-opacity:1">
    <path d="m0 0 .605.442c.323-.345.646-.553 1.145-.553.279 0 .994.102.994.593 0 .486-.671.486-.994.596-.756.248-1.56.398-1.56 1.379 0 .844.826 1.255 1.551 1.255.526 0 1.198-.278 1.556-.689l-.553-.522c-.322.327-.57.429-1.003.429-.265 0-.795-.141-.804-.473 0-.451.499-.477 1.03-.636.609-.181 1.555-.345 1.555-1.295 0-.968-1.008-1.406-1.816-1.406C1.171-.88.256-.482 0 0" style="fill:#c0111e;fill-opacity:1;fill-rule:evenodd;stroke:none" transform="matrix(3.52778 0 0 -3.52778 68.541 303.197)"/>
  </g>
  <g style="stroke:none;fill:#c0111e;fill-opacity:1">
    <path d="M0 0h.738l1.856-4.419h-.831l-.424 1.03H-.579l-.433-1.03h-.813zm-.278-2.629h1.299L.376-1.061z" style="fill:#c0111e;fill-opacity:1;fill-rule:evenodd;stroke:none" transform="matrix(3.52778 0 0 -3.52778 89.355 290.413)"/>
  </g>
  <g style="stroke:none;fill:#c0111e;fill-opacity:1">
    <path d="M0 0h3.248v-.716H2.002v-3.703h-.769v3.703H0z" style="fill:#c0111e;fill-opacity:1;fill-rule:evenodd;stroke:none" transform="matrix(3.52778 0 0 -3.52778 100.33 290.413)"/>
  </g>
  <g style="stroke:none;fill:#c0111e;fill-opacity:1">
    <path d="M0 0h.734l1.299-2.629L3.297 0h.778v-4.419h-.756v2.664L2.033-4.419.756-1.79v-2.629H0z" style="fill:#c0111e;fill-opacity:1;fill-rule:evenodd;stroke:none" transform="matrix(3.52778 0 0 -3.52778 35.458 218.552)"/>
  </g>
  <g style="stroke:none;fill:#c0111e;fill-opacity:1">
    <path d="M0 0c.716 0 1.078.69 1.078 1.529 0 .844-.38 1.534-1.078 1.534s-1.078-.69-1.078-1.534C-1.078.69-.716 0 0 0m0-.765c-1.22 0-1.83 1.03-1.83 2.294S-1.189 3.827 0 3.827s1.829-1.034 1.829-2.298S1.22-.765 0-.765" style="fill:#c0111e;fill-opacity:1;fill-rule:evenodd;stroke:none" transform="matrix(3.52778 0 0 -3.52778 59.327 231.742)"/>
  </g>
  <g style="stroke:none;fill:#c0111e;fill-opacity:1">
    <path d="M0 0h.725l2.028-2.921V0h.769v-4.419h-.689L.765-1.418v-3.001H0z" style="fill:#c0111e;fill-opacity:1;fill-rule:evenodd;stroke:none" transform="matrix(3.52778 0 0 -3.52778 68.838 218.552)"/>
  </g>
  <path d="M91.21 229.802h11.475v-2.635H91.21z" style="fill:#c0111e;fill-opacity:1;fill-rule:nonzero;stroke:none"/>
  <g style="stroke:none;fill:#c0111e;fill-opacity:1">
    <path d="M0 0h3.248v-.769H.747v-.959h1.379v-.756H.747v-1.935H0z" style="fill:#c0111e;fill-opacity:1;fill-rule:evenodd;stroke:none" transform="matrix(3.52778 0 0 -3.52778 112.261 218.75)"/>
  </g>
  <g style="stroke:none;fill:#c0111e;fill-opacity:1">
    <path d="M0 0h2.126c.791 0 1.339-.636 1.339-1.317 0-.451-.292-1.03-.765-1.233l.822-1.869H2.7l-.786 1.728H.756v-1.728H0zm.756-.756V-1.94h1.37c.305 0 .574.279.574.588 0 .207-.172.596-.574.596z" style="fill:#c0111e;fill-opacity:1;fill-rule:evenodd;stroke:none" transform="matrix(3.52778 0 0 -3.52778 126.513 218.75)"/>
  </g>
  <path d="M141.975 234.339h2.682v-15.59h-2.682z" style="fill:#c0111e;fill-opacity:1;fill-rule:nonzero;stroke:none"/>
  <g style="stroke:none;fill:#c0111e;fill-opacity:1">
    <path d="M0 0v1.907c2.279 0 3.754.759 4.91 2.983-.693-.396-2.18-.407-2.631-.407-2.114 0-3.897 1.266-3.897 3.468 0 1.96 2.014 3.27 4.216 3.27 2.522 0 4.525-1.123 4.525-4.118 0-2.653-.627-3.578-1.552-4.712C4.25.794 2.477 0 0 0m2.664 6.398c1.3 0 2.378.375 2.378 1.454 0 1.112-1.078 1.475-2.378 1.475-1.343 0-2.4-.473-2.4-1.475 0-1.013 1.057-1.454 2.4-1.454" style="fill:#c0111e;fill-opacity:1;fill-rule:evenodd;stroke:none" transform="matrix(3.52778 0 0 -3.52778 20.292 211.842)"/>
  </g>
  <g style="stroke:none;fill:#c0111e;fill-opacity:1">
    <path d="M0 0v1.907c2.279 0 3.754.759 4.91 2.983-.693-.396-2.18-.407-2.631-.407-2.114 0-3.897 1.266-3.897 3.468 0 1.96 2.014 3.27 4.216 3.27 2.522 0 4.525-1.123 4.525-4.118 0-2.653-.627-3.578-1.552-4.712C4.25.794 2.477 0 0 0m2.664 6.398c1.3 0 2.378.375 2.378 1.454 0 1.112-1.078 1.475-2.378 1.475-1.343 0-2.4-.473-2.4-1.475 0-1.013 1.057-1.454 2.4-1.454" style="fill:#c0111e;fill-opacity:1;fill-rule:evenodd;stroke:none" transform="matrix(3.52778 0 0 -3.52778 34.272 285.495)"/>
  </g>
  <g style="stroke:none;fill:#c0111e;fill-opacity:1">
    <path d="M0 0h1.617c.51 0 1.043-.44 1.043-.96 0-.544-.403-1.07-.963-1.07H.584v-1.304H0zm.553-.58v-.884h1.064c.27 0 .46.154.46.444 0 .283-.24.44-.48.44z" style="fill:#c0111e;fill-opacity:1;fill-rule:evenodd;stroke:none" transform="matrix(3.52778 0 0 -3.52778 140.423 199.34)"/>
  </g>
  <g style="stroke:none;fill:#c0111e;fill-opacity:1">
    <path d="M0 0h.553l.981-1.984L2.487 0h.587v-3.334h-.57v2.01l-.97-2.01L.57-1.35v-1.984H0z" style="fill:#c0111e;fill-opacity:1;fill-rule:evenodd;stroke:none" transform="matrix(3.52778 0 0 -3.52778 152.09 199.34)"/>
  </g>
  <g style="stroke:none;fill:#c0111e;fill-opacity:1">
    <path d="M0 0h.557l1.4-3.334H1.33l-.32.777H-.437l-.327-.777h-.613zm-.21-1.984h.98L.283-.8z" style="fill:#c0111e;fill-opacity:1;fill-rule:evenodd;stroke:none" transform="matrix(3.52778 0 0 -3.52778 49.375 199.34)"/>
  </g>
  <g style="stroke:none;fill:#c0111e;fill-opacity:1">
    <path d="M0 0h.553l.981-1.984L2.487 0h.587v-3.334h-.57v2.01l-.97-2.01L.57-1.35v-1.984H0z" style="fill:#c0111e;fill-opacity:1;fill-rule:evenodd;stroke:none" transform="matrix(3.52778 0 0 -3.52778 58.536 199.34)"/>
  </g>
  <g style="stroke:none;fill:#c0111e;fill-opacity:1">
    <path d="M0 0h.557l1.4-3.334H1.33l-.32.777H-.437l-.327-.777h-.613zm-.21-1.984h.98L.283-.8z" style="fill:#c0111e;fill-opacity:1;fill-rule:evenodd;stroke:none" transform="matrix(3.52778 0 0 -3.52778 63.158 272.992)"/>
  </g>
  <g style="stroke:none;fill:#c0111e;fill-opacity:1">
    <path d="M0 0h.553l.981-1.984L2.487 0h.587v-3.334h-.57v2.01l-.97-2.01L.57-1.35v-1.984H0z" style="fill:#c0111e;fill-opacity:1;fill-rule:evenodd;stroke:none" transform="matrix(3.52778 0 0 -3.52778 72.32 272.992)"/>
  </g>
  <g style="stroke:none;fill:#c0111e;fill-opacity:1">
    <path d="M0 0h.432l1.21-1.742V0h.459v-2.636H1.69L.456-.846v-1.79H0z" style="fill:#c0111e;fill-opacity:1;fill-rule:evenodd;stroke:none" transform="matrix(3.52778 0 0 -3.52778 116.79 275.455)"/>
  </g>
  <g style="stroke:none;fill:#c0111e;fill-opacity:1">
    <path d="M0 0c.427 0 .643.411.643.912 0 .504-.226.915-.643.915s-.643-.411-.643-.915C-.643.411-.427 0 0 0m0-.456c-.728 0-1.091.614-1.091 1.368S-.709 2.283 0 2.283 1.091 1.666 1.091.912.727-.456 0-.456" style="fill:#c0111e;fill-opacity:1;fill-rule:evenodd;stroke:none" transform="matrix(3.52778 0 0 -3.52778 129.865 283.322)"/>
  </g>
  <g style="stroke:none;fill:#c0111e;fill-opacity:1">
    <path d="M0 0c.427 0 .643.411.643.912 0 .504-.227.915-.643.915s-.643-.411-.643-.915C-.643.411-.427 0 0 0m0-.456c-.728 0-1.091.614-1.091 1.368S-.709 2.283 0 2.283 1.091 1.666 1.091.912.727-.456 0-.456" style="fill:#c0111e;fill-opacity:1;fill-rule:evenodd;stroke:none" transform="matrix(3.52778 0 0 -3.52778 138.878 283.322)"/>
  </g>
  <g style="stroke:none;fill:#c0111e;fill-opacity:1">
    <path d="M0 0h.432l1.21-1.742V0h.459v-2.636H1.69L.456-.846v-1.79H0z" style="fill:#c0111e;fill-opacity:1;fill-rule:evenodd;stroke:none" transform="matrix(3.52778 0 0 -3.52778 144.55 275.455)"/>
  </g>
  <path d="M74.253 198.976H93.71v-5.204H74.253zM89.81 272.633h19.459v-5.205H89.81z" style="fill:#c0111e;fill-opacity:1;fill-rule:nonzero;stroke:none"/>
  <g style="stroke:none;fill:#c0111e;fill-opacity:1">
    <path d="m0 0-4.162-4.371H0zm.033 2.642h1.839v-7.013H3.49v-1.772H1.872v-2.224H0v2.224h-6.661v1.695z" style="fill:#c0111e;fill-opacity:1;fill-rule:evenodd;stroke:none" transform="matrix(3.52778 0 0 -3.52778 123.747 181.577)"/>
  </g>
  <g style="stroke:none;fill:#c0111e;fill-opacity:1">
    <path d="M0 0v5.823h-.961v1.124c.488.062.977.372 1.201.806h1.102V0z" style="fill:#c0111e;fill-opacity:1;fill-rule:evenodd;stroke:none" transform="matrix(3.52778 0 0 -3.52778 120.18 273.134)"/>
  </g>
  <g style="stroke:none;fill:#c0111e;fill-opacity:1">
    <path d="M0 0c.791.736 2.031 1.225 3.094 1.225 1.488 0 3.047-.76 3.047-2.419 0-1.217-1.14-1.993-1.83-2.109-1.621-.264-2.45-1.303-2.629-2H6.18v-1.38H.031c0 1.946 1.155 3.659 2.853 4.372.931.404 1.931.233 1.931 1.233 0 .473-.783.954-1.597.954-.721 0-1.768-.241-2.326-.884z" style="fill:#c0111e;fill-opacity:1;fill-rule:evenodd;stroke:none" transform="matrix(3.52778 0 0 -3.52778 130.25 249.554)"/>
  </g>
  <g style="stroke:none">
    <path d="M0 0h40.516c1.06 0 1.842-1.005 1.842-2.4v-39.344c0-1.395-.782-2.399-1.842-2.399H0c-1.06 0-1.842 1.004-1.842 2.399V-2.4C-1.842-1.005-1.06 0 0 0" style="fill:#c0111e;fill-opacity:1;fill-rule:evenodd;stroke:none" transform="matrix(3.52778 0 0 -3.52778 17.152 9.32)"/>
  </g>
  <g style="stroke:none">
    <path d="M0 0h.569l.007-.373c0-.221-.068-.582-.153-.723-.245-.423-.552-.546-.919-.552-.282 0-.569.184-.747.332-.429.361-.478 2.038-.478 3.006 0 .967.031 2.143.368 2.596.177.227.477.435.857.435.361 0 .649-.171.882-.472.171-.214.183-.563.183-.973H0c0 .447-.049.875-.496.875a.53.53 0 0 1-.484-.336c-.11-.264-.165-1.476-.171-2.137 0-.662.073-2.229.257-2.486.104-.147.245-.245.398-.245.465 0 .496.514.496.888z" style="fill:#fff;fill-opacity:1;fill-rule:evenodd;stroke:none" transform="matrix(3.52778 0 0 -3.52778 25.725 120.663)"/>
  </g>
  <g style="stroke:none">
    <path d="M0 0c-1.206 0-1.219 1.679-1.219 3.197v.178c0 1.463.025 2.988 1.176 2.988 1.219 0 1.311-1.616 1.311-3.166C1.268 1.642 1.219 0 0 0m.031.546c.606 0 .624 1.194.624 2.382v.269c0 1.262 0 2.615-.655 2.615-.606 0-.625-1.194-.625-2.351v-.264c0-1.243 0-2.651.656-2.651" style="fill:#fff;fill-opacity:1;fill-rule:evenodd;stroke:none" transform="matrix(3.52778 0 0 -3.52778 33.782 126.48)"/>
  </g>
  <g style="stroke:none">
    <path d="M0 0h.563l.796-2.676L2.125 0h.557v-6.123h-.563v3.986l-.76-2.627-.79 2.615v-3.974H0z" style="fill:#fff;fill-opacity:1;fill-rule:evenodd;stroke:none" transform="matrix(3.52778 0 0 -3.52778 40.541 104.463)"/>
  </g>
  <g style="stroke:none">
    <path d="M0 0h.563l.796-2.676L2.125 0h.557v-6.123h-.563v3.986l-.76-2.627-.79 2.615v-3.974H0z" style="fill:#fff;fill-opacity:1;fill-rule:evenodd;stroke:none" transform="matrix(3.52778 0 0 -3.52778 52.984 104.463)"/>
  </g>
  <g style="stroke:none">
    <path d="M0 0h1.99v-.6H.594v-2.076h.943v-.576H.594v-2.259h1.463v-.612H0z" style="fill:#fff;fill-opacity:1;fill-rule:evenodd;stroke:none" transform="matrix(3.52778 0 0 -3.52778 65.426 104.463)"/>
  </g>
  <g style="stroke:none">
    <path d="m0 0 .747-2.841H.159L-.576-.178h-.385v-2.663h-.582v6.123h1.01c.557 0 1.268-.508 1.28-1.69C.747.912.52.386 0 0m-.576.416c.484 0 .741.619.741 1.145-.03.46-.269 1.139-.679 1.139h-.447V.416z" style="fill:#fff;fill-opacity:1;fill-rule:evenodd;stroke:none" transform="matrix(3.52778 0 0 -3.52778 80.525 116.042)"/>
  </g>
  <g style="stroke:none">
    <path d="M0 0h.569l.007-.373c0-.221-.068-.582-.153-.723-.245-.423-.552-.546-.919-.552-.282 0-.569.184-.747.332-.429.361-.478 2.038-.478 3.006 0 .967.031 2.143.368 2.596.177.227.477.435.857.435.361 0 .649-.171.882-.472.171-.214.183-.563.183-.973H0c0 .447-.049.875-.496.875a.53.53 0 0 1-.484-.336c-.11-.264-.165-1.476-.171-2.137 0-.662.073-2.229.257-2.486.104-.147.245-.245.398-.245.465 0 .496.514.496.888z" style="fill:#fff;fill-opacity:1;fill-rule:evenodd;stroke:none" transform="matrix(3.52778 0 0 -3.52778 90.914 120.663)"/>
  </g>
  <path d="M95.342 126.064h2.03v-21.6h-2.03z" style="fill:#fff;fill-opacity:1;fill-rule:nonzero;stroke:none"/>
  <g style="stroke:none">
    <path d="M0 0h.784l-.41 2.339zm-.949-2.088L.092 4.035H.68l1.053-6.123h-.582L.876-.594H-.11l-.257-1.494z" style="fill:#fff;fill-opacity:1;fill-rule:evenodd;stroke:none" transform="matrix(3.52778 0 0 -3.52778 102.965 118.698)"/>
  </g>
  <g style="stroke:none">
    <path d="M0 0h.563v-5.591h1.494v-.532H0z" style="fill:#fff;fill-opacity:1;fill-rule:evenodd;stroke:none" transform="matrix(3.52778 0 0 -3.52778 111.326 104.463)"/>
  </g>
  <g style="stroke:none">
    <path d="m0 0-1.139 6.123h.576l.79-4.188.716 4.188h.6L.514 0z" style="fill:#fff;fill-opacity:1;fill-rule:evenodd;stroke:none" transform="matrix(3.52778 0 0 -3.52778 132.345 126.064)"/>
  </g>
  <g style="stroke:none">
    <path d="M0 0h1.99v-.6H.594v-2.076h.943v-.576H.594v-2.259h1.463v-.612H0z" style="fill:#fff;fill-opacity:1;fill-rule:evenodd;stroke:none" transform="matrix(3.52778 0 0 -3.52778 140.035 104.463)"/>
  </g>
  <g style="stroke:none">
    <path d="M0 0h.569v-2.676h1.127V0h.6v-6.123h-.6v2.896H.569v-2.896H0z" style="fill:#fff;fill-opacity:1;fill-rule:evenodd;stroke:none" transform="matrix(3.52778 0 0 -3.52778 149.69 104.463)"/>
  </g>
  <g style="stroke:none">
    <path d="M0 0c0 .967.606 1.304 1.286 1.304.716 0 1.298-.575 1.298-1.42 0-.956-.716-1.703-1.163-2.29-.233-.307-.588-1.25-.588-1.77h1.622v-.765H.006c0 1.414.27 1.959.655 2.712.368.717 1.127 1.243 1.127 2.107 0 .434-.239.661-.459.661C1.01.539.765.392.729 0z" style="fill:#fff;fill-opacity:1;fill-rule:evenodd;stroke:none" transform="matrix(3.52778 0 0 -3.52778 21.103 137.572)"/>
  </g>
  <g style="stroke:none">
    <path d="M0 0c-1.243 0-1.384 1.422-1.384 3.179 0 1.751.153 3.184 1.384 3.184 1.237 0 1.39-1.433 1.39-3.184C1.39 1.342 1.249.012 0 0m0 .779c.576 0 .643 1.102.643 2.394 0 1.31-.098 2.376-.643 2.376s-.643-1.066-.643-2.376c0-1.304.068-2.382.643-2.394" style="fill:#fff;fill-opacity:1;fill-rule:evenodd;stroke:none" transform="matrix(3.52778 0 0 -3.52778 38.125 155.419)"/>
  </g>
  <g style="stroke:none">
    <path d="M0 0h.771l.735-2.192L2.155 0h.815v-6.123h-.747v3.6l-.717-2.259-.704 2.259v-3.6H0z" style="fill:#fff;fill-opacity:1;fill-rule:evenodd;stroke:none" transform="matrix(3.52778 0 0 -3.52778 55.968 133.405)"/>
  </g>
  <path d="M72.408 155.006h2.7v-21.601h-2.7z" style="fill:#fff;fill-opacity:1;fill-rule:nonzero;stroke:none"/>
  <g style="stroke:none">
    <path d="M0 0h.771l1.054-3.258V0h.759v-6.123h-.667L.771-2.498v-3.625H0z" style="fill:#fff;fill-opacity:1;fill-rule:evenodd;stroke:none" transform="matrix(3.52778 0 0 -3.52778 81.068 133.405)"/>
  </g>
  <g style="stroke:none">
    <path d="M0 0h.741c0-.594.233-.869.551-.869.349.006.539.281.539.691 0 .19-.043.405-.123.637-.275.79-.6 1.023-.998 1.439-.275.288-.618 1.017-.618 1.549 0 .833.637 1.286 1.218 1.286.649 0 1.213-.496 1.213-1.439h-.76c0 .49-.177.662-.447.662-.159 0-.453-.055-.453-.527 0-.3.129-.741.331-.912 1.01-.87 1.39-2.125 1.39-2.842 0-.526-.465-1.292-1.28-1.299C.643-1.624 0-1.255 0 0" style="fill:#fff;fill-opacity:1;fill-rule:evenodd;stroke:none" transform="matrix(3.52778 0 0 -3.52778 94.763 149.668)"/>
  </g>
  <g style="stroke:none">
    <path d="M0 0h.771l.735-2.192L2.155 0h.815v-6.123h-.747v3.6l-.717-2.259-.704 2.259v-3.6H0z" style="fill:#fff;fill-opacity:1;fill-rule:evenodd;stroke:none" transform="matrix(3.52778 0 0 -3.52778 116.537 133.405)"/>
  </g>
  <g style="stroke:none">
    <path d="m0 0 1.2 6.123h.766L3.257 0h-.783l-.343 1.543H1.072L.784 0zm1.249 2.302h.759l-.41 1.794z" style="fill:#fff;fill-opacity:1;fill-rule:evenodd;stroke:none" transform="matrix(3.52778 0 0 -3.52778 131.509 155.006)"/>
  </g>
  <g style="stroke:none">
    <path d="m0 0-1.023 3.037h.796L.404 1.28l.563 1.757h.796L.778 0l1.034-3.086h-.783L.404-1.188l-.612-1.898h-.815z" style="fill:#fff;fill-opacity:1;fill-rule:evenodd;stroke:none" transform="matrix(3.52778 0 0 -3.52778 149.63 144.12)"/>
  </g>
  <g style="stroke:none">
    <path d="M0 0v1.217h4.432V.403L1.025-6.306h3.451v-1.235H-.315v1.305L2.838 0z" style="fill:#fff;fill-opacity:1;fill-rule:evenodd;stroke:none" transform="matrix(3.52778 0 0 -3.52778 48.024 60.48)"/>
  </g>
  <path d="M77.502 87.675c-6.858 0-8.96-7.204-8.96-16.073 0-8.865 2.038-16.037 9.02-16.037 7.016 0 8.837 7.172 8.837 16.037 0 9.857-2.688 16.073-8.897 16.073m0-4.456c3.52 0 4.604-5.13 4.604-11.617 0-6.52-.988-11.74-4.604-11.74s-4.572 5.22-4.572 11.74c0 6.488.8 11.617 4.572 11.617" style="fill:#fff;fill-opacity:1;fill-rule:evenodd;stroke:none"/>
  <g style="stroke:none">
    <path d="M0 0h1.2l2.321-5.063V0h1.27v-8.759h-.99L1.2-3.004v-5.755H0z" style="fill:#fff;fill-opacity:1;fill-rule:evenodd;stroke:none" transform="matrix(3.52778 0 0 -3.52778 91.313 56.182)"/>
  </g>
  <g style="stroke:none">
    <path d="M0 0h4.239v-1.235H1.2v-2.198h1.865v-1.2H1.2v-2.891h3.179v-1.235H0z" style="fill:#fff;fill-opacity:1;fill-rule:evenodd;stroke:none" transform="matrix(3.52778 0 0 -3.52778 114.61 56.182)"/>
  </g>
  <g style="stroke:none">
    <path d="M0 0h1.244v-7.602h3.135v-1.157H0z" style="fill:#fff;fill-opacity:1;fill-rule:evenodd;stroke:none" transform="matrix(3.52778 0 0 -3.52778 21.004 19.169)"/>
  </g>
  <g style="stroke:none">
    <path d="M0 0c-1.944 0-2.54 2.042-2.54 4.556 0 2.513.578 4.546 2.557 4.546 1.989 0 2.505-2.033 2.505-4.546C2.522 1.762 1.76 0 0 0m0 1.263c.998 0 1.305 1.453 1.305 3.293 0 1.848-.28 3.328-1.305 3.328s-1.296-1.48-1.296-3.328c0-1.84.227-3.293 1.296-3.293" style="fill:#fff;fill-opacity:1;fill-rule:evenodd;stroke:none" transform="matrix(3.52778 0 0 -3.52778 48.38 50.661)"/>
  </g>
  <g style="stroke:none">
    <path d="M0 0h1.217L.613 2.356zm-2.076-3.643L0 5.115h1.217l2.181-8.758H2.163l-.63 2.434h-1.77l-.578-2.434z" style="fill:#fff;fill-opacity:1;fill-rule:evenodd;stroke:none" transform="matrix(3.52778 0 0 -3.52778 68.03 37.213)"/>
  </g>
  <g style="stroke:none">
    <path d="M0 0c2.269 0 2.812-1.848 2.812-4.143 0-2.671-.421-4.616-2.812-4.616h-1.979V0zm-.044-1.209h-.727v-6.315H.07c1.41 0 1.489 1.472 1.489 2.856v.499c0 1.541-.123 2.96-1.603 2.96" style="fill:#fff;fill-opacity:1;fill-rule:evenodd;stroke:none" transform="matrix(3.52778 0 0 -3.52778 91.821 19.169)"/>
  </g>
  <path d="M106.652 50.069h4.326V19.17h-4.326z" style="fill:#fff;fill-opacity:1;fill-rule:nonzero;stroke:none"/>
  <g style="stroke:none">
    <path d="M0 0h1.2l2.321-5.063V0h1.27v-8.759h-.99L1.2-3.004v-5.755H0z" style="fill:#fff;fill-opacity:1;fill-rule:evenodd;stroke:none" transform="matrix(3.52778 0 0 -3.52778 117.404 19.169)"/>
  </g>
  <g style="stroke:none">
    <path d="M0 0c0 .648-.411 1.016-1.042 1.016-1.183 0-1.235-2.058-1.235-3.118v-.534c0-.999.044-2.987 1.235-2.987.49 0 1.103.455 1.103.963v.99H-.99v1.262h2.234v-1.735c0-.368-.079-1.164-.237-1.497-.298-.631-1.033-1.193-2.049-1.193-2.19 0-2.488 2.752-2.488 4.425 0 1.9.237 4.677 2.488 4.677 1.235 0 2.303-.99 2.303-2.269z" style="fill:#fff;fill-opacity:1;fill-rule:evenodd;stroke:none" transform="matrix(3.52778 0 0 -3.52778 151.673 26.556)"/>
  </g>
  <g style="stroke:none;fill:#c0111e;fill-opacity:1">
    <path d="m0 0 4.385 3.507h4.822l-2.74-2.192h20.934v-2.63H6.467l2.74-2.192H4.385z" style="fill:#c0111e;fill-opacity:1;fill-rule:evenodd;stroke:none" transform="matrix(3.52778 0 0 -3.52778 40.284 328.065)"/>
  </g>
</svg>
