<svg xmlns="http://www.w3.org/2000/svg" viewBox="0 0 606 1006" role="img" aria-labelledby="title">
  <title id="title">Verkehrszeichen R4-12[30] - End of 30&amp;nbsp;km/h Speed Limit</title>
  <g transform="translate(0 709)">
    <rect width="604" height="1004" x="1" y="-708" rx="52" ry="52" style="opacity:1;fill:#000;fill-opacity:1;fill-rule:nonzero;stroke:none;stroke-width:201.47523499;stroke-linecap:square;stroke-linejoin:round;stroke-miterlimit:4;stroke-dasharray:none;stroke-opacity:1"/>
    <rect width="600" height="1000" x="3" y="-706" rx="50" ry="50" style="opacity:1;fill:#fff;fill-opacity:1;fill-rule:nonzero;stroke:none;stroke-width:200.40658569;stroke-linecap:square;stroke-linejoin:round;stroke-miterlimit:4;stroke-dasharray:none;stroke-opacity:1"/>
    <circle cx="303" cy="-89" r="282" style="opacity:1;fill:#000;fill-opacity:1;fill-rule:nonzero;stroke:none;stroke-width:148.7865448;stroke-linecap:square;stroke-linejoin:round;stroke-miterlimit:4;stroke-dasharray:none;stroke-opacity:1"/>
    <circle cx="303" cy="-89" r="237" style="opacity:1;fill:#fff;fill-opacity:1;fill-rule:nonzero;stroke:none;stroke-width:125.04401398;stroke-linecap:square;stroke-linejoin:round;stroke-miterlimit:4;stroke-dasharray:none;stroke-opacity:1"/>
    <g aria-label="END" style="font-style:normal;font-variant:normal;font-weight:400;font-stretch:normal;font-size:238.80596924px;line-height:0;font-family:&quot;Roadgeek 2005 Series E&quot;;-inkscape-font-specification:&quot;Roadgeek 2005 Series E&quot;;letter-spacing:0;word-spacing:0;fill:#000;fill-opacity:1;stroke:none;stroke-width:5.97014904">
      <path d="M74-463v-160h116.776v28.657h-87.642v29.612h47.761v29.373h-47.76v43.701h90.507V-463zM330.944-463l-76.179-110.09V-463h-28.179v-160h28.18l73.313 105.552V-623h27.701v160zM526-543.239q0 24.12-9.791 42.03t-28.896 28.657q-8.358 4.776-18.149 7.164-9.79 2.388-19.582 2.388H398v-160h51.582q20.537 0 38.209 10.03 18.627 10.746 28.418 28.418Q526-567.12 526-543.24m-28.657 0q0-16.239-5.97-27.224-5.731-10.985-17.671-17.671-10.986-6.21-24.12-6.21h-22.448v102.687h22.448q12.657 0 23.164-6.209 24.597-12.895 24.597-45.373" style="font-style:normal;font-variant:normal;font-weight:400;font-stretch:normal;line-height:0;font-family:&quot;Roadgeek 2005 Series E&quot;;-inkscape-font-specification:&quot;Roadgeek 2005 Series E&quot;;fill:#000;stroke:none;stroke-width:5.97014904" transform="translate(3 -3)"/>
    </g>
    <path d="M276.203-49.576q0 17.637-5.88 32.507-5.878 14.87-16.599 25.59-10.374 10.375-25.244 16.6Q213.955 31 196.318 31q-14.179 0-26.628-4.496-12.104-4.495-22.478-12.45-10.03-7.953-17.292-19.365T119.2-30.902l35.965-10.375q4.15 16.946 15.217 25.937t27.665 8.991q9.337 0 16.946-3.112 7.608-3.112 12.795-8.3 5.533-5.533 8.645-12.795 3.113-7.608 3.113-16.6 0-8.991-3.458-16.945t-9.683-12.45q-2.075-1.383-3.804-2.074-1.384-1.038-3.804-1.384-2.075-.345-5.88-.691-3.458-.346-10.028-.692h-4.15v-37.349 1.038h8.991q11.067 0 16.946-5.88 5.878-5.878 5.878-16.944 0-13.487-9.683-22.133-9.337-8.991-23.515-8.991-23.17 0-34.928 22.824l-34.237-12.795q8.992-22.133 26.974-34.583Q173.494-209 196.318-209q14.525 0 27.32 5.533 13.141 5.533 22.824 15.216t15.216 22.825q5.534 12.795 5.534 27.32 0 10.374-2.767 18.674t-10.375 19.366q6.57 5.879 10.72 11.412 4.15 5.187 6.571 11.066 2.767 5.88 3.804 12.796 1.038 6.57 1.038 15.216M486.8-88.654q0 27.666-6.57 52.91-6.571 25.245-18.675 40.807Q442.19 31 405.532 31q-24.553 0-40.461-10.029t-26.282-31.47q-7.263-14.87-11.758-35.965-4.496-21.44-4.496-42.19 0-28.703 6.57-53.257 6.917-24.553 18.675-41.152 10.375-13.142 24.553-19.366Q386.858-209 406.915-209q22.133 0 37.695 10.029t26.628 31.47q7.262 15.562 11.412 36.31 4.15 20.75 4.15 42.537m-36.657 0q0-19.712-3.458-36.311-3.458-16.946-10.375-28.704-5.533-8.99-12.795-13.14-6.917-4.15-17.291-4.842-13.487-.692-22.479 6.225t-14.87 22.478q-4.496 10.375-6.916 25.245-2.075 14.524-2.075 29.049 0 18.674 3.458 35.965t10.375 28.358q5.533 8.991 13.14 13.487 7.609 4.495 18.675 4.495 12.796 0 21.095-6.916 8.646-6.917 14.525-22.479 1.729-4.495 3.458-10.72 1.729-6.57 2.766-13.487 1.384-7.262 2.075-14.524.692-7.263.692-14.18" style="font-style:normal;font-variant:normal;font-weight:400;font-stretch:normal;font-size:345.82131958px;line-height:0;font-family:&quot;Roadgeek 2005 Series D&quot;;-inkscape-font-specification:&quot;Roadgeek 2005 Series D&quot;;letter-spacing:0;word-spacing:0;fill:#000;fill-opacity:1;stroke:none;stroke-width:8.64553261"/>
  </g>
</svg>
