<svg xmlns="http://www.w3.org/2000/svg" viewBox="0 0 1296.063 435.719" role="img" aria-labelledby="title">
  <title id="title">Verkehrszeichen R7-4 - End</title>
  <path d="M129.509 432.907h1034.917c70.962 0 128.808-63.3 128.808-127.664V130.564c0-70.962-57.846-127.743-128.808-127.743H129.509C60.74 2.821 2.83 59.601 2.83 130.564v174.68c0 64.364 57.911 127.663 126.679 127.663z" style="fill:#fff;fill-opacity:1;fill-rule:evenodd;stroke:#000;stroke-width:5.64444494;stroke-linecap:butt;stroke-linejoin:miter;stroke-miterlimit:7.04349995;stroke-opacity:1;stroke-dasharray:none"/>
  <path d="M132.768 415.466h1029.463c63.3 0 113.56-56.78 113.56-113.561V132.68c0-62.156-50.26-112.43-113.56-112.43H132.768c-62.247 0-112.43 50.274-112.43 112.43v169.225c0 56.78 50.183 113.56 112.43 113.56" style="fill:#000;fill-opacity:1;fill-rule:evenodd;stroke:none"/>
  <path d="M129.509 381.66h1034.917c42.612 0 76.417-41.547 76.417-76.417V130.564c0-42.598-33.806-76.417-76.417-76.417H129.509c-41.468 0-75.353 33.819-75.353 76.417v174.68c0 34.87 33.885 76.416 75.353 76.416" style="fill:#fff;fill-opacity:1;fill-rule:evenodd;stroke:none"/>
  <path d="M388.412 132.089h123.064v29.85H417.54v34.225h50.97v29.862h-50.97v48.054h97.578v29.862H388.412zM566.81 132.089h28.405l78.638 113.6v-113.6h29.85v171.853H676.77l-80.834-116.505v116.505h-29.126zM769.25 132.089h55.347c52.417 0 81.543 42.23 81.543 86.656 0 45.148-29.126 85.197-77.18 85.197h-59.71zm29.126 141.99h32.044c28.39 0 46.594-29.126 46.594-55.334 0-29.126-19.65-56.807-48.776-56.807h-29.862z" style="fill:#000;fill-opacity:1;fill-rule:evenodd;stroke:none"/>
</svg>
