<svg xmlns="http://www.w3.org/2000/svg" viewBox="0 0 606 406" role="img" aria-labelledby="title">
  <title id="title">Verkehrszeichen R4-3 - Road Work</title>
  <g transform="translate(0 109)">
    <rect width="604" height="404" x="1" y="-108" rx="52" ry="52" style="opacity:1;fill:#000;fill-opacity:1;fill-rule:nonzero;stroke:none;stroke-width:24.65286446;stroke-linecap:square;stroke-linejoin:round;stroke-miterlimit:4;stroke-dasharray:none;stroke-dashoffset:0;stroke-opacity:1"/>
    <rect width="600" height="400" x="3" y="-106" rx="50" ry="50" style="opacity:1;fill:#fff;fill-opacity:1;fill-rule:nonzero;stroke:none;stroke-width:24.4491539;stroke-linecap:square;stroke-linejoin:round;stroke-miterlimit:4;stroke-dasharray:none;stroke-dashoffset:0;stroke-opacity:1"/>
    <rect width="584" height="384" x="11" y="-98" rx="42" ry="42" style="opacity:1;fill:#000;fill-opacity:1;fill-rule:nonzero;stroke:none;stroke-width:23.63361931;stroke-linecap:square;stroke-linejoin:round;stroke-miterlimit:4;stroke-dasharray:none;stroke-dashoffset:0;stroke-opacity:1"/>
    <rect width="552" height="352" x="27" y="-82" rx="26" ry="26" style="opacity:1;fill:#fff;fill-opacity:1;fill-rule:nonzero;stroke:none;stroke-width:21.99880409;stroke-linecap:square;stroke-linejoin:round;stroke-miterlimit:4;stroke-dasharray:none;stroke-dashoffset:0;stroke-opacity:1"/>
    <g aria-label="ROAD" style="font-style:normal;font-variant:normal;font-weight:400;font-stretch:normal;font-size:144.09222412px;line-height:0;font-family:&quot;Roadgeek 2005 Series E&quot;;-inkscape-font-specification:&quot;Roadgeek 2005 Series E&quot;;letter-spacing:0;word-spacing:0;fill:#000;fill-opacity:1;stroke:none;stroke-width:3.60230541">
      <path d="m164.646 67.27-15.562-37.895H123.29V67.27H106v-96.542h44.38q5.332 0 9.078.865 3.747.864 7.493 3.17 6.916 3.746 10.951 10.518T181.937.268t-4.18 14.986q-4.034 6.628-11.526 10.662l17.723 41.355zm0-67.002q0-5.62-3.747-8.934t-10.23-3.314H123.29v24.064h27.378q6.484 0 10.23-3.17 3.747-3.315 3.747-8.646M285.602 18.424q0 11.383-2.882 20.749-2.738 9.222-7.925 15.85t-12.68 10.375Q254.766 69 245.545 69q-10.664 0-18.445-4.323-7.637-4.467-12.68-11.527-5.043-7.205-7.493-16.138-2.305-9.078-2.305-18.156 0-11.528 2.738-20.75 2.881-9.221 8.213-15.706t12.824-9.942Q236.034-31 245.544-31q8.934 0 16.283 3.602 7.348 3.603 12.68 10.087t8.213 15.706q2.882 9.078 2.882 20.029m-17.291.432q0-15.274-5.908-23.92-5.908-8.645-16.859-8.645-10.95 0-17.147 8.646-6.196 8.645-6.196 23.919 0 15.562 6.196 24.207t17.147 8.646q6.917 0 11.24-3.026 4.466-3.026 6.916-7.781 2.593-4.755 3.602-10.519 1.009-5.907 1.009-11.527M383.292 67.27l-9.51-22.766h-42.075l-9.366 22.767h-19.02l40.633-96.542h17.58l40.345 96.542zM352.744-5.206l-13.545 32.564h27.09zM500 18.856q0 14.553-5.907 25.36-5.908 10.807-17.436 17.291-5.043 2.882-10.95 4.323-5.908 1.44-11.816 1.44h-31.124v-96.54h31.124q12.392 0 23.055 6.05 11.239 6.485 17.147 17.148Q500 4.447 500 18.856m-17.29 0q0-9.798-3.603-16.427-3.458-6.628-10.663-10.663-6.628-3.746-14.553-3.746h-13.545v61.96h13.545q7.637 0 13.977-3.747 14.841-7.78 14.841-27.377" style="font-style:normal;font-variant:normal;font-weight:400;font-stretch:normal;line-height:0;font-family:&quot;Roadgeek 2005 Series E&quot;;-inkscape-font-specification:&quot;Roadgeek 2005 Series E&quot;;letter-spacing:4.27302074px;fill:#000;stroke:none;stroke-width:3.60230541"/>
      <g aria-label="WORK" style="font-style:normal;font-variant:normal;font-weight:400;font-stretch:normal;font-size:144.09222412px;line-height:0;font-family:&quot;Roadgeek 2005 Series E&quot;;-inkscape-font-specification:&quot;Roadgeek 2005 Series E&quot;;letter-spacing:4.63549995px;word-spacing:0;fill:#000;fill-opacity:1;stroke:none;stroke-width:12.97660542">
        <path d="M183.011 210.628h-18.3l-15.561-64.697-15.274 64.697h-18.3l-17.579-96.542h17.867l10.52 62.392 14.264-62.392h17.291l14.842 62.392 9.942-62.392h17.58zM299.136 161.78q0 11.384-2.881 20.75-2.738 9.222-7.925 15.85-5.188 6.628-12.68 10.375-7.35 3.602-16.571 3.602-10.663 0-18.444-4.323-7.637-4.466-12.68-11.527-5.043-7.205-7.493-16.138-2.305-9.078-2.305-18.156 0-11.527 2.737-20.75 2.882-9.221 8.214-15.705 5.331-6.484 12.824-9.943 7.637-3.458 17.147-3.458 8.933 0 16.282 3.602 7.349 3.603 12.68 10.087 5.332 6.484 8.214 15.706 2.881 9.078 2.881 20.029m-17.29.433q0-15.274-5.908-23.92-5.908-8.645-16.86-8.645-10.95 0-17.146 8.646-6.196 8.645-6.196 23.919 0 15.562 6.196 24.208t17.147 8.645q6.916 0 11.239-3.026 4.467-3.026 6.916-7.78 2.594-4.756 3.603-10.52 1.008-5.907 1.008-11.527M384.655 210.628l-15.562-37.896h-25.792v37.896H326.01v-96.542h44.38q5.332 0 9.078.865 3.746.864 7.493 3.17 6.916 3.746 10.95 10.519 4.035 6.772 4.035 14.985t-4.178 14.986q-4.035 6.628-11.528 10.663l17.724 41.354zm0-67.003q0-5.62-3.746-8.934t-10.23-3.314H343.3v24.064h27.377q6.485 0 10.23-3.17 3.747-3.314 3.747-8.646M488.257 210.628l-24.64-50.144-18.3 23.055v27.089h-17.291v-96.542h17.291v42.075l34.15-42.075H501.8l-25.648 31.556 31.844 64.986z" style="font-style:normal;font-variant:normal;font-weight:400;font-stretch:normal;line-height:0;font-family:&quot;Roadgeek 2005 Series E&quot;;-inkscape-font-specification:&quot;Roadgeek 2005 Series E&quot;;letter-spacing:4.63814592px;fill:#000;stroke:none;stroke-width:12.97660542" transform="translate(.003 6.643)"/>
      </g>
    </g>
  </g>
</svg>
