<svg xmlns="http://www.w3.org/2000/svg" viewBox="0 0 456 756" role="img" aria-labelledby="title">
  <title id="title">Verkehrszeichen R6-6 - Stop Here on Red Signal</title>
  <g transform="translate(0 459)">
    <rect width="454" height="754" x="1" y="-458" rx="47" ry="47" style="opacity:1;fill:#000;fill-opacity:1;fill-rule:nonzero;stroke:none;stroke-width:29.75765228;stroke-linecap:square;stroke-linejoin:round;stroke-miterlimit:4;stroke-dasharray:none;stroke-dashoffset:0;stroke-opacity:1"/>
    <rect width="450" height="750" x="3" y="-456" rx="45" ry="45" style="opacity:1;fill:#fff;fill-opacity:1;fill-rule:nonzero;stroke:none;stroke-width:29.54758263;stroke-linecap:square;stroke-linejoin:round;stroke-miterlimit:4;stroke-dasharray:none;stroke-dashoffset:0;stroke-opacity:1"/>
    <rect width="434" height="734" x="11" y="-448" rx="37" ry="37" style="opacity:1;fill:#be121e;fill-opacity:1;fill-rule:nonzero;stroke:none;stroke-width:28.70634842;stroke-linecap:square;stroke-linejoin:round;stroke-miterlimit:4;stroke-dasharray:none;stroke-dashoffset:0;stroke-opacity:1"/>
    <rect width="402" height="702" x="27" y="-432" rx="21" ry="21" style="opacity:1;fill:#fff;fill-opacity:1;fill-rule:nonzero;stroke:none;stroke-width:27.01883698;stroke-linecap:square;stroke-linejoin:round;stroke-miterlimit:4;stroke-dasharray:none;stroke-dashoffset:0;stroke-opacity:1"/>
    <g aria-label="STOP" style="font-style:normal;font-variant:normal;font-weight:400;font-stretch:normal;font-size:172.91065979px;line-height:0;font-family:&quot;Roadgeek 2005 Series C&quot;;-inkscape-font-specification:&quot;Roadgeek 2005 Series C&quot;;letter-spacing:0;word-spacing:0;fill:#000;fill-opacity:1;stroke:none;stroke-width:4.3227663">
      <path d="M142.669-304.718q0 7.09-2.594 13.315-2.42 6.051-6.916 10.547-4.323 4.496-10.202 7.262Q117.25-271 110.507-271q-7.608 0-13.66-2.94t-10.201-7.953-6.398-11.585T78-307.138h16.254q0 3.63.864 7.262 1.038 3.458 2.94 6.398 2.075 2.766 5.014 4.495 3.112 1.73 7.435 1.73 3.286 0 6.225-1.384 3.112-1.383 5.187-3.804 2.248-2.42 3.459-5.533 1.383-3.285 1.383-6.744 0-5.014-2.075-8.818-2.075-3.977-7.262-7.954-.865-.864-.692-.864.173-.173-1.037-1.038-1.21-.864-5.188-3.285-3.804-2.594-12.622-8.646-7.09-4.841-10.72-11.239-3.459-6.57-3.459-14.352 0-6.224 2.248-11.585 2.248-5.533 6.225-9.683 4.15-4.15 9.51-6.397 5.36-2.421 11.585-2.421t11.412 2.248q5.36 2.248 9.164 6.225 3.977 3.977 6.225 9.51 2.42 5.533 2.594 12.103H126.76q-.346-6.051-4.15-9.683-3.804-3.63-9.337-3.63-5.706 0-9.683 3.803t-3.977 9.51q0 4.323 2.248 7.263t8.645 6.57q16.773 9.683 24.38 19.712 7.782 10.029 7.782 22.651M190.906-373.536v100.461h-16.773v-100.461h-21.095v-15.39h58.963v15.39zM293.737-331.173q0 13.314-1.556 22.651-1.384 9.338-5.015 17.637-4.322 10.375-10.893 15.216Q269.875-271 260.019-271q-10.374 0-16.945-4.669-6.398-4.841-10.72-15.216-3.632-8.472-5.188-17.637-1.383-9.337-1.383-22.65 0-13.142 1.383-22.48 1.556-9.51 5.188-17.81 4.495-10.374 10.893-14.87 6.57-4.668 16.772-4.668 10.03 0 16.427 4.669 6.398 4.495 10.72 15.216 1.73 4.322 2.94 8.645 1.383 4.323 2.075 9.165.864 4.668 1.21 10.201.346 5.36.346 11.931m-15.908 0q0-4.841-.346-8.818-.173-3.977-.691-7.263-.346-3.458-1.038-6.57-.691-3.113-1.556-6.225-2.248-7.781-5.706-11.24-3.285-3.457-8.473-3.457-10.72 0-14.697 14.351-2.075 6.57-2.94 13.314-.691 6.57-.691 16.254 0 4.669.173 8.645.345 3.804.691 7.263.519 3.285 1.21 6.57.692 3.286 1.557 6.744 3.977 14.351 14.697 14.351 5.188 0 8.473-3.458 3.458-3.458 5.706-10.893 1.037-3.458 1.73-6.57.69-3.286 1.037-6.744.518-3.459.691-7.263.173-3.976.173-8.99M382-356.418q0 15.908-7.954 24.208-7.78 8.3-22.478 8.3h-17.983v50.835h-16.6v-115.85h34.583q6.743 0 12.276 2.42 5.706 2.249 9.683 6.571 4.15 4.15 6.225 10.202Q382-363.68 382-356.418m-16.254 0q0-7.262-4.15-11.758t-10.893-4.495h-17.118v32.853h17.118q7.262 0 11.066-4.323 3.977-4.323 3.977-12.277" style="font-style:normal;font-variant:normal;font-weight:400;font-stretch:normal;line-height:0;font-family:&quot;Roadgeek 2005 Series C&quot;;-inkscape-font-specification:&quot;Roadgeek 2005 Series C&quot;;letter-spacing:-.02645833px;fill:#be121e;fill-opacity:1;stroke:none;stroke-width:4.3227663"/>
      <g aria-label="HERE" style="font-style:normal;font-variant:normal;font-weight:400;font-stretch:normal;font-size:179.10447693px;line-height:0;font-family:&quot;Roadgeek 2005 Series C&quot;;-inkscape-font-specification:&quot;Roadgeek 2005 Series C&quot;;letter-spacing:0;word-spacing:0;fill:#000;fill-opacity:1;stroke:none;stroke-width:19.35567093">
        <path d="M127.15-91v-54.269H94.193V-91H77v-120h17.194v48.896h32.955V-211h17.194v120zM168.037-91v-120h56.418v16.836h-39.224v30.268h24.896v16.478h-24.896v39.582h43.881V-91ZM296.447-91l-15.94-56.418h-16.478V-91h-17.194v-120h35.82q6.986 0 12.717 2.328 5.91 2.329 10.03 6.448 4.299 4.12 6.448 10.21 2.328 5.91 2.328 13.074 0 10.746-4.298 18.268-4.299 7.523-12.896 10.747L314.178-91Zm.895-87.94q0-6.985-4.298-11.105-4.299-4.12-11.284-4.12H264.03v30.27h17.731q7.523 0 11.463-3.762 4.12-3.94 4.12-11.283M331.926-91v-120h56.418v16.836H349.12v30.268h24.895v16.478H349.12v39.582H393V-91Z" style="font-style:normal;font-variant:normal;font-weight:400;font-stretch:normal;line-height:0;font-family:&quot;Roadgeek 2005 Series C&quot;;-inkscape-font-specification:&quot;Roadgeek 2005 Series C&quot;;letter-spacing:-2.36272907px;fill:#be121e;fill-opacity:1;stroke:none;stroke-width:19.35567093"/>
        <g aria-label="ON" style="font-style:normal;font-variant:normal;font-weight:400;font-stretch:normal;font-size:144.09222412px;line-height:0;font-family:&quot;Roadgeek 2005 Series C&quot;;-inkscape-font-specification:&quot;Roadgeek 2005 Series C&quot;;letter-spacing:0;word-spacing:0;fill:#000;fill-opacity:1;stroke:none;stroke-width:69.72503662">
          <path d="M102.628 18.856q0 11.095-1.297 18.876-1.152 7.781-4.178 14.697-3.603 8.646-9.078 12.68Q82.744 69 74.53 69q-8.645 0-14.12-3.89-5.332-4.035-8.934-12.68-3.026-7.061-4.323-14.698Q46 29.951 46 18.856 46 7.905 47.153.124q1.297-7.925 4.323-14.842 3.746-8.645 9.077-12.392Q66.03-31 74.53-31q8.358 0 13.689 3.89 5.331 3.747 8.934 12.68 1.44 3.603 2.45 7.205 1.152 3.603 1.728 7.637.72 3.89 1.01 8.502.287 4.466.287 9.942m-13.256 0q0-4.035-.288-7.349-.145-3.314-.577-6.052-.288-2.882-.864-5.475-.577-2.594-1.297-5.187-1.873-6.485-4.755-9.366-2.738-2.882-7.06-2.882-8.934 0-12.249 11.96-1.729 5.475-2.45 11.094-.576 5.476-.576 13.545 0 3.89.145 7.205.288 3.17.576 6.052.432 2.737 1.009 5.475.576 2.738 1.296 5.62 3.315 11.96 12.248 11.96 4.323 0 7.06-2.883 2.883-2.881 4.756-9.077.864-2.882 1.44-5.476.577-2.738.865-5.62.433-2.881.577-6.051.144-3.314.144-7.493M163.482 67.27 133.655 2.574v64.698h-13.833v-96.542h13.833l26.512 57.925V-29.27H174v96.542z" style="font-style:normal;font-variant:normal;font-weight:400;font-stretch:normal;line-height:0;font-family:&quot;Roadgeek 2005 Series C&quot;;-inkscape-font-specification:&quot;Roadgeek 2005 Series C&quot;;fill:#be121e;fill-opacity:1;stroke:none;stroke-width:69.72503662"/>
          <g aria-label="RED" style="font-style:normal;font-variant:normal;font-weight:400;font-stretch:normal;font-size:149.2537384px;line-height:0;font-family:&quot;Roadgeek 2005 Series C&quot;;-inkscape-font-specification:&quot;Roadgeek 2005 Series C&quot;;letter-spacing:0;word-spacing:0;fill:#000;fill-opacity:1;stroke:none;stroke-width:260.1680603">
            <path d="M259.343 69 246.06 21.985h-13.732V69H218V-31h29.85q5.822 0 10.598 1.94 4.925 1.94 8.358 5.373 3.582 3.433 5.373 8.508 1.94 4.925 1.94 10.895 0 8.956-3.582 15.224t-10.746 8.956L274.119 69Zm.747-73.284q0-5.82-3.583-9.253-3.582-3.433-9.403-3.433h-14.776V8.254h14.776q6.27 0 9.553-3.135 3.433-3.283 3.433-9.403M288.565 69V-31h47.015v14.03h-32.687V8.254h20.746v13.731h-20.746V54.97h36.567V69ZM410 18.85q0 34.33-14.329 45.523-2.686 2.537-6.268 3.582Q385.82 69 381.64 69h-27.76V-31h25.522q6.417 0 10 .896 3.582.895 6.268 2.985 4.478 3.134 7.463 8.806 3.134 5.671 4.478 13.283 1.044 5.523 1.641 11.791.747 6.269.747 12.09m-14.03.747q0-8.507-.747-15.82-.746-7.464-2.09-10.598-3.432-10.15-12.984-10.15h-11.94V54.97h11.94q3.134 0 5.522-1.194 2.538-1.194 4.329-3.134t2.835-4.478q1.194-2.686 1.791-5.522.448-4.776.896-10 .448-5.373.448-11.045" style="font-style:normal;font-variant:normal;font-weight:400;font-stretch:normal;line-height:0;font-family:&quot;Roadgeek 2005 Series C&quot;;-inkscape-font-specification:&quot;Roadgeek 2005 Series C&quot;;letter-spacing:-2.31510425px;fill:#be121e;fill-opacity:1;stroke:none;stroke-width:260.1680603"/>
          </g>
        </g>
      </g>
    </g>
    <g aria-label="SIGNAL" style="font-style:normal;font-variant:normal;font-weight:400;font-stretch:normal;font-size:144.09222412px;line-height:0;font-family:&quot;Roadgeek 2005 Series C&quot;;-inkscape-font-specification:&quot;Roadgeek 2005 Series C&quot;;letter-spacing:-.05027083px;word-spacing:0;fill:#000;fill-opacity:1;stroke:none;stroke-width:3.60230541">
      <path d="M-446.371 190.283q0 5.908-2.162 11.095-2.017 5.043-5.763 8.79-3.603 3.746-8.502 6.052-4.755 2.161-10.375 2.161-6.34 0-11.383-2.45t-8.501-6.628-5.332-9.654-1.873-11.383h13.545q0 3.026.72 6.052.865 2.881 2.45 5.331 1.729 2.305 4.178 3.746 2.594 1.441 6.196 1.441 2.738 0 5.188-1.152 2.593-1.153 4.323-3.17 1.873-2.018 2.881-4.611 1.153-2.738 1.153-5.62 0-4.179-1.729-7.349-1.73-3.314-6.052-6.628-.72-.72-.576-.72.144-.145-.865-.865t-4.323-2.738q-3.17-2.161-10.518-7.204-5.908-4.035-8.934-9.366-2.882-5.476-2.882-11.96 0-5.187 1.873-9.654 1.874-4.611 5.188-8.07 3.458-3.458 7.925-5.33 4.467-2.018 9.654-2.018t9.51 1.873q4.467 1.873 7.637 5.187 3.314 3.315 5.187 7.926 2.018 4.61 2.162 10.086h-13.257q-.288-5.043-3.458-8.07-3.17-3.025-7.781-3.025-4.755 0-8.07 3.17-3.313 3.17-3.313 7.925 0 3.602 1.873 6.052t7.204 5.475q13.977 8.07 20.317 16.427 6.485 8.357 6.485 18.876M-430.265 216.652V120.11h13.544v96.542zM-343.257 189.85q0 5.044-.576 8.502-.577 3.458-2.162 6.484-2.881 6.34-8.501 9.943-5.476 3.602-12.824 3.602-8.646 0-14.986-4.179-6.196-4.178-9.798-12.392-2.306-5.475-3.747-14.553-1.296-9.222-1.296-18.732 0-10.23.864-17.867 1.009-7.781 3.602-14.698 1.297-3.746 3.603-6.916 2.45-3.314 5.62-5.62 3.17-2.45 7.06-3.746 3.89-1.297 8.07-1.297 5.186 0 9.653 1.873 4.467 1.73 7.781 5.043 3.314 3.17 5.332 7.781 2.017 4.467 2.305 9.799h-13.833q-.288-4.9-3.458-7.925-3.026-3.026-8.07-3.026-7.204 0-10.95 7.204-2.017 3.603-3.17 11.095-1.153 7.349-1.153 15.995 0 6.051.432 12.247.577 6.196 1.585 11.816 1.585 7.06 5.044 10.807 3.602 3.746 9.222 3.746 10.518 0 10.518-14.985v-6.34h-10.95v-13.545h24.783zM-280.325 216.652l-29.827-64.698v64.698h-13.833V120.11h13.833l26.513 57.925V120.11h13.832v96.542zM-208.544 216.652l-6.773-26.369h-20.749l-6.34 26.369h-13.977l24.063-96.542h13.545l24.064 96.542zm-17.291-67.723-6.773 27.81h13.833zM-181.397 216.652V120.11h13.833v83.718h35.302v12.824z" style="font-style:normal;font-variant:normal;font-weight:400;font-stretch:normal;line-height:0;font-family:&quot;Roadgeek 2005 Series C&quot;;-inkscape-font-specification:&quot;Roadgeek 2005 Series C&quot;;letter-spacing:-.05027083px;fill:#be121e;fill-opacity:1;stroke:none;stroke-width:3.60230541" transform="translate(544.262 10.619)"/>
    </g>
  </g>
</svg>
