<svg xmlns="http://www.w3.org/2000/svg" xmlns:xlink="http://www.w3.org/1999/xlink" viewBox="0 0 1350 675" role="img" aria-labelledby="title">
  <title id="title">Verkehrszeichen R6-21__2 - End Motorway</title>
  <defs>
    <path id="a" d="M2.438 0v-18.922h13.828v3.39H5.922v3.516h5.64v3.47h-5.64v5.155h10.687V0Zm0 0"/>
    <path id="b" d="M14.828 0 5.781-13.016V0H2.438v-18.922H5.78L14.47-6.437v-12.485h3.265V0Zm0 0"/>
    <path id="c" d="M17.61-9.484q0 1.629-.376 2.953a9.7 9.7 0 0 1-1.015 2.39 8 8 0 0 1-1.516 1.844 9.4 9.4 0 0 1-1.875 1.281 8.8 8.8 0 0 1-2.094.766A9.4 9.4 0 0 1 8.578 0h-6.14v-18.922h6.14q.95 0 2 .235a8.6 8.6 0 0 1 2.047.718 8.8 8.8 0 0 1 1.906 1.25 8 8 0 0 1 1.594 1.813q.685 1.049 1.078 2.39c.27.899.406 1.907.406 3.032m-3.422 0q-.001-1.185-.266-2.11-.269-.92-.719-1.578a4.8 4.8 0 0 0-1.015-1.125 5.6 5.6 0 0 0-1.204-.719 5 5 0 0 0-1.25-.39 6 6 0 0 0-1.156-.125H5.922v12.14h2.656q.375 0 .938-.093a5.7 5.7 0 0 0 1.203-.344 5.7 5.7 0 0 0 1.234-.688q.622-.434 1.125-1.109.498-.668.797-1.625.312-.95.313-2.234m0 0"/>
    <path id="d" d="M14.031 0v-10.953L9.656 0l-4.39-10.953V0h-3v-18.922h3l4.39 10.625 4.375-10.625H17V0Zm0 0"/>
    <path id="e" d="M15.328-9.437q0 1.126-.14 2.234-.141 1.097-.422 2.094a12.5 12.5 0 0 1-.657 1.843q-.377.863-.859 1.485-.843 1.094-1.969 1.61-1.125.498-2.625.5c-.68 0-1.289-.071-1.828-.204a5.2 5.2 0 0 1-1.469-.61 5 5 0 0 1-1.187-1.062 8 8 0 0 1-.938-1.5 9 9 0 0 1-.562-1.36c-.168-.5-.309-1.023-.422-1.577a17.5 17.5 0 0 1-.36-3.453q0-1.155.141-2.25.14-1.11.406-2.094.264-.984.657-1.844.387-.855.875-1.5.81-1.124 2-1.61 1.185-.498 2.828-.5c.875 0 1.64.15 2.297.438a5.5 5.5 0 0 1 1.719 1.172 6.5 6.5 0 0 1 1.218 1.719q.482.973.766 2.062.294 1.096.406 2.235.124 1.127.125 2.172m-3.031 0c0-.364-.024-.782-.063-1.25a12 12 0 0 0-.187-1.47c-.086-.5-.203-.988-.36-1.468a4.6 4.6 0 0 0-.64-1.297 3.2 3.2 0 0 0-.938-.922c-.367-.226-.804-.344-1.312-.344q-.626.001-1.094.125a2.5 2.5 0 0 0-.844.407q-.362.281-.656.734c-.187.293-.367.64-.531 1.047a8 8 0 0 0-.313.953c-.086.344-.156.711-.218 1.094-.063.387-.118.781-.157 1.187a16 16 0 0 0-.046 1.204c0 .5.023 1 .078 1.5q.077.75.218 1.437.154.69.36 1.281.2.598.468 1.032.451.768 1.079 1.109c.414.23.922.344 1.515.344q1.06 0 1.75-.563.685-.574 1.188-1.828.14-.374.265-.875.14-.515.235-1.094.094-.574.14-1.172.061-.609.063-1.171m0 0"/>
    <path id="f" d="M7.875-16.266V0H4.891v-16.266H.547v-2.656h11.719v2.656zm0 0"/>
    <path id="g" d="M11.906 0 8.86-8.219H5.266V0h-3v-18.922h6.89q1.077.001 1.906.266a4.9 4.9 0 0 1 1.47.703c.413.293.765.625 1.046 1q.435.55.703 1.14.264.599.375 1.172c.07.375.11.72.11 1.032q-.001.737-.22 1.468-.221.72-.608 1.36-.377.626-.922 1.14-.532.503-1.188.813L15.172 0Zm-.172-13.61q0-.468-.187-.89a2.15 2.15 0 0 0-.5-.734 2.2 2.2 0 0 0-.781-.516 2.6 2.6 0 0 0-1.016-.203H5.266v4.672h3.968q.545 0 1-.188c.313-.125.579-.289.797-.5q.34-.311.516-.734.187-.436.187-.906m0 0"/>
    <path id="h" d="M14.594 0h-2.656l-3-12.172L6 0H3.36L.546-18.922h3.078l1.438 9.969 2.406-9.969h2.937l2.438 9.969 1.453-9.969h3.047zm0 0"/>
    <path id="i" d="m13.375 0-1.844-5.344H5.625L3.765 0H.548l6.531-18.922h2.984L16.579 0ZM8.594-13.672 6.672-8.375h3.781zm0 0"/>
    <path id="j" d="M10.203-8.219V0H7.22v-8.219L.547-18.922h3.61l4.515 7.281 4.578-7.28h3.516zm0 0"/>
  </defs>
  <path fill="#225a33" fill-rule="evenodd" stroke="#225a33" stroke-linecap="round" stroke-linejoin="round" stroke-miterlimit="10" stroke-width=".476" d="M1349.762 112.194c0-61.932-50.537-111.956-112.46-111.956H112.233C50.28.238.238 50.262.238 112.194V562.34c0 61.932 50.041 112.42 111.995 112.42h1125.069c61.923 0 112.46-50.488 112.46-112.42zm0 0" style="fill:#006330;fill-opacity:1"/>
  <path fill="none" stroke="#fff" stroke-linecap="round" stroke-linejoin="round" stroke-miterlimit="10" stroke-width="23.822" d="M1314.023 112.659c0-42.394-34.312-76.198-76.721-76.198H112.699c-42.41 0-76.256 33.804-76.256 76.198v449.217c0 42.394 33.846 76.694 76.256 76.694h1124.603c42.409 0 76.72-34.3 76.72-76.694zm0 0"/>
  <g fill="#fff" transform="matrix(7.94202 0 0 7.93922 -1929.674 -2463.928)">
    <use xlink:href="#a" x="298.98" y="346.68"/>
    <use xlink:href="#b" x="316.929" y="346.68"/>
    <use xlink:href="#c" x="337.112" y="346.68"/>
  </g>
  <g fill="#fff" transform="matrix(7.94202 0 0 7.93922 -1929.674 -2463.928)">
    <use xlink:href="#d" x="259.681" y="377.099"/>
    <use xlink:href="#e" x="278.944" y="377.099"/>
    <use xlink:href="#f" x="296.158" y="377.099"/>
    <use xlink:href="#e" x="308.982" y="377.099"/>
    <use xlink:href="#g" x="326.196" y="377.099"/>
    <use xlink:href="#h" x="342.279" y="377.099"/>
    <use xlink:href="#i" x="360.228" y="377.099"/>
    <use xlink:href="#j" x="377.363" y="377.099"/>
  </g>
</svg>
