<svg xmlns="http://www.w3.org/2000/svg" viewBox="0 0 606 406" role="img" aria-labelledby="title">
  <title id="title">Verkehrszeichen R9-236-NSW - Railway Crossing (used in NSW)</title>
  <g transform="translate(0 109)">
    <rect width="604" height="404" x="1" y="-108" rx="52" ry="52" style="opacity:1;fill:#000;fill-opacity:1;fill-rule:nonzero;stroke:none;stroke-width:24.65286446;stroke-linecap:square;stroke-linejoin:round;stroke-miterlimit:4;stroke-dasharray:none;stroke-dashoffset:0;stroke-opacity:1"/>
    <rect width="600" height="400" x="3" y="-106" rx="50" ry="50" style="opacity:1;fill:#fff;fill-opacity:1;fill-rule:nonzero;stroke:none;stroke-width:24.4491539;stroke-linecap:square;stroke-linejoin:round;stroke-miterlimit:4;stroke-dasharray:none;stroke-dashoffset:0;stroke-opacity:1"/>
    <rect width="584" height="384" x="11" y="-98" rx="42" ry="42" style="opacity:1;fill:#000;fill-opacity:1;fill-rule:nonzero;stroke:none;stroke-width:23.63361931;stroke-linecap:square;stroke-linejoin:round;stroke-miterlimit:4;stroke-dasharray:none;stroke-dashoffset:0;stroke-opacity:1"/>
    <rect width="552" height="352" x="27" y="-82" rx="26" ry="26" style="opacity:1;fill:#fff;fill-opacity:1;fill-rule:nonzero;stroke:none;stroke-width:21.99880409;stroke-linecap:square;stroke-linejoin:round;stroke-miterlimit:4;stroke-dasharray:none;stroke-dashoffset:0;stroke-opacity:1"/>
    <g aria-label="SLIPPERY" style="font-style:normal;font-variant:normal;font-weight:400;font-stretch:normal;font-size:144.09222412px;line-height:0;font-family:&quot;Roadgeek 2005 Series C&quot;;-inkscape-font-specification:&quot;Roadgeek 2005 Series C&quot;;letter-spacing:-.37306249px;word-spacing:0;fill:#000;fill-opacity:1;stroke:none;stroke-width:3.60230541">
      <g aria-label="RAILWAY" style="font-style:normal;font-variant:normal;font-weight:400;font-stretch:normal;font-size:149.2537384px;line-height:0;font-family:&quot;Roadgeek 2005 Series C&quot;;-inkscape-font-specification:&quot;Roadgeek 2005 Series C&quot;;letter-spacing:8.0010004px;word-spacing:0;fill:#000;fill-opacity:1;stroke:none;stroke-width:13.44143867">
        <path d="M94.343 69 81.06 21.985H67.328V69H53V-31h29.85q5.822 0 10.598 1.94 4.925 1.94 8.358 5.373 3.582 3.433 5.373 8.508 1.94 4.925 1.94 10.895 0 8.956-3.582 15.224t-10.746 8.956L109.119 69Zm.747-73.284q0-5.82-3.583-9.253-3.582-3.433-9.403-3.433H67.328V8.254h14.776q6.27 0 9.553-3.135 3.433-3.283 3.433-9.403M175.67 69l-7.015-27.313h-21.493L140.595 69h-14.477l24.925-100h14.03l24.925 100ZM157.76-1.15l-7.016 28.807h14.329zM211.843 69V-31h14.03V69ZM255.99 69V-31h14.33v86.716h36.566V69ZM380.941 69h-12.238l-9.553-52.239L349.747 69h-12.686L321.24-31h14.03l8.507 53.284L353.48-31h11.343l9.403 53.284L383.031-31h14.03zM460.708 69l-7.015-27.313H432.2L425.633 69h-14.477L436.08-31h14.03l24.925 100zm-17.91-70.15-7.015 28.807h14.328zM528.075 23.776V69h-14.329V23.776L489.12-31h15.075L521.06 5.12 537.627-31H553z" style="font-style:normal;font-variant:normal;font-weight:400;font-stretch:normal;line-height:0;font-family:&quot;Roadgeek 2005 Series C&quot;;-inkscape-font-specification:&quot;Roadgeek 2005 Series C&quot;;letter-spacing:8.0010004px;fill:#000;stroke:none;stroke-width:13.44143867"/>
        <g aria-label="CROSSING" style="font-style:normal;font-variant:normal;font-weight:400;font-stretch:normal;font-size:144.09222412px;line-height:0;font-family:&quot;Roadgeek 2005 Series C&quot;;-inkscape-font-specification:&quot;Roadgeek 2005 Series C&quot;;letter-spacing:-.09260417px;word-spacing:0;fill:#000;fill-opacity:1;stroke:none;stroke-width:48.42016602">
          <path d="M-556.485-8.537q-2.161-13.977-11.527-13.977-4.179 0-7.205 1.873-2.882 1.729-4.755 5.764-1.73 3.89-2.594 10.374-.72 6.484-.72 15.85 0 20.894 3.746 29.971 3.89 9.078 12.824 9.078 3.026 0 4.9-1.152 2.017-1.153 3.17-3.026 1.296-2.018 1.729-4.467.432-2.594.432-5.332h13.833q-.144 6.052-2.017 11.095-1.874 5.044-5.044 8.79-3.17 3.602-7.637 5.62-4.322 2.017-9.365 2.017-15.562 0-22.767-12.68-7.06-12.68-7.06-39.481 0-23.632 7.204-35.735 7.205-12.104 21.614-12.104 5.908 0 10.807 2.594 4.899 2.45 8.213 7.204 2.738 3.603 4.035 7.349 1.296 3.746 2.017 10.375zM-483.51 62.212l-12.824-45.39h-13.256v45.39h-13.833V-34.33h28.819q5.62 0 10.23 1.873 4.755 1.873 8.07 5.188 3.458 3.314 5.187 8.213 1.873 4.755 1.873 10.519 0 8.645-3.458 14.697t-10.375 8.646l13.833 47.406zm.721-70.75q0-5.619-3.458-8.933t-9.078-3.314h-14.265V3.566h14.265q6.052 0 9.222-3.026 3.314-3.17 3.314-9.077M-398.259 13.797q0 11.095-1.297 18.876-1.152 7.78-4.178 14.697-3.603 8.646-9.078 12.68-5.331 3.891-13.545 3.891-8.645 0-14.12-3.89-5.332-4.035-8.935-12.68-3.025-7.061-4.322-14.698-1.153-7.781-1.153-18.876 0-10.951 1.153-18.732 1.297-7.925 4.322-14.842 3.747-8.645 9.078-12.392 5.476-3.89 13.977-3.89 8.358 0 13.689 3.89 5.331 3.747 8.934 12.68 1.44 3.603 2.45 7.205 1.152 3.602 1.728 7.637.72 3.89 1.009 8.502.288 4.466.288 9.942m-13.256 0q0-4.035-.288-7.349-.145-3.314-.577-6.052-.288-2.882-.864-5.475-.577-2.594-1.297-5.188-1.873-6.484-4.755-9.366-2.738-2.881-7.06-2.881-8.934 0-12.249 11.96-1.729 5.475-2.45 11.094-.576 5.476-.576 13.545 0 3.89.145 7.205.288 3.17.576 6.052.432 2.737 1.009 5.475.576 2.738 1.296 5.62 3.315 11.96 12.248 11.96 4.323 0 7.06-2.883 2.883-2.881 4.756-9.077.864-2.882 1.44-5.476.577-2.738.865-5.62.433-2.881.577-6.051.144-3.314.144-7.493M-329.818 35.843q0 5.908-2.16 11.095-2.018 5.043-5.765 8.79-3.602 3.746-8.501 6.052-4.755 2.161-10.375 2.161-6.34 0-11.383-2.45t-8.501-6.628-5.332-9.654-1.873-11.383h13.545q0 3.026.72 6.052.865 2.881 2.45 5.331 1.729 2.305 4.178 3.746 2.594 1.441 6.196 1.441 2.738 0 5.188-1.152 2.593-1.153 4.322-3.17 1.874-2.018 2.882-4.611 1.153-2.738 1.153-5.62 0-4.179-1.73-7.349-1.728-3.314-6.051-6.628-.72-.72-.576-.72.144-.145-.865-.865t-4.323-2.738q-3.17-2.161-10.518-7.204-5.908-4.035-8.934-9.366-2.882-5.476-2.882-11.96 0-5.187 1.873-9.654 1.873-4.611 5.188-8.07 3.458-3.458 7.925-5.33 4.466-2.018 9.654-2.018t9.51 1.873q4.467 1.873 7.637 5.187 3.314 3.315 5.187 7.926 2.017 4.61 2.161 10.086h-13.256q-.288-5.043-3.458-8.07-3.17-3.025-7.781-3.025-4.755 0-8.07 3.17-3.313 3.17-3.313 7.925 0 3.602 1.873 6.052T-356.62.54q13.977 8.07 20.317 16.427 6.484 8.357 6.484 18.876M-264.618 35.843q0 5.908-2.162 11.095-2.017 5.043-5.763 8.79-3.603 3.746-8.502 6.052-4.755 2.161-10.374 2.161-6.34 0-11.384-2.45-5.043-2.45-8.501-6.628-3.458-4.179-5.332-9.654-1.873-5.476-1.873-11.383h13.545q0 3.026.72 6.052.865 2.881 2.45 5.331 1.729 2.305 4.179 3.746 2.593 1.441 6.196 1.441 2.737 0 5.187-1.152 2.593-1.153 4.323-3.17 1.873-2.018 2.881-4.611 1.153-2.738 1.153-5.62 0-4.179-1.729-7.349-1.729-3.314-6.052-6.628-.72-.72-.576-.72.144-.145-.865-.865t-4.322-2.738q-3.17-2.161-10.52-7.204-5.907-4.035-8.933-9.366-2.882-5.476-2.882-11.96 0-5.187 1.873-9.654 1.874-4.611 5.188-8.07 3.458-3.458 7.925-5.33 4.467-2.018 9.654-2.018t9.51 1.873q4.467 1.873 7.637 5.187 3.314 3.315 5.187 7.926 2.018 4.61 2.162 10.086h-13.257q-.288-5.043-3.458-8.07-3.17-3.025-7.781-3.025-4.755 0-8.07 3.17-3.313 3.17-3.313 7.925 0 3.602 1.873 6.052T-291.42.54q13.976 8.07 20.317 16.427 6.484 8.357 6.484 18.876M-248.555 62.212V-34.33h13.545v96.542zM-170.09 62.212l-29.827-64.698v64.698h-13.833V-34.33h13.833l26.513 57.925V-34.33h13.833v96.542zM-86.542 35.41q0 5.044-.577 8.502-.576 3.458-2.161 6.484-2.882 6.34-8.501 9.943-5.476 3.602-12.825 3.602-8.645 0-14.985-4.179-6.196-4.178-9.799-12.392-2.305-5.475-3.746-14.553-1.297-9.222-1.297-18.732 0-10.23.865-17.867 1.008-7.781 3.602-14.698 1.297-3.746 3.602-6.916 2.45-3.314 5.62-5.62 3.17-2.45 7.06-3.746 3.891-1.297 8.07-1.297 5.187 0 9.654 1.873 4.467 1.73 7.78 5.043 3.315 3.17 5.332 7.781 2.018 4.467 2.306 9.799h-13.833q-.288-4.9-3.458-7.925-3.026-3.026-8.07-3.026-7.204 0-10.95 7.204-2.018 3.603-3.17 11.095-1.153 7.35-1.153 15.995 0 6.051.432 12.247.576 6.196 1.585 11.816 1.585 7.06 5.043 10.807 3.603 3.746 9.222 3.746 10.519 0 10.519-14.985v-6.34h-10.951V15.526h24.784z" style="font-style:normal;font-variant:normal;font-weight:400;font-stretch:normal;line-height:0;font-family:&quot;Roadgeek 2005 Series C&quot;;-inkscape-font-specification:&quot;Roadgeek 2005 Series C&quot;;letter-spacing:-.09260417px;fill:#000;stroke:none;stroke-width:48.42016602" transform="translate(644.543 155.059)"/>
        </g>
      </g>
    </g>
  </g>
</svg>
