<svg xmlns="http://www.w3.org/2000/svg" viewBox="0 0 58 135" role="img" aria-labelledby="title">
  <title id="title">Verkehrszeichen R6-256-NSW - Stop Here On Red Arrow, Otherwise turn left with care</title>
  <rect width="57.496" height="134.496" x=".252" y=".252" ry="6.047" style="fill:#fff;fill-opacity:1;stroke:#000;stroke-width:.50435656;stroke-linecap:round;stroke-linejoin:round;stroke-miterlimit:4;stroke-dasharray:none;stroke-opacity:1"/>
  <rect width="51.594" height="129.058" x="3.448" y="2.995" ry="3.379" style="fill:#fff;fill-opacity:1;stroke:#000;stroke-width:1.78089631;stroke-linecap:round;stroke-linejoin:round;stroke-miterlimit:4;stroke-dasharray:none;stroke-opacity:1"/>
  <rect width="52.078" height="2.528" x="3.135" y="91.012" ry="0" style="fill:#000;fill-opacity:1;stroke:none;stroke-width:1.79999995;stroke-linecap:round;stroke-linejoin:miter;stroke-miterlimit:4;stroke-dasharray:none;stroke-opacity:1"/>
  <g style="font-style:normal;font-weight:400;font-size:40px;line-height:125%;font-family:sans-serif;letter-spacing:0;word-spacing:0;fill:#f33;fill-opacity:1;stroke:none;stroke-width:1px;stroke-linecap:butt;stroke-linejoin:miter;stroke-opacity:1">
    <path d="M13.324 13.77q-.68-1.255-2.104-1.276-.829 0-1.381.51-.553.51-.531 1.211 0 .51.488.914.51.404 1.594.574 2.571.446 3.719 1.742 1.169 1.275 1.169 2.933 0 1.827-1.382 3.251-1.38 1.403-3.442 1.403-3.273-.043-4.866-3.315l2.146-1.084q.999 2.061 2.762 2.061 1.02.021 1.764-.701.744-.744.744-1.721.021-.659-.574-1.297-.595-.658-2.104-.935-2.04-.297-3.123-1.232-1.084-.956-1.084-2.274-.043-1.572 1.105-2.89 1.147-1.339 3.039-1.339 2.656.064 3.952 2.508zM27.19 12.537h-3.294v12.24h-2.253v-12.24h-3.25v-1.998h8.797zM34.58 25.032q-2.508 0-3.868-1.892-1.34-1.912-1.34-5.482 0-3.485 1.34-5.419 1.36-1.934 3.867-1.934 2.55 0 3.868 1.934 1.338 1.934 1.338 5.419 0 3.57-1.338 5.482-1.318 1.892-3.868 1.892m0-12.474q-1.488 0-2.168 1.424-.68 1.402-.702 3.633 0 2.508.66 3.804.68 1.296 2.21 1.275 1.614-.042 2.23-1.339.617-1.296.66-3.74-.043-2.38-.723-3.676-.66-1.296-2.168-1.381M47.044 18.593h-2.699v6.184h-2.252V10.539h4.696q1.572 0 2.529.468.956.446 1.55 1.445.617.998.617 2.082 0 1.126-.489 2.04-.488.914-1.487 1.488-.978.552-2.465.531m2.167-4.016q0-.829-.51-1.275-.488-.447-1.105-.468h-3.293v3.506h3.378q.638 0 1.084-.467.446-.468.446-1.296" style="font-style:normal;font-variant:normal;font-weight:400;font-stretch:normal;font-size:21.25px;font-family:&quot;Highway Gothic&quot;;-inkscape-font-specification:&quot;Highway Gothic&quot;;letter-spacing:.30000001px;fill:#f33;fill-opacity:1"/>
  </g>
  <g style="font-style:normal;font-weight:400;font-size:40px;line-height:125%;font-family:sans-serif;letter-spacing:0;word-spacing:0;fill:#f33;fill-opacity:1;stroke:none;stroke-width:1px;stroke-linecap:butt;stroke-linejoin:miter;stroke-opacity:1">
    <path d="M17.109 47.761h-2.253v-6.184H9.671v6.184H7.42V33.524h2.252v5.758h5.185v-5.758h2.253zM28.546 47.761h-8.84V33.524H28.1v2.252h-6.141v3.506h4.143v2.295H21.96v3.89h6.587zM40.853 47.761H38.41l-2.295-6.184h-2.698v6.184h-2.253V33.524h5.631q1.743.02 2.742 1.275 1.02 1.232 1.02 2.72 0 1.126-.617 2.146-.616.999-1.593 1.445zm-2.529-10.179q0-.828-.51-1.275-.488-.446-1.105-.467h-3.293v3.506h3.378q.638 0 1.084-.467.446-.468.446-1.297M52.29 47.761h-8.84V33.524h8.394v2.252h-6.141v3.506h4.143v2.295h-4.143v3.89h6.587z" style="font-style:normal;font-variant:normal;font-weight:400;font-stretch:normal;font-size:21.25px;font-family:&quot;Highway Gothic&quot;;-inkscape-font-specification:&quot;Highway Gothic&quot;;letter-spacing:.5px;fill:#f33;fill-opacity:1"/>
  </g>
  <g style="font-style:normal;font-weight:400;font-size:40px;line-height:125%;font-family:sans-serif;letter-spacing:0;word-spacing:0;fill:#f33;fill-opacity:1;stroke:none;stroke-width:1px;stroke-linecap:butt;stroke-linejoin:miter;stroke-opacity:1">
    <path d="M9.506 53.354q1.76 0 2.48 1.64t.72 5.3q0 3.52-.72 5.24-.72 1.7-2.48 1.7t-2.48-1.7q-.72-1.72-.72-5.24 0-3.66.72-5.3t2.48-1.64m-.04 1.88q-.6 0-.98.72-.38.7-.46 4.28.08 3.58.46 4.3.38.7.98.7.62 0 1-.7.38-.72.46-4.3-.08-3.58-.46-4.28-.38-.72-1-.72M21.111 66.974h-1.56l-2.54-7.94v7.94h-1.68v-13.4h1.68l2.4 7.3v-7.3h1.7z" style="font-style:normal;font-variant:normal;font-weight:400;font-stretch:normal;font-size:20px;font-family:&quot;Highway Gothic Condensed&quot;;-inkscape-font-specification:&quot;Highway Gothic Condensed, &quot;;letter-spacing:.60000002px;fill:#f33;fill-opacity:1"/>
  </g>
  <g style="font-style:normal;font-weight:400;font-size:40px;line-height:125%;font-family:sans-serif;letter-spacing:0;word-spacing:0;fill:#f33;fill-opacity:1;stroke:none;stroke-width:1px;stroke-linecap:butt;stroke-linejoin:miter;stroke-opacity:1">
    <path d="M14.79 86.086h-1.94l-.94-3.66H9.05l-.9 3.66H6.23l3.34-13.4h1.88zm-3.34-5.54-.98-3.86-.94 3.86zM23.368 86.086h-1.98l-1.78-6.3h-1.84v6.3h-1.92v-13.4h4q1.58 0 2.54.98.98.98.98 2.6 0 1.06-.54 2-.52.92-1.4 1.24zm-1.88-9.88q0-.76-.48-1.2t-1.26-.44h-1.98v3.3h1.98q.72 0 1.22-.48.52-.48.52-1.18M32.56 86.086h-1.98l-1.78-6.3h-1.84v6.3h-1.92v-13.4h4q1.58 0 2.54.98.98.98.98 2.6 0 1.06-.54 2-.52.92-1.4 1.24zm-1.88-9.88q0-.76-.48-1.2t-1.26-.44h-1.98v3.3h1.98q.72 0 1.22-.48.52-.48.52-1.18M37.872 86.326q-2.06 0-3.02-1.72-.96-1.74-.96-5.22 0-3.44.96-5.18t3.02-1.74 3.02 1.74.96 5.18q0 3.48-.96 5.22-.96 1.72-3.02 1.72m0-1.88q1.1.02 1.58-1.22t.48-3.88q0-2.6-.48-3.8t-1.58-1.2-1.58 1.2-.48 3.8q0 2.64.48 3.88t1.58 1.22M52.769 72.686l-2.16 13.4h-1.66l-1.26-7-1.28 7h-1.68l-2.12-13.4h1.88l1.14 7.14 1.3-7.14h1.52l1.26 7.14 1.18-7.14z" style="font-style:normal;font-variant:normal;font-weight:400;font-stretch:normal;font-size:20px;font-family:&quot;Highway Gothic Narrow&quot;;-inkscape-font-specification:&quot;Highway Gothic Narrow&quot;;letter-spacing:-.30000001px;fill:#f33;fill-opacity:1"/>
  </g>
  <g style="font-style:normal;font-weight:400;font-size:40px;line-height:125%;font-family:sans-serif;letter-spacing:0;word-spacing:0;fill:#f33;fill-opacity:1;stroke:none;stroke-width:1px;stroke-linecap:butt;stroke-linejoin:miter;stroke-opacity:1">
    <path d="M36.097 57.594q-.02 2.44-1.56 3.26l1.52 6.38h-1.72l-1.4-6.26h-.94v6.26h-1.68v-13.4h2.62q1.34 0 2.26.98t.9 2.78m-1.74-.04q0-1.02-.42-1.5-.4-.48-1.08-.48h-.86v3.68h1q.64-.06 1-.52t.36-1.18M44.007 67.234h-5.12v-13.4h4.94v1.74h-3.26v3.44h2.18v1.78h-2.18v4.7h3.44zM52.411 60.534q0 3.3-.74 5-.72 1.7-2.28 1.7h-2.76v-13.4h2.76q1.56 0 2.28 1.52.74 1.5.74 5.18m-1.68 0q-.04-3.36-.46-4.16-.42-.82-1.1-.8h-.86v9.92h.86q.66.02 1.1-1t.46-3.96" style="font-style:normal;font-variant:normal;font-weight:400;font-stretch:normal;font-size:20px;font-family:&quot;Highway Gothic Condensed&quot;;-inkscape-font-specification:&quot;Highway Gothic Condensed, &quot;;letter-spacing:1px;fill:#f33;fill-opacity:1"/>
  </g>
  <g style="font-style:normal;font-weight:400;font-size:40px;line-height:125%;font-family:sans-serif;letter-spacing:0;word-spacing:0;fill:#000;fill-opacity:1;stroke:none;stroke-width:1px;stroke-linecap:butt;stroke-linejoin:miter;stroke-opacity:1">
    <path d="M7.673 97.008q.99 0 1.395.923.405.922.405 2.98 0 1.98-.405 2.948-.405.957-1.395.957t-1.395-.957q-.405-.967-.405-2.947 0-2.059.405-2.982.405-.922 1.395-.922m-.023 1.058q-.337 0-.551.404-.214.394-.259 2.408.045 2.014.259 2.419.214.394.551.394.349 0 .563-.394.214-.405.259-2.419-.045-2.014-.26-2.407-.213-.406-.562-.406M14.722 98.11h-.99v6.56h-.956v-6.56h-.934v-.978h2.88zM20.454 104.67h-.956v-3.522h-1.35v3.521h-.945v-7.537h.945v3.049h1.35v-3.05h.956zM25.841 104.67h-2.88v-7.538h2.779v.979h-1.834v1.935h1.226v1h-1.226v2.645h1.935zM31.562 99.247q-.011 1.372-.877 1.834l.855 3.588h-.968l-.787-3.521h-.53v3.521h-.944v-7.537h1.474q.753 0 1.27.551.518.551.507 1.564m-.979-.023q0-.573-.236-.843-.225-.27-.607-.27h-.484v2.07h.562q.36-.034.563-.293t.202-.664M38.681 97.132l-.866 7.537h-.821l-.709-4.23-.686 4.23h-.821l-.878-7.537h.979l.394 3.487.607-3.487h.821l.608 3.487.405-3.487zM42.148 104.67h-.945v-7.538h.945zM48.088 103.004q0 .743-.394 1.271-.383.53-1.238.53-.81 0-1.237-.563-.416-.563-.45-1.452h1.001q.023 1.002.686 1.035.597-.045.608-.82.022-.496-.529-1.306-.54-.81-.967-1.339-.315-.393-.473-.81-.146-.427-.146-.776 0-.686.394-1.226.405-.54 1.125-.54.618 0 1.091.484.472.483.484 1.282h-.979q-.034-.799-.563-.787-.517.011-.517.776-.011.259.124.54t.382.562q.81.945 1.204 1.71.394.754.394 1.43M53.204 104.67h-2.88v-7.538h2.779v.979h-1.834v1.935h1.227v1h-1.227v2.645h1.935z" style="font-style:normal;font-variant:normal;font-weight:400;font-stretch:normal;font-size:11.25px;font-family:&quot;Highway Gothic Condensed&quot;;-inkscape-font-specification:&quot;Highway Gothic Condensed, &quot;;letter-spacing:1.5px"/>
  </g>
  <g style="font-style:normal;font-weight:400;font-size:40px;line-height:154.99999523%;font-family:sans-serif;letter-spacing:0;word-spacing:0;fill:#000;fill-opacity:1;stroke:none;stroke-width:1px;stroke-linecap:butt;stroke-linejoin:miter;stroke-opacity:1">
    <path d="M9.382 110.154h-.99v6.559h-.956v-6.559h-.934v-.979h2.88zM15.221 114.868q0 .731-.236 1.181-.428.799-1.373.799-1.125 0-1.507-1.035-.135-.36-.135-.945v-5.693h.945v5.817q0 .877.697.877.653 0 .653-.877v-5.817h.956zM21.285 111.29q-.011 1.373-.877 1.834l.855 3.589h-.968l-.787-3.521h-.53v3.52h-.944v-7.537h1.474q.753 0 1.27.552.518.55.507 1.563m-.979-.022q0-.574-.236-.844-.225-.27-.607-.27h-.484v2.07h.562q.36-.034.563-.292.202-.26.202-.664M27.352 116.713h-.878l-1.428-4.466v4.466H24.1v-7.538h.945l1.35 4.107v-4.107h.956z" style="font-style:normal;font-variant:normal;font-weight:400;font-stretch:normal;font-size:11.25px;line-height:154.99999523%;font-family:&quot;Highway Gothic Condensed&quot;;-inkscape-font-specification:&quot;Highway Gothic Condensed, &quot;;letter-spacing:1.54999995px"/>
  </g>
  <g style="font-style:normal;font-weight:400;font-size:40px;line-height:125%;font-family:sans-serif;letter-spacing:0;word-spacing:0;fill:#000;fill-opacity:1;stroke:none;stroke-width:1px;stroke-linecap:butt;stroke-linejoin:miter;stroke-opacity:1">
    <path d="M37.303 116.848h-2.88v-7.537h.945v6.558h1.935zM42.5 116.848h-2.88v-7.537h2.78v.978h-1.834v1.935h1.226v1.002h-1.226v2.643H42.5zM47.698 110.29h-1.935v1.934h1.114v1.001h-1.114v3.623h-.945v-7.537h2.88zM52.884 110.29h-.99v6.558h-.956v-6.559h-.934v-.979h2.88z" style="font-style:normal;font-variant:normal;font-weight:400;font-stretch:normal;font-size:11.25px;font-family:&quot;Highway Gothic Condensed&quot;;-inkscape-font-specification:&quot;Highway Gothic Condensed, &quot;;letter-spacing:1.54999995px"/>
  </g>
  <g style="font-style:normal;font-weight:400;font-size:40px;line-height:125%;font-family:sans-serif;letter-spacing:0;word-spacing:0;fill:#000;fill-opacity:1;stroke:none;stroke-width:1px;stroke-linecap:butt;stroke-linejoin:miter;stroke-opacity:1">
    <path d="m11.025 120.299-.866 7.537h-.822l-.708-4.23-.687 4.23h-.82l-.878-7.537h.978l.394 3.487.608-3.487h.821l.607 3.487.405-3.487zM14.542 127.836h-.945V120.3h.945zM20.138 121.278h-.99v6.558h-.957v-6.558h-.933v-.98h2.88zM25.92 127.836h-.956v-3.521h-1.35v3.521h-.945V120.3h.945v3.049h1.35v-3.05h.956z" style="font-style:normal;font-variant:normal;font-weight:400;font-stretch:normal;font-size:11.25px;font-family:&quot;Highway Gothic Condensed&quot;;-inkscape-font-specification:&quot;Highway Gothic Condensed, &quot;;letter-spacing:1.54999995px"/>
  </g>
  <g style="font-style:normal;font-weight:400;font-size:40px;line-height:125%;font-family:sans-serif;letter-spacing:0;word-spacing:0;fill:#000;fill-opacity:1;stroke:none;stroke-width:1px;stroke-linecap:butt;stroke-linejoin:miter;stroke-opacity:1">
    <path d="M33.841 121.221q-.303-.011-.506.36-.191.371-.259 2.61.068 2.093.282 2.464t.54.349q.495 0 .562-.732h.934q0 .867-.461 1.34-.45.46-1.058.46-.945 0-1.327-.866-.383-.877-.405-3.026.022-2.306.45-3.105.427-.799 1.282-.799.563 0 1.035.45.484.439.484 1.249h-.934q-.022-.743-.619-.754M40.17 124.799l-.416-2.442-.405 2.442zm1.62 3.138h-1.001l-.428-2.013h-1.237l-.428 2.013h-.978l1.563-7.537h.945zM47.427 122.515q-.011 1.372-.877 1.834l.855 3.588h-.968l-.787-3.52h-.53v3.52h-.944V120.4h1.474q.753 0 1.27.551.518.551.507 1.564m-.979-.023q0-.573-.236-.843-.225-.27-.607-.27h-.484v2.07h.562q.36-.034.563-.293t.202-.664M52.864 127.937h-2.88V120.4h2.779v.979h-1.834v1.935h1.226v1H50.93v2.645h1.935z" style="font-style:normal;font-variant:normal;font-weight:400;font-stretch:normal;font-size:11.25px;font-family:&quot;Highway Gothic Condensed&quot;;-inkscape-font-specification:&quot;Highway Gothic Condensed, &quot;;letter-spacing:1.54999995px" transform="translate(0 -.236)"/>
  </g>
</svg>
