<svg xmlns="http://www.w3.org/2000/svg" viewBox="0 0 871.563 871.562" role="img" aria-labelledby="title">
  <title id="title">Verkehrszeichen R5-83 - End of No Parking Area</title>
  <path d="M67.113 2.115h737.334c35.748 0 64.996 29.249 64.996 64.997v737.334c0 35.747-29.248 64.996-64.996 64.996H67.113c-35.748 0-64.997-29.249-64.997-64.996V67.112c0-35.748 29.25-64.997 64.997-64.997z" style="fill:#fff;fill-opacity:1;fill-rule:evenodd;stroke:#000;stroke-width:4.23333406;stroke-miterlimit:4;stroke-opacity:1;stroke-dasharray:none"/>
  <path d="M804.084 13.494c31.946 1.84 52.14 22.034 53.98 53.98v736.6c-1.84 31.583-22.397 52.14-53.98 53.98h-736.6c-31.583-1.84-52.15-22.397-53.98-53.98v-736.6c1.83-31.946 22.035-52.14 53.98-53.98z" style="fill:#000;fill-opacity:1;fill-rule:evenodd;stroke:none"/>
  <path d="M810.327 37.73c16.525 4.775 22.396 13.953 24.598 31.212v733.664c-2.936 20.93-11.38 29.382-32.308 32.317H68.952c-20.929-2.935-29.382-11.388-32.317-32.317V68.942c2.935-21.3 11.017-29.373 32.317-32.317h733.665z" style="fill:#fff;fill-opacity:1;fill-rule:evenodd;stroke:none"/>
  <path d="M201.642 659.58h24.192l60.832 144.839h-27.233l-13.908-33.75h-62.857l-14.192 33.75h-26.65zm-9.125 86.182H235.1l-21.15-51.416zM314.474 659.58h69.665c25.924 0 43.89 20.858 43.89 43.166 0 14.766-9.557 33.74-25.057 40.408l26.941 61.265h-26.941l-25.783-56.632h-37.95v56.632h-24.765zm24.766 24.766v38.816h44.899c9.991 0 18.833-9.125 18.833-19.258 0-6.808-5.65-19.558-18.833-19.558zM458.154 659.58h103.848v25.2h-78.79v28.824h42.583v25.2h-42.583v40.416h81.399v25.199H458.154zM644.7 659.58h24.192l60.832 144.839H702.49l-13.908-33.75h-62.857l-14.192 33.75h-26.65zm-9.124 86.182h42.582l-21.15-51.416zM234.092 66.917H337.94v25.2h-78.79v28.824h42.582v25.2H259.15v40.416h81.398v25.2H234.092zM369.797 66.917h23.75l66.482 95.74v-95.74h25.208v144.84h-22.6l-67.782-98.35v98.35h-25.058zM522.028 66.917h46.35c44.173 0 69.09 35.2 69.09 73.14 0 37.516-24.625 71.7-65.183 71.7h-50.257zm24.916 119.64h26.5c24.19 0 39.69-24.333 39.69-46.5 0-24.474-16.516-47.94-41.424-47.94h-24.766zM362.52 318.84h118.393c37.348 0 76.403 32.22 76.403 70.302 0 39.789-29.54 78.357-70.55 78.357h-81.53v95.44H362.52zm40.523 42.477v64.687h77.87c19.77 0 33.679-11.23 33.679-32.468 0-20.751-17.569-32.22-35.146-32.22z" style="fill:#000;fill-opacity:1;fill-rule:evenodd;stroke:none"/>
  <path d="M436.907 632.7c106.457-1.59 192.01-89.037 190.419-195.493-1.592-106.457-89.736-192.002-196.193-190.41-103.653 1.556-188.5 89.683-186.908 196.148 1.591 106.456 89.029 191.303 192.682 189.756m120.966-296.035L339.222 564.813c28.347 21.99 63.564 34.775 97.181 34.27 88.251-1.325 158.615-73.829 157.297-162.07-.548-36.42-13.696-72.655-35.827-100.347m-23.457-22.759L315.057 542.054c-22.105-26.287-36.65-61.796-37.224-100.32-1.309-87.544 69.055-160.047 153.804-161.32 38.516-.575 74.431 12.192 102.779 33.492" style="fill:#c0111e;fill-opacity:1;fill-rule:evenodd;stroke:none"/>
</svg>
