<svg xmlns="http://www.w3.org/2000/svg" viewBox="0 0 456 756" role="img" aria-labelledby="title">
  <title id="title">Verkehrszeichen R2-9-L - Left Lane Must Turn Left</title>
  <g transform="translate(0 459)">
    <rect width="454" height="754" x="1" y="-458" rx="47" ry="47" style="opacity:1;fill:#000;fill-opacity:1;fill-rule:nonzero;stroke:none;stroke-width:37.32753372;stroke-linecap:square;stroke-linejoin:round;stroke-miterlimit:4;stroke-dasharray:none;stroke-dashoffset:0;stroke-opacity:1"/>
    <rect width="450" height="750" x="3" y="-456" rx="45" ry="45" style="opacity:1;fill:#fff;fill-opacity:1;fill-rule:nonzero;stroke:none;stroke-width:37.06402969;stroke-linecap:square;stroke-linejoin:round;stroke-miterlimit:4;stroke-dasharray:none;stroke-dashoffset:0;stroke-opacity:1"/>
    <rect width="434" height="734" x="11" y="-448" rx="37" ry="37" style="opacity:1;fill:#000;fill-opacity:1;fill-rule:nonzero;stroke:none;stroke-width:36.00879669;stroke-linecap:square;stroke-linejoin:round;stroke-miterlimit:4;stroke-dasharray:none;stroke-dashoffset:0;stroke-opacity:1"/>
    <rect width="402" height="702" x="27" y="-432" rx="21" ry="21" style="opacity:1;fill:#fff;fill-opacity:1;fill-rule:nonzero;stroke:none;stroke-width:33.89200974;stroke-linecap:square;stroke-linejoin:round;stroke-miterlimit:4;stroke-dasharray:none;stroke-dashoffset:0;stroke-opacity:1"/>
    <g aria-label="RIGHT" style="font-style:normal;font-variant:normal;font-weight:400;font-stretch:normal;font-size:115.27377319px;line-height:0;font-family:&quot;Roadgeek 2005 Series E&quot;;-inkscape-font-specification:&quot;Roadgeek 2005 Series E&quot;;letter-spacing:.98160416px;word-spacing:0;fill:#000;fill-opacity:1;stroke:none;stroke-width:2.88184428">
      <g aria-label="LANE" style="font-style:normal;font-variant:normal;font-weight:400;font-stretch:normal;font-size:119.40298462px;line-height:0;font-family:&quot;Roadgeek 2005 Series E&quot;;-inkscape-font-specification:&quot;Roadgeek 2005 Series E&quot;;letter-spacing:0;word-spacing:0;fill:#000;fill-opacity:1;stroke:none;stroke-width:8.60251999">
        <path d="M840.512-518.762v-80h14.328v67.702h45.493v12.298zM972.696-518.762l-7.88-18.866H929.95l-7.762 18.866h-15.76l33.67-80h14.568l33.433 80zm-25.314-60.06-11.223 26.985h22.447zM1053.781-518.762l-38.09-55.045v55.045h-14.09v-80h14.09l36.657 52.776v-52.776h13.85v80zM1086.691-518.762v-80h58.388v14.328h-43.82v14.806h23.88v14.687h-23.88v21.85h45.253v14.33z" style="font-style:normal;font-variant:normal;font-weight:400;font-stretch:normal;line-height:0;font-family:&quot;Roadgeek 2005 Series E&quot;;-inkscape-font-specification:&quot;Roadgeek 2005 Series E&quot;;letter-spacing:-.2619375px;fill:#000;stroke:none;stroke-width:8.60251999" transform="translate(-760.512 347.762)"/>
        <g aria-label="MUST" style="font-style:normal;font-variant:normal;font-weight:400;font-stretch:normal;font-size:116.11030579px;line-height:0;font-family:&quot;Roadgeek 2005 Series E&quot;;-inkscape-font-specification:&quot;Roadgeek 2005 Series E&quot;;letter-spacing:0;word-spacing:0;fill:#000;fill-opacity:1;stroke:none;stroke-width:24.97103119">
          <path d="M918.627-284.322v-47.489l-22.874 47.49-22.641-47.49v47.49H859.41v-77.795h13.7l22.642 46.096 22.874-46.096h13.701v77.794zM1017.022-315.672q0 7.2-2.322 13.237-2.322 5.922-6.502 10.334-4.18 4.296-9.986 6.734-5.805 2.438-12.656 2.438-6.85 0-12.656-2.438-5.69-2.438-9.869-6.734-4.18-4.412-6.502-10.334-2.322-6.038-2.322-13.237v-46.444h13.933v46.444q0 3.484.464 5.69.58 2.09 1.974 4.412 2.322 3.832 6.27 6.154t8.708 2.322 8.709-2.322q4.063-2.322 6.386-6.154 1.393-2.322 1.857-4.528.581-2.323.581-5.574v-46.444h13.933zM1096.969-306.963q0 11.843-10.915 18.229-4.064 2.554-9.172 3.948-5.11 1.277-10.566 1.277-10.102 0-17.881-3.6-7.664-3.715-14.282-11.378l11.147-8.709q4.412 5.11 9.288 7.431 4.877 2.323 11.495 2.323 7.431 0 12.192-2.787 4.76-2.903 4.76-7.315 0-4.644-4.876-7.083-2.09-.812-4.412-1.625-2.207-.813-4.877-1.394l-3.6-1.045-3.599-.812-3.715-1.161q-6.038-1.394-9.521-3.02-3.368-1.74-5.806-4.528-2.438-2.67-3.716-6.037-1.16-3.368-1.16-7.083 0-4.877 1.973-8.824t5.457-6.735q3.484-2.903 8.36-4.412 4.993-1.626 10.915-1.626 8.708 0 15.79 2.903 7.2 2.903 13.121 9.057l-10.334 9.289q-7.315-7.664-18.577-7.664-5.922 0-9.289 2.206-3.251 2.09-3.251 5.806 0 1.625.58 2.903.581 1.16 1.974 2.206 1.394.929 3.716 1.741 2.438.813 6.038 1.626 7.779 1.626 13.004 3.251t8.476 3.251q5.225 2.67 8.244 7.896 3.019 5.109 3.019 11.495M1143.002-348.415v64.093h-13.585v-64.093h-22.41v-13.7h58.404v13.7z" style="font-style:normal;font-variant:normal;font-weight:400;font-stretch:normal;line-height:0;font-family:&quot;Roadgeek 2005 Series E&quot;;-inkscape-font-specification:&quot;Roadgeek 2005 Series E&quot;;letter-spacing:1.59014583px;fill:#000;stroke:none;stroke-width:24.97103119" transform="translate(-779.41 241.929)"/>
        </g>
        <g aria-label="TURN" style="font-style:normal;font-variant:normal;font-weight:400;font-stretch:normal;font-size:117.30205536px;line-height:0;font-family:&quot;Roadgeek 2005 Series E&quot;;-inkscape-font-specification:&quot;Roadgeek 2005 Series E&quot;;letter-spacing:0;word-spacing:0;fill:#000;fill-opacity:1;stroke:none;stroke-width:25.22733307">
          <path d="M869.876-324.92v64.75H856.15v-64.75h-22.64v-13.842h59.004v13.842zM969.595-291.841q0 7.273-2.346 13.372-2.346 5.983-6.57 10.44-4.222 4.34-10.087 6.804-5.865 2.463-12.786 2.463t-12.786-2.463q-5.748-2.464-9.97-6.804-4.224-4.457-6.57-10.44-2.346-6.1-2.346-13.372v-46.92h14.076v46.92q0 3.519.47 5.748.586 2.111 1.994 4.457 2.346 3.871 6.334 6.217t8.798 2.346 8.797-2.346q4.106-2.346 6.452-6.217 1.408-2.346 1.877-4.575.586-2.346.586-5.63v-46.92h14.077zM1038.126-260.17l-12.669-30.85h-20.997v30.85h-14.076v-78.592h36.129q4.34 0 7.39.704t6.1 2.58q5.63 3.05 8.914 8.564 3.285 5.513 3.285 12.199t-3.402 12.2q-3.284 5.395-9.384 8.68l14.428 33.665zm0-54.545q0-4.575-3.05-7.273t-8.329-2.698h-22.287v19.59h22.287q5.279 0 8.329-2.58 3.05-2.699 3.05-7.039M1121.312-260.17l-37.42-54.076v54.076h-13.84v-78.592h13.84l36.013 51.848v-51.848h13.607v78.592z" style="font-style:normal;font-variant:normal;font-weight:400;font-stretch:normal;line-height:0;font-family:&quot;Roadgeek 2005 Series E&quot;;-inkscape-font-specification:&quot;Roadgeek 2005 Series E&quot;;letter-spacing:.39687499px;fill:#000;stroke:none;stroke-width:25.22733307" transform="translate(-760.512 347.762)"/>
        </g>
      </g>
    </g>
    <g aria-label="LEFT" style="font-style:normal;font-variant:normal;font-weight:400;font-stretch:normal;font-size:119.40298462px;line-height:0;font-family:&quot;Roadgeek 2005 Series E&quot;;-inkscape-font-specification:&quot;Roadgeek 2005 Series E&quot;;letter-spacing:-.49741668px;word-spacing:0;fill:#000;fill-opacity:1;stroke:none;stroke-width:2.98507452">
      <path d="M-376.533-10.687v-80h14.329v67.701h45.492v12.299zM-303.57-10.687v-80h58.389v14.328h-43.82v14.806h23.88v14.687h-23.88v21.85h45.253v14.329zM-213.706-76.359v16.239h24.955v14.567h-24.955v34.866h-14.568v-80h59.821v14.328zM-125.578-76.598v65.91h-13.97v-65.91h-23.045v-14.09h60.06v14.09zM-376.533-530.687v-80h14.329v67.701h45.492v12.299zM-303.57-530.687v-80h58.389v14.328h-43.82v14.806h23.88v14.687h-23.88v21.85h45.253v14.329zM-213.706-596.359v16.239h24.955v14.567h-24.955v34.866h-14.568v-80h59.821v14.328zM-125.578-596.598v65.91h-13.97v-65.91h-23.045v-14.09h60.06v14.09z" style="font-style:normal;font-variant:normal;font-weight:400;font-stretch:normal;line-height:0;font-family:&quot;Roadgeek 2005 Series E&quot;;-inkscape-font-specification:&quot;Roadgeek 2005 Series E&quot;;letter-spacing:-.49741668px;fill:#000;stroke:none;stroke-width:2.98507452" transform="translate(472.533 229.687)"/>
    </g>
  </g>
</svg>
