<svg xmlns="http://www.w3.org/2000/svg" viewBox="0 0 309.219 411.987" role="img" aria-labelledby="title">
  <title id="title">Verkehrszeichen R7-1-1 - Bus Lane</title>
  <path d="M31.576 410.992h246.081c16.905 0 30.565-13.657 30.565-30.565V31.873c0-16.909-13.66-30.565-30.565-30.565H31.577c-16.91 0-30.565 13.656-30.565 30.565v348.554c0 16.908 13.656 30.565 30.564 30.565z" style="fill:#fff;fill-opacity:1;fill-rule:evenodd;stroke:#000;stroke-width:2;stroke-linecap:butt;stroke-linejoin:miter;stroke-miterlimit:8.52033329;stroke-opacity:1;stroke-dasharray:none"/>
  <path d="M31.972 405.913h245.285c14.307 0 25.886-11.58 25.886-25.886V32.377c0-14.306-11.58-25.87-25.886-25.87H31.972c-14.306 0-25.886 11.564-25.886 25.87v347.65c0 14.306 11.58 25.886 25.886 25.886" style="fill:#000;fill-opacity:1;fill-rule:evenodd;stroke:none"/>
  <path d="M31.972 395.634h245.285c8.582 0 15.608-7.026 15.608-15.607V32.377c0-8.581-7.026-15.607-15.608-15.607H31.972c-8.581 0-15.607 7.026-15.607 15.607v347.65c0 8.581 7.026 15.607 15.607 15.607" style="fill:#fff;fill-opacity:1;fill-rule:evenodd;stroke:none"/>
  <path d="M37.56 242.048h11.054v71.132h29.91v10.792H37.56zM109.602 290.034h11.704l-6.242-22.238zm-19.765 33.942 19.765-81.928h11.704l19.765 81.928H129.63l-5.591-22.367H107.65l-5.462 22.367zM160.319 242.048h11.442l21.979 47.335v-47.335h11.442v81.924h-8.84l-24.581-53.445v53.445h-11.442zM230.543 242.048h39.534v12.226h-27.7v20.286h16.516v10.791h-16.516v27.05h29.13v11.57h-40.964zM65.39 127.194v-22.633c0-1.68 1.95-3.757 3.523-3.757h35.239c1.68 0 4.678 1.155 4.678 2.602v22.884c0 1.176-1.551 3.252-2.598 3.252h-37.72c-1.426 0-3.123-1.572-3.123-2.348m50.07 0v-22.633c0-1.68 1.952-3.757 3.378-3.757h38.512c1.806 0 4.679 1.155 4.679 2.602v22.884c0 1.176-1.172 3.252-2.602 3.252h-41.094c-1.176 0-2.873-1.572-2.873-2.348m52.944 0v-22.633c0-1.68 2.081-3.757 3.757-3.757h38.513c1.68 0 4.282 1.155 4.282 2.602v22.884c0 1.176-1.176 3.252-2.331 3.252h-41.364c-1.176 0-2.857-1.572-2.857-2.348m54.104 0v-22.633c0-1.68 2.076-3.757 3.502-3.757h41.094c1.7 0 4.553 1.155 4.553 2.602v22.884c0 1.176-1.155 3.252-2.602 3.252h-43.424c-1.047 0-3.124-1.572-3.124-2.348M37.046 155.282v-24.06l3.106-29.513h17.18v53.573zm52.402 14.957c5.73 0 10.675-4.553 10.675-10.403 0-5.709-4.946-10.658-10.675-10.658-5.85 0-11.054 4.95-11.054 10.658 0 5.85 5.204 10.403 11.054 10.403m126.933 0c5.854 0 10.804-4.553 10.804-10.403 0-5.709-4.95-10.658-10.804-10.658-5.98 0-10.658 4.95-10.658 10.658 0 5.85 4.679 10.403 10.658 10.403m20.812-9.482c-7.406-29.789-40.698-20.286-39.017 1.952H109.61c-10.93-31.215-41.098-22.763-42.795 0h-37.57v-39.017l2.598-25.236s5.98-8.056 10.658-8.056H274.91c2.348 0 4.95 2.852 4.95 5.2v57.08z" style="fill:#000;fill-opacity:1;fill-rule:evenodd;stroke:none"/>
</svg>
