<svg xmlns="http://www.w3.org/2000/svg" viewBox="0 0 606 606" role="img" aria-labelledby="title">
  <title id="title">Verkehrszeichen R1-1 - Stop</title>
  <path d="M605 119.092 428.092 296H177.908L1 119.092v-250.184L177.908-308h250.184L605-131.092z" style="fill:#000;fill-opacity:1;stroke:none;stroke-width:.60400009" transform="translate(0 309)"/>
  <path d="M3 118.264v-248.528L178.736-306h248.528L603-130.264v248.528L427.264 294H178.736Z" style="fill:#fff;fill-opacity:1;stroke:none;stroke-width:.5999999" transform="translate(0 309)"/>
  <path d="M420.636-290 587-123.636v235.272L420.636 278H185.364L19 111.636v-235.272L185.363-290Z" style="fill:#be121e;fill-opacity:1;stroke:none;stroke-width:.56800014" transform="translate(0 309)"/>
  <text xml:space="preserve" x="120.628" y="474.041" style="font-style:normal;font-variant:normal;font-weight:400;font-stretch:normal;font-size:414.57489014px;line-height:1.25;font-family:&quot;Old Road Signs Font&quot;;-inkscape-font-specification:&quot;Old Road Signs Font&quot;;letter-spacing:0;word-spacing:0;fill:#000;fill-opacity:1;stroke:none;stroke-width:10.36437225" transform="translate(0 309)"/>
  <g aria-label="STOP" style="font-style:normal;font-variant:normal;font-weight:400;font-stretch:normal;font-size:288.18444824px;line-height:0;font-family:&quot;Roadgeek 2005 Series C&quot;;-inkscape-font-specification:&quot;Roadgeek 2005 Series C&quot;;letter-spacing:6.40027094px;word-spacing:0;fill:#000;fill-opacity:1;stroke:none;stroke-width:7.20461082">
    <path d="M147.781 37.804q0 11.816-4.323 22.19-4.034 10.087-11.527 17.58-7.205 7.492-17.003 12.103Q105.418 94 94.178 94q-12.68 0-22.766-4.9-10.086-4.898-17.003-13.256-6.916-8.357-10.663-19.308T40 33.769h27.09q0 6.052 1.44 12.104 1.73 5.764 4.9 10.663 3.458 4.611 8.357 7.493 5.187 2.882 12.392 2.882 5.475 0 10.374-2.306 5.188-2.305 8.646-6.34 3.746-4.034 5.764-9.222 2.305-5.475 2.305-11.239 0-8.357-3.458-14.697-3.458-6.629-12.104-13.257-1.44-1.44-1.153-1.44.288-.289-1.729-1.73-2.017-1.44-8.645-5.475-6.34-4.323-21.038-14.41-11.815-8.069-17.867-18.732-5.764-10.95-5.764-23.919 0-10.375 3.746-19.308 3.747-9.222 10.375-16.139 6.917-6.916 15.85-10.662Q88.415-106 98.79-106q10.374 0 19.02 3.746 8.934 3.747 15.274 10.375 6.628 6.628 10.374 15.85 4.035 9.222 4.323 20.173h-26.513q-.576-10.086-6.916-16.138T98.79-78.046q-9.51 0-16.139 6.34t-6.628 15.85q0 7.205 3.746 12.104t14.41 10.95q27.954 16.14 40.634 32.854 12.968 16.715 12.968 37.752M234.62-76.893V90.542h-27.953V-76.893h-35.159v-25.649h98.271v25.649zM412.45-6.288q0 22.19-2.593 37.752-2.306 15.562-8.358 29.395-7.204 17.29-18.155 25.36Q372.68 94 356.254 94q-17.29 0-28.242-7.781-10.663-8.07-17.867-25.36-6.052-14.121-8.646-29.395-2.305-15.562-2.305-37.752 0-21.902 2.305-37.464 2.594-15.85 8.646-29.683 7.493-17.291 18.155-24.784Q339.251-106 356.254-106q16.715 0 27.378 7.781 10.663 7.493 17.867 25.36 2.882 7.205 4.9 14.41 2.305 7.204 3.458 15.273 1.44 7.781 2.017 17.003.576 8.934.576 19.885m-26.513 0q0-8.07-.576-14.698-.288-6.628-1.153-12.103-.576-5.764-1.729-10.951t-2.594-10.375q-3.746-12.968-9.51-18.732-5.475-5.764-14.12-5.764-17.868 0-24.496 23.92-3.459 10.95-4.9 22.19-1.152 10.95-1.152 27.09 0 7.78.288 14.408.576 6.34 1.153 12.104.864 5.476 2.017 10.951t2.594 11.24q6.628 23.919 24.495 23.919 8.646 0 14.121-5.764 5.764-5.764 9.51-18.156 1.73-5.763 2.882-10.95 1.153-5.476 1.73-11.24.864-5.764 1.152-12.104.288-6.628.288-14.985M566-48.363q0 26.513-13.257 40.346Q539.775 5.816 515.28 5.816h-29.971v84.726h-27.666v-193.084h57.637q11.24 0 20.461 4.035 9.51 3.746 16.139 10.95 6.916 6.917 10.374 17.004Q566-60.467 566-48.363m-27.09 0q0-12.104-6.916-19.597-6.917-7.492-18.156-7.492h-28.53v54.755h28.53q12.104 0 18.444-7.205 6.628-7.205 6.628-20.461" style="font-style:normal;font-variant:normal;font-weight:400;font-stretch:normal;line-height:0;font-family:&quot;Roadgeek 2005 Series C&quot;;-inkscape-font-specification:&quot;Roadgeek 2005 Series C&quot;;letter-spacing:6.40027094px;fill:#fff;stroke:none;stroke-width:7.20461082" transform="translate(0 309)"/>
  </g>
</svg>
