<svg xmlns="http://www.w3.org/2000/svg" viewBox="0 0 310.719 259.188" role="img" aria-labelledby="title">
  <title id="title">Verkehrszeichen R7-Q04 - Bus Lane Ahead (used in QLD)</title>
  <path d="M11.008.761h288.7a10.24 10.24 0 0 1 10.252 10.253V248.18c0 5.672-4.58 10.256-10.253 10.256H11.008A10.243 10.243 0 0 1 .756 248.18V11.014A10.24 10.24 0 0 1 11.008.76z" style="fill:#fff;fill-opacity:1;fill-rule:evenodd;stroke:#000;stroke-width:1.5;stroke-linecap:butt;stroke-linejoin:miter;stroke-miterlimit:2.61299992;stroke-opacity:1;stroke-dasharray:none"/>
  <path d="M299.617 4.21c4.058.219 6.678 2.836 6.894 6.891V248.1c-.216 4.011-2.876 6.67-6.894 6.888H11.099c-4.018-.219-6.679-2.877-6.895-6.888V11.1C4.42 7.046 7.04 4.43 11.1 4.21z" style="fill:#000;fill-opacity:1;fill-rule:evenodd;stroke:none"/>
  <path d="m299.532 11.101.085.05v.04l.044.304v236.21l-.044.395-.394.043H11.487l-.388-.043-.047-.394V11.496l.047-.304.044-.09h.04l.304-.044h287.736z" style="fill:#fff;fill-opacity:1;fill-rule:evenodd;stroke:none"/>
  <path d="M70.739 116.73h7.066v34.64h23.257v6.589H70.739zM125.013 116.73h6.894l17.32 41.229h-7.764l-3.928-9.6h-17.932l-4.014 9.6h-7.592zm-2.574 24.52h12.13l-6.023-14.618zM161.095 116.73h6.764l18.935 27.268v-27.269h7.154v41.23h-6.413l-19.33-28.01v28.01h-7.11zM209.654 116.73h29.582v7.153h-22.472v8.205h12.132v7.198h-12.132v11.519h23.213v7.154h-30.323zM95.39 62.499V47.447c0-1.132 1.266-2.533 2.314-2.533h23.604c1.131 0 3.095.704 3.095 1.745v15.27c0 .83-.872 2.183-1.745 2.183H97.394c-.828 0-2.004-.875-2.004-1.613m33.462 0V47.447c0-1.132 1.398-2.533 2.358-2.533h25.914c1.176 0 3.015.704 3.015 1.745v15.27c0 .83-.698 2.183-1.66 2.183h-27.663c-.697 0-1.964-.875-1.964-1.613m35.648 0V47.447c0-1.132 1.267-2.533 2.358-2.533h25.783c1.176 0 3.14.704 3.14 1.745v15.27c0 .83-.782 2.183-1.745 2.183H166.33c-.654 0-1.83-.875-1.83-1.613m36.299 0V47.447c0-1.132 1.398-2.533 2.354-2.533h27.488c1.135 0 3.054.704 3.054 1.745v15.27c0 .83-.74 2.183-1.613 2.183h-29.188c-.829 0-2.095-.875-2.095-1.613M76.279 81.303V65.16l2.27-19.677h11.344v35.82zm35.12 10.078c3.977 0 7.113-3.008 7.113-6.892 0-3.883-3.136-7.157-7.113-7.157-3.968 0-7.282 3.274-7.282 7.157s3.314 6.892 7.282 6.892m85.126 0c3.97 0 7.2-3.008 7.2-6.892 0-3.883-3.23-7.157-7.2-7.157-3.928 0-7.158 3.274-7.158 7.157s3.23 6.892 7.158 6.892m14.089-6.37c-4.975-20.026-27.269-13.526-26.137 1.308H125.1c-7.545-20.765-27.747-15.312-28.838 0h-25.13V60.232l1.705-16.888s4.143-5.412 7.15-5.412h155.847c1.654 0 3.399 1.839 3.399 3.54v38.083zM33.959 199.188a27.9 27.9 0 0 1 4.19-14.746h-6.46v-2.445h9.424v2.445c-3.096 4.362-4.8 9.03-4.8 14.746zM87.535 191.337l-2.617 7.723h1.307l.7-2.183h2.443l.785 2.183h1.222l-2.617-7.723zm1.398 4.318H87.36l.785-2.267zM92.729 191.337h1.179l1.832 4.45 1.745-4.45h1.222v7.723H97.53v-4.493l-1.745 4.493-1.832-4.493v4.493h-1.223zM75.275 199.057h-.043l-1.439-1.92c1.745-1.57 3.096-2.617 4.012-4.975-.478.131-.829.175-1.395.175-1.7 0-4.536-1.482-4.536-5.497 0-2.923 1.744-5.321 4.668-5.321 2.967 0 4.756 1.788 4.756 5.628 0 1.832-.22 3.708-.96 5.322-1.048 2.313-2.314 4.8-5.063 6.588m1.267-9.03c1.307 0 2.486-1.18 2.486-2.88 0-2.358-1.18-3.274-2.486-3.274-1.31 0-2.358 1.398-2.358 3.099 0 1.657 1.048 3.055 2.358 3.055" style="fill:#000;fill-opacity:1;fill-rule:evenodd;stroke:none"/>
  <path d="M51.15 190.202h8.595v-2.313h-8.596z" style="fill:#000;fill-opacity:1;fill-rule:nonzero;stroke:none"/>
  <path d="M163.931 182.085v21.118l28.057-6.763c1.175 0 1.963.872 1.963 1.829 0 .437-.26.966-.569 1.225l-38 34.032-38.042-34.032c-.31-.26-.57-.788-.57-1.225 0-.957.785-1.83 1.961-1.83l28.056 6.764v-21.118zM201.759 181.869h2.573l4.146 9.946 3.84-9.946h2.748v17.19h-2.66v-9.992l-3.884 9.993-4.015-9.993v9.993h-2.748zM224.184 199.407c-3.577 0-6.066-2.617-6.066-8.946 0-6.238 2.27-8.942 6.066-8.942 3.927 0 6.022 3.927 6.022 8.942 0 4.278-1.135 8.946-6.022 8.946m0-2.749c2.182 0 3.23-1.788 3.23-6.197 0-4.055-1.048-6.15-3.23-6.15-2.226 0-3.358 1.7-3.358 6.15 0 4.234 1.22 6.197 3.358 6.197M233.301 181.869h2.27l6.545 11.169v-11.17h2.748v17.192h-2.314l-6.588-11.125v11.125h-2.66z" style="fill:#000;fill-opacity:1;fill-rule:evenodd;stroke:none"/>
  <path d="M248.222 193.91h10.472v-2.574h-10.472z" style="fill:#000;fill-opacity:1;fill-rule:nonzero;stroke:none"/>
  <path d="M260.964 181.869h10.471v2.66h-7.723v4.322h5.019v2.66h-5.019v7.549h-2.748zM276.888 184.53v4.23h3.709c1.222 0 2.095-1.175 2.095-2.267 0-1.047-1.048-1.963-2.183-1.963zm-2.617-2.661h6.413c2.486 0 4.625 2.267 4.625 4.843 0 2.136-1.135 3.315-2.574 4.23l3.099 8.118h-2.836l-2.795-7.548h-3.315v7.548h-2.617z" style="fill:#000;fill-opacity:1;fill-rule:evenodd;stroke:none"/>
  <path d="M288.886 199.057h2.705v-17.19h-2.705z" style="fill:#000;fill-opacity:1;fill-rule:nonzero;stroke:none"/>
</svg>
