<svg xmlns="http://www.w3.org/2000/svg" viewBox="0 0 868.875 580.5" role="img" aria-labelledby="title">
  <title id="title">Verkehrszeichen R5-65 - Park in Bays Only</title>
  <path d="M59.21 578.372h750.456c31.396 0 57.09-25.686 57.09-57.09V59.202c0-31.405-25.694-57.09-57.09-57.09H59.21c-31.395 0-57.09 25.685-57.09 57.09v462.08c0 31.404 25.695 57.09 57.09 57.09z" style="fill:#fff;fill-opacity:1;fill-rule:evenodd;stroke:#000;stroke-width:4.2320714;stroke-linecap:butt;stroke-linejoin:miter;stroke-miterlimit:2.61299992;stroke-opacity:1;stroke-dasharray:none"/>
  <path d="M60.672 566.177h747.532c26.831 0 48.79-21.959 48.79-48.799V60.664c0-26.83-21.959-48.79-48.79-48.79H60.672c-26.84 0-48.799 21.96-48.799 48.79v456.714c0 26.84 21.959 48.799 48.799 48.799" style="fill:#000;fill-opacity:1;fill-rule:evenodd;stroke:none"/>
  <path d="M60.646 549.585h747.496c16.354 0 29.74-12.953 29.74-28.788V59.687c0-15.835-13.386-28.788-29.74-28.788H60.646c-16.355 0-29.74 12.953-29.74 28.787v461.111c0 15.835 13.385 28.788 29.74 28.788" style="fill:#fff;fill-opacity:1;fill-rule:evenodd;stroke:none"/>
  <path d="M128.3 144.005v29.607h27.766c7.948 0 13.244-7.376 13.244-16.126 0-6.573-6.68-13.481-14.283-13.481zm-17.86-17.05h44.243c17.623 0 33.176 13.252 33.176 30.646 0 18.892-14.513 34.215-35.6 34.215h-23.958v50.34H110.44zM248.341 126.954l-38.938 115.088h19.236l10.485-32.488h36.868l11.173 32.488h18.663l-39.396-115.088zm20.849 64.633h-23.5l11.525-34.33zM353.525 144.93v28.223h24.884c7.948 0 13.94-7.833 13.94-15.094 0-7.252-7.146-13.13-14.627-13.13zm-17.623-17.976h42.85c16.937 0 30.991 15.209 30.991 32.488 0 14.293-7.49 22.126-17.165 28.347l20.743 54.377H394.42l-18.663-50.464h-22.232v50.464h-17.623zM443.968 126.954h17.623v46.772l36.753-46.772h22.813l-35.828 45.627 37.899 69.576h-20.276l-29.721-54.376-11.64 14.177v40.199h-17.623z" style="fill:#000;fill-opacity:1;fill-rule:evenodd;stroke:none"/>
  <path d="M622.42 242.166h18.088V126.963H622.42z" style="fill:#000;fill-opacity:1;fill-rule:nonzero;stroke:none"/>
  <path d="M680.25 126.954h15.21l43.89 75.004v-75.004h18.32v115.203h-15.553l-43.89-74.423v74.423H680.25zM101.963 400.907v36.286h20.161c7.26 0 11.173-9.103 11.173-14.284 0-6.679-3.11-22.002-16.01-22.002zm0-46.658v30.18h16.707c8.873 0 12.786-9.675 12.786-15.323 0-6.565-.459-14.857-12.442-14.857zm-15.438 99.192V338.23h33.987c20.16 0 26.725 16.936 26.725 29.149 0 12.098-2.643 18.319-12.556 25.923 11.41 6.336 14.865 18.434 14.865 30.876 0 13.71-9.217 29.263-26.85 29.263zM190.45 405.515h16.01l-7.948-30.99zm-27.308 47.926 27.307-115.211h16.01L235.15 453.44h-16.248l-8.292-32.03H187.34l-7.605 32.03zM246.896 338.239h17.861l18.663 41.018 18.196-41.018h17.289l-26.85 62.906v52.296H275.35v-52.296zM331.117 419.913h16.249c.115 13.253 4.256 19.588 15.315 19.932 9.217 0 14.865-7.719 14.865-17.165 0-2.538-.458-5.304-1.27-7.948-4.837-15.667-16.468-17.747-27.068-25.465-7.72-5.41-12.442-15.21-12.442-25.572 0-15.896 14.512-27.765 29.492-27.765 15.896 0 27.88 12.556 27.88 29.149h-15.896c0-5.649-6.344-13.253-11.984-13.253-6.106 0-13.253 5.181-13.253 12.098 0 4.953 1.613 10.363 7.834 13.368 16.592 8.291 32.955 22.46 32.955 45.388 0 20.505-14.063 32.964-31.113 32.964-17.165 0-31.564-11.772-31.564-35.73M504.732 455.653c-25.58 0-33.413-26.858-33.413-59.928 0-33.06 7.604-59.786 33.642-59.786 26.153 0 32.947 26.725 32.947 59.786 0 36.754-10.019 59.928-33.176 59.928m0-16.61c13.138 0 17.165-19.12 17.165-43.318 0-24.302-3.683-43.776-17.165-43.776s-17.05 19.474-17.05 43.776c0 24.197 2.996 43.318 17.05 43.318M556.227 338.239h15.782l30.532 66.589v-66.59h16.707v115.203h-13.024L572.01 377.75v75.691h-15.782zM643.092 338.239h16.363V438.24h41.238v15.2h-57.601zM710.607 338.239h17.86l18.664 41.018 18.195-41.018h17.289l-26.85 62.906v52.296H739.06v-52.296z" style="fill:#000;fill-opacity:1;fill-rule:evenodd;stroke:none"/>
</svg>
