<svg xmlns="http://www.w3.org/2000/svg" viewBox="0 0 303.219 202.563" role="img" aria-labelledby="title">
  <title id="title">Verkehrszeichen R9-1-1 - Time of Operation (Single time) (used with No u-turn, No left turn, No right turn or No turns signs)</title>
  <path d="M31.06 201.8h241.09c16.689 0 30.308-13.618 30.308-30.303V31.05c0-16.685-13.62-30.304-30.308-30.304H31.06C14.377.747.755 14.367.755 31.051v140.446c0 16.685 13.622 30.304 30.307 30.304z" style="fill:#fff;fill-opacity:1;fill-rule:evenodd;stroke:#000;stroke-width:1.5;stroke-linecap:butt;stroke-linejoin:miter;stroke-miterlimit:2.61299992;stroke-opacity:1;stroke-dasharray:none"/>
  <path d="M31.06 199.075h241.09c15.324 0 27.585-12.258 27.585-27.578V31.048c0-15.32-12.26-27.578-27.585-27.578H31.06A27.465 27.465 0 0 0 3.48 31.048v140.449a27.465 27.465 0 0 0 27.58 27.578" style="fill:#000;fill-opacity:1;fill-rule:evenodd;stroke:none"/>
  <path d="M30.72 193.799h241.602c12.09 0 21.965-9.873 21.965-21.962V30.707c0-12.085-9.876-21.958-21.965-21.958H30.72c-12.089 0-21.964 9.873-21.964 21.959v141.13c0 12.088 9.875 21.96 21.964 21.96" style="fill:#fff;fill-opacity:1;fill-rule:evenodd;stroke:none"/>
  <path d="M55.067 141.536h4.936l8.855 17.875 8.683-17.875h5.28v30.133h-5.108v-18.215l-8.855 18.215-8.683-17.875v17.875h-5.108zM101.207 167.073c4.936 0 7.322-4.768 7.322-10.556 0-5.617-2.554-10.385-7.322-10.385s-7.321 4.768-7.321 10.385c0 5.788 2.553 10.556 7.321 10.556m0 5.276c-8.342 0-12.43-7.15-12.43-15.832 0-8.512 4.428-15.661 12.43-15.661 8.174 0 12.598 7.15 12.598 15.66 0 8.683-4.255 15.833-12.598 15.833M119.597 141.536h4.936l13.794 19.92v-19.92h5.276v30.133h-4.767l-13.96-20.429v20.429h-5.28zM59.495 111.404c0-24.516 6.809-48.179 19.579-68.948H48.938V31.051h43.927v11.405c-14.472 20.429-22.302 42.219-22.302 68.948zM186.849 111.404h-.172l-6.637-8.851c8.17-7.49 14.47-12.258 18.558-23.495-2.214.68-3.747 1.02-6.3 1.02-8.175-.168-21.285-7.149-21.285-25.704 0-13.79 8.174-24.856 21.796-24.856 13.96 0 22.302 8.343 22.302 26.217 0 8.511-1.02 17.194-4.596 25.025-4.936 10.556-10.728 22.301-23.666 30.644zm5.96-42.218c6.129 0 11.577-5.62 11.577-13.45 0-10.897-5.448-15.153-11.577-15.153-6.132 0-11.068 6.47-11.068 14.3 0 7.833 4.936 14.303 11.068 14.303M241.334 81.272l-10.215 30.132h5.107l2.726-8.511h9.532l3.066 8.51h4.768l-10.216-30.131zm5.449 16.853h-6.13l3.064-8.851zM261.594 81.272h4.596l7.153 17.365 6.81-17.365h4.767v30.132h-4.596V93.87l-6.812 17.534-7.15-17.534v17.534h-4.768zM234.862 60.843h5.789c0 2.042.68 5.448 5.448 5.448 2.725 0 5.108-2.554 5.108-5.96-.169-2.55-.169-7.83-4.087-7.83h-3.403v-5.617h2.382c2.385 0 4.087-3.747 4.087-6.641 0-2.551-2.382-4.256-4.256-4.256-1.705 0-4.427 2.045-4.427 4.087l-5.28-.68c0-6.13 5.62-9.195 9.876-9.195 4.767 0 9.707 4.427 9.707 9.704 0 3.406-1.024 7.493-3.747 9.875 2.894 1.193 4.768 5.957 4.768 10.213 0 6.469-4.259 12.089-10.728 12.089-6.13 0-11.237-4.427-11.237-11.237M273.343 72.077c-8.342 0-11.577-8.511-11.577-20.94 0-12.427 2.894-20.938 11.577-20.938 9.023 0 11.577 9.532 11.577 20.937 0 13.45-3.063 20.94-11.577 20.94m0-5.789c4.596 0 6.129-6.81 6.129-15.152 0-8.34-1.873-15.149-6.129-15.149-4.596 0-5.96 6.81-5.96 15.15 0 8.342 1.533 15.151 5.96 15.151M185.656 141.536h22.133v5.277h-17.025v6.469h9.364v5.108h-9.364v13.279h-5.108zM213.07 141.536h14.47c5.449 0 9.195 4.256 9.195 9.023 0 3.063-2.042 6.978-5.276 8.343l5.617 12.767h-5.617l-5.28-11.746h-8.002v11.746h-5.108zm5.107 5.108v8.17l9.363.001c2.046 0 3.919-1.873 3.919-4.087 0-1.361-1.193-4.084-3.919-4.084z" style="fill:#000;fill-opacity:1;fill-rule:evenodd;stroke:none"/>
  <path d="M242.864 171.669h5.108v-30.133h-5.108zM154.668 159.24h20.091v-5.449h-20.09zM123.34 73.95h20.091v-5.448h-20.09z" style="fill:#000;fill-opacity:1;fill-rule:nonzero;stroke:none"/>
</svg>
