<svg xmlns="http://www.w3.org/2000/svg" viewBox="0 0 871.594 871.594" role="img" aria-labelledby="title">
  <title id="title">Verkehrszeichen R5-63 - End of 2 Hour Parking Area</title>
  <path d="M67.133 2.115H804.44c36.004 0 65.023 29.02 65.023 65.023v737.308c0 36.004-29.019 65.023-65.023 65.023H67.133c-36.005 0-65.024-29.019-65.024-65.023V67.138c0-36.004 29.02-65.023 65.024-65.023z" style="fill:#fff;fill-opacity:1;fill-rule:evenodd;stroke:#000;stroke-width:4.23333389;stroke-linecap:butt;stroke-linejoin:miter;stroke-miterlimit:11.47399998;stroke-opacity:1;stroke-dasharray:none"/>
  <path d="M804.086 13.539c31.928 1.839 52.123 22.034 53.962 53.962v736.591c-1.839 31.566-22.396 52.167-53.962 54.006H67.495c-31.574-1.839-52.176-22.44-54.015-54.006V67.501c1.84-31.928 22.034-52.123 54.015-53.962z" style="fill:#000;fill-opacity:1;fill-rule:evenodd;stroke:none"/>
  <path d="M810.302 37.766c16.525 4.739 22.44 13.926 24.633 31.212v733.637c-2.962 20.956-11.37 29.373-32.334 32.335H68.963c-20.955-2.962-29.373-11.38-32.335-32.335V68.978C39.59 47.66 47.645 39.605 68.963 36.643H802.6z" style="fill:#fff;fill-opacity:1;fill-rule:evenodd;stroke:none"/>
  <path d="M199.292 659.81h26.8l60.585 144.653h-27.905l-13.953-34.872h-62.052l-13.944 34.872h-26.808zm-5.87 85.917h40.752l-20.93-51.036zM314.21 659.81h69.763c22.025 0 42.22 20.929 42.22 42.954 0 14.686-7.348 36.349-23.864 40.39l27.162 61.31h-27.162l-25.704-56.536h-37.817v56.535H314.21zm24.598 24.97v38.179h45.165c9.54 0 18.356-8.807 18.356-18.727 0-6.977-11.017-19.452-18.356-19.452zM457.767 659.81h103.538v24.97h-78.94v30.106h43.688v24.961h-43.688v39.656h81.876v24.96H457.767zM641.714 659.81h26.8l60.584 144.653h-27.905l-13.952-34.872h-62.053l-13.952 34.872h-26.8zm-5.871 85.917h40.752l-20.929-51.036z" style="fill:#000;fill-opacity:1;fill-rule:evenodd;stroke:none"/>
  <path d="M164.782 337.055c29.736-26.437 74.529-45.527 114.547-45.527 52.503 0 113.088 27.905 113.088 88.852 0 49.568-21.3 64.245-102.071 85.545-16.888 5.509-58.746 37.083-62.415 64.617h167.05v49.93H164.782c0-66.084 43.688-133.636 106.837-159.711 34.881-14.687 72.335-9.178 72.335-45.156 0-17.259-29.01-34.147-59.117-34.147-27.162 0-65.712 7.71-85.907 31.946zM476.132 291.528h139.887c44.05 0 90.311 37.817 90.311 83.343 0 46.261-34.872 92.885-83.334 92.885h-96.563v112.716h-50.301zm48.1 49.93v76.367h91.787c23.493 0 40.019-12.847 40.019-37.816 0-22.026-21.3-38.551-42.23-38.551z" style="fill:#006330;fill-opacity:1;fill-rule:evenodd;stroke:none"/>
  <path d="M233.82 67.147h103.538v24.97h-78.94v30.106h43.688v24.961h-43.688v39.656h81.876v24.96H233.82zM369.667 67.147h22.759l67.19 95.457V67.147h25.331v144.654H462.56L395 113.408v98.393h-25.332zM522.03 67.147h46.994c42.22 0 68.286 35.244 68.286 73.06 0 35.987-26.066 71.594-64.616 71.594H522.03zM547 186.84h27.162c24.235 0 38.55-24.598 38.55-46.995 0-20.195-15.42-47.728-38.55-47.728h-27.163z" style="fill:#000;fill-opacity:1;fill-rule:evenodd;stroke:none"/>
</svg>
