<svg xmlns="http://www.w3.org/2000/svg" viewBox="0 0 133.938 222.625" role="img" aria-labelledby="title">
  <title id="title">Verkehrszeichen R4-4 - Shared Zone</title>
  <path d="M13.643 222.115h106.6c7.35 0 13.21-6.83 13.21-13.21V13.723c0-7.205-5.86-13.21-13.21-13.21h-106.6C6.51.513.505 6.518.505 13.723v195.182c0 6.38 6.005 13.21 13.138 13.21z" style="fill:#fff;fill-opacity:1;fill-rule:evenodd;stroke:#000;stroke-width:1;stroke-linecap:butt;stroke-linejoin:miter;stroke-miterlimit:2.61299992;stroke-opacity:1;stroke-dasharray:none"/>
  <path d="M13.643 219.863h106.6c6.005 0 10.801-5.86 10.801-10.958V13.723A10.76 10.76 0 0 0 120.243 2.91h-106.6C7.71 2.91 2.905 7.718 2.905 13.723v195.182c0 5.097 4.805 10.958 10.738 10.958" style="fill:#000;fill-opacity:1;fill-rule:evenodd;stroke:none"/>
  <path d="M13.643 215.055h106.6c3.45 0 6.152-3.68 6.152-6.152V13.721c0-3.45-2.702-6.161-6.152-6.161h-106.6c-3.378 0-6.089 2.71-6.089 6.16v195.183c0 2.472 2.711 6.152 6.089 6.152" style="fill:#fff;fill-opacity:1;fill-rule:evenodd;stroke:none"/>
  <path d="M66.943 92.098c20.342 0 37.004-16.599 37.004-36.94 0-20.343-16.662-37.005-37.004-37.005-20.351 0-36.941 16.662-36.941 37.004s16.59 36.941 36.94 36.941m.072-8.935c15.462 0 28.078-12.616 28.078-28.078S82.477 27.007 67.015 27.007 38.937 39.623 38.937 55.085s12.616 28.078 28.078 28.078" style="fill:#c0111e;fill-opacity:1;fill-rule:evenodd;stroke:none"/>
  <path d="M51.96 69.838V45.967h-2.477v-3.455c1.426-.375 2.626-.901 3.453-2.252h3.829v29.578zM74.93 70.437c-7.883 0-10.36-6.907-10.36-15.39s2.551-15.388 10.36-15.388c7.882 0 10.435 6.904 10.435 15.388s-2.479 15.39-10.436 15.39m0-4.58c4.427 0 5.78-4.88 5.78-10.81 0-6.005-1.127-10.81-5.78-10.81-4.58 0-5.782 4.805-5.782 10.81 0 5.93 1.428 10.81 5.781 10.81M18.627 114.503l2.702-.901c.976 1.952 2.026 2.627 4.055 2.627 1.125 0 2.476-1.276 2.476-2.476 0-1.803-.976-2.702-4.505-3.08-.524-.074-1.651-.449-2.55-1.276-.753-.599-1.428-1.65-1.428-3.226 0-3.38 2.627-5.556 5.555-5.556 2.479 0 3.979 1.277 4.955 3.904l-2.628.825c-.45-1.5-1.577-1.8-2.702-1.877-1.35 0-2.478 1.353-2.478 2.478 0 .827.6 1.577 1.276 1.803 1.128.375 2.78.149 3.904.75 1.803.825 3.303 2.476 3.303 4.803 0 3.303-2.175 5.781-5.704 5.781-2.178 0-5.255-1.802-6.231-4.579M35.067 100.99h2.702v6.982h6.457v-6.981h2.777v17.716h-2.777v-7.733H37.77v7.733h-2.702zM57.59 100.99l-6.006 17.717h3.003l1.577-5.029h5.705l1.726 5.03h2.853l-6.082-17.717zm3.228 9.91h-3.603l1.726-5.255zM73.804 103.767v4.354h3.83c1.2 0 2.175-1.2 2.175-2.327 0-1.125-1.125-2.027-2.252-2.027zm-2.702-2.776h6.606c2.553 0 4.729 2.327 4.729 5.029 0 2.175-1.125 3.377-2.628 4.353l3.229 8.332H80.11l-2.854-7.73h-3.452v7.73h-2.702zM87.692 100.99h10.135v2.854h-7.359v4.353h5.106v2.777h-5.106v4.955h8.034v2.778h-10.81zM103.382 100.99h4.955c4.353 0 6.98 3.83 6.98 9.16 0 3.903-2.4 8.557-6.98 8.557h-4.955zm2.853 14.864h2.027c3.303 0 4.279-3.827 4.279-5.705 0-2.478-.827-6.382-4.279-6.382h-2.027zM36.344 130.343v-2.777h11.334v1.726l-8.332 13.212h8.332v2.777H35.743v-2.327l7.808-12.611zM58.414 145.656c-3.678 0-6.23-2.702-6.23-9.234 0-6.38 2.326-9.233 6.23-9.233 4.053 0 6.231 4.053 6.231 9.233 0 4.428-1.202 9.234-6.23 9.234m0-2.854c2.253 0 3.303-1.8 3.303-6.38 0-4.204-1.05-6.305-3.303-6.305-2.252 0-3.454 1.726-3.454 6.305 0 4.354 1.276 6.38 3.454 6.38M69.376 127.564h2.327l6.757 11.56v-11.56h2.852v17.717H78.91l-6.757-11.412v11.412h-2.777zM87.391 127.564h10.135v2.853h-7.358v4.354h5.106v2.776h-5.106v4.955h8.034v2.779h-10.81zM35.707 163.257c1.73-.896 2.48-5.099 1.427-6.682-1.272-1.647-4.055-1.878-5.557-1.647-1.272.144-2.022.603-3.003 1.73-.822 1.042-.52.97-.52 2.47 0 1.127-.146 1.127-.146 2.107 0 .595.522.97 1.041 1.647.606.303 1.356.823 1.356.823 0 .458 1.805.158 1.805.605 0 0-2.784 2.325-3.91 3.9-1.273 1.428-2.023 2.18-2.92 3.002-.906.908-2.856 2.18-4.963 2.336-2.095.147-2.628.073-2.628.073-.144-.229-.594-.375-.822-.531-.45-.073-.753-.292-1.128-.22-.072.073.075.522 0 .75 0 .147-.52.303-.594.595-.156.302-.375 1.127 0 1.283.97.303 2.325.22 3.222.303 2.105.144 4.733.291 6.308.291 1.574 0 2.18-3.9 4.202-4.202-.447 2.033-.522 2.7-.522 3.003-.156 2.857-2.031 6.454-2.553 9.54-.075.594 2.022.97 1.73.594-.083-.072 0 .981 0 1.356 0 .897-1.283 1.053-1.283 1.803 0 3.077 1.284 4.954 1.428 7.957 0 .22.825 4.202.825 4.43 0 .292-.678 1.128-1.344 1.345-.534.074-1.586.677-2.034.908-.45.147-.969.447-.824.897.074.522.824.677 1.272.677.833 0 1.805-.533 2.627-.677.375 0 1.73-.75 2.18-.75.448 0 .156 1.052.531 1.052.45.073.375.073 1.575-.074.522-.084.147-1.356.219-1.875 0-.606 0-1.356-.147-2.108-.144-.603-.897-1.198-.897-1.803 0-.97-.375-.825-.458-1.803 0-1.346-.595-2.847-.75-4.046 0-.303-.22-2.336-.22-2.336.595-.667 1.647-2.472 3.378-3.45.45 1.575.594 3.305.594 3.45.752 1.805 3.005 3.608 4.13 4.963.834.667 1.961 1.647 2.48 2.544v1.586c0 .447-.3.97-.519 1.344-.459.448-1.127.75-1.586 1.356-.072.22-.375 1.053 0 1.2.459.375 1.053.072 1.586.072.145 0 .667-.147 1.042-.522.677-.605 1.208-1.803 2.105-2.555.075-.072.522.605.606.45.666-.148 1.272.155 1.502-.522.145-.606.072-1.878 0-2.178-.533-.378-1.586-.897-2.336-1.356 0 0-1.272-1.877-1.794-2.702-.605-.822-1.877-3.378-2.033-3.45-.147 0-.897-2.105-.897-2.105.22-.45.75-1.794.75-1.794.678-.084 1.805-.303 3.38-1.211-1.503-2.325-3.305-4.347-3.38-6.453 0-1.2-1.053-4.13-.906-6.382 1.961.98 3.003 3.305 3.158 4.13.45 1.125 1.95 3.305 2.4 4.43.75 2.628 2.325 2.93 2.553-.072.147-2.858-1.573-5.255-2.397-7.663-.459-1.42-2.18-3.294-2.93-4.505-.303-.52-1.659-2.47-2.7-3.147 0 0-2.784-2.108-2.711-2.18m54.133-9.082c4.577.075 10.207 0 14.482.375.825 0 2.252.753 2.702 1.575 1.959 3.827 2.553 8.185 4.283 12.012.753 1.803 2.775 3.45 3.68 5.255 1.128 2.178 2.4 4.128 3.15 6.683.23.825-.228 2.628 0 3.525.075.302 1.053.228 1.053.228v4.432h-1.73v13.44c0 .823-.823 1.72-1.575 2.023-.897.375-2.022.302-2.928 0-.678-.375-1.575-1.053-1.575-1.805l-.075-8.56-21.467-.073-20.426.072-.072 8.56c0 .753-.825 1.43-1.575 1.806-.906.302-2.033.375-2.93 0-.678-.303-1.575-1.2-1.575-2.022v-13.44h-1.73v-4.433s.98.074 1.053-.228c.23-.897-.229-2.7 0-3.525.824-2.555 2.024-4.505 3.15-6.683.907-1.805 2.93-3.452 3.68-5.255 1.73-3.827 2.324-8.185 4.285-12.012.45-.822 1.647-1.5 2.7-1.575 4.433-.447 8.854-.3 13.44-.375m-18.245 15.39h37.982l-4.055-10.957c-.22-.678-1.042-1.356-1.72-1.356H77.527c-.752 0-1.805.531-1.95 1.125zm-.825 11.866v-4.056h-3.23c-.753 0-1.722.22-2.18.897-.376.531-.292 1.5.083 2.178l.594.98zm39.56 0v-4.056h3.158c.75 0 1.793.22 2.169.897.375.531.302 1.5 0 2.178l-.595.98z" style="fill:#000;fill-opacity:1;fill-rule:evenodd;stroke:none"/>
</svg>
