<svg xmlns="http://www.w3.org/2000/svg" viewBox="0 0 606 1406" role="img" aria-labelledby="title">
  <title id="title">Verkehrszeichen R4-243-NSW - End of Bus Speed Limit (used in NSW)</title>
  <g transform="translate(0 1109)">
    <rect width="604" height="1404" x="1" y="-1108" rx="62" ry="62" style="opacity:1;fill:#000;fill-opacity:1;fill-rule:nonzero;stroke:none;stroke-width:175.11445618;stroke-linecap:square;stroke-linejoin:round;stroke-miterlimit:4;stroke-dasharray:none;stroke-opacity:1"/>
    <rect width="600" height="1400" x="3" y="-1106" rx="60" ry="60" style="opacity:1;fill:#fff;fill-opacity:1;fill-rule:nonzero;stroke:none;stroke-width:174.28485107;stroke-linecap:square;stroke-linejoin:round;stroke-miterlimit:4;stroke-dasharray:none;stroke-opacity:1"/>
    <circle cx="303" cy="-510" r="296" style="opacity:1;fill:#000;fill-opacity:1;fill-rule:nonzero;stroke:none;stroke-width:106.33864594;stroke-linecap:square;stroke-linejoin:round;stroke-miterlimit:4;stroke-dasharray:none;stroke-opacity:1"/>
    <circle cx="303" cy="-510" r="236" style="opacity:1;fill:#fff;fill-opacity:1;fill-rule:nonzero;stroke:none;stroke-width:84.78351593;stroke-linecap:square;stroke-linejoin:round;stroke-miterlimit:4;stroke-dasharray:none;stroke-opacity:1"/>
    <path d="M260.024-451.902v57.752h-36.311v-57.752H108.9v-21.787L223.713-625.85h36.311v140.75h22.133v33.198zm-36.311-120.346L157.66-485.1h66.052zM497.1-509.654q0 27.665-6.57 52.91t-18.675 40.807Q452.489-390 415.832-390q-24.553 0-40.461-10.029t-26.283-31.47q-7.262-14.87-11.758-35.965-4.495-21.44-4.495-42.19 0-28.703 6.57-53.257 6.917-24.553 18.675-41.152 10.374-13.142 24.553-19.366Q397.157-630 417.215-630q22.133 0 37.695 10.029t26.628 31.47q7.262 15.561 11.412 36.31t4.15 42.537m-36.657 0q0-19.712-3.458-36.311-3.459-16.946-10.375-28.704-5.533-8.991-12.795-13.14-6.917-4.15-17.292-4.842-13.487-.692-22.478 6.224t-14.87 22.479q-4.496 10.374-6.917 25.245-2.075 14.524-2.075 29.049 0 18.674 3.459 35.965t10.374 28.358q5.533 8.99 13.141 13.487 7.609 4.495 18.675 4.495 12.795 0 21.095-6.916 8.645-6.917 14.524-22.479 1.73-4.495 3.459-10.72 1.729-6.57 2.766-13.487 1.383-7.262 2.075-14.525.692-7.262.692-14.178" style="font-style:normal;font-variant:normal;font-weight:400;font-stretch:normal;font-size:345.82131958px;line-height:0;font-family:&quot;Roadgeek 2005 Series D&quot;;-inkscape-font-specification:&quot;Roadgeek 2005 Series D&quot;;letter-spacing:0;word-spacing:0;fill:#000;fill-opacity:1;stroke:none;stroke-width:8.64553261"/>
    <g aria-label="BUS" style="font-style:normal;font-variant:normal;font-weight:400;font-stretch:normal;font-size:144.09222412px;line-height:0;font-family:&quot;Roadgeek 2005 Series EM&quot;;-inkscape-font-specification:&quot;Roadgeek 2005 Series EM&quot;;letter-spacing:.03175px;word-spacing:0;fill:#000;fill-opacity:1;stroke:none;stroke-width:3.60230541">
      <path d="M241.154-94.548q0 7.926-3.89 14.698-3.747 6.628-10.375 10.374-6.772 3.747-14.265 3.747H163.2v-96.83h45.1q3.17 0 5.331.144 2.306.144 4.18.576 1.872.433 3.457 1.153 1.73.72 3.603 1.873 6.052 3.314 9.654 9.654 3.602 6.196 3.602 13.257 0 11.095-7.78 18.732 10.806 8.934 10.806 22.622m-22.046-41.354q0-7.349-8.79-7.349H182.22v16.57h26.37q4.61 0 7.492-2.593 3.026-2.738 3.026-6.628m3.026 41.354q0-3.602-1.73-6.772-1.584-3.17-4.754-4.755-1.585-.72-3.314-1.009-1.585-.288-4.035-.288h-26.08v22.335h28.818q5.331 0 8.213-2.594t2.882-6.917M340.533-105.354q0 7.348-1.153 12.247-1.152 4.755-4.034 9.799-2.45 4.322-6.052 7.925-3.458 3.458-7.781 6.052t-9.222 3.89Q307.39-64 302.205-64q-7.926 0-15.13-3.026-7.06-3.026-12.536-8.213-5.476-5.188-8.79-12.104-3.17-6.916-3.17-14.697v-60.519h19.02v59.942q0 3.89 1.73 7.493 1.729 3.458 4.466 6.196 2.882 2.594 6.484 4.179 3.747 1.44 7.637 1.44 5.332 0 9.943-2.593 4.755-2.594 7.348-7.205.72-1.44 1.153-2.593.577-1.153.72-2.45.289-1.44.289-3.026.144-1.729.144-4.178v-57.205h19.02zM442.8-94.115q0 7.637-3.746 14.409-3.746 6.628-10.086 10.23-4.323 2.594-11.24 4.035T403.896-64q-8.214 0-15.85-2.161-7.637-2.306-13.978-6.629-2.305-1.296-4.322-2.881-1.873-1.585-5.188-4.611l13.545-13.545q6.052 5.62 12.104 8.07 6.196 2.449 14.697 2.449 8.358 0 13.545-2.738 5.331-2.738 5.331-7.781 0-2.017-1.152-4.467-1.153-2.45-3.17-3.746-1.297-.72-2.738-1.297-1.441-.72-3.603-1.297-2.017-.576-5.187-1.153-3.026-.72-7.78-1.585-7.782-1.873-12.537-3.458-4.755-1.73-7.78-3.746-4.9-3.315-7.782-9.078-2.738-5.764-2.738-11.816 0-7.348 3.459-13.689 3.602-6.34 10.086-10.086 4.035-2.45 8.934-3.602Q396.69-164 403.175-164q8.213 0 15.562 1.873 7.493 1.873 13.545 5.62 1.585 1.008 2.593 1.873 1.153.72 3.459 2.594l-11.816 15.13q-5.908-4.323-11.527-6.053-5.62-1.729-12.536-1.729-6.629 0-10.52 2.306-3.745 2.305-3.745 6.916 0 1.73 1.008 3.603 1.009 1.729 2.738 2.45 1.297.72 2.738 1.152 1.44.288 3.026.864l3.026.289 3.458.72 4.323.72q17.002 3.026 25.648 10.952 8.645 7.78 8.645 20.605" style="font-style:normal;font-variant:normal;font-weight:400;font-stretch:normal;line-height:0;font-family:&quot;Roadgeek 2005 Series EM&quot;;-inkscape-font-specification:&quot;Roadgeek 2005 Series EM&quot;;letter-spacing:.03175px;fill:#000;stroke:none;stroke-width:3.60230541"/>
      <g aria-label="SPEED" style="font-style:normal;font-variant:normal;font-weight:400;font-stretch:normal;font-size:144.09222412px;line-height:0;font-family:&quot;Roadgeek 2005 Series EM&quot;;-inkscape-font-specification:&quot;Roadgeek 2005 Series EM&quot;;letter-spacing:.0555625px;word-spacing:0;fill:#000;fill-opacity:1;stroke:none;stroke-width:12.97660542">
        <path d="M154.242 52.885q0 7.637-3.746 14.409-3.747 6.628-10.087 10.23-4.322 2.594-11.239 4.035Q122.254 83 115.337 83q-8.213 0-15.85-2.161-7.637-2.306-13.977-6.629-2.305-1.296-4.323-2.881-1.873-1.585-5.187-4.611l13.545-13.545q6.052 5.62 12.104 8.07 6.196 2.449 14.697 2.449 8.357 0 13.545-2.738 5.331-2.738 5.331-7.781 0-2.017-1.153-4.467-1.152-2.45-3.17-3.746-1.297-.72-2.737-1.297-1.441-.72-3.603-1.297-2.017-.576-5.187-1.153-3.026-.72-7.781-1.585-7.781-1.873-12.536-3.458-4.755-1.73-7.781-3.746-4.9-3.314-7.781-9.078-2.738-5.764-2.738-11.816 0-7.348 3.458-13.689 3.603-6.34 10.087-10.086 4.034-2.45 8.934-3.602Q108.133-17 114.617-17q8.213 0 15.562 1.873 7.493 1.873 13.544 5.62 1.586 1.008 2.594 1.873 1.153.72 3.458 2.594L137.96 10.09q-5.908-4.323-11.528-6.053t-12.536-1.729q-6.628 0-10.518 2.306-3.747 2.305-3.747 6.916 0 1.73 1.009 3.603 1.009 1.729 2.738 2.45 1.297.72 2.737 1.152 1.441.288 3.026.864l3.026.289 3.459.72 4.322.72q17.003 3.026 25.649 10.952 8.645 7.78 8.645 20.605M256.373 14.556q0 8.358-4.034 15.562-4.035 7.06-10.951 10.807-2.162 1.153-4.179 2.017-1.873.72-4.034 1.153-2.018.432-4.611.72-2.45.145-5.764.145h-25.36v36.31h-19.02v-96.83h45.389q6.051 0 9.798.865t7.78 3.17Q248.305-7.49 252.34-.573q4.034 6.916 4.034 15.13m-19.02 0q0-4.61-3.458-7.637-3.314-3.17-8.79-3.17H197.44v21.902h27.665q5.62 0 8.934-3.026t3.314-8.069M273.88 81.27v-96.83h70.46V3.75H292.9V19.6h29.107v19.308H292.9v23.055h52.738V81.27zM365.963 81.27v-96.83h70.461V3.75h-51.44V19.6h29.106v19.308h-29.107v23.055h52.738V81.27zM536 32.856q0 11.095-3.458 20.029t-9.798 15.273q-6.196 6.196-14.986 9.655t-19.596 3.458h-30.116v-96.83h30.116q10.95 0 19.74 3.458t14.986 9.798q6.34 6.34 9.654 15.274Q536 21.905 536 32.856m-19.02 0q0-13.833-7.349-21.47-7.348-7.637-20.46-7.637h-12.105v58.214h12.104q13.113 0 20.461-7.637 7.349-7.637 7.349-21.47" style="font-style:normal;font-variant:normal;font-weight:400;font-stretch:normal;line-height:0;font-family:&quot;Roadgeek 2005 Series EM&quot;;-inkscape-font-specification:&quot;Roadgeek 2005 Series EM&quot;;letter-spacing:.0555625px;fill:#000;stroke:none;stroke-width:12.97660542" transform="translate(-3 3)"/>
        <g aria-label="LIMIT" style="font-style:normal;font-variant:normal;font-weight:400;font-stretch:normal;font-size:148.80952454px;line-height:0;font-family:&quot;Roadgeek 2005 Series EM&quot;;-inkscape-font-specification:&quot;Roadgeek 2005 Series EM&quot;;letter-spacing:0;word-spacing:0;fill:#000;fill-opacity:1;stroke:none;stroke-width:48.27606201">
          <path d="M120.7 233V133h19.643v81.101h54.464V233zM210.509 233V133h19.94v100zM331.977 233v-54.167L305.34 233l-27.232-54.167V233h-19.643V133h19.643l27.232 54.91L331.977 133h19.494v100zM379.356 233V133h19.94v100zM464.068 152.94V233h-19.196v-80.06h-27.679V133H491.3v19.94z" style="font-style:normal;font-variant:normal;font-weight:400;font-stretch:normal;line-height:0;font-family:&quot;Roadgeek 2005 Series EM&quot;;-inkscape-font-specification:&quot;Roadgeek 2005 Series EM&quot;;fill:#000;stroke:none;stroke-width:48.27606201" transform="translate(-3 3)"/>
        </g>
      </g>
    </g>
    <g aria-label="END" style="font-style:normal;font-variant:normal;font-weight:400;font-stretch:normal;font-size:238.09524536px;line-height:0;font-family:&quot;Roadgeek 2005 Series EM&quot;;-inkscape-font-specification:&quot;Roadgeek 2005 Series EM&quot;;letter-spacing:4.83658314px;word-spacing:0;fill:#000;fill-opacity:1;stroke:none;stroke-width:5.95238066">
      <path d="M71-866v-160h116.429v31.905h-85v26.19h48.095V-936h-48.095v38.095h87.143V-866ZM329.33-866l-70-102.38V-866H227.9v-160h31.429l65.952 97.857V-1026h31.429v160zM535-946q0 18.333-5.715 33.095t-16.19 25.238q-10.238 10.239-24.762 15.953T455.952-866H406.19v-160h49.762q18.095 0 32.619 5.714t24.762 16.19q10.476 10.477 15.952 25.239Q535-964.095 535-946m-31.429 0q0-22.857-12.143-35.476t-33.81-12.62h-20v96.191h20q21.667 0 33.81-12.619T503.571-946" style="font-style:normal;font-variant:normal;font-weight:400;font-stretch:normal;line-height:0;font-family:&quot;Roadgeek 2005 Series EM&quot;;-inkscape-font-specification:&quot;Roadgeek 2005 Series EM&quot;;letter-spacing:4.83658314px;fill:#000;stroke:none;stroke-width:5.95238066"/>
    </g>
  </g>
</svg>
