<svg xmlns="http://www.w3.org/2000/svg" viewBox="0 0 606 1006" role="img" aria-labelledby="title">
  <title id="title">Verkehrszeichen R4-11[50] - End of 50&amp;nbsp;km/h Speed Limit Zone Area</title>
  <g transform="translate(0 709)">
    <rect width="604" height="1004" x="1" y="-708" rx="77" ry="77" style="opacity:1;fill:#000;fill-opacity:1;fill-rule:nonzero;stroke:none;stroke-width:157.30535889;stroke-linecap:square;stroke-linejoin:round;stroke-miterlimit:4;stroke-dasharray:none;stroke-opacity:1"/>
    <rect width="600" height="1000" x="3" y="-706" rx="75" ry="75" style="opacity:1;fill:#fff;fill-opacity:1;fill-rule:nonzero;stroke:none;stroke-width:156.47099304;stroke-linecap:square;stroke-linejoin:round;stroke-miterlimit:4;stroke-dasharray:none;stroke-opacity:1"/>
    <circle cx="303" cy="-188" r="213" style="opacity:1;fill:#000;fill-opacity:1;fill-rule:nonzero;stroke:none;stroke-width:66.86671448;stroke-linecap:square;stroke-linejoin:round;stroke-miterlimit:4;stroke-dasharray:none;stroke-opacity:1"/>
    <circle cx="303" cy="-188" r="171" style="opacity:1;fill:#fff;fill-opacity:1;fill-rule:nonzero;stroke:none;stroke-width:53.68172836;stroke-linecap:square;stroke-linejoin:round;stroke-miterlimit:4;stroke-dasharray:none;stroke-opacity:1"/>
    <g aria-label="AREA" style="font-style:normal;font-variant:normal;font-weight:400;font-stretch:normal;font-size:201.49253845px;line-height:0;font-family:&quot;Roadgeek 2005 Series D&quot;;-inkscape-font-specification:&quot;Roadgeek 2005 Series D&quot;;letter-spacing:0;word-spacing:0;fill:#000;fill-opacity:1;stroke:none;stroke-width:5.03731346">
      <path d="m431.497 145.333-13.299-37.88h-42.112l-13.298 37.88h-22.769l46.545-135h21.156l46.545 135zm-34.053-97.522-13.903 37.88h27zM543.4 145.333l-21.76-58.835h-25.59v58.835h-21.358v-135h44.53q7.858 0 13.5 1.008 5.641.806 10.679 3.224 4.432 2.216 8.06 5.843 3.828 3.425 6.447 8.06 2.82 4.432 4.231 9.671 1.612 5.038 1.612 10.075 0 5.44-1.612 10.679-1.41 5.037-4.231 9.672-2.62 4.433-6.65 8.06-3.828 3.626-8.462 5.641l23.776 63.067zm-1.007-97.12q0-4.23-2.216-8.059t-6.247-6.045q-2.62-1.41-4.835-1.813-2.217-.604-7.456-.604h-25.59v33.044h25.59q5.038 0 7.254-.403 2.418-.403 5.037-1.813 4.03-2.217 6.247-6.045 2.216-4.03 2.216-8.261M589.212 145.333v-135h79.59v21.359H610.57v33.044h39.291v21.762H610.57v37.074h62.463v21.761zM775.45 145.333l-13.298-37.88H720.04l-13.298 37.88h-22.769l46.545-135h21.157l46.544 135zm-34.052-97.522-13.903 37.88h27z" style="font-style:normal;font-variant:normal;font-weight:400;font-stretch:normal;line-height:0;font-family:&quot;Roadgeek 2005 Series D&quot;;-inkscape-font-specification:&quot;Roadgeek 2005 Series D&quot;;fill:#000;fill-opacity:1;stroke:none;stroke-width:5.03731346" transform="translate(-266.12 81.667)"/>
    </g>
    <g aria-label="END" style="font-style:normal;font-variant:normal;font-weight:400;font-stretch:normal;font-size:238.80596924px;line-height:0;font-family:&quot;Roadgeek 2005 Series D&quot;;-inkscape-font-specification:&quot;Roadgeek 2005 Series D&quot;;letter-spacing:0;word-spacing:0;fill:#000;fill-opacity:1;stroke:none;stroke-width:5.97014904">
      <path d="M108.9-470v-160h94.328v25.313h-69.015v39.165h46.568v25.79h-46.568v43.941h74.03V-470zM321.747-470l-61.134-108.418V-470h-25.314v-160h25.314L318.88-527.79V-630h25.314v160zM491.1-550.239q0 24.12-7.403 42.508-7.164 18.149-20.776 28.656-4.537 4.299-10.746 6.448-5.97 2.15-12.18 2.627h-57.79v-160h51.582q5.97 0 10.269.478 4.537.238 8.12 1.194 3.581.955 6.447 2.627t6.209 4.06q12.656 10.984 19.343 29.372 6.925 18.15 6.925 42.03m-25.79 0q0-16.239-3.583-28.895-3.343-12.657-9.313-18.866-3.105-2.866-7.164-4.776-4.06-1.91-9.075-1.91h-28.657v108.895h25.314q6.209 0 10.268-1.433 4.299-1.433 7.642-4.776 7.164-7.164 10.746-19.582 3.821-12.657 3.821-28.657" style="font-style:normal;font-variant:normal;font-weight:400;font-stretch:normal;line-height:0;font-family:&quot;Roadgeek 2005 Series D&quot;;-inkscape-font-specification:&quot;Roadgeek 2005 Series D&quot;;fill:#000;stroke:none;stroke-width:5.97014904" transform="translate(3 -3)"/>
    </g>
    <g aria-label="50" style="font-style:normal;font-variant:normal;font-weight:400;font-stretch:normal;font-size:259.36599731px;line-height:0;font-family:&quot;Roadgeek 2005 Series D&quot;;-inkscape-font-specification:&quot;Roadgeek 2005 Series D&quot;;letter-spacing:0;word-spacing:0;fill:#ff7f2a;fill-opacity:1;stroke:none;stroke-width:6.48414993">
      <path d="M283.47-133.01q0 14.525-5.705 26.716-5.447 12.19-15.562 21.268-10.115 9.077-24.121 14.265-13.747 4.928-30.346 4.928-11.412 0-22.565-2.594-10.893-2.594-19.971-7.262l13.487-24.38q5.447 2.852 14.265 4.668 8.819 1.556 18.415 1.556 9.337 0 17.378-2.853 8.3-3.112 14.265-8.3 6.225-5.187 9.596-12.19 3.372-7.262 3.372-15.821 0-6.484-2.594-11.931-2.334-5.447-6.743-9.597-4.15-4.15-9.856-6.484-5.447-2.334-11.93-2.334-4.67 0-8.3.778-3.372.778-6.485 2.853-3.112 2.075-6.224 5.706-3.113 3.372-7.003 8.819l-27.493-7.781 4.41-89.74h99.855v27.492h-73.141l-1.816 28.53q9.597-2.853 15.043-3.89 5.447-1.038 11.931-1.038 11.931 0 22.306 4.669 10.634 4.668 18.415 12.709 8.04 8.04 12.45 18.674 4.668 10.634 4.668 22.565M440.8-155.574q0 20.75-4.928 39.683-4.928 18.934-14.006 30.605-14.525 19.453-42.017 19.453-18.415 0-30.346-7.522T329.79-96.957q-5.447-11.153-8.818-26.974-3.372-16.081-3.372-31.643 0-21.527 4.928-39.942 5.187-18.415 14.006-30.865 7.78-9.856 18.415-14.524 10.893-4.928 25.936-4.928 16.6 0 28.271 7.521 11.672 7.522 19.971 23.603 5.447 11.671 8.56 27.233 3.112 15.562 3.112 31.902m-27.493 0q0-14.784-2.594-27.233-2.593-12.71-7.78-21.528-4.15-6.743-9.597-9.856-5.188-3.112-12.969-3.63-10.115-.52-16.858 4.668-6.744 5.187-11.153 16.859-3.372 7.78-5.187 18.933-1.557 10.894-1.557 21.787 0 14.006 2.594 26.974t7.781 21.268q4.15 6.744 9.856 10.115t14.006 3.372q9.596 0 15.821-5.187 6.484-5.187 10.893-16.859 1.297-3.372 2.594-8.04 1.297-4.928 2.075-10.116 1.037-5.446 1.556-10.893t.519-10.634" style="font-style:normal;font-variant:normal;font-weight:400;font-stretch:normal;line-height:0;font-family:&quot;Roadgeek 2005 Series D&quot;;-inkscape-font-specification:&quot;Roadgeek 2005 Series D&quot;;fill:#000;stroke:none;stroke-width:6.48414993" transform="translate(0 -32.167)"/>
    </g>
  </g>
</svg>
