<svg xmlns="http://www.w3.org/2000/svg" viewBox="0 0 229 454" role="img" aria-labelledby="title">
  <title id="title">Verkehrszeichen R5-23 - Loading Zone</title>
  <g transform="translate(0 157)">
    <rect width="227" height="452" x="1" y="-156" rx="26" ry="26" style="opacity:1;fill:#000;fill-opacity:1;fill-rule:nonzero;stroke:none;stroke-width:72.09005737;stroke-linecap:square;stroke-linejoin:round;stroke-miterlimit:4;stroke-dasharray:none;stroke-opacity:1"/>
    <rect width="225" height="450" x="2" y="-155" rx="25" ry="25" style="opacity:1;fill:#fff;fill-opacity:1;fill-rule:nonzero;stroke:none;stroke-width:71.61280823;stroke-linecap:square;stroke-linejoin:round;stroke-miterlimit:4;stroke-dasharray:none;stroke-opacity:1"/>
    <rect width="200" height="140" x="14.5" y="-120" rx="12.5" ry="12.5" style="opacity:1;fill:#be121e;fill-opacity:1;fill-rule:nonzero;stroke:none;stroke-width:37.65929794;stroke-linecap:square;stroke-linejoin:round;stroke-miterlimit:4;stroke-dasharray:none;stroke-opacity:1"/>
    <g aria-label="ZONE" style="font-style:normal;font-variant:normal;font-weight:400;font-stretch:normal;font-size:72.04611206px;line-height:0;font-family:&quot;Roadgeek 2005 Series C&quot;;-inkscape-font-specification:&quot;Roadgeek 2005 Series C&quot;;letter-spacing:0;word-spacing:0;fill:#fc0;fill-opacity:1;stroke:none;stroke-width:1.80115271">
      <path d="M11.954 184.12v-7.42l17.94-34.222H13.826v-6.773H38.54v4.395l-19.453 37.392H38.54v6.628zM74.47 159.913q0 5.547-.65 9.438-.576 3.89-2.089 7.349-1.8 4.322-4.538 6.34-2.666 1.945-6.773 1.945-4.323 0-7.06-1.945-2.666-2.018-4.467-6.34-1.513-3.53-2.162-7.35-.576-3.89-.576-9.437 0-5.476.576-9.366.649-3.963 2.162-7.42 1.873-4.324 4.539-6.197 2.738-1.945 6.988-1.945 4.179 0 6.845 1.945 2.665 1.873 4.466 6.34.72 1.801 1.225 3.603.577 1.8.865 3.818.36 1.945.504 4.25.144 2.234.144 4.972m-6.629 0q0-2.017-.144-3.674-.072-1.658-.288-3.026-.144-1.441-.433-2.738-.288-1.297-.648-2.594-.937-3.242-2.377-4.683-1.37-1.44-3.53-1.44-4.468 0-6.125 5.98-.864 2.737-1.224 5.547-.289 2.737-.289 6.772 0 1.945.072 3.602.145 1.585.289 3.026.216 1.37.504 2.738.288 1.369.648 2.81 1.657 5.98 6.124 5.98 2.162 0 3.53-1.441 1.441-1.441 2.378-4.54.432-1.44.72-2.737.289-1.369.433-2.81.216-1.44.288-3.026.072-1.657.072-3.746M106.323 184.12l-14.914-32.348v32.348h-6.916v-48.27h6.916l13.257 28.962v-28.963h6.916v48.271zM122.387 184.12v-48.27h22.694v6.772h-15.778v12.176h10.014v6.628h-10.014v15.922h17.651v6.772z" style="font-style:normal;font-variant:normal;font-weight:400;font-stretch:normal;line-height:0;font-family:&quot;Roadgeek 2005 Series C&quot;;-inkscape-font-specification:&quot;Roadgeek 2005 Series C&quot;;letter-spacing:.32279167px;fill:#fff;stroke:none;stroke-width:1.80115271" transform="translate(35.046 -174.985)"/>
    </g>
    <path d="m189.5 254-20.173 15.375c-2.504 1.89-5.865-.843-4.52-3.675l2.693-5.7H71v-12h96.5l-2.693-5.7c-1.345-2.832 2.016-5.564 4.52-3.675z" style="color:#000;font-style:normal;font-variant:normal;font-weight:400;font-stretch:normal;font-size:medium;line-height:normal;font-family:sans-serif;font-variant-ligatures:normal;font-variant-position:normal;font-variant-caps:normal;font-variant-numeric:normal;font-variant-alternates:normal;font-feature-settings:normal;text-indent:0;text-align:start;text-decoration:none;text-decoration-line:none;text-decoration-style:solid;text-decoration-color:#000;letter-spacing:normal;word-spacing:normal;text-transform:none;writing-mode:lr-tb;direction:ltr;text-orientation:mixed;dominant-baseline:auto;baseline-shift:baseline;text-anchor:start;white-space:normal;shape-padding:0;clip-rule:nonzero;display:inline;overflow:visible;visibility:visible;opacity:1;isolation:auto;mix-blend-mode:normal;color-interpolation:sRGB;color-interpolation-filters:linearRGB;solid-color:#000;solid-opacity:1;vector-effect:none;fill:#be121e;fill-opacity:1;fill-rule:nonzero;stroke:none;stroke-width:5.9961462;stroke-linecap:square;stroke-linejoin:round;stroke-miterlimit:4;stroke-dasharray:none;stroke-dashoffset:0;stroke-opacity:1;color-rendering:auto;image-rendering:auto;shape-rendering:auto;text-rendering:auto"/>
    <path d="m39.5 254 20.173 15.375c2.504 1.89 5.865-.843 4.52-3.675L61.5 260H158v-12H61.5l2.693-5.7c1.345-2.832-2.016-5.564-4.52-3.675z" style="color:#000;font-style:normal;font-variant:normal;font-weight:400;font-stretch:normal;font-size:medium;line-height:normal;font-family:sans-serif;font-variant-ligatures:normal;font-variant-position:normal;font-variant-caps:normal;font-variant-numeric:normal;font-variant-alternates:normal;font-feature-settings:normal;text-indent:0;text-align:start;text-decoration:none;text-decoration-line:none;text-decoration-style:solid;text-decoration-color:#000;letter-spacing:normal;word-spacing:normal;text-transform:none;writing-mode:lr-tb;direction:ltr;text-orientation:mixed;dominant-baseline:auto;baseline-shift:baseline;text-anchor:start;white-space:normal;shape-padding:0;clip-rule:nonzero;display:inline;overflow:visible;visibility:visible;opacity:1;isolation:auto;mix-blend-mode:normal;color-interpolation:sRGB;color-interpolation-filters:linearRGB;solid-color:#000;solid-opacity:1;vector-effect:none;fill:#be121e;fill-opacity:1;fill-rule:nonzero;stroke:none;stroke-width:5.9961462;stroke-linecap:square;stroke-linejoin:round;stroke-miterlimit:4;stroke-dasharray:none;stroke-dashoffset:0;stroke-opacity:1;color-rendering:auto;image-rendering:auto;shape-rendering:auto;text-rendering:auto"/>
    <g aria-label="LOADING" style="font-style:normal;font-variant:normal;font-weight:400;font-stretch:normal;font-size:72.35890198px;line-height:0;font-family:&quot;Roadgeek 2005 Series B&quot;;-inkscape-font-specification:&quot;Roadgeek 2005 Series B&quot;;letter-spacing:-.58726782px;word-spacing:0;fill:#fff;fill-opacity:1;stroke:none;stroke-width:1.80897236">
      <path d="M-349.074-42.463v-48.48h6.15v42.836h12.374v5.644zM-303.428-66.776v4.631q0 2.605-.29 5.427-.216 2.822-.867 5.572-.58 2.677-1.882 4.848-1.23 2.098-3.256 3.4-1.954 1.303-4.92 1.303-3.04 0-5.065-1.302-1.954-1.303-3.257-3.401-1.23-2.171-1.88-4.848-.58-2.75-.797-5.572t-.217-5.427v-9.334q0-2.677.217-5.427.29-2.75.94-5.355.652-2.677 1.882-4.703 1.23-2.098 3.184-3.329 2.026-1.302 4.993-1.302 2.966 0 4.92 1.302 2.026 1.23 3.256 3.329 1.303 2.098 1.882 4.776.65 2.605.868 5.354.29 2.75.29 5.427zm-6.44 0q0-1.013-.072-2.75 0-1.736-.145-3.762-.144-2.099-.434-4.197-.29-2.17-.868-3.907-.507-1.737-1.303-2.822-.796-1.086-1.953-1.086-1.375 0-2.316 1.158-.868 1.085-1.447 2.894-.506 1.737-.796 3.908-.217 2.17-.362 4.269-.072 2.026-.072 3.763.072 1.664.072 2.532 0 .796-.072 2.533 0 1.664.072 3.762.145 2.099.362 4.342.29 2.243.796 4.052.579 1.809 1.447 3.039.94 1.158 2.316 1.158t2.243-1.158q.868-1.23 1.375-3.039.579-1.809.796-4.052t.289-4.342q.145-2.098.072-3.762zM-279.089-42.463l-2.75-12.953h-7.959l-2.75 12.953h-6.295l9.913-48.48h6.223l10.058 48.48zm-6.657-31.983-2.677 12.735h5.21zM-245.754-66.776q0 16.932-4.414 21.925-1.013 1.158-2.75 1.809-1.664.579-3.69.579h-10.057v-48.48h10.057q5.066 0 7.309 3.545.868 1.447 1.52 3.69.723 2.17 1.012 4.486.507 2.967.724 6.15.29 3.185.29 6.296m-6.295 1.52q0-1.303-.072-2.895l-.145-3.328q-.072-1.737-.145-3.329-.072-1.592-.145-2.894-.361-3.98-1.302-5.427-.868-1.52-2.75-1.52h-3.907v35.89h3.907q1.665 0 2.605-1.157.941-1.23 1.447-3.98.073-.651.145-1.881.073-1.23.145-2.822t.145-3.329q.072-1.736.072-3.328M-237.403-42.463v-48.48h6.15v48.48ZM-205.654-42.463l-9.48-28.727v28.727h-6.15v-48.48h6.15l8.612 24.167v-24.168h6.15v48.48ZM-171.074-53.534q0 1.664-.217 3.4-.217 1.737-.507 2.895-.796 2.533-3.039 4.124-2.243 1.52-5.571 1.52-3.763 0-6.006-1.52t-3.401-4.992q-.579-1.665-1.013-3.401-.362-1.737-.579-3.908t-.362-4.92q-.072-2.75-.072-6.44 0-3.618.072-6.295.145-2.75.362-4.848.29-2.17.724-3.908.434-1.736 1.085-3.473 1.158-3.4 3.328-4.848 2.244-1.447 5.862-1.447 4.124 0 6.44 2.46 2.315 2.388 2.894 6.874h-6.15q-.435-3.039-3.04-3.039-3.545 0-4.269 4.704l-.434 2.894q-.217 1.375-.362 2.967-.072 1.592-.145 3.545-.072 1.954-.072 4.414 0 2.533.072 4.414.073 1.881.145 3.546.145 1.591.29 3.039.144 1.447.361 2.966.507 2.388 1.448 3.69.94 1.23 2.604 1.23t2.533-1.374q.868-1.447.868-3.907v-6.44h-2.894v-6.296h9.045z" style="font-style:normal;font-variant:normal;font-weight:400;font-stretch:normal;line-height:0;font-family:&quot;Roadgeek 2005 Series B&quot;;-inkscape-font-specification:&quot;Roadgeek 2005 Series B&quot;;letter-spacing:-.69849998px;fill:#fff;stroke:none;stroke-width:1.80897236" transform="translate(374.574 -18.405)"/>
    </g>
  </g>
</svg>
