<svg xmlns="http://www.w3.org/2000/svg" viewBox="0 0 229 454" role="img" aria-labelledby="title">
  <title id="title">Verkehrszeichen R5-25 - Works Zone</title>
  <g transform="translate(0 157)">
    <rect width="227" height="452" x="1" y="-156" rx="26" ry="26" style="opacity:1;fill:#000;fill-opacity:1;fill-rule:nonzero;stroke:none;stroke-width:72.09005737;stroke-linecap:square;stroke-linejoin:round;stroke-miterlimit:4;stroke-dasharray:none;stroke-opacity:1"/>
    <rect width="225" height="450" x="2" y="-155" rx="25" ry="25" style="opacity:1;fill:#fff;fill-opacity:1;fill-rule:nonzero;stroke:none;stroke-width:71.61280823;stroke-linecap:square;stroke-linejoin:round;stroke-miterlimit:4;stroke-dasharray:none;stroke-opacity:1"/>
    <rect width="200" height="140" x="14.5" y="-120" rx="12.5" ry="12.5" style="opacity:1;fill:#be121e;fill-opacity:1;fill-rule:nonzero;stroke:none;stroke-width:37.65929794;stroke-linecap:square;stroke-linejoin:round;stroke-miterlimit:4;stroke-dasharray:none;stroke-opacity:1"/>
    <g aria-label="ZONE" style="font-style:normal;font-variant:normal;font-weight:400;font-stretch:normal;font-size:72.04611206px;line-height:0;font-family:&quot;Roadgeek 2005 Series C&quot;;-inkscape-font-specification:&quot;Roadgeek 2005 Series C&quot;;letter-spacing:0;word-spacing:0;fill:#fc0;fill-opacity:1;stroke:none;stroke-width:1.80115271">
      <path d="M11.954 184.12v-7.42l17.94-34.222H13.826v-6.773H38.54v4.395l-19.453 37.392H38.54v6.628zM74.47 159.913q0 5.547-.65 9.438-.576 3.89-2.089 7.349-1.8 4.322-4.538 6.34-2.666 1.945-6.773 1.945-4.323 0-7.06-1.945-2.666-2.018-4.467-6.34-1.513-3.53-2.162-7.35-.576-3.89-.576-9.437 0-5.476.576-9.366.649-3.963 2.162-7.42 1.873-4.324 4.539-6.197 2.738-1.945 6.988-1.945 4.179 0 6.845 1.945 2.665 1.873 4.466 6.34.72 1.801 1.225 3.603.577 1.8.865 3.818.36 1.945.504 4.25.144 2.234.144 4.972m-6.629 0q0-2.017-.144-3.674-.072-1.658-.288-3.026-.144-1.441-.433-2.738-.288-1.297-.648-2.594-.937-3.242-2.377-4.683-1.37-1.44-3.53-1.44-4.468 0-6.125 5.98-.864 2.737-1.224 5.547-.289 2.737-.289 6.772 0 1.945.072 3.602.145 1.585.289 3.026.216 1.37.504 2.738.288 1.369.648 2.81 1.657 5.98 6.124 5.98 2.162 0 3.53-1.441 1.441-1.441 2.378-4.54.432-1.44.72-2.737.289-1.369.433-2.81.216-1.44.288-3.026.072-1.657.072-3.746M106.323 184.12l-14.914-32.348v32.348h-6.916v-48.27h6.916l13.257 28.962v-28.963h6.916v48.271zM122.387 184.12v-48.27h22.694v6.772h-15.778v12.176h10.014v6.628h-10.014v15.922h17.651v6.772z" style="font-style:normal;font-variant:normal;font-weight:400;font-stretch:normal;line-height:0;font-family:&quot;Roadgeek 2005 Series C&quot;;-inkscape-font-specification:&quot;Roadgeek 2005 Series C&quot;;letter-spacing:.32279167px;fill:#fff;stroke:none;stroke-width:1.80115271" transform="translate(35.046 -174.985)"/>
    </g>
    <path d="m189.5 254-20.173 15.375c-2.504 1.89-5.865-.843-4.52-3.675l2.693-5.7H71v-12h96.5l-2.693-5.7c-1.345-2.832 2.016-5.564 4.52-3.675z" style="color:#000;font-style:normal;font-variant:normal;font-weight:400;font-stretch:normal;font-size:medium;line-height:normal;font-family:sans-serif;font-variant-ligatures:normal;font-variant-position:normal;font-variant-caps:normal;font-variant-numeric:normal;font-variant-alternates:normal;font-feature-settings:normal;text-indent:0;text-align:start;text-decoration:none;text-decoration-line:none;text-decoration-style:solid;text-decoration-color:#000;letter-spacing:normal;word-spacing:normal;text-transform:none;writing-mode:lr-tb;direction:ltr;text-orientation:mixed;dominant-baseline:auto;baseline-shift:baseline;text-anchor:start;white-space:normal;shape-padding:0;clip-rule:nonzero;display:inline;overflow:visible;visibility:visible;opacity:1;isolation:auto;mix-blend-mode:normal;color-interpolation:sRGB;color-interpolation-filters:linearRGB;solid-color:#000;solid-opacity:1;vector-effect:none;fill:#be121e;fill-opacity:1;fill-rule:nonzero;stroke:none;stroke-width:5.9961462;stroke-linecap:square;stroke-linejoin:round;stroke-miterlimit:4;stroke-dasharray:none;stroke-dashoffset:0;stroke-opacity:1;color-rendering:auto;image-rendering:auto;shape-rendering:auto;text-rendering:auto"/>
    <path d="m39.5 254 20.173 15.375c2.504 1.89 5.865-.843 4.52-3.675L61.5 260H158v-12H61.5l2.693-5.7c1.345-2.832-2.016-5.564-4.52-3.675z" style="color:#000;font-style:normal;font-variant:normal;font-weight:400;font-stretch:normal;font-size:medium;line-height:normal;font-family:sans-serif;font-variant-ligatures:normal;font-variant-position:normal;font-variant-caps:normal;font-variant-numeric:normal;font-variant-alternates:normal;font-feature-settings:normal;text-indent:0;text-align:start;text-decoration:none;text-decoration-line:none;text-decoration-style:solid;text-decoration-color:#000;letter-spacing:normal;word-spacing:normal;text-transform:none;writing-mode:lr-tb;direction:ltr;text-orientation:mixed;dominant-baseline:auto;baseline-shift:baseline;text-anchor:start;white-space:normal;shape-padding:0;clip-rule:nonzero;display:inline;overflow:visible;visibility:visible;opacity:1;isolation:auto;mix-blend-mode:normal;color-interpolation:sRGB;color-interpolation-filters:linearRGB;solid-color:#000;solid-opacity:1;vector-effect:none;fill:#be121e;fill-opacity:1;fill-rule:nonzero;stroke:none;stroke-width:5.9961462;stroke-linecap:square;stroke-linejoin:round;stroke-miterlimit:4;stroke-dasharray:none;stroke-dashoffset:0;stroke-opacity:1;color-rendering:auto;image-rendering:auto;shape-rendering:auto;text-rendering:auto"/>
    <g aria-label="WORKS" style="font-style:normal;font-variant:normal;font-weight:400;font-stretch:normal;font-size:72.04611206px;line-height:0;font-family:&quot;Roadgeek 2005 Series C&quot;;-inkscape-font-specification:&quot;Roadgeek 2005 Series C&quot;;letter-spacing:2.65112495px;word-spacing:0;fill:#fff;fill-opacity:1;stroke:none;stroke-width:1.80115271">
      <path d="M-300.34 16.518h-5.907l-4.611-25.216-4.54 25.216h-6.123l-7.637-48.271h6.772l4.107 25.72 4.683-25.72h5.475l4.54 25.72 4.25-25.72h6.772zM-255.762-7.69q0 5.548-.649 9.438-.576 3.891-2.089 7.35-1.801 4.322-4.539 6.34-2.665 1.944-6.772 1.944-4.323 0-7.06-1.945-2.666-2.017-4.467-6.34-1.513-3.53-2.162-7.349-.576-3.89-.576-9.438 0-5.475.576-9.366.649-3.962 2.162-7.42 1.873-4.323 4.538-6.196 2.738-1.946 6.989-1.946 4.179 0 6.844 1.946 2.666 1.873 4.467 6.34.72 1.8 1.225 3.602.576 1.801.864 3.819.36 1.945.505 4.25.144 2.234.144 4.971m-6.628 0q0-2.017-.144-3.674-.072-1.657-.289-3.026-.144-1.44-.432-2.738-.288-1.296-.648-2.593-.937-3.242-2.378-4.683-1.369-1.441-3.53-1.441-4.467 0-6.124 5.98-.865 2.737-1.225 5.547-.288 2.738-.288 6.773 0 1.945.072 3.602.144 1.585.288 3.026.216 1.369.505 2.738.288 1.368.648 2.81 1.657 5.98 6.124 5.98 2.161 0 3.53-1.442 1.441-1.44 2.378-4.539.432-1.44.72-2.737.288-1.37.432-2.81.216-1.441.289-3.026.072-1.657.072-3.747M-225.447 16.518l-6.412-22.695h-6.629v22.695h-6.916v-48.271h14.41q2.809 0 5.114.937 2.378.936 4.035 2.593 1.73 1.657 2.594 4.107.936 2.377.936 5.26 0 4.322-1.729 7.348t-5.187 4.323l6.916 23.703zm.36-35.375q0-2.81-1.73-4.467-1.728-1.657-4.538-1.657h-7.133v12.176h7.133q3.026 0 4.61-1.513 1.658-1.585 1.658-4.539M-185.751 16.518l-8.502-23.56-4.395 8.142v15.418h-6.916v-48.271h6.916v19.308l11.023-19.308h7.998l-10.015 16.93 11.167 31.34zM-143.159 3.334q0 2.953-1.08 5.547-1.009 2.522-2.882 4.395-1.801 1.873-4.25 3.026-2.378 1.08-5.188 1.08-3.17 0-5.692-1.224-2.521-1.225-4.25-3.314t-2.666-4.828q-.937-2.737-.937-5.691h6.773q0 1.513.36 3.026.432 1.44 1.225 2.665.864 1.153 2.089 1.874 1.297.72 3.098.72 1.369 0 2.594-.576 1.296-.577 2.161-1.585.937-1.009 1.44-2.306.577-1.369.577-2.81 0-2.089-.864-3.674-.865-1.657-3.026-3.314-.36-.36-.288-.36.072-.072-.433-.432-.504-.36-2.161-1.37-1.585-1.08-5.26-3.602-2.953-2.017-4.466-4.683-1.441-2.737-1.441-5.98 0-2.593.936-4.827.937-2.305 2.594-4.034 1.73-1.73 3.963-2.666 2.233-1.009 4.827-1.009t4.755.937q2.233.937 3.818 2.594 1.657 1.657 2.594 3.962 1.008 2.306 1.08 5.044h-6.628q-.144-2.522-1.729-4.035t-3.89-1.513q-2.378 0-4.035 1.585t-1.657 3.963q0 1.8.937 3.025.936 1.225 3.602 2.738 6.988 4.035 10.158 8.213 3.242 4.18 3.242 9.439" style="font-style:normal;font-variant:normal;font-weight:400;font-stretch:normal;line-height:0;font-family:&quot;Roadgeek 2005 Series C&quot;;-inkscape-font-specification:&quot;Roadgeek 2005 Series C&quot;;letter-spacing:2.65906239px;fill:#fff;stroke:none;stroke-width:1.80115271" transform="translate(350.658 -77.382)"/>
    </g>
  </g>
</svg>
