<svg xmlns="http://www.w3.org/2000/svg" viewBox="0 0 220.442 77.167" role="img" aria-labelledby="title">
  <title id="title">Verkehrszeichen R5-V104 - New Times (used in VIC)</title>
  <g style="display:inline">
    <path d="M-225.942-64.85a18.37 18.37 0 0 0-18.37 18.374v40.42a18.4 18.4 0 0 0 1.289 6.764 18.38 18.38 0 0 0 13.738 11.303c1.139.211 2.259.307 3.343.307H-42.24A18.37 18.37 0 0 0-23.87-6.055v-40.421A18.37 18.37 0 0 0-42.24-64.85z" style="fill:#fee011;fill-opacity:1;fill-rule:evenodd;stroke:none" transform="translate(244.313 64.85)"/>
    <path d="M-225.942-61.91a15.42 15.42 0 0 0-10.911 4.52 15.44 15.44 0 0 0-4.52 10.914v40.421a15.434 15.434 0 0 0 15.43 15.434H-42.24a15.4 15.4 0 0 0 5.68-1.085 15.427 15.427 0 0 0 9.751-14.35v-40.42a15.44 15.44 0 0 0-4.52-10.913 15.42 15.42 0 0 0-10.911-4.52zm0 5.879H-42.24a9.5 9.5 0 0 1 3.515.671 9.53 9.53 0 0 1 5.366 5.366 9.6 9.6 0 0 1 .67 3.517v40.421A9.57 9.57 0 0 1-35.484.701a9.55 9.55 0 0 1-6.755 2.797h-183.702a9.547 9.547 0 0 1-9.552-9.553v-40.42a9.555 9.555 0 0 1 9.552-9.554" style="fill:#000;fill-opacity:1;fill-rule:evenodd;stroke:none" transform="translate(244.313 64.85)"/>
    <path d="M-214.845-40.964h-4.025v29.397h4.041v-18.895l7.938 18.895h4.04v-29.397h-4.04v18.934zM-192.725-15.682h10.662v4.115h-14.696v-29.397h14.696v4.115h-10.662v7.643h6.313v4.116h-6.313zM-171.86-25.75l-2.703-15.214h-4.126l5.221 29.397h3.48l2.321-14.698 2.32 14.698h3.481l5.222-29.397h-4.127l-2.702 15.214-2.401-15.214h-3.584zM-132.576-36.849v25.282h4.034v-25.282h5.331v-4.115h-14.696v4.115zM-118.9-40.964h4.116v29.397h-4.115M-99.14-11.567l-5.5-16.926v16.926h-4.052v-29.397h4.267L-99.14-24.7l5.285-16.264h4.267v29.397h-4.052v-16.926zM-79.462-15.682H-68.8v4.115h-14.696v-29.397H-68.8v4.115h-10.662v7.643h6.314v4.116h-6.314zM-59.964-11.666a9.5 9.5 0 0 1-4.053-3.726 9.77 9.77 0 0 1-1.347-5.395h4.072v.034l-.002.017v.017l-.002.068q-.003.068-.002.136 0 .135.006.274.013.275.05.55.078.552.258 1.084c.24.714.611 1.36 1.076 1.91.326.402.768.774 1.33 1.03.565.257 1.21.375 1.871.303a3.6 3.6 0 0 0 1.77-.692 3.7 3.7 0 0 0 1.09-1.288 5.2 5.2 0 0 0 .383-3.416 5.1 5.1 0 0 0-1.835-2.883 29.2 29.2 0 0 0-6.385-4.768 6.9 6.9 0 0 1-2.756-5.781 7.7 7.7 0 0 1 2.4-5.131 7.4 7.4 0 0 1 5.214-2.014c.866.019 1.778.19 2.676.564s1.738.93 2.454 1.659a7.6 7.6 0 0 1 1.637 2.496c.37.914.543 1.844.562 2.727h-4.008a3.62 3.62 0 0 0-.736-1.941 3.474 3.474 0 0 0-5.432-.138 3 3 0 0 0-.622 2.47 2.95 2.95 0 0 0 1.494 2.044 27.8 27.8 0 0 1 6.945 5.505 9.17 9.17 0 0 1 2.426 4.905c.153.955.153 1.915.013 2.847a9.5 9.5 0 0 1-.657 2.293l-.066.15-.034.075c-.002.004-.016.031-.017.036l-.01.018-.008.02-.01.017-.007.019-.01.02-.01.017c-.014.031-.022.045-.038.075l-.078.15q-.081.148-.168.296-.175.294-.38.58a7.833 7.833 0 0 1-3.434 2.705 7.703 7.703 0 0 1-5.62.061" style="fill:#000;fill-opacity:1;fill-rule:evenodd;stroke:none" transform="translate(244.313 64.85)"/>
  </g>
</svg>
