<svg xmlns="http://www.w3.org/2000/svg" viewBox="0 0 227 452" role="img" aria-labelledby="title">
  <title id="title">Verkehrszeichen R5-405-NSW - No Stopping (Taxis Excepted) (used in NSW)</title>
  <g transform="translate(0 155)">
    <rect width="225" height="450" x="1" y="-154" rx="25" ry="25" style="opacity:1;fill:#be121e;fill-opacity:1;fill-rule:nonzero;stroke:none;stroke-width:71.61280823;stroke-linecap:square;stroke-linejoin:round;stroke-miterlimit:4;stroke-dasharray:none;stroke-opacity:1"/>
    <rect width="217" height="442" x="5" y="-150" rx="21" ry="21" style="opacity:1;fill:#fff;fill-opacity:1;fill-rule:nonzero;stroke:none;stroke-width:69.70022583;stroke-linecap:square;stroke-linejoin:round;stroke-miterlimit:4;stroke-dasharray:none;stroke-opacity:1"/>
    <rect width="209" height="434" x="9" y="-146" rx="17" ry="17" style="opacity:1;fill:#be121e;fill-opacity:1;fill-rule:nonzero;stroke:none;stroke-width:67.78150177;stroke-linecap:square;stroke-linejoin:round;stroke-miterlimit:4;stroke-dasharray:none;stroke-opacity:1"/>
    <path d="m188.5 255-20.173 15.375c-2.504 1.89-5.865-.843-4.52-3.675l2.693-5.7H70v-12h96.5l-2.693-5.7c-1.345-2.832 2.016-5.564 4.52-3.675z" style="color:#000;font-style:normal;font-variant:normal;font-weight:400;font-stretch:normal;font-size:medium;line-height:normal;font-family:sans-serif;font-variant-ligatures:normal;font-variant-position:normal;font-variant-caps:normal;font-variant-numeric:normal;font-variant-alternates:normal;font-feature-settings:normal;text-indent:0;text-align:start;text-decoration:none;text-decoration-line:none;text-decoration-style:solid;text-decoration-color:#000;letter-spacing:normal;word-spacing:normal;text-transform:none;writing-mode:lr-tb;direction:ltr;text-orientation:mixed;dominant-baseline:auto;baseline-shift:baseline;text-anchor:start;white-space:normal;shape-padding:0;clip-rule:nonzero;display:inline;overflow:visible;visibility:visible;opacity:1;isolation:auto;mix-blend-mode:normal;color-interpolation:sRGB;color-interpolation-filters:linearRGB;solid-color:#000;solid-opacity:1;vector-effect:none;fill:#fff;fill-opacity:1;fill-rule:nonzero;stroke:none;stroke-width:5.9961462;stroke-linecap:square;stroke-linejoin:round;stroke-miterlimit:4;stroke-dasharray:none;stroke-dashoffset:0;stroke-opacity:1;color-rendering:auto;image-rendering:auto;shape-rendering:auto;text-rendering:auto"/>
    <path d="m38.5 255 20.173 15.375c2.504 1.89 5.865-.843 4.52-3.675L60.5 261H157v-12H60.5l2.693-5.7c1.345-2.832-2.016-5.564-4.52-3.675z" style="color:#000;font-style:normal;font-variant:normal;font-weight:400;font-stretch:normal;font-size:medium;line-height:normal;font-family:sans-serif;font-variant-ligatures:normal;font-variant-position:normal;font-variant-caps:normal;font-variant-numeric:normal;font-variant-alternates:normal;font-feature-settings:normal;text-indent:0;text-align:start;text-decoration:none;text-decoration-line:none;text-decoration-style:solid;text-decoration-color:#000;letter-spacing:normal;word-spacing:normal;text-transform:none;writing-mode:lr-tb;direction:ltr;text-orientation:mixed;dominant-baseline:auto;baseline-shift:baseline;text-anchor:start;white-space:normal;shape-padding:0;clip-rule:nonzero;display:inline;overflow:visible;visibility:visible;opacity:1;isolation:auto;mix-blend-mode:normal;color-interpolation:sRGB;color-interpolation-filters:linearRGB;solid-color:#000;solid-opacity:1;vector-effect:none;fill:#fff;fill-opacity:1;fill-rule:nonzero;stroke:none;stroke-width:5.9961462;stroke-linecap:square;stroke-linejoin:round;stroke-miterlimit:4;stroke-dasharray:none;stroke-dashoffset:0;stroke-opacity:1;color-rendering:auto;image-rendering:auto;shape-rendering:auto;text-rendering:auto"/>
    <g aria-label="NO" style="font-style:normal;font-variant:normal;font-weight:400;font-stretch:normal;font-size:57.6368866px;line-height:0;font-family:&quot;Roadgeek 2005 Series C&quot;;-inkscape-font-specification:&quot;Roadgeek 2005 Series C&quot;;letter-spacing:0;word-spacing:0;fill:#000;fill-opacity:1;stroke:none;stroke-width:1.44092214">
      <path d="m105.464-79.692-11.93-25.879v25.88H88v-38.617h5.533l10.605 23.17v-23.17h5.533v38.616zM139-99.058q0 4.438-.518 7.55-.461 3.113-1.672 5.88-1.44 3.458-3.63 5.072Q131.046-79 127.76-79q-3.458 0-5.648-1.556-2.133-1.614-3.574-5.072-1.21-2.824-1.729-5.88-.46-3.112-.46-7.55 0-4.38.46-7.492.519-3.17 1.73-5.937 1.498-3.458 3.63-4.957 2.19-1.556 5.591-1.556 3.343 0 5.476 1.556 2.132 1.499 3.573 5.072.577 1.441.98 2.882.461 1.441.692 3.055.288 1.556.403 3.4.115 1.787.115 3.977m-5.302 0q0-1.613-.115-2.94-.058-1.325-.231-2.42-.115-1.153-.346-2.19-.23-1.038-.519-2.075-.749-2.594-1.902-3.746-1.095-1.153-2.824-1.153-3.573 0-4.899 4.784-.692 2.19-.98 4.438-.23 2.19-.23 5.418 0 1.556.057 2.881.116 1.269.23 2.421.174 1.095.404 2.19.23 1.096.519 2.248 1.326 4.784 4.9 4.784 1.728 0 2.823-1.153 1.153-1.152 1.902-3.63.346-1.153.577-2.19.23-1.096.346-2.249.172-1.152.23-2.42.058-1.326.058-2.998" style="font-style:normal;font-variant:normal;font-weight:400;font-stretch:normal;line-height:0;font-family:&quot;Roadgeek 2005 Series C&quot;;-inkscape-font-specification:&quot;Roadgeek 2005 Series C&quot;;fill:#fff;stroke:none;stroke-width:1.44092214"/>
      <g aria-label="STOPPING" style="font-style:normal;font-variant:normal;font-weight:400;font-stretch:normal;font-size:57.88711929px;line-height:0;font-family:&quot;Roadgeek 2005 Series B&quot;;-inkscape-font-specification:&quot;Roadgeek 2005 Series B&quot;;letter-spacing:-.34660417px;word-spacing:0;fill:#000;fill-opacity:1;stroke:none;stroke-width:2.08527088">
        <path d="M20.36 287.028q0 2.026-.868 3.994-.81 1.968-2.257 3.183-.926.81-2.258 1.274-1.273.521-2.778.521-8.105 0-8.568-10.362h5.037q0 1.158.057 1.679.116.52.348 1.158.29 1.157 1.1 1.852.868.637 2.026.637 1.447 0 2.257-1.042.869-1.042.869-2.895 0-2.604-.985-4.862-.984-2.316-3.241-4.978-1.332-1.505-2.258-2.547-.868-1.1-1.158-1.505-3.125-3.821-3.125-8.047 0-1.968.578-3.647.58-1.678 1.621-2.894 1.1-1.216 2.547-1.852 1.447-.695 3.184-.695 7.12 0 7.873 9.088h-5.036q-.116-2.257-.753-3.241t-1.968-.984q-1.447 0-2.258 1.157-.752 1.1-.752 3.068 0 1.332.579 2.49.636 1.157 2.141 2.836 1.563 1.794 2.547 2.952t1.621 2.026q.695.81 1.1 1.563.405.695.868 1.621.81 1.852 1.332 4.168.579 2.257.579 4.284M32.834 261.557v33.748h-4.92v-33.748h-4.747v-5.036h14.704v5.036zM59.861 275.855v3.705q0 2.084-.231 4.342-.174 2.257-.695 4.457-.463 2.142-1.505 3.878-.984 1.68-2.605 2.721Q53.262 296 50.889 296q-2.432 0-4.053-1.042-1.562-1.042-2.604-2.72-.985-1.737-1.505-3.88-.464-2.199-.637-4.456-.174-2.258-.174-4.342v-7.467q0-2.142.174-4.342.231-2.2.752-4.284.521-2.141 1.505-3.762.984-1.679 2.547-2.663Q48.515 256 50.89 256t3.936 1.042q1.62.984 2.605 2.663 1.042 1.679 1.505 3.82.52 2.084.695 4.284.231 2.2.231 4.342zm-5.152 0q0-.81-.058-2.2 0-1.389-.116-3.01-.115-1.678-.347-3.357-.231-1.737-.694-3.126-.406-1.39-1.042-2.258-.637-.868-1.563-.868-1.1 0-1.853.926-.694.869-1.158 2.316-.405 1.39-.636 3.126-.174 1.736-.29 3.415-.058 1.62-.058 3.01.058 1.332.058 2.026 0 .637-.058 2.026 0 1.332.058 3.01.116 1.68.29 3.474.231 1.794.636 3.241.464 1.448 1.158 2.432.753.926 1.853.926t1.794-.926q.695-.984 1.1-2.432.463-1.447.637-3.241.173-1.795.231-3.474.116-1.678.058-3.01zM83.48 267.809q0 4.862-2.488 7.757-2.49 2.836-6.6 2.836h-2.72v16.903h-4.92v-38.784h7.64q1.621 0 3.01.405 1.448.405 2.432 1.216 1.62 1.331 2.605 3.936 1.042 2.547 1.042 5.731m-5.036 0q0-3.3-1.041-4.747-.985-1.505-3.01-1.505h-2.721v11.867h2.72q2.2 0 3.126-1.216.926-1.273.926-4.399M105.18 267.809q0 4.862-2.488 7.757-2.49 2.836-6.6 2.836h-2.72v16.903h-4.92v-38.784h7.64q1.621 0 3.01.405 1.448.405 2.432 1.216 1.62 1.331 2.605 3.936 1.042 2.547 1.042 5.731m-5.035 0q0-3.3-1.042-4.747-.984-1.505-3.01-1.505h-2.721v11.867h2.72q2.2 0 3.127-1.216.926-1.273.926-4.399M110.152 295.305v-38.784h4.92v38.784zM135.763 295.305l-7.583-22.98v22.98h-4.92v-38.784h4.92l6.888 19.334v-19.334h4.92v38.784zM163.631 286.449q0 1.331-.174 2.72-.173 1.39-.405 2.316-.637 2.026-2.431 3.3-1.795 1.215-4.457 1.215-3.01 0-4.805-1.216t-2.72-3.994q-.464-1.331-.811-2.72-.29-1.39-.463-3.126-.174-1.737-.29-3.937-.057-2.2-.057-5.152 0-2.894.057-5.036.116-2.2.29-3.878.231-1.737.579-3.126.347-1.39.868-2.779.926-2.72 2.663-3.878 1.794-1.158 4.689-1.158 3.3 0 5.152 1.968 1.852 1.91 2.315 5.5h-4.92q-.348-2.432-2.432-2.432-2.836 0-3.415 3.763l-.347 2.315q-.174 1.1-.29 2.374-.058 1.273-.115 2.836-.058 1.563-.058 3.531 0 2.026.058 3.531.057 1.505.115 2.837.116 1.273.232 2.431t.29 2.374q.405 1.91 1.157 2.952.753.984 2.084.984t2.026-1.1q.695-1.158.695-3.126v-5.152h-2.316v-5.036h7.236z" style="font-style:normal;font-variant:normal;font-weight:400;font-stretch:normal;line-height:0;font-family:&quot;Roadgeek 2005 Series B&quot;;-inkscape-font-specification:&quot;Roadgeek 2005 Series B&quot;;letter-spacing:-.34660417px;fill:#fff;stroke:none;stroke-width:2.08527088" transform="translate(29.869 -315)"/>
      </g>
    </g>
    <g aria-label="TAXIS" style="font-style:normal;font-variant:normal;font-weight:400;font-stretch:normal;font-size:28.8184433px;line-height:0;font-family:&quot;Roadgeek 2005 Series C&quot;;-inkscape-font-specification:&quot;Roadgeek 2005 Series C&quot;;letter-spacing:.51064581px;word-spacing:0;fill:#fd5;fill-opacity:1;stroke:none;stroke-width:.72046107">
      <path d="M197.789 216.55v16.743h-2.796V216.55h-3.515v-2.565h9.827v2.565zM212.45 233.293l-1.355-5.274h-4.15l-1.268 5.274h-2.795l4.813-19.308h2.709l4.812 19.308zm-3.459-13.544-1.354 5.562h2.767zM225.148 233.293l-2.71-6.57-2.708 6.57h-2.91l4.207-10.029-3.92-9.28h2.911l2.42 5.822 2.45-5.821h2.911l-3.862 9.28 4.208 10.028zM231.242 233.293v-19.308h2.709v19.308zM248.477 228.02q0 1.181-.432 2.218-.404 1.01-1.153 1.758-.72.75-1.7 1.21-.951.433-2.075.433-1.268 0-2.277-.49-1.008-.49-1.7-1.326-.692-.835-1.066-1.93t-.375-2.277h2.709q0 .605.144 1.21.173.577.49 1.067.346.46.836.749.518.288 1.239.288.547 0 1.037-.23.52-.231.865-.634.375-.404.576-.923.23-.547.23-1.124 0-.835-.345-1.47-.346-.662-1.21-1.325-.144-.144-.116-.144.03-.029-.173-.173-.201-.144-.864-.547-.634-.433-2.104-1.441-1.181-.807-1.787-1.874-.576-1.095-.576-2.392 0-1.037.375-1.93.374-.923 1.037-1.614.692-.692 1.585-1.066.893-.404 1.931-.404 1.037 0 1.902.375.893.374 1.527 1.037.663.663 1.038 1.585.403.922.432 2.017h-2.651q-.058-1.008-.692-1.613-.634-.606-1.556-.606-.951 0-1.614.634t-.663 1.585q0 .72.375 1.21t1.44 1.096q2.796 1.614 4.064 3.285 1.297 1.672 1.297 3.775" style="font-style:normal;font-variant:normal;font-weight:400;font-stretch:normal;line-height:0;font-family:&quot;Roadgeek 2005 Series C&quot;;-inkscape-font-specification:&quot;Roadgeek 2005 Series C&quot;;letter-spacing:.42862499px;fill:#fff;stroke:none;stroke-width:.72046107" transform="translate(-165.478 -77.64)"/>
    </g>
    <g aria-label="EXCEPTED" style="font-style:normal;font-variant:normal;font-weight:400;font-stretch:normal;font-size:28.8184433px;line-height:0;font-family:&quot;Roadgeek 2005 Series C&quot;;-inkscape-font-specification:&quot;Roadgeek 2005 Series C&quot;;letter-spacing:0;word-spacing:0;fill:#fd5;fill-opacity:1;stroke:none;stroke-width:.72046107">
      <path d="M136.296 310.8v-19.308h9.078v2.71h-6.312v4.87h4.006v2.651h-4.006v6.369h7.06v2.709zM156.573 310.8l-2.709-6.57-2.709 6.57h-2.91l4.207-10.028-3.92-9.28h2.911l2.421 5.822 2.45-5.822h2.91l-3.861 9.28 4.207 10.029zM170.293 296.65q-.432-2.794-2.305-2.794-.836 0-1.441.374-.577.346-.951 1.153-.346.778-.519 2.075-.144 1.297-.144 3.17 0 4.179.75 5.994.777 1.816 2.564 1.816.605 0 .98-.23.403-.231.634-.606.26-.404.346-.893.086-.52.086-1.067h2.767q-.029 1.21-.404 2.22-.374 1.008-1.008 1.757-.634.72-1.528 1.124-.864.404-1.873.404-3.112 0-4.553-2.536-1.412-2.536-1.412-7.897 0-4.726 1.44-7.147 1.442-2.42 4.323-2.42 1.182 0 2.162.518.98.49 1.642 1.441.548.72.807 1.47.26.75.404 2.075zM177.313 310.8v-19.308h9.078v2.71h-6.311v4.87h4.005v2.651h-4.005v6.369h7.06v2.709zM201.596 296.91q0 2.652-1.326 4.035-1.296 1.383-3.746 1.383h-2.997v8.473h-2.767v-19.309h5.764q1.124 0 2.046.404.951.375 1.614 1.095.692.692 1.038 1.7.374 1.009.374 2.22m-2.709 0q0-1.21-.691-1.96-.692-.749-1.816-.749h-2.853v5.476h2.853q1.21 0 1.844-.72.663-.721.663-2.047M209.47 294.057v16.744h-2.795v-16.744h-3.516v-2.565h9.828v2.565zM216.023 310.8v-19.308h9.078v2.71h-6.312v4.87h4.006v2.651h-4.006v6.369h7.06v2.709zM240.296 301.118q0 6.628-2.767 8.79-.519.49-1.21.691-.692.202-1.499.202h-5.36v-19.309h4.928q1.24 0 1.93.173.692.173 1.211.577.865.605 1.441 1.7.605 1.095.865 2.565.201 1.066.317 2.276.144 1.21.144 2.335m-2.71.144q0-1.643-.143-3.055-.144-1.44-.404-2.046-.663-1.96-2.507-1.96h-2.305v13.89h2.305q.605 0 1.066-.23.49-.23.836-.605t.548-.864q.23-.52.345-1.067.087-.922.173-1.93.087-1.038.087-2.133" style="font-style:normal;font-variant:normal;font-weight:400;font-stretch:normal;line-height:0;font-family:&quot;Roadgeek 2005 Series C&quot;;-inkscape-font-specification:&quot;Roadgeek 2005 Series C&quot;;letter-spacing:.3889375px;fill:#fff;stroke:none;stroke-width:.72046107" transform="translate(-39.296 -155.147)"/>
    </g>
    <g aria-label="LIMIT" style="font-style:normal;font-variant:normal;font-weight:400;font-stretch:normal;font-size:29.85074615px;line-height:0;font-family:&quot;Roadgeek 2005 Series C&quot;;-inkscape-font-specification:&quot;Roadgeek 2005 Series C&quot;;letter-spacing:0;word-spacing:0;fill:#000;fill-opacity:1;stroke:none;stroke-width:.74626863">
      <path d="M661.339-119.332v-20h2.865v17.343h7.314v2.657zM673.935-119.332v-20h2.806v20zM691.052-119.332v-11.224l-3.701 11.224-3.731-11.224v11.224h-2.866v-20h2.866l3.73 11.224 3.702-11.224h2.896v20zM697.893-119.332v-20h2.806v20zM709.697-136.676v17.344h-2.895v-17.344h-3.642v-2.656h10.179v2.656z" style="font-style:normal;font-variant:normal;font-weight:400;font-stretch:normal;line-height:0;font-family:&quot;Roadgeek 2005 Series C&quot;;-inkscape-font-specification:&quot;Roadgeek 2005 Series C&quot;;letter-spacing:-.41010416px;fill:#fff;stroke:none;stroke-width:.74626863" transform="translate(-626.839 310.332)"/>
      <g aria-label="MINUTE" style="font-style:normal;font-variant:normal;font-weight:400;font-stretch:normal;font-size:29.32551384px;line-height:0;font-family:&quot;Roadgeek 2005 Series C&quot;;-inkscape-font-specification:&quot;Roadgeek 2005 Series C&quot;;letter-spacing:0;word-spacing:0;fill:#000;fill-opacity:1;stroke:none;stroke-width:.54711777">
        <path d="M755.456-119.684v-11.027l-3.637 11.027-3.665-11.027v11.027h-2.815v-19.648h2.815l3.665 11.026 3.637-11.026h2.844v19.648zM762.16-119.684v-19.648h2.757v19.648zM777.73-119.684l-6.07-13.167v13.167h-2.815v-19.648h2.815l5.396 11.789v-11.79h2.815v19.649zM794.74-125.55q0 .587-.06 1.056-.029.47-.117.88-.088.381-.235.763-.146.38-.351.762-.734 1.202-2.024 1.994-1.26.763-2.669.763-1.466 0-2.785-.763-1.29-.762-2.024-1.994-.205-.381-.352-.762-.146-.382-.234-.763-.088-.41-.147-.88-.03-.469-.03-1.055v-13.783h2.816v14.135q0 1.407.762 2.258.763.85 1.994.85 1.144 0 1.877-.85.763-.85.763-2.258v-14.135h2.815zM803.485-136.722v17.038h-2.845v-17.038h-3.577v-2.61h10v2.61zM809.338-119.684v-19.648h9.238v2.756h-6.422v4.956h4.076v2.698h-4.076v6.481h7.184v2.757z" style="font-style:normal;font-variant:normal;font-weight:400;font-stretch:normal;line-height:0;font-family:&quot;Roadgeek 2005 Series C&quot;;-inkscape-font-specification:&quot;Roadgeek 2005 Series C&quot;;letter-spacing:-.41804168px;fill:#fff;stroke:none;stroke-width:.54711777" transform="translate(-626.839 310.332)"/>
        <g aria-label="1" style="font-style:normal;font-variant:normal;font-weight:400;font-stretch:normal;font-size:29.85074615px;line-height:0;font-family:&quot;Roadgeek 2005 Series C&quot;;-inkscape-font-specification:&quot;Roadgeek 2005 Series C&quot;;letter-spacing:0;word-spacing:0;fill:#f60;fill-opacity:1;stroke:none;stroke-width:.40829685">
          <path d="M613.695-36.82v-16.417h-1.253v-2.18q.865-.059 1.373-.417.537-.358.865-.985h1.91v20z" style="font-style:normal;font-variant:normal;font-weight:400;font-stretch:normal;line-height:0;font-family:&quot;Roadgeek 2005 Series C&quot;;-inkscape-font-specification:&quot;Roadgeek 2005 Series C&quot;;fill:#fff;stroke:none;stroke-width:.40829685" transform="translate(-513.142 227.82)"/>
        </g>
      </g>
    </g>
    <path d="M29.6 168.4c-1.739 3.467-3.618 6.403-3.6 12.8-.018 6.398 1.861 9.333 3.6 12.8h1.6c-2.243-4.263-3.295-7.787-3.3-12.8.005-5.013 1.057-8.537 3.3-12.8zM197.4 168.4c1.74 3.467 3.618 6.403 3.6 12.8.019 6.398-1.86 9.333-3.6 12.8h-1.6c2.243-4.263 3.295-7.787 3.3-12.8-.005-5.013-1.057-8.537-3.3-12.8z" style="opacity:1;fill:#fff;fill-opacity:1;fill-rule:nonzero;stroke:none;stroke-width:3.29667377;stroke-linecap:square;stroke-linejoin:round;stroke-miterlimit:4;stroke-dasharray:9.89002126,9.89002126;stroke-dashoffset:0;stroke-opacity:1"/>
  </g>
</svg>
