<svg xmlns="http://www.w3.org/2000/svg" viewBox="0 0 310.219 412.737" role="img" aria-labelledby="title">
  <title id="title">Verkehrszeichen R7-1-3 - Truck Lane</title>
  <path d="M31.951 411.749h246.46c16.91 0 30.816-13.131 30.816-30.294V32.375c0-17.175-13.907-31.086-30.815-31.086H31.952C14.917 1.29.99 15.2.99 32.375v349.08c0 17.163 13.928 30.294 30.961 30.294z" style="fill:#fff;fill-opacity:1;fill-rule:evenodd;stroke:#000;stroke-width:2;stroke-linecap:butt;stroke-linejoin:miter;stroke-miterlimit:8.52033329;stroke-opacity:1;stroke-dasharray:none"/>
  <path d="M32.347 406.94h245.665c14.577 0 26.01-11.579 26.01-25.885v-348.3c0-14.165-11.433-26.011-26.01-26.011H32.347c-14.181 0-26.01 11.846-26.01 26.01v348.3c0 14.307 11.829 25.887 26.01 25.887" style="fill:#000;fill-opacity:1;fill-rule:evenodd;stroke:none"/>
  <path d="M32.347 396.537h245.665c8.327 0 15.878-7.026 15.878-15.482v-348.3c0-8.582-7.551-15.987-15.878-15.987H32.347c-8.598 0-15.878 7.405-15.878 15.987v348.3c0 8.456 7.28 15.482 15.878 15.482" style="fill:#fff;fill-opacity:1;fill-rule:evenodd;stroke:none"/>
  <path d="M39.499 164.763c.504-14.686 0-30.69 0-45.647 0-2.077 4.553-2.077 7.009-4.028 3.649-8.202 9.374-20.286 11.85-27.058 1.948-6.36 26.012-5.584 40.569-5.058 13.785 3.899 15.482 10.132 16.783 18.46v33.166h12.084V91.803h145.539v66.205h-21.712c-14.182-38.117-54.754-22.634-55.675.52H115.71c-7.026-31.085-55.404-30.435-53.198 8.837H42.876zM65.114 93.5H91.52l2.456 21.19H57.562zm158.019 89.342c11.704 0 21.061-9.357 21.061-20.682 0-11.56-9.357-21.458-21.061-21.458s-21.062 9.899-21.062 21.458c0 11.325 9.357 20.682 21.062 20.682m-133.705 0c11.575 0 20.807-9.357 20.807-20.682 0-11.56-9.232-21.458-20.807-21.458-12.214 0-21.316 9.899-21.316 21.458 0 11.325 9.102 20.682 21.316 20.682M37.543 249.727h11.083v71.34h29.981v10.83H37.543zM109.968 297.854h11.667l-6.271-22.245zm-19.906 34.039 19.906-82.17h11.667l19.782 82.17h-11.5l-5.521-22.413h-16.433l-5.48 22.413zM160.694 249.727h11.417l22.12 47.502v-47.502h11.418v82.17h-8.782l-24.756-53.653v53.653h-11.417zM231.197 249.727h39.684v12.25h-27.85v20.366h16.6v10.833h-16.6v27.137h29.23v11.584h-41.064z" style="fill:#000;fill-opacity:1;fill-rule:evenodd;stroke:none"/>
</svg>
