<svg xmlns="http://www.w3.org/2000/svg" viewBox="0 0 456 1206" role="img" aria-labelledby="title">
  <title id="title">Verkehrszeichen R3-4 - Children Crossing Speed Limit when Lights Flashing</title>
  <g transform="translate(0 909)">
    <rect width="454" height="1204" x="1" y="-908" rx="52" ry="52" style="opacity:1;fill:#000;fill-opacity:1;fill-rule:nonzero;stroke:none;stroke-width:141.21702576;stroke-linecap:square;stroke-linejoin:round;stroke-miterlimit:4;stroke-dasharray:none;stroke-opacity:1"/>
    <rect width="450" height="1200" x="3" y="-906" rx="50" ry="50" style="opacity:1;fill:#fff;fill-opacity:1;fill-rule:nonzero;stroke:none;stroke-width:140.35980225;stroke-linecap:square;stroke-linejoin:round;stroke-miterlimit:4;stroke-dasharray:none;stroke-opacity:1"/>
    <circle cx="228" cy="-356" r="220" style="opacity:1;fill:#be121e;fill-opacity:1;fill-rule:nonzero;stroke:none;stroke-width:79.03548431;stroke-linecap:square;stroke-linejoin:round;stroke-miterlimit:4;stroke-dasharray:none;stroke-opacity:1"/>
    <circle cx="228" cy="-356" r="185" style="opacity:1;fill:#fff;fill-opacity:1;fill-rule:nonzero;stroke:none;stroke-width:66.46165466;stroke-linecap:square;stroke-linejoin:round;stroke-miterlimit:4;stroke-dasharray:none;stroke-opacity:1"/>
    <g aria-label="25" style="font-style:normal;font-variant:normal;font-weight:400;font-stretch:normal;font-size:288.18444824px;line-height:0;font-family:&quot;Roadgeek 2005 Series D&quot;;-inkscape-font-specification:&quot;Roadgeek 2005 Series D&quot;;letter-spacing:0;word-spacing:0;fill:#000;fill-opacity:1;stroke:none;stroke-width:7.20461082">
      <path d="M70 183.542q.576-17.003 4.323-31.124 3.746-14.121 11.815-27.954 6.052-10.951 14.986-20.173 8.934-9.51 19.02-17.003 2.594-1.44 4.611-2.882 2.017-1.729 4.035-3.17l10.374-5.475 9.51-5.476 9.222-5.187q5.764-3.746 9.222-9.222 3.747-5.764 3.747-11.815 0-5.476-2.882-10.087-2.882-4.9-7.781-8.357-4.611-3.458-10.951-5.476t-13.545-2.017q-14.697 0-23.92 6.916-8.933 6.917-11.238 20.173L70 38.585Q74.9 14.378 92.478.833 110.058-13 135.706-13q13.833 0 25.648 4.611 12.104 4.61 20.75 12.392 8.933 7.78 14.12 18.444 5.188 10.374 5.188 22.19 0 11.24-5.187 22.19-4.9 10.663-14.41 19.02-2.305 1.73-4.322 3.17-1.73 1.441-3.747 2.306l-9.51 6.052-10.374 5.475-9.51 5.476q-6.917 4.034-12.392 8.645-5.188 4.323-9.799 9.51-4.322 5.188-8.357 11.528-3.746 6.34-7.205 14.409h94.813v31.124zM370 112.36q0 16.139-6.34 29.683-6.052 13.545-17.291 23.631t-26.801 15.85Q304.294 187 285.85 187q-12.68 0-25.072-2.882-12.104-2.882-22.19-8.069l14.986-27.09q6.051 3.17 15.85 5.188 9.798 1.73 20.46 1.73 10.375 0 19.31-3.171 9.221-3.458 15.85-9.222 6.916-5.764 10.662-13.545 3.746-8.069 3.746-17.579 0-7.204-2.881-13.256-2.594-6.052-7.493-10.663-4.611-4.611-10.951-7.205-6.052-2.593-13.257-2.593-5.187 0-9.222.864-3.746.865-7.204 3.17-3.458 2.306-6.917 6.34-3.458 3.747-7.78 9.799l-30.548-8.646 4.899-99.712h110.951v30.548h-81.268l-2.017 31.7q10.663-3.17 16.714-4.323 6.052-1.152 13.257-1.152 13.256 0 24.784 5.187 11.815 5.187 20.46 14.12 8.935 8.935 13.834 20.75Q370 99.104 370 112.36" style="font-style:normal;font-variant:normal;font-weight:400;font-stretch:normal;line-height:0;font-family:&quot;Roadgeek 2005 Series D&quot;;-inkscape-font-specification:&quot;Roadgeek 2005 Series D&quot;;fill:#000;stroke:none;stroke-width:7.20461082" transform="translate(8 -443)"/>
    </g>
    <rect width="438" height="338" x="9" y="-50" rx="44" ry="44" style="opacity:1;fill:#000;fill-opacity:1;fill-rule:nonzero;stroke:none;stroke-width:95.79516602;stroke-linecap:square;stroke-linejoin:round;stroke-miterlimit:4;stroke-dasharray:none;stroke-opacity:1"/>
    <rect width="414" height="314" x="21" y="-38" rx="32" ry="32" style="opacity:1;fill:#fff;fill-opacity:1;fill-rule:nonzero;stroke:none;stroke-width:89.76626587;stroke-linecap:square;stroke-linejoin:round;stroke-miterlimit:4;stroke-dasharray:none;stroke-opacity:1"/>
    <rect width="438" height="238" x="9" y="-900" rx="44" ry="44" style="opacity:1;fill:#000;fill-opacity:1;fill-rule:nonzero;stroke:none;stroke-width:80.384758;stroke-linecap:square;stroke-linejoin:round;stroke-miterlimit:4;stroke-dasharray:none;stroke-opacity:1"/>
    <rect width="414" height="214" x="21" y="-888" rx="32" ry="32" style="opacity:1;fill:#fff;fill-opacity:1;fill-rule:nonzero;stroke:none;stroke-width:74.10631561;stroke-linecap:square;stroke-linejoin:round;stroke-miterlimit:4;stroke-dasharray:none;stroke-opacity:1"/>
    <g aria-label="CHILDREN" style="font-style:normal;font-variant:normal;font-weight:400;font-stretch:normal;font-size:86.4553299px;line-height:0;font-family:&quot;Roadgeek 2005 Series D&quot;;-inkscape-font-specification:&quot;Roadgeek 2005 Series D&quot;;letter-spacing:.00529167px;word-spacing:0;fill:#f60;fill-opacity:1;stroke:none;stroke-width:2.16138315">
      <path d="M83.622-812.082q-5.187 12.795-17.464 12.795-6.484 0-10.72-2.507t-7.003-7.867q-1.989-3.89-3.112-9.078-1.124-5.187-1.124-10.634 0-6.916 1.729-13.228t4.755-10.201q2.593-3.2 6.225-4.842 3.717-1.643 8.645-1.643 6.57 0 10.807 2.853 4.323 2.853 7.262 8.992l-8.559 3.63q-1.21-1.815-2.248-3.025-.95-1.21-2.075-1.902-1.037-.692-2.334-.951-1.21-.26-2.853-.26-3.545 0-5.965 1.643-2.335 1.643-3.804 5.533-1.124 2.594-1.73 6.139-.518 3.544-.518 7.262 0 4.755.95 9.164.952 4.323 2.68 7.09 1.557 2.247 3.632 3.371t5.1 1.124q2.94 0 5.102-1.556 2.161-1.643 3.89-5.187zM126.494-800.324v-25.245h-21.095v25.245h-9.164v-57.925h9.164v23.343h21.095v-23.343h9.164v57.925zM149.43-800.324v-57.925h9.337v57.925zM172.569-800.324v-57.925h9.164v49.366h26.801v8.559zM256.576-829.373q0 8.732-2.68 15.389-2.593 6.57-7.521 10.375-1.643 1.556-3.89 2.334-2.162.778-4.41.95h-20.922v-57.924h18.674q2.162 0 3.718.173 1.642.086 2.94.432 1.296.346 2.333.951t2.248 1.47q4.582 3.977 7.003 10.634 2.507 6.57 2.507 15.216m-9.337 0q0-5.879-1.297-10.461-1.21-4.582-3.371-6.83-1.124-1.038-2.594-1.73-1.47-.69-3.285-.69h-10.375v39.423h9.164q2.248 0 3.718-.519 1.556-.519 2.766-1.73 2.594-2.593 3.891-7.088 1.383-4.583 1.383-10.375M298.648-800.324l-9.338-25.245h-10.98v25.245h-9.164v-57.925h19.107q3.372 0 5.793.432 2.42.346 4.582 1.383 1.902.951 3.458 2.508 1.643 1.47 2.766 3.458 1.21 1.902 1.816 4.15.692 2.161.692 4.322 0 2.335-.692 4.583-.605 2.161-1.816 4.15-1.123 1.901-2.853 3.458-1.642 1.556-3.63 2.42l10.201 27.06zm-.433-41.672q0-1.815-.95-3.458-.952-1.642-2.68-2.593-1.125-.606-2.076-.779-.95-.259-3.199-.259h-10.98v14.179h10.98q2.162 0 3.113-.173 1.037-.173 2.161-.778 1.73-.951 2.68-2.594.951-1.729.951-3.545M318.31-800.324v-57.925h34.15v9.164h-24.986v14.179h16.858v9.337h-16.858v15.908h26.8v9.337zM395.372-800.324l-22.133-39.25v39.25h-9.164v-57.925h9.164l21.096 37.003v-37.003h9.164v57.925z" style="font-style:normal;font-variant:normal;font-weight:400;font-stretch:normal;line-height:0;font-family:&quot;Roadgeek 2005 Series D&quot;;-inkscape-font-specification:&quot;Roadgeek 2005 Series D&quot;;letter-spacing:.00529167px;fill:#000;stroke:none;stroke-width:2.16138315" transform="translate(4.151 3.287)"/>
    </g>
    <g aria-label="CROSSING" style="font-style:normal;font-variant:normal;font-weight:400;font-stretch:normal;font-size:86.4553299px;line-height:0;font-family:&quot;Roadgeek 2005 Series D&quot;;-inkscape-font-specification:&quot;Roadgeek 2005 Series D&quot;;letter-spacing:.00529167px;word-spacing:0;fill:#d45500;fill-opacity:1;stroke:none;stroke-width:2.16138315">
      <path d="M85.124-715.795Q79.936-703 67.66-703q-6.484 0-10.72-2.507t-7.004-7.868q-1.988-3.89-3.112-9.077-1.124-5.188-1.124-10.634 0-6.917 1.73-13.228 1.728-6.311 4.754-10.202 2.594-3.199 6.225-4.841Q62.127-763 67.054-763q6.571 0 10.807 2.853 4.323 2.853 7.263 8.991l-8.56 3.631q-1.21-1.815-2.247-3.025-.951-1.21-2.075-1.902-1.038-.692-2.335-.951-1.21-.26-2.853-.26-3.544 0-5.965 1.643-2.334 1.642-3.804 5.533-1.124 2.594-1.73 6.138-.518 3.545-.518 7.263 0 4.755.951 9.164.951 4.323 2.68 7.09 1.556 2.247 3.631 3.37 2.075 1.125 5.101 1.125 2.94 0 5.101-1.556 2.162-1.643 3.89-5.188zM127.221-704.037l-9.337-25.245h-10.98v25.245H97.74v-57.926h19.107q3.371 0 5.792.433 2.42.346 4.582 1.383 1.902.951 3.458 2.507 1.643 1.47 2.767 3.458 1.21 1.902 1.816 4.15.691 2.162.691 4.323 0 2.334-.691 4.582-.606 2.162-1.816 4.15-1.124 1.902-2.853 3.458-1.643 1.556-3.631 2.421l10.202 27.06zm-.432-41.672q0-1.816-.951-3.458t-2.68-2.594q-1.124-.605-2.075-.778-.951-.26-3.199-.26h-10.98v14.18h10.98q2.161 0 3.112-.174 1.038-.172 2.162-.778 1.729-.95 2.68-2.593.95-1.73.95-3.545M186.739-732.914q0 6.917-1.643 13.228-1.642 6.311-4.668 10.202Q175.586-703 166.422-703q-6.138 0-10.115-2.507t-6.571-7.868q-1.816-3.717-2.94-8.991-1.123-5.36-1.123-10.548 0-7.175 1.642-13.314 1.73-6.138 4.669-10.288 2.593-3.285 6.138-4.841 3.631-1.643 8.646-1.643 5.533 0 9.423 2.507t6.657 7.868q1.816 3.89 2.853 9.077 1.038 5.188 1.038 10.634m-9.164 0q0-4.927-.865-9.077-.865-4.237-2.594-7.176-1.383-2.248-3.198-3.285-1.73-1.038-4.323-1.21-3.372-.174-5.62 1.555-2.248 1.73-3.717 5.62-1.124 2.594-1.73 6.311-.518 3.631-.518 7.262 0 4.669.864 8.992.865 4.323 2.594 7.09 1.383 2.247 3.285 3.37 1.902 1.125 4.669 1.125 3.199 0 5.274-1.73 2.161-1.728 3.63-5.619.433-1.124.865-2.68.433-1.643.692-3.372.346-1.815.519-3.63.173-1.816.173-3.546M234.932-720.723q0 3.977-1.47 7.348t-4.236 5.88q-2.42 2.16-5.706 3.371-3.199 1.124-6.916 1.124-7.522 0-12.882-3.977-5.274-4.063-8.213-10.72l8.732-3.2q1.815 4.15 5.014 6.398 3.199 2.162 7.349 2.162 4.063 0 6.484-2.42 2.507-2.508 2.507-6.14 0-2.852-1.556-4.668-1.47-1.815-3.89-3.026-2.421-1.297-5.36-2.248-2.854-.95-5.707-2.075-1.297-.518-3.199-1.47-1.902-.95-3.717-2.593-1.73-1.73-3.026-4.236-1.21-2.507-1.21-6.139 0-4.236 1.383-7.175 1.383-3.026 3.717-4.842 2.42-1.902 5.706-2.766 3.372-.865 7.262-.865 6.139 0 10.202 3.199 4.15 3.199 6.311 8.645l-8.126 2.421q-.692-1.383-1.816-2.507-.95-.951-2.68-1.73-1.643-.777-4.063-.864-1.557-.086-3.286.26-1.642.259-2.94 1.037-1.296.778-2.074 2.161-.778 1.297-.605 3.286.173 2.68 2.334 4.15 2.161 1.383 5.274 2.42 3.112 1.038 6.657 2.162 3.63 1.037 6.657 3.112 3.026 1.989 5.014 5.447 2.075 3.372 2.075 9.078M280.023-720.723q0 3.977-1.47 7.348t-4.236 5.88q-2.421 2.16-5.707 3.371-3.198 1.124-6.916 1.124-7.522 0-12.882-3.977-5.274-4.063-8.213-10.72l8.732-3.2q1.815 4.15 5.014 6.398 3.2 2.162 7.349 2.162 4.063 0 6.484-2.42 2.507-2.508 2.507-6.14 0-2.852-1.556-4.668-1.47-1.815-3.89-3.026-2.421-1.297-5.36-2.248-2.854-.95-5.707-2.075-1.296-.518-3.198-1.47-1.902-.95-3.718-2.593-1.73-1.73-3.026-4.236-1.21-2.507-1.21-6.139 0-4.236 1.383-7.175 1.383-3.026 3.718-4.842 2.42-1.902 5.706-2.766 3.371-.865 7.262-.865 6.138 0 10.202 3.199 4.15 3.199 6.31 8.645l-8.126 2.421q-.692-1.383-1.816-2.507-.95-.951-2.68-1.73-1.642-.777-4.063-.864-1.556-.086-3.285.26-1.643.259-2.94 1.037t-2.075 2.161q-.778 1.297-.605 3.286.173 2.68 2.334 4.15 2.162 1.383 5.274 2.42 3.113 1.038 6.657 2.162 3.631 1.037 6.657 3.112 3.026 1.989 5.015 5.447 2.075 3.372 2.075 9.078M289.753-704.037v-57.926h9.337v57.926zM344.188-704.037l-22.132-39.251v39.25h-9.164v-57.925h9.164l21.095 37.003v-37.003h9.164v57.926zM404.3-721.329q0 3.977-1.383 7.35-1.383 3.284-3.804 5.792-2.42 2.42-5.792 3.804T385.97-703q-6.57 0-10.633-2.507-4.064-2.594-6.657-8.04-1.816-3.891-2.853-8.905-.951-5.101-.951-10.462 0-3.458.432-6.83.519-3.458 1.297-6.484.864-3.112 2.075-5.706 1.21-2.68 2.68-4.582 2.594-3.199 6.225-4.841Q381.303-763 386.23-763q6.657 0 10.894 3.026 4.236 2.94 7.175 9.77l-8.732 3.458q-1.815-3.804-3.977-5.36-2.074-1.557-5.36-1.557-3.544 0-5.965 1.643-2.334 1.642-3.804 5.533-1.124 2.594-1.73 6.311-.518 3.631-.518 7.262 0 4.669.692 8.905.778 4.237 2.161 7.003 2.68 4.669 7.954 4.669 4.41 0 7.262-2.507 2.853-2.508 2.853-6.485v-2.42H384.59v-9.165H404.3z" style="font-style:normal;font-variant:normal;font-weight:400;font-stretch:normal;line-height:0;font-family:&quot;Roadgeek 2005 Series D&quot;;-inkscape-font-specification:&quot;Roadgeek 2005 Series D&quot;;letter-spacing:.00529167px;fill:#000;stroke:none;stroke-width:2.16138315" transform="translate(3 -3)"/>
      <g aria-label="WHEN" style="font-style:normal;font-variant:normal;font-weight:400;font-stretch:normal;font-size:89.55223846px;line-height:0;font-family:&quot;Roadgeek 2005 Series D&quot;;-inkscape-font-specification:&quot;Roadgeek 2005 Series D&quot;;letter-spacing:-.01852083px;word-spacing:0;fill:#f60;fill-opacity:1;stroke:none;stroke-width:4.83891773">
        <path d="M166.718-663H158.3l-9.493 38.507L139.584-663h-8.418l-8.866 60h9.672l4.656-31.612L144.24-603h9.224l7.791-31.612L165.912-603h9.672zM215.753-663v26.15h-21.85V-663h-9.493v60h9.492v-24.18h21.851V-603h9.493v-60zM239.487-663v60h35.373v-9.493h-25.88v-14.686h17.462v-9.672H248.98v-16.477h27.762V-663ZM319.282-663l-22.925 40.657V-663h-9.493v60h9.493l21.85-38.328V-603h9.493v-60z" style="font-style:normal;font-variant:normal;font-weight:400;font-stretch:normal;line-height:0;font-family:&quot;Roadgeek 2005 Series D&quot;;-inkscape-font-specification:&quot;Roadgeek 2005 Series D&quot;;letter-spacing:-.01852083px;fill:#000;stroke:none;stroke-width:4.83891773" transform="matrix(1 0 0 -1 3 -609)"/>
        <g aria-label="LIGHTS" style="font-style:normal;font-variant:normal;font-weight:400;font-stretch:normal;font-size:86.4553299px;line-height:0;font-family:&quot;Roadgeek 2005 Series D&quot;;-inkscape-font-specification:&quot;Roadgeek 2005 Series D&quot;;letter-spacing:-.01322917px;word-spacing:0;fill:#f60;fill-opacity:1;stroke:none;stroke-width:10.45875549">
          <path d="M93.035 144.777V86.852h9.164v49.366H129v8.56zM137.602 144.777V86.852h9.338v57.925zM198.936 127.486q0 3.977-1.383 7.349-1.384 3.285-3.804 5.792-2.421 2.421-5.793 3.804t-7.349 1.384q-6.57 0-10.634-2.507-4.063-2.594-6.657-8.04-1.815-3.891-2.853-8.906-.95-5.1-.95-10.46 0-3.459.432-6.83.518-3.459 1.296-6.485.865-3.112 2.075-5.706 1.21-2.68 2.68-4.582 2.594-3.199 6.225-4.842 3.718-1.642 8.646-1.642 6.657 0 10.893 3.026 4.236 2.94 7.176 9.77l-8.732 3.457q-1.816-3.804-3.977-5.36-2.075-1.556-5.36-1.556-3.545 0-5.966 1.643-2.334 1.642-3.804 5.533-1.124 2.593-1.729 6.311-.519 3.631-.519 7.262 0 4.669.692 8.905.778 4.236 2.162 7.003 2.68 4.669 7.953 4.669 4.41 0 7.263-2.508t2.853-6.484v-2.42h-10.548V115.9h19.712zM241.795 144.777v-25.245H220.7v25.245h-9.164V86.852h9.164v23.343h21.095V86.852h9.164v57.925zM282.004 94.979v49.798h-9.164V94.98h-13.228v-8.127h35.792v8.127zM339.235 128.091q0 3.977-1.47 7.35-1.47 3.37-4.236 5.878-2.42 2.161-5.706 3.372-3.2 1.124-6.917 1.124-7.521 0-12.882-3.977-5.273-4.064-8.213-10.72l8.732-3.2q1.816 4.15 5.015 6.398 3.198 2.162 7.348 2.162 4.064 0 6.484-2.421 2.508-2.507 2.508-6.138 0-2.853-1.557-4.67-1.47-1.815-3.89-3.025-2.42-1.297-5.36-2.248-2.853-.95-5.706-2.075-1.297-.518-3.2-1.47-1.901-.95-3.717-2.593-1.729-1.73-3.026-4.236-1.21-2.508-1.21-6.139 0-4.236 1.383-7.176 1.384-3.026 3.718-4.841 2.42-1.902 5.706-2.767 3.372-.864 7.262-.864 6.138 0 10.202 3.199 4.15 3.198 6.311 8.645l-8.127 2.42q-.691-1.382-1.815-2.506-.951-.951-2.68-1.73-1.643-.777-4.064-.864-1.556-.086-3.285.26-1.643.259-2.94 1.037t-2.074 2.161q-.779 1.297-.606 3.286.173 2.68 2.335 4.15 2.161 1.383 5.273 2.42 3.113 1.038 6.657 2.162 3.632 1.037 6.658 3.112 3.025 1.988 5.014 5.447 2.075 3.371 2.075 9.077" style="font-style:normal;font-variant:normal;font-weight:400;font-stretch:normal;line-height:0;font-family:&quot;Roadgeek 2005 Series D&quot;;-inkscape-font-specification:&quot;Roadgeek 2005 Series D&quot;;letter-spacing:-.01322917px;fill:#000;stroke:none;stroke-width:10.45875549" transform="translate(11.865 3.185)"/>
        </g>
        <g aria-label="FLASHING" style="font-style:normal;font-variant:normal;font-weight:400;font-stretch:normal;font-size:86.4553299px;line-height:0;font-family:&quot;Roadgeek 2005 Series D&quot;;-inkscape-font-specification:&quot;Roadgeek 2005 Series D&quot;;letter-spacing:-.0079375px;word-spacing:0;fill:#d4aa00;fill-opacity:1;stroke:none;stroke-width:10.45875549">
          <path d="M55.682 197.202v14.178H72.54v9.338H55.68v25.245h-9.163v-57.926h35.965v9.165zM91.088 245.963v-57.926h9.164v49.366h26.802v8.56zM169.811 245.963l-5.706-16.254h-18.069l-5.706 16.254h-9.77l19.972-57.926h9.078l19.97 57.926zm-14.61-41.845-5.966 16.254h11.585zM223.697 229.277q0 3.977-1.47 7.348t-4.236 5.88q-2.42 2.16-5.706 3.371Q209.086 247 205.37 247q-7.522 0-12.882-3.977-5.274-4.063-8.213-10.72l8.732-3.2q1.815 4.15 5.014 6.398 3.199 2.162 7.349 2.162 4.063 0 6.484-2.42 2.507-2.508 2.507-6.14 0-2.852-1.556-4.668-1.47-1.815-3.89-3.026-2.421-1.297-5.36-2.248-2.854-.95-5.707-2.075-1.297-.518-3.199-1.47-1.902-.95-3.717-2.593-1.73-1.729-3.026-4.236-1.21-2.507-1.21-6.139 0-4.236 1.383-7.175 1.383-3.026 3.717-4.842 2.421-1.902 5.706-2.766 3.372-.865 7.263-.865 6.138 0 10.201 3.199 4.15 3.199 6.312 8.645l-8.127 2.421q-.692-1.383-1.816-2.507-.95-.951-2.68-1.73-1.642-.777-4.063-.864-1.556-.086-3.286.26-1.642.259-2.939 1.037t-2.075 2.161q-.778 1.297-.605 3.286.173 2.68 2.334 4.15 2.162 1.383 5.274 2.42 3.112 1.038 6.657 2.162 3.631 1.037 6.657 3.112 3.026 1.989 5.014 5.447 2.075 3.372 2.075 9.078M263.674 245.963v-25.245h-21.095v25.245h-9.165v-57.926h9.165v23.343h21.095v-23.343h9.164v57.926zM286.597 245.963v-57.926h9.337v57.926zM341.02 245.963l-22.133-39.251v39.25h-9.165v-57.925h9.165l21.095 37.003v-37.003h9.164v57.926zM401.118 228.671q0 3.977-1.383 7.35-1.384 3.284-3.804 5.792-2.421 2.42-5.793 3.804T382.79 247q-6.57 0-10.634-2.507-4.063-2.594-6.657-8.04-1.815-3.891-2.853-8.905-.95-5.101-.95-10.462 0-3.458.432-6.83.518-3.458 1.296-6.484.865-3.112 2.075-5.706 1.21-2.68 2.68-4.582 2.594-3.199 6.225-4.841Q378.121 187 383.05 187q6.657 0 10.893 3.026 4.236 2.94 7.176 9.77l-8.732 3.458q-1.816-3.804-3.977-5.36-2.075-1.557-5.36-1.557-3.545 0-5.966 1.643-2.334 1.642-3.804 5.533-1.124 2.594-1.729 6.311-.519 3.631-.519 7.262 0 4.669.692 8.905.778 4.237 2.162 7.003 2.68 4.669 7.953 4.669 4.41 0 7.263-2.507t2.853-6.485v-2.42h-10.548v-9.165h19.712z" style="font-style:normal;font-variant:normal;font-weight:400;font-stretch:normal;line-height:0;font-family:&quot;Roadgeek 2005 Series D&quot;;-inkscape-font-specification:&quot;Roadgeek 2005 Series D&quot;;letter-spacing:-.0079375px;fill:#000;stroke:none;stroke-width:10.45875549" transform="translate(4.182 -3)"/>
        </g>
      </g>
    </g>
  </g>
</svg>
