<svg xmlns="http://www.w3.org/2000/svg" viewBox="0 0 177.25 351.687" role="img" aria-labelledby="title">
  <title id="title">Verkehrszeichen R5-Q04 - Loading Zone (Maximum of 2 Minutes for Passengers) (used in QLD)</title>
  <path d="M16.755 1.405h143.718c8.446 0 15.357 6.91 15.357 15.356v318.15c0 8.448-6.911 15.356-15.357 15.356H16.755c-8.446 0-15.356-6.908-15.356-15.357V16.761c0-8.446 6.91-15.356 15.356-15.356z" style="fill:#fff;fill-opacity:1;fill-rule:evenodd;stroke:#000;stroke-width:2.82222247;stroke-linecap:butt;stroke-linejoin:miter;stroke-miterlimit:2.61299992;stroke-opacity:1;stroke-dasharray:none"/>
  <path d="M17.15 9.279h142.932c3.739 0 6.498 3.545 6.498 8.466v138.797c0 4.921-2.76 8.463-6.499 8.463H17.15c-3.74 0-6.498-3.542-6.498-8.463V17.745c0-4.921 2.759-8.466 6.498-8.466" style="fill:#c0111e;fill-opacity:1;fill-rule:evenodd;stroke:none"/>
  <g style="fill:#c0111e;fill-opacity:1;stroke:none">
    <path d="m0 0 .605.442c.323-.345.646-.553 1.145-.553.279 0 .994.102.994.593 0 .486-.671.486-.994.596-.756.248-1.56.398-1.56 1.379 0 .844.826 1.255 1.551 1.255.526 0 1.198-.278 1.556-.689l-.553-.522c-.322.327-.57.429-1.003.429-.265 0-.795-.141-.804-.473 0-.451.499-.477 1.03-.636.609-.181 1.555-.345 1.555-1.295 0-.968-1.008-1.406-1.816-1.406C1.171-.88.256-.482 0 0" style="fill:#c0111e;fill-opacity:1;fill-rule:evenodd;stroke:none" transform="matrix(3.52778 0 0 -3.52778 68.54 306.72)"/>
  </g>
  <g style="fill:#c0111e;fill-opacity:1;stroke:none">
    <path d="M0 0h.738l1.856-4.419h-.831l-.424 1.03H-.579l-.433-1.03h-.813zm-.278-2.629h1.299L.376-1.061z" style="fill:#c0111e;fill-opacity:1;fill-rule:evenodd;stroke:none" transform="matrix(3.52778 0 0 -3.52778 89.353 293.938)"/>
  </g>
  <g style="fill:#c0111e;fill-opacity:1;stroke:none">
    <path d="M0 0h3.248v-.716H2.002v-3.703h-.769v3.703H0z" style="fill:#c0111e;fill-opacity:1;fill-rule:evenodd;stroke:none" transform="matrix(3.52778 0 0 -3.52778 100.328 293.938)"/>
  </g>
  <g style="fill:#c0111e;fill-opacity:1;stroke:none">
    <path d="M0 0h.734l1.299-2.629L3.297 0h.778v-4.419h-.756v2.664L2.033-4.419.756-1.79v-2.629H0z" style="fill:#c0111e;fill-opacity:1;fill-rule:evenodd;stroke:none" transform="matrix(3.52778 0 0 -3.52778 35.456 218.511)"/>
  </g>
  <g style="fill:#c0111e;fill-opacity:1;stroke:none">
    <path d="M0 0c.716 0 1.078.69 1.078 1.529 0 .844-.38 1.534-1.078 1.534s-1.078-.69-1.078-1.534C-1.078.69-.716 0 0 0m0-.765c-1.22 0-1.83 1.03-1.83 2.294S-1.189 3.827 0 3.827s1.829-1.034 1.829-2.298S1.22-.765 0-.765" style="fill:#c0111e;fill-opacity:1;fill-rule:evenodd;stroke:none" transform="matrix(3.52778 0 0 -3.52778 59.325 231.701)"/>
  </g>
  <g style="fill:#c0111e;fill-opacity:1;stroke:none">
    <path d="M0 0h.725l2.028-2.921V0h.769v-4.419h-.689L.765-1.418v-3.001H0z" style="fill:#c0111e;fill-opacity:1;fill-rule:evenodd;stroke:none" transform="matrix(3.52778 0 0 -3.52778 68.836 218.511)"/>
  </g>
  <path d="M91.209 229.761h11.474v-2.635H91.209z" style="fill:#c0111e;fill-opacity:1;fill-rule:nonzero;stroke:none"/>
  <g style="fill:#c0111e;fill-opacity:1;stroke:none">
    <path d="M0 0h3.248v-.769H.747v-.959h1.379v-.756H.747v-1.935H0z" style="fill:#c0111e;fill-opacity:1;fill-rule:evenodd;stroke:none" transform="matrix(3.52778 0 0 -3.52778 112.259 218.709)"/>
  </g>
  <g style="fill:#c0111e;fill-opacity:1;stroke:none">
    <path d="M0 0h2.126c.791 0 1.339-.636 1.339-1.317 0-.451-.292-1.03-.765-1.233l.822-1.869H2.7l-.786 1.728H.756v-1.728H0zm.756-.756V-1.94h1.37c.305 0 .574.279.574.588 0 .207-.172.596-.574.596z" style="fill:#c0111e;fill-opacity:1;fill-rule:evenodd;stroke:none" transform="matrix(3.52778 0 0 -3.52778 126.511 218.709)"/>
  </g>
  <path d="M141.973 234.298h2.682v-15.59h-2.682z" style="fill:#c0111e;fill-opacity:1;fill-rule:nonzero;stroke:none"/>
  <g style="fill:#c0111e;fill-opacity:1;stroke:none">
    <path d="M0 0v1.907c2.279 0 3.754.759 4.91 2.983-.693-.396-2.18-.407-2.631-.407-2.114 0-3.897 1.266-3.897 3.468 0 1.96 2.014 3.27 4.216 3.27 2.522 0 4.525-1.123 4.525-4.118 0-2.653-.627-3.578-1.552-4.712C4.25.794 2.477 0 0 0m2.664 6.398c1.3 0 2.378.375 2.378 1.454 0 1.112-1.078 1.475-2.378 1.475-1.343 0-2.4-.473-2.4-1.475 0-1.013 1.057-1.454 2.4-1.454" style="fill:#c0111e;fill-opacity:1;fill-rule:evenodd;stroke:none" transform="matrix(3.52778 0 0 -3.52778 20.29 211.801)"/>
  </g>
  <g style="fill:#c0111e;fill-opacity:1;stroke:none">
    <path d="M0 0v1.907c2.279 0 3.754.759 4.91 2.983-.693-.396-2.18-.407-2.631-.407-2.114 0-3.897 1.266-3.897 3.468 0 1.96 2.014 3.27 4.216 3.27 2.522 0 4.525-1.123 4.525-4.118 0-2.653-.627-3.578-1.552-4.712C4.25.794 2.477 0 0 0m2.664 6.398c1.3 0 2.378.375 2.378 1.454 0 1.112-1.078 1.475-2.378 1.475-1.343 0-2.4-.473-2.4-1.475 0-1.013 1.057-1.454 2.4-1.454" style="fill:#c0111e;fill-opacity:1;fill-rule:evenodd;stroke:none" transform="matrix(3.52778 0 0 -3.52778 34.27 285.454)"/>
  </g>
  <g style="fill:#c0111e;fill-opacity:1;stroke:none">
    <path d="M0 0h1.617c.51 0 1.043-.44 1.043-.96 0-.544-.403-1.07-.963-1.07H.584v-1.304H0zm.553-.58v-.884h1.064c.27 0 .46.154.46.444 0 .283-.24.44-.48.44z" style="fill:#c0111e;fill-opacity:1;fill-rule:evenodd;stroke:none" transform="matrix(3.52778 0 0 -3.52778 140.421 199.299)"/>
  </g>
  <g style="fill:#c0111e;fill-opacity:1;stroke:none">
    <path d="M0 0h.553l.981-1.984L2.487 0h.587v-3.334h-.57v2.01l-.97-2.01L.57-1.35v-1.984H0z" style="fill:#c0111e;fill-opacity:1;fill-rule:evenodd;stroke:none" transform="matrix(3.52778 0 0 -3.52778 152.088 199.299)"/>
  </g>
  <g style="fill:#c0111e;fill-opacity:1;stroke:none">
    <path d="M0 0h.557l1.4-3.334H1.33l-.32.777H-.437l-.327-.777h-.613zm-.21-1.984h.98L.283-.8z" style="fill:#c0111e;fill-opacity:1;fill-rule:evenodd;stroke:none" transform="matrix(3.52778 0 0 -3.52778 49.373 199.299)"/>
  </g>
  <g style="fill:#c0111e;fill-opacity:1;stroke:none">
    <path d="M0 0h.553l.981-1.984L2.487 0h.587v-3.334h-.57v2.01l-.97-2.01L.57-1.35v-1.984H0z" style="fill:#c0111e;fill-opacity:1;fill-rule:evenodd;stroke:none" transform="matrix(3.52778 0 0 -3.52778 58.534 199.299)"/>
  </g>
  <g style="fill:#c0111e;fill-opacity:1;stroke:none">
    <path d="M0 0h.557l1.4-3.334H1.33l-.32.777H-.437l-.327-.777h-.613zm-.21-1.984h.98L.283-.8z" style="fill:#c0111e;fill-opacity:1;fill-rule:evenodd;stroke:none" transform="matrix(3.52778 0 0 -3.52778 63.156 272.952)"/>
  </g>
  <g style="fill:#c0111e;fill-opacity:1;stroke:none">
    <path d="M0 0h.553l.981-1.984L2.487 0h.587v-3.334h-.57v2.01l-.97-2.01L.57-1.35v-1.984H0z" style="fill:#c0111e;fill-opacity:1;fill-rule:evenodd;stroke:none" transform="matrix(3.52778 0 0 -3.52778 72.317 272.952)"/>
  </g>
  <g style="fill:#c0111e;fill-opacity:1;stroke:none">
    <path d="M0 0h.432l1.21-1.742V0h.459v-2.636H1.69L.456-.846v-1.79H0z" style="fill:#c0111e;fill-opacity:1;fill-rule:evenodd;stroke:none" transform="matrix(3.52778 0 0 -3.52778 116.789 275.414)"/>
  </g>
  <g style="fill:#c0111e;fill-opacity:1;stroke:none">
    <path d="M0 0c.427 0 .643.411.643.912 0 .504-.227.915-.643.915s-.643-.411-.643-.915C-.643.411-.427 0 0 0m0-.456c-.728 0-1.091.614-1.091 1.368S-.709 2.283 0 2.283 1.091 1.666 1.091.912.727-.456 0-.456" style="fill:#c0111e;fill-opacity:1;fill-rule:evenodd;stroke:none" transform="matrix(3.52778 0 0 -3.52778 129.863 283.281)"/>
  </g>
  <g style="fill:#c0111e;fill-opacity:1;stroke:none">
    <path d="M0 0c.427 0 .643.411.643.912 0 .504-.227.915-.643.915s-.643-.411-.643-.915C-.643.411-.427 0 0 0m0-.456c-.728 0-1.091.614-1.091 1.368S-.709 2.283 0 2.283 1.091 1.666 1.091.912.727-.456 0-.456" style="fill:#c0111e;fill-opacity:1;fill-rule:evenodd;stroke:none" transform="matrix(3.52778 0 0 -3.52778 138.876 283.281)"/>
  </g>
  <g style="fill:#c0111e;fill-opacity:1;stroke:none">
    <path d="M0 0h.432l1.21-1.742V0h.459v-2.636H1.69L.456-.846v-1.79H0z" style="fill:#c0111e;fill-opacity:1;fill-rule:evenodd;stroke:none" transform="matrix(3.52778 0 0 -3.52778 144.549 275.414)"/>
  </g>
  <path d="M74.25 198.935h19.46v-5.204H74.25zM89.808 272.592h19.459v-5.204H89.808z" style="fill:#c0111e;fill-opacity:1;fill-rule:nonzero;stroke:none"/>
  <g style="fill:#c0111e;fill-opacity:1;stroke:none">
    <path d="m0 0-4.162-4.371H0zm.033 2.642h1.839v-7.013H3.49v-1.772H1.872v-2.224H0v2.224h-6.661v1.695z" style="fill:#c0111e;fill-opacity:1;fill-rule:evenodd;stroke:none" transform="matrix(3.52778 0 0 -3.52778 123.745 181.536)"/>
  </g>
  <g style="fill:#c0111e;fill-opacity:1;stroke:none">
    <path d="M0 0v5.823h-.961v1.124c.488.062.977.372 1.201.806h1.102V0z" style="fill:#c0111e;fill-opacity:1;fill-rule:evenodd;stroke:none" transform="matrix(3.52778 0 0 -3.52778 120.179 273.093)"/>
  </g>
  <g style="fill:#c0111e;fill-opacity:1;stroke:none">
    <path d="M0 0c.791.736 2.031 1.225 3.094 1.225 1.488 0 3.047-.76 3.047-2.419 0-1.217-1.14-1.993-1.83-2.109-1.621-.264-2.45-1.303-2.629-2H6.18v-1.38H.031c0 1.946 1.155 3.659 2.853 4.372.931.404 1.931.233 1.931 1.233 0 .473-.783.954-1.597.954-.721 0-1.768-.241-2.326-.884z" style="fill:#c0111e;fill-opacity:1;fill-rule:evenodd;stroke:none" transform="matrix(3.52778 0 0 -3.52778 130.247 249.513)"/>
  </g>
  <g style="fill:#c0111e;fill-opacity:1;stroke:none">
    <path d="m0 0 4.385 3.507h4.822L6.468 1.315h20.933v-2.63H6.468l2.739-2.192H4.385z" style="fill:#c0111e;fill-opacity:1;fill-rule:evenodd;stroke:none" transform="matrix(3.52778 0 0 -3.52778 40.282 328.024)"/>
  </g>
  <g style="stroke:none">
    <path d="M0 0v-1.88h.502c.3 0 .57.416.57.974C1.065-.343.741 0 .453 0zm-.753.772H.582c.637 0 1.249-.815 1.249-1.752 0-.918-.57-1.708-1.274-1.708H0v-2.664h-.753z" style="fill:#fff;fill-opacity:1;fill-rule:evenodd;stroke:none" transform="matrix(3.52778 0 0 -3.52778 33.081 107.143)"/>
  </g>
  <g style="stroke:none">
    <path d="m0 0 1.2 6.123h.766L3.257 0h-.783l-.343 1.543H1.072L.784 0zm1.249 2.302h.759l-.41 1.794z" style="fill:#fff;fill-opacity:1;fill-rule:evenodd;stroke:none" transform="matrix(3.52778 0 0 -3.52778 41.696 126.023)"/>
  </g>
  <g style="stroke:none">
    <path d="M0 0h.741c0-.594.233-.869.551-.869.349.006.539.281.539.691 0 .19-.043.405-.123.637-.275.79-.6 1.023-.998 1.439-.275.288-.618 1.017-.618 1.549 0 .833.637 1.286 1.218 1.286.649 0 1.213-.496 1.213-1.439h-.76c0 .49-.177.662-.447.662-.159 0-.453-.055-.453-.527 0-.3.129-.741.331-.912 1.01-.87 1.39-2.125 1.39-2.842 0-.526-.465-1.292-1.28-1.299C.643-1.624 0-1.255 0 0" style="fill:#fff;fill-opacity:1;fill-rule:evenodd;stroke:none" transform="matrix(3.52778 0 0 -3.52778 55.328 120.69)"/>
  </g>
  <g style="stroke:none">
    <path d="M0 0h.741c0-.594.233-.869.551-.869.349.006.539.281.539.691 0 .19-.043.405-.123.637-.275.79-.6 1.023-.998 1.439-.275.288-.618 1.017-.618 1.549 0 .833.637 1.286 1.218 1.286.649 0 1.213-.496 1.213-1.439h-.76c0 .49-.177.662-.447.662-.159 0-.453-.055-.453-.527 0-.3.129-.741.331-.912 1.01-.87 1.39-2.125 1.39-2.842 0-.526-.465-1.292-1.28-1.299C.643-1.624 0-1.255 0 0" style="fill:#fff;fill-opacity:1;fill-rule:evenodd;stroke:none" transform="matrix(3.52778 0 0 -3.52778 66.454 120.69)"/>
  </g>
  <g style="stroke:none">
    <path d="M0 0h2.217v-.759H.759v-1.66h.949v-.753H.759v-2.204h1.537v-.747H0z" style="fill:#fff;fill-opacity:1;fill-rule:evenodd;stroke:none" transform="matrix(3.52778 0 0 -3.52778 78.505 104.423)"/>
  </g>
  <g style="stroke:none">
    <path d="M0 0h.771l1.054-3.258V0h.759v-6.123h-.667L.771-2.498v-3.625H0z" style="fill:#fff;fill-opacity:1;fill-rule:evenodd;stroke:none" transform="matrix(3.52778 0 0 -3.52778 89.801 104.423)"/>
  </g>
  <g style="stroke:none">
    <path d="M0 0a.443.443 0 0 1-.447.429c-.527 0-.588-1.054-.588-1.837 0-.239.006-.447.006-.6v-.441c0-.784.049-1.941.613-1.941.269 0 .447.165.447.783v.772h-.405v.771H.759v-1.2c0-.153.006-.336.006-.508 0-.233-.006-.441-.036-.52-.221-.662-.692-.859-1.121-.871-1.175 0-1.408 1.25-1.408 3.148.012 1.69.122 3.215 1.365 3.215C.221 1.2.753.698.753 0z" style="fill:#fff;fill-opacity:1;fill-rule:evenodd;stroke:none" transform="matrix(3.52778 0 0 -3.52778 108.378 108.226)"/>
  </g>
  <g style="stroke:none">
    <path d="M0 0h2.217v-.759H.759v-1.66h.949v-.753H.759v-2.204h1.537v-.747H0z" style="fill:#fff;fill-opacity:1;fill-rule:evenodd;stroke:none" transform="matrix(3.52778 0 0 -3.52778 114.298 104.423)"/>
  </g>
  <g style="stroke:none">
    <path d="M0 0c.294 0 .533.496.533.827 0 .367-.184.9-.533.9h-.502V0zm.704-.508.631-3.135H.563L-.049-.778h-.453v-2.865h-.747V2.48h1.237c.594 0 1.304-.343 1.304-1.696 0-.57-.196-1.005-.588-1.292" style="fill:#fff;fill-opacity:1;fill-rule:evenodd;stroke:none" transform="matrix(3.52778 0 0 -3.52778 130 113.172)"/>
  </g>
  <g style="stroke:none">
    <path d="M0 0h.741c0-.594.233-.869.551-.869.349.006.539.281.539.691 0 .19-.043.405-.123.637-.275.79-.6 1.023-.998 1.439-.275.288-.618 1.017-.618 1.549 0 .833.637 1.286 1.218 1.286.649 0 1.213-.496 1.213-1.439h-.76c0 .49-.177.662-.447.662-.159 0-.453-.055-.453-.527 0-.3.129-.741.331-.912 1.01-.87 1.39-2.125 1.39-2.842 0-.526-.465-1.292-1.28-1.299C.643-1.624 0-1.255 0 0" style="fill:#fff;fill-opacity:1;fill-rule:evenodd;stroke:none" transform="matrix(3.52778 0 0 -3.52778 136.915 120.69)"/>
  </g>
  <g style="stroke:none">
    <path d="M0 0c0 .967.606 1.304 1.286 1.304.716 0 1.298-.575 1.298-1.42 0-.956-.716-1.703-1.163-2.29-.233-.307-.588-1.25-.588-1.77h1.622v-.765H.006c0 1.414.27 1.959.655 2.712.368.717 1.127 1.243 1.127 2.107 0 .434-.239.661-.459.661C1.01.539.765.392.729 0z" style="fill:#fff;fill-opacity:1;fill-rule:evenodd;stroke:none" transform="matrix(3.52778 0 0 -3.52778 32.835 137.531)"/>
  </g>
  <g style="stroke:none">
    <path d="M0 0h.771l.735-2.192L2.155 0h.815v-6.123h-.747v3.6l-.717-2.259-.704 2.259v-3.6H0z" style="fill:#fff;fill-opacity:1;fill-rule:evenodd;stroke:none" transform="matrix(3.52778 0 0 -3.52778 53.444 133.365)"/>
  </g>
  <path d="M67.894 154.965h2.7v-21.6h-2.7z" style="fill:#fff;fill-opacity:1;fill-rule:nonzero;stroke:none"/>
  <g style="stroke:none">
    <path d="M0 0h.771l1.054-3.258V0h.759v-6.123h-.667L.771-2.498v-3.625H0z" style="fill:#fff;fill-opacity:1;fill-rule:evenodd;stroke:none" transform="matrix(3.52778 0 0 -3.52778 74.59 133.365)"/>
  </g>
  <g style="stroke:none">
    <path d="M0 0h.741c0-.594.233-.869.551-.869.349.006.539.281.539.691 0 .19-.043.405-.123.637-.275.79-.6 1.023-.998 1.439-.275.288-.618 1.017-.618 1.549 0 .833.637 1.286 1.218 1.286.649 0 1.213-.496 1.213-1.439h-.76c0 .49-.177.662-.446.662-.16 0-.454-.055-.454-.527 0-.3.129-.741.331-.912 1.01-.87 1.39-2.125 1.39-2.842 0-.526-.465-1.292-1.28-1.299C.643-1.624 0-1.255 0 0" style="fill:#fff;fill-opacity:1;fill-rule:evenodd;stroke:none" transform="matrix(3.52778 0 0 -3.52778 86.77 149.628)"/>
  </g>
  <g style="stroke:none">
    <path d="M0 0h.771l.735-2.192L2.155 0h.815v-6.123h-.747v3.6l-.717-2.259-.704 2.259v-3.6H0z" style="fill:#fff;fill-opacity:1;fill-rule:evenodd;stroke:none" transform="matrix(3.52778 0 0 -3.52778 107.359 133.365)"/>
  </g>
  <g style="stroke:none">
    <path d="m0 0 1.2 6.123h.766L3.257 0h-.783l-.343 1.543H1.072L.784 0zm1.249 2.302h.759l-.41 1.794z" style="fill:#fff;fill-opacity:1;fill-rule:evenodd;stroke:none" transform="matrix(3.52778 0 0 -3.52778 120.814 154.965)"/>
  </g>
  <g style="stroke:none">
    <path d="m0 0-1.023 3.037h.796L.404 1.28l.563 1.757h.796L.778 0l1.034-3.086h-.783L.404-1.188l-.612-1.898h-.815z" style="fill:#fff;fill-opacity:1;fill-rule:evenodd;stroke:none" transform="matrix(3.52778 0 0 -3.52778 137.924 144.078)"/>
  </g>
  <g style="stroke:none">
    <path d="M0 0v1.217h4.432V.403L1.025-6.306h3.451v-1.235H-.315v1.305L2.838 0z" style="fill:#fff;fill-opacity:1;fill-rule:evenodd;stroke:none" transform="matrix(3.52778 0 0 -3.52778 48.022 60.438)"/>
  </g>
  <g style="stroke:none">
    <path d="M0 0c-1.944 0-2.54 2.042-2.54 4.556 0 2.513.578 4.546 2.557 4.546 1.989 0 2.505-2.033 2.505-4.546C2.522 1.762 1.76 0 0 0m0 1.263c.998 0 1.305 1.454 1.305 3.293 0 1.848-.28 3.328-1.305 3.328s-1.296-1.48-1.296-3.328c0-1.839.227-3.293 1.296-3.293" style="fill:#fff;fill-opacity:1;fill-rule:evenodd;stroke:none" transform="matrix(3.52778 0 0 -3.52778 77.5 87.634)"/>
  </g>
  <g style="stroke:none">
    <path d="M0 0h1.2l2.321-5.063V0h1.27v-8.759h-.99L1.2-3.004v-5.755H0z" style="fill:#fff;fill-opacity:1;fill-rule:evenodd;stroke:none" transform="matrix(3.52778 0 0 -3.52778 91.311 56.142)"/>
  </g>
  <g style="stroke:none">
    <path d="M0 0h4.239v-1.235H1.2v-2.198h1.865v-1.2H1.2v-2.891h3.179v-1.235H0z" style="fill:#fff;fill-opacity:1;fill-rule:evenodd;stroke:none" transform="matrix(3.52778 0 0 -3.52778 114.608 56.142)"/>
  </g>
  <g style="stroke:none">
    <path d="M0 0h1.244v-7.602h3.135v-1.157H0z" style="fill:#fff;fill-opacity:1;fill-rule:evenodd;stroke:none" transform="matrix(3.52778 0 0 -3.52778 21.002 19.128)"/>
  </g>
  <g style="stroke:none">
    <path d="M0 0c-1.944 0-2.54 2.042-2.54 4.556 0 2.513.578 4.546 2.557 4.546 1.989 0 2.505-2.033 2.505-4.546C2.522 1.762 1.76 0 0 0m0 1.263c.998 0 1.305 1.453 1.305 3.293 0 1.848-.28 3.328-1.305 3.328s-1.296-1.48-1.296-3.328c0-1.84.227-3.293 1.296-3.293" style="fill:#fff;fill-opacity:1;fill-rule:evenodd;stroke:none" transform="matrix(3.52778 0 0 -3.52778 48.378 50.62)"/>
  </g>
  <g style="stroke:none">
    <path d="M0 0h1.217L.613 2.356zm-2.076-3.643L0 5.115h1.217l2.181-8.758H2.163l-.63 2.434h-1.77l-.578-2.434z" style="fill:#fff;fill-opacity:1;fill-rule:evenodd;stroke:none" transform="matrix(3.52778 0 0 -3.52778 68.028 37.173)"/>
  </g>
  <g style="stroke:none">
    <path d="M0 0c2.268 0 2.812-1.848 2.812-4.143 0-2.671-.421-4.616-2.812-4.616h-1.979V0zm-.044-1.209h-.727v-6.315H.07c1.41 0 1.489 1.472 1.489 2.856v.499c0 1.541-.123 2.96-1.603 2.96" style="fill:#fff;fill-opacity:1;fill-rule:evenodd;stroke:none" transform="matrix(3.52778 0 0 -3.52778 91.819 19.128)"/>
  </g>
  <path d="M106.65 50.028h4.326V19.13h-4.326z" style="fill:#fff;fill-opacity:1;fill-rule:nonzero;stroke:none"/>
  <g style="stroke:none">
    <path d="M0 0h1.2l2.321-5.063V0h1.27v-8.759h-.99L1.2-3.004v-5.755H0z" style="fill:#fff;fill-opacity:1;fill-rule:evenodd;stroke:none" transform="matrix(3.52778 0 0 -3.52778 117.402 19.128)"/>
  </g>
  <g style="stroke:none">
    <path d="M0 0c0 .648-.412 1.016-1.042 1.016-1.183 0-1.235-2.058-1.235-3.118v-.534c0-.999.044-2.987 1.235-2.987.49 0 1.103.455 1.103.963v.99H-.99v1.262h2.234v-1.735c0-.368-.079-1.164-.237-1.497-.298-.631-1.033-1.193-2.049-1.193-2.19 0-2.488 2.752-2.488 4.425 0 1.9.237 4.677 2.488 4.677 1.235 0 2.303-.99 2.303-2.269z" style="fill:#fff;fill-opacity:1;fill-rule:evenodd;stroke:none" transform="matrix(3.52778 0 0 -3.52778 151.671 26.515)"/>
  </g>
</svg>
