<svg xmlns="http://www.w3.org/2000/svg" viewBox="0 0 123.086 82.059" role="img" aria-labelledby="title">
  <title id="title">Verkehrszeichen T3-9 - Loose Gravel</title>
  <path d="M0 82.059h123.086V0H0z" style="fill:#000;fill-opacity:1;fill-rule:nonzero;stroke:none"/>
  <path d="M3.406 78.651h116.239V3.405H3.406z" style="fill:#fee011;fill-opacity:1;fill-rule:nonzero;stroke:none"/>
  <path d="M10.249 20.395h23.556c1.215 0 3.16 1.216 3.575 2.605.42 1.356 2.779 10.664 3.373 12.054.588 1.355 3.748 7.749 3.748 10.701 0 2.78.208 3.961-.207 5.313-.348 1.255-.555 2.016-.555 3.025v10.075c0 .415-.208.796-.628.796h-5.938s-.555 0-.555-.796v-8.893h-26.37V35.054h27.933s-2.572-10.075-2.78-10.698c-.207-.767-.555-1.563-1.39-1.563H10.25zM51.623 32.52l-6.914 29.11 1.356 1.148 18.239-2.19v-1.564l-17.196 2.191 10.455-8.337-.763-1.183-9.485 6.914L62.151 36.06l-1.423-.588L48.048 54.3l5.21-21.432zm47.734-11.71.414 3.16 3.961-3.16zm-7.33.208h5.974l-1.979 3.338zm-6.286 5.525 6.909-.59-1.77-4.935c-1.042 0-2.013-.208-2.814.173-.555.213-1.39.628-1.564 1.183zm-1.81 6.74 8.096-3.995-6.706-2.12zm.381 14.243h2.19c1.357 0 2.78-1.182 2.78-2.746v-.834c0-1.563-1.423-2.741-2.78-2.741h-2.19c-1.597 0-2.778 1.178-2.778 2.741v.834c0 1.564 1.181 2.746 2.778 2.746m28.525 7.749H86.884v7.71c0 .415 0 .975-.382.975h-5.765c-.207 0-.555-.347-.555-.56V49.716c0-1.601-1.428-2.952-1.428-4.342 0-2.19.42-4.169 1.008-6.151l4.724-17.82c.213-1.215 2.19-2.572 3.58-2.572h24.771v1.979h-7.715l-2.397 3.961h10.112v1.183l-9.9 2.571 8.125 7.329-11.078-5.143-1.042 4.937-2.123-4.937-2.605 3.58-.589-3.372-9.901 3.372-1.009 3.542 12.472-1.01h17.477v4.17H92.027v6.326h20.81zm-46.136-5.144c.801-1.596 1.979-4.583 1.771-5.766-1.77 0-7.122-1.389-7.33-1.562-.973.936 0-.628-1.77 2.952-2.19 4.55 1.355 7.329 5.14 9.1.8.42 2.19-3.787 2.19-4.724m4.758-23.796c-1.424-1.149-3.402-2.365-4.55-3.754-1.183 0-3.16 2.605-4.965 3.754-3.199 2.19.207 5.765.97 8.164 1.216 2.745 1.39 2.537 3.025 1.149 1.563-1.357 3.922-3.34 4.931-5.525.415-.835.589-2.814.589-3.788m-15.248-.174c0-2.017-1.007-3.995-2.19-4.757-1.771-1.216-9.1 4.931-6.706 7.536 1.355 1.39 5.944 1.598 8.27.555 1.041-.207.626-2.186.626-3.334M75.18 59.024c0-2.185-.14-2.745-.348-4.169-1.009 0-1.982.208-3.961.42-1.771 0-3.16 0-3.788.796-1.008.768-.796 2.745-.796 4.937 0 3.748 7.329 1.77 10.109 2.185 0-1.355-1.216-2.813-1.216-4.17" style="fill:#000;fill-opacity:1;fill-rule:evenodd;stroke:none"/>
</svg>
