<svg xmlns="http://www.w3.org/2000/svg" viewBox="82.992 45.607 270.994 397.851" role="img" aria-labelledby="title">
  <title id="title">Verkehrszeichen T1-31 - Roadwork Ahead</title>
  <path d="M69.295 443.458h298.388V45.607H69.295z" style="fill:#000;fill-opacity:1;fill-rule:nonzero;stroke:none"/>
  <path d="M77.584 435.173h281.81V53.9H77.584z" style="fill:#fee011;fill-opacity:1;fill-rule:nonzero;stroke:none"/>
  <path d="M102.387 98.072h28.706c10.68 0 18.082 8.592 18.082 17.784 0 6.088-3.939 13.905-10.325 16.65l11.1 25.244h-11.1l-10.624-23.336h-15.635v23.336h-10.204zm10.204 10.204v15.994h18.502c4.116 0 7.757-3.761 7.757-7.938 0-2.802-2.326-8.056-7.757-8.056zM183.01 148.557c9.668 0 14.562-9.309 14.562-20.646 0-11.402-5.132-20.711-14.562-20.711s-14.563 9.309-14.563 20.71c0 11.338 4.895 20.647 14.563 20.647m0 10.334c-16.47 0-24.707-13.914-24.707-30.98 0-17.07 8.652-31.032 24.707-31.032 16.054 0 24.706 13.961 24.706 31.032 0 17.066-8.237 30.98-24.706 30.98M240.538 98.072h9.967l25.065 59.678h-11.22l-5.73-13.906h-25.9l-5.85 13.906h-10.978zm-3.757 35.507h17.542l-8.713-21.186zM287.024 98.072h19.099c18.199 0 28.464 14.502 28.464 30.137 0 15.458-10.144 29.54-26.856 29.54h-20.707zm10.265 49.292h10.922c9.966 0 16.349-10.023 16.349-19.155 0-10.087-6.802-19.751-17.067-19.751H297.29zM98.775 215.887h10.502l6.745 35.983 8.83-35.983H135l9.426 36.342 6.507-36.342h10.321l-10.62 59.678h-11.22l-9.248-37.419-9.43 37.419h-10.922zM194.141 266.372c9.668 0 14.563-9.309 14.563-20.646 0-11.402-5.133-20.711-14.563-20.711s-14.562 9.31-14.562 20.711c0 11.337 4.894 20.646 14.562 20.646m0 10.334c-16.47 0-24.706-13.914-24.706-30.98 0-17.07 8.652-31.032 24.706-31.032s24.707 13.962 24.707 31.032c0 17.066-8.237 30.98-24.707 30.98M230.544 215.887h28.706c10.68 0 18.082 8.592 18.082 17.784 0 6.088-3.939 13.906-10.325 16.651l11.1 25.243h-11.1l-10.624-23.336h-15.635v23.336h-10.204zm10.204 10.204v15.994h18.502c4.116 0 7.757-3.761 7.757-7.938 0-2.802-2.327-8.056-7.757-8.056zM289.742 215.887h10.027v26.735l20.944-26.735h13.01l-15.275 19.752 19.751 39.926h-11.28l-15.337-30.972-11.813 14.32v16.652h-10.027zM109.37 332.505 89.2 392.122h9.966l5.43-16.828h19.095l5.79 16.828h9.667l-20.408-59.617zm10.801 33.48H108l5.967-17.785zM149.474 332.505h9.188v23.63h21.546v-23.63h9.37v59.678h-9.37v-26.138h-21.546v26.138h-9.188zM203.358 332.505h34.193v9.547h-24.944v14.684h17.425v9.309h-17.425v16.828h27.153v9.31h-36.402zM267.632 332.505l-20.171 59.617h9.966l5.431-16.828h19.094l5.79 16.828h9.668l-20.409-59.617zm10.8 33.48h-12.171l5.967-17.785zM307.735 332.505h16.708c14.744 0 23.396 12.89 23.396 30.972 0 13.01-8.056 28.706-23.396 28.706h-16.708zm9.487 50.01h6.866c11.16 0 14.498-12.89 14.498-19.038 0-8.414-2.802-21.663-14.498-21.663h-6.866z" style="fill:#000;fill-opacity:1;fill-rule:evenodd;stroke:none"/>
</svg>
