<svg xmlns="http://www.w3.org/2000/svg" viewBox="0 0 123.12 82.059" role="img" aria-labelledby="title">
  <title id="title">Verkehrszeichen T1-3-1 - Road Plant Ahead</title>
  <path d="M0 82.059h123.12V0H0z" style="fill:#000;fill-opacity:1;fill-rule:nonzero;stroke:none"/>
  <path d="M3.406 78.651h116.205V3.405H3.406z" style="fill:#fee011;fill-opacity:1;fill-rule:nonzero;stroke:none"/>
  <path d="M33.281 10.911h6.6c2.084 0 3.994 1.98 3.994 4.064 0 1.39-.694 3.439-2.258 3.821l2.57 5.8h-2.57l-2.43-5.348h-3.578v5.348H33.28zm2.328 2.363v3.612h4.272c.903 0 1.736-.833 1.736-1.772 0-.66-1.04-1.84-1.736-1.84zM52.697 24.598c-3.75 0-5.627-3.092-5.627-6.843s1.772-6.842 5.662-6.842 5.662 3.09 5.662 6.842-1.945 6.843-5.697 6.843m.035-2.328c2.188 0 3.334-2.015 3.334-4.515 0-2.501-1.041-4.516-3.334-4.516-2.292 0-3.335 2.015-3.335 4.516s1.112 4.515 3.335 4.515M66.626 10.911h2.536l5.732 13.685h-2.64l-1.32-3.298h-5.87l-1.32 3.298h-2.537zm-.556 8.128h3.856l-1.98-4.828zM78.819 10.911h4.446c3.995 0 6.46 3.335 6.46 6.913 0 3.403-2.465 6.772-6.113 6.772H78.82zm2.362 11.324h2.57c2.293 0 3.648-2.327 3.648-4.446 0-1.91-1.459-4.515-3.648-4.515h-2.57zM19.836 32.833h7.92c2.5 0 5.14 2.153 5.14 4.723 0 2.64-1.98 5.28-4.724 5.28h-5.487v6.391h-2.849zm2.709 2.848v4.307h5.211c1.354 0 2.293-.73 2.293-2.154 0-1.215-1.217-2.153-2.398-2.153zM37.725 32.833h2.814v13.65h9.238v2.744H37.725zM59.052 32.833h3.057l6.843 16.394h-3.16l-1.598-3.96h-7.018l-1.562 3.96h-3.057zm-.66 9.76h4.62l-2.397-5.8zM73.641 32.833h2.57l7.643 10.837V32.833H86.7v16.394h-2.535L76.49 38.113v11.114h-2.849zM91.147 32.833h12.054v2.743H98.65v13.651h-2.918v-13.65h-4.585zM29.32 54.684h2.536l5.731 13.686h-2.64l-1.32-3.3h-5.87l-1.32 3.3h-2.536zm-.556 8.127h3.856l-1.98-4.827zM41.512 54.684h2.328v5.348h6.217v-5.348h2.362V68.37h-2.362v-6.114H43.84v6.114h-2.328zM57.629 54.684h9.795v2.362h-7.468v2.848h4.134v2.362h-4.134v3.751h7.746v2.363H57.63zM76.004 54.684h2.536l5.731 13.686h-2.64l-1.32-3.3h-5.87l-1.32 3.3h-2.536zm-.557 8.127h3.857l-1.98-4.827zM88.196 54.684h4.446c3.995 0 6.46 3.335 6.46 6.912 0 3.404-2.465 6.774-6.112 6.774h-4.794zm2.363 11.323h2.57c2.292 0 3.647-2.327 3.647-4.446 0-1.91-1.459-4.515-3.647-4.515h-2.57z" style="fill:#000;fill-opacity:1;fill-rule:evenodd;stroke:none"/>
</svg>
