<svg xmlns="http://www.w3.org/2000/svg" viewBox="0 0 261.811 349.081" role="img" aria-labelledby="title">
  <title id="title">Verkehrszeichen T2-17 - End Roadwork</title>
  <path d="M0 349.08h261.81V0H0z" style="fill:#000;fill-opacity:1;fill-rule:nonzero;stroke:none"/>
  <path d="M7.274 341.806H254.54V7.271H7.274z" style="fill:#fee011;fill-opacity:1;fill-rule:nonzero;stroke:none"/>
  <path d="M51.971 46.972h37.543v9.113H61.03v10.417h15.391v9.112H61.031v14.609h29.425v9.112H51.97zM106.426 46.972h8.587l24.034 34.611v-34.61h9.113v52.362h-8.17L115.484 63.78v35.556h-9.059zM168.11 46.972h16.756c15.97 0 24.977 12.725 24.977 26.441 0 13.564-8.904 25.922-23.566 25.922H168.11zm9.006 43.25h9.581c8.745 0 14.348-8.797 14.348-16.809 0-8.848-5.97-17.328-14.976-17.328h-8.953zM22.885 147.359H48.07c9.373 0 15.867 7.539 15.867 15.603 0 5.341-3.457 12.2-9.059 14.609l9.74 22.15h-9.74l-9.32-20.475h-13.72v20.476h-8.953zm8.953 8.953v14.034H48.07c3.612 0 6.808-3.299 6.808-6.964 0-2.462-2.042-7.07-6.808-7.07zM97.342 191.657c8.484 0 12.778-8.167 12.778-18.119 0-9.997-4.505-18.168-12.778-18.168s-12.778 8.17-12.778 18.168c0 9.952 4.297 18.12 12.778 18.12m0 9.067c-14.453 0-21.678-12.21-21.678-27.186 0-14.971 7.592-27.227 21.678-27.227s21.678 12.256 21.678 27.227c0 14.976-7.225 27.186-21.678 27.186M151.38 147.359h8.746l21.992 52.363h-9.846l-5.027-12.203h-22.722l-5.133 12.203h-9.635zm-3.298 31.154h15.395l-7.644-18.588zM197.196 147.359h16.757c15.97 0 24.976 12.725 24.976 26.444 0 13.56-8.904 25.919-23.565 25.919h-18.168zm9.006 43.25h9.582c8.745 0 14.347-8.798 14.347-16.806 0-8.851-5.969-17.332-14.975-17.332h-8.954zM18.983 248.744h9.215l5.916 31.573 7.75-31.573h8.9l8.277 31.887 5.704-31.887h9.06l-9.32 52.362h-9.843l-8.118-32.833-8.272 32.833H28.67zM106.218 293.042c8.484 0 12.778-8.167 12.778-18.119 0-9.997-4.505-18.168-12.778-18.168s-12.778 8.17-12.778 18.168c0 9.952 4.297 18.119 12.778 18.119m0 9.066c-14.453 0-21.678-12.21-21.678-27.185 0-14.972 7.591-27.227 21.678-27.227s21.678 12.255 21.678 27.227c0 14.976-7.225 27.185-21.678 27.185M143.238 248.744h25.185c9.374 0 15.868 7.539 15.868 15.603 0 5.341-3.457 12.2-9.06 14.609l9.741 22.15h-9.74l-9.32-20.475h-13.72v20.475h-8.954zm8.954 8.953v14.034h16.231c3.613 0 6.809-3.299 6.809-6.964 0-2.463-2.043-7.07-6.809-7.07zM200.31 248.744h8.8v23.46l18.375-23.46h11.416l-13.405 17.332 17.332 35.03h-9.896l-13.458-27.178-10.365 12.566v14.612h-8.798z" style="fill:#000;fill-opacity:1;fill-rule:evenodd;stroke:none"/>
</svg>
