<svg xmlns="http://www.w3.org/2000/svg" viewBox="0 0 600 600" role="img" aria-labelledby="title">
  <title id="title">Verkehrszeichen T1-SA109-SA - Speed Limit Changed (used in SA)</title>
  <path d="M0-303h600v600H0z" style="opacity:1;fill:#000;fill-opacity:1;fill-rule:nonzero;stroke:none;stroke-width:38.57502365;stroke-linecap:square;stroke-linejoin:round;stroke-miterlimit:4;stroke-dasharray:none;stroke-dashoffset:0;stroke-opacity:1" transform="translate(0 303)"/>
  <path d="M10-293h580v580H10z" style="opacity:1;fill:#ffe112;fill-opacity:1;fill-rule:nonzero;stroke:none;stroke-width:37.2891922;stroke-linecap:square;stroke-linejoin:round;stroke-miterlimit:4;stroke-dasharray:none;stroke-dashoffset:0;stroke-opacity:1" transform="translate(0 303)"/>
  <g aria-label="SPEED" style="font-style:normal;font-variant:normal;font-weight:400;font-stretch:normal;font-size:144.09222412px;line-height:0;font-family:&quot;Roadgeek 2005 Series C&quot;;-inkscape-font-specification:&quot;Roadgeek 2005 Series C&quot;;letter-spacing:4.66195822px;word-spacing:0;fill:#000;fill-opacity:1;stroke:none;stroke-width:3.60230541">
    <path d="M155.094-198.861q0 5.908-2.16 11.095-2.018 5.043-5.765 8.79-3.602 3.746-8.501 6.052-4.755 2.16-10.375 2.16-6.34 0-11.383-2.449-5.043-2.45-8.501-6.628-3.459-4.179-5.332-9.654-1.873-5.476-1.873-11.383h13.545q0 3.026.72 6.051.865 2.882 2.45 5.332 1.729 2.305 4.178 3.746 2.594 1.441 6.196 1.441 2.738 0 5.188-1.153 2.593-1.152 4.322-3.17 1.874-2.017 2.882-4.61 1.153-2.738 1.153-5.62 0-4.179-1.73-7.349-1.728-3.314-6.051-6.628-.72-.72-.576-.72.144-.145-.865-.865t-4.323-2.738q-3.17-2.161-10.518-7.204-5.908-4.035-8.934-9.366-2.882-5.476-2.882-11.96 0-5.187 1.873-9.654 1.873-4.611 5.188-8.07 3.458-3.458 7.925-5.33 4.466-2.018 9.654-2.018t9.51 1.873q4.467 1.873 7.637 5.187 3.314 3.315 5.187 7.925 2.017 4.611 2.161 10.087h-13.256q-.288-5.043-3.458-8.07-3.17-3.025-7.781-3.025-4.755 0-8.07 3.17-3.313 3.17-3.313 7.925 0 3.602 1.873 6.052t7.204 5.475q13.977 8.07 20.317 16.427 6.484 8.357 6.484 18.876M230.091-241.945q0 13.257-6.628 20.173-6.484 6.917-18.732 6.917h-14.985v42.363h-13.833v-96.542h28.818q5.62 0 10.23 2.017 4.756 1.873 8.07 5.476 3.458 3.458 5.187 8.501 1.873 5.043 1.873 11.095m-13.544 0q0-6.052-3.458-9.798t-9.078-3.746h-14.265v27.377h14.265q6.052 0 9.222-3.602 3.314-3.602 3.314-10.23M248.118-172.492v-96.542h45.389v13.545h-31.556v24.351h20.029v13.257h-20.03v31.844h35.303v13.545zM318.072-172.492v-96.542h45.389v13.545h-31.556v24.351h20.028v13.257h-20.028v31.844h35.302v13.545zM442.204-220.907q0 33.141-13.833 43.948-2.593 2.45-6.052 3.458t-7.492 1.009h-26.802v-96.542h24.64q6.196 0 9.654.865 3.459.864 6.052 2.881 4.323 3.026 7.205 8.502 3.026 5.475 4.323 12.824 1.008 5.331 1.585 11.383.72 6.052.72 11.672m-13.545.72q0-8.213-.72-15.274-.72-7.204-2.017-10.23-3.314-9.798-12.536-9.798h-11.528v69.452h11.528q3.026 0 5.331-1.153 2.45-1.152 4.179-3.026t2.738-4.322q1.152-2.594 1.729-5.332.432-4.61.864-9.654.432-5.187.432-10.663" style="font-style:normal;font-variant:normal;font-weight:400;font-stretch:normal;line-height:0;font-family:&quot;Roadgeek 2005 Series C&quot;;-inkscape-font-specification:&quot;Roadgeek 2005 Series C&quot;;letter-spacing:4.66195822px;fill:#000;stroke:none;stroke-width:3.60230541" transform="translate(27.796 345.763)"/>
  </g>
  <g aria-label="LIMIT" style="font-style:normal;font-variant:normal;font-weight:400;font-stretch:normal;font-size:149.2537384px;line-height:0;font-family:&quot;Roadgeek 2005 Series C&quot;;-inkscape-font-specification:&quot;Roadgeek 2005 Series C&quot;;letter-spacing:0;word-spacing:0;fill:#000;fill-opacity:1;stroke:none;stroke-width:3.73134327">
    <path d="M166 47V-53h14.328v86.716h36.568V47ZM230.962 47V-53h14.03V47ZM318.557 47V-9.12L300.05 47 281.393-9.12V47h-14.329V-53h14.329L300.05 3.12 318.557-53h14.478V47ZM354.763 47V-53h14.03V47ZM415.79-39.716V47h-14.477v-86.716h-18.209V-53H434v13.284z" style="font-style:normal;font-variant:normal;font-weight:400;font-stretch:normal;line-height:0;font-family:&quot;Roadgeek 2005 Series C&quot;;-inkscape-font-specification:&quot;Roadgeek 2005 Series C&quot;;letter-spacing:-.04497917px;fill:#000;stroke:none;stroke-width:3.73134327" transform="translate(0 303)"/>
    <g aria-label="CHANGED" style="font-style:normal;font-variant:normal;font-weight:400;font-stretch:normal;font-size:144.09222412px;line-height:0;font-family:&quot;Roadgeek 2005 Series C&quot;;-inkscape-font-specification:&quot;Roadgeek 2005 Series C&quot;;letter-spacing:0;word-spacing:0;fill:#000;fill-opacity:1;stroke:none;stroke-width:13.44143867">
      <path d="M90.058 149.522q-2.162-13.977-11.528-13.977-4.178 0-7.204 1.873-2.882 1.729-4.755 5.764-1.73 3.89-2.594 10.374-.72 6.484-.72 15.85 0 20.894 3.746 29.972 3.89 9.077 12.824 9.077 3.026 0 4.9-1.152 2.017-1.153 3.17-3.026 1.296-2.018 1.728-4.467.433-2.594.433-5.332h13.832q-.144 6.052-2.017 11.095t-5.043 8.79q-3.17 3.602-7.637 5.62Q84.87 222 79.827 222q-15.562 0-22.766-12.68Q50 196.64 50 169.839q0-23.632 7.205-35.735Q64.409 122 78.818 122q5.908 0 10.807 2.594 4.9 2.45 8.214 7.204 2.737 3.603 4.034 7.349t2.017 10.375zM166.559 220.27v-43.66h-26.513v43.66h-13.833v-96.54h13.833v39.336h26.513V123.73h13.832v96.542zM244.706 220.27l-6.773-26.368h-20.749l-6.34 26.369h-13.977l24.063-96.542h13.545l24.063 96.542zm-17.291-67.722-6.773 27.81h13.833zM318.563 220.27l-29.827-64.697v64.698h-13.833v-96.542h13.833l26.513 57.925V123.73h13.833v96.542zM405.207 193.47q0 5.043-.576 8.501-.577 3.458-2.162 6.484-2.882 6.34-8.501 9.943Q388.492 222 381.144 222q-8.646 0-14.986-4.179-6.196-4.178-9.798-12.392-2.306-5.475-3.747-14.553-1.297-9.222-1.297-18.732 0-10.23.865-17.867 1.009-7.781 3.602-14.698 1.297-3.746 3.603-6.916 2.45-3.314 5.62-5.62 3.17-2.45 7.06-3.746 3.89-1.297 8.069-1.297 5.187 0 9.654 1.873 4.467 1.73 7.781 5.043 3.314 3.17 5.332 7.781 2.017 4.467 2.305 9.799h-13.833q-.288-4.9-3.458-7.925-3.026-3.026-8.07-3.026-7.204 0-10.95 7.204-2.018 3.603-3.17 11.095-1.153 7.35-1.153 15.995 0 6.051.432 12.247.577 6.196 1.585 11.816 1.585 7.06 5.043 10.807 3.603 3.746 9.222 3.746 10.52 0 10.52-14.985v-6.34h-10.952v-13.545h24.784zM427.53 220.27v-96.54h45.388v13.544h-31.556v24.351h20.029v13.257h-20.029v31.844h35.303v13.545zM550 171.856q0 33.141-13.833 43.948-2.593 2.45-6.052 3.458t-7.492 1.009H495.82v-96.542h24.64q6.196 0 9.654.865 3.459.864 6.052 2.881 4.323 3.026 7.205 8.502 3.026 5.475 4.323 12.824 1.008 5.332 1.585 11.383.72 6.052.72 11.672m-13.545.72q0-8.213-.72-15.273-.72-7.205-2.017-10.231-3.314-9.798-12.536-9.798h-11.528v69.452h11.528q3.026 0 5.331-1.153 2.45-1.152 4.179-3.025 1.729-1.874 2.737-4.323 1.153-2.594 1.73-5.332.432-4.61.864-9.654.432-5.187.432-10.663" style="font-style:normal;font-variant:normal;font-weight:400;font-stretch:normal;line-height:0;font-family:&quot;Roadgeek 2005 Series C&quot;;-inkscape-font-specification:&quot;Roadgeek 2005 Series C&quot;;letter-spacing:3.00037503px;fill:#000;stroke:none;stroke-width:13.44143867" transform="translate(0 303)"/>
    </g>
  </g>
</svg>
