<svg xmlns="http://www.w3.org/2000/svg" viewBox="0 0 348.904 116.17" role="img" aria-labelledby="title">
  <title id="title">Verkehrszeichen T2-16 - End Roadwork</title>
  <path d="M0 116.17h348.904V0H0z" style="fill:#000;fill-opacity:1;fill-rule:nonzero;stroke:none"/>
  <path d="M4.97 111.393h339.013V4.82H4.971z" style="fill:#fee011;fill-opacity:1;fill-rule:nonzero;stroke:none"/>
  <path d="M127.59 19.233h22.22v5.36h-16.912v6.44h9.342v5.409h-9.342v8.456H150.4v5.359h-22.81zM159.84 19.233h4.868l14.454 20.5v-20.5h5.408v31.024h-4.868l-14.454-21.043v21.043h-5.408zM196.367 19.233h10.079c9.045 0 14.65 7.571 14.65 15.685 0 7.719-5.605 15.339-13.864 15.339h-10.865zm5.358 25.665h5.804c5.26 0 8.308-5.26 8.308-10.079 0-4.378-3.295-10.227-8.308-10.227h-5.804zM40.901 65.75h14.947c4.717 0 9.045 4.474 9.045 9.243 0 3.147-1.573 7.769-5.065 8.654l5.803 13.127h-5.803l-5.553-12.097H46.16v12.097h-5.26zm5.26 5.36v8.209h9.687c2.064 0 3.98-1.916 3.98-4.079 0-1.474-2.406-4.13-3.98-4.13zM84.952 96.774c-8.505 0-12.78-6.981-12.78-15.487 0-8.555 3.979-15.536 12.83-15.536 8.847 0 12.83 6.981 12.83 15.536 0 8.506-4.423 15.487-12.88 15.487m.05-5.26c4.963 0 7.57-4.621 7.57-10.227 0-5.655-2.36-10.276-7.57-10.276s-7.57 4.621-7.57 10.276c0 5.606 2.553 10.227 7.57 10.227M116.515 65.75h5.754l12.979 31.024h-5.951l-3.048-7.475h-13.272l-3.002 7.475h-5.75zm-1.277 18.437h8.75l-4.523-10.964zM144.194 65.75h10.08c9.045 0 14.65 7.571 14.65 15.685 0 7.719-5.605 15.339-13.864 15.339h-10.866zm5.36 25.665h5.802c5.26 0 8.308-5.26 8.308-10.079 0-4.378-3.295-10.227-8.308-10.227h-5.803zM175.267 65.75h5.31l3.541 18.733 4.622-18.732h5.408l4.716 18.926 3.592-18.926h5.309l-5.606 31.023h-5.75l-4.868-19.47-4.82 19.47h-5.848zM226.89 96.774c-8.506 0-12.782-6.981-12.782-15.487 0-8.555 3.98-15.536 12.83-15.536 8.848 0 12.831 6.981 12.831 15.536 0 8.506-4.424 15.487-12.88 15.487m.048-5.26c4.964 0 7.571-4.621 7.571-10.227 0-5.655-2.36-10.276-7.57-10.276s-7.571 4.621-7.571 10.276c0 5.606 2.554 10.227 7.57 10.227M248.913 65.75h14.947c4.717 0 9.045 4.474 9.045 9.243 0 3.147-1.573 7.769-5.065 8.654l5.803 13.127h-5.803l-5.553-12.097h-8.114v12.097h-5.26zm5.26 5.36v8.209h9.687c2.064 0 3.98-1.916 3.98-4.079 0-1.474-2.406-4.13-3.98-4.13zM282.737 65.75h5.063v13.815l11.063-13.814h6.833l-7.817 10.227 10.078 20.796h-5.8l-8.113-16.175-6.244 7.472v8.703h-5.063z" style="fill:#000;fill-opacity:1;fill-rule:evenodd;stroke:none"/>
</svg>
