<svg xmlns="http://www.w3.org/2000/svg" viewBox="0 0 123.391 41.095" role="img" aria-labelledby="title">
  <title id="title">Verkehrszeichen T1-16 - Roadwork 1&amp;nbsp;km ahead</title>
  <path d="M0 41.095h123.391V0H0z" style="fill:#000;fill-opacity:1;fill-rule:nonzero;stroke:none"/>
  <path d="M1.636 39.388h119.998V1.704H1.636z" style="fill:#fee011;fill-opacity:1;fill-rule:nonzero;stroke:none"/>
  <path d="M54.563 23.266h2.033l4.59 10.97h-2.103l-1.078-2.642h-4.694l-1.061 2.642h-2.034zm-.453 6.519h3.095l-1.6-3.876zM64.35 23.266h1.86v4.277h4.99v-4.277h1.894v10.97H71.2v-4.885h-4.99v4.885h-1.86zM77.266 23.266h7.858v1.895h-5.98v2.278h3.302v1.912h-3.302v2.99h6.189v1.895h-8.067zM91.991 23.266h2.034l4.59 10.97h-2.104l-1.077-2.642H90.74l-1.061 2.642h-2.034zm-.452 6.519h3.095l-1.6-3.876zM101.779 23.266h3.564c3.198 0 5.18 2.678 5.18 5.545 0 2.73-1.982 5.425-4.902 5.425h-3.842zm1.895 9.075h2.051c1.86 0 2.938-1.86 2.938-3.563 0-1.548-1.164-3.617-2.938-3.617h-2.051zM13.994 34.236V25.98h-1.269v-1.53c.678 0 1.408-.522 1.634-1.183h1.634v10.97zM21.498 34.236v-8.883l1.807-.696V29.3l1.86-2.243h2.278l-2 2.434 1.948 4.746h-1.947l-1.251-3.285-.888 1.216v2.07zM30.363 34.236v-7.18h1.807v.453c.418-.262 1.288-.453 1.739-.453.8 0 1.409.226 1.86.853.296-.47 1.477-.853 2.139-.853h.156c1.13.156 2.504 1.183 2.504 2.33v4.85H38.69V29.89c0-.625-.505-1.13-1.217-1.13-.887 0-1.183.4-1.183 1.252v4.224h-1.669v-4.223c0-.627-.468-1.374-1.233-1.374-.748 0-1.218.521-1.218 1.251v4.346zM14.395 6.488h5.285c1.669 0 3.199 1.582 3.199 3.268 0 1.113-.556 2.746-1.791 3.059l2.05 4.643h-2.05l-1.964-4.278h-2.869v4.278h-1.86zm1.86 1.894v2.903h3.425c.73 0 1.408-.677 1.408-1.442 0-.522-.852-1.46-1.408-1.46zM29.971 17.456c-3.007 0-4.52-2.468-4.52-5.476 0-3.025 1.409-5.494 4.538-5.494s4.537 2.469 4.537 5.494c0 3.008-1.565 5.476-4.555 5.476m.018-1.86c1.756 0 2.677-1.633 2.677-3.616 0-1.999-.835-3.632-2.677-3.632S27.31 9.98 27.31 11.98c0 1.983.904 3.616 2.678 3.616M41.133 6.488h2.033l4.59 10.97h-2.103l-1.078-2.643h-4.694l-1.061 2.643h-2.034zm-.453 6.518h3.095l-1.6-3.876zM50.92 6.488h3.564c3.199 0 5.18 2.677 5.18 5.544 0 2.73-1.981 5.425-4.901 5.425H50.92zm1.895 9.074h2.051c1.86 0 2.938-1.86 2.938-3.563 0-1.548-1.164-3.617-2.938-3.617h-2.051zM61.906 6.488h1.878l1.251 6.623 1.635-6.624h1.911l1.67 6.693 1.269-6.692h1.878l-1.983 10.97h-2.034l-1.721-6.885-1.704 6.884h-2.068zM80.16 17.456c-3.007 0-4.52-2.468-4.52-5.476 0-3.025 1.409-5.494 4.538-5.494 3.128 0 4.537 2.469 4.537 5.494 0 3.008-1.565 5.476-4.555 5.476m.018-1.86c1.756 0 2.677-1.633 2.677-3.616 0-1.999-.835-3.632-2.677-3.632S77.5 9.98 77.5 11.98c0 1.983.904 3.616 2.678 3.616M87.948 6.488h5.285c1.668 0 3.198 1.582 3.198 3.268 0 1.113-.556 2.746-1.791 3.059l2.051 4.643H94.64l-1.964-4.278h-2.868v4.278h-1.86zm1.86 1.894v2.903h3.425c.73 0 1.407-.677 1.407-1.442 0-.522-.851-1.46-1.407-1.46zM99.909 6.488h1.79v4.884l3.912-4.885h2.416l-2.764 3.617 3.563 7.353h-2.051l-2.867-5.72-2.21 2.643v3.077h-1.79z" style="fill:#000;fill-opacity:1;fill-rule:evenodd;stroke:none"/>
</svg>
