<svg xmlns="http://www.w3.org/2000/svg" viewBox="0 0 348.019 260.918" role="img" aria-labelledby="title">
  <title id="title">Verkehrszeichen T2-6-1 - Lane Status</title>
  <path d="M0 260.918h348.019V0H0z" style="fill:#000;fill-opacity:1;fill-rule:nonzero;stroke:none"/>
  <path d="M7.225 254.215h333.428V6.858H7.225z" style="fill:#fee011;fill-opacity:1;fill-rule:nonzero;stroke:none"/>
  <path d="m261.807 217.445-3.171-119.443 19.014 3.471c1.986.367 3.458-1.404 3.458-3.171 0-.667-.216-1.334-.438-1.7L252.3 45.613c-.512-1.034-1.616-2.067-2.95-2.067-1.245 0-2.353 1.033-2.875 2.067l-28.367 50.987c-.215.367-.44 1.034-.44 1.7 0 1.768 1.474 3.539 3.467 3.172l19.008-3.471-3.164 119.443zM66.837 107.213h104.408V72.437H66.837zm39.79 110.232h24.9v-87.02h-24.9z" style="fill:#000;fill-opacity:1;fill-rule:evenodd;stroke:none"/>
</svg>
