<svg xmlns="http://www.w3.org/2000/svg" viewBox="0 0 348.957 174.304" role="img" aria-labelledby="title">
  <title id="title">Verkehrszeichen T2-6-2 - Lane Status</title>
  <path d="M0 174.304h348.957V0H0z" style="fill:#000;fill-opacity:1;fill-rule:nonzero;stroke:none"/>
  <path d="M4.819 169.827h339.263V4.583H4.819z" style="fill:#fee011;fill-opacity:1;fill-rule:nonzero;stroke:none"/>
  <path d="m274.821 145.263-2.113-79.791 12.696 2.318c1.334.243 2.318-.939 2.318-2.12a2.5 2.5 0 0 0-.293-1.136l-18.95-34.061c-.35-.692-1.091-1.383-1.973-1.383-.84 0-1.577.691-1.92 1.383l-18.95 34.06c-.152.248-.297.692-.297 1.137 0 1.181.985 2.363 2.311 2.12l12.704-2.318-2.12 79.791zm-83.333 0-2.12-79.791 12.703 2.318c1.327.243 2.31-.939 2.31-2.12 0-.445-.144-.89-.295-1.136l-18.952-34.061c-.342-.692-1.08-1.383-1.968-1.383-.833 0-1.574.691-1.92 1.383l-18.954 34.06a2.5 2.5 0 0 0-.293 1.137c0 1.181.984 2.363 2.31 2.12l12.704-2.318-2.12 79.791zM61.238 71.624h69.748V48.393H61.24zm26.583 73.64h16.633V87.128H87.821z" style="fill:#000;fill-opacity:1;fill-rule:evenodd;stroke:none"/>
</svg>
