<svg xmlns="http://www.w3.org/2000/svg" viewBox="0 0 123.597 82.375" role="img" aria-labelledby="title">
  <title id="title">Verkehrszeichen T1-5 - Workers Ahead</title>
  <path d="M0 82.375h123.597V0H0z" style="fill:#000;fill-opacity:1;fill-rule:nonzero;stroke:none"/>
  <path d="M3.418 78.956h116.657V3.418H3.418z" style="fill:#f39100;fill-opacity:1;fill-rule:nonzero;stroke:none"/>
  <path d="M59.287 19.53c3.07 0 5.58-2.476 5.58-5.545 0-3.104-2.51-5.615-5.58-5.615a5.61 5.61 0 0 0-5.615 5.615c0 3.069 2.512 5.545 5.615 5.545M35.26 26.749 47.08 16.183h5.196c.56.87 1.5 1.952 3.034 2.51.21 2.162 1.186 3.627 2.686 5.23L55.66 44.64l-.906.384-.523 3.592-1.954-1.291V34.631l-7.323 8.928 15.171 11.09 1.43-2.128 3.069 2.338c2.65-1.954 4.847-4.639 7.881-5.894 1.884-.802 4.22-.802 6.104 0 3.242 1.395 5.997 3.905 8.683 6.278 1.082.87 1.43 2.37 2.407 3.382 2.197 2.266 4.777 4.15 7.148 6.243.698.627 1.954 1.046 2.163 1.952.349 1.814 1.081 4.325 1.186 5.406H50.812c2.407-5.231 4.5-8.823 9.522-13.043l-2.128-1.64 1.011-1.952L46 45.895l2.197 11.265-1.325 15.066h-4.987l.384-13.741-1.954-6.87-3.104 7.568L27.9 72.749l-3.209-2.65 7.359-13.636.907-12.694 2.824-4.988-4.637-3.208.906-1.5 3.557 3.278zm3.557 1.256 3.626-1.256-3.242 6.104z" style="fill:#000;fill-opacity:1;fill-rule:evenodd;stroke:none"/>
</svg>
