<svg xmlns="http://www.w3.org/2000/svg" xmlns:xlink="http://www.w3.org/1999/xlink" viewBox="0 0 1202 2077" role="img" aria-labelledby="title">
  <title id="title">Verkehrszeichen W5-V122-VIC - Fire Station (Prepare to Stop) (used in VIC)</title>
  <defs>
    <radialGradient xlink:href="#a" id="b" cx="566.211" cy="566.968" r="100" fx="566.211" fy="566.968" gradientTransform="translate(-360.211 -2889.968)" gradientUnits="userSpaceOnUse"/>
    <radialGradient xlink:href="#a" id="c" cx="566.211" cy="566.968" r="100" fx="566.211" fy="566.968" gradientTransform="translate(429.789 -2889.968)" gradientUnits="userSpaceOnUse"/>
    <linearGradient id="a">
      <stop offset="0" style="stop-color:#fe3;stop-opacity:1"/>
      <stop offset="1" style="stop-color:#d98e26;stop-opacity:1"/>
    </linearGradient>
  </defs>
  <g transform="translate(0 2554)">
    <rect width="1200" height="2075" x="1" y="-2553" rx="100" ry="100" style="fill:#fddc04;fill-opacity:1;fill-rule:evenodd;stroke:none;stroke-width:.522353;stroke-linecap:round;stroke-linejoin:round"/>
    <rect width="1170" height="430" x="16" y="-2538" rx="85" ry="85" style="fill:#000;fill-opacity:1;fill-rule:evenodd;stroke:none;stroke-width:.570241;stroke-linecap:round;stroke-linejoin:round"/>
    <rect width="900" height="450" x="151" y="-988" rx="50" ry="50" style="fill:#ed1c24;fill-opacity:1;fill-rule:evenodd;stroke:none;stroke-width:.410281;stroke-linecap:round;stroke-linejoin:round"/>
    <rect width="730" height="730" x="1154.572" y="-1034.63" rx="40" ry="40" style="fill:#000;fill-rule:evenodd;stroke:none;stroke-width:5.52669;stroke-linecap:round;stroke-linejoin:round" transform="rotate(-45)"/>
    <rect width="690" height="690" x="1174.572" y="-1014.63" rx="20" ry="20" style="fill:#fddc04;fill-opacity:1;fill-rule:evenodd;stroke:none;stroke-width:5.22386;stroke-linecap:round;stroke-linejoin:round" transform="rotate(-45)"/>
    <path d="M514.074-1726.164h-43.88v30.269h24v16.477h-24V-1623H453v-120h61.074zM556.106-1623H539.27v-120h16.836zM658.316-1623h-17.73l-15.941-56.418h-16.478V-1623h-17.194v-120h35.821q14.15 0 22.746 8.776 8.776 8.776 8.776 23.284 0 22.567-17.373 29.015zm-16.835-87.94q0-6.985-4.299-11.104-4.298-4.12-11.283-4.12h-17.732v30.269H625.9q15.582 0 15.582-15.045M748-1623h-61.074v-120h56.418v16.836H704.12v30.269h24.895v16.477H704.12v39.582H748z" style="font-size:179.104px;line-height:1.25;font-family:&quot;Roadgeek 2000 Series C&quot;;-inkscape-font-specification:&quot;Roadgeek 2000 Series C&quot;;text-align:center;letter-spacing:8.36px;text-anchor:middle;fill:#000;fill-rule:evenodd;stroke:none;stroke-width:.932836"/>
    <path d="M415.985-1460.775q0 14.507-9.85 24.716-9.672 10.21-23.463 10.21-15.224 0-24.717-11.285Q349-1447.88 349-1463.282h16.836q0 8.418 3.94 13.97 4.657 6.627 12.896 6.627 6.806 0 11.82-5.373 5.016-5.373 5.016-12.716 0-9.851-9.672-17.373 1.97 1.253-20.239-14.329-14.687-9.85-14.687-26.508 0-12.895 8.777-21.85 8.955-9.135 21.85-9.135 12.717 0 21.314 8.777 8.776 8.776 9.134 22.209h-16.477q-.359-6.09-4.299-9.851-3.761-3.94-9.672-3.94-5.91 0-10.209 3.94-4.12 3.94-4.12 9.85 0 4.478 2.33 7.523 2.507 3.045 9.134 6.806 17.373 10.209 25.253 20.597 8.06 10.388 8.06 23.284M486.745-1531.88h-21.851V-1428H447.52v-103.88H425.67V-1548h61.075zM569.327-1428h-17.373l-8.418-32.776h-25.612l-8.06 32.776H492.67l29.91-120h16.836zm-29.91-49.612-8.777-34.567-8.418 34.567zM636.325-1531.88h-21.851V-1428H597.1v-103.88H575.25V-1548h61.075zM668.4-1428h-16.835v-120H668.4zM761.906-1488.178q0 25.79-6.806 41.731-8.776 20.597-28.299 20.597-19.88 0-28.477-20.597-6.806-16.12-6.806-41.731 0-26.508 6.806-41.732 8.955-20.06 28.477-20.06 10.568 0 17.195 4.836 6.626 4.657 11.104 15.761 6.806 16.299 6.806 41.195m-16.478 0q0-16.478-3.76-29.91-4.3-15.046-14.867-15.046t-15.044 14.687q-3.762 12.358-3.762 30.627 0 16.657 3.762 30.448 4.12 14.686 15.044 14.686 10.568 0 15.404-16.836 3.223-11.462 3.223-28.656M852-1428h-13.075l-37.075-80.418V-1428h-17.194v-120h17.194l32.776 72v-72H852z" style="font-size:179.105px;line-height:1.25;font-family:&quot;Roadgeek 2000 Series C&quot;;-inkscape-font-specification:&quot;Roadgeek 2000 Series C&quot;;text-align:center;letter-spacing:-1.24px;text-anchor:middle;fill:#000;fill-rule:evenodd;stroke:none;stroke-width:.870193"/>
    <path d="M341.671-884.328q0 9.492-5.373 17.91-5.194 8.418-13.253 12-9.314 4.299-21.851 4.299h-22.209V-798H260v-120h41.194q13.79 0 21.85 3.94 8.06 3.762 13.254 12.359 5.373 8.418 5.373 17.373m-19.343 0q0-8.597-7.164-12.537-3.761-2.15-11.463-2.15h-24.716v29.552h24.716q7.165 0 11.463-2.149 7.164-3.582 7.164-12.716M441.254-798h-20.597l-19.343-52.12h-22.746V-798h-18.985v-120h39.582q13.253 0 21.313 3.94 8.06 3.762 13.075 12.18 5.194 8.418 5.194 17.552 0 9.492-5.194 18.09-5.194 8.417-13.433 12.178zm-21.492-86.328q0-10.03-10.03-13.791-2.508-.896-8.418-.896h-22.746v29.552h22.746q6.985 0 10.925-2.149 7.523-4.298 7.523-12.716M536.18-798h-74.507v-120h70.746v18.985h-51.761v29.552h34.925v19.344h-34.925v32.776h55.522zM638.271-884.328q0 9.492-5.373 17.91-5.194 8.418-13.253 12-9.314 4.299-21.851 4.299h-22.209V-798H556.6v-120h41.194q13.79 0 21.85 3.94 8.06 3.762 13.254 12.359 5.373 8.418 5.373 17.373m-19.343 0q0-8.597-7.164-12.537-3.761-2.15-11.463-2.15h-24.716v29.552h24.716q7.165 0 11.463-2.149 7.164-3.582 7.164-12.716M746.954-798h-20.06l-11.82-33.672H677.64L665.821-798h-20.24l41.194-120h18.985zm-38.686-53.015-11.82-33.671-12.18 33.671zM847.074-798h-20.597l-19.343-52.12h-22.746V-798h-18.985v-120h39.582q13.254 0 21.313 3.94 8.06 3.762 13.075 12.18 5.194 8.418 5.194 17.552 0 9.492-5.194 18.09-5.194 8.417-13.433 12.178zm-21.492-86.328q0-10.03-10.03-13.791-2.507-.896-8.418-.896h-22.746v29.552h22.746q6.985 0 10.925-2.149 7.523-4.298 7.523-12.716M942-798h-74.507v-120h70.746v18.985h-51.76v29.552h34.924v19.344h-34.925v32.776H942z" style="font-size:179.104px;line-height:1.25;font-family:&quot;Roadgeek 2000 Series D&quot;;-inkscape-font-specification:&quot;Roadgeek 2000 Series D&quot;;text-align:center;letter-spacing:.18px;text-anchor:middle;fill:#fff;fill-rule:evenodd;stroke:none;stroke-width:.932836"/>
    <path d="M355.15-711.165h-27.762V-608h-18.985v-103.165H281V-728h74.15zM456-667.82q0 33.492-14.329 50.328-10.209 11.642-27.76 11.642-23.822 0-34.39-21.493-8.417-17.194-8.417-40.477 0-30.985 13.075-48.717 9.85-13.433 30.627-13.433 22.567 0 33.313 21.314 7.88 16.12 7.88 40.836m-18.806 0q0-21.493-7.164-33.672-5.194-8.597-15.583-9.134-13.074-.717-19.343 14.686-4.657 11.463-4.657 28.12 0 21.492 7.165 33.313 5.552 9.314 16.298 9.314 12.537 0 18.627-15.224 4.657-11.642 4.657-27.403" style="font-size:179.105px;line-height:1.25;font-family:&quot;Roadgeek 2000 Series D&quot;;-inkscape-font-specification:&quot;Roadgeek 2000 Series D&quot;;text-align:center;letter-spacing:.73px;text-anchor:middle;fill:#fff;fill-rule:evenodd;stroke:none;stroke-width:.87019"/>
    <path d="M627.672-642.567q0 17.015-11.821 27.404-10.567 9.313-26.15 9.313-15.044 0-26.507-8.418-10.925-7.88-17.194-21.85l18.09-6.807q7.88 17.732 25.612 17.732 8.238 0 13.432-5.015t5.195-12.717q0-10.209-11.284-16.12-11.463-4.298-22.926-8.775-23.104-9.314-23.104-29.91 0-32.24 37.433-32.24 24.358 0 34.209 24.358l-16.836 5.015q-1.612-2.865-3.94-5.015-5.373-5.194-13.791-5.552-7.881-.179-12.896 2.687-6.269 3.761-5.731 11.283.716 8.597 15.94 13.612 22.388 7.523 27.582 10.926 14.687 9.85 14.687 30.09M711.503-711.164h-27.761V-608h-18.985v-103.164h-27.404V-728h74.15zM811.633-667.82q0 33.492-14.329 50.328-10.209 11.642-27.761 11.642-23.821 0-34.388-21.493-8.418-17.194-8.418-40.477 0-30.986 13.075-48.717 9.85-13.433 30.627-13.433 22.567 0 33.313 21.314 7.88 16.12 7.88 40.836m-18.806 0q0-21.493-7.165-33.672-5.194-8.597-15.582-9.134-13.074-.717-19.343 14.686-4.657 11.463-4.657 28.12 0 21.492 7.164 33.313 5.553 9.314 16.299 9.314 12.537 0 18.627-15.224 4.657-11.642 4.657-27.403M920-694.329q0 9.493-5.373 17.91-5.194 8.419-13.254 12-9.314 4.3-21.85 4.3h-22.21V-608h-18.985v-120h41.194q13.791 0 21.851 3.94 8.06 3.761 13.254 12.358Q920-703.284 920-694.329m-19.343 0q0-8.597-7.165-12.537-3.76-2.15-11.462-2.15h-24.717v29.553h24.717q7.164 0 11.462-2.15 7.165-3.581 7.165-12.716" style="font-size:179.105px;line-height:1.25;font-family:&quot;Roadgeek 2000 Series D&quot;;-inkscape-font-specification:&quot;Roadgeek 2000 Series D&quot;;text-align:center;letter-spacing:.01px;text-anchor:middle;fill:#fff;fill-rule:evenodd;stroke:none;stroke-width:.811748"/>
    <circle cx="206" cy="-2323" r="100" style="fill:url(#b);fill-opacity:1;fill-rule:evenodd;stroke:none;stroke-width:.50568;stroke-linecap:round;stroke-linejoin:round"/>
    <circle cx="996" cy="-2323" r="100" style="fill:url(#c);fill-opacity:1;fill-rule:evenodd;stroke:none;stroke-width:.50568;stroke-linecap:round;stroke-linejoin:round"/>
  </g>
</svg>
