<svg xmlns="http://www.w3.org/2000/svg" xml:space="preserve" viewBox="-1 0 122.004 122.011" role="img" aria-labelledby="title">
  <title id="title">Verkehrszeichen W4-4 - Divided Road</title>
  <path d="M200.801 160.661v46.224l-32.699 32.667h-46.188L89.25 206.885v-46.224l32.664-32.679h46.188z" style="fill:none;stroke:none" transform="translate(-150.677 235.77)scale(1.17193)"/>
  <path d="M119.207 65.204 64.183 120.3c-2.428 2.28-6.036 2.28-8.506 0L.769 65.204c-2.359-2.243-2.359-6.116 0-8.513L55.677 1.71c2.47-2.28 6.078-2.28 8.506 0l55.024 54.981c2.396 2.397 2.396 6.27 0 8.513" style="fill:#fee011;fill-opacity:1;fill-rule:evenodd;stroke:none"/>
  <path d="M118.52 64.138 63.313 119.35c-1.938 2.01-4.788 2.01-6.65 0L1.529 64.138c-1.9-1.71-1.9-4.75 0-6.497L56.663 2.47c1.862-1.826 4.712-1.826 6.65 0l55.207 55.171c1.753 1.747 1.753 4.787 0 6.497" style="fill:#000;fill-opacity:1;fill-rule:evenodd;stroke:none"/>
  <path d="M116.81 62.618 61.603 117.75c-.876.84-2.36.84-3.194 0L3.05 62.618c-.95-1.062-.95-2.392 0-3.34l55.36-55.14c.834-.95 2.318-.95 3.194 0l55.207 55.14c.913.948.913 2.278 0 3.34" style="fill:#fee011;fill-opacity:1;fill-rule:evenodd;stroke:none"/>
  <path d="M66.923 94.615V72.802c0-2.088.912-4.178 2.011-5.662l7.029-9.689c1.14-1.484 1.9-3.457 1.9-5.51V27.28H65.894v21.85c-.111 2.088-.644 3.99-1.631 5.472l-4.37 6.344-4.37-6.344c-.986-1.482-1.519-3.384-1.635-5.472v-21.85h-11.97V51.94c0 2.053.76 4.026 1.9 5.51l7.03 9.689c1.102 1.484 2.016 3.574 2.016 5.662v21.813z" style="fill:#000;fill-opacity:1;fill-rule:evenodd;stroke:none"/>
</svg>
