<svg xmlns="http://www.w3.org/2000/svg" xml:space="preserve" viewBox="-.451 -.943 122.612 81.761" role="img" aria-labelledby="title">
  <title id="title">Verkehrszeichen W8-17-2 - Distance (in metres 250)</title>
  <path d="M7.746-.943h106.21c4.522 0 8.206 3.684 8.206 8.205v65.359c0 4.514-3.684 8.197-8.206 8.197H7.747c-4.513 0-8.197-3.683-8.197-8.197V7.262c0-4.521 3.684-8.205 8.197-8.205" style="fill:#fee011;fill-opacity:1;fill-rule:evenodd;stroke:none"/>
  <path d="M7.746.722h106.21c3.634 0 6.598 2.956 6.598 6.59V72.62c0 3.635-2.964 6.59-6.597 6.59H7.747a6.597 6.597 0 0 1-6.59-6.59V7.312a6.597 6.597 0 0 1 6.59-6.59" style="fill:#000;fill-opacity:1;fill-rule:evenodd;stroke:none"/>
  <path d="M7.696 3.988h106.32a3.256 3.256 0 0 1 3.266 3.274v65.409a3.25 3.25 0 0 1-3.267 3.266H7.696a3.255 3.255 0 0 1-3.273-3.266V7.262a3.26 3.26 0 0 1 3.273-3.274" style="fill:#fee011;fill-opacity:1;fill-rule:evenodd;stroke:none"/>
  <path d="M20.986 14.372h3.374l9.345 13.498V14.372h3.581v20.454H34.12l-9.604-13.913v13.913h-3.53zM45.073 14.372H59.71v3.583H48.603v4.048h6.021v3.582h-6.021v5.658h11.525v3.583H45.073zM71.081 24.235l-5.917-9.864h4.049l3.997 6.437 3.945-6.437h4.309l-6.126 9.864 6.697 10.59H77.83l-4.62-7.32-4.569 7.32h-4.205zM85.616 14.372h15.056v3.323h-5.816v17.13h-3.53v-17.13h-5.71zM75.183 65.506V53.255h3.062v.675c.728-.415 2.233-.78 2.959-.78 1.402 0 2.492.416 3.271 1.455.883-1.09 2.751-1.454 3.841-1.454 2.18 0 4.257 2.232 4.257 4.101v8.254h-3.167V58.03c0-1.09-.83-1.869-2.076-1.869-1.35 0-2.025 1.038-2.025 2.128v7.216H82.45V58.29c0-1.09-.779-2.232-2.129-2.232-1.297 0-2.076 1.142-2.076 1.973v7.475z" style="fill:#000;fill-opacity:1;fill-rule:evenodd;stroke:none"/>
  <path d="M29.139 45.05h37.686v20.453H29.14z" style="fill:none;stroke:#000;stroke-width:.62250000000000005;stroke-linecap:butt;stroke-linejoin:miter;stroke-miterlimit:2.61299992;stroke-opacity:1;stroke-dasharray:3.11475006,3.11475006;stroke-dashoffset:0"/>
</svg>
