<svg xmlns="http://www.w3.org/2000/svg" viewBox="0 0 1021.33 1021.33" role="img" aria-labelledby="title">
  <title id="title">Verkehrszeichen W5-46 - Wild Horses Crossing</title>
  <g transform="translate(0 442.66)">
    <rect width="750" height="750" x="-61.992" y="34.181" rx="50" ry="50" style="fill:#fddc04;fill-opacity:1;fill-rule:evenodd;stroke:none;stroke-width:5.67811;stroke-linecap:round;stroke-linejoin:round" transform="rotate(-45)"/>
    <rect width="730" height="730" x="-51.992" y="44.181" rx="40" ry="40" style="fill:#000;fill-rule:evenodd;stroke:none;stroke-width:5.52669;stroke-linecap:round;stroke-linejoin:round" transform="rotate(-45)"/>
    <rect width="690" height="690" x="-31.992" y="64.181" rx="20" ry="20" style="fill:#fddc04;fill-opacity:1;fill-rule:evenodd;stroke:none;stroke-width:5.22386;stroke-linecap:round;stroke-linejoin:round" transform="rotate(-45)"/>
    <path d="M701.93 143.82h-.782c-.784-1.175-1.567-1.958-2.35-2.738-.391 0-6.262-6.262-6.262-6.653-5.09-5.087-7.828-10.957-12.918-16.048-8.22-9.783-18.398-21.523-23.88-27.002-1.563-1.174-3.129-2.737-4.695-4.304-1.958-2.74-4.308-4.304-4.308-7.828 12.136 0 29.753 2.35 44.235 4.304 1.175.395 8.22 6.654 9.394 14.482 5.091 11.74 7.045 34.438 1.567 45.787M802.925-60.464c-3.133-9.39-20.355-16.436-20.355-27.002v-.391c-3.133-10.174-5.087-16.045-7.437-25.44-.391-1.174-.783-1.953-1.566-2.737-7.045-3.912-19.572-19.177-23.488-26.222 0-4.695-.392-10.174-.392-14.87 0-4.303-1.563-6.261-1.563-10.174 0-1.957-.783-4.695-2.349-4.695h-1.958c-1.566.783-1.566 1.563-1.566 1.954-.783 5.87-5.09 12.524-8.612 18.394-.391.392-1.174.392-1.958.392-11.352-2.738-28.966-3.912-43.06-3.912-1.957 0-11.743.78-20.355 5.87-11.352 6.653-25.442 10.174-31.707 12.912-7.829 1.957-15.265 1.566-23.097 2.349-2.737 0-5.87 0-7.436.783v.783c3.916 1.175 9.786 4.304 12.527 7.045.391 1.955-.783 3.913-1.958 4.304-6.262 1.955-21.922-1.958-21.922-1.174-1.17 5.478 12.527 7.436 10.961 9.39-2.737 1.175-5.87 1.567-7.045 4.308-8.22 1.954-18.006 1.171-28.575 1.171-.391 0-1.175 0-1.175.392 2.35.783 4.7 3.524 7.045 4.699 1.567 1.171 5.483 3.129 7.828 3.912 3.133 6.262.396 6.262-2.737 6.653h-21.922q-1.174.001-1.174 1.172v.391c0 4.308 4.307 5.87 7.045 7.828 0 .392 0 .784-.392 1.175-17.614 12.915-36.012 19.177-52.063 26.219-14.873 4.304-18.397 2.74-28.575 3.524h-3.916c-15.264 0-39.927-4.695-48.93-7.045-16.831-1.958-26.617-6.262-47.755-5.087-14.485.783-38.753 4.304-53.238 12.524-7.437 3.52-18.006 12.132-23.096 18.002-1.175 0-1.563-.392-2.346-.783-30.533-14.482-32.883-14.09-53.63-14.09-16.834 0-42.277 18.002-50.888 33.655-5.482 8.22-12.135 18.002-18.397 27.393-4.308 8.612-7.832 14.09-14.485 21.918-1.958 2.738-3.524 3.913-5.87 6.262-2.35 2.346-11.353 9.391-15.269 9.391-16.047 3.133-35.14-.73-48.45-2.688-1.175 0-.783 0-1.958.392 0 9.39 12.439 14.428 22.225 17.17 20.532 6.268 47.755 1.954 54.8-.784 5.483-2.74 11.744-5.87 16.052-10.174 17.614-14.09 52.846-44.224 59.108-47.745.783-.783 2.74-2.35 3.916-3.524 8.22-5.479 23.875-22.307 34.057-17.22 0 12.133-7.049 19.96-7.049 37.571v9.391c0 15.657 9.003 24.265 9.003 34.439-1.566 1.958-2.35 3.916-4.304 5.87-6.265 6.262-9.786 15.265-10.96 18.002-1.959 3.521-3.916 5.87-5.874 9.391-3.521 6.262-18.398 18.003-27.009 22.31-1.566.392-3.524 1.563-3.524 2.738 0 4.303 3.132 11.348 3.132 16.436 0 5.87-7.045 28.96-11.744 38.354h-.391v1.954c-10.57 10.178-21.53 10.178-27.792 14.09.392 9 2.35 26.219 8.22 37.571 1.174 0 2.35.78 3.524.78 4.695-4.304 6.262-5.87 16.44-16.045 1.957-2.35 7.828-7.828 7.828-11.349 0-2.74 2.349-9.003 3.915-13.306 3.525-7.433 9.003-14.87 12.528-18.394 3.912-5.87 9.002-11.35 12.132-21.132 6.265-11.349 16.442-21.131 25.054-34.438 8.22-7.045 21.138-28.177 30.533-26.219 5.482 0 8.611 3.521 12.527 5.479 9.786 5.87 11.744 13.303 11.744 23.481 0 12.132-.392 23.09-1.175 33.655-.392 6.654-3.133 14.087-3.133 21.132 5.09 3.52 11.353 7.436 15.66 10.957 2.35 1.958 3.912 6.262 6.654 9.003 1.174 2.737 2.74 5.87 4.307 9 1.175 3.912 1.563 7.436 4.304 10.957.783 1.566 2.74 4.303 3.916 5.478.391.392.391.783.783 1.958 2.737 2.738 4.695 5.479 7.828 8.22.392-.392.392 17.219.392 18.782v.783h.783c11.744-1.175 24.267-4.695 34.836-6.653q1.175.002 1.175-1.172c0-.783-4.695-5.87-5.87-6.653-4.699-4.699-10.96-10.178-16.831-12.915-1.566-.783-5.09-3.525-5.874-5.087-1.566-3.133-7.436-10.57-9.003-15.265-4.304-15.653-7.828-36.393-8.22-36.393 0-9.786-.39-18.785.392-27.785 0-4.307 1.175-9.786 3.13-14.873 1.957-3.912 4.307-9 5.09-14.09 1.958-9 2.35-19.957 7.828-24.26 1.175-1.958 4.7-3.525 6.265-4.308 3.913-1.563 11.35-3.129 18.006 0 21.53 10.178 63.807 20.744 93.557 17.614 41.885-4.699 59.108-17.614 86.508-17.614 1.175 1.175 2.35 2.741 3.133 4.308.783.783 1.566 1.954 2.349 3.129 4.307 5.478 7.828 9.394 12.527 15.656 20.355 22.698 46.19 37.96 73.202 54.395 0 3.912 1.954 9 1.954 12.524 0 1.174 0 1.174.391 1.958 2.35 0 4.308-2.35 5.874-3.916 1.567-.783 2.346-.783 3.52-.783.393.783 5.875 8.61 12.92 15.264 11.352 10.566 24.662 27.002 27.008 39.526 0 7.436-5.87 14.09-5.87 21.523 10.57 0 31.708-7.042 34.449-7.825v-3.133c-.783 0-3.133-8.22-7.832-16.044-7.045-11.74-13.698-29.351-13.698-29.743-.392 0-7.832-14.87-29.75-29.743v-1.957c.783-.389 1.175-.78 1.566-1.172 1.172-1.958 5.087-6.653 7.045-11.74.392-.783 1.175-4.308 1.958-6.654 3.13-23.089-.391-52.832-13.702-73.572-4.699-5.87-14.485-10.174-18.005-11.74-10.178-3.133-37.582-7.045-43.452-16.436-2.35-36.396 3.133-61.444 24.271-89.62 4.304-3.524 9.003-6.262 13.698-9.395 1.175-.78 7.049-3.129 7.44-3.52 1.175-.392 2.347-1.175 3.13-1.175 2.74-.392 9.786 8.22 10.177 8.611 2.35 2.738 7.44 4.304 9.003 5.087 4.7 2.35 14.485 2.738 21.139 3.13h5.09c1.175 0 3.913 1.957 5.087 2.74 1.567 1.563 12.527 7.046 16.835 7.829 1.566 0 4.695 1.17 5.087 1.954.391.392.391 3.133.391 5.087 1.175.392 1.567 2.35 2.35 3.524 1.566 1.563 10.178 6.654 12.135 6.654 1.958 0 3.913-.783 4.304-2.35.784 0 2.741-2.35 3.525-2.74 1.958-1.176 6.653-4.696 8.61-6.65 1.959-1.959 2.742-3.916 2.742-5.091v-6.259c0-7.045-1.175-10.177-2.741-15.656" style="fill:#000;fill-opacity:1;fill-rule:evenodd;stroke:none;stroke-width:3.52778"/>
  </g>
</svg>
