<svg xmlns="http://www.w3.org/2000/svg" xml:space="preserve" viewBox="-1 0 121.977 121.958" role="img" aria-labelledby="title">
  <title id="title">Verkehrszeichen W5-34-L - Merging Traffic (left)</title>
  <path d="m168.102 127.982 32.699 32.679v46.224l-32.699 32.667h-46.188L89.25 206.885v-46.224l32.664-32.679z" style="fill:none;stroke:none" transform="translate(307.66 570.605)scale(1.17193)"/>
  <path d="m.745 65.216 55.03 55.025c2.29 2.289 6.105 2.289 8.432 0l55.024-55.025c2.327-2.326 2.327-6.142 0-8.475L64.207 1.718c-2.327-2.29-6.142-2.29-8.432 0L.745 56.74c-2.327 2.333-2.327 6.149 0 8.475" style="fill:#fee011;fill-opacity:1;fill-rule:evenodd;stroke:none"/>
  <path d="M56.575 119.287c1.982 1.607 4.35 1.988 6.407.345l.424-.307 54.951-54.988c1.908-2.252 1.908-4.58 0-6.832L63.406 2.517C61.572 1.03 59.473.573 57.375 1.91l-.382.307-.418.301-54.95 54.988c-1.91 2.252-1.91 4.542 0 6.795z" style="fill:#000;fill-opacity:1;fill-rule:evenodd;stroke:none"/>
  <path d="M60.618 118.334c.42-.112.61-.265.992-.535l54.95-54.952c1.07-1.335 1.07-2.326 0-3.66L61.61 4.234c-1.065-.8-2.174-.763-3.207.037L3.416 59.223c-1.029 1.3-1.029 2.29 0 3.59l54.987 54.95c.727.61 1.298.688 2.215.572" style="fill:#fee011;fill-opacity:1;fill-rule:evenodd;stroke:none"/>
  <path d="m65.69 45.271 7.9 2.316c.037 0 .341.04.494.04a2.383 2.383 0 0 0 2.392-2.393c0-.57-.38-1.178-.607-1.558L60.03 20.584 44.117 43.676c-.076.151-.607.988-.607 1.558a2.383 2.383 0 0 0 2.392 2.392c.152 0 .457-.039.494-.039l7.9-2.316c.038.456.038 1.178.038 1.634 0 7.481-2.887 15.305-8.09 20.509L32.989 80.706l8.013 8.053 13.37-13.218v25.789H65.69z" style="fill:#000;fill-opacity:1;fill-rule:evenodd;stroke:none"/>
</svg>
