<svg xmlns="http://www.w3.org/2000/svg" viewBox="0 0 323.682 323.6" role="img" aria-labelledby="title">
  <title id="title">Verkehrszeichen W1-7-L - Hairpin curve to left</title>
  <path d="m235 375 80-170 80 170-80 170z" style="fill:none;stroke:#fff;stroke-width:40" transform="translate(19311.611 13026.545)"/>
  <path d="m4.768 173.022 146.029 146.043c6.357 6.046 16.03 6.046 22.58 0l145.54-146.043c6.353-6.047 6.353-16.323 0-22.677L173.376 4.61c-6.55-6.145-16.223-6.145-22.58 0L4.767 150.345c-6.356 6.354-6.356 16.63 0 22.677" style="fill:#fee011;fill-opacity:1;fill-rule:evenodd;stroke:none"/>
  <path d="m6.673 170.192 146.353 146.354c5.232 5.33 12.693 5.33 17.636 0L317 170.192c4.939-4.632 4.939-12.696 0-17.328L170.66 6.524c-4.942-4.744-12.403-4.744-17.635 0L6.673 152.865c-4.73 4.632-4.73 12.696 0 17.328" style="fill:#000;fill-opacity:1;fill-rule:evenodd;stroke:none"/>
  <path d="m11.11 166.065 146.548 146.35c2.212 2.212 6.146 2.212 8.372 0l146.84-146.35c2.519-2.717 2.519-6.343 0-8.763L166.03 10.952c-2.226-2.522-6.16-2.522-8.372 0L11.111 157.302c-2.52 2.42-2.52 6.046 0 8.763" style="fill:#fee011;fill-opacity:1;fill-rule:evenodd;stroke:none"/>
  <path d="M215.807 117.28c0-35.667-27.817-63.497-61.874-63.497-34.167 0-61.884 27.83-61.884 61.888l-.1 13.913-22.284-7.055c-2.91 0-6.146 3.023-6.146 6.452 0 1.302.812 2.914 1.316 3.528l44.948 66.311 44.446-65.807c.505-.811 1.316-2.42 1.316-4.032 0-3.43-2.73-6.452-6.258-6.452l-22.469 7.055.198-13.913c-.099-14.909 11.994-27.006 26.917-27.006 14.908 0 27.005 12.097 27.005 28.614v133.153h34.868z" style="fill:#000;fill-opacity:1;fill-rule:evenodd;stroke:none"/>
</svg>
