<svg xmlns="http://www.w3.org/2000/svg" viewBox="0 0 1021.33 1021.33" role="img" aria-labelledby="title">
  <title id="title">Verkehrszeichen W5-43 - Uneven Surface</title>
  <g transform="translate(0 442.66)">
    <rect width="750" height="750" x="-61.992" y="34.181" rx="50" ry="50" style="fill:#fddc04;fill-opacity:1;fill-rule:evenodd;stroke:none;stroke-width:5.67811;stroke-linecap:round;stroke-linejoin:round" transform="rotate(-45)"/>
    <rect width="730" height="730" x="-51.992" y="44.181" rx="40" ry="40" style="fill:#000;fill-rule:evenodd;stroke:none;stroke-width:5.52669;stroke-linecap:round;stroke-linejoin:round" transform="rotate(-45)"/>
    <rect width="690" height="690" x="-31.992" y="64.181" rx="20" ry="20" style="fill:#fddc04;fill-opacity:1;fill-rule:evenodd;stroke:none;stroke-width:5.22386;stroke-linecap:round;stroke-linejoin:round" transform="rotate(-45)"/>
    <path d="M297.336-24.98q0 14.15-5.552 24.896-4.477 8.955-14.328 14.687-9.85 5.552-20.955 5.552t-20.955-5.552Q225.695 8.87 221.038-.084q-5.373-10.746-5.373-24.895v-77.015h18.985v77.015q0 11.642 5.91 18.806Q246.65.812 256.5.812q9.851 0 15.762-6.985 6.09-7.164 6.09-18.806v-77.015h18.984zM407.656 18.005h-16.835L344.97-63.308v81.313h-18.985v-120h18.985l43.701 76.657v-76.657h18.985zM510.83 18.005h-74.507v-120h70.746v18.985h-51.761v29.553h34.925v19.343h-34.925v32.776h55.522zM611.496-101.995l-38.328 120h-14.686l-37.97-120h19.88l25.612 80.06 25.254-80.06zM703.745 18.005h-74.507v-120h70.746v18.985h-51.761v29.553h34.925v19.343h-34.925v32.776h55.522zM805.665 18.005H788.83l-45.85-81.313v81.313h-18.985v-120h18.985l43.701 76.657v-76.657h18.985z" style="font-size:179.104px;line-height:1.25;font-family:&quot;Roadgeek 2000 Series D&quot;;-inkscape-font-specification:&quot;Roadgeek 2000 Series D&quot;;text-align:center;letter-spacing:.01px;text-anchor:middle;fill:#000;fill-rule:evenodd;stroke:none;stroke-width:.932819"/>
    <path d="M244.337 163.438q0 17.015-11.821 27.404-10.567 9.313-26.15 9.313-15.044 0-26.507-8.418-10.925-7.88-17.194-21.85l18.09-6.807q7.88 17.732 25.612 17.732 8.238 0 13.432-5.015t5.195-12.717q0-10.209-11.284-16.12-11.463-4.298-22.926-8.775-23.104-9.314-23.104-29.91 0-32.24 37.433-32.24 24.358 0 34.209 24.359l-16.836 5.014q-1.612-2.865-3.94-5.014-5.373-5.195-13.791-5.553-7.881-.179-12.896 2.687-6.269 3.761-5.731 11.283.716 8.598 15.94 13.612 22.388 7.523 27.582 10.926 14.687 9.85 14.687 30.09M346.392 155.02q0 14.15-5.553 24.896-4.477 8.955-14.328 14.687-9.85 5.552-20.955 5.552t-20.956-5.552q-9.85-5.732-14.507-14.687-5.373-10.746-5.373-24.895V78.005h18.985v77.016q0 11.641 5.91 18.806 6.09 6.985 15.94 6.985 9.851 0 15.762-6.985 6.09-7.165 6.09-18.806V78.005h18.985zM456.87 198.005h-20.597l-19.343-52.12h-22.747v52.12h-18.985v-120h39.582q13.254 0 21.314 3.94 8.06 3.761 13.075 12.18 5.194 8.417 5.194 17.552 0 9.492-5.194 18.09-5.195 8.417-13.433 12.178zm-21.493-86.328q0-10.03-10.03-13.791-2.507-.896-8.417-.896h-22.747v29.552h22.747q6.985 0 10.925-2.149 7.522-4.298 7.522-12.716M551.767 96.99h-55.523v29.552h34.926v19.344h-34.926v52.12H477.26V78.004h74.508zM660.454 198.005h-20.06l-11.82-33.672H591.14l-11.821 33.672h-20.24l41.195-120h18.985zm-38.687-53.015-11.82-33.672-12.18 33.672zM758.037 173.647q-10.746 26.508-36.18 26.508-25.611 0-36.716-21.493-8.776-17.194-8.776-40.836 0-31.701 13.433-48.358 10.746-13.433 30.806-13.433 25.791 0 37.433 24.359l-17.731 7.522q-5.015-7.522-8.956-10.03t-10.746-2.507q-14.328 0-20.239 14.686-4.656 11.463-4.656 27.761 0 21.672 7.522 33.672 5.91 9.314 18.09 9.314 12 0 18.627-13.97zM858.665 198.005h-74.508v-120h70.747V96.99h-51.762v29.552h34.926v19.344h-34.926v32.776h55.523z" style="font-size:179.105px;line-height:1.25;font-family:&quot;Roadgeek 2000 Series D&quot;;-inkscape-font-specification:&quot;Roadgeek 2000 Series D&quot;;text-align:center;letter-spacing:.15px;text-anchor:middle;fill:#000;fill-rule:evenodd;stroke:none;stroke-width:.87017"/>
  </g>
</svg>
