<svg xmlns="http://www.w3.org/2000/svg" viewBox="0 0 1021.33 1021.33" role="img" aria-labelledby="title">
  <title id="title">Verkehrszeichen W5-8 - Low Level Bridge</title>
  <g transform="translate(0 442.66)">
    <rect width="750" height="750" x="-61.992" y="34.181" rx="50" ry="50" style="fill:#fddc04;fill-opacity:1;fill-rule:evenodd;stroke:none;stroke-width:5.67811;stroke-linecap:round;stroke-linejoin:round" transform="rotate(-45)"/>
    <rect width="730" height="730" x="-51.992" y="44.181" rx="40" ry="40" style="fill:#000;fill-rule:evenodd;stroke:none;stroke-width:5.52669;stroke-linecap:round;stroke-linejoin:round" transform="rotate(-45)"/>
    <rect width="690" height="690" x="-31.992" y="64.181" rx="20" ry="20" style="fill:#fddc04;fill-opacity:1;fill-rule:evenodd;stroke:none;stroke-width:5.22386;stroke-linecap:round;stroke-linejoin:round" transform="rotate(-45)"/>
    <path d="M443.284-106.995h-63.619v-125h17.91v108.396h45.71zM531.746-169.68q0 26.865-7.09 43.47-9.142 21.455-29.477 21.455-20.71 0-29.664-21.455-7.09-16.791-7.09-43.47 0-27.612 7.09-43.47 9.328-20.896 29.664-20.896 11.007 0 17.91 5.037 6.903 4.851 11.567 16.418 7.09 16.978 7.09 42.91m-17.164 0q0-17.164-3.918-31.157-4.478-15.672-15.485-15.672t-15.672 15.299q-3.918 12.873-3.918 31.903 0 17.35 3.918 31.716 4.291 15.299 15.672 15.299 11.007 0 16.044-17.538 3.359-11.94 3.359-29.85M641.665-231.995l-20.15 125h-15.484l-11.754-65.298-11.94 65.298h-15.672l-19.776-125h17.537l10.635 66.605 12.126-66.605h14.18l11.753 66.605 11.008-66.605z" style="font-size:186.567px;line-height:1.25;font-family:&quot;Roadgeek 2000 Series C&quot;;-inkscape-font-specification:&quot;Roadgeek 2000 Series C&quot;;text-align:center;letter-spacing:-.16px;text-anchor:middle;fill:#000;fill-rule:evenodd;stroke:none;stroke-width:.971702;stroke-opacity:1"/>
    <path d="M374.284 81.005h-63.619v-125h17.91V64.401h45.71zM455.618 81.005h-63.62v-125h58.77v17.537h-40.859v31.53h25.933v17.164h-25.933v41.232h45.709zM544.427-43.995l-32.09 125h-13.619l-31.53-125H485.1l20.709 81.157 20.522-81.157zM625.774 81.005h-63.62v-125h58.77v17.537h-40.86v31.53h25.934v17.164h-25.933v41.232h45.709zM710.665 81.005h-63.619v-125h17.91V64.401h45.71z" style="font-size:186.567px;line-height:1.25;font-family:&quot;Roadgeek 2000 Series C&quot;;-inkscape-font-specification:&quot;Roadgeek 2000 Series C&quot;;text-align:center;letter-spacing:.19px;text-anchor:middle;fill:#000;fill-rule:evenodd;stroke:none;stroke-width:.944207;stroke-opacity:1"/>
    <path d="M341.314 234.863q0 14.18-9.888 24.254-9.701 9.888-23.507 9.888h-36.754v-125h39.366q12.686 0 20.522 9.142 8.022 8.955 8.022 23.321 0 8.395-2.798 13.806-2.612 5.224-10.261 13.433 15.298 12.5 15.298 31.156m-19.776-58.395q0-14.925-13.62-14.925h-18.843v33.395h18.844q6.343 0 9.888-4.85 3.731-5.038 3.731-13.62m2.239 57.09q0-8.956-4.85-14.926-4.852-6.157-11.755-6.157h-18.097v38.993h18.097q7.463 0 11.94-4.85 4.665-4.852 4.665-13.06M432.636 269.005h-18.47l-16.605-58.768h-17.164v58.768h-17.91v-125H399.8q14.739 0 23.694 9.142 9.142 9.142 9.142 24.254 0 23.507-18.097 30.224zm-17.538-91.604q0-7.276-4.477-11.567t-11.754-4.291h-18.47v31.53h18.47q16.231 0 16.231-15.672M471.35 269.005h-17.537v-125h17.537zM569.202 206.319q0 42.35-18.097 56.903-6.903 5.783-17.538 5.783h-34.515v-125h31.903q13.806 0 20.15 4.851 11.567 8.582 14.925 27.612 3.172 17.164 3.172 29.85m-17.538.933q0-23.508-3.545-33.023-4.85-12.686-16.23-12.686h-14.926v89.925h14.925q7.463 0 12.5-5.41 4.291-4.851 5.41-12.5 1.866-11.754 1.866-26.306M661.455 234.305q0 11.753-3.544 19.403-8.023 17.537-27.612 17.537-22.761 0-32.09-21.455-6.53-15.299-6.53-43.097 0-25.746 5.784-41.978 3.358-10.074 12.127-16.418t19.403-6.343q13.433 0 22.574 8.955 9.142 8.769 9.888 22.575H643.36q-.187-6.343-4.292-10.075-4.104-3.918-10.634-3.918-8.955 0-13.992 9.142-5.597 10.634-5.597 35.075 0 17.91 2.612 31.156 3.73 18.844 18.47 18.844 13.433 0 13.433-19.403v-8.21h-13.993V208.56h32.09zM750.165 269.005h-63.62v-125h58.77v17.538h-40.859v31.53h25.933v17.164h-25.933v41.23h45.709z" style="font-size:186.567px;line-height:1.25;font-family:&quot;Roadgeek 2000 Series C&quot;;-inkscape-font-specification:&quot;Roadgeek 2000 Series C&quot;;text-align:center;letter-spacing:.09px;text-anchor:middle;fill:#000;fill-rule:evenodd;stroke:none;stroke-width:.917499;stroke-opacity:1"/>
  </g>
</svg>
