<svg xmlns="http://www.w3.org/2000/svg" xml:space="preserve" viewBox="-.451 -.943 122.612 81.761" role="img" aria-labelledby="title">
  <title id="title">Verkehrszeichen W8-3-L - On Side Road (left)</title>
  <path d="M7.746-.943h106.218c4.514 0 8.198 3.684 8.198 8.198v65.358c0 4.514-3.684 8.205-8.198 8.205H7.746c-4.513 0-8.197-3.691-8.197-8.205V7.255c0-4.514 3.684-8.198 8.197-8.198" style="fill:#fee011;fill-opacity:1;fill-rule:evenodd;stroke:none"/>
  <path d="M7.695.716h106.319a6.51 6.51 0 0 1 6.539 6.54v65.409a6.51 6.51 0 0 1-6.539 6.538H7.695a6.51 6.51 0 0 1-6.54-6.539V7.257a6.51 6.51 0 0 1 6.54-6.54" style="fill:#000;fill-opacity:1;fill-rule:evenodd;stroke:none"/>
  <path d="M7.695 3.988h106.319a3.25 3.25 0 0 1 3.266 3.267v65.408a3.256 3.256 0 0 1-3.266 3.274H7.695a3.255 3.255 0 0 1-3.266-3.274V7.255a3.25 3.25 0 0 1 3.266-3.267" style="fill:#fee011;fill-opacity:1;fill-rule:evenodd;stroke:none"/>
  <path d="M10.708 45.567h2.283c.053 1.921.624 2.804 2.182 2.855 1.348 0 2.127-1.09 2.127-2.44 0-.362-.051-.779-.207-1.141-.675-2.233-2.337-2.493-3.842-3.583-1.09-.779-1.765-2.18-1.765-3.634 0-2.283 2.077-3.945 4.205-3.945 2.284 0 3.945 1.765 3.945 4.102h-2.232c0-.779-.883-1.869-1.713-1.869-.882 0-1.868.726-1.868 1.713 0 .726.207 1.504 1.09 1.92 2.387 1.142 4.672 3.167 4.672 6.437 0 2.908-1.974 4.724-4.412 4.724-2.44 0-4.465-1.713-4.465-5.139" style="fill:#000;fill-opacity:1;fill-rule:evenodd;stroke:none"/>
  <path d="M23.374 50.343h2.284V33.991h-2.284z" style="fill:#000;fill-opacity:1;fill-rule:nonzero;stroke:none"/>
  <path d="M34.431 33.99c4.257 0 5.243 3.427 5.243 7.736 0 4.983-.778 8.617-5.243 8.617h-3.686V33.991zm-.052 2.233h-1.401V48.06h1.61c2.595 0 2.751-2.753 2.751-5.348v-.935c0-2.906-.208-5.554-2.96-5.554M43.62 33.99h7.891v2.284h-5.658v4.102h3.477v2.283h-3.477v5.4h5.97v2.284H43.62zM70.667 42.4l2.336 7.943h-2.389l-2.18-7.578h-2.127v7.578h-2.233V33.991h5.45c2.025 0 3.479 2.389 3.479 4.412 0 1.61-.831 3.479-2.336 3.998m-1.505-2.024c1.037 0 1.505-1.038 1.505-2.024 0-1.039-.26-2.025-1.454-2.025h-2.906v4.049zM80.53 50.707c-3.633 0-4.723-3.841-4.723-8.565 0-4.672 1.09-8.462 4.776-8.462s4.671 3.79 4.671 8.462c0 5.243-1.401 8.565-4.724 8.565m0-2.387c1.869 0 2.44-2.752 2.44-6.178s-.518-6.23-2.44-6.23-2.387 2.804-2.387 6.23.415 6.177 2.387 6.177M91.899 43.542h2.233l-1.09-4.412zm-3.894 6.8L91.9 33.991h2.233l4.1 16.351h-2.335l-1.143-4.567h-3.322l-1.09 4.567zM105.759 33.99c4.256 0 5.243 3.427 5.243 7.736 0 4.983-.778 8.617-5.243 8.617h-3.686V33.991zm-.052 2.233h-1.402V48.06h1.61c2.595 0 2.751-2.753 2.751-5.348v-.935c0-2.906-.207-5.554-2.96-5.554M53.899 27.242c-3.374 0-5.763-2.544-5.763-8.565 0-5.919 2.18-8.462 5.763-8.462 3.738 0 5.71 3.737 5.71 8.462 0 4.1-1.037 8.565-5.71 8.565m0-2.647c2.076 0 3.063-1.713 3.063-5.918 0-3.842-.987-5.815-3.063-5.815s-3.219 1.61-3.219 5.815c0 4.049 1.194 5.918 3.219 5.918M62.517 10.527h2.18l6.23 10.643V10.526h2.595V26.88H71.29l-6.23-10.54v10.54h-2.544zM28.77 64.517c-.31-.159-.62-.469-.62-.829 0-.369.31-.627.62-.779l13.396-7.376c.678 0 1.04.368 1.04.829-.47 1.666-.938 3.224-1.4 4.781 16.872-.159 34.262-.419 51.703-.627v6.337c-17.441-.208-34.831-.468-51.703-.627.462 1.557.93 3.115 1.4 4.78 0 .469-.362.829-1.04.829z" style="fill:#000;fill-opacity:1;fill-rule:evenodd;stroke:none"/>
</svg>
