<svg xmlns="http://www.w3.org/2000/svg" viewBox="0 0 1021.33 1021.33" role="img" aria-labelledby="title">
  <title id="title">Verkehrszeichen W5-7-2 - Floodways</title>
  <g transform="translate(0 442.66)">
    <rect width="750" height="750" x="-61.992" y="34.181" rx="50" ry="50" style="fill:#fddc04;fill-opacity:1;fill-rule:evenodd;stroke:none;stroke-width:5.67811;stroke-linecap:round;stroke-linejoin:round" transform="rotate(-45)"/>
    <rect width="730" height="730" x="-51.992" y="44.181" rx="40" ry="40" style="fill:#000;fill-rule:evenodd;stroke:none;stroke-width:5.52669;stroke-linecap:round;stroke-linejoin:round" transform="rotate(-45)"/>
    <rect width="690" height="690" x="-31.992" y="64.181" rx="20" ry="20" style="fill:#fddc04;fill-opacity:1;fill-rule:evenodd;stroke:none;stroke-width:5.22386;stroke-linecap:round;stroke-linejoin:round" transform="rotate(-45)"/>
    <path d="M187.284 23.042h-45.709v31.53h25v17.164h-25v58.769h-17.91v-125h63.62zM266.47 130.505h-63.618v-125h17.91v108.396h45.709zM353.12 67.82q0 26.865-7.09 43.47-9.141 21.455-29.477 21.455-20.709 0-29.664-21.455-7.09-16.791-7.09-43.47 0-27.612 7.09-43.47 9.328-20.896 29.664-20.896 11.007 0 17.91 5.037 6.903 4.851 11.568 16.418 7.09 16.978 7.09 42.91m-17.164 0q0-17.164-3.918-31.157-4.478-15.672-15.485-15.672T300.881 36.29q-3.918 12.873-3.918 31.903 0 17.35 3.918 31.716 4.291 15.299 15.672 15.299 11.007 0 16.045-17.538 3.358-11.94 3.358-29.85M447.232 67.82q0 26.865-7.09 43.47-9.141 21.455-29.477 21.455-20.71 0-29.664-21.455-7.09-16.791-7.09-43.47 0-27.612 7.09-43.47 9.328-20.896 29.664-20.896 11.007 0 17.91 5.037 6.903 4.851 11.567 16.418 7.09 16.978 7.09 42.91m-17.164 0q0-17.164-3.918-31.157-4.478-15.672-15.485-15.672T394.993 36.29q-3.918 12.873-3.918 31.903 0 17.35 3.918 31.716 4.291 15.299 15.672 15.299 11.007 0 16.045-17.538 3.358-11.94 3.358-29.85M540.411 67.819q0 42.35-18.097 56.902-6.903 5.784-17.537 5.784h-34.515v-125h31.903q13.806 0 20.15 4.85 11.566 8.583 14.924 27.613 3.172 17.164 3.172 29.85m-17.537.932q0-23.507-3.545-33.022-4.85-12.687-16.231-12.687h-14.926v89.926h14.926q7.462 0 12.5-5.41 4.29-4.851 5.41-12.5 1.866-11.754 1.866-26.307M648.142 5.505l-20.149 125h-15.485l-11.754-65.298-11.94 65.298h-15.672l-19.776-125h17.538l10.634 66.605 12.127-66.605h14.179l11.754 66.605 11.007-66.605ZM733.486 130.505h-18.097l-8.769-34.142h-26.679l-8.395 34.142h-17.91l31.156-125h17.537zm-31.157-51.679-9.142-36.007-8.768 36.007zM818.815 5.505l-31.157 68.47v56.53h-17.91v-56.53l-30.784-68.47h18.843l21.082 45.15 20.523-45.15ZM897.665 96.364q0 15.112-10.261 25.747-10.075 10.634-24.44 10.634-15.859 0-25.747-11.754-9.328-11.194-9.328-27.238h17.537q0 8.768 4.105 14.552 4.85 6.903 13.433 6.903 7.09 0 12.313-5.597t5.224-13.247q0-10.26-10.075-18.097 2.053 1.306-21.082-14.925-15.298-10.261-15.298-27.612 0-13.433 9.141-22.761 9.329-9.515 22.762-9.515 13.246 0 22.201 9.142 9.142 9.142 9.515 23.134h-17.164q-.373-6.343-4.478-10.261-3.918-4.104-10.074-4.104-6.157 0-10.635 4.104-4.29 4.104-4.29 10.261 0 4.664 2.425 7.836 2.612 3.172 9.515 7.09Q881.06 61.29 889.27 72.11q8.395 10.82 8.395 24.253" style="font-size:186.567px;line-height:1.25;font-family:&quot;Roadgeek 2000 Series C&quot;;-inkscape-font-specification:&quot;Roadgeek 2000 Series C&quot;;text-align:center;letter-spacing:-1.97px;text-anchor:middle;fill:#000;fill-rule:evenodd;stroke:none;stroke-width:.971703"/>
  </g>
</svg>
