<svg xmlns="http://www.w3.org/2000/svg" xml:space="preserve" viewBox="-1 0 620.344 259.656" role="img" aria-labelledby="title">
  <title id="title">Verkehrszeichen W5-Q01 - Start of Cane Railway Crossings (used in QLD)</title>
  <path d="m168.102 127.982 32.699 32.679v46.224l-32.699 32.667h-46.188L89.25 206.885v-46.224l32.664-32.679z" style="fill:none;stroke:none" transform="translate(541.81 710.009)scale(1.17193)"/>
  <path d="M34.46 1.001h549.407c19.028 0 34.466 15.451 34.466 34.466v188.724c0 19.028-15.438 34.466-34.466 34.466H34.46c-19.028 0-34.466-15.438-34.466-34.466V35.467c0-19.015 15.438-34.466 34.466-34.466z" style="fill:#fff;fill-opacity:1;fill-rule:evenodd;stroke:#000;stroke-width:1.99999964;stroke-linecap:butt;stroke-linejoin:miter;stroke-miterlimit:11.47399998;stroke-opacity:1;stroke-dasharray:none"/>
  <path d="M583.78 4.41c16.664.875 28.707 11.254 30.97 27.918l.175 3.24V224.11c-.875 16.495-11.342 28.707-27.925 30.97l-3.22.175H34.54c-16.495-.875-28.707-11.342-30.97-27.925l-.188-3.22V35.567C4.258 18.891 14.726 6.854 31.308 4.591l3.233-.182z" style="fill:#000;fill-opacity:1;fill-rule:evenodd;stroke:none"/>
  <path d="M588.75 11.65c12.219 3.408 18.59 11.6 19.378 24.08v188.192c-.787 12.212-7.247 20.772-19.377 24.092l-2.439.25-2.713.182H34.716c-12.218-.782-20.76-7.24-24.08-19.371l-.269-2.44-.168-2.713V35.73c.787-12.825 8.641-22.954 21.81-24.349l2.707-.169h548.883l2.713.17z" style="fill:#fff;fill-opacity:1;fill-rule:evenodd;stroke:none"/>
  <path d="M132.348 181.359h29.314v7.59h-21.373v11.863h13.87v7.94h-13.87v20.673h-7.94zM186.867 229.6c-9.86 0-16.927-7.766-16.927-24.08s6.372-23.986 16.927-23.986c10.467 0 16.751 10.73 16.751 23.986 0 13.262-4.364 24.08-16.751 24.08m0-7.416c5.146 0 8.985-4.277 9.073-16.576.087-11.337-3.49-16.746-9.073-16.833-5.671 0-9.336 4.533-9.336 16.745 0 11.78 4.015 16.664 9.336 16.664M223.859 188.95v11.862h10.292c3.314 0 5.584-3.49 5.584-6.453s-3.227-5.41-5.847-5.41zm-7.416-7.591h17.883c7.153 0 12.912 6.372 12.912 13.612 0 4.971-3.051 9.16-7.065 11.775l8.547 22.685h-8.197l-7.766-21.116h-8.986v21.116h-7.328zM389.56 229.425v-44.577l9.073-3.489v23.292l9.335-11.255h11.424l-10.03 12.212 9.774 23.817h-9.774l-6.284-16.49-4.445 6.11v10.38zM434.049 229.425v-36.03h9.073v2.27c2.094-1.313 6.453-2.27 8.722-2.27 4.015 0 7.066 1.132 9.336 4.278 1.482-2.358 7.416-4.277 10.73-4.277h.788c5.665.788 12.562 5.934 12.562 11.693v24.336h-9.423v-21.81c0-3.14-2.533-5.672-6.11-5.672-4.445 0-5.927 2.008-5.927 6.285v21.197h-8.379v-21.197c0-3.14-2.357-6.891-6.19-6.891-3.752 0-6.11 2.614-6.11 6.278v21.81zM155.027 117.836c-1.657-3.401-3.401-4.883-7.153-4.883-9.248 0-10.38 10.992-10.38 17.007 0 6.022 2.007 16.664 10.03 16.664 2.882 0 6.628-2.876 7.853-5.759l6.891 1.745c-2.62 6.634-6.628 11.255-14.131 11.255-13.175 0-18.146-13-18.409-24.167 0-10.117 3.49-23.899 17.27-23.899 6.898 0 11.518 2.614 14.657 9.248zM182.771 113.39v11.862h10.292c3.314 0 5.584-3.49 5.584-6.453s-3.226-5.409-5.846-5.409zm-7.416-7.59h17.884c7.153 0 12.912 6.371 12.912 13.612 0 4.97-3.052 9.16-7.066 11.774l8.548 22.685h-8.198l-7.766-21.116h-8.985v21.116h-7.329zM233.888 154.04c-9.86 0-16.926-7.766-16.926-24.08 0-16.313 6.372-23.986 16.926-23.986 10.468 0 16.752 10.73 16.752 23.986 0 13.263-4.365 24.08-16.752 24.08m0-7.416c5.147 0 8.986-4.277 9.073-16.576.088-11.336-3.489-16.745-9.073-16.833-5.67 0-9.335 4.534-9.335 16.745 0 11.78 4.014 16.664 9.335 16.664M259.888 141.916l6.89-2.445c2.795 5.234 5.584 6.81 11.08 6.81 3.052 0 6.891-3.233 6.891-6.372 0-4.709-2.789-7.154-12.3-8.11-1.481-.175-4.62-1.138-7.152-3.233-1.92-1.657-3.752-4.27-3.752-8.373 0-8.722 7.153-14.394 15.007-14.394 6.89 0 11.686 3.49 14.044 10.468l-7.504 1.57c-1.307-3.665-4.358-4.622-7.328-4.71-3.577-.174-6.803 3.315-6.716 6.541.088 1.92 1.657 3.84 3.49 4.627 3.05 1.22 7.24.526 10.554 1.92 4.884 2.439 9.073 6.365 9.073 12.474 0 9.073-6.278 15.176-15.963 15.176-6.979 0-13.87-5.584-16.314-11.95M300.625 141.916l6.89-2.445c2.796 5.234 5.585 6.81 11.08 6.81 3.052 0 6.892-3.233 6.892-6.372 0-4.709-2.79-7.154-12.3-8.11-1.482-.175-4.62-1.138-7.153-3.233-1.92-1.657-3.752-4.27-3.752-8.373 0-8.722 7.154-14.394 15.007-14.394 6.89 0 11.687 3.49 14.044 10.468l-7.503 1.57c-1.307-3.665-4.359-4.622-7.329-4.71-3.576-.174-6.803 3.315-6.715 6.541.087 1.92 1.657 3.84 3.489 4.627 3.051 1.22 7.24.526 10.555 1.92 4.883 2.439 9.072 6.365 9.072 12.474 0 9.073-6.277 15.176-15.963 15.176-6.978 0-13.869-5.584-16.314-11.95" style="fill:#000;fill-opacity:1;fill-rule:evenodd;stroke:none"/>
  <path d="M345.208 153.865h7.503v-48.068h-7.503z" style="fill:#000;fill-opacity:1;fill-rule:nonzero;stroke:none"/>
  <path d="M369.37 105.8h6.365l18.32 31.408v-31.409h7.591v48.066h-6.365l-18.32-30.964v30.964h-7.592zM439.251 118.624c-1.92-3.314-3.489-5.234-7.416-5.234-9.335-.175-9.767 10.468-9.767 17.27 0 7.854 2.264 16.052 9.767 16.052 4.277 0 7.504-4.27 7.504-6.54v-2.965h-8.285v-7.678h15.7v10.03c0 8.729-6.715 14.306-15.181 14.306-12.737 0-17.096-12.212-17.096-23.38 0-10.817 2.614-24.686 17.096-24.686 6.459 0 12.562 3.665 14.306 10.205zM456.259 141.916l6.89-2.445c2.796 5.234 5.584 6.81 11.08 6.81 3.052 0 6.891-3.233 6.891-6.372 0-4.709-2.788-7.154-12.299-8.11-1.482-.175-4.62-1.138-7.153-3.233-1.92-1.657-3.752-4.27-3.752-8.373 0-8.722 7.153-14.394 15.007-14.394 6.89 0 11.686 3.49 14.044 10.468l-7.504 1.57c-1.306-3.665-4.358-4.622-7.328-4.71-3.577-.174-6.803 3.315-6.716 6.541.088 1.92 1.657 3.84 3.49 4.627 3.05 1.22 7.24.526 10.554 1.92 4.884 2.439 9.073 6.365 9.073 12.474 0 9.073-6.278 15.176-15.963 15.176-6.978 0-13.87-5.584-16.314-11.95M79.205 42.283c-1.657-3.402-3.401-4.884-7.153-4.884-9.248 0-10.38 10.993-10.38 17.008 0 6.022 2.007 16.664 10.03 16.664 2.882 0 6.634-2.876 7.853-5.759l6.89 1.745c-2.619 6.634-6.627 11.255-14.13 11.255-13.175 0-18.146-13-18.409-24.168 0-10.117 3.49-23.898 17.27-23.898 6.897 0 11.518 2.614 14.657 9.248zM111.57 30.24h7.766l16.401 48.066h-8.379l-4.27-13.52h-15.27l-4.102 13.52h-8.285zm8.898 27.043H110.7l5.146-14.394zM148.3 30.24h6.365l18.32 31.408V30.24h7.591v48.066h-6.365l-18.32-30.965v30.965h-7.592zM197.24 30.24h27.744v7.153h-20.59v11.95h14.219v7.94h-14.22v13.438h22.16v7.585H197.24zM277.152 37.83v11.862h10.292c3.314 0 5.584-3.489 5.584-6.453 0-2.963-3.226-5.408-5.846-5.408zm-7.416-7.59h17.883c7.154 0 12.912 6.371 12.912 13.612 0 4.971-3.051 9.16-7.065 11.774l8.547 22.686h-8.197l-7.766-21.116h-8.986v21.116h-7.328zM327.137 30.24h7.766l16.402 48.066h-8.38l-4.27-13.52h-15.27l-4.101 13.52h-8.285zm8.898 27.043h-9.773l5.152-14.394z" style="fill:#000;fill-opacity:1;fill-rule:evenodd;stroke:none"/>
  <path d="M363.867 78.312h7.502V30.244h-7.502z" style="fill:#000;fill-opacity:1;fill-rule:nonzero;stroke:none"/>
  <path d="M388.028 30.24h7.416v40.912h21.897v7.154h-29.313zM424.757 30.24h7.591l3.577 25.036 6.803-25.036h6.715l6.284 25.386 3.577-25.386h7.504l-6.635 48.066h-6.803l-7.503-30.27-7.585 30.27h-6.722zM491.406 30.24h7.766l16.402 48.066h-8.38l-4.27-13.52h-15.27l-4.101 13.52h-8.285zm8.898 27.043h-9.773l5.152-14.394zM523.771 30.24h8.81L544.1 48.91l11.424-18.67h8.817l-16.314 27.394v20.672h-7.503V57.634z" style="fill:#000;fill-opacity:1;fill-rule:evenodd;stroke:none"/>
  <path d="M289.833 179.865h83.238v49.56h-83.238z" style="fill:none;stroke:#000;stroke-width:1.7445488;stroke-linecap:butt;stroke-linejoin:miter;stroke-miterlimit:11.47399998;stroke-opacity:1;stroke-dasharray:8.7252445400000003,8.7252445400000003;stroke-dashoffset:0"/>
</svg>
