<svg xmlns="http://www.w3.org/2000/svg" viewBox="0 0 815.864 815.864" role="img" aria-labelledby="title">
  <title id="title">Verkehrszeichen W6-7 - Cyclists</title>
  <g transform="translate(2214.332 -912.315)">
    <rect width="600" height="600" x="-2510.874" y="43.762" rx="40" ry="40" style="fill:#cdff00;fill-opacity:1;stroke:none;stroke-width:8;stroke-linejoin:miter;stroke-miterlimit:4;stroke-dasharray:none;stroke-dashoffset:0;stroke-opacity:1" transform="rotate(-45)scale(1 -1)"/>
    <rect width="584" height="584" x="-2502.874" y="51.762" rx="32" ry="32" style="fill:#000;fill-opacity:1;stroke:none;stroke-width:8;stroke-linejoin:miter;stroke-miterlimit:4;stroke-dasharray:none;stroke-dashoffset:0;stroke-opacity:1" transform="rotate(-45)scale(1 -1)"/>
    <rect width="552" height="552" x="-2486.874" y="67.762" rx="16" ry="16" style="fill:#cdff00;fill-opacity:1;stroke:none;stroke-width:8;stroke-linejoin:miter;stroke-miterlimit:4;stroke-dasharray:none;stroke-dashoffset:0;stroke-opacity:1" transform="rotate(-45)scale(1 -1)"/>
    <path d="M-1743.182 1211.144h-122.082l41.642 114.922 9.678.495 81.478-92.436-10.716-22.979zm46.996 107.51 39.3 61.041c6.132 9.428 34.473-6.675 26.317-20.436l-35.753-57.988c6.634-2.024 13.267-3.296 20.428-3.296 38.312 0 69.206 31.638 69.206 69.942 0 38.305-30.894 69.482-69.206 69.482-38.798 0-69.733-31.177-69.733-69.482 0-18.621 7.17-36.004 19.44-49.263m-212.494 62.564h-64.588c-7.663 0-21.708-9.186-19.148-14.045l33.695-67.675c-5.362-1.523-11.745-2.803-17.876-2.803-38.556 0-69.984 31.386-69.984 69.7 0 38.304 31.428 69.724 69.984 69.724 32.7 0 61.04-23.515 67.917-54.901m-19.399-64.873-16.848 30.642h34.724c-3.053-12.271-9.97-22.486-17.876-30.642m-16.354-44.938 29.12-77.144c-3.33-7.378-7.906-15.04-10.993-21.424-.995-1.28-2.551-3.337-4.082-4.115-2.802-.745-8.156 0-9.963-3.053l-4.576-28.585 4.083-6.14 90.654-.24c3.58 0 9.72 8.406 6.884 11.209-8.164 9.218-23.238 21.205-36.255 26.066-2.802 1.28-1.271 9.185 1.28 9.185h112.613l1.03-9.436 26.316-17.626-2.836-6.918h-42.135l1.02-30.893h58.992c29.12 0 43.942 26.819 18.906 52.6-4.861 4.861-14.79 10.992-12.524 20.964l33.202 85.803.53 2.049c11.493-4.358 24.258-6.667 37.032-6.667 55.152 0 99.84 45.222 99.84 100.876 0 55.186-44.688 100.375-99.84 100.375-56.19 0-100.625-45.189-100.625-100.375 0-30.366 12.523-56.925 33.193-75.588l-6.383-30.39-71.506 87.357c5.89 54.659-53.379 72-72 31.922h-14.045c-6.918 48.77-49.296 86.045-99.094 86.045-55.688 0-100.877-45.432-100.877-100.868 0-55.403 45.19-100.877 100.877-100.877 11.243 0 22.201 1.807 32.164 5.89zm66.403 75.58h12.766l6.14-9.72-38.556-99.84-15.86 50.828c17.634 14.539 30.65 35.251 35.51 58.732" style="fill:#000;fill-opacity:1;fill-rule:evenodd;stroke:none"/>
  </g>
</svg>
