<svg xmlns="http://www.w3.org/2000/svg" xmlns:xlink="http://www.w3.org/1999/xlink" viewBox="0 0 137.204 236.641" role="img" aria-labelledby="title">
  <title id="title">Verkehrszeichen W5-V116 - Slippery When Icy (used in VIC)</title>
  <defs>
    <radialGradient xlink:href="#a" id="b" cx="0" cy="0" r="1" fx="0" fy="0" gradientTransform="matrix(9.1504 0 0 -9.14992 -348.734 -1904.682)" gradientUnits="userSpaceOnUse" spreadMethod="pad"/>
    <radialGradient id="a" cx="0" cy="0" r="1" fx="0" fy="0" gradientTransform="translate(2428.52 -1626.21)scale(84.0606)" gradientUnits="userSpaceOnUse" spreadMethod="pad">
      <stop offset="0" style="stop-opacity:1;stop-color:#fff533"/>
      <stop offset="1" style="stop-opacity:1;stop-color:#f89c0e"/>
    </radialGradient>
    <radialGradient xlink:href="#a" id="c" cx="0" cy="0" r="1" fx="0" fy="0" gradientTransform="matrix(-9.1504 0 0 -9.14992 -249.03 -1904.682)" gradientUnits="userSpaceOnUse" spreadMethod="pad"/>
  </defs>
  <g style="display:inline">
    <path d="M-230.28-1695.879v-218.347a9.2 9.2 0 0 0-.642-3.368 9.15 9.15 0 0 0-8.505-5.78h-118.91a9.15 9.15 0 0 0-9.147 9.148v218.347a9.15 9.15 0 0 0 9.147 9.146h118.91a9.144 9.144 0 0 0 9.147-9.146" style="fill:#fee011;fill-opacity:1;fill-rule:evenodd;stroke:none" transform="translate(367.484 1923.374)"/>
    <path d="M-366.112-1895.018a7.77 7.77 0 0 0 4.914 7.23c.964.382 1.94.545 2.861.545h118.91a7.794 7.794 0 0 0 5.498-2.277 7.78 7.78 0 0 0 2.276-5.498v-19.208a7.786 7.786 0 0 0-4.912-7.23 7.8 7.8 0 0 0-2.862-.545h-118.91a7.78 7.78 0 0 0-5.497 2.276 7.79 7.79 0 0 0-2.278 5.499zM-352.477-1822.478a4.395 4.395 0 0 1 0-6.212l50.489-50.489a4.38 4.38 0 0 1 3.106-1.287 4.38 4.38 0 0 1 3.106 1.288l50.49 50.488a4.393 4.393 0 0 1 0 6.212l-50.49 50.49a4.39 4.39 0 0 1-6.212 0zm55.149-55.148 50.488 50.488a2.206 2.206 0 0 1 0 3.107l-50.488 50.49a2.2 2.2 0 0 1-3.107 0l-50.488-50.49a2.197 2.197 0 0 1 0-3.107l50.488-50.487a2.2 2.2 0 0 1 3.107 0" style="fill:#000;fill-opacity:1;fill-rule:evenodd;stroke:none" transform="translate(367.484 1923.374)"/>
    <path d="m-303.52-1859.333 18.388 6.862a1.85 1.85 0 0 1 1.202 1.796l-.292 8.222a2.12 2.12 0 0 0 .472 1.407l1.17 1.44a1.86 1.86 0 0 1 .21 2.006l-4.515 8.817a1.04 1.04 0 0 1-.558.503 1.07 1.07 0 0 1-.75.01l-1.942-.725-1.33 3.561a1.05 1.05 0 0 1-1.357.62l-1.686-.628a1.06 1.06 0 0 1-.62-1.359l1.329-3.56-17.65-6.586-1.33 3.56a1.056 1.056 0 0 1-1.358.62l-1.686-.629a1.056 1.056 0 0 1-.62-1.357l1.33-3.561-1.943-.725a1.055 1.055 0 0 1-.656-1.242l2.366-9.618a1.84 1.84 0 0 1 1.473-1.378l1.827-.322a2.12 2.12 0 0 0 1.277-.754l5.166-6.405a1.851 1.851 0 0 1 2.084-.57m.653 3.383 15.024 5.607a1.05 1.05 0 0 1 .685 1.025l-.182 5.167-19.963-7.449 3.248-4.023a1.05 1.05 0 0 1 1.188-.326M-295.757-1821.803l-18.662 6.643a1.95 1.95 0 0 0-1.378 1.389 1.94 1.94 0 0 0 .527 1.883 13.4 13.4 0 0 0 4.112 2.02c.548.21 1.068.508 1.534.89s.86.832 1.175 1.328a2.757 2.757 0 0 1-1.894 3.615l-10.671 2.977-5.835-2.177 12.89-2.156a1.366 1.366 0 0 0 1.236-1.18 1.37 1.37 0 0 0-.879-1.467 24.6 24.6 0 0 1-4.822-2.857 2.874 2.874 0 0 1-.345-4.133 6.67 6.67 0 0 1 3.407-2.256l16.905-5.526z" style="fill:#000;fill-opacity:1;fill-rule:evenodd;stroke:none" transform="translate(367.484 1923.374)"/>
    <path d="m-305.624-1814.715 36.175 5.995a2.11 2.11 0 0 1 .87 3.809 8.5 8.5 0 0 1-1.754.95l-8.061 3.06-6.01-2.63 9.819-1.484a1.373 1.373 0 0 0 .005-2.713l-36.59-5.66 1.638-.778a6.568 6.568 0 0 1 3.908-.549M-312.92-1827.28a113 113 0 0 0-14.293 2.67 4.57 4.57 0 0 0-2.85 1.78 2.025 2.025 0 0 0-.477 1.953 2.03 2.03 0 0 0 1.434 1.407 19.4 19.4 0 0 0 4.69 1.771c1.648.389 3.323.556 4.987.51l-2.294 1.703a21.2 21.2 0 0 1-10.099-2.418 12.3 12.3 0 0 1-2.409-1.872 3 3 0 0 1 .047-4.144 9.85 9.85 0 0 1 4.933-2.924 73.4 73.4 0 0 1 16.904-2.54 32 32 0 0 1 11.863 1.436q.19.06.38.124c.055.02.132.044.187.064l.048.015.047.016.046.016.048.016h-.413c-.117 0-.294-.01-.412-.01-.27 0-.554-.01-.825-.01-.553-.01-1.099-.01-1.652-.01a119.582 119.582 0 0 0-9.891.45M-332.378-1733.29l-3.306-18.295h3.195l1.986 10.991 2.823-10.991h3.143l2.823 10.991 1.986-10.991h3.195l-3.306 18.295h-3.245l-3.024-11.775-3.024 11.775zM-313.03-1751.585v18.295h3.143v-8.004h8.289v8.004h3.145v-18.295h-3.145v7.147h-8.289v-7.147zM-293.808-1733.29v-18.295h13.149v3.145h-10.005v3.43h5.431v3.145h-5.431v5.43h10.29v3.145zM-276.658-1733.29v-18.295h3.053l8.38 12.294v-12.294h3.145v18.295h-2.858l-8.575-12.578v12.578zM-318.3-1724.144v18.294h-3.145v-18.294zM-298.364-1720.201l-2.853 1.32a4.29 4.29 0 0 0-7.868.203c-.95 2.363-.95 5 0 7.362a4.29 4.29 0 0 0 6.24 2.043 4.3 4.3 0 0 0 1.628-1.84l2.853 1.322-.006.014-.006.015-.007.015-.006.014-.028.057-.057.116a7 7 0 0 1-.39.679 7.44 7.44 0 0 1-2.321 2.28 7.43 7.43 0 0 1-10.815-3.541 13 13 0 0 1 0-9.708 7.428 7.428 0 0 1 10.815-3.541 7.43 7.43 0 0 1 2.822 3.188v.001M-283.893-1713.281l7.575-10.862h-3.834l-5.313 7.62-5.313-7.62h-3.835l7.575 10.862v7.432h3.145z" style="fill:#000;fill-opacity:1;fill-rule:evenodd;stroke:none" transform="translate(367.484 1923.374)"/>
    <path d="M-346.445-1763.841h95.127a5.853 5.853 0 0 1 5.854 5.853v58.542a5.85 5.85 0 0 1-5.854 5.853h-95.127a5.853 5.853 0 0 1-5.854-5.853v-58.542a5.86 5.86 0 0 1 1.714-4.14 5.853 5.853 0 0 1 4.14-1.714m95.127 2.927h-95.127a2.926 2.926 0 0 0-2.928 2.927v58.541a2.93 2.93 0 0 0 2.928 2.927h95.127a2.926 2.926 0 0 0 2.928-2.927v-58.54a2.93 2.93 0 0 0-2.928-2.927" style="fill:#000;fill-opacity:1;fill-rule:evenodd;stroke:none" transform="translate(367.484 1923.374)"/>
    <path d="M-357.884-1904.683a9.15 9.15 0 0 1 9.15-9.15 9.15 9.15 0 0 1 0 18.3 9.15 9.15 0 0 1-9.15-9.15" style="display:inline;fill:url(#b);stroke:none;stroke-width:.48579845" transform="translate(367.484 1923.374)"/>
    <path d="M-239.88-1904.683a9.15 9.15 0 0 0-9.15-9.15 9.15 9.15 0 0 0 0 18.3 9.15 9.15 0 0 0 9.15-9.15" style="display:inline;fill:url(#c);stroke:none;stroke-width:.48579845" transform="translate(367.484 1923.374)"/>
  </g>
</svg>
