<svg xmlns="http://www.w3.org/2000/svg" viewBox="0 0 220.505 146.928" role="img" aria-labelledby="title">
  <title id="title">Verkehrszeichen W8-V118 - When Icy (used in VIC)</title>
  <g style="display:inline">
    <path d="M161.955-1805.285h262c1.942 0 3.998.345 6.029 1.15a16.388 16.388 0 0 1 10.347 15.225v147.376a16.39 16.39 0 0 1-4.796 11.579 16.36 16.36 0 0 1-11.58 4.796h-262a16.39 16.39 0 0 1-11.58-4.796 16.382 16.382 0 0 1-4.795-11.579v-147.376a16.38 16.38 0 0 1 4.795-11.579 16.4 16.4 0 0 1 5.552-3.646 16.4 16.4 0 0 1 6.028-1.15" style="fill:#fee011;fill-opacity:1;fill-rule:evenodd;stroke:none" transform="translate(-498.14 3425.117)"/>
    <path d="M178.33-1657.909h163.423v-45.851H178.33v45.851" style="fill:none;stroke:#000;stroke-width:.36874998;stroke-linecap:square;stroke-linejoin:round;stroke-miterlimit:1.41499996;stroke-opacity:1;stroke-dasharray:3.2225,3.2225;stroke-dashoffset:0" transform="translate(-498.14 3425.117)"/>
    <path d="M366.972-1689.503c-.017.014-.05.046-.065.061l-.063.062.128.03za11.814 11.814 0 0 1 14.79-1.271 11.8 11.8 0 0 1 3.457 3.603 11.82 11.82 0 0 1 13.286-5.176 11.83 11.83 0 0 1 6.209 4.245 11.83 11.83 0 0 1 2.393 7.129l.146.138v22.925h-8.841v-20.633l.097.056a5.76 5.76 0 0 0-1.689-4.08 5.77 5.77 0 0 0-6.201-1.283 5.77 5.77 0 0 0-3.239 3.239 5.8 5.8 0 0 0-.405 2.124l-.026-.056v20.633h-8.515v-20.633l-.056.056a5.78 5.78 0 0 0-1.689-4.08 5.77 5.77 0 0 0-6.201-1.283 5.77 5.77 0 0 0-3.239 3.239 5.8 5.8 0 0 0-.405 2.124l.128-.056v20.633h-8.843v-34.388h8.843zM375.813-1772.535v45.85h-5.24l-13.428-31.113v31.113h-6.55v-45.85h7.207l11.462 26.527v-26.527zM334.548-1726.685v-45.85h6.55v45.85zM302.525-1738.543a12.54 12.54 0 0 0 18.472 11.042 12.5 12.5 0 0 0 4.105-3.534 12.531 12.531 0 0 0 2.27-9.888 18.64 18.64 0 0 0-9.07-12.65l-.13.033-3.274-1.965-.158-.096a7.16 7.16 0 0 1-3.618-6.225c0-.593.106-1.225.35-1.846a5.02 5.02 0 0 1 4.665-3.169 5.01 5.01 0 0 1 5.015 5.015l-.032.1v.327h6.55v-.328l-.07-.099a11.457 11.457 0 0 0-11.463-11.463 11.48 11.48 0 0 0-8.105 3.357 11.46 11.46 0 0 0-3.358 7.979v.127a13.61 13.61 0 0 0 6.875 11.828l.074.061 3.603 1.965h-.115a12.18 12.18 0 0 1 5.93 8.272 6.091 6.091 0 0 1-5.398 7.217 6.084 6.084 0 0 1-6.67-6.061l.03.068v-1.965h-6.55v1.965l.073-.068M272.615-1738.543a12.55 12.55 0 0 0 4.105 9.278 12.55 12.55 0 0 0 9.628 3.201 12.527 12.527 0 0 0 11.075-9.906c.365-1.739.334-3.428.04-4.953a18.6 18.6 0 0 0-3.151-7.317 18.6 18.6 0 0 0-5.92-5.333l-.022.033-3.602-1.965.063-.096a7.161 7.161 0 0 1-3.619-6.225 5.02 5.02 0 0 1 1.47-3.546 5.02 5.02 0 0 1 3.546-1.469 5 5 0 0 1 3.546 1.47 5.02 5.02 0 0 1 1.469 3.545l.075.1v.327h6.222v-.328l.15-.099a11.47 11.47 0 0 0-3.357-8.106 11.47 11.47 0 0 0-12.325-2.551 11.5 11.5 0 0 0-3.887 2.551 11.5 11.5 0 0 0-2.552 3.886 11.5 11.5 0 0 0-.804 4.22 13.61 13.61 0 0 0 6.875 11.828l-.147.061 3.602 1.965h.106a12.18 12.18 0 0 1 5.93 8.271 6.1 6.1 0 0 1-1.102 4.803 6.1 6.1 0 0 1-4.295 2.415 6.084 6.084 0 0 1-6.67-6.061l.136.067v-1.965h-6.55v1.965l-.035-.068M197.629-1761.746l-1.21-.08a5.016 5.016 0 0 0-7.556-4.328 4.97 4.97 0 0 0-2.181 2.644 40.462 40.462 0 0 0-.005 27.713 5 5 0 0 0 2.185 2.652 5.02 5.02 0 0 0 6.376-1.09 5 5 0 0 0 1.181-3.234l-.076-.024v-1.31h6.55l-.025 1.334a11.48 11.48 0 0 1-2.703 7.392 11.474 11.474 0 0 1-14.57 2.499 11.38 11.38 0 0 1-4.988-6.047 46.834 46.834 0 0 1 .004-32.059 11.36 11.36 0 0 1 4.986-6.038 11.49 11.49 0 0 1 11.387-.118 11.46 11.46 0 0 1 5.884 10.013zM242.52-1734.873l.09-.13a11.83 11.83 0 0 0 11.478 8.997c1.221 0 2.491-.19 3.751-.612a11.8 11.8 0 0 0 6.238-4.888 11.8 11.8 0 0 0 1.49-3.497 61.26 61.26 0 0 0 0-29.29 11.817 11.817 0 0 0-15.23-8.386 11.84 11.84 0 0 0-6.238 4.89 11.8 11.8 0 0 0-1.49 3.496 61.3 61.3 0 0 0 0 29.29zm6.223-1.636.127-.034a5.375 5.375 0 0 0 8.533 2.945 5.37 5.37 0 0 0 1.902-2.945h.001a54.9 54.9 0 0 0 0-26.21 5.37 5.37 0 0 0-5.218-4.09 5.37 5.37 0 0 0-5.218 4.09 55 55 0 0 0-1.588 13.105c0 4.449.542 8.848 1.588 13.105zM216.975-1748.3h5.568l6.55 21.615h6.55l-6.878-22.598.148-.086a12.5 12.5 0 0 0 4.85-4.576 12.464 12.464 0 0 0-4.803-17.447 9.96 9.96 0 0 0-4.72-1.18l-.06.038h-13.755v45.85h6.55zm0-6.223h7.205l.06-.14q.44 0 .87-.107.43-.108.817-.314a6.02 6.02 0 0 0 0-10.62 3.7 3.7 0 0 0-.817-.315 3.6 3.6 0 0 0-.87-.106l-.06.14h-7.205z" style="fill:#000;fill-opacity:1;fill-rule:evenodd;stroke:none" transform="translate(-498.14 3425.117)"/>
    <path d="M161.955-1802.01h262l.12-.037c1.552 0 3.198.276 4.822.919a13.093 13.093 0 0 1 8.278 12.18l-.118.039v147.376l.117-.039a13.092 13.092 0 0 1-13.099 13.1l-.12.039h-262l.118-.039c-1.551 0-3.198-.276-4.821-.92a13.08 13.08 0 0 1-7.36-7.358 13.1 13.1 0 0 1-.92-4.822l-.118.039v-147.376l.119-.04a13.1 13.1 0 0 1 3.837-9.262 13.1 13.1 0 0 1 9.263-3.836zm0 6.55h262l.12-.037a6.554 6.554 0 0 1 6.55 6.549l-.118.039v147.376l.118-.039a6.55 6.55 0 0 1-4.139 6.091 6.6 6.6 0 0 1-2.41.46l-.12.038h-262l.117-.039a6.55 6.55 0 0 1-4.631-1.917 6.555 6.555 0 0 1-1.918-4.632l-.12.038v-147.376l.12-.04a6.55 6.55 0 0 1 1.918-4.63 6.55 6.55 0 0 1 4.63-1.918z" style="fill:#000;fill-opacity:1;fill-rule:evenodd;stroke:none" transform="translate(-498.14 3425.117)"/>
    <path d="M408.075-1761.826a11.46 11.46 0 0 0-9.533-11.3 11.5 11.5 0 0 0-7.737 1.405 11.36 11.36 0 0 0-4.986 6.037 46.81 46.81 0 0 0-.005 32.059 11.4 11.4 0 0 0 4.99 6.047 11.49 11.49 0 0 0 11.388.122 11.47 11.47 0 0 0 5.23-6.197c.453-1.283.653-2.578.653-3.816l.162-.024v-11.462h-11.463v6.55h4.911v4.912l-.057.024a5.01 5.01 0 0 1-4.171 4.944 5.02 5.02 0 0 1-3.387-.62 5 5 0 0 1-2.185-2.653 40.5 40.5 0 0 1 .004-27.712 4.97 4.97 0 0 1 2.184-2.644 5.02 5.02 0 0 1 6.374 1.093 5.02 5.02 0 0 1 1.18 3.235l.058.426h6.552z" style="fill:#000;fill-opacity:1;fill-rule:evenodd;stroke:none" transform="translate(-498.14 3425.117)"/>
    <path d="M512.831-3425.117h191.123l1.21.05 1.199.15 1.186.249 1.16.337 1.136.436 1.086.537 1.036.61.986.712.924.773.861.861.786.923.712.973.624 1.048.537 1.086.437 1.122.35 1.16.261 1.186.15 1.197.05 1.21v117.613l-.037 1.21-.15 1.198-.25 1.185-.35 1.16-.436 1.135-.537 1.085-.612 1.036-.699.985-.786.936-.849.848-.923.786-.986.711-1.036.624-1.086.536-1.136.437-1.149.35-1.185.261-1.211.15-1.21.062H512.83l-1.198-.05-1.21-.15-1.187-.25-1.16-.349-1.124-.436-1.098-.524-1.036-.624-.986-.698-.924-.786-.861-.849-.786-.923-.712-.985-.612-1.036-.536-1.085-.45-1.135-.35-1.148-.249-1.185-.162-1.21-.05-1.21v-117.6l.05-1.21.15-1.21.25-1.185.336-1.16.437-1.123.537-1.085.612-1.048.711-.986.774-.923.861-.86.924-.787.973-.698 1.049-.624 1.086-.536 1.123-.45 1.161-.349 1.186-.25 1.198-.161 1.21-.05z" style="fill:#fee011;fill-opacity:1;fill-rule:nonzero;stroke:none" transform="translate(-498.14 3425.117)"/>
    <path d="m541.103-3360.836-6.64-36.738h6.415l3.994 22.068 5.667-22.068h6.316l5.667 22.068 3.994-22.068h6.415l-6.64 36.738h-6.515l-6.08-23.64-6.078 23.64zM579.971-3397.574v36.738h6.316v-16.08h16.65v16.08h6.317v-36.738h-6.316v14.346h-16.65v-14.346zM618.59-3360.836v-36.738h26.412v6.312h-20.096v6.886h10.91v6.312h-10.91v10.903h20.67v6.325zM653.04-3360.836v-36.738h6.129l16.85 24.687v-24.687h6.316v36.738h-5.754l-17.225-25.261v25.261zM563.058-3342.472h6.329v36.726h-6.329zM609.441-3334.563l-5.742 2.658-.424-.824-.524-.762-.6-.71-.673-.636-.737-.563-.786-.485-.849-.387-.874-.3-.91-.199-.912-.112h-.936l-.924.086-.899.2-.886.288-.836.374-.811.474-.738.561-.673.624-.611.699-.537.76-.437.81-.225.512-.474 1.322-.387 1.349-.287 1.37-.187 1.398-.088 1.397.013 1.41.112 1.41.212 1.385.3 1.372.412 1.348.374 1.01.387.848.487.786.562.735.636.675.712.599.761.523.824.437.861.336.886.263.912.15.923.049.936-.05.912-.136.898-.25.861-.338.824-.423.774-.513.712-.597.636-.662.574-.735.487-.786.237-.5 5.742 2.657-.562 1.085-.649 1.035-.724.975-.811.923-.874.848-.936.774-1.01.698-1.062.598-1.098.525-1.149.437-1.173.336-1.198.237-1.21.138-1.224.036-1.21-.062-1.212-.15-1.198-.26-1.16-.35-1.137-.45-1.098-.548-1.048-.624-.987-.71-.936-.787-.86-.86-.787-.936-.712-.986-.636-1.049-.537-1.098-.212-.486-.55-1.508-.462-1.547-.361-1.572-.275-1.598-.162-1.608-.075-1.61.038-1.61.124-1.608.237-1.597.325-1.585.424-1.56.525-1.521.212-.56.512-1.11.586-1.074.674-1.01.762-.962.822-.898.913-.81.96-.75 1.024-.66 1.074-.587 1.123-.485 1.16-.4 1.174-.299 1.21-.2 1.212-.1h1.223l1.21.1 1.211.188 1.186.298 1.161.387 1.123.487 1.074.562 1.023.66.974.748.911.812.836.886.762.96.674 1.01.599 1.061zM638.511-3320.666l15.216-21.806h-7.702l-10.672 15.294-10.684-15.294h-7.701l15.227 21.806v14.92h6.316z" style="fill:#000;fill-opacity:1;fill-rule:nonzero;stroke:none" transform="translate(-498.14 3425.117)"/>
    <path d="M703.954-3416.31H512.83l-.761.05-.75.15-.723.249-.687.337-.636.424-.574.499-.512.574-.424.636-.35.686-.25.724-.15.748-.062.761v117.588l.05.76.15.75.25.723.337.686.424.649.5.574.573.499.637.436.687.337.723.25.75.162.76.05h191.161l.761-.05.749-.15.724-.25.686-.336.65-.424.574-.5.499-.573.437-.636.337-.687.25-.723.15-.749.062-.76v-117.575l-.05-.774-.15-.748-.25-.724-.337-.686-.424-.636-.5-.574-.573-.511-.637-.425-.687-.349-.723-.25-.75-.15-.76-.061zm-191.123-5.876h191.123l1.073.05 1.074.15 1.06.25 1.024.349.999.436.948.524.887.612.836.686.774.76.686.836.624.885.525.95.436.985.35 1.035.25 1.048.162 1.073.05 1.085v117.588l-.05 1.085-.15 1.073-.25 1.048-.337 1.023-.436.998-.525.948-.611.886-.7.836-.76.773-.837.686-.886.624-.949.524-.986.436-1.023.35-1.061.25-1.074.161-1.073.05H512.83l-1.073-.05-1.074-.15-1.06-.249-1.024-.338-.986-.435-.949-.524-.898-.611-.837-.7-.761-.76-.7-.823-.61-.899-.537-.948-.437-.985-.35-1.023-.25-1.048-.15-1.085-.062-1.073v-117.588l.05-1.085.15-1.073.25-1.06.35-1.023.436-.986.524-.948.612-.898.686-.836.762-.761.836-.699.886-.61.949-.537.986-.437 1.036-.35 1.048-.249 1.074-.15 1.086-.061z" style="fill:#000;fill-opacity:1;fill-rule:nonzero;stroke:none" transform="translate(-498.14 3425.117)"/>
  </g>
</svg>
