<svg xmlns="http://www.w3.org/2000/svg" viewBox="0 0 189.51 189.512" role="img" aria-labelledby="title">
  <title id="title">Verkehrszeichen W2-V116 - Watch for Oncoming Traffic (used in VIC)</title>
  <g style="display:inline">
    <path d="M-129.656-508.804a15.801 15.801 0 0 0-14.684 9.979 15.8 15.8 0 0 0-1.108 5.813v157.928a15.8 15.8 0 0 0 4.625 11.167 15.8 15.8 0 0 0 11.167 4.625H28.27a15.8 15.8 0 0 0 11.168-4.625 15.802 15.802 0 0 0 4.625-11.168v-157.927a15.8 15.8 0 0 0-15.793-15.793z" style="fill:#fee011;fill-opacity:1;fill-rule:evenodd;stroke:none" transform="translate(145.448 508.804)"/>
    <path d="M-129.656-506.278a13.27 13.27 0 0 0-9.38 3.885 13.25 13.25 0 0 0-3.886 9.382v157.926a13.265 13.265 0 0 0 13.266 13.267H28.27a13.27 13.27 0 0 0 9.38-3.886 13.3 13.3 0 0 0 2.955-4.497c.65-1.644.93-3.313.93-4.884v-157.926c0-1.572-.28-3.24-.93-4.883a13.3 13.3 0 0 0-2.955-4.499 13.264 13.264 0 0 0-9.38-3.885zm0 5.054H28.27c.973 0 2.004.174 3.023.578a8.2 8.2 0 0 1 4.612 4.612 8.2 8.2 0 0 1 .576 3.023v157.926a8.2 8.2 0 0 1-2.405 5.807 8.2 8.2 0 0 1-5.806 2.407h-157.925a8.2 8.2 0 0 1-3.024-.577 8.23 8.23 0 0 1-4.612-4.613 8.2 8.2 0 0 1-.576-3.024v-157.926a8.22 8.22 0 0 1 2.405-5.808 8.2 8.2 0 0 1 5.807-2.405" style="fill:#000;fill-opacity:1;fill-rule:evenodd;stroke:none" transform="translate(145.448 508.804)"/>
    <path d="M-119.97-402.31a18.9 18.9 0 0 0-1.466 8.202 18.9 18.9 0 0 0 1.466 8.202 2.53 2.53 0 0 0 2.299 1.22 2.53 2.53 0 0 0 2.298-1.22 18.9 18.9 0 0 0 1.468-8.202 19 19 0 0 0-1.088-7.23 23 23 0 0 0-.183-.49 16 16 0 0 0-.197-.483 2.6 2.6 0 0 0-.418-.522 2.52 2.52 0 0 0-1.879-.697v-3.56a5.91 5.91 0 0 1 5.485 3.254 24.1 24.1 0 0 1 1.846 9.728 24.1 24.1 0 0 1-1.846 9.727 5.92 5.92 0 0 1-5.486 3.254 5.92 5.92 0 0 1-5.487-3.254 24.1 24.1 0 0 1-1.846-9.727 24.1 24.1 0 0 1 1.846-9.728 5.93 5.93 0 0 1 2.272-2.431 5.9 5.9 0 0 1 3.215-.821v3.557a2.53 2.53 0 0 0-2.299 1.22M-100.847-406.783h-3.46v25.268h3.474v-16.24l6.824 16.24h3.474v-25.268h-3.474v16.275zM-70.735-388.27v.56a7 7 0 0 1-.232 1.564 6.8 6.8 0 0 1-2.1 3.38 6 6 0 0 1-.533.419l-.02.013-.02.015-.02.012-.02.014-.012.009-.012.009-.013.008-.012.009-.051.032q-.05.034-.103.067a6.688 6.688 0 0 1-.652.354 6.4 6.4 0 0 1-.959.357 6.3 6.3 0 0 1-2.094.217 6.27 6.27 0 0 1-3.739-1.571 7.3 7.3 0 0 1-2.075-3.322 32.6 32.6 0 0 1-1.105-8.002 32.6 32.6 0 0 1 1.105-8.002 7.3 7.3 0 0 1 2.075-3.321 6.26 6.26 0 0 1 3.74-1.572 6.23 6.23 0 0 1 3.908 1.062 6.74 6.74 0 0 1 2.112 2.343c.528.969.798 2.028.832 3.073h-3.455a3.07 3.07 0 0 0-.783-1.978 2.94 2.94 0 0 0-1.862-.958c-1.479-.162-2.844.822-3.193 2.298a26 26 0 0 0-1.002 7.055c.01 2.388.347 4.763 1.002 7.055.349 1.477 1.714 2.459 3.193 2.298a2.93 2.93 0 0 0 1.862-.959c.52-.577.766-1.295.783-1.976v-.561zM-61.254-402.31l-.013.03-.012.03-.013.03-.012.03-.049.12-.097.242q-.095.244-.183.49a18.5 18.5 0 0 0-.811 3.046 19 19 0 0 0-.276 4.184 18.9 18.9 0 0 0 1.466 8.202 2.52 2.52 0 0 0 2.299 1.22 2.53 2.53 0 0 0 2.298-1.22 18.9 18.9 0 0 0 1.468-8.202 18.9 18.9 0 0 0-1.468-8.203 2.527 2.527 0 0 0-2.297-1.22v-3.559a5.93 5.93 0 0 1 3.215.823 5.9 5.9 0 0 1 1.855 1.732 7 7 0 0 1 .322.522l.048.089.022.045.011.02.013.023.014.037.015.036.015.035.013.036q.031.071.06.143a21 21 0 0 1 .33.87 24.005 24.005 0 0 1 1.399 8.571 24.1 24.1 0 0 1-1.846 9.727 5.92 5.92 0 0 1-5.487 3.254 5.92 5.92 0 0 1-5.487-3.254 24.1 24.1 0 0 1-1.846-9.727 24.1 24.1 0 0 1 1.846-9.728 5.94 5.94 0 0 1 2.272-2.431 5.9 5.9 0 0 1 3.215-.821v3.557a2.53 2.53 0 0 0-1.317.292 2.5 2.5 0 0 0-.892.79l-.047.068-.022.037c-.007.012-.014.02-.021.033M-37.378-381.515l-4.729-14.547v14.547h-3.482v-25.268h3.667l4.544 13.98 4.544-13.98h3.668v25.268h-3.483v-14.547zM-21.329-406.783h3.538v25.268h-3.538M-6.494-406.783h-3.46v25.268h3.474v-16.24l6.823 16.24h3.474v-25.268H.343v16.275zM23.616-387.702a6.5 6.5 0 0 1-.421 2.422 6.4 6.4 0 0 1-1.436 2.235 6.2 6.2 0 0 1-2.205 1.44 6.1 6.1 0 0 1-2.374.402c-2.626.035-4.991-1.619-5.909-4.134a26.5 26.5 0 0 1-1.425-8.8 26.7 26.7 0 0 1 .793-6.646 29 29 0 0 1 .457-1.607l.086-.267.044-.13.011-.033.012-.033.01-.033.012-.033.005-.012.005-.014.005-.014.005-.013.02-.053c.015-.039.026-.069.043-.106a6.25 6.25 0 0 1 .818-1.444 6.3 6.3 0 0 1 1.413-1.366 6.14 6.14 0 0 1 3.595-1.112 6.1 6.1 0 0 1 2.374.404 6.2 6.2 0 0 1 2.205 1.44 6.4 6.4 0 0 1 1.436 2.236 6.5 6.5 0 0 1 .421 2.42l-3.441.008a3.04 3.04 0 0 0-.758-1.938 2.92 2.92 0 0 0-1.808-.974 2.9 2.9 0 0 0-1.995.459 3.049 3.049 0 0 0-1.225 1.671 28 28 0 0 0-.777 3.565 28 28 0 0 0-.305 3.636 28 28 0 0 0 .305 3.636q.272 1.813.777 3.563c.413 1.422 1.78 2.326 3.22 2.132a2.95 2.95 0 0 0 1.808-.973 3.05 3.05 0 0 0 .758-1.942v-2.69h-2.843v-3.881h6.284v6.58M-106.11-366.986h-15.414v4.043h5.72v21.226h3.977v-21.226h5.717zM-99.95-341.717v-25.268h3.953v10.178h5.701a2.98 2.98 0 0 0 1.99-.97 3.12 3.12 0 0 0 .808-2.097c0-1.615-1.223-2.956-2.798-3.069h-5.698v-4.042h5.698a6.8 6.8 0 0 1 4.214 1.575 7.06 7.06 0 0 1 2.37 3.896 7.17 7.17 0 0 1-.482 4.562 6.97 6.97 0 0 1-3.132 3.29l4.305 11.945h-4.235l-4.138-11.047h-4.603v11.047zM-78.335-341.717h4.22l2.334-6.947h8.116l-1.359-4.041h-5.398l2.7-8.038 6.392 19.026h4.22l-8.49-25.268h-4.245zM-35.136-366.986H-50.55v25.27h3.98v-11.118h7.227v-4.044h-7.228v-6.065h11.435zM-13.564-366.986h-15.413v25.27H-25v-11.118h7.228v-4.044H-25v-6.065h11.435zM-7.405-366.986h3.917v25.27h-3.917M16.429-348.667l3.693 1.462a8.2 8.2 0 0 1-2.607 3.85 8 8 0 0 1-4.253 1.772 7.95 7.95 0 0 1-4.51-.884 8.13 8.13 0 0 1-3.303-3.253 17.1 17.1 0 0 1-2.12-6.38 18 18 0 0 1-.122-1.683 15 15 0 0 1-.004-.558q-.006-.558.027-1.12a17.346 17.346 0 0 1 .524-3.346c.383-1.47.957-2.868 1.694-4.156a8.2 8.2 0 0 1 3.254-3.214 8.04 8.04 0 0 1 8.689.665 8.3 8.3 0 0 1 2.745 3.672l-3.713 1.495a4.22 4.22 0 0 0-1.45-1.922 4.1 4.1 0 0 0-2.25-.8 4.16 4.16 0 0 0-3.932 2.361 12.03 12.03 0 0 0-1.556 6.365 12.03 12.03 0 0 0 1.556 6.364c.734 1.571 2.351 2.514 4.055 2.36s3.132-1.371 3.582-3.05M-100.94-472.703l-1.882-13.675h-4.014l3.479 25.267h3.716l3.86-16.017 3.861 16.017h3.715l3.479-25.267h-4.014l-1.882 13.675-3.295-13.675h-3.727zM-80.309-461.11h4.22l2.334-6.945h8.116l-1.358-4.044h-5.4l2.7-8.036 6.393 19.025h4.22l-8.49-25.268h-4.245zM-39.655-486.378h-15.414v4.042h5.72v21.225h3.977v-21.225h5.717zM-22.148-468.06l3.693 1.461a8.2 8.2 0 0 1-2.608 3.85 7.97 7.97 0 0 1-4.253 1.771 7.93 7.93 0 0 1-4.511-.885 8.1 8.1 0 0 1-3.303-3.25 17.1 17.1 0 0 1-2.245-8.622 17.03 17.03 0 0 1 2.245-8.621c1.562-2.783 4.555-4.402 7.694-4.16a8.05 8.05 0 0 1 4.249 1.611 8.27 8.27 0 0 1 2.745 3.672l-3.711 1.495a4.24 4.24 0 0 0-1.452-1.923 4.13 4.13 0 0 0-2.248-.799c-1.657-.08-3.2.849-3.934 2.36a12.05 12.05 0 0 0-1.556 6.365 12.05 12.05 0 0 0 1.556 6.365c.734 1.571 2.352 2.514 4.055 2.359 1.704-.153 3.134-1.37 3.584-3.049M-11.48-486.378v25.267h3.953v-11.117h9.021v11.117h3.954v-25.267H1.494v10.107h-9.02v-10.107zM-65.839-446.581h-15.414v25.268h3.98v-11.117h7.227v-4.044h-7.228v-6.064h11.435zM-52.665-442.823h-.02l-.019-.001h-.115c-.054 0-.101 0-.155.004a4.065 4.065 0 0 0-.949.154 4.15 4.15 0 0 0-2.176 1.492 4.2 4.2 0 0 0-.609 1.124 19.542 19.542 0 0 0-.4 1.502 19.3 19.3 0 0 0-.455 4.646q-.019.777.027 1.557a19 19 0 0 0 .828 4.59 4.165 4.165 0 0 0 4.043 2.775 4.12 4.12 0 0 0 2.464-.725c.375-.257.7-.57.968-.924q.2-.264.355-.549.15-.284.255-.576a18 18 0 0 0 .399-1.501q.17-.762.279-1.537c.142-1.033.201-2.073.176-3.11.05-2.082-.239-4.16-.854-6.148a4.2 4.2 0 0 0-1.577-2.05 4.13 4.13 0 0 0-2.464-.723v-4.07a8.3 8.3 0 0 1 2.686.465 8.4 8.4 0 0 1 2.527 1.409 8.5 8.5 0 0 1 1.912 2.187c.5.822.839 1.69 1.038 2.553.51 2.086.763 4.229.753 6.377a26 26 0 0 1-.753 6.377 8.6 8.6 0 0 1-1.038 2.553 8.5 8.5 0 0 1-4.44 3.598 8.5 8.5 0 0 1-2.357.455l-.165.006h-.103l-.021.002h-.081l-.02-.001h-.02l-.083-.001-.165-.006a8.363 8.363 0 0 1-4.885-1.865 8.5 8.5 0 0 1-1.912-2.188 8.6 8.6 0 0 1-1.038-2.553 26 26 0 0 1-.754-6.377 26.2 26.2 0 0 1 .754-6.377 8.6 8.6 0 0 1 1.038-2.553 8.5 8.5 0 0 1 4.438-3.596 8.4 8.4 0 0 1 2.688-.465zM-37.065-421.313v-25.268h3.954v10.18h5.7c.7-.05 1.431-.359 1.99-.972.56-.61.809-1.38.809-2.096 0-1.616-1.223-2.957-2.799-3.069h-5.697v-4.043h5.697a6.8 6.8 0 0 1 4.215 1.576 7.06 7.06 0 0 1 2.371 3.897 7.2 7.2 0 0 1-.483 4.562 6.97 6.97 0 0 1-3.132 3.287l4.304 11.946h-4.234l-4.138-11.045h-4.603v11.045z" style="fill:#000;fill-opacity:1;fill-rule:evenodd;stroke:none" transform="translate(145.448 508.804)"/>
  </g>
</svg>
