<svg xmlns="http://www.w3.org/2000/svg" viewBox="0 0 815.864 815.864" role="img" aria-labelledby="title">
  <title id="title">Verkehrszeichen W5-SA110 - Creeks (used in SA)</title>
  <g transform="translate(585.209 4020.218)">
    <rect width="600" height="600" x="2128.918" y="2379.626" rx="40" ry="40" style="fill:#fee011;fill-opacity:1;stroke:none;stroke-width:8;stroke-linejoin:miter;stroke-miterlimit:4;stroke-dasharray:none;stroke-dashoffset:0;stroke-opacity:1" transform="rotate(-45)scale(1 -1)"/>
    <rect width="584" height="584" x="2136.918" y="2387.626" rx="32" ry="32" style="fill:#000;fill-opacity:1;stroke:none;stroke-width:8;stroke-linejoin:miter;stroke-miterlimit:4;stroke-dasharray:none;stroke-dashoffset:0;stroke-opacity:1" transform="rotate(-45)scale(1 -1)"/>
    <rect width="552" height="552" x="2152.919" y="2403.626" rx="16" ry="16" style="fill:#fee011;fill-opacity:1;stroke:none;stroke-width:8;stroke-linejoin:miter;stroke-miterlimit:4;stroke-dasharray:none;stroke-dashoffset:0;stroke-opacity:1" transform="rotate(-45)scale(1 -1)"/>
    <path d="m-451.278-3684.287-2.12.164-1.957.326-1.958.326-1.956.49-1.794.489-1.794.652-1.793.815-1.632.815-1.63.979-1.468.979-1.468 1.305-1.468 1.14-1.468 1.468-1.304 1.468-1.141 1.468-1.305 1.63-1.142 1.795-1.14 1.956-1.958 3.915-.816 2.282-.979 2.284-.65 2.282-.816 2.447-1.305 5.219-.49 2.771-.978 5.871-.49 3.1-.326 3.261-.326 6.524-.327 7.174v10.6l.164 3.263.326 6.196.326 5.871.326 2.773.979 7.827.49 2.447 1.468 6.85.489 1.956.651 2.12.653 1.794.163.652 2.283 5.545 1.305 2.447 1.304 2.282 1.468 2.121 1.468 1.956 3.261 3.589 1.795 1.467 1.956 1.468 1.957 1.142 2.12 1.141 2.12.815 2.284.815 2.282.653 2.447.326 2.609.326 2.61.163h3.913l2.61-.326 2.772-.49 2.447-.489 2.445-.815 2.447-.978 2.12-1.141 2.283-1.305 3.914-3.262 1.794-1.794 1.63-1.956 1.468-1.794 1.305-2.12 1.142-2.12.977-2.284 1.632-4.892.652-2.609.653-5.545.163-2.936.163-2.609h-19.245l-.163 2.935-.488 2.773-.652 2.446-.816 2.447-1.305 2.119-1.142 1.794-1.956 2.121-2.12 1.467-2.12 1.142-2.447.652-2.608.326h-1.795l-1.468-.326-1.468-.326-1.467-.653-1.305-.652-1.305-.979-1.141-.977-1.14-1.142-1.143-1.468-.978-1.468-.98-1.63-.977-1.795-.815-1.957-1.631-4.566-.653-2.446-.49-2.61-.652-2.771-.49-2.937-.325-3.098-.488-3.26-.164-3.426-.326-3.588-.163-3.75-.163-3.914v-8.807l.163-3.098v-2.936l.163-2.772.653-5.545.163-2.447.488-2.608.326-2.284.49-2.446.652-2.12.163-.653.816-3.424 1.142-2.935 1.141-2.61 1.304-2.445 1.468-1.958 1.631-1.794 1.63-1.467 1.795-1.142 1.794-.815 1.956-.653 2.12-.163h.816l2.446.163 2.447.653 2.445.978 2.12 1.469 2.12 1.793v.163l1.794 2.12 1.469 2.446.978 2.283.651 2.446.163 1.957h19.082l-.163-2.934-.163-2.774-.98-5.218-.815-2.609-.815-2.283-1.14-2.284-1.306-2.283-1.305-1.957-1.631-2.12-1.793-1.794v-.163l-1.958-1.793-1.957-1.468-2.12-1.468-2.283-1.305-2.282-1.14-2.284-.816-2.446-.816-2.61-.489-2.771-.326-2.773-.327h-2.12zm548.407 0-2.61.164-2.608.163-2.61.489-2.446.653-2.447.815-2.282.978-2.447 1.141-2.12 1.469-2.283 1.468-2.12 1.793-.653.489-1.956 1.958-1.794 2.119-1.632 1.957-1.466 2.284-1.142 2.12-.979 2.446-.816 2.446-.489 2.446-.326 2.609-.163 2.61v3.424l.326 2.773.326 2.609.653 2.609.815 2.446.979 2.447.816 1.956 1.303 2.447 1.468 2.283 3.263 4.24 1.793 1.794 1.957 1.631 1.142.979 2.283 1.303 4.566 2.937 2.283 1.305 4.567 2.934 2.445 1.305 2.284 1.467.49.326 2.12 1.632 3.913 3.587 1.63 2.12 1.468 1.958 1.468 2.283 1.142 2.283.978 2.446.978 2.61.653 2.771.652 2.61.164 2.61v4.565l-.49 2.61-.652 2.609-.98 2.283-1.14 2.283-1.468 2.12-1.957 1.958-1.956 1.467-2.284 1.142-2.446.815-2.61.326-1.794.164-3.098-.327-2.772-.489-2.446-.816-2.121-.978-1.956-1.467-1.468-1.794-.163-.164-1.142-1.794-.978-1.956-.815-2.284-.653-2.445-.49-2.773-.162-3.098-.163-3.263v-.326H54.89v2.936l.163 2.935.327 2.936.489 2.609.49 2.773 1.63 4.892 1.957 4.566 1.142 2.12 1.303 2.12 1.468 1.958 1.632 1.793 2.445 2.447 1.958 1.63 2.119 1.468 2.12 1.305 2.284 1.141 2.446.978 2.446.815 2.446.653 2.61.326 2.772.326 2.773.163h3.75l2.772-.326 2.61-.49 2.445-.489 2.61-.815 2.283-.814 2.284-1.142 2.283-1.305 2.12-1.468 3.913-3.262.326-.326 1.795-1.957 1.468-1.956 1.467-2.12 1.305-2.12 1.141-2.12.98-2.446.815-2.447.65-2.447.653-2.609.653-5.545v-5.87l-.163-2.446-.326-2.447-.327-2.282-.977-4.566-.653-2.284-.815-2.284-.816-2.119-1.957-4.24-1.14-1.957-1.306-2.121-2.936-3.914-1.467-1.793-1.631-1.957-1.794-1.794-1.956-1.793-1.958-1.632-2.12-1.794-2.12-1.63-2.284-1.631-2.282-1.468-2.61-1.63-2.445-1.468-5.545-2.937-2.284-1.303-1.956-1.631-1.631-1.632-1.305-2.119-.98-2.12-.813-2.446-.327-2.61-.163-2.12.327-2.61.652-2.283 1.304-2.282 1.63-2.12 1.469-1.143 2.12-1.63 2.446-1.305 2.282-.815 2.61-.326 1.142-.164 2.283.327 2.283.815 2.12 1.468 2.283 1.956.816.816 1.793 2.284 1.305 2.445.979 2.284.49 2.284.162 1.303h19.08l-.326-5.544-.49-2.609-.652-2.61-.814-2.445-.816-2.284-1.142-2.282-1.305-2.284-1.468-2.12-1.63-1.957-.978-.979-1.958-1.793-1.956-1.631-2.12-1.468-2.283-1.305-2.284-1.14-2.283-.98-2.609-.652-2.447-.49-2.772-.325-2.61-.164zm-473.723 2.774v138.618h18.917v-64.254h18.102l18.265 64.254h20.548l-19.896-67.515 2.284-.98 2.282-1.141 1.958-1.468 1.957-1.63 1.793-1.795 1.795-2.12 1.468-2.283 1.14-1.957 1.305-2.445.979-2.447.979-2.609.652-2.447.653-2.609.325-2.61.163-2.608.163-2.447-.326-5.219-.488-2.608-.49-2.447-.652-2.609-.979-2.446-.979-2.446-1.142-2.284-2.934-4.566-.327-.49-1.957-2.445-1.793-2.12-2.12-1.795-1.957-1.63-2.12-1.468-4.567-1.957-2.283-.49-2.283-.326-2.12-.161zm111.543 0v138.618h69.31v-19.57h-50.393v-45.663h29.519v-19.08h-29.519v-34.736h48.11v-19.57zm106.159 0v138.618h69.31v-19.57h-50.393v-45.663h29.518v-19.08h-29.518v-34.736h48.11v-19.57zm105.995 0v138.618h19.407v-43.38l13.21-23.158 22.83 66.538h20.385l-30.822-89.206 27.235-49.412H-3.484l-30.006 54.957v-54.957zm-304.78 19.895h24.463l2.282.163 2.12.488 1.958.816 1.63 1.305 1.305 1.468 1.142 1.956.816 2.284.65 2.61.327 2.935.163 2.935-.163 2.936-.49 2.608-.65 2.61-.98 2.283-.815 1.305-1.631 2.284-1.956 1.63-2.12 1.141-2.446.653h-25.605z" style="fill:#000;fill-opacity:1;fill-rule:evenodd;stroke:none"/>
  </g>
</svg>
