<svg xmlns="http://www.w3.org/2000/svg" viewBox="0 0 1021.33 1021.33" role="img" aria-labelledby="title">
  <title id="title">Verkehrszeichen W5-V102 - Rough Surface (used in VIC)</title>
  <g transform="translate(0 442.66)">
    <rect width="750" height="750" x="-61.992" y="34.181" rx="50" ry="50" style="fill:#fddc04;fill-opacity:1;fill-rule:evenodd;stroke:none;stroke-width:5.67811;stroke-linecap:round;stroke-linejoin:round" transform="rotate(-45)"/>
    <rect width="730" height="730" x="-51.992" y="44.181" rx="40" ry="40" style="fill:#000;fill-rule:evenodd;stroke:none;stroke-width:5.52669;stroke-linecap:round;stroke-linejoin:round" transform="rotate(-45)"/>
    <rect width="690" height="690" x="-31.992" y="64.181" rx="20" ry="20" style="fill:#fddc04;fill-opacity:1;fill-rule:evenodd;stroke:none;stroke-width:5.22386;stroke-linecap:round;stroke-linejoin:round" transform="rotate(-45)"/>
    <path d="M348.837-7.995H328.24l-19.344-52.12H286.15v52.12h-18.985v-120h39.582q13.254 0 21.314 3.94 8.06 3.761 13.074 12.18 5.194 8.417 5.194 17.551 0 9.493-5.194 18.09-5.194 8.418-13.433 12.18zm-21.493-86.329q0-10.03-10.03-13.79-2.507-.896-8.418-.896H286.15v29.552h22.746q6.986 0 10.926-2.15 7.522-4.298 7.522-12.716M446.184-67.815q0 33.492-14.328 50.328-10.21 11.642-27.762 11.642-23.82 0-34.388-21.493-8.418-17.194-8.418-40.477 0-30.985 13.075-48.717 9.85-13.433 30.627-13.433 22.567 0 33.313 21.314 7.881 16.12 7.881 40.836m-18.806 0q0-21.493-7.164-33.672-5.194-8.597-15.582-9.134-13.075-.717-19.344 14.686-4.656 11.463-4.656 28.12 0 21.492 7.164 33.313 5.552 9.314 16.298 9.314 12.538 0 18.627-15.224 4.657-11.642 4.657-27.403M549.262-50.98q0 14.15-5.552 24.896-4.477 8.955-14.328 14.687-9.851 5.552-20.955 5.552-11.105 0-20.956-5.552-9.85-5.732-14.507-14.687-5.373-10.746-5.373-24.895v-77.016h18.985v77.016q0 11.641 5.91 18.806 6.09 6.985 15.94 6.985 9.851 0 15.762-6.985 6.09-7.165 6.09-18.806v-77.016h18.984zM651.804-43.815q0 16.477-10.747 27.224T613.833-5.845q-25.254 0-35.82-21.85-7.881-16.837-7.881-40.12 0-14.508 3.582-27.762 3.761-13.253 9.85-20.955 10.568-13.433 30.807-13.433 13.79 0 22.567 6.269 8.776 6.09 14.866 20.239l-18.09 7.164q-3.94-8.06-8.239-11.105-4.298-3.223-11.104-3.223-14.329 0-20.24 14.686-4.656 11.463-4.656 28.12 0 21.671 5.91 32.955 5.015 9.672 16.299 9.672 9.313 0 15.224-5.194t5.91-13.433v-5.015h-21.85v-18.985h40.836zM754.165-7.995H735.18v-52.12h-43.702v52.12h-18.985v-120h18.985v48.537h43.702v-48.537h18.985z" style="font-size:179.105px;line-height:1.25;font-family:&quot;Roadgeek 2000 Series D&quot;;-inkscape-font-specification:&quot;Roadgeek 2000 Series D&quot;;text-align:center;letter-spacing:-5.28px;text-anchor:middle;fill:#000;fill-rule:evenodd;stroke:none;stroke-width:.93284"/>
    <path d="M247.837 137.439q0 17.014-11.821 27.403-10.567 9.313-26.15 9.313-15.044 0-26.507-8.418-10.925-7.88-17.194-21.85l18.09-6.807q7.88 17.732 25.612 17.732 8.238 0 13.433-5.015 5.194-5.015 5.194-12.717 0-10.209-11.284-16.12-11.463-4.298-22.926-8.775-23.104-9.314-23.104-29.91 0-32.24 37.433-32.24 24.358 0 34.209 24.359l-16.836 5.014q-1.612-2.865-3.94-5.014-5.373-5.195-13.791-5.553-7.88-.179-12.896 2.687-6.269 3.761-5.731 11.283.716 8.598 15.94 13.612 22.388 7.523 27.582 10.926 14.687 9.85 14.687 30.09M348.728 129.02q0 14.15-5.553 24.896-4.477 8.955-14.328 14.687-9.85 5.552-20.955 5.552t-20.956-5.552q-9.85-5.732-14.507-14.687-5.373-10.746-5.373-24.895V52.005h18.985v77.016q0 11.641 5.91 18.806 6.09 6.985 15.94 6.985 9.851 0 15.762-6.985 6.09-7.165 6.09-18.806V52.005h18.985zM458.036 172.005H437.44l-19.343-52.12h-22.747v52.12h-18.985v-120h39.582q13.254 0 21.314 3.94 8.06 3.761 13.075 12.18 5.194 8.417 5.194 17.551 0 9.493-5.194 18.09-5.195 8.418-13.433 12.18zm-21.493-86.329q0-10.03-10.03-13.79-2.507-.896-8.417-.896h-22.747v29.552h22.747q6.985 0 10.925-2.15 7.522-4.298 7.522-12.716M551.777 70.99h-55.523v29.552h34.926v19.343h-34.926v52.12H477.27v-120h74.508zM659.294 172.005h-20.06l-11.82-33.672H589.98l-11.821 33.672h-20.24l41.195-120H618.1zm-38.686-53.015-11.821-33.672-12.18 33.672zM755.707 147.647q-10.746 26.508-36.18 26.508-25.611 0-36.716-21.493-8.776-17.194-8.776-40.836 0-31.701 13.433-48.358 10.746-13.433 30.806-13.433 25.791 0 37.433 24.359l-17.731 7.522q-5.015-7.522-8.956-10.03t-10.746-2.507q-14.328 0-20.239 14.686-4.656 11.463-4.656 27.761 0 21.672 7.522 33.672 5.91 9.314 18.09 9.314 12 0 18.627-13.97zM855.165 172.005h-74.508v-120h70.747V70.99h-51.761v29.552h34.925v19.343h-34.925v32.777h55.522z" style="font-size:179.105px;line-height:1.25;font-family:&quot;Roadgeek 2000 Series D&quot;;-inkscape-font-specification:&quot;Roadgeek 2000 Series D&quot;;text-align:center;letter-spacing:-1.02px;text-anchor:middle;fill:#000;fill-rule:evenodd;stroke:none;stroke-width:.93284"/>
  </g>
</svg>
