<svg xmlns="http://www.w3.org/2000/svg" viewBox="0 0 132.5 176.669" role="img" aria-labelledby="title">
  <title id="title">Verkehrszeichen W5-V110 - Tram Speed (used in VIC and Gold Coast, Queensland)</title>
  <path d="M14.73 176.669h103.05l1.08-.039 1.08-.119 1.07-.201 1.05-.27 1.03-.359.99-.432.97-.5.92-.568.88-.631.83-.699.77-.762.72-.809.66-.871.59-.91.52-.949.45-.99.38-1.01.3-1.051.22-1.059.14-1.07.07-1.09V14.73l-.04-1.09-.12-1.08-.19-1.06-.28-1.05-.35-1.03-.43-1-.5-.96-.57-.92-.64-.88-.7-.83-.76-.78-.81-.72-.87-.65-.91-.59-.95-.52-.98-.45-1.02-.38-1.04-.3-1.07-.22-1.07-.15-1.09-.06-.33-.01H14.73l-1.09.04-1.08.12-1.06.2-1.05.28-1.03.35-1 .43-.96.5-.92.57-.88.64-.831.7-.78.75-.72.82-.649.86-.59.91-.52.95-.46.99-.37 1.02-.3 1.04-.22 1.06-.15 1.08-.06 1.08-.01.34v147.22l.04 1.08.12 1.08.2 1.071.28 1.049.35 1.019.43 1 .5.961.57.93.64.881.699.818.75.781.821.719.86.65.91.6.95.521.99.45 1.02.371 1.04.308 1.06.221 1.08.141 1.08.068z" style="fill:#fee011;fill-opacity:1;fill-rule:evenodd;stroke:none"/>
  <path d="M117.19 7.07H15.31l-.81.04-.8.12-.79.2-.76.27-.73.35-.7.42-.65.48-.6.55-.54.6-.49.66-.41.7-.35.73-.27.77-.19.78-.11.81-.04.76v146.05l.04.809.12.801.2.791.27.76.35.74.42.689.48.651.55.609.6.539.66.481.7.41.73.349.77.272.78.189.81.119.76.032h101.88l.81-.041.81-.12.78-.191.77-.279.73-.35.7-.41.65-.49.6-.551.54-.6.48-.65.42-.699.34-.74.27-.76.2-.789.11-.801.04-.77V15.31l-.04-.81-.12-.8-.2-.79-.28-.76-.34-.73-.42-.7-.49-.65-.54-.6-.61-.54-.65-.49-.7-.41-.73-.35-.77-.27-.79-.19-.8-.11zm.59-4.71H14.73l-1 .04-.99.12-.97.2-.96.27-.93.36-.89.42-.87.5-.82.56-.77.63-.71.69-.66.74-.6.8-.54.84-.46.88-.39.91-.32.94-.24.97-.16.98-.08.99-.01.53v147.22l.04.99.12.991.2.968.27.961.36.93.42.9.5.86.559.82.631.77.69.72.74.661.8.599.83.529.89.461.91.389.94.32.97.241.98.16.99.08.53.01v.009h103.05v-.009l1-.039.98-.112.98-.199.95-.279.93-.352.9-.43.86-.49.82-.57.77-.629.72-.68.66-.75.6-.791.53-.84.47-.878.39-.92.31-.942.24-.959.16-.98.09-1 .01-.52V14.73l-.04-1-.12-.99-.2-.97-.28-.96-.35-.92-.42-.9-.5-.87-.57-.81-.62-.78-.69-.71-.75-.66-.79-.6-.84-.54-.88-.46-.91-.39-.95-.32-.96-.24-.98-.16-.99-.08z" style="fill:#000;fill-opacity:1;fill-rule:evenodd;stroke:none"/>
  <path d="m107.48 117.78-.05-1.81-.12-1.82-.19-1.8-.28-1.8-.36-1.78-.44-1.76-.51-1.74-.59-1.72-.66-1.69-.74-1.66-.81-1.62-.88-1.59-.95-1.55-1.02-1.5-1.08-1.46-1.15-1.41-1.21-1.35-1.26-1.31-1.32-1.24-1.38-1.19-1.42-1.12-1.48-1.06-1.52-1-1.56-.92-1.6-.86-1.64-.79-1.67-.71-1.7-.64-1.72-.56-1.75-.49-1.77-.41-1.79-.33-1.79-.25-1.81-.17-1.82-.09-1.81-.02-1.82.07-1.81.15-1.8.23-1.79.3-1.77.39-1.76.46-1.73.54-1.71.61-1.68.69-1.65.77-1.61.83-1.57.91-1.54.97-1.49 1.04-1.44 1.1-1.39 1.17-1.34 1.23-1.28 1.28-1.23 1.34-1.16 1.4-1.1 1.44-1.04 1.49-.97 1.53-.91 1.58-.83 1.61-.76 1.65-.69 1.68-.61 1.71-.54 1.74-.46 1.75-.38 1.78-.3 1.79-.23 1.8-.14 1.81-.07 1.81.02 1.82.09 1.81.18 1.81.25 1.8.34 1.78.41 1.77.49 1.75.56 1.73.64 1.7.72 1.67.79 1.63.86 1.6.92 1.56 1 1.52 1.06 1.47 1.13 1.43 1.19 1.37 1.25 1.32 1.3 1.26 1.36 1.21 1.41 1.14 1.46 1.08 1.5 1.02 1.55.95 1.59.87 1.63.81 1.66.74 1.69.66 1.72.59 1.74.51 1.76.43 1.78.36 1.8.269 1.8.201 1.82.12 1.81.03 1.82-.04 1.81-.12 1.8-.2 1.8-.28 1.78-.36 1.76-.44 1.74-.52 1.72-.59 1.69-.67 1.65-.74 1.63-.81 1.58-.88 1.55-.96 1.5-1.01 1.46-1.09 1.41-1.15 1.35-1.21 1.3-1.26 1.25-1.33 1.18-1.37 1.12-1.43 1.06-1.47.99-1.53.93-1.56.85-1.6.79-1.64.71-1.67.63-1.7.56-1.73.49-1.75.4-1.77.33-1.79.25-1.79.17-1.81.09-1.82zm5.88 0-.04-1.94-.12-1.94-.2-1.93-.27-1.92-.36-1.91-.44-1.89-.51-1.87-.59-1.85-.67-1.82-.74-1.8-.81-1.76-.89-1.73-.96-1.69-1.02-1.65-1.09-1.6-1.16-1.56-1.22-1.51-1.28-1.46-1.34-1.4-1.4-1.35-1.45-1.29-1.51-1.22-1.55-1.17-1.6-1.1-1.64-1.03-1.69-.97-1.72-.89-1.76-.82-1.79-.75-1.82-.68-1.85-.6-1.86-.52-1.9-.45-1.9-.36-1.92-.29-1.93-.21-1.94-.13-1.94-.05-1.94.03-1.94.11-1.93.19-1.92.27-1.91.35-1.89.43-1.88.5-1.85.58-1.83.66-1.8.73-1.76.81-1.73.88-1.7.94-1.65 1.02-1.61 1.09-1.57 1.14-1.51 1.22-1.47 1.27-1.41 1.34-1.35 1.39-1.3 1.44-1.23 1.5-1.17 1.55-1.11 1.59-1.04 1.64-.97 1.68-.91 1.72-.83 1.75-.76 1.79-.68 1.82-.61 1.84-.53 1.87-.46 1.89-.37 1.9-.3 1.92-.22 1.93-.14 1.93-.06 1.94.03 1.95.1 1.93.18 1.94.26 1.92.34 1.91.41 1.9.5 1.87.57 1.86.65 1.83.72 1.8.8 1.77.87 1.74.94 1.69 1.01 1.66 1.08 1.62 1.14 1.57 1.2 1.52 1.27 1.47 1.33 1.42 1.38 1.36 1.44 1.3 1.49 1.24 1.54 1.18 1.59 1.12 1.64 1.05 1.67.98 1.72.909 1.75.84 1.78.771 1.81.69 1.84.619 1.87.541 1.88.459 1.91.391 1.91.3 1.93.229 1.94.15 1.94.071 1.94-.01 1.94-.1 1.93-.17 1.93-.25 1.91-.33 1.89-.41 1.89-.48 1.85-.571 1.83-.638 1.81-.711 1.77-.789 1.74-.862 1.71-.929 1.66-1 1.62-1.07 1.58-1.14 1.52-1.19 1.48-1.26 1.42-1.32 1.37-1.38 1.31-1.43 1.25-1.49 1.19-1.53 1.12-1.59 1.06-1.63.99-1.67.92-1.71.85-1.74.77-1.78.7-1.81.63-1.84.55-1.86.47-1.88.4-1.91.31-1.91.24-1.93.16-1.93.08-1.94z" style="fill:#000;fill-opacity:1;fill-rule:evenodd;stroke:none"/>
  <path d="M53.89 123.67v-18.4l-11.19 18.4zm6.62 0V94.23h-6.62l-19.14 30.91v4.79h19.14v11.41h6.62v-11.41h2.95v-6.26zM89.36 131.25l-.2.63-.27.61-.34.57-.41.52-.47.47-.52.41-.57.35-.6.27-.64.2-.65.12-.66.05-.67-.04-.65-.11-.64-.2-.6-.27-.57-.34-.53-.4-.47-.47-.42-.52-.35-.56-.27-.61-.21-.63-.01-.05-.47-2.07-.39-2.09-.31-2.1-.23-2.11-.16-2.12-.07-2.12.01-2.12.09-2.13.17-2.11.24-2.11.33-2.1.4-2.09.39-1.66.19-.64.28-.6.34-.57.41-.53.47-.47.52-.41.57-.34.6-.28.63-.2.66-.12.66-.05.66.04.66.12.63.19.61.27.57.34.53.4.47.47.42.52.34.57.28.6.21.63.01.06.47 2.07.39 2.08.31 2.11.23 2.11.15 2.11.08 2.13-.01 2.12-.09 2.12-.17 2.12-.24 2.11-.33 2.09-.41 2.09zm6.43 1.58-.27.95-.35.92-.43.89-.49.85-.56.81-.63.76-.68.71-.74.65-.79.59-.84.52-.87.45-.91.38-.94.31-.96.23-.97.15-.99.07-.98-.01-.98-.09-.97-.17-.96-.25-.93-.32-.9-.4-.87-.47-.82-.53-.78-.61-.73-.66-.67-.73-.61-.77-.55-.82-.48-.86-.4-.9-.33-.93-.21-.72-.49-2.19-.42-2.2-.34-2.22-.26-2.23-.18-2.24-.11-2.24-.02-2.25.06-2.24.14-2.24.22-2.24.3-2.22.37-2.21.46-2.2.27-1.18.28-.94.35-.92.42-.89.5-.86.56-.81.62-.76.69-.71.74-.65.79-.59.84-.52.87-.45.91-.38.94-.3.96-.23.97-.15.98-.07.99.01.98.08.97.17.96.25.93.32.9.4.86.47.83.54.78.6.73.67.67.72.61.77.54.82.48.86.41.9.33.93.2.72.5 2.19.42 2.21.34 2.22.26 2.23.18 2.23.1 2.25.02 2.24-.05 2.24-.14 2.24-.22 2.24-.3 2.22-.37 2.22-.46 2.19zM104.1 33.84v11.88h-2.97V33.84zm-5.93 0v8.91h-8.89v-8.91zm-20.751 0v8.91h8.89v-8.91zm-8.889 0v18.22h5.92V33.84zm-10.48 0v18.22h5.93V33.84zm-11.851 0v8.91h8.89v-8.91zm-11.859 0v8.91h8.89v-8.91zm-5.93 0v11.88h2.96V33.84zm50.85-9.31 14.36-7.33.47-.01.46-.08.44-.16.41-.24.36-.3.3-.36.25-.4.17-.44.09-.46.01-.47-.06-.47-.15-.44-.21-.42-.29-.37-.34-.32-.39-.26-.43-.19-.46-.11-.47-.04-.47.05-.45.12-.42.2-.39.27-.33.33-.28.39-.2.42-.13.45-.06.47.03.47.06.28-18.46 9.42H70.7v3.96H29.2l-4.54 3.37v3.96h1.77v6.93h-1.77v6.93h-2.57v3.57h11.66l-.45.21-.4.28-.36.34-.3.4-.23.44-.15.47-.08.49v.49l.08.49.16.47.23.44.3.39.35.34.41.28.45.21.47.14.5.06.49-.03.48-.1.46-.18.43-.25.38-.31.32-.38.26-.42.2-.45.11-.49.03-.49-.04-.49-.12-.48-.2-.46-.27-.41-.33-.37-.39-.31-.43-.24-.2-.08h9.3l-.44.21-.41.28-.36.34-.29.4-.23.44-.16.47-.08.49v.49l.08.49.16.47.23.44.3.39.35.34.41.28.45.21.48.14.49.06.49-.03.48-.1.46-.18.43-.25.38-.31.33-.38.26-.42.19-.45.11-.49.04-.49-.05-.49-.12-.48-.2-.46-.27-.41-.33-.37-.38-.31-.43-.24-.2-.08h3.95l1.39 3.36h27.07l1.38-3.36h3.96l-.45.21-.4.28-.36.34-.3.4-.23.44-.15.47-.08.49v.49l.08.49.16.47.23.44.3.39.35.34.41.28.45.21.47.14.49.06.5-.03.48-.1.46-.18.43-.25.38-.31.32-.38.26-.42.19-.45.12-.49.04-.49-.05-.49-.12-.48-.2-.46-.27-.41-.33-.37-.39-.31-.43-.24-.2-.08h9.3l-.44.21-.41.28-.36.34-.3.4-.22.44-.16.47-.08.49v.49l.08.49.16.47.23.44.3.39.35.34.41.28.45.21.48.14.49.06.49-.03.48-.1.46-.18.43-.25.38-.31.33-.38.26-.42.19-.45.11-.49.04-.49-.05-.49-.12-.48-.2-.46-.27-.41-.33-.37-.38-.31-.43-.24-.2-.08h11.66v-3.57h-2.57v-6.93h-1.78v-6.93h1.78v-3.96l-4.54-3.37H80.58v-3.96z" style="fill:#000;fill-opacity:1;fill-rule:evenodd;stroke:none"/>
</svg>
