<svg xmlns="http://www.w3.org/2000/svg" viewBox="0 0 396.924 242.435" role="img" aria-labelledby="title">
  <title id="title">Verkehrszeichen W6-V105 - Pedestrian, Cyclist and Equestrian Crossing Ahead (used in VIC)</title>
  <g style="display:inline">
    <path d="M80.22-1443.686h352.823l1.473.05 1.488.15 1.46.25 1.448.348 1.41.437 1.386.536 1.333.637 1.312.71 1.236.812 1.197.885 1.125.96 1.06 1.036.987 1.098.923 1.173.825 1.235.748 1.272.662 1.335.562 1.36.474 1.41.386 1.434.276 1.46.185 1.472.089 1.472v198.859l-.05 1.487-.151 1.471-.249 1.46-.335 1.447-.452 1.408-.536 1.388-.624 1.347-.724 1.296-.797 1.247-.888 1.184-.961 1.135-1.036 1.063-1.11.985-1.174.91-1.223.836-1.285.736-1.324.66-1.373.575-1.41.473-1.422.375-1.463.287-1.473.189-1.484.072-.5.012H80.218l-1.485-.05-1.473-.15-1.46-.249-1.448-.349-1.41-.435-1.386-.54-1.348-.635-1.298-.711-1.248-.809-1.186-.875-1.136-.972-1.061-1.036-.986-1.099-.911-1.171-.837-1.224-.748-1.284-.65-1.334-.574-1.36-.474-1.411-.374-1.432-.288-1.46-.187-1.474-.075-1.472-.012-.512v-198.348l.05-1.485.15-1.472.25-1.46.349-1.446.437-1.41.536-1.385.637-1.347.711-1.297.8-1.248.885-1.185.962-1.135 1.048-1.06 1.098-.986 1.174-.91 1.223-.836 1.286-.736 1.335-.662 1.36-.573 1.411-.474 1.436-.375 1.46-.287 1.473-.187 1.473-.075.511-.013z" style="fill:#fee011;fill-opacity:1;fill-rule:evenodd;stroke:none" transform="translate(-58.164 1443.688)"/>
    <path d="m421.61-1253.906.563 1.096.473 1.148.376 1.174.276 1.208.184 1.224.076 1.235-.012 1.235-.125 1.223-.21 1.221-.313 1.199-.413 1.16-.512 1.135-.312.624-.412.66-.487.6-.561.535-.624.452-.687.371-.724.289-.749.187-.76.1h-4.184v-21.208h3.86l.772.05.76.15.737.237.7.336.648.424.588.512.524.575.436.636zm-13.966-7.96v30.862h8.689l1.036-.049 1.036-.15 1.01-.25.974-.335.949-.439.896-.524.851-.609.785-.687.712-.76.637-.824.424-.663.675-1.247.586-1.296.486-1.335.389-1.36.297-1.383.2-1.411.1-1.411v-1.409l-.1-1.423-.2-1.396-.297-1.398-.389-1.36-.499-1.32-.573-1.299-.475-.911-.55-.885-.624-.823-.711-.76-.775-.7-.837-.624-.897-.536-.936-.438-.975-.36-1.009-.264-1.024-.16-1.049-.065h-8.812zM386.225-1244.502h6.229l-3.108-8.932zm.949-17.365-10.76 30.863h5.105l3.034-8.681h9.586l3.02 8.681h5.105l-10.747-30.863zM353.647-1261.867v30.863h18.823v-4.827h-13.992v-8.67h9.648v-4.827h-9.648v-7.71h13.019v-4.829zM325.775-1261.867v30.863h4.83v-13.498h11.085v13.498h4.83v-30.863h-4.83v12.539h-11.084v-12.539zM304.356-1244.502h6.229l-3.12-8.932zm.95-17.365-10.76 30.863h5.105l3.02-8.681h9.599l3.02 8.681h5.106l-10.76-30.863zM270.943-1240.309l-.038.997-.15.986-.25.961-.349.936-.424.9-.524.834-.612.797-.674.723-.749.652-.811.583-.862.488-.91.4-.95.311-.973.212-.986.113-.999.025-.986-.09-.986-.187-.948-.273-.924-.375-.874-.46-.836-.55-.774-.637-.699-.696-.624-.776-.55-.834-.461-.874-.376-.923-.123-.4-.462-1.707-.362-1.723-.262-1.747-.162-1.76-.063-1.77.038-1.772.124-1.76.238-1.743.337-1.735.424-1.723.15-.5.337-.935.424-.897.512-.86.587-.786.674-.736.748-.66.8-.588.86-.499.912-.411.936-.325.973-.224.987-.125.998-.026.985.076.987.175.961.273.924.363.886.448.824.55.786.625.7.696.636.763.562.824.474.872.373.923.076.2-4.58 1.52-.275-.66-.362-.611-.437-.562-.512-.486-.586-.412-.637-.337-.662-.235-.699-.14-.724-.05-.711.062-.687.163-.674.249-.624.339-.574.424-.5.497-.436.575-.35.61-.262.673-.012.051-.412 1.572-.324 1.596-.225 1.599-.125 1.62-.025 1.635.087 1.623.175 1.608.275 1.61.362 1.583.212.724.25.672.35.624.423.575.5.5.574.436.612.349.674.248.686.164.712.075.71-.04.7-.135.674-.225.637-.324.586-.412.523-.486.45-.55.363-.61.287-.66.187-.688.075-.712.012-.261v-1.299h-5.791v-4.826h10.61zM223.973-1261.867v30.863h4.83v-20.008l11.097 20.008h4.818v-30.863H239.9v20.011l-11.096-20.01zM212.014-1231.004h4.83v-30.863h-4.83zM186.016-1237.725l.35.959.449.936.524.873.624.823.686.76.774.687.824.611.886.537.924.435.974.352.986.26 1.023.152 1.024.06.574-.012h.973l.974-.113.961-.2.936-.287.911-.4.85-.472.798-.563.749-.649.674-.71.587-.773.524-.836.424-.887.337-.92.237-.95.136-.973.04-.984-.05-.975-.163-.972-.25-.948-.35-.911-.448-.872-.525-.823-.611-.776-.687-.711-.749-.624-.811-.548-.861-.46-.911-.388-.937-.276-.96-.187-.363-.036-3.033-.3-.549-.025-.55-.124-.51-.224-.463-.311-.4-.388-.336-.463-.237-.498-.15-.535-.05-.563.05-.685.15-.675.25-.648.336-.612.412-.547.5-.488.549-.412.611-.336.662-.239.674-.136.686-.037.7.061.673.151.65.249.599.351.549.423.487.498.399.563.237.424 4.331-2.109-.463-.847-.56-.812-.637-.747-.711-.675-.774-.611-.824-.524-.886-.424-.924-.35-.948-.25-.962-.149-.986-.05-.973.05-.974.149-.948.25-.924.337-.874.437-.836.524-.774.599-.711.672-.637.751-.562.808-.474.862-.374.897-.288.936-.2.963-.087.972-.012.436.05.899.15.873.25.86.336.823.425.774.524.724.586.672.662.588.724.524.786.424.824.348.849.25.886.15.662.05 2.708.25.687.087.661.187.637.286.587.375.524.448.462.524.374.575.287.636.2.66.1.687v.7l-.1.684-.2.662-.287.624-.374.585-.462.524-.525.45-.586.361-.637.288-.661.187-.687.1-.699-.01-.062-.016-.75.026-.76-.087-.737-.176-.711-.272-.662-.375-.612-.448-.549-.524-.474-.6-.387-.647-.3-.7-.074-.225zM161.651-1237.725l.35.959.449.936.524.873.624.823.687.76.774.687.824.611.873.537.936.435.974.352.999.26 1.01.152 1.024.06.574-.012h.974l.986-.113.949-.2.936-.287.91-.4.85-.472.81-.563.737-.649.674-.71.587-.773.524-.836.425-.887.337-.92.237-.95.137-.973.038-.984-.05-.975-.163-.972-.25-.948-.349-.911-.45-.872-.523-.823-.612-.776-.674-.711-.761-.624-.812-.548-.861-.46-.911-.388-.936-.276-.961-.187-.35-.036-3.045-.3-.55-.025-.549-.124-.512-.224-.461-.311-.4-.388-.337-.463-.237-.498-.15-.535-.05-.563.05-.685.15-.675.25-.648.337-.612.412-.547.499-.488.549-.412.612-.336.661-.239.674-.136.7-.037.686.061.674.151.649.249.599.351.55.423.486.498.4.563.236.424 4.344-2.109-.474-.847-.562-.812-.636-.747-.712-.675-.774-.611-.824-.524-.886-.424-.911-.35-.961-.25-.961-.149-.986-.05-.974.05-.973.149-.95.25-.923.337-.873.437-.837.524-.774.599-.711.672-.637.751-.549.808-.474.862-.387.897-.287.936-.2.963-.087.972-.013.436.05.899.15.873.25.86.337.823.424.774.524.724.587.672.661.588.737.524.774.424.823.348.85.25.885.15.662.05 2.709.25.686.087.662.187.636.286.587.375.524.448.462.524.374.575.287.636.2.66.1.687v.7l-.1.684-.2.662-.287.624-.374.585-.462.524-.524.45-.587.361-.636.288-.662.187-.686.1-.7-.01-.05-.016-.76.026-.762-.087-.737-.176-.711-.272-.662-.375-.611-.448-.55-.524-.474-.6-.387-.647-.3-.7-.074-.225zM142.017-1238.725l.262.649.35.624.437.562.511.484.575.425.636.339.662.236.699.148.711.051.7-.05.698-.15.674-.25.624-.337.574-.423.5-.5.437-.56.349-.611.25-.637.437-1.534.349-1.548.237-1.57.137-1.585.05-1.584-.062-1.586-.15-1.584-.262-1.57-.35-1.549-.386-1.296-.262-.662-.35-.624-.437-.56-.512-.488-.574-.424-.624-.336-.674-.237-.686-.15-.712-.05-.711.05-.7.163-.66.237-.625.335-.574.424-.512.5-.437.563-.35.624-.249.635-.437 1.52-.337 1.548-.25 1.571-.137 1.587-.037 1.583.05 1.596.162 1.572.25 1.571.362 1.547zm-4.593 1.46.35.936.436.884.537.838.599.785.687.723.76.648.812.562.874.486.911.388.949.3.973.211.986.1h.987l.998-.087.974-.2.948-.288.911-.385.874-.474.824-.549.761-.647.687-.713.624-.774.537-.836.45-.885.361-.923.025-.1.487-1.659.387-1.697.287-1.71.187-1.72.087-1.734-.012-1.735-.112-1.72-.213-1.723-.312-1.708-.412-1.683-.374-1.247-.35-.936-.436-.887-.525-.836-.611-.787-.687-.724-.761-.636-.811-.572-.862-.487-.923-.388-.936-.297-.974-.2-.986-.112h-.999l-.986.085-.973.2-.961.288-.912.387-.873.473-.824.562-.762.636-.686.712-.624.773-.537.835-.45.886-.361.925-.025.1-.487 1.671-.374 1.683-.287 1.708-.188 1.723-.087 1.735.012 1.732.113 1.722.212 1.72.3 1.711.411 1.684zM116.117-1249.328h7.277l.612-.051.611-.161.562-.25.524-.325.462-.424.387-.473.3-.55.224-.573.113-.611.025-.624-.088-.611-.174-.6-.263-.548-.362-.513-.424-.448-.5-.363-.56-.284-.588-.2-.611-.088-.175-.013h-7.352zm-4.818-12.539v30.863h4.818v-13.498h6.054l4.743 13.498h5.13l-5.092-14.282.823-.425.774-.511.712-.599.649-.672.574-.739.487-.784.4-.836.311-.887.212-.897.125-.923.013-.936-.075-.923-.187-.912-.275-.884-.375-.862-.461-.797-.55-.763-.624-.685-.686-.623-.762-.548-.798-.452-.862-.371-.886-.276-.911-.187-.924-.076-.262-.012zM105.545-1255.59l-.35-.936-.436-.886-.537-.836-.6-.784-.686-.724-.761-.651-.811-.56-.874-.488-.911-.4-.936-.296-.974-.2-.986-.112h-.999l-.986.085-.986.2-.948.288-.912.374-.873.473-.824.564-.761.635-.7.712-.611.772-.537.836-.387.723-.611 1.435-.525 1.472-.436 1.496-.325 1.523-.237 1.534-.137 1.56-.038 1.56.062 1.558.163 1.547.262 1.533.362 1.524.45 1.483.548 1.46.462 1.047.475.875.549.823.636.772.7.7.773.624.836.536.887.463.923.36.949.275.986.174.986.076.999-.025.986-.124.96-.227.95-.312.898-.409.861-.5.8-.587.748-.66.674-.724.587-.799.512-.848.424-.9.287-.772-4.593-1.46-.275.662-.35.611-.436.56-.512.5-.574.424-.624.339-.662.236-.699.148-.711.051-.712-.05-.686-.15-.674-.25-.624-.337-.575-.423-.511-.488-.425-.56-.362-.623-.012-.037-.55-1.274-.449-1.321-.362-1.347-.262-1.371-.162-1.388-.075-1.396.038-1.398.137-1.383.237-1.385.325-1.359.424-1.323.524-1.299.175-.373.35-.624.424-.562.512-.497.574-.424.624-.352.661-.248.7-.15.698-.062.712.05.699.139.674.248.624.324.574.412.512.5.45.548.349.624.274.647.013.04 4.643-1.472zM103.161-1376.833l-3.27 4.89 2.858 4.902.412-9.38zm31.841 10.603-9.798-6.936-4.081-18.774-3.67-3.256v-2.458l-3.27-.4-2.447-1.633-1.635 1.222-6.129 2.857-9.398 22.03 6.54 16.33-1.223 6.125.412 19.997-9.4 22.03 4.906 3.27 11.434-21.22 3.67-12.65 2.858 8.57 2.047 24.888 6.528.411v-26.933l-5.305-22.442 3.27-16.741 1.623 4.092 10.622 6.524zM124.917-1407.334l-.038-.923-.137-.911-.212-.898-.3-.861-.374-.811-.45-.773-.511-.699-.587-.636-.636-.574-.687-.474-.736-.4-.762-.299-.786-.2-.799-.1-.799-.012-.799.1-.786.187-.774.287-.724.387-.699.474-.649.548-.586.624-.525.699-.461.76-.387.812-.3.86-.225.886-.137.91-.05.924.025.923.125.923.2.886.287.86.374.836.437.761.512.724.574.636.637.574.686.499.724.4.749.311.786.212.8.112.798.025.811-.087.787-.174.761-.287.749-.374.686-.45.662-.548.587-.624.536-.686.475-.761.387-.799.312-.86.237-.874.15-.91.062-.923zM187.8-1362.862l-1.297-.324-1.311-.237-1.323-.125-1.336-.038-1.323.075-1.323.162-1.298.275-1.286.362-1.26.461-1.211.55-1.186.635-1.136.736-1.073.811-1.024.886-.948.973-.886 1.023-.824 1.098-.724 1.16-.662 1.21-.574 1.247-.474 1.298-.387 1.322-.3 1.36-.212 1.372-.112 1.372-.013 1.397.088 1.385.174 1.372.263 1.36.362 1.335.461 1.297.537 1.273.637 1.222.711 1.173.786 1.123.862 1.048.936.985.998.91 1.061.837 1.124.76 1.16.674 1.211.574 1.236.487 1.286.399 1.298.3 1.31.186 1.336.1h1.323l1.323-.1 1.323-.2 1.298-.286 1.273-.4 1.249-.486 1.198-.586 1.173-.661 1.111-.761 1.061-.836.999-.91.936-.986.861-1.06.799-1.111.711-1.173.624-1.235.537-1.26.462-1.31.362-1.334.162-.574h-18.373l.175.125-.612-.062-.587-.162-.574-.25-.512-.337-.474-.424-.387-.486-.324-.55-.238-.598-.137-.624-.05-.636.05-.649.137-.624.238-.586.025-.262 8.575-16.729h-.4zm7.777 4.629.924.997.86 1.06.775 1.124.711 1.185.612 1.222.536 1.273.437 1.31.088.399-8.987-.4 4.081-8.17h-.412m17.15 6.125-9.387-20.41-4.08 7.76-.113.275 1.161 1.072 1.099 1.136 1.036 1.21.948 1.272.874 1.335.799 1.385.724 1.434.624 1.472.536 1.522.449 1.547.312 1.322.525.113h2.047l.05-.075.462-.886.55-.836.623-.786.212-.224zm-1.636-27.344 31.442.411-.324-.274 2.459 5.501-.088.487-20.42 19.174-.375-.25-.873-.424-.924-.337-.686-.175.412-.037zm49.204 19.348 2.82 5.302 2.91 5.265 2.496 4.34.3.562.199.6.125.635.025.636-.075.637-.163.623-.262.574-.337.537-.412.474-.486.411-.525.312-.586.237-.6.125-.611.037-.613-.062-.598-.162-.561-.262-.512-.337-.462-.424-.4-.499-.224-.362-3.008-5.277-2.933-5.314-2.372-4.478-.899.948-.836 1.023-.749 1.085-.674 1.135-.587 1.185-.511 1.235-.412 1.26-.325 1.298-.224 1.31-.138 1.334-.05 1.335.063 1.335.15 1.335.25 1.31.324 1.284.437 1.26.511 1.223.612 1.185.686 1.123.762 1.073.836 1.01.911.948.974.861 1.036.798 1.086.699 1.136.624 1.185.536 1.211.437 1.236.336 1.26.25 1.274.15 1.273.037 1.285-.05 1.274-.15 1.26-.25 1.236-.349 1.21-.449 1.174-.536 1.136-.624 1.073-.711 1.036-.799.974-.86.899-.948.836-1.023.761-1.073.687-1.135.599-1.173.512-1.235.424-1.26.337-1.285.237-1.322.138-1.323.05-1.334-.038-1.335-.15-1.335-.224-1.31-.337-1.297-.425-1.26-.5-1.223-.6-1.185-.672-1.135-.762-1.073-.836-1.023-.899-.948-.973-.873-1.024-.798-1.086-.712-1.135-.636-1.161-.536-1.211-.45-1.236-.348-1.26-.263-1.274-.15-1.285-.061-1.273.05-1.273.137-1.261.237zm-27.96-45.47 15.516.411-.05-.262.836.075.811.163.787.249.761.362.71.436.663.524.6.6.523.66.462.736.362.774.287.81.188.849.087.86v.861l-.1.861-.187.836-.275.823-.374.774-.45.723-.538.661-.535.55.325-.275-3.258 3.268-.25-.1-.4.424-.336.487-.237.549-.15.574-.063.586.038.599.125.586.137.374 2.434 5.502 2.521 5.476 2.609 5.427.611 1.26 1.473-.512 1.498-.424 1.523-.312 1.523-.224 1.548-.125 1.547-.025 1.548.087 1.548.174 1.523.275 1.51.374 1.485.474 1.448.562 1.41.66 1.374.75 1.335.823 1.273.923 1.211.998 1.16 1.073 1.1 1.147 1.01 1.223.949 1.272.874 1.335.786 1.397.711 1.435.625 1.484.524 1.522.437 1.547.35 1.572.249 1.597.162 1.609.062 1.61-.025 1.621-.124 1.61-.225 1.596-.325 1.584-.399 1.56-.512 1.534-.586 1.497-.674 1.447-.762 1.41-.849 1.36-.923 1.297-.999 1.235-1.06 1.173-1.137 1.097-1.198 1.023-1.26.948-1.311.861-1.36.773-1.399.687-1.448.599-1.472.498-1.498.4-1.523.312-1.535.212-1.548.112-1.548.013-1.548-.087-1.535-.187-1.523-.287-1.51-.387-1.474-.486-1.447-.574-1.41-.661-1.373-.761-1.323-.836-1.273-.936-1.211-.998-1.148-1.085-1.086-1.16-1.011-1.223-.937-1.285-.86-1.335-.787-1.397-.7-1.447-.61-1.484-.512-1.522-.437-1.56-.337-1.571-.238-1.597-.15-1.61-.062-1.621.05-1.61.137-1.609.225-1.596.337-1.585.412-1.56.512-1.521.599-1.497.686-1.447.774-1.397.85-1.348.935-1.297.999-1.235 1.086-1.16 1.136-1.085.773-.674-1.285-2.632.337.112-19.597 17.951-.262.087.2.986.125 1.01.012 1.01-.075 1.011-.174 1.01-.263.974-.35.948-.436.898-.524.86-.612.8-.674.723-.736.66-.8.587-.848.5-.886.398-.936.312-.949.225-.961.112-.975.025-.972-.087-.961-.175-.936-.287-.9-.361-.86-.462-.824-.549-.762-.636-.699-.699-.636-.773-.512-.773.212-.574h-2.858l-.35.536-.312 1.572-.411 1.56-.5 1.534-.586 1.497-.674 1.447-.774 1.41-.837 1.36-.923 1.297-.999 1.235-1.06 1.172-1.137 1.098-1.198 1.023-1.26.948-1.311.86-1.36.787-1.399.686-1.447.599-1.473.499-1.498.411-1.51.312-1.536.2-1.548.112-1.547.013-1.548-.087-1.548-.187-1.523-.275-1.51-.386-1.473-.487-1.448-.574-1.41-.66-1.373-.762-1.323-.836-1.273-.923-1.211-1.01-1.148-1.086-1.086-1.147-1.011-1.223-.949-1.285-.861-1.347-.774-1.397-.7-1.435-.61-1.484-.525-1.522-.424-1.56-.35-1.571-.237-1.597-.15-1.61-.062-1.621.05-1.61.137-1.609.225-1.609.324-1.572.425-1.559.511-1.522.6-1.497.686-1.447.761-1.41.862-1.347.923-1.285 1.011-1.235 1.074-1.16 1.136-1.098 1.21-1.01 1.261-.948 1.31-.849 1.374-.76 1.398-.687 1.448-.586 1.472-.487 1.51-.399 1.524-.3 1.535-.199 1.548-.1h1.547l1.548.087 1.535.2 1.523.3 1.498.398 1.31.425-.25.212 6.953-14.284-2.047-7.76-4.081-.81-1.635-8.982.81-.412h24.503l-.425.574.4.062.374.15.337.237.262.324.2.362.1.412v.424l-.087.411-.175.387-.287.362-1.51 1.347-1.56 1.26-1.623 1.198-1.673 1.098-1.722 1.023-.787.424-.4 2.195.413.4 29.395.823v-2.458l6.128-4.079.412-2.445H231.55zM351.5-1372.143h.812l.824-.4.412-.41h1.223l.4.41.411.4v.823l-.412.4v.411l-2.446-.81-1.635-.412zm4.494-5.302-1.635.811-1.223.823-.412.811-1.635.412-1.635.412h-.812l-2.047-.412-1.223-.81-2.447-1.635-1.223-.823-1.635-1.635-1.635-1.621-2.858-.824-1.635-1.634-2.447-.81-2.047-.412-2.446-.811-2.047-.412-1.623.412-2.047.399h-1.635l-.812-.4-.823-.41-1.635-.413-1.224-.399-.811.4-.412.823-.412.399-.811.823-.412.412.823.4.4.41.412 1.223.412.412v1.223l-.412 1.222v1.634l-.412.811v3.269l.412.823.412 1.622-.412.823v1.634l-.412 1.634-.4 1.223v1.222l-.411 1.635.41 1.222.813 1.634 1.635.4.812.411h1.635l1.635-.411.412-.811.412-1.634.399-.811v-.824l.412-.81.811-.811.412-.412.412-.412v-.411l.81-.4h2.048l.412.4.812 2.046v1.634l.81 1.634.825 1.622.412.823.4 1.223.823 2.045.811.811v.811l.412 1.634v4.903l.412 1.634v1.634l-.824 1.223-1.635 1.634-2.034 1.634-.824 2.034-1.224 1.634-1.223 2.046-1.223 2.445-1.635 2.445-1.223 2.856-.412 2.046-.812 1.635-.823 1.222-1.224 2.033.412 2.046.812 1.635.823 1.634.4 1.621.824.824 1.223.411 1.223-.411.824-1.223.398-1.222v-2.458l-.81-.81-.824-.412v-1.223l.412-1.222.412-1.635v-1.222l.81-1.634.413-1.635.812-1.222.823-1.634.812-.811 1.223-.412.824-.823.811-1.622.412-.823.811-.811.412-.823 1.635-.811 1.224-1.223.411-.411 1.224-.811.811-.412h1.635l1.236.81.4 1.236.411 2.033 1.223 2.046.412 1.622.4 1.235 1.235 2.033 1.224 1.634 1.223 2.046 1.223 2.034.412 1.634 1.223 1.634.412 2.046-.412 1.223-.824 1.222-1.223 1.634-.4 1.223-.411.81 1.223.412 1.223 1.223h3.682l1.636-.412-.412-1.222v-2.445l.412-1.223v-2.445l-.824-1.235-.812-2.033-.413-1.635-.822-1.222v-1.634l-.4-1.635v-1.634l-.412-1.222v-1.223l-.411-.411-.4-.811-.824-2.046-.811-1.223-.412-1.222v-3.269l1.223-1.222.824-.412h5.717l2.033.412 2.048.411h3.67l2.047-.411h1.635l2.035-.412 2.446-.399 2.047-.412 2.047-.411 1.223-.412 1.636-.4.81-.823 1.636-.399h2.447l.411 1.223.812 2.033.412 1.235.823 2.445.4 2.857.412 1.222v4.491l-.412 2.445v4.08l-.4 2.046-.823.81-1.635.824-1.224 1.222-1.223 1.223-1.635.81-.811 1.635-.824 1.634-1.223.823 1.635 1.223 2.446.81 2.047-.41.812-.4 1.635-.823v-.811l.41-1.223.413-1.222 1.623-1.235.824-.4.811-1.222v-2.458l.412-2.033.412-1.634.4-1.223.823-1.634.812-.823.823-1.622.812-1.634.412-1.235v-.81l-.412-2.034-.412-2.046-.812-1.223.412-.823 1.224.412h1.635l1.635.823 1.223 1.222 1.223.811.812.412.412 1.634.411 1.622 1.224.823.811.811.412 2.046v1.222l.412 2.446v1.634l-.412 1.634.412 1.634.4 1.634.824 1.635.81.399 1.224 1.634 1.235 1.222.812.412 1.224-1.222.412-2.445.809-1.223v-1.235l.824-.4-.412-1.234-1.633-.811-1.224-.412-.812-.81-.824-1.223-.411-1.223v-2.046l-.813-2.033v-1.634l-.412-2.046.412-1.634v-1.223l-.412-1.222-.809-1.634-.412-.412-.812-1.223-1.223-1.634-.412-1.634v-1.622l.412-2.457v-.811l.399-2.445.824-2.046.4-2.046v-5.713l-.4-1.223-.824-1.223-.4-1.222 1.224-.81 1.224.81 1.633 1.634.4 2.034v2.869l.412 2.445.824 2.857v2.445l.812 1.634.812 2.033 1.633 1.634 1.224 1.223 1.635 1.235 2.049.4h2.033l1.635-.4 1.225-.823.823-1.223-1.224-.412-1.223-.399-1.236-.411-.813-.824-.808-1.222-.824-1.223-.412-1.222-.813-2.034-.412-1.235-.412-1.634-.399-1.622-.824-2.046-.4-1.634-.412-1.634-.412-1.634-.81-1.622-1.224-1.222-.823-1.235-1.224-1.223-2.048-.81-2.033-.413h-2.447l-.823.412h-2.035l-1.223-.412-2.047-.81-1.635-.412-2.447-.412-2.446-.411h-4.906l-2.446.411-2.459.412-2.858.412-1.635.399-1.623.411.4-1.634.411-2.445-.412-1.222v-2.458l.412-1.622v-6.536l-.811-1.223-.412-1.634-.412-1.223-.412-1.634-1.223-2.033-.811-1.634-1.224-1.635-.823-.411-.4-.811v-1.634l.812-.824.411-1.222.412-1.634v-2.033l-.412-1.635-.823-.81-1.224-1.236-1.223-.81h-2.446l-1.223.81-.824.823-.412.412-.4.811-.823.823-.812 1.223-1.223.399-.824.823h1.223l.824.4 1.223.411.412 1.223.4 1.222.412.412.824.823.399 1.223v1.222l-.4.811v.824l-.823.81-.412.824-.812 1.222-.411 1.634-.812 1.223v3.668l-.413 1.222v2.856l-.41 1.223v1.235z" style="fill:#000;fill-opacity:1;fill-rule:evenodd;stroke:none" transform="translate(-58.164 1443.688)"/>
    <path d="M79.995-1440.38h353.26l1.361.05 1.348.15 1.348.249 1.312.35 1.284.436 1.249.536 1.212.624 1.16.711 1.1.799 1.049.873.972.948.9 1.01.824 1.086.747 1.135.662 1.185.575 1.235.472 1.272.388 1.298.276 1.335.2 1.347.085 1.36v199.324l-.049 1.36-.151 1.347-.248 1.332-.337 1.311-.451 1.284-.524 1.26-.624 1.198-.71 1.16-.8 1.11-.872 1.036-.951.973-1.009.911-1.088.823-1.136.736-1.184.66-1.236.575-1.273.473-1.31.388-1.325.287-1.346.188-1.363.085-.536.015H79.995l-1.36-.05-1.349-.15-1.335-.251-1.311-.348-1.286-.437-1.26-.535-1.199-.624-1.16-.712-1.111-.798-1.036-.872-.974-.936-.911-1.024-.824-1.087-.749-1.135-.649-1.184-.574-1.235-.474-1.272-.387-1.299-.287-1.332-.188-1.347-.087-1.349-.012-.535v-198.8l6.615-.437v122.977l.05 1.048.15 1.035.25 1.023.336.986.437.96.524.899.612.86.686.786.762.724.824.648.886.574.924.474.973.4 1.011.286 1.024.2 1.048.1.524.012h355.035v6.613H79.108l-1.036.049-1.048.148-1.011.251-.999.348-.948.437-.911.524-.85.599-.798.687-.724.76-.65.824-.56.887-.488.936-.386.972-.3.999-.2 1.033-.1 1.035-.012.54v48.038l.05 1.073.15 1.06.25 1.035.336 1.011.437.972.524.936.612.874.686.825.774.747.824.673.886.6.949.511.974.424 1.023.324 1.048.224 1.061.14.887.036h354.15l1.059-.05 1.061-.15 1.048-.25 1.011-.35.974-.425.936-.535.875-.6.809-.696.764-.763.673-.824.599-.884.512-.948.411-.975.325-1.02.237-1.05.139-1.06.023-.885v-48.04l-.05-1.047-.15-1.036-.235-1.024-.351-.998-.437-.948-.524-.912-.612-.847-.687-.8-.75-.723-.823-.649-.885-.56-.936-.487-.975-.387-.997-.297-1.036-.2-1.049-.1-.524-.013v-6.613l1.048-.05 1.036-.15 1.025-.237.985-.349.96-.437.9-.523.86-.612.787-.686.724-.748.65-.824.575-.885.473-.936.4-.973.286-.998.201-1.035.1-1.048.011-.524v-122.977l-.05-1.073-.15-1.06-.235-1.036-.351-1.01-.437-.973-.524-.936-.612-.873-.687-.823-.76-.749-.837-.673-.885-.6-.936-.51-.987-.412-1.013-.337-1.048-.225-1.06-.137-.885-.037H79.557l-1.073.05-1.06.15-1.037.25-1.01.348-.974.437-.937.524-.886.611-.811.686-.749.761-.674.824-.6.885-.51.949-.425.973-.325 1.023-.224 1.047-.138 1.06-.037.886-6.616.437.05-1.347.15-1.36.25-1.335.35-1.31.436-1.285.537-1.247.624-1.21.711-1.16.8-1.11.873-1.036.936-.973 1.024-.898 1.073-.836 1.148-.736 1.186-.661 1.236-.574 1.273-.474 1.298-.387 1.336-.287 1.348-.187 1.348-.087z" style="fill:#000;fill-opacity:1;fill-rule:evenodd;stroke:none" transform="translate(-58.164 1443.688)"/>
  </g>
</svg>
