<svg xmlns="http://www.w3.org/2000/svg" viewBox="0 0 815.864 815.864" role="img" aria-labelledby="title">
  <title id="title">Verkehrszeichen W5-29 - Kangaroos</title>
  <g transform="translate(-929.864 1362.728)">
    <rect width="600" height="600" x="-29.179" y="-1921.107" fill="#fee011" rx="40" ry="40" transform="rotate(45)"/>
    <rect width="584" height="584" x="-21.179" y="-1913.107" rx="32" ry="32" transform="rotate(45)"/>
    <rect width="552" height="552" x="-5.179" y="-1897.107" fill="#fee011" rx="16" ry="16" transform="rotate(45)"/>
    <path fill-rule="evenodd" d="M1022.264-990.418c62.343 106.022 145.794-1.882 206.692-72.034s137.986-66.824 187.023 12.009c12.871 20.68 33.847 31.102 48.165 28.348 14.318-2.745 12.148-12.584 27.338-15.329-18.658-8.828-33.988-17.36-38.327-31.677 13.742-1.447 33.699 6.213 51.198 24.156 2.457-1.02 3.765-3.617 5.646-1.743 7.086 7.094 43.103 23.434 56.846 41.08 1.586 1.883-.434 8.532-2.754 8.828-12.296 1.299-25.603 0-37.89 2.598-6.946.434-12.733 1.455-19.678 1.742-7.373 7.949-12.723 17.935-22.71 21.691-9.255 6.37-12.296 14.902-18.658 24.157-6.797 9.839-18.658 15.764-31.678 16.348-10.553 16.052-20.967 34.998-31.53 51.059-3.328 5.638-9.69 8.532-14.03 7.224-2.317-.578-5.062-2.745-6.797-5.925-1.734-3.182-2.457-7.957-.723-13.883 4.776 3.616 3.617 11.425 12.009 9.69 2.893-17.506 5.925-39.633 8.967-57.132-7.381-1.159-14.327-5.35-21.551-6.37-6.946 9.115-12.584 17.647-19.39 26.762 2.606 28.924 1.882 83.024 12.157 87.215 33.55 13.743 70.875 24.01 110.073 33.708 3.617-.434 7.233-.871 10.99-1.159 3.903 3.905 9.255 6.51 12.008 12h-6.51c-.871 1.743-1.595 3.617-2.318 5.5-11.277 1.594-22.71-.724-33.847-6.51-33.552-5.927-66.388-12-100.087-16.488-10.126-1.3-13.89-11.425-17.36-24.01-10.273-36.888-24.731-68.853-40.068-97.34-31.67-9.84-57.996-40.358-78.684-59.016-68.994 40.497-171.686 106.021-204.522-5.499"/>
  </g>
</svg>
