<svg xmlns="http://www.w3.org/2000/svg" viewBox="0 0 1021.33 1021.33" role="img" aria-labelledby="title">
  <title id="title">Verkehrszeichen W5-44 - Camels crossing</title>
  <g transform="translate(0 442.66)">
    <rect width="750" height="750" x="-61.992" y="34.181" rx="50" ry="50" style="fill:#fddc04;fill-opacity:1;fill-rule:evenodd;stroke:none;stroke-width:5.67811;stroke-linecap:round;stroke-linejoin:round" transform="rotate(-45)"/>
    <rect width="730" height="730" x="-51.992" y="44.181" rx="40" ry="40" style="fill:#000;fill-rule:evenodd;stroke:none;stroke-width:5.52669;stroke-linecap:round;stroke-linejoin:round" transform="rotate(-45)"/>
    <rect width="690" height="690" x="-31.992" y="64.181" rx="20" ry="20" style="fill:#fddc04;fill-opacity:1;fill-rule:evenodd;stroke:none;stroke-width:5.22386;stroke-linecap:round;stroke-linejoin:round" transform="rotate(-45)"/>
    <path d="M382.549-78.679c12.492-15.575 24.592-28.197 35.616-34.216 16.115-8.794 32.21-7.62 47.386.135 8.516 4.353 15.448 12.597 24.31 21.035 17.811 16.962 47.903 26.004 74.274 40.94 20.969 11.874 32.127 43.303 61.99 43.303 22.225-.003 9.052-42.848 14.534-75.335.9-5.341 6.54-7.25 9.9-11.38 2.61-3.218 3.326-8.837 5.623-11.684 5.951-7.38 9.183-13.614 23.297-13.614 5.856 0 12.979 7.26 25.242 9.25 16.802 2.72 39.927.889 52.214 5.75 6.498 2.572 15.96 8.11 16.726 15.833.155 1.527-3.8-.166-4.075 1.365-.42 2.307-1.556 3.74-4.784 6.255-6.473 5.04-15.727 5.46-22.161 8.272-7.744 3.383-14.45 10.065-21.128 13.088-5.888 2.667-12.316-.762-15.734 5.49-2.325 4.254-1.92 17.232-1.92 24.68 0 5.146-5.478 10.173-6.17 15.197-4.836 35.15-26.479 65.394-63.369 65.394-10.823 0-23.245 3.404-36.858 6.932-22.684 5.877-46.91 14.164-47.308 37.976 1.288 12.915 10.777 107.498 11.783 122.604.508 7.637 7.122 14.594 13.208 19.36 4.163 3.263 9.038 4.484 12.083 5.323 12.798 3.525 10.149 10.196 5.171 10.767-4.399.508-15.367.078-36.83.258-6.145.049-26.857-88.268-30.3-105.808-13.243-67.458-15.286-15.963-25.912 16.428-4.381 13.367-10.7 46.154-8.763 63.906.343 3.143 3.316 3.203 5.091 5.517 2.335 3.052 10.167 3.52 14.14 4.77 2.596.818 5.877 13.042-10.214 12.971l-27.735-.127c-5.578-.024-.258-24.02-.258-33.947 0-21.03 6.072-88.473 12.591-108.51 15.438-47.438 6.735-32.643-33.666-32.643-42.28 0-50.92-23.022-59.58-17.84-5.373 3.21-6.929 22.162-21.735 56.469-4.66 10.802-7.105 25.044-6.745 37.341.243 8.414 3.482 15.992 5.397 23.756 4.855 19.696 15.202 33.327 24.554 48.517 5.4 8.77 18.46 6.079 20.757 11.593 2.346 5.637 5.317 11.454 1.937 18.132l-26.762.681-7.74-.042c-4.484-.021-9.863-12.055-13.476-18.68-2.025-3.714-.279-13.67-2.385-17.695-10.922-20.853-22.274-44.132-27.008-51.537-3.828-5.997-11.021-13.056-10.467-18.337 1.418-13.487 16.2-26.084 16.506-39.934 1.27-57.146-38.312 30.66-40.848 48.393-1.993 13.967-3.4 61.535 9.941 72.365 3.376 2.741 19.964 2.904 22.62 7.176 2.41 3.873 7.264 7.545 8.559 12.714.296 1.167 2.042 3.59.797 3.584l-46.74-.18c-3.792-.013-10.731-18.972-13.088-23.396-.416-.78-.698-3.299-.72-4.177-.437-17.872-.402-28.568-.814-41.045-.138-4.216-3.055-7.335-4.59-10.153-7.712-14.178-4.1-26.264.13-38.315 4.326-12.316 12.492-23.774 14.034-36.957 1.408-12.022 4.512-70.28-9.772-54.415-2.593 2.878-1.118 21.596-2.212 30.067-.656 5.08-4.992 3.721-6.135 2.243-.79-1.026-1.555-16.256-1.206-35.104.427-23.1 7.846-50.835 23.717-61.828z" style="fill:#000;fill-opacity:1;fill-rule:evenodd;stroke:none;stroke-width:3.52776"/>
  </g>
</svg>
