<svg xmlns="http://www.w3.org/2000/svg" xml:space="preserve" viewBox="-.451 -.943 106.161 123.891" role="img" aria-labelledby="title">
  <title id="title">Verkehrszeichen W8-29 - On Bridge When Frosty</title>
  <path d="M6.65-.943H98.61c3.905 0 7.101 3.196 7.101 7.104v109.685c0 3.906-3.196 7.102-7.101 7.102H6.65c-3.905 0-7.101-3.196-7.101-7.102V6.16c0-3.908 3.195-7.104 7.101-7.104" style="fill:#fee011;fill-opacity:1;fill-rule:evenodd;stroke:none"/>
  <path d="M6.65.496H98.61c3.139 0 5.708 2.57 5.708 5.71v109.64c0 3.14-2.57 5.708-5.708 5.708H6.65c-3.139 0-5.707-2.568-5.707-5.708V6.206c0-3.14 2.568-5.71 5.707-5.71" style="fill:#000;fill-opacity:1;fill-rule:evenodd;stroke:none"/>
  <path d="M6.605 3.327h92.049a2.84 2.84 0 0 1 2.831 2.833v109.73a2.84 2.84 0 0 1-2.831 2.832H6.605a2.84 2.84 0 0 1-2.831-2.832V6.16a2.84 2.84 0 0 1 2.831-2.833" style="fill:#fee011;fill-opacity:1;fill-rule:evenodd;stroke:none"/>
  <path d="M22.321 65.2h2.765l1.348 9.276 2.5-9.275h2.5l2.286 9.275 1.348-9.275h2.766l-2.448 17.734h-2.498l-2.784-11.138-2.783 11.138h-2.5zM40.919 65.2h2.73v7.023h6.4v-7.022h2.784v17.734h-2.784v-7.768h-6.4v7.768h-2.73zM56.928 65.2h10.159v2.838h-7.412v4.363h5.178v2.766h-5.178v5.001h8.067v2.767H56.928zM71.022 65.2h2.34l6.755 11.546V65.2h2.818v17.734h-2.394l-6.754-11.457v11.457H71.02zM45.12 30.606q-1.388.003-2.532-.524-1.147-.526-1.979-1.64-.834-1.112-1.286-2.864-.456-1.75-.46-4.193.002-2.4.427-4.138c.288-1.162.698-2.116 1.239-2.865q.81-1.12 1.967-1.664 1.158-.54 2.624-.537 1.215.004 2.199.461a5.3 5.3 0 0 1 1.731 1.291 7.4 7.4 0 0 1 1.255 1.984q.506 1.144.763 2.529t.257 2.939q.004 1.112-.11 2.222a14.5 14.5 0 0 1-.381 2.14 9 9 0 0 1-.724 1.913 5.9 5.9 0 0 1-1.142 1.538 4.8 4.8 0 0 1-1.64 1.033q-.953.369-2.208.375m0-2.803q.839.005 1.46-.36.625-.361 1.036-1.132t.615-1.995q.205-1.22.204-2.932.004-3.143-.812-4.735-.82-1.59-2.503-1.596-.86-.003-1.507.346c-.434.234-.794.6-1.087 1.106q-.437.753-.658 1.96-.223 1.208-.223 2.92.005 2.187.408 3.61.407 1.425 1.182 2.117.775.697 1.885.691M54.481 12.535h2.34l6.756 11.545V12.535h2.818v17.733h-2.393l-6.756-11.456v11.456h-2.765zM10.656 92.132H21.47v2.766h-7.995v4.417h5.213v2.783h-5.213v7.768h-2.819zM27.055 94.898v4.345h3.83q.46-.007.85-.207a2.2 2.2 0 0 0 .68-.535 2.5 2.5 0 0 0 .451-.748q.163-.408.164-.833a1.75 1.75 0 0 0-.19-.787 2.1 2.1 0 0 0-.505-.643 2.4 2.4 0 0 0-1.557-.592zm-2.712-2.766h6.595a4.5 4.5 0 0 1 1.497.263q.712.264 1.306.73.6.47 1.038 1.1c.292.416.52.875.682 1.365q.243.74.245 1.543a5.1 5.1 0 0 1-.203 1.474 4.2 4.2 0 0 1-.559 1.171 5 5 0 0 1-.839.94q-.478.421-1.04.776l3.191 8.372H33.35l-2.873-7.768h-3.42v7.768h-2.713zM44.784 110.202q-1.388.004-2.533-.524-1.147-.526-1.978-1.64-.835-1.112-1.287-2.864-.455-1.75-.46-4.193.003-2.4.428-4.138c.287-1.162.697-2.116 1.239-2.865q.81-1.121 1.967-1.663c.771-.36 1.646-.542 2.624-.538q1.214.004 2.199.461a5.3 5.3 0 0 1 1.731 1.292 7.4 7.4 0 0 1 1.255 1.983q.506 1.143.762 2.529.258 1.386.258 2.939.002 1.113-.11 2.222a14.5 14.5 0 0 1-.381 2.14 9 9 0 0 1-.724 1.913 5.9 5.9 0 0 1-1.143 1.539 4.8 4.8 0 0 1-1.64 1.032c-.635.245-1.37.373-2.207.375m0-2.802q.839.004 1.46-.36c.416-.243.762-.618 1.036-1.133q.412-.771.615-1.995.204-1.219.204-2.931.003-3.144-.813-4.735-.819-1.592-2.502-1.596-.86-.005-1.508.346-.648.35-1.086 1.105-.437.753-.66 1.96-.22 1.209-.221 2.92.005 2.187.407 3.611.408 1.424 1.183 2.116.775.697 1.885.691M53.258 105.645l2.695-.906q.366.748.765 1.257.394.505.866.807c.312.201.67.346 1.066.435q.594.129 1.363.126.419-.004.847-.21.43-.203.798-.554.364-.349.588-.784.226-.434.23-.899.006-.69-.21-1.211a2.1 2.1 0 0 0-.72-.893q-.506-.376-1.375-.624-.864-.248-2.162-.393a3 3 0 0 1-.503-.103 6 6 0 0 1-.65-.236 6 6 0 0 1-.717-.37 5 5 0 0 1-.7-.514 3.7 3.7 0 0 1-.704-.757 3.9 3.9 0 0 1-.526-1.073 4.6 4.6 0 0 1-.206-1.397 5.9 5.9 0 0 1 .297-1.886c.195-.577.468-1.09.816-1.547a5.4 5.4 0 0 1 1.223-1.157 5.64 5.64 0 0 1 3.195-.979q1.236 0 2.18.42.94.421 1.64 1.283.695.86 1.196 2.18l-2.641.798a2.9 2.9 0 0 0-.466-.892 2.3 2.3 0 0 0-.648-.546 2.9 2.9 0 0 0-.762-.293 5 5 0 0 0-.819-.112q-.523.005-.975.227a2.6 2.6 0 0 0-.791.585 2.8 2.8 0 0 0-.538.804 2.25 2.25 0 0 0-.195.884q.005.393.185.766.182.366.479.641.298.271.647.384.416.12.908.177.488.052 1.007.1.517.046 1.023.145.503.096.945.305c.455.219.88.481 1.274.795q.588.465 1.037 1.073.444.609.696 1.351.25.744.255 1.622-.003 1.251-.396 2.294c-.26.696-.641 1.3-1.135 1.814a5.1 5.1 0 0 1-1.796 1.191q-1.056.423-2.381.429-.645 0-1.369-.204a7.2 7.2 0 0 1-1.454-.594 7.8 7.8 0 0 1-1.391-.946 7.2 7.2 0 0 1-1.176-1.265 6 6 0 0 1-.815-1.549M66.997 92.132H77.81v2.608h-4.059v15.126h-2.677V94.74h-4.077zM79.619 92.132h3.298l4.2 6.88 4.238-6.88H94.6l-6.08 10.107v7.627h-2.713v-7.627zM13.928 39.092h7.145a4 4 0 0 1 1.43.26q.664.254 1.205.698.544.44.933 1.007.387.567.598 1.195.212.627.212 1.255.004.629-.115 1.174-.121.543-.402 1.029a4.3 4.3 0 0 1-.769.946 8 8 0 0 1-1.214.912q.771.377 1.318.819.55.44.899.988.345.548.511 1.238.163.693.162 1.567a4.1 4.1 0 0 1-.257 1.41 4.7 4.7 0 0 1-.7 1.267q-.453.585-1.053 1.029a5.1 5.1 0 0 1-1.302.689 4.4 4.4 0 0 1-1.456.25h-7.145zm2.818 7.164h3.475q.498-.008.945-.256.45-.254.798-.66.35-.407.55-.887a2.5 2.5 0 0 0 .207-.946 1.36 1.36 0 0 0-.246-.776 1.7 1.7 0 0 0-.637-.556 1.9 1.9 0 0 0-.873-.21h-4.219zm0 7.732h4.698a1.1 1.1 0 0 0 .58-.21q.3-.198.561-.513c.178-.21.319-.433.429-.66q.164-.345.167-.638a2.6 2.6 0 0 0-.238-1.074 3.193 3.193 0 0 0-1.549-1.572 2.5 2.5 0 0 0-1.066-.245h-3.582zM31.904 41.858v4.345h3.829q.46-.006.851-.207a2.2 2.2 0 0 0 .68-.535 2.5 2.5 0 0 0 .451-.748q.163-.408.164-.833a1.75 1.75 0 0 0-.19-.787 2.1 2.1 0 0 0-.505-.643 2.4 2.4 0 0 0-1.558-.592zm-2.713-2.766h6.595a4.5 4.5 0 0 1 1.498.263q.711.264 1.306.73.599.47 1.038 1.1c.292.416.52.875.682 1.365q.243.74.245 1.543a5.1 5.1 0 0 1-.204 1.474 4.2 4.2 0 0 1-.558 1.171 5 5 0 0 1-.839.94q-.478.42-1.04.777l3.191 8.37h-2.907l-2.873-7.767h-3.421v7.768h-2.713zM44.26 56.826h2.783V39.092H44.26zM51.139 39.092h4.964a6.5 6.5 0 0 1 2.405.44c.723.293 1.371.71 1.932 1.254a7.2 7.2 0 0 1 1.428 1.95q.581 1.134.883 2.54.301 1.403.302 3.02.001.971-.199 1.974a10.5 10.5 0 0 1-.59 1.957 9.2 9.2 0 0 1-.979 1.781 7.2 7.2 0 0 1-1.356 1.464 6 6 0 0 1-1.729.99 6 6 0 0 1-2.097.364h-4.964zm2.819 14.86h2.038q.829-.004 1.472-.291a3.6 3.6 0 0 0 1.12-.769q.474-.483.806-1.082.329-.601.529-1.235.204-.636.293-1.227.089-.588.088-1.052.005-.63-.076-1.345a10 10 0 0 0-.269-1.436 7.2 7.2 0 0 0-.505-1.374 4.8 4.8 0 0 0-.795-1.169 3.5 3.5 0 0 0-1.138-.809q-.656-.299-1.525-.305h-2.038zM74.345 43.615a5.8 5.8 0 0 0-.685-1.064 2.7 2.7 0 0 0-.881-.698q-.504-.248-1.217-.26-.843.007-1.433.332a2.8 2.8 0 0 0-.973.883 4.7 4.7 0 0 0-.602 1.265q-.217.704-.319 1.472a16 16 0 0 0-.125 1.513c-.017.497-.026.954-.022 1.38q-.002.875.111 1.735.11.86.364 1.628c.168.515.392.967.673 1.366q.419.593 1.03.934.61.34 1.438.349.447-.006.86-.174.41-.17.756-.45c.23-.183.434-.388.605-.606q.257-.329.399-.653c.095-.216.145-.407.145-.582V50.85h-3.031v-2.802h5.797v3.707a5 5 0 0 1-.301 1.698 5.4 5.4 0 0 1-.831 1.484q-.53.676-1.238 1.174a5.8 5.8 0 0 1-1.536.774 5.5 5.5 0 0 1-1.714.278q-1.173-.006-2.097-.363a5.2 5.2 0 0 1-1.623-.993 6.3 6.3 0 0 1-1.187-1.485 8.8 8.8 0 0 1-.799-1.826 12.4 12.4 0 0 1-.449-2.028 16 16 0 0 1-.138-2.083 25 25 0 0 1 .11-2.414q.109-1.185.374-2.261a9.2 9.2 0 0 1 .727-1.984 5.9 5.9 0 0 1 1.158-1.575 4.8 4.8 0 0 1 1.667-1.038q.971-.371 2.257-.375a5.2 5.2 0 0 1 1.708.287 5.5 5.5 0 0 1 1.516.81q.696.526 1.237 1.258.545.736.893 1.635zM80.515 39.092h10.159v2.838h-7.411v4.362h5.177v2.766h-5.177v5.002h8.066v2.766H80.515z" style="fill:#000;fill-opacity:1;fill-rule:nonzero;stroke:none"/>
</svg>
