<svg xmlns="http://www.w3.org/2000/svg" viewBox="0 0 375.212 375.15" role="img" aria-labelledby="title">
  <title id="title">Verkehrszeichen W2-V104 - Crossroad intersection on a curve to left (used in VIC)</title>
  <g style="display:inline">
    <path d="m419.098-132.657-169.312-169.1-1-.925-1.05-.85-1.113-.775-1.162-.687-1.213-.588-1.262-.512-1.288-.413-1.312-.312-1.338-.225-1.35-.113-1.35-.025-1.35.088-1.35.175-1.325.275-1.3.375-1.262.475-1.238.562-1.187.65-1.138.738-1.075.825-1.012.9-.263.25L54.636-132.657l-.913.988-.85 1.062-.775 1.113-.675 1.175-.6 1.225-.5 1.262-.412 1.288-.313 1.325-.212 1.337-.113 1.35-.012 1.35.075 1.363.187 1.337.288 1.325.375 1.3.475 1.275.562 1.238.663 1.187.737 1.138.825 1.075.9 1.012.288.3L223.848 62.582l1 .924 1.063.85 1.112.762 1.175.69 1.213.585 1.262.5 1.288.413 1.325.312 1.337.213 1.35.125 1.363.012 1.35-.087 1.35-.188 1.325-.275 1.3-.387 1.275-.463 1.225-.575 1.187-.65 1.138-.75 1.075-.825 1.025-.9.3-.286 169.212-169.214.913-.987.85-1.063.762-1.125.688-1.162.6-1.225.5-1.263.412-1.287.313-1.325.212-1.338.113-1.35.012-1.362-.075-1.35-.187-1.338-.288-1.325-.375-1.312-.475-1.263-.562-1.237-.663-1.188-.737-1.137-.825-1.075-.9-1.013z" style="fill:#fee011;fill-opacity:1;fill-rule:evenodd;stroke:none" transform="translate(-49.261 307.182)"/>
    <path d="m411.286-124.857-169.213-169.2-.637-.575-.713-.487-.75-.413-.8-.312-.825-.225-.85-.125-.862-.025-.85.087-.838.163-.812.275-.775.362-.738.45-.662.538-.3.287-169.213 169.2-.562.65-.5.7-.4.75-.325.8-.213.825-.125.85-.025.863.075.85.175.837.275.813.363.787.45.725.537.675.275.288L231.661 54.77l.637.573.7.488.763.412.8.313.825.225.85.112.85.025.862-.075.838-.175.812-.262.775-.375.725-.45.675-.525.3-.286 169.213-169.214.562-.638.5-.7.4-.75.313-.8.225-.837.125-.838.025-.862-.075-.85-.175-.85-.275-.813-.363-.775-.45-.725-.537-.675zm5.2-5.2L247.273-299.269l-.887-.825-.95-.738-1.025-.662-1.063-.588-1.112-.487-1.15-.388-1.175-.3-1.188-.212-1.212-.1h-1.213l-1.212.1-1.2.187-1.175.3-1.15.388-1.113.487-1.062.575-1.025.65-.963.75-.887.813.075.137L57.248-130.057l-.825.888-.75.962-.662 1.013-.575 1.062-.488 1.113-.4 1.15-.3 1.175-.2 1.2-.1 1.212-.012 1.2.1 1.213.2 1.2.287 1.175.4 1.15.475 1.112.575 1.075.663 1.013.737.962.825.9.05.05L226.461 59.981l.887.837.95.75 1.025.675 1.063.6 1.112.5 1.15.413 1.188.312 1.2.225 1.212.113 1.225.025 1.213-.088 1.212-.175 1.188-.286 1.162-.362 1.125-.477 1.088-.562 1.037-.638.988-.737.912-.8.175-.163 168.913-169.375.825-.887.75-.963.662-1.012.575-1.075.488-1.1.4-1.15.3-1.175.2-1.2.1-1.213v-1.212l-.088-1.2-.2-1.2-.3-1.175-.387-1.15-.475-1.113-.575-1.075-.663-1.012-.737-.963-.825-.9z" style="fill:#000;fill-opacity:1;fill-rule:evenodd;stroke:none" transform="translate(-49.261 307.182)"/>
    <path d="m284.148-43.682-.05-4.1-.15-4.1-.25-4.087-.35-4.088-.45-4.075-.55-4.062-.637-4.05-.75-4.025-.85-4.013-.938-3.987-1.037-3.963-1.138-3.95-1.225-3.9-1.325-3.887-1.425-3.838-1.512-3.812-.75-1.8 56.087-32.375-21.012-36.388-56.213 32.45-2.525-3.225-2.612-3.162-2.688-3.1-2.75-3.025-2.837-2.975-2.9-2.888-2.975-2.825-3.038-2.75-3.1-2.675-3.175-2.6-3.237-2.525-3.288-2.437-3.35-2.363-3.412-2.275-3.463-2.187-3.512-2.113-3.575-2.025-3.613-1.937-3.662-1.838-3.7-1.762-3.75-1.663-3.788-1.575-3.812-1.475-1.288-.475-14.375 39.475 3.313 1.263 3.287 1.362 3.238 1.438 3.2 1.537 3.162 1.625 3.113 1.713 3.05 1.812 3.012 1.888 2.95 1.962 2.9 2.05 2.838 2.138 2.775 2.212 2.712 2.288 2.65 2.375 2.575 2.437 2.513 2.513 2.437 2.575 2.363 2.65 1.537 1.812-55.437 32.013 21 36.375 55.625-32.1 1.212 3.337 1.113 3.363 1.012 3.412.925 3.425.825 3.45.725 3.477.625 3.498.525 3.5.438 3.525.325 3.54.237 3.548.125 3.537.038 2.9v23.6l42.012.1v-23.7" style="fill:#000;fill-opacity:1;fill-rule:evenodd;stroke:none" transform="translate(-49.261 307.182)"/>
  </g>
</svg>
