<svg xmlns="http://www.w3.org/2000/svg" xml:space="preserve" viewBox="-.451 -.943 442.328 294.95" role="img" aria-labelledby="title">
  <title id="title">Verkehrszeichen W8-2 - Advisory Speed</title>
  <path d="M29.136-.943h383.15c16.277 0 29.59 13.314 29.59 29.587v235.771c0 16.277-13.313 29.592-29.59 29.592H29.136c-16.273 0-29.587-13.315-29.587-29.592V28.644C-.451 12.37 12.863-.943 29.136-.943" style="fill:#fee011;fill-opacity:1;fill-rule:evenodd;stroke:none"/>
  <path d="M28.948 5.05h383.526c12.978 0 23.598 10.62 23.598 23.598v235.955c0 12.978-10.62 23.598-23.598 23.598H28.948c-12.978 0-23.598-10.62-23.598-23.598V28.648c0-12.978 10.62-23.597 23.598-23.597" style="fill:#000;fill-opacity:1;fill-rule:evenodd;stroke:none"/>
  <path d="M28.948 16.85h383.526c6.491 0 11.799 5.307 11.799 11.798v235.96c0 6.487-5.308 11.794-11.8 11.794H28.949c-6.492 0-11.8-5.307-11.8-11.794V28.648c0-6.49 5.308-11.799 11.8-11.799" style="fill:#fee011;fill-opacity:1;fill-rule:evenodd;stroke:none"/>
  <path d="M124.159 252.805v-45.492l9.365-3.65v23.778l9.36-11.499h11.835l-10.029 12.274 10.029 24.589h-9.656l-6.823-16.775-4.716 6.119v10.656zM169.687 252.805v-36.863h9.288v2.098c.44-.269.946-.52 1.538-.758q.875-.369 1.878-.672a27 27 0 0 1 2.004-.529 26 26 0 0 1 1.9-.35q.891-.12 1.565-.12c1.403-.007 2.69.138 3.874.434 1.179.296 2.259.767 3.24 1.426s1.883 1.524 2.69 2.6a9.2 9.2 0 0 1 1.923-1.74c.74-.497 1.525-.914 2.367-1.268.843-.35 1.695-.623 2.565-.838a20 20 0 0 1 2.497-.467 18 18 0 0 1 2.187-.147c1.103.004 2.179.174 3.232.52 1.054.35 2.058.825 3.013 1.439.96.61 1.829 1.313 2.636 2.12a15.2 15.2 0 0 1 2.08 2.587 12.9 12.9 0 0 1 1.376 2.842q.489 1.46.493 2.878v24.808h-9.512v-22.562q-.008-1.641-.803-2.892-.792-1.262-2.201-1.981c-.932-.475-2.022-.722-3.259-.73-1.004.006-1.887.192-2.65.546a5.5 5.5 0 0 0-1.918 1.453 6.2 6.2 0 0 0-1.161 2.062 7.3 7.3 0 0 0-.395 2.389v21.715h-8.513V231.09q-.002-1.231-.448-2.416a7 7 0 0 0-1.286-2.17 6.2 6.2 0 0 0-2.027-1.564c-.798-.386-1.69-.588-2.69-.592-.775.004-1.488.125-2.133.38a5.9 5.9 0 0 0-1.722.996 6.8 6.8 0 0 0-1.277 1.394 6.8 6.8 0 0 0-.79 1.578 4.9 4.9 0 0 0-.273 1.547v22.562zM286.33 252.805V207.5l9.29-3.837v15.004c.761-.718 1.532-1.291 2.321-1.708a10.5 10.5 0 0 1 2.354-.915q1.171-.288 2.282-.367c.744-.05 1.448-.076 2.111-.068.924 0 1.87.148 2.838.435.973.287 1.923.713 2.864 1.264a14 14 0 0 1 2.64 2.018c.834.784 1.556 1.69 2.188 2.694a13.3 13.3 0 0 1 1.493 3.308c.359 1.197.543 2.484.547 3.847v23.629h-9.4v-20.532a8 8 0 0 0-.453-2.663 8.1 8.1 0 0 0-1.193-2.228c-.497-.659-1.049-1.174-1.663-1.56q-.92-.572-1.887-.627c-1.363 0-2.506.13-3.416.399s-1.636.695-2.165 1.273c-.534.583-.906 1.331-1.134 2.26-.22.932-.332 2.052-.328 3.366v20.312z" style="fill:#000;fill-opacity:1;fill-rule:nonzero;stroke:none"/>
  <path d="m239.14 266.666 35.392-61.048h-8.8l-35.392 61.048z" style="fill:#000;fill-opacity:1;fill-rule:evenodd;stroke:none"/>
  <path d="M126.351 101.033a81 81 0 0 1 5.841-1.77c2.165-.597 4.42-1.103 6.742-1.592a106 106 0 0 1 6.837-1.13c2.232-.264 4.245-.417 6.06-.417 4.093 0 8.227.332 12.432.995a71 71 0 0 1 12.229 3.138 55.5 55.5 0 0 1 11.104 5.375 41.2 41.2 0 0 1 9.091 7.81c2.61 3.008 4.644 6.46 6.128 10.35 1.457 3.892 2.21 8.249 2.233 13.072-.022 4.802-.776 9.137-2.278 13.005-1.483 3.873-3.541 7.298-6.173 10.288a41.2 41.2 0 0 1-9.154 7.738 55.3 55.3 0 0 1-11.126 5.352 70.5 70.5 0 0 1-12.211 3.098 78 78 0 0 1-12.274.995c-5.617 0-11.037-.64-16.215-1.9-5.195-1.283-9.974-3.165-14.376-5.685a44.5 44.5 0 0 1-11.521-9.445c-3.3-3.761-5.841-8.141-7.657-13.14-1.834-4.998-2.761-10.592-2.784-16.81q.033-16.387 4.115-30.125c2.717-9.154 6.59-17.317 11.656-24.503 5.065-7.19 11.104-13.274 18.178-18.272 7.056-4.999 14.932-8.805 23.647-11.414s18.093-3.913 28.134-3.936v23.62a45 45 0 0 0-5.97-.394c-4.38.022-8.738.619-13.095 1.789a60.4 60.4 0 0 0-12.61 4.998c-4.044 2.17-7.828 4.712-11.324 7.675-3.492 2.967-6.59 6.24-9.266 9.822a49.3 49.3 0 0 0-6.393 11.413m26.673 52.817c3.918.022 7.59-.197 11.037-.686 3.452-.462 6.482-1.304 9.136-2.542 2.654-1.214 4.734-2.94 6.258-5.177 1.529-2.233 2.304-5.084 2.367-8.58-.022-3.43-.794-6.281-2.322-8.513-1.502-2.26-3.604-4.008-6.258-5.29s-5.707-2.165-9.159-2.699c-3.47-.529-7.14-.771-11.059-.749-4.026-.021-7.76.265-11.19.861s-6.414 1.547-8.978 2.874c-2.569 1.349-4.56 3.12-5.998 5.33-1.435 2.214-2.166 4.935-2.233 8.185.022 3.12.753 5.752 2.192 7.917 1.412 2.17 3.425 3.918 5.994 5.245 2.564 1.35 5.572 2.322 9.001 2.919 3.452.618 7.186.905 11.212.905M287.196 154.119c4.492-.021 8.45-.798 11.92-2.345a25.9 25.9 0 0 0 8.984-6.504c2.519-2.784 4.577-6.101 6.19-9.907 1.614-3.784 2.811-7.962 3.605-12.52.775-4.533 1.152-9.334 1.152-14.377 0-5.066-.4-9.863-1.215-14.422-.798-4.554-2.035-8.737-3.694-12.538-1.64-3.806-3.739-7.101-6.263-9.89-2.541-2.783-5.527-4.953-8.956-6.477-3.43-1.529-7.343-2.304-11.723-2.327-4.38.022-8.27.798-11.723 2.327a26.4 26.4 0 0 0-8.934 6.478c-2.546 2.788-4.626 6.083-6.285 9.889-1.659 3.801-2.896 7.984-3.694 12.538-.816 4.56-1.215 9.356-1.215 14.422 0 5.043.377 9.844 1.152 14.376.794 4.56 1.99 8.737 3.605 12.52 1.613 3.807 3.671 7.124 6.19 9.908a25.9 25.9 0 0 0 8.984 6.504c3.47 1.547 7.428 2.323 11.92 2.345m0 23.226c-7.72-.022-14.556-1.22-20.55-3.52-5.97-2.321-11.121-5.572-15.479-9.799-4.34-4.2-7.899-9.176-10.687-14.928-2.806-5.729-4.864-12.032-6.213-18.89-1.35-6.877-2.013-14.113-2.013-21.742s.686-14.861 2.103-21.742c1.394-6.877 3.514-13.202 6.392-18.931 2.851-5.752 6.455-10.75 10.835-14.978 4.357-4.222 9.513-7.495 15.417-9.817 5.93-2.322 12.65-3.497 20.195-3.541 7.54.044 14.264 1.219 20.195 3.541 5.927 2.322 11.06 5.595 15.44 9.817 4.357 4.228 7.96 9.226 10.812 14.978 2.878 5.729 4.998 12.054 6.392 18.93 1.417 6.882 2.103 14.113 2.103 21.743s-.664 14.865-2.013 21.741c-1.327 6.86-3.407 13.162-6.19 18.891-2.812 5.752-6.37 10.728-10.71 14.928-4.335 4.227-9.508 7.478-15.48 9.8-5.975 2.3-12.83 3.496-20.549 3.519" style="fill:#000;fill-opacity:1;fill-rule:nonzero;stroke:none"/>
</svg>
