<svg xmlns="http://www.w3.org/2000/svg" viewBox="0 0 359.568 359.366" role="img" aria-labelledby="title">
  <title id="title">Verkehrszeichen W6-V103 - Steep Descent for Cyclists (used in VIC)</title>
  <g style="display:inline">
    <path d="M-5.47-996.124 156.655-834.09l.899.988.81.988.807 1.168.63 1.078.54 1.257.538 1.168.36 1.347.27 1.258.18 1.347.089 1.257v1.348l-.089 1.347-.18 1.257-.27 1.348-.45 1.257-.448 1.258-.63 1.167-.63 1.168-.808 1.078-.809.988-.809.898L-5.47-647.09l-.988.899-1.079.808-1.078.81-1.168.629-1.169.537-1.258.54-1.258.357-1.258.271-1.348.18-1.348.09h-1.258l-1.348-.09-1.348-.18-1.259-.27-1.258-.448-1.258-.45-1.168-.628-1.169-.628-1.078-.81-1.078-.808-.81-.81-162.124-162.031-.899-.988-.898-1.078-.72-1.078-.628-1.167-.63-1.168-.449-1.258-.36-1.257-.359-1.257-.18-1.348-.09-1.347v-1.347l.09-1.258.27-1.347.27-1.258.36-1.257.538-1.257.63-1.168.629-1.168.719-1.078.898-1.077.81-.809 162.124-162.033.988-.898.989-.898 1.168-.719 1.079-.628 1.258-.63 1.168-.448 1.348-.36 1.258-.359 1.348-.18 1.259-.09h1.348l1.348.09 1.258.27 1.348.27 1.258.359 1.258.539 1.168.628 1.169.63 1.078.718.989.898z" style="fill:#fee011;fill-opacity:1;fill-rule:evenodd;stroke:none" transform="translate(197.79 1001.333)"/>
    <path d="m-185.119-826.636 162.125-162.033.629-.539.719-.539.719-.359.809-.27.809-.269.808-.09h.81l.898.09.809.18.809.27.719.359.718.539.63.538.09.09 162.214 162.033.54.629.449.718.449.719.27.808.18.809.179.808v.898l-.09.809-.18.808-.36.808-.359.719-.449.719-.54.628-.09.09-162.214 162.124-.629.538-.629.449-.809.45-.719.268-.808.18-.9.18h-.808l-.809-.089-.809-.18-.808-.359-.72-.36-.718-.448-.63-.54-.18-.089-162.124-162.124-.539-.629-.54-.628-.359-.809-.27-.718-.269-.809-.09-.898v-.808l.09-.809.18-.808.27-.808.359-.719.54-.718.449-.63zm157.182-167.063L-190.15-831.576l-.81.898-.718.899-.63.988-.538 1.077-.45 1.078-.45 1.078-.269 1.168-.18 1.167-.09 1.168v1.257l.18 1.168.18 1.168.36 1.078.359 1.167.54 1.078.538.988.72.988.718.898.54.629 162.214 162.033.809.808.988.719.989.718 1.078.54 1.079.447 1.078.36 1.169.269 1.168.18 1.168.09h1.169l1.258-.09 1.168-.27 1.078-.268 1.169-.448 1.078-.452.989-.627.988-.629.899-.81.63-.537 162.124-162.033.809-.898.719-.898.629-.988.629-1.078.45-1.078.359-1.168.27-1.167.179-1.168.09-1.168v-1.167l-.09-1.168-.27-1.168-.27-1.167-.449-1.078-.449-1.078-.63-1.078-.628-.988-.809-.898-.54-.539L-7.985-993.699l-.899-.808-.898-.719-.989-.628-1.078-.54-1.079-.448-1.168-.36-1.168-.359-1.169-.18-1.168-.09-1.168.09-1.169.09-1.168.18-1.168.36-1.079.359-1.078.538-1.078.54-.989.718-.899.718z" style="fill:#000;fill-opacity:1;fill-rule:evenodd;stroke:none" transform="translate(197.79 1001.333)"/>
    <path d="m89.612-769.062-215.237-98.082v98.082zM17.357-843.522l-1.168.54-1.078.538-1.079.629-.988.808-.989.809-.899.898-.808.898-.72 1.078-.718.988-.54 1.167L7.831-834l-.36 1.168-.359 1.257-.27 1.258-.09 1.257-.09 1.258.09 1.257.18 1.258.27 1.167.36 1.258.359 1.167.54 1.078.628 1.078.72.988.718.988.899.898.899.808.988.719.989.629 1.078.628 1.168.45 1.169.359 1.168.36 1.168.179 1.259.09h1.168l1.258-.18 1.258-.18 1.169-.27 1.168-.448 1.168-.45 1.079-.538 1.078-.719.989-.718.988-.809.809-.898.899-.988.719-.988.629-1.078.629-1.167.45-1.168.448-1.168.27-1.257.27-1.258.09-1.257v-2.515l-.18-1.257-.27-1.168-.36-1.258-.449-1.077-.539-1.168-.629-1.078-.719-.988-.719-.988-.898-.898-.9-.808-.988-.719-.988-.629-1.079-.539-1.168-.449-1.168-.449-1.169-.27-1.078-.179.36 5.749.539 5.658.449 3.862v.629l-.09.629-.09.539-.27.539-.359.538-.36.45-.449.359-.539.36-.54.179-.628.09-.54.09-.629-.09-.539-.18-.539-.27-.45-.359-.359-.449-.36-.449-.269-.629-.18-.539v-.359l-.539-5.748-.54-5.749zm-.719-22.814-25.523-11.317-.449 23.533.719.628.719.63.54.718 24.084-8.353-.09-5.749zm-34.24 11.138-.18-19.58-6.47 5.03.629 1.347.54 1.437.359 1.437.359 1.527.27 1.437.09 1.527v3.053l-.18 1.527-.27 1.527-.09.36 2.157 1.077.72-.628.808-.54.899-.358zm-17.974-5.12 6.291 2.785.09-1.258v-1.257l-.09-1.258-.18-1.257-.18-1.168-.359-1.257zm.899-11.497-.989-.718-.988-.629-1.079-.629-1.078-.449-1.168-.359-1.169-.27-1.168-.18-1.258-.179-1.169.09-1.258.09-1.168.18-1.168.269-1.258.45-1.079.448-1.078.629-1.079.629-1.078.718-.899.898-.899.899-.808.898-.81 1.078-.628 1.077-.63 1.078-.539 1.168-.36 1.257-.359 1.168-.27 1.257-.179 1.258v2.605l.18 1.167.18 1.258.359 1.167.36 1.258.539 1.078.539 1.077.719 1.078.719.898.809.899.898.898.9.718 1.077.63.99.628 1.077.449 1.169.45 1.168.269 1.168.269 1.259.09h1.168l1.258-.09 1.168-.18 1.169-.27 1.258-.358 1.078-.54 1.169-.538 1.078-.629.989-.718.988-.809.899-.898.809-.988.629-.808.09.09-13.93-6.108-.45-.27-.449-.359-.36-.45-.359-.538-.18-.539-.18-.539v-.629l.09-.628.09-.54.27-.538.36-.539.36-.45.269-.358 12.312-9.88zm26.96-16.706-.898 2.156 24.175 10.688.629-1.257 6.56-1.168 1.169-1.886-9.436-4.132 3.684-7.275 12.672 5.838.719.36.629.449.539.538.54.63.449.628.27.718.269.809.18.808.09.809v.808l-.18.808-.18.809-.36.718-.359.719-.45.718-.539.54-.629.538-.719.45-.719.448-.629.18-3.594 1.257-.54.18-.449.27-.45.449-.359.449-.27.449-.18.539v.718l-.089 5.659.09 5.569.18 5.658 1.527.18 1.438.18 1.438.359 1.438.359 1.348.539 1.348.629 1.348.718 1.169.719 1.258.898 1.078.988 1.079.988.988 1.078.989 1.167.809 1.258.808 1.257.63 1.348.629 1.347.539 1.437.36 1.437.359 1.437.18 1.527.18 1.527v3.054l-.18 1.437-.27 1.527-.36 1.527-.36 1.437-.538 1.437-.63 1.437-.718 1.347-.81 1.348-.808 1.257-.989 1.168-.988 1.167-1.079 1.078-1.168.988-1.258.898-1.258.809-1.258.808-1.348.629-1.438.629-1.348.449-1.528.359-1.438.36-1.438.179-1.528.09h-1.438l-1.527-.09-1.438-.18-1.438-.359-1.438-.36-1.348-.538-1.348-.54-1.348-.628-1.259-.808-1.168-.809-1.168-.988-1.079-.988-1.078-1.077-.899-1.078-.898-1.258-.81-1.257-.718-1.347-.63-1.348-.449-1.347-.449-1.437-.36-1.527-.27-1.437-.179-1.527-.09-1.527.09-1.527.09-1.527.27-1.527.27-1.437.449-1.527.539-1.437.54-1.437.718-1.347.719-1.348.899-1.257.898-1.257.989-1.078 1.078-1.168 1.169-.988 1.168-.898 1.258-.898 1.258-.809 1.348-.628 1.438-.63 1.348-.538.9-.27v-1.976l-22.738 7.725-.18.988-.36.898-.359.898-.449.809-.54.808-.628.719-.72.628-.718.629-.809.45-.899.448-.898.27-.9.27-.898.089-.898.09-.99-.09-.898-.18-.898-.27-.81-.358-.808-.45-.809-.449-.719-.628-.629-.719-.54-.718-.449-.809-.359-.898-.36-.898-.18-.898-.09-.36-2.426-1.167-.898 1.257-.989 1.168-.988 1.167-1.079.988-1.168.988-1.258.899-1.259.898-1.348.718-1.348.63-1.348.538-1.438.45-1.437.358-1.528.27-1.438.18-1.438.09h-1.528l-1.438-.09-1.528-.27-1.437-.36-1.349-.359-1.437-.538-1.348-.54-1.259-.718-1.258-.808-1.168-.809-1.168-.988-1.079-.988-.988-1.077-.989-1.168-.809-1.258-.809-1.257-.629-1.347-.629-1.348-.539-1.437-.36-1.437-.359-1.437-.27-1.527-.09-1.527-.09-1.527.09-1.527.18-1.526.27-1.438.27-1.527.449-1.437.539-1.437.63-1.437.718-1.347.719-1.347.899-1.258.988-1.167.989-1.168 1.078-1.078 1.169-.988 1.168-.898 1.258-.898 1.348-.719 1.348-.718 1.348-.54 1.438-.538 1.438-.36 1.438-.269 1.528-.18 1.438-.18h1.527l1.438.09 1.438.27 1.438.27 1.438.359 1.438.539 1.348.539 1.258.718 1.258.719 1.259.808 1.168.988.899.719 10.604-9.072 1.168-7.096-3.055-2.155 1.887-7.994 20.49 9.251.27.18.27.27.18.358.09.36v.449l-.09.359-.18.36-.27.269-.27.27-.27.089-1.797.539-1.887.539-1.797.36-1.888.269-1.887.269z" style="fill:#000;fill-opacity:1;fill-rule:evenodd;stroke:none" transform="translate(197.79 1001.333)"/>
  </g>
</svg>
