<svg xmlns="http://www.w3.org/2000/svg" viewBox="0 0 1021.33 1021.33" role="img" aria-labelledby="title">
  <title id="title">Verkehrszeichen W5-11 - Crest</title>
  <g transform="translate(0 442.66)">
    <rect width="750" height="750" x="-61.992" y="34.181" rx="50" ry="50" style="fill:#fddc04;fill-opacity:1;fill-rule:evenodd;stroke:none;stroke-width:5.67811;stroke-linecap:round;stroke-linejoin:round" transform="rotate(-45)"/>
    <rect width="730" height="730" x="-51.992" y="44.181" rx="40" ry="40" style="fill:#000;fill-rule:evenodd;stroke:none;stroke-width:5.52669;stroke-linecap:round;stroke-linejoin:round" transform="rotate(-45)"/>
    <rect width="690" height="690" x="-31.992" y="64.181" rx="20" ry="20" style="fill:#fddc04;fill-opacity:1;fill-rule:evenodd;stroke:none;stroke-width:5.22386;stroke-linecap:round;stroke-linejoin:round" transform="rotate(-45)"/>
    <path d="M292.77 120.483q-15.672 38.657-52.761 38.657-37.351 0-53.545-31.343-12.799-25.075-12.799-59.553 0-46.231 19.59-70.523 15.671-19.59 44.925-19.59 37.612 0 54.59 35.523l-25.858 10.97q-7.314-10.97-13.06-14.626-5.746-3.657-15.672-3.657-20.895 0-29.515 21.418-6.79 16.716-6.79 40.485 0 31.605 10.97 49.105 8.619 13.582 26.38 13.582 17.5 0 27.164-20.373zM450.038 156.005h-30.037l-28.21-76.008H358.62v76.008h-27.687v-175h57.724q19.329 0 31.082 5.746 11.754 5.485 19.068 17.76 7.574 12.277 7.574 25.598 0 13.843-7.574 26.38-7.575 12.277-19.59 17.762zM418.695 30.109q0-14.627-14.627-20.112-3.657-1.306-12.276-1.306H358.62v43.097h33.172q10.186 0 15.932-3.134 10.97-6.269 10.97-18.545M588.5 156.005H479.843v-175h103.172V8.69H507.53v43.097h50.933v28.21H507.53v47.798h80.97zM725.134 105.595q0 24.814-17.239 39.963-15.41 13.582-38.134 13.582-21.94 0-38.657-12.276-15.933-11.493-25.075-31.866l26.38-9.925q11.493 25.858 37.352 25.858 12.015 0 19.59-7.314 7.574-7.313 7.574-18.544 0-14.888-16.455-23.508-16.717-6.269-33.433-12.798-33.695-13.583-33.695-43.62 0-47.015 54.59-47.015 35.523 0 49.888 35.522l-24.552 7.314q-2.35-4.18-5.746-7.314-7.836-7.574-20.112-8.097-11.493-.26-18.806 3.918-9.142 5.485-8.358 16.456 1.044 12.537 23.246 19.85 32.65 10.97 40.224 15.933 21.418 14.366 21.418 43.881M847.665 5.557H807.18v150.448h-27.687V5.557H739.53v-24.553h108.135z" style="font-size:261.195px;line-height:1.25;font-family:&quot;Roadgeek 2000 Series D&quot;;-inkscape-font-specification:&quot;Roadgeek 2000 Series D&quot;;text-align:center;letter-spacing:.29px;text-anchor:middle;fill:#000;fill-rule:evenodd;stroke:none;stroke-width:1.36038"/>
  </g>
</svg>
