<svg xmlns="http://www.w3.org/2000/svg" viewBox="0 0 123.574 123.574" role="img" aria-labelledby="title">
  <title id="title">Verkehrszeichen W2-10-R - Side road intersection from right on a curve to right</title>
  <path d="m-18.255 396.429 55.71 55.71c2.368 2.366 6.239 2.366 8.605 0l55.71-55.71c2.366-2.366 2.366-6.239 0-8.605l-55.71-55.71c-2.366-2.366-6.237-2.366-8.605 0l-55.71 55.71c-2.366 2.366-2.366 6.239 0 8.605" style="fill:#fee011;fill-opacity:1;fill-rule:evenodd;stroke:none" transform="translate(20.03 -330.34)"/>
  <path d="m-17.486 395.426 55.901 55.902a4.734 4.734 0 0 0 6.676 0l55.9-55.902a4.734 4.734 0 0 0 0-6.676l-55.9-55.901a4.736 4.736 0 0 0-6.676 0l-55.901 55.901a4.734 4.734 0 0 0 0 6.676" style="fill:#000;fill-opacity:1;fill-rule:evenodd;stroke:none" transform="translate(20.03 -330.34)"/>
  <path d="m43.363 449.715 56.022-56.022a2.277 2.277 0 0 0 0-3.21L43.363 334.46a2.275 2.275 0 0 0-3.21 0l-56.023 56.022a2.277 2.277 0 0 0 0 3.21l56.023 56.022a2.277 2.277 0 0 0 3.21 0" style="fill:#fee011;fill-opacity:1;fill-rule:evenodd;stroke:none" transform="translate(20.03 -330.34)"/>
  <path d="m46.48 368.099 7.044 12.456.13 14.309v.004q.006.295.082.581a2.425 2.425 0 0 0 4.175.96l18.435-21.971-26.95-9.805a2.425 2.425 0 0 0-2.916 3.464z" style="fill:#000;fill-opacity:1;fill-rule:evenodd;stroke:none" transform="translate(20.03 -330.34)"/>
  <path d="M60.588 372.62c-22.763 0-41.222 18.459-41.222 41.221v11.64h13.337v-11.64c0-4.636 1.133-9.007 3.136-12.853l11.087 9.303 7.793-9.287-11.084-9.3a27.76 27.76 0 0 1 16.953-5.748z" style="fill:#000;fill-opacity:1;fill-rule:evenodd;stroke:none" transform="translate(20.03 -330.34)"/>
</svg>
