<svg xmlns="http://www.w3.org/2000/svg" xml:space="preserve" viewBox="-.451 -.943 122.612 81.761" role="img" aria-labelledby="title">
  <title id="title">Verkehrszeichen W8-16 - One Lane</title>
  <path d="M7.746-.943h106.21c4.522 0 8.206 3.684 8.206 8.205v65.359c0 4.514-3.684 8.197-8.206 8.197H7.747c-4.513 0-8.197-3.683-8.197-8.197V7.262c0-4.521 3.684-8.205 8.197-8.205" style="fill:#fee011;fill-opacity:1;fill-rule:evenodd;stroke:none"/>
  <path d="M7.746.722h106.21c3.634 0 6.598 2.956 6.598 6.59V72.62c0 3.635-2.964 6.59-6.597 6.59H7.747a6.597 6.597 0 0 1-6.59-6.59V7.312a6.597 6.597 0 0 1 6.59-6.59" style="fill:#000;fill-opacity:1;fill-rule:evenodd;stroke:none"/>
  <path d="M7.696 3.988h106.32a3.256 3.256 0 0 1 3.266 3.274v65.409a3.25 3.25 0 0 1-3.267 3.266H7.696a3.255 3.255 0 0 1-3.273-3.266V7.262a3.26 3.26 0 0 1 3.273-3.274" style="fill:#fee011;fill-opacity:1;fill-rule:evenodd;stroke:none"/>
  <path d="M38.273 31.658c3.322 0 4.983-3.166 4.983-7.06s-1.765-7.112-4.983-7.112-4.984 3.219-4.984 7.112 1.661 7.06 4.984 7.06m0 3.583c-5.659 0-8.462-4.776-8.462-10.643 0-5.866 2.96-10.642 8.462-10.642s8.461 4.776 8.461 10.642c0 5.867-2.803 10.643-8.461 10.643M52.704 14.372h3.374l9.345 13.498V14.372h3.581v20.454h-3.166l-9.604-13.913v13.913h-3.53zM76.791 14.372h14.64v3.583H80.32v4.048h6.022v3.582H80.32v5.658h11.525v3.583H76.791zM18.858 45.052h3.477v17.183h11.578v3.27H18.858zM45.8 45.052h3.426l8.565 20.454h-3.84l-1.973-4.776H43.1l-2.024 4.776H37.34zM44.503 57.2h6.021l-3.011-7.217zM63.658 45.052h3.373l9.345 13.498V45.052h3.582v20.454H76.79l-9.603-13.913v13.913h-3.53zM87.745 45.052h14.639v3.581H91.275v4.05h6.021v3.582h-6.02v5.658H102.8v3.583H87.745z" style="fill:#000;fill-opacity:1;fill-rule:evenodd;stroke:none"/>
</svg>
