<svg xmlns="http://www.w3.org/2000/svg" xml:space="preserve" viewBox="-1 0 121.977 121.958" role="img" aria-labelledby="title">
  <title id="title">Verkehrszeichen W5-34-R - Merging Traffic (right)</title>
  <path d="m89.25 160.661 32.664-32.679h46.188l32.699 32.679v46.224l-32.699 32.667h-46.188L89.25 206.885z" style="fill:none;stroke:none" transform="translate(307.66 570.605)scale(1.17193)"/>
  <path d="m119.232 65.216-55.03 55.025c-2.29 2.289-6.105 2.289-8.433 0L.746 65.216c-2.328-2.326-2.328-6.142 0-8.475L55.769 1.718c2.328-2.29 6.143-2.29 8.433 0l55.03 55.023c2.326 2.333 2.326 6.149 0 8.475" style="fill:#fee011;fill-opacity:1;fill-rule:evenodd;stroke:none"/>
  <path d="M63.402 119.287c-1.983 1.607-4.351 1.988-6.408.345l-.423-.307L1.619 64.337c-1.907-2.252-1.907-4.58 0-6.832L56.571 2.517C58.404 1.03 60.503.572 62.6 1.91l.382.307.419.301 54.95 54.988c1.909 2.252 1.909 4.542 0 6.795z" style="fill:#000;fill-opacity:1;fill-rule:evenodd;stroke:none"/>
  <path d="M59.358 118.334c-.419-.112-.61-.265-.991-.535L3.417 62.847c-1.071-1.335-1.071-2.326 0-3.66l54.95-54.952c1.065-.8 2.174-.763 3.206.037l54.988 54.95c1.028 1.3 1.028 2.29 0 3.59l-54.988 54.95c-.726.61-1.297.688-2.215.572" style="fill:#fee011;fill-opacity:1;fill-rule:evenodd;stroke:none"/>
  <path d="m54.287 45.271-7.9 2.316c-.038 0-.342.04-.494.04a2.383 2.383 0 0 1-2.393-2.393c0-.57.38-1.178.608-1.558l15.837-23.092L75.86 43.676c.076.151.608.988.608 1.558a2.383 2.383 0 0 1-2.393 2.392c-.151 0-.456-.039-.494-.039l-7.9-2.316c-.037.456-.037 1.178-.037 1.634 0 7.481 2.886 15.305 8.09 20.509l13.255 13.292-8.014 8.053-13.37-13.218v25.789H54.287z" style="fill:#000;fill-opacity:1;fill-rule:evenodd;stroke:none"/>
</svg>
