<svg xmlns="http://www.w3.org/2000/svg" xml:space="preserve" viewBox="-1 0 121.977 121.958" role="img" aria-labelledby="title">
  <title id="title">Verkehrszeichen W5-12 - Steep Descent</title>
  <path d="m89.25 160.661 32.664-32.679h46.188l32.699 32.679v46.224l-32.699 32.667h-46.188L89.25 206.885z" style="fill:none;stroke:none" transform="translate(-23.104 289.719)scale(1.17193)"/>
  <path d="m.745 65.216 55.025 55.025c2.288 2.289 6.105 2.289 8.432 0l55.029-55.025c2.327-2.326 2.327-6.142 0-8.475L64.202 1.718c-2.327-2.29-6.144-2.29-8.432 0L.745 56.74c-2.327 2.333-2.327 6.149 0 8.475" style="fill:#fee011;fill-opacity:1;fill-rule:evenodd;stroke:none"/>
  <path d="M56.57 119.286c1.987 1.606 4.35 1.988 6.412.345l.419-.307 54.951-54.988c1.908-2.252 1.908-4.58 0-6.832L63.401 2.516c-1.828-1.489-3.926-1.945-6.025-.609l-.383.308-.423.301L1.62 57.504c-1.91 2.252-1.91 4.542 0 6.795z" style="fill:#000;fill-opacity:1;fill-rule:evenodd;stroke:none"/>
  <path d="M60.618 118.333c.42-.112.61-.266.992-.536l54.95-54.95c1.065-1.336 1.065-2.327 0-3.663L61.61 4.234c-1.072-.8-2.18-.763-3.207.037L3.416 59.221c-1.034 1.299-1.034 2.29 0 3.589l54.987 54.95c.727.61 1.3.689 2.215.573" style="fill:#fee011;fill-opacity:1;fill-rule:evenodd;stroke:none"/>
  <path d="M23.296 78.874V45.526l73.23 33.348zm28.736-21.179c2.056 0 3.736-1.718 3.736-3.736 0-2.063-1.68-3.779-3.736-3.779-2.061 0-3.741 1.716-3.741 3.779 0 2.018 1.68 3.736 3.741 3.736m22.553 10.457a3.743 3.743 0 0 0 3.736-3.737 3.743 3.743 0 0 0-3.736-3.741 3.75 3.75 0 0 0-3.743 3.741 3.75 3.75 0 0 0 3.743 3.737m-30.72-17.856c1.68-2.751 4.882-5.877 8.697-5.612 1.606-2.29 5.724-3.355 7.139-3.282 1.41.075 1.22-.073 2.1.383l9.694 4.579c1.027.646 1.483 1.526 1.673 2.406l.88 6.216 7.48 3.361c1.033.647 1.488 2.062.8 3.472l-2.21 4.806-.918.08-.61-.345c2.402-5.421-5.533-9.619-8.358-3.895L56.04 56.057c2.48-5.915-5.688-8.777-8.284-3.896zm19.117-.535 2.29-4.426-4.351-2.253c-1.718-.535-2.481-.307-3.208.457l-2.326 2.597zm1.299.535 2.21-4.467 4.812 2.326.992 5.957z" style="fill:#000;fill-opacity:1;fill-rule:evenodd;stroke:none"/>
</svg>
