<svg xmlns="http://www.w3.org/2000/svg" viewBox="0 0 414.928 249.084" role="img" aria-labelledby="title">
  <title id="title">Verkehrszeichen W8-V112 - Narrow Shoulder on Bridge (used in VIC)</title>
  <g style="display:inline">
    <path d="M161.955-1805.285h262c1.942 0 3.998.345 6.029 1.15a16.388 16.388 0 0 1 10.347 15.225v147.376a16.39 16.39 0 0 1-4.796 11.579 16.36 16.36 0 0 1-11.58 4.796h-262a16.39 16.39 0 0 1-11.58-4.796 16.382 16.382 0 0 1-4.795-11.579v-147.376a16.38 16.38 0 0 1 4.795-11.579 16.4 16.4 0 0 1 5.552-3.646 16.4 16.4 0 0 1 6.028-1.15" style="fill:#fee011;fill-opacity:1;fill-rule:evenodd;stroke:none" transform="translate(-276.483 2643.245)"/>
    <path d="M178.33-1657.909h163.423v-45.851H178.33v45.851" style="fill:none;stroke:#000;stroke-width:.36874998;stroke-linecap:square;stroke-linejoin:round;stroke-miterlimit:1.41499996;stroke-opacity:1;stroke-dasharray:3.2225,3.2225;stroke-dashoffset:0" transform="translate(-276.483 2643.245)"/>
    <path d="M366.972-1689.503c-.017.014-.05.046-.065.061l-.063.062.128.03za11.814 11.814 0 0 1 14.79-1.271 11.8 11.8 0 0 1 3.457 3.603 11.82 11.82 0 0 1 13.286-5.176 11.83 11.83 0 0 1 6.209 4.245 11.83 11.83 0 0 1 2.393 7.129l.146.138v22.925h-8.841v-20.633l.097.056a5.76 5.76 0 0 0-1.689-4.08 5.77 5.77 0 0 0-6.201-1.283 5.77 5.77 0 0 0-3.239 3.239 5.8 5.8 0 0 0-.405 2.124l-.026-.056v20.633h-8.515v-20.633l-.056.056a5.78 5.78 0 0 0-1.689-4.08 5.77 5.77 0 0 0-6.201-1.283 5.77 5.77 0 0 0-3.239 3.239 5.8 5.8 0 0 0-.405 2.124l.128-.056v20.633h-8.843v-34.388h8.843zM375.813-1772.535v45.85h-5.24l-13.428-31.113v31.113h-6.55v-45.85h7.207l11.462 26.527v-26.527zM334.548-1726.685v-45.85h6.55v45.85zM302.525-1738.543a12.54 12.54 0 0 0 18.472 11.042 12.5 12.5 0 0 0 4.105-3.534 12.531 12.531 0 0 0 2.27-9.888 18.64 18.64 0 0 0-9.07-12.65l-.13.033-3.274-1.965-.158-.096a7.16 7.16 0 0 1-3.618-6.225c0-.593.106-1.225.35-1.846a5.02 5.02 0 0 1 4.665-3.169 5.01 5.01 0 0 1 5.015 5.015l-.032.1v.327h6.55v-.328l-.07-.099a11.457 11.457 0 0 0-11.463-11.463 11.48 11.48 0 0 0-8.105 3.357 11.46 11.46 0 0 0-3.358 7.979v.127a13.61 13.61 0 0 0 6.875 11.828l.074.061 3.603 1.965h-.115a12.18 12.18 0 0 1 5.93 8.272 6.091 6.091 0 0 1-5.398 7.217 6.084 6.084 0 0 1-6.67-6.061l.03.068v-1.965h-6.55v1.965l.073-.068M272.615-1738.543a12.55 12.55 0 0 0 4.105 9.278 12.55 12.55 0 0 0 9.628 3.201 12.527 12.527 0 0 0 11.075-9.906c.365-1.739.334-3.428.04-4.953a18.6 18.6 0 0 0-3.151-7.317 18.6 18.6 0 0 0-5.92-5.333l-.022.033-3.602-1.965.063-.096a7.161 7.161 0 0 1-3.619-6.225 5.02 5.02 0 0 1 1.47-3.546 5.02 5.02 0 0 1 3.546-1.469 5 5 0 0 1 3.546 1.47 5.02 5.02 0 0 1 1.469 3.545l.075.1v.327h6.222v-.328l.15-.099a11.47 11.47 0 0 0-3.357-8.106 11.47 11.47 0 0 0-12.325-2.551 11.5 11.5 0 0 0-3.887 2.551 11.5 11.5 0 0 0-2.552 3.886 11.5 11.5 0 0 0-.804 4.22 13.61 13.61 0 0 0 6.875 11.828l-.147.061 3.602 1.965h.106a12.18 12.18 0 0 1 5.93 8.271 6.1 6.1 0 0 1-1.102 4.803 6.1 6.1 0 0 1-4.295 2.415 6.084 6.084 0 0 1-6.67-6.061l.136.067v-1.965h-6.55v1.965l-.035-.068M197.629-1761.746l-1.21-.08a5.016 5.016 0 0 0-7.556-4.328 4.97 4.97 0 0 0-2.181 2.644 40.462 40.462 0 0 0-.005 27.713 5 5 0 0 0 2.185 2.652 5.02 5.02 0 0 0 6.376-1.09 5 5 0 0 0 1.181-3.234l-.076-.024v-1.31h6.55l-.025 1.334a11.48 11.48 0 0 1-2.703 7.392 11.474 11.474 0 0 1-14.57 2.499 11.38 11.38 0 0 1-4.988-6.047 46.834 46.834 0 0 1 .004-32.059 11.36 11.36 0 0 1 4.986-6.038 11.49 11.49 0 0 1 11.387-.118 11.46 11.46 0 0 1 5.884 10.013zM242.52-1734.873l.09-.13a11.83 11.83 0 0 0 11.478 8.997c1.221 0 2.491-.19 3.751-.612a11.8 11.8 0 0 0 6.238-4.888 11.8 11.8 0 0 0 1.49-3.497 61.26 61.26 0 0 0 0-29.29 11.817 11.817 0 0 0-15.23-8.386 11.84 11.84 0 0 0-6.238 4.89 11.8 11.8 0 0 0-1.49 3.496 61.3 61.3 0 0 0 0 29.29zm6.223-1.636.127-.034a5.375 5.375 0 0 0 8.533 2.945 5.37 5.37 0 0 0 1.902-2.945h.001a54.9 54.9 0 0 0 0-26.21 5.37 5.37 0 0 0-5.218-4.09 5.37 5.37 0 0 0-5.218 4.09 55 55 0 0 0-1.588 13.105c0 4.449.542 8.848 1.588 13.105zM216.975-1748.3h5.568l6.55 21.615h6.55l-6.878-22.598.148-.086a12.5 12.5 0 0 0 4.85-4.576 12.464 12.464 0 0 0-4.803-17.447 9.96 9.96 0 0 0-4.72-1.18l-.06.038h-13.755v45.85h6.55zm0-6.223h7.205l.06-.14q.44 0 .87-.107.43-.108.817-.314a6.02 6.02 0 0 0 0-10.62 3.7 3.7 0 0 0-.817-.315 3.6 3.6 0 0 0-.87-.106l-.06.14h-7.205z" style="fill:#000;fill-opacity:1;fill-rule:evenodd;stroke:none" transform="translate(-276.483 2643.245)"/>
    <path d="M161.955-1802.01h262l.12-.037c1.552 0 3.198.276 4.822.919a13.093 13.093 0 0 1 8.278 12.18l-.118.039v147.376l.117-.039a13.092 13.092 0 0 1-13.099 13.1l-.12.039h-262l.118-.039c-1.551 0-3.198-.276-4.821-.92a13.08 13.08 0 0 1-7.36-7.358 13.1 13.1 0 0 1-.92-4.822l-.118.039v-147.376l.119-.04a13.1 13.1 0 0 1 3.837-9.262 13.1 13.1 0 0 1 9.263-3.836zm0 6.55h262l.12-.037a6.554 6.554 0 0 1 6.55 6.549l-.118.039v147.376l.118-.039a6.55 6.55 0 0 1-4.139 6.091 6.6 6.6 0 0 1-2.41.46l-.12.038h-262l.117-.039a6.55 6.55 0 0 1-4.631-1.917 6.555 6.555 0 0 1-1.918-4.632l-.12.038v-147.376l.12-.04a6.55 6.55 0 0 1 1.918-4.63 6.55 6.55 0 0 1 4.63-1.918z" style="fill:#000;fill-opacity:1;fill-rule:evenodd;stroke:none" transform="translate(-276.483 2643.245)"/>
    <path d="M408.075-1761.826a11.46 11.46 0 0 0-9.533-11.3 11.5 11.5 0 0 0-7.737 1.405 11.36 11.36 0 0 0-4.986 6.037 46.81 46.81 0 0 0-.005 32.059 11.4 11.4 0 0 0 4.99 6.047 11.49 11.49 0 0 0 11.388.122 11.47 11.47 0 0 0 5.23-6.197c.453-1.283.653-2.578.653-3.816l.162-.024v-11.462h-11.463v6.55h4.911v4.912l-.057.024a5.01 5.01 0 0 1-4.171 4.944 5.02 5.02 0 0 1-3.387-.62 5 5 0 0 1-2.185-2.653 40.5 40.5 0 0 1 .004-27.712 4.97 4.97 0 0 1 2.184-2.644 5.02 5.02 0 0 1 6.374 1.093 5.02 5.02 0 0 1 1.18 3.235l.058.426h6.552z" style="fill:#000;fill-opacity:1;fill-rule:evenodd;stroke:none" transform="translate(-276.483 2643.245)"/>
    <path d="M304.138-2643.245h359.63l1.665.05 1.654.15 1.64.25 1.626.35 1.604.45 1.577.54 1.54.626 1.501.726 1.44.826 1.402.89 1.34.988 1.29 1.064 1.215 1.14 1.138 1.2 1.075 1.278.992 1.34.902 1.39.824 1.452.741 1.49.638 1.527.55 1.578.45 1.602.363 1.615.263 1.653.151 1.652.061 1.665v193.949l-.048 1.665-.152 1.652-.25 1.642-.348 1.637-.442 1.605-.537 1.565-.638 1.538-.726 1.503-.815 1.442-.9 1.4-.977 1.34-1.064 1.288-1.14 1.215-1.213 1.14-1.263 1.077-1.34.99-1.405.898-1.44.828-1.488.737-1.541.64-1.565.553-1.601.449-1.63.362-1.638.264-1.652.149-1.665.064H304.138l-1.665-.05-1.665-.15-1.64-.25-1.628-.353-1.602-.436-1.578-.54-1.54-.638-1.488-.725-1.453-.814-1.402-.903-1.34-.975-1.277-1.064-1.227-1.139-1.139-1.216-1.064-1.265-1.002-1.339-.901-1.388-.827-1.453-.726-1.49-.65-1.539-.551-1.565-.451-1.602-.363-1.628-.25-1.641-.164-1.65-.062-1.666v-193.95l.05-1.665.151-1.665.25-1.64.35-1.628.439-1.602.55-1.578.626-1.527.726-1.503.814-1.452.901-1.401.99-1.34 1.052-1.278 1.138-1.214 1.215-1.152 1.277-1.064 1.327-.989 1.403-.913 1.438-.827 1.503-.726 1.527-.651 1.578-.551 1.59-.45 1.627-.352 1.64-.262 1.665-.163 1.665-.062z" style="fill:#fee011;fill-opacity:1;fill-rule:evenodd;stroke:none" transform="translate(-276.483 2643.245)"/>
    <path d="M304.138-2626.658h359.63l1.051.05 1.039.151 1.026.25.991.35.952.44.915.512.862.613.788.69.726.763.654.826.573.889.477.939.387.963.3 1.015.2 1.04.101 1.038.012.539v193.786l-.05 1.052-.15 1.04-.25 1.025-.338.988-.436.967-.526.9-.614.865-.69.788-.763.726-.826.649-.879.577-.938.475-.975.4-1.015.29-1.024.2-1.055.1-.525.012h-359.63l-1.051-.049-1.052-.15-1.013-.252-1.003-.339-.951-.439-.914-.525-.851-.613-.801-.688-.727-.765-.65-.826-.563-.875-.49-.939-.387-.976-.3-1.014-.2-1.027-.1-1.052-.013-.526v-193.786l.05-1.051.15-1.04.25-1.027.338-1 .438-.952.526-.914.614-.851.689-.801.762-.727.828-.65.888-.565.927-.487.976-.389 1.014-.3 1.026-.201 1.052-.1zm0-11.054h359.63l1.491.05 1.476.15 1.465.25 1.453.352 1.414.437 1.39.539 1.353.626 1.302.725 1.25.801 1.192.89 1.124.964 1.064 1.039 1.003 1.114.914 1.177.826 1.226.752 1.29.66 1.328.578 1.376.475 1.415.377 1.44.277 1.453.185 1.476.088 1.49v194.3l-.05 1.489-.15 1.477-.238 1.468-.35 1.45-.452 1.415-.538 1.388-.626 1.353-.714 1.302-.811 1.253-.89 1.189-.964 1.127-1.04 1.075-1.114.99-1.163.915-1.24.824-1.29.754-1.327.662-1.377.578-1.404.473-1.436.377-1.465.286-1.48.176-1.489.09-.501.011h-359.63l-1.489-.049-1.49-.152-1.465-.25-1.44-.352-1.427-.45-1.39-.538-1.34-.625-1.302-.714-1.251-.815-1.202-.888-1.127-.963-1.063-1.04-.99-1.114-.914-1.165-.839-1.239-.751-1.276-.663-1.34-.563-1.376-.477-1.404-.387-1.441-.276-1.464-.188-1.476-.087-1.49v-194.288l.05-1.49.15-1.477.25-1.465.338-1.452.452-1.427.537-1.378.626-1.35.727-1.303.8-1.253.89-1.189.963-1.138 1.04-1.065 1.114-.99 1.176-.913 1.228-.839 1.289-.75 1.327-.665 1.378-.563 1.415-.475 1.438-.377 1.453-.287 1.477-.188 1.49-.075z" style="fill:#000;fill-opacity:1;fill-rule:evenodd;stroke:none" transform="translate(-276.483 2643.245)"/>
    <path d="M415.535-2582.44h8.914l-4.456-12.794zm22.985 19.356-15.411-44.231h-6.221l-15.411 44.23h7.31l4.345-12.444h13.733l4.332 12.445zM467.403-2589.35h-10.429v-11.054h10.529l.739.075.726.162.701.275.651.352.6.437.527.526.463.577.375.637.289.689.2.726.088.739v.739l-.1.738-.214.714-.288.676-.387.638-.464.576-.539.514-.612.437-.651.352-.702.25-.726.162-.739.062zm-17.339-17.965v44.23h6.91v-19.354h8.676l6.798 19.355h7.336l-7.286-20.469.99-.501.939-.601.888-.677.827-.75.75-.827.677-.876.6-.952.501-.988.414-1.04.325-1.064.225-1.101.125-1.102.025-1.115-.075-1.113-.175-1.115-.275-1.077-.364-1.05-.462-1.015-.551-.977-.64-.914-.713-.864-.789-.788-.851-.714-.914-.638-.976-.55-1.014-.465-1.052-.362-1.076-.276-1.102-.175-1.115-.075h-17.576M508.904-2589.35h-10.416v-11.054h10.516l.751.075.727.162.688.275.652.352.6.437.538.526.452.577.387.637.289.689.187.726.1.739-.012.739-.1.738-.2.714-.301.676-.388.638-.464.576-.537.514-.601.437-.664.352-.701.25-.727.162-.738.062zm-17.339-17.965v44.23h6.923v-19.354h8.676l6.786 19.355h7.337L514-2583.553l.989-.501.951-.601.889-.677.814-.75.751-.827.689-.876.589-.952.5-.988.426-1.04.312-1.064.225-1.101.127-1.102.025-1.115-.075-1.113-.177-1.115-.262-1.077-.375-1.05-.464-1.015-.551-.977-.625-.914-.714-.864-.789-.788-.863-.714-.915-.638-.964-.55-1.026-.465-1.052-.362-1.077-.276-1.101-.175-1.114-.075h-17.578M552.247-2596.235l.526 1.827.437 1.853.338 1.878.239 1.878.137 1.902.05 1.904-.062 1.903-.163 1.902-.264 1.891-.362 1.865-.451 1.853-.425 1.415-.314.801-.388.751-.488.702-.563.638-.639.575-.688.49-.752.412-.788.313-.827.225-.838.113-.852.025-.851-.075-.839-.175-.801-.263-.776-.376-.726-.45-.664-.526-.588-.614-.526-.676-.439-.725-.35-.776-.137-.39-.539-1.827-.425-1.852-.339-1.879-.237-1.89-.138-1.89-.05-1.904.063-1.902.162-1.903.263-1.89.364-1.866.45-1.852.426-1.415.3-.802.401-.75.488-.702.563-.639.627-.575.7-.489.752-.413.789-.313.826-.225.839-.125.851-.025.851.075.839.175.801.275.777.364.713.45.675.539.589.613.526.664.438.738.351.776zm-20.42 24.187.413 1.114.502 1.076.588 1.04.675.976.764.927.826.85.902.777.965.701 1.013.627 1.064.525 1.115.438 1.139.35 1.164.252 1.177.15 1.189.05 1.19-.05 1.189-.15 1.165-.252 1.138-.35 1.102-.438 1.065-.525 1.026-.627.951-.7.901-.777.839-.851.751-.927.677-.976.6-1.04.5-1.076.415-1.114.588-2.004.488-2.015.389-2.04.287-2.066.2-2.066.089-2.078-.013-2.078-.1-2.08-.213-2.064-.3-2.054-.414-2.04-.5-2.016-.501-1.703-.414-1.113-.5-1.077-.589-1.04-.676-.976-.764-.926-.826-.851-.901-.777-.964-.7-1.014-.627-1.064-.525-1.115-.439-1.138-.35-1.165-.251-1.177-.15-1.19-.05-1.201.05-1.177.15-1.164.251-1.139.338-1.102.45-1.077.526-1.013.614-.965.7-.902.79-.826.85-.751.915-.688.988-.588 1.028-.502 1.089-.412 1.113-.589 2.004-.489 2.015-.387 2.041-.288 2.053-.201 2.079-.087 2.077.012 2.079.1 2.079.214 2.065.3 2.053.412 2.04.502 2.017zM459.128-2467.7h-10.466v11.055h8.4l.788-.05.764-.15.751-.238.714-.339.664-.437.601-.501.538-.577.463-.65.375-.688.277-.74.187-.763.088-.789-.013-.788-.112-.777-.213-.763-.012-.037-.264-.59-.35-.55-.426-.475-.5-.413-.552-.326-.601-.225-.626-.15-.588-.038zm5.27 27.092-.175.614-.275.587-.351.538-.438.477-.514.4-.55.314-.613.225-.627.124-.513.04h-11.68v-12.445h8.287l.876.05.852.15.838.25.802.339.763.437.702.514.638.589.564.662.5.726.401.764.313.814.212.851.114.864.025.877-.089.863zm-22.66-34.002v44.23h18.603l1.04-.05 1.052-.15 1.013-.249 1.002-.34.952-.437.914-.525.851-.614.801-.688.727-.766.65-.826.563-.875.49-.939.387-.975.301-1.016.087-.4.188-1.189.1-1.202-.013-1.203-.1-1.201-.212-1.19-.301-1.164-.4-1.139-.502-1.09-.576-1.063-.675-1.002-.751-.94-.814-.876-.901-.814-.088-.062.802-.826.712-.901.639-.951.551-1.002.463-1.052.376-1.089.262-1.114.175-1.127.077-1.151-.027-1.14-.125-1.14-.212-1.125-.325-1.103-.05-.15-.401-.976-.488-.939-.576-.876-.651-.826-.739-.752-.801-.688-.852-.602-.913-.525-.964-.426-1.003-.337-1.026-.24-1.039-.15-.976-.036zM497.124-2456.645h-10.416v-11.054h10.529l.738.075.727.162.688.275.663.352.589.437.538.526.463.577.376.637.288.689.2.726.088.739v.739l-.113.738-.2.714-.288.689-.389.625-.462.576-.551.514-.602.437-.65.352-.7.25-.727.162-.739.062zm-17.327-17.965v44.23h6.91v-19.354h8.677l6.798 19.355h7.336l-7.299-20.47 1.001-.5.939-.601.89-.677.826-.75.752-.827.675-.876.6-.952.502-.988.413-1.04.326-1.064.225-1.101.125-1.103.025-1.114-.075-1.113-.175-1.103-.276-1.089-.363-1.05-.464-1.016-.55-.976-.638-.914-.714-.864-.789-.788-.851-.714-.914-.626-.976-.563-1.015-.451-1.051-.375-1.09-.276-1.102-.175-1.113-.075h-17.565M541.43-2467.7h5.52l.927.05.927.15.889.25.864.34.826.425.776.526.714.6.637.664.564.738.451.727v.012l.689 1.327.588 1.351.488 1.403.4 1.427.314 1.453.2 1.465.1 1.476.013 1.49-.1 1.478-.2 1.477-.29 1.453-.387 1.426-.488 1.402-.575 1.365-.677 1.327-.012.026-.476.786-.564.739-.65.677-.701.603-.764.526-.826.436-.864.351-.889.252-.926.16-.928.052h-5.57zm-6.923 37.32h12.443l1.253-.05 1.239-.15 1.227-.249 1.189-.34 1.177-.45 1.127-.525 1.077-.626 1.026-.703.977-.786.9-.866.827-.926.751-1.002.589-.902.814-1.5.726-1.54.626-1.578.538-1.615.439-1.64.35-1.665.237-1.678.151-1.703.05-1.702-.062-1.69-.151-1.703-.263-1.677-.35-1.665-.439-1.64-.551-1.603-.637-1.577-.727-1.54-.488-.889-.64-1.076-.725-1.015-.814-.951-.876-.877-.952-.813-1.013-.727-1.064-.651-1.115-.563-1.164-.463-1.19-.375-1.214-.277-1.24-.187-1.238-.075h-12.82v44.231zM569.135-2607.315l5.934 44.23h6.36l7.124-28.33 6.835 28.33h6.36l6.085-44.23h-6.975l-3.279 23.837-5.921-23.837h-6.36l-5.948 24.15-3.242-24.15zM571.777-2439.632l.387 1.128.489 1.087.564 1.04.663 1.003.739.939.814.862.889.803.95.726 1.002.637 1.064.55 1.09.465 1.139.374 1.165.278 1.176.176 1.189.073 1.19-.024 1.188-.125 1.178-.226 1.151-.324 1.115-.415 1.076-.513 1.039-.6.976-.676.917-.766.85-.838.776-.9.7-.966.615-1.026.525-1.065.437-1.111.35-1.14.24-1.167.149-1.187.051-1.153v-8.776H584.41v6.911h8.3v1.865l-.063.852-.137.85-.251.815-.338.788-.439.74-.512.674-.589.626-.651.54-.726.463-.764.39-.801.285-.839.189-.851.088-.852-.012-.85-.1-.827-.213-.801-.301-.764-.389-.701-.486-.65-.553-.577-.638-.5-.687-.413-.753-.327-.788-.087-.287-.513-1.879-.413-1.903-.313-1.927-.214-1.941-.112-1.94-.025-1.953.087-1.941.19-1.94.274-1.929.388-1.915.476-1.89.175-.589.289-.813.387-.764.476-.714.55-.651.627-.588.676-.5.751-.427.789-.338.814-.237.838-.138.864-.05.851.062.84.15.813.25.789.352.726.437.689.526.612.588.539.664.464.713.362.777.188.488 6.562-2.19-.429-1.115-.51-1.077-.613-1.026-.69-.977-.764-.913-.838-.84-.915-.775-.965-.69-1.026-.613-1.076-.526-1.115-.425-1.139-.338-1.176-.238-1.178-.138-1.188-.037-1.203.062-1.176.163-1.165.263-1.139.35-1.101.452-1.065.537-1.014.626-.964.714-.888.789-.827.864-.75.926-.677.989-.576 1.04-.5 1.088-.402 1.114-.05.163-.563 2.053-.463 2.067-.364 2.09-.262 2.103-.163 2.103-.062 2.129.037 2.116.125 2.115.238 2.104.339 2.09.425 2.078.526 2.053.187.626zM607.794-2430.38h26.955v-6.91h-20.044v-12.444h13.823v-6.911h-13.823v-11.054h18.667v-6.911h-25.578zM372.08-2474.61v44.23h6.912v-28.682l15.9 28.683h6.91v-44.231h-6.91v28.68l-15.9-28.68zM360.2-2607.315v44.23h6.91v-28.682l15.9 28.683h6.91v-44.231h-6.91v28.682l-15.9-28.682zM524.29-2430.38v-44.232h-6.911v44.233zM355.58-2463.53l.539 1.827.438 1.853.338 1.878.238 1.878.137 1.902.038 1.904-.063 1.903-.162 1.902-.263 1.891-.351 1.865-.462 1.853-.427 1.416-.3.799-.401.754-.487.698-.552.64-.638.575-.702.49-.751.413-.789.314-.826.223-.839.125-.851.012-.851-.076-.839-.172-.801-.264-.764-.362-.726-.464-.664-.526-.6-.615-.526-.675-.439-.727-.35-.777-.137-.385-.527-1.829-.437-1.854-.339-1.877-.237-1.89-.138-1.891-.037-1.903.062-1.902.163-1.904.25-1.89.363-1.865.463-1.853.414-1.415.312-.8.401-.752.475-.701.564-.64.639-.575.701-.488.739-.414.801-.312.814-.225.851-.125.851-.025.852.088.826.175.814.262.763.364.727.45.662.539.601.614.514.675.45.726.351.776zm-20.406 24.187.4 1.115.514 1.075.589 1.04.675.975.75.928.84.85.89.777.963.7 1.027.626 1.063.525 1.103.44 1.139.35 1.163.25 1.19.152 1.189.049 1.19-.05 1.176-.15 1.165-.25 1.139-.35 1.115-.44 1.064-.526 1.014-.61.963-.716.902-.777.826-.85.764-.928.676-.975.589-1.027.5-1.088.413-1.115.589-2.004.488-2.015.388-2.04.3-2.066.189-2.066.088-2.079v-2.077l-.113-2.08-.201-2.064-.313-2.054-.401-2.04-.5-2.016-.514-1.703-.412-1.113-.501-1.078-.59-1.039-.675-.976-.752-.926-.838-.851-.902-.777-.963-.7-1.014-.627-1.064-.526-1.102-.438-1.14-.35-1.164-.251-1.189-.15-1.19-.05-1.189.05-1.176.15-1.165.251-1.139.338-1.115.45-1.063.526-1.014.614-.964.7-.902.79-.84.85-.75.915-.675.988-.59 1.027-.5 1.09-.413 1.113-.589 2.004-.488 2.015-.388 2.041-.3 2.053-.189 2.079-.1 2.077.013 2.079.112 2.077.202 2.067.312 2.053.401 2.04.5 2.018zM341.245-2495.292l-1.238.013-1.228-.1-1.226-.188-1.19-.288-1.176-.389-1.14-.475-1.09-.576-1.038-.664-.989-.738-.927-.814-.851-.889-.79-.951-.7-1.026-.613-1.065-.526-1.114-.425-1.151-.077-.24 6.6-2.064.312.864.413.813.5.752.577.713.651.638.714.564.775.476.827.387.864.302.889.2.901.1.914.013.3-.025.826.025.826-.062.814-.175.789-.264.751-.363.701-.45.651-.526.577-.601.5-.664.413-.714.325-.763.225-.802.14-.826.037-.826-.075-.826-.164-.814-.263-.801-.35-.752-.45-.7-.515-.638-.6-.59-.663-.5-.714-.413-.764-.339-.801-.237-.826-.138-.313-.025-3.881-.362-1.064-.076-1.052-.188-1.039-.275-.989-.376-.964-.475-.915-.551-.863-.639-.789-.713-.726-.79-.638-.85-.564-.902-.488-.963-.375-.99-.288-1.038-.201-1.052-.088-1.052-.012-.463.05-1.177.15-1.163.251-1.153.35-1.126.439-1.09.525-1.051.614-1.002.701-.938.789-.89.851-.813.914-.739.976-.65 1.027-.577 1.077-.475 1.101-.389 1.14-.287 1.164-.2 1.177-.102 1.176.012 1.164.1 1.165.202 1.139.3 1.102.4 1.077.488 1.013.59.977.663.915.739.838.826.777.889.687.938.614 1.014.326.626-6.222 3.018-.402-.726-.487-.664-.576-.614-.639-.537-.689-.452-.75-.362-.789-.276-.813-.188-.827-.075-.826.025-.826.113-.801.225-.764.3-.739.413-.664.49-.613.563-.539.625-.463.701-.376.739-.275.789-.175.813-.087.827-.013.287.05.664.15.651.25.626.326.59.425.512.49.463.55.375.6.29.64.2.663.1.512.012 4.345.425 1.164.164 1.14.275 1.126.362 1.077.452 1.052.55.989.64.926.712.876.789.802.864.713.927.64.989.563 1.039.462 1.076.364 1.115.275 1.151.175 1.165.075 1.164-.012 1.177-.125 1.177-.225 1.15-.327 1.14-.412 1.09-.501 1.063-.602 1.015-.675.964-.763.901-.827.827-.9.763-.966.677-1.014.588-1.063.513-1.103.414-1.126.312-1.164.225-1.165.126-1.176.013-.339-.013zM367.048-2540.55v44.243h6.911v-19.355h15.899v19.355h6.911v-44.242h-6.911v17.977h-15.899v-17.977zM431.022-2529.47l.538 1.828.438 1.853.339 1.878.237 1.89.138 1.903.037 1.903-.062 1.903-.163 1.903-.262 1.877-.352 1.88-.462 1.84-.426 1.427-.3.788-.402.764-.487.7-.564.639-.626.564-.701.5-.752.4-.788.326-.827.214-.838.125-.852.025-.851-.075-.826-.175-.814-.277-.776-.362-.714-.451-.662-.538-.602-.601-.526-.676-.437-.727-.352-.788-.137-.375-.526-1.83-.438-1.852-.339-1.877-.237-1.891-.138-1.903-.037-1.902.062-1.904.15-1.903.264-1.877.363-1.879.463-1.84.413-1.427.312-.79.402-.763.476-.7.562-.639.639-.563.689-.502.751-.4.801-.325.814-.213.851-.125.852-.025.85.075.827.175.814.276.764.362.726.452.664.537.6.601.513.677.452.726.35.789zm-20.407 24.187.4 1.115.502 1.089.6 1.026.677.989.751.915.839.851.889.789.964.7 1.013.614 1.077.538 1.102.438 1.139.339 1.165.25 1.189.15 1.19.05 1.188-.05 1.178-.138 1.164-.25 1.138-.351 1.115-.438 1.064-.526 1.014-.626.965-.7.901-.776.826-.864.764-.915.675-.976.589-1.04.501-1.075.413-1.115v-.012l.588-1.99.489-2.03.388-2.04.3-2.053.188-2.065.088-2.079v-2.078l-.113-2.078-.201-2.066-.312-2.053-.4-2.04-.502-2.016-.513-1.702-.413-1.115-.501-1.09-.589-1.025-.675-.99-.751-.914-.839-.851-.901-.79-.965-.7-1.014-.613-1.064-.539-1.102-.437-1.139-.339-1.164-.25-1.19-.15-1.188-.05-1.19.05-1.177.15-1.165.238-1.151.35-1.102.438-1.064.54-1.014.612-.964.7-.901.79-.839.85-.751.916-.676.976-.589 1.039-.514 1.076-.4 1.115v.012l-.588 1.99-.488 2.029-.389 2.04-.3 2.054-.187 2.065-.101 2.078.012 2.078.114 2.079.2 2.066.312 2.065.402 2.029.5 2.015zM451.44-2540.55v30.26l.05 1.227.152 1.201.25 1.203.35 1.164.438 1.138.527 1.103.625 1.051.7.989.79.939.85.863.927.79.99.725 1.051.627 1.089.55 1.128.45 1.163.352 1.203.263 1.201.162 1.215.062 1.226-.037 1.215-.137 1.189-.225 1.176-.34 1.14-.424 1.102-.526 1.065-.6 1-.702.94-.776.876-.839.801-.926.726-.977.652-1.04.55-1.075.463-1.128.375-1.164.277-1.19.175-1.213.075-1.215v-30.585h-6.91v30.26l-.052.9-.15.877-.237.851-.35.827-.427.776-.513.739-.6.663-.664.59-.726.512-.789.438-.814.338-.864.239-.876.15-.889.05-.888-.05-.889-.15-.853-.252-.826-.337-.775-.426-.726-.525-.664-.59-.601-.675-.514-.727-.425-.776-.339-.826-.25-.851-.15-.89-.05-.875v-30.26zM496.485-2540.55v44.243h26.954v-6.91h-20.042v-37.332zM540.954-2533.64h5.534l.926.05.926.15.889.252.864.338.826.439.776.524.702.59.65.675.565.74.45.725v.012l.676 1.314.589 1.365.5 1.39.4 1.426.3 1.453.213 1.477.102 1.478v1.49l-.09 1.477-.2 1.464-.287 1.453-.401 1.427-.475 1.403-.589 1.376-.664 1.315-.012.025-.488.801-.563.739-.639.676-.701.601-.777.525-.813.44-.864.35-.889.25-.926.15-.926.062h-5.584zm-6.911 37.333h12.445l1.251-.05 1.24-.15 1.214-.25 1.202-.35 1.164-.438 1.128-.54 1.088-.613 1.027-.714.963-.788.903-.852.839-.938.75-.99.588-.913.814-1.49.714-1.54.639-1.577.538-1.615.438-1.64.339-1.665.25-1.69.15-1.69.037-1.703-.05-1.702-.15-1.69-.262-1.678-.352-1.665-.45-1.641-.538-1.614-.64-1.577-.738-1.528-.475-.901-.639-1.065-.738-1.014-.802-.951-.888-.889-.94-.801-1.014-.739-1.064-.639-1.126-.563-1.153-.463-1.188-.376-1.215-.287-1.24-.176-1.24-.075-.374-.013h-12.445zM575.558-2496.307h26.954v-6.91h-20.044v-12.444h13.822v-6.91h-13.822v-11.068h18.654v-6.91h-25.564zM632.095-2522.572H621.68v-11.067h10.529v.012l.739.062.725.175.69.264.65.362.6.439.54.512.462.59.378.638.285.689.187.713.101.74-.012.75-.1.725-.2.727-.303.676-.385.639-.465.576-.537.512-.603.44-.662.337-.701.263-.727.163-.737.062h-.038zm-17.326-17.977v44.242h6.91v-19.355h8.675l6.798 19.355h7.338l-7.298-20.468.987-.514.951-.588.889-.676.828-.751.75-.826.675-.89.59-.938.512-1.002.414-1.027.325-1.076.214-1.09.125-1.114.023-1.113-.073-1.115-.163-1.102-.275-1.076-.376-1.052-.45-1.027-.554-.963-.636-.914-.715-.864-.788-.789-.862-.713-.915-.64-.964-.55-1.015-.463-1.062-.364-1.08-.274-1.1-.176-1.114-.075-.238-.013z" style="fill:#000;fill-opacity:1;fill-rule:evenodd;stroke:none" transform="translate(-276.483 2643.245)"/>
  </g>
</svg>
