<svg xmlns="http://www.w3.org/2000/svg" viewBox="0 0 225.464 225.464" role="img" aria-labelledby="title">
  <title id="title">Verkehrszeichen W5-232-N - Buses Turning (used in NSW)</title>
  <g transform="translate(320.023 230.482)scale(.27649)">
    <rect width="600" height="600" x="-529.001" y="531.287" rx="40" ry="40" style="fill:#fee011;fill-opacity:1;stroke:none" transform="rotate(-45)scale(1 -1)"/>
    <rect width="584" height="584" x="-521.001" y="539.287" rx="32" ry="32" style="fill:#000;fill-opacity:1;stroke:none" transform="rotate(-45)scale(1 -1)"/>
    <rect width="552" height="552" x="-505.001" y="555.287" rx="16" ry="16" style="fill:#fee011;fill-opacity:1;stroke:none" transform="rotate(-45)scale(1 -1)"/>
    <g style="fill:#000">
      <path d="M138.531-488.606c0 3.53-1.091 6.587-3.169 9.152-2.136 2.631-5.27 3.928-9.345 3.928h-17.39v-43.803h16.729c3.494 0 6.407 1.022 8.694 3.133 2.276 2.176 3.483 5.101 3.483 8.897-.058 4.382-1.463 7.43-4.272 9.152 3.46 1.988 5.27 5.168 5.27 9.54m-7.708-18.173c0-1.637-.406-2.934-1.254-3.918-.847-.994-2.1-1.505-3.75-1.505h-10.214v10.657h10.145c1.51 0 2.717-.587 3.622-1.703.906-1.117 1.382-2.291 1.451-3.53m.523 18.371c-.07-1.637-.534-3-1.44-4.117-.917-1.117-2.113-1.637-3.633-1.694h-10.727v11.765h10.471c1.637 0 2.902-.587 3.89-1.836.963-1.25 1.439-2.613 1.439-4.118M175.133-491.219c0 3.465-.674 6.465-2.032 9.087-1.103 2.167-2.855 3.909-5.27 5.3-2.426 1.391-5.003 2.092-7.708 2.092s-5.282-.634-7.708-2.092c-2.415-1.391-4.226-3.133-5.328-5.3-1.289-2.622-1.974-5.622-1.974-9.087v-28.11h6.977v28.11c0 2.811.743 5.092 2.24 6.796 1.428 1.78 3.355 2.622 5.793 2.622s4.365-.842 5.862-2.622c1.428-1.704 2.171-3.985 2.171-6.796v-28.11h6.977zM201.472-509.391c-1.358-2.556-3.552-3.852-6.512-3.928-1.718 0-3.18.52-4.284 1.571-1.102 1.06-1.706 2.29-1.648 3.73 0 1.04.546 1.949 1.579 2.81.975.862 2.646 1.43 4.875 1.76 5.329.938 9.183 2.67 11.586 5.301 2.344 2.698 3.563 5.688 3.563 9.086 0 3.73-1.486 7.042-4.283 9.939-2.798 2.962-6.385 4.382-10.668 4.382-6.78-.067-11.841-3.445-15.08-10.203 2.206-1.127 4.446-2.206 6.652-3.332 2.008 4.26 4.945 6.341 8.567 6.341 2.101.067 3.958-.71 5.456-2.224 1.497-1.514 2.31-3.199 2.31-5.224.058-1.382-.546-2.679-1.776-4.06-1.242-1.316-3.436-2.206-6.524-2.812-4.214-.596-7.464-1.874-9.681-3.852-2.218-1.922-3.355-4.25-3.355-6.928-.07-3.209 1.09-6.2 3.424-8.964 2.333-2.697 5.526-4.05 9.415-4.05 5.467.132 9.588 2.659 12.247 7.713-1.94.994-3.912 1.95-5.863 2.944M243.623-475.526h-27.396v-43.803h26.003v6.928h-19.027v10.79h12.84v7.06h-12.84v11.964h20.42zM269.962-509.391c-1.358-2.556-3.564-3.852-6.524-3.928-1.706 0-3.169.52-4.283 1.571-1.103 1.06-1.707 2.29-1.649 3.73 0 1.04.546 1.949 1.59 2.81.976.862 2.636 1.43 4.865 1.76 5.328.938 9.194 2.67 11.596 5.301 2.334 2.698 3.553 5.688 3.553 9.086 0 3.73-1.486 7.042-4.284 9.939-2.786 2.962-6.385 4.382-10.668 4.382-6.78-.067-11.84-3.445-15.068-10.203 2.194-1.127 4.435-2.206 6.64-3.332 2.008 4.26 4.945 6.341 8.567 6.341 2.101.067 3.97-.71 5.468-2.224 1.486-1.514 2.298-3.199 2.298-5.224.07-1.382-.545-2.679-1.776-4.06-1.23-1.316-3.424-2.206-6.524-2.812-4.202-.596-7.464-1.874-9.67-3.852-2.217-1.922-3.366-4.25-3.366-6.928-.058-3.209 1.091-6.2 3.424-8.964 2.345-2.697 5.538-4.05 9.415-4.05 5.468.132 9.6 2.659 12.258 7.713-1.95.994-3.923 1.95-5.862 2.944M104.787-447.138H94.584v37.651h-6.976v-37.651H77.533v-6.152h27.254zM141.465-425.17c0 3.455-.685 6.455-2.043 9.086-1.102 2.158-2.843 3.9-5.27 5.291-2.414 1.391-5.002 2.092-7.695 2.092-2.704 0-5.293-.634-7.707-2.092-2.426-1.391-4.236-3.133-5.34-5.29-1.288-2.623-1.972-5.632-1.972-9.087v-28.12h6.976v28.12c0 2.811.754 5.083 2.251 6.796 1.416 1.78 3.355 2.612 5.792 2.612 2.438 0 4.364-.833 5.85-2.612 1.44-1.713 2.182-3.985 2.182-6.796v-28.12h6.976zM178.004-409.487h-7.568c-2.333-6.35-4.793-12.673-7.115-19.024h-8.357v19.024h-6.987v-43.803h17.457c3.621.075 6.476 1.296 8.554 3.861 2.008 2.565 3.1 5.358 3.1 8.434 0 2.29-.686 4.505-1.916 6.54-1.23 2.092-2.902 3.578-4.933 4.505 2.542 6.834 5.223 13.63 7.765 20.463m-7.835-31.31c0-1.703-.534-3-1.509-3.928-1.044-.918-2.24-1.372-3.493-1.438h-10.203v10.79h10.47c1.311 0 2.449-.455 3.354-1.439s1.381-2.29 1.381-3.985M214.543-409.487h-6.186c-5.525-9.928-11.329-19.753-16.854-29.682v29.682h-6.976v-43.803h6.976c5.27 9.36 10.795 18.627 16.064 27.987v-27.987h6.976zM230.352-409.487h-7.115v-43.803h7.115zM269.19-409.487h-6.187c-5.525-9.928-11.329-19.753-16.854-29.682v29.682h-6.976v-43.803h6.976c5.27 9.36 10.795 18.627 16.064 27.987v-27.987h6.976zM291.58-415.696c3.946-.066 6.337-2.81 7.045-8.102h-6.779v-7.325h14.741v1.893c-.058 6.739-1.416 11.812-4.016 15.295q-3.987 5.236-10.794 5.234c-5.328-.066-9.39-2.007-12.118-6.01-2.786-4.013-4.214-9.55-4.214-16.677 0-7.128 1.428-12.665 4.214-16.668 2.727-4.013 6.72-5.954 11.92-5.954 6.384.142 10.91 2.868 13.557 8.301-2.159 1.089-4.352 2.13-6.511 3.209-1.428-3.02-3.819-4.506-7.046-4.572-3.099 0-5.35 1.43-6.72 4.307-1.358 2.953-2.101 6.739-2.101 11.377 0 4.647.743 8.433 2.1 11.31 1.37 2.953 3.622 4.382 6.721 4.382" style="fill:#000;fill-opacity:1;fill-rule:evenodd;stroke:none" transform="translate(-1188.299 635.863)scale(2.28879)"/>
    </g>
  </g>
</svg>
