<svg xmlns="http://www.w3.org/2000/svg" viewBox="0 0 323.43 323.427" role="img" aria-labelledby="title">
  <title id="title">Verkehrszeichen W1-3-L - Curve to left</title>
  <path d="m315 545-80-170 80-170 80 170z" style="fill:none;stroke:#fff;stroke-width:40" transform="translate(18871.729 12789.263)"/>
  <path d="m318.747 172.997-145.75 145.736a15.905 15.905 0 0 1-22.564 0L4.683 172.997c-6.244-6.244-6.244-16.323 0-22.578L150.433 4.683a15.93 15.93 0 0 1 22.564 0l145.75 145.736c6.244 6.255 6.244 16.334 0 22.578" style="fill:#fee011;fill-opacity:1;fill-rule:evenodd;stroke:none"/>
  <path d="M316.73 170.38 170.474 316.62c-4.83 4.843-12.598 4.843-17.526 0L6.698 170.38c-4.83-4.844-4.83-12.697 0-17.54L152.948 6.598c4.929-4.844 12.697-4.844 17.527 0l146.254 146.24c4.83 4.844 4.83 12.697 0 17.54" style="fill:#000;fill-opacity:1;fill-rule:evenodd;stroke:none"/>
  <path d="M312.489 165.846 165.94 312.394c-2.406 2.409-6.046 2.409-8.456 0L10.938 165.846c-2.42-2.42-2.42-6.047 0-8.47L157.485 10.829c2.41-2.42 6.05-2.42 8.456 0L312.49 157.376c2.42 2.423 2.42 6.05 0 8.47" style="fill:#fee011;fill-opacity:1;fill-rule:evenodd;stroke:none"/>
  <path d="M214.121 219.429c0-50.091-34.406-93.211-80.352-106.564l11.949-19.632c1.107-3.037-.815-7.183-4.16-8.294a7.36 7.36 0 0 0-3.838.297L62.737 112.36l52.003 58.38c.815.509 2.233 1.927 3.542 2.237 3.344.801 6.382-.815 7.49-3.95l-1.923-22.67c31.775 8.096 55.654 38.259 55.654 73.07v28.223h34.618z" style="fill:#000;fill-opacity:1;fill-rule:evenodd;stroke:none"/>
</svg>
