<svg xmlns="http://www.w3.org/2000/svg" xml:space="preserve" viewBox="-.451 -.943 122.612 81.761" role="img" aria-labelledby="title">
  <title id="title">Verkehrszeichen W8-8 - When Wet</title>
  <path d="M7.747-.943h106.21c4.52 0 8.204 3.684 8.204 8.205v65.359c0 4.514-3.683 8.197-8.205 8.197H7.746c-4.513 0-8.197-3.683-8.197-8.197V7.262c0-4.521 3.684-8.205 8.197-8.205" style="fill:#fee011;fill-opacity:1;fill-rule:evenodd;stroke:none"/>
  <path d="M7.747.722h106.21c3.633 0 6.597 2.956 6.597 6.59V72.62c0 3.635-2.964 6.59-6.598 6.59H7.746a6.597 6.597 0 0 1-6.59-6.59V7.312a6.597 6.597 0 0 1 6.59-6.59" style="fill:#000;fill-opacity:1;fill-rule:evenodd;stroke:none"/>
  <path d="M7.697 3.988h106.318a3.256 3.256 0 0 1 3.266 3.274v65.409a3.25 3.25 0 0 1-3.266 3.266H7.697a3.255 3.255 0 0 1-3.274-3.266V7.262a3.26 3.26 0 0 1 3.274-3.274" style="fill:#fee011;fill-opacity:1;fill-rule:evenodd;stroke:none"/>
  <path d="M19.637 14.372h3.582l2.335 12.355 3.011-12.355h3.479l3.218 12.459 2.232-12.459h3.583L37.39 34.826H33.55l-3.166-12.823-3.219 12.823h-3.737zM44.969 14.372h3.478v7.943h9.292v-7.943h3.53v20.454h-3.53v-8.981h-9.292v8.98h-3.478zM66.513 14.372h14.639v3.583h-11.11v4.048h6.022v3.582h-6.021v5.658h11.525v3.583H66.513zM85.72 14.372h3.374l9.345 13.498V14.372h3.581v20.454h-3.166L89.25 20.913v13.913h-3.53zM31.835 45.207h3.583l2.335 12.355 3.011-12.355h3.479l3.217 12.459 2.233-12.459h3.582L49.59 65.661h-3.841l-3.166-12.823-3.22 12.823h-3.737zM57.169 45.207h14.639v3.583H60.699v4.048h6.021v3.582H60.7v5.658h11.525v3.583H57.169zM74.819 45.207h15.055v3.323h-5.815v17.13h-3.53V48.53h-5.71z" style="fill:#000;fill-opacity:1;fill-rule:evenodd;stroke:none"/>
</svg>
