<svg xmlns="http://www.w3.org/2000/svg" viewBox="0 0 815.864 815.864" role="img" aria-labelledby="title">
  <title id="title">Verkehrszeichen W5-V130 - Rumble Strips (used in VIC)</title>
  <g transform="translate(1353.946 3832.628)">
    <rect width="600" height="600" x="1452.693" y="2790.559" rx="40" ry="40" style="fill:#fee011;fill-opacity:1;stroke:none;stroke-width:8;stroke-linejoin:miter;stroke-miterlimit:4;stroke-dasharray:none;stroke-dashoffset:0;stroke-opacity:1" transform="rotate(-45)scale(1 -1)"/>
    <rect width="584" height="584" x="1460.693" y="2798.559" rx="32" ry="32" style="fill:#000;fill-opacity:1;stroke:none;stroke-width:8;stroke-linejoin:miter;stroke-miterlimit:4;stroke-dasharray:none;stroke-dashoffset:0;stroke-opacity:1" transform="rotate(-45)scale(1 -1)"/>
    <rect width="552" height="552" x="1476.693" y="2814.559" rx="16" ry="16" style="fill:#fee011;fill-opacity:1;stroke:none;stroke-width:8;stroke-linejoin:miter;stroke-miterlimit:4;stroke-dasharray:none;stroke-dashoffset:0;stroke-opacity:1" transform="rotate(-45)scale(1 -1)"/>
    <path d="M-1176.96-3426.174v-98.513h13.553v39.119h16.54a8.64 8.64 0 0 0 5.643-1.502 8.88 8.88 0 0 0 3.46-4.775c.528-2.178.775-4.43.723-6.71a28 28 0 0 0-.302-3.386 24 24 0 0 0-.316-1.663 25 25 0 0 0-.304-1.22l-.035-.1-.036-.104-.035-.1-.035-.1-.036-.037v-.04l-.035-.043-.036-.035c-.035-.051-.054-.105-.079-.154-.058-.104-.107-.201-.169-.309a10.2 10.2 0 0 0-1.246-1.735 10 10 0 0 0-2.251-1.878 9.87 9.87 0 0 0-5.469-1.44h-16.036v-13.792h16.036c8.081-.165 15.667 3.943 20.042 10.857a33.3 33.3 0 0 1 3.979 15.586 32.6 32.6 0 0 1-.96 8.18 33.2 33.2 0 0 1-2.371 6.588c-.068.133-.147.301-.215.436q-.11.218-.223.434a22 22 0 0 1-.935 1.447 23.2 23.2 0 0 1-6.194 6.046 22.5 22.5 0 0 1-2.994 1.677l14.003 47.262h-14.148l-13.518-45.602h-12.503v45.602h-13.552M-1097.87-3524.687h13.543v72.655c0 3.281 1.19 6.825 3.896 9.578a13.16 13.16 0 0 0 9.405 3.966c3.22 0 6.701-1.21 9.403-3.966 2.705-2.753 3.896-6.297 3.896-9.578v-72.655h13.543v72.655c0 3.237-.568 6.672-1.884 10.062a27.4 27.4 0 0 1-5.977 9.267 26.8 26.8 0 0 1-9.102 6.09 26.42 26.42 0 0 1-19.76 0 26.8 26.8 0 0 1-9.103-6.09 27.4 27.4 0 0 1-5.977-9.267 27.8 27.8 0 0 1-1.884-10.062zM-979.69-3426.174l-18.447-56.721v56.721h-13.59v-98.513h14.313l17.723 54.504 17.724-54.504h14.311v98.513h-13.59v-56.721zM-893.792-3471.486h-9.222v45.313h-13.57v-98.514h13.57v39.406h13.39c5.19.09 9.754-3.46 11.023-8.577a22.66 22.66 0 0 0-.118-12.298 6.46 6.46 0 0 0-2.06-3.265 6.3 6.3 0 0 0-3.528-1.474h-18.703v-13.792h20.186c.208 0 .437.035.648.043q.652.057 1.308.162a18.38 18.38 0 0 1 7.602 3.1 18.7 18.7 0 0 1 6.648 8.547 34.225 34.225 0 0 1 1.21 23.2c-.078.255-.15.487-.232.74-.047.151-.072.22-.122.37-.036.054-.044.122-.065.18l-.035.089-.036.093-.044.089-.044.086-.047.089-.043.093c-.068.129-.119.226-.187.351a42.746 42.746 0 0 1-1.208 2.086 35.02 35.02 0 0 1-6.155 7.367c4.817 3.585 8.148 8.87 9.339 14.815a37.7 37.7 0 0 1-.81 23.037 20.46 20.46 0 0 1-6.684 9.661 20.2 20.2 0 0 1-5.22 3.001 19.8 19.8 0 0 1-5.602 1.285h-20.409v-13.791h18.116a6.65 6.65 0 0 0 3.673-.84 6.8 6.8 0 0 0 2.663-2.706 23.9 23.9 0 0 0 2.026-9.976 17.3 17.3 0 0 0-.93-6.642 17.05 17.05 0 0 0-3.8-6.219 16.7 16.7 0 0 0-6.025-4.03 16.6 16.6 0 0 0-6.503-1.109" style="fill:#000;fill-opacity:1;fill-rule:evenodd;stroke:none"/>
    <path d="M-835.442-3524.687h13.53v84.722h35.755v13.792h-49.285" style="fill:#000;fill-opacity:1;fill-rule:evenodd;stroke:none;stroke-width:1.28999925;stroke-linecap:butt;stroke-linejoin:miter;stroke-miterlimit:10;stroke-dasharray:none;stroke-opacity:1"/>
    <path d="M-750.77-3439.965h35.756v13.792H-764.3v-98.514h49.285v13.792h-35.755v25.614h21.17v13.794h-21.17zM-1123.57-3276.354a31.4 31.4 0 0 1-13.444-12.353 32.3 32.3 0 0 1-4.47-17.872h13.508v1.799c.036.606.089 1.22.174 1.824a19.52 19.52 0 0 0 4.422 9.921 12.1 12.1 0 0 0 4.412 3.416 11.94 11.94 0 0 0 6.206 1.007 12.04 12.04 0 0 0 5.867-2.294 12.3 12.3 0 0 0 3.619-4.271 17.16 17.16 0 0 0 1.266-11.319 17 17 0 0 0-2.323-5.465 16.5 16.5 0 0 0-1.753-2.252 17 17 0 0 0-2.006-1.838 104 104 0 0 0-2.403-2.285 98.511 98.511 0 0 0-7.659-6.35 97 97 0 0 0-11.115-7.17c-5.98-4.444-9.407-11.623-9.142-19.162.407-6.499 3.258-12.591 7.964-17 4.703-4.412 10.895-6.802 17.283-6.673a24.4 24.4 0 0 1 8.878 1.865 24.8 24.8 0 0 1 8.14 5.498 25.4 25.4 0 0 1 5.43 8.274 25.7 25.7 0 0 1 1.863 9.035h-13.295a12 12 0 0 0-.724-3.328 11.8 11.8 0 0 0-1.717-3.103 11.64 11.64 0 0 0-5.529-3.972c-4.474-1.507-9.4-.124-12.486 3.51a9.93 9.93 0 0 0-2.06 8.185 9.77 9.77 0 0 0 4.953 6.78 91.5 91.5 0 0 1 12.235 8.183 92 92 0 0 1 10.796 10.058 30.4 30.4 0 0 1 8.05 16.261c.507 3.16.507 6.346.043 9.435a30.4 30.4 0 0 1-1.758 6.579c-.132.337-.274.687-.416 1.017-.078.178-.146.323-.224.498-.043.085-.075.164-.114.249-.036.043-.043.078-.06.12l-.037.064-.035.061-.035.057-.036.068-.035.06-.035.064c-.054.095-.078.153-.128.249-.08.163-.173.33-.262.495-.17.323-.369.663-.559.982a26.325 26.325 0 0 1-4.382 5.523 25.9 25.9 0 0 1-8.269 5.363 25.6 25.6 0 0 1-9.632 1.865c-3.228 0-6.275-.624-9.005-1.658M-1054.491-3359.815v83.788h13.38v-83.788h17.68v-13.64h-48.742v13.64zM-999.774-3276.027v-97.427h13.402v38.685h16.356a8.54 8.54 0 0 0 5.58-1.482 8.8 8.8 0 0 0 3.424-4.725c.518-2.152.768-4.382.716-6.637a28 28 0 0 0-.298-3.348 23 23 0 0 0-.313-1.642 36 36 0 0 0-.195-.811l-.106-.396-.035-.104-.035-.102-.036-.1-.035-.095-.035-.04-.036-.038v-.044l-.035-.035c-.035-.046-.057-.11-.082-.152-.053-.095-.11-.206-.167-.302a9 9 0 0 0-.36-.591c-.263-.39-.553-.77-.87-1.128a10 10 0 0 0-2.226-1.857 9.74 9.74 0 0 0-5.408-1.421h-15.86v-13.64h15.86c7.992-.163 15.494 3.9 19.82 10.735a33 33 0 0 1 3.936 15.416c0 2.748-.305 5.466-.95 8.087a33 33 0 0 1-2.78 7.377 23.2 23.2 0 0 1-4.334 5.303 23 23 0 0 1-2.716 2.106 22.5 22.5 0 0 1-2.964 1.659l13.851 46.744h-13.991l-13.37-45.102h-12.365v45.102h-13.402" style="fill:#000;fill-opacity:1;fill-rule:evenodd;stroke:none"/>
    <path d="M-921.493-3373.454h13.648v97.427h-13.648" style="fill:#000;fill-opacity:1;fill-rule:evenodd;stroke:none;stroke-width:1.28999925;stroke-linecap:butt;stroke-linejoin:miter;stroke-miterlimit:10;stroke-dasharray:none;stroke-opacity:1"/>
    <path d="M-861.73-3373.454v41.61h16.548a7.1 7.1 0 0 0 3.167-.543 7.2 7.2 0 0 0 2.62-1.886c4.923-6.39 5.113-15.318.457-21.916a8.8 8.8 0 0 0-6.244-3.626h-16.543v-13.64h16.543a21.3 21.3 0 0 1 10.127 2.837 21.6 21.6 0 0 1 6.104 5.234c.28.348.54.693.793 1.045.131.188.248.351.368.542q.181.267.352.541.282.432.559.878c.177.298.358.6.53.902a32.8 32.8 0 0 1 2.632 5.903 33 33 0 0 1 1.643 8.722 33.06 33.06 0 0 1-3.636 16.885 21.96 21.96 0 0 1-8.105 8.666 21.5 21.5 0 0 1-11.368 3.095h-16.548v42.178h-13.422v-97.427h13.422M-785.872-3276.354a31.4 31.4 0 0 1-13.441-12.353 32.3 32.3 0 0 1-4.47-17.872h13.507v.894c0 .295 0 .608.036.905.035.609.082 1.214.167 1.824.17 1.216.457 2.423.853 3.595a19.4 19.4 0 0 0 3.573 6.326 12.15 12.15 0 0 0 4.408 3.416 11.94 11.94 0 0 0 6.206 1.007 12.04 12.04 0 0 0 5.867-2.294 12.3 12.3 0 0 0 3.622-4.271 17.18 17.18 0 0 0 1.266-11.319 17 17 0 0 0-2.323-5.465c-.53-.817-1.12-1.57-1.756-2.252a16.4 16.4 0 0 0-2.006-1.838 99 99 0 0 0-2.4-2.285 98.55 98.55 0 0 0-7.659-6.35 96.5 96.5 0 0 0-11.118-7.17c-5.98-4.444-9.404-11.623-9.139-19.162.405-6.499 3.258-12.591 7.961-17 4.704-4.412 10.896-6.802 17.289-6.673 2.873.057 5.897.627 8.875 1.865a24.8 24.8 0 0 1 8.14 5.498 25.3 25.3 0 0 1 5.428 8.274 25.7 25.7 0 0 1 1.868 9.035h-13.298a12 12 0 0 0-.723-3.328 11.9 11.9 0 0 0-1.715-3.103 11.66 11.66 0 0 0-5.531-3.972c-4.478-1.507-9.404-.124-12.487 3.51a9.94 9.94 0 0 0-2.063 8.185 9.78 9.78 0 0 0 4.956 6.78 91.3 91.3 0 0 1 12.233 8.183 92.6 92.6 0 0 1 10.801 10.058 30.4 30.4 0 0 1 8.047 16.261 30.8 30.8 0 0 1-1.715 16.014c-.132.34-.274.685-.419 1.017-.067.16-.149.34-.22.498l-.114.249-.057.12-.035.064-.036.061-.035.057-.035.068-.036.06-.035.064c-.047.095-.078.153-.124.249a29.908 29.908 0 0 1-.818 1.477 26.532 26.532 0 0 1-4.384 5.523 25.9 25.9 0 0 1-8.27 5.363 25.6 25.6 0 0 1-9.633 1.865c-3.23 0-6.274-.624-9.007-1.658" style="fill:#000;fill-opacity:1;fill-rule:evenodd;stroke:none"/>
  </g>
</svg>
