<svg xmlns="http://www.w3.org/2000/svg" viewBox="0 0 122.969 122.968" role="img" aria-labelledby="title">
  <title id="title">Verkehrszeichen W2-15-L - Crossroad intersection on a curve to left</title>
  <path d="M62.158 171.757 6.72 227.195c-2.353 2.353-6.207 2.353-8.56 0l-55.438-55.438c-2.355-2.355-2.355-6.207 0-8.562l55.437-55.437c2.354-2.355 6.208-2.355 8.561 0l55.438 55.437c2.355 2.355 2.355 6.207 0 8.562" style="fill:#fee011;fill-opacity:1;fill-rule:evenodd;stroke:none" transform="translate(59.045 -105.992)"/>
  <path d="M61.393 170.76 5.767 226.386a4.71 4.71 0 0 1-6.644 0l-55.626-55.626a4.71 4.71 0 0 1 0-6.644L-.877 108.49a4.71 4.71 0 0 1 6.644 0l55.626 55.626a4.71 4.71 0 0 1 0 6.644" style="fill:#000;fill-opacity:1;fill-rule:evenodd;stroke:none" transform="translate(59.045 -105.992)"/>
  <path d="m.843 224.782-55.748-55.747a2.264 2.264 0 0 1 0-3.194L.843 110.093a2.266 2.266 0 0 1 3.194 0l55.747 55.748a2.264 2.264 0 0 1 0 3.194L4.037 224.782a2.264 2.264 0 0 1-3.194 0" style="fill:#fee011;fill-opacity:1;fill-rule:evenodd;stroke:none" transform="translate(59.045 -105.992)"/>
  <path d="m-2.09 143.093-7.363 12.188-.54 14.23v.002a2.414 2.414 0 0 1-4.28 1.411L-31.98 148.54l27.09-8.978a2.413 2.413 0 0 1 2.801 3.529zM23.77 150.897l6.382 8.784-18.957 13.772-6.38-8.783z" style="fill:#000;fill-opacity:1;fill-rule:evenodd;stroke:none" transform="translate(59.045 -105.992)"/>
  <path d="M24.608 189.035c0-22.65-18.313-41.02-40.963-41.02v13.272c15.323 0 27.692 12.425 27.692 27.748z" style="fill:#000;fill-opacity:1;fill-rule:evenodd;stroke:none" transform="translate(59.045 -105.992)"/>
  <path d="m8.848 161.737 6.382 8.784-18.956 13.772-6.381-8.785z" style="fill:#000;fill-opacity:1;fill-rule:evenodd;stroke:none" transform="translate(59.045 -105.992)"/>
  <path d="M11.337 189.035h13.385v10.375H11.337z" style="fill:#000;fill-opacity:1;fill-rule:evenodd;stroke:#231f20;stroke-width:.13124999000000001;stroke-linecap:butt;stroke-linejoin:miter;stroke-miterlimit:22.926000599999998;stroke-opacity:1;stroke-dasharray:none" transform="translate(59.045 -105.992)"/>
</svg>
