<svg xmlns="http://www.w3.org/2000/svg" viewBox="0 0 225.464 225.464" role="img" aria-labelledby="title">
  <title id="title">Verkehrszeichen W5-31 - Safety Ramp Crossing</title>
  <g transform="translate(320.023 230.482)scale(.27649)">
    <rect width="600" height="600" x="-529.001" y="531.287" rx="40" ry="40" style="fill:#fee011;fill-opacity:1;stroke:none" transform="rotate(-45)scale(1 -1)"/>
    <rect width="584" height="584" x="-521.001" y="539.287" rx="32" ry="32" style="fill:#000;fill-opacity:1;stroke:none" transform="rotate(-45)scale(1 -1)"/>
    <rect width="552" height="552" x="-505.001" y="555.287" rx="16" ry="16" style="fill:#fee011;fill-opacity:1;stroke:none" transform="rotate(-45)scale(1 -1)"/>
    <text xml:space="preserve" y="12.214" style="font-size:13.83980179px;font-style:normal;font-weight:400;text-align:start;text-anchor:start;fill:#000;font-family:Calibri" transform="matrix(2.38902 0 0 1.66473 -972.193 -601.282)"> </text>
    <path d="M32.653 11.262c-.95-2.733-2.491-4.118-4.57-4.194-1.193 0-2.218.557-2.998 1.678-.771 1.131-1.194 2.45-1.157 3.987 0 1.121.386 2.092 1.11 3.006.686.914 1.852 1.536 3.422 1.894 3.723.99 6.431 2.847 8.114 5.665 1.636 2.874 2.491 6.079 2.491 9.716 0 3.987-1.043 7.54-2.999 10.631-1.955 3.167-4.475 4.685-7.474 4.685-4.748-.066-8.302-3.695-10.559-10.905 1.542-1.206 3.112-2.365 4.654-3.572 1.401 4.562 3.46 6.786 5.999 6.786 1.476.075 2.783-.754 3.826-2.375 1.053-1.621 1.617-3.43 1.617-5.598.047-1.47-.385-2.856-1.25-4.336-.856-1.404-2.398-2.365-4.56-3.006-2.952-.64-5.237-2.017-6.788-4.128-1.542-2.045-2.35-4.543-2.35-7.417-.048-3.421.76-6.626 2.397-9.576 1.636-2.884 3.883-4.335 6.6-4.335 3.827.141 6.722 2.856 8.584 8.247-1.363 1.065-2.755 2.092-4.109 3.147M67.713 47.49h-5.161c-.997-4.382-2.05-8.755-3.046-13.147h-9.647c-.997 4.392-2.05 8.765-3.046 13.148h-5.209C45.074 31.855 48.74 16.267 52.219.63h4.88c3.478 15.636 7.145 31.224 10.614 46.86m-9.966-20.696c-.996-4.392-2.05-8.765-3.037-13.157-1.034 4.392-2.115 8.765-3.14 13.157zM90.09 8.049h-14.3v11.535h8.998v7.559H75.79V47.49H70.9V.63h19.19zM113.85 47.49H94.66V.632h18.22V8.05H99.55v11.535h8.998v7.559h-8.998v12.799h14.3zM137.514 7.21h-7.145v40.28h-4.899V7.21h-7.051V.63h19.095zM167.497.631c-3.497 8.86-7.192 17.653-10.7 26.512V47.49h-4.888V27.143C148.355 18.274 144.622 9.5 141.069.63h5.857c2.416 6.06 4.964 12.064 7.38 18.115 2.454-6.051 5.03-12.055 7.475-18.115zM62.505 124.914h-5.312c-1.627-6.786-3.348-13.562-4.974-20.348h-5.867v20.348h-4.889v-46.86h12.232c2.53.076 4.541 1.386 5.99 4.129 1.41 2.742 2.171 5.74 2.171 9.02 0 2.45-.48 4.825-1.335 7.002-.865 2.243-2.04 3.826-3.46 4.825 1.777 7.304 3.657 14.58 5.444 21.884M57.014 91.42c0-1.819-.386-3.214-1.062-4.194-.734-.99-1.57-1.47-2.445-1.546h-7.155v11.536h7.343c.921 0 1.711-.48 2.35-1.536.63-1.046.969-2.441.969-4.26M91.792 124.914H86.63c-.996-4.382-2.05-8.755-3.046-13.147h-9.646c-.988 4.392-2.05 8.765-3.037 13.147h-5.218c3.469-15.635 7.145-31.224 10.615-46.86h4.889c3.469 15.636 7.145 31.225 10.605 46.86m-9.966-20.696c-.987-4.392-2.04-8.765-3.037-13.157-1.025 4.392-2.115 8.765-3.14 13.157zM118.926 124.914h-4.889V97.781c-2.34 9.057-4.814 18.076-7.155 27.133-2.34-9.057-4.813-18.076-7.155-27.133v27.133h-4.889v-46.86h4.89c2.34 8.785 4.813 17.521 7.154 26.296 2.341-8.775 4.814-17.511 7.155-26.295h4.89zM134.421 104.566h-5.858v20.348h-4.889v-46.86h10.192c2.266 0 4.118.481 5.491 1.471 1.373 1.065 2.557 2.648 3.413 4.825a18.5 18.5 0 0 1 1.297 6.852c0 2.45-.385 4.684-1.062 6.72s-1.768 3.619-3.187 4.825c-1.41 1.273-3.225 1.885-5.397 1.82m4.71-13.222c0-1.82-.376-3.205-1.062-4.194-.724-.99-1.57-1.47-2.445-1.537h-7.155V97.15h7.343c.922 0 1.712-.48 2.351-1.536.64-1.056.968-2.45.968-4.27M11.292 195.693c2.256-.066 3.94-1.668 4.936-4.891 1.514 1.159 3.056 2.262 4.57 3.42-1.862 5.816-5.03 8.747-9.506 8.888-3.648 0-6.44-2.083-8.35-6.361-1.955-4.289-2.951-10.217-2.951-17.841s.996-13.553 2.952-17.832c1.908-4.278 4.7-6.37 8.349-6.37 4.475.15 7.644 3.072 9.505 8.887-1.513 1.159-3.055 2.271-4.57 3.43-.996-3.223-2.679-4.825-4.935-4.9-2.163 0-3.752 1.536-4.701 4.618-.96 3.147-1.476 7.2-1.476 12.167s.517 9.02 1.476 12.101c.95 3.157 2.538 4.684 4.7 4.684M46.54 202.337h-5.303c-1.636-6.785-3.356-13.562-4.983-20.347h-5.867v20.347h-4.889v-46.859H37.73c2.53.076 4.542 1.386 5.999 4.128a19.55 19.55 0 0 1 2.162 9.02c0 2.45-.48 4.825-1.335 7.002-.865 2.243-2.04 3.826-3.46 4.825 1.777 7.305 3.667 14.58 5.444 21.884m-5.49-33.495c0-1.819-.377-3.214-1.063-4.203-.724-.98-1.57-1.46-2.445-1.536h-7.155v11.535h7.343c.922 0 1.712-.48 2.35-1.536.64-1.055.97-2.44.97-4.26M61.809 203.176c-3.648 0-6.44-2.083-8.349-6.295-1.956-4.138-2.952-10.141-2.952-17.973 0-7.625.996-13.553 2.952-17.832 1.909-4.278 4.701-6.37 8.349-6.37 3.686 0 6.534 2.092 8.443 6.37 1.862 4.28 2.858 10.207 2.858 17.832 0 7.832-.996 13.835-2.858 17.973-1.909 4.212-4.757 6.295-8.443 6.295m0-41.053c-2.172 0-3.751 1.536-4.71 4.618-.95 3.147-1.477 7.134-1.514 12.025 0 5.533.517 9.651 1.476 12.526.95 2.874 2.539 4.27 4.748 4.194 2.35-.076 3.986-1.536 4.842-4.411.865-2.865 1.382-6.918 1.43-12.309-.048-5.24-.565-9.226-1.524-12.091-.95-2.875-2.576-4.336-4.748-4.552M91.059 166.11c-.95-2.734-2.492-4.129-4.57-4.195-1.194 0-2.219.547-2.999 1.678-.77 1.121-1.194 2.45-1.156 3.986 0 1.122.385 2.093 1.11 3.007.685.914 1.851 1.536 3.421 1.885 3.724.999 6.431 2.855 8.114 5.673 1.636 2.875 2.492 6.08 2.492 9.717 0 3.987-1.044 7.54-3 10.631-1.955 3.167-4.475 4.684-7.474 4.684-4.748-.066-8.293-3.694-10.558-10.913 1.542-1.197 3.112-2.357 4.654-3.563 1.41 4.552 3.46 6.786 5.998 6.786 1.476.075 2.783-.764 3.827-2.375 1.053-1.621 1.617-3.43 1.617-5.599.047-1.47-.386-2.865-1.25-4.335-.856-1.414-2.398-2.365-4.56-3.006-2.953-.641-5.238-2.017-6.78-4.128-1.55-2.045-2.36-4.543-2.36-7.417a19 19 0 0 1 2.398-9.585c1.636-2.875 3.874-4.336 6.6-4.336 3.827.151 6.723 2.856 8.584 8.256-1.363 1.065-2.745 2.083-4.108 3.148M115.278 166.11c-.95-2.734-2.491-4.129-4.569-4.195-1.194 0-2.219.547-3 1.678-.77 1.121-1.193 2.45-1.146 3.986 0 1.122.376 2.093 1.1 3.007.686.914 1.852 1.536 3.422 1.885 3.723.999 6.431 2.855 8.114 5.673 1.636 2.875 2.492 6.08 2.492 9.717 0 3.987-1.044 7.54-3 10.631-1.955 3.167-4.475 4.684-7.474 4.684-4.748-.066-8.293-3.694-10.559-10.913 1.542-1.197 3.112-2.357 4.654-3.563 1.41 4.552 3.46 6.786 5.999 6.786 1.476.075 2.783-.764 3.826-2.375 1.053-1.621 1.618-3.43 1.618-5.599.047-1.47-.386-2.865-1.25-4.335-.857-1.414-2.398-2.365-4.56-3.006-2.953-.641-5.238-2.017-6.78-4.128-1.551-2.045-2.36-4.543-2.36-7.417-.047-3.422.762-6.626 2.407-9.585 1.627-2.875 3.864-4.336 6.591-4.336 3.827.151 6.722 2.856 8.584 8.256-1.363 1.065-2.745 2.083-4.109 3.148M132.117 202.337h-4.983v-46.859h4.983zM159.336 202.337h-4.334c-3.864-10.612-7.945-21.139-11.809-31.751v31.751h-4.889v-46.859h4.89c3.685 10 7.568 19.933 11.253 29.933v-29.933h4.89zM175.019 195.693c2.774-.066 4.438-3.006 4.936-8.67h-4.748v-7.832h10.333v2.026c-.047 7.2-.997 12.648-2.811 16.37-1.862 3.714-4.382 5.59-7.569 5.59-3.733-.067-6.581-2.15-8.49-6.428-1.946-4.289-2.952-10.217-2.952-17.841s1.006-13.553 2.952-17.832c1.909-4.278 4.71-6.37 8.349-6.37 4.475.15 7.653 3.072 9.505 8.887-1.504 1.159-3.055 2.271-4.569 3.43-.997-3.223-2.67-4.825-4.936-4.9-2.163 0-3.751 1.536-4.701 4.618-.95 3.147-1.476 7.2-1.476 12.167s.526 9.02 1.476 12.101c.95 3.157 2.538 4.684 4.701 4.684" style="fill:#000;fill-opacity:1;fill-rule:evenodd;stroke:none" transform="matrix(2.38902 0 0 1.66473 -972.193 -601.282)"/>
  </g>
</svg>
