<svg xmlns="http://www.w3.org/2000/svg" viewBox="0 0 600.4 400.4" role="img" aria-labelledby="title">
  <title id="title">Verkehrszeichen W8-SA62 - Watch for Road Trains (used in SA)</title>
  <g transform="translate(-2571.284 2028.486)">
    <rect width="600" height="400" x="2571.484" y="-2028.286" rx="40" ry="40" style="fill:#fee011;fill-opacity:1;stroke:none;stroke-width:4;stroke-linejoin:miter;stroke-miterlimit:4;stroke-dasharray:32,4;stroke-dashoffset:0;stroke-opacity:1"/>
    <rect width="584" height="384" x="2579.484" y="-2020.286" rx="32" ry="32" style="fill:#000;fill-opacity:1;stroke:none;stroke-width:4;stroke-linejoin:miter;stroke-miterlimit:4;stroke-dasharray:32,4;stroke-dashoffset:0;stroke-opacity:1"/>
    <rect width="552" height="352" x="2595.484" y="-2004.286" rx="16" ry="16" style="fill:#fee011;fill-opacity:1;stroke:none;stroke-width:4;stroke-linejoin:miter;stroke-miterlimit:4;stroke-dasharray:32,4;stroke-dashoffset:0;stroke-opacity:1"/>
    <path d="M2696.199-1794.953c-5.188-.018-10.086 3.148-12.63 7.604l-.544.952-.543.814c-5.34 10.93-5.438 36.39-.135 47.26l.407.95.543.95.543.815c8.431 12.476 26.52 8.43 29.604-7.74l.408-1.223.272-1.222c2.207-12.312 4.244-46.516-13.716-48.888l-1.223-.272h-2.986m-61.382 1.223v64.096h8.827v-29.74h8.284l8.556 29.74h9.505l-9.235-31.233 1.088-.407 1.086-.543.95-.68.815-.814.95-.815.816-1.087.678-1.086.95-1.901.544-1.223c1.702-4.133 1.625-8.781.407-13.036l-.407-1.086-.543-1.223-.543-1.086-1.358-2.173h-.136l-.815-1.086c-1.84-2.254-4.173-3.902-7.061-4.482l-1.087-.135h-22.271m104.159 0-15.21 64.096H2733l4.346-17.789h12.9l4.618 17.79h8.962l-15.888-64.097zm32.863 0v64.096h14.53c6.525-.047 11.758-1.864 15.617-7.332l.68-1.087.543-.95v-.136c2.641-5.423 3.237-12.417 3.667-18.333v-3.124c.362-6.688-.244-15.761-2.853-21.999l-.407-.95-.407-.815-.272-.543-.679-1.088c-3.21-5.09-8.183-7.158-13.988-7.74h-16.431m-74.224 7.546c12.438-.399 12.343 50.68-.602 48.539l-2.173-.271c-7.215-2.395-7.125-16.626-7.198-22.68l-.135-1.086.135-2.036c.062-5.81.494-20.722 8.149-22.272l.68-.136h.542q.306-.049.602-.059zm83.186 1.28h5.297l1.358.136 1.222.136c9.417 1.837 8.936 13.806 9.099 21.184v3.94c-.043 7.328.09 20.756-10.32 20.777h-6.656zm-137.157.272h11.272l1.086.136c6.66.496 6.194 16.099-1.223 15.888h-11.135zm99.812 11.135 4.482 17.247h-8.962zM3087.978-1794.952c-5.042.258-9.68 3.181-12.629 7.196l-.678 1.088-.543 1.085-.408 1.086c-3.105 10.948 2.833 18.506 12.493 23.086l2.173 1.358.135.136c3.728 2.704 5.506 5.619 6.655 10.048l.271 1.223.136 1.222c.1 4.278-1.743 8.862-6.246 10.048l-1.359.136h-2.171c-4.91-.856-6.078-3.522-6.926-8.012l-.137-1.493v-1.494h-9.098l.136 1.358c-.186 2.094.794 6.877 1.9 8.69l.408 1.088.68.95.543.95c11.656 14.293 33.533 4.85 31.233-13.85l-.137-1.087-.27-1.223-.137-1.085c-1.684-7.207-6.274-12.312-12.221-16.431l-1.086-.68-1.223-.679c-8.164-2.896-10.816-11.375-2.987-15.345l1.086-.407 1.223-.136h.407c3.055-.123 6.577 3.906 6.654 6.79l.135.544h8.827l-.136-1.358c-.17-7.689-6.398-14.375-14.122-14.802h-2.581m-216.32 1.222v8.42h11.406v55.674h9.507v-55.674h11.135v-8.42zm39.652 0v64.094h8.827v-29.738h8.283l8.556 29.738h9.505l-9.234-31.232 1.087-.407 1.086-.543.95-.68.815-.814.95-.815.815-1.086.68-1.087.95-1.901.543-1.221c1.702-4.133 1.625-8.782.407-13.037l-.407-1.087-.543-1.221-.543-1.088-1.358-2.172h-.136c-1.885-2.747-4.547-4.91-7.876-5.567l-1.087-.136h-22.27m58.663 0-15.208 64.094h9.233l4.346-17.788h12.9l4.617 17.788h8.962l-15.888-64.094zm32.999 0v64.094h9.097v-64.094zm20.368 0v64.094h8.827v-42.095l19.012 42.095h7.332v-64.094h-9.37v37.072l-16.974-37.072zm-103.203 9.098h11.271l1.086.135c6.66.496 6.194 16.101-1.223 15.888h-11.134zm54.318 11.135 4.48 17.246h-8.962zM2829.98-1928.286c-5.304-.027-10.288 3.128-12.773 7.745l-.544.952-.543.95-.407.952c-4.439 10.456-4.145 31.043-1.088 41.986l.273.95.272.952c4.205 13.817 21.348 16.228 29.213 5.435l.543-1.087.545-.95.542-1.088c.623-1.456 1.207-4.52 1.359-6.114l.136-1.495v-.95h-8.968v1.494c-.385 3.492-2.527 6.986-6.114 7.88h-2.039c-7.75-.849-8.591-14.405-8.967-20.11l-.136-1.766v-1.902c-.22-6.018.365-23.663 8.56-24.594l.95-.136h.138c3.765.083 6.992 3.115 7.608 6.795l.136.815h8.832l-.136-1.36c-.43-8.297-6.006-14.344-14.267-15.354h-3.125m-161.83 1.223 10.462 64.134h7.61l6.25-32.881 6.114 32.881h8.017l9.647-64.134h-9.104l-4.89 33.97-6.115-33.97h-7.474l-6.114 33.29-5.299-33.29zm71.472 0-15.22 64.134h9.24l4.35-17.8h12.907l4.62 17.8h8.969l-15.899-64.134zm33.018 0v8.424h11.414v55.71h9.51v-55.71h11.142v-8.424zm83.428 0v64.134h9.104v-29.077h17.528v29.077h8.56v-64.134h-8.56v25.953h-17.528v-25.953zm-111.962 20.246 4.483 17.257h-8.967zM3012.077-1928.286c-5.188-.018-10.085 3.15-12.629 7.606l-.543.95-.544.814c-5.34 10.93-5.439 36.39-.136 47.259l.408.95.543.95.543.816c8.43 12.475 26.52 8.43 29.605-7.74l.406-1.223.272-1.222c2.207-12.312 4.244-46.516-13.716-48.887l-1.22-.273h-2.989m-57.442 1.223v64.097h8.962v-30.963h13.173v-9.098h-13.173v-15.21h23.085v-8.826zm85.01 0v64.097h8.826v-29.74h8.284l8.554 29.74h9.507l-9.234-31.234 1.086-.407 1.087-.543.95-.68.815-.814.95-.815.815-1.086.68-1.087.95-1.901.543-1.223c1.702-4.133 1.625-8.781.407-13.036l-.407-1.086-.543-1.223-.543-1.086-1.358-2.173h-.136l-.815-1.086c-1.84-2.254-4.174-3.902-7.062-4.481l-1.086-.136h-22.271m-26.152 7.546c12.438-.399 12.343 50.68-.601 48.538l-2.173-.27c-7.216-2.395-7.124-16.623-7.197-22.68l-.137-1.086.137-2.036c.062-5.813.493-20.722 8.147-22.272l.68-.136h.543q.305-.049.602-.059zm34.978 1.552h11.27l1.088.136c6.66.496 6.194 16.099-1.223 15.888h-11.135z" style="fill:#000;fill-opacity:1;fill-rule:evenodd;stroke:none"/>
  </g>
</svg>
