<svg xmlns="http://www.w3.org/2000/svg" viewBox="0 0 600.4 400.4" role="img" aria-labelledby="title">
  <title id="title">Verkehrszeichen W8-SA56 - School Bus (used in SA)</title>
  <g transform="translate(-2571.284 2028.486)">
    <rect width="600" height="400" x="2571.484" y="-2028.286" fill="#cdff00" rx="40" ry="40"/>
    <rect width="584" height="384" x="2579.484" y="-2020.286" rx="32" ry="32"/>
    <rect width="552" height="352" x="2595.484" y="-2004.286" fill="#cdff00" rx="16" ry="16"/>
    <path fill-rule="evenodd" d="m2684.847-1952.286-1.957.164-1.795.163-1.795.326-1.793.49-1.633.488-1.63.653-3.262 1.959-1.469.978-1.63 1.305-.165.162-1.467 1.469-1.306 1.304-1.141 1.47-.979 1.63-.816 1.469-.652 1.795-.49 1.63-.653 3.59v4.078l.164 1.957.326 1.795.489 1.793.49 1.795.652 1.631.653 1.307.816 1.63.979 1.632 1.142 1.63 1.305 1.307 1.14 1.305 1.47 1.14.652.49 1.63.98 1.633 1.142 3.262 1.957 1.469.978 1.63.979 1.631.978 1.633.98.162.163 1.631 1.142 1.307 1.305 1.304 1.305 1.141 1.304 1.143 1.47.978 1.63.817 1.633.652 1.793.652 1.633.49 1.793.327 1.959.162 1.793v3.1l-.326 1.794-.49 1.795-.653 1.795-.814 1.467-.979 1.468-1.307 1.305-1.466.979-1.631.816-1.633.652-1.793.165h-3.428l-1.957-.49-1.63-.491-1.631-.814-1.305-.979-.98-1.307-.815-1.304-.652-1.305-.653-1.63-.326-1.796-.326-1.957-.328-2.12v-2.448h-13.54v2.121l.165 2.121.162 1.957.326 1.957.326 1.795.49 1.795.653 1.795.652 1.63 1.631 2.936.979 1.47.978 1.304 1.143 1.304.164.327 1.304 1.306 1.47 1.14 1.466.98 1.469.816 1.63.816 1.631.653 1.795.652 1.795.488 1.795.164 1.957.326h4.242l1.957-.164 1.795-.326 1.793-.488 1.795-.49 1.631-.653 1.633-.814 1.467-.817 1.632-1.142 1.305-1.14 1.467-1.143v-.164l1.143-1.305 1.142-1.305.979-1.469.978-1.466.817-1.633.652-1.631.488-1.63.49-1.796.49-1.957.163-1.795.164-1.957.162-2.12v-.165l-.162-1.63v-1.794l-.164-1.633-.979-4.892-.49-1.633-.652-1.467-.489-1.468-.652-1.631-.816-1.47-.817-1.304-.978-1.469-.979-1.304-.978-1.469-1.143-1.305-1.14-1.304-1.307-1.305-1.305-1.143-1.469-1.304-1.466-1.143-1.47-1.142-3.26-2.284-1.796-.978-1.795-1.143-1.957-.978-1.304-.653-1.633-.978-1.305-.979-1.14-1.304-.981-1.47-.652-1.468-.489-1.795-.326-1.793v-1.306l.162-1.793.49-1.633.815-1.631 1.307-1.469.814-.814 1.63-1.143 1.634-.814 1.63-.655 1.796-.162h.814l1.469.162 1.63.49 1.631 1.143 1.47 1.305.49.488 1.304 1.633.979 1.63.652 1.796.326 1.63v.653h13.215v-1.957l-.164-1.795-.326-1.957-.489-1.795-.49-1.63-.652-1.634-.816-1.63-.979-1.631-.979-1.469-1.304-1.305-.326-.488-1.47-1.307-1.468-1.14-1.467-1.143-1.468-.816-1.631-.815-1.633-.652-1.793-.49-1.795-.326-1.957-.163-1.795-.164zm70.953 0-1.307.164-1.466.163-1.47.326-1.304.326-1.304.326-1.143.49-1.305.489-2.283 1.306-1.142.815-.979.816-.979.815-.98.98-.979 1.14-.814.98-.816 1.306-.817 1.14-.814 1.47-.653 1.304-.652 1.469-.652 1.63-.655 1.47-.488 1.794-.49 1.793-.488 1.795-.49 1.795-.327 1.957-.326 2.121-.326 2.121-.164 2.121-.326 2.283-.162 2.448-.165 2.283v13.703l.165 2.121.162 2.283v1.957l.164 2.121.326 1.958.162 1.794.164 1.96.326 1.63.326 1.795.653 3.262.326 1.469.49 1.466.326 1.307.489 1.467.164.164.652 1.957.816 1.795.979 1.63.814 1.632 1.143 1.632.978 1.305 1.143 1.305 1.305 1.142 1.142 1.141 1.47.979 1.304.816 1.467.652 1.468.653 1.631.49 1.633.488 1.793.326 1.795.164h4.242l1.793-.164 1.959-.326 1.795-.488 1.63-.49 1.632-.815 1.63-.816 1.47-.817 1.468-1.14 1.305-1.143 1.142-1.142 1.14-1.305.98-1.305.816-1.469.816-1.63.815-1.631.49-1.631.652-1.795.326-1.795.327-1.957.162-1.957.164-2.121v-1.469h-13.377v2.121l-.326 1.795-.49 1.793-.653 1.633-.814 1.63-.817 1.141-1.304 1.47-1.47.978-1.63.816-1.63.49-1.796.162h-1.142l-1.141-.162-1.959-.654-.979-.488-.978-.653-.816-.816-.815-.814-.652-.98-.817-.98-1.957-3.913-.49-1.633-.488-1.631-.49-1.795-.327-1.793-.488-1.959-.328-2.12-.162-2.12-.326-2.448-.164-2.447-.162-2.447-.165-2.774v-10.113l.165-2.12v-1.958l.162-1.959.326-1.957.164-1.795.326-1.63.164-1.796.326-1.63.489-1.467v-.328l.652-2.284.816-2.12.815-1.794.98-1.632.979-1.467 1.14-1.307 1.143-.978 1.143-.815 1.466-.49 1.307-.49h3.588l1.795.49 1.63.816 1.47.979 1.468 1.304 1.305 1.631.978 1.47.653 1.794.326 1.63.164 1.306h13.213v-2.122l-.164-1.957-.326-1.794-.327-1.793-.652-1.795-.652-1.631-.653-1.633-.978-1.467-.979-1.469-1.142-1.468-1.14-1.141-1.308-1.307-1.466-1.14-1.47-.979-1.468-.816-1.63-.817-1.632-.652-1.794-.488-1.795-.326-1.957-.327-1.957-.164zm157.89 0-1.468.164-1.305.163-1.468.326-1.305.326-1.305.326-1.142.49-1.305.489-1.143.652-.978.654-1.143.653-.978.814-1.14.979-.817.98-.979.979-.816 1.14-.979 1.143-.652 1.142-.816 1.305-.815 1.469-.652 1.304-.653 1.631-.49 1.47-.652 1.792-.49 1.633-.489 1.793-.49 1.959-.326 1.957-.326 1.957-.326 2.121-.327 2.121-.326 2.121-.162 2.283-.164 2.448-.164 2.447v11.908l.49 7.342.164 2.119.326 2.285.163 2.121.326 2.12.49 1.958.326 1.957.488 1.795.49 1.793.49 1.633.653 1.631.653 1.63.652 1.47.652 1.468.653 1.305.816 1.305.814 1.142.817 1.14.978 1.143.817.979.978.979.979.816 1.142.814.979.655 1.14.652 1.143.652 1.305.489 1.142.326 1.305.49 1.305.162 1.468.326 1.305.164h3.916l1.305-.164 1.469-.162 1.304-.164 1.305-.326 1.305-.488 1.142-.326 1.143-.653 1.14-.49 1.143-.816 1.143-.653.978-.814.979-.979.978-.816.817-1.143.978-1.14.815-1.143.816-1.143.652-1.304.817-1.469.652-1.467.652-1.469.489-1.63.654-1.631.488-1.795.49-1.795.327-1.957.488-1.96.326-1.956.326-2.121.164-2.12.327-2.285.162-2.283.164-2.447.162-2.447v-2.448l.164-2.609v-3.752l-.164-2.283v-2.285l-.162-2.283-.164-2.121-.162-2.122-.165-1.957-.162-1.957-.326-1.959-.326-1.793-.652-3.59-.327-1.63-.49-1.631-.326-1.469-.978-2.935-.49-1.47-.653-1.304-.162-.164-.817-1.795-.978-1.793-.979-1.469-1.142-1.468-1.143-1.305-1.304-1.305-1.305-.978-1.305-.979-2.937-1.633-1.631-.652-1.631-.488-1.795-.326-1.795-.327-1.793-.164zm78.13 0-1.467.164-1.307.163-1.467.326-1.306.326-1.305.326-1.14.49-1.307.489-1.14.652-.98.654-1.142.653-.978.814-1.143.979-.814.98-.98.979-.815 1.14-.979 1.143-.652 1.142-.817 1.305-.816 1.469-.652 1.304-.653 1.631-.488 1.47-.654 1.792-.489 1.633-.49 1.793-.488 1.959-.326 1.957-.326 1.957-.327 2.121-.326 2.121-.328 2.121-.162 2.283-.164 2.448-.162 2.447v11.908l.326 4.895.162 2.447.164 2.119.326 2.285.164 2.121.327 2.12.488 1.958.326 1.957.49 1.795.489 1.793.49 1.633.652 1.631.652 1.63.653 1.47.652 1.468.652 1.305.817 1.305.816 1.142.815 1.14.978 1.143.817.979.978.979.979.816 1.142.814.979.655 1.142.652 1.141.652 1.307.489 1.14.326 1.307.49 1.305.162 1.466.326 1.307.164h3.914l1.305-.164 1.469-.162 1.304-.164 1.305-.326 1.307-.488 1.14-.326 1.143-.653 1.142-.49 1.14-.816 1.144-.653.978-.814.979-.979.978-.816.816-1.143.979-1.14.816-1.143.815-1.143.652-1.304.817-1.469 1.304-2.936.49-1.63.653-1.631.978-3.59.327-1.957.49-1.96.326-1.956.326-2.121.162-2.12.326-2.285.164-2.283.163-2.447.164-2.447v-2.448l.162-2.609v-3.752l-.162-2.283v-2.285l-.164-2.283-.163-2.121-.164-2.122-.162-1.957-.164-1.957-.326-1.959-.326-1.793-.326-1.795-.326-1.794-.327-1.631-.488-1.631-.328-1.469-.488-1.469-.49-1.466-.489-1.47-.652-1.304-.164-.164-.817-1.795-.978-1.793-.979-1.469-1.14-1.468-1.143-1.305-1.305-1.305-1.304-.978-1.307-.979-1.467-.816-1.468-.817-1.631-.652-1.633-.488-1.793-.326-1.795-.327-1.795-.164zm-186.44 1.957v96.248h13.541v-43.718h26.264v43.718h12.724v-96.248h-12.724v38.989h-26.264v-38.989zm237.979 0v96.248h48.125v-12.724H3056.9v-83.524zm-129.342 11.42h.978l1.143.162.979.165 1.14.162.98.49.815.49.979.652.816.815.816.816.815 1.143.652.978.653 1.305.654 1.305.652 1.469.488 1.63.49 1.795.327 1.795.488 1.957.326 1.957.326 2.285.165 2.284.326 4.894.164 2.772v2.773l.162 2.447-.162 2.938v2.773l-.164 2.61-.162 2.447-.164 2.447-.327 2.283-.164 2.122-.488 2.12-.326 1.958-.49 1.795-.489 1.63-.49 1.631-.652 1.469-.653 1.305-.652 1.142-.652 1.14-.817.98-.814.816-.817.652-.978.653-.979.49-.98.488-1.14.164-.98.164h-2.61l-1.467-.49-1.47-.49-1.304-.815-1.306-.978-1.141-1.307-.979-1.467-.978-1.795-.816-1.957-.327-1.142-.326-1.305-.49-1.305-.326-1.468-.162-1.631-.326-1.633-.165-1.63-.326-1.958-.164-1.795-.162-2.12v-2.12l-.164-2.121v-2.285l-.162-2.446v-1.959l.162-2.773v-2.774l.164-2.609.162-2.61.164-2.447.164-2.283.327-2.12.326-2.122.488-1.957.49-1.795.326-1.63.653-1.634.49-1.466 1.305-2.612.814-.978.652-.979.817-.978.816-.653.979-.652.978-.49.979-.49.978-.327zm78.129 0h.978l1.143.162.978.165 1.143.162.979.49.816.49.978.652.815.815.816.816.817 1.143.652.978.652 1.305.653 1.305.652 1.469.49 1.63.489 1.795.326 1.795.49 1.957.326 1.957.326 2.285.162 2.284.329 4.894.162 2.772v2.773l.164 2.447-.164 2.938v2.773l-.162 2.61-.164 2.447-.165 2.447-.326 2.283-.162 2.122-.49 2.12-.326 1.958-.489 1.795-.49 1.63-.488 1.631-.654 1.469-.653 1.305-.652 1.142-.652 1.14-.815.98-.816.816-.817.652-.978.653-.979.49-.978.488-1.143.164-.978.164h-2.61l-1.468-.49-1.47-.49-1.304-.815-1.305-.978-1.142-1.307-.979-1.467-.978-1.795-.817-1.957-.326-1.142-.326-1.305-.488-1.305-.326-1.468-.164-1.631-.327-1.633-.164-1.63-.326-1.958-.162-1.795-.164-2.12v-2.12l-.162-2.121v-2.285l-.164-2.446v-1.959l.164-2.773v-2.774l.162-2.609.164-2.61.162-2.447.164-2.283.326-2.12.327-2.122.49-1.957.488-1.795.326-1.63.653-1.634.49-1.466.652-1.307.653-1.305.816-.978.652-.979.815-.978.816-.653.979-.652.978-.49.98-.49.98-.327zm-35.826 134.623-1.957.164-1.795.163-1.795.326-1.795.49-1.631.488-1.63.653-1.632.978-1.633.98-1.466.98-1.633 1.304-2.936 2.935-1.142 1.47-.979 1.63-.816 1.469-.653 1.795-.488 1.63-.652 3.59v4.078l.162 1.957.326 1.795.979 3.588.654 1.631.652 1.307.815 1.63.978 1.632 1.143 1.63 1.304 1.307 1.143 1.305 1.469 1.14.652.49 1.631.98 1.63 1.142 3.265 1.957 1.466.978 1.633.979 3.262 1.959.164.162 1.63 1.142 1.306 1.305 1.304 1.305 1.143 1.304 1.142 1.47.979 1.63.814 1.633.653 1.793.652 1.633.49 1.793.326 1.959.164 1.793v3.1l-.326 1.794-.49 1.795-.652 1.795-.817 1.467-.978 1.468-1.305 1.305-1.469.979-1.63.816-1.631.652-1.795.165h-3.426l-1.957-.49-1.633-.491-1.63-.814-1.305-.979-.979-1.307-.816-1.304-.653-1.305-.652-1.63-.326-1.796-.326-1.957-.327-2.12v-2.448h-13.539v2.121l.162 2.121.165 1.957.326 1.957.326 1.795.488 1.795.653 1.795.652 1.63 1.633 2.936.978 1.47.979 1.304 1.142 1.304.162.327 1.305 1.306 1.469 1.14 1.469.98 1.466.816 1.633.816 1.631.653 1.795.652 1.793.488 1.795.164 1.957.326h4.242l1.957-.164 1.795-.326 1.795-.488 1.795-.49 1.63-.653 1.632-.814 1.468-.817 1.631-1.142 1.305-1.14 1.469-1.143v-.164l1.142-1.305 1.14-1.305.981-1.469.979-1.466.814-1.633.653-1.631.49-1.63.488-1.796.49-1.957.164-1.795.163-1.957.164-2.12v-.165l-.164-1.63v-1.794l-.163-1.633-.326-1.63-.328-1.631-.326-1.631-.488-1.633-.653-1.467-.49-1.468-.652-1.631-.815-1.47-.816-1.304-.979-1.469-.978-1.304-.98-1.469-1.141-1.305-1.143-1.304-1.304-1.305-1.305-1.143-1.469-1.304-1.469-1.143-1.466-1.142-1.633-1.141-1.631-1.143-1.795-.978-1.793-1.143-1.959-.978-1.305-.653-1.63-.978-1.305-.979-1.143-1.304-.978-1.47-.653-1.468-.49-1.795-.326-1.793v-1.306l.164-1.793.488-1.633.817-1.631 1.304-1.469.817-.814 1.63-1.143 1.631-.814 1.631-.655 1.795-.162h.817l1.468.162 1.631.49 1.631 1.143 1.469 1.305.488.488 1.305 1.633.98 1.63.653 1.796.326 1.63v.653h13.213v-1.957l-.162-1.795-.327-1.957-.49-1.795-.49-1.63-.652-1.634-.815-1.63-.978-1.631-.98-1.469-1.306-1.305-.326-.488-1.468-1.307-1.467-1.14-1.469-1.143-1.469-.816-1.63-.815-1.631-.652-1.795-.49-1.795-.326-1.957-.163-1.795-.164zm-188.836 1.957v96.248h32.136l1.795-.326 1.795-.326 1.793-.488 1.633-.654 1.63-.815 1.47-.816 1.466-1.14 1.307-1.144 1.305-1.468.652-.653.979-1.63.978-1.47.979-1.63.652-1.63.652-1.796.49-1.63.49-1.796.163-1.957.164-1.795v-3.425l-.326-4.243-.326-1.957-.327-1.795-.49-1.794-.652-1.793-.652-1.633-.817-1.467-.814-1.469-.98-1.304-.98-1.305-2.282-2.285-1.305-.979-1.307-.978-1.14-.653 1.794-1.468 1.467-1.305 1.469-1.469 1.143-1.305.978-1.468.979-1.305.49-.978.652-1.47.489-1.63.326-1.631.652-3.916v-2.12l.164-1.632-.326-3.914-.326-1.959-.326-1.793-.49-1.633-.653-1.793-.816-1.633-.815-1.466-.978-1.631-.164-.164-1.143-1.305-1.14-1.305-1.305-1.306-1.47-.979-1.468-.814-1.63-.817-1.632-.652-1.794-.49-1.795-.326-3.914-.327zm78.4 0v75.368l.162 1.795.49 1.63.489 1.795.654 1.631.814 1.631.817 1.469 1.14 1.469 1.143 1.468 1.469 1.467 1.142 1.143 1.467 1.304 1.631 1.143 1.633.978 1.63.979 1.632.816 1.63.653 1.633.488 1.793.326 1.795.326 1.795.164h2.936l1.795-.164 1.63-.326 1.795-.488 3.264-1.305 1.793-.816 1.469-.979 1.63-.978 1.633-1.305 1.467-1.143 1.469-1.468 1.305-1.469 1.142-1.63 1.14-1.468.817-1.632.817-1.631.652-1.631.326-1.631.326-1.633.162-1.793v-74.553h-13.703v72.758l-.162 1.957-.49 1.631-.652 1.633-.979 1.467-1.305 1.304-.49.49-1.467.98-1.632.816-1.631.652-1.795.326-1.957.164h-.326l-1.795-.164-1.793-.326-1.633-.652-1.631-.817-1.63-1.14-1.47-1.307-.978-1.467-.816-1.633-.489-1.63-.326-1.958v-73.084zm-65.514 13.377h14.194l2.12.164 1.958.327 1.63.652 1.47.816 1.142 1.141.652.979.489 1.306.49 1.631.326 1.957.162 2.121v1.305l-.162 1.795-.326 1.795-.652 1.793-.817 1.632-.652 1.141-1.305 1.63-1.305 1.144-1.468.978-1.631.652-1.795.164-.652.163h-13.868zm0 38.989h12.725l1.795.164 1.795.326 1.467.652 1.468.817 1.305 1.14 1.307 1.307.978 1.63.653 1.141.814 1.633.652 1.631.49 1.795.327 1.793.326 1.959v2.447l-.162 1.631-.326 1.795-.655 1.793-.814 1.795-.49.49-1.14 1.631-1.47 1.305-1.468.816-1.631.488-1.143.164h-16.803z"/>
  </g>
</svg>
