<svg xmlns="http://www.w3.org/2000/svg" viewBox="0 0 174.6 349.5" role="img" aria-labelledby="title">
  <title id="title">Verkehrszeichen W1-8-R - Tilting Truck (right)</title>
  <path d="m315 205 80 170-80 170-80-170z" style="fill:none;stroke:#fff;stroke-width:40" transform="translate(19512.533 13099.217)"/>
  <path d="M157.099 0H17.501C7.878 0 0 7.885 0 17.519v314.463c0 9.634 7.878 17.518 17.501 17.518H157.1c9.627 0 17.501-7.884 17.501-17.518V17.518C174.6 7.885 166.726 0 157.1 0" style="fill:#fee011;fill-opacity:1;fill-rule:evenodd;stroke:none"/>
  <path d="M17.561 2.78c-4.17.208-7.362 1.362-10.435 4.35-2.928 2.988-4.11 6.272-4.346 10.445v314.347c.296 5.711 2.692 10.089 7.687 12.989 2.423 1.125 4.374 1.658 7.094 1.806H157.04c4.142-.208 7.45-1.45 10.439-4.35 2.896-2.988 4.138-6.304 4.342-10.445V17.575c-.236-4.201-1.446-7.457-4.342-10.445-3.017-2.96-6.27-4.114-10.439-4.35z" style="fill:#000;fill-opacity:1;fill-rule:evenodd;stroke:none"/>
  <path d="M16.263 5.652c-2.01.236-3.725.945-5.468 1.954-3.489 2.632-4.967 5.74-5.235 10.061v314.166c.328 5.15 2.543 8.996 7.334 11.127 1.626.593 3.013.889 4.759.977h139.301c5.144-.324 8.99-2.547 11.116-7.338.621-1.658.886-3.02.974-4.766V17.667c-.205-3.432-1.122-6.096-3.517-8.583-2.544-2.455-5.144-3.313-8.573-3.52H17.653z" style="fill:#fee011;fill-opacity:1;fill-rule:evenodd;stroke:none"/>
  <path d="M151.398 178.827H23.318v-8.019h128.08z" style="fill:#000;fill-opacity:1;fill-rule:nonzero;stroke:none"/>
  <path d="m103.325 245.071-2.896 17.015s.028 0 .028.028c0 2.575 2.099 4.678 4.67 4.678 1.274 0 2.424-.801 3.402-1.482L153.08 233l-44.552-32.315c-.978-.681-2.128-1.478-3.401-1.478a4.68 4.68 0 0 0-4.671 4.674c0 .028-.028.028-.028.028l2.776 15.833c-.529-.06-1.182-.06-1.77-.06-44.02 0-79.88 35.923-79.88 79.953v32.375h25.364l.029-31.602c0-.18-.149-.533-.149-.741 0-30.124 24.54-54.684 54.635-54.684.413 0 1.507 0 1.891.088M88.505 15.198 19.98 54.786l49.46 85.754 68.52-39.59zM139.786 106.844a2.3 2.3 0 0 1 2.293 1.147l12.26 21.166c.649 1.126.24 2.526-.882 3.175l-5.998 3.528c-1.122.653-2.61.244-3.263-.882.65 1.125.328 2.526-.794 3.175l-6.085 3.528c-1.122.652-2.522.243-3.175-.882l-4.057-7.056-28.222 16.316 4.057 7.056c.649 1.125.328 2.526-.794 3.175l-6.085 3.528c-1.122.652-2.523.24-3.175-.882.649 1.125.24 2.526-.882 3.175l-5.998 3.527c-1.121.653-2.522.244-3.175-.881L73.552 147.59c-.652-1.126-.243-2.526.882-3.175l5.998-3.528c1.121-.653 2.614-.24 3.263.882-.653-1.125-.332-2.526.794-3.175l6.085-3.528c1.122-.652 2.526-.243 3.175.882l4.057 7.144 28.222-16.316-4.057-7.144c-.653-1.125-.331-2.526.794-3.175l6.085-3.44c1.122-.648 2.526-.327 3.175.794-.652-1.125-.243-2.525.882-3.175l5.997-3.527c.28-.164.581-.227.882-.265z" style="fill:#000;fill-opacity:1;fill-rule:evenodd;stroke:none"/>
  <path d="m91.006 296.64-17.6 18.5h17.6zm.141-11.183h7.775v29.683h6.844v7.503h-6.844v9.413h-7.916v-9.413h-28.17v-7.179zM133.375 324.788c1.577-.006 2.963-.278 4.184-.822a9.1 9.1 0 0 0 3.15-2.286c.882-.977 1.605-2.141 2.173-3.478q.845-1.991 1.263-4.396c.272-1.59.402-3.277.402-5.048a28.7 28.7 0 0 0-.423-5.062q-.424-2.402-1.298-4.406c-.575-1.334-1.313-2.491-2.195-3.472a9.4 9.4 0 0 0-3.143-2.275q-1.805-.804-4.113-.815c-1.538.006-2.904.279-4.114.815a9.3 9.3 0 0 0-3.132 2.275c-.893.981-1.623 2.138-2.205 3.472q-.875 2.004-1.295 4.406c-.29 1.598-.427 3.284-.427 5.062 0 1.771.13 3.457.402 5.048.28 1.602.699 3.07 1.263 4.396.568 1.337 1.291 2.501 2.173 3.478a9.1 9.1 0 0 0 3.15 2.286c1.221.544 2.608.815 4.185.822m0 8.157c-2.71-.012-5.105-.43-7.208-1.235-2.095-.819-3.905-1.958-5.432-3.443q-2.28-2.211-3.75-5.243c-.985-2.01-1.708-4.222-2.18-6.632-.473-2.416-.706-4.953-.706-7.634 0-2.677.24-5.217.737-7.634.49-2.416 1.235-4.635 2.244-6.65 1.002-2.018 2.265-3.771 3.803-5.256 1.527-1.482 3.334-2.632 5.408-3.447 2.078-.818 4.438-1.228 7.084-1.245 2.646.017 5.006.427 7.083 1.245 2.082.815 3.881 1.965 5.42 3.447q2.292 2.228 3.791 5.256c1.01 2.015 1.754 4.234 2.244 6.65.498 2.417.737 4.957.737 7.634 0 2.681-.232 5.218-.705 7.634-.466 2.41-1.196 4.622-2.173 6.632q-1.476 3.032-3.757 5.243c-1.52 1.485-3.338 2.624-5.43 3.443-2.095.804-4.501 1.224-7.21 1.235" style="fill:#000;fill-opacity:1;fill-rule:nonzero;stroke:none"/>
</svg>
