<svg xmlns="http://www.w3.org/2000/svg" viewBox="0 0 752 252" role="img" aria-labelledby="title">
  <title id="title">Verkehrszeichen W8-24 - Preschool</title>
  <g transform="translate(0 -1096)">
    <rect width="750" height="250" x="1" y="1097" rx="50" ry="50" style="fill:#beff00;fill-opacity:1;fill-rule:evenodd;stroke:none;stroke-width:.197742;stroke-linecap:round;stroke-linejoin:round"/>
    <rect width="730" height="230" x="11" y="1107" rx="40" ry="40" style="fill:#000;fill-opacity:1;fill-rule:evenodd;stroke:none;stroke-width:.187122;stroke-linecap:round;stroke-linejoin:round"/>
    <rect width="690" height="190" x="31" y="1127" rx="20" ry="20" style="fill:#beff00;fill-opacity:1;fill-rule:evenodd;stroke:none;stroke-width:.165348;stroke-linecap:round;stroke-linejoin:round"/>
    <path d="M111.12 1200.06q0 13.73-6.866 20.895-6.717 7.164-19.403 7.164H69.328V1272H55v-100h29.85q11.792 0 18.956 7.761 7.313 7.761 7.313 20.299m-14.03 0q0-6.27-3.582-10.15-3.583-3.88-9.403-3.88H69.328v28.507h14.777q12.985 0 12.985-14.477M181.86 1272h-14.776l-13.283-47.015h-13.732V1272h-14.328v-100h29.85q11.792 0 18.956 7.313 7.313 7.314 7.313 19.403 0 18.806-14.477 24.18zm-14.03-73.284q0-5.82-3.582-9.253t-9.403-3.433H140.07v25.224h14.776q12.986 0 12.986-12.538M250.512 1272h-50.896v-100h47.015v14.03h-32.686v25.224h20.746v13.731h-20.746v32.985h36.567zM319.163 1244.686q0 12.09-8.209 20.597-8.06 8.507-19.552 8.507-12.687 0-20.597-9.403-7.463-8.955-7.463-21.791h14.03q0 7.015 3.284 11.642 3.88 5.522 10.746 5.522 5.672 0 9.85-4.477 4.18-4.478 4.18-10.597 0-8.21-8.06-14.478 1.642 1.045-16.866-11.94-12.238-8.21-12.238-22.09 0-10.746 7.313-18.209 7.463-7.612 18.209-7.612 10.597 0 17.761 7.314 7.314 7.313 7.612 18.507h-13.731q-.299-5.075-3.582-8.209-3.135-3.284-8.06-3.284t-8.507 3.284q-3.433 3.284-3.433 8.209 0 3.731 1.94 6.269 2.09 2.537 7.612 5.671 14.478 8.508 21.045 17.165 6.716 8.656 6.716 19.403M390.949 1198.715H376.47q-1.94-14.328-11.94-14.328-8.657 0-12.239 7.761-3.433 7.761-3.433 27.314 0 21.492 3.88 30.895 4.03 9.403 13.284 9.403 10.448 0 10.448-14.478h14.478q-.299 12.389-7.463 20.448-7.015 8.06-17.463 8.06-15.97 0-23.432-13.134-7.463-13.135-7.463-40.896 0-49.403 29.85-49.403 12.24 0 19.553 10.15 5.075 6.865 6.418 18.208M467.912 1272h-14.477v-45.224H426.12V1272h-14.328v-100h14.328v40.746h27.314V1172h14.477zM547.46 1221.85q0 21.492-5.672 34.776-7.314 17.164-23.583 17.164-16.567 0-23.73-17.164-5.673-13.433-5.673-34.776 0-22.09 5.672-34.776 7.463-16.717 23.731-16.717 8.806 0 14.329 4.03 5.522 3.88 9.254 13.134 5.671 13.582 5.671 34.329m-13.732 0q0-13.732-3.134-24.926-3.583-12.537-12.389-12.537t-12.537 12.239q-3.134 10.298-3.134 25.522 0 13.88 3.134 25.373 3.433 12.24 12.537 12.24 8.806 0 12.836-14.03 2.687-9.553 2.687-23.881M625.215 1221.85q0 21.492-5.672 34.776-7.313 17.164-23.582 17.164-16.567 0-23.731-17.164-5.672-13.433-5.672-34.776 0-22.09 5.672-34.776 7.463-16.717 23.731-16.717 8.806 0 14.329 4.03 5.522 3.88 9.253 13.134 5.672 13.582 5.672 34.329m-13.731 0q0-13.732-3.135-24.926-3.582-12.537-12.388-12.537t-12.537 12.239q-3.134 10.298-3.134 25.522 0 13.88 3.134 25.373 3.433 12.24 12.537 12.24 8.806 0 12.836-14.03 2.687-9.553 2.687-23.881M697 1272h-50.895v-100h14.328v86.716H697z" style="font-size:149.254px;line-height:1.25;font-family:&quot;Roadgeek 2000 Series C&quot;;-inkscape-font-specification:&quot;Roadgeek 2000 Series C&quot;;text-align:center;letter-spacing:.89px;text-anchor:middle;fill:#000;fill-rule:evenodd;stroke:none;stroke-width:.777364"/>
  </g>
</svg>
