<svg xmlns="http://www.w3.org/2000/svg" viewBox="0 0 1021.33 1021.33" role="img" aria-labelledby="title">
  <title id="title">Verkehrszeichen W5-49 - Wild Animals</title>
  <g transform="translate(0 442.66)">
    <rect width="750" height="750" x="-61.992" y="34.181" rx="50" ry="50" style="fill:#fddc04;fill-opacity:1;fill-rule:evenodd;stroke:none;stroke-width:5.67811;stroke-linecap:round;stroke-linejoin:round" transform="rotate(-45)"/>
    <rect width="730" height="730" x="-51.992" y="44.181" rx="40" ry="40" style="fill:#000;fill-rule:evenodd;stroke:none;stroke-width:5.52669;stroke-linecap:round;stroke-linejoin:round" transform="rotate(-45)"/>
    <rect width="690" height="690" x="-31.992" y="64.181" rx="20" ry="20" style="fill:#fddc04;fill-opacity:1;fill-rule:evenodd;stroke:none;stroke-width:5.22386;stroke-linecap:round;stroke-linejoin:round" transform="rotate(-45)"/>
    <path d="m441.172-136.995-18.47 125h-17.537l-19.776-80.224-19.217 80.224h-17.537l-18.47-125h20.15l9.7 65.858 15.859-65.858h19.216l16.232 65.858 9.701-65.858zM479.794-11.995h-20.149v-125h20.15zM587.447-11.995h-77.612v-125h19.776v106.53h57.836zM691.165-74.681q0 37.873-22.015 55.596-7.835 6.53-17.91 7.09h-45.15v-125h40.3q8.768 0 12.686.933 6.343 1.306 11.38 5.784 20.71 17.35 20.71 55.597m-20.149 0q0-15.859-4.104-26.68-5.784-15.858-18.844-15.858h-22.201v85.075h19.59q9.328 0 14.179-4.851 11.38-11.38 11.38-37.686" style="font-size:186.567px;line-height:1.25;font-family:&quot;Roadgeek 2000 Series D&quot;;-inkscape-font-specification:&quot;Roadgeek 2000 Series D&quot;;text-align:center;letter-spacing:.19px;text-anchor:middle;fill:#000;fill-rule:evenodd;stroke:none;stroke-width:.971704"/>
    <path d="M264.262 173.005h-20.896l-12.313-35.075H192.06l-12.313 35.075h-21.082l42.91-125h19.777zm-40.299-55.224L211.65 82.707l-12.687 35.074ZM368.596 173.005H351.06l-47.761-84.701v84.701h-19.776v-125h19.776l45.522 79.85v-79.85h19.776zM418.826 173.005h-20.15v-125h20.15zM546.295 173.005h-19.776v-72.388L497.6 173.005l-28.918-72.388v72.388h-19.776v-125h19.776l28.918 70.15 28.918-70.15h19.776zM670.778 173.005h-20.895l-12.314-35.075h-38.992l-12.314 35.075h-21.082l42.91-125h19.777zm-40.298-55.224-12.314-35.074-12.686 35.074ZM767.657 173.005h-77.612v-125h19.776v106.53h57.836zM862.665 136.999q0 17.724-12.314 28.545-11.007 9.701-27.239 9.701-15.671 0-27.612-8.769-11.38-8.209-17.91-22.76l18.843-7.09q8.21 18.47 26.68 18.47 8.581 0 13.992-5.224 5.41-5.224 5.41-13.246 0-10.635-11.753-16.791-11.94-4.478-23.881-9.142-24.067-9.702-24.067-31.157 0-33.582 38.992-33.582 25.373 0 35.635 25.373l-17.538 5.224q-1.679-2.985-4.104-5.224-5.597-5.41-14.366-5.783-8.209-.187-13.433 2.798-6.53 3.918-5.97 11.754.747 8.955 16.605 14.179 23.32 7.836 28.731 11.38 15.299 10.262 15.299 31.344" style="font-size:186.567px;line-height:1.25;font-family:&quot;Roadgeek 2000 Series D&quot;;-inkscape-font-specification:&quot;Roadgeek 2000 Series D&quot;;text-align:center;letter-spacing:.23px;text-anchor:middle;fill:#000;fill-rule:evenodd;stroke:none;stroke-width:.944203"/>
  </g>
</svg>
