<svg xmlns="http://www.w3.org/2000/svg" viewBox="0 0 1021.33 1021.33" role="img" aria-labelledby="title">
  <title id="title">Verkehrszeichen W5-18 - Road Ends</title>
  <g transform="translate(0 442.66)">
    <rect width="750" height="750" x="-61.992" y="34.181" rx="50" ry="50" style="fill:#fddc04;fill-opacity:1;fill-rule:evenodd;stroke:none;stroke-width:5.67811;stroke-linecap:round;stroke-linejoin:round" transform="rotate(-45)"/>
    <rect width="730" height="730" x="-51.992" y="44.181" rx="40" ry="40" style="fill:#000;fill-rule:evenodd;stroke:none;stroke-width:5.52669;stroke-linecap:round;stroke-linejoin:round" transform="rotate(-45)"/>
    <rect width="690" height="690" x="-31.992" y="64.181" rx="20" ry="20" style="fill:#fddc04;fill-opacity:1;fill-rule:evenodd;stroke:none;stroke-width:5.22386;stroke-linecap:round;stroke-linejoin:round" transform="rotate(-45)"/>
    <path d="M361.754 31.005h-25.746L311.83-34.144h-28.433v65.15h-23.731v-150h49.477q16.568 0 26.642 4.925 10.075 4.702 16.343 15.224 6.493 10.522 6.493 21.94 0 11.866-6.493 22.612-6.492 10.523-16.79 15.224zM334.89-76.905q0-12.537-12.538-17.238-3.134-1.12-10.522-1.12h-28.433v36.94h28.433q8.731 0 13.657-2.686 9.403-5.373 9.403-15.896M489.988-43.77q0 41.865-17.91 62.91-12.762 14.552-34.702 14.552-29.776 0-42.985-26.866-10.523-21.492-10.523-50.596 0-38.732 16.344-60.896 12.313-16.79 38.283-16.79 28.209 0 41.642 26.64 9.85 20.15 9.85 51.046m-23.508 0q0-26.866-8.955-42.09-6.493-10.746-19.478-11.418-16.343-.895-24.179 18.358-5.82 14.329-5.82 35.15 0 26.865 8.955 41.641 6.94 11.642 20.373 11.642 15.671 0 23.283-19.03 5.821-14.552 5.821-34.253M636.79 31.005h-25.075L596.94-11.084h-46.79l-14.777 42.09h-25.298l51.492-150h23.731zm-48.358-66.268-14.776-42.09-15.224 42.09zM761.665-44.218q0 45.447-26.418 66.716-9.403 7.836-21.493 8.507h-54.179v-150h48.358q10.523 0 15.224 1.12 7.612 1.567 13.657 6.94 24.85 20.821 24.85 66.717m-24.18 0q0-19.03-4.925-32.015-6.94-19.03-22.612-19.03h-26.641V6.827h23.507q11.194 0 17.015-5.821 13.657-13.657 13.657-45.224" style="font-size:223.88px;line-height:1.25;font-family:&quot;Roadgeek 2000 Series D&quot;;-inkscape-font-specification:&quot;Roadgeek 2000 Series D&quot;;text-align:center;letter-spacing:-.05px;text-anchor:middle;fill:#000;fill-rule:evenodd;stroke:none;stroke-width:1.16602"/>
    <path d="M362.3 256.005h-93.135v-150h88.433v23.732h-64.702v36.94h43.657v24.18h-43.657v40.97H362.3zM489.797 256.005h-21.045l-57.313-101.641v101.641h-23.732v-150h23.732l54.626 95.822v-95.821h23.732zM627.817 180.782q0 45.447-26.418 66.716-9.403 7.836-21.493 8.507h-54.179v-150h48.358q10.523 0 15.224 1.12 7.612 1.567 13.657 6.94 24.85 20.821 24.85 66.717m-24.18 0q0-19.03-4.925-32.015-6.94-19.03-22.612-19.03H549.46v102.09h23.507q11.194 0 17.015-5.821 13.657-13.657 13.657-45.224M752.165 212.797q0 21.268-14.776 34.253-13.21 11.642-32.687 11.642-18.806 0-33.134-10.522-13.657-9.851-21.492-27.314l22.611-8.507q9.851 22.164 32.015 22.164 10.299 0 16.791-6.269 6.493-6.268 6.493-15.895 0-12.761-14.105-20.15-14.328-5.372-28.656-10.97-28.88-11.641-28.88-37.387 0-40.299 46.79-40.299 30.448 0 42.761 30.448l-21.045 6.268q-2.014-3.582-4.925-6.268-6.716-6.493-17.239-6.94-9.85-.224-16.119 3.358-7.836 4.701-7.164 14.104.895 10.746 19.925 17.015 27.985 9.403 34.478 13.657 18.358 12.313 18.358 37.612" style="font-size:223.88px;line-height:1.25;font-family:&quot;Roadgeek 2000 Series D&quot;;-inkscape-font-specification:&quot;Roadgeek 2000 Series D&quot;;text-align:center;letter-spacing:.11px;text-anchor:middle;fill:#000;fill-rule:evenodd;stroke:none;stroke-width:1.35963"/>
  </g>
</svg>
