<svg xmlns="http://www.w3.org/2000/svg" viewBox="0 0 153.286 153.422" role="img" aria-labelledby="title">
  <title id="title">Verkehrszeichen W6-V2-1__2 - Pedestrian Crossing Ahead on Side Road (veer right) (used in VIC)</title>
  <path d="M81.96 2.206a7.513 7.513 0 0 0-10.634 0L2.202 71.389l-.117.12q-.058.06-.115.123a7.5 7.5 0 0 0-1.351 2.09 7.53 7.53 0 0 0 1.583 8.31l69.124 69.185a7.53 7.53 0 0 0 5.317 2.205 7.52 7.52 0 0 0 5.317-2.205l69.124-69.184a7.52 7.52 0 0 0 1.584-8.312 7.5 7.5 0 0 0-1.584-2.332z" style="fill:#cdff00;fill-opacity:1;fill-rule:evenodd;stroke:none"/>
  <path d="m62.83 101.94 10.96-23.732-3.216-7.155h-5.839L52.7 97.05zM97.501 98.72 84.633 71.053h-12.51l15.132 32.557zM89.368 108.74l.03-.002.716 1.67 3.575-1.431-.358-.954a.089.089 0 0 1 0-.12l1.907-.954-.031-.026a.6.6 0 0 1 .178-.064.6.6 0 0 1 .19-.006 7.928 7.928 0 0 0 7.304-2.986 1.276 1.276 0 0 0 .039-1.565 1.27 1.27 0 0 0-1.506-.417 8.21 8.21 0 0 1-6.907-.49 8.95 8.95 0 0 1-3.053 2.308 9 9 0 0 1-3.501.825l-.117.003h-.117l-.004.01-.004.008-.004.008-.004.009-.013.032-.027.066q-.026.066-.049.137a3.1 3.1 0 0 0-.163.9 3.185 3.185 0 0 0 1.918 3.038M53.208 98.446a3.19 3.19 0 0 0-2.16 3.969l-.015.002-.834 1.67 3.455 1.787.477-.834a.13.13 0 0 1 .037-.082.13.13 0 0 1 .082-.038l1.906.836.034-.03a.6.6 0 0 1 .29.238 7.93 7.93 0 0 0 6.978 3.683 1.27 1.27 0 0 0 .575-2.398 8.212 8.212 0 0 1-4.062-5.613 8.97 8.97 0 0 1-6.763-3.19" style="fill:#000;fill-opacity:1;fill-rule:evenodd;stroke:none"/>
  <path d="M3.265 72.454a6.024 6.024 0 0 0 0 8.515l69.124 69.184a6.01 6.01 0 0 0 6.643 1.268 6 6 0 0 0 1.864-1.268l69.124-69.185a6.026 6.026 0 0 0 0-8.514L80.896 3.269a6.01 6.01 0 0 0-8.507 0zm2.127 2.129L74.516 5.398a3.005 3.005 0 0 1 4.254 0l69.123 69.185a3.01 3.01 0 0 1 0 4.257L78.77 148.024a3.01 3.01 0 0 1-4.254 0L5.392 78.84a3.01 3.01 0 0 1 0-4.257" style="fill:#000;fill-opacity:1;fill-rule:evenodd;stroke:none"/>
  <path d="M110.481 92.014v.188l-.002.093v.094l-.006.377q-.01.377-.026.759a34 34 0 0 1-.531 4.652 34 34 0 0 1-1.811 6.303 33.8 33.8 0 0 1-7.535 11.483 33.9 33.9 0 0 1-11.472 7.541 33.83 33.83 0 0 1-18.613 1.813A33.84 33.84 0 0 1 45.18 104.48a33.87 33.87 0 0 1-1.811-18.628 33.9 33.9 0 0 1 4.95-12.37 33.9 33.9 0 0 1 9.806-9.815 33.9 33.9 0 0 1 12.36-4.955 33.8 33.8 0 0 1 18.613 1.813 33.8 33.8 0 0 1 11.472 7.54 33.9 33.9 0 0 1 7.535 11.483 33.9 33.9 0 0 1 2.368 11.715q.004.187.006.376l.002.188zm-2.758 0v-.171q0-.087-.002-.173l-.006-.346a30.516 30.516 0 0 0-.118-2.105A31.119 31.119 0 0 0 93.65 65.976a31 31 0 0 0-5.568-2.886 31.1 31.1 0 0 0-11.44-2.184 31.088 31.088 0 0 0-17.008 5.07 31.1 31.1 0 0 0-9.008 9.015 31.2 31.2 0 0 0-4.547 11.362 31.14 31.14 0 0 0 4.547 22.685 31.1 31.1 0 0 0 9.007 9.014 31 31 0 0 0 5.567 2.887 31.1 31.1 0 0 0 11.441 2.183 31.123 31.123 0 0 0 11.441-2.183 31.15 31.15 0 0 0 10.537-6.928 31.1 31.1 0 0 0 9.096-21.306l.006-.346.002-.086v-.259M74.067 32.662l-9.745-6.238a1.125 1.125 0 0 1-.457-1.292 1.125 1.125 0 0 1 1.125-.781l24.938 1.127 1.127 24.962a1.13 1.13 0 0 1-.79 1.13 1.133 1.133 0 0 1-1.293-.479l-6.221-9.736L70.963 53.15 62.28 44.46z" style="fill:#000;fill-opacity:1;fill-rule:evenodd;stroke:none"/>
</svg>
