<svg xmlns="http://www.w3.org/2000/svg" viewBox="0 0 323.682 323.6" role="img" aria-labelledby="title">
  <title id="title">Verkehrszeichen W1-7-R - Hairpin curve to right</title>
  <path d="m315 545-80-170 80-170 80 170z" style="fill:none;stroke:#fff;stroke-width:40" transform="translate(19311.611 13026.545)"/>
  <path d="m318.914 173.022-146.03 146.043c-6.356 6.046-16.03 6.046-22.58 0L4.765 173.022c-6.353-6.047-6.353-16.323 0-22.677L150.304 4.61c6.55-6.145 16.224-6.145 22.58 0l146.03 145.736c6.357 6.354 6.357 16.63 0 22.677" style="fill:#fee011;fill-opacity:1;fill-rule:evenodd;stroke:none"/>
  <path d="M317.009 170.192 170.655 316.546c-5.231 5.33-12.693 5.33-17.635 0L6.68 170.192c-4.938-4.632-4.938-12.696 0-17.328L153.02 6.524c4.942-4.744 12.404-4.744 17.635 0l146.354 146.34c4.73 4.632 4.73 12.696 0 17.328" style="fill:#000;fill-opacity:1;fill-rule:evenodd;stroke:none"/>
  <path d="m312.57 166.065-146.547 146.35c-2.212 2.212-6.145 2.212-8.371 0l-146.84-146.35c-2.52-2.717-2.52-6.343 0-8.763l146.84-146.35c2.226-2.522 6.16-2.522 8.371 0l146.548 146.35c2.519 2.42 2.519 6.046 0 8.763" style="fill:#fee011;fill-opacity:1;fill-rule:evenodd;stroke:none"/>
  <path d="M107.875 117.28c0-35.667 27.817-63.497 61.874-63.497 34.166 0 61.884 27.83 61.884 61.888l.099 13.913 22.285-7.055c2.91 0 6.145 3.023 6.145 6.452 0 1.302-.811 2.914-1.316 3.528L213.9 198.82l-44.447-65.807c-.504-.811-1.315-2.42-1.315-4.032 0-3.43 2.73-6.452 6.258-6.452l22.468 7.055-.197-13.913c.098-14.909-11.995-27.006-26.917-27.006-14.909 0-27.005 12.097-27.005 28.614v133.153h-34.869z" style="fill:#000;fill-opacity:1;fill-rule:evenodd;stroke:none"/>
</svg>
