<svg xmlns="http://www.w3.org/2000/svg" viewBox="0 0 323.43 323.427" role="img" aria-labelledby="title">
  <title id="title">Verkehrszeichen W1-1-R - 90 Sharp turn, to right</title>
  <path d="m235 375 80-170 80 170-80 170z" style="fill:none;stroke:#fff;stroke-width:40" transform="translate(18871.729 12789.263)"/>
  <path d="m4.683 172.997 145.75 145.736a15.905 15.905 0 0 0 22.564 0l145.75-145.736c6.244-6.244 6.244-16.323 0-22.578L172.997 4.683a15.93 15.93 0 0 0-22.564 0L4.683 150.42c-6.244 6.255-6.244 16.334 0 22.578" style="fill:#fee011;fill-opacity:1;fill-rule:evenodd;stroke:none"/>
  <path d="m6.701 170.38 146.255 146.24c4.83 4.843 12.597 4.843 17.526 0l146.25-146.24c4.83-4.844 4.83-12.697 0-17.54L170.483 6.598c-4.929-4.844-12.697-4.844-17.526 0L6.7 152.839c-4.83 4.844-4.83 12.697 0 17.54" style="fill:#000;fill-opacity:1;fill-rule:evenodd;stroke:none"/>
  <path d="M10.941 165.846 157.49 312.394c2.406 2.409 6.046 2.409 8.456 0l146.547-146.548c2.42-2.42 2.42-6.047 0-8.47L165.945 10.829c-2.41-2.42-6.05-2.42-8.456 0L10.94 157.376c-2.42 2.423-2.42 6.05 0 8.47" style="fill:#fee011;fill-opacity:1;fill-rule:evenodd;stroke:none"/>
  <path d="M107.99 136.21v107.84h34.883v-85.976c.198-2.406 2.113-4.536 3.824-4.325l50.098-.211-6.956 22.581c.194 3.528 3.023 6.354 6.55 6.354 1.61 0 3.317-.812 4.033-1.51l65.804-44.348-66.21-44.753c-.815-.6-2.212-1.316-3.626-1.316-3.528 0-6.357 2.829-6.551 6.05l6.956 22.073H125.63c-9.168-.194-17.526 7.154-17.638 17.54" style="fill:#000;fill-opacity:1;fill-rule:evenodd;stroke:none"/>
</svg>
