<svg xmlns="http://www.w3.org/2000/svg" viewBox="0 0 752 252" role="img" aria-labelledby="title">
  <title id="title">Verkehrszeichen W8-18 - Aged</title>
  <g transform="translate(0 -1096)">
    <rect width="750" height="250" x="1" y="1097" rx="50" ry="50" style="fill:#beff00;fill-opacity:1;fill-rule:evenodd;stroke:none;stroke-width:.197742;stroke-linecap:round;stroke-linejoin:round"/>
    <rect width="730" height="230" x="11" y="1107" rx="40" ry="40" style="fill:#000;fill-opacity:1;fill-rule:evenodd;stroke:none;stroke-width:.187122;stroke-linecap:round;stroke-linejoin:round"/>
    <rect width="690" height="190" x="31" y="1127" rx="20" ry="20" style="fill:#beff00;fill-opacity:1;fill-rule:evenodd;stroke:none;stroke-width:.165348;stroke-linecap:round;stroke-linejoin:round"/>
    <path d="M256.112 1284.5h-24.254l-12.127-29.291h-54.477L152.94 1284.5H128.5l52.612-125h22.761zm-46.082-51.679-17.538-42.164-17.537 42.164zM331.743 1222.188h43.843v16.231q0 20.336-14.552 34.328-14.366 13.993-35.075 13.993-25.746 0-39.739-20.336-11.94-17.537-11.94-44.59 0-28.73 14.18-46.455 14.178-17.91 37.5-17.91 32.275 0 46.454 30.97l-22.76 8.023q-7.65-16.791-23.695-16.791-13.06 0-21.269 11.94-8.022 11.754-8.022 30.224 0 17.91 5.97 28.731 7.463 13.806 23.321 13.806 9.142 0 16.605-5.597 7.462-5.597 9.701-14.18h-20.522zM497.854 1284.5H404.57v-125h91.231v22.388h-68.47v23.321h37.314v22.761H427.33v34.142h70.523zM623.5 1221.814q0 38.432-30.224 55.223-13.62 7.463-29.478 7.463H523.5v-125h40.298q16.045 0 29.851 8.022 29.85 16.978 29.85 54.292m-22.388 0q0-24.814-18.47-35.075-8.582-4.85-18.844-4.85h-17.537v80.223h17.537q9.142 0 17.91-4.85 19.404-10.448 19.404-35.448" style="font-size:186.567px;line-height:1.25;font-family:&quot;Roadgeek 2000 Series E&quot;;-inkscape-font-specification:&quot;Roadgeek 2000 Series E&quot;;text-align:center;letter-spacing:.63px;text-anchor:middle;fill:#000;fill-rule:evenodd;stroke:none;stroke-width:.971701"/>
  </g>
</svg>
