<svg xmlns="http://www.w3.org/2000/svg" xml:space="preserve" viewBox="-.451 -.943 123.515 76.02" role="img" aria-labelledby="title">
  <title id="title">Verkehrszeichen W8-Q03 - Bus Stop (used in QLD)</title>
  <path d="M7.127-.943h108.36a7.56 7.56 0 0 1 7.577 7.577V67.5a7.56 7.56 0 0 1-7.577 7.577H7.127a7.56 7.56 0 0 1-7.578-7.578V6.634A7.56 7.56 0 0 1 7.127-.943" style="fill:#cdff00;fill-opacity:1;fill-rule:evenodd;stroke:none"/>
  <path d="M115.438.553c3.716.386 5.744 2.414 6.13 6.13v60.768c-.386 3.717-2.414 5.744-6.13 6.13H7.175c-3.717-.386-5.743-2.413-6.13-6.13V6.683C1.432 2.967 3.458.94 7.175.553z" style="fill:#000;fill-opacity:1;fill-rule:evenodd;stroke:none"/>
  <path d="M116.645 3.787c1.352.772 1.787 1.496 1.932 3.041v60.479c-.242 2.075-1.208 3.04-3.283 3.281H7.32c-2.075-.241-3.04-1.206-3.282-3.281V6.828C4.28 4.704 5.197 3.787 7.32 3.546h107.974l.82.096z" style="fill:#cdff00;fill-opacity:1;fill-rule:evenodd;stroke:none"/>
  <path d="m30.392 56.302 2.702-.965c1.159 2.075 2.221 2.702 4.393 2.702 1.255 0 2.75-1.302 2.75-2.557 0-1.835-1.11-2.8-4.874-3.186-.579-.049-1.834-.434-2.799-1.255-.821-.675-1.545-1.738-1.545-3.33 0-3.475 2.848-5.697 5.985-5.697 2.703 0 4.585 1.353 5.503 4.152l-2.944.627c-.531-1.447-1.739-1.834-2.896-1.882-1.45-.097-2.704 1.303-2.655 2.606.048.772.676 1.496 1.4 1.786 1.206.531 2.847.241 4.15.773 1.93.965 3.62 2.557 3.62 4.922 0 3.62-2.51 6.034-6.323 6.034-2.751 0-5.502-2.22-6.467-4.73M46.127 42.014H57.71v2.8h-4.392v16.218h-2.944V44.814h-4.247zM67.702 61.128c-3.91 0-6.662-3.088-6.662-9.556 0-6.42 2.51-9.509 6.662-9.509 4.15 0 6.66 4.248 6.66 9.509 0 5.26-1.737 9.556-6.66 9.556m0-2.943c2.075 0 3.57-1.69 3.62-6.566 0-4.488-1.4-6.66-3.62-6.66s-3.67 1.785-3.67 6.613c0 4.681 1.595 6.613 3.67 6.613M82.279 45.007v4.826h4.681c1.353 0 2.173-1.302 2.173-2.702 0-1.11-1.11-2.124-2.316-2.124zm-2.847-2.993h6.902c2.944 0 5.888 2.173 5.888 5.165 0 3.09-2.365 5.647-5.888 5.647h-4.055v8.206h-2.847zM36.957 13.103h7.722c2.414 0 4.73 2.51 4.73 4.73 0 2.173-.916 3.234-2.992 4.489 2.172 1.159 3.33 2.317 3.33 4.827a5.016 5.016 0 0 1-5.068 4.972h-7.722zm2.8 7.819h4.005c1.013 0 2.172-1.255 2.317-2.316.096-.097.096-.579.096-.773 0-.917-.675-1.496-1.737-1.496h-4.681zm0 8.399h5.26c.82 0 1.738-1.593 1.738-2.414 0-1.593-1.255-2.848-2.896-2.848h-4.102zM55.057 25.99V13.101h2.847v12.887c0 1.98 1.786 3.138 3.573 3.138 1.64 0 3.33-1.159 3.33-2.945v-13.08h3.04v12.646c0 3.524-2.607 6.371-6.37 6.371-3.573 0-6.42-2.51-6.42-6.13M72.915 27.39l2.703-.966c1.159 2.075 2.221 2.703 4.392 2.703 1.255 0 2.752-1.303 2.752-2.558 0-1.835-1.11-2.8-4.875-3.186-.58-.049-1.834-.434-2.8-1.255-.82-.675-1.544-1.737-1.544-3.33 0-3.475 2.847-5.696 5.985-5.696 2.702 0 4.585 1.352 5.502 4.151l-2.943.628c-.532-1.448-1.738-1.834-2.897-1.883-1.448-.096-2.703 1.304-2.655 2.606.049.773.677 1.497 1.4 1.787 1.207.531 2.848.241 4.152.772 1.93.965 3.62 2.558 3.62 4.923 0 3.62-2.51 6.033-6.324 6.033-2.751 0-5.503-2.22-6.468-4.73" style="fill:#000;fill-opacity:1;fill-rule:evenodd;stroke:none"/>
</svg>
