<svg xmlns="http://www.w3.org/2000/svg" viewBox="0 0 122.969 122.968" role="img" aria-labelledby="title">
  <title id="title">Verkehrszeichen W2-11-L - Staggered side road intersection, first from right on a curve to left</title>
  <path d="M239.939 387.445 184.5 442.882c-2.354 2.354-6.207 2.354-8.561 0l-55.438-55.437c-2.355-2.355-2.355-6.208 0-8.563l55.438-55.436c2.354-2.355 6.207-2.355 8.561 0l55.438 55.436c2.355 2.355 2.355 6.208 0 8.563" style="fill:#fee011;fill-opacity:1;fill-rule:evenodd;stroke:none" transform="translate(-118.736 -321.68)"/>
  <path d="m239.174 386.447-55.627 55.627a4.71 4.71 0 0 1-6.643 0l-55.627-55.627a4.71 4.71 0 0 1 0-6.643l55.627-55.627a4.713 4.713 0 0 1 6.643 0l55.627 55.627a4.71 4.71 0 0 1 0 6.643" style="fill:#000;fill-opacity:1;fill-rule:evenodd;stroke:none" transform="translate(-118.736 -321.68)"/>
  <path d="m178.624 440.47-55.748-55.748a2.266 2.266 0 0 1 0-3.193l55.748-55.748a2.266 2.266 0 0 1 3.193 0l55.748 55.748a2.264 2.264 0 0 1 0 3.193l-55.748 55.748a2.264 2.264 0 0 1-3.193 0" style="fill:#fee011;fill-opacity:1;fill-rule:evenodd;stroke:none" transform="translate(-118.736 -321.68)"/>
  <path d="m199.205 392.717 14.289-3.828 3.12 11.653-14.293 3.83a59 59 0 0 1 .375 2.694l.002.021.033.283v.011l.064.595.001.014.052.535.01.11q.029.33.056.657l.005.064.037.511.001.027q.022.3.04.602l.004.086.028.504.002.043q.013.266.023.532l.002.045q.023.608.035 1.216l.002.133.007.466v.029l.001.283v.006l.001.306h-13.27c0-5.101-.808-10.015-2.303-14.619l-.105-.32-.002-.005a53 53 0 0 0-.21-.62l-.027-.071a45 45 0 0 0-.688-1.843l-.001-.004a47 47 0 0 0-.657-1.566l-.002-.004q-.196-.45-.403-.894l-.027-.056-.09-.19-.073-.155-.057-.117q-.12-.25-.242-.497l-.018-.036q-.152-.306-.308-.611l-.024-.046q-.208-.402-.424-.8l-.065-.122-.066-.12-11.404 8.287-7.091-9.76 11.396-8.28-.215-.227-.161-.168-.006-.006a41 41 0 0 0-.614-.625l-.09-.09-.01-.01-.078-.077a36 36 0 0 0-.44-.428l-.013-.013a45 45 0 0 0-.792-.745l-.024-.021a52 52 0 0 0-.733-.659l-.012-.011a48 48 0 0 0-3.222-2.591l-1.666 6.888v.002q-.072.286-.211.547a2.412 2.412 0 0 1-4.263-.01l-12.922-25.448 28.332-3.435a2.413 2.413 0 0 1 2.047 4.014l-.002.002-5.113 5.566.041.029a62 62 0 0 1 2.122 1.524l.025.02q.189.142.378.287l.012.007.068.054.042.031.387.301.041.031q.295.232.585.464l.007.006.144.116.005.004.284.232.016.013a61 61 0 0 1 3.368 2.972l.01.01q.173.163.345.33l.02.02q.66.638 1.298 1.293l.173.18q.223.23.442.462l.112.117a63 63 0 0 1 1.505 1.66l.067.078q.723.829 1.414 1.685l.011.012.224.279.027.034.212.266.032.042.204.26.054.07.188.244.02.025.214.281.231.307q.213.282.422.57l.043.06.195.27.03.04.208.29.009.013.214.304.006.01.215.308.002.004a60.4 60.4 0 0 1 6.797 12.95" style="fill:#000;fill-opacity:1;fill-rule:evenodd;stroke:none" transform="translate(-118.736 -321.68)"/>
</svg>
