<svg xmlns="http://www.w3.org/2000/svg" viewBox="0 0 122.969 122.943" role="img" aria-labelledby="title">
  <title id="title">Verkehrszeichen W2-14-L - T-junction beyond a curve to left</title>
  <path d="M149.142 235.535 93.705 290.96c-2.354 2.355-6.208 2.355-8.562 0l-55.437-55.425c-2.355-2.354-2.355-6.206 0-8.56l55.437-55.426c2.354-2.354 6.208-2.354 8.562 0l55.437 55.426c2.355 2.354 2.355 6.206 0 8.56" style="fill:#fee011;fill-opacity:1;fill-rule:evenodd;stroke:none" transform="translate(-27.94 -169.783)"/>
  <path d="M148.376 234.537 92.75 290.152a4.713 4.713 0 0 1-6.644 0L30.48 234.537a4.71 4.71 0 0 1 0-6.642l55.626-55.615a4.713 4.713 0 0 1 6.644 0l55.626 55.615a4.71 4.71 0 0 1 0 6.642" style="fill:#000;fill-opacity:1;fill-rule:evenodd;stroke:none" transform="translate(-27.94 -169.783)"/>
  <path d="m87.826 288.549-55.748-55.737a2.265 2.265 0 0 1 0-3.192l55.748-55.736a2.266 2.266 0 0 1 3.194 0l55.747 55.736a2.263 2.263 0 0 1 0 3.192L91.02 288.55a2.264 2.264 0 0 1-3.194 0" style="fill:#fee011;fill-opacity:1;fill-rule:evenodd;stroke:none" transform="translate(-27.94 -169.783)"/>
  <path d="M104.467 257.729v14.55H91.196v-14.55c0-10.103-4.286-19.208-11.139-25.593l.004-.004-8.647-8.645-20.9 20.895-9.384-9.381 51.185-51.174 9.384 9.381-20.902 20.897 8.648 8.645c9.252 8.79 15.022 21.212 15.022 34.978z" style="fill:#000;fill-opacity:1;fill-rule:evenodd;stroke:none" transform="translate(-27.94 -169.783)"/>
</svg>
