<svg xmlns="http://www.w3.org/2000/svg" xml:space="preserve" viewBox="-.451 -.943 122.621 40.851" role="img" aria-labelledby="title">
  <title id="title">Verkehrszeichen W8-23 - Crossing Arrows</title>
  <path d="M7.704-.943h106.311a8.13 8.13 0 0 1 8.155 8.148v24.557a8.13 8.13 0 0 1-8.155 8.146H7.704a8.13 8.13 0 0 1-8.155-8.146V7.205A8.13 8.13 0 0 1 7.704-.944" style="fill:#fee011;fill-opacity:1;fill-rule:evenodd;stroke:none"/>
  <path d="M7.755.665h106.21c3.634 0 6.59 2.963 6.59 6.597v24.449a6.597 6.597 0 0 1-6.59 6.59H7.755c-3.634 0-6.597-2.956-6.597-6.59V7.262C1.158 3.628 4.12.665 7.755.665" style="fill:#000;fill-opacity:1;fill-rule:evenodd;stroke:none"/>
  <path d="M7.755 3.938h106.21c1.868 0 3.324 1.449 3.324 3.324v24.449a3.284 3.284 0 0 1-3.324 3.324H7.755a3.284 3.284 0 0 1-3.324-3.324V7.262c0-1.875 1.457-3.324 3.324-3.324" style="fill:#fee011;fill-opacity:1;fill-rule:evenodd;stroke:none"/>
  <path d="M41.236 7.09c-.107 0-.247.076-.406.126-7.527 3.893-12.895 7.377-20.062 11.062-.36.158-.75.664-.75 1.125v.094c0 .469.39 1.005.75 1.156 7.167 3.684 12.535 7.169 20.062 11.063.159.05.299.093.406.093.73 0 1.25-.522 1.25-1.25v-.25c-.468-2.278-1.458-5.14-2.187-7.843h41.125c-.728 2.704-1.719 5.565-2.188 7.844v.25c0 .727.523 1.25 1.25 1.25.102 0 .248-.044.407-.094 7.527-3.894 12.865-7.379 20.031-11.063.361-.15.781-.687.781-1.156v-.094c0-.46-.42-.967-.781-1.125-7.166-3.685-12.504-7.168-20.031-11.062-.159-.05-.305-.125-.407-.125-.727 0-1.25.521-1.25 1.25v.281c.47 2.286 1.46 5.116 2.188 7.813H40.299c.729-2.697 1.719-5.527 2.187-7.813v-.281c0-.729-.52-1.25-1.25-1.25" style="fill:#000;fill-opacity:1;fill-rule:evenodd;stroke:none"/>
</svg>
