<svg xmlns="http://www.w3.org/2000/svg" xml:space="preserve" viewBox="-1 0 120.924 120.961" role="img" aria-labelledby="title">
  <title id="title">Verkehrszeichen W6-8 - Road Ahead</title>
  <path d="m89.25 160.661 32.664-32.679h46.188l32.699 32.679v46.224l-32.699 32.667h-46.188L89.25 206.885z" style="fill:none;stroke:none" transform="translate(678.337 1164.735)scale(1.17193)"/>
  <path d="m.703 64.642 54.56 54.56a5.893 5.893 0 0 0 8.398 0l54.56-54.56c2.27-2.27 2.27-6.053 0-8.323l-54.56-54.56a5.893 5.893 0 0 0-8.399 0L.702 56.319c-2.27 2.27-2.27 6.053 0 8.323" style="fill:#fee011;fill-opacity:1;fill-rule:evenodd;stroke:none"/>
  <path d="M56.17 118.295c1.967 1.589 4.314 1.967 6.356.379L117.39 63.81q2.837-3.405 0-6.81L62.905 2.517c-1.816-1.438-3.86-1.892-5.979-.606l-.756.606-54.484 54.56c-1.892 2.194-1.892 4.464 0 6.734z" style="fill:#000;fill-opacity:1;fill-rule:evenodd;stroke:none"/>
  <path d="M60.105 117.386c.454-.151.605-.227.984-.53l54.483-54.484c1.06-1.286 1.06-2.345 0-3.632L61.09 4.256c-1.06-.832-2.195-.756-3.179 0L3.426 58.74c-1.058 1.362-1.058 2.27 0 3.632l54.484 54.484c.757.53 1.287.606 2.195.53" style="fill:#fee011;fill-opacity:1;fill-rule:evenodd;stroke:none"/>
  <path d="M29.836 73.345h2.498l-1.363-4.843zm-4.388 7.416 4.388-17.935h2.498l4.312 17.935H34.15l-1.211-4.919h-3.557l-1.21 4.92zM40.885 62.826h2.572v7.265h4.844v-7.265h2.345V80.76h-2.345v-8.173h-4.844v8.173h-2.572zM56.246 62.826h8.703v2.649h-6.13v4.465h3.632v2.345H58.82v5.902h6.432v2.573h-9.005zM72.742 73.345h2.498l-1.363-4.843zm-4.388 7.416 4.388-17.935h2.498l4.312 17.935h-2.496l-1.211-4.919h-3.556l-1.212 4.92zM88.029 62.826c4.616 0 5.523 4.843 5.523 8.475.077 3.633-.53 9.459-5.523 9.459H83.79V62.826zm-.077 2.498h-1.588v12.863h1.816c2.8 0 2.876-4.16 2.876-6.886 0-2.119-.152-5.977-3.104-5.977M40.96 40.579l2.649 8.626h-2.725l-2.345-8.324H36.42v8.324h-2.574V31.346h5.751c2.27 0 4.012 2.725 4.012 4.919 0 1.741-.984 3.709-2.649 4.314m-1.363-2.119c1.135 0 1.363-1.363 1.363-2.27 0-1.135-.076-2.195-1.363-2.195H36.42v4.465zM51.857 49.206c-4.237 0-5.146-4.01-5.146-8.929 0-4.918 1.136-8.93 5.146-8.93 4.087 0 5.222 4.012 5.222 8.93 0 4.92-.984 8.93-5.222 8.93m0-2.421c2.195 0 2.724-2.876 2.724-6.508s-.605-6.583-2.724-6.583c-2.043 0-2.648 2.951-2.648 6.583s.53 6.508 2.648 6.508M64.342 41.79h2.573l-1.361-4.843zm-4.313 7.416 4.313-17.859h2.573l4.314 17.86H68.73l-1.21-4.845h-3.557l-1.21 4.844zM79.629 31.347c4.616 0 5.6 4.843 5.6 8.475 0 3.633-.607 9.384-5.6 9.384H75.39V31.347zm-.077 2.498h-1.588v12.789h1.816c2.875 0 2.875-4.087 2.875-6.812 0-2.118-.151-5.977-3.103-5.977" style="fill:#000;fill-opacity:1;fill-rule:evenodd;stroke:none"/>
</svg>
