<svg xmlns="http://www.w3.org/2000/svg" viewBox="0 0 600.4 400.4" role="img" aria-labelledby="title">
  <title id="title">Verkehrszeichen W8-SA102 - Unfenced Road (used in SA)</title>
  <g transform="translate(-2570.884 2028.086)">
    <rect width="600" height="400" x="2571.084" y="-2027.886" rx="40" ry="40" style="fill:#fee011;fill-opacity:1;stroke:none;stroke-width:4;stroke-linejoin:miter;stroke-miterlimit:4;stroke-dasharray:32,4;stroke-dashoffset:0;stroke-opacity:1"/>
    <rect width="584" height="384" x="2579.084" y="-2019.886" rx="32" ry="32" style="fill:#000;fill-opacity:1;stroke:none;stroke-width:4;stroke-linejoin:miter;stroke-miterlimit:4;stroke-dasharray:32,4;stroke-dashoffset:0;stroke-opacity:1"/>
    <rect width="552" height="352" x="2595.084" y="-2003.886" rx="16" ry="16" style="fill:#fee011;fill-opacity:1;stroke:none;stroke-width:4;stroke-linejoin:miter;stroke-miterlimit:4;stroke-dasharray:32,4;stroke-dashoffset:0;stroke-opacity:1"/>
    <path d="m399.428 92-1.305.162-1.14.164-1.141.162-1.14.326-.977.327-1.141.326-2.934 1.467-.814.65-.977.652-.814.653-1.63 1.629-2.606 3.91-.653 1.14-.488 1.141-1.467 3.91-.488 1.467-.326 1.467-.326 1.629-.327 1.466-.326 1.63-.162 1.79-.326 1.793-.326 3.584v1.955l-.162 1.955v7.008l.162 1.791v1.793l.164 1.63v1.792l.162 1.467.162 1.629.164 1.467.326 1.464.162 1.467.327 1.467.162 1.303.326 1.14.326 1.305.652 2.281.327.977.162.162.488 1.467 1.467 2.933.814 1.303.815 1.14 1.955 2.282.978.815.977.978 2.281 1.303 1.305.652 2.605.977 1.305.326 2.932.326h3.421l1.63-.162 1.63-.326 1.465-.326 1.467-.489 1.304-.49 1.303-.65 1.303-.815 1.14-.816 1.141-.977.815-.814.978-1.14.815-.98.814-1.14.652-1.303.65-1.302.491-1.305.977-4.399.326-3.26v-1.138h-11.242v1.629l-.163 1.467-.49 1.465-.488 1.304-.814 1.303-.653.814-1.14 1.141-1.141.979-1.303.488-1.467.488-1.466.164-.977-.164-.814-.162-.815-.164-.978-.326-.653-.324-.814-.653-.65-.488-.653-.652-1.303-1.63-.652-.978-1.467-3.422-.326-1.302-.488-1.467-.326-1.467-.327-1.629-.162-1.629-.326-1.793-.488-5.865v-2.281l-.164-2.118v-4.074l.164-1.79V125.4l.162-1.629.164-1.466.162-1.63.162-1.302.164-1.467.326-1.302.163-1.305.326-1.303.162-.164.49-1.791.65-1.793.653-1.467.814-1.302.815-1.141.978-.977.977-.816.978-.65 1.14-.489 1.142-.164 1.302-.162h.164l1.465.162 1.467.326 1.303.489 1.304.978 1.141.977 1.14 1.304.815 1.141.652 1.465.325 1.305v.976h11.08l-.162-1.629v-1.629l-.653-2.933-.488-1.303-.49-1.467-.65-1.14-.815-1.303-1.63-2.281-.977-.979-1.141-.976-1.14-.815-2.608-1.629-1.303-.49-2.933-.977-1.467-.326-1.63-.164-1.628-.162h-2.117M56 93.629v58.818l.326 2.934.653 2.607.488 1.303.814 1.303.653 1.304.976 1.141.979 1.303 1.14 1.14.977.815 2.607 1.955 1.303.814 1.305.653 1.465.652 1.304.65 2.932.653 2.933.326H79.3l1.467-.162 2.933-.652 1.303-.489 1.467-.49 1.302-.65 1.305-.815 1.465-.816 1.305-.977 1.14-.978 1.141-1.14 1.14-1.304.977-1.14.979-1.303.65-1.305.652-1.14.489-1.303.49-1.467.162-1.303.162-1.466V93.629H88.424v58.168l-.164 1.467-.324 1.465-.653 1.304-.814 1.14-1.467 1.466-1.303.816-1.304.65-1.467.489-1.465.164-1.631.162h-1.629l-1.467-.326-1.465-.489-2.607-1.628-1.303-1.141-.816-1.14-.65-1.303-.489-1.305-.164-1.465V93.63zm68.295 0v76.904h10.916v-50.51L159 170.533h8.96V93.63h-11.567v44.48L135.21 93.63zm68.13 0v76.904h11.08v-37.148h16.458v-11.08h-16.457V104.22h29.002V93.629zm57.38 0v76.904h39.918V159.78H260.72v-25.416h17.11v-10.592h-17.11v-19.388h27.699V93.629zm59.496 0v76.904h10.916v-50.51l23.789 50.51h8.96V93.63h-11.568v44.48l-21.181-44.48zm131.375 0v76.904h40.08V159.78h-29.164v-25.416h17.107v-10.592h-17.107v-19.388h27.861V93.629zm59.496 0v76.904h19.877l3.26-.326 1.464-.326 2.934-.65 1.303-.653 1.304-.488 1.303-.652 2.281-1.63.977-.814.979-.978.978-1.141 1.629-2.281.814-1.303v-.162l.977-1.955.326-1.14.49-1.141.65-2.282.653-2.607.162-1.467.326-1.465.164-1.467.489-4.888.326-3.584v-3.748l.162-1.955v-3.258l-.162-1.955v-1.793l-.164-1.793-.488-4.887-.327-1.467-.162-1.466-.326-1.467-.326-1.303-.488-1.467-.327-1.14-.488-1.303-.978-2.281-.489-.979-.326-.65-.814-1.305-.815-1.14-.978-1.141-1.955-1.955-2.282-1.63-1.302-.652-1.14-.65-1.468-.49-1.302-.488-1.467-.489-1.63-.162-1.466-.326-1.629-.164h-20.529m11.078 10.592h8.31l1.467.324 1.465.326 2.608.979 1.14.814 1.955 1.955.815 1.14.814 1.303.49 1.141.327.815.65 2.28.164 1.141.324 1.467.326 2.934.165 1.629v1.79l.162 1.794v14.338l-.489 4.888-.164 1.303-.324 1.305-.164 1.302-.326 1.141-.324.977-.164.326-1.303 2.933-.815 1.141-.978.977-.977.814-1.14.816-2.608.977-1.467.326-1.628.162h-8.311zM267.646 228l-1.142.164-1.143.162-2.94.98-.98.49-.978.49-.817.49-.98.652-1.633 1.306-.652.817-.817.816-.652.817-1.307 1.959-.652 1.142-.654.98-.49 1.307-.489 1.143-.98 2.611-.326 1.47-.49 1.47-.327 1.468-.652 3.266-.328 3.266-.326 1.795-.162 1.959v1.96l-.165 1.96v1.958l-.162 2.122v.98l.162 1.959v4.082l.327 3.918.326 3.592.328 1.633.162 1.632.654 3.266.489 1.469.328 1.306.488 1.47.328 1.306.652 1.306.979 2.286.654 1.142 1.307 1.96.652.816.653.98.816.652.816.817 1.633 1.306.817.49.98.653.979.326.816.49 1.143.327.98.326 1.143.164.98.162 1.143.164h2.937l1.143-.164.98-.162 1.143-.164.98-.162 1.143-.328.978-.489.817-.328.98-.488.817-.654.978-.489.817-.654.816-.816.654-.817.817-.816.652-.817 1.307-1.959.652-1.142 1.469-3.428.49-1.307.49-1.468.326-1.307.49-1.469.327-1.47.654-3.266.162-1.795.164-1.633.326-1.797v-1.959l.327-3.918v-10.449l-.164-1.795-.163-1.633v-1.796l-.164-1.633-.326-1.469-.162-1.633-.164-1.469-.326-1.468-.326-1.307-.164-1.307-.326-1.306-.49-1.305-.653-2.287-.49-1.143-.49-.978v-.164l-.653-1.469-1.633-2.613-.98-1.143-2.938-2.94-1.144-.652-1.143-.816-1.142-.49-2.612-.979-1.47-.164-1.47-.326h-4.734M188 229.469v77.062h10.611v-35.756h9.961l10.285 35.756h11.428l-11.101-37.55 1.306-.49 1.307-.655 1.142-.816.979-.979 1.143-.98.98-1.305.816-1.307 1.143-2.285.652-1.47.49-1.305.49-1.471.165-1.469.326-1.469v-1.47l.162-1.143-.162-1.469v-1.47l-.98-4.408-.49-1.305-.653-1.47-.652-1.306-1.633-2.613h-.164l-.979-1.306-1.144-1.305-2.285-1.96-1.143-.653-1.307-.653-1.304-.49-1.307-.326-1.307-.164H188m139.21 0-18.284 77.062h11.101l5.225-21.388h15.51l5.55 21.388h10.776l-19.102-77.062zm46.505 0v77.062h19.101l3.266-.328 2.938-.652 3.92-1.469 1.142-.654 1.143-.817 1.959-1.63.98-.981.979-1.143.816-1.142.652-1.143.817-1.306v-.164l.98-1.96 1.307-4.57.326-1.306.326-1.47.326-1.306.327-2.94.49-4.898.326-3.591v-3.754l.164-1.96v-3.265l-.164-1.959v-1.797l-.162-1.795-.49-4.898-.164-1.469-.653-2.94-.978-3.917-.49-1.307-.49-1.143-.491-.98-.49-1.143-.326-.652-.817-1.307-1.633-2.285-1.959-1.959-.978-.816-1.143-.817-1.144-.654-1.305-.652-2.613-.98-1.469-.327-1.469-.326-1.47-.326-1.633-.164h-19.755m-104.6 9.142h1.633l.816.164 2.45.98 1.959 1.96 1.306 1.633.49 1.142.489.979.49 1.306.326 1.307.49 1.307.327 1.468.326 1.633.164 1.633.326 1.795.164 1.797.162 1.959.164 2.123v2.121l.164 2.285v4.082l-.164 2.123v2.123l-.164 2.121-.162 1.797-.326 1.96-.164 1.632-.652 3.266-.327 1.468-.328 1.307-.488 1.307-.49 1.142-.49.979-.653.98-.49.817-.654.816-1.305 1.305-.816.49-1.633.654-.817.162-.816.164h-.652l-1.307-.164-1.307-.162-1.142-.49-.98-.654-.98-.817-.98-1.142-.816-1.143-.817-1.469-.652-1.468-.164-.817-.326-1.144-.326-.979-.164-1.306-.327-1.143-.162-1.307-.326-2.937-.49-4.899v-5.55L258.34 268l.164-2.45v-2.122l.162-2.121v-2.123l.164-1.96.326-1.796.164-1.795.326-1.633.979-4.408.49-1.143.49-1.306.98-1.96.653-.98.653-.652.654-.817 1.305-.978.816-.49.816-.327.817-.164zm115.375 1.471h6.367l1.47.162 1.632.164 1.307.326 1.306.49 2.285 1.307 1.96 1.96.816 1.142.652 1.306.49 1.143.653 1.959.328 1.143.162 1.306.326 1.307.328 2.937.162 1.633v1.797l.164 1.795v12.572l-.164 1.795v1.633l-.326 3.266-.164 1.306-.326 1.305-.162 1.307-.328 1.142-.326.98-.163.327-.49 1.469-.816 1.306-.653 1.307-.98.978-.98.817-1.143.816-1.143.49-1.306.49-1.469.327h-9.469zm-185.879.326h13.553l1.305.164 1.306.326.98.49.98.653.654.979.652 1.144.49 1.305.326 1.47.163 1.633v3.102l-.653 2.937-.652 1.145-.326.816-.98 1.143-1.143.978-1.143.655-1.47.326H198.61zM332.6 253.797l5.386 20.734h-10.775z" style="fill:#000;fill-opacity:1;fill-rule:evenodd;stroke:none" transform="translate(2571.084 -2027.886)"/>
  </g>
</svg>
