<svg xmlns="http://www.w3.org/2000/svg" viewBox="0 0 271.332 348.678" role="img" aria-labelledby="title">
  <title id="title">Verkehrszeichen W1-9-1 - Exit advisory speed</title>
  <path d="m395 375-80 170-80-170 80-170z" style="fill:none;stroke:#fff;stroke-width:40" transform="translate(19809.462 13210.168)"/>
  <path d="M38.693 0h193.946c21.28 0 38.693 17.403 38.693 38.672v271.335c0 21.269-17.413 38.671-38.693 38.671H38.693C17.413 348.678 0 331.276 0 310.007V38.672C0 17.402 17.413 0 38.693 0" style="fill:#fee011;fill-opacity:1;fill-rule:evenodd;stroke:none"/>
  <path d="M232.59 3.1c9.698.248 18.214 3.543 25.153 10.482 6.844 6.837 10.241 15.448 10.485 25.139v271.24c-.343 14.81-8.368 26.716-21.806 32.816-4.48 1.82-8.96 2.705-13.832 2.804H38.742c-9.698-.247-18.313-3.64-25.157-10.48-6.84-6.838-10.237-15.45-10.484-25.14V38.721c.247-9.69 3.644-18.302 10.484-25.14 6.943-6.938 15.46-10.233 25.157-10.48z" style="fill:#000;fill-opacity:1;fill-rule:evenodd;stroke:none"/>
  <path d="M38.791 9.3h193.75c16.217 0 29.488 13.26 29.488 29.47v271.142c0 16.206-13.271 29.467-29.488 29.467H38.79c-16.217 0-29.485-13.26-29.485-29.467V38.77c0-16.21 13.268-29.47 29.485-29.47" style="fill:#fee011;fill-opacity:1;fill-rule:evenodd;stroke:none"/>
  <path d="M72.309 37.384H100.1v6.741H79.015v7.709H90.41v6.741H79.015v10.81H100.8v6.737H72.31zM121.61 56.018l-11.24-18.634h7.673l7.56 12.202 7.479-12.202h8.138l-11.588 18.634 12.675 20.104h-7.983l-8.721-13.906-8.682 13.906h-7.948zM153.434 76.122h6.666V37.384h-6.666zM170.526 37.384h28.49v6.276h-10.933v32.462h-6.745V43.66h-10.812zM37.888 135.262l5.31-3.873a20.3 20.3 0 0 0 2.889 2.6c.988.72 2.067 1.273 3.228 1.661 1.164.381 2.476.575 3.923.582a15.8 15.8 0 0 0 3.344-.388 13 13 0 0 0 1.933-.596 7.7 7.7 0 0 0 1.725-.95 4.6 4.6 0 0 0 1.239-1.378q.467-.806.48-1.88c-.008-.703-.156-1.306-.452-1.803a3.8 3.8 0 0 0-1.182-1.232 7.1 7.1 0 0 0-1.669-.815 19 19 0 0 0-1.898-.543c-.652-.148-1.287-.282-1.894-.413a15 15 0 0 1-1.626-.423c-1.112-.356-2.216-.705-3.316-1.055a41 41 0 0 1-3.175-1.136 17.4 17.4 0 0 1-2.837-1.439 10.1 10.1 0 0 1-2.282-1.983q-.978-1.155-1.517-2.744-.546-1.589-.558-3.733c.007-1.23.194-2.363.572-3.383a9.3 9.3 0 0 1 1.542-2.755 11.6 11.6 0 0 1 2.307-2.138 14.3 14.3 0 0 1 2.836-1.517 16.7 16.7 0 0 1 3.133-.903 17.5 17.5 0 0 1 3.217-.303q1.747.004 3.637.437c1.26.29 2.505.699 3.74 1.235a20.2 20.2 0 0 1 3.457 1.905 15 15 0 0 1 2.808 2.466l-4.844 4.572a17 17 0 0 0-2.035-1.796 9.4 9.4 0 0 0-2-1.157 9.3 9.3 0 0 0-2.184-.62 16 16 0 0 0-2.579-.188q-.711.001-1.623.155c-.6.1-1.22.258-1.841.466a8.5 8.5 0 0 0-1.743.815 4.5 4.5 0 0 0-1.305 1.16 2.77 2.77 0 0 0-.543 1.55q.01 1.175.49 1.964c.324.53.776.96 1.351 1.302.575.35 1.242.642 2.004.886q1.142.361 2.459.691 1.326.33 2.727.737 1.35.388 2.868.812c1.016.285 2.028.614 3.051.988 1.013.37 1.99.821 2.914 1.35.917.523 1.743 1.161 2.466 1.913a8.2 8.2 0 0 1 1.704 2.663q.63 1.553.642 3.623c-.007 1.415-.24 2.699-.684 3.863a10.6 10.6 0 0 1-1.87 3.105 13 13 0 0 1-2.752 2.377 17 17 0 0 1-3.344 1.665 20.6 20.6 0 0 1-3.637.988 21.7 21.7 0 0 1-3.644.321c-.787 0-1.648-.095-2.58-.275a23 23 0 0 1-2.885-.783 26 26 0 0 1-2.935-1.214 22 22 0 0 1-2.723-1.562 15.7 15.7 0 0 1-2.276-1.835 8.7 8.7 0 0 1-1.563-2.039M79.671 103.494h18.8q1.796.01 3.538.582 1.746.573 3.295 1.606c1.027.691 1.944 1.499 2.734 2.43a11.4 11.4 0 0 1 1.873 3.059 9.3 9.3 0 0 1 .692 3.482 13.5 13.5 0 0 1-.536 3.718 13.8 13.8 0 0 1-1.531 3.39 12.6 12.6 0 0 1-2.378 2.77 10.8 10.8 0 0 1-3.094 1.873c-1.14.444-2.36.677-3.665.684H86.455v15.145h-6.784zm6.435 6.742v10.266h12.365c1.051 0 1.982-.194 2.783-.59a4.27 4.27 0 0 0 1.874-1.728c.451-.762.684-1.71.691-2.836-.007-.826-.17-1.556-.48-2.187a4.8 4.8 0 0 0-1.263-1.602 5.7 5.7 0 0 0-1.792-.988 6.5 6.5 0 0 0-2.046-.335zM121.92 103.494h27.792v6.742h-21.086v7.708h11.395v6.742h-11.395v10.809h21.784v6.738h-28.49zM162.232 103.494h27.792v6.742h-21.086v7.708h11.395v6.742h-11.395v10.809h21.784v6.738h-28.49zM202.54 103.494h12.404c1.968.007 3.8.258 5.472.741 1.679.494 3.203 1.182 4.572 2.075a17 17 0 0 1 3.633 3.164 18.6 18.6 0 0 1 2.646 4.004 20.5 20.5 0 0 1 1.616 4.607q.55 2.424.55 4.974a22.7 22.7 0 0 1-.536 4.908 21.2 21.2 0 0 1-1.577 4.526 18.8 18.8 0 0 1-2.54 3.92 16.9 16.9 0 0 1-3.443 3.079 16 16 0 0 1-4.29 2.018q-2.345.72-5.055.723H202.54zm6.668 32h7.09a9.2 9.2 0 0 0 3.595-.722 10 10 0 0 0 2.946-1.951 12.3 12.3 0 0 0 2.209-2.822 14.3 14.3 0 0 0 1.39-3.37q.481-1.781.483-3.57c0-1.319-.177-2.603-.512-3.848a14.2 14.2 0 0 0-1.47-3.493 12.1 12.1 0 0 0-2.322-2.854 10.4 10.4 0 0 0-3.066-1.926c-1.146-.459-2.377-.695-3.714-.702h-6.63z" style="fill:#000;fill-opacity:1;fill-rule:nonzero;stroke:none"/>
  <path d="m142.91 320.044 28.254-43.64h5.761l-28.303 43.64z" style="fill:#000;fill-opacity:1;fill-rule:evenodd;stroke:none"/>
  <path d="M65.433 311.295v-32.287l6.664-2.578v16.873l6.625-8.156h8.41l-7.118 8.713 7.119 17.435H80.26l-4.815-11.889-3.348 4.322v7.567zM97.769 311.295v-26.148h6.593v1.464a8 8 0 0 1 1.394-.663 17 17 0 0 1 1.721-.547 19 19 0 0 1 1.747-.367 10 10 0 0 1 1.453-.134q1.482-.005 2.738.31c.836.216 1.605.55 2.303 1.016a7.8 7.8 0 0 1 1.898 1.849c.392-.466.85-.879 1.372-1.228a9.7 9.7 0 0 1 1.694-.9c.6-.25 1.21-.447 1.82-.603a16 16 0 0 1 1.775-.338q.85-.106 1.538-.106a7.7 7.7 0 0 1 2.744.529 10 10 0 0 1 2.494 1.408c.77.6 1.45 1.273 2.029 2.028a9.5 9.5 0 0 1 1.372 2.37q.491 1.24.501 2.452v17.608h-6.766v-16.002q-.01-1.161-.575-2.054c-.374-.6-.896-1.061-1.56-1.407-.663-.335-1.432-.508-2.296-.515q-1.08.009-1.902.384a3.8 3.8 0 0 0-1.365 1.023 4.5 4.5 0 0 0-.822 1.457 5.4 5.4 0 0 0-.271 1.704v15.41h-6.072v-15.41c0-.582-.102-1.157-.314-1.721a5.1 5.1 0 0 0-.91-1.535 4.4 4.4 0 0 0-1.44-1.097q-.84-.418-1.904-.423a4.24 4.24 0 0 0-1.849.405c-.54.268-1.005.61-1.383 1.027a4.7 4.7 0 0 0-.86 1.362 3.5 3.5 0 0 0-.304 1.39v16.002zM183.949 311.295V279.15l6.593-2.72v10.668a7.5 7.5 0 0 1 1.651-1.228 7.4 7.4 0 0 1 1.662-.656 9.6 9.6 0 0 1 1.612-.265 20 20 0 0 1 1.492-.05c.794 0 1.602.152 2.431.445.833.29 1.63.713 2.402 1.267.773.55 1.464 1.224 2.082 2.01a9.5 9.5 0 0 1 1.464 2.668q.542 1.482.554 3.235v16.77h-6.664v-14.573a5.8 5.8 0 0 0-.321-1.89 5.8 5.8 0 0 0-.847-1.574 4.5 4.5 0 0 0-1.185-1.104 2.87 2.87 0 0 0-1.344-.452q-1.455 0-2.424.279c-.653.19-1.157.494-1.535.9q-.563.616-.797 1.598c-.159.656-.24 1.453-.233 2.381v14.436zM80.543 205.497c1.009-.35 2.13-.699 3.411-1.034a63 63 0 0 1 3.94-.928 59 59 0 0 1 3.994-.66c1.302-.155 2.48-.247 3.538-.247 2.392 0 4.805.195 7.26.583a41.4 41.4 0 0 1 7.148 1.834c2.31.815 4.47 1.873 6.484 3.136a24.1 24.1 0 0 1 5.31 4.562c1.523 1.753 2.712 3.767 3.58 6.043q1.282 3.408 1.305 7.63c-.014 2.801-.451 5.334-1.333 7.592q-1.296 3.391-3.602 6.004a24 24 0 0 1-5.352 4.523 32.4 32.4 0 0 1-6.498 3.122 41 41 0 0 1-7.13 1.81q-3.644.582-7.172.582c-3.28 0-6.445-.378-9.468-1.111-3.038-.748-5.828-1.849-8.4-3.32a26 26 0 0 1-6.73-5.514c-1.927-2.194-3.412-4.752-4.47-7.67-1.073-2.92-1.616-6.187-1.63-9.814q.021-9.567 2.402-17.59c1.591-5.344 3.852-10.11 6.812-14.308 2.956-4.194 6.484-7.747 10.619-10.664 4.12-2.918 8.72-5.14 13.811-6.664s10.57-2.286 16.436-2.297v13.79a26 26 0 0 0-3.489-.233 30 30 0 0 0-7.648 1.045 35 35 0 0 0-7.366 2.92 37.5 37.5 0 0 0-6.615 4.481 35 35 0 0 0-5.415 5.733 28.9 28.9 0 0 0-3.732 6.664m15.582 30.836c2.286.014 4.43-.117 6.445-.399 2.018-.271 3.785-.762 5.338-1.485q2.321-1.067 3.654-3.023c.893-1.306 1.345-2.97 1.383-5.01-.01-2-.465-3.669-1.354-4.97-.879-1.32-2.106-2.34-3.659-3.087-1.548-.748-3.333-1.267-5.348-1.577-2.028-.31-4.173-.452-6.46-.438-2.352-.014-4.536.156-6.536.505-2.004.346-3.747.903-5.246 1.676-1.5.79-2.663 1.824-3.503 3.115-.84 1.29-1.266 2.878-1.305 4.776q.02 2.729 1.28 4.622c.826 1.266 2.004 2.286 3.5 3.062q2.252 1.179 5.26 1.704c2.014.363 4.198.529 6.55.529M174.494 236.488c2.622-.014 4.936-.466 6.964-1.369a15.2 15.2 0 0 0 5.246-3.796c1.471-1.626 2.674-3.563 3.616-5.785.946-2.209 1.644-4.65 2.106-7.31.455-2.646.674-5.45.674-8.392 0-2.957-.233-5.761-.713-8.421-.462-2.66-1.189-5.101-2.155-7.32-.956-2.223-2.184-4.145-3.658-5.775a15.6 15.6 0 0 0-5.232-3.782c-2.004-.892-4.29-1.344-6.848-1.355-2.557.01-4.833.463-6.847 1.355a15.4 15.4 0 0 0-5.221 3.782c-1.485 1.63-2.699 3.552-3.669 5.775-.967 2.219-1.69 4.66-2.155 7.32-.48 2.66-.713 5.464-.713 8.42 0 2.943.219 5.747.674 8.393.465 2.66 1.16 5.101 2.106 7.31.942 2.222 2.145 4.16 3.616 5.785a15.2 15.2 0 0 0 5.246 3.796c2.028.903 4.342 1.355 6.963 1.37m0 13.557c-4.508-.01-8.501-.709-12.001-2.053-3.489-1.354-6.502-3.252-9.045-5.718q-3.798-3.682-6.24-8.717c-1.641-3.345-2.844-7.024-3.631-11.028-.787-4.015-1.175-8.238-1.175-12.693 0-4.456.399-8.679 1.228-12.693.811-4.018 2.053-7.712 3.732-11.056 1.665-3.359 3.772-6.276 6.333-8.742 2.543-2.466 5.552-4.378 9.003-5.733 3.464-1.358 7.39-2.042 11.796-2.067 4.407.024 8.333.71 11.797 2.067 3.461 1.355 6.46 3.267 9.017 5.733 2.547 2.466 4.653 5.383 6.319 8.742 1.679 3.344 2.92 7.038 3.732 11.056.829 4.014 1.228 8.237 1.228 12.693s-.388 8.678-1.175 12.693c-.776 4.004-1.99 7.683-3.616 11.028-1.644 3.358-3.722 6.261-6.255 8.717-2.533 2.466-5.556 4.364-9.045 5.718-3.486 1.344-7.493 2.043-12.002 2.053" style="fill:#000;fill-opacity:1;fill-rule:nonzero;stroke:none"/>
</svg>
