<svg xmlns="http://www.w3.org/2000/svg" xml:space="preserve" viewBox="-.451 -.943 122.62 81.761" role="img" aria-labelledby="title">
  <title id="title">Verkehrszeichen W8-Q01 - Cane Railway (A railway is used by sugar cane trains) (This warning sign is only used with Railway Level Crossing ahead) (used in QLD)</title>
  <path d="M7.754-.943h106.21c4.514 0 8.205 3.684 8.205 8.205v65.359c0 4.514-3.691 8.197-8.205 8.197H7.754c-4.521 0-8.205-3.683-8.205-8.197V7.262c0-4.521 3.684-8.205 8.205-8.205" style="fill:#fee011;fill-opacity:1;fill-rule:evenodd;stroke:none"/>
  <path d="M7.754.722h106.21a6.597 6.597 0 0 1 6.59 6.59v65.309a6.597 6.597 0 0 1-6.59 6.59H7.754c-3.634 0-6.597-2.956-6.597-6.59V7.312c0-3.634 2.963-6.59 6.597-6.59" style="fill:#000;fill-opacity:1;fill-rule:evenodd;stroke:none"/>
  <path d="M7.703 3.988h106.311a3.26 3.26 0 0 1 3.274 3.274v65.409a3.255 3.255 0 0 1-3.274 3.266H7.703a3.256 3.256 0 0 1-3.274-3.266V7.262a3.263 3.263 0 0 1 3.274-3.274" style="fill:#fee011;fill-opacity:1;fill-rule:evenodd;stroke:none"/>
  <path d="M41.602 29.53h2.906c0 3.01-2.18 5.294-5.19 5.294-5.71 0-6.021-6.487-6.021-10.536 0-3.477.363-9.914 5.917-9.914 3.166 0 5.086 2.024 5.086 5.087h-2.906c.104-1.609-1.09-2.388-2.284-2.388-2.958.104-2.906 5.295-2.906 7.215 0 2.284-.052 7.838 3.165 7.838 1.246 0 2.233-1.402 2.233-2.595M51.775 26.364h2.907l-1.557-5.553zm-4.931 8.46 4.931-20.45h2.907l4.93 20.45h-2.854l-1.349-5.605h-4.101l-1.401 5.605zM62.779 14.374h2.855l5.501 11.834V14.374h2.855v20.45H71.76l-6.125-13.338v13.338h-2.855zM78.194 14.374h9.863v3.063h-6.904v5.035h4.1v2.699h-4.1v6.747h7.266v2.906H78.194zM22.138 55.643l3.062 9.863h-3.115l-2.75-9.499h-2.44v9.499H13.99V45.054h6.54c2.595 0 4.671 3.115 4.671 5.658 0 1.972-1.142 4.256-3.062 4.931m-1.609-2.44c1.349 0 1.609-1.505 1.609-2.595 0-1.245-.053-2.491-1.609-2.491h-3.634v5.086zM32.363 57.045h2.906l-1.556-5.554zm-4.931 8.46 4.93-20.45h2.907l4.931 20.45h-2.855L35.997 59.9h-4.102l-1.401 5.605z" style="fill:#000;fill-opacity:1;fill-rule:evenodd;stroke:none"/>
  <path d="M43.367 65.506h3.166v-20.45h-3.166z" style="fill:#000;fill-opacity:1;fill-rule:nonzero;stroke:none"/>
  <path d="M50.478 45.054h2.751v17.752h7.474v2.699H50.478zM62.623 45.054h2.855l1.609 10.64 2.023-10.64h2.337l2.023 10.797 1.507-10.797h2.958l-3.115 20.45h-2.543l-1.972-10.483-1.868 10.484h-2.648zM85.047 57.045h2.906l-1.556-5.554zm-4.932 8.46 4.932-20.45h2.906l4.931 20.45h-2.855L88.68 59.9H84.58l-1.401 5.605zM94.96 45.054h3.167l3.217 7.267 3.166-7.267h3.219l-4.879 11.16v9.29h-2.855v-9.29z" style="fill:#000;fill-opacity:1;fill-rule:evenodd;stroke:none"/>
</svg>
