<svg xmlns="http://www.w3.org/2000/svg" viewBox="0 0 323.43 323.427" role="img" aria-labelledby="title">
  <title id="title">Verkehrszeichen W1-4-L - Double curve first to left</title>
  <path d="m315 545-80-170 80-170 80 170z" style="fill:none;stroke:#fff;stroke-width:40" transform="translate(18871.729 12789.263)"/>
  <path d="m4.683 172.997 145.75 145.736a15.905 15.905 0 0 0 22.564 0l145.75-145.736c6.244-6.244 6.244-16.323 0-22.578L172.997 4.683a15.93 15.93 0 0 0-22.564 0L4.683 150.42c-6.244 6.255-6.244 16.334 0 22.578" style="fill:#fee011;fill-opacity:1;fill-rule:evenodd;stroke:none"/>
  <path d="m6.701 170.38 146.255 146.24c4.83 4.843 12.597 4.843 17.526 0l146.25-146.24c4.83-4.844 4.83-12.697 0-17.54L170.483 6.598c-4.929-4.844-12.697-4.844-17.526 0L6.7 152.839c-4.83 4.844-4.83 12.697 0 17.54" style="fill:#000;fill-opacity:1;fill-rule:evenodd;stroke:none"/>
  <path d="M10.941 165.846 157.49 312.394c2.406 2.409 6.046 2.409 8.456 0l146.547-146.548c2.42-2.42 2.42-6.047 0-8.47L165.945 10.829c-2.41-2.42-6.05-2.42-8.456 0L10.94 157.376c-2.42 2.423-2.42 6.05 0 8.47" style="fill:#fee011;fill-opacity:1;fill-rule:evenodd;stroke:none"/>
  <path d="m199.766 172.603-47.075-42.948c-2.815-2.716-4.734-6.65-4.734-10.777l22.175 6.957c3.024 0 6.354-3.122 6.354-6.65 0-1.118-.811-2.826-1.415-3.33l-44.848-66.213-44.25 65.61c-.603.797-1.414 2.518-1.414 3.933 0 3.528 2.73 6.65 6.357 6.65l22.465-6.957c0 13.607 5.754 26.303 14.923 35.976l54.525 48.18c2.826 3.026 4.745 7.154 4.745 11.592v29.633l34.868.296v-29.93c0-17.44-8.876-32.854-22.676-42.022" style="fill:#000;fill-opacity:1;fill-rule:evenodd;stroke:none"/>
</svg>
