<svg xmlns="http://www.w3.org/2000/svg" viewBox="0 0 121.981 121.986" role="img" aria-labelledby="title">
  <title id="title">Verkehrszeichen W7-13-R - Railway Level Crossing on Crossroad (right)</title>
  <path d="m-7305.297-4045.727-54.982 54.982a6.005 6.005 0 0 1-8.512 0l-54.981-54.982c-2.317-2.358-2.317-6.158 0-8.512l54.98-54.981c2.36-2.323 6.16-2.323 8.513 0l54.982 54.98a6.005 6.005 0 0 1 0 8.513" style="fill:#fee011;fill-opacity:1;fill-rule:evenodd;stroke:none" transform="translate(7425.51 4110.962)"/>
  <path d="m-7306.057-4046.714-55.172 55.171a4.63 4.63 0 0 1-6.575 0l-55.208-55.171c-1.827-1.826-1.827-4.75 0-6.613l55.208-55.176a4.64 4.64 0 0 1 6.575 0l55.172 55.176c1.826 1.863 1.826 4.787 0 6.613" style="fill:#000;fill-opacity:1;fill-rule:evenodd;stroke:none" transform="translate(7425.51 4110.962)"/>
  <path d="m-7307.651-4048.424-55.288 55.287c-.912.908-2.28.908-3.192 0l-55.288-55.287c-.87-.913-.87-2.28 0-3.156l55.288-55.324a2.267 2.267 0 0 1 3.192 0l55.288 55.324c.912.876.912 2.243 0 3.156" style="fill:#fee011;fill-opacity:1;fill-rule:evenodd;stroke:none" transform="translate(7425.51 4110.962)"/>
  <path d="M-7354.807-4029.397v3.193h4.106v4.56h2.28v-4.56h5.282v4.517h2.053v-4.517h4.217v-3.193h-4.217v-4.259h4.217v-3.267h-4.217v-4.333h4.217v-3.187h-4.217v-4.259h4.217v-3.192h-4.217v-4.254h4.217v-3.268h-4.217v-4.18h4.217v-3.118h-4.217v-4.407h4.217v-3.267h-4.217v-3.836h-2.053v3.836h-5.282v-3.799h-2.28v3.799h-4.106v3.267h4.106v4.407h-4.106v3.118h4.106v4.18h-4.106v3.268h4.106v4.254h-4.106v3.192h4.106v4.259h-4.106v3.187h4.106v4.333h-4.106v3.267h4.106v4.259zm6.386 0h5.283v-4.259h-5.283zm0-7.526h5.283v-4.333h-5.283zm0-7.52h5.283v-4.26h-5.283zm0-7.451h5.283v-4.254h-5.283zm0-7.522h5.283v-4.18h-5.283zm0-7.298h5.283v-4.407h-5.283zM-7372.017-4057.404h14.972v14.972h-14.972v22.419h-14.973v-22.419h-22.419v-14.973h22.419v-22.456h14.973zm52.357 0h-14.892v14.972h14.892z" style="fill:#000;fill-opacity:1;fill-rule:evenodd;stroke:none" transform="translate(7425.51 4110.962)"/>
</svg>
