<svg xmlns="http://www.w3.org/2000/svg" xml:space="preserve" viewBox="-1 0 121.977 121.958" role="img" aria-labelledby="title">
  <title id="title">Verkehrszeichen W5-13 - Steep ascent</title>
  <path d="m89.25 160.661 32.664-32.679h46.188l32.699 32.679v46.224l-32.699 32.667h-46.188L89.25 206.885z" style="fill:none;stroke:none" transform="translate(-23.104 289.719)scale(1.17193)"/>
  <path d="m.745 65.216 55.025 55.025c2.288 2.289 6.105 2.289 8.432 0l55.029-55.025c2.327-2.326 2.327-6.142 0-8.475L64.202 1.718c-2.327-2.29-6.144-2.29-8.432 0L.745 56.74c-2.327 2.333-2.327 6.149 0 8.475" style="fill:#fee011;fill-opacity:1;fill-rule:evenodd;stroke:none"/>
  <path d="M56.57 119.286c1.987 1.606 4.35 1.988 6.412.345l.419-.307 54.951-54.988c1.908-2.252 1.908-4.58 0-6.832L63.401 2.516c-1.828-1.489-3.926-1.945-6.025-.609l-.383.308-.423.301L1.62 57.504c-1.91 2.252-1.91 4.542 0 6.795z" style="fill:#000;fill-opacity:1;fill-rule:evenodd;stroke:none"/>
  <path d="M60.618 118.333c.42-.112.61-.266.992-.536l54.95-54.95c1.065-1.336 1.065-2.327 0-3.663L61.61 4.234c-1.072-.8-2.18-.763-3.207.037L3.416 59.221c-1.034 1.299-1.034 2.29 0 3.589l54.987 54.95c.727.61 1.3.689 2.215.573" style="fill:#fee011;fill-opacity:1;fill-rule:evenodd;stroke:none"/>
  <path d="M96.68 78.874V45.526L23.45 78.874zM53.789 51.325l-1.87-4.654 4.923-2.062 5.115 3.207zm-1.26.571-1.793-4.616-4.542 1.793c-1.563.953-1.908 1.642-1.79 2.707l.418 3.478zm-12.17 14.767c-.955-3.127-1.187-7.59 1.484-10.262-.647-2.712 1.261-6.486 2.253-7.52.99-.991.762-.991 1.68-1.336l9.847-4.271c1.145-.345 2.099-.116 2.899.345l5.262 3.471 7.442-3.435c1.187-.344 2.56.229 3.132 1.68l2.173 4.845-.535.726-.684.228c-2.443-5.343-10.875-2.136-8.433 3.741l-14.16 6.409c-2.82-5.761-10.378-1.528-8.433 3.661zM74.011 55.33c1.336-1.526 1.183-3.89-.344-5.268-1.563-1.335-3.927-1.182-5.262.345-1.379 1.563-1.225 3.932.339 5.268 1.526 1.373 3.895 1.219 5.267-.345M51.307 65.406c1.336-1.563 1.145-3.97-.344-5.267a3.76 3.76 0 0 0-5.342.307c-1.336 1.527-1.183 3.927.381 5.305 1.526 1.335 3.933 1.182 5.305-.345" style="fill:#000;fill-opacity:1;fill-rule:evenodd;stroke:none"/>
</svg>
