<svg xmlns="http://www.w3.org/2000/svg" viewBox="0 0 359.658 359.456" role="img" aria-labelledby="title">
  <title id="title">Verkehrszeichen W6-V104 - Slippery for Cyclists (used in VIC)</title>
  <g style="display:inline">
    <path d="m290.85-1148.488 162.125 162.033.899.988.898.988.72 1.168.627 1.078.63 1.257.45 1.258.36 1.257.359 1.258.18 1.347.09 1.257v1.348l-.18 1.347-.18 1.257-.27 1.348-.449 1.257-.45 1.258-.628 1.167-.628 1.168-.72 1.078-.9.988-.808.898L290.85-799.451l-.988.897-.989.808-1.168.809-1.079.628-1.258.54-1.258.538-1.258.36-1.258.269-1.348.27-1.258.09h-1.348l-1.349-.18-1.258-.18-1.348-.268-1.258-.452-1.258-.448-1.168-.628-1.169-.629-1.078-.808-.989-.81-.898-.806-162.125-162.034-.899-.988-.809-1.078-.81-1.078-.627-1.167-.54-1.168-.539-1.258-.36-1.257-.269-1.257-.27-1.348-.09-1.347v-1.258l.18-1.347.18-1.347.268-1.258.45-1.257.45-1.257.63-1.168.628-1.168.81-1.078.808-.988.809-.898 162.125-162.033.988-.898 1.079-.898 1.078-.719 1.168-.628 1.169-.63 1.258-.448 1.258-.36 1.258-.359 1.348-.18 1.348-.09h1.258l1.348.18 1.348.18 1.259.27 1.257.448 1.259.45 1.167.628 1.17.629 1.078.808.989.809z" style="fill:#fee011;fill-opacity:1;fill-rule:evenodd;stroke:none" transform="translate(-98.53 1153.697)"/>
    <path d="m344.323-895.558-15.817-7.456-.54-1.706.54-.718 34.959-9.61.988-1.438-1.437-.898-115.573-17.336-.988-1.436.45-.898 7.728-4.581.45-.27h.449l115.662 16.617 4.313 1.885 2.876 4.043.45 4.85-2.337 4.31-2.876 2.157zM218.595-946.935l-10.515 6.018h-.449l-30.735-6.197-5.303-2.425-3.325-4.581-.988-5.21 1.887-5.299 3.864-3.862 1.438-.719 19.232-7.634 20.58-4.85 20.67-2.336 20.58.18 21.12 2.874 1.438.27 6.74 2.874v1.437l-.45.27-23.994-1.707-23.546 1.167-23.456 3.863-23.097 6.197-2.336.988-3.415 2.156-1.438 3.593 1.438 3.592 3.415 1.976 15.817 4.312 14.378 1.616.45 1.258z" style="fill:#000;fill-opacity:1;fill-rule:evenodd;stroke:none" transform="translate(-98.53 1153.697)"/>
    <path d="m211.945-894.659-16.806-6.917v-.987l42.687-8.175 1.889-1.438-.45-2.603-.539-.45-16.266-10.598-3.865-4.042-1.438-5.029 1.438-5.3 3.865-3.862 2.426-1.168 58.505-20.568h1.438l8.628 2.155.988 1.437-.54.898-64.256 23.802-1.887 2.155.45 2.605.988.718 16.805 11.05 3.326 3.771 1.438 5.03-1.438 5.031-3.865 3.682-2.876 1.166z" style="fill:#000;fill-opacity:1;fill-rule:evenodd;stroke:none" transform="translate(-98.53 1153.697)"/>
    <path d="m111.201-979 162.215-162.033.629-.539.629-.539.719-.359.809-.27.808-.269.81-.09h.898l.809.09.807.18.81.27.72.359.718.539.63.539.18.09L445.515-979l.539.63.54.718.359.718.27.809.269.808.09.808v.898l-.09.809-.18.808-.27.809-.449.718-.448.719-.54.628-.09.18L283.39-806.907l-.63.539-.718.448-.719.451-.809.267-.809.181-.808.181h-.9l-.808-.091-.81-.18-.808-.358-.718-.36-.72-.45-.629-.537-.09-.091L111.202-968.94l-.54-.719-.448-.628-.45-.719-.27-.808-.27-.809-.09-.808v-.898l.09-.808.18-.809.27-.808.45-.719.449-.718.54-.629zm157.182-167.063L106.258-983.94l-.809.898-.808.899-.63.988-.539 1.077-.45 1.078-.358 1.078-.27 1.168-.18 1.167-.09 1.258v1.167l.09 1.168.18 1.168.358 1.167.45 1.078.45 1.078.628.988.63.988.72.988.628.539 162.125 162.032.899.81.898.718.989.718 1.078.54 1.079.447 1.168.36 1.078.271 1.169.177 1.258.092h1.168l1.167-.092 1.17-.266 1.168-.271 1.079-.45 1.078-.45 1.078-.628.9-.63.988-.805.539-.541L450.548-964l.718-.898.72-.898.72-.988.539-1.078.448-1.078.36-1.168.27-1.078.27-1.167.09-1.258-.09-1.167-.09-1.168-.18-1.168-.36-1.167-.359-1.078-.54-1.078-.628-1.078-.63-.898-.718-.988-.54-.539-162.214-162.123-.899-.718-.898-.808-.989-.63-1.078-.538-1.079-.45-1.078-.358-1.169-.36-1.168-.18-1.168-.09-1.258.09-1.17.09-1.167.18-1.078.36-1.169.359-1.078.539-.989.539-.988.718-.899.719z" style="fill:#000;fill-opacity:1;fill-rule:evenodd;stroke:none" transform="translate(-98.53 1153.697)"/>
    <path d="m310.262-1005.766-4.673 7.006-1.708 8.353 1.169 8.174 4.583 6.916 6.38 4.94 7.55 2.066 8.178-1.168 6.92-4.042 5.212-6.736 2.966-8.084-.63-8.173-3.414-7.455-6.47-5.57-7.55-2.604-1.707-.27 2.876 20.839-.54 3.772-2.875 2.335-4.134-.539-1.708-3.503-3.505-21.197zm4.044-29.011-31.903 13.652-.63-.27-1.707-1.526-2.337-32.694 36.038 13.383.54 7.185zm-50.417 13.473 3.955-3.144-1.708-26.856-8.537 8.263 3.325 8.892.539 10.15v1.707zm-10.514-3.863-11.054-4.4 8.807-7.725 2.247 8.084zm-40.083-17.155 6.382-5.479 8.178-2.605 8.627.54 7.728 3.592-16.984 15.898-1.708 1.706v4.042l2.337 2.156 21.928 7.994-5.752 6.646-7.549 3.863-8.627.808-8.178-1.976-6.382-5.3-4.672-7.185-1.71-8.712 1.71-8.443zm78.098-37.095-28.759-10.33-2.338 11.138 4.675 3.234-1.168 9.88-13.84 12.934-2.966-2.246-9.346-3.772-9.796-.27-9.347 2.605-8.717 5.569-6.38 7.814-3.416 9.52-1.168 10.15 2.247 9.611 5.212 8.713 7.639 6.377 9.257 3.502 9.885.27 9.257-2.605 8.717-5.838 6.92-8.443 2.966 1.168v.898l1.168 3.772 4.582 4.401 5.843 1.707 5.752-1.707 4.673-4.4 2.245-5.48 30.377-12.844.45 3.234-8.088 4.4-7.55 6.917-4.673 9.251-1.708 9.88 1.169 10.15 4.583 8.982 6.471 7.005 8.627 4.671 9.886 1.437 9.886-1.437 8.717-4.67 6.92-7.276 4.673-9.251 1.798-9.88-1.169-10.15-4.673-8.982-7.01-7.005-8.627-4.581-9.347-1.168-2.336-24.43.629-1.707 1.797-2.066 5.752-2.874 4.044-3.503 1.708-5.21-1.708-4.94-2.786-2.425-19.322-7.365-4.044 10.15 12.762 4.58-1.08 2.336-9.345 2.874-.54 2.605-34.42-13.653 1.169-2.425 13.48-3.862 1.168-2.066z" style="fill:#000;fill-opacity:1;fill-rule:evenodd;stroke:none" transform="translate(-98.53 1153.697)"/>
  </g>
</svg>
