<svg xmlns="http://www.w3.org/2000/svg" xml:space="preserve" viewBox="-.451 -.943 122.612 81.761" role="img" aria-labelledby="title">
  <title id="title">Verkehrszeichen W8-8__2 - When Frosty</title>
  <path d="M7.747-.943h106.21c4.52 0 8.204 3.684 8.204 8.205v65.359c0 4.514-3.683 8.197-8.205 8.197H7.746c-4.513 0-8.197-3.683-8.197-8.197V7.262c0-4.521 3.684-8.205 8.197-8.205" style="fill:#fee011;fill-opacity:1;fill-rule:evenodd;stroke:none"/>
  <path d="M7.747.722h106.21c3.633 0 6.597 2.956 6.597 6.59V72.62c0 3.635-2.964 6.59-6.598 6.59H7.746a6.597 6.597 0 0 1-6.59-6.59V7.312a6.597 6.597 0 0 1 6.59-6.59" style="fill:#000;fill-opacity:1;fill-rule:evenodd;stroke:none"/>
  <path d="M7.697 3.988h106.318a3.256 3.256 0 0 1 3.266 3.274v65.409a3.25 3.25 0 0 1-3.266 3.266H7.697a3.255 3.255 0 0 1-3.274-3.266V7.262a3.26 3.26 0 0 1 3.274-3.274" style="fill:#fee011;fill-opacity:1;fill-rule:evenodd;stroke:none"/>
  <path d="M25.865 14.372h3.167l1.557 10.694 2.908-10.694h2.907l2.595 10.694 1.558-10.694h3.218L40.92 34.826h-2.856l-3.217-12.823-3.22 12.823h-2.854zM47.358 14.372h3.166v8.099h7.373v-8.099h3.217v20.454h-3.217v-8.982h-7.373v8.982h-3.166zM65.787 14.372h11.732v3.27h-8.566v5.036h5.97v3.166h-5.97v5.814h9.292v3.168H65.787zM82.034 14.372h2.7l7.786 13.29v-13.29h3.27v20.454H93.04L85.2 21.588v13.238h-3.166zM12.369 45.052h12.459v3.166h-9.189v5.14h5.97v3.166h-5.97v8.982h-3.27zM31.317 48.218v5.035h4.412c1.454 0 2.491-1.401 2.491-2.699 0-1.246-1.245-2.336-2.595-2.336zm-3.115-3.166h7.63c2.96 0 5.503 2.699 5.503 5.761 0 2.544-1.35 3.946-3.062 5.036l3.686 9.655h-3.375l-3.322-8.98h-3.945v8.98h-3.115zM51.77 65.92c-4.256 0-7.216-3.114-7.216-10.642 0-7.422 2.7-10.641 7.216-10.641 4.673 0 7.164 4.672 7.164 10.641 0 5.088-1.35 10.643-7.164 10.643m0-3.27c2.595 0 3.842-2.128 3.842-7.372 0-4.827-1.247-7.319-3.842-7.319-2.647 0-3.997 2.024-3.997 7.32 0 5.035 1.454 7.372 3.997 7.372M61.582 60.626l3.115-1.039c1.14 2.336 2.283 3.011 4.67 3.011 1.3 0 2.857-1.401 2.857-2.802 0-2.129-1.142-3.168-5.14-3.583-.622-.052-1.972-.519-3.011-1.401-.83-.728-1.609-1.921-1.609-3.738 0-3.946 3.011-6.437 6.334-6.437 2.906 0 4.671 1.454 5.814 4.464l-3.063.935c-.52-1.662-1.817-2.025-3.115-2.129-1.557 0-2.855 1.557-2.855 2.907 0 .883.726 1.817 1.505 2.077 1.246.363 3.115.156 4.465.831 2.076.986 3.789 2.855 3.789 5.554 0 3.841-2.544 6.645-6.593 6.645-2.44 0-6.021-2.077-7.163-5.295M77.467 45.052h12.458v3.011h-4.672v17.443H82.19V48.063h-4.723zM92.054 45.052h3.79l4.879 7.942 4.88-7.942h3.737l-7.007 11.68v8.774h-3.115v-8.774z" style="fill:#000;fill-opacity:1;fill-rule:evenodd;stroke:none"/>
</svg>
