<svg xmlns="http://www.w3.org/2000/svg" viewBox="0 0 1021.33 1021.33" role="img" aria-labelledby="title">
  <title id="title">Verkehrszeichen W6-1 - Pedestrians</title>
  <g transform="translate(0 442.66)">
    <rect width="750" height="750" x="-61.992" y="34.181" rx="50" ry="50" style="fill:#beff00;fill-opacity:1;fill-rule:evenodd;stroke:none;stroke-width:7.87108;stroke-linecap:round;stroke-linejoin:round" transform="rotate(-45)"/>
    <rect width="730" height="730" x="-51.992" y="44.181" rx="40" ry="40" style="fill:#000;fill-opacity:1;fill-rule:evenodd;stroke:none;stroke-width:7.66118;stroke-linecap:round;stroke-linejoin:round" transform="rotate(-45)"/>
    <rect width="690" height="690" x="-31.992" y="64.181" rx="20" ry="20" style="fill:#beff00;fill-opacity:1;fill-rule:evenodd;stroke:none;stroke-width:7.24139;stroke-linecap:round;stroke-linejoin:round" transform="rotate(-45)"/>
    <path d="m578.301-14.14 7.204-17.06 6.068 42.273zM424.148-208.257c-14.061 8.53-29.262 16.112-45.6 21.989L314.517-70.063l45.98 89.666-9.69 31.468 2.47 112.604-60.611 118.668 30.402 20.662 78.663-126.062 18.238-55.732 20.33 44.926 9.691 135.732 41.23-.19 1.139-148.81-36.29-123.596 21.85-84.928 11.97 20.662L549.36-14.33l34.96 67.678-27.739 88.526 20.521 3.602-45.98 133.266 24.129 8.53 59.471-134.402 31.538-1.326 49.59 145.398 25.464-2.466-36.294-150.136 18.052-4.928L669.25 19.603l3.609-6.064 4.752 8.34 60.61 38.862 14.443-12.132-49.593-50.994-16.913-78.674-25.46-30.328c-14.058-.19-26.98-3.983-37.62-9.67l-10.826 8.53-32.682 18.2-21.85 49.668-52.063-24.268-22.99-96.866c-9.31-7.772-19.57-16.302-23.75-29.383-12.922-1.14-25.84-5.31-34.77-13.08M353.085-60.202l19.382-25.595-6.082 50.804z" style="fill:#000;fill-opacity:1;fill-rule:evenodd;stroke:none;stroke-width:3.52777"/>
    <circle cx="459.975" cy="-248.917" r="48.078" style="fill:#000;fill-rule:evenodd;stroke:none;stroke-width:.447106;stroke-linecap:round;stroke-linejoin:round"/>
    <circle cx="650.494" cy="-160.398" r="41.573" style="fill:#000;fill-rule:evenodd;stroke:none;stroke-width:.386612;stroke-linecap:round;stroke-linejoin:round"/>
  </g>
</svg>
