<svg xmlns="http://www.w3.org/2000/svg" viewBox="0 0 600.4 400.4" role="img" aria-labelledby="title">
  <title id="title">Verkehrszeichen W8-SA64 - Prunning Planned (used in SA)</title>
  <g transform="translate(-2571.284 2028.486)">
    <rect width="600" height="400" x="2571.484" y="-2028.286" rx="40" ry="40" style="fill:#fee011;fill-opacity:1;stroke:none;stroke-width:4;stroke-linejoin:miter;stroke-miterlimit:4;stroke-dasharray:32,4;stroke-dashoffset:0;stroke-opacity:1"/>
    <rect width="584" height="384" x="2579.484" y="-2020.286" rx="32" ry="32" style="fill:#000;fill-opacity:1;stroke:none;stroke-width:4;stroke-linejoin:miter;stroke-miterlimit:4;stroke-dasharray:32,4;stroke-dashoffset:0;stroke-opacity:1"/>
    <rect width="552" height="352" x="2595.484" y="-2004.286" rx="16" ry="16" style="fill:#fee011;fill-opacity:1;stroke:none;stroke-width:4;stroke-linejoin:miter;stroke-miterlimit:4;stroke-dasharray:32,4;stroke-dashoffset:0;stroke-opacity:1"/>
    <path d="m481.678 88-1.467.162-1.465.326-2.607.653-1.305.488-2.28 1.305-1.14.814-.978.814-.977.977-.979 1.14-.814 1.141-1.629 2.608-1.305 2.933-.324.977-.49 1.14-.977 3.422-.652 2.608-.326 1.465-.162 1.304-.164 1.467-.162 1.63-.164 1.466-.325 3.258-.164 1.793v1.629l-.162 1.793v7.332l.162 1.79v1.63l.489 4.888.164 1.467.326 1.467.162 1.465.326 1.466.979 3.91.488 1.141.326 1.305.488.814.653 1.63.65 1.466.814 1.467.817 1.303.814 1.14.977 1.14.978.977.977.815 2.281 1.63 1.14.651 1.304.49 1.304.489 1.303.326 1.305.162 2.931.326h1.955l1.63-.162 1.466-.326 1.629-.326 1.305-.489 1.467-.49 2.605-1.303 1.467-.978 2.281-1.955 1.955-2.282.652-1.302.489-.815.488-1.14.326-1.141.488-1.303.165-1.304.326-1.465.326-3.26v-18.9h-20.205v11.08h9.613v8.799l-.162 1.302-.49 1.303-.815 1.305-.976 1.14-.815.815-1.467.976-1.302.653-1.467.488-1.305.326-1.302.164-.979-.164-.814-.162-.977-.164-.814-.326-.815-.489-.652-.65-.815-.652-.652-.815-.488-.814-.653-.979-.976-2.28-.49-1.304-.327-1.304-.488-1.63-.162-1.466-.326-1.791-.162-1.793-.326-1.955v-1.955l-.165-2.117v-12.71l.165-2.119.326-3.91.162-1.793.652-3.257.65-2.934.49-1.303.977-2.281.653-.977.488-.814.652-.816.65-.65.817-.653.65-.488.815-.327.978-.326.815-.162h2.933l1.465.326 1.467.489 1.305.65.976.816.815.977.814 1.303.49 1.304.325 1.467v1.465H504v-1.465l-.162-1.467-.652-2.933-.489-1.303-1.304-2.607-.815-1.141-.814-1.303-1.955-1.955-2.282-1.955-1.302-.814-2.608-1.305-1.467-.488-1.466-.489-1.465-.326-2.934-.326h-2.607M96 89.467v77.066h11.08V133.46h13.85l1.465-.164 1.63-.326 1.303-.324 1.467-.49 2.605-1.303 1.305-.815 2.281-1.955 1.303-1.305 1.629-2.28.814-1.304.653-1.14.488-1.467.49-1.303.65-2.933.165-1.63.162-1.466v-3.422l-.326-3.258-.65-2.933-.491-1.465-.488-1.305-.489-1.303-.652-1.14-1.629-2.282-.652-.652-.977-1.14-1.14-.815-1.14-.976-1.306-.653-1.138-.652-2.934-.977-1.467-.326-1.466-.162-1.63-.164-1.466-.162zm62.488 0v77.066h10.916v-35.681h10.264l10.428 35.681h11.732l-11.242-37.474 1.303-.489 1.302-.652 1.141-.814 1.14-.977 1.956-2.281.978-1.305.489-.977.814-1.304.488-1.465.653-1.305.652-2.931.326-2.934v-2.77l-.326-2.933-.326-1.465-.488-1.305-.49-1.466-.651-1.303-.652-1.303-.815-1.305-.978-1.302-1.14-1.467-.978-1.14-1.302-.977-1.141-.979-1.14-.814-2.608-.979-1.467-.324-1.303-.164-.978-.162zm62.487 0v58.98l.164 1.467.162 1.305.164 1.465.976 2.607.653 1.303.814 1.304 1.955 2.282 1.14 1.14.98.815 1.138 1.14 1.305.977 1.303.814 1.466.653 1.303.652 1.305.488 1.467.489 1.464.326 1.467.164 1.467.162h2.443l1.467-.162 1.303-.326 1.467-.326 1.466-.489 1.303-.49 1.305-.814 1.467-.65 2.605-1.956 1.14-.816 1.141-1.303 1.141-1.14.979-1.141.814-1.303.814-1.305.653-1.302.488-1.303.652-2.608V89.467h-11.244v58.33l-.162 1.467-.326 1.465-.65 1.14-.817 1.305-.976.976-.489.327-1.14.814-1.305.652-1.465.489-1.467.326-1.63.162h-.163l-1.466-.162-1.467-.326-1.465-.489-1.305-.652-1.302-.977-1.141-.978-.979-1.303-.65-1.14-.488-1.467-.164-1.467V89.467zm68.027 0v77.066h10.754v-50.508l23.625 50.508h8.96V89.467h-11.568v44.642l-21.017-44.642zm67.865 0v77.066h11.242V89.467zm35.928 0v77.066h10.754v-50.508l23.625 50.508h8.963V89.467h-11.569v44.642l-21.02-44.642zM107.08 100.383h13.36l1.466.162 1.303.49 1.14.815 1.141 1.14.49.65.977 1.467.488 1.305.49 1.465.327 1.467.162 1.467-.162 1.793-.164 1.464-.327 1.467-.488 1.467-.488 1.14-.49.653-.815 1.303-1.14.978-1.303.65-1.303.327H107.08zm62.324.162h13.85l1.465.164 1.14.162 1.141.652.979.653.652.814.65 1.14.489 1.304.326 1.466.164 1.793.162 1.303-.162 1.629-.164 1.467-.489 1.467-.488 1.302-1.467 1.955-1.14.979-1.14.65-1.468.164-.814.162h-13.686zM88 232v80h11.355v-34.236h12.543l3.391-.34 1.525-.17 1.356-.508 1.525-.51 1.356-.507 1.355-.848 1.188-.848 1.355-.847 1.356-1.356 2.035-2.373.846-1.186.68-1.187.677-1.355.508-1.356.508-1.525.34-1.356.34-1.695.167-1.526.17-1.695v-3.39l-.508-5.084-.51-1.356-.337-1.525-.51-1.356-.678-1.357-.678-1.356-1.695-2.373-.508-.677-1.185-1.018-1.018-1.016-1.185-.847-1.358-.848-1.355-.678-1.356-.51-1.525-.507-1.525-.338-1.526-.17-1.695-.17H88m61.824 0v80h40.848v-10.508H161.52V232zm75.215 0-19.322 80h11.863l5.256-22.203h16.61L245.208 312h11.525l-20.34-80zm48.438 0v80h11.185v-52.543L309.07 312h9.153v-80h-11.866v46.271L284.662 232zm67.587 0v80h11.186v-52.543L376.488 312h9.32v-80h-11.863v46.271L352.25 232zm67.586 0v80h40.848v-11.186h-29.66v-26.44h17.457v-11.019h-17.457v-20h28.305V232zm58.604 0v80h20.34l1.695-.17 1.525-.17 1.696-.168 1.525-.51 1.356-.337 1.355-.51 2.713-1.356 1.186-.847 1.017-.848 1.186-.848 1.017-1.015 2.543-3.56.678-1.356.168-.17.51-1.016.338-1.017.51-1.186.337-1.018.34-1.355.338-1.188.678-2.71.34-1.526.34-3.05.337-1.696.34-3.39v-1.864l.168-1.865v-1.863l.17-2.036v-7.457l-.338-3.728-.51-5.086-.168-1.525-.68-3.051-.677-2.711-.508-1.356-.34-1.357-.508-1.186-.507-1.017-.51-1.186-.338-.677-.848-1.358-.847-1.185-1.018-1.186-2.033-2.035-1.186-.848-1.017-.847-1.356-.678-1.187-.678-1.526-.508-1.355-.51-3.05-.677-1.526-.338-1.696-.17h-21.017m11.357 11.018h6.78l1.695.168 1.525.17 1.526.34 1.355.507 2.373 1.356 2.033 2.035.848 1.185.848 1.356.508 1.187.677 2.033.17 1.188.34 1.355.17 1.356.338 1.525.17 1.526V262l.338 3.729v13.05l-.168 1.866v1.863l-.17 1.695-.34 3.05-.338 1.356-.17 1.188-.34 1.185-.508 1.526-.677 1.525-.678 1.358-.848 1.185-1.017 1.018-1.016.847-1.187.848-1.186.508-1.525.508-1.358.34-1.693.17h-8.475zm-379.256.168h13.899l1.355.17 1.358.51 1.185.845 1.188 1.187.508.848.847 1.356.678 1.525.508 1.355.34 1.526v3.39l-.17 1.696-.338 1.525-1.018 2.711-.507.678-.848 1.357-1.188 1.016-1.355.678-1.356.34H99.355zm131.446 14.068 5.594 21.525h-11.356z" style="fill:#000;fill-opacity:1;fill-rule:evenodd;stroke:none" transform="translate(2571.484 -2028.286)"/>
  </g>
</svg>
