<svg xmlns="http://www.w3.org/2000/svg" viewBox="0 0 600.4 400.4" role="img" aria-labelledby="title">
  <title id="title">Verkehrszeichen W8-SA55 - Mud on Road (used in SA)</title>
  <g transform="translate(-2571.484 2028.686)">
    <rect width="600" height="400" x="2571.684" y="-2028.486" rx="40" ry="40" style="fill:#fee011;fill-opacity:1;stroke:none;stroke-width:4;stroke-linejoin:miter;stroke-miterlimit:4;stroke-dasharray:32,4;stroke-dashoffset:0;stroke-opacity:1"/>
    <rect width="584" height="384" x="2579.684" y="-2020.486" rx="32" ry="32" style="fill:#000;fill-opacity:1;stroke:none;stroke-width:4;stroke-linejoin:miter;stroke-miterlimit:4;stroke-dasharray:32,4;stroke-dashoffset:0;stroke-opacity:1"/>
    <rect width="552" height="352" x="2595.684" y="-2004.486" rx="16" ry="16" style="fill:#fee011;fill-opacity:1;stroke:none;stroke-width:4;stroke-linejoin:miter;stroke-miterlimit:4;stroke-dasharray:32,4;stroke-dashoffset:0;stroke-opacity:1"/>
    <path d="M68 76v94.174h15.28v-54.645l22.091 54.645 21.59-54.645v54.645h14.783V76h-15.281l-21.26 54.477L82.45 76zm97.01 0v66.934l.166 1.828.166 1.66.5 1.828.996 3.32.664 1.496.83 1.66.83 1.495.998 1.496 2.324 2.988 1.329 1.496.5.498 1.494 1.162 1.328 1.328 4.484 2.99 1.662.83 3.32 1.33 1.663.499 1.66.332 3.654.664 1.826.166h1.662l1.827-.166h1.994l3.652-.664 1.662-.332 1.826-.498 1.662-.666 1.495-.664 1.66-.83 2.99-1.992 1.328-.999 1.33-1.162 2.656-2.656 1.165-1.33 1.992-2.988.83-1.496.83-1.66.666-1.495.664-1.662.498-1.66.664-3.654.332-3.655V76h-14.615v67.766l-.332 1.826-.666 1.494-.664 1.662-.996 1.494-1.162 1.328-1.497 1.33-1.494 1.163-1.66.83-1.496.83-1.826.664-1.66.334-1.828.332h-3.655l-1.826-.332-1.66-.5-1.662-.664-1.66-.83-1.496-.997-1.495-1.328-1.66-1.662-1.164-1.494-.996-1.494-.664-1.496-.498-1.66-.332-1.662-.166-1.827V76zm87.047 0v94.174h28.566l1.826-.166 1.662-.168 1.827-.332 1.662-.498 1.66-.498 1.494-.498 1.662-.664 4.484-2.493 1.495-.996 2.658-2.324 2.656-2.658 2.326-2.99.498-.664 1.992-2.989.832-1.662.997-1.494.664-1.662.83-1.66.664-1.494.666-1.662.498-1.827.498-1.662.498-1.826.332-1.66.332-1.828.166-1.826.332-1.828v-1.827l.166-1.992v-3.488l-.166-2.16v-1.992l-.166-1.995-.332-1.992-.166-1.994-.996-5.48-.498-1.66-.498-1.829-.5-1.66-.664-1.494-.664-1.662-1.329-2.988-1.662-2.99-.83-1.329-.996-1.33-.332-.498-2.326-2.988-1.328-1.33-3.986-3.488-1.495-.83-1.496-.997-1.494-.83-1.494-.664-1.662-.666-3.32-.996-1.829-.332-1.66-.332-1.828-.166-1.992-.166h-28.234m15.113 14.615h10.96l1.829.166 1.826.166 1.662.332 1.66.5 2.99 1.328 2.657 1.993 1.33 1.164 2.324 2.656 1.994 3.322.332.664 1.329 2.99.498 1.495.664 1.662.332 1.66.5 1.826.664 3.654.166 1.828.332 3.987v4.65l-.166 1.992-.166 1.66-.664 3.655-.5 1.662-.498 1.826-.664 1.66-.83 1.662-.665 1.66-.664 1.163-.998 1.662-2.324 2.99-1.162 1.328-1.33 1.162-1.494.996-1.328.832-1.496.83-1.66.498-1.495.499-1.828.332-1.66.166H267.17zM248.107 224l-1.468.164-1.47.326-1.47.162-1.469.328-1.306.489-1.305.328-1.306.488-1.307.654-3.428 1.96-1.142.816-.98.978-.98.817-.98.98-.816 1.143-.979.978-.816 1.145-.817 1.305-.654 1.306-.816 1.307-.653 1.306-.654 1.47-.488 1.468-.655 1.633-.978 3.265-.49 1.795-.326 1.797-.327 1.96-.328 1.796-.326 2.121-.162 1.96-.326 4.245-.164 2.285v9.633l.164 2.123v1.96l.326 2.12.326 3.92.326 1.795.326 1.96.49 1.632.327 1.797 1.47 4.896.653 1.471.49 1.469.652 1.306.817 1.47.652 1.306.817 1.142.816 1.307 1.47 1.959 1.143 1.307 1.305 1.304 1.307 1.143 2.613 1.96 2.937 1.634 1.633.652 1.633.49 1.633.489 3.592.654 1.797.162 1.959.164h.816l1.959-.164h1.795l3.592-.652 1.632-.327 1.633-.49 1.633-.652 2.94-1.307 1.468-.98 1.307-.817 1.305-1.142 2.287-2.285 1.142-1.307 2.94-4.408.488-.817.654-1.304.653-1.471.49-1.305.652-1.47.49-1.47.49-1.632.327-1.633.49-1.633.326-1.632.653-3.592.328-1.96.162-1.794.164-1.96.162-2.122.164-1.96v-9.958l-.652-7.838-1.307-7.184-.49-1.632-.49-1.795-.49-1.471-.653-1.63-.49-1.472-.653-1.632-.816-1.47-.652-1.306-.817-1.469-.654-.98-1.143-1.633-.978-1.469-1.307-1.468-1.142-1.307-1.307-1.307-1.307-.978-1.306-1.143-4.406-2.449-1.471-.49-1.633-.653-1.633-.328-1.633-.326-1.795-.162-1.632-.164h-4.573M140 225.797v92.406h14.041v-40.488h17.795l15.021 40.488h15.184l-16.652-43.592 3.263-2.285 1.471-1.306 1.305-1.143 1.306-1.305.98-1.306 1.143-1.47.817-1.306.816-1.47.817-1.47.488-1.468.49-1.633.654-3.265.163-1.633v-3.592l-.163-1.633-.328-1.795-.326-1.633-.49-1.796-.652-1.47-.817-1.632-.816-1.469-.979-1.633-.98-1.47-1.143-1.305-1.959-1.959-1.306-1.144-1.47-1.143-2.939-1.633-1.632-.816-1.633-.489-1.633-.49-1.633-.326-3.592-.326H140m191.563 0L300.38 318.04h15.51l8.326-25.959h29.55l8.981 25.959h15.02l-31.674-92.244zm62.396 0v92.406h27.592l1.797-.162 1.632-.164 1.795-.326 1.633-.49 1.469-.489 1.633-.49 1.47-.654 1.631-.817 1.471-.816 1.307-.815 1.468-.98 2.612-2.285 1.306-1.307 1.143-1.306 1.307-1.47 1.142-1.468.326-.654 1.143-1.469.816-1.469.98-1.47.817-1.633.817-1.469 1.959-4.898.49-1.633.488-1.795.49-1.633.655-3.592.162-1.797.326-1.795v-1.796l.164-1.795v-3.592l-.164-2.123v-1.96l-.162-1.958-.326-1.96-.164-1.796-.98-5.387-.49-1.797-.98-3.265-.652-1.631-.654-1.47-.653-1.634-.652-1.468-.816-1.307-.655-1.469-.978-1.306-.817-1.307-.326-.488-2.287-2.94-1.305-1.306-3.92-3.428-1.304-.817-1.47-.98-1.47-.816-1.632-.653-1.47-.652-1.632-.49-1.633-.49-1.797-.327-1.63-.326-3.592-.326h-27.43m-143.402 13.06h.654l1.469.163 1.142.164 1.307.164 1.142.326 1.143.49 1.143.652.98.653.979.816 1.796 1.797.653 1.143.816 1.142 1.307 2.613.652 1.47.49 1.632.49 1.795.327 1.797.49 1.795.326 2.123.326 4.244.165 2.45.162 2.286v8l-.162 2.285-.165 2.123-.326 3.918-.652 3.592-.328 1.633-.653 2.938-.978 2.613-.654 1.142-.162.653-.98 1.47-1.144 1.47-1.142 1.306-2.613 1.959-1.47.652-1.632.49-1.633.327-1.795.164h-2.123l-1.306-.164-1.305-.163-1.145-.49-1.142-.326-1.143-.654-.978-.653-1.145-.654-1.795-1.795-1.632-2.285-.653-1.143-.654-1.47-.652-1.305-.981-3.266-.978-3.591-.655-3.92-.162-2.121-.164-2.287-.162-2.448v-2.287l-.164-2.45.164-2.284v-2.285l.326-4.246.326-3.918.653-3.592.328-1.633 1.469-4.408.49-1.143.652-1.306.326-.489.98-1.633.98-1.306 1.306-1.143 1.307-.98 1.304-.817 1.633-.816 1.633-.488 1.633-.328zm-96.516 1.307h21.225l3.265.979 1.633.98 1.469.979v.164l1.306 1.306 1.143 1.469.652 1.633.327 1.633.164 1.304-.164 1.797-.327 1.633-.652 1.633-.816 1.633-1.143 1.468-.164.327-1.307 1.306-1.468.98-1.47.815-1.632.49-1.797.164h-20.244zm254.611 0h10.614l1.795.162 1.632.164 1.633.326 1.633.49 2.94 1.305 1.304.817 2.613 2.287 1.143 1.142.98 1.47 1.96 3.265.326.49 1.306 2.938.653 1.632.98 3.266.326 1.633.653 3.592.164 1.959.162 1.796.164 1.96v4.734l-.326 3.592-.327 1.796-.328 1.631-.488 1.797-.49 1.633-1.307 3.266-.816 1.632-.653 1.143-1.959 3.266-1.142 1.304-1.307 1.307-1.306 1.143-1.307.98-1.305.816-1.47.817-1.633.488-1.469.49-1.633.327-1.795.164h-11.92zm-69.904 9.959 9.63 27.592h-18.937zM417.387 76l-1.469.164-1.469.326-1.47.162-1.47.328-1.306.489-1.305.328-1.306.488-1.307.654L404 80.244l-1.143.654-1.142.817-.98.978-.98.817-.98.98-.816 1.143-.98.978-.817 1.145-.814 1.305-.655 1.306-.816 1.307-.652 1.306-.655 1.47-.488 1.468-.654 1.633-.979 3.265-.49 1.795-.326 1.797-.326 1.96-.328 1.796-.327 2.121-.162 1.96-.326 4.245-.164 2.285v9.633l.164 2.123v1.96l.326 2.12.326 3.92.327 1.795.326 1.96.49 1.632.326 1.797 1.47 4.896.653 1.471.49 1.469.653 1.306.816 1.47.653 1.306.816 1.142.816 1.307 1.471 1.959 1.143 1.307 1.304 1.304 1.307 1.145 2.613 1.959 2.938 1.633 1.633.652 3.265.979 3.592.654 1.797.162 1.959.164h.816l1.96-.164h1.794l3.592-.652 1.633-.327 1.633-.49 1.632-.652 2.94-1.307 1.469-.98 1.306-.817 1.307-1.142 2.285-2.285 1.143-1.307 2.939-4.408.488-.817.655-1.304.652-1.471.49-1.305.653-1.47.49-1.47.49-1.632.326-1.633.49-1.633.327-1.632.652-3.592.328-1.96.162-1.794.164-1.96.162-2.122.164-1.96v-9.958l-.652-7.838-1.307-7.184-.49-1.632-.49-1.795-.49-1.471-.653-1.633-.49-1.469-.652-1.632-.817-1.47-.652-1.306-.816-1.469-.655-.98-1.142-1.633-.979-1.469-1.306-1.468L440.082 84l-1.307-1.307-1.306-.978-1.305-1.143-4.408-2.449-1.47-.49-1.634-.653-3.265-.654-1.795-.162-1.633-.164h-4.572m56.572 1.797v92.408h14.367V110.45l35.266 59.756H536V77.797h-14.693v60.08l-35.266-60.08zm-54.123 13.06h.654l1.469.163 1.143.164 1.306.164 1.143.326 1.142.49 1.143.652.98.653.979.816 1.797 1.797.652 1.143.817 1.142 1.306 2.613.653 1.47.49 1.632.49 1.795.326 1.797.49 1.795.327 2.123.326 4.244.164 2.45.162 2.286v8l-.162 2.285-.164 2.123-.326 3.918-.653 3.592-.326 1.633-.654 2.938-.979 2.613-.654 1.142-.162.653-.98 1.47-1.143 1.47-1.143 1.306-2.613 1.959-1.469.652-1.633.49-1.632.327-1.795.164h-2.123l-1.307-.164-1.305-.163-1.144-.49-1.143-.326-1.142-.654-.98-.653-1.143-.654-1.795-1.795-1.633-2.285-.653-1.143-.654-1.47-.652-1.307-.98-3.264-.98-3.591-.653-3.92-.163-2.121-.164-2.287-.162-2.448v-2.287l-.164-2.45.164-2.284v-2.285l.326-4.246.327-3.918.652-3.592.326-1.633 1.47-4.408.491-1.143.652-1.306.327-.489.98-1.633.979-1.306 1.306-1.143 1.307-.98 1.305-.817 1.632-.816 1.633-.488 1.633-.328z" style="fill:#000;fill-opacity:1;fill-rule:evenodd;stroke:none" transform="translate(2571.684 -2028.486)"/>
  </g>
</svg>
