<svg xmlns="http://www.w3.org/2000/svg" viewBox="0 0 815.864 815.864" role="img" aria-labelledby="title">
  <title id="title">Verkehrszeichen W5-SA72 - Tilting truck from the left (used in SA)</title>
  <g transform="translate(-2916.57 2437.915)">
    <rect width="600" height="600" x="615.363" y="-4086.192" rx="40" ry="40" style="fill:#fee011;fill-opacity:1;stroke:none;stroke-width:8;stroke-linejoin:miter;stroke-miterlimit:4;stroke-dasharray:none;stroke-dashoffset:0;stroke-opacity:1" transform="rotate(45)"/>
    <rect width="584" height="584" x="623.362" y="-4078.192" rx="32" ry="32" style="fill:#000;fill-opacity:1;stroke:none;stroke-width:8;stroke-linejoin:miter;stroke-miterlimit:4;stroke-dasharray:none;stroke-dashoffset:0;stroke-opacity:1" transform="rotate(45)"/>
    <rect width="552" height="552" x="639.363" y="-4062.192" rx="16" ry="16" style="fill:#fee011;fill-opacity:1;stroke:none;stroke-width:8;stroke-linejoin:miter;stroke-miterlimit:4;stroke-dasharray:none;stroke-dashoffset:0;stroke-opacity:1" transform="rotate(45)"/>
    <path d="M3148.501-1872.933h352v21.35h-352z" style="fill:#000;fill-opacity:1;stroke:none;stroke-width:4;stroke-linejoin:miter;stroke-miterlimit:4;stroke-dasharray:32,4;stroke-dashoffset:0;stroke-opacity:1"/>
    <path d="M3363.416-1941.324a6.226 6.226 0 0 1 2.284 8.524l-32.76 56.741a6.226 6.226 0 0 1-8.524 2.284l-16.212-9.36a6.226 6.226 0 0 1-2.284-8.524 6.227 6.227 0 0 1-8.524 2.284l-16.212-9.36a6.226 6.226 0 0 1-2.284-8.524l11.005-19.06-75.517-43.6-11.005 19.06a6.227 6.227 0 0 1-8.524 2.284l-16.212-9.36a6.226 6.226 0 0 1-2.284-8.523 6.226 6.226 0 0 1-8.524 2.283l-16.212-9.36a6.226 6.226 0 0 1-2.284-8.523l32.76-56.742a6.227 6.227 0 0 1 8.524-2.284l16.212 9.36a6.226 6.226 0 0 1 2.284 8.524 6.226 6.226 0 0 1 8.523-2.284l16.212 9.36a6.226 6.226 0 0 1 2.284 8.524l-11.004 19.06 75.517 43.6 11.005-19.06a6.226 6.226 0 0 1 8.524-2.285l16.212 9.36a6.227 6.227 0 0 1 2.284 8.524 6.226 6.226 0 0 1 8.524-2.284z" style="fill:#000;fill-opacity:1;stroke:none;stroke-width:4;stroke-linejoin:miter;stroke-miterlimit:4;stroke-dasharray:32,4;stroke-dashoffset:0;stroke-opacity:1"/>
    <path d="M1736.381-3643.344h212v265h-212z" style="fill:#000;fill-opacity:1;stroke:none;stroke-width:4;stroke-linejoin:miter;stroke-miterlimit:4;stroke-dasharray:32,4;stroke-dashoffset:0;stroke-opacity:1" transform="rotate(30)"/>
  </g>
</svg>
