<svg xmlns="http://www.w3.org/2000/svg" viewBox="0 0 1021.33 1021.33" role="img" aria-labelledby="title">
  <title id="title">Verkehrszeichen W5-37 - Ambulance Station</title>
  <g transform="translate(0 442.66)">
    <rect width="750" height="750" x="-61.992" y="34.181" rx="50" ry="50" style="fill:#fddc04;fill-opacity:1;fill-rule:evenodd;stroke:none;stroke-width:5.67811;stroke-linecap:round;stroke-linejoin:round" transform="rotate(-45)"/>
    <rect width="730" height="730" x="-51.992" y="44.181" rx="40" ry="40" style="fill:#000;fill-rule:evenodd;stroke:none;stroke-width:5.52669;stroke-linecap:round;stroke-linejoin:round" transform="rotate(-45)"/>
    <rect width="690" height="690" x="-31.992" y="64.181" rx="20" ry="20" style="fill:#fddc04;fill-opacity:1;fill-rule:evenodd;stroke:none;stroke-width:5.22386;stroke-linecap:round;stroke-linejoin:round" transform="rotate(-45)"/>
    <path d="M265.5 68.005h-15.94l-6.806-32.06h-19.701l-6.806 32.06h-15.582l24.358-120h15.582zm-26.149-47.642-6.268-31.522-6.806 31.522zM338.062 68.005h-15.045V-3.099l-14.328 44.955L293.823-3.1v71.104h-15.045v-120h15.045l14.866 42.627 14.328-42.627h15.045zM412.772 35.23q0 32.775-23.105 32.775h-28.656v-120h21.85q15.762 0 21.672 6.985 6.09 6.986 6.09 25.075 0 15.582-5.91 24.358 4.656 5.732 5.551 10.567 2.508 6.985 2.508 20.24M395.04-19.936q0-8.955-2.329-12.716-2.15-3.762-7.701-3.762h-8.955v32.956h10.567q5.91 0 7.701-5.732.717-2.686.717-10.746m2.149 56.418q0-14.15-1.97-18.985-1.97-5.015-7.702-5.015h-11.462v39.94h11.82q5.373 0 7.344-3.403 1.97-3.403 1.97-12.537M480.318 38.633q0 11.641-3.761 18.806-6.806 12.716-21.85 12.716-17.911 0-24-16.478-2.15-5.73-2.15-15.044v-90.627h15.045v92.597q0 13.97 11.104 13.97 10.388 0 10.388-13.97v-92.597h15.224zM549.118 68.005h-45.85v-120h15.044v106.03h30.806zM618.28 68.005h-15.94l-6.806-32.06h-19.701l-6.806 32.06h-15.582l24.358-120h15.582zm-26.149-47.642-6.268-31.522-6.806 31.522zM683.32 68.005h-13.075L646.603-3.099v71.104h-15.045v-120h15.045l21.493 59.821v-59.82h15.223zM754.268 39.886q0 9.314-1.79 15.94-1.613 6.628-7.344 10.568-5.731 3.761-13.612 3.761-18.09 0-23.642-16.12-5.015-14.686-5.015-45.85 0-19.88 2.866-36.179 2.687-13.791 8.418-19.701t16.478-5.91q10.209 0 16.298 6.089 6.269 6.09 7.343 17.015h-15.582q-.716-7.523-7.701-7.523-10.567 0-12.18 29.015-.357 6.448-.357 17.194 0 22.03 2.507 34.209t9.672 12.179q8.06 0 8.06-14.687zM819.665 68.005h-45.85v-120h44.238v15.582H788.86v30.806h19.523v15.94h-19.523v42.09h30.806z" style="font-size:179.104px;line-height:1.25;font-family:&quot;Roadgeek 2000 Series B&quot;;-inkscape-font-specification:&quot;Roadgeek 2000 Series B&quot;;text-align:center;letter-spacing:-3.2px;text-anchor:middle;fill:#000;fill-rule:evenodd;stroke:none;stroke-width:.870184"/>
    <path d="M325.65 230.23q0 14.507-9.85 24.716-9.672 10.209-23.463 10.209-15.224 0-24.717-11.284-8.955-10.746-8.955-26.149h16.836q0 8.418 3.94 13.97 4.657 6.627 12.896 6.627 6.806 0 11.82-5.373 5.016-5.373 5.016-12.716 0-9.851-9.672-17.374 1.97 1.254-20.239-14.328-14.687-9.85-14.687-26.508 0-12.895 8.777-21.85 8.955-9.135 21.85-9.135 12.717 0 21.314 8.776 8.776 8.777 9.134 22.21h-16.477q-.359-6.09-4.299-9.851-3.761-3.94-9.672-3.94-5.91 0-10.209 3.94-4.119 3.94-4.119 9.85 0 4.478 2.328 7.523 2.508 3.045 9.135 6.806 17.373 10.209 25.254 20.597 8.06 10.388 8.06 23.284M396.41 159.124h-21.851v103.881h-17.373v-103.88h-21.851v-16.12h61.075zM478.992 263.005h-17.373l-8.418-32.776h-25.612l-8.06 32.776h-17.194l29.91-120h16.836zm-29.91-49.612-8.777-34.567-8.418 34.567zM545.99 159.124h-21.851v103.881h-17.373v-103.88h-21.851v-16.12h61.075zM578.066 263.005H561.23v-120h16.836zM671.571 202.826q0 25.792-6.806 41.732-8.776 20.597-28.298 20.597-19.881 0-28.478-20.597-6.806-16.12-6.806-41.732 0-26.507 6.806-41.731 8.955-20.06 28.478-20.06 10.567 0 17.194 4.836 6.627 4.657 11.104 15.761 6.806 16.299 6.806 41.194m-16.478 0q0-16.477-3.76-29.91-4.3-15.045-14.866-15.045-10.568 0-15.045 14.687-3.761 12.358-3.761 30.627 0 16.656 3.76 30.448 4.12 14.686 15.046 14.686 10.567 0 15.403-16.836 3.223-11.462 3.223-28.657M761.665 263.005H748.59l-37.075-80.418v80.418h-17.194v-120h17.194l32.776 72v-72h17.374z" style="font-size:179.105px;line-height:1.25;font-family:&quot;Roadgeek 2000 Series C&quot;;-inkscape-font-specification:&quot;Roadgeek 2000 Series C&quot;;text-align:center;letter-spacing:-1.24px;text-anchor:middle;fill:#000;fill-rule:evenodd;stroke:none;stroke-width:.870193"/>
  </g>
</svg>
