<svg xmlns="http://www.w3.org/2000/svg" viewBox="0 0 815.864 815.864" role="img" aria-labelledby="title">
  <title id="title">Verkehrszeichen W6-V106 - School Bus Stop Ahead (used in VIC)</title>
  <g transform="translate(585.209 4020.218)">
    <rect width="600" height="600" x="2128.918" y="2379.626" rx="40" ry="40" style="fill:#cdff00;fill-opacity:1;stroke:none;stroke-width:8;stroke-linejoin:miter;stroke-miterlimit:4;stroke-dasharray:none;stroke-dashoffset:0;stroke-opacity:1" transform="rotate(-45)scale(1 -1)"/>
    <rect width="584" height="584" x="2136.918" y="2387.626" rx="32" ry="32" style="fill:#000;fill-opacity:1;stroke:none;stroke-width:8;stroke-linejoin:miter;stroke-miterlimit:4;stroke-dasharray:none;stroke-dashoffset:0;stroke-opacity:1" transform="rotate(-45)scale(1 -1)"/>
    <rect width="552" height="552" x="2152.919" y="2403.626" rx="16" ry="16" style="fill:#cdff00;fill-opacity:1;stroke:none;stroke-width:8;stroke-linejoin:miter;stroke-miterlimit:4;stroke-dasharray:none;stroke-dashoffset:0;stroke-opacity:1" transform="rotate(-45)scale(1 -1)"/>
    <path d="M-118.774-3563.48h-5.08v1.258h-2.54v1.263h-1.267v3.785l1.267 1.262v1.259h1.272v1.263h1.271v1.263h1.272v-1.263h12.697l1.271 1.263 21.593 2.522 5.082-2.522 20.321-21.449-1.271 7.57-1.272 7.568-1.267 7.574-1.271 6.306-2.539 7.57-1.276 7.573-2.538 7.569-3.806 7.569 5.077 1.263 6.353 1.263h2.539l-6.349 7.565h-1.276l-1.267 1.263v1.263l-1.271 1.262v8.833l2.543 8.832v1.263h1.271v6.306l1.272 1.263v5.047l1.27 1.263v2.522l1.268 1.263v2.517l1.267 1.263v2.526l1.272 1.263v3.785l1.271 1.258v5.048l-1.271 1.263h-3.81v1.263h-1.272v1.263l-1.267 1.258-1.276 1.263h-1.267l-1.271 1.263h-6.349v1.263h-1.271v1.259l-1.267 1.263v1.258h1.267v2.526h10.163l1.267-1.263h1.271l2.539-1.263 2.543-1.258 3.81-1.263 2.538 1.263 1.272 3.784 8.891-2.526-1.267-3.784 1.267-1.259v-5.047l-1.271-1.263v-1.263l-1.272-1.259v-1.263h-2.543v-1.263l-1.267-1.263v-21.448l-1.271-1.26v-3.784l-1.272-1.263v-2.525l-1.271-1.26v-1.262l-1.267-1.263v-8.832h1.267v-1.263l1.271-1.259h1.272v-1.263l1.271-1.263h1.267v-1.259h1.272v-1.262l1.267-1.263 1.276-1.263 1.267-1.259v-1.263h1.271v-1.259h6.353v3.785h-1.271v2.522l-1.272 1.262v3.785h-1.271v1.259l1.271 1.263v2.526h1.272v1.258l1.271 1.263h1.267v1.263h1.272v1.263h1.267v1.259h1.271v1.263h1.267v1.263l1.272 1.263 1.276 1.258v1.263h1.267v1.263l1.267 1.263 1.271 1.259 1.272 1.263 1.267 1.259 1.271 2.525 1.272 1.263 2.538 1.263 1.272 1.259 1.267 1.263 1.276 1.263 1.267 1.259 2.538 1.258v1.263h1.272v1.263h1.271v2.53h1.272v1.259h-1.272v1.263h-1.271v1.263h-1.272l1.272 1.259v1.263l-1.272 1.262v1.263h1.272l-1.272 1.259v1.263l-1.267 1.263v1.263h-1.271l-1.267 1.259-1.272 1.263-2.543 2.525v2.522h6.353l2.539-1.263h1.271l2.539-1.263 1.271-1.258 5.082-8.833h1.271v-1.263h1.267v1.263l2.543 1.259 6.348-7.57-2.538-2.52v-1.264l-1.267-1.263-1.276-1.262-1.267-1.263-1.272-1.26-1.271-1.258h-5.081v-1.263l-1.272-1.263v-1.259h-1.267v-1.263h-1.267v-2.525h-1.271v-1.259l-1.272-1.263v-2.522l-1.271-1.263v-1.263l-1.272-1.262v-1.26l-1.267-1.262v-2.526h-1.271v-1.259h-1.267v-1.263h-1.268v-1.263h-1.271v-1.263h-1.272v-1.258H-19.7l-1.271-1.263v-1.263h-1.271v-1.263h-1.276v-3.785l1.267-1.258v-1.263l1.267-1.263v-1.259h1.272v-1.263h1.267v-1.258l1.271-1.263 5.082-2.526h5.081l5.077-1.26-2.538-3.788-2.539-3.784-2.543-3.785-2.538-5.047-2.539-3.785-1.271-3.785-2.543-5.047-1.267-3.785-1.272-5.047v-5.048l-1.271-3.784-1.272-5.044v-13.884l3.81 5.048 3.81 5.047 2.54 5.048 3.809 5.047 2.543 5.048 2.539 5.043 2.538 6.31 2.543 5.048 2.539 5.048 2.542 3.785v1.263l1.272 1.262v1.259l2.543 2.526h1.267v1.259h6.353v-10.092h-1.268l-1.271-1.262v-2.526l-1.272-3.785v-2.521l-7.62-16.402-2.542-6.31-2.539-5.048-3.81-6.306-2.538-5.047-3.815-5.048-3.81-5.043-3.81-3.789v-1.258l-1.271-1.263-1.267-1.263h-1.272l-1.267-1.263h-3.814l-3.806-3.785-2.547-2.521h-1.267v-3.785h2.543v-1.263h1.271l1.272-1.263h1.267v-1.258l1.271-1.264v-1.262l1.267-1.263v-2.522h1.267v-10.095l-1.267-1.263v-2.522l-1.271-1.263v-1.258l-1.267-1.263-1.272-1.263-1.267-1.259-1.276-1.263h-1.271v-1.263l-1.267-1.259h-1.271l-1.268-1.263h-1.271l-1.267-1.258h-6.353l-1.272-1.263v1.263h-7.619v1.258h-1.272l-1.271 1.263h-1.268l-1.271 1.26-1.267 1.262h-1.272v1.263h-1.271v1.259h-1.272v1.263h-1.271v1.263h-1.267v1.258h-1.271v1.263h1.271v3.785l1.271 1.263v2.522l1.267 1.262v5.048h-1.267l-1.271 1.263v2.522h1.267v2.526h1.271v1.258h1.272v2.526l1.267 1.259v1.263h10.163v1.263l1.272 1.263v1.258h-1.272v1.263h-1.267v1.263l-1.272 1.263h-2.542l-2.539 2.517-22.86 27.76-1.271 1.262-1.272 1.263h-1.267l-1.276 1.263h-3.81l-15.24 1.26-1.267-1.26-1.276 1.26h-2.538v1.262l-2.539-1.263h-3.81l-1.271-1.259z" style="fill:#000;fill-opacity:1;fill-rule:evenodd;stroke:none"/>
    <path d="M-1.922-3520.583h40.647v35.328H-1.922v-35.324zM-159.416-3795.637h-175.282l-10.158 5.048-3.81 10.095-13.973 152.663v153.93h20.321v44.16h31.756v-44.16h135.901v44.16h30.485v-44.16h15.244v-152.667l-15.24-153.926v-2.526l-6.349-8.832-8.891-3.785m-139.716 26.496h107.96v-10.095h-107.964v10.095m60.964 16.402h81.29l3.81 6.31 11.434 121.12-1.271 5.047-6.353 2.526h-88.91zm-90.181 0h82.561v135.003h-93.987l-6.353-2.526-1.271-5.043 11.434-121.128 3.81-6.306zm15.244 210.703 2.543 2.526 1.267 2.521v11.358l-1.267 2.522-2.543 2.526-1.267 2.521-2.543 1.263-2.539 1.259-3.814 1.267h-5.081l-3.806-1.263-2.543-1.258-2.538-1.263-1.272-2.526-1.267-2.522-1.271-2.522-1.272-2.525v-5.048l1.272-3.785 1.271-2.521 1.267-2.526 1.272-1.259 2.538-2.526 2.543-1.263h3.81l2.539-1.262 2.543 1.258h3.81l2.538 1.263 2.539 2.526zm151.147-5.048-2.539-1.258-2.538 1.258h-3.815l-2.538 1.259-2.539 2.526-1.271 1.258-2.539 2.526-1.271 2.522v3.784l-1.267 2.526 1.267 2.522v2.526l1.271 2.521 2.539 2.526 1.271 2.522 2.539 1.263 2.538 1.259 3.81 1.263h5.082l2.543-1.263 2.538-1.259 2.543-1.263 2.539-2.522 1.27-2.526 1.268-2.521 1.272-2.526v-5.048l-1.272-3.784-1.267-2.522-1.271-2.521-2.539-1.263-2.543-2.526-2.538-1.263h-2.543z" style="fill:#000;fill-opacity:1;fill-rule:evenodd;stroke:none"/>
  </g>
</svg>
