<svg xmlns="http://www.w3.org/2000/svg" viewBox="0 0 600.4 400.4" role="img" aria-labelledby="title">
  <title id="title">Verkehrszeichen W8-SA54 - Over Crest (used in SA)</title>
  <g transform="translate(-2571.684 2028.886)">
    <rect width="600" height="400" x="2571.883" y="-2028.686" rx="40" ry="40" style="fill:#fee011;fill-opacity:1;stroke:none;stroke-width:4;stroke-linejoin:miter;stroke-miterlimit:4;stroke-dasharray:32,4;stroke-dashoffset:0;stroke-opacity:1"/>
    <rect width="584" height="384" x="2579.883" y="-2020.686" rx="32" ry="32" style="fill:#000;fill-opacity:1;stroke:none;stroke-width:4;stroke-linejoin:miter;stroke-miterlimit:4;stroke-dasharray:32,4;stroke-dashoffset:0;stroke-opacity:1"/>
    <rect width="552" height="352" x="2595.883" y="-2004.686" rx="16" ry="16" style="fill:#fee011;fill-opacity:1;stroke:none;stroke-width:4;stroke-linejoin:miter;stroke-miterlimit:4;stroke-dasharray:32,4;stroke-dashoffset:0;stroke-opacity:1"/>
    <path d="m140.998 76-3.586.326-3.586.653-1.793.488-1.629.488-1.63.652-1.467.653-1.63.652-1.466.979-1.467.814-1.305.977-1.466 1.142-2.608 2.281-1.14 1.305-1.141 1.467-1.143 1.303-.976 1.304-.817 1.467-.976 1.303-1.631 2.935-.65 1.467-1.305 3.26-.488 1.629-.653 1.63-.49 1.63-.324 1.793-.49 1.793-.327 1.793-.162 1.793-.326 1.955-.164 1.793-.162 1.957v8.474l.488 5.867.979 5.38.978 3.585.977 3.26.652 1.629 1.305 2.934 2.445 4.402.815 1.303.978 1.304.162.162 1.14 1.467 2.282 2.61 1.305 1.302 1.305.979 1.302 1.14 1.467.979 4.4 2.443 3.26 1.305 1.631.488 5.379.979 1.793.164 1.955.162h3.912l1.955-.162 1.793-.164 5.38-.979 1.63-.488 3.26-1.305 1.467-.65 1.466-.816 2.934-1.956 1.303-.978 2.609-2.281 1.14-1.305 1.303-1.467 1.143-1.303v-.164l.977-1.302.814-1.305 2.445-4.4 1.305-2.934.652-1.63.489-1.63.652-1.63.326-1.794.488-1.793.979-5.376.488-5.87v-1.955l.164-2.119v-.162l-.164-1.957v-2.12l-.326-3.91-.162-1.792-.326-1.957-.653-3.586-.488-1.63-.49-1.792-.977-3.26-.652-1.63-.652-1.468-.653-1.628-1.629-2.934-.816-1.305-.977-1.467-.978-1.302-.162-.164-1.143-1.467-1.14-1.303-1.303-1.305-1.14-1.304-1.468-1.14-1.304-.98-1.467-.976-1.305-.978-1.629-.815-1.466-.652-1.631-.815-4.889-1.466-3.586-.653-1.793-.164-1.957-.162h-3.748m69.057 1.955 33.902 92.414h17.766l33.738-92.414H278.51L252.92 146.9l-25.588-68.945zm112.74 0v92.414h69.27v-16.135h-52.971v-25.752h27.709v-16.136h-27.71V93.928h51.343V77.955zm98.068 0v92.414h16.135v-36.181h24.611l16.787 36.181H496l-17.604-39.115 1.631-.816 1.467-.815 1.467-.978 1.305-.977 2.607-2.61 1.14-1.302 2.282-3.26.164-.326.977-1.63.816-1.63.65-1.793.653-1.63.49-1.792.324-1.63.164-1.794.162-1.628v-3.098l-.162-1.793-.326-1.629-.326-1.793-.488-1.63-.653-1.63-.652-1.466-.815-1.631-1.955-2.934-1.304-1.467-1.14-1.304-1.306-1.303-1.466-1.14-2.934-1.958-1.467-.814-1.63-.815-1.63-.652-3.26-.979-1.792-.326-1.793-.162-1.955-.164h-46.777M141.977 91.973h.978l3.584.326 1.793.326 1.63.488 1.468.653 1.466.814 1.467.979 1.305.978 1.303 1.14 1.304 1.468 1.141 1.466.652.815.815 1.467.814 1.304.653 1.467.652 1.629.652 1.467.489 1.793.488 1.63.49 1.794.162 1.793.326 1.792.327 3.913v4.726l-.489 5.867-.652 3.586-.49 1.63-.489 1.792-.488 1.467-.652 1.63-.653 1.468-.814 1.466-.814 1.303-.165.164-1.14 1.63-1.14 1.466-2.608 2.283-1.305.977-1.467.978-1.466.653-3.26.978-1.793.324-1.793.164h-3.096l-3.586-.652-1.63-.488-1.467-.49-1.63-.815-1.304-.978-1.467-.977-1.305-1.14-1.14-1.305-1.14-1.467-.815-1.14-.815-1.305-.816-1.467-1.303-2.934-1.467-4.889-.652-3.585-.326-1.958-.326-3.912v-4.562l.326-3.912.162-1.793.326-1.793.49-1.793.327-1.793.488-1.629.652-1.63 1.303-2.934 1.63-2.934.327-.326.976-1.467 1.305-1.467 1.14-1.303 1.468-1.142 1.304-.977 2.934-1.63 3.26-.98 1.793-.323zm295.021 1.793h30.969l1.793.488 1.629.49 1.466.977 1.305 1.142 1.303 1.303v.164l1.14 1.629.817 1.63.65 1.63.326 1.63v3.096l-.488 1.631-.652 1.63-.815 1.466-1.14 1.467-.49.652-2.934 2.281-1.629.653-1.63.49-1.794.162h-29.826zM103.756 224l-1.797.164-1.633.162-1.633.326-3.265.98-1.469.491-1.633.652-2.937 1.633-1.633.98-1.47.98-1.306 1.142-1.47 1.142-1.469 1.307-1.307 1.469-1.306 1.306-1.143 1.47-1.305 1.47-1.96 2.937-.979 1.633-.98 1.47-.817 1.634-.652 1.632-.653 1.47-.654 1.632-.488 1.633-.49 1.795-.655 3.265-.326 1.797-.326 3.592v6.203l.164 2.123v2.121l.162 1.961.326 1.96.164 1.958.327 1.96.164 1.794.326 1.797.49 1.795.326 1.633 1.469 4.898.654 1.469.489 1.47 1.306 2.938.653 1.307 1.632 2.613.164.326.98 1.307 1.143 1.469.979 1.306 1.143 1.143 1.306 1.142L83.51 312l2.613 1.959 4.408 2.45 1.469.652 1.633.654 3.265.978 5.387.98 1.96.163h1.958l1.961.164h.162l1.797-.164h1.795l1.797-.326 1.633-.326 1.795-.327 1.632-.49 1.633-.652 1.795-.654 1.633-.653 1.633-.816 1.633-.98.326-.327 1.633-.978 1.47-.98 1.469-1.143 1.307-1.143 2.611-2.613 1.143-1.305.98-1.307 1.143-1.468.98-1.471.816-1.633.327-.488-13.88-7.348-2.284 2.612-1.307 1.47-1.143 1.469-1.304 1.469-1.471 1.144-1.307.979-1.304.652-1.307.49-3.266.655-1.959.326-1.959.162h-3.918l-1.796-.162-1.795-.326-3.266-.98-1.469-.653-1.306-.817-2.614-1.959-1.142-1.142-.979-1.307-1.142-1.47-1.471-2.938-.49-1.143-.489-1.306-.98-2.94-.326-1.468-.326-1.633-.655-3.592-.162-1.797-.326-3.918-.164-2.12v-2.124l-.164-2.285v-1.633l.49-5.389.98-3.265 1.305-3.266.817-1.469.98-1.468 2.285-2.94 2.123-2.123 1.47-1.305 1.47-1.142 1.633-.98 1.468-.817 1.47-.652 1.632-.49 1.633-.327 1.469-.164h2.775l1.96.164 1.796.326 1.797.49 1.63.49 1.471.653 1.469.817h.164l1.143.816 2.61 1.959 1.308 1.307 1.468 1.304 2.614 2.94 14.04-7.184-1.306-1.797-1.307-1.468-1.304-1.633-1.307-1.469-2.613-2.613-2.612-2.285-1.142-.979-2.613-1.96-.49-.327-1.632-.979-1.47-.816-1.633-.654-1.469-.817-1.633-.488-1.795-.654-1.632-.326-1.797-.49-1.795-.327-1.797-.162-1.795-.164h-4.408m295.795 0-1.96.164-1.794.162-1.797.164-1.795.49-1.797.327-1.633.49-3.265 1.305-1.469.654-1.633.816-1.469.979-1.468.816L378 231.51l-1.307 1.306-1.304 1.143-2.287 2.613-1.631 2.938-.817 1.47-.98 3.264-.326 1.633-.327 3.592v2.775l.163 1.797.326 1.959.49 1.633.49 1.795.653 1.47.654 1.633.816 1.305.979 1.47 2.613 2.612 2.611 1.959 3.266 1.959 1.795.816 1.797.98.98.327.817.326 2.447.817 1.633.49 2.123.816 2.285.817 2.775.816 2.94.979 1.633.49 1.795.49 1.796.326 1.795.49 1.797.49 1.633.327 1.795.49.654.162 1.96.817 1.632.816 1.307 1.143 1.142 1.142.817 1.307.652 1.47.326 1.47v.978l-.162 1.633-.328 1.632-.652 1.307-.817 1.307-1.142 1.142-1.307 1.143-1.633.98-1.959.979h-.162l-1.633.652-1.797.49-1.632.49-1.795.327-3.592.326h-4.083l-1.796-.162-3.592-.654-1.795-.489-1.633-.49-1.468-.652-1.145-.49-1.305-.817-1.47-.816-1.305-.98-1.47-1.143-1.305-1.307-2.94-2.611-.816-.817-12.572 9.143.654 1.306.816 1.143.979 1.143 1.142 1.306 1.145 1.143 1.305 1.142 1.47.98 3.264 2.286 1.797.98 4.898 2.448 1.795.816 1.96.654 1.796.653 1.633.652 1.795.49 1.633.327 1.796.328 1.633.326 1.469.162 1.633.164h2.94l1.794-.164 1.96-.162 1.796-.164 3.592-.653 1.633-.49 1.795-.49 1.632-.488 3.266-1.307 1.469-.816 1.633-.655 1.468-.978 1.307-.817 1.633-1.142 1.469-1.143 2.613-2.287 2.285-2.611.98-1.469.817-1.47 1.305-2.938.98-3.266.326-1.633.326-3.591v-.655l-.162-1.959-.164-1.795-.326-1.796-.49-1.795-.49-1.633-1.631-2.94-.98-1.468-1.143-1.307-1.471-1.469-1.143-.98-1.304-.979-2.94-1.959-5.388-2.449-.817-.326-.488-.164-.817-.164-1.142-.489-1.633-.328-1.797-.652-2.285-.652-2.613-.817-2.938-.816-.49-.164-1.633-.49-3.592-.979-1.632-.49-1.795-.49-1.797-.489h-.162l-2.123-.654-1.797-.652-2.938-1.47-.98-.653-1.143-1.307-.98-1.305-.653-1.633-.164-1.796v-.979l.164-1.47.49-1.305.817-1.307 1.307-1.143 1.468-1.142 1.96-1.145h.164l1.63-.652 1.797-.652 1.633-.49 1.795-.327 1.797-.164h3.755l1.96.164 1.795.162 1.796.328 1.633.489 1.47.49.815.326 1.307.654 1.469.817 1.469.978 1.306.98 1.469 1.306 1.633 1.306.816.98L434 238.368l-1.143-1.306-1.142-1.143-1.307-1.143-1.469-1.142-1.306-.98-1.469-.98-3.266-1.958-1.632-.817-1.795-.816-.328-.164-1.795-.816-1.797-.653-5.387-1.469-1.633-.328-1.797-.326-1.632-.162-1.795-.164h-3.757m-230.45 1.797v92.406h15.674v-36.08h24.327l16.326 36.08h17.306l-17.306-39.02 1.633-.816 1.47-.816 2.612-1.96 2.613-2.61 1.142-1.307 1.143-1.633.979-1.633.164-.326.978-1.633.817-1.633.654-1.796.652-1.631.49-1.797.327-1.633.164-1.795.162-1.633v-2.94l-.162-1.794-.327-1.797-.328-1.633-.488-1.795-.654-1.47-.653-1.633-.816-1.633-1.959-2.938-2.285-2.613-1.307-1.305-1.47-1.144-1.305-1.143-1.47-.978-1.47-.817-1.632-.816-1.47-.49-1.632-.653-1.797-.49-1.633-.326-3.591-.326h-45.877m100.452 0v92.406h67.918v-16h-52.082v-25.795h27.265v-16.164H285.39v-18.447h50.285v-16zm194.529 0v15.02h25.633v77.386h16.162v-77.387H532v-15.02zm-279.307 15.836h28.735l1.797.164 1.632.326 1.631.652 1.471.817 1.307 1.142 1.142 1.307.162.162.98 1.633.817 1.633.653 1.633.326 1.632v3.102l-.979 3.266-.98 1.632-.979 1.307-1.959 1.959-1.47.98-1.633.653-1.633.49-1.633.162h-29.387z" style="fill:#000;fill-opacity:1;fill-rule:evenodd;stroke:none" transform="translate(2571.883 -2028.686)"/>
  </g>
</svg>
