<svg xmlns="http://www.w3.org/2000/svg" viewBox="0 0 323.43 323.427" role="img" aria-labelledby="title">
  <title id="title">Verkehrszeichen W1-4-R - Double curve first to right</title>
  <path d="m395 375-80 170-80-170 80-170z" style="fill:none;stroke:#fff;stroke-width:40" transform="translate(18871.729 12789.263)"/>
  <path d="m318.747 172.997-145.75 145.736a15.905 15.905 0 0 1-22.564 0L4.683 172.997c-6.244-6.244-6.244-16.323 0-22.578L150.433 4.683a15.93 15.93 0 0 1 22.564 0l145.75 145.736c6.244 6.255 6.244 16.334 0 22.578" style="fill:#fee011;fill-opacity:1;fill-rule:evenodd;stroke:none"/>
  <path d="M316.73 170.38 170.474 316.62c-4.83 4.843-12.598 4.843-17.526 0L6.698 170.38c-4.83-4.844-4.83-12.697 0-17.54L152.948 6.598c4.929-4.844 12.697-4.844 17.527 0l146.254 146.24c4.83 4.844 4.83 12.697 0 17.54" style="fill:#000;fill-opacity:1;fill-rule:evenodd;stroke:none"/>
  <path d="M312.489 165.846 165.94 312.394c-2.406 2.409-6.046 2.409-8.456 0L10.938 165.846c-2.42-2.42-2.42-6.047 0-8.47L157.485 10.829c2.41-2.42 6.05-2.42 8.456 0L312.49 157.376c2.42 2.423 2.42 6.05 0 8.47" style="fill:#fee011;fill-opacity:1;fill-rule:evenodd;stroke:none"/>
  <path d="m123.665 172.603 47.074-42.948c2.815-2.716 4.734-6.65 4.734-10.777l-22.175 6.957c-3.023 0-6.354-3.122-6.354-6.65 0-1.118.812-2.826 1.415-3.33l44.849-66.213 44.249 65.61c.603.797 1.414 2.518 1.414 3.933 0 3.528-2.73 6.65-6.357 6.65l-22.465-6.957c0 13.607-5.754 26.303-14.922 35.976l-54.526 48.18c-2.825 3.026-4.744 7.154-4.744 11.592v29.633l-34.869.296v-29.93c0-17.44 8.876-32.854 22.677-42.022" style="fill:#000;fill-opacity:1;fill-rule:evenodd;stroke:none"/>
</svg>
