<svg xmlns="http://www.w3.org/2000/svg" viewBox="0 0 815.864 815.864" role="img" aria-labelledby="title">
  <title id="title">Verkehrszeichen W5-V123 - Slippery for Motorcycles (used in VIC)</title>
  <g transform="translate(584.81 4020.618)">
    <rect width="600" height="600" x="2129.484" y="2379.626" rx="40" ry="40" style="fill:#fee011;fill-opacity:1;stroke:none;stroke-width:8;stroke-linejoin:miter;stroke-miterlimit:4;stroke-dasharray:none;stroke-dashoffset:0;stroke-opacity:1" transform="rotate(-45)scale(1 -1)"/>
    <rect width="584" height="584" x="2137.484" y="2387.626" rx="32" ry="32" style="fill:#000;fill-opacity:1;stroke:none;stroke-width:8;stroke-linejoin:miter;stroke-miterlimit:4;stroke-dasharray:none;stroke-dashoffset:0;stroke-opacity:1" transform="rotate(-45)scale(1 -1)"/>
    <rect width="552" height="552" x="2153.484" y="2403.626" rx="16" ry="16" style="fill:#fee011;fill-opacity:1;stroke:none;stroke-width:8;stroke-linejoin:miter;stroke-miterlimit:4;stroke-dasharray:none;stroke-dashoffset:0;stroke-opacity:1" transform="rotate(-45)scale(1 -1)"/>
    <path d="m-240.734-3481.736 14.08-11.063 187.02 15.08 6.033.338 5.699 2.011 5.028 3.688 3.348 4.693 2.347 5.699v6.034l-1.341 5.694-3.013 5.028-21.79 24.467-24.801-7.04 32.512-25.807 2.011-.67 1.676-1.672.67-2.011v-2.347l-.67-2.011-1.34-1.341-2.012-1.006-2.347-.337z" style="fill:#000;fill-opacity:1;fill-rule:evenodd;stroke:none"/>
    <path d="m-276.263-3496.486 98.878-58.32 7.706 2.346-91.834 60.667-.67 1.34-.67 1.342-.334 1.676.333 1.676.334 1.34.67 1.342 1.006 1.34 1.34.671 30.501 14.41 4.354 2.347 3.352 3.352 3.017 3.688 2.012 4.353 1.34 4.693.334 4.693-.67 4.693-1.677 4.358-40.218 35.525-34.188-1.676 53.292-37.871 2.346-1.341 1.676-2.347.67-2.346v-2.682l-1.005-2.682-2.011-2.011-2.347-1.006-2.682-.67-31.17-13.405-4.024-2.011-3.683-3.352-2.346-3.688-1.006-4.689v-4.358l1.341-4.357 2.682-4.023 3.348-3.017zM-323.856-3540.392l5.7-3.017 5.698-2.682 5.699-2.681 5.694-2.347 5.699-2.682 6.034-2.011 6.034-2.007 6.03-2.011 6.034-2.011 6.034-1.341 6.369-1.676 6.034-1.341 6.365-1.006 6.034-1.006 6.369-1.005-4.358-8.716-6.37.67-6.369 1.006-6.029 1.006-6.37 1.005-6.033 1.006-6.37 1.34-6.03 1.342-6.033 1.676-6.034 1.676-6.034 1.676-6.03 2.011-6.034 1.677-6.034 2.346-6.034 2.012-5.694 2.341-6.034 2.347-5.7 2.347-6.368 2.011-6.034 3.352-4.689 4.693-3.687 5.364-2.012 6.365-.67 6.704 1.34 6.705 2.683 6.034 4.022 5.359 5.024 4.022 5.363 3.353 5.7 3.017 6.033 2.682 6.03 2.01 6.37 1.342 6.369 1.34 6.369.334h6.364l6.37-.333 6.369-1.006 3.352-11.062h-5.028l-4.693-.338-5.029-.337-4.688-.67-5.028-.67-4.694-1.006-5.028-1.341-4.693-1.34-5.695-2.678-4.358-4.358-3.017-5.699-.67-6.369 1.676-6.034 3.352-5.36 5.029-4.022 6.03-2.011zM-130.128-3565.864l-2.346 3.687-2.682 2.682-3.687 2.012-3.688 1h-4.022l-4.018-1-3.353-2.012-3.017-2.682-15.42-118.986 2.347-3.352 2.681-2.678 3.352-2.011 3.688-1.006h4.023l3.687 1.006 3.348 2.011 3.017 2.678zM-162.64-3899.69l-1.005-1.005-1.341-1.34-1.006-1.007-1.34-1.005-1.342-1.006-1.34-1.006-1.341-.67-1.341-1.006-3.013-1.34-3.017-1.006-3.352-.67-3.353-.334h-3.352l-3.017.333-3.352.67-3.352 1.006-4.018 2.012-3.353 2.682-3.352 3.352-2.346 3.687-2.012 4.023-1.005 4.353-.334 4.694.334 4.358v3.017l.333 1.34v2.012l.337 1.006v1.005l1.006 3.688 1.676 3.347 2.346 3.353 3.017 2.346 3.353 2.011 3.347 1.341 4.023.67h3.687l4.023-.67 4.023-.337 4.023-.333 4.022-.337 4.019-.334h12.068l1.34-.67 1.341-1.006 1.006-1.34 1.006-1.677.333-1.676.334-1.676v-1.671l-.334-1.677-.333-3.017-.334-3.017-.67-3.017-.333-3.352-.67-3.017-.671-3.017-.67-3.017-1.007-3.013-.337-.67v-.67l-.333-.67-.333-.671-.334-.67-.333-.338-.334-.67-.333-.67.333.67.334.67.333.337.334.67.333.671.333.67v.671l.337.67 1.006 3.013.67 3.017.671 3.017.67 3.017.334 3.352.67 3.017.334 3.017.333 3.017-.333-3.017-.334-3.017-.67-3.017-.333-3.352-.67-3.017-.671-3.017-.67-3.017-1.007-3.013-.337-.67v-.67l-.333-.67-.333-.671-.334-.67-.333-.338-.334-.67-.333-.67v-.334h-.333v-.337l-.337-.337v-.334h-.334v-.337l-.333-.333m3.017 7.375-.334-1.006-.333-1.006-.334-1.005-.67-1.006-.333-.67-.67-1.006-.671-.67-.67-1.006-1.006-.337h-2.012l-1.005.337-1.006.67-.67.67-.671 1.006-.337 1.006-.67 4.023-.334 4.018.334 4.023.67 3.687 1.34 3.688 2.012 3.687 2.012 3.353 2.681 2.681 7.375-.67-.333-3.352-.334-3.017-.67-3.017-.333-3.017-.67-3.018-.671-3.017-.67-3.352-1.006-2.677z" style="fill:#000;fill-opacity:1;fill-rule:evenodd;stroke:none"/>
    <path d="m-153.924-3850.755 7.035 1.676 6.705 2.346 6.369 3.017 6.37 3.683 5.694 4.358 5.028 4.693 5.029 5.364 4.022 5.699 1.006-.334.67-.337 1.006-.333.67-.337 1.006-.333.67-.338h1.006l.67-.333h2.347l2.342.67 2.011 1.677 1.341 1.676 1.006 2.346v2.342l-.67 2.347-1.006 2.346-.67 1.006-1.006 1.006-.67 1.005-.671.67-1.006 1.006-1 .671-1.006 1.006-1.006.67.67 1.676.67 2.012.334 1.676.334 2.011v5.698l-.334 1.673 2.007 1.34 1.676 1.677 1.006 2.346.337 2.012-.337 2.346-1.006 2.347-1.676 1.676-2.007 1.006-1.34 1.005-1.677.334-1.676.67-1.676.67-1.676.334-1.676.67-1.676.337-1.676.334-.338 1.006-.333 1.005v1.006l-.333.67-.334 1.006-.333 1v1.007l-.334.67 4.023 2.682 3.688 2.346 4.022 2.682 3.352 3.017 3.683 3.017 3.353 3.353 3.017 3.687 3.017 3.348 2.01 3.017 1.677 3.352 1.34 3.352 1.007 3.353.333 3.687v3.352l-.333 3.688-1.006 3.347-1.341 7.375-2.011 7.04-2.682 7.04-3.017 6.7-3.688 6.37-4.022 6.033-4.354 6.034-5.028 5.36.334 5.028-.67 4.693-1.677 4.693-2.011 4.358-3.017 4.018-3.353 3.688-4.022 2.681-4.354 2.347.333 4.023v2.682l-.333 1.34-.333 1.341-.334 1.341-1.005 1.341-.67 1.006-1.007 1.005-10.056-75.747-4.358-4.693-5.364-3.352-6.03-1.677h-6.033l-6.37 1.677-5.028 3.352-4.353 4.358-3.017 5.694 9.717 75.077-1.006-.67-1.006-1.001-1.005-1.006-1.006-1.006-.67-1.34-.334-1.342-.666-1.34-.333-1.341-2.682-1.677-3.017-2.346-2.347-2.012-2.682-2.681-2.01-2.682-2.012-2.682-1.676-3.017-1.677-3.013-.67-1.676-.67-1.676-.67-1.676-.338-1.676-.67-1.676-.334-1.676-.333-2.012-.334-1.676-4.688-3.352-4.358-4.023-4.023-4.353-3.687-4.693-3.017-4.693-2.682-5.364-2.347-5.363-1.676-5.695-.67-5.364-.337-5.363.337-5.364.67-5.363 1.676-5.36 2.012-5.028 2.346-5.028 3.353-4.358-1.341-1.676-1.341-2.011-1.341-1.676-1.006-1.677-1.34-2.007-1.006-1.676-1.006-2.011-1.34-2.012-2.008 1.341-2.682.67-2.681-.332-2.347-1.006-2.011-2.012-1.006-2.346-.333-2.682.333-2.346-3.017-2.682-2.682-3.353-2.011-3.352-1.341-4.018-.67-4.022.333-4.023.67-4.023 1.676-3.687-1.676-.337-1.676-.334-2.011-.67-1.676-.67-1.337-.671-1.676-.67-1.676-1.006-1.34-1.006-2.012-1.672-1.34-2.011-.671-2.347v-2.346l.67-2.347 1.341-2.011 2.011-1.341 2.347-1.006 2.346-.337h6.7l2.347.337 2.011.67 2.347.334 2.011.67 2.012-5.363 2.681-5.699 2.682-5.359 2.682-5.028 3.348-5.364 3.352-4.693 3.687-4.693 4.023-4.689 7.04-2.346 7.37-2.012 7.375-2.011 7.375-1.341 7.71-1.006 7.37-.67 7.711-.334h7.375m-57.314 65.691.333 3.017v3.352l.333 3.017.334 3.353.67 3.017.334 3.352.67 3.017.67 3.347-8.38 2.012-.67-1.006-.67-1.34-.671-1.006-.67-1.341-.334-1.001-.67-1.006-.671-1.34-.334-1.006.334-1.341.333-1.341.67-1.341.334-1.676.333-1.341.671-1.341.333-1.341.67-1.34.338-1.007.333-1.005.67-1.006.334-1.006.334-1.005.333-1.006.67-1.006.337-1.005.334-.337.333-.334h1.338l.333.334.337.67v.337m70.048-26.143 1.006 4.023 1.34 4.022 1.342 4.023 1.005 4.023 1.006 4.358 1.006 4.018 1.005 4.023.67 4.358 6.035-1.677v-1.676l.333-1.34.334-1.677.333-1.676v-1.676l.334-1.337.333-1.676v-1.676l-1.34-2.681-1.342-2.682-1.676-2.682-1.676-2.682-1.676-2.346-2.012-2.347-2.01-2.347-2.012-2.346h-.67l-.334-.337h-.334l-.67.337-.337.337-.333.333v.67l.333.338m32.177 102.225-.67-1.34-1.006-1.006-.67-1.337-1.006-1.34-.67-1.006-1.006-1.341-1.006-1.006-1.006-1.005-.333 1.005-.333.67-.67 1.006-.334 1.006-.67.67-.334 1.006-.67 1.006-.334.666.67 2.346 1.006 2.682.67 2.347.334 2.681.67 2.347.334 2.682v5.028l1.34-2.011 1.007-2.347 1.005-2.011.67-2.347 1.006-2.011.67-2.347.671-2.346.67-2.347z" style="fill:#000;fill-opacity:1;fill-rule:evenodd;stroke:none"/>
  </g>
</svg>
