<svg xmlns="http://www.w3.org/2000/svg" viewBox="0 0 815.864 815.864" role="img" aria-labelledby="title">
  <title id="title">Verkehrszeichen W5-SA74 - Low Branches (used in SA)</title>
  <g transform="translate(989.448 4551.799)">
    <rect width="600" height="600" x="2218.962" y="3041.35" rx="40" ry="40" style="fill:#fee011;fill-opacity:1;stroke:none;stroke-width:8;stroke-linejoin:miter;stroke-miterlimit:4;stroke-dasharray:none;stroke-dashoffset:0;stroke-opacity:1" transform="rotate(-45)scale(1 -1)"/>
    <rect width="584" height="584" x="2226.962" y="3049.35" rx="32" ry="32" style="fill:#000;fill-opacity:1;stroke:none;stroke-width:8;stroke-linejoin:miter;stroke-miterlimit:4;stroke-dasharray:none;stroke-dashoffset:0;stroke-opacity:1" transform="rotate(-45)scale(1 -1)"/>
    <rect width="552" height="552" x="2242.962" y="3065.35" rx="16" ry="16" style="fill:#fee011;fill-opacity:1;stroke:none;stroke-width:8;stroke-linejoin:miter;stroke-miterlimit:4;stroke-dasharray:none;stroke-dashoffset:0;stroke-opacity:1" transform="rotate(-45)scale(1 -1)"/>
    <path d="M-681.516-4183.866v-93.092h13.1v80.001h33.473v13.09zM-500.506-4184.33l14.99-93.092h-13.27l-7.84 48.7-8.526-48.7h-10.588l-8.527 48.7-7.843-48.7h-13.267l14.99 93.092h11.643l8.298-47.377 8.295 47.377zM-570.012-4055.87v-93.086h-13.097v53.778l-23.543-53.778h-14.293v93.085h13.094v-63.164l27.652 63.164zM-433.362-4055.87v-93.086h-13.097v37.817h-24.739v-37.817h-13.1v93.085h13.1v-42.176h24.74v42.176zM-413.174-4148.956h45.115v13.092h-32.018v23.27h19.646v13.09h-19.646v30.544h33.473v13.09h-46.57zM-314.615-4127.866h13.097v-.726c0-2.758-.491-5.682-1.636-8.566a23.2 23.2 0 0 0-5.186-7.89 23.2 23.2 0 0 0-7.893-5.181 23.3 23.3 0 0 0-8.572-1.636c-2.757 0-5.682.491-8.568 1.636a23.26 23.26 0 0 0-14.715 21.637 27.63 27.63 0 0 0 13.968 24.014l7.236 4.116a30.212 30.212 0 0 1 1.109.674 25.002 25.002 0 0 1 3.158 2.4 24.76 24.76 0 0 1 7.779 13.721c.597 3.08.047 6.694-2.238 9.75a12.382 12.382 0 0 1-18.228 1.746 12.4 12.4 0 0 1-3.086-4.362 12.4 12.4 0 0 1-.964-4.788v-3.634h-13.097v3.634c0 3.156.588 6.531 1.986 9.858a25.48 25.48 0 0 0 25.91 15.48 25.46 25.46 0 0 0 22.497-20.114c.742-3.528.678-6.958.078-10.054a37.75 37.75 0 0 0-6.4-14.856 37.8 37.8 0 0 0-12.023-10.828l-7.234-4.117a14.5 14.5 0 0 1-5.378-5.33 14.54 14.54 0 0 1-1.974-7.307 10.191 10.191 0 0 1 17.39-7.2 10.17 10.17 0 0 1 2.986 7.2v.725M-515.154-4127.866h13.097v-.726a23.27 23.27 0 0 0-5.49-15.01 23.3 23.3 0 0 0-13.88-7.932 23.37 23.37 0 0 0-15.711 2.852 23.07 23.07 0 0 0-10.133 12.258 94.97 94.97 0 0 0 0 65.085 23.13 23.13 0 0 0 10.135 12.28 23.34 23.34 0 0 0 15.719 2.857 23.3 23.3 0 0 0 13.88-7.93 23.3 23.3 0 0 0 4.16-7.264 23.3 23.3 0 0 0 1.33-7.744v-2.91h-13.098v2.91a10.18 10.18 0 0 1-8.472 10.036c-4.896.834-9.677-1.973-11.32-6.643a82.2 82.2 0 0 1 0-56.265c1.64-4.656 6.415-7.453 11.311-6.616a10.2 10.2 0 0 1 6.074 3.47 10.2 10.2 0 0 1 2.398 6.566zM-619.293-4261.6a24 24 0 0 1 8.503-13.157 24.026 24.026 0 0 1 29.627 0 23.98 23.98 0 0 1 8.506 13.157 124.2 124.2 0 0 1 3.607 29.734c0 10.093-1.226 20.076-3.607 29.733a24.01 24.01 0 0 1-23.318 18.267 24.03 24.03 0 0 1-14.815-5.11 23.98 23.98 0 0 1-8.263-12.256c-.046-.155-.081-.291-.124-.449-.038-.089-.038-.14-.062-.225v-.228a124.3 124.3 0 0 1-3.607-29.734c0-10.093 1.226-20.076 3.607-29.733m12.718 56.341a10.9 10.9 0 0 0 3.866 5.978 10.93 10.93 0 0 0 6.734 2.325c2.293 0 4.7-.732 6.734-2.325a10.9 10.9 0 0 0 3.866-5.978 111.2 111.2 0 0 0 3.227-26.605c0-9.03-1.097-17.965-3.227-26.607a10.917 10.917 0 0 0-21.2 0 111.3 111.3 0 0 0 0 53.212M-781.91-4113.789a36.4 36.4 0 0 0 1.814-9.428 36.6 36.6 0 0 0-.72-9.572 20.36 20.36 0 0 0-7.101-11.617 20.37 20.37 0 0 0-12.838-4.553h-28.76v93.086h29.3a20.37 20.37 0 0 0 18.02-10.858 31.27 31.27 0 0 0 .27-28.66 21.7 21.7 0 0 0-3.513-5.05 22 22 0 0 0-4.784-3.866 16.3 16.3 0 0 0 8.316-9.485m-18.885 16.712a18.18 18.18 0 0 1 8.4 10.704 18.257 18.257 0 0 1-.13 10.532 18.4 18.4 0 0 1-1.256 3.003 7.275 7.275 0 0 1-6.439 3.878h-16.203v-29.087h11.994c.627 0 1.26.081 1.877.248q.93.252 1.754.723m7.168-32.969.248 1.786v.19l-.264-1.976v-.046a7.25 7.25 0 0 0-2.534-4.15 7.3 7.3 0 0 0-4.585-1.625h.345-16.007v24.724h14.63c1.253 0 2.54-.337 3.694-1.057a6.97 6.97 0 0 0 2.576-2.848 23.277 23.277 0 0 0 1.885-15.046v.046M-723.36-4101.847a25.34 25.34 0 0 0 9.852-9.29 25.35 25.35 0 0 0 3.652-13.037c0-4.418-1.145-8.958-3.594-13.054a25.3 25.3 0 0 0-9.814-9.331 20.4 20.4 0 0 0-7.107-2.246c-.825-.101-1.657-.151-2.48-.151h-27.94v93.085h13.096v-43.634h11.642l12.808 43.634h13.386l-13.504-45.977m-6.065-33.16a12.211 12.211 0 0 1 2.624 19.674c-.81.762-1.699 1.39-2.624 1.885a7.2 7.2 0 0 1-1.663.638 7.4 7.4 0 0 1-1.762.217h-14.845v-23.27h14.845c.59 0 1.18.074 1.762.221a7 7 0 0 1 1.663.638M-637.856-4055.87l-22.413-93.086h-13.39l-22.409 93.085h13.39l6.3-25.823h18.806l6.327 25.823zm-35.356-38.978 6.249-25.956 6.251 25.956z" style="fill:#000;fill-opacity:1;fill-rule:evenodd;stroke:none"/>
  </g>
</svg>
