<svg xmlns="http://www.w3.org/2000/svg" viewBox="0 0 1021.33 1021.33" role="img" aria-labelledby="title">
  <title id="title">Verkehrszeichen W5-1 - Ferry</title>
  <g transform="translate(0 442.66)">
    <rect width="750" height="750" x="-61.992" y="34.181" rx="50" ry="50" style="fill:#fddc04;fill-opacity:1;fill-rule:evenodd;stroke:none;stroke-width:5.67811;stroke-linecap:round;stroke-linejoin:round" transform="rotate(-45)"/>
    <rect width="730" height="730" x="-51.992" y="44.181" rx="40" ry="40" style="fill:#000;fill-rule:evenodd;stroke:none;stroke-width:5.52669;stroke-linecap:round;stroke-linejoin:round" transform="rotate(-45)"/>
    <rect width="690" height="690" x="-31.992" y="64.181" rx="20" ry="20" style="fill:#fddc04;fill-opacity:1;fill-rule:evenodd;stroke:none;stroke-width:5.22386;stroke-linecap:round;stroke-linejoin:round" transform="rotate(-45)"/>
    <path d="M266.322 8.692h-80.97v43.097h50.932v28.209h-50.932v76.007h-27.687v-175h108.657zM400.506 156.005H291.85v-175H395.02V8.692h-75.485v43.097h50.933v28.209h-50.933v47.798h80.97zM548.794 156.005h-30.037l-28.209-76.007h-33.171v76.007H429.69v-175h57.724q19.328 0 31.082 5.746 11.754 5.485 19.067 17.761 7.575 12.277 7.575 25.598 0 13.843-7.575 26.38-7.575 12.276-19.59 17.761zM517.451 30.11q0-14.627-14.627-20.112-3.656-1.306-12.276-1.306h-33.171v43.097h33.171q10.187 0 15.933-3.135 10.97-6.268 10.97-18.544M697.084 156.005h-30.037l-28.209-76.007h-33.171v76.007H577.98v-175h57.724q19.328 0 31.082 5.746 11.754 5.485 19.067 17.761 7.575 12.277 7.575 25.598 0 13.843-7.575 26.38-7.575 12.276-19.59 17.761zM665.741 30.11q0-14.627-14.627-20.112-3.656-1.306-12.276-1.306h-33.171v43.097h33.171q10.187 0 15.933-3.135 10.97-6.268 10.97-18.544M863.665-18.995l-60.597 98.993v76.007h-27.686V79.998L714-18.995h33.172l41.79 67.65 42.314-67.65z" style="font-size:261.194px;line-height:1.25;font-family:&quot;Roadgeek 2000 Series D&quot;;-inkscape-font-specification:&quot;Roadgeek 2000 Series D&quot;;text-align:center;letter-spacing:-.33px;text-anchor:middle;fill:#000;fill-rule:evenodd;stroke:none;stroke-width:1.36039"/>
  </g>
</svg>
