<svg xmlns="http://www.w3.org/2000/svg" xml:space="preserve" viewBox="-1 0 121.977 121.958" role="img" aria-labelledby="title">
  <title id="title">Verkehrszeichen W5-35-R - Added Lane (right)</title>
  <path d="m89.25 160.661 32.664-32.679h46.188l32.699 32.679v46.224l-32.699 32.667h-46.188L89.25 206.885z" style="fill:none;stroke:none" transform="translate(307.66 570.605)scale(1.17193)"/>
  <path d="m119.232 65.216-55.03 55.025c-2.29 2.289-6.105 2.289-8.433 0L.746 65.216c-2.328-2.326-2.328-6.142 0-8.475L55.769 1.718c2.328-2.29 6.143-2.29 8.433 0l55.03 55.023c2.326 2.333 2.326 6.149 0 8.475" style="fill:#fee011;fill-opacity:1;fill-rule:evenodd;stroke:none"/>
  <path d="M63.402 119.287c-1.983 1.607-4.351 1.988-6.408.345l-.423-.307L1.619 64.337c-1.907-2.252-1.907-4.58 0-6.832L56.571 2.517C58.404 1.03 60.503.572 62.6 1.91l.382.307.419.301 54.95 54.988c1.909 2.252 1.909 4.542 0 6.795z" style="fill:#000;fill-opacity:1;fill-rule:evenodd;stroke:none"/>
  <path d="M59.358 118.334c-.419-.112-.61-.265-.991-.535L3.417 62.847c-1.071-1.335-1.071-2.326 0-3.66l54.95-54.952c1.065-.8 2.174-.763 3.206.037l54.988 54.95c1.028 1.3 1.028 2.29 0 3.59l-54.988 54.95c-.726.61-1.297.688-2.215.572" style="fill:#fee011;fill-opacity:1;fill-rule:evenodd;stroke:none"/>
  <path d="M47.237 77.99V43.148l6.313 1.864c.036 0 .264.036.38.036 1.06 0 1.936-.839 1.936-1.9 0-.459-.496-1.255-.496-1.255L42.641 23.389 29.95 41.893c-.148.269-.492.796-.492 1.255 0 1.061.872 1.9 1.938 1.9.115 0 .342-.036.38-.036l6.306-1.864V77.99zm11.632 34.352 25.686-25.913-10.64-10.64c-8.893-8.892-12.386-20.217-12.386-32.567l.037-29.602H58.87zm23.596-45.065c-5.853-5.853-9.046-14.25-9.046-22.61 0-.532 0-1.028-.074-1.555l-6.423 1.9c-.036 0-.263.036-.38.036-1.066 0-1.936-.839-1.936-1.9 0-.459.343-.986.49-1.255L77.79 23.389l12.73 18.504s.495.796.495 1.255c0 1.061-.875 1.9-1.937 1.9-.116 0-.342-.036-.38-.036l-6.27-1.9c.038.337-.04 1.097-.04 1.556 0 6.001 2.204 12.08 6.422 16.26L99.447 71.53l-6.343 6.349z" style="fill:#000;fill-opacity:1;fill-rule:evenodd;stroke:none"/>
</svg>
