<svg xmlns="http://www.w3.org/2000/svg" xml:space="preserve" viewBox="-1 0 548.312 439.125" role="img" aria-labelledby="title">
  <title id="title">Verkehrszeichen W5-Q10 - Unfenced Road (Watch for Wandering Animals) (used in QLD)</title>
  <path d="M168.102 239.552h-46.188L89.25 206.885v-46.224l32.664-32.679h46.188l32.699 32.679v46.224z" style="fill:none;stroke:none" transform="translate(599.679 814.445)scale(1.17193)"/>
  <path d="M54.84 1.24h436.643c30.023 0 54.582 24.562 54.582 54.58v327.485c0 30.019-24.563 54.578-54.582 54.578H54.84c-30.018 0-54.581-24.56-54.581-54.578V55.821C.259 25.802 24.822 1.24 54.84 1.24z" style="fill:#fff;fill-opacity:1;fill-rule:evenodd;stroke:#000;stroke-width:2.50000358;stroke-linecap:butt;stroke-linejoin:miter;stroke-miterlimit:22.9260006;stroke-opacity:1;stroke-dasharray:none"/>
  <path d="M54.84 8.227c-26.164 0-47.594 21.43-47.594 47.594v327.484c0 26.164 21.43 47.594 47.594 47.594h436.643c26.164 0 47.594-21.43 47.594-47.594V55.821c0-26.164-21.43-47.594-47.594-47.594z" style="fill:#000;fill-opacity:1;fill-rule:evenodd;stroke:none"/>
  <path d="M54.84 15.214c-22.305 0-40.607 18.302-40.607 40.607v327.484c0 22.305 18.302 40.607 40.607 40.607h436.643c22.31 0 40.611-18.298 40.611-40.607V55.821c0-22.305-18.302-40.607-40.61-40.607z" style="fill:#fff;fill-opacity:1;fill-rule:evenodd;stroke:none"/>
  <path d="M55.903 40.616h434.264v43.661H55.903z" style="fill:#000;fill-opacity:1;fill-rule:evenodd;stroke:none"/>
  <path d="M70.748 49.634h7.335q1.944.007 3.554.653a8.7 8.7 0 0 1 2.855 1.85q1.254 1.197 2.109 2.88c.574 1.12 1.012 2.366 1.308 3.753.297 1.382.446 2.866.446 4.46 0 .957-.098 1.933-.293 2.917a15 15 0 0 1-.875 2.89 13.2 13.2 0 0 1-1.445 2.633 10.5 10.5 0 0 1-2.004 2.164 8.9 8.9 0 0 1-2.554 1.46q-1.415.534-3.101.54h-7.335zm4.167 21.954h3.012q1.225-.007 2.175-.43a5.3 5.3 0 0 0 1.652-1.136 7.4 7.4 0 0 0 1.195-1.598c.32-.59.582-1.203.781-1.827q.3-.938.43-1.813c.09-.578.133-1.093.133-1.554a17 17 0 0 0-.114-1.984q-.117-1.053-.398-2.125a10.7 10.7 0 0 0-.746-2.03 7 7 0 0 0-1.176-1.723 5.1 5.1 0 0 0-1.679-1.195q-.971-.441-2.253-.453h-3.012zM95.322 67.764v-18.13h4.14v18.13c.004.578.137 1.125.387 1.656q.374.787 1.035 1.414.657.623 1.496.988a4.5 4.5 0 0 0 1.773.371 5.2 5.2 0 0 0 3.257-1.152c.45-.367.805-.808 1.074-1.324a3.7 3.7 0 0 0 .41-1.718V49.635h4.058v17.817a9.3 9.3 0 0 1-.418 2.8 8.8 8.8 0 0 1-1.183 2.441 8.5 8.5 0 0 1-1.86 1.922 8.4 8.4 0 0 1-2.432 1.262 9.3 9.3 0 0 1-2.906.453 8.6 8.6 0 0 1-2.8-.465 8.9 8.9 0 0 1-2.426-1.277 9 9 0 0 1-1.906-1.895 8.5 8.5 0 0 1-1.25-2.339 7.8 7.8 0 0 1-.449-2.59M121.994 49.634H126v22.348h11.975v3.851h-15.982zM144.237 49.634h4.007V60.27l8.358-10.635h5.186l-8.147 10.374 8.62 15.825h-4.613l-6.756-12.365-2.648 3.222v9.143h-4.007zM175.204 49.634l-8.854 26.172h4.375l2.382-7.385h8.385l2.543 7.385h4.242l-8.96-26.172zm4.742 14.697h-5.343l2.617-7.807zM195.115 49.634h3.457l9.983 17.056V49.634h4.167v26.2h-3.539l-9.982-16.924v16.923h-4.086zM221.783 75.833h4.114V49.635h-4.114zM234.937 49.634h3.457l9.983 17.056V49.634h4.167v26.2h-3.539l-9.982-16.924v16.923h-4.086zM261.605 49.634h3.456l9.983 17.056V49.634h4.168v26.2h-3.539L265.69 58.91v16.923h-4.085zM294.932 49.634l-8.854 26.172h4.374l2.383-7.385h8.385l2.542 7.385h4.242l-8.96-26.172zm4.741 14.697h-5.343l2.621-7.807zM331.165 69.596l3.983-1.336c.36.739.738 1.352 1.129 1.856q.584.745 1.281 1.19c.46.298.992.512 1.574.645a9.5 9.5 0 0 0 2.015.188c.414-.004.828-.11 1.254-.313a4.5 4.5 0 0 0 1.176-.82c.359-.34.652-.73.87-1.156q.334-.644.34-1.328c.003-.68-.093-1.277-.308-1.789-.21-.511-.57-.953-1.066-1.32-.496-.37-1.176-.676-2.031-.922-.852-.246-1.918-.437-3.195-.582a4 4 0 0 1-.742-.152 8 8 0 0 1-.96-.348 9 9 0 0 1-1.063-.546 8 8 0 0 1-1.035-.758 5.66 5.66 0 0 1-1.816-2.707 6.9 6.9 0 0 1-.305-2.062q.006-1.517.441-2.789a7.8 7.8 0 0 1 1.203-2.28 8 8 0 0 1 1.809-1.715 8.5 8.5 0 0 1 2.23-1.074 8.6 8.6 0 0 1 2.492-.371q1.827 0 3.222.62 1.389.624 2.421 1.895 1.031 1.272 1.77 3.222l-3.906 1.18c-.176-.531-.41-.973-.688-1.316a3.3 3.3 0 0 0-.956-.809 4.5 4.5 0 0 0-1.125-.433 7.4 7.4 0 0 0-1.211-.164 3.3 3.3 0 0 0-1.441.335c-.445.215-.836.5-1.172.864-.34.359-.601.757-.793 1.187a3.35 3.35 0 0 0-.289 1.304c.003.391.098.766.274 1.133.18.363.418.676.71.95.293.265.61.456.953.565q.62.178 1.344.262.72.078 1.488.149c.512.043 1.012.117 1.512.215q.743.139 1.394.449c.676.324 1.304.71 1.882 1.176a8 8 0 0 1 1.535 1.585 7.5 7.5 0 0 1 1.031 1.992c.243.734.371 1.535.375 2.398q-.005 1.85-.586 3.39a7.7 7.7 0 0 1-1.675 2.68 7.6 7.6 0 0 1-2.656 1.761c-1.039.414-2.214.629-3.519.633a7.5 7.5 0 0 1-2.023-.3 10.8 10.8 0 0 1-2.148-.88 11.4 11.4 0 0 1-2.054-1.398 10.3 10.3 0 0 1-1.739-1.867 8.8 8.8 0 0 1-1.207-2.288M352.83 49.634h15.981v3.851h-6v22.348h-3.956V53.485h-6.026zM381.86 49.634l-8.854 26.172h4.374l2.382-7.385h8.386l2.542 7.385h4.242l-8.96-26.172zm4.741 14.697h-5.343l2.62-7.807zM399.1 49.634h15.981v3.851h-5.999v22.348h-3.956V53.485h-6.027zM421.498 75.833h4.113V49.635h-4.113zM441.827 76.33q-2.053.005-3.742-.774-1.697-.78-2.925-2.421-1.23-1.646-1.898-4.234-.679-2.585-.684-6.194.005-3.545.633-6.113c.426-1.718 1.031-3.128 1.832-4.233.797-1.102 1.765-1.926 2.906-2.457 1.14-.531 2.433-.8 3.878-.797q1.794.01 3.25.684a7.9 7.9 0 0 1 2.558 1.906c.738.828 1.359 1.8 1.855 2.933a16.7 16.7 0 0 1 1.125 3.737c.254 1.36.382 2.812.382 4.34a32 32 0 0 1-.164 3.284q-.17 1.636-.562 3.16a13.5 13.5 0 0 1-1.07 2.824 8.7 8.7 0 0 1-1.687 2.277 7.1 7.1 0 0 1-2.426 1.523c-.937.363-2.027.55-3.261.554m0-4.14c.824.003 1.547-.176 2.156-.532q.926-.537 1.535-1.671c.406-.762.707-1.742.906-2.95.203-1.198.3-2.647.3-4.33q.007-4.647-1.198-6.995c-.809-1.567-2.039-2.356-3.699-2.36q-1.271-.004-2.226.512c-.645.344-1.176.887-1.61 1.633q-.643 1.113-.972 2.894c-.218 1.195-.328 2.628-.328 4.316.003 2.152.207 3.933.606 5.335q.597 2.103 1.745 3.128 1.141 1.025 2.785 1.02M457.965 49.634h3.457l9.982 17.056V49.634h4.168v26.2h-3.539L462.05 58.91v16.923h-4.085z" style="fill:#fff;fill-opacity:1;fill-rule:nonzero;stroke:none"/>
  <path d="M218.584 144.147v-27.195h6.21v27.195c.003.863.203 1.691.582 2.484q.561 1.178 1.55 2.12a7.6 7.6 0 0 0 2.243 1.481q1.265.549 2.66.555c.898 0 1.76-.149 2.604-.45a7.6 7.6 0 0 0 2.281-1.277 6.2 6.2 0 0 0 1.61-1.984c.402-.77.609-1.624.617-2.574v-27.55h6.092v26.722c-.01 1.477-.21 2.883-.628 4.207a13.3 13.3 0 0 1-1.778 3.66 12.6 12.6 0 0 1-2.788 2.882c-1.09.82-2.3 1.449-3.648 1.894-1.351.445-2.804.676-4.363.68a12.9 12.9 0 0 1-4.198-.7 13.4 13.4 0 0 1-3.636-1.913 13.7 13.7 0 0 1-2.863-2.844 12.8 12.8 0 0 1-1.871-3.51 11.7 11.7 0 0 1-.676-3.883M258.59 116.952h5.187l14.974 25.582v-25.582H285v39.299h-5.308l-14.97-25.387v25.387h-6.132zM298.595 116.952h23.973v6.132h-17.724v9.784h11.553v6.17h-11.553v17.213h-6.249zM332.196 116.952h22.516v6.288h-16.424v9.667h11.475v6.131h-11.475v11.08h17.88v6.133h-23.972zM367.014 116.952h5.187l14.974 25.582v-25.582h6.25v39.299h-5.308l-14.97-25.387v25.387h-6.133zM424.271 126.58c-.453-.97-.949-1.774-1.5-2.41a5.2 5.2 0 0 0-1.913-1.434c-.735-.324-1.598-.48-2.598-.48-1.062.006-1.992.195-2.804.562a6.4 6.4 0 0 0-2.105 1.516 9.2 9.2 0 0 0-1.504 2.206c-.414.832-.746 1.711-1.004 2.644a23 23 0 0 0-.593 2.832q-.211 1.425-.29 2.75a39 39 0 0 0-.073 2.425c0 .832.054 1.734.164 2.718.105.98.289 1.988.539 3.012a17.3 17.3 0 0 0 1 2.948c.413.95.933 1.793 1.538 2.54a6.9 6.9 0 0 0 2.172 1.784c.836.437 1.792.668 2.878.672.598-.003 1.219-.149 1.855-.426a8.2 8.2 0 0 0 1.856-1.113 10 10 0 0 0 1.581-1.578c.461-.582.801-1.18 1.035-1.797l5.816 1.457a16.3 16.3 0 0 1-1.742 3.87 13 13 0 0 1-2.593 3.032c-1 .85-2.129 1.515-3.387 1.98q-1.873.696-4.104.707c-1.781-.013-3.375-.29-4.781-.844a11.8 11.8 0 0 1-3.714-2.3 14.5 14.5 0 0 1-2.73-3.418 20.5 20.5 0 0 1-1.855-4.195 29 29 0 0 1-1.063-4.616 35 35 0 0 1-.36-4.71c0-1.203.06-2.46.185-3.785.125-1.316.328-2.648.609-3.987q.421-2.005 1.125-3.906a19 19 0 0 1 1.75-3.535 13.3 13.3 0 0 1 2.456-2.882 10.7 10.7 0 0 1 3.27-1.945q1.847-.7 4.163-.707 2.765-.011 5.108.824a11.9 11.9 0 0 1 4.218 2.593c1.246 1.172 2.3 2.68 3.172 4.52zM441.17 116.952h22.517v6.288h-16.423v9.667h11.474v6.131h-11.474v11.08h17.88v6.133H441.17zM475.986 116.952h11.002q2.917.015 5.331.976a13.2 13.2 0 0 1 4.285 2.777q1.875 1.799 3.163 4.324 1.29 2.513 1.957 5.624c.449 2.078.672 4.304.672 6.694q.002 2.152-.442 4.375a23 23 0 0 1-1.308 4.335 20.3 20.3 0 0 1-2.168 3.952 16 16 0 0 1-3.007 3.242 13.4 13.4 0 0 1-3.831 2.195c-1.414.527-2.969.797-4.652.805h-11.002zm6.249 32.932h4.519q1.839-.009 3.26-.648a8.1 8.1 0 0 0 2.485-1.703q1.05-1.073 1.785-2.398c.488-.883.878-1.8 1.175-2.738.3-.937.516-1.847.649-2.718.129-.871.195-1.644.195-2.332q.01-1.396-.172-2.98a22 22 0 0 0-.594-3.183 16.2 16.2 0 0 0-1.12-3.046 10.6 10.6 0 0 0-1.762-2.586 7.7 7.7 0 0 0-2.523-1.796c-.969-.438-2.093-.668-3.378-.672h-4.52zM297.26 182.028v9.627h8.487a4.2 4.2 0 0 0 1.886-.457 5 5 0 0 0 1.508-1.187 5.6 5.6 0 0 0 1.003-1.656c.235-.601.36-1.219.36-1.847a3.9 3.9 0 0 0-.418-1.742 4.8 4.8 0 0 0-1.121-1.43 5.3 5.3 0 0 0-1.594-.953 5.1 5.1 0 0 0-1.859-.355zm-6.011-6.132h14.619a9.9 9.9 0 0 1 3.32.586 10.7 10.7 0 0 1 2.894 1.617 11.3 11.3 0 0 1 2.3 2.437 11.5 11.5 0 0 1 1.511 3.023q.54 1.64.543 3.421c-.003 1.21-.156 2.305-.453 3.27a9.4 9.4 0 0 1-1.234 2.593 11.2 11.2 0 0 1-1.863 2.081 18 18 0 0 1-2.304 1.723l7.073 18.548h-6.444l-6.367-17.213h-7.584v17.213h-6.011zM339.073 215.944c-2.05.008-3.925-.378-5.612-1.16q-2.54-1.167-4.39-3.636-1.846-2.461-2.847-6.346-1.013-3.879-1.023-9.292c.007-3.542.32-6.604.949-9.17.636-2.574 1.546-4.691 2.745-6.347q1.798-2.485 4.363-3.687t5.815-1.191c1.797.003 3.418.347 4.875 1.02a11.8 11.8 0 0 1 3.835 2.862c1.11 1.238 2.039 2.699 2.785 4.394.746 1.691 1.312 3.558 1.69 5.608.38 2.043.571 4.219.571 6.511a49 49 0 0 1-.242 4.925 32.5 32.5 0 0 1-.848 4.742 20 20 0 0 1-1.605 4.237 13 13 0 0 1-2.535 3.414q-1.523 1.47-3.632 2.285c-1.41.542-3.038.824-4.894.831m0-6.21c1.239.008 2.32-.261 3.234-.796.926-.54 1.691-1.371 2.3-2.512.61-1.136 1.063-2.613 1.364-4.42.3-1.801.453-3.969.453-6.496q.005-6.967-1.805-10.494-1.814-3.529-5.546-3.535-1.904-.013-3.339.766c-.965.515-1.761 1.327-2.41 2.448q-.973 1.67-1.46 4.343-.492 2.683-.492 6.472c.007 3.23.308 5.902.902 8.003q.906 3.154 2.62 4.69c1.149 1.028 2.535 1.54 4.18 1.531M373.459 175.9l-13.283 39.26h6.561l3.578-11.085h12.576l3.812 11.084h6.366l-13.44-39.26zm7.112 22.047h-8.015l3.93-11.713zM403.325 175.9h11.002c1.945.008 3.722.336 5.332.976a13.2 13.2 0 0 1 4.284 2.777q1.875 1.799 3.164 4.324 1.287 2.513 1.96 5.624c.445 2.078.668 4.304.668 6.694q.002 2.153-.441 4.374a23 23 0 0 1-1.309 4.336 20.3 20.3 0 0 1-2.167 3.952 16 16 0 0 1-3.008 3.242 13.4 13.4 0 0 1-3.831 2.195c-1.414.527-2.968.797-4.652.804h-11.002zm6.25 32.932h4.518c1.222-.008 2.312-.222 3.261-.648a8 8 0 0 0 2.484-1.703q1.051-1.073 1.785-2.398c.488-.883.879-1.8 1.176-2.738.3-.937.515-1.847.648-2.718.129-.871.195-1.644.195-2.332q.01-1.396-.172-2.98a22 22 0 0 0-.593-3.183 16.2 16.2 0 0 0-1.121-3.046 10.6 10.6 0 0 0-1.762-2.586 7.7 7.7 0 0 0-2.523-1.797c-.968-.437-2.093-.667-3.378-.671h-4.519z" style="fill:#000;fill-opacity:1;fill-rule:nonzero;stroke:none"/>
  <path d="m219.936 289.32-80.507 80.507c-3.418 3.417-9.015 3.417-12.436 0L46.49 289.32c-3.421-3.418-3.421-9.014 0-12.436l80.503-80.507c3.421-3.417 9.018-3.417 12.436 0l80.507 80.507c3.417 3.422 3.417 9.018 0 12.436" style="fill:#fee011;fill-opacity:1;fill-rule:evenodd;stroke:none"/>
  <path d="m218.827 287.87-80.78 80.781c-2.657 2.656-6.996 2.656-9.652 0l-80.78-80.78c-2.652-2.652-2.652-6.995 0-9.647l80.78-80.785c2.656-2.651 6.995-2.651 9.651 0l80.78 80.785c2.652 2.652 2.652 6.995 0 9.647" style="fill:#000;fill-opacity:1;fill-rule:evenodd;stroke:none"/>
  <path d="m216.487 285.363-80.956 80.956a3.29 3.29 0 0 1-4.64 0l-80.956-80.956a3.29 3.29 0 0 1 0-4.64l80.956-80.956a3.29 3.29 0 0 1 4.64 0l80.956 80.956a3.29 3.29 0 0 1 0 4.64" style="fill:#fee011;fill-opacity:1;fill-rule:evenodd;stroke:none"/>
  <path d="m130.758 299.724.777 1.95v2.112l-.109 1.89-.613 2.559.39 1.558.668.555-.222 1.113c0 .445.222.89.554 1.113a1.96 1.96 0 0 0 1.227.445c.554.11 1 .11 1.445.055.445 0 .89-.223 1.28-.387.165 0 .5-.168.61-.39.055-.223 0-.391-.11-.559-.167-.277-.39-.387-.558-.61-.332-.335-.61-1.003-1-1.448-.113 0-.332-.223-.445 0l-.11-1.223c-.866-9.17-.198-9.412 1.5-17.911l.723-4.448c.445-.336.945-.668 1.004-.668.332 0 2.113-1.727 2.222-1.727.059 0 1.95-1.558 2.449-2.113 0 0 .613-.89.613-1.003 0-.723.89-2.5.89-3.113 0-1.39 1.11-4.671 1.223-5.007.223-.945 3.726-3.172 5.284-4.34l.778-.39c.28-.387 1.113-1.777 1.167-1.89 0 0 .891-.668 1.395-.668 1.445 0 1.89.5 2.445.5.89 0 2.449.78 3.171.78.223 0 1.281 1 1.726 1.114l.22.164h.78c.723 0 1.559-.164 2.226-.164 0 0 .387-.558.387-.613 0-.11.281-.445.39-.5 0 0 0-.277.055-.277l.336-.168.445-.446v-.39c0-.11.164-.445.164-.61 0-.167.114-.503.114-.78 0-.333-.114-.668-.114-.891 0-.277-.164-.777-.277-.89-.222-.223-1-.332-1-.332-.277 0-1.39-1.446-1.613-1.559l-1.226-1.113c0-.223-.832-1.113-.832-1.777 0 0-.223-.668-.223-.95 0-.499-.168-1.108-.168-1.612 0-.055-.445-.5-.445-.61 0 0-.277-.39-.277-.445s-.336-.222-.336-.222c-.164 0-.441-.168-.664-.278 0 0-.39.055-.281 0 .059-.113.504-.113.613-.222.055-.059-.168-.223-.168-.223-.11-.058-.777-.222-.777-.39l.332-.39c.059-.056.445-.056.445-.278 0-.11-.445-.11-.445-.11-.445 0-1.113-.445-1.555-.613l.555-.668.668-.5.722-.335 1-.11h.727l.277-.168v-.168l-.336-.164-.832-.28h-1.226l-1.223.058-1.113.386-1 .559c-.335.055-.613-.113-.78-.113h-1.946c-1.222 0-2.894 1.335-3.948 1.335-.114 0-1.504 1.059-1.781 1.059-.168 0-1.39.832-1.39.832-1.004.058-3.285 1.894-4.285 1.949 0 0-.836.277-1.168.277h-4.171c-1.223 0-2.672-.277-4.007-.277H128.7c-2.113 0-4.671.945-6.62.945-1.445 0-3.78.777-5.23.777-2.222 0-4.948.613-7.452.613-1.78 0-4.062-.945-5.397-.945-2.059 0-4.894-1.39-7.066-1.39-.945 0-2.78-.668-4.226-.668-.777 0-2.28.168-3.003.168-.945 0-2.226.609-3.058.945-.836.332-2.058 1.277-2.785 1.277-.11 0-1.222.504-1.554.504-.559 0-1.895.554-2.117.554-.887 0-2.945 1.446-3.336 1.446 0 0-1.113 1.003-1.113 1.226 0 .387-.5 1.5-.5 2.058 0 .723-.336 1.836-.336 2.668 0 1.28.059 2.894.059 4.116 0 2.336.445 4.84.445 7.179v6.561c0 1.113-.113 2.172-.113 3.172 0 .336-.5 1.222-.5 1.445 0 1.058-.336 2.617-.336 3.616 0 1.336-.222 2.95-.222 4.23 0 .777.058 1.555.058 2.223 0 .89.5 2.003.5 2.894 0 .222.168.835.5 1.222 0-1 .055-1.5.055-2.113 0-.445.277-1 .277-1.336 0-.445.281-1.113.613-1.445.168.446.113 1.445.113 1.89 0 .56.055 1.227.5 2.227v-2.113c0-.781.223-1.558.223-2.004 0-.668.5-1.667.5-2.449 0-1.222.223-2.503.223-3.835 0-1.449-.5-2.894-.5-4.23 0-.222-.446-.777-.446-1.222 0-2.172.168-4.285.168-6.452 0-1.836.055-3.73.055-5.62 0-1.168-.781-3.84.277-3.84 1.168 0 1.281 3.672 1.39 4.117 0 0 2.672.336 2.895 1.004.445 1.167-.113.945.11 2.28-.555-.335-.446 1.614-.446 2.059v2.722c0 .89.336 1.894.336 2.671 0 .391.668 1.39.668 1.836 0 .445.445 1.336.668 1.89.109.223-.446.946-.446 1.114 0 .222-.89 1.503-.89 1.503-.336.445-1.672 1.836-2.117 2.558 0 0-.387.555-.387.723s-.168.445-.168.613c0 .89.168 2 .168 2.558 0 2.672 1.055 5.785 1.055 8.624v6.116c0 .223.222.336.222.559 0 .11.114.277.114.277.109-.168.445-.613.445-.836l.223-.11.109-.222h.223l.113.223c0 .11.11.223.11.332 0 0 .222.113.222.277v.281c0 .055.113.223.113.332 0 0 0 .168-.113.278-.11.222 0 .39 0 .5.222.28.336.667.558.89.332.113.555.223.887.39.613-.109 1.336-.109 2.058-.109.281-.113.668-.28.95-.336.163-.168.444-.332.608-.554v-.114c-.277-.222-.386-.386-.609-.445-.281-.445-.78-.832-1.113-1.113-.168-.164-1.113-1.054-1.39-1.054l-.282-.336v-.555c0-2.113-.554-4.23-.554-6.452 0-.723.113-1.949.113-2.617 0-.61.945-1.89 1.168-2.558 0 0 .11-.11.223-.332l2 3.558 1.167 3.449.39 1.949.5 2.226.446 1.445.336-.445.222-.777.332.886v1.004c-.277.11.223.61.223.89 0 0 .277.332.39.332.778 0 1.559.336 2.336.336.445 0 1.113-.336 1.445-.336.223 0 .89-.554.89-.777 0-.113-.445-.445-.445-.445-.109-.223-.89-1.336-1.335-1.45l-.668-.331-.778-.89c-.43-3.766-3.944-7.246-3.116-11.07l.445-3.67c-.11.667.059 1 .059 1.335v1.555s.5.113.554 0c.055-.11.445-.778.445-1.055 0-.39.055-1.504.168-1.504 0 0 1.113.278 1.113.336v1.168c0 .5.11 1.277.11 1.5 0 0 .668.113.668 0 .113-.11.222-.555.222-.555 0-.445.332-1 .332-1.335 0-.278.114-.778.114-.946 0-.113.554-.113.554 0 0 .223-.11.778-.11 1.168s.223 1 .333 1.113h.445c0-.222.559-1.113.559-1.558 0-.223-.114-.89-.114-1 0 0 1.227-.39 1.336-.39.277 0 1.39-.89 1.39-.89.223 0 1.281-1.114 1.281-1.114 0-.055.832-1.332 1.055-1.89.336-.055 1.336-.055 1.672-.055 1.167 0 2.667.777 3.78.777.223 0 1.223.836 1.668.836.113 0 .613.11.89.11h2.118c1.276 0 2.89-.5 3.835-.5 1.671 0 4.116-1.39 6.007-1.39 1.226 0 3.007-.278 4.507-.278h1.445c.222 0 .949 1.222.949 1.667 0 1.336-.113 2.781-.113 4.23 0 1.555.113 3.336.113 4.84 0 1.112.164 2.28.164 3.28 0 .89-.5 2.058-.5 2.836 0 .28-.445 1.171-.445 1.449 0 0-.332.332-.332.445v.668c0 .668.609 1.445.609 2.113 0 .445.168.89.168 1.335 0 .332-.168.668-.168 1 0 .11-.11.332-.11.555.11.445.446 1.058.614 1.504 0 0 .386.277.445.277.5 0 1.277.39 1.836.39h1.109c.39 0 .89-.222 1.168-.335 0 0 .445-.332.558-.446l-.113-.386c0-.278-.668-.613-.668-.613-.11-.223-.664-.946-.777-1.168 0 0-.332-.445-.5-.613 0-.387-.613-.946-.613-1.278 0 0-.223-.222-.223-.445v-.668c0-.445.5-1.222.5-1.78v-1c0-.559-.164-1.114-.164-1.614 0-1.003.668-2.503.668-2.894 0-.777.277-1.78.777-2.78zm48.84 10.07.055 1.058-.11.886v.89l.446 1.004.222.778.278.167.722.223.559-.113.054-.11-.054-.167.164-.223-.555-.89c-1.011-2.266-.324-5.816.332-8.01l.113-.555-.445-.446.5-.222.168-.778-.336-.28.336-.387-.055-.946c.332-.28.446-.78.446-1.113 0-.113.554-.222.554-.222s.332-.336.332-.39c0-.11.168-.556.168-.669l.39-.445c0-.168.169-.777.169-.832 0-.113.277-.336.277-.336s.11-.5.11-.722l.222-.336c0-.11.39-.445.39-.668v-.832c0-.055.5-.223.5-.223 0-.054.114-.39.114-.613 0-.11.11-.277.11-.5 0 0 .335-.332.335-.445v-.723c0-.054.387-.113.441-.222l.282-.445c0-.39.554-.89.554-1.336 0 0 .223-.445.223-.668 0-.11.113-.555.113-.555 0-.277.223-.558.5-1.003h1.277c.813.32.988-.063 1.726-.164h.11l.168-.223.39-.558.11-.387v-.168l-.332-.836-1.613-2.726c.109-.277.386-.387.386-.61 0-.113-.164-.335-.164-.445v-.835l-.113-.39-.387-.055s-.113-.391-.113-.5c0-.11-.277-.391-.277-.391-.114 0-.39-.164-.559-.164-.164 0-.386.164-.386.164-.223 0-.559-.387-.723-.387h-.613c-.055 0-.168.223-.278.223-.222 0-.613-.168-.945-.168-.113 0-.336.168-.558.168 0 0-.277.5-.39.555-.223.109-.723 0-1 0-.169 0-.723.667-.723.667l-.559.391s-.332.332-.332.387c0 .113-.054.558-.054.558-.114 0-.559.223-.723.277 0 0-.168.391-.168.555 0 .168.11.504.11.504 0 .223-.555.387-.668.387 0 0-.219.28-.219.5v.503s-.445.387-.445.446c-.059.109-.39.386-.39.5v.5l-.337.109s-.332.668-.445.668c0 0-.554.113-.61.113-.113 0-.444.168-.5.223-.058 0-.112.445-.222.445-.28 0-.726-.277-.949-.277-.219 0-.5.109-.832.109-.054 0-.277.168-.336.168-.332 0-.554-.223-.667-.223-.332 0-.61.055-.723.055-.11 0-.332.277-.445.277-.278 0-.555-.11-.777-.11-.168 0-.5.11-.555.11-.113 0-.168.39-.504.39-.277 0-.387-.335-.61-.335-.276 0-.612.113-.835.113-.11 0-.332-.168-.5-.168h-.39c-.332 0-.332.5-.61.5-.222 0-.504-.332-.613-.332h-.89c-.055 0-.223.332-.332.332-.114 0-.223-.332-.391-.332h-.558c-.055 0-.332.11-.332.11s-.336.445-.555.445c-.223 0-.39-.555-.668-.555h-.445c-.223 0-.445.223-.559.223-.054 0-.222-.114-.222-.114H162.3c-.113 0-.222.282-.39.282-.114 0-.332-.168-.332-.168h-.504c-.11 0-.5.554-.668.554 0 0-.555.114-.668.114-.055 0-.5.445-.5.445s-.164.5-.164.613l-.949.387-.332.222-.113.446-.5.277-.332.5-.055.558-.558.5-.055.5.055.445-.223.559-.054.445.109.11-.055.5.113.39.555.223c.168.835.39 1.058.39 1.335v.777c0 .168.278.559.278.559s.445.11.445.223c0 .109-.332.445-.332.445 0 .277.164.5.164.61 0 .112.277.112.277.276 0 .282-.109.559-.109.668v.39c0 .169.223.391.223.555 0 .282-.39.559-.39.668v.559c0 .11.167.386.167.386 0 .168-.613.336-.613.391 0 .223-.055.723-.055.945 0 .059-.39.223-.445.223 0 0-.11.277-.11.336 0 .222.165.445.165.554 0 .223-.278.336-.278.336 0 .055-.222.278-.222.555v.5c0 .054.781.722.836.668v.667l.054.946.223 1.503v2.504l.277.11c1.082.772-.722 1.698 2.004 1.39l.332-.11-.055-.168.277-.277-.554-.945-.277-1.113-.278-1.39v-1.895l.332-1.168c1.445-1.5 1 1.836 1 2.84l.059.832c1.218 1-.496 2.644 2.503 2.171l.164-.168-.054-.222.113-.11.055-.168-.446-.722-.39-1.004-.223-1.277.114-2.004v-1.277h.5l.554-.504-.164-.554.5.168.332-.836v-.5l.558-.168.223-.668-.223-.613.668-.61c.11-.222.387 0 .387 0s.168.223.277.223c.168 0 .336-.054.39-.054.055 0 .223-.168.391-.168s.278.445.5.445h.555c.113 0 .281-.223.558-.223.055 0 .168.223.168.223.11.055.332.277.387.277h.336c.223 0 .445-.277.555-.277.113 0 .277.277.335.277h.891c.054 0 .054-.445.164-.445.113 0 .336.332.445.332 0 0 .336.058.445 0 .114 0 .168-.387.336-.387.11 0 .332.387.5.387.055 0 .332-.164.555-.164 0 0 .054-.277.277-.277.113 0 .113.277.336.277s.5-.277.832-.277v.277c0 .164.336.277.336.5 0 .11-.223.277-.223.554 0 .223.223.446.223.559 0 0 .39.168.39.332 0 .168-.39.39-.39.723 0 .113.11.503.11.503s.28.278.444.387l.39 1.113.055 1.281v1.223l-.164 1.445-.058 1.226v.668l.222.11.282.112.109.446.11.664.39.168 1.004.168.554-.168.223-.11-.11-.167.22-.11.058-.226-.613-.777-.278-.555-.277-.723-.113-.726-.11-1.39.223-1.223.277-1.836.223-.945c.054-.054.39-.277.61-.5l.39.555.222 1.504z" style="fill:#000;fill-opacity:1;fill-rule:evenodd;stroke:none"/>
  <path d="M284.078 245.764h196.489c12.01 0 21.833 9.827 21.833 21.833v104.796c0 12.006-9.823 21.828-21.833 21.828H284.078c-12.006 0-21.832-9.822-21.832-21.828V267.597c0-12.01 9.826-21.833 21.832-21.833" style="fill:#fee011;fill-opacity:1;fill-rule:evenodd;stroke:none"/>
  <path d="M284.078 250.13c-9.596 0-17.466 7.87-17.466 17.467v104.796c0 9.596 7.87 17.462 17.466 17.462h196.489c9.6 0 17.466-7.866 17.466-17.462V267.597c0-9.597-7.866-17.466-17.466-17.466z" style="fill:#000;fill-opacity:1;fill-rule:evenodd;stroke:none"/>
  <path d="M284.078 254.497c-7.186 0-13.1 5.913-13.1 13.1v104.796c0 7.186 5.914 13.1 13.1 13.1h196.489c7.186 0 13.1-5.914 13.1-13.1V267.597c0-7.187-5.91-13.1-13.1-13.1z" style="fill:#fee011;fill-opacity:1;fill-rule:evenodd;stroke:none"/>
  <path d="M286.254 267.608h4.085l1.992 13.701 3.694-13.7h3.695l3.379 13.7 1.991-13.7h4.086l-3.613 26.198h-3.695l-4.112-16.454-4.113 16.454h-3.695zM321.147 267.608l-8.855 26.172h4.375l2.382-7.386h8.386l2.542 7.386h4.242l-8.96-26.172zm4.741 14.697h-5.343l2.62-7.807zM337 267.608h15.981v3.851h-5.999v22.348h-3.956V271.46H337zM369.51 274.03c-.3-.645-.633-1.184-1-1.606a3.4 3.4 0 0 0-1.273-.957c-.492-.215-1.066-.32-1.734-.32-.707.003-1.328.133-1.87.375a4.4 4.4 0 0 0-1.403 1.011 6.3 6.3 0 0 0-1.004 1.469 10 10 0 0 0-.668 1.765 16 16 0 0 0-.398 1.887 23 23 0 0 0-.238 3.448c0 .555.035 1.156.109 1.812q.106.987.36 2.008.245 1.023.667 1.965a7 7 0 0 0 1.023 1.695c.41.503.89.902 1.445 1.187q.839.441 1.922.449a3.2 3.2 0 0 0 1.238-.281c.426-.184.84-.434 1.234-.742a6.6 6.6 0 0 0 1.059-1.055c.304-.386.53-.785.687-1.195l3.878.969q-.433 1.41-1.16 2.581a8.8 8.8 0 0 1-1.73 2.023 7.4 7.4 0 0 1-2.257 1.317q-1.252.467-2.738.472c-1.187-.008-2.25-.191-3.187-.562a7.8 7.8 0 0 1-2.476-1.535 9.6 9.6 0 0 1-1.82-2.277 14 14 0 0 1-1.238-2.797 19 19 0 0 1-.707-3.077 23 23 0 0 1-.238-3.14c0-.805.039-1.64.12-2.523q.126-1.32.407-2.66.28-1.336.75-2.601.472-1.265 1.167-2.36a8.7 8.7 0 0 1 1.637-1.92 7.2 7.2 0 0 1 2.18-1.298q1.23-.461 2.776-.472 1.841-.005 3.406.55a7.95 7.95 0 0 1 2.812 1.73q1.241 1.173 2.113 3.012zM378.392 267.608h4.034v10.374h9.46v-10.374h4.112v26.2h-4.113v-11.475h-9.459v11.474h-4.034zM418.764 267.608h15.982v4.086h-11.815v6.526h7.702v4.113h-7.702v11.474h-4.167zM446.955 294.307c-1.367.003-2.617-.254-3.742-.773q-1.697-.78-2.925-2.422-1.23-1.645-1.898-4.233-.679-2.585-.683-6.195.005-3.545.632-6.112c.426-1.718 1.031-3.128 1.832-4.234.797-1.101 1.765-1.925 2.906-2.456 1.14-.532 2.433-.801 3.878-.797 1.195.008 2.281.234 3.25.683a7.9 7.9 0 0 1 2.558 1.906c.738.828 1.359 1.8 1.855 2.933.496 1.125.875 2.371 1.125 3.738.253 1.36.383 2.812.383 4.34a32 32 0 0 1-.164 3.284 21.6 21.6 0 0 1-.563 3.16 13.5 13.5 0 0 1-1.07 2.823 8.7 8.7 0 0 1-1.687 2.277c-.68.657-1.488 1.16-2.426 1.524-.937.363-2.027.55-3.26.554m0-4.14c.824.003 1.547-.175 2.156-.53.617-.36 1.129-.915 1.535-1.673q.608-1.143.906-2.948c.203-1.203.3-2.648.3-4.332q.007-4.645-1.198-6.995c-.809-1.566-2.04-2.355-3.7-2.359q-1.27-.004-2.225.512c-.645.344-1.176.887-1.61 1.633q-.644 1.113-.972 2.894c-.219 1.195-.328 2.628-.328 4.315.003 2.152.207 3.933.601 5.335q.603 2.104 1.75 3.129c.762.683 1.687 1.023 2.785 1.02M464.796 271.697v6.417h5.66a2.7 2.7 0 0 0 1.257-.304c.383-.195.719-.461 1.004-.79q.433-.496.668-1.104c.156-.403.242-.813.242-1.23a2.6 2.6 0 0 0-.282-1.165 3.2 3.2 0 0 0-.745-.949 3.6 3.6 0 0 0-1.063-.64 3.5 3.5 0 0 0-1.238-.235zm-4.007-4.085h9.744a6.6 6.6 0 0 1 2.215.387c.7.258 1.343.62 1.93 1.078a7.5 7.5 0 0 1 1.53 1.625q.65.927 1.012 2.019c.238.726.355 1.488.36 2.277-.004.808-.102 1.539-.302 2.18a6.2 6.2 0 0 1-.824 1.73 7.6 7.6 0 0 1-1.238 1.386q-.707.627-1.539 1.148l4.714 12.365h-4.296l-4.241-11.474h-5.058v11.474h-4.007zM286.554 306.907h4.086l1.991 13.7 3.695-13.7h3.695l3.378 13.7 1.992-13.7h4.085l-3.612 26.199h-3.695l-4.113-16.455-4.112 16.455h-3.695zM321.451 306.907l-8.854 26.172h4.374l2.383-7.386h8.385l2.543 7.386h4.241l-8.96-26.172zm4.742 14.697h-5.343l2.616-7.808zM339.054 306.907h3.456l9.983 17.056v-17.056h4.168v26.199h-3.539l-9.983-16.923v16.923h-4.085zM362.714 306.907h7.335q1.944.006 3.554.652a8.7 8.7 0 0 1 2.855 1.851q1.254 1.197 2.11 2.879c.573 1.12 1.01 2.367 1.308 3.753q.444 2.073.445 4.46c0 .957-.098 1.934-.293 2.918a15.5 15.5 0 0 1-.875 2.89 13.2 13.2 0 0 1-1.445 2.632 10.5 10.5 0 0 1-2.003 2.164 8.9 8.9 0 0 1-2.555 1.46q-1.416.534-3.1.54h-7.336zm4.168 21.953h3.01q1.227-.006 2.176-.43a5.3 5.3 0 0 0 1.652-1.136 7.4 7.4 0 0 0 1.195-1.597c.32-.59.582-1.203.782-1.828.199-.621.343-1.23.43-1.812q.133-.865.132-1.555a17 17 0 0 0-.113-1.984 15 15 0 0 0-.399-2.124 10.6 10.6 0 0 0-.746-2.027 7 7 0 0 0-1.175-1.727 5.1 5.1 0 0 0-1.68-1.195q-.971-.44-2.253-.453h-3.012zM384.98 306.907h15.014v4.19h-10.952v6.445h7.647v4.09h-7.647v7.385h11.92v4.089H384.98zM409.816 310.992v6.417h5.66c.453-.003.87-.11 1.257-.305q.575-.294 1.004-.788.434-.498.668-1.106c.156-.402.242-.812.242-1.23a2.6 2.6 0 0 0-.281-1.164 3.2 3.2 0 0 0-.746-.949 3.54 3.54 0 0 0-2.3-.875zm-4.007-4.085h9.745a6.6 6.6 0 0 1 2.214.387c.7.257 1.344.62 1.93 1.077a7.766 7.766 0 0 1 2.543 3.644q.354 1.092.358 2.277c-.003.809-.101 1.54-.3 2.18a6.2 6.2 0 0 1-.824 1.73 7.5 7.5 0 0 1-1.242 1.386q-.703.627-1.535 1.149l4.714 12.365h-4.296l-4.242-11.475h-5.058v11.475h-4.007zM428.08 333.106h4.113v-26.199h-4.114zM438.242 306.907h3.456l9.983 17.056v-17.056h4.167v26.199h-3.538l-9.983-16.923v16.923h-4.085zM473.822 313.59a8.3 8.3 0 0 0-1.012-1.57 3.9 3.9 0 0 0-1.304-1.032c-.496-.246-1.094-.37-1.797-.386-.832.011-1.538.171-2.117.492a4.1 4.1 0 0 0-1.437 1.304 7 7 0 0 0-.89 1.867 13.5 13.5 0 0 0-.473 2.176 23 23 0 0 0-.184 2.234 46 46 0 0 0-.035 2.042q0 1.29.168 2.562c.11.848.285 1.648.535 2.406s.582 1.426.996 2.015a4.6 4.6 0 0 0 1.52 1.383c.601.336 1.312.504 2.128.516a3.5 3.5 0 0 0 1.27-.258q.608-.252 1.116-.664c.34-.273.641-.574.895-.898.254-.32.449-.645.59-.965.14-.316.214-.602.214-.86v-1.675h-4.48v-4.14h8.566v5.476a7.3 7.3 0 0 1-.446 2.511 8 8 0 0 1-1.226 2.191 8.6 8.6 0 0 1-1.828 1.734 8.8 8.8 0 0 1-2.273 1.145 8.1 8.1 0 0 1-2.53.41c-1.157-.003-2.188-.184-3.102-.54a7.7 7.7 0 0 1-2.398-1.464 9.3 9.3 0 0 1-1.754-2.195 13 13 0 0 1-1.18-2.695q-.45-1.453-.663-2.995a23 23 0 0 1-.203-3.082 37 37 0 0 1 .16-3.566c.11-1.164.293-2.28.555-3.339a13.6 13.6 0 0 1 1.074-2.93 8.7 8.7 0 0 1 1.71-2.327 7.2 7.2 0 0 1 2.465-1.535q1.436-.549 3.335-.555a7.6 7.6 0 0 1 2.523.426q1.206.417 2.242 1.195a9.2 9.2 0 0 1 1.828 1.86 10.4 10.4 0 0 1 1.32 2.417zM317.194 346.205l-8.854 26.172h4.374l2.383-7.385h8.385l2.543 7.385h4.241l-8.96-26.172zm4.741 14.697h-5.342l2.62-7.807zM334.797 346.205h3.456l9.983 17.056v-17.056h4.167v26.2h-3.538l-9.983-16.924v16.923h-4.085zM358.457 372.404h4.113v-26.198h-4.113zM368.62 346.205h3.956l6.288 15.143 5.843-15.143h4.218v26.2h-4.062v-15.197l-5.948 15.196-6.105-15.196v15.196h-4.19zM402.364 346.205l-8.854 26.172h4.375l2.382-7.385h8.385l2.543 7.385h4.242l-8.96-26.172zm4.742 14.697h-5.343l2.617-7.807zM419.971 346.205h4.007v22.349h11.975v3.85H419.97zM438.73 366.167l3.984-1.336c.359.739.738 1.352 1.128 1.856q.585.745 1.281 1.19c.461.298.992.512 1.574.645a9.5 9.5 0 0 0 2.016.188c.414-.003.828-.11 1.253-.313.422-.2.817-.476 1.176-.82.36-.34.652-.73.87-1.156.223-.43.337-.87.34-1.328.004-.68-.093-1.273-.308-1.789-.21-.511-.57-.953-1.066-1.32q-.75-.553-2.03-.922-1.28-.366-3.196-.581a3.7 3.7 0 0 1-.742-.153 8 8 0 0 1-.96-.347 9 9 0 0 1-1.063-.547 8 8 0 0 1-1.035-.758 5.6 5.6 0 0 1-1.039-1.12 5.7 5.7 0 0 1-.777-1.586 6.9 6.9 0 0 1-.305-2.063q.006-1.516.442-2.788a7.8 7.8 0 0 1 1.203-2.281 8 8 0 0 1 1.808-1.715 8.5 8.5 0 0 1 2.23-1.074 8.6 8.6 0 0 1 2.492-.37q1.827 0 3.222.62 1.39.622 2.421 1.895 1.032 1.27 1.77 3.222l-3.906 1.18c-.176-.532-.41-.973-.687-1.317a3.3 3.3 0 0 0-.957-.808 4.5 4.5 0 0 0-1.125-.434 7.4 7.4 0 0 0-1.21-.164 3.3 3.3 0 0 0-1.442.336c-.445.215-.836.5-1.172.863-.34.36-.601.758-.792 1.187a3.35 3.35 0 0 0-.29 1.305q.008.583.274 1.132c.18.364.418.676.71.95.293.265.61.457.954.566.414.117.859.207 1.343.261q.72.077 1.488.149a14 14 0 0 1 1.512.215q.743.139 1.394.449c.676.324 1.305.71 1.883 1.175a8 8 0 0 1 1.535 1.586 7.4 7.4 0 0 1 1.03 1.996 7.7 7.7 0 0 1 .376 2.394q-.006 1.85-.586 3.39a7.7 7.7 0 0 1-1.676 2.68 7.6 7.6 0 0 1-2.656 1.76c-1.039.415-2.214.63-3.519.634a7.5 7.5 0 0 1-2.023-.301 10.8 10.8 0 0 1-2.148-.879 11.4 11.4 0 0 1-2.054-1.398 10.3 10.3 0 0 1-1.738-1.867 8.8 8.8 0 0 1-1.207-2.289" style="fill:#000;fill-opacity:1;fill-rule:nonzero;stroke:none"/>
</svg>
