<svg xmlns="http://www.w3.org/2000/svg" xml:space="preserve" viewBox="-.451 -.943 122.655 81.784" role="img" aria-labelledby="title">
  <title id="title">Verkehrszeichen W8-15 - Merge Right</title>
  <path d="M7.729-.943h106.289a8.17 8.17 0 0 1 8.186 8.18v65.418a8.177 8.177 0 0 1-8.186 8.186H7.729a8.175 8.175 0 0 1-8.18-8.186V7.237a8.17 8.17 0 0 1 8.18-8.18" style="fill:#fee011;fill-opacity:1;fill-rule:evenodd;stroke:none"/>
  <path d="M7.648.718h106.41c3.577 0 6.485 2.908 6.485 6.479v65.544c0 3.571-2.908 6.479-6.485 6.479H7.648a6.49 6.49 0 0 1-6.479-6.48V7.198A6.49 6.49 0 0 1 7.648.718" style="fill:#000;fill-opacity:1;fill-rule:evenodd;stroke:none"/>
  <path d="M7.648 4h106.456a3.17 3.17 0 0 1 3.196 3.197v65.544a3.174 3.174 0 0 1-3.196 3.196H7.648a3.17 3.17 0 0 1-3.197-3.196V7.197a3.167 3.167 0 0 1 3.197-3.196" style="fill:#fee011;fill-opacity:1;fill-rule:evenodd;stroke:none"/>
  <path d="M18.407 10.522h2.782l4.818 9.718 4.567-9.718h2.907v16.363H30.7v-9.718l-4.693 9.718-4.817-9.594v9.594h-2.782zM39.71 10.522h11.712v2.824h-8.93v3.406h4.943v2.824h-4.942v4.485h9.261v2.824H39.71zM56.738 10.522h7.89c2.492 0 4.776 2.368 4.776 4.859 0 1.661-.83 4.111-2.699 4.568l3.073 6.936h-3.073l-2.907-6.396H59.52v6.396h-2.782zm2.782 2.824v4.319h5.108c1.08 0 2.077-.997 2.077-2.118 0-.789-1.246-2.201-2.077-2.201zM83.233 15.547c-.665-1.661-1.828-2.201-3.53-2.201-2.16 0-3.779 2.575-3.738 4.485 0 3.946 1.412 6.312 4.194 6.312 1.164 0 3.199-1.328 3.199-2.657h-2.659v-2.824h5.565V22.4c-1.411 2.698-3.156 4.485-6.395 4.485-5.109 0-6.645-4.734-6.645-9.054 0-3.613 2.783-7.309 6.645-7.309 2.491 0 4.941 1.703 6.021 3.945zM91.248 10.522h11.711v2.824H94.03v3.406h4.943v2.824H94.03v4.485h9.262v2.824H91.248zM24.387 34.072h7.89c2.492 0 4.776 2.368 4.776 4.859 0 1.661-.83 4.111-2.699 4.569l3.073 6.935h-3.073l-2.907-6.395h-4.278v6.395h-2.782zm2.782 2.824v4.319h5.108c1.08 0 2.077-.997 2.077-2.118 0-.789-1.246-2.201-2.077-2.201z" style="fill:#000;fill-opacity:1;fill-rule:evenodd;stroke:none"/>
  <path d="M42.203 50.435h2.824V34.072h-2.824z" style="fill:#000;fill-opacity:1;fill-rule:nonzero;stroke:none"/>
  <path d="M59.812 39.097c-.665-1.661-1.828-2.201-3.53-2.201-2.16 0-3.78 2.575-3.738 4.485 0 3.945 1.411 6.312 4.194 6.312 1.164 0 3.199-1.328 3.199-2.657h-2.66v-2.824h5.566v3.738c-1.411 2.698-3.156 4.485-6.395 4.485-5.109 0-6.645-4.734-6.645-9.054 0-3.613 2.782-7.309 6.645-7.309 2.491 0 4.941 1.703 6.021 3.945zM67.827 34.072h2.782v6.395h7.434v-6.395h2.824v16.363h-2.824v-7.31h-7.434v7.31h-2.782zM85.269 34.072h12.044v2.741h-4.569v13.622h-2.906V36.813h-4.569zM78.8 55.503a.71.71 0 0 0-.253.537c.253 1.828.957 3.53 1.453 5.192l-51.832-.79v6.316L80 65.968c-.496 1.662-1.2 3.363-1.453 5.192 0 .288.167.456.253.496.162.167.704.167.704.167 4.529-2.452 9.058-4.985 13.499-7.35.167-.086.582-.375.582-.75v-.247c0-.375-.415-.664-.582-.75-4.441-2.365-8.97-4.898-13.499-7.35 0 0-.542 0-.704.127" style="fill:#000;fill-opacity:1;fill-rule:evenodd;stroke:none"/>
</svg>
