<svg xmlns="http://www.w3.org/2000/svg" xml:space="preserve" viewBox="-.451 -.943 122.612 81.761" role="img" aria-labelledby="title">
  <title id="title">Verkehrszeichen W8-9 - Under Snow</title>
  <path d="M7.747-.943h106.21c4.52 0 8.204 3.684 8.204 8.205v65.359c0 4.514-3.683 8.197-8.205 8.197H7.746c-4.513 0-8.197-3.683-8.197-8.197V7.262c0-4.521 3.684-8.205 8.197-8.205" style="fill:#fee011;fill-opacity:1;fill-rule:evenodd;stroke:none"/>
  <path d="M7.747.722h106.21c3.633 0 6.597 2.956 6.597 6.59V72.62c0 3.635-2.964 6.59-6.598 6.59H7.746a6.597 6.597 0 0 1-6.59-6.59V7.312a6.597 6.597 0 0 1 6.59-6.59" style="fill:#000;fill-opacity:1;fill-rule:evenodd;stroke:none"/>
  <path d="M7.697 3.988h106.318a3.256 3.256 0 0 1 3.266 3.274v65.409a3.25 3.25 0 0 1-3.266 3.266H7.697a3.255 3.255 0 0 1-3.274-3.266V7.262a3.26 3.26 0 0 1 3.274-3.274" style="fill:#fee011;fill-opacity:1;fill-rule:evenodd;stroke:none"/>
  <path d="M18.702 28.543V14.371h3.218v14.172c0 1.765 1.765 3.426 3.685 3.426 1.818 0 3.687-1.297 3.687-3.27V14.371h3.166v13.912c0 3.843-2.803 6.956-6.853 6.956-3.841 0-6.903-3.27-6.903-6.696M37.13 14.372h2.7l7.787 13.29v-13.29h3.27v20.454h-2.752l-7.838-13.238v13.238H37.13zM55.559 14.372h5.71c5.088 0 8.046 4.412 8.046 10.59 0 4.465-2.751 9.864-8.046 9.864h-5.71zm3.27 17.131h2.336c3.842 0 4.984-4.412 4.984-6.541 0-2.855-.986-7.424-4.984-7.424H58.83zM72.95 14.372h11.733v3.27h-8.566v5.036h5.97v3.166h-5.97v5.814h9.292v3.168H72.95zM92.313 17.538v5.035h4.412c1.454 0 2.492-1.401 2.492-2.699 0-1.246-1.245-2.336-2.595-2.336zm-3.115-3.166h7.631c2.959 0 5.503 2.699 5.503 5.761 0 2.544-1.35 3.946-3.063 5.036l3.686 9.655H99.58l-3.322-8.98h-3.945v8.98h-3.115zM26.125 60.626l3.115-1.039c1.142 2.336 2.284 3.011 4.672 3.011 1.298 0 2.856-1.401 2.856-2.802 0-2.129-1.143-3.168-5.14-3.583-.623-.052-1.973-.519-3.011-1.401-.83-.728-1.61-1.921-1.61-3.738 0-3.946 3.012-6.437 6.335-6.437 2.906 0 4.67 1.454 5.813 4.464l-3.062.935c-.52-1.662-1.818-2.025-3.115-2.129-1.558 0-2.855 1.557-2.855 2.907 0 .883.726 1.817 1.505 2.077 1.246.363 3.115.156 4.465.831 2.076.986 3.789 2.855 3.789 5.554 0 3.841-2.544 6.645-6.593 6.645-2.44 0-6.021-2.077-7.164-5.295M43.36 45.052h2.7l7.787 13.29v-13.29h3.27v20.454h-2.752l-7.838-13.238v13.238H43.36zM67.914 65.92c-4.256 0-7.216-3.114-7.216-10.642 0-7.422 2.7-10.641 7.216-10.641 4.673 0 7.164 4.672 7.164 10.641 0 5.088-1.35 10.643-7.164 10.643m0-3.27c2.595 0 3.841-2.128 3.841-7.372 0-4.827-1.246-7.319-3.841-7.319-2.647 0-3.997 2.024-3.997 7.32 0 5.035 1.453 7.372 3.997 7.372M77.622 45.052h3.166l1.557 10.694 2.908-10.694h2.907l2.595 10.694 1.558-10.694h3.219l-2.855 20.454H89.82l-3.217-12.823-3.219 12.823h-2.855z" style="fill:#000;fill-opacity:1;fill-rule:evenodd;stroke:none"/>
</svg>
