<svg xmlns="http://www.w3.org/2000/svg" viewBox="0 0 392.612 78.504" role="img" aria-labelledby="title">
  <title id="title">Verkehrszeichen W8-V121 - Advisory Speed (used in VIC)</title>
  <g style="display:inline">
    <path d="M161.955-1805.285h262c1.942 0 3.998.345 6.029 1.15a16.388 16.388 0 0 1 10.347 15.225v147.376a16.39 16.39 0 0 1-4.796 11.579 16.36 16.36 0 0 1-11.58 4.796h-262a16.39 16.39 0 0 1-11.58-4.796 16.382 16.382 0 0 1-4.795-11.579v-147.376a16.38 16.38 0 0 1 4.795-11.579 16.4 16.4 0 0 1 5.552-3.646 16.4 16.4 0 0 1 6.028-1.15" style="fill:#fee011;fill-opacity:1;fill-rule:evenodd;stroke:none" transform="translate(-439.47 3540.17)"/>
    <path d="M178.33-1657.909h163.423v-45.851H178.33v45.851" style="fill:none;stroke:#000;stroke-width:.36874998;stroke-linecap:square;stroke-linejoin:round;stroke-miterlimit:1.41499996;stroke-opacity:1;stroke-dasharray:3.2225,3.2225;stroke-dashoffset:0" transform="translate(-439.47 3540.17)"/>
    <path d="M366.972-1689.503c-.017.014-.05.046-.065.061l-.063.062.128.03za11.814 11.814 0 0 1 14.79-1.271 11.8 11.8 0 0 1 3.457 3.603 11.82 11.82 0 0 1 13.286-5.176 11.83 11.83 0 0 1 6.209 4.245 11.83 11.83 0 0 1 2.393 7.129l.146.138v22.925h-8.841v-20.633l.097.056a5.76 5.76 0 0 0-1.689-4.08 5.77 5.77 0 0 0-6.201-1.283 5.77 5.77 0 0 0-3.239 3.239 5.8 5.8 0 0 0-.405 2.124l-.026-.056v20.633h-8.515v-20.633l-.056.056a5.78 5.78 0 0 0-1.689-4.08 5.77 5.77 0 0 0-6.201-1.283 5.77 5.77 0 0 0-3.239 3.239 5.8 5.8 0 0 0-.405 2.124l.128-.056v20.633h-8.843v-34.388h8.843zM375.813-1772.535v45.85h-5.24l-13.428-31.113v31.113h-6.55v-45.85h7.207l11.462 26.527v-26.527zM334.548-1726.685v-45.85h6.55v45.85zM302.525-1738.543a12.54 12.54 0 0 0 18.472 11.042 12.5 12.5 0 0 0 4.105-3.534 12.531 12.531 0 0 0 2.27-9.888 18.64 18.64 0 0 0-9.07-12.65l-.13.033-3.274-1.965-.158-.096a7.16 7.16 0 0 1-3.618-6.225c0-.593.106-1.225.35-1.846a5.02 5.02 0 0 1 4.665-3.169 5.01 5.01 0 0 1 5.015 5.015l-.032.1v.327h6.55v-.328l-.07-.099a11.457 11.457 0 0 0-11.463-11.463 11.48 11.48 0 0 0-8.105 3.357 11.46 11.46 0 0 0-3.358 7.979v.127a13.61 13.61 0 0 0 6.875 11.828l.074.061 3.603 1.965h-.115a12.18 12.18 0 0 1 5.93 8.272 6.091 6.091 0 0 1-5.398 7.217 6.084 6.084 0 0 1-6.67-6.061l.03.068v-1.965h-6.55v1.965l.073-.068M272.615-1738.543a12.55 12.55 0 0 0 4.105 9.278 12.55 12.55 0 0 0 9.628 3.201 12.527 12.527 0 0 0 11.075-9.906c.365-1.739.334-3.428.04-4.953a18.6 18.6 0 0 0-3.151-7.317 18.6 18.6 0 0 0-5.92-5.333l-.022.033-3.602-1.965.063-.096a7.161 7.161 0 0 1-3.619-6.225 5.02 5.02 0 0 1 1.47-3.546 5.02 5.02 0 0 1 3.546-1.469 5 5 0 0 1 3.546 1.47 5.02 5.02 0 0 1 1.469 3.545l.075.1v.327h6.222v-.328l.15-.099a11.47 11.47 0 0 0-3.357-8.106 11.47 11.47 0 0 0-12.325-2.551 11.5 11.5 0 0 0-3.887 2.551 11.5 11.5 0 0 0-2.552 3.886 11.5 11.5 0 0 0-.804 4.22 13.61 13.61 0 0 0 6.875 11.828l-.147.061 3.602 1.965h.106a12.18 12.18 0 0 1 5.93 8.271 6.1 6.1 0 0 1-1.102 4.803 6.1 6.1 0 0 1-4.295 2.415 6.084 6.084 0 0 1-6.67-6.061l.136.067v-1.965h-6.55v1.965l-.035-.068M197.629-1761.746l-1.21-.08a5.016 5.016 0 0 0-7.556-4.328 4.97 4.97 0 0 0-2.181 2.644 40.462 40.462 0 0 0-.005 27.713 5 5 0 0 0 2.185 2.652 5.02 5.02 0 0 0 6.376-1.09 5 5 0 0 0 1.181-3.234l-.076-.024v-1.31h6.55l-.025 1.334a11.48 11.48 0 0 1-2.703 7.392 11.474 11.474 0 0 1-14.57 2.499 11.38 11.38 0 0 1-4.988-6.047 46.834 46.834 0 0 1 .004-32.059 11.36 11.36 0 0 1 4.986-6.038 11.49 11.49 0 0 1 11.387-.118 11.46 11.46 0 0 1 5.884 10.013zM242.52-1734.873l.09-.13a11.83 11.83 0 0 0 11.478 8.997c1.221 0 2.491-.19 3.751-.612a11.8 11.8 0 0 0 6.238-4.888 11.8 11.8 0 0 0 1.49-3.497 61.26 61.26 0 0 0 0-29.29 11.817 11.817 0 0 0-15.23-8.386 11.84 11.84 0 0 0-6.238 4.89 11.8 11.8 0 0 0-1.49 3.496 61.3 61.3 0 0 0 0 29.29zm6.223-1.636.127-.034a5.375 5.375 0 0 0 8.533 2.945 5.37 5.37 0 0 0 1.902-2.945h.001a54.9 54.9 0 0 0 0-26.21 5.37 5.37 0 0 0-5.218-4.09 5.37 5.37 0 0 0-5.218 4.09 55 55 0 0 0-1.588 13.105c0 4.449.542 8.848 1.588 13.105zM216.975-1748.3h5.568l6.55 21.615h6.55l-6.878-22.598.148-.086a12.5 12.5 0 0 0 4.85-4.576 12.464 12.464 0 0 0-4.803-17.447 9.96 9.96 0 0 0-4.72-1.18l-.06.038h-13.755v45.85h6.55zm0-6.223h7.205l.06-.14q.44 0 .87-.107.43-.108.817-.314a6.02 6.02 0 0 0 0-10.62 3.7 3.7 0 0 0-.817-.315 3.6 3.6 0 0 0-.87-.106l-.06.14h-7.205z" style="fill:#000;fill-opacity:1;fill-rule:evenodd;stroke:none" transform="translate(-439.47 3540.17)"/>
    <path d="M161.955-1802.01h262l.12-.037c1.552 0 3.198.276 4.822.919a13.093 13.093 0 0 1 8.278 12.18l-.118.039v147.376l.117-.039a13.092 13.092 0 0 1-13.099 13.1l-.12.039h-262l.118-.039c-1.551 0-3.198-.276-4.821-.92a13.08 13.08 0 0 1-7.36-7.358 13.1 13.1 0 0 1-.92-4.822l-.118.039v-147.376l.119-.04a13.1 13.1 0 0 1 3.837-9.262 13.1 13.1 0 0 1 9.263-3.836zm0 6.55h262l.12-.037a6.554 6.554 0 0 1 6.55 6.549l-.118.039v147.376l.118-.039a6.55 6.55 0 0 1-4.139 6.091 6.6 6.6 0 0 1-2.41.46l-.12.038h-262l.117-.039a6.55 6.55 0 0 1-4.631-1.917 6.555 6.555 0 0 1-1.918-4.632l-.12.038v-147.376l.12-.04a6.55 6.55 0 0 1 1.918-4.63 6.55 6.55 0 0 1 4.63-1.918z" style="fill:#000;fill-opacity:1;fill-rule:evenodd;stroke:none" transform="translate(-439.47 3540.17)"/>
    <path d="M408.075-1761.826a11.46 11.46 0 0 0-9.533-11.3 11.5 11.5 0 0 0-7.737 1.405 11.36 11.36 0 0 0-4.986 6.037 46.81 46.81 0 0 0-.005 32.059 11.4 11.4 0 0 0 4.99 6.047 11.49 11.49 0 0 0 11.388.122 11.47 11.47 0 0 0 5.23-6.197c.453-1.283.653-2.578.653-3.816l.162-.024v-11.462h-11.463v6.55h4.911v4.912l-.057.024a5.01 5.01 0 0 1-4.171 4.944 5.02 5.02 0 0 1-3.387-.62 5 5 0 0 1-2.185-2.653 40.5 40.5 0 0 1 .004-27.712 4.97 4.97 0 0 1 2.184-2.644 5.02 5.02 0 0 1 6.374 1.093 5.02 5.02 0 0 1 1.18 3.235l.058.426h6.552z" style="fill:#000;fill-opacity:1;fill-rule:evenodd;stroke:none" transform="translate(-439.47 3540.17)"/>
    <path d="M807.546-3540.17H462.257l-1.754.183-1.752.369-1.66.37-1.662.552-1.66.739-1.568.737-1.475.923-1.477 1.015-1.383 1.107-1.2 1.107-1.2 1.29-1.107 1.385-1.013 1.476-.923 1.476-.739 1.569-.737 1.66-.554 1.66-.369 1.661-.368 1.753-.185 1.752v32.933l.185 1.753.368 1.66.37 1.753.553 1.661.737 1.568.74 1.568.922 1.477 1.013 1.475 1.108 1.383 1.199 1.293 1.2 1.199 1.383 1.107 1.477.923 1.475.922 1.568.83 1.66.645 1.662.554 1.66.461 1.752.278 1.754.183 1.752.093h343.537l1.752-.093 1.753-.183 1.66-.278 1.752-.461 1.661-.554 1.568-.645 1.569-.83 1.568-.922 1.384-.923 1.384-1.107 1.291-1.2 1.199-1.292 1.107-1.383 1.015-1.475.83-1.477.83-1.568.647-1.568.552-1.661.461-1.753.278-1.66.184-1.753.092-1.753v-29.427l-.092-1.753-.184-1.752-.278-1.753-.46-1.661-.553-1.66-.647-1.66-.83-1.569-.83-1.476-1.015-1.476-1.107-1.384-1.199-1.291-1.291-1.107-1.384-1.107-1.384-1.015-1.568-.923-1.57-.737-1.567-.739-1.66-.552-1.753-.37-1.66-.37-1.753-.183z" style="fill:#fee011;fill-opacity:1;fill-rule:evenodd;stroke:none" transform="translate(-439.47 3540.17)"/>
    <path d="M807.546-3537.312H464.009l-1.752.092-1.661.185-1.66.369-1.662.46-1.567.555-1.569.737-1.476.83-1.384.923-1.291 1.107-1.291 1.108-1.108 1.29-1.106 1.292-.923 1.384-.83 1.476-.738 1.568-.554 1.568-.461 1.66-.37 1.662-.183 1.66v32.84l.184 1.66.369 1.66.46 1.662.555 1.568.738 1.568.83 1.477.923 1.383 1.106 1.384 1.108 1.199 1.29 1.2 1.292 1.014 1.384.922 1.476.831 1.569.738 1.567.554 1.662.46 1.66.37 1.66.185 1.753.09h343.537l1.66-.09 1.66-.185 1.66-.37 1.66-.46 1.57-.554 1.567-.738 1.476-.83 1.384-.923 1.384-1.014 1.199-1.2 1.2-1.199 1.015-1.384.922-1.383.83-1.477.738-1.568.553-1.568.462-1.661.368-1.66.185-1.66.093-1.661v-29.428l-.093-1.752-.185-1.66-.368-1.662-.462-1.66-.553-1.568-.738-1.568-.83-1.476-.922-1.384-1.015-1.291-1.2-1.291-1.2-1.108-1.383-1.107-1.384-.923-1.476-.83-1.567-.737-1.57-.554-1.66-.461-1.66-.37-1.66-.184zm0 5.905H464.009l-1.752.09-1.754.37-1.752.462-1.568.645-1.569.83-1.476 1.015-1.291 1.2-1.108 1.291-1.106 1.476-.83 1.568-.646 1.569-.461 1.752-.37 1.66-.092 1.845v29.428l.093 1.752.369 1.754.46 1.66.647 1.66.83 1.476 1.106 1.476 1.108 1.292 1.291 1.2 1.476 1.014 1.57.83 1.567.646 1.752.553 1.754.277 1.752.092h343.537l1.752-.092 1.753-.277 1.66-.553 1.66-.645 1.476-.831 1.476-1.014 1.291-1.2 1.2-1.292 1.015-1.476.83-1.476.645-1.66.554-1.66.278-1.754.09-1.752v-29.428l-.09-1.845-.278-1.66-.554-1.752-.645-1.569-.83-1.568-1.015-1.476-1.2-1.291-1.29-1.2-1.477-1.015-1.475-.83-1.661-.645-1.66-.461-1.753-.37z" style="fill:#000;fill-opacity:1;fill-rule:evenodd;stroke:none" transform="translate(-439.47 3540.17)"/>
    <path d="M532.642-3515.633h24.446v5.812l-1.106 1.384-1.015 1.384-.923 1.383-.922 1.475-.83 1.57-.83 1.475-.646 1.568-.647 1.661-.645 1.568-.46 1.66-.462 1.66-.369 1.662-.277 1.753-.277 1.66-.092 1.752h-5.996l.092-1.845.276-1.752.278-1.753.369-1.752.368-1.753.462-1.754.553-1.752.645-1.66.74-1.661.737-1.66.738-1.57.923-1.66.922-1.475 1.014-1.568h-17.066zM564.746-3507.238l-.278 1.568-.276 1.568-.185 1.569v3.136l.185 1.569.276 1.567.278 1.569 5.718-1.476-.276-1.108-.185-1.291-.092-1.199v-2.399l.092-1.198.185-1.2.276-1.2.83-1.844 1.293-1.476 1.845-1.015 1.936-.277 1.938.277 1.752 1.015 1.384 1.476.83 1.845.277 1.199.184 1.2.093 1.198v2.4l-.093 1.198-.184 1.291-.277 1.108-.83 1.845-1.384 1.476-1.752 1.015-1.938.276-1.936-.276-1.845-1.015-1.293-1.476-.83-1.845-5.718 1.476.552 1.66.831 1.569 1.014 1.476 1.2 1.291 1.384 1.015 1.567.923 1.57.645 1.752.368 1.752.093 1.754-.093 1.752-.368 1.568-.645 1.569-.923 1.383-1.015 1.2-1.291 1.014-1.476.83-1.57.554-1.66.276-1.568.278-1.567.183-1.57v-3.135l-.183-1.57-.278-1.567-.276-1.568-.554-1.66-.83-1.57-1.015-1.475-1.199-1.2-1.383-1.107-1.57-.922-1.567-.553-1.752-.46-1.754-.094-1.752.093-1.753.461-1.569.553-1.567.922-1.384 1.108-1.2 1.199-1.014 1.476-.83 1.569zM619.264-3513.88v27.674h5.35v-6.641l2.768-3.506 3.782 10.147h5.72l-5.627-15.036 5.627-7.104h-6.918l-5.352 6.828v-14.115zM646.57-3508.346v22.14h5.443v-13.191l.276-1.476.83-1.2 1.2-.738 1.384-.276 1.384.276 1.199.739.83 1.199.277 1.476v13.191h5.443v-13.191l.276-1.476.831-1.2 1.199-.738 1.384-.276 1.383.276 1.2.739.83 1.199.277 1.476v13.191h5.442v-14.851l-.185-1.754-.645-1.66-1.015-1.476-1.291-1.199-1.476-.922-1.753-.462-1.752-.092-1.754.37-1.568.738-1.383 1.106-1.108 1.384-1.014-1.291-1.383-1.108-1.477-.737-1.66-.37h-1.66l-1.66.37-1.477.646-1.384 1.106v-1.937zM720.83-3513.696v27.49h5.35v-13.099l.278-1.383.83-1.2 1.199-.83 1.384-.277 1.383.277 1.2.83.738 1.2.277 1.383v13.1h5.35v-14.39l-.185-1.755-.552-1.66-.923-1.568-1.2-1.292-1.476-.922-1.66-.645-1.752-.185-1.753.185-1.661.552-1.476 1.015v-8.763zM705.517-3517.94l-19.28 34.04h6.827l19.188-34.04z" style="fill:#000;fill-opacity:1;fill-rule:evenodd;stroke:none" transform="translate(-439.47 3540.17)"/>
  </g>
</svg>
