<svg xmlns="http://www.w3.org/2000/svg" viewBox="0 0 1021.33 1021.33" role="img" aria-labelledby="title">
  <title id="title">Verkehrszeichen W5-38 - Stock Crossing</title>
  <g transform="translate(0 442.66)">
    <rect width="750" height="750" x="-61.992" y="34.181" rx="50" ry="50" style="fill:#fddc04;fill-opacity:1;fill-rule:evenodd;stroke:none;stroke-width:5.67811;stroke-linecap:round;stroke-linejoin:round" transform="rotate(-45)"/>
    <rect width="730" height="730" x="-51.992" y="44.181" rx="40" ry="40" style="fill:#000;fill-rule:evenodd;stroke:none;stroke-width:5.52669;stroke-linecap:round;stroke-linejoin:round" transform="rotate(-45)"/>
    <rect width="690" height="690" x="-31.992" y="64.181" rx="20" ry="20" style="fill:#fddc04;fill-opacity:1;fill-rule:evenodd;stroke:none;stroke-width:5.22386;stroke-linecap:round;stroke-linejoin:round" transform="rotate(-45)"/>
    <path d="m497.094 163.578 4.47 11.233v12.195l-.638 10.911-3.513 14.763 2.235 8.986 3.832 3.21-1.277 6.418c0 2.567 1.277 5.135 3.193 6.418 1.916 1.605 4.47 2.568 7.025 2.568 3.193.641 5.748.641 8.303.32 2.554 0 5.109-1.283 7.344-2.246.958 0 2.874-.963 3.512-2.246.32-1.284 0-2.247-.638-3.21-.958-1.604-2.235-2.246-3.193-3.53-1.916-1.925-3.513-5.777-5.748-8.344-.639 0-1.916-1.284-2.555 0l-.638-7.06-.639-11.554-1.277-17.33v-19.576l3.193-21.823 4.151-14.121 3.193-18.935 4.151-25.674c2.555-1.925 5.429-3.85 5.748-3.85 1.916 0 12.134-9.95 12.773-9.95.32 0 11.176-8.986 14.05-12.195 0 0 3.513-5.135 3.513-5.776 0-4.173 5.109-14.442 5.109-17.972 0-8.023 6.386-26.958 7.025-28.884 1.277-5.455 21.394-18.293 30.335-25.032l4.47-2.246c1.597-2.247 6.387-10.27 6.706-10.912 0 0 5.11-3.851 7.983-3.851 8.303 0 10.857 2.888 14.05 2.888 5.11 0 14.05 4.493 18.202 4.493 1.277 0 7.344 5.777 9.899 6.419l1.277.963h4.47c4.151 0 8.941-.963 12.773-.963 0 0 2.235-3.21 2.235-3.53 0-.642 1.597-2.568 2.236-2.889 0 0 0-1.604.319-1.604l1.916-.963 2.554-2.568v-2.246c0-.642.958-2.567.958-3.53s.639-2.889.639-4.493c0-1.926-.639-3.851-.639-5.135 0-1.605-.958-4.493-1.596-5.135-1.278-1.284-5.748-1.925-5.748-1.925-1.597 0-7.983-8.345-9.26-8.986l-7.025-6.419c0-1.284-4.79-6.418-4.79-10.27 0 0-1.277-3.85-1.277-5.455 0-2.889-.958-6.419-.958-9.307 0-.321-2.555-2.888-2.555-3.53 0 0-1.597-2.247-1.597-2.568 0-.32-1.915-1.283-1.915-1.283-.958 0-2.555-.963-3.832-1.605 0 0-2.236.32-1.597 0 .32-.642 2.874-.642 3.513-1.284.319-.32-.958-1.283-.958-1.283-.639-.321-4.47-1.284-4.47-2.247l1.915-2.246c.32-.321 2.555-.321 2.555-1.605 0-.642-2.555-.642-2.555-.642-2.554 0-6.386-2.567-8.94-3.53l3.192-3.851 3.832-2.889 4.151-1.925 5.748-.642h4.151l1.597-.963v-.963l-1.916-.962-4.79-1.605h-7.025l-7.025.321-6.386 2.246-5.748 3.21c-1.916.32-3.513-.642-4.47-.642h-11.177c-7.025 0-16.604 7.702-22.671 7.702-.64 0-8.622 6.098-10.219 6.098-.958 0-7.983 4.814-7.983 4.814-5.747.32-18.84 10.911-24.587 11.232 0 0-4.79 1.605-6.706 1.605H527.11c-7.025 0-15.327-1.605-22.991-1.605h-18.84c-12.134 0-26.823 5.456-37.999 5.456-8.302 0-21.714 4.493-30.016 4.493-12.773 0-28.42 3.53-42.789 3.53-10.218 0-23.31-5.456-30.974-5.456-11.815 0-28.1-8.023-40.554-8.023-5.428 0-15.966-3.851-24.268-3.851-4.47 0-13.092.963-17.243.963-5.429 0-12.773 3.53-17.563 5.455s-11.815 7.382-15.966 7.382c-.638 0-7.025 2.888-8.94 2.888-3.194 0-10.857 3.21-12.135 3.21-5.109 0-16.924 8.343-19.159 8.343 0 0-6.386 5.777-6.386 7.06 0 2.247-2.874 8.666-2.874 11.875 0 4.172-1.916 10.59-1.916 15.405 0 7.38.32 16.688.32 23.748 0 13.479 2.554 27.92 2.554 41.4v37.869c0 6.418-.639 12.516-.639 18.293 0 1.925-2.874 7.06-2.874 8.344 0 6.097-1.916 15.083-1.916 20.86 0 7.702-1.277 17.01-1.277 24.39 0 4.493.32 8.986.32 12.837 0 5.135 2.873 11.554 2.873 16.689 0 1.283.958 4.814 2.874 7.06 0-5.777.32-8.665.32-12.195 0-2.568 1.596-5.777 1.596-7.702 0-2.568 1.597-6.419 3.513-8.345.957 2.568.638 8.345.638 10.912 0 3.21.32 7.06 2.874 12.837v-12.195c0-4.493 1.277-8.986 1.277-11.554 0-3.85 2.874-9.627 2.874-14.12 0-7.06 1.277-14.442 1.277-22.144 0-8.344-2.873-16.688-2.873-24.39 0-1.284-2.555-4.494-2.555-7.061 0-12.516.958-24.711.958-37.227 0-10.591.32-21.503.32-32.414 0-6.74-4.471-22.144 1.596-22.144 6.706 0 7.344 21.181 7.983 23.749 0 0 15.327 1.925 16.605 5.776 2.554 6.74-.64 5.456.638 13.158-3.193-1.925-2.554 9.307-2.554 11.875v15.725c0 5.135 1.916 10.911 1.916 15.404 0 2.247 3.831 8.024 3.831 10.591s2.555 7.702 3.832 10.911c.639 1.284-2.554 5.456-2.554 6.419 0 1.284-5.11 8.665-5.11 8.665-1.915 2.567-9.58 10.59-12.134 14.763 0 0-2.235 3.209-2.235 4.172s-.958 2.567-.958 3.53c0 5.135.958 11.553.958 14.762 0 15.405 6.067 33.377 6.067 49.744v35.302c0 1.284 1.278 1.926 1.278 3.21 0 .641.638 1.604.638 1.604.639-.963 2.555-3.53 2.555-4.814l1.277-.642.639-1.284h1.277l.639 1.284c0 .642.638 1.284.638 1.926 0 0 1.277.642 1.277 1.604v1.605c0 .32.64 1.284.64 1.926 0 0 0 .962-.64 1.604-.638 1.284 0 2.247 0 2.888 1.278 1.605 1.916 3.852 3.194 5.135 1.916.642 3.193 1.284 5.109 2.247 3.512-.642 7.663-.642 11.815-.642 1.596-.642 3.831-1.605 5.428-1.926.958-.962 2.555-1.925 3.513-3.209v-.642c-1.597-1.283-2.236-2.246-3.513-2.567-1.597-2.568-4.47-4.814-6.386-6.419-.958-.962-6.387-6.097-7.983-6.097l-1.597-1.926v-3.21c0-12.194-3.193-24.39-3.193-37.227 0-4.172.638-11.232.638-15.083 0-3.53 5.429-10.912 6.706-14.763 0 0 .639-.642 1.277-1.925l11.496 20.539 6.706 19.897 2.235 11.233 2.874 12.837 2.554 8.344 1.916-2.567 1.278-4.493 1.916 5.134v5.777c-1.597.642 1.277 3.53 1.277 5.135 0 0 1.596 1.926 2.235 1.926 4.47 0 8.941 1.925 13.411 1.925 2.555 0 6.387-1.925 8.303-1.925 1.277 0 5.109-3.21 5.109-4.493 0-.642-2.555-2.568-2.555-2.568-.638-1.284-5.109-7.702-7.663-8.344l-3.832-1.926-4.47-5.134-1.278-4.493-1.597-8.344-2.873-4.814-4.79-12.837-7.345-20.54-1.596-7.06 1.596-5.777 2.555-21.18c-.639 3.85.32 5.776.32 7.701v8.986s2.873.642 3.193 0 2.554-4.493 2.554-6.097c0-2.247.32-8.665.958-8.665 0 0 6.386 1.604 6.386 1.925v6.74c0 2.888.64 7.381.64 8.665 0 0 3.83.642 3.83 0 .64-.642 1.278-3.21 1.278-3.21 0-2.567 1.916-5.776 1.916-7.702 0-1.604.639-4.493.639-5.455 0-.642 3.193-.642 3.193 0 0 1.283-.639 4.492-.639 6.739s1.278 5.777 1.916 6.418h2.555c0-1.283 3.193-6.418 3.193-8.985 0-1.284-.639-5.135-.639-5.777 0 0 7.025-2.247 7.664-2.247 1.597 0 7.983-5.134 7.983-5.134 1.277 0 7.344-6.419 7.344-6.419 0-.32 4.79-7.702 6.067-10.911 1.916-.321 7.664-.321 9.58-.321 6.706 0 15.327 4.493 21.714 4.493 1.277 0 7.025 4.813 9.58 4.813.638 0 3.512.642 5.108.642h12.135c7.344 0 16.604-2.888 22.033-2.888 9.58 0 23.63-8.023 34.486-8.023 7.025 0 17.244-1.605 25.865-1.605h8.302c1.278 0 5.429 7.06 5.429 9.628 0 7.702-.639 16.046-.639 24.39 0 8.986.639 19.256.639 27.921 0 6.419.958 13.158.958 18.935 0 5.134-2.874 11.874-2.874 16.367 0 1.605-2.555 6.74-2.555 8.344 0 0-1.916 1.926-1.916 2.567v3.852c0 3.85 3.513 8.344 3.513 12.195 0 2.567.958 5.135.958 7.702 0 1.926-.958 3.851-.958 5.777 0 .641-.639 1.925-.639 3.209.639 2.567 2.555 6.097 3.513 8.665 0 0 2.235 1.605 2.554 1.605 2.874 0 7.345 2.246 10.538 2.246h6.386c2.236 0 5.11-1.284 6.706-1.926 0 0 2.555-1.925 3.193-2.567l-.638-2.246c0-1.605-3.832-3.53-3.832-3.53-.639-1.284-3.832-5.456-4.47-6.74 0 0-1.917-2.567-2.875-3.53 0-2.247-3.512-5.456-3.512-7.382 0 0-1.277-1.283-1.277-2.567v-3.851c0-2.568 2.874-7.06 2.874-10.27v-5.776c0-3.21-.958-6.419-.958-9.307 0-5.777 3.831-14.442 3.831-16.688 0-4.493 1.597-10.27 4.47-16.047m280.363 58.088.319 6.097-.639 5.135v5.135l2.555 5.777 1.277 4.493 1.597.963 4.151 1.283 3.193-.642.32-.641-.32-.963.958-1.284-3.193-5.135-1.916-6.418-1.277-6.419.638-5.135.639-11.874 3.832-16.367.638-3.21-2.554-2.567 2.874-1.284.958-4.492-1.916-1.605 1.916-2.247-.32-5.455c1.916-1.605 2.555-4.493 2.555-6.419 0-.642 3.193-1.284 3.193-1.284s1.916-1.925 1.916-2.246c0-.642.958-3.21.958-3.851l2.235-2.568c0-.962.958-4.493.958-4.814 0-.641 1.597-1.925 1.597-1.925s.639-2.888.639-4.172l1.277-1.926c0-.642 2.235-2.567 2.235-3.85v-4.815c0-.32 2.874-1.283 2.874-1.283 0-.321.639-2.247.639-3.53 0-.642.638-1.605.638-2.889 0 0 1.916-1.925 1.916-2.567V122.5c0-.321 2.235-.642 2.555-1.284l1.596-2.567c0-2.247 3.193-5.135 3.193-7.703 0 0 1.278-2.567 1.278-3.85 0-.643.638-3.21.638-3.21 0-1.605 1.278-3.21 2.874-5.777h7.345l2.554.642h1.916l2.555-.963 1.277-.32h.32l1.277-.322h.638l.958-1.283 2.235-3.21.639-2.246v-.963l-1.916-4.814-9.26-15.725c.638-1.605 2.235-2.247 2.235-3.53 0-.642-.958-1.926-.958-2.568v-4.814l-.639-2.246-2.235-.321s-.638-2.246-.638-2.888-1.597-2.247-1.597-2.247c-.639 0-2.235-.963-3.193-.963s-2.235.963-2.235.963c-1.278 0-3.194-2.246-4.152-2.246h-3.512c-.32 0-.958 1.283-1.597 1.283-1.277 0-3.512-.962-5.428-.962-.639 0-1.916.962-3.193.962 0 0-1.597 2.889-2.236 3.21-1.277.642-4.15 0-5.747 0-.958 0-4.152 3.85-4.152 3.85l-3.193 2.247s-1.916 1.926-1.916 2.247c0 .642-.319 3.209-.319 3.209-.639 0-3.193 1.284-4.151 1.605 0 0-.958 2.246-.958 3.209s.639 2.888.639 2.888c0 1.284-3.194 2.247-3.832 2.247 0 0-1.278 1.604-1.278 2.888v2.888s-2.554 2.247-2.554 2.568c-.32.642-2.235 2.246-2.235 2.888v2.889l-1.916.641s-1.916 3.851-2.555 3.851c0 0-3.193.642-3.512.642-.639 0-2.555.963-2.874 1.284-.32 0-.639 2.567-1.278 2.567-1.596 0-4.15-1.604-5.428-1.604s-2.874.642-4.79.642c-.32 0-1.596.962-1.916.962-1.916 0-3.193-1.283-3.832-1.283-1.915 0-3.512.32-4.15.32-.64 0-1.917 1.605-2.555 1.605-1.597 0-3.193-.642-4.47-.642-.959 0-2.875.642-3.194.642-.639 0-.958 2.247-2.874 2.247-1.596 0-2.235-1.926-3.512-1.926-1.597 0-3.513.642-4.79.642-.639 0-1.916-.963-2.874-.963h-2.235c-1.916 0-1.916 2.889-3.513 2.889-1.277 0-2.874-1.926-3.512-1.926h-5.11c-.319 0-1.277 1.926-1.915 1.926s-1.278-1.926-2.236-1.926h-3.193c-.319 0-1.916.642-1.916.642s-1.916 2.567-3.193 2.567-2.235-3.209-3.832-3.209h-2.554c-1.278 0-2.555 1.284-3.193 1.284-.32 0-1.278-.642-1.278-.642h-6.067c-.638 0-1.277 1.605-2.235 1.605-.639 0-1.916-.963-1.916-.963h-2.874c-.638 0-2.874 3.21-3.832 3.21 0 0-3.193.64-3.831.64-.32 0-2.874 2.568-2.874 2.568s-.958 2.889-.958 3.53l-5.429 2.247-1.916 1.284-.638 2.567-2.874 1.605-1.916 2.888-.32 3.21-3.193 2.888-.319 2.888.32 2.567-1.278 3.21-.32 2.567.64.642-.32 2.888.639 2.247 3.193 1.283c.958 4.814 2.235 6.098 2.235 7.703v4.493c0 .962 1.597 3.209 1.597 3.209s2.554.642 2.554 1.284-1.916 2.567-1.916 2.567c0 1.605.958 2.888.958 3.53s1.597.642 1.597 1.605c0 1.605-.639 3.21-.639 3.851v2.246c0 .963 1.278 2.247 1.278 3.21 0 1.604-2.236 3.209-2.236 3.85v3.21c0 .642.958 2.247.958 2.247 0 .962-3.512 1.925-3.512 2.246 0 1.284-.32 4.172-.32 5.456 0 .32-2.235 1.284-2.554 1.284 0 0-.639 1.604-.639 1.925 0 1.284.958 2.568.958 3.21 0 1.283-1.596 1.925-1.596 1.925 0 .32-1.278 1.605-1.278 3.21v2.888c0 .32 4.47 4.172 4.79 3.85v3.852l.32 5.456 1.277 8.665v14.441l1.596.642 1.597 1.605.639 2.567v2.247l.638 1.283 3.193.642 5.429-.32 1.916-.643-.32-.962 1.597-1.605-3.193-5.456-1.597-6.418-1.596-8.023v-10.912l1.916-6.74c8.302-8.664 5.747 10.591 5.747 16.368l.32 4.814 2.235 2.567.639 3.53.958 4.814 2.554 1.605 3.513.642 4.47-.642.958-.963-.32-1.284.64-.641.319-.963-2.555-4.172-2.235-5.777-1.277-7.381.638-11.554v-7.38h2.874l3.193-2.89-.958-3.209 2.874.963 1.916-4.814v-2.888l3.193-.963 1.278-3.85-1.278-3.531 3.832-3.53c.639-1.284 2.235 0 2.235 0s.958 1.283 1.597 1.283c.958 0 1.916-.32 2.235-.32.32 0 1.278-.963 2.235-.963.958 0 1.597 2.567 2.874 2.567h3.194c.638 0 1.596-1.284 3.193-1.284.32 0 .958 1.284.958 1.284.638.321 1.916 1.605 2.235 1.605h1.916c1.277 0 2.554-1.605 3.193-1.605s1.597 1.605 1.916 1.605h5.109c.32 0 .32-2.568.958-2.568.639 0 1.916 1.926 2.555 1.926 0 0 1.916.32 2.554 0 .639 0 .958-2.247 1.916-2.247.639 0 1.916 2.247 2.874 2.247.32 0 1.916-.963 3.193-.963 0 0 .32-1.604 1.597-1.604.638 0 .638 1.604 1.916 1.604 1.277 0 2.874-1.604 4.79-1.604v1.604c0 .963 1.915 1.605 1.915 2.888 0 .642-1.277 1.605-1.277 3.21 0 1.283 1.277 2.567 1.277 3.209 0 0 2.236.963 2.236 1.926 0 .962-2.236 2.246-2.236 4.172 0 .641.64 2.888.64 2.888s1.596 1.605 2.554 2.246l2.235 6.419.32 7.381v7.06l-.959 8.345-.32 7.06v3.851l1.278.642 1.597.642.638 2.567.639 3.851 2.235.963 5.748.963 3.193-.963 1.278-.642-.64-.962 1.278-.642.32-1.284-3.513-4.493-1.597-3.21-1.596-4.171-.639-4.172-.639-8.023 1.278-7.06 1.596-10.591 1.278-5.456c.319-.321 2.235-1.605 3.512-2.888l2.235 3.209 1.278 8.665z" style="fill:#000;fill-opacity:1;fill-rule:evenodd;stroke:none;stroke-width:.960366;stroke-linecap:butt;stroke-linejoin:miter;stroke-miterlimit:10;stroke-dasharray:none;stroke-opacity:1"/>
  </g>
</svg>
