<svg xmlns="http://www.w3.org/2000/svg" viewBox="0 0 1021.33 1021.33" role="img" aria-labelledby="title">
  <title id="title">Verkehrszeichen W5-47 - Koalas Crossing</title>
  <g transform="translate(0 442.66)">
    <rect width="750" height="750" x="-61.992" y="34.181" rx="50" ry="50" style="fill:#fddc04;fill-opacity:1;fill-rule:evenodd;stroke:none;stroke-width:5.67811;stroke-linecap:round;stroke-linejoin:round" transform="rotate(-45)"/>
    <rect width="730" height="730" x="-51.992" y="44.181" rx="40" ry="40" style="fill:#000;fill-rule:evenodd;stroke:none;stroke-width:5.52669;stroke-linecap:round;stroke-linejoin:round" transform="rotate(-45)"/>
    <rect width="690" height="690" x="-31.992" y="64.181" rx="20" ry="20" style="fill:#fddc04;fill-opacity:1;fill-rule:evenodd;stroke:none;stroke-width:5.22386;stroke-linecap:round;stroke-linejoin:round" transform="rotate(-45)"/>
    <path d="M730.312-52.001c0 6.03-7.768 11.426-16.808 11.423-9.037 0-16.65-5.551-16.646-12.213-.003-6.666 7.61-12.062 16.646-12.058 9.04-.003 16.808 4.599 16.808 10.312-3.648-1.27-7.133-3.015-10.623-3.809-1.586-.317-3.806-1.11-5.71-1.11-3.171-.004-6.816.793-9.832 1.272-.314-.003.951.949 1.43 1.425 2.852-.162 5.548-.793 8.244-.793 2.22 0 4.758.952 6.661 1.27 2.217.475 5.23 1.586 7.134 2.697zm-16.808 13.803c10.94 0 19.98-6.662 19.98-14.593 0-7.939-9.037-14.442-19.98-14.442-10.94 0-19.98 6.507-19.977 14.442-.003 7.931 9.037 14.593 19.977 14.593m8.402-122.96c.955 4.123 15.385 20.942 18.712 23.64 5.075 4.444 16.015 19.355 20.135 23.481 5.396 5.075 9.516 13.487 12.526 19.517 2.7 5.393 5.392 18.089 6.661 26.338-5.389 2.694-11.733 4.123-15.54 7.932-3.643 3.488-7.291 10.312-7.609 14.756-.317 6.503-.475 15.39.476 21.421.797 6.027 4.6 12.058 8.72 16.819 1.114 1.266 5.234 1.587 7.295 1.587.635-.003 2.697 2.06 3.331 1.742l2.062-1.27c-1.745-.952-4.758-2.853-5.555-3.646-3.006-3.015-7.447-7.618-9.195-11.744-1.9-4.916-3.172-11.264-3.172-16.978.003-4.281.955-9.677 2.541-13.169 1.903-4.44 6.023-8.566 11.099-9.994 1.903-.635 5.075-2.064 7.768-3.175 5.233 4.127 9.357 7.936 10.78 9.84 1.904 2.536 8.09 10.788 8.407 15.867.476 7.455.951 17.291-2.855 23.48-3.33 5.393-13.002 9.043-18.394 12.694l-10.937 14.597c-7.295-1.746-14.432-5.551-21.252-6.03-6.337-.318-19.66-.473-24.573 2.856-5.075 3.491-10.785 7.141-16.174 10.788 1.9.317 2.059.48 4.12.794 5.552-3.488 11.1-7.456 15.699-9.836 3.33-1.588 8.243-1.743 12.688-1.746 4.913 0 9.67.638 14.267 2.063 1.906.472 8.406 3.015 9.516 5.551L742.045 28.92c-1.586 3.65-1.427 9.36-4.437 10.788-4.282 1.904-12.212-4.602-15.226-1.107l-5.389 6.344h-14.112c-3.644.003-8.564.794-11.891 2.222l-7.613 3.333-15.219-7.621v8.728c-7.295-6.98-13.795-15.232-21.725-20.628-7.295-4.757-17.442-6.98-24.893-10.788l-8.723-4.444c.634.953 1.269 2.543 1.427 3.02 2.697 3.963 11.261 5.71 14.905 7.455 4.441 2.222 11.258 3.646 14.905 7.141.952.794-4.123 6.821-4.123 9.36l1.11 4.444-4.758 8.884-6.658.317-4.279 10.471c-6.82 2.857-13.477-1.428-13.636-3.809l-1.59-17.291-2.692-2.857c1.424 9.043 0 19.517 4.279 27.131 3.965 7.456 16.015 9.995 20.614 17.454 2.697 4.126-.475 11.423 1.27 16.343 1.265 3.17 7.612 4.444 8.56 7.614 1.428 5.234-3.327 13.01.003 17.454 4.279 5.713 14.109 6.345 20.608 9.84 4.285 2.377 8.564 6.503 13.005 9.832-3.33 1.429-6.661 2.857-9.833 4.285 11.26 10.157 23.786 19.676 33.775 30.464 4.758 4.917 7.295 15.229 11.891 18.561 4.282 3.337 14.27 5.238 21.25 6.031 8.084.952 17.438 1.587 25.368 1.587 4.6 0 14.43 2.857 16.65 7.46 3.806 7.613 4.279 10.629 4.279 14.752.003 1.908-.155 3.808-1.27 7.141-1.106-5.237-2.692-9.518-5.543-13.01-1.431.949-2.858 3.012-4.286 3.174-1.9.159-5.075-1.746-6.495-.952-1.749.79-1.59 5.396-3.335 6.503-2.375 1.27-6.66 2.222-8.72 1.111-5.55-2.856-8.722-11.423-14.111-14.28-4.917-2.377-11.895-1.428-17.284-2.063-5.393-.79-12.209-3.012-14.905-4.443-2.538 1.749-.159.317-2.696 2.225 6.499 3.805 10.464 5.868 16.49 7.61 4.914 1.591 13.002 2.226 16.333 6.507 2.217 3.016 1.11 11.745-1.11 13.01-2.062.953-6.816-2.059-11.895-6.027 2.858 6.031 6.185 10.947 6.347 14.756.156 4.444-.479 7.456-2.224 11.896-2.22 3.654-6.657 7.935-10.302 10.157 2.376-6.348 2.852-8.566 2.852-12.217-1.11-5.078-.952-8.252-4.124-13.01 0 5.079-.317 11.265-3.33 14.28-.631.794-6.024 1.746-6.5-3.333-.317-5.075-1.268-17.45-1.268-26.179 0-2.539-1.745-7.614-4.283-9.836-2.534-2.222-6.66-2.222-9.83-3.333-5.071 2.54-10.308 6.028-15.218 7.615-3.493.952-7.93 1.428-11.895 2.221-4.6.477-10.147 3.81-14.112 2.226-9.199-3.65-15.222-14.283-23.945-18.568-3.169-1.584-8.716 1.273-11.888 0-6.503-2.695-12.368-8.726-18.395-13.01-1.903.955-3.806 2.066-5.55 3.174-3.331-3.965-6.5-7.932-9.672-11.9a74 74 0 0 0-4.44 5.393c-4.755-5.551-9.513-10.947-14.113-16.34-1.903 1.111-3.644 2.222-5.388 3.333-1.114-4.444-2.22-8.729-3.331-13.01-3.648-1.587-7.292-3.015-10.781-4.444-.476-3.65-.797-7.3-1.11-10.947-3.648 1.742-7.296 3.647-10.782 5.551-2.538-8.725-5.551-17.609-7.613-26.175-1.744-6.828-3.806-14.918-5.389-21.739-1.427-5.872-5.075-12.534-5.55-18.565-.635-9.522-1.111-20.151 0-29.353 1.265-11.582 8.722-22.846 8.719-34.745V2.737l-7.61 2.222c.635 7.3 2.855 15.073 2.217 21.739-.948 10.633-7.292 20.945-8.72 31.416-1.585 11.106 2.538 24.433-2.057 34.746-2.697 5.713-12.213 7.617-18.553 8.728-10.785 1.905-22.518 2.222-33.617 2.222-9.83 0-19.98-2.857-29.33-2.225-4.603.32-8.406 6.665-13.006 6.665-9.195 0-18.39-3.964-27.113-5.554-14.27-2.854-29.81-5.551-43.446-9.836-6.186-2.064-12.21-8.09-17.44-11.9-7.612-5.55-17.283-11.582-23.786-18.564-8.406-9.04-16.491-20.784-22.832-31.413-4.282-7.3-6.657-16.026-10.943-25.068-.472 5.547 1.269 12.851 2.382 17.291 2.538 10.789 9.827 20.784 16.491 29.195 9.196 11.74 22.832 22.69 33.296 33.797 1.269 1.266-1.586 9.2-1.11 12.216-3.965-.476-7.93-1.904-11.892-2.222 1.745 2.54 3.486 5.079 5.39 7.618-4.438-1.904-8.72-3.654-13.002-5.396 1.744 3.17 3.489 6.507 5.392 9.836-3.648-.793-7.296-1.59-10.781-2.218.951 5.706 3.172 11.578 3.172 17.45-.003 4.603-2.224 9.678-3.172 14.121-.952 3.968-1.745 9.836-4.441 13.01-2.852 3.65-8.72 5.872-13.002 7.615-4.917 2.221-10.943 5.558-16.332 6.51-8.086 1.266-17.122 3.33-24.894 2.218-6.182-.793-12.843-5.713-17.284-9.836-6.34-6.19-12.208-14.918-16.17-22.85-2.382-5.074-5.551-11.899-4.44-17.295 2.692-12.848 12.208-24.433 17.442-36.015 3.486-8.094 9.195-16.501 10.619-25.068.797-4.92-3.168-11.264-2.058-16.184.948-4.92 9.036-7.776 9.67-13.014.477-3.646-5.395-6.979-5.388-10.947-.003-6.983 4.279-13.958 5.389-20.624 1.11-6.03 2.855-13.328 3.33-19.672.794-8.57.631-18.882 3.173-27.135 2.216-6.98 8.878-13.483 13.16-19.672 3.486-5.237 8.72-10.788 11.888-16.343 5.237-8.725 9.04-19.993 15.226-28.242 2.537-3.174 7.926-5.237 11.891-6.503 3.962-1.432 10.147-1.27 14.112-3.333 6.975-3.654 12.843-11.265 19.505-15.232 7.292-4.126 16.646-6.666 23.941-10.947 2.22-1.432 2.855-6.824 5.393-7.618 5.864-1.746 13.474-.472 19.5-1.107 8.879-.956 18.236-6.19 27.273-5.396 7.45.79 13.319 9.995 20.614 11.9 10.465 2.697 22.99 1.11 33.613 3.328 16.016 3.174 31.71 10.471 47.729 14.125 8.56 1.9 18.708 2.222 27.113 4.44l19.66 5.396-9.83 7.614h7.613l-11.895 14.121 10.781-3.174-14.112 19.517 11.895-2.063-9.674 21.735 16.174-6.503-11.892 18.406 16.332-5.396-7.609 26.18 15.219-15.233v23.957l9.674-7.614 3.33 18.406 15.22-18.406 2.065 18.406 20.77-27.131L601.877-7.1l9.83-17.454L615.988.515c6.502-10.788 14.429-22.684 15.222-34.904l2.22-32.527-6.503 33.638-7.767 15.232-3.331-13.962-1.269-12.062-.158-11.737-8.403.476-13.795 18.724-2.379-17.616-16.65 21.104 5.076-20.628-14.112 8.57 11.733-22.056-18.553 9.042 13.16-17.45-18.545 5.396 16.329-16.343-15.222 5.396c9.67-9.046 18.232-20.628 29.33-27.135 6.503-3.964 15.86-5.55 23.945-5.55 7.927-.004 16.012 5.395 23.783 6.665 3.807.63 9.354 2.853 13.006.948 2.375-1.428 2.375-6.976 1.106-9.677-1.903-3.488-7.133-6.186-10.78-7.614-6.662-2.38-14.747-5.075-21.726-5.555-7.926-.635-17.28-1.587-24.893 1.27l7.927 2.377c-11.258 3.333-22.198 7.618-29.648 14.918l-12.843 12.693-13.006.634 13.636-16.977-7.926-.159 9.199-8.411-6.979-1.429c1.745-2.853 4.758-7.138 6.344-9.2 2.38-3.492 6.024-7.774 9.35-8.726l8.882-2.857c6.186-1.908 9.513-3.17 15.223-3.967l-6.817-4.123c6.975-.321 18.236 4.44 24.576 5.078 8.244.95 17.28 2.536 25.37 3.016 6.344.472 20.773 6.98 26.003 11.896 4.6 4.281 3.334 12.057 3.33 19.2 0 6.82-4.282 22.214-8.881 23.48-6.182 1.905-12.205 5.237-18.553 8.094-1.9.949-6.02 2.698-8.72 6.662 4.283.952 8.565.159 10.151-.473 7.772-2.701 14.43-5.237 21.884-7.935 6.337-2.222 9.509-12.534 10.777-20.152 1.59-9.518 3.172-20.783-.79-29.032-2.223-4.764-10.625-10.47-14.904-12.537-4.758-2.063-12.685-4.44-19.029-5.71-7.295-1.428-7.295-1.428-26.165-3.65 7.613-8.411 22.993-13.328 31.4-21.894 4.436-4.765 7.45-14.442 9.67-20.47.952-2.856.635-12.692 3.33-15.231l7.452 4.285 5.71-5.555c3.488 4.126 5.55 5.079 9.357 8.253l1.106-6.349 10.623 11.42.638-8.725 11.73 12.534 2.061-4.44 9.834 17.454-.162-10.947 8.088 16.815c.793 4.602 4.913 12.855 5.865 16.823zm-13.953 351.595c4.124-2.377 12.209-1.9 16.65-3.646 4.444-1.746 8.564-6.031 13.163-7.3 3.486-.95 8.403-1.429 12.21-.635 4.281.952 9.194 4.285 12.208 7.459 2.851 3.015 4.44 7.614 5.23 12.851-3.01-2.698-6.499-7.142-9.988-8.094-2.062-.635-4.279 1.905-6.023 2.222-3.648.952-8.248 4.444-12.054 4.92-5.548.635-11.257.793-17.125.793-2.376 0-7.293.949-8.403.314-1.744-.948-4.916-5.392-5.868-8.884m-19.5 34.75c2.537 0 6.185 1.269 7.767 3.332 1.903 2.377 3.648 6.98 2.538 10.154-.952 2.694-6.182 2.698-8.561 4.285-1.904 1.266-5.551 3.65-5.234 5.868.951 5.237 1.903 12.693-.476 16.026-1.9-.794-1.586-7.142-2.693-9.043-.796-1.746-3.172-3.491-5.075-3.491-2.696 0-4.758 3.015-8.244 4.122-.951-3.329-1.748-6.027-1.427-8.566.472-3.964 3.327-8.25 4.917-11.9.786-1.745 2.216-4.602 3.803-5.55 3.647-2.222 8.405-5.079 12.684-5.238M504.682 97.461c-4.758 1.746-11.895 6.98-16.65 7.459-7.137.949-17.284 1.9-25.372 1.9-.793 0-3.648.794-6.5 2.858.793 4.76 3.807 8.728 3.962 9.994.159 2.222 3.33 7.615 5.234 10.789 1.11 2.063 2.537 7.141 4.916 6.506 5.548-1.587 7.293-8.725 13.316-12.375-2.376 6.345-5.072 9.36-7.45 13.328-.952 1.904-5.552 4.757-7.293 5.713-4.44 2.222-6.34 1.746-10.468 4.44-2.058 1.27-5.706 2.857-8.56 6.03-1.27 1.584-4.596 2.54-4.6 12.535 0 .635-.79 8.887 1.11 11.11 2.7-6.825 2.538-11.11 6.344-15.078s8.561-6.027 10.464-6.027c2.38 0 .635 7.297 2.697 7.773 2.85.476 6.657-.159 9.195-.952 3.965-1.27 8.244-4.603 11.736-6.503 3.486-2.064 7.134-5.872 10.778-7.142 5.234-1.746 10.627 1.11 16.333-4.603 1.11-1.103 1.43-3.011 1.427-4.44 0-3.011-.472-6.665-.634-8.725-.159-3.809-2.855-8.728-3.486-12.061-.634-3.81-3.013-9.519-3.965-12.534-.952-2.536-.793-7.615-2.534-9.995M214.196 162.83c-4.6 4.126-12.212 11.423-15.856 15.55-2.693 3.332-6.817 8.09-8.403 12.533-1.11 2.857-1.272 3.65-1.272 7.3 0 .636 2.065 5.238 2.065 5.238-.32 3.964.476 9.995 1.11 12.851.794-4.285 1.583-10.157 4.12-12.216 2.855-2.54 5.234-6.19 7.296-9.364 1.586-2.222 4.755-5.872 6.658-7.776 1.586-1.746 4.282-6.027 6.978-6.82.476-.16-2.537 4.28-2.696 4.44-2.062 3.177-4.44 5.237-6.657 8.248-2.855 3.813-5.71 6.67-8.09 11.11-.95 2.063-.792 6.983-.792 9.84 0 1.424 4.123 1.9 4.123 3.332 0 6.503 2.376 9.836 5.23 13.007-.475-4.917.16-9.995 3.014-13.166 1.745-1.904 3.172-5.558 4.917-7.3 2.22-2.063 6.975-3.492 8.402-6.19 2.538-4.281 4.124-10.312 5.393-14.914.158-.952.472-3.333 3.168-4.92.797 2.543-2.058 7.142-2.534 9.681-.634 3.809-3.172 8.09-3.172 11.9 0 3.015 1.745 7.458 4.279 9.363l7.933 6.344c-1.113-3.491-3.334-6.983-3.175-10.153.158-2.698 3.33-5.555 5.075-7.456 1.586-1.745 5.706-2.86 6.503-5.24 1.265-3.806-.162-8.884.155-12.852.158-1.742 3.489-4.123 3.489-5.872l-.159-11.737c-6.023 1.746-16.808 2.857-23.466 1.746-5.075-.794-9.353-3.65-13.636-6.507" style="fill:#000;fill-opacity:1;fill-rule:evenodd;stroke:none;stroke-width:3.52559"/>
  </g>
</svg>
