<svg xmlns="http://www.w3.org/2000/svg" viewBox="0 0 815.864 815.864" role="img" aria-labelledby="title">
  <title id="title">Verkehrszeichen W5-SA63 - Cattle (used in SA)</title>
  <g transform="translate(-2684.838 2208.584)">
    <rect width="600" height="600" x="613.666" y="-3760.171" rx="40" ry="40" style="fill:#fee011;fill-opacity:1;stroke:none;stroke-width:8;stroke-linejoin:miter;stroke-miterlimit:4;stroke-dasharray:none;stroke-dashoffset:0;stroke-opacity:1" transform="rotate(45)"/>
    <rect width="584" height="584" x="621.665" y="-3752.171" rx="32" ry="32" style="fill:#000;fill-opacity:1;stroke:none;stroke-width:8;stroke-linejoin:miter;stroke-miterlimit:4;stroke-dasharray:none;stroke-dashoffset:0;stroke-opacity:1" transform="rotate(45)"/>
    <rect width="552" height="552" x="637.666" y="-3736.171" rx="16" ry="16" style="fill:#fee011;fill-opacity:1;stroke:none;stroke-width:8;stroke-linejoin:miter;stroke-miterlimit:4;stroke-dasharray:none;stroke-dashoffset:0;stroke-opacity:1" transform="rotate(45)"/>
    <path d="m3263.885-1940.96-22.407 2.888 13.75-1.698-1.866 5.261-1.19 7.472-2.886-4.753-3.564-3.568-4.244-2.714-7.131.34-4.077 2.038-1.525 5.093.336 7.468.68 7.299-10.526-1.017-13.75 1.19-13.922.508-12.565.34-32.933.34-12.733 1.185-16.637.513-16.3 1.185-22.748.681-20.373-1.53-14.77-.167-21.73-1.358-21.903-1.189-21.903-3.055-17.826-2.719-19.024-2.692 290.152-12.074-290.311 12.052-19.692.849-14.263 5.433-10.695 10.695-10.527 19.691-3.395 23.092-.849 14.94-.508 11.883v16.296l-1.358 10.019-1.87 10.018-4.92 5.77-4.926 2.887-4.92 4.584-3.396 6.959-1.87 7.64.34 8.488 1.866 5.774 3.228 7.3 1.357 6.623.849 6.79-1.698 5.942 6.282-.849 6.623-5.773 4.921-6.96 1.19-9.169v-13.922l3.735-9.505 3.564-8.997.849-6.115-2.374-5.433 2.374-8.149 3.055-12.9 4.925-26.655-1.357 28.18.508 14.771-.849 12.905-2.206 10.014-3.055 6.963-9.17 4.921 2.38-1.19 3.73 11.208 1.19 10.863.34 6.791-.34 10.018 1.53 7.98.34 11.204-.68 10.358-.51 9.165-2.886 21.73 3.736.34h3.395l-1.698 7.64-.68 7.131-.168 5.942 10.354 1.358 8.149 1.189 12.056.168 8.316.512 4.585-.512 2.887-3.904-2.887-6.11-5.602-7.472-5.433-8.657-2.547-9.169-1.017-11.203.677-11.376.849-17.485 3.227-15.788 2.038-7.472 3.223 10.355 2.547 12.396 4.244 13.582 3.228 8.657 1.865 10.186 2.379 7.98 1.53 5.434 6.278 1.184 1.87 3.228 1.017 5.942 1.53 5.261 2.206 4.417 4.925 2.038 8.489 1.525 13.24 1.19 4.245-2.207 1.866-2.206v-5.606l-1.866-4.412-3.568-3.228-6.618-6.45-6.964-11.035-2.374-9.678-1.53-11.371.85-12.224-1.19-9.338 1.19-2.72 3.054-.167 1.53 4.077.34 4.072 2.715 2.887 3.396-.34 2.038-2.888 1.865-3.731 4.245-1.022 4.585 1.358 3.568 5.093 4.071 2.038 6.623-1.017 1.19-4.585-2.379-6.45 7.98-1.19 6.96-4.584 4.075-8.489 16.637 2.039h15.448l16.977.167 18.167-2.206 13.414-1.698 11.203-2.374.34 8.148v15.28l1.357 9.678 1.53 5.77.85 7.13.167 7.64v6.96l.172 9.168v7.472l-.681 5.602-.509 5.093 6.791 1.017 1.19 6.282.335 5.602.681 5.601 5.434 2.038 6.959 1.022 8.148 1.357 9.17-1.19 3.227-7.471-6.282-8.657-3.055-5.942-3.568-11.035-2.374-9.505-1.19-10.186.168-11.549 1.19-7.807 1.697 4.244 2.378 4.076 1.526 4.921 1.357 4.076 1.698 5.77 1.53 6.791 1.357 7.304 1.357 9.165.681 4.416 1.866 7.127 2.038.85 1.53 1.02 1.865 9.678 2.72 4.245 3.563 4.071 3.055 1.358 4.925 1.189 4.412 1.021h7.98l5.775-6.79-9.51-9.17-5.262-12.224-3.903-13.923-1.19-11.884.509-12.56v-14.09l1.016-12.906 1.186-14.395 11.888-.884 9.17-1.525 7.64-5.774 6.45-11.035 3.055-12.052 1.53-12.906 4.071-12.224 4.585-13.75 4.925-12.052 8.489-6.455 12.733-4.58 7.467-1.53 9.85-2.038h6.96l11.543.172 11.035-.34 7.98-2.206 9.847-4.417 12.056.34 8.997-10.694 4.921-10.019-5.77-9.678-8.32-7.299-14.431-11.712-12.733-12.056-10.186-10.527-8.997-3.395-2.547-1.185 6.959-.34 9.85-.85 8.997-3.227 4.921-1.016 4.925-5.602-.849-5.266-2.714-1.525-12.397 3.223-6.619-.34-8.997-1.866-9.001-2.887-10.187-.849h-6.79z" style="fill:#000;fill-opacity:1;fill-rule:evenodd;stroke:none"/>
  </g>
</svg>
