<svg xmlns="http://www.w3.org/2000/svg" viewBox="0 0 276.05 184.025" role="img" aria-labelledby="title">
  <title id="title">Verkehrszeichen W5-V109 - High Risk Area (used in VIC)</title>
  <g style="display:inline">
    <path d="M-301.388-759.624v-147.225l.05-1.35.15-1.35.25-1.337.35-1.313.437-1.275.538-1.25.625-1.2.712-1.162.8-1.088.875-1.05.95-.962 1.013-.9 1.075-.825 1.137-.738 1.2-.65 1.225-.562 1.275-.475 1.3-.375 1.325-.275 1.35-.175 1.35-.088h239.663l1.35.05 1.35.15 1.337.25 1.314.338 1.274.45 1.25.537 1.2.625 1.15.713 1.101.787 1.036.875.975.95.9 1.013.813 1.087.737 1.138.65 1.187.575 1.238.463 1.262.376 1.313.286 1.325.175 1.337.075 1.363.013.412v147.225l-.05 1.35-.149 1.35-.251 1.338-.35 1.312-.438 1.275-.537 1.25-.625 1.2-.713 1.163-.798 1.1-.864 1.037-.95.963-1.025.9-1.075.825-1.138.737-1.187.65-1.238.563-1.273.475-1.302.375-1.325.275-1.35.175-1.35.087h-239.65l-1.362-.05-1.35-.15-1.325-.25-1.313-.337-1.287-.45-1.238-.538-1.212-.625-1.15-.712-1.1-.788-1.038-.875-.975-.95-.887-1.012-.825-1.088-.738-1.137-.65-1.188-.562-1.237-.475-1.263-.375-1.312-.275-1.325-.188-1.338-.075-1.362z" style="fill:#fee011;fill-opacity:1;fill-rule:evenodd;stroke:none" transform="translate(301.388 925.249)"/>
    <path d="M-43.738-752.261h-239.238l-.862-.05-.838-.15-.825-.25-.787-.338-.738-.425-.687-.512-.625-.588-.55-.662-.475-.725-.388-.763-.287-.812-.2-.825-.088-.85-.012-.413v-147.225l.05-.85.15-.85.237-.825.35-.787.425-.738.513-.687.587-.625.663-.55.712-.463.775-.387.8-.288.838-.2.85-.1.412-.012h239.238l.85.05.85.15.812.25.788.337.75.425.687.525.625.588.55.65.463.725.387.762.288.813.2.825.1.85.012.412v147.225l-.06.85-.14.85-.248.825-.34.788-.437.737-.512.688-.586.625-.652.55-.725.462-.762.388-.813.287-.837.2-.85.1zm0-169.313h-239.238l-1.212.05-1.213.15-1.187.25-1.163.35-1.125.438-1.087.525-1.05.625-.988.7-.925.787-.862.85-.788.925-.7.988-.625 1.037-.537 1.088-.45 1.125-.35 1.162-.25 1.188-.163 1.212-.05 1.213v147.287l.05 1.213.15 1.2.25 1.187.338 1.163.45 1.137.525 1.088.625 1.037.7 1 .775.925.862.85.925.788.988.712 1.037.625 1.088.538 1.125.437 1.162.363 1.188.25 1.2.15 1.212.062h239.313l1.212-.05 1.2-.15 1.188-.25 1.164-.35 1.123-.437 1.102-.525 1.036-.625.987-.7.925-.788.863-.85.787-.925.714-.987.625-1.038.536-1.087.439-1.125.349-1.163.25-1.187.162-1.2.05-1.213v-147.3l-.05-1.212-.15-1.2-.237-1.188-.35-1.162-.438-1.138-.537-1.087-.611-1.038-.7-.987-.79-.938-.85-.85-.924-.787-.988-.713-1.037-.625-1.088-.537-1.137-.438-1.163-.35-1.187-.262-1.2-.15-1.213-.063z" style="fill:#000;fill-opacity:1;fill-rule:evenodd;stroke:none" transform="translate(301.388 925.249)"/>
    <path d="M-273.15-890.286v44.162h6.212v-20.012h11.737v20.012h6.213v-44.162h-6.213v17.95h-11.737v-17.95zM-235.438-846.124v-44.162h-6.213v44.162zM-175.626-846.124v-44.162h-6.198v17.95h-11.74v-17.95h-6.212v44.162h6.213v-20.012h11.739v20.012zM-112.95-846.124v-44.162h-6.213v44.162zM-107.3-859.924h6.213v1.725l.049.763.151.75.236.725.338.687.425.638.512.575.575.512.625.425.688.338.725.25.75.15.762.062.763-.05.762-.15.726-.237.687-.338.637-.425.575-.5.513-.575.425-.637.337-.675.25-.725.163-.75.05-.763-.038-.762-.062-.4-.263-1.05-.35-1.025-.437-.988-.538-.937-.612-.9-.7-.825-.763-.763-.837-.687-.9-.6-.313-.188-3.437-1.95-.963-.612-.912-.688-.85-.775-.775-.837-.7-.913-.625-.962-.537-1.013-.438-1.05-.35-1.087-.263-1.125-.15-1.125-.049-1.15v-.063l.038-1.05.149-1.037.25-1.025.35-.988.437-.962.525-.9.6-.863.688-.787.762-.725.825-.65.888-.575.937-.475.975-.4 1-.288 1.038-.2 1.037-.1h1.05l1.05.1 1.038.188 1 .3.975.387.937.488.888.562.825.65.763.725.687.8.612.85.525.913.439.95.336 1 .251 1.012.15 1.038.05 1.05v.362h-6.213v-.35l-.05-.687-.149-.688-.239-.65-.337-.6-.425-.562-.488-.488-.562-.412-.613-.325-.65-.238-.675-.137-.698-.038-.69.05-.674.163-.65.25-.6.337-.549.425-.489.513-.4.562-.323.613-.227.65-.137.687-.038.575.051.825.15.825.25.788.337.762.425.713.512.65.589.587.649.513.526.337 3.437 1.95 1.137.713 1.075.787 1.025.863.95.937.888 1.013.8 1.075.712 1.125.638 1.187.55 1.213.45 1.262.35 1.3.162.713.15 1.087.062 1.1-.037 1.088-.138 1.1-.237 1.075L-83.9-854l-.425 1.013-.526.975-.6.912-.687.863-.763.787-.824.725-.9.638-.937.562-1.001.463-1.025.387-1.062.275-1.088.188-1.088.087-1.1-.012-1.099-.113-1.076-.212-1.05-.313-1.025-.4-.975-.5-.937-.587-.874-.663-.814-.737-.737-.813-.663-.875-.587-.937-.488-.975-.4-1.025-.312-1.063-.213-1.075-.112-1.087-.013-.688zM-77.724-890.286v44.162h6.212v-13.8l4.161-7.537 7.213 21.337h6.562l-9.662-28.562-.05-.15 8.537-15.45h-7.112l-9.663 17.537.014-17.537zM-158.763-776.186v-44.163h21.389v6.213h-15.19v11.037h9.326v6.213h-9.325v14.487h15.875v6.213zM-211.85-880.274h6.212v-.35l-.063-1.05-.137-1.037-.249-1.025-.35-.988-.439-.962-.525-.9-.598-.863-.69-.787-.762-.725-.825-.65-.886-.575-.937-.475-.975-.4-1.002-.288-1.037-.2-1.038-.1h-1.05l-1.05.1-1.036.188-1.001.3-.975.387-.938.488-.887.562-.825.65-.763.725-.687.8-.613.85-.525.913-.437.95-.163.45.039-.113-.676 2.013-.588 2.05-.487 2.062-.4 2.1-.288 2.1-.2 2.125-.086 2.125.011 2.125.1 2.138.201 2.112.313 2.113.399 2.087.5 2.063.6 2.05.601 1.75-.039-.113.388.975.487.925.577.888.648.825.738.75.787.687.863.6.912.525.963.438.987.337 1.025.238 1.039.15 1.049.037 1.05-.05 1.037-.15 1.025-.25.988-.35.95-.437.912-.538.85-.612.788-.688.726-.762.649-.825.564-.888.473-.937.388-.975.287-1.013.2-1.037.1-1.038.013-.487V-868.2h-11.05v6.213h4.837v4.825l-.05.7-.15.675-.25.65-.337.6-.413.562-.5.488-.55.412-.612.325-.663.238-.675.137-.698.05-.69-.062-.674-.163-.65-.25-.6-.337-.55-.425-.488-.5-.398-.563-.325-.625-.127-.312.025.05-.625-1.875-.537-1.9-.438-1.925-.337-1.95-.238-1.963-.15-1.975-.037-1.975.062-1.975.163-1.975.25-1.962.362-1.938.45-1.925.552-1.9.523-1.525-.025.05.289-.637.361-.588.45-.537.514-.463.574-.387.637-.288.664-.212.686-.1.688-.013.687.1.675.188.625.287.588.375.525.45.462.525.377.575.286.638.2.662.1.688.012.337zM-134.088-883.674l.65.413.587.475.525.562.438.613.362.675.263.712.176.738.074.762-.025.763-.138.75-.224.725-.312.687-.401.65-.488.588-.562.512-.625.438-.3.175-.538.225-.561.137-.526.038h-7.038v-11.038h7.038l.587.05.575.15.463.213zm-14.875-6.612v44.162h6.212v-20.7h5.525l6.075 20.7h6.35l-6.398-21.812.937-.55.886-.638.838-.725.75-.787.689-.85.598-.913.525-.975.425-1 .338-1.05.237-1.062.139-1.088.036-1.1-.062-1.087-.163-1.088-.262-1.062-.35-1.038-.449-1-.539-.962-.612-.9-.713-.838-.775-.775-.836-.7-.9-.625-.7-.4-.889-.412-.925-.325-.961-.238-.964-.125-.812-.037zM-204.938-794.686-207.901-807l-2.962 12.313zm10.837 18.5-10.625-44.163h-6.35l-10.625 44.163h6.35l2.988-12.25h8.912l3 12.25zM-182.363-803.099v-11.037h7.05v-.013l.575.05.575.15.475.213.637.4.588.487.525.55.437.625.363.663.262.712.175.75.075.75-.025.763-.123.75-.227.725-.325.7-.4.637-.487.588-.563.512-.611.45-.301.163-.55.237-.563.138-.512.037zm-6.2 26.913v-44.163h13.25l.975.05.975.15.951.238.924.35.714.337v.013l.948.55.889.65.824.712.75.8.687.85.6.925.513.963.414 1.012.336 1.05.225 1.063.137 1.087.038 1.1-.075 1.088-.163 1.087-.261 1.063-.35 1.037-.464 1-.537.95-.625.9-.7.838-.775.775-.849.687-.914.625-.686.4 6.399 21.813h-6.35l-6.075-20.7h-5.525v20.7zM-115.85-794.686-118.812-807l-2.974 12.313zm-16.776 18.5 10.638-44.163h6.337l10.638 44.163h-6.35l-3-12.25h-8.925l-2.988 12.25z" style="fill:#000;fill-opacity:1;fill-rule:evenodd;stroke:none" transform="translate(301.388 925.249)"/>
  </g>
</svg>
