<svg xmlns="http://www.w3.org/2000/svg" viewBox="0 0 123.023 123.023" role="img" aria-labelledby="title">
  <title id="title">Verkehrszeichen W7-13-L__2 - Railway Level Crossing on T-junction (left)</title>
  <path d="m-7682.191-4173.276 55.462-55.462c2.355-2.355 6.21-2.355 8.565 0l55.463 55.462c2.355 2.356 2.355 6.21 0 8.566l-55.463 55.462c-2.355 2.356-6.21 2.356-8.565 0l-55.462-55.462c-2.357-2.356-2.357-6.21 0-8.566" style="fill:#fee011;fill-opacity:1;fill-rule:evenodd;stroke:none" transform="translate(7683.958 4230.505)"/>
  <path d="m-7681.426-4172.317 55.651-55.651a4.714 4.714 0 0 1 6.646 0l55.652 55.65a4.71 4.71 0 0 1 0 6.647l-55.652 55.651a4.71 4.71 0 0 1-6.646 0l-55.651-55.65a4.714 4.714 0 0 1 0-6.647" style="fill:#000;fill-opacity:1;fill-rule:evenodd;stroke:none" transform="translate(7683.958 4230.505)"/>
  <path d="m-7679.819-4170.59 55.773-55.773a2.266 2.266 0 0 1 3.195 0l55.772 55.772a2.266 2.266 0 0 1 0 3.195l-55.772 55.773a2.266 2.266 0 0 1-3.195 0l-55.773-55.773a2.266 2.266 0 0 1 0-3.195" style="fill:#fee011;fill-opacity:1;fill-rule:evenodd;stroke:none" transform="translate(7683.958 4230.505)"/>
  <path d="M-7633.149-4148.393v3.218h-4.138v4.6h-2.3v-4.6h-5.327v4.562h-2.069v-4.562h-4.253v-3.218h4.253v-4.293h-4.253v-3.295h4.253v-4.369h-4.253v-3.218h4.253v-4.293h-4.253v-3.219h4.253v-4.292h-4.253v-3.295h4.253v-4.216h-4.253v-3.143h4.253v-4.445h-4.253v-3.296h4.253v-3.87h2.07v3.87h5.327v-3.831h2.299v3.83h4.138v3.297h-4.138v4.445h4.138v3.143h-4.138v4.216h4.138v3.295h-4.138v4.292h4.138v3.22h-4.138v4.292h4.138v3.218h-4.138v4.37h4.138v3.294h-4.138v4.293zm-6.437 0h-5.327v-4.293h5.327zm0-7.588h-5.327v-4.369h5.327zm0-7.587h-5.327v-4.292h5.327zm0-7.512h-5.327v-4.292h5.327zm0-7.587h-5.327v-4.215h5.327zm0-7.359h-5.327v-4.445h5.327zM-7629.996-4181.385v15.1h17.374l-.892 25.935h15.099l.891-25.936h20.335v-15.099zm-37.709 0h15.023v15.1h-15.023z" style="fill:#000;fill-opacity:1;fill-rule:evenodd;stroke:none" transform="translate(7683.958 4230.505)"/>
</svg>
