<svg xmlns="http://www.w3.org/2000/svg" viewBox="0 0 1021.33 1021.33" role="img" aria-labelledby="title">
  <title id="title">Verkehrszeichen W5-6 - Ford</title>
  <g transform="translate(0 442.66)">
    <rect width="750" height="750" x="-61.992" y="34.181" rx="50" ry="50" style="fill:#fddc04;fill-opacity:1;fill-rule:evenodd;stroke:none;stroke-width:5.67811;stroke-linecap:round;stroke-linejoin:round" transform="rotate(-45)"/>
    <rect width="730" height="730" x="-51.992" y="44.181" rx="40" ry="40" style="fill:#000;fill-rule:evenodd;stroke:none;stroke-width:5.52669;stroke-linecap:round;stroke-linejoin:round" transform="rotate(-45)"/>
    <rect width="690" height="690" x="-31.992" y="64.181" rx="20" ry="20" style="fill:#fddc04;fill-opacity:1;fill-rule:evenodd;stroke:none;stroke-width:5.22386;stroke-linecap:round;stroke-linejoin:round" transform="rotate(-45)"/>
    <path d="M291.918 3.826H179.083v40.597h62.388V81.14h-62.388v86.866h-36.418v-200h149.253zM488.785 67.108q0 46.865-22.687 75.82-22.388 28.657-60 28.657-41.194 0-64.477-33.134-20.299-28.657-20.299-70.746 0-47.762 22.687-75.224 22.686-27.761 62.09-27.761 37.014 0 59.7 28.358 22.986 28.06 22.986 74.03m-35.523.597q0-31.642-12.537-49.553Q428.486.242 406.098.242q-22.686 0-35.522 17.91T357.74 67.705q0 31.94 12.836 50.149 12.836 17.91 35.522 17.91 25.672 0 37.612-22.388 9.553-17.612 9.553-45.671M697.605 168.005h-40l-32.238-78.507h-53.134v78.507h-35.821v-200h91.94q19.701 0 34.328 8.359 30.746 17.91 30.746 52.835 0 35.523-32.238 53.134zm-40-138.806q0-11.642-7.76-18.507-7.762-6.866-20.896-6.866h-56.716v49.85h56.716q13.134 0 20.895-6.566 7.762-6.866 7.762-17.91M898.665 67.707q0 61.492-48.358 88.358-21.791 11.94-47.164 11.94h-64.478v-200h64.478q25.671 0 47.761 12.836 47.761 27.164 47.761 86.866m-35.82 0q0-39.702-29.553-56.12-13.731-7.76-30.15-7.76h-28.059v128.357h28.06q14.627 0 28.657-7.761 31.044-16.716 31.044-56.716" style="font-size:298.507px;line-height:1.25;font-family:&quot;Roadgeek 2000 Series E&quot;;-inkscape-font-specification:&quot;Roadgeek 2000 Series E&quot;;text-align:center;letter-spacing:1.06px;text-anchor:middle;fill:#000;fill-rule:evenodd;stroke:none;stroke-width:1.55471"/>
  </g>
</svg>
