<svg xmlns="http://www.w3.org/2000/svg" viewBox="0 0 815.864 815.864" role="img" aria-labelledby="title">
  <title id="title">Verkehrszeichen W6-4-NT - School (used in NT)</title>
  <g transform="translate(-929.463 1362.328)">
    <rect width="600" height="600" x="-29.179" y="-1920.541" fill="#fb0e76" rx="40" ry="40" transform="rotate(45)"/>
    <rect width="584" height="584" x="-21.179" y="-1912.541" rx="32" ry="32" transform="rotate(45)"/>
    <rect width="552" height="552" x="-5.179" y="-1896.541" fill="#fb0e76" rx="16" ry="16" transform="rotate(45)"/>
    <path fill-rule="evenodd" d="m1036.464-923.542 17.095-6.857c6.839 13.714 13.677 17.142 27.353 17.142 6.838 0 15.386-6.857 15.386-15.429 0-11.999-5.128-17.141-29.062-20.57-3.42 0-10.257-3.428-17.096-8.57-3.42-3.43-8.547-10.287-8.547-20.571 0-22.286 17.095-36 35.9-36 17.096 0 25.643 6.858 32.482 23.999l-17.096 6.857c-3.42-10.285-10.257-12-17.095-13.714-8.548 0-17.096 10.286-17.096 17.143 0 5.142 5.129 10.285 8.548 12 8.548 1.714 18.805 1.714 25.643 5.142 11.967 5.144 22.224 15.428 22.224 30.857 0 22.285-15.386 37.712-37.61 37.712-13.676 0-34.191-10.285-41.03-29.141m158.989-59.997c-3.42-8.572-8.548-13.714-17.096-13.714-22.224 0-25.643 29.142-25.643 44.57 0 13.714 5.129 41.142 23.934 41.142 6.838 0 17.095-8.572 18.805-15.429l17.095 5.143c-5.128 15.428-17.095 27.427-34.191 27.427-32.481 0-42.738-30.855-42.738-58.283 0-25.714 8.547-61.712 39.319-61.712 17.096 0 29.063 6.857 37.61 22.284zm49.577-29.141h18.805v46.284h41.029v-46.284h18.805v116.567h-18.805v-51.426h-41.03v51.426h-18.804zm150.44 118.284c-23.934 0-41.03-17.143-41.03-60 0-42.854 15.387-59.997 41.03-59.997 27.353 0 41.029 25.715 41.029 59.998 0 29.142-8.548 59.999-41.03 59.999m0-17.143c15.387 0 22.225-13.714 22.225-42.856 0-27.428-6.838-41.14-22.224-41.14s-22.224 10.284-22.224 41.14c0 29.142 8.548 42.856 22.224 42.856m104.282 17.143c-23.933 0-41.03-17.142-41.03-59.998s15.387-59.997 41.03-59.997 41.03 25.713 41.03 59.997c0 29.142-8.548 59.998-41.03 59.998m0-17.142c13.677 0 22.225-13.714 22.225-42.856 0-27.428-6.84-41.141-22.225-41.141s-22.224 10.286-22.224 41.141c0 29.142 6.838 42.856 22.224 42.856m71.8-101.137h17.097v99.424h52.996v17.142h-70.092z"/>
  </g>
</svg>
