<svg xmlns="http://www.w3.org/2000/svg" viewBox="0 0 269.708 269.556" role="img" aria-labelledby="title">
  <title id="title">Verkehrszeichen W4-V102 - Lane Allocation ahead (Four-way traffic) (used in VIC)</title>
  <g style="display:inline">
    <path d="M374.672-915.023 253.05-1036.577l-.85-.774-.91-.698-.974-.624-1.023-.536-1.061-.437-1.086-.35-1.124-.249-1.135-.15-1.149-.062-1.148.05-1.148.15-1.124.237-1.098.35-1.061.424-1.024.524-.973.61-.912.7-.848.773-.075.062-121.624 121.554-.773.849-.7.91-.611.96-.537 1.024-.437 1.06-.35 1.098-.249 1.123-.162 1.135-.05 1.148.05 1.147.137 1.136.25 1.122.337 1.098.437 1.06.524 1.023.612.973.699.911.761.86.062.063 121.624 121.555.849.772.91.7.974.624 1.024.524 1.06.447 1.087.351 1.123.25 1.136.15 1.148.05 1.149-.038 1.148-.151 1.11-.236 1.112-.348 1.06-.424 1.024-.54.974-.595.911-.7.849-.775.075-.061 121.623-121.555h-.012l.786-.848.699-.91.612-.974.536-1.01.437-1.06.35-1.098.25-1.123.162-1.135.05-1.148-.05-1.148-.138-1.135-.25-1.123-.336-1.097-.437-1.06-.525-1.024-.611-.973-.7-.923-.76-.848-.075-.062z" style="fill:#fee011;fill-opacity:1;fill-rule:evenodd;stroke:none" transform="translate(-108.833 1040.457)"/>
    <path d="m191.4-914.112-15.452-27.806-.262-.35-.325-.3-.399-.211-.424-.112-.45-.025-.437.074-.399.175-.362.262-.3.337-.112.187-15.427 27.769-.175.412-.075.436.037.437.125.424.212.387.3.337.362.25.412.174.437.062.449-.025.45-.137 9.573-4.241-1.548 47.167h13.23l-1.547-47.167 9.561 4.241.412.137.45.038.436-.063.412-.162.375-.25.312-.324.224-.374.138-.424.037-.45-.062-.436zM237.708-914.112l-15.452-27.806-.262-.35-.325-.3-.4-.211-.424-.112-.449-.025-.437.074-.4.175-.361.262-.3.337-.112.187-15.428 27.769-.174.412-.075.436.037.437.125.424.212.387.3.337.362.25.411.174.437.062.45-.025.45-.137 9.573-4.241-1.548 47.167h13.23l-1.547-47.167 9.549 4.241.436.137.437.038.437-.063.425-.162.362-.25.312-.324.224-.374.138-.424.037-.45-.062-.436zM265.094-869.465l-15.428-27.769-.175-.411-.062-.437.025-.436.125-.437.212-.387.3-.324.361-.262.412-.162.437-.075.45.025.449.137 9.574 4.241-1.548-47.154h13.23l-1.547 47.154 9.56-4.229.425-.137.437-.037.437.062.412.162.374.237.312.325.225.387.137.424.038.436-.063.45-.187.448-15.452 27.794-.262.362-.325.3-.4.212-.424.112-.45.025-.436-.087-.4-.163-.361-.262-.3-.336zM311.401-869.465l-15.427-27.769-.175-.411-.075-.437.038-.436.124-.437.213-.387.3-.324.361-.262.412-.162.437-.075.45.025.449.137 9.573 4.241-1.548-47.154h13.231l-1.548 47.154 9.562-4.229.412-.137.449-.037.437.062.424.162.362.237.312.325.225.387.125.424.05.436-.063.45-.187.448-15.453 27.794-.262.362-.324.3-.4.212-.424.112-.45.025-.436-.087-.4-.163-.362-.262-.3-.336z" style="fill:#000;fill-opacity:1;fill-rule:evenodd;stroke:none" transform="translate(-108.833 1040.457)"/>
    <path d="m118.32-909.409 121.623-121.555.549-.486.611-.4.65-.299.699-.224.711-.113.724-.025.724.075.711.175.674.274.624.362.575.437.237.224 121.623 121.555.475.537.399.61.312.662.212.686.125.724.025.723-.087.724-.175.698-.262.674-.362.636-.45.574-.212.225-121.623 121.554-.55.473-.611.4-.65.311-.698.225-.712.114-.736.024-.711-.075-.712-.176-.674-.273-.624-.363-.574-.448-.237-.212-121.624-121.554-.474-.55-.4-.598-.312-.661-.212-.699-.125-.711-.025-.723.075-.724.188-.699.262-.673.362-.636.449-.574zm254.48-3.742-121.624-121.555-.761-.699-.836-.611-.874-.524-.924-.449-.973-.35-.986-.249-1.024-.162-1.023-.062-1.024.05-1.023.137-.999.237-.974.337-.936.424-.886.524-.836.599-.774.674-.125.124L114.575-913.15l-.687.761-.611.823-.537.874-.437.935-.35.96-.262.999-.15 1.01-.062 1.023.038 1.036.15 1.01.237.998.337.973.424.936.512.885.599.836.686.774.113.124 121.623 121.555.762.685.823.611.887.54.923.434.974.361.986.252 1.023.16 1.024.052 1.023-.04 1.024-.136.999-.237.973-.338.936-.424.886-.524.837-.596.774-.675.124-.125L372.8-898.194l.686-.76.612-.824.537-.886.437-.923.35-.96.261-.998.15-1.01.062-1.036-.037-1.023-.15-1.01-.237-1.011-.337-.96-.424-.936-.512-.886-.6-.836-.686-.773z" style="fill:#000;fill-opacity:1;fill-rule:evenodd;stroke:none" transform="translate(-108.833 1040.457)"/>
  </g>
</svg>
