<svg xmlns="http://www.w3.org/2000/svg" xml:space="preserve" viewBox="-1 0 121.977 121.958" role="img" aria-labelledby="title">
  <title id="title">Verkehrszeichen W5-35-L - Added Lane (left)</title>
  <path d="M168.102 239.552h-46.188L89.25 206.885v-46.224l32.664-32.679h46.188l32.699 32.679v46.224z" style="fill:none;stroke:none" transform="translate(307.66 570.605)scale(1.17193)"/>
  <path d="m.745 65.216 55.03 55.025c2.29 2.289 6.105 2.289 8.432 0l55.024-55.025c2.327-2.326 2.327-6.142 0-8.475L64.207 1.718c-2.327-2.29-6.142-2.29-8.432 0L.745 56.74c-2.327 2.333-2.327 6.149 0 8.475" style="fill:#fee011;fill-opacity:1;fill-rule:evenodd;stroke:none"/>
  <path d="M56.575 119.287c1.982 1.607 4.35 1.988 6.407.345l.424-.307 54.951-54.988c1.908-2.252 1.908-4.58 0-6.832L63.406 2.517C61.572 1.03 59.473.573 57.375 1.91l-.382.307-.418.301-54.95 54.988c-1.91 2.252-1.91 4.542 0 6.795z" style="fill:#000;fill-opacity:1;fill-rule:evenodd;stroke:none"/>
  <path d="M60.618 118.334c.42-.112.61-.265.992-.535l54.95-54.952c1.07-1.335 1.07-2.326 0-3.66L61.61 4.234c-1.065-.8-2.174-.763-3.207.037L3.416 59.223c-1.029 1.3-1.029 2.29 0 3.59l54.987 54.95c.727.61 1.298.688 2.215.572" style="fill:#fee011;fill-opacity:1;fill-rule:evenodd;stroke:none"/>
  <path d="M72.74 77.99V43.148l-6.313 1.864c-.037 0-.264.036-.38.036-1.06 0-1.937-.839-1.937-1.9 0-.459.497-1.255.497-1.255l12.728-18.504 12.693 18.504c.147.269.491.796.491 1.255 0 1.061-.871 1.9-1.937 1.9-.115 0-.343-.036-.38-.036l-6.307-1.864V77.99zm-11.632 34.352L35.422 86.429l10.64-10.64c8.892-8.892 12.386-20.217 12.386-32.567L58.41 13.62h2.698zM37.512 67.277c5.852-5.853 9.046-14.25 9.046-22.61 0-.532 0-1.028.074-1.555l6.422 1.9c.036 0 .264.036.38.036 1.066 0 1.936-.839 1.936-1.9 0-.459-.342-.986-.49-1.255L42.188 23.389l-12.73 18.504s-.495.796-.495 1.255c0 1.061.875 1.9 1.936 1.9.116 0 .343-.036.38-.036l6.27-1.9c-.037.337.041 1.097.041 1.556 0 6.001-2.205 12.08-6.422 16.26L20.529 71.53l6.344 6.349z" style="fill:#000;fill-opacity:1;fill-rule:evenodd;stroke:none"/>
</svg>
