<svg xmlns="http://www.w3.org/2000/svg" viewBox="0 0 600.4 400.4" role="img" aria-labelledby="title">
  <title id="title">Verkehrszeichen W8-SA65 - On Green Signal (used in SA)</title>
  <g transform="translate(-2571.084 2028.286)">
    <rect width="600" height="400" x="2571.284" y="-2028.086" rx="40" ry="40" style="fill:#fee011;fill-opacity:1;stroke:none;stroke-width:4;stroke-linejoin:miter;stroke-miterlimit:4;stroke-dasharray:32,4;stroke-dashoffset:0;stroke-opacity:1"/>
    <rect width="584" height="384" x="2579.284" y="-2020.086" rx="32" ry="32" style="fill:#000;fill-opacity:1;stroke:none;stroke-width:4;stroke-linejoin:miter;stroke-miterlimit:4;stroke-dasharray:32,4;stroke-dashoffset:0;stroke-opacity:1"/>
    <rect width="552" height="352" x="2595.284" y="-2004.086" rx="16" ry="16" style="fill:#fee011;fill-opacity:1;stroke:none;stroke-width:4;stroke-linejoin:miter;stroke-miterlimit:4;stroke-dasharray:32,4;stroke-dashoffset:0;stroke-opacity:1"/>
    <path d="m73.752 80-1.305.162-1.467.164-1.302.162-1.14.326-1.306.49-1.14.325-1.305.49-.976.652-1.141.65-.979.653-1.14.817-.979.814-.814.977-.979.978-.814.979-1.631 2.28-1.955 3.913-.652 1.467-.653 1.629-.488 1.468-.488 1.793-.49 1.63-.489 1.792-.326 1.955-.326 1.793-.326 2.12-.327 1.957-.162 2.117-.326 2.283-.164 2.281v2.281L48 123.844v9.127l.162 2.283.164 2.443.162 2.12.164 2.28.162 2.12.979 5.867 1.467 5.379.488 1.63.49 1.468.653 1.628.65 1.305.652 1.467.653 1.305.814 1.14.653 1.303.814.978.978 1.141 1.793 1.793 1.956 1.63 1.14.651.979.653 2.28.978 1.306.488 1.14.327 1.305.164 1.303.326 1.466.162h3.586l1.467-.162 2.61-.326 1.302-.326 1.14-.327 1.306-.488 1.14-.49.979-.652 1.14-.65.979-.653 1.955-1.631.978-.977 1.63-1.957 1.63-2.28.65-1.306.817-1.302.652-1.467.489-1.467.652-1.467.977-3.261.978-3.584.326-1.957.326-1.793.653-4.237.326-4.238.162-2.281.162-2.446v-2.28l.164-2.61v-3.748l-.164-2.12v-2.28l-.162-2.12-.162-1.955-.164-2.119-.162-1.793-.164-1.957-.326-1.793-.163-1.793-.326-1.793-.652-3.258-.979-2.935-.324-1.467-.978-2.608-.815-1.628-.816-1.631-.977-1.63-1.957-2.933-1.14-1.304-1.141-1.141-2.607-1.957-1.467-.815-2.934-1.302-1.63-.49-1.63-.327-1.793-.326L76.523 80h-2.771m47.232 1.793v92.414h12.713v-60.63l27.71 60.63H172V81.793h-13.527v53.46l-24.776-53.46zM74.078 92.877h2.119l.979.162 1.955.652.978.653.815.488 1.629 1.629.652.978.815 1.141.49 1.14.652 1.305.65 1.467.49 1.467.489 1.63.652 3.587.489 1.955.164 2.119.326 2.281.162 2.281.326 4.891v10.594l-.164 2.607-.162 2.446-.162 2.28-.652 4.24-.327 1.954-.326 1.793-.488 1.793-.49 1.631-.977 2.934-.652 1.14-.653 1.305-.814.976-.652.979-.815.814-.816.653-.977.652-.814.488-.979.327-1.14.326h-.979l-.814.164-1.631-.164-1.467-.326-1.467-.653-1.303-.65-1.142-.979-1.14-1.304-.98-1.467-.976-1.629-.814-1.793-.326-1.14-.979-3.913-.326-1.63-.162-1.467-.326-1.63-.164-1.792-.163-1.957-.164-1.791-.162-2.12v-2.119l-.164-2.119v-7.008l.164-2.609v-2.443l.326-4.89.653-4.237.326-1.957.324-1.793.49-1.793.489-1.63.978-2.933.653-1.304 1.302-2.282.815-.816.652-.977.816-.652.977-.652.814-.489 1.957-.652zM150.893 224l-1.793.162-1.793.326-1.63.49-1.792.489-1.631.652-1.467.815-1.629.978-1.467.979-1.466 1.302-.327.164-1.304 1.303-1.303 1.467-1.143 1.305-.814 1.466-.814 1.467-1.305 3.26-.326 1.629-.325 1.793v3.912l.163 1.793.326 1.793.488 1.793.49 1.63.65 1.792.653 1.142.814 1.63.979 1.466 1.14 1.467 1.141 1.305 1.305 1.302 1.305 1.143.65.488 3.26 1.955 1.468.979 1.63.814 1.63.979 1.467.978 3.26 1.955.162.162 1.467 1.143 1.304 1.14 1.303 1.303 1.14 1.305 1.143 1.467 1.63 2.933.814 1.631.49 1.63.488 1.954.326 1.793.163 1.631.164.979-.164 1.955-.327 1.793-.488 1.793-.652 1.629-.815 1.468-.978 1.303-1.14 1.305-1.468.976-1.466.817-1.793.488-1.793.326h-1.141l-2.12-.164-1.954-.324-1.631-.49-1.467-.815-1.303-.978-.978-1.141-.815-1.303-.652-1.304-.652-1.467-.653-3.586-.162-2.12-.164-2.28H124v1.955l.162 2.119.164 1.793.326 1.955.327 1.63.488 1.794 1.304 3.26.65 1.466.817 1.467 1.955 2.607 1.141 1.141.164.326 1.303 1.14 1.467 1.141 1.304.979 1.63.978 1.466.653 3.26 1.302 3.586.653 3.912.326h.326l1.955-.162 1.793-.164 3.586-.653 1.793-.488 1.63-.652 2.934-1.629 1.467-.979 1.467-1.14 1.305-1.14 1.302-1.305.979-1.303 1.955-2.936.652-1.467.815-1.628.978-3.26.653-3.586.162-1.955v-3.75l-.326-3.26-.163-1.467-.326-1.629-.488-1.467-.326-1.63-.653-1.467-.488-1.467-.652-1.467-.815-1.304-.816-1.467-.814-1.303-1.956-2.61-1.142-1.302-2.443-2.445-2.608-2.282-2.935-2.28-1.63-1.143-1.63-.977-1.791-1.14-3.586-1.958-2.934-1.467-1.304-1.14-1.141-1.14-.979-1.305-.652-1.63-.488-1.63-.164-1.793-.162-1.303.162-1.63.652-1.63.816-1.466 1.141-1.305.815-.815 1.628-1.14 1.631-.817 1.63-.488 1.792-.326h.653l1.466.164 1.631.488 1.467.979 1.629 1.302.326.49 1.305 1.63.976 1.63.653 1.63.326 1.466v.815h13.039l-.162-1.955-.326-3.586-.979-3.26-.652-1.629-.815-1.63-.978-1.468-.977-1.304-1.14-1.467-.49-.488-1.303-1.141-1.47-1.14-2.933-1.958-3.26-1.302-1.628-.49-1.793-.327-1.793-.162h-3.912m96.275 0-1.793.162-3.26.652-1.467.49-2.933 1.303-1.303.815-2.61 1.957-1.14 1.14-1.14 1.305-1.956 2.934-.814 1.629-.979 1.63-.814 1.794-.49 1.302-.326 1.305-.489 1.303-.488 1.468-.652 2.934-.979 4.889-.162 1.793-.326 1.793-.164 1.955-.162 1.793-.164 1.957-.162 2.119v2.117l-.165 2.12v8.964l.165 1.955v2.12l.162 1.956.164 1.793.326 1.955.162 1.793.652 3.586.653 3.26.326 1.467.488 1.629.979 2.935.488 1.14.652 1.956.979 1.63.814 1.794.979 1.467 1.14 1.466.977 1.303 1.143 1.14 1.302 1.141 1.305.979 1.303.814 1.466.817 1.305.652 1.631.488 1.467.489 1.79.326 1.632.164 1.793.162h.488l1.957-.162 1.793-.164 3.586-.653 1.793-.488 1.629-.652 1.629-.815 1.466-.814.165-.164 1.466-.979 1.467-1.14 2.608-2.608.978-1.302.979-1.631.488-.979.652-1.303.488-1.466.327-1.467.326-1.631.326-1.793.162-1.793.326-4.236v-20.537h-23.959v13.365h11.246v10.432l-.162 1.628-.49 1.467-.977 1.631-1.14 1.303-1.143.978-1.629 1.141-1.63.978-1.63.653-1.63.324h-2.607l-1.141-.162-.979-.326-1.955-.979-.814-.65-.979-.817-.652-.976-.815-.979-.652-1.14-.652-1.305-.489-1.467-.652-1.467-.488-1.628-.326-1.793-.653-3.913-.326-2.28-.326-4.565-.162-2.608v-15.484l.326-4.889.162-2.283.326-2.119.653-3.91.488-1.793.326-1.631.652-1.629.489-1.305 1.304-2.607.653-.979.814-.978 1.629-1.629.816-.488.977-.49.979-.327 1.14-.326h3.424l1.955.326 1.63.653 1.468.814 1.14.979 1.141 1.14.814 1.467.653 1.63.326 1.794.162 1.793h13.53v-1.793l-.165-1.793-.326-1.63-.488-1.794-.653-1.629-.652-1.467-.814-1.63-.979-1.467-.976-1.303-1.305-1.467-.979-.978-1.466-1.14-1.303-1.142-1.631-.978-1.467-.979-3.26-1.302-1.628-.49-1.793-.489-3.586-.326h-3.098m-57.508 1.793v92.414h13.201v-92.414zm99.045 0v92.414h12.875v-60.795l28.035 60.795h10.594v-92.414h-13.691v53.46l-24.938-53.46zm93.203 0-22.33 92.414h13.527l6.194-25.752h19.07l6.682 25.752h13.365l-23.469-92.414zm50.988 0v92.414H480v-12.225h-33.738v-80.189zm-44.468 29.012 6.52 24.937h-13.04zM261.264 80l-1.793.162-1.631.326-3.26.979-1.467.488-1.467.816-1.302.815-2.61 1.955-1.14 1.14-1.14 1.305-.98 1.305-.976 1.467-.978 1.629-1.63 3.586-1.468 3.912-.324 1.304-.49 1.467-1.303 6.52-.164 1.793-.327 1.79-.162 1.794-.49 5.869v2.117l-.162 2.12v8.964l.162 2.12v1.954l.326 3.912.326 1.793.165 1.955.326 1.793.976 4.891.49 1.629.327 1.467.976 2.935.49 1.303 1.63 3.586 1.954 3.26.979 1.304 2.283 2.608 1.303 1.14 1.305.979 1.302.814 1.467.815 1.467.652 1.467.488 1.63.327 1.63.326 1.792.326h4.239l1.793-.162 1.793-.326 1.793-.49 1.793-.489 3.26-1.304 1.628-.977 1.631-1.143 1.467-1.14 1.305-1.14 1.302-1.304 1.957-2.933.489-1.143.652-1.303.488-1.304.326-1.467.327-1.629.326-1.793.326-3.912.162-2.12v-20.536h-24.285v13.365h11.41v10.432l-.164 1.629-.488 1.468-.815 1.467-1.304 1.467-1.141.976-1.63 1.141-1.63.816-1.63.653-1.63.324-1.466.164h-1.141l-1.143-.326-1.14-.162-1.955-.979-.815-.814-.816-.652-.815-.979-.814-1.14-.652-1.141-.653-1.305-.488-1.303-.652-1.63-.489-1.63-.652-3.585-.652-4.239-.162-2.28-.327-4.892-.164-2.607v-7.498l.164-2.77v-2.609l.327-4.889.162-2.28.652-4.24.326-1.792.488-1.793.327-1.793.652-1.467.488-1.467.653-1.304 1.304-2.282.815-.978.814-.815.815-.652.978-.65.979-.49.976-.327.979-.162 1.14-.164h.49l1.956.164 1.957.326 1.629.653 1.466.65 1.305.979.977 1.304.978 1.467.488 1.629.49 1.793v1.793h13.692v-1.793l-.164-1.793-.326-1.793-.979-3.26-.814-1.629-.815-1.466-1.955-2.934-2.283-2.283-1.467-1.303-1.466-1.14-1.467-.98-1.63-.814-1.466-.816-1.793-.65-1.63-.49-3.587-.653L264.36 80h-3.095M304 81.793v92.414h13.04v-42.865h12.386l12.55 42.865h14.018l-13.53-44.984 1.468-.653 1.63-.652 1.467-.977 1.303-1.142 1.143-1.303 1.302-1.467.979-1.466.814-1.305.815-1.63 1.304-3.259.489-1.793.326-1.63.326-1.794.164-1.793v-3.26l-.164-1.792-.326-1.63-.326-1.792-.489-1.631-.652-1.629-.814-1.63-.815-1.63-.978-1.63-.979-1.467-.162-.163-1.305-1.63-1.302-1.467-1.305-1.14-1.467-1.141-1.467-.979-1.63-.65-1.467-.653-1.63-.326-1.63-.164-1.303-.162zm67.998 0v92.414h47.592v-13.039h-34.553v-30.479h20.211v-12.55h-20.21V94.832h32.923V81.793zm63.922 0v92.414h47.594v-13.039h-34.555v-30.479h20.21v-12.55h-20.21V94.832h33.088V81.793zm63.924 0v92.414h13.039v-60.63l28.36 60.63H552V81.793h-13.854v53.46l-25.263-53.46zM317.039 95.158h18.418l1.467.326 1.305.653.976.814.979 1.14.814 1.305.49 1.467.489 1.793.162 2.117.164 1.631-.164 1.955-.327 1.793-.488 1.793-.652 1.467-.488.815-1.141 1.63-1.467 1.141-1.467.652-1.63.327-.977.162h-16.463z" style="fill:#000;fill-opacity:1;fill-rule:evenodd;stroke:none" transform="translate(2571.284 -2028.086)"/>
  </g>
</svg>
