<svg xmlns="http://www.w3.org/2000/svg" viewBox="0 0 397.53 264.96" role="img" aria-labelledby="title">
  <title id="title">Verkehrszeichen W6-V101 - Cyclists (used in VIC)</title>
  <g style="display:inline">
    <path d="M-128.725-692.3h-311.22l-2.07.18-2.16.27-2.07.36-2.07.45-1.98.54-1.98.63-1.98.72-1.98.81-1.89.9-1.8.99-1.8 1.17-1.71 1.17-1.71 1.26-1.62 1.26-1.53 1.44-1.53 1.53-1.44 1.53-1.35 1.62-1.26 1.71-1.17 1.71-1.08 1.8-.99 1.8-.9 1.89-.81 1.98-.81 1.98-.63 1.98-.54 2.07-.45 1.98-.36 2.07-.18 2.16-.18 2.07-.09 2.07v176.67l.09 2.16.18 2.07.18 2.07.36 2.07.45 2.07.54 2.07.63 1.98.72 1.98.9 1.89.9 1.89.99 1.89 1.08 1.802 1.17 1.709 1.26 1.708 1.35 1.622 1.44 1.53 1.44 1.528 1.62 1.35 1.62 1.35 1.62 1.26 1.8 1.173 1.8 1.079 1.8.99 1.89.99 1.98.81 1.89.72 2.07.63 1.98.54 2.07.448 2.07.363 2.07.267 2.16.182h313.38l2.07-.182 2.07-.267 2.07-.363 2.07-.448 2.07-.54 1.98-.63 1.98-.72 1.89-.81 1.888-.902 1.892-.988 1.8-1.17 1.71-1.172 1.71-1.26 1.62-1.35 1.53-1.35 1.44-1.527 1.44-1.531 1.35-1.622 1.26-1.708 1.17-1.71 1.08-1.802.99-1.798.99-1.98.81-1.89.72-1.98.63-1.98.54-2.07.45-1.98.36-2.07.27-2.16.09-2.07.09-2.07v-178.83l-.18-2.07-.27-2.07-.36-2.07-.45-2.07-.54-2.07-.63-1.98-.72-1.98-.81-1.89-.9-1.89-1.08-1.89-1.08-1.8-1.17-1.71-1.26-1.71-1.35-1.62-1.35-1.53-1.53-1.53-1.53-1.35-1.62-1.35-1.71-1.26-1.71-1.17-1.8-1.08-1.892-1.08-1.888-.9-1.89-.81-1.98-.72-1.98-.63-2.07-.54-1.98-.45-2.16-.36-2.07-.27-2.07-.18h-2.16" style="fill:#fee011;fill-opacity:1;fill-rule:evenodd;stroke:none" transform="translate(482.065 692.3)"/>
    <path d="M-468.745-648.2v-1.71l.18-1.8.27-1.71.27-1.71.45-1.71.54-1.71.72-1.62.72-1.62.81-1.53.9-1.53.99-1.44 1.08-1.35 1.08-1.35 1.26-1.26 1.26-1.17 1.35-1.17 1.44-.99 1.44-.99 1.53-.9 1.62-.72 1.62-.72 1.62-.63 1.71-.45 1.71-.45 1.71-.27 1.8-.27 1.71-.09h310.23l1.8.09 1.71.09 1.8.27 1.71.36 1.708.45 1.622.54 1.708.63 1.53.72 1.622.81 1.44.9 1.53.99 1.35 1.08 1.35 1.17 1.26 1.17 1.168 1.26 1.172 1.44.99 1.35.99 1.53.81 1.53.81 1.53.72 1.62.54 1.71.54 1.62.45 1.71.27 1.71.18 1.8.18 1.71v177.75l-.09 1.8-.09 1.71-.27 1.8-.36 1.71-.452 1.71-.538 1.62-.63 1.71-.72 1.53-.81 1.62-.9 1.532-.99 1.437-1.08 1.35-1.17 1.35-1.17 1.26-1.35 1.173-1.352 1.169-1.438.988-1.44.992-1.53.898-1.53.72-1.62.72-1.71.63-1.71.453-1.62.449-1.8.27-1.712.178-1.8.182h-310.228l-1.71-.09-1.8-.092-1.71-.267-1.71-.363-1.71-.448-1.71-.54-1.62-.63-1.62-.72-1.53-.81-1.53-.902-1.44-.988-1.35-1.08-1.35-1.172-1.26-1.168-1.26-1.35-1.08-1.35-1.08-1.35-.9-1.532-.9-1.528-.81-1.53-.63-1.62-.63-1.71-.54-1.62-.36-1.71-.36-1.8-.18-1.71-.09-1.8V-648.2m30.87-39.69h-1.98l-1.98.18-1.98.27-1.98.36-1.98.45-1.89.54-1.89.63-1.8.72-1.89.81-1.71.9-1.71.99-1.71 1.08-1.62 1.17-1.53 1.26-1.53 1.35-1.35 1.44-1.35 1.44-1.35 1.53-1.17 1.62-1.08 1.62-1.08 1.71-.9 1.8-.9 1.8-.72 1.8-.72 1.89-.54 1.89-.45 1.98-.36 1.89-.36 1.98-.18 1.98v181.35l.18 1.98.27 1.98.27 1.89.45 1.98.54 1.89.63 1.89.81 1.89.81 1.802.9 1.799.99 1.708 1.08 1.713 1.17 1.527 1.26 1.622 1.35 1.44 1.35 1.44 1.44 1.35 1.62 1.26 1.53 1.26 1.71 1.08 1.71.99 1.71.99 1.8.81 1.89.81 1.89.63 1.89.54 1.89.54 1.98.36 1.98.27 1.98.18 1.98.09h311.85l1.98-.18 1.98-.272 1.89-.358 1.98-.45 1.89-.542 1.89-.63 1.89-.72 1.8-.807 1.8-.901 1.71-.99 1.62-1.08 1.62-1.26 1.62-1.17 1.44-1.35 1.44-1.44 1.348-1.44 1.26-1.53 1.172-1.62 1.168-1.622.99-1.708.992-1.8.81-1.802.81-1.798.63-1.89.54-1.89.54-1.98.36-1.89.27-1.98.178-1.98.092-2.07v-177.3l-.092-1.98-.088-1.98-.27-1.98-.36-1.98-.45-1.89-.54-1.98-.63-1.8-.722-1.89-.808-1.8-.9-1.8-1.08-1.71-1.08-1.71-1.17-1.62-1.17-1.53-1.35-1.44-1.44-1.44-1.44-1.35-1.53-1.26-1.62-1.26-1.62-1.08-1.71-.99-1.8-.99-1.8-.81-1.8-.81-1.89-.63-1.892-.63-1.978-.45-1.89-.36-1.98-.27-2.07-.18-1.98-.09h-309.78" style="fill:#000;fill-opacity:1;fill-rule:evenodd;stroke:none" transform="translate(482.065 692.3)"/>
    <path d="m-150.147-507.7-1.53.54-1.53.63-1.438.81-1.44.81-1.262.81-1.348.99-1.17 1.08-1.17 1.08-1.08 1.17-.99 1.26-.902 1.26-.807 1.35-.723 1.35-.628 1.44-.63 1.44-.45 1.44-.362 1.53-.268 1.53-.09 1.53-.092 1.53v1.53l.092 1.17.448 1.17.45 1.17.632 1.08.63 1.08.808 1.08.812.99.9.9.99.81 1.08.81 1.08.72 1.17.63.54.27 1.618.45 1.53.36 1.622.27 1.62.18 1.618.09h1.622l1.62-.09 1.618-.27 1.622-.27 1.53-.36 1.62-.45 1.44-.54 1.53-.63 1.44-.72.538-.36 1.53-.9 1.442-.9 1.35-.99 1.26-1.08 1.26-1.17 1.17-1.26 1.08-1.26.99-1.35.898-1.35.812-1.44.72-1.44.63-1.53.36-.81.36-1.17.36-1.26.18-1.26.178-1.35v-1.26l-.088-1.26-.182-1.35-.268-1.26-.36-1.17-.45-1.26-.63-1.17-.63-1.08-.722-1.17-.808-.99-.9-.99-.18-.09-.45-.18h-.992l-.628.18-.362.09h-.358l-.27-.18-.36-.18-.18-.27-.18-.27v-.63l-.992-.63-.99-.54-1.078-.45-1.08-.36-1.172-.36-1.168-.18-1.17-.09h-1.262l-1.168.09-1.17.09-1.08.27-1.172.36-1.078.45-1.08.54-.45 7.56v1.17l.09 1.17.27 1.08.27 1.17.36 1.08.63 1.71.718 1.62.812 1.62.9 1.62.27.54.18.36-.092.45-.088.36-.182.36-.27.27-.358.27-.36.09-.36.09-.9-.45-.812-.54-.718-.63-.72-.63-.632-.81-.538-.72-.452-.9-.267-.45.089-.63v-.9l-.54-2.61-.45-2.61-.27-2.7-.27-2.61-.092-2.7zm4.052-6.48v1.08l.99-.18zm-.27-6.21 5.58 5.4-1.35-.45-1.352-.54-1.258-.63-1.17-.72-.18-.09zm-5.4-23.85 5.49-.63.36.18.27.18.18.27.09.36v.36l-.09.36-.18.27-.27.27-.45.54-.36.63-.27.63-.18.63-.09.18zm1.44 24.66.178-9.54-.628-1.98-.54-2.07-.362-1.89-2.07-1.53-2.248-1.44-2.25-1.44-1.08-.63-.99-.72-.81-.72-.812-.9-.628-.81-.63-.99-.272-.45h-1.168l-1.17-.18-1.17-.18-1.082-.27-.718-.27 2.88 6.03 2.79 6.03 1.44 3.06.718 1.62.722 1.62.63 1.62.54 1.71.36 1.71.358 1.71.092.54zm-31.68 24.21 29.16-21.15-4.59-.18-.18.81-.27.9-.452.81-.448.72-.54.72-.63.63-.72.63-.722.45-.178.09-7.56 5.13-1.44.81-1.44.81-1.44.63-.99.36-.812.27-.807.27-.811.45-.63.45-.18.09-.81.72-.9.54-.99.54-1.08.36-.99.36-.45.09zm-42.12-17.01 1.53-.27 1.53-.18 1.53-.09h1.62l1.53.09 1.53.18 1.53.27 1.53.36 1.44.45 1.44.54 1.35.63.72.36-11.97 12.51-.9-.36-.81-.27-.9-.18h-1.8l-.9.09-.9.27-.81.27-.81.36-.72.45-.72.54-.63.63-.54.72-.45.72-.45.72-.27.81-.18.81-.09.81v.9l.18.81.18.81.27.81.18.27.27.72.45.72.54.72.63.54.63.63.72.45.81.36.81.36.81.18.9.18h1.8l.81-.18.9-.27.81-.27.81-.45.36-.27.72-.63.63-.63.54-.72.45-.81.36-.9.27-.81.18-.9.09-.9-.09-.9-.09-.9-.18-.9-.27-.54 12.96-13.14.81.72.81.81.63.81.63.81.54.99.45.9.36.99.27 1.08-1.53.63-1.53.72-1.44.81-1.44.9-.9.63-.36.45v.45l.45 1.08.45.9.54.99.63.81.45.45.18.36.09.27v.54l-.36 1.44-.18 1.53-.09 1.44v1.53l.09 1.53.18 1.44.18.9-.99 1.26-.99 1.17-1.08 1.17-1.08 1.17-1.26.99-1.26.99-1.35.9-1.44.81-1.44.72-1.44.63-1.53.54-1.62.45-1.53.45-1.62.27-1.62.18-1.71.09h-1.71l-1.44.09h-1.44l-1.35-.18-1.44-.18-1.35-.27-1.35-.45-1.35-.45-1.26-.54-1.26-.72-1.17-.72-1.17-.81-.99-.9-1.08-.9-.9-.99-.81-1.08-.81-1.17-.27-.45.18.27-.54-1.35-.45-1.35-.45-1.35-.27-1.35-.18-1.44v-2.88l.09-1.35.27-1.44.36-1.35.36-1.44.54-1.26.18-.45.09-.18.63-1.53.72-1.44.81-1.44.9-1.35.99-1.35 1.08-1.26 1.17-1.17 1.26-1.17 1.26-1.08 1.35-.99 1.44-.99 1.44-.81 1.53-.81 1.53-.72 1.62-.54 1.71-.54 1.62-.45zm7.56 17.01 12.15-12.51-.72-.63-12.24 12.24zm14.4-15.66 6.66-6.3.18.81-6.12 6.12zm6.93-2.34.63 10.44-.36.36-.36-.27-.27-.9-.36-.9-.45-.9-.54-.81-.63-.72-.72-.72-.72-.63-.54-.36zm3.24-3.6 6.57-.18-.09 1.89-.27 1.8-.36 1.8-.36 1.8-.54 1.8-.63 1.71-.63 1.53-.45.54-.54.45-.54.36-.63.27-.63.18-.45.09zm1.89-17.1.99 1.44 1.08 1.35 1.17 1.35 1.26 1.17 1.35 1.17 1.35 1.17 1.44.99.72.45-.81.54-.81.63-.63.63-.63.72-.54.72-.45.9-.09.09-7.47.18-.45-12.33zm-34.74 18.72 1.62-.27 1.62-.27 1.62-.09h1.71l1.62.09 1.62.09 1.62.27 1.62.36 1.62.45 1.53.54 1.53.54 1.53.72.99.54 9.45-8.82-.63-12.15-1.35-.27-.54-.18-.36-.18-.36-.36-.27-.36-.09-.18-2.97-6.93-.27-.36-.27-.36-.36-.27-.36-.18-.45-.36-.09-.54.27-.54.54-.27.54.09h.09l7.29.9-.45-1.08-.27-1.17-.27-1.17-.09-1.17v-1.08l.09-1.17.18-1.17.36-1.08.36-1.17.45-1.08.63-.99.63-.99.36-.45 1.44-1.53 1.53-1.35 1.62-1.35 1.71-1.35 1.71-1.17 1.8-1.17 1.8-.99 1.888-.99 1.98-.9 1.982-.81 1.98-.72 2.07-.63 2.07-.54 2.158-.45 2.162-.36 2.07-.27 2.16-.18 2.16-.09h2.248l2.162.18 2.07.18 2.158.27.452.09 1.078.36 1.082.36.99.54.9.54.9.72.81.72.63.63.27-.9.45-.81.45-.81.54-.81.628-.63.722-.63.808-.63.902-.45.81-.36.99-.36.898-.18.992-.18h1.98l.99.18.99.27.9.27.9.45.18.09.9.63.9.63.72.63.72.81.63.81.54.9.45.9.36.9.27.99.088.99.092.99v.99l-.18.99-.27.99-.27.99-.45.9-.27.54-.81.18-.09.54-.18.45-.27.45-.36.36-.45.36-.45.27h-.18l-.27 2.16-.182.27-.178.27-.18.18-.36.18h-.36l-.36-.09-.72.45-.72.27-.81.27h-.09l-.27.54-.36.45-.452.45-.448.36-.63.27-.452.09h-.988l-.45.45.09.18v-.27l.09 1.44v1.44l-.18 1.44-.18 1.35-.27 1.44-.449 1.35-.451 1.35-.63 1.35-.63 1.26-.63.99-.182.54.27.54.272.45.27.45.18.45v.99l-.18.45-.09.18-.54.54-.452.54-.358.36-.36.45-.18.45-.18.54-.09.54.09.54.18.54.18.45.36.45 1.98 2.34 1.89 2.34 1.8 2.43 1.71 2.43 1.168 1.8.452.36h.09l3.87.9.54.27.45.27.451.36.359.45.178.54.182.54.088.54v.54l-.178.45-.092.36v.36l.182.27.36.45.988.99.902 1.17.81 1.08.72 1.26.72 1.26.54 1.26.45 1.35.36 1.35.27 1.35.18 1.44.09 1.35v1.35l-.182 1.44-.178 1.35-.36 1.35-.36 1.35-.27.45h.09l-.63 1.62-.72 1.53-.81 1.53-.9 1.53-.99 1.44-1.08 1.35-1.17 1.35-1.17 1.26-1.35 1.26-1.352 1.08-1.438 1.08-1.53.99-1.53.99-.18.09-1.442.81-1.53.72-1.618.63-1.62.54-1.622.45-1.708.36-1.71.27-1.712.18-1.708.09h-1.71l-1.71-.09-1.71-.18-1.71-.27-1.712-.36-1.618-.45-.452-.18-.358-.09-1.35-.63-1.17-.72-1.26-.81-1.08-.81-1.08-.99-.99-.99-.902-1.08-.808-1.08-.81-1.17-.63-1.26-.54-1.17-.54-1.35-.182-.81-.178-1.62v-3.24l.178-1.71.272-1.53.36-1.62.45-1.53.63-1.62.63-1.44.718-1.53.812-1.44.9-1.35 1.08-1.35.99-1.26 1.17-1.17 1.26-1.17 1.26-1.08 1.44-1.08 1.35-.9 1.528-.9 1.53-.72 1.53-.72 1.622-.63.27-.09 1.35-4.41-29.7 22.68.72.18.81.18.72.27.628.45.632.45.54.45.45.63.36.63.18.45.09.36-.09.36-.092.27-.268.27-.272.18-.358.09h-.27l-2.972.9-.358.09-.27.18-.362.45.99-.72.812-.09.808-.18.722-.27.63-.36-3.962 1.62-.268.36-.36.36-.36.27-.45.18-.54.09h-1.44l-1.35-.09-.9-.09-.99 2.61-.45.72-.54.63-.63.63-.72.54-.72.45-.81.36-.81.36-.81.18h-.09l-1.26.18-1.26.09-1.26-.09-1.26-.09-1.26-.18-1.26-.27-.99 1.35-.99 1.26-1.17 1.26-1.17 1.17-1.26 1.08-1.35 1.08-1.44.9-1.44.9-1.53.81-1.53.72-1.62.72-1.62.54-1.62.45-1.71.36-1.71.27-1.71.27-1.8.09h-1.44l-1.53.09-1.53-.09-1.53-.09-1.53-.18-1.44-.27-1.53-.45-1.44-.45-1.35-.54-1.44-.63-1.26-.81-1.26-.81-1.26-.81-1.08-.99-1.08-.99-.99-1.08-.9-1.17-.9-1.17-.45-.81-.63-1.44-.54-1.44-.36-1.53-.36-1.44-.18-1.53-.09-1.53v-1.44l.09-1.53.18-1.53.27-1.44.36-1.53.45-1.44.63-1.44.09-.27.72-1.53.72-1.53.81-1.53.99-1.44.99-1.44 1.17-1.35 1.17-1.26 1.26-1.26 1.35-1.17 1.35-1.08 1.44-1.08 1.53-.9 1.62-.9 1.53-.72 1.71-.72 1.71-.63 1.71-.54zM-348.775-506.18l-1.53.54-1.44.63-1.53.72-1.35.81-1.35.9-1.26.99-1.26.99-1.08 1.17-1.08 1.17-.99 1.17-.9 1.35-.9 1.26-.72 1.44-.63 1.35-.54 1.44-.45 1.53-.36 1.53-.27 1.44-.18 1.53-.09 1.53.09 1.62.09 1.08.36 1.26.54 1.08.54 1.17.72 1.08.72.99.81.99.9.9.99.9 1.08.72 1.08.72 1.17.63.63.27 1.53.45 1.62.36 1.53.27 1.62.18 1.71.09h1.62l1.62-.09 1.62-.18 1.53-.27 1.62-.36 1.53-.45 1.53-.54 1.44-.72 1.44-.72.63-.27 1.44-.9 1.44-.9 1.35-1.08 1.35-1.08 1.17-1.17 1.17-1.17 1.08-1.26.99-1.35.9-1.35.9-1.44.72-1.53.63-1.53.27-.72.45-1.26.27-1.26.27-1.26.09-1.26v-1.26l-.09-1.35-.09-1.26-.36-1.26-.36-1.26-.45-1.17-.54-1.17-.63-1.17-.81-1.08-.81-.99-.9-.99-.09-.18-.54-.09-.45-.09-.54.09-.54.18-.36.09-.36-.09-.36-.09-.27-.18-.27-.27-.09-.36v-.54l-.99-.63-1.08-.54-1.08-.45-1.08-.45-1.17-.27-1.17-.18-1.17-.09-1.17-.09-1.17.09-1.17.18-1.17.27-1.08.36-1.17.45-.99.54h-.09l-.36 7.56v1.17l.09 1.08.18 1.17.27 1.17.45 1.08.63 1.71.72 1.62.72 1.62.9 1.62.36.54.09.36v.36l-.09.45-.18.36-.36.27-.27.18-.45.18h-.27l-.9-.45-.81-.45-.81-.63-.72-.72-.63-.72-.54-.81-.45-.81-.18-.54.09-.54v-.54l-.09-.36-.54-2.61-.36-2.7-.36-2.61-.18-2.7-.18-2.61zm4.14-6.48v1.08l.99-.18zm-.27-6.21 5.49 5.4-1.35-.45-1.26-.63-1.26-.63-1.26-.72h-.09zm-5.4-23.85 5.4-.72.36.18.27.27.18.27.09.36.09.36-.09.27-.18.36-.27.18-.45.63-.45.54-.27.72-.18.63v.18zm1.44 24.66.09-9.54-.54-2.07-.54-2.07-.36-1.8-2.16-1.53-2.16-1.53-2.25-1.35-1.17-.63-.9-.72-.81-.81-.81-.81-.72-.9-.63-.9-.27-.54h-1.17l-1.17-.09-1.08-.18-1.17-.27-.72-.27 2.97 6.03 2.79 6.03 1.35 3.06.81 1.53.72 1.62.54 1.71.54 1.71.45 1.71.27 1.71.09.54zm-31.68 24.21 29.16-21.15-4.68-.18-.18.81-.27.81-.36.81-.45.81-.54.72-.63.63-.72.54-.81.54-.18.09-7.56 5.13-1.35.81-1.44.72-1.53.72-.9.36-.9.18-.81.36-.72.45-.72.45-.09.09-.9.63-.9.63-.99.45-.99.45-1.08.36-.45.09zm-42.12-17.01 1.44-.27 1.62-.27 1.53-.09h1.53l1.53.09 1.53.18 1.53.27 1.53.36 1.44.45 1.44.54 1.44.63.72.36-12.06 12.51-.81-.27-.9-.27-.9-.18-.9-.09-.9.09-.9.09-.81.18-.9.36-.81.36-.72.45-.72.54-.54.63-.63.63-.45.72-.36.81-.27.81-.18.81-.09.81v.81l.09.9.18.81.36.81.09.18.36.81.45.72.45.63.63.63.72.54.72.54.72.36.81.27.9.27.9.09.81.09.9-.09.9-.09.81-.27.9-.27.72-.45.45-.27.63-.63.63-.72.54-.72.45-.81.36-.81.27-.9.18-.81.09-.9v-.9l-.09-.9-.27-.9-.18-.54 12.87-13.14.81.72.81.72.72.81.63.9.54.9.45.99.27.99.27 1.08-1.53.63-1.53.72-1.44.81-1.44.9-.9.63-.27.45v.45l.36.99.45.99.63.9.63.9.36.45.18.27.18.36-.09.54-.27 1.44-.18 1.44-.18 1.53v1.53l.09 1.53.18 1.44.18.81-.9 1.35-.99 1.17-1.08 1.17-1.17 1.08-1.17 1.08-1.35.9-1.35.9-1.35.81-1.44.72-1.53.63-1.53.63-1.53.45-1.62.36-1.62.27-1.62.27-1.62.09h-1.71l-1.44.09h-1.44l-1.44-.18-1.35-.18-1.44-.36-1.35-.36-1.26-.45-1.35-.63-1.17-.63-1.26-.72-1.08-.81-1.08-.9-.99-.9-.9-1.08-.9-.99-.72-1.17-.27-.45.09.27-.54-1.35-.45-1.35-.36-1.35-.27-1.44-.18-1.35-.09-1.44.09-1.44.09-1.44.27-1.35.27-1.44.45-1.35.54-1.35.18-.45.09-.09.63-1.53.72-1.44.81-1.44.9-1.35.99-1.35 1.08-1.26 1.17-1.26 1.17-1.08 1.35-1.08 1.35-1.08 1.35-.9 1.53-.9 1.53-.72 1.53-.72 1.62-.63 1.62-.45 1.71-.45zh-.09zm7.56 17.01 12.06-12.51-.63-.63-12.24 12.24zm14.4-15.66 6.66-6.3.18.81-6.12 6.12zm6.84-2.43.63 10.44-.27.36-.45-.27-.27-.9-.36-.9-.45-.81-.45-.81-.63-.72-.72-.72-.72-.63-.54-.36zm3.24-3.51 6.66-.18-.18 1.8-.18 1.89-.36 1.8-.45 1.8-.54 1.8-.63 1.71-.63 1.53-.45.45-.45.45-.63.36-.54.36-.72.18-.36.09zm1.98-17.1.99 1.44 1.08 1.35 1.17 1.26 1.26 1.26 1.26 1.17 1.44 1.17 1.44.99.63.45-.81.54-.72.54-.72.72-.63.72-.54.72-.36.81-.09.18-7.56.09-.36-12.24zm-34.83 18.72 1.62-.27 1.71-.27 1.62-.09h3.33l1.62.18 1.62.27 1.62.36 1.62.45 1.53.45 1.53.63 1.44.72 1.08.54 9.45-8.82-.63-12.15-1.44-.27-.45-.18-.45-.27-.36-.27-.27-.36-.09-.18-2.88-6.93-.27-.36-.27-.36-.45-.27-.27-.18-.54-.36-.09-.63.27-.45.54-.27.63.09 7.29.81-.36-1.08-.36-1.08-.18-1.17-.09-1.17v-1.17l.09-1.17.18-1.08.27-1.17.36-1.08.54-1.08.54-.99.63-.99.36-.45 1.53-1.53 1.53-1.44 1.62-1.35 1.62-1.26 1.71-1.17 1.8-1.17 1.89-1.08 1.89-.99 1.98-.81 1.98-.81 1.98-.72 2.07-.63 2.07-.54 2.16-.45 2.07-.36 2.16-.27 2.16-.18 2.16-.09h2.16l2.16.09 2.16.18 2.16.36.45.09 1.08.27.99.45.99.54.99.54.9.72.81.72.54.54.36-.81.36-.9.54-.81.54-.72.63-.72.72-.63.81-.54.81-.45.9-.45.9-.27.99-.27.99-.09.99-.09.99.09.9.18.99.18.9.36.9.45.27.09.9.54.81.63.81.72.63.72.63.9.54.81.45.99.36.9.27.99.18.99.09.99-.09.99-.09.99-.27.99-.36.99-.36.9-.27.45-.81.27-.09.45-.27.54-.27.45-.36.36-.45.36-.45.18-.09.09-.36 2.07-.09.36-.18.27-.27.18-.27.18h-.36l-.45-.09-.63.45-.81.27-.72.18-.18.09-.27.54-.36.45-.36.45-.54.36-.54.27-.54.09h-.9l-.45.45v.09-.18l.09 1.44v1.44l-.09 1.35-.18 1.44-.36 1.44-.36 1.35-.54 1.35-.54 1.35-.72 1.26-.63.99-.18.54.27.54.36.45.18.36.18.54.09.45-.09.54-.18.45v.18l-.54.54-.45.45-.45.45-.27.45-.27.45-.09.54-.09.54.09.54.09.45.27.54.36.45 1.98 2.34 1.8 2.34 1.8 2.34 1.71 2.52 1.17 1.71.45.36.09.09 3.87.9.54.18.54.36.36.36.36.45.27.54.18.54.09.45-.09.63-.18.45-.09.27.09.36.09.36.36.36.99 1.08.9 1.08.9 1.17.72 1.26.63 1.26.54 1.26.45 1.35.45 1.35.27 1.35.18 1.35v2.79l-.09 1.44-.27 1.35-.27 1.35-.45 1.35-.18.45-.63 1.53-.72 1.62-.81 1.53-.9 1.53-.99 1.44-1.08 1.35-1.08 1.35-1.26 1.26-1.26 1.17-1.35 1.17-1.44 1.08-1.53.99-1.53.9-.27.18.09-.09-1.53.81-1.53.72-1.53.63-1.62.63-1.71.45-1.62.36-1.71.27-1.71.18-1.8.09h-1.71l-1.71-.09-1.71-.18-1.71-.27-1.62-.36-1.71-.45-.45-.18-.36-.09-1.26-.63-1.26-.72-1.17-.81-1.17-.9-.99-.9-.99-.99-.99-1.08-.81-1.08-.72-1.17-.63-1.26-.63-1.26-.45-1.26-.27-.9-.09-1.62-.09-1.62.09-1.62.18-1.62.27-1.62.36-1.53.45-1.62.54-1.53.63-1.53.81-1.44.81-1.44.9-1.35.99-1.35 1.08-1.26 1.17-1.26 1.26-1.17 1.26-1.08 1.35-.99 1.44-.9 1.44-.9 1.53-.81 1.62-.63 1.62-.63.27-.09 1.26-4.41-29.7 22.68.81.09.72.27.72.27.63.36.63.45.54.54.45.63.36.63.27.45v.72l-.18.27-.18.27-.36.18-.27.09h-.36l-2.88.9-.36.09-.36.18-.36.45 1.08-.72.81-.09.72-.18.81-.36.54-.27-3.96 1.53-.18.45-.36.27-.45.27-.36.18-.63.09-1.35.09-1.44-.09-.9-.09-.99 2.61-.45.72-.54.63-.63.63-.63.54-.72.45-.81.36-.81.27-.9.27-1.26.09-1.26.09h-1.26l-1.26-.09-1.26-.18-1.26-.36-.99 1.35-1.08 1.35-1.08 1.17-1.26 1.26-1.26 1.08-1.26.99-1.44.99-1.44.9-1.53.81-1.53.72-1.62.63-1.62.54-1.71.54-1.71.36-1.71.27-1.71.18-1.71.09-1.44.09h-3.06l-1.53-.09-1.53-.18-1.53-.36-1.44-.36-1.44-.45-1.44-.63-1.35-.63-1.35-.72-1.26-.81-1.17-.9-1.17-.9-1.08-1.08-.99-1.08-.9-1.08-.81-1.26-.54-.81-.54-1.44-.54-1.44-.36-1.44-.36-1.44-.18-1.53-.18-1.53v-1.53l.09-1.44.18-1.53.27-1.53.45-1.44.45-1.44.54-1.44.18-.27.63-1.53.81-1.62.81-1.44.9-1.44 1.08-1.44 1.08-1.35 1.17-1.35 1.26-1.17 1.35-1.17 1.44-1.08 1.44-1.08 1.53-.9 1.53-.9 1.62-.81 1.62-.72 1.71-.54 1.8-.54zM-403.585-641.81l-7.92 2.52-.36-.9-.45-.81-.54-.81-.54-.72-.63-.63-.81-.54-.72-.54-.9-.45-.81-.27-.9-.27-.99-.09h-.9l-.9.09-.9.09-.9.27-.9.36-.81.45-.81.54-.63.63-.63.72-.54.72-.54.81-.09.27-.72 1.71-.63 1.71-.54 1.71-.45 1.8-.36 1.8-.27 1.8-.18 1.8-.09 1.89.09 1.8.09 1.8.27 1.89.36 1.8.45 1.71.54 1.8.63 1.71.72 1.71.09.09.45.9.54.72.54.72.72.63.72.54.81.54.81.36.9.27.9.27.99.09h.9l.9-.09.9-.18.9-.27.9-.45.81-.45.72-.54.72-.63.54-.72.54-.81.45-.81.36-.81.18-.27 7.83 2.52-.45 1.17-.54 1.17-.63 1.17-.72 1.08-.72 1.08-.9.99-.9.9-1.08.81-.99.72-1.17.63-1.17.63-1.17.45-1.26.36-1.26.36-1.35.18-1.26.09h-1.35l-1.26-.09-1.26-.18-1.26-.36-1.26-.36-1.26-.54-1.17-.54-1.08-.72-1.08-.72-.99-.81-.9-.9-.9-.99-.81-1.08-.63-1.08-.63-1.17-.09-.18-.9-1.89-.72-1.89-.63-1.98-.54-1.98-.45-1.98-.36-1.98-.18-2.07-.18-2.07-.09-1.98.09-2.07.18-2.07.18-1.98.36-2.07.45-1.98.54-1.98.63-1.89.81-1.98.81-1.8.54-1.17.72-1.08.72-1.08.9-.99.9-.9.99-.9 1.08-.72 1.08-.72 1.17-.54 1.17-.54 1.26-.45 1.26-.27 1.26-.27 1.35-.09h2.61l1.26.18 1.26.27 1.26.45 1.17.45 1.26.54 1.08.63 1.08.72 1.08.81.9.9.9.99.81.99.72 1.08.63 1.17.54 1.17.45 1.17zM-378.745-623.09l-18.27-29.52h9.54l12.87 20.34 12.78-20.34h9.54l-18.18 29.52v23.49h-8.28zM-310.435-641.81l-8.01 2.52-.27-.9-.45-.81-.54-.81-.54-.72-.72-.63-.72-.54-.72-.54-.9-.45-.81-.27-.99-.27-.9-.09h-.9l-.9.09-.99.09-.81.27-.9.36-.81.45-.81.54-.63.63-.63.72-.63.72-.45.81-.09.27-.72 1.71-.63 1.71-.63 1.71-.45 1.8-.27 1.8-.27 1.8-.18 1.8-.09 1.89.09 1.8.09 1.8.27 1.89.36 1.8.45 1.71.54 1.8.63 1.71.72 1.71.09.09.45.9.45.72.63.72.72.63.72.54.81.54.81.36.9.27.9.27.9.09h.99l.9-.09.9-.18.9-.27.9-.45.72-.45.81-.54.63-.63.63-.72.54-.81.45-.81.36-.81.09-.27 7.92 2.52-.45 1.17-.54 1.17-.63 1.17-.72 1.08-.72 1.08-.9.99-.99.9-.99.81-1.08.72-1.08.63-1.17.63-1.17.45-1.26.36-1.26.36-1.35.18-1.26.09h-1.35l-1.26-.09-1.26-.18-1.35-.36-1.17-.36-1.26-.54-1.17-.54-1.08-.72-1.08-.72-.99-.81-.9-.9-.9-.99-.81-1.08-.63-1.08-.63-1.17-.18-.18-.81-1.89-.72-1.89-.63-1.98-.54-1.98-.45-1.98-.36-1.98-.18-2.07-.18-2.07-.09-1.98.09-2.07.18-2.07.18-1.98.36-2.07.45-1.98.54-1.98.63-1.89.72-1.98.81-1.8.63-1.17.72-1.08.72-1.08.9-.99.9-.9.99-.9 1.08-.72 1.08-.72 1.17-.54 1.17-.54 1.26-.45 1.26-.27 1.26-.27 1.26-.09h2.7l1.26.18 1.26.27 1.26.45 1.17.45 1.17.54 1.17.63 1.08.72.99.81.99.9.9.99.81.99.72 1.08.63 1.17.54 1.17.45 1.17zM-292.345-607.88v-44.73h-8.28v53.01h32.31v-8.28zM-251.575-652.61v53.01h-8.28v-53.01zM-216.475-640.82l7.47-3.69-.63-1.08-.72-1.08-.72-1.08-.9-.9-.9-.9-.99-.9-1.08-.72-1.08-.63-1.17-.54-1.17-.54-1.26-.36-1.26-.27-1.26-.18-1.26-.09h-1.26l-1.35.09-1.26.18-1.26.36-1.17.36-1.26.54-1.08.54-1.08.72-1.08.72-.99.81-.9.9-.81.99-.81 1.08-.63 1.08-.63 1.17-.45 1.17-.45 1.17-.27 1.26-.27 1.35-.09 1.26v1.98l.18 1.08.27 1.17.36 1.17.45 1.08.54.99.54.99.72.99.81.81.81.81.9.72.99.72 1.08.54.99.45 1.17.36 1.08.27 1.17.18 1.17.09 4.68.45.9.09.9.27.81.27.81.36.81.54.72.54.63.63.54.72.54.72.36.81.36.9.27.9.09.9v.9l-.09.9-.18.9-.27.81-.36.81-.45.81-.54.72-.63.72-.63.63-.72.45-.81.45-.9.36-.81.27-.9.09-.9.09h-1.89l-.99-.09-.99-.09-.9-.27-.99-.36-.9-.45-.81-.54-.81-.63-.72-.72-.63-.72-.54-.81-.54-.9-.36-.9-.18-.45-7.83 2.43.45 1.26.54 1.26.63 1.17.72 1.17.72 1.08.9.99.99.99.99.9 1.08.81 1.17.72 1.17.63 1.26.54 1.26.45 1.26.36 1.35.27 1.35.09 1.35.09h2.34l1.26-.09 1.26-.18 1.26-.27 1.26-.36 1.17-.54 1.17-.54 1.08-.63 1.08-.81.99-.81.9-.81.9-.99.72-1.08.72-1.08.63-1.08.45-1.17.45-1.26.36-1.26.18-1.26.18-1.26v-1.26l-.09-1.26-.09-1.35-.27-1.26-.36-1.17-.45-1.26-.54-1.17-.63-1.08-.81-1.08-.72-.99-.9-.99-.99-.81-.99-.81-1.08-.72-1.08-.63-1.17-.54-1.26-.45-1.26-.36-1.26-.27-.9-.09-5.22-.54h-.72l-.72-.09-.72-.27-.63-.27-.63-.45-.54-.45-.54-.54-.36-.63-.36-.63-.18-.72-.18-.72v-.54l.09-.9.09-.9.27-.9.36-.9.36-.72.54-.81.63-.63.63-.63.72-.54.81-.45.81-.36.9-.27.9-.18.9-.09h.9l.9.09.9.27.81.27.9.45.72.45.72.63.63.63.54.72.54.72zM-201.085-652.61h32.31v8.28h-12.06v44.73h-8.28v-44.73h-11.97zM-137.097-640.82l7.472-3.69-.63-1.08-.722-1.08-.718-1.08-.9-.9-.9-.9-.99-.9-1.082-.72-1.078-.63-1.17-.54-1.17-.54-1.26-.36-1.17-.27-1.35-.18-1.262-.09h-1.26l-1.258.09-1.35.18-1.17.36-1.26.36-1.17.54-1.17.54-1.082.72-1.078.72-.99.81-.9.9-.81.99-.72 1.08-.72 1.08-.63 1.17-.45 1.17-.45 1.17-.27 1.26-.182 1.35-.178 1.26v.81l.09 1.17.088 1.08.272 1.17.36 1.17.45 1.08.54.99.63.99.63.99.81.81.81.81.99.72.9.72 1.078.54 1.082.45 1.08.36 1.168.27 1.082.18 1.17.09 4.68.45.9.09.9.27.81.27.81.36.81.54.72.54.628.63.632.72.45.72.448.81.27.9.27.9.092.9v.9l-.092.9-.088.9-.27.81-.36.81-.54.81-.54.72-.54.72-.722.63-.718.45-.812.45-.808.36-.9.27-.9.09-.9.09h-1.8l-.99-.09-.99-.09-.99-.27-.9-.36-.9-.45-.9-.54-.72-.63-.72-.72-.72-.72-.54-.81-.45-.9-.452-.9-.088-.45-7.92 2.43.45 1.26.54 1.26.63 1.17.718 1.17.812 1.08.9.99.9.99.988.9 1.082.81 1.17.72 1.17.63 1.26.54 1.26.45 1.35.36 1.26.27 1.35.09 1.348.09h2.342l1.258-.09 1.26-.18 1.262-.27 1.26-.36 1.17-.54 1.168-.54 1.082-.63 1.08-.81.99-.81.9-.81.9-.99.72-1.08.718-1.08.632-1.08.45-1.17.448-1.26.362-1.26.27-1.26.09-1.26v-2.52l-.182-1.35-.27-1.26-.358-1.17-.45-1.26-.54-1.17-.63-1.08-.72-1.08-.81-.99-.9-.99-.9-.81-1.082-.81-1.078-.72-1.08-.63-1.17-.54-1.262-.45-1.168-.36-1.26-.27-.99-.09-5.22-.54h-.72l-.72-.09-.72-.27-.63-.27-.63-.45-.54-.45-.54-.54-.36-.63-.36-.63-.18-.72-.09-.72-.09-.54.09-.9.09-.9.27-.9.36-.9.45-.72.45-.81.63-.63.628-.63.812-.54.718-.45.902-.36.81-.27.9-.18.9-.09h.9l.9.09.9.27.9.27.808.45.722.45.72.63.63.63.54.72.54.72z" style="fill:#000;fill-opacity:1;fill-rule:evenodd;stroke:none" transform="translate(482.065 692.3)"/>
  </g>
</svg>
