<svg xmlns="http://www.w3.org/2000/svg" viewBox="0 0 122.969 122.968" role="img" aria-labelledby="title">
  <title id="title">Verkehrszeichen W2-11-R - Staggered side road intersection, first from left on a curve to right</title>
  <path d="m120.502 387.445 55.438 55.437c2.354 2.354 6.207 2.354 8.561 0l55.438-55.437c2.355-2.355 2.355-6.208 0-8.563L184.5 323.446c-2.354-2.355-6.207-2.355-8.561 0l-55.438 55.436c-2.355 2.355-2.355 6.208 0 8.563" style="fill:#fee011;fill-opacity:1;fill-rule:evenodd;stroke:none" transform="translate(-118.736 -321.68)"/>
  <path d="m121.267 386.447 55.627 55.627a4.71 4.71 0 0 0 6.643 0l55.627-55.627a4.71 4.71 0 0 0 0-6.643l-55.627-55.627a4.713 4.713 0 0 0-6.643 0l-55.627 55.627a4.71 4.71 0 0 0 0 6.643" style="fill:#000;fill-opacity:1;fill-rule:evenodd;stroke:none" transform="translate(-118.736 -321.68)"/>
  <path d="m181.817 440.47 55.748-55.748a2.266 2.266 0 0 0 0-3.193l-55.748-55.748a2.266 2.266 0 0 0-3.193 0l-55.748 55.748a2.264 2.264 0 0 0 0 3.193l55.748 55.748a2.264 2.264 0 0 0 3.193 0" style="fill:#fee011;fill-opacity:1;fill-rule:evenodd;stroke:none" transform="translate(-118.736 -321.68)"/>
  <path d="m161.236 392.717-14.289-3.828-3.12 11.653 14.293 3.83a59 59 0 0 0-.375 2.694l-.002.021-.033.283v.011l-.064.595-.001.014-.052.535-.01.11q-.029.33-.056.657l-.005.064-.037.511-.002.027q-.02.3-.038.602l-.005.086-.028.504-.002.043q-.013.266-.024.532l-.002.045q-.023.608-.035 1.216l-.002.133-.007.466v.318l-.002.306h13.27c0-5.101.81-10.015 2.304-14.619l.105-.32.002-.005q.103-.31.21-.62l.027-.071q.325-.93.688-1.843l.001-.004q.314-.79.657-1.566l.002-.004q.196-.45.403-.894l.026-.056.09-.19.074-.155.056-.117q.12-.25.243-.497l.017-.036q.153-.306.31-.611l.023-.046q.208-.402.424-.8l.065-.122.066-.12 11.404 8.287 7.09-9.76-11.395-8.28.215-.227.16-.168.007-.006q.303-.318.614-.625l.09-.09.01-.01.078-.077q.219-.215.44-.428l.013-.013q.392-.377.792-.745l.024-.021q.363-.333.733-.659l.012-.011a48 48 0 0 1 3.221-2.591l1.667 6.888v.002q.071.286.21.547a2.412 2.412 0 0 0 4.263-.01l12.923-25.448-28.333-3.435a2.413 2.413 0 0 0-2.046 4.014l.002.002 5.113 5.566-.042.029a62 62 0 0 0-2.12 1.524l-.026.02-.379.287-.01.007-.07.054-.04.031q-.195.15-.388.301l-.041.031-.585.464-.007.006-.144.116-.005.004-.284.232-.016.013a61 61 0 0 0-3.368 2.972l-.01.01q-.172.163-.345.33l-.02.02q-.66.638-1.299 1.293l-.172.18a51 51 0 0 0-.443.462l-.11.117a63 63 0 0 0-1.506 1.66l-.067.078a59 59 0 0 0-1.414 1.685l-.011.012-.224.279-.027.034-.212.266-.032.042-.204.26-.054.07-.189.244-.02.025-.213.281-.232.307-.42.57-.044.06-.195.27-.03.04-.208.29-.009.013-.214.304-.006.01-.215.308-.002.004a60.4 60.4 0 0 0-6.797 12.95" style="fill:#000;fill-opacity:1;fill-rule:evenodd;stroke:none" transform="translate(-118.736 -321.68)"/>
</svg>
