<svg xmlns="http://www.w3.org/2000/svg" xml:space="preserve" viewBox="-.451 -.943 122.62 81.761" role="img" aria-labelledby="title">
  <title id="title">Verkehrszeichen W8-Q02 - Crossing Ahead (used in QLD)</title>
  <path d="M7.754-.943h106.21c4.514 0 8.205 3.684 8.205 8.205v65.359c0 4.514-3.691 8.197-8.205 8.197H7.754c-4.521 0-8.205-3.683-8.205-8.197V7.262c0-4.521 3.684-8.205 8.205-8.205" style="fill:#fee011;fill-opacity:1;fill-rule:evenodd;stroke:none"/>
  <path d="M7.754.722h106.21a6.597 6.597 0 0 1 6.59 6.59v65.309a6.597 6.597 0 0 1-6.59 6.59H7.754c-3.634 0-6.597-2.956-6.597-6.59V7.312c0-3.634 2.963-6.59 6.597-6.59" style="fill:#000;fill-opacity:1;fill-rule:evenodd;stroke:none"/>
  <path d="M7.703 3.988h106.311a3.26 3.26 0 0 1 3.274 3.274v65.409a3.255 3.255 0 0 1-3.274 3.266H7.703a3.256 3.256 0 0 1-3.274-3.266V7.262a3.263 3.263 0 0 1 3.274-3.274" style="fill:#fee011;fill-opacity:1;fill-rule:evenodd;stroke:none"/>
  <path d="m25.553 58.308 2.242-1.661c1.164 1.08 1.704 2.035 4.279 2.035 1.413 0 3.655-.665 3.655-2.45 0-1.454-1.287-2.616-2.534-2.616H31.95V50.75h1.246c.832 0 1.662-.581 1.662-1.536 0-1.58-1.953-1.828-2.908-1.828-1.329 0-2.45.54-3.655 1.703l-2.119-1.87c1.87-1.95 3.324-2.698 6.148-2.698 2.201 0 5.4 1.661 5.4 4.235 0 1.454-.499 2.865-1.413 3.364.955.374 2.285 2.284 2.285 4.277 0 3.239-3.863 5.149-6.521 5.149-2.244 0-4.901-1.037-6.521-3.239M49.144 58.682c2.783 0 3.946-2.575 3.946-5.647 0-3.115-1.246-5.648-3.946-5.648s-3.904 2.533-3.904 5.648c0 3.072 1.163 5.647 3.904 5.647m0 2.865c-4.776 0-6.77-3.82-6.77-8.512s2.118-8.513 6.77-8.513c4.653 0 6.77 3.82 6.77 8.513s-1.994 8.512-6.77 8.512M66.132 58.682c2.782 0 3.946-2.575 3.946-5.647 0-3.115-1.246-5.648-3.946-5.648s-3.904 2.533-3.904 5.648c0 3.072 1.162 5.647 3.904 5.647m0 2.865c-4.777 0-6.77-3.82-6.77-8.512s2.117-8.513 6.77-8.513 6.77 3.82 6.77 8.513-1.994 8.512-6.77 8.512M78.717 61.215v-12.25h3.073v.706c.707-.458 2.243-.831 2.949-.831 1.413 0 2.451.415 3.281 1.495.873-1.122 2.742-1.495 3.822-1.495 2.2 0 4.278 2.242 4.278 4.11v8.265h-3.157v-7.517c0-1.037-.873-1.827-2.076-1.827-1.372 0-2.035 1.039-2.035 2.119v7.225h-2.825V53.99c0-1.08-.83-2.243-2.16-2.243-1.288 0-2.077 1.163-2.077 1.951v7.517zM19.945 22.72c-.581-1.247-1.246-1.828-2.492-1.828-3.115 0-3.489 4.111-3.489 6.229 0 2.035.748 5.69 3.448 5.69.997 0 2.242-1.039 2.616-2.035l2.451.581c-.747 2.368-2.451 4.028-4.942 4.028-4.445 0-5.982-4.527-6.023-8.388 0-3.489 1.121-8.637 5.649-8.637 2.284 0 4.111.996 5.191 3.32zM27.962 21.226v4.027h3.53c1.163 0 1.993-1.121 1.993-2.158 0-.997-.996-1.87-2.076-1.87zm-2.493-2.533h6.106c2.368 0 4.403 2.159 4.403 4.609 0 2.035-1.08 3.156-2.45 4.028l2.949 7.725h-2.7l-2.66-7.185h-3.155v7.185h-2.493zM44.327 35.386c-3.407 0-5.774-2.491-5.774-8.513 0-5.938 2.16-8.512 5.774-8.512 3.738 0 5.73 3.736 5.73 8.512 0 4.069-1.078 8.513-5.73 8.513m0-2.616c2.076 0 3.073-1.703 3.073-5.897 0-3.862-.997-5.855-3.073-5.855-2.12 0-3.2 1.619-3.2 5.855 0 4.028 1.165 5.897 3.2 5.897M52.177 31.15l2.492-.83c.914 1.868 1.828 2.407 3.738 2.407 1.038 0 2.285-1.121 2.285-2.242 0-1.703-.914-2.533-4.113-2.865-.499-.042-1.577-.415-2.409-1.122-.665-.581-1.287-1.536-1.287-2.99 0-3.155 2.409-5.148 5.067-5.148 2.325 0 3.738 1.162 4.652 3.57l-2.45.748c-.415-1.328-1.454-1.62-2.493-1.702-1.246 0-2.284 1.246-2.284 2.325 0 .706.582 1.454 1.204 1.661.998.291 2.493.125 3.573.665 1.66.789 3.03 2.284 3.03 4.443 0 3.073-2.034 5.315-5.274 5.315-1.951 0-4.818-1.66-5.731-4.235M65.135 31.15l2.493-.83c.914 1.868 1.827 2.407 3.737 2.407 1.039 0 2.285-1.121 2.285-2.242 0-1.703-.913-2.533-4.112-2.865-.499-.042-1.579-.415-2.409-1.122-.665-.581-1.287-1.536-1.287-2.99 0-3.155 2.408-5.148 5.067-5.148 2.325 0 3.738 1.162 4.651 3.57l-2.45.748c-.416-1.328-1.453-1.62-2.492-1.702-1.246 0-2.284 1.246-2.284 2.325 0 .706.581 1.454 1.204 1.661.997.291 2.492.125 3.572.665 1.662.789 3.032 2.284 3.032 4.443 0 3.073-2.035 5.315-5.275 5.315-1.952 0-4.818-1.66-5.732-4.235" style="fill:#000;fill-opacity:1;fill-rule:evenodd;stroke:none"/>
  <path d="M78.924 35.053h2.575V18.692h-2.575z" style="fill:#000;fill-opacity:1;fill-rule:nonzero;stroke:none"/>
  <path d="M85.238 18.692h2.16l6.23 10.631V18.692h2.616v16.361h-2.201l-6.271-10.588v10.588h-2.534zM107.459 22.845c-.622-1.122-1.246-1.828-2.575-1.828-3.156 0-3.24 3.986-3.24 6.313 0 2.657.789 5.522 3.365 5.522 1.37 0 2.533-1.495 2.533-2.284v-1.037h-2.783v-2.575h5.359v3.405c0 2.741-2.493 5.025-5.193 5.025-4.361 0-5.815-4.319-5.815-8.14 0-4.484 1.039-8.886 5.815-8.886 2.202 0 4.07 1.495 4.943 3.696z" style="fill:#000;fill-opacity:1;fill-rule:evenodd;stroke:none"/>
</svg>
