<svg xmlns="http://www.w3.org/2000/svg" viewBox="0 0 1021.33 1021.33" role="img" aria-labelledby="title">
  <title id="title">Verkehrszeichen W6-3 - Children</title>
  <g transform="translate(0 442.66)">
    <rect width="750" height="750" x="-61.992" y="34.181" rx="50" ry="50" style="fill:#beff00;fill-opacity:1;fill-rule:evenodd;stroke:none;stroke-width:7.87108;stroke-linecap:round;stroke-linejoin:round" transform="rotate(-45)"/>
    <rect width="730" height="730" x="-51.992" y="44.181" rx="40" ry="40" style="fill:#000;fill-opacity:1;fill-rule:evenodd;stroke:none;stroke-width:7.66118;stroke-linecap:round;stroke-linejoin:round" transform="rotate(-45)"/>
    <rect width="690" height="690" x="-31.992" y="64.181" rx="20" ry="20" style="fill:#beff00;fill-opacity:1;fill-rule:evenodd;stroke:none;stroke-width:7.24139;stroke-linecap:round;stroke-linejoin:round" transform="rotate(-45)"/>
    <path d="M807.54-41.78h-3.24c-4.529 0-14.89 2.583-18.125 3.878l-1.944-1.295c-18.771 0-36.251.65-51.791-2.582-11.003-1.937-11.003-3.877-16.186-10.982-3.884-6.463-7.119-10.337-11.003-16.15-3.238-5.169-8.417-10.337-12.301-15.505-3.239-3.877-8.417-10.982-12.302-14.86-4.53-4.522-8.417-9.69-12.946-14.213-3.885-3.877-16.186-8.4-16.186-11.627v-3.232c0-5.814 11.007-4.522 16.186-4.522 3.884-2.583 4.53-4.523 4.53-10.337 7.122-3.228 5.182-8.4 3.887-15.505 1.94-.645 5.179-1.29 5.179-3.877v-.645c0-2.583-7.123-6.46-7.123-12.273 0-7.755 5.179-14.214 3.884-21.319-1.295-10.336-3.884-10.982-9.712-17.445-11.007-10.336-16.83-14.859-36.251-17.441-13.596-1.937-31.726 6.46-38.845 13.568-8.417 8.396-16.185 21.318-16.185 37.468 0 17.442 10.357 41.992 26.543 41.992h1.94l1.295 3.877c-1.94 3.877-5.179 3.228-9.063 8.396-2.59 3.877-3.239 6.463-7.768 9.045-9.063 5.168-14.891 5.168-21.364 12.923-9.712 12.918-18.775 28.423-26.544 43.282-7.768 16.15-13.596 30.364-21.364 47.16-1.944 4.522-18.126 47.808-18.126 51.036 0 3.232.646 1.94 1.295 5.169-1.295 1.94-3.238 3.877-3.238 7.108v3.874c-4.534.649-18.775 12.276-20.715 12.276-2.593 0-.65-.645-3.885-1.29-3.238 7.104-3.887 7.104-11.006 10.981-1.944 1.291-11.652 8.396-12.302 10.337h-3.884c-7.768 0-44.023-48.455-59.563-52.332 0-8.396 7.772-2.582 13.596-7.105 1.944-1.29 5.18-12.919 5.18-15.504 0-3.228-1.296-1.292-2.59-5.169 2.59 0 5.179-.645 5.179-3.228 0-7.108-2.59-8.4-3.885-12.922-.645-3.231 3.239-7.105 3.239-12.919v-5.168c0-9.045-19.424-18.736-30.427-18.09l-11.652.645c-7.123 5.168-11.007 4.523-18.13 11.628-4.533 4.522-7.768 12.276-9.712 20.027C336.88.213 344 23.471 358.89 23.471v3.873c0 7.109-8.414 7.109-13.596 10.982-4.53 3.878-8.414 10.34-11.652 14.86-7.123 10.34-12.947 21.967-19.42 32.304-7.769 10.982-10.358 21.964-16.186 34.886-1.944 3.874-5.828 15.505-7.123 18.087-.645 1.291-11.652 7.754-11.652 14.213v5.169c0 1.936 4.533 6.46 6.474 6.46h3.238c9.709 0 16.182-7.106 18.775-14.214 3.235-9.042 5.179-3.874 7.768-9.042 1.94-3.877 3.235-8.4 5.179-12.277 3.884-9.045 18.775-38.76 24.6-42.637-1.296 10.982-8.415 28.427-10.358 40.7-1.295 8.4-2.59 13.568-5.825 20.028-1.295 2.582-9.066 16.15-9.066 16.796 0 2.582 7.122 5.168 9.712 9.045-3.884 7.105-2.59 10.336-11.653 14.213-5.827 1.937-11.652 7.105-14.89 12.273-4.533 7.105-3.239 9.691-12.302 14.214-1.94 1.291-7.768 1.937-10.357 2.582-6.474 1.94-4.533 2.586-9.063 5.169-.65-.646-1.295-.646-3.239-.646h-1.94l-.649 13.568 1.295 10.982 2.59.645c.648-.645 2.588-2.585 3.238-2.585 3.235 0 1.94 2.585 1.94 5.817 3.238 4.523 5.182 9.69 9.712 13.564 5.179 5.814 9.063 5.814 14.242 9.046 7.122 0 14.89 1.29 14.89-7.105 0-8.4-5.824-7.109-9.063-12.923.646-2.582.646-1.936.646-3.231 0-5.814-1.94-9.687-3.88-12.919 1.294-1.937 24.599-16.15 29.132-19.382 9.708-6.46 19.42-12.918 23.953-24.55.646 0 3.885 1.94 3.885 1.94 3.235 0 13.592-21.318 14.241-25.195 5.179.646 17.48 16.15 20.07 16.15 3.238 0 3.884-1.29 5.828-1.936 3.884 2.582 9.063 11.627 8.413 16.796-1.294 7.104-5.178 12.273-5.178 22.61v2.585c0 9.69 2.589 14.214 3.884 21.319-2.59 4.522-6.474 4.522-6.474 11.627v1.94c0 5.814 1.295 5.169 3.239 7.751-.65 1.291-2.59 3.877-2.59 4.523 0 3.877 18.126 5.168 22.66 5.168v-3.232c5.178 0 13.595 4.523 20.714 4.523h1.295c7.768 0 18.775-3.877 18.775-11.628 0-4.522-10.358-7.105-15.536-7.105-2.59-1.294-3.239-3.231-6.474-5.168-3.238-1.291-5.828-1.94-8.417-3.877-6.474-3.877-5.828-9.045-3.884-18.09 1.294-6.46 2.59-13.565 3.884-20.673.645-2.583 3.884-18.087 3.884-20.028 0-12.273-13.596-22.61-15.536-29.714 1.94-.646 4.53-1.295 4.53-3.232 0-2.586-20.716-30.363-23.954-36.823 1.294-4.522 2.589-12.922 2.589-18.736 0-3.228-.646-18.736 1.295-18.736 5.828 0 30.43 26.49 42.728 26.49h1.295c3.888 0 16.834-9.69 20.07-12.277 1.943-1.29 7.768-5.168 9.711-6.459 7.769-4.523 3.885-1.291 8.418-7.754 3.884-5.168 19.42-3.228 26.543-5.814 5.179-1.937 12.947-11.628 12.947-19.378v-7.109c5.178-1.29 9.063-20.673 12.301-25.84C543.4 17.656 546.64 7.965 551.168.857c5.18-8.396 9.063-15.505 14.246-23.256 3.235-4.522 14.887-19.381 16.181-21.964 6.477 0 3.239 9.042 3.239 17.442 0 5.168-1.295 15.505-1.944 20.673-3.235 14.213-5.179 24.55-8.414 37.468-1.298 7.105-9.062 26.487-12.301 33.596-5.179 10.982-11.007 18.087-17.48 27.778l39.49 17.445.649-.65 6.473 23.905c-7.122 4.522-14.241 14.213-18.774 21.318-6.474 10.337-7.769 16.15-12.302 27.782-3.884 10.336-7.768 18.732-14.89 24.55-6.474 5.813-20.716 4.519-21.365 20.023-1.94 0-7.768 1.295-7.768 3.232s16.185 17.441 18.775 19.382l3.238-4.523h1.94c1.295 2.582 10.362 15.505 12.951 18.733 3.884 5.168 14.887 9.045 23.305 9.045 3.238 0 7.122-3.228 7.122-5.814v-2.582c0-5.169-10.36-12.923-13.596-18.09 0-12.92-5.828-16.797-5.828-18.737 0-8.396 32.371-36.178 39.494-45.22 5.828-7.108 11.006-17.444 16.83-25.195 6.474-8.4 16.186-12.922 16.186-26.49v-1.291c0-3.874-2.59-10.982-3.238-16.796l11.006-4.523c2.59 11.628 25.898 25.841 25.898 30.364 0 12.922-11.652 33.595-11.652 53.623v.645l3.884 22.61c0 3.877-4.533 17.445-5.828 20.027-2.59 5.168-8.417 7.75-7.123 17.445l.65 18.087v6.46h19.42c5.828 0-1.94-7.751 3.884-7.751h3.238c11.007 0 18.126 8.396 30.428 8.396h7.122c4.53 0 12.947-3.228 12.947-7.105v-5.814c0-7.108-12.301-4.522-18.126-7.108-9.066-3.874-7.771-6.46-14.245-10.337h-5.824c-1.944-1.29-4.533-3.873-4.533-7.105 0-11.627 3.238-18.09 5.178-26.486 1.944-8.4 5.18-17.445 7.123-26.487 3.235-10.986 11.652-43.932 11.652-54.268 0-21.319-15.536-30.364-18.126-41.992l20.716-9.045c-1.94-9.69-8.414-21.964-11.007-31.655-3.235-11.627-7.12-21.318-9.709-32.946-1.943-10.336-5.827-23.259-8.417-33.595-1.94-7.75-6.473-28.424-6.473-35.532 10.357 7.108 41.434 47.16 51.791 47.16 7.123 0 27.192-3.228 32.371-5.169 11.652-3.228 19.42-1.29 29.132-7.75l23.954 1.29c7.123.646 12.947-6.459 12.947-12.918 0-9.045-9.708-12.922-18.126-12.922" style="fill:#000;fill-opacity:1;fill-rule:evenodd;stroke:none;stroke-width:3.52779"/>
  </g>
</svg>
