<?xml version="1.0" encoding="UTF-8" standalone="no"?>
<svg
   xmlns:dc="http://purl.org/dc/elements/1.1/"
   xmlns:cc="http://creativecommons.org/ns#"
   xmlns:rdf="http://www.w3.org/1999/02/22-rdf-syntax-ns#"
   xmlns:svg="http://www.w3.org/2000/svg"
   xmlns="http://www.w3.org/2000/svg"
   id="svg3767"
   version="1.1"
   xml:space="preserve"
   width="670.19562"
   height="1005.2602"
   viewBox="0 0 670.19562 1005.2602"><metadata
     id="metadata3773"><rdf:RDF><cc:Work
         rdf:about=""><dc:format>image/svg+xml</dc:format><dc:type
           rdf:resource="http://purl.org/dc/dcmitype/StillImage" /><dc:title></dc:title></cc:Work></rdf:RDF></metadata><defs
     id="defs3771"><clipPath
       clipPathUnits="userSpaceOnUse"
       id="clipPath3787"><path
         d="M 0,1 536,1 536,805 0,805 0,1 Z"
         id="path3789" /></clipPath></defs><g
     id="g3781"
     transform="matrix(1.25,0,0,-1.25,0,1006.25)"><g
       id="g3783"><g
         id="g3785"
         clip-path="url(#clipPath3787)"><g
           id="g3791"><path
             d="m 35.75,804.645 c -19.488,0 -35.344,-15.852 -35.344,-35.34 l 0,-732.782 C 0.406,17.035 16.262,1.184 35.75,1.184 l 464.691,0 c 19.489,0 35.344,15.851 35.344,35.339 l 0,732.782 c 0,19.488 -15.855,35.34 -35.344,35.34"
             style="fill:#f0c900;fill-opacity:1;fill-rule:nonzero;stroke:none"
             id="path3793" /></g></g></g></g><path
     d="m 44.6875,11.10895 c -18.51125,0 -33.515,15.00375 -33.515,33.51 l 0,915.97625 c 0,18.50625 15.00375,33.49125 33.515,33.49125 l 580.86375,0 c 18.51125,0 33.49625,-14.985 33.49625,-33.49125 l 0,-915.97625 c 0,-18.50625 -14.985,-33.51 -33.49625,-33.51 l -580.86375,0 z m 0,16.7575 580.86375,0 c 9.24375,0 16.75875,7.51 16.75875,16.7525 l 0,915.97625 c 0,9.24375 -7.515,16.75875 -16.75875,16.75875 l -580.86375,0 c -9.2625,0 -16.7575,-7.515 -16.7575,-16.75875 l 0,-915.97625 c 0,-9.2425 7.495,-16.7525 16.7575,-16.7525 z"
     style="fill:#000000;fill-opacity:1;fill-rule:nonzero;stroke:none"
     id="path3795" /><path
     d="m 265.2975,167.4902 29.67875,0 0,127.4075 c 0,22.1925 17.9775,40.14625 40.14625,40.14625 22.1625,0 40.14125,-17.95375 40.14125,-40.14625 l 0,-127.4075 29.65875,0 0,127.4075 c 0,38.56875 -31.255,69.82375 -69.8,69.82375 -38.57,0 -69.825,-31.255 -69.825,-69.82375"
     style="fill:#000000;fill-opacity:1;fill-rule:nonzero;stroke:none"
     id="path3797" /><path
     d="m 335.1075,524.94145 100.54625,100.54625 0,55.855 -78.2025,-78.19875 0,301.5925 -44.66375,0 0,-301.5925 -78.2025,78.19875 0,-55.855"
     style="fill:#000000;fill-opacity:1;fill-rule:nonzero;stroke:none"
     id="path3799" /></svg>