<?xml version="1.0" encoding="UTF-8" standalone="no"?>
<svg
   xmlns:dc="http://purl.org/dc/elements/1.1/"
   xmlns:cc="http://creativecommons.org/ns#"
   xmlns:rdf="http://www.w3.org/1999/02/22-rdf-syntax-ns#"
   xmlns:svg="http://www.w3.org/2000/svg"
   xmlns="http://www.w3.org/2000/svg"
   viewBox="0 0 600.99805 331.00781"
   height="331.00781"
   width="600.99805"
   xml:space="preserve"
   version="1.1"
   id="svg14208"><metadata
     id="metadata14214"><rdf:RDF><cc:Work
         rdf:about=""><dc:format>image/svg+xml</dc:format><dc:type
           rdf:resource="http://purl.org/dc/dcmitype/StillImage" /><dc:title></dc:title></cc:Work></rdf:RDF></metadata><defs
     id="defs14212"><clipPath
       id="clipPath14232"
       clipPathUnits="userSpaceOnUse"><path
         id="path14234"
         d="m 71,86 339,0 0,93 -339,0 0,-93 z" /></clipPath></defs><g
     transform="matrix(1.25,0,0,-1.25,0,331.0078)"
     id="g14216"><g
       id="g14218"><path
         id="path14220"
         style="fill:#ffffff;fill-opacity:1;fill-rule:nonzero;stroke:none"
         d="m 32.402,0.404 c -17.672,0 -32,14.379 -32,32.109 l 0,199.77 c 0,17.73 14.328,32.121 32,32.121 l 416.004,0 c 17.672,0 31.996,-14.391 31.996,-32.121 l 0,-199.77 c 0,-17.73 -14.324,-32.109 -31.996,-32.109 l -416.004,0 z" /><path
         id="path14222"
         style="fill:#000000;fill-opacity:1;fill-rule:nonzero;stroke:none"
         d="m 32.402,8.435 c -13.261,0 -24,10.774 -24,24.082 l 0,199.766 c 0,13.308 10.739,24.082 24,24.082 l 416.004,0 c 13.246,0 24,-10.774 24,-24.082 l 0,-199.766 c 0,-13.308 -10.754,-24.082 -24,-24.082 l -416.004,0 z" /><path
         id="path14224"
         style="fill:#ffffff;fill-opacity:1;fill-rule:nonzero;stroke:none"
         d="m 32.402,20.474 c -6.632,0 -12.007,5.395 -12.007,12.051 l 0,199.766 c 0,6.64 5.375,12.035 12.007,12.035 l 416.004,0 c 6.633,0 11.992,-5.395 11.992,-12.035 l 0,-199.766 c 0,-6.656 -5.359,-12.051 -11.992,-12.051 l -416.004,0 z" /><g
         transform="translate(0,-0.193756)"
         id="g14226"><g
           id="g14228"><g
             clip-path="url(#clipPath14232)"
             id="g14230"><g
               id="g14236"><path
                 id="path14238"
                 style="fill:#000000;fill-opacity:1;fill-rule:nonzero;stroke:none"
                 d="m 71.531,154.379 0,13.715 12.86,9.691 12.863,0 0,-90.383 -12.863,0 0,76.653 -12.86,-9.676 z m 117.403,-25.024 38.601,0 0,-12.906 -38.601,0 0,12.906 z m 53.074,25.024 0,13.715 12.863,9.691 12.859,0 0,-90.383 -12.859,0 0,76.653 -12.863,-9.676 z m 57.097,-19.973 c -5.589,4.438 -8.851,11.207 -8.851,18.356 0,14.261 11.516,25.832 25.723,25.832 14.211,0 25.742,-11.571 25.742,-25.832 0,-7.149 -3.266,-13.918 -8.867,-18.356 6.57,-4.699 10.46,-12.289 10.46,-20.383 0,-15.14 -12.234,-27.429 -27.335,-27.429 -15.102,0 -27.332,12.289 -27.332,27.429 0,8.094 3.89,15.684 10.46,20.383 m 2.399,-20.383 c 0,-8.015 6.484,-14.523 14.473,-14.523 7.992,0 14.472,6.508 14.472,14.523 0,8.036 -6.48,14.539 -14.472,14.539 -7.989,0 -14.473,-6.503 -14.473,-14.539 m 1.613,38.739 c 0,-7.137 5.762,-12.907 12.86,-12.907 7.113,0 12.863,5.77 12.863,12.907 0,7.136 -5.75,12.91 -12.863,12.91 -7.098,0 -12.86,-5.774 -12.86,-12.91 m 67.547,-65.36 0,90.383 12.859,0 0,-32.293 c 3.559,6.699 11.84,9.223 18.497,5.656 4.449,-2.378 7.246,-7.035 7.246,-12.101 l 0,-51.645 -12.879,0 0,45.993 c 0,3.566 -2.883,6.46 -6.422,6.46 -3.559,0 -6.442,-2.894 -6.442,-6.46 l 0,-45.993 -12.859,0 z" /><path
                 id="path14240"
                 style="fill:#ffffff;fill-opacity:1;fill-rule:nonzero;stroke:none"
                 d="m 130.062,112.617 c 0,8.153 6.583,14.746 14.692,14.746 8.121,0 14.707,-6.593 14.707,-14.746 0,-8.148 -6.586,-14.742 -14.707,-14.742 -8.109,0 -14.692,6.594 -14.692,14.742" /></g></g></g></g><path
         id="path14242"
         style="fill:#000000;fill-opacity:1;fill-rule:nonzero;stroke:none"
         d="M 32.398,264.806 C 14.516,264.806 0,250.24 0,232.291 L 0,32.513 C 0,14.564 14.516,0.002 32.398,0.002 l 416,0 c 17.887,0 32.399,14.562 32.399,32.511 l 0,199.778 c 0,17.949 -14.512,32.515 -32.399,32.515 l -416,0 z m 0,-0.402 416.008,0 c 17.672,0 32,-14.391 32,-32.121 l 0,-199.77 c 0,-17.73 -14.328,-32.105 -32,-32.105 l -416.008,0 C 14.73,0.408 0.406,14.783 0.406,32.513 l 0,199.77 c 0,17.73 14.324,32.121 31.992,32.121 z" /><path
         id="path14244"
         style="fill:#000000;fill-opacity:1;fill-rule:nonzero;stroke:none"
         d="m 145.285,177.591 14.606,0 -19.219,-38.566 0.258,0 c 0.937,0.426 2.05,0.727 3.332,0.895 1.281,0.171 2.476,0.257 3.586,0.257 2.906,0 5.636,-0.511 8.199,-1.539 2.648,-0.937 4.957,-2.433 6.922,-4.484 2.051,-2.051 3.672,-4.699 4.867,-7.945 1.195,-3.161 1.793,-6.961 1.793,-11.403 0,-5.211 -0.766,-9.695 -2.305,-13.453 -1.539,-3.672 -3.586,-6.707 -6.148,-9.098 -2.481,-2.308 -5.34,-4.015 -8.586,-5.125 -3.16,-1.027 -6.449,-1.539 -9.867,-1.539 -3.161,0 -6.278,0.641 -9.356,1.922 -2.988,1.282 -5.679,3.117 -8.07,5.512 -2.391,2.391 -4.313,5.297 -5.766,8.711 -1.453,3.504 -2.179,7.391 -2.179,11.66 0,5.555 1.152,10.637 3.46,15.25 l 24.473,48.945 z m -1.793,-48.945 c -3.59,0 -6.664,-1.238 -9.226,-3.719 -2.563,-2.39 -3.844,-6.148 -3.844,-11.273 0,-5.125 1.152,-8.926 3.461,-11.406 2.39,-2.391 5.594,-3.586 9.609,-3.586 1.535,0 3.074,0.258 4.613,0.769 1.536,0.598 2.903,1.496 4.098,2.692 1.281,1.195 2.309,2.73 3.078,4.613 0.852,1.879 1.281,4.184 1.281,6.918 0,5.125 -1.281,8.883 -3.843,11.273 -2.563,2.481 -5.641,3.719 -9.227,3.719 z" /></g></g></svg>