<?xml version="1.0" encoding="UTF-8" standalone="no"?>
<svg
   xmlns:dc="http://purl.org/dc/elements/1.1/"
   xmlns:cc="http://creativecommons.org/ns#"
   xmlns:rdf="http://www.w3.org/1999/02/22-rdf-syntax-ns#"
   xmlns:svg="http://www.w3.org/2000/svg"
   xmlns="http://www.w3.org/2000/svg"
   viewBox="0 0 601 450.99997"
   height="450.99997"
   width="601"
   xml:space="preserve"
   version="1.1"
   id="svg22802"><metadata
     id="metadata22808"><rdf:RDF><cc:Work
         rdf:about=""><dc:format>image/svg+xml</dc:format><dc:type
           rdf:resource="http://purl.org/dc/dcmitype/StillImage" /><dc:title></dc:title></cc:Work></rdf:RDF></metadata><defs
     id="defs22806"><clipPath
       id="clipPath22826"
       clipPathUnits="userSpaceOnUse"><path
         id="path22828"
         d="m 59,56 363,0 0,249 -363,0 0,-249 z" /></clipPath></defs><g
     transform="matrix(1.25,0,0,-1.25,0,450.99998)"
     id="g22810"><g
       id="g22812"><path
         id="path22814"
         style="fill:#ffffff;fill-opacity:1;fill-rule:nonzero;stroke:none"
         d="m 32.184,360.402 c -17.52,0 -31.786,-14.266 -31.786,-31.797 l 0,-296.414 C 0.398,14.663 14.664,0.402 32.184,0.402 l 416.418,0 c 17.535,0 31.796,14.261 31.796,31.789 l 0,296.414 c 0,17.531 -14.261,31.797 -31.796,31.797 l -416.418,0 z" /><path
         id="path22816"
         style="fill:#000000;fill-opacity:1;fill-rule:nonzero;stroke:none"
         d="m 32.184,352.632 c -13.262,0 -24.016,-10.758 -24.016,-24.027 l 0,-296.414 C 8.168,18.925 18.922,8.163 32.184,8.163 l 416.418,0 c 13.265,0 24.027,10.762 24.027,24.028 l 0,296.414 c 0,13.269 -10.762,24.027 -24.027,24.027 l -416.418,0 z m 0,-12.02 416.418,0 c 6.636,0 12.015,-5.375 12.015,-12.007 l 0,-296.414 c 0,-6.641 -5.379,-12.008 -12.015,-12.008 l -416.418,0 c -6.622,0 -12.008,5.367 -12.008,12.008 l 0,296.414 c 0,6.632 5.386,12.007 12.008,12.007 z" /><path
         id="path22818"
         style="fill:#000000;fill-opacity:1;fill-rule:nonzero;stroke:none"
         d="M 32.184,360.8 C 14.445,360.8 0,346.355 0,328.605 L 0,32.191 C 0,14.448 14.445,-0.001 32.184,-0.001 l 416.418,0 c 17.75,0 32.199,14.449 32.199,32.192 l 0,296.414 c 0,17.75 -14.449,32.195 -32.199,32.195 l -416.418,0 z m 0,-0.398 416.418,0 c 17.535,0 31.796,-14.266 31.796,-31.797 l 0,-296.414 c 0,-17.524 -14.261,-31.789 -31.796,-31.789 l -416.418,0 c -17.52,0 -31.786,14.265 -31.786,31.789 l 0,296.414 c 0,17.531 14.266,31.797 31.786,31.797 z" /><g
         transform="translate(0,-0.200012)"
         id="g22820"><g
           id="g22822"><g
             clip-path="url(#clipPath22826)"
             id="g22824"><g
               id="g22830"><path
                 id="path22832"
                 style="fill:#000000;fill-opacity:1;fill-rule:nonzero;stroke:none"
                 d="m 92.816,242.664 0,61.801 8.817,0 0,-52.969 17.617,0 0,-8.832 -26.434,0 z" /><path
                 id="path22834"
                 style="fill:#000000;fill-opacity:1;fill-rule:nonzero;stroke:none"
                 d="m 150.09,242.664 -8.817,0 0,4.41 c -2.433,-4.57 -8.101,-6.293 -12.664,-3.855 -3.043,1.621 -4.953,4.804 -4.953,8.277 l 0,6.613 c 0,6.106 4.926,11.039 11.016,11.039 l 6.601,0 0,4.965 c 0,2.438 -1.968,4.422 -4.402,4.422 -2.433,0 -4.398,-1.984 -4.398,-4.422 l -8.817,0 c 0,7.313 5.914,13.242 13.215,13.242 7.301,0 13.219,-5.929 13.219,-13.242 l 0,-31.449 z m -8.817,19.316 -4.402,0 c -2.433,0 -4.398,-1.984 -4.398,-4.425 l 0,-2.203 c 0,-2.438 1.965,-4.411 4.398,-4.411 2.434,0 4.402,1.973 4.402,4.411 l 0,6.628 z" /><path
                 id="path22836"
                 style="fill:#000000;fill-opacity:1;fill-rule:nonzero;stroke:none"
                 d="m 158.898,242.664 0,44.137 8.813,0 0,-4.41 c 2.434,4.57 8.101,6.304 12.664,3.867 3.047,-1.633 4.953,-4.817 4.953,-8.278 l 0,-35.316 -8.816,0 0,31.449 c 0,2.438 -1.965,4.422 -4.399,4.422 -2.433,0 -4.402,-1.984 -4.402,-4.422 l 0,-31.449 -8.813,0 z" /><path
                 id="path22838"
                 style="fill:#000000;fill-opacity:1;fill-rule:nonzero;stroke:none"
                 d="m 219.469,242.664 -8.813,0 0,4.41 c -2.433,-4.57 -8.105,-6.293 -12.664,-3.855 -3.047,1.621 -4.953,4.804 -4.953,8.277 l 0,26.484 c 0,5.184 4.195,9.375 9.367,9.375 3.453,0 6.629,-1.914 8.25,-4.964 l 0,22.074 8.813,0 0,-61.801 z m -8.813,12.688 0,18.761 c 0,2.438 -1.968,4.422 -4.402,4.422 -2.434,0 -4.402,-1.984 -4.402,-4.422 l 0,-18.761 c 0,-2.438 1.968,-4.411 4.402,-4.411 2.434,0 4.402,1.973 4.402,4.411" /><path
                 id="path22840"
                 style="fill:#000000;fill-opacity:1;fill-rule:nonzero;stroke:none"
                 d="m 230.484,271.348 26.43,0 0,-8.832 -26.43,0 0,8.832 z" /><path
                 id="path22842"
                 style="fill:#000000;fill-opacity:1;fill-rule:nonzero;stroke:none"
                 d="m 318.594,242.664 -8.817,0 0,4.41 c -2.418,-4.57 -8.101,-6.293 -12.66,-3.855 -3.047,1.621 -4.957,4.804 -4.957,8.277 l 0,35.305 8.817,0 0,-31.449 c 0,-2.438 1.968,-4.411 4.402,-4.411 2.433,0 4.398,1.973 4.398,4.411 l 0,31.449 8.817,0 0,-44.137 z" /><path
                 id="path22844"
                 style="fill:#000000;fill-opacity:1;fill-rule:nonzero;stroke:none"
                 d="m 327.406,242.664 0,44.137 8.817,0 0,-4.41 c 2.429,4.57 8.101,6.304 12.66,3.867 3.047,-1.633 4.953,-4.817 4.953,-8.278 l 0,-35.316 -8.813,0 0,31.449 c 0,2.438 -1.968,4.422 -4.402,4.422 -2.433,0 -4.398,-1.984 -4.398,-4.422 l 0,-31.449 -8.817,0 z" /><path
                 id="path22846"
                 style="fill:#000000;fill-opacity:1;fill-rule:nonzero;stroke:none"
                 d="m 387.977,242.664 -8.813,0 0,4.41 c -2.434,-4.57 -8.102,-6.293 -12.664,-3.855 -3.047,1.621 -4.953,4.804 -4.953,8.277 l 0,26.484 c 0,5.184 4.195,9.375 9.367,9.375 3.453,0 6.633,-1.914 8.25,-4.964 l 0,22.074 8.813,0 0,-61.801 z m -8.813,12.688 0,18.761 c 0,2.438 -1.969,4.422 -4.402,4.422 -2.434,0 -4.399,-1.984 -4.399,-4.422 l 0,-18.761 c 0,-2.438 1.965,-4.411 4.399,-4.411 2.433,0 4.402,1.973 4.402,4.411" /><path
                 id="path22848"
                 style="fill:#000000;fill-opacity:1;fill-rule:nonzero;stroke:none"
                 d="m 64.18,149.973 0,36.965 -4.399,0 0,7.171 4.399,0 0,6.625 c 0,6.09 4.925,11.039 11.015,11.039 l 4.403,0 0,-8.277 -3.848,0 c -1.531,0 -2.754,-1.242 -2.754,-2.762 l 0,-6.625 6.602,0 0,-7.171 -6.602,0 0,-36.965 -8.816,0 z" /><path
                 id="path22850"
                 style="fill:#000000;fill-opacity:1;fill-rule:nonzero;stroke:none"
                 d="m 84.004,162.668 0,18.758 c 0,7.316 5.914,13.242 13.215,13.242 7.301,0 13.219,-5.926 13.219,-13.242 l 0,-18.758 c 0,-7.316 -5.918,-13.242 -13.219,-13.242 -7.301,0 -13.215,5.926 -13.215,13.242 m 8.816,0 c 0,-2.441 1.965,-4.426 4.399,-4.426 2.433,0 4.402,1.985 4.402,4.426 l 0,18.758 c 0,2.437 -1.969,4.41 -4.402,4.41 -2.434,0 -4.399,-1.973 -4.399,-4.41 l 0,-18.758 z" /><path
                 id="path22852"
                 style="fill:#000000;fill-opacity:1;fill-rule:nonzero;stroke:none"
                 d="m 119.25,149.973 0,44.136 8.816,0 0,-4.98 c 2.813,3.504 7.067,5.535 11.555,5.535 l 0,-9.273 c -4.621,1.519 -9.605,-0.993 -11.117,-5.621 -0.293,-0.891 -0.438,-1.825 -0.438,-2.758 l 0,-27.039 -8.816,0 z" /><path
                 id="path22854"
                 style="fill:#000000;fill-opacity:1;fill-rule:nonzero;stroke:none"
                 d="m 142.93,162.668 8.261,0 c 0,-2.746 2.215,-4.965 4.954,-4.965 2.738,0 4.953,2.219 4.953,4.965 0,1.953 -1.153,3.734 -2.942,4.539 l -7.14,2.613 c -6.399,2.832 -9.282,10.336 -6.457,16.746 2.843,6.411 10.316,9.301 16.714,6.454 4.575,-2.032 7.536,-6.571 7.536,-11.594 l -8.266,0 c 0,2.437 -1.965,4.41 -4.398,4.41 -2.434,0 -4.403,-1.973 -4.403,-4.41 0,-1.75 1.02,-3.328 2.625,-4.043 l 7.125,-2.613 c 6.672,-2.965 9.692,-10.79 6.731,-17.477 -2.957,-6.688 -10.754,-9.691 -17.426,-6.731 -4.781,2.118 -7.867,6.864 -7.867,12.106" /><path
                 id="path22856"
                 style="fill:#000000;fill-opacity:1;fill-rule:nonzero;stroke:none"
                 d="m 191.387,149.973 -4.399,0 c -5.48,0 -9.926,4.437 -9.926,9.929 l 0,27.036 -4.398,0 0,7.171 4.398,0 0,13.239 8.817,0 0,-13.239 5.508,0 0,-7.171 -5.508,0 0,-25.926 c 0,-1.535 1.238,-2.762 2.754,-2.762 l 2.754,0 0,-8.277 z" /><path
                 id="path22858"
                 style="fill:#000000;fill-opacity:1;fill-rule:nonzero;stroke:none"
                 d="m 206.254,149.973 -10.461,44.136 9.371,0 5.492,-27.582 4.953,27.582 6.618,0 4.953,-27.582 5.508,27.582 9.371,0 -10.465,-44.136 -7.723,0 -4.953,26.484 -4.953,-26.484 -7.711,0 z" /><path
                 id="path22860"
                 style="fill:#000000;fill-opacity:1;fill-rule:nonzero;stroke:none"
                 d="m 247.562,194.117 8.813,0 0,-44.133 -8.813,0 0,44.133 z m 0,17.653 8.813,0 0,-8.832 -8.813,0 0,8.832 z" /><path
                 id="path22862"
                 style="fill:#000000;fill-opacity:1;fill-rule:nonzero;stroke:none"
                 d="m 265.18,149.973 0,44.136 8.816,0 0,-4.98 c 2.813,3.504 7.066,5.535 11.555,5.535 l 0,-9.273 c -4.617,1.519 -9.602,-0.993 -11.117,-5.621 -0.293,-0.891 -0.438,-1.825 -0.438,-2.758 l 0,-27.039 -8.816,0 z" /><path
                 id="path22864"
                 style="fill:#000000;fill-opacity:1;fill-rule:nonzero;stroke:none"
                 d="m 308.684,149.973 -4.403,0 c -5.476,0 -9.922,4.437 -9.922,9.929 l 0,27.036 -4.402,0 0,7.171 4.402,0 0,13.239 8.817,0 0,-13.239 5.508,0 0,-7.171 -5.508,0 0,-25.926 c 0,-1.535 1.238,-2.762 2.754,-2.762 l 2.754,0 0,-8.277 z" /><path
                 id="path22866"
                 style="fill:#000000;fill-opacity:1;fill-rule:nonzero;stroke:none"
                 d="m 314.188,162.668 8.261,0 c 0,-2.746 2.215,-4.965 4.957,-4.965 2.739,0 4.953,2.219 4.953,4.965 0,1.953 -1.152,3.734 -2.945,4.539 l -7.137,2.613 c -6.398,2.832 -9.285,10.336 -6.457,16.746 2.844,6.411 10.317,9.301 16.715,6.454 4.574,-2.032 7.531,-6.571 7.531,-11.594 l -8.261,0 c 0,2.437 -1.965,4.41 -4.399,4.41 -2.433,0 -4.402,-1.973 -4.402,-4.41 0,-1.75 1.019,-3.328 2.625,-4.043 l 7.125,-2.613 c 6.672,-2.965 9.687,-10.79 6.73,-17.477 -2.957,-6.688 -10.754,-9.691 -17.425,-6.731 -4.782,2.118 -7.871,6.864 -7.871,12.106" /><path
                 id="path22868"
                 style="fill:#000000;fill-opacity:1;fill-rule:nonzero;stroke:none"
                 d="m 372.559,163.215 0,-0.555 c 0,-7.312 -5.914,-13.242 -13.215,-13.242 -7.301,0 -13.215,5.93 -13.215,13.242 l 0,18.762 c 0,7.312 5.914,13.242 13.215,13.242 7.301,0 13.215,-5.93 13.215,-13.242 l 0,-0.555 -8.813,0 0,0.555 c 0,2.437 -1.969,4.406 -4.402,4.406 -2.434,0 -4.399,-1.969 -4.399,-4.406 l 0,-18.762 c 0,-2.437 1.965,-4.41 4.399,-4.41 2.433,0 4.402,1.973 4.402,4.41 l 0,0.555 8.813,0 z" /><path
                 id="path22870"
                 style="fill:#000000;fill-opacity:1;fill-rule:nonzero;stroke:none"
                 d="m 378.066,149.973 0,61.8 8.817,0 0,-22.074 c 2.433,4.571 8.101,6.305 12.664,3.867 3.043,-1.632 4.953,-4.816 4.953,-8.277 l 0,-35.316 -8.816,0 0,31.449 c 0,2.437 -1.969,4.406 -4.399,4.406 -2.433,0 -4.402,-1.969 -4.402,-4.406 l 0,-31.449 -8.817,0 z" /><path
                 id="path22872"
                 style="fill:#000000;fill-opacity:1;fill-rule:nonzero;stroke:none"
                 d="m 412.203,158.801 8.816,0 0,-8.832 -8.816,0 0,8.832 z" /><path
                 id="path22874"
                 style="fill:#000000;fill-opacity:1;fill-rule:nonzero;stroke:none"
                 d="m 79.324,57.281 -12.664,61.797 9.356,0 7.168,-43.039 7.156,43.039 9.355,0 -12.664,-61.797 -7.707,0 z" /><path
                 id="path22876"
                 style="fill:#000000;fill-opacity:1;fill-rule:nonzero;stroke:none"
                 d="m 128.336,69.969 c 0,-7.313 -5.918,-13.239 -13.219,-13.239 -7.301,0 -13.215,5.926 -13.215,13.239 l 0,18.761 c 0,7.317 5.914,13.243 13.215,13.243 7.301,0 13.219,-5.926 13.219,-13.243 l 0,-12.687 -17.617,0 0,-6.074 c 0,-2.438 1.965,-4.407 4.398,-4.407 2.434,0 4.403,1.969 4.403,4.407 l 8.816,0 z m -17.617,13.242 8.801,0 0,5.519 c 0,2.438 -1.969,4.411 -4.403,4.411 -2.433,0 -4.398,-1.973 -4.398,-4.411 l 0,-5.519 z" /><path
                 id="path22878"
                 style="fill:#000000;fill-opacity:1;fill-rule:nonzero;stroke:none"
                 d="m 136.043,57.281 0,44.133 8.816,0 0,-4.976 c 2.813,3.503 7.067,5.531 11.555,5.531 l 0,-9.27 c -4.621,1.531 -9.602,-0.992 -11.117,-5.621 -0.293,-0.89 -0.438,-1.824 -0.438,-2.758 l 0,-27.039 -8.816,0 z" /><path
                 id="path22880"
                 style="fill:#000000;fill-opacity:1;fill-rule:nonzero;stroke:none"
                 d="m 161.926,57.281 0,61.797 8.816,0 0,-36.965 11.004,19.301 8.813,0 -10.461,-17.648 12.664,-26.485 -9.91,0 -7.707,18.758 -4.403,-6.613 0,-12.145 -8.816,0 z" /><path
                 id="path22882"
                 style="fill:#000000;fill-opacity:1;fill-rule:nonzero;stroke:none"
                 d="m 222.496,69.969 c 0,-7.313 -5.914,-13.239 -13.215,-13.239 -7.301,0 -13.215,5.926 -13.215,13.239 l 0,18.761 c 0,7.317 5.914,13.243 13.215,13.243 7.301,0 13.215,-5.926 13.215,-13.243 l 0,-12.687 -17.613,0 0,-6.074 c 0,-2.438 1.965,-4.407 4.398,-4.407 2.434,0 4.403,1.969 4.403,4.407 l 8.812,0 z m -17.613,13.242 8.801,0 0,5.519 c 0,2.438 -1.969,4.411 -4.403,4.411 -2.433,0 -4.398,-1.973 -4.398,-4.411 l 0,-5.519 z" /><path
                 id="path22884"
                 style="fill:#000000;fill-opacity:1;fill-rule:nonzero;stroke:none"
                 d="m 230.211,57.281 0,61.797 8.816,0 0,-22.074 c 2.434,4.57 8.102,6.308 12.661,3.871 3.046,-1.637 4.957,-4.82 4.957,-8.277 l 0,-35.317 -8.817,0 0,31.446 c 0,2.437 -1.969,4.425 -4.402,4.425 -2.434,0 -4.399,-1.988 -4.399,-4.425 l 0,-31.446 -8.816,0 z" /><path
                 id="path22886"
                 style="fill:#000000;fill-opacity:1;fill-rule:nonzero;stroke:none"
                 d="m 265.453,57.281 0,44.133 8.817,0 0,-4.976 c 2.812,3.503 7.066,5.531 11.554,5.531 l 0,-9.27 c -4.617,1.531 -9.601,-0.992 -11.117,-5.621 -0.289,-0.89 -0.437,-1.824 -0.437,-2.758 l 0,-27.039 -8.817,0 z" /><path
                 id="path22888"
                 style="fill:#000000;fill-opacity:1;fill-rule:nonzero;stroke:none"
                 d="m 325.477,57.281 0,36.965 -4.399,0 0,7.168 4.399,0 0,6.629 c 0,6.086 4.925,11.035 11.015,11.035 l 4.403,0 0,-8.277 -3.848,0 c -1.531,0 -2.754,-1.239 -2.754,-2.758 l 0,-6.629 6.602,0 0,-7.168 -6.602,0 0,-36.965 -8.816,0 z" /><path
                 id="path22890"
                 style="fill:#000000;fill-opacity:1;fill-rule:nonzero;stroke:none"
                 d="m 347.504,57.281 0,44.133 8.816,0 0,-4.976 c 2.813,3.503 7.067,5.531 11.555,5.531 l 0,-9.27 c -4.617,1.531 -9.602,-0.992 -11.117,-5.621 -0.293,-0.89 -0.438,-1.824 -0.438,-2.758 l 0,-27.039 -8.816,0 z" /><path
                 id="path22892"
                 style="fill:#000000;fill-opacity:1;fill-rule:nonzero;stroke:none"
                 d="m 397.617,69.969 c 0,-7.313 -5.918,-13.239 -13.219,-13.239 -7.3,0 -13.214,5.926 -13.214,13.239 l 0,18.761 c 0,7.317 5.914,13.243 13.214,13.243 7.301,0 13.219,-5.926 13.219,-13.243 l 0,-12.687 -17.617,0 0,-6.074 c 0,-2.438 1.965,-4.407 4.398,-4.407 2.434,0 4.403,1.969 4.403,4.407 l 8.816,0 z M 380,83.211 l 8.801,0 0,5.519 c 0,2.438 -1.969,4.411 -4.403,4.411 -2.433,0 -4.398,-1.973 -4.398,-4.411 l 0,-5.519 z" /><path
                 id="path22894"
                 style="fill:#000000;fill-opacity:1;fill-rule:nonzero;stroke:none"
                 d="m 405.324,101.426 8.817,0 0,-44.133 -8.817,0 0,44.133 z m 0,17.652 8.817,0 0,-8.832 -8.817,0 0,8.832 z" /></g></g></g></g></g></g></svg>