<?xml version="1.0" encoding="UTF-8" standalone="no"?>
<svg
   xmlns:dc="http://purl.org/dc/elements/1.1/"
   xmlns:cc="http://creativecommons.org/ns#"
   xmlns:rdf="http://www.w3.org/1999/02/22-rdf-syntax-ns#"
   xmlns:svg="http://www.w3.org/2000/svg"
   xmlns="http://www.w3.org/2000/svg"
   viewBox="0 0 600 330"
   height="330"
   width="600"
   xml:space="preserve"
   version="1.1"
   id="svg5409"><metadata
     id="metadata5415"><rdf:RDF><cc:Work
         rdf:about=""><dc:format>image/svg+xml</dc:format><dc:type
           rdf:resource="http://purl.org/dc/dcmitype/StillImage" /><dc:title></dc:title></cc:Work></rdf:RDF></metadata><defs
     id="defs5413" /><g
     transform="matrix(1.25,0,0,-1.25,0,330)"
     id="g5417"><g
       id="g5419"><path
         id="path5421"
         style="fill:#ffffff;fill-opacity:1;fill-rule:nonzero;stroke:none"
         d="m 31.996,263.758 c -17.512,0 -31.754,-14.25 -31.754,-31.766 l 0,-199.996 C 0.242,14.484 14.484,0.242 31.996,0.242 l 416.008,0 c 17.512,0 31.754,14.242 31.754,31.754 l 0,199.996 c 0,17.516 -14.242,31.766 -31.754,31.766" /><path
         id="path5423"
         style="fill:#000000;fill-opacity:1;fill-rule:nonzero;stroke:none"
         d="M 31.996,0.469 C 14.613,0.469 0.48,14.613 0.48,31.996 l 0,199.996 c 0,17.383 14.133,31.528 31.516,31.528 l 416.008,0 c 17.383,0 31.516,-14.145 31.516,-31.528 l 0,-199.996 c 0,-17.383 -14.133,-31.527 -31.516,-31.527 l -416.008,0 z M 448.004,264 31.996,264 C 14.32,264 0,249.672 0,231.992 L 0,31.996 C 0,14.328 14.32,0 31.996,0 L 448.004,0 C 465.672,0 480,14.328 480,31.996 l 0,199.996 C 480,249.672 465.672,264 448.004,264" /><path
         id="path5425"
         style="fill:#000000;fill-opacity:1;fill-rule:nonzero;stroke:none"
         d="m 31.996,19.996 416.008,0 c 6.629,0 12,5.371 12,12 l 0,199.996 c 0,6.629 -5.371,12 -12,12 l -416.008,0 c -6.629,0 -12,-5.371 -12,-12 l 0,-199.996 c 0,-6.629 5.371,-12 12,-12 z m 0,-12 c -13.258,0 -24,10.742 -24,24 l 0,199.996 c 0,13.258 10.742,24 24,24 l 416.008,0 c 13.258,0 24,-10.742 24,-24 l 0,-199.996 c 0,-13.258 -10.742,-24 -24,-24" /><path
         id="path5427"
         style="fill:#000000;fill-opacity:1;fill-rule:nonzero;stroke:none"
         d="m 156,197.742 0,-84 264,0 0,84 -264,0 z m -73.836,-21 c -2.508,0 -4.75,-1.554 -5.625,-3.894 L 61.531,132.812 C 60.516,130.121 60,127.266 60,124.387 l 0,-46.645 c 0,-3.324 2.691,-6.004 6.004,-6.004 l 12,0 c 0,11.442 7.211,21.637 17.996,25.457 14.055,4.965 29.48,-2.398 34.457,-16.453 l 36.09,0 c 3.816,10.785 14.012,17.992 25.453,17.992 14.91,0 26.996,-12.086 26.996,-26.996 l 9.004,0 c 0,19.887 -16.113,36 -36,36 l -60,0 0,69.004 -49.836,0 z m -2.664,-12 31.492,0 0.004,-30.008 -42.758,-5.031 c -0.656,-0.078 -1.261,0.395 -1.336,1.063 -0.027,0.183 0,0.371 0.063,0.554 L 79.5,164.742 Z M 336,107.738 c -19.875,0 -36,-16.113 -36,-36 l 9.004,0 c 0,7.68 3.269,14.996 8.988,20.129 11.125,9.93 28.192,8.992 38.137,-2.133 l 7.754,0 c 5.109,5.731 12.437,9 20.117,9 14.91,0 26.996,-12.086 26.996,-26.996 l 9.004,0 c 0,19.887 -16.113,36 -36,36 l -48,0 z M 105.004,92.742 C 93.406,92.742 84,83.336 84,71.738 c 0,-11.593 9.406,-21.004 21.004,-21.004 11.594,0 21,9.411 21,21.004 0,11.598 -9.406,21.004 -21,21.004 z m 86.996,0 c -11.594,0 -21.004,-9.406 -21.004,-21.004 0,-11.593 9.41,-21.004 21.004,-21.004 11.605,0 21.004,9.411 21.004,21.004 0,11.598 -9.399,21.004 -21.004,21.004 z m 144,0 c -11.594,0 -20.992,-9.406 -20.992,-21.004 0,-11.593 9.398,-21.004 20.992,-21.004 11.594,0 21.004,9.411 21.004,21.004 0,11.598 -9.41,21.004 -21.004,21.004 z m 48,0 c -11.594,0 -21.004,-9.406 -21.004,-21.004 0,-11.593 9.41,-21.004 21.004,-21.004 11.605,0 21.004,9.411 21.004,21.004 0,11.598 -9.399,21.004 -21.004,21.004 z" /></g></g></svg>