<?xml version="1.0" encoding="UTF-8" standalone="no"?>
<svg
   xmlns:dc="http://purl.org/dc/elements/1.1/"
   xmlns:cc="http://creativecommons.org/ns#"
   xmlns:rdf="http://www.w3.org/1999/02/22-rdf-syntax-ns#"
   xmlns:svg="http://www.w3.org/2000/svg"
   xmlns="http://www.w3.org/2000/svg"
   viewBox="0 0 421.01364 232.01756"
   height="232.01756"
   width="421.01364"
   xml:space="preserve"
   id="svg10203"
   version="1.1"><metadata
     id="metadata10209"><rdf:RDF><cc:Work
         rdf:about=""><dc:format>image/svg+xml</dc:format><dc:type
           rdf:resource="http://purl.org/dc/dcmitype/StillImage" /><dc:title></dc:title></cc:Work></rdf:RDF></metadata><defs
     id="defs10207"><clipPath
       id="clipPath10223"
       clipPathUnits="userSpaceOnUse"><path
         id="path10221"
         d="M 0,0 H 316 V 175 H 0 Z" /></clipPath><clipPath
       id="clipPath10239"
       clipPathUnits="userSpaceOnUse"><path
         id="path10237"
         d="M 5,6 H 311 V 170 H 5 Z" /></clipPath><clipPath
       id="clipPath10257"
       clipPathUnits="userSpaceOnUse"><path
         id="path10255"
         d="m 125,42 h 66 v 92 h -66 z" /></clipPath></defs><g
     transform="matrix(1.3333333,0,0,-1.3333333,0,232.01756)"
     id="g10211"><g
       id="g10213"><g
         transform="translate(0,-0.986832)"
         id="g10215"><g
           id="g10217"><g
             clip-path="url(#clipPath10223)"
             id="g10219"><g
               id="g10225"><path
                 id="path10227"
                 style="fill:#ffffff;fill-opacity:1;fill-rule:evenodd;stroke:none"
                 d="M 21.375,1.367 C 9.781,1.367 0.379,10.77 0.379,22.363 v 131.258 c 0,11.594 9.402,21.004 20.996,21.004 h 273.008 c 11.597,0 20.996,-9.41 20.996,-21.004 V 22.363 c 0,-11.593 -9.399,-20.996 -20.996,-20.996 z" /><path
                 id="path10229"
                 style="fill:#000000;fill-opacity:1;fill-rule:evenodd;stroke:none"
                 d="M 21.375,175 C 9.578,175 0,165.422 0,153.625 V 22.363 C 0,10.563 9.578,0.988 21.375,0.988 h 273.008 c 11.801,0 21.379,9.575 21.379,21.375 v 131.262 c 0,11.797 -9.578,21.375 -21.379,21.375 z m 0,-0.375 h 273.008 c 11.597,0 20.996,-9.41 20.996,-21.004 V 22.363 C 315.379,10.77 305.98,1.371 294.383,1.371 H 21.375 C 9.781,1.371 0.379,10.77 0.379,22.363 v 131.258 c 0,11.594 9.402,21.004 20.996,21.004 z" /></g></g></g></g><g
         transform="translate(0,-0.986832)"
         id="g10231"><g
           id="g10233"><g
             clip-path="url(#clipPath10239)"
             id="g10235"><g
               id="g10241"><path
                 id="path10243"
                 style="fill:#000000;fill-opacity:1;fill-rule:evenodd;stroke:none"
                 d="m 21.375,6.617 c -8.699,0 -15.746,7.055 -15.746,15.746 v 131.258 c 0,8.699 7.047,15.754 15.746,15.754 h 273.008 c 8.695,0 15.75,-7.055 15.75,-15.754 V 22.363 c 0,-8.691 -7.055,-15.746 -15.75,-15.746 z" /><path
                 id="path10245"
                 style="fill:#ffffff;fill-opacity:1;fill-rule:evenodd;stroke:none"
                 d="m 21.375,14.492 c -4.344,0 -7.871,3.528 -7.871,7.875 v 131.254 c 0,4.348 3.527,7.875 7.871,7.875 h 273.008 c 4.347,0 7.875,-3.527 7.875,-7.875 V 22.367 c 0,-4.347 -3.528,-7.875 -7.875,-7.875 z" /></g></g></g></g></g><g
       id="g10247"><g
         transform="translate(0,-0.986832)"
         id="g10249"><g
           id="g10251"><g
             clip-path="url(#clipPath10257)"
             id="g10253"><g
               id="g10259"><path
                 id="path10261"
                 style="fill:#000000;fill-opacity:1;fill-rule:nonzero;stroke:none"
                 d="m 176.668,74.242 c -0.066,-1.336 -0.133,-2.683 -0.363,-3.992 -0.68,-3.77 -2.723,-7.363 -5.664,-9.992 -2.555,-2.477 -5.844,-4.176 -9.258,-4.653 -1.098,-0.183 -2.203,-0.25 -3.297,-0.304 H 139 v 65.597 h 19.223 c 1.617,-0.101 3.242,-0.207 4.793,-0.578 2.757,-0.668 5.32,-2.191 7.464,-4.187 2.231,-1.977 4.024,-4.438 4.934,-7.168 0.871,-2.387 1.066,-4.988 1.254,-7.578 z m 13.344,33.961 c -0.996,6.582 -4.801,12.785 -10.004,17.301 -4.512,4.215 -10.141,7.074 -16.035,7.976 -1.914,0.29 -3.856,0.372 -5.797,0.454 H 125.09 V 42.059 h 32.344 c 2.156,0.054 4.3,0.109 6.418,0.464 6.156,0.762 12.035,4.012 16.539,8.579 4.855,4.55 8.226,10.523 9.488,16.836 0.418,2.082 0.605,4.187 0.789,6.304 v 27.145 c -0.109,2.285 -0.223,4.57 -0.656,6.816" /></g></g></g></g></g></g></svg>