<svg xmlns="http://www.w3.org/2000/svg" viewBox="0 0 400 600" role="img" aria-labelledby="title">
  <title id="title">Verkehrszeichen II.79 - Various parking exceptions</title>
  <text xml:space="preserve" x="-111.179" y="682.428" style="font-style:normal;font-weight:400;line-height:0%;font-family:&quot;Bitstream Vera Sans&quot;;fill:#000;fill-opacity:1;stroke:none" transform="translate(-994.788 -2440.864)"><tspan x="-111.179" y="682.428" style="font-size:144px;line-height:1.25"> </tspan></text>
  <text xml:space="preserve" x="-111.179" y="682.428" style="font-style:normal;font-weight:400;line-height:0%;font-family:&quot;Bitstream Vera Sans&quot;;fill:#000;fill-opacity:1;stroke:none" transform="translate(-1696.011 -1711.683)"><tspan x="-111.179" y="682.428" style="font-size:144px;line-height:1.25"> </tspan></text>
  <g transform="translate(-2196.065 -660.215)">
    <rect width="397" height="597" x="2197.565" y="661.715" rx="0" ry="0" style="font-stretch:normal;text-anchor:start;fill:#fff;fill-opacity:1;stroke:#000;stroke-width:.5;stroke-miterlimit:4;stroke-opacity:1;stroke-dasharray:none;-inkscape-font-specification:&quot;Transport Heavy,&quot;"/>
    <rect width="376" height="576" x="2208.065" y="672.215" rx="30" ry="30" style="font-stretch:normal;text-anchor:start;fill:none;stroke:#000;stroke-width:7;stroke-miterlimit:4;stroke-opacity:1;stroke-dasharray:none;-inkscape-font-specification:&quot;Transport Heavy,&quot;"/>
    <path d="M2527.733 838.057c.012 71.697-58.117 129.826-129.826 129.826s-129.837-58.129-129.825-129.826c-.012-71.697 58.116-129.825 129.825-129.825 71.71 0 129.838 58.128 129.826 129.825" style="font-stretch:normal;text-anchor:start;fill:#000;fill-opacity:1;fill-rule:evenodd;stroke:none;-inkscape-font-specification:&quot;Transport Heavy,&quot;"/>
    <path d="M2526.434 838.057c0 70.984-57.543 128.527-128.527 128.527s-128.527-57.543-128.527-128.527 57.544-128.527 128.527-128.527c70.984 0 128.527 57.544 128.527 128.527" style="font-stretch:normal;text-anchor:start;fill:#fff;fill-opacity:1;fill-rule:evenodd;stroke:none;-inkscape-font-specification:&quot;Transport Heavy,&quot;"/>
    <path d="M2397.907 712.127c-69.55 0-125.93 56.38-125.93 125.93s56.38 125.93 125.93 125.93 125.93-56.38 125.93-125.93-56.38-125.93-125.93-125.93m0 32.456c51.598 0 93.474 41.877 93.474 93.474 0 23.098-8.415 44.214-22.313 60.531l-131.692-131.691c16.317-13.899 37.434-22.314 60.531-22.314m-72.053 33.958 131.57 131.61c-16.17 13.372-36.911 21.38-59.517 21.38-51.598 0-93.474-41.876-93.474-93.474 0-22.615 8.04-43.344 21.421-59.516" style="font-stretch:normal;text-anchor:start;fill:#d40000;fill-opacity:1;fill-rule:evenodd;stroke:none;-inkscape-font-specification:&quot;Transport Heavy,&quot;"/>
    <path d="M2397.907 748.478c-20.61 0-39.587 6.99-54.73 18.703l125.607 125.606c11.712-15.142 18.703-34.12 18.703-54.73 0-49.448-40.132-89.58-89.58-89.58m-71.728 35.905c-11.213 14.96-17.851 33.554-17.851 53.674 0 49.448 40.131 89.58 89.58 89.58 20.12 0 38.715-6.638 53.674-17.851z" style="font-stretch:normal;text-anchor:start;fill:#00408b;fill-opacity:1;fill-rule:evenodd;stroke:none;-inkscape-font-specification:&quot;Transport Heavy,&quot;"/>
    <path d="M2239.799 1049.316h132.209v131.974h-132.209z" style="font-stretch:normal;text-anchor:start;fill:#fff;fill-opacity:1;stroke:none;-inkscape-font-specification:&quot;Transport Heavy,&quot;"/>
    <path d="M2252.358 1050.109h95.12c6.211 0 11.212 5.043 11.212 11.309v95.948c0 6.265-5 11.308-11.211 11.308h-95.12c-6.212 0-11.212-5.043-11.212-11.308v-95.948c0-6.266 5-11.31 11.211-11.31z" style="font-stretch:normal;-inkscape-font-specification:&quot;Transport Heavy,&quot;;text-anchor:start;fill:#00408b;fill-opacity:1;stroke:#000;stroke-width:1.71268;stroke-miterlimit:4;stroke-dasharray:none;stroke-opacity:1"/>
    <path d="M2266.833 1064.558h41.011l.495.238h.741l1.73.237.74.238 3.46.713q23.16 10.7 19.517 33.76-8.277 27.283-37.8 23.776h-12.352v31.858h-19.518v-90.82zm17.541 41.844h20.753q1.544-.594 2.718-.713 10.314-5.884 6.917-16.167-2.285-5.111-7.164-7.133h-.741q-3.83-1.069-6.918-.713h-15.565z" style="font-stretch:normal;-inkscape-font-specification:&quot;Transport Heavy,&quot;;text-anchor:start;fill:#fff;fill-opacity:1;stroke:none;stroke-width:.953077"/>
    <rect width="119.721" height="119.72" x="2431.971" y="1050.109" rx="17.339" ry="17.339" style="font-stretch:normal;-inkscape-font-specification:&quot;Transport Heavy,&quot;;text-anchor:start;fill:#fff;fill-opacity:1;stroke:#000;stroke-width:1.67972;stroke-miterlimit:4;stroke-dasharray:none;stroke-opacity:1"/>
    <text x="-648.139" y="1708.692" style="line-height:0%" transform="matrix(.94466 0 0 1.05858 3823.18 66.119)"><tspan x="-648.139" y="1708.692" style="font-variant:normal;font-weight:700;font-size:22.79px;line-height:1.25;font-family:Arial;-inkscape-font-specification:Arial-BoldMT;fill:#1f1a17;fill-opacity:1;fill-rule:nonzero;stroke:none"> </tspan></text>
    <text x="-648.139" y="1708.692" style="line-height:0%" transform="matrix(.94466 0 0 1.05858 3012.82 -63.47)"><tspan x="-648.139" y="1708.692" style="font-variant:normal;font-weight:700;font-size:22.79px;line-height:1.25;font-family:Arial;-inkscape-font-specification:Arial-BoldMT;fill:#1f1a17;fill-opacity:1;fill-rule:nonzero;stroke:none"> </tspan></text>
    <path d="m167.688 96.39-.105-13.462-13.461-.105-13.461-.105V40.05h27.122V12.929h42.677V40.05h27.122v42.677H210.46v27.122h-42.667z" style="fill:red;stroke-width:.999998" transform="translate(2302.71 1048.58)"/>
  </g>
  <path d="M600 300c.028 165.677-134.295 300-300 300S-.028 465.677 0 300C-.028 134.323 134.295 0 300 0s300.028 134.323 300 300" style="fill:#000;fill-opacity:1;fill-rule:evenodd;stroke:none" transform="translate(46.47 40.864)scale(.5179)"/>
  <path d="M597 300c0 164.029-132.971 297-297 297S3 464.029 3 300 135.971 3 300 3s297 132.971 297 297" style="fill:#fff;fill-opacity:1;fill-rule:evenodd;stroke:none" transform="translate(46.47 40.864)scale(.5179)"/>
  <path d="M300 9C139.285 9 9 139.285 9 300s130.285 291 291 291 291-130.285 291-291S460.715 9 300 9m0 75c119.232 0 216 96.768 216 216 0 53.373-19.446 102.17-51.563 139.875L160.125 135.563C197.83 103.446 246.627 84 300 84M133.5 162.47l304.031 304.125C400.166 497.493 352.236 516 300 516c-119.232 0-216-96.768-216-216 0-52.258 18.578-100.16 49.5-137.531" style="fill:#d40000;fill-opacity:1;fill-rule:evenodd;stroke:none" transform="translate(46.47 40.864)scale(.5179)"/>
  <path d="M300 93c-47.626 0-91.479 16.154-126.469 43.219l290.25 290.25C490.846 391.479 507 347.626 507 300c0-114.264-92.736-207-207-207ZM134.25 175.97C108.34 210.537 93 253.506 93 300c0 114.264 92.736 207 207 207 46.494 0 89.463-15.34 124.031-41.25z" style="fill:#00408b;fill-opacity:1;fill-rule:evenodd;stroke:#fff;stroke-width:11;stroke-miterlimit:4;stroke-dasharray:none;stroke-opacity:1" transform="translate(46.47 40.864)scale(.5179)"/>
</svg>
